<?xml version="1.0" encoding="UTF-8"?>
<svg id="Layer_1" data-name="Layer 1" xmlns="http://www.w3.org/2000/svg" viewBox="0 0 136.06 136.06">
  <defs>
    <style>
      .cls-1 {
        fill: #f79420;
        fill-rule: evenodd;
      }

      .cls-2 {
        fill: #ffce24;
      }

      .cls-3 {
        fill: #e7831d;
      }

      .cls-4 {
        fill: #fff56d;
      }

      .cls-5 {
        fill: #f2d06c;
      }

      .cls-6 {
        fill: #e0d9cc;
      }

      .cls-7 {
        fill: #ffe600;
      }

      .cls-8 {
        fill: #f68b1f;
      }

      .cls-9 {
        fill: #0c3454;
      }

      .cls-10 {
        fill: #fcd0b8;
      }

      .cls-11 {
        fill: #f7ec00;
      }

      .cls-12 {
        fill: #ffe06a;
      }

      .cls-13 {
        fill: #f3703a;
      }

      .cls-14 {
        fill: #f9ed43;
      }

      .cls-15 {
        fill: #ffe93f;
      }

      .cls-16 {
        fill: #f9a12c;
      }

      .cls-17 {
        fill: #ffdc88;
      }

      .cls-18 {
        fill: #fff200;
      }

      .cls-19 {
        fill: #ced41e;
      }

      .cls-20 {
        fill: #f8ba47;
      }

      .cls-21 {
        fill: #eae5bc;
      }

      .cls-22 {
        fill: #c4d82e;
      }

      .cls-23 {
        fill: #ffe67a;
      }

      .cls-24 {
        fill: #f89a3e;
      }
    </style>
  </defs>
  <path class="cls-5" d="m85,78.36s.06.02.09.02c.05-.08.12-.16.16-.25.22-.5.42-1.02.65-1.52.47-1.02,1.24-1.89,1.58-2.98.06-.18.18-.27.37-.26.15,0,.29.01.44.04.83.13,1.66.2,2.49.16.41-.02.82,0,1.2.18.07.03.17,0,.32-.02-.13-.2-.2-.44-.33-.48-.25-.08-.38-.29-.56-.43-1.08-.89-2.16-1.79-3.25-2.67-.19-.15-.25-.31-.2-.55.1-.51.12-1.05.27-1.54.23-.74.27-1.51.39-2.26.04-.28.09-.56.15-.89-.11.03-.18.03-.22.07-.43.35-.87.69-1.29,1.05-.75.64-1.48,1.28-2.22,1.92-.12.1-.23.14-.4.09-1.13-.37-2.27-.73-3.4-1.08-.11-.04-.24-.04-.41-.06.36,1.37,1.17,2.44,1.84,3.68-.59.08-1.12.09-1.62.22-.49.12-1.03,0-1.58.33.54.26.97.5,1.42.7.36.16.76.23,1.1.42.67.38,1.34.75,2.08.96.28.08.42.25.45.56.15,1.3.41,2.58.39,3.89,0,.23.06.47.08.7Z"/>
  <path class="cls-9" d="m85,78.36c-.03-.23-.09-.47-.08-.7.02-1.31-.24-2.6-.39-3.89-.04-.31-.17-.48-.45-.56-.75-.2-1.41-.58-2.08-.96-.34-.19-.74-.26-1.1-.42-.45-.2-.89-.43-1.42-.7.56-.34,1.1-.21,1.58-.33.5-.13,1.02-.14,1.62-.22-.67-1.23-1.48-2.31-1.84-3.68.17.03.3.03.41.06,1.14.36,2.27.71,3.4,1.08.17.06.28.01.4-.09.74-.64,1.48-1.29,2.22-1.92.42-.36.86-.71,1.29-1.05.04-.03.11-.04.22-.07-.05.33-.1.61-.15.89-.12.76-.16,1.52-.39,2.26-.15.49-.17,1.03-.27,1.54-.05.24,0,.39.2.55,1.09.88,2.17,1.78,3.25,2.67.18.15.31.35.56.43.13.04.2.28.33.48-.15.01-.25.05-.32.02-.39-.17-.79-.2-1.2-.18-.84.03-1.67-.03-2.49-.16-.14-.02-.29-.03-.44-.04-.18,0-.31.08-.37.26-.35,1.09-1.11,1.96-1.58,2.98-.23.5-.43,1.01-.65,1.52-.04.09-.11.16-.16.25-.03,0-.06-.02-.09-.02Zm5.93-5.28s.04-.09.06-.13c-.22-.18-.43-.38-.66-.55-.85-.64-1.57-1.43-2.51-1.94-.29-.16-.32-.33-.23-.66.05-.17.09-.35.12-.52.1-.5.2-.99.29-1.49.12-.7.21-1.4.34-2.22-1.18,1-2.28,1.93-3.34,2.82-.69-.22-1.3-.45-1.93-.61-.62-.16-1.18-.54-1.97-.5.41.65.77,1.22,1.14,1.79.37.57.74,1.12,1.16,1.76-1.01.06-1.93.12-2.91.48,1.5.8,3.02,1.23,4.5,1.73-.17,1.43.07,2.78.23,4.22.12-.16.18-.24.24-.33.68-1.01,1.15-2.12,1.68-3.21.23-.46.43-.79,1-.63.09.03.2,0,.29,0,.83,0,1.66,0,2.49,0Z"/>
  <path class="cls-5" d="m90.93,73.08c-.83,0-1.66,0-2.49,0-.1,0-.2.03-.29,0-.57-.16-.77.16-1,.63-.53,1.08-1,2.2-1.68,3.21-.06.09-.12.17-.24.33-.16-1.44-.4-2.78-.23-4.22-1.48-.49-3-.92-4.5-1.73.98-.36,1.9-.42,2.91-.48-.42-.63-.8-1.19-1.16-1.76-.37-.57-.73-1.14-1.14-1.79.79-.05,1.35.34,1.97.5.63.16,1.24.39,1.93.61,1.06-.9,2.15-1.82,3.34-2.82-.12.82-.22,1.52-.34,2.22-.08.5-.19.99-.29,1.49-.04.18-.07.35-.12.52-.09.33-.06.5.23.66.94.52,1.67,1.31,2.51,1.94.23.17.44.37.66.55-.02.04-.04.09-.06.13Zm-3.68-4.79s-.08-.05-.12-.08c-.59.35-.81,1.08-1.45,1.47-.6-.35-1.22-.73-1.86-1.09-.27-.15-.56-.25-.84-.37-.03-.01-.1.06-.2.13.76.82,1.5,1.62,2.24,2.43-.51.47-1.14.68-1.8.99.19.11.28.2.4.24.36.11.72.19,1.09.29q1.06.29,1.16,1.39c.01.13-.05.31.21.4.08-.14.17-.28.25-.43.19-.34.39-.68.57-1.02.16-.33.41-.36.73-.3.42.09.83.16,1.25.23.13.02.26-.01.44-.02-.15-.21-.23-.37-.36-.48-.15-.12-.35-.17-.5-.28-.52-.37-1.02-.75-1.59-1.16.12-.73.26-1.53.4-2.32Z"/>
  <path class="cls-9" d="m87.25,68.29c-.14.8-.27,1.59-.4,2.32.57.42,1.08.8,1.59,1.16.16.11.36.16.5.28.13.11.21.27.36.48-.17.01-.31.04-.44.02-.42-.06-.84-.14-1.25-.23-.32-.07-.57-.03-.73.3-.17.35-.37.68-.57,1.02-.08.15-.17.29-.25.43-.26-.09-.19-.26-.21-.4q-.1-1.1-1.16-1.39c-.36-.1-.73-.18-1.09-.29-.12-.04-.21-.13-.4-.24.66-.31,1.29-.52,1.8-.99-.75-.81-1.48-1.61-2.24-2.43.1-.07.17-.14.2-.13.29.11.58.22.84.37.63.36,1.26.74,1.86,1.09.64-.39.86-1.12,1.45-1.47.04.03.08.05.12.08Zm-3.09,3.5c0,.05.02.1.03.16.48.1.95.21,1.43.29.36.06.44.13.44.51,0,.17-.06.34.1.52.21-.33.42-.62.6-.92.18-.29.39-.38.74-.27.29.09.6.23.95.13-.31-.35-.96-.82-1.38-1.01-.55-.24-.58-.31-.46-.89.04-.21.1-.41.15-.62.05-.25.1-.49.15-.74-.03-.01-.05-.03-.08-.04-.31.36-.62.73-.91,1.07-.73-.31-1.41-.59-2.1-.88.21.35.45.65.72.92.28.28.59.52.95.83-.48.34-.91.65-1.34.96Z"/>
  <path class="cls-5" d="m84.16,71.79c.43-.31.85-.61,1.34-.96-.36-.31-.67-.55-.95-.83-.27-.27-.51-.57-.72-.92.68.29,1.37.58,2.1.88.29-.34.6-.71.91-1.07.03.01.05.03.08.04-.05.25-.1.49-.15.74-.05.21-.1.41-.15.62-.12.58-.09.65.46.89.42.19,1.07.66,1.38,1.01-.35.1-.65-.04-.95-.13-.35-.11-.56-.02-.74.27-.19.3-.39.6-.6.92-.15-.17-.09-.35-.1-.52,0-.38-.09-.45-.44-.51-.48-.08-.95-.19-1.43-.29,0-.05-.02-.1-.03-.16Z"/>
  <path class="cls-5" d="m23.91,106.04c-.31.13-.28.27-.21.48.15.43.26.88.39,1.32.06.2.1.41.21.58.73,1.16,1.11,2.47,1.66,3.71.17.37.16.7-.05,1.04-.4.67-.8,1.34-1.16,2.04-.4.78-.75,1.57-1.12,2.37-.04.09-.04.21-.07.41,2.23-1.26,4.38-2.48,6.59-3.73,1.14,1.29,2.07,2.68,3.18,3.96.09-.21.15-.41.11-.58-.29-1.25-.59-2.5-.89-3.75-.21-.87-.21-.89.65-1.22,1.43-.54,2.8-1.25,4.3-1.59.12-.03.21-.21.31-.32-.29-.42-.29-.41-.7-.52-.82-.23-1.64-.44-2.44-.71-1.04-.36-2.05-.79-3.09-1.14-.28-.1-.43-.23-.5-.49-.13-.46-.25-.93-.38-1.39-.25-.88-.48-1.77-.78-2.64-.17-.5-.25-1.07-.79-1.51-.36.61-.72,1.18-1.05,1.76-.33.58-.66,1.15-.94,1.75-.28.62-.49,1.27-.93,1.87-.86-.47-1.66-.94-2.3-1.67Z"/>
  <path class="cls-9" d="m23.91,106.04c.64.73,1.44,1.2,2.3,1.67.44-.6.65-1.25.93-1.87.28-.6.61-1.18.94-1.75.33-.58.68-1.15,1.05-1.76.54.44.62,1.01.79,1.51.3.86.53,1.75.78,2.64.13.46.25.93.38,1.39.07.26.22.4.5.49,1.04.35,2.05.78,3.09,1.14.8.27,1.62.48,2.44.71.41.11.41.11.7.52-.1.11-.19.29-.31.32-1.51.34-2.88,1.05-4.3,1.59-.87.33-.86.36-.65,1.22.3,1.25.61,2.5.89,3.75.04.17-.02.37-.11.58-1.11-1.28-2.04-2.67-3.18-3.96-2.21,1.25-4.35,2.47-6.59,3.73.03-.2.02-.32.07-.41.37-.79.72-1.59,1.12-2.37.36-.69.76-1.37,1.16-2.04.21-.35.22-.67.05-1.04-.55-1.24-.93-2.55-1.66-3.71-.11-.17-.15-.38-.21-.58-.13-.44-.24-.88-.39-1.32-.07-.2-.1-.35.21-.48Zm6.19,7.62c.24.28.45.5.62.73.57.75,1.13,1.51,1.71,2.25.08.1.23.15.49.3-.08-.47-.12-.78-.18-1.09-.19-.88-.42-1.74-.57-2.62-.1-.61-.01-.64.56-.8.75-.21,1.49-.44,2.23-.7.58-.2,1.13-.46,1.73-.71-.09-.13-.12-.2-.17-.23-1.74-.88-3.45-1.87-5.43-2.12-.35-.05-.53-.19-.62-.52-.17-.62-.38-1.23-.56-1.84-.14-.46-.26-.93-.38-1.39-.13-.47-.19-.97-.57-1.49-.91,1.61-1.83,3.11-2.45,4.75-.91-.1-1.25-1.05-2.2-1.25.23.63.37,1.16.61,1.64.63,1.3,1.3,2.59,1.96,3.88.14.27.26.52-.04.8-.81.77-1.32,1.76-1.87,2.72-.19.34-.34.71-.5,1.06.05.04.09.08.14.12.29-.16.59-.32.88-.49.48-.27.97-.53,1.42-.84,1.04-.71,2.3-1.06,3.21-2.15Z"/>
  <path class="cls-5" d="m30.11,113.66c-.91,1.09-2.17,1.44-3.21,2.15-.45.31-.94.56-1.42.84-.29.17-.59.33-.88.49-.05-.04-.09-.08-.14-.12.17-.36.31-.72.5-1.06.55-.96,1.06-1.95,1.87-2.72.3-.28.18-.53.04-.8-.66-1.29-1.33-2.58-1.96-3.88-.24-.49-.38-1.01-.61-1.64.95.2,1.29,1.15,2.2,1.25.62-1.64,1.54-3.14,2.45-4.75.38.51.45,1.01.57,1.49.12.47.25.93.38,1.39.18.62.39,1.22.56,1.84.09.34.27.48.62.52,1.98.26,3.69,1.24,5.43,2.12.05.03.08.1.17.23-.6.25-1.15.51-1.73.71-.73.26-1.48.49-2.23.7-.57.16-.67.2-.56.8.15.88.38,1.75.57,2.62.07.31.1.62.18,1.09-.25-.16-.41-.2-.49-.3-.58-.74-1.14-1.5-1.71-2.25-.18-.23-.38-.45-.62-.73Zm-3.54-3.85c.32,1.42,1.09,2.56,1.69,3.79.77-.43.98-1.36,1.74-1.76.47.44.71,1.06,1.35,1.55v-2.02c.75-.22,1.49-.08,2.18-.45-.17-.14-.28-.29-.41-.33-.95-.25-1.9-.48-2.85-.71-.25-.06-.45-.15-.5-.41-.05-.27-.2-.43-.48-.45.32-1.1-.5-1.89-.54-2.91-.16.09-.26.11-.27.16-.34,1.23-.67,2.47-1.02,3.78-.26-.07-.52-.14-.9-.25Z"/>
  <path class="cls-9" d="m26.57,109.81c.38.11.64.18.9.25.35-1.31.68-2.54,1.02-3.78.01-.05.11-.07.27-.16.04,1.02.86,1.81.54,2.91.28.02.43.18.48.45.05.26.25.35.5.41.95.22,1.91.46,2.85.71.14.04.24.19.41.33-.7.37-1.43.23-2.18.45v2.02c-.64-.49-.88-1.1-1.35-1.55-.76.4-.97,1.33-1.74,1.76-.6-1.23-1.37-2.37-1.69-3.79Zm.79,1.15c.37.69.71,1.33,1.12,2.1.51-.68.93-1.23,1.36-1.79.59.03.52.84,1.14.95v-1.47c-.46-.37-1.09-.3-1.65-.36-.46-.75-.35-1.7-.95-2.53-.19,1.17-.29,2.21-1.01,3.11Z"/>
  <path class="cls-5" d="m27.36,110.96c.73-.91.82-1.94,1.01-3.11.6.84.49,1.78.95,2.53.57.07,1.19,0,1.65.36v1.47c-.62-.11-.55-.92-1.14-.95-.42.56-.85,1.12-1.36,1.79-.41-.77-.75-1.41-1.12-2.1Z"/>
  <g>
    <path class="cls-5" d="m81.88,112.95c-.01-.06-.02-.12-.03-.18-.14-.06-.29-.13-.43-.19-.83-.32-1.67-.64-2.5-.95-.95-.35-1.89-.71-2.85-1.02-.38-.12-.58-.32-.63-.71-.21-1.64-.42-3.28-.64-4.93-.04-.28-.09-.57-.13-.85l-.14-.04c-.52,1-1.03,1.99-1.55,2.99-.53,1.03-1.06,2.06-1.62,3.16-.58-.29-1.14-.59-1.71-.87-.68-.33-1.36-.66-2.05-.96-.36-.16-.59.07-.48.46.21.73.41,1.46.69,2.17.38.98.83,1.94,1.25,2.9.34.76.34.74-.24,1.29-.87.83-1.72,1.66-2.58,2.5-.09.09-.16.21-.27.34.13.05.21.12.29.11.66-.09,1.32-.17,1.97-.29.5-.09.99-.24,1.48-.31,1.12-.15,2.26-.13,3.34-.49.26-.09.43.07.6.24.53.54,1.08,1.07,1.62,1.59.38.37.78.71,1.14,1.1.39.42.72.89,1.1,1.33.08.09.21.13.32.19.04-.12.13-.24.12-.35-.11-.68-.25-1.36-.38-2.03-.23-1.22-.46-2.43-.7-3.65-.06-.32.03-.52.35-.64,1.26-.49,2.52-1,3.77-1.51.3-.12.6-.27.9-.41Z"/>
    <path class="cls-9" d="m81.88,112.95c-.3.14-.59.28-.9.41-1.26.51-2.51,1.02-3.77,1.51-.32.13-.41.32-.35.64.24,1.21.47,2.43.7,3.65.13.68.27,1.35.38,2.03.02.11-.07.23-.12.35-.11-.06-.24-.1-.32-.19-.37-.44-.71-.91-1.1-1.33-.35-.39-.76-.73-1.14-1.1-.54-.53-1.09-1.06-1.62-1.59-.17-.17-.34-.33-.6-.24-1.09.36-2.23.34-3.34.49-.5.07-.99.22-1.48.31-.65.11-1.31.2-1.97.29-.08.01-.16-.06-.29-.11.11-.14.18-.25.27-.34.86-.84,1.71-1.67,2.58-2.5.58-.55.58-.54.24-1.29-.43-.96-.87-1.92-1.25-2.9-.28-.7-.48-1.44-.69-2.17-.11-.39.11-.61.48-.46.69.3,1.37.63,2.05.96.57.28,1.14.58,1.71.87.56-1.09,1.09-2.13,1.62-3.16.51-1,1.03-1.99,1.55-2.99l.14.04c.04.28.09.57.13.85.22,1.64.43,3.28.64,4.93.05.39.24.59.63.71.96.31,1.9.67,2.85,1.02.84.31,1.67.63,2.5.95.15.06.29.12.43.19.01.06.02.12.03.18Zm-4.9,6.67c0-.21.02-.34,0-.46-.26-1.24-.51-2.48-.78-3.72-.13-.59-.1-.65.49-.8.36-.09.71-.19,1.06-.32,1.01-.38,2.02-.76,3.03-1.16.11-.04.19-.14.29-.21-.05-.06-.06-.09-.08-.09-1.67-.79-3.42-1.35-5.22-1.77-.14-.03-.27-.13-.37-.23-.26-.25-.32-.57-.37-.93-.16-1.33-.35-2.65-.54-3.97-.02-.12-.09-.23-.2-.48-.18.33-.3.54-.42.76-.14.26-.25.55-.42.79-.55.78-.98,1.61-1.27,2.52-.14.45-.31.9-.49,1.41-1.17-.62-2.28-1.21-3.47-1.84.03.21.02.31.06.38.6,1.24,1.2,2.48,1.83,3.71.41.8.39,1.02-.29,1.6-.47.41-.95.8-1.42,1.21-.49.44-.95.9-1.3,1.59.54-.08.99-.16,1.45-.21,1.68-.2,3.4-.13,5-.8,1.22.92,1.92,2.37,3.44,3.04Z"/>
    <path class="cls-5" d="m76.98,119.62c-1.51-.67-2.22-2.13-3.44-3.04-1.6.67-3.32.61-5,.8-.45.05-.91.13-1.45.21.34-.69.8-1.15,1.3-1.59.47-.41.95-.8,1.42-1.21.67-.58.69-.8.29-1.6-.62-1.23-1.22-2.47-1.83-3.71-.04-.07-.03-.17-.06-.38,1.2.64,2.3,1.22,3.47,1.84.18-.52.35-.96.49-1.41.29-.91.72-1.74,1.27-2.52.17-.24.28-.53.42-.79.11-.21.23-.42.42-.76.11.25.18.36.2.48.19,1.32.38,2.65.54,3.97.04.36.11.68.37.93.1.1.24.2.37.23,1.8.42,3.55.98,5.22,1.77.02,0,.03.03.08.09-.1.07-.18.17-.29.21-1.01.39-2.01.78-3.03,1.16-.34.13-.7.23-1.06.32-.59.15-.62.21-.49.8.27,1.24.53,2.48.78,3.72.02.12,0,.25,0,.46Zm-7.02-3.29c.31.29.53.16.79.01.72-.41,1.45-.8,2.18-1.18.24-.12.46-.13.68.1.44.47.91.91,1.38,1.35.13.12.31.2.57.36.14-1.18-.3-2.16-.28-3.19.13-.03.21-.06.3-.08.76-.16,1.53-.32,2.29-.5.12-.03.21-.16.43-.34-.92-.14-1.66-.27-2.42-.35-.43-.05-.74-.25-.95-.59-.44-.72-.94-1.42-1.2-2.25-.07-.22-.23-.42-.43-.77-.17.38-.31.58-.37.81-.08.31-.1.64-.15.95-.08.56-.2,1.11-.47,1.62-.8-.21-1.4-.85-2.28-.86.35.83.63,1.63,1.02,2.38.3.58.25,1.04-.19,1.5-.16.16-.32.33-.47.51-.15.17-.28.34-.43.52Z"/>
    <path class="cls-9" d="m69.96,116.34c.15-.18.28-.36.43-.52.15-.17.31-.34.47-.51.44-.45.49-.91.19-1.5-.39-.75-.67-1.55-1.02-2.38.89.02,1.49.65,2.28.86.27-.5.39-1.05.47-1.62.04-.32.07-.64.15-.95.06-.23.19-.43.37-.81.21.36.36.55.43.77.26.83.76,1.52,1.2,2.25.21.34.52.54.95.59.75.08,1.5.22,2.42.35-.22.18-.31.31-.43.34-.76.18-1.52.33-2.29.5-.09.02-.17.05-.3.08-.02,1.03.42,2.01.28,3.19-.26-.16-.43-.24-.57-.36-.47-.44-.94-.88-1.38-1.35-.22-.23-.45-.23-.68-.1-.73.38-1.47.77-2.18,1.18-.26.15-.47.28-.79-.01Zm.98-4.3s-.09.06-.14.09c.04.17.05.35.11.5.21.51.44,1.01.67,1.51.14.29.2.55-.08.81-.15.14-.29.33-.19.61.64-.3,1.24-.59,1.83-.87.42-.2.47-.17.78.2.3.36.63.68.95,1.02l.15-.08c-.03-.26-.04-.53-.09-.79-.06-.34-.16-.67-.23-1.01-.1-.47-.03-.56.45-.62.46-.05.92-.09,1.37-.15.13-.02.26-.09.39-.14,0-.05,0-.1-.01-.15-.65-.09-1.3-.18-1.99-.28-.52-.81-1.06-1.66-1.65-2.59-.19.87-.35,1.61-.52,2.34-.08.34-.22.4-.54.24-.43-.22-.85-.44-1.28-.66Z"/>
    <path class="cls-5" d="m70.94,112.04c.43.22.85.44,1.28.66.32.16.46.1.54-.24.17-.74.33-1.48.52-2.34.59.92,1.13,1.78,1.65,2.59.68.1,1.34.19,1.99.28,0,.05,0,.1.01.15-.13.05-.26.12-.39.14-.46.06-.91.1-1.37.15-.48.06-.55.15-.45.62.07.34.17.67.23,1.01.05.26.06.52.09.79l-.15.08c-.32-.34-.65-.66-.95-1.02-.31-.37-.37-.4-.78-.2-.6.29-1.2.57-1.83.87-.1-.28.04-.47.19-.61.28-.26.22-.52.08-.81-.24-.5-.46-1-.67-1.51-.07-.16-.08-.34-.11-.5.05-.03.09-.06.14-.09Z"/>
  </g>
  <g>
    <path class="cls-5" d="m115.72,93.52s-.04-.03-.05-.05c-.25-.35-.47-.72-.75-1.04-.38-.43-.81-.81-1.21-1.22-.45-.45-.88-.93-1.34-1.37-.48-.46-.5-.47-.24-1.12.61-1.56,1.21-3.12,1.81-4.68.05-.13.04-.28.06-.5-.25.13-.42.2-.57.29-1.82,1.1-3.64,2.22-5.47,3.3-.55.32-1.13.49-1.81.18-.89-.41-1.84-.68-2.76-1.04-.72-.28-1.43-.59-2.15-.89-.09-.04-.2-.04-.45-.09.31.86.53,1.63.86,2.34.47,1.02,1.04,1.99,1.52,3.01.28.59.65,1.16.66,1.84-.67.3-1.29.65-1.95.88-.69.25-1.39.46-2.01.88-.57.39-1.33.38-2.03.88.25.06.34.11.44.11.18-.01.37-.12.53-.08,1.5.32,3.02.06,4.52.11.82.03,1.65-.01,2.47,0,.55.01,1.09.06,1.64.11.16.02.37.07.46.18.21.27.38.57.54.88.58,1.12,1.14,2.25,1.73,3.36.23.44.52.85.84,1.37.16-.28.33-.46.36-.66.08-.5.1-1,.13-1.5.06-1.19.1-2.37.18-3.56.02-.32.41-.59.69-.47.72.31,1.49.23,2.23.26.97.04,1.91.18,2.85.41.28.07.48.03.66-.17-.51-.43-1.01-.85-1.52-1.27-.28-.23-.57-.46-.85-.68Z"/>
    <path class="cls-5" d="m115.67,93.47s.04.03.05.05c.26.5.82.82.87,1.52-.45-.05-.87-.13-1.3-.13-1.13-.01-2.24-.17-3.33-.47-.09-.02-.18-.04-.27-.06-.25-.05-.42.06-.43.31-.1,1.32-.5,2.61-.41,3.96.03.47.08.97-.2,1.56-.97-1.84-1.87-3.57-2.81-5.36-.23.04-.52.11-.81.14-.39.04-.78.09-1.16.09-.82.01-1.64,0-2.47,0-.16,0-.31.04-.47.04-.82-.01-1.65-.03-2.47-.04-.49,0-.97,0-1.46,0,.9-.52,1.86-.86,2.74-1.33.89-.48,1.95-.64,2.72-1.27-.22-.41-.42-.74-.59-1.08-.5-1.03-.98-2.06-1.48-3.09-.33-.68-.68-1.35-1.01-2.03-.06-.12-.04-.28-.08-.55.89.34,1.68.63,2.46.96.9.38,1.79.81,2.69,1.2.13.06.33.04.46-.02,1.43-.72,2.92-1.34,4.22-2.32.71-.53,1.5-.94,2.31-1.43,0,.16.04.25.01.33-.28.83-.54,1.66-.85,2.47-.26.68-.59,1.34-.89,2.01-.15.33-.16.6.17.85.22.16.39.39.59.58,1.06,1.04,2.13,2.08,3.19,3.12Zm-9.27-3.66c-.49-.58-1.2-.71-1.96-1.03.07.22.08.33.13.41.43.77.87,1.54,1.3,2.31.37.66.33.95-.2,1.51-.24.26-.48.53-.77.86.45.06.79,0,1.09-.22.54-.08,1.09-.15,1.62-.26.66-.13.65-.15,1.04.45.33.5.68.99,1.2,1.42.22-.75.22-1.51.71-2.12.77.15,1.53.16,2.44.05-.73-.65-1.4-1.13-2.17-1.46-.21-.19-.41-.41-.65-.56-.29-.19-.38-.41-.29-.75.19-.68.35-1.36.52-2.05.03-.1.03-.21.06-.44-.22.13-.36.19-.46.28-.22.2-.41.43-.64.61-.48.38-.97.76-1.47,1.1-.12.08-.33.09-.49.06-.33-.04-.66-.13-.99-.19Z"/>
    <path class="cls-9" d="m115.67,93.47c-1.06-1.04-2.13-2.08-3.19-3.12-.2-.19-.37-.42-.59-.58-.34-.24-.32-.52-.17-.85.3-.67.63-1.33.89-2.01.31-.81.57-1.64.85-2.47.03-.08,0-.17-.01-.33-.81.49-1.6.9-2.31,1.43-1.3.97-2.78,1.6-4.22,2.32-.13.06-.33.07-.46.02-.9-.39-1.79-.82-2.69-1.2-.77-.33-1.57-.61-2.46-.96.04.27.02.43.08.55.33.68.68,1.35,1.01,2.03.5,1.03.98,2.06,1.48,3.09.17.34.36.67.59,1.08-.78.63-1.83.8-2.72,1.27-.88.47-1.83.8-2.74,1.33.49,0,.97,0,1.46,0,.82.01,1.65.03,2.47.04.16,0,.31-.03.47-.04.82,0,1.64.01,2.47,0,.39,0,.78-.05,1.16-.09.29-.03.58-.1.81-.14.94,1.79,1.84,3.52,2.81,5.36.28-.59.24-1.09.2-1.56-.1-1.35.31-2.64.41-3.96.02-.25.18-.36.43-.31.09.02.18.03.27.06,1.09.29,2.2.45,3.33.47.43,0,.85.08,1.3.13-.06-.7-.61-1.02-.87-1.52.28.23.57.45.85.68.5.42,1,.84,1.52,1.27-.19.2-.38.24-.66.17-.93-.23-1.88-.37-2.85-.41-.74-.03-1.51.04-2.23-.26-.28-.12-.67.15-.69.47-.07,1.19-.11,2.37-.18,3.56-.03.5-.05,1.01-.13,1.5-.03.2-.2.38-.36.66-.32-.52-.61-.93-.84-1.37-.59-1.11-1.15-2.24-1.73-3.36-.16-.3-.33-.61-.54-.88-.09-.11-.3-.17-.46-.18-.54-.05-1.09-.1-1.64-.11-.82-.02-1.65.03-2.47,0-1.51-.05-3.02.2-4.52-.11-.16-.03-.35.07-.53.08-.09,0-.19-.04-.44-.11.7-.5,1.46-.49,2.03-.88.62-.42,1.31-.64,2.01-.88.66-.23,1.29-.58,1.95-.88,0-.68-.38-1.25-.66-1.84-.48-1.02-1.05-1.99-1.52-3.01-.33-.72-.55-1.49-.86-2.34.25.05.36.05.45.09.72.29,1.43.61,2.15.89.92.35,1.87.63,2.76,1.04.68.31,1.26.14,1.81-.18,1.84-1.08,3.65-2.2,5.47-3.3.15-.09.32-.16.57-.29-.02.22-.01.37-.06.5-.6,1.56-1.2,3.12-1.81,4.68-.25.65-.24.66.24,1.12.46.44.89.92,1.34,1.37.4.41.83.79,1.21,1.22.28.32.5.69.75,1.04Z"/>
    <path class="cls-9" d="m110.82,91.75c.77.33,1.44.81,2.17,1.46-.91.11-1.67.1-2.44-.05-.48.61-.49,1.36-.71,2.12-.52-.43-.87-.92-1.2-1.42-.39-.59-.38-.58-1.04-.45-.54.11-1.08.17-1.62.26v.02c.64-.55,1.48-.55,2.26-.85.44.58.86,1.13,1.34,1.77.29-.71.53-1.31.79-1.94.46.05.89.11,1.39.16-.1-.16-.13-.25-.19-.31-.1-.12-.22-.23-.33-.35-.14-.14-.27-.29-.41-.43v.02Z"/>
    <path class="cls-9" d="m106.4,89.81c.33.07.66.15.99.19.16.02.37.02.49-.06.51-.35.99-.72,1.47-1.1.23-.18.42-.42.64-.61.1-.09.24-.15.46-.28-.03.23-.04.34-.06.44-.17.68-.33,1.37-.52,2.05-.09.34,0,.56.29.75.24.16.43.37.65.56v-.02c-.2-.08-.43-.14-.62-.25-.81-.46-.81-.47-.58-1.39.1-.38.18-.77.26-1.16-.04-.02-.08-.04-.12-.05-.61.54-1.22,1.07-1.87,1.64-.52-.25-1.01-.49-1.49-.72v.02Z"/>
    <path class="cls-9" d="m105.99,93.66c-.3.22-.64.28-1.09.22.29-.33.53-.6.77-.86.54-.56.58-.85.2-1.51-.44-.77-.87-1.54-1.3-2.31-.05-.09-.06-.19-.13-.41.76.32,1.47.45,1.96,1.03v-.02c-.35-.07-.71-.14-1.09-.22.08.59.35,1.27.59,1.58.13.16.25.33.36.5.34.58.3.86-.17,1.33-.15.15-.3.31-.47.51.18.09.28.13.38.18v-.02Z"/>
    <path class="cls-5" d="m106,93.68c-.1-.05-.2-.1-.38-.18.18-.19.32-.35.47-.51.47-.47.51-.75.17-1.33-.1-.18-.23-.34-.36-.5-.25-.31-.51-.99-.59-1.58.38.07.74.15,1.1.22.48.24.97.47,1.49.72.65-.57,1.26-1.11,1.87-1.64.04.02.08.04.12.05-.09.39-.17.77-.26,1.16-.23.93-.24.93.58,1.39.2.11.42.17.63.25.14.14.27.29.41.43.11.12.23.22.33.35.06.07.09.15.19.31-.5-.06-.93-.11-1.39-.16-.25.63-.5,1.23-.79,1.94-.48-.64-.9-1.19-1.34-1.77-.78.3-1.61.3-2.25.85Z"/>
  </g>
  <g>
    <path class="cls-5" d="m100.04,44.86l.03.02c-.22-.15-.43-.32-.67-.44-.8-.4-1.61-.79-2.41-1.18-.36-.18-.7-.37-1.18-.62.06.31.06.49.12.65.41,1.12.74,2.29,1.27,3.36.45.92.45,1.69-.07,2.57-.9,1.55-1.48,3.27-2.53,4.75-.22.3-.48.68-.33,1.2,2.5-.86,4.84-2.07,7.5-2.58.74,1.15,1.61,2.22,2.63,3.32.04-.23.07-.34.07-.44-.1-1.49.24-2.93.46-4.39.13-.8.24-.85,1.04-.78.75.07,1.51.08,2.27.09.73,0,1.47-.03,2.2-.02.25,0,.5.11.83.18-.09-.16-.11-.23-.15-.27-.58-.48-1.17-.96-1.76-1.43-.08-.06-.21-.07-.32-.1l.03.02c-.67-.88-1.61-1.44-2.51-2.03-.02-.02-.03-.04-.05-.05-.28-.24-.55-.49-.83-.72-.2-.17-.34-.34-.37-.63-.15-1.63-.33-3.25-.5-4.87-.02-.22-.05-.44-.08-.69-.48-.03-.66.29-.86.55-1.09,1.4-2.17,2.81-3.27,4.2-.13.16-.36.24-.55.35Z"/>
    <path class="cls-5" d="m106.51,46.67s.03.04.05.05c.08.11.14.24.24.32.75.58,1.51,1.14,2.27,1.71l-.03-.02c.39.53,1.05.84,1.35,1.43-1.93-.13-3.81-.26-5.71-.38-.21,1.77-.4,3.45-.62,5.3-.78-1.1-1.21-2.25-2.19-3.04-.72.22-1.48.4-2.21.67-1.2.46-2.39.98-3.57,1.49-.33.14-.65.26-1.06.28.09-.26.13-.46.22-.65.79-1.64,1.6-3.26,2.63-4.76.31-.45.32-.82.09-1.27-.18-.35-.35-.7-.49-1.06-.21-.56-.39-1.13-.59-1.69-.18-.51-.37-1.01-.55-1.52.04-.04.08-.08.12-.12,1.2.49,2.4.97,3.6,1.46l-.03-.02c.18.12.37.24.55.36,1.29-2,3.39-4.51,3.96-4.75.02.06.06.12.07.18.11,1.05.22,2.1.33,3.15.06.57.09,1.15.16,1.72.03.18.13.41.27.51.35.25.75.43,1.13.64Zm-7.42.48c.12.27.21.56.36.8.26.41.31.79.06,1.22-.41.71-.8,1.44-1.2,2.17-.11.21-.28.41-.21.71.64-.28,1.27-.5,1.85-.81.58-.31,1.11-.69,1.67-1.06.56.62.86,1.38,1.59,1.8.06-.11.13-.18.14-.26.11-.77.2-1.55.31-2.32.07-.49.11-.55.61-.52.75.05,1.51.13,2.26.24.29.04.44.01.45-.32-.68-.4-1.33-.84-2.03-1.17-.65-.31-.82-.82-.83-1.45-.01-.73-.02-1.47,0-2.2,0-.31-.12-.46-.41-.5-.73.99-1.45,1.96-2.17,2.95-1.21-.34-2.28-.98-3.6-1.34.26.69.38,1.27.97,1.58.06.16.13.32.19.48Z"/>
    <path class="cls-9" d="m100.07,44.88c-1.2-.49-2.4-.97-3.6-1.46-.04.04-.08.08-.12.12.18.51.37,1.01.55,1.52.2.56.38,1.13.59,1.69.14.36.31.72.49,1.06.23.45.22.82-.09,1.27-1.03,1.5-1.84,3.13-2.63,4.76-.09.18-.13.39-.22.65.41-.02.73-.14,1.06-.28,1.18-.51,2.37-1.03,3.57-1.49.72-.28,1.49-.46,2.21-.67.98.79,1.41,1.94,2.19,3.04.22-1.85.41-3.53.62-5.3,1.89.13,3.78.25,5.71.38-.3-.59-.95-.89-1.35-1.43.11.03.24.04.32.1.59.47,1.18.95,1.76,1.43.05.04.06.11.15.27-.33-.08-.58-.18-.83-.18-.73-.01-1.47.03-2.2.02-.76,0-1.52-.02-2.27-.09-.8-.07-.92-.03-1.04.78-.23,1.45-.57,2.9-.46,4.39,0,.1-.03.21-.07.44-1.02-1.11-1.89-2.18-2.63-3.32-2.65.51-4.99,1.72-7.5,2.58-.14-.52.12-.89.33-1.2,1.05-1.48,1.63-3.2,2.53-4.75.51-.89.52-1.65.07-2.57-.52-1.07-.86-2.23-1.27-3.36-.06-.16-.07-.34-.12-.65.47.25.82.45,1.18.62.8.4,1.61.78,2.41,1.18.24.12.45.3.67.44Z"/>
    <path class="cls-9" d="m106.51,46.67c-.38-.21-.78-.39-1.13-.64-.14-.1-.25-.33-.27-.51-.08-.57-.11-1.14-.16-1.72-.1-1.05-.21-2.1-.33-3.15,0-.06-.04-.12-.07-.18-.57.24-2.67,2.75-3.96,4.75-.18-.12-.36-.24-.55-.36.19-.11.42-.19.55-.35,1.1-1.39,2.17-2.8,3.27-4.2.2-.26.39-.58.86-.55.03.25.06.47.08.69.17,1.62.35,3.25.5,4.87.03.29.16.46.37.63.28.23.56.48.83.72Z"/>
    <path class="cls-9" d="m109.07,48.76c-.76-.57-1.52-1.14-2.27-1.71-.1-.08-.16-.21-.24-.32.91.59,1.84,1.15,2.51,2.03Z"/>
    <path class="cls-5" d="m99.08,47.16c-.06-.16-.13-.32-.19-.48-.14-.28-.27-.57-.46-.95,1.28.07,2.24.85,3.38.94.43-.87,1.43-2.07,2.03-2.4.03.32.06.61.07.9,0,.48.02.97-.02,1.45-.05.56.15.91.67,1.13.31.13.61.32.9.5.2.12.38.26.57.4l-.07.13c-.84-.09-1.68-.18-2.57-.27-.11.81-.22,1.59-.33,2.37l-.14.03c-.31-.49-.62-.99-.96-1.52-1.15.4-1.98,1.39-3.16,1.84.47-.8.95-1.6,1.44-2.44-.38-.54-.77-1.08-1.15-1.62Z"/>
    <path class="cls-9" d="m99.08,47.16c.38.54.77,1.08,1.15,1.62-.49.84-.97,1.64-1.44,2.44,1.18-.46,2.01-1.45,3.16-1.84.34.54.65,1.03.96,1.52l.14-.03c.11-.78.22-1.56.33-2.37.89.09,1.73.18,2.57.27l.07-.13c-.19-.13-.37-.28-.57-.4-.29-.18-.58-.37-.9-.5-.52-.22-.72-.57-.67-1.13.04-.48.03-.97.02-1.45,0-.29-.04-.58-.07-.9-.61.34-1.6,1.53-2.03,2.4-1.14-.08-2.1-.87-3.38-.94.18.38.32.66.46.95-.59-.31-.71-.89-.97-1.58,1.33.36,2.39,1,3.6,1.34.72-.98,1.44-1.96,2.17-2.95.3.04.42.19.41.5-.02.73,0,1.47,0,2.2.01.63.18,1.14.83,1.45.7.33,1.35.77,2.03,1.17-.02.33-.16.36-.45.32-.75-.11-1.5-.19-2.26-.24-.49-.04-.54.03-.61.52-.1.77-.2,1.55-.31,2.32-.01.08-.08.15-.14.26-.73-.42-1.03-1.18-1.59-1.8-.57.36-1.1.75-1.67,1.06-.58.31-1.21.53-1.85.81-.07-.31.1-.5.21-.71.4-.72.79-1.45,1.2-2.17.25-.43.2-.82-.06-1.22-.16-.24-.24-.53-.36-.8Z"/>
  </g>
  <path class="cls-5" d="m54,20.99c-.25-.24-.51-.42-.8-.57-.79-.4-1.56-.86-2.34-1.27-.18-.1-.27-.21-.24-.4.09-.67.16-1.34.27-2.01.06-.41.16-.82.24-1.23.03-.13.03-.26-.16-.33-.65.51-1.31,1.04-1.96,1.56-.45.36-.91.71-1.21,1.21-.05.08-.14.16-.22.2-.1.04-.22.08-.31.05-.6-.19-1.19-.41-1.79-.61-.19-.07-.39-.11-.57-.18-.44-.16-.88-.33-1.32-.49-.14-.05-.28-.08-.52-.14.2.4.34.72.5,1.02.47.86.94,1.71,1.41,2.57.1.18.07.31-.1.44-.59.46-1.17.92-1.75,1.4-.22.19-.42.41-.58.73.15,0,.23,0,.31,0,.36-.02.72-.08,1.08-.06,1.03.06,2.05-.1,3.07-.21.53-.06.84-.02,1.16.47.52.79,1.16,1.5,1.76,2.23.08.09.2.21.3.2.18,0,.25-.18.26-.34.03-.41.07-.83.05-1.24-.03-.73-.11-1.46-.15-2.19-.02-.32.03-.37.36-.39.3-.02.6-.02.9-.05.77-.09,1.53-.19,2.3-.29.02,0,.04-.04.08-.08Z"/>
  <path class="cls-9" d="m54,20.99s-.06.08-.08.08c-.76.1-1.53.2-2.3.29-.3.03-.6.03-.9.05-.33.02-.38.07-.36.39.05.73.12,1.46.15,2.19.02.41-.02.83-.05,1.24-.01.17-.08.34-.26.34-.1,0-.22-.11-.3-.2-.6-.74-1.24-1.44-1.76-2.23-.32-.49-.63-.52-1.16-.47-1.02.11-2.04.26-3.07.21-.36-.02-.72.04-1.08.06-.08,0-.16,0-.31,0,.16-.32.36-.54.58-.73.57-.48,1.16-.94,1.75-1.4.17-.13.2-.26.1-.44-.47-.85-.95-1.71-1.41-2.57-.16-.3-.3-.61-.5-1.02.23.06.38.09.52.14.44.16.88.33,1.32.49.19.07.38.11.57.18.6.2,1.19.42,1.79.61.09.03.22,0,.31-.05.09-.04.18-.11.22-.2.3-.51.76-.85,1.21-1.21.66-.53,1.32-1.05,1.96-1.56.19.07.19.19.16.33-.08.41-.18.81-.24,1.23-.1.67-.18,1.34-.27,2.01-.03.2.06.31.24.4.79.42,1.55.88,2.34,1.27.3.15.55.33.8.57Zm-3.98,3.93c.03-.34.07-.59.08-.85.01-.75.01-1.5.01-2.25,0-.44.06-.51.52-.56.48-.05.97-.06,1.46-.12.45-.05.89-.14,1.33-.21l.02-.11c-.17-.12-.34-.25-.52-.35-.27-.16-.56-.3-.83-.45-.45-.25-.9-.52-1.37-.73-.22-.1-.31-.21-.29-.45.05-.72.07-1.43.24-2.14.09-.37.13-.75.2-1.2-.19.11-.31.16-.4.25-.59.51-1.17,1.01-1.75,1.53-.36.33-.69.69-1.05,1.02-.09.08-.27.16-.38.13-.62-.16-1.24-.34-1.85-.55-.41-.14-.8-.33-1.2-.48-.18-.07-.37-.11-.55-.16-.02.03-.04.06-.07.09.59,1.07,1.26,2.09,1.99,3.08-.32.51-.94.58-1.28,1.04-.32.42-.8.7-1.11,1.17.59-.06,1.13-.12,1.67-.18.03,0,.06-.01.08-.02.84-.08,1.68-.17,2.53-.25.15-.02.27.02.37.16.31.4.63.78.95,1.17.37.45.75.9,1.19,1.42Z"/>
  <path class="cls-5" d="m50.02,24.93c-.44-.52-.82-.97-1.19-1.42-.32-.39-.64-.77-.95-1.17-.1-.13-.22-.17-.37-.16-.84.08-1.68.17-2.53.25-.03,0-.06.01-.08.02-.54.06-1.08.12-1.67.18.3-.47.79-.75,1.11-1.17.34-.45.96-.52,1.28-1.04-.73-.99-1.4-2.01-1.99-3.08.02-.03.04-.06.07-.09.18.05.37.09.55.16.4.15.79.35,1.2.48.61.2,1.23.38,1.85.55.11.03.28-.05.38-.13.36-.33.69-.69,1.05-1.02.57-.52,1.16-1.03,1.75-1.53.09-.08.21-.13.4-.25-.07.45-.11.83-.2,1.2-.17.7-.19,1.42-.24,2.14-.02.24.07.35.29.45.47.22.91.49,1.37.73.28.15.56.29.83.45.18.1.34.23.52.35l-.02.11c-.44.07-.89.16-1.33.21-.48.06-.97.07-1.46.12-.46.05-.52.12-.52.56,0,.75,0,1.5-.01,2.25,0,.26-.05.51-.08.85Zm-4.18-5.58c.24.28.48.57.73.84.13.15.13.29,0,.41-.31.29-.63.57-.95.86-.11.1-.25.18-.2.45.56-.44,1.08-.85,1.6-1.26-.05-.44-.45-.6-.64-.91-.1-.16-.29-.27-.44-.4-.02-.02-.08.01-.12.02-.04-.18-.09-.36-.15-.6.68.32,1.32.62,1.93.91.62-.42,1.09-1.02,1.89-1.19-.06.47-.12.89-.18,1.3.45.22.87.39,1.26.78-.5.02-.92.04-1.37.06v1.07c-.2-.2-.34-.35-.49-.47-.08-.06-.21-.09-.3-.07-.8.16-1.6.33-2.4.51-.05.01-.09.06-.13.09.08.05.13.05.18.04.71-.2,1.43-.31,2.16-.38.15-.01.28-.02.38.13.25.37.51.73.78,1.08.06.08.15.13.23.2.02-.01.05-.03.07-.04-.07-.65-.14-1.31-.2-1.95.08-.04.11-.07.15-.07.39,0,.77,0,1.16,0,.16,0,.32.06.36-.2-.07-.04-.14-.09-.21-.13-.38-.19-.76-.4-1.15-.57-.23-.1-.29-.26-.24-.48.07-.31.14-.62.23-.92.07-.26.09-.51.04-.82-.65.76-1.46,1.23-2.13,1.76-1.02-.31-1.8-.97-2.79-1.2.31.39.63.77.95,1.15Z"/>
  <path class="cls-9" d="m45.84,19.35c-.31-.39-.63-.77-.94-1.16,1,.22,1.77.88,2.79,1.2.67-.53,1.48-1,2.13-1.76.05.31.04.56-.04.82-.09.3-.16.61-.23.92-.05.22.01.38.24.48.39.17.77.38,1.15.57.07.04.14.09.21.13-.04.26-.2.21-.36.2-.39-.01-.77,0-1.16,0-.04,0-.08.04-.15.07.07.64.14,1.29.2,1.95-.02.01-.05.03-.07.04-.08-.07-.17-.12-.23-.2-.27-.36-.53-.72-.78-1.08-.1-.15-.23-.14-.38-.13-.73.07-1.46.17-2.16.38-.05.01-.1.01-.18-.04.04-.03.09-.08.13-.09.8-.17,1.6-.35,2.4-.51.09-.02.22.02.3.07.16.12.29.27.49.47v-1.07c.45-.02.87-.04,1.37-.06-.39-.39-.81-.56-1.26-.78.06-.41.11-.83.18-1.3-.8.17-1.26.77-1.89,1.19-.61-.29-1.24-.58-1.93-.91.06.25.1.43.15.6h.01Z"/>
  <path class="cls-9" d="m45.83,19.36s.1-.04.12-.02c.15.13.34.24.44.4.19.31.59.48.64.91-.51.41-1.04.82-1.6,1.26-.06-.27.08-.35.2-.45.32-.28.64-.56.95-.86.13-.12.13-.27,0-.41-.25-.28-.49-.56-.74-.84,0,0-.01.01-.01.01Z"/>
  <path class="cls-16" d="m94.73,18.15c.27.2.51.45.58.75-1.13-.37-.79.79-1.09,1.48-.69.2-.27-1.64-.92-.67.72.77-.36,2.09.91,1.65l-.46,1.23c.28.66,1.15-.15,1.34.68.16.12.4-.04.58.13l-1.47.79.28,1.69c-.42-.06-1.07-.9-1.23.01l-.23.41c.29.3.5.2.6.64l-.27.42c-.62-.33-1.14-.62-1.28-1.47-.52.11-1.02.33-1.5.23l.5-1.24c-.5-.2-1.07-.28-1.56-.64.37-.39,1.65-.62,1.04-1.72-.02-.3-.24-.67-.12-.95l1.12.53c.07-.53.48-.93.83-1.21l.18.83c.09-.02.14.02.25.1-.38-.69.6-1.01.37-1.83l-.96.21c.14-.39.23-.82.18-1.27-.41-.22-.89-.32-1.25-.7,1.1.02,1.21-1.14,1.27-2.13l.07-.12c.38.89.98.09,1.39-.31l.37,1.26c.45-.05.93-.56,1.37-.2.08.55-.49,1.09-.87,1.43Z"/>
  <path class="cls-16" d="m103.59,62.06c.39.53.93.93,1.22,1.59l-1.62-.52c-.06.99-.73,1.65-1.1,2.46l-.59-2.08-2.42.02c.16-.7.97-.99,1.44-1.55-.48-.51-.5-1.43-1.15-1.7l-.05-.25c.57.08,1.4.15,2.05.79l1.16-1.59.41,1.87,1.97-.18-1.3,1.16Z"/>
  <path class="cls-15" d="m94.6,18.59c-.22.05-.77.02-.53.48l.08.34-.22.05-.11-.49-1.09.65.2-1.18c-.27-.2-.61.13-.88-.06.58.13.56-1,.6-1.62l.35.54c.38-.14.21-.71.59-.85l.32,1.06,1.01-.38-.59,1.26.27.2Z"/>
  <path class="cls-10" d="m103.02,61.93l.87,1.04-.94-.31c-.37.8-.26,1.5-.84,2.19l-.02-1.75c-.64-.01-1.6.2-2.33,0l1.35-.91c-.11-.49-.78-.86-.88-1.51.4-.24.85.53,1.47.66.15-.34.13-.85.49-1.09.41-.19.05.45.31.81l-.23.41c.61.48,1.05-.44,1.71-.12-.33.17-.8.12-.97.57Z"/>
  <path class="cls-16" d="m96.33,35.45c.34.29.39.74.76.96-1.1-.43-1.26.9-1.59,1.69-.42-.06-.36-.8-.5-1.23-.6-.23-.8.54-1.28.64l.3-1.56c-.45-.37-.9-.57-1.34-.68-.12.08.42.89-.22.67l-.11-.08.33-.59c-.14-.02-.17-.17-.21-.32.66.11,1-.22,1.62-.1.1-.59.48-1.75-.48-1.75.13-.23-.04-.4.2-.56.41.22,1.17.57,1.36,1.19.36-.23.46-.82,1.02-.74-.12.49-.01.98-.23,1.44l1.52.28-1.17.72Z"/>
  <path class="cls-23" d="m94.06,25.09c-.9-.78-.92.61-1.36,1.28l-.39-1.15c-.41.19-.75.53-1.3.54l.62-1.11-1.5-.39,1.18-.67c-.59-.18-.28-.86-.55-1.47.66.73,1.06.03,1.33-.39.05.25.07.55.37.64.41-.19.77-.43,1.19-.62-.01.36-.32.64-.43.97.35.54.92.67,1.45.76-.6.39-1.3.75-.6,1.62Z"/>
  <path class="cls-6" d="m96.33,36.07c-.91-.42-.65.76-.92,1.23-.17-.37,0-.67,0-1.03-.53-.55-.63.45-1.14.41l.34-.95-.83-.44c.27,0,.55.03.85-.08l-.08-1.42c.24-.16.05.86.53.96.2-.35.15-.96.64-1.02.33.03-.69,2.26.56,1.11l-.44.51.48.72Z"/>
  <path class="cls-16" d="m93.39,28.48c-.26.06-.54.02-.61-.28-.13-.18.02-.31.08-.48.52-.53.84.48.53.76Z"/>
  <path class="cls-16" d="m93.73,29.64c-.34.13-.84.13-.74-.46l.31-.48c.36.18.59.59.43.93Z"/>
  <path class="cls-16" d="m93.65,30.74l-.3.07-.13-.59.61-.13c.05.25.21.73-.18.66Z"/>
  <path class="cls-16" d="m93.78,31.95c-.17.04-.42.14-.45-.16-.09-.19-.1-.44.09-.64.47-.36.95.77.36.8Z"/>
  <path class="cls-16" d="m91.27,35.48c-.1-.24.06-.37.11-.54.19.01.49.15.41.42l-.52.11Z"/>
  <path class="cls-16" d="m91.06,35.37c-.25.11-.5,0-.73-.2-.04-.2.15-.34.21-.51.28.04.49.36.52.71Z"/>
  <path class="cls-16" d="m89.73,35.31c-.33-.03-.45-.37-.28-.66l.44-.1c.08.34.24.67-.15.75Z"/>
  <path class="cls-16" d="m86.26,22.64c-.27.21-1.04.48-1.47.17l-.71,1.75c-.58-.34-.3-1.37-.41-1.87-.77.02-1.63-.36-2.32.05l-.23-.21.28-.58c.59,1,1.13-.25,1.7-.37l-.16-1.56c.78.03,1.11.89,1.63,1.39l1.57-.96-.77,1.51.88.68Z"/>
  <path class="cls-16" d="m89.11,34.98c-.4.24-.72-.15-1.08.08l.37,1.67c-1.13-1.19-1.82.24-2.4,1.14-.28-.45.06-1.2.16-1.78-.41-.22-1.11-.06-1.67-.1l.99-1.09c-.37-.43-.42-1.09-.72-1.59.99.55,1.39-.1,1.66-.98l.11-.13.42,1.5,1.16-.77-.39,1.32c.45.36,1.12.32,1.39.72Z"/>
  <path class="cls-23" d="m85.13,22.48l-.02-.1.22-.05.02.1c-.61.13-1.32.24-1.22,1.3l-.14-1.46c-.4.24-.75-.09-1.15.15-.08-.34,1.34-.55.48-1.34-.04-.2-.17-.37-.02-.51l1.29,1.31.73-.62c.05.45-.92,1.03-.19,1.23Z"/>
  <path class="cls-23" d="m87.06,35.64c-.35.28-.51.78-.74,1.19-.02-.51.57-1.15-.09-1.47-.22.25-.59.23-.94.31.18-.45,1.32-.86.26-1.29-.2-.06-.13-.38-.22-.57l.85.33.23-.82c.31.39-.22.87.37,1.05l.53-.48c-.35.69.4,1.61.79,2.55l-1.04-.8Z"/>
  <path class="cls-9" d="m80.07,54.92c-.7.36-1.99-.75-2,.44-.09.43.11.9.2,1.34-.47.15-.46-.83-1-1.02-.28.58-.11,1.36-.47,1.8l-.68-2.06c-.7.56-1.82.66-2.68.69l1.35-1.74c-.84-.49-1.3-1.15-1.83-1.86l1.3-.13c-.36-.8-.16-1.77-.03-2.62.66.11.69,1.08,1.28,1.47.67-.71.81-1.72,1.62-2.21-.27.63.17,1.4-.24,2.01l1.69-.83c.23.62-.8,1.98.3,1.79l1.88.05-1.96,1.05,1.27,1.83Z"/>
  <path class="cls-16" d="m82.23,21.77c-.15.14-.28-.04-.45-.16.07-.12.43-.76.59-.23.08.14.04.4-.14.39Z"/>
  <path class="cls-10" d="m78.29,52.84c-.07.74.79,1.11,1.03,1.78-.43-.32-1,.01-1.48-.29l-.08,1.1-.76-.55-.26,1.29-.26-1.18-2.39.78c.46-.41.79-1,1.24-1.41-.48-.72-1.52-.69-1.76-1.57.39.12.81-.07,1.18-.05.08-.69-.83-1.51-.27-2.26.24.05.6,1.05,1.16,1.34l1.02-1.82c.38.69-.56,1.41.24,1.9l1.25-1.15c-.11.33-.01,1.39-.81,1.31.54,1.22,1.47-.37,2.24.23-.39.29-.83.39-1.3.54Z"/>
  <path class="cls-16" d="m84.2,34.67c-.16.09-.52.11-.47-.26-.28-.45.23-.82.48-.72-.01.36.35.75-.01.98Z"/>
  <path class="cls-16" d="m83.33,33.63c-.46.41-.36-.38-.65-.47.02-.31.41-.4.61-.13,0,.21.19.47.04.61Z"/>
  <path class="cls-9" d="m87.93,96.32l-1.5-1.42,1.04-1.31-1.4.05-.25-1.54-1.69.83-.37-1.26c-.63.65-.41,1.48-.85,2.14-.33-.24-1.01-.86-1.28-.44l.27.82s.33.94.44.98c-.37.6-1.2.98-1.5,1.72.78.24,1.68-.27,2.46.18l-.03,1.96c.66-.09.93-.77,1.26-1.36.59-.64.8.54,1.14.83.5-.42.38-1.37.31-2.13l1.95-.07Z"/>
  <path class="cls-16" d="m81,23.64c-.23.2-.47-.05-.69-.21-.22-.36.12-.49.31-.68.39.12.27.61.38.89Z"/>
  <path class="cls-16" d="m82.05,33.44c-.13-1.41-1.09.03-1.42-1.08-.51-.04-.73-.41-1.23-.61.06-.37.56-.38.88-.55.03,1.38,1.75-.13,1.28,1.47.32-.02.73-.42.84.28-.03.26-.02.52-.35.49Z"/>
  <path class="cls-7" d="m86.88,95.93l-1.12-.11-.09,2.08c-.3-.34-.41-.84-.91-1.03-.41.4-.68,1.07-1.09,1.47l-.05-1.69-2.09-.16,1.44-.93-.86-1.82.9.57c.59-.23.23-1.03.67-1.54,0,.41.18.63.49.77l1.31-.91c.68.62-.66,1.38.25,1.95.29-.32.38-.75,1.02-.74l-1.06,1.21,1.2.87Z"/>
  <path class="cls-16" d="m79.74,24.79c-.24-.05-.46-.21-.63-.38.07-.32-.02-.72.37-.8.33-.17.29.09.47.26-.07.32.05.66-.21.92Z"/>
  <path class="cls-16" d="m79.02,25.46c-.32.22-.59-.18-.9.04l.07.76c-.33-.03-.81-.13-.6-.64.41-.19,1.45-1.71,1.43-.16Z"/>
  <path class="cls-16" d="m79.52,31.27c-.86.45-.96-.61-1.43-.92.09-.23.24-.36.47-.36-.11,1.16,1.2.05.97,1.28Z"/>
  <path class="cls-9" d="m74.62,60.08l.41,1.87c-.49-.15-.96-.61-1.44-.92l-.77,1.92-1.05-1.26c-.55.43-1.17.72-1.89.77l.51-2.07-1.3-.95c.27-.63,1.05-.23,1.57-.34l.44-1.95.98.92c.44-.51.72-1.5,1.55-1.47l-.02,1.34,1.6-.2-.34.95c.12.54,1.09.38,1.36.78l-1.6.61Z"/>
  <path class="cls-16" d="m76.5,28.95l.6.85c-.76.27-1.72-.34-2.07.97l-.5.83c-.34-.7.08-1.51.19-2.25-.4-.37-1.1.19-1.58-.12,1.22-.27.93-1.59.68-2.52,1.26.75,2.38.66,3.39-.38-.05,1.04-1.52,1.41-.7,2.62Z"/>
  <path class="cls-16" d="m77.69,30.44c-.53-.14-.37-1.46.14-.8l-.14.8Z"/>
  <path class="cls-23" d="m73.97,60.23c.34.29.54.6.61,1.1l-1.08-.74-.8,1.77-.59-1.21c-.62.29-1.08.91-1.91.88l.71-1.75-1.25-.7,1.48-.33.08-1.51.86.79,1.12-1.33.06,1.32,1.35-.3c-.01.57-1.1.81-.26,1.29l.98-.11c-.49.47-1.12.09-1.37.82Z"/>
  <path class="cls-10" d="m75.88,28.21l.6,1.26c-.69.2-1.34-.48-1.49.69l-.23.41c.2-.56.2-1.18.25-1.75l-.42-.06c.18.22-.02-.72-.26-1.18l-.08-.34c.82.18,1.57,1.1,2.2.03-.27.21-.5.62-.57.95Z"/>
  <path class="cls-16" d="m78.82,94.5c-.15-.28-.03-.56.18-.66l.65.47c-.25.11-.56.38-.83.18Z"/>
  <path class="cls-16" d="m69.68,54.63l.25,1.54c-.32.02-.59-.18-.9-.16-.37.18-.59,1.06-.73,1.65-.4-1.82-1.9-1.59-3.13-1.78l.79-.79-.96-1.44c.57-.12,1.53.33,1.77-.49-.2-.47-.05-.86-.11-1.31l.91,1.03.68-1.28.48,1.13c.46-.2.76-.68,1.41-.67.14.43-.32,1.05-.43,1.59.37.23.94.31,1.16.72l-1.18.26Z"/>
  <path class="cls-16" d="m78.69,95.48c-.14-.53-.91-.91-1.31-1.37l1.24-1.22-1.51-.27,1.11-1.79-2.24,1.12c-.42-.42-.94-.78-1.46-1.09,0,0,0,0,0,.01,0,.06.07,1.54.05,1.58.28,1.07-1.36,1.63-1.43,2.7.66.02,1.5-.48,2.04-.29,0,.53-.44,1.23.1,1.58.55-.34.9-.8,1.2-1.39.64-.2,1.86.23,2.22.41Z"/>
  <path class="cls-10" d="m69.19,53.86c.2.06.37.43.6.23l-.71.31.48,1.13c-.15.34-.59.03-.88-.06l-.48,1.34c-.5-.61-.87-1.66-1.82-1.2l-.3.07.55-.63-1-1.02c.5-.21,1.67.51,1.49-.69l-.16-.74c.18.42.48.72.85.95l.32-1.05c.28.25.17.79.53.96l1.05-.85c-.18.45-.22.87-.5,1.24Z"/>
  <path class="cls-21" d="m76.33,94.53c-.09.66-.63.84-.86,1.35l-.02-1.55-1.8.27c.55-.5.89-1.18,1.56-1.47l-.44-1.7,1.28,1.2,1.28-.93c-.44.43-.93,1.16-.85,1.73l1.24-.31-1.03.91,1.07.86-1.44-.35Z"/>
  <path class="cls-16" d="m66.53,60.26c.28.25.72.77,1.09,1-.1.59-.52.11-.83.18l-.12-.13c-.01.57-.18.86.18,1.45-.82-.8-1.92-1.28-2.67-.29-.21-.31.24-.77.38-1.16l-1.41-2.06,1.33.22.34-1.57,1.02,1.73,1.55-.44-.86,1.06Z"/>
  <path class="cls-23" d="m66.26,61.92c-.55-.24-.94-1.39-1.39-.31.28-.58-.51-1.28-.93-1.75l1.18.36c-.1-.44-.11-.9-.23-1.44.54.19.38,1.51,1.27,1.21l-.18.66.71.31-.8.33.37.64Z"/>
  <path class="cls-16" d="m67.8,87.37l1.7-.22c-.15.1-.47,1.26-.47,1.26.72-.16,1.05.23,1.87.5-.28.51-1.16.86-1.86,1.08l.71,2.11-1.85-.75c-.43.51-.89,1.3-1.63,1.56.02-.58.49-1.23-.09-1.69-.81-.18-2.05.2-2.45-.63.44-.16,1-.19,1.33-.52-.28-.57-1.16-.92-1.19-1.64.6-.03,1.33.42,1.81-.09-.08-.62-.36-1.14-.45-1.81.65-.12.74.59,1.25.78l1.14-1.22c.41.2.3.92.17,1.29Z"/>
  <path class="cls-9" d="m61.81,53.12c-.06.58-.08,1.1-.09,1.67-.64-.01-.37-1.88-1.42-1.08l-1.5.23.81-1.31-1.02-1.11,1.8.07c.35-.49,0-1.44.58-1.72-.03.47.04,1.23.46,1.49.38-.34.83-.18,1.2-.37l-.41,1.07,1.09.38c-.2.56-1.12.3-1.49.69Z"/>
  <path class="cls-12" d="m67.74,88.14c.39-.24.73-.53,1.18-.6-.08.41-.31.78-.19,1.26.51.06.94-.23,1.47.15l-1.76,1.07.94,1.56-1.6-.76c-.38.47-.45,1.05-1.03,1.44l-.08-1.51-2.06.02,1.33-.52-1.43-1.31,1.8-.32-.68-1.44.99.57.81-.89c.12.4-.15.99.32,1.28Z"/>
  <path class="cls-10" d="m61.46,53.61c-.42-.47-1.24-.24-1.89-.1l.89-.92c-.37-.23-.75-.3-1.1-.63.63-.24,1.26-.07,1.52-.59.09.19.21.31.22.57l.81-.28c-.09.23-.4.45-.24.77l.66.11-1.02.33.16.74Z"/>
  <path class="cls-16" d="m55.78,82c.37.23.17.58.2.93-.09.22-.33.17-.5.21-.26-.15-.29-.37-.16-.62l.17-.32.28-.2Z"/>
  <path class="cls-9" d="m55.95,80.55s-.1.08-.41.56l-.67.51c-.42.14-.93.49-1.33.37l.95-1.7-2.12-1.13c.32-.64,1.11-.14,1.68-.47l-.35-2.65,1.27.8.97-2.43c.54.6-.01,1.19.17,1.82l1.65-.62-.21,1.54,2.04-.09-1.58,1.74c.38.48,1.09.79,1.51,1.26l-2.02-.07-.03,2.37-1.03-1.37-.48-.46Z"/>
  <path class="cls-10" d="m57.14,78.85l1.37.83-1.3-.08-.12,1.52c-.48.11-.62-1.56-1.5-.8-.26.68-.6,1.01-1.2.98.23-.41.61-.96.7-1.39l-2.01-.64,1.62-.51-.77-2.04,1.28.85.49-1.7c.21-.1-.2.97.26,1.18.48-.31.87-.81,1.44-.93-.07.53-.54,1.3-.04,1.71l1.57-.34c-.57.54-1.13,1.07-1.8,1.37Z"/>
  <path class="cls-16" d="m46.89,66.07l.92.26-1.22.89c.34.49.56,1.11.78,1.68-.39-.01-.64-.1-1.61-.45-.15.32-.61,1.12-.85,1.67l-.52-1.9-2.17.2c.82-.23.92-1.05,1.69-1.33-.12-.75-.33-1.73-.91-2.27.43-.35,1.03.13,1.57.27l.73-1.65.68,2.06c.04.23.38.57.9.57Z"/>
  <path class="cls-9" d="m48.02,61.52c.21-.3.7-.15.9-.46l-.27-2.26,1.23.61c.21-.71.42-1.64,1.05-2.08l.27,2.26,2.34-.36-1.36,1.28c.64.43.93,1.13,1.37,1.66l-1.45-.15-.33,2.03-.93-1.13c-.34.33-.57.95-1.05,1.05-.37-.64.51-1.86-.54-1.84-.5-.17-1.13-.37-1.23-.61Z"/>
  <path class="cls-16" d="m55.56,84.13c.17.17.84.49.43.93-.24-.05-.61.34-.71-.1-.19-.68.55-.84.04-1.5l.61-.13c.28.45-.09.64-.37.8Z"/>
  <path class="cls-23" d="m51.54,60.49c.31.6,1.15.47,1.23,1.22-.36.03-.89-.11-1.19,0v1.49s-.83-1.31-.83-1.31l-.59,1.26c.02-.73-.19-1.71-1.26-1.58l.66-.51c-.34-.29-.69-1.08-.61-1.72l1.16.72c-.07-.76.32-1.46.66-2,.29.71-.14,1.22.19,1.91l1.57-.34c-.22.46-.77.43-1,.84Z"/>
  <path class="cls-9" d="m58.87,97.76l-2.11-.67c.11-.54.37-1.21.28-1.66-.19.12-.3.15-.37.12-.12.1-.27.17-.45.19-.21.26-.41.78-.7.65-.34-.49-.41-1.45-.98-1.54-.59.44-.02.93.09,1.47.7,1.75-1.08,1.32-1.67,1.96.57.08,1.09.38,1.64.41,1.5-.02,0,1.49.46,2.11l1.33-1.42c.4.37.68,1.24,1.21,1.12.32-.64-.23-1.44-.09-2.09.53-.07,1.12-.3,1.36-.66Z"/>
  <path class="cls-16" d="m55.51,86.41c-.2-.06-.16-.32-.19-.47.01-.36.53-.48.7-.15.03.35-.08.89-.5.62Z"/>
  <path class="cls-16" d="m56.09,87.98c-.21.1-.39.09-.58-.13-.14-.43.22-.87.64-.6.01.25.16.53-.07.74Z"/>
  <path class="cls-16" d="m56.18,88.45c.52,0,1,.45.45.92-.18-.17-.36-.26-.54-.28l.09-.64Z"/>
  <path class="cls-16" d="m54.59,89.7l.83,1.53c-.64-.18-1.25-.19-1.83-.52-.57.95-.6.81-1.53,1.41-.29-.5.03-1.09.05-1.66l-1.97-.65c.44-.92,2.54-.09,1.76-1.98-.06-.29-.23-.62-.1-.85.68-.05.76,1.58,1.27.8.37-.5.76-.7.98-.94.01.5.12,1.23.14,1.78.15-.11,1.38.37,1.55.37,0,0-.79.43-1.15.71Z"/>
  <path class="cls-14" d="m57.3,99.96c-.48-.31-.56-.91-1.16-1.13l-.68,1.28.21-1.54-1.61-.26c.11-.13.52-.53,1.02-.33l-.2-1.96.56,1.11,1.18-1.08c.14.64-.61,1.37,0,1.85.38-.75,1.08-.08,1.61-.15l-1.21.52.28,1.69Z"/>
  <path class="cls-16" d="m56.24,91.19c-.17.04-.39-.12-.39-.33-.13-.18.02-.31.08-.48.45-.25.84.69.31.81Z"/>
  <path class="cls-16" d="m54.09,83.48c-.28.17-.33-.03-.47-.26l.39-.7c.39.12.35.75.07.96Z"/>
  <path class="cls-16" d="m56.06,92.46c-.3.07-.48-.1-.63-.38-.2-.27.14-.39.2-.56.39-.09.77.6.43.93Z"/>
  <path class="cls-16" d="m56.15,94.3c-.21-.11-.42-.06-.61-.28v-.46c.38-.7.98.35.61.74Z"/>
  <path class="cls-16" d="m53.77,84.94c-.16.09-.25-.1-.36-.18l-.08-.34.58-.28c.08.34.24.67-.14.8Z"/>
  <path class="cls-22" d="m54.71,90.65l-1.31-.33-.95,1.08c-.45-.36.35-1.11.08-1.51l-1.68-.15c.46-.41,1.43-.16,1.62-.72-.54-.19-.17-.79-.26-1.18.13-.03.3.76.63.99l.74-1.19c.3.55-.38,1.16.23,1.44l1.08-.08-.88.55.69,1.08Z"/>
  <path class="cls-16" d="m53.38,86.26l-.31.07c-.34-.29-.12-.75.12-.9.63-.24.59.8.18.83Z"/>
  <path class="cls-16" d="m54.02,94.61c-.27-.2-.28-.86.12-.9.77.19.39,1.15-.12.9Z"/>
  <path class="cls-16" d="m53.98,93.38c-.17.04-.42.15-.49-.15l-.08-.34.65-.14c.01.26.23.62-.09.64Z"/>
  <path class="cls-23" d="m45.99,66.99c.41.42.67.98.89,1.55-.41-.22-.83-.44-1.23-.6l-.64,1.02-.13-1-1.43-.05,1.17-1.13c-.41-.22-.8-.96-1-1.63l1.38.47c.19-.4-.11-.9.18-1.27.7.46.2,2.99,1.78,2.08l-.97.57Z"/>
  <path class="cls-9" d="m49.68,103.74c.48.1.67.57,1.22.56l-.38-2.13,2.08-.1c-.59-.8-1.7-.86-2.41-1.43.21-.51,1.06-1.21.71-1.75-.5,0-1.06.39-1.6.61l-.52-1.74-1.02,1.82c-.3-.55-.97-.87-1.19-1.49l-.09,2.49-1.86.05,1.76,1.98c-.32.84-1.3.95-1.36,1.89,1.01-.38,1.99-.08,2.8-.77l.71,2.21c.36,0,.45-.68.72-.85.08-.26.44-1.36.44-1.36Z"/>
  <path class="cls-9" d="m55.31,106.93l-1.81-.12-.41-1.87c-.68.25-.81,1.31-1.34,1.79,0,0-1.21-.78-1.3-.69-.06.04.42.69.36.73.17.23.3.48.35.81l-1.1,1.84c.71.31,1.58-.71,2.23-.23l-.16,1.78,1.47-1.82c.5.4,1.26.55,1.59.37l-1.05-1.47,1.17-1.13Z"/>
  <path class="cls-24" d="m53.46,108.06l.98.92c-.19.2-.75.11-1.07-.28l-.96,1.45c-.16-.53.44-1.13.06-1.61-.72.06-.99.48-1.84.56.12-.7.72-.88,1.14-1.28l-.62-.94c.69.67,1.12-.09,1.53-.95l.16-.29.39,1.77,1.46-.22c-.26.47-.9.46-1.22.89Z"/>
  <path class="cls-16" d="m45.04,71.16c-.06-.29-.17-.58.06-.78.82-.02.46,1.03-.06.78Z"/>
  <path class="cls-16" d="m45.21,76.94c.69.42,1.52.69,1.76,1.57l-1.95.07.38,2.13-1.47-.66-.9,1.54c-.51-.25-.24-1.08-.36-1.62l-2.31-.11,1.3-1.16-1.04-2.24,1.48.29c.01-.77-.3-1.58.06-2.23.46.4.84.69,1.02,1.29l1.31-1.7-.1,1.62,2.15-.21-1.33,1.42Z"/>
  <path class="cls-23" d="m45.03,80.06l-1.23-.6-.73,1.24-.15-1.31c-.58-.13-1.21.32-1.75.13.43-.35.96-.42,1.2-.98-.55-.24-1-1.02-1.34-1.71.64-.19,1.34.89,1.87,0-.65-.27-.59-1.21-.61-1.72l.86,1.41,1.01-1.46-.26,1.29,1.87-.41-1.11.96c.45.57,1.41.62,1.9,1.18l-2.05.24.52,1.74Z"/>
  <path class="cls-17" d="m50.14,101.89l.32,1.88c-.52-.09-.72-.56-1.22-.56-.05.63-.1,1.62-.61,2.19-.26-.56-.6-1.46-.38-2.13-.9.25-1.6.82-2.67.74.21-.71,1.84-1.18.77-1.92l-1.02-1.11,1.34.07.22-1.9.93,1.13.93-1.8c.07.55-.11,1.36.24,1.7.51-.37.93-.77,1.57-.96.18.83-.82,1.05-.69,1.85l1.89.72c-.64-.01-.96,0-1.62.1Z"/>
  <path class="cls-16" d="m44.13,73.06c-.2-.06-.12-.33-.22-.57.1-.59.93.05.46-.82l.63-.24c.02.72-.37,1.21-.87,1.63Z"/>
  <path class="cls-16" d="m41.83,68c-.25-.1-.34-.29-.26-.56.16-.29.61-.13.71.1-.03.26-.17.5-.45.46Z"/>
  <path class="cls-16" d="m41.48,68.49l-1.53.95c.16.53.56,1.11.57,1.57l-1.23-.6c-.45.46-.08,1.1-.58,1.52-.59-.18-.63-2.23-1.45-1.17-.44.34-1.24.38-1.24.38l.91-1.9c-.55-.24-.48-.92-1.12-1.14l1.49-.07.48-1.96.65,1.09c.48-.11.63-.65,1.19-.62.15.48-.36.85-.02,1.34l.61.28c.06-.05,1.26.34,1.26.34Z"/>
  <path class="cls-16" d="m40.4,67.39c.08-.24.04-.55.35-.54.13.18.37.23.35.54l-.11.15"/>
  <path class="cls-18" d="m39.94,70.43c-.25-.31-.65-.68-1.01-.65l-.24,1.39c-.34-.49-.65-1.09-1.16-1.34l-.76.68.92-1.44c-.34-.29-.67-.16-.99-.55.28.04,1.3.28,1.12-.71l.03-.88.37,1.05c.38.07.61-.55.92-.82.5.41-.68.87.15,1.31.44-.51.97.04,1.43.05l-1.28.64.51,1.28Z"/>
  <path class="cls-9" d="m41.45,83.32l.21,1.62c-.41-.39-.77-.75-1.02-1.14l-.99,1.39c-.41-.97-.12-1.68-.22-1.96l-1.25.18c.26-.54.65-.98,1.25-1.44-.18-.3-.39-.6-.56-1.44.88.27,1.72.96,2.55.16.24.46-.38.96-.21,1.54l1.36.58c-.08.48-.75.32-1.12.5Z"/>
  <path class="cls-18" d="m41.02,83.88c-.1-.24-.5-.61-.69-.21l-.39.7-.06-1.32c-.38-.07-.74-.04-1.1-.02l1.06-1c-.23-.21-.34-.49-.38-.89.47.46,1.19.82,1.55.18l-.51,1.19,1.07.28-.81.28.27.82Z"/>
  <path class="cls-9" d="m33.45,74.29c0-.32.07-.92.39-1.35l.45,1.71,1.93-.12-.94,1.3,1.26,1.56c-.43.27-1.04-.24-1.52-.51l-1.21,1.49c.43-1.26-.69-1.68-1.89-1.8l.89-.31c-.3-.57-1.19-.75-1.07-1.41.41-.05.64.04,1.28-.28l.43-.28Z"/>
  <path class="cls-23" d="m35.58,74.92c-.19.34-.66.56-1.04.84.36.44.9.58,1.25,1.11l-.96-.54-.71,1.01c-.28-.25.23-.74-.26-.97l-.47.18c-.3-.07.1,0,.11-.12-.1-.55-.94-.68-1.34-1.21.64-.34,1.78-.09,1.59-1.23l.24,1.19,1.59-.25Z"/>
  <path class="cls-16" d="m27.92,56.03c.6.44,1.25.5,1.85.93l-1.55.44c.05.66.77,1.01.67,1.6-.21.51-.73-.2-1.1-.02v1.49c-.66.3-1.39-1.39-1.8-.12l.13.59.96-.21c-.24.57.32.85.65,1.09-.02.52-1.27.23-.61,1.16-.55.22-.97-.25-1.45-.56.32-.64-.47-.46-.71-.72-.47.15-.19.81.12.95l.38.28c-.57.33-1.97-.03-1.74,1.41-.05.17-.2.15-.33.17.14-1.21-.81-1-1.53-1.16l-.15-.07c.57-.54.96-1.24.23-2.06.25-.52,1.46.19,1.86-.87-.12,1.11.78.86,1.46,1.02l-.39-1.77-1.81.29.66-1.38-1.53-1.16c.15-.75,1.35.12,1.33-.81-.28-.86.16-2.4-.81-2.65-.04-.2.15-.34.25-.52.3-.07.47.05.62.33-.64.81.43.93.9,1.19.32-.64.47-2.21,1.09-2.09l.8,1.78,1.3-1.16.1,1.47,1.41-.67-1.26,1.77Z"/>
  <path class="cls-11" d="m27.78,57.04c-.09.64.63.99.74,1.69-.38-.07-.73-.2-1.12-.11.01.46-.13.85.06,1.32-.82-1.05-1.45.06-2.07.56l-.3-1.37-1.46.42.75-1.14c-.44-.57-1.24-.45-1.64-1.03.4.17.89-.09,1.38-.15l-.46-2.11,1.26.34c.06-.78.07-1.56.52-2.22l.83,1.93,1.09-.65c-.36.44.12.75.24,1.08l.34-.33-.7.77c.33.65,1.09.38,1.59.78l-1.05.23Z"/>
  <path class="cls-16" d="m32.48,78.29c-.29-.09-.42-.47-.28-.66l.73.2c-.02.31-.17.71-.45.46Z"/>
  <path class="cls-16" d="m32.18,79.28c-.2.15-.33-.03-.49-.15-.09-.19.07-.32.12-.49.36-.23.75.5.37.64Z"/>
  <path class="cls-16" d="m31.17,80.38c-.04-.26.01-.4.1-.5.19-.23.49-.24.52.15s0,.68-.62.35Z"/>
  <path class="cls-8" d="m32.89,82.83c-.41.19-1.05.02-1.3.54l.8,1.16c-1.56-.84-1.67.93-2.6,1.7-.02-.51.1-1-.12-1.57l-1.92-.2c.28-.37.83-.18,1.12-.5l-.5-2.26,1.39.93c.09-.84.69-1.23,1.02-1.82.28-.17.38.28.63.38l-.4,1.07c.5.4,1.45.14,1.86.57Z"/>
  <path class="cls-16" d="m26.44,61.76c-.08-.14.08-.27.1-.38l.46.41c-.2-.06-.38-.07-.56-.03Z"/>
  <path class="cls-4" d="m30.76,83.92l-.61,1.37-.13-1.21c-.22-.16-.5,0-.76.06,1.01-.58-.67-.78-.48-1.75.53.14.8.75,1.39.52-.06-.5.14-1.01.48-1.34.29.3-.28,1.45.6,1.26-.26.68.51.87.55,1.47l-1.04-.39Z"/>
  <path class="cls-16" d="m26.11,62.35c.08-.27.33-.17.46,0,.03.35-.32.02-.46,0Z"/>
  <path class="cls-16" d="m21.35,49.19c.06.5.92.67,1.07,1.36-.51.16-1.67-.76-1.55.44l.09.39c.32-.02.57-.33,1-.01.16.32-.06.58-.19.81-.57.33-.58-.54-.82-.8-.04.22-.18.45-.31.68l-.68-1.24c-.46.41-.71,1.13-1.39,1.18l.41-1.68c-.59-.39-1.26-.13-1.72-.75l1.46-.42c-.16-.74.06-1.4.08-2.13.36-.03.35.75.76.97.31-.27.62-.5.92-.82.55.24.15.89.15,1.3l1.59.17c-.28.17-.61.34-.88.55Z"/>
  <path class="cls-16" d="m22.49,53.36c-.28-.04-.72-.36-.49-.77.14-.19.56-.38.77-.02.21.31-.09.64-.28.78Z"/>
  <path class="cls-14" d="m23.56,63.63c.03.15-.18-.42-.04-.61-.33-.44-.57-.08-.85.08l-.13.03c-.26-.56,1.06-1,.04-1.5-.03-.35.76.55.89-.3-.17.04.45,1.03.89.52-.06.37.04.61.4.79-.36.23-1.48-.09-1.2.98Z"/>
  <path class="cls-19" d="m20.4,50.27l.23,1.03-.53-.96-1.11.96.5-1.24-1.09-.38c1.15.26.55-1.05.66-1.59l-.05-.25c.41.22-.02.93.65,1.09l.62-1.11c.42.27-.61.96.19,1.3l.59-.23c-.08.27-.49.06-.54.48.09.6.71.1,1.01.65-.39.09-.95-.36-1.13.25Z"/>
  <path class="cls-8" d="m27.83,95.57c.03.15-.13.23-.14.39-.03-.56-.38-.89-.73-1.23l-1.34,1.79c-.38-.48.19-1.22.13-1.88l-2.41.07,1.32-1.06c-.75-.5-.5-1.43-.9-2.02l1.28.85c.1-.79-.02-1.75.27-2.32l1.19,1.49.87-1.43c.74.46-.7,3.04.93,1.75h.77s-1.08,1.1-1.08,1.1c.67.16,1.27.6,1.73,1.22-.68.46-2.5-.79-1.91,1.29Z"/>
  <path class="cls-16" d="m73.35,92.22c-.2.05-.74.38-.88-.12.15-.15.04-.6.4-.46.58.18.35.79,1.07.73l-.19.5c-.46,0-.42-.36-.41-.64Z"/>
  <path class="cls-16" d="m71.73,91.13c.13-.11.31.03.43.08.26.18.1.61-.21.57-.27-.14-.61-.47-.22-.65Z"/>
  <path class="cls-16" d="m70.32,90.81c.03-.19.12-.32.36-.36.38.1.53.56.14.75-.19-.11-.46-.13-.5-.39Z"/>
  <path class="cls-16" d="m81.07,95.14c-.21.1-.39.09-.58-.13-.14-.43.22-.87.64-.6.01.25.16.53-.07.74Z"/>
  <path class="cls-20" d="m30.55,29.61c.54-.71,1.19-1.21,1.88-1.84.14,1.12-.46,2.07-.33,3.13,1.23.51,2.24-.38,3.47.13l-2.47,2.1c1.25.33,2.05,1.22,2.81,1.96-1,.42-2.32.34-3.4.14-.14,1.01.13,2.1,0,3.16-.94-.12-1.05-1.35-1.83-1.91-1.22.3-1.72,1.46-2.82,1.96l.59-2.1-3.86-.66,2.77-1.14-2.4-2.4c.48-.17,1.59-.39,2.32-.05l-.97-2.64,1.91.91c.53-.99-.13-2.1.21-3.1l2.13,2.35Z"/>
  <path class="cls-13" d="m30.44,30.5l1.3-1.58-.19,2.4c.91.29,1.92.16,2.95-.15-.1.66-1.38,1.26-2.07,1.89l2.8,1.9-3.16-.2-.15,2.57c-.66-.3-.41-1.91-1.64-1.15l-1.61,1.09c.33-.48.28-.99.41-1.48-1.07.15-2.19.31-3.16-.2l2.3-.68c-.3-.96-1.52-1.7-2.42-2.46.59-.49,1.5.32,2.36.11l-1.09-2.32c1.41-.06.97,2.35,2.37,1.2-1.34-.71-.46-2.13-.65-3.18.74.62,1.09,1.52,1.65,2.24Z"/>
  <path class="cls-3" d="m112.97,21.51l.47-.12c-2.94,1.42.64,2.32.72,3.82l-2.68-.42c-.3.83-.59,1.67-.89,2.5l-.34.08c-.3-.62.07-1.16-.29-1.77l-2.83.12,1.46-1.63c-.38-.67-1.56-.82-1.63-1.69l1.95.09c.3-.83.79-1.72.49-2.66,1.13.8,1.47,2.81,3.55,1.67Z"/>
  <path class="cls-2" d="m110.34,22.16l1.69-.1-.66.8,2.01,1.79-2.17-.42-.62,1.55-.07-.87c-.68-.15-1.58.26-2.13.33l1.07-1.15-1.06-.82c1.6,1,1.08-1.41,1.33-2.16.64-.03.46.71.62,1.05Z"/>
  <path id="Path_1789" data-name="Path 1789" class="cls-1" d="m63.49,31.42c1.5-.3,3.17-1.21,4.6-1.07-.54,1.11-1.3,2.09-2.22,2.91,1.21,1.31,2.31,2.72,3.29,4.21-.43.3-.84-.2-1.15-.46-1.09-.31-2.13-.8-3.06-1.46-.44,1.11-1,2.16-1.68,3.14-.19.68-.3,1.43-1.07,1.53-.39-1.21.12-3.13-.15-4.29-1.06.12-2.19.57-3.22.46-.6.28-1.83.93-2.45.46.18-.59.81-.87,1.23-1.23.44-.37.89-.74,1.3-1.15-.26-1.7-1.22-3.46-1-5.13,1.11.11,2.19.4,3.22.84.4-.82.68-1.77,1.15-2.53.22-.06.2.11.38.08.43,1.19.71,2.42.84,3.68"/>
  <path id="Path_1782" data-name="Path 1782" class="cls-1" d="m45.46,42.4c.75.49.88,1.6,1.43,2.29,1.06-.37,2.14-.66,3.24-.86-.38.92-.96,1.74-1.72,2.39.15.31.38.57.67.76.15,1.07,1.12,1.8,1.24,2.58-1.09.13-1.79-.94-2.96-1.05-1.04.83-1.23,2.52-2.67,2.96.06-.96,0-1.92-.19-2.86-.97-.55-2.43-.62-3.24-1.34,1.08-.59,2.29-.92,3.52-.95.08-1.26.06-3.19.67-3.91m1.24,2.96c-.53-.52-.56-1.54-1.24-1.91-.25,1.16,0,2.71-.29,3.62-.97-.39-2.08-.29-2.96.29.94.31,1.89.57,2.86.76-.05.81.04,1.62.29,2.39.62-.86,1.19-1.75,1.72-2.67.72.36,1.56.6,2.29.95-.3-.93-.9-1.74-1.72-2.29.68-.58,1.23-1.3,1.62-2.1-.9.2-1.77.52-2.58.95"/>
</svg>