<?xml version="1.0" encoding="UTF-8"?>
<svg xmlns="http://www.w3.org/2000/svg" viewBox="0 0 136.06 136.06">
  <defs>
    <style>
      .cls-1 {
        fill: #fff;
      }

      .cls-2 {
        fill: #0c3454;
      }

      .cls-3 {
        fill: #e0e1e3;
      }
    </style>
  </defs>
  <g id="Layer_3" data-name="Layer 3">
    <rect class="cls-3" x="0" y="0" width="136.06" height="136.06"/>
  </g>
  <g id="B_W" data-name="B&amp;amp;W">
    <g>
      <path class="cls-1" d="m109.72,21.1c.64-.03.46.71.62,1.05l1.69-.09-.66.79,2.01,1.79-2.18-.41-.62,1.54-.07-.87c-.68-.15-1.58.26-2.13.34l1.07-1.16-1.06-.81c1.61,1,1.09-1.41,1.33-2.17Z"/>
      <path class="cls-1" d="m75.88,28.21l.6,1.26c-.69.2-1.34-.48-1.5.69l-.23.41c.2-.56.2-1.18.26-1.76l-.37-.05c.05-.11-.12-.8-.32-1.19l-.07-.34c.69.15,1.33.82,1.89.38-.12.19-.22.41-.26.6Z"/>
      <path class="cls-1" d="m82.83,22.41c-.08-.34,1.34-.55.48-1.34-.04-.19-.17-.37-.02-.51l1.29,1.31.73-.62c.06.45-.91,1.02-.19,1.22-.54.13-1.08.32-1,1.25l-.14-1.46c-.4.25-.75-.09-1.15.15Z"/>
      <path class="cls-1" d="m92.72,19.62l.2-1.17c-.27-.2-.61.13-.88-.07.57.13.55-.99.6-1.62l.35.54c.38-.14.2-.71.59-.85l.32,1.06,1.01-.38-.59,1.27.28.19c-.22.05-.78.02-.54.48l.08.34-.22.05-.11-.49-1.09.65Z"/>
      <path class="cls-1" d="m91.01,25.76l.62-1.11-1.49-.39,1.17-.67c-.59-.18-.28-.87-.56-1.48.67.73,1.06.03,1.33-.39.06.24.08.55.37.64.42-.2.78-.43,1.19-.62-.01.36-.32.63-.43.96.35.55.93.68,1.45.77-.6.39-1.3.75-.6,1.62-.9-.78-.92.62-1.37,1.28l-.38-1.15c-.42.19-.76.53-1.3.54Z"/>
      <path class="cls-1" d="m85.33,33.8l.85.33.23-.82c.31.39-.22.87.37,1.05l.53-.48c-.35.7.4,1.61.79,2.56l-1.04-.8c-.35.28-.52.78-.75,1.19-.02-.51.57-1.16-.09-1.47-.22.25-.59.23-.94.31.18-.45,1.32-.86.27-1.3-.2-.06-.13-.38-.22-.57Z"/>
      <path class="cls-1" d="m62.32,52.54l-1.02.33.16.74c-.42-.48-1.24-.25-1.89-.1l.89-.92c-.37-.23-.75-.3-1.1-.63.64-.25,1.27-.08,1.52-.59.08.18.2.31.21.57l.81-.28c-.09.22-.4.44-.24.77l.66.11Z"/>
      <path class="cls-1" d="m68.12,52.5c.28.25.17.79.53.97l1.04-.85c-.17.45-.21.87-.5,1.24.16.05.3.29.46.29l-.57.25.48,1.13c-.16.34-.59.03-.88-.06l-.49,1.34c-.5-.61-.86-1.66-1.81-1.2l-.31.07.55-.63-1-1.02c.5-.21,1.66.51,1.49-.69l-.16-.73c.19.42.48.71.85.94l.32-1.05Z"/>
      <path class="cls-1" d="m64.88,61.56c.22-.57-.54-1.24-.95-1.7l1.18.36c-.1-.45-.11-.91-.23-1.45.54.19.38,1.51,1.27,1.22l-.17.65.7.31-.79.33.37.64c-.55-.24-.94-1.35-1.38-.36Z"/>
      <path class="cls-1" d="m73.21,57.2l.07,1.32,1.35-.29c-.02.57-1.11.81-.27,1.29l.98-.11c-.49.47-1.12.09-1.37.81.34.29.54.61.61,1.11l-1.08-.75-.8,1.78-.58-1.21c-.63.29-1.08.9-1.91.88l.71-1.75-1.25-.71,1.48-.32.08-1.51.86.79,1.12-1.33Z"/>
      <path class="cls-1" d="m75.64,51.83l1.02-1.82c.38.69-.56,1.41.23,1.9l1.26-1.15c-.11.34-.02,1.4-.81,1.31.54,1.22,1.47-.37,2.24.23-.39.29-.83.39-1.29.54-.07.74.79,1.12,1.03,1.78-.44-.31-1.01.02-1.48-.29l-.08,1.1-.76-.55-.27,1.29-.26-1.18-2.38.78c.46-.41.78-.99,1.24-1.4-.48-.72-1.52-.7-1.76-1.57.39.12.81-.08,1.18-.05.07-.69-.84-1.52-.27-2.26.24.05.6,1.05,1.16,1.34Z"/>
      <path class="cls-1" d="m103.7,43.49c-.73.98-1.45,1.96-2.18,2.94-1.21-.33-2.27-.97-3.6-1.33.26.69.38,1.26.97,1.57-.13-.28-.27-.56-.45-.95,1.27.07,2.24.86,3.37.94.44-.87,1.43-2.07,2.04-2.4.02.32.06.61.07.9,0,.48.02.97-.03,1.45-.05.55.15.91.67,1.13.32.13.61.32.9.5.2.12.38.26.57.4-.02.04-.05.08-.07.12-.84-.09-1.68-.18-2.57-.27-.11.81-.22,1.59-.33,2.37-.05,0-.1.03-.15.04-.31-.5-.62-.99-.96-1.53-1.15.4-1.98,1.39-3.15,1.85.47-.8.94-1.6,1.43-2.44-.38-.54-.76-1.08-1.15-1.62.12.26.21.55.37.8.26.4.31.79.06,1.22-.42.72-.81,1.44-1.2,2.17-.12.21-.29.4-.22.71.65-.28,1.27-.51,1.86-.81.57-.31,1.1-.7,1.67-1.06.56.62.85,1.38,1.58,1.8.07-.12.14-.19.15-.27l.3-2.31c.07-.5.12-.56.61-.52.76.05,1.51.13,2.26.24.29.04.43.01.45-.32-.68-.4-1.33-.84-2.03-1.17-.65-.31-.82-.82-.83-1.45-.01-.73-.02-1.47,0-2.2,0-.31-.12-.46-.41-.5Zm5.36,5.26c.39.53,1.03.83,1.33,1.41-1.93-.13-3.81-.25-5.71-.38-.2,1.77-.4,3.45-.62,5.3-.78-1.1-1.2-2.25-2.19-3.04-.71.22-1.48.4-2.2.68-1.2.46-2.39.97-3.57,1.48-.33.15-.65.27-1.06.28.08-.26.13-.46.22-.64.79-1.64,1.59-3.27,2.62-4.77.31-.45.33-.82.1-1.26-.18-.35-.35-.7-.49-1.07-.21-.56-.39-1.13-.59-1.69-.18-.51-.37-1.01-.55-1.52.04-.04.08-.08.12-.11,1.2.48,2.4.97,3.6,1.46.17.11.35.23.52.34,1.29-2,3.38-4.51,3.96-4.75.02.06.06.12.07.19.11,1.04.22,2.09.32,3.14.06.58.09,1.15.17,1.72.02.18.12.41.27.51.35.25.75.43,1.13.64l.05.06c.08.1.14.23.24.31.74.57,1.49,1.13,2.24,1.69.01,0,.01.01.02.02Z"/>
      <path class="cls-1" d="m102.11,64.85l-.02-1.74c-.64-.01-1.6.2-2.33,0l1.35-.92c-.11-.49-.78-.86-.88-1.5.41-.25.85.53,1.47.65.15-.34.13-.85.49-1.08.42-.2.06.45.32.8l-.23.41c.61.49,1.04-.43,1.71-.12-.33.18-.8.13-.97.58l.87,1.04-.94-.31c-.37.8-.26,1.5-.84,2.19Z"/>
      <path class="cls-1" d="m86.75,69.68c-.04.21-.1.41-.14.62-.13.58-.09.64.46.89.42.19,1.07.66,1.38,1-.35.11-.66-.03-.95-.12-.35-.11-.56-.02-.74.27-.19.31-.39.6-.61.93-.15-.18-.09-.35-.1-.52,0-.38-.08-.45-.44-.51-.48-.08-.95-.19-1.43-.29-.01-.05-.02-.11-.03-.16.43-.3.86-.61,1.34-.95-.36-.31-.67-.56-.95-.83-.27-.27-.51-.57-.72-.93.68.29,1.37.58,2.1.89.29-.35.59-.71.9-1.07.03.01.06.02.08.04-.05.24-.09.49-.15.74Z"/>
      <path class="cls-1" d="m88.14,73.09c-.57-.16-.77.16-1,.62-.53,1.09-.99,2.2-1.67,3.21-.06.09-.13.17-.25.33-.16-1.44-.4-2.78-.23-4.22-1.48-.49-3-.92-4.49-1.72.97-.36,1.9-.43,2.91-.48-.42-.64-.8-1.2-1.17-1.76-.37-.57-.73-1.15-1.14-1.79.79-.05,1.36.33,1.97.49.63.17,1.25.39,1.94.61,1.06-.9,2.15-1.82,3.33-2.82-.12.82-.22,1.52-.33,2.22-.09.5-.19.99-.29,1.49-.03.18-.07.35-.12.53-.1.32-.07.5.22.66.94.51,1.67,1.3,2.52,1.94.22.17.43.37.65.55-.02.04-.04.09-.06.13h-2.49c-.1,0-.21.03-.3.01Zm-.52-.75c.41.09.83.16,1.25.23.13.02.26-.01.44-.02-.15-.21-.23-.38-.36-.49-.15-.12-.35-.17-.51-.28-.51-.36-1.02-.74-1.59-1.16.13-.73.26-1.53.4-2.33-.04-.02-.08-.05-.12-.07-.59.35-.81,1.08-1.45,1.47-.6-.36-1.22-.74-1.86-1.09-.26-.15-.56-.26-.84-.37-.03-.01-.1.06-.2.13.76.82,1.49,1.62,2.24,2.43-.51.46-1.14.68-1.8.99.18.11.28.2.4.23.36.11.72.2,1.08.3q1.06.29,1.16,1.38c0,.14-.05.31.21.4.08-.14.17-.28.25-.43.19-.34.39-.67.57-1.02.16-.33.41-.36.73-.3Z"/>
      <path class="cls-1" d="m110.37,92.66c-.25.63-.49,1.23-.78,1.94-.49-.64-.9-1.19-1.34-1.77-.76.29-1.58.3-2.21.82-.02.01-.03.01-.05.01,0,0-.01,0-.01,0-.09-.05-.19-.1-.36-.17.18-.19.32-.35.47-.51.47-.47.52-.75.17-1.33-.1-.17-.23-.34-.35-.5-.25-.31-.51-.99-.59-1.58.36.07.72.15,1.07.22h.01s.04.02.06.02c.47.23.94.46,1.44.7.65-.57,1.26-1.11,1.87-1.64.04.02.08.04.12.05-.09.39-.17.78-.26,1.16-.23.93-.24.93.57,1.39.18.1.38.16.58.23,0,.02.03.03.04.04.02.01.05.02.07.03.11.13.24.26.35.38s.23.23.34.35c.05.07.09.15.19.31-.5-.06-.93-.11-1.4-.16Z"/>
      <path class="cls-1" d="m108.65,93.85c.33.51.68,1,1.2,1.42.22-.75.22-1.51.71-2.11.77.14,1.52.16,2.43.05-.7-.64-1.35-1.11-2.1-1.43l-.05-.05s-.04-.01-.06-.02c-.2-.18-.38-.38-.6-.53-.29-.19-.39-.41-.3-.75.19-.68.36-1.36.53-2.04.02-.11.03-.22.06-.44-.22.13-.36.18-.46.27-.23.2-.42.43-.65.62-.47.38-.96.75-1.47,1.1-.12.09-.33.09-.49.07-.32-.05-.63-.12-.94-.19-.02,0-.03-.01-.05-.02h-.02c-.49-.57-1.19-.7-1.95-1.02.07.22.09.33.14.42.43.77.86,1.54,1.3,2.31.37.66.33.95-.21,1.52-.24.25-.47.52-.77.85.46.06.78,0,1.08-.21.01,0,.01.01.02.01.01-.01.03-.02.04-.03.53-.07,1.06-.13,1.58-.24.66-.14.65-.15,1.03.44Zm2.62.85c-.1,1.32-.51,2.61-.41,3.96.03.47.08.97-.2,1.55-.97-1.84-1.87-3.57-2.81-5.36-.23.04-.52.11-.81.14-.38.04-.77.09-1.16.09-.82.01-1.65,0-2.47,0-.16,0-.31.04-.47.04-.82,0-1.65-.03-2.47-.04-.49,0-.97,0-1.46,0,.9-.52,1.86-.85,2.73-1.32.9-.48,1.95-.64,2.73-1.28-.23-.41-.43-.74-.59-1.08-.5-1.03-.98-2.06-1.48-3.09-.33-.68-.68-1.35-1.01-2.03-.06-.12-.05-.28-.08-.55.89.34,1.68.62,2.45.95.91.38,1.79.81,2.7,1.2.13.06.33.05.45-.02,1.44-.71,2.92-1.34,4.22-2.31.71-.53,1.51-.94,2.31-1.43.01.16.04.25.02.33-.28.82-.54,1.66-.85,2.47-.27.68-.59,1.34-.89,2.01-.15.33-.17.6.17.85.22.16.39.39.58.58,1.07,1.04,2.13,2.08,3.2,3.12l.05.05c.27.5.82.83.88,1.52-.45-.05-.88-.12-1.3-.13-1.13-.01-2.24-.17-3.33-.47-.09-.02-.18-.04-.27-.05-.25-.05-.42.06-.43.31Z"/>
      <path class="cls-1" d="m74.88,115.91c-.32-.34-.65-.66-.95-1.02-.31-.37-.37-.4-.78-.2-.6.28-1.2.56-1.84.87-.1-.28.04-.47.19-.62.29-.26.22-.51.08-.81-.23-.49-.46-1-.67-1.5-.06-.16-.08-.34-.11-.51.04-.03.09-.06.14-.08.42.22.85.44,1.28.66.31.16.46.1.54-.25.17-.73.32-1.47.52-2.34.58.92,1.13,1.77,1.64,2.59.69.09,1.34.18,1.99.27.01.06.01.11.01.16-.13.05-.25.12-.39.14-.45.06-.91.1-1.37.15-.47.06-.55.15-.45.62.07.33.17.67.23,1,.05.26.06.53.09.79-.05.03-.1.05-.15.08Z"/>
      <path class="cls-1" d="m80.77,113.17c-1.01.39-2.02.78-3.03,1.15-.34.13-.7.23-1.06.33-.59.15-.62.2-.49.8.27,1.23.53,2.47.79,3.71.02.12,0,.25,0,.46-1.52-.67-2.22-2.13-3.44-3.04-1.6.67-3.32.61-5,.8-.45.06-.9.13-1.45.21.35-.68.81-1.15,1.3-1.59.47-.41.95-.8,1.42-1.21.67-.58.69-.8.29-1.59-.63-1.23-1.23-2.47-1.83-3.71-.04-.07-.03-.17-.06-.38,1.2.64,2.31,1.22,3.48,1.84.18-.51.34-.96.49-1.41.29-.91.72-1.74,1.27-2.52.17-.24.28-.52.42-.79.11-.21.23-.42.41-.75.11.25.19.36.2.48.19,1.32.39,2.64.54,3.97.05.36.11.68.37.93.1.1.24.2.37.23,1.8.41,3.55.98,5.22,1.77.02,0,.03.03.08.09-.1.08-.18.17-.29.22Zm-5.21,3.81c.14-1.18-.31-2.16-.29-3.19.13-.03.21-.06.3-.08.76-.16,1.53-.32,2.29-.5.12-.02.21-.15.43-.33-.92-.14-1.67-.27-2.42-.36-.43-.04-.74-.24-.95-.59-.44-.72-.94-1.42-1.2-2.24-.07-.23-.23-.42-.43-.78-.18.38-.31.58-.37.81-.08.31-.1.63-.14.95-.08.57-.2,1.12-.47,1.62-.8-.21-1.4-.85-2.29-.86.35.83.63,1.63,1.02,2.38.3.58.25,1.04-.19,1.5-.16.16-.32.33-.47.5-.14.17-.28.35-.42.53.31.29.52.16.78.01.72-.42,1.45-.8,2.18-1.19.24-.12.47-.13.69.1.44.47.91.92,1.38,1.36.13.12.31.2.57.36Z"/>
      <path class="cls-1" d="m85.72,94.59c.29-.32.38-.75,1.02-.74l-1.05,1.21,1.19.87-1.12-.11-.09,2.08c-.31-.35-.41-.84-.91-1.04-.42.4-.68,1.08-1.1,1.48l-.05-1.69-2.09-.16,1.44-.93-.85-1.82.9.57c.59-.23.23-1.03.67-1.53,0,.41.18.63.48.77l1.31-.91c.69.62-.65,1.38.25,1.95Z"/>
      <path class="cls-1" d="m76.7,94.02l1.07.86-1.44-.35c-.09.66-.63.85-.86,1.35v-1.55s-1.81.27-1.81.27c.55-.5.89-1.18,1.56-1.47l-.44-1.71,1.28,1.2,1.28-.93c-.44.43-.93,1.16-.85,1.73l1.24-.31-1.03.91Z"/>
      <path class="cls-1" d="m66.31,88.61l-.68-1.44.98.58.81-.89c.12.39-.15.99.32,1.28.39-.25.73-.53,1.18-.6-.08.41-.31.77-.19,1.26.51.06.95-.23,1.47.15l-1.76,1.07.94,1.56-1.6-.76c-.38.46-.45,1.05-1.03,1.43l-.08-1.51-2.06.02,1.33-.52-1.43-1.31,1.8-.32Z"/>
      <path class="cls-1" d="m58.94,77.47c-.57.54-1.14,1.07-1.8,1.37l1.37.84-1.3-.08-.12,1.52c-.48.1-.62-1.56-1.5-.8-.26.67-.6,1-1.2.98.23-.41.61-.96.7-1.39l-2.01-.64,1.62-.51-.77-2.04,1.28.85.5-1.7c.2-.1-.2.97.26,1.17.48-.31.87-.81,1.44-.93-.07.53-.54,1.3-.04,1.71l1.57-.35Z"/>
      <path class="cls-1" d="m52.48,89.03c-.55-.19-.17-.79-.26-1.18.13-.03.3.76.63.99l.74-1.18c.3.55-.38,1.16.23,1.44l1.08-.09-.89.56.7,1.08-1.31-.33-.95,1.08c-.44-.36.35-1.1.08-1.51l-1.68-.14c.46-.41,1.43-.16,1.63-.72Z"/>
      <path class="cls-1" d="m55.44,97.13l1.18-1.09c.14.64-.61,1.37,0,1.86.38-.76,1.08-.09,1.61-.15l-1.21.52.28,1.69c-.48-.31-.56-.91-1.16-1.13l-.68,1.28.21-1.54-1.61-.27c.11-.12.52-.52,1.02-.32l-.2-1.97.56,1.12Z"/>
      <path class="cls-1" d="m53.22,107.39l1.46-.22c-.26.47-.9.46-1.22.89l.98.92c-.19.19-.75.11-1.07-.28l-.96,1.44c-.16-.53.44-1.12.06-1.61-.72.06-.99.48-1.84.56.12-.69.72-.88,1.13-1.27l-.62-.95c.7.67,1.13-.09,1.53-.95l.16-.3.39,1.77Z"/>
      <path class="cls-1" d="m50.46,103.78c-.52-.09-.71-.57-1.21-.56-.05.63-.11,1.62-.62,2.2-.26-.57-.59-1.47-.37-2.14-.91.25-1.61.82-2.67.75.2-.72,1.84-1.18.76-1.92l-1.02-1.12,1.34.07.22-1.9.94,1.13.93-1.8c.07.55-.12,1.36.23,1.7.51-.37.93-.77,1.57-.96.18.83-.82,1.05-.69,1.85l1.89.71c-.64,0-.95.01-1.62.1l.32,1.89Z"/>
      <path class="cls-1" d="m31.35,113.39v-2.02c.75-.22,1.49-.08,2.18-.45-.17-.14-.27-.29-.41-.33-.95-.25-1.9-.48-2.85-.7-.25-.06-.45-.15-.5-.41-.05-.27-.2-.43-.48-.45.32-1.1-.5-1.89-.54-2.91-.16.09-.25.12-.26.16-.34,1.23-.67,2.47-1.02,3.78-.26-.07-.52-.15-.9-.25.32,1.42,1.09,2.56,1.69,3.79.77-.43.98-1.36,1.74-1.76.47.44.71,1.06,1.35,1.55Zm3.61-1.67c-.73.26-1.47.5-2.22.71-.58.16-.67.2-.56.8.15.88.38,1.75.56,2.63.07.3.11.62.19,1.09-.26-.16-.41-.2-.49-.31-.58-.74-1.14-1.5-1.71-2.25-.18-.23-.38-.45-.62-.73-.91,1.09-2.18,1.44-3.21,2.15-.46.31-.95.57-1.43.84-.29.17-.58.32-.88.49-.04-.04-.09-.08-.14-.12.17-.36.31-.73.51-1.07.55-.95,1.06-1.94,1.87-2.72.3-.28.17-.52.03-.8-.65-1.29-1.32-2.57-1.96-3.88-.23-.48-.37-1.01-.6-1.64.95.2,1.29,1.15,2.2,1.25.62-1.64,1.54-3.14,2.44-4.75.39.51.45,1.01.58,1.49.12.46.25.93.38,1.39.19.61.4,1.22.57,1.84.09.34.26.48.62.53,1.98.25,3.68,1.24,5.43,2.12.05.03.08.1.17.23-.6.25-1.15.51-1.73.71Z"/>
      <path class="cls-1" d="m28.48,113.06c-.41-.77-.76-1.42-1.12-2.1.73-.91.82-1.94,1.01-3.11.6.83.49,1.78.95,2.53.57.06,1.19-.01,1.65.36v1.47c-.61-.11-.54-.91-1.14-.95l-1.35,1.8Z"/>
      <path class="cls-1" d="m31.25,82.83c-.27.68.51.87.55,1.48l-1.04-.39-.62,1.37-.13-1.21c-.21-.16-.5.01-.76.07,1.02-.59-.67-.78-.47-1.75.53.14.8.75,1.39.52-.06-.5.14-1.01.48-1.35.29.3-.27,1.45.6,1.26Z"/>
      <path class="cls-1" d="m34.13,77.33c-.28-.25.22-.74-.26-.97l-.47.18c-.3-.08.1.01.11-.13-.1-.54-.94-.67-1.35-1.2.64-.34,1.78-.1,1.59-1.24l.24,1.19,1.59-.24c-.19.34-.66.56-1.05.83.37.44.91.59,1.26,1.11l-.96-.54-.7,1.01Z"/>
      <path class="cls-1" d="m41.56,82.78l-.81.28.27.82c-.09-.24-.5-.61-.68-.21l-.4.7-.06-1.32c-.38-.07-.74-.05-1.1-.02l1.06-1c-.23-.21-.34-.5-.38-.9.47.47,1.18.82,1.54.19l-.51,1.18,1.07.28Z"/>
      <path class="cls-1" d="m44.51,78.33l.52,1.73-1.23-.6-.73,1.24-.15-1.3c-.58-.14-1.21.31-1.76.12.43-.35.96-.41,1.2-.98-.55-.24-1-1.02-1.33-1.71.64-.2,1.33.89,1.87,0-.65-.27-.59-1.21-.61-1.72l.86,1.4,1.01-1.45-.27,1.29,1.88-.41-1.12.96c.45.58,1.42.62,1.91,1.18l-2.05.25Z"/>
      <path class="cls-1" d="m50.78,58.08c.29.71-.15,1.22.19,1.91l1.57-.34c-.22.46-.78.43-1.01.84.32.6,1.16.46,1.23,1.22-.36.03-.89-.11-1.18,0v1.49l-.83-1.31-.59,1.27c.02-.73-.19-1.71-1.26-1.58l.66-.51c-.33-.28-.69-1.08-.6-1.71l1.16.72c-.07-.76.32-1.46.66-2Z"/>
      <path class="cls-1" d="m45.99,66.99c.42.42.67.98.89,1.55-.41-.22-.82-.44-1.23-.6l-.64,1.01-.13-1-1.43-.05,1.17-1.13c-.41-.21-.8-.95-1-1.63l1.38.47c.19-.4-.1-.9.18-1.28.7.47.2,3,1.78,2.08l-.97.58Z"/>
      <path class="cls-1" d="m39.28,68.46c.44-.51.97.04,1.43.05l-1.28.64.51,1.28c-.25-.31-.65-.68-1.01-.66l-.24,1.39c-.34-.49-.65-1.09-1.16-1.34l-.77.69.92-1.44c-.34-.29-.67-.16-.99-.56.28.05,1.3.29,1.12-.7l.04-.89.37,1.05c.38.07.61-.54.91-.81.5.4-.67.86.15,1.3Z"/>
      <path class="cls-1" d="m18.39,49.68c1.16.27.55-1.04.66-1.58l-.05-.25c.41.22-.03.94.65,1.1l.62-1.12c.43.27-.61.96.19,1.3l.58-.23c-.07.26-.48.06-.52.47.08.6.71.1,1.01.66-.39.08-.95-.36-1.13.24l.22,1.03-.53-.96-1.11.97.5-1.25-1.09-.38Z"/>
      <path class="cls-1" d="m23.56,63.63c.03.15-.19-.42-.04-.61-.33-.44-.57-.08-.85.08l-.13.03c-.26-.56,1.05-1,.03-1.5-.03-.34.7.47.87-.22.04.22.54.88.92.45-.06.37.04.61.4.78-.36.24-1.48-.08-1.2.99Z"/>
      <path class="cls-1" d="m27.36,54.51c-.36.44.11.75.23,1.08l.34-.33-.7.77c.33.65,1.09.38,1.59.78l-1.04.23c-.09.64.62,1,.73,1.69-.38-.07-.73-.2-1.12-.11.01.46-.13.85.06,1.32-.82-1.05-1.44.06-2.07.56l-.3-1.37-1.46.42.75-1.14c-.44-.58-1.24-.45-1.64-1.03.41.17.9-.1,1.39-.15l-.47-2.11,1.27.34c.05-.79.06-1.56.51-2.23l.84,1.93,1.09-.65Z"/>
      <path class="cls-1" d="m49.64,20.74c.39,0,.78-.01,1.16,0,.16,0,.32.06.36-.2-.07-.05-.14-.09-.21-.13-.38-.19-.76-.4-1.15-.57-.23-.1-.3-.26-.24-.48.07-.31.14-.62.22-.92.08-.26.09-.51.04-.82-.65.76-1.46,1.23-2.13,1.76-1.02-.32-1.8-.98-2.8-1.2.31.37.62.76.93,1.13,0,0,.01.03.01.04h.02c.25.27.48.56.73.83.13.14.13.29,0,.41-.31.29-.64.57-.96.86-.11.1-.25.18-.19.44.55-.44,1.08-.85,1.59-1.26-.05-.43-.45-.59-.63-.91-.1-.16-.29-.27-.44-.4-.02,0-.06.01-.1.02h-.01s-.01-.02-.02-.03c-.04-.17-.08-.34-.14-.57.69.32,1.32.62,1.93.91.62-.42,1.09-1.02,1.89-1.19-.07.47-.12.88-.18,1.3.45.21.87.38,1.26.78-.49.02-.91.04-1.37.06v1.06c-.2-.19-.33-.34-.49-.46-.07-.06-.2-.09-.29-.08-.81.16-1.6.34-2.4.51-.05.01-.09.06-.14.09.08.05.13.06.18.04.71-.2,1.44-.31,2.17-.37.15-.02.27-.02.38.12.25.37.51.73.77,1.09.06.08.15.13.23.2.03-.02.05-.03.07-.05-.06-.65-.13-1.3-.2-1.94.08-.04.11-.08.15-.08Zm.99.53c-.46.05-.52.12-.52.56,0,.75,0,1.5-.01,2.25-.01.25-.05.51-.08.85-.44-.53-.82-.97-1.2-1.42-.32-.39-.64-.77-.94-1.17-.11-.13-.22-.17-.37-.16-.84.09-1.69.17-2.53.25-.03.01-.05.02-.08.02-.54.06-1.08.12-1.67.18.3-.47.79-.75,1.11-1.17.34-.45.96-.52,1.28-1.04-.73-.99-1.4-2.01-1.99-3.08.02-.03.05-.06.07-.09.18.05.37.09.55.15.4.16.79.35,1.2.49.61.2,1.23.38,1.85.54.11.03.28-.05.38-.13.35-.33.68-.69,1.04-1.02.58-.52,1.16-1.03,1.75-1.53.09-.08.21-.14.4-.25-.07.46-.11.84-.2,1.2-.17.71-.18,1.43-.24,2.14-.02.24.07.35.29.45.47.22.92.49,1.37.74.28.15.56.29.83.45.18.1.35.23.52.35-.01.04-.01.07-.02.11-.45.07-.89.16-1.33.21-.49.06-.98.07-1.46.12Z"/>
      <path class="cls-1" d="m31.74,28.91l-.19,2.41c.92.29,1.92.16,2.95-.15-.1.66-1.38,1.26-2.07,1.89l2.8,1.9-3.16-.2-.15,2.57c-.65-.3-.4-1.92-1.64-1.15l-1.61,1.08c.33-.48.27-.99.41-1.48-1.06.15-2.19.31-3.16-.2l2.3-.68c-.3-.96-1.52-1.7-2.42-2.46.59-.49,1.5.32,2.36.11l-1.09-2.32c1.41-.06.97,2.35,2.37,1.2-1.34-.7-.46-2.13-.65-3.17.74.62,1.09,1.51,1.65,2.24l1.3-1.59Z"/>
      <path class="cls-1" d="m47.65,46.51c.82.55,1.42,1.35,1.72,2.29-.73-.35-1.57-.6-2.29-.96-.53.92-1.1,1.81-1.72,2.67-.24-.77-.34-1.58-.28-2.39-.97-.19-1.93-.45-2.87-.76.88-.57,1.99-.68,2.96-.29.29-.91.04-2.46.29-3.62.68.37.7,1.39,1.24,1.91.81-.43,1.68-.75,2.57-.95-.39.8-.94,1.52-1.62,2.1Z"/>
      <path class="cls-2" d="m110.89,91.78s-.05-.02-.07-.03l.02-.02.05.05Z"/>
      <path class="cls-2" d="m110.84,91.73l-.02.02s-.03-.02-.04-.04c.02.01.04.01.06.02Z"/>
      <path class="cls-2" d="m109.06,48.73s0,.01,0,.02h0s-.01-.02-.02-.02h.02Z"/>
      <path class="cls-2" d="m108.39,23.27l1.06.81-1.07,1.16c.55-.08,1.45-.49,2.13-.34l.07.87.62-1.54,2.18.41-2.01-1.79.66-.79-1.69.09c-.16-.34.02-1.08-.62-1.05-.24.76.28,3.17-1.33,2.17Zm1.02-3.42c1.13.8,1.48,2.8,3.55,1.66l.48-.12c-2.94,1.42.64,2.32.72,3.82l-2.68-.42c-.29.83-.59,1.67-.88,2.5l-.34.08c-.3-.62.07-1.16-.29-1.76l-2.83.12,1.46-1.63c-.38-.67-1.56-.82-1.63-1.69l1.95.09c.3-.83.79-1.71.49-2.65Z"/>
      <path class="cls-2" d="m106.8,47.04c-.1-.08-.16-.21-.24-.31.89.59,1.83,1.13,2.5,2h-.02c-.75-.56-1.5-1.12-2.24-1.69Z"/>
      <path class="cls-2" d="m110.41,88.39c-.17.68-.34,1.36-.53,2.04-.09.34.01.56.3.75.22.15.4.35.6.53-.2-.07-.4-.13-.58-.23-.81-.46-.8-.46-.57-1.39.09-.38.17-.77.26-1.16-.04-.01-.08-.03-.12-.05-.61.53-1.22,1.07-1.87,1.64-.5-.24-.97-.47-1.44-.7.31.07.62.14.94.19.16.02.37.02.49-.07.51-.35,1-.72,1.47-1.1.23-.19.42-.42.65-.62.1-.09.24-.14.46-.27-.03.22-.04.33-.06.44Z"/>
      <path class="cls-2" d="m106.46,89.82s-.04-.01-.06-.01h0s.03.01.05.01Z"/>
      <path class="cls-2" d="m106.41,89.8h0s-.01,0-.01,0h.02Z"/>
      <path class="cls-2" d="m109.59,94.6c.29-.71.53-1.31.78-1.94.47.05.9.1,1.4.16-.1-.16-.14-.24-.19-.31-.11-.12-.23-.23-.34-.35s-.24-.25-.35-.38c.75.32,1.4.79,2.1,1.43-.91.11-1.66.09-2.43-.05-.49.6-.49,1.36-.71,2.11-.52-.42-.87-.91-1.2-1.42-.38-.59-.37-.58-1.03-.44-.52.11-1.05.17-1.58.24.63-.52,1.45-.53,2.21-.82.44.58.85,1.13,1.34,1.77Z"/>
      <path class="cls-2" d="m106.04,93.65s-.03.02-.04.03v-.02s.02,0,.04-.01Z"/>
      <path class="cls-2" d="m105.99,93.66v.02s0-.01-.01-.01c0,0,.01,0,.01,0Z"/>
      <path class="cls-2" d="m105.88,91.51c-.44-.77-.87-1.54-1.3-2.31-.05-.09-.07-.2-.14-.42.76.32,1.46.45,1.95,1.02-.35-.07-.71-.15-1.07-.22.08.59.34,1.27.59,1.58.12.16.25.33.35.5.35.58.3.86-.17,1.33-.15.16-.29.32-.47.51.17.07.27.12.36.17-.3.21-.62.27-1.08.21.3-.33.53-.6.77-.85.54-.57.58-.86.21-1.52Z"/>
      <path class="cls-2" d="m105.11,45.52c-.08-.57-.11-1.14-.17-1.72-.1-1.05-.21-2.1-.32-3.14,0-.07-.05-.13-.07-.19-.58.24-2.67,2.75-3.96,4.75-.17-.11-.35-.23-.52-.34,0-.01-.02-.01-.03-.02.19-.11.42-.19.55-.35,1.1-1.39,2.17-2.8,3.27-4.2.2-.26.38-.58.86-.55.03.25.06.47.08.69.17,1.63.35,3.25.51,4.88.02.28.16.46.36.62.29.23.56.48.84.72-.38-.21-.78-.39-1.13-.64-.15-.1-.25-.33-.27-.51Z"/>
      <path class="cls-2" d="m103.59,62.06c.39.53.94.93,1.22,1.58l-1.62-.52c-.06.99-.73,1.66-1.11,2.46l-.59-2.08h-2.42c.17-.69.97-.97,1.44-1.54-.48-.51-.5-1.43-1.15-1.7l-.05-.25c.56.09,1.4.16,2.04.79l1.16-1.59.41,1.86,1.97-.17-1.3,1.16Zm-1.89-.72c-.62-.12-1.06-.9-1.47-.65.1.64.77,1.01.88,1.5l-1.35.92c.73.2,1.69-.01,2.33,0l.02,1.74c.58-.69.47-1.39.84-2.19l.94.31-.87-1.04c.17-.45.64-.4.97-.58-.67-.31-1.1.61-1.71.12l.23-.41c-.26-.35.1-1-.32-.8-.36.23-.34.74-.49,1.08Z"/>
      <path class="cls-2" d="m101.52,46.43c.73-.98,1.45-1.96,2.18-2.94.29.04.41.19.41.5-.02.73-.01,1.47,0,2.2,0,.63.18,1.14.83,1.45.7.33,1.35.77,2.03,1.17-.02.33-.16.36-.45.32-.75-.11-1.5-.19-2.26-.24-.49-.04-.54.02-.61.52l-.3,2.31c-.01.08-.08.15-.15.27-.73-.42-1.02-1.18-1.58-1.8-.57.36-1.1.75-1.67,1.06-.59.3-1.21.53-1.86.81-.07-.31.1-.5.22-.71.39-.73.78-1.45,1.2-2.17.25-.43.2-.82-.06-1.22-.16-.25-.25-.54-.37-.8.39.54.77,1.08,1.15,1.62-.49.84-.96,1.64-1.43,2.44,1.17-.46,2-1.45,3.15-1.85.34.54.65,1.03.96,1.53.05-.01.1-.03.15-.04.11-.78.22-1.56.33-2.37.89.09,1.73.18,2.57.27.02-.04.05-.08.07-.12-.19-.14-.37-.28-.57-.4-.29-.18-.58-.37-.9-.5-.52-.22-.72-.58-.67-1.13.05-.48.03-.97.03-1.45-.01-.29-.05-.58-.07-.9-.61.33-1.6,1.53-2.04,2.4-1.13-.08-2.1-.87-3.37-.94.18.39.32.67.45.95-.59-.31-.71-.88-.97-1.57,1.33.36,2.39,1,3.6,1.33Z"/>
      <path class="cls-2" d="m110.86,98.66c-.1-1.35.31-2.64.41-3.96.01-.25.18-.36.43-.31.09.01.18.03.27.05,1.09.3,2.2.46,3.33.47.42,0,.85.08,1.3.13-.06-.69-.61-1.02-.88-1.52.28.23.57.46.85.69.5.42,1,.84,1.52,1.27-.19.2-.38.25-.67.18-.93-.23-1.87-.37-2.84-.41-.74-.03-1.51.04-2.23-.27-.28-.12-.68.15-.7.47-.07,1.19-.11,2.37-.17,3.56-.03.5-.05,1.01-.13,1.5-.03.21-.2.38-.36.67-.32-.53-.61-.94-.84-1.38-.59-1.11-1.15-2.24-1.73-3.36-.16-.3-.33-.61-.54-.87-.09-.12-.3-.17-.46-.19-.55-.05-1.09-.1-1.64-.11-.82-.01-1.65.03-2.47,0-1.51-.05-3.02.21-4.52-.11-.16-.03-.35.07-.53.08-.1,0-.19-.04-.44-.1.7-.5,1.46-.5,2.03-.88.62-.42,1.31-.64,2-.88.67-.24,1.29-.58,1.96-.88,0-.69-.38-1.26-.66-1.85-.48-1.01-1.05-1.98-1.52-3-.33-.72-.55-1.49-.86-2.34.25.04.36.04.46.08.71.29,1.42.61,2.15.89.91.35,1.86.63,2.76,1.04.68.31,1.26.13,1.8-.19,1.84-1.08,3.65-2.2,5.48-3.3.15-.09.32-.16.57-.29-.03.22-.01.37-.06.5-.6,1.56-1.2,3.12-1.81,4.68-.25.65-.24.67.24,1.12.47.44.9.92,1.34,1.37.41.41.84.79,1.21,1.22.29.32.51.69.76,1.04-1.07-1.04-2.13-2.08-3.2-3.12-.19-.19-.36-.42-.58-.58-.34-.25-.32-.52-.17-.85.3-.67.62-1.33.89-2.01.31-.81.57-1.65.85-2.47.02-.08,0-.17-.02-.33-.8.49-1.6.9-2.31,1.43-1.3.97-2.78,1.6-4.22,2.31-.12.07-.32.08-.45.02-.91-.39-1.79-.82-2.7-1.2-.77-.33-1.56-.61-2.45-.95.03.27.02.43.08.55.33.68.68,1.35,1.01,2.03.5,1.03.98,2.06,1.48,3.09.16.34.36.67.59,1.08-.78.64-1.83.8-2.73,1.28-.87.47-1.83.8-2.73,1.32.49,0,.97,0,1.46,0,.82.01,1.65.03,2.47.04.16,0,.31-.04.47-.04.82,0,1.65.01,2.47,0,.39,0,.78-.05,1.16-.09.29-.03.58-.1.81-.14.94,1.79,1.84,3.52,2.81,5.36.28-.58.23-1.08.2-1.55Z"/>
      <path class="cls-2" d="m104.93,51.07c-.23,1.45-.57,2.9-.46,4.39,0,.1-.03.21-.07.44-1.02-1.11-1.89-2.18-2.63-3.33-2.65.51-5,1.73-7.5,2.58-.14-.51.12-.89.34-1.19,1.04-1.48,1.63-3.2,2.52-4.75.52-.89.52-1.65.07-2.57-.52-1.07-.86-2.24-1.26-3.36-.06-.16-.07-.34-.13-.65.48.25.83.44,1.18.62.8.4,1.61.78,2.41,1.18.23.11.43.28.64.43.01,0,.02,0,.03.02-1.2-.49-2.4-.98-3.6-1.46-.04.03-.08.07-.12.11.18.51.37,1.01.55,1.52.2.56.38,1.13.59,1.69.14.37.31.72.49,1.07.23.44.21.81-.1,1.26-1.03,1.5-1.83,3.13-2.62,4.77-.09.18-.14.38-.22.64.41-.01.73-.13,1.06-.28,1.18-.51,2.37-1.02,3.57-1.48.72-.28,1.49-.46,2.2-.68.99.79,1.41,1.94,2.19,3.04.22-1.85.42-3.53.62-5.3,1.9.13,3.78.25,5.71.38-.3-.58-.94-.88-1.33-1.41h0s0,0,0-.02c.1.04.22.04.3.11.6.47,1.18.95,1.77,1.43.04.04.06.11.15.27-.34-.07-.59-.18-.84-.18-.73-.01-1.46.03-2.2.02-.75-.01-1.51-.02-2.27-.09-.8-.07-.91-.02-1.04.78Z"/>
      <path class="cls-1" d="m95.86,35.35l.47.72c-.91-.42-.65.76-.91,1.23-.18-.37-.01-.67,0-1.03-.54-.55-.63.45-1.15.41l.34-.95-.82-.44c.27,0,.55.03.85-.08l-.09-1.43c.24-.15.05.87.53.97.2-.35.16-.96.65-1.02.32.03-.69,2.26.56,1.11l-.43.51Z"/>
      <path class="cls-2" d="m93.42,31.15c.47-.36.95.77.36.8-.17.03-.42.14-.44-.16-.09-.19-.1-.45.08-.64Z"/>
      <path class="cls-2" d="m93.83,30.08c.05.25.21.73-.18.66l-.3.07-.13-.59.61-.14Z"/>
      <path class="cls-2" d="m93.3,28.71c.36.18.59.59.43.93-.33.13-.84.13-.74-.45l.31-.48Z"/>
      <path class="cls-2" d="m92.86,27.72c.52-.52.83.49.53.76-.26.06-.55.02-.61-.28-.13-.17.02-.31.08-.48Z"/>
      <path class="cls-2" d="m92.68,35.28c-.09.1.42.88-.21.66l-.11-.08.32-.58Z"/>
      <path class="cls-2" d="m94.55,33.78l.09,1.43c-.3.11-.58.07-.85.08l.82.44-.34.95c.52.04.61-.96,1.15-.41-.01.36-.18.66,0,1.03.26-.47,0-1.65.91-1.23l-.47-.72.43-.51c-1.25,1.15-.24-1.08-.56-1.11-.49.06-.45.67-.65,1.02-.48-.1-.29-1.12-.53-.97Zm-.53,2.18c-.44-.37-.9-.58-1.33-.69-.14-.02-.18-.16-.21-.31.66.11,1-.22,1.62-.1.1-.59.49-1.75-.47-1.75.13-.23-.05-.4.19-.56.42.22,1.18.57,1.36,1.2.36-.24.46-.82,1.03-.74-.12.49,0,.98-.23,1.44l1.52.28-1.17.72c.34.29.39.74.76.97-1.09-.43-1.26.89-1.59,1.68-.42-.06-.36-.79-.5-1.22-.6-.23-.79.53-1.27.64l.29-1.56Z"/>
      <path class="cls-2" d="m91.38,34.94c.19.01.49.15.41.43l-.52.11c-.1-.23.06-.37.11-.54Z"/>
      <path class="cls-2" d="m92.79,21.82c-.38-.69.6-1.01.38-1.83l-.96.21c.14-.39.23-.82.17-1.28-.41-.21-.89-.31-1.25-.7,1.1.02,1.21-1.14,1.27-2.13l.07-.12c.38.9.98.1,1.39-.3l.37,1.25c.45-.04.93-.56,1.37-.19.08.55-.49,1.08-.87,1.42.27.2.51.46.57.75-1.13-.37-.78.79-1.09,1.48-.69.2-.27-1.64-.92-.68.71.77-.37,2.09.91,1.66l-.46,1.23c.28.66,1.15-.15,1.34.68.16.12.4-.03.57.13l-1.47.79.28,1.69c-.42-.06-1.07-.9-1.23.01l-.23.41c.29.3.5.2.6.64l-.28.42c-.62-.32-1.14-.62-1.28-1.46-.52.11-1.02.32-1.5.22l.5-1.24c-.5-.2-1.06-.28-1.55-.64.37-.39,1.64-.61,1.04-1.72-.03-.3-.24-.66-.12-.95l1.12.53c.06-.53.48-.93.83-1.21l.18.83c.09-.02.14.02.25.1Zm.13-3.37l-.2,1.17,1.09-.65.11.49.22-.05-.08-.34c-.24-.46.32-.43.54-.48l-.28-.19.59-1.27-1.01.38-.32-1.06c-.39.14-.21.71-.59.85l-.35-.54c-.05.63-.03,1.75-.6,1.62.27.2.61-.13.88.07Zm-1.29,6.2l-.62,1.11c.54-.01.88-.35,1.3-.54l.38,1.15c.45-.66.47-2.06,1.37-1.28-.7-.87,0-1.23.6-1.62-.52-.09-1.1-.22-1.45-.77.11-.33.42-.6.43-.96-.41.19-.77.42-1.19.62-.29-.09-.31-.4-.37-.64-.27.42-.66,1.12-1.33.39.28.61-.03,1.3.56,1.48l-1.17.67,1.49.39Z"/>
      <path class="cls-2" d="m90.54,34.66c.29.05.49.36.52.71-.25.11-.5.01-.72-.2-.05-.19.15-.34.2-.51Z"/>
      <path class="cls-2" d="m89.72,35.31c-.32-.03-.44-.37-.28-.66l.44-.1c.07.35.24.67-.16.76Z"/>
      <path class="cls-2" d="m89.1,34.98c-.4.24-.71-.15-1.07.08l.36,1.67c-1.13-1.19-1.82.25-2.39,1.15-.29-.46.05-1.2.15-1.79-.41-.22-1.11-.06-1.66-.09l.99-1.1c-.37-.43-.42-1.09-.72-1.59.99.55,1.4-.1,1.66-.98l.11-.13.42,1.5,1.16-.76-.4,1.32c.45.36,1.12.32,1.39.72Zm-3.82.69c.35-.08.72-.06.94-.31.66.31.07.96.09,1.47.23-.41.4-.91.75-1.19l1.04.8c-.39-.95-1.14-1.86-.79-2.56l-.53.48c-.59-.18-.06-.66-.37-1.05l-.23.82-.85-.33c.09.19.02.51.22.57,1.05.44-.09.85-.27,1.3Z"/>
      <path class="cls-2" d="m84.21,33.69c0,.36.34.75-.02.98-.16.09-.52.11-.46-.26-.28-.45.23-.82.48-.72Z"/>
      <path class="cls-2" d="m82.67,33.15c.03-.31.42-.4.61-.13,0,.2.2.47.05.61-.46.4-.36-.39-.66-.48Z"/>
      <path class="cls-2" d="m86.61,70.3c.04-.21.1-.41.14-.62.06-.25.1-.5.15-.74-.02-.02-.05-.03-.08-.04-.31.36-.61.72-.9,1.07-.73-.31-1.42-.6-2.1-.89.21.36.45.66.72.93.28.27.59.52.95.83-.48.34-.91.65-1.34.95,0,.05.02.11.03.16.48.1.95.21,1.43.29.36.06.44.13.44.51.01.17-.05.34.1.52.22-.33.42-.62.61-.93.18-.29.39-.38.74-.27.29.09.6.23.95.12-.31-.34-.96-.81-1.38-1-.55-.25-.59-.31-.46-.89Zm.64-2.01c-.14.8-.27,1.6-.4,2.33.57.42,1.08.8,1.59,1.16.16.11.36.16.51.28.13.11.21.28.36.49-.18.01-.31.04-.44.02-.42-.07-.84-.14-1.25-.23-.32-.06-.57-.03-.73.3-.18.35-.38.68-.57,1.02-.08.15-.17.29-.25.43-.26-.09-.2-.26-.21-.4q-.1-1.09-1.16-1.38c-.36-.1-.72-.19-1.08-.3-.12-.03-.22-.12-.4-.23.66-.31,1.29-.53,1.8-.99-.75-.81-1.48-1.61-2.24-2.43.1-.07.17-.14.2-.13.28.11.58.22.84.37.64.35,1.26.73,1.86,1.09.64-.39.86-1.12,1.45-1.47.04.02.08.05.12.07Z"/>
      <path class="cls-2" d="m81.78,21.61c.07-.11.43-.76.59-.23.08.14.05.4-.14.39-.15.14-.28-.04-.45-.16Z"/>
      <path class="cls-2" d="m86.74,93.85c-.64-.01-.73.42-1.02.74-.9-.57.44-1.33-.25-1.95l-1.31.91c-.3-.14-.48-.36-.48-.77-.44.5-.08,1.3-.67,1.53l-.9-.57.85,1.82-1.44.93,2.09.16.05,1.69c.42-.4.68-1.08,1.1-1.48.5.2.6.69.91,1.04l.09-2.08,1.12.11-1.19-.87,1.05-1.21Zm.72-.26l-1.03,1.31,1.5,1.42-1.95.07c.07.75.19,1.71-.31,2.13-.34-.29-.55-1.48-1.14-.83-.33.58-.59,1.26-1.26,1.35l.03-1.96c-.79-.45-1.68.06-2.46-.18.29-.73,1.12-1.12,1.49-1.72-.11-.04-.44-.98-.44-.98l-.27-.82c.27-.42.95.21,1.28.44.45-.66.22-1.49.85-2.14l.37,1.26,1.69-.84.25,1.54,1.4-.05Z"/>
      <path class="cls-2" d="m85.32,22.33l-.22.05.02.09c-.72-.2.25-.77.19-1.22l-.73.62-1.29-1.31c-.15.14-.02.32.02.51.86.79-.56,1-.48,1.34.4-.24.75.1,1.15-.15l.14,1.46c-.08-.93.46-1.12,1-1.25.08-.01.15-.03.22-.04l-.02-.1Zm-2.22-.75l-.16-1.56c.79.03,1.11.89,1.63,1.39l1.57-.96-.76,1.51.88.68c-.28.21-1.04.48-1.47.17l-.72,1.75c-.57-.34-.3-1.38-.4-1.87-.78.02-1.64-.36-2.32.05l-.23-.21.28-.58c.59,1.01,1.13-.24,1.7-.37Z"/>
      <path class="cls-2" d="m85.47,76.92c.68-1.01,1.14-2.12,1.67-3.21.23-.46.43-.78,1-.62.09.02.2-.01.3-.01h2.49s.04-.09.06-.13c-.22-.18-.43-.38-.65-.55-.85-.64-1.58-1.43-2.52-1.94-.29-.16-.32-.34-.22-.66.05-.18.09-.35.12-.53.1-.5.2-.99.29-1.49.11-.7.21-1.4.33-2.22-1.18,1-2.27,1.92-3.33,2.82-.69-.22-1.31-.44-1.94-.61-.61-.16-1.18-.54-1.97-.49.41.64.77,1.22,1.14,1.79.37.56.75,1.12,1.17,1.76-1.01.05-1.94.12-2.91.48,1.49.8,3.01,1.23,4.49,1.72-.17,1.44.07,2.78.23,4.22.12-.16.19-.24.25-.33Zm6.52-3.16c-.38-.17-.79-.19-1.2-.18-.84.04-1.66-.03-2.49-.16-.15-.02-.29-.03-.44-.03-.19-.01-.31.07-.37.25-.35,1.09-1.11,1.96-1.58,2.98-.23.5-.43,1.02-.66,1.52-.03.09-.1.16-.16.25l-.09-.03c-.03-.23-.09-.47-.08-.7.01-1.32-.25-2.6-.4-3.9-.03-.3-.17-.48-.45-.55-.75-.21-1.41-.58-2.09-.96-.33-.19-.73-.26-1.09-.42-.45-.2-.89-.43-1.43-.7.56-.34,1.1-.21,1.59-.33.5-.13,1.02-.15,1.62-.22-.67-1.23-1.48-2.31-1.84-3.68.17.03.3.03.41.07,1.14.35,2.28.71,3.41,1.08.17.05.28.01.4-.09l2.22-1.92c.43-.36.86-.71,1.29-1.05.05-.04.12-.04.22-.07-.05.33-.1.61-.15.89-.12.76-.15,1.52-.38,2.26-.16.5-.18,1.03-.28,1.54-.04.24.01.4.2.55,1.09.88,2.17,1.78,3.25,2.67.18.15.31.35.57.44.13.04.19.27.32.48-.15.01-.25.04-.32.01Z"/>
      <path class="cls-2" d="m80.28,31.21c.03,1.38,1.76-.13,1.28,1.46.32,0,.73-.41.84.28-.03.27-.02.52-.35.49-.13-1.41-1.09.03-1.42-1.07-.51-.05-.73-.41-1.23-.61.05-.37.56-.38.88-.55Z"/>
      <path class="cls-2" d="m81,23.64c-.23.2-.47-.05-.69-.21-.22-.36.12-.49.31-.69.39.12.27.61.38.9Z"/>
      <path class="cls-2" d="m80.5,95.01c-.14-.44.22-.87.64-.61.01.26.16.53-.07.74-.2.09-.39.08-.57-.13Z"/>
      <path class="cls-2" d="m79.48,23.61c.33-.17.3.09.47.26-.07.32.05.66-.21.92-.24-.05-.46-.21-.63-.38.07-.32-.02-.71.37-.8Z"/>
      <path class="cls-2" d="m79.65,94.32c-.25.11-.56.38-.83.18-.15-.27-.03-.55.18-.65l.65.47Z"/>
      <path class="cls-2" d="m79.52,31.27c-.86.45-.96-.61-1.43-.92.08-.22.23-.36.46-.36-.11,1.16,1.2.05.97,1.28Z"/>
      <path class="cls-2" d="m77.59,25.62c.42-.19,1.46-1.71,1.43-.16-.32.23-.59-.18-.9.05l.07.75c-.33-.03-.8-.13-.6-.64Z"/>
      <path class="cls-2" d="m77.69,30.44c-.53-.14-.36-1.47.15-.81l-.15.81Z"/>
      <path class="cls-2" d="m76.48,29.47l-.6-1.26c.04-.19.14-.41.26-.6.11-.08.21-.18.31-.35-.12.09-.22.22-.31.35-.56.44-1.2-.23-1.89-.38l.07.34c.2.39.37,1.08.32,1.19h-.06s.05.02.06,0l.37.05c-.06.58-.06,1.2-.26,1.76l.23-.41c.16-1.17.81-.49,1.5-.69Zm.72-3.15c-.05,1.04-1.52,1.42-.7,2.63l.6.85c-.77.27-1.72-.35-2.08.97l-.5.83c-.33-.7.08-1.51.19-2.26-.4-.37-1.1.19-1.58-.11,1.22-.27.93-1.6.68-2.52,1.26.75,2.39.66,3.39-.39Z"/>
      <path class="cls-2" d="m77.77,94.88l-1.07-.86,1.03-.91-1.24.31c-.08-.57.41-1.3.85-1.73l-1.28.93-1.28-1.2.44,1.71c-.67.29-1.01.97-1.56,1.47l1.8-.27v1.55c.24-.5.78-.69.87-1.35l1.44.35Zm.92.6c-.36-.18-1.58-.62-2.22-.42-.3.59-.65,1.05-1.2,1.39-.54-.35-.1-1.05-.1-1.58-.55-.2-1.39.31-2.04.29.07-1.07,1.71-1.63,1.43-2.71.02-.04-.04-1.52-.05-1.58h0c.52.3,1.04.66,1.46,1.08l2.24-1.12-1.11,1.79,1.52.27-1.24,1.21c.41.47,1.17.85,1.31,1.38Z"/>
      <path class="cls-2" d="m78.57,50.21c.23.62-.79,1.97.31,1.78l1.88.05-1.96,1.05,1.27,1.83c-.7.36-1.99-.74-2.01.44-.09.43.11.91.21,1.35-.47.15-.46-.83-1-1.02-.29.58-.12,1.36-.48,1.8l-.68-2.06c-.7.57-1.82.66-2.68.69l1.36-1.74c-.84-.48-1.31-1.15-1.83-1.86l1.3-.13c-.36-.8-.16-1.77-.03-2.62.66.11.7,1.08,1.28,1.47.67-.71.81-1.72,1.62-2.21-.27.63.17,1.41-.25,2.01l1.69-.83Zm-1.91-.2l-1.02,1.82c-.56-.29-.92-1.29-1.16-1.34-.57.74.34,1.57.27,2.26-.37-.03-.79.17-1.18.05.24.87,1.28.85,1.76,1.57-.46.41-.78.99-1.24,1.4l2.38-.78.26,1.18.27-1.29.76.55.08-1.1c.47.31,1.04-.02,1.48.29-.24-.66-1.1-1.04-1.03-1.78.46-.15.9-.25,1.29-.54-.77-.6-1.7.99-2.24-.23.79.09.7-.97.81-1.31l-1.26,1.15c-.79-.49.15-1.21-.23-1.9Z"/>
      <path class="cls-2" d="m73.34,92.22c-.2.05-.74.38-.87-.12.15-.15.04-.6.4-.46.58.17.35.78,1.07.72l-.19.51c-.46,0-.42-.36-.41-.65Z"/>
      <path class="cls-2" d="m71.94,91.78c-.27-.14-.6-.47-.21-.65.13-.11.31.03.43.08.25.18.09.61-.22.57Z"/>
      <path class="cls-2" d="m70.69,90.45c.37.1.52.57.13.75-.19-.11-.46-.13-.5-.39.03-.19.12-.32.37-.36Z"/>
      <path class="cls-2" d="m73.93,114.89c.3.36.63.68.95,1.02.05-.03.1-.05.15-.08-.03-.26-.04-.53-.09-.79-.06-.33-.16-.67-.23-1-.1-.47-.02-.56.45-.62.46-.05.92-.09,1.37-.15.14-.02.26-.09.39-.14,0-.05,0-.1-.01-.16-.65-.09-1.3-.18-1.99-.27-.51-.82-1.06-1.67-1.64-2.59-.2.87-.35,1.61-.52,2.34-.08.35-.23.41-.54.25-.43-.22-.86-.44-1.28-.66-.05.02-.1.05-.14.08.03.17.05.35.11.51.21.5.44,1.01.67,1.5.14.3.21.55-.08.81-.15.15-.29.34-.19.62.64-.31,1.24-.59,1.84-.87.41-.2.47-.17.78.2Zm-.21-5.2c.26.82.76,1.52,1.2,2.24.21.35.52.55.95.59.75.09,1.5.22,2.42.36-.22.18-.31.31-.43.33-.76.18-1.53.34-2.29.5-.09.02-.17.05-.3.08-.02,1.03.43,2.01.29,3.19-.26-.16-.44-.24-.57-.36-.47-.44-.94-.89-1.38-1.36-.22-.23-.45-.22-.69-.1-.73.39-1.46.77-2.18,1.19-.26.15-.47.28-.78-.01.14-.18.28-.36.42-.53.15-.17.31-.34.47-.5.44-.46.49-.92.19-1.5-.39-.75-.67-1.55-1.02-2.38.89.01,1.49.65,2.29.86.27-.5.39-1.05.47-1.62.04-.32.06-.64.14-.95.06-.23.19-.43.37-.81.2.36.36.55.43.78Z"/>
      <path class="cls-2" d="m73.63,56.59l-.03,1.35,1.6-.2-.34.95c.12.54,1.09.38,1.36.78l-1.6.61.41,1.87c-.49-.15-.95-.62-1.43-.92l-.77,1.91-1.05-1.26c-.55.43-1.17.72-1.89.78l.51-2.07-1.31-.95c.28-.62,1.05-.23,1.57-.34l.44-1.95.98.92c.44-.51.72-1.5,1.55-1.48Zm-.35,1.93l-.07-1.32-1.12,1.33-.86-.79-.08,1.51-1.48.32,1.25.71-.71,1.75c.83.02,1.28-.59,1.91-.88l.58,1.21.8-1.78,1.08.75c-.07-.5-.27-.82-.61-1.11.25-.72.88-.34,1.37-.81l-.98.11c-.84-.48.25-.72.27-1.29l-1.35.29Z"/>
      <path class="cls-2" d="m69.79,54.09s-.09.06-.13.06l.13-.06Z"/>
      <path class="cls-2" d="m80.98,112.86c-1.67-.79-3.42-1.36-5.22-1.77-.13-.03-.27-.13-.37-.23-.26-.25-.32-.57-.37-.93-.15-1.33-.35-2.65-.54-3.97-.01-.12-.09-.23-.2-.48-.18.33-.3.54-.41.75-.14.27-.25.55-.42.79-.55.78-.98,1.61-1.27,2.52-.15.45-.31.9-.49,1.41-1.17-.62-2.28-1.2-3.48-1.84.03.21.02.31.06.38.6,1.24,1.2,2.48,1.83,3.71.4.79.38,1.01-.29,1.59-.47.41-.95.8-1.42,1.21-.49.44-.95.91-1.3,1.59.55-.08,1-.15,1.45-.21,1.68-.19,3.4-.13,5-.8,1.22.91,1.92,2.37,3.44,3.04,0-.21.02-.34,0-.46-.26-1.24-.52-2.48-.79-3.71-.13-.6-.1-.65.49-.8.36-.1.72-.2,1.06-.33,1.01-.37,2.02-.76,3.03-1.15.11-.05.19-.14.29-.22-.05-.06-.06-.08-.08-.09Zm.9.09c-.3.14-.59.29-.9.41-1.25.51-2.51,1.02-3.77,1.51-.33.13-.41.33-.35.65.23,1.21.46,2.43.7,3.64.13.68.27,1.36.38,2.04.02.1-.07.23-.12.34-.1-.06-.24-.1-.32-.19-.37-.44-.71-.91-1.09-1.33-.36-.39-.76-.73-1.14-1.1-.54-.53-1.09-1.05-1.62-1.59-.17-.18-.34-.33-.6-.25-1.08.36-2.22.35-3.34.49-.5.07-.99.22-1.48.31-.66.11-1.32.2-1.98.29-.07.01-.16-.06-.29-.11.11-.14.18-.25.27-.34.86-.84,1.72-1.68,2.58-2.5.58-.55.58-.54.24-1.29-.42-.97-.87-1.93-1.25-2.91-.28-.7-.48-1.44-.69-2.16-.11-.4.11-.62.48-.46.69.3,1.37.63,2.05.96.57.28,1.14.58,1.71.87.57-1.09,1.09-2.13,1.63-3.16.51-.99,1.03-1.99,1.54-2.98l.15.03c.04.29.09.57.13.85.21,1.64.43,3.29.64,4.93.05.39.24.58.62.71.96.31,1.9.67,2.85,1.02.84.31,1.67.64,2.5.96.15.05.29.12.44.18l.03.18Z"/>
      <path class="cls-2" d="m69.66,54.15s.08-.02.13-.06l-.13.06Zm0,0c-.16,0-.3-.24-.46-.29.29-.37.33-.79.5-1.24l-1.04.85c-.36-.18-.25-.72-.53-.97l-.32,1.05c-.37-.23-.66-.52-.85-.94l.16.73c.17,1.2-.99.48-1.49.69l1,1.02-.55.63.31-.07c.95-.46,1.31.59,1.81,1.2l.49-1.34c.29.09.72.4.88.06l-.48-1.13.57-.25Zm-2.9-.99c-.19-.47-.05-.86-.1-1.31l.91,1.03.68-1.28.47,1.13c.46-.2.77-.68,1.41-.67.14.44-.32,1.05-.43,1.59.37.23.94.31,1.17.72l-1.18.26.25,1.54c-.32.02-.59-.18-.91-.16-.37.18-.59,1.06-.73,1.65-.4-1.81-1.9-1.59-3.13-1.78l.78-.79-.95-1.44c.57-.12,1.53.34,1.76-.49Z"/>
      <path class="cls-2" d="m69.5,87.15c-.15.1-.46,1.26-.46,1.26.71-.16,1.04.23,1.86.5-.27.51-1.16.86-1.85,1.08l.71,2.11-1.85-.76c-.43.52-.89,1.3-1.63,1.56.02-.58.49-1.23-.09-1.69-.82-.18-2.05.2-2.45-.63.45-.16,1-.19,1.33-.52-.28-.56-1.15-.92-1.19-1.63.6-.03,1.33.42,1.81-.1-.09-.62-.36-1.14-.45-1.81.65-.12.74.59,1.25.79l1.14-1.22c.42.2.3.92.17,1.28l1.7-.22Zm-3.87.02l.68,1.44-1.8.32,1.43,1.31-1.33.52,2.06-.02.08,1.51c.58-.38.65-.97,1.03-1.43l1.6.76-.94-1.56,1.76-1.07c-.52-.38-.96-.09-1.47-.15-.12-.49.11-.85.19-1.26-.45.07-.79.35-1.18.6-.47-.29-.2-.89-.32-1.28l-.81.89-.98-.58Z"/>
      <path class="cls-2" d="m63.93,59.86c.41.46,1.17,1.13.95,1.7.44-.99.83.12,1.38.36l-.37-.64.79-.33-.7-.31.17-.65c-.89.29-.73-1.03-1.27-1.22.12.54.13,1,.23,1.45l-1.18-.36Zm2.6.4c.28.25.72.77,1.09,1-.1.59-.52.11-.83.18l-.12-.13c-.01.57-.18.86.18,1.45-.81-.79-1.92-1.27-2.66-.28-.21-.32.24-.78.38-1.17l-1.41-2.06,1.33.23.34-1.57,1.02,1.73,1.54-.44-.86,1.06Z"/>
      <path class="cls-2" d="m61.3,52.87l1.02-.33-.66-.11c-.16-.33.15-.55.24-.77l-.81.28c-.01-.26-.13-.39-.21-.57-.25.51-.88.34-1.52.59.35.33.73.4,1.1.63l-.89.92c.65-.15,1.47-.38,1.89.1l-.16-.74Zm1.32-1.89l-.4,1.07,1.08.38c-.19.56-1.12.3-1.49.69-.05.58-.08,1.09-.09,1.66-.64-.01-.37-1.87-1.42-1.07l-1.51.22.81-1.31-1.02-1.11,1.8.07c.35-.49,0-1.44.58-1.72-.04.47.04,1.22.46,1.49.38-.34.83-.18,1.2-.37Z"/>
      <path class="cls-2" d="m62.65,27.75c.42,1.18.71,2.42.84,3.67,1.5-.3,3.17-1.21,4.6-1.07-.55,1.1-1.3,2.09-2.23,2.91,1.21,1.31,2.31,2.72,3.3,4.21-.43.3-.84-.2-1.15-.46-1.1-.31-2.13-.8-3.07-1.46-.44,1.11-1,2.17-1.68,3.15-.19.67-.3,1.43-1.07,1.53-.4-1.22.12-3.13-.16-4.29-1.05.11-2.19.56-3.21.46-.61.28-1.84.93-2.45.46.17-.59.8-.87,1.22-1.23.44-.37.9-.74,1.3-1.15-.26-1.69-1.22-3.45-.99-5.13,1.11.12,2.19.4,3.21.84.41-.82.68-1.77,1.15-2.52.22-.07.2.1.39.08Z"/>
      <path class="cls-2" d="m56.18,88.45c.52,0,.99.45.44.92-.17-.17-.35-.26-.54-.28l.1-.64Z"/>
      <path class="cls-2" d="m56.15,87.24c0,.26.16.53-.07.74-.2.1-.39.09-.57-.13-.14-.43.22-.87.64-.61Z"/>
      <path class="cls-2" d="m55.93,90.38c.44-.25.83.69.31.81-.17.04-.39-.12-.39-.33-.13-.18.02-.31.08-.48Z"/>
      <path class="cls-2" d="m55.53,93.56c.39-.71.99.35.62.74-.21-.11-.43-.07-.61-.28v-.46Z"/>
      <path class="cls-2" d="m55.99,82.94c-.09.22-.33.17-.5.21-.26-.15-.29-.37-.16-.62l.17-.32.28-.21c.37.23.18.58.21.94Z"/>
      <path class="cls-2" d="m55.32,85.94c.01-.37.53-.48.69-.16.03.36-.08.89-.5.63-.2-.06-.16-.33-.19-.47Z"/>
      <path class="cls-2" d="m55.43,92.09c-.19-.27.15-.4.2-.56.39-.09.77.6.43.93-.3.07-.48-.1-.63-.37Z"/>
      <path class="cls-2" d="m55.56,84.13c.17.17.84.49.43.94-.24-.05-.61.34-.71-.11-.19-.67.55-.84.04-1.5l.61-.13c.28.45-.09.64-.37.8Z"/>
      <path class="cls-2" d="m54.14,93.71c.78.19.39,1.15-.12.9-.27-.2-.28-.87.12-.9Z"/>
      <path class="cls-2" d="m57.3,99.96l-.28-1.69,1.21-.52c-.53.06-1.23-.61-1.61.15-.61-.49.14-1.22,0-1.86l-1.18,1.09-.56-1.12.2,1.97c-.5-.2-.91.2-1.02.32l1.61.27-.21,1.54.68-1.28c.6.22.68.82,1.16,1.13Zm-2.23.85c-.46-.62,1.04-2.13-.47-2.11-.55-.03-1.07-.33-1.64-.41.59-.64,2.37-.21,1.67-1.96-.12-.54-.68-1.04-.1-1.47.57.08.64,1.04.98,1.53.3.14.49-.38.7-.65.19-.02.34-.09.46-.19.07.03.18.01.37-.11.09.44-.17,1.11-.28,1.65l2.11.67c-.24.36-.83.6-1.36.66-.13.65.41,1.46.09,2.09-.52.12-.8-.75-1.2-1.12l-1.33,1.42Z"/>
      <path class="cls-2" d="m53.98,93.38c-.17.04-.42.15-.49-.15l-.07-.34.65-.15c.01.26.23.62-.09.64Z"/>
      <path class="cls-2" d="m54.09,83.48c-.28.16-.33-.03-.47-.26l.4-.7c.39.11.34.74.07.96Z"/>
      <path class="cls-2" d="m53.77,84.94c-.16.08-.25-.1-.36-.18l-.07-.35.57-.28c.08.35.24.67-.14.81Z"/>
      <path class="cls-2" d="m53.19,85.42c.64-.24.59.8.19.84l-.31.07c-.33-.29-.12-.75.12-.91Z"/>
      <path class="cls-2" d="m59.51,80.07l-2.03-.07-.02,2.38-1.03-1.37-.48-.46s-.11.09-.41.57l-.68.51c-.42.14-.93.49-1.32.37l.95-1.7-2.12-1.13c.32-.63,1.11-.14,1.68-.47l-.36-2.65,1.27.8.98-2.42c.54.6-.01,1.18.17,1.81l1.65-.62-.22,1.54,2.04-.09-1.58,1.74c.38.48,1.09.79,1.51,1.26Zm-2.37-1.23c.66-.3,1.23-.83,1.8-1.37l-1.57.35c-.5-.41-.03-1.18.04-1.71-.57.12-.96.62-1.44.93-.46-.2-.06-1.27-.26-1.17l-.5,1.7-1.28-.85.77,2.04-1.62.51,2.01.64c-.09.43-.47.98-.7,1.39.6.02.94-.31,1.2-.98.88-.76,1.02.9,1.5.8l.12-1.52,1.3.08-1.37-.84Z"/>
      <path class="cls-2" d="m54.01,89.57l.89-.56-1.08.09c-.61-.28.07-.89-.23-1.44l-.74,1.18c-.33-.23-.5-1.02-.63-.99.09.39-.29.99.26,1.18-.2.56-1.17.31-1.63.72l1.68.14c.27.41-.52,1.15-.08,1.51l.95-1.08,1.31.33-.7-1.08Zm-.42,1.13c-.57.95-.6.81-1.53,1.41-.3-.51.03-1.09.04-1.66l-1.96-.65c.43-.92,2.53-.09,1.75-1.98-.06-.3-.22-.62-.09-.85.67-.05.75,1.58,1.27.8.37-.5.76-.71.98-.94.01.5.12,1.23.14,1.78.15-.11,1.38.37,1.55.37,0,0-.79.43-1.15.72l.83,1.52c-.64-.18-1.25-.19-1.83-.52Z"/>
      <path class="cls-2" d="m54.15,108.06l1.05,1.47c-.33.18-1.09.03-1.59-.37l-1.47,1.82.15-1.79c-.65-.47-1.52.54-2.23.23l1.1-1.83c-.04-.34-.18-.59-.35-.82.06-.04-.42-.68-.36-.73.09-.09,1.3.7,1.3.7.54-.48.67-1.54,1.35-1.79l.41,1.86,1.8.12-1.16,1.13Zm-.93-.67l-.39-1.77-.16.3c-.4.86-.83,1.62-1.53.95l.62.95c-.41.39-1.01.58-1.13,1.27.85-.08,1.12-.5,1.84-.56.38.49-.22,1.08-.06,1.61l.96-1.44c.32.39.88.47,1.07.28l-.98-.92c.32-.43.96-.42,1.22-.89l-1.46.22Z"/>
      <path class="cls-2" d="m48.9,61.58c1.07-.13,1.28.85,1.26,1.58l.59-1.27.83,1.31v-1.49c.29-.11.82.03,1.18,0-.07-.76-.91-.62-1.23-1.22.23-.41.79-.38,1.01-.84l-1.57.34c-.34-.69.1-1.2-.19-1.91-.34.54-.73,1.24-.66,2l-1.16-.72c-.09.63.27,1.43.6,1.71l-.66.51Zm1.93,1.33c-.34.33-.57.94-1.04,1.05-.37-.64.5-1.86-.54-1.84-.5-.17-1.14-.37-1.23-.6.2-.31.69-.16.9-.46l-.27-2.26,1.23.61c.21-.72.42-1.64,1.05-2.08l.27,2.25,2.34-.36-1.36,1.28c.64.43.93,1.13,1.37,1.66l-1.45-.15-.33,2.03-.94-1.13Z"/>
      <path class="cls-2" d="m49.21,20.61c.46-.02.88-.04,1.37-.06-.39-.4-.81-.57-1.26-.78.06-.42.11-.83.18-1.3-.8.17-1.27.77-1.89,1.19-.61-.29-1.24-.59-1.93-.91.06.23.1.4.14.57-.31-.37-.62-.76-.93-1.13,1,.22,1.78.88,2.8,1.2.67-.53,1.48-1,2.13-1.76.05.31.04.56-.04.82-.08.3-.15.61-.22.92-.06.22,0,.38.24.48.39.17.77.38,1.15.57.07.04.14.08.21.13-.04.26-.2.2-.36.2-.38-.02-.77,0-1.16,0-.04,0-.07.04-.15.08.07.64.14,1.29.2,1.94-.02.02-.04.03-.07.05-.08-.07-.17-.12-.23-.2-.26-.36-.52-.72-.77-1.09-.11-.14-.23-.14-.38-.12-.73.06-1.46.17-2.17.37-.05.02-.1.01-.18-.04.05-.03.09-.08.14-.09.8-.17,1.59-.35,2.4-.51.09-.01.22.02.29.08.16.12.29.27.49.46v-1.06Z"/>
      <path class="cls-2" d="m45.85,19.35h0s-.02.01-.02.01v-.02s.02.01.02.01Z"/>
      <path class="cls-2" d="m45.82,19.32l.02.02v.02s-.02-.03-.02-.04Z"/>
      <path class="cls-2" d="m44.61,100.64l1.87-.05.09-2.49c.22.62.89.93,1.19,1.48l1.02-1.81.52,1.73c.54-.22,1.1-.6,1.6-.6.35.54-.5,1.24-.71,1.75.72.56,1.83.62,2.41,1.42l-2.08.1.38,2.13c-.54.02-.74-.46-1.22-.56,0,0-.35,1.11-.44,1.36-.26.18-.36.85-.72.85l-.71-2.21c-.81.69-1.79.4-2.8.77.06-.94,1.05-1.05,1.36-1.89l-1.76-1.98Zm4.64,2.58c.5-.01.69.47,1.21.56l-.32-1.89c.67-.09.98-.11,1.62-.1l-1.89-.71c-.13-.8.87-1.02.69-1.85-.64.19-1.06.59-1.57.96-.35-.34-.16-1.15-.23-1.7l-.93,1.8-.94-1.13-.22,1.9-1.34-.07,1.02,1.12c1.08.74-.56,1.2-.76,1.92,1.06.07,1.76-.5,2.67-.75-.22.67.11,1.57.37,2.14.51-.58.57-1.57.62-2.2Z"/>
      <path class="cls-2" d="m46.39,19.73c.18.32.58.48.63.91-.51.41-1.04.82-1.59,1.26-.06-.26.08-.34.19-.44.32-.29.65-.57.96-.86.13-.12.13-.27,0-.41-.25-.27-.48-.56-.73-.83h0s.08-.04.1-.03c.15.13.34.24.44.4Z"/>
      <path class="cls-2" d="m45.09,70.37c.82-.02.46,1.04-.05.79-.07-.3-.18-.58.05-.79Z"/>
      <path class="cls-2" d="m45,71.42c.02.72-.37,1.22-.87,1.64-.2-.06-.12-.34-.22-.57.1-.59.93.05.46-.82l.63-.25Z"/>
      <path class="cls-2" d="m46.88,68.54c-.22-.57-.47-1.13-.89-1.55l.97-.58c-1.58.92-1.08-1.61-1.78-2.08-.28.38.01.88-.18,1.28l-1.38-.47c.2.68.59,1.42,1,1.63l-1.17,1.13,1.43.05.13,1,.64-1.01c.41.16.82.38,1.23.6Zm-.9-3.04c.05.22.39.56.91.57l.92.26-1.22.89c.34.49.56,1.11.78,1.68-.39-.02-.64-.1-1.61-.46-.16.33-.62,1.12-.85,1.67l-.52-1.9-2.17.2c.82-.23.92-1.06,1.69-1.33-.12-.74-.33-1.72-.91-2.27.43-.35,1.04.14,1.57.28l.73-1.66.68,2.07Z"/>
      <path class="cls-2" d="m53.92,21.08c-.77.09-1.53.19-2.3.28-.3.04-.6.03-.9.05-.33.03-.38.07-.36.39.05.73.12,1.46.15,2.19.02.42-.02.83-.05,1.25,0,.16-.08.34-.26.34-.1,0-.22-.11-.3-.2-.59-.74-1.24-1.45-1.75-2.23-.32-.49-.63-.53-1.16-.47-1.02.11-2.04.26-3.08.21-.35-.03-.71.03-1.07.05-.08.01-.16.01-.31.01.16-.33.36-.55.58-.73.58-.48,1.16-.94,1.75-1.4.17-.13.2-.26.1-.44-.47-.86-.95-1.71-1.41-2.57-.16-.3-.3-.61-.5-1.02.23.06.38.09.51.14.45.16.88.33,1.32.49.19.07.39.11.58.18.59.2,1.18.42,1.78.61.09.03.22,0,.32-.05.09-.04.17-.11.22-.2.3-.51.76-.85,1.21-1.21.66-.53,1.32-1.05,1.96-1.56.19.06.19.19.16.32-.08.41-.17.82-.24,1.23-.1.67-.17,1.34-.26,2.01-.03.19.06.3.24.4.79.42,1.55.88,2.35,1.27.29.15.54.33.8.57-.05.05-.06.08-.08.09Zm-3.81.75c0-.44.06-.51.52-.56.48-.05.97-.06,1.46-.12.44-.05.88-.14,1.33-.21.01-.04.01-.07.02-.11-.17-.12-.34-.25-.52-.35-.27-.16-.55-.3-.83-.45-.45-.25-.9-.52-1.37-.74-.22-.1-.31-.21-.29-.45.06-.71.07-1.43.24-2.14.09-.36.13-.74.2-1.2-.19.11-.31.17-.4.25-.59.5-1.17,1.01-1.75,1.53-.36.33-.69.69-1.04,1.02-.1.08-.27.16-.38.13-.62-.16-1.24-.34-1.85-.54-.41-.14-.8-.33-1.2-.49-.18-.06-.37-.1-.55-.15-.02.03-.05.06-.07.09.59,1.07,1.26,2.09,1.99,3.08-.32.52-.94.59-1.28,1.04-.32.42-.81.7-1.11,1.17.59-.06,1.13-.12,1.67-.18.03,0,.05-.01.08-.02.84-.08,1.69-.16,2.53-.25.15-.01.26.03.37.16.3.4.62.78.94,1.17.38.45.76.89,1.2,1.42.03-.34.07-.6.08-.85.01-.75.01-1.5.01-2.25Z"/>
      <path class="cls-2" d="m47.65,46.51c.68-.58,1.23-1.3,1.62-2.1-.89.2-1.76.52-2.57.95-.54-.52-.56-1.54-1.24-1.91-.25,1.16,0,2.71-.29,3.62-.97-.39-2.08-.28-2.96.29.94.31,1.9.57,2.87.76-.06.81.04,1.62.28,2.39.62-.86,1.19-1.75,1.72-2.67.72.36,1.56.61,2.29.96-.3-.94-.9-1.74-1.72-2.29Zm-.76-1.82c1.06-.37,2.15-.66,3.25-.86-.38.92-.97,1.74-1.72,2.39.15.31.38.57.67.76.14,1.07,1.11,1.8,1.24,2.58-1.09.12-1.79-.94-2.96-1.05-1.04.83-1.23,2.52-2.67,2.95.06-.95,0-1.92-.19-2.86-.98-.55-2.43-.62-3.24-1.33,1.08-.59,2.29-.92,3.52-.96.08-1.26.06-3.19.67-3.91.75.49.88,1.6,1.43,2.29Z"/>
      <path class="cls-2" d="m41.57,67.44c.16-.29.61-.13.71.1-.04.27-.17.5-.45.46-.25-.1-.34-.28-.26-.56Z"/>
      <path class="cls-2" d="m46.56,78.08c-.49-.56-1.46-.6-1.91-1.18l1.12-.96-1.88.41.27-1.29-1.01,1.45-.86-1.4c.02.51-.04,1.45.61,1.72-.54.89-1.23-.2-1.87,0,.33.69.78,1.47,1.33,1.71-.24.57-.77.63-1.2.98.55.19,1.18-.26,1.76-.12l.15,1.3.73-1.24,1.23.6-.52-1.73,2.05-.25Zm-3.53,3.5c-.51-.24-.24-1.08-.35-1.62l-2.31-.11,1.3-1.16-1.04-2.24,1.48.29c0-.77-.31-1.58.05-2.22.47.4.84.69,1.03,1.29l1.31-1.7-.11,1.62,2.15-.22-1.33,1.43c.68.41,1.52.69,1.76,1.57l-1.95.06.38,2.13-1.47-.65-.9,1.53Z"/>
      <path class="cls-2" d="m41.1,67.39l-.11.15-.59-.15c.08-.24.03-.55.35-.54.13.18.37.23.35.54Z"/>
      <path class="cls-2" d="m40.75,83.06l.81-.28-1.07-.28.51-1.18c-.36.63-1.07.28-1.54-.19.04.4.15.69.38.9l-1.06,1c.36-.03.72-.05,1.1.02l.06,1.32.4-.7c.18-.4.59-.03.68.21l-.27-.82Zm1.82-.24c-.08.48-.75.32-1.12.5l.21,1.62c-.41-.4-.77-.75-1.02-1.14l-.99,1.39c-.4-.97-.12-1.68-.22-1.95l-1.25.18c.27-.54.66-.98,1.25-1.44-.18-.31-.39-.6-.56-1.44.89.27,1.72.96,2.55.16.24.46-.38.96-.21,1.54l1.36.58Z"/>
      <path class="cls-2" d="m40.71,68.51c-.46-.01-.99-.56-1.43-.05-.82-.44.35-.9-.15-1.3-.3.27-.53.88-.91.81l-.37-1.05-.04.89c.18.99-.84.75-1.12.7.32.4.65.27.99.56l-.92,1.44.77-.69c.51.25.82.85,1.16,1.34l.24-1.39c.36-.02.76.35,1.01.66l-.51-1.28,1.28-.64Zm-.49-.36c.06-.05,1.26.34,1.26.34l-1.53.95c.17.54.57,1.12.58,1.58l-1.23-.61c-.45.46-.08,1.1-.58,1.52-.59-.18-.63-2.23-1.45-1.18-.44.35-1.24.38-1.24.38l.91-1.9c-.56-.24-.48-.92-1.12-1.14l1.49-.07.49-1.96.65,1.09c.48-.1.63-.65,1.18-.62.16.48-.36.85-.02,1.34l.61.28Z"/>
      <path class="cls-2" d="m32.93,77.83c-.03.32-.17.71-.45.46-.29-.09-.42-.47-.28-.66l.73.2Z"/>
      <path class="cls-2" d="m33.87,76.36c.48.23-.02.72.26.97l.7-1.01.96.54c-.35-.52-.89-.67-1.26-1.11.39-.27.86-.49,1.05-.83l-1.59.24-.24-1.19c.19,1.14-.95.9-1.59,1.24.41.53,1.25.66,1.35,1.2-.01.14-.41.05-.11.13l.47-.18Zm-.05,2.01c.43-1.25-.69-1.68-1.89-1.8l.89-.31c-.3-.57-1.19-.75-1.07-1.41.4-.05.64.04,1.27-.28l.43-.28c0-.33.07-.92.39-1.35l.45,1.71,1.93-.12-.93,1.3,1.26,1.56c-.44.27-1.04-.24-1.52-.51l-1.21,1.49Z"/>
      <path class="cls-2" d="m31.82,78.64c.35-.24.75.5.36.64-.19.14-.32-.04-.49-.15-.08-.19.07-.33.13-.49Z"/>
      <path class="cls-2" d="m31.78,80.03c.03.39,0,.68-.61.35-.05-.26.01-.4.09-.5.2-.23.5-.25.52.15Z"/>
      <path class="cls-2" d="m30.17,82.92c-.59.23-.86-.38-1.39-.52-.2.97,1.49,1.16.47,1.75.26-.06.55-.23.76-.07l.13,1.21.62-1.37,1.04.39c-.04-.61-.82-.8-.55-1.48-.87.19-.31-.96-.6-1.26-.34.34-.54.85-.48,1.35Zm2.72-.09c-.41.2-1.04.03-1.29.54l.8,1.17c-1.56-.85-1.67.93-2.6,1.7-.02-.51.1-1-.11-1.57l-1.92-.2c.28-.37.83-.18,1.12-.5l-.49-2.26,1.39.93c.09-.84.69-1.23,1.02-1.82.28-.16.38.28.63.38l-.41,1.06c.5.41,1.45.15,1.86.57Z"/>
      <path class="cls-2" d="m27.36,110.96c.36.68.71,1.33,1.12,2.1l1.35-1.8c.6.04.53.84,1.14.95v-1.47c-.46-.37-1.08-.3-1.65-.36-.46-.75-.35-1.7-.95-2.53-.19,1.17-.28,2.2-1.01,3.11Zm2.64.88c-.76.4-.97,1.33-1.74,1.76-.6-1.23-1.37-2.37-1.69-3.79.38.1.64.18.9.25.35-1.31.68-2.55,1.02-3.78,0-.04.1-.07.26-.16.04,1.02.86,1.81.54,2.91.28.02.43.18.48.45.05.26.25.35.5.41.95.22,1.9.45,2.85.7.14.04.24.19.41.33-.69.37-1.43.23-2.18.45v2.02c-.64-.49-.88-1.11-1.35-1.55Z"/>
      <path class="cls-2" d="m26.54,61.38l.45.41c-.19-.06-.38-.07-.55-.03-.08-.14.07-.27.1-.38Z"/>
      <path class="cls-2" d="m26.11,62.35c.08-.28.33-.18.46,0,.03.35-.32.02-.46,0Z"/>
      <path class="cls-2" d="m34.5,31.17c-1.03.31-2.03.44-2.95.15l.19-2.41-1.3,1.59c-.56-.73-.91-1.62-1.65-2.24.19,1.04-.69,2.47.65,3.17-1.4,1.15-.96-1.26-2.37-1.2l1.09,2.32c-.86.21-1.77-.6-2.36-.11.9.76,2.12,1.5,2.42,2.46l-2.3.68c.97.51,2.1.35,3.16.2-.14.49-.08,1-.41,1.48l1.61-1.08c1.24-.77.99.85,1.64,1.15l.15-2.57,3.16.2-2.8-1.9c.69-.63,1.97-1.23,2.07-1.89Zm1.06-.14l-2.46,2.1c1.24.32,2.05,1.22,2.81,1.95-1,.42-2.31.34-3.4.15-.14,1.01.13,2.09,0,3.16-.94-.11-1.05-1.35-1.83-1.91-1.22.3-1.72,1.46-2.83,1.96l.59-2.1-3.86-.66,2.77-1.14-2.4-2.41c.47-.17,1.59-.39,2.32-.05l-.97-2.64,1.9.92c.54-1-.12-2.1.22-3.1l2.13,2.35c.54-.71,1.19-1.21,1.88-1.84.14,1.11-.46,2.07-.33,3.13,1.22.5,2.24-.38,3.46.13Z"/>
      <path class="cls-2" d="m27.69,95.96c-.03-.55-.38-.89-.73-1.22l-1.34,1.78c-.38-.48.19-1.22.14-1.88l-2.41.07,1.32-1.07c-.75-.5-.5-1.43-.9-2.01l1.28.85c.1-.79-.02-1.75.27-2.32l1.19,1.48.88-1.42c.74.45-.71,3.03.93,1.75l.77-.02-1.08,1.11c.68.16,1.28.6,1.73,1.22-.67.46-2.5-.79-1.91,1.29.04.15-.13.24-.14.39Z"/>
      <path class="cls-2" d="m32.74,112.43c.75-.21,1.49-.45,2.22-.71.58-.2,1.13-.46,1.73-.71-.09-.13-.12-.2-.17-.23-1.75-.88-3.45-1.87-5.43-2.12-.36-.05-.53-.19-.62-.53-.17-.62-.38-1.23-.57-1.84-.13-.46-.26-.93-.38-1.39-.13-.48-.19-.98-.58-1.49-.9,1.61-1.82,3.11-2.44,4.75-.91-.1-1.25-1.05-2.2-1.25.23.63.37,1.16.6,1.64.64,1.31,1.31,2.59,1.96,3.88.14.28.27.52-.03.8-.81.78-1.32,1.77-1.87,2.72-.2.34-.34.71-.51,1.07.05.04.1.08.14.12.3-.17.59-.32.88-.49.48-.27.97-.53,1.43-.84,1.03-.71,2.3-1.06,3.21-2.15.24.28.44.5.62.73.57.75,1.13,1.51,1.71,2.25.08.11.23.15.49.31-.08-.47-.12-.79-.19-1.09-.18-.88-.41-1.75-.56-2.63-.11-.6-.02-.64.56-.8Zm.46.22c-.87.33-.86.36-.65,1.23.3,1.25.6,2.5.89,3.75.04.18-.02.37-.11.58-1.11-1.28-2.04-2.67-3.18-3.96-2.21,1.25-4.35,2.46-6.59,3.73.03-.2.03-.32.07-.41.37-.79.72-1.59,1.12-2.36.36-.7.76-1.37,1.16-2.04.21-.35.22-.67.05-1.05-.55-1.23-.93-2.55-1.66-3.71-.1-.17-.14-.38-.2-.58-.14-.44-.25-.88-.4-1.32-.07-.2-.1-.35.21-.47.64.72,1.45,1.19,2.31,1.67.44-.6.64-1.25.93-1.87.27-.6.61-1.18.94-1.75.33-.58.68-1.15,1.04-1.76.54.44.62,1.01.8,1.51.3.86.52,1.76.78,2.64.13.46.25.93.38,1.39.07.26.21.4.5.49,1.04.36,2.05.79,3.09,1.14.8.28,1.62.49,2.44.72.4.11.41.1.7.52-.1.11-.19.29-.32.32-1.5.34-2.87,1.05-4.3,1.59Z"/>
      <path class="cls-2" d="m22.78,52.58c.2.32-.09.64-.29.78-.28-.04-.72-.35-.49-.76.14-.19.56-.38.78-.02Z"/>
      <path class="cls-2" d="m26.11,62.35c.14.02.49.35.46,0-.13-.18-.38-.28-.46,0Zm.33-.59c.17-.04.36-.03.55.03l-.45-.41c-.03.11-.18.24-.1.38Zm-2.92,1.26c-.15.19.07.76.04.61-.28-1.07.84-.75,1.2-.99-.36-.17-.46-.41-.4-.78-.38.43-.88-.23-.92-.45-.17.69-.9-.12-.87.22,1.02.5-.29.94-.03,1.5l.13-.03c.28-.16.52-.52.85-.08Zm4.07-7.43c-.12-.33-.59-.64-.23-1.08l-1.09.65-.84-1.93c-.45.67-.46,1.44-.51,2.23l-1.27-.34.47,2.11c-.49.05-.98.32-1.39.15.4.58,1.2.45,1.64,1.03l-.75,1.14,1.46-.42.3,1.37c.63-.5,1.25-1.61,2.07-.56-.19-.47-.05-.86-.06-1.32.39-.09.74.04,1.12.11-.11-.69-.82-1.05-.73-1.69l1.04-.23c-.5-.4-1.26-.13-1.59-.78l.7-.77-.34.33Zm.08-2.13l.1,1.47,1.4-.67-1.25,1.77c.6.44,1.25.5,1.85.93l-1.55.45c.05.65.77,1.01.67,1.6-.21.51-.73-.2-1.1-.02v1.49c-.65.3-1.39-1.39-1.8-.11l.13.59.96-.21c-.24.56.33.85.65,1.09-.02.52-1.27.23-.61,1.16-.55.22-.97-.25-1.45-.56.32-.63-.46-.46-.7-.72-.47.16-.19.82.11.96l.38.27c-.56.33-1.97-.03-1.74,1.42-.05.16-.2.14-.33.17.15-1.22-.81-1-1.53-1.16l-.15-.07c.57-.53.96-1.24.23-2.05.25-.52,1.46.19,1.86-.88-.12,1.11.79.86,1.46,1.02l-.39-1.77-1.8.3.65-1.38-1.53-1.16c.15-.75,1.35.12,1.33-.8-.28-.87.16-2.4-.81-2.66-.05-.19.15-.34.25-.51.3-.07.47.05.62.32-.64.81.43.94.9,1.19.32-.63.47-2.21,1.09-2.09l.81,1.78,1.29-1.16Z"/>
      <path class="cls-2" d="m20.96,51.38c.32-.01.57-.33,1-.01.17.33-.05.58-.18.81-.57.33-.58-.54-.82-.8Z"/>
      <path class="cls-2" d="m19.05,48.1c-.11.54.5,1.85-.66,1.58l1.09.38-.5,1.25,1.11-.97.53.96-.22-1.03c.18-.6.74-.16,1.13-.24-.3-.56-.93-.06-1.01-.66.04-.41.45-.21.52-.47l-.58.23c-.8-.34.24-1.03-.19-1.3l-.62,1.12c-.68-.16-.24-.88-.65-1.1l.05.25Zm1.6,3.97l-.68-1.24c-.46.41-.71,1.13-1.38,1.18l.4-1.68c-.59-.39-1.26-.14-1.72-.76l1.46-.42c-.16-.74.06-1.41.08-2.13.36-.03.35.75.76.96.31-.27.63-.49.92-.81.55.23.15.89.15,1.3l1.59.17c-.28.16-.61.34-.88.55.06.5.92.67,1.07,1.36-.51.16-1.67-.76-1.55.44l.09.39c-.04.22-.17.46-.31.69Z"/>
    </g>
  </g>
</svg>