<?xml version="1.0" encoding="UTF-8"?>
<svg id="Layer_1" data-name="Layer 1" xmlns="http://www.w3.org/2000/svg" viewBox="0 0 136.06 136.06">
  <defs>
    <style>
      .cls-1 {
        fill: #a7483f;
      }

      .cls-2 {
        fill: #0c3454;
      }

      .cls-3 {
        fill: #f1f2f2;
      }

      .cls-4 {
        fill: #636a42;
      }

      .cls-5 {
        fill: #324a8d;
      }

      .cls-6 {
        fill: #d9c6b8;
      }
    </style>
  </defs>
  <path class="cls-2" d="m85.88,85.06s.03,0,.05.03c1.15.47,1.62.19,1.62-1.01.03-1.04-.03-2.11,0-3.15.03-.68.14-1.34.16-2.03s-.05-1.37-.03-2.08c0-.74.14-1.45.16-2.19.03-1.34,0-2.71,0-4.05.03-.79.36-1.18,1.12-1.45,1.07-.38,2.03,0,2.99.44.16.05.33.36.33.58.11,1.62.22,3.23.22,4.85,0,1.4-.11,2.79-.25,4.19-.16,1.81-.38,3.62-.52,5.45-.03.22.19.63.38.71.38.11.82.05,1.29.05,0-.25.03-.44.03-.63-.05-1.45-.11-2.93-.11-4.38,0-3.31.03-6.63.05-9.92,0-.82.44-1.32,1.26-1.45.58-.11,1.15-.19,1.75-.19,1.18-.03,2.38-.03,3.56-.03,1.1.03,2.19.19,3.26.05,1.7-.22,3.34-.41,5.04-.27.66.03.79-.11.79-.74,0-.11-.08-.19-.05-.27.3-1.26-.08-2.41-.38-3.59-.25-.88-.55-1.73-.79-2.58-.19-.68-.47-1.37-.52-2.05-.08-.74-.52-.58-.93-.52-.79.11-1.59.27-2.38.36-1.4.14-2.82.22-4.22.38-1.7.16-3.37.33-5.04.55-2.38.33-4.71.25-7.01-.55-.44-.16-.93-.22-1.37-.3-.49,2.19-.99,4.3-1.51,6.52,1.07.33,1.56,1.18,1.62,2.33.05.88.14,1.75.19,2.6l.16,2.47c.03.6.11,1.21.05,1.78-.14,1.64-.33,3.26-.49,4.9-.03.25.05.49.05.74-.08.52-.19,1.04-.25,1.56-.11.96-.16,1.92-.27,2.9h-.03Zm24.3-14.6c.03,1.1,0,2.22-.11,3.29-.14,1.29-.33,2.55-.55,3.81-.22,1.1-.49,2.22-.74,3.31-.08.36-.16.71-.3,1.07-.33.93-.71,1.86-1.04,2.79-.25.66-.36,1.34-.63,1.97-.41.9-.88,1.75-1.4,2.58-.41.68-.88,1.34-1.42,1.92-.82.88-1.75,1.7-2.63,2.52-.74.66-1.45,1.37-2.27,1.92-1.12.74-2.33,1.34-3.51,2-1.89,1.01-3.75,2.14-5.73,3.01-2.85,1.29-5.67,2.74-8.74,3.51-2.77.68-5.56,1.26-8.36,1.86-1.12.27-2.25.55-3.37.77-.47.11-.93.14-1.4.16-2,.11-4.03.19-6.03.3-1.56.11-3.07,0-4.58-.38-1.1-.27-2.25-.41-3.34-.68-1.7-.47-3.42-.9-5.1-1.51-1.29-.47-2.49-1.1-3.67-1.78-1.34-.79-2.63-1.7-3.95-2.55-.88-.55-1.84-1.01-2.66-1.64-.99-.74-1.84-1.64-2.77-2.49l-.82-.82c-.85-.85-1.75-1.64-2.55-2.58-.66-.74-1.15-1.64-1.73-2.47-.22-.3-.44-.66-.71-.93-.96-.88-1.37-2.05-1.89-3.18-.44-.99-.88-2-1.21-3.01-.22-.74-.22-1.56-.38-2.33-.33-1.67-.77-3.31-.96-4.99-.19-1.45-.11-2.96-.14-4.44-.03-.47.03-.9.03-1.34.03-.96.05-1.95.08-2.93.11-2.08.14-4.19.36-6.27.11-.99.19-1.97.44-2.96.49-1.92,1.37-3.64,2.25-5.37.6-1.15,1.34-2.27,2.19-3.31.82-1.01,1.84-1.86,2.77-2.79.14-.14.27-.33.41-.47.96-.85,1.92-1.64,2.88-2.49.55-.49,1.12-.99,1.62-1.53.9-1.04,2.16-1.48,3.31-2.08.93-.49,1.84-1.04,2.74-1.53,1.04-.55,2.05-1.12,3.07-1.64.49-.25,1.01-.52,1.53-.68.77-.22,1.53-.3,2.27-.55.9-.27,1.75-.68,2.63-.99,1.04-.33,2.08-.63,3.15-.85,1.18-.25,2.41-.38,3.62-.49,1.23-.08,2.49-.11,3.75-.14,1.23-.05,2.49-.14,3.73-.11.93,0,1.84.14,2.74.22.27.03.55.11.82.11.66-.03,1.34-.05,2.03-.05,1.04,0,2.08.05,3.12.08,1.73.05,3.42.14,5.12.6,1.53.44,3.12.63,4.68,1.04.96.25,1.86.74,2.79,1.12.08.03.14.11.22.08.9-.11,1.34.66,2,1.04.68.38,1.34.85,2.05,1.18,1.04.47,1.95,1.1,2.82,1.78.96.71,1.86,1.45,2.71,2.27.44.44.71,1.04,1.1,1.56.36.49.77.96,1.12,1.48.3.38.55.82.82,1.23.38.63.77,1.23,1.12,1.89.44.77.82,1.53,1.23,2.3.47.82.85,1.73,1.42,2.47.79,1.07,1.1,2.3,1.59,3.48.55,1.26.9,2.6,1.23,3.95.16.63.19,1.32.22,2,.03,1.51.22,2.99.55,4.47.25,1.04.27,2.16.3,3.23Zm-1.26,1.75c.03-.79.08-1.62.05-2.41,0-.14-.27-.36-.44-.38-1.7-.22-3.37.16-5.07.3-.6.05-1.21.19-1.81.16-.58,0-1.15-.22-1.75-.25-1.18-.08-2.36-.11-3.53-.11-.41,0-.85.11-1.26.25-.16.05-.36.3-.38.49-.19,1.15-.41,2.3-.44,3.45-.03,1.32.14,2.66.19,3.97.03,1.84.19,3.67,0,5.48-.11,1.21.27,2.36-.03,3.53-.16.68-.14,1.34-.99,1.62-.88.3-1.73.19-2.6.08-.11-.03-.27-.3-.27-.47,0-.99.05-2,.08-2.99.03-.47,0-.93.05-1.4.11-1.1.3-2.19.44-3.31.08-.74.16-1.48.19-2.25.05-1.29.11-2.6.05-3.89-.03-1.12-.22-2.25-.3-3.37-.05-.63-.36-.9-1.15-.93-.63,0-.9.25-.9.88-.05,1.07-.05,2.16-.11,3.23-.05,1.12-.16,2.22-.22,3.34-.03.66.11,1.32.05,1.97-.14,1.4-.27,2.77-.05,4.16.16,1.23.08,2.52.05,3.78-.03.85-.52,1.32-1.29,1.4-.33.05-.68.03-1.01.11-.11.03-.22.05-.3.05-.33,0-.6-.19-.9-.41-.36-.27-.47-.58-.47-1.01,0-.63-.11-1.23-.19-1.89.25-.03.41-.03.74-.05.03-.96.05-1.86.08-2.74,0-.05.03-.14.03-.19.22-1.81.52-3.64.6-5.45.08-1.84-.08-3.64-.16-5.48-.08-1.48-.38-2.93-1.15-4.25-.08-.14-.25-.36-.33-.36-.16.05-.33.19-.44.36-.58.85-1.21,1.62-2.22,2-.68.27-1.37.49-2.16.52-.82.03-1.64.25-2.49,0-.77-.19-1.51-.38-1.86-1.23-.25-.55-.58-1.1-.82-1.64-.25-.52-.58-1.04-.68-1.59-.19-1.15-.3-2.3-.38-3.45-.05-.74-.08-1.48-.08-2.19,0-.85.11-1.73.08-2.58,0-.6-.14-1.21-.22-1.81-.03-.03-.16-.05-.19-.11-.6-.6-1.29-1.12-1.73-1.81-1.04-1.7-1.42-3.59-1.45-5.56,0-.16.3-.41.52-.55.14-.08.38-.05.44-.05.63.74,1.12,1.45,1.75,2,.49.47,1.21.66,1.73,1.07.71.55,1.45.41,2.25.3.96-.16,1.95-.33,2.93-.38.63-.05,1.29.19,1.89.14.68-.11,1.21.05,1.78.36.41.22.9.33,1.32,0,.77-.6,1.51-1.23,2.25-1.84.58-.47,1.18-.96,1.78-1.4.05-.05.33.11.36.16.03.58.08,1.12.05,1.67-.05.99-.03,2-.27,2.96-.19.71-.66,1.42-1.12,2-.79.93-1.32,1.92-.93,3.12.14.44.49,1.01.9,1.15,1.23.47,2.52.82,3.86.79.79-.03,1.62.08,2.44.05,1.18-.05,2.38-.16,3.59-.27.6-.03,1.21-.14,1.81-.19,1.62-.19,3.23-.36,4.85-.55.9-.11,1.81-.25,2.68-.41.14-.03.36-.27.33-.36-.08-.52-.16-1.07-.36-1.53-.33-.93-.77-1.84-1.12-2.74-.22-.49-.33-1.01-.58-1.45-.47-.79-1.01-1.51-1.51-2.27-.58-.85-1.07-1.78-1.7-2.6-1.01-1.26-2.14-2.44-3.21-3.67-.52-.6-1.15-1.12-1.56-1.81-.38-.71-1.1-1.1-1.62-1.64-.74-.74-1.73-1.26-2.68-1.78-.85-.47-1.73-.82-2.63-1.18-.96-.38-1.92-.77-2.93-1.01-1.78-.44-3.59-.77-5.4-1.12-1.29-.25-2.6-.49-3.92-.6-1.12-.08-2.3,0-3.45,0-.93-.03-1.84-.05-2.77-.08-1.15-.05-2.3-.19-3.45-.22-1.48-.03-2.96-.03-4.41-.03h-.44c-1.21.14-2.41.27-3.62.36-1.62.08-3.21.49-4.74.96-.99.27-1.86.85-2.85,1.07-1.59.33-3.1.79-4.52,1.56-1.89.99-3.75,2.05-5.62,3.07-.55.3-1.18.52-1.67.9-1.21.9-2.3,1.97-3.53,2.9-.33.25-.66.52-.96.79-.93.82-1.78,1.78-2.63,2.71-.93,1.01-1.78,2.08-2.6,3.21-.74,1.04-1.45,2.11-2.08,3.23-.55,1.01-.96,2.11-.9,3.37.49.05.96.19,1.42.14,1.51-.11,3.01-.33,4.49-.44,2.05-.14,4.08-.19,6.11-.3.63-.03,1.26,0,1.89-.08.22-.03.44-.22.58-.41.33-.52-.16-.77-.44-1.1-.27-.38-.63-.71-.85-1.12-.36-.6-.63-1.23-.88-1.89-.19-.41-.36-.85-.36-1.26,0-1.56.08-3.12.11-4.68,0-.6.41-.74.85-.82.49-.11.77.11.74.68-.03.19.14.38.19.58.22,1.04,1.37,1.4,1.75,2.36.05.14.22.22.33.3.25.14.58.19.71.36.55.66,1.18.44,1.86.33,1.01-.14,2.05-.11,3.07-.08,1.01.05,2.05.27,3.07.25,1.97-.08,3.97-.22,5.95-.44.58-.05,1.12-.14,1.67,0,.55.11.99-.03,1.4-.36.36-.3.68-.66,1.01-.96.88-.82,1.62-1.67,1.84-2.85.41-.08.77-.16,1.26-.27.16.82.52,1.64.44,2.44-.11,1.62-.05,3.29-.88,4.77-.38.71-.79,1.48-1.32,2.11-.38.47-1.04.6-.88,1.51.08.63-.33,1.34-.47,2.03-.36,1.56-.93,3.04-1.73,4.44-.68,1.26-1.32,2.55-2.05,3.78-.14.25-.3.47-.52.66-.66.74-1.56,1.21-2.66,1.42-1.4.3-2.77.41-4.16.33-.52-.03-1.01-.03-1.56-.05.08.49.16.88.16,1.23,0,.96-.05,1.95-.08,2.93-.03,1.37-.08,2.77-.11,4.14-.05,1.48-.11,2.96-.14,4.44-.03,1.4-.03,2.79,0,4.19,0,.27.11.55.11.82-.03.99-.11,2-.16,2.99,0,.05-.08.08-.14.14-.77,1.01-1.92,1.26-3.1,1.34-.66.05-1.34-.08-2-.03-.96.05-1.75-.14-2.3-.99-.11-.19-.22-.41-.33-.6-.38-.85-.85-1.7-.27-2.66.16-.27.22-.63.22-.96.03-1.01,0-2.03,0-3.04,0-1.64.03-3.26.03-4.9,0-.49-.03-.99-.08-1.48-.11-1.1-.66-1.32-1.32-1.37-.9-.05-1.73.41-1.75,1.18-.14,1.89-.19,3.78-.22,5.67-.03.96.11,1.92.16,2.88.08,1.51.14,2.99.22,4.47.03.71-.11,1.34-1.07,1.59-1.34.36-2.71.14-4.08.03-.25-.03-.55,0-.71.03.82.85,1.64,1.7,2.44,2.52.85.85,1.64,1.7,2.52,2.52.82.79,1.67,1.53,2.52,2.3.03.08.19.03.27.08.63.38,1.29.79,1.89,1.23.55.38,1.04.85,1.62,1.18,1.37.77,2.79,1.51,4.22,2.19.99.47,1.97,1.01,3.07,1.21.44.08.82.25,1.23.36.88.27,1.75.6,2.63.79,1.18.27,2.36.52,3.53.71.85.14,1.7.33,2.58.3,2.25-.05,4.49-.25,6.74-.38.49-.03,1.01-.05,1.51-.16.88-.16,1.75-.36,2.63-.55,1.12-.22,2.27-.44,3.4-.68,1.73-.38,3.48-.71,5.18-1.23,1.78-.52,3.53-1.23,5.29-1.89.82-.33,1.62-.74,2.44-1.1s1.7-.68,2.49-1.1c1.7-.9,3.4-1.84,5.07-2.79,1.07-.63,2.11-1.29,3.1-2,.71-.52,1.32-1.18,1.97-1.78.88-.82,1.81-1.59,2.6-2.52,1.42-1.64,2.25-3.62,2.88-5.67.58-1.95,1.4-3.84,1.73-5.84.22-1.45.52-2.88.79-4.3.03-.19,0-.44,0-.66.03-.63.03-1.23.05-1.86Zm-15.26,15.45c.03-.52.03-1.01.05-1.51-.27,0-.49-.03-.77-.03-.08.52-.14,1.01-.22,1.51.36,0,.63.03.93.03Zm-1.42,0c.08-.63.16-1.07.25-1.62-.22,0-.6-.03-.63.03-.11.38-.14.79-.11,1.18,0,.11.25.22.49.41Zm-5.07,0c.66-.36.33-.99.52-1.45,0-.05-.25-.22-.47-.41-.03.74-.05,1.26-.05,1.86Zm-1.15-33.7c1.34-1.18,1.23-2.74,1.4-4.22-.05-.03-.11-.05-.14-.08-.19.22-.38.47-.6.63-.49.36-.99.68-1.51,1.01-.6.38-.58.52-.11,1.01.33.36.58.77.85,1.18.08.14.08.33.11.47Zm.47,33.34c0-.44.03-.9.03-1.34-.19,0-.36,0-.55-.03q-.11,1.42.52,1.37Zm-1.48-30c.03-.47.05-.93-.05-1.37-.22-.66-.52-1.32-.82-1.95-.22-.44-.55-.85-.77-1.32-.25-.52-1.21-1.26-1.78-1.23-1.15.03-2.33.14-3.48.22-.79.05-1.64-.14-2.14.77-.36.63-.9,1.15-1.15,1.81-.25.71-.27,1.53-.33,2.33-.14,1.78-.08,3.56.16,5.34.19,1.32.3,2.68.49,4,.27,1.73,1.67,2.96,3.01,2.93,1.07-.16,2.14-.25,3.15-.58,1.51-.47,1.84-1.92,2.27-3.21.25-.77.27-1.62.58-2.38.41-.99.52-2.03.66-3.07.11-.77.16-1.53.19-2.3Zm-10.36-5.04c.33-.33.16-.41-.11-.58-.77-.41-1.59-.71-2.19-1.4-.14-.14-.27-.27-.44-.38-.08-.08-.22-.08-.3-.05s-.14.16-.14.25c.05.19.14.36.22.55.16.36.36.71.52,1.07s.25.77.49,1.07c.22.3.55.52.96.9.33-.52.58-1.04.99-1.42Zm-12.79,2.36c2.16-1.53,2.41-3.7,2.41-6l-.16.08c-.93.99-1.75,2.03-2.99,2.63-.36.19-.44.66-.25,1.07.27.55.52,1.1.77,1.64.08.16.14.36.22.58Zm-.93,4.16c.19-.93.55-1.86.11-2.82-.3-.66-.6-1.34-.93-2.03-.16-.41-.41-.74-.96-.55-.11.03-.33.03-.38-.05-.36-.38-.58-.14-.79.11-.44.47-.96.49-1.53.08-.14-.14-.47-.3-.55-.22-.77.52-1.42.16-2.11-.22-.88.82-1.23.66-2,.19-.14-.08-.41-.11-.52-.03-.47.44-.96.33-1.51.19-.16-.03-.38.05-.55.11-.33.08-.74.41-.96.3-.63-.25-1.18-.11-1.78-.03-.27.05-.58,0-1.04,0-.05.08-.22.33-.36.58-.33.49-.58,1.1-1.01,1.48-.96.88-1.04,1.97-.77,3.04.38,1.67.99,3.31,1.48,4.96.11.3.11.6.25.85.3.52.58,1.07.99,1.51.63.66,1.29,1.48,2.08,1.75.9.33,1.95.52,3.01.33,1.23-.25,2.52-.16,3.75-.3.93-.11,1.84-.41,2.38-1.23.47-.71.88-1.42,1.23-2.19.9-1.89,2.05-3.7,2.47-5.81Zm-3.92-6.52c.52-.66,1.26-.27,1.86-.33-.22-.52-.6-.58-1.07-.49-.27.03-.55.08-.82.08-1.62,0-3.23,0-4.82.41.33.49.63.71,1.1.14.11-.14.38-.25.58-.25.27,0,.66-.25.77.27.03.14.27.25.44.36.6-.82,1.59-.93,1.97-.19Zm-6.55.25c.41-.16.82-.36,1.26-.52-.58-.03-1.12-.05-1.73-.05.19.22.33.38.47.58Zm-2.16.14c.44-.27.85-.58,1.29-.85-.05-.03-.16-.14-.3-.14-.79,0-1.62-.03-2.44.05-.71.08-.85.44-.49,1.23.16-.19.25-.38.41-.49.22-.19.47-.33.74-.44.63-.27.63.36.79.63Zm.03,33.56c.71-6.33.6-12.11.14-17.01-.25-.05-.49-.11-.74-.19-1.1-.38-2.05-.88-2.71-1.97-.71-1.21-1.26-2.47-1.7-3.75-.55-1.67-1.01-3.37-1.53-5.15-4.71.08-9.56.44-14.52.96l-.58,5.59c-.08.79-.14,1.62-.19,2.44-.14,1.67-.05,3.34.27,5.01.08.47.11.96.14,1.45,0,.3.03.44.41.38.96-.08,1.92-.08,2.88-.05.27,0,.63.11.85.3,1.07.79,1.45,1.97,1.48,3.21,0,1.18-.22,2.36-.33,3.53-.05.6-.14,1.18-.16,1.78-.05,1.18-.08,2.36-.14,3.59.38,0,.79.05,1.21.03.88-.08,1.75-.19,2.63-.27.22-.03.44,0,.68,0-.03-.05-.08-.11-.11-.16l.41-.58c.03-.05.05-.16.05-.25v-4.16c.03-.6,0-1.23.16-1.84.3-1.29.68-2.55,1.1-3.81.08-.22.33-.44.58-.52.96-.38,1.92-.33,2.88.03.11.36-.25.99.74.9.05,1.7.16,3.31.19,4.93,0,1.62-.11,3.26-.14,4.82.27.11.49.25.71.27.25.05.49.03.74.03.3,0,.66-.11.93,0,1.21.55,2.44.38,3.67.47Zm-.63,3.67c.14-.71.08-1.45.05-2.19-.03-.47-.47-.41-.77-.44s-.55.03-.6.44c-.08.93-.22,1.84-.33,2.77.19,0,.44.08.6,0,.38-.14.99-.33,1.04-.58Zm-3.73-36.08c.25-.58.49-1.21.74-1.78-1.34-.77-2.74-1.26-3.7-2.68-.11.36-.22.58-.19.77.05.49.22.99.3,1.48.14,1.26.88,2.25,1.59,3.23.27.38.52.27.71,0,.22-.3.38-.66.55-1.01Zm-.41,36.33c.79.05,1.23-.33,1.12-.9-.05-.44-.08-.9,0-1.34.11-.55-.58-1.34-1.18-1.15-.9.27-1.32,1.21-.82,2.05.27.44.58.88.88,1.34Zm-6.9-2.33c.03-.55-.27-.68-.68-.77-.22-.03-.44-.03-.77-.03.05,1.01.16,1.95.19,2.88,0,.47.25.6.66.6.58,0,.63-.08.58-.68-.03-.66-.03-1.34.03-2Zm-2.9,1.42c.03-.58.08-1.15.14-1.92-.03-.05-.22-.33-.33-.33-.38.14-1.01.41-1.01.58.08.77-.14,1.53.19,2.3.19.47.44.49.79.47.44-.05.3-.36.22-.63-.05-.14,0-.3,0-.47Zm-2.49-7.34c.19-1.95.16-3.89-.3-5.78-.08-.3-.3-.63-.52-.82-.58-.47-2.66-.49-3.26-.05-.08.05-.16.25-.16.36.11,1.53.41,3.01.82,4.49.22.79.33,1.64.47,2.47.11.55.16,1.1.33,1.59.3.96.63,1.89,1.04,2.79.25.6.47,1.29,1.18,1.67.08-.16.16-.3.16-.44.08-.93.16-1.84.19-2.79.05-1.15-.05-2.33.05-3.48Z"/>
  <path class="cls-6" d="m108.61,63.96c.3,1.18.68,2.33.38,3.59-.03.08.05.16.05.27,0,.63-.14.77-.79.74-1.7-.14-3.34.05-5.04.27-1.07.14-2.16-.03-3.26-.05-1.18,0-2.38,0-3.56.03-.6,0-1.18.08-1.75.19-.82.14-1.26.63-1.26,1.45-.03,3.29-.05,6.6-.05,9.92,0,1.45.05,2.93.11,4.38,0,.19-.03.38-.03.63-.47,0-.9.05-1.29-.05-.19-.08-.41-.49-.38-.71.14-1.84.36-3.64.52-5.45.14-1.4.25-2.79.25-4.19,0-1.62-.11-3.23-.22-4.85,0-.22-.16-.52-.33-.58-.96-.44-1.92-.82-2.99-.44-.77.27-1.1.66-1.12,1.45,0,1.34.03,2.71,0,4.05-.03.74-.16,1.45-.16,2.19-.03.71.05,1.4.03,2.08s-.14,1.34-.16,2.03c-.03,1.04.03,2.11,0,3.15,0,1.21-.47,1.48-1.62,1.01-.03-.03-.05-.03-.05-.03h.03c.11-.99.16-1.95.27-2.9.05-.52.16-1.04.25-1.56,0-.25-.08-.49-.05-.74.16-1.64.36-3.26.49-4.9.05-.58-.03-1.18-.05-1.78l-.16-2.47c-.05-.85-.14-1.73-.19-2.6-.05-1.15-.55-2-1.62-2.33.52-2.22,1.01-4.33,1.51-6.52.44.08.93.14,1.37.3,2.3.79,4.63.88,7.01.55,1.67-.22,3.34-.38,5.04-.55,1.4-.16,2.82-.25,4.22-.38.79-.08,1.59-.25,2.38-.36.41-.05.85-.22.93.52.05.68.33,1.37.52,2.05.25.85.55,1.7.79,2.58Z"/>
  <path class="cls-3" d="m53.74,95.22c.49.52,4,.36,4.88-.27-1.62-.11-3.23-.36-4.88.27Zm55.23-25.42c.03.79-.03,1.62-.05,2.41-.03.63-.03,1.23-.05,1.86,0,.22.03.47,0,.66-.27,1.42-.58,2.85-.79,4.3-.33,2-1.15,3.89-1.73,5.84-.63,2.05-1.45,4.03-2.88,5.67-.79.93-1.73,1.7-2.6,2.52-.66.6-1.26,1.26-1.97,1.78-.99.71-2.03,1.37-3.1,2-1.67.96-3.37,1.89-5.07,2.79-.79.41-1.67.74-2.49,1.1s-1.62.77-2.44,1.1c-1.75.66-3.51,1.37-5.29,1.89-1.7.52-3.45.85-5.18,1.23-1.12.25-2.27.47-3.4.68-.88.19-1.75.38-2.63.55-.49.11-1.01.14-1.51.16-2.25.14-4.49.33-6.74.38-.88.03-1.73-.16-2.58-.3-1.18-.19-2.36-.44-3.53-.71-.88-.19-1.75-.52-2.63-.79-.41-.11-.79-.27-1.23-.36-1.1-.19-2.08-.74-3.07-1.21-1.42-.68-2.85-1.42-4.22-2.19-.58-.33-1.07-.79-1.62-1.18-.6-.44-1.26-.85-1.89-1.23-.08-.05-.25,0-.27-.08-.85-.77-1.7-1.51-2.52-2.3-.88-.82-1.67-1.67-2.52-2.52-.79-.82-1.62-1.67-2.44-2.52.16-.03.47-.05.71-.03,1.37.11,2.74.33,4.08-.03.96-.25,1.1-.88,1.07-1.59-.08-1.48-.14-2.96-.22-4.47-.05-.96-.19-1.92-.16-2.88.03-1.89.08-3.78.22-5.67.03-.77.85-1.23,1.75-1.18.66.05,1.21.27,1.32,1.37.05.49.08.99.08,1.48,0,1.64-.03,3.26-.03,4.9,0,1.01.03,2.03,0,3.04,0,.33-.05.68-.22.96-.58.96-.11,1.81.27,2.66.11.19.22.41.33.6.55.85,1.34,1.04,2.3.99.66-.05,1.34.08,2,.03,1.18-.08,2.33-.33,3.1-1.34.05-.05.14-.08.14-.14.05-.99.14-2,.16-2.99,0-.27-.11-.55-.11-.82-.03-1.4-.03-2.79,0-4.19.03-1.48.08-2.96.14-4.44.03-1.37.08-2.77.11-4.14.03-.99.08-1.97.08-2.93,0-.36-.08-.74-.16-1.23.55.03,1.04.03,1.56.05,1.4.08,2.77-.03,4.16-.33,1.1-.22,2-.68,2.66-1.42l.47.38c-.41.41-.22.82.05,1.15.16.22.44.3.71.49-.08.55-.16,1.15-.27,1.78-.47-.08-.49-.36-.58-.68-.11-.49-.47-.85-.99-.68-.33.11-.71.41-.79.71-.11.44.25.71.71.82.22.05.44.08.68.14s.49.14.77.19c-.27.6-.47,1.1-.74,1.7-.22-.25-.41-.44-.58-.63-.14-.16-.22-.38-.36-.55-.47-.49-.96-.3-1.45-.08-.03.68-.08,1.45.66,1.75.38.14.9-.03,1.48-.05-.05.41-.16.93-.27,1.56-.16-.08-.38-.16-.38-.19.05-.41-.22-.58-.47-.82-.36-.36-1.21-.38-1.51.03-.05.11-.11.27-.08.38.11.36.25.68.41.99.27.44.88.52,1.34.22.19-.11.44-.16.63-.22-.19.79-.41,1.51-.52,2.22-.11.66-.14,1.29-.11,1.95,0,.52.05,1.04.22,1.53.22.77.49,1.56.82,2.27.52,1.07,1.07,2.08,1.67,3.12.52.9.71,1.89.93,2.88.08.44-.16.77-.55.77-.71-.03-1.42-.03-2.11-.05-.14,0-.27-.11-.36-.22-.55-.6-.9-1.37-1.34-2.05-.88-1.32-.96-2.77-1.07-4.22-.08-1.01,0-2.03-.05-3.04-.03-.47-.14-.96-.33-1.37-.49-.99-1.04-1.95-1.59-2.9-.11-.16-.36-.38-.47-.36-.33.14-.88.3-.93.55-.27,1.26-.44,2.52-.63,3.81-.14,1.1-.16,2.19.14,3.26.05.22.05.47.14.68.19.6.44,1.18.63,1.78.22.71.22,1.51.77,2.14.33.36.52.85.79,1.29.27.47.14.74-.38.77-.44.03-.9,0-1.34.11-.41.08-.82.27-1.21.44,0,.08.03.16.05.25.36,0,.74.05,1.1.03,1.18-.08,2.36-.22,3.53-.27.82-.03,1.64.08,2.47.05,1.92-.03,3.84-.11,5.75-.16.19,0,.38.11.55.16.25.08.47.22.71.22.71,0,1.42-.03,2.14-.05.19,0,.38-.03.58-.11.74-.33,1.48-.66,2.25-.99.22-.08.49-.08.74-.11.47-.03.96-.05,1.42-.08.36,0,.71,0,1.1.03.55.03,1.12.14,1.64-.27.19-.16.49-.22.74-.25.88,0,1.75.11,2.63-.22.38-.14.88-.08,1.32-.05,1.29.14,2.41.93,3.75.74.05,0,.14.05.22.05.93.08,1.84.22,2.77.27.36.03.74-.14.6-.68h-.33v-1.15c.08,0,.19-.03.3-.05.33-.08.68-.05,1.01-.11.77-.08,1.26-.55,1.29-1.4.03-1.26.11-2.55-.05-3.78-.22-1.4-.08-2.77.05-4.16.05-.66-.08-1.32-.05-1.97.05-1.12.16-2.22.22-3.34.05-1.07.05-2.16.11-3.23,0-.63.27-.88.9-.88.79.03,1.1.3,1.15.93.08,1.12.27,2.25.3,3.37.05,1.29,0,2.6-.05,3.89-.03.77-.11,1.51-.19,2.25-.14,1.12-.33,2.22-.44,3.31-.05.47-.03.93-.05,1.4-.03.99-.08,2-.08,2.99,0,.16.16.44.27.47.88.11,1.73.22,2.6-.08.85-.27.82-.93.99-1.62.3-1.18-.08-2.33.03-3.53.19-1.81.03-3.64,0-5.48-.05-1.32-.22-2.66-.19-3.97.03-1.15.25-2.3.44-3.45.03-.19.22-.44.38-.49.41-.14.85-.25,1.26-.25,1.18,0,2.36.03,3.53.11.6.03,1.18.25,1.75.25.6.03,1.21-.11,1.81-.16,1.7-.14,3.37-.52,5.07-.3.16.03.44.25.44.38Zm-15.31,24.16c.11.68,2.3.93,3.18.27-1.04-.3-2.08-.38-3.18-.27Zm-1.56-3.18c1.18.27,2.36.19,3.62.05-.52-.63-2.6-.66-3.62-.05Zm-2.77,6.36c-1.64-.11-3.15-.38-4.68.11.52.66,4.03.66,4.68-.11Zm-.3-4.05c-.66-.44-3.07-.44-3.64.05.58.55,3.23.49,3.64-.05Zm-5.7,1.56c.03-.08-.16-.27-.25-.27-.58.03-1.23-.11-1.73.47.6.44,1.15.22,1.7.14.11-.03.25-.19.27-.33Zm-.82-2.71l.08-.25c-.19-.14-.36-.33-.58-.36-1.29-.19-2.58-.38-3.86-.49-.68-.05-1.37-.03-2.05.05-.6.05-1.15.25-1.73.36v.3c.19.05.38.14.58.14,1.1,0,2.19-.05,3.29-.03,1.04.03,2.08.16,3.12.25.38.03.77.03,1.15.03Zm-2.47,8.55c.58.82,2.05.82,2.47.08-.82-.03-1.59-.05-2.47-.08Zm2.19-3.56c-.88-.41-1.67-.25-2.49.11.71.58,2.25.49,2.49-.11Zm-2.14-3.31c.11,0,.22-.19.33-.3-.14-.08-.27-.25-.41-.25-.74,0-1.51,0-2.25.08-.25,0-.47.16-.68.27l.08.33c.99-.05,1.95-.05,2.93-.14Zm-1.84,5.92c.19-.71.08-.85-.52-.71-.16.03-.36,0-.52.03-.16.05-.27.16-.44.22.03.08.03.16.05.25.47.05.93.14,1.42.22Zm-.82-4.27c-.68-.52-1.95-.27-2.3.44.79,0,1.59.25,2.3-.44Zm-.74,8.03c-.6-.25-1.21-.19-1.92.22.71.52,1.51.44,1.92-.22Zm-1.04-4.96l-.08-.16c-1.23.22-2.47-.38-3.75.08.08.14.11.16.11.16,1.07.55,2.22.44,3.34.33.14,0,.25-.27.38-.41Zm-1.75-3.89c.03-.11.05-.27.08-.47-1.23-.08-2.49-.55-3.64.16v.22c1.18.03,2.36.05,3.56.08Zm-2.93,6.22c.66.77,1.45.63,1.7-.22-.6.08-1.15.14-1.7.22Zm.79-4.27c-1.4-.33-2.49-.08-2.52.6.79-.25,1.75.22,2.52-.6Zm-.99,6.11c-1.01.08-1.95-.27-2.9.11.74.71,2.55.68,2.9-.11Zm-2.88-7.34c-.93-.16-1.59.05-1.81.52.85.36,1.53.16,1.81-.52Zm-.58-2.33c-.85-.11-1.67-.16-2.47.55,1.67.36,2.44.19,2.47-.55Zm.11,7.01c-.14-.08-.25-.19-.33-.19-.68.08-1.37.19-2.05.33-.05,0-.16.14-.16.19,0,.08.11.19.19.22.63.3,1.78.05,2.36-.55Zm-5.67-2.85c.66.99,2.49.99,3.15.08-1.04-.03-2.05-.05-3.15-.08Zm-.27-2.16c.05-.08-.08-.33-.11-.49-.38.08-.63.11-.85.22-.14.05-.19.25-.27.36.22.08.47.19.71.19.16,0,.41-.11.52-.27Zm-1.64,10.36c.6.68,1.84.55,2.36-.27-.82.11-1.56.19-2.36.27Zm1.23-4.14c-1.21-.33-2.33-.3-3.51.33.6.38,3.23.11,3.51-.33Zm-1.78-8.03c-.11-.08-.22-.22-.36-.22-.79-.05-1.62-.05-2.3.44v.22c.82-.05,1.62-.08,2.44-.16.08,0,.14-.16.22-.27Zm-2.25,5.12c-.03-.05-.05-.14-.11-.22-.52.11-1.04.16-1.56.27-.16.05-.27.19-.41.3.14.11.3.27.44.27.41-.03.82-.08,1.21-.19.16-.05.3-.27.44-.44Zm-2.79,5.01c-.08-.05-.14-.14-.19-.19-.68.11-1.37.19-2.08.3-.08.03-.16.19-.19.3,0,.05.14.14.22.16.63.33,1.26.05,1.89-.11.14-.03.22-.3.36-.47Zm0-2.85c-.55-.49-1.84-.16-1.97.49.79.3,1.53.11,1.97-.49Zm-2.68-4.74c.11-.05.19-.22.19-.33-.03-.08-.16-.25-.25-.27-.44-.11-1.56.47-1.78.93.74.41,1.29.05,1.84-.33Zm-1.75,3.78c.38-.03.47-.19.41-.52-1.21.11-2.44-.14-3.59.3v.25c.36.08.74.27,1.12.25.68-.03,1.37-.19,2.05-.27Zm.38-7.31c-.96.05-1.95-.41-2.74.49.74.11,1.48.08,2.19.11.41,0,.55-.16.55-.6Zm-3.42,2.41c-.55-.52-3.21-.05-3.86.68,1.1.16,3.4-.25,3.86-.68Z"/>
  <path class="cls-3" d="m106.94,57.58c.03.08-.19.33-.33.36-.88.16-1.78.3-2.68.41-1.62.19-3.23.36-4.85.55-.6.05-1.21.16-1.81.19-1.21.11-2.41.22-3.59.27-.82.03-1.64-.08-2.44-.05-1.34.03-2.63-.33-3.86-.79-.41-.14-.77-.71-.9-1.15-.38-1.21.14-2.19.93-3.12.47-.58.93-1.29,1.12-2,.25-.96.22-1.97.27-2.96.03-.55-.03-1.1-.05-1.67-.03-.05-.3-.22-.36-.16-.6.44-1.21.93-1.78,1.4-.74.6-1.48,1.23-2.25,1.84-.41.33-.9.22-1.32,0-.58-.3-1.1-.47-1.78-.36-.6.05-1.26-.19-1.89-.14-.99.05-1.97.22-2.93.38-.79.11-1.53.25-2.25-.3-.52-.41-1.23-.6-1.73-1.07-.63-.55-1.12-1.26-1.75-2-.05,0-.3-.03-.44.05-.22.14-.52.38-.52.55.03,1.97.41,3.86,1.45,5.56.44.68,1.12,1.21,1.73,1.81.03.05.16.08.19.11.08.6.22,1.21.22,1.81.03.85-.08,1.73-.08,2.58,0,.71.03,1.45.08,2.19.08,1.15.19,2.3.38,3.45.11.55.44,1.07.68,1.59.25.55.58,1.1.82,1.64.36.85,1.1,1.04,1.86,1.23.85.25,1.67.03,2.49,0,.79-.03,1.48-.25,2.16-.52,1.01-.38,1.64-1.15,2.22-2,.11-.16.27-.3.44-.36.08,0,.25.22.33.36.77,1.32,1.07,2.77,1.15,4.25.08,1.84.25,3.64.16,5.48-.08,1.81-.38,3.64-.6,5.45,0,.05-.03.14-.03.19-.03.88-.05,1.78-.08,2.74-.33.03-.49.03-.74.05.08.66.19,1.26.19,1.89,0,.44.11.74.47,1.01.3.22.58.41.9.41v1.15c-.55-.03-1.07,0-1.59-.08-.44-.08-1.01-.22-1.23-.52-.85-1.26-1.59-2.58-2.36-3.89-.05-.08-.05-.22-.08-.33-.03-.77-.05-1.51-.05-2.27,0-.82.03-1.64.05-2.41.41-.08.68-.05.9-.16.14-.05.16-.3.25-.47-.14-.03-.27-.05-.44-.08-.22-.03-.41-.08-.63-.11v-.16c.41-.22,1.15.05,1.18-.74q-.93-.11-.49-1.07c.14-.27.08-.6.08-.9-.05-.03-.14-.05-.22-.08-.19.36-.38.74-.66,1.26-.25-.47-.47-.79-.66-1.12-.19.05-.41.11-.71.16.25.36.47.63.77,1.01-.44.08-.77.14-1.12.19,0,.05-.03.11-.05.14.16.08.33.19.49.25.22.11.44.19.66.27-.25.08-.47.16-.71.22-.19.03-.38,0-.58.03q.14.38,1.07.82c-.22.55-.6.79-1.23.68,0,.19-.05.41,0,.44.33.14.63.25.9.36,0,.77-.11,1.53-.03,2.27.05.77.14,1.56.47,2.22.52,1.1,1.26,2.05,1.89,3.1.11.14.08.33.11.52-.16-.03-.33,0-.47-.03-.96-.19-1.92-.44-2.9-.58-.44-.05-.9.05-1.37.05-.14,0-.38-.16-.41-.3-.03-.41.03-.82,0-1.26,0-.36.16-.49.52-.47.41.03.71-.14.9-.68-.44,0-.85-.03-1.23-.03,0-.71.03-.68.68-.63.16.03.36-.14.52-.25.05-.05.05-.19.05-.3-.16,0-.36,0-.52-.03-.05,0-.11,0-.27-.03.03-.3.03-.6.03-.93q-1.12.19-1.32,1.23c-.03.05-.05.11-.05.16-.19.77-.44,1.51-.27,2.3.05.41,0,.88-.16,1.26-.11.27-1.12.22-1.34.03.22-1.12.47-2.22.63-3.31.22-1.62.63-3.18.38-4.82-.11-.68-.14-1.37-.19-2.05s-.11-1.37-.19-2.05c0-.08-.05-.14-.19-.38-.16.3-.33.49-.38.71-.14.38-.3.58-.74.36-.27-.14-.6-.16-.93-.25-.03.11-.08.19-.11.27.19.14.36.36.58.41.68.11.85.55.88,1.15.05.96.11,1.92.19,2.85.03.58-.22.9-.77.93-.16.03-.33.08-.52.14.27.74.93.33,1.32.55-.11.55-.41.9-.96.88-.58-.03-.52.3-.47.74.44-.05.85-.08,1.21-.11,0,.19.03.36,0,.49-.14.6-.14,1.29-.47,1.73-.33.49-.49.96-.52,1.51-.05.55-.3.74-.82.79-1.29.14-2.55.36-3.84.55-.33.05-.68.11-.96.14.16-.9.36-1.75.49-2.58.22-1.23.41-2.47.55-3.7.11-.88.14-1.81.08-2.68-.05-.71-.3-1.37-.38-2.08-.16-1.23-.68-2.3-1.34-3.31-.77-1.12-1.53-2.22-2.3-3.34-.16-.22-.27-.49-.36-.74-.16-.58-.22-1.23-.47-1.78-.52-1.1-1.01-2.19-.96-3.42-1.07-.05-1.4.11-1.51.77-.14.79-.27,1.59-.49,2.38-.16.68-.55,1.32-.63,2-.11,1.01-.11,2.08-.14,3.1h-.47c.05-.58-.71-.33-.79-.77.52-1.48.99-3.01.96-4.63,0-.14.08-.3.14-.44.22-.47.25-.88-.19-1.21-.47-.33-1.04-.19-1.51.27l-.47-.38c.22-.19.38-.41.52-.66.74-1.23,1.37-2.52,2.05-3.78.79-1.4,1.37-2.88,1.73-4.44.14-.68.55-1.4.47-2.03-.16-.9.49-1.04.88-1.51.52-.63.93-1.4,1.32-2.11.82-1.48.77-3.15.88-4.77.08-.79-.27-1.62-.44-2.44-.49.11-.85.19-1.26.27-.22,1.18-.96,2.03-1.84,2.85-.33.3-.66.66-1.01.96-.41.33-.85.47-1.4.36-.55-.14-1.1-.05-1.67,0-1.97.22-3.97.36-5.95.44-1.01.03-2.05-.19-3.07-.25-1.01-.03-2.05-.05-3.07.08-.68.11-1.32.33-1.86-.33-.14-.16-.47-.22-.71-.36-.11-.08-.27-.16-.33-.3-.38-.96-1.53-1.32-1.75-2.36-.05-.19-.22-.38-.19-.58.03-.58-.25-.79-.74-.68l-4.71-.55c.3-.27.63-.55.96-.79,1.23-.93,2.33-2,3.53-2.9.49-.38,1.12-.6,1.67-.9,1.86-1.01,3.73-2.08,5.62-3.07,1.42-.77,2.93-1.23,4.52-1.56.99-.22,1.86-.79,2.85-1.07,1.53-.47,3.12-.88,4.74-.96,1.21-.08,2.41-.22,3.62-.36h.44c1.45,0,2.93,0,4.41.03,1.15.03,2.3.16,3.45.22.93.03,1.84.05,2.77.08,1.15,0,2.33-.08,3.45,0,1.32.11,2.63.36,3.92.6,1.81.36,3.62.68,5.4,1.12,1.01.25,1.97.63,2.93,1.01.9.36,1.78.71,2.63,1.18.96.52,1.95,1.04,2.68,1.78.52.55,1.23.93,1.62,1.64.41.68,1.04,1.21,1.56,1.81,1.07,1.23,2.19,2.41,3.21,3.67.63.82,1.12,1.75,1.7,2.6.49.77,1.04,1.48,1.51,2.27.25.44.36.96.58,1.45.36.9.79,1.81,1.12,2.74.19.47.27,1.01.36,1.53Zm-32.79,18.33c.05-.08-.16-.44-.19-.44-.36.08-.68.22-1.07.36.41.58,1.04.6,1.26.08Zm-1.7,3.29c1.07.16,1.23.08,1.18-.77-.36.33-1.07,0-1.18.77Z"/>
  <path class="cls-2" d="m96.83,94.23c-.88.66-3.07.41-3.18-.27,1.1-.11,2.14-.03,3.18.27Z"/>
  <path class="cls-2" d="m95.71,90.84c-1.26.14-2.44.22-3.62-.05,1.01-.6,3.1-.58,3.62.05Z"/>
  <path class="cls-6" d="m93.71,86.15c-.03.49-.03.99-.05,1.51-.3,0-.58-.03-.93-.03.08-.49.14-.99.22-1.51.27,0,.49.03.77.03Z"/>
  <path class="cls-6" d="m92.48,86.04c-.08.55-.16.99-.25,1.62-.25-.19-.49-.3-.49-.41-.03-.38,0-.79.11-1.18.03-.05.41-.03.63-.03Z"/>
  <path class="cls-2" d="m84.64,97.25c1.53-.49,3.04-.22,4.68-.11-.66.77-4.16.77-4.68.11Z"/>
  <path class="cls-2" d="m85.38,93.14c.58-.49,2.99-.49,3.64-.05-.41.55-3.07.6-3.64.05Z"/>
  <path class="cls-6" d="m87.68,86.21c-.19.47.14,1.1-.52,1.45,0-.6.03-1.12.05-1.86.22.19.47.36.47.41Z"/>
  <path class="cls-6" d="m87.41,49.74c-.16,1.48-.05,3.04-1.4,4.22-.03-.14-.03-.33-.11-.47-.27-.41-.52-.82-.85-1.18-.47-.49-.49-.63.11-1.01.52-.33,1.01-.66,1.51-1.01.22-.16.41-.41.6-.63.03.03.08.05.14.08Z"/>
  <path class="cls-2" d="m86.51,89.88c.14.55-.25.71-.6.68-.93-.05-1.84-.19-2.77-.27-.08,0-.16-.05-.22-.05-1.34.19-2.47-.6-3.75-.74-.44-.03-.93-.08-1.32.05-.88.33-1.75.22-2.63.22-.25.03-.55.08-.74.25-.52.41-1.1.3-1.64.27-.38-.03-.74-.03-1.1-.03-.47.03-.96.05-1.42.08-.25.03-.52.03-.74.11-.77.33-1.51.66-2.25.99-.19.08-.38.11-.58.11-.71.03-1.42.05-2.14.05-.25,0-.47-.14-.71-.22-.16-.05-.36-.16-.55-.16-1.92.05-3.84.14-5.75.16-.82.03-1.64-.08-2.47-.05-1.18.05-2.36.19-3.53.27-.36.03-.74-.03-1.1-.03-.03-.08-.05-.16-.05-.25.38-.16.79-.36,1.21-.44.44-.11.9-.08,1.34-.11.52-.03.66-.3.38-.77-.27-.44-.47-.93-.79-1.29-.55-.63-.55-1.42-.77-2.14-.19-.6-.44-1.18-.63-1.78-.08-.22-.08-.47-.14-.68-.3-1.07-.27-2.16-.14-3.26.19-1.29.36-2.55.63-3.81.05-.25.6-.41.93-.55.11-.03.36.19.47.36.55.96,1.1,1.92,1.59,2.9.19.41.3.9.33,1.37.05,1.01-.03,2.03.05,3.04.11,1.45.19,2.9,1.07,4.22.44.68.79,1.45,1.34,2.05.08.11.22.22.36.22.68.03,1.4.03,2.11.05.38,0,.63-.33.55-.77-.22-.99-.41-1.97-.93-2.88-.6-1.04-1.15-2.05-1.67-3.12-.33-.71-.6-1.51-.82-2.27-.16-.49-.22-1.01-.22-1.53-.03-.66,0-1.29.11-1.95.11-.71.33-1.42.52-2.22-.19.05-.44.11-.63.22-.47.3-1.07.22-1.34-.22-.16-.3-.3-.63-.41-.99-.03-.11.03-.27.08-.38.3-.41,1.15-.38,1.51-.03.25.25.52.41.47.82,0,.03.22.11.38.19.11-.63.22-1.15.27-1.56-.58.03-1.1.19-1.48.05-.74-.3-.68-1.07-.66-1.75.49-.22.99-.41,1.45.08.14.16.22.38.36.55.16.19.36.38.58.63.27-.6.47-1.1.74-1.7-.27-.05-.52-.14-.77-.19s-.47-.08-.68-.14c-.47-.11-.82-.38-.71-.82.08-.3.47-.6.79-.71.52-.16.88.19.99.68.08.33.11.6.58.68.11-.63.19-1.23.27-1.78-.27-.19-.55-.27-.71-.49-.27-.33-.47-.74-.05-1.15.47-.47,1.04-.6,1.51-.27.44.33.41.74.19,1.21-.05.14-.14.3-.14.44.03,1.62-.44,3.15-.96,4.63.08.44.85.19.79.77-.03.27-.16.52-.27.88-.27-.38-.47-.68-.71-1.01-.19.58-.38,1.15-.58,1.75.38-.14.66-.25.93-.27.44-.08.66.27.66.58,0,.33-.19.68-.41.9-.14.16-.52.16-.66-.22-.05-.19-.19-.33-.38-.63-.11.38-.22.6-.19.79.05.93-.19,1.89.19,2.85.19.44-.03,1.04.03,1.53.05.38.16.79.38,1.1.55.85,1.21,1.62,1.7,2.49.55.96,1.07,1.95,1.18,3.07.08.52.16,1.04.36,1.48.11.25.47.44.74.52.25.11.58.05.85.03.38-.05.74-.08.88-.66.25-1.12.25-2.16.08-3.31-.25-1.53-.9-2.85-1.62-4.16-.66-1.26-1.32-2.52-1.86-3.81-.27-.66-.58-1.4-.49-2.16,0-.16-.11-.33-.16-.49-.05-.11-.16-.25-.16-.36v-.88c.03-1.01.03-2.08.14-3.1.08-.68.47-1.32.63-2,.22-.79.36-1.59.49-2.38.11-.66.44-.82,1.51-.77-.05,1.23.44,2.33.96,3.42.25.55.3,1.21.47,1.78.08.25.19.52.36.74.77,1.12,1.53,2.22,2.3,3.34.66,1.01,1.18,2.08,1.34,3.31.08.71.33,1.37.38,2.08.05.88.03,1.81-.08,2.68-.14,1.23-.33,2.47-.55,3.7-.14.82-.33,1.67-.49,2.58.27-.03.63-.08.96-.14,1.29-.19,2.55-.41,3.84-.55.52-.05.77-.25.82-.79.03-.55.19-1.01.52-1.51.33-.44.33-1.12.47-1.73.03-.14,0-.3,0-.49-.36.03-.77.05-1.21.11-.05-.44-.11-.77.47-.74.55.03.85-.33.96-.88-.38-.22-1.04.19-1.32-.55.19-.05.36-.11.52-.14.55-.03.79-.36.77-.93-.08-.93-.14-1.89-.19-2.85-.03-.6-.19-1.04-.88-1.15-.22-.05-.38-.27-.58-.41.03-.08.08-.16.11-.27.33.08.66.11.93.25.44.22.6.03.74-.36.05-.22.22-.41.38-.71.14.25.19.3.19.38.08.68.14,1.37.19,2.05s.08,1.37.19,2.05c.25,1.64-.16,3.21-.38,4.82-.16,1.1-.41,2.19-.63,3.31.22.19,1.23.25,1.34-.03.16-.38.22-.85.16-1.26-.16-.79.08-1.53.27-2.3,0-.05.03-.11.05-.16q.19-1.04,1.32-1.23c0,.33,0,.63-.03.93.16.03.22.03.27.03.16.03.36.03.52.03,0,.11,0,.25-.05.3-.16.11-.36.27-.52.25-.66-.05-.68-.08-.68.63.38,0,.79.03,1.23.03-.19.55-.49.71-.9.68-.36-.03-.52.11-.52.47.03.44-.03.85,0,1.26.03.14.27.3.41.3.47,0,.93-.11,1.37-.05.99.14,1.95.38,2.9.58.14.03.3,0,.47.03-.03-.19,0-.38-.11-.52-.63-1.04-1.37-2-1.89-3.1-.33-.66-.41-1.45-.47-2.22-.08-.74.03-1.51.03-2.27-.27-.11-.58-.22-.9-.36-.05-.03,0-.25,0-.44.63.11,1.01-.14,1.23-.68q-.93-.44-1.07-.82c.19-.03.38,0,.58-.03.25-.05.47-.14.71-.22-.22-.08-.44-.16-.66-.27-.16-.05-.33-.16-.49-.25.03-.03.05-.08.05-.14.36-.05.68-.11,1.12-.19-.3-.38-.52-.66-.77-1.01.3-.05.52-.11.71-.16.19.33.41.66.66,1.12.27-.52.47-.9.66-1.26.08.03.16.05.22.08,0,.3.05.63-.08.9q-.44.96.49,1.07c-.03.79-.77.52-1.18.74v.16c.22.03.41.08.63.11.16.03.3.05.44.08-.08.16-.11.41-.25.47-.22.11-.49.08-.9.16-.03.77-.05,1.59-.05,2.41,0,.77.03,1.51.05,2.27.03.11.03.25.08.33.77,1.32,1.51,2.63,2.36,3.89.22.3.79.44,1.23.52.52.08,1.04.05,1.59.08h.33Zm-18.85-3.4c.05-.14.03-.27.03-.41v-3.4c-.03-.85.03-1.7-.14-2.49-.27-1.4-.66-2.77-1.48-3.95-.6-.85-.99-1.81-1.78-2.55-.44-.44-.85-.99-1.07-1.56-.38-.99-.58-2.03-.88-3.04-.08,0-.16-.03-.27-.03-.22.66-.49,1.29-.63,1.95-.16.79-.25,1.64-.33,2.47-.03.36-.05.77.03,1.12.22.82.52,1.62.77,2.41.19.63.36,1.32.63,1.89.58,1.12,1.23,2.19,1.81,3.29.41.82.79,1.64,1.1,2.47.6,1.62.49,3.26.08,4.88-.03.14.08.3.11.44.14-.08.36-.16.38-.27.36-1.53.49-3.12.38-4.71-.03-.3-.08-.58-.16-.88-.14-.63-.3-1.23-.47-1.86,0-.11.11-.25.16-.41-.11-.16-.27-.38-.36-.63-.11-.3-.11-.66-.27-.93-.47-.77-1.12-1.45-1.48-2.27-.44-.96-.66-2-.93-3.01-.03-.11.22-.38.38-.41.25-.05.71-.03.74.08.22.71.33,1.45.47,2.16.05.16.11.3.19.41,1.07,1.4,1.97,2.88,2.11,4.68,0,.33-.05.74.11.99.47.74.36,1.56.33,2.36,0,.41-.03.79,0,1.21,0,.11.14.19.19.3.11-.08.22-.16.25-.27Zm-11.97,3.89c.03-.19.08-.41-.03-.52-.71-.82-.93-1.84-1.23-2.82-.16-.63-.05-1.21-.08-1.78-.03-.9-.25-1.78-.36-2.68-.05-.55.08-1.15-.11-1.64-.3-.82-.79-1.56-1.21-2.33-.03-.05-.11-.11-.33-.3-.14.82-.33,1.48-.33,2.16.03,1.34.16,2.71.16,4.05,0,1.23.27,2.36.82,3.42.25.49.52.99.77,1.48.33-.44.33-.52.11-1.01-.33-.71-.66-1.4-.93-2.14-.58-1.51-.22-3.1-.22-4.66,0-.11.22-.22.38-.41.05.22.08.3.05.36-.27,2.27.47,4.41,1.04,6.55.22.88.55,1.75,1.48,2.27Z"/>
  <path class="cls-6" d="m86.51,85.96c0,.44-.03.9-.03,1.34q-.63.05-.52-1.37c.19.03.36.03.55.03Z"/>
  <path class="cls-6" d="m84.94,55.93c.11.44.08.9.05,1.37-.03.77-.08,1.53-.19,2.3-.14,1.04-.25,2.08-.66,3.07-.3.77-.33,1.62-.58,2.38-.44,1.29-.77,2.74-2.27,3.21-1.01.33-2.08.41-3.15.58-1.34.03-2.74-1.21-3.01-2.93-.19-1.32-.3-2.68-.49-4-.25-1.78-.3-3.56-.16-5.34.05-.79.08-1.62.33-2.33.25-.66.79-1.18,1.15-1.81.49-.9,1.34-.71,2.14-.77,1.15-.08,2.33-.19,3.48-.22.58-.03,1.53.71,1.78,1.23.22.47.55.88.77,1.32.3.63.6,1.29.82,1.95Zm-1.45,2.77c1.01-.25,1.29-1.04,1.29-1.73-.03-.6-.82-1.51-1.45-1.64-.88-.19-1.64.11-2.41.41-.16.05-.36.22-.41.38-.52,1.29.3,2.79,1.81,2.96.38-.14.77-.3,1.18-.38Zm-2.52,8.3c.74.03,1.45-.77,1.4-1.56,0-.25,0-.58-.14-.71-.47-.52-2.11-.14-2.38.49-.41.99.08,1.75,1.12,1.78Zm-2.44-9.1c.27-.58.16-1.01-.16-1.56-.38-.66-1.51-1.15-2.16-.82-.88.41-1.37,1.01-1.34,2.03.05.3,0,.66.16.9.25.47,1.48.88,2,.68.66-.22,1.15-.6,1.51-1.23Zm-.08,8.11c.03-.93-.27-1.23-1.29-1.29-.9-.03-1.26.25-1.29.96-.03.74.52,1.42,1.18,1.45.77.03,1.4-.47,1.4-1.12Z"/>
  <path class="cls-2" d="m84.78,56.97c0,.68-.27,1.48-1.29,1.73-.41.08-.79.25-1.18.38-1.51-.16-2.33-1.67-1.81-2.96.05-.16.25-.33.41-.38.77-.3,1.53-.6,2.41-.41.63.14,1.42,1.04,1.45,1.64Zm-.6.14c.03-.49-.77-1.07-1.48-1.1-.82-.03-1.29.41-1.29,1.21-.03.71.41,1.18,1.07,1.21.82,0,1.67-.66,1.7-1.32Z"/>
  <path class="cls-5" d="m82.7,56.02c.71.03,1.51.6,1.48,1.1-.03.66-.88,1.32-1.7,1.32-.66-.03-1.1-.49-1.07-1.21,0-.79.47-1.23,1.29-1.21Zm-.19,1.92c.63.03.77-.25.66-1.32-.47.14-1.15-.36-1.26.52-.03.36.11.77.6.79Z"/>
  <path class="cls-2" d="m83.08,94.37c.08,0,.27.19.25.27-.03.14-.16.3-.27.33-.55.08-1.1.3-1.7-.14.49-.58,1.15-.44,1.73-.47Z"/>
  <path class="cls-2" d="m83.16,56.62c.11,1.07-.03,1.34-.66,1.32-.49-.03-.63-.44-.6-.79.11-.88.79-.38,1.26-.52Z"/>
  <path class="cls-2" d="m82.59,91.69l-.08.25c-.38,0-.77,0-1.15-.03-1.04-.08-2.08-.22-3.12-.25-1.1-.03-2.19.03-3.29.03-.19,0-.38-.08-.58-.14v-.3c.58-.11,1.12-.3,1.73-.36.68-.08,1.37-.11,2.05-.05,1.29.11,2.58.3,3.86.49.22.03.38.22.58.36Z"/>
  <path class="cls-2" d="m82.37,65.44c.05.79-.66,1.59-1.4,1.56-1.04-.03-1.53-.79-1.12-1.78.27-.63,1.92-1.01,2.38-.49.14.14.14.47.14.71Z"/>
  <path class="cls-2" d="m82.51,100.56c-.41.74-1.89.74-2.47-.08.88.03,1.64.05,2.47.08Z"/>
  <path class="cls-2" d="m79.74,97.03c.82-.36,1.62-.52,2.49-.11-.25.6-1.78.68-2.49.11Z"/>
  <path class="cls-2" d="m80.42,93.3c-.11.11-.22.3-.33.3-.99.08-1.95.08-2.93.14l-.08-.33c.22-.11.44-.27.68-.27.74-.08,1.51-.08,2.25-.08.14,0,.27.16.41.25Z"/>
  <path class="cls-2" d="m78.37,56.34c.33.55.44.99.16,1.56-.36.63-.85,1.01-1.51,1.23-.52.19-1.75-.22-2-.68-.16-.25-.11-.6-.16-.9-.03-1.01.47-1.62,1.34-2.03.66-.33,1.78.16,2.16.82Zm-.68.79c.03-.66-.27-.99-.77-.93-.22.03-.47.05-.68.11-.58.16-.96.85-.85,1.51.11.55.66.88,1.26.77.55-.08,1.01-.74,1.04-1.45Z"/>
  <path class="cls-2" d="m77.16,64.73c1.01.05,1.32.36,1.29,1.29,0,.66-.63,1.15-1.4,1.12-.66-.03-1.21-.71-1.18-1.45.03-.71.38-.99,1.29-.96Z"/>
  <path class="cls-2" d="m77.74,98.81c.6-.14.71,0,.52.71-.49-.08-.96-.16-1.42-.22-.03-.08-.03-.16-.05-.25.16-.05.27-.16.44-.22.16-.03.36,0,.52-.03Z"/>
  <path class="cls-5" d="m76.92,56.21c.49-.05.79.27.77.93-.03.71-.49,1.37-1.04,1.45-.6.11-1.15-.22-1.26-.77-.11-.66.27-1.34.85-1.51.22-.05.47-.08.68-.11Zm0,1.59c.19-.27.22-.6.33-.9-.05-.05-.11-.08-.19-.14-.27.05-.6.03-.82.19-.19.14-.3.44-.33.68,0,.16.25.44.38.44.22,0,.52-.11.63-.27Z"/>
  <path class="cls-2" d="m77.25,56.89c-.11.3-.14.63-.33.9-.11.16-.41.27-.63.27-.14,0-.38-.27-.38-.44.03-.25.14-.55.33-.68.22-.16.55-.14.82-.19.08.05.14.08.19.14Z"/>
  <path class="cls-2" d="m75.14,95.69c.36-.71,1.62-.96,2.3-.44-.71.68-1.51.44-2.3.44Z"/>
  <path class="cls-2" d="m74.78,103.49c.71-.41,1.32-.47,1.92-.22-.41.66-1.21.74-1.92.22Z"/>
  <path class="cls-2" d="m75.57,98.15l.08.16c-.14.14-.25.41-.38.41-1.12.11-2.27.22-3.34-.33,0,0-.03-.03-.11-.16,1.29-.47,2.52.14,3.75-.08Z"/>
  <path class="cls-6" d="m74.53,51.69c.27.16.44.25.11.58-.41.38-.66.9-.99,1.42-.41-.38-.74-.6-.96-.9-.25-.3-.33-.71-.49-1.07s-.36-.71-.52-1.07c-.08-.19-.16-.36-.22-.55,0-.08.05-.22.14-.25s.22-.03.3.05c.16.11.3.25.44.38.6.68,1.42.99,2.19,1.4Z"/>
  <path class="cls-2" d="m73.96,75.47s.25.36.19.44c-.22.52-.85.49-1.26-.08.38-.14.71-.27,1.07-.36Z"/>
  <path class="cls-2" d="m73.99,93.96c-.03.19-.05.36-.08.47-1.21-.03-2.38-.05-3.56-.08v-.22c1.15-.71,2.41-.25,3.64-.16Z"/>
  <path class="cls-2" d="m73.63,78.43c.05.85-.11.93-1.18.77.11-.77.82-.44,1.18-.77Z"/>
  <path class="cls-2" d="m72.67,100.42c-.25.85-1.04.99-1.7.22.55-.08,1.1-.14,1.7-.22Z"/>
  <path class="cls-2" d="m69.25,96.97c.03-.68,1.12-.93,2.52-.6-.77.82-1.73.36-2.52.6Z"/>
  <path class="cls-2" d="m67.88,102.59c.96-.38,1.89-.03,2.9-.11-.36.79-2.16.82-2.9.11Z"/>
  <path class="cls-2" d="m66.1,95.66c.22-.47.88-.68,1.81-.52-.27.68-.96.88-1.81.52Z"/>
  <path class="cls-4" d="m67.68,86.07c0,.14.03.27-.03.41-.03.11-.14.19-.25.27-.05-.11-.19-.19-.19-.3-.03-.41,0-.79,0-1.21.03-.79.14-1.62-.33-2.36-.16-.25-.11-.66-.11-.99-.14-1.81-1.04-3.29-2.11-4.68-.08-.11-.14-.25-.19-.41-.14-.71-.25-1.45-.47-2.16-.03-.11-.49-.14-.74-.08-.16.03-.41.3-.38.41.27,1.01.49,2.05.93,3.01.36.82,1.01,1.51,1.48,2.27.16.27.16.63.27.93.08.25.25.47.36.63-.05.16-.16.3-.16.41.16.63.33,1.23.47,1.86.08.3.14.58.16.88.11,1.59-.03,3.18-.38,4.71-.03.11-.25.19-.38.27-.03-.14-.14-.3-.11-.44.41-1.62.52-3.26-.08-4.88-.3-.82-.68-1.64-1.1-2.47-.58-1.1-1.23-2.16-1.81-3.29-.27-.58-.44-1.26-.63-1.89-.25-.79-.55-1.59-.77-2.41-.08-.36-.05-.77-.03-1.12.08-.82.16-1.67.33-2.47.14-.66.41-1.29.63-1.95.11,0,.19.03.27.03.3,1.01.49,2.05.88,3.04.22.58.63,1.12,1.07,1.56.79.74,1.18,1.7,1.78,2.55.82,1.18,1.21,2.55,1.48,3.95.16.79.11,1.64.14,2.49v3.4Z"/>
  <path class="cls-2" d="m64.86,93.36c.79-.71,1.62-.66,2.47-.55-.03.74-.79.9-2.47.55Z"/>
  <path class="cls-2" d="m67.11,99.63c.08,0,.19.11.33.19-.58.6-1.73.85-2.36.55-.08-.03-.19-.14-.19-.22,0-.05.11-.19.16-.19.68-.14,1.37-.25,2.05-.33Z"/>
  <path class="cls-3" d="m64.51,86.62c.16,1.15.16,2.19-.08,3.31-.14.58-.49.6-.88.66-.27.03-.6.08-.85-.03-.27-.08-.63-.27-.74-.52-.19-.44-.27-.96-.36-1.48-.11-1.12-.63-2.11-1.18-3.07-.49-.88-1.15-1.64-1.7-2.49-.22-.3-.33-.71-.38-1.1-.05-.49.16-1.1-.03-1.53-.38-.96-.14-1.92-.19-2.85-.03-.19.08-.41.19-.79.19.3.33.44.38.63.14.38.52.38.66.22.22-.22.41-.58.41-.9,0-.3-.22-.66-.66-.58-.27.03-.55.14-.93.27.19-.6.38-1.18.58-1.75.25.33.44.63.71,1.01.11-.36.25-.6.27-.88h.47v.88c0,.11.11.25.16.36.05.16.16.33.16.49-.08.77.22,1.51.49,2.16.55,1.29,1.21,2.55,1.86,3.81.71,1.32,1.37,2.63,1.62,4.16Z"/>
  <path class="cls-1" d="m64.26,48.62c0,2.3-.25,4.47-2.41,6-.08-.22-.14-.41-.22-.58-.25-.55-.49-1.1-.77-1.64-.19-.41-.11-.88.25-1.07,1.23-.6,2.05-1.64,2.99-2.63l.16-.08Z"/>
  <path class="cls-2" d="m64.92,97.05c-.66.9-2.49.9-3.15-.08,1.1.03,2.11.05,3.15.08Z"/>
  <path class="cls-2" d="m61.38,94.32c.03.16.16.41.11.49-.11.16-.36.27-.52.27-.25,0-.49-.11-.71-.19.08-.11.14-.3.27-.36.22-.11.47-.14.85-.22Z"/>
  <path class="cls-1" d="m61.03,55.96c.44.96.08,1.89-.11,2.82-.41,2.11-1.56,3.92-2.47,5.81-.36.77-.77,1.48-1.23,2.19-.55.82-1.45,1.12-2.38,1.23-1.23.14-2.52.05-3.75.3-1.07.19-2.11,0-3.01-.33-.79-.27-1.45-1.1-2.08-1.75-.41-.44-.68-.99-.99-1.51-.14-.25-.14-.55-.25-.85-.49-1.64-1.1-3.29-1.48-4.96-.27-1.07-.19-2.16.77-3.04.44-.38.68-.99,1.01-1.48.14-.25.3-.49.36-.58.47,0,.77.05,1.04,0,.6-.08,1.15-.22,1.78.03.22.11.63-.22.96-.3.16-.05.38-.14.55-.11.55.14,1.04.25,1.51-.19.11-.08.38-.05.52.03.77.47,1.12.63,2-.19.68.38,1.34.74,2.11.22.08-.08.41.08.55.22.58.41,1.1.38,1.53-.08.22-.25.44-.49.79-.11.05.08.27.08.38.05.55-.19.79.14.96.55.33.68.63,1.37.93,2.03Zm-1.62,2.77c.85-1.07.36-2.33-.55-2.79-.63-.33-1.4-.41-2.05-.6-.41.03-.74.08-1.07.11-1.34.19-2.08,1.07-1.97,2.25.14,1.07,1.97,2.63,2.99,2.41.99-.19,1.97-.49,2.66-1.37Zm-2.47,6.11c-.03-.16,0-.3-.03-.38-.25-.41-1.45-.88-1.86-.6-.58.36-1.15.74-1.59,1.23-.25.27-.68.66-.38,1.18.41.74,1.81,1.1,2.41.52.49-.47.88-1.07,1.32-1.64.08-.11.11-.25.14-.3Zm-6.55,1.45c.27-.66.14-1.07-.63-1.81-.55-.52-1.81-.49-2.33.03-.47.47-.52,1.04-.11,1.42.38.36.85.63,1.26.93.19.14.41.22.47.27.63,0,1.12-.36,1.34-.85Zm-.82-8.14c.19-.36.33-.9.16-1.18-.3-.47-.79-.9-1.32-1.12-1.4-.66-2.74-.22-4,.55-.58.38-.88,1.01-.71,1.7.27,1.12,1.4,2.16,2.58,2.11.08,0,.16.03.22,0,.68-.14,1.42-.14,1.97-.49.49-.33.82-.99,1.1-1.56Z"/>
  <path class="cls-2" d="m62.2,104.89c-.52.82-1.75.96-2.36.27.79-.08,1.53-.16,2.36-.27Z"/>
  <path class="cls-2" d="m57.57,101.36c1.18-.63,2.3-.66,3.51-.33-.27.44-2.9.71-3.51.33Z"/>
  <path class="cls-2" d="m58.86,55.93c.9.47,1.4,1.73.55,2.79-.68.88-1.67,1.18-2.66,1.37-1.01.22-2.85-1.34-2.99-2.41-.11-1.18.63-2.05,1.97-2.25.33-.03.66-.08,1.07-.11.66.19,1.42.27,2.05.6Zm.11,2.38c.25-.55.03-1.56-.41-1.95-.9-.85-2.38-.82-3.37-.33-.58.33-.93,1.67-.55,2.11.63.71,1.34,1.32,2.36,1.29.14,0,.27.03.41.03.9-.11,1.12-.11,1.56-1.15Z"/>
  <path class="cls-2" d="m58.94,92.78c.14,0,.25.14.36.22-.08.11-.14.27-.22.27-.82.08-1.62.11-2.44.16v-.22c.68-.49,1.51-.49,2.3-.44Z"/>
  <path class="cls-5" d="m58.56,56.37c.44.38.66,1.4.41,1.95-.44,1.04-.66,1.04-1.56,1.15-.14,0-.27-.03-.41-.03-1.01.03-1.73-.58-2.36-1.29-.38-.44-.03-1.78.55-2.11.99-.49,2.47-.52,3.37.33Zm-.14,1.01c-.3-.22-.58-.58-.88-.58-.68-.03-1.48-.16-2.03.47-.08.11.03.49.19.6.74.58,1.78.47,2.71-.49Z"/>
  <path class="cls-1" d="m58.86,51.93c-.6.05-1.34-.33-1.86.33-.38-.74-1.37-.63-1.97.19-.16-.11-.41-.22-.44-.36-.11-.52-.49-.27-.77-.27-.19,0-.47.11-.58.25-.47.58-.77.36-1.1-.14,1.59-.41,3.21-.41,4.82-.41.27,0,.55-.05.82-.08.47-.08.85-.03,1.07.49Z"/>
  <path class="cls-2" d="m57.55,56.81c.3,0,.58.36.88.58-.93.96-1.97,1.07-2.71.49-.16-.11-.27-.49-.19-.6.55-.63,1.34-.49,2.03-.47Z"/>
  <path class="cls-2" d="m53.74,95.22c1.64-.63,3.26-.38,4.88-.27-.88.63-4.38.79-4.88.27Z"/>
  <path class="cls-2" d="m56.94,97.9c.05.08.08.16.11.22-.14.16-.27.38-.44.44-.38.11-.79.16-1.21.19-.14,0-.3-.16-.44-.27.14-.11.25-.25.41-.3.52-.11,1.04-.16,1.56-.27Z"/>
  <path class="cls-2" d="m56.92,64.45c.03.08,0,.22.03.38-.03.05-.05.19-.14.3-.44.58-.82,1.18-1.32,1.64-.6.58-2,.22-2.41-.52-.3-.52.14-.9.38-1.18.44-.49,1.01-.88,1.59-1.23.41-.27,1.62.19,1.86.6Z"/>
  <path class="cls-4" d="m55.66,89.85c.11.11.05.33.03.52-.93-.52-1.26-1.4-1.48-2.27-.58-2.14-1.32-4.27-1.04-6.55.03-.05,0-.14-.05-.36-.16.19-.38.3-.38.41,0,1.56-.36,3.15.22,4.66.27.74.6,1.42.93,2.14.22.49.22.58-.11,1.01-.25-.49-.52-.99-.77-1.48-.55-1.07-.82-2.19-.82-3.42,0-1.34-.14-2.71-.16-4.05,0-.68.19-1.34.33-2.16.22.19.3.25.33.3.41.77.9,1.51,1.21,2.33.19.49.05,1.1.11,1.64.11.9.33,1.78.36,2.68.03.58-.08,1.15.08,1.78.3.99.52,2,1.23,2.82Z"/>
  <path class="cls-2" d="m54.07,102.95c.05.05.11.14.19.19-.14.16-.22.44-.36.47-.63.16-1.26.44-1.89.11-.08-.03-.22-.11-.22-.16.03-.11.11-.27.19-.3.71-.11,1.4-.19,2.08-.3Z"/>
  <path class="cls-2" d="m52.29,100.78c.14-.66,1.42-.99,1.97-.49-.44.6-1.18.79-1.97.49Z"/>
  <path class="cls-2" d="m51.77,95.22c0,.11-.08.27-.19.33-.55.38-1.1.74-1.84.33.22-.47,1.34-1.04,1.78-.93.08.03.22.19.25.27Z"/>
  <path class="cls-1" d="m51.71,51.99c-.44.16-.85.36-1.26.52-.14-.19-.27-.36-.47-.58.6,0,1.15.03,1.73.05Z"/>
  <path class="cls-2" d="m49.77,64.48c.77.74.9,1.15.63,1.81-.22.49-.71.85-1.34.85-.05-.05-.27-.14-.47-.27-.41-.3-.88-.58-1.26-.93-.41-.38-.36-.96.11-1.42.52-.52,1.78-.55,2.33-.03Z"/>
  <path class="cls-2" d="m50.23,98.81c.05.33-.03.49-.41.52-.68.08-1.37.25-2.05.27-.38.03-.77-.16-1.12-.25v-.25c1.15-.44,2.38-.19,3.59-.3Z"/>
  <path class="cls-2" d="m47.47,92.51c.79-.9,1.78-.44,2.74-.49,0,.44-.14.6-.55.6-.71-.03-1.45,0-2.19-.11Z"/>
  <path class="cls-2" d="m49.74,56.97c.16.27.03.82-.16,1.18-.27.58-.6,1.23-1.1,1.56-.55.36-1.29.36-1.97.49-.05.03-.14,0-.22,0-1.18.05-2.3-.99-2.58-2.11-.16-.68.14-1.32.71-1.7,1.26-.77,2.6-1.21,4-.55.52.22,1.01.66,1.32,1.12Zm-.77.52c.03-.63-.27-1.1-.9-1.18-.71-.11-1.45-.11-2.16-.05-.66.05-1.18.68-1.26,1.32-.11,1.04,0,1.32.88,1.67.33.11.71.11,1.04.16,1.75.03,2.41-.49,2.41-1.92Z"/>
  <path class="cls-1" d="m49.58,51.8c-.44.27-.85.58-1.29.85-.16-.27-.16-.9-.79-.63-.27.11-.52.25-.74.44-.16.11-.25.3-.41.49-.36-.79-.22-1.15.49-1.23.82-.08,1.64-.05,2.44-.05.14,0,.25.11.3.14Z"/>
  <path class="cls-5" d="m48.07,56.32c.63.08.93.55.9,1.18,0,1.42-.66,1.95-2.41,1.92-.33-.05-.71-.05-1.04-.16-.88-.36-.99-.63-.88-1.67.08-.63.6-1.26,1.26-1.32.71-.05,1.45-.05,2.16.05Zm-.41,1.59c.25-.3.22-.47-.14-.68-.68-.38-1.53-.19-2.16.6,1.26.82,1.73.74,2.3.08Z"/>
  <path class="cls-1" d="m48.45,69.19c.47,4.9.58,10.68-.14,17.01-1.23-.08-2.47.08-3.67-.47-.27-.11-.63,0-.93,0-.25,0-.49.03-.74-.03-.22-.03-.44-.16-.71-.27.03-1.56.14-3.21.14-4.82-.03-1.62-.14-3.23-.19-4.93-.99.08-.63-.55-.74-.9-.96-.36-1.92-.41-2.88-.03-.25.08-.49.3-.58.52-.41,1.26-.79,2.52-1.1,3.81-.16.6-.14,1.23-.16,1.84v4.16c0,.08-.03.19-.05.25l-.41.58c.03.05.08.11.11.16-.25,0-.47-.03-.68,0-.88.08-1.75.19-2.63.27-.41.03-.82-.03-1.21-.03.05-1.23.08-2.41.14-3.59.03-.6.11-1.18.16-1.78.11-1.18.33-2.36.33-3.53-.03-1.23-.41-2.41-1.48-3.21-.22-.19-.58-.3-.85-.3-.96-.03-1.92-.03-2.88.05-.38.05-.41-.08-.41-.38-.03-.49-.05-.99-.14-1.45-.33-1.67-.41-3.34-.27-5.01.05-.82.11-1.64.19-2.44l.58-5.59c4.96-.52,9.81-.88,14.52-.96.52,1.78.99,3.48,1.53,5.15.44,1.29.99,2.55,1.7,3.75.66,1.1,1.62,1.59,2.71,1.97.25.08.49.14.74.19Z"/>
  <path class="cls-2" d="m47.52,57.22c.36.22.38.38.14.68-.58.66-1.04.74-2.3-.08.63-.79,1.48-.99,2.16-.6Z"/>
  <path class="cls-1" d="m47.74,87.69c.03.74.08,1.48-.05,2.19-.05.25-.66.44-1.04.58-.16.08-.41,0-.6,0,.11-.93.25-1.84.33-2.77.05-.41.3-.47.6-.44s.74-.03.77.44Z"/>
  <path class="cls-2" d="m42.92,95.11c.66-.74,3.31-1.21,3.86-.68-.47.44-2.77.85-3.86.68Z"/>
  <path class="cls-1" d="m44.7,52.02c-.25.58-.49,1.21-.74,1.78-.16.36-.33.71-.55,1.01-.19.27-.44.38-.71,0-.71-.99-1.45-1.97-1.59-3.23-.08-.49-.25-.99-.3-1.48-.03-.19.08-.41.19-.77.96,1.42,2.36,1.92,3.7,2.68Z"/>
  <path class="cls-1" d="m44.67,89.22c.11.58-.33.96-1.12.9-.3-.47-.6-.9-.88-1.34-.49-.85-.08-1.78.82-2.05.6-.19,1.29.6,1.18,1.15-.08.44-.05.9,0,1.34Z"/>
  <path class="cls-3" d="m41.55,55.77c.27.33.77.58.44,1.1-.14.19-.36.38-.58.41-.63.08-1.26.05-1.89.08-2.03.11-4.05.16-6.11.3-1.48.11-2.99.33-4.49.44-.47.05-.93-.08-1.42-.14-.05-1.26.36-2.36.9-3.37.63-1.12,1.34-2.19,2.08-3.23.82-1.12,1.67-2.19,2.6-3.21.85-.93,1.7-1.89,2.63-2.71l4.71.55c-.44.08-.85.22-.85.82-.03,1.56-.11,3.12-.11,4.68,0,.41.16.85.36,1.26.25.66.52,1.29.88,1.89.22.41.58.74.85,1.12Z"/>
  <path class="cls-1" d="m35.96,87.03c.41.08.71.22.68.77-.05.66-.05,1.34-.03,2,.05.6,0,.68-.58.68-.41,0-.66-.14-.66-.6-.03-.93-.14-1.86-.19-2.88.33,0,.55,0,.77.03Z"/>
  <path class="cls-1" d="m33.88,87.3c-.05.77-.11,1.34-.14,1.92,0,.16-.05.33,0,.47.08.27.22.58-.22.63-.36.03-.6,0-.79-.47-.33-.77-.11-1.53-.19-2.3,0-.16.63-.44,1.01-.58.11,0,.3.27.33.33Z"/>
  <path class="cls-3" d="m30.95,76.1c.47,1.89.49,3.84.3,5.78-.11,1.15,0,2.33-.05,3.48-.03.96-.11,1.86-.19,2.79,0,.14-.08.27-.16.44-.71-.38-.93-1.07-1.18-1.67-.41-.9-.74-1.84-1.04-2.79-.16-.49-.22-1.04-.33-1.59-.14-.82-.25-1.67-.47-2.47-.41-1.48-.71-2.96-.82-4.49,0-.11.08-.3.16-.36.6-.44,2.68-.41,3.26.05.22.19.44.52.52.82Z"/>
</svg>