<?xml version="1.0" encoding="UTF-8"?>
<svg xmlns="http://www.w3.org/2000/svg" viewBox="0 0 136.06 136.06">
  <defs>
    <style>
      .cls-1 {
        fill: #fff;
      }

      .cls-2 {
        fill: #0c3454;
      }

      .cls-3 {
        fill: #e0e1e3;
      }
    </style>
  </defs>
  <g id="Layer_3" data-name="Layer 3">
    <rect class="cls-3" x="0" width="136.06" height="136.06"/>
  </g>
  <g id="B_W" data-name="B&amp;amp;W">
    <g>
      <path class="cls-1" d="m58.18,76.37c.19-.6.38-1.18.57-1.75.25.32.44.63.71,1.01.11-.36.25-.6.28-.88h.46v.88c0,.11.11.25.17.36.05.16.16.32.16.49-.08.77.22,1.51.5,2.16.54,1.29,1.2,2.55,1.86,3.81.71,1.32,1.37,2.63,1.62,4.17.16,1.15.16,2.19-.09,3.31-.13.58-.49.6-.87.66-.28.03-.61.08-.85-.03-.28-.08-.63-.27-.74-.52-.19-.44-.28-.96-.36-1.48-.11-1.12-.63-2.11-1.18-3.07-.49-.87-1.15-1.64-1.7-2.49-.21-.3-.32-.71-.38-1.1-.05-.49.17-1.09-.03-1.53-.38-.96-.13-1.92-.19-2.85-.03-.19.08-.41.19-.79.2.3.33.43.39.63.13.38.52.38.66.21.21-.21.41-.57.41-.9,0-.3-.22-.66-.66-.57-.28.02-.55.13-.93.27Z"/>
      <path class="cls-1" d="m49.33,82.04c.03-1.48.08-2.96.13-4.44.03-1.37.09-2.76.11-4.13.03-.99.09-1.98.09-2.94,0-.35-.09-.74-.17-1.23.55.03,1.04.03,1.56.06,1.4.08,2.77-.03,4.17-.33.82-.17,1.53-.47,2.12-.93l.82.14c-.15.33.02.64.24.9.16.22.43.3.71.49-.08.55-.17,1.15-.28,1.78-.46-.08-.49-.36-.57-.68-.11-.5-.47-.85-.99-.69-.33.11-.71.41-.79.71-.11.44.24.72.71.83.22.05.44.08.69.13.24.06.49.14.76.19-.27.61-.46,1.1-.74,1.7-.22-.24-.41-.44-.57-.63-.14-.16-.22-.38-.36-.55-.46-.49-.96-.3-1.45-.08-.03.69-.08,1.45.66,1.76.38.13.9-.03,1.48-.06-.06.41-.17.93-.28,1.56-.16-.08-.38-.16-.38-.19.05-.41-.22-.57-.47-.82-.35-.36-1.2-.38-1.5.03-.06.11-.11.27-.09.38.11.36.25.68.42.99.27.43.87.52,1.34.22.19-.11.44-.17.63-.22-.19.79-.41,1.5-.52,2.22-.11.65-.14,1.28-.11,1.94,0,.52.05,1.04.22,1.53.22.77.49,1.57.82,2.28.52,1.07,1.07,2.08,1.67,3.12.52.91.71,1.89.93,2.88.08.44-.16.77-.55.77-.71-.03-1.42-.03-2.11-.06-.13,0-.27-.11-.35-.22-.55-.6-.91-1.37-1.34-2.05-.88-1.32-.96-2.77-1.07-4.22-.09-1.02,0-2.03-.06-3.04-.03-.47-.13-.96-.33-1.37-.49-.99-1.04-1.95-1.59-2.91-.11-.16-.35-.38-.46-.35-.33.13-.88.3-.93.54-.28,1.26-.44,2.52-.63,3.81-.06.49-.1.97-.1,1.45h-1.49v-.27Z"/>
      <path class="cls-1" d="m29.66,86.92c-.41-.91-.74-1.84-1.04-2.8-.17-.49-.22-1.04-.33-1.59-.14-.82-.25-1.67-.47-2.46-.41-1.48-.71-2.96-.82-4.5,0-.1.08-.3.16-.35.61-.44,2.69-.41,3.26.05.22.2.44.52.53.83.46,1.89.49,3.83.3,5.78-.11,1.15,0,2.32-.06,3.48-.03.95-.11,1.86-.19,2.79,0,.14-.08.27-.16.44-.72-.39-.94-1.07-1.18-1.67Z"/>
      <path class="cls-1" d="m49.74,95.88c.74.41,1.29.05,1.83-.33.11-.06.2-.22.2-.33-.03-.08-.17-.25-.25-.28-.44-.11-1.56.47-1.78.94Zm.49,2.93c-1.2.11-2.44-.14-3.59.3v.25c.36.08.74.27,1.13.24.68-.03,1.37-.19,2.05-.27.38-.03.47-.19.41-.52Zm-.03-6.8c-.95.06-1.94-.41-2.73.5.73.11,1.47.08,2.19.11.41,0,.54-.17.54-.61Zm-3.42,2.41c-.55-.52-3.21-.05-3.86.69,1.09.16,3.39-.25,3.86-.69Zm-11.81-.57c-.79-.82-1.61-1.67-2.44-2.52.17-.03.47-.06.72-.03,1.37.11,2.74.33,4.08-.03.96-.24,1.09-.87,1.07-1.59-.09-1.48-.14-2.95-.22-4.46-.06-.96-.19-1.92-.17-2.88.03-1.89.09-3.78.22-5.67.03-.77.85-1.23,1.76-1.18.65.06,1.2.28,1.31,1.37.06.5.08.99.08,1.48,0,1.65-.02,3.26-.02,4.91,0,1.01.02,2.02,0,3.04,0,.33-.06.68-.22.96-.58.95-.11,1.8.27,2.65.11.2.22.41.33.61.55.85,1.34,1.04,2.3.98.66-.05,1.34.08,2,.03,1.18-.08,2.33-.33,3.1-1.34.05-.06.13-.08.13-.14.06-.99.14-2,.17-2.99,0-.27-.11-.54-.11-.82-.03-1.31-.03-2.62,0-3.93h1.49c0,.62.06,1.22.23,1.82.06.22.06.47.14.69.19.6.44,1.18.63,1.78.22.71.22,1.51.77,2.14.33.35.52.84.79,1.28.28.47.14.74-.38.77-.44.03-.9,0-1.34.11-.41.08-.83.27-1.21.44,0,.08.03.16.06.24.35,0,.74.06,1.09.03,1.18-.08,2.36-.22,3.54-.27.82-.03,1.64.08,2.46.05.24,0,.49,0,.73-.02l.03,1.4c-.6,0-1.2.09-1.72.46v.22l-.02,1.37c-.95-.03-1.91.04-2.88.41.27.29,1.47.36,2.63.27l.44,2.43c-.48.1-.95.16-1.43.26-.16.05-.27.19-.41.3l-1.44,1.57c-.55,0-1.15.29-1.24.73.32.12.62.16.91.13l.33,2.11c-.51.08-1.02.15-1.54.23-.09.02-.17.19-.2.3,0,.05.14.13.22.16.22.11.43.16.65.16l-.34,1.05h0c-.41-.11-.79-.28-1.23-.36-1.09-.19-2.08-.74-3.07-1.21-1.42-.68-2.85-1.42-4.22-2.19-.57-.33-1.06-.79-1.61-1.17-.61-.44-1.26-.85-1.89-1.24-.09-.05-.25,0-.28-.08-.85-.77-1.7-1.51-2.52-2.3-.87-.82-1.67-1.67-2.52-2.52Z"/>
      <path class="cls-1" d="m77.77,93.14c-.25,0-.47.16-.69.27.03.11.06.22.08.33.99-.06,1.95-.06,2.93-.14.11,0,.22-.19.33-.3-.13-.08-.27-.25-.41-.25-.74,0-1.5,0-2.24.09Zm-.33,2.11c-.69-.52-1.95-.28-2.3.43.79,0,1.58.25,2.3-.43Zm-2.66,8.24c.71.52,1.51.44,1.92-.22-.61-.24-1.21-.19-1.92.22Zm-4.44-9.15c1.18.03,2.36.06,3.56.08.03-.11.06-.27.08-.46-1.23-.08-2.49-.55-3.64.16v.22Zm2.33,6.08c-.6.09-1.15.14-1.7.22.66.77,1.45.63,1.7-.22Zm-.74-2.02c1.07.54,2.22.43,3.34.32.14,0,.25-.27.39-.41-.03-.05-.06-.11-.09-.16-1.23.22-2.46-.38-3.75.08.08.14.11.17.11.17Zm-1.15,4.08c-1.01.08-1.95-.28-2.9.11.74.71,2.54.68,2.9-.11Zm.99-6.11c-1.4-.33-2.5-.08-2.52.6.79-.25,1.75.22,2.52-.6Zm-3.87-1.23c-.93-.17-1.59.05-1.81.52.85.35,1.54.16,1.81-.52Zm-.57-2.33c-.85-.11-1.67-.17-2.47.55,1.67.35,2.44.19,2.47-.55Zm-2.25,7.56c.63.3,1.78.05,2.36-.55-.14-.08-.25-.19-.33-.19-.69.08-1.37.19-2.06.33-.05,0-.16.13-.16.19,0,.08.11.19.19.22Zm-.16-3.32c-1.04-.02-2.06-.05-3.15-.08.65.99,2.49.99,3.15.08Zm-5.07,8.11c.6.69,1.83.55,2.35-.27-.82.11-1.56.19-2.35.27Zm.41-10.27c.22.08.46.19.71.19.17,0,.41-.11.52-.27.06-.08-.08-.33-.11-.5-.38.09-.63.11-.85.22-.13.06-.19.25-.27.36Zm-6.73,5.16l1.44-1.57c.14.11.3.27.44.27.41-.03.82-.08,1.21-.19.16-.05.3-.27.43-.44-.02-.05-.05-.13-.11-.22-.04.01-.09.02-.13.02l-.44-2.43c.94-.08,1.86-.27,2.25-.55-.66-.05-1.33-.11-2-.13l.02-1.37c.82-.06,1.62-.08,2.44-.17.08,0,.14-.16.22-.27-.11-.08-.22-.22-.36-.22-.19-.01-.38-.02-.58-.02l-.03-1.4c1.68-.02,3.35-.1,5.02-.14.2,0,.39.11.55.16.25.08.47.22.72.22.71,0,1.42-.03,2.13-.05.19,0,.39-.03.58-.11.74-.33,1.48-.66,2.24-.99.22-.08.5-.08.74-.11.47-.03.96-.05,1.43-.08.35,0,.71,0,1.09.03.55.02,1.13.13,1.65-.28.19-.16.49-.22.74-.24.48,0,.96.03,1.44.01l.09,1.05c-.22,0-.44.03-.66.06-.6.05-1.15.25-1.72.36v.3c.19.05.38.13.57.13,1.1,0,2.2-.05,3.29-.02,1.04.02,2.08.16,3.12.24.39.03.77.03,1.15.03l.07,2.44c-.43,0-.86.05-1.22.46.24.17.48.25.7.26l-.09,1.72c-.77-.26-1.49-.1-2.22.22l-1.67,1.73c-.09,0-.2.02-.33.05-.17.02-.36,0-.52.02-.17.06-.28.17-.44.22.03.09.03.17.05.25.47.06.94.14,1.43.22l1.78.96c.4.57,1.23.74,1.85.55l.71,1.99c-.69.25-1.39.49-2.09.69-1.7.52-3.46.85-5.18,1.23-1.13.25-2.28.47-3.4.69-.88.19-1.75.38-2.63.55-.49.11-1.01.13-1.51.16-2.24.14-4.49.33-6.74.38-.87.03-1.72-.16-2.57-.3-1.18-.19-2.36-.44-3.54-.71-.87-.19-1.74-.52-2.62-.79l.34-1.05c.41,0,.83-.16,1.24-.27.14-.03.22-.3.36-.46-.08-.06-.14-.14-.19-.2-.18.03-.36.06-.54.08l-.33-2.11c.43-.05.8-.26,1.06-.62-.18-.17-.45-.24-.73-.24Zm7.55.98c-1.2-.33-2.33-.31-3.51.32.61.39,3.24.11,3.51-.32Z"/>
      <path class="cls-1" d="m96.83,94.23c-1.04-.3-2.08-.38-3.17-.27.1.68,2.3.93,3.17.27Zm-4.74-3.45c1.18.27,2.36.19,3.62.05-.52-.63-2.6-.65-3.62-.05Zm-3.06,2.3c-.66-.44-3.07-.44-3.65.06.58.54,3.23.49,3.65-.06Zm-4.39,4.17c.52.65,4.03.65,4.69-.11-1.65-.11-3.15-.39-4.69.11Zm-6.49-6.42c-.47-.03-.94-.03-1.4,0l-.09-1.05c.4-.02.79-.08,1.19-.23.38-.14.87-.09,1.31-.06,1.29.14,2.41.93,3.76.74.05,0,.13.06.22.06.93.08,1.83.22,2.76.27.36.03.74-.14.6-.68h-.35l.03-1.15c.08,0,.19-.03.3-.06.33-.08.68-.05,1.01-.11.77-.08,1.26-.55,1.29-1.4.03-1.26.11-2.54-.06-3.78-.22-1.39-.08-2.76.06-4.16.05-.66-.08-1.32-.06-1.97.06-1.13.17-2.22.22-3.35.06-1.06.06-2.16.11-3.23,0-.63.28-.88.91-.88.79.03,1.09.31,1.15.94.08,1.12.27,2.24.3,3.37.05,1.28,0,2.6-.06,3.89-.02.76-.11,1.5-.19,2.24-.13,1.13-.33,2.22-.44,3.32-.05.46-.02.93-.05,1.39-.03.99-.08,2-.08,2.99,0,.17.16.44.27.47.88.11,1.73.22,2.6-.09.85-.27.83-.93.99-1.61.3-1.18-.08-2.33.03-3.54.19-1.8.02-3.64,0-5.48-.06-1.31-.22-2.65-.19-3.97.02-1.15.24-2.3.43-3.45.03-.19.22-.44.39-.49.41-.14.85-.25,1.26-.25,1.18,0,2.35.03,3.53.11.6.03,1.18.25,1.76.25.6.02,1.2-.11,1.8-.17,1.7-.13,3.37-.52,5.07-.3.17.03.44.25.44.38.03.8-.03,1.62-.05,2.42-.03.63-.03,1.23-.06,1.86,0,.22.03.46,0,.66-.27,1.42-.58,2.84-.79,4.3-.33,2-1.15,3.89-1.73,5.83-.63,2.06-1.45,4.03-2.88,5.67-.79.93-1.72,1.7-2.6,2.52-.66.61-1.26,1.26-1.97,1.78-.99.72-2.03,1.37-3.1,2-1.67.96-3.37,1.89-5.07,2.8-.79.41-1.67.74-2.49,1.09-.82.36-1.62.77-2.44,1.1-1.06.4-2.12.82-3.19,1.2l-.71-1.99c.26-.09.48-.25.61-.47-.82-.03-1.58-.05-2.46-.08l-1.78-.96c.15-.55.11-.76-.19-.76l1.67-1.73c.71.57,2.24.49,2.49-.11-.09-.04-.18-.08-.27-.11l.09-1.72c.34.03.67-.07,1-.12.11-.03.25-.19.28-.33.02-.08-.17-.27-.25-.27-.17,0-.34,0-.51,0l-.07-2.44c.03-.08.06-.16.09-.25-.19-.13-.36-.32-.58-.35-1.29-.19-2.57-.39-3.86-.5Z"/>
      <path class="cls-1" d="m72.89,75.82c.41.58,1.04.6,1.26.08.05-.08-.17-.43-.19-.43-.36.08-.69.21-1.07.35Zm.74,2.6c-.36.33-1.07,0-1.18.77,1.07.17,1.23.08,1.18-.77Zm-32.22-21.15c-.63.09-1.26.06-1.89.09-2.03.11-4.05.16-6.11.3-1.48.11-2.99.33-4.49.44-.47.05-.93-.09-1.43-.14-.05-1.26.36-2.36.91-3.37.63-1.12,1.34-2.19,2.08-3.23.82-1.13,1.67-2.2,2.6-3.21.85-.93,1.7-1.89,2.63-2.71.3-.27.63-.55.96-.8,1.23-.93,2.33-2,3.53-2.9.5-.38,1.13-.6,1.68-.9,1.86-1.02,3.72-2.09,5.61-3.07,1.43-.77,2.93-1.23,4.52-1.56.99-.22,1.87-.8,2.85-1.07,1.54-.47,3.13-.88,4.74-.96,1.21-.08,2.41-.22,3.62-.36h.44c1.45,0,2.93,0,4.41.03,1.15.03,2.3.16,3.45.22.93.03,1.83.05,2.77.08,1.15,0,2.32-.08,3.45,0,1.31.11,2.63.36,3.92.6,1.8.36,3.61.69,5.39,1.13,1.02.24,1.98.63,2.93,1.01.91.36,1.78.71,2.63,1.18.96.52,1.95,1.04,2.69,1.78.52.55,1.23.93,1.62,1.64.41.69,1.04,1.21,1.56,1.81,1.07,1.23,2.19,2.41,3.2,3.67.63.83,1.13,1.76,1.7,2.61.49.76,1.04,1.48,1.51,2.27.24.44.35.96.57,1.45.36.91.8,1.81,1.13,2.74.19.47.27,1.02.35,1.54.03.08-.19.32-.33.35-.87.17-1.78.3-2.68.41-1.62.19-3.23.36-4.85.55-.6.06-1.21.16-1.81.19-1.2.11-2.41.22-3.59.28-.82.02-1.64-.09-2.44-.06-1.34.03-2.63-.33-3.86-.79-.41-.14-.77-.72-.9-1.15-.39-1.21.13-2.2.93-3.13.46-.57.93-1.28,1.12-2,.25-.96.22-1.97.28-2.96.02-.54-.03-1.09-.06-1.67-.03-.05-.3-.22-.35-.16-.61.44-1.21.93-1.79,1.4-.74.6-1.47,1.23-2.24,1.83-.41.33-.91.22-1.32,0-.57-.3-1.09-.46-1.78-.35-.6.05-1.26-.2-1.89-.14-.98.05-1.97.22-2.93.38-.79.11-1.53.25-2.25-.3-.52-.41-1.23-.6-1.72-1.07-.63-.55-1.13-1.26-1.76-2-.05,0-.3-.03-.43.06-.22.13-.52.38-.52.55.02,1.97.41,3.86,1.45,5.56.44.68,1.12,1.2,1.72,1.8.03.06.17.09.2.11.08.61.21,1.21.21,1.81.03.85-.08,1.73-.08,2.58,0,.71.03,1.45.08,2.19.09,1.15.2,2.3.39,3.45.11.55.44,1.07.68,1.59.25.55.58,1.1.82,1.64.36.85,1.1,1.05,1.87,1.24.85.24,1.67.02,2.49,0,.8-.03,1.48-.25,2.17-.52,1.01-.39,1.64-1.15,2.21-2,.11-.17.28-.3.44-.36.08,0,.25.22.33.36.77,1.31,1.07,2.76,1.15,4.24.08,1.84.25,3.65.17,5.48-.09,1.81-.39,3.65-.61,5.45,0,.06-.02.14-.02.2-.03.87-.06,1.78-.09,2.74-.32.02-.49.02-.74.05.09.66.2,1.26.2,1.89,0,.44.11.74.46,1.01.3.22.58.42.91.42l-.03,1.15c-.54-.03-1.05,0-1.56-.09-.44-.08-1.02-.22-1.24-.52-.85-1.26-1.58-2.57-2.35-3.89-.06-.08-.06-.22-.08-.33-.03-.76-.06-1.5-.06-2.27,0-.82.03-1.64.06-2.41.41-.08.68-.06.9-.17.14-.05.16-.3.25-.46-.14-.03-.28-.06-.44-.08-.22-.03-.41-.09-.63-.11v-.17c.41-.22,1.15.06,1.18-.74q-.94-.11-.5-1.07c.14-.27.09-.6.09-.9-.06-.03-.14-.05-.22-.08-.2.35-.39.74-.66,1.26-.25-.47-.47-.8-.66-1.12-.19.05-.41.11-.71.16.25.36.46.63.77,1.01-.44.09-.77.14-1.13.2,0,.05-.02.11-.05.13.16.08.33.19.49.25.22.11.44.19.66.27-.25.09-.47.17-.71.22-.2.03-.39,0-.58.03q.14.38,1.07.82c-.22.55-.6.8-1.23.69,0,.19-.06.41,0,.43.33.14.63.25.9.36,0,.77-.11,1.54-.03,2.27.06.77.14,1.57.47,2.22.52,1.1,1.26,2.06,1.89,3.1.11.14.08.33.11.52-.17-.03-.33,0-.47-.03-.96-.19-1.91-.44-2.9-.57-.44-.06-.91.05-1.37.05-.14,0-.38-.16-.41-.3-.03-.41.03-.82,0-1.26,0-.36.16-.49.52-.47.41.03.71-.13.9-.68-.44,0-.85-.03-1.23-.03,0-.71.03-.68.68-.63.17.03.36-.13.53-.24.05-.06.05-.2.05-.31-.16,0-.36,0-.52-.02-.06,0-.11,0-.27-.03.02-.3.02-.6.02-.93q-1.12.19-1.31,1.23c-.03.06-.06.11-.06.17-.19.76-.43,1.5-.27,2.3.05.41,0,.87-.16,1.26-.11.27-1.13.22-1.35.02.22-1.12.47-2.21.63-3.31.22-1.62.63-3.18.39-4.82-.11-.69-.14-1.37-.2-2.06-.05-.68-.11-1.37-.19-2.05,0-.08-.05-.14-.19-.39-.16.31-.33.5-.38.72-.14.38-.3.57-.74.35-.28-.13-.61-.16-.93-.24-.03.11-.09.19-.11.27.19.14.35.36.57.41.69.11.85.55.88,1.15.05.96.11,1.92.19,2.85.03.58-.22.91-.77.93-.16.03-.33.09-.52.14.28.74.93.33,1.32.55-.11.55-.41.9-.96.87-.58-.02-.52.31-.47.74.44-.05.85-.08,1.21-.11,0,.2.03.36,0,.5-.14.6-.14,1.29-.47,1.72-.33.5-.49.96-.52,1.51-.05.55-.3.74-.82.79-1.29.14-2.55.36-3.83.55-.33.06-.69.11-.96.14.16-.9.35-1.75.49-2.58.22-1.23.41-2.46.55-3.69.11-.88.13-1.81.08-2.69-.06-.71-.3-1.37-.38-2.08-.17-1.23-.69-2.3-1.35-3.32-.76-1.12-1.53-2.21-2.3-3.34-.16-.22-.27-.49-.35-.74-.17-.57-.22-1.23-.47-1.78-.52-1.09-1.01-2.19-.96-3.42-1.07-.06-1.4.11-1.51.76-.13.8-.27,1.59-.49,2.39-.16.68-.55,1.31-.63,2-.11,1.01-.11,2.08-.14,3.09h-.46c.05-.57-.71-.33-.8-.76.52-1.48.99-3.02.96-4.63,0-.14.09-.31.14-.44.22-.47.25-.88-.19-1.21-.47-.33-1.04-.19-1.51.28-.09.09-.15.17-.18.25l-.82-.14c.19-.15.37-.32.54-.5.21-.19.38-.41.52-.65.74-1.24,1.37-2.53,2.05-3.79.8-1.39,1.37-2.87,1.73-4.43.13-.69.54-1.4.46-2.03-.16-.91.5-1.04.88-1.51.52-.63.93-1.4,1.31-2.11.83-1.48.77-3.15.88-4.76.08-.8-.27-1.62-.44-2.44-.49.11-.85.19-1.26.27-.22,1.18-.96,2.03-1.83,2.85-.33.3-.66.66-1.02.96-.41.33-.85.47-1.39.36-.55-.14-1.1-.06-1.68,0-1.97.21-3.97.35-5.94.43-1.01.03-2.05-.19-3.07-.24-1.01-.03-2.05-.06-3.07.08-.68.11-1.31.33-1.86-.33-.14-.16-.47-.22-.71-.36-.11-.08-.28-.16-.33-.3-.38-.96-1.54-1.31-1.75-2.35-.06-.19-.22-.39-.2-.58.03-.57-.24-.79-.74-.68-.43.08-.85.22-.85.82-.02,1.56-.1,3.12-.1,4.68,0,.41.16.85.35,1.26.25.66.52,1.29.88,1.89.22.42.57.74.85,1.13.27.33.76.57.44,1.09-.14.2-.36.39-.58.41Z"/>
      <path class="cls-2" d="m96.83,94.23c-.87.66-3.07.41-3.17-.27,1.09-.11,2.13-.03,3.17.27Z"/>
      <path class="cls-2" d="m95.71,90.83c-1.26.14-2.44.22-3.62-.05,1.02-.6,3.1-.58,3.62.05Z"/>
      <path class="cls-2" d="m85.38,93.14c.58-.5,2.99-.5,3.65-.06-.42.55-3.07.6-3.65.06Z"/>
      <path class="cls-2" d="m84.64,97.25c1.54-.5,3.04-.22,4.69-.11-.66.76-4.17.76-4.69.11Z"/>
      <path class="cls-2" d="m81.35,94.83c.36-.41.79-.45,1.22-.46.17,0,.34,0,.51,0,.08,0,.27.19.25.27-.03.14-.17.3-.28.33-.33.05-.66.15-1,.12-.22,0-.46-.09-.7-.26Z"/>
      <path class="cls-2" d="m81.9,57.14c.11-.88.8-.39,1.26-.52.11,1.07-.02,1.34-.66,1.31-.49-.03-.63-.44-.6-.79Z"/>
      <path class="cls-2" d="m81.96,96.81c.09.03.18.07.27.11-.25.6-1.78.68-2.49.11.73-.32,1.45-.48,2.22-.22Z"/>
      <path class="cls-2" d="m82.5,100.56c-.13.22-.35.38-.61.47-.62.19-1.45.02-1.85-.55.88.03,1.64.05,2.46.08Z"/>
      <path class="cls-2" d="m82.7,56.01c-.83-.02-1.29.41-1.29,1.21-.03.71.41,1.18,1.07,1.2.82,0,1.67-.65,1.7-1.31.02-.49-.77-1.07-1.48-1.1Zm-.39,3.07c-1.5-.16-2.33-1.67-1.8-2.96.05-.16.24-.33.41-.38.76-.3,1.53-.6,2.41-.41.63.14,1.42,1.04,1.45,1.64,0,.69-.28,1.48-1.29,1.73-.41.08-.79.25-1.18.38Z"/>
      <path class="cls-2" d="m80.97,67c-1.04-.03-1.53-.79-1.12-1.78.27-.63,1.92-1.01,2.38-.49.14.13.14.46.14.71.05.79-.66,1.59-1.4,1.56Z"/>
      <path class="cls-2" d="m80.42,93.3c-.11.11-.22.3-.33.3-.98.08-1.94.08-2.93.14-.02-.11-.05-.22-.08-.33.22-.11.44-.27.69-.27.74-.09,1.5-.09,2.24-.09.14,0,.28.17.41.25Z"/>
      <path class="cls-2" d="m78.26,99.52c-.49-.08-.96-.16-1.43-.22-.02-.08-.02-.16-.05-.25.16-.05.27-.16.44-.22.16-.02.35,0,.52-.02.13-.03.24-.05.33-.05.3,0,.34.21.19.76Z"/>
      <path class="cls-2" d="m75.14,95.68c.35-.71,1.61-.95,2.3-.43-.72.68-1.51.43-2.3.43Z"/>
      <path class="cls-2" d="m77.05,67.14c-.65-.03-1.2-.72-1.17-1.46.02-.71.38-.98,1.28-.95,1.02.05,1.32.35,1.29,1.28,0,.66-.63,1.15-1.4,1.13Z"/>
      <path class="cls-2" d="m75.9,57.63c.03-.25.14-.55.33-.68.22-.17.55-.14.82-.2.09.06.14.09.19.14-.1.3-.13.63-.32.9-.11.17-.41.28-.63.28-.14,0-.39-.28-.39-.44Z"/>
      <path class="cls-2" d="m74.78,103.49c.71-.41,1.31-.46,1.92-.22-.41.66-1.21.74-1.92.22Z"/>
      <path class="cls-2" d="m78.23,91.66c-1.09-.03-2.19.02-3.29.02-.19,0-.38-.08-.57-.13v-.3c.57-.11,1.12-.31,1.72-.36.22-.03.44-.05.66-.06.46-.03.93-.03,1.4,0,1.29.11,2.57.31,3.86.5.22.03.39.22.58.35-.03.09-.06.17-.09.25-.38,0-.76,0-1.15-.03-1.04-.08-2.08-.22-3.12-.24Z"/>
      <path class="cls-2" d="m76.23,56.32c-.57.16-.96.84-.85,1.5.11.55.66.88,1.26.77.55-.08,1.02-.74,1.04-1.45.03-.66-.27-.99-.76-.93-.22.02-.47.05-.69.11Zm-1.37,1.23c-.03-1.02.47-1.62,1.34-2.03.66-.33,1.78.17,2.17.82.33.55.44.99.16,1.56-.35.63-.85,1.02-1.5,1.24-.52.19-1.76-.22-2-.69-.17-.24-.11-.6-.17-.9Z"/>
      <path class="cls-2" d="m75.27,98.72c-1.12.11-2.27.22-3.34-.32,0,0-.03-.03-.11-.17,1.29-.46,2.52.14,3.75-.08.03.05.06.11.09.16-.14.14-.25.41-.39.41Z"/>
      <path class="cls-2" d="m73.96,75.47s.24.35.19.43c-.22.52-.85.5-1.26-.08.38-.14.71-.27,1.07-.35Z"/>
      <path class="cls-2" d="m73.98,93.96c-.02.19-.05.35-.08.46-1.2-.02-2.38-.05-3.56-.08v-.22c1.15-.71,2.41-.24,3.64-.16Z"/>
      <path class="cls-2" d="m72.45,79.19c.11-.77.82-.44,1.18-.77.05.85-.11.94-1.18.77Z"/>
      <path class="cls-2" d="m70.97,100.64c.55-.08,1.1-.13,1.7-.22-.25.85-1.04.99-1.7.22Z"/>
      <path class="cls-2" d="m69.25,96.97c.02-.68,1.12-.93,2.52-.6-.77.82-1.73.35-2.52.6Z"/>
      <path class="cls-2" d="m67.88,102.59c.95-.39,1.89-.03,2.9-.11-.36.79-2.16.82-2.9.11Z"/>
      <path class="cls-2" d="m66.09,95.66c.22-.47.88-.69,1.81-.52-.27.68-.96.87-1.81.52Z"/>
      <path class="cls-2" d="m64.86,93.36c.8-.72,1.62-.66,2.47-.55-.03.74-.8.9-2.47.55Z"/>
      <path class="cls-2" d="m67.11,99.63c.08,0,.19.11.33.19-.58.6-1.73.85-2.36.55-.08-.03-.19-.14-.19-.22,0-.06.11-.19.16-.19.69-.14,1.37-.25,2.06-.33Z"/>
      <path class="cls-2" d="m61.77,96.97c1.09.03,2.11.06,3.15.08-.66.91-2.5.91-3.15-.08Z"/>
      <path class="cls-2" d="m60.97,95.08c-.25,0-.49-.11-.71-.19.08-.11.14-.3.27-.36.22-.11.47-.13.85-.22.03.17.17.42.11.5-.11.16-.35.27-.52.27Z"/>
      <path class="cls-2" d="m62.2,104.89c-.52.82-1.75.96-2.35.27.79-.08,1.53-.16,2.35-.27Z"/>
      <path class="cls-2" d="m57.57,101.35c1.18-.63,2.31-.65,3.51-.32-.27.43-2.9.71-3.51.32Z"/>
      <path class="cls-2" d="m59.3,93c-.08.11-.14.27-.22.27-.82.09-1.62.11-2.44.17v-.22c.52-.37,1.12-.46,1.72-.46.2,0,.39.01.58.02.14,0,.25.14.36.22Z"/>
      <path class="cls-2" d="m56.62,94.81c.67.02,1.34.08,2,.13-.39.28-1.31.47-2.25.55-1.16.09-2.36.02-2.63-.27.97-.37,1.93-.44,2.88-.41Z"/>
      <path class="cls-2" d="m58.42,57.38c-.93.96-1.97,1.07-2.71.5-.16-.11-.27-.5-.19-.61.55-.63,1.34-.49,2.03-.46.3,0,.57.35.87.57Z"/>
      <path class="cls-2" d="m56.94,97.9c.06.09.09.17.11.22-.13.17-.27.39-.43.44-.39.11-.8.16-1.21.19-.14,0-.3-.16-.44-.27.14-.11.25-.25.41-.3.48-.1.95-.16,1.43-.26.04,0,.09,0,.13-.02Z"/>
      <path class="cls-2" d="m53.46,65.08c.44-.49,1.02-.87,1.59-1.23.41-.27,1.62.19,1.87.6.02.08,0,.22.02.39-.02.05-.05.19-.13.3-.44.57-.82,1.18-1.32,1.64-.6.58-2,.22-2.41-.52-.3-.52.14-.9.38-1.18Z"/>
      <path class="cls-2" d="m53.77,57.69c-.11-1.18.63-2.06,1.97-2.25.33-.03.66-.08,1.07-.11.65.19,1.42.27,2.05.6.91.47,1.4,1.73.55,2.8-.69.87-1.67,1.17-2.66,1.37-1.01.22-2.85-1.35-2.98-2.41Zm1.42-1.65c-.57.33-.93,1.67-.55,2.11.63.71,1.35,1.32,2.36,1.29.14,0,.27.03.41.03.9-.11,1.12-.11,1.56-1.15.25-.55.03-1.57-.41-1.95-.9-.85-2.38-.82-3.37-.33Z"/>
      <path class="cls-2" d="m53.9,103.6c-.41.11-.83.27-1.24.27-.22,0-.43-.05-.65-.16-.08-.03-.22-.11-.22-.16.03-.11.11-.28.2-.3.52-.08,1.03-.15,1.54-.23.18-.02.36-.05.54-.08.05.06.11.14.19.2-.14.16-.22.43-.36.46Z"/>
      <path class="cls-2" d="m53.53,100.05c.28,0,.55.07.73.24-.26.36-.63.57-1.06.62-.29.03-.59-.01-.91-.13.09-.44.69-.73,1.24-.73Z"/>
      <path class="cls-2" d="m51.52,94.94c.08.03.22.2.25.28,0,.11-.09.27-.2.33-.54.38-1.09.74-1.83.33.22-.47,1.34-1.05,1.78-.94Z"/>
      <path class="cls-2" d="m61.11,73.47c-.03.35-.06.76.03,1.12.21.82.52,1.62.76,2.41.19.63.36,1.31.63,1.89.58,1.12,1.24,2.19,1.81,3.29.41.82.8,1.64,1.1,2.46.6,1.62.49,3.26.08,4.88-.03.14.08.3.11.44.14-.08.35-.17.38-.28.36-1.53.5-3.12.39-4.71-.03-.3-.09-.57-.17-.87-.14-.63-.3-1.24-.46-1.87,0-.11.11-.24.16-.41-.11-.16-.27-.38-.36-.63-.11-.3-.11-.66-.27-.93-.47-.77-1.12-1.45-1.48-2.27-.44-.96-.66-2-.93-3.02-.03-.11.22-.38.38-.41.25-.05.72-.03.74.08.22.72.33,1.46.47,2.17.05.16.11.3.19.41,1.07,1.4,1.97,2.88,2.11,4.68,0,.33-.06.74.11.99.46.74.36,1.56.33,2.36,0,.41-.03.79,0,1.2,0,.11.13.19.19.3.11-.08.22-.16.25-.27.05-.14.02-.28.02-.41v-3.4c-.02-.85.03-1.7-.13-2.49-.28-1.4-.66-2.77-1.48-3.95-.61-.85-.99-1.81-1.78-2.55-.44-.43-.85-.98-1.07-1.56-.39-.98-.58-2.02-.88-3.04-.08,0-.16-.03-.27-.03-.22.66-.5,1.29-.63,1.95-.17.79-.25,1.64-.33,2.47Zm-9.1,6.98c.03,1.34.17,2.71.17,4.06,0,1.23.27,2.35.82,3.42.25.49.52.99.77,1.48.32-.44.32-.52.11-1.01-.33-.72-.66-1.4-.94-2.14-.57-1.51-.21-3.1-.21-4.66,0-.11.21-.22.38-.41.05.22.08.3.05.36-.27,2.27.47,4.41,1.04,6.55.22.87.55,1.75,1.48,2.27.03-.19.09-.41-.02-.52-.72-.82-.93-1.84-1.24-2.82-.16-.63-.05-1.21-.08-1.78-.03-.91-.25-1.78-.35-2.69-.06-.55.08-1.15-.11-1.64-.31-.82-.8-1.56-1.21-2.33-.03-.06-.11-.11-.33-.3-.14.82-.33,1.48-.33,2.16Zm-1.19,1.86c0-.48.04-.96.1-1.45.19-1.29.35-2.55.63-3.81.05-.24.6-.41.93-.54.11-.03.35.19.46.35.55.96,1.1,1.92,1.59,2.91.2.41.3.9.33,1.37.06,1.01-.03,2.02.06,3.04.11,1.45.19,2.9,1.07,4.22.43.68.79,1.45,1.34,2.05.08.11.22.22.35.22.69.03,1.4.03,2.11.06.39,0,.63-.33.55-.77-.22-.99-.41-1.97-.93-2.88-.6-1.04-1.15-2.05-1.67-3.12-.33-.71-.6-1.51-.82-2.28-.17-.49-.22-1.01-.22-1.53-.03-.66,0-1.29.11-1.94.11-.72.33-1.43.52-2.22-.19.05-.44.11-.63.22-.47.3-1.07.21-1.34-.22-.17-.31-.31-.63-.42-.99-.02-.11.03-.27.09-.38.3-.41,1.15-.39,1.5-.03.25.25.52.41.47.82,0,.03.22.11.38.19.11-.63.22-1.15.28-1.56-.58.03-1.1.19-1.48.06-.74-.31-.69-1.07-.66-1.76.49-.22.99-.41,1.45.08.14.17.22.39.36.55.16.19.35.39.57.63.28-.6.47-1.09.74-1.7-.27-.05-.52-.13-.76-.19-.25-.05-.47-.08-.69-.13-.47-.11-.82-.39-.71-.83.08-.3.46-.6.79-.71.52-.16.88.19.99.69.08.32.11.6.57.68.11-.63.2-1.23.28-1.78-.28-.19-.55-.27-.71-.49-.22-.26-.39-.57-.24-.9.03-.08.09-.16.18-.25.47-.47,1.04-.61,1.51-.28.44.33.41.74.19,1.21-.05.13-.14.3-.14.44.03,1.61-.44,3.15-.96,4.63.09.43.85.19.8.76-.03.28-.17.52-.28.88-.27-.38-.46-.69-.71-1.01-.19.57-.38,1.15-.57,1.75.38-.14.65-.25.93-.27.44-.09.66.27.66.57,0,.33-.2.69-.41.9-.14.17-.53.17-.66-.21-.06-.2-.19-.33-.39-.63-.11.38-.22.6-.19.79.06.93-.19,1.89.19,2.85.2.44-.02,1.04.03,1.53.06.39.17.8.38,1.1.55.85,1.21,1.62,1.7,2.49.55.96,1.07,1.95,1.18,3.07.08.52.17,1.04.36,1.48.11.25.46.44.74.52.24.11.57.06.85.03.38-.06.74-.08.87-.66.25-1.12.25-2.16.09-3.31-.25-1.54-.91-2.85-1.62-4.17-.66-1.26-1.32-2.52-1.86-3.81-.28-.65-.58-1.39-.5-2.16,0-.17-.11-.33-.16-.49-.06-.11-.17-.25-.17-.36v-.88c.03-1.01.03-2.08.14-3.09.08-.69.47-1.32.63-2,.22-.8.36-1.59.49-2.39.11-.65.44-.82,1.51-.76-.05,1.23.44,2.33.96,3.42.25.55.3,1.21.47,1.78.08.25.19.52.35.74.77,1.13,1.54,2.22,2.3,3.34.66,1.02,1.18,2.09,1.35,3.32.08.71.32,1.37.38,2.08.05.88.03,1.81-.08,2.69-.14,1.23-.33,2.46-.55,3.69-.14.83-.33,1.68-.49,2.58.27-.03.63-.08.96-.14,1.28-.19,2.54-.41,3.83-.55.52-.05.77-.24.82-.79.03-.55.19-1.01.52-1.51.33-.43.33-1.12.47-1.72.03-.14,0-.3,0-.5-.36.03-.77.06-1.21.11-.05-.43-.11-.76.47-.74.55.03.85-.32.96-.87-.39-.22-1.04.19-1.32-.55.19-.05.36-.11.52-.14.55-.02.8-.35.77-.93-.08-.93-.14-1.89-.19-2.85-.03-.6-.19-1.04-.88-1.15-.22-.05-.38-.27-.57-.41.02-.08.08-.16.11-.27.32.08.65.11.93.24.44.22.6.03.74-.35.05-.22.22-.41.38-.72.14.25.19.31.19.39.08.68.14,1.37.19,2.05.06.69.09,1.37.2,2.06.24,1.64-.17,3.2-.39,4.82-.16,1.1-.41,2.19-.63,3.31.22.2,1.24.25,1.35-.02.16-.39.21-.85.16-1.26-.16-.8.08-1.54.27-2.3,0-.06.03-.11.06-.17q.19-1.04,1.31-1.23c0,.33,0,.63-.02.93.16.03.21.03.27.03.16.02.36.02.52.02,0,.11,0,.25-.05.31-.17.11-.36.27-.53.24-.65-.05-.68-.08-.68.63.38,0,.79.03,1.23.03-.19.55-.49.71-.9.68-.36-.02-.52.11-.52.47.03.44-.03.85,0,1.26.03.14.27.3.41.3.46,0,.93-.11,1.37-.05.99.13,1.94.38,2.9.57.14.03.3,0,.47.03-.03-.19,0-.38-.11-.52-.63-1.04-1.37-2-1.89-3.1-.33-.65-.41-1.45-.47-2.22-.08-.73.03-1.5.03-2.27-.27-.11-.57-.22-.9-.36-.06-.02,0-.24,0-.43.63.11,1.01-.14,1.23-.69q-.93-.44-1.07-.82c.19-.03.38,0,.58-.03.24-.05.46-.13.71-.22-.22-.08-.44-.16-.66-.27-.16-.06-.33-.17-.49-.25.03-.02.05-.08.05-.13.36-.06.69-.11,1.13-.2-.31-.38-.52-.65-.77-1.01.3-.05.52-.11.71-.16.19.32.41.65.66,1.12.27-.52.46-.91.66-1.26.08.03.16.05.22.08,0,.3.05.63-.09.9q-.44.96.5,1.07c-.03.8-.77.52-1.18.74v.17c.22.02.41.08.63.11.16.02.3.05.44.08-.09.16-.11.41-.25.46-.22.11-.49.09-.9.17-.03.77-.06,1.59-.06,2.41,0,.77.03,1.51.06,2.27.02.11.02.25.08.33.77,1.32,1.5,2.63,2.35,3.89.22.3.8.44,1.24.52.51.09,1.02.06,1.56.09h.35c.14.54-.24.71-.6.68-.93-.05-1.83-.19-2.76-.27-.09,0-.17-.06-.22-.06-1.35.19-2.47-.6-3.76-.74-.44-.03-.93-.08-1.31.06-.4.15-.79.21-1.19.23-.48.02-.96-.01-1.44-.01-.25.02-.55.08-.74.24-.52.41-1.1.3-1.65.28-.38-.03-.74-.03-1.09-.03-.47.03-.96.05-1.43.08-.24.03-.52.03-.74.11-.76.33-1.5.66-2.24.99-.19.08-.39.11-.58.11-.71.02-1.42.05-2.13.05-.25,0-.47-.14-.72-.22-.16-.05-.35-.16-.55-.16-1.67.04-3.34.12-5.02.14-.24.01-.49.02-.73.02-.82.03-1.64-.08-2.46-.05-1.18.05-2.36.19-3.54.27-.35.03-.74-.03-1.09-.03-.03-.08-.06-.16-.06-.24.38-.17.8-.36,1.21-.44.44-.11.9-.08,1.34-.11.52-.03.66-.3.38-.77-.27-.44-.46-.93-.79-1.28-.55-.63-.55-1.43-.77-2.14-.19-.6-.44-1.18-.63-1.78-.08-.22-.08-.47-.14-.69-.17-.6-.23-1.2-.23-1.81Z"/>
      <path class="cls-2" d="m47.47,92.51c.79-.91,1.78-.44,2.73-.5,0,.44-.13.61-.54.61-.72-.03-1.46,0-2.19-.11Z"/>
      <path class="cls-2" d="m46.64,99.11c1.15-.44,2.39-.19,3.59-.3.06.33-.03.49-.41.52-.68.08-1.37.24-2.05.27-.39.03-.77-.16-1.13-.24v-.25Z"/>
      <path class="cls-2" d="m48.59,66.86c-.41-.3-.88-.57-1.26-.93-.41-.38-.36-.96.11-1.42.52-.52,1.78-.55,2.33-.03.76.74.9,1.15.63,1.81-.22.49-.72.85-1.35.85-.05-.06-.27-.14-.46-.28Z"/>
      <path class="cls-2" d="m47.66,57.9c-.58.66-1.04.74-2.3-.08.63-.79,1.47-.98,2.16-.6.36.22.38.38.14.68Z"/>
      <path class="cls-2" d="m42.92,95.11c.65-.74,3.31-1.21,3.86-.69-.47.44-2.77.85-3.86.69Z"/>
      <path class="cls-2" d="m45.9,56.26c-.65.06-1.17.69-1.26,1.32-.11,1.04,0,1.31.88,1.67.33.11.71.11,1.04.16,1.75.03,2.41-.49,2.41-1.92.03-.63-.27-1.09-.9-1.17-.71-.11-1.45-.11-2.17-.06Zm.39,3.95c-1.18.05-2.3-.99-2.58-2.11-.16-.69.14-1.32.71-1.7,1.26-.77,2.61-1.21,4-.55.52.22,1.02.66,1.32,1.12.16.28.03.82-.17,1.18-.27.58-.6,1.23-1.09,1.56-.55.36-1.29.36-1.97.5-.06.02-.14,0-.22,0Z"/>
      <path class="cls-2" d="m92.94,86.12c-.08.52-.13,1.02-.22,1.51.36,0,.63.03.94.03.02-.52.02-1.02.05-1.51-.27,0-.49-.03-.77-.03Zm-.71,1.54c.08-.63.17-1.07.25-1.62-.22,0-.61-.03-.63.03-.11.38-.14.79-.11,1.18,0,.11.24.22.49.41Zm-5.07,0c.66-.36.33-.99.52-1.46,0-.05-.24-.21-.46-.41-.03.74-.06,1.26-.06,1.87Zm-1.2-1.73q-.11,1.43.52,1.37c0-.44.02-.9.02-1.34-.19,0-.35,0-.54-.03Zm-.8-34.63c-.6.39-.57.52-.11,1.02.33.35.58.76.85,1.17.08.14.08.33.11.47,1.34-1.18,1.23-2.74,1.4-4.22-.06-.03-.11-.05-.14-.08-.19.22-.38.46-.6.63-.49.35-.99.68-1.51,1.01Zm1.18,7.95c-.49,2.19-.99,4.3-1.51,6.52,1.07.33,1.57,1.18,1.62,2.33.05.87.14,1.75.19,2.6.06.82.11,1.64.17,2.46.02.61.11,1.21.05,1.78-.14,1.65-.33,3.27-.49,4.91-.03.25.05.49.05.74-.08.52-.19,1.04-.24,1.56-.11.96-.17,1.92-.28,2.9h-.03s.03,0,.06.03c1.15.47,1.62.19,1.62-1.01.02-1.04-.03-2.11,0-3.15.02-.69.13-1.35.16-2.03s-.05-1.37-.03-2.08c0-.74.14-1.45.17-2.19.02-1.35,0-2.72,0-4.06.02-.79.35-1.18,1.12-1.45,1.07-.38,2.03,0,2.99.44.16.05.33.35.33.57.11,1.62.21,3.24.21,4.85,0,1.4-.1,2.8-.24,4.19-.17,1.81-.39,3.62-.52,5.46-.03.21.19.63.38.71.38.11.82.05,1.29.05,0-.24.03-.44.03-.63-.06-1.45-.11-2.93-.11-4.38,0-3.32.02-6.63.05-9.92,0-.82.44-1.31,1.26-1.45.58-.11,1.15-.19,1.75-.19,1.18-.03,2.39-.03,3.57-.03,1.09.03,2.19.19,3.26.06,1.7-.22,3.34-.42,5.04-.28.66.03.79-.11.79-.74,0-.11-.08-.19-.05-.27.3-1.26-.08-2.41-.39-3.59-.24-.88-.54-1.73-.79-2.58-.19-.68-.47-1.37-.52-2.05-.08-.74-.52-.58-.93-.52-.8.11-1.59.27-2.39.35-1.39.14-2.82.22-4.22.39-1.69.16-3.37.33-5.04.55-2.38.32-4.71.24-7.01-.55-.44-.17-.93-.22-1.37-.3Zm-11.86-2.69c-.14,1.78-.08,3.56.16,5.34.19,1.32.3,2.69.5,4,.27,1.73,1.67,2.96,3.01,2.94,1.07-.17,2.14-.25,3.15-.58,1.51-.47,1.84-1.92,2.27-3.21.25-.76.28-1.61.58-2.38.41-.98.52-2.03.66-3.07.11-.76.16-1.53.19-2.3.03-.46.05-.93-.06-1.37-.22-.66-.52-1.31-.82-1.94-.22-.44-.55-.85-.77-1.32-.24-.52-1.2-1.26-1.78-1.23-1.15.03-2.33.14-3.48.22-.79.05-1.64-.14-2.13.77-.36.63-.91,1.15-1.15,1.8-.25.72-.28,1.54-.33,2.33Zm-2.14-6.27c-.14-.14-.27-.28-.44-.39-.08-.08-.22-.08-.3-.05s-.14.16-.14.25c.06.19.14.35.22.54.17.36.36.72.52,1.07.17.36.25.77.5,1.07.22.3.54.52.96.91.32-.53.57-1.05.98-1.43.33-.33.17-.41-.11-.57-.76-.42-1.59-.72-2.19-1.4Zm-11.23,1.04c-.36.19-.44.66-.25,1.07.28.55.52,1.09.77,1.64.08.17.14.36.22.58,2.16-1.54,2.41-3.7,2.41-6-.06.02-.11.05-.17.08-.93.99-1.75,2.03-2.98,2.63Zm-8.96.6c.33.5.63.71,1.1.14.11-.14.38-.25.57-.25.27,0,.66-.24.77.28.03.13.27.24.44.35.6-.82,1.59-.93,1.97-.19.52-.66,1.26-.27,1.86-.33-.22-.52-.6-.57-1.07-.49-.27.03-.54.08-.82.08-1.61,0-3.23,0-4.82.41Zm-2.16,0c.19.22.32.39.46.58.41-.17.82-.36,1.26-.52-.57-.03-1.12-.06-1.72-.06Zm-3.62,35.75c-.08.94-.22,1.84-.33,2.77.19,0,.44.08.6,0,.39-.14.99-.33,1.04-.57.14-.72.09-1.46.06-2.2-.03-.46-.47-.41-.77-.43-.3-.03-.55.02-.6.43Zm.46-35.97c-.71.08-.84.44-.49,1.24.17-.2.25-.39.41-.5.22-.19.47-.33.74-.44.63-.27.63.36.8.63.44-.27.85-.57,1.28-.85-.05-.02-.16-.13-.3-.13-.79,0-1.61-.03-2.44.05Zm-2.79,4.17c-.96.87-1.04,1.97-.77,3.04.39,1.67.99,3.31,1.48,4.96.11.3.11.6.25.85.3.52.57,1.06.99,1.5.63.66,1.28,1.48,2.08,1.76.9.32,1.94.52,3.01.32,1.23-.24,2.52-.16,3.75-.3.94-.11,1.84-.41,2.39-1.23.46-.71.87-1.42,1.23-2.19.91-1.89,2.06-3.7,2.47-5.81.19-.93.54-1.86.11-2.82-.31-.66-.61-1.34-.94-2.03-.16-.41-.41-.74-.95-.55-.11.03-.33.03-.39-.05-.35-.38-.57-.14-.79.11-.44.46-.96.49-1.54.08-.13-.14-.46-.3-.54-.22-.77.52-1.43.17-2.11-.22-.88.82-1.24.66-2,.19-.14-.08-.41-.11-.52-.02-.47.44-.96.33-1.51.19-.17-.03-.38.05-.55.11-.33.08-.74.41-.96.3-.63-.25-1.18-.11-1.78-.03-.27.06-.57,0-1.04,0-.05.08-.22.33-.36.58-.32.49-.57,1.09-1.01,1.48Zm-.55,30.85c-.9.27-1.31,1.2-.82,2.05.27.44.58.88.88,1.34.79.06,1.23-.33,1.12-.9-.05-.44-.08-.91,0-1.34.11-.55-.57-1.35-1.18-1.15Zm-2.38-35.15c.14,1.26.88,2.24,1.59,3.23.27.38.52.27.71,0,.22-.3.38-.66.55-1.02.24-.57.49-1.2.74-1.78-1.34-.76-2.74-1.26-3.7-2.68-.11.36-.22.57-.19.77.05.49.22.98.3,1.48Zm-4.47,36.21c.03-.54-.27-.68-.68-.76-.22-.03-.44-.03-.77-.03.06,1.01.17,1.94.19,2.88,0,.46.25.6.66.6.58,0,.63-.08.58-.69-.03-.65-.03-1.34.02-2Zm-3.09-.82c-.39.14-1.02.41-1.02.58.09.76-.13,1.53.2,2.3.19.46.43.49.79.46.44-.05.3-.35.22-.63-.06-.13,0-.3,0-.46.03-.58.08-1.15.14-1.92-.03-.05-.22-.33-.33-.33Zm-3.13-11.7c-.57-.46-2.65-.49-3.26-.05-.08.05-.16.25-.16.35.11,1.54.41,3.02.82,4.5.22.79.33,1.64.47,2.46.11.55.16,1.1.33,1.59.3.96.63,1.89,1.04,2.8.24.6.46,1.28,1.18,1.67.08-.17.16-.3.16-.44.08-.93.16-1.84.19-2.79.06-1.16-.05-2.33.06-3.48.19-1.95.16-3.89-.3-5.78-.09-.31-.31-.63-.53-.83Zm11.35-17.15c-4.72.09-9.56.44-14.52.96-.2,1.87-.39,3.73-.58,5.59-.08.8-.14,1.62-.19,2.44-.14,1.67-.06,3.34.27,5.01.09.47.11.96.14,1.46,0,.3.03.43.41.38.96-.08,1.92-.08,2.88-.06.27,0,.63.11.85.31,1.07.79,1.45,1.97,1.48,3.2,0,1.18-.22,2.36-.33,3.53-.06.61-.14,1.18-.17,1.79-.05,1.17-.08,2.35-.13,3.58.38,0,.79.06,1.2.03.88-.08,1.76-.19,2.63-.27.22-.03.44,0,.69,0-.03-.06-.09-.11-.11-.17.13-.19.27-.38.41-.57.03-.06.05-.17.05-.25v-4.16c.03-.61,0-1.24.17-1.84.3-1.29.68-2.55,1.09-3.81.09-.22.33-.43.58-.52.96-.38,1.92-.33,2.88.03.1.36-.25.99.73.9.06,1.7.17,3.32.2,4.94,0,1.61-.11,3.26-.14,4.82.27.11.49.24.71.27.25.06.5.03.74.03.3,0,.66-.11.93,0,1.21.55,2.44.38,3.67.46.72-6.32.61-12.1.14-17.01-.25-.05-.49-.11-.74-.19-1.09-.38-2.05-.88-2.71-1.97-.71-1.21-1.26-2.47-1.7-3.76-.55-1.67-1.01-3.37-1.53-5.15Zm-12.85-.02c1.5-.11,3.01-.33,4.49-.44,2.06-.14,4.08-.19,6.11-.3.63-.03,1.26,0,1.89-.09.22-.02.44-.21.58-.41.32-.52-.17-.76-.44-1.09-.28-.39-.63-.71-.85-1.13-.36-.6-.63-1.23-.88-1.89-.19-.41-.35-.85-.35-1.26,0-1.56.08-3.12.1-4.68,0-.6.42-.74.85-.82.5-.11.77.11.74.68-.02.19.14.39.2.58.21,1.04,1.37,1.39,1.75,2.35.05.14.22.22.33.3.24.14.57.2.71.36.55.66,1.18.44,1.86.33,1.02-.14,2.06-.11,3.07-.08,1.02.05,2.06.27,3.07.24,1.97-.08,3.97-.22,5.94-.43.58-.06,1.13-.14,1.68,0,.54.11.98-.03,1.39-.36.36-.3.69-.66,1.02-.96.87-.82,1.61-1.67,1.83-2.85.41-.08.77-.16,1.26-.27.17.82.52,1.64.44,2.44-.11,1.61-.05,3.28-.88,4.76-.38.71-.79,1.48-1.31,2.11-.38.47-1.04.6-.88,1.51.08.63-.33,1.34-.46,2.03-.36,1.56-.93,3.04-1.73,4.43-.68,1.26-1.31,2.55-2.05,3.79-.14.24-.31.46-.52.65-.17.18-.35.35-.54.5-.59.46-1.3.76-2.12.93-1.4.3-2.77.41-4.17.33-.52-.03-1.01-.03-1.56-.06.08.49.17.88.17,1.23,0,.96-.06,1.95-.09,2.94-.02,1.37-.08,2.76-.11,4.13-.05,1.48-.1,2.96-.13,4.44v.26c-.03,1.31-.03,2.62,0,3.93,0,.28.11.55.11.82-.03.99-.11,2-.17,2.99,0,.06-.08.08-.13.14-.77,1.01-1.92,1.26-3.1,1.34-.66.05-1.34-.08-2-.03-.96.06-1.75-.13-2.3-.98-.11-.2-.22-.41-.33-.61-.38-.85-.85-1.7-.27-2.65.16-.28.22-.63.22-.96.02-1.02,0-2.03,0-3.04,0-1.65.02-3.26.02-4.91,0-.49-.02-.98-.08-1.48-.11-1.09-.66-1.31-1.31-1.37-.91-.05-1.73.41-1.76,1.18-.13,1.89-.19,3.78-.22,5.67-.02.96.11,1.92.17,2.88.08,1.51.13,2.98.22,4.46.02.72-.11,1.35-1.07,1.59-1.34.36-2.71.14-4.08.03-.25-.03-.55,0-.72.03.83.85,1.65,1.7,2.44,2.52.85.85,1.65,1.7,2.52,2.52.82.79,1.67,1.53,2.52,2.3.03.08.19.03.28.08.63.39,1.28.8,1.89,1.24.55.38,1.04.84,1.61,1.17,1.37.77,2.8,1.51,4.22,2.19.99.47,1.98,1.02,3.07,1.21.44.08.82.25,1.23.36h0c.88.27,1.75.6,2.62.79,1.18.27,2.36.52,3.54.71.85.14,1.7.33,2.57.3,2.25-.05,4.5-.24,6.74-.38.5-.03,1.02-.05,1.51-.16.88-.17,1.75-.36,2.63-.55,1.12-.22,2.27-.44,3.4-.69,1.72-.38,3.48-.71,5.18-1.23.7-.2,1.4-.44,2.09-.69,1.07-.38,2.13-.8,3.19-1.2.82-.33,1.62-.74,2.44-1.1.82-.35,1.7-.68,2.49-1.09,1.7-.91,3.4-1.84,5.07-2.8,1.07-.63,2.11-1.28,3.1-2,.71-.52,1.31-1.17,1.97-1.78.88-.82,1.81-1.59,2.6-2.52,1.43-1.64,2.25-3.61,2.88-5.67.58-1.94,1.4-3.83,1.73-5.83.21-1.46.52-2.88.79-4.3.03-.2,0-.44,0-.66.03-.63.03-1.23.06-1.86.02-.8.08-1.62.05-2.42,0-.13-.27-.35-.44-.38-1.7-.22-3.37.17-5.07.3-.6.06-1.2.19-1.8.17-.58,0-1.16-.22-1.76-.25-1.18-.08-2.35-.11-3.53-.11-.41,0-.85.11-1.26.25-.17.05-.36.3-.39.49-.19,1.15-.41,2.3-.43,3.45-.03,1.32.13,2.66.19,3.97.02,1.84.19,3.68,0,5.48-.11,1.21.27,2.36-.03,3.54-.16.68-.14,1.34-.99,1.61-.87.31-1.72.2-2.6.09-.11-.03-.27-.3-.27-.47,0-.99.05-2,.08-2.99.03-.46,0-.93.05-1.39.11-1.1.31-2.19.44-3.32.08-.74.17-1.48.19-2.24.06-1.29.11-2.61.06-3.89-.03-1.13-.22-2.25-.3-3.37-.06-.63-.36-.91-1.15-.94-.63,0-.91.25-.91.88-.05,1.07-.05,2.17-.11,3.23-.05,1.13-.16,2.22-.22,3.35-.02.65.11,1.31.06,1.97-.14,1.4-.28,2.77-.06,4.16.17,1.24.09,2.52.06,3.78-.03.85-.52,1.32-1.29,1.4-.33.06-.68.03-1.01.11-.11.03-.22.06-.3.06-.33,0-.61-.2-.91-.42-.35-.27-.46-.57-.46-1.01,0-.63-.11-1.23-.2-1.89.25-.03.42-.03.74-.05.03-.96.06-1.87.09-2.74,0-.06.02-.14.02-.2.22-1.8.52-3.64.61-5.45.08-1.83-.09-3.64-.17-5.48-.08-1.48-.38-2.93-1.15-4.24-.08-.14-.25-.36-.33-.36-.16.06-.33.19-.44.36-.57.85-1.2,1.61-2.21,2-.69.27-1.37.49-2.17.52-.82.02-1.64.24-2.49,0-.77-.19-1.51-.39-1.87-1.24-.24-.54-.57-1.09-.82-1.64-.24-.52-.57-1.04-.68-1.59-.19-1.15-.3-2.3-.39-3.45-.05-.74-.08-1.48-.08-2.19,0-.85.11-1.73.08-2.58,0-.6-.13-1.2-.21-1.81-.03-.02-.17-.05-.2-.11-.6-.6-1.28-1.12-1.72-1.8-1.04-1.7-1.43-3.59-1.45-5.56,0-.17.3-.42.52-.55.13-.09.38-.06.43-.06.63.74,1.13,1.45,1.76,2,.49.47,1.2.66,1.72,1.07.72.55,1.46.41,2.25.3.96-.16,1.95-.33,2.93-.38.63-.06,1.29.19,1.89.14.69-.11,1.21.05,1.78.35.41.22.91.33,1.32,0,.77-.6,1.5-1.23,2.24-1.83.58-.47,1.18-.96,1.79-1.4.05-.06.32.11.35.16.03.58.08,1.13.06,1.67-.06.99-.03,2-.28,2.96-.19.72-.66,1.43-1.12,2-.8.93-1.32,1.92-.93,3.13.13.43.49,1.01.9,1.15,1.23.46,2.52.82,3.86.79.8-.03,1.62.08,2.44.06,1.18-.06,2.39-.17,3.59-.28.6-.03,1.21-.13,1.81-.19,1.62-.19,3.23-.36,4.85-.55.9-.11,1.81-.24,2.68-.41.14-.03.36-.27.33-.35-.08-.52-.16-1.07-.35-1.54-.33-.93-.77-1.83-1.13-2.74-.22-.49-.33-1.01-.57-1.45-.47-.79-1.02-1.51-1.51-2.27-.57-.85-1.07-1.78-1.7-2.61-1.01-1.26-2.13-2.44-3.2-3.67-.52-.6-1.15-1.12-1.56-1.81-.39-.71-1.1-1.09-1.62-1.64-.74-.74-1.73-1.26-2.69-1.78-.85-.47-1.72-.82-2.63-1.18-.95-.38-1.91-.77-2.93-1.01-1.78-.44-3.59-.77-5.39-1.13-1.29-.24-2.61-.49-3.92-.6-1.13-.08-2.3,0-3.45,0-.94-.03-1.84-.05-2.77-.08-1.15-.06-2.3-.19-3.45-.22-1.48-.03-2.96-.03-4.41-.03h-.44c-1.21.14-2.41.28-3.62.36-1.61.08-3.2.49-4.74.96-.98.27-1.86.85-2.85,1.07-1.59.33-3.09.79-4.52,1.56-1.89.98-3.75,2.05-5.61,3.07-.55.3-1.18.52-1.68.9-1.2.9-2.3,1.97-3.53,2.9-.33.25-.66.53-.96.8-.93.82-1.78,1.78-2.63,2.71-.93,1.01-1.78,2.08-2.6,3.21-.74,1.04-1.45,2.11-2.08,3.23-.55,1.01-.96,2.11-.91,3.37.5.05.96.19,1.43.14Zm-3.26,17.8c-.19-1.45-.11-2.96-.14-4.43-.03-.47.03-.91.03-1.35.03-.96.05-1.94.08-2.93.11-2.08.14-4.19.36-6.27.11-.99.19-1.97.43-2.96.5-1.92,1.37-3.64,2.25-5.37.6-1.15,1.34-2.27,2.19-3.32.82-1.01,1.84-1.86,2.77-2.79.14-.14.27-.33.41-.47.96-.84,1.92-1.64,2.88-2.49.55-.49,1.12-.99,1.61-1.53.91-1.04,2.17-1.48,3.32-2.09.93-.49,1.83-1.04,2.74-1.53,1.04-.55,2.05-1.12,3.07-1.64.49-.25,1.01-.52,1.53-.69.77-.22,1.54-.3,2.27-.55.91-.27,1.76-.68,2.63-.98,1.05-.33,2.09-.63,3.16-.85,1.17-.25,2.41-.38,3.61-.49,1.23-.09,2.49-.11,3.76-.14,1.23-.06,2.49-.14,3.72-.11.93,0,1.84.14,2.74.22.27.03.55.11.82.11.66-.03,1.34-.06,2.03-.06,1.04,0,2.08.06,3.12.09,1.73.05,3.43.13,5.13.6,1.53.44,3.12.63,4.68,1.04.96.25,1.86.74,2.8,1.12.08.03.13.11.21.08.91-.11,1.35.66,2,1.05.69.38,1.35.84,2.06,1.17,1.04.47,1.94,1.1,2.82,1.78.96.72,1.86,1.46,2.71,2.28.44.44.72,1.04,1.1,1.56.36.49.77.96,1.12,1.48.3.38.55.82.82,1.23.39.63.77,1.23,1.13,1.89.44.77.82,1.54,1.23,2.3.47.83.85,1.73,1.42,2.47.8,1.07,1.1,2.3,1.59,3.48.55,1.26.91,2.6,1.24,3.94.16.63.19,1.32.22,2,.02,1.51.22,2.99.54,4.47.25,1.04.28,2.16.31,3.23.02,1.1,0,2.22-.11,3.29-.14,1.29-.33,2.55-.55,3.81-.22,1.09-.5,2.22-.74,3.31-.08.36-.17.71-.3,1.07-.33.93-.72,1.86-1.04,2.8-.25.65-.36,1.34-.63,1.97-.42.9-.88,1.75-1.4,2.57-.41.69-.88,1.35-1.43,1.92-.82.88-1.75,1.7-2.63,2.52-.74.66-1.45,1.37-2.27,1.92-1.12.74-2.33,1.34-3.51,2-1.89,1.01-3.75,2.14-5.72,3.01-2.85,1.29-5.67,2.74-8.74,3.51-2.77.68-5.56,1.26-8.36,1.86-1.12.28-2.24.55-3.37.77-.46.11-.93.14-1.4.16-2,.11-4.02.2-6.02.31-1.56.1-3.07,0-4.58-.39-1.09-.27-2.24-.41-3.34-.68-1.7-.47-3.42-.91-5.1-1.51-1.28-.47-2.49-1.1-3.67-1.78-1.34-.8-2.63-1.7-3.94-2.55-.88-.55-1.84-1.01-2.66-1.64-.99-.74-1.83-1.65-2.77-2.5l-.82-.82c-.85-.85-1.75-1.64-2.55-2.57-.65-.74-1.15-1.65-1.72-2.47-.22-.3-.44-.66-.71-.93-.96-.88-1.37-2.05-1.89-3.18-.44-.98-.88-2-1.21-3.01-.22-.74-.22-1.56-.38-2.33-.33-1.67-.77-3.32-.96-4.99Z"/>
    </g>
  </g>
</svg>