<?xml version="1.0" encoding="UTF-8"?>
<svg xmlns="http://www.w3.org/2000/svg" viewBox="0 0 136.06 136.06">
  <defs>
    <style>
      .cls-1 {
        fill: #fff;
      }

      .cls-2 {
        fill: #0c3454;
      }

      .cls-3 {
        fill: #e0e1e3;
      }
    </style>
  </defs>
  <g id="Layer_3" data-name="Layer 3">
    <rect class="cls-3" x="0" width="136.06" height="136.06"/>
  </g>
  <g id="B_W" data-name="B&amp;amp;W">
    <path class="cls-2" d="m14.23,114.8c21.33.53,42.67.94,64.01.73,14.68-.2,29.37-.2,44.06-.11v2.44c-14.68-.16-29.36-.24-44.05-.11-21.37.09-42.7-.48-64.02-1.21v-1.74Z"/>
    <g>
      <path class="cls-1" d="m24.75,47.26c.18.69.19,1.4.12,2.11-.04.42,0,.85-.02,1.27-.01.35-.05.68-.07,1.02,0,.05-.04.1-.06.16-.27-.14-.34-.39-.44-.61-.14-.33-.27-.67-.38-1.02-.06-.18-.08-.38-.11-.58-.06-.3-.09-.61-.17-.9-.15-.54-.27-1.08-.3-1.64,0-.04.02-.11.06-.13.21-.16.97-.15,1.18.02.09.07.16.19.19.3Z"/>
      <path class="cls-1" d="m40.06,47.16c.16.21.38.22.47.03.02-.03-.06-.16-.08-.16-.12.03-.25.08-.39.13Zm-.15,1.23c.39.06.45.03.43-.28-.13.12-.39,0-.43.28Zm11.83-9.98c.1.16.14.35.21.53.14.33.29.66.42,1,.06.17.1.37.13.56,0,.03-.07.12-.12.13-.33.06-.66.11-.98.15-.59.07-1.18.13-1.77.2-.23.02-.45.06-.67.07-.43.04-.87.08-1.31.1-.29.01-.59-.03-.89-.02-.49.01-.95-.12-1.4-.29-.15-.05-.28-.26-.34-.42-.13-.44.06-.8.34-1.14.18-.21.35-.47.42-.73.09-.35.08-.72.1-1.08.01-.2-.01-.4-.03-.61,0-.02-.11-.08-.13-.06-.22.16-.43.34-.65.51-.27.22-.54.45-.81.67-.15.12-.33.08-.48,0-.21-.11-.41-.17-.65-.13-.23.02-.46-.07-.69-.05-.36.02-.72.08-1.08.14-.28.04-.55.09-.81-.11-.2-.15-.45-.22-.64-.39-.23-.2-.41-.46-.64-.73-.01,0-.1,0-.16.02-.08.05-.19.14-.18.2,0,.72.15,1.41.53,2.03.15.25.41.44.62.66.02.02.07.03.07.04.03.22.08.44.09.66,0,.31-.03.63-.03.94-.01.26,0,.53.02.8.04.42.07.84.15,1.26.04.2.15.39.24.58.1.2.22.4.31.6.12.31.39.38.67.45.31.09.61,0,.92,0,.28-.01.53-.09.79-.19.36-.14.6-.42.8-.73.04-.06.11-.11.17-.13.03,0,.09.08.12.13.28.48.38,1.01.41,1.55.04.67.09,1.33.07,2-.03.66-.15,1.33-.23,1.99v.07c-.01.32-.02.65-.03,1-.12.01-.19.01-.27.02.02.24.06.46.07.69,0,.16.04.27.17.37.1.08.2.15.33.15v.42c-.21-.01-.4,0-.58-.03-.16-.03-.38-.08-.46-.19-.31-.46-.57-.94-.85-1.42-.02-.03-.03-.08-.03-.12-.01-.28-.03-.55-.03-.83,0-.3.02-.6.03-.88.14-.03.24-.02.33-.06.04-.02.06-.11.09-.17-.05,0-.11-.02-.16-.03-.08-.01-.16-.03-.24-.04v-.06c.15-.08.43.02.44-.27-.35-.04-.34-.04-.18-.39.04-.1.02-.22.03-.33-.03-.01-.05-.02-.08-.03-.07.13-.15.27-.24.46-.1-.17-.17-.29-.24-.41-.08.02-.15.04-.27.06.1.13.18.23.28.37-.15.03-.28.05-.4.07-.01.02-.02.04-.02.05.06.03.12.07.18.09.08.04.16.07.24.1-.09.03-.17.06-.26.08-.07.01-.14,0-.22.01q.06.14.39.3c-.07.2-.22.29-.45.25,0,.07-.01.15.01.16.11.05.23.09.33.13-.01.28-.04.56-.02.83.03.28.06.57.17.81.2.4.47.75.7,1.13.03.05.02.12.04.19-.06-.01-.12,0-.18-.01-.35-.07-.7-.16-1.05-.21-.16-.02-.34.02-.5.02-.06,0-.15-.06-.15-.11-.02-.15,0-.3,0-.46,0-.13.05-.18.18-.17.15.01.27-.05.34-.25-.17,0-.31-.01-.45-.01,0-.26,0-.25.24-.23.07.01.14-.05.2-.09.02-.02.01-.07.02-.11-.07,0-.13,0-.2-.01-.02,0-.04,0-.09-.01,0-.11,0-.22,0-.34q-.41.07-.49.45s-.01.04-.02.06c-.06.28-.16.55-.1.84.03.15,0,.32-.05.46-.04.1-.41.08-.5.01.08-.41.18-.81.23-1.21.08-.58.24-1.16.14-1.76-.04-.25-.04-.5-.06-.75-.03-.25-.05-.5-.07-.75-.01-.03-.03-.05-.07-.14-.07.11-.12.18-.15.26-.05.14-.1.21-.27.13-.1-.05-.22-.06-.33-.09-.02.04-.03.07-.04.1.07.05.13.13.21.15.25.04.31.2.32.42.02.35.03.7.06,1.04.02.21-.07.33-.27.34-.06.01-.13.04-.19.05.1.27.33.12.48.2-.05.2-.15.33-.35.32-.21,0-.2.11-.17.27.16-.02.3-.03.44-.04,0,.07,0,.13,0,.18-.04.22-.04.47-.16.63-.13.18-.18.35-.2.55,0,.2-.1.27-.3.29-.46.05-.93.13-1.39.2-.13.02-.25.04-.35.05.06-.33.13-.64.18-.94.07-.45.15-.9.2-1.35.03-.32.04-.66.02-.98-.01-.26-.11-.5-.14-.76-.05-.45-.24-.84-.49-1.21-.27-.41-.56-.81-.84-1.22-.05-.08-.1-.18-.12-.27-.06-.21-.08-.45-.18-.65-.19-.4-.36-.8-.35-1.25-.38-.02-.5.04-.54.28-.05.29-.11.58-.18.87-.07.25-.21.48-.23.73-.05.48-.04.97-.05,1.45,0,.04.04.09.06.13.02.06.06.12.05.18-.02.28.08.55.19.79.2.47.43.93.68,1.39.25.48.49.96.58,1.52.07.42.07.8-.03,1.21-.05.21-.17.22-.31.24-.11.01-.22.03-.31,0-.11-.03-.24-.1-.27-.19-.08-.16-.11-.35-.13-.54-.05-.41-.24-.77-.43-1.12-.18-.32-.43-.6-.63-.91-.07-.11-.11-.26-.13-.4-.02-.18.06-.4-.01-.56-.14-.35-.05-.69-.08-1.04,0-.07.04-.15.08-.29.07.11.12.16.14.23.04.14.18.14.24.08.08-.08.15-.21.15-.33,0-.11-.09-.24-.25-.21-.1.01-.19.05-.33.1.07-.22.14-.43.21-.64.08.12.16.23.26.37.04-.13.08-.22.09-.32.02-.21-.25-.12-.29-.28.2-.54.37-1.1.36-1.69,0-.05.02-.11.05-.16.07-.17.09-.32-.08-.44-.08-.06-.18-.08-.28-.06l-.32-.09s.06-.09.08-.13c.27-.45.49-.92.75-1.38.29-.51.5-1.05.62-1.62.06-.25.21-.51.17-.74-.05-.33.19-.38.33-.55.19-.23.33-.51.48-.77.29-.54.28-1.15.32-1.74.02-.29-.1-.59-.16-.89-.19.04-.32.07-.46.1-.08.43-.36.74-.67,1.04-.13.11-.24.24-.38.35-.14.12-.3.17-.5.13-.2-.05-.4-.02-.61,0-.72.08-1.45.13-2.18.16-.37.01-.74-.07-1.12-.09-.37,0-.75-.02-1.11.03-.26.04-.48.12-.68-.12-.06-.06-.17-.08-.26-.13-.05-.03-.11-.06-.13-.11-.13-.35-.55-.48-.64-.86-.01-.07-.07-.14-.07-.21.02-.21-.08-.29-.27-.25-.15.03-.3.08-.31.3,0,.57-.04,1.14-.04,1.71,0,.15.07.31.13.46.1.24.2.47.32.69.09.15.21.27.32.41.09.12.27.21.15.4-.04.07-.13.14-.2.15-.23.03-.46.02-.69.03-.75.04-1.49.06-2.23.11-.55.04-1.09.12-1.64.16-.17.02-.34-.03-.53-.05-.02-.46.13-.86.33-1.23.23-.41.49-.8.77-1.18.29-.41.61-.8.95-1.17.41-.45.82-.92,1.31-1.28.45-.34.84-.73,1.29-1.06.18-.14.4-.22.6-.33.69-.37,1.37-.76,2.06-1.12.52-.28,1.07-.45,1.65-.57.35-.08.68-.29,1.03-.39.57-.17,1.14-.32,1.74-.35.44-.03.88-.08,1.32-.12.05,0,.1,0,.15,0,.54,0,1.08,0,1.61,0,.43.01.84.06,1.26.08l1.02.03c.42,0,.84-.03,1.26,0,.48.04.95.13,1.42.22.66.13,1.32.25,1.98.41.36.09.72.23,1.07.37.32.13.65.26.96.43.34.19.71.38.98.66.19.19.44.33.59.59.14.25.38.44.57.66.39.45.8.88,1.17,1.34.23.3.41.64.62.95.18.28.38.54.54.83Z"/>
      <path class="cls-1" d="m30.53,53.95c-.19-.19-1.16-.02-1.41.25.4.06,1.24-.09,1.41-.25Zm1.06-.66c.15,0,.19-.06.2-.22-.36.02-.72-.15-1.01.18.28.04.54.03.81.04Zm.7,1.07s.07-.08.06-.12c0-.03-.05-.09-.09-.1-.16-.04-.57.17-.64.34.26.15.47.02.67-.12Zm-.5,1.19c-.43.04-.88-.05-1.3.12,0,.02,0,.05,0,.08.14.03.28.1.42.09.25,0,.49-.07.74-.1.15-.01.18-.07.15-.19Zm.65,1.79c.24.12.47.02.69-.04.06,0,.09-.11.13-.17-.02-.02-.04-.05-.06-.07-.25.04-.51.07-.76.11-.03.01-.06.07-.08.11,0,.01.05.05.08.06Zm1.81-2.12c-.19.04-.39.06-.58.1-.05.02-.1.07-.15.11.06.04.11.1.17.1.14-.01.29-.03.43-.07.07-.02.11-.1.17-.16-.02-.02-.03-.05-.04-.08Zm-1.71,1.05c.3.11.57.04.73-.18-.21-.18-.68-.06-.73.18Zm.53-2.03c.15.19,1.47.13,1.79-.1-.59-.04-1.19-.13-1.79.1Zm1.07-.65c.3-.02.59-.03.88-.06.03,0,.06-.06.09-.1-.05-.03-.09-.08-.13-.08-.3-.02-.59-.02-.84.16v.08Zm.34,2.89c.22.14,1.17.04,1.27-.12-.43-.12-.85-.11-1.27.12Zm1.69,1.29c-.3.04-.57.07-.87.1.23.25.67.2.87-.1Zm-.26-3.68s-.03-.12-.05-.18c-.13.03-.23.04-.31.08-.04.02-.07.09-.1.13.09.03.18.07.26.07.07,0,.16-.04.2-.1Zm1.24.82c-.38-.01-.74-.02-1.15-.03.25.36.91.36,1.15.03Zm.81.94c-.25.03-.5.07-.75.12-.03,0-.06.05-.06.07,0,.03.03.07.06.08.24.11.66.02.87-.2-.05-.03-.09-.07-.12-.07Zm.28-1.64c-.34-.06-.57.02-.65.19.3.13.56.06.65-.19Zm1.06,2.68c-.37.03-.71-.1-1.07.04.27.26.93.25,1.07-.04Zm-.57-2.01c.3-.09.65.08.93-.22-.52-.12-.92-.03-.93.22Zm1.7-.93s.02-.1.04-.17c-.46-.03-.91-.2-1.33.06v.08l1.29.03Zm-3.3-.39c.62.13.9.07.9-.2-.3-.04-.61-.06-.9.2Zm2.86,2.58c-.22.03-.42.05-.62.08.24.28.53.23.62-.08Zm1.08-.77l-.03-.06c-.44.08-.89-.14-1.37.03.04.05.04.06.05.06.39.2.8.16,1.22.12.05,0,.09-.1.13-.15Zm-.32,1.89c.27.19.56.16.71-.08-.22-.09-.44-.07-.71.08Zm.97-3.01c-.25-.19-.71-.1-.84.16.29,0,.58.09.84-.16Zm.31,1.56c.07-.26.02-.31-.19-.26-.07.01-.14,0-.2.01-.05.02-.1.06-.15.08,0,.03.01.06.01.09.17.02.34.05.53.08Zm.79-2.27s-.1-.09-.15-.09c-.28,0-.55,0-.82.03-.09,0-.17.06-.25.1l.03.12c.35-.02.71-.02,1.06-.05.05,0,.09-.07.13-.11Zm.75,2.65c-.29-.01-.58-.02-.89-.03.21.3.74.3.89.03Zm-1-1.29c.25.21.81.18.91-.04-.32-.15-.61-.09-.91.04Zm.83-2.08c-.47-.07-.94-.14-1.41-.18-.25-.02-.51-.01-.76.02-.21.02-.42.09-.63.13,0,.04,0,.07.01.11.07.02.14.05.21.05.4,0,.79-.02,1.19-.01.39.01.77.06,1.15.09.14.01.28.01.42.01l.03-.09c-.07-.05-.14-.12-.21-.13Zm.48,1.21s-.06-.1-.09-.1c-.22.01-.46-.04-.63.17.21.16.41.08.61.05.04-.01.1-.07.11-.12Zm.48.95c.19.24,1.47.24,1.71-.04-.6-.04-1.15-.14-1.71.04Zm.27-1.5c.2.2,1.17.18,1.33-.02-.24-.16-1.13-.16-1.33.02Zm3.02.3c.04.25.83.34,1.16.1-.38-.11-.77-.14-1.16-.1Zm-.57-1.16c.43.1.86.07,1.32.02-.19-.23-.96-.24-1.32-.02Zm6.14-6.78c-.01.23-.02.45-.02.68,0,.08.01.17,0,.24-.09.52-.2,1.04-.29,1.57-.12.73-.41,1.42-.63,2.13-.23.75-.53,1.47-1.04,2.07-.29.34-.63.62-.96.92-.23.22-.45.46-.71.65-.36.26-.75.5-1.14.73-.6.35-1.22.69-1.84,1.02-.3.15-.61.27-.92.4-.29.13-.58.28-.89.4-.64.24-1.27.5-1.93.69-.62.19-1.25.31-1.89.45-.41.09-.82.17-1.23.25-.32.07-.64.14-.96.2-.19.04-.37.05-.56.06-.82.05-1.64.12-2.46.14-.31.01-.63-.06-.94-.11-.43-.07-.86-.16-1.28-.26-.33-.07-.64-.19-.96-.29-.15-.04-.3-.1-.45-.13-.41-.07-.76-.27-1.13-.44-.52-.25-1.03-.52-1.53-.8-.22-.12-.39-.29-.59-.43-.23-.16-.46-.31-.7-.45-.03-.02-.09,0-.1-.03-.3-.28-.62-.55-.92-.84-.31-.3-.61-.61-.91-.92-.3-.3-.59-.61-.89-.92.06-.01.16-.02.26-.01.5.04.99.12,1.49-.01.34-.09.4-.32.39-.58-.03-.54-.06-1.08-.09-1.63-.01-.35-.06-.7-.06-1.05.01-.69.03-1.38.08-2.07.02-.28.32-.45.64-.43.25.02.44.1.49.5.02.18.03.36.03.54,0,.6,0,1.19,0,1.79,0,.37,0,.74,0,1.11,0,.12-.03.25-.09.35-.21.35-.04.66.11.97.03.07.07.15.12.22.2.31.49.38.84.36.24-.02.48.03.72.01.43-.03.85-.12,1.14-.49,0-.02.04-.03.04-.05.03-.36.05-.73.07-1.09,0-.1-.05-.2-.05-.3v-1.53c.01-.54.03-1.08.05-1.62.02-.5.03-1.01.05-1.51,0-.36.02-.72.03-1.07,0-.13-.04-.27-.06-.45.19.01.38.01.56.02.52.03,1.02,0,1.53-.12.4-.08.73-.25.97-.52l.11-.11.32.09c-.09.03-.18.08-.26.16-.16.15-.08.3.02.42.05.08.15.11.25.18-.03.2-.06.42-.09.65-.17-.03-.18-.13-.21-.25-.05-.18-.18-.31-.37-.25-.11.04-.25.15-.28.26-.05.16.09.26.25.3.08.02.17.03.25.05.09.02.19.05.28.07-.09.22-.17.4-.26.62-.08-.09-.16-.16-.22-.23-.05-.06-.07-.14-.13-.2-.16-.18-.35-.11-.53-.03,0,.25-.02.53.25.64.14.06.33-.01.54-.02-.03.15-.06.34-.11.57-.05-.03-.14-.06-.14-.07.03-.15-.07-.21-.16-.3-.14-.13-.45-.14-.55.01-.03.04-.04.1-.03.14.04.13.08.25.15.36.1.16.32.19.48.08.07-.04.16-.06.24-.08-.07.29-.15.55-.2.81-.03.24-.04.47-.04.71,0,.19.03.38.08.56.09.28.18.57.31.83.18.39.39.76.61,1.14.19.33.26.69.33,1.05.04.16-.06.28-.2.28-.25-.01-.51-.01-.77-.02-.04,0-.1-.04-.13-.08-.19-.22-.32-.5-.49-.75-.32-.48-.34-1.01-.39-1.54-.03-.37,0-.74-.02-1.11-.01-.17-.04-.35-.12-.5-.17-.36-.37-.71-.58-1.06-.03-.06-.13-.14-.16-.13-.13.05-.32.11-.34.2-.1.46-.16.92-.23,1.39-.06.4-.07.8.04,1.19.03.08.03.17.05.25.08.22.17.43.23.65.08.26.09.55.29.78.11.13.19.31.28.47.11.17.06.27-.13.28-.17,0-.34,0-.5.04-.15.03-.29.1-.44.16.01.03.02.06.02.09.14,0,.27.02.41,0,.43-.03.86-.08,1.29-.1.3-.01.6.03.9.02.7,0,1.4-.04,2.1-.06.07,0,.13.04.2.06.08.03.17.08.25.08.26,0,.52,0,.78-.02.07,0,.15-.01.21-.04.28-.12.55-.24.82-.36.09-.03.18-.03.28-.04l.51-.03c.14,0,.27,0,.4.01.21.01.42.05.6-.1.07-.06.18-.08.27-.09.33,0,.65.04.97-.08.14-.05.32-.03.48-.02.46.05.88.34,1.36.27.03,0,.06.02.09.02.33.03.67.08,1.01.1.13,0,.26-.05.21-.25h-.12v-.42s.08-.01.12-.02c.11-.03.24-.02.36-.04.28-.03.46-.2.47-.51.02-.46.05-.93-.02-1.38-.07-.51-.03-1.01.02-1.52.02-.24-.02-.48-.01-.72.02-.41.05-.81.07-1.22.02-.39.03-.79.04-1.18.01-.23.1-.32.34-.32.28.01.39.11.41.34.03.41.1.82.12,1.23.01.47-.01.95-.03,1.42-.01.28-.03.55-.07.82-.05.41-.11.81-.16,1.21-.02.17,0,.34,0,.51-.02.36-.03.73-.04,1.09,0,.06.07.16.11.17.32.04.63.08.95-.03.31-.1.3-.34.36-.59.1-.43-.04-.85,0-1.29.06-.66.01-1.33,0-2-.01-.48-.08-.97-.07-1.45.01-.42.1-.84.16-1.26.01-.07.08-.15.14-.18.15-.05.31-.09.47-.09.43,0,.86.01,1.29.04.21.01.42.09.64.09.22.01.44-.04.66-.06.61-.05,1.23-.19,1.85-.11.06.01.16.09.16.14.01.29,0,.59-.02.88Z"/>
      <path class="cls-1" d="m59.43,50.03c.05-.07.09-.13.12-.18l-.03-.06c-.1.04-.21.08-.36.15l-.07-.16c.02-.19.03-.37.07-.54.09-.33.18-.66.31-.97.09-.23.21-.46.37-.64.35-.4.74-.76,1.11-1.13.03-.03.08-.05.11-.07.44-.39,1.02-.5,1.55-.7.37-.14.76-.09,1.14-.1.45,0,.75.23,1.02.53.11.13.17.32.21.49.05.19.06.4.08.59,0,.05,0,.09-.02.14-.04.12-.09.25-.14.37-.04.09-.06.18-.11.25-.1.12-.14.23-.04.34-.05.06-.09.09-.12.13-.05.07-.09.14-.15.2-.31.34-.62.68-.93,1.01-.09.1-.19.2-.31.27-.3.18-.57.4-.95.44-.27.03-.54.12-.81.15-.37.05-.73-.05-1.07-.2-.18-.08-.36-.15-.54-.22.01-.02.02-.04.02-.06-.09.04-.18.08-.37.16l-.09-.19Z"/>
      <path class="cls-1" d="m72.7,50.3c.17,0,.54-.2.57-.43h.09c.13.07.26.14.37.11.4-.11.8-.05,1.19.01.37.06.56.32.77.59.2.25.07.56.09.82s-.17.56-.35.78c-.4.5-.86.94-1.46,1.16-.34.13-.72.22-1.08.23-.33.01-.67-.08-.98-.18-.18-.05-.4-.02-.54-.28-.22-.39-.22-.78-.17-1.19.02-.19.17-.52.24-.72.1-.11.57-.62.64-.7h0s.06-.06.06-.06c.02.02.03.03.05.03.1-.02.2-.04.3-.07.08-.03.14-.1.21-.1Z"/>
      <path class="cls-1" d="m80.71,59.1c-.21.26-.5.39-.81.47-.36.1-.88-.29-.91-.66-.02-.21.23-.6.51-.67.34-.09.71-.13,1.07-.14.25,0,.47.36.46.68-.22-.01-.19.11-.14.21-.07.04-.14.06-.18.11Z"/>
      <path class="cls-1" d="m95.67,68.9c.16.01.13.11.07.19-.66-.11-1.28.2-1.98.16.05-.05.08-.13.12-.14.41-.08.82-.17,1.24-.23.18-.02.36,0,.55.02Z"/>
      <path class="cls-1" d="m96,69.44c-.58.55-1.23.27-1.87.17.62-.11,1.22-.32,1.87-.17Z"/>
      <path class="cls-1" d="m93.14,71.71s.04-.03.06-.05c-.05-.09-.09-.2-.16-.28-.17-.21-.4-.4-.52-.63-.19-.36-.39-.72-.47-1.13-.09-.48-.11-.96.01-1.43.07-.31.2-.6.3-.9h-.17c-.09.09-.19.16-.23.25-.08.17-.1.36-.17.53-.27.59-.28,1.19-.06,1.8.16.42.34.84.67,1.17.16.15.33.3.49.45.09.07.17.15.25.22Zm3.86-9.21c-.2-.21-.43-.38-.71-.45s-.56-.12-.83-.22c-.56-.2-1.12-.22-1.68-.02-.33.12-.66.25-.99.4-.27.12-.53.1-.78,0-.31-.12-.6-.18-.97-.02.1.07.14.13.2.15.13.05.26.07.39.12.42.15.75.45,1.07.75.1.1.34.25.14.48.38.46.59.65.93.76.51.16,1.03.22,1.56.09.05-.01.1-.02.15-.02.49-.03.8-.32,1.06-.69.16-.23.23-.52.48-.69.11-.08.31-.15.22-.35-.05-.11-.16-.19-.24-.28Zm-8.11,1.97c-.06.31.02.4.29.36-.02-.11-.05-.19-.05-.27.01-.1.05-.2.08-.33-.13.01-.25.01-.37.01.02.1.06.17.05.23Zm.69-1.07c-.33-.24-.73-.28-1.15-.01.07.18.21.13.33.1.54-.11.73.01.86.53.05.2.33.44.48.42.24-.04.33-.2.29-.53-.15.23-.38.22-.5,0-.1-.17-.16-.4-.31-.51Zm6.98-2.15c-.1-.04-.22-.03-.32-.05-.23-.06-.45-.16-.68-.19-.3-.04-.61-.05-.91-.03-.67.04-1.33.1-2,.17-.32.03-.64.11-.93.16-.01.07-.03.13-.04.24.27,0,.53-.02.8-.04.34-.03.68-.05,1.02-.11.22-.04.43-.05.65-.02.3.02.61-.04.91-.04.2.01.4.1.6.1.38,0,.69.19,1.01.34.34.16.49.14.55-.24-.22-.1-.43-.21-.66-.29Zm-8.7,2.84c-.09-.5.21-.92.63-1.04.46-.13.87-.1,1.26.16.09.06.15.16.21.24.1.15.19.29.28.43.1-.15.07-.37-.1-.51.03-.01.06-.02.11-.05-.09-.05-.19-.09-.25-.16-.1-.13-.02-.27.05-.38.1-.17.13-.33.08-.53-.02-.11.03-.24.05-.36.04-.17.08-.35.11-.52.11-.62.51-.97,1.1-1.08.52-.1,1.06-.2,1.59-.2.5.01.99.14,1.49.22.07.01.14.04.21.05.36.01.73.01,1.09.04.35.03.69.09,1.03.12.23.02.46.02.69.03.03.38.06.73.08,1.09.02.33.01.67.04,1,.03.38.08.77.13,1.15.05.34.14.68.18,1.03.04.48.04.97.24,1.43.07.15.09.33.13.51-.2.15-.41.05-.62.04-.35-.02-.7-.06-1.05-.05-.24,0-.45.18-.53.41-.12.35-.2.72-.26,1.08-.05.26-.07.29-.34.31-.47.03-.94.07-1.4.17-.34.08-.65.25-.97.4-.07.03-.11.14-.13.22,0,.03.09.1.14.12.51.18,1.01.37,1.52.52.19.06.4.05.6.02.25-.02.33,0,.32.24-.02.37.03.73.13,1.08.09.3.12.62.23.91.17.47.06.83-.25,1.22s-.73.56-1.15.75c-.47.2-.96.3-1.47.21-.3-.06-.59-.17-.88-.28-.27-.1-.51-.28-.89-.15.3.18.53.36.8.47.33.14.68.21,1.02.32.07.02.13.07.19.11l-.12.15s-.06.05-.06.08c-.06.42-.13.85-.18,1.27-.01.15.04.3.06.42-.02.12-.06.22-.06.32,0,.37,0,.74.02,1.11,0,.13,0,.25-.01.38-.03.36-.29.51-.59.6-.49.15-.98.12-1.47.07-.25-.03-.42-.25-.51-.46-.22-.48-.33-.98-.2-1.52.02-.05.01-.11.01-.17.05-.53.12-1.07.14-1.6.03-.62-.02-1.24-.31-1.81-.16-.3-.4-.53-.68-.67-.19-.1-.22-.25-.25-.41-.09-.5-.17-1-.24-1.5-.04-.33-.08-.67-.11-1-.06-.69-.13-1.37-.18-2.06-.02-.22-.03-.43-.03-.65.02-.55.04-1.11.06-1.68.15-.03.27.06.35.2.08.13.25.22.09.41-.04.04.05.19.08.3-.17.24-.07.48.29.55.34.06.67.02.86-.34.05-.11.04-.25.06-.38h-.08c.01.07.02.13.02.18-.18.09-.34.2-.52.26-.11.03-.28.02-.38-.04-.06-.04-.09-.21-.08-.31.07-.66-.1-.97-.7-1.24-.09-.03-.15-.13-.2-.22-.22-.32-.45-.63-.52-1.03Z"/>
      <path class="cls-1" d="m99.45,91.41c.47-.3.95-.58,1.4-.9.24-.17.44-.41.66-.62.14-.13.29-.26.42-.41s.26-.09.37.01c.45.41.99.43,1.54.37.59-.07.99-.46,1.39-.86.52-.5.76-1.14.94-1.81s.22-1.36.26-2.05c.03-.71.1-1.42-.05-2.13-.05-.25.02-.53.02-.79-.01-.48-.04-.97-.06-1.45,0-.12,0-.25-.01-.37v-2.2c0-.07,0-.14.01-.21.22-.02.37.14.37.43,0,.2-.06.41-.05.61,0,.18.05.36.1.54.01.04.11.05.18.08.02-.08.08-.15.08-.23-.01-.28-.06-.56-.04-.83.03-.47.29-.8.7-1.01.05-.03.14,0,.2,0-.01.06,0,.14-.03.18-.27.32-.31.7-.36,1.09,0,.05,0,.09-.02.13q-.1.32.03.65c.21-.13.17-.36.16-.53-.06-.65.27-1.15.66-1.6.24-.27.54-.48.84-.7.12-.08.29-.1.44-.15.01.02.03.05.04.07-.08.08-.15.17-.23.22-.37.24-.63.57-.89.91-.15.2-.31.4-.43.63-.09.19-.12.41-.16.62-.01.06.04.14.07.21.02.02.11.02.12.01.05-.08.1-.15.12-.24.04-.18.02-.38.11-.53.17-.3.37-.58.6-.83.37-.4.81-.75,1.28-1.04.3-.19.63-.19.97-.22.07.4-.29.41-.45.59.01.01.04.02.06.03-.01.01-.02.03-.03.03-.15,0-.32,0-.47.04-.08.02-.15.12-.22.19-.07.06-.12.18-.2.08-.19.18-.4.34-.56.54-.16.21-.29.44-.38.69-.13.36-.22.73-.3,1.1-.03.11,0,.23.02.34.02.15.14.24.27.23.08-.01.18-.1.24-.19.13-.16.24-.34.34-.53.11-.2.19-.41.29-.61.12-.25.31-.38.58-.3.3.58-.05,1.02-.31,1.48-.13.22-.27.44-.39.66-.19.36-.43.71-.55,1.09-.1.32-.07.69-.1,1.04v.24c-.05.71.02,1.41.08,2.11.04.38-.02.78-.08,1.15-.07.47-.18.93-.31,1.38-.1.32-.26.63-.4.93-.16.33-.31.65-.51.95-.17.27-.41.51-.61.77-.11.15-.2.33-.33.47-.24.27-.47.54-.75.77-.26.21-.55.39-.85.54-.3.16-.63.26-.93.42-.52.26-1.07.34-1.63.38-.61.05-1.2-.08-1.76-.34-.27-.13-.56-.2-.81-.35-.28-.17-.54-.4-.8-.62-.11-.1-.05-.26.1-.36Z"/>
      <path class="cls-1" d="m97.57,87.58s-.11.04-.21.09c-.07-.08-.17-.13-.19-.21-.08-.28-.15-.56-.2-.85-.1-.59-.23-1.18-.18-1.79.04-.54.07-1.09.11-1.63.05-.74.04-1.48-.05-2.22-.02-.14-.03-.29-.01-.43.02-.16.15-.13.25-.08.32.17.64.35.95.53.15.08.29.18.42.29.08.05.17.12.19.2.09.31.36.48.51.74.23.41.51.79.72,1.21.18.35.32.73.42,1.11.04.14-.02.36-.11.49-.34.52-.79.96-1.26,1.37-.21.19-.39.41-.61.6-.24.21-.5.39-.75.58Z"/>
      <path class="cls-1" d="m84.27,81.15c.23-.18.39-.43.6-.63.18-.17.38-.31.57-.46.02.02.03.04.05.06-.19.32-.02.61.33.65.46.06.92.16,1.37.24.19.04.38.09.57.13.14.02.2.11.25.25.21.55.5,1.04.92,1.46s.94.63,1.41.94c.59.39,1.24.34,1.88.41.1,0,.19.03.31.05-.16.57-.3,1.11-.47,1.65-.09.27-.24.51-.35.78-.13.32-.22.66-.38.97-.25.48-.53.94-.82,1.4-.09.15-.25.17-.44.12-.52-.13-.95-.39-1.38-.71-.28-.2-.58-.37-.87-.56-.41-.27-.64-.67-.83-1.1-.07-.15-.13-.29-.21-.42-.17-.34-.31-.69-.36-1.07-.01-.11-.06-.23-.11-.34-.06-.14-.2-.11-.29-.06-.06.03-.11.15-.1.23.08.52.23,1.02.52,1.48.13.19.2.42.32.62.27.46.61.87,1.03,1.2.23.17.42.39.65.55.35.24.67.54,1.11.65.32.08.59.31.89.45.58.27,1.19.3,1.81.26.58-.04,1.12-.25,1.68-.32.47-.06.83-.32,1.22-.55.29-.17.57-.36.86-.53.23-.13.49-.2.7-.34.54-.36,1.05-.74,1.57-1.11.45-.31.79-.74,1.17-1.12.32-.32.68-.61.96-.96.22-.28.41-.62.51-.96.14-.51.22-1.04.27-1.56.07-.64.06-1.29-.14-1.91-.09-.31-.18-.61-.26-.92-.06-.27-.1-.54-.16-.81-.05-.25-.12-.5-.15-.75-.04-.27-.04-.54-.05-.81,0-.03,0-.08.01-.08.23-.12.1-.38.23-.53.05-.06.11-.1.17-.15.03.06.09.13.09.19-.02.63-.04,1.27-.07,1.9-.01.33.03.37.42.36.08-.35.17-.72.27-1.09.13-.5.16-1.04.44-1.49.08-.12.15-.25.23-.36.02-.04.07-.05.11-.07.01.05.03.1.02.14-.09.25-.19.5-.28.76-.08.26-.15.52-.2.78-.05.25-.07.51-.1.76.21.08.3,0,.33-.16.11-.49.2-.99.33-1.48.08-.32.18-.64.34-.92.18-.28.4-.56.82-.63-.16.25-.32.47-.44.71-.18.36-.39.72-.5,1.11-.14.46-.19.95-.24,1.44-.03.27,0,.55.01.82,0,.04.08.12.1.12.07-.03.18-.08.19-.13.03-.39.02-.78.06-1.17.06-.56.17-1.12.46-1.63.25-.43.47-.89.8-1.25.29-.32.59-.69,1.08-.76.16-.02.25.03.23.19,0,.08-.03.16-.07.22-.27.42-.52.85-.82,1.25-.27.37-.6.69-.88,1.05-.49.64-.58,1.36-.35,2.12.06.2.32.38.57.39.23.01.44-.12.51-.34.08-.3.12-.62.21-.92.06-.18.15-.36.25-.53.03-.05.22-.07.25-.03.08.09.15.21.16.33.05.42-.11.81-.22,1.2-.11.43-.2.87-.26,1.31-.05.4-.06.81-.09,1.21-.03.37-.01.73-.14,1.09s-.15.76-.25,1.13c-.15.51-.33,1-.49,1.5-.07.22-.11.46-.21.67-.17.32-.37.63-.57.94-.1.16-.23.31-.33.47-.36.54-.77,1.02-1.25,1.45-.28.25-.54.53-.83.76-.35.25-.73.46-1.1.68-.4.24-.81.48-1.23.69-.41.21-.83.39-1.24.59-.23.11-.47.23-.71.33-.41.17-.81.36-1.23.46-.67.16-1.34.29-2.02.37-.46.05-.94,0-1.41,0-.21,0-.42.02-.63.02-.73.03-1.45-.09-2.15-.3-.58-.17-1.17-.32-1.73-.56-.5-.21-.99-.5-1.43-.83-.57-.45-1.09-.96-1.61-1.47-.19-.18-.32-.44-.43-.69-.26-.52-.52-1.05-.73-1.6-.2-.51-.37-1.03-.4-1.6-.05-.85.03-1.67.3-2.47.14-.41.22-.84.4-1.24.26-.59.56-1.16,1.09-1.58Z"/>
      <path class="cls-1" d="m97.13,115.57c.32-.12.59.08.88.09.01,0,.03,0,.04,0,.15-.02.29.04.3.18.01.12-.05.27-.13.37-.17.21-.42.24-.66.26-.33.04-.66.08-.99.08-.28,0-.57-.07-.85-.09-.23-.02-.47-.01-.7-.04-.44-.06-.88-.13-1.31-.23-.32-.07-.52-.3-.69-.59-.24-.45-.32-.93-.33-1.43-.01-.67-.01-1.35-.01-2.02-.01-.41-.03-.81-.03-1.22,0-.11.07-.21.08-.32.03-.67.05-1.33.08-2,0-.14-.02-.29-.02-.44,0-.23.22-.37.43-.27.71.34,1.41.68,2.12,1.02.21.1.22.3.24.49.05.48.09.96.12,1.44.04.5.06.99.08,1.49.01.13.02.27.04.4.04.18.26.36.46.35.36-.01.71-.05,1.06-.07.17-.01.34-.03.5-.01.06.01.15.12.16.19,0,.12-.01.31-.09.37-.15.11-.36.16-.55.22-.12.04-.24.06-.38.09.06.19.12.3.32.31.22,0,.43.04.65.06.19.03.37.33.17.58-.16.21-.39.28-.65.29-.2,0-.39.03-.59.06-.06.01-.11.07-.15.1.04.25.27.32.4.28Z"/>
      <path class="cls-1" d="m88.32,108.31c.27-.1.42.01.41.3-.01.37-.04.74-.03,1.11,0,.55.04,1.1.06,1.64,0,.1.01.2-.01.29-.09.33-.03.64.11.95.21.51.38.55.95.47.32-.04.67.04,1,.11.18.04.22.27.09.41-.2.22-.48.3-.76.34-.3.05-.6.1-.92.15.16.38.2.39.54.34.22-.04.45-.02.67-.04.14,0,.27.04.3.16.02.12,0,.32-.08.38-.16.11-.36.19-.56.23-.21.04-.43.01-.65.04-.07,0-.18.06-.2.12-.04.11-.04.24.11.28.11.03.21.07.32.08.32.02.64.03.96.03.14,0,.23.06.23.17,0,.07-.11.16-.19.19-.29.09-.58.16-.88.23-.12.03-.25.02-.37.03-.53.01-1.05.04-1.58.02-.44,0-.88-.08-1.25-.32-.36-.23-.64-.53-.64-1.01,0-.65-.08-1.31-.04-1.96.02-.52.16-1.04.24-1.55.05-.27.08-.54.14-.81.07-.34.17-.68.23-1.02.05-.25.06-.51.26-.71.03-.03.06-.08.1-.1.48-.18.96-.37,1.44-.55Z"/>
      <path class="cls-2" d="m98.18,55.68c.22-.24.48-.23.73-.14.11.04.19.15.29.24-.4.22-.81.16-1.02-.1Z"/>
      <path class="cls-2" d="m96.34,96.22c-.02-.21.08-.31.28-.31.05,0,.13.07.15.12.02.11,0,.23.02.41-.01.02-.04.13-.1.18-.08.06-.21.15-.26-.06-.02-.12-.08-.23-.09-.34Z"/>
      <path class="cls-2" d="m95.33,81.49c-.07.05-.14.13-.21.13-.05,0-.13-.11-.14-.17,0-.05.1-.1.19-.19.07.11.12.17.16.23Z"/>
      <path class="cls-2" d="m95,62.96c.12.02.16.32.04.4-.1.06-.24.1-.36.09-.04,0-.08-.15-.12-.24-.03-.07-.05-.16-.09-.29.2.01.37.01.53.04Z"/>
      <path class="cls-2" d="m94.76,82.16c.03.09-.01.19-.01.29-.01.03.02.06.05.14-.14-.03-.26-.05-.37-.09-.03-.01-.02-.15.01-.21.05-.14.29-.22.32-.13Z"/>
      <path class="cls-2" d="m96.24,61.2c.1.02.22,0,.32.05.23.08.44.19.66.29-.06.38-.21.4-.55.24-.32-.15-.63-.34-1.01-.34-.2,0-.4-.09-.6-.1-.3,0-.61.06-.91.04-.22-.03-.43-.02-.65.02-.34.06-.68.08-1.02.11-.27.02-.53.03-.8.04.01-.11.03-.17.04-.24.29-.05.61-.13.93-.16.67-.07,1.33-.13,2-.17.3-.02.61-.01.91.03.23.03.45.13.68.19Z"/>
      <path class="cls-2" d="m93.56,83.07c.07.15.02.25-.36.33-.07-.18-.03-.44.1-.46.08,0,.23.06.26.13Z"/>
      <path class="cls-2" d="m92.49,83.24c.1.19-.14.21-.23.33-.05-.03-.1-.06-.14-.09.02-.09.03-.18.04-.31.1.02.3,0,.33.07Z"/>
      <path class="cls-2" d="m93.04,71.38c.07.08.11.19.16.28-.02.02-.04.03-.06.05-.08-.07-.16-.15-.25-.22-.16-.15-.33-.3-.49-.45-.33-.33-.51-.75-.67-1.17-.22-.61-.21-1.21.06-1.8.07-.17.09-.36.17-.53.04-.09.14-.16.23-.25h.17c-.1.3-.23.59-.3.9-.12.47-.1.95-.01,1.43.08.41.28.77.47,1.13.12.23.35.42.52.63Z"/>
      <path class="cls-2" d="m93.68,63.52c-.06-.47-.23-.96.33-1.28-.39-.05-.5-.01-1.29.49l.9.81s.04-.02.06-.02Zm1.79-.11c.04-.11.04-.25.01-.37-.07-.41-.2-.71-.72-.66-.11.01-.21.07-.32.1q-.43.13-.44.54c-.02.56.04.66.47.78.36.1.89-.1,1-.39Zm.63.64c.01-.07.01-.15.02-.3-.21.04-.39.07-.57.12-.14.05-.28.16-.43.18-.24.03-.5.04-.75.01-.17-.02-.33-.11-.49-.18-.21-.08-.4-.24-.64-.18-.06.23.05.34.26.39.04.01.08.04.13.06.19.07.37.2.56.21.35.04.71.01,1.06.01.03,0,.07-.01.1-.02l.75-.3Zm.44-.23c-.26.37-.57.66-1.06.69-.05,0-.1.01-.15.02-.53.13-1.05.07-1.56-.09-.34-.11-.55-.3-.93-.76.2-.23-.04-.38-.14-.48-.32-.3-.65-.6-1.07-.75-.13-.05-.26-.07-.39-.12-.06-.02-.1-.08-.2-.15.37-.16.66-.1.97.02.25.11.51.13.78,0,.33-.15.66-.28.99-.4.56-.2,1.12-.18,1.68.02.27.1.55.15.83.22s.51.24.71.45c.08.09.19.17.24.28.09.2-.11.27-.22.35-.25.17-.32.46-.48.69Zm-.38-.6c.15-.19.29-.39.44-.57-.34-.33-.72-.3-1.09-.26,0,.16.33.13.15.35.21.1.14.32.15.47.02.14.05.14.14.11.08-.02.16-.05.21-.1Z"/>
      <path class="cls-2" d="m90.86,83.38c0-.14-.04-.27,0-.34.11-.15.27-.11.44.06-.13.08-.26.16-.45.28Z"/>
      <path class="cls-2" d="m89.95,82.8c-.07-.08-.21-.17-.21-.26,0-.24.2-.09.31-.13.03.02.05.04.07.06-.05.11-.11.22-.17.33Z"/>
      <path class="cls-2" d="m89.08,82.11c-.03-.07-.06-.15-.09-.22.09-.03.19-.05.28-.08.02.04.04.08.05.12l-.24.18Z"/>
      <path class="cls-2" d="m89.18,64.83c-.27.04-.35-.05-.29-.36.01-.06-.03-.13-.05-.23.12,0,.24,0,.37-.01-.03.13-.07.23-.08.33,0,.08.03.16.05.27Z"/>
      <path class="cls-2" d="m88.43,63.39c.42-.27.82-.23,1.15.01.15.11.21.34.31.51.12.22.35.23.5,0,.04.33-.05.49-.29.53-.15.02-.43-.22-.48-.42-.13-.52-.32-.64-.86-.53-.12.03-.26.08-.33-.1Z"/>
      <path class="cls-2" d="m93.09,85.16c.08-.34.13-.69.19-1.04-.21-.04-.34-.02-.33.22,0,.07-.04.15-.07.22-.11.36-.21.71-.33,1.06-.09.26-.18.51-.29.76-.16.37-.33.73-.52,1.09-.31.57-.63,1.14-.95,1.71-.06.11-.05.33.06.34.25.05.51.08.77.09.17,0,.25-.16.23-.33-.01-.06,0-.12.02-.17.07-.18.22-.36.21-.53-.03-.43.26-.76.34-1.15.1-.43.29-.83.42-1.25.1-.34.18-.68.25-1.02Zm.34-26.47c.17,0,.26-.13.22-.29-.07-.24-.12-.48-.21-.72-.07-.18-.12-.39-.41-.37-.21.01-.43-.06-.65-.06-.14,0-.28.06-.42.1,0,.02.01.05.01.08.32.17.47.46.57.79.06.2.13.43.4.45.16.01.33.02.49.02Zm.64,25.94c.05-.3.06-.6.09-.95-.13.03-.22.02-.26.06-.14.17-.29.34-.25.6,0,.11-.03.22-.06.33-.08.3-.16.61-.25.91-.13.46-.25.93-.41,1.38-.12.37-.29.71-.42,1.08-.16.46-.31.94-.47,1.41-.05.17-.01.25.17.28.4.06.66-.16.87-.45.05-.07-.01-.21.02-.31.1-.47.21-.94.32-1.41.11-.51.23-1.02.35-1.52.1-.47.22-.94.3-1.41Zm.67-26.21c0-.23,0-.46-.03-.69-.01-.12-.05-.33-.11-.34-.29-.04-.6-.04-.91-.05,0,.07,0,.09.02.11.15.35.3.71.45,1.06.04.08.09.18.16.21.18.07.41-.1.42-.3Zm.26,35.45c.07-.27.02-.37-.27-.3-.28.08-.57.13-.85.16-.27.03-.43.14-.47.41,0,.03-.02.07-.03.1-.16.45-.31.9-.47,1.34-.05.13.06.3.2.31.25.01.49.02.74.03.27.01.42-.08.52-.34s.2-.53.3-.79c.12-.31.25-.61.33-.92Zm.29-8.73c.04-.66.05-1.31.08-1.97,0-.15.04-.31.06-.47-.31-.03-.44.2-.58.36-.08.09-.09.25-.12.38-.05.29-.09.58-.15.87-.04.18-.11.36-.15.55-.15.61-.29,1.22-.43,1.83-.03.14-.04.28-.08.42-.05.19-.12.36-.17.55-.14.51-.27,1.02-.4,1.53-.03.1-.05.19-.09.35.32-.09.57-.16.82-.23.22-.05.41-.24.46-.46.13-.52.24-1.05.4-1.57.2-.7.29-1.42.35-2.14Zm.71-15.7c-.65-.15-1.25.06-1.87.17.64.1,1.29.38,1.87-.17Zm-.26-.35c.06-.08.09-.18-.07-.19-.19-.02-.37-.04-.55-.02-.42.06-.83.15-1.24.23-.04.01-.07.09-.12.14.7.04,1.32-.27,1.98-.16Zm-.08-10.28c.14,0,.28-.08.25-.26-.05-.26-.1-.53-.19-.78-.12-.34-.37-.43-.68-.32.03.37.05.72.09,1.08,0,.07.03.18.07.19.15.05.31.09.46.09Zm-4.83,36.27c-.2.18-.33.44-.48.68-.03.04,0,.13.02.18.02.04.09.07.13.07.07.01.15,0,.22-.02v.02c.47-.04.95-.06,1.42-.12.16-.02.32-.1.39-.29.2-.52.41-1.03.61-1.54.06-.15-.07-.29-.23-.28-.45.05-.89.08-1.34.13-.1.02-.25.09-.28.17-.12.35-.16.72-.46,1Zm-.56-37.29s.02.04.02.06c.27.07.47.21.62.44.12.18.25.37.42.48.26.16.56.01.85,0,0-.06.02-.11,0-.15-.12-.32-.14-.7-.46-.92-.05-.03-.09-.08-.11-.14-.05-.16-.17-.14-.29-.11-.08,0-.15.04-.23.06-.27.09-.54.19-.82.28Zm.02,21.7s-.08.16-.05.2c.1.18.21.37.36.5.34.3.8.21,1.19.33.15-.02.28-.05.42-.04.36.02.68-.04.96-.3.29-.27.4-.59.22-.92-.08-.15-.24-.21-.32-.1-.22.28-.53.4-.85.52-.14.06-.29.11-.43.12-.46.02-.88-.11-1.29-.3-.06-.03-.16-.04-.21-.01Zm9.06,12.28c.26.22.52.45.8.62.25.15.54.22.81.35.56.26,1.15.39,1.76.34.56-.04,1.11-.12,1.63-.38.3-.16.63-.26.93-.42.3-.15.59-.33.85-.54.28-.23.51-.5.75-.77.13-.14.22-.32.33-.47.2-.26.44-.5.61-.77.2-.3.35-.62.51-.95.14-.3.3-.61.4-.93.13-.45.24-.91.31-1.38.06-.37.12-.77.08-1.15-.06-.7-.13-1.4-.08-2.11v-.24c.03-.35,0-.72.1-1.04.12-.38.36-.73.55-1.09.12-.22.26-.44.39-.66.26-.46.61-.9.31-1.48-.27-.08-.46.05-.58.3-.1.2-.18.41-.29.61-.1.19-.21.37-.34.53-.06.09-.16.18-.24.19-.13,0-.25-.08-.27-.23-.02-.11-.05-.23-.02-.34.08-.37.17-.74.3-1.1.09-.25.22-.48.38-.69.16-.2.37-.36.56-.54.08.1.13-.02.2-.08.07-.07.14-.17.22-.19.15-.04.32-.03.47-.04.01,0,.02-.02.03-.03-.02,0-.05-.02-.06-.03.16-.18.52-.19.45-.59-.34.03-.67.03-.97.22-.47.29-.91.64-1.28,1.04-.23.25-.43.53-.6.83-.09.15-.07.35-.11.53-.02.09-.07.16-.12.24,0,0-.1,0-.12-.01-.03-.07-.08-.15-.07-.21.04-.21.07-.43.16-.62.12-.23.28-.43.43-.63.26-.34.52-.67.89-.91.08-.05.15-.14.23-.22-.01-.02-.03-.05-.04-.07-.15.05-.32.07-.44.15-.3.22-.6.43-.84.7-.39.45-.72.95-.66,1.6.01.17.05.4-.16.53q-.13-.33-.03-.65s.01-.08.02-.13c.05-.39.09-.77.36-1.09.03-.04.02-.12.03-.18-.06,0-.15-.04-.2,0-.41.21-.67.54-.7,1.01-.02.27.03.55.04.83,0,.08-.06.15-.08.23-.07-.03-.17-.04-.18-.08-.05-.18-.1-.36-.1-.54,0-.2.05-.41.05-.61,0-.29-.15-.45-.37-.43-.01.07-.01.14-.01.21v2.2c.01.12.01.25.01.37.02.48.05.97.06,1.45,0,.26-.07.54-.02.79.15.71.08,1.42.05,2.13-.04.69-.08,1.38-.26,2.05s-.42,1.31-.94,1.81c-.4.4-.8.79-1.39.86-.55.06-1.09.04-1.54-.37-.11-.1-.24-.16-.37-.01s-.28.28-.42.41c-.22.21-.42.45-.66.62-.45.32-.93.6-1.4.9-.15.1-.21.26-.1.36Zm-9.73-12.32c.03.59.31,1.03.8,1.34.19.12.38.23.61.28.39.08.77.21,1.15.32.03.01.07-.01.11-.02.25-.07.51-.12.76-.21.28-.11.6-.21.82-.4.4-.34.44-.86.53-1.34,0-.06-.04-.19-.08-.2-.19-.05-.39-.08-.56-.11.01.15.01.26.03.36.12.56-.17.97-.59,1.23-.57.35-1.22.37-1.85.08-.1-.04-.2-.12-.29-.12-.33-.01-.57-.16-.81-.39-.26-.26-.29-.57-.35-.88-.03-.19-.06-.3-.3-.3.01.12.02.24.02.36Zm-2.47,14.68c.22-.26.54-.46.54-.88-.09-.04-.19-.1-.29-.14-.43-.16-.85-.32-1.28-.47-.08-.03-.21-.02-.28.02-.06.04-.07.17-.08.26,0,.09.03.19.03.29-.01.41-.03.81-.05,1.21,0,.3-.06.59-.06.89-.01.07.08.16.14.22.02.02.11-.02.16-.05.06-.05.11-.1.16-.16.34-.4.67-.79,1.01-1.19Zm8.55,1.75c.1-.54.57-.91,1.1-.9.2,0,.27-.12.28-.28.02-.13-.02-.26-.02-.39-.02-.44-.03-.88-.04-1.32-.01-.13-.16-.24-.27-.2-.22.09-.43.19-.65.29-.29.13-.57.27-.86.4.01.68-.08,1.3-.43,1.87-.07.1-.12.24-.12.36,0,.11.09.28.18.32.16.07.35.08.53.07.13,0,.26-.02.3-.22Zm-6.67-17.97c0,.14.01.27.01.41.01.15,0,.3,0,.47.17-.02.26-.03.36-.04.28-.02.38-.12.4-.4.02-.34.05-.68.08-1.02.03-.49.08-.98.09-1.46.01-.38-.01-.75-.05-1.12-.04-.47-.2-.89-.55-1.22-.04-.04-.1-.06-.16-.09-.02.06-.07.12-.07.17v1.03c0,.61-.01,1.22-.02,1.83,0,.23-.02.46-.03.68,0,.08,0,.15-.01.22-.01.18-.04.36-.05.54Zm.02,1.51c-.02.21-.05.41-.04.61,0,.09.08.18.14.26.08.11.17.2.26.31.07.09.11.21.2.27.18.12.43.16.4.46-.01.03.06.09.11.12.12.07.3.1.36.2.15.29.43.37.68.49s.53.16.79.22c.41.1.81.07,1.18-.1.33-.15.63-.37.94-.57.07-.04.15-.08.19-.14.11-.19.23-.39.3-.59.15-.41.4-.78.41-1.23,0-.16-.06-.21-.17-.21-.09.24-.2.45-.24.68-.06.35-.3.57-.53.8-.07.08-.22.08-.29.16-.13.18-.29.27-.51.3-.06,0-.12.02-.18.04-.35.11-.7.2-1.07.11-.61-.16-1.22-.34-1.76-.69-.18-.11-.31-.25-.46-.38-.03-.03-.07-.07-.1-.11-.06-.07-.13-.15-.17-.23-.12-.26-.23-.53-.34-.79-.03,0-.07,0-.1,0Zm-.34,17.75c-.84-.05-1.64.2-2.46.25-.23.01-.47.06-.69.01-.2-.04-.21.09-.24.18-.02.05.04.16.09.19.1.05.22.11.32.1.41-.04.82-.1,1.24-.14.59-.06,1.17-.2,1.78-.14.33.03.67,0,1-.08.22-.06.46-.08.68-.07.87.02,1.73.06,2.59.09l.9.03c.95.03,1.89.11,2.84.06.18-.01.24-.11.19-.26-.11.01-.22.04-.33.03-.5,0-.99-.03-1.49-.05-.16,0-.32.04-.47.02-.38-.04-.75-.12-1.13-.16-.21-.02-.43.03-.65.01-.38-.05-.76-.14-1.15,0-.03.01-.07,0-.1-.01-.08-.03-.17-.08-.25-.08-.29.01-.59.05-.88.04-.27,0-.55-.05-.82-.06-.33,0-.65.06-.97.04Zm7.99-37.86c-.24.1-.46.13-.72.03s-.54-.2-.82-.23c-.64-.06-1.28-.11-1.92-.11-.37-.01-.74.08-1.11.13-.22.03-.43.06-.65.1-.2.04-.41.04-.58.12-.34.16-.66.35-.96.56-.32.23-.55.56-.68.94-.05.15-.05.31-.11.46-.1.29-.23.58-.35.88.04.21.11.32.32.33.09.01.18.04.27.07.25.07.35,0,.39-.28.05-.44.06-.9.22-1.29.23-.56.67-.96,1.31-1.05.34-.05.67-.13,1.01-.15.46-.03.93-.02,1.39-.01.24.01.49.13.71.08.53-.1,1.02.08,1.52.14.18.02.36.07.54.09.35.03.71.05,1.06.08.18.02.3-.12.27-.31-.01-.12.03-.27-.02-.37-.05-.12.1-.33-.15-.37-.33-.06-.64.03-.94.16Zm-8.3,36.55c.02.14.15.14.26.14.17,0,.35,0,.59.02.09-.02.29.01.39-.08.24-.21.44-.46.63-.71.2-.27.36-.57.57-.84.11-.15.13-.4-.04-.44-.26-.05-.54-.04-.81-.05-.03-.01-.07.03-.09.02-.23-.12-.32.04-.41.2-.15.27-.28.56-.45.82-.17.24-.37.46-.55.69-.05.07-.1.16-.09.23Zm8.96-8.19c.1-.05.16-.06.21-.09.25-.19.51-.37.75-.58.22-.19.4-.41.61-.6.47-.41.92-.85,1.26-1.37.09-.13.15-.35.11-.49-.1-.38-.24-.76-.42-1.11-.21-.42-.49-.8-.72-1.21-.15-.26-.42-.43-.51-.74-.02-.08-.11-.15-.19-.2-.13-.11-.27-.21-.42-.29-.31-.18-.63-.36-.95-.53-.1-.05-.23-.08-.25.08-.02.14-.01.29.01.43.09.74.1,1.48.05,2.22-.04.54-.07,1.09-.11,1.63-.05.61.08,1.2.18,1.79.05.29.12.57.2.85.02.08.12.13.19.21Zm-10.24-11.12c.45-.04.9-.11,1.34-.12.2-.01.23-.11.27-.24.03-.08,0-.17.02-.26.04-.12-.01-.17-.12-.19-.17-.04-.33-.09-.5-.13-.5-.13-.99-.19-1.5-.03-.59.18-.63.22-.66.66,0,.1-.01.2-.01.3.02.2.12.24.3.16.07-.04.16-.06.24-.07.21-.03.41-.05.62-.08Zm.26,31.8c.67-.28,1.34-.57,2.01-.87.45-.21.89-.45,1.33-.69.19-.11.29-.29.09-.52-.36-.4-.68-.82-1.02-1.24-.13-.15-.28-.3-.37-.48-.29-.52-.59-1.03-.82-1.57-.35-.86-.66-1.75-.97-2.62-.12-.33-.18-.67-.27-1.01-.02-.09.06-.22-.11-.25-.11-.02-.21-.11-.3-.09-.43.09-.86.06-1.28.03-.2-.02-.3.09-.37.26-.19.44-.25.9-.23,1.38.01.1,0,.2,0,.3-.06.47-.14.93-.17,1.4-.03.37-.02.75,0,1.13.02.43.05.87.09,1.31.04.43.09.87.14,1.31h-.04c.04.3.06.6.11.9.08.48.17.95.27,1.42.03.16.12.31.32.28.26-.04.51-.09.76-.15.28-.06.57-.12.84-.23Zm.9-34.86c.16-.01.27-.09.26-.27-.02-.23-.04-.46-.04-.69-.01-.16-.1-.21-.23-.22-.39-.05-.78-.13-1.17-.12s-.79.05-1.16.18c-.93.31-1.85.68-2.77,1.03-.24.09-.18.31-.16.48,0,.07.17.16.27.17.25.03.51,0,.76.04.41.08.82.08,1.22-.03.28-.08.53-.26.81-.33.52-.12,1.05-.19,1.58-.28,0,.03,0,.06,0,.08.21-.01.42-.02.62-.04Zm9.56,39.53c-.16-.02-.33,0-.5.01-.35.02-.7.06-1.06.07-.2.01-.42-.17-.46-.35-.02-.13-.03-.27-.04-.4-.02-.5-.04-.99-.08-1.49-.03-.48-.07-.96-.12-1.44-.02-.19-.03-.39-.24-.49-.71-.34-1.41-.68-2.12-1.02-.21-.1-.43.04-.43.27,0,.15.02.3.02.44-.03.67-.05,1.33-.08,2-.01.11-.08.21-.08.32,0,.41.02.81.03,1.22,0,.67,0,1.35.01,2.02,0,.5.09.98.33,1.43.17.29.37.52.69.59.43.1.87.17,1.31.23.23.03.47.02.7.04.28.02.57.09.85.09.33,0,.66-.04.99-.08.24-.02.49-.05.66-.26.08-.1.14-.25.13-.37-.01-.14-.15-.2-.3-.18-.01,0-.03,0-.04,0-.29-.01-.56-.21-.88-.09-.13.04-.36-.03-.4-.28.04-.03.09-.09.15-.1.2-.03.39-.06.59-.06.26,0,.49-.08.65-.29.2-.25.02-.55-.17-.58-.22-.02-.43-.06-.65-.06-.2-.01-.26-.12-.32-.31.14-.03.26-.05.38-.09.19-.06.4-.11.55-.22.08-.06.09-.25.09-.37-.01-.07-.1-.18-.16-.19Zm-9.4-31.93c-.06.01-.15.12-.14.18.01.24.03.48.2.68.14.17.26.36.43.5.33.26.67.52,1.03.74.27.17.6.24.86.42.32.22.69.2,1.04.27.11.02.23.04.34.02.28-.04.56-.08.83-.16.26-.08.52-.18.75-.32.27-.17.53-.37.78-.58.21-.18.51-.23.65-.51.17-.34.4-.66.52-1.02.13-.41.16-.85.23-1.29.01-.06-.03-.17-.07-.19-.2-.09-.41-.16-.66-.26-.01.19,0,.32-.02.43-.04.23-.06.48-.17.68-.21.39-.48.75-.72,1.13-.31.48-.77.73-1.31.84-.46.1-.91.12-1.37.05-.37-.06-.7-.2-1-.4-.25-.17-.48-.35-.71-.53-.14-.12-.29-.23-.41-.37-.17-.2-.31-.42-.47-.63-.09-.11-.24-.1-.26.02-.02.23-.17.27-.35.3Zm-.21-15.6c-.06-.09-.08-.16-.13-.2-.27-.24-.39-.57-.51-.88-.07-.17-.11-.37-.1-.55.02-.12.01-.15-.11-.18-.34-.1-.69-.2-1.03-.33-.59-.22-1.2-.23-1.81-.29-.24-.03-.49.02-.73.01-.15-.01-.22.05-.25.18-.05.16-.09.33-.12.5-.08.38-.15.77-.2,1.16-.02.11.01.22.17.21.13-.01.26-.01.38-.04.54-.09,1.07-.02,1.59.09.28.06.57.11.85.13.42.04.85.03,1.27.06.12.01.24.07.36.09.11.02.21.03.37.04Zm-.22,15.9c-.05-.14-.11-.23-.25-.25-.19-.04-.38-.09-.57-.13-.45-.08-.91-.18-1.37-.24-.35-.04-.52-.33-.33-.65-.02-.02-.03-.04-.05-.06-.19.15-.39.29-.57.46-.21.2-.37.45-.6.63-.53.42-.83.99-1.09,1.58-.18.4-.26.83-.4,1.24-.27.8-.35,1.62-.3,2.47.03.57.2,1.09.4,1.6.21.55.47,1.08.73,1.6.11.25.24.51.43.69.52.51,1.04,1.02,1.61,1.47.44.33.93.62,1.43.83.56.24,1.15.39,1.73.56.7.21,1.42.33,2.15.3.21,0,.42-.02.63-.02.47,0,.95.05,1.41,0,.68-.08,1.35-.21,2.02-.37.42-.1.82-.29,1.23-.46.24-.1.48-.22.71-.33.41-.2.83-.38,1.24-.59.42-.21.83-.45,1.23-.69.37-.22.75-.43,1.1-.68.29-.23.55-.51.83-.76.48-.43.89-.91,1.25-1.45.1-.16.23-.31.33-.47.2-.31.4-.62.57-.94.1-.21.14-.45.21-.67.16-.5.34-.99.49-1.5.1-.37.12-.77.25-1.13s.11-.72.14-1.09c.03-.4.04-.81.09-1.21.06-.44.15-.88.26-1.31.11-.39.27-.78.22-1.2-.01-.12-.08-.24-.16-.33-.03-.04-.22-.02-.25.03-.1.17-.19.35-.25.53-.09.3-.13.62-.21.92-.07.22-.28.35-.51.34-.25-.01-.51-.19-.57-.39-.23-.76-.14-1.48.35-2.12.28-.36.61-.68.88-1.05.3-.4.55-.83.82-1.25.04-.06.07-.14.07-.22.02-.16-.07-.21-.23-.19-.49.07-.79.44-1.08.76-.33.36-.55.82-.8,1.25-.29.51-.4,1.07-.46,1.63-.04.39-.03.78-.06,1.17-.01.05-.12.1-.19.13-.02,0-.1-.08-.1-.12-.01-.27-.04-.55-.01-.82.05-.49.1-.98.24-1.44.11-.39.32-.75.5-1.11.12-.24.28-.46.44-.71-.42.07-.64.35-.82.63-.16.28-.26.6-.34.92-.13.49-.22.99-.33,1.48-.03.16-.12.24-.33.16.03-.25.05-.51.1-.76.05-.26.12-.52.2-.78.09-.26.19-.51.28-.76.01-.04-.01-.09-.02-.14-.04.02-.09.03-.11.07-.08.11-.15.24-.23.36-.28.45-.31.99-.44,1.49-.1.37-.19.74-.27,1.09-.39.01-.43-.03-.42-.36.03-.63.05-1.27.07-1.9,0-.06-.06-.13-.09-.19-.06.05-.12.09-.17.15-.13.15,0,.41-.23.53-.01,0-.01.05-.01.08.01.27.01.54.05.81.03.25.1.5.15.75.06.27.1.54.16.81.08.31.17.61.26.92.2.62.21,1.27.14,1.91-.05.52-.13,1.05-.27,1.56-.1.34-.29.68-.51.96-.28.35-.64.64-.96.96-.38.38-.72.81-1.17,1.12-.52.37-1.03.75-1.57,1.11-.21.14-.47.21-.7.34-.29.17-.57.36-.86.53-.39.23-.75.49-1.22.55-.56.07-1.1.28-1.68.32-.62.04-1.23.01-1.81-.26-.3-.14-.57-.37-.89-.45-.44-.11-.76-.41-1.11-.65-.23-.16-.42-.38-.65-.55-.42-.33-.76-.74-1.03-1.2-.12-.2-.19-.43-.32-.62-.29-.46-.44-.96-.52-1.48-.01-.08.04-.2.1-.23.09-.05.23-.08.29.06.05.11.1.23.11.34.05.38.19.73.36,1.07.08.13.14.27.21.42.19.43.42.83.83,1.1.29.19.59.36.87.56.43.32.86.58,1.38.71.19.05.35.03.44-.12.29-.46.57-.92.82-1.4.16-.31.25-.65.38-.97.11-.27.26-.51.35-.78.17-.54.31-1.08.47-1.65-.12-.02-.21-.04-.31-.05-.64-.07-1.29-.02-1.88-.41-.47-.31-1-.53-1.41-.94s-.71-.91-.92-1.46Zm.2-3.47c.34-.04.49-.06.48-.48,0-.08,0-.15,0-.22.05-.2-.08-.28-.22-.29-.28-.03-.56-.06-.83-.03-.48.07-.95.18-1.42.29-.11.03-.27.1-.29.18-.07.25-.2.52,0,.75.18-.02.34-.04.49-.07.52-.13,1.04-.19,1.57-.14.07,0,.13,0,.2,0Zm-.08-2.8c.41-.03.61-.23.53-.63-.03-.11-.05-.28-.12-.32-.26-.11-.54-.2-.83-.25-.65-.12-1.23.16-1.84.3-.1.03-.19.11-.31.18.24.11.35.25.38.47.03.18-.01.41.25.47.04-.02.09-.07.14-.07.6-.06,1.2-.12,1.8-.15Zm.11-16.61c.13.08.22.13.31.18.4.18.82.34,1.13.68.03.03.15.02.2-.01.25-.14.5-.27.79-.3.04,0,.17-.09.08-.21-.15-.21-.29-.42-.42-.64-.18-.31-.28-.38-.63-.28-.39.11-.76.25-1.14.39-.1.03-.18.11-.32.19Zm.56.72c-.25-.17-.5-.32-.76-.47-.04-.02-.11-.05-.15-.03-.45.26-.91.54-1.36.81-.02,0-.03.06-.04.1.86.17,1.56.61,2.35,1.02.03-.05.11-.12.17-.21.1-.15.17-.32.28-.45.12-.16.16-.29-.02-.42-.15-.12-.3-.24-.47-.35Zm-.99,21.44c.18.11.37.12.56.05.09-.03.18-.07.25-.09.01-.21.01-.41.02-.62.02-.15-.08-.22-.19-.24-.27-.05-.54-.11-.81-.11-.55,0-1.1.05-1.66.05-.23.01-.26.17-.26.3,0,.14.03.34.23.36.52.08,1.04.13,1.56.2.11.01.21.05.3.1Zm.5-2.31c-.26-.04-.52-.07-.9-.11-.3.04-.72.08-1.14.16-.52.1-.58.2-.53.74,0,.06.03.12.06.17.03.04.09.07.13.07.44-.02.88-.06,1.32-.07.31-.01.62.02.92.05.24.03.36-.05.37-.28.01-.11,0-.22.02-.33.04-.22-.03-.37-.25-.4Zm.18-15.31c-.42.12-.72.54-.63,1.04.07.4.3.71.52,1.03.05.09.11.19.2.22.6.27.77.58.7,1.24,0,.1.02.27.08.31.1.06.27.07.38.04.18-.06.34-.17.52-.26,0-.05-.01-.11-.02-.18h.08c-.02.13,0,.27-.06.38-.19.36-.52.4-.86.34-.36-.07-.46-.31-.29-.55-.03-.11-.12-.26-.08-.3.16-.19,0-.28-.09-.41-.08-.14-.2-.23-.35-.2-.02.57-.04,1.13-.06,1.68,0,.22.01.43.03.65.05.69.12,1.37.18,2.06.03.33.07.67.11,1,.07.5.15,1,.24,1.5.03.16.06.31.25.41.28.14.52.37.68.67.29.57.34,1.19.31,1.81-.02.53-.09,1.07-.14,1.6,0,.06,0,.12-.01.17-.13.54-.02,1.04.2,1.52.09.21.26.43.51.46.49.05.98.08,1.47-.07.3-.09.56-.24.59-.6.01-.13.01-.25.01-.38-.01-.37-.02-.74-.02-1.11,0-.1.04-.2.06-.32-.02-.12-.07-.27-.06-.42.05-.42.12-.85.18-1.27,0-.03.04-.06.06-.08l.12-.15c-.06-.04-.12-.09-.19-.11-.34-.11-.69-.18-1.02-.32-.27-.11-.5-.29-.8-.47.38-.13.62.05.89.15.29.11.58.22.88.28.51.09,1-.01,1.47-.21.42-.19.84-.36,1.15-.75s.42-.75.25-1.22c-.11-.29-.14-.61-.23-.91-.1-.35-.15-.71-.13-1.08.01-.24-.07-.26-.32-.24-.2.03-.41.04-.6-.02-.51-.15-1.01-.34-1.52-.52-.05-.02-.15-.09-.14-.12.02-.08.06-.19.13-.22.32-.15.63-.32.97-.4.46-.1.93-.14,1.4-.17.27-.02.29-.05.34-.31.06-.36.14-.73.26-1.08.08-.23.29-.4.53-.41.35-.01.7.03,1.05.05.21.01.42.11.62-.04-.04-.18-.06-.36-.13-.51-.2-.46-.2-.95-.24-1.43-.04-.35-.13-.69-.18-1.03-.05-.38-.1-.77-.13-1.15-.03-.33-.02-.67-.04-1-.02-.36-.05-.71-.08-1.09-.23,0-.46,0-.69-.03-.34-.03-.68-.09-1.03-.12-.36-.03-.73-.03-1.09-.04-.07-.01-.14-.04-.21-.05-.5-.08-.99-.21-1.49-.22-.53,0-1.07.1-1.59.2-.59.11-.99.46-1.1,1.08-.03.17-.07.35-.11.52-.02.12-.07.25-.05.36.05.2.02.36-.08.53-.07.11-.15.25-.05.38.06.07.16.11.25.16-.05.03-.08.04-.11.05.17.14.2.36.1.51-.09-.14-.18-.28-.28-.43-.06-.08-.12-.18-.21-.24-.39-.26-.8-.29-1.26-.16Zm-.19,7.21c-.01-.14-.06-.18-.18-.19-.31-.03-.63-.05-1.08-.09-.14.01-.42.07-.69.06-.72-.04-1.36.29-2.03.47-.31.09-.6.26-.89.4-.06.03-.11.13-.11.2-.03.34-.03.69-.05,1.03-.01.22-.05.44-.07.67,0,.05,0,.14.02.16.04.03.12.02.17,0,.42-.16.84-.31,1.25-.49.93-.41,1.9-.64,2.9-.74.24-.03.45-.09.67-.14.13-.02.21-.1.19-.27-.05-.36-.08-.72-.1-1.07Zm-.47,25.58c.35-.27.67-.58.95-.92.25-.32.43-.69.64-1.04.07-.12.02-.19-.09-.22-.31-.09-.61-.17-.92-.24s-.49.01-.64.3c-.05.09-.07.2-.13.28-.23.32-.48.63-.72.94-.18.22-.38.43-.53.67-.09.14-.38.18-.25.44.36,0,.7,0,1.04-.03.23-.02.49-.05.65-.18Zm.39-29.51c.03-.17,0-.27-.17-.3-.27-.04-.55-.08-.83-.12-.32-.04-.64-.08-.96-.15-.66-.13-1.33-.27-1.99-.41,0,.01-.01.03-.01.05-.32,0-.63,0-.94.03-.05,0-.15.09-.15.15-.05.59-.08,1.18-.11,1.78-.03.48.06.54.53.44.52-.12,1.04-.21,1.57-.24.62-.05,1.25-.02,1.88-.03.07,0,.15-.01.23-.01.2.01.4.06.6.04.27-.03.32-.15.3-.44-.01-.26.01-.53.05-.79Zm-.93-4.92c.34.12.67.25,1.01.38.15.07.26.02.31-.14.05-.15.09-.29.15-.47-.03-.02-.08-.07-.13-.1-.49-.3-.95-.66-1.51-.83-.25-.08-.49-.2-.74-.26-.19-.05-.39-.09-.56.12-.19.24-.42.44-.63.66-.05.06-.07.14-.11.22.24.02.46.02.67.05.26.04.52.08.78.14.26.07.51.14.76.23Zm1.2.9c-.12-.08-.25-.2-.41-.26-.36-.14-.72-.23-1.08-.35-.23-.09-.45-.22-.69-.28-.31-.09-.63-.18-.96-.2-.18-.02-.37-.19-.55-.01-.4.4-.79.81-1,1.35-.02.05-.03.14,0,.17.03.04.11.06.17.06.31-.01.63-.06.93-.02.45.06.9.05,1.34.19.36.12.75.12,1.11.27.07.03.18.04.23,0,.35-.24.8-.38.91-.92Zm-.21,6.72c-.04-.25-.07-.51-.1-.79-.09-.04-.18-.08-.27-.11-.23-.05-.46-.11-.69-.14-.44-.06-.89-.14-1.33-.14-.48.01-.95.09-1.43.16-.41.05-.82.11-1.22.18-.06.01-.13.1-.13.16,0,.15.05.29.06.44.05.55.09,1.11.12,1.66.01.16.1.18.22.12.12-.05.24-.13.36-.18.34-.13.68-.27,1.02-.37.43-.13.87-.23,1.3-.33.24-.05.5-.06.74-.1.36-.06.72-.13,1.07-.18.21-.03.32-.16.28-.38Zm-.54,29.58c.39-.04.78-.1,1.18-.15.59-.08,1.19-.16,1.78-.22.39-.05.78-.11,1.16-.1.45.01.89.08,1.34.12.08.01.17-.03.25-.02.38.04.76.09,1.14.14v-.02c.05,0,.11.02.16,0,.12-.05.24-.11.36-.17-.08-.13-.17-.25-.35-.22h-.1c-.42-.03-.85-.03-1.26-.1-.48-.08-.95-.16-1.44-.09-.17.02-.34.07-.51.06-.3,0-.59-.07-.89-.06-.47,0-.93.04-1.4.08-.14.01-.28.07-.42.06-.71-.06-1.39.14-2.09.22-.36.04-.71.2-1.08.08-.05-.02-.17.05-.2.11-.03.05,0,.17.05.21.09.07.21.14.31.15.46,0,.92-.02,1.39-.04.2-.01.41-.01.62-.04Zm.1,17.73c.53.02,1.05,0,1.58-.02.12-.01.25,0,.37-.03.3-.07.59-.14.88-.23.08-.03.19-.12.19-.19,0-.11-.09-.17-.23-.17-.32,0-.64-.01-.96-.03-.11,0-.21-.05-.32-.08-.15-.04-.15-.17-.11-.28.02-.06.13-.12.2-.12.22-.03.44,0,.65-.04.2-.04.4-.12.56-.23.08-.06.1-.26.08-.38-.03-.12-.16-.17-.3-.16-.22.02-.45,0-.67.04-.34.05-.38.04-.54-.34.32-.05.62-.1.92-.15.28-.04.56-.12.76-.34.13-.14.09-.37-.09-.41-.33-.07-.68-.15-1-.11-.57.08-.74.04-.95-.47-.14-.31-.2-.62-.11-.95.02-.09.01-.19.01-.29-.02-.54-.06-1.09-.06-1.64,0-.37.02-.74.03-1.11,0-.29-.14-.4-.41-.3-.48.18-.96.37-1.44.55-.04.02-.07.07-.1.1-.2.2-.21.46-.26.71-.06.34-.16.68-.23,1.02-.06.27-.09.54-.14.81-.08.51-.22,1.03-.24,1.55-.04.65.03,1.31.04,1.96,0,.48.28.78.64,1.01.37.24.81.31,1.25.32Zm9.19-20.68c-.21-.38-.44-.47-.71-.14-.2.24-.31.55-.43.85-.09.23-.35.34-.57.2-.07-.05-.15-.1-.23-.12-.37-.06-.74-.12-1.11-.17-.22-.03-.44-.06-.66-.07-.23,0-.45.01-.68.02-.37.01-.74.03-1.12.05-.66.03-1.32.08-1.98.09-.79,0-1.57-.03-2.36-.03-.29,0-.57.03-.86.05-.26.03-.51.07-.76.1-.21.03-.26.19-.25.35.02.15.15.23.31.23.4-.02.81-.02,1.21-.05.72-.07,1.43-.16,2.15-.15.68.02,1.37-.07,2.05-.07.54,0,1.08.06,1.62.09.33.01.65,0,.97.04.64.06,1.27.15,1.99.24.41-.04.89-.08,1.37-.13.16-.01.31-.23.3-.4-.03-.34-.08-.67-.25-.98Zm-1.37,12.93c.36.08.72.14,1.08.19.17.02.36-.14.37-.28.03-.46.09-.91.09-1.37,0-.58-.04-1.16-.07-1.75-.01-.34-.05-.67-.04-1.01.02-.58.07-1.15.1-1.73,0-.19,0-.38.02-.57.02-.29.01-.56-.33-.69-.1-.04-.22-.18-.22-.29-.03-.36-.02-.74-.03-1.1,0-.36,0-.72-.03-1.07-.01-.08-.12-.15-.18-.23-.05.09-.13.17-.14.26,0,.29,0,.58.01.87,0,.22.02.43.01.65,0,.2.01.42-.04.61-.06.26-.81.43-1.03.28-.16-.12-.23-.25-.24-.45,0-.38-.04-.76-.05-1.14-.01-.17.04-.34.05-.51.02-.39-.15-.53-.54-.52-.43.01-.86,0-1.29-.05-.45-.06-.89-.18-1.37-.27-.54.08-1.1.17-1.66.24-.52.07-1.04.13-1.56.18-.18.01-.4.17-.39.35.03.32.06.64.14.94.08.33.22.64.32.97.15.49.28.98.42,1.47.02.1.06.21.1.3.21.41.39.83.63,1.21.33.53.68,1.05,1.05,1.55.42.57.97,1,1.59,1.33.74.4,1.5.77,2.23,1.19.32.18.64.37,1,.44Zm.93-21.52c-.3.34-.26.73-.4,1.06.22.16.62.04.66-.19.06-.32-.13-.55-.26-.87Zm-.63-16.08c.18.58.28,1.19.39,1.79.02.13-.04.28-.09.41-.2.49-.58.82-.99,1.11-.17.12-.41.15-.62.21-.31.08-.63.13-.92.25-.13.05-.27.22-.3.35-.09.46-.14.93-.19,1.39-.07.63.02,1.26.06,1.88.02.19.11.29.32.31.47.06.94.18,1.38.38.33.15.68.27,1.01.41.54.23,1.1.45,1.62.73.65.34,1.25.75,1.68,1.37.31.44.66.85.98,1.29.11.15.18.32.3.55.08-.14.17-.24.18-.36.04-.25.07-.51.06-.77-.03-.43-.06-.87-.14-1.3-.11-.61-.27-1.21-.4-1.82-.07-.3-.17-.61-.17-.91,0-.34.06-.68.12-1.01.04-.25.16-.46.34-.65.14-.15.29-.19.41-.12.12.06.24.23.25.35.01.5-.02,1.01-.14,1.5-.06.26-.05.53-.08.79.04,0,.07.02.1.03.03-.08.08-.16.1-.25.1-.61.16-1.22.3-1.82.07-.3.26-.58.46-.82.22-.26.5-.47.78-.68.09-.07.24-.09.36-.14.14-.07.27-.15.42-.21.17-.09.34-.16.52-.24.19-.08.38-.16.56-.26.23-.14.71-.17.9-.03.2.16.25.44.12.67-.35.61-.86,1.1-1.27,1.67-.23.32-.38.69-.57,1.03-.05.08-.09.17-.13.25-.29.46-.15.92.03,1.37.04.11.15.16.21.01.09-.24.18-.48.25-.73.11-.38.16-.78.57-.98.16-.08.45-.02.55.12.33.42.33.87.13,1.35-.27.63-.38,1.3-.43,1.99-.01.21.03.43.02.65-.04.61-.11,1.21-.3,1.8-.07.22-.14.45-.2.68-.01.06.06.13.05.19-.04.24-.06.49-.14.71-.2.51-.42,1.02-.67,1.51-.17.35-.41.67-.61,1-.11.18-.23.35-.33.53-.14.25-.1.36.08.59.41.5,1.13.42,1.62.06.38-.27.65-.62.85-1.02s.37-.77.54-1.16c.05-.13.07-.28.09-.42.05-.51.1-1.02.14-1.53,0-.1-.05-.21-.08-.32-.01-.03-.03-.05-.03-.08.03-.37.06-.74.1-1.11,0-.04-.01-.07-.01-.1-.01-.42,0-.84,0-1.25-.01-.67,0-1.33-.02-2-.02-.69-.07-1.38-.09-2.07,0-.23.13-.42.27-.59.08-.1.43.04.52.19l.08.16c.27-.2.52-.41.79-.58.15-.09.33-.16.5-.16.28,0,.47-.18.63-.34.35-.36.82-.48,1.25-.49.38,0,.76,0,1.14,0,.2.01.31.13.37.26.03.08-.03.26-.11.32-.22.17-.4.38-.71.44-.34.07-.62.27-.88.53-.42.39-.67.86-.84,1.38-.06.2-.08.41-.12.61.02.01.04.03.06.04.07-.05.18-.09.21-.17.18-.35.34-.7.49-1.06.07-.16.3-.33.44-.31.36.05.57.22.61.46.14.7-.11,1.28-.51,1.84-.38.53-.62,1.13-.72,1.78-.06.4-.11.81-.12,1.22-.01.23.07.45.08.68.01.28-.01.57-.02.85,0,.25-.01.5-.03.75-.02.39-.02.79-.09,1.17-.07.43-.17.86-.33,1.26-.24.62-.54,1.2-.96,1.73-.29.36-.51.78-.8,1.14-.24.31-.52.59-.81.84-.22.19-.48.34-.74.47-.53.25-1.07.47-1.6.71-.35.15-.73.21-1.11.2-.4-.01-.81-.02-1.21-.09-.32-.06-.62-.19-.93-.3-.2-.07-.42-.14-.62-.23-.23-.12-.46-.26-.67-.41-.19-.14-.33-.34-.53-.47-.11-.08-.27-.12-.43-.03-.31.17-.63.32-.95.47-.19.09-.29.37-.27.65.03.33.01.67.01,1,.01.33.04.67,0,1-.04.41.08.77.22,1.14.15.39.01,1-.29,1.29-.04.04-.06.09-.1.16.16-.04.19.02.22.16.04.23.16.44.23.66.07.23.15.45.18.68.04.22.02.45.03.67.02.32.03.63.05.95.03.29-.05.54-.23.78-.06.06-.05.18-.07.28-.02.11-.05.21-.05.32,0,.39.04.79.03,1.19,0,.23-.08.46-.09.69,0,.5.01.99.03,1.49.02.58.1,1.15.09,1.72,0,.53-.08,1.06-.13,1.58-.02.21-.25.4-.5.39-.23,0-.47-.01-.7-.02-.19-.02-.27.08-.27.25,0,.18,0,.36.02.54l.12,1.68c.01.28.03.57.05.86.01.16.22.34.4.32.27-.03.54-.08.82-.12.22-.02.45-.06.66-.03.12,0,.27.12.32.23.11.23.2.49.06.74-.13.21-.07.4.04.58.19.32.16.62-.11.87-.14.13-.12.23,0,.34l.15.12c.25.18.28.59.07.81-.32.34-.72.48-1.17.48-.87,0-1.74.04-2.61.02-.31,0-.62-.11-.91-.21-.28-.09-.55-.19-.8-.35-.48-.29-.68-.78-.78-1.31-.15-.71-.15-1.44-.1-2.18.01-.31.03-.63.03-.94,0-.33-.01-.65-.01-.98.01-.36.02-.72.04-1.08.04-.7.09-1.4.12-2.11,0-.14-.02-.27-.17-.36-.17-.09-.32-.22-.47-.33s-.45-.08-.65.02c-.56.28-1.13.56-1.7.83-.16.08-.25.24-.24.42.02.36.01.73.01,1.1.01.35.01.7.01,1.05-.01.35-.07.7-.03,1.05.04.36.15.71.26,1.05.08.22.36.28.68.21.4-.08.76.06,1.07.28.34.26.31.7-.16.99.07.17.14.34.21.52.1.23.01.41-.17.62.09.1.18.21.28.31.25.24.24.88-.13,1.05-.48.22-.99.28-1.5.31-.5.02-1,.04-1.5.03-.71,0-1.39-.26-1.98-.62-.47-.28-.74-.77-.75-1.38,0-.63-.06-1.27-.04-1.9.01-.41.12-.82.19-1.23.12-.78.24-1.56.23-2.36,0-.13-.17-.25-.31-.23-.26.04-.41-.08-.45-.34-.1-.6-.22-1.2-.31-1.81-.05-.28-.05-.57-.08-.86l-.09-1.05c-.03-.34-.08-.68-.09-1.03-.01-.49-.02-.99,0-1.48.05-.82.09-1.65.19-2.48.03-.34.19-.66.28-1,.02-.09.03-.19.01-.28-.05-.25-.13-.49-.02-.75.02-.04,0-.11,0-.17-.03-.41-.11-.81-.09-1.22.01-.2.19-.4.29-.6.03-.06.07-.13.07-.19.03-.5.04-1.01.06-1.51.02-.28.06-.56.07-.84.02-.36.06-.72.03-1.07,0-.14-.16-.31-.29-.38-.41-.22-.76-.51-1.06-.84-.25-.28-.42-.62-.62-.95-.15-.24-.31-.49-.42-.75-.25-.58-.51-1.17-.71-1.77-.34-1.01-.19-2.07-.14-3.11.02-.29.19-.56.28-.85.2-.66.43-1.3.8-1.89.24-.38.5-.74.86-1.03.43-.34.8-.74,1.18-1.13.21-.21.19-.51.19-.78-.01-.54-.04-1.08-.02-1.61.01-.56.09-1.11.08-1.66,0-.36-.11-.72-.2-1.08-.02-.07-.2-.12-.32-.14-.22-.02-.45-.01-.67-.03-.51-.03-1.02-.06-1.52-.1-.1,0-.19-.06-.3-.1.13-.56.32-1.08.35-1.62.07-.93.05-1.86.03-2.79,0-.39-.11-.78-.16-1.18-.01-.12.02-.25.02-.38,0-.39-.01-.79-.01-1.18,0-.25-.01-.49-.02-.74,0-.02,0-.03.01-.04.19-.4.01-.82.09-1.22.05-.28.14-.55.2-.83.06-.35.08-.7.17-1.04.14-.49.29-.98.61-1.39.19-.26.34-.55.56-.78.49-.48.99-.95,1.5-1.4.3-.27.64-.48.94-.74.33-.3.73-.47,1.12-.65.45-.21.89-.44,1.36-.59.69-.22,1.39-.37,2.08-.55.28-.07.55-.15.83-.2.27-.06.55-.12.82-.12.74,0,1.46.07,2.18.24.05.02.11,0,.17,0,.25.01.26-.03.21-.27-.07-.33,0-.66.16-.95.23-.41.64-.55,1.07-.6.32-.04.65,0,.97-.02.14-.02.28-.09.41-.16.32-.2.98-.14,1.2.24.17.29.48.29.75.36.19.04.45.28.45.41,0,.15-.26.36-.49.37-.2.01-.4-.02-.6-.01-.38.02-.78-.05-1.14.15-.12.07-.22.21-.28.35-.07.18-.1.39-.12.59-.04.28-.06.58-.07.86,0,.19.03.37.07.55.05.24.18.47.17.7-.01.28.1.59-.11.85-.21.27-.13.55-.09.85.04.33.05.66.07.99.03.53.02,1.06.08,1.58.08.62.22,1.24.34,1.86.06.34.14.68.2,1.03.04.24-.26.45-.53.39-.36-.07-.71-.14-1.08-.19-.33-.05-.52.07-.64.45-.11.36-.19.73-.25,1.11-.02.11.03.25.08.36.08.17.08.3-.02.48-.26.5-.42,1.01-.23,1.61Zm.23,27.39c.1-.06.27-.08.37-.04.12.04.27.17.28.27.06.66.09,1.31.11,1.96.01.26-.07.53.31.63.26-.08.36-.25.31-.55,0-.05-.03-.11-.03-.17-.01-.7-.08-1.4-.28-2.08-.1-.34-.21-.44-.58-.45-.21,0-.42,0-.63.03-.19.03-.42.04-.45.3-.06.46-.1.92-.14,1.38-.03.3-.05.6-.08.89v.07c-.05.23.04.38.26.41.19.02.35-.12.35-.34v-1.04c0-.18-.03-.35-.02-.52,0-.27-.06-.58.22-.75Zm.17-12.58c.03-.24.02-.49.03-.73.03-.45.07-.89.09-1.34.03-.49.05-.98.05-1.47.01-.42-.02-.84-.04-1.26,0-.05-.06-.1-.09-.15-.04.04-.09.07-.12.11-.11.24-.22.49-.33.73-.11.23-.24.44-.21.71s.06.54.05.8c0,.3-.05.59-.07.89-.01.2.02.4-.01.59-.05.44-.12.87-.19,1.3-.08.46-.15.92-.26,1.37-.09.41-.24.82-.35,1.23-.04.14-.09.31.1.41.38-.14.71-.33.81-.77.11-.45.22-.91.33-1.37.08-.35.16-.7.21-1.05Zm-.13-28.54c.11.01.22.01.33.01.32,0,.55.14.68.47-.08,0-.16-.01-.22-.06-.21-.18-.43-.29-.71-.19.07.06.14.09.22.13.24.12.47.27.57.52.05.14.04.3.04.45-.01.16.07.24.2.24.15-.01.24-.1.16-.27-.02-.02-.01-.06,0-.09.05-.55.12-1.1.17-1.65.02-.18.07-.34.23-.41.23-.1.46-.19.7-.25.17-.04.35-.02.52-.02.18,0,.35.01.53.02.19,0,.39.05.51-.19-.05-.02-.1-.06-.15-.06-.37.04-.57-.19-.76-.47-.23-.34-.58-.38-.9-.12-.11.08-.25.17-.39.19-.15.03-.31-.03-.47-.04-.06,0-.13.03-.19.04.05.03.09.06.14.09.12.08.25.15.37.23-.01.03-.03.06-.04.09-.11-.03-.21-.05-.31-.09-.24-.09-.47-.2-.7-.29-.02.03-.04.07-.06.1.07.05.14.12.21.15.12.05.25.07.36.12.04.02.09.1.08.12-.01.05-.07.11-.12.12-.05,0-.11-.05-.17-.06-.26-.08-.51-.14-.77-.21-.01.03-.02.06-.03.1.23.23.6.18.86.36-.05.06-.1.11-.12.14-.26-.07-.5-.14-.73-.2-.05-.01-.12.04-.18.06.04.04.08.11.13.13.22.05.44.08.68.13-.03.09-.05.14-.07.2-.26-.03-.51-.05-.77-.08.03.22.16.23.29.24.28.01.58-.08.84.12-.06.12-.2.14-.42.1-.2-.04-.41-.04-.62-.07-.01.03-.01.05-.02.07.03.03.06.07.1.08Zm.18.89c-.02.18-.06.34-.06.49,0,.08.08.22.11.22.1-.01.25-.05.28-.13.11-.24-.07-.51-.33-.58Z"/>
      <path class="cls-2" d="m79.5,58.24c-.28.07-.53.46-.51.67.03.37.55.76.91.66.31-.08.6-.21.81-.47.04-.05.11-.07.18-.11-.05-.1-.08-.22.14-.21.01-.32-.21-.68-.46-.68-.36.01-.73.05-1.07.14Zm-.62.38c-.15-.19.04-.3.13-.38.16-.15.36-.25.56-.36.09-.05.2-.06.3-.08.36-.1.7-.08,1.04.1.39.21.58.82.34,1.19-.09.13-.25.22-.4.29-.31.17-.62.34-.96.45-.13.05-.32-.01-.48-.06-.16-.06-.32-.15-.46-.25-.12-.09-.21-.2-.16-.39.03-.1-.01-.23-.02-.35-.02,0-.04,0-.06-.01.05-.04.11-.09.17-.15Z"/>
      <path class="cls-2" d="m73.27,49.87c-.03.23-.4.43-.57.43-.07,0-.13.07-.21.1-.1.03-.2.05-.3.07-.02,0-.03-.01-.05-.03-.01-.02-.03-.04-.04-.05-.01-.02.01-.08.04-.08.26-.11.82-.32,1.13-.44Z"/>
      <path class="cls-2" d="m72.03,50.44l.05.05h0c-.07.09-.54.6-.64.71-.08-.08-.13-.13-.17-.18.11-.06.6-.56.72-.61,0,0,.02,0,.04.03Z"/>
      <path class="cls-2" d="m70.83,52.48c.03-.23-.11-.46.03-.68.04-.06.02-.15.05-.21.06-.11.07-.49.29-.41.05.02.16.02.24.02-.07.2-.22.53-.24.72-.05.41-.05.8.17,1.19.14.26.36.23.54.28.31.1.65.19.98.18.36-.01.74-.1,1.08-.23.6-.22,1.06-.66,1.46-1.16.18-.22.37-.52.35-.78s.11-.57-.09-.82c-.21-.27-.4-.53-.77-.59-.39-.06-.79-.12-1.19-.01-.11.03-.24-.04-.37-.1.47-.21.94-.28,1.43-.16.17.04.35.05.52.11.31.11.55.33.7.61.18.33.21.7.1,1.07-.22.77-.79,1.25-1.39,1.73-.62.5-1.33.6-2.07.55-.42-.03-.85-.16-1.25-.31-.2-.07-.35-.29-.48-.47-.05-.08,0-.23,0-.34-.04-.07-.1-.14-.09-.19Z"/>
      <path class="cls-2" d="m59.52,49.79l.03.06c-.03.05-.07.11-.12.18-.07-.03-.15-.05-.27-.09.15-.07.26-.11.36-.15Z"/>
      <path class="cls-2" d="m64.94,45.99c.46.65.48,1.33.16,2.03-.16.35-.31.74-.57,1-.52.54-1,1.14-1.71,1.43-.37.16-.77.26-1.17.3-.39.04-.78.06-1.17-.13-.2-.1-.48-.08-.69-.24-.08-.06-.16-.1-.27-.16.19-.08.28-.12.37-.16,0,.02-.01.04-.02.06.18.07.36.14.54.22.34.15.7.25,1.07.2.27-.03.54-.12.81-.15.38-.04.65-.26.95-.44.12-.07.22-.17.31-.27.31-.33.62-.67.93-1.01.06-.06.1-.13.15-.2.03-.04.07-.07.12-.13-.1-.11-.06-.22.04-.34.05-.07.07-.16.11-.25.05-.12.1-.25.14-.37.02-.05.03-.09.02-.14-.02-.19-.03-.4-.08-.59-.04-.17-.1-.36-.21-.49-.27-.3-.57-.54-1.02-.53-.38.01-.77-.04-1.14.1-.53.2-1.11.31-1.55.7-.03.02-.08.04-.11.07-.37.37-.76.73-1.11,1.13-.16.18-.28.41-.37.64-.13.31-.22.64-.31.97-.04.17-.05.35-.07.54-.12-.03-.18-.05-.23-.07.04-.1.11-.2.12-.3,0-.08-.05-.18-.09-.29.1-.04.06-.2.11-.27.12-.18,0-.44.22-.56.02-.01.02-.05.03-.08.01-.35.22-.61.45-.85.24-.25.48-.52.75-.74.26-.22.54-.43.84-.58.4-.2.82-.35,1.24-.5.48-.17.98-.12,1.48-.08.4.03.7.21.93.53Z"/>
      <path class="cls-2" d="m47.08,52.62c.36-.22,1.13-.21,1.32.02-.46.05-.89.08-1.32-.02Z"/>
      <path class="cls-2" d="m47.65,53.78c.39-.04.78-.01,1.16.1-.33.24-1.12.15-1.16-.1Z"/>
      <path class="cls-2" d="m46.07,54.94c-.24.28-1.52.28-1.71.04.56-.18,1.11-.08,1.71-.04Z"/>
      <path class="cls-2" d="m44.63,53.48c.2-.18,1.09-.18,1.33-.02-.16.2-1.13.22-1.33.02Z"/>
      <path class="cls-2" d="m43.79,53.93s.1.07.09.1c-.01.05-.07.11-.11.12-.2.03-.4.11-.61-.05.17-.21.41-.16.63-.17Z"/>
      <path class="cls-2" d="m43.81,40.15c.04.39,0,.49-.24.48-.17,0-.23-.16-.21-.29.03-.32.28-.14.45-.19Z"/>
      <path class="cls-2" d="m42.68,56.16c.31,0,.6.02.89.03-.15.27-.68.27-.89-.03Z"/>
      <path class="cls-2" d="m43.48,54.86c-.1.22-.66.25-.91.04.3-.13.59-.19.91-.04Z"/>
      <path class="cls-2" d="m43.17,40.37c0,.26.15.43.4.44.29,0,.6-.24.61-.48.01-.18-.27-.39-.54-.4-.29-.01-.46.15-.47.44Zm.76.54c-.14.03-.28.09-.42.14-.55-.06-.85-.61-.67-1.08.03-.06.09-.12.15-.14.28-.11.57-.22.88-.15.24.05.53.38.53.6,0,.25-.1.54-.47.63Z"/>
      <path class="cls-2" d="m43.47,43.11c.06.05.05.17.06.26.01.29-.25.58-.51.57-.39-.01-.57-.29-.41-.65.09-.23.7-.37.86-.18Z"/>
      <path class="cls-2" d="m42.67,53.45c.05,0,.1.06.15.09-.04.04-.08.11-.13.11-.35.03-.71.03-1.06.05l-.03-.12c.08-.04.16-.1.25-.1.27-.03.54-.03.82-.03Z"/>
      <path class="cls-2" d="m41.84,55.55c.21-.05.26,0,.19.26-.19-.03-.36-.06-.53-.08,0-.03-.01-.06-.01-.09.05-.02.1-.06.15-.08.06-.01.13,0,.2-.01Z"/>
      <path class="cls-2" d="m40.88,54.41c.13-.26.59-.35.84-.16-.26.25-.55.16-.84.16Z"/>
      <path class="cls-2" d="m42.1,43.58c-.01.24-.23.42-.51.41-.24-.01-.45-.26-.44-.53,0-.26.15-.36.48-.35.36.02.48.13.47.47Z"/>
      <path class="cls-2" d="m41.59,40.2s.05.03.07.05c-.04.11-.06.23-.12.33-.05.06-.16.1-.24.1-.05,0-.13-.1-.13-.16,0-.09.04-.2.11-.25.08-.06.2-.05.31-.07Z"/>
      <path class="cls-2" d="m41.99,52.64c.47.04.94.11,1.41.18.07.01.14.08.21.13l-.03.09c-.14,0-.28,0-.42-.01-.38-.03-.76-.08-1.15-.09-.4-.01-.79.01-1.19.01-.07,0-.14-.03-.21-.05-.01-.04-.01-.07-.01-.11.21-.04.42-.11.63-.13.25-.03.51-.04.76-.02Z"/>
      <path class="cls-2" d="m41.82,40.34c0-.24-.1-.36-.28-.34-.09,0-.17.02-.25.04-.22.06-.36.31-.31.55.04.2.24.32.46.28.2-.03.37-.27.38-.53Zm.25-.29c.12.2.16.36.05.57-.12.23-.31.37-.54.45-.2.07-.64-.08-.74-.25-.05-.09-.04-.22-.05-.33-.01-.37.17-.59.48-.74.25-.12.66.06.8.3Z"/>
      <path class="cls-2" d="m41.07,55.37s-.08.15-.13.15c-.42.04-.83.08-1.22-.12-.01,0-.01-.01-.05-.06.48-.17.93.05,1.37-.03l.03.06Z"/>
      <path class="cls-2" d="m41.46,57.18c-.15.24-.44.27-.71.08.27-.15.49-.17.71-.08Z"/>
      <path class="cls-2" d="m40.45,47.03s.1.13.08.16c-.09.19-.31.18-.47-.03.14-.05.27-.1.39-.13Z"/>
      <path class="cls-2" d="m40.34,48.11c.02.31-.04.34-.43.28.04-.28.3-.16.43-.28Z"/>
      <path class="cls-2" d="m39.99,56.14c-.09.31-.38.36-.62.08.2-.03.4-.05.62-.08Z"/>
      <path class="cls-2" d="m38.23,56.93c.36-.14.7-.01,1.07-.04-.14.29-.8.3-1.07.04Z"/>
      <path class="cls-2" d="m38.73,54.88c0-.25.41-.34.93-.22-.28.3-.63.13-.93.22Z"/>
      <path class="cls-2" d="m39.14,53.84c.42-.26.87-.09,1.33-.06-.02.07-.03.13-.04.17l-1.29-.03v-.08Z"/>
      <path class="cls-2" d="m37.59,54.4c.08-.17.31-.25.65-.19-.09.25-.35.32-.65.19Z"/>
      <path class="cls-2" d="m38.03,53.36c0,.27-.28.33-.9.2.29-.26.6-.24.9-.2Z"/>
      <path class="cls-2" d="m38.08,55.92c-.21.22-.63.31-.87.2-.03-.01-.06-.05-.06-.08,0-.02.03-.07.06-.07.25-.05.5-.09.75-.12.03,0,.07.04.12.07Z"/>
      <path class="cls-2" d="m36,54.88c.41.01.77.02,1.15.03-.24.33-.9.33-1.15-.03Z"/>
      <path class="cls-2" d="m35.3,57.87c.3-.03.57-.06.87-.1-.2.3-.64.35-.87.1Z"/>
      <path class="cls-2" d="m35.45,54.12s.06-.11.1-.13c.08-.04.18-.05.31-.08.02.06.07.15.05.18-.04.06-.13.1-.2.1-.08,0-.17-.04-.26-.07Z"/>
      <path class="cls-2" d="m34.48,56.48c.42-.23.84-.24,1.27-.12-.1.16-1.05.26-1.27.12Z"/>
      <path class="cls-2" d="m34.14,53.51c.25-.18.54-.18.84-.16.04,0,.08.05.13.08-.03.04-.06.1-.09.1-.29.03-.58.04-.88.06v-.08Z"/>
      <path class="cls-2" d="m34.86,54.14c-.32.23-1.64.29-1.79.1.6-.23,1.2-.14,1.79-.1Z"/>
      <path class="cls-2" d="m34.47,40.22c.1,0,.21.13.31.21-.33.35-.72.39-.99.18-.05-.04-.09-.18-.06-.22.2-.23.48-.18.74-.17Z"/>
      <path class="cls-2" d="m34.25,55.22s.02.06.04.08c-.06.06-.1.14-.17.16-.14.04-.29.06-.43.07-.06,0-.11-.06-.17-.1.05-.04.1-.09.15-.11.19-.04.39-.06.58-.1Z"/>
      <path class="cls-2" d="m34.24,43.15s-.02.07-.05.11c-.15.21-.29.43-.48.6-.22.21-.73.08-.87-.19-.11-.19.05-.33.14-.43.16-.18.36-.32.57-.45.15-.1.6.07.68.22.02.03,0,.08,0,.14Z"/>
      <path class="cls-2" d="m34.27,41.18s.1.01.15.01c.33-.04.41-.04.57-.42.08-.2,0-.57-.15-.71-.34-.31-.88-.3-1.23-.12-.22.12-.34.61-.2.77.23.26.48.48.86.47Zm.68-1.28c.32.17.5.63.19,1.02-.25.32-.6.43-.96.5-.38.08-1.04-.49-1.09-.88-.05-.43.23-.75.72-.82.12-.01.24-.03.38-.04.25.07.53.1.76.22Z"/>
      <path class="cls-2" d="m33.27,56.09c-.16.22-.43.29-.73.18.05-.24.52-.36.73-.18Z"/>
      <path class="cls-2" d="m33.26,57.13c-.04.06-.07.16-.13.17-.22.06-.45.16-.69.04-.03,0-.08-.05-.08-.06.02-.04.05-.1.08-.11.25-.04.51-.07.76-.11.02.02.04.05.06.07Z"/>
      <path class="cls-2" d="m33.78,52.28c-.26-.3-.35-.67-.45-1.03-.06-.23-.03-.44-.03-.65-.02-.33-.09-.65-.13-.98-.02-.2.02-.42-.05-.6-.11-.3-.28-.57-.43-.85-.02-.02-.05-.04-.13-.11-.04.3-.11.54-.11.79,0,.49.06.99.06,1.48,0,.45.1.86.29,1.25.09.18.19.36.29.54.12-.16.12-.19.04-.37-.12-.26-.24-.51-.34-.78-.22-.55-.09-1.13-.09-1.7,0-.04.08-.08.15-.15.01.08.02.11.02.13-.11.83.17,1.61.37,2.39.09.32.2.64.54.83.02-.07.03-.15,0-.19Zm3.29-4.61c.38.51.72,1.05.76,1.71.01.12-.01.27.05.36.17.27.12.57.12.86,0,.15-.01.29-.01.44,0,.04.05.07.08.11.03-.03.07-.06.09-.1.02-.05.01-.1.01-.15,0-.42,0-.83-.01-1.24,0-.31.01-.62-.05-.91-.09-.51-.23-1.01-.54-1.44-.21-.31-.36-.66-.64-.93-.17-.16-.31-.36-.39-.57-.14-.36-.22-.74-.32-1.11-.03,0-.07-.01-.1-.01-.08.24-.18.47-.24.71-.06.29-.08.6-.11.9-.02.13-.02.28,0,.41.08.3.18.59.28.88.07.23.12.48.23.69.2.41.45.8.66,1.2.15.3.28.6.4.9.22.59.18,1.19.03,1.78-.01.05.02.11.03.16.05-.03.13-.06.14-.1.13-.56.19-1.14.15-1.72,0-.11-.03-.21-.06-.32-.05-.23-.12-.45-.17-.68-.01-.04.03-.09.05-.15-.04-.06-.09-.14-.12-.23-.05-.11-.04-.24-.1-.34-.18-.28-.41-.53-.55-.83-.16-.35-.24-.73-.34-1.1,0-.04.09-.14.15-.15.09-.02.26-.01.27.03.07.26.11.53.17.79.01.06.04.11.07.15Zm7.75,4.87c-.34-.02-.68-.07-1.01-.1-.03,0-.06-.02-.09-.02-.48.07-.9-.22-1.36-.27-.16-.01-.34-.03-.48.02-.32.12-.64.08-.97.08-.09,0-.2.03-.27.09-.18.15-.39.11-.6.1-.13-.01-.26-.01-.4-.01l-.51.03c-.1.01-.19.01-.28.04-.27.12-.54.24-.82.36-.06.03-.14.04-.21.04-.26.01-.52.02-.78.02-.08,0-.17-.05-.25-.08-.07-.02-.13-.06-.2-.06-.7.02-1.4.05-2.1.06-.3.01-.6-.03-.9-.02-.43.02-.86.07-1.29.1-.14.01-.27,0-.41,0,0-.03-.01-.06-.02-.09.15-.06.29-.13.44-.16.16-.04.33-.03.5-.04.19-.01.24-.11.13-.28-.09-.16-.17-.34-.28-.47-.2-.23-.21-.52-.29-.78-.06-.22-.15-.43-.23-.65-.02-.08-.02-.17-.05-.25-.11-.39-.1-.79-.04-1.19.07-.47.13-.93.23-1.39.02-.09.21-.15.34-.2.03-.01.13.07.16.13.21.35.41.7.58,1.06.08.15.11.33.12.5.02.37-.01.74.02,1.11.05.53.07,1.06.39,1.54.17.25.3.53.49.75.03.04.09.08.13.08.26,0,.52,0,.77.02.14,0,.24-.12.2-.28-.07-.36-.14-.72-.33-1.05-.22-.38-.43-.75-.61-1.14-.13-.26-.22-.55-.31-.83-.05-.18-.07-.37-.08-.56,0-.24,0-.47.04-.71.05-.26.13-.52.2-.81-.08.02-.17.04-.24.08-.16.11-.38.08-.48-.08-.07-.11-.11-.23-.15-.36-.01-.04,0-.1.03-.14.1-.15.41-.14.55-.01.09.09.19.15.16.3,0,.01.09.04.14.07.05-.23.08-.42.11-.57-.21.01-.4.08-.54.02-.27-.11-.25-.39-.25-.64.18-.08.37-.15.53.03.06.06.08.14.13.2.06.07.14.14.22.23.09-.22.17-.4.26-.62-.09-.02-.19-.05-.28-.07-.08-.02-.17-.03-.25-.05-.16-.04-.3-.14-.25-.3.03-.11.17-.22.28-.26.19-.06.32.07.37.25.03.12.04.22.21.25.03-.23.06-.45.09-.65-.1-.07-.2-.1-.25-.18-.1-.12-.18-.27-.02-.42.08-.08.17-.13.26-.16.1-.02.2,0,.28.06.17.12.15.27.08.44-.03.05-.05.11-.05.16.01.59-.16,1.15-.36,1.69.04.16.31.07.29.28-.01.1-.05.19-.09.32-.1-.14-.18-.25-.26-.37-.07.21-.14.42-.21.64.14-.05.23-.09.33-.1.16-.03.25.1.25.21,0,.12-.07.25-.15.33-.06.06-.2.06-.24-.08-.02-.07-.07-.12-.14-.23-.04.14-.08.22-.08.29.03.35-.06.69.08,1.04.07.16-.01.38.01.56.02.14.06.29.13.4.2.31.45.59.63.91.19.35.38.71.43,1.12.02.19.05.38.13.54.03.09.16.16.27.19.09.04.2.02.31,0,.14-.02.26-.03.31-.24.1-.41.1-.79.03-1.21-.09-.56-.33-1.04-.58-1.52-.25-.46-.48-.92-.68-1.39-.11-.24-.21-.51-.19-.79.01-.06-.03-.12-.05-.18-.02-.04-.06-.09-.06-.13,0-.48,0-.97.05-1.45.02-.25.16-.48.23-.73.07-.29.13-.58.18-.87.04-.24.16-.3.54-.28-.01.45.16.85.35,1.25.1.2.12.44.18.65.02.09.07.19.12.27.28.41.57.81.84,1.22.25.37.44.76.49,1.21.03.26.13.5.14.76.02.32,0,.66-.02.98-.05.45-.13.9-.2,1.35-.05.3-.12.61-.18.94.1-.01.22-.03.35-.05.46-.07.93-.15,1.39-.2.2-.02.29-.09.3-.29.02-.2.07-.37.2-.55.12-.16.12-.41.16-.63,0-.05,0-.11,0-.18-.14.01-.28.02-.44.04-.03-.16-.04-.28.17-.27.2.01.3-.12.35-.32-.15-.08-.38.07-.48-.2.06-.01.13-.04.19-.05.2-.01.29-.13.27-.34-.03-.34-.04-.69-.06-1.04,0-.22-.07-.38-.32-.42-.08-.02-.14-.1-.21-.15.01-.03.02-.06.04-.1.11.03.23.04.33.09.17.08.22.01.27-.13.03-.08.08-.15.15-.26.04.09.06.11.07.14.02.25.04.5.07.75.02.25.02.5.06.75.1.6-.06,1.18-.14,1.76-.05.4-.15.8-.23,1.21.09.07.46.09.5-.01.05-.14.08-.31.05-.46-.06-.29.04-.56.1-.84,0-.02.02-.04.02-.06q.08-.38.49-.45c0,.12,0,.23,0,.34.05.01.07.01.09.01.07.01.13.01.2.01-.01.04,0,.09-.02.11-.06.04-.13.1-.2.09-.24-.02-.24-.03-.24.23.14,0,.28.01.45.01-.07.2-.19.26-.34.25-.13-.01-.18.04-.18.17,0,.16-.02.31,0,.46,0,.05.09.11.15.11.16,0,.34-.04.5-.02.35.05.7.14,1.05.21.06.01.12,0,.18.01-.02-.07,0-.14-.04-.19-.23-.38-.5-.73-.7-1.13-.11-.24-.14-.53-.17-.81-.02-.27.01-.55.02-.83-.1-.04-.22-.08-.33-.13-.02-.01-.01-.09-.01-.16.23.04.38-.05.45-.25q-.33-.16-.39-.3c.08-.01.15,0,.22-.01.09-.02.17-.05.26-.08-.08-.03-.16-.06-.24-.1-.06-.02-.12-.06-.18-.09,0-.01.01-.03.02-.05.12-.02.25-.04.4-.07-.1-.14-.18-.24-.28-.37.12-.02.19-.04.27-.06.07.12.14.24.24.41.09-.19.17-.33.24-.46.03.01.05.02.08.03-.01.11,0,.23-.03.33-.16.35-.17.35.18.39-.01.29-.29.19-.44.27v.06c.08.01.16.03.24.04.05.01.11.02.16.03-.03.06-.05.15-.09.17-.09.04-.19.03-.33.06-.01.28-.03.58-.03.88,0,.28.02.55.03.83,0,.04.01.09.03.12.28.48.54.96.85,1.42.08.11.3.16.46.19.18.03.37.02.57.03h.12c.05.2-.08.26-.21.25Z"/>
      <path class="cls-2" d="m32.35,54.24s-.03.1-.06.12c-.2.14-.41.27-.67.12.07-.17.48-.38.64-.34.04.01.09.07.09.1Z"/>
      <path class="cls-2" d="m31.79,53.07c-.01.16-.05.22-.2.22-.27-.01-.53,0-.81-.04.29-.33.65-.16,1.01-.18Z"/>
      <path class="cls-2" d="m31.64,55.74c-.25.03-.49.09-.74.1-.14.01-.28-.06-.42-.09,0-.03,0-.06,0-.08.42-.17.87-.08,1.3-.12.03.12,0,.18-.15.19Z"/>
      <path class="cls-2" d="m31.63,43.02c.28.27.33.42.22.66-.07.18-.26.31-.48.31-.03-.02-.1-.05-.17-.1-.16-.11-.32-.21-.46-.34-.15-.14-.13-.35.03-.52.19-.19.66-.2.86-.01Z"/>
      <path class="cls-2" d="m29.12,54.2c.25-.27,1.22-.44,1.41-.25-.17.16-1.01.31-1.41.25Z"/>
      <path class="cls-2" d="m30.81,40.37c.12.08.14.14.04.25-.2.24-.38.27-.83-.03.22-.29.54-.36.79-.22Z"/>
      <path class="cls-2" d="m31.62,40.28c.06.1,0,.3-.06.43-.11.21-.22.45-.41.57-.19.13-.47.13-.71.18-.03.01-.06,0-.09,0-.42.02-.84-.36-.93-.77-.06-.25.04-.48.26-.62.45-.28.94-.43,1.46-.2.19.08.36.24.48.41Zm-1.41-.26c-.23.02-.43.25-.45.48-.04.38,0,.48.32.61.12.04.25.04.38.06.63.01.87-.18.88-.7,0-.23-.11-.4-.34-.43-.26-.04-.52-.04-.79-.02Z"/>
      <path class="cls-2" d="m24.87,49.37c.07-.71.06-1.42-.12-2.11-.03-.11-.1-.23-.19-.3-.21-.17-.97-.18-1.18-.02-.04.02-.06.09-.06.13.03.56.15,1.1.3,1.64.08.29.11.6.17.9.03.2.05.4.11.58.11.35.24.69.38,1.02.1.22.17.47.44.61.02-.06.05-.11.06-.16.02-.34.06-.67.07-1.02.01-.42-.02-.85.02-1.27Zm1.96,2.89c-.01-.24-.02-.49,0-.73.01-.2-.1-.25-.24-.28-.08-.01-.16-.01-.28-.01.02.37.05.71.06,1.05.01.17.1.22.24.22.22,0,.23-.03.22-.25Zm2.94-.7c.03-.2-.22-.49-.43-.42-.33.1-.48.44-.3.75.1.16.21.32.32.49.29.02.44-.12.41-.33-.03-.16-.03-.33,0-.49Zm1.11-.07c0-.17-.16-.15-.27-.16s-.21,0-.22.16c-.04.34-.08.67-.13,1.01.07,0,.16.03.23,0,.14-.05.35-.12.37-.21.06-.26.03-.53.02-.8Zm-5.48.79c.07.17.17.18.29.17.16-.02.11-.12.09-.23-.02-.05,0-.11,0-.17.01-.21.03-.42.05-.7-.02-.02-.08-.12-.12-.12-.14.05-.37.15-.37.21.02.28-.05.56.06.84Zm5.68-13.58c.16-.1.31-.21.47-.31-.01-.01-.06-.05-.1-.05-.3,0-.6,0-.89.02-.27.03-.32.16-.18.45.05-.07.09-.14.14-.18.09-.07.18-.12.27-.16.24-.1.23.13.29.23Zm.63-.26c.07.08.11.14.17.21.14-.06.29-.13.45-.19-.21,0-.41-.02-.62-.02Zm-1.96,12.34c.44.2.9.14,1.35.17.26-2.31.21-4.42.05-6.21-.09-.02-.18-.04-.27-.07-.41-.14-.76-.32-1-.72-.26-.44-.46-.9-.61-1.37-.21-.61-.37-1.23-.56-1.88-1.73.03-3.5.16-5.31.35-.07.68-.14,1.36-.2,2.04-.03.29-.05.59-.08.89-.05.61,0,1.22.1,1.83.03.17.04.35.05.53,0,.11,0,.16.16.14.35-.03.69-.03,1.04-.02.11,0,.23.04.32.11.39.29.53.72.53,1.17.01.43-.07.86-.11,1.29-.03.22-.06.43-.07.65-.02.43-.03.86-.04,1.31.14,0,.29.02.44.01.32-.03.64-.07.96-.1.08-.01.16,0,.24,0l-.03-.06c.05-.07.1-.14.14-.21.02-.02.02-.06.02-.09,0-.5,0-1.01.01-1.52,0-.22,0-.45.05-.67.12-.47.26-.93.41-1.39.02-.08.12-.16.2-.19.35-.14.7-.12,1.06.01.03.13-.1.36.26.33.03.62.07,1.21.07,1.8s-.03,1.19-.05,1.76c.11.04.18.09.26.1.09.02.18.01.27.01.12,0,.25-.04.34,0Zm-.25-11.66c.1-.21.18-.44.27-.65-.48-.28-.99-.46-1.35-.98-.03.13-.07.21-.06.28.02.18.08.36.1.54.06.46.33.82.59,1.18.09.14.19.1.26,0,.08-.11.14-.24.19-.37Zm5.44-.68c-.07-.19-.22-.21-.39-.18-.1.01-.19.03-.29.03-.59,0-1.18,0-1.77.15.12.18.24.26.4.05.05-.05.15-.09.22-.09.09,0,.24-.09.28.1.01.05.1.09.15.13.23-.3.59-.34.73-.07.19-.24.45-.1.67-.12Zm-.14,4.62c.33-.69.75-1.35.9-2.12.06-.34.2-.68.04-1.03-.11-.24-.23-.49-.34-.74-.07-.15-.15-.27-.35-.2-.04.01-.12.01-.15-.02-.12-.14-.2-.05-.28.04-.17.17-.36.18-.56.03-.06-.05-.17-.11-.21-.08-.27.19-.51.06-.76-.08-.33.3-.45.24-.73.07-.05-.03-.16-.04-.19-.01-.18.16-.36.12-.55.07-.06-.01-.14.02-.21.04-.12.03-.26.15-.35.11-.22-.09-.43-.04-.64-.01-.11.02-.22,0-.38,0-.03.03-.08.12-.14.21-.11.18-.2.4-.36.54-.36.32-.38.72-.29,1.11.15.61.36,1.21.55,1.81.03.11.04.22.09.31.1.19.21.39.35.55.24.24.47.54.77.64.33.12.7.19,1.09.12.45-.09.92-.06,1.38-.11.33-.04.67-.15.87-.45.16-.26.32-.52.45-.8Zm1.23-3.64c.8-.56.89-1.35.88-2.19-.02.01-.04.02-.05.03-.34.36-.65.74-1.1.96-.13.07-.15.24-.08.39.09.2.19.4.28.6.02.06.04.13.07.21Zm3.52-1.65c.02.07.05.13.08.2.06.13.13.26.18.39.06.13.1.28.18.39s.21.19.36.33c.12-.19.21-.38.35-.52.13-.12.06-.15-.03-.21-.28-.15-.59-.26-.8-.51-.05-.05-.1-.1-.16-.14-.03-.03-.08-.03-.12-.02-.02.01-.05.06-.04.09Zm4.41,5.46c.09-.28.11-.59.22-.87.15-.36.19-.74.24-1.12.03-.28.05-.56.07-.84,0-.17.02-.34-.03-.5-.07-.24-.18-.48-.29-.71-.08-.16-.21-.31-.29-.48-.09-.19-.43-.46-.64-.45-.43.01-.85.05-1.27.08-.29.02-.6-.05-.79.28-.12.23-.33.42-.41.66-.1.26-.11.56-.13.85-.05.65-.02,1.3.07,1.95.07.48.11.98.18,1.46.1.63.61,1.08,1.1,1.07.38-.06.78-.09,1.15-.21.55-.17.67-.7.82-1.17Zm1.33,7.57c-.01.27-.01.46-.02.68.25-.13.13-.36.19-.53,0-.03-.09-.08-.17-.15Zm-.44-11.62c.5-.43.45-1,.52-1.54l-.06-.03c-.07.08-.13.17-.21.23-.18.13-.37.25-.55.37-.22.14-.22.19-.05.37.12.13.22.28.32.43.03.05.02.12.03.17Zm-.01,11.67q-.04.52.19.5c0-.16.01-.33.01-.49-.07,0-.14,0-.2-.01Zm2.28.63c.04-.23.06-.39.09-.59-.07,0-.22-.01-.22.01-.04.14-.05.29-.05.43,0,.04.1.08.18.15Zm.27-.56c-.03.19-.06.37-.08.55.12,0,.23.01.34.01,0-.19,0-.37.02-.55-.1,0-.19-.01-.28-.01Zm4.89-9.97c-.29.04-.57.1-.86.13-.52.05-1.03.08-1.55.14-.61.06-1.22.12-1.83.2-.87.12-1.73.09-2.56-.2-.17-.06-.34-.08-.5-.11-.19.8-.37,1.57-.55,2.38.38.12.57.43.59.85.02.32.04.64.07.95.02.3.04.6.05.91.01.21.04.43.02.64-.05.6-.12,1.19-.17,1.79,0,.09.02.18.01.27-.02.19-.06.38-.08.57-.04.35-.07.7-.1,1.06-.03-.01-.02,0,0,.01.42.17.6.07.6-.37,0-.38-.01-.77,0-1.15,0-.25.05-.49.05-.74.01-.25-.02-.5-.01-.76.01-.27.06-.53.06-.8,0-.49,0-.99,0-1.48,0-.29.12-.43.4-.53.4-.14.75,0,1.1.16.06.02.11.13.12.21.03.59.07,1.18.07,1.77,0,.51-.04,1.02-.08,1.53-.06.66-.14,1.32-.2,1.99-.01.08.07.23.14.26.14.04.3.02.47.02.01-.09.01-.16.01-.23-.01-.53-.04-1.07-.04-1.6,0-1.21.02-2.42.03-3.62,0-.3.16-.48.45-.53.21-.04.43-.07.64-.07.44-.01.87-.01,1.31-.01.4.01.8.07,1.19.02.61-.08,1.22-.15,1.84-.1.23.01.28-.04.28-.27,0-.04-.02-.07-.02-.1.12-.46-.02-.88-.14-1.31-.08-.32-.19-.63-.28-.94-.08-.25-.17-.5-.2-.75-.03-.27-.19-.21-.34-.19Zm1.08,1.44c0,.55.09,1.09.21,1.63.09.38.09.79.1,1.18.01.4,0,.81-.03,1.2-.05.47-.13.93-.21,1.39-.07.4-.17.81-.26,1.21-.03.13-.06.26-.11.39l-.39,1.02c-.08.24-.12.49-.23.72-.14.33-.31.64-.5.94-.15.25-.32.49-.52.7-.31.32-.64.62-.97.92-.27.24-.53.5-.83.7-.4.27-.84.49-1.28.73-.69.37-1.36.78-2.08,1.1-1.05.47-2.08,1-3.2,1.28-1.01.25-2.03.46-3.04.68-.41.1-.82.2-1.23.28-.17.04-.34.05-.51.06-.74.04-1.47.07-2.21.11-.56.04-1.11,0-1.66-.14-.41-.1-.82-.15-1.22-.25-.63-.17-1.26-.33-1.87-.55-.46-.17-.91-.4-1.33-.65-.5-.29-.96-.62-1.44-.93-.32-.2-.67-.37-.97-.6-.36-.27-.68-.6-1.01-.91-.11-.1-.2-.2-.3-.3-.32-.31-.65-.6-.93-.94-.24-.27-.42-.6-.63-.9-.08-.11-.16-.24-.27-.34-.35-.32-.5-.75-.68-1.16-.17-.36-.33-.73-.44-1.1-.09-.27-.09-.57-.14-.85-.12-.6-.28-1.21-.36-1.82-.06-.53-.04-1.08-.05-1.62,0-.17,0-.33.02-.49.01-.35.01-.71.03-1.07.03-.76.04-1.53.12-2.29.04-.36.08-.72.17-1.08.18-.7.5-1.33.82-1.96.22-.42.49-.83.79-1.21.3-.37.68-.68,1.02-1.02.05-.05.09-.12.15-.17.35-.31.7-.6,1.04-.91.21-.18.42-.36.6-.56.33-.38.78-.54,1.21-.76.34-.18.66-.38,1-.56.37-.2.74-.41,1.12-.6.18-.09.37-.19.56-.25.27-.08.56-.11.83-.2.32-.1.63-.25.96-.36.38-.12.76-.23,1.14-.31.44-.09.88-.14,1.32-.18.46-.03.92-.04,1.37-.05.46-.02.91-.05,1.37-.04.33,0,.66.05.99.08.1,0,.2.04.3.04.25-.01.5-.02.74-.02.38,0,.77.02,1.15.03.63.02,1.25.05,1.86.22.56.16,1.15.23,1.71.38.36.09.69.27,1.03.41.02.01.05.04.07.03.33-.04.49.24.73.38.26.14.5.31.76.43.38.17.71.4,1.03.65.34.26.68.53.98.83.17.16.26.38.4.57.13.18.29.35.42.54.1.14.2.3.29.45.14.23.28.45.41.69.16.28.31.56.46.84.17.3.3.63.51.9.29.39.41.84.59,1.27.19.46.32.95.45,1.44.06.23.07.48.07.73Zm-.14,3.45c.01-.29.03-.59.02-.88,0-.05-.1-.13-.16-.14-.62-.08-1.24.06-1.85.11-.22.02-.44.07-.66.06-.22,0-.43-.08-.64-.09-.43-.03-.86-.04-1.29-.04-.16,0-.32.04-.47.09-.06.03-.13.11-.14.18-.06.42-.15.84-.16,1.26,0,.48.06.97.07,1.45.02.67.07,1.34,0,2-.05.44.09.86,0,1.29-.06.25-.05.49-.36.59-.32.11-.63.07-.95.03-.04-.01-.11-.11-.11-.17,0-.36.02-.73.04-1.09,0-.17-.01-.34,0-.51.05-.4.11-.8.16-1.21.04-.27.06-.54.07-.82.02-.47.04-.95.03-1.42-.02-.41-.09-.82-.12-1.23-.02-.23-.13-.33-.41-.34-.24,0-.33.09-.34.32-.01.39-.02.79-.04,1.18-.02.41-.05.81-.07,1.22-.01.24.03.48.01.72-.05.51-.09,1.01-.02,1.52.07.45.04.92.02,1.38-.01.31-.19.48-.47.51-.12.02-.25.01-.36.04-.04.01-.08.02-.11.02-.13,0-.23-.07-.33-.15-.13-.1-.17-.21-.17-.37-.01-.23-.05-.45-.07-.69.08-.01.15-.01.27-.02.01-.35.02-.68.03-1v-.07c.08-.66.2-1.33.23-1.99.02-.67-.03-1.33-.07-2-.03-.54-.13-1.07-.41-1.55-.03-.05-.09-.13-.12-.13-.06.02-.13.07-.17.13-.2.31-.44.59-.8.73-.26.1-.51.18-.79.19-.31,0-.61.09-.92,0-.28-.07-.55-.14-.67-.45-.09-.2-.21-.4-.31-.6-.09-.19-.2-.38-.24-.58-.08-.42-.11-.84-.15-1.26-.02-.27-.03-.54-.02-.8,0-.31.03-.63.03-.94,0-.22-.06-.44-.09-.66,0-.01-.05-.02-.07-.04-.21-.22-.47-.41-.62-.66-.38-.62-.53-1.31-.53-2.03-.01-.06.1-.15.18-.2.06-.03.15-.02.16-.02.23.27.41.53.64.73.19.17.44.24.64.39.26.2.53.15.81.11.36-.06.72-.12,1.08-.14.23-.02.46.07.69.05.24-.04.44.02.65.13.15.08.33.12.48,0,.27-.22.54-.45.81-.67.22-.17.43-.35.65-.51.02-.02.13.04.13.06.02.21.04.41.03.61-.02.36-.01.73-.1,1.08-.07.26-.24.52-.42.73-.28.34-.47.7-.34,1.14.06.16.19.37.34.42.45.17.91.3,1.4.29.3,0,.6.03.89.02.44-.02.88-.06,1.31-.1.22,0,.44-.05.67-.07.59-.07,1.18-.13,1.77-.2.32-.04.65-.09.98-.15.05,0,.12-.1.12-.13-.03-.19-.07-.39-.13-.56-.13-.34-.28-.67-.42-1-.07-.18-.11-.37-.21-.53-.16-.29-.36-.55-.54-.83-.21-.31-.39-.65-.62-.95-.37-.46-.78-.89-1.17-1.34-.19-.22-.43-.41-.57-.66-.15-.26-.4-.4-.59-.59-.27-.28-.64-.47-.98-.66-.31-.17-.64-.3-.96-.43-.35-.14-.71-.28-1.07-.37-.66-.16-1.32-.28-1.98-.41-.47-.09-.94-.18-1.42-.22-.42-.03-.84,0-1.26,0l-1.02-.03c-.42-.02-.83-.07-1.26-.08-.53,0-1.07,0-1.61,0-.05,0-.1,0-.15,0-.44.04-.88.09-1.32.12-.6.03-1.17.18-1.74.35-.35.1-.68.31-1.03.39-.58.12-1.13.29-1.65.57-.69.36-1.37.75-2.06,1.12-.2.11-.42.19-.6.33-.45.33-.84.72-1.29,1.06-.49.36-.9.83-1.31,1.28-.34.37-.66.76-.95,1.17-.28.38-.54.77-.77,1.18-.2.37-.35.77-.33,1.23.19.02.36.07.53.05.55-.04,1.09-.12,1.64-.16.74-.05,1.48-.07,2.23-.11.23,0,.46,0,.69-.03.07-.01.16-.08.2-.15.12-.19-.06-.28-.15-.4-.11-.14-.23-.26-.32-.41-.12-.22-.22-.45-.32-.69-.06-.15-.13-.31-.13-.46,0-.57.04-1.14.04-1.71,0-.22.16-.27.31-.3.19-.04.29.04.27.25,0,.07.06.14.07.21.09.38.51.51.64.86.02.05.08.08.13.11.09.05.2.07.26.13.2.24.42.16.68.12.36-.05.74-.04,1.11-.03.38.02.75.1,1.12.09.73-.03,1.46-.08,2.18-.16.21-.02.41-.05.61,0,.2.04.36-.01.5-.13.14-.11.25-.24.38-.35.31-.3.59-.61.67-1.04.14-.03.27-.06.46-.1.06.3.18.6.16.89-.04.59-.03,1.2-.32,1.74-.15.26-.29.54-.48.77-.14.17-.38.22-.33.55.04.23-.11.49-.17.74-.12.57-.33,1.11-.62,1.62-.26.46-.48.93-.75,1.38-.02.04-.05.09-.08.13l-.11.11c-.24.27-.57.44-.97.52-.51.11-1.01.15-1.53.12-.18,0-.37,0-.56-.02.02.18.06.32.06.45-.01.35-.02.71-.03,1.07-.02.5-.03,1.01-.05,1.51-.02.54-.04,1.08-.05,1.62v1.53c0,.1.05.2.05.3-.02.36-.04.73-.07,1.09,0,.02-.03.03-.04.05-.29.37-.71.46-1.14.49-.24.02-.48-.03-.72-.01-.35.02-.64-.05-.84-.36-.05-.07-.09-.15-.12-.22-.15-.31-.32-.62-.11-.97.06-.1.09-.23.09-.35,0-.37,0-.74,0-1.11,0-.6,0-1.19,0-1.79,0-.18,0-.36-.03-.54-.05-.4-.24-.48-.49-.5-.32-.02-.62.15-.64.43-.05.69-.07,1.38-.08,2.07,0,.35.05.7.06,1.05.03.55.06,1.09.09,1.63,0,.26-.05.49-.39.58-.5.13-.99.05-1.49.01-.1-.01-.2,0-.26.01.3.31.59.62.89.92.3.31.6.62.91.92.3.29.62.56.92.84,0,.03.07,0,.1.03.24.14.47.29.7.45.2.14.37.31.59.43.5.28,1.01.55,1.53.8.37.17.72.37,1.13.44.15.03.3.09.45.13.32.1.63.22.96.29.42.1.85.19,1.28.26.31.05.63.12.94.11.82-.02,1.64-.09,2.46-.14.19,0,.37-.02.56-.06.32-.06.64-.13.96-.2.41-.08.82-.16,1.23-.25.64-.14,1.27-.26,1.89-.45.66-.19,1.29-.45,1.93-.69.31-.12.6-.27.89-.4.31-.13.62-.25.92-.4.62-.33,1.24-.67,1.84-1.02.39-.23.78-.47,1.14-.73.26-.19.48-.43.71-.65.33-.3.67-.58.96-.92.51-.6.81-1.32,1.04-2.07.22-.71.51-1.4.63-2.13.09-.53.2-1.05.29-1.57.02-.07,0-.16,0-.24,0-.23.01-.45.02-.68Z"/>
    </g>
  </g>
</svg>