<?xml version="1.0" encoding="UTF-8"?>
<svg id="Layer_1" data-name="Layer 1" xmlns="http://www.w3.org/2000/svg" viewBox="0 0 136.06 136.06">
  <defs>
    <style>
      .cls-1 {
        fill: #f2d06c;
      }

      .cls-2 {
        fill: #0c3454;
      }

      .cls-3 {
        fill: #636a42;
      }

      .cls-3, .cls-4 {
        opacity: .8;
      }

      .cls-4 {
        fill: #a7483f;
      }
    </style>
  </defs>
  <path class="cls-3" d="m85.35,100.02c-.23.02-.54-.38-.49-.63.03-.17.19-.44.31-.44.42-.05.61.17.61.57.05.3-.14.45-.44.49Z"/>
  <path class="cls-3" d="m84.93,105.17l-.21-.37c-.12-.28.05-.47.28-.49.3-.03.61,0,.91.09.09.02.12.26.23.5-.12.16-.24.42-.38.44-.26.02-.63.23-.82-.17Z"/>
  <path class="cls-3" d="m84.44,66.11c-.12-.17-.24-.35-.38-.52.05-.02.09-.05.12-.07-.05-.28-.02-.56.3-.57.28,0,.49.28.44.5-.07.24-.3.44-.47.66Z"/>
  <path class="cls-1" d="m80.14,64.55c-.12-2.16-.26-4.35-.4-6.65.35.5.63.96.92,1.36.5.68.99,1.36,1.51,1.98.1.12.42.16.57.09.49-.21.92-.47,1.38-.73.3-.17.57-.37.97-.63-.38.7-.73,1.31-1.06,1.9-.42.71-.84,1.41-1.24,2.14-.16.28-.3.45-.68.44-.63-.03-1.27.05-1.98.1Z"/>
  <path class="cls-3" d="m79.13,97.56c-.33.02-.54-.28-.57-.82-.02-.33.26-.8.49-.8.68.02,1.13.31,1.13.75-.02.37-.61.85-1.04.87Z"/>
  <path class="cls-3" d="m78.21,38.77c-.21-.45-.87-.31-.7-.85.05-.16.42-.26.64-.26.3,0,.54.24.54.52,0,.17-.26.33-.49.59Z"/>
  <path class="cls-3" d="m77.32,55.6c-.05-.52.35-.92.82-.96.16-.02.31-.03.47,0,.1.02.28.12.26.17-.02.14-.09.37-.17.4-.44.16-.89.24-1.38.38Z"/>
  <path class="cls-3" d="m74.19,57.13c-.1-1.18-.23-2.4-.33-3.53.42-.12.73-.21,1.04-.33.17-.07.3-.1.33.12.16,1.1.3,2.19.44,3.31.02.23-.05.45-.07.71-.47-.09-.89-.17-1.41-.28Z"/>
  <path class="cls-1" d="m74.33,37.48c.03-.05.07-.09.1-.14.31.09.64.16.96.24,0,.07.02.12.02.19-.26.07-.54.17-.8.16-.1,0-.19-.3-.28-.45Z"/>
  <path class="cls-3" d="m74.26,52.94c-.45.02-.19-.42-.37-.57.19-.17.37-.4.59-.5.21-.09.5.28.5.57,0,.23-.42.5-.73.5Z"/>
  <path class="cls-4" d="m73.56,30.5c-.31-.23-.37-.42-.12-.71.3-.38.56-.78.89-1.13.28-.28.64-.5,1.03-.8-.07.89-.23,1.69-.17,2.45s.28,1.53.52,2.26c.19.59.44,1.2.78,1.72.33.49.84.87,1.25,1.31.17.17.38.33.52.52.17.26.35.37.64.24.42-.17.84-.28,1.24-.47.7-.33,1.38-.71,2.12-1.11-.05.19-.09.37-.16.52-.5.99-1.01,1.98-1.5,2.98-.44.89-1.04,1.65-1.65,2.44-.68.87-1.53,1.6-2.44,2.28-.12.09-.24.33-.23.45.05.21.24.21.49.16s.52.05.78.05c.7.02,1.39.02,2.09,0,.63-.02,1.25-.03,1.86-.09.33-.03.64-.17.97-.24.12-.03.26-.05.4-.09.03.03.07.09.1.12-.24.33-.47.68-.75.97-.52.63-.96,1.31-1.22,2.07-.33.92-.61,1.83-.61,2.84-.02.77-.23,1.55-.23,2.31.02.63.21,1.24.35,1.85.31,1.34.84,2.61,1.57,3.78.24.42.66.73,1.01,1.1.19.19.38.37.63.59.66-.17,1.2-.66,1.76-1.11.52-.44.97-.94,1.46-1.41.07-.07.16-.16.23-.17.54-.05.75-.47.96-.87.02-.03.07-.05.17-.12.02,1.79.02,3.53-.61,5.13-.61,1.57-1.15,3.22-2.47,4.44-.33-.44-.82-.44-1.32-.35-.21.03-.45-.07-.66-.1.1-.17.19-.35.3-.52.57-1.03,1.15-2.05,1.72-3.06.17-.31.38-.61.59-.89.26-.37.4-.75.24-1.2-.07-.21-.12-.26-.33-.07-.59.52-1.2,1.03-1.83,1.5-.26.21-.61.3-.92.45-.47.23-.77-.05-1.06-.42-.31-.37-.54-.8-.87-1.15-.59-.64-.89-1.44-1.27-2.21-.35-.68-.49-1.36-.44-2.11.03-.3-.12-.49-.42-.49-.28-.02-.42-.14-.47-.44-.1-.8-.35-1.62-.35-2.42,0-1.08.1-2.16.59-3.15.33-.68.71-1.32,1.01-2.02.09-.21-.05-.5-.07-.77-1.22.4-2.28.14-3.32-.26-.73-.3-1.48-.52-2.21-.77-.12-.96.24-1.71.61-2.49.24-.54.56-.8,1.1-.99.54-.17,1.03-.56,1.55-.84.37-.17.8-.28,1.15-.49.3-.16.52-.44.75-.68s.03-.92-.33-1.32c-.47-.54-1.34-.66-2.02-.38-.28.1-.64.09-.96.05-.38-.03-.77-.16-1.13-.23-.38-.09-.59-.38-.64-.96-.02-.12-.02-.24,0-.35.09-1.08-.19-2.11-.5-3.12-.16-.49-.12-.94.16-1.39.19-.31-.1-.49-.31-.64Z"/>
  <path class="cls-1" d="m74.24,60.12c.02-.07.21-.12.31-.12.54-.05,1.08-.03,1.6-.14.38-.09.49.17.5.38.1.71.14,1.43.19,2.16,0,.12-.07.26-.1.38-.03.02-.09.03-.14.07-.75-.78-1.51-1.57-2.26-2.37-.07-.09-.12-.24-.1-.37Z"/>
  <path class="cls-3" d="m73.72,59.13c-.03-.42,0-.84,0-1.39.37.02.8.05,1.24.07.59.02,1.17.03,1.74.07.31,0,.64.02.96.07.3.07.38.26.24.57-.19.42-.54.63-.96.7-.66.12-1.34.24-2,.33-.31.03-.64.03-.94-.03-.12-.02-.26-.24-.28-.38Z"/>
  <path class="cls-1" d="m73.22,41.5c.35-.09.7-.16,1.18-.26-.33.7-.59,1.29-.91,1.98-.1-.37-.19-.63-.23-.91-.05-.26-.03-.52-.05-.82Z"/>
  <path class="cls-1" d="m72.88,83.03c-.1-.59-.21-1.17-.26-1.74-.02-.12.14-.33.26-.37.24-.09.52-.09.78-.12.56-.1,1.11-.24,1.67-.31.61-.07,1.15.19,1.72.38,1.22.42,2.38.92,3.48,1.57.54.31,1.1.63,1.55,1.06.63.63,1.46,1.1,1.83,1.98.07.16.28.26.52.45.21-.59.42-1.08.54-1.58.1-.52.17-1.06.19-1.6,0-.47-.1-.94-.16-1.41-.07-.56-.09-1.13-.24-1.65-.21-.7-.56-1.34-1.13-1.85-.12-.09-.14-.28-.21-.42.16-.03.31-.1.49-.14.14-.02.3,0,.44-.02.38-.03.77-.14,1.15-.16.75,0,1.48-.02,2.21.07.77.09,1.57.23,2.31.78.02-.26.1-.47.03-.63-.17-.44-.42-.85-.63-1.29-.09-.14-.19-.28-.26-.44-.35-.8-.89-1.46-1.51-2.05-.52-.47-1.06-.94-1.62-1.36-.31-.23-.68-.4-1.04-.56-.26-.1-.56-.14-.84-.23,0-.05-.02-.1-.02-.17.31-.16.63-.31.94-.45.16-.07.33-.09.47-.17.49-.28.94-.64,1.48-.84,1.18-.44,2.11-1.25,2.91-2.14.73-.82,1.39-1.76,1.67-2.89.21-.91.5-1.78.71-2.68.3-1.24.68-2.45.82-3.74.1-1.01.17-2.02,0-3.01-.26-1.55-.68-3.1-1.06-4.65-.38-1.51-.84-3.01-.78-4.6,0-.14-.03-.28-.1-.4-.05-.09-.17-.17-.28-.21-.05,0-.14.16-.19.24-.07.09-.1.19-.16.28-.57.73-1.03,1.55-1.81,2.11-.37.26-.63.68-.99.92-.66.47-1.36.87-2.04,1.29-.07.05-.19.07-.26.03-.05-.02-.05-.16-.05-.24.07-.56.26-1.08.59-1.55.19-.28.3-.61.47-.91.42-.75.85-1.5,1.29-2.25.14-.24.31-.47.47-.71l.38.24s-.02.03-.03.05c-.17.26-.05.47.14.61.05.02.26-.17.37-.28.07-.05.1-.14.16-.19.37-.33.73-.64,1.11-.96.23-.21.47-.4.73-.56.57-.31,1.17-.61,1.76-.92.4-.21.82-.42,1.27-.64,0,.21.02.37-.02.5-.21,1.55-.47,3.1-.17,4.7.24,1.31.17,2.65.59,3.95.37,1.17.59,2.38.82,3.6.17.99.56,1.95.49,2.99-.03.91-.21,1.76-.42,2.63-.3,1.13-.42,2.33-.84,3.43-.49,1.32-1.18,2.58-1.83,3.85-.49.94-1.36,1.55-2.11,2.26-.4.38-.85.68-1.29.99-.33.24-.7.42-1.01.66-.28.21-.26.61.02.66.77.12,1.31.66,1.9,1.08.89.63,1.62,1.41,2.31,2.25.33.44.64.91.85,1.41.4.89.75,1.81,1.08,2.73.14.37.21.75.31,1.1-.42-.17-.77-.33-1.11-.44-.63-.19-1.24-.33-1.86-.5-.44-.12-.87-.28-1.31-.35-1.13-.14-2.23.05-3.34.24-.3.05-.4.16-.33.5.12.7.23,1.43.17,2.12-.07.78-.28,1.57-.54,2.3-.37,1.04-.82,2.04-1.25,3.05-.14.33-.23.75-.66.87-.68-.71-1.36-1.41-2.04-2.12-.75-.8-1.71-1.31-2.65-1.81-.63-.35-1.32-.59-1.98-.89-.61-.28-1.22-.61-1.85-.85-.59-.24-1.22-.37-1.88-.21-.42.1-.85.19-1.31.28Z"/>
  <path class="cls-1" d="m72.19,78.26c-.05-.44-.19-.87-.14-1.27.03-.23.38-.4.61-.57.16-.12.38-.16.54-.28.44-.33.92-.44,1.44-.5.68-.09,1.38-.17,2.07-.24.56-.05,1.13-.02,1.69-.12.5-.09,1.01-.3,1.5-.52.3-.16.26-.44,0-.64-.24-.19-.49-.33-.71-.54-.23-.19-.42-.44-.64-.64-.42-.42-.87-.8-1.25-1.25-.33-.38-.23-.56.23-.71.49-.16.94-.38,1.41-.57.21-.09.42-.16.63-.21.71-.17,1.25-.64,1.83-1.06.45-.31.92-.63,1.36-.97.35-.26.71-.54.97-.89.16-.21.31-.31.54-.37.59-.14.91-.52,1.13-1.08.21-.54.56-1.06.94-1.51.28-.33.57-.61.71-1.06.17-.61.45-1.2.73-1.78.33-.64.5-1.32.68-2.02.26-1.04.17-2.09.31-3.12.07-.63.1-1.24.17-1.86.02-.31-.05-.57-.37-.77-.17.33-.33.68-.56.96-.24.31-.56.59-.85.87-.45.45-.89.92-1.38,1.32-.59.47-1.25.87-1.88,1.29-.05.03-.17.02-.21-.02-.61-.56-1.24-1.06-1.62-1.85-.54-1.04-.99-2.09-1.18-3.25-.19-1.08-.33-2.18-.07-3.27.16-.64.14-1.31.3-1.95.35-1.31.87-2.51,1.9-3.46.26-.26.4-.66.59-.99.05-.09.1-.17.17-.24.31-.26.26-.54.02-.85-1.97.91-4.07.87-6.16.92-.07,0-.12-.09-.21-.16.64-.52,1.22-1.1,1.72-1.69l.19.17c-.05.09-.1.17-.09.19.1.16.3.35.45.37.71,0,1.43.02,2.12-.1,1.01-.17,2.02-.47,3.03-.7.37-.09.75-.12,1.17-.19.05.66-.07,1.25-.47,1.79-.12.17-.19.37-.28.56-.35.96-.84,1.83-1.46,2.63-.07.1-.12.23-.17.33-.37.75-.78,1.48-1.1,2.25-.17.38-.1.85-.26,1.25-.45,1.25-.23,2.47.19,3.67.28.82.68,1.62,1.04,2.42.12.3.54.3.84.09.44-.33.92-.59,1.38-.89.17-.12.35-.28.52-.44,1.04-.97,2.11-1.95,3.15-2.92.1-.1.14-.28.23-.42.05.02.12.02.17.02.07.52.14,1.03.24,1.53.24,1.34.3,2.7.23,4.06-.03.82-.23,1.64-.35,2.47-.09.64-.09,1.31-.24,1.95-.21.82-.33,1.72-.94,2.33-.59.61-.85,1.46-1.53,1.95-.87.64-1.46,1.6-2.45,2.12-.47.24-.8.73-1.25,1.04-.4.3-.87.5-1.31.75-.8.44-1.6.85-2.4,1.29-.14.05-.3.09-.4.17-.12.09-.28.19-.31.33-.02.09.1.26.21.33.78.49,1.57.97,2.37,1.44.47.28.96.52,1.43.78.1.07.19.17.33.31-1.72.4-2.8,1.43-3.53,2.85-.49-.14-.97-.3-1.48-.4-.35-.05-.71-.1-1.04-.03-.92.17-1.85.38-2.75.64-.63.19-1.22.49-1.83.73-.19.07-.37.14-.59.21Z"/>
  <path class="cls-3" d="m72.1,58.59c-.02-.38.33-.8.63-.82.33,0,.56.23.56.57s-.37.87-.63.87c-.35.02-.56-.23-.56-.63Z"/>
  <path class="cls-3" d="m72.19,30.97c.19-.05.37-.12.56-.12.16,0,.31.07.59.16-.23.28-.38.5-.59.71-.05.05-.3.02-.31-.03-.1-.23-.16-.47-.24-.71Z"/>
  <path class="cls-3" d="m72.36,46.04c-.33-.14-.38-.42-.35-.73.02-.37.31-.45.57-.47.21-.02.42.1.63.17.03,0,.07.09.05.09-.3.38.14.5.28.78-.24.28-.77.35-1.18.16Z"/>
  <path class="cls-4" d="m71.93,75.74c-.03-.38-.05-.75-.09-1.13-.05-.38.14-.63.45-.77.37-.14.77-.26,1.15-.37.66-.17,1.34-.31,2.04-.49.19-.5-.24-.78-.54-1.11-.44-.45-.84-.92-1.43-1.2-.05-.02-.05-.31.02-.4.16-.23.35-.47.59-.56.87-.37,1.78-.64,2.66-.97.05-.02.14-.07.17-.12.14-.38.49-.44.8-.57.42-.17.82-.4,1.24-.54.3-.09.61-.09.92-.1.57-.07,1.17-.12,1.74-.19.28-.03.54-.09.82-.12.14-.02.26-.03.4-.03.02.03.03.07.05.12-.52.63-1.38.89-1.95,1.44-.64.63-1.41.91-2.19,1.24-.77.31-1.55.61-2.33.91-.16.54.14.97.47,1.31.71.73,1.5,1.39,2.23,2.09.09.07.14.17.3.38-.85.12-1.6.28-2.35.35-.94.1-1.9.16-2.84.23-.71.05-1.25.49-1.85.84-.09.05-.24.12-.33.09s-.14-.19-.16-.3Z"/>
  <path class="cls-1" d="m71.23,69.78c-.03-.26.09-.37.3-.44.57-.19,1.17-.38,1.76-.56s1.17-.31,1.76-.45c.09-.02.23.1.33.16-.96.45-1.98.73-2.54,1.71-.09.16-.05.49.05.63.31.38.7.71,1.06,1.06.19.17.4.35.57.54.05.05.03.19.03.21-.68.16-1.32.3-1.95.45-.19.03-.38.14-.56.26-.28.21-.42.12-.47-.21-.05-.5-.1-1.01-.16-1.53-.07-.61-.1-1.22-.19-1.83Z"/>
  <path class="cls-4" d="m68.15,34.75c.02-.7.09-1.41.1-2.11.02-.17-.05-.35-.1-.64.37.19.61.35.87.47.8.4,1.6.87,2.52,1.01.1.02.28.14.28.23.09.91.12,1.81.17,2.66-.82-.17-1.62-.31-2.42-.54-.42-.1-.8-.35-1.18-.59-.12-.09-.24-.33-.24-.49Z"/>
  <path class="cls-1" d="m68.03,40.58c-.03-.8-.09-1.51-.12-2.33,1.11.52,2.16.99,3.32,1.51-.59.14-1.1.26-1.6.38-.5.14-1.03.28-1.6.44Z"/>
  <path class="cls-1" d="m68.08,50.03c.02-.1.26-.33.35-.31.71.21,1.41.03,2.16-.12-.17.57-.33,1.1-.47,1.6-.26.99-.56,1.97-.73,2.98-.12.71-.12,1.46-.09,2.18.07.91.12,1.83.5,2.66.4.87.82,1.72,1.27,2.58.28.49.57.97.94,1.41.26.33.63.56.94.82.14.12.26.26.38.4-.02.03-.02.07-.03.1-1.03.05-1.79.7-2.7,1.24-.09-.63-.14-1.11-.21-1.6-.09-.56-.19-1.11-.31-1.67-.05-.28-.14-.54-.19-.8-.21-1.03-.45-2.05-.63-3.1-.23-1.24-.61-2.44-.68-3.71-.05-.97-.33-1.91-.45-2.87-.07-.59-.07-1.18-.05-1.78Z"/>
  <path class="cls-1" d="m68.03,37.36c.02-.52.07-1.04.12-1.64.26.12.52.23.73.35.5.31,1.04.42,1.62.47.49.05.96.21,1.44.35.07.02.12.14.14.23.12.56.24,1.13.35,1.71.02.14,0,.37-.09.4-.16.09-.38.12-.56.09-.57-.17-1.15-.33-1.69-.57-.64-.3-1.27-.66-1.88-1.01-.1-.05-.19-.24-.19-.37Z"/>
  <path class="cls-1" d="m67.98,44.91c-.24-.52-.21-1.18-.28-1.78,0-.03.09-.12.14-.14.49-.12.99-.24,1.5-.35.28-.05.57-.05.87-.09.07-.02.12-.1.21-.14.31-.14.61-.02.66.31.19.97.37,1.95.5,2.91.09.59.87,1.15,1.44,1.04,1.18-.21,1.32-.56.96-1.74-.02-.03,0-.07,0-.12,1.62.7,3.17,1.65,5.07,1.32-.26.57-.57,1.11-.77,1.69-.24.71-.42,1.46-.56,2.21-.23,1.08-.03,2.12.23,3.19.07.24.02.54,0,.8,0,.07-.07.16-.14.21-.37.19-.77.35-1.1.61-.16.12-.24.4-.24.63.02.61.1,1.22.16,1.83-.4.14-.49-.1-.54-.37-.19-1.32-.4-2.65-.59-3.97-.02-.16,0-.31,0-.47,0-.63-.42-1.1-1.03-1.17-.4-.05-1.01.45-1.01.89.03.8.1,1.62.16,2.42.03.56.07,1.1.1,1.65,0,.09-.03.21,0,.3.1.23.16.49-.14.59-.33.1-.64-.05-.77-.35-.4-1.04-.73-2.14-.61-3.25.09-.64.4-1.29.68-1.88.38-.82.82-1.62,1.27-2.4.19-.37.49-.7.77-1.06-.03-.09-.09-.14-.09-.21-.03-.24-.1-.24-.38-.26-.75-.02-1.51.03-2.23-.31-.49-.23-1.04-.26-1.53-.47-1.08-.45-2.18-.96-2.72-2.07Z"/>
  <path class="cls-4" d="m68.06,49.09c-.14-1.18-.28-2.35-.44-3.52.05-.02.09-.02.12-.03,1.6,1.91,3.85,2.45,6.25,2.87-.12.24-.24.5-.37.75-.56.99-1.17,1.97-1.67,2.98-.4.77-.45,1.62-.26,2.47.21.87.44,1.72.64,2.58.02.07-.02.21-.09.24-.61.56-.8,1.34-.5,2.11.16.38.68.64,1.08.54.63-.16.64-.14.96.38.3.5.59.99,1.08,1.36.56.42.99.99,1.53,1.41.37.28.42.63.45,1.01.03.35,0,.7,0,1.15-1.11.16-2.19.3-3.27.49-.35.07-.66.28-1.01.38-.52.17-1.06.33-1.62.45-.28.05-.4-.12-.23-.38.09-.14.21-.28.33-.37.45-.31.92-.61,1.38-.91.03-.02.07-.03.1-.03.49-.17.96-.31,1.43-.49.12-.03.33-.17.31-.21-.05-.17-.12-.4-.26-.5-.56-.37-1.17-.61-1.58-1.15-.07-.07-.16-.12-.19-.19-.42-.7-.82-1.41-1.25-2.07-.5-.77-.77-1.62-.94-2.51-.23-1.11-.37-2.26-.17-3.41.05-.31.03-.64.1-.96.1-.45.28-.91.42-1.36.26-.84.5-1.65.77-2.49.02-.07.05-.17.12-.21.21-.17.14-.38,0-.5-.1-.09-.33-.1-.45-.05-.92.37-1.85.44-2.77.17Z"/>
  <path class="cls-3" d="m65.8,30.1c0-.42.44-.82.89-.8.31.02.56.35.56.71,0,.24-.47.57-.85.56-.23-.09-.57-.03-.59-.47Z"/>
  <path class="cls-1" d="m62.34,45.21c-.38-.14-.52-.44-.52-.78.02-.45.05-.92.17-1.36.21-.77.42-1.53.78-2.23.5-.96,1.17-1.83,1.76-2.75.03-.03.07-.05.09-.09.1-.1.21-.23.31-.33.03.17.12.35.1.52-.14,1.58-.23,3.19-.57,4.75-.17.84-.17,1.69-.28,2.54-.02.17-.07.35-.12.59-.44-.09-.8-.21-1.11-.52-.16-.17-.4-.28-.61-.35Z"/>
  <path class="cls-1" d="m62.2,60.89c.45-.31.82-.21,1.15-.21.28.02.56.16.82.14.49-.03.91.14,1.32.37.09.05.21.12.24.23.26.64.5,1.29.52,2,.02.66.16,1.32.26,1.98.17,1.13.4,2.26.56,3.39.12.77.19,1.53.26,2.3.02.14-.05.28-.07.4-.57-.42-1.1-.8-1.6-1.22-.31-.24-.49-.54-.4-.99.12-.59.14-1.18.21-1.79.09-.89.12-1.78.26-2.66.07-.4-.05-.66-.3-.91-.94-.92-1.86-1.83-2.8-2.72-.12-.1-.24-.19-.44-.31Z"/>
  <path class="cls-3" d="m63,103.41c-.24-.1-.73.03-.64-.44.03-.19.37-.4.59-.45.12-.02.31.28.57.52-.26.17-.44.4-.52.37Z"/>
  <path class="cls-4" d="m61.88,37.64c-.19-.24-.21-.49-.16-.73.16-.7.33-1.39.5-2.09.1-.42.21-.84.3-1.25.14-.82.68-1.44,1.04-2.16.26-.5.52-1.01.84-1.5.4-.64.85-1.25,1.38-2,.12.37.21.59.26.84.02.05-.09.19-.16.21-.4.03-.49.38-.56.64-.16.71-.28,1.44-.37,2.18-.12,1.06-.19,2.12-.26,3.19-.02.26,0,.57.1.82.28.64.1,1.11-.37,1.58-.73.73-1.31,1.58-1.76,2.51-.09.17-.23.33-.33.49-.05,0-.1-.02-.17-.02.02-.26-.02-.52.07-.77.24-.73.09-1.36-.37-1.93Z"/>
  <path class="cls-3" d="m60.44,68.06c-.14-.4-.23-.73.16-1.04.5-.44,1.6-.42,2.04.07.21.23.24.71-.02.85-.47.28-.99.49-1.5.73-.4-.09-.57-.26-.68-.61Z"/>
  <path class="cls-1" d="m60.54,55.2c.1-.05.21-.12.33-.14.84-.14,1.69-.26,2.56-.38-.61-2.05-1.18-4.02-1.78-6.01.97.26,1.88.52,2.78.8.1.03.23.26.23.38-.05,1.1-.12,2.18.1,3.27.17.87.24,1.78.33,2.68,0,.1-.16.31-.3.35-.78.26-1.6.47-2.45.45-.52-.02-.85-.31-1.2-.63-.16-.16-.31-.3-.45-.47-.07-.09-.1-.21-.16-.31Z"/>
  <path class="cls-3" d="m60.6,91.7c-.16-.05-.3-.19-.44-.28.28-.47.66-.56,1.08-.57.35-.02.5.16.63.44.12.35.02.5-.37.5-.3-.02-.61-.03-.91-.09Z"/>
  <path class="cls-3" d="m60.32,38.23c.03-.21.03-.66.42-.57.21.03.38.31.66.56-.3.24-.49.49-.68.49-.14,0-.44-.33-.4-.47Z"/>
  <path class="cls-3" d="m59.86,94.69c.26-.82.02-1.64.07-2.45,0-.05.02-.1.02-.1.59.02,1.15.03,1.69.09.09.02.23.17.23.26,0,.63-.02,1.24-.05,1.86-.02.26-.05.52-.1.78-.07.31-.45.5-.77.4-.3-.1-.61-.21-.87-.37-.12-.09-.24-.35-.21-.47Z"/>
  <path class="cls-3" d="m57.48,51.68c.02-.4.5-.78.97-.77.33.03.52.19.47.5-.02.5-.33.92-.66.92-.4-.02-.8-.35-.78-.66Z"/>
  <path class="cls-4" d="m56.87,56.03c-.31-.68-.33-.7.4-.99.77-.3,1.57-.54,2.33-.85.59-.23,1.17-.54,1.79-.84-.45-1.46-.78-2.99-1.76-4.26-.33-.44-.35-.92-.02-1.38.05-.07.21-.14.26-.1.42.21.85.42,1.22.7.12.09.14.35.19.52.12.44.23.89.37,1.32.3,1.08.61,2.14.92,3.22.07.26.17.52.28.87-.68.1-1.32.21-1.98.31-.33.03-.66.05-.99.09-.33.02-.35.21-.23.44.09.14.23.28.35.4.37.37.73.71,1.1,1.08-.03.03-.07.07-.09.12-.94.05-1.88.09-2.82.17-.64.07-1.08-.16-1.31-.77-.02-.02,0-.03-.02-.05Z"/>
  <path class="cls-4" d="m56.11,61.34c-.26-.14-.5-.33-.75-.5v-.12c.17-.03.35-.12.5-.12.85.07,1.67.09,2.51-.14.4-.1.85.03,1.29.07.52.05,1.04.1,1.57.19.17.02.38.07.5.17.92.87,1.83,1.76,2.72,2.65.28.26.56.54.7.89.12.28.09.66.07.99-.03.56-.1,1.1-.17,1.65-.07.7-.16,1.39-.23,2.07-.05.45-.07.89.37,1.24.59.47,1.11.99,1.72,1.44.38.26.56.59.61,1.01.07.78.12,1.57.16,2.35.03.4-.07.4-.44.24-.33-.12-.7-.19-1.06-.21-.52-.05-1.04-.03-1.55-.05-.09,0-.24-.12-.24-.19-.1-.96-.19-1.91-.26-2.87-.16-1.62-.28-3.24-.45-4.84-.02-.23-.24-.47-.44-.59-.44-.31-.89-.64-1.46-.66-.26,0-.54-.02-.77.05-.33.12-.63.3-.92.47-.4.24-.45.99-.33,1.46.1.44.23.87.28,1.32-.77-.47-1.24-1.17-1.69-1.86,1.25-1.32,2.98-1.88,4.44-2.87,0-.37-.12-.5-.56-.63-.94-.26-1.86-.64-2.78-1.03-1.11-.5-2.21-1.04-3.32-1.58Z"/>
  <path class="cls-3" d="m55.23,95.96c-.35-.21-.49-.66-.33-1.06.1-.26.19-.57.4-.71.33-.23.8-.05,1.01.31.31.54.7,1.06.64,1.78,0,.07.02.17,0,.26-.02.26-.14.33-.37.21-.45-.26-.91-.5-1.36-.78Z"/>
  <path class="cls-3" d="m55.22,43.22c.07-.28.17-.64.38-.73.16-.09.49.16.73.26.03.02.03.09.03.1,0,.28-.64.89-.87.8-.12-.07-.3-.31-.28-.44Z"/>
  <path class="cls-3" d="m54.75,75.44c0-.44.38-.92.8-.99.61-.1,1.2-.1,1.64.49.17.21.24.4.1.64-.05.1-.12.19-.16.3-.26.78-1.03.97-1.71.52-.66-.45-.7-.57-.68-.96Z"/>
  <path class="cls-1" d="m58.14,65.68c-2.28-1.41-4.84-2.33-6.51-4.53.21-.54.71-.3,1.08-.38.49-.12.99-.14,1.5-.16.14-.02.31.05.4.14,1.36,1.31,3.13,1.86,4.73,2.7.63.33,1.32.47,1.98.71.21.07.4.17.59.26,0,.05,0,.09-.02.12-.14.07-.31.1-.45.19-.96.57-1.91,1.17-2.85,1.76-.07.03-.1.09-.17.12-.61.38-.71.63-.35,1.25.4.7.8,1.39,1.55,1.83.33.19.47.52.5.91.05.85.14,1.71.26,2.54.03.31.23.59.33.91.03.14.05.28.12.56-.78,0-1.48.07-2.18-.02-.45-.05-.87-.31-1.31-.47-.33-.1-.68-.23-1.03-.28-.26-.05-.49-.23-.44-.5.19-.89.4-1.78.63-2.65.09-.4.23-.78.37-1.18.03-.09.1-.17.17-.26.26-.26.17-.77-.19-.87-.61-.21-1.2-.45-1.88-.42-.47.03-.96-.12-1.44-.19,0-.07,0-.12-.02-.19.33-.16.66-.33,1.01-.44.5-.17,1.03-.28,1.55-.44.24-.09.47-.24.73-.33.44-.14.89-.24,1.36-.37,0-.12-.02-.28-.03-.33Z"/>
  <path class="cls-3" d="m52.92,53.63c-.1-.23-.1-.59.02-.78.42-.64,1.1-.84,1.83-.94.63-.1,1.24-.31,1.85-.45.14-.03.26-.03.4-.05-.03.03-.07.05-.09.09.19.44.4.87.59,1.25-.92.3-1.88.61-2.82.89-.28.09-.59.07-.89.1-.09.02-.17.02-.23.05-.3.21-.57,0-.66-.16Z"/>
  <path class="cls-1" d="m53.84,51.33c-.14-.44-.35-.84-.56-1.36h2.85c-.31-1.46-.14-2.82.28-4.16l1.98.94c.28.14.68.23.78.45.09.17-.19.54-.31.8-.21.45.07.8.24,1.15.33.64.77,1.24,1.06,1.9.24.56.37,1.18.5,1.78.03.1-.12.31-.23.35-.99.4-2,.75-2.99,1.13-.4.16-.8.37-1.2.56-.37.16-.26.4-.14.64.21.45.44.89.66,1.38-.47.05-.84.1-1.22.12-.38.03-.63-.19-.71-.56-.16-.64-.3-1.29-.4-1.93-.02-.12.16-.33.28-.38.87-.28,1.76-.49,2.61-.78.56-.19,1.1-.45,1.6-.77.45-.28.54-1.39.19-1.85-.28-.38-1.06-.4-1.57-.17-.73.31-1.51.52-2.28.75-.33.1-.68.17-1.01.24-.21.05-.35.02-.44-.23Z"/>
  <path class="cls-3" d="m50.17,48.17c-.02-.35.28-.59.7-.59.61,0,.84.23.84.8,0,.35-.4.66-.84.64-.38,0-.68-.37-.7-.85Z"/>
  <path class="cls-4" d="m49.7,45.73c-.09-.21-.17-.4-.28-.64.37.17.68.33,1.01.5.89.49,1.78.99,2.66,1.5.07.05.14.14.23.19s.19.07.28.1c.05-.12.16-.26.12-.38-.09-.52-.07-1.06-.16-1.57-.31-1.83.33-3.43,1.03-5.01.23-.52.52-1.01.8-1.5.1-.19.24-.23.47-.07.82.5,1.64.99,2.47,1.44.23.12.49.19.75.21.66.03.82.21.77.87-.05.59-.1,1.18-.17,1.79-.02.19-.09.38-.16.66-.66-.33-1.25-.61-1.83-.92-.5-.28-.99-.68-1.53-.89-.31-.14-.71-.03-1.11-.03-.3.59-.63,1.17-.38,1.91.17.54.52.94.99,1.22.33.19.4.37.26.77-.26.78-.49,1.58-.4,2.44.03.37,0,.75,0,1.13-.78,0-1.58.07-2.35-.05-.26-.03-.44-.56-.64-.87-.28-.38-.52-.78-.82-1.15-.21-.3-.54-.4-.87-.3-.37.12-.54-.03-.68-.3-.16-.35-.3-.71-.45-1.06Z"/>
  <path class="cls-3" d="m49.44,60.3c-.05-.5-.42-.59-.8-.7-.05-.47.31-.54.61-.63.71-.23,1.43-.44,2.14-.61.47-.12.94-.28,1.48-.14.33-.14.16-.44.09-.68-.23-.85-.44-1.74-.73-2.58-.37-1.1-.8-2.18-1.2-3.25-.23-.64-.45-1.29-.7-1.95.5-.19.99-.4,1.51-.54.07-.03.31.17.35.3.14.61.21,1.22.37,1.83.14.52.02,1.01-.14,1.5s.24,1.41.71,1.51c.45.09.52.38.61.73.16.73.31,1.46.5,2.18.17.61.4.68.97.61.97-.16,1.95-.26,2.94-.35,1.43-.14,2.87-.21,4.3-.37.8-.07,1.58-.28,2.37-.44.07,0,.1-.05.16-.05.57-.02.63-.09.57-.63-.14-1.04-.24-2.11-.37-3.15-.09-.8-.16-1.6-.24-2.38,0-.12,0-.24.03-.35.23-.8.24-.8-.44-1.22-.45-.28-.92-.54-1.39-.78-.42-.23-.84-.45-1.29-.64-.87-.37-1.74-.7-2.63-1.04-.3-.12-.59-.24-.85-.4-.84-.5-1.64-1.01-2.45-1.51-.1-.05-.23-.07-.31-.12-.07-.05-.14-.12-.26-.24.92.03,1.13-.7,1.57-1.22.59.33,1.17.68,1.76.99.31.17.64.33.97.44.09.02.35-.12.35-.21.07-1.58.1-3.17.16-4.77,0-.05-.03-.09-.05-.14h1.01c-.07.66-.14,1.32-.19,1.98-.02.35-.02.71-.02,1.06,0,.99,0,1.98.02,2.96,0,.12.03.26.03.38,0,.37.17.5.54.56.54.05,1.06.19,1.58.28.49.09.99.14,1.46.21,0-.5-.02-.97.02-1.44.03-.56.14-1.1.23-1.65.12-.84.31-1.65.4-2.51.1-.82.17-1.64.19-2.47,0-.99.07-1.97-.14-2.98-.12-.64.05-1.36.1-2.04.03-.71.07-1.43.12-2.12.02-.16.07-.33.09-.47h1.69c-.02.26-.07.52-.07.8-.02.97.02,1.97-.02,2.94-.03,1.27-.14,2.56-.16,3.83,0,.68.07,1.34.17,2,.09.56.33.66.85.5,1.11-.3,2.23-.56,3.34-.85.28-.09.56-.23.84-.35.14-.05.3-.14.45-.16.31-.02.38-.24.35-.47-.12-.68-.3-1.38-.44-2.05-.07-.38-.1-.78-.14-1.17-.03-.75-.05-1.5-.09-2.25-.02-.52-.05-1.04-.07-1.51.26-.03.52-.07.77-.07.09,0,.21.1.23.19.14.77.49,1.5.47,2.31-.02.73.14,1.48.21,2.23.03.47,0,.94.03,1.41,0,.14.03.35.14.4s.3-.02.42-.09c.47-.21.92-.42,1.36-.64.26-.14.5-.35.82-.24.1.02.21.07.26.16.23.35.44.73.66,1.1-.54.21-1.2.45-1.83.71-.26.1-.47.31-.73.4-.64.19-1.31.35-1.97.52-.28.07-.47.12-.54.54-.19,1.06.19,2,.37,2.99.02.09.02.16.02.14-.31.05-.56.14-.82.1-.14,0-.33-.17-.37-.31-.17-.73-.3-1.46-.45-2.19-.02-.16-.1-.31-.17-.47-.1-.21-.24-.21-.44-.07-.1.09-.24.16-.38.19-1.01.26-2,.57-3.05.61-.17,0-.35.1-.56.19.03.47.1.92.1,1.39,0,.68-.09,1.36-.09,2.02,0,.61.05,1.2.09,1.79.05.5.14.99.16,1.5.07,1.03.1,2.05.19,3.06.07.7.23,1.38.33,2.05.14.91.26,1.81.44,2.72.14.75.35,1.48.5,2.23.23,1.11.4,2.25.7,3.32.26.97.37,1.97.5,2.96.07.59.19,1.17.35,1.74.02.1.3.23.4.19.77-.21,1.51-.42,2.25-.7,1.1-.45,2.25-.45,3.38-.61.44-.05.87-.19,1.36-.31-.03-.33-.09-.7-.09-1.06-.02-.96,0-1.91-.02-2.87,0-.19-.05-.4-.07-.61-.03-.37-.07-.73-.09-1.1-.02-.26.07-.42.35-.5.5-.16.92-.78.92-1.27,0-.56-.17-.84-.71-.91-.5-.07-.68-.3-.66-.78.02-.28-.09-.54-.12-.73.63-.03,1.24-.07,1.86-.1,0-.03.02-.07.03-.12.07.14.16.26.19.4.23.75.44,1.5.45,2.31.02,1.58.16,3.17.24,4.75.02.54.05,1.1.07,1.64.02.44.23.57.63.37.7-.35,1.41-.38,2.14-.12.12.05.3-.05.45-.09.44-.12.5-.05.54.37.02.33.12.64.19.91-.35.03-.73.1-1.1.1-.42.02-.85-.09-1.27-.05-.66.05-1.32.23-2,.23-1.06-.02-2,.44-3.01.61-.59.1-1.2.16-1.79.26-.16.02-.3.1-.45.16-.64.26-1.27.54-1.91.77-.37.12-.77.17-1.13.26-.28.05-.54.12-.8.21-.23.07-.24.19-.19.45.14.57.19,1.17.28,1.76.16,1.03.31,2.04.45,3.06.09.7.17,1.38.23,2.07.12,1.39.21,2.78.35,4.18.12,1.24.3,2.47.42,3.71.07.63.1,1.27.09,1.9-.03,1.29-.1,2.59-.17,3.88-.02.66-.03,1.32-.09,1.98-.1,1.51-.23,3.03-.33,4.56-.07.91-.1,1.83-.17,2.73-.07.92-.14,1.85-.37,2.77-.21.78-.24,1.62-.3,2.44-.03.49.5.87.99.77.1-.02.21,0,.3,0,.96-.05,1.91-.14,2.85-.16.42-.02.85,0,1.27.09,1.03.21,2.05.21,3.08.07.12,0,.24.03.47.09.03-.26.12-.54.09-.78-.05-.71-.12-1.43-.23-2.12-.07-.45-.21-.91-.31-1.36-.03-.24-.03-.5-.07-.75-.09-.7-.19-1.41-.28-2.11.66.14,1.51-.17,1.88-.68.1.64.24,1.27.3,1.91.05.56.03.59.54.44.64-.23,1.32-.21,1.98-.26.19-.02.38-.07.57-.12.4-.12.56-.03.66.38.05.17.1.37.19.66-.47.1-.92.24-1.38.33-.49.07-.97.09-1.44.12-.33.02-.44.24-.45.5-.02.24,0,.49.02.75.09.71.17,1.43.24,2.14.03.24.03.33.35.28.71-.12,1.44-.16,2.09-.23.14.45.3.82.38,1.2.02.07-.17.24-.28.26-.35.07-.73.03-1.08.1-1.11.26-2.26.21-3.38.38-.35.05-.7.16-1.03.24-1.38.37-2.73.73-4.11,1.06-1.2.28-2.42.54-3.66.77-.42.07-.92-.09-1.15.4-.19.37-.28.78-.37,1.18-.12.52-.21,1.06-.26,1.6-.03.57,0,1.17,0,1.74-.02.38-.09.77-.09,1.13.02.35.05.73.21,1.01.07.14.45.1.71.14.09,0,.19-.09.3-.07,1.01.14,2.02.3,3.05.44.52.05,1.08.02,1.6.1.71.1,1.41.07,2.11,0,.61-.07,1.15.16,1.6.57.19.17.49.24.71.38.52.35,1.04.7,1.55,1.08.26.21.19.5-.16.59-.56.14-1.13.17-1.67-.07-.37-.17-.71-.38-1.08-.56-.12-.07-.26-.12-.42-.14-.57-.12-1.15-.26-1.74-.31-.57-.05-1.18-.12-1.72.02-1.18.31-2.37.42-3.57.54-.47.03-.56.33-.61.68-.05.24.03.5-.03.73-.05.19-.23.5-.35.52-.21,0-.54-.16-.59-.31-.14-.44-.47-.85-.23-1.36.03-.07-.05-.28-.12-.3-.42-.12-.85-.3-1.27-.05-.42.23-.59.66-.66,1.11-.03.19-.02.4-.09.57-.09.17-.24.4-.38.42-.16.02-.45-.12-.5-.26-.12-.31-.17-.68-.21-1.03-.03-.24-.02-.5,0-.77.02-.42-.21-.4-.52-.35-.84.16-1.71.26-2.54.4-.37.05-.73.17-1.1.24-.33.05-.68.03-.99.1-.16.02-.37.14-.44.28-.1.28-.16.59-.19.89-.05.38-.44.71-.75.66-.37-.07-.54-.4-.42-.82.1-.35-.03-.59-.28-.8s-.49-.17-.73.02c-.09.07-.23.1-.35.1-.09,0-.24-.02-.26-.07-.03-.09,0-.24.05-.31.64-.7,1.36-1.24,2.28-1.51.82-.24,1.6-.61,2.4-.87.96-.31,1.95-.54,2.91-.84.5-.16.66-.68.82-1.11.16-.45.21-.94.26-1.41.07-.73.1-1.46.4-2.16.19-.42.14-.94.21-1.41.12-.99.26-1.98.42-2.98.12-.84.31-1.67.42-2.52.1-.97.1-1.97.17-2.94.05-.49.14-.96.23-1.44.05-.26.03-.47-.26-.49-.97-.07-1.95-.14-2.92-.17-.52,0-.77.33-.78.85-.03.89-.1,1.78-.16,2.65-.02.05-.02.12-.02.21-.49-.33-.92-.05-1.39.16-.03-.4-.1-.75-.12-1.11-.02-.61.02-1.25-.02-1.88-.03-.49-.16-.97-.26-1.46-.02-.07-.12-.14-.21-.17-.57-.17-1.17-.37-1.76-.5-.47-.1-.96-.12-1.43-.17h-.21c-.56-.05-.64-.23-.73-.96-.07-.56-.3-1.11-.45-1.67-.03-.1-.12-.28-.09-.31.1-.1.26-.19.4-.19.63-.03,1.25,0,1.88-.02.37-.02.56.09.49.47-.16.91.37,1.43,1.08,1.85.54.3,1.25.1,1.71-.49.17-.21.31-.44.45-.64h1.15c.96.03,1.9.05,2.84.1.24,0,.38-.07.42-.3.19-1.04.45-2.07.57-3.12.07-.56-.16-1.17-.12-1.74.05-1.01.19-2,.31-3.01v-.03c.05-.73.12-1.46.17-2.19.05-.85.16-1.69.16-2.52,0-.91-.09-1.79-.14-2.7,0-.24.03-.49-.03-.71-.07-.21-.21-.5-.38-.57-.71-.26-1.46-.49-2.19-.68-.54-.16-1.08-.3-1.64-.35-1.1-.1-2.21-.12-3.32-.19-.59-.03-1.2-.12-1.79-.17-.4-.02-.8,0-1.2,0s-.45-.1-.28-.45c.19-.37.33-.77.57-1.08.12-.16.45-.23.7-.24.64-.03,1.29-.02,1.93-.02h.89c-.1-.42-.17-.82-.3-1.2-.33-.94-.52-1.9-.54-2.89-.02-.63-.1-1.24-.16-1.85-.02-.07.02-.16.02-.24.82.21,1.74,0,2.45-.57.05.54.12,1.04.16,1.55.05.78.03,1.55.1,2.33.05.75.19,1.48.3,2.23.05.33.14.64.19.97.03.28.21.35.47.37.37.03.73.17,1.1.16.92-.05,1.81,0,2.7.17.07.02.14,0,.26-.02-.03-.56-.07-1.1-.14-1.64-.02-.35-.09-.66-.12-.99-.07-.7-.1-1.38-.19-2.05-.09-.92-.19-1.83-.31-2.73-.14-1.04-.3-2.07-.44-3.1-.16-1.08-.24-2.16-.45-3.24-.1-.57-.35-1.15-.56-1.72-.03-.1-.28-.24-.33-.21-.44.3-.82-.03-1.22-.09-.91-.1-1.81-.24-2.7-.45-.84-.19-1.67-.02-2.51-.09-.37-.02-.73-.14-1.11-.14-.42,0-.84.12-1.25.14-1.11.05-2.21,0-3.31.12-1.2.12-2.38.4-3.57.59-.14.02-.45-.12-.47-.23Z"/>
  <path class="cls-4" d="m48.39,80.85c-.19-1.08-.4-2.16,0-3.22.37-.99.73-2,1.36-2.91.54-.75,1.15-1.43,1.81-2.07.05-.05.1-.14.16-.14.23,0,.33-.05.38-.14l.17.09c-.42.78-.77,1.62-1.08,2.47-.37.97-.8,1.93-.78,2.99,0,.3-.02.57.02.87.02.35.24.45.63.38.89-.17,1.78-.31,2.66-.49.42-.09.85-.23,1.27-.33.07,0,.16.07.23.14.17.14.33.24.63.21,1.04-.1,2.09-.07,3.06.35.45.19.87.56,1.04,1.11s.44,1.08.64,1.62c.05.16.1.31.1.49-.03.64-.1,1.31-.16,1.95-.03.24.14.4.35.31.78-.35,1.36-.92,1.83-1.62.24-.33.56-.64.92-.82.78-.4,1.6-.73,2.44-1.03.49-.19,1.03-.3,1.55-.42.42.54.33.96-.31,1.18-.68.23-1.39.38-2.09.59-.31.09-.63.19-.89.35-.59.35-1.15.71-1.71,1.1-.42.26-.8.56-1.22.84-.44.3-.91.57-1.34.87-.21.12-.42.16-.47-.12-.14-.68-.28-1.36-.33-2.04-.03-.44.12-.89.19-1.32.03-.24.05-.5.03-.75-.02-.1-.17-.23-.3-.28-.5-.19-1.04-.37-1.57-.56-.05-.02-.1-.03-.16-.03-.82-.12-1.64-.28-2.47-.35-1.04-.07-2.09-.24-3.13.07-.64.19-1.32.28-1.97.45-.33.09-.64.26-.94.42s-.52.07-.57-.23Z"/>
  <path class="cls-3" d="m48.08,60.75c-.42-.03-.66-.5-.45-.85.05-.1.21-.14.33-.23.31.14.61.21.85.4.12.09.16.37.16.56-.02.33-.26.14-.42.12-.16,0-.31.02-.47,0Z"/>
  <path class="cls-2" d="m43.4,37.77c.12-.4.16-.82.33-1.18.3-.61.66-1.18.99-1.78.14-.23.31-.45.5-.66.1-.12.24-.17.38-.12.07.02.16.09.23.19-.21.14-.4.3-.59.44-.05.03-.1.07-.1.12-.03.61-.56.96-.78,1.46-.17.38-.4.75-.59,1.11-.09.14.07.42-.28.42h-.09Z"/>
  <path class="cls-1" d="m42.84,56.89c-.21-.61-.07-.78.56-.82,1.6-.05,3.1.35,4.56.91.33.12.7.19,1.04.3.31.09.63.17,1.01.28.3-.21.3-.59.19-.94-.31-1.01-.57-2.05-1.01-3.01-.45-.94-.68-1.95-1.06-2.91-.4-1.01-.59-2.11-.54-3.2.03-.85-.17-1.62-.31-2.44-.02-.17.07-.35.07-.52.03-.96.07-1.91.16-2.92,1.11,1.04,2.31,1.93,3.93,2.35.17-.73.3-1.44.52-2.12.24-.7.59-1.34.89-2,.09-.19.16-.38.21-.59.16-.75.57-1.38.99-2.02s.75-1.36,1.13-2.09c.17.21.37.38.49.61.66,1.08,1.74,1.62,2.84,2.11.3.14.4-.05.42-.5.02-.66,0-1.36.19-2,.31-1.13.73-2.25,1.15-3.34.28-.75.59-1.48.96-2.18.38-.7.84-1.36,1.29-2,.1-.16.3-.24.44-.38.52-.56,1.03-1.11,1.57-1.65.31-.31.68-.56,1.01-.85.1-.09.17-.19.31-.35.14.26.3.49.38.73.44,1.1,1.29,1.85,2.12,2.63.23.21.49.38.7.59.64.68,1.62.61,2.37,1.08.16.1.45.09.44-.26-.05-.52.37-.73.66-1.01.35-.31.82-.52,1.11-.89.54-.68,1.32-.8,2.07-1.03.49-.16.99-.24,1.5-.35.14-.02.31.05.47.07-.03.14-.05.26-.09.38-.42,1.48-.73,2.98-.26,4.49.37,1.18.82,2.37,1.81,3.22.23.19.35.44.63.02.16-.26.52-.4.82-.54.54-.28,1.11-.49,1.64-.78.64-.37,1.25-.8,1.88-1.2.35-.24.7-.47,1.1-.73.05.54-.02,1.03-.31,1.48-.19.3-.4.59-.5.91-.24.78-.63,1.5-1.06,2.18-.05.1-.1.19-.14.3-.4,1.31-1.17,2.38-1.97,3.45-.26.33-.47.7-.66,1.04-.24.42-.59.7-.97.94-.07.05-.14.12-.21.19l-.19-.17c1.91-2.18,3.12-4.79,4.04-7.55-.07-.14-.17-.28-.3-.52-.24.28-.45.57-.71.8-.37.28-.77.52-1.17.75-.42.24-.85.44-1.29.63-.33.14-.7.24-1.04.35-.09.02-.23-.07-.31-.16-.4-.33-.82-.66-1.18-1.04-.17-.17-.3-.44-.42-.66-.23-.47-.47-.94-.66-1.43-.61-1.53-.71-3.06-.02-4.6.17-.37.02-.63-.28-.89-1.08.44-2.02,1.06-2.59,2.12-.16.3-.28.61-.49.85-.12.16-.37.26-.57.3-.4.07-.35.42-.47.64-.09.21-.12.45-.17.68,0,.07.05.14.07.23.09.24.21.49.24.73.03.23-.09.38-.35.33-.33-.07-.66-.12-.96-.26-.7-.33-1.38-.71-2.02-1.11-.14-.07-.19-.33-.23-.52-.1-.52-.16-1.06-.31-1.58-.16-.49-.66-.66-1.08-.75-.45-.07-.47-.37-.47-.64,0-.42-.12-.73-.49-.96-.68.49-1.22,1.1-1.64,1.83-.7,1.18-1.44,2.35-2.05,3.57-.37.8-.52,1.69-.75,2.54-.14.5-.24,1.03-.37,1.53-.05.24-.17.38-.47.38-.21-.02-.45.05-.63.16-.68.47-.7.63-.42,1.51.14.4.07.87.07,1.31-.02.05-.17.16-.26.14-.35-.03-.71-.03-1.01-.17-.96-.45-1.88-.97-2.65-1.71-.1-.1-.26-.16-.42-.24-.45.89-.92,1.74-1.34,2.63-.3.66-.57,1.36-.77,2.07-.3,1.01-.49,2.05-.28,3.13.09.44-.14.61-.5.42-.44-.24-.78-.66-1.24-.8-.64-.21-1.06-.7-1.57-1.08-.24-.17-.44-.44-.68-.61-.16-.12-.37-.14-.56-.21-.03.17-.14.35-.1.5.07.44.12.87.3,1.25.33.75.73,1.48,1.08,2.23.07.14.03.33.02.49,0,.23-.09.47-.03.68.3,1.06.5,2.19.99,3.19.44.92.68,1.86,1.01,2.8.33.89.54,1.83.77,2.75.02.1-.12.33-.23.35-.99.31-2,.57-3.01.89-.63.19-1.22.45-1.85.68-.49.17-.56.63-.57,1.04-.02.44.4,1.01.8,1.04.71.07,1.43.02,2.12,0,.1,0,.21-.02.28-.07.68-.42,1.08.03,1.46.49.85.96,1.76,1.85,2.96,2.37.33.16.63.42.96.59.49.26.97.49,1.48.75.09.03.14.14.21.21-.09.07-.17.16-.28.19-1.32.54-2.8.73-4.02,1.55-.21.14-.47.21-.68.35-.07.03-.12.23-.09.28.07.1.19.23.31.24,1.01.09,2.04.14,3.05.23.37.03.7.17,1.04.24.26.05.28.17.17.4-.26.59-.57,1.2-.73,1.83-.23.89-.31,1.81-.49,2.7-.03.16-.14.33-.28.4-.42.23-.73.54-.91.99-.19.52-.02,1.01.3,1.39.4.47.82.85,1.53,1.01,1.03.23,2.05.17,3.08.3,1.22.14,2.45.19,3.67.35,1.27.17,2.56.44,3.83.68.31.05.63.14.92.26.09.05.16.23.17.35.03.19.02.42.02.59-2.23.31-4.19.96-5.71,2.68-.14-.49-.23-.91-.37-1.31-.1-.26-.35-.49-.4-.77-.16-.7-.73-1.06-1.13-1.57-.02-.03-.07-.05-.09-.09-.37-.68-1.04-.68-1.67-.75-.66-.07-1.36-.1-2.04-.09-1.1.03-2.19.16-3.31.19-.38.02-.78-.05-1.18-.12-.07-.02-.17-.19-.17-.28.02-.45.09-.92.1-1.38.02-.82.44-1.5.64-2.26.3-1.01.82-1.86,1.51-2.66.44-.49.82-1.06,1.18-1.62.07-.12.05-.35,0-.5-.03-.07-.24-.12-.37-.12-.56.02-1.1.02-1.65.09-.8.09-1.62.17-2.42.35-.57.12-1.11.47-1.69.57-.71.12-1.44.16-2.18.17-.59,0-1.18-.05-1.78-.09-.14-.02-.28-.07-.42-.1-.12-.56.42-.64.66-.91.37-.37.84-.63,1.17-1.01.84-.92,1.83-1.57,3.01-1.85.54-.12,1.13-.09,1.69-.14.28-.03.57-.1.85-.12.47-.02.94,0,1.46,0,.21-.37.07-.64-.38-.91-.33-.21-.61-.52-.91-.78-.14-.12-.3-.21-.44-.31-.31-.26-.61-.56-.94-.8-.21-.16-.45-.3-.71-.35-.57-.14-1.06-.45-1.57-.75-.26-.14-.59-.14-.85-.28-.44-.21-.87-.47-1.25-.75-.44-.3-.8-.66-1.22-.96-.87-.66-1.58-1.72-1.95-2.66-.12-.3-.24-.59-.35-.89Z"/>
  <path class="cls-4" d="m39.88,70.32c-.07-.03-.1-.1-.14-.14.23-.09.42-.19.63-.24,1.08-.31,2.16-.68,3.01-1.44.47-.44.85-.97,1.24-1.5.49-.7,1.15-1.17,1.93-1.48.68-.28,1.39-.26,2.09-.26.24,0,.42.16.71.05.21-.09.21-.14.21-.3.02-.5-.38-.77-.71-1.01-.54-.37-1.1-.68-1.67-.99-.42-.21-.91-.31-1.31-.57-.85-.56-2-.71-2.54-1.76-.26-.49-.54-.97-.82-1.46-.19-.31-.45-.61-.59-.94-.35-.91-.78-1.81-.66-2.82,0-.07.02-.19.05-.21.38-.17.77-.38,1.17-.47.63-.12,1.27-.21,1.91-.23.61,0,1.24.02,1.83.19.56.16,1.04.52,1.58.8.23.1.45.24.7.33.12.03.33,0,.42-.09.07-.07.03-.26,0-.4-.05-.16-.12-.3-.21-.44-.3-.49-.61-.94-.87-1.43-.52-.97-1.01-1.95-1.48-2.92-.49-1.04-.85-2.12-1.01-3.24-.09-.56-.02-1.15-.03-1.71-.02-.52-.07-1.04-.07-1.57,0-.42.02-.87.09-1.29.12-.91.24-1.83.47-2.7.24-.99.63-1.97.94-2.94.05-.16.1-.3.19-.54.1.12.21.21.24.31.4,1.15,1.01,2.18,1.76,3.13.09.12.24.19.35.3.33.3.64.61.96.91.12.1.24.19.37.3.03-.02.09-.02.12-.03,0-.21.07-.42.02-.61-.23-.71,0-1.39.24-2.04.45-1.15.97-2.26,1.43-3.41.31-.78.71-1.48,1.2-2.16.59-.82,1.25-1.51,1.93-2.23.09-.09.14-.21.26-.4.05.3.1.5.14.73l.1.99c.1.89.78,1.41,1.27,2.04.1.12.23.24.35.35.24.23.47.21.54-.12.09-.28.17-.61.09-.87-.19-.71.03-1.36.21-2.02.24-.97.59-1.95,1.08-2.84.45-.85.94-1.69,1.62-2.42s1.27-1.57,1.97-2.28c.8-.84,1.67-1.58,2.52-2.37.28-.26.57-.5.91-.8.12.19.24.37.31.54.31.92.77,1.78,1.34,2.56.33.45.61.97.82,1.5.24.57.71.92,1.17,1.29.23.21.44.44.64.64.17.19.33.26.45-.05.4-1.03,1.24-1.65,2.04-2.31.84-.68,1.79-.63,2.73-.71.45-.03.89-.16,1.32-.14.7.02,1.39.12,2.09.21.31.03.64.12.96.19.14.03.24.1.44.19-.28.23-.52.4-.71.61-.17.21-.33.44-.45.68-.35.68-.75,1.34-.85,2.14-.14.96-.05,1.88.19,2.82.05.14.03.3.07.44.07.24.14.49.21.71.97-.35,1.85-.64,2.72-.97.23-.09.44-.26.63-.44.49-.44.97-.91,1.44-1.36.47-.42.96-.82,1.41-1.27.14-.14.23-.37.38-.64.07.26.16.44.17.63.05.33.07.7.1,1.04.05.61.14,1.22.16,1.83,0,.73-.07,1.46-.12,2.19-.03.33-.09.7-.23,1.01-.28.61-.61,1.2-.96,1.78-.4.64-.91,1.24-1.25,1.88-.31.56-.63,1.06-1.08,1.5-.05.05-.05.24,0,.3.1.12.28.24.4.23.68-.02,1.34-.05,2-.16.77-.12,1.53-.3,2.28-.49.54-.12,1.08-.28,1.6-.45.24-.07.47-.23.73-.35.1.75-.16,1.36-.44,1.97-.49,1.04-.97,2.09-1.5,3.1-.21.42-.52.78-.77,1.17-.19.31-.37.63-.54.94-.59,1.06-1.2,2.11-1.74,3.19-.19.4-.19.87-.3,1.31-.1.4-.26.78-.33,1.18-.02.17.12.37.19.56.1-.1.23-.21.35-.31.23-.23.42-.45.66-.64.31-.23.66-.42,1.01-.61.19-.1.4-.16.59-.26.35-.19.7-.37.99-.61.57-.49,1.13-.99,1.64-1.53.44-.47.82-.97,1.27-1.53.03.14.12.28.12.42-.05,1.1.33,2.09.64,3.12.17.57.24,1.2.38,1.79.12.54.28,1.06.38,1.6.17.91.37,1.81.45,2.72.16,1.55-.16,3.06-.56,4.56-.38,1.36-.7,2.73-1.06,4.09-.07.3-.26.56-.42.8-.42.63-.8,1.29-1.32,1.81-.52.54-1.15,1.01-1.79,1.41-.96.57-1.97,1.08-2.98,1.58-.61.31-1.27.57-1.9.89-.12.07-.3.3-.26.4.03.16.23.4.37.4,1.08.09,2.04.57,2.91,1.15,1.01.66,1.88,1.5,2.44,2.59.16.33.37.63.59,1.03-.92-.21-1.69-.38-2.52-.24-.85.14-1.74.1-2.61.19-.5.05-1.01.17-1.5.31-.14.03-.31.26-.31.4-.02.21.16.3.38.4.35.19.68.5.94.82.61.8.84,1.74.96,2.72.07.66.16,1.32.24,1.98.02.12-.03.26-.07.5-.23-.38-.37-.66-.54-.91-.44-.54-1.03-.85-1.6-1.22-1.01-.66-2.11-1.13-3.25-1.5-.37-.12-.77-.16-1.15-.26-.35-.09-.66-.28-1.01-.35-.5-.1-1.04-.21-1.57-.17-.64.05-1.27.24-1.9.42-.28.07-.52.21-.78.31-.4-.85-.23-1.31.57-1.65.8-.37,1.58-.78,2.49-.91.52-.07,1.04-.24,1.55-.21.7.02,1.38.17,2.04.31.38.07.75.23,1.11.33.31.09.61-.14.61-.47,0-.12,0-.24-.03-.37-.1-.45,0-.84.3-1.2.49-.63,1.11-1.04,1.85-1.29.37-.1.77-.1,1.15-.16.12-.03.33-.09.35-.17.05-.21.09-.44-.17-.57-.45-.26-.91-.52-1.38-.77l-2.66-1.46c-.17-.1-.24-.26-.03-.44.64-.49,1.32-.89,2.14-1.03.33-.05.61-.33.91-.54.42-.31.8-.66,1.22-.97.68-.54,1.41-1.04,2.05-1.62.66-.59,1.31-1.22,1.86-1.91.52-.63.99-1.31,1.36-2.04.31-.64.45-1.38.63-2.09.14-.57.19-1.2.31-1.78.35-1.46.37-2.94.24-4.44-.05-.61-.03-1.24-.14-1.85-.14-.87-.38-1.72-.59-2.59-.03-.17-.09-.37-.16-.54-.19-.45-.31-.47-.63-.09-.14.16-.23.35-.3.54-.35.84-.85,1.55-1.58,2.11-.37.28-.66.63-1.01.92-.5.42-1.01.84-1.51,1.24-.14.12-.28.23-.42.35-.24.19-.66.16-.82-.1-.73-1.2-1.18-2.51-1.2-3.92,0-.47.16-.94.24-1.39.21-1.08.85-1.98,1.31-2.96.26-.52.68-.97.96-1.5.49-.89.96-1.76,1.32-2.68.23-.61.3-1.29.38-1.95.03-.17-.1-.35-.17-.5-1.98.84-4.02,1.29-6.09,1.62-.03-.05-.07-.1-.09-.16.24-.33.52-.66.75-1.01.56-.84,1.11-1.69,1.62-2.56.47-.85.91-1.72,1.34-2.61.3-.61.52-1.25.8-1.88.14-.3.33-.57.47-.89.24-.57.4-1.15.31-1.78-.02-.19.07-.38.03-.57-.02-.19-.14-.37-.21-.56-.12.07-.26.12-.35.21-.44.4-.8.82-1.39,1.04-.63.23-1.11.73-1.69,1.1-.37.23-.77.42-1.17.61-.17.1-.35.19-.54.28-.44.17-.87.37-1.32.5-.1.03-.31-.07-.38-.16-.56-.97-1.06-1.93-1.1-3.1-.05-1.15.16-2.23.49-3.31.07-.24.14-.52.09-.78-.02-.16-.24-.42-.4-.42-1.48-.03-2.91.28-4.19,1.01-.5.28-.87.78-1.31,1.17-.1.1-.24.17-.33.26-.31.28-.61.56-.94.85-1.08-.66-2.3-1.2-2.98-2.44-.47-.85-1.03-1.67-1.55-2.51-.28-.45-.52-.44-.85-.03-.24.3-.56.54-.84.82-.73.71-1.46,1.44-2.18,2.18-.3.31-.66.59-.89.96-.57.96-1.1,1.95-1.65,2.92-.57,1.04-.91,2.18-1.25,3.31-.3.92-.52,1.85-.5,2.82,0,.12-.09.24-.14.38-1.03-.35-1.79-.99-2.35-1.88-.28-.45-.54-.89-.85-1.41-2.02,2.92-3.62,5.88-4.25,9.42-.5-.31-.89-.64-1.34-.82-.94-.37-1.43-1.17-1.98-1.91-.14-.17-.37-.26-.54-.4-.09.23-.23.44-.26.68-.12.73-.21,1.48-.3,2.23-.03.37-.09.73-.05,1.1.12,1.2.26,2.4.42,3.6.1.71.17,1.44.35,2.14.19.7.47,1.36.73,2.04.14.35.28.71.45,1.06.12.23.31.42.4.66.37.96.7,1.93,1.03,2.89.02.09-.07.21-.1.31-.89-.26-1.74-.52-2.59-.77-.44-.14-.85-.3-1.31-.4-.35-.07-.73-.12-1.1-.12-.68.02-1.36.07-2.05.09-.28,0-.3.16-.31.38-.02,1.01.47,1.85.92,2.68.66,1.24,1.78,2,2.87,2.82,1.32.97,2.91,1.38,4.28,2.21.68.4,1.27.92,1.9,1.41.09.07.14.21.26.4-1.29-.28-2.45-.02-3.6.33-.85.26-1.67.52-2.31,1.15-.44.42-.82.92-1.27,1.32-.54.45-1.13.84-1.69,1.25-.12.09-.23.23-.33.33.12.12.23.28.37.33.54.19,1.08.45,1.65.52.8.1,1.62.07,2.42.07.4,0,.8,0,1.17-.09.5-.14.96-.4,1.46-.54.45-.12.92-.19,1.39-.21.64-.03,1.31-.02,2.11-.02-.14.24-.23.38-.31.52-.4.57-.87,1.11-1.2,1.74l-.05.1-.17-.09c.05-.12-.05-.31-.12-.49-.28,0-.54-.02-.8.02-.16,0-.3.07-.44.12-.16.05-.28.26-.49.05-.03-.03-.23.12-.37.14-.38.07-.78.16-1.18.17-1.04.07-2.07.16-3.12.17-.5,0-.99-.1-1.46-.42-.26-.17-.64-.17-.97-.26-.03,0-.09.02-.12,0-1.01-.61-2.16-.94-3.15-1.57Z"/>
  <path class="cls-2" d="m38.09,54.41c0-.47-.1-.96-.17-1.44-.03-.33.09-.54.42-.63.52-.14,1.04-.28,1.55-.44.31-.09.59-.26.89-.31.42-.09.85-.09,1.27-.1.33-.02.68.02,1.01-.03.1-.02.26-.26.24-.4-.09-1.2-.42-2.37-.77-3.52-.03-.12,0-.26-.02-.38-.03-.61-.12-1.2-.12-1.81,0-.91.03-1.85.12-2.75.1-1.1.26-2.19.44-3.27.07-.49.23-.96.33-1.44h.23c.02.16.09.33.03.45-.24.57-.45,1.15-.37,1.79.05.33.1.71-.19.99-.03.05-.03.14-.05.21-.12.77-.09,1.55-.09,2.33,0,.28-.14.57-.16.85,0,.4.03.82.09,1.22.07.59.12,1.18.26,1.76.17.87.44,1.72.63,2.58.12.56.21,1.11.28,1.69,0,.07-.24.23-.35.23-.96-.09-1.91-.17-2.85.1-.68.21-1.36.44-2,.7-.17.07-.35.35-.37.54-.03.38,0,.78.07,1.18.09.49.21.96.33,1.44.24.87.49,1.76.78,2.65.23.7.52,1.39.8,2.09.17.44.37.89.54,1.32.07.14.14.24.23.37.28.37.54.73.84,1.1.12.14.28.24.42.37.56.47.87.85.09,1.5-.14.12-.35.14-.47.26-.19.17-.33.38-.49.59-.03.03-.07.12-.09.12-.64.02-1.58.63-2.16.82-.02,0-.03-.02-.05-.03.23-.16.94-.52,1.18-.68.28-.16.63-.24.87-.45.38-.35.73-.75,1.04-1.17.09-.1,0-.44-.12-.56-1.04-1.08-1.69-2.38-2.21-3.74-.3-.75-.73-1.46-.89-2.23-.26-1.31-1.01-2.47-.99-3.85Z"/>
  <path class="cls-1" d="m36.14,68.03c.64-.14,1.31-.26,1.95-.38.07-.02.17.02.24.05.37.19.66.02.71-.47l.16-.14s.03.03.05.03c.57-.19,1.51-.8,2.16-.82.02,0,.05-.09.09-.12.16-.21.3-.42.49-.59.12-.12.33-.14.47-.26.78-.64.47-1.03-.09-1.5-.14-.12-.3-.23-.42-.37-.3-.37-.56-.73-.84-1.1-.09-.12-.16-.23-.23-.37-.17-.44-.37-.89-.54-1.32-.28-.7-.57-1.39-.8-2.09-.3-.89-.54-1.78-.78-2.65-.12-.49-.24-.96-.33-1.44-.07-.4-.1-.8-.07-1.18.02-.19.19-.47.37-.54.64-.26,1.32-.49,2-.7.94-.28,1.9-.19,2.85-.1.1,0,.35-.16.35-.23-.07-.57-.16-1.13-.28-1.69-.19-.85-.45-1.71-.63-2.58-.14-.57-.19-1.17-.26-1.76-.05-.4-.09-.82-.09-1.22.02-.28.16-.57.16-.85,0-.78-.03-1.57.09-2.33.02-.07.02-.16.05-.21.3-.28.24-.66.19-.99-.09-.64.12-1.22.37-1.79.05-.12-.02-.3-.03-.45h-.02v-.1c.35,0,.19-.28.28-.42.19-.37.42-.73.59-1.11.23-.5.75-.85.78-1.46,0-.05.05-.09.1-.12.19-.14.38-.3.59-.44-.07-.1-.16-.17-.23-.19l.02-.09c.14-.03.3-.02.38-.1.45-.44,1.55-1.65,2-2.12.03.03.1.1.1.19.07.63.12,1.25.17,1.88.03.3.03.63.17.89.3.64.66,1.24,1.03,1.85.07.1.28.16.42.14.07,0,.16-.21.16-.33.02-.35-.02-.7.24-.99.09-.07.1-.23.1-.35-.02-.82.19-1.58.5-2.35.35-.8.59-1.65,1.01-2.4.54-.96,1.24-1.83,1.86-2.73.45-.66.94-1.31,1.36-1.98.37-.63.82-1.17,1.34-1.65.21-.21.38-.47.56-.7.12-.14.23-.28.35-.45.09.75.16,1.44.26,2.12.05.4.21.78.23,1.18.03.37.19.56.54.64.4.09.54-.17.66-.5.37-.97.78-1.91,1.46-2.7.31-.37.63-.73.94-1.08.45-.54.91-1.08,1.39-1.57.52-.5,1.1-.97,1.65-1.43.73-.57,1.48-1.13,2.33-1.51.49-.21.96-.44,1.46-.66.03.05.07.09.1.14.59,1.08,1.22,2.16,1.55,3.38.21.71.45,1.41.68,2.12.12.38.49.5.78.26.19-.17.42-.33.64-.49.26-.17.54-.33.78-.52.64-.52,1.39-.77,2.19-.89.5-.07,1.04-.07,1.53-.23.78-.24,1.6-.31,2.4-.26.8.03,1.6.24,2.4.3.59.05.87.31.97.91.05.35.33.7.33,1.04,0,.94-.1,1.88-.17,2.8-.05.5-.16.99-.23,1.5-.02.19-.07.47.23.5.19,0,.45-.07.56-.21.47-.57.91-1.17,1.32-1.79.23-.35.42-.75.63-1.11.19-.33.44-.63.57-.96.28-.7.52-1.43.8-2.21.14.21.23.31.3.44.33.73.66,1.46,1.01,2.19.16.31.42.59.52.94.21.68.4,1.38.5,2.09.12.71.16,1.44.19,2.18.02.8.14,1.64-.03,2.42-.33,1.5-.57,3.01-1.18,4.44-.05.14.1.38.17.57.16-.09.33-.16.45-.28.23-.26.4-.59.66-.84.57-.49,1.2-.94,1.79-1.43.21-.16.4-.35.63-.56.07.16.12.26.14.37.07.57.09,1.15.19,1.71.17,1.11-.05,2.18-.31,3.22-.19.85-.42,1.72-.77,2.54-.37.82-.89,1.55-1.34,2.33-.23.37-.49.73-.71,1.1l-.38-.24c.16-.23.3-.45.44-.71.4-.77.73-1.57,1.11-2.35.14-.33.33-.63.49-.96.09-.19.21-.38.26-.59.07-.21.07-.44.09-.66s.02-.45.02-.68c0-.24-.02-.49,0-.73,0-.26.07-.54.03-.82-.03-.19-.14-.4-.3-.54-.05-.05-.37.1-.47.24-.61.73-1.46,1.11-2.3,1.5-.87.4-1.79.71-2.7,1.01-.28.1-.61.09-.91.09-.09,0-.21-.12-.24-.21-.03-.07.03-.21.1-.24.89-.5,1.27-1.43,1.86-2.18.44-.56.73-1.22,1.1-1.85.12-.19.26-.4.3-.63.17-.87.33-1.74.44-2.61.09-.75.1-1.5.07-2.25-.02-.59-.16-1.18-.28-1.76-.1-.49-.28-.96-.37-1.43-.05-.3-.05-.63-.38-.66-.1,0-.3.35-.38.56-.3.61-.57,1.24-1.08,1.72-.71.7-1.46,1.38-2.16,2.07-.75.75-1.65,1.15-2.65,1.44-.26.09-.38-.02-.42-.24-.1-.75-.4-1.46-.12-2.28.17-.5.24-1.06.45-1.58.24-.63.61-1.13,1.08-1.6.19-.17.31-.45.45-.7.02-.03-.02-.14-.03-.19-.12-.28-.31-.45-.64-.5-.64-.12-1.27-.3-1.91-.4-.57-.09-1.15-.16-1.72-.14-.84.02-1.65.16-2.47.19-.71.03-1.39.26-1.93.68-.66.5-1.18,1.18-1.78,1.79-.07.07-.26.12-.31.09-.31-.26-.68-.5-.91-.85-.31-.47-.56-1.01-.77-1.53-.5-1.24-.97-2.47-1.46-3.72-.16-.42-.37-.54-.73-.31-.61.37-1.24.73-1.78,1.18-.8.7-1.53,1.46-2.26,2.23-.63.64-1.2,1.31-1.78,1.97-.44.5-.91,1.01-1.25,1.57-.45.73-.87,1.5-1.18,2.3-.38.92-.68,1.9-.94,2.85-.14.47-.1.96-.14,1.44-.28-.24-.52-.52-.63-.84-.28-.75-.37-1.55-.37-2.35,0-.33.05-.75-.4-.97-.23.21-.47.42-.71.66-.68.71-1.39,1.39-2,2.16-.56.68-.99,1.44-1.46,2.19-.26.44-.49.89-.75,1.34-.54.91-1.1,1.79-1.31,2.84-.07.37-.24.7-.38,1.08-.63-.68-1.04-1.41-1.32-2.23-.05-.17-.02-.38-.09-.57-.17-.59-.38-1.17-.57-1.76v-.03q-.03-.45-.38-.66c-.37.77-.71,1.51-1.06,2.28-.49,1.04-.84,2.16-1.06,3.27-.21,1.1-.31,2.21-.37,3.32-.07,1.06-.07,2.12,0,3.19.05.84.14,1.72.44,2.49.57,1.57,1.31,3.06,1.95,4.58.07.16.12.31.17.49-.03.02-.07.05-.1.07-.42-.16-.84-.3-1.25-.49-.77-.31-1.55-.28-2.31-.17-.59.1-1.17.35-1.74.52-.44.12-.87.21-1.24.3,0,.61-.07,1.2,0,1.76.16,1.24.71,2.31,1.36,3.36.63,1.03,1.2,2.07,2.35,2.63.84.4,1.67.87,2.49,1.29.49.24,1.01.44,1.34.97-1.04-.03-2.02.23-2.94.61-.71.31-1.39.68-1.81,1.43-.44.77-.92,1.55-1.76,1.98-.7.37-1.38.77-2.26.61-.37-.07-.84-.3-1.24.14.52.68,1.17,1.25,1.91,1.67.44.24.94.4,1.41.59,1.08.45,2.18.94,3.27,1.38.28.12.59.23.87.21.96-.03,1.91-.1,2.85-.21.52-.05,1.03-.21,1.58-.33-.03.12-.05.3-.14.44-.31.45-.66.89-.97,1.36-.87,1.29-1.31,2.77-1.69,4.25-.16.61-.23,1.27-.24,1.9-.02.59.09,1.17.16,1.76.02.33.19.42.49.26.17-.1.33-.24.5-.35.71-.4,1.43-.78,2.23-.94.68-.12,1.36-.35,2.04-.4,1.03-.07,2.05-.05,3.06-.02,1.08.05,2.12.23,3.08.75.1.05.23.23.23.35,0,.49.02.99-.09,1.46-.24,1.06.35,1.93.63,2.87.02.07.24.17.31.12.28-.16.56-.37.84-.56.91-.63,1.79-1.27,2.72-1.86.84-.54,1.72-.96,2.73-1.13.5-.09.97-.28,1.46-.44.07-.02.14-.02.28-.05-.05.91-.1,1.78-.16,2.63-1.67.07-3.2.26-4.72.73-1.53.49-2.65,1.58-3.97,2.49-.12-.26-.17-.52-.33-.71-.66-.87-.82-1.9-1.04-2.91-.07-.37-.03-.77,0-1.15.02-.35.12-.68.16-1.03,0-.26-.1-.42-.42-.26-.19.09-.4.14-.61.14-1.1,0-2.14.3-3.19.63-.33.1-.63.3-.96.4-.78.26-1.57.5-2.3.99-.89.59-1.83,1.11-2.56,1.91-.17.19-.42.35-.64.47-.35.19-.42.14-.47-.26-.02-.1-.05-.21-.09-.31-.23-.57-.54-1.15-.64-1.74-.17-.91-.23-1.81-.28-2.73-.03-.85-.07-1.71.02-2.56.05-.59.3-1.18.42-1.79.07-.38.63-.64.31-1.04-.59-.02-1.13-.03-1.65-.09-.82-.07-1.65-.12-2.45-.26-.45-.07-.89-.28-1.31-.47-.21-.1-.35-.35-.56-.5-1.2-.91-2.4-1.83-3.32-3.06-.78-1.03-1.04-2.21-1.15-3.45,0-.09.09-.26.17-.28Z"/>
  <path class="cls-2" d="m84.86,99.39c-.05.24.26.64.49.63.3-.03.49-.19.44-.49,0-.4-.19-.63-.61-.57-.12,0-.28.26-.31.44Zm.14,4.93c-.23.02-.4.21-.28.49l.21.37c.19.4.56.19.82.17.14-.02.26-.28.38-.44-.1-.24-.14-.49-.23-.5-.3-.09-.61-.12-.91-.09Zm-.82-38.8s-.07.05-.12.07c.14.17.26.35.38.52.17-.23.4-.42.47-.66.05-.23-.16-.5-.44-.5-.31.02-.35.3-.3.57Zm-4.44-7.62c.14,2.3.28,4.49.4,6.65.71-.05,1.36-.14,1.98-.1.38.02.52-.16.68-.44.4-.73.82-1.43,1.24-2.14.33-.59.68-1.2,1.06-1.9-.4.26-.68.45-.97.63-.45.26-.89.52-1.38.73-.16.07-.47.03-.57-.09-.52-.63-1.01-1.31-1.51-1.98-.3-.4-.57-.85-.92-1.36Zm-1.18,38.85c.03.54.24.84.57.82.44-.02,1.03-.5,1.04-.87,0-.44-.45-.73-1.13-.75-.23,0-.5.47-.49.8Zm-1.04-58.83c-.17.54.49.4.7.85.23-.26.49-.42.49-.59,0-.28-.24-.52-.54-.52-.23,0-.59.1-.64.26Zm.63,16.73c-.47.03-.87.44-.82.96.49-.14.94-.23,1.38-.38.09-.03.16-.26.17-.4.02-.05-.16-.16-.26-.17-.16-.03-.31-.02-.47,0Zm-3.81-17.16c.09.16.17.45.28.45.26.02.54-.09.8-.16,0-.07-.02-.12-.02-.19-.31-.09-.64-.16-.96-.24-.03.05-.07.09-.1.14Zm.23,22.52c-.1,0-.3.05-.31.12-.02.12.03.28.1.37.75.8,1.51,1.58,2.26,2.37.05-.03.1-.05.14-.07.03-.12.1-.26.1-.38-.05-.73-.09-1.44-.19-2.16-.02-.21-.12-.47-.5-.38-.52.1-1.06.09-1.6.14Zm-.07-8.15c-.23.1-.4.33-.59.5.17.16-.09.59.37.57.31,0,.73-.28.73-.5,0-.3-.3-.66-.5-.57Zm-.63,1.74c.1,1.13.23,2.35.33,3.53.52.1.94.19,1.41.28.02-.26.09-.49.07-.71-.14-1.11-.28-2.21-.44-3.31-.03-.23-.16-.19-.33-.12-.31.12-.63.21-1.04.33Zm-.14,4.14c0,.56-.03.97,0,1.39.02.14.16.37.28.38.3.07.63.07.94.03.66-.09,1.34-.21,2-.33.42-.07.77-.28.96-.7.14-.31.05-.5-.24-.57-.31-.05-.64-.07-.96-.07-.57-.03-1.15-.05-1.74-.07-.44-.02-.87-.05-1.24-.07Zm-.28-27.95c-.24.3-.19.49.12.71.21.16.5.33.31.64-.28.45-.31.91-.16,1.39.31,1.01.59,2.04.5,3.12-.02.1-.02.23,0,.35.05.57.26.87.64.96.37.07.75.19,1.13.23.31.03.68.05.96-.05.68-.28,1.55-.16,2.02.38.37.4.56,1.08.33,1.32s-.45.52-.75.68c-.35.21-.78.31-1.15.49-.52.28-1.01.66-1.55.84-.54.19-.85.45-1.1.99-.37.78-.73,1.53-.61,2.49.73.24,1.48.47,2.21.77,1.04.4,2.11.66,3.32.26.02.26.16.56.07.77-.3.7-.68,1.34-1.01,2.02-.49.99-.59,2.07-.59,3.15,0,.8.24,1.62.35,2.42.05.3.19.42.47.44.3,0,.45.19.42.49-.05.75.09,1.43.44,2.11.38.77.68,1.57,1.27,2.21.33.35.56.78.87,1.15.3.37.59.64,1.06.42.31-.16.66-.24.92-.45.63-.47,1.24-.97,1.83-1.5.21-.19.26-.14.33.07.16.45.02.84-.24,1.2-.21.28-.42.57-.59.89-.57,1.01-1.15,2.04-1.72,3.06-.1.17-.19.35-.3.52.21.03.45.14.66.1.5-.09.99-.09,1.32.35,1.32-1.22,1.86-2.87,2.47-4.44.63-1.6.63-3.34.61-5.13-.1.07-.16.09-.17.12-.21.4-.42.82-.96.87-.07.02-.16.1-.23.17-.49.47-.94.97-1.46,1.41-.56.45-1.1.94-1.76,1.11-.24-.23-.44-.4-.63-.59-.35-.37-.77-.68-1.01-1.1-.73-1.17-1.25-2.44-1.57-3.78-.14-.61-.33-1.22-.35-1.85,0-.77.21-1.55.23-2.31,0-1.01.28-1.91.61-2.84.26-.77.7-1.44,1.22-2.07.28-.3.5-.64.75-.97-.03-.03-.07-.09-.1-.12-.14.03-.28.05-.4.09-.33.07-.64.21-.97.24-.61.05-1.24.07-1.86.09-.7.02-1.39.02-2.09,0-.26,0-.54-.1-.78-.05s-.44.05-.49-.16c-.02-.12.1-.37.23-.45.91-.68,1.76-1.41,2.44-2.28.61-.78,1.22-1.55,1.65-2.44.49-.99.99-1.98,1.5-2.98.07-.16.1-.33.16-.52-.75.4-1.43.78-2.12,1.11-.4.19-.82.3-1.24.47-.3.12-.47.02-.64-.24-.14-.19-.35-.35-.52-.52-.42-.44-.92-.82-1.25-1.31-.35-.52-.59-1.13-.78-1.72-.24-.73-.47-1.5-.52-2.26s.1-1.57.17-2.45c-.38.3-.75.52-1.03.8-.33.35-.59.75-.89,1.13Zm.96,11.45c-.49.1-.84.17-1.18.26.02.3,0,.56.05.82.03.28.12.54.23.91.31-.7.57-1.29.91-1.98Zm-2.21-10.27c.09.24.14.49.24.71.02.05.26.09.31.03.21-.21.37-.44.59-.71-.28-.09-.44-.16-.59-.16-.19,0-.37.07-.56.12Zm.54,26.81c-.3.02-.64.44-.63.82,0,.4.21.64.56.63.26,0,.63-.52.63-.87s-.23-.57-.56-.57Zm-.14-12.93c-.26.02-.56.1-.57.47-.03.31.02.59.35.73.42.19.94.12,1.18-.16-.14-.28-.57-.4-.28-.78.02,0-.02-.09-.05-.09-.21-.07-.42-.19-.63-.17Zm-.75,29.76c.03.38.05.75.09,1.13.02.1.07.26.16.3s.24-.03.33-.09c.59-.35,1.13-.78,1.85-.84.94-.07,1.9-.12,2.84-.23.75-.07,1.5-.23,2.35-.35-.16-.21-.21-.31-.3-.38-.73-.7-1.51-1.36-2.23-2.09-.33-.33-.63-.77-.47-1.31.78-.3,1.57-.59,2.33-.91.78-.33,1.55-.61,2.19-1.24.57-.56,1.43-.82,1.95-1.44-.02-.05-.03-.09-.05-.12-.14,0-.26.02-.4.03-.28.03-.54.09-.82.12-.57.07-1.17.12-1.74.19-.31.02-.63.02-.92.1-.42.14-.82.37-1.24.54-.31.14-.66.19-.8.57-.03.05-.12.1-.17.12-.89.33-1.79.61-2.66.97-.24.09-.44.33-.59.56-.07.09-.07.38-.02.4.59.28.99.75,1.43,1.2.3.33.73.61.54,1.11-.7.17-1.38.31-2.04.49-.38.1-.78.23-1.15.37-.31.14-.5.38-.45.77Zm-.31-5.26c-.21.07-.33.17-.3.44.09.61.12,1.22.19,1.83.05.52.1,1.03.16,1.53.05.33.19.42.47.21.17-.12.37-.23.56-.26.63-.16,1.27-.3,1.95-.45,0-.02.02-.16-.03-.21-.17-.19-.38-.37-.57-.54-.37-.35-.75-.68-1.06-1.06-.1-.14-.14-.47-.05-.63.56-.97,1.58-1.25,2.54-1.71-.1-.05-.24-.17-.33-.16-.59.14-1.17.28-1.76.45s-1.18.37-1.76.56Zm-3.38-37.35c.05.3.12.47.1.64-.02.7-.09,1.41-.1,2.11,0,.16.12.4.24.49.38.24.77.49,1.18.59.8.23,1.6.37,2.42.54-.05-.85-.09-1.76-.17-2.66,0-.09-.17-.21-.28-.23-.92-.14-1.72-.61-2.52-1.01-.26-.12-.5-.28-.87-.47Zm.28,17.72c-.09-.02-.33.21-.35.31-.02.59-.02,1.18.05,1.78.12.96.4,1.9.45,2.87.07,1.27.45,2.47.68,3.71.17,1.04.42,2.07.63,3.1.05.26.14.52.19.8.12.56.23,1.11.31,1.67.07.49.12.97.21,1.6.91-.54,1.67-1.18,2.7-1.24.02-.03.02-.07.03-.1-.12-.14-.24-.28-.38-.4-.31-.26-.68-.49-.94-.82-.37-.44-.66-.92-.94-1.41-.45-.85-.87-1.71-1.27-2.58-.38-.84-.44-1.76-.5-2.66-.03-.71-.03-1.46.09-2.18.17-1.01.47-1.98.73-2.98.14-.5.3-1.03.47-1.6-.75.16-1.44.33-2.16.12Zm-.4-12.36c0,.12.09.31.19.37.61.35,1.24.71,1.88,1.01.54.24,1.11.4,1.69.57.17.03.4,0,.56-.09.09-.03.1-.26.09-.4-.1-.57-.23-1.15-.35-1.71-.02-.09-.07-.21-.14-.23-.49-.14-.96-.3-1.44-.35-.57-.05-1.11-.16-1.62-.47-.21-.12-.47-.23-.73-.35-.05.59-.1,1.11-.12,1.64Zm3.2,2.4c-1.17-.52-2.21-.99-3.32-1.51.03.82.09,1.53.12,2.33.57-.16,1.1-.3,1.6-.44.5-.12,1.01-.24,1.6-.38Zm-3.53,3.38c.07.59.03,1.25.28,1.78.54,1.11,1.64,1.62,2.72,2.07.49.21,1.04.24,1.53.47.71.35,1.48.3,2.23.31.28.02.35.02.38.26,0,.07.05.12.09.21-.28.37-.57.7-.77,1.06-.45.78-.89,1.58-1.27,2.4-.28.59-.59,1.24-.68,1.88-.12,1.11.21,2.21.61,3.25.12.3.44.45.77.35.3-.1.24-.37.14-.59-.03-.09,0-.21,0-.3-.03-.56-.07-1.1-.1-1.65-.05-.8-.12-1.62-.16-2.42,0-.44.61-.94,1.01-.89.61.07,1.03.54,1.03,1.17,0,.16-.02.31,0,.47.19,1.32.4,2.65.59,3.97.05.26.14.5.54.37-.05-.61-.14-1.22-.16-1.83,0-.23.09-.5.24-.63.33-.26.73-.42,1.1-.61.07-.05.14-.14.14-.21.02-.26.07-.56,0-.8-.26-1.06-.45-2.11-.23-3.19.14-.75.31-1.5.56-2.21.19-.57.5-1.11.77-1.69-1.9.33-3.45-.63-5.07-1.32,0,.05-.02.09,0,.12.37,1.18.23,1.53-.96,1.74-.57.1-1.36-.45-1.44-1.04-.14-.96-.31-1.93-.5-2.91-.05-.33-.35-.45-.66-.31-.09.03-.14.12-.21.14-.3.03-.59.03-.87.09-.5.1-1.01.23-1.5.35-.05.02-.14.1-.14.14Zm.05,2.4s-.07.02-.12.03c.16,1.17.3,2.33.44,3.52.92.26,1.85.19,2.77-.17.12-.05.35-.03.45.05.14.12.21.33,0,.5-.07.03-.1.14-.12.21-.26.84-.5,1.65-.77,2.49-.14.45-.31.91-.42,1.36-.07.31-.05.64-.1.96-.19,1.15-.05,2.3.17,3.41.17.89.44,1.74.94,2.51.44.66.84,1.38,1.25,2.07.03.07.12.12.19.19.42.54,1.03.78,1.58,1.15.14.1.21.33.26.5.02.03-.19.17-.31.21-.47.17-.94.31-1.43.49-.03,0-.07.02-.1.03-.45.3-.92.59-1.38.91-.12.09-.24.23-.33.37-.17.26-.05.44.23.38.56-.12,1.1-.28,1.62-.45.35-.1.66-.31,1.01-.38,1.08-.19,2.16-.33,3.27-.49,0-.45.03-.8,0-1.15-.03-.38-.09-.73-.45-1.01-.54-.42-.97-.99-1.53-1.41-.49-.37-.78-.85-1.08-1.36-.31-.52-.33-.54-.96-.38-.4.1-.92-.16-1.08-.54-.3-.77-.1-1.55.5-2.11.07-.03.1-.17.09-.24-.21-.85-.44-1.71-.64-2.58-.19-.85-.14-1.71.26-2.47.5-1.01,1.11-1.98,1.67-2.98.12-.24.24-.5.37-.75-2.4-.42-4.65-.96-6.25-2.87Zm-1.06-16.24c-.45-.02-.89.38-.89.8.02.44.37.38.59.47.38.02.85-.31.85-.56,0-.37-.24-.7-.56-.71Zm-3.74,73.23c-.23.05-.56.26-.59.45-.09.47.4.33.64.44.09.03.26-.19.52-.37-.26-.24-.45-.54-.57-.52Zm.4-41.84c-.33,0-.7-.1-1.15.21.19.12.31.21.44.31.94.89,1.86,1.79,2.8,2.72.24.24.37.5.3.91-.14.89-.17,1.78-.26,2.66-.07.61-.09,1.2-.21,1.79-.09.45.09.75.4.99.5.42,1.03.8,1.6,1.22.02-.12.09-.26.07-.4-.07-.77-.14-1.53-.26-2.3-.16-1.13-.38-2.26-.56-3.39-.1-.66-.24-1.32-.26-1.98-.02-.71-.26-1.36-.52-2-.03-.1-.16-.17-.24-.23-.42-.23-.84-.4-1.32-.37-.26.02-.54-.12-.82-.14Zm-1.36-17.61c-.12.44-.16.91-.17,1.36,0,.35.14.64.52.78.21.07.45.17.61.35.31.31.68.44,1.11.52.05-.24.1-.42.12-.59.1-.85.1-1.71.28-2.54.35-1.57.44-3.17.57-4.75.02-.17-.07-.35-.1-.52-.1.1-.21.23-.31.33-.02.03-.05.05-.09.09-.59.92-1.25,1.79-1.76,2.75-.37.7-.57,1.46-.78,2.23Zm-.26-6.16c-.05.24-.03.49.16.73.45.57.61,1.2.37,1.93-.09.24-.05.5-.07.77.07,0,.12.02.17.02.1-.16.24-.31.33-.49.45-.92,1.03-1.78,1.76-2.51.47-.47.64-.94.37-1.58-.1-.24-.12-.56-.1-.82.07-1.06.14-2.12.26-3.19.09-.73.21-1.46.37-2.18.07-.26.16-.61.56-.64.07-.02.17-.16.16-.21-.05-.24-.14-.47-.26-.84-.52.75-.97,1.36-1.38,2-.31.49-.57.99-.84,1.5-.37.71-.91,1.34-1.04,2.16-.09.42-.19.84-.3,1.25-.17.7-.35,1.39-.5,2.09Zm-.85,18.15c-.12.02-.23.09-.33.14.05.1.09.23.16.31.14.17.3.31.45.47.35.31.68.61,1.2.63.85.02,1.67-.19,2.45-.45.14-.03.3-.24.3-.35-.09-.91-.16-1.81-.33-2.68-.23-1.1-.16-2.18-.1-3.27,0-.12-.12-.35-.23-.38-.91-.28-1.81-.54-2.78-.8.59,1.98,1.17,3.95,1.78,6.01-.87.12-1.72.24-2.56.38Zm-.14-17.41c-.38-.09-.38.37-.42.57-.03.14.26.47.4.47.19,0,.38-.24.68-.49-.28-.24-.45-.52-.66-.56Zm-.14,29.36c-.38.31-.3.64-.16,1.04.1.35.28.52.68.61.5-.24,1.03-.45,1.5-.73.26-.14.23-.63.02-.85-.44-.49-1.53-.5-2.04-.07Zm-.44,24.4c.14.09.28.23.44.28.3.05.61.07.91.09.38,0,.49-.16.37-.5-.12-.28-.28-.45-.63-.44-.42.02-.8.1-1.08.57Zm-.3,3.27c-.03.12.09.38.21.47.26.16.57.26.87.37.31.1.7-.09.77-.4.05-.26.09-.52.1-.78.03-.63.05-1.24.05-1.86,0-.09-.14-.24-.23-.26-.54-.05-1.1-.07-1.69-.09,0,0-.02.05-.02.1-.05.82.19,1.64-.07,2.45Zm-2.38-43.01c-.02.31.38.64.78.66.33,0,.64-.42.66-.92.05-.31-.14-.47-.47-.5-.47-.02-.96.37-.97.77Zm-.21,3.36c-.73.3-.71.31-.4.99.02.02,0,.03.02.05.23.61.66.84,1.31.77.94-.09,1.88-.12,2.82-.17.02-.05.05-.09.09-.12-.37-.37-.73-.71-1.1-1.08-.12-.12-.26-.26-.35-.4-.12-.23-.1-.42.23-.44.33-.03.66-.05.99-.09.66-.1,1.31-.21,1.98-.31-.1-.35-.21-.61-.28-.87-.31-1.08-.63-2.14-.92-3.22-.14-.44-.24-.89-.37-1.32-.05-.17-.07-.44-.19-.52-.37-.28-.8-.49-1.22-.7-.05-.03-.21.03-.26.1-.33.45-.31.94.02,1.38.97,1.27,1.31,2.8,1.76,4.26-.63.3-1.2.61-1.79.84-.77.31-1.57.56-2.33.85Zm-1.41,5.55c-.16,0-.33.09-.5.12v.12c.24.17.49.37.75.5,1.11.54,2.21,1.08,3.32,1.58.92.38,1.85.77,2.78,1.03.44.12.56.26.56.63-1.46.99-3.19,1.55-4.44,2.87.45.7.92,1.39,1.69,1.86-.05-.45-.17-.89-.28-1.32-.12-.47-.07-1.22.33-1.46.3-.17.59-.35.92-.47.23-.07.5-.05.77-.05.57.02,1.03.35,1.46.66.19.12.42.37.44.59.17,1.6.3,3.22.45,4.84.07.96.16,1.91.26,2.87,0,.07.16.19.24.19.5.02,1.03,0,1.55.05.37.02.73.09,1.06.21.37.16.47.16.44-.24-.03-.78-.09-1.57-.16-2.35-.05-.42-.23-.75-.61-1.01-.61-.45-1.13-.97-1.72-1.44-.44-.35-.42-.78-.37-1.24.07-.68.16-1.38.23-2.07.07-.56.14-1.1.17-1.65.02-.33.05-.71-.07-.99-.14-.35-.42-.63-.7-.89-.89-.89-1.79-1.78-2.72-2.65-.12-.1-.33-.16-.5-.17-.52-.09-1.04-.14-1.57-.19-.44-.03-.89-.17-1.29-.07-.84.23-1.65.21-2.51.14Zm-.26-18.1c-.21.09-.31.45-.38.73-.02.12.16.37.28.44.23.09.87-.52.87-.8,0-.02,0-.09-.03-.1-.24-.1-.57-.35-.73-.26Zm-.7,52.41c-.16.4-.02.85.33,1.06.45.28.91.52,1.36.78.23.12.35.05.37-.21.02-.09,0-.19,0-.26.05-.71-.33-1.24-.64-1.78-.21-.37-.68-.54-1.01-.31-.21.14-.3.45-.4.71Zm.64-20.45c-.42.07-.8.56-.8.99-.02.38.02.5.68.96.68.45,1.44.26,1.71-.52.03-.1.1-.19.16-.3.14-.24.07-.44-.1-.64-.44-.59-1.03-.59-1.64-.49Zm-2.26-24.47c.21.52.42.92.56,1.36.09.24.23.28.44.23.33-.07.68-.14,1.01-.24.77-.23,1.55-.44,2.28-.75.5-.23,1.29-.21,1.57.17.35.45.26,1.57-.19,1.85-.5.31-1.04.57-1.6.77-.85.3-1.74.5-2.61.78-.12.05-.3.26-.28.38.1.64.24,1.29.4,1.93.09.37.33.59.71.56.38-.02.75-.07,1.22-.12-.23-.49-.45-.92-.66-1.38-.12-.24-.23-.49.14-.64.4-.19.8-.4,1.2-.56.99-.38,2-.73,2.99-1.13.1-.03.26-.24.23-.35-.14-.59-.26-1.22-.5-1.78-.3-.66-.73-1.25-1.06-1.9-.17-.35-.45-.7-.24-1.15.12-.26.4-.63.31-.8-.1-.23-.5-.31-.78-.45l-1.98-.94c-.42,1.34-.59,2.7-.28,4.16h-2.85Zm-.35,2.87c-.12.19-.12.56-.02.78.09.16.37.37.66.16.05-.03.14-.03.23-.05.3-.03.61-.02.89-.1.94-.28,1.9-.59,2.82-.89-.19-.38-.4-.82-.59-1.25.02-.03.05-.05.09-.09-.14.02-.26.02-.4.05-.61.14-1.22.35-1.85.45-.73.1-1.41.3-1.83.94Zm-.23,7.92c-.37.09-.87-.16-1.08.38,1.67,2.19,4.23,3.12,6.51,4.53.02.05.03.21.03.33-.47.12-.92.23-1.36.37-.26.09-.49.24-.73.33-.52.16-1.04.26-1.55.44-.35.1-.68.28-1.01.44.02.07.02.12.02.19.49.07.97.23,1.44.19.68-.03,1.27.21,1.88.42.37.1.45.61.19.87-.07.09-.14.17-.17.26-.14.4-.28.78-.37,1.18-.23.87-.44,1.76-.63,2.65-.05.28.17.45.44.5.35.05.7.17,1.03.28.44.16.85.42,1.31.47.7.09,1.39.02,2.18.02-.07-.28-.09-.42-.12-.56-.1-.31-.3-.59-.33-.91-.12-.84-.21-1.69-.26-2.54-.03-.38-.17-.71-.5-.91-.75-.44-1.15-1.13-1.55-1.83-.37-.63-.26-.87.35-1.25.07-.03.1-.09.17-.12.94-.59,1.9-1.18,2.85-1.76.14-.09.31-.12.45-.19.02-.03.02-.07.02-.12-.19-.09-.38-.19-.59-.26-.66-.24-1.36-.38-1.98-.71-1.6-.84-3.38-1.39-4.73-2.7-.09-.09-.26-.16-.4-.14-.5.02-1.01.03-1.5.16Zm-2.54-12.6c.02.49.31.85.7.85.44.02.84-.3.84-.64,0-.57-.23-.8-.84-.8-.42,0-.71.24-.7.59Zm-.75-3.08c.1.24.19.44.28.64.16.35.3.71.45,1.06.14.26.31.42.68.3.33-.1.66,0,.87.3.3.37.54.77.82,1.15.21.31.38.84.64.87.77.12,1.57.05,2.35.05,0-.38.03-.77,0-1.13-.09-.85.14-1.65.4-2.44.14-.4.07-.57-.26-.77-.47-.28-.82-.68-.99-1.22-.24-.75.09-1.32.38-1.91.4,0,.8-.1,1.11.03.54.21,1.03.61,1.53.89.57.31,1.17.59,1.83.92.07-.28.14-.47.16-.66.07-.61.12-1.2.17-1.79.05-.66-.1-.84-.77-.87-.26-.02-.52-.09-.75-.21-.84-.45-1.65-.94-2.47-1.44-.23-.16-.37-.12-.47.07-.28.49-.57.97-.8,1.5-.7,1.58-1.34,3.19-1.03,5.01.09.5.07,1.04.16,1.57.03.12-.07.26-.12.38-.09-.03-.19-.05-.28-.1s-.16-.14-.23-.19c-.89-.5-1.78-1.01-2.66-1.5-.33-.17-.64-.33-1.01-.5Zm-.17,13.89c-.3.09-.66.16-.61.63.38.1.75.19.8.7.02.1.33.24.47.23,1.18-.19,2.37-.47,3.57-.59,1.1-.12,2.19-.07,3.31-.12.42-.02.84-.14,1.25-.14.38,0,.75.12,1.11.14.84.07,1.67-.1,2.51.09.89.21,1.79.35,2.7.45.4.05.78.38,1.22.09.05-.03.3.1.33.21.21.57.45,1.15.56,1.72.21,1.08.3,2.16.45,3.24.14,1.03.3,2.05.44,3.1.12.91.23,1.81.31,2.73.09.68.12,1.36.19,2.05.03.33.1.64.12.99.07.54.1,1.08.14,1.64-.12.02-.19.03-.26.02-.89-.17-1.78-.23-2.7-.17-.37.02-.73-.12-1.1-.16-.26-.02-.44-.09-.47-.37-.05-.33-.14-.64-.19-.97-.1-.75-.24-1.48-.3-2.23-.07-.78-.05-1.55-.1-2.33-.03-.5-.1-1.01-.16-1.55-.71.57-1.64.78-2.45.57,0,.09-.03.17-.02.24.05.61.14,1.22.16,1.85.02.99.21,1.95.54,2.89.12.38.19.78.3,1.2h-.89c-.64,0-1.29-.02-1.93.02-.24.02-.57.09-.7.24-.24.31-.38.71-.57,1.08-.17.35-.12.45.28.45s.8-.02,1.2,0c.59.05,1.2.14,1.79.17,1.11.07,2.23.09,3.32.19.56.05,1.1.19,1.64.35.73.19,1.48.42,2.19.68.17.07.31.37.38.57.07.23.03.47.03.71.05.91.14,1.79.14,2.7,0,.84-.1,1.67-.16,2.52-.05.73-.12,1.46-.17,2.19v.03c-.12,1.01-.26,2-.31,3.01-.03.57.19,1.18.12,1.74-.12,1.04-.38,2.07-.57,3.12-.03.23-.17.3-.42.3-.94-.05-1.88-.07-2.84-.1h-1.15c-.14.21-.28.44-.45.64-.45.59-1.17.78-1.71.49-.71-.42-1.24-.94-1.08-1.85.07-.38-.12-.49-.49-.47-.63.02-1.25-.02-1.88.02-.14,0-.3.09-.4.19-.03.03.05.21.09.31.16.56.38,1.11.45,1.67.09.73.17.91.73.96h.21c.47.05.96.07,1.43.17.59.14,1.18.33,1.76.5.09.03.19.1.21.17.1.49.23.97.26,1.46.03.63,0,1.27.02,1.88.02.37.09.71.12,1.11.47-.21.91-.49,1.39-.16,0-.09,0-.16.02-.21.05-.87.12-1.76.16-2.65.02-.52.26-.85.78-.85.97.03,1.95.1,2.92.17.3.02.31.23.26.49-.09.49-.17.96-.23,1.44-.07.97-.07,1.97-.17,2.94-.1.85-.3,1.69-.42,2.52-.16.99-.3,1.98-.42,2.98-.07.47-.02.99-.21,1.41-.3.7-.33,1.43-.4,2.16-.05.47-.1.96-.26,1.41-.16.44-.31.96-.82,1.11-.96.3-1.95.52-2.91.84-.8.26-1.58.63-2.4.87-.92.28-1.64.82-2.28,1.51-.05.07-.09.23-.05.31.02.05.17.07.26.07.12,0,.26-.03.35-.1.24-.19.49-.23.73-.02s.38.45.28.8c-.12.42.05.75.42.82.31.05.7-.28.75-.66.03-.3.09-.61.19-.89.07-.14.28-.26.44-.28.31-.07.66-.05.99-.1.37-.07.73-.19,1.1-.24.84-.14,1.71-.24,2.54-.4.31-.05.54-.07.52.35-.02.26-.03.52,0,.77.03.35.09.71.21,1.03.05.14.35.28.5.26.14-.02.3-.24.38-.42.07-.17.05-.38.09-.57.07-.45.24-.89.66-1.11.42-.24.85-.07,1.27.05.07.02.16.23.12.3-.24.5.09.92.23,1.36.05.16.38.31.59.31.12-.02.3-.33.35-.52.07-.23-.02-.49.03-.73.05-.35.14-.64.61-.68,1.2-.12,2.38-.23,3.57-.54.54-.14,1.15-.07,1.72-.02.59.05,1.17.19,1.74.31.16.02.3.07.42.14.37.17.71.38,1.08.56.54.24,1.11.21,1.67.07.35-.09.42-.38.16-.59-.5-.38-1.03-.73-1.55-1.08-.23-.14-.52-.21-.71-.38-.45-.42-.99-.64-1.6-.57-.7.07-1.39.1-2.11,0-.52-.09-1.08-.05-1.6-.1-1.03-.14-2.04-.3-3.05-.44-.1-.02-.21.07-.3.07-.26-.03-.64,0-.71-.14-.16-.28-.19-.66-.21-1.01,0-.37.07-.75.09-1.13,0-.57-.03-1.17,0-1.74.05-.54.14-1.08.26-1.6.09-.4.17-.82.37-1.18.23-.49.73-.33,1.15-.4,1.24-.23,2.45-.49,3.66-.77,1.38-.33,2.73-.7,4.11-1.06.33-.09.68-.19,1.03-.24,1.11-.17,2.26-.12,3.38-.38.35-.07.73-.03,1.08-.1.1-.02.3-.19.28-.26-.09-.38-.24-.75-.38-1.2-.64.07-1.38.1-2.09.23-.31.05-.31-.03-.35-.28-.07-.71-.16-1.43-.24-2.14-.02-.26-.03-.5-.02-.75.02-.26.12-.49.45-.5.47-.03.96-.05,1.44-.12.45-.09.91-.23,1.38-.33-.09-.3-.14-.49-.19-.66-.1-.42-.26-.5-.66-.38-.19.05-.38.1-.57.12-.66.05-1.34.03-1.98.26-.5.16-.49.12-.54-.44-.05-.64-.19-1.27-.3-1.91-.37.5-1.22.82-1.88.68.09.7.19,1.41.28,2.11.03.24.03.5.07.75.1.45.24.91.31,1.36.1.7.17,1.41.23,2.12.03.24-.05.52-.09.78-.23-.05-.35-.09-.47-.09-1.03.14-2.05.14-3.08-.07-.42-.09-.85-.1-1.27-.09-.94.02-1.9.1-2.85.16-.09,0-.19-.02-.3,0-.49.1-1.03-.28-.99-.77.05-.82.09-1.65.3-2.44.23-.92.3-1.85.37-2.77.07-.91.1-1.83.17-2.73.1-1.53.23-3.05.33-4.56.05-.66.07-1.32.09-1.98.07-1.29.14-2.59.17-3.88.02-.63-.02-1.27-.09-1.9-.12-1.24-.3-2.47-.42-3.71-.14-1.39-.23-2.78-.35-4.18-.05-.7-.14-1.38-.23-2.07-.14-1.03-.3-2.04-.45-3.06-.09-.59-.14-1.18-.28-1.76-.05-.26-.03-.38.19-.45.26-.09.52-.16.8-.21.37-.09.77-.14,1.13-.26.64-.23,1.27-.5,1.91-.77.16-.05.3-.14.45-.16.59-.1,1.2-.16,1.79-.26,1.01-.17,1.95-.63,3.01-.61.68,0,1.34-.17,2-.23.42-.03.85.07,1.27.05.37,0,.75-.07,1.1-.1-.07-.26-.17-.57-.19-.91-.03-.42-.1-.49-.54-.37-.16.03-.33.14-.45.09-.73-.26-1.44-.23-2.14.12-.4.21-.61.07-.63-.37-.02-.54-.05-1.1-.07-1.64-.09-1.58-.23-3.17-.24-4.75-.02-.82-.23-1.57-.45-2.31-.03-.14-.12-.26-.19-.4-.02.05-.03.09-.03.12-.63.03-1.24.07-1.86.1.03.19.14.45.12.73-.02.49.16.71.66.78.54.07.71.35.71.91,0,.49-.42,1.11-.92,1.27-.28.09-.37.24-.35.5.02.37.05.73.09,1.1.02.21.07.42.07.61.02.96,0,1.91.02,2.87,0,.37.05.73.09,1.06-.49.12-.92.26-1.36.31-1.13.16-2.28.16-3.38.61-.73.28-1.48.49-2.25.7-.1.03-.38-.09-.4-.19-.16-.57-.28-1.15-.35-1.74-.14-.99-.24-1.98-.5-2.96-.3-1.08-.47-2.21-.7-3.32-.16-.75-.37-1.48-.5-2.23-.17-.91-.3-1.81-.44-2.72-.1-.68-.26-1.36-.33-2.05-.09-1.01-.12-2.04-.19-3.06-.02-.5-.1-.99-.16-1.5-.03-.59-.09-1.18-.09-1.79,0-.66.09-1.34.09-2.02,0-.47-.07-.92-.1-1.39.21-.09.38-.19.56-.19,1.04-.03,2.04-.35,3.05-.61.14-.03.28-.1.38-.19.19-.14.33-.14.44.07.07.16.16.31.17.47.16.73.28,1.46.45,2.19.03.14.23.31.37.31.26.03.5-.05.82-.1,0,.02,0-.05-.02-.14-.17-.99-.56-1.93-.37-2.99.07-.42.26-.47.54-.54.66-.17,1.32-.33,1.97-.52.26-.09.47-.3.73-.4.63-.26,1.29-.5,1.83-.71-.23-.37-.44-.75-.66-1.1-.05-.09-.16-.14-.26-.16-.31-.1-.56.1-.82.24-.44.23-.89.44-1.36.64-.12.07-.31.14-.42.09s-.14-.26-.14-.4c-.03-.47,0-.94-.03-1.41-.07-.75-.23-1.5-.21-2.23.02-.82-.33-1.55-.47-2.31-.02-.09-.14-.19-.23-.19-.24,0-.5.03-.77.07.02.47.05.99.07,1.51.03.75.05,1.5.09,2.25.03.38.07.78.14,1.17.14.68.31,1.38.44,2.05.03.23-.03.45-.35.47-.16.02-.31.1-.45.16-.28.12-.56.26-.84.35-1.11.3-2.23.56-3.34.85-.52.16-.77.05-.85-.5-.1-.66-.17-1.32-.17-2,.02-1.27.12-2.56.16-3.83.03-.97,0-1.97.02-2.94,0-.28.05-.54.07-.8h-1.69c-.02.14-.07.31-.09.47-.05.7-.09,1.41-.12,2.12-.05.68-.23,1.39-.1,2.04.21,1.01.14,1.98.14,2.98-.02.84-.09,1.65-.19,2.47-.09.85-.28,1.67-.4,2.51-.09.56-.19,1.1-.23,1.65-.03.47-.02.94-.02,1.44-.47-.07-.97-.12-1.46-.21-.52-.09-1.04-.23-1.58-.28-.37-.05-.54-.19-.54-.56,0-.12-.03-.26-.03-.38-.02-.97-.02-1.97-.02-2.96,0-.35,0-.71.02-1.06.05-.66.12-1.32.19-1.98h-1.01c.02.05.05.09.05.14-.05,1.6-.09,3.19-.16,4.77,0,.09-.26.23-.35.21-.33-.1-.66-.26-.97-.44-.59-.31-1.17-.66-1.76-.99-.44.52-.64,1.25-1.57,1.22.12.12.19.19.26.24.09.05.21.07.31.12.82.5,1.62,1.01,2.45,1.51.26.16.56.28.85.4.89.35,1.76.68,2.63,1.04.45.19.87.42,1.29.64.47.24.94.5,1.39.78.68.42.66.42.44,1.22-.03.1-.03.23-.03.35.09.78.16,1.58.24,2.38.12,1.04.23,2.11.37,3.15.05.54,0,.61-.57.63-.05,0-.09.05-.16.05-.78.16-1.57.37-2.37.44-1.43.16-2.87.23-4.3.37-.99.09-1.97.19-2.94.35-.57.07-.8,0-.97-.61-.19-.71-.35-1.44-.5-2.18-.09-.35-.16-.64-.61-.73-.47-.1-.87-1.03-.71-1.51s.28-.97.14-1.5c-.16-.61-.23-1.22-.37-1.83-.03-.12-.28-.33-.35-.3-.52.14-1.01.35-1.51.54.24.66.47,1.31.7,1.95.4,1.08.84,2.16,1.2,3.25.3.84.5,1.72.73,2.58.07.24.24.54-.09.68-.54-.14-1.01.02-1.48.14-.71.17-1.43.38-2.14.61Zm-1.62.92c-.21.35.03.82.45.85.16.02.31,0,.47,0,.16.02.4.21.42-.12,0-.19-.03-.47-.16-.56-.24-.19-.54-.26-.85-.4-.12.09-.28.12-.33.23Zm-4.23-3.83c-.63.03-.77.21-.56.82.1.3.23.59.35.89.37.94,1.08,2,1.95,2.66.42.3.78.66,1.22.96.38.28.82.54,1.25.75.26.14.59.14.85.28.5.3.99.61,1.57.75.26.05.5.19.71.35.33.24.63.54.94.8.14.1.3.19.44.31.3.26.57.57.91.78.45.26.59.54.38.91-.52,0-.99-.02-1.46,0-.28.02-.57.09-.85.12-.56.05-1.15.02-1.69.14-1.18.28-2.18.92-3.01,1.85-.33.38-.8.64-1.17,1.01-.24.26-.78.35-.66.91.14.03.28.09.42.1.59.03,1.18.09,1.78.09.73-.02,1.46-.05,2.18-.17.57-.1,1.11-.45,1.69-.57.8-.17,1.62-.26,2.42-.35.56-.07,1.1-.07,1.65-.09.12,0,.33.05.37.12.05.16.07.38,0,.5-.37.56-.75,1.13-1.18,1.62-.7.8-1.22,1.65-1.51,2.66-.21.77-.63,1.44-.64,2.26-.02.45-.09.92-.1,1.38,0,.09.1.26.17.28.4.07.8.14,1.18.12,1.11-.03,2.21-.16,3.31-.19.68-.02,1.38.02,2.04.09.63.07,1.31.07,1.67.75.02.03.07.05.09.09.4.5.97.87,1.13,1.57.05.28.3.5.4.77.14.4.23.82.37,1.31,1.51-1.72,3.48-2.37,5.71-2.68,0-.17.02-.4-.02-.59-.02-.12-.09-.3-.17-.35-.3-.12-.61-.21-.92-.26-1.27-.24-2.56-.5-3.83-.68-1.22-.16-2.45-.21-3.67-.35-1.03-.12-2.05-.07-3.08-.3-.71-.16-1.13-.54-1.53-1.01-.31-.38-.49-.87-.3-1.39.17-.45.49-.77.91-.99.14-.07.24-.24.28-.4.17-.89.26-1.81.49-2.7.16-.63.47-1.24.73-1.83.1-.23.09-.35-.17-.4-.35-.07-.68-.21-1.04-.24-1.01-.09-2.04-.14-3.05-.23-.12-.02-.24-.14-.31-.24-.03-.05.02-.24.09-.28.21-.14.47-.21.68-.35,1.22-.82,2.7-1.01,4.02-1.55.1-.03.19-.12.28-.19-.07-.07-.12-.17-.21-.21-.5-.26-.99-.49-1.48-.75-.33-.17-.63-.44-.96-.59-1.2-.52-2.11-1.41-2.96-2.37-.38-.45-.78-.91-1.46-.49-.07.05-.17.07-.28.07-.7.02-1.41.07-2.12,0-.4-.03-.82-.61-.8-1.04.02-.42.09-.87.57-1.04.63-.23,1.22-.49,1.85-.68,1.01-.31,2.02-.57,3.01-.89.1-.02.24-.24.23-.35-.23-.92-.44-1.86-.77-2.75-.33-.94-.57-1.88-1.01-2.8-.49-.99-.7-2.12-.99-3.19-.05-.21.03-.45.03-.68.02-.16.05-.35-.02-.49-.35-.75-.75-1.48-1.08-2.23-.17-.38-.23-.82-.3-1.25-.03-.16.07-.33.1-.5.19.07.4.09.56.21.24.17.44.44.68.61.5.38.92.87,1.57,1.08.45.14.8.56,1.24.8.37.19.59.02.5-.42-.21-1.08-.02-2.12.28-3.13.19-.71.47-1.41.77-2.07.42-.89.89-1.74,1.34-2.63.16.09.31.14.42.24.77.73,1.69,1.25,2.65,1.71.3.14.66.14,1.01.17.09.02.24-.09.26-.14,0-.44.07-.91-.07-1.31-.28-.89-.26-1.04.42-1.51.17-.1.42-.17.63-.16.3,0,.42-.14.47-.38.12-.5.23-1.03.37-1.53.23-.85.38-1.74.75-2.54.61-1.22,1.36-2.38,2.05-3.57.42-.73.96-1.34,1.64-1.83.37.23.49.54.49.96,0,.28.02.57.47.64.42.09.92.26,1.08.75.16.52.21,1.06.31,1.58.03.19.09.45.23.52.64.4,1.32.78,2.02,1.11.3.14.63.19.96.26.26.05.38-.1.35-.33-.03-.24-.16-.49-.24-.73-.02-.09-.07-.16-.07-.23.05-.23.09-.47.17-.68.12-.23.07-.57.47-.64.21-.03.45-.14.57-.3.21-.24.33-.56.49-.85.57-1.06,1.51-1.69,2.59-2.12.3.26.45.52.28.89-.7,1.53-.59,3.06.02,4.6.19.49.44.96.66,1.43.12.23.24.49.42.66.37.38.78.71,1.18,1.04.09.09.23.17.31.16.35-.1.71-.21,1.04-.35.44-.19.87-.38,1.29-.63.4-.23.8-.47,1.17-.75.26-.23.47-.52.71-.8.12.24.23.38.3.52-.92,2.77-2.12,5.38-4.04,7.55-.5.59-1.08,1.17-1.72,1.69.09.07.14.16.21.16,2.09-.05,4.19-.02,6.16-.92.24.31.3.59-.02.85-.07.07-.12.16-.17.24-.19.33-.33.73-.59.99-1.03.96-1.55,2.16-1.9,3.46-.16.64-.14,1.31-.3,1.95-.26,1.1-.12,2.19.07,3.27.19,1.17.64,2.21,1.18,3.25.38.78,1.01,1.29,1.62,1.85.03.03.16.05.21.02.63-.42,1.29-.82,1.88-1.29.49-.4.92-.87,1.38-1.32.3-.28.61-.56.85-.87.23-.28.38-.63.56-.96.31.19.38.45.37.77-.07.63-.1,1.24-.17,1.86-.14,1.03-.05,2.07-.31,3.12-.17.7-.35,1.38-.68,2.02-.28.57-.56,1.17-.73,1.78-.14.45-.44.73-.71,1.06-.38.45-.73.97-.94,1.51-.23.56-.54.94-1.13,1.08-.23.05-.38.16-.54.37-.26.35-.63.63-.97.89-.44.35-.91.66-1.36.97-.57.42-1.11.89-1.83,1.06-.21.05-.42.12-.63.21-.47.19-.92.42-1.41.57-.45.16-.56.33-.23.71.38.45.84.84,1.25,1.25.23.21.42.45.64.64.23.21.47.35.71.54.26.21.3.49,0,.64-.49.23-.99.44-1.5.52-.56.1-1.13.07-1.69.12-.7.07-1.39.16-2.07.24-.52.07-1.01.17-1.44.5-.16.12-.38.16-.54.28-.23.17-.57.35-.61.57-.05.4.09.84.14,1.27.23-.07.4-.14.59-.21.61-.24,1.2-.54,1.83-.73.91-.26,1.83-.47,2.75-.64.33-.07.7-.02,1.04.03.5.1.99.26,1.48.4.73-1.43,1.81-2.45,3.53-2.85-.14-.14-.23-.24-.33-.31-.47-.26-.96-.5-1.43-.78-.8-.47-1.58-.96-2.37-1.44-.1-.07-.23-.24-.21-.33.03-.14.19-.24.31-.33.1-.09.26-.12.4-.17.8-.44,1.6-.85,2.4-1.29.44-.24.91-.45,1.31-.75.45-.31.78-.8,1.25-1.04.99-.52,1.58-1.48,2.45-2.12.68-.49.94-1.34,1.53-1.95.61-.61.73-1.51.94-2.33.16-.64.16-1.31.24-1.95.12-.84.31-1.65.35-2.47.07-1.36.02-2.72-.23-4.06-.1-.5-.17-1.01-.24-1.53-.05,0-.12,0-.17-.02-.09.14-.12.31-.23.42-1.04.97-2.11,1.95-3.15,2.92-.17.16-.35.31-.52.44-.45.3-.94.56-1.38.89-.3.21-.71.21-.84-.09-.37-.8-.77-1.6-1.04-2.42-.42-1.2-.64-2.42-.19-3.67.16-.4.09-.87.26-1.25.31-.77.73-1.5,1.1-2.25.05-.1.1-.23.17-.33.63-.8,1.11-1.67,1.46-2.63.09-.19.16-.38.28-.56.4-.54.52-1.13.47-1.79-.42.07-.8.1-1.17.19-1.01.23-2.02.52-3.03.7-.7.12-1.41.1-2.12.1-.16-.02-.35-.21-.45-.37-.02-.02.03-.1.09-.19.07-.07.14-.14.21-.19.38-.24.73-.52.97-.94.19-.35.4-.71.66-1.04.8-1.06,1.57-2.14,1.97-3.45.03-.1.09-.19.14-.3.44-.68.82-1.39,1.06-2.18.1-.31.31-.61.5-.91.3-.45.37-.94.31-1.48-.4.26-.75.49-1.1.73-.63.4-1.24.84-1.88,1.2-.52.3-1.1.5-1.64.78-.3.14-.66.28-.82.54-.28.42-.4.17-.63-.02-.99-.85-1.44-2.04-1.81-3.22-.47-1.51-.16-3.01.26-4.49.03-.12.05-.24.09-.38-.16-.02-.33-.09-.47-.07-.5.1-1.01.19-1.5.35-.75.23-1.53.35-2.07,1.03-.3.37-.77.57-1.11.89-.3.28-.71.49-.66,1.01.02.35-.28.37-.44.26-.75-.47-1.72-.4-2.37-1.08-.21-.21-.47-.38-.7-.59-.84-.78-1.69-1.53-2.12-2.63-.09-.24-.24-.47-.38-.73-.14.16-.21.26-.31.35-.33.3-.7.54-1.01.85-.54.54-1.04,1.1-1.57,1.65-.14.14-.33.23-.44.38-.45.64-.91,1.31-1.29,2-.37.7-.68,1.43-.96,2.18-.42,1.1-.84,2.21-1.15,3.34-.19.64-.17,1.34-.19,2-.02.45-.12.64-.42.5-1.1-.49-2.18-1.03-2.84-2.11-.12-.23-.31-.4-.49-.61-.38.73-.71,1.44-1.13,2.09s-.84,1.27-.99,2.02c-.05.21-.12.4-.21.59-.3.66-.64,1.31-.89,2-.23.68-.35,1.39-.52,2.12-1.62-.42-2.82-1.31-3.93-2.35-.09,1.01-.12,1.97-.16,2.92,0,.17-.09.35-.07.52.14.82.35,1.58.31,2.44-.05,1.1.14,2.19.54,3.2.38.96.61,1.97,1.06,2.91.44.96.7,2,1.01,3.01.1.35.1.73-.19.94-.38-.1-.7-.19-1.01-.28-.35-.1-.71-.17-1.04-.3-1.46-.56-2.96-.96-4.56-.91Zm-3.03,13.87c-.21.05-.4.16-.63.24.03.03.07.1.14.14.99.63,2.14.96,3.15,1.57.03.02.09,0,.12,0,.33.09.71.09.97.26.47.31.96.42,1.46.42,1.04-.02,2.07-.1,3.12-.17.4-.02.8-.1,1.18-.17.14-.02.33-.17.37-.14.21.21.33,0,.49-.05.14-.05.28-.12.44-.12.26-.03.52-.02.8-.02.07.17.17.37.12.49-.05.09-.16.14-.38.14-.05,0-.1.09-.16.14-.66.64-1.27,1.32-1.81,2.07-.63.91-.99,1.91-1.36,2.91-.4,1.06-.19,2.14,0,3.22.05.3.28.38.57.23s.61-.33.94-.42c.64-.17,1.32-.26,1.97-.45,1.04-.31,2.09-.14,3.13-.07.84.07,1.65.23,2.47.35.05,0,.1.02.16.03.52.19,1.06.37,1.57.56.12.05.28.17.3.28.02.24,0,.5-.03.75-.07.44-.23.89-.19,1.32.05.68.19,1.36.33,2.04.05.28.26.24.47.12.44-.3.91-.57,1.34-.87.42-.28.8-.57,1.22-.84.56-.38,1.11-.75,1.71-1.1.26-.16.57-.26.89-.35.7-.21,1.41-.37,2.09-.59.64-.23.73-.64.31-1.18-.52.12-1.06.23-1.55.42-.84.3-1.65.63-2.44,1.03-.37.17-.68.49-.92.82-.47.7-1.04,1.27-1.83,1.62-.21.09-.38-.07-.35-.31.05-.64.12-1.31.16-1.95,0-.17-.05-.33-.1-.49-.21-.54-.47-1.06-.64-1.62s-.59-.92-1.04-1.11c-.97-.42-2.02-.45-3.06-.35-.3.03-.45-.07-.63-.21-.07-.07-.16-.14-.23-.14-.42.1-.85.24-1.27.33-.89.17-1.78.31-2.66.49-.38.07-.61-.03-.63-.38-.03-.3-.02-.57-.02-.87-.02-1.06.42-2.02.78-2.99.31-.85.66-1.69,1.08-2.47l.05-.1c.33-.63.8-1.17,1.2-1.74.09-.14.17-.28.31-.52-.8,0-1.46-.02-2.11.02-.47.02-.94.09-1.39.21-.5.14-.96.4-1.46.54-.37.09-.77.09-1.17.09-.8,0-1.62.03-2.42-.07-.57-.07-1.11-.33-1.65-.52-.14-.05-.24-.21-.37-.33.1-.1.21-.24.33-.33.56-.42,1.15-.8,1.69-1.25.45-.4.84-.91,1.27-1.32.64-.63,1.46-.89,2.31-1.15,1.15-.35,2.31-.61,3.6-.33-.12-.19-.17-.33-.26-.4-.63-.49-1.22-1.01-1.9-1.41-1.38-.84-2.96-1.24-4.28-2.21-1.1-.82-2.21-1.58-2.87-2.82-.45-.84-.94-1.67-.92-2.68.02-.23.03-.38.31-.38.7-.02,1.38-.07,2.05-.09.37,0,.75.05,1.1.12.45.1.87.26,1.31.4.85.24,1.71.5,2.59.77.03-.1.12-.23.1-.31-.33-.96-.66-1.93-1.03-2.89-.09-.24-.28-.44-.4-.66-.17-.35-.31-.71-.45-1.06-.26-.68-.54-1.34-.73-2.04-.17-.7-.24-1.43-.35-2.14-.16-1.2-.3-2.4-.42-3.6-.03-.37.02-.73.05-1.1.09-.75.17-1.5.3-2.23.03-.24.17-.45.26-.68.17.14.4.23.54.4.56.75,1.04,1.55,1.98,1.91.45.17.84.5,1.34.82.63-3.53,2.23-6.49,4.25-9.42.31.52.57.96.85,1.41.56.89,1.32,1.53,2.35,1.88.05-.14.14-.26.14-.38-.02-.97.21-1.9.5-2.82.35-1.13.68-2.26,1.25-3.31.56-.97,1.08-1.97,1.65-2.92.23-.37.59-.64.89-.96.71-.73,1.44-1.46,2.18-2.18.28-.28.59-.52.84-.82.33-.4.57-.42.85.03.52.84,1.08,1.65,1.55,2.51.68,1.24,1.9,1.78,2.98,2.44.33-.3.63-.57.94-.85.09-.09.23-.16.33-.26.44-.38.8-.89,1.31-1.17,1.29-.73,2.72-1.04,4.19-1.01.16,0,.38.26.4.42.05.26-.02.54-.09.78-.33,1.08-.54,2.16-.49,3.31.03,1.17.54,2.12,1.1,3.1.07.09.28.19.38.16.45-.14.89-.33,1.32-.5.19-.09.37-.17.54-.28.4-.19.8-.38,1.17-.61.57-.37,1.06-.87,1.69-1.1.59-.23.96-.64,1.39-1.04.09-.09.23-.14.35-.21.07.19.19.37.21.56.03.19-.05.38-.03.57.09.63-.07,1.2-.31,1.78-.14.31-.33.59-.47.89-.28.63-.5,1.27-.8,1.88-.44.89-.87,1.76-1.34,2.61-.5.87-1.06,1.72-1.62,2.56-.23.35-.5.68-.75,1.01.02.05.05.1.09.16,2.07-.33,4.11-.78,6.09-1.62.07.16.21.33.17.5-.09.66-.16,1.34-.38,1.95-.37.92-.84,1.79-1.32,2.68-.28.52-.7.97-.96,1.5-.45.97-1.1,1.88-1.31,2.96-.09.45-.24.92-.24,1.39.02,1.41.47,2.72,1.2,3.92.16.26.57.3.82.1.14-.12.28-.23.42-.35.5-.4,1.01-.82,1.51-1.24.35-.3.64-.64,1.01-.92.73-.56,1.24-1.27,1.58-2.11.07-.19.16-.38.3-.54.31-.38.44-.37.63.09.07.17.12.37.16.54.21.87.45,1.72.59,2.59.1.61.09,1.24.14,1.85.12,1.5.1,2.98-.24,4.44-.12.57-.17,1.2-.31,1.78-.17.71-.31,1.44-.63,2.09-.37.73-.84,1.41-1.36,2.04-.56.7-1.2,1.32-1.86,1.91-.64.57-1.38,1.08-2.05,1.62-.42.31-.8.66-1.22.97-.3.21-.57.49-.91.54-.82.14-1.5.54-2.14,1.03-.21.17-.14.33.03.44l2.66,1.46c.47.24.92.5,1.38.77.26.14.23.37.17.57-.02.09-.23.14-.35.17-.38.05-.78.05-1.15.16-.73.24-1.36.66-1.85,1.29-.3.37-.4.75-.3,1.2.03.12.03.24.03.37,0,.33-.3.56-.61.47-.37-.1-.73-.26-1.11-.33-.66-.14-1.34-.3-2.04-.31-.5-.03-1.03.14-1.55.21-.91.12-1.69.54-2.49.91-.8.35-.97.8-.57,1.65.26-.1.5-.24.78-.31.63-.17,1.25-.37,1.9-.42.52-.03,1.06.07,1.57.17.35.07.66.26,1.01.35.38.1.78.14,1.15.26,1.15.37,2.25.84,3.25,1.5.57.37,1.17.68,1.6,1.22.17.24.31.52.54.91.03-.24.09-.38.07-.5-.09-.66-.17-1.32-.24-1.98-.12-.97-.35-1.91-.96-2.72-.26-.31-.59-.63-.94-.82-.23-.1-.4-.19-.38-.4,0-.14.17-.37.31-.4.49-.14.99-.26,1.5-.31.87-.09,1.76-.05,2.61-.19.84-.14,1.6.03,2.52.24-.23-.4-.44-.7-.59-1.03-.56-1.1-1.43-1.93-2.44-2.59-.87-.57-1.83-1.06-2.91-1.15-.14,0-.33-.24-.37-.4-.03-.1.14-.33.26-.4.63-.31,1.29-.57,1.9-.89,1.01-.5,2.02-1.01,2.98-1.58.64-.4,1.27-.87,1.79-1.41.52-.52.91-1.18,1.32-1.81.16-.24.35-.5.42-.8.37-1.36.68-2.73,1.06-4.09.4-1.5.71-3.01.56-4.56-.09-.91-.28-1.81-.45-2.72-.1-.54-.26-1.06-.38-1.6-.14-.59-.21-1.22-.38-1.79-.31-1.03-.7-2.02-.64-3.12,0-.14-.09-.28-.12-.42-.45.56-.84,1.06-1.27,1.53-.5.54-1.06,1.04-1.64,1.53-.3.24-.64.42-.99.61-.19.1-.4.16-.59.26-.35.19-.7.38-1.01.61-.24.19-.44.42-.66.64-.12.1-.24.21-.35.31-.07-.19-.21-.38-.19-.56.07-.4.23-.78.33-1.18.1-.44.1-.91.3-1.31.54-1.08,1.15-2.12,1.74-3.19.17-.31.35-.63.54-.94.24-.38.56-.75.77-1.17.52-1.01,1.01-2.05,1.5-3.1.28-.61.54-1.22.44-1.97-.26.12-.49.28-.73.35-.52.17-1.06.33-1.6.45-.75.19-1.51.37-2.28.49-.66.1-1.32.14-2,.16-.12.02-.3-.1-.4-.23-.05-.05-.05-.24,0-.3.45-.44.77-.94,1.08-1.5.35-.64.85-1.24,1.25-1.88.35-.57.68-1.17.96-1.78.14-.31.19-.68.23-1.01.05-.73.12-1.46.12-2.19-.02-.61-.1-1.22-.16-1.83-.03-.35-.05-.71-.1-1.04-.02-.19-.1-.37-.17-.63-.16.28-.24.5-.38.64-.45.45-.94.85-1.41,1.27-.47.45-.96.92-1.44,1.36-.19.17-.4.35-.63.44-.87.33-1.74.63-2.72.97-.07-.23-.14-.47-.21-.71-.03-.14-.02-.3-.07-.44-.24-.94-.33-1.86-.19-2.82.1-.8.5-1.46.85-2.14.12-.24.28-.47.45-.68.19-.21.44-.38.71-.61-.19-.09-.3-.16-.44-.19-.31-.07-.64-.16-.96-.19-.7-.09-1.39-.19-2.09-.21-.44-.02-.87.1-1.32.14-.94.09-1.9.03-2.73.71-.8.66-1.64,1.29-2.04,2.31-.12.31-.28.24-.45.05-.21-.21-.42-.44-.64-.64-.45-.37-.92-.71-1.17-1.29-.21-.52-.49-1.04-.82-1.5-.57-.78-1.03-1.64-1.34-2.56-.07-.17-.19-.35-.31-.54-.33.3-.63.54-.91.8-.85.78-1.72,1.53-2.52,2.37-.7.71-1.29,1.55-1.97,2.28s-1.17,1.57-1.62,2.42c-.49.89-.84,1.86-1.08,2.84-.17.66-.4,1.31-.21,2.02.09.26,0,.59-.09.87-.07.33-.3.35-.54.12-.12-.1-.24-.23-.35-.35-.49-.63-1.17-1.15-1.27-2.04l-.1-.99c-.03-.23-.09-.44-.14-.73-.12.19-.17.31-.26.4-.68.71-1.34,1.41-1.93,2.23-.49.68-.89,1.38-1.2,2.16-.45,1.15-.97,2.26-1.43,3.41-.24.64-.47,1.32-.24,2.04.05.19-.02.4-.02.61-.03.02-.09.02-.12.03-.12-.1-.24-.19-.37-.3-.31-.3-.63-.61-.96-.91-.1-.1-.26-.17-.35-.3-.75-.96-1.36-1.98-1.76-3.13-.03-.1-.14-.19-.24-.31-.09.24-.14.38-.19.54-.31.97-.7,1.95-.94,2.94-.23.87-.35,1.79-.47,2.7-.07.42-.09.87-.09,1.29,0,.52.05,1.04.07,1.57.02.56-.05,1.15.03,1.71.16,1.11.52,2.19,1.01,3.24.47.97.96,1.95,1.48,2.92.26.49.57.94.87,1.43.09.14.16.28.21.44.03.14.07.33,0,.4-.09.09-.3.12-.42.09-.24-.09-.47-.23-.7-.33-.54-.28-1.03-.64-1.58-.8-.59-.17-1.22-.19-1.83-.19-.64.02-1.29.1-1.91.23-.4.09-.78.3-1.17.47-.03.02-.05.14-.05.21-.12,1.01.31,1.91.66,2.82.14.33.4.63.59.94.28.49.56.97.82,1.46.54,1.04,1.69,1.2,2.54,1.76.4.26.89.37,1.31.57.57.31,1.13.63,1.67.99.33.24.73.5.71,1.01,0,.16,0,.21-.21.3-.3.1-.47-.05-.71-.05-.7,0-1.41-.02-2.09.26-.78.31-1.44.78-1.93,1.48-.38.52-.77,1.06-1.24,1.5-.85.77-1.93,1.13-3.01,1.44Zm-4.21.47c-.3-.8-.49-1.62-.7-2.44-.1-.35.12-.59.47-.49.78.24,1.57-.02,2.35-.03.24,0,.49-.14.77-.23-.05.49-.35.66-.71.47-.07-.03-.17-.07-.24-.05-.64.12-1.31.24-1.95.38-.09.02-.17.19-.17.28.1,1.24.37,2.42,1.15,3.45.92,1.24,2.12,2.16,3.32,3.06.21.16.35.4.56.5.42.19.85.4,1.31.47.8.14,1.64.19,2.45.26.52.05,1.06.07,1.65.09.31.4-.24.66-.31,1.04-.12.61-.37,1.2-.42,1.79-.09.85-.05,1.71-.02,2.56.05.92.1,1.83.28,2.73.1.59.42,1.17.64,1.74.03.1.07.21.09.31.05.4.12.45.47.26.23-.12.47-.28.64-.47.73-.8,1.67-1.32,2.56-1.91.73-.49,1.51-.73,2.3-.99.33-.1.63-.3.96-.4,1.04-.33,2.09-.63,3.19-.63.21,0,.42-.05.61-.14.31-.16.42,0,.42.26-.03.35-.14.68-.16,1.03-.03.38-.07.78,0,1.15.23,1.01.38,2.04,1.04,2.91.16.19.21.45.33.71,1.32-.91,2.44-2,3.97-2.49,1.51-.47,3.05-.66,4.72-.73.05-.85.1-1.72.16-2.63-.14.03-.21.03-.28.05-.49.16-.96.35-1.46.44-1.01.17-1.9.59-2.73,1.13-.92.59-1.81,1.24-2.72,1.86-.28.19-.56.4-.84.56-.07.05-.3-.05-.31-.12-.28-.94-.87-1.81-.63-2.87.1-.47.09-.97.09-1.46,0-.12-.12-.3-.23-.35-.96-.52-2-.7-3.08-.75-1.01-.03-2.04-.05-3.06.02-.68.05-1.36.28-2.04.4-.8.16-1.51.54-2.23.94-.17.1-.33.24-.5.35-.3.16-.47.07-.49-.26-.07-.59-.17-1.17-.16-1.76.02-.63.09-1.29.24-1.9.38-1.48.82-2.96,1.69-4.25.31-.47.66-.91.97-1.36.09-.14.1-.31.14-.44-.56.12-1.06.28-1.58.33-.94.1-1.9.17-2.85.21-.28.02-.59-.09-.87-.21-1.1-.44-2.19-.92-3.27-1.38-.47-.19-.97-.35-1.41-.59-.75-.42-1.39-.99-1.91-1.67.4-.44.87-.21,1.24-.14.89.16,1.57-.24,2.26-.61.84-.44,1.32-1.22,1.76-1.98.42-.75,1.1-1.11,1.81-1.43.92-.38,1.9-.64,2.94-.61-.33-.54-.85-.73-1.34-.97-.82-.42-1.65-.89-2.49-1.29-1.15-.56-1.72-1.6-2.35-2.63-.64-1.04-1.2-2.12-1.36-3.36-.07-.56,0-1.15,0-1.76.37-.09.8-.17,1.24-.3.57-.17,1.15-.42,1.74-.52.77-.1,1.55-.14,2.31.17.42.19.84.33,1.25.49.03-.02.07-.05.1-.07-.05-.17-.1-.33-.17-.49-.64-1.51-1.38-3.01-1.95-4.58-.3-.77-.38-1.65-.44-2.49-.07-1.06-.07-2.12,0-3.19.05-1.11.16-2.23.37-3.32.23-1.11.57-2.23,1.06-3.27.35-.77.7-1.51,1.06-2.28q.35.21.38.66v.03c.19.59.4,1.17.57,1.76.07.19.03.4.09.57.28.82.7,1.55,1.32,2.23.14-.38.31-.71.38-1.08.21-1.04.77-1.93,1.31-2.84.26-.45.49-.91.75-1.34.47-.75.91-1.51,1.46-2.19.61-.77,1.32-1.44,2-2.16.24-.24.49-.45.71-.66.45.23.4.64.4.97,0,.8.09,1.6.37,2.35.1.31.35.59.63.84.03-.49,0-.97.14-1.44.26-.96.56-1.93.94-2.85.31-.8.73-1.57,1.18-2.3.35-.56.82-1.06,1.25-1.57.57-.66,1.15-1.32,1.78-1.97.73-.77,1.46-1.53,2.26-2.23.54-.45,1.17-.82,1.78-1.18.37-.23.57-.1.73.31.49,1.25.96,2.49,1.46,3.72.21.52.45,1.06.77,1.53.23.35.59.59.91.85.05.03.24-.02.31-.09.59-.61,1.11-1.29,1.78-1.79.54-.42,1.22-.64,1.93-.68.82-.03,1.64-.17,2.47-.19.57-.02,1.15.05,1.72.14.64.1,1.27.28,1.91.4.33.05.52.23.64.5.02.05.05.16.03.19-.14.24-.26.52-.45.7-.47.47-.84.97-1.08,1.6-.21.52-.28,1.08-.45,1.58-.28.82.02,1.53.12,2.28.03.23.16.33.42.24.99-.3,1.9-.7,2.65-1.44.7-.7,1.44-1.38,2.16-2.07.5-.49.78-1.11,1.08-1.72.09-.21.28-.56.38-.56.33.03.33.37.38.66.09.47.26.94.37,1.43.12.57.26,1.17.28,1.76.03.75.02,1.5-.07,2.25-.1.87-.26,1.74-.44,2.61-.03.23-.17.44-.3.63-.37.63-.66,1.29-1.1,1.85-.59.75-.97,1.67-1.86,2.18-.07.03-.14.17-.1.24.03.09.16.21.24.21.3,0,.63.02.91-.09.91-.3,1.83-.61,2.7-1.01.84-.38,1.69-.77,2.3-1.5.1-.14.42-.3.47-.24.16.14.26.35.3.54.03.28-.03.56-.03.82-.02.24,0,.49,0,.73,0,.23,0,.45-.02.68s-.02.45-.09.66c-.05.21-.17.4-.26.59-.16.33-.35.63-.49.96-.38.78-.71,1.58-1.11,2.35-.14.26-.28.49-.44.71-.16.24-.33.47-.47.71-.44.75-.87,1.5-1.29,2.25-.17.3-.28.63-.47.91-.33.47-.52.99-.59,1.55,0,.09,0,.23.05.24.07.03.19.02.26-.03.68-.42,1.38-.82,2.04-1.29.37-.24.63-.66.99-.92.78-.56,1.24-1.38,1.81-2.11.05-.09.09-.19.16-.28.05-.09.14-.24.19-.24.1.03.23.12.28.21.07.12.1.26.1.4-.05,1.58.4,3.08.78,4.6.38,1.55.8,3.1,1.06,4.65.17.99.1,2,0,3.01-.14,1.29-.52,2.51-.82,3.74-.21.91-.5,1.78-.71,2.68-.28,1.13-.94,2.07-1.67,2.89-.8.89-1.72,1.71-2.91,2.14-.54.19-.99.56-1.48.84-.14.09-.31.1-.47.17-.31.14-.63.3-.94.45,0,.07.02.12.02.17.28.09.57.12.84.23.37.16.73.33,1.04.56.56.42,1.1.89,1.62,1.36.63.59,1.17,1.25,1.51,2.05.07.16.17.3.26.44.21.44.45.85.63,1.29.07.16-.02.37-.03.63-.75-.56-1.55-.7-2.31-.78-.73-.09-1.46-.07-2.21-.07-.38.02-.77.12-1.15.16-.14.02-.3,0-.44.02-.17.03-.33.1-.49.14.07.14.09.33.21.42.57.5.92,1.15,1.13,1.85.16.52.17,1.1.24,1.65.05.47.16.94.16,1.41-.02.54-.09,1.08-.19,1.6-.12.5-.33.99-.54,1.58-.24-.19-.45-.3-.52-.45-.37-.89-1.2-1.36-1.83-1.98-.45-.44-1.01-.75-1.55-1.06-1.1-.64-2.26-1.15-3.48-1.57-.57-.19-1.11-.45-1.72-.38-.56.07-1.11.21-1.67.31-.26.03-.54.03-.78.12-.12.03-.28.24-.26.37.05.57.16,1.15.26,1.74.45-.09.89-.17,1.31-.28.66-.16,1.29-.03,1.88.21.63.24,1.24.57,1.85.85.66.3,1.36.54,1.98.89.94.5,1.9,1.01,2.65,1.81.68.71,1.36,1.41,2.04,2.12.44-.12.52-.54.66-.87.44-1.01.89-2,1.25-3.05.26-.73.47-1.51.54-2.3.05-.7-.05-1.43-.17-2.12-.07-.35.03-.45.33-.5,1.11-.19,2.21-.38,3.34-.24.44.07.87.23,1.31.35.63.17,1.24.31,1.86.5.35.1.7.26,1.11.44-.1-.35-.17-.73-.31-1.1-.33-.92-.68-1.85-1.08-2.73-.21-.5-.52-.97-.85-1.41-.7-.84-1.43-1.62-2.31-2.25-.59-.42-1.13-.96-1.9-1.08-.28-.05-.3-.45-.02-.66.31-.24.68-.42,1.01-.66.44-.31.89-.61,1.29-.99.75-.71,1.62-1.32,2.11-2.26.64-1.27,1.34-2.52,1.83-3.85.42-1.1.54-2.3.84-3.43.21-.87.38-1.72.42-2.63.07-1.04-.31-2-.49-2.99-.23-1.22-.45-2.44-.82-3.6-.42-1.31-.35-2.65-.59-3.95-.3-1.6-.03-3.15.17-4.7.03-.14.02-.3.02-.5-.45.23-.87.44-1.27.64-.59.31-1.18.61-1.76.92-.26.16-.5.35-.73.56-.38.31-.75.63-1.11.96-.05.05-.09.14-.16.19-.1.1-.31.3-.37.28-.19-.14-.31-.35-.14-.61.02-.02.02-.03.03-.05.23-.37.49-.73.71-1.1.45-.78.97-1.51,1.34-2.33.35-.82.57-1.69.77-2.54.26-1.04.49-2.11.31-3.22-.1-.56-.12-1.13-.19-1.71-.02-.1-.07-.21-.14-.37-.23.21-.42.4-.63.56-.59.49-1.22.94-1.79,1.43-.26.24-.44.57-.66.84-.12.12-.3.19-.45.28-.07-.19-.23-.44-.17-.57.61-1.43.85-2.94,1.18-4.44.17-.78.05-1.62.03-2.42-.03-.73-.07-1.46-.19-2.18-.1-.71-.3-1.41-.5-2.09-.1-.35-.37-.63-.52-.94-.35-.73-.68-1.46-1.01-2.19-.07-.12-.16-.23-.3-.44-.28.78-.52,1.51-.8,2.21-.14.33-.38.63-.57.96-.21.37-.4.77-.63,1.11-.42.63-.85,1.22-1.32,1.79-.1.14-.37.21-.56.21-.3-.03-.24-.31-.23-.5.07-.5.17-.99.23-1.5.07-.92.17-1.86.17-2.8,0-.35-.28-.7-.33-1.04-.1-.59-.38-.85-.97-.91-.8-.05-1.6-.26-2.4-.3-.8-.05-1.62.02-2.4.26-.49.16-1.03.16-1.53.23-.8.12-1.55.37-2.19.89-.24.19-.52.35-.78.52-.23.16-.45.31-.64.49-.3.24-.66.12-.78-.26-.23-.71-.47-1.41-.68-2.12-.33-1.22-.96-2.3-1.55-3.38-.03-.05-.07-.09-.1-.14-.5.23-.97.45-1.46.66-.85.38-1.6.94-2.33,1.51-.56.45-1.13.92-1.65,1.43-.49.49-.94,1.03-1.39,1.57-.31.35-.63.71-.94,1.08-.68.78-1.1,1.72-1.46,2.7-.12.33-.26.59-.66.5-.35-.09-.5-.28-.54-.64-.02-.4-.17-.78-.23-1.18-.1-.68-.17-1.38-.26-2.12-.12.17-.23.31-.35.45-.17.23-.35.49-.56.7-.52.49-.97,1.03-1.34,1.65-.42.68-.91,1.32-1.36,1.98-.63.91-1.32,1.78-1.86,2.73-.42.75-.66,1.6-1.01,2.4-.31.77-.52,1.53-.5,2.35,0,.12-.02.28-.1.35-.26.3-.23.64-.24.99,0,.12-.09.33-.16.33-.14.02-.35-.03-.42-.14-.37-.61-.73-1.2-1.03-1.85-.14-.26-.14-.59-.17-.89-.05-.63-.1-1.25-.17-1.88,0-.09-.07-.16-.1-.19-.45.47-1.55,1.69-2,2.12-.09.09-.24.07-.38.1-.02-.03-.03-.09-.07-.14.54-.61,1.72-2,2.25-2.61.03-.05.03-.17.09-.23.09-.1.24-.3.3-.28.14.05.33.19.35.33.09.57.19,1.17.17,1.74-.03,1.11.19,2.12.84,3.1.03-.19.07-.38.12-.57.24-.91.47-1.81.77-2.7.24-.78.52-1.57.87-2.31.26-.54.64-1.03.99-1.51.52-.78,1.08-1.55,1.6-2.33.44-.64.84-1.31,1.31-1.93.38-.49.85-.91,1.25-1.38.24-.28.38-.63.59-.92.35-.47.59-.49.87-.05.03.05.07.12.07.19-.07,1.08-.02,2.16.26,3.22.03.12.12.23.17.35.09-.09.21-.14.26-.24.26-.5.47-1.04.75-1.53.3-.49.61-.97.94-1.41.37-.47.75-.91,1.15-1.32.38-.38.78-.75,1.18-1.11.23-.19.45-.38.66-.57.5-.47.97-1.01,1.53-1.41.59-.44,1.29-.71,1.95-1.08.44-.24.87-.47,1.29-.75.24-.16.63.03.73.37.14.45.24.92.49,1.32.64,1.03,1.06,2.16,1.41,3.31.07.21.12.42.19.63.1.28.28.3.52.14.66-.42,1.29-.85,1.98-1.2.42-.21.91-.3,1.38-.38.8-.16,1.6-.3,2.4-.37.73-.07,1.46-.1,2.19-.07.75.05,1.5.19,2.23.35.63.12,1.18.33,1.18,1.2,0,.47.3.94.35,1.43.07.71.05,1.43.02,2.14-.02.28-.19.56-.26.84-.05.21-.05.44-.07.64.03.02.07.02.1.03.64-1.01,1.38-1.98,1.91-3.05.54-1.08.91-2.25,1.38-3.46.16.21.31.37.4.54.35.77.66,1.55,1.03,2.3.28.59.66,1.13.89,1.74.4,1.13.71,2.3.77,3.52.03.56.17,1.11.16,1.67-.03.75-.12,1.51-.24,2.26-.14.84-.37,1.65-.57,2.52.16,0,.24.03.28,0,.56-.42,1.13-.85,1.67-1.31.26-.21.61-.37.71-.77.02-.05.31-.1.35-.07.12.16.24.35.28.56.14.91.3,1.81.33,2.73.03.71-.05,1.46-.19,2.16-.24,1.15-.54,2.3-.92,3.39-.19.57-.64,1.06-.96,1.6-.07.12-.09.28-.14.42.12-.07.26-.14.37-.23.16-.12.3-.28.45-.37.8-.44,1.6-.87,2.4-1.29.47-.23.94-.44,1.27-.85.05-.05.24-.07.24-.05.07.21.21.44.17.61-.09.4-.31.78-.4,1.18-.14.75-.23,1.51-.31,2.28-.05.35-.1.7-.09,1.04.03.52.1,1.04.17,1.57.02.28.07.54.07.8,0,.96.17,1.86.47,2.78.24.77.37,1.58.56,2.38.19.92.35,1.88.61,2.8.24.94.17,1.9.03,2.82-.16.97-.47,1.91-.7,2.87-.23.89-.4,1.78-.71,2.65-.28.78-.66,1.53-1.08,2.26-.49.87-1.04,1.72-1.62,2.54-.19.28-.54.45-.82.68-.63.49-1.24.97-1.86,1.44-.3.23-.3.33,0,.56.49.37.96.77,1.46,1.1,1.13.75,1.85,1.88,2.68,2.91.21.23.28.56.4.85.28.7.61,1.38.77,2.12.16.7.5,1.34.75,2.02.05.14.09.33.03.47-.05.23-.19.31-.42.1-.49-.45-1.11-.64-1.76-.78-.66-.14-1.31-.37-1.95-.57-.89-.33-1.79-.47-2.73-.19-.23.07-.47.05-.7.1-.52.1-.66.28-.56.78.21,1.03.02,2.02-.26,2.98-.38,1.25-.82,2.49-1.29,3.72-.16.44-.45.84-.7,1.25-.12.23-.23.47-.31.64-.63-.7-1.25-1.32-1.81-2-.59-.71-1.31-1.29-2.07-1.78-.66-.42-1.39-.73-2.09-1.08-.96-.47-1.91-.94-2.91-1.36-.82-.35-1.67-.3-2.51-.05-.44.12-.52.5-.42,1.17.17,1.08.12,2.16,0,3.24-.03.35-.07.7-.09,1.04-.07.85-.14,1.69-.17,2.52-.02,1.04.03,2.09-.02,3.12-.03.75-.19,1.48-.3,2.21,0,.09-.02.19-.03.28-.07.97-.16,1.95-.24,2.92-.05.66-.09,1.32-.17,1.97-.12.87-.3,1.72-.47,2.68.31.02.66.07,1.01.05.73-.03,1.44-.16,2.18-.16.57,0,1.15.16,1.74.21.23.02.45-.05.7-.05.5-.02.99.02,1.5-.02.38-.03.47-.21.4-.59-.05-.28-.05-.57-.09-.87-.07-.68-.03-1.38-.37-2.04-.14-.3-.1-.68-.12-1.03-.1-.99-.23-2-.24-2.99-.02-.4.1-.84.28-1.2.26-.54.82-.42,1.24-.33.31.05.7.35.8.63.24.73.38,1.51.54,2.28.05.23.09.45.12.73.44-.03.89-.05,1.32-.1.68-.1,1.34-.23,2.02-.33.05-.02.16,0,.19-.05.42-.35.84-.19,1.22.05.14.09.3.28.3.44.03.47-.02.96-.03,1.34-.59.16-1.06.3-1.53.42-.37.09-.71.19-1.06.26-.44.07-.91.09-1.32.19-.16.05-.35.31-.35.45.05.71.17,1.41.26,2.05.96-.02,1.88-.05,2.78-.05.37,0,.73.02,1.06.09.17.03.42.19.44.33.09.52.1,1.08-.28,1.51-.12.16-.42.28-.57.24-.5-.12-.87.23-1.29.31-.75.17-1.48.38-2.23.56-.33.07-.68.09-1.01.09-1.03,0-2,.33-2.98.59-1.04.28-2.07.57-3.12.85-.85.24-1.72.49-2.58.71-.35.09-.71.1-1.08.14-.45.05-.64.23-.66.68,0,.12-.02.24-.05.37-.21.97-.33,1.93-.21,2.92.05.45-.05.92-.1,1.38-.02.23,0,.35.26.38.44.05.85.17,1.27.23.84.07,1.67.1,2.51.17.57.05,1.15.14,1.71.16.49.02.96-.1,1.43-.05.4.03.8.19,1.18.35.49.23.97.49,1.44.78.37.23.7.54,1.03.8.05.03.07.12.1.14.38.1.57.31.44.73-.17.56-.56.91-.99.92-.26,0-.5.05-.75.07-.63.03-1.15-.28-1.69-.54-.35-.16-.75-.26-1.13-.37-.45-.12-.92-.21-1.38-.3-.24-.03-.49,0-.75-.02-.26,0-.52-.07-.77-.02-.56.1-1.08.28-1.62.4-.23.05-.45.07-.66.07-.23.02-.47-.03-.68.02-.68.16-.71-.02-.75.77-.02.21-.07.44-.12.64-.1.47-.59.61-1.1.61-.44.02-.7-.28-.82-.84-.07-.28-.09-.57-.19-.84-.05-.17-.23-.44-.3-.42-.23.05-.49.17-.61.35-.14.19-.14.49-.19.75-.1.63-.45,1.03-1.06,1.17-.3.07-.73-.24-.85-.71-.1-.4-.1-.84-.1-1.25-.03-.52-.02-.5-.54-.4-.5.09-1.03.16-1.55.24-.68.1-1.36.26-2.05.33-.57.09-.73.21-.8.8-.05.4-.24.73-.68.84-.26.07-.44.35-.8.19-.57-.24-.57-.68-.56-1.17,0-.4-.19-.52-.56-.4-.17.03-.37.07-.54.1-.66.1-.8-.1-.68-.75.1-.59.52-.84.94-1.1,1.24-.8,2.58-1.34,3.99-1.74.97-.26,1.93-.56,2.89-.85.68-.21.99-.75,1.08-1.39.1-.66.12-1.34.19-2,.1-1.01.23-2.04.33-3.05.03-.5.03-1.01.1-1.51.1-.94.28-1.88.4-2.84.03-.3-.02-.59.02-.89.1-1.11.23-2.23.37-3.32.03-.3.05-.42-.3-.44-.56-.02-1.11-.12-1.69-.14-.1,0-.31.19-.33.33-.09.52-.14,1.04-.17,1.57-.03.47,0,.94-.02,1.41-.02.54-.24.99-.68,1.31-.16.1-.42.09-.64.09-.66.02-1.03-.35-1.11-.99-.12-.87-.19-1.74-.26-2.61-.03-.47.02-.94-.02-1.41-.03-.37-.26-.54-.63-.59-.57-.1-1.15-.26-1.72-.35-.64-.12-1.31-.19-1.95-.31-.26-.03-.5-.14-.77-.19-1.04-.21-1.83-.68-2.19-1.76-.19-.54.31-1.79.77-2.04.1-.07.24-.1.37-.1.75-.02,1.51.02,2.28-.02.57-.02,1.15-.07,1.71-.19.12-.02.24-.31.26-.49.07-.47-.02-.97.12-1.41.1-.37.31-.66.59-.87.49-.35,1.13-.44,1.71-.14.3.16.56.59.63.92.1.64.03,1.29.05,1.93.02.26.05.52.05.78,0,.17-.02.33-.03.5,0,.03-.02.09-.02.12.57,0,1.17.02,1.74,0,.68-.03,1.34-.07,2-.14.16-.02.4-.16.44-.28.26-.94.57-1.88.47-2.87-.03-.47-.1-.96-.07-1.43.09-1.2.21-2.38.31-3.59.03-.21.05-.44,0-.64-.03-.17-.05-.4-.4-.33-.4.07-.82.07-1.22.1-.68.05-1.38.03-2,.21-.82.24-1.67.45-2.35,1.04-.31.26-.73.4-1.04.64-.44.33-.82.7-1.2,1.06-.14.14-.24.21-.33.21-.1,0-.19-.09-.28-.26-.37-.75-.78-1.48-1.03-2.28-.28-.91-.61-1.83-.5-2.8.03-.28.03-.56.05-.85-.84.12-1.55.21-2.28.33-.37.07-.73.23-1.1.33-.61.17-1.2.35-1.79.52-.19.05-.37.19-.56.24-.42.1-.75.35-1.1.54-.4.21-.8.4-1.17.66-.5.37-.94.77-1.29,1.31-.28.45-.8.73-1.25,1.13-.1-.16-.19-.28-.24-.4-.23-.64-.47-1.27-.66-1.91-.16-.57-.26-1.17-.33-1.76-.07-.63-.07-1.25-.1-1.9-.03-.7-.17-1.41-.14-2.12s.19-1.43.35-2.12c.16-.71.03-.85-.71-.91-.87-.05-1.78-.07-2.61-.26-.89-.21-1.64-.8-2.31-1.39-1.04-.91-2.05-1.85-2.99-2.85-.4-.4-.63-1.01-.82-1.55Z"/>
</svg>