<?xml version="1.0" encoding="UTF-8"?>
<svg xmlns="http://www.w3.org/2000/svg" viewBox="0 0 136.06 136.06">
  <defs>
    <style>
      .cls-1 {
        fill: #fff;
      }

      .cls-2 {
        fill: #0c3454;
      }

      .cls-3 {
        fill: #e0e1e3;
      }
    </style>
  </defs>
  <g id="Layer_3" data-name="Layer 3">
    <rect class="cls-3" width="136.06" height="136.06"/>
  </g>
  <g id="B_W" data-name="B&amp;amp;W">
    <g>
      <path class="cls-1" d="m74.99,52.43c0,.23-.42.5-.73.5-.46.02-.19-.41-.37-.57.19-.17.37-.4.59-.5.21-.09.51.27.51.57Z"/>
      <path class="cls-1" d="m72.73,57.77c.33,0,.55.23.55.58s-.36.87-.62.87c-.35.02-.56-.23-.56-.63-.02-.38.33-.8.63-.82Z"/>
      <path class="cls-1" d="m76.69,57.88c.32,0,.65.01.96.07.3.07.38.26.24.57-.19.42-.54.63-.95.7-.66.12-1.34.24-2,.33-.32.03-.65.03-.94-.04-.13,0-.27-.24-.28-.38-.04-.42,0-.83,0-1.39.36.02.8.05,1.23.07.59.02,1.17.03,1.74.07Z"/>
      <path class="cls-1" d="m73.86,53.6c.41-.13.73-.21,1.04-.34.17-.06.3-.1.33.13.16,1.09.3,2.19.44,3.3.01.23-.06.46-.07.72-.47-.09-.89-.18-1.41-.28-.11-1.18-.23-2.4-.33-3.53Z"/>
      <path class="cls-1" d="m78.87,54.81c-.02.14-.09.37-.17.4-.44.16-.89.25-1.38.39-.05-.52.35-.93.82-.96.15-.02.31-.03.47,0,.1.02.28.12.26.17Z"/>
      <path class="cls-1" d="m84.47,64.94c.28,0,.49.28.44.51-.07.24-.3.43-.47.66-.12-.17-.24-.35-.38-.52.05-.02.08-.05.12-.07-.05-.28-.02-.56.29-.58Z"/>
      <path class="cls-1" d="m73.21,45.01s.07.09.05.09c-.29.38.14.51.28.78-.24.28-.76.35-1.18.16-.33-.14-.38-.42-.35-.73.02-.37.31-.45.58-.47.2-.02.41.1.62.17Z"/>
      <path class="cls-1" d="m78.16,37.65c.29,0,.54.25.54.52,0,.18-.27.33-.49.6-.21-.46-.87-.32-.7-.86.05-.15.42-.26.65-.26Z"/>
      <path class="cls-1" d="m72.74,30.85c.16,0,.32.07.59.15-.22.28-.38.51-.59.72-.05.05-.29.01-.31-.04-.11-.22-.16-.47-.24-.71.19-.05.36-.12.55-.12Z"/>
      <path class="cls-1" d="m66.69,29.3c.31.01.55.35.55.71,0,.24-.47.58-.85.56-.23-.09-.58-.04-.59-.47,0-.42.43-.82.89-.8Z"/>
      <path class="cls-1" d="m61.39,38.21c-.29.24-.48.49-.68.49-.13,0-.43-.33-.4-.47.04-.21.04-.67.42-.58.21.04.39.32.66.56Z"/>
      <path class="cls-1" d="m55.6,42.49c.15-.09.48.16.73.26.03.02.03.09.03.11,0,.27-.64.88-.87.8-.12-.07-.29-.32-.28-.44.07-.28.18-.64.39-.73Z"/>
      <path class="cls-1" d="m58.45,50.92c.33.03.52.19.47.5-.02.5-.33.92-.66.92-.4-.02-.8-.35-.78-.66.01-.4.5-.78.97-.76Z"/>
      <path class="cls-1" d="m56.92,51.49c.19.43.4.87.59,1.25-.92.3-1.88.61-2.82.89-.28.09-.59.07-.89.1-.08.02-.17.02-.22.06-.3.21-.58,0-.66-.16-.11-.23-.11-.59.01-.78.42-.65,1.1-.84,1.83-.94.63-.11,1.24-.32,1.85-.46.14-.03.26-.03.4-.05-.04.04-.07.05-.09.09Z"/>
      <path class="cls-1" d="m51.7,48.37c0,.35-.4.67-.84.65-.38,0-.68-.37-.69-.86-.02-.34.28-.59.69-.59.61,0,.84.23.84.8Z"/>
      <path class="cls-1" d="m48.81,60.07c.12.09.16.37.16.56-.02.33-.27.14-.42.12-.16,0-.32.02-.47,0-.42-.04-.66-.51-.45-.85.05-.11.2-.14.33-.23.31.14.61.21.85.4Z"/>
      <path class="cls-1" d="m62.63,67.09c.21.22.24.71-.02.85-.47.28-.99.49-1.49.73-.41-.09-.58-.26-.68-.61-.14-.4-.23-.73.15-1.04.51-.44,1.6-.42,2.04.07Z"/>
      <path class="cls-1" d="m57.29,75.58c-.06.1-.13.19-.16.3-.26.78-1.03.97-1.71.52-.66-.46-.69-.58-.68-.96,0-.44.39-.92.81-.99.6-.11,1.2-.11,1.63.49.18.2.25.4.11.64Z"/>
      <path class="cls-1" d="m56.96,96.27c0,.07.01.18,0,.27-.02.26-.14.33-.37.2-.45-.26-.91-.5-1.36-.78-.35-.21-.49-.66-.33-1.06.11-.26.19-.57.4-.71.33-.23.8-.06,1.01.31.31.54.7,1.06.65,1.77Z"/>
      <path class="cls-1" d="m61.24,90.84c.35,0,.5.16.62.44.13.35.02.5-.36.5-.3-.01-.61-.03-.91-.08-.15-.06-.29-.19-.43-.28.28-.47.66-.56,1.08-.58Z"/>
      <path class="cls-1" d="m61.86,92.48c0,.63-.01,1.24-.05,1.86-.02.26-.05.53-.1.79-.07.31-.46.5-.77.4-.29-.11-.61-.21-.87-.37-.12-.09-.24-.35-.21-.47.26-.82.02-1.64.07-2.45,0-.06.02-.11.02-.11.59.02,1.15.04,1.69.09.08.02.22.17.22.26Z"/>
      <path class="cls-1" d="m62.94,102.52c.12-.01.32.28.58.53-.26.17-.44.4-.52.36-.25-.1-.74.04-.65-.43.04-.2.37-.4.59-.46Z"/>
      <path class="cls-1" d="m84.72,104.8c-.12-.27.05-.47.28-.48.29-.04.61,0,.9.08.09.02.12.26.23.51-.12.15-.25.42-.39.43-.26.02-.62.23-.81-.17-.07-.12-.14-.24-.21-.37Z"/>
      <path class="cls-1" d="m85.17,98.96c.42-.06.61.17.61.57.05.3-.14.45-.44.49-.22.01-.54-.39-.48-.63.03-.17.19-.43.31-.43Z"/>
      <path class="cls-1" d="m80.17,96.69c0,.37-.6.86-1.04.87-.33.02-.54-.28-.57-.82-.02-.33.26-.8.48-.8.68.02,1.13.32,1.13.75Z"/>
      <path class="cls-1" d="m67.85,73.49c-.07-.7-.1-1.37-.19-2.05-.09-.93-.19-1.83-.31-2.74-.14-1.04-.3-2.07-.44-3.09-.16-1.08-.24-2.16-.45-3.24-.11-.58-.35-1.15-.56-1.72-.03-.11-.28-.25-.33-.21-.43.29-.82-.04-1.22-.09-.9-.11-1.81-.24-2.7-.45-.83-.19-1.67-.02-2.5-.09-.37-.02-.73-.14-1.12-.14-.41,0-.83.12-1.25.14-1.11.05-2.21,0-3.31.12-1.2.12-2.38.4-3.56.59-.14.02-.46-.12-.47-.22-.06-.51-.42-.59-.8-.7-.06-.47.31-.54.6-.63.72-.22,1.43-.43,2.15-.61.47-.12.94-.27,1.47-.13.34-.14.16-.44.09-.68-.22-.86-.43-1.74-.73-2.58-.36-1.1-.8-2.18-1.2-3.25-.23-.65-.45-1.29-.7-1.95.51-.2,1-.4,1.52-.54.07-.04.31.17.35.29.14.61.2,1.22.36,1.83.14.52.02,1.01-.14,1.5-.15.48.25,1.41.72,1.51.45.09.52.38.61.73.15.73.31,1.46.5,2.18.17.61.4.68.97.61.98-.16,1.95-.26,2.95-.35,1.42-.14,2.87-.21,4.3-.37.8-.07,1.58-.27,2.36-.43.07,0,.11-.05.16-.05.57-.02.63-.09.57-.63-.14-1.04-.24-2.11-.36-3.15-.09-.8-.16-1.6-.25-2.39,0-.12,0-.24.04-.34.23-.8.24-.8-.44-1.22-.45-.28-.92-.54-1.39-.79-.42-.22-.83-.45-1.29-.64-.87-.36-1.74-.7-2.62-1.04-.3-.13-.6-.25-.86-.4-.83-.51-1.63-1.01-2.45-1.52-.11-.05-.23-.07-.31-.12-.07-.05-.14-.12-.27-.24.93.03,1.14-.7,1.57-1.22.59.33,1.17.68,1.76.99.31.17.64.33.97.44.09,0,.35-.13.35-.21.07-1.59.11-3.17.16-4.77,0-.06-.04-.09-.05-.14h1.01c-.07.66-.14,1.32-.2,1.98,0,.35,0,.72,0,1.06,0,1,0,1.99,0,2.96,0,.12.04.26.04.39,0,.36.17.5.54.55.54.06,1.06.19,1.58.28.49.09.99.14,1.46.21,0-.5-.01-.97.02-1.44.04-.56.14-1.1.23-1.66.12-.83.31-1.65.4-2.5.1-.82.17-1.64.19-2.48,0-.99.07-1.96-.14-2.97-.12-.65.05-1.36.1-2.04.04-.71.07-1.43.13-2.12.01-.16.07-.33.08-.47h1.69c-.02.26-.07.52-.07.8,0,.97.02,1.97,0,2.94-.04,1.27-.14,2.56-.16,3.83,0,.68.07,1.34.17,2,.09.56.33.66.86.51,1.11-.3,2.22-.56,3.34-.86.28-.08.55-.22.83-.35.14-.05.3-.13.46-.15.31-.02.38-.25.34-.47-.12-.68-.29-1.38-.43-2.06-.07-.38-.11-.78-.14-1.16-.04-.75-.05-1.5-.09-2.25-.02-.52-.05-1.04-.07-1.51.26-.04.52-.07.77-.07.09,0,.21.1.22.19.14.77.49,1.5.47,2.32-.01.73.14,1.47.21,2.22.04.47,0,.94.04,1.41,0,.14.03.35.14.4.1.06.29-.01.42-.08.47-.21.92-.42,1.35-.65.26-.14.51-.35.82-.24.11.02.21.07.26.16.23.34.44.73.66,1.09-.54.21-1.2.45-1.82.72-.27.1-.47.31-.74.4-.64.19-1.3.34-1.96.52-.28.07-.47.12-.54.54-.19,1.06.19,2,.36,2.99.02.09.02.16.02.14-.31.05-.56.14-.82.1-.14,0-.33-.17-.36-.31-.18-.73-.3-1.46-.45-2.19-.02-.16-.11-.31-.18-.47-.1-.21-.24-.21-.43-.07-.11.09-.25.16-.39.19-1.01.26-2,.57-3.04.61-.18,0-.35.1-.56.19.03.47.1.92.1,1.39,0,.68-.08,1.36-.08,2.02,0,.61.05,1.2.08,1.8.06.5.14.99.16,1.49.07,1.03.11,2.06.19,3.07.07.69.23,1.37.33,2.05.14.9.26,1.81.44,2.71.14.75.35,1.48.5,2.23.23,1.12.4,2.25.7,3.33.26.97.36,1.96.5,2.96.07.59.2,1.16.35,1.74.02.1.3.22.4.19.77-.21,1.52-.42,2.25-.7,1.09-.45,2.24-.45,3.37-.61.44-.05.88-.19,1.36-.31-.03-.33-.08-.7-.08-1.06-.02-.96,0-1.92-.02-2.87,0-.2-.05-.4-.07-.61-.04-.37-.07-.73-.09-1.1-.02-.26.07-.42.35-.5.5-.16.92-.79.92-1.28,0-.55-.17-.83-.71-.9-.51-.07-.68-.3-.66-.78.01-.28-.09-.54-.12-.73.62-.04,1.23-.07,1.86-.11,0-.03.01-.07.03-.12.07.14.16.26.19.4.23.75.44,1.5.46,2.31.01,1.59.15,3.17.24,4.76.02.54.05,1.09.07,1.63.02.44.23.58.63.37.69-.35,1.41-.38,2.14-.12.12.05.29-.06.45-.09.43-.12.5-.05.54.36.02.34.12.65.19.91-.35.03-.73.1-1.1.1-.41.02-.85-.08-1.27-.05-.66.05-1.32.23-2,.23-1.06-.02-2,.43-3.01.61-.59.1-1.2.15-1.79.26-.16.02-.3.1-.45.16-.65.26-1.28.53-1.92.76-.36.12-.77.18-1.13.26-.28.05-.54.12-.8.21-.23.07-.25.19-.19.45.14.58.19,1.17.28,1.76.15,1.03.31,2.04.45,3.06.09.7.17,1.38.22,2.08.13,1.39.21,2.78.35,4.17.12,1.24.3,2.48.42,3.71.07.63.1,1.27.09,1.9-.04,1.29-.11,2.59-.18,3.88-.01.66-.03,1.32-.08,1.98-.11,1.52-.23,3.03-.33,4.56-.07.91-.11,1.83-.18,2.74-.07.92-.14,1.84-.36,2.76-.21.79-.25,1.62-.3,2.44-.03.49.5.87.99.77.11-.02.21,0,.3,0,.96-.05,1.91-.14,2.85-.16.42-.02.86,0,1.27.09,1.03.21,2.06.21,3.08.07.13,0,.25.03.47.08.04-.26.13-.54.09-.78-.05-.71-.12-1.43-.23-2.12-.06-.45-.2-.91-.31-1.36-.03-.24-.03-.5-.07-.75-.09-.69-.19-1.41-.28-2.1.66.13,1.52-.18,1.88-.68.11.64.25,1.27.3,1.91.05.56.03.59.54.44.64-.23,1.32-.21,1.98-.26.19-.02.39-.07.58-.13.4-.12.55-.03.66.39.05.17.1.36.19.66-.47.1-.92.24-1.37.33-.49.07-.98.09-1.45.12-.33.02-.43.24-.45.51-.02.24,0,.48.02.74.08.72.17,1.43.24,2.14.03.25.03.34.35.28.71-.12,1.44-.15,2.09-.22.14.45.29.81.38,1.2.02.07-.18.24-.28.26-.35.07-.73.03-1.08.1-1.11.26-2.26.21-3.38.39-.34.05-.69.15-1.02.24-1.38.37-2.74.73-4.11,1.06-1.2.28-2.42.54-3.66.77-.41.07-.92-.09-1.14.4-.2.36-.28.78-.37,1.18-.12.52-.21,1.06-.26,1.6-.04.58,0,1.17,0,1.74-.02.39-.09.77-.09,1.13.02.35.05.74.21,1.01.07.14.45.11.71.14.09,0,.2-.08.3-.07,1.01.14,2.02.3,3.05.44.52.05,1.08.02,1.6.1.71.11,1.41.07,2.1,0,.61-.07,1.15.16,1.61.58.19.17.48.24.71.38.52.35,1.04.7,1.55,1.08.26.21.19.5-.16.59-.56.14-1.13.18-1.67-.07-.37-.17-.71-.38-1.08-.55-.12-.07-.26-.13-.42-.14-.57-.13-1.15-.27-1.74-.32-.57-.05-1.18-.12-1.72.02-1.18.31-2.37.42-3.57.54-.47.03-.56.33-.61.68-.05.24.04.5-.03.73-.05.19-.23.5-.35.52-.21,0-.54-.15-.59-.31-.14-.44-.47-.85-.23-1.36.04-.07-.05-.28-.12-.3-.42-.12-.85-.29-1.27-.05-.42.23-.59.66-.66,1.12-.04.19-.02.4-.09.57-.09.18-.24.4-.38.42-.16.02-.46-.12-.51-.26-.12-.32-.17-.68-.21-1.03-.03-.24-.01-.5,0-.77.02-.41-.21-.4-.52-.34-.83.15-1.7.26-2.54.4-.37.05-.73.17-1.1.24-.33.05-.68.04-.99.11-.16.01-.36.13-.43.27-.11.28-.16.6-.19.89-.06.38-.44.72-.75.66-.37-.07-.54-.4-.42-.82.1-.34-.04-.59-.28-.8-.24-.2-.49-.17-.73.02-.09.07-.23.11-.35.11-.09,0-.24-.02-.26-.07-.03-.09,0-.25.05-.32.65-.69,1.36-1.23,2.28-1.51.82-.25,1.6-.61,2.4-.87.96-.31,1.95-.54,2.91-.84.51-.15.66-.68.82-1.11.16-.45.21-.94.26-1.41.07-.73.1-1.46.4-2.16.19-.42.14-.94.21-1.41.12-.99.26-1.98.42-2.98.12-.83.31-1.67.42-2.52.1-.97.1-1.97.17-2.94.05-.49.14-.96.23-1.45.05-.26.03-.47-.27-.48-.97-.07-1.95-.14-2.92-.18-.52,0-.77.33-.78.86-.04.88-.11,1.77-.16,2.64-.02.05-.02.12-.02.21-.48-.33-.92-.05-1.39.16-.03-.4-.1-.75-.12-1.12-.02-.61.02-1.25-.02-1.88-.03-.48-.16-.97-.26-1.46-.02-.07-.12-.14-.21-.17-.57-.18-1.17-.37-1.76-.51-.47-.1-.95-.12-1.42-.17h-.21c-.56-.05-.65-.23-.73-.96-.07-.56-.3-1.11-.46-1.67-.03-.1-.12-.28-.08-.31.1-.11.26-.19.4-.19.62-.04,1.25,0,1.88-.02.36-.02.55.08.48.47-.15.9.37,1.42,1.08,1.84.54.3,1.26.11,1.71-.48.17-.21.31-.44.45-.65h1.15c.96.04,1.9.05,2.84.11.24,0,.38-.07.42-.3.19-1.04.45-2.07.57-3.12.07-.55-.16-1.16-.12-1.74.05-1.01.19-2,.31-3.01v-.03c.05-.73.12-1.46.18-2.2.05-.85.15-1.68.15-2.52,0-.9-.09-1.79-.14-2.7,0-.24.04-.48-.03-.71-.07-.21-.21-.51-.39-.58-.71-.26-1.46-.48-2.19-.67-.54-.16-1.08-.3-1.63-.35-1.1-.11-2.22-.12-3.33-.19-.59-.04-1.2-.13-1.79-.18-.4-.02-.8,0-1.2,0s-.46-.1-.28-.45c.19-.37.33-.77.57-1.08.12-.16.46-.23.7-.24.64-.04,1.29-.02,1.93-.02h.89c-.11-.42-.18-.82-.3-1.2-.33-.94-.52-1.9-.54-2.89-.01-.63-.1-1.24-.15-1.85-.02-.07.01-.15.01-.24.82.21,1.74,0,2.46-.57.05.54.12,1.04.16,1.54.05.79.03,1.55.1,2.34.05.75.19,1.48.3,2.23.05.33.13.64.19.97.03.28.21.35.47.37.36.03.73.17,1.09.15.93-.05,1.81,0,2.7.18.07.01.14,0,.26-.02-.03-.56-.07-1.1-.14-1.64-.01-.35-.08-.66-.12-.99Z"/>
      <path class="cls-2" d="m44.35,36.24c-.17.38-.4.75-.59,1.12-.09.14.07.41-.28.41h-.08c.12-.4.15-.81.33-1.18.29-.61.66-1.18.99-1.78.14-.22.31-.45.5-.66.08-.09.18-.14.28-.14h.01s.06.01.1.02c.07.02.15.09.22.19-.21.14-.4.3-.59.44-.05.03-.1.07-.1.12-.04.61-.56.96-.79,1.46Z"/>
      <path class="cls-2" d="m43.03,47.49c.17.87.44,1.72.63,2.57.12.56.21,1.12.28,1.69,0,.07-.25.23-.35.23-.96-.09-1.92-.18-2.86.1-.68.21-1.35.44-2,.7-.17.07-.35.35-.36.54-.04.38,0,.78.07,1.18.08.49.2.96.33,1.45.24.87.48,1.75.78,2.64.23.7.52,1.39.8,2.09.17.43.37.89.54,1.32.07.14.14.25.23.37.27.36.54.73.83,1.09.12.14.28.25.42.37.56.47.87.85.09,1.5-.14.12-.35.14-.47.26-.2.17-.33.38-.49.59-.04.03-.07.12-.09.12-.64.02-1.58.63-2.16.82,0,0-.03-.02-.05-.03.23-.16.94-.53,1.18-.68.28-.16.63-.25.88-.46.38-.34.73-.74,1.04-1.16.09-.11,0-.44-.12-.56-1.05-1.08-1.69-2.38-2.21-3.74-.3-.75-.73-1.46-.89-2.23-.26-1.31-1.01-2.47-.99-3.85,0-.47-.11-.95-.18-1.44-.03-.33.09-.54.42-.63.52-.14,1.05-.28,1.55-.43.31-.09.59-.26.89-.32.42-.08.85-.08,1.27-.1.33-.02.68.02,1.01-.04.1-.01.26-.26.24-.4-.09-1.2-.42-2.36-.76-3.51-.04-.12,0-.26-.02-.38-.04-.61-.12-1.21-.12-1.81,0-.91.03-1.85.12-2.75.1-1.1.26-2.2.43-3.28.07-.48.23-.95.33-1.44h.23c.02.15.09.33.04.45-.25.58-.46,1.15-.37,1.79.05.33.1.72-.19,1-.04.05-.04.13-.05.2-.13.77-.09,1.55-.09,2.34,0,.28-.14.57-.16.85,0,.4.04.82.09,1.22.07.59.12,1.18.26,1.76Z"/>
      <path class="cls-2" d="m48.55,60.75c.15.02.4.21.42-.12,0-.19-.04-.47-.16-.56-.24-.19-.54-.26-.85-.4-.13.09-.28.12-.33.23-.21.34.03.81.45.85.15.02.31,0,.47,0Zm25.71-7.82c.31,0,.73-.27.73-.5,0-.3-.3-.66-.51-.57-.22.1-.4.33-.59.5.18.16-.09.59.37.57Zm1.15-15.16c0-.07-.02-.12-.02-.19-.32-.08-.65-.15-.96-.24-.03.05-.07.09-.1.14.08.15.17.45.27.45.27.02.54-.09.81-.16Zm-24.55,9.8c-.41,0-.71.25-.69.59.01.49.31.86.69.86.44.02.84-.3.84-.65,0-.57-.23-.8-.84-.8Zm25.99,14.83c-.05-.73-.09-1.44-.19-2.16-.02-.2-.12-.47-.51-.38-.52.11-1.06.09-1.6.14-.1,0-.29.05-.31.12-.02.12.03.28.1.37.75.8,1.52,1.58,2.27,2.37.05-.04.1-.06.14-.07.03-.13.1-.27.1-.39Zm-20.52-19.65c-.25-.1-.58-.35-.73-.26-.21.09-.32.45-.39.73-.01.12.16.37.28.44.23.08.87-.53.87-.8,0-.02,0-.09-.03-.11Zm21.56,15.77c.14-.31.06-.5-.24-.57-.31-.06-.64-.07-.96-.07-.57-.04-1.15-.05-1.74-.07-.43-.02-.87-.05-1.23-.07,0,.56-.04.97,0,1.39.01.14.15.37.28.38.29.07.62.07.94.04.66-.09,1.34-.21,2-.33.41-.07.76-.28.95-.7Zm-20.76,17.36c.03-.11.1-.2.16-.3.14-.24.07-.44-.11-.64-.43-.6-1.03-.6-1.63-.49-.42.07-.81.55-.81.99-.01.38.02.5.68.96.68.45,1.45.26,1.71-.52Zm-.17,20.66c.01-.09,0-.2,0-.27.05-.71-.34-1.23-.65-1.77-.21-.37-.68-.54-1.01-.31-.21.14-.29.45-.4.71-.16.4-.02.85.33,1.06.45.28.91.52,1.36.78.23.13.35.06.37-.2Zm.55-43.8c-.19-.38-.4-.82-.59-1.25.02-.04.05-.05.09-.09-.14.02-.26.02-.4.05-.61.14-1.22.35-1.85.46-.73.1-1.41.29-1.83.94-.12.19-.12.55-.01.78.08.16.36.37.66.16.05-.04.14-.04.22-.06.3-.03.61-.01.89-.1.94-.28,1.9-.59,2.82-.89Zm20.7-13.97c.22-.27.49-.42.49-.6,0-.27-.25-.52-.54-.52-.23,0-.6.11-.65.26-.17.54.49.4.7.86Zm.49,16.44c.08-.03.15-.26.17-.4.02-.05-.16-.15-.26-.17-.16-.03-.32-.02-.47,0-.47.03-.87.44-.82.96.49-.14.94-.23,1.38-.39Zm-19.78-3.79c.05-.31-.14-.47-.47-.5-.47-.02-.96.36-.97.76-.02.31.38.64.78.66.33,0,.64-.42.66-.92Zm.75-8.25c.07-.61.12-1.2.17-1.79.06-.66-.1-.84-.76-.87-.26-.02-.52-.09-.75-.21-.84-.46-1.65-.94-2.47-1.45-.23-.15-.37-.12-.47.07-.28.49-.58.98-.8,1.5-.7,1.58-1.34,3.18-1.03,5.01.09.51.07,1.05.16,1.57.03.12-.07.26-.12.38-.09-.03-.2-.05-.28-.1-.09-.05-.16-.14-.23-.19-.89-.51-1.77-1.01-2.66-1.5-.33-.18-.65-.33-1.01-.51.1.25.19.44.28.65.15.35.29.71.45,1.06.14.26.31.42.68.3.33-.11.66,0,.87.29.29.37.54.77.82,1.15.21.31.38.84.64.87.77.12,1.57.05,2.35.05,0-.38.04-.76,0-1.13-.09-.85.14-1.65.4-2.44.14-.4.07-.57-.26-.76-.47-.28-.82-.68-.99-1.22-.25-.75.08-1.32.38-1.91.4,0,.8-.11,1.11.03.54.21,1.03.61,1.54.89.57.31,1.16.59,1.82.92.07-.28.14-.47.16-.66Zm19.46,54.39c.44-.01,1.03-.5,1.04-.87,0-.43-.45-.73-1.13-.75-.22,0-.5.47-.48.8.03.54.24.84.57.82Zm-18.95-46.51c-.3-.66-.74-1.25-1.07-1.89-.17-.35-.45-.7-.24-1.15.12-.26.4-.63.31-.8-.1-.23-.5-.32-.78-.45-.66-.32-1.32-.63-1.98-.94-.42,1.34-.6,2.69-.28,4.16h-2.86c.21.52.42.92.56,1.35.09.25.23.28.43.23.34-.07.68-.14,1.01-.24.77-.23,1.55-.44,2.28-.75.51-.23,1.29-.21,1.57.17.35.45.26,1.57-.19,1.85-.51.31-1.04.57-1.6.76-.85.3-1.74.51-2.61.79-.12.05-.3.26-.28.38.1.64.24,1.29.4,1.93.09.37.33.59.71.56.39-.02.75-.07,1.22-.12-.23-.49-.45-.93-.66-1.38-.12-.24-.23-.49.14-.64.4-.2.8-.4,1.2-.56.99-.38,2-.73,2.99-1.13.11-.04.26-.25.23-.35-.14-.59-.26-1.22-.5-1.78Zm.53-12.35c.2,0,.39-.25.68-.49-.27-.24-.45-.52-.66-.56-.38-.09-.38.37-.42.58-.03.14.27.47.4.47Zm1.19,25.84s.02-.07.02-.12c-.2-.08-.39-.19-.6-.26-.66-.24-1.35-.38-1.98-.71-1.6-.84-3.38-1.4-4.73-2.7-.09-.09-.27-.16-.4-.14-.51.02-1.01.04-1.5.16-.37.08-.87-.16-1.08.38,1.67,2.19,4.23,3.12,6.51,4.53.02.05.03.2.03.33-.47.12-.92.22-1.35.36-.27.09-.49.25-.74.33-.52.16-1.04.26-1.54.44-.35.1-.68.28-1.01.43.01.07.01.12.01.19.49.07.98.23,1.45.2.68-.04,1.27.2,1.88.41.36.11.45.61.19.87-.07.09-.14.18-.17.26-.14.4-.28.79-.37,1.19-.23.87-.44,1.76-.63,2.64-.05.28.18.46.44.51.35.05.69.17,1.03.28.43.15.85.41,1.3.47.7.08,1.39.01,2.18.01-.07-.27-.09-.41-.13-.55-.1-.32-.29-.59-.33-.91-.12-.83-.2-1.69-.26-2.54-.03-.38-.17-.71-.5-.9-.75-.44-1.15-1.14-1.55-1.83-.37-.63-.26-.87.35-1.25.07-.04.1-.09.17-.13.94-.59,1.9-1.18,2.86-1.75.14-.09.31-.13.45-.2Zm-.04,26.74c-.12-.28-.27-.45-.62-.44-.42.02-.8.11-1.08.58.14.09.28.22.43.28.3.05.61.07.91.08.38,0,.49-.15.36-.5Zm-.05,3.06c.04-.62.05-1.23.05-1.86,0-.09-.14-.24-.22-.26-.54-.05-1.1-.07-1.69-.09,0,0-.02.05-.02.11-.05.81.19,1.63-.07,2.45-.03.12.09.38.21.47.26.16.58.26.87.37.31.1.7-.09.77-.4.05-.26.08-.53.1-.79Zm.77-40.97c-.32-1.08-.63-2.14-.93-3.22-.13-.44-.24-.89-.36-1.32-.05-.18-.07-.44-.19-.53-.37-.27-.8-.48-1.22-.69-.05-.04-.21.03-.26.1-.33.45-.31.94.02,1.38.97,1.27,1.3,2.8,1.75,4.26-.62.3-1.2.61-1.79.84-.76.31-1.57.55-2.33.85-.73.3-.72.31-.4.99.02.02,0,.04.02.05.22.61.66.84,1.3.77.94-.09,1.88-.12,2.82-.17.02-.06.05-.09.09-.13-.37-.36-.73-.71-1.1-1.07-.12-.13-.26-.27-.35-.4-.12-.23-.1-.42.23-.44.33-.03.66-.05.99-.09.66-.1,1.31-.21,1.99-.31-.11-.35-.21-.61-.28-.87Zm.03,14.57c.26-.14.23-.63.02-.85-.44-.49-1.53-.51-2.04-.07-.38.31-.29.64-.15,1.04.1.35.27.52.68.61.5-.24,1.02-.45,1.49-.73Zm.39,35.47c.08.04.26-.19.52-.36-.26-.25-.46-.54-.58-.53-.22.06-.55.26-.59.46-.09.47.4.33.65.43Zm1.46-60.47c.35-1.56.43-3.16.57-4.75.02-.17-.07-.35-.1-.52-.11.1-.21.23-.32.33-.01.03-.05.05-.08.09-.59.92-1.26,1.79-1.76,2.75-.37.69-.58,1.46-.78,2.23-.13.43-.16.9-.18,1.35,0,.35.14.65.52.79.21.07.46.17.61.34.32.32.68.44,1.12.53.05-.25.1-.42.12-.6.1-.85.1-1.7.28-2.54Zm.64,12.87c-.09-.91-.16-1.81-.33-2.68-.23-1.1-.16-2.18-.1-3.28,0-.12-.13-.34-.23-.38-.91-.28-1.81-.54-2.79-.8.6,1.98,1.17,3.95,1.78,6-.87.13-1.72.25-2.56.39-.12.02-.22.08-.33.14.05.1.09.22.16.31.14.17.29.31.45.47.35.31.68.61,1.2.63.85.01,1.67-.19,2.46-.46.13-.03.29-.24.29-.34Zm.94-27.07c-.05-.24-.14-.47-.26-.84-.52.75-.97,1.36-1.38,2.01-.31.48-.57.99-.83,1.49-.37.72-.91,1.34-1.04,2.16-.09.42-.2.84-.3,1.25-.17.7-.35,1.4-.51,2.09-.05.25-.03.49.16.73.45.58.61,1.21.37,1.94-.09.24-.06.5-.07.76.07,0,.12.02.17.02.11-.16.24-.31.33-.49.45-.92,1.03-1.77,1.76-2.5.47-.47.64-.94.37-1.59-.11-.24-.13-.56-.11-.82.07-1.06.14-2.12.26-3.18.09-.73.21-1.46.37-2.18.07-.26.15-.61.55-.64.07-.02.18-.16.16-.21Zm8.86,24.52c-.31.13-.63.21-1.04.34.1,1.13.22,2.35.33,3.53.52.1.94.19,1.41.28.01-.26.08-.49.07-.72-.14-1.11-.28-2.21-.44-3.3-.03-.23-.16-.19-.33-.13Zm-7.66-23.25c0-.36-.24-.7-.55-.71-.46-.02-.89.38-.89.8.01.43.36.38.59.47.38.02.85-.32.85-.56Zm5.5,1.71c.21-.21.37-.44.59-.72-.27-.08-.43-.15-.59-.15-.19,0-.36.07-.55.12.08.24.13.49.24.71.02.05.26.09.31.04Zm-5.48,39.77c.02-.12.09-.26.07-.4-.07-.77-.14-1.53-.26-2.3-.16-1.13-.38-2.26-.56-3.39-.1-.66-.24-1.33-.26-1.99-.02-.71-.26-1.36-.52-2-.04-.1-.16-.17-.25-.23-.41-.22-.83-.4-1.32-.36-.26.02-.54-.12-.82-.14-.33,0-.69-.1-1.15.21.2.12.32.21.44.31.94.89,1.86,1.79,2.8,2.72.25.24.37.5.3.9-.14.89-.18,1.78-.26,2.67-.07.6-.09,1.2-.21,1.79-.09.45.08.75.4.99.5.42,1.03.8,1.6,1.22Zm5.95-29.99c.02.29,0,.56.05.82.04.28.13.54.23.9.31-.69.58-1.29.91-1.98-.49.1-.84.17-1.19.26Zm.05,3.6s-.01-.09-.05-.09c-.21-.07-.42-.19-.62-.17-.27.02-.56.1-.58.47-.03.31.02.59.35.73.42.19.94.12,1.18-.16-.14-.27-.57-.4-.28-.78Zm.02,13.25c0-.35-.22-.58-.55-.58-.3.02-.65.44-.63.82,0,.4.21.65.56.63.26,0,.62-.52.62-.87Zm1.76,9.99c-.59.14-1.17.28-1.76.45-.59.18-1.18.37-1.76.56-.2.07-.33.17-.29.43.09.61.12,1.22.19,1.83.05.52.1,1.03.16,1.53.05.33.19.42.47.21.17-.12.36-.22.55-.26.63-.16,1.27-.3,1.95-.45,0-.02.02-.16-.03-.21-.18-.19-.39-.37-.58-.54-.36-.35-.75-.68-1.06-1.06-.1-.14-.14-.47-.05-.63.56-.97,1.58-1.25,2.54-1.7-.1-.06-.24-.18-.33-.16Zm9.96,35.98c-.23.01-.4.21-.28.48.07.13.14.25.21.37.19.4.55.19.81.17.14,0,.27-.28.39-.43-.11-.25-.14-.49-.23-.51-.29-.08-.61-.12-.9-.08Zm-.53-39.38c-.31.02-.34.3-.29.58-.04.02-.07.05-.12.07.14.17.26.35.38.52.17-.23.4-.42.47-.66.05-.23-.16-.51-.44-.51Zm.87,35.08c.3-.04.49-.19.44-.49,0-.4-.19-.63-.61-.57-.12,0-.28.26-.31.43-.06.24.26.64.48.63Zm-2.54-36.02c.4-.73.82-1.42,1.24-2.14.33-.59.68-1.2,1.06-1.89-.4.26-.68.45-.97.62-.46.26-.89.52-1.38.73-.16.07-.47.04-.57-.08-.53-.63-1.01-1.31-1.52-1.99-.29-.4-.57-.85-.92-1.36.14,2.3.28,4.5.4,6.65.71-.05,1.36-.14,1.98-.1.39.02.53-.16.68-.44Zm-14.65-28.28c-.05.59-.11,1.11-.12,1.64,0,.12.08.31.19.36.61.35,1.23.72,1.88,1.01.54.24,1.11.4,1.69.58.17.03.4,0,.55-.09.09-.04.11-.26.09-.4-.11-.58-.23-1.15-.35-1.71-.02-.08-.07-.21-.14-.22-.49-.14-.96-.3-1.44-.35-.58-.05-1.12-.16-1.62-.47-.21-.12-.47-.23-.73-.35Zm-.32,7.28c-.05,0-.14.1-.14.13.07.6.04,1.26.28,1.78.54,1.11,1.64,1.62,2.72,2.07.49.21,1.04.25,1.53.47.71.35,1.48.3,2.23.31.28.02.35.02.38.27,0,.07.05.12.09.2-.28.37-.58.7-.77,1.07-.45.78-.89,1.58-1.27,2.4-.28.59-.59,1.23-.68,1.88-.12,1.11.21,2.21.61,3.25.12.3.44.46.77.35.29-.1.24-.36.14-.59-.04-.09,0-.21,0-.3-.04-.55-.07-1.09-.11-1.65-.05-.8-.12-1.62-.15-2.42,0-.43.61-.94,1.01-.89.6.07,1.02.54,1.02,1.17,0,.16-.01.31,0,.47.19,1.32.4,2.64.59,3.97.06.26.14.5.54.36-.05-.61-.14-1.22-.15-1.82,0-.23.08-.51.24-.63.33-.26.73-.42,1.1-.61.07-.05.14-.14.14-.21.01-.26.07-.56,0-.8-.26-1.06-.46-2.11-.23-3.19.14-.74.31-1.49.56-2.21.19-.57.5-1.11.76-1.68-1.89.33-3.44-.63-5.06-1.33,0,.06-.02.09,0,.12.36,1.19.22,1.54-.96,1.75-.57.1-1.36-.46-1.44-1.05-.14-.96-.32-1.93-.51-2.91-.05-.33-.35-.45-.66-.31-.09.04-.14.12-.21.14-.29.04-.59.04-.87.09-.5.1-1.01.22-1.5.35Zm-.61,32.42c.37.16.47.16.44-.24-.03-.78-.09-1.57-.16-2.35-.05-.42-.22-.75-.61-1.01-.61-.45-1.13-.98-1.72-1.45-.43-.34-.42-.78-.36-1.23.06-.68.15-1.38.22-2.07.07-.56.14-1.1.18-1.66.01-.33.05-.71-.07-.99-.14-.35-.42-.62-.7-.89-.89-.88-1.79-1.77-2.72-2.64-.12-.11-.33-.16-.5-.18-.52-.08-1.04-.13-1.57-.19-.43-.03-.88-.17-1.28-.07-.84.23-1.66.21-2.51.14-.16,0-.33.09-.51.12v.13c.25.17.49.36.75.5,1.12.54,2.21,1.08,3.33,1.59.92.38,1.84.76,2.78,1.02.44.12.56.26.56.63-1.46.99-3.19,1.55-4.44,2.87.45.7.92,1.39,1.69,1.86-.05-.45-.18-.88-.28-1.32-.12-.47-.07-1.22.33-1.46.3-.18.59-.35.92-.47.23-.07.51-.05.77-.05.57.01,1.03.34,1.46.66.19.12.42.36.44.59.17,1.6.29,3.22.45,4.84.07.96.16,1.91.26,2.87,0,.07.16.19.24.19.51.02,1.03,0,1.55.05.37.02.73.09,1.06.21Zm6.31-5.15c-.07.09-.07.38-.02.4.59.28.99.75,1.43,1.2.29.33.73.61.54,1.12-.7.17-1.38.31-2.04.48-.38.11-.78.23-1.15.37-.31.14-.5.38-.45.76.03.39.05.75.08,1.14.02.1.07.26.16.29.09.04.24-.03.33-.09.59-.34,1.13-.78,1.85-.83.94-.07,1.89-.12,2.83-.23.75-.07,1.5-.22,2.35-.35-.15-.2-.21-.31-.29-.38-.73-.69-1.52-1.36-2.23-2.09-.33-.33-.63-.76-.47-1.3.78-.3,1.57-.59,2.33-.91.79-.33,1.55-.61,2.2-1.23.57-.56,1.42-.82,1.94-1.45,0-.05-.03-.08-.05-.12-.14,0-.26.02-.4.04-.28.03-.54.08-.82.12-.57.07-1.16.12-1.74.19-.31.02-.62.02-.92.1-.42.14-.82.37-1.23.54-.32.14-.67.19-.81.58-.03.05-.12.1-.17.12-.89.33-1.79.61-2.66.97-.25.09-.44.33-.59.56Zm-5.38-38.28c.05.3.12.47.1.65-.02.7-.09,1.41-.1,2.11,0,.15.12.4.24.48.38.25.77.49,1.18.59.81.23,1.61.37,2.42.54-.05-.85-.08-1.75-.17-2.66,0-.09-.17-.21-.28-.23-.92-.13-1.72-.6-2.52-1.01-.26-.12-.51-.27-.87-.47Zm3.08,7.77c-1.17-.52-2.21-.99-3.33-1.52.04.82.09,1.54.13,2.34.57-.16,1.09-.3,1.6-.44.5-.12,1.01-.24,1.6-.38Zm-3.95,2.47c1.04-.04,2.03-.35,3.04-.61.14-.03.28-.1.39-.19.19-.14.33-.14.43.07.07.16.16.31.18.47.15.73.27,1.46.45,2.19.03.14.22.31.36.31.26.04.51-.05.82-.1,0,.02,0-.05-.02-.14-.17-.99-.55-1.93-.36-2.99.07-.42.26-.47.54-.54.66-.18,1.32-.33,1.96-.52.27-.09.47-.3.74-.4.62-.27,1.28-.51,1.82-.72-.22-.36-.43-.75-.66-1.09-.05-.09-.15-.14-.26-.16-.31-.11-.56.1-.82.24-.43.23-.88.44-1.35.65-.13.07-.32.14-.42.08-.11-.05-.14-.26-.14-.4-.04-.47,0-.94-.04-1.41-.07-.75-.22-1.49-.21-2.22.02-.82-.33-1.55-.47-2.32-.01-.09-.13-.19-.22-.19-.25,0-.51.03-.77.07.02.47.05.99.07,1.51.04.75.05,1.5.09,2.25.03.38.07.78.14,1.16.14.68.31,1.38.43,2.06.04.22-.03.45-.34.47-.16.02-.32.1-.46.15-.28.13-.55.27-.83.35-1.12.3-2.23.56-3.34.86-.53.15-.77.05-.86-.51-.1-.66-.17-1.32-.17-2,.02-1.27.12-2.56.16-3.83.03-.97,0-1.97,0-2.94,0-.28.05-.54.07-.8h-1.69c-.01.14-.07.31-.08.47-.06.69-.09,1.41-.13,2.12-.05.68-.22,1.39-.1,2.04.21,1.01.14,1.98.14,2.97-.02.84-.09,1.66-.19,2.48-.09.85-.28,1.67-.4,2.5-.09.56-.19,1.1-.23,1.66-.03.47-.02.94-.02,1.44-.47-.07-.97-.12-1.46-.21-.52-.09-1.04-.22-1.58-.28-.37-.05-.54-.19-.54-.55,0-.13-.04-.27-.04-.39,0-.97,0-1.96,0-2.96,0-.34,0-.71,0-1.06.06-.66.13-1.32.2-1.98h-1.01s.05.08.05.14c-.05,1.6-.09,3.18-.16,4.77,0,.08-.26.22-.35.21-.33-.11-.66-.27-.97-.44-.59-.31-1.17-.66-1.76-.99-.43.52-.64,1.25-1.57,1.22.13.12.2.19.27.24.08.05.2.07.31.12.82.51,1.62,1.01,2.45,1.52.26.15.56.27.86.4.88.34,1.75.68,2.62,1.04.46.19.87.42,1.29.64.47.25.94.51,1.39.79.68.42.67.42.44,1.22-.04.1-.04.22-.04.34.09.79.16,1.59.25,2.39.12,1.04.22,2.11.36,3.15.06.54,0,.61-.57.63-.05,0-.09.05-.16.05-.78.16-1.56.36-2.36.43-1.43.16-2.88.23-4.3.37-1,.09-1.97.19-2.95.35-.57.07-.8,0-.97-.61-.19-.72-.35-1.45-.5-2.18-.09-.35-.16-.64-.61-.73-.47-.1-.87-1.03-.72-1.51.16-.49.28-.98.14-1.5-.16-.61-.22-1.22-.36-1.83-.04-.12-.28-.33-.35-.29-.52.14-1.01.34-1.52.54.25.66.47,1.3.7,1.95.4,1.07.84,2.15,1.2,3.25.3.84.51,1.72.73,2.58.07.24.25.54-.09.68-.53-.14-1,.01-1.47.13-.72.18-1.43.39-2.15.61-.29.09-.66.16-.6.63.38.11.74.19.8.7.01.1.33.24.47.22,1.18-.19,2.36-.47,3.56-.59,1.1-.12,2.2-.07,3.31-.12.42-.02.84-.14,1.25-.14s.75.12,1.12.14c.83.07,1.67-.1,2.5.09.89.21,1.8.34,2.7.45.4.05.79.38,1.22.09.05-.04.3.1.33.21.21.57.45,1.14.56,1.72.21,1.08.29,2.16.45,3.24.14,1.02.3,2.05.44,3.09.12.91.22,1.81.31,2.74.09.68.12,1.35.19,2.05.04.33.11.64.12.99.07.54.11,1.08.14,1.64-.12.02-.19.03-.26.02-.89-.18-1.77-.23-2.7-.18-.36.02-.73-.12-1.09-.15-.26-.02-.44-.09-.47-.37-.06-.33-.14-.64-.19-.97-.11-.75-.25-1.48-.3-2.23-.07-.79-.05-1.55-.1-2.34-.04-.5-.11-1-.16-1.54-.72.57-1.64.78-2.46.57,0,.09-.03.17-.01.24.05.61.14,1.22.15,1.85.02.99.21,1.95.54,2.89.12.38.19.78.3,1.2h-.89c-.64,0-1.29-.02-1.93.02-.24.01-.58.08-.7.24-.24.31-.38.71-.57,1.08-.18.35-.12.45.28.45s.8-.02,1.2,0c.59.05,1.2.14,1.79.18,1.11.07,2.23.08,3.33.19.55.05,1.09.19,1.63.35.73.19,1.48.41,2.19.67.18.07.32.37.39.58.07.23.03.47.03.71.05.91.14,1.8.14,2.7,0,.84-.1,1.67-.15,2.52-.06.74-.13,1.47-.18,2.2v.03c-.12,1.01-.26,2-.31,3.01-.04.58.19,1.19.12,1.74-.12,1.05-.38,2.08-.57,3.12-.04.23-.18.3-.42.3-.94-.06-1.88-.07-2.84-.11h-1.15c-.14.21-.28.44-.45.65-.45.59-1.17.78-1.71.48-.71-.42-1.23-.94-1.08-1.84.07-.39-.12-.49-.48-.47-.63.02-1.26-.02-1.88.02-.14,0-.3.08-.4.19-.04.03.05.21.08.31.16.56.39,1.11.46,1.67.08.73.17.91.73.96h.21c.47.05.95.07,1.42.17.59.14,1.19.33,1.76.51.09.03.19.1.21.17.1.49.23.98.26,1.46.04.63,0,1.27.02,1.88.02.37.09.72.12,1.12.47-.21.91-.49,1.39-.16,0-.09,0-.16.02-.21.05-.87.12-1.76.16-2.64.01-.53.26-.86.78-.86.97.04,1.95.11,2.92.18.3.01.32.22.27.48-.09.49-.18.96-.23,1.45-.07.97-.07,1.97-.17,2.94-.11.85-.3,1.69-.42,2.52-.16,1-.3,1.99-.42,2.98-.07.47-.02.99-.21,1.41-.3.7-.33,1.43-.4,2.16-.05.47-.1.96-.26,1.41-.16.43-.31.96-.82,1.11-.96.3-1.95.53-2.91.84-.8.26-1.58.62-2.4.87-.92.28-1.63.82-2.28,1.51-.05.07-.08.23-.05.32.02.05.17.07.26.07.12,0,.26-.04.35-.11.24-.19.49-.22.73-.02.24.21.38.46.28.8-.12.42.05.75.42.82.31.06.69-.28.75-.66.03-.29.08-.61.19-.89.07-.14.27-.26.43-.27.31-.07.66-.06.99-.11.37-.07.73-.19,1.1-.24.84-.14,1.71-.25,2.54-.4.31-.06.54-.07.52.34-.01.27-.03.53,0,.77.04.35.09.71.21,1.03.05.14.35.28.51.26.14-.02.29-.24.38-.42.07-.17.05-.38.09-.57.07-.46.24-.89.66-1.12.42-.24.85-.07,1.27.05.07.02.16.23.12.3-.24.51.09.92.23,1.36.05.16.38.31.59.31.12-.02.3-.33.35-.52.07-.23-.02-.49.03-.73.05-.35.14-.65.61-.68,1.2-.12,2.39-.23,3.57-.54.54-.14,1.15-.07,1.72-.02.59.05,1.17.19,1.74.32.16.01.3.07.42.14.37.17.71.38,1.08.55.54.25,1.11.21,1.67.07.35-.09.42-.38.16-.59-.51-.38-1.03-.73-1.55-1.08-.23-.14-.52-.21-.71-.38-.46-.42-1-.65-1.61-.58-.69.07-1.39.11-2.1,0-.52-.08-1.08-.05-1.6-.1-1.03-.14-2.04-.3-3.05-.44-.1-.01-.21.07-.3.07-.26-.03-.64,0-.71-.14-.16-.27-.19-.66-.21-1.01,0-.36.07-.74.09-1.13,0-.57-.04-1.16,0-1.74.05-.54.14-1.08.26-1.6.09-.4.17-.82.37-1.18.22-.49.73-.33,1.14-.4,1.24-.23,2.46-.49,3.66-.77,1.37-.33,2.73-.69,4.11-1.06.33-.09.68-.19,1.02-.24,1.12-.18,2.27-.13,3.38-.39.35-.07.73-.03,1.08-.1.1-.02.3-.19.28-.26-.09-.39-.24-.75-.38-1.2-.65.07-1.38.1-2.09.22-.32.06-.32-.03-.35-.28-.07-.71-.16-1.42-.24-2.14-.02-.26-.04-.5-.02-.74.02-.27.12-.49.45-.51.47-.03.96-.05,1.45-.12.45-.09.9-.23,1.37-.33-.09-.3-.14-.49-.19-.66-.11-.42-.26-.51-.66-.39-.19.06-.39.11-.58.13-.66.05-1.34.03-1.98.26-.51.15-.49.12-.54-.44-.05-.64-.19-1.27-.3-1.91-.36.5-1.22.81-1.88.68.09.69.19,1.41.28,2.1.04.25.04.51.07.75.11.45.25.91.31,1.36.11.69.18,1.41.23,2.12.04.24-.05.52-.09.78-.22-.05-.34-.08-.47-.08-1.02.14-2.05.14-3.08-.07-.41-.09-.85-.11-1.27-.09-.94.02-1.89.11-2.85.16-.09,0-.19-.02-.3,0-.49.1-1.02-.28-.99-.77.05-.82.09-1.65.3-2.44.22-.92.29-1.84.36-2.76.07-.91.11-1.83.18-2.74.1-1.53.22-3.04.33-4.56.05-.66.07-1.32.08-1.98.07-1.29.14-2.59.18-3.88.01-.63-.02-1.27-.09-1.9-.12-1.23-.3-2.47-.42-3.71-.14-1.39-.22-2.78-.35-4.17-.05-.7-.13-1.38-.22-2.08-.14-1.02-.3-2.03-.45-3.06-.09-.59-.14-1.18-.28-1.76-.06-.26-.04-.38.19-.45.26-.09.52-.16.8-.21.36-.08.77-.14,1.13-.26.64-.23,1.27-.5,1.92-.76.15-.06.29-.14.45-.16.59-.11,1.2-.16,1.79-.26,1.01-.18,1.95-.63,3.01-.61.68,0,1.34-.18,2-.23.42-.03.86.07,1.27.05.37,0,.75-.07,1.1-.1-.07-.26-.17-.57-.19-.91-.04-.41-.11-.48-.54-.36-.16.03-.33.14-.45.09-.73-.26-1.45-.23-2.14.12-.4.21-.61.07-.63-.37-.02-.54-.05-1.09-.07-1.63-.09-1.59-.23-3.17-.24-4.76-.02-.81-.23-1.56-.46-2.31-.03-.14-.12-.26-.19-.4-.02.05-.03.09-.03.12-.63.04-1.24.07-1.86.11.03.19.13.45.12.73-.02.48.15.71.66.78.54.07.71.35.71.9,0,.49-.42,1.12-.92,1.28-.28.08-.37.24-.35.5.02.37.05.73.09,1.1.02.21.07.41.07.61.02.95,0,1.91.02,2.87,0,.36.05.73.08,1.06-.48.12-.92.26-1.36.31-1.13.16-2.28.16-3.37.61-.73.28-1.48.49-2.25.7-.1.03-.38-.09-.4-.19-.15-.58-.28-1.15-.35-1.74-.14-1-.24-1.99-.5-2.96-.3-1.08-.47-2.21-.7-3.33-.15-.75-.36-1.48-.5-2.23-.18-.9-.3-1.81-.44-2.71-.1-.68-.26-1.36-.33-2.05-.08-1.01-.12-2.04-.19-3.07-.02-.5-.1-.99-.16-1.49-.03-.6-.08-1.19-.08-1.8,0-.66.08-1.34.08-2.02,0-.47-.07-.92-.1-1.39.21-.09.38-.19.56-.19Zm.78,6.86c.92.26,1.85.19,2.77-.18.12-.05.35-.03.45.06.14.12.21.33,0,.5-.07.04-.1.14-.12.21-.26.83-.51,1.65-.77,2.49-.14.45-.31.9-.42,1.36-.06.31-.05.64-.1.95-.19,1.15-.05,2.3.17,3.41.18.89.44,1.75.94,2.51.44.66.84,1.38,1.26,2.07.03.07.12.12.19.19.42.54,1.03.79,1.58,1.15.14.11.21.33.26.51.02.03-.19.17-.31.21-.47.17-.94.31-1.43.48-.03,0-.07.02-.1.04-.45.29-.92.59-1.38.9-.12.09-.24.23-.33.37-.17.26-.05.43.23.38.56-.12,1.1-.28,1.62-.45.35-.1.66-.31,1.01-.38,1.08-.19,2.16-.33,3.27-.49,0-.45.04-.8,0-1.15-.03-.38-.09-.73-.45-1.01-.54-.42-.98-.99-1.53-1.41-.49-.36-.79-.85-1.08-1.36-.32-.52-.33-.54-.96-.38-.4.11-.92-.16-1.08-.54-.3-.76-.1-1.55.51-2.11.06-.03.1-.17.08-.24-.21-.85-.43-1.7-.64-2.57-.19-.86-.14-1.71.26-2.48.5-1.01,1.11-1.98,1.67-2.97.12-.25.24-.51.37-.75-2.41-.42-4.65-.96-6.25-2.87-.04,0-.07,0-.12.03.15,1.17.29,2.33.43,3.52Zm14.97,11.42c.31-.16.66-.25.92-.46.63-.47,1.24-.97,1.83-1.49.21-.2.26-.14.33.07.16.45.02.83-.24,1.2-.21.28-.42.57-.6.88-.57,1.01-1.14,2.04-1.72,3.07-.1.17-.19.35-.29.52.2.04.45.14.66.1.5-.08.99-.08,1.32.35,1.32-1.22,1.86-2.87,2.47-4.44.63-1.6.63-3.34.61-5.13-.1.07-.16.09-.17.12-.21.4-.42.82-.96.87-.07.02-.16.11-.23.18-.48.47-.94.97-1.46,1.41-.56.45-1.1.94-1.76,1.11-.24-.23-.43-.4-.62-.59-.35-.37-.77-.68-1.01-1.1-.73-1.16-1.26-2.44-1.57-3.78-.14-.61-.33-1.21-.35-1.84,0-.77.21-1.55.23-2.32,0-1.01.28-1.91.61-2.83.26-.77.69-1.45,1.22-2.07.27-.3.5-.65.74-.98-.03-.03-.07-.09-.1-.12-.14.03-.28.05-.4.09-.33.07-.64.21-.98.24-.6.05-1.23.07-1.86.09-.69,0-1.39,0-2.09,0-.26,0-.54-.11-.78-.06-.24.06-.43.06-.49-.15-.01-.12.11-.37.23-.45.9-.68,1.76-1.41,2.44-2.28.61-.79,1.21-1.55,1.65-2.44.49-.99.99-1.99,1.5-2.98.07-.15.1-.33.15-.52-.75.4-1.42.78-2.12,1.11-.4.2-.82.3-1.24.47-.29.13-.47.02-.64-.24-.14-.19-.35-.35-.52-.52-.42-.44-.92-.82-1.26-1.31-.34-.52-.59-1.13-.78-1.72-.24-.73-.47-1.5-.52-2.26-.05-.77.1-1.57.17-2.46-.38.3-.75.52-1.02.8-.33.35-.6.75-.89,1.13-.25.3-.19.49.12.72.21.15.51.33.31.64-.27.45-.31.91-.15,1.39.31,1.01.59,2.04.5,3.12-.02.1-.02.23,0,.35.05.57.26.87.65.96.36.07.74.19,1.13.22.31.04.68.05.95-.05.68-.28,1.55-.16,2.02.38.37.4.56,1.08.33,1.33-.22.24-.45.52-.74.67-.35.21-.79.32-1.15.49-.52.28-1.01.66-1.55.84-.54.19-.85.45-1.1.99-.36.78-.73,1.53-.61,2.49.73.24,1.48.47,2.21.76,1.05.4,2.11.67,3.33.27.01.26.15.55.07.76-.3.7-.68,1.34-1.01,2.02-.49.99-.59,2.07-.59,3.15,0,.8.24,1.62.34,2.42.06.3.2.42.47.44.3,0,.46.19.42.48-.05.75.09,1.43.44,2.11.38.76.68,1.57,1.27,2.21.33.35.55.78.87,1.15.29.36.59.64,1.06.42Zm1.32-4.48c-.29.21-.71.21-.83-.08-.37-.81-.77-1.61-1.05-2.42-.42-1.21-.64-2.42-.19-3.68.16-.4.09-.87.26-1.25.32-.77.73-1.5,1.1-2.25.05-.1.1-.22.17-.33.63-.8,1.12-1.67,1.46-2.62.09-.2.16-.39.28-.56.4-.54.53-1.13.47-1.79-.41.07-.8.1-1.16.19-1.01.22-2.02.52-3.03.69-.7.13-1.41.11-2.13.11-.15-.02-.34-.21-.45-.37-.02,0,.04-.1.09-.19.07-.07.14-.14.21-.19.38-.24.73-.52.97-.94.19-.35.4-.71.66-1.04.8-1.07,1.57-2.15,1.97-3.45.04-.11.09-.19.14-.3.44-.68.82-1.39,1.06-2.17.11-.32.32-.61.51-.91.29-.45.36-.94.31-1.48-.4.26-.75.49-1.1.73-.62.4-1.23.84-1.88,1.2-.52.3-1.09.51-1.63.79-.3.14-.66.28-.82.54-.28.42-.4.17-.63-.02-.99-.85-1.44-2.04-1.81-3.22-.47-1.51-.15-3.01.26-4.49.04-.12.06-.24.09-.38-.16-.02-.33-.09-.47-.07-.5.1-1.01.19-1.5.35-.74.22-1.53.34-2.07,1.02-.29.37-.76.58-1.11.89-.3.28-.71.49-.66,1.01.01.35-.28.36-.44.26-.75-.47-1.72-.4-2.37-1.08-.2-.21-.47-.38-.69-.59-.84-.78-1.69-1.53-2.12-2.63-.09-.24-.25-.47-.39-.73-.14.16-.21.26-.31.35-.33.29-.7.54-1.01.85-.54.54-1.04,1.1-1.57,1.65-.14.14-.33.23-.43.39-.45.64-.91,1.3-1.29,2-.37.7-.68,1.43-.96,2.17-.42,1.1-.83,2.22-1.15,3.35-.19.64-.17,1.34-.19,2,0,.09,0,.17-.02.23-.05.28-.16.38-.4.27-1.09-.48-2.17-1.02-2.83-2.1-.12-.23-.32-.4-.49-.61-.38.73-.71,1.44-1.13,2.09-.42.64-.84,1.27-.99,2.02-.06.2-.13.4-.21.59-.3.66-.65,1.3-.89,2-.23.68-.35,1.39-.52,2.12-1.62-.41-2.82-1.3-3.94-2.35-.08,1.01-.12,1.97-.15,2.93,0,.17-.09.35-.07.52.14.82.35,1.58.31,2.44-.05,1.09.14,2.19.54,3.2.38.96.61,1.97,1.06,2.91.44.95.7,2,1.01,3.01.11.34.11.73-.19.94-.38-.11-.7-.19-1.01-.28-.35-.11-.71-.18-1.04-.3-1.47-.55-2.96-.95-4.56-.9-.63.03-.77.21-.56.82.1.29.23.59.35.88.36.94,1.08,2,1.95,2.67.41.29.78.66,1.22.95.38.28.81.54,1.25.75.26.14.59.14.85.28.51.3.99.61,1.57.75.26.05.5.19.71.35.33.24.63.54.94.8.14.1.3.19.44.31.29.26.57.58.9.78.45.27.59.54.38.91-.52,0-.99-.02-1.46,0-.28.02-.57.09-.85.12-.56.05-1.15.02-1.69.14-1.18.28-2.17.92-3.01,1.85-.33.38-.8.64-1.17,1-.24.27-.78.35-.66.91.14.03.28.09.42.1.59.04,1.18.09,1.78.09.73-.02,1.46-.05,2.17-.17.58-.11,1.12-.46,1.69-.58.8-.17,1.62-.26,2.42-.35.56-.06,1.1-.06,1.65-.08.12,0,.33.05.37.12.05.16.07.38,0,.5-.37.56-.75,1.14-1.19,1.62-.69.8-1.21,1.66-1.51,2.67-.21.76-.63,1.44-.64,2.26-.02.45-.09.92-.11,1.37,0,.09.11.27.18.28.4.07.8.14,1.18.12,1.11-.03,2.21-.15,3.31-.19.68-.01,1.37.02,2.03.09.63.07,1.31.07,1.67.75.02.03.07.05.09.09.4.5.98.87,1.13,1.56.05.28.3.51.4.77.14.4.23.82.37,1.3,1.51-1.72,3.48-2.36,5.71-2.68,0-.17.01-.4-.02-.59-.02-.12-.09-.29-.17-.35-.3-.12-.61-.21-.93-.26-1.27-.24-2.56-.5-3.83-.68-1.21-.15-2.45-.21-3.67-.34-1.03-.13-2.05-.07-3.08-.3-.71-.16-1.13-.54-1.53-1.01-.31-.38-.49-.87-.3-1.39.18-.46.49-.77.91-1,.14-.06.24-.24.28-.4.17-.88.26-1.81.48-2.69.16-.63.47-1.24.73-1.83.11-.23.09-.35-.17-.4-.35-.07-.68-.21-1.04-.24-1.01-.09-2.04-.14-3.05-.23-.12-.02-.24-.14-.31-.24-.04-.06.01-.25.08-.28.21-.14.47-.21.68-.35.3-.2.61-.36.93-.5,1-.43,2.09-.64,3.09-1.05.11-.04.2-.12.28-.19-.07-.07-.12-.18-.21-.21-.5-.26-.99-.49-1.48-.75-.33-.17-.62-.43-.95-.59-1.2-.52-2.11-1.41-2.96-2.37-.39-.45-.79-.9-1.46-.49-.07.06-.18.07-.28.07-.7.02-1.41.07-2.13,0-.4-.03-.81-.61-.8-1.04.02-.42.09-.87.58-1.04.62-.23,1.22-.49,1.84-.68,1.01-.32,2.02-.58,3.01-.89.11-.02.25-.25.23-.35-.23-.92-.44-1.86-.77-2.75-.33-.94-.57-1.88-1.01-2.8-.48-.99-.69-2.13-.99-3.19-.05-.21.04-.45.04-.68.01-.15.05-.34-.02-.48-.35-.75-.75-1.48-1.08-2.23-.17-.38-.23-.82-.3-1.25-.03-.16.07-.34.11-.51.19.07.4.09.56.21.24.17.43.43.67.61.51.38.93.87,1.57,1.08.45.14.8.55,1.24.8.36.19.59.02.5-.42-.21-1.08-.02-2.12.28-3.13.19-.72.47-1.41.77-2.07.41-.89.88-1.74,1.34-2.63.15.09.31.14.41.24.77.73,1.69,1.25,2.65,1.71.3.14.66.14,1.01.17.09.02.24-.09.26-.14,0-.43.07-.9-.07-1.3-.15-.48-.21-.74-.14-.96.07-.19.24-.34.56-.56.17-.1.42-.17.63-.15.29,0,.41-.14.47-.39.12-.5.22-1.02.36-1.53.23-.85.38-1.74.75-2.54.61-1.22,1.36-2.38,2.05-3.57.42-.73.96-1.34,1.64-1.83.36.23.49.54.49.96,0,.28,0,.58.47.65.41.08.92.26,1.08.74.15.53.2,1.07.31,1.59.03.19.09.45.23.52.64.4,1.32.78,2.01,1.11.3.14.63.2.96.27.26.05.38-.11.35-.34-.03-.24-.16-.48-.24-.73-.02-.08-.07-.15-.07-.22.05-.23.08-.47.17-.68.12-.23.07-.58.47-.65.21-.03.45-.13.58-.29.2-.25.33-.56.48-.85.58-1.07,1.52-1.69,2.6-2.13.29.26.45.52.27.89-.69,1.53-.59,3.06.02,4.59.19.49.44.96.66,1.43.13.23.25.49.42.66.37.39.78.72,1.18,1.05.09.08.23.17.32.15.35-.1.71-.2,1.04-.34.44-.2.87-.39,1.29-.63.4-.23.8-.47,1.17-.75.26-.22.47-.52.71-.8.12.24.23.38.3.52-.93,2.77-2.13,5.38-4.04,7.56-.51.59-1.08,1.16-1.73,1.69.09.07.14.15.21.15,2.09-.05,4.2-.02,6.17-.92.24.31.29.59-.02.85-.07.07-.12.16-.18.25-.19.33-.33.73-.59.99-1.03.96-1.55,2.16-1.9,3.46-.15.65-.13,1.31-.29,1.95-.26,1.1-.12,2.19.07,3.27.19,1.17.64,2.21,1.18,3.26.38.78,1.01,1.29,1.62,1.84.04.04.16.06.21.02.63-.42,1.29-.82,1.88-1.29.49-.4.92-.87,1.37-1.32.3-.28.61-.56.86-.87.22-.28.38-.63.55-.96.32.19.39.46.37.77-.07.63-.1,1.23-.17,1.86-.14,1.03-.06,2.07-.32,3.12-.17.69-.35,1.37-.68,2.02-.27.57-.55,1.16-.73,1.77-.14.45-.43.73-.71,1.06-.38.46-.73.98-.94,1.52-.23.55-.54.94-1.13,1.08-.23.05-.39.15-.54.36-.26.35-.63.63-.98.89-.43.35-.9.66-1.35.97-.58.42-1.12.89-1.83,1.07-.21.05-.42.12-.63.2-.47.2-.92.42-1.41.58-.45.16-.56.33-.22.71.38.46.83.84,1.25,1.26.22.21.42.45.64.64.23.21.47.35.72.54.26.21.29.49,0,.64-.49.23-1,.44-1.5.53-.56.1-1.13.07-1.69.12-.7.07-1.39.15-2.07.24-.52.07-1.01.18-1.45.51-.15.12-.38.15-.53.27-.23.18-.58.35-.61.58-.06.4.08.83.14,1.27.22-.07.4-.14.59-.21.61-.24,1.2-.54,1.82-.73.91-.26,1.83-.47,2.75-.64.34-.07.7-.02,1.05.03.5.11.99.26,1.48.4.73-1.43,1.81-2.45,3.53-2.85-.14-.14-.22-.25-.33-.32-.47-.26-.96-.5-1.43-.78-.8-.47-1.58-.96-2.36-1.44-.11-.07-.23-.25-.21-.34.03-.13.19-.24.31-.33.11-.08.26-.12.4-.17.8-.44,1.6-.85,2.4-1.29.44-.24.91-.45,1.31-.75.45-.31.78-.8,1.25-1.04.99-.52,1.59-1.48,2.46-2.12.68-.49.94-1.34,1.53-1.95.61-.61.73-1.52.94-2.34.16-.64.16-1.3.24-1.95.12-.83.32-1.65.35-2.47.07-1.36.02-2.71-.23-4.05-.1-.51-.17-1.01-.24-1.53-.05,0-.12,0-.17-.02-.09.14-.13.31-.23.42-1.04.97-2.11,1.94-3.15,2.92-.17.16-.35.31-.52.43-.46.3-.94.56-1.38.89Zm-15.77-1.36c.07,1.28.45,2.48.68,3.71.18,1.05.42,2.07.63,3.1.05.26.14.52.19.8.12.56.23,1.12.31,1.67.07.49.12.98.21,1.6.91-.54,1.67-1.18,2.7-1.23.02-.04.02-.07.03-.11-.12-.14-.24-.28-.38-.4-.31-.26-.68-.48-.94-.82-.36-.43-.66-.92-.94-1.41-.45-.85-.87-1.7-1.27-2.57-.38-.84-.43-1.76-.5-2.66-.04-.72-.04-1.47.08-2.18.18-1.01.47-1.98.73-2.98.14-.5.3-1.02.47-1.6-.74.16-1.44.33-2.15.12-.09,0-.33.21-.35.32-.02.59-.02,1.18.05,1.77.12.96.4,1.9.45,2.87Zm23.8-1.21c-.11-.54-.26-1.07-.39-1.6-.14-.6-.21-1.22-.38-1.8-.31-1.02-.7-2.02-.64-3.11,0-.14-.09-.28-.13-.42-.45.56-.83,1.06-1.27,1.53-.5.54-1.06,1.04-1.63,1.53-.3.25-.65.42-.99.61-.2.11-.4.16-.6.26-.34.19-.69.39-1.01.61-.24.19-.43.42-.66.65-.12.1-.24.2-.35.31-.06-.19-.2-.38-.19-.56.07-.4.23-.78.33-1.18.11-.44.11-.91.3-1.31.54-1.08,1.15-2.12,1.74-3.18.17-.32.35-.63.54-.94.24-.39.56-.75.77-1.17.52-1.01,1.01-2.05,1.49-3.1.28-.61.54-1.22.44-1.96-.26.12-.49.28-.73.34-.53.18-1.06.34-1.6.46-.27.07-.54.13-.82.19-.48.12-.97.21-1.46.29-.67.11-1.33.14-2.01.16-.12.02-.29-.1-.4-.23-.05-.05-.05-.24,0-.29.46-.44.77-.94,1.08-1.5.35-.64.86-1.23,1.26-1.88.34-.57.67-1.16.95-1.77.14-.32.19-.68.23-1.01.05-.73.12-1.46.12-2.2-.02-.6-.1-1.21-.16-1.82-.03-.35-.05-.72-.1-1.05-.02-.19-.1-.36-.17-.62-.16.27-.25.5-.39.64-.45.45-.94.85-1.41,1.27-.47.45-.95.92-1.44,1.36-.19.17-.4.35-.63.43-.87.33-1.74.63-2.71.98-.07-.23-.14-.47-.21-.72-.04-.14-.02-.29-.07-.43-.25-.94-.33-1.86-.19-2.82.1-.8.5-1.46.85-2.14.12-.25.28-.47.45-.68.19-.21.44-.38.72-.61-.2-.09-.3-.16-.44-.19-.31-.07-.64-.16-.96-.19-.69-.09-1.39-.19-2.09-.21-.43-.02-.87.1-1.32.14-.94.08-1.9.03-2.73.71-.8.66-1.64,1.29-2.04,2.32-.12.31-.28.24-.45.05-.21-.21-.42-.44-.64-.65-.46-.36-.93-.71-1.17-1.28-.21-.53-.49-1.05-.82-1.5-.57-.78-1.03-1.64-1.34-2.56-.07-.17-.19-.35-.31-.54-.33.3-.63.54-.91.8-.85.79-1.72,1.53-2.52,2.37-.7.71-1.29,1.55-1.97,2.28s-1.16,1.57-1.62,2.42c-.48.89-.83,1.86-1.08,2.84-.17.66-.4,1.3-.2,2.02.08.26,0,.59-.09.87-.07.33-.3.34-.54.12-.12-.11-.24-.23-.35-.35-.49-.63-1.17-1.15-1.27-2.04-.03-.33-.07-.66-.1-.99-.04-.23-.09-.43-.14-.73-.13.19-.18.31-.26.4-.68.71-1.34,1.41-1.94,2.23-.48.68-.88,1.37-1.2,2.16-.45,1.14-.97,2.26-1.42,3.41-.25.64-.47,1.32-.25,2.03.05.2-.02.4-.02.61-.03.02-.08.02-.12.04-.12-.11-.24-.19-.36-.3-.32-.29-.63-.61-.96-.9-.11-.11-.26-.18-.35-.3-.75-.96-1.36-1.98-1.76-3.13-.03-.11-.14-.19-.24-.32-.09.25-.14.39-.19.54-.32.98-.7,1.95-.94,2.95-.23.87-.35,1.79-.47,2.69-.07.42-.09.87-.09,1.29,0,.52.05,1.05.07,1.57.02.56-.05,1.15.04,1.7.15,1.12.52,2.2,1.01,3.24.47.98.95,1.95,1.47,2.93.27.48.58.94.87,1.42.09.14.16.28.21.44.04.14.07.33,0,.4-.08.09-.29.12-.41.09-.25-.09-.47-.23-.7-.33-.54-.28-1.03-.65-1.58-.81-.6-.17-1.22-.19-1.83-.19-.65.02-1.29.11-1.92.23-.4.09-.78.3-1.16.47-.04.02-.05.14-.05.21-.13,1.01.31,1.91.66,2.82.14.33.4.62.59.94.28.49.56.97.82,1.46.54,1.04,1.68,1.2,2.54,1.76.4.26.89.36,1.3.57.58.32,1.13.63,1.67.99.33.25.74.51.72,1.01,0,.16,0,.21-.21.3-.3.1-.47-.05-.71-.05-.7,0-1.41-.02-2.09.26-.79.31-1.45.78-1.94,1.48-.38.52-.76,1.06-1.23,1.5-.85.76-1.93,1.13-3.01,1.44-.21.05-.4.16-.63.24.04.04.07.11.14.14.99.63,2.14.96,3.15,1.57.04.02.09,0,.12,0,.33.09.72.09.98.26.47.31.95.42,1.46.42,1.04-.02,2.07-.11,3.11-.18.41-.01.81-.1,1.19-.17.14-.02.33-.17.36-.14.21.21.33,0,.49-.05.14-.05.28-.12.44-.12.26-.04.52-.02.8-.02.07.17.17.36.12.49-.05.08-.16.14-.38.14-.06,0-.11.08-.16.14-.66.64-1.27,1.32-1.81,2.07-.63.9-.99,1.91-1.36,2.9-.4,1.06-.19,2.14,0,3.22.05.3.28.39.58.23.29-.16.61-.33.94-.42.64-.17,1.32-.26,1.96-.45,1.05-.31,2.09-.14,3.14-.07.83.07,1.65.23,2.47.35.05,0,.1.02.15.03.53.19,1.07.37,1.57.56.12.05.28.17.3.28.01.24,0,.5-.04.75-.07.43-.22.88-.19,1.32.05.68.19,1.36.33,2.04.05.27.26.24.47.12.44-.3.91-.58,1.34-.87.42-.28.8-.58,1.22-.84.56-.38,1.11-.75,1.71-1.09.26-.16.57-.27.88-.35.7-.21,1.41-.37,2.09-.59.65-.23.73-.65.32-1.19-.53.12-1.07.23-1.55.42-.84.3-1.66.63-2.44,1.03-.37.17-.68.48-.92.81-.47.7-1.05,1.28-1.83,1.62-.21.09-.38-.07-.35-.31.05-.64.12-1.31.16-1.95,0-.17-.05-.33-.11-.49-.21-.54-.47-1.06-.64-1.62-.17-.55-.59-.92-1.05-1.11-.97-.42-2.01-.45-3.06-.35-.29.04-.45-.07-.63-.21-.06-.07-.15-.14-.22-.14-.42.11-.85.25-1.27.33-.89.18-1.78.32-2.67.49-.38.07-.6-.03-.62-.38-.04-.3-.02-.58-.02-.87-.02-1.06.42-2.02.78-2.99.32-.86.67-1.69,1.08-2.48.02-.03.04-.07.06-.1.33-.63.8-1.17,1.2-1.74.08-.14.17-.28.31-.52-.8,0-1.46-.02-2.11.01-.47.02-.94.09-1.39.21-.5.14-.96.4-1.46.54-.37.09-.77.09-1.17.09-.8,0-1.62.03-2.42-.07-.57-.07-1.11-.33-1.65-.52-.14-.05-.24-.21-.37-.33.11-.11.21-.25.33-.33.56-.42,1.15-.8,1.69-1.26.46-.4.84-.9,1.27-1.32.65-.63,1.47-.89,2.32-1.15,1.15-.35,2.31-.61,3.6-.33-.12-.19-.17-.33-.26-.4-.63-.49-1.22-1.01-1.9-1.41-1.37-.84-2.96-1.24-4.28-2.21-1.09-.82-2.21-1.58-2.87-2.82-.45-.84-.94-1.67-.92-2.68.01-.23.03-.38.31-.38.7-.02,1.38-.07,2.05-.09.37,0,.75.05,1.1.12.45.11.87.26,1.31.4.85.25,1.7.51,2.59.77.03-.11.12-.23.1-.32-.15-.45-.31-.9-.47-1.35-.18-.51-.36-1.03-.55-1.54-.09-.24-.28-.43-.4-.66-.18-.34-.32-.71-.46-1.06-.26-.68-.54-1.34-.73-2.03-.17-.7-.24-1.43-.34-2.15-.16-1.2-.3-2.4-.42-3.6-.04-.36.02-.73.05-1.1.09-.74.17-1.49.3-2.22.03-.25.17-.46.26-.68.17.14.4.22.54.4.55.75,1.04,1.55,1.98,1.91.45.18.84.51,1.34.82.63-3.53,2.23-6.49,4.25-9.42.31.53.57.96.85,1.41.56.89,1.32,1.54,2.35,1.88.05-.14.14-.26.14-.38-.02-.97.21-1.9.5-2.82.35-1.13.68-2.26,1.26-3.31.55-.97,1.08-1.96,1.65-2.92.23-.37.59-.64.89-.96.71-.73,1.44-1.46,2.17-2.17.28-.28.6-.53.84-.82.33-.4.57-.42.85.03.53.84,1.08,1.66,1.55,2.51.68,1.24,1.9,1.78,2.98,2.44.33-.3.63-.58.94-.86.09-.08.23-.15.33-.26.43-.38.8-.88,1.3-1.16,1.29-.73,2.72-1.05,4.2-1.01.16,0,.38.26.4.42.05.26-.02.53-.09.78-.33,1.08-.54,2.16-.48,3.31.03,1.16.54,2.12,1.09,3.09.07.09.28.2.39.16.45-.14.88-.33,1.32-.5.19-.09.36-.18.54-.28.4-.19.8-.39,1.16-.61.58-.37,1.07-.87,1.69-1.1.59-.22.96-.64,1.39-1.04.09-.09.23-.14.35-.21.07.19.19.36.21.56.04.19-.05.38-.03.57.08.63-.07,1.2-.32,1.77-.14.32-.33.6-.47.89-.27.63-.5,1.27-.8,1.88-.43.89-.87,1.76-1.34,2.61-.5.87-1.06,1.73-1.62,2.56-.22.35-.5.68-.74,1.01.01.05.05.11.08.16,2.07-.33,4.11-.79,6.09-1.62.07.16.21.33.18.5-.09.67-.16,1.34-.38,1.95-.37.93-.84,1.8-1.33,2.68-.28.53-.69.98-.95,1.5-.46.98-1.1,1.88-1.31,2.96-.09.45-.24.92-.24,1.39.01,1.41.47,2.72,1.2,3.92.15.26.57.29.82.1.13-.12.27-.22.41-.34.51-.41,1.01-.82,1.52-1.24.35-.3.64-.64,1.01-.92.73-.56,1.23-1.27,1.58-2.11.07-.19.16-.38.3-.54.31-.38.43-.36.62.09.07.17.13.36.16.54.21.87.45,1.72.59,2.59.11.61.09,1.24.14,1.85.12,1.49.11,2.97-.24,4.43-.12.58-.18,1.21-.32,1.78-.17.71-.31,1.44-.62,2.09-.37.73-.84,1.41-1.36,2.04-.56.69-1.2,1.32-1.86,1.91-.65.57-1.38,1.08-2.06,1.62-.41.31-.8.66-1.21.97-.3.21-.58.49-.91.54-.82.14-1.5.54-2.14,1.03-.21.17-.14.33.03.44.69.37,1.38.75,2.07,1.13l.6.33c.47.24.92.5,1.37.76.26.14.23.37.18.58-.02.08-.23.14-.35.17-.38.05-.79.05-1.15.16-.73.24-1.36.66-1.85,1.29-.29.36-.4.74-.29,1.2.03.12.03.24.03.36,0,.33-.29.56-.61.47-.36-.1-.73-.26-1.11-.33-.66-.14-1.34-.29-2.04-.31-.5-.04-1.02.14-1.55.21-.9.12-1.68.54-2.48.9-.81.35-.98.8-.58,1.66.26-.11.51-.25.78-.32.63-.17,1.26-.36,1.9-.41.52-.04,1.06.06,1.57.17.35.07.66.26,1.01.35.38.1.78.14,1.15.26,1.15.36,2.24.83,3.25,1.5.58.36,1.17.67,1.6,1.21.18.25.32.53.54.91.04-.24.09-.38.07-.51-.09-.66-.17-1.32-.24-1.98-.12-.97-.35-1.91-.96-2.72-.26-.31-.59-.62-.94-.81-.23-.11-.4-.19-.38-.4,0-.14.17-.37.31-.4.49-.14.99-.27,1.5-.32.87-.08,1.76-.05,2.61-.19.83-.14,1.6.04,2.52.24-.22-.4-.43-.69-.59-1.02-.56-1.1-1.43-1.93-2.44-2.6-.87-.57-1.82-1.06-2.9-1.14-.04,0-.07-.02-.11-.04-.12-.08-.23-.25-.26-.36s.14-.34.26-.41c.63-.31,1.29-.57,1.9-.88,1.01-.51,2.02-1.01,2.98-1.59.64-.4,1.27-.87,1.79-1.41.52-.52.9-1.18,1.32-1.81.16-.24.35-.5.42-.8.37-1.36.68-2.73,1.06-4.09.4-1.49.72-3.01.56-4.56-.09-.9-.28-1.81-.45-2.71Zm1.32,26.94c.35.11.7.26,1.11.44-.1-.35-.17-.74-.31-1.1-.33-.92-.68-1.85-1.08-2.73-.21-.51-.52-.98-.85-1.41-.7-.84-1.43-1.62-2.32-2.25-.59-.42-1.13-.96-1.89-1.08-.28-.05-.3-.45-.02-.66.31-.24.68-.42,1.01-.66.43-.31.89-.61,1.29-.99.74-.72,1.61-1.33,2.1-2.27.65-1.27,1.34-2.52,1.83-3.84.42-1.1.54-2.3.83-3.43.21-.87.39-1.72.42-2.63.07-1.04-.31-2-.48-2.99-.23-1.22-.46-2.44-.82-3.61-.42-1.3-.35-2.64-.59-3.95-.3-1.6-.04-3.15.17-4.7.03-.14.02-.29.02-.5-.46.22-.87.43-1.27.64-.6.32-1.19.61-1.76.92-.26.16-.51.35-.73.56-.39.31-.75.63-1.12.96-.05.05-.08.14-.15.19-.11.1-.32.3-.37.28-.19-.14-.31-.35-.14-.61,0-.01,0-.02.02-.03l.02-.02c.22-.37.48-.73.71-1.1.45-.78.97-1.51,1.34-2.33.35-.82.57-1.69.77-2.54.26-1.05.48-2.11.31-3.22-.1-.56-.12-1.13-.19-1.71-.02-.1-.07-.21-.14-.36-.23.2-.42.4-.63.55-.59.49-1.22.94-1.79,1.43-.26.24-.44.57-.66.84-.12.12-.3.19-.45.27-.07-.19-.23-.43-.18-.57.61-1.43.85-2.94,1.19-4.44.17-.78.05-1.62.03-2.42-.03-.73-.07-1.46-.19-2.17-.11-.72-.3-1.41-.51-2.09-.1-.35-.36-.63-.52-.94-.35-.73-.68-1.46-1.01-2.2-.07-.12-.15-.22-.29-.43-.28.78-.53,1.51-.8,2.21-.14.33-.39.63-.58.96-.21.36-.4.76-.63,1.11-.41.63-.85,1.22-1.32,1.79-.1.14-.36.21-.56.21-.29-.03-.24-.31-.22-.5.07-.51.17-.99.22-1.5.07-.92.18-1.86.18-2.8,0-.35-.28-.7-.33-1.05-.11-.59-.39-.85-.98-.9-.8-.05-1.6-.26-2.4-.3-.8-.05-1.62.02-2.4.26-.49.16-1.03.16-1.53.23-.8.12-1.55.37-2.2.89-.24.19-.52.35-.78.52-.23.16-.45.31-.64.49-.3.24-.66.12-.79-.26-.22-.72-.47-1.41-.68-2.13-.33-1.22-.95-2.29-1.54-3.37-.04-.06-.07-.09-.11-.14-.5.22-.97.45-1.46.66-.85.38-1.6.94-2.33,1.51-.56.46-1.13.93-1.66,1.43-.48.49-.94,1.03-1.39,1.57-.31.34-.63.71-.94,1.08-.68.78-1.1,1.72-1.46,2.69-.12.33-.26.6-.66.51-.35-.09-.51-.28-.54-.65-.02-.4-.18-.78-.23-1.18-.1-.68-.17-1.37-.26-2.12-.12.17-.23.31-.35.45-.17.23-.35.49-.55.7-.53.48-.98,1.02-1.34,1.65-.42.68-.91,1.32-1.36,1.98-.63.91-1.33,1.78-1.87,2.74-.41.75-.66,1.6-1,2.4-.32.76-.53,1.53-.51,2.35,0,.12-.02.28-.1.35-.26.29-.23.64-.25.99,0,.12-.08.33-.15.33-.14.02-.35-.04-.42-.14-.37-.6-.72-1.19-1.02-1.82,0-.01-.01-.01-.01-.02-.14-.27-.14-.6-.17-.89-.06-.63-.11-1.26-.18-1.88,0-.09-.07-.16-.1-.19-.45.47-1.55,1.68-2,2.12-.09.09-.25.07-.39.1-.01-.03-.03-.08-.07-.13.54-.61,1.73-2.01,2.25-2.62.03-.05.03-.17.09-.22.08-.11.24-.3.29-.28.14.05.33.19.35.33.09.57.19,1.17.17,1.74-.03,1.11.2,2.12.84,3.1.04-.19.07-.38.12-.58.25-.9.47-1.81.77-2.69.24-.79.52-1.57.87-2.32.26-.54.64-1.03.99-1.51.52-.79,1.08-1.55,1.6-2.33.44-.65.84-1.31,1.31-1.94.38-.48.85-.9,1.25-1.37.24-.28.38-.63.59-.92.35-.47.59-.49.87-.06.04.06.07.12.07.19-.07,1.08-.02,2.16.26,3.22.04.13.13.23.18.35.08-.08.21-.14.26-.24.26-.51.47-1.05.75-1.53.29-.49.61-.98.94-1.41.36-.47.75-.91,1.15-1.33.38-.38.78-.74,1.18-1.11.23-.19.45-.38.66-.57.51-.47.98-1.01,1.53-1.41.59-.44,1.29-.72,1.95-1.08.44-.25.87-.47,1.29-.75.24-.16.63.03.73.36.14.46.24.93.49,1.33.64,1.02,1.06,2.16,1.41,3.3.07.21.12.42.19.63.1.28.28.3.52.14.66-.42,1.29-.85,1.99-1.2.41-.21.9-.3,1.37-.38.8-.16,1.6-.3,2.4-.37.73-.07,1.47-.1,2.2-.07.74.05,1.49.19,2.22.35.63.12,1.19.33,1.19,1.2,0,.47.29.94.35,1.43.07.71.05,1.42.01,2.14-.01.28-.19.56-.26.83-.05.21-.05.44-.07.65.04.02.07.02.11.03.64-1.01,1.37-1.98,1.91-3.04.54-1.08.91-2.25,1.38-3.47.15.21.31.37.4.54.35.77.66,1.55,1.02,2.3.28.59.67,1.13.89,1.74.4,1.13.72,2.3.77,3.52.03.55.17,1.11.15,1.67-.03.75-.12,1.51-.24,2.26-.14.84-.36,1.65-.57,2.52.15,0,.24.04.27,0,.56-.41,1.14-.85,1.68-1.3.26-.21.6-.37.71-.77.02-.05.31-.1.35-.07.12.16.24.35.28.56.14.91.29,1.81.33,2.73.03.72-.06,1.47-.19,2.16-.25,1.15-.54,2.3-.93,3.4-.19.57-.64,1.06-.95,1.6-.07.12-.09.28-.14.41.12-.06.26-.13.36-.22.16-.12.3-.28.45-.37.8-.43,1.61-.87,2.41-1.29.47-.22.94-.43,1.27-.85.05-.05.24-.07.24-.05.07.21.21.43.17.61-.08.4-.31.78-.4,1.18-.14.75-.22,1.52-.31,2.28-.05.35-.1.7-.09,1.05.04.52.11,1.04.18,1.56.02.28.07.54.07.8,0,.96.17,1.87.47,2.79.24.77.36,1.58.55,2.38.2.93.35,1.88.61,2.81.25.94.18,1.89.04,2.82-.16.97-.47,1.91-.7,2.87-.22.89-.4,1.77-.71,2.64-.28.79-.66,1.54-1.08,2.27-.49.87-1.04,1.72-1.62,2.54-.19.28-.54.45-.82.68-.62.48-1.23.97-1.86,1.44-.3.23-.3.33,0,.56.49.36.96.76,1.46,1.09,1.13.75,1.85,1.88,2.68,2.91.21.23.28.56.4.85.28.7.61,1.38.77,2.13.16.69.5,1.34.75,2.02.05.14.08.33.03.47-.05.22-.19.31-.42.1-.48-.45-1.11-.64-1.75-.78-.66-.14-1.31-.37-1.95-.58-.89-.33-1.8-.47-2.74-.19-.22.07-.47.05-.69.11-.52.1-.66.28-.56.78.21,1.03.02,2.02-.26,2.98-.38,1.25-.82,2.49-1.29,3.72-.15.44-.45.84-.69,1.25-.13.23-.23.47-.32.65-.62-.7-1.25-1.32-1.81-2-.59-.72-1.3-1.29-2.07-1.78-.66-.42-1.39-.73-2.09-1.08-.96-.47-1.91-.94-2.9-1.36-.82-.34-1.68-.29-2.51-.05-.44.12-.52.51-.42,1.17.18,1.08.12,2.16,0,3.24-.03.34-.07.69-.09,1.04-.07.85-.13,1.69-.17,2.52-.02,1.05.04,2.09-.02,3.12-.03.75-.19,1.48-.29,2.21,0,.09-.02.19-.04.28-.07.97-.15,1.95-.24,2.92-.05.66-.09,1.33-.18,1.97-.12.87-.29,1.72-.47,2.68.32.02.67.07,1.01.05.73-.03,1.45-.15,2.18-.15.57,0,1.15.15,1.74.2.23.02.45-.05.7-.05.5-.01.99.02,1.49-.01.39-.04.47-.21.4-.6-.05-.28-.05-.57-.08-.87-.07-.68-.04-1.37-.37-2.03-.14-.3-.1-.68-.12-1.03-.11-.99-.23-2-.24-2.99-.02-.4.1-.84.27-1.21.27-.53.82-.41,1.24-.33.31.06.7.35.8.63.24.73.38,1.52.54,2.28.05.23.09.45.12.73.44-.03.89-.05,1.32-.1.68-.11,1.35-.23,2.02-.33.06-.02.16,0,.2-.06.41-.34.83-.19,1.21.06.14.08.3.28.3.43.03.47-.02.96-.04,1.34-.59.16-1.06.3-1.53.42-.36.09-.71.19-1.06.26-.43.07-.9.09-1.32.19-.16.05-.35.32-.35.46.05.71.17,1.41.26,2.05.96-.02,1.88-.05,2.79-.05.36,0,.73.01,1.06.08.17.04.42.2.43.33.09.53.11,1.08-.28,1.52-.12.16-.41.28-.57.24-.5-.12-.87.23-1.29.32-.75.17-1.48.38-2.23.55-.33.07-.67.09-1,.09-1.03,0-2.01.33-2.98.59-1.05.28-2.07.58-3.12.85-.85.25-1.72.49-2.57.72-.35.09-.72.1-1.08.14-.45.05-.65.22-.66.68,0,.12-.02.24-.06.36-.2.98-.33,1.93-.2,2.93.05.45-.06.92-.11,1.37-.02.23,0,.35.26.38.44.06.85.18,1.27.23.84.07,1.67.1,2.51.17.57.06,1.15.14,1.7.16.49.02.96-.1,1.43-.05.4.03.8.19,1.19.35.48.22.97.48,1.44.78.37.23.7.54,1.03.8.05.04.07.12.1.14.38.1.58.31.44.73-.18.56-.56.91-1,.92-.26,0-.5.06-.74.07-.63.04-1.15-.28-1.69-.54-.35-.15-.75-.26-1.13-.36-.46-.12-.93-.21-1.38-.3-.24-.03-.49,0-.75-.02-.26,0-.52-.06-.76,0-.56.1-1.08.28-1.62.4-.23.05-.45.07-.66.07-.23.01-.47-.04-.68.01-.68.16-.72-.01-.75.77-.02.21-.07.44-.12.64-.11.47-.59.61-1.1.61-.43.02-.7-.27-.82-.83-.07-.28-.08-.58-.19-.84-.05-.17-.22-.43-.29-.41-.23.05-.49.17-.61.34-.14.19-.14.49-.19.75-.11.63-.46,1.03-1.07,1.17-.29.07-.73-.25-.85-.72-.1-.4-.1-.83-.1-1.25-.04-.52-.02-.5-.54-.4-.51.09-1.03.16-1.55.24-.68.11-1.36.27-2.06.34-.57.08-.73.2-.8.8-.05.4-.24.73-.68.83-.26.07-.43.35-.8.19-.57-.24-.57-.68-.55-1.16,0-.4-.2-.53-.56-.4-.17.03-.37.07-.54.1-.66.11-.8-.1-.68-.75.11-.59.52-.83.94-1.09,1.24-.81,2.58-1.34,3.99-1.74.97-.27,1.93-.56,2.89-.86.67-.21.99-.75,1.08-1.39.1-.66.12-1.34.19-2,.1-1.01.22-2.04.33-3.05.03-.5.03-1.01.1-1.51.11-.94.28-1.88.4-2.84.04-.3-.02-.59.02-.89.1-1.11.23-2.23.37-3.32.03-.3.05-.42-.3-.44-.56-.01-1.11-.12-1.69-.14-.1,0-.31.2-.33.33-.09.53-.14,1.05-.17,1.57-.04.47,0,.94-.02,1.41-.02.54-.24.99-.68,1.31-.16.1-.42.08-.64.08-.67.02-1.03-.34-1.12-.99-.12-.87-.19-1.74-.26-2.61-.03-.47.02-.94-.02-1.41-.03-.36-.26-.54-.62-.59-.58-.11-1.15-.26-1.73-.35-.64-.12-1.3-.19-1.95-.31-.26-.04-.5-.14-.76-.19-1.05-.21-1.83-.68-2.19-1.76-.2-.54.31-1.79.76-2.04.11-.07.24-.1.37-.1.74-.02,1.51,0,2.28-.02.57-.02,1.15-.07,1.7-.19.12-.02.25-.32.26-.49.07-.47-.01-.97.13-1.41.1-.36.31-.66.59-.87.48-.35,1.13-.43,1.7-.14.3.16.56.59.63.92.1.65.03,1.29.05,1.94.02.26.05.52.05.78,0,.17-.01.33-.03.5,0,.04-.02.09-.02.13.58,0,1.17.01,1.74,0,.68-.04,1.34-.07,2-.14.16-.02.4-.16.44-.28.26-.94.57-1.88.47-2.87-.04-.47-.11-.96-.07-1.43.09-1.2.21-2.39.31-3.59.04-.21.06-.43,0-.64-.03-.17-.05-.4-.4-.33-.4.07-.82.07-1.22.1-.67.06-1.37.04-2,.21-.82.25-1.67.45-2.35,1.05-.31.26-.73.4-1.04.64-.44.33-.82.7-1.2,1.06-.14.14-.25.21-.33.21-.11,0-.19-.09-.28-.26-.37-.75-.79-1.48-1.03-2.28-.28-.91-.61-1.83-.5-2.8.03-.28.03-.56.05-.86-.84.13-1.55.21-2.28.33-.37.07-.73.23-1.1.34-.61.17-1.2.34-1.79.52-.19.05-.37.19-.56.24-.42.11-.75.35-1.09.54-.4.21-.81.4-1.17.66-.51.37-.94.77-1.29,1.31-.28.45-.8.73-1.25,1.13-.11-.16-.19-.28-.25-.4-.22-.65-.47-1.27-.66-1.92-.15-.57-.26-1.16-.33-1.75-.07-.63-.07-1.26-.1-1.9-.04-.7-.18-1.41-.14-2.12.03-.72.19-1.43.35-2.13.15-.71.03-.85-.72-.9-.87-.06-1.77-.07-2.61-.26-.89-.21-1.63-.8-2.31-1.4-1.05-.9-2.06-1.84-3-2.85-.4-.4-.62-1.01-.81-1.55-.3-.8-.49-1.62-.7-2.44-.11-.35.12-.59.47-.48.78.24,1.57-.02,2.35-.04.24,0,.49-.14.76-.23-.05.49-.34.67-.71.47-.07-.03-.17-.07-.24-.05-.65.12-1.31.25-1.95.39-.09.01-.18.19-.18.27.11,1.24.37,2.42,1.15,3.45.93,1.24,2.13,2.16,3.33,3.06.21.16.35.4.55.51.42.19.86.4,1.31.47.8.14,1.64.19,2.45.26.53.05,1.07.07,1.66.09.31.4-.25.66-.32,1.04-.12.61-.36,1.2-.41,1.79-.09.86-.06,1.71-.02,2.56.05.92.1,1.83.28,2.73.1.6.42,1.17.64,1.75.04.1.07.2.09.31.05.4.12.45.47.26.22-.12.47-.28.64-.47.73-.8,1.67-1.32,2.56-1.91.73-.49,1.52-.74,2.3-1,.33-.1.63-.29.96-.4,1.04-.33,2.08-.62,3.18-.62.21,0,.42-.06.61-.14.31-.16.42,0,.42.26-.04.35-.14.68-.16,1.02-.03.39-.07.79,0,1.15.23,1.01.38,2.04,1.05,2.91.15.19.2.45.33.71,1.32-.9,2.43-2,3.97-2.48,1.51-.47,3.04-.67,4.71-.74.05-.85.11-1.72.16-2.62-.14.03-.21.03-.28.05-.49.15-.96.35-1.46.43-1.01.18-1.9.59-2.73,1.13-.93.6-1.81,1.24-2.72,1.87-.28.19-.56.4-.84.55-.06.06-.29-.05-.31-.12-.28-.94-.87-1.81-.63-2.87.11-.47.09-.97.09-1.46,0-.12-.12-.3-.22-.35-.96-.52-2.01-.7-3.09-.75-1-.03-2.03-.05-3.06.02-.68.05-1.36.28-2.04.4-.8.16-1.51.54-2.22.94-.18.1-.33.24-.51.35-.29.15-.47.07-.49-.26-.07-.6-.17-1.17-.15-1.76.02-.63.08-1.29.24-1.9.38-1.48.82-2.96,1.69-4.25.31-.47.66-.9.97-1.35.09-.14.11-.32.14-.44-.55.12-1.06.28-1.58.33-.94.11-1.9.18-2.85.21-.28.02-.6-.09-.87-.21-1.1-.43-2.2-.92-3.28-1.37-.47-.19-.97-.35-1.41-.6-.75-.41-1.39-.99-1.91-1.67.4-.43.87-.2,1.23-.14.89.16,1.57-.24,2.27-.6.83-.44,1.32-1.22,1.75-1.99.42-.75,1.1-1.11,1.82-1.43.92-.38,1.89-.64,2.94-.61-.33-.53-.86-.73-1.34-.97-.82-.42-1.66-.89-2.49-1.29-1.15-.56-1.73-1.6-2.35-2.63-.65-1.04-1.2-2.12-1.36-3.36-.07-.55,0-1.14,0-1.75.37-.09.8-.18,1.24-.3.57-.17,1.14-.42,1.74-.52.76-.11,1.55-.14,2.31.17.42.19.84.33,1.25.49.04-.02.07-.05.11-.07-.05-.17-.11-.33-.18-.49-.64-1.51-1.37-3.01-1.94-4.58-.3-.76-.39-1.65-.44-2.48-.07-1.07-.07-2.13,0-3.19.05-1.11.16-2.23.37-3.32.22-1.12.57-2.23,1.06-3.28.35-.76.69-1.51,1.06-2.28.31.18.34.21.37.51,0,.04.01.09.01.15v.04c.19.59.4,1.17.58,1.76.07.19.03.4.08.57.28.82.7,1.55,1.33,2.23.14-.38.31-.71.38-1.08.21-1.04.77-1.93,1.3-2.84.27-.45.49-.9.75-1.34.47-.74.91-1.51,1.47-2.19.6-.77,1.32-1.44,2-2.16.24-.24.48-.45.71-.66.45.23.4.64.4.98,0,.8.09,1.6.37,2.35.1.31.34.59.62.83.04-.49,0-.97.14-1.44.26-.96.56-1.94.94-2.86.32-.8.73-1.57,1.19-2.3.34-.55.81-1.06,1.25-1.56.57-.66,1.15-1.33,1.77-1.97.74-.77,1.47-1.53,2.27-2.23.54-.45,1.16-.82,1.77-1.18.37-.23.58-.11.73.31.49,1.26.96,2.49,1.47,3.73.2.52.45,1.06.76,1.53.23.35.59.59.91.85.05.04.24-.02.31-.09.59-.6,1.11-1.28,1.78-1.79.54-.42,1.21-.64,1.93-.68.82-.03,1.63-.17,2.47-.19.57-.02,1.15.05,1.72.14.65.11,1.27.28,1.92.4.33.05.52.23.64.51.02.05.05.15.04.19-.14.24-.27.52-.46.69-.47.47-.83.98-1.08,1.6-.2.53-.27,1.08-.45,1.59-.28.82.02,1.53.12,2.28.04.23.16.33.42.24.99-.29,1.9-.69,2.65-1.44.69-.7,1.44-1.38,2.16-2.07.5-.49.78-1.12,1.07-1.73.09-.21.28-.55.39-.55.33.03.33.36.38.66.09.47.26.94.37,1.43.12.57.26,1.16.27,1.75.04.75.02,1.5-.07,2.25-.1.87-.26,1.74-.43,2.61-.04.23-.17.43-.3.63-.36.62-.66,1.28-1.09,1.84-.59.75-.98,1.67-1.87,2.18-.06.03-.13.17-.1.24.04.09.16.21.24.21.3,0,.63.02.91-.09.9-.29,1.83-.61,2.7-1.01.83-.38,1.69-.76,2.29-1.49.11-.14.42-.3.47-.25.16.14.27.35.3.54.04.28-.03.56-.03.82-.02.24,0,.49,0,.73s0,.45-.02.68-.02.45-.09.66c-.05.21-.17.4-.26.59-.16.33-.35.63-.49.96-.38.78-.71,1.58-1.11,2.35-.14.26-.28.49-.44.71,0,.01-.01.01-.01.02-.15.24-.32.46-.46.7-.43.75-.87,1.49-1.28,2.24-.18.3-.28.63-.47.91-.34.47-.53.99-.6,1.55,0,.08,0,.22.06.24.07.04.19.02.26-.03.68-.42,1.37-.82,2.03-1.29.37-.25.63-.66,1-.92.78-.56,1.23-1.38,1.81-2.11.05-.09.08-.19.15-.28.05-.09.14-.24.19-.24.11.03.23.12.28.21.07.12.11.26.11.4-.06,1.58.4,3.08.78,4.59.38,1.55.8,3.1,1.06,4.65.18.99.11,2,0,3.01-.14,1.29-.52,2.51-.82,3.74-.2.91-.5,1.78-.71,2.68-.28,1.13-.94,2.07-1.67,2.89-.8.89-1.72,1.71-2.91,2.14-.54.19-.99.56-1.48.84-.14.09-.31.1-.47.17-.31.14-.62.3-.94.46,0,.06.02.12.02.17.28.09.58.12.84.23.36.15.73.33,1.04.55.56.42,1.1.89,1.62,1.36.63.59,1.17,1.25,1.51,2.05.07.16.18.3.26.44.21.43.46.85.63,1.29.07.15-.02.36-.03.62-.75-.55-1.55-.69-2.32-.78-.73-.09-1.46-.07-2.21-.07-.38.02-.76.12-1.15.16-.14.02-.29,0-.43.02-.18.03-.33.1-.49.13.07.14.09.34.21.42.57.51.92,1.15,1.13,1.85.16.52.17,1.09.24,1.65.06.47.16.94.16,1.41-.02.54-.09,1.08-.19,1.6-.12.51-.33.99-.54,1.59-.24-.2-.45-.3-.52-.46-.37-.88-1.2-1.35-1.83-1.98-.45-.44-1.01-.75-1.55-1.06-1.1-.65-2.26-1.15-3.48-1.57-.58-.19-1.11-.45-1.72-.38-.56.07-1.12.21-1.68.31-.26.04-.53.04-.78.12-.12.04-.28.25-.26.37.05.57.16,1.15.26,1.74.45-.09.89-.18,1.31-.28.66-.16,1.29-.03,1.88.21.62.24,1.23.57,1.84.85.66.3,1.36.54,1.99.89.94.5,1.89,1.01,2.64,1.81.68.71,1.36,1.41,2.04,2.12.43-.12.52-.54.66-.87.43-1.01.89-2,1.25-3.04.26-.73.47-1.52.54-2.3.05-.7-.05-1.43-.17-2.12-.07-.35.03-.46.33-.51,1.11-.19,2.21-.38,3.34-.24.44.07.87.22,1.31.35.62.17,1.23.31,1.86.5Z"/>
    </g>
  </g>
</svg>