<?xml version="1.0" encoding="UTF-8"?>
<svg xmlns="http://www.w3.org/2000/svg" viewBox="0 0 136.06 136.06">
  <defs>
    <style>
      .cls-1 {
        fill: #fff;
      }

      .cls-2 {
        fill: #0c3454;
      }

      .cls-3 {
        fill: #e0e1e3;
      }
    </style>
  </defs>
  <g id="Layer_3" data-name="Layer 3">
    <rect class="cls-3" width="136.06" height="136.06"/>
  </g>
  <g id="B_W" data-name="B&amp;amp;W">
    <path class="cls-2" d="m121.84,113.61c-6.72-.21-12.6.01-19.31-.21-2.28-.08-4.5-.2-6.84-.05-3.62.24-7.33.87-10.79.93-17.08.27-34.32.04-51.31,1.15-6.58.63-12.81.07-19.39.31.03.17,0,1.57,0,1.74,6.56,0,12.97-.42,19.48-.8,7.54-.28,15.14-.43,22.71-.57,21.91-.41,43.58-.52,65.45.73,0-1.11,0-2.13,0-3.24Z"/>
    <g>
      <path class="cls-1" d="m57.06,73.34c-.21.07-.23.06-.33-.28.17-.06.32.09.33.28Z"/>
      <path class="cls-1" d="m70.09,100.67c.01.09.02.21-.12.18-.05-.01-.12-.15-.1-.21.03-.1.02-.17-.05-.23.02-.01.05-.01.06-.02.04-.03.08-.07.12-.1.02.05.04.1.05.16.02.07.04.14.04.22Z"/>
      <path class="cls-1" d="m67.28,96.97s-.04.02-.07.03c-.06-.13-.12-.25-.18-.39-.01.03-.03.07-.07.15v-.28s-.03-.08-.05-.1q-.13-.1.02-.22c.19.25.35.5.35.81Z"/>
      <path class="cls-1" d="m50.77,71.76c.02.06.03.16-.01.19-.05.06-.14.11-.22.11-.27-.01-.53-.04-.8-.06l-1.44-.15c-.06-.01-.13-.01-.19-.01-.39.01-.77.01-1.16.04-.45.04-.89.1-1.34.16-.27.03-.53.05-.79.12-.34.09-.66.21-1.03.33-.01-.06-.03-.13-.03-.2,0-.38.22-.65.49-.87.27-.21.57-.37.92-.45.3-.06.59-.18.89-.27.12-.04.25-.07.38-.07.58,0,1.17-.05,1.74.01.53.06,1.05.22,1.57.34.46.1.81.36,1.02.78Z"/>
      <path class="cls-1" d="m51.27,72.28c.06-.01.11.03.19.06-.29.21-.4.48-.49.78-.04.11-.01.28-.17.31-.1.01-.22,0-.3-.04-.21-.14-.44-.16-.67-.18-.18-.02-.35-.11-.52-.11-.5-.02-.99-.01-1.48,0-.37,0-.74.03-1.11.03-.45,0-.86.18-1.29.26-.34.06-.66.21-.99.33-.04.01-.09.04-.13.06-.18.13-.25.11-.36-.08-.1-.2-.22-.39-.33-.58-.06-.1-.08-.19.07-.24.34-.12.68-.28,1.03-.37.68-.16,1.38-.19,2.08-.26.55-.05,1.09-.06,1.63-.05.41,0,.81.1,1.22.13.35.03.7.06,1.04.05.2,0,.39-.08.58-.1Z"/>
      <path class="cls-1" d="m50.84,73.76c.02.29-.12.4-.38.37-.29-.03-.59,0-.87-.07-.47-.1-.94-.16-1.41-.15-.12,0-.26-.07-.34-.02-.17.11-.35.02-.53.06-.11.03-.22.03-.34.04-.47.06-.94.14-1.41.18-.27.02-.45.21-.66.32-.19.1-.38.16-.58.09-.21-.07-.23-.27-.07-.46.2-.27.51-.34.8-.39.79-.14,1.57-.37,2.39-.33.47.03.95-.02,1.42.01.54.03,1.09.09,1.61.29.11.05.24.04.37.06Z"/>
      <path class="cls-1" d="m50.41,81.35c.05.02.13.13.12.19-.02.08-.09.21-.15.23-.32.06-.65.11-.98.13-.08.01-.16-.07-.25-.11.04-.07.06-.15.11-.2.18-.16.39-.28.66-.29.16.01.33.02.49.05Z"/>
      <path class="cls-1" d="m50.72,82.21c.05.12-.01.24-.15.27-.38.06-.77.11-1.12-.15-.04-.04-.08-.09-.13-.15.06-.02.09-.05.13-.05.35-.02.7-.04,1.06-.04.07,0,.19.06.21.12Z"/>
      <path class="cls-1" d="m50.74,83.15c.02.12-.03.2-.16.19-.34-.02-.68-.05-1.02-.07-.15-.02-.31-.01-.46-.06-.08-.02-.14-.12-.21-.19-.18-.21-.24-.46-.27-.72-.04-.33-.02-.64.1-.96.13-.35.38-.45.7-.5.23-.04.45-.09.68-.11.11-.02.23-.01.37-.01-.11.28-.33.34-.52.34-.2,0-.27.15-.41.22-.02.01-.05.06-.06.06-.18-.07-.26.03-.36.17-.25.33-.41.45.1.71v.02s-.05.01-.07.02c.09.08.17.15.26.22.28.25.64.17.97.23.1.02.2.04.3.05.02.14.04.26.06.39Z"/>
      <path class="cls-1" d="m48.84,87.36c.16-.03.22.04.19.21-.1.49-.17.99-.14,1.49.03.42.05.84.09,1.26.02.22-.07.38-.23.49-.25.18-.5.32-.82.32-.26,0-.51.06-.76-.04-.34-.13-.62-.31-.74-.66-.05-.12-.07-.27-.08-.41-.01-.4,0-.8,0-1.21,0-.19.03-.37.04-.56,0-.36-.12-.7-.28-1.02-.02-.04-.04-.07-.07-.11h.89c.33.1.64.19.95.29.33.1.64-.01.96-.05Z"/>
      <path class="cls-1" d="m51.98,78.39c.19.25.13.47-.18.53-.33.05-.66.09-1,.12-.29.02-.63.26-.74.53-.02.07-.09.15-.15.16-.29.05-.58.05-.86.09-.29.04-.56.12-.75.37-.02.03-.04.07-.08.08-.13.06-.17.18-.23.29-.05.11-.18.2-.2.31-.05.35-.06.71-.09,1.07-.01.1-.01.2-.03.29-.06.24-.01.45.12.64.02.02.04.03.04.05-.03.26.17.37.33.5.07.06.12.14.2.22.04-.02.07-.05.12-.08.07.09.14.18.22.28h-.15s-.03.09-.04.14c.08.06.16.12.23.19.1.11.19.23.29.34.28.3.39.66.45,1.04.05.33.08.66.13.99.03.16-.05.28-.19.31-.27.08-.55.12-.82.17-.19.03-.38.08-.57.07-.3-.03-.59-.08-.88-.17-.19-.05-.16.08-.22.2h-.89c-.08-.09-.19-.18-.3-.26-.22-.19-.46-.35-.68-.53-.12-.1-.2-.2-.17-.39.04-.22-.01-.45-.02-.68-.01-.09-.03-.2,0-.29.09-.33,0-.65-.1-.96-.01-.04-.02-.09-.02-.13-.03-.43-.07-.86-.08-1.29-.01-.39.02-.78.02-1.17,0-.2-.02-.4-.02-.6.01-.37.02-.73.05-1.09.01-.18.05-.36.06-.54.03-.3.05-.61.09-.92.03-.29.09-.58.11-.87.05-.59.3-1.1.55-1.6.19-.38.45-.72.77-1,.03-.02.07-.05.08-.08.09-.3.35-.35.59-.37.55-.04,1.09-.08,1.63-.08.37.01.74.08,1.11.13.28.04.56.1.85.13.15.02.21.12.25.24.1.31.18.61.27.92.14.44.29.89.43,1.34.11.36.21.73.32,1.09.03.1.09.19.15.27Zm-1.46-1.72c.13-.13.25-.35.23-.5-.04-.27-.16-.54-.3-.78-.18-.29-.48-.47-.81-.57-.22-.07-.45-.12-.69-.15-.41-.05-.84-.11-1.24.09-.09.05-.17.09-.26.13-.15.07-.3.13-.43.21-.2.13-.38.28-.54.39-.08.25-.34.32-.42.53.22.56.58.99,1.15,1.24-.04,0-.07,0-.1,0l-.03.06c.18.1.36.23.55.32.4.19.82.14,1.23.07.27-.05.56-.06.78-.27.29-.25.61-.49.88-.76Z"/>
      <path class="cls-1" d="m46.08,74.48c-.13.17-.27.35-.4.52-.12.15-.24.31-.34.47-.11.19-.2.4-.3.59-.26.53-.47,1.07-.46,1.68.01.24-.08.49-.11.73-.05.32-.1.63-.11.94,0,.22-.07.41-.14.61-.05.15-.08.32-.09.48-.05.57.04,1.13.14,1.68.06.35.11.7.12,1.05,0,.41-.05.81-.07,1.22,0,.11.04.22.04.32-.01.42-.02.84-.04,1.25-.01.42.02.82.13,1.22.14.54.22,1.09.22,1.65.01.38.06.76.09,1.13.01.1.05.2.02.27-.04.08-.15.16-.23.16-.36-.02-.72-.09-1.07-.09-.38-.01-.71-.22-1.07-.25-.25-.01-.49-.01-.73,0-.28.02-.56.05-.84.08-.2.02-.41.05-.64.08.02-.09.01-.18.05-.23.22-.31.21-.68.31-1.02.15-.56.14-1.14.11-1.71-.03-.6-.11-1.2-.14-1.79-.02-.35.02-.7.03-1.05,0-.25.03-.51-.01-.76-.05-.34-.02-.65.05-.98.12-.54.21-1.09.36-1.62.11-.37.31-.72.46-1.09.1-.26.16-.54.27-.8.23-.52.46-1.03.72-1.52.39-.73.82-1.43,1.42-2,.44-.44.97-.8,1.51-1.12.08-.05.19-.06.29-.08.11-.02.23-.03.34-.03.04-.01.07,0,.11.01Z"/>
      <path class="cls-1" d="m66,103.48c.06,0,.18-.02.32-.04-.24,3.52-.26,7.04-.24,10.58.07.48-.32,1.58-.74.76-.21-1.61.09-3.27.05-4.88.08-2.17-.12-4.29.16-6.42h.45Z"/>
      <path class="cls-1" d="m69.82,76.81c.16.08.2.4.03.47-.04.02-.11-.01-.13.07.16-.01.23.15.21.28-.02.2-.28.02-.39.12.29.03.56.15.24.4.13.06.04.31-.07.36-.14.03-.31-.11-.43-.14-.03.09.13.27.24.27.07-.01.06.05.08.1-.14.03-.25-.14-.38-.09.14.17.46.14.23.46-.17-.02-.29-.13-.4-.27-.23.23.58.36.2.53-.24.07-.27-.39-.46-.21.08.18.21.3.39.37-.11.15-.37-.03-.51-.07-.25-.17-.14-.43-.06-.65.2-.51.57-1.12.44-1.67-.09-.34-.28-.62-.54-.77-.21-.13-.48-.16-.77-.05-.32.32-.57.68-.77,1.06-.69,1.3-.84,2.92-1.08,4.34-.47,3.39-.01,6.83.35,10.2.02,2.66.37,5.29.31,7.94h0s-.07.06-.1.09c-.12-.29-.53-.19-.65-.37-.01-.14.11-.19.19-.07,0-.09,0-.18.02-.28-.27.09-.19-.27-.16-.43.12-.03.36.03.3-.18-.03-.11-.22.05-.31-.05,0-.08-.01-.16-.01-.25.41.16.36-.23,0-.18,0-.1-.05-.18-.07-.27.12-.05.29-.01.38-.11-.03-.04-.05-.07-.08-.12-.36.08-.51-.29-.06-.19.37-.13-.1-.27-.28-.24-.01-.09-.14-.39,0-.38.17-.08.15,0,.36-.09l-.17-.17c-.36.17-.34-.35-.1-.23.13-.17-.02-.21-.17-.23-.01-.11-.01-.23-.01-.35q.09-.02.05-.22c-.12.03-.04-.16-.08-.22.31.01.29-.26,0-.23.02-1.19-.18-2.33-.38-3.48,0,0,.02-.01.03-.03-.33-2.02-.22-4.08-.05-6.11.1-1.37-.01-2.76.11-4.06.1-.01.24-.13.09-.19-.11-.01-.13-.64.24-.52.03-.12-.16-.09-.2-.13-.04-.3.01-.53.36-.4-.01-.04-.03-.08-.04-.13-.28.03-.29-.23-.13-.4.07.06.2.03.23.15.05-.01.08-.07.12-.1-.1-.13-.28-.06-.4-.16-.07-.21.14-.32.25-.15.08,0,.15,0,.22-.06-.05-.24-.41-.01-.42-.18-.02-.19.11-.23.21-.06.09-.26-.14-.18-.1-.38.03-.1.03-.43.19-.29.04.03.08.07.14.05.02.01.05.03.08.05.04-.14-.18-.13-.25-.22-.03-.19.04-.61.31-.43.01-.01.02-.02.02-.03-.22-.13-.13-.29-.07-.49.04-.11.14,0,.22-.02-.23-.1-.1-.26-.05-.44.21-.57.47-1.3,1.03-1.58.31-.4,2.31-.3,1.56.35.18.06.65-.39.4.1.01,0,.01,0,.02,0,.09,0,.18-.03.28-.05.01.05.02.12.03.2-.17-.05-.49,0-.6.14,0,.01.01.02.01.02.1-.01.27-.18.32-.04.02.07.02.18.1.21.08.02.2-.05.24.04.07.13-.19.12-.15.27.21,0,.48.03.26.26Z"/>
      <path class="cls-1" d="m53.15,76.14c.2,0,.37.21.3.39-.04.07-.15.11-.24.17-.09-.17-.16-.27-.2-.38s.01-.18.14-.18Z"/>
      <path class="cls-1" d="m53.03,73.5s.08.11.07.16c-.02.07-.05.17-.11.19-.19.1-.57.08-.73-.13.15-.21.55-.33.77-.22Z"/>
      <path class="cls-1" d="m58.05,77.48c.06.16.11.24-.25.39-.35.14-.69.29-1.04.44-.1.04-.2.08-.29.08-.08.01-.16-.05-.23-.1-.08-.06-.13-.15-.22-.2-.32-.19-.67-.31-1.05-.39-.44-.1-.87-.26-1.23-.56-.07-.06-.15-.1-.19-.12.05-.25.1-.46.11-.67.01-.29-.29-.25-.46-.38.27-.09.44.08.64.17.15.08.28.19.43.24.34.1.66-.03.9-.25.2-.19.24-.48.12-.72-.14-.28-.34-.57-.68-.67-.42-.13-.85-.24-1.28-.35-.28-.06-.56-.11-.83-.16,0-.02,0-.05.01-.07.16-.01.35.02.5-.04.12-.05.21-.18.3-.3.03-.05.02-.13.04-.2.02-.03.06-.09.08-.09.18.01.37-.01.53.05.5.18.85.58,1.22.93.1.1.21.19.28.31.12.19.22.39.32.6.07.16.19.21.33.12-.3-.97-1.05-1.52-1.82-2.05.29-.03.55.01.81.22.2.15.45.25.65.41.39.31.71.7.89,1.19.06.18.18.23.34.16-.19-.52-.46-.97-.89-1.33.38.08.57.39.78.66.05.06.1.12.16.15.04,0,.12-.01.15-.04.02-.03.02-.11,0-.15-.14-.26-.3-.51-.45-.77-.11-.2-.24-.4-.34-.62-.08-.17-.02-.3.1-.34.06.16.08.35.18.45.12.1.31.1.48.14.09.02.17.02.2.15.06.27.15.55.23.81.1.3.19.6.31.88.1.25.06.49.04.73-.05.44-.04.87.12,1.29Z"/>
      <path class="cls-1" d="m37.31,111.82c.06.32-.03.42-.37.45-.49.03-.98.08-1.47.13-.35.05-.67.42-.7.77-.02.23-.1.45-.11.68,0,.25.02.51.04.76l.03.78c.01.06,0,.13-.01.2-.33.05-.48-.08-.5-.42-.02-.29-.07-.58-.11-.87-.01-.06-.05-.12-.1-.24-.08.11-.16.18-.17.25-.01.3,0,.6-.01.91,0,.17-.03.34-.04.53-.1,0-.21.02-.3,0-.16-.05-.28-.24-.28-.44-.01-.3-.03-.6-.04-.89,0-.04-.04-.07-.06-.1-.04.03-.08.05-.1.09-.02.05-.03.12-.03.18-.01.21-.01.42,0,.63,0,.17-.02.3-.21.39-.2.09-.26.11-.34-.1-.11-.31-.21-.62-.27-.95-.09-.42-.16-.85-.1-1.29.04-.28.02-.58.01-.86-.01-.25.13-.44.19-.66.15-.51.6-.57.98-.71.28-.1.58-.12.88-.16.31-.05.62-.1.93-.14.04-.01.09-.02.13-.02.23-.02.46-.03.7-.04.35-.03.7-.05,1.06-.08.05,0,.11-.02.15-.03.28.18.22.44.19.71-.02.17-.01.36.03.54Z"/>
      <path class="cls-1" d="m37.43,107.16c.22.04.24.11.21.33-.03.23-.01.46-.03.68-.02.25-.06.5-.11.74,0,.05-.1.12-.15.12-.56.02-1.13.01-1.69-.1-.31-.06-.64-.06-.96-.09-.39-.04-.77-.12-1.16-.14-.35-.01-.7.04-1.06.08-.17.02-.36.04-.51.12-.3.15-.61.31-.87.52-.27.23-.52.49-.64.85-.16.5-.27,1-.26,1.53,0,.09-.04.18-.04.27.03.46.07.92.09,1.38.01.25,0,.49,0,.74,0,.08.04.16.03.24,0,.24-.01.48-.04.72-.01.07-.09.14-.14.22-.22-.09-.29-.21-.25-.43s.05-.45.04-.68c-.01-.15-.05-.32-.13-.45-.04-.07-.19-.1-.3-.1-.03,0-.11.13-.11.2,0,.41.02.82.03,1.22.01.34-.11.42-.43.28-.37-.15-.39-.18-.31-.57v-.06c-.05-.31-.1-.61-.16-.92-.01-.04-.07-.08-.1-.08-.04,0-.1.04-.11.08-.05.25-.16.5-.03.77.05.09.01.21.01.32-.01.18-.01.36-.04.54-.01.08-.06.16-.09.21-.3-.01-.37-.22-.41-.41-.11-.48-.22-.96-.27-1.44-.05-.47-.06-.94-.04-1.4.01-.59.03-1.18.21-1.75.1-.34.13-.71.21-1.05.08-.32.17-.63.3-.92.11-.25.28-.47.41-.7.12-.22.32-.34.53-.43.37-.16.75-.31,1.14-.41.33-.09.68-.12,1.02-.15.77-.05,1.54-.11,2.31-.11.62.01,1.24.11,1.87.14.37.02.75-.04,1.12-.02.31.01.62.06.92.11Z"/>
      <path class="cls-1" d="m106.14,83.41c.16,0,.28.16.25.29-.04.14-.17.25-.27.38-.07-.1-.14-.2-.22-.3.03-.01.05-.03.07-.04-.03-.16-.01-.32.17-.33Z"/>
      <path class="cls-1" d="m102.92,77.59c-.01.08-.05.21-.1.23-.25.09-.51.14-.79.22-.03-.3.2-.53.47-.55.09-.01.18-.02.27,0,.06.01.15.06.15.1Z"/>
      <path class="cls-1" d="m99.74,63.91c-.13.16-.22.29-.34.41-.03.03-.17.01-.18-.02-.06-.13-.09-.27-.14-.41.11-.03.21-.07.32-.07.09,0,.18.04.34.09Z"/>
      <path class="cls-1" d="m102.82,68.03c0,.1-.15.19-.28.34-.12-.26-.5-.18-.4-.49.03-.09.24-.15.37-.15.17,0,.31.14.31.3Z"/>
      <path class="cls-1" d="m99.67,71.96s.03.03.03.05c-.17.22.08.29.16.45-.14.16-.44.2-.68.09-.19-.08-.22-.24-.2-.42.01-.21.18-.26.33-.27.12-.01.24.06.36.1Z"/>
      <path class="cls-1" d="m95.92,62.93c.18.01.32.2.32.41,0,.14-.27.33-.49.32-.13-.05-.33-.02-.34-.27,0-.24.25-.47.51-.46Z"/>
      <path class="cls-2" d="m93.35,81.08c.11.07.17.12.24.18.54.51,1.07,1.03,1.61,1.56.14.14.21.29.17.52-.08.51-.1,1.02-.15,1.53-.04.35-.05.69-.12,1.03-.05.26.05.43.23.57.29.24.59.46.92.7.01-.07.05-.15.04-.23-.04-.44-.08-.88-.15-1.32-.09-.65-.22-1.3-.32-1.95-.06-.38-.14-.76-.15-1.14-.01-.41-.15-.78-.3-1.15-.02-.06-.09-.1-.14-.13-.24-.13-.48-.23-.76-.21-.15,0-.31-.07-.47-.08-.19,0-.39-.06-.65.12Zm19.46-2.65c.14.54.1,1.09.02,1.62-.09.56-.27,1.1-.4,1.65-.13.51-.23,1.02-.41,1.52-.16.45-.38.88-.62,1.3-.28.5-.6.99-.93,1.46-.11.16-.31.26-.47.39-.36.28-.71.56-1.07.83-.17.13-.17.19,0,.32.28.21.55.44.84.63.65.43,1.06,1.08,1.54,1.67.12.13.16.32.23.49.16.4.35.79.44,1.22.09.4.29.77.43,1.16.03.08.05.19.02.27-.03.13-.11.18-.24.06-.28-.26-.64-.37-1.01-.45-.38-.08-.75-.21-1.12-.33-.51-.19-1.03-.27-1.57-.11-.13.04-.27.03-.4.06-.3.06-.38.16-.32.45.12.59.01,1.16-.15,1.71-.22.72-.47,1.43-.74,2.14-.09.25-.26.48-.4.72-.07.13-.13.27-.18.37-.36-.4-.72-.76-1.04-1.15-.34-.41-.75-.74-1.19-1.02-.38-.24-.8-.42-1.2-.62-.55-.27-1.1-.54-1.67-.78-.47-.2-.96-.17-1.44-.03-.25.07-.3.29-.24.67.1.62.07,1.24,0,1.86-.02.2-.04.4-.05.6-.04.49-.08.97-.1,1.45-.01.6.02,1.2-.01,1.79-.02.43-.11.85-.17,1.27,0,.05-.01.11-.02.16-.04.56-.09,1.12-.14,1.68-.03.38-.05.76-.1,1.13-.07.5-.17.99-.27,1.54.18.01.38.04.58.03.42-.02.83-.09,1.25-.09.33,0,.66.09,1,.12.13.01.26-.03.4-.03.29-.01.57,0,.86-.01.22-.02.27-.12.23-.34-.03-.16-.03-.33-.05-.5-.04-.39-.02-.79-.21-1.17-.08-.17-.06-.39-.07-.59-.06-.57-.13-1.15-.14-1.72-.01-.23.06-.48.16-.69.15-.31.47-.24.71-.19.18.03.4.2.46.36.14.42.22.87.31,1.31.03.13.05.26.07.42.25-.02.51-.03.76-.06.39-.06.77-.13,1.16-.19.03-.01.09,0,.11-.03.24-.2.48-.11.7.03.08.05.17.16.17.25.02.27-.01.55-.02.77-.34.09-.61.17-.88.24-.21.05-.41.11-.61.15-.25.04-.52.05-.76.11-.09.03-.2.18-.2.26.03.41.1.81.15,1.18.55-.01,1.08-.03,1.6-.03.21,0,.42.01.61.05.1.02.24.11.25.19.05.3.06.62-.16.87-.07.09-.24.16-.33.14-.29-.07-.5.13-.74.18-.43.1-.85.22-1.28.32-.19.04-.39.05-.58.05-.59,0-1.15.19-1.71.34-.6.16-1.19.33-1.79.49-.49.14-.99.28-1.48.41-.2.05-.41.06-.62.08-.26.03-.37.13-.38.39,0,.07-.01.14-.03.21-.12.56-.19,1.11-.12,1.68.03.26-.03.53-.06.79-.01.13,0,.2.15.22.25.03.49.1.73.13.48.04.96.06,1.44.1.33.03.66.08.98.09.28,0,.55-.06.82-.03.23.02.46.11.68.2.28.13.56.28.83.45.21.13.4.31.59.46.03.02.04.07.06.08.22.06.33.18.25.42-.1.32-.32.52-.57.53-.15,0-.29.03-.43.04-.36.02-.66-.16-.97-.31-.2-.09-.43-.15-.65-.21-.26-.07-.53-.12-.79-.17-.14-.02-.28,0-.43-.01-.15,0-.3-.04-.44-.01-.32.06-.62.16-.93.23-.13.03-.26.04-.38.04-.13,0-.27-.02-.39,0-.39.09-.41,0-.43.44-.01.12-.04.25-.07.37-.06.27-.34.35-.63.35-.25,0-.4-.16-.47-.48-.04-.16-.05-.33-.11-.48-.03-.1-.12-.24-.17-.24-.13.03-.28.1-.35.2-.08.11-.08.28-.11.43-.06.36-.26.59-.61.67-.17.04-.42-.14-.49-.41-.06-.23-.06-.48-.06-.72-.02-.3-.01-.29-.31-.23-.29.05-.59.09-.89.14-.39.06-.78.15-1.18.19-.33.05-.42.12-.46.46-.03.23-.14.42-.39.48-.15.04-.25.2-.46.11-.33-.14-.33-.39-.32-.67,0-.23-.11-.3-.32-.23-.1.02-.21.04-.31.06-.38.06-.46-.06-.39-.43.06-.34.3-.48.54-.63.71-.46,1.48-.77,2.29-1,.56-.15,1.11-.32,1.66-.49.39-.12.57-.43.62-.8.06-.38.07-.77.11-1.15.06-.58.13-1.17.19-1.75.02-.29.02-.58.06-.87.06-.54.16-1.08.23-1.63.02-.17-.01-.34.01-.51.06-.64.13-1.28.21-1.91.02-.17.03-.24-.17-.25-.32-.01-.64-.07-.97-.08-.06,0-.18.11-.19.19-.05.3-.08.6-.1.9-.02.27,0,.54-.01.81-.01.31-.14.57-.39.75-.09.06-.24.05-.37.05-.38.01-.59-.2-.64-.57-.07-.5-.11-1-.15-1.5-.02-.27.01-.54-.01-.81-.02-.21-.15-.31-.36-.34-.33-.06-.66-.15-.99-.2-.37-.07-.75-.11-1.12-.18-.15-.02-.29-.08-.44-.11-.6-.12-1.05-.39-1.26-1.01-.11-.31.18-1.03.44-1.17.06-.04.14-.06.21-.06.43-.01.87.01,1.31-.01.33-.01.66-.04.98-.11.07-.01.14-.18.15-.28.04-.27-.01-.56.07-.81.06-.21.18-.38.34-.5.28-.2.65-.25.98-.08.17.09.32.34.36.53.06.37.02.74.03,1.11.01.15.03.3.03.45,0,.1-.01.19-.02.29,0,.02-.01.05-.01.07.33,0,.67.01,1,0,.39-.02.77-.04,1.15-.08.09-.01.23-.09.25-.16.15-.54.33-1.08.27-1.65-.02-.27-.06-.55-.04-.82.05-.69.12-1.37.18-2.06.02-.12.03-.25,0-.37-.02-.1-.03-.23-.23-.19-.23.04-.47.04-.7.06-.39.03-.79.02-1.15.12-.47.14-.96.26-1.35.6-.18.15-.42.23-.6.37-.25.19-.47.4-.69.61-.08.08-.14.12-.19.12-.06,0-.11-.05-.16-.15-.21-.43-.45-.85-.59-1.31-.16-.52-.35-1.05-.29-1.61.02-.16.02-.32.03-.49-.48.07-.89.12-1.31.19-.21.04-.42.13-.63.19-.35.1-.69.2-1.03.3-.11.03-.21.11-.32.14-.24.06-.43.2-.63.31-.23.12-.46.23-.67.38-.29.21-.54.44-.74.75-.16.26-.46.42-.72.65-.06-.09-.11-.16-.14-.23-.13-.37-.27-.73-.38-1.1-.09-.33-.15-.67-.19-1.01-.04-.36-.04-.72-.06-1.09-.02-.4-.1-.81-.08-1.22s.11-.82.2-1.22c.09-.41.02-.49-.41-.52-.5-.03-1.02-.04-1.5-.15-.51-.12-.94-.46-1.33-.8-.6-.52-1.18-1.06-1.72-1.64-.23-.23-.36-.58-.47-.89-.17-.46-.28-.93-.4-1.4-.06-.2.07-.34.27-.28.45.14.9-.01,1.35-.02.14,0,.28-.08.44-.13-.03.28-.2.38-.41.27-.04-.02-.1-.04-.14-.03-.37.07-.75.14-1.12.22-.05.01-.1.11-.1.16.06.71.21,1.39.66,1.98.53.71,1.22,1.24,1.91,1.76.12.09.2.23.32.29.24.11.49.23.75.27.46.08.94.11,1.41.15.3.03.61.04.95.05.18.23-.14.38-.18.6-.07.35-.21.69-.24,1.03-.05.49-.03.98-.01,1.47.03.53.06,1.05.16,1.57.06.34.24.67.37,1,.02.06.04.12.05.18.03.23.07.26.27.15.13-.07.27-.16.37-.27.42-.46.96-.76,1.47-1.1.42-.28.87-.42,1.32-.57.19-.06.36-.17.55-.23.6-.19,1.2-.36,1.83-.36.12,0,.24-.03.35-.08.18-.09.24,0,.24.15-.02.2-.08.39-.09.59-.02.22-.04.45,0,.66.13.58.22,1.17.6,1.67.09.11.12.26.19.41.76-.52,1.4-1.15,2.28-1.43.87-.27,1.75-.38,2.71-.42.03-.49.06-.99.09-1.51-.08.02-.12.02-.16.03-.28.09-.55.2-.84.25-.58.1-1.09.34-1.57.65-.53.34-1.04.71-1.56,1.07-.16.11-.32.23-.48.32-.04.03-.17-.03-.18-.07-.16-.54-.5-1.04-.36-1.65.06-.27.05-.56.05-.84,0-.07-.07-.17-.13-.2-.55-.3-1.15-.4-1.77-.43-.58-.02-1.17-.03-1.76.01-.39.03-.78.16-1.17.23-.46.09-.87.31-1.28.54-.1.06-.19.14-.29.2-.17.09-.27.04-.28-.15-.04-.34-.1-.67-.09-1.01.01-.36.05-.74.14-1.09.22-.85.47-1.7.97-2.44.18-.27.38-.52.56-.78.05-.08.06-.18.08-.25-.32.07-.61.16-.91.19-.54.06-1.09.1-1.64.12-.16.01-.34-.05-.5-.12-.63-.25-1.26-.53-1.88-.79-.27-.11-.56-.2-.81-.34-.43-.24-.8-.57-1.1-.96.23-.25.5-.12.71-.08.51.09.9-.14,1.3-.35.48-.25.76-.7,1.01-1.14.24-.43.63-.64,1.04-.82.53-.22,1.09-.37,1.69-.35-.19-.31-.49-.42-.77-.56-.47-.24-.95-.51-1.43-.74-.66-.32-.99-.92-1.35-1.51-.37-.6-.69-1.22-.78-1.93-.04-.32,0-.66,0-1.01.21-.05.46-.1.71-.17.33-.1.66-.24,1-.3.44-.06.89-.08,1.33.1.24.11.48.19.72.28.02,0,.04-.03.06-.04-.03-.1-.06-.19-.1-.28-.37-.87-.79-1.73-1.12-2.63-.17-.44-.22-.95-.25-1.43-.04-.61-.04-1.22,0-1.83.03-.64.09-1.28.21-1.91.13-.64.33-1.28.61-1.88.2-.44.4-.87.61-1.31q.2.12.22.38v.02c.11.34.23.67.33,1.01.04.11.02.23.05.33.16.47.4.89.76,1.28.08-.22.18-.41.22-.62.12-.6.44-1.11.75-1.63.15-.26.28-.52.43-.77.27-.43.52-.87.84-1.26.35-.44.76-.83,1.15-1.24.14-.14.28-.26.41-.38.26.13.23.37.23.56,0,.46.05.92.21,1.35.06.18.2.34.36.48.02-.28,0-.56.08-.83.15-.55.32-1.11.54-1.64.18-.46.42-.9.68-1.32.2-.32.47-.61.72-.9.33-.38.66-.76,1.02-1.13.42-.44.84-.88,1.3-1.28.31-.26.67-.47,1.02-.68.21-.13.33-.06.42.18.28.72.55,1.43.84,2.14.12.3.26.61.44.88.13.2.34.34.52.49.03.02.14-.01.18-.05.34-.35.64-.74,1.02-1.03.31-.24.7-.37,1.11-.39.47-.02.94-.1,1.42-.11.33-.01.66.03.99.08.37.06.73.16,1.1.23.19.03.3.13.37.29,0,.03.03.09.02.11-.08.14-.15.3-.26.4-.27.27-.48.56-.62.92-.12.3-.16.62-.26.91-.16.47.01.88.07,1.31.02.13.09.19.24.14.57-.17,1.09-.4,1.52-.83.4-.4.83-.79,1.24-1.19.29-.28.45-.64.62-.99.05-.12.16-.32.22-.32.19.02.19.21.22.38.05.27.15.54.21.82.07.33.15.67.16,1.01.02.43.01.86-.04,1.29-.06.5-.15,1-.25,1.5-.02.13-.1.25-.17.36-.21.36-.38.74-.63,1.06-.34.43-.56.96-1.07,1.25-.04.02-.08.1-.06.14.02.05.09.12.14.12.17,0,.36.01.52-.05.52-.17,1.05-.35,1.55-.58.48-.22.97-.44,1.32-.86.06-.08.24-.17.27-.14.09.08.15.2.17.31.02.16-.02.32-.02.47-.01.14,0,.28,0,.42,0,.13,0,.26-.01.39s-.01.26-.05.38c-.03.12-.1.23-.15.34-.09.19-.2.36-.28.55-.22.45-.41.91-.64,1.35-.08.15-.16.28-.25.41-.01.01-.01.02-.02.03-.08.13-.18.25-.25.38-.25.43-.5.86-.74,1.29-.1.17-.16.36-.27.52-.19.27-.3.57-.34.89,0,.05,0,.13.03.14.04.02.11.01.15-.02.39-.24.79-.47,1.17-.74.21-.14.36-.38.57-.53.45-.32.71-.79,1.04-1.21.03-.05.05-.11.09-.16.03-.05.08-.14.11-.14.06.02.13.07.16.12.04.07.06.15.06.23-.03.91.23,1.77.45,2.64.22.89.46,1.78.61,2.67.1.57.06,1.15,0,1.73-.08.74-.3,1.44-.47,2.15-.12.52-.29,1.02-.41,1.54-.16.65-.54,1.19-.96,1.66-.46.51-.99.98-1.67,1.23-.31.11-.57.32-.85.48-.08.05-.18.06-.27.1-.18.08-.36.17-.54.26,0,.04.01.07.01.1.16.05.33.07.48.13.21.09.42.19.6.32.32.24.63.51.93.78.36.34.67.72.87,1.18.04.09.1.17.15.25.12.25.26.49.36.74.04.09-.01.21-.02.36-.43-.32-.89-.4-1.33-.45-.42-.05-.84-.04-1.27-.04-.22.01-.44.07-.66.09-.08.01-.17,0-.25.01-.1.02-.19.06-.28.08.04.08.05.19.12.24.33.29.53.66.65,1.06.09.3.1.63.14.95.03.27.09.54.09.81-.01.31-.05.62-.11.92-.07.29-.19.57-.31.91-.14-.11-.26-.17-.3-.26-.21-.51-.69-.78-1.05-1.14-.26-.25-.58-.43-.89-.61-.63-.37-1.3-.66-2-.9-.33-.11-.64-.26-.99-.22-.32.04-.64.12-.96.18-.15.02-.31.02-.45.07-.07.02-.16.14-.15.21.03.33.09.66.15,1,.26-.05.51-.1.75-.16.38-.09.74-.02,1.08.12.36.14.71.33,1.06.49.38.17.78.31,1.14.51.54.29,1.09.58,1.52,1.04.39.41.78.81,1.17,1.22.25-.07.3-.31.38-.5.25-.58.51-1.15.72-1.75.15-.42.27-.87.31-1.32.03-.4-.03-.82-.1-1.22-.04-.2.02-.26.19-.29.64-.11,1.27-.22,1.92-.14.25.04.5.13.75.2.36.1.71.18,1.07.29.2.06.4.15.64.25-.06-.2-.1-.42-.18-.63-.19-.53-.39-1.06-.62-1.57-.12-.29-.3-.56-.49-.81-.4-.48-.82-.93-1.33-1.29-.34-.24-.65-.55-1.09-.62-.16-.03-.17-.26-.01-.38.18-.14.39-.24.58-.38.25-.18.51-.35.74-.57.43-.41.93-.76,1.21-1.3.37-.73.77-1.45,1.05-2.21.24-.63.31-1.32.48-1.97.12-.5.22-.99.24-1.51.04-.6-.18-1.15-.28-1.72-.13-.7-.26-1.4-.47-2.07-.24-.75-.2-1.52-.34-2.27-.17-.92-.02-1.81.1-2.7.02-.08.01-.17.01-.29-.26.13-.5.25-.73.37-.34.18-.68.35-1.01.53-.15.09-.29.2-.42.32-.22.18-.43.36-.64.55-.03.03-.05.08-.09.11-.06.06-.17.16-.21.16-.11-.08-.18-.2-.08-.35.01-.01.01-.02.02-.03.13-.21.28-.42.41-.63.26-.45.56-.87.77-1.34.2-.47.33-.97.44-1.46.15-.6.28-1.21.18-1.85-.06-.32-.07-.65-.11-.98-.01-.06-.04-.12-.08-.21-.13.12-.24.23-.36.32-.34.28-.7.54-1.03.82-.15.14-.25.33-.38.48-.07.07-.17.11-.26.16-.04-.11-.13-.25-.1-.33.35-.82.49-1.69.68-2.55.1-.45.03-.93.02-1.39-.02-.42-.04-.84-.11-1.25-.06-.41-.17-.81-.29-1.2-.06-.2-.21-.36-.3-.54-.2-.42-.39-.84-.58-1.26-.04-.07-.09-.13-.17-.25-.16.45-.3.87-.46,1.27-.08.19-.22.36-.33.55-.12.21-.23.44-.36.64-.24.36-.49.7-.76,1.03-.06.08-.21.12-.32.12-.17-.02-.14-.18-.13-.29.04-.29.1-.57.13-.86.04-.53.1-1.07.1-1.61,0-.2-.16-.4-.19-.6-.06-.34-.22-.49-.56-.52-.46-.03-.92-.15-1.38-.17-.46-.03-.93.01-1.38.15-.28.09-.59.09-.88.13-.46.07-.89.21-1.26.51-.14.11-.3.2-.45.3-.13.09-.26.18-.37.28-.17.14-.38.07-.45-.15-.13-.41-.27-.81-.39-1.22-.19-.7-.55-1.32-.89-1.94-.02-.03-.04-.05-.06-.08-.29.13-.56.26-.84.38-.49.22-.92.54-1.34.87-.32.26-.65.53-.95.82-.28.28-.54.59-.8.9-.18.2-.36.41-.54.62-.39.45-.63.99-.84,1.55-.07.19-.15.34-.38.29-.2-.05-.29-.16-.31-.37-.01-.23-.1-.45-.13-.68-.06-.39-.1-.79-.15-1.22-.07.1-.13.18-.2.26-.1.13-.2.28-.32.4-.3.28-.56.59-.77.95-.24.39-.52.76-.78,1.14-.36.52-.76,1.02-1.07,1.57-.24.43-.38.92-.58,1.38-.18.44-.3.88-.29,1.35,0,.07-.01.16-.06.2-.15.17-.13.37-.14.57,0,.07-.05.19-.09.19-.08,0-.2-.02-.24-.08-.21-.35-.42-.69-.59-1.06-.08-.15-.08-.34-.1-.51-.03-.36-.06-.72-.1-1.08,0-.05-.04-.09-.06-.11-.26.27-.89.97-1.15,1.22-.05.05-.14.04-.22.06-.01-.02-.02-.05-.04-.08.31-.35.99-1.15,1.29-1.5.02-.03.02-.1.05-.13.05-.06.13-.16.17-.16.08.03.19.11.2.19.05.33.11.67.1,1-.02.64.11,1.22.48,1.78.02-.11.04-.22.07-.33.14-.52.27-1.04.44-1.55.14-.45.3-.9.5-1.33.15-.31.37-.59.57-.87.3-.45.62-.89.92-1.34.25-.37.48-.75.75-1.11.22-.28.49-.52.72-.79.14-.16.22-.36.34-.53.2-.27.34-.28.5-.03.02.03.04.07.04.11-.04.62-.01,1.24.15,1.85.02.07.07.13.1.2.05-.05.12-.08.15-.14.15-.29.27-.6.43-.88.17-.28.35-.56.54-.81.21-.27.43-.52.66-.76.22-.22.45-.43.68-.64.13-.11.26-.22.38-.33.29-.27.56-.58.88-.81.34-.25.74-.41,1.12-.62.25-.14.5-.27.74-.43.14-.09.36.02.42.21.08.26.14.53.28.76.37.59.61,1.24.81,1.9.04.12.07.24.11.36.06.16.16.17.3.08.38-.24.74-.49,1.14-.69.24-.12.52-.17.79-.22.46-.09.92-.17,1.38-.21.42-.04.84-.06,1.26-.04.43.03.86.11,1.28.2.36.07.68.19.68.69,0,.27.17.54.2.82.04.41.03.82,0,1.23,0,.16-.11.32-.15.48-.03.12-.03.25-.04.37.02,0,.04,0,.06.02.37-.58.79-1.14,1.1-1.75.31-.62.52-1.29.79-1.99.09.12.18.21.23.31.2.44.38.89.59,1.32.16.34.38.65.51,1,.23.65.41,1.32.44,2.02.02.32.1.64.09.96-.02.43-.07.87-.14,1.3-.08.48-.21.95-.33,1.45.09,0,.14.02.16,0,.32-.24.65-.49.96-.75.15-.12.35-.21.41-.44.01-.03.18-.06.2-.04.07.09.14.2.16.32.08.52.17,1.04.19,1.57.02.41-.03.84-.11,1.24-.14.66-.31,1.32-.53,1.95-.11.33-.37.61-.55.92-.04.07-.05.16-.08.24.07-.04.15-.08.21-.13.09-.07.17-.16.26-.21.46-.25.92-.5,1.38-.74.27-.13.54-.25.73-.49.03-.03.14-.04.14-.03.04.12.12.25.1.35-.05.23-.18.45-.23.68-.08.43-.13.87-.18,1.31-.03.2-.06.4-.05.6.02.3.06.6.1.9.01.16.04.31.04.46,0,.55.1,1.07.27,1.6.14.44.21.91.32,1.37.11.53.2,1.08.35,1.61Zm-2.19,2.56c.23-.86.41-1.73.32-2.62-.05-.52-.16-1.04-.26-1.56-.06-.31-.15-.61-.22-.92-.08-.34-.12-.7-.22-1.03-.18-.59-.4-1.16-.37-1.79,0-.08-.05-.16-.07-.24-.26.32-.48.61-.73.88-.29.31-.61.6-.94.88-.17.14-.37.24-.57.35-.11.06-.23.09-.34.15-.2.11-.4.22-.58.35-.14.11-.25.24-.38.37-.07.06-.14.12-.2.18-.04-.11-.12-.22-.11-.32.04-.23.13-.45.19-.68.06-.25.06-.52.17-.75.31-.62.66-1.22,1-1.83.1-.18.2-.36.31-.54.14-.22.32-.43.44-.67.3-.58.58-1.18.86-1.78.16-.35.31-.7.25-1.13-.15.07-.28.16-.42.2-.3.1-.61.19-.92.26-.43.11-.87.21-1.31.28-.38.06-.76.08-1.15.09-.07,0-.17-.06-.23-.13-.03-.03-.03-.14,0-.17.26-.25.44-.54.62-.86.2-.37.49-.71.72-1.08.2-.33.39-.67.55-1.02.08-.18.11-.39.13-.58.03-.42.07-.84.07-1.26-.01-.35-.06-.7-.09-1.05-.02-.2-.03-.41-.06-.6,0-.11-.06-.21-.1-.36-.09.16-.14.29-.22.37-.26.26-.54.49-.81.73-.27.26-.55.53-.83.78-.11.1-.23.2-.36.25-.5.19-1,.36-1.56.56-.04-.13-.08-.27-.12-.41-.02-.08,0-.17-.04-.25-.14-.54-.19-1.07-.11-1.62.06-.46.29-.84.49-1.23.07-.14.16-.27.26-.39.11-.12.25-.22.41-.35-.11-.05-.17-.09-.25-.11-.18-.04-.37-.09-.55-.11-.4-.05-.8-.11-1.2-.12-.25-.01-.5.06-.76.08-.54.05-1.09.02-1.57.41-.46.38-.94.74-1.17,1.33-.07.18-.16.14-.26.03-.12-.12-.24-.25-.37-.37-.26-.21-.53-.41-.67-.74-.12-.3-.28-.6-.47-.86-.33-.45-.59-.94-.77-1.47-.04-.1-.11-.2-.18-.31-.19.17-.36.31-.52.46-.49.45-.99.88-1.45,1.36-.4.41-.74.89-1.13,1.31s-.67.9-.93,1.39c-.28.51-.48,1.07-.62,1.63-.1.38-.23.75-.12,1.16.05.15,0,.34-.05.5-.04.19-.17.2-.31.07-.07-.06-.14-.13-.2-.2-.28-.36-.67-.66-.73-1.17l-.06-.57c-.02-.13-.05-.25-.08-.42-.07.11-.1.18-.15.23-.39.41-.77.81-1.11,1.28-.28.39-.51.79-.69,1.24-.26.66-.56,1.3-.82,1.96-.14.37-.27.76-.14,1.17.03.11-.01.23-.01.35-.02.01-.05.01-.07.02-.07-.06-.14-.11-.21-.17-.18-.17-.36-.35-.55-.52-.06-.06-.15-.1-.2-.17-.43-.55-.78-1.14-1.01-1.8-.02-.06-.08-.11-.14-.18-.05.14-.08.22-.11.31-.18.56-.4,1.12-.54,1.69-.13.5-.2,1.03-.27,1.55-.04.24-.05.5-.05.74,0,.3.03.6.04.9.01.32-.03.66.02.98.09.64.3,1.26.58,1.86.27.56.55,1.12.85,1.68.15.28.33.54.5.82.05.08.09.16.12.25.02.08.04.19,0,.23-.05.05-.17.07-.24.05-.14-.05-.27-.13-.4-.19-.31-.16-.59-.37-.91-.46-.34-.1-.7-.11-1.05-.11-.37.01-.74.06-1.1.13-.23.05-.45.17-.67.27-.02.01-.03.08-.03.12-.07.58.18,1.1.38,1.62.08.19.23.36.34.54.16.28.32.56.47.84.31.6.97.69,1.46,1.01.23.15.51.21.75.33.33.18.65.36.96.57.19.14.42.29.41.58,0,.09,0,.12-.12.17-.17.06-.27-.03-.41-.03-.4,0-.81,0-1.2.15-.45.18-.83.45-1.11.85-.22.3-.44.61-.71.86-.49.44-1.11.65-1.73.83-.12.03-.23.09-.36.14.02.02.04.06.08.08.57.36,1.23.55,1.81.9.02.01.05,0,.07,0,.19.05.41.05.56.15.27.18.55.24.84.24.6-.01,1.19-.06,1.79-.1.23-.01.46-.06.68-.1.08,0,.19-.1.21-.08.12.12.19,0,.28-.03.08-.03.16-.07.25-.07.15-.02.3-.01.46-.01.04.1.1.21.07.28l-.03.03s-.09.05-.19.05c-.03,0-.06.05-.09.08-.38.37-.73.76-1.04,1.19-.36.52-.57,1.1-.78,1.67-.23.61-.11,1.23,0,1.85.03.17.16.22.33.13s.35-.19.54-.24c.37-.1.76-.15,1.13-.26.6-.18,1.2-.08,1.8-.04.48.04.95.13,1.42.2.03,0,.06.01.09.02.3.11.61.21.9.32.07.03.16.1.17.16.01.14,0,.29-.02.43-.04.25-.13.51-.11.76.03.39.11.78.19,1.17.03.16.15.14.27.07.25-.17.52-.33.77-.5.24-.16.46-.33.7-.48.32-.22.64-.43.98-.63.15-.09.33-.15.51-.2.4-.12.81-.21,1.2-.34.37-.13.42-.37.18-.68-.3.07-.61.13-.89.24-.48.17-.95.36-1.4.59-.21.1-.39.28-.53.47-.27.4-.6.73-1.05.93-.12.05-.22-.04-.2-.18.03-.37.07-.75.09-1.12,0-.1-.03-.19-.06-.28-.12-.31-.27-.61-.37-.93s-.34-.53-.6-.64c-.56-.24-1.16-.26-1.76-.2-.17.02-.26-.04-.36-.12-.04-.04-.09-.08-.13-.08-.24.06-.49.14-.73.19-.51.1-1.02.18-1.53.28-.22.04-.35-.02-.36-.22-.02-.17,0-.33,0-.5-.01-.61.24-1.16.45-1.72.18-.48.37-.95.6-1.39.01,0,.01-.02.02-.03l.03-.06c.19-.36.46-.67.69-1,.05-.08.1-.16.18-.3-.46,0-.84-.01-1.21,0-.27.01-.54.05-.8.12-.29.08-.55.23-.84.31-.21.05-.44.05-.67.05-.46,0-.93.02-1.39-.04-.33-.04-.64-.19-.95-.3-.08-.03-.14-.12-.21-.19.06-.06.12-.14.19-.19.32-.24.66-.46.97-.72.26-.23.48-.52.73-.76.37-.36.84-.51,1.33-.66.66-.2,1.33-.35,2.07-.19-.07-.11-.1-.19-.15-.23-.36-.28-.7-.58-1.09-.81-.79-.48-1.7-.71-2.46-1.27-.63-.47-1.27-.91-1.65-1.62-.26-.48-.54-.96-.53-1.54.01-.13.02-.22.18-.22.4-.01.79-.04,1.18-.05.21,0,.43.03.63.07.26.06.5.15.75.23.49.14.98.29,1.49.44.02-.06.07-.13.06-.18-.19-.55-.38-1.11-.59-1.66-.05-.14-.16-.25-.23-.38-.1-.2-.18-.41-.26-.61-.15-.39-.31-.77-.42-1.17-.1-.4-.14-.82-.2-1.23-.09-.69-.17-1.38-.24-2.07-.02-.21.01-.42.03-.63.05-.43.1-.86.17-1.28.02-.14.1-.26.15-.39.1.08.23.13.31.23.32.43.6.89,1.14,1.1.26.1.48.29.77.47.36-2.03,1.28-3.73,2.44-5.41.18.3.33.55.49.81.32.51.76.88,1.35,1.08.03-.08.08-.15.08-.22,0-.56.12-1.09.29-1.62.2-.65.39-1.3.72-1.9.32-.56.62-1.13.95-1.68.13-.21.34-.37.51-.55.41-.42.83-.84,1.25-1.25.16-.16.34-.3.48-.47.19-.23.33-.24.49.02.3.48.62.95.89,1.44.39.71,1.09,1.02,1.71,1.4.19-.17.36-.33.54-.49.05-.05.13-.09.19-.15.25-.22.46-.51.75-.67.74-.42,1.56-.6,2.41-.58.09,0,.22.15.23.24.03.15-.01.31-.05.45-.19.62-.31,1.24-.28,1.9.02.67.31,1.22.63,1.78.04.05.16.11.22.09.26-.08.51-.19.76-.29.11-.05.21-.1.31-.16.23-.11.46-.22.67-.35.33-.21.61-.5.97-.63.34-.13.55-.37.8-.6.05-.05.13-.08.2-.12.04.11.11.21.12.32.02.11-.03.22-.02.33.05.36-.04.69-.18,1.02-.08.18-.19.34-.27.51-.16.36-.29.73-.46,1.08-.25.51-.5,1.01-.77,1.5-.29.5-.61.99-.93,1.47-.13.2-.29.39-.43.58.01.03.03.06.05.09,1.19-.19,2.36-.45,3.5-.93.04.09.12.19.1.29-.05.38-.09.77-.22,1.12-.21.53-.48,1.03-.76,1.54-.16.3-.4.56-.55.86-.26.56-.63,1.08-.75,1.7-.05.26-.14.53-.14.8.01.81.27,1.56.69,2.25.09.15.33.17.47.06.08-.07.16-.13.24-.2.29-.23.58-.47.87-.71.2-.17.37-.37.58-.53.42-.32.71-.73.91-1.21.04-.11.09-.22.17-.31.18-.22.25-.21.36.05.04.1.07.21.09.31.12.5.26.99.34,1.49.06.35.05.71.08,1.06.07.86.06,1.71-.14,2.55-.07.33-.1.69-.18,1.02-.1.41-.18.83-.36,1.2-.21.42-.48.81-.78,1.17-.32.4-.69.76-1.07,1.1-.37.33-.79.62-1.18.93-.24.18-.46.38-.7.56-.17.12-.33.28-.52.31-.47.08-.86.31-1.23.59-.12.1-.08.19.02.25l1.53.84c.27.14.53.29.79.44.15.08.13.21.1.33-.01.05-.13.08-.2.1-.22.03-.45.03-.66.09-.42.14-.78.38-1.06.74-.17.21-.23.43-.17.69.02.07.02.14.02.21,0,.19-.17.32-.35.27-.21-.06-.42-.15-.64-.19-.38-.08-.77-.17-1.17-.18-.29-.02-.59.08-.89.12-.52.07-.97.31-1.43.52-.46.2-.56.46-.33.95.15-.06.29-.14.45-.18.36-.1.72-.21,1.09-.24.3-.02.61.04.9.1.2.04.38.15.58.2.22.06.45.08.66.15.66.21,1.29.48,1.87.86.33.21.67.39.92.7.1.14.18.3.31.52.02-.14.05-.22.04-.29-.05-.38-.1-.76-.14-1.14-.07-.56-.2-1.1-.55-1.56-.15-.18-.34-.36-.54-.47-.13-.06-.23-.11-.22-.23,0-.08.1-.21.18-.23.28-.08.57-.15.86-.18.5-.05,1.01-.03,1.5-.11.48-.08.92.02,1.45.14-.13-.23-.25-.4-.34-.59-.32-.63-.82-1.11-1.4-1.49-.5-.33-1.05-.61-1.67-.66-.08,0-.19-.14-.21-.23-.02-.06.08-.19.15-.23.36-.18.74-.33,1.09-.51.58-.29,1.16-.58,1.71-.91.37-.23.73-.5,1.03-.81.3-.3.52-.68.76-1.04.09-.14.2-.29.24-.46.21-.78.39-1.57.61-2.35Zm-1.15-2.16c.04-.78.01-1.56-.13-2.33-.06-.29-.1-.58-.14-.88-.03,0-.07,0-.1-.01-.05.08-.07.18-.13.24-.6.56-1.21,1.12-1.81,1.68-.1.09-.2.18-.3.25-.26.17-.54.32-.79.51-.17.12-.41.12-.48-.05-.21-.46-.44-.92-.6-1.39-.24-.69-.37-1.39-.11-2.11.09-.23.05-.5.15-.72.18-.44.42-.86.63-1.29.03-.06.06-.13.1-.19.36-.46.64-.96.84-1.51.05-.11.09-.22.16-.32.23-.31.3-.65.27-1.03-.24.04-.46.06-.67.11-.58.13-1.16.3-1.74.4-.4.07-.81.06-1.22.06-.09-.01-.2-.12-.26-.21-.01-.01,0-.02.01-.05,0-.02.03-.04.04-.06.04-.04.08-.08.12-.11.22-.14.42-.3.56-.54.11-.2.23-.41.38-.6.46-.61.9-1.23,1.13-1.98.02-.06.05-.11.08-.17.25-.39.47-.8.61-1.25.06-.18.18-.35.29-.52.17-.26.21-.54.18-.85-.23.15-.43.28-.63.42-.36.23-.71.48-1.08.69-.3.17-.63.29-.94.45-.17.08-.38.16-.47.31-.16.24-.23.1-.36-.01-.57-.49-.83-1.17-1.04-1.85-.27-.87-.09-1.73.15-2.58.02-.07.03-.14.05-.22-.09-.01-.19-.05-.27-.04-.29.06-.58.11-.86.2-.43.13-.88.2-1.19.59-.17.21-.44.33-.64.51-.17.16-.41.28-.38.58.01.2-.16.21-.25.15-.43-.27-.99-.23-1.36-.62-.12-.12-.27-.22-.4-.34-.48-.45-.97-.88-1.22-1.51-.05-.14-.14-.27-.22-.42-.08.09-.12.15-.18.2-.19.17-.4.31-.58.49-.31.31-.6.63-.9.95-.08.08-.19.13-.25.22-.26.37-.52.75-.74,1.15-.21.4-.39.82-.55,1.25-.24.63-.48,1.27-.66,1.92-.11.37-.1.77-.11,1.15-.01.26-.07.37-.24.29-.63-.28-1.25-.59-1.63-1.21-.07-.13-.18-.23-.28-.35-.22.42-.41.83-.65,1.2s-.48.73-.57,1.16c-.03.12-.07.23-.12.34-.17.38-.37.75-.51,1.15-.13.39-.2.8-.3,1.22-.93-.24-1.62-.75-2.26-1.35-.05.58-.07,1.13-.09,1.68,0,.1-.05.2-.04.3.08.47.2.91.18,1.4-.03.63.08,1.26.31,1.84.22.55.35,1.13.61,1.67.25.55.4,1.15.58,1.73.06.2.06.42-.11.54-.22-.06-.4-.11-.58-.16-.2-.06-.41-.1-.6-.17-.84-.32-1.7-.55-2.62-.52-.36.02-.44.12-.32.47.06.17.13.34.2.51.21.54.62,1.15,1.12,1.53.24.17.45.38.7.55.22.16.47.31.72.43.15.08.34.08.49.16.29.17.57.35.9.43.15.03.29.11.41.2.19.14.36.31.54.46.08.06.17.11.25.18.17.15.33.33.52.45.26.15.34.31.22.52-.3,0-.57-.01-.84,0-.16,0-.33.05-.49.07-.32.03-.66.01-.97.08-.68.16-1.25.53-1.73,1.06-.19.22-.46.37-.67.58-.14.15-.45.2-.38.52.08.02.16.05.24.06.34.02.68.05,1.02.05.42-.01.84-.03,1.25-.1.33-.06.64-.26.97-.33.46-.1.93-.15,1.39-.2.32-.04.63-.04.95-.05.07,0,.19.03.21.07.03.09.04.22,0,.29-.21.32-.43.65-.68.93-.4.46-.7.95-.87,1.53-.12.44-.36.83-.37,1.3-.01.26-.05.53-.06.79,0,.05.06.15.1.16.23.04.46.08.68.07.64-.02,1.27-.09,1.9-.11.39-.01.79.01,1.17.05.36.04.75.04.96.43,0,.02.04.03.05.05.23.29.56.5.65.9.03.16.17.29.23.44.08.23.13.47.21.75.87-.99,2-1.36,3.28-1.54,0-.1,0-.23-.01-.34-.01-.07-.05-.17-.1-.2-.17-.07-.35-.12-.53-.15-.73-.14-1.47-.29-2.2-.39-.7-.09-1.41-.12-2.11-.2-.59-.07-1.18-.04-1.77-.17-.41-.09-.65-.31-.88-.58-.18-.22-.28-.5-.17-.8.1-.26.28-.44.52-.57.08-.04.14-.14.16-.23.1-.51.15-1.04.28-1.55.09-.36.27-.71.42-1.05.06-.13.05-.2-.1-.23-.2-.04-.39-.12-.6-.14-.58-.05-1.17-.08-1.75-.13-.07-.01-.14-.08-.18-.14-.02-.03.01-.14.05-.16.12-.08.27-.12.39-.2.7-.47,1.55-.58,2.31-.89.06-.02.11-.07.16-.11-.04-.04-.07-.1-.12-.12-.29-.15-.57-.28-.85-.43-.19-.1-.36-.25-.55-.34-.69-.3-1.21-.81-1.7-1.36-.22-.26-.45-.52-.84-.28-.04.03-.1.04-.16.04-.4,0-.81.04-1.22,0-.23-.02-.47-.35-.46-.6.01-.24.05-.5.33-.6.36-.13.7-.28,1.06-.39.58-.18,1.16-.33,1.73-.51.06-.01.14-.14.13-.2-.13-.53-.25-1.07-.44-1.58-.19-.54-.33-1.08-.58-1.61-.28-.57-.4-1.22-.57-1.83-.03-.12.02-.26.02-.39.01-.09.03-.2,0-.28-.2-.43-.43-.85-.62-1.28-.1-.22-.13-.47-.17-.72-.02-.09.04-.19.06-.29.11.04.23.05.32.12.14.1.25.25.39.35.29.22.53.5.9.62.26.08.46.32.71.46.21.11.34.01.29-.24-.12-.62-.01-1.22.16-1.8.11-.41.27-.81.44-1.19.24-.51.51-1,.77-1.51.09.05.18.08.24.14.44.42.97.72,1.52.98.17.08.38.08.58.1.05,0,.14-.05.15-.08,0-.25.04-.52-.04-.75-.16-.51-.15-.6.24-.87.1-.06.24-.1.36-.09.17,0,.24-.08.27-.22.07-.29.13-.59.21-.88.13-.49.22-1,.43-1.46.35-.7.78-1.37,1.18-2.05.24-.42.55-.77.94-1.05.21.13.28.31.28.55,0,.16.01.33.27.37.24.05.53.15.62.43.09.3.12.61.18.91.02.11.05.26.13.3.37.23.76.45,1.16.64.17.08.36.11.55.15.15.03.22-.06.2-.19-.02-.14-.09-.28-.14-.42-.01-.05-.04-.09-.04-.13.03-.13.05-.27.1-.39.07-.13.04-.33.27-.37.12-.02.26-.08.33-.17.12-.14.19-.32.28-.49.33-.61.87-.97,1.49-1.22.17.15.26.3.16.51-.4.88-.34,1.76,0,2.64.11.28.25.55.38.82.07.13.14.28.24.38.21.22.45.41.68.6.05.05.13.1.18.09.2-.06.41-.12.6-.2.25-.11.5-.22.74-.36.23-.13.46-.27.67-.43.15-.13.27-.3.41-.46.07.14.13.22.17.3-.53,1.59-1.22,3.09-2.32,4.34,0,.02-.03.03-.05.05-.27.32-.59.64-.94.92.05.04.08.09.12.09,1.2-.03,2.41-.01,3.54-.53.14.18.17.34,0,.49-.04.04-.07.09-.1.14-.11.19-.19.42-.34.57-.59.55-.89,1.24-1.09,1.99-.09.37-.08.75-.17,1.12-.15.63-.07,1.26.04,1.88.11.67.37,1.27.68,1.87.22.45.58.74.93,1.06.02.02.09.03.12.01.36-.24.74-.47,1.08-.74.28-.23.53-.5.79-.76.17-.16.35-.32.49-.5.13-.16.22-.36.32-.55.18.11.22.26.21.44-.04.36-.06.71-.1,1.07-.08.59-.03,1.19-.18,1.79-.1.4-.2.79-.39,1.16-.16.33-.32.67-.42,1.02-.08.26-.25.42-.41.61-.22.26-.42.56-.54.87-.13.32-.31.54-.65.62-.13.03-.22.09-.31.21-.15.2-.36.36-.56.51-.25.2-.52.38-.78.56-.33.24-.64.51-1.05.61-.12.03-.24.07-.36.12-.27.11-.53.24-.81.33-.26.09-.32.19-.13.41.22.26.48.48.72.72.13.12.24.26.37.37.13.12.27.2.41.31.15.12.17.28,0,.37-.28.13-.57.25-.86.3-.32.06-.65.04-.97.07-.4.04-.8.09-1.19.14-.3.04-.58.1-.83.29-.09.07-.22.09-.31.16-.13.1-.33.2-.35.33-.03.23.05.48.08.73.13-.04.23-.08.34-.12.35-.14.69-.31,1.05-.42.52-.15,1.05-.27,1.58-.37.19-.04.4-.01.6.02.29.06.57.15.85.23.42-.82,1.04-1.41,2.03-1.64-.08-.08-.13-.14-.19-.18-.27-.15-.55-.29-.82-.45-.46-.27-.91-.55-1.36-.83-.06-.04-.13-.14-.12-.19.02-.08.11-.14.18-.19.06-.05.15-.07.23-.1.46-.25.92-.49,1.38-.74.25-.14.52-.26.75-.43.26-.18.45-.46.72-.6.57-.3.91-.85,1.41-1.22.39-.28.54-.77.88-1.12.35-.35.42-.87.54-1.34.09-.37.09-.75.14-1.12.07-.48.18-.95.2-1.42Zm-1.47,1.92c.36-.92.36-1.92.35-2.95-.06.04-.09.05-.1.07-.12.23-.24.47-.55.5-.04,0-.09.06-.13.1-.28.27-.54.56-.84.81-.32.26-.63.54-1.01.64-.14-.13-.25-.23-.36-.34-.2-.21-.44-.39-.58-.63-.42-.67-.72-1.4-.9-2.17-.08-.35-.19-.7-.2-1.06,0-.44.12-.89.13-1.33,0-.58.16-1.1.35-1.63.15-.44.4-.83.7-1.19.16-.17.29-.37.43-.56-.02-.02-.04-.05-.06-.07-.08.02-.16.03-.23.05-.19.04-.37.12-.56.14-.35.03-.71.04-1.07.05-.4.01-.8.01-1.2,0-.15,0-.31-.06-.45-.03s-.25.03-.28-.09c-.01-.07.06-.21.13-.26.52-.39,1.01-.81,1.4-1.31.35-.45.7-.89.95-1.4.28-.57.57-1.14.86-1.71.04-.09.06-.19.09-.3-.43.23-.82.45-1.22.64-.23.11-.47.17-.71.27-.17.07-.27.01-.37-.14-.08-.11-.2-.2-.3-.3-.24-.25-.53-.47-.72-.75-.2-.3-.34-.65-.45-.99-.14-.42-.27-.86-.3-1.3s.06-.9.1-1.41c-.22.17-.43.3-.59.46-.19.2-.34.43-.51.65-.14.17-.11.28.07.41.12.09.29.19.18.37-.16.26-.18.52-.09.8.18.58.34,1.17.29,1.79,0,.06,0,.13,0,.2.03.33.15.5.37.55.21.04.43.11.65.13.18.02.39.03.55-.03.39-.16.89-.09,1.16.22.21.23.32.62.19.76s-.26.3-.43.39c-.2.12-.45.18-.66.28-.3.16-.58.38-.89.48-.31.11-.49.26-.63.57-.21.45-.42.88-.35,1.43.42.14.85.27,1.27.44.6.23,1.21.38,1.91.15.01.15.09.32.04.44-.17.4-.39.77-.58,1.16-.28.57-.34,1.19-.34,1.81,0,.46.14.93.2,1.39.03.17.11.24.27.25.17,0,.26.11.24.28-.03.43.05.82.25,1.21.22.44.39.9.73,1.27.19.2.32.45.5.66.17.21.34.37.61.24.18-.09.38-.14.53-.26.36-.27.71-.56,1.05-.86.12-.11.15-.08.19.04.09.26.01.48-.14.69-.12.16-.24.33-.34.51-.33.58-.66,1.17-.99,1.76-.06.1-.11.2-.17.3.12.02.26.08.38.06.29-.05.57-.05.76.2.76-.7,1.07-1.65,1.42-2.55Zm-.91,25.62c-.06-.14-.08-.28-.13-.29-.17-.05-.35-.07-.52-.05-.13.01-.23.12-.16.28l.12.21c.11.23.32.11.47.1.08-.01.15-.16.22-.25Zm-.45-2.81c.17-.02.28-.11.25-.28,0-.23-.11-.36-.35-.33-.07,0-.16.15-.18.25-.03.14.15.37.28.36Zm-.25-19.86c.03-.13-.09-.29-.25-.29-.18,0-.2.17-.17.33-.02.01-.04.03-.07.04.08.1.15.2.22.3.1-.13.23-.24.27-.38Zm-.5-2.06c.19-.34.39-.69.61-1.09-.23.15-.39.26-.56.36-.26.15-.51.3-.79.42-.09.04-.27.02-.33-.05-.3-.36-.58-.75-.87-1.14-.17-.23-.33-.49-.53-.78.08,1.32.16,2.58.23,3.82.41-.03.78-.08,1.14-.06.22,0,.3-.09.39-.25.23-.42.47-.82.71-1.23Zm.38,22.11c-.05-.17-.08-.28-.11-.38-.06-.24-.15-.29-.38-.22-.11.03-.22.06-.33.07-.38.03-.77.02-1.14.15-.29.09-.28.07-.31-.25-.03-.37-.11-.73-.17-1.1-.21.29-.7.47-1.08.39.05.4.11.81.16,1.21.02.14.02.29.04.43.06.26.14.52.18.78.06.4.1.81.13,1.22.02.14-.03.3-.05.45-.13-.03-.2-.05-.27-.05-.59.08-1.18.08-1.77-.04-.24-.05-.49-.06-.73-.05-.54.01-1.09.06-1.64.09-.05,0-.11-.01-.17,0-.28.06-.59-.16-.57-.44.03-.47.05-.95.17-1.4.13-.53.17-1.06.21-1.59.04-.52.06-1.05.1-1.57.06-.88.13-1.75.19-2.62.03-.38.04-.76.05-1.14.04-.74.08-1.49.1-2.23.01-.36-.01-.73-.05-1.09-.07-.71-.17-1.42-.24-2.13-.08-.8-.13-1.6-.2-2.4-.03-.4-.08-.79-.13-1.19-.08-.59-.17-1.17-.26-1.76-.05-.34-.08-.68-.16-1.01-.03-.15-.02-.22.11-.26.15-.05.3-.09.46-.12.21-.05.44-.08.65-.15.37-.13.73-.29,1.1-.44.09-.03.17-.08.26-.09.34-.06.69-.09,1.03-.15.58-.1,1.12-.36,1.73-.35.39,0,.77-.1,1.15-.13.24-.02.49.04.73.03.21,0,.43-.04.63-.06-.04-.15-.1-.33-.11-.52-.02-.24-.06-.28-.31-.21-.09.02-.19.08-.26.05-.42-.15-.83-.13-1.23.07-.23.12-.35.04-.36-.21-.01-.31-.03-.63-.04-.94-.05-.91-.13-1.82-.14-2.73-.01-.47-.13-.9-.26-1.33-.02-.08-.07-.15-.11-.23-.01.03-.02.05-.02.07-.36.02-.71.04-1.07.06.02.11.08.26.07.42-.01.28.09.41.38.45.31.04.41.2.41.52,0,.28-.24.64-.53.73-.16.05-.21.14-.2.29.01.21.03.42.05.63.01.12.04.24.04.35.01.55,0,1.1.01,1.65,0,.21.03.42.05.61-.28.07-.53.15-.78.18-.65.09-1.31.09-1.94.35-.42.16-.85.28-1.29.4-.06.02-.22-.05-.23-.11-.09-.33-.16-.66-.2-1-.08-.57-.14-1.14-.29-1.7-.17-.62-.27-1.27-.4-1.91-.09-.43-.21-.85-.29-1.28-.1-.52-.17-1.04-.25-1.56-.06-.39-.15-.78-.19-1.18-.05-.58-.07-1.17-.11-1.76-.01-.29-.06-.57-.09-.86-.02-.34-.05-.68-.05-1.03,0-.38.05-.77.05-1.16,0-.27-.04-.53-.06-.8.12-.05.22-.11.32-.11.6-.02,1.17-.2,1.75-.35.08-.02.16-.06.22-.11.11-.08.19-.08.25.04.04.09.09.18.1.27.09.42.16.84.26,1.26.02.08.13.18.21.18.15.02.29-.03.47-.06,0,0,0-.04-.01-.08-.1-.57-.32-1.11-.21-1.72.04-.24.15-.27.31-.31.38-.1.76-.19,1.13-.3.15-.05.27-.17.42-.23.36-.15.74-.29,1.05-.41-.13-.21-.25-.43-.38-.63-.03-.05-.09-.08-.15-.09-.18-.06-.32.06-.47.14-.25.13-.51.25-.78.37-.07.04-.18.08-.24.05s-.08-.15-.08-.23c-.02-.27,0-.54-.02-.81-.04-.43-.13-.86-.12-1.28.01-.47-.19-.89-.27-1.33-.01-.05-.08-.11-.13-.11-.14,0-.29.02-.44.04.01.27.03.57.04.87.02.43.03.86.05,1.29.02.22.04.45.08.67.08.39.18.79.25,1.18.02.13-.02.26-.2.27-.09.01-.18.06-.26.09-.16.07-.32.15-.48.2-.64.17-1.28.32-1.92.49-.3.09-.44.03-.49-.29-.06-.38-.1-.76-.1-1.15.01-.73.07-1.47.09-2.2.02-.56,0-1.13.01-1.69,0-.16.03-.31.04-.46h-.97c-.01.08-.04.18-.05.27-.03.4-.05.81-.07,1.22-.03.39-.13.8-.06,1.17.12.58.08,1.14.08,1.71-.01.48-.05.95-.11,1.42-.05.49-.16.96-.23,1.44-.05.32-.11.63-.13.95-.02.27-.01.54-.01.83-.27-.04-.56-.07-.84-.12-.3-.05-.6-.13-.91-.16-.21-.03-.31-.11-.31-.32,0-.07-.02-.15-.02-.22-.01-.56-.01-1.13-.01-1.7,0-.2,0-.41.01-.61.03-.38.07-.76.11-1.14h-.58s.03.05.03.08c-.03.92-.05,1.83-.09,2.74,0,.05-.15.13-.2.12-.19-.06-.38-.15-.56-.25-.34-.18-.67-.38-1.01-.57-.25.3-.37.72-.9.7.07.07.11.11.15.14.05.03.12.04.18.07.47.29.93.58,1.41.87.15.09.32.16.49.23.51.2,1.01.39,1.51.6.26.11.5.24.74.37.27.14.54.29.8.45.39.24.38.24.25.7-.02.06-.02.13-.02.2.05.45.09.91.14,1.37.07.6.13,1.21.21,1.81.03.31,0,.35-.33.36-.03,0-.05.03-.09.03-.45.09-.9.21-1.36.25-.82.09-1.65.13-2.47.21-.57.05-1.13.11-1.69.2-.33.04-.46,0-.56-.35-.11-.41-.2-.83-.29-1.25-.05-.2-.09-.37-.35-.42-.27-.06-.5-.59-.41-.87s.16-.56.08-.86c-.09-.35-.13-.7-.21-1.05-.02-.07-.16-.19-.2-.17-.3.08-.58.2-.87.31.14.38.27.75.4,1.12.23.62.48,1.24.69,1.87.17.48.29.99.42,1.48.04.14.14.31-.05.39-.31-.08-.58.01-.85.08-.41.1-.82.22-1.23.35-.17.05-.38.09-.35.36.22.06.43.11.46.4.01.06.19.14.27.13.68-.11,1.36-.27,2.05-.34.63-.07,1.26-.04,1.9-.07.24,0,.48-.08.72-.08.22,0,.43.07.64.08.48.04.96-.06,1.44.05.51.12,1.03.2,1.55.26.23.03.45.22.7.05.03-.02.17.06.19.12.12.33.26.66.32.99.12.62.17,1.24.26,1.86.08.59.17,1.18.25,1.78.07.52.13,1.04.18,1.57.05.39.07.78.11,1.18.02.19.06.37.07.57.04.31.06.62.08.94-.07,0-.11.02-.15,0-.51-.1-1.02-.13-1.55-.1-.21.01-.42-.07-.63-.09-.15-.01-.25-.05-.27-.21-.03-.19-.08-.37-.11-.56-.06-.43-.14-.85-.17-1.28-.04-.45-.03-.89-.06-1.34-.02-.29-.06-.58-.09-.89-.41.33-.94.45-1.41.33,0,.05-.02.1-.01.14.03.35.08.7.09,1.06.01.57.12,1.12.31,1.66.07.22.11.45.17.69h-.51c-.37,0-.74-.01-1.11,0-.14.01-.33.05-.4.14-.14.18-.22.41-.33.62-.1.2-.07.26.16.26s.46-.01.69,0c.34.03.69.08,1.03.1.64.04,1.28.05,1.91.11.32.03.63.11.94.2.42.11.85.24,1.26.39.1.04.18.21.22.33.04.13.02.27.02.41.03.52.08,1.03.08,1.55,0,.48-.06.96-.09,1.45-.03.42-.07.84-.1,1.26v.02c-.07.58-.15,1.15-.18,1.73-.02.33.11.68.07,1-.07.6-.22,1.19-.33,1.79-.02.13-.1.17-.24.17-.54-.03-1.08-.04-1.63-.06h-.66c-.08.12-.16.25-.26.37-.26.34-.67.45-.98.28-.41-.24-.71-.54-.62-1.06.04-.22-.07-.28-.28-.27-.36.01-.72,0-1.08.01-.08,0-.17.05-.23.11-.02.02.03.12.05.18.09.32.22.64.26.96.05.42.1.52.42.55h.12c.27.03.55.04.82.1.34.08.68.19,1.01.29.05.02.11.06.12.1.06.28.13.56.15.84.02.36,0,.73.01,1.08.01.21.05.41.07.64.27-.12.52-.28.8-.09,0-.05,0-.09.01-.12.03-.5.07-1.01.09-1.52.01-.3.15-.49.45-.49.56.02,1.12.06,1.68.1.17,0,.18.13.15.28-.05.28-.1.55-.13.83-.04.56-.04,1.13-.1,1.69-.06.49-.17.97-.24,1.45-.09.57-.17,1.14-.24,1.71-.04.27-.01.57-.12.81-.17.4-.19.82-.23,1.24-.03.27-.06.55-.15.81-.09.25-.18.55-.47.64-.55.17-1.12.3-1.67.48-.46.15-.91.36-1.38.5-.53.16-.94.47-1.31.87-.03.04-.05.13-.03.18.01.03.1.04.15.04.07,0,.15-.02.2-.06.14-.11.28-.13.42,0s.22.26.16.46c-.07.24.03.43.24.47.18.03.4-.16.43-.38.02-.17.05-.35.11-.51.04-.08.16-.15.25-.16.18-.04.38-.03.57-.06.21-.04.42-.11.63-.14.48-.08.98-.14,1.46-.23.18-.03.31-.04.3.2-.01.15-.02.3,0,.44.02.2.05.41.12.59.03.08.2.16.29.15.08-.01.17-.14.22-.24.04-.1.03-.22.05-.33.04-.26.14-.51.38-.64.24-.14.49-.04.73.03.04.01.09.13.07.17-.14.29.05.53.13.78.03.09.22.18.34.18.07-.01.17-.19.2-.3.04-.13-.01-.28.02-.42.03-.2.08-.37.35-.39.69-.07,1.37-.13,2.05-.31.31-.08.66-.04.99-.01.34.03.67.11,1,.18.09.01.17.04.24.08.21.1.41.22.62.32.31.14.64.12.96.04.2-.05.24-.22.09-.34-.29-.22-.59-.42-.89-.62-.13-.08-.3-.12-.41-.22-.26-.24-.57-.37-.92-.33-.4.04-.8.06-1.21,0-.3-.05-.62-.03-.92-.06-.59-.08-1.17-.17-1.75-.25-.06-.01-.12.04-.17.04-.15-.02-.37,0-.41-.08-.09-.16-.11-.38-.12-.58,0-.21.04-.43.05-.65,0-.33-.02-.67,0-1,.03-.31.08-.62.15-.92.05-.23.1-.47.21-.68.13-.28.42-.19.66-.23.71-.13,1.41-.28,2.1-.44.79-.19,1.57-.4,2.36-.61.19-.05.39-.11.59-.14.64-.1,1.3-.07,1.94-.22.2-.04.42-.02.62-.06.06-.01.17-.11.16-.15-.05-.22-.14-.43-.22-.69-.37.04-.79.06-1.2.13-.18.03-.18-.02-.2-.16-.04-.41-.09-.82-.14-1.23-.01-.15-.02-.29-.01-.43.01-.15.07-.28.26-.29.27-.02.55-.03.83-.07.26-.05.52-.13.79-.19Zm-1.02-19.06s-.02-.05-.03-.07c-.08,0-.15,0-.23.02-.16.02-.31.05-.47.07-.33.04-.67.07-1,.11-.18.01-.36.01-.53.06-.24.08-.47.21-.71.31-.18.08-.38.11-.46.33-.02.03-.07.06-.1.07-.51.19-1.03.35-1.53.56-.14.05-.25.19-.34.32-.04.05-.04.22-.01.23.34.16.57.43.82.69.17.19.42.35.31.64-.4.1-.79.18-1.17.28-.22.06-.45.13-.66.21-.18.08-.29.22-.26.44.02.22.03.43.05.65.01.06.04.15.09.17s.14-.02.19-.05c.34-.2.65-.45,1.06-.48.54-.04,1.09-.07,1.63-.13.43-.04.86-.13,1.35-.2-.09-.12-.12-.18-.17-.22-.42-.4-.87-.78-1.28-1.2-.19-.19-.36-.44-.27-.75.45-.17.9-.34,1.34-.52.45-.19.89-.35,1.26-.71.33-.32.82-.47,1.12-.83Zm-2.18,17.46c.25-.01.59-.29.6-.5,0-.25-.26-.42-.65-.43-.13,0-.29.27-.28.46.02.31.14.48.33.47Zm-.25-24.33s.09-.15.1-.23c0-.04-.09-.09-.15-.1-.09-.02-.18-.01-.27,0-.27.02-.5.25-.47.55.28-.08.54-.13.79-.22Zm.2-5.21c-1.09.19-1.98-.36-2.91-.76,0,.03-.01.05,0,.07.21.68.13.88-.55,1-.33.06-.78-.26-.83-.6-.08-.55-.18-1.11-.29-1.67-.03-.19-.2-.26-.38-.18-.05.02-.08.07-.12.08-.17.02-.34.02-.5.05-.29.06-.58.13-.86.2-.03.01-.08.06-.08.08.04.34.02.72.16,1.02.31.64.94.93,1.56,1.19.28.12.6.14.88.27.41.2.85.17,1.28.18.16,0,.2,0,.22.15,0,.04.03.07.05.12-.16.21-.33.4-.44.61-.26.45-.51.91-.73,1.38-.16.34-.34.71-.39,1.08-.07.64.12,1.27.35,1.87.07.17.25.26.44.2.17-.06.14-.21.08-.34-.02-.05,0-.12,0-.17-.02-.32-.04-.63-.06-.95-.03-.46-.07-.93-.09-1.39,0-.25.35-.54.58-.51.35.04.59.31.59.67,0,.09-.01.18,0,.27.11.76.23,1.52.34,2.28.03.15.08.29.31.21-.03-.35-.08-.7-.09-1.05,0-.13.05-.29.14-.36.19-.15.42-.24.63-.35.04-.03.08-.08.08-.12.01-.15.04-.32,0-.46-.15-.61-.26-1.21-.13-1.83.08-.43.18-.86.32-1.27.11-.33.29-.64.44-.97Zm-.48-4.24c.13-.15.28-.24.28-.34,0-.16-.14-.3-.31-.3-.13,0-.34.06-.37.15-.1.31.28.23.4.49Zm-.18,11.35c.08-.18.03-.29-.14-.33-.18-.03-.37-.04-.55-.04-.33-.02-.66-.03-1-.04-.25-.01-.5-.03-.71-.04,0,.32-.02.56,0,.8.01.08.09.21.16.22.17.04.36.04.54.02.38-.05.77-.12,1.15-.19.24-.04.44-.16.55-.4Zm-.6,3.94c0-.26.02-.46,0-.66-.02-.22-.05-.42-.26-.58-.31-.24-.56-.57-.88-.81-.28-.21-.45-.49-.62-.78-.18-.3-.19-.31-.55-.22-.23.06-.53-.09-.62-.31-.17-.44-.06-.89.29-1.21.04-.02.06-.1.05-.14-.12-.49-.25-.98-.37-1.48-.11-.49-.08-.98.15-1.42.29-.58.64-1.14.96-1.71.07-.14.14-.29.21-.43-1.38-.24-2.67-.55-3.59-1.65-.02.01-.04.01-.07.02.09.67.17,1.34.25,2.02.53.15,1.06.11,1.59-.1.07-.03.2-.02.26.03.08.07.12.19,0,.29-.04.02-.06.08-.07.12-.15.48-.29.95-.44,1.43-.08.26-.18.52-.24.78-.04.18-.03.37-.06.55-.11.66-.03,1.32.1,1.96.1.51.25,1,.54,1.44.25.38.48.79.72,1.19.02.04.07.07.11.11.24.31.59.45.91.66.08.06.12.19.15.29,0,.03-.11.1-.18.12-.27.1-.54.18-.82.28-.02,0-.04,0-.06.02-.26.17-.53.34-.79.52-.07.05-.14.13-.19.21-.1.15-.03.25.13.22.32-.07.63-.16.93-.26.2-.06.38-.18.58-.22.62-.11,1.24-.19,1.88-.28Zm-.06-1.49c.02-.07.06-.15.06-.22-.03-.42-.05-.83-.11-1.24-.01-.12-.07-.27-.29-.22-.3.06-.61.05-.92.08-.06,0-.17.03-.18.07-.01.07.02.16.06.21.43.46.87.91,1.3,1.36.03-.02.06-.03.08-.04Zm-.66-3.09c.01-.15.05-.28.04-.41-.08-.64-.16-1.27-.25-1.9-.02-.13-.09-.11-.19-.07-.18.07-.36.12-.6.19.06.65.13,1.35.19,2.03.3.06.54.11.81.16Zm-.11-11.28s-.01-.07-.01-.11c-.18-.05-.37-.09-.55-.14-.02.03-.04.05-.06.08.05.09.1.26.16.26.15.01.31-.05.46-.09Zm-.02,17.65c-.06-.03-.14-.1-.19-.09-.34.08-.67.16-1.01.26s-.68.21-1.01.32c-.12.04-.19.1-.17.25.05.35.07.7.11,1.05.03.3.06.59.09.88.03.19.11.24.27.12.1-.07.21-.13.32-.15.36-.09.73-.17,1.12-.26,0-.01.01-.09-.02-.12-.1-.11-.22-.21-.33-.31-.21-.2-.43-.39-.61-.61-.06-.08-.08-.27-.03-.36.32-.56.91-.72,1.46-.98Zm-.22-9.23c0-.17-.17-.38-.29-.33-.13.06-.23.19-.34.29.1.09-.05.34.21.33.18,0,.42-.16.42-.29Zm-.86-5.29c.18-.4.33-.74.52-1.14-.28.06-.48.1-.68.15.01.17,0,.32.03.47.02.16.07.31.13.52Zm-.09,12.06c-.07-.08-.14-.16-.22-.23-.18-.15-.39-.28-.54-.47-.21-.25-.38-.53-.54-.81-.26-.49-.5-.98-.73-1.48-.22-.48-.25-1.01-.29-1.53-.02-.41-.02-.84.05-1.25.1-.58.27-1.14.42-1.71.08-.29.17-.59.27-.92-.43.09-.83.19-1.24.07-.05-.01-.19.12-.2.18-.01.34-.01.68.03,1.02.07.55.23,1.09.26,1.65.04.73.26,1.42.39,2.13.1.6.24,1.19.36,1.78.03.15.08.3.11.46.07.32.13.64.18.96.04.28.07.56.12.92.52-.31.96-.68,1.55-.71.01-.02.01-.04.02-.06Zm-.04-10.98s-.01-.05-.03-.05c-.12-.04-.24-.11-.36-.1-.15.01-.32.06-.33.27-.02.18.01.34.2.42.24.11.54.07.68-.09-.08-.16-.33-.23-.16-.45Zm-.3-7.69c.12-.12.21-.25.34-.41-.16-.05-.25-.09-.34-.09-.11,0-.21.04-.32.07.05.14.08.28.14.41.01.03.15.05.18.02Zm.31,15.3c0-.2-.13-.33-.32-.33-.17,0-.37.25-.36.47,0,.23.12.37.32.36.15,0,.36-.3.36-.5Zm-.54-10.99c.05-.02.06-.15.05-.23-.06-.33-.13-.66-.2-.98-.01-.05-.04-.12-.08-.13-.28-.08-.55-.17-.83-.2-.33-.03-.64-.09-.93-.27-.12-.07-.27-.13-.42-.2-.03.34-.06.64-.07.94,0,.07.05.18.11.21.35.2.71.41,1.08.58.31.14.64.23.97.33.1.02.23,0,.32-.05Zm-.2-1.64c-.03-.49-.05-1.01-.1-1.53,0-.05-.1-.12-.16-.13-.53-.08-.99-.35-1.45-.58-.15-.07-.29-.16-.5-.27.03.17.07.27.06.37-.01.4-.05.81-.06,1.21,0,.09.07.23.14.28.22.14.44.28.68.34.46.13.92.21,1.39.31Zm-1.36,2.17c.29-.07.58-.14.92-.22-.67-.3-1.27-.57-1.91-.87.02.47.05.88.07,1.34.33-.09.63-.17.92-.25Zm-1.38,20.27c.21.09.27.09.25-.14-.02-.45-.05-.9-.09-1.35-.03-.24-.13-.43-.35-.58-.35-.26-.65-.56-.99-.83-.25-.2-.24-.45-.21-.71.04-.39.09-.79.13-1.19.04-.32.08-.63.1-.95,0-.19.03-.41-.04-.57-.08-.2-.24-.36-.4-.51-.51-.51-1.03-1.02-1.56-1.52-.07-.06-.19-.09-.29-.1-.3-.05-.6-.08-.9-.11-.25-.02-.51-.1-.74-.04-.48.13-.95.12-1.44.08-.09,0-.19.05-.29.07v.07c.14.1.28.21.43.29.64.31,1.27.62,1.91.91.53.22,1.06.44,1.6.59.25.07.32.15.32.36-.84.57-1.83.89-2.55,1.65.26.4.53.8.97,1.07-.03-.26-.1-.51-.16-.76-.07-.27-.04-.7.19-.84.17-.1.34-.2.53-.27.13-.04.29-.03.44-.03.33.01.59.2.84.38.11.07.24.21.25.34.1.92.17,1.85.26,2.78.04.55.09,1.1.15,1.65,0,.04.09.11.14.11.29.01.59,0,.89.03.21.01.42.05.61.12Zm.01-26.09c0-.21-.14-.4-.32-.41-.26-.01-.51.22-.51.46.01.25.21.22.34.27.22,0,.49-.18.49-.32Zm-.78-.61s.1-.09.09-.12c-.03-.14-.08-.27-.15-.48-.3.43-.56.78-.79,1.15-.18.28-.33.57-.48.86-.21.41-.52.77-.6,1.24-.05.24-.11.48-.17.72-.1.4-.2.8-.29,1.2-.03.14-.02.28.09.42.26.33.35.69.21,1.11-.05.14-.03.29-.04.44.04,0,.07.01.1.01.06-.09.14-.18.19-.28.26-.53.59-1.02,1.01-1.44.27-.27.37-.54.21-.91-.06-.14-.07-.32-.06-.47.04-.61.08-1.22.15-1.83.05-.42.12-.84.21-1.25.04-.15.09-.35.32-.37Zm-.49,5.31c.01-.1-.04-.2-.06-.3-.06.06-.12.13-.18.19-.01.02-.03.03-.05.05-.34.53-.72,1.03-1.01,1.58-.21.4-.33.84-.45,1.28-.07.25-.09.52-.1.78,0,.2.08.37.3.45.12.04.26.1.35.2.18.18.39.25.64.3.03-.14.06-.24.07-.34.06-.49.06-.98.16-1.46.2-.9.25-1.82.33-2.73Zm-.13,10.32c.08-.02.17-.14.17-.2-.05-.52-.09-1.04-.19-1.54-.13-.63-.09-1.25-.06-1.88,0-.07-.07-.2-.13-.22-.52-.16-1.04-.31-1.6-.46.34,1.14.67,2.27,1.02,3.45-.5.07-.99.14-1.47.22-.07.01-.13.05-.19.08.03.06.05.13.09.18.08.1.17.18.26.27.2.18.39.35.69.36.49,0,.96-.11,1.41-.26Zm-1.04,27.15s.15-.11.3-.21c-.15-.14-.26-.31-.33-.3-.13.03-.32.15-.34.26-.05.27.23.19.37.25Zm-.22-20.38c.15-.08.13-.36.01-.49-.25-.28-.88-.29-1.17-.04-.22.18-.17.37-.09.6.06.2.16.3.39.35.29-.14.59-.26.86-.42Zm.14-7.87c-.06-.2-.12-.35-.16-.5-.18-.62-.36-1.23-.53-1.85-.08-.25-.14-.51-.21-.76-.03-.1-.04-.25-.11-.3-.21-.16-.46-.28-.7-.4-.03-.02-.12.02-.15.06-.19.26-.18.54.01.79.56.73.75,1.61,1.01,2.45-.36.17-.69.35-1.03.48-.44.18-.9.32-1.34.49-.42.17-.41.18-.23.57.01,0,0,.02.01.03.13.35.38.48.75.44.54-.05,1.08-.07,1.62-.1.01-.03.03-.05.05-.07-.21-.21-.42-.41-.63-.62-.07-.07-.15-.15-.2-.23-.07-.13-.06-.24.13-.25.19-.02.38-.03.57-.05.38-.06.75-.12,1.14-.18Zm-.55,5.92s.01-.04.01-.07c-.11-.05-.22-.11-.34-.15-.38-.14-.78-.22-1.14-.41-.92-.48-1.94-.8-2.72-1.55-.05-.05-.15-.09-.23-.08-.29.01-.58.02-.86.09-.21.05-.5-.09-.62.22.96,1.26,2.43,1.79,3.74,2.6.01.03.02.12.02.19-.27.07-.53.13-.78.21-.15.05-.28.14-.42.19-.3.09-.6.15-.89.25-.2.06-.39.16-.58.25.01.04.01.07.01.11.28.04.56.13.83.11.39-.02.73.12,1.08.24.21.06.26.35.11.5-.04.05-.08.1-.1.15-.08.23-.16.45-.21.68-.13.5-.25,1.01-.36,1.52-.03.16.1.26.25.29.2.03.4.1.59.16.25.09.49.24.75.27.4.05.8,0,1.25,0-.04-.16-.05-.24-.07-.32-.06-.18-.17-.34-.19-.52-.07-.48-.12-.97-.15-1.46-.02-.22-.1-.41-.29-.52-.43-.25-.66-.65-.89-1.05-.21-.36-.15-.5.2-.72.04-.02.06-.05.1-.07.54-.34,1.09-.68,1.64-1.01.08-.05.18-.07.26-.11Zm-.23,15.65c.22,0,.28-.09.21-.29-.07-.16-.16-.26-.36-.25-.24,0-.46.06-.62.33.08.05.16.13.25.16.17.03.35.04.52.05Zm.18,1.47c.02-.36.03-.71.03-1.07,0-.05-.08-.14-.13-.15-.31-.03-.63-.04-.97-.05,0,0-.01.03-.01.06-.03.47.11.94-.04,1.41-.02.07.05.22.12.27.15.09.33.15.5.21.18.06.4-.05.44-.23.03-.15.05-.3.06-.45Zm-.24-32.25c-.16-.14-.26-.3-.38-.32-.22-.05-.22.21-.24.33-.02.08.15.27.23.27.11,0,.22-.14.39-.28Zm-.54,8.6c.06-.02.15-.14.13-.2-.08-.34-.15-.7-.29-1.02-.17-.38-.42-.72-.61-1.09-.1-.2-.26-.4-.14-.66.07-.15.23-.36.18-.46-.06-.13-.29-.18-.45-.26l-1.14-.54c-.24.77-.34,1.55-.16,2.39h-1.64c.12.3.24.53.32.78.05.14.13.16.25.13.19-.04.39-.08.58-.14.44-.13.89-.25,1.31-.43.29-.13.74-.12.9.1.2.26.15.9-.11,1.06-.29.18-.6.33-.92.44-.49.17-1,.29-1.5.45-.07.03-.17.15-.16.22.06.37.14.74.23,1.11.05.21.19.34.41.32.22-.01.43-.04.7-.07-.13-.28-.26-.53-.38-.79-.07-.14-.13-.28.08-.37.23-.11.46-.23.69-.32.57-.22,1.15-.42,1.72-.65Zm-.35-6.78c.03-.38-.06-.48-.44-.5-.15-.01-.3-.05-.43-.12-.48-.26-.95-.54-1.42-.83-.13-.09-.21-.07-.27.04-.16.28-.33.56-.46.86-.4.91-.77,1.83-.59,2.88.05.29.04.6.09.9.02.07-.04.15-.07.22-.05-.02-.11-.03-.16-.06s-.09-.08-.13-.11c-.51-.29-1.02-.58-1.53-.86-.19-.1-.37-.19-.58-.29.06.14.11.25.16.37.09.2.17.41.26.61.08.15.18.24.39.17.19-.06.38,0,.5.17.17.21.31.44.47.66.12.18.22.48.37.5.44.07.9.03,1.35.03,0-.22.02-.44,0-.65-.05-.49.08-.95.23-1.4.08-.23.04-.33-.15-.44-.27-.16-.47-.39-.57-.7-.14-.43.05-.76.22-1.1.23,0,.46-.06.64.02.31.12.59.35.88.51.33.18.67.34,1.05.53.04-.16.08-.27.09-.38.04-.35.07-.69.1-1.03Zm-.53,5.77c.03-.18-.08-.27-.27-.29-.27-.01-.55.21-.56.44-.01.18.22.37.45.38.19,0,.37-.24.38-.53Zm-.94,13.88c.08-.14.04-.25-.06-.37-.25-.34-.59-.34-.94-.28-.24.04-.46.32-.46.57-.01.22.01.29.39.55.39.26.83.15.98-.3.02-.06.06-.11.09-.17Zm.13-13.12c-.11-.22-.23-.47-.34-.72.01-.02.03-.03.05-.05-.08.01-.15.01-.23.03-.35.08-.7.2-1.06.26-.42.06-.81.17-1.05.54-.07.11-.07.32-.01.45.05.09.21.21.38.09.03-.02.08-.02.13-.03.17-.02.35-.01.51-.06.54-.16,1.09-.34,1.62-.51Zm-.32,25.16c.01-.05,0-.11,0-.15.03-.41-.19-.71-.37-1.02-.12-.21-.39-.31-.58-.18-.12.08-.17.26-.23.41-.09.23-.01.49.19.61.26.16.52.3.78.45.13.07.2.03.21-.12Zm-.34-30.84s0-.05-.02-.06c-.14-.06-.33-.2-.42-.15-.12.05-.18.26-.22.42,0,.07.09.21.16.25.13.05.5-.3.5-.46Zm-2.68,3.17c0-.33-.13-.46-.48-.46-.24,0-.41.14-.4.34.01.28.18.49.4.49.25.01.48-.17.48-.37Zm-1.57,7.04c0-.11-.02-.27-.09-.32-.14-.11-.31-.15-.49-.23-.07.05-.16.07-.19.13-.12.2.02.47.26.49.09,0,.18,0,.27,0,.09,0,.23.12.24-.07Z"/>
      <path class="cls-1" d="m106.96,106.08s.07.15.13.29c-.07.09-.14.24-.22.25-.15,0-.36.13-.47-.1l-.12-.21c-.07-.16.03-.27.16-.28.17-.02.35,0,.52.05Z"/>
      <path class="cls-1" d="m106.89,103.28c.03.17-.08.26-.25.28-.13.01-.31-.22-.28-.36.02-.1.11-.25.18-.25.24-.03.35.1.35.33Z"/>
      <path class="cls-1" d="m106.16,103.37c.03.1.06.21.11.38-.27.06-.53.14-.79.19-.28.04-.56.05-.83.07-.19.01-.25.14-.26.29-.01.14,0,.28.01.43.05.41.1.82.14,1.23.02.14.02.19.2.16.41-.07.83-.09,1.2-.13.08.26.17.47.22.69.01.04-.1.14-.16.15-.2.04-.42.02-.62.06-.64.15-1.3.12-1.94.22-.2.03-.4.09-.59.14-.79.21-1.57.42-2.36.61-.69.16-1.39.31-2.1.44-.24.04-.53-.05-.66.23-.11.21-.16.45-.21.68-.07.3-.12.61-.15.92-.02.33,0,.67,0,1-.01.22-.05.44-.05.65,0,.2.03.42.12.58.04.08.26.06.41.08.05,0,.11-.05.17-.04.58.08,1.16.17,1.75.25.3.03.62.01.92.06.41.06.81.04,1.21,0,.35-.04.66.09.92.33.11.1.28.14.41.22.3.2.6.4.89.62.15.12.11.29-.09.34-.32.08-.65.1-.96-.04-.21-.1-.41-.22-.62-.32-.07-.04-.15-.07-.24-.08-.33-.07-.66-.15-1-.18-.33-.03-.68-.07-.99.01-.68.18-1.36.24-2.05.31-.27.02-.32.19-.35.39-.03.14.02.29-.02.42-.03.11-.13.29-.2.3-.12,0-.31-.09-.34-.18-.08-.25-.27-.49-.13-.78.02-.04-.03-.16-.07-.17-.24-.07-.49-.17-.73-.03-.24.13-.34.38-.38.64-.02.11-.01.23-.05.33-.05.1-.14.23-.22.24-.09,0-.26-.07-.29-.15-.07-.18-.1-.39-.12-.59-.02-.14-.01-.29,0-.44.01-.24-.12-.23-.3-.2-.48.09-.98.15-1.46.23-.21.03-.42.1-.63.14-.19.03-.39.02-.57.06-.09.01-.21.08-.25.16-.06.16-.09.34-.11.51-.03.22-.25.41-.43.38-.21-.04-.31-.23-.24-.47.06-.2-.02-.34-.16-.46s-.28-.1-.42,0c-.05.04-.13.06-.2.06-.05,0-.14-.01-.15-.04-.02-.05,0-.14.03-.18.37-.4.78-.71,1.31-.87.47-.14.92-.35,1.38-.5.55-.18,1.12-.31,1.67-.48.29-.09.38-.39.47-.64.09-.26.12-.54.15-.81.04-.42.06-.84.23-1.24.11-.24.08-.54.12-.81.07-.57.15-1.14.24-1.71.07-.48.18-.96.24-1.45.06-.56.06-1.13.1-1.69.03-.28.08-.55.13-.83.03-.15.02-.27-.15-.28-.56-.04-1.12-.08-1.68-.1-.3,0-.44.19-.45.49-.02.51-.06,1.02-.09,1.52-.01.03-.01.07-.01.12-.28-.19-.53-.03-.8.09-.02-.23-.06-.43-.07-.64-.01-.35.01-.72-.01-1.08-.02-.28-.09-.56-.15-.84-.01-.04-.07-.08-.12-.1-.33-.1-.67-.21-1.01-.29-.27-.06-.55-.07-.82-.1h-.12c-.32-.03-.37-.13-.42-.55-.04-.32-.17-.64-.26-.96-.02-.06-.07-.16-.05-.18.06-.06.15-.11.23-.11.36-.02.72,0,1.08-.01.21,0,.32.05.28.27-.09.52.21.82.62,1.06.31.17.72.06.98-.28.1-.12.18-.25.26-.37h.66c.55.02,1.09.03,1.63.06.14,0,.22-.04.24-.17.11-.6.26-1.19.33-1.79.04-.32-.09-.67-.07-1,.03-.58.11-1.15.18-1.73v-.02c.03-.42.07-.84.1-1.26.03-.49.09-.97.09-1.45,0-.52-.05-1.03-.08-1.55,0-.14.02-.28-.02-.41-.04-.12-.12-.29-.22-.33-.41-.15-.84-.28-1.26-.39-.31-.09-.62-.17-.94-.2-.63-.06-1.27-.07-1.91-.11-.34-.02-.69-.07-1.03-.1-.23-.01-.46,0-.69,0s-.26-.06-.16-.26c.11-.21.19-.44.33-.62.07-.09.26-.13.4-.14.37-.02.74,0,1.11,0h.51c-.06-.24-.1-.47-.17-.69-.19-.54-.3-1.09-.31-1.66-.01-.36-.06-.71-.09-1.06-.01-.04.01-.09.01-.14.47.12,1,0,1.41-.33.03.31.07.6.09.89.03.45.02.89.06,1.34.03.43.11.85.17,1.28.03.19.08.37.11.56.02.16.12.2.27.21.21.02.42.1.63.09.53-.03,1.04,0,1.55.1.04.01.08,0,.15,0-.02-.32-.04-.63-.08-.94,0-.2-.05-.38-.07-.57-.04-.4-.06-.79-.11-1.18-.05-.53-.11-1.05-.18-1.57-.08-.6-.17-1.19-.25-1.78-.09-.62-.14-1.24-.26-1.86-.06-.33-.2-.66-.32-.99-.02-.06-.16-.14-.19-.12-.25.17-.47-.02-.7-.05-.52-.06-1.04-.14-1.55-.26-.48-.11-.96,0-1.44-.05-.21,0-.42-.08-.64-.08-.24,0-.48.07-.72.08-.64.03-1.27,0-1.9.07-.69.07-1.37.23-2.05.34-.08,0-.26-.07-.27-.13-.03-.29-.24-.34-.46-.4-.03-.27.18-.31.35-.36.41-.13.82-.25,1.23-.35.27-.07.54-.16.85-.08.19-.08.09-.25.05-.39-.13-.49-.25-1-.42-1.48-.21-.63-.46-1.25-.69-1.87-.13-.37-.26-.74-.4-1.12.29-.11.57-.23.87-.31.04-.02.18.1.2.17.08.35.12.7.21,1.05.08.3.01.58-.08.86s.14.81.41.87c.26.05.3.22.35.42.09.42.18.84.29,1.25.1.35.23.39.56.35.56-.09,1.12-.15,1.69-.2.82-.08,1.65-.12,2.47-.21.46-.04.91-.16,1.36-.25.04,0,.06-.03.09-.03.33-.01.36-.05.33-.36-.08-.6-.14-1.21-.21-1.81-.05-.46-.09-.92-.14-1.37,0-.07,0-.14.02-.2.13-.46.14-.46-.25-.7-.26-.16-.53-.31-.8-.45-.24-.13-.48-.26-.74-.37-.5-.21-1-.4-1.51-.6-.17-.07-.34-.14-.49-.23-.48-.29-.94-.58-1.41-.87-.06-.03-.13-.04-.18-.07-.04-.03-.08-.07-.15-.14.53.02.65-.4.9-.7.34.19.67.39,1.01.57.18.1.37.19.56.25.05.01.2-.07.2-.12.04-.91.06-1.82.09-2.74,0-.03-.02-.05-.03-.08h.58c-.04.38-.08.76-.11,1.14-.01.2-.01.41-.01.61,0,.57,0,1.14.01,1.7,0,.07.02.15.02.22,0,.21.1.29.31.32.31.03.61.11.91.16.28.05.57.08.84.12,0-.29-.01-.56.01-.83.02-.32.08-.63.13-.95.07-.48.18-.95.23-1.44.06-.47.1-.94.11-1.42,0-.57.04-1.13-.08-1.71-.07-.37.03-.78.06-1.17.02-.41.04-.82.07-1.22.01-.09.04-.19.05-.27h.97c-.01.15-.04.3-.04.46-.01.56.01,1.13-.01,1.69-.02.73-.08,1.47-.09,2.2,0,.39.04.77.1,1.15.05.32.19.38.49.29.64-.17,1.28-.32,1.92-.49.16-.05.32-.13.48-.2.08-.03.17-.08.26-.09.18-.01.22-.14.2-.27-.07-.39-.17-.79-.25-1.18-.04-.22-.06-.45-.08-.67-.02-.43-.03-.86-.05-1.29-.01-.3-.03-.6-.04-.87.15-.02.3-.04.44-.04.05,0,.12.06.13.11.08.44.28.86.27,1.33-.01.42.08.85.12,1.28.02.27,0,.54.02.81,0,.08.02.2.08.23s.17,0,.24-.05c.27-.12.53-.24.78-.37.15-.08.29-.2.47-.14.06.01.12.04.15.09.13.2.25.42.38.63-.31.12-.69.26-1.05.41-.15.06-.27.18-.42.23-.37.11-.75.2-1.13.3-.16.04-.27.07-.31.31-.11.61.11,1.15.21,1.72.01.04.01.08.01.08-.18.03-.32.08-.47.06-.08,0-.19-.1-.21-.18-.1-.42-.17-.84-.26-1.26,0-.09-.06-.18-.1-.27-.06-.12-.14-.12-.25-.04-.06.05-.14.09-.22.11-.58.15-1.15.33-1.75.35-.1,0-.2.06-.32.11.02.27.06.53.06.8,0,.39-.05.78-.05,1.16,0,.35.03.69.05,1.03.03.29.08.57.09.86.04.59.06,1.18.11,1.76.04.4.13.79.19,1.18.08.52.15,1.04.25,1.56.08.43.2.85.29,1.28.13.64.23,1.29.4,1.91.15.56.21,1.13.29,1.7.04.34.11.67.2,1,0,.06.17.13.23.11.44-.12.87-.24,1.29-.4.63-.26,1.29-.26,1.94-.35.25-.03.5-.11.78-.18-.02-.19-.05-.4-.05-.61-.01-.55,0-1.1-.01-1.65,0-.11-.03-.23-.04-.35-.02-.21-.04-.42-.05-.63,0-.15.04-.24.2-.29.29-.09.53-.45.53-.73,0-.32-.1-.48-.41-.52-.29-.04-.39-.17-.38-.45.01-.16-.05-.31-.07-.42.36-.02.71-.04,1.07-.06,0-.02.01-.04.02-.07.04.08.09.15.11.23.13.43.25.86.26,1.33,0,.91.09,1.82.14,2.73.01.31.03.63.04.94.01.25.13.33.36.21.4-.2.81-.22,1.23-.07.07.03.17-.03.26-.05.25-.07.29-.03.31.21.01.19.07.37.11.52-.2.02-.42.06-.63.06-.24.01-.49-.05-.73-.03-.38.03-.76.13-1.15.13-.61-.01-1.15.25-1.73.35-.34.06-.69.09-1.03.15-.09.01-.17.06-.26.09-.37.15-.73.31-1.1.44-.21.07-.44.1-.65.15-.16.03-.31.07-.46.12-.13.04-.14.11-.11.26.08.33.11.67.16,1.01.09.59.18,1.17.26,1.76.05.4.1.79.13,1.19.07.8.12,1.6.2,2.4.07.71.17,1.42.24,2.13.04.36.06.73.05,1.09-.02.74-.06,1.49-.1,2.23-.01.38-.02.76-.05,1.14-.06.87-.13,1.74-.19,2.62-.04.52-.06,1.05-.1,1.57-.04.53-.08,1.06-.21,1.59-.12.45-.14.93-.17,1.4-.02.28.29.5.57.44.06-.01.12,0,.17,0,.55-.03,1.1-.08,1.64-.09.24-.01.49,0,.73.05.59.12,1.18.12,1.77.04.07,0,.14.02.27.05.02-.15.07-.31.05-.45-.03-.41-.07-.82-.13-1.22-.04-.26-.12-.52-.18-.78-.02-.14-.02-.29-.04-.43-.05-.4-.11-.81-.16-1.21.38.08.87-.1,1.08-.39.06.37.14.73.17,1.1.03.32.02.34.31.25.37-.13.76-.12,1.14-.15.11-.01.22-.04.33-.07.23-.07.32-.02.38.22Z"/>
      <path class="cls-1" d="m103.67,101.65c-.01.21-.35.49-.6.5-.19.01-.31-.16-.33-.47-.01-.19.15-.46.28-.46.39.01.65.18.65.43Z"/>
      <path class="cls-1" d="m102.22,79.39c.17.04.22.15.14.33-.11.24-.31.36-.55.4-.38.07-.77.14-1.15.19-.18.02-.37.02-.54-.02-.07-.01-.15-.14-.16-.22-.02-.24,0-.48,0-.8.21.01.46.03.71.04.34.01.67.02,1,.04.18,0,.37.01.55.04Z"/>
      <path class="cls-1" d="m101.08,78.67c.01.13-.03.26-.04.41-.27-.05-.51-.1-.81-.16-.06-.68-.13-1.38-.19-2.03.24-.07.42-.12.6-.19.1-.04.17-.06.19.07.09.63.17,1.26.25,1.9Z"/>
      <path class="cls-1" d="m100.4,75.89c.12-.05.29.16.29.33,0,.13-.24.29-.42.29-.26.01-.11-.24-.21-.33.11-.1.21-.23.34-.29Z"/>
      <path class="cls-1" d="m99.39,79.29c.19,0,.32.13.32.33s-.21.5-.36.5c-.2,0-.32-.13-.32-.36-.01-.22.19-.46.36-.47Z"/>
      <path class="cls-1" d="m94.1,105.3c-.15.1-.25.23-.3.21-.14-.06-.42.02-.37-.25.02-.11.21-.23.34-.26.07-.01.18.16.33.3Z"/>
      <path class="cls-1" d="m93.59,84.64c.12.13.14.41-.01.49-.27.16-.57.28-.86.42-.23-.05-.33-.15-.39-.35-.08-.23-.13-.42.09-.6.29-.25.92-.24,1.17.04Z"/>
      <path class="cls-1" d="m93.15,98.54c.07.2,0,.29-.21.29-.17-.01-.35-.02-.52-.05-.09-.03-.17-.11-.25-.16.16-.27.38-.32.62-.33.2-.01.29.09.36.25Z"/>
      <path class="cls-1" d="m93.15,99.23c0,.36-.01.71-.03,1.07-.01.15-.03.3-.06.45-.04.18-.26.29-.44.23-.17-.06-.35-.12-.5-.21-.07-.05-.14-.2-.12-.27.15-.47.01-.94.04-1.41,0-.03.01-.06.01-.06.34.01.66.02.97.05.05,0,.13.1.13.15Z"/>
      <path class="cls-1" d="m92.5,67.73c.12.02.22.18.38.32-.17.14-.28.28-.39.28-.08,0-.25-.19-.23-.27.02-.12.02-.38.24-.33Z"/>
      <path class="cls-1" d="m91.19,75.35c.19.02.3.11.27.29-.01.29-.19.53-.38.53-.23,0-.46-.2-.45-.38.01-.23.29-.45.56-.44Z"/>
      <path class="cls-1" d="m90.46,89.15c.1.12.14.23.06.37-.03.06-.07.11-.09.17-.15.45-.59.56-.98.3-.38-.26-.4-.33-.39-.55,0-.25.22-.53.46-.57.35-.06.69-.06.94.28Z"/>
      <path class="cls-1" d="m90.31,75.68c.11.25.23.5.34.72-.53.17-1.08.35-1.62.51-.16.05-.34.04-.51.06-.05.01-.1.01-.13.03-.17.12-.33,0-.38-.09-.06-.13-.06-.34.01-.45.24-.37.63-.48,1.05-.54.36-.06.71-.18,1.06-.26.08-.02.15-.02.23-.03-.02.02-.04.03-.05.05Z"/>
      <path class="cls-1" d="m90.33,101.41s.01.1,0,.15c0,.15-.08.19-.21.12-.26-.15-.52-.29-.78-.45-.2-.12-.28-.38-.19-.61.06-.15.11-.33.23-.41.19-.13.46-.03.58.18.18.31.4.61.37,1.02Z"/>
      <path class="cls-1" d="m89.97,70.66s.02.05.02.06c0,.16-.37.51-.5.46-.07-.04-.17-.18-.16-.25.04-.16.1-.37.22-.42.09-.05.28.09.42.15Z"/>
      <path class="cls-1" d="m86.83,73.43c.35,0,.48.13.48.46,0,.2-.23.38-.48.37-.22,0-.39-.21-.4-.49-.01-.2.16-.34.4-.34Z"/>
      <path class="cls-1" d="m85.65,80.61c.07.05.09.21.09.32-.01.19-.15.08-.24.07-.09,0-.18,0-.27,0-.24-.02-.38-.29-.26-.49.03-.06.12-.08.19-.13.18.08.35.12.49.23Z"/>
      <path class="cls-2" d="m83.94,65.76c-.12.08-.23.17-.34.25-.03.02-.06.04-.06.07-.02.35-.32.55-.45.84-.1.22-.23.43-.34.64-.05.08.04.24-.16.24h-.05c.07-.23.09-.47.19-.68.17-.35.38-.68.57-1.02.08-.13.18-.26.29-.38.04-.05.1-.08.16-.08h.01s.03,0,.05.01c.04.01.09.05.13.11Z"/>
      <path class="cls-2" d="m82.69,74.86c.07.32.12.64.16.97,0,.04-.14.13-.2.13-.55-.05-1.1-.1-1.64.06-.39.12-.78.25-1.15.4-.1.04-.2.2-.21.31-.02.22,0,.45.04.68.05.28.12.55.19.83.14.5.28,1.01.45,1.52.13.4.3.8.46,1.2.1.25.21.51.31.76.04.08.08.14.13.21.16.21.31.42.48.63.07.08.16.14.24.21.32.27.5.49.05.86-.08.07-.2.08-.27.15-.11.1-.19.22-.28.34-.02.02-.04.07-.05.07-.37.01-.91.36-1.24.47,0,0-.02-.01-.03-.02.13-.09.54-.3.68-.39.16-.09.36-.14.5-.26.22-.2.42-.43.6-.67.05-.06,0-.25-.07-.32-.6-.62-.97-1.37-1.27-2.15-.17-.43-.42-.84-.51-1.28-.15-.75-.58-1.42-.57-2.21,0-.27-.06-.55-.1-.83-.02-.19.05-.31.24-.36.3-.08.6-.16.89-.25.18-.05.34-.15.51-.18.24-.05.49-.05.73-.06.19-.01.39.01.58-.02.06-.01.15-.15.14-.23-.05-.69-.24-1.36-.44-2.02-.02-.07,0-.15-.01-.22-.02-.35-.07-.69-.07-1.04,0-.52.02-1.06.07-1.58.06-.63.15-1.26.25-1.88.04-.28.13-.55.19-.83h.13c.01.09.05.19.02.26-.14.33-.26.66-.21,1.03.03.19.06.41-.11.57-.02.03-.02.08-.03.12-.07.44-.05.89-.05,1.34,0,.16-.08.33-.09.49,0,.23.02.47.05.7.04.34.07.68.15,1.01.1.5.25.99.36,1.48Z"/>
      <path class="cls-2" d="m69.42,75.19c.84.43.96,1.33.91,2.19-.18.96-.34,2.46-1.52,2.6-1.24-.08-.43-1.32-.15-1.96.31-.81-.08-1.57-.98-1.08-1.31,1.46-1.25,3.62-1.53,5.46-.49,2.73-.16,5.92.25,8.61-.02,1.63.19,3.3.29,4.98-.05.03-.1.06-.14.09-.02,0-.03.03-.04.04,0,.08,0,.16.01.23.01.13-.03.26-.02.38.04.72.1,1.44.15,2.16,0,.27,0,.54,0,.8-.01.06-.04.12-.1.17.06-2.65-.29-5.28-.31-7.94-.36-3.37-.82-6.81-.35-10.2.24-1.42.39-3.04,1.08-4.34.2-.38.45-.74.77-1.06.29-.11.56-.08.77.05.26.15.45.43.54.77.13.55-.24,1.16-.44,1.67-.08.22-.19.48.06.65.14.04.4.22.51.07-.18-.07-.31-.19-.39-.37.19-.18.22.28.46.21.38-.17-.43-.3-.2-.53.11.14.23.25.4.27.23-.32-.09-.29-.23-.46.13-.05.24.12.38.09-.02-.05-.01-.11-.08-.1-.11,0-.27-.18-.24-.27.12.03.29.17.43.14.11-.05.2-.3.07-.36.32-.25.05-.37-.24-.4.11-.1.37.08.39-.12.02-.13-.05-.29-.21-.28.02-.08.09-.05.13-.07.17-.07.13-.39-.03-.47.22-.23-.05-.27-.26-.26-.04-.15.22-.14.15-.27-.04-.09-.16-.02-.24-.04-.08-.03-.08-.14-.1-.21-.05-.14-.22.03-.32.04,0,0-.01-.01-.01-.02.11-.13.43-.19.6-.14-.01-.08-.02-.15-.03-.2-.1.02-.19.04-.28.05,0,0,0,0-.02,0,.25-.49-.22-.04-.4-.1.75-.65-1.25-.75-1.56-.35-.56.28-.82,1.01-1.03,1.58-.05.18-.18.34.05.44-.08.02-.18-.09-.22.02-.06.2-.15.36.07.49,0,0-.01.02-.02.03-.27-.18-.34.24-.31.43.07.09.29.08.25.22-.03-.02-.06-.04-.08-.05-.06.02-.1-.02-.14-.05-.16-.14-.16.19-.19.29-.04.2.19.12.1.38-.1-.17-.23-.13-.21.06.01.17.37-.06.42.18-.07.05-.14.06-.22.06-.11-.17-.32-.06-.25.15.12.1.3.03.4.16-.04.03-.07.09-.12.1-.03-.12-.16-.09-.23-.15-.16.17-.15.43.13.4.01.05.03.09.04.13-.35-.13-.4.1-.36.4.04.04.23.01.2.13-.37-.12-.35.51-.24.52.15.06.01.18-.09.19-.12,1.3-.01,2.69-.11,4.06-.17,2.03-.28,4.09.05,6.11-.01.02-.03.03-.03.03.2,1.15.4,2.29.38,3.48.29-.03.31.24,0,.23.04.06-.04.25.08.22q.04.2-.05.22c0,.12,0,.24.01.35.15.02.3.06.17.23-.24-.12-.26.4.1.23l.17.17c-.21.1-.19.01-.36.09-.14-.01-.01.29,0,.38.18-.03.65.11.28.24-.45-.1-.3.27.06.19.03.05.05.08.08.12-.09.1-.26.06-.38.11.02.09.07.17.07.27.37-.05.42.34,0,.18,0,.09.01.17.01.25.09.1.28-.06.31.05.06.21-.18.15-.3.18-.03.16-.11.52.16.43-.01.1-.01.19-.02.28-.08-.12-.2-.07-.19.07.12.18.53.08.65.37h0s-.04.02-.06.04c-.21-.05-.4-.11-.59-.16-.01.07-.04.2-.04.31-.2-.07-.38-.27-.36-.48.05-.6-.01-1.21-.05-1.81,0-.04-.03-.27-.04-.31-.01-.06-.05-.17-.07-.24v-.02c.02-.54.06-1.08.09-1.62-.33-3.64-.52-7.31-.63-10.97-.02-.21-.05-.42-.07-.63,0-.12.03-.24.03-.36,0-.16-.02-.31-.03-.47,0-.04.02-.08.03-.12.01-.11.03-.22.04-.34.03-.2.06-.41.08-.62.19-1.84.6-3.64,1.21-5.38.42-1.73,1.95-2.26,3.43-1.58Z"/>
      <path class="cls-2" d="m70.32,101.11c0,.25-.07.48-.23.68-.11.13-.19.28-.31.41-.09.09-.24.13-.34.22-.23.24-.55.33-.83.48-.49.27-1.06.2-1.56.39-.05.02-.26.07-.49.11.01-.12.01-.24.02-.36.21-.04.42-.09.63-.13.49-.09.99-.19,1.48-.29.14-.03.27-.1.4-.15.27-.1.37-.36.52-.57.14-.2.24-.42.33-.64.02-.05-.03-.17-.08-.2-.24-.15-.28-.46-.06-.65h.02c.07.06.08.13.05.23-.02.06.05.2.1.21.14.03.13-.09.12-.18,0-.08-.02-.15-.04-.22-.01-.06-.03-.11-.05-.16-.04.03-.08.07-.12.1-.01.01-.04.01-.06.02h-.01s-.01,0-.01,0c.01-.08.02-.16.03-.23-.06.02-.11.05-.13.09-.12.25-.22.52-.36.76-.15.26-.33.5-.53.73-.08.09-.22.16-.34.19-.08,0-.21-.05-.27-.11-.13-.14.01-.27.07-.38.2-.4.48-.76.55-1.22.04-.27.06-.54-.1-.78-.02-.04-.07-.06-.11-.08-.01,0-.05.05-.06.08-.01.12-.01.25-.03.38-.04.33-.19.61-.37.89-.25.38-.6.64-.95.91-.06-.04-.13-.07-.22-.12.16-.17.33-.33.48-.5.19-.21.4-.4.54-.64.38-.63.23-1.33.2-2.01,0-.02-.02-.04-.03-.07-.08-.23-.17-.45-.22-.69-.04-.19-.16-.32-.37-.28.01.05.02.1.04.14.14.3.28.6.31.94.02.22.08.44.08.66,0,.2-.04.41-.11.6-.13.32-.26.64-.43.93-.1.15-.18.43-.48.28-.01,0-.02,0-.05-.04.04-.06.07-.11.11-.16.09-.11.19-.21.26-.32.08-.14.16-.28.19-.43.06-.27.11-.54.09-.81-.04-.54-.12-1.09-.2-1.64-.02-.12-.07-.25-.11-.4-.06.05-.1.08-.12.09-.12-.07-.23-.14-.35-.22,0,.34-.02.65,0,.95s.08.6.11.9c.02.27.06.56.03.83-.02.15-.13.3-.22.44.02-.53.03-1.07.03-1.6-.09-.11.03-.36-.04-.51h.01c.02-.66,0-1.31-.04-1.97.02-.02.05-.03.08-.04.05-.02.09-.03.14-.04h.01c.1.05.21.09.3.15.23.17.33.38.17.63.39.43.9.76,1.02,1.36.04.24.08.47.12.7.03.22.21.34.35.5.18.19.31.41.28.7-.03.27,0,.53,0,.79.05-.1.11-.21.16-.33.14-.39.38-.51.77-.48.08.01.19.13.2.21.03.32.04.65.04.97Zm-3.11-4.11s.05-.02.07-.03c0-.31-.16-.56-.35-.81q-.15.12-.02.22s.04.06.05.1v.28c.04-.08.06-.12.07-.15.06.14.12.26.18.39Z"/>
      <path class="cls-1" d="m69.86,101.06s.1.15.08.2c-.09.22-.19.44-.33.64-.15.21-.25.47-.52.57-.13.05-.26.12-.4.15-.49.1-.99.2-1.48.29-.21.04-.42.09-.63.13.06-.99.12-1.98.15-2.97.09-.14.2-.29.22-.44.03-.27-.01-.56-.03-.83-.03-.3-.09-.6-.11-.9s0-.61,0-.95c.12.08.23.15.35.22.02,0,.06-.04.12-.09.04.15.09.28.11.4.08.55.16,1.1.2,1.64.02.27-.03.54-.09.81-.03.15-.11.29-.19.43-.07.11-.17.21-.26.32-.04.05-.07.1-.11.16.03.03.04.04.05.04.3.15.38-.13.48-.28.17-.29.3-.61.43-.93.07-.19.11-.4.11-.6,0-.22-.06-.44-.08-.66-.03-.34-.17-.64-.31-.94-.02-.04-.03-.09-.04-.14.21-.04.33.09.37.28.05.24.14.46.22.69.01.03.03.05.03.07.03.68.18,1.38-.2,2.01-.14.24-.35.43-.54.64-.15.17-.32.33-.48.5.09.05.16.08.22.12.35-.27.7-.53.95-.91.18-.28.33-.56.37-.89.02-.13.02-.26.03-.38.01-.03.05-.08.06-.08.04.02.09.04.11.08.16.24.14.51.1.78-.07.46-.35.82-.55,1.22-.06.11-.2.24-.07.38.06.06.19.12.27.11.12-.03.26-.1.34-.19.2-.23.38-.47.53-.73.14-.24.24-.51.36-.76.02-.04.07-.07.13-.09,0,.07-.02.15-.03.23-.22.19-.18.5.06.65Z"/>
      <path class="cls-2" d="m66.69,95.99c.04.66.06,1.31.04,1.97h-.01c.07.15-.05.4.04.51,0,.53-.01,1.07-.03,1.6-.01.02-.03.04-.04.06-.05.07-.1.14-.15.19.01-.11.01-.21.01-.31v-.14h0c.06-.06.09-.12.1-.18,0-.26,0-.53,0-.8-.05-.72-.11-1.44-.15-2.16,0-.12.03-.25.02-.38-.01-.07-.01-.15-.01-.23.01-.01.02-.03.04-.04.04-.03.09-.06.14-.09Z"/>
      <path class="cls-1" d="m66.69,100.13s.03-.04.04-.06c-.03.99-.09,1.98-.15,2.97-.08,0-.15.03-.23.04.03-.54.08-1.08.13-1.62.03-.38.06-.76.06-1.14.05-.05.1-.12.15-.19Z"/>
      <path class="cls-2" d="m66.58,103.04c0,.12,0,.24-.02.36-.08.02-.16.03-.24.04l.03-.36c.08-.01.15-.03.23-.04Z"/>
      <path class="cls-2" d="m66.55,99.87v.14c0,.1,0,.2-.01.31-.12.13-.27.21-.45.19.03,0,.08-.02.11-.05.08-.15-.25-.19-.35-.17-.06-.02-.08-.08-.09-.15.04.01.09.02.14.02.04,0,.07-.01.11-.02.01,0,.21-.06.38-.15.02.01.05.01.08.02,0-.02-.01-.04-.02-.05h0s.07-.06.1-.09Z"/>
      <path class="cls-1" d="m66.54,100.32c0,.38-.03.76-.06,1.14-.05.54-.1,1.08-.13,1.62-.13.02-.27.03-.4.03-.11,0-.22,0-.33-.02.01-.16.04-.32.07-.48.12.01.32-.16.14-.25-.18-.05-.08-.3-.11-.45.28.15.32-.21.02-.22-.03-.08-.07-.64.07-.6.13,0,.19.08.32,0-.01-.33-.31-.08-.4-.24.03-.15-.05-.37.11-.39,0,.01.01,0,.01,0,.04.02.08.03.12.03t.02.01s.07,0,.1,0c.18.02.33-.06.45-.19Z"/>
      <path class="cls-2" d="m66.45,99.96s.02.03.02.05c-.03,0-.06,0-.08-.02.02-.02.04-.03.06-.03Z"/>
      <path class="cls-2" d="m66.32,103.44c.08-.01.16-.02.24-.04-.11,1.68-.23,3.36-.3,5.05-.24,2.24.35,4.76-.26,6.83-.02.06-.04.11-.05.16-.13.01-.27.02-.37.03-1.27-.72-.18-3.96-.39-5.33.13-1.74-.09-3.51-.01-5.24-.03-.49-.06-.98-.08-1.46.09.03.17.04.23.05.02-.01.11-.01.22-.01-.28,2.13-.08,4.25-.16,6.42.04,1.61-.26,3.27-.05,4.88.42.82.81-.28.74-.76-.02-3.54,0-7.06.24-10.58Z"/>
      <path class="cls-2" d="m66.35,103.08l-.03.36c-.14.02-.26.04-.32.04h-.45c.02-.13.03-.26.07-.39.11.02.22.02.33.02.13,0,.27-.01.4-.03Z"/>
      <path class="cls-2" d="m65.85,100.29c.1-.02.43.02.35.17-.03.03-.08.05-.11.05s-.07,0-.1,0t-.02-.01s-.04-.01-.06-.02c-.02,0-.04-.01-.06-.01,0,0-.01.01-.01,0-.16-.04-.31-.1-.46-.15-.12-.04-.21-.1-.27-.19.02-.94.07-1.88.13-2.82.02.07.06.18.07.24.01.04.04.27.04.31.04.6.1,1.21.05,1.81-.02.21.16.41.36.48.01.07.03.13.09.15Z"/>
      <path class="cls-1" d="m66.13,101.09c-.13.08-.19,0-.32,0-.14-.04-.1.52-.07.6.3.01.26.37-.02.22.03.15-.07.4.11.45.18.09-.02.26-.14.25-.03.16-.06.32-.07.48-.18-.02-.36-.07-.53-.16-.02-.94-.01-1.88.02-2.81.06.09.15.15.27.19.15.05.3.11.46.15-.16.02-.08.24-.11.39.09.16.39-.09.4.24Z"/>
      <path class="cls-2" d="m65.97,100.49s-.08-.01-.12-.03c.02,0,.04.01.06.01.02.01.04.01.06.02Z"/>
      <path class="cls-2" d="m65.62,103.09c-.04.13-.05.26-.07.39-.11,0-.2,0-.22.01-.06-.01-.14-.02-.23-.05,0-.17,0-.34-.01-.51.17.09.35.14.53.16Z"/>
      <path class="cls-2" d="m50.37,80.53c-.21-.04-.43-.07-.63-.03-.22.04-.42.15-.62.23l.03.06c.41-.08.81-.17,1.22-.26Zm3.92-7.04c.77.53,1.52,1.08,1.82,2.05-.14.09-.26.04-.33-.12-.1-.21-.2-.41-.32-.6-.07-.12-.18-.21-.28-.31-.37-.35-.72-.75-1.22-.93-.16-.06-.35-.04-.53-.05-.02,0-.06.06-.08.09-.02.07-.01.15-.04.2-.09.12-.18.25-.3.3-.15.06-.34.03-.5.04-.01.02-.01.05-.01.07.27.05.55.1.83.16.43.11.86.22,1.28.35.34.1.54.39.68.67.12.24.08.53-.12.72-.24.22-.56.35-.9.25-.15-.05-.28-.16-.43-.24-.2-.09-.37-.26-.64-.17.17.13.47.09.46.38,0,.21-.06.42-.11.67.04.02.12.06.19.12.36.3.79.46,1.23.56.38.08.73.2,1.05.39.09.05.14.14.22.2.07.05.15.11.23.1.09,0,.19-.04.29-.08.35-.15.69-.3,1.04-.44.36-.15.31-.23.25-.39-.16-.42-.17-.85-.12-1.29.02-.24.06-.48-.04-.73-.12-.28-.21-.58-.31-.88-.08-.26-.17-.54-.23-.81-.03-.13-.11-.13-.2-.15-.17-.04-.36-.04-.48-.14-.1-.1-.12-.29-.18-.45-.12.04-.18.17-.1.34.1.22.23.42.34.62.15.26.31.51.45.77.02.04.02.12,0,.15-.03.03-.11.05-.15.04-.06-.03-.11-.09-.16-.15-.21-.27-.4-.58-.78-.66.43.36.7.81.89,1.33-.16.07-.28.02-.34-.16-.18-.49-.5-.88-.89-1.19-.2-.16-.45-.26-.65-.41-.26-.21-.52-.25-.81-.22Zm-2.83-1.15c-.08-.03-.13-.07-.19-.06-.19.02-.38.1-.58.1-.34.01-.69-.02-1.04-.05-.41-.03-.81-.12-1.22-.13-.54-.01-1.08,0-1.63.05-.7.07-1.4.1-2.08.26-.35.09-.69.25-1.03.37-.15.05-.13.14-.07.24.11.19.23.38.33.58.11.19.18.21.36.08.04-.02.09-.05.13-.06.33-.12.65-.27.99-.33.43-.08.84-.26,1.29-.26.37,0,.74-.03,1.11-.03.49-.01.98-.02,1.48,0,.17,0,.34.09.52.11.23.02.46.04.67.18.08.04.2.05.3.04.16-.03.13-.2.17-.31.09-.3.2-.57.49-.78Zm13.78,24.94v.02c-.06.94-.11,1.88-.13,2.82-.08-.08-.12-.19-.13-.33-.01-.11-.03-.21-.04-.32-.01-.1-.02-.2-.01-.29.02-.15.07-.29.07-.44.01-.38.01-.77.01-1.15,0-.07-.01-.17-.05-.2-.09-.07-.2-.11-.31-.16-.02.07-.05.14-.09.24-.01,0-.05.04-.1.04-.27.03-.27.02-.28.3,0,.07-.03.14-.02.21.01.05.06.11.1.14.04.02.1,0,.18,0-.23.12-.26.32-.29.51-.04.25-.05.51-.13.74-.12.39-.41.65-.77.83-.39.19-.76.4-1.23.28-.07-.02-.23.07-.26.15-.06.14-.08.31-.06.46.06.42.13.83.23,1.24.02.12-.06.35.18.34.14,0,.28-.05.42-.08.14-.04.29-.12.44-.11.44.01.88.05,1.31.11.22.03.45.09.63.2.06.04.12.07.18.1.01.17.01.34.01.51-.23-.07-.53-.19-.6-.22-.54-.19-1.08-.34-1.65-.32-.1,0-.2.05-.29.07-.11.03-.21.06-.31.08-.16.02-.27.17-.23.32.08.34-.01.46-.35.47-.1,0-.19.02-.29.03-.33.06-.66.14-.99.15-.7.04-1.4.02-2.1.06-.41.02-.81.1-1.21.16-.13.01-.26.02-.39.02-.62.04-1.24.07-1.92.1.03.14.04.28.09.41.22.62.45,1.24.68,1.86.11.3.22.59.3.9.09.32.14.66.21.99.09.49.23.99.26,1.48.04.57.08,1.16-.14,1.69-.11.28-.24.6-.63.73-.22.07-.39.29-.6.46.05.02.08.04.11.05-.1.05-.24.01-.28.19-.01.07-.19.1-.29.16-.07.05-.13.12-.2.17-.12.09-.24.2-.38.25-.32.13-.47.45-.79.59-.29.13-.53.35-.79.54-.07.05-.12.15-.17.23-.23.33-.56.56-.92.71-.21.09-.48.04-.72.02-.32-.04-.64-.11-.95-.19-.26-.06-.51-.15-.77-.23-.21-.06-.42-.13-.63-.19-.36-.12-.72-.23-1.08-.35-.38-.13-.78-.24-1.14-.41-.38-.17-.8-.09-1.18-.22-.22-.07-.44-.11-.67-.16-.32-.05-.65-.09-.96-.16-.64-.13-1.27-.18-1.92-.15-.16.01-.32.05-.48.03-.68-.08-1.34.1-2.01.2-.26.04-.51.06-.77.08-.02,0-.06-.01-.08,0-.17.12-.32.05-.44-.08,0-.22.01-.43,0-.64-.01-.11-.03-.23-.05-.34-.05-.24-.2-.34-.44-.31s-.48.05-.71.07c-.28.03-.56.05-.83.08-.21.03-.26.21-.32.39-.16.44,0,.88-.03,1.32-.01.32.01.64-.01.96-.02.39-.25.55-.63.45-.13-.03-.25-.1-.41-.17-.03.01-.08.05-.14.09-.27.18-.3.19-.53-.02-.17-.15-.27-.07-.41.02-.14.08-.31.16-.46.15-.1-.01-.21-.15-.28-.26-.22-.3-.26-.66-.3-1.02-.05-.37-.21-.76-.17-1.12.04-.29-.07-.58.02-.86.04-.14.01-.31-.01-.46-.06-.46.19-.78.47-1.1.33-.35.76-.48,1.2-.59.54-.14,1.1-.19,1.66-.21.66-.02,1.32-.07,1.99-.11.1-.01.2-.06.29-.08.01-.13.01-.24.03-.35.03-.24-.08-.37-.32-.39-.49-.04-.98-.07-1.46-.12-.6-.06-1.19-.15-1.78-.21-.57-.05-1.13-.03-1.7.14-.44.14-.78.38-1.07.72-.2.25-.25.55-.31.84-.11.6-.15,1.2-.13,1.8.03.59.11,1.19.1,1.78-.01.35,0,.74-.25,1.05-.08.09-.14.19-.22.28-.12.13-.23.08-.35-.01-.14-.12-.28-.11-.4.03-.3.34-.36.27-.73,0-.14-.11-.21-.11-.3.02-.22.35-.79.33-.98-.05-.13-.28-.21-.59-.31-.89-.14-.39-.12-.8-.12-1.21v-.68c0-.31-.01-.62-.01-.94.01-.34.01-.69.06-1.03.03-.21.14-.4.21-.61.02-.05.01-.1.01-.15.07-.72.19-1.43.61-2.02.23-.34.58-.61.87-.9.02-.02.05-.02.07-.03.35-.14.69-.3,1.04-.41.25-.09.52-.12.78-.18.15-.03.29-.09.44-.12.29-.05.58-.11.87-.15.14,0,.29.03.44.03.24.02.49.04.74.04.41,0,.82-.03,1.23-.03.43,0,.85-.02,1.28,0,.31.02.62.09.93.12.1.02.21,0,.32-.01.26-.04.51-.09.76-.15.06-.02.12-.1.14-.17.03-.08.03-.18.04-.26.05-.36.11-.71.15-1.06.02-.12-.03-.26-.02-.38,0-.08.07-.19.14-.23.06-.04.2-.05.26-.01.46.33.98.46,1.52.58.59.12,1.17.24,1.76.34.25.04.5.07.74.04.26-.03.43-.24.54-.47.18-.42.18-.85.08-1.3-.09-.39-.1-.8-.16-1.2-.05-.32-.12-.65-.18-.97-.04-.25-.09-.5-.13-.75-.1-.52-.17-1.05-.29-1.58-.15-.67-.24-1.34-.17-2.03.05-.49.12-.99.27-1.46.14-.42.38-.81.59-1.2.25-.5.52-.98.77-1.48.22-.47.5-.9.87-1.27.32-.33.61-.69.92-1.03.1-.12.22-.22.31-.34.06-.09.12-.2.12-.3.02-.32.02-.65.01-.98-.01-.35,0-.7-.05-1.05-.05-.34-.18-.65-.49-.87-.16-.11-.3-.26-.46-.4-.18.38-.15.75-.04,1.13.04.14.05.3.06.45.03.64.05,1.27.19,1.9.04.18-.01.38-.03.57-.02.13-.11.14-.22.13-.52-.03-1.03-.08-1.55-.07-.31,0-.62.12-.93.17-.18.03-.37.03-.55.03-.36.01-.73,0-1.1.01-.28,0-.56.04-.85.05-.04,0-.1-.06-.12-.1-.1-.2-.05-.43.13-.61.01-.01.02-.03.03-.05.17-.56.38-1.11.49-1.68.12-.63.09-1.27-.02-1.91-.03-.18-.04-.37-.04-.56-.02-.6-.03-1.2-.04-1.81s-.04-1.23.01-1.84c.03-.36.19-.7.3-1.05.07-.23.15-.46.24-.69.11-.3.24-.59.36-.88.06-.16.11-.31.16-.47.07-.18.15-.37.22-.55.01-.02.04-.05.05-.05.12.06.12-.06.12-.11.05-.28.25-.49.38-.74.03-.06.07-.13.07-.19-.02-.23.12-.41.25-.53.13-.11.18-.19.17-.36,0-.09.12-.19.19-.28.18-.23.36-.48.57-.7.26-.28.54-.53.82-.81-.08-.04-.16-.09-.24-.12-.33-.13-.37-.37-.25-.62.05-.11.03-.19-.02-.27-.18-.32-.36-.63-.55-.94-.07-.12-.03-.25.09-.34.11-.09.21-.19.3-.29.06-.07.1-.17-.02-.24-.03-.02-.02-.11,0-.15.21-.42.5-.75.93-.97.44-.23.91-.34,1.38-.46.43-.11.86-.2,1.31-.14.2.02.41-.03.6-.01.31.03.62.09.93.14,0,0,.02.02.03.02.34-.07.64.1.96.15.32.06.63.17.85.44.05.06.15.1.19.17.1.16.21.32.26.5.06.19.15.23.33.22.13,0,.26.04.46.08-.15.25-.28.44-.38.64-.12.25-.21.51-.31.77-.02.04-.02.09,0,.12.07.09.09.17.09.25,0,.17-.1.34-.11.51-.01.07-.03.14-.03.2.04.36.2.68.35,1,.13.28.19.59.28.89.08.31.14.63.24.94.06.23.16.44.25.66.08.21.17.42.25.63.05.14-.12.36-.27.38-.29.04-.58.07-.86.08s-.55.02-.78.16c-.08.05-.19.13-.19.19.01.09.09.19.16.26.04.05.13.07.2.1.19.1.23.31.1.48-.21.27-.21.6-.04.88.06.09.07.21.1.32.06.2.13.39.17.6.02.11-.04.24-.05.37-.06.41-.03.77.38,1.03.18.11.33.28.47.44.05.05.01.17.04.25.11.26.25.52.33.79.12.42.2.85.28,1.28.04.22.07.43.08.65,0,.32,0,.64,0,.97,0,.39-.04.45-.42.59-.06.03-.13.05-.19.07v-.05c-.07-.01-.13-.02-.2-.02s-.14.02-.21.01c-.25-.03-.48.01-.71.1-.21.07-.38-.07-.54-.17-.45-.27-.6-.71-.63-1.21,0-.02,0-.04-.01-.06-.22,0-.29.05-.33.35-.1.68-.13,1.36-.05,2.05.02.18.02.36.05.54.01.09.07.15.19.19.26.09.46.29.63.51.38.51.72,1.04.94,1.64.09.25.36.44.64.42.34-.02.67-.07,1.01-.12.27-.05.55-.1.81-.2.6-.21,1.22-.41,1.69-.88.16-.15.36-.26.52-.41.42-.4.7-.89.87-1.43.19-.6.35-1.2.51-1.8.02-.1-.02-.22-.02-.33,0-.21-.03-.43.01-.64.07-.43.2-.85.17-1.29-.02-.31-.08-.62-.12-.93-.04-.27-.08-.54-.14-.81-.09-.44-.19-.87-.29-1.3-.12-.5-.23-.99-.39-1.48-.13-.4-.32-.78-.48-1.17-.15-.34-.29-.68-.42-1.02-.07-.2-.02-.32.17-.41.09-.04.21-.05.3-.1.07-.04.14-.11.19-.19.01-.02-.04-.11-.09-.15-.3-.26-.65-.39-1.04-.49-.4-.1-.84-.13-1.18-.4-.17-.15-.32-.27-.54-.36-.17-.07-.27-.33-.38-.52-.05-.08-.07-.19-.09-.29-.06-.34.23-.61.56-.51.21.06.42.16.61.28.3.19.62.21.92.04.1-.05.19-.19.19-.3.01-.16,0-.32-.13-.48-.36-.4-.85-.44-1.31-.57-.27-.08-.57-.08-.84-.17-.3-.11-.63-.22-.78-.55-.02-.04-.03-.07-.04-.11-.04-.19.04-.38.23-.46.27-.1.56-.14.86-.12.11,0,.22,0,.33,0,.37-.01.75-.03,1.12-.04.26-.01.48.1.69.24.04.02.09.06.14.07.34.07.69.14.97.39.02.02.05.02.13.04-.04-.1-.07-.16-.1-.22-.06-.11-.12-.21-.18-.32-.1-.16-.07-.33.01-.48.06-.12.17-.29.28-.31.16-.03.37,0,.49.17.2.27.42.52.59.81.11.19.16.42.23.64.11.39.22.77.31,1.16.05.24.11.48.09.74-.02.4-.08.81.1,1.21.08.17.29.23.45.1.06-.06.13-.15.21-.16.16-.04.3.03.35.19.15.54.3,1.08.44,1.62.1.37.18.74.26,1.11.13.61.24,1.23.38,1.84.04.21.14.41.19.63.04.18.06.36.07.55.06.53.12,1.06.16,1.59.04.43.08.86.07,1.29-.01.71-.05,1.42-.11,2.12-.05.57-.16,1.14-.23,1.71-.02.19-.01.39-.04.58-.16.81-.43,1.57-.81,2.31-.31.61-.73,1.12-1.2,1.6-.25.25-.49.51-.73.76-.29.32-.64.58-.96.86-.02.02-.03.03-.05.04-.5.03-.8.43-1.18.67-.17.1-.26.33-.39.49-.3.34-.63.66-.9,1.03-.14.19-.19.45-.27.68-.07.21-.11.42-.09.65.03.28.09.37.36.35.41-.02.82-.05,1.22-.07.32-.02.64-.04.96-.04.82-.02,1.63-.06,2.43-.27.13-.03.28,0,.43-.01.69-.04,1.39-.08,2.09-.12.03,0,.08,0,.11.01.15.04.25.11.24.29-.01.15-.09.36.13.43.11.03.24,0,.36-.03.3-.07.65-.05.9-.27.18-.16.35-.34.48-.55.24-.38.17-.84.24-1.27.05-.29.12-.58.23-.86.1-.25.3-.38.52-.38.13,0,.27.05.41.14.02.02.21.23.22.25,0,0,.01,0,.02.03Zm-3.9,6.28c.15-.02.16-.13.14-.25-.02-.14-.06-.29-.07-.43-.03-.34-.03-.69-.09-1.02-.08-.53-.09-1.05,0-1.57.07-.37-.02-.44-.38-.41-.7.05-1.4.08-2.09.12-.07,0-.13-.01-.2,0-.69.17-1.41.19-2.12.22-.27.02-.55.02-.83.02l-.48.03c-.4.02-.8.05-1.2.07-.15.01-.3.01-.45,0-.37-.03-.73-.05-1.1-.1-.2-.03-.4-.12-.6-.17-.33-.06-.62-.2-.87-.41-.46-.37-.89-.77-1.33-1.17-.38-.35-.77-.68-1.07-1.13-.19-.29-.49-.51-.74-.76-.05-.04-.11-.06-.14-.1-.31-.35-.73-.54-1.1-.79-.14-.09-.25-.03-.34.03-.34-.21-.66-.41-.98-.61-.24-.15-.45-.11-.65.05-.07.07-.13.15-.19.22-.28.34-.45.72-.46,1.15,0,.41.05.84.22,1.22.14.31.3.61.48.9.26.39.53.78.85,1.12.35.39.74.73,1.13,1.07.31.27.64.51.96.76.19.14.37.29.56.4.44.24.89.46,1.32.71.39.22.77.45,1.21.59.4.13.81.23,1.23.27.44.05.88.07,1.31.17.63.15,1.27.22,1.91.22.42,0,.83-.05,1.25-.08.36-.02.72.07,1.06-.07.04,0,.09.01.13.02h0c-.05.09-.01.1.06.09.26-.03.52-.06.71-.08h-.77c.37-.05.72-.12,1.08-.15.44-.02.88.02,1.31-.01.44-.02.88-.09,1.32-.15Zm-.89-15.8c0-.34-.01-.67-.02-1.01,0-.6.02-1.21-.01-1.81-.03-.47-.12-.93-.18-1.4-.04-.24-.05-.48-.1-.71-.06-.24-.16-.48-.22-.73-.06-.26-.09-.53-.16-.79-.05-.23-.14-.46-.19-.69-.09-.47-.14-.94-.24-1.4-.08-.38-.22-.75-.3-1.14-.03-.18-.11-.25-.26-.21-.16.04-.3.13-.46.19-.29.11-.58.2-.87.32-.46.18-.91.39-1.37.57-.17.06-.21.14-.14.3.22.5.42,1.02.67,1.52.2.4.32.82.43,1.26.1.42.19.84.27,1.27.09.52.18,1.03.23,1.55.03.37.14.73.09,1.1-.03.17-.02.34-.04.5-.05.28-.12.55-.16.83-.08.51-.12,1.03-.23,1.54-.09.46-.28.9-.45,1.35-.36.92-1.02,1.53-1.8,2.05-.46.29-.94.56-1.42.81-.2.11-.43.2-.66.24-.41.07-.83.12-1.25.15-.19.01-.4-.04-.52-.21-.27-.38-.53-.78-.78-1.17-.19-.28-.36-.57-.55-.86-.06.09-.1.14-.16.21-.07-.24-.13-.46-.21-.72-.42.57-.96.92-1.64.87-.65-.05-1.28-.22-1.73-.78-.04.14-.13.28-.09.37.17.35.36.69.69.93.45.33.95.49,1.51.4.23-.04.48-.06.67-.22.23-.2.44-.42.66-.63.02.02.04.04.05.06-.27.45-.52.93-1.08,1.12-.33.11-.67.16-.99.06-.33-.1-.66-.24-.96-.41-.24-.13-.52-.24-.63-.54-.08-.24-.18-.47-.28-.74-.09.05-.2.11-.28.19-.15.15-.26.33-.4.47-.41.4-.69.87-.93,1.37-.23.5-.49.98-.74,1.46-.24.47-.48.94-.55,1.47-.02.18-.05.36-.08.54-.02.17-.05.34-.07.51-.09.66.17,1.29.26,1.93.05.34.17.67.24,1,.08.38.13.76.19,1.13.04.23.09.45.13.68.07.49.13.99.2,1.48.08.55.07,1.08-.28,1.55-.14.19-.3.35-.44.53-.12.15-.27.23-.45.24-.4.04-.78-.06-1.16-.15-.48-.11-.98-.16-1.46-.26-.25-.05-.49-.15-.73-.22-.17-.05-.34-.1-.54-.17-.05.33-.11.63-.14.94-.03.24.01.48-.01.71-.02.25-.09.49-.12.73-.06.42-.11.83-.15,1.24-.02.22,0,.43,0,.65-.01.04-.04.08-.05.12-.04.11-.09.21-.1.32-.03.26-.05.51-.06.77-.02.43-.07.86-.06,1.28.02.55.1,1.1.15,1.64.02.28.05.32.26.3.15-.01.3-.01.44-.04.62-.11,1.24-.23,1.88-.23.51,0,1.02-.03,1.54-.04.21,0,.42.03.63.07.25.05.51.12.76.16.57.09,1.14.16,1.71.24.19.03.38.05.56.12.4.15.79.35,1.19.49.64.23,1.28.43,1.93.64.3.09.6.17.9.25.32.08.64.15.97.21.1.02.23.02.32-.03.24-.13.47-.27.69-.43.34-.25.65-.53.98-.78.55-.42,1.11-.81,1.66-1.22.14-.11.27-.25.42-.35.3-.17.58-.35.77-.67.22-.36.38-.72.34-1.15-.03-.42-.05-.84-.12-1.25-.08-.51-.19-1.01-.31-1.51-.14-.58-.3-1.16-.47-1.73-.08-.28-.19-.55-.3-.81-.1-.26-.22-.5-.32-.75-.11-.28-.17-.58-.58-.54-.11.01-.23-.02-.35-.04-.38-.08-.77-.16-1.16-.23-.49-.09-.99-.18-1.48-.26-.55-.09-.99-.41-1.48-.63-.41-.19-.79-.43-1.17-.66-.23-.14-.43-.32-.64-.49-.61-.46-1.22-.93-1.82-1.41-.31-.24-.54-.56-.79-.86-.53-.63-.95-1.3-1.11-2.11-.05-.25-.11-.51-.09-.76.02-.29.1-.59.2-.87.08-.22.12-.46.33-.62.18-.14.32-.34.48-.51.12-.15.25-.17.41-.06.04.03.09.03.13.05.16.07.32.14.48.22.19.1.38.23.58.32.38.19.77.38,1.16.55.27.12.43.35.61.55.24.25.47.52.7.78.07.07.13.17.21.24.25.2.52.38.76.59.23.21.44.45.68.66.25.23.54.42.77.66.23.23.52.32.81.39.32.08.66.1.98.18.26.08.39-.13.35-.35-.01-.08-.03-.15-.02-.23.03-.19.09-.37.11-.56.05-.46.26-.85.57-1.18.18-.2.37-.37.55-.56.11-.1.2-.23.32-.31.37-.27.76-.53,1.13-.8.38-.26.77-.53,1.13-.81.3-.24.57-.51.86-.77.06-.05.12-.1.18-.16.25-.23.5-.45.74-.69.09-.1.15-.24.22-.37.2-.4.42-.79.6-1.19.12-.25.19-.53.27-.79.04-.13.06-.26.09-.39.04-.15.09-.29.1-.44.03-.29.02-.58.05-.87.02-.18.09-.36.11-.54.04-.32.06-.64.08-.96.01-.07.02-.14.02-.21Zm-3.72-14.7c.1.34.12.35.33.28-.01-.19-.16-.34-.33-.28Zm-3.28,3.47c.07-.18-.1-.39-.3-.39-.13,0-.18.07-.14.18s.11.21.2.38c.09-.06.2-.1.24-.17Zm-.35-2.87c.01-.05-.03-.14-.07-.16-.22-.11-.62,0-.77.22.16.21.54.23.73.13.06-.02.09-.12.11-.19Zm-1.3,5.26c.31-.06.37-.28.18-.53-.06-.08-.12-.17-.15-.27-.11-.36-.21-.73-.32-1.09-.14-.45-.29-.9-.43-1.34-.09-.31-.17-.61-.27-.92-.04-.12-.1-.22-.25-.24-.29-.03-.57-.09-.85-.13-.37-.05-.74-.12-1.11-.13-.54,0-1.08.04-1.63.08-.24.02-.5.07-.59.37-.01.03-.05.06-.08.08-.32.28-.58.62-.77,1-.25.5-.5,1.01-.55,1.6-.02.29-.08.58-.11.87-.04.31-.06.62-.09.92-.01.18-.05.36-.06.54-.03.36-.04.72-.05,1.09,0,.2.02.4.02.6,0,.39-.03.78-.02,1.17.01.43.05.86.08,1.29,0,.04.01.09.02.13.1.31.19.63.1.96-.03.09-.01.2,0,.29.01.23.06.46.02.68-.03.19.05.29.17.39.22.18.46.34.68.53.11.08.22.17.3.26.03.04.05.07.07.11.16.32.28.66.28,1.02-.01.19-.04.37-.04.56,0,.41-.01.81,0,1.21.01.14.03.29.08.41.12.35.4.53.74.66.25.1.5.04.76.04.32,0,.57-.14.82-.32.16-.11.25-.27.23-.49-.04-.42-.06-.84-.09-1.26-.03-.5.04-1,.14-1.49.03-.17-.03-.24-.19-.21-.32.04-.63.15-.96.05-.31-.1-.62-.19-.95-.29.06-.12.03-.25.22-.2.29.09.58.14.88.17.19.01.38-.04.57-.07.27-.05.55-.09.82-.17.14-.03.22-.15.19-.31-.05-.33-.08-.66-.13-.99-.06-.38-.17-.74-.45-1.04-.1-.11-.19-.23-.29-.34-.07-.07-.15-.13-.23-.19.01-.05.03-.1.04-.14h.15c-.08-.1-.15-.19-.22-.28-.05.03-.08.06-.12.08-.08-.08-.13-.16-.2-.22-.16-.13-.36-.24-.33-.5,0-.02-.02-.03-.04-.05-.13-.19-.18-.4-.12-.64.02-.09.02-.19.03-.29.03-.36.04-.72.09-1.07.02-.11.15-.2.2-.31.06-.11.1-.23.23-.29.04-.01.06-.05.08-.08.19-.25.46-.33.75-.37.28-.04.57-.04.86-.09.06-.01.13-.09.15-.16.11-.27.45-.51.74-.53.34-.03.67-.07,1-.12Zm.18,8.75c0-.94.17-1.9-.39-2.76-.16.17-.14.42.08.78.03-.03.06-.05.1-.09.03.2.06.38.09.56.01.05.01.13-.02.14-.2.13-.14.34-.12.5.04.3.13.59.19.88.03,0,.05-.01.07-.01Zm-.32.63c-.02-.23-.04-.46-.05-.69h-.06c.06.23-.17.47.02.69h.09Zm-.43-2.7c.01-.07.06-.16.04-.19-.13-.17-.21-.41-.53-.43.12.2.21.38.32.55.03.04.11.04.17.07Zm.01,2.07c.05-.56-.08-1.09-.17-1.63-.02-.13-.07-.33-.34-.36.14.71.28,1.39.42,2.06.03,0,.06,0,.08-.01.01-.02.01-.04.01-.06Zm-.41.71c.04-.06.12-.13.11-.19-.04-.36-.1-.72-.16-1.07-.06-.33-.12-.65-.21-.96-.07-.25-.08-.54-.39-.69,0,.06-.01.12.01.17.12.46.24.92.37,1.38.04.16.1.32.13.49.03.23.02.46.04.69.01.07.07.12.1.18Zm-.46-3.82c.18.07.36.12.55.08-.34-.21-.67-.42-1.1-.26.19.06.37.11.55.18Zm.09-10.43c.26.03.4-.08.38-.37-.13-.02-.26,0-.37-.06-.52-.2-1.07-.26-1.61-.29-.47-.03-.95.02-1.42-.01-.82-.04-1.6.19-2.39.33-.29.05-.6.12-.8.39-.16.19-.14.39.07.46.2.07.39,0,.58-.09.21-.11.39-.3.66-.32.47-.04.94-.12,1.41-.18.12-.01.23-.01.34-.04.18-.04.36.05.53-.06.08-.05.22.03.34.02.47-.01.94.05,1.41.15.28.06.58.04.87.07Zm.3-2.18s.03-.13.01-.19c-.21-.42-.56-.68-1.02-.78-.52-.12-1.04-.28-1.57-.34-.57-.06-1.16-.02-1.74-.01-.13,0-.26.03-.38.07-.3.09-.59.21-.89.27-.35.08-.65.24-.92.45-.27.22-.49.49-.49.87,0,.07.02.14.03.2.37-.12.69-.24,1.03-.33.26-.07.52-.09.79-.12.45-.06.89-.12,1.34-.16.39-.03.77-.03,1.16-.04.06,0,.13,0,.19.01l1.44.15c.27.02.53.05.8.06.08,0,.17-.05.22-.11Zm-.18,11.39c.13.01.18-.07.16-.19-.02-.13-.04-.25-.06-.39-.1,0-.2-.03-.3-.05-.33-.06-.69.02-.97-.23-.09-.07-.17-.14-.26-.22.02,0,.04,0,.07-.02v-.02c-.51-.26-.35-.38-.1-.71.1-.14.18-.24.36-.17.01,0,.04-.05.06-.06.14-.07.21-.22.41-.22s.41-.06.52-.34c-.14,0-.26-.01-.37.01-.23.02-.45.07-.68.11-.32.05-.57.15-.7.5-.12.32-.14.63-.1.96.03.26.09.51.27.72.07.07.13.17.21.19.15.05.31.04.46.06.34.02.68.05,1.02.07Zm0-.86c.14-.03.2-.15.15-.27-.02-.06-.14-.12-.21-.12-.36,0-.71.02-1.06.04-.04,0-.07.03-.13.05.05.06.09.11.13.15.35.26.74.21,1.12.15Zm.03,2.9s.02-.04.04-.05c-.16-.37-.36-.69-.85-.68.27.25.54.49.81.73Zm-.13,2.75c.13-.29.16-.56-.1-.82.03.28.06.55.1.82Zm.06-6.59c.01-.06-.07-.17-.12-.19-.16-.03-.33-.04-.49-.05-.27.01-.48.13-.66.29-.05.05-.07.13-.11.2.09.04.17.12.25.11.33-.02.66-.07.98-.13.06-.02.13-.15.15-.23Zm.01-1.47c-.35-.14-.67-.13-1-.04.09,0,.18-.01.2.13,0,0,.07,0,.11,0,.21-.03.42-.06.69-.1Zm.16,3.95c-.12-.15-.82-.25-1.05-.13.38.05.71.08,1.05.13Zm-.79,1.87c.13-.33-.11-.6-.12-.91-.03.01-.07.02-.1.03.04.3-.04.62.22.88Zm-.29-2.25s.02-.05.03-.07c-.13-.06-.26-.12-.4-.16-.03-.01-.08.02-.12.04.02.04.04.09.07.12.04.05.09.08.13.12.08-.01.19-.03.29-.05Zm-.58-3.53c-.21-.09-.47.05-.63.32.18-.03.38-.06.55-.09q-.06-.05.08-.23Zm-.23.52c-.2-.04-.44.05-.62.28-.05.06-.01.2-.01.28.22-.19.42-.38.63-.56Zm-.27,1.87c-.03-.26-.03-.52-.08-.76-.07-.29.21-.42.25-.65-.18.02-.48.45-.52.75-.03.17.16.63.35.66Zm.18.79c-.14-.22-.27-.43-.43-.67-.05.31.14.67.43.67Zm-2.63-8.81s.06.01.09.02c-.03-.01-.05-.03-.08-.04t-.01.02Zm-.41.52c.13-.17.27-.35.4-.52-.04-.01-.07-.02-.11-.01-.11,0-.23.01-.34.03-.1.02-.21.03-.29.08-.54.32-1.07.68-1.51,1.12-.6.57-1.03,1.27-1.42,2-.26.49-.49,1-.72,1.52-.11.26-.17.54-.27.8-.15.37-.35.72-.46,1.09-.15.53-.24,1.08-.36,1.62-.07.33-.1.64-.05.98.04.25.01.51.01.76-.01.35-.05.7-.03,1.05.03.59.11,1.19.14,1.79.03.57.04,1.15-.11,1.71-.1.34-.09.71-.31,1.02-.04.05-.03.14-.05.23.23-.03.44-.06.64-.08.28-.03.56-.06.84-.08.24-.01.48-.01.73,0,.36.03.69.24,1.07.25.35,0,.71.07,1.07.09.08,0,.19-.08.23-.16.03-.07-.01-.17-.02-.27-.03-.37-.08-.75-.09-1.13,0-.56-.08-1.11-.22-1.65-.11-.4-.14-.8-.13-1.22.02-.41.03-.83.04-1.25,0-.1-.04-.21-.04-.32.02-.41.07-.81.07-1.22-.01-.35-.06-.7-.12-1.05-.1-.55-.19-1.11-.14-1.68.01-.16.04-.33.09-.48.07-.2.14-.39.14-.61.01-.31.06-.62.11-.94.03-.24.12-.49.11-.73,0-.61.2-1.15.46-1.68.1-.19.19-.4.3-.59.1-.16.22-.32.34-.47Zm-8.04,32.49c.03-.22.01-.29-.21-.33-.3-.05-.61-.1-.92-.11-.37-.02-.75.04-1.12.02-.63-.03-1.25-.13-1.87-.14-.77,0-1.54.06-2.31.11-.34.03-.69.06-1.02.15-.39.1-.77.25-1.14.41-.21.09-.41.21-.53.43-.13.23-.3.45-.41.7-.13.29-.22.6-.3.92-.08.34-.11.71-.21,1.05-.18.57-.2,1.16-.21,1.75-.02.46-.01.93.04,1.4.05.48.16.96.27,1.44.04.19.11.4.41.41.03-.05.08-.13.09-.21.03-.18.03-.36.04-.54,0-.11.04-.23-.01-.32-.13-.27-.02-.52.03-.77.01-.04.07-.08.11-.08.03,0,.09.04.1.08.06.31.11.61.16.92v.06c-.08.39-.06.42.31.57.32.14.44.06.43-.28-.01-.4-.03-.81-.03-1.22,0-.07.08-.2.11-.2.11,0,.26.03.3.1.08.13.12.3.13.45.01.23,0,.46-.04.68s.03.34.25.43c.05-.08.13-.15.14-.22.03-.24.04-.48.04-.72.01-.08-.03-.16-.03-.24,0-.25.02-.49,0-.74-.02-.46-.06-.92-.09-1.38,0-.09.04-.18.04-.27-.01-.53.1-1.03.26-1.53.12-.36.37-.62.64-.85.26-.21.57-.37.87-.52.15-.08.34-.1.51-.12.36-.04.71-.09,1.06-.08.39.02.77.1,1.16.14.32.03.65.03.96.09.56.11,1.13.12,1.69.1.05,0,.14-.07.15-.12.05-.24.09-.49.11-.74.02-.22,0-.45.03-.68Zm-.7,4.78c.34-.03.43-.13.37-.45-.04-.18-.05-.37-.03-.54.03-.27.09-.53-.19-.71-.04.01-.1.03-.15.03-.36.03-.71.05-1.06.08-.24.01-.47.02-.7.04-.04,0-.09.01-.13.02-.31.04-.62.09-.93.14-.3.04-.6.06-.88.16-.38.14-.83.2-.98.71-.06.22-.2.41-.19.66,0,.28.03.58-.01.86-.06.44.01.87.1,1.29.06.33.16.64.27.95.08.21.14.19.34.1.19-.09.21-.22.21-.39-.01-.21-.01-.42,0-.63,0-.06.01-.13.03-.18.02-.04.06-.06.1-.09.02.03.06.06.06.1.01.29.03.59.04.89,0,.2.12.39.28.44.09.02.2,0,.3,0,.01-.19.04-.36.04-.53.01-.31,0-.61.01-.91.01-.07.09-.14.17-.25.05.12.09.18.1.24.04.29.09.58.11.87.02.34.17.47.5.42.01-.07.02-.14.01-.2l-.03-.78c-.02-.25-.05-.51-.04-.76.01-.23.09-.45.11-.68.03-.35.35-.72.7-.77.49-.05.98-.1,1.47-.13Z"/>
      <path class="cls-1" d="m65.11,100.12c-.03.93-.04,1.87-.02,2.81-.06-.03-.12-.06-.18-.1-.18-.11-.41-.17-.63-.2-.43-.06-.87-.1-1.31-.11-.15-.01-.3.07-.44.11-.14.03-.28.08-.42.08-.24.01-.16-.22-.18-.34-.1-.41-.17-.82-.23-1.24-.02-.15,0-.32.06-.46.03-.08.19-.17.26-.15.47.12.84-.09,1.23-.28.36-.18.65-.44.77-.83.08-.23.09-.49.13-.74.03-.19.06-.39.29-.51-.08,0-.14.02-.18,0-.04-.03-.09-.09-.1-.14,0-.07.02-.14.02-.21.01-.28.01-.27.28-.3.05,0,.09-.04.1-.04.04-.1.07-.17.09-.24.11.05.22.09.31.16.04.03.05.13.05.2,0,.38,0,.77-.01,1.15,0,.15-.05.29-.07.44-.01.09,0,.19.01.29.01.11.03.21.04.32.01.14.05.25.13.33Z"/>
      <path class="cls-2" d="m47.21,77.26c-.57-.25-.93-.68-1.15-1.24.08-.21.34-.28.42-.53.16-.11.34-.26.54-.39.13-.08.28-.14.43-.21.09-.04.17-.08.26-.13.4-.2.83-.14,1.24-.09.24.03.47.08.69.15.33.1.63.28.81.57.14.24.26.51.3.78.02.15-.1.37-.23.5-.27.27-.59.51-.88.76-.22.21-.51.22-.78.27-.41.07-.83.12-1.23-.07-.19-.09-.37-.22-.55-.32l.03-.06s.06,0,.1,0Zm2.73-.67c.13-.1.4-.19.31-.4-.09-.2-.29-.35-.45-.51-.02-.02-.1.01-.15.02,0,.08,0,.15.04.19.07.13.09.25-.01.37-.1.13-.2.25-.29.38l-.15.24s.05.03.07.04c.21-.11.44-.19.63-.33Zm.22-1.07c0-.09,0-.16-.04-.19-.28-.23-.57-.43-.96-.4-.09,0-.18,0-.27-.02-.41-.1-.82-.1-1.21.07-.22.09-.43.21-.63.34-.06.03-.09.11-.15.19.26-.09.48-.14.68-.24.46-.23.93-.4,1.44-.25.28.07.53.2.79.31.12.05.23.13.35.19Zm-.74,1.85c.18-.02.28-.13.39-.24-.84.08-1.66.32-2.52.13.27.24.6.31.92.36.24.04.51-.02.76-.07.16-.04.3-.17.45-.18Zm.06-.93c.01-.21.04-.44.02-.65-.02-.15-.06-.33-.23-.39-.47-.16-.94-.18-1.39.06-.2.1-.37.5-.34.73.04.22.18.37.33.51.23.23.8.27,1.06.05.16-.12.31-.26.46-.38,0,0,.01.04.02.07h.07Zm-2-.71c-.31-.04-.79.19-.88.4.3.4.64.73,1.2.85-.42-.38-.51-.78-.32-1.25Z"/>
      <path class="cls-2" d="m49.65,83.57s-.02.04-.03.07c-.1.02-.21.04-.29.05-.04-.04-.09-.07-.13-.12-.03-.03-.05-.08-.07-.12.04-.02.09-.05.12-.04.14.04.27.1.4.16Z"/>
      <path class="cls-2" d="m48.75,75.73c.06.13.19.3.04.43-.09.09-.27.15-.39.12-.23-.06-.48-.24-.39-.63.17.01.35.01.52.03.08,0,.2,0,.22.05Z"/>
      <path class="cls-2" d="m46.18,74.5s-.06-.01-.09-.02t.01-.02s.05.03.08.04Z"/>
    </g>
  </g>
</svg>