<?xml version="1.0" encoding="UTF-8"?>
<svg id="Layer_1" data-name="Layer 1" xmlns="http://www.w3.org/2000/svg" viewBox="0 0 136.06 136.06">
  <defs>
    <style>
      .cls-1 {
        fill: #0c3454;
      }

      .cls-2 {
        fill: #d9c6b8;
      }
    </style>
  </defs>
  <g>
    <path class="cls-1" d="m62.09,41.32c-.18.25-.3.42-.44.64-.12-.18-.23-.34-.44-.64-.18.37-.3.6-.41.83-.16-.18-.32-.34-.58-.62-.04.32-.05.49-.09.74-.16-.23-.28-.39-.42-.6-.12.28-.23.48-.34.72-.16-.21-.28-.39-.39-.53-.32.3-.6.57-.94.9-.12-.37-.21-.6-.35-1.02-.12.39-.18.58-.27.87-.09-.18-.14-.27-.19-.39-.07.23-.12.44-.21.72-.35-.3-.64-.55-.97-.83,0,.16.02.32,0,.46-.02.11-.09.23-.18.42-.16-.39-.28-.65-.46-1.04-.07.25-.11.34-.14.44-.12-.07-.25-.14-.39-.21-.07.21-.12.35-.18.55-.19-.25-.34-.44-.58-.74-.07.41-.11.62-.16.83-.02.05-.12.09-.21.16-.11-.28-.19-.53-.27-.72-.88-.3-.58.57-.85.88-.19-.3-.34-.55-.57-.92-.16.39-.28.62-.39.87-.04-.11-.07-.11-.74-.11-.09-.12-.16-.27-.27-.46-.09.12-.16.18-.19.23-.02.07-.04.12-.04.14-.32-.14-.51-.34-.69-.3-.74.07-1.47.21-2.19.34-1.82.28-3.66.53-5.46.9-1.7.34-3.14,1.22-4.54,2.19-.18.12-.3.3-.42.46-.88,1.17-1.4,2.53-1.66,3.9-.28,1.61-.35,3.25-.37,4.89-.05,3.07.02,6.17.04,9.26v.18c.02.97.02,1.94.04,2.92.04,1.01.05,2.03.11,3.04,0,.14.09.28.12.42.07.34.18.67.19,1.01.05,1.22-.07,2.44.37,3.62.42,1.1.72,2.21,1.13,3.3.35.87.85,1.66,1.59,2.23.67.49,1.4.94,2.17,1.24.87.35,1.82.51,2.74.74.28-.41.67.41.92-.11.14.19.27.37.44.58.18-.21.3-.37.42-.53.09.21.18.42.34.76.11-.34.16-.53.21-.72.12.25.21.46.37.81.21-.48.37-.85.55-1.24.35.46-.42,1.04.32,1.43.14-.28.27-.53.42-.83-.02.27-.11.51-.02.71.11.3.39.34.65.16.07-.28.12-.57.18-.83.14.3.16.58.23.87.09.28.32.3.53.05.07-.09.11-.21.16-.34.11.27.19.48.28.69.05,0,.11-.02.16-.04.05-.37.09-.74.14-1.11.04,0,.09.02.14.02.16.37.34.74.51,1.17.35-.19.67-.37.97-.55.04.21.05.44.09.6.34.07.6.12.9.18.11-.18.21-.39.32-.6.12.25.23.44.34.64.11-.12.21-.25.32-.35.09.14.19.27.27.39.14-.09.25-.16.34-.21.05.23.19.27.42.34,1.22.37,2.47.39,3.71.46.6.02,1.24.11,1.78-.07.39-.12.71-.25,1.13-.11.09-.27.16-.49.25-.76.18.28.3.48.51.83.14-.44.23-.71.35-1.1.18.37.28.62.48.99.21-.48.39-.81.55-1.17.09.25.02.44.02.64.02.25.34.42.42.25.28-.53.6.07.9-.12.04-.21.07-.46.11-.71.12.21.25.39.37.6.18-.28.32-.49.48-.72.28.28-.23.76.46.88.04-.44.07-.85.12-1.31.35.35-.07.92.46,1.29.05-.34.11-.6.16-.85l.11.02c.07.25.14.51.18.69.37-.05.64-.09.88-.12.09-.19.18-.39.34-.78.05.42.09.64.12.87.57-.11,1.1-.19,1.31-.87.09.32.14.51.25.83.37-.32.65-.57.94-.8.04.18.09.41.18.71.65-.35-.12-1.04.55-1.4.09.46.18.88.27,1.29.05.02.12.04.18.05.23-.46.48-.9.71-1.34.04.02.07.04.11.04-.09.41-.18.81-.28,1.27.48-.12.83-.19,1.15-.27.23-.41-.16-.95.42-1.4,0,.49-.04.87,0,1.25.02.09.19.23.3.25.07.02.18-.16.25-.27.05-.05.05-.12.09-.19.19.18.35.32.6.53.09-.28.14-.48.21-.65.07-.16.14-.32.21-.46.05.18-.02.32.02.44.04.18.16.34.27.49.11-.12.23-.23.32-.35.05-.07.02-.18.05-.27,0-.04.07-.04.11-.05.07.19.12.37.23.65.25-.53-.19-1.04.28-1.47.09.51.14.94.21,1.36.46-.09.8-.14,1.11-.21.18-.48.05-1.02.48-1.4.05.41.02.78,0,1.17-.02.07.07.14.18.34.11-.34.14-.49.21-.71.05.34.11.41.39.57.04-.39.05-.74.09-1.11.02,0,.05-.02.07-.02.11.35.21.69.3,1.04.07-.02.12-.02.18-.02.07-.19.12-.39.18-.58.07.09.14.16.25.3.11-.27.19-.48.34-.81.05.42.07.69.11,1.02.3-.05.55-.09.76-.12.12-.42.21-.76.32-1.1.04.02.09.04.14.04-.02.32-.05.62-.07.9.57.3.42-.19.53-.37.12.09.25.18.42.3v-.55c.02-.16.07-.3.12-.62.16.46.27.78.41,1.24.25-.32.35-.48.44-.58.11.07.21.16.35.28.14-.21.27-.39.32-.46.25.09.42.23.57.19.3-.09.57-.28.83-.42.23.02.49.07.74.04.58-.11,1.15-.25,1.73-.39,1.18-.32,2.35-.65,3.52-.95,1.82-.44,3.62-.94,5.28-1.84,1.48-.8,2.83-1.8,3.48-3.45.62-1.57,1.08-3.2,1.4-4.88.23-1.33.35-2.61.21-3.96-.09-.99.05-2.01.07-3.02.02-1.04.04-2.1,0-3.14-.04-1.64.27-3.27-.05-4.91-.14-.74-.07-1.54-.07-2.3.02-.92.16-1.86.11-2.76-.09-1.01-.3-2-.49-2.97-.32-1.63-1.25-2.93-2.4-3.99-1.41-1.29-3.25-1.8-5.16-1.94-.69-.05-1.38-.05-2.07,0-.65.05-1.41-.34-1.94.37-.09-.12-.18-.23-.21-.27h-1.22c-.04.11-.07.25-.14.51-.19-.88-.81-.32-1.2-.6-.02.27-.02.42-.02.57-.39-.25-.72-.48-1.17-.78-.05.35-.07.57-.09.76-.19-.57-.64-.53-1.06-.58-.05.18-.11.35-.18.57-.11-.3-.18-.55-.3-.92-.23.27-.35.41-.48.57-.16-.25,0-.67-.51-.6-.14.25-.3.49-.49.8-.25-.3.35-.69-.16-.88-.16.23-.32.46-.53.74-.19-.34-.32-.57-.44-.8l-.16.05c-.07.28-.12.57-.19.87h-.12c-.07-.32-.14-.62-.21-.92h-.18c-.11.32-.23.64-.39,1.1l-.23-1.15c-.18.41-.28.62-.42.97-.11-.37-.16-.58-.21-.81-.05.02-.11.02-.14.02-.09.25-.18.49-.27.76-.19-.21-.23-.44-.3-.64-.05-.12-.19-.27-.3-.27-.09,0-.23.16-.27.27-.07.25-.09.49-.11.74-.07,0-.14,0-.21.02-.07-.35-.16-.71-.23-1.02h-.57c-.04.39-.09.76-.12,1.11h-.19c-.07-.21-.16-.41-.18-.62q-.05-.58-.74-.62c-.02.41-.04.81-.05,1.25-.62-.27-.25-.9-.64-1.36-.09.57-.14.97-.21,1.45-.51-.3-.44-.69-.34-1.06.14-.51-.11-.64-.55-.62-.07.49-.14.94-.21,1.4h-.21c-.09-.46-.18-.94-.27-1.4h-.19c-.05.35-.11.69-.16,1.04-.74-.19-.18-.95-.72-1.33v1.18c-.28.07-.53.12-.76.18-.19-.49-.37-.94-.62-1.55-.14.6-.23,1.01-.34,1.41-.6-.34-.16-.78-.23-1.22-.21.02-.42.05-.57.07-.25.42.14,1.01-.58,1.24-.02-.44-.04-.81-.07-1.2-.34-.07-.6-.14-.58.35,0,.32.18.65-.19.97-.09-.16-.21-.3-.23-.44-.04-.16.05-.35.02-.51-.02-.12-.18-.27-.28-.28-.09,0-.27.14-.3.25-.07.25-.07.51-.11.78h-.21c-.07-.32-.16-.64-.27-1.08-.16.23-.25.35-.32.44-.14-.09-.27-.18-.46-.3-.07.37-.14.64-.21.9h-.12c-.07-.28-.14-.57-.23-.94-.41.37-.74.65-1.15,1.01-.05-.27-.09-.48-.16-.69,0-.04-.09-.05-.21-.09-.09.16-.16.34-.25.51-.12-.18-.23-.32-.41-.55-.11.35-.19.6-.3.94-.16-.35-.27-.62-.44-1.01-.19.37-.34.6-.49.88-.14-.27-.28-.51-.49-.9-.09.44-.12.69-.18.97-.11-.25-.21-.46-.35-.8Zm43.85,18.55c.04,2.07,0,4.17-.05,6.24-.07,2.76-.19,5.23-.19,8,0,2.05-1.08,4.05-1.63,5.95-.18.62-.27,1.27-.41,1.89-.3,1.33-.62,2.69-1.93,3.57-1.06.72-1.94,1.73-3.07,2.35-.44.25-.88.51-1.36.67-2.12.67-4.26,1.31-6.4,1.94-.32.11-.64.16-.97.19-1.43.12-2.77.65-4.17.95-1.24.27-2.53.37-3.78.57-1.61.27-3.22.58-4.84.83-1.06.16-2.12.16-3.18.3-1.38.18-2.76.46-4.13.64-1.27.18-2.54.3-3.82.39-1.78.11-3.57.27-5.35.23-2.12-.05-4.22-.25-6.32-.42-1.52-.12-3.02-.35-4.52-.48-1.38-.12-2.69-.53-3.98-.99-.8-.27-1.59-.51-2.35-.85-.94-.42-1.89-.88-2.79-1.41-1.2-.71-2.37-1.45-3.5-2.26-.74-.55-1.41-1.2-2.03-1.87-.6-.69-1.11-1.45-1.66-2.19-.76-1.04-1.22-2.24-1.64-3.45-.41-1.2-.69-2.46-1.06-3.67-.81-2.67-1.15-5.39-1.11-8.18.02-1.04-.14-2.08-.16-3.11-.02-1.43-.09-2.88.07-4.29.18-1.57.35-2.33.58-3.55.07-.07.12-.18.14-.3.32-1.64,1.2-3.16,1.4-4.84.07-.07.14-.14.19-.23l2.81-4.56c.44-.71.88-1.41,1.36-2.07.67-.88,1.64-1.55,2.77-1.87.28-.07,3.18-.94,3.71-.94,0-.34,3.94-.76,5-.88.02-.32,2.84-.51,3.45-.64,0-.23,5.62-.39,5.64-.32.6-.04,4.38-.55,5.35-.6,0,0,3.52-.04,3.53-.07.64-.02,3.09-.3,3.14-.3.07,0,4.42-.21,4.42-.21,0-.04,1.27-.09,1.91-.07,0,.02,1.98.25,3.06.35v-.04c.95.11,1.89.19,2.84.27.94.14,1.87.25,2.88.25,0-.02,4.72.23,5.35.28.07.16,3.32.32,3.43.35.41.09.81-.12,1.2-.07.02,0,.04-.02.07-.05.6.02,1.18.05,1.78.05v.09c.95.27,1.8.51,2.7.78v-.07c.62.27,1.22.57,1.77.94.07.05.81,1.06,1.06,1.27,1.94,1.71,2.76,4.05,3.48,6.43.05.21.11.41.14.62,0,.09.05.12.09.19,0,1.33.39,2.61.72,3.89l-.02.02c.09,1.38.35,2.97.37,4.36Zm-.85-.35c.14-1.04.14-2.12.04-3.18-.14-1.38-.48-2.74-.65-4.13-.18-1.45-.65-2.77-1.27-4.06-.05-.14-.18-.23-.35-.48.21,1.61.62,3.02.51,4.51-.09,1.29-.11,2.6-.11,3.9-.02.85.07,1.71.09,2.58.02.41-.09.83-.07,1.24,0,1.27.07,2.54.07,3.83,0,1.06-.07,2.14-.14,3.2-.09,1.24-.16,2.49-.34,3.73-.16.99-.49,1.96-.69,2.95-.19.94-.28,1.89-.46,2.81-.11.49-.23,1.06-.53,1.41-1.02,1.24-2.12,2.4-3.73,2.95-.62.19-1.22.46-1.8.76-.27.12-.49.57-.72.55-.57-.02-.97.44-1.52.37-.41-.05-.32.23-.32.46,0,.02-.07.05-.18.12-.07-.14-.14-.3-.27-.58-.18.35-.23.49-.3.62-.11-.09-.28-.28-.32-.25-.49.27-1.06.16-1.55.34-.12.04-.18.28-.25.42q-.48-.32-.78.16c-.14-.09-.28-.18-.46-.28-.16.27-.28.49-.42.71-.09-.11-.19-.23-.34-.39-.14.12-.27.28-.41.3-.49.04-1.01-.04-1.5.04-.32.04-.64.11-.95.11-.39.02-.85-.23-1.11.27-.02,0-.16-.09-.23-.09-1.15-.07-2.31-.18-3.41.35-.32.16-.8.37-1.02.23-.51-.28-.97.34-1.41-.04-.23.28-.49.27-.81.12-.09-.02-.28.23-.44.35-.12-.07-.28-.25-.46-.25-.51-.02-1.04-.02-1.55.09-.48.09-.95.02-1.41.05-.62.05-1.22.18-1.86.16-.39-.02-.85-.23-1.15.23-.69-.49-1.41.14-2.1-.11-1.34.39-2.72.11-4.08.3-.97.12-1.96.12-2.95.12-1.54.02-3.07-.02-4.63-.02-.37,0-.74.04-1.13.07-.3.04-.74.21-.87.07-.53-.57-.9-.19-1.43.18-.07-.18-.16-.37-.19-.42-.39.12-.65.19-.87.27-.11-.25-.18-.42-.32-.78-.14.42-.21.65-.28.92-.14-.09-.25-.16-.37-.25-.11.19-.21.39-.39.69v-1.27c-.65-.04-1.27-.07-1.87-.12s-1.18-.09-1.77-.12c-.8-.04-1.55-.35-2.35-.49-.12-.04-.28.16-.44.25-.02-.05-.09-.18-.18-.3-.12.12-.21.23-.32.35-.05-.21-.09-.39-.14-.64-.18.09-.28.14-.41.21.02-.64-.74-.04-.81-.51-.41.32-.65-.32-.99-.19-.27.09-.34-.05-.51-.16-1.06-.58-1.89-1.41-2.7-2.28-1.11-1.17-2.39-4.06-2.7-5.64,0-.02-.04-.04-.05-.05-.16.02-.3.04-.51.07.14-.32.25-.55.39-.85-.3.07-.49.11-.76.16.27-.28.44-.48.64-.69-.14-.05-.16-.07-.19-.07-.12.05-.27.12-.39.18q.42-.74.35-1.11c-.18.02-.35.05-.6.07.19-.3.37-.51.48-.76.23-.44-.25-.39-.39-.51.11-.32.21-.6.34-.95-.48.27-.83.48-1.36.8.14-.65.23-1.1.32-1.5.28-.18.53-.32.78-.48-.04-.05-.05-.12-.07-.18-.44.12-.88.25-1.34.39.18-.88,1.38-.48,1.55-1.5-.42.18-.74.3-1.11.44.32-.57,1.25-.55,1.1-1.45-.32.05-.57.11-.99.19.35-.25.57-.39.85-.6-.35.04-.6.04-.85.05l-.04-.12c.3-.19.6-.39,1.04-.67-.39-.09-.57-.12-.76-.16.85-.81.85-.85.12-1.13.25-.3.95-.37.53-.99-.3.07-.6.14-1.04.27.53-.48,1.29-.58,1.13-1.48-.35.14-.62.25-.95.37.28-.57,1.24-.55.95-1.38-.12,0-.23-.02-.34-.02.07-.18.14-.32.19-.46-.19-.04-.32-.04-.51-.07.21-.3.71-.27.51-.71-.12-.04-.25-.07-.37-.12.16-.25.27-.42.39-.64-.19-.05-.32-.09-.37-.11.09-.37.21-.69.21-1.02.02-.71.02-1.41-.05-2.12-.21-2.12-.09-4.2.41-6.27.12-.55.12-1.13.18-1.7-.81.78-1.24,1.71-1.64,2.67-.41.99-.88,1.94-1.25,2.95-.35.94-.58,1.93-.88,2.95.28-.11.46-.18.72-.28-.16.88-1.25,1.22-1.04,2.24.57-.27.88-.87,1.55-.9-.69.78-1.66,1.27-2.05,2.47.65-.39,1.11-.65,1.57-.94-.18.39-.48.6-.74.85-.12.12-.34.34-.3.41.19.49-.16.71-.41.97-.23.25-.37.49-.14.94.42-.65.65-1.4,1.55-1.64-.85,1.02-1.64,1.87-1.73,3.16.41-.21.51-.76,1.06-.83-.39.83-1.22,1.4-1.1,2.46.35-.34.65-.62.95-.9l.09.09c-.14.25-.28.48-.51.88.44-.25.69-.41.94-.55.05.05.09.11.14.16-.11.12-.21.25-.34.37-.39.41-.81.78-1.18,1.2-.09.11-.05.32-.11.58.32-.34.53-.57.74-.8.05.71-.6,1.13-.57,1.87.35-.28.62-.49.88-.72-.19.74-.99,1.1-.94,2.1.28-.35.44-.55.62-.74.02-.02.09,0,.16.02-.07.23-.14.46-.23.71.25-.04.39-.07.58-.11-.16.72-1.04,1.08-.74,2.01.21-.3.34-.48.46-.67l.07.05c-.12.49-.27,1.01-.42,1.59.3-.14.51-.25.85-.39-.35.48-.6.83-.87,1.2.18.09.28.14.41.19-.18.71-.21,1.41.32,2.03.05.07.09.23.05.32-.3.6.12.65.6.74-.16.14-.34.25-.41.39-.05.14-.02.32-.04.48.16-.04.3-.07.44-.11.05-.02.11-.05.18-.09.05.49-.78.85-.11,1.36.18-.23.34-.42.57-.71q-.32,1.4.07,2.03c.14-.32.27-.58.37-.85l.14.14c-.14.67-.95,1.25-.27,2.12.16-.34.28-.58.48-.95.27.65-.34,1.04-.18,1.48.14.42.37.87.85,1.18.04-.25.05-.42.07-.6l.05-.42c.19.28.27.58.23.85-.07.37-.14.9.16.97.53.12.35.67.69.81.12.04.3-.07.44-.11.02.34.04.67.07,1.2.3-.27.44-.41.65-.6-.05.41-.11.74-.16,1.08.14.04.25.09.3.05.11-.04.18-.14.25-.21.04-.04.07-.09.14-.18q.04.88.57.95c.05-.28.09-.57.14-.85.27.32.04.88.69.78.14.32-.14.74.32.97.09-.27.16-.48.23-.71.05.02.11.02.16.02.04.41.07.8.11,1.17.46.23.48-.16.62-.41q.12.8.62.94v-1.02h.14c.11.48.21.95.32,1.45.25.11.48.19.81.34v-1.15s.09-.02.14-.02c.09.49.18,1.01.28,1.57.67-.37.19-1.04.51-1.45.3.48-.19,1.15.39,1.61.11-.49.18-.94.27-1.36.27.57-.07,1.25.65,1.77.14-.42.25-.76.34-1.04.04.27.07.62.11.95l.23.02.37-1.75h.12v2.08c.05.02.11.02.16.02.12-.16.25-.32.37-.49.02.34-.02.6.46.76v-1.36h.19c.02.37.02.76.09,1.11.04.16.21.3.32.44.09-.12.23-.25.28-.39.05-.18.05-.37.07-.57h.18c.02.34.05.67.07,1.01.48-.97-.12-2.01.25-3.14.09.32.18.48.18.64.02.65.02,1.33.02,1.98.02.28-.09.65.42.76.04-.25.07-.44.09-.65.02-.18.04-.37.07-.55q.23,1.27.76,1.45c.25-.9-.37-1.87.21-2.74.07.51.05,1.04.09,1.55.04,1.04.05,1.04.58,1.36v-2.03c.14.37.16.76.25,1.13.09.34-.14.8.34,1.01.85-.57-.04-1.52.6-2.23,0,.53-.02.94,0,1.34,0,.41-.11.9.64,1.08.05-.53.09-.97.12-1.48.35.46-.23,1.18.6,1.47.05-.34.11-.62.18-.97.27.39-.12,1.11.8,1.06v-1.94c.19.51.25,1.01.35,1.5.04.16.21.3.34.44.12-.14.25-.27.35-.42.05-.12.07-.25.12-.51.07.42.12.71.18,1.02.69-.3.21-.92.57-1.33.04.37.04.69.11.99.04.12.25.28.35.28.12,0,.3-.21.32-.34.05-.34.02-.69.02-1.02.18.23.19.46.21.69.05.74.18.81.95.58-.05-.6-.09-1.18-.12-1.78.05,0,.12-.02.19-.02.09.46.16.92.27,1.38.11.49.18.53.85.44.04-1.17-.37-2.37-.05-3.75.11.27.16.35.18.46.16.94.3,1.87.42,2.81.05.34.12.62.51.58.37-.04.37-.35.35-.62-.02-.53-.05-1.06-.11-1.59-.07-.8-.18-1.59-.27-2.37.19.05.3.14.32.23l.27,2.49c.04.44.05.9.16,1.33.04.18.28.3.44.46.11-.18.32-.35.32-.55,0-.81-.07-1.64-.11-2.46,0-.16.04-.32.05-.46.16.16.19.32.21.49.05.76.09,1.54.12,2.3.02.41.12.71.67.62.02-.21.09-.42.07-.62-.07-.94-.14-1.89-.25-2.84-.04-.35-.12-.71.35-.9.95,1.38.35,3,.69,4.54.6-.28.49-.81.55-1.18.05-.55-.07-1.11-.07-1.68-.02-.3-.11-.64.28-.97.04.32.09.55.09.76-.02.83-.04,1.66-.05,2.51-.02.49.07.55.64.41-.14-1.08-.09-2.16.21-3.22.07.46.07.92.07,1.38,0,.55-.04,1.08.02,1.61,0,.16.23.28.37.42.11-.14.3-.3.3-.44-.02-.53-.09-1.06-.12-1.59-.02-.18.02-.32.04-.49.21.32.25.62.27.94.02.35.02.72.07,1.06.04.16.23.42.34.42.28,0,.23-.25.21-.48-.04-.53-.05-1.06-.09-1.59.21.51.3,1.01.35,1.54.04.25.02.51.35.53.35.02.34-.28.35-.51.02-.35.02-.71.04-1.08v-.85c.16.53.16,1.06.16,1.57,0,.18-.04.39.04.53.09.14.3.23.44.34.11-.12.27-.27.27-.39,0-.34-.07-.65-.12-.97-.04-.25-.05-.49-.07-.76h.14c.12.67.27,1.36.41,2,.42-.07.74-.11,1.15-.16.02-.41.04-.87.05-1.33q.05-.95.34-1.17c-.09,1.68-.04,2.03.35,2.54.62-.51.02-1.24.39-1.93.05.55.09.92.12,1.33.05.46.12.49.71.39-.34-.69-.12-1.38-.04-2.05.07,0,.12-.02.19-.02v2.03c.41.16.65.16.69-.25.02-.35,0-.71,0-1.06q.39,1.27,1.11,1.17v-1.52c.34.48-.12,1.18.6,1.55.05-.35.09-.6.12-.97q.19.57.57.83c.09-.53-.37-1.06.05-1.64.07.35.12.6.18.87.04.25.09.49.14.76.32-.11.55-.19.8-.28.12-.27-.19-.64.21-.88.14.37-.21.87.34,1.02.39.12.67-.04.72-.48.27.05.37.55.69.14.09-.09.41.09.6.04.23-.07.44-.25.58-.32.27.02.49.05.72.09.12-.83.23-1.54.35-2.37.37.46.19.85.25,1.22.04.32-.39.71.16,1.06.04-.32.05-.57.07-.83.12.23.23.44.42.81.07-.37.11-.57.14-.72.14.14.28.27.57.53v-1.18q.34.72.76.8c.18-.64-.49-1.34.19-2.03.11.74.18,1.38.28,2.07,1.01-.23.39-1.02.69-1.64.07.57.14.97.19,1.38.04.02.09.02.14.02.07-.18.16-.34.23-.48.09.18.19.35.37.65.27-.8.02-1.48.32-2.08.14.32.19.64.3.94.11.27-.12.76.55.8-.02-.3-.02-.57-.07-.81-.07-.27-.19-.53.21-.72.09.48.18.9.28,1.38.76-.02,1.38-.23,1.77-.81.18.05.35.12.48.18.35-.39-.25-.87.25-1.18.14.35.27.65.44,1.08.23-.3.35-.46.48-.6.32.23.58.28.65-.23.02-.14.11-.25.19-.49.12.3.19.46.28.67.18-.07.3-.12.44-.18.14-.04.3-.12.46-.11.46.02.58-.19.51-.6-.02-.12,0-.25.02-.35.04-.02.09-.02.14-.04.12.27.27.53.39.78.55-.18,1.01-.35,1.04-1.04.32.49.35.49.87.19.04-.02.11,0,.14,0,.74,0,1.36-.37,2-.65.27-.11.62-.32.65-.55.12-.53.41.21.51-.11.02-.21.05-.44.07-.72.12.21.21.35.32.53.62-.39,1.17-.87,1.8-1.1.53-.18.69-.37.55-.87,0-.04.05-.07.09-.11.11.12.23.25.35.37.6-.64.04-1.43.39-2.23.11.55.18.9.27,1.25.53-1.25.02-2.49.12-3.75.19.3.34.62.41.95.11.35.14.71.21,1.08.48-.92-.05-1.78.11-2.7.09.32.18.64.28.99.3-.46.16-.9.05-1.33-.11-.41-.25-.8-.39-1.29.64.35.57,1.06,1.08,1.41-.11-.95-.21-1.93-.34-3.04.23.44.39.76.55,1.06.05-.02.11-.05.18-.07-.11-.34-.21-.65-.3-.99.12-.07.23-.12.3-.18-.14-.49-.28-.99-.42-1.47.05-.04.11-.05.16-.07l.51.97c.05-.02.11-.04.16-.07-.14-.51-.3-1.04-.48-1.64.21.12.32.18.44.25.14-.62-.65-.99-.35-1.75.21.32.37.55.58.87.37-.97-.74-1.52-.48-2.46.23.28.39.48.55.67.05-.04.09-.07.14-.09-.27-.64-.55-1.25-.85-1.94.34,0,.53,0,.71.02-.09-.14-.16-.28-.32-.51.27.05.42.09.72.16-.35-.48-.64-.85-1.02-1.34.41.04.58.07.76.09.23-.72-.16-1.25-.41-1.86.8-.34.09-.71-.04-1.11.21.05.35.07.62.12-.28-.41-.51-.72-.69-.97.09-.28.16-.48.21-.67.14,0,.27.02.6.04-.34-.42-.58-.72-.83-1.02.11-.14.21-.25.3-.39.12-.16.19-.34.28-.51-.23-.53-.14-.65,0-1.84Z"/>
    <path class="cls-2" d="m84.45,90.66c-.07.14-.16.3-.23.48-.05,0-.11,0-.14-.02-.05-.41-.12-.81-.19-1.38-.3.62.32,1.41-.69,1.64-.11-.69-.18-1.33-.28-2.07-.69.69-.02,1.4-.19,2.03q-.42-.07-.76-.8v1.18c-.28-.27-.42-.39-.57-.53-.04.16-.07.35-.14.72-.19-.37-.3-.58-.42-.81-.02.27-.04.51-.07.83-.55-.35-.12-.74-.16-1.06-.05-.37.12-.76-.25-1.22-.12.83-.23,1.54-.35,2.37-.23-.04-.46-.07-.72-.09-.14.07-.35.25-.58.32-.19.05-.51-.12-.6-.04-.32.41-.42-.09-.69-.14-.05.44-.34.6-.72.48-.55-.16-.19-.65-.34-1.02-.41.25-.09.62-.21.88-.25.09-.48.18-.8.28-.05-.27-.11-.51-.14-.76-.05-.27-.11-.51-.18-.87-.42.58.04,1.11-.05,1.64q-.37-.27-.57-.83c-.04.37-.07.62-.12.97-.72-.37-.27-1.08-.6-1.55v1.52q-.72.11-1.11-1.17c0,.35.02.71,0,1.06-.04.41-.28.41-.69.25v-2.03c-.07,0-.12.02-.19.02-.09.67-.3,1.36.04,2.05-.58.11-.65.07-.71-.39-.04-.41-.07-.78-.12-1.33-.37.69.23,1.41-.39,1.93-.39-.51-.44-.87-.35-2.54q-.28.21-.34,1.17c-.02.46-.04.92-.05,1.33-.41.05-.72.09-1.15.16-.14-.64-.28-1.33-.41-2h-.14c.02.27.04.51.07.76.05.32.12.64.12.97,0,.12-.16.27-.27.39-.14-.11-.35-.19-.44-.34-.07-.14-.04-.35-.04-.53,0-.51,0-1.04-.16-1.57v.85c-.02.37-.02.72-.04,1.08-.02.23,0,.53-.35.51-.34-.02-.32-.28-.35-.53-.05-.53-.14-1.02-.35-1.54.04.53.05,1.06.09,1.59.02.23.07.48-.21.48-.11,0-.3-.27-.34-.42-.05-.34-.05-.71-.07-1.06-.02-.32-.05-.62-.27-.94-.02.18-.05.32-.04.49.04.53.11,1.06.12,1.59,0,.14-.19.3-.3.44-.14-.14-.37-.27-.37-.42-.05-.53-.02-1.06-.02-1.61,0-.46,0-.92-.07-1.38-.3,1.06-.35,2.14-.21,3.22-.57.14-.65.09-.64-.41.02-.85.04-1.68.05-2.51,0-.21-.05-.44-.09-.76-.39.34-.3.67-.28.97,0,.57.12,1.13.07,1.68-.05.37.05.9-.55,1.18-.34-1.54.27-3.16-.69-4.54-.48.19-.39.55-.35.9.11.95.18,1.91.25,2.84.02.19-.05.41-.07.62-.55.09-.65-.21-.67-.62-.04-.76-.07-1.54-.12-2.3-.02-.18-.05-.34-.21-.49-.02.14-.05.3-.05.46.04.81.11,1.64.11,2.46,0,.19-.21.37-.32.55-.16-.16-.41-.28-.44-.46-.11-.42-.12-.88-.16-1.33l-.27-2.49c-.02-.09-.12-.18-.32-.23.09.78.19,1.57.27,2.37.05.53.09,1.06.11,1.59.02.27.02.58-.35.62-.39.04-.46-.25-.51-.58-.12-.94-.27-1.87-.42-2.81-.02-.11-.07-.19-.18-.46-.32,1.38.09,2.58.05,3.75-.67.09-.74.05-.85-.44-.11-.46-.18-.92-.27-1.38-.07,0-.14.02-.19.02.04.6.07,1.18.12,1.78-.78.23-.9.16-.95-.58-.02-.23-.04-.46-.21-.69,0,.34.04.69-.02,1.02-.02.12-.19.34-.32.34-.11,0-.32-.16-.35-.28-.07-.3-.07-.62-.11-.99-.35.41.12,1.02-.57,1.33-.05-.32-.11-.6-.18-1.02-.05.27-.07.39-.12.51-.11.16-.23.28-.35.42-.12-.14-.3-.28-.34-.44-.11-.49-.16-.99-.35-1.5v1.94c-.92.05-.53-.67-.8-1.06-.07.35-.12.64-.18.97-.83-.28-.25-1.01-.6-1.47-.04.51-.07.95-.12,1.48-.74-.18-.64-.67-.64-1.08-.02-.41,0-.81,0-1.34-.64.71.25,1.66-.6,2.23-.48-.21-.25-.67-.34-1.01-.09-.37-.11-.76-.25-1.13v2.03c-.53-.32-.55-.32-.58-1.36-.04-.51-.02-1.04-.09-1.55-.58.87.04,1.84-.21,2.74q-.53-.18-.76-1.45c-.04.18-.05.37-.07.55-.02.21-.05.41-.09.65-.51-.11-.41-.48-.42-.76,0-.65,0-1.33-.02-1.98,0-.16-.09-.32-.18-.64-.37,1.13.23,2.17-.25,3.14-.02-.34-.05-.67-.07-1.01h-.18c-.02.19-.02.39-.07.57-.05.14-.19.27-.28.39-.11-.14-.28-.28-.32-.44-.07-.35-.07-.74-.09-1.11h-.19v1.36c-.48-.16-.44-.42-.46-.76-.12.18-.25.34-.37.49-.05,0-.11,0-.16-.02v-2.08h-.12l-.37,1.75-.23-.02c-.04-.34-.07-.69-.11-.95-.09.28-.19.62-.34,1.04-.72-.51-.39-1.2-.65-1.77-.09.42-.16.87-.27,1.36-.58-.46-.09-1.13-.39-1.61-.32.41.16,1.08-.51,1.45-.11-.57-.19-1.08-.28-1.57-.05,0-.11,0-.14.02v1.15c-.34-.14-.57-.23-.81-.34-.11-.49-.21-.97-.32-1.45h-.14v1.02q-.49-.14-.62-.94c-.14.25-.16.64-.62.41-.04-.37-.07-.76-.11-1.17-.05,0-.11,0-.16-.02-.07.23-.14.44-.23.71-.46-.23-.18-.65-.32-.97-.65.11-.42-.46-.69-.78-.05.28-.09.57-.14.85q-.53-.07-.57-.95c-.07.09-.11.14-.14.18-.07.07-.14.18-.25.21-.05.04-.16-.02-.3-.05.05-.34.11-.67.16-1.08-.21.19-.35.34-.65.6-.04-.53-.05-.87-.07-1.2-.14.04-.32.14-.44.11-.34-.14-.16-.69-.69-.81-.3-.07-.23-.6-.16-.97.04-.27-.04-.57-.23-.85l-.05.42c-.02.18-.04.35-.07.6-.48-.32-.71-.76-.85-1.18-.16-.44.44-.83.18-1.48-.19.37-.32.62-.48.95-.69-.87.12-1.45.27-2.12l-.14-.14c-.11.27-.23.53-.37.85q-.39-.64-.07-2.03c-.23.28-.39.48-.57.71-.67-.51.16-.87.11-1.36-.07.04-.12.07-.18.09-.14.04-.28.07-.44.11.02-.16-.02-.34.04-.48.07-.14.25-.25.41-.39-.48-.09-.9-.14-.6-.74.04-.09,0-.25-.05-.32-.53-.62-.49-1.33-.32-2.03-.12-.05-.23-.11-.41-.19.27-.37.51-.72.87-1.2-.34.14-.55.25-.85.39.16-.58.3-1.1.42-1.59l-.07-.05c-.12.19-.25.37-.46.67-.3-.94.58-1.29.74-2.01-.19.04-.34.07-.58.11.09-.25.16-.48.23-.71-.07-.02-.14-.04-.16-.02-.18.19-.34.39-.62.74-.05-1.01.74-1.36.94-2.1-.27.23-.53.44-.88.72-.04-.74.62-1.17.57-1.87-.21.23-.42.46-.74.8.05-.27.02-.48.11-.58.37-.42.8-.8,1.18-1.2.12-.12.23-.25.34-.37-.05-.05-.09-.11-.14-.16-.25.14-.49.3-.94.55.23-.41.37-.64.51-.88l-.09-.09c-.3.28-.6.57-.95.9-.12-1.06.71-1.63,1.1-2.46-.55.07-.65.62-1.06.83.09-1.29.88-2.14,1.73-3.16-.9.25-1.13.99-1.55,1.64-.23-.44-.09-.69.14-.94.25-.27.6-.48.41-.97-.04-.07.18-.28.3-.41.27-.25.57-.46.74-.85-.46.28-.92.55-1.57.94.39-1.2,1.36-1.7,2.05-2.47-.67.04-.99.64-1.55.9-.21-1.02.88-1.36,1.04-2.24-.27.11-.44.18-.72.28.3-1.02.53-2.01.88-2.95.37-1.01.85-1.96,1.25-2.95.41-.95.83-1.89,1.64-2.67-.05.57-.05,1.15-.18,1.7-.49,2.07-.62,4.15-.41,6.27.07.71.07,1.41.05,2.12,0,.34-.12.65-.21,1.02.05.02.18.05.37.11-.12.21-.23.39-.39.64.12.05.25.09.37.12.19.44-.3.41-.51.71.19.04.32.04.51.07-.05.14-.12.28-.19.46.11,0,.21.02.34.02.28.83-.67.81-.95,1.38.34-.12.6-.23.95-.37.16.9-.6,1.01-1.13,1.48.44-.12.74-.19,1.04-.27.42.62-.28.69-.53.99.72.28.72.32-.12,1.13.19.04.37.07.76.16-.44.28-.74.48-1.04.67l.04.12c.25-.02.49-.02.85-.05-.28.21-.49.35-.85.6.42-.09.67-.14.99-.19.16.9-.78.88-1.1,1.45.37-.14.69-.27,1.11-.44-.18,1.02-1.38.62-1.55,1.5.46-.14.9-.27,1.34-.39.02.05.04.12.07.18-.25.16-.49.3-.78.48-.09.41-.18.85-.32,1.5.53-.32.88-.53,1.36-.8-.12.35-.23.64-.34.95.14.12.62.07.39.51-.11.25-.28.46-.48.76.25-.02.42-.05.6-.07q.07.37-.35,1.11c.12-.05.27-.12.39-.18.04,0,.05.02.19.07-.19.21-.37.41-.64.69.27-.05.46-.09.76-.16-.14.3-.25.53-.39.85.21-.04.35-.05.51-.07.02.02.05.04.05.05.32,1.57,1.59,4.47,2.7,5.64.81.87,1.64,1.7,2.7,2.28.18.11.25.25.51.16.34-.12.58.51.99.19.07.48.83-.12.81.51.12-.07.23-.12.41-.21.05.25.09.42.14.64.11-.12.19-.23.32-.35.09.12.16.25.18.3.16-.09.32-.28.44-.25.8.14,1.55.46,2.35.49.58.04,1.17.07,1.77.12s1.22.09,1.87.12v1.27c.18-.3.28-.49.39-.69.12.09.23.16.37.25.07-.27.14-.49.28-.92.14.35.21.53.32.78.21-.07.48-.14.87-.27.04.05.12.25.19.42.53-.37.9-.74,1.43-.18.12.14.57-.04.87-.07.39-.04.76-.07,1.13-.07,1.55,0,3.09.04,4.63.02.99,0,1.98,0,2.95-.12,1.36-.19,2.74.09,4.08-.3.69.25,1.41-.39,2.1.11.3-.46.76-.25,1.15-.23.64.02,1.24-.11,1.86-.16.46-.04.94.04,1.41-.05.51-.11,1.04-.11,1.55-.09.18,0,.34.18.46.25.16-.12.35-.37.44-.35.32.14.58.16.81-.12.44.37.9-.25,1.41.04.23.14.71-.07,1.02-.23,1.1-.53,2.26-.42,3.41-.35.07,0,.21.09.23.09.27-.49.72-.25,1.11-.27.32,0,.64-.07.95-.11.49-.07,1.01,0,1.5-.04.14-.02.27-.18.41-.3.14.16.25.28.34.39.14-.21.27-.44.42-.71.18.11.32.19.46.28q.3-.48.78-.16c.07-.14.12-.39.25-.42.49-.18,1.06-.07,1.55-.34.04-.04.21.16.32.25.07-.12.12-.27.3-.62.12.28.19.44.27.58.11-.07.18-.11.18-.12,0-.23-.09-.51.32-.46.55.07.95-.39,1.52-.37.23.02.46-.42.72-.55.58-.3,1.18-.57,1.8-.76,1.61-.55,2.7-1.71,3.73-2.95.3-.35.42-.92.53-1.41.18-.92.27-1.87.46-2.81.19-.99.53-1.96.69-2.95.18-1.24.25-2.49.34-3.73.07-1.06.14-2.14.14-3.2,0-1.29-.07-2.56-.07-3.83-.02-.41.09-.83.07-1.24-.02-.87-.11-1.73-.09-2.58,0-1.31.02-2.61.11-3.9.11-1.48-.3-2.9-.51-4.51.18.25.3.34.35.48.62,1.29,1.1,2.61,1.27,4.06.18,1.4.51,2.76.65,4.13.11,1.06.11,2.14-.04,3.18-.14,1.18-.23,1.31,0,1.84-.09.18-.16.35-.28.51-.09.14-.19.25-.3.39.25.3.49.6.83,1.02-.34-.02-.46-.04-.6-.04-.05.19-.12.39-.21.67.18.25.41.57.69.97-.27-.05-.41-.07-.62-.12.12.41.83.78.04,1.11.25.6.64,1.13.41,1.86-.18-.02-.35-.05-.76-.09.39.49.67.87,1.02,1.34-.3-.07-.46-.11-.72-.16.16.23.23.37.32.51-.18-.02-.37-.02-.71-.02.3.69.58,1.31.85,1.94-.05.02-.09.05-.14.09-.16-.19-.32-.39-.55-.67-.27.94.85,1.48.48,2.46-.21-.32-.37-.55-.58-.87-.3.76.49,1.13.35,1.75-.12-.07-.23-.12-.44-.25.18.6.34,1.13.48,1.64-.05.04-.11.05-.16.07l-.51-.97c-.05.02-.11.04-.16.07.14.48.28.97.42,1.47-.07.05-.18.11-.3.18.09.34.19.65.3.99-.07.02-.12.05-.18.07-.16-.3-.32-.62-.55-1.06.12,1.11.23,2.08.34,3.04-.51-.35-.44-1.06-1.08-1.41.14.49.28.88.39,1.29.11.42.25.87-.05,1.33-.11-.35-.19-.67-.28-.99-.16.92.37,1.78-.11,2.7-.07-.37-.11-.72-.21-1.08-.07-.34-.21-.65-.41-.95-.11,1.25.41,2.49-.12,3.75-.09-.35-.16-.71-.27-1.25-.35.8.21,1.59-.39,2.23-.12-.12-.25-.25-.35-.37-.04.04-.09.07-.09.11.14.49-.02.69-.55.87-.64.23-1.18.71-1.8,1.1-.11-.18-.19-.32-.32-.53-.02.28-.05.51-.07.72-.11.32-.39-.42-.51.11-.04.23-.39.44-.65.55-.64.28-1.25.65-2,.65-.04,0-.11-.02-.14,0-.51.3-.55.3-.87-.19-.04.69-.49.87-1.04,1.04-.12-.25-.27-.51-.39-.78-.05.02-.11.02-.14.04-.02.11-.04.23-.02.35.07.41-.05.62-.51.6-.16-.02-.32.07-.46.11-.14.05-.27.11-.44.18-.09-.21-.16-.37-.28-.67-.09.25-.18.35-.19.49-.07.51-.34.46-.65.23-.12.14-.25.3-.48.6-.18-.42-.3-.72-.44-1.08-.49.32.11.8-.25,1.18-.12-.05-.3-.12-.48-.18-.39.58-1.01.8-1.77.81-.11-.48-.19-.9-.28-1.38-.41.19-.28.46-.21.72.05.25.05.51.07.81-.67-.04-.44-.53-.55-.8-.11-.3-.16-.62-.3-.94-.3.6-.05,1.29-.32,2.08-.18-.3-.28-.48-.37-.65Z"/>
    <path class="cls-2" d="m61.64,41.95c.14-.21.27-.39.44-.64.14.34.25.55.35.8.05-.28.09-.53.18-.97.21.39.35.64.49.9.16-.28.3-.51.49-.88.18.39.28.65.44,1.01.11-.34.19-.58.3-.94.18.23.28.37.41.55.09-.18.16-.35.25-.51.12.04.21.05.21.09.07.21.11.42.16.69.41-.35.74-.64,1.15-1.01.09.37.16.65.23.94h.12c.07-.27.14-.53.21-.9.19.12.32.21.46.3.07-.09.16-.21.32-.44.11.44.19.76.27,1.08h.21c.04-.27.04-.53.11-.78.04-.11.21-.25.3-.25.11.02.27.16.28.28.04.16-.05.35-.02.51.02.14.14.28.23.44.37-.32.19-.65.19-.97-.02-.49.25-.42.58-.35.04.39.05.76.07,1.2.72-.23.34-.81.58-1.24.14-.02.35-.05.57-.07.07.44-.37.88.23,1.22.11-.41.19-.81.34-1.41.25.62.42,1.06.62,1.55.23-.05.48-.11.76-.18v-1.18c.55.37-.02,1.13.72,1.33.05-.35.11-.69.16-1.04h.19c.09.46.18.94.27,1.4h.21c.07-.46.14-.9.21-1.4.44-.02.69.11.55.62-.11.37-.18.76.34,1.06.07-.48.12-.88.21-1.45.39.46.02,1.1.64,1.36.02-.44.04-.85.05-1.25q.69.04.74.62c.02.21.11.41.18.62h.19c.04-.35.09-.72.12-1.11h.57c.07.32.16.67.23,1.02.07-.02.14-.02.21-.02.02-.25.04-.49.11-.74.04-.11.18-.27.27-.27.11,0,.25.14.3.27.07.19.11.42.3.64.09-.27.18-.51.27-.76.04,0,.09,0,.14-.02.05.23.11.44.21.81.14-.35.25-.57.42-.97l.23,1.15c.16-.46.28-.78.39-1.1h.18c.07.3.14.6.21.92h.12c.07-.3.12-.58.19-.87l.16-.05c.12.23.25.46.44.8.21-.28.37-.51.53-.74.51.19-.09.58.16.88.19-.3.35-.55.49-.8.51-.07.35.35.51.6.12-.16.25-.3.48-.57.12.37.19.62.3.92.07-.21.12-.39.18-.57.42.05.87.02,1.06.58.02-.19.04-.41.09-.76.44.3.78.53,1.17.78,0-.14,0-.3.02-.57.39.28,1.01-.28,1.2.6.07-.27.11-.41.14-.51h1.22s.12.14.21.27c.53-.71,1.29-.32,1.94-.37.69-.05,1.38-.05,2.07,0,1.91.14,3.75.65,5.16,1.94,1.15,1.06,2.08,2.37,2.4,3.99.19.97.41,1.96.49,2.97.05.9-.09,1.84-.11,2.76,0,.76-.07,1.55.07,2.3.32,1.64.02,3.27.05,4.91.04,1.04.02,2.1,0,3.14-.02,1.01-.16,2.03-.07,3.02.14,1.34.02,2.63-.21,3.96-.32,1.68-.78,3.3-1.4,4.88-.65,1.64-2,2.65-3.48,3.45-1.66.9-3.46,1.4-5.28,1.84-1.17.3-2.33.64-3.52.95-.58.14-1.15.28-1.73.39-.25.04-.51-.02-.74-.04-.27.14-.53.34-.83.42-.14.04-.32-.11-.57-.19-.05.07-.18.25-.32.46-.14-.12-.25-.21-.35-.28-.09.11-.19.27-.44.58-.14-.46-.25-.78-.41-1.24-.05.32-.11.46-.12.62v.55c-.18-.12-.3-.21-.42-.3-.11.18.04.67-.53.37.02-.28.05-.58.07-.9-.05,0-.11-.02-.14-.04-.11.34-.19.67-.32,1.1-.21.04-.46.07-.76.12-.04-.34-.05-.6-.11-1.02-.14.34-.23.55-.34.81-.11-.14-.18-.21-.25-.3-.05.19-.11.39-.18.58-.05,0-.11,0-.18.02-.09-.35-.19-.69-.3-1.04-.02,0-.05.02-.07.02-.04.37-.05.72-.09,1.11-.28-.16-.34-.23-.39-.57-.07.21-.11.37-.21.71-.11-.19-.19-.27-.18-.34.02-.39.05-.76,0-1.17-.42.37-.3.92-.48,1.4-.32.07-.65.12-1.11.21-.07-.42-.12-.85-.21-1.36-.48.42-.04.94-.28,1.47-.11-.28-.16-.46-.23-.65-.04.02-.11.02-.11.05-.04.09,0,.19-.05.27-.09.12-.21.23-.32.35-.11-.16-.23-.32-.27-.49-.04-.12.04-.27-.02-.44-.07.14-.14.3-.21.46-.07.18-.12.37-.21.65-.25-.21-.41-.35-.6-.53-.04.07-.04.14-.09.19-.07.11-.18.28-.25.27-.11-.02-.28-.16-.3-.25-.04-.39,0-.76,0-1.25-.58.44-.19.99-.42,1.4-.32.07-.67.14-1.15.27.11-.46.19-.87.28-1.27-.04,0-.07-.02-.11-.04-.23.44-.48.88-.71,1.34-.05-.02-.12-.04-.18-.05-.09-.41-.18-.83-.27-1.29-.67.35.11,1.04-.55,1.4-.09-.3-.14-.53-.18-.71-.28.23-.57.48-.94.8-.11-.32-.16-.51-.25-.83-.21.67-.74.76-1.31.87-.04-.23-.07-.44-.12-.87-.16.39-.25.58-.34.78-.25.04-.51.07-.88.12-.04-.18-.11-.44-.18-.69l-.11-.02c-.05.25-.11.51-.16.85-.53-.37-.11-.94-.46-1.29-.05.46-.09.87-.12,1.31-.69-.12-.18-.6-.46-.88-.16.23-.3.44-.48.72-.12-.21-.25-.39-.37-.6-.04.25-.07.49-.11.71-.3.19-.62-.41-.9.12-.09.18-.41,0-.42-.25,0-.19.07-.39-.02-.64-.16.35-.34.69-.55,1.17-.19-.37-.3-.62-.48-.99-.12.39-.21.65-.35,1.1-.21-.35-.34-.55-.51-.83-.09.27-.16.49-.25.76-.42-.14-.74-.02-1.13.11-.55.18-1.18.09-1.78.07-1.24-.07-2.49-.09-3.71-.46-.23-.07-.37-.11-.42-.34-.09.05-.19.12-.34.21-.07-.12-.18-.25-.27-.39-.11.11-.21.23-.32.35-.11-.19-.21-.39-.34-.64-.11.21-.21.42-.32.6-.3-.05-.57-.11-.9-.18-.04-.16-.05-.39-.09-.6-.3.18-.62.35-.97.55-.18-.42-.35-.8-.51-1.17-.05,0-.11-.02-.14-.02-.05.37-.09.74-.14,1.11-.05.02-.11.04-.16.04-.09-.21-.18-.42-.28-.69-.05.12-.09.25-.16.34-.21.25-.44.23-.53-.05-.07-.28-.09-.57-.23-.87-.05.27-.11.55-.18.83-.27.18-.55.14-.65-.16-.09-.19,0-.44.02-.71-.16.3-.28.55-.42.83-.74-.39.04-.97-.32-1.43-.18.39-.34.76-.55,1.24-.16-.35-.25-.57-.37-.81-.05.19-.11.39-.21.72-.16-.34-.25-.55-.34-.76-.12.16-.25.32-.42.53-.18-.21-.3-.39-.44-.58-.25.51-.64-.3-.92.11-.92-.23-1.87-.39-2.74-.74-.78-.3-1.5-.74-2.17-1.24-.74-.57-1.24-1.36-1.59-2.23-.41-1.1-.71-2.21-1.13-3.3-.44-1.18-.32-2.4-.37-3.62-.02-.34-.12-.67-.19-1.01-.04-.14-.12-.28-.12-.42-.05-1.01-.07-2.03-.11-3.04-.02-.97-.02-1.94-.04-2.92v-.18c-.02-3.09-.09-6.18-.04-9.26.02-1.64.09-3.29.37-4.89.27-1.38.78-2.74,1.66-3.9.12-.16.25-.34.42-.46,1.4-.97,2.84-1.86,4.54-2.19,1.8-.37,3.64-.62,5.46-.9.72-.12,1.45-.27,2.19-.34.18-.04.37.16.69.3,0-.02.02-.07.04-.14.04-.05.11-.11.19-.23.11.19.18.34.27.46.67,0,.71,0,.74.11.11-.25.23-.48.39-.87.23.37.37.62.57.92.27-.32-.04-1.18.85-.88.07.19.16.44.27.72.09-.07.19-.11.21-.16.05-.21.09-.42.16-.83.25.3.39.49.58.74.05-.19.11-.34.18-.55.14.07.27.14.39.21.04-.11.07-.19.14-.44.18.39.3.65.46,1.04.09-.19.16-.32.18-.42.02-.14,0-.3,0-.46.34.28.62.53.97.83.09-.28.14-.49.21-.72.05.12.11.21.19.39.09-.28.14-.48.27-.87.14.42.23.65.35,1.02.34-.34.62-.6.94-.9.11.14.23.32.39.53.11-.25.21-.44.34-.72.14.21.27.37.42.6.04-.25.05-.42.09-.74.27.28.42.44.58.62.11-.23.23-.46.41-.83.21.3.32.46.44.64Z"/>
  </g>
  <path class="cls-1" d="m104.9,69.34c.06.28.12.56.18.85-.33-.23-.3-.53-.18-.85Z"/>
  <path class="cls-1" d="m40.56,77.94c.31.3.53.48.72.69.54.61,1.2,1,1.97,1.32,2.39,1.01,4.89,1.39,7.46,1.54,1,.06,1.99.34,2.99.49.91.14,1.82.27,2.74.35,1.25.1,2.5.17,3.74.22,1.86.08,3.68-.21,5.51-.5,1.02-.16,2.06-.24,3.09-.38,1.38-.19,2.76-.43,4.15-.62,1.21-.17,2.42-.3,3.62-.48,1.03-.15,2.04-.36,3.07-.54.35-.06.71-.17,1.05-.16,1.48.06,2.89-.32,4.32-.61.93-.19,1.87-.31,2.8-.48,1.02-.19,2.05-.38,3.06-.61,1.33-.31,2.66-.6,3.96-1.01,1.04-.33,2.09-.72,3.03-1.27.95-.55,1.32-1.59,1.46-2.64.22-1.58.34-3.18.56-4.77.16-1.11.47-2.19.62-3.3.11-.84.09-1.7.06-2.55-.05-1.31-.27-2.62-.2-3.92.07-1.46-.01-2.9-.08-4.35-.05-1.12-.15-2.26-.37-3.36-.18-.86-.58-1.67-.88-2.48-.32.06-.54.1-.83.15v-1.81c-.07,0-.15-.01-.22-.02-.05.41-.07.84-.17,1.24-.1.38-.29.74-.5,1.24-.34-.64-.21-1.18-.25-1.7-.03-.49.28-1.09-.42-1.61-.17,1.46.11,2.79,0,4.11-.09,0-.18,0-.26,0-.08-1.12-.15-2.25-.23-3.37-.04-.01-.08-.02-.11-.04-.06.11-.12.22-.16.33-.04.1-.06.22-.11.38-.1-.09-.19-.13-.21-.19-.08-.32-.14-.64-.21-.96-.07-.31-.27-.35-.59-.26-.24.57.04,1.28-.39,1.87-.45-.45-.25-.99-.28-1.46-.05-.72-.02-.73-.86-.79-.27,1.13-.06,2.34-.5,3.46-.57-1.2-.11-2.43-.13-3.74-.24-.04-.48-.08-.81-.14v1.9c-.68-.63-.19-1.47-.78-2.22-.15,1.05.19,1.98-.31,2.91-.56-.92-.26-1.86-.41-2.78-.11-.04-.24-.11-.38-.14-.11-.02-.23,0-.47,0v2.22c-.07,0-.13,0-.2.01-.4-.7.11-1.63-.52-2.49-.42.98.07,1.98-.67,2.91v-2.61c-.37-.22-.58-.17-.63.14-.05.35-.06.71-.04,1.06.01.27-.04.45-.45.53v-1.83l-.2-.02c-.38.61-.29,1.34-.41,2.14-.6-.69-.09-1.54-.57-2.2-.1.28-.17.5-.25.74-.24-.07-.48-.13-.77-.21-.06-.22-.13-.47-.24-.85-.24.16-.42.29-.64.44-.11-.13-.24-.28-.4-.47-.14.12-.26.22-.4.33-.03,0-.11,0-.13-.03-.2-.32-.52-.36-.86-.36-3.43-.06-6.85-.11-10.28-.18-.65-.01-1.3-.1-2.03-.15-.03.22-.05.43-.11.86-.19-.39-.29-.6-.47-.97-.06.15-.1.22-.11.3-.05.27-.09.55-.16.94-.41-.45.29-1.07-.51-1.31-.07.35-.12.65-.22,1.12-.16-.37-.25-.58-.38-.9-.09.51-.16.9-.23,1.3-.67-.25.14-1.03-.57-1.3-.1.3-.2.59-.37,1.08-.12-.42-.18-.64-.27-.96-.32-.02-.67-.04-1.08-.06v1.36c-.06,0-.12.02-.18.03-.09-.46-.17-.92-.27-1.44-.47.2-.23.61-.29.89-.07.34-.02.7-.02,1.24-.43-.43-.59-.74-.42-1.17.14-.35.12-.69-.29-1.03-.37.75-.12,1.52-.3,2.33-.49-.72.11-1.67-.49-2.26-.08,0-.16.02-.24.03v2.89c-.47-.46-.49-.46-.52-1.41-.01-.45.04-.9-.06-1.36-.53.62-.24,1.35-.25,2.16-.44-.37-.28-.76-.33-1.1-.05-.33.12-.71-.19-1.05-.44.4-.03.86-.14,1.26-.11.41-.07.86-.1,1.44-.58-.81-.08-1.71-.54-2.51-.07.43-.15.78-.18,1.13-.03.36,0,.72-.07,1.08-.35-.72-.1-1.5-.26-2.25-.39.84-.14,1.77-.5,2.75-.63-1,.16-1.9.03-2.78-.31-.1-.5-.04-.52.28-.05.64-.1,1.28-.14,1.89-.25-.23-.24-.23-.22-.99.01-.37,0-.73-.1-1.1-.48,1.12-.18,2.3-.29,3.47-.28-.32-.26-.32-.37-1.71-.05-.61-.2-1.22-.31-1.81-.53-.08-.66.07-.61.53.12,1.15.18,2.31.26,3.47.01.19-.03.39-.06.79-.5-1.67-.26-3.23-.72-4.69,0-.02-.11,0-.27-.02-.16,1.6.28,3.22,0,5.01-.54-.88-.32-1.72-.51-2.48-.19-.75.1-1.57-.34-2.49-.3,1.79.21,3.36.09,5-.36-.2-.32-.51-.34-.79-.06-1.19-.12-2.38-.19-3.57,0-.15-.09-.29-.22-.43-.3,1.72.31,3.48-.27,5.18-.45-.8-.36-1.68-.47-2.53-.1-.82,0-1.67-.25-2.46-.09,0-.17.02-.26.03,0,.7.02,1.39,0,2.09-.02.67.12,1.35-.16,2.01-.32-1.32-.06-2.71-.36-4.03-.44-.07-.57.09-.54.42.05.68.1,1.36.13,2.05.03.66.04,1.31.02,1.97,0,.17-.14.34-.32.5-.29-1.58-.16-3.2-.72-4.72-.26,1.01.21,2.01-.13,3.03-.06-.49-.11-.97-.17-1.46-.07-.51-.16-1.02-.25-1.56-.42.12-.42.32-.41.58.03.95.04,1.9.04,2.85,0,.28-.07.55-.19.82-.47-.61-.29-1.31-.32-1.96-.03-.67,0-1.35-.12-2.03-.5.98-.06,2.04-.39,3.05-.06-.5-.1-1-.2-1.49-.1-.5.37-1.02-.12-1.64-.48,1.45-.08,2.91-.63,4.24-.43-1.31.15-2.71-.31-4.06-.39.4-.44.87-.31,2.6-.28-.1-.53-.2-.86-.32-.04-.67-.09-1.35-.14-2.04-.06,0-.13,0-.19,0-.34,1.04.08,2.2-.45,3.38-.33-1.17-.04-2.17.11-3.17q-.55,0-.84,1.52c-.05-.46-.1-.91-.14-1.39-.36.21-.36.21-.33,1,.01.4,0,.81,0,1.33-.77-.66-.23-1.49-.5-2.13-.94-.07-.52.92-1,1.28-.06-.31-.11-.59-.17-.86-.65-.13-.44.46-.67.7-.1-.14-.19-.28-.34-.51-.76.35-1.53.7-2.3,1.08-1.54.75-2.04,2.15-2.29,3.71-.13.85-.28,1.69-.46,2.53-.35,1.66-.85,3.31-.78,5,.08,1.84.34,3.67.6,5.5.18,1.28.14,2.55,0,3.84-.08-.65-.17-1.3-.25-1.95-.13-1.18-.26-2.35-.38-3.53-.15-1.45-.33-2.89-.41-4.35-.06-1.04.1-2.09.01-3.12-.14-1.67.24-3.26.69-4.82.86-2.99,2.99-4.67,5.93-5.48,1.62-.45,3.29-.61,4.94-.65,1.46-.03,2.89-.26,4.34-.31.76-.02,1.52-.23,2.29-.34.79-.11,1.59-.23,2.38-.29.88-.07,1.77-.09,2.66-.12,1.36-.05,2.72-.08,4.09-.13.36-.01.71-.07,1.06-.1,1.54-.13,3.08-.3,4.62-.35,1.01-.04,2.02.08,3.03.17,2.73.24,5.47.34,8.21.38,2.65.03,5.3.16,7.94.37,1.26.1,2.49.51,3.74.76,1.4.28,2.8.56,4.2.8.95.16,1.65.65,2.35,1.31,1.1,1.04,1.22,2.34,1.33,3.67.13,1.69.33,3.37.67,5.04.13.61.18,1.24.2,1.86.05,1.9.33,3.78-.07,5.69-.26,1.24-.18,2.55-.26,3.82-.02.27,0,.54-.08.8-.53,1.78-.65,3.63-.8,5.46-.17,2.07-1.32,3.37-3.17,4.13-.66.27-1.32.49-2.05.56-.7.07-1.39.3-2.08.47-1.84.47-3.68.96-5.59,1.13-1,.08-1.97.45-2.97.63-.91.17-1.83.25-2.74.38-1.74.26-3.47.52-5.2.78-1.47.22-2.93.46-4.4.65-2.95.37-5.9.74-8.86,1.06-.97.11-1.97.13-2.95.07-2.08-.14-4.15-.33-6.22-.57-2.09-.25-4.18-.54-6.26-.9-1.7-.3-3.34-.87-4.89-1.66-.9-.46-1.37-1.01-1.84-2.03Z"/>
  <path class="cls-1" d="m42.08,50.97c-.15-.63-.33-1.25.29-1.95.19.82,0,1.4-.29,1.95Z"/>
  <path class="cls-1" d="m37.77,59.5c-.3-1.26-.28-1.51.08-2.04q.39.44-.08,2.04Z"/>
  <path class="cls-1" d="m98.46,74.31c-.41-.59-.52-1.23-.38-1.99.72.6.3,1.35.38,1.99Z"/>
  <path class="cls-1" d="m59.8,54.78c-.33-.65-.35-.86-.2-1.64.51.32.59.82.2,1.64Z"/>
  <path class="cls-1" d="m66.17,49.13c-.22-.57-.39-1.11-.04-1.69.42.48.43.95.04,1.69Z"/>
  <path class="cls-1" d="m94.62,49.02c.48.53.26,1.01.2,1.48-.34-.4-.53-.83-.2-1.48Z"/>
  <path class="cls-1" d="m40.34,49.86c-.44-.42-.39-.73-.24-1.04.07-.15.22-.27.34-.4.07.04.14.07.21.11-.09.4-.19.79-.31,1.33Z"/>
  <path class="cls-1" d="m38.84,53.25c-.1-.49-.32-1,.28-1.42.24.58-.02,1-.28,1.42Z"/>
  <path class="cls-1" d="m40.12,68.53c-.09.5-.18,1.01-.27,1.5-.41-.44-.37-.89.27-1.5Z"/>
  <path class="cls-1" d="m39.34,50.29c.22.13.49.22.63.41.07.09-.12.37-.19.56-.07,0-.15,0-.22,0-.13-.27-.26-.54-.39-.82.06-.06.12-.11.18-.17Z"/>
  <path class="cls-1" d="m62.24,49.86c-.1-.43-.46-.82-.17-1.31q.51.34.17,1.31Z"/>
  <path class="cls-1" d="m96.58,75.68c-.12-.44-.43-.8-.14-1.32.13.06.31.08.35.16.16.33.08.68-.21,1.16Z"/>
  <path class="cls-1" d="m62.26,52.55c-.65-.76-.64-1.13.02-1.57-.02.29-.06.5-.06.72,0,.22.02.45.04.85Z"/>
  <path class="cls-1" d="m59.94,78.32c.24.51.35,1.03-.05,1.65-.31-.66-.09-1.15.05-1.65Z"/>
  <path class="cls-1" d="m71.48,54.36c-.36-1.12-.36-1.2.13-1.5-.05.51.26.98-.13,1.5Z"/>
  <path class="cls-1" d="m40.77,57.77c.21.45.18.9.05,1.44-.45-.52-.31-.98-.05-1.44Z"/>
  <path class="cls-1" d="m66.1,44.44c-.04.42-.07.85-.12,1.36-.45-.56-.45-.69.12-1.36Z"/>
  <path class="cls-1" d="m59.71,51.96c-.25-.57-.38-.97.15-1.37.24.49.12.88-.15,1.37Z"/>
  <path class="cls-1" d="m64.43,49.28q-.57-.87,0-1.4v1.4Z"/>
  <path class="cls-1" d="m38.22,66.67c-.09-.45-.13-.9.44-1.2-.08.41-.16.82-.25,1.23-.06,0-.13-.02-.19-.02Z"/>
  <path class="cls-1" d="m63.21,78.01v1.44c-.44-.54-.46-.86,0-1.44Z"/>
  <path class="cls-1" d="m77.86,77.35c-.05.65-.08,1.12-.11,1.6-.43-.74-.42-.9.11-1.6Z"/>
  <path class="cls-1" d="m80.04,53.82c-.23-.52-.18-.85.26-1.25.11.49.18.85-.26,1.25Z"/>
  <path class="cls-1" d="m40.76,73.86v1.37c-.42-.53-.2-.96-.25-1.37.08,0,.17,0,.25,0Z"/>
  <path class="cls-1" d="m40.25,52.73q-.51-.69.08-1.21c-.03.48-.06.85-.08,1.21Z"/>
  <path class="cls-1" d="m44.72,49.98v1.17q-.48-.52,0-1.17Z"/>
  <path class="cls-1" d="m43.06,78.98c-.19-.47-.48-.93,0-1.52v1.52Z"/>
  <path class="cls-1" d="m96.34,51.21v1.24c-.39-.14-.49-.41-.44-.7.02-.14.21-.26.44-.54Z"/>
  <path class="cls-1" d="m76.1,73.27c.22.41.25.82.06,1.29-.42-.46-.22-.88-.06-1.29Z"/>
  <path class="cls-1" d="m54.74,76.16c-.06.5-.13.99-.19,1.49-.23-.52-.27-1.03,0-1.51l.19.02Z"/>
  <path class="cls-1" d="m55.38,51.04c.21.52.17.85-.24,1.21-.27-.5-.09-.8.24-1.21Z"/>
  <path class="cls-1" d="m89.66,48.16v.89c-.55-.25-.56-.34,0-.89Z"/>
  <path class="cls-1" d="m97.28,71.54c-.39-.27-.59-.6-.23-1.08.52.29.1.75.23,1.08Z"/>
  <path class="cls-1" d="m58.4,54.54c-.26-.68-.26-.76.12-1.27q.14.75-.12,1.27Z"/>
  <path class="cls-1" d="m41.05,70.54c-.07.49-.13.98-.2,1.46-.26-.53-.22-1.03.2-1.46Z"/>
  <path class="cls-1" d="m63.42,51.56c-.35-.44-.42-.78-.01-1.12q.24.51.01,1.12Z"/>
  <path class="cls-1" d="m76.37,78.81q-.34-.58-.07-1.02c.51.3.03.67.07,1.02Z"/>
  <path class="cls-1" d="m63.23,80.31c.02.09.06.17.06.26,0,.31-.03.61-.05,1.02-.39-.5-.25-.89-.22-1.28.07,0,.14,0,.22,0Z"/>
  <path class="cls-1" d="m79.73,71.49c.44.41.03.79.11,1.34-.43-.54-.48-.91-.11-1.34Z"/>
  <path class="cls-1" d="m79.67,74.82c.03-.4.07-.79.1-1.19.4.43.32.83.09,1.22-.06-.01-.13-.02-.19-.03Z"/>
  <path class="cls-1" d="m61.6,54.59c-.47-.53-.27-.86-.06-1.23.47.4.06.76.06,1.23Z"/>
  <path class="cls-1" d="m93.41,76.56c-.03-.37-.07-.74-.11-1.28.6.47.25.91.37,1.28-.08,0-.17,0-.25,0Z"/>
  <path class="cls-1" d="m80.84,58.53v-1.2q.36.57,0,1.2Z"/>
  <path class="cls-1" d="m99.37,58.56c.02.38.04.76.07,1.23-.52-.39-.31-.83-.39-1.21.11,0,.22-.01.33-.02Z"/>
  <path class="cls-1" d="m76,75.33v1.06c-.41-.32-.33-.68-.21-1.04.07,0,.14,0,.21-.01Z"/>
  <path class="cls-1" d="m58.44,77.76v-1.34q.39.5,0,1.34Z"/>
  <path class="cls-1" d="m67.85,54.2c-.26-.35-.42-.67,0-.96.53.34.01.66,0,.96Z"/>
  <path class="cls-1" d="m67.5,77.24c-.06-.36-.11-.72-.18-1.18q.41.37.18,1.18Z"/>
  <path class="cls-1" d="m45.83,75.24l.14-1.21c.08.01.16.02.24.03-.06.4-.12.81-.18,1.21l-.2-.03Z"/>
  <path class="cls-1" d="m62.65,74.9c-.04-.3-.22-.62.26-.88-.02.3-.03.6-.05.9-.07,0-.14-.01-.22-.02Z"/>
  <path class="cls-1" d="m62.97,76.94c-.3-.49-.4-.83-.11-1.33.26.45.18.81.11,1.33Z"/>
  <path class="cls-1" d="m58.01,51.03v1.2c-.54-.46-.35-.83-.22-1.2h.22Z"/>
  <path class="cls-1" d="m96.67,73.48c-.32-.39-.11-.7.06-1.12.38.47.12.8-.06,1.12Z"/>
  <path class="cls-1" d="m97.72,52.23c-.03-.27-.05-.54-.08-.84q.55.17.08.84Z"/>
  <path class="cls-1" d="m80.62,55.89c-.43-.32-.28-.57.07-.89.18.35.22.61-.07.89Z"/>
  <path class="cls-1" d="m52.12,51.48c-.05.22-.1.44-.16.72-.45-.34-.35-.56-.09-.78.08.02.17.04.25.05Z"/>
  <path class="cls-1" d="m55.81,76.31l.12,1.16c-.37-.34-.37-.74-.12-1.16Z"/>
  <path class="cls-1" d="m47.44,77.82c.07-.41.13-.82.2-1.23.07.01.13.02.2.03-.07.41-.13.82-.2,1.23-.07-.01-.13-.02-.2-.03Z"/>
  <path class="cls-1" d="m67.4,73.94v.97c-.29-.31-.37-.63,0-.97Z"/>
  <path class="cls-1" d="m39.79,55.18c-.03.59-.06,1.18-.09,1.77-.07,0-.14-.01-.21-.02.1-.58.2-1.17.31-1.75,0,0,0,0,0,0Z"/>
  <path class="cls-1" d="m61.4,77.87c-.3-.42-.4-.77,0-1.14v1.14Z"/>
  <path class="cls-1" d="m95.32,75.08c.04.29.08.58.15,1.01-.58-.3-.55-.61-.39-.96.08-.02.16-.03.24-.05Z"/>
  <path class="cls-1" d="m47.5,73.62v1.79c-.3-.53-.31-.96,0-1.79Z"/>
  <path class="cls-1" d="m72.58,45.52c-.07.27-.13.54-.23.93-.48-.49-.23-.73-.03-.98.09.02.18.03.26.05Z"/>
  <path class="cls-1" d="m38.01,63.07q-.35-.53-.06-.93.19.33.06.93Z"/>
  <path class="cls-1" d="m90.45,48.63c.62.32-.04.69.17.99-.36-.26-.44-.55-.17-.99Z"/>
  <path class="cls-1" d="m93.61,48.19c.04.3.08.6.12.95-.61-.42-.62-.45-.12-.95Z"/>
  <path class="cls-1" d="m64.67,52.76c-.26-.34-.26-.68-.03-1.12.44.43.2.78.03,1.12Z"/>
  <path class="cls-1" d="m80.98,59.79c-.03.49-.05.82-.08,1.2-.41-.47-.41-.55.08-1.2Z"/>
  <path class="cls-1" d="m59.83,75.68c-.04-.48-.08-.96-.11-1.43.37.46.31.96.11,1.43Z"/>
  <path class="cls-1" d="m50.62,74.78l-.08,1.1s-.07,0-.1,0v-1.1c.06,0,.12,0,.18,0Z"/>
  <path class="cls-1" d="m70.16,45.51c.33.44.16.64-.14.87-.25-.32-.15-.55.14-.87Z"/>
  <path class="cls-1" d="m64.09,76.93q-.18-.63.08-1.07c.26.37.08.65-.08,1.07Z"/>
  <path class="cls-1" d="m59.33,49.16c-.04.45-.07.76-.12,1.26q-.36-.73.12-1.26Z"/>
  <path class="cls-1" d="m50.59,54.37c-.4-.35-.31-.68,0-1.18v1.18Z"/>
  <path class="cls-1" d="m73.81,80.44c-.48-.27-.49-.59-.31-.91l.21-.02c.03.31.07.62.1.94Z"/>
  <path class="cls-1" d="m57.32,74.39v.87c-.07,0-.14,0-.21,0-.01-.29-.03-.58-.04-.87h.25Z"/>
  <path class="cls-1" d="m43.01,75.03c-.07.36-.14.72-.25,1.25-.24-.61-.2-1,.25-1.25Z"/>
  <path class="cls-1" d="m57.18,54.55v-1.04c.37.35.36.68.22,1.04-.07,0-.14,0-.22,0Z"/>
  <path class="cls-1" d="m43.95,75.98c.42.33.33.64.19,1.02-.48-.28-.2-.62-.19-1.02Z"/>
  <path class="cls-1" d="m65.99,54.14v-1s.08,0,.12-.01c.03.33.06.67.1,1-.07,0-.14.01-.21.02Z"/>
  <path class="cls-1" d="m49.85,51.82v-1.08c.47.47.18.78.21,1.08-.07,0-.14,0-.21,0Z"/>
  <path class="cls-1" d="m77.6,74.43c.02-.29.04-.59.08-1.08q.3.63-.08,1.08Z"/>
  <path class="cls-1" d="m95.3,69.89c-.04.48-.06.78-.09,1.07-.32-.32-.41-.63.09-1.07Z"/>
  <path class="cls-1" d="m98.91,68.57c-.21-.28-.33-.55-.04-.91.28.33.19.63.04.91Z"/>
  <path class="cls-1" d="m90.25,50.41v1.08c-.52-.46-.27-.78-.22-1.09.07,0,.15,0,.22,0Z"/>
  <path class="cls-1" d="m67.64,78.4c-.04.42-.07.73-.11,1.13q-.38-.49.11-1.13Z"/>
  <path class="cls-1" d="m50.37,57.86c.3.33.2.57-.03.86-.23-.29-.39-.53.03-.86Z"/>
  <path class="cls-1" d="m38.87,72.55c.04-.29.09-.58.13-.86.05,0,.09,0,.14.01v.85c-.09,0-.18,0-.27,0Z"/>
  <path class="cls-1" d="m51.68,75.75c-.07.25-.14.5-.23.84q-.21-.55.23-.84Z"/>
  <path class="cls-1" d="m59.28,62.4l.08-.78q.27.33-.08.78Z"/>
  <path class="cls-1" d="m82.38,57.43c-.06.31-.13.63-.19.94-.29-.38-.32-.71.19-.94Z"/>
  <path class="cls-1" d="m64.73,50.83c-.3-.37-.26-.64-.1-1.01.4.33.22.62.1,1.01Z"/>
  <path class="cls-1" d="m99.08,65.41q.15.41,0,.78-.15-.4,0-.78Z"/>
  <path class="cls-1" d="m53.91,54.28v1.01c-.47-.36-.37-.67,0-1.01Z"/>
  <path class="cls-1" d="m53.91,51.58c-.06.23-.12.45-.2.78-.43-.4-.29-.62-.05-.82.08.02.17.03.25.05Z"/>
  <path class="cls-1" d="m88.53,50.54c-.28-.25-.23-.5-.09-.79q.36.26.09.79Z"/>
  <path class="cls-1" d="m38.82,68.31v1.1c-.38-.46-.37-.72,0-1.1Z"/>
  <path class="cls-1" d="m49.58,76.97c-.08.23-.16.46-.26.76q-.18-.46.26-.76Z"/>
  <path class="cls-1" d="m44.08,73.57c.02.35.03.7.05,1.05-.07,0-.14,0-.2.01-.02-.35-.05-.7-.07-1.05.07,0,.15,0,.22-.01Z"/>
  <path class="cls-1" d="m51.54,78.4c.05-.29.09-.59.14-.88.06.01.13.02.19.03-.05.3-.11.6-.16.91-.06-.02-.11-.04-.17-.05Z"/>
  <path class="cls-1" d="m41.47,69.24c-.32-.35-.44-.6-.08-1.08.03.44.05.7.08,1.08Z"/>
  <path class="cls-1" d="m64.98,80.28c-.08.23-.15.47-.26.78q-.21-.55.26-.78Z"/>
  <path class="cls-1" d="m54.62,78.21c-.01.23-.03.46-.04.69-.06,0-.12,0-.18,0v-.69c.07,0,.15,0,.22,0Z"/>
  <path class="cls-1" d="m59.4,59.69l-.08.76q-.3-.36.08-.76Z"/>
  <path class="cls-1" d="m98.55,70.5v.88c-.42-.3-.35-.58-.22-.87.07,0,.15,0,.22-.01Z"/>
  <path class="cls-1" d="m53.03,79.78c-.04.26-.07.51-.13.94-.32-.46-.18-.71.13-.94Z"/>
  <path class="cls-1" d="m46.89,79.31c.05.24.09.47.14.71-.04.02-.07.04-.11.06-.06-.07-.15-.12-.16-.2-.04-.19-.04-.38-.06-.57.07,0,.13,0,.2,0Z"/>
  <path class="cls-1" d="m59.9,81.48v-.86q.34.45,0,.86Z"/>
  <path class="cls-1" d="m99.42,63.15v.88c-.45-.37-.24-.62,0-.88Z"/>
  <path class="cls-1" d="m51.25,80.25c-.02-.25-.05-.51-.07-.76.41.21.32.48.28.74-.07,0-.14.02-.21.02Z"/>
  <path class="cls-1" d="m52.52,53.54c-.04.24-.07.49-.11.73-.41-.28-.35-.52-.15-.76.09,0,.17.02.26.03Z"/>
  <path class="cls-1" d="m58.64,80.31v1.17s-.08,0-.12,0v-1.18h.12Z"/>
  <path class="cls-1" d="m51.83,58.56c-.15-.26-.33-.52.12-.93.03.37.04.63.06.89-.06.01-.12.03-.19.04Z"/>
  <path class="cls-1" d="m65.22,76.55c.62.19.43.49.22.79-.06-.23-.12-.45-.22-.79Z"/>
  <path class="cls-1" d="m55.28,54.07c.35.26.38.52,0,.89v-.89Z"/>
  <path class="cls-1" d="m57,79.01v-.74h.17c.02.25.03.5.05.75-.07,0-.15,0-.22,0Z"/>
  <path class="cls-1" d="m59.61,64.78c-.36-.3-.25-.58-.1-.92.38.28.37.56.1.92Z"/>
  <path class="cls-1" d="m41.39,76.42v-.77q.23.4,0,.77Z"/>
  <path class="cls-1" d="m57.11,80.87c-.01-.23-.03-.46-.05-.81.41.28.31.54.26.79-.07,0-.14.01-.21.02Z"/>
  <path class="cls-1" d="m78.16,83.65c-.17-.22-.34-.43-.58-.73.61,0,.62.35.58.73Z"/>
  <path class="cls-1" d="m54.33,79.76v1.17s-.05,0-.07,0v-1.17s.05,0,.07,0Z"/>
  <path class="cls-1" d="m59.53,77.49c.05-.24.1-.48.16-.75q.26.29-.16.75Z"/>
  <path class="cls-1" d="m92.58,51.33c-.37-.27-.37-.53-.24-.91.43.27.23.57.24.91Z"/>
  <path class="cls-1" d="m48.72,53.32c.02.25.03.49.06.88-.32-.35-.48-.58-.06-.88Z"/>
  <path class="cls-1" d="m86.67,49.23v.77q-.3-.32,0-.77Z"/>
  <path class="cls-1" d="m63.08,54.29v-.75c.06,0,.11-.02.17-.03.04.14.11.27.11.41,0,.13-.06.26-.09.38l-.2-.02Z"/>
  <path class="cls-1" d="m76.63,46.19c-.18-.35-.19-.61.13-.88.18.36.15.61-.13.88Z"/>
  <path class="cls-1" d="m93.89,50.7c-.03.22-.06.44-.1.77-.43-.35-.31-.57-.14-.8.08,0,.16.02.24.03Z"/>
  <path class="cls-1" d="m48.46,51.9c-.31-.35-.35-.63.23-.87-.1.37-.16.62-.23.87Z"/>
  <path class="cls-1" d="m79.99,76.5c-.42-.28-.38-.53-.08-.81.02.23.05.46.08.81Z"/>
  <path class="cls-1" d="m79.94,77.37v.95c-.37-.39-.38-.62,0-.95Z"/>
  <path class="cls-1" d="m38.76,55.77c-.08-.19-.15-.38-.25-.62q.48.09.25.62Z"/>
  <path class="cls-1" d="m77.2,76.32v-.95q.24.55,0,.95Z"/>
  <path class="cls-1" d="m54.42,75.61c-.05-.4-.11-.81-.16-1.21.05,0,.11-.02.16-.02.06.38.13.77.19,1.15-.06.03-.12.05-.18.08Z"/>
  <path class="cls-1" d="m50.62,77.1v.79q-.26-.36,0-.79Z"/>
  <path class="cls-1" d="m67.98,46.63c-.06.2-.12.41-.2.69q-.32-.41,0-.76c.07.02.13.05.2.07Z"/>
  <path class="cls-1" d="m59.6,65.85c0,.27-.02.54-.03.9q-.31-.47-.15-.91c.06,0,.12,0,.18,0Z"/>
  <path class="cls-1" d="m79.41,45.93c.02-.21.04-.42.07-.75.52.38.37.57-.07.75Z"/>
  <path class="cls-1" d="m67.63,50.7c-.16-.25-.25-.32-.24-.39.02-.16.09-.32.24-.47v.86Z"/>
  <path class="cls-1" d="m59.24,56.33c.05-.16.09-.32.14-.48,0,0,.14.02.14.03.01.17,0,.34,0,.51l-.29-.06Z"/>
  <path class="cls-1" d="m52.85,76.86c-.02-.21-.03-.41-.06-.8.4.36.41.56.06.8Z"/>
  <path class="cls-1" d="m91.39,49.91c.04-.25.07-.45.12-.75q.33.52-.12.75Z"/>
  <path class="cls-1" d="m95.63,48.4c.44.4.4.61.05.94-.02-.33-.03-.54-.05-.94Z"/>
  <path class="cls-1" d="m87.53,48.3c.09.19.18.38.27.57-.06.03-.12.06-.18.09-.1-.18-.2-.37-.3-.55.07-.04.15-.07.22-.11Z"/>
  <path class="cls-1" d="m58.58,74.25v1.06s-.09,0-.13,0v-1.04s.09-.01.13-.02Z"/>
  <path class="cls-1" d="m47.28,50.06c.4.37.42.57.11.9-.04-.31-.06-.52-.11-.9Z"/>
  <path class="cls-1" d="m76.05,80.07c-.45-.25-.47-.49-.06-.87.03.39.04.63.06.87Z"/>
  <path class="cls-1" d="m78.89,77.76c.02.21.05.42.07.63-.08,0-.15.02-.23.02-.02-.21-.04-.42-.05-.63.07,0,.14-.02.22-.02Z"/>
  <path class="cls-1" d="m78.93,73.54v1.05c-.35-.42-.38-.66,0-1.05Z"/>
  <path class="cls-1" d="m45.7,50.6c.01-.22.02-.44.04-.82q.22.49-.04.82Z"/>
  <path class="cls-1" d="m99.05,51.49q-.28-.38-.09-.86c.07.21.12.33.13.44,0,.14-.02.28-.04.41Z"/>
  <path class="cls-1" d="m61.21,49.9v.94c-.3-.37-.38-.61,0-.94Z"/>
  <path class="cls-1" d="m80.03,78.92c.28.23.23.44-.14.76-.05-.3-.08-.51-.11-.71.08-.01.17-.03.25-.04Z"/>
  <path class="cls-1" d="m79.94,50.07c.03-.22.06-.43.09-.69.11.05.24.09.24.11-.04.21-.09.42-.14.63-.06-.01-.13-.03-.19-.04Z"/>
  <path class="cls-1" d="m66.29,50.62c-.07-.15-.14-.3-.25-.53.19.02.41,0,.42.04.04.15,0,.31,0,.47l-.17.02Z"/>
  <path class="cls-1" d="m55.56,80.25v.68q-.29-.33,0-.68Z"/>
  <path class="cls-1" d="m53.01,75.19v-.88s.08,0,.11,0v.9s-.08,0-.11-.01Z"/>
  <path class="cls-1" d="m87.28,51.1v-.57c.07,0,.13,0,.2-.01.02.19.04.38.07.57-.09,0-.18.01-.26.02Z"/>
  <path class="cls-1" d="m74.13,46.16c.08-.36.13-.55.21-.9.28.45.11.6-.21.9Z"/>
  <path class="cls-1" d="m65.31,75.05c.04-.19.08-.37.12-.56.04,0,.08.01.12.02v.57c-.08,0-.16-.02-.23-.03Z"/>
  <path class="cls-1" d="m79.64,70.71c-.03-.19-.07-.38-.1-.57l.19-.04.15.56c-.08.02-.15.04-.23.05Z"/>
  <path class="cls-1" d="m97.58,53.54c-.04.18-.08.37-.12.55-.05,0-.1-.01-.15-.02v-.55c.09,0,.18.02.27.02Z"/>
  <path class="cls-1" d="m51.74,74.91c.04-.21.08-.41.12-.62.06.01.13.03.19.04-.05.2-.1.39-.15.59h-.17Z"/>
  <path class="cls-1" d="m64.12,73.95c.02.19.04.39.07.69-.42-.23-.39-.45-.07-.69Z"/>
  <path class="cls-1" d="m81.21,45.26l.04.55c-.06.01-.12.02-.18.03-.04-.18-.08-.36-.12-.53.09-.02.18-.04.27-.05Z"/>
  <path class="cls-1" d="m45.05,77.25c-.02-.21-.05-.43-.07-.64l.12-.02c.06.22.12.43.18.65-.07,0-.15.01-.22.02Z"/>
  <path class="cls-1" d="m43.73,50.51c-.08.39-.12.59-.16.8-.26-.27-.28-.49.16-.8Z"/>
  <path class="cls-1" d="m55.68,75.22v-.88s.09,0,.13,0c0,.16,0,.33,0,.49,0,.13-.03.26-.05.39-.03,0-.05,0-.08,0Z"/>
  <path class="cls-1" d="m64.81,53.63v.58q-.25-.25,0-.58Z"/>
  <path class="cls-1" d="m67.69,51.66v.65q-.26-.32,0-.65Z"/>
  <path class="cls-1" d="m61.4,74.27v.8c-.24-.32-.4-.52,0-.8Z"/>
  <path class="cls-1" d="m61.05,76.12l-.06-.5.17-.03c.03.18.07.36.1.55-.07,0-.15,0-.22-.01Z"/>
  <path class="cls-1" d="m42.4,48.19c-.03.19-.05.37-.08.56-.23-.23-.28-.43.08-.56Z"/>
  <path class="cls-1" d="m55.85,78.46c-.03.18-.06.36-.08.54-.07-.01-.13-.03-.2-.04l.13-.53c.05.01.1.02.15.03Z"/>
  <path class="cls-1" d="m84.28,45.91c.03.18.06.36.08.55-.06.01-.12.03-.18.04-.05-.18-.09-.37-.14-.55.08-.01.16-.02.24-.03Z"/>
  <path class="cls-1" d="m99.44,61.83c.03-.2.05-.41.09-.71.14.13.25.2.24.23-.06.18-.14.34-.21.52-.04-.01-.08-.03-.12-.04Z"/>
  <path class="cls-1" d="m85.1,50.94c-.03.17-.05.34-.09.59-.39-.28-.29-.46.09-.59Z"/>
  <path class="cls-1" d="m37.86,60.71v.55c-.05,0-.11.01-.16.02-.03-.18-.05-.36-.08-.55.08,0,.16-.02.24-.02Z"/>
  <path class="cls-1" d="m60.52,48.72c-.11.12-.18.2-.25.27-.07-.07-.19-.14-.21-.22-.01-.07.09-.17.15-.25.09.06.18.11.31.2Z"/>
  <path class="cls-1" d="m52.79,78.51v-.52c.05,0,.1,0,.16-.01.03.17.05.34.08.51-.08,0-.16.02-.24.02Z"/>
  <path class="cls-1" d="m40.36,72.99c0-.14,0-.28,0-.42,0-.01.14-.03.14-.02.04.14.06.29.09.43-.08,0-.16,0-.24,0Z"/>
  <path class="cls-1" d="m67.54,81.23c.01-.15.03-.3.04-.45.07.02.15.03.22.05-.04.15-.08.29-.12.44-.05-.01-.1-.02-.15-.04Z"/>
  <path class="cls-1" d="m49.16,75.27l.03.43c-.05,0-.1.02-.16.03-.03-.15-.06-.3-.09-.45.07,0,.14,0,.21-.01Z"/>
  <path class="cls-1" d="m49.19,74.03c-.05.17-.1.34-.16.55-.23-.26-.26-.45.16-.55Z"/>
  <path class="cls-1" d="m78.8,79.51c-.02-.13-.04-.27-.05-.4,0,0,.13-.02.21-.03v.42h-.16Z"/>
  <path class="cls-1" d="m56.72,51.43c-.01.14-.02.28-.04.42-.06,0-.12-.01-.18-.02.01-.14.03-.28.04-.42.06,0,.11.01.17.02Z"/>
  <path class="cls-1" d="m63.48,47.53v-.48s.09,0,.14,0v.48h-.14Z"/>
  <path class="cls-1" d="m57.04,77.23c-.33-.26-.34-.44,0-.74v.74Z"/>
  <path class="cls-1" d="m98.35,49.56c.06.15.12.3.18.45-.07.02-.13.05-.2.07-.05-.16-.1-.31-.15-.47.05-.02.11-.04.16-.06Z"/>
  <path class="cls-1" d="m44.94,79.75c.03-.2.07-.41.12-.73.33.38.1.56-.12.73Z"/>
  <path class="cls-1" d="m49.83,80.1v-.87s.08,0,.12,0v.87s-.08,0-.12,0Z"/>
  <path class="cls-1" d="m48.01,80.28v-.74s.08,0,.13,0v.74s-.08,0-.13,0Z"/>
  <path class="cls-1" d="m99.21,55.99v.84h-.12v-.84s.08,0,.12,0Z"/>
  <path class="cls-1" d="m66.14,81.07c-.06-.13-.13-.26-.19-.39.05-.03.1-.05.15-.08.06.13.13.26.19.39-.05.03-.1.05-.15.08Z"/>
  <path class="cls-1" d="m46.67,77.21v.45c-.06,0-.11.01-.17.02-.01-.15-.02-.3-.03-.46.07,0,.14,0,.21-.01Z"/>
  <path class="cls-1" d="m58.6,78.6c-.03.2-.05.4-.08.6-.07-.01-.14-.03-.2-.04.05-.19.1-.39.15-.58.04,0,.08.02.12.02Z"/>
  <path class="cls-1" d="m61.23,80.63l-.12.61s-.09-.02-.14-.03c.04-.2.09-.4.13-.61.04,0,.09.02.13.03Z"/>
  <path class="cls-1" d="m61.36,78.9c-.06.1-.1.16-.14.23-.07-.07-.15-.13-.19-.21-.01-.03.08-.14.14-.15.05,0,.11.08.18.13Z"/>
  <path class="cls-1" d="m64.72,79.1c-.07-.15-.15-.3-.22-.45.06-.03.11-.05.17-.08.07.15.13.3.2.46-.05.02-.1.04-.15.07Z"/>
  <path class="cls-1" d="m41.6,74.23l.12-.39s.14.06.13.08c-.02.12-.07.24-.11.36-.05-.01-.1-.03-.15-.04Z"/>
  <path class="cls-1" d="m78.65,76.3c-.01-.19-.02-.38-.04-.61q.3.26.04.61Z"/>
  <path class="cls-1" d="m66.21,52.31c-.03-.17-.06-.35-.1-.52.07-.02.14-.03.21-.05.04.17.07.33.11.5-.07.02-.15.05-.22.07Z"/>
  <path class="cls-1" d="m98.88,54.01v.8s-.1,0-.14,0c-.02-.26-.04-.53-.06-.79.07,0,.13,0,.2-.01Z"/>
  <path class="cls-1" d="m97.5,49.75c.11.27.18.36.18.45,0,.06-.1.11-.16.17-.06-.09-.15-.18-.18-.28-.02-.06.06-.14.16-.34Z"/>
  <path class="cls-1" d="m65.45,79.12c.02-.13.04-.26.06-.4.07.02.21.04.21.05-.01.12-.04.24-.07.37-.06,0-.13-.01-.19-.02Z"/>
  <path class="cls-1" d="m82.96,45.62c.07.15.14.24.14.33,0,.04-.11.09-.17.14-.05-.08-.13-.16-.15-.25-.01-.04.09-.11.19-.22Z"/>
  <path class="cls-1" d="m87.18,88.73c.04.46.08.92.12,1.43-.41-.35-.45-.62-.12-1.43Z"/>
  <path class="cls-1" d="m99.29,84.74c-.01-.28-.03-.57-.04-.85.04,0,.09,0,.13,0v.88s-.06-.02-.09-.03Z"/>
  <path class="cls-1" d="m100.08,83.61c.02.22.05.45.07.67-.05,0-.09,0-.14.01-.02-.22-.05-.45-.07-.67.04,0,.09,0,.13-.01Z"/>
  <path class="cls-1" d="m69.12,91.01c.01.2.03.4.04.61-.04,0-.07,0-.11,0v-.61s.04,0,.06,0Z"/>
  <path class="cls-1" d="m76.69,50.95c-.33-.65-.35-.86-.2-1.64.51.32.59.82.2,1.64Z"/>
  <path class="cls-1" d="m78.59,48.68c-.65-.76-.64-1.13.02-1.57-.02.29-.06.5-.06.72,0,.22.02.45.04.85Z"/>
  <path class="cls-1" d="m81.36,49.79c-.36-1.12-.36-1.2.13-1.5-.05.51.26.98-.13,1.5Z"/>
  <path class="cls-1" d="m76.58,48.38c-.25-.57-.38-.97.15-1.37.24.49.12.88-.15,1.37Z"/>
  <path class="cls-1" d="m72.45,47.88c.21.52.17.85-.24,1.21-.27-.5-.09-.8.24-1.21Z"/>
  <path class="cls-1" d="m75.27,50.95c-.26-.68-.26-.76.12-1.27q.14.75-.12,1.27Z"/>
  <path class="cls-1" d="m80.29,47.98c-.35-.44-.42-.78-.01-1.12q.24.51.01,1.12Z"/>
  <path class="cls-1" d="m78.59,50.76c-.47-.53-.27-.86-.06-1.23.47.4.06.76.06,1.23Z"/>
  <path class="cls-1" d="m74.88,47.45v1.2c-.54-.46-.35-.83-.22-1.2h.22Z"/>
  <path class="cls-1" d="m68.99,47.9c-.05.22-.1.44-.16.72-.45-.34-.35-.56-.09-.78.08.02.17.04.25.05Z"/>
  <path class="cls-1" d="m82.77,49.18c-.26-.34-.26-.68-.03-1.12.44.43.2.78.03,1.12Z"/>
  <path class="cls-1" d="m45.72,54.56c-.4-.35-.31-.68,0-1.18v1.18Z"/>
  <path class="cls-1" d="m74.04,50.97v-1.04c.37.35.36.68.22,1.04-.07,0-.14,0-.22,0Z"/>
  <path class="cls-1" d="m83.79,50.38v-1s.08,0,.12-.01c.03.33.06.67.1,1-.07,0-.14.01-.21.02Z"/>
  <path class="cls-1" d="m81.96,47.41c-.3-.37-.26-.64-.1-1.01.4.33.22.62.1,1.01Z"/>
  <path class="cls-1" d="m69.45,49.97v1.01c-.47-.36-.37-.67,0-1.01Z"/>
  <path class="cls-1" d="m70.78,48c-.06.23-.12.45-.2.78-.43-.4-.29-.62-.05-.82.08.02.17.03.25.05Z"/>
  <path class="cls-1" d="m69.75,53.49c-.04.24-.07.49-.11.73-.41-.28-.35-.52-.15-.76.09,0,.17.02.26.03Z"/>
  <path class="cls-1" d="m71.53,49.99c.35.26.38.52,0,.89v-.89Z"/>
  <path class="cls-1" d="m47.33,53.32c.02.25.03.49.06.88-.32-.35-.48-.58-.06-.88Z"/>
  <path class="cls-1" d="m80.21,51.66v-.75c.06,0,.11-.02.17-.03.04.14.11.27.11.41,0,.13-.06.26-.09.38l-.2-.02Z"/>
  <path class="cls-1" d="m83.34,52.02c-.31-.35-.35-.63.23-.87-.1.37-.16.62-.23.87Z"/>
  <path class="cls-1" d="m83.21,47.61c-.07-.15-.14-.3-.25-.53.19.02.41,0,.42.04.04.15,0,.31,0,.47l-.17.02Z"/>
  <path class="cls-1" d="m82.07,50.98v.58q-.25-.25,0-.58Z"/>
  <path class="cls-1" d="m85.89,47.8v.65q-.26-.32,0-.65Z"/>
  <path class="cls-1" d="m84.39,48.6c-.03-.17-.06-.35-.1-.52.07-.02.14-.03.21-.05.04.17.07.33.11.5-.07.02-.15.05-.22.07Z"/>
  <path class="cls-1" d="m43.85,55.44c-.05.65-.08,1.12-.11,1.6-.43-.74-.42-.9.11-1.6Z"/>
  <path class="cls-1" d="m43.79,53.42c.44.41.03.79.11,1.34-.43-.54-.48-.91-.11-1.34Z"/>
  <path class="cls-1" d="m45.39,57.02c.03-.4.07-.79.1-1.19.4.43.32.83.09,1.22-.06-.01-.13-.02-.19-.03Z"/>
  <path class="cls-1" d="m43.69,49.52v-1.2q.36.57,0,1.2Z"/>
  <path class="cls-1" d="m40.4,54.53c-.43-.32-.28-.57.07-.89.18.35.22.61-.07.89Z"/>
  <path class="cls-1" d="m41.63,55.38c-.03.49-.05.82-.08,1.2-.41-.47-.41-.55.08-1.2Z"/>
  <path class="cls-1" d="m46.98,52.81c.02-.29.04-.59.08-1.08q.3.63-.08,1.08Z"/>
  <path class="cls-1" d="m42.05,52.72c-.42-.28-.38-.53-.08-.81.02.23.05.46.08.81Z"/>
  <path class="cls-1" d="m42.46,53.33v.95c-.37-.39-.38-.62,0-.95Z"/>
  <path class="cls-1" d="m42.01,59.2v-.95q.24.55,0,.95Z"/>
  <path class="cls-1" d="m46.89,56.91c-.45-.25-.47-.49-.06-.87.03.39.04.63.06.87Z"/>
  <path class="cls-1" d="m45.84,51.93c.02.21.05.42.07.63-.08,0-.15.02-.23.02-.02-.21-.04-.42-.05-.63.07,0,.14-.02.22-.02Z"/>
  <path class="cls-1" d="m43.15,59.05c-.01-.19-.02-.38-.04-.61q.3.26.04.61Z"/>
  <path class="cls-1" d="m53.55,57.81v1.08c-.52-.46-.27-.78-.22-1.09.07,0,.15,0,.22,0Z"/>
  <path class="cls-1" d="m48.37,58.8c-.28-.25-.23-.5-.09-.79q.36.26.09.79Z"/>
  <path class="cls-1" d="m57.83,56.62v-.57c.07,0,.13,0,.2-.01.02.19.04.38.07.57-.09,0-.18.01-.26.02Z"/>
  <path class="cls-1" d="m56.72,56.1c-.03.17-.05.34-.09.59-.39-.28-.29-.46.09-.59Z"/>
  <path class="cls-1" d="m48.33,57.06c-.33-.65-.35-.86-.2-1.64.51.32.59.82.2,1.64Z"/>
  <path class="cls-1" d="m46.82,58.92c-.26-.68-.26-.76.12-1.27q.14.75-.12,1.27Z"/>
  <path class="cls-1" d="m49.99,56.75c-.47-.53-.27-.86-.06-1.23.47.4.06.76.06,1.23Z"/>
  <path class="cls-1" d="m45.59,58.93v-1.04c.37.35.36.68.22,1.04-.07,0-.14,0-.22,0Z"/>
  <path class="cls-1" d="m44.19,58.45c.35.26.38.52,0,.89v-.89Z"/>
  <path class="cls-1" d="m51.54,56.54v-.75c.06,0,.11-.02.17-.03.04.14.11.27.11.41,0,.13-.06.26-.09.38l-.2-.02Z"/>
  <path class="cls-1" d="m55.15,56.84c-.31-.35-.35-.63.23-.87-.1.37-.16.62-.23.87Z"/>
  <path class="cls-1" d="m53.6,56.15v.58q-.25-.25,0-.58Z"/>
  <path class="cls-1" d="m39.38,59.11c-.47-.53-.27-.86-.06-1.23.47.4.06.76.06,1.23Z"/>
  <path class="cls-1" d="m48.68,64.35c.24.51.35,1.03-.05,1.65-.31-.66-.09-1.15.05-1.65Z"/>
  <path class="cls-1" d="m51.95,64.04v1.44c-.44-.54-.46-.86,0-1.44Z"/>
  <path class="cls-1" d="m43.49,62.19c-.06.5-.13.99-.19,1.49-.23-.52-.27-1.03,0-1.51l.19.02Z"/>
  <path class="cls-1" d="m51.98,66.34c.02.09.06.17.06.26,0,.31-.03.61-.05,1.02-.39-.5-.25-.89-.22-1.28.07,0,.14,0,.22,0Z"/>
  <path class="cls-1" d="m47.19,63.79v-1.34q.39.5,0,1.34Z"/>
  <path class="cls-1" d="m57.6,63.02c-.06-.36-.11-.72-.18-1.18q.41.37.18,1.18Z"/>
  <path class="cls-1" d="m51.4,60.93c-.04-.3-.22-.62.26-.88-.02.3-.03.6-.05.9-.07,0-.14-.01-.22-.02Z"/>
  <path class="cls-1" d="m51.72,62.97c-.3-.49-.4-.83-.11-1.33.26.45.18.81.11,1.33Z"/>
  <path class="cls-1" d="m44.56,62.34l.12,1.16c-.37-.34-.37-.74-.12-1.16Z"/>
  <path class="cls-1" d="m57.5,59.72v.97c-.29-.31-.37-.63,0-.97Z"/>
  <path class="cls-1" d="m50.15,63.9c-.3-.42-.4-.77,0-1.14v1.14Z"/>
  <path class="cls-1" d="m48.57,61.71c-.04-.48-.08-.96-.11-1.43.37.46.31.96.11,1.43Z"/>
  <path class="cls-1" d="m39.48,60.16l-.08,1.1s-.07,0-.1,0v-1.1c.06,0,.12,0,.18,0Z"/>
  <path class="cls-1" d="m54.38,63.08q-.18-.63.08-1.07c.26.37.08.65-.08,1.07Z"/>
  <path class="cls-1" d="m46.06,60.42v.87c-.07,0-.14,0-.21,0-.01-.29-.03-.58-.04-.87h.25Z"/>
  <path class="cls-1" d="m57.74,64.18c-.04.42-.07.73-.11,1.13q-.38-.49.11-1.13Z"/>
  <path class="cls-1" d="m40.43,61.78c-.07.25-.14.5-.23.84q-.21-.55.23-.84Z"/>
  <path class="cls-1" d="m52.82,62.79v-.79q.3.3,0,.79Z"/>
  <path class="cls-1" d="m40.29,64.43c.05-.29.09-.59.14-.88.06.01.13.02.19.03-.05.3-.11.6-.16.91-.06-.02-.11-.04-.17-.05Z"/>
  <path class="cls-1" d="m55.21,66.24c-.08.23-.15.47-.26.78q-.21-.55.26-.78Z"/>
  <path class="cls-1" d="m43.36,64.23c-.01.23-.03.46-.04.69-.06,0-.12,0-.18,0v-.69c.07,0,.15,0,.22,0Z"/>
  <path class="cls-1" d="m52.65,60.09v.77q-.34-.33,0-.77Z"/>
  <path class="cls-1" d="m41.78,65.8c-.04.26-.07.51-.13.94-.32-.46-.18-.71.13-.94Z"/>
  <path class="cls-1" d="m48.65,67.5v-.86q.34.45,0,.86Z"/>
  <path class="cls-1" d="m40,66.28c-.02-.25-.05-.51-.07-.76.41.21.32.48.28.74-.07,0-.14.02-.21.02Z"/>
  <path class="cls-1" d="m47.38,66.33v1.17s-.08,0-.12,0v-1.18h.12Z"/>
  <path class="cls-1" d="m55.69,62.09c.62.19.43.49.22.79-.06-.23-.12-.45-.22-.79Z"/>
  <path class="cls-1" d="m45.75,65.04v-.74h.17c.02.25.03.5.05.75-.07,0-.15,0-.22,0Z"/>
  <path class="cls-1" d="m53.39,65.13c-.38-.26-.31-.55-.2-.91.41.24.42.52.2.91Z"/>
  <path class="cls-1" d="m45.85,66.9c-.01-.23-.03-.46-.05-.81.41.28.31.54.26.79-.07,0-.14.01-.21.02Z"/>
  <path class="cls-1" d="m43.08,65.79v1.17s-.05,0-.07,0v-1.17s.05,0,.07,0Z"/>
  <path class="cls-1" d="m48.28,63.52c.05-.24.1-.48.16-.75q.26.29-.16.75Z"/>
  <path class="cls-1" d="m43.17,61.64c-.05-.4-.11-.81-.16-1.21.05,0,.11-.02.16-.02.06.38.13.77.19,1.15-.06.03-.12.05-.18.08Z"/>
  <path class="cls-1" d="m39.36,63.13v.79q-.26-.36,0-.79Z"/>
  <path class="cls-1" d="m53.49,66.2c.02.27.04.54.06.9q-.36-.44-.25-.89c.06,0,.12,0,.18-.01Z"/>
  <path class="cls-1" d="m41.6,62.89c-.02-.21-.03-.41-.06-.8.4.36.41.56.06.8Z"/>
  <path class="cls-1" d="m47.33,60.28v1.06s-.09,0-.13,0v-1.04s.09-.01.13-.02Z"/>
  <path class="cls-1" d="m44.31,66.27v.68q-.29-.33,0-.68Z"/>
  <path class="cls-1" d="m41.75,61.21v-.88s.08,0,.11,0v.9s-.08,0-.11-.01Z"/>
  <path class="cls-1" d="m55.79,60.58c.04-.19.08-.37.12-.56.04,0,.08.01.12.02v.57c-.08,0-.16-.02-.23-.03Z"/>
  <path class="cls-1" d="m40.49,60.94c.04-.21.08-.41.12-.62.06.01.13.03.19.04-.05.2-.1.39-.15.59h-.17Z"/>
  <path class="cls-1" d="m54.05,59.95c.02.19.04.39.07.69-.42-.23-.39-.45-.07-.69Z"/>
  <path class="cls-1" d="m44.43,61.24v-.88s.09,0,.13,0c0,.16,0,.33,0,.49,0,.13-.03.26-.05.39-.03,0-.05,0-.08,0Z"/>
  <path class="cls-1" d="m50.14,60.3v.8c-.24-.32-.4-.52,0-.8Z"/>
  <path class="cls-1" d="m49.8,62.15l-.06-.5.17-.03c.03.18.07.36.1.55-.07,0-.15,0-.22-.01Z"/>
  <path class="cls-1" d="m44.59,64.49c-.03.18-.06.36-.08.54-.07-.01-.13-.03-.2-.04l.13-.53c.05.01.1.02.15.03Z"/>
  <path class="cls-1" d="m41.53,64.54v-.52c.05,0,.1,0,.16-.01.03.17.05.34.08.51-.08,0-.16.02-.24.02Z"/>
  <path class="cls-1" d="m57.65,67.01c.01-.15.03-.3.04-.45.07.02.15.03.22.05-.04.15-.08.29-.12.44-.05-.01-.1-.02-.15-.04Z"/>
  <path class="cls-1" d="m45.79,63.26c-.33-.26-.34-.44,0-.74v.74Z"/>
  <path class="cls-1" d="m56.61,66.6c-.06-.13-.13-.26-.19-.39.05-.03.1-.05.15-.08.06.13.13.26.19.39-.05.03-.1.05-.15.08Z"/>
  <path class="cls-1" d="m47.34,64.63c-.03.2-.05.4-.08.6-.07-.01-.14-.03-.2-.04.05-.19.1-.39.15-.58.04,0,.08.02.12.02Z"/>
  <path class="cls-1" d="m49.98,66.66l-.12.61s-.09-.02-.14-.03c.04-.2.09-.4.13-.61.04,0,.09.02.13.03Z"/>
  <path class="cls-1" d="m50.1,64.92c-.06.1-.1.16-.14.23-.07-.07-.15-.13-.19-.21-.01-.03.08-.14.14-.15.05,0,.11.08.18.13Z"/>
  <path class="cls-1" d="m54.76,64.91c-.07-.15-.15-.3-.22-.45.06-.03.11-.05.17-.08.07.15.13.3.2.46-.05.02-.1.04-.15.07Z"/>
  <path class="cls-1" d="m55.92,64.66c.02-.13.04-.26.06-.4.07.02.21.04.21.05-.01.12-.04.24-.07.37-.06,0-.13-.01-.19-.02Z"/>
  <path class="cls-1" d="m42.58,69.58l.14-1.21c.08.01.16.02.24.03-.06.4-.12.81-.18,1.21l-.2-.03Z"/>
  <path class="cls-1" d="m59.4,69.25c-.04-.3-.22-.62.26-.88-.02.3-.03.6-.05.9-.07,0-.14-.01-.22-.02Z"/>
  <path class="cls-1" d="m74.42,51.43v.97c-.29-.31-.37-.63,0-.97Z"/>
  <path class="cls-1" d="m44.25,67.97v1.79c-.3-.53-.31-.96,0-1.79Z"/>
  <path class="cls-1" d="m56.58,70.02c-.04-.48-.08-.96-.11-1.43.37.46.31.96.11,1.43Z"/>
  <path class="cls-1" d="m47.48,68.48l-.08,1.1s-.07,0-.1,0v-1.1c.06,0,.12,0,.18,0Z"/>
  <path class="cls-1" d="m54.07,68.73v.87c-.07,0-.14,0-.21,0-.01-.29-.03-.58-.04-.87h.25Z"/>
  <path class="cls-1" d="m69.58,51.79v.77q-.34-.33,0-.77Z"/>
  <path class="cls-1" d="m51.17,69.95c-.05-.4-.11-.81-.16-1.21.05,0,.11-.02.16-.02.06.38.13.77.19,1.15-.06.03-.12.05-.18.08Z"/>
  <path class="cls-1" d="m55.34,68.59v1.06s-.09,0-.13,0v-1.04s.09-.01.13-.02Z"/>
  <path class="cls-1" d="m49.76,69.53v-.88s.08,0,.11,0v.9s-.08,0-.11-.01Z"/>
  <path class="cls-1" d="m72.71,52.29c.04-.19.08-.37.12-.56.04,0,.08.01.12.02v.57c-.08,0-.16-.02-.23-.03Z"/>
  <path class="cls-1" d="m48.49,69.26c.04-.21.08-.41.12-.62.06.01.13.03.19.04-.05.2-.1.39-.15.59h-.17Z"/>
  <path class="cls-1" d="m70.97,51.66c.02.19.04.39.07.69-.42-.23-.39-.45-.07-.69Z"/>
  <path class="cls-1" d="m52.43,69.56v-.88s.09,0,.13,0c0,.16,0,.33,0,.49,0,.13-.03.26-.05.39-.03,0-.05,0-.08,0Z"/>
  <path class="cls-1" d="m58.15,68.62v.8c-.24-.32-.4-.52,0-.8Z"/>
  <path class="cls-1" d="m45.95,68.38c-.05.17-.1.34-.16.55-.23-.26-.26-.45.16-.55Z"/>
  <path class="cls-1" d="m50.77,70.72c.24.51.35,1.03-.05,1.65-.31-.66-.09-1.15.05-1.65Z"/>
  <path class="cls-1" d="m54.04,70.41v1.44c-.44-.54-.46-.86,0-1.44Z"/>
  <path class="cls-1" d="m54.07,72.71c.02.09.06.17.06.26,0,.31-.03.61-.05,1.02-.39-.5-.25-.89-.22-1.28.07,0,.14,0,.22,0Z"/>
  <path class="cls-1" d="m59.83,70.55c-.04.42-.07.73-.11,1.13q-.38-.49.11-1.13Z"/>
  <path class="cls-1" d="m42.24,71.69c.05-.29.09-.59.14-.88.06.01.13.02.19.03-.05.3-.11.6-.16.91-.06-.02-.11-.04-.17-.05Z"/>
  <path class="cls-1" d="m57.3,72.62c-.08.23-.15.47-.26.78q-.21-.55.26-.78Z"/>
  <path class="cls-1" d="m45.45,70.6c-.01.23-.03.46-.04.69-.06,0-.12,0-.18,0v-.69c.07,0,.15,0,.22,0Z"/>
  <path class="cls-1" d="m43.87,72.18c-.04.26-.07.51-.13.94-.32-.46-.18-.71.13-.94Z"/>
  <path class="cls-1" d="m50.73,73.88v-.86q.34.45,0,.86Z"/>
  <path class="cls-1" d="m42.08,72.65c-.02-.25-.05-.51-.07-.76.41.21.32.48.28.74-.07,0-.14.02-.21.02Z"/>
  <path class="cls-1" d="m49.13,72.15v1.17s-.08,0-.12,0v-1.18h.12Z"/>
  <path class="cls-1" d="m47.84,71.41v-.74h.17c.02.25.03.5.05.75-.07,0-.15,0-.22,0Z"/>
  <path class="cls-1" d="m55.48,71.5c-.38-.26-.31-.55-.2-.91.41.24.42.52.2.91Z"/>
  <path class="cls-1" d="m47.94,73.27c-.01-.23-.03-.46-.05-.81.41.28.31.54.26.79-.07,0-.14.01-.21.02Z"/>
  <path class="cls-1" d="m45.16,72.16v1.17s-.05,0-.07,0v-1.17s.05,0,.07,0Z"/>
  <path class="cls-1" d="m55.58,72.57c.02.27.04.54.06.9q-.36-.44-.25-.89c.06,0,.12,0,.18-.01Z"/>
  <path class="cls-1" d="m46.4,72.64v.68q-.29-.33,0-.68Z"/>
  <path class="cls-1" d="m46.68,70.86c-.03.18-.06.36-.08.54-.07-.01-.13-.03-.2-.04l.13-.53c.05.01.1.02.15.03Z"/>
  <path class="cls-1" d="m43.62,70.91v-.52c.05,0,.1,0,.16-.01.03.17.05.34.08.51-.08,0-.16.02-.24.02Z"/>
  <path class="cls-1" d="m59.73,73.38c.01-.15.03-.3.04-.45.07.02.15.03.22.05-.04.15-.08.29-.12.44-.05-.01-.1-.02-.15-.04Z"/>
  <path class="cls-1" d="m58.69,72.97c-.06-.13-.13-.26-.19-.39.05-.03.1-.05.15-.08.06.13.13.26.19.39-.05.03-.1.05-.15.08Z"/>
  <path class="cls-1" d="m49.43,71c-.03.2-.05.4-.08.6-.07-.01-.14-.03-.2-.04.05-.19.1-.39.15-.58.04,0,.08.02.12.02Z"/>
  <path class="cls-1" d="m52.1,72.74l-.12.61s-.09-.02-.14-.03c.04-.2.09-.4.13-.61.04,0,.09.02.13.03Z"/>
  <path class="cls-1" d="m52.19,71.3c-.06.1-.1.16-.14.23-.07-.07-.15-.13-.19-.21-.01-.03.08-.14.14-.15.05,0,.11.08.18.13Z"/>
  <path class="cls-1" d="m56.84,71.28c-.07-.15-.15-.3-.22-.45.06-.03.11-.05.17-.08.07.15.13.3.2.46-.05.02-.1.04-.15.07Z"/>
  <path class="cls-1" d="m58.01,71.03c.02-.13.04-.26.06-.4.07.02.21.04.21.05-.01.12-.04.24-.07.37-.06,0-.13-.01-.19-.02Z"/>
  <path class="cls-1" d="m59.68,57.85c-.03.17-.05.34-.09.59-.39-.28-.29-.46.09-.59Z"/>
  <path class="cls-1" d="m54.79,58.57v-.75c.06,0,.11-.02.17-.03.04.14.11.27.11.41,0,.13-.06.26-.09.38l-.2-.02Z"/>
  <path class="cls-1" d="m57.92,58.93c-.31-.35-.35-.63.23-.87-.1.37-.16.62-.23.87Z"/>
  <path class="cls-1" d="m56.65,57.89v.58q-.25-.25,0-.58Z"/>
  <path class="cls-1" d="m79.26,67.51c.1.5.21,1,.31,1.49.4-.45.35-.9-.31-1.49Z"/>
  <path class="cls-1" d="m77.96,57.27c-.19.46-.15.9-.01,1.44.43-.53.29-.99.01-1.44Z"/>
  <path class="cls-1" d="m78,70.04c.08.49.16.97.23,1.46.25-.54.2-1.04-.23-1.46Z"/>
  <path class="cls-1" d="m78.87,54.66c.05.59.09,1.18.14,1.77.07,0,.14-.02.21-.03-.12-.58-.23-1.16-.35-1.74,0,0,0,0,0,0Z"/>
  <path class="cls-1" d="m68.36,57.6c-.29.33-.19.58.05.86.22-.29.38-.54-.05-.86Z"/>
  <path class="cls-1" d="m77.55,68.75c.32-.35.42-.61.05-1.09-.02.44-.03.7-.05,1.09Z"/>
  <path class="cls-1" d="m66.93,58.33c.14-.26.31-.53-.15-.93-.02.38-.03.63-.04.89.06.01.12.02.19.04Z"/>
  <path class="cls-1" d="m78.75,72.47c0-.14,0-.28-.02-.42,0-.01-.14-.02-.14-.02-.03.14-.06.29-.08.43.08,0,.16,0,.24,0Z"/>
  <path class="cls-1" d="m74.83,55.01c.06.65.11,1.12.15,1.59.41-.75.4-.91-.15-1.59Z"/>
  <path class="cls-1" d="m73.32,56.63c-.04-.4-.09-.79-.13-1.19-.38.44-.3.84-.06,1.23.06-.01.12-.02.19-.04Z"/>
  <path class="cls-1" d="m77.04,54.9c.04.48.07.82.11,1.2.4-.48.4-.56-.11-1.2Z"/>
  <path class="cls-1" d="m76.76,58.72l-.02-.95q-.23.56.02.95Z"/>
  <path class="cls-1" d="m71.82,56.56c.44-.26.46-.5.04-.87-.02.39-.03.63-.04.87Z"/>
  <path class="cls-1" d="m75.61,58.6c0-.19.01-.38.02-.61q-.29.27-.02.61Z"/>
  <path class="cls-1" d="m65.18,57.62l.03,1.08c.51-.47.25-.78.19-1.1-.07,0-.15,0-.22.01Z"/>
  <path class="cls-1" d="m70.38,58.49c.27-.26.22-.51.07-.79q-.36.27-.07.79Z"/>
  <path class="cls-1" d="m60.87,56.54v-.57c-.08,0-.15,0-.21,0-.02.19-.03.38-.05.57.09,0,.18,0,.26,0Z"/>
  <path class="cls-1" d="m61.97,56c.03.17.06.34.11.58.38-.29.28-.46-.11-.58Z"/>
  <path class="cls-1" d="m70.38,56.75c.31-.66.33-.87.16-1.65-.5.33-.57.84-.16,1.65Z"/>
  <path class="cls-1" d="m71.94,58.56c.25-.69.24-.76-.15-1.26q-.12.75.15,1.26Z"/>
  <path class="cls-1" d="m68.71,56.48c.46-.54.24-.86.03-1.23-.46.41-.04.76-.03,1.23Z"/>
  <path class="cls-1" d="m73.17,58.55l-.03-1.04c-.36.36-.34.69-.19,1.04.07,0,.14,0,.22,0Z"/>
  <path class="cls-1" d="m74.56,58.03c-.34.27-.36.53.02.89l-.02-.89Z"/>
  <path class="cls-1" d="m67.16,56.31l-.02-.75c-.06,0-.11-.02-.17-.02-.04.14-.1.28-.1.41,0,.13.06.25.1.38l.2-.03Z"/>
  <path class="cls-1" d="m63.56,56.7c.3-.36.33-.64-.25-.86.11.37.18.62.25.86Z"/>
  <path class="cls-1" d="m65.1,55.96v.58q.26-.26,0-.58Z"/>
  <path class="cls-1" d="m79.38,58.57c.46-.54.24-.86.03-1.23-.46.41-.04.76-.03,1.23Z"/>
  <path class="cls-1" d="m70.21,64.04c-.23.52-.32,1.04.09,1.64.3-.66.06-1.15-.09-1.64Z"/>
  <path class="cls-1" d="m66.94,63.81l.04,1.44c.43-.55.44-.88-.04-1.44Z"/>
  <path class="cls-1" d="m75.35,61.75c.08.49.15.99.23,1.48.22-.53.24-1.04-.04-1.51l-.19.03Z"/>
  <path class="cls-1" d="m66.97,66.11c-.02.09-.06.17-.05.26.02.3.04.61.08,1.02.37-.51.23-.89.19-1.28-.07,0-.14,0-.22,0Z"/>
  <path class="cls-1" d="m71.7,63.44l-.03-1.34q-.38.51.03,1.34Z"/>
  <path class="cls-1" d="m60.77,62.94c.05-.36.09-.72.15-1.18q-.4.38-.15,1.18Z"/>
  <path class="cls-1" d="m67.41,60.69c.03-.3.2-.62-.28-.87.02.3.05.6.07.9.07,0,.14-.02.21-.03Z"/>
  <path class="cls-1" d="m67.15,62.74c.29-.5.38-.84.08-1.33-.24.45-.15.81-.08,1.33Z"/>
  <path class="cls-1" d="m74.29,61.92l-.1,1.16c.36-.35.36-.75.1-1.16Z"/>
  <path class="cls-1" d="m60.85,59.64l.02.97c.29-.32.36-.64-.02-.97Z"/>
  <path class="cls-1" d="m68.74,63.63c.29-.43.38-.78-.03-1.14l.03,1.14Z"/>
  <path class="cls-1" d="m70.26,61.4c.03-.48.05-.96.08-1.44-.35.47-.28.97-.08,1.44Z"/>
  <path class="cls-1" d="m79.31,59.62l.1,1.1s.07,0,.1,0l-.03-1.1c-.06,0-.12,0-.18.01Z"/>
  <path class="cls-1" d="m64.49,62.91q.16-.63-.11-1.07c-.25.38-.07.65.11,1.07Z"/>
  <path class="cls-1" d="m72.73,60.05l.02.87c.07,0,.14,0,.21,0,0-.29.01-.58.02-.87h-.25Z"/>
  <path class="cls-1" d="m60.85,64.1c.05.42.09.72.14,1.13q.36-.5-.14-1.13Z"/>
  <path class="cls-1" d="m78.4,61.27c.08.25.15.5.25.83q.19-.55-.25-.83Z"/>
  <path class="cls-1" d="m66.05,62.59l-.02-.79q-.3.31.02.79Z"/>
  <path class="cls-1" d="m78.61,63.91c-.05-.29-.11-.59-.16-.88-.06.01-.13.02-.19.04.06.3.12.6.18.9.05-.02.11-.04.16-.06Z"/>
  <path class="cls-1" d="m63.74,66.1c.08.23.17.46.28.77q.2-.55-.28-.77Z"/>
  <path class="cls-1" d="m75.53,63.79c.02.23.04.46.06.69.06,0,.12,0,.18,0l-.02-.69c-.07,0-.15,0-.22,0Z"/>
  <path class="cls-1" d="m66.14,59.88l.02.77q.33-.34-.02-.77Z"/>
  <path class="cls-1" d="m77.15,65.32c.04.26.09.51.16.94.31-.47.17-.71-.16-.94Z"/>
  <path class="cls-1" d="m70.33,67.19l-.02-.86q-.32.46.02.86Z"/>
  <path class="cls-1" d="m78.95,65.75c.02-.25.03-.51.05-.76-.41.22-.31.48-.26.75.07,0,.14.01.21.02Z"/>
  <path class="cls-1" d="m71.56,65.99l.03,1.17s.08,0,.12,0l-.03-1.18h-.12Z"/>
  <path class="cls-1" d="m62.6,61.96c-.62.2-.42.5-.2.79.06-.23.11-.46.2-.79Z"/>
  <path class="cls-1" d="m73.17,64.66l-.02-.74h-.17c-.01.25-.02.5-.03.76.07,0,.15,0,.22-.01Z"/>
  <path class="cls-1" d="m65.53,64.94c.38-.27.29-.56.18-.91-.4.25-.41.53-.18.91Z"/>
  <path class="cls-1" d="m73.11,66.52c0-.23.02-.46.03-.81-.4.29-.29.54-.24.79.07,0,.14.01.21.02Z"/>
  <path class="cls-1" d="m75.86,65.34l.03,1.17s.05,0,.07,0l-.03-1.17s-.05,0-.07,0Z"/>
  <path class="cls-1" d="m70.6,63.2c-.06-.24-.12-.48-.18-.75q-.25.3.18.75Z"/>
  <path class="cls-1" d="m75.66,61.19c.04-.41.09-.81.13-1.22-.05,0-.11-.01-.16-.02-.05.39-.11.77-.16,1.16.06.03.12.05.18.08Z"/>
  <path class="cls-1" d="m79.5,62.59l.02.79q.25-.36-.02-.79Z"/>
  <path class="cls-1" d="m65.46,66.01c-.01.27-.02.54-.04.9q.34-.45.22-.9c-.06,0-.12,0-.18,0Z"/>
  <path class="cls-1" d="m77.26,62.4c.01-.21.02-.41.04-.8-.39.37-.39.57-.04.8Z"/>
  <path class="cls-1" d="m71.46,59.94l.03,1.06s.09,0,.13,0l-.03-1.04s-.09,0-.13-.01Z"/>
  <path class="cls-1" d="m74.64,65.85l.02.68q.28-.34-.02-.68Z"/>
  <path class="cls-1" d="m77.06,60.73l-.02-.88s-.08,0-.11,0l.02.9s.08-.01.11-.02Z"/>
  <path class="cls-1" d="m63.02,60.46c-.04-.18-.09-.37-.13-.55-.04,0-.08.01-.12.02v.57c.09-.01.17-.02.25-.03Z"/>
  <path class="cls-1" d="m78.32,60.43c-.05-.2-.09-.41-.14-.61-.06.01-.13.03-.19.04.05.2.11.39.16.59l.16-.02Z"/>
  <path class="cls-1" d="m64.74,59.78c-.01.19-.03.39-.05.69.42-.24.38-.46.05-.69Z"/>
  <path class="cls-1" d="m74.39,60.83l-.02-.88s-.09,0-.13,0c0,.16,0,.33.01.49.01.13.04.26.06.39.03,0,.05,0,.08,0Z"/>
  <path class="cls-1" d="m68.65,60.03l.02.8c.23-.33.39-.53-.02-.8Z"/>
  <path class="cls-1" d="m69.05,61.87l.04-.51-.17-.03c-.03.18-.06.37-.09.55.07,0,.15-.01.22-.02Z"/>
  <path class="cls-1" d="m74.31,64.08c.03.18.07.36.1.53.07-.01.13-.03.2-.04l-.14-.53c-.05.01-.1.02-.15.03Z"/>
  <path class="cls-1" d="m77.37,64.05v-.52c-.07,0-.12,0-.17,0-.02.17-.04.34-.07.51.08,0,.16.01.24.02Z"/>
  <path class="cls-1" d="m61.32,66.93c-.02-.15-.03-.3-.05-.45-.07.02-.15.04-.22.05.04.14.09.29.13.43.05-.01.1-.03.14-.04Z"/>
  <path class="cls-1" d="m73.08,62.88c.32-.27.32-.45-.02-.73l.02.73Z"/>
  <path class="cls-1" d="m62.32,66.96c.06-.13.12-.26.18-.4-.05-.02-.1-.05-.15-.07-.06.13-.12.26-.18.4.05.02.1.05.15.07Z"/>
  <path class="cls-1" d="m71.56,64.29c.03.2.06.4.09.6.07-.02.13-.03.2-.05-.06-.19-.11-.39-.17-.58-.04,0-.08.02-.12.03Z"/>
  <path class="cls-1" d="m68.98,66.38l.14.61s.09-.02.14-.03c-.05-.2-.1-.4-.15-.6-.04.01-.09.02-.13.03Z"/>
  <path class="cls-1" d="m68.81,64.65c.06.09.1.16.14.23.06-.07.14-.13.18-.22.01-.03-.09-.14-.14-.15-.05,0-.11.08-.18.14Z"/>
  <path class="cls-1" d="m64.16,64.76c.07-.15.14-.3.21-.45-.06-.02-.11-.05-.17-.07-.06.15-.12.31-.19.46.05.02.1.04.15.06Z"/>
  <path class="cls-1" d="m62.99,64.53c-.02-.13-.04-.26-.07-.39-.07.02-.2.04-.2.05.02.12.05.24.08.37.06,0,.13-.02.19-.02Z"/>
  <path class="cls-1" d="m76.45,69.12l-.17-1.21c-.08.01-.16.03-.24.04.07.4.14.8.21,1.2l.2-.03Z"/>
  <path class="cls-1" d="m74.74,67.54l.05,1.79c.28-.54.28-.97-.05-1.79Z"/>
  <path class="cls-1" d="m62.47,69.91c.03-.48.05-.96.08-1.44-.35.47-.28.97-.08,1.44Z"/>
  <path class="cls-1" d="m71.52,68.14l.1,1.1s.07,0,.1,0l-.03-1.1c-.06,0-.12,0-.18.01Z"/>
  <path class="cls-1" d="m64.94,68.56l.02.87c.07,0,.14,0,.21,0,0-.29.01-.58.02-.87h-.25Z"/>
  <path class="cls-1" d="m67.87,69.71c.04-.41.09-.81.13-1.22-.05,0-.11-.01-.16-.02-.05.39-.11.77-.16,1.16.06.03.12.05.18.08Z"/>
  <path class="cls-1" d="m63.67,68.45l.03,1.06s.09,0,.13,0l-.03-1.04s-.09,0-.13-.01Z"/>
  <path class="cls-1" d="m69.27,69.25l-.02-.88s-.08,0-.11,0l.02.9s.08-.01.11-.02Z"/>
  <path class="cls-1" d="m70.53,68.94c-.05-.2-.09-.41-.14-.61-.06.01-.13.03-.19.04.05.2.11.39.16.59l.16-.02Z"/>
  <path class="cls-1" d="m66.6,69.34l-.02-.88s-.09,0-.13,0c0,.16,0,.33.01.49.01.13.04.26.06.39.03,0,.05,0,.08,0Z"/>
  <path class="cls-1" d="m60.86,68.55l.02.8c.23-.33.39-.53-.02-.8Z"/>
  <path class="cls-1" d="m73.05,68c.06.17.11.34.18.54.22-.26.25-.46-.18-.54Z"/>
  <path class="cls-1" d="m68.29,70.46c-.23.52-.32,1.04.09,1.64.3-.66.06-1.15-.09-1.64Z"/>
  <path class="cls-1" d="m65.01,70.24l.04,1.44c.43-.55.44-.88-.04-1.44Z"/>
  <path class="cls-1" d="m65.05,72.54c-.02.09-.06.17-.05.26.02.3.04.61.08,1.02.37-.51.23-.89.19-1.28-.07,0-.14,0-.22,0Z"/>
  <path class="cls-1" d="m76.84,71.21c-.05-.29-.11-.59-.16-.88-.06.01-.13.02-.19.04.06.3.12.6.18.9.05-.02.11-.04.16-.06Z"/>
  <path class="cls-1" d="m61.81,72.52c.08.23.17.46.28.77q.2-.55-.28-.77Z"/>
  <path class="cls-1" d="m73.61,70.21c.02.23.04.46.06.69.06,0,.12,0,.18,0l-.02-.69c-.07,0-.15,0-.22,0Z"/>
  <path class="cls-1" d="m75.23,71.74c.04.26.09.51.16.94.31-.47.17-.71-.16-.94Z"/>
  <path class="cls-1" d="m76.91,72.5c.02-.25.03-.51.05-.76-.41.22-.31.48-.26.75.07,0,.14.01.21.02Z"/>
  <path class="cls-1" d="m69.96,72.18l.03,1.17s.08,0,.12,0l-.03-1.18h-.12Z"/>
  <path class="cls-1" d="m71.24,71.08l-.02-.74h-.17c-.01.25-.02.5-.03.76.07,0,.15,0,.22-.01Z"/>
  <path class="cls-1" d="m63.6,71.36c.38-.27.29-.56.18-.91-.4.25-.41.53-.18.91Z"/>
  <path class="cls-1" d="m71.19,72.94c0-.23.02-.46.03-.81-.4.29-.29.54-.24.79.07,0,.14.01.21.02Z"/>
  <path class="cls-1" d="m73.93,71.76l.03,1.17s.05,0,.07,0l-.03-1.17s-.05,0-.07,0Z"/>
  <path class="cls-1" d="m63.53,72.44c-.01.27-.02.54-.04.9q.34-.45.22-.9c-.06,0-.12,0-.18,0Z"/>
  <path class="cls-1" d="m72.71,72.28l.02.68q.28-.34-.02-.68Z"/>
  <path class="cls-1" d="m72.39,70.5c.03.18.07.36.1.53.07-.01.13-.03.2-.04l-.14-.53c-.05.01-.1.02-.15.03Z"/>
  <path class="cls-1" d="m75.44,70.47v-.52c-.07,0-.12,0-.17,0-.02.17-.04.34-.07.51.08,0,.16.01.24.02Z"/>
  <path class="cls-1" d="m60.96,73.05c.06-.13.12-.26.18-.4-.05-.02-.1-.05-.15-.07-.06.13-.12.26-.18.4.05.02.1.05.15.07Z"/>
  <path class="cls-1" d="m69.64,70.71c.03.2.06.4.09.6.07-.02.13-.03.2-.05-.06-.19-.11-.39-.17-.58-.04,0-.08.02-.12.03Z"/>
  <path class="cls-1" d="m67.01,72.52l.14.61s.09-.02.14-.03c-.05-.2-.1-.4-.15-.6-.04.01-.09.02-.13.03Z"/>
  <path class="cls-1" d="m66.89,71.07c.06.09.1.16.14.23.06-.07.14-.13.18-.22.01-.03-.09-.14-.14-.15-.05,0-.11.08-.18.14Z"/>
  <path class="cls-1" d="m62.23,71.18c.07-.15.14-.3.21-.45-.06-.02-.11-.05-.17-.07-.06.15-.12.31-.19.46.05.02.1.04.15.06Z"/>
  <path class="cls-1" d="m61.06,70.95c-.02-.13-.04-.26-.07-.39-.07.02-.2.04-.2.05.02.12.05.24.08.37.06,0,.13-.02.19-.02Z"/>
  <path class="cls-1" d="m63.96,58.42l-.02-.75c-.06,0-.11-.02-.17-.02-.04.14-.1.28-.1.41,0,.13.06.25.1.38l.2-.03Z"/>
  <path class="cls-1" d="m60.84,58.86c.3-.36.33-.64-.25-.86.11.37.18.62.25.86Z"/>
  <path class="cls-1" d="m62.09,57.79v.58q.26-.26,0-.58Z"/>
  <path class="cls-1" d="m71.73,75.12c-.19.46-.15.9-.01,1.44.43-.53.29-.99.01-1.44Z"/>
  <path class="cls-1" d="m74.63,77.4c.05.59.09,1.18.14,1.77.07,0,.14-.02.21-.03-.12-.58-.23-1.16-.35-1.74,0,0,0,0,0,0Z"/>
  <path class="cls-1" d="m68.59,72.87c.06.65.11,1.12.15,1.59.41-.75.4-.91-.15-1.59Z"/>
  <path class="cls-1" d="m74.56,75.23c.04.48.07.82.11,1.2.4-.48.4-.56-.11-1.2Z"/>
  <path class="cls-1" d="m70.52,76.58l-.02-.95q-.23.56.02.95Z"/>
  <path class="cls-1" d="m69.37,76.46c0-.19.01-.38.02-.61q-.29.27-.02.61Z"/>
  <path class="cls-1" d="m73.14,76.43c.46-.54.24-.86.03-1.23-.46.41-.04.76-.03,1.23Z"/>
  <path class="cls-1" d="m69.12,79.61c.08.49.15.99.23,1.48.22-.53.24-1.04-.04-1.51l-.19.03Z"/>
  <path class="cls-1" d="m73.08,77.48l.1,1.1s.07,0,.1,0l-.03-1.1c-.06,0-.12,0-.18.01Z"/>
  <path class="cls-1" d="m72.17,79.12c.08.25.15.5.25.83q.19-.55-.25-.83Z"/>
  <path class="cls-1" d="m69.43,79.05c.04-.41.09-.81.13-1.22-.05,0-.11-.01-.16-.02-.05.39-.11.77-.16,1.16.06.03.12.05.18.08Z"/>
  <path class="cls-1" d="m71.02,80.26c.01-.21.02-.41.04-.8-.39.37-.39.57-.04.8Z"/>
  <path class="cls-1" d="m70.83,78.59l-.02-.88s-.08,0-.11,0l.02.9s.08-.01.11-.02Z"/>
  <path class="cls-1" d="m72.09,78.28c-.05-.2-.09-.41-.14-.61-.06.01-.13.03-.19.04.05.2.11.39.16.59l.16-.02Z"/>
  <path class="cls-1" d="m72.85,73.59c.04.26.09.51.16.94.31-.47.17-.71-.16-.94Z"/>
  <path class="cls-1" d="m74.64,74.02c.02-.25.03-.51.05-.76-.41.22-.31.48-.26.75.07,0,.14.01.21.02Z"/>
  <path class="cls-1" d="m71.55,73.61l.03,1.17s.05,0,.07,0l-.03-1.17s-.05,0-.07,0Z"/>
  <path class="cls-1" d="m70.33,74.12l.02.68q.28-.34-.02-.68Z"/>
  <path class="cls-1" d="m77.19,52.94c.04.26.09.51.16.94.31-.47.17-.71-.16-.94Z"/>
  <path class="cls-1" d="m78.98,53.37c.02-.25.03-.51.05-.76-.41.22-.31.48-.26.75.07,0,.14.01.21.02Z"/>
  <path class="cls-1" d="m73.14,54.13c0-.23.02-.46.03-.81-.4.29-.29.54-.24.79.07,0,.14.01.21.02Z"/>
  <path class="cls-1" d="m75.89,52.96l.03,1.17s.05,0,.07,0l-.03-1.17s-.05,0-.07,0Z"/>
  <path class="cls-1" d="m74.67,53.47l.02.68q.28-.34-.02-.68Z"/>
  <path class="cls-1" d="m75.68,52.32c-.16-.25-.25-.32-.24-.39.02-.16.09-.32.24-.47v.86Z"/>
  <path class="cls-1" d="m77.62,51.21v1.01c-.47-.36-.37-.67,0-1.01Z"/>
  <path class="cls-1" d="m78.93,51.12c.35.26.38.52,0,.89v-.89Z"/>
  <path class="cls-1" d="m84.77,52.88c-.03.49-.05.82-.08,1.2-.41-.47-.41-.55.08-1.2Z"/>
  <path class="cls-1" d="m83.28,54.59c.08.49.15.99.23,1.48.22-.53.24-1.04-.04-1.51l-.19.03Z"/>
  <path class="cls-1" d="m80.81,67.13l-.1,1.16c.36-.35.36-.75.1-1.16Z"/>
  <path class="cls-1" d="m86.19,51.05l.1,1.1s.07,0,.1,0l-.03-1.1c-.06,0-.12,0-.18.01Z"/>
  <path class="cls-1" d="m81.89,54.98l.02.87c.07,0,.14,0,.21,0,0-.29.01-.58.02-.87h-.25Z"/>
  <path class="cls-1" d="m85.89,53c.08.25.15.5.25.83q.19-.55-.25-.83Z"/>
  <path class="cls-1" d="m81.39,74.64c-.05-.29-.11-.59-.16-.88-.06.01-.13.02-.19.04.06.3.12.6.18.9.05-.02.11-.04.16-.06Z"/>
  <path class="cls-1" d="m81.08,70.14c.02.23.04.46.06.69.06,0,.12,0,.18,0l-.02-.69c-.07,0-.15,0-.22,0Z"/>
  <path class="cls-1" d="m80.32,65.45l-.02-.74h-.17c-.01.25-.02.5-.03.76.07,0,.15,0,.22-.01Z"/>
  <path class="cls-1" d="m81.82,53.77c.04-.41.09-.81.13-1.22-.05,0-.11-.01-.16-.02-.05.39-.11.77-.16,1.16.06.03.12.05.18.08Z"/>
  <path class="cls-1" d="m81.14,75.63l.02.79q.25-.36-.02-.79Z"/>
  <path class="cls-1" d="m83.26,54c.01-.21.02-.41.04-.8-.39.37-.39.57-.04.8Z"/>
  <path class="cls-1" d="m81.46,77.68l-.02-.88s-.08,0-.11,0l.02.9s.08-.01.11-.02Z"/>
  <path class="cls-1" d="m85.54,50.13c-.05-.2-.09-.41-.14-.61-.06.01-.13.03-.19.04.05.2.11.39.16.59l.16-.02Z"/>
  <path class="cls-1" d="m81.47,79.26l-.02-.88s-.09,0-.13,0c0,.16,0,.33.01.49.01.13.04.26.06.39.03,0,.05,0,.08,0Z"/>
  <path class="cls-1" d="m81.34,64.72c.03.18.07.36.1.53.07-.01.13-.03.2-.04l-.14-.53c-.05.01-.1.02-.15.03Z"/>
  <path class="cls-1" d="m81.22,72.45v-.52c-.07,0-.12,0-.17,0-.02.17-.04.34-.07.51.08,0,.16.01.24.02Z"/>
  <path class="cls-1" d="m81.16,63.3c.32-.27.32-.45-.02-.73l.02.73Z"/>
  <path class="cls-1" d="m96.61,59.57c-.03.49-.05.82-.08,1.2-.41-.47-.41-.55.08-1.2Z"/>
  <path class="cls-1" d="m82.16,69.29c-.03-.19-.07-.38-.1-.57l.19-.04.15.56c-.08.02-.15.04-.23.05Z"/>
  <path class="cls-1" d="m94.88,67.29c.1.5.21,1,.31,1.49.4-.45.35-.9-.31-1.49Z"/>
  <path class="cls-1" d="m93.63,69.82c.08.49.16.97.23,1.46.25-.54.2-1.04-.23-1.46Z"/>
  <path class="cls-1" d="m93.18,68.54c.32-.35.42-.61.05-1.09-.02.44-.03.7-.05,1.09Z"/>
  <path class="cls-1" d="m85.84,63.83c-.23.52-.32,1.04.09,1.64.3-.66.06-1.15-.09-1.64Z"/>
  <path class="cls-1" d="m82.57,63.6l.04,1.44c.43-.55.44-.88-.04-1.44Z"/>
  <path class="cls-1" d="m90.98,61.54c.08.49.15.99.23,1.48.22-.53.24-1.04-.04-1.51l-.19.03Z"/>
  <path class="cls-1" d="m82.6,65.9c-.02.09-.06.17-.05.26.02.3.04.61.08,1.02.37-.51.23-.89.19-1.28-.07,0-.14,0-.22,0Z"/>
  <path class="cls-1" d="m87.32,63.23l-.03-1.34q-.38.51.03,1.34Z"/>
  <path class="cls-1" d="m82.51,60.91c.03-.3.2-.62-.28-.87.02.3.05.6.07.9.07,0,.14-.02.21-.03Z"/>
  <path class="cls-1" d="m82.77,62.52c.29-.5.38-.84.08-1.33-.24.45-.15.81-.08,1.33Z"/>
  <path class="cls-1" d="m89.92,61.71l-.1,1.16c.36-.35.36-.75.1-1.16Z"/>
  <path class="cls-1" d="m84.37,63.41c.29-.43.38-.78-.03-1.14l.03,1.14Z"/>
  <path class="cls-1" d="m85.89,61.18c.03-.48.05-.96.08-1.44-.35.47-.28.97-.08,1.44Z"/>
  <path class="cls-1" d="m94.94,59.41l.1,1.1s.07,0,.1,0l-.03-1.1c-.06,0-.12,0-.18.01Z"/>
  <path class="cls-1" d="m88.36,59.83l.02.87c.07,0,.14,0,.21,0,0-.29.01-.58.02-.87h-.25Z"/>
  <path class="cls-1" d="m94.03,61.05c.08.25.15.5.25.83q.19-.55-.25-.83Z"/>
  <path class="cls-1" d="m94.24,63.7c-.05-.29-.11-.59-.16-.88-.06.01-.13.02-.19.04.06.3.12.6.18.9.05-.02.11-.04.16-.06Z"/>
  <path class="cls-1" d="m91.16,63.58c.02.23.04.46.06.69.06,0,.12,0,.18,0l-.02-.69c-.07,0-.15,0-.22,0Z"/>
  <path class="cls-1" d="m92.78,65.11c.04.26.09.51.16.94.31-.47.17-.71-.16-.94Z"/>
  <path class="cls-1" d="m85.96,66.98l-.02-.86q-.32.46.02.86Z"/>
  <path class="cls-1" d="m94.58,65.54c.02-.25.03-.51.05-.76-.41.22-.31.48-.26.75.07,0,.14.01.21.02Z"/>
  <path class="cls-1" d="m87.19,65.78l.03,1.17s.08,0,.12,0l-.03-1.18h-.12Z"/>
  <path class="cls-1" d="m88.79,64.44l-.02-.74h-.17c-.01.25-.02.5-.03.76.07,0,.15,0,.22-.01Z"/>
  <path class="cls-1" d="m88.74,66.3c0-.23.02-.46.03-.81-.4.29-.29.54-.24.79.07,0,.14.01.21.02Z"/>
  <path class="cls-1" d="m91.48,65.13l.03,1.17s.05,0,.07,0l-.03-1.17s-.05,0-.07,0Z"/>
  <path class="cls-1" d="m86.23,62.99c-.06-.24-.12-.48-.18-.75q-.25.3.18.75Z"/>
  <path class="cls-1" d="m91.29,60.98c.04-.41.09-.81.13-1.22-.05,0-.11-.01-.16-.02-.05.39-.11.77-.16,1.16.06.03.12.05.18.08Z"/>
  <path class="cls-1" d="m95.13,62.37l.02.79q.25-.36-.02-.79Z"/>
  <path class="cls-1" d="m92.89,62.19c.01-.21.02-.41.04-.8-.39.37-.39.57-.04.8Z"/>
  <path class="cls-1" d="m87.09,59.72l.03,1.06s.09,0,.13,0l-.03-1.04s-.09,0-.13-.01Z"/>
  <path class="cls-1" d="m90.26,65.64l.02.68q.28-.34-.02-.68Z"/>
  <path class="cls-1" d="m92.69,60.52l-.02-.88s-.08,0-.11,0l.02.9s.08-.01.11-.02Z"/>
  <path class="cls-1" d="m93.95,60.21c-.05-.2-.09-.41-.14-.61-.06.01-.13.03-.19.04.05.2.11.39.16.59l.16-.02Z"/>
  <path class="cls-1" d="m90.02,60.61l-.02-.88s-.09,0-.13,0c0,.16,0,.33.01.49.01.13.04.26.06.39.03,0,.05,0,.08,0Z"/>
  <path class="cls-1" d="m84.28,59.82l.02.8c.23-.33.39-.53-.02-.8Z"/>
  <path class="cls-1" d="m84.68,61.66l.04-.51-.17-.03c-.03.18-.06.37-.09.55.07,0,.15-.01.22-.02Z"/>
  <path class="cls-1" d="m89.94,63.86c.03.18.07.36.1.53.07-.01.13-.03.2-.04l-.14-.53c-.05.01-.1.02-.15.03Z"/>
  <path class="cls-1" d="m93,63.83v-.52c-.07,0-.12,0-.17,0-.02.17-.04.34-.07.51.08,0,.16.01.24.02Z"/>
  <path class="cls-1" d="m88.71,62.67c.32-.27.32-.45-.02-.73l.02.73Z"/>
  <path class="cls-1" d="m87.19,64.08c.03.2.06.4.09.6.07-.02.13-.03.2-.05-.06-.19-.11-.39-.17-.58-.04,0-.08.02-.12.03Z"/>
  <path class="cls-1" d="m84.6,66.17l.14.61s.09-.02.14-.03c-.05-.2-.1-.4-.15-.6-.04.01-.09.02-.13.03Z"/>
  <path class="cls-1" d="m84.44,64.44c.06.09.1.16.14.23.06-.07.14-.13.18-.22.01-.03-.09-.14-.14-.15-.05,0-.11.08-.18.14Z"/>
  <path class="cls-1" d="m92.07,68.9l-.17-1.21c-.08.01-.16.03-.24.04.07.4.14.8.21,1.2l.2-.03Z"/>
  <path class="cls-1" d="m90.37,67.33l.05,1.79c.28-.54.28-.97-.05-1.79Z"/>
  <path class="cls-1" d="m87.15,67.92l.1,1.1s.07,0,.1,0l-.03-1.1c-.06,0-.12,0-.18.01Z"/>
  <path class="cls-1" d="m83.5,69.49c.04-.41.09-.81.13-1.22-.05,0-.11-.01-.16-.02-.05.39-.11.77-.16,1.16.06.03.12.05.18.08Z"/>
  <path class="cls-1" d="m84.9,69.03l-.02-.88s-.08,0-.11,0l.02.9s.08-.01.11-.02Z"/>
  <path class="cls-1" d="m86.16,68.73c-.05-.2-.09-.41-.14-.61-.06.01-.13.03-.19.04.05.2.11.39.16.59l.16-.02Z"/>
  <path class="cls-1" d="m88.68,67.79c.06.17.11.34.18.54.22-.26.25-.46-.18-.54Z"/>
  <path class="cls-1" d="m83.8,70.92c-.23.52-.32,1.04.09,1.64.3-.66.06-1.15-.09-1.64Z"/>
  <path class="cls-1" d="m92.35,71.68c-.05-.29-.11-.59-.16-.88-.06.01-.13.02-.19.04.06.3.12.6.18.9.05-.02.11-.04.16-.06Z"/>
  <path class="cls-1" d="m89.12,70.67c.02.23.04.46.06.69.06,0,.12,0,.18,0l-.02-.69c-.07,0-.15,0-.22,0Z"/>
  <path class="cls-1" d="m86.75,71.54l-.02-.74h-.17c-.01.25-.02.5-.03.76.07,0,.15,0,.22-.01Z"/>
  <path class="cls-1" d="m87.89,70.96c.03.18.07.36.1.53.07-.01.13-.03.2-.04l-.14-.53c-.05.01-.1.02-.15.03Z"/>
  <path class="cls-1" d="m91.04,71.32v-.52c-.07,0-.12,0-.17,0-.02.17-.04.34-.07.51.08,0,.16.01.24.02Z"/>
  <path class="cls-1" d="m85.14,71.17c.03.2.06.4.09.6.07-.02.13-.03.2-.05-.06-.19-.11-.39-.17-.58-.04,0-.08.02-.12.03Z"/>
  <path class="cls-1" d="m96.85,67.25l-.1,1.16c.36-.35.36-.75.1-1.16Z"/>
  <path class="cls-1" d="m82.42,71.34c.02.23.04.46.06.69.06,0,.12,0,.18,0l-.02-.69c-.07,0-.15,0-.22,0Z"/>
  <path class="cls-1" d="m95.95,65.23l-.02-.74h-.17c-.01.25-.02.5-.03.76.07,0,.15,0,.22-.01Z"/>
  <path class="cls-1" d="m96.97,64.51c.03.18.07.36.1.53.07-.01.13-.03.2-.04l-.14-.53c-.05.01-.1.02-.15.03Z"/>
  <path class="cls-1" d="m96.79,63.08c.32-.27.32-.45-.02-.73l.02.73Z"/>
  <path class="cls-1" d="m95.03,57.31c.04.49.08.98.12,1.47.29-.52.28-1.02-.12-1.47Z"/>
  <path class="cls-1" d="m85.32,56.99c-.27.5-.4,1.01-.03,1.65.35-.64.15-1.14.03-1.65Z"/>
  <path class="cls-1" d="m93.79,58.4c-.03-.3-.06-.59-.09-.89-.06,0-.13.01-.19.02.04.3.08.61.11.91.06-.01.11-.03.17-.04Z"/>
  <path class="cls-1" d="m90.64,57.15c0,.23,0,.46,0,.69.06,0,.12,0,.18,0l.04-.69c-.07,0-.14,0-.22,0Z"/>
  <path class="cls-1" d="m88.21,57.83l.04-.74-.17-.02c-.03.25-.06.5-.09.75.07,0,.15,0,.22,0Z"/>
  <path class="cls-1" d="m89.4,57.34c.02.18.04.36.06.54.07,0,.13-.02.2-.03l-.1-.53c-.05,0-.1.02-.15.02Z"/>
  <path class="cls-1" d="m92.45,57.55l.03-.52c-.05,0-.1-.01-.15-.02-.04.17-.07.34-.11.5.08.01.16.02.23.04Z"/>
  <path class="cls-1" d="m86.64,57.34c.01.2.03.4.04.6.07-.01.14-.02.21-.03-.04-.2-.08-.39-.12-.59-.04,0-.08.01-.13.02Z"/>
  <path class="cls-1" d="m83.76,57.57c0,.23,0,.46,0,.69.06,0,.12,0,.18,0l.04-.69c-.07,0-.14,0-.22,0Z"/>
  <path class="cls-1" d="m92.93,54.46c.05.49.1.98.15,1.47.28-.52.26-1.03-.15-1.47Z"/>
  <path class="cls-1" d="m86.11,54.58c-.26.51-.38,1.01,0,1.65.33-.64.13-1.14,0-1.65Z"/>
  <path class="cls-1" d="m94.6,55.83c-.04-.3-.07-.59-.11-.89-.06,0-.13.02-.19.02.04.3.09.61.13.91.06-.02.11-.03.17-.05Z"/>
  <path class="cls-1" d="m91.43,54.64c0,.23,0,.46.01.69.06,0,.12,0,.18,0l.02-.69c-.07,0-.15,0-.22,0Z"/>
  <path class="cls-1" d="m89.01,55.37l.03-.74h-.17c-.03.24-.05.49-.08.74.07,0,.15,0,.22,0Z"/>
  <path class="cls-1" d="m90.19,54.86c.02.18.04.36.07.54.07-.01.13-.02.2-.03l-.11-.53c-.05,0-.1.02-.15.03Z"/>
  <path class="cls-1" d="m87.43,54.91c.02.2.04.4.06.6.07-.01.14-.02.2-.03-.05-.2-.09-.39-.14-.59-.04,0-.08.01-.13.02Z"/>
  <path class="cls-1" d="m84.56,55.18c0,.23,0,.46.01.69.06,0,.12,0,.18,0l.02-.69c-.07,0-.15,0-.22,0Z"/>
  <path class="cls-1" d="m92.36,51.93c.22.41.25.82.06,1.29-.42-.46-.22-.88-.06-1.29Z"/>
  <path class="cls-1" d="m95.68,55.82c.03-.4.07-.79.1-1.19.4.43.32.83.09,1.22-.06-.01-.13-.02-.19-.03Z"/>
  <path class="cls-1" d="m95.16,53.34c.02-.29.04-.59.08-1.08q.3.63-.08,1.08Z"/>
  <path class="cls-1" d="m93.9,52.97v1.05c-.35-.42-.38-.66,0-1.05Z"/>
  <path class="cls-1" d="m90.41,52.49c.04.26.09.51.16.94.31-.47.17-.71-.16-.94Z"/>
  <path class="cls-1" d="m89.11,52.51l.03,1.17s.05,0,.07,0l-.03-1.17s-.05,0-.07,0Z"/>
  <path class="cls-1" d="m87.89,53.03l.02.68q.28-.34-.02-.68Z"/>
  <path class="cls-1" d="m98.95,53.55c-.05-.29-.11-.59-.16-.88-.06.01-.13.02-.19.04.06.3.12.6.18.9.05-.02.11-.04.16-.06Z"/>
  <path class="cls-1" d="m97.43,55.19c.22.41.25.82.06,1.29-.42-.46-.22-.88-.06-1.29Z"/>
  <path class="cls-1" d="m97.76,58.48c.03-.4.07-.79.1-1.19.4.43.32.83.09,1.22-.06-.01-.13-.02-.19-.03Z"/>
  <path class="cls-1" d="m97.52,61.11c.02-.29.04-.59.08-1.08q.3.63-.08,1.08Z"/>
  <path class="cls-1" d="m82.56,73.6v1.05c-.35-.42-.38-.66,0-1.05Z"/>
  <path class="cls-1" d="m96.69,58.07c.02-.25.03-.51.05-.76-.41.22-.31.48-.26.75.07,0,.14.01.21.02Z"/>
  <path class="cls-1" d="m83.79,74.25c-.05-.29-.11-.59-.16-.88-.06.01-.13.02-.19.04.06.3.12.6.18.9.05-.02.11-.04.16-.06Z"/>
  <path class="cls-1" d="m89.07,72.95l.08,1.05c-.43-.29-.38-.66-.29-1.02.07-.01.14-.02.21-.03Z"/>
  <path class="cls-1" d="m93.14,73.83c-.44-.25-.42-.5-.14-.8.04.23.08.46.14.8Z"/>
  <path class="cls-1" d="m90.34,73.85l-.07-.95q.28.53.07.95Z"/>
  <path class="cls-1" d="m91.79,73.73c-.03-.19-.05-.37-.08-.61q.32.24.08.61Z"/>
  <path class="cls-1" d="m84.8,73.05c-.16.47-.09.91.09,1.44.4-.56.21-1.01-.09-1.44Z"/>
  <path class="cls-1" d="m87.63,72.95c.08.48.13.81.19,1.19.37-.51.36-.59-.19-1.19Z"/>
  <path class="cls-1" d="m86.3,74.25c.42-.57.18-.88-.06-1.23-.43.45.02.76.06,1.23Z"/>
  <path class="cls-1" d="m94.22,72.87l.08.79q.22-.38-.08-.79Z"/>
  <path class="cls-1" d="m86.89,75.41v1.06c-.41-.32-.33-.68-.21-1.04.07,0,.14,0,.21-.01Z"/>
  <path class="cls-1" d="m90.88,76.58c-.42-.28-.38-.53-.08-.81.02.23.05.46.08.81Z"/>
  <path class="cls-1" d="m88.09,76.41v-.95q.24.55,0,.95Z"/>
  <path class="cls-1" d="m89.54,76.39c-.01-.19-.02-.38-.04-.61q.3.26.04.61Z"/>
  <path class="cls-1" d="m82.62,75.21c-.19.46-.15.9-.01,1.44.43-.53.29-.99.01-1.44Z"/>
  <path class="cls-1" d="m85.45,75.32c.04.48.07.82.11,1.2.4-.48.4-.56-.11-1.2Z"/>
  <path class="cls-1" d="m84.03,76.51c.46-.54.24-.86.03-1.23-.46.41-.04.76-.03,1.23Z"/>
  <path class="cls-1" d="m92.03,75.71l.02.79q.25-.36-.02-.79Z"/>
  <path class="cls-1" d="m84.94,77.62c.04.26.09.51.16.94.31-.47.17-.71-.16-.94Z"/>
  <path class="cls-1" d="m86.74,78.05c.02-.25.03-.51.05-.76-.41.22-.31.48-.26.75.07,0,.14.01.21.02Z"/>
  <path class="cls-1" d="m83.64,77.64l.03,1.17s.05,0,.07,0l-.03-1.17s-.05,0-.07,0Z"/>
  <path class="cls-1" d="m82.42,78.16l.02.68q.28-.34-.02-.68Z"/>
  <path class="cls-1" d="m88.11,77.75l-.02-.74h-.17c-.01.25-.02.5-.03.76.07,0,.15,0,.22-.01Z"/>
  <path class="cls-1" d="m90.08,77.6c-.03-.19-.05-.37-.08-.61q.32.24.08.61Z"/>
</svg>