<?xml version="1.0" encoding="UTF-8"?>
<svg xmlns="http://www.w3.org/2000/svg" viewBox="0 0 136.06 136.06">
  <defs>
    <style>
      .cls-1 {
        fill: #fff;
      }

      .cls-2 {
        fill: #0c3454;
      }

      .cls-3 {
        fill: #e0e1e3;
      }
    </style>
  </defs>
  <g id="Layer_3" data-name="Layer 3">
    <rect class="cls-3" x="0" width="136.06" height="136.06"/>
  </g>
  <g id="B_W" data-name="B&amp;amp;W">
    <path class="cls-2" d="m91.92,39.49c-.2-.48-.4-.96-.62-1.49.5,0,.59.48.92.6-.06.13-.18.27-.15.35.18.54.39,1.06.62,1.67-.03.08-.15.1-.27-.02-.24-.23-.45-.49-.7-.71-.21-.18-.45-.32-.68-.48-.02.03-.04.05-.06.08.44.48.88.96,1.37,1.5-.59.1-.82-.42-1.26-.45.1-.28-.11-.42-.23-.58-.17-.23-.37-.43-.54-.66-.08-.11-.12-.25-.2-.43.72.02,1.18.48,1.73.72.03-.03.06-.06.09-.09Z"/>
    <path class="cls-2" d="m93.29,38.16c-.09-.08-.18-.15-.32-.28-.08.7.34,1.27.31,1.93-.45-.08-.6-.49-.64-.76-.08-.59,0-1.2,0-1.8,0-.01.02-.03.05-.07.39.2.38.66.59.98Z"/>
    <path class="cls-2" d="m78.41,48.47c-.2,0-.31.07-.28.29.04.25.06.49.1.74.03.18,0,.33-.28.37-.13-.26-.27-.53-.41-.81.07.03.14.07.23.11v-1.89c.45.31.39.84.64,1.19Z"/>
    <path class="cls-2" d="m47.71,39.26c-.07-.17-.13-.33-.24-.6.25.22.28.4.23.61,0,0,.01-.01.01-.01Z"/>
    <g>
      <path class="cls-2" d="m63.91,77.59c-.1.15-.17.24-.25.37-.07-.1-.13-.19-.25-.37-.1.21-.17.34-.23.47-.09-.1-.18-.19-.33-.35-.02.18-.03.28-.05.42-.09-.13-.16-.22-.24-.34-.07.16-.13.27-.19.41-.09-.12-.16-.22-.22-.3-.18.17-.34.32-.53.51-.07-.21-.11-.34-.2-.58-.07.22-.1.33-.15.49-.05-.1-.08-.15-.11-.22-.04.13-.07.25-.12.41-.2-.17-.36-.31-.55-.47,0,.09.01.18,0,.26-.01.06-.05.13-.1.24-.09-.22-.16-.37-.26-.59-.04.14-.06.19-.08.25-.07-.04-.14-.08-.22-.12-.04.12-.07.2-.1.31-.11-.14-.19-.25-.33-.42-.04.23-.06.35-.09.47-.01.03-.07.05-.12.09-.06-.16-.11-.3-.15-.41-.5-.17-.33.32-.48.5-.11-.17-.19-.31-.32-.52-.09.22-.16.35-.22.49-.02-.06-.04-.06-.42-.06-.05-.07-.09-.15-.15-.26-.05.07-.09.1-.11.13,0,.04-.02.07-.02.08-.18-.08-.29-.19-.39-.17-.42.04-.83.12-1.24.19-1.03.16-2.07.3-3.09.51-.95.19-1.78.69-2.57,1.24-.1.07-.17.17-.24.26-.5.66-.79,1.43-.94,2.21-.16.91-.2,1.84-.21,2.77-.03,1.74.01,3.49.02,5.24v.1c0,.55,0,1.1.02,1.65.02.57.03,1.15.06,1.72,0,.08.05.16.07.24.04.19.1.38.11.57.03.69-.04,1.38.21,2.05.24.62.41,1.25.65,1.87.19.49.47.94.89,1.26.38.28.79.53,1.23.7.49.2,1.03.29,1.55.42.16-.23.38.23.52-.06.08.11.15.21.25.33.1-.12.17-.21.24-.3.05.12.1.24.19.43.06-.19.09-.3.13-.41.06.14.11.26.2.46.12-.27.21-.48.31-.7.2.26-.23.59.18.81.08-.16.15-.3.24-.47,0,.15-.06.29,0,.4.07.17.22.19.37.09.04-.16.07-.32.1-.47.08.17.09.33.13.49.05.16.18.17.3.03.04-.05.06-.12.09-.19.06.15.11.27.16.39.03,0,.06-.01.09-.02.03-.21.05-.42.08-.63.03,0,.05.01.08.01.1.21.19.42.29.66.2-.11.38-.21.55-.31.02.12.04.25.05.34.19.04.34.07.51.1.06-.1.12-.22.18-.34.08.14.13.25.19.36.06-.07.12-.14.18-.2.05.08.11.15.15.22.08-.05.14-.09.19-.12.04.13.11.15.24.19.69.21,1.4.22,2.11.26.33,0,.69.06,1-.04.22-.07.4-.14.64-.06.05-.15.09-.28.15-.43.09.16.16.27.28.47.08-.25.13-.4.2-.62.1.21.16.35.27.56.12-.27.22-.46.31-.66.05.14.01.25.01.36.01.14.19.24.24.14.16-.3.34.04.51-.07.02-.12.04-.26.06-.4.07.12.14.22.21.34.1-.16.18-.28.27-.41.16.16-.13.43.26.5.02-.25.04-.48.07-.74.2.2-.04.52.26.73.03-.19.06-.34.09-.48.02,0,.04,0,.06.01.04.14.08.29.11.39.2-.03.35-.05.49-.07.05-.11.1-.22.19-.44.03.24.05.36.07.49.32-.06.62-.11.74-.49.05.18.09.29.14.47.21-.18.38-.32.53-.45.02.1.06.23.1.4.38-.2-.07-.59.31-.79.05.26.1.5.15.73.03.01.07.02.1.03.13-.26.27-.51.4-.76.02,0,.04.02.06.02-.05.23-.1.46-.16.72.27-.07.47-.11.65-.15.13-.23-.09-.54.24-.79,0,.28-.01.49,0,.71,0,.05.11.13.17.14.04.01.1-.09.14-.15.03-.03.03-.07.05-.11.11.1.2.18.34.3.05-.16.09-.27.13-.37.03-.09.07-.18.11-.26.03.1-.01.18.01.25.02.1.09.19.15.28.06-.07.13-.13.18-.2.03-.04.01-.1.03-.15,0-.02.04-.02.06-.03.04.11.08.21.13.37.14-.3-.11-.59.16-.83.05.29.09.53.13.77.25-.05.44-.08.62-.12.1-.27.03-.58.27-.79.03.23.01.44,0,.66-.01.04.04.08.11.19.05-.18.07-.27.11-.38.03.17.07.21.22.3.02-.22.03-.42.05-.63.01,0,.03-.01.04-.01.06.2.12.39.17.59.04-.01.07-.01.1-.01.04-.11.07-.22.1-.33.04.05.08.09.14.17.06-.15.11-.27.19-.46.03.24.04.39.06.58.17-.03.31-.05.43-.07.07-.24.12-.43.18-.62.03.01.05.02.08.02-.01.18-.03.35-.04.51.32.17.24-.11.3-.21.07.05.14.1.24.17v-.31c0-.09.04-.17.08-.35.08.26.14.44.22.7.14-.18.21-.27.25-.33.06.04.12.09.2.16.08-.12.15-.22.18-.26.14.05.24.13.32.11.17-.05.32-.16.47-.24.13.01.28.04.42.02.33-.06.66-.14.98-.22.67-.18,1.33-.37,1.99-.54,1.03-.25,2.05-.53,2.99-1.04.84-.45,1.61-1.02,1.97-1.95.35-.89.61-1.81.79-2.76.13-.75.2-1.48.13-2.24-.06-.56.02-1.14.03-1.71.01-.59.02-1.19,0-1.78-.02-.93.15-1.85-.03-2.78-.08-.42-.04-.87-.04-1.3.01-.52.09-1.05.06-1.56-.04-.57-.17-1.13-.28-1.68-.18-.92-.7-1.66-1.36-2.26-.8-.73-1.84-1.02-2.92-1.1-.39-.03-.78-.03-1.17,0-.37.03-.79-.19-1.09.21-.06-.07-.11-.13-.13-.15h-.69c-.02.06-.04.14-.08.29-.11-.5-.46-.18-.68-.34-.01.15-.01.24-.01.32-.22-.14-.41-.27-.66-.44-.02.2-.04.32-.05.43-.11-.32-.36-.3-.6-.33-.03.1-.06.2-.1.32-.06-.17-.1-.31-.17-.52-.13.15-.2.23-.27.32-.09-.14,0-.38-.28-.34-.09.13-.18.28-.28.45-.14-.17.19-.39-.09-.5-.1.13-.19.26-.31.42-.11-.19-.18-.32-.25-.45l-.09.03c-.04.16-.07.32-.11.49h-.07c-.04-.18-.08-.35-.12-.52h-.09c-.07.18-.13.36-.23.62l-.13-.65c-.1.23-.16.35-.24.55-.06-.21-.09-.33-.12-.46-.03.01-.06.01-.08.01-.05.14-.1.28-.15.43-.11-.12-.13-.25-.17-.36-.03-.07-.11-.15-.17-.15-.05,0-.13.09-.15.15-.04.14-.04.28-.06.42-.04,0-.08,0-.12.01-.04-.2-.09-.4-.13-.58h-.32c-.02.22-.05.43-.07.63h-.11c-.03-.12-.09-.23-.1-.35-.03-.33-.02-.33-.42-.35-.01.23-.02.46-.03.71-.35-.15-.14-.51-.36-.77-.05.32-.08.55-.12.82-.29-.17-.25-.39-.19-.6.08-.29-.06-.36-.31-.35-.04.28-.08.53-.11.79h-.13c-.05-.26-.1-.53-.15-.79h-.11c-.03.2-.06.39-.09.59-.42-.11-.1-.54-.41-.75v.67c-.16.04-.3.07-.43.1-.11-.28-.21-.53-.35-.88-.08.34-.13.57-.19.8-.34-.19-.09-.44-.13-.69-.12,0-.24.03-.32.04-.14.24.08.57-.33.7-.01-.25-.02-.46-.04-.68-.19-.04-.34-.08-.33.2,0,.18.1.37-.11.55-.05-.09-.12-.17-.13-.25-.02-.09.03-.2,0-.29,0-.07-.1-.15-.16-.16-.05,0-.15.08-.17.14-.04.14-.04.29-.06.44h-.12c-.04-.18-.09-.36-.15-.61-.09.13-.14.2-.18.25-.08-.05-.15-.1-.26-.17-.04.21-.08.36-.11.51h-.08c-.04-.16-.08-.32-.13-.53-.23.21-.42.37-.65.57-.03-.15-.05-.27-.09-.39,0-.02-.05-.03-.12-.05-.05.09-.09.19-.14.29-.07-.1-.13-.18-.23-.31-.06.2-.11.34-.17.53-.09-.2-.15-.35-.25-.57-.11.21-.19.34-.28.5-.08-.15-.15-.29-.28-.51-.05.25-.07.39-.1.55-.06-.14-.12-.26-.2-.45Zm57.7,5.38v1.51c-.25.03-5.51.16-5.63.16-1.11.02-4.18-.15-4.75-.18-.88-.03-1.73.16-2.61.21-.65.04-3.91.06-4.33.07-.64.02-3.22.14-3.56.14-1.04.02-1.97.05-3,.25-.41.08-1.11.04-1.53.07-1.77.1-3.22.26-4.99.35-.65.03-2.69.07-2.69.07.05.78.2,1.68.21,2.47.02,1.17,0,2.36-.03,3.53-.04,1.56-.11,2.96-.11,4.53,0,1.16-.61,2.29-.92,3.37-.1.35-.15.72-.23,1.07-.17.75-.35,1.52-1.09,2.02-.6.41-1.1.98-1.74,1.33-.25.14-.5.29-.77.38-1.2.38-2.41.74-3.62,1.1-.18.06-.36.09-.54.11-.82.07-1.58.37-2.37.54-.7.15-1.43.21-2.14.32-.91.15-1.82.33-2.74.47-.6.09-1.2.09-1.8.17-.78.1-1.56.26-2.34.36-.72.1-1.44.17-2.16.22-1.01.06-2.02.15-3.03.13-1.2-.03-2.39-.14-3.58-.24-.86-.07-1.71-.2-2.56-.27-.78-.07-1.52-.3-2.25-.56-.45-.15-.9-.29-1.33-.48-.53-.24-1.07-.5-1.58-.8-.68-.4-1.34-.82-1.98-1.28-.42-.31-.8-.68-1.15-1.06-.34-.39-.63-.82-.94-1.24-.43-.59-.69-1.27-.93-1.95-.23-.68-.39-1.39-.6-2.08-.46-1.51-.65-3.05-.63-4.63.01-.59-.08-1.18-.09-1.76-.01-.81-.05-1.63.04-2.43.13-1.12.25-1.5.45-2.61.02-.13-1.63-.09-2.52-.09-.76,0-1.52-.03-2.27-.03-.66-.01-1.32.01-1.98-.01-.97-.02-1.94-.08-2.91-.09-.78,0-1.55.06-2.33.1-.7.03-1.41.06-2.11.1-.63.03-1.25.08-1.87.09-.5.01-1.01.02-1.51-.05-1.53-.22-3.08-.31-4.57-.77-1.06-.33-2.59-.22-3.69-.36-1.6-.04-5.72.31-6.33.19l.03-1.7c.42-.03,3.58-.08,4-.09.09,0,2.84.01,2.94.02.23.03.47.1.7.08.79-.05,1.54.17,2.3.3.86.13,1.72.33,2.58.47.5.08,1,.11,1.51.15.34.04.69.07,1.04.09.08,0,.16-.02.27-.04.03-.29.08-.57.09-.85.02-1.84.05-3.68.03-5.52-.02-.81-.15-1.61-.23-2.42-.21-2.16-.16-4.33-.17-6.5-.01-1.47.21-2.91.46-4.35.06-.33.05-.67.08-1,.01-.17.03-.33.05-.5.1-.53.16-1.06.31-1.58.18-.61.42-1.2.65-1.8.01-.03.07-.05.17-.11-.03.15-.05.26-.07.37-.35,1.33-.65,2.68-.82,4.05-.13.95,0,1.9-.02,2.86-.02,1.42.24,2.81.38,4.22.07.75.1,1.51.15,2.27.05.99.12,1.99.17,2.98.02.58.01,1.17.03,1.76.03.75.08,1.51.09,2.27.01.82-.02,1.65-.03,2.48-.01.43,0,.86,0,1.33h1.22c.03-.06.07-.1.07-.15-.01-.88-.05-1.77-.04-2.66,0-1.36-.04-2.72.14-4.08.12-.87.17-1.75.28-2.61.14-1.15.51-2.23.86-3.32.35-1.11.76-2.19,1.14-3.29.11-.32.22-.64.3-.97.27-1.1.79-2.11,1.16-3.17.36-1.07.74-2.13,1.07-3.21.17-.56.24-1.15.39-1.72.17-.69.38-1.36.54-2.05.12-.47.18-.96.26-1.44l.27-1.59c.05-.31.12-.63.13-.94.06-1.09.1-2.18.13-3.28.02-.48,0-.97.01-1.46,0-.07.02-.14.08-.22.2.25.17.56.2.84.11.93.21,1.87.28,2.81.03.43-.03.87-.03,1.31,0,1.15-.15,2.28-.37,3.41-.18.91-.31,1.83-.49,2.74-.21,1.1-.53,2.18-.94,3.23-.39.99-.8,1.96-1.24,2.92-.44.93-.83,1.88-1.18,2.84-.34.95-.6,1.92-.89,2.89-.15.46-.31.92-.34,1.42-.02.26-.16.51-.22.77-.16.62-.33,1.23-.45,1.86-.13.69-.25,1.39-.3,2.09-.06.91-.06,1.81-.06,2.72,0,.57.06,1.14.08,1.71.03.81.06,1.63.1,2.45.38.1,1.06.05,1.58-.13.03-.48.07-.96.09-1.44.03-.66.03-1.31.07-1.96.04-.69.1-1.38.17-2.07.1-.95.24-1.9.35-2.85.15-1.33.52-2.61.9-3.88.25-.82.57-1.62.9-2.42.59-1.45,1.33-2.84,2.2-4.15.65-.98,1.34-1.94,2.14-2.82.56-.62,1-1.35,1.53-2.01,1.01-1.27,1.86-2.64,2.65-4.06.59-1.08.99-2.25,1.31-3.44.3-1.09.36-2.22.49-3.34.04-.35.09-.7.12-1.05.02-.23,0-.46,0-.66-.66-.41-.86-.97-.75-1.66.21-1.3.18-2.58-.13-3.86-.18-.73-.28-1.49-.5-2.21-.16-.49-.46-.93-.72-1.38-.18-.31-.4-.59-.6-.88.39-.21.42-.2,2.4.95-.08-.54-.15-1.05-.23-1.58.52-.03.47.46.67.71-.06-.03-.13-.06-.24-.11.06.83.39,1.61.25,2.46-.58-.81-1.22-1.55-2.05-2.1.03.25.15.42.29.61.39.53.72,1.08.81,1.77.06.49.19.98.33,1.47.16.56.18,1.13.18,1.7,0,.26.05.53.08.79.04,0,.09,0,.13.01.02-.12.07-.23.07-.35-.02-.74-.05-1.48-.08-2.22-.01-.24-.02-.47-.01-.71,0-.07.09-.14.21-.29.22,1.28.3,2.47.17,3.66.04.01.08.03.12.04.06-.08.16-.17.16-.24-.07-.91.26-1.77.33-2.66.03-.38.19-.76.29-1.15.26.08.21.22.19.35-.17.93-.34,1.85-.51,2.78-.06.33-.07.65.04,1.1.09-.18.15-.25.17-.34.23-.96.45-1.93.68-2.89.04-.16.11-.32.2-.46.04-.08.14-.11.22-.16.03.06.06.09.05.12-.2.67-.42,1.34-.6,2.02-.13.49-.22.99-.31,1.48-.03.15-.02.33.26.27.35-1.24.43-2.58,1.07-3.74.02-.03.08-.03.13-.04-.31,1.26-.61,2.51-.93,3.8h.51c.66-2.16,1.32-4.29,2.71-6.21-.76.26-1.3.69-1.84,1.3-.07-.74.25-1.37.23-2.14-.3.39-.55.71-.78,1.03-.22.32-.43.66-.71.98-.25-.69-.17-1.41-.38-2.09-.25.68-.16,1.44-.53,2.11-.4-.23-.47-.61-.57-.98.11.15.23.3.38.49.32-.81.19-1.68.55-2.45.43.71.4,1.51.54,2.34.61-.64.95-1.43,1.64-2.01.19.77-.21,1.44-.17,2.2.67-.47,1.27-1,2.21-1.09-.21.29-.38.51-.53.74-.42.61-.8,1.24-1.04,1.95-.11.35-.31.67-.42,1.02-.31.96-.59,1.93-.91,2.89-.19.58-.39,1.15-.65,1.69-.33.7-.53.84-1.37,1.18-.02.15-.1.33-.08.5.08.65-.03,1.28-.15,1.91-.17.9-.36,1.81-.57,2.71-.36,1.53-.91,3-1.64,4.39-.05.09-.1.18-.16.26-.18.25-.4.48-.6.73-.27.37-.55.72-.82,1.09l-.09.12c-.67.93-1.33,1.86-2,2.79-.17.23-.39.42-.57.65-.41.53-.84,1.05-1.21,1.6-.52.77-1.04,1.54-1.48,2.35-.37.66-.65,1.37-.94,2.07-.32.78-.63,1.56-.92,2.35-.38,1.04-.7,2.12-.79,3.22-.07.81-.33,1.58-.39,2.39-.05.65-.16,1.31-.18,1.96-.05,1.47-.05,2.93-.07,4.4-.01.18,0,.36,0,.53.49.16,1.28.14,2.27-.04.04-.19.1-.4.1-.61-.01-1.34.29-2.64.5-3.95.18-1.15.4-2.28.48-3.45.09-1.32-.04-2.62-.2-3.93-.01-.1-.02-.2-.02-.3-.01-.08,0-.15.02-.29.31.24.31.55.36.84.22,1.33.29,2.67.2,4.03l-.18,3.27c-.06.98-.14,1.95-.18,2.93,0,.45.06.9.1,1.38.14.01.25.04.36.03.22-.01.31-.12.33-.36.12-1.06.25-2.13.38-3.2.09-.75.22-1.5.26-2.25.1-1.49.3-2.97.53-4.44.1-.6.09-1.21.15-1.82.08-.83.2-1.66.27-2.5.11-1.25.48-2.43.78-3.64.27-1.1.66-2.14,1.2-3.13.42-.75.79-1.52,1.2-2.27.05-.09.1-.16.16-.24.06-.07.12-.15.18-.22.04.02.08.04.12.07-.16.39-.31.79-.49,1.17-.61,1.26-1.17,2.53-1.55,3.88-.21.78-.46,1.55-.65,2.34-.14.53-.22,1.09-.29,1.64-.11.92-.2,1.84-.29,2.76-.03.32,0,.64-.03.96-.07.82-.14,1.65-.24,2.46-.13,1.05-.29,2.1-.42,3.15-.11.87-.2,1.74-.29,2.61-.08.83-.17,1.66-.25,2.5,0,.08.02.16.03.3.21-.02.4-.03.63-.04.03-.25.09-.46.09-.67-.02-1.32.26-2.61.47-3.9.22-1.37.72-2.63,1.18-3.91.37-1.03.8-2.04,1.18-3.06.35-.93.68-1.86.99-2.8.32-.96.61-1.92.87-2.89.15-.52.21-1.06.31-1.59.13-.66.28-1.31.4-1.97.06-.35.1-.7.11-1.05.04-.98-.02-1.95-.18-2.92-.04-.29,0-.6,0-1.01.09.15.16.21.18.28.2.88.32,1.76.33,2.66,0,.33.05.67.06,1.01.03,1.58-.14,3.14-.64,4.66-.38,1.15-.59,2.36-1.02,3.49-.52,1.36-.93,2.77-1.69,4.05-.43.71-.64,1.56-.91,2.35-.38,1.1-.68,2.22-.84,3.38-.16,1.11-.23,2.23-.23,3.36,0,.16.05.32.08.51h.57c.59,0,.61-.01.73-.6.18-.91.37-1.81.66-2.7.41-1.25.94-2.45,1.47-3.65.1-.23.19-.46.27-.7.3-.85.77-1.61,1.18-2.4.65-1.24,1.31-2.47,1.98-3.69.23-.43.5-.84.77-1.25.43-.68.82-1.41,1.33-2.03.99-1.2,1.44-2.66,1.98-4.06.39-1,.67-2.04.84-3.12.32-1.92.44-3.84.49-5.78.01-.26.06-.53.06-.8,0-1.03-.04-2.06-.02-3.09.02-.68.08-1.37.19-2.05.2-1.3.42-2.59.67-3.88.16-.78.39-1.54.6-2.3.18-.64.39-1.28.6-1.92.12-.37.22-.76.42-1.07.36-.54.25-1.09.17-1.64-.07-.45.01-.87.11-1.3.19-.78.34-1.58.53-2.36.2-.87.07-1.75.12-2.62.03-.52.08-1.04.13-1.54.23-.11.33-.05.39.17.15.55.32,1.09.49,1.64,0,.02.02.03.07.09.18-.35.35-.68.52-1.01.1-.2.2-.39.32-.57.07-.09.2-.14.36-.25v1.86c.38-.16.57-.52.85-.75.3-.24.55-.54.86-.85.17.63-.19,1.17-.25,1.78.34-.36.64-.69.95-1,.12-.12.26-.22.41-.28.11-.05.33-.06.35-.02.06.12.08.3.03.41-.12.28-.29.53-.43.8-.08.14-.14.29-.25.52.76-.19,1.41-.64,2.22-.19-.51.47-.94.89-1.44,1.22-.85.57-1.6,1.26-2.24,2.03-.36.43-.6.98-.81,1.51-.32.86-.9,1.45-1.74,1.79-.22.09-.49.07-.78.11-.31.65-.69,1.29-.86,2.05-.16.71-.37,1.41-.56,2.12-.06.24-.12.47-.17.71-.28,1.23-.58,2.46-.58,3.74,0,.43-.1.87-.18,1.3-.22,1.2-.22,2.4-.2,3.62.02.86-.08,1.72-.13,2.57-.02.42-.04.84-.05,1.25-.06,1.77-.17,3.54-.52,5.28-.2.93-.48,1.85-.73,2.78-.1.37-.22.74-.32,1.11-.25.92-.68,1.76-1.16,2.57-.07.12-.14.23-.21.35-.64,1.05-1.3,2.09-2,3.09-.48.67-1.06,1.26-1.56,1.92-.79,1.05-1.41,2.21-1.97,3.4-.51,1.07-.83,2.2-1.16,3.33-.28.94-.6,1.86-.86,2.8-.13.48-.18.99-.27,1.51.52.06,1,.11,1.46.16.23-.35.17-.71.16-1.03-.06-1.55.19-3.06.63-4.53.25-.84.69-1.58,1.17-2.33.58-.92,1.39-1.7,1.76-2.76.01-.04.07-.06.14-.12,0,.13.03.23,0,.31-.27.81-.61,1.61-1.12,2.3-.5.67-.87,1.42-1.16,2.18-.27.76-.44,1.56-.57,2.35-.17,1-.31,2-.23,3.02.01.13.03.27.05.4.03.22.16.32.36.36.22.05.31-.11.39-.25l1.59-2.58c.25-.4.5-.8.77-1.17.38-.5.93-.88,1.57-1.06.16-.04.32-.08.54-.14-.06-.43-.09-.84-.17-1.25-.18-1.03-.3-2.07-.26-3.12.05-1.14.28-2.26.58-3.37.15-.55.28-1.11.46-1.65.18-.56.4-1.1.61-1.65.02-.05.06-.09.1-.14.04-.04.1-.1.15-.16-.33,1.25-.73,2.43-.94,3.64-.21,1.22-.31,2.47-.26,3.72.06,1.24.01,2.48.39,3.68.34.14.6-.09.9-.09,0-.36-.01-.66,0-.95.02-1.18.05-2.36.09-3.54.03-.98.21-1.93.53-2.86.34-1,.61-2.03.93-3.04.38-1.22.79-2.43,1.16-3.65.24-.75.42-1.52.65-2.27.2-.7.46-1.37.63-2.07.27-1.06.52-2.13.59-3.22,0-.09.05-.17.16-.25.02.27.05.54.04.81-.01.64-.05,1.28-.07,1.92-.04,1.1-.31,2.16-.56,3.23-.16.7-.37,1.39-.64,2.06-.31.76-.5,1.57-.74,2.36-.28.9-.57,1.8-.84,2.7-.34,1.11-.55,2.25-.66,3.41-.08.85-.27,1.69-.23,2.56.04.78.03,1.57.05,2.35,0,.04.03.09.05.15.55-.06,1.09-.13,1.69-.2.02-.39.03-.76.06-1.12.06-1.06.08-2.12.21-3.17.15-1.32.38-2.63.59-3.94.19-1.2.36-2.4.61-3.58.33-1.64.69-3.27,1.12-4.88.37-1.4.41-2.82.51-4.25.07-1.02.14-2.05.16-3.07.02-.57-.06-1.14-.1-1.71-.03-.47-.08-.94-.1-1.41-.03-.83-.16-1.64-.39-2.44-.14-.47-.19-.95-.28-1.43-.05-.26-.1-.52-.16-.82.27.04.29.23.34.4.13.46.29.93.4,1.4.18.8.41,1.6.5,2.42.13,1.35.18,2.72.24,4.08.01.43-.09.87-.12,1.31-.04.7-.07,1.41-.1,2.12-.06,1.11-.2,2.21-.44,3.3-.23,1.02-.39,2.05-.57,3.08-.21,1.17-.43,2.35-.62,3.53-.25,1.53-.46,3.07-.72,4.59-.27,1.64-.14,3.29-.19,4.94,0,.14.04.29.07.47.32-.06.59-.11.93-.18v-1.21c.01-1.05,0-2.09.03-3.13.02-.79.07-1.57.14-2.36.03-.36.13-.72.22-1.08.11-.48.22-.95.35-1.42.22-.76.44-1.51.66-2.27.21-.76.43-1.52.65-2.27.28-.95.55-1.9.83-2.85.26-.9.51-1.81.8-2.71.41-1.25.57-2.55.69-3.86.13-1.53.13-3.07.09-4.6-.01-.37-.06-.74-.09-1.12-1.07-.27-1.49-1.12-1.81-2.02-.26-.71-.62-1.34-1.11-1.9-.24-.27-.45-.55-.67-.83-.38-.48-.78-.93-1.33-1.22-.07-.04-.09-.15-.17-.29.55.07,1.03.14,1.58.22-.37-.52-.7-.99-1.04-1.47.51-.09.92.14,1.96,1.1-.16-.7-.3-1.31-.45-1.93.04-.02.07-.04.11-.06.37.42.75.85,1.19,1.34.04-.68.07-1.24.1-1.82.29,0,.36.2.43.38.17.45.35.9.62,1.34.1-.35.17-.72.3-1.07s.33-.67.58-.98c0,.2.03.41,0,.62-.16,1.14-.09,2.28.13,3.42.09.46.2.92.32,1.37.04.16.11.32.19.46.32.6.35,1.26.37,1.91.02.39-.23.75-.54.99-.21.15-.27.31-.24.55.06.42.09.84.13,1.26.2,1.96.12,3.9-.31,5.83-.22.95-.34,1.92-.56,2.87-.24,1-.55,1.98-.83,2.97-.19.67-.37,1.33-.56,2-.12.4-.26.8-.38,1.2-.27.85-.54,1.7-.79,2.56-.14.48-.32.95-.27,1.47.01.13-.05.26-.08.39-.22.82-.29,1.66-.31,2.51-.02.66-.08,1.31-.06,1.97.03,1.16.1,2.32.16,3.48.01.05.03.09.05.15h.73c.05-.58.1-1.15.14-1.71.05-.55.07-1.11.14-1.66.12-1.08.25-2.17.42-3.25.1-.68.29-1.34.45-2.02.24-.96.46-1.93.73-2.88.26-.91.59-1.8.86-2.7.31-1.01.63-2.02.87-3.05.26-1.13.51-2.27.57-3.44.05-1.01.16-2.01.18-3.02.01-.72-.09-1.44-.15-2.16-.01-.15-.01-.31-.02-.46.04-.01.08-.01.12-.02.06.22.14.43.16.65.05.7.25,1.38.17,2.1-.04.44.07.9.04,1.35-.03.67-.1,1.34-.2,2.01-.18,1.25-.37,2.49-.61,3.74-.17.91-.4,1.8-.62,2.71-.27,1.14-.63,2.26-.77,3.44-.06.46-.24.9-.35,1.36-.3,1.3-.57,2.6-.65,3.93-.07,1.22-.15,2.45-.19,3.68-.02.43.05.87.09,1.33.34-.02.65-.04.97-.06.23-.01.3-.15.33-.36.13-1.07.36-2.12.76-3.12.25-.61.43-1.24.66-1.86.14-.39.34-.77.49-1.16.45-1.16.88-2.32,1.32-3.48.5-1.33.92-2.68,1.2-4.07.29-1.45.47-2.93.76-4.38.26-1.33.3-2.68.49-4.01.16-1.1.31-2.2.36-3.31.05-1.17-.03-2.34-.23-3.51-.19-1.06-.26-2.13-.44-3.2-.11-.67-.34-1.33-.5-2-.08-.32-.15-.64-.23-.97.04-.01.07-.02.1-.03.13.27.28.54.39.82.16.41.3.83.44,1.24.49,1.43.79,2.89.84,4.4.03.91.02,1.82,0,2.73,0,.89,0,1.78-.05,2.67-.04,1.02-.14,2.05-.19,3.07-.07,1.48-.19,2.96-.43,4.43-.1.62-.28,1.24-.44,1.86-.21.82-.39,1.64-.64,2.44-.29.93-.66,1.83-.98,2.75-.19.56-.4,1.11-.56,1.68-.39,1.39-.76,2.79-1.15,4.19-.26.9-.54,1.8-.82,2.71-.01.06-.02.12-.04.19h2.6c.05-.27.11-.47.13-.69.05-.53.08-1.07.11-1.61.05-1.3.26-2.58.52-3.85.21-1.01.44-2.01.7-3,.2-.77.48-1.51.67-2.28.47-1.98.94-3.96,1.34-5.96.38-1.87.6-3.76.5-5.68-.05-.74.01-1.48.03-2.23,0-.08.03-.17.05-.27.06.04.11.05.11.07.04.75.04,1.51.13,2.26.15,1.26-.05,2.52,0,3.77.05,1.16-.16,2.28-.31,3.42-.06.44-.19.87-.27,1.31-.09.47-.14.94-.25,1.39-.15.68-.34,1.34-.5,2.01-.24,1.1-.5,2.2-.7,3.31-.19,1.1-.33,2.23-.49,3.34-.17,1.23-.35,2.47-.52,3.7-.03.23-.03.47-.05.77.2,0,.39.01.59.01.22-.01.35-.12.44-.34.52-1.39,1.15-2.73,1.52-4.17.49-1.87.98-3.74,1.5-5.61.1-.36.09-.72.13-1.09.05-.52.18-1.03.24-1.54.14-1.28.27-2.55.4-3.82.05-.45.13-.9.16-1.35.04-.59.04-1.19.04-1.78,0-1.04.05-2.09-.03-3.12-.08-1.01-.3-2-.47-3-.14-.88-.3-1.76-.45-2.63-.13-.7-.22-1.4-.4-2.09-.28-1.14-.63-2.26-.93-3.4-.22-.83-.42-1.66-.46-2.53-.05-.82-.16-1.64-.25-2.46-.03-.32-.07-.64-.06-.96.01-.27-.11-.39-.33-.5-.59-.31-.88-1-.69-1.65.06-.2.14-.38.19-.58.05-.17.09-.36.09-.54.01-1.13-.25-2.23-.41-3.34-.08-.57-.17-1.13-.26-1.7-.04-.26-.1-.52-.16-.81.09-.14.22-.1.32.02.46.57.98,1.1,1.23,1.82,0,.02.05.04.1.09.22-.49.13-1.09.56-1.57.19.52.28.98.28,1.57.34-.56.41-1.21,1.07-1.51.03.65.05,1.22.08,1.79.52-.58.95-1.18,1.47-1.71.03.02.07.03.11.05-.07.52-.15,1.03-.23,1.63.67-.44,1.25-.86,2.02-.99,0,.26-.14.41-.28.54-.92.87-1.45,1.98-1.92,3.12-.17.42-.34.84-.5,1.26-.08.23-.29.44-.14.71-.19.43-.33.89-.58,1.28-.28.43-.66.82-1.25.81-.25.59-.09,1.16-.03,1.72.1.75.2,1.5.29,2.25.13,1.03.32,2.05.61,3.06.23.79.35,1.61.51,2.41.08.38.2.75.22,1.13.07,1.25.35,2.47.59,3.69.19.92.36,1.85.47,2.78.16,1.28.12,2.57.04,3.86-.02.25.02.51,0,.76-.04.48-.12.96-.16,1.45-.1,1.07-.18,2.14-.28,3.21-.08.87-.17,1.74-.26,2.61-.08.7-.14,1.4-.27,2.09-.16.79-.37,1.57-.58,2.35-.44,1.55-.89,3.11-1.35,4.66-.13.46-.31.92-.46,1.38-.06.18-.08.36-.13.57h1.14c.48-1.85.95-3.66,1.41-5.49.21-.84.17-1.7.23-2.56.05-.94.21-1.86.61-2.73-.06.32-.14.64-.16.96-.05.7-.07,1.4-.07,2.11-.02,1.08.21,2.17-.1,3.25-.19.66-.33,1.34-.52,2-.22.8-.36,1.6-.32,2.46.56.05,1.12.1,1.73.16.02-.2.05-.34.03-.48-.12-1.11-.27-2.21-.37-3.32-.06-.7-.04-1.41-.07-2.12-.05-1.66.23-3.29.44-4.93.06-.43.22-.85.3-1.28.12-.62.27-1.25.3-1.88.05-.89.02-1.79.02-2.68v-.75c.22-.04.26.08.28.22.06.54.16,1.07.19,1.61.03.48-.03.97-.01,1.45.06,1.39-.23,2.75-.35,4.12-.1,1.2-.23,2.4-.05,3.62.16,1.04.18,2.11.26,3.16.07.95.15,1.89.22,2.83.01.14,0,.29,0,.5.67.11,1.34.2,2.05.2,0-.88-.01-1.7.01-2.52.02-1.84-.35-3.65-.59-5.46-.13-1.02-.39-2.02-.52-3.04-.15-1.09-.24-2.18-.31-3.27-.06-.99-.11-1.99-.05-2.98s.19-1.99.42-2.95c.22-.87.58-1.72,1.03-2.52.07-.12.18-.21.34-.4,0,.19.02.26,0,.31-.48,1.23-.58,2.54-.68,3.82-.11,1.41-.08,2.83.07,4.25.13,1.28.39,2.52.65,3.78.2.98.34,1.98.48,2.98.14,1.03.25,2.07.37,3.1.02.15-.01.31,0,.46.09,1,.19,2.01.27,3.02.03.33.03.67.06,1.01.02.24-.02.51.3.68.04-.09.11-.17.11-.25.08-1.36.17-2.73.2-4.09.03-1.23.01-2.47-.03-3.7-.05-1.11-.16-2.21-.43-3.3-.23-.93-.38-1.88-.51-2.83-.06-.48,0-.97.04-1.48.07.19.18.38.2.57.07.85.42,1.63.62,2.44.15.59.34,1.17.44,1.77.2,1.34.43,2.67.42,4.04-.02,1.41.04,2.82.05,4.23,0,.41-.05.83-.05,1.24,0,.35.03.7.07,1.05.05.31.07.3.47.34.04-.11.1-.23.13-.36.2-1.04.37-2.08.39-3.15,0-.56.1-1.11.13-1.66.05-1.08.06-2.16-.16-3.22-.21-1.03-.43-2.05-.64-3.07-.08-.38-.1-.77-.2-1.14-.16-.62-.36-1.23-.54-1.84-.3-1-.55-2.02-.9-3-.24-.69-.62-1.34-.93-2.01-.09-.19-.17-.38-.2-.61.43.45.91.84,1.24,1.38.74,1.2,1.23,2.51,1.63,3.85.43,1.45.8,2.92,1.14,4.39.16.69.18,1.4.25,2.1.07.71.13,1.41.18,2.12.04.45.04.91.06,1.36.01.34.05.67.05,1.01,0,.4-.03.81-.07,1.21-.07.78-.15,1.56-.22,2.35-.01.08-.02.16-.02.24.29.25.59.04.88.07.04,0,.15-.21.17-.33.25-1.61.5-3.22.72-4.84.1-.68.14-1.37.19-2.06.05-.57.09-1.14.11-1.72.02-.6,0-1.21-.01-1.81,0-.39-.03-.78-.03-1.16,0-.58-.01-1.14-.15-1.71-.12-.51-.1-1.04-.21-1.55-.18-.93-.41-1.84-.62-2.76-.3-1.35-.9-2.57-1.68-3.71-.07-.11-.12-.23-.19-.35-.14-.22-.3-.35-.6-.37-.6-.04-1.16-.24-1.53-.76-.31-.43-.6-.89-.92-1.32-.29-.37-.58-.74-.91-1.07-.67-.65-1.39-1.23-2.27-1.58-.06-.02-.11-.07-.16-.11-.02-.02-.02-.06-.04-.13.37-.13.76-.09,1.13-.05.37.03.73.18,1.14.3-.3-.71-.72-1.29-1.25-1.93.58.08.84.42,1.17.66.32.23.64.47,1.05.65-.05-.35-.11-.71-.17-1.07-.06-.35-.27-.69-.13-1.08.16.12.77,1.03.9,1.34-.11-.09-.22-.19-.34-.29-.18.55.28,1.1-.05,1.67-.36-.32-.61-.68-1.09-.86.14.36.27.64.38.94.04.1.04.21.07.32-.13,0-.26.04-.37-.01-.22-.09-.41-.24-.62-.33-.37-.14-.74-.31-1.22-.12.13.07.19.11.26.14.09.04.2.06.28.11,1.16.67,2.17,1.48,2.75,2.73.09.19.24.35.36.52.46-.17.47-.21.29-.57-.02-.04-.05-.09-.08-.13-.43-.69-.73-1.46-1.31-2.04.2-.26.32-.19.44.02.41.71.84,1.42,1.23,2.14.12.21.21.22.38.1,0-.07,0-.12-.02-.17-.22-.78-.52-1.53-.98-2.2-.09-.13-.22-.25-.13-.46.58.23.66.81.93,1.23.27.43.37.95.55,1.45.12-.03.2-.04.28-.07.07-.03.14-.07.27-.14-.53-.99-.97-2.01-1.11-3.15.15.12.28.25.34.41.19.5.34,1.01.51,1.52.07.19.2.35.27.54.08.17.12.36.18.57.3-.07.38-.2.31-.45-.2-.68-.39-1.36-.57-2.04-.13-.49-.28-.97-.37-1.47-.08-.4-.09-.82-.15-1.33-.27.65-.23,1.27-.34,1.87-.25-.29-.35-.63-.44-.98.05.06.1.13.2.26.17-.82.2-1.63.76-2.34.04.17.07.25.08.34.04.53.02,1.08.11,1.6.14.78.33,1.54.6,2.29.3.85.52,1.74.69,2.62.06.32-.08.7-.21,1.02-.12.28-.11.48.07.7.76.94,1.17,2.08,1.62,3.18.4.98.71,2.01.9,3.04.28,1.52.44,3.07.33,4.63,0,.26,0,.54.04.8.12.84.06,1.68,0,2.51-.12,1.68-.3,3.36-.44,5.04-.03.35.02.72-.01,1.08-.04.37-.16.72-.2,1.09-.05.42-.06.83-.09,1.24.54.15,1.02.29,1.53.44,0-.14.03-.26.01-.36-.12-.57-.07-1.14-.05-1.71.02-.59-.05-1.18-.08-1.77-.02-.4-.05-.8-.05-1.2-.01-1.21,0-2.43-.01-3.64,0-1.25-.02-2.5-.04-3.75,0-.48-.06-.97-.05-1.45,0-.52.05-1.04.08-1.56.06-1.01.16-2.02.17-3.03.01-.86-.09-1.72-.13-2.57-.02-.51-.06-1.02-.02-1.52.17-1.87.31-3.73.56-5.58.3-2.34.68-4.67,1.06-7,.09-.56.25-1.11.4-1.67.5-1.88,1.01-3.77,1.53-5.65.24-.88.51-1.74.78-2.61.02-.08.06-.15.1-.25q.09.26.06.41c-.16.74-.35,1.48-.48,2.22-.15.87-.23,1.74-.35,2.61-.03.24-.09.49-.13.74-.14.78-.25,1.56-.42,2.34-.03.12-.05.23-.08.35-.21.91-.46,1.83-.69,2.74-.38,1.49-.65,3-.85,4.52-.07.6-.23,1.19-.3,1.79-.12,1.04-.25,2.07-.29,3.12-.07,1.54-.06,3.09-.07,4.64-.01.2.05.4.06.6.05,1.05.1,2.09.13,3.14.04,1.09.07,2.18.06,3.27,0,1.26-.04,2.52-.05,3.79-.01.76-.03,1.52,0,2.28.04,1.18.14,2.35.19,3.53.05,1.08.08,2.15.09,3.23,0,.47.07.87.46,1.21,1.1.97,1.56,2.29,1.97,3.64.03.12.06.23.08.35.03.24.18.35.41.35h.65c.01-.09.05-.21.03-.31-.15-1.14-.29-2.27-.46-3.4-.15-1-.34-1.99-.5-2.99-.06-.41-.1-.83-.17-1.25-.27-1.49-.61-2.96-.82-4.46-.16-1.15-.18-2.32-.26-3.48-.03-.43-.08-.87-.06-1.31.03-1.08.07-2.16.16-3.23.1-1.26.23-2.52.41-3.77.21-1.46.49-2.92.74-4.38.13-.81.25-1.63.42-2.44.1-.51.29-1,.44-1.49.21-.66.42-1.32.63-1.97.07-.23.15-.44.27-.78.07.19.14.28.12.34-.2.73-.42,1.46-.63,2.19-.01.05-.04.09-.05.14-.05.81-.3,1.58-.32,2.4-.02.95-.19,1.91-.26,2.86-.07.77-.07,1.54-.14,2.31-.06.6-.17,1.2-.25,1.8-.18,1.3-.37,2.6-.5,3.9-.07.66-.02,1.32-.03,1.98,0,.27.01.54.01.81,0,1.5.15,2.99.36,4.48.14.96.26,1.93.43,2.89.13.77.35,1.53.51,2.31.21,1.09.41,2.18.59,3.28.12.66.22,1.32.3,1.99.04.36,0,.73.01,1.1,0,.15.04.29.06.47.41-.04.76-.07,1.15-.11,0-.17.02-.3.02-.43,0-1.57-.05-3.14.01-4.7.03-.91.22-1.81.34-2.71.15-1.13.3-2.27.47-3.4.11-.77.25-1.53.4-2.29.19-1.03.35-2.07.61-3.08.22-.86.55-1.69.85-2.53.13-.4.29-.79.45-1.18.33-.79.67-1.58,1.01-2.37.07-.15.14-.3.22-.45.39-.75.78-1.49,1.01-2.31.29-1.04.66-2.05.98-3.08.37-1.17.38-2.36.2-3.56-.12-.75-.21-1.5-.37-2.24-.2-.9-.47-1.79-.93-2.6-.1-.18-.22-.26-.44-.28-.92-.07-1.51-.64-2.03-1.34-.55-.75-1.18-1.4-1.93-1.98-.79-.62-1.69-.79-2.6-.99-.26-.06-.52-.12-.83-.2.17-.34.48-.38.74-.42.29-.05.6-.01.97-.01-.27-.36-.61-.5-.92-.67-.2-.12-.44-.21-.38-.54.57-.04,1.12.02,1.66.23-.35-.03-.69-.06-1.08-.1.53.61,1.37.72,1.97,1.36-.7.19-1.32-.17-1.86.07.5.12,1.04.23,1.56.4.32.11.62.28.88.48.39.29.76.63,1.11.96.2.18.36.4.54.6.16.17.32.34.49.53.11-.08.2-.14.32-.22-.54-1.08-1.26-2-2.08-2.86.14-.23.31-.14.42-.02.37.41.73.84,1.06,1.28.29.38.56.79.82,1.19.15.23.3.24.55.04-.11-.24-.2-.51-.35-.74-.44-.66-.9-1.3-1.35-1.96-.1-.14-.19-.29-.3-.46.25-.13.35.02.43.12.68.88,1.42,1.72,1.87,2.81.1-.06.19-.11.29-.17-.09-.17-.14-.34-.24-.47-.63-.74-.92-1.67-1.37-2.52-.13-.25-.12-.26.17-.44.41.78.8,1.55,1.22,2.32.14.26.32.51.51.74.08.1.23.13.34.19.03-.02.05-.05.07-.08l-.15-.39c-.21-.49-.46-.95-.6-1.47-.17-.64-.48-1.25-.78-1.85-.26-.51-.39-1.04-.5-1.58-.04-.19-.06-.39-.11-.68-.34.49-.37.95-.26,1.4.07.28,0,.41-.28.48-.23-.33-.46-.65-.69-.96l.06-.06c.14.13.28.25.48.44.03-.24.05-.41.05-.58,0-.65.2-1.23.56-1.76.1-.15.19-.29.38-.22.22.77.4,1.53.64,2.27.31.96.67,1.91,1.02,2.85.04.13.13.24.21.35.41.56.71,1.17.95,1.83.25.7.17,1.36-.26,1.96-.14.19-.17.38-.1.57.16.45.37.89.53,1.35.12.35.19.71.29,1.06.02.09.04.17.07.25.08.28.21.56.25.86.13.93.3,1.86.33,2.8.04.95-.02,1.92-.12,2.87-.07.68-.23,1.35-.41,2.01-.11.4-.33.77-.51,1.15-.47,1.03-.93,2.08-1.44,3.1s-1.08,2.02-1.63,3.02c-.03.06-.09.11-.1.17-.17.58-.34,1.15-.5,1.73-.02.07-.01.14-.04.2-.38.68-.35,1.45-.52,2.18-.18.79-.37,1.57-.53,2.36-.08.4-.1.8-.17,1.2-.1.55-.29,1.09-.31,1.64-.03.72-.27,1.41-.22,2.14.05.6,0,1.22-.08,1.81-.1.62.03,1.21.06,1.81.06.99.13,1.99.18,2.98.03.55.15.7.69.7.39,0,.77-.06,1.2-.1l.3-1.47c.11-.51.25-1.01.35-1.52.29-1.47.58-2.95.86-4.42.12-.68.15-1.37.33-2.04.31-1.2.7-2.38,1.06-3.57.21-.68.44-1.34.64-2.02s.48-1.33.82-1.95c.23-.4.4-.82.61-1.22.23-.45.58-.49.88-.07.47.66.92,1.35,1.13,2.14.3,1.11.54,2.22.78,3.34.12.54.18,1.1.26,1.65.04.3-.01.35-.35.4-.05-.34-.11-.69-.17-1.03-.1-.64-.45-1.16-.73-1.72-.38-.74-.78-1.49-1.19-2.22-.19-.34-.41-.69-.83-.84-.34.74-.61,1.48-.76,2.26-.04.21-.14.41-.2.62-.24.87-.48,1.75-.72,2.62-.03.08-.06.16-.07.25-.11.79-.24,1.59-.33,2.39-.14,1.16-.26,2.33-.38,3.5-.07.67-.09,1.35-.16,2.02-.04.43-.17.86-.2,1.29s0,.86.01,1.35c.39-.05.72-.09,1.06-.13,0-.3.03-.58,0-.86-.08-.76.04-1.51.15-2.26.16-1.17.29-2.34.44-3.51.04-.29.1-.57.24-.85-.06,2.48-.13,4.96-.2,7.47h1.44v-.55c.04-.84.08-1.69.11-2.53l.03-.66c.07-1.11.09-2.22.22-3.32.09-.78.32-1.55.47-2.32.05-.26.05-.54.1-.8.02-.12.08-.23.12-.34.04.01.07.02.11.03-.01.18-.03.36-.05.53-.06.78-.13,1.55-.17,2.32-.04.7-.11,1.41-.06,2.11.06.82-.06,1.63-.04,2.45.01.81-.05,1.62-.07,2.42,0,.18.03.37.05.6.91-.03,1.79-.06,2.73-.09.21-1.16.41-2.32.65-3.47.32-1.49.34-3.01.38-4.52.05-1.63-.06-3.27-.44-4.87-.24-1.02-.34-2.06-.56-3.08-.38-1.83-.51-3.7-.81-5.54-.18-1.02-.07-2.05-.09-3.08,0-.15.07-.31.18-.46.08,1.03.15,2.07.24,3.1.03.37.09.74.15,1.1.17,1.12.33,2.23.52,3.35.17.94.37,1.88.55,2.82.22,1.16.45,2.32.67,3.47.09.48.16.97.22,1.45.1.9.14,1.8.05,2.7-.01.09-.03.17-.03.25,0,.61,0,1.21-.01,1.81-.01.23-.09.46-.13.69-.09.62-.16,1.25-.26,1.86-.1.67-.21,1.33-.31,1.99-.02.11,0,.23,0,.38h2.01c.09-.46.23-.93.28-1.4.07-.66.09-1.31.12-1.97.06-1.37.13-2.73.16-4.1.01-.58-.08-1.17-.11-1.76-.06-1.08-.3-2.13-.43-3.2-.07-.66-.21-1.34-.05-2.02.05-.19.01-.4-.01-.6-.08-.76.17-1.47.3-2.19.04-.2-.04-.45.26-.65v.47c-.03,1.51-.11,3.02.34,4.5.2.68.36,1.38.46,2.07.12.77.17,1.54.21,2.31.05,1.33.11,2.66.1,3.99-.01.99-.15,1.98-.2,2.97-.03.52,0,1.04,0,1.62.8.1,1.6.06,2.45.12.02-.28.03-.54.07-.8.16-.95.31-1.89.49-2.83.14-.76.33-1.52.5-2.27,0-.03,0-.07.01-.1.32-.87.51-1.78.72-2.68.25-1.12.56-2.22.85-3.32.18-.67.37-1.33.56-1.99.01-.05.05-.08.1-.15.16.17.11.36.1.52-.09.94-.18,1.88-.27,2.81-.05.44-.11.87-.14,1.3-.04.52-.08,1.04-.09,1.55-.01.99-.18,1.95-.38,2.9-.24,1.21-.4,2.42-.34,3.66.03.47,0,.94,0,1.47.32.05.61.13.9.14.86.02,1.71.01,2.56.02.27,0,5.77-.19,6.04-.16Zm-24.96-37.51c0-.26.03-.46-.01-.64-.06-.31-.31-.42-.57-.26-.15.1-.35.29-.34.43s.23.3.4.39c.13.07.31.05.52.08Zm-8.4,42.43c.08-.59.08-1.2.02-1.8-.08-.78-.27-1.55-.37-2.34-.09-.82-.37-1.57-.72-2.3-.03-.08-.1-.13-.2-.27.12.91.35,1.71.29,2.55-.05.73-.06,1.47-.06,2.21,0,.48.04.97.05,1.46.01.23-.05.47-.04.7.01.72.04,1.44.04,2.17,0,.6-.04,1.21-.08,1.81-.05.7-.09,1.41-.19,2.11-.09.56-.28,1.11-.39,1.67-.11.53-.16,1.07-.26,1.59-.06.28-.13.6-.3.8-.58.7-1.2,1.36-2.11,1.67-.35.11-.68.26-1.01.43-.16.07-.29.32-.42.31-.32-.01-.55.25-.86.21-.23-.03-.18.13-.18.26,0,.01-.05.03-.1.07-.04-.08-.08-.17-.15-.33-.1.2-.13.28-.17.35-.06-.05-.15-.16-.18-.14-.28.15-.6.09-.88.19-.07.02-.1.16-.14.24q-.27-.18-.44.09c-.08-.05-.16-.1-.26-.16-.09.15-.16.28-.24.4-.05-.06-.11-.13-.19-.22-.08.07-.15.16-.22.17-.29.02-.58-.02-.86.02-.18.02-.36.06-.54.06-.22,0-.47-.13-.63.15,0,0-.09-.05-.13-.05-.65-.04-1.31-.1-1.93.2-.18.09-.45.21-.58.13-.29-.16-.55.19-.8-.02-.13.16-.28.15-.46.07-.05-.01-.16.13-.25.2-.06-.04-.16-.14-.25-.14-.3-.01-.6-.01-.89.05-.27.05-.54.01-.8.03-.35.03-.69.1-1.05.09-.22-.01-.48-.13-.65.13-.38-.28-.8.08-1.19-.06-.76.22-1.54.06-2.31.17-.55.07-1.11.07-1.67.07-.87.01-1.74-.01-2.62-.01-.21,0-.42.02-.63.04-.18.02-.43.12-.5.04-.3-.32-.51-.11-.81.1-.04-.1-.09-.21-.1-.24-.23.07-.38.11-.5.15-.06-.14-.1-.24-.18-.44-.08.24-.12.37-.16.52-.08-.05-.14-.09-.21-.14-.06.11-.12.22-.22.39v-.72c-.37-.02-.72-.04-1.06-.07s-.67-.05-1-.07c-.45-.02-.88-.2-1.33-.28-.07-.02-.16.09-.24.14-.02-.03-.06-.1-.1-.17-.08.07-.13.13-.19.2-.03-.12-.05-.22-.08-.36-.1.05-.16.08-.23.12.01-.36-.42-.02-.46-.29-.23.18-.37-.18-.56-.11-.14.05-.19-.03-.29-.09-.6-.33-1.07-.8-1.53-1.29-.63-.66-1.35-2.3-1.53-3.19,0-.01-.02-.02-.03-.03-.09.01-.17.02-.29.04.08-.18.14-.31.22-.48-.17.04-.27.06-.43.09.15-.16.25-.27.36-.39-.07-.03-.09-.04-.11-.04-.07.03-.15.07-.22.1q.24-.42.2-.63c-.1.01-.2.03-.34.04.11-.17.21-.29.27-.43.13-.25-.14-.22-.22-.29.06-.18.12-.34.19-.54-.27.15-.47.27-.77.45.08-.37.13-.62.18-.85.17-.1.3-.18.44-.27-.02-.03-.03-.07-.04-.1-.25.07-.5.14-.76.22.1-.5.78-.27.88-.85-.24.1-.42.17-.63.25.18-.32.71-.31.62-.82-.17.03-.32.06-.56.11.2-.14.32-.22.48-.34-.2.02-.34.02-.48.03-.01-.02-.01-.05-.02-.07.17-.11.34-.22.59-.38-.22-.05-.32-.07-.43-.09.48-.46.49-.48.07-.64.14-.17.54-.21.3-.56-.17.04-.34.08-.59.15.3-.27.73-.33.64-.84-.2.08-.35.14-.54.21.16-.32.7-.31.54-.78-.07,0-.13-.01-.19-.01.04-.1.08-.18.11-.26-.11-.02-.18-.02-.29-.04.12-.17.4-.15.29-.4-.07-.02-.14-.04-.21-.07.09-.14.15-.24.22-.36-.11-.03-.18-.05-.21-.06.05-.21.12-.39.13-.58,0-.4,0-.8-.04-1.2-.12-1.2-.05-2.38.23-3.55.08-.31.07-.64.1-.96-.46.44-.7.97-.93,1.51-.23.56-.5,1.1-.71,1.67-.2.53-.33,1.09-.5,1.67.16-.06.26-.1.41-.16-.09.5-.71.69-.59,1.27.32-.15.5-.49.88-.51-.39.44-.94.72-1.16,1.4.37-.22.63-.37.89-.53-.1.22-.27.34-.42.48-.07.07-.19.19-.17.23.11.28-.09.4-.23.55-.13.14-.21.28-.08.53.24-.37.37-.79.88-.93-.47.58-.93,1.06-.98,1.79.23-.12.29-.43.6-.47-.22.47-.69.79-.62,1.39.2-.19.37-.35.54-.51.02.01.03.03.05.05-.08.14-.16.27-.29.5.25-.14.39-.23.53-.31.03.03.05.06.08.09-.06.07-.12.14-.19.21-.22.23-.46.44-.67.68-.05.06-.03.18-.06.33.18-.19.29-.31.42-.44.02.39-.34.63-.32,1.05.2-.16.35-.28.5-.41-.11.42-.56.62-.53,1.19.16-.2.25-.31.35-.42.01,0,.05,0,.09.01-.04.13-.08.26-.13.4.14-.02.22-.04.33-.06-.09.41-.59.61-.42,1.14.12-.17.19-.27.26-.38.01,0,.03.02.04.03-.07.28-.15.57-.24.9.18-.08.29-.14.48-.22-.2.27-.34.47-.49.68.1.05.16.08.23.11-.1.4-.12.8.18,1.15.03.04.05.13.03.18-.17.34.08.37.34.42-.09.08-.19.14-.23.22-.03.08-.01.18-.01.27l.24-.06s.06-.03.1-.05c.04.28-.44.48-.06.77.1-.13.19-.24.32-.4q-.18.79.04,1.15c.08-.18.15-.33.21-.48.03.02.06.05.08.08-.08.38-.54.71-.15,1.2.09-.19.16-.33.27-.54.15.37-.19.59-.1.84.08.24.21.49.48.67.02-.14.03-.24.04-.34l.03-.24c.11.16.16.33.13.48-.04.21-.08.51.09.55.3.07.2.38.39.46.07.02.17-.04.26-.06,0,.19.01.38.03.68.17-.15.25-.23.37-.34-.03.23-.06.42-.09.61.08.02.14.05.17.03.06-.02.1-.08.14-.12.02-.02.04-.05.09-.1q.01.5.32.54c.02-.16.04-.32.07-.48.15.18.02.5.39.44.08.18-.08.42.18.55.05-.15.09-.27.13-.4.03.01.06.01.09.01.02.23.04.45.06.66.26.13.27-.09.35-.23q.07.45.35.53v-.58h.08c.06.27.12.54.18.82.14.06.27.11.46.19v-.65s.05,0,.08,0c.05.28.1.57.16.89.38-.21.12-.59.29-.82.17.27-.11.65.22.91.06-.28.1-.53.15-.77.15.32-.04.71.37,1,.08-.24.14-.43.19-.59.02.15.04.35.06.54.05.01.09.01.13.01l.21-.99h.07v1.18s.06.01.09.01c.07-.09.14-.18.21-.28.01.19-.01.34.26.43v-.77h.11c.01.21.01.43.05.63.02.09.12.17.18.25.05-.07.13-.14.16-.22.03-.1.03-.21.04-.32h.1c.02.19.03.38.04.57.27-.55-.07-1.14.14-1.78.05.18.1.27.1.36.01.37.01.75.01,1.12.01.16-.05.37.24.43.02-.14.04-.25.05-.37.01-.1.02-.21.04-.31q.13.72.43.82c.14-.51-.21-1.06.12-1.55.04.29.03.59.05.88.02.59.03.59.33.77v-1.15c.08.21.1.43.15.64.04.19-.09.45.18.57.48-.32-.02-.86.34-1.26,0,.3-.01.53,0,.76,0,.23-.05.51.36.61.03-.3.05-.56.07-.85.21.26-.14.68.34.84.03-.19.06-.35.1-.55.15.22-.07.63.45.6v-1.1c.11.29.14.57.2.85.02.09.13.17.19.25.07-.08.14-.15.2-.24.03-.07.04-.15.08-.3.04.24.06.4.09.59.39-.17.12-.52.32-.75.02.21.02.39.06.56.02.07.14.16.2.16.07,0,.17-.12.18-.19.03-.19,0-.39,0-.58.1.13.11.26.12.39.03.42.1.46.54.33-.03-.34-.05-.67-.07-1.01.04,0,.07-.01.11-.01.05.26.09.52.15.78.06.28.1.3.48.25.02-.66-.21-1.34-.03-2.12.06.15.09.2.1.26.09.53.17,1.06.24,1.59.03.19.07.35.29.33.21-.02.21-.2.2-.35,0-.3-.03-.6-.06-.9-.04-.45-.1-.9-.15-1.34.11.03.17.08.18.13l.15,1.41c.02.25.03.51.09.75.02.1.16.17.25.26.06-.1.18-.2.18-.31,0-.46-.04-.93-.06-1.39,0-.09.02-.18.03-.26.09.09.11.18.12.28.03.43.05.87.07,1.3.01.23.07.4.38.35.01-.12.05-.24.04-.35-.04-.53-.08-1.07-.14-1.61-.02-.2-.07-.4.2-.51.54.78.2,1.7.39,2.57.34-.16.28-.46.31-.67.03-.31-.04-.63-.04-.95-.01-.17-.06-.36.16-.55.02.18.05.31.05.43-.01.47-.02.94-.03,1.42,0,.28.04.31.36.23-.08-.61-.05-1.22.12-1.82.04.26.04.52.04.78,0,.31-.02.61.01.91,0,.09.14.16.21.24.06-.08.17-.17.17-.25,0-.3-.05-.6-.07-.9,0-.1.01-.18.03-.28.11.18.13.35.14.53.01.2.01.41.04.6.02.09.13.24.19.24.16,0,.13-.14.12-.27-.02-.3-.03-.6-.05-.9.12.29.17.57.2.87.02.14.01.29.2.3.2.01.19-.16.2-.29,0-.2,0-.4.02-.61v-.48c.09.3.09.6.09.89,0,.1-.02.22.02.3.05.08.17.13.25.19.06-.07.15-.15.15-.22,0-.19-.04-.37-.07-.55-.01-.14-.03-.28-.04-.43h.08c.07.38.15.77.23,1.13.24-.04.42-.06.65-.09,0-.23.02-.49.03-.75q.03-.54.19-.66c-.05.95-.02,1.15.2,1.44.35-.29.01-.7.22-1.09.03.31.05.52.07.75.03.26.07.28.4.22-.18-.39-.07-.78-.02-1.16.04,0,.07-.01.11-.01v1.15c.23.09.37.09.39-.14.01-.2,0-.4,0-.6q.23.72.63.66v-.86c.19.27-.07.67.34.88.03-.2.05-.34.07-.55q.11.32.32.47c.05-.3-.21-.6.03-.93.04.2.07.34.1.49.02.14.05.28.08.43.18-.06.31-.11.45-.16.07-.15-.11-.36.12-.5.08.21-.12.49.19.58.23.07.38-.02.41-.27.15.03.21.31.39.08.05-.05.23.05.34.02.13-.04.25-.14.33-.18.15,0,.28.03.42.05.06-.47.12-.87.19-1.34.21.26.11.48.14.69.02.18-.22.4.09.6.02-.18.03-.32.04-.47.07.13.13.25.24.46.04-.21.06-.32.08-.41.08.08.16.15.32.3v-.67q.19.41.43.45c.1-.36-.28-.76.11-1.15.06.42.1.78.16,1.17.57-.13.22-.58.39-.93.05.32.08.55.11.78.03.01.05.01.08.01.04-.1.09-.19.13-.27.05.1.11.2.21.37.15-.45.01-.84.18-1.18.08.18.11.36.17.53.06.15-.07.43.32.45-.02-.17-.02-.32-.05-.46-.04-.15-.11-.3.12-.41.05.27.1.51.16.78.43-.01.78-.13,1.01-.46.09.03.19.07.26.1.2-.22-.13-.49.14-.67.08.2.15.37.25.61.13-.17.2-.26.27-.34.18.13.33.16.37-.13.01-.08.06-.14.11-.28.07.17.11.26.16.38.1-.04.17-.07.25-.1.09-.02.17-.07.26-.06.26.01.33-.11.29-.34,0-.07,0-.14.01-.2.03-.01.05-.01.08-.02.07.15.15.3.22.44.31-.1.57-.2.59-.59.18.28.2.28.49.11.02,0,.06,0,.08,0,.42,0,.77-.21,1.13-.37.15-.06.35-.18.37-.31.07-.3.23.12.29-.06.01-.12.03-.25.04-.41.07.12.12.2.18.3.35-.22.66-.49,1.02-.62.3-.1.39-.21.31-.49,0-.02.03-.04.05-.06.07.07.13.14.2.21.34-.36.02-.81.22-1.26.06.31.1.51.15.71.3-.71.01-1.41.07-2.12.11.17.19.35.23.54.06.2.08.4.12.61.27-.52-.03-1.01.06-1.53.05.18.1.36.16.56.17-.26.09-.51.03-.75-.05-.23-.14-.45-.22-.73.36.2.32.6.61.8-.06-.54-.12-1.09-.19-1.72.13.25.22.43.31.6.03-.01.06-.03.1-.04-.06-.19-.12-.37-.17-.56.07-.04.13-.07.17-.1-.08-.28-.16-.56-.24-.83.03-.02.06-.03.09-.04.1.18.2.36.3.55.02-.01.05-.02.08-.04-.08-.29-.17-.59-.27-.93.12.07.18.1.25.14.08-.35-.35-.56-.2-.98.12.18.21.3.33.48.21-.55-.42-.86-.27-1.39.13.16.22.27.31.38.03-.02.06-.04.08-.05-.15-.36-.31-.71-.48-1.1.19,0,.29,0,.4.01v.02c-.06.17-.07.34.1.46-.03-.15-.06-.31-.1-.46,0-.01.01-.01.01-.02h-.01c-.04-.08-.09-.16-.18-.29.16.03.24.05.41.09-.2-.27-.36-.48-.58-.76.23.02.33.04.43.05.13-.41-.09-.71-.23-1.05.45-.19.05-.4-.02-.63.12.03.2.04.35.07-.16-.23-.29-.41-.39-.55.05-.16.09-.27.12-.38.08,0,.15,0,.34.02-.19-.24-.33-.41-.47-.58.06-.08.13-.14.18-.22.06-.09.1-.19.16-.29-.14-.3-.09-.37,0-1.04Zm-8.87-33.59c.11.24.3.18.52.09-.02-.32-.18-.41-.4-.37-.06.01-.15.21-.12.28Zm-5.59-24.6s.02-.06.05-.14c-.7.21-1.2.69-1.82,1.16.1-.59.19-1.08.27-1.57-.29.22-.5.46-.68.72s-.33.55-.53.89c-.3-.61-.04-1.2-.23-1.82-.36.56-.43,1.2-.94,1.71-.08-.53-.15-.97-.22-1.41-.08.08-.12.17-.13.26-.06.53-.05,1.08-.37,1.55-.04.06-.02.16-.02.25.03.57.05,1.14.08,1.71.03.37.07.75.1,1.12.05.01.09.01.13.02.11-.38.24-.75.33-1.13.13-.54.22-1.09.34-1.63.03-.12.05-.28.31-.23-.02.19-.03.38-.06.57-.14.78-.29,1.56-.42,2.34-.03.14-.07.31.22.37.07-.18.16-.37.21-.57.2-.75.41-1.49.77-2.19.06-.12.08-.31.38-.22-.45.96-.78,1.93-.91,2.97.22.08.32.04.41-.17.3-.69.59-1.38,1-2.03.55-.86.95-1.82,1.73-2.53Zm-4.13,6.06c.17,0,.29-.06.28-.26,0-.2-.14-.33-.31-.31-.18.02-.26.15-.27.31-.01.21.13.25.3.26Zm-.74-2.18c0-.74,0-1.48-.06-2.22-.02-.25.06-.37.24-.5-.26-1-.72-1.92-1.19-2.03.09.56.2,1.1.28,1.64.09.56.15,1.13.25,1.68.1.58.09,1.16.1,1.75,0,.15,0,.31.27.35.04-.22.11-.44.11-.67Zm-5.9-1.3c.08-.07.16-.13.25-.19-.31,0-.58.06-.85.13-.28.08-.46.37-.86.41.26-.58.49-1.08.71-1.58-.02-.02-.05-.04-.08-.06-.54.47-1.09.95-1.63,1.42.07-.58.32-1.08.35-1.75-.6.45-.95,1.03-1.6,1.32v-1.67c-.12.17-.19.24-.23.32-.17.35-.32.7-.5,1.05-.07.14-.14.33-.4.21-.08-.46-.11-.95-.4-1.36.02.51.09,1.01.11,1.51s.02,1.02-.03,1.52c-.05.48-.18.95-.27,1.43.46-.69.65-1.48.98-2.22.06.08.11.17.09.23-.16.5-.33.99-.5,1.48-.07.21-.16.41-.24.62-.08.18.01.28.26.34.18-.47.33-.93.55-1.36.2-.41.23-.94.74-1.19-.37.89-.73,1.78-1.09,2.65.2.2.31.18.39-.01.1-.22.18-.44.29-.65.24-.48.48-.96.74-1.43.04-.07.16-.11.24-.16-.11.33-.28.6-.43.87-.14.27-.25.56-.38.83q-.27.55-.18.9c.24-.44.46-.85.69-1.26.22-.39.37-.84.84-1.04-.21.41-.46.79-.7,1.18-.24.4-.51.79-.54,1.28.07-.03.11-.08.14-.13.4-.72.81-1.42,1.44-1.99.66-.6,1.39-1.11,2.1-1.65Zm-.13,13.85c-.08-.22-.15-.4-.21-.59-.16-.46-.37-.91-.46-1.38-.23-1.07-.29-2.16-.23-3.26.01-.09-.02-.18-.03-.27-.04,0-.08,0-.12,0-.13.55-.26,1.09-.4,1.65-.23.05-.3-.13-.38-.33-.16-.4-.33-.79-.49-1.18-.04.01-.07.01-.11.02.02.29.05.58.06.87.01.27.23.57-.09.82-.36-.45-.69-.88-1.03-1.31-.05.02-.09.03-.14.05.17.57.33,1.14.49,1.7-.24-.03-.41-.11-.55-.23-.22-.19-.41-.4-.62-.61-.15-.14-.31-.25-.58-.27.33.54.75.96.92,1.59q-.97-.43-1.23-.37c.51.48,1.01.94,1.5,1.41.12.12.23.25.31.39.34.56.68,1.13,1.01,1.69.09.15.15.32.39.18-.22-.41-.44-.82-.66-1.24-.27-.54-.54-1.08-.8-1.63-.06-.14-.14-.3.05-.5.28.59.51,1.15.82,1.67s.49,1.12.99,1.52c-.19-.55-.44-1.07-.65-1.61-.22-.54-.54-1.05-.56-1.68.08.01.11.01.11.02.44,1.01.9,2.02,1.32,3.04.1.25.2.27.41.14-.24-.65-.49-1.27-.7-1.91-.36-1.15-.42-1.62-.26-1.92.22,1.34.82,2.54,1.4,3.76.19-.08.34-.14.52-.22Zm-.71,1.69c.17-.08.11-.24.03-.35-.17-.21-.31-.09-.48.11.13.16.22.36.45.24Zm-4.22-10.63c.21.03.25-.14.15-.58-.46.05-.63.17-.53.36.05.12.24.21.38.22Zm-9.66,9.16c0-.29-.16-.48-.39-.49-.29,0-.55.25-.56.53-.01.27.21.48.51.49.3,0,.44-.18.44-.53Z"/>
      <path class="cls-2" d="m115.23,91.3c-.12.09-.16.14-.2.15-.73.15-1.46.37-2.21.03-.63-.28-1.3-.48-1.94-.72-.23-.09-.47-.2-.68-.34-.84-.58-1.82-.8-2.8-.94-1.36-.2-2.67.01-3.93.6-.82.38-1.69.66-2.44,1.2-.39.28-.78.58-1.19.83-.76.46-1.53.91-2.32,1.32-.86.45-1.81.62-2.76.72-.29.03-.57.06-.86.07-1.43.01-2.65-.51-3.67-1.51-.16-.16-.31-.32-.48-.46-.15-.13-.17-.3-.23-.58.19.11.3.16.39.24.49.38.98.75,1.46,1.16.36.31.79.44,1.24.51.41.08.83.11,1.25.14.82.06,1.6-.16,2.37-.4.72-.23,1.4-.56,2.12-.8.81-.26,1.42-.81,2.09-1.29.96-.68,1.91-1.39,2.95-1.94,1.09-.58,2.28-.84,3.56-.47,1.14.34,2.31.61,3.39,1.14.64.32,1.3.61,1.96.89.25.11.53.18.81.23.35.06.7.09,1.05.11.25.02.5,0,.75.01.07,0,.14.04.32.1Z"/>
      <path class="cls-2" d="m115.03,118.18c-.01.1-.13.24-.23.28-.57.23-1.15.37-1.76.42-.6.05-1.19.17-1.79.22-.48.04-.96.03-1.45.03-.13,0-.27-.02-.4,0-1.85.07-3.53-.47-5.11-1.38-.11-.06-.24-.11-.36-.16-.8-.37-1.59-.74-2.39-1.09-1.12-.49-2.26-.89-3.49-.96-1.19-.06-2.39-.08-3.58-.06-.7.02-1.4.16-2.06.46-1.5.69-2.95,1.5-4.52,2.04-.94.32-1.86.71-2.83.93-1.59.35-3.19.64-4.85.44-.9-.1-1.73-.4-2.58-.67-.29-.09-.57-.18-.86-.28-.05-.02-.1-.03-.14-.06-.66-.61-1.52-.86-2.29-1.28-.38-.2-.75-.45-1.15-.63-.44-.2-.91-.34-1.37-.5-.88-.28-1.76-.59-2.71-.49-.35.04-.7.09-1.04.19-.51.15-1.02.33-1.53.52-.27.09-.54.2-.78.35-1.19.72-2.47,1.23-3.74,1.77-1.01.42-2.02.83-3.02,1.28-1.08.49-2.23.64-3.38.79-.83.11-1.67.21-2.5.31-.07.01-.13.05-.2.05-1.25-.11-2.51-.21-3.77-.32-1.36-.12-2.63-.55-3.88-1.08-.95-.4-1.87-.85-2.82-1.24-1.13-.47-2.28-.91-3.42-1.37-.44-.17-.86-.41-1.31-.52-1.15-.28-2.24-.73-3.37-1.05-1.25-.36-2.56-.43-3.86-.38-1.18.04-2.36.19-3.47.61-.84.32-1.69.64-2.39,1.26-.17.16-.37.3-.57.41-.07.04-.22,0-.3-.06-.04-.03-.03-.2.02-.26.16-.18.31-.36.57-.47.52-.22,1.01-.53,1.52-.79.66-.33,1.36-.54,2.07-.76,1.23-.37,2.5-.28,3.84-.47.96.14,2,.31,3.05.45.87.11,1.64.48,2.45.77.85.32,1.71.61,2.54.95,1.13.47,2.23,1.01,3.37,1.45.8.31,1.64.49,2.47.73.13.04.25.08.38.13.61.22,1.24.39,1.87.52,1.42.3,2.86.43,4.3.56.33.03.68.02,1.01-.03,1.32-.18,2.63-.35,3.94-.6.84-.16,1.68-.34,2.45-.75.59-.32,1.2-.58,1.81-.84.29-.12.62-.15.92-.24.87-.24,1.61-.76,2.38-1.21,1.29-.74,2.63-1.24,4.15-1.31,1.08-.04,2.15,0,3.2.26.53.12,1.03.27,1.49.6.54.39,1.11.76,1.67,1.11.24.15.5.29.77.37.83.22,1.48.77,2.24,1.12.88.42,1.77.62,2.74.51.29-.04.61.05.89-.03,1.1-.3,2.24-.46,3.3-.91.82-.35,1.66-.65,2.5-.93.76-.26,1.47-.58,2.17-.94.54-.28,1.08-.52,1.67-.7.49-.15.98-.34,1.48-.48,1.38-.39,2.8-.45,4.21-.32.54.05,1.06.21,1.58.36.77.23,1.54.47,2.28.77.82.34,1.63.73,2.43,1.12,1.07.53,2.12,1.12,3.27,1.46.93.27,1.9.43,2.88.43,1.09,0,2.19,0,3.26-.23.44-.09.86-.28,1.3-.39.19-.05.39-.06.58-.02.1.01.25.16.25.24Z"/>
      <path class="cls-2" d="m113.34,106.42c-.05.19-.2.26-.4.29-1.22.21-2.44.25-3.67.19-.09,0-.17-.02-.25-.05-.56-.18-1.11-.4-1.68-.53-.59-.15-1.08-.47-1.57-.8-.87-.58-1.74-1.15-2.61-1.73-.69-.46-1.45-.77-2.22-1.07-.96-.38-1.94-.61-2.96-.59-.83.02-1.68.08-2.5.2-1.1.17-2.18.42-3.22.82-.9.35-1.73.8-2.48,1.43-.87.73-1.58,1.6-2.35,2.42-.91.97-1.94,1.76-3.13,2.37-1.22.63-2.49.98-3.86,1.03-.76.02-1.51.14-2.26.13-.57,0-1.14-.08-1.7-.19-1.48-.31-2.96-.65-4.44-.98-.52-.11-1.05-.24-1.58-.34-.98-.18-1.98-.19-2.95.06-1.18.31-2.36.69-3.53,1.04-1.04.32-2.11.46-3.17.65-.21.04-.43.06-.64.1-.59.11-1.18.05-1.76-.05-1.22-.21-2.37-.63-3.5-1.13-.98-.43-1.98-.85-2.94-1.33-1.03-.51-2.02-1.1-2.88-1.87-1.23-1.12-2.63-1.93-4.22-2.41-.68-.21-1.36-.42-2.05-.51-1.23-.17-2.46-.22-3.64.26-.98.4-1.95.84-2.92,1.27-.45.19-.89.39-1.33.58-.13.05-.26.09-.37.16-.66.39-1.39.6-2.13.77-1.07.26-2.16.44-3.25.31-.61-.08-1.21-.31-1.77-.57-.7-.32-1.38-.71-2.03-1.13-.48-.31-.89-.71-1.34-1.07-.2-.16-.22-.36-.08-.68.23.08.45.12.62.22.5.29.95.63,1.32,1.08.05.06.12.12.19.17.71.46,1.43.93,2.22,1.25.58.23,1.19.32,1.82.34,1.23.06,2.35-.33,3.5-.63.32-.09.61-.29.91-.43.63-.29,1.25-.59,1.89-.84,1.14-.45,2.21-1.06,3.42-1.34,1.37-.32,2.73-.29,4.07.14.59.19,1.17.41,1.75.61,1.35.46,2.49,1.25,3.55,2.17.07.07.14.16.22.21.85.55,1.68,1.12,2.56,1.63.5.29,1.06.48,1.6.71.99.42,1.97.89,2.98,1.24.86.29,1.76.45,2.65.62.33.06.7-.01,1.05-.05.88-.13,1.76-.23,2.63-.41.68-.14,1.33-.38,1.99-.56.8-.22,1.59-.43,2.39-.64,1.16-.31,2.33-.33,3.51-.14,1.07.18,2.15.35,3.23.55.8.15,1.6.37,2.41.51,1.3.23,2.62.24,3.93.11.1-.01.2-.02.3-.02,1.47-.02,2.78-.46,4.06-1.18,1.18-.65,2.12-1.54,3.04-2.47.5-.5.91-1.08,1.41-1.58.36-.37.78-.69,1.22-.98.5-.32,1.04-.6,1.57-.87.61-.32,1.24-.57,1.94-.65.58-.07,1.15-.23,1.72-.36.81-.18,1.62-.29,2.45-.18.35.04.71.02,1.06.07,1.12.16,2.2.48,3.25.9.55.22,1.12.38,1.6.74.39.29.77.59,1.18.87.48.33.96.68,1.47.96.52.27,1.08.42,1.69.39.24,0,.49.11.73.18,1.23.36,2.48.4,3.75.37.21,0,.41-.01.53.24Z"/>
      <path class="cls-2" d="m88.15,93.45s-.01,0-.01.02v-.02h.01Z"/>
      <path class="cls-2" d="m61.96,79.37c-.27.63-.1,1.29-.16,1.95-.16-.18-.15-.18-.22-.96-.02-.35-.11-.69-.17-1.03-.3-.04-.37.04-.34.3.07.66.1,1.31.14,1.97.01.11,0,.21-.03.43-.29-.93-.15-1.82-.41-2.64,0-.01-.06,0-.15-.01-.09.91.16,1.82,0,2.83-.3-.49-.18-.97-.28-1.4-.11-.42.05-.88-.2-1.4-.17,1.01.12,1.9.06,2.83-.21-.12-.19-.29-.2-.45-.03-.67-.06-1.35-.1-2.02-.01-.08-.05-.16-.12-.24-.17.97.17,1.97-.15,2.93-.26-.45-.21-.95-.27-1.43-.06-.46,0-.95-.14-1.39-.05,0-.1.01-.15.01,0,.39.01.79,0,1.18-.01.38.07.77-.09,1.14-.18-.75-.04-1.54-.2-2.28-.25-.04-.32.05-.31.24.03.38.06.77.07,1.16.02.37.03.74.02,1.11,0,.1-.08.19-.18.29-.16-.9-.09-1.8-.41-2.67-.14.58.12,1.13-.07,1.71-.04-.28-.06-.55-.1-.83-.04-.29-.09-.58-.14-.88-.24.07-.24.18-.24.33.02.54.03,1.07.03,1.61,0,.16-.04.31-.11.47-.26-.35-.16-.74-.18-1.11-.02-.38,0-.77-.07-1.15-.28.55-.03,1.15-.22,1.73-.04-.29-.06-.57-.11-.85-.06-.28.2-.58-.07-.93-.27.82-.05,1.65-.36,2.4-.24-.74.08-1.54-.18-2.3-.22.23-.25.5-.17,1.48-.16-.06-.3-.12-.48-.19-.03-.37-.06-.76-.08-1.15-.04,0-.07,0-.11-.01-.19.59.05,1.25-.25,1.92-.19-.66-.02-1.23.06-1.8q-.31.01-.48.87c-.02-.26-.05-.52-.08-.79q-.2.12-.19.57c0,.23,0,.46,0,.75-.44-.37-.13-.84-.29-1.2-.53-.04-.29.52-.56.72-.04-.17-.07-.33-.1-.48-.36-.08-.25.26-.38.39-.05-.08-.11-.15-.19-.28-.43.2-.87.4-1.3.61-.88.42-1.16,1.21-1.3,2.1-.07.48-.16.96-.26,1.43-.2.94-.48,1.87-.44,2.83.04,1.04.19,2.08.34,3.12.1.72.08,1.44,0,2.17-.05-.37-.1-.74-.14-1.1-.07-.67-.15-1.34-.21-2-.09-.82-.19-1.64-.24-2.46-.03-.59.06-1.19.01-1.77-.08-.95.14-1.85.39-2.73.49-1.69,1.69-2.64,3.36-3.1.92-.25,1.86-.35,2.79-.37.83-.02,1.64-.15,2.46-.17.44,0,.87-.13,1.3-.19.45-.06.9-.13,1.35-.17.5-.04,1-.05,1.5-.06.77-.03,1.54-.05,2.31-.08.2,0,.4-.04.61-.06.87-.07,1.74-.17,2.61-.2.57-.02,1.15.05,1.72.1,1.54.14,3.09.19,4.64.21,1.5.02,3,.09,4.5.21.71.06,1.41.29,2.12.43.79.16,1.58.32,2.37.45.54.1.94.37,1.34.74.62.59.69,1.33.75,2.08.07.96.18,1.91.37,2.85.08.34.11.7.12,1.05.03,1.08.19,2.14-.04,3.22-.15.71-.1,1.45-.14,2.17-.01.15-.01.31-.05.45-.3,1.01-.37,2.05-.45,3.09-.1,1.17-.75,1.91-1.8,2.33-.37.16-.75.28-1.16.32-.4.04-.79.17-1.18.27-1.04.26-2.08.54-3.16.63-.57.05-1.12.26-1.68.36-.51.1-1.03.14-1.55.22-.98.14-1.96.29-2.94.44-.83.13-1.66.26-2.49.37-1.67.21-3.35.42-5.02.6-.55.06-1.11.07-1.67.04-1.17-.08-2.35-.19-3.52-.33-1.18-.14-2.37-.3-3.54-.51-.97-.17-1.89-.49-2.77-.94-.51-.26-.77-.57-1.04-1.15.17.17.3.28.4.39.31.35.68.57,1.12.75,1.35.57,2.77.79,4.22.88.57.03,1.13.19,1.69.27.52.08,1.03.16,1.55.2.71.06,1.42.09,2.12.12,1.05.05,2.09-.11,3.12-.28.58-.09,1.17-.13,1.75-.22.78-.11,1.56-.24,2.35-.35.68-.1,1.37-.17,2.05-.27.58-.08,1.15-.2,1.73-.3.2-.04.4-.1.6-.09.84.03,1.64-.18,2.44-.35.53-.11,1.06-.17,1.59-.27.58-.11,1.16-.21,1.73-.35.76-.17,1.51-.34,2.25-.57.58-.18,1.18-.41,1.71-.72s.74-.89.83-1.49c.12-.89.19-1.8.31-2.7.09-.62.27-1.24.35-1.87.06-.47.05-.96.04-1.44-.03-.74-.15-1.49-.12-2.22.05-.83,0-1.64-.04-2.46-.03-.64-.08-1.28-.21-1.91-.1-.48-.33-.94-.5-1.4-.18.04-.31.06-.47.09v-1.03s-.08-.01-.13-.01c-.03.24-.04.48-.09.7-.06.22-.17.42-.29.71-.19-.37-.12-.67-.14-.97-.02-.28.16-.62-.24-.91-.1.83.06,1.58,0,2.33h-.15c-.05-.64-.09-1.27-.13-1.91-.02,0-.04-.02-.07-.02l-.09.18c-.02.06-.03.13-.06.22-.06-.05-.11-.07-.12-.11l-.12-.54c-.04-.18-.15-.2-.33-.15-.14.32.02.73-.22,1.06-.26-.25-.14-.55-.16-.82-.03-.41,0-.41-.49-.45-.15.64-.03,1.32-.28,1.96-.33-.68-.06-1.38-.07-2.12-.14-.03-.27-.05-.46-.08v1.07c-.39-.35-.11-.83-.45-1.25-.08.59.11,1.12-.17,1.64-.32-.52-.15-1.05-.23-1.57-.07-.03-.14-.06-.22-.08-.06-.01-.13,0-.26,0v1.25s-.08.01-.12.01c-.22-.4.06-.92-.29-1.41-.24.56.03,1.13-.38,1.65v-1.48c-.21-.12-.34-.09-.36.08-.03.2-.04.4-.03.6,0,.16-.02.26-.25.31v-1.04s-.08-.01-.12-.01c-.21.35-.16.76-.23,1.21-.33-.39-.05-.87-.32-1.24-.06.16-.1.28-.14.42-.14-.04-.28-.08-.44-.12-.04-.13-.08-.27-.14-.48-.13.09-.24.16-.36.24-.06-.07-.13-.15-.23-.26-.08.06-.15.12-.22.18-.02,0-.06.01-.08-.01-.11-.19-.29-.2-.48-.21-1.94-.03-3.88-.06-5.82-.1-.37-.01-.74-.05-1.15-.09-.01.13-.03.25-.06.49-.11-.22-.16-.34-.27-.55-.03.08-.05.13-.06.17-.03.16-.05.31-.09.54-.23-.26.16-.61-.29-.74-.04.19-.07.36-.12.63-.09-.21-.14-.33-.22-.5-.05.29-.09.5-.13.73-.38-.14.08-.58-.32-.74-.06.18-.11.34-.21.62-.06-.24-.1-.36-.15-.54-.18-.01-.38-.03-.61-.04v.77s-.07,0-.11.02c-.04-.26-.09-.52-.15-.81-.26.11-.13.34-.16.5-.04.19-.01.4-.01.7-.24-.24-.33-.41-.24-.66.08-.2.07-.39-.16-.58-.21.42-.07.86-.17,1.32-.28-.41.06-.95-.28-1.28-.05,0-.09,0-.14.02v1.63q-.27-.26-.29-.8c-.01-.25.02-.51-.03-.77-.3.35-.14.77-.15,1.23-.24-.21-.15-.43-.18-.63-.03-.18.07-.4-.11-.59-.25.23-.02.48-.08.71s-.04.49-.06.82c-.32-.46-.04-.96-.3-1.41-.04.24-.09.43-.1.63-.02.2-.01.41-.04.61-.2-.4-.06-.85-.15-1.27-.22.47-.08,1-.28,1.55-.36-.56.09-1.07.02-1.57-.18-.06-.28-.02-.3.16-.03.36-.05.72-.08,1.07q-.14-.13-.12-.56c.01-.21,0-.41-.06-.62Zm-6.18,1.68c-.02-.21-.04-.42-.05-.64-.02,0-.04,0-.06,0v.64s.07-.01.11-.01Z"/>
      <path class="cls-2" d="m85.41,101.53c.02.12.03.25.05.38h-.08c0-.12-.03-.25-.04-.38h.07Z"/>
      <path class="cls-2" d="m85.24,88.93c-.03.1-.08.2-.12.29-.02,0-.04-.01-.06-.02.01-.11.03-.23.05-.4.07.07.13.11.13.13Z"/>
      <path class="cls-2" d="m85.04,89.95v.5c-.25-.21-.13-.36,0-.5Z"/>
      <path class="cls-2" d="m85.01,87.35c.01.21.02.43.04.7-.3-.23-.18-.47-.22-.69.06,0,.12-.01.18-.01Z"/>
      <path class="cls-2" d="m85.02,101.69v.5s-.04-.01-.05-.02l-.03-.48h.08Z"/>
      <path class="cls-2" d="m84.93,85.9v.47s-.05,0-.07,0v-.48h.07Z"/>
      <path class="cls-2" d="m84.85,91.23q.08.23-.01.44-.08-.23.01-.44Z"/>
      <path class="cls-2" d="m84.85,83.12c.01.07-.01.14-.02.22-.16-.2-.16-.21-.05-.47.04.12.07.18.07.25Z"/>
      <path class="cls-2" d="m84.86,93.49c-.02.27-.03.44-.05.61-.18-.18-.23-.35.05-.61Z"/>
      <path class="cls-2" d="m84.73,92.5c.16.18.11.35.02.51-.12-.15-.18-.31-.02-.51Z"/>
      <path class="cls-2" d="m84.73,84.77v.46h-.08l-.03-.45s.08,0,.11-.01Z"/>
      <path class="cls-2" d="m56.81,94.08c-.15-.02-.32-.28-.5.07.2-.03.35-.05.5-.07-.45.28-.91.42-1.45.23-.2-.3-.53-.47-.86-.66-.27-.17-.53-.35-.79-.52-.2-.13-.38-.3-.59-.39-.44-.21-.75-.55-1.04-.93-.12-.16-.26-.31-.37-.47-.07-.1-.14-.21-.13-.31.02-.29-.02-.52-.33-.62-.04-.01-.07-.07-.07-.11.01-.48-.34-.88-.29-1.36.34.01.39-.02.34-.25-.15-.73-.02-1.44.08-2.15.03-.25.13-.49-.09-.71h0c.11-.32.2-.65.5-.85-.05.12-.1.25-.15.38.03.01.05.02.07.03.16-.21.33-.42.49-.64-.02-.02-.05-.04-.07-.05l-.3.24c.26-.65.66-.94,1.29-.87.39.04.74-.03,1.09-.18.72-.3,1.45-.59,2.19-.88.53-.22,1.02.02,1.22.55.16.44.19.91.16,1.39-.03.32.04.66.12.98.02.11.2.23.32.25.25.04.5.01.76.01.51-.61.58-.61,1.27-.11.1-.05.21-.1.31-.16.21-.14.42-.17.67-.07.22.09.43.16.48.45.04.21.23.22.41.15.44-.16.91-.27,1.32-.48.36-.19.7-.21,1.07-.12.66.15,1.18.55,1.65,1.01.14.13.22.34.27.53.06.22.18.35.45.43.06-.15.13-.3.18-.45.11-.34.3-.59.63-.73.17-.07.33-.17.47-.28.06-.05.13-.17.12-.25-.02-.34-.06-.67-.11-1-.09-.58-.21-1.16-.28-1.74-.02-.17.06-.35.18-.52l-.33-.9c-.03-.09-.07-.19-.09-.29-.06-.39.11-.79.38-.92.26-.12.69.06.93.4.41-.42.65-.45,1.19-.12.13-.07.25-.16.39-.21.36-.12.68.05.78.42.02.08.03.17.03.25-.08.81.18,1.6.25,2.4.01.18.01.37.02.55.02.37.09.43.43.3.18-.07.37-.14.62-.24-.09-.55-.19-1.1-.3-1.72.08-.05.22-.13.37-.23-.06-.18-.15-.37-.19-.56-.06-.28-.12-.56-.13-.84-.01-.5.4-.76.86-.55.15.07.29.17.46.27.37-.39.75-.39,1.1.03.24-.15.37-.43.7-.39.34.03.5.08.56.4.08.37.09.76.11,1.15.02.51.01,1.03.01,1.58.18-.02.29-.04.4-.04l1.41.06c.66.02,1.32.02,1.97.07.62.04,1.24.11,1.84.24,1.18.25,1.93,1,2.39,2.1.27.65.44,1.31.45,2.01,0,.66.12,1.32.07,2-.07,1.16-.46,2.2-1.13,3.14-.09.13-.28.23-.45.28-.49.17-.99.3-1.49.46-1.11.34-2.21.7-3.32,1.02-.7.2-1.4.32-2.14.31-.55-.01-1.1.05-1.66.07-.18,0-.37-.02-.55-.03-.27-.02-.54-.07-.8-.05-.53.06-1.01-.13-1.48-.29-.71-.24-1.42-.53-2.08-.89-.56-.31-.99-.82-1.32-1.37-.41-.69-.76-1.42-1.16-2.17-.69-.02-1.29.26-1.72.87-.44.62-.88,1.24-1.52,1.68-.81.55-1.69.97-2.69,1.05-.89.06-1.78.03-2.66-.08-.19-.02-.36.03-.54.15-.25.17-.59.18-.9.27-.1-.17-.18-.29-.26-.41Zm.96-.96c.25-.23.25-.4.23-.64-.3.14-.25.35-.23.64Zm26.09-1.74c.23-.72.55-1.41.49-2.19-.02-.2,0-.4-.01-.61-.05-1.05-.24-2.05-.81-2.97-.46-.74-1.15-.91-1.99-1.05.11.17.16.27.22.36.31.52.72,1.01.91,1.57.64,1.94.73,3.89-.22,5.79-.15.29-.3.6-.27,1.09.24-.17.43-.24.52-.38.38-.54.93-.93,1.16-1.61Zm-1.17-1.26c.15-.62.16-1.24-.01-1.85-.16-.55-.31-1.11-.5-1.64-.25-.7-.52-1.4-1.07-1.93-.1-.1-.24-.21-.37-.21-.97-.04-1.94-.06-2.92-.07-.15,0-.29.07-.48.12.44.43.82.81,1.2,1.18.5.48.84,1.04,1.03,1.71.07.27.18.54.28.8.18.52.5,1,.5,1.58.01.61.05,1.24.01,1.85-.02.45-.02.91-.3,1.31-.25.37-.46.77-.7,1.17.08.02.13.05.17.04.63-.21,1.27-.42,1.9-.64.09-.03.2-.1.23-.17.18-.38.38-.76.5-1.16.21-.69.36-1.39.53-2.09Zm-2.77,2.45c.26-.65.2-1.36-.02-2.03-.2-.64-.42-1.28-.65-1.91-.25-.71-.53-1.41-.98-2.04-.45-.61-.93-1.2-1.57-1.63-.2-.13-.45-.22-.69-.27-.28-.06-.57-.06-.85-.09-.8-.06-1.58-.02-2.41.22.3.49.69.77,1.13.98,1.38.68,2.14,1.83,2.57,3.27.3,1.01.11,2,.12,3,0,.76-.33,1.44-.6,2.12-.09.23-.18.47-.3.78,1-.06,1.92,0,2.8-.49.79-.44,1.16-1.15,1.45-1.91Zm-3.93.74c.15-.56.36-1.12.29-1.73-.11-.94-.37-1.85-.64-2.75-.22-.72-.58-1.36-1.14-1.88-.19-.17-.42-.29-.59-.48-.77-.88-1.89-.76-2.88-1.02-.44.18-.88.35-1.43.56.34.11.57.16.77.26,1.06.52,1.67,1.47,2.02,2.53.31.95.43,1.96.57,2.96.11.87-.06,1.71-.64,2.43-.04.04-.04.12-.09.23.28.07.53.16.79.18.61.06,1.21.09,1.81.13.46.03.7-.11.84-.51.11-.3.23-.6.32-.91Zm-.17-10.97c.18-.47.14-.92-.01-1.36-.09-.26-.36-.36-.56-.18-.14.13-.23.32-.31.49-.05.11-.04.24-.06.36-.16-.21-.22-.43-.31-.63-.06-.14-.18-.26-.37-.18-.16.06-.31.15-.3.35.01.13.08.26.08.39,0,.08-.08.16-.13.24-.04,0-.08-.01-.12-.02-.01-.14-.02-.29-.04-.43-.04-.36-.44-.66-.79-.6-.28.04-.4.32-.32.73,0,.03.02.07.03.1.12.33.23.66.35.97,1-.08,1.93-.16,2.86-.23Zm-.01,1.35c-.04-.33-.08-.65-.13-.97-1,.08-1.93.15-2.9.22.04.46.08.92.13,1.49.29-.05.52-.09.74-.14.26-.06.52-.14.78-.2.45-.09.92-.15,1.38-.4Zm-3.37,8.62c.11-.81-.03-1.61-.15-2.41-.11-.67-.29-1.3-.69-1.87-.16-.22-.31-.44-.44-.68-.34-.59-.92-.83-1.52-.99-.24-.06-.52,0-.78.01-.01.05-.02.09-.04.14.09.07.19.13.27.2.28.24.6.45.82.73.17.21.23.52.32.78.11.35.24.7.29,1.06.06.42.04.85.05,1.27,0,.78-.48,1.39-1.23,1.57-.16.04-.3.09-.53.16.19.2.31.35.44.46.29.26.58.52.89.74.3.22.62.42.94.59.3.15.52.07.76-.18.41-.45.53-1,.6-1.58Zm-1.16-7.34c-.09-.65-.17-1.26-.26-1.88-.97.07-1.93.15-2.93.23.17.95.33,1.83.5,2.79.93-.39,1.8-.76,2.69-1.14Zm-.22-2.46c0-.31.01-.69-.01-1.08,0-.18-.08-.37-.31-.39-.2-.03-.44.13-.5.34-.04.12-.05.26-.08.39-.01.09-.04.18-.06.27-.05-.01-.08-.01-.08-.02-.03-.16-.06-.32-.09-.47-.06-.24-.26-.42-.46-.41s-.34.19-.36.46c-.01.21.06.43-.11.68-.11-.31-.21-.56-.29-.81q-.17-.54-.79-.39c-.09.65.2,1.2.36,1.78.93-.11,1.82-.23,2.78-.35Zm-.76,8.27c.03-.13.01-.27,0-.4-.03-.27-.06-.54-.09-.8-.06-.59-.22-1.15-.46-1.69-.27-.58-.76-.85-1.32-1.01-.67-.19-1.15.21-1.15.93.3.1.69-.07.92.27.21.29.4.57.43.95s0,.78-.24,1.05c-.19.23-.53.32-.82.48.17.42.46.8.88,1.08,1.06.69,1.7-.08,1.85-.86Zm-1.88-1.18c.26-.52-.1-.9-.35-1.29-.21-.32-.56-.28-.87-.22-.21.05-.39.08-.59-.03-.07-.04-.19,0-.25,0-.15.28-.28.54-.41.8-.03-.02-.06-.03-.09-.04.07-.17.14-.33.19-.5.12-.36.24-.72-.05-1.05-.21-.24-.39-.51-.63-.7-.58-.46-1.23-.6-1.95-.35-.56.2-1.11.46-1.75.44-.05.21-.11.38-.14.56-.13.74-.38,1.43-.71,2.1-.09.16-.23.3-.41.53-.39-.58-.75-1.06-1.07-1.56-.33-.53-.33-1.15-.38-1.78-.24,0-.44,0-.64,0-.33.02-.54-.16-.64-.46-.06-.16-.09-.32-.12-.49-.1-.61-.2-1.22-.3-1.84-.04-.26-.18-.35-.45-.37-.44-.02-.82.14-1.21.32-.69.31-1.37.62-2.14.96,0,0-.02.04-.02.09-.05.31.12.72-.36.86-.02,0-.03.09-.05.13-.04.14-.07.28-.12.41-.13.31-.28.61-.39.93-.27.85.01,1.64.3,2.43.03.08.1.13.15.2.17.23.34.45.52.67.18.24.35.51.57.69.3.25.68.25,1.06.23.74-.04,1.13-.32,1.35-1.03.05-.17.1-.36.34-.37.05.21.09.41.13.6.05.18.09.36.14.53.03,0,.05-.01.08-.01.08-.27.17-.54.27-.87.29.42.27.91.71,1.25.05-.37.09-.66.13-.98.16.13.31.25.45.38.39.36.52.85.49,1.33-.03.4-.23.79-.39,1.17-.1.22-.13.4.05.61.07,0,.15.02.23.02.79-.04,1.59-.04,2.37-.12.72-.07,1.4-.34,2-.75.78-.53,1.34-1.26,1.92-1.99.35-.44.77-.8,1.44-.79.43,0,.88-.18,1.31-.32.11-.04.22-.2.28-.33Zm-7.27-2.27c.06-.29.06-.6.05-.9-.02-.26-.15-.33-.42-.28-.32.05-.43.16-.41.39.05.72.11,1.44.14,2.15.01.2-.06.41-.1.61.03.01.06.02.08.03.06-.08.14-.17.17-.26.17-.58.35-1.16.49-1.74Zm-.94.82c.06-.6-.04-1.17-.21-1.74-.06-.2-.2-.41-.42-.35-.16.05-.35.24-.38.4-.06.25-.07.56.03.8.24.61.55,1.2.84,1.81.04-.02.09-.03.14-.05,0-.29-.03-.58,0-.87Zm-1.57,5.16c.13-.36.24-.71.03-1.17-.12.38-.21.68-.31.98,0,.03-.03.07-.02.09.04.06.09.14.15.17.03.02.14-.03.15-.07Zm-1.23-.19c.06-.12.11-.21.17-.33-.25.03-.31.11-.17.33Zm.04-.57c-.07-.1-.12-.17-.18-.25-.06.06-.17.13-.17.19,0,.07.09.15.16.2.02.02.11-.08.19-.14Zm-.69-.69c0-.39-.21-.27-.37-.25l-.03.12c.12.04.24.08.4.13Zm-.5.65q.16.32.44.28c-.16-.1-.27-.17-.44-.28Zm.25,1.1s0-.12,0-.13c-.08-.01-.16-.01-.24-.02v.14c.08,0,.16.01.25.01Zm-1.21.09c.3.22.53.23.84.14-.26-.27-.5-.2-.84-.14Zm-.14-.62c.1.14.21.26.46.1-.21-.04-.34-.07-.46-.1Zm-.4-.1c0-.06-.05-.1-.1-.19-.07.08-.1.12-.14.16.05.04.09.08.15.1.02.01.1-.05.09-.07Zm-1.2-1.82c.09-.31-.07-.39-.26-.46.07.13.15.26.26.46Zm-.47-.77s.06-.04.09-.07c-.09-.16-.11-.37-.34-.43-.03.03-.06.05-.09.08.11.14.23.28.34.42Zm.02.4c-.1-.11-.2-.22-.3-.34-.03.03-.06.06-.1.09.07.15.15.28.4.25Zm-.8.91c.03-.23.01-.42-.21-.45-.04.03-.08.06-.13.09.11.12.23.24.34.36Zm-.78-5.1c.25-.12.36-.32.33-.6-.3.11-.33.35-.33.6Zm.14-.83c.17-.09.35-.19.37-.47-.28.06-.31.28-.37.47Zm-.02,4.4c-.08-.28-.17-.55-.26-.83-.03.01-.06.02-.1.03.07.28.14.57.21.85.05-.02.1-.03.15-.05Z"/>
      <path class="cls-2" d="m84.44,82.26c.03.08.07.17.1.25-.03.02-.07.03-.11.04-.03-.08-.05-.17-.08-.26l.09-.03Z"/>
      <path class="cls-2" d="m84.41,93.95v.49c-.24-.16-.2-.32-.13-.49h.13Z"/>
      <path class="cls-1" d="m84.35,89.19c.06.78-.26,1.47-.49,2.19-.23.68-.78,1.07-1.16,1.61-.09.14-.28.21-.52.38-.03-.49.12-.8.27-1.09.95-1.9.86-3.85.22-5.79-.19-.56-.6-1.05-.91-1.57-.06-.09-.11-.19-.22-.36.84.14,1.53.31,1.99,1.05.57.92.76,1.92.81,2.97.01.21,0,.41.01.61Z"/>
      <path class="cls-2" d="m84.04,83.29q.31.1.04.48c-.01-.16-.03-.31-.04-.48Z"/>
      <path class="cls-2" d="m84.06,82.62s-.06.06-.09.1c-.04-.06-.09-.1-.1-.16-.01-.03.03-.08.09-.19.06.15.1.2.1.25Z"/>
      <path class="cls-2" d="m84,84.51c-.02.1-.04.21-.06.31-.03,0-.06-.01-.09-.01v-.32c.05.01.1.01.15.02Z"/>
      <path class="cls-2" d="m83.74,96.67c.03.1.06.21.08.31-.04.01-.08.02-.13.03-.02-.1-.03-.21-.05-.32.03-.01.07-.01.1-.02Z"/>
      <path class="cls-2" d="m83.7,94.39c.21.27.07.46-.04.64-.18-.22-.06-.4.04-.64Z"/>
      <path class="cls-2" d="m83.3,83.19v.7c-.23-.08-.28-.23-.25-.4.01-.08.11-.15.25-.3Z"/>
      <path class="cls-2" d="m82.96,95.07c.41.34.17.76.21,1.13-.23-.34-.29-.7-.21-1.13Z"/>
      <path class="cls-2" d="m82.9,81.6c.25.22.23.34.03.53-.01-.19-.02-.3-.03-.53Z"/>
      <path class="cls-2" d="m82.91,93.88c.29.16.05.42.13.61-.22-.15-.34-.34-.13-.61Z"/>
      <path class="cls-1" d="m82.68,88.27c.17.61.16,1.23.01,1.85-.17.7-.32,1.4-.53,2.09-.12.4-.32.78-.5,1.16-.03.07-.14.14-.23.17-.63.22-1.27.43-1.9.64-.04.01-.09-.02-.17-.04.24-.4.45-.8.7-1.17.28-.4.28-.86.3-1.31.04-.61,0-1.24-.01-1.85,0-.58-.32-1.06-.5-1.58-.1-.26-.21-.53-.28-.8-.19-.67-.53-1.23-1.03-1.71-.38-.37-.76-.75-1.2-1.18.19-.05.33-.12.48-.12.98.01,1.95.03,2.92.07.13,0,.27.11.37.21.55.53.82,1.23,1.07,1.93.19.53.34,1.09.5,1.64Z"/>
      <path class="cls-2" d="m82.49,97.09c.16.13.13.25-.08.43-.02-.17-.04-.29-.06-.41.05-.01.09-.01.14-.02Z"/>
      <path class="cls-2" d="m82.33,81.95c.27.3.15.57.11.84-.19-.23-.3-.47-.11-.84Z"/>
      <path class="cls-2" d="m81.95,83.17c.05.01.09.01.14.02-.02.12-.03.25-.06.43-.24-.19-.17-.32-.08-.45Z"/>
      <path class="cls-2" d="m81.85,94.34c.09.18.05.38-.12.65-.07-.25-.24-.46-.08-.75.07.04.18.05.2.1Z"/>
      <path class="cls-2" d="m81.75,81.48c.02.17.04.34.07.54-.35-.24-.35-.26-.07-.54Z"/>
      <path class="cls-2" d="m81.24,96.29c.02.17.04.35.06.53-.27-.16-.27-.34-.17-.52.04,0,.08,0,.11,0Z"/>
      <path class="cls-2" d="m81.04,82.74c.24.16.13.33.13.52-.21-.15-.2-.3-.13-.52Z"/>
      <path class="cls-2" d="m80.64,96.51c.02.16.05.32.08.57-.33-.18-.31-.35-.22-.55.05-.01.09-.01.14-.02Z"/>
      <path class="cls-2" d="m80.56,82.03q.19.3-.06.43c.02-.15.04-.26.06-.43Z"/>
      <path class="cls-2" d="m80.11,95.19c.07.28.11.48-.14.71-.13-.29-.1-.49.14-.71Z"/>
      <path class="cls-2" d="m79.96,81.73c.36.18-.02.39.1.56-.2-.15-.25-.31-.1-.56Z"/>
      <path class="cls-1" d="m79.9,90.54c.22.67.28,1.38.02,2.03-.29.76-.66,1.47-1.45,1.91-.88.49-1.8.43-2.8.49.12-.31.21-.55.3-.78.27-.68.6-1.36.6-2.12-.01-1,.18-1.99-.12-3-.43-1.44-1.19-2.59-2.57-3.27-.44-.21-.83-.49-1.13-.98.83-.24,1.61-.28,2.41-.22.28.03.57.03.85.09.24.05.49.14.69.27.64.43,1.12,1.02,1.57,1.63.45.63.73,1.33.98,2.04.23.63.45,1.27.65,1.91Z"/>
      <path class="cls-2" d="m79.76,96.92c.34.26.14.52.21.72h-.15c-.01-.21-.03-.41-.06-.72Z"/>
      <path class="cls-2" d="m79.85,82.74v.61c-.3-.26-.15-.44-.12-.62.04,0,.08.01.12.01Z"/>
      <path class="cls-2" d="m79.52,81.46v.51c-.31-.14-.32-.19,0-.51Z"/>
      <path class="cls-2" d="m79.24,97.14l-.09.36s-.07-.02-.1-.03c.01-.12.03-.24.05-.39.06.03.14.05.14.06Z"/>
      <path class="cls-2" d="m79.03,98.13v.24s-.06,0-.09,0c-.01-.08-.02-.15-.03-.23,0,0,.08-.01.12-.02Z"/>
      <path class="cls-2" d="m78.83,82.36q.2.15.05.45c-.16-.14-.13-.28-.05-.45Z"/>
      <path class="cls-2" d="m78.58,96.64c-.02.27-.03.45-.04.67-.24-.27-.24-.31.04-.67Z"/>
      <path class="cls-2" d="m78.31,81.54l.15.33s-.07.03-.1.05c-.06-.11-.12-.21-.17-.31.04-.02.08-.05.12-.07Z"/>
      <path class="cls-2" d="m78.28,82.8c.02.11.03.21.04.32-.05,0-.1,0-.15,0v-.32s.08-.01.11-.01Z"/>
      <path class="cls-2" d="m78.11,104.43c.02.26.05.52.07.81-.23-.2-.25-.35-.07-.81Z"/>
      <path class="cls-2" d="m77.83,82.07v.43q-.18-.18,0-.43Z"/>
      <path class="cls-2" d="m77.75,96.15c.11.19.13.34-.04.5-.24-.18-.15-.32.04-.5Z"/>
      <path class="cls-2" d="m77.7,97.19q.2.33,0,.68v-.68Z"/>
      <path class="cls-2" d="m77.39,98.28c-.02.08-.04.16-.07.24-.02,0-.05-.01-.08-.02.01-.08.02-.17.02-.25.05,0,.09.02.13.03Z"/>
      <path class="cls-2" d="m77.09,95.74v.53c-.22-.22-.22-.35,0-.53Z"/>
      <path class="cls-2" d="m76.95,80.99c-.04.17-.07.35-.11.53-.16-.22-.18-.41.11-.53Z"/>
      <path class="cls-2" d="m76.91,97.15c0,.21.02.35.03.49-.25-.14-.26-.27-.03-.49Z"/>
      <path class="cls-2" d="m76.94,83.04c-.02.09-.03.19-.06.33-.22-.16-.16-.26.06-.33Z"/>
      <path class="cls-2" d="m76.47,80.19c.02.1.03.2.05.31-.04,0-.07,0-.11.02-.02-.11-.05-.21-.08-.31.05,0,.1-.02.14-.02Z"/>
      <path class="cls-2" d="m76.48,95.77c.01.13.03.26.05.46-.24-.16-.22-.3-.05-.46Z"/>
      <path class="cls-1" d="m76.28,91.58c.07.61-.14,1.17-.29,1.73-.09.31-.21.61-.32.91-.14.4-.38.54-.84.51-.6-.04-1.2-.07-1.81-.13-.26-.02-.51-.11-.79-.18.05-.11.05-.19.09-.23.58-.72.75-1.56.64-2.43-.14-1-.26-2.01-.57-2.96-.35-1.06-.96-2.01-2.02-2.53-.2-.1-.43-.15-.77-.26.55-.21.99-.38,1.43-.56.99.26,2.11.14,2.88,1.02.17.19.4.31.59.48.56.52.92,1.16,1.14,1.88.27.9.53,1.81.64,2.75Z"/>
      <path class="cls-2" d="m75.84,97.52c.22.25.18.47.05.69-.04,0-.07,0-.11,0,.02-.23.04-.45.06-.68Z"/>
      <path class="cls-1" d="m75.81,80.98c.15.44.19.89.01,1.36-.93.07-1.86.15-2.86.23-.12-.31-.23-.64-.35-.97-.01-.03-.02-.07-.03-.1-.08-.41.04-.69.32-.73.35-.06.75.24.79.6.02.14.03.29.04.43.04.01.08.02.12.02.05-.08.13-.16.13-.24,0-.13-.07-.26-.08-.39-.01-.2.14-.29.3-.35.19-.08.31.04.37.18.09.2.15.42.31.63.02-.12.01-.25.06-.36.08-.17.17-.36.31-.49.2-.18.47-.08.56.18Z"/>
      <path class="cls-1" d="m75.68,82.72c.05.32.09.64.13.97-.46.25-.93.31-1.38.4-.26.06-.52.14-.78.2-.22.05-.45.09-.74.14-.05-.57-.09-1.03-.13-1.49.97-.07,1.9-.14,2.9-.22Z"/>
      <path class="cls-2" d="m75.73,80.03c.03.08.07.13.08.19,0,.02-.07.05-.1.08-.03-.05-.08-.1-.09-.15,0-.03.05-.06.11-.12Z"/>
      <path class="cls-2" d="m75.57,96.06c.25.24.02.45.07.76-.25-.31-.28-.52-.07-.76Z"/>
      <path class="cls-2" d="m75.25,97.22c0,.12.03.24.04.36-.04,0-.09,0-.13,0-.01-.11-.02-.23-.03-.35.04-.01.08-.01.12-.02Z"/>
      <path class="cls-2" d="m75.19,98.34v.6c-.2-.24-.22-.38,0-.6Z"/>
      <path class="cls-2" d="m74.68,95.98q.17.15.03.35c0-.11-.02-.21-.03-.35Z"/>
      <path class="cls-2" d="m74.74,79.82c0,.11.01.21.02.32-.04,0-.07.01-.11.02-.02-.1-.04-.2-.07-.3.05-.02.11-.03.16-.04Z"/>
      <path class="cls-2" d="m74.72,97.25c-.02.37-.04.64-.06.9-.24-.41-.24-.5.06-.9Z"/>
      <path class="cls-2" d="m74.14,96.1q.13.31,0,.54v-.54Z"/>
      <path class="cls-2" d="m73.76,79.78c.29.21.21.33-.04.42.01-.11.02-.23.04-.42Z"/>
      <path class="cls-2" d="m73.71,97.4q.17.35-.04.61c.01-.17.02-.33.04-.61Z"/>
      <path class="cls-2" d="m73.2,96.34c.12.23.14.46.04.73-.24-.26-.13-.5-.04-.73Z"/>
      <path class="cls-2" d="m72.68,101.14c.35-.01.35.19.33.41-.1-.12-.19-.24-.33-.41Z"/>
      <path class="cls-2" d="m72.72,98.13c.28.17.03.37.04.57q-.19-.32-.04-.57Z"/>
      <path class="cls-2" d="m72.55,96.74v.6c-.23-.19-.18-.39-.12-.59.04-.01.08-.01.12-.01Z"/>
      <path class="cls-1" d="m72.29,89.9c.12.8.26,1.6.15,2.41-.07.58-.19,1.13-.6,1.58-.24.25-.46.33-.76.18-.32-.17-.64-.37-.94-.59-.31-.22-.6-.48-.89-.74-.13-.11-.25-.26-.44-.46.23-.07.37-.12.53-.16.75-.18,1.23-.79,1.23-1.57-.01-.42.01-.85-.05-1.27-.05-.36-.18-.71-.29-1.06-.09-.26-.15-.57-.32-.78-.22-.28-.54-.49-.82-.73-.08-.07-.18-.13-.27-.2.02-.05.03-.09.04-.14.26-.01.54-.07.78-.01.6.16,1.18.4,1.52.99.13.24.28.46.44.68.4.57.58,1.2.69,1.87Z"/>
      <path class="cls-2" d="m72.22,79.85c.1.21.08.35-.08.5-.1-.2-.1-.34.08-.5Z"/>
      <path class="cls-2" d="m71.94,83.42c.27.26.11.44.12.61h-.12v-.61Z"/>
      <path class="cls-2" d="m71.88,95.89c.01.1.01.2.01.29-.06-.01-.11-.02-.17-.03.03-.09.05-.18.08-.27,0,0,.08.01.08.01Z"/>
      <path class="cls-2" d="m71.82,81.57c.29.2,0,.38,0,.54-.15-.19-.24-.37,0-.54Z"/>
      <path class="cls-2" d="m71.78,98.5c-.03.24-.04.4-.07.63q-.21-.28.07-.63Z"/>
      <path class="cls-2" d="m71.02,96.58q.24.21.11.67c-.03-.2-.07-.41-.11-.67Z"/>
      <path class="cls-1" d="m71.02,83.09c.09.62.17,1.23.26,1.88-.89.38-1.76.75-2.69,1.14-.17-.96-.33-1.84-.5-2.79,1-.08,1.96-.16,2.93-.23Z"/>
      <path class="cls-1" d="m71.05,81.43c.02.39.01.77.01,1.08-.96.12-1.85.24-2.78.35-.16-.58-.45-1.13-.36-1.78q.62-.15.79.39c.08.25.18.5.29.81.17-.25.1-.47.11-.68.02-.27.16-.45.36-.46s.4.17.46.41c.03.15.06.31.09.47,0,.01.03.01.08.02.02-.09.05-.18.06-.27.03-.13.04-.27.08-.39.06-.21.3-.37.5-.34.23.02.3.21.31.39Z"/>
      <path class="cls-2" d="m70.85,79.82c.15.26.06.35-.13.51.05-.2.08-.31.13-.51Z"/>
      <path class="cls-2" d="m70.89,95.56v.55c-.17-.17-.21-.35,0-.55Z"/>
      <path class="cls-2" d="m70.39,99.43c.04.07.08.15.11.22-.03.02-.06.03-.08.05-.04-.08-.08-.15-.11-.23.03-.01.05-.02.08-.04Z"/>
      <path class="cls-2" d="m70.4,96.64c-.01.07-.02.13-.04.2-.04,0-.07,0-.11,0,0-.07.02-.15.04-.22.04.01.11.02.11.03Z"/>
      <path class="cls-1" d="m70.3,90.38c.01.13.03.27,0,.4-.15.78-.79,1.55-1.85.86-.42-.28-.71-.66-.88-1.08.29-.16.63-.25.82-.48.24-.27.27-.67.24-1.05s-.22-.66-.43-.95c-.23-.34-.62-.17-.92-.27,0-.72.48-1.12,1.15-.93.56.16,1.05.43,1.32,1.01.24.54.4,1.1.46,1.69.03.26.06.53.09.8Z"/>
      <path class="cls-2" d="m70.12,98.35c.36.11.25.28.13.45-.04-.13-.07-.26-.13-.45Z"/>
      <path class="cls-2" d="m70.08,95.18c-.05.13-.09.26-.15.44q-.12-.31.15-.44Z"/>
      <path class="cls-2" d="m69.7,79.95c.05,0,.1,0,.15.02-.04.15-.07.31-.13.53-.27-.28-.13-.41-.02-.55Z"/>
      <path class="cls-2" d="m69.49,97.13v.32c-.05,0-.09-.01-.14-.01.03-.11.05-.21.07-.32.02,0,.05,0,.07,0Z"/>
      <path class="cls-2" d="m68.95,94.73c.14.21.05.37-.05.61q-.1-.36.05-.61Z"/>
      <path class="cls-2" d="m68.48,79.97c.19.24.09.36-.08.49-.14-.19-.08-.32.08-.49Z"/>
      <path class="cls-2" d="m68.51,96.11c.01.16.02.31.04.51q-.21-.24-.14-.5s.07-.01.1-.01Z"/>
      <path class="cls-1" d="m68.07,88.31c.25.39.61.77.35,1.29-.06.13-.17.29-.28.33-.43.14-.88.33-1.31.32-.67-.01-1.09.35-1.44.79-.58.73-1.14,1.46-1.92,1.99-.6.41-1.28.68-2,.75-.78.08-1.58.08-2.37.12-.08,0-.16-.02-.23-.02-.18-.21-.15-.39-.05-.61.16-.38.36-.77.39-1.17.03-.48-.1-.97-.49-1.33-.14-.13-.29-.25-.45-.38-.04.32-.08.61-.13.98-.44-.34-.42-.83-.71-1.25-.1.33-.19.6-.27.87-.03,0-.05.01-.08.01-.05-.17-.09-.35-.14-.53-.04-.19-.08-.39-.13-.6-.24,0-.29.2-.34.37-.22.71-.61.99-1.35,1.03-.38.02-.76.02-1.06-.23-.22-.18-.39-.45-.57-.69-.18-.22-.35-.44-.52-.67-.05-.07-.12-.12-.15-.2-.29-.79-.57-1.58-.3-2.43.11-.32.26-.62.39-.93.05-.13.08-.27.12-.41.02-.04.03-.12.05-.13.48-.14.31-.55.36-.86,0-.05.02-.09.02-.09.77-.34,1.45-.65,2.14-.96.39-.18.77-.34,1.21-.32.27.02.41.11.45.37.1.62.2,1.23.3,1.84.03.17.06.33.12.49.1.3.31.48.64.46.2,0,.4,0,.64,0,.05.63.05,1.25.38,1.78.32.5.68.98,1.07,1.56.18-.23.32-.37.41-.53.33-.67.58-1.36.71-2.1.03-.18.09-.35.14-.56.64.02,1.19-.24,1.75-.44.72-.25,1.37-.11,1.95.35.24.19.42.46.63.7.29.33.17.69.05,1.05-.05.17-.12.33-.19.5.03.01.06.02.09.04.13-.26.26-.52.41-.8.06,0,.18-.04.25,0,.2.11.38.08.59.03.31-.06.66-.1.87.22Zm-6.14,1.79c-.36.1-.67.22-.99.28-.31.05-.64.08-.95.06s-.61-.1-1-.17c.85.78,2.21.59,2.94-.17Zm-6.27-4.34c.16.22.32.44.49.66-.04-.46-.21-.83-.61-1.06-.55-.31-1.19.07-1.42.57-.3.64-.57,1.3-.5,2.04,0,.08.04.16.08.31.19-.64.12-1.27.59-1.84-.03.47-.11.82-.08,1.16.06.69.21,1.37.52,1.99.05.09.06.2.11.37-.37-.18-.62-.38-.76-.68-.14-.28-.25-.58-.36-.84-.08.39.12.71.32,1.04.22.36.55.54.87.76.29.19.42.17.65-.09.08-.08.15-.18.18-.21-.02-.24-.05-.37-.02-.5.07-.32.18-.64.26-.96.18-.77-.04-1.5-.27-2.22-.05-.15-.11-.3-.16-.45.04-.02.07-.03.11-.05Zm-.85-.84c.14-.02.29-.04.43-.06-.07-.08-.13-.12-.2-.11-.07,0-.15.03-.23.05v.12Z"/>
      <path class="cls-2" d="m68.47,98.13c.01.05.03.09.03.14,0,.18-.02.35-.03.58-.22-.28-.14-.5-.13-.72h.13Z"/>
      <path class="cls-2" d="m68.3,93.74c.03.08.07.17.11.26-.03,0-.06.02-.08.03-.05-.08-.09-.16-.13-.25.03-.01.06-.03.1-.04Z"/>
      <path class="cls-2" d="m67.89,105.72c.01.11.02.22.03.34h-.07v-.34h.04Z"/>
      <path class="cls-2" d="m67.6,93.67v.82c-.25-.31-.26-.49,0-.82Z"/>
      <path class="cls-2" d="m67.56,83.26v.37q-.15-.18,0-.37Z"/>
      <path class="cls-2" d="m67.33,98.4c.23.14.23.3.11.51-.22-.14-.17-.31-.11-.51Z"/>
      <path class="cls-2" d="m67.38,85.47v.67c-.23-.2-.18-.39,0-.67Z"/>
      <path class="cls-2" d="m67.14,80.56s.07.03.11.04c-.04.11-.07.23-.12.39q-.17-.23.01-.43Z"/>
      <path class="cls-2" d="m67.22,93.04s-.07,0-.1.02c-.09-.15-.19-.29.07-.53.01.22.02.36.03.51Z"/>
      <path class="cls-2" d="m67.12,96.74q.17.17,0,.45v-.45Z"/>
      <path class="cls-2" d="m67.1,84.07c.01.19.03.38.05.57-.04,0-.08,0-.12.01v-.57s.04-.01.07-.01Z"/>
      <path class="cls-2" d="m67.05,83.42c.02.1.04.19.06.28-.04.02-.08.03-.12.04-.02-.09-.04-.19-.06-.29l.12-.03Z"/>
      <path class="cls-2" d="m67.05,82.42v.48c-.09-.14-.14-.18-.14-.21.02-.1.05-.19.14-.27Z"/>
      <path class="cls-2" d="m66.86,86.55c.01.14.02.28.04.5-.19-.2-.28-.32-.04-.5Z"/>
      <path class="cls-2" d="m66.77,98.57v.65c-.17-.24-.23-.44,0-.65Z"/>
      <path class="cls-2" d="m66.63,91.43c.12.26.1.51.03.82-.26-.29-.18-.56-.03-.82Z"/>
      <path class="cls-2" d="m66.48,94c.14.26.1.46.06.76-.17-.28-.23-.47-.06-.76Z"/>
      <path class="cls-2" d="m66.42,82.9c.02.09,0,.18,0,.27-.03,0-.07.01-.1.01-.04-.08-.08-.17-.14-.3.11.01.23,0,.24.02Z"/>
      <path class="cls-2" d="m66.52,85.19c-.05.21-.09.35-.13.49-.17-.2-.19-.36.13-.49Z"/>
      <path class="cls-2" d="m66.29,97.1c.13.3.2.59-.03.94-.18-.37-.05-.65.03-.94Z"/>
      <path class="cls-2" d="m66.2,81.05c.24.28.24.54.02.96-.13-.32-.22-.63-.02-.96Z"/>
      <path class="cls-2" d="m66.26,95.58c0,.17,0,.34-.02.51-.04,0-.08,0-.13,0-.02-.17-.12-.35.15-.5Z"/>
      <path class="cls-2" d="m66.16,91.38c.17.18.11.32-.02.48-.13-.16-.22-.3.02-.48Z"/>
      <path class="cls-2" d="m66.18,79.36c-.02.24-.04.48-.06.77-.26-.32-.26-.4.06-.77Z"/>
      <path class="cls-2" d="m66.06,83.43c.24.25.11.44.01.64-.15-.19-.15-.39-.01-.64Z"/>
      <path class="cls-2" d="m65.67,85.09v.33q-.14-.15,0-.33Z"/>
      <path class="cls-2" d="m65.55,82.49c.23.19.12.35.06.58-.17-.21-.15-.37-.06-.58Z"/>
      <path class="cls-2" d="m65.57,94.53v.43q-.19-.18,0-.43Z"/>
      <path class="cls-2" d="m65.51,92.85c.01.11.02.22.04.4-.24-.14-.22-.26-.04-.4Z"/>
      <path class="cls-2" d="m65.47,97.87s-.05.09-.07.13c-.04-.04-.09-.07-.11-.12,0-.02.05-.08.08-.08.03,0,.06.04.1.07Z"/>
      <path class="cls-2" d="m65.43,99.57c-.02.11-.04.23-.07.34-.02,0-.05-.01-.08-.01.03-.12.05-.23.08-.35.02.01.05.01.07.02Z"/>
      <path class="cls-2" d="m65.37,96.21v.45c-.13-.18-.23-.29,0-.45Z"/>
      <path class="cls-2" d="m65.34,83.56c-.03.29.15.56-.07.85-.2-.63-.2-.68.07-.85Z"/>
      <path class="cls-2" d="m65.24,81.31v.79q-.33-.5,0-.79Z"/>
      <path class="cls-2" d="m64.78,85.27c.01.07-.03.14-.05.21-.03,0-.07,0-.11-.01v-.42s.07,0,.1-.02c.02.08.06.16.06.24Z"/>
      <path class="cls-2" d="m64.77,80.84v.27h-.07v-.27h.07Z"/>
      <path class="cls-2" d="m64.66,82.75q.14.29,0,.64c-.2-.25-.24-.44,0-.64Z"/>
      <path class="cls-2" d="m64.49,99.66q.19.25,0,.49v-.49Z"/>
      <path class="cls-2" d="m64.31,95.08c.21.26.18.54.07.81-.03-.27-.05-.54-.07-.81Z"/>
      <path class="cls-2" d="m64.29,93.65c.02.1.03.2.05.31-.04,0-.08,0-.12,0-.01-.09-.02-.19-.03-.28.03,0,.06-.02.1-.02Z"/>
      <path class="cls-2" d="m64.05,98.72v.66h-.07v-.66h.07Z"/>
      <path class="cls-2" d="m63.9,81.68q.29.2.1.75c-.05-.25-.26-.47-.1-.75Z"/>
      <path class="cls-2" d="m64.02,83.06c-.02.17-.03.29-.04.41,0,.13.01.26.03.48-.37-.43-.36-.64.01-.89Z"/>
      <path class="cls-2" d="m63.77,95.28q.14.16-.1.41c.03-.13.06-.26.1-.41Z"/>
      <path class="cls-2" d="m63.77,96.66q.22.28,0,.76v-.76Z"/>
      <path class="cls-2" d="m63.6,84.41c.27.22.04.43.04.69-.27-.29-.15-.48-.04-.69Z"/>
      <path class="cls-2" d="m63.42,82.45v.53c-.17-.21-.22-.34,0-.53Z"/>
      <path class="cls-2" d="m63.32,95.01v.6h-.07v-.59s.05-.01.07-.01Z"/>
      <path class="cls-2" d="m63.13,99.57c0,.12-.03.23-.04.34-.04,0-.08-.01-.12-.02l.09-.33s.05.01.07.01Z"/>
      <path class="cls-2" d="m63.03,97.98c.03.22.05.44.08.66-.21-.2-.22-.42-.08-.66Z"/>
      <path class="cls-2" d="m63.02,81.78c-.06.07-.1.11-.14.15-.04-.04-.11-.07-.12-.12,0-.04.06-.1.09-.14.05.03.1.06.17.11Z"/>
      <path class="cls-2" d="m62.58,84.63c.29.18.33.47.12.93-.19-.37-.2-.49-.12-.93Z"/>
      <path class="cls-2" d="m62.65,82.84c.14.28.07.5-.08.78-.15-.33-.22-.55.08-.78Z"/>
      <path class="cls-2" d="m62.44,98.91c.23.12.19.27.16.42-.04,0-.08,0-.12,0-.01-.14-.02-.28-.04-.43Z"/>
      <path class="cls-2" d="m62.47,96.37v.49h-.12c0-.16-.01-.33-.02-.49h.14Z"/>
      <path class="cls-2" d="m62.39,97.53c.01.14.02.28.03.43-.04,0-.08,0-.13,0v-.42h.1Z"/>
      <path class="cls-2" d="m62.25,99.62c.03.14.06.27.08.4-.02.01-.04.02-.06.04-.03-.04-.09-.07-.09-.12-.03-.1-.03-.21-.04-.32h.11Z"/>
      <path class="cls-2" d="m62.35,82.04c-.02.25-.04.42-.06.7q-.21-.41.06-.7Z"/>
      <path class="cls-2" d="m62.29,94.53v.41c-.18-.14-.19-.25,0-.41Z"/>
      <path class="cls-2" d="m61.89,84.36q.08.42-.06.71c-.15-.38-.15-.42.06-.71Z"/>
      <path class="cls-2" d="m61.74,100.14c.23.16.17.3.14.44-.04,0-.08,0-.11.02-.01-.13-.02-.26-.03-.46Z"/>
      <path class="cls-2" d="m61.81,96.44c-.03.28-.07.56-.11.84-.13-.29-.15-.58,0-.85.04,0,.08.01.11.01Z"/>
      <path class="cls-2" d="m61.6,83.09v.68c-.3-.26-.19-.47-.12-.68h.12Z"/>
      <path class="cls-2" d="m61.4,99.7c-.02.1-.03.2-.05.3-.04-.01-.07-.02-.11-.02.02-.1.05-.2.07-.3.03,0,.06.01.09.02Z"/>
      <path class="cls-2" d="m61.13,84.49c.21.2.2.39.12.59h-.12v-.59Z"/>
      <path class="cls-1" d="m61.2,86.43c0,.3,0,.61-.05.9-.14.58-.32,1.16-.49,1.74-.03.09-.11.18-.17.26-.02-.01-.05-.02-.08-.03.04-.2.11-.41.1-.61-.03-.71-.09-1.43-.14-2.15-.02-.23.09-.34.41-.39.27-.05.4.02.42.28Z"/>
      <path class="cls-2" d="m60.94,90.38c.32-.06.63-.18.99-.28-.73.76-2.09.95-2.94.17.39.07.69.15,1,.17s.64-.01.95-.06Z"/>
      <path class="cls-2" d="m61.1,96.57c0,.09.01.18,0,.27,0,.08-.02.15-.03.23-.01-.01-.03-.01-.04-.01v-.49h.07Z"/>
      <path class="cls-2" d="m60.79,97.63c.03.22.07.43.11.65-.04.02-.07.03-.11.05l-.09-.69s.06-.01.09-.01Z"/>
      <path class="cls-2" d="m60.87,82.61c0,.08-.01.15-.02.23-.03,0-.07,0-.1,0,0-.08.02-.15.03-.23.03,0,.06,0,.09.01Z"/>
      <path class="cls-2" d="m60.64,83.45c.11.29.09.48-.14.68-.15-.28-.05-.45.14-.68Z"/>
      <path class="cls-2" d="m60.29,95.79c.23.2.23.32.04.46-.01-.12-.02-.24-.04-.46Z"/>
      <path class="cls-2" d="m60.33,84.81c.2.15.22.29,0,.5v-.5Z"/>
      <path class="cls-1" d="m60,86.41c.17.57.27,1.14.21,1.74-.03.29,0,.58,0,.87-.05.02-.1.03-.14.05-.29-.61-.6-1.2-.84-1.81-.1-.24-.09-.55-.03-.8.03-.16.22-.35.38-.4.22-.06.36.15.42.35Z"/>
      <path class="cls-2" d="m60.18,98.42c-.01.13-.01.26-.02.39h-.1v-.39h.12Z"/>
      <path class="cls-2" d="m60.07,99.92v.39q-.16-.19,0-.39Z"/>
      <path class="cls-2" d="m59.88,96.82v.51s-.04-.01-.06-.01v-.5h.06Z"/>
      <path class="cls-2" d="m59.47,98.51v.66h-.04v-.66h.04Z"/>
      <path class="cls-2" d="m59.33,95.22c-.01.21-.03.42-.04.62h-.06v-.62h.1Z"/>
      <path class="cls-2" d="m59.28,84.93v.57c-.26-.2-.21-.38,0-.57Z"/>
      <path class="cls-2" d="m59.14,83.38c.05.01.09.01.14.02-.03.13-.06.26-.11.44-.25-.23-.17-.35-.03-.46Z"/>
      <path class="cls-2" d="m59.04,97.15c-.04.15-.08.29-.13.48q-.12-.31.13-.48Z"/>
      <path class="cls-2" d="m58.74,98.34c.01.1.03.19.04.29-.04,0-.09.01-.13.01v-.29s.06-.01.09-.01Z"/>
      <path class="cls-2" d="m58.79,99.36c-.02.14-.04.29-.08.53-.18-.26-.1-.4.08-.53Z"/>
      <path class="cls-1" d="m58.67,92.14c.21.46.1.81-.03,1.17-.01.04-.12.09-.15.07-.06-.03-.11-.11-.15-.17,0-.02.02-.06.02-.09.1-.3.19-.6.31-.98Z"/>
      <path class="cls-2" d="m58.5,84.51c-.02.14-.04.27-.06.41-.24-.16-.2-.3-.09-.43.05.01.1.01.15.02Z"/>
      <path class="cls-2" d="m58.42,94.98c-.03.1-.06.2-.09.31-.13-.14-.15-.26.09-.31Z"/>
      <path class="cls-2" d="m58.13,83.31s.09.02.14.03c-.03.13-.06.25-.09.41-.26-.19-.2-.31-.05-.44Z"/>
      <path class="cls-2" d="m58.24,96.66c-.02.11-.05.22-.08.34-.03-.01-.06-.01-.09-.01.02-.12.04-.24.06-.35.04.01.08.01.11.02Z"/>
      <path class="cls-2" d="m58.13,98.1l-.09.51s-.07-.02-.1-.03c.03-.16.05-.33.08-.5.04,0,.07,0,.11.02Z"/>
      <path class="cls-1" d="m58,92.48c.02.24.02.41-.23.64-.02-.29-.07-.5.23-.64Z"/>
      <path class="cls-2" d="m57.42,97.85v.45q-.15-.21,0-.45Z"/>
      <path class="cls-1" d="m57.27,92.3c.06.08.11.15.18.25-.08.06-.17.16-.19.14-.07-.05-.16-.13-.16-.2,0-.06.11-.13.17-.19Z"/>
      <path class="cls-2" d="m57.05,95.6v1.01c-.17-.3-.17-.54,0-1.01Z"/>
      <path class="cls-2" d="m57.04,99.05v.49h-.07v-.49h.07Z"/>
      <path class="cls-2" d="m56.83,97.77c-.04.13-.09.26-.14.43q-.1-.26.14-.43Z"/>
      <path class="cls-1" d="m56.39,91.61c.16-.02.36-.14.37.25-.16-.05-.28-.09-.4-.13l.03-.12Z"/>
      <path class="cls-2" d="m56.59,96.81c.01.08.01.16.02.24-.03,0-.06.01-.09.01-.02-.08-.03-.16-.05-.25h.12Z"/>
      <path class="cls-1" d="m56.7,92.79q-.28.04-.44-.28c.17.11.28.18.44.28Z"/>
      <path class="cls-1" d="m56.31,94.15c.18-.35.35-.09.5-.07-.15.02-.3.04-.5.07Z"/>
      <path class="cls-1" d="m56.5,93.48s0,.09,0,.13c-.09,0-.17-.01-.25-.01v-.14c.08.01.16.01.24.02Z"/>
      <path class="cls-2" d="m56.21,95.57v.86c-.1-.27-.27-.52,0-.86Z"/>
      <path class="cls-2" d="m56.15,86.42c-.17-.22-.33-.44-.49-.66-.04.02-.07.03-.11.05.05.15.11.3.16.45.23.72.45,1.45.27,2.22-.08.32-.19.64-.26.96-.03.13,0,.26.02.5-.03.03-.1.13-.18.21-.23.26-.36.28-.65.09-.32-.22-.65-.4-.87-.76-.2-.33-.4-.65-.32-1.04.11.26.22.56.36.84.14.3.39.5.76.68-.05-.17-.06-.28-.11-.37-.31-.62-.46-1.3-.52-1.99-.03-.34.05-.69.08-1.16-.47.57-.4,1.2-.59,1.84-.04-.15-.07-.23-.08-.31-.07-.74.2-1.4.5-2.04.23-.5.87-.88,1.42-.57.4.23.57.6.61,1.06Zm-.46,1.43c.01-.45-.28-.76-.74-.8-.3-.02-.61.16-.63.37-.04.5.24.87.67.9.41.02.69-.17.7-.47Zm-.03.55h-1.2c.3.49.26,1.11.73,1.57.34-.53.39-1.08.47-1.57Zm.02-1.34c-.15-.4-.29-.79-.45-1.17-.03-.07-.12-.17-.19-.17-.08-.01-.19.07-.23.15-.14.24-.27.5-.37.76-.05.11-.03.24-.03.3.43.04.8.08,1.27.13Z"/>
      <path class="cls-2" d="m56.02,99.22v.42h-.07v-.41s.04-.01.07-.01Z"/>
      <path class="cls-1" d="m56.14,93.84c-.31.09-.54.08-.84-.14.34-.06.58-.13.84.14Z"/>
      <path class="cls-2" d="m55.85,97.57c-.04.24-.08.47-.11.7-.04-.01-.08-.01-.12-.02.04-.23.08-.46.11-.7.04.01.08.02.12.02Z"/>
      <path class="cls-2" d="m55.53,82.54c.22.2.24.32.06.51-.02-.18-.04-.3-.06-.51Z"/>
      <path class="cls-1" d="m55.62,93.18c-.25.16-.36.04-.46-.1.12.03.25.06.46.1Z"/>
      <path class="cls-2" d="m55.24,84.86c-.14.02-.29.04-.43.06v-.12c.08-.02.16-.05.23-.05.07-.01.13.03.2.11Z"/>
      <path class="cls-2" d="m55.18,97.91v.26h-.09c0-.08-.02-.17-.02-.25.04,0,.08,0,.11,0Z"/>
      <path class="cls-2" d="m54.93,87.46c.06.16.11.26.12.36,0,.04-.08.08-.12.12-.07-.09-.15-.16-.18-.26-.02-.03.08-.11.18-.22Z"/>
      <path class="cls-2" d="m54.92,94.97c-.03.23-.06.46-.1.68-.03,0-.07-.01-.11-.01.03-.23.05-.46.08-.69.04,0,.09,0,.13.02Z"/>
      <path class="cls-2" d="m54.66,82.38c.13.27.13.28-.02.46,0-.13.01-.25.02-.46Z"/>
      <path class="cls-1" d="m54.66,92.79c.05.09.09.13.1.19.01.02-.07.08-.09.07-.06-.02-.1-.06-.15-.1.04-.04.07-.08.14-.16Z"/>
      <path class="cls-2" d="m54.29,97.55c.03.13.07.25.1.37-.04,0-.08.01-.12.01-.02-.12-.03-.24-.05-.36.03-.01.05-.01.07-.02Z"/>
      <path class="cls-2" d="m54.28,98.93c.18.21.05.32-.07.41.02-.11.03-.23.07-.41Z"/>
      <path class="cls-2" d="m54.04,95.18q.13.23,0,.44v-.44Z"/>
      <path class="cls-2" d="m54.08,82.5v.66q-.27-.3,0-.66Z"/>
      <path class="cls-2" d="m53.64,97.21c.24.18.19.36.11.57-.27-.16-.11-.35-.11-.57Z"/>
      <path class="cls-2" d="m53.72,95.85c.01.2.02.39.03.59-.04.01-.08.01-.12.01,0-.2-.03-.4-.04-.6h.13Z"/>
      <path class="cls-1" d="m53.3,90.7c.19.07.35.15.26.46-.11-.2-.19-.33-.26-.46Z"/>
      <path class="cls-2" d="m53.52,82.79c-.04.22-.07.34-.09.46-.15-.16-.16-.28.09-.46Z"/>
      <path class="cls-1" d="m53.18,90.32s-.06.05-.09.07c-.11-.14-.23-.28-.34-.42.03-.03.06-.05.09-.08.23.06.25.27.34.43Z"/>
      <path class="cls-2" d="m53.12,94.13c-.04.28-.07.55-.11.83-.15-.3-.13-.59.11-.83Z"/>
      <path class="cls-1" d="m52.81,90.45c.1.12.2.23.3.34-.25.03-.33-.1-.4-.25.04-.03.07-.06.1-.09Z"/>
      <path class="cls-2" d="m53.11,96.67c-.04.21-.08.41-.14.71-.14-.34-.12-.56.14-.71Z"/>
      <path class="cls-2" d="m52.75,81.95c.11.46,0,.79-.16,1.1-.09-.35-.19-.71.16-1.1Z"/>
      <path class="cls-2" d="m52.77,81.48c-.02.1-.03.21-.04.32-.14-.13-.16-.25.04-.32Z"/>
      <path class="cls-2" d="m52.45,96.04c-.01.07-.03.14-.05.2-.03-.01-.06-.01-.09-.02.02-.08.05-.15.07-.22.03,0,.07.03.07.04Z"/>
      <path class="cls-1" d="m52.1,91.25c.22.03.24.22.21.45-.11-.12-.23-.24-.34-.36.05-.03.09-.06.13-.09Z"/>
      <path class="cls-2" d="m52.24,93.43c.02.25.03.4.05.62-.19-.2-.25-.34-.05-.62Z"/>
      <path class="cls-1" d="m51.86,86c.03.28-.08.48-.33.6,0-.25.03-.49.33-.6Z"/>
      <path class="cls-2" d="m51.84,96.01v.78c-.24-.3-.11-.55-.14-.78h.14Z"/>
      <path class="cls-1" d="m52.04,85.3c-.02.28-.2.38-.37.47.06-.19.09-.41.37-.47Z"/>
      <path class="cls-2" d="m51.65,81.61s.09.04.13.06c-.06.23-.11.44-.18.74-.25-.23-.22-.4-.14-.57.04-.09.13-.16.19-.23Z"/>
      <path class="cls-2" d="m51.7,95.27c.02.08.04.17.05.25h-.13c0-.08-.01-.16,0-.24h.08Z"/>
      <path class="cls-1" d="m51.39,89.34c.09.28.18.55.26.83-.05.02-.1.03-.15.05-.07-.28-.14-.57-.21-.85.04-.01.07-.02.1-.03Z"/>
      <path class="cls-2" d="m51.6,83.36c-.02.28-.04.48-.05.69q-.29-.39.05-.69Z"/>
      <path class="cls-2" d="m51.48,92.99c-.06.29-.11.57-.16.85-.23-.25-.21-.51.16-.85Z"/>
      <path class="cls-2" d="m51.4,82.91s-.07.21-.11.32h-.13c-.07-.15-.15-.31-.22-.46l.1-.1c.12.08.28.13.36.24Z"/>
      <path class="cls-2" d="m51.05,86.81c.06-.33.11-.66.17-.98-.02.34-.03.66-.05,1-.04-.01-.08-.01-.12-.02Z"/>
      <path class="cls-2" d="m50.91,83.54c.14.33-.01.57-.16.8-.05-.27-.18-.57.16-.8Z"/>
      <path class="cls-2" d="m50.93,94.79v.48h-.16c.03-.16.05-.32.08-.49.02.01.05.01.08.01Z"/>
      <path class="cls-2" d="m50.57,85.42q.27.05.14.35c-.05-.11-.09-.22-.14-.35Z"/>
      <path class="cls-2" d="m50.74,92.87v.62c-.21-.26-.21-.41,0-.62Z"/>
      <path class="cls-2" d="m50.65,91.26c-.04.23-.09.46-.14.7-.03,0-.07,0-.11-.02-.05-.25-.07-.51.25-.68Z"/>
      <path class="cls-2" d="m50.25,89.38q.1.19.03.52-.19-.3-.03-.52Z"/>
      <path class="cls-2" d="m50.19,86.73q.22.25-.05,1.16c-.17-.71-.16-.86.05-1.16Z"/>
      <path class="cls-2" d="m50.2,88.57v.31s-.06.01-.09.01c-.02-.1-.03-.2-.05-.31.05,0,.09-.01.14-.01Z"/>
      <path class="cls-2" d="m47.7,39.27s0,.02,0,.03c0,0,0-.02-.02-.03h.01Z"/>
      <path class="cls-2" d="m44.46,92.2s-.03.04-.04.06c-.58-.18-1.16-.4-1.76-.53-.59-.13-1.19-.19-1.79-.24-.34-.04-.68.01-1.02-.02-.66-.05-1.27.12-1.87.36-.46.19-.9.45-1.34.68-.12.06-.24.13-.36.19-.92.42-1.8.92-2.68,1.42-.57.33-1.24.52-1.89.69-.76.21-1.54.35-2.32.46-.42.06-.87.03-1.3-.02-1.07-.13-1.87-.77-2.62-1.48-.39-.37-.74-.78-1.11-1.17-.04-.04-.06-.1-.1-.17.3-.13.42.06.56.23.61.79,1.31,1.48,2.22,1.93.58.29,1.2.41,1.85.37,1.35-.09,2.65-.42,3.92-.83.61-.19,1.15-.55,1.72-.85.43-.23.84-.49,1.28-.7.81-.39,1.64-.78,2.47-1.13.48-.2.98-.3,1.53-.21.36.06.74-.02,1.11-.02.87.01,1.75.03,2.57.38.35.15.65.39.97.6Z"/>
    </g>
  </g>
</svg>