<?xml version="1.0" encoding="UTF-8"?>
<svg id="Layer_1" data-name="Layer 1" xmlns="http://www.w3.org/2000/svg" viewBox="0 0 136.06 136.06">
  <defs>
    <style>
      .cls-1 {
        fill: #0c3454;
      }

      .cls-2 {
        fill: #fff;
      }

      .cls-2, .cls-3 {
        opacity: .8;
      }

      .cls-3 {
        fill: #324a8d;
      }

      .cls-4 {
        fill: #d9c6b8;
      }
    </style>
  </defs>
  <path class="cls-1" d="m118.32,87c-1.92.1-3.42,1.25-4.52,2.38-.82,1.06-1.61,2.38-3.49,2.42-.65-.12-1.26-.29-1.77-.76-.6-.56-1.75-3.1-1.78-3.18-.23-.85-.79-1.44-1.49-1.92-.15-.11-.84-.51-1.04-.53-.59-.08-1.18-.17-1.76,0-.44.12-.89.19-1.28.47-.65.47-1.08,1.13-1.53,1.77-.17.24-.35.5-.42.78-.17.68-.58,1.23-.92,1.82-.18.32-.43.62-.7.86-.66.6-1.36,1.14-2.25,1.39-.15-.27-.06-.58-.12-.87-.18-.85-.13-1.72-.16-2.58-.01-.34.03-.68.05-1.03.04-.86.09-1.72.12-2.59,0-.23-.08-.47-.08-.71,0-.73.04-1.45-.17-2.17-.07-.22-.07-.47-.09-.71-.03-.35-.06-.71-.06-1.06,0-.55.03-5.1.02-5.64-.02-.59-.09-1.18-.11-1.78-.01-.34.04-.68.04-1.02.01-.83.01-1.66.01-2.49,0-.52,0-11.04,0-11.56,0-.53,0-1.07.04-1.6.04-.81.12-1.62.16-2.43.04-.7.03-1.4.07-2.09.05-.83.12-1.66.2-2.49.04-.45.12-.9.19-1.33,1.09.05,2.07-.22,2.96-.75.95-.56,1.4-1.48,1.67-2.53.32.28.6.55.9.79.62.5,1.37.71,2.14.82,1.27.19,2.44.03,3.32-1.02.39-.47.77-.95.73-1.61,0-.06,0-.12,0-.18.08-.46-.04-.87-.26-1.27-.12-.21-.22-.43-.35-.69.41.16.75.3,1.1.42.19.06.41.08.61.11.25.03.5.02.74.05.61.08,1.21.1,1.73-.33.15-.13.34-.22.52-.33.52-.32,1.05-.67,1.35-1.21.29-.52.68-.99.86-1.59.12-.41.23-.8.19-1.22-.04-.4.04-.83-.28-1.17-.05-.05-.07-.13-.1-.2-.26-.58-.59-1.1-1.16-1.43-.07-.04-.14-.09-.21-.14.04-.04.06-.07.09-.07.22-.05.44-.09.66-.13,1.1-.2,1.91-.82,2.46-1.79.03-.05.07-.11.07-.16-.06-.48.21-.89.3-1.33.12-.56.19-1.11.05-1.66-.19-.73-.44-1.44-.88-2.08-.58-.85-1.26-1.57-2.26-1.94-.27-.1-.53-.22-.79-.34.11-.17.21-.3.29-.46.38-.72.54-1.48.42-2.29-.06-.39-.13-.8-.29-1.16-.29-.6-.72-1.11-1.28-1.5-.48-.34-1.03-.49-1.6-.58-.5-.08-1-.09-1.51-.11-.22,0-.44.06-.66.07-.62.04-1.25.05-1.86.11-.23.03-.51.04-.68.28-.03.04-.1.05-.16.06-.82.09-1.61.28-2.32.77-.55-.37-1.09-.74-1.64-1.1-.62-.42-1.26-.79-2.03-.87-.24-.02-.48-.03-.71-.08-.55-.12-1.09-.21-1.67-.09-.66.15-1.35.19-2.01.32-.34.07-.68.2-.95.47-.13.13-.31.23-.49.31-.77.35-1.38.91-1.91,1.56-.38.47-.77.93-.98,1.51-.05.13-.16.25-.27.33-.23.16-.48.31-.73.43-.73.35-1.25.94-1.78,1.53-.67.75-1.02,1.68-1.38,2.59-.28.73-.51,1.5-.65,2.27-.24,1.28-.48,2.56-.56,3.87-.05.93-.12,1.86-.17,2.8-.01.28.02.56.03.84.02.71.03,1.43.07,2.14.06.95.14,1.89.21,2.84.11,1.56,0,3.12.17,4.69.12,1.1.09,2.22.11,3.33.01.86.03,1.72,0,2.59-.04,1.02-.11,2.05-.18,3.07-.07,1.14-.16,12.28-.22,13.43-.06,1.05-.08,2.11-.13,3.16-.05,1.06-.14,2.11-.14,3.17,0,1.08.1,6.17.13,7.25.04,1.33.08,2.65.09,3.98,0,1.25-.02,2.5-.06,3.75-.05,1.6-.07,3.21-.28,4.81-.09.69-.23,1.38-.32,2.07-.1.75-.18,1.51-.27,2.26-.1.83-.21,1.65-.29,2.48-.06.67-.08,1.34-.12,2.01-.06,1.22-.1,2.44-.16,3.66-.01.22-.07.43-.11.65-.06.32-.12.64-.18.96-.11.6-.19,1.21-.35,1.79-.13.5-.48.85-.97,1.05-.14.06-.27.12-.4.19-.83.43-1.73.59-2.64.4-1.29-.27-2.6-.27-3.91-.36-.62-.04-1.24-.1-1.87-.15-.74-.06-1.48-.12-2.23-.18-.31-.02-.63,0-.94-.03-1.07-.08-2.14-.13-3.21-.07-.92.06-1.84.11-2.76.17-.76.05-1.52.07-2.25.27-.06.02-.12,0-.18,0-.95.05-1.9.11-2.85.17-.42.02-.83.03-1.25.08-1.33.16-2.65.36-3.98.5-.68.07-1.36.19-2.04.06-.39-.07-.79-.14-1.18-.18-.73-.08-1.44-.21-2.14-.45-.7-.24-1.2-.75-1.54-1.35-.46-.8-.79-1.67-.99-2.57-.07-.33-.08-.68-.14-1.01-.21-1.19-.29-2.39-.25-3.59,0-.12,0-.24,0-.36-.05-1.22-.11-2.44-.14-3.66-.01-.61.03-1.21.05-1.82,0-.18,0-.36,0-.54-.02-.62-.06-1.25-.06-1.87,0-1.14.04-2.29.06-3.43.02-1.26.01-2.53.07-3.79.07-1.54.19-3.09.28-4.63.09-1.53.19-7.06.28-8.59.04-.73.07-1.46.1-2.19,0-.15.02-.3.03-.45.08-.95.17-1.89.23-2.84.05-.83.07-11.66.12-12.49.04-.77.11-1.54.15-2.32.05-.98.09-1.96.11-2.94.01-.71.02-1.43-.03-2.14-.08-1.23-.2-2.46-.29-3.69-.06-.78-.1-1.57-.13-2.35-.03-.65-.04-1.31-.06-1.96-.03-.77-.08-1.55-.12-2.32-.02-.4-.05-.8-.07-1.2-.03-.65-.04-1.31-.09-1.96-.04-.46-.18-.91-.19-1.36-.02-.95-.24-1.85-.51-2.75-.2-.65-.45-1.29-.63-1.94-.27-1.02-.73-1.94-1.3-2.8-.2-.31-.41-.58-.27-.98.03-.08,0-.18,0-.27-.09-.6-.19-1.2-.29-1.81.38-.23.67-.62.93-1.01.44-.66.73-1.39.85-2.18.03-.22.05-.44.09-.65.1-.52.11-1.03-.17-1.51-.13-.22-.18-.48-.31-.69-.27-.43-.51-.9-.87-1.23-.78-.72-1.71-1.21-2.72-1.56-1.17-.4-2.41-.08-3.24.84-.13.14-.28.26-.43.39-.07-.05-.14-.09-.19-.14-.34-.42-.7-.81-1.19-1.04-.31-.14-.64-.23-.97-.33-.93-.29-1.86-.34-2.78.06-.88.39-1.69.87-2.15,1.78-.17.34-.34.69-.54,1.02-.18.3-.29.61-.36.95-.03.15-.09.3-.13.43-.34-.12-.63-.2-.92-.32-.8-.32-1.57-.16-2.33.16-1.4.58-2.31,1.66-2.92,3-.24.52-.34,1.1-.48,1.66-.16.61-.16,1.24-.05,1.86.13.71.43,1.35.79,1.97.05.09.08.18.15.32-.24.06-.46.12-.67.17-.63.14-1.2.41-1.7.83-.93.78-1.65,1.71-2.08,2.85-.1.28-.18.56-.27.85-.26.86-.27,1.74-.06,2.6.24,1.01.7,1.93,1.24,2.8.49.79,1.06,1.53,1.7,2.2-.29.66-.59,1.29-.83,1.94-.22.59-.27,1.22-.08,1.84.15.48.42.88.73,1.26.58.73,1.27,1.32,2.12,1.73.7.33,1.42.46,2.2.32.68-.12,1.3-.41,1.94-.64.15-.06.29-.14.54-.27-.28.6-.23,1.11-.11,1.62.06.28.18.56.12.86,0,.04.01.09.03.13.29.53.56,1.08.96,1.55.31.36.72.56,1.13.74.48.2.99.33,1.51.32.4,0,.8.06,1.22-.09.68-.25,1.21-.69,1.73-1.15.31-.27.57-.59.92-.95.05.63.12,1.18.13,1.74.02,1.07,0,2.15.01,3.22.02,1.32,0,12.65.08,13.97.06.95.07,1.9.09,2.86,0,.49-.04.98-.04,1.46,0,.51.01,1.01.02,1.52.02.87.05,5.73.07,6.6,0,.2-.1.41-.06.6.13.59-.08,1.17-.02,1.76.04.41-.19.85-.03,1.29-.18.47-.08.96-.09,1.44-.02,1-.06,1.99-.08,2.99-.01.64.01,1.28,0,1.92-.01.37-.08.74-.14,1.23-.3-.29-.53-.49-.75-.71-.6-.59-1.06-1.32-1.8-1.77-.2-.12-.41-.24-.6-.37-.25-.17-.53-.2-.81-.2-1.01,0-1.78.54-2.46,1.2-.52.5-.94,1.1-1.42,1.66-.63.73-1.22,1.49-2.02,2.06-.68.48-1.38.9-2.25.82-.67-.06-1.27-.28-1.67-.87-.24-.36-.5-.7-.77-1.04-.23-.31-.46-.62-.72-.9-.53-.58-1.32-1.25-2.24-1.53-.25-.08-1.55-.16-2.25-.15l-.02,1.4c1.74.03,3.16,1.08,3.77,2.11.45.65,2.03,2.17,2.91,2.36.46.1,1.97.3,3.36-.37,1.1-.5,2.62-1.59,3.33-2.51.56-.73,1.17-1.48,2.18-1.7.82-.06,1.57.47,2.06.97.52.53,1.55,1.62,2.51,1.61,2.78.04,2.89-1.07,3.08-1.54.21-.56.44-1.11.48-1.71.04-.59.09-1.19.09-1.78,0-.73,0-1.46-.05-2.18-.06-.86-.16-1.72-.24-2.58-.02-.24-.04-.47-.04-.71,0-.25.04-.5.04-.75,0-.46-.05-.92-.05-1.38,0-.49.02-.98.03-1.47.02-1.52.03-7.04.06-8.56.02-1.04.06-12.08.08-13.12.01-.54,0-1.07.05-1.61.08-.96.21-1.92.29-2.88.08-.93.14-1.87.17-2.8.04-1.24,0-2.47-.11-3.7-.03-.37-.1-.74-.14-1.11-.02-.23-.03-.47-.01-.71.04-.84-.09-1.67-.31-2.47-.21-.76-.25-1.52-.4-2.28-.07-.35-.11-.7-.18-1.05-.07-.35-.15-.69-.23-1.04-.15-.6-.36-1.2-.46-1.81-.11-.66-.32-1.29-.55-1.91-.13-.37-.41-.69-.56-1.06-.17-.44-.49-.72-.84-1.01-.69-.58-1.46-.69-2.31-.45-.15.04-.31.07-.47.1-.09-.74.22-1.31.55-1.88.04-.07.11-.15.18-.19.35-.19.71-.3,1.11-.25.27.03.53.11.79.12.65.04,1.08.44,1.4.92.46.66.95,1.31,1.29,2.05.24.53.52,1.03.77,1.56.5,1.08.63,2.26.83,3.41.18,1,.21,2.01.19,3.02,0,.28.04.56.05.85,0,.65,0,1.3,0,1.95-.01,1.61.02,3.23-.15,4.84-.11,1.07,0,2.16,0,3.24,0,.32,0,.65.01.97,0,.07.01.15.02.22.04.71.14,1.42.1,2.12-.04.63-.1,1.26-.07,1.9.01.19-.03.38-.04.58,0,.13,0,.26,0,.39.01.16.04,10.32.04,10.49,0,.44,0,.89,0,1.33,0,.5-.04,1-.04,1.51,0,.82.01,1.64.04,2.46.02.61.07,5.22.09,5.83,0,.4-.05.8-.05,1.2,0,1.15.04,2.29.05,3.44,0,.64.02,1.28.02,1.92,0,.59-.02,1.19.02,1.78.04.64.12,1.27.19,1.91.03.26.03.53.25.73.05.05.05.17.05.25,0,.8-.03,1.6-.04,2.4,0,.51-.29.9-.52,1.31-.13.23-.25.49-.45.65-.5.41-1.03.81-1.58,1.13-.48.28-1.03.47-1.62.32-.1-.03-.21-.02-.31-.04-.8-.15-1.53-.41-2.1-1.06-.54-.63-1.15-1.2-1.74-1.79-.28-.29-.67-.39-1.03-.5-.23-.07-.32.04-.32.3.28.14.58.23.79.41.46.39.92.81,1.3,1.27.59.71,1.24,1.35,2.02,1.85.27.18.55.29.88.27.47-.03.95-.04,1.42-.11.27-.04.56-.14.78-.3.48-.32.94-.68,1.38-1.05.36-.31.72-.62.97-1.04.28-.48.49-1,.5-1.55.01-.63-.09-1.27-.15-1.91-.08-.99-.2-1.98-.24-2.97-.05-1.4-.04-2.8-.04-4.2,0-1.2.02-2.41.03-3.61,0-.15.01-.3.02-.45.02-.65.11-5.31.05-5.96-.07-.85-.1-1.69-.02-2.54.02-.25.02-.51.02-.76,0-.64-.03-1.28-.01-1.92.04-1.27.07-12.55-.02-13.82-.09-1.21-.11-2.43-.08-3.64.04-1.55.07-3.1.09-4.64.01-.74.02-1.49,0-2.23-.01-.59-.06-1.18-.09-1.78-.05-.86-.1-1.72-.15-2.58-.04-.72-.03-1.45-.12-2.17-.09-.75-.27-1.48-.42-2.22-.06-.31-.15-.61-.25-.9-.28-.77-.41-1.62-1.09-2.19-.08-.06-.11-.18-.16-.27-.37-.61-.71-1.24-1.13-1.82-.32-.44-.69-.87-1.31-.93-.19-.02-.39-.03-.57-.08-.48-.13-.95-.16-1.45.05.41-.56,1.25-1.15,1.7-1.33.11-.04.23-.07.35-.08,1.29-.13,2.44.24,3.48.98.38.27.68.62.84,1.08.05.14.13.27.19.4.42.9.69,1.83.75,2.82.04.77.15,1.53.21,2.3.05.67.07,1.34.11,2.01.03.61.03,1.21.07,1.82.05.74.14,1.48.2,2.22.05.58.07,1.16.1,1.74.06,1.38.12,2.77.16,4.15,0,.31-.11.61-.13.92-.02.53,0,1.06-.01,1.6,0,.55,0,1.1,0,1.65-.02.95-.06,1.9-.08,2.85-.02.72-.01,1.44-.04,2.17-.02.58-.1,11.15-.12,11.73-.06,1.68.03,3.36-.09,5.03-.05.72.07,5.45.12,6.17.06.77.14,1.54.2,2.31.02.3,0,.6.03.89.07.81.17,1.61.22,2.42.06,1.09.08,2.17.13,3.26.01.23.08.46.12.69.03.14.09.28.1.42.05.69.09,1.39.13,2.08,0,.09.03.18.01.26-.06.38-.1.76-.19,1.14-.09.4-.2.8-.34,1.19-.28.78-.94,1.29-1.43,1.91-.07.09-.17.17-.26.24-.32.26-.64.53-.97.78-.26.2-.52.4-.8.56-.93.49-1.94.74-2.99.85-.37.04-.74.04-1.1-.11-.96-.38-1.81-.93-2.6-1.58-.14-.11-.25-.26-.4-.35-.33-.22-.7-.39-1.02-.64-.46-.35-.97-.58-1.51-.75-.52-.16-1.06-.34-1.6-.37-.88-.04-1.63.42-2.38.8-.21.1-.19.26.04.48.33-.13.66-.26.99-.39.73-.29,1.47-.41,2.23-.17.45.14.9.31,1.32.52,1.01.48,1.9,1.16,2.73,1.9.53.48,1.14.8,1.8,1.04.97.35,1.96.26,2.95.07.48-.09.88-.35,1.3-.56.78-.39,1.52-.81,2.09-1.48.24-.28.5-.55.76-.82.4-.42.71-.91,1-1.4.32-.53.44-1.14.56-1.73.05-.26.13-.54.07-.79-.21-.92-.22-1.86-.27-2.79-.07-1.26-.04-2.53-.05-3.79,0-.22,0-.44-.01-.66-.02-.61-.04-1.22-.05-1.83-.01-.82.05-1.65-.05-2.46-.15-1.27-.23-6.55-.33-7.82-.02-.28-.06-.56-.06-.84,0-1.12.03-2.23.05-3.35.01-.68.05-11.36.07-12.04,0-.17.01-.37-.05-.52-.14-.32-.09-.64-.05-.97.08-.59.18-1.18.21-1.77.06-.87.06-1.75.09-2.63.03-.77.07-1.55.09-2.32.01-.5,0-1.01,0-1.51,0-.3.06-.59.08-.89.04-.59.06-1.18.09-1.77,0-.19,0-.39,0-.58-.05-.8-.12-1.6-.16-2.4-.03-.56-.01-1.13-.07-1.69-.07-.75-.19-1.5-.29-2.25-.02-.13-.05-.26-.06-.4-.03-.68-.06-1.36-.09-2.04-.05-.99-.13-1.98-.35-2.95-.18-.79-.54-1.5-.87-2.23-.23-.51-.61-.93-1.09-1.2-.55-.31-1.09-.62-1.75-.72-1.08-.17-2.12-.32-3.1.32-.02.02-.06.02-.08.03-.97.36-1.61,1.1-2.14,1.94-.44.71-.47,1.52-.28,2.33.16.68.42,1.32.81,1.91.35.52.72,1.02,1.19,1.44.18.16.38.29.57.42.53.36.87.88,1.21,1.4.36.56.45,1.15.36,1.78-.04.3-.14.59-.22.89-.1.37-.25.73-.7.77-.69.06-1.37,0-1.98-.36-.19-.11-.43-.17-.58-.32-.24-.24-.45-.51-.64-.79-.16-.23-.25-.51-.42-.73-.47-.63-.71-1.36-.97-2.08-.26-.71-.42-1.45-.69-2.16-.3-.8-.35-1.62-.16-2.41.3-1.26.41-2.55.83-3.79.26-.75.52-1.48,1.02-2.11.43-.54.89-1.05,1.51-1.37.54-.28,1.08-.57,1.62-.84,1.03-.51,2.12-.78,3.28-.69.26.02.54.07.77.18,1.09.53,2.03,1.27,2.88,2.14.84.86,1.36,1.92,1.81,3,.39.93.81,1.85,1.07,2.83.22.79.41,1.58.52,2.39.07.47.11.94.17,1.41.04.38.11.76.13,1.15.05,1.07.07,2.14.12,3.2.04,1.05.1,2.1.14,3.15.04,1.01.07,2.02.11,3.04,0,.21.06.41.07.62.03.52.08,1.03-.03,1.56-.06.28.04.59.04.88,0,.74-.02,1.49-.04,2.23-.01.48.04.97-.07,1.43-.2.8-.06,1.62-.2,2.43-.05.33-.02.68-.01,1.02,0,.34.06.68.04,1.02-.03.61-.1,11.21-.14,11.82-.08,1.44-.16,2.87-.23,4.31-.05,1.16-.09,6.31-.13,7.47-.02.46-.01.92-.04,1.38-.07,1.04-.17,2.07-.22,3.11-.04.89-.02,1.78-.04,2.67,0,.51-.05,1.01-.05,1.52,0,1.07,0,2.15,0,3.22,0,1.01-.02,2.03-.03,3.04,0,1.03-.01,2.05,0,3.08.01.73.07,1.46.08,2.19,0,.49-.04.98-.05,1.47,0,1.05,0,2.11,0,3.16,0,.09.03.18.04.26.13.88.23,1.77.4,2.64.1.52.29,1.03.49,1.52.27.63.81,1.06,1.35,1.45.43.32.91.55,1.47.59.78.06,1.56.18,2.35.25.46.04.94.08,1.38-.01.86-.17,1.73-.12,2.58-.27.71-.13,1.45-.09,2.14-.33.15-.05.32-.08.48-.09.87-.04,1.75-.07,2.62-.09.36,0,.71.05,1.07.03.79-.05,1.57-.14,2.36-.18.52-.03,1.04,0,1.56,0,.64,0,1.28.02,1.92.02.09,0,.18-.03.26-.03.64.04,1.28.09,1.91.13.82.05,1.64.07,2.45.13,1.05.07,2.1.21,3.17.18.64-.02,1.28.07,1.9.22.27.07.55.11.83.13.54.05,1.09.06,1.64.11.57.06,1.12-.01,1.66-.21.4-.15.8-.32,1.2-.48,1.11-.47,1.55-1.4,1.71-2.51.09-.6-.02-1.22.11-1.82.07-.33.05-.68.06-1.02.01-.49-.05-.99.04-1.46.2-1.04.24-2.09.33-3.14.06-.62.12-1.24.17-1.86.07-.72.13-1.45.2-2.17.05-.44.06-.9.19-1.32.17-.54.21-1.1.31-1.65.13-.74.16-1.5.23-2.26.02-.22.03-.44.05-.66.07-.95.15-1.89.22-2.84.05-.72.1-1.44.15-2.17.02-.39.04-.77.03-1.16-.02-.76-.06-1.51-.08-2.27-.04-1.56-.09-3.13-.12-4.69-.01-.57,0-5.13.03-5.7.03-.64.1-1.27.14-1.91.01-.19-.01-.38,0-.57.03-.76.06-1.52.1-2.28.03-.55.06-11.09.09-11.64,0-.19,0-.39,0-.58.02-.86.05-1.73.08-2.59.02-.7.12-1.4.07-2.09-.03-.55-.03-1.09,0-1.64.02-.47.11-.94.03-1.41-.09-.6-.17-1.2-.23-1.8-.08-.78-.14-1.56-.2-2.35-.04-.53-.23-1.04-.15-1.58.02-.14.03-.29.03-.44-.02-.6-.05-1.21-.07-1.81-.01-.61-.01-1.21-.02-1.82,0-.53-.01-1.06-.02-1.59,0-.3,0-.61,0-.91-.02-.62-.07-1.24-.05-1.86.02-.58.09-1.17.17-1.74.12-.85.26-1.69.4-2.53.1-.54.22-1.07.34-1.61.15-.64.25-1.3.58-1.89.18-.32.35-.65.5-.99.36-.77.79-1.48,1.42-2.08.54-.51,1.16-.9,1.83-1.17.36-.14.79-.18,1.18-.16.53.03,1.06.16,1.58.27.49.1.99.21,1.47.36.55.18,1.1.38,1.63.62,1.04.46,1.97,1.12,2.85,1.82.27.21.55.42.75.69.35.46.65.96.95,1.45.37.61.49,1.31.54,2,.04.62,0,1.25-.08,1.87-.07.57-.22,1.14-.38,1.7-.1.34-.27.66-.42.98-.24.54-.38,1.14-.94,1.47-.03.02-.05.07-.08.11-.65.64-1.34,1.19-2.35.96-.14-.03-.29-.04-.44-.06-.74-.11-1.23-.83-1.05-1.58.13-.57.39-1.11.62-1.65.37-.85.67-1.72.82-2.63.03-.2.02-.41,0-.61-.04-.54-.12-1.08-.15-1.62-.03-.66-.29-1.24-.58-1.81-.34-.66-.92-1.06-1.62-1.31-.88-.32-1.74-.46-2.66-.16-.53.17-.95.49-1.16.97-.27.6-.6,1.16-.78,1.83-.47,1.72-.73,3.46-.9,5.22-.04.43-.06.86-.09,1.29-.02.26-.08.53-.09.79-.02.68.01,1.37-.05,2.04-.1,1.12-.26,2.24-.39,3.36-.06.5-.14,1-.18,1.5-.08.9-.08,1.82-.24,2.71-.25,1.48-.25,2.96-.3,4.45-.04,1.3-.02,2.6-.04,3.89,0,.39-.05.77-.05,1.16,0,.45.03.89.05,1.34,0,.18,0,.36.01.54.06,1.17.11,12.35.17,13.52.06,1.11.13,2.23.2,3.34.02.31.07.62.06.93,0,1.19-.03,6.38-.05,7.58,0,.46-.01.92-.02,1.38-.02.7-.06,1.4-.06,2.1,0,.48.03.95.05,1.43.04.85.08,1.7.11,2.54.02.4.07.8.03,1.2-.07.69-.05,1.37.08,2.04.17.88.67,1.53,1.42,2.02.65.43,1.38.37,2.15.46-.04-.14-.07-.23-.1-.31-.68-.04-1.34-.14-1.89-.52-1.02-.7-1.35-1.72-1.2-2.93,0-.07.04-.15.03-.22-.02-.56-.05-1.12-.08-1.68-.02-.31-.05-.62-.06-.94-.02-1.03-.05-2.06-.04-3.08.01-1.14.03-2.29.11-3.43.03-.36-.03-.7,0-1.05.07-.89.13-5.78.16-6.67.01-.43-.05-.86-.08-1.29-.05-.7-.11-1.41-.14-2.11-.02-.46,0-.91,0-1.37,0-.48.04-10.97.02-11.45-.03-.82-.11-1.65-.15-2.47-.06-1.53.1-3.06.19-4.59.04-.64.14-1.27.19-1.9.07-.92.11-1.83.16-2.75.02-.37.02-.74.04-1.11.01-.36.07-.72.03-1.07-.13-1.1-.1-2.2.01-3.3.03-.35.06-.71.08-1.06.04-.62.08-1.24.12-1.86.04-.59.11-1.18.15-1.77.04-.55.07-1.1.1-1.64.02-.27.05-.53.08-.8.03-.32.07-.65.11-.97.03-.21.09-.41.1-.61.04-.6.03-1.21.21-1.8.02-.05.02-.12,0-.17-.18-.38,0-.74.1-1.08.24-.86.6-1.66,1.21-2.35.34-.39.7-.53,1.17-.44.48.1.96.2,1.42.37.54.2,1.06.47,1.32,1.05-.09.05-.18.1-.26.16-.39.27-.81.51-1.15.83-.53.51-1.08,1.02-1.34,1.75-.01.04-.05.08-.08.11-.37.37-.52.86-.66,1.34-.03.11-.05.23-.08.35-.39,1.33-.67,2.68-.61,4.08.03.72-.1,1.42-.17,2.13-.13,1.42-.2,2.85-.28,4.27-.05,1.03-.06,2.06-.09,3.08-.01.37,0,.75-.04,1.12-.09.96-.24,1.92-.31,2.88-.07.91-.05,1.82-.1,2.72-.05.86-.12,1.72-.22,2.58-.12,1.02-.3,2.03-.42,3.04-.1.83-.15,11.66-.19,12.49-.02.55.02,1.1.02,1.66,0,.59-.02,1.19-.02,1.78,0,1.04.05,6.07,0,7.11-.02.48-.02.94,0,1.42.03.5.03,1.01.07,1.51.05.58-.03,1.16.17,1.73.07.21.11.43.12.65.03.53.06,1.06.06,1.59,0,1.11.16,2.2.48,3.26.18.6.42,1.19.88,1.63.58.56,1.22,1.02,2.01,1.28.87.28,1.75.4,2.64.31,1.32-.13,2.38-.81,3.31-1.75.55-.55.85-1.25,1.26-1.88.36-.55,1.7-2.17,1.86-2.26.77-.46,2.38.12,2.43.13.3.14.51-.33.32-.44-.09-.04-1.93-.69-2.51-.38-.29.15-.7.55-.97.74-.44.31-.82.7-1.05,1.19-.38.8-.9,1.5-1.46,2.18-.75.91-1.7,1.5-2.85,1.78-.44.11-.89.16-1.36.14-1.01-.04-1.88-.39-2.67-.99-.26-.19-.5-.43-.68-.7-.35-.55-.58-1.16-.75-1.8-.17-.64-.21-1.28-.24-1.93-.02-.36-.1-.71-.1-1.06,0-.82-.08-1.63-.19-2.44-.11-.87-.2-1.74-.26-2.61-.06-.71-.08-1.43-.09-2.14-.02-1.13,0-6.26,0-7.39,0-.43.08-.87-.16-1.27-.03-.06-.02-.15-.02-.22-.03-1.48.1-12.94.33-14.4.17-1.06.32-2.12.47-3.18.18-1.3.04-2.62.25-3.91.08-.48.04-.97.09-1.46.05-.6.15-1.2.2-1.81.06-.68.1-1.35.12-2.03.02-.57-.02-1.15,0-1.73.07-1.14.17-2.28.26-3.42.02-.27.02-.54.08-.8.17-.82.25-1.64.25-2.48,0-.18,0-.36.03-.54.13-.79.27-1.58.41-2.37.13-.7.29-1.41.65-2.02.39-.67.81-1.35,1.39-1.89.48-.44.98-.86,1.47-1.28.55.52.68,1.13.69,1.79,0,.09-.01.19-.06.25-.22.33-.47.65-.68.99-.34.54-.71,1.07-.96,1.65-.39.89-.67,1.84-1.05,2.74-.38.92-.54,1.88-.65,2.85-.11.94-.2,1.89-.23,2.84-.05,1.49-.03,2.98-.04,4.47,0,.64,0,1.27-.02,1.91-.02.61-.08,1.22-.13,1.82-.06.86-.12,1.72-.18,2.58-.04.68-.1,1.37-.12,2.05-.01.73.02,1.46.02,2.19,0,1.11-.02,12.23,0,13.34.02.79.1,1.57.14,2.36.07,1.52.13,7.04.18,8.55.02.57-.02,1.13,0,1.7.04,1.08.12,2.16.17,3.24.02.43,0,.86,0,1.29,0,.38-.03.76,0,1.14.03.37.12.73.19,1.1.14.73.32,1.45.66,2.12.55,1.08,1.71,1.59,2.86,1.17.52-.19,1.05-.44,1.5-.78.63-.48,1.14-1.11,1.58-1.78.24-.37,1.57-2.56,2.22-3.18.53-.87,2.83-.94,3.66-.29.54.43,1.5,2.8,1.68,3.22.28.64,1.73,2.12,2.21,2.41,1.64,1.11,3.45.42,4.04.05,1.49-.77,2.07-1.68,2.55-2.12,1.11-.96,2.36-1.13,2.89-1.11,1.78.07,2.58,1.24,3.64,2.4l.04-3.17c-.44-.48-.65-1.15-3.51-1.65ZM33.95,49.28c-.58.84-1.26,1.58-2.11,2.14-.35.23-.76.39-1.23.28-.39-.09-.81-.04-1.19-.15-.97-.26-1.63-.89-2.1-1.78-.22-.42-.39-.84-.49-1.31-.12-.54-.07-1.06.1-1.58.04-.12.14-.24-.04-.39-.08.04-.21.06-.28.14-.58.6-1.31.85-2.12.93-.3.03-.59.06-.89.08-.77.04-1.46-.2-2.07-.68-.34-.27-.71-.49-1.01-.79-.53-.54-1.09-1.12-1.03-1.95.04-.55.22-1.11.39-1.64.1-.31.28-.59.46-.86.11-.17.26-.31.42-.44.27-.21.32-.36.07-.62-.21-.22-.45-.44-.71-.59-.45-.25-.74-.66-.99-1.06-.63-.98-1.29-1.96-1.46-3.16-.03-.22-.17-.41-.22-.63-.22-.91-.14-1.8.17-2.67.36-1.03.95-1.91,1.78-2.63.5-.43,1.04-.73,1.7-.84.28-.05.56-.11.83-.18.11-.03.2-.1.33-.16-.14-.26-.24-.44-.35-.62-.32-.56-.5-1.18-.62-1.8-.06-.29,0-.6-.04-.89-.1-.72.11-1.38.34-2.04.26-.73.75-1.32,1.33-1.81.4-.33.83-.63,1.27-.89.4-.24.87-.38,1.32-.32.54.08,1.08.23,1.48.66.25.26.55.4.92.39.33-.01.44-.09.44-.42,0-.48.03-.95.15-1.42.25-1.01.6-1.98,1.35-2.72.5-.5,1.09-.82,1.86-.83.92-.02,1.76.19,2.58.58.15.07.27.22.37.36.3.41.59.82.89,1.23.06.08.12.17.15.21.34,0,.45-.17.56-.38.32-.62.78-1.09,1.49-1.25.37-.08.76-.16,1.14-.04,1.04.32,2.04.72,2.86,1.48.44.4.67.89.86,1.43.21.61.41,1.2.34,1.86-.11.93-.28,1.83-.9,2.57-.14.17-.31.31-.5.51-.09-.13-.16-.22-.21-.32-.2-.36-.37-.75-.6-1.09-.39-.6-.93-1.03-1.59-1.29-.66-.26-1.3-.57-2.03-.65-1.04-.11-2.08-.22-3.1.06-.54.15-1.06.39-1.56.64-.37.18-.74.4-1.05.67-.63.52-1.28,1.01-1.74,1.71-.33.5-.66.99-.89,1.54-.1.25-.22.5-.25.75-.03.25-.14.37-.34.47-.6.3-1.14.7-1.68,1.09-.56.4-1.03.9-1.51,1.39-.48.49-.92,1.02-1.27,1.61-.21.34-.37.71-.53,1.08-.2.46-.46.9-.54,1.41-.04.28-.11.55-.12.83-.03.92-.06,1.85.19,2.75.02.07.06.14.05.22-.03.84.38,1.5.85,2.15.43.6.99,1,1.62,1.35.25.14.5.25.8.23.13,0,.26.05.34.07.36.74.69,1.44,1.26,1.98.65.62,1.44.95,2.33,1.09.66.1,1.27.07,1.86-.23.05-.03.12-.06.17-.04.44.17.91.3,1.1.82.04.11.11.21.16.31.12.25.26.5.34.77.31.97.35,1.98.41,2.98,0,.11-.01.25-.07.34Zm.49-6.55c.38-.06.69-.27.8-.64.18-.59.32-1.2.44-1.81.08-.41-.08-.8-.25-1.16-.29-.62-.68-1.2-1.23-1.63-.4-.32-.71-.71-1.02-1.1-.77-.98-1.15-1.6-1.42-2.86.59-.28,1.18-.4,1.82-.11.54.24,1.01.58,1.36,1.06.2.27.34.58.49.87.3.59.52,1.21.66,1.86.11.51.2,1.03.34,1.54.15.55.2,1.11.33,1.67.13.56.25,1.14.27,1.71.03.78.17,1.53.35,2.29.08.34.07.71.09,1.07.04.76.05,1.52.13,2.27.09.92-.03,1.84-.04,2.76,0,.4.01.8,0,1.2-.03,1.31-.05,2.62-.1,3.92-.03.73-.13,1.45-.15,2.18-.02.83.01,11.66,0,12.5,0,.71-.03,1.43-.05,2.14,0,.31,0,.61,0,.92,0,.42-.01.83-.02,1.25,0,.46-.02,4.92-.02,5.38-.01.76-.04,1.52-.03,2.28.01.61.06,1.22.12,1.83.05.43.16.86.22,1.3.06.4.1.8.12,1.2.06,1.23.15,2.47.14,3.7,0,.7-.03,1.43-.35,2.1-.04.08-.03.17-.05.26-.11.56-.51.92-1.1.97-.49.04-.96,0-1.43-.18-.38-.16-.55-.44-.58-.82-.05-.62-.08-1.24-.09-1.87,0-.42.05-.83.05-1.25,0-.36-.06-.71-.05-1.07.02-.46.08-.92.12-1.37,0-.09.01-.18.02-.27.07-1.49.14-2.97.21-4.46,0-.06,0-.12,0-.18.01-.47-.02-.94.15-1.41.1-.27,0-.61.01-.92.02-.76.06-5.53.07-6.29.01-1.16.01-2.32,0-3.48-.02-1.28-.09-12.56-.08-13.84,0-1.44.09-2.88.12-4.32,0-.43-.05-.85-.08-1.28-.04-.6-.08-1.21-.13-1.81-.05-.62-.05-1.25-.17-1.86-.16-.86-.41-1.72-1.06-2.36-.3-.29-.68-.51-1.02-.76.17-.3.33-.6.48-.88.53-.08,1.06-.14,1.59-.23Zm-5.39-11.05c-.13.64-.28,1.27-.4,1.91-.05.26-.12.53-.1.79.03.68.01,1.37.22,2.03.07.21.09.43.14.65.09.37.19.75.28,1.12.25,1.13.8,2.14,1.42,3.1.28.43.67.8,1.06,1.14.23.21.56.31.86.47-.07.71-.66.97-1.27,1.19-.15.06-.35,0-.53-.02-.41-.06-.82-.11-1.23-.21-.54-.13-.97-.45-1.35-.83-.55-.55-1-1.18-1.22-1.94-.03-.1-.01-.22-.03-.33-.01-.1-.01-.21-.05-.3-.33-.69-.43-1.42-.44-2.17,0-.25-.02-.5,0-.75.03-.49.08-.97.14-1.46.1-.8.28-1.58.54-2.33.16-.48.33-.97.71-1.36.29-.29.5-.66.75-1,.15-.2.32-.35.63-.36-.05.24-.09.45-.13.66Zm1.22-3.59c-.36.44-.54.95-.68,1.49-.07.26-.15.51-.26.76-.05.11-.17.2-.29.26-1.18.6-1.88,1.61-2.37,2.79-.32.78-.61,1.58-.82,2.39-.12.48-.1,1-.09,1.51.02,1.12.15,2.22.5,3.29.08.25-.04.37-.3.31-.1-.02-.19-.08-.27-.14-.7-.55-1.28-1.2-1.76-1.94-.22-.34-.3-.76-.42-1.16-.09-.3-.13-.61-.22-.91-.22-.78-.14-1.56-.08-2.35.12-1.39.78-2.55,1.57-3.64.34-.46.78-.85,1.2-1.26.53-.52,1.06-1.05,1.63-1.53.87-.72,1.83-1.22,3.02-1.1.17.02.34,0,.59,0-.35.45-.64.84-.95,1.22Zm11.24-1.12c-.78-.85-1.79-1.36-2.76-1.93-.82-.48-1.73-.51-2.63-.37-1.54.24-2.93.86-4.21,1.73-.18.12-.36.13-.58.13-.53-.02-1.07.05-1.6.09-.26.02-.52.08-.85.13.05-.23.06-.44.13-.62.36-.87.81-1.7,1.49-2.36.33-.33.72-.62,1.13-.85.59-.34,1.21-.64,1.84-.91.87-.38,1.79-.41,2.72-.3,1.12.14,2.15.56,3.14,1.08.45.23.69.69,1.02,1.05.61.67.88,1.5,1.17,2.32.08.24.08.51.11.77-.04.01-.07.03-.11.04Zm62.48-6.8c.88-.12,1.77-.21,2.66-.29.32-.03.65.03.98.06.26.02.54,0,.79.06.53.12,1.08.24,1.58.45.68.29,1.08.89,1.37,1.53.45,1.03.18,2.01-.41,2.91-.07.11-.18.19-.28.27-.26.22-.23.39.08.51.45.18.92.35,1.35.57.25.12.48.3.67.51.43.48.86.96,1.22,1.48.58.85.79,1.82.7,2.85-.03.4-.05.8-.13,1.19-.2,1.06-.8,1.76-1.88,2.02-.5.12-1,.27-1.49.43-.28.09-.31.24-.11.43.06.06.14.12.22.15,1.02.44,1.47,1.25,1.64,2.32.18,1.12-.3,2-.94,2.83-.38.5-.86.86-1.45,1.12-.34.15-.62.42-1,.47-.15.02-.29.04-.44.02-.37-.04-.74-.15-1.1-.13-.6.03-1.1-.2-1.59-.48-.05-.03-.1-.04-.22-.08.02.16.01.27.04.38.07.23.13.46.23.67.18.38.17.78.15,1.18-.01.31-.05.62-.11.93-.12.7-.88,1.38-1.57,1.52-.84.18-1.66.09-2.46-.11-.51-.12-.96-.41-1.33-.79-.29-.3-.56-.62-.83-.93-.23-.27-.28-.31-.68-.38-.03.1-.09.21-.08.31.03,1.12-.41,2.06-1.17,2.84-.21.22-.55.32-.84.46-.29.14-.61.25-.88.41-.27.17-.55.2-.85.19-.24,0-.31-.12-.26-.36.24-1.19.57-2.36,1.01-3.5.28-.74.67-1.42.95-2.15.06-.17.18-.25.36-.27.92-.08,1.72-.5,2.35-1.14.41-.42.77-.45,1.29-.34,1.02.21,2.05.09,3.04-.2.63-.19,1.18-.56,1.63-1.05.47-.51.91-1.05,1.18-1.71.13-.32.4-.59.56-.91.18-.36.32-.75.47-1.14.09-.23.19-.47.23-.72.04-.23.01-.47.03-.71.05-.89.13-1.77.15-2.66.01-.66-.06-1.33-.34-1.95-.25-.55-.49-1.11-.79-1.63-.21-.37-.52-.69-.81-1-.39-.41-.81-.78-1.22-1.17-.28-.26-.57-.51-.85-.77-.07-.07-.12-.17-.15-.27-.16-.43-.32-.86-.45-1.3-.23-.75-.78-1.27-1.31-1.81-.15-.16-.32-.3-.5-.46.48-.41,1.03-.6,1.6-.68Zm.79,8.45c-.1-.29-.2-.59-.35-.87-.29-.55-.59-1.1-.92-1.62-.39-.61-.86-1.16-1.41-1.65-.07-.06-.13-.12-.19-.19-.02-.02-.02-.05-.05-.17.21.05.37.07.52.12.38.14.75.28,1.12.44.56.24,1.08.54,1.56.92.32.26.7.45,1.03.7.49.37.88.84,1.15,1.39.12.24.2.49.31.73.2.43.34.87.39,1.36.12,1.13.19,2.25.13,3.39-.04.78-.18,1.54-.53,2.24-.36.71-.7,1.44-1.09,2.13-.2.36-.44.72-.75.97-.42.35-.87.67-1.41.89-.89.36-1.78.22-2.68.24-.04,0-.08-.03-.15-.07.02-.07.03-.14.07-.19.32-.36.63-.73.98-1.06.57-.52.94-1.17,1.27-1.85.51-1.06.89-2.16,1.17-3.3.14-.59.16-1.21.21-1.81.08-.94-.07-1.86-.37-2.76Zm-13.71-6.01c-.28-.04-.58.02-.9.03.08-.5.41-.82.68-1.16.82-1.05,1.96-1.59,3.19-2,.58-.19,1.16-.28,1.75-.31.54-.03,1.1.07,1.64.16,1,.18,1.96.46,2.88.9.82.4,1.5.97,2.12,1.62.38.39.71.83,1.07,1.25.28.32.34.71.39,1.13-.66-.12-1.27-.24-1.88-.35-.4-.07-.73-.25-1.06-.5-.85-.65-1.73-1.25-2.77-1.57-1.16-.35-2.36-.51-3.56-.4-.61.06-1.22.24-1.81.42-.24.07-.45.26-.68.4-.32.2-.61.44-1.05.37Zm5.19,16.49c.07-.42.32-.63.74-.67.5-.05.91-.33,1.36-.52.73-.3,1.25-.88,1.58-1.56.28-.59.6-1.18.67-1.87.07-.67.27-1.33.37-2.01.06-.37.04-.74.2-1.09-.16-.59.15-1.22-.15-1.8-.04-.07-.02-.18-.03-.26-.06-.38-.12-.75-.35-1.09-.2-.31-.32-.67-.49-1-.3-.58-.78-.99-1.26-1.43-.97-.88-2.06-1.57-3.25-2.08-.99-.42-2.03-.73-3.1-.91-.04,0-.07-.03-.11-.04,0-.03,0-.06,0-.09.45-.17.92-.33,1.36-.53.46-.2.94-.25,1.44-.26.92-.02,1.82.02,2.68.37.45.18.87.44,1.31.66,1.08.53,1.86,1.43,2.73,2.21.87.77,1.52,1.72,2.09,2.71.41.71.61,1.51.73,2.33.12.82-.05,1.6-.17,2.39-.07.46-.3.9-.48,1.33-.4.96-.81,1.92-1.25,2.86-.28.6-.73,1.07-1.19,1.54-.39.39-.75.8-1.15,1.18-.72.69-1.45,1.37-2.42,1.69-.48.16-.91-.05-1.24-.32-.53-.44-.75-1.05-.63-1.75Zm-1.45,53.5c-.58-.1-1.08-.31-1.38-.86-.38-.68-.65-1.39-.74-2.18-.13-1.2-.18-2.4-.19-3.61,0-.75-.05-1.5-.14-2.25-.11-.91-.15-1.84-.19-2.75-.06-1.26-.1-6.53-.15-7.79-.04-.91-.1-1.81-.12-2.72-.02-.94,0-11.89,0-12.83,0-1.03-.04-2.06-.02-3.09.01-.68.1-1.36.15-2.03.03-.32.08-.65.1-.97.04-.62.08-1.25.09-1.87.02-1.06,0-2.13.01-3.19.01-.82.09-1.63.07-2.45-.03-1.34.06-2.67.19-4,.09-.87.21-1.74.4-2.59.15-.66.41-1.3.64-1.94.15-.42.34-.82.47-1.24.28-.86.79-1.58,1.32-2.3.12-.16.22-.34.32-.51l.09.02c.01.46-.13.91-.27,1.34-.3.89-.63,1.76-.94,2.65-.18.52-.24,1.04-.07,1.58.08.26.21.46.42.61.33.25.67.49,1.03.75-.11.22-.22.46-.34.7-.39.74-.27,1.06.13,1.54.28.34.56.65,1,.8.09.03.16.12.25.19-.19.35-.39.69-.56,1.03-.57,1.15-.95,2.37-1.27,3.61-.36,1.38-.46,2.81-.62,4.22-.09.81-.09,1.64-.1,2.45-.02,1.27-.02,2.53-.04,3.8-.02,1.37-.06,12.74-.08,14.11-.01.85-.02,1.7,0,2.55.03.77.12,1.54.16,2.31.03.46,0,4.93.03,5.39.03.52.11,1.03.16,1.55.06.68.12,1.36.18,2.04.03.28.09.56.11.84.03.59.07,1.19.04,1.78-.03.8-.14,1.59-.08,2.4.05.82.07,1.63.19,2.45.01.09,0,.18,0,.27,0,.17-.1.24-.26.21Z"/>
  <path class="cls-1" d="m118.28,109.96c-.03.12-.03.26-.09.37-.09.17-.22.31-.31.48-.21.35-.47.64-.81.87-.47.34-.93.69-1.4,1.04-.55.4-1.22.45-1.85.62-1.41.37-2.73.13-3.98-.6-.75-.44-1.34-1.02-1.82-1.74-.31-.46-.73-.85-1.11-1.26-.26-.28-.53-.56-.81-.82-.36-.34-.76-.62-1.25-.75-.31-.08-.62-.19-.91-.33-.42-.2-.86-.31-1.31-.37-.57-.07-1.15-.15-1.72-.21-.6-.05-1.15.19-1.66.43-.61.28-1.17.67-1.76,1.01-.09.05-.18.11-.25.18-.66.69-1.45,1.23-2.25,1.73-.51.32-1.1.53-1.66.75-.45.18-.92.32-1.39.43-1.13.27-2.27.43-3.43.1-.69-.19-1.35-.46-1.97-.83-.18-.11-.4-.21-.41-.56.13.05.24.07.33.12.29.17.58.36.88.53.24.13.49.28.77.06.04-.03.14-.01.22,0,.44.07.88.14,1.31.21.09.01.18.02.27.02.98-.06,1.94-.25,2.88-.54.82-.25,1.46-.79,2.1-1.32.42-.35.84-.7,1.28-1.04.51-.39,1.01-.79,1.55-1.13.91-.57,1.85-1.06,2.96-1.11.43-.02.85-.14,1.28-.14,1.43,0,2.71.43,3.83,1.33.24.19.46.41.77.49.44.57,1.07.96,1.43,1.61.24.44.56.83.89,1.21.18.21.43.37.66.51.37.23.74.46,1.14.65.19.09.38.24.63.14.03-.01.08.01.12.04.55.41,1.18.4,1.83.4.63,0,1.08-.37,1.6-.59.62-.26,1.12-.7,1.67-1.06.33-.21.68-.39,1.02-.59.12-.07.24-.16.35-.23.1-.06.19-.12.29-.18.03.02.07.04.1.07Z"/>
  <path class="cls-1" d="m119.26,98.23c-.16-.12-.29-.22-.41-.32-.73-.63-1.57-1.01-2.55-1.05-.79-.03-1.58-.09-2.38.02-.81.11-1.55.38-2.26.75-.93.49-1.71,1.17-2.5,1.84-.72.6-1.46,1.16-2.33,1.53-.46.19-.93.31-1.42.34-.57.04-1.15.06-1.72.07-.23,0-.48-.03-.7-.11-.91-.36-1.82-.75-2.58-1.4-.66-.56-1.28-1.16-1.94-1.72-.26-.22-.53-.45-.84-.58-1.77-.75-3.6-1.18-5.52-.8-1.02.2-2.02.5-2.97.93-.68.3-1.34.63-1.97,1.03-.36.23-.66.5-.94.8-.1.11-.24.18-.35.26-.18-.17-.1-.3-.03-.41.41-.62.88-1.15,1.57-1.51.57-.3,1.17-.51,1.72-.83.65-.38,1.41-.43,2.12-.66,1.38-.44,2.79-.46,4.21-.21.78.14,1.54.34,2.27.65.2.09.4.2.6.29.14.07.28.13.42.2.05.02.1.05.14.09.52.48,1.06.94,1.54,1.46.75.82,1.74,1.27,2.72,1.71.31.14.69.16,1.04.18.84.03,1.6-.27,2.34-.63.58-.28,1.09-.66,1.54-1.12.58-.6,1.21-1.14,1.89-1.62.31-.22.67-.38,1.02-.54.52-.24,1.05-.48,1.59-.66.33-.11.69-.1,1.04-.13.07,0,.15.04.22.02.82-.27,1.62.04,2.42.08.31.02.68.09.91.39.04.05.13.09.19.1.59.1,1.06.45,1.53.78.08.06.16.13.25.19.26.17.26.17.12.6Z"/>
  <path class="cls-1" d="m33.09,104.56c-.65-.1-1.18-.15-1.69-.26-.54-.12-.97-.48-1.4-.82-.47-.38-.9-.83-1.37-1.2-.39-.3-.86-.46-1.34-.53-.42-.06-.84-.1-1.26-.13-.14-.01-.28.01-.42.02-1.07.09-2.02.56-2.97,1.02-.68.33-1.37.56-2.12.6-.27.02-.54.05-.8.12-.54.13-1.07.06-1.61.01-.61-.05-1.21-.1-1.8-.29-.37-.12-.69-.33-1.02-.53-.05-.03-.11-.07-.12-.11-.02-.1-.02-.21-.02-.32.08.03.19.03.25.08.68.65,1.5.7,2.35.63.08,0,.17.01.25.02,1.13.07,2.25-.02,3.34-.32.67-.18,1.3-.51,1.94-.8.74-.34,1.5-.65,2.27-.88,1.06-.31,2.08-.07,3.03.49.69.41,1.33.9,1.94,1.44.49.44,1.04.77,1.66.95.14.04.28.06.42.05.72-.07,1.44-.05,2.15-.25.51-.14.96-.38,1.37-.69.65-.48,1.29-.96,1.91-1.48.52-.43,1-.92,1.5-1.38.05-.05.09-.12.15-.15.64-.33,1.27-.65,2.01-.62.39.02.79-.07,1.18-.11.08,0,.18-.05.25-.03.08.02.14.11.21.16-.06.05-.11.14-.18.15-.28.04-.57.04-.85.08-.36.05-.73.11-1.09.2-.37.1-.71.28-1,.56-.51.49-1.05.95-1.59,1.41-.24.2-.52.36-.77.55-.46.34-.9.72-1.39,1.03-.51.33-1.03.66-1.58.87-.61.22-1.27.3-1.79.42Z"/>
  <path class="cls-1" d="m43.14,110.03c-.7-.2-1.33-.55-1.82-1.14-.58-.69-1.27-1.19-2.08-1.56-.88-.4-1.8-.52-2.74-.46-.8.05-1.46.5-2.09.94-.58.41-1.09.92-1.65,1.35-.45.34-.92.65-1.4.95-.32.19-.7.28-1,.49-.71.49-1.53.64-2.35.76-.28.04-.58.06-.84-.02-.75-.23-1.5-.49-2.15-.96-.34-.24-.69-.47-1.01-.73-1.07-.84-2.23-1.47-3.57-1.73-.17-.03-.36-.03-.53-.08-1.02-.26-2.03-.18-3.03.05-.38.09-.73.32-1.06.55-.24.16-.42.41-.63.62-.18.18-.18.22,0,.49.2-.17.42-.32.6-.51.48-.48,1.08-.68,1.73-.7.5-.01,1.01.05,1.51.05.88,0,1.7.25,2.51.55.82.3,1.5.83,2.2,1.33.66.46,1.31.91,2.04,1.26,1.34.64,2.65.54,3.97.01.56-.22,1.04-.57,1.58-.82.75-.36,1.39-.88,2-1.41.79-.7,1.65-1.27,2.56-1.78.2-.11.45-.19.67-.2.84-.05,1.66,0,2.44.37.61.29,1.22.55,1.66,1.09.1.12.25.22.4.26.19.05.3.15.43.28.39.4.78.81,1.37.91.07.01.13.02.2.02.01-.08.03-.16.06-.23Z"/>
  <path class="cls-1" d="m116.75,104.06c-.36-.18-.7-.32-1.01-.52-.69-.44-1.46-.63-2.26-.76-1.2-.2-2.34-.02-3.42.51-.54.27-1.04.64-1.58.91-.66.33-1.34.62-2.03.89-.21.08-.47.04-.72.05-.1-.21-.08-.34.16-.4.19-.04.38-.05.56-.12,1-.38,1.96-.85,2.85-1.43.6-.39,1.21-.74,1.92-.86.86-.15,1.73-.3,2.59-.02.15.05.32.05.48.08.62.12,1.16.41,1.67.75.23.16.47.3.7.45.16.11.2.25.09.47Z"/>
  <path class="cls-1" d="m100.91,103.97v.3c-.49.07-.97.1-1.42.21-.91.22-1.79.56-2.61,1-1.08.58-2.24.9-3.44.95-.78.03-1.58-.04-2.33-.33-.46-.18-.81-.5-1.1-.89-.07-.1-.08-.24-.12-.36.27-.12.39.06.5.17.39.41.87.67,1.41.79,1.1.25,2.22.24,3.29-.1.83-.26,1.62-.66,2.42-1.03,1.08-.49,2.18-.82,3.41-.72Z"/>
  <path class="cls-1" d="m97.55,102.43c-.73-.1-1.45-.1-2.12-.39-.53-.23-1.05-.5-1.53-.82-.69-.47-1.45-.76-2.26-.92-.73-.14-1.47-.19-2.21-.05-.47.09-.87.29-1.25.55-.21.14-.4.3-.6.45-.24-.19-.28-.29-.12-.45.46-.49.98-.9,1.66-1.05,1.03-.22,2.02-.11,3.03.2.62.19,1.18.47,1.74.77.44.24.86.53,1.29.78.5.3,1.07.35,1.62.44.19.03.38.06.57.08.23.03.25.16.17.4Z"/>
  <path class="cls-1" d="m113.55,93.96c.19.27.07.39-.13.48-.58.27-1.18.51-1.72.83-.46.28-.95.49-1.44.69-1.19.49-2.4.44-3.62.14-.97-.24-1.78-.72-2.44-1.46-.08-.09-.15-.19-.19-.3-.02-.07.02-.19.07-.23.05-.04.16,0,.24.02.05.02.1.07.14.11.7.88,1.67,1.33,2.73,1.54.84.17,1.7.12,2.53-.15.84-.27,1.62-.66,2.39-1.08.46-.25.97-.41,1.46-.61Z"/>
  <path class="cls-1" d="m111.44,104.38c.11.03.24.04.32.1.29.23.53.52.85.71.47.28.99.46,1.54.55.95.15,1.88.02,2.78-.27.38-.12.74-.32,1.06-.55.52-.37,1.11-.54,1.72-.71v.45c-.23.09-.48.18-.72.3-.58.29-1.16.59-1.73.9-.59.32-1.24.39-1.88.43-.54.03-1.1-.01-1.64-.11-.84-.16-1.55-.59-2.14-1.2-.13-.14-.27-.29-.16-.6Z"/>
  <path class="cls-1" d="m83.7,116.6c-.02-.52.18-.99.36-1.46.1-.26.69-.46,1.02-.38.63.14.93.61,1.1,1.17.16.5.16,1.02.05,1.54-.11.54-.42.89-.91.97-.14.02-.3.01-.43-.04-.81-.33-1.23-.93-1.2-1.79Zm2.27.69c.02-.47-.18-.9-.37-1.31-.06-.13-.27-.23-.43-.27-.32-.07-.81.19-.93.5-.27.71-.3,1.27.5,1.76.28.17.57.27.88.1.3-.17.35-.46.34-.77Z"/>
  <path class="cls-1" d="m22.7,97.77c-.01.27-.12.38-.32.35-.64-.07-1.24.12-1.83.32-.38.13-.75.29-1.09.5-.64.39-1.33.66-2.04.86-.29.08-.66.03-.96-.07-.57-.18-1-.56-1.26-1.12-.08-.17-.07-.31.05-.45.19,0,.22.17.3.28.37.53.82.95,1.51.95.24,0,.51-.05.73-.15.55-.26,1.12-.45,1.64-.8.66-.44,1.45-.6,2.22-.74.32-.06.67.03,1.04.06Z"/>
  <path class="cls-1" d="m48,117.57c-.08.85-.51,1.4-1.34,1.42-.2,0-.44-.04-.59-.15-.66-.49-1.17-1.1-1.16-1.98,0-.27.1-.56.23-.8.17-.32.57-.37.86-.34.75.07,1.31.52,1.74,1.12.15.2.18.49.26.74Zm-1.42,1.17c.31-.02.57-.02.75-.25.26-.35.39-.72.3-1.17-.11-.53-.95-1.09-1.39-1.09-.47,0-.93.37-.96.77-.04.64.42,1.39,1.02,1.65.11.05.22.07.28.09Z"/>
  <path class="cls-1" d="m19.75,99.52c.24.08.47.15.71.23.72.23,1.42.21,2.11-.13,1.22-.59,2.52-.87,3.88-.79.07,0,.15,0,.22.01.13.03.26.07.38.1,0,.28-.03.32-.26.31-.72-.05-1.44-.01-2.16.09-.72.1-1.36.42-2.01.7-.74.31-1.49.34-2.25.14-.17-.05-.33-.13-.49-.21-.19-.09-.25-.23-.13-.45Z"/>
  <path class="cls-1" d="m25.46,106.75c-.46.04-.83-.2-1.22-.36-.24-.1-.46-.27-.68-.42-.93-.69-1.99-.89-3.12-.76-.44.05-.79.32-1.14.58-.08.06-.16.12-.25.2-.14-.16-.16-.3-.01-.44.38-.38.83-.64,1.35-.72,1.12-.19,2.16.09,3.1.68.57.35,1.13.72,1.77.93.15.05.28.11.19.33Z"/>
  <path class="cls-1" d="m75.6,119.5c-.01.2-.01.34-.03.47-.08.5-.45.75-.94.61-.33-.1-.63-.28-.74-.64-.08-.27-.17-.54-.21-.81-.08-.43.18-.9.57-1.1.46-.23.99,0,1.16.54.1.32.14.66.2.93Zm-1.36-.14h-.01c0,.07,0,.15,0,.22,0,.4.23.67.62.72.23.03.37-.05.42-.28.08-.41.02-.82-.11-1.22-.07-.2-.36-.38-.51-.36-.18.03-.37.24-.4.48-.02.15,0,.3,0,.44Z"/>
  <path class="cls-1" d="m30.89,105.13c.21.15.4.29.58.43-.08.33-.37.41-.59.53-.79.4-1.61.55-2.5.37-.54-.11-.94-.44-1.35-.75-.4-.32-.75-.71-1.1-1.09-.08-.09-.09-.26-.09-.41.33.14.57.37.78.62.32.36.68.65,1.07.93.75.53,1.55.5,2.37.28.1-.03.19-.07.29-.11q.42-.16.43-.63s.04-.07.09-.17Z"/>
  <path class="cls-1" d="m104.87,98.71c-.71-.5-1.4-.96-2.06-1.46-.43-.33-.9-.58-1.41-.74-.35-.11-.71-.19-1.07-.29-.08-.02-.17-.06-.22-.12-.11-.12-.06-.27.1-.3.12-.02.24-.02.35.02.58.19,1.14.41,1.72.58.35.1.57.36.84.56.54.41,1.07.83,1.61,1.25.15.11.3.22.14.51Z"/>
  <path class="cls-1" d="m38.94,113.88c.05.32.07.57.13.81.11.48.54.82.99.81.56-.02.9-.45.77-1-.05-.23-.14-.46-.26-.66-.21-.39-.92-.48-1.25-.18-.07.06-.12.13-.2.2-.12-.09-.16-.17-.04-.31.41-.52,1.36-.55,1.83-.04.26.28.42.62.39,1.01,0,.06-.02.12-.02.18.02.24.08.48-.12.68-.22.22-.51.32-.8.35-.41.05-.79-.13-1.13-.32-.34-.19-.48-1.01-.29-1.52Z"/>
  <path class="cls-1" d="m41.17,106.21c-.18.2-.31.17-.45.09-.24-.15-.49-.28-.72-.44-.73-.51-1.54-.66-2.41-.55-.41.05-.83.06-1.23.16-.37.09-.71.26-1.08.4-.16-.24-.16-.26.07-.4.44-.27.94-.38,1.44-.43.55-.06,1.1-.1,1.64-.1.43,0,.86.11,1.24.34.5.29.98.61,1.51.94Z"/>
  <path class="cls-1" d="m63.57,117.03c.31.04.56.04.78.1.57.15.88,1.13.49,1.58-.16.19-.3.49-.62.43-.44-.08-.88-.19-1.29-.36-.35-.15-.41-.43-.33-.81.1-.48.4-.71.78-.89.08-.04.17-.05.18-.05Zm-.76.92c-.02.57.09.73.58.86.2.05.41.08.61.09.23.01.46-.05.59-.25.08-.11.15-.31.1-.4-.17-.27-.38-.55-.74-.58-.4-.04-.8-.02-1.15.28Z"/>
  <path class="cls-1" d="m113.79,109.82c-.13-.07-.21-.11-.27-.16-.39-.38-.88-.59-1.37-.82-.46-.21-.93-.29-1.42-.3-.1,0-.21.02-.31,0-.07-.02-.17-.1-.17-.16,0-.09.05-.22.12-.25.13-.07.29-.12.43-.1.47.05.95.09,1.4.23.62.2,1.14.6,1.61,1.05.18.17.07.32,0,.53Z"/>
  <path class="cls-1" d="m56.72,114.96c.39.07.87.28,1.23.66.31.33.28.87-.05,1.14-.17.14-.36.24-.61.1-.32-.18-.66-.32-1-.47-.26-.12-.5-.65-.43-.96.07-.3.33-.47.86-.47Zm1.14,1.32c0-.4-.25-.68-.64-.71-.16-.01-.32-.06-.48-.05-.14,0-.32.02-.4.11-.13.14-.13.36.01.49.33.31.71.53,1.18.54.23,0,.33-.13.33-.38Z"/>
  <path class="cls-1" d="m65.08,114.25c.3.05.65.26.86.65.12.22,0,.74-.19.92-.16.15-.47.14-.75-.03-.21-.13-.42-.26-.6-.42-.23-.21-.26-.48-.1-.77.15-.27.36-.38.79-.35Zm.62,1.21c.01-.43-.48-.84-.83-.77-.21.04-.31.21-.23.43.09.27.56.59.84.53.1-.02.18-.15.22-.19Z"/>
  <path class="cls-1" d="m56.84,119.6c-.08-.37.16-.62.5-.57.54.09.94.66.85,1.23-.02.12-.05.23-.09.35-.15.5-.51.74-1.03.71-.3-.02-.55-.23-.63-.54-.08-.33-.02-.63.2-1,.1.28.06.5.06.71.02.52.41.73.85.46.4-.24.57-.93.33-1.3-.19-.28-.52-.36-.82-.2-.07.04-.14.1-.22.15Z"/>
  <path class="cls-1" d="m75.62,115.44c.08-.14.13-.32.25-.42.21-.17.43-.02.62.08.34.19.48.71.35,1.08-.07.2-.22.32-.41.35-.18.03-.31-.09-.39-.23-.16-.26-.41-.48-.4-.87Zm.53.13c.11.16.17.4.5.4-.12-.25-.21-.44-.5-.4Z"/>
  <path class="cls-1" d="m95.16,98.75c.21-.02.35-.06.48-.04.69.11,1.35.33,1.88.82.18.17.37.35.25.68-.1-.07-.18-.12-.25-.19-.53-.55-1.23-.75-1.94-.92-.21-.05-.21-.04-.43-.34Z"/>
  <path class="cls-1" d="m38.62,102.12c.39.13.75.27,1.11.38.36.11.73.09,1.08-.06.15-.06.3-.15.47.05-.07.08-.12.17-.2.22-.59.36-1.82.28-2.38-.14-.15-.11-.2-.25-.09-.45Z"/>
  <path class="cls-1" d="m68.49,117.87c-.33-.01-.65-.47-.56-.82.05-.2.15-.39.26-.56.15-.23.41-.3.66-.21.23.08.37.28.33.57-.04.26-.15.5-.23.75-.07.24-.28.24-.47.27Zm.25-1.32c-.31.13-.53.3-.52.66,0,.26.15.37.37.42.43-.33.49-.66.15-1.08Z"/>
  <path class="cls-1" d="m114.28,98.08c.54.22,1.04.4,1.52.61.32.14.31.16.22.58-.34-.14-.68-.28-1.03-.41-.19-.07-.39-.14-.59-.19-.13-.03-.3-.03-.3-.2,0-.12.1-.24.18-.39Z"/>
  <path class="cls-1" d="m69.31,114.56c-.55.1-.82-.09-.98-.55.22-.47.35-.54.67-.37.58.29.6.36.31.92Zm-.07-.43c-.11-.05-.16-.1-.21-.1-.04,0-.08.06-.12.09.05.05.09.12.14.13.04,0,.1-.06.2-.13Z"/>
  <path class="cls-1" d="m61.54,120.15c-.02.26.02.48-.21.53-.2.05-.37-.05-.48-.24-.13-.24-.22-.49-.16-.76.03-.17.12-.31.3-.34.18-.03.28.1.34.23.09.21.16.44.2.59Zm-.48-.21s-.06.05-.09.07c.02.14.03.3.33.32-.1-.17-.17-.28-.24-.39Z"/>
  <path class="cls-1" d="m60.45,114.1c.2.08.38.12.52.21.31.19.33.55.05.77-.12.1-.29.16-.44.02-.14-.13-.27-.27-.39-.41-.09-.1-.19-.22-.07-.35.09-.1.21-.16.33-.25Zm-.03.44c.06.19.17.32.35.35.05,0,.11-.09.18-.16-.17-.13-.29-.29-.53-.2Z"/>
  <path class="cls-1" d="m52.65,115.52c-.05-.01-.07-.02-.08-.02-.12-.02-.29.17-.37-.07-.04-.13.2-.35.38-.37.17-.02.46.17.52.33.1.26.12.83.04,1.14-.34-.26-.24-.72-.49-1.01Z"/>
  <path class="cls-1" d="m52.94,116.81c-.46.22-.7.07-.73-.45.12.31.39.4.73.45Z"/>
  <path class="cls-3" d="m22.27,28.74c-.14-.26-.24-.44-.35-.62-.32-.56-.5-1.18-.62-1.8-.06-.29,0-.6-.04-.89-.1-.72.11-1.38.34-2.04.26-.73.75-1.32,1.33-1.81.4-.33.83-.63,1.27-.89.4-.24.87-.38,1.32-.32.54.08,1.08.23,1.48.66.25.26.55.4.92.39.33-.01.44-.09.44-.42,0-.48.03-.95.15-1.42.25-1.01.6-1.98,1.35-2.72.5-.5,1.09-.82,1.86-.83.92-.02,1.76.19,2.58.58.15.07.27.22.37.36.3.41.59.82.89,1.23.06.08.12.17.15.21.34,0,.45-.17.56-.38.32-.62.78-1.09,1.49-1.25.37-.08.76-.16,1.14-.04,1.04.32,2.04.72,2.86,1.48.44.4.67.89.86,1.43.21.61.41,1.2.34,1.86-.11.93-.28,1.83-.9,2.57-.14.17-.31.31-.5.51-.09-.13-.16-.22-.21-.32-.2-.36-.37-.75-.6-1.09-.39-.6-.93-1.03-1.59-1.29-.66-.26-1.3-.57-2.03-.65-1.04-.11-2.08-.22-3.1.06-.54.15-1.06.39-1.56.64-.37.18-.74.4-1.05.67-.63.52-1.28,1.01-1.74,1.71-.33.5-.66.99-.89,1.54-.1.25-.22.5-.25.75-.03.25-.14.37-.34.47-.6.3-1.14.7-1.68,1.09-.56.4-1.03.9-1.51,1.39-.48.49-.92,1.02-1.27,1.61-.21.34-.37.71-.53,1.08-.2.46-.46.9-.54,1.41-.04.28-.11.55-.12.83-.03.92-.06,1.85.19,2.75.02.07.06.14.05.22-.03.84.38,1.5.85,2.15.43.6.99,1,1.62,1.35.25.14.5.25.8.23.13,0,.26.05.34.07.36.74.69,1.44,1.26,1.98.65.62,1.44.95,2.33,1.09.66.1,1.27.07,1.86-.23.05-.03.12-.06.17-.04.44.17.91.3,1.1.82.04.11.11.21.16.31.12.25.26.5.34.77.31.97.35,1.98.41,2.98,0,.11-.01.25-.07.34-.58.84-1.26,1.58-2.11,2.14-.35.23-.76.39-1.23.28-.39-.09-.81-.04-1.19-.15-.97-.26-1.63-.89-2.1-1.78-.22-.42-.39-.84-.49-1.31-.12-.54-.07-1.06.1-1.58.04-.12.14-.24-.04-.39-.08.04-.21.06-.28.14-.58.6-1.31.85-2.12.93-.3.03-.59.06-.89.08-.77.04-1.46-.2-2.07-.68-.34-.27-.71-.49-1.01-.79-.53-.54-1.09-1.12-1.03-1.95.04-.55.22-1.11.39-1.64.1-.31.28-.59.46-.86.11-.17.26-.31.42-.44.27-.21.32-.36.07-.62-.21-.22-.45-.44-.71-.59-.45-.25-.74-.66-.99-1.06-.63-.98-1.29-1.96-1.46-3.16-.03-.22-.17-.41-.22-.63-.22-.91-.14-1.8.17-2.67.36-1.03.95-1.91,1.78-2.63.5-.43,1.04-.73,1.7-.84.28-.05.56-.11.83-.18.11-.03.2-.1.33-.16Z"/>
  <path class="cls-3" d="m102.39,20.85c.48-.41,1.03-.6,1.6-.68.88-.12,1.77-.21,2.66-.29.32-.03.65.03.98.06.26.02.54,0,.79.06.53.12,1.08.24,1.58.45.68.29,1.08.89,1.37,1.53.45,1.03.18,2.01-.41,2.91-.07.11-.18.19-.28.27-.26.22-.23.39.08.51.45.18.92.35,1.35.57.25.12.48.3.67.51.43.48.86.96,1.22,1.48.58.85.79,1.82.7,2.85-.03.4-.05.8-.13,1.19-.2,1.06-.8,1.76-1.88,2.02-.5.12-1,.27-1.49.43-.28.09-.31.24-.11.43.06.06.14.12.22.15,1.02.44,1.47,1.25,1.64,2.32.18,1.12-.3,2-.94,2.83-.38.5-.86.86-1.45,1.12-.34.15-.62.42-1,.47-.15.02-.29.04-.44.02-.37-.04-.74-.15-1.1-.13-.6.03-1.1-.2-1.59-.48-.05-.03-.1-.04-.22-.08.02.16.01.27.04.38.07.23.13.46.23.67.18.38.17.78.15,1.18-.01.31-.05.62-.11.93-.12.7-.88,1.38-1.57,1.52-.84.18-1.66.09-2.46-.11-.51-.12-.96-.41-1.33-.79-.29-.3-.56-.62-.83-.93-.23-.27-.27-.31-.68-.38-.03.1-.09.21-.08.31.03,1.12-.41,2.06-1.17,2.84-.21.22-.55.32-.84.46-.29.14-.61.25-.88.41-.27.17-.55.2-.85.19-.24,0-.31-.12-.26-.36.24-1.19.57-2.36,1.01-3.5.28-.74.67-1.42.95-2.15.06-.17.18-.25.36-.27.92-.08,1.72-.5,2.35-1.14.41-.42.77-.45,1.29-.34,1.02.21,2.05.09,3.04-.2.63-.19,1.18-.56,1.63-1.05.47-.51.91-1.05,1.18-1.71.13-.32.4-.59.56-.91.18-.36.32-.75.47-1.14.09-.23.19-.47.23-.72.04-.23.01-.47.03-.71.05-.89.13-1.77.15-2.66.01-.66-.06-1.33-.34-1.95-.25-.55-.49-1.11-.79-1.63-.21-.37-.52-.69-.81-1-.39-.41-.81-.78-1.22-1.17-.28-.26-.57-.51-.85-.77-.07-.07-.12-.17-.15-.27-.16-.43-.32-.86-.45-1.3-.23-.75-.78-1.27-1.31-1.81-.15-.16-.32-.3-.5-.46Z"/>
  <path class="cls-2" d="m34.72,56.24c0-1.44.09-2.88.12-4.32,0-.43-.05-.85-.08-1.28-.04-.6-.08-1.21-.13-1.81-.05-.62-.05-1.25-.17-1.86-.16-.86-.41-1.72-1.06-2.36-.3-.29-.68-.51-1.02-.76.17-.3.33-.6.48-.88.53-.08,1.06-.14,1.59-.23.38-.06.69-.27.8-.64.18-.59.32-1.2.44-1.81.08-.41-.08-.8-.25-1.16-.29-.62-.68-1.2-1.23-1.63-.4-.32-.71-.71-1.02-1.1-.77-.98-1.15-1.6-1.42-2.86.59-.28,1.18-.4,1.82-.11.54.24,1.01.58,1.36,1.06.2.27.34.58.49.87.3.59.52,1.21.66,1.86.11.51.2,1.03.34,1.54.15.55.2,1.11.33,1.67.13.56.25,1.14.27,1.71.03.78.17,1.53.35,2.29.08.34.07.71.09,1.07.04.76.05,1.52.13,2.27.09.92-.03,1.84-.04,2.76,0,.4.01.8,0,1.2-.03,1.31-.05,2.62-.1,3.92-.03.73-.13,1.45-.15,2.18-.02.83.01,11.66,0,12.5,0,.71-.03,1.43-.05,2.14,0,.31,0,.61,0,.92,0,.42-.01.83-.02,1.25,0,.46-.02,4.92-.02,5.38-.01.76-.04,1.52-.03,2.28.01.61.06,1.22.12,1.83.05.43.16.86.22,1.3.06.4.1.8.12,1.2.06,1.23.15,2.47.14,3.7,0,.7-.03,1.43-.35,2.1-.04.08-.03.17-.05.26-.11.56-.51.92-1.1.97-.49.04-.96,0-1.43-.18-.38-.16-.55-.44-.58-.82-.05-.62-.08-1.24-.09-1.87,0-.42.05-.83.05-1.25,0-.36-.06-.71-.05-1.07.02-.46.08-.92.12-1.37,0-.09.01-.18.02-.27.07-1.49.14-2.97.21-4.46,0-.06,0-.12,0-.18.01-.47-.02-.94.15-1.41.1-.27,0-.61.01-.92.02-.76.06-5.53.07-6.29"/>
  <path class="cls-2" d="m95.75,31.44c.01.46-.13.91-.27,1.34-.3.89-.63,1.76-.94,2.65-.18.52-.24,1.04-.07,1.58.08.26.21.46.42.62.33.25.67.49,1.03.75-.11.22-.22.46-.34.7-.39.74-.27,1.06.13,1.54.28.34.56.65,1,.8.09.03.16.12.25.19-.19.35-.39.69-.56,1.03-.57,1.15-.95,2.37-1.27,3.61-.36,1.38-.46,2.81-.62,4.22-.09.81-.09,1.64-.1,2.45-.02,1.27-.02,2.53-.04,3.8-.02,1.37-.06,12.74-.08,14.11-.01.85-.02,1.7,0,2.55.03.77.12,1.54.16,2.31.03.46,0,4.93.03,5.39.03.52.11,1.03.16,1.55.06.68.12,1.36.18,2.04.03.28.09.56.11.84.03.59.07,1.19.04,1.78-.03.8-.14,1.59-.08,2.4.05.82.07,1.63.19,2.45.01.09,0,.18,0,.27,0,.17-.1.24-.26.21-.58-.1-1.08-.31-1.38-.86-.38-.68-.65-1.39-.74-2.18-.13-1.2-.18-2.4-.19-3.61,0-.75-.05-1.5-.14-2.25-.11-.91-.15-1.83-.19-2.75-.06-1.26-.1-6.53-.15-7.79-.04-.91-.1-1.81-.12-2.72-.02-.94,0-11.89,0-12.83,0-1.03-.04-2.06-.02-3.09.01-.68.1-1.36.15-2.03.03-.32.08-.65.1-.97.04-.62.08-1.25.09-1.87.02-1.06,0-2.13.01-3.19.01-.82.09-1.63.07-2.45-.03-1.34.06-2.67.19-4,.09-.87.21-1.74.4-2.59.15-.66.41-1.3.64-1.94.15-.42.34-.82.47-1.24.28-.86.79-1.58,1.32-2.3.12-.16.22-.34.32-.51.03,0,.06.01.09.02Z"/>
  <path class="cls-3" d="m92.45,22.7c.45-.17.92-.33,1.36-.53.46-.2.94-.25,1.44-.26.92-.02,1.82.02,2.68.37.45.18.87.44,1.31.66,1.08.53,1.86,1.43,2.73,2.21.87.77,1.52,1.72,2.09,2.71.41.71.61,1.51.73,2.33.12.82-.05,1.6-.17,2.39-.07.46-.3.9-.48,1.33-.4.96-.81,1.92-1.25,2.86-.28.59-.73,1.07-1.19,1.54-.39.39-.75.8-1.15,1.18-.72.69-1.45,1.37-2.42,1.69-.48.16-.91-.05-1.24-.32-.53-.44-.75-1.05-.63-1.75.07-.42.32-.63.74-.67.5-.05.91-.33,1.36-.52.73-.3,1.25-.88,1.58-1.56.28-.59.6-1.18.67-1.87.07-.67.27-1.33.37-2.01.06-.37.04-.74.2-1.09-.16-.59.15-1.22-.15-1.8-.04-.07-.02-.18-.03-.26-.06-.38-.12-.75-.35-1.09-.2-.31-.32-.67-.49-1-.3-.58-.78-.99-1.26-1.43-.97-.88-2.06-1.57-3.25-2.08-.99-.42-2.03-.73-3.1-.91-.04,0-.07-.03-.11-.04,0-.03,0-.06,0-.09Z"/>
  <path class="cls-3" d="m101.86,24.14c.21.05.37.07.52.12.38.14.75.28,1.12.44.56.24,1.08.54,1.56.92.32.26.7.45,1.03.7.49.37.88.84,1.15,1.39.12.24.2.49.31.73.2.43.34.87.39,1.36.12,1.13.19,2.25.13,3.39-.04.78-.18,1.54-.53,2.24-.36.71-.7,1.44-1.09,2.13-.2.36-.44.72-.75.97-.42.35-.87.67-1.41.89-.89.36-1.78.22-2.68.24-.04,0-.08-.03-.15-.07.02-.07.03-.14.07-.19.32-.36.63-.73.98-1.06.57-.52.94-1.17,1.27-1.85.51-1.06.89-2.16,1.17-3.3.14-.59.16-1.2.21-1.81.08-.94-.07-1.86-.37-2.76-.1-.29-.2-.59-.35-.87-.29-.55-.59-1.1-.92-1.62-.39-.61-.86-1.16-1.41-1.65-.07-.06-.13-.12-.19-.19-.02-.02-.02-.05-.05-.17Z"/>
  <path class="cls-3" d="m31.22,26.87c-.35.45-.64.84-.95,1.22-.36.44-.54.95-.68,1.49-.07.26-.15.51-.26.76-.05.11-.17.2-.29.26-1.18.6-1.88,1.61-2.37,2.79-.32.78-.61,1.58-.82,2.39-.12.48-.1,1-.09,1.51.02,1.12.15,2.22.5,3.29.08.25-.04.37-.3.31-.1-.02-.19-.08-.27-.14-.7-.55-1.28-1.2-1.76-1.94-.22-.34-.3-.76-.42-1.16-.09-.3-.13-.61-.22-.91-.22-.78-.14-1.56-.08-2.35.12-1.39.78-2.55,1.57-3.64.34-.46.78-.85,1.2-1.26.53-.52,1.06-1.05,1.63-1.53.87-.72,1.83-1.22,3.02-1.1.17.02.34,0,.59,0Z"/>
  <path class="cls-3" d="m41.51,26.97c-.78-.85-1.79-1.36-2.76-1.93-.82-.48-1.73-.51-2.63-.37-1.54.24-2.93.86-4.21,1.73-.18.12-.36.13-.58.13-.53-.02-1.07.05-1.6.09-.26.02-.52.08-.85.13.05-.23.06-.44.13-.62.36-.87.81-1.7,1.49-2.36.33-.33.72-.62,1.13-.85.59-.34,1.21-.64,1.84-.91.87-.38,1.79-.41,2.72-.3,1.12.14,2.15.56,3.14,1.08.45.23.69.69,1.02,1.05.61.67.88,1.5,1.17,2.32.08.24.08.51.11.77l-.11.04Z"/>
  <path class="cls-3" d="m29.19,31.02c-.05.24-.09.45-.13.66-.13.64-.28,1.27-.4,1.91-.05.26-.12.53-.1.79.03.68.01,1.37.22,2.03.07.21.09.43.14.65.09.37.19.75.28,1.12.25,1.13.8,2.14,1.42,3.1.28.43.67.8,1.06,1.14.23.21.56.31.86.47-.07.71-.66.97-1.27,1.19-.15.06-.35,0-.53-.02-.41-.06-.82-.11-1.23-.21-.54-.13-.97-.45-1.35-.83-.55-.55-1-1.18-1.22-1.94-.03-.1-.01-.22-.03-.33-.01-.1-.01-.21-.05-.3-.33-.69-.43-1.42-.44-2.17,0-.25-.02-.5,0-.75.03-.49.08-.97.14-1.46.1-.8.28-1.58.54-2.33.16-.48.33-.97.71-1.36.29-.29.5-.66.75-1,.15-.2.32-.35.63-.36Z"/>
  <path class="cls-3" d="m103.89,24.24c-.66-.12-1.27-.24-1.88-.35-.4-.07-.73-.25-1.06-.5-.85-.65-1.73-1.25-2.77-1.57-1.16-.35-2.36-.51-3.56-.4-.61.06-1.22.24-1.81.42-.24.07-.45.26-.68.4-.32.2-.61.44-1.05.37-.28-.04-.58.02-.9.03.08-.5.41-.82.68-1.16.82-1.05,1.96-1.59,3.19-2,.58-.19,1.16-.28,1.75-.31.54-.03,1.1.07,1.64.16,1,.18,1.96.46,2.88.9.82.4,1.5.97,2.12,1.62.38.39.71.83,1.07,1.25.28.32.34.71.39,1.13Z"/>
  <path class="cls-4" d="m50.22,52.54c-.19.02-.3.04-.47.06.02-.21.03-.38.04-.56.04,0,.08-.02.12-.03.09.16.19.32.31.53Z"/>
  <path class="cls-3" d="m85.97,117.28c0,.31-.04.61-.34.77-.31.17-.6.07-.88-.1-.8-.49-.77-1.05-.5-1.76.12-.3.61-.57.93-.5.16.04.37.14.43.27.19.42.39.84.37,1.31Z"/>
  <path class="cls-3" d="m46.58,118.73c-.06-.02-.18-.04-.28-.09-.6-.26-1.06-1.01-1.02-1.65.02-.4.49-.77.96-.77.44,0,1.29.56,1.39,1.09.09.45-.04.82-.3,1.17-.17.23-.44.23-.75.25Z"/>
  <path class="cls-3" d="m74.24,119.36c0-.15-.02-.3,0-.44.03-.24.22-.45.4-.48.15-.02.44.16.51.36.13.39.19.8.11,1.22-.04.23-.19.31-.42.28-.39-.05-.62-.31-.62-.72,0-.07,0-.15,0-.22h.01Z"/>
  <path class="cls-3" d="m62.81,117.95c.35-.3.75-.32,1.15-.28.36.03.57.31.74.58.05.08-.02.29-.1.4-.14.19-.36.26-.59.25-.21,0-.41-.04-.61-.09-.49-.12-.6-.29-.58-.86Z"/>
  <path class="cls-3" d="m57.86,116.27c0,.25-.1.38-.33.38-.47,0-.85-.23-1.18-.54-.14-.13-.14-.36-.01-.49.08-.09.26-.11.4-.11.16,0,.32.04.48.05.39.03.65.31.64.71Z"/>
  <path class="cls-3" d="m65.7,115.46s-.12.17-.22.19c-.28.06-.75-.26-.84-.53-.07-.21.02-.39.23-.43.35-.06.84.34.83.77Z"/>
  <path class="cls-3" d="m76.15,115.57c.29-.04.37.15.5.4-.33,0-.38-.24-.5-.4Z"/>
  <path class="cls-3" d="m68.74,116.56c.34.42.28.75-.15,1.08-.22-.05-.37-.16-.37-.42,0-.36.22-.53.52-.66Z"/>
  <path class="cls-3" d="m69.25,114.13c-.1.07-.16.14-.2.13-.05-.01-.09-.09-.14-.13.04-.03.08-.09.12-.09.05,0,.11.05.21.1Z"/>
  <path class="cls-3" d="m61.06,119.94c.07.11.13.22.24.39-.3-.02-.3-.18-.33-.32.03-.02.06-.05.09-.07Z"/>
  <path class="cls-3" d="m60.43,114.54c.24-.1.36.06.53.2-.07.06-.14.17-.18.16-.18-.04-.29-.16-.35-.35Z"/>
</svg>