<?xml version="1.0" encoding="UTF-8"?>
<svg xmlns="http://www.w3.org/2000/svg" viewBox="0 0 136.06 136.06">
  <defs>
    <style>
      .cls-1 {
        fill: #fff;
      }

      .cls-2 {
        fill: #0c3454;
      }

      .cls-3 {
        fill: #e0e1e3;
      }
    </style>
  </defs>
  <g id="Layer_3" data-name="Layer 3">
    <rect class="cls-3" x="0" width="136.06" height="136.06"/>
  </g>
  <g id="B_W" data-name="B&amp;amp;W">
    <g>
      <path class="cls-1" d="m90.1,43.38c-.05,1.03-.06,2.06-.09,3.08-.01.38-.01.75-.05,1.12-.09.96-.23,1.92-.3,2.88-.07.9-.05,1.82-.11,2.72-.04.86-.11,1.73-.21,2.58-.12,1.02-.31,2.03-.42,3.05-.1.82-.16,11.66-.19,12.49-.03.55.02,1.1.02,1.65,0,.6-.02,1.19-.02,1.79v.15h-.45c0-.43-.05-.86-.08-1.29-.05-.71-.11-1.41-.14-2.11-.02-.46-.01-.92-.01-1.37.01-.49.05-10.97.03-11.45-.03-.83-.12-1.65-.15-2.47-.06-1.54.11-3.06.2-4.59.03-.64.14-1.27.19-1.9.06-.92.11-1.84.16-2.76.02-.36.02-.73.03-1.1.02-.36.07-.72.03-1.07-.13-1.1-.1-2.2.01-3.29.04-.36.06-.71.09-1.07.04-.62.07-1.24.12-1.86.04-.59.11-1.18.15-1.77.04-.54.06-1.09.1-1.64.02-.27.05-.53.08-.8.03-.32.07-.65.11-.97.03-.21.09-.41.1-.62.04-.6.03-1.21.21-1.79.01-.06.02-.13,0-.17-.19-.38,0-.74.09-1.08.25-.86.6-1.66,1.21-2.35.35-.39.7-.54,1.17-.44.48.1.97.2,1.42.37.54.2,1.07.46,1.33,1.05-.09.05-.18.1-.27.16-.39.27-.81.51-1.14.83-.54.51-1.09,1.02-1.34,1.75-.02.04-.05.08-.08.11-.37.38-.52.86-.66,1.34-.03.12-.05.24-.08.35-.4,1.33-.67,2.68-.62,4.08.03.72-.1,1.43-.16,2.14-.13,1.42-.21,2.85-.28,4.27Z"/>
      <path class="cls-1" d="m92.02,48.33c-.03.61-.09,1.21-.13,1.82l-.18,2.58c-.05.69-.1,1.37-.12,2.06-.01.73.02,1.46.03,2.19,0,1.11-.02,12.23.01,13.34.01.79.1,1.57.13,2.36.07,1.52.13,7.04.18,8.56.02.56-.01,1.13.01,1.69.04,1.09.12,2.17.17,3.25.02.43,0,.86,0,1.29,0,.38-.03.76.01,1.14.03.37.11.73.18,1.1.15.73.33,1.45.67,2.12.55,1.09,1.71,1.59,2.85,1.17.53-.19,1.06-.44,1.5-.77.63-.48,1.14-1.11,1.58-1.79.06-.09.19-.3.36-.57l1.02.06c-.18.19-.34.41-.45.65-.38.81-.9,1.51-1.46,2.19-.74.91-1.7,1.5-2.84,1.78-.45.1-.89.16-1.36.14-1.01-.04-1.88-.39-2.67-.98-.26-.2-.5-.44-.68-.7-.35-.55-.57-1.17-.75-1.8-.17-.64-.21-1.28-.24-1.93-.02-.36-.1-.71-.1-1.06-.01-.82-.09-1.63-.19-2.44-.12-.87-.2-1.74-.27-2.61-.05-.71-.08-1.43-.09-2.14-.02-1.13,0-6.26-.01-7.39,0-.43.08-.87-.16-1.27-.03-.06-.01-.15-.01-.22-.03-1.48.1-12.95.33-14.41.16-1.05.32-2.11.47-3.17.18-1.3.04-2.62.25-3.92.08-.47.04-.97.09-1.45.05-.61.14-1.21.19-1.81.06-.68.11-1.36.13-2.04.02-.57-.03-1.15.01-1.72.07-1.14.17-2.28.26-3.43.02-.26.02-.53.08-.79.17-.82.25-1.65.25-2.48,0-.18,0-.36.03-.54.13-.79.26-1.58.41-2.36.13-.71.29-1.41.64-2.03.4-.67.82-1.35,1.4-1.89.47-.44.98-.86,1.46-1.28.55.52.68,1.13.69,1.79,0,.08-.01.18-.05.25-.22.34-.47.65-.68.99-.33.54-.7,1.07-.96,1.65-.39.9-.67,1.84-1.05,2.74-.38.92-.54,1.88-.65,2.85-.11.95-.2,1.9-.23,2.85-.05,1.49-.04,2.98-.05,4.47,0,.64,0,1.27-.01,1.91Z"/>
      <path class="cls-1" d="m100.18,27.24c-.3-.58-.78-.99-1.26-1.43-.97-.88-2.06-1.57-3.25-2.07-1-.43-2.03-.73-3.11-.91-.03-.01-.07-.03-.11-.04v-.09c.45-.17.91-.33,1.36-.53.46-.2.94-.25,1.43-.25.92-.02,1.83.02,2.69.36.45.18.87.44,1.31.66,1.08.53,1.86,1.43,2.73,2.21.87.77,1.52,1.71,2.09,2.7.41.71.62,1.51.74,2.33.11.82-.05,1.61-.17,2.39-.07.46-.3.9-.48,1.34-.41.96-.81,1.92-1.25,2.86-.28.59-.73,1.07-1.19,1.54-.39.39-.76.8-1.15,1.18-.72.69-1.45,1.37-2.42,1.69-.49.15-.92-.05-1.25-.33-.52-.43-.74-1.05-.62-1.74.07-.42.31-.63.73-.67.5-.05.91-.34,1.36-.52.73-.31,1.25-.88,1.58-1.56.28-.59.6-1.18.67-1.87.07-.67.27-1.33.37-2.01.06-.36.05-.74.21-1.08-.16-.59.15-1.22-.15-1.81-.04-.07,0-.17-.03-.26-.05-.38-.12-.75-.35-1.09-.2-.31-.31-.67-.48-1Z"/>
      <path class="cls-1" d="m111.19,34.73c-.28.09-.31.23-.11.43.06.06.14.12.22.15,1.02.44,1.47,1.26,1.64,2.32.18,1.12-.31,2-.94,2.83-.38.5-.86.86-1.45,1.12-.33.14-.61.42-1,.47-.14.01-.29.03-.43.02-.37-.04-.74-.15-1.11-.14-.6.03-1.09-.2-1.59-.48-.05-.03-.1-.04-.22-.08.02.15.02.27.05.37.06.23.13.46.23.67.18.38.17.79.15,1.19-.01.31-.05.62-.11.93-.12.69-.87,1.38-1.57,1.52-.83.18-1.65.09-2.46-.11-.51-.12-.96-.4-1.33-.79-.28-.3-.55-.62-.82-.94-.24-.27-.28-.3-.68-.37-.03.1-.09.2-.09.31.04,1.12-.41,2.06-1.17,2.84-.21.22-.55.32-.84.46-.29.15-.61.25-.88.42-.27.16-.56.2-.85.19-.24-.01-.31-.12-.26-.36.24-1.19.57-2.35,1-3.5.28-.74.67-1.42.96-2.14.06-.17.18-.26.36-.27.93-.09,1.73-.5,2.35-1.15.41-.42.76-.44,1.29-.34,1.02.21,2.05.1,3.04-.2.62-.19,1.17-.56,1.62-1.05.48-.51.92-1.05,1.18-1.71.14-.33.4-.59.56-.91.19-.37.32-.75.47-1.14.09-.23.19-.47.23-.71.04-.23.02-.48.03-.71.05-.89.13-1.78.14-2.67.02-.66-.05-1.33-.33-1.95-.26-.55-.49-1.11-.8-1.63-.21-.36-.51-.69-.81-1-.39-.4-.81-.78-1.22-1.16-.27-.26-.57-.51-.84-.78-.07-.06-.12-.17-.16-.26-.15-.43-.31-.86-.45-1.3-.24-.75-.78-1.27-1.31-1.81-.15-.16-.32-.3-.49-.46.48-.41,1.02-.6,1.6-.68.88-.12,1.77-.21,2.66-.28.32-.03.65.03.97.05.26.02.54.01.79.06.53.13,1.08.24,1.58.45.68.29,1.09.89,1.37,1.54.45,1.03.18,2-.41,2.91-.07.11-.19.19-.28.27-.26.23-.23.39.08.51.45.18.91.35,1.35.57.25.12.49.3.67.51.43.47.86.95,1.22,1.48.58.85.79,1.82.7,2.85-.04.4-.05.8-.13,1.2-.2,1.05-.8,1.76-1.88,2.01-.51.12-1,.27-1.49.43Z"/>
      <path class="cls-1" d="m38.04,46.92c-.02-.23-.02-.47,0-.71.04-.84-.09-1.67-.31-2.47-.21-.75-.25-1.52-.4-2.28-.07-.35-.12-.7-.19-1.05-.06-.35-.14-.69-.23-1.04-.15-.6-.36-1.19-.46-1.81-.11-.66-.32-1.29-.55-1.91-.13-.37-.41-.68-.56-1.05-.17-.44-.49-.73-.84-1.01-.69-.58-1.46-.69-2.3-.46-.16.05-.31.07-.47.11-.09-.74.22-1.32.56-1.88.04-.08.11-.15.18-.19.35-.19.72-.3,1.12-.25.26.03.52.1.79.12.65.04,1.08.44,1.4.92.46.66.95,1.3,1.29,2.04.25.53.53,1.04.77,1.56.5,1.08.63,2.26.83,3.41.18,1,.21,2.01.2,3.03-.01.28.04.56.05.84v1.95c0,1.61.02,3.23-.16,4.84-.04.38-.05.76-.05,1.15h-.39c0-.91-.05-1.83-.13-2.75-.03-.37-.1-.74-.14-1.11Z"/>
      <path class="cls-1" d="m37.87,91.55c.05-.6.09-1.19.1-1.79,0-.72-.01-1.45-.05-2.18-.06-.86-.17-1.71-.25-2.57-.02-.24-.04-.47-.04-.71s.04-.5.04-.75c-.01-.46-.05-.92-.05-1.38,0-.49.02-.98.02-1.47.03-1.52.04-7.04.06-8.56.02-1.04.06-12.08.09-13.12.01-.53,0-1.07.05-1.61.08-.96.21-1.92.28-2.88.08-.93.14-1.87.17-2.8.01-.32.02-.63.02-.94h.39c0,.68.05,1.38.05,2.08.01.33.01.65.02.98,0,.07.01.14.01.22.04.7.14,1.41.1,2.12-.04.63-.1,1.26-.06,1.89.01.19-.04.39-.05.58,0,.13,0,.26.01.39,0,.16.04,10.33.05,10.49,0,.44,0,.89-.01,1.33,0,.5-.04,1-.04,1.51,0,.82.02,1.64.04,2.46.02.61.07,5.22.08,5.83,0,.4-.05.8-.04,1.2,0,1.15.03,2.3.05,3.44.01.64.02,1.28.02,1.92.01.6-.01,1.19.02,1.78.04.64.13,1.27.19,1.91.03.26.03.52.25.72.05.05.06.17.05.26-.01.8-.03,1.6-.03,2.4,0,.5-.29.89-.52,1.3-.13.23-.25.5-.45.66-.51.4-1.03.8-1.59,1.13-.48.28-1.02.47-1.61.31-.1-.02-.21-.02-.31-.04-.8-.15-1.53-.41-2.1-1.06-.54-.63-1.15-1.2-1.74-1.79-.28-.29-.66-.39-1.03-.51-.23-.07-.32.04-.32.3.28.14.58.23.79.41.46.4.92.81,1.3,1.27.6.71,1.25,1.35,2.03,1.86.27.17.55.29.88.26.47-.03.95-.04,1.42-.11.27-.04.55-.14.78-.29.48-.32.94-.68,1.39-1.06.36-.3.72-.61.96-1.04.28-.48.5-1,.51-1.55.01-.63-.1-1.27-.15-1.91-.08-.99-.2-1.98-.24-2.97-.04-1.4-.04-2.8-.04-4.2,0-1.2.02-2.4.04-3.61,0-.14.01-.29.01-.44.02-.66.11-5.32.06-5.97-.07-.85-.1-1.69-.02-2.54.02-.25.02-.5.02-.76,0-.64-.03-1.28-.01-1.92.05-1.27.07-12.55-.02-13.82-.09-1.21-.11-2.42-.08-3.64.04-1.55.07-3.1.09-4.64.01-.75.02-1.49.01-2.23-.01-.6-.06-1.19-.09-1.78l-.15-2.58c-.04-.72-.04-1.45-.13-2.17-.09-.75-.27-1.49-.42-2.22-.06-.31-.15-.61-.25-.91-.28-.77-.41-1.62-1.1-2.19-.07-.06-.1-.18-.16-.27-.37-.61-.71-1.24-1.13-1.82-.32-.43-.69-.87-1.31-.92-.19-.02-.39-.03-.57-.08-.48-.13-.94-.16-1.45.05.41-.57,1.25-1.15,1.7-1.33.11-.04.23-.07.35-.09,1.29-.13,2.44.24,3.48.98.38.27.68.63.84,1.08.05.14.13.27.19.41.42.89.7,1.82.75,2.82.05.77.16,1.53.21,2.3.05.67.08,1.34.11,2.01.03.6.03,1.21.07,1.81.06.75.15,1.49.21,2.23.04.57.07,1.15.09,1.73.06,1.39.12,2.77.16,4.16.01.3-.11.61-.13.92-.02.53-.01,1.06-.01,1.59s.01,1.1,0,1.65l-.09,2.85c-.01.73-.01,1.45-.03,2.17-.03.58-.11,11.15-.13,11.73-.06,1.68.03,3.35-.08,5.03-.05.72.07,5.45.12,6.18.06.76.14,1.53.2,2.3.02.3,0,.6.02.9.07.8.18,1.61.22,2.42.07,1.09.08,2.17.14,3.26.01.23.07.46.12.69.03.15.09.28.1.42.06.7.09,1.39.14,2.09,0,.08.03.17.01.26-.05.38-.1.76-.18,1.14-.1.4-.2.8-.34,1.19-.28.78-.94,1.29-1.43,1.91-.08.09-.17.17-.26.24-.32.27-.64.53-.97.78-.26.2-.52.41-.81.56-.93.49-1.94.74-2.98.85-.37.04-.74.03-1.1-.11-.95-.38-1.81-.92-2.6-1.58-.13-.12-.25-.26-.39-.36-.34-.22-.71-.39-1.02-.63-.46-.36-.97-.59-1.51-.75-.52-.17-1.06-.34-1.6-.37-.68-.03-1.28.24-1.87.54l-.18-.36c1.1-.5,2.63-1.59,3.33-2.51.56-.74,1.17-1.48,2.18-1.7.82-.06,1.57.47,2.06.97.51.54,1.55,1.63,2.51,1.62,2.78.03,2.89-1.07,3.08-1.55.21-.56.44-1.11.48-1.71Z"/>
      <path class="cls-1" d="m26.42,38.29c-.01-.25-.02-.5,0-.75.03-.49.07-.97.13-1.46.1-.79.29-1.57.54-2.33.17-.48.33-.97.72-1.36.29-.29.5-.66.74-1,.15-.2.32-.35.64-.37-.05.24-.09.45-.13.67-.14.63-.28,1.27-.41,1.91-.05.26-.11.53-.1.79.03.68.01,1.37.22,2.03.07.21.09.44.14.65.09.38.19.75.28,1.12.25,1.14.8,2.14,1.42,3.1.27.43.67.8,1.06,1.14.23.21.55.31.86.47-.07.72-.67.97-1.27,1.19-.16.06-.36.01-.53-.02-.41-.06-.82-.11-1.23-.21-.53-.12-.96-.45-1.35-.83-.55-.55-.99-1.18-1.21-1.94-.03-.11-.02-.22-.03-.33,0-.1,0-.21-.05-.3-.33-.69-.44-1.42-.44-2.17Z"/>
      <path class="cls-1" d="m29.99,44.33c.65.1,1.26.08,1.85-.23.05-.02.12-.05.17-.03.44.16.91.3,1.1.82.04.1.11.2.16.31.12.25.26.5.34.76.31.97.35,1.98.41,2.98.01.12-.01.25-.07.34-.58.84-1.26,1.58-2.11,2.15-.35.23-.76.38-1.23.27-.39-.09-.81-.04-1.19-.15-.97-.26-1.63-.88-2.1-1.78-.22-.42-.39-.84-.49-1.3-.12-.54-.07-1.06.1-1.58.04-.12.14-.24-.04-.39-.08.04-.21.06-.28.14-.58.6-1.31.85-2.12.93-.29.03-.59.06-.88.08-.78.04-1.46-.2-2.07-.68-.33-.26-.71-.49-1.01-.79-.52-.54-1.09-1.12-1.02-1.95.04-.55.22-1.1.38-1.64.1-.31.29-.59.47-.86.1-.17.26-.32.42-.44.27-.21.31-.36.07-.62-.21-.23-.44-.44-.71-.59-.45-.25-.73-.66-.99-1.06-.63-.98-1.29-1.96-1.46-3.16-.03-.22-.17-.42-.22-.63-.23-.91-.14-1.8.16-2.67.37-1.03.95-1.92,1.78-2.63.5-.43,1.05-.74,1.7-.85.28-.04.56-.1.83-.17.11-.03.2-.1.33-.17-.14-.25-.24-.43-.34-.61-.33-.56-.5-1.18-.62-1.81-.06-.28,0-.59-.04-.89-.1-.72.11-1.38.34-2.04.26-.73.75-1.32,1.34-1.81.39-.33.83-.62,1.27-.89.4-.24.87-.39,1.32-.32.53.08,1.08.23,1.48.66.25.26.55.4.92.39.33-.01.44-.09.44-.43,0-.48.03-.95.14-1.41.26-1.01.6-1.98,1.36-2.72.5-.5,1.08-.83,1.85-.84.93-.01,1.77.19,2.58.58.15.08.27.23.38.36.3.41.59.83.88,1.24.06.08.12.17.15.21.35,0,.46-.17.57-.39.32-.62.78-1.09,1.48-1.24.38-.08.76-.16,1.14-.04,1.05.31,2.04.72,2.86,1.48.44.4.67.89.86,1.43.22.6.42,1.2.34,1.86-.11.93-.28,1.83-.9,2.56-.15.17-.31.32-.51.52-.09-.14-.16-.22-.21-.32-.2-.36-.38-.74-.6-1.09-.39-.6-.93-1.03-1.59-1.29-.67-.25-1.31-.57-2.03-.65-1.04-.11-2.08-.22-3.1.06-.54.15-1.06.39-1.56.64-.38.18-.74.41-1.06.67-.63.52-1.28,1.01-1.74,1.71-.32.5-.66.99-.88,1.54-.1.25-.23.5-.26.75s-.14.38-.34.48c-.6.3-1.13.7-1.68,1.09-.56.4-1.03.9-1.51,1.38-.48.49-.91,1.02-1.27,1.61-.2.34-.37.71-.53,1.08-.19.46-.46.9-.53,1.41-.04.28-.11.56-.12.83-.03.93-.06,1.85.19,2.75.02.08.06.15.05.22-.03.84.38,1.49.85,2.15.43.6.99,1,1.62,1.35.24.14.5.25.8.23.12-.01.25.05.33.07.36.74.69,1.44,1.26,1.98.65.61,1.44.95,2.34,1.09Z"/>
      <path class="cls-2" d="m114.28,98.08c.55.22,1.04.4,1.53.61.31.14.31.16.22.58-.35-.14-.69-.28-1.03-.41-.19-.07-.39-.14-.59-.19-.13-.04-.3-.03-.3-.2,0-.12.1-.24.17-.39Z"/>
      <path class="cls-2" d="m114.14,105.75c.96.15,1.88.01,2.79-.27.37-.12.74-.33,1.06-.56.52-.36,1.11-.53,1.72-.71v.45c-.23.09-.48.18-.71.3-.58.29-1.16.59-1.73.9-.59.32-1.24.4-1.88.43-.55.04-1.11-.01-1.64-.11-.84-.16-1.55-.58-2.15-1.2-.13-.13-.27-.29-.16-.6.12.03.24.04.32.1.29.23.53.53.84.71.47.29.99.47,1.54.56Z"/>
      <path class="cls-2" d="m110.42,108.52c-.07-.02-.17-.11-.17-.16,0-.09.05-.22.12-.25.12-.07.28-.12.42-.11.47.06.95.09,1.4.23.62.2,1.14.6,1.61,1.05.18.17.08.32-.01.53-.12-.07-.21-.1-.27-.16-.4-.38-.88-.59-1.37-.82-.46-.21-.93-.29-1.42-.3-.1-.01-.21.02-.31-.01Z"/>
      <path class="cls-2" d="m110.05,103.28c-.54.27-1.04.65-1.58.92-.66.33-1.34.62-2.03.89-.21.08-.46.04-.72.05-.1-.2-.08-.34.16-.4.18-.04.38-.05.56-.12,1-.37,1.96-.85,2.85-1.43.6-.39,1.22-.74,1.92-.86.86-.15,1.72-.3,2.59-.02.15.05.32.04.48.08.61.12,1.16.4,1.67.75.23.16.47.3.7.45.16.11.2.25.1.47-.36-.18-.71-.32-1.02-.52-.69-.44-1.46-.63-2.26-.76-1.2-.2-2.34-.03-3.42.5Z"/>
      <path class="cls-2" d="m110.25,95.97c-1.19.49-2.4.44-3.62.14-.97-.24-1.78-.72-2.44-1.46-.08-.09-.16-.19-.19-.3-.02-.07.01-.19.07-.23.05-.04.16,0,.24.02.05.02.09.07.13.11.7.89,1.67,1.33,2.73,1.55.83.17,1.69.12,2.53-.15s1.62-.66,2.39-1.08c.46-.25.97-.41,1.46-.61.19.27.07.39-.13.48-.58.28-1.18.51-1.73.84-.46.27-.94.48-1.44.69Z"/>
      <path class="cls-2" d="m102.81,97.25c-.44-.33-.9-.59-1.41-.75-.36-.11-.72-.19-1.07-.29-.08-.02-.17-.06-.23-.12-.11-.12-.06-.28.1-.3.12-.01.25-.02.36.02.57.19,1.14.41,1.72.57.35.11.57.36.84.57.54.41,1.07.83,1.61,1.24.15.12.3.22.13.52-.71-.5-1.4-.96-2.05-1.46Z"/>
      <path class="cls-2" d="m97.52,99.53c.18.17.37.35.25.68-.1-.07-.18-.12-.25-.19-.53-.55-1.23-.75-1.93-.93-.21-.05-.22-.03-.44-.34.21-.02.35-.06.49-.04.69.11,1.35.33,1.88.82Z"/>
      <path class="cls-2" d="m93.44,106.43c-.78.03-1.58-.04-2.33-.33-.46-.18-.81-.5-1.1-.89-.07-.09-.08-.23-.12-.36.27-.12.4.06.5.17.4.41.87.67,1.41.79,1.1.25,2.22.24,3.29-.09.83-.27,1.62-.66,2.42-1.03,1.07-.49,2.18-.82,3.4-.72v.3c-.48.07-.96.1-1.42.21-.91.23-1.79.56-2.61,1-1.08.58-2.24.9-3.44.95Z"/>
      <path class="cls-2" d="m87.47,100.79c.46-.49.98-.9,1.66-1.04,1.03-.22,2.02-.11,3.03.2.62.19,1.18.46,1.74.77.44.24.85.53,1.29.78.5.3,1.06.36,1.62.45.19.03.38.05.57.07.24.03.25.17.17.41-.72-.1-1.45-.11-2.11-.39-.53-.22-1.05-.5-1.53-.82-.69-.47-1.45-.77-2.25-.93-.73-.14-1.47-.19-2.22-.05-.47.09-.87.29-1.25.55-.21.14-.4.3-.6.45-.23-.18-.27-.28-.12-.45Z"/>
      <path class="cls-2" d="m100.66,106.3c.43-.01.86-.13,1.28-.14,1.43,0,2.71.44,3.83,1.33.24.19.46.41.77.49.44.57,1.08.95,1.43,1.61.24.44.56.83.89,1.21.18.21.42.37.66.52.37.23.75.46,1.14.65.18.09.38.24.63.14.03-.01.08.01.11.04.56.4,1.18.4,1.84.4.63-.01,1.08-.37,1.6-.59.62-.26,1.12-.71,1.67-1.06.34-.21.69-.39,1.03-.59.12-.07.23-.16.35-.24.1-.06.19-.12.29-.18.03.03.07.05.1.07-.03.12-.03.26-.09.37-.09.17-.21.31-.31.47-.21.35-.47.64-.81.88-.47.33-.93.69-1.39,1.04-.55.4-1.22.45-1.85.62-1.41.37-2.73.13-3.99-.6-.75-.44-1.33-1.02-1.82-1.74-.31-.46-.73-.85-1.11-1.26-.26-.29-.53-.56-.81-.83-.36-.34-.76-.61-1.25-.75-.31-.08-.62-.19-.91-.33-.42-.2-.85-.31-1.31-.37-.57-.07-1.15-.16-1.72-.21-.6-.05-1.15.19-1.67.43-.61.28-1.17.67-1.75,1.01-.09.05-.18.11-.25.18-.67.69-1.45,1.23-2.25,1.73-.51.32-1.1.53-1.67.75-.45.17-.92.32-1.39.43-1.13.27-2.27.43-3.43.1-.69-.19-1.35-.45-1.96-.82-.19-.11-.4-.22-.41-.56.13.05.24.07.32.12.3.17.58.36.88.53.24.13.49.28.77.06.05-.04.15-.01.22,0,.44.07.88.14,1.31.21.09.01.18.02.27.02.98-.06,1.94-.25,2.88-.54.82-.25,1.46-.79,2.1-1.32.42-.35.84-.7,1.27-1.04.51-.39,1.01-.79,1.55-1.12.91-.58,1.85-1.07,2.96-1.12Z"/>
      <path class="cls-2" d="m98.9,97.43c.51.48,1.06.94,1.53,1.46.76.83,1.74,1.27,2.72,1.72.31.14.69.16,1.04.17.84.04,1.6-.27,2.34-.62.59-.29,1.09-.67,1.54-1.13.58-.6,1.21-1.14,1.89-1.62.31-.22.67-.39,1.02-.54.52-.24,1.05-.49,1.59-.67.33-.1.69-.09,1.04-.13.07,0,.16.04.22.02.82-.27,1.62.04,2.42.08.32.02.68.09.92.39.04.06.12.09.19.1.59.11,1.06.45,1.53.79.08.06.16.13.25.18q.26.17.12.6c-.16-.12-.29-.22-.41-.32-.74-.64-1.57-1.02-2.55-1.06-.79-.03-1.58-.08-2.38.02-.81.11-1.55.38-2.26.75-.93.48-1.71,1.17-2.51,1.84-.71.6-1.45,1.16-2.32,1.53-.46.19-.93.31-1.43.34-.57.04-1.15.07-1.72.07-.23,0-.48-.02-.7-.11-.91-.36-1.82-.75-2.57-1.39-.66-.56-1.29-1.16-1.94-1.72-.26-.22-.53-.45-.84-.58-1.77-.75-3.6-1.18-5.52-.8-1.01.2-2.01.5-2.97.93-.68.3-1.34.62-1.97,1.02-.36.23-.65.5-.94.81-.1.1-.24.18-.35.26-.09-.08-.12-.15-.12-.22s.04-.13.08-.19c.42-.62.88-1.14,1.58-1.51.56-.3,1.17-.51,1.72-.83.65-.38,1.41-.43,2.12-.66.08-.03.17-.05.25-.07,1.3-.37,2.62-.38,3.96-.14.79.14,1.54.34,2.28.65.2.08.39.19.59.29.14.07.28.13.42.2.05.02.1.05.14.09Z"/>
      <path class="cls-2" d="m84.25,116.2c-.27.71-.3,1.27.5,1.76.28.17.57.26.88.09.31-.16.35-.45.34-.77.02-.47-.18-.9-.36-1.31-.06-.13-.27-.23-.43-.27-.32-.07-.81.2-.93.5Zm1.08,2.22c-.14.02-.3.02-.43-.04-.81-.33-1.23-.93-1.2-1.78-.02-.53.18-.99.36-1.46.1-.26.69-.46,1.02-.39.63.15.93.61,1.11,1.17.15.5.15,1.02.05,1.54-.12.53-.43.89-.91.96Z"/>
      <path class="cls-2" d="m76.48,115.11c.34.19.48.7.35,1.08-.08.2-.22.31-.42.35-.18.03-.3-.09-.39-.23-.16-.26-.41-.49-.4-.87.08-.14.12-.32.24-.42.21-.16.43-.02.62.09Zm-.33.46c.11.16.17.4.5.4-.13-.25-.21-.44-.5-.4Z"/>
      <path class="cls-2" d="m75.56,119.96c-.08.5-.45.75-.93.61-.34-.1-.63-.28-.75-.65-.08-.26-.16-.53-.21-.81-.08-.43.17-.9.57-1.09.46-.24.98,0,1.15.54.1.32.15.66.21.94-.02.2-.02.33-.04.46Zm-.29.05c.08-.41.02-.82-.12-1.22-.06-.2-.36-.38-.51-.36-.18.03-.37.25-.4.48-.02.15,0,.3,0,.45h-.02v.22c.01.4.24.66.63.71.22.03.37-.05.42-.28Z"/>
      <path class="cls-2" d="m69.01,113.64c.57.3.6.37.3.92-.55.1-.81-.1-.97-.55.22-.46.34-.53.67-.37Zm-.1.48s.08.12.14.14c.04,0,.1-.06.2-.13-.11-.05-.16-.1-.22-.1-.04,0-.08.06-.12.09Z"/>
      <path class="cls-2" d="m68.2,116.5c.16-.24.41-.3.67-.21.22.08.37.28.32.57-.04.25-.15.5-.23.75-.07.23-.28.24-.47.26-.32-.01-.65-.47-.55-.82.05-.19.15-.38.26-.55Zm.02.71c0,.26.15.37.37.42.43-.33.49-.66.15-1.08-.31.14-.53.3-.52.66Z"/>
      <path class="cls-2" d="m65.93,114.9c.12.22,0,.74-.19.92-.15.14-.47.14-.75-.03-.21-.13-.42-.26-.6-.42-.23-.22-.26-.48-.1-.77.14-.27.36-.38.79-.35.3.05.64.26.85.65Zm-1.3.21c.1.28.57.59.85.54.1-.02.17-.15.22-.19,0-.43-.48-.84-.83-.77-.21.03-.31.21-.24.42Z"/>
      <path class="cls-2" d="m62.93,118.78c-.35-.14-.4-.43-.32-.81.1-.48.39-.71.78-.89.08-.04.17-.05.18-.05.31.03.55.03.78.09.57.16.88,1.13.5,1.58-.17.2-.31.5-.62.44-.44-.08-.89-.19-1.3-.36Zm1.66-.14c.08-.1.15-.31.1-.39-.17-.27-.37-.55-.74-.58-.4-.04-.8-.03-1.14.28-.02.56.08.73.58.85.2.05.41.08.61.09.23.01.46-.05.59-.25Z"/>
      <path class="cls-2" d="m60.97,120.01c.03.14.03.29.33.32-.1-.17-.17-.28-.24-.39-.03.02-.06.04-.09.07Zm-.11.42c-.14-.24-.22-.48-.17-.76.04-.17.12-.31.31-.34.18-.04.28.1.34.23.09.21.15.44.2.59-.02.26.02.47-.21.52-.2.05-.36-.04-.47-.24Z"/>
      <path class="cls-2" d="m60.45,114.1c.21.08.38.12.53.21.3.2.33.55.04.77-.12.1-.29.17-.44.03-.13-.13-.27-.27-.39-.41-.08-.1-.18-.23-.07-.36.09-.09.22-.16.33-.24Zm-.02.44c.06.19.17.32.35.35.04.01.11-.09.18-.15-.17-.14-.29-.3-.53-.2Z"/>
      <path class="cls-2" d="m57.88,119.64c-.19-.28-.52-.36-.83-.19-.07.04-.13.09-.21.15-.08-.37.15-.62.49-.57.55.09.95.66.86,1.23-.02.12-.05.23-.09.35-.15.5-.51.74-1.03.7-.31-.02-.56-.22-.64-.54s-.02-.63.2-.99c.1.28.06.49.06.7.02.52.41.74.86.47.4-.25.57-.94.33-1.31Z"/>
      <path class="cls-2" d="m56.29,116.38c-.26-.11-.5-.64-.43-.95.07-.3.33-.47.85-.47.4.06.87.27,1.23.66.32.33.28.87-.05,1.14-.17.14-.36.24-.61.1-.31-.18-.66-.32-.99-.48Zm1.57-.11c0-.39-.26-.67-.65-.7-.16-.02-.32-.06-.48-.06-.14.01-.31.03-.4.11-.12.14-.12.37.02.5.32.3.71.53,1.18.53.23,0,.33-.13.33-.38Z"/>
      <path class="cls-2" d="m52.21,116.36c.12.3.39.4.73.45-.46.22-.7.06-.73-.45Z"/>
      <path class="cls-2" d="m53.11,115.39c.1.25.12.83.03,1.14-.34-.26-.23-.72-.49-1.02-.05-.01-.06-.01-.08-.01-.12-.03-.29.16-.36-.08-.04-.13.2-.35.37-.36.17-.02.46.17.53.33Z"/>
      <path class="cls-2" d="m47.74,116.83c.14.2.18.49.26.74-.08.85-.5,1.39-1.33,1.42-.2,0-.44-.04-.59-.15-.66-.5-1.18-1.1-1.17-1.98.01-.27.1-.57.23-.81.17-.32.57-.36.86-.34.75.08,1.31.52,1.74,1.12Zm-2.46.16c-.04.64.42,1.39,1.02,1.65.11.05.22.07.28.09.31-.02.57-.02.75-.25.26-.35.39-.72.3-1.17-.11-.53-.95-1.09-1.39-1.09-.47.01-.94.38-.96.77Z"/>
      <path class="cls-2" d="m40.82,114.5c-.05-.23-.14-.46-.26-.67-.21-.38-.92-.48-1.25-.18-.06.06-.12.13-.19.21-.12-.1-.16-.18-.05-.32.41-.52,1.37-.55,1.83-.04.26.28.42.62.39,1.01,0,.06-.02.12,0,.18,0,.23.08.48-.12.67-.22.23-.51.32-.8.36-.42.05-.79-.13-1.13-.32-.34-.2-.48-1.01-.29-1.52.05.31.07.57.12.81.11.48.55.82,1,.81.55-.02.89-.45.76-1Z"/>
      <path class="cls-2" d="m38.62,102.12c.39.14.75.27,1.11.38.37.11.73.09,1.09-.06.14-.06.3-.14.46.05-.06.08-.12.17-.19.22-.59.36-1.83.28-2.38-.14-.15-.11-.2-.25-.09-.45Z"/>
      <path class="cls-2" d="m36.79,105.03c.54-.05,1.09-.1,1.64-.1.44-.01.86.11,1.24.33.5.3.98.62,1.5.94-.18.21-.31.18-.45.09-.24-.14-.49-.28-.72-.44-.73-.51-1.54-.65-2.41-.55-.41.05-.83.07-1.23.16-.37.09-.72.27-1.08.41-.16-.24-.16-.27.07-.4.44-.27.93-.39,1.44-.44Z"/>
      <path class="cls-2" d="m30.88,106.08c-.79.4-1.61.55-2.5.37-.54-.1-.94-.43-1.35-.74-.4-.32-.74-.72-1.09-1.1-.09-.09-.09-.26-.09-.41.32.14.56.37.78.62.32.36.68.65,1.07.93.75.53,1.55.5,2.37.28.1-.02.2-.07.29-.11q.42-.16.43-.62s.04-.08.1-.17c.2.15.4.29.58.43-.08.33-.37.41-.59.52Z"/>
      <path class="cls-2" d="m20.45,99.75c.72.24,1.42.21,2.12-.13,1.22-.58,2.51-.86,3.88-.79.07,0,.15,0,.22.01.13.03.26.07.38.11,0,.28-.03.32-.26.3-.08,0-.16-.01-.25-.01-.64-.03-1.27.01-1.91.1-.72.1-1.36.42-2.01.7-.74.31-1.49.34-2.26.14-.17-.05-.33-.13-.49-.21-.19-.09-.25-.23-.13-.45.24.08.48.15.71.23Z"/>
      <path class="cls-2" d="m20.76,104.77c.99-.08,1.9.2,2.75.72.57.36,1.12.72,1.76.93.16.05.28.11.19.33-.46.04-.83-.2-1.22-.37-.24-.1-.46-.26-.67-.42-.94-.69-1.99-.89-3.12-.76-.44.06-.79.33-1.14.59-.08.06-.15.12-.24.19-.15-.16-.16-.3,0-.44.37-.38.82-.64,1.35-.72.12-.02.23-.03.35-.05Z"/>
      <path class="cls-2" d="m36.17,21.71c-.92-.11-1.84-.09-2.71.3-.63.27-1.25.57-1.84.91-.4.23-.79.53-1.13.86-.67.66-1.12,1.49-1.48,2.36-.08.18-.09.39-.14.62.33-.05.59-.11.85-.13.53-.05,1.07-.11,1.6-.1.22.01.4-.01.58-.13,1.28-.86,2.67-1.48,4.21-1.72.91-.15,1.81-.11,2.64.36.97.57,1.98,1.08,2.76,1.93.04-.01.07-.03.11-.04-.04-.26-.04-.53-.12-.77-.28-.82-.56-1.65-1.17-2.32-.33-.36-.56-.81-1.01-1.05-.99-.52-2.02-.95-3.15-1.08Zm54.68-.23c-.27.34-.6.66-.68,1.16.32-.01.62-.07.9-.03.44.07.73-.17,1.05-.37.22-.14.43-.33.68-.41.59-.17,1.2-.35,1.81-.41,1.21-.12,2.41.04,3.57.39,1.03.32,1.92.92,2.76,1.57.34.26.67.43,1.07.51.61.11,1.22.22,1.88.35-.05-.43-.12-.82-.39-1.14-.36-.41-.69-.86-1.07-1.25-.63-.64-1.3-1.22-2.12-1.61-.92-.45-1.89-.73-2.88-.91-.54-.09-1.09-.19-1.64-.16-.58.03-1.17.12-1.75.31-1.23.41-2.37.95-3.19,2ZM26.42,38.29c0,.75.11,1.48.44,2.17.04.09.04.2.05.3.01.11,0,.22.03.33.22.76.66,1.39,1.21,1.94.39.38.82.71,1.35.83.41.1.82.15,1.23.21.17.03.37.08.53.02.6-.22,1.2-.47,1.27-1.19-.31-.16-.63-.26-.86-.47-.39-.34-.79-.71-1.06-1.14-.62-.96-1.17-1.96-1.42-3.1-.09-.37-.19-.74-.28-1.12-.05-.21-.07-.44-.14-.65-.21-.66-.19-1.35-.22-2.03-.01-.26.05-.53.1-.79.13-.64.27-1.28.41-1.91.04-.22.08-.43.13-.67-.32.02-.49.17-.64.37-.24.34-.45.71-.74,1-.39.39-.55.88-.72,1.36-.25.76-.44,1.54-.54,2.33-.06.49-.1.97-.13,1.46-.02.25-.01.5,0,.75Zm77.09-12.16c.34.53.64,1.08.93,1.63.14.27.24.57.34.86.3.9.45,1.82.37,2.76-.05.61-.07,1.22-.21,1.81-.27,1.14-.66,2.24-1.17,3.3-.33.68-.7,1.33-1.26,1.85-.36.33-.66.7-.99,1.06-.04.05-.04.13-.07.19.07.04.11.07.15.07.9-.02,1.79.12,2.68-.24.54-.22.99-.54,1.42-.89.31-.25.55-.61.75-.97.39-.69.73-1.42,1.09-2.13.35-.71.49-1.46.53-2.24.06-1.13,0-2.26-.13-3.39-.05-.49-.19-.92-.39-1.36-.11-.24-.19-.49-.31-.73-.28-.55-.67-1.02-1.16-1.39-.32-.25-.7-.44-1.03-.7-.48-.38-1-.68-1.56-.92-.36-.16-.74-.3-1.11-.44-.15-.06-.32-.08-.52-.13.03.12.03.15.05.17.06.07.13.13.19.19.55.48,1.03,1.03,1.41,1.64Zm-73.24,1.96c.31-.37.6-.76.95-1.22-.25,0-.42.02-.59,0-1.18-.12-2.15.37-3.02,1.1-.57.47-1.09,1.01-1.62,1.53-.42.4-.86.79-1.2,1.25-.79,1.09-1.45,2.26-1.57,3.65-.06.78-.14,1.57.08,2.35.09.29.13.61.22.9.12.4.2.82.42,1.16.48.74,1.06,1.4,1.76,1.94.08.06.18.12.27.14.26.06.38-.06.3-.31-.34-1.07-.47-2.18-.5-3.3-.01-.5-.03-1.03.09-1.5.21-.82.5-1.62.82-2.4.49-1.17,1.2-2.18,2.37-2.78.11-.06.24-.16.29-.26.11-.24.19-.5.25-.76.14-.54.32-1.05.68-1.49Zm7.02,44.36c.01-.71.04-1.43.04-2.14.01-.83-.03-11.67,0-12.5.02-.72.11-1.45.14-2.18.05-1.3.07-2.61.1-3.92,0-.4,0-.8,0-1.2.02-.92.14-1.83.05-2.76-.08-.75-.09-1.51-.13-2.27-.02-.35-.01-.72-.09-1.06-.19-.76-.33-1.51-.36-2.29-.02-.57-.13-1.15-.26-1.71s-.18-1.12-.33-1.67c-.14-.51-.23-1.02-.35-1.54-.14-.64-.35-1.27-.66-1.85-.15-.3-.29-.61-.49-.88-.34-.47-.81-.81-1.35-1.06-.64-.28-1.23-.16-1.82.12.27,1.26.65,1.87,1.41,2.86.31.39.62.78,1.02,1.1.55.42.93,1,1.23,1.62.17.36.33.75.25,1.16-.11.61-.26,1.22-.44,1.81-.11.37-.41.58-.79.64-.53.09-1.06.15-1.59.23-.15.28-.31.57-.48.88.34.25.72.46,1.02.76.66.64.9,1.49,1.06,2.36.12.61.12,1.24.17,1.86.05.6.09,1.21.13,1.81.03.43.09.86.08,1.28-.03,1.44-.11,2.88-.12,4.32-.01,1.28.06,12.56.08,13.85.01,1.16.01,2.32,0,3.48-.01.76-.05,5.52-.07,6.29-.01.31.09.65-.01.91-.18.47-.14.94-.15,1.41,0,.06,0,.12,0,.18-.07,1.49-.14,2.98-.2,4.46-.01.09-.01.18-.02.27-.04.46-.11.92-.12,1.38-.02.35.04.71.04,1.06,0,.42-.05.84-.05,1.25.02.62.05,1.25.09,1.87.03.37.2.66.59.81.46.19.94.23,1.43.19.59-.06.98-.41,1.1-.98.01-.08.01-.18.04-.26.33-.66.35-1.39.36-2.09.01-1.24-.08-2.47-.14-3.71-.02-.4-.07-.8-.12-1.19-.07-.44-.18-.86-.23-1.3-.06-.61-.11-1.22-.12-1.83,0-.76.02-1.52.03-2.28,0-.46,0-4.92.02-5.38.01-.41.02-.83.02-1.25,0-.3,0-.61,0-.92ZM104.19,23.12c.14.44.3.87.45,1.3.04.09.09.2.16.26.27.27.57.52.84.78.41.38.83.76,1.22,1.16.3.31.6.64.81,1,.31.52.54,1.08.8,1.63.28.62.35,1.29.33,1.95-.01.89-.09,1.78-.14,2.67,0,.23.01.48-.03.71-.04.24-.14.48-.23.71-.15.39-.28.77-.47,1.14-.16.32-.42.58-.56.91-.26.66-.7,1.2-1.18,1.71-.45.49-1,.86-1.62,1.05-.99.3-2.02.41-3.04.2-.53-.1-.88-.08-1.29.34-.62.65-1.42,1.06-2.35,1.15-.18.01-.3.1-.36.27-.29.72-.68,1.4-.96,2.14-.43,1.15-.76,2.31-1,3.5-.05.24.02.35.26.36.29,0,.58-.03.85-.19.27-.17.59-.27.88-.42.29-.14.63-.24.84-.46.76-.78,1.21-1.72,1.17-2.84,0-.11.06-.21.09-.31.4.07.44.1.68.37.27.32.54.64.82.94.37.39.82.67,1.33.79.81.2,1.63.29,2.46.11.7-.14,1.45-.83,1.57-1.52.06-.31.1-.62.11-.93.02-.4.03-.81-.15-1.19-.1-.21-.17-.44-.23-.67-.03-.1-.03-.22-.05-.37.12.04.17.05.22.08.5.28.99.51,1.59.48.37-.01.74.1,1.11.14.14.01.29,0,.43-.02.39-.05.67-.33,1-.47.59-.26,1.07-.62,1.45-1.12.63-.83,1.12-1.71.94-2.83-.17-1.06-.62-1.88-1.64-2.32-.08-.03-.16-.09-.22-.15-.2-.2-.17-.34.11-.43.49-.16.98-.31,1.49-.43,1.08-.25,1.68-.96,1.88-2.01.08-.4.09-.8.13-1.2.09-1.03-.12-2-.7-2.85-.36-.53-.79-1.01-1.22-1.48-.18-.21-.42-.39-.67-.51-.44-.22-.9-.39-1.35-.57-.31-.12-.34-.28-.08-.51.09-.08.21-.16.28-.27.59-.91.86-1.88.41-2.91-.28-.65-.69-1.25-1.37-1.54-.5-.21-1.05-.32-1.58-.45-.25-.05-.53-.04-.79-.06-.32-.02-.65-.08-.97-.05-.89.07-1.78.16-2.66.28-.58.08-1.12.27-1.6.68.17.16.34.3.49.46.53.54,1.07,1.06,1.31,1.81Zm-5.27,2.69c.48.44.96.85,1.26,1.43.17.33.28.69.48,1,.23.34.3.71.35,1.09.02.09-.01.19.03.26.3.59,0,1.22.15,1.81-.16.34-.15.72-.21,1.08-.1.68-.3,1.34-.37,2.01-.07.69-.39,1.28-.67,1.87-.33.68-.85,1.25-1.58,1.56-.45.18-.86.47-1.36.52-.42.04-.66.25-.73.67-.12.69.1,1.31.62,1.74.33.28.76.48,1.25.33.97-.32,1.7-1,2.42-1.69.39-.38.76-.79,1.15-1.18.46-.47.91-.95,1.19-1.54.44-.94.84-1.9,1.25-2.86.18-.44.41-.88.48-1.34.12-.78.28-1.57.17-2.39-.12-.82-.33-1.62-.74-2.33-.57-.99-1.22-1.93-2.09-2.7-.87-.78-1.65-1.68-2.73-2.21-.44-.22-.86-.48-1.31-.66-.86-.34-1.77-.38-2.69-.36-.49,0-.97.05-1.43.25-.45.2-.91.36-1.36.53v.09s.08.03.11.04c1.08.18,2.11.48,3.11.91,1.19.5,2.28,1.19,3.25,2.07Zm-6.41,60.15c.01,1.2.06,2.41.19,3.61.08.78.35,1.49.73,2.18.3.54.8.76,1.38.86.17.02.26-.04.27-.21,0-.09.01-.19,0-.27-.13-.81-.14-1.63-.2-2.45-.05-.81.06-1.6.09-2.4.02-.6-.02-1.19-.05-1.78-.01-.29-.08-.56-.11-.84-.06-.68-.11-1.36-.18-2.04-.05-.52-.12-1.03-.16-1.55-.03-.46,0-4.92-.03-5.38-.04-.78-.13-1.55-.16-2.32-.03-.85-.02-1.7,0-2.55.02-1.37.06-12.74.08-14.11.02-1.27.02-2.53.04-3.8,0-.82,0-1.64.1-2.45.16-1.42.26-2.84.61-4.22.32-1.24.7-2.46,1.27-3.61.17-.34.37-.68.56-1.03-.09-.07-.16-.16-.25-.19-.43-.15-.72-.46-1-.8-.39-.49-.52-.8-.12-1.54.12-.24.23-.48.34-.7-.36-.26-.7-.5-1.03-.75-.21-.16-.34-.36-.42-.62-.16-.54-.11-1.06.07-1.57.31-.89.64-1.76.94-2.65.15-.43.29-.87.28-1.34h-.09c-.11.16-.21.33-.33.5-.52.71-1.03,1.43-1.31,2.29-.14.42-.33.83-.48,1.25-.22.64-.49,1.28-.64,1.94-.18.85-.31,1.72-.4,2.59-.13,1.33-.22,2.66-.19,4,.02.81-.06,1.63-.07,2.45-.02,1.06,0,2.12-.01,3.18-.01.63-.06,1.25-.1,1.88-.02.32-.07.64-.1.97-.05.68-.14,1.35-.15,2.03-.02,1.03.02,2.06.02,3.09,0,.94-.01,11.89,0,12.83.02.91.08,1.81.12,2.72.05,1.26.09,6.53.15,7.79.04.92.07,1.84.19,2.76.09.75.13,1.5.14,2.25Zm-54.48-39.75c-.01.24-.01.48,0,.71.04.37.11.74.14,1.11.08.92.13,1.84.13,2.76,0,.31-.01.62-.02.94-.03.93-.09,1.87-.17,2.8-.07.96-.2,1.92-.28,2.88-.05.54-.04,1.08-.05,1.61-.03,1.04-.07,12.08-.09,13.12-.02,1.52-.03,7.04-.06,8.56,0,.49-.03.98-.02,1.47,0,.46.04.92.05,1.38,0,.25-.04.5-.04.75s.02.47.04.71c.08.86.19,1.71.25,2.57.04.73.05,1.46.05,2.18-.01.6-.05,1.19-.1,1.79-.04.6-.27,1.15-.48,1.71-.19.48-.3,1.58-3.08,1.55-.96,0-2-1.08-2.51-1.62-.49-.5-1.24-1.03-2.06-.97-1.01.22-1.62.96-2.18,1.7-.7.92-2.23,2.01-3.33,2.51-.8.39-1.65.48-2.31.48-.48,0-.85-.07-1.04-.11-.89-.19-2.46-1.71-2.91-2.36-.62-1.02-2.04-2.08-3.77-2.1v-1.4c.71-.01,2,.07,2.26.15.92.28,1.71.96,2.24,1.53.26.29.49.6.72.9.26.35.52.69.77,1.04.4.6,1,.82,1.67.88.87.08,1.57-.34,2.25-.82.8-.57,1.39-1.33,2.02-2.07.47-.55.9-1.15,1.42-1.65.68-.66,1.44-1.21,2.46-1.2.27,0,.56.03.8.21.2.13.4.24.61.37.73.45,1.2,1.18,1.79,1.77.22.22.45.42.75.71.06-.49.13-.86.14-1.23.02-.64-.01-1.28.01-1.92.02-1,.06-1.99.08-2.99.01-.48-.09-.97.09-1.44-.15-.44.08-.88.03-1.29-.06-.6.15-1.18.02-1.77-.04-.18.06-.4.06-.6-.01-.87-.05-5.73-.07-6.6,0-.51-.02-1.01-.02-1.52s.05-.98.04-1.46c-.02-.96-.02-1.91-.09-2.86-.09-1.32-.07-12.65-.08-13.97-.02-1.08.01-2.15-.01-3.22-.02-.56-.09-1.11-.14-1.74-.35.36-.62.68-.92.95-.52.46-1.06.9-1.74,1.15-.41.15-.81.09-1.21.09-.53,0-1.04-.12-1.52-.32-.41-.18-.82-.38-1.13-.74-.4-.47-.67-1.01-.96-1.54-.02-.04-.04-.09-.03-.13.07-.31-.05-.58-.12-.86-.11-.51-.16-1.02.12-1.62-.25.12-.4.21-.55.26-.64.24-1.26.52-1.94.65-.79.14-1.5.01-2.2-.32-.85-.4-1.54-1-2.12-1.73-.31-.38-.59-.79-.73-1.26-.19-.62-.14-1.25.08-1.84.24-.66.55-1.29.83-1.95-.63-.67-1.21-1.4-1.7-2.2-.54-.87-1-1.79-1.23-2.8-.21-.86-.2-1.74.06-2.6.08-.29.16-.57.27-.85.43-1.14,1.15-2.07,2.08-2.85.5-.42,1.07-.69,1.7-.83.22-.05.43-.11.67-.17-.06-.14-.1-.23-.14-.32-.36-.62-.66-1.26-.79-1.97-.12-.62-.11-1.24.04-1.86.15-.56.25-1.14.49-1.66.61-1.33,1.52-2.41,2.91-2.99.76-.32,1.53-.48,2.33-.16.28.11.58.2.92.32.04-.14.1-.28.13-.44.06-.33.18-.65.36-.94.2-.33.37-.68.54-1.02.46-.91,1.27-1.39,2.15-1.78.91-.41,1.85-.35,2.78-.06.32.1.66.19.96.33.49.23.86.62,1.19,1.03.05.06.12.09.19.15.15-.14.31-.26.43-.4.84-.92,2.08-1.25,3.25-.84,1,.34,1.94.83,2.72,1.55.36.34.59.81.86,1.24.13.21.19.47.31.69.29.48.28.98.18,1.5-.04.22-.06.44-.09.66-.11.79-.41,1.51-.85,2.18-.26.39-.54.78-.92,1.01.09.62.19,1.22.28,1.81.02.09.04.19.01.27-.15.39.06.67.26.98.58.86,1.04,1.78,1.3,2.8.18.66.43,1.29.63,1.94.27.9.49,1.8.51,2.75.01.45.15.9.19,1.36.05.65.06,1.3.09,1.96.02.4.05.8.07,1.2l.12,2.31c.03.66.03,1.31.06,1.97.04.78.08,1.57.14,2.35.09,1.23.21,2.46.29,3.69.05.71.04,1.42.03,2.14-.02.98-.06,1.96-.11,2.94-.04.77-.11,1.55-.15,2.32-.05.83-.06,11.66-.12,12.49-.06.95-.15,1.89-.23,2.84l-.03.45c-.03.73-.05,1.46-.1,2.18-.08,1.53-.18,7.06-.27,8.59-.1,1.54-.22,3.09-.28,4.63-.06,1.26-.05,2.53-.07,3.79-.02,1.14-.06,2.28-.07,3.43,0,.62.04,1.24.06,1.86.01.18.01.36.01.54-.02.61-.07,1.21-.05,1.82.03,1.22.09,2.44.14,3.66v.35c-.04,1.21.04,2.41.25,3.59.06.34.07.69.14,1.02.2.9.53,1.77.99,2.57.34.6.84,1.11,1.54,1.35.69.24,1.41.37,2.14.45.39.04.79.1,1.18.17.69.14,1.37.02,2.05-.05,1.33-.15,2.65-.34,3.98-.5.41-.05.83-.06,1.24-.09.95-.05,1.9-.11,2.85-.16.06-.01.12,0,.18-.01.74-.21,1.5-.23,2.25-.27.92-.06,1.85-.11,2.77-.17,1.07-.07,2.14-.01,3.21.07.31.02.62,0,.93.02.75.05,1.49.12,2.23.18.62.05,1.24.1,1.87.14,1.3.09,2.61.09,3.9.36.91.19,1.81.03,2.64-.4.13-.07.27-.14.41-.19.48-.2.83-.55.96-1.05.16-.58.24-1.19.35-1.79l.18-.96c.04-.22.11-.43.12-.65.06-1.22.1-2.44.16-3.66.03-.67.05-1.34.12-2.01.07-.82.19-1.65.29-2.47.08-.76.16-1.51.26-2.26.1-.69.23-1.38.32-2.07.21-1.6.23-3.2.28-4.81.04-1.25.06-2.5.06-3.75-.01-1.33-.05-2.65-.09-3.98-.04-1.09-.14-6.17-.13-7.25,0-1.06.09-2.12.14-3.17.04-1.05.07-2.11.12-3.16.07-1.15.15-12.29.23-13.43.06-1.02.14-2.05.17-3.07.03-.86.02-1.73.01-2.59-.02-1.11.01-2.22-.11-3.32-.17-1.56-.06-3.13-.17-4.69-.07-.95-.15-1.89-.21-2.84-.04-.71-.05-1.43-.07-2.14-.01-.28-.05-.56-.03-.84.05-.94.11-1.87.17-2.8.07-1.31.31-2.59.55-3.87.15-.77.37-1.54.66-2.27.35-.91.7-1.84,1.37-2.58.53-.59,1.05-1.18,1.78-1.53.26-.12.5-.27.73-.43.11-.08.23-.2.27-.33.21-.58.6-1.05.98-1.52.54-.64,1.14-1.2,1.92-1.55.17-.08.35-.17.49-.31.26-.27.6-.4.94-.46.67-.14,1.35-.18,2.02-.33.57-.12,1.11-.03,1.67.09.23.05.47.05.7.08.77.07,1.41.45,2.03.86.54.37,1.08.73,1.64,1.11.71-.5,1.49-.68,2.31-.78.06,0,.14-.02.16-.05.17-.25.45-.26.69-.29.61-.06,1.24-.07,1.86-.11.22-.01.44-.08.66-.07.51.02,1.01.03,1.51.11.56.09,1.11.25,1.6.58.56.39.99.9,1.27,1.5.17.36.24.77.3,1.16.12.81-.05,1.57-.42,2.29-.08.15-.19.29-.3.46.26.11.52.23.79.33,1,.37,1.68,1.1,2.26,1.95.43.63.68,1.35.87,2.08.15.55.08,1.1-.04,1.66-.1.44-.37.85-.3,1.33,0,.05-.04.11-.07.16-.55.97-1.35,1.59-2.46,1.79-.22.04-.43.09-.65.13-.03.01-.05.04-.09.08.08.04.14.09.22.13.56.34.89.85,1.15,1.43.03.07.06.15.11.2.31.34.24.77.27,1.17.04.41-.07.81-.19,1.21-.18.61-.57,1.08-.86,1.6-.3.53-.82.88-1.35,1.2-.17.11-.36.2-.51.33-.52.44-1.12.42-1.73.34-.25-.03-.5-.02-.74-.05-.21-.02-.42-.04-.62-.11-.35-.11-.69-.26-1.1-.41.13.25.23.47.35.68.22.4.33.82.26,1.27-.01.06-.01.12-.01.18.04.67-.34,1.14-.73,1.61-.88,1.06-2.05,1.21-3.32,1.02-.78-.11-1.52-.32-2.14-.82-.3-.24-.58-.51-.9-.79-.27,1.05-.73,1.97-1.67,2.53-.9.53-1.87.81-2.97.76-.06.43-.14.88-.18,1.33-.08.83-.16,1.65-.21,2.48-.04.7-.03,1.4-.07,2.1-.04.81-.12,1.62-.16,2.43-.03.53-.03,1.07-.04,1.6v11.56c-.01.83-.01,1.66-.02,2.49,0,.34-.05.68-.04,1.02.02.59.1,1.18.12,1.78.01.54-.03,5.09-.02,5.64,0,.35.03.71.06,1.06.02.24.03.48.09.71.22.71.17,1.44.17,2.17,0,.23.09.47.08.7-.03.87-.08,1.73-.12,2.59-.02.34-.06.68-.05,1.03.03.86-.02,1.72.16,2.58.06.28-.03.59.13.87.89-.25,1.59-.79,2.25-1.4.27-.24.51-.54.7-.86.33-.59.75-1.14.91-1.82.07-.28.25-.54.42-.78.45-.64.88-1.29,1.53-1.77.39-.28.84-.35,1.28-.47.58-.15,1.18-.06,1.76.01.2.03.89.43,1.04.53.7.49,1.27,1.08,1.49,1.93.03.08,1.18,2.62,1.78,3.18.51.48,1.12.65,1.77.76,1.87-.04,2.66-1.36,3.48-2.42,1.11-1.13,2.6-2.28,4.52-2.38,2.87.51,3.07,1.17,3.51,1.65l-.03,3.18c-1.06-1.16-1.86-2.33-3.64-2.4-.53-.02-1.78.14-2.89,1.11-.48.43-1.06,1.34-2.55,2.11-.59.38-2.4,1.06-4.04-.05-.49-.28-1.94-1.76-2.21-2.4-.19-.42-1.14-2.79-1.69-3.22-.83-.66-3.12-.58-3.65.29-.49.46-1.36,1.8-1.86,2.6-.17.27-.3.48-.36.57-.44.68-.95,1.31-1.58,1.79-.44.33-.97.58-1.5.77-1.14.42-2.3-.08-2.85-1.17-.34-.67-.52-1.39-.67-2.12-.07-.37-.15-.73-.18-1.1-.04-.38-.01-.76-.01-1.14,0-.43.02-.86,0-1.29-.05-1.08-.13-2.16-.17-3.25-.02-.56,0-1.13-.01-1.69-.05-1.52-.11-7.04-.18-8.56-.03-.79-.12-1.57-.13-2.36-.03-1.11-.01-12.23-.01-13.34,0-.73-.04-1.46-.03-2.19.02-.69.07-1.37.12-2.06l.18-2.58c.04-.61.1-1.21.13-1.82.02-.64.01-1.27.01-1.91,0-1.49,0-2.98.05-4.47.03-.95.12-1.9.23-2.85.11-.97.27-1.93.65-2.85.38-.9.66-1.84,1.05-2.74.26-.58.63-1.11.96-1.65.21-.34.46-.65.68-.99.04-.07.06-.17.05-.25-.01-.66-.14-1.27-.69-1.79-.48.42-.99.84-1.46,1.28-.58.54-1,1.22-1.4,1.89-.35.62-.51,1.32-.64,2.03-.15.78-.28,1.57-.41,2.36-.03.18-.03.36-.03.54,0,.83-.08,1.66-.25,2.48-.06.26-.06.53-.08.79-.09,1.15-.19,2.29-.26,3.43-.04.57.01,1.15-.01,1.72-.02.68-.07,1.36-.13,2.04-.05.6-.14,1.2-.19,1.81-.05.48-.01.98-.09,1.45-.21,1.3-.07,2.62-.25,3.92-.15,1.06-.31,2.12-.47,3.17-.23,1.46-.36,12.93-.33,14.41,0,.07-.02.16.01.22.24.4.16.84.16,1.27.01,1.13-.01,6.26.01,7.39.01.71.04,1.43.09,2.14.07.87.15,1.74.27,2.61.1.81.18,1.62.19,2.44,0,.35.08.7.1,1.06.03.65.07,1.29.24,1.93.18.63.4,1.25.75,1.8.18.26.42.5.68.7.79.59,1.66.94,2.67.98.47.02.91-.04,1.36-.14,1.14-.28,2.1-.87,2.84-1.78.56-.68,1.08-1.38,1.46-2.19.11-.24.27-.46.45-.65.18-.2.38-.38.61-.54.26-.19.68-.59.97-.74.57-.31,2.41.34,2.5.38.18.12-.02.58-.32.44-.06-.01-1.66-.59-2.43-.13-.16.1-1.51,1.71-1.87,2.26-.41.63-.71,1.33-1.26,1.88-.94.93-1.99,1.61-3.31,1.75-.89.09-1.77-.02-2.64-.31-.8-.26-1.43-.71-2.01-1.28-.47-.44-.7-1.03-.88-1.63-.33-1.06-.48-2.15-.49-3.26,0-.53-.02-1.06-.05-1.59-.02-.22-.05-.45-.12-.66-.21-.56-.12-1.15-.17-1.72-.05-.51-.04-1.01-.07-1.52-.03-.47-.03-.94,0-1.42.04-.99-.01-5.65-.01-6.95v-.15c0-.6.02-1.19.02-1.79,0-.55-.05-1.1-.02-1.65.03-.83.09-11.67.19-12.49.11-1.02.3-2.03.42-3.05.1-.85.17-1.72.21-2.58.06-.9.04-1.82.11-2.72.07-.96.21-1.92.3-2.88.04-.37.04-.74.05-1.12.03-1.02.04-2.05.09-3.08.07-1.42.15-2.85.28-4.27.06-.71.19-1.42.16-2.14-.05-1.4.22-2.75.62-4.08.03-.11.05-.23.08-.35.14-.48.29-.96.66-1.34.03-.03.06-.07.08-.11.25-.73.8-1.24,1.34-1.75.33-.32.75-.56,1.14-.83.09-.06.18-.11.27-.16-.26-.59-.79-.85-1.33-1.05-.45-.17-.94-.27-1.42-.37-.47-.1-.82.05-1.17.44-.61.69-.96,1.49-1.21,2.35-.09.34-.28.7-.09,1.08.02.04.01.11,0,.17-.18.58-.17,1.19-.21,1.79-.01.21-.07.41-.1.62-.04.32-.08.65-.11.97-.03.27-.06.53-.08.8-.04.55-.06,1.1-.1,1.64-.04.59-.11,1.18-.15,1.77-.05.62-.08,1.24-.12,1.86-.03.36-.05.71-.09,1.07-.11,1.09-.14,2.19-.01,3.29.04.35,0,.71-.03,1.07-.01.37-.01.74-.03,1.1-.05.92-.1,1.84-.16,2.76-.05.63-.16,1.26-.19,1.9-.09,1.53-.26,3.05-.2,4.59.03.82.12,1.64.15,2.47.02.48-.02,10.96-.03,11.45,0,.45-.01.91.01,1.37.03.7.09,1.4.14,2.11.03.43.09.86.08,1.29-.03.89-.08,5.78-.16,6.66-.02.36.04.7.01,1.06-.09,1.14-.1,2.28-.11,3.43-.01,1.03.01,2.05.03,3.08.01.31.04.63.06.94.03.56.06,1.12.08,1.68.01.07-.02.15-.03.22-.16,1.2.18,2.22,1.19,2.93.55.37,1.21.47,1.89.52.03.08.06.17.1.31-.76-.08-1.49-.02-2.15-.45-.75-.5-1.25-1.15-1.42-2.03-.13-.67-.15-1.35-.07-2.04.04-.4-.02-.8-.03-1.2-.04-.85-.08-1.7-.11-2.54-.02-.48-.06-.96-.06-1.43.01-.7.05-1.4.06-2.1.02-.46.02-.92.03-1.38.02-1.19.04-6.38.05-7.58,0-.31-.04-.62-.06-.93-.07-1.11-.14-2.23-.2-3.34-.06-1.18-.12-12.35-.17-13.53,0-.17,0-.35,0-.53-.02-.45-.05-.9-.05-1.34-.01-.39.04-.77.05-1.16,0-1.3,0-2.6.04-3.9v-.25c.04-1.4.05-2.8.29-4.2.16-.89.16-1.8.24-2.71.05-.5.12-1,.18-1.5.14-1.12.3-2.24.4-3.36.06-.68.02-1.36.05-2.04,0-.27.06-.53.08-.79.04-.43.05-.87.09-1.29.18-1.77.44-3.51.91-5.23.18-.66.51-1.22.78-1.82.22-.49.64-.8,1.17-.98.91-.3,1.78-.15,2.66.16.7.25,1.27.65,1.62,1.31.29.57.55,1.15.58,1.81.03.54.11,1.08.15,1.62.02.2.02.42-.01.61-.15.92-.45,1.78-.82,2.63-.23.54-.49,1.09-.62,1.65-.17.75.31,1.47,1.05,1.58.15.02.3.03.44.06,1.01.23,1.7-.32,2.35-.96.04-.03.05-.09.08-.11.56-.33.71-.93.95-1.47.14-.32.32-.64.41-.98.16-.56.31-1.12.38-1.7.08-.61.12-1.24.08-1.86-.04-.69-.16-1.39-.53-2-.3-.5-.6-.99-.95-1.45-.2-.27-.48-.48-.75-.69-.89-.71-1.81-1.37-2.85-1.82-.53-.24-1.08-.45-1.63-.62-.48-.15-.97-.26-1.47-.36-.52-.11-1.05-.24-1.58-.27-.39-.03-.82.02-1.18.16-.68.26-1.29.65-1.83,1.16-.63.6-1.07,1.31-1.43,2.08-.15.34-.32.67-.5.99-.32.59-.42,1.25-.57,1.89-.13.53-.25,1.07-.35,1.61-.15.84-.28,1.68-.4,2.53-.08.58-.15,1.16-.17,1.74-.02.62.04,1.24.05,1.86.01.31,0,.61.01.91,0,.54.01,1.07.01,1.6,0,.6,0,1.21.02,1.81.02.61.05,1.21.07,1.82,0,.14-.01.29-.03.43-.08.54.11,1.05.15,1.58.06.78.12,1.57.2,2.35.06.6.14,1.2.23,1.8.02.14.03.28.03.42,0,.34-.05.67-.06,1-.03.54-.04,1.09,0,1.64.04.69-.05,1.39-.08,2.09-.03.86-.05,1.72-.07,2.59,0,.19,0,.38,0,.58-.02.54-.06,11.09-.09,11.63l-.09,2.28c-.01.19.01.38,0,.57-.04.64-.1,1.27-.14,1.91-.02.57-.04,5.13-.03,5.7.03,1.56.07,3.13.12,4.69.02.76.06,1.51.08,2.27.01.39,0,.77-.03,1.16-.04.72-.09,1.44-.14,2.16-.07.95-.15,1.9-.23,2.85-.01.22-.02.44-.04.66-.07.75-.1,1.51-.23,2.25-.1.55-.15,1.11-.31,1.65-.13.42-.14.88-.19,1.32-.02.15-.03.29-.04.44-.06.58-.11,1.16-.17,1.73-.05.63-.11,1.25-.17,1.87-.09,1.05-.13,2.1-.33,3.14-.09.47-.03.97-.04,1.46-.01.34,0,.69-.06,1.02-.13.61-.02,1.22-.11,1.83-.16,1.1-.6,2.04-1.71,2.51-.4.16-.79.33-1.2.48-.53.2-1.08.27-1.65.21-.55-.05-1.1-.06-1.64-.11-.28-.02-.56-.06-.84-.13-.62-.15-1.26-.23-1.9-.22-1.06.03-2.11-.1-3.16-.17-.82-.06-1.64-.09-2.46-.13-.63-.04-1.27-.09-1.91-.13-.09-.01-.17.03-.26.03l-1.92-.03c-.52,0-1.04-.02-1.56.01-.79.04-1.57.14-2.36.18-.35.02-.71-.04-1.07-.03-.87.02-1.75.05-2.62.09-.16.01-.33.04-.48.09-.7.24-1.43.2-2.14.33-.86.15-1.73.1-2.59.27-.44.09-.92.05-1.38.01-.78-.06-1.56-.19-2.35-.24-.56-.04-1.04-.28-1.47-.59-.53-.4-1.07-.82-1.34-1.46-.2-.46-.38-.94-.48-1.43-.01-.03-.01-.05-.02-.08-.17-.88-.27-1.77-.4-2.65,0-.09-.04-.17-.04-.26,0-1.06,0-2.11,0-3.17.01-.49.06-.98.05-1.47-.01-.73-.07-1.46-.08-2.19,0-.3,0-.59-.01-.89,0-.73,0-1.46.01-2.18,0-1.02.02-2.03.03-3.04,0-1.08,0-2.15,0-3.22.01-.51.04-1.01.05-1.52.02-.89,0-1.78.05-2.67.04-1.04.15-2.08.22-3.11.03-.46.02-.92.04-1.38.04-1.16.07-6.32.13-7.47.06-1.44.15-2.88.23-4.32.03-.6.11-11.21.14-11.82.01-.34-.04-.68-.05-1.02s-.04-.69.01-1.02c.13-.8,0-1.62.2-2.42.11-.46.06-.95.07-1.43.02-.74.04-1.49.04-2.23,0-.3-.09-.6-.03-.88.1-.52.06-1.04.03-1.56,0-.2-.07-.41-.07-.62-.04-1.01-.07-2.02-.11-3.03-.04-1.05-.1-2.1-.14-3.15-.04-1.07-.06-2.14-.11-3.21-.02-.38-.09-.76-.13-1.14-.06-.47-.1-.94-.17-1.41-.12-.81-.31-1.6-.52-2.38-.27-.99-.68-1.91-1.08-2.84-.45-1.08-.97-2.14-1.81-3-.84-.87-1.78-1.61-2.88-2.14-.23-.11-.51-.16-.77-.18-1.15-.08-2.24.19-3.28.7-.54.26-1.08.55-1.62.83-.62.33-1.08.84-1.51,1.38-.5.63-.77,1.36-1.02,2.11-.42,1.24-.53,2.53-.83,3.79-.19.79-.14,1.61.16,2.41.27.7.43,1.44.69,2.15.26.72.5,1.45.97,2.08.17.22.26.5.42.73.19.28.4.56.64.79.15.15.39.21.58.32.62.37,1.3.42,1.98.36.45-.03.6-.39.7-.77.08-.29.17-.58.22-.88.09-.64,0-1.23-.36-1.79-.34-.52-.69-1.04-1.21-1.4-.2-.13-.4-.27-.58-.42-.47-.42-.84-.92-1.19-1.44-.39-.59-.65-1.23-.81-1.91-.19-.8-.16-1.62.28-2.33.52-.83,1.17-1.57,2.14-1.94.03-.01.06-.01.08-.03.98-.64,2.03-.49,3.11-.32.66.1,1.2.41,1.75.72.48.28.86.7,1.09,1.2.33.73.69,1.45.87,2.23.23.97.31,1.96.36,2.95l.09,2.04c.01.14.04.27.06.4.1.75.22,1.5.29,2.25.05.56.03,1.13.07,1.69.04.8.11,1.6.16,2.4.01.19.02.38.01.58-.03.59-.05,1.18-.09,1.76-.02.3-.07.6-.08.89-.02.51,0,1.01-.01,1.51-.02.78-.06,1.55-.09,2.32-.03.88-.04,1.76-.09,2.63-.04.6-.14,1.18-.22,1.77-.04.33-.09.64.05.97.07.15.06.34.06.51-.02.68-.06,11.36-.07,12.05-.02,1.11-.04,2.23-.05,3.35,0,.28.04.56.06.84.1,1.27.18,6.55.33,7.82.1.81.03,1.64.05,2.46.01.61.03,1.22.05,1.83,0,.22.01.44.01.66.01,1.26-.02,2.53.05,3.79.05.93.06,1.87.27,2.79.05.25-.02.53-.08.79-.12.6-.24,1.21-.55,1.74-.3.49-.6.98-1.01,1.4-.25.27-.52.53-.76.82-.57.67-1.31,1.1-2.09,1.48-.42.21-.82.47-1.3.56-.99.18-1.98.28-2.95-.07-.66-.24-1.27-.57-1.8-1.05-.83-.74-1.72-1.42-2.73-1.9-.43-.2-.87-.38-1.32-.52-.76-.23-1.51-.11-2.23.17-.33.14-.67.27-.99.4-.23-.22-.25-.38-.04-.48.17-.08.34-.17.51-.26.59-.3,1.19-.57,1.87-.54.54.03,1.08.2,1.6.37.54.16,1.05.39,1.51.75.31.24.68.41,1.02.63.14.1.26.24.39.36.79.66,1.65,1.2,2.6,1.58.36.14.73.15,1.1.11,1.04-.11,2.05-.36,2.98-.85.29-.15.55-.36.81-.56.33-.25.65-.51.97-.78.09-.07.18-.15.26-.24.49-.62,1.15-1.13,1.43-1.91.14-.39.24-.79.34-1.19.08-.38.13-.76.18-1.14.02-.09-.01-.18-.01-.26-.05-.7-.08-1.39-.14-2.09,0-.14-.07-.27-.1-.42-.05-.23-.11-.46-.12-.69-.06-1.09-.07-2.17-.14-3.26-.04-.81-.15-1.62-.22-2.42-.02-.3,0-.6-.02-.9-.06-.77-.14-1.54-.2-2.3-.05-.73-.17-5.46-.12-6.18.11-1.68.02-3.35.08-5.03.02-.58.1-11.15.13-11.73.02-.72.02-1.44.03-2.17l.09-2.85c.01-.55,0-1.1,0-1.65s-.01-1.06.01-1.59c.02-.31.14-.62.13-.92-.04-1.39-.1-2.77-.16-4.16-.02-.58-.05-1.16-.09-1.73-.06-.74-.15-1.48-.21-2.23-.04-.6-.04-1.21-.07-1.81-.03-.67-.06-1.34-.11-2.01-.05-.77-.16-1.53-.21-2.3-.05-1-.33-1.93-.75-2.82-.06-.14-.14-.27-.19-.41-.16-.45-.46-.81-.84-1.08-1.04-.74-2.19-1.11-3.48-.98-.12.02-.24.05-.35.09-.45.18-1.29.76-1.7,1.33.51-.21.97-.18,1.45-.05.18.05.38.06.57.08.62.05.99.49,1.31.92.42.58.76,1.21,1.13,1.82.06.09.09.21.16.27.69.57.82,1.42,1.1,2.19.1.3.19.6.25.91.15.73.33,1.47.42,2.22.09.72.09,1.45.13,2.17l.15,2.58c.03.59.08,1.18.09,1.78.01.74,0,1.48-.01,2.23-.02,1.54-.05,3.09-.09,4.64-.03,1.22,0,2.43.08,3.64.09,1.27.07,12.55.02,13.82-.02.64.01,1.28.01,1.92,0,.26,0,.51-.02.76-.08.85-.05,1.69.02,2.54.05.65-.04,5.31-.06,5.97,0,.15-.01.3-.01.44-.02,1.21-.04,2.41-.04,3.61,0,1.4,0,2.8.04,4.2.04.99.16,1.98.24,2.97.05.64.16,1.28.15,1.91-.01.55-.23,1.07-.51,1.55-.24.43-.6.74-.96,1.04-.45.38-.91.74-1.39,1.06-.23.15-.51.25-.78.29-.47.07-.95.08-1.42.11-.33.03-.61-.09-.88-.26-.78-.51-1.43-1.15-2.03-1.86-.38-.46-.84-.87-1.3-1.27-.21-.18-.51-.27-.79-.41,0-.26.09-.37.32-.3.37.12.75.22,1.03.51.59.59,1.2,1.16,1.74,1.79.57.65,1.3.91,2.1,1.06.1.02.21.02.31.04.59.16,1.13-.03,1.61-.31.56-.33,1.08-.73,1.59-1.13.2-.16.32-.43.45-.66.23-.41.52-.8.52-1.3,0-.8.02-1.6.03-2.4.01-.09,0-.21-.05-.26-.22-.2-.22-.46-.25-.72-.06-.64-.15-1.27-.19-1.91-.03-.59-.01-1.18-.02-1.78,0-.64-.01-1.28-.02-1.92-.02-1.14-.05-2.29-.05-3.44-.01-.4.05-.8.04-1.2-.01-.61-.06-5.22-.08-5.83-.02-.82-.04-1.64-.04-2.46,0-.51.03-1.01.04-1.51.01-.44.01-.89.01-1.33-.01-.16-.04-10.33-.05-10.49-.01-.13-.01-.26-.01-.39.01-.19.06-.39.05-.58-.04-.63.02-1.26.06-1.89.04-.71-.06-1.42-.1-2.12,0-.08-.01-.15-.01-.22-.01-.33-.01-.65-.02-.98,0-.7-.05-1.4-.05-2.09,0-.39,0-.77.05-1.15.18-1.61.15-3.23.16-4.84v-1.95c0-.28-.06-.56-.05-.84,0-1.02-.02-2.03-.2-3.03-.2-1.15-.33-2.33-.83-3.41-.24-.52-.52-1.03-.77-1.56-.34-.74-.83-1.38-1.29-2.04-.32-.48-.75-.88-1.4-.92-.27-.02-.53-.09-.79-.12-.4-.05-.77.06-1.12.25-.07.04-.14.11-.18.19-.34.56-.65,1.14-.56,1.88.16-.04.31-.06.47-.11.84-.23,1.61-.12,2.3.46.35.28.67.57.84,1.01.15.37.43.68.56,1.05.23.62.44,1.25.55,1.91.1.62.31,1.21.46,1.81.09.35.17.69.23,1.04.07.35.12.7.19,1.05.15.76.19,1.53.4,2.28.22.8.35,1.63.31,2.47Zm-17.18-5.54c.24.26.2.41-.07.62-.16.12-.32.27-.42.44-.18.27-.37.55-.47.86-.16.54-.34,1.09-.38,1.64-.07.83.5,1.41,1.02,1.95.3.3.68.53,1.01.79.61.48,1.29.72,2.07.68.29-.02.59-.05.88-.08.81-.08,1.54-.33,2.12-.93.07-.08.2-.1.28-.14.18.15.08.27.04.39-.17.52-.22,1.04-.1,1.58.1.46.27.88.49,1.3.47.9,1.13,1.52,2.1,1.78.38.11.8.06,1.19.15.47.11.88-.04,1.23-.27.85-.57,1.53-1.31,2.11-2.15.06-.09.08-.22.07-.34-.06-1-.1-2.01-.41-2.98-.08-.26-.22-.51-.34-.76-.05-.11-.12-.21-.16-.31-.19-.52-.66-.66-1.1-.82-.05-.02-.12.01-.17.03-.59.31-1.2.33-1.85.23-.9-.14-1.69-.48-2.34-1.09-.57-.54-.9-1.24-1.26-1.98-.08-.02-.21-.08-.33-.07-.3.02-.56-.09-.8-.23-.63-.35-1.19-.75-1.62-1.35-.47-.66-.88-1.31-.85-2.15.01-.07-.03-.14-.05-.22-.25-.9-.22-1.82-.19-2.75.01-.27.08-.55.12-.83.07-.51.34-.95.53-1.41.16-.37.33-.74.53-1.08.36-.59.79-1.12,1.27-1.61.48-.48.95-.98,1.51-1.38.55-.39,1.08-.79,1.68-1.09.2-.1.31-.23.34-.48s.16-.5.26-.75c.22-.55.56-1.04.88-1.54.46-.7,1.11-1.19,1.74-1.71.32-.26.68-.49,1.06-.67.5-.25,1.02-.49,1.56-.64,1.02-.28,2.06-.17,3.1-.06.72.08,1.36.4,2.03.65.66.26,1.2.69,1.59,1.29.22.35.4.73.6,1.09.05.1.12.18.21.32.2-.2.36-.35.51-.52.62-.73.79-1.63.9-2.56.08-.66-.12-1.26-.34-1.86-.19-.54-.42-1.03-.86-1.43-.82-.76-1.81-1.17-2.86-1.48-.38-.12-.76-.04-1.14.04-.7.15-1.16.62-1.48,1.24-.11.22-.22.39-.57.39-.03-.04-.09-.13-.15-.21-.29-.41-.58-.83-.88-1.24-.11-.13-.23-.28-.38-.36-.81-.39-1.65-.59-2.58-.58-.77.01-1.35.34-1.85.84-.76.74-1.1,1.71-1.36,2.72-.11.46-.14.93-.14,1.41,0,.34-.11.42-.44.43-.37.01-.67-.13-.92-.39-.4-.43-.95-.58-1.48-.66-.45-.07-.92.08-1.32.32-.44.27-.88.56-1.27.89-.59.49-1.08,1.08-1.34,1.81-.23.66-.44,1.32-.34,2.04.04.3-.02.61.04.89.12.63.29,1.25.62,1.81.1.18.2.36.34.61-.13.07-.22.14-.33.17-.27.07-.55.13-.83.17-.65.11-1.2.42-1.7.85-.83.71-1.41,1.6-1.78,2.63-.3.87-.39,1.76-.16,2.67.05.21.19.41.22.63.17,1.2.83,2.18,1.46,3.16.26.4.54.81.99,1.06.27.15.5.36.71.59Z"/>
      <path class="cls-2" d="m37.85,102.23c-.46.35-.9.73-1.39,1.04-.5.32-1.02.66-1.58.86-.61.23-1.27.31-1.79.42-.65-.09-1.17-.14-1.69-.25-.54-.12-.97-.48-1.4-.82-.47-.38-.89-.83-1.37-1.19-.39-.31-.86-.47-1.34-.53-.42-.06-.84-.1-1.26-.14-.14-.01-.28.02-.42.03-1.07.08-2.02.55-2.98,1.02-.65.32-1.33.54-2.06.59-.02.01-.04.01-.06.01-.27.02-.54.06-.8.12-.54.14-1.07.06-1.61.02-.61-.05-1.21-.1-1.8-.29-.38-.13-.69-.33-1.02-.54-.04-.03-.11-.07-.12-.11-.02-.1,0-.21-.02-.32.09.03.19.03.25.08.68.66,1.5.7,2.36.63.08,0,.16.01.25.02,1.12.07,2.24-.02,3.34-.32.67-.18,1.29-.51,1.93-.8.74-.34,1.5-.65,2.27-.88.32-.09.64-.14.95-.14.72,0,1.42.24,2.08.63.7.41,1.34.9,1.94,1.44.49.44,1.04.77,1.66.95.14.04.29.06.42.05.72-.07,1.44-.05,2.15-.25.51-.15.96-.38,1.37-.69.65-.48,1.3-.96,1.92-1.48.52-.43,1-.92,1.49-1.38.06-.05.1-.12.15-.15.64-.33,1.27-.65,2.02-.62.39.01.79-.07,1.18-.11.09-.01.18-.05.25-.03.08.03.14.11.21.17-.06.05-.11.14-.18.15-.28.04-.56.04-.84.09-.37.05-.74.1-1.09.2-.37.1-.71.28-1.01.56-.51.49-1.04.96-1.58,1.41-.25.21-.52.36-.78.55Z"/>
      <path class="cls-2" d="m28.02,111.36c.82-.11,1.63-.26,2.35-.75.3-.21.68-.3.99-.49.48-.29.95-.61,1.4-.95.56-.43,1.07-.94,1.65-1.35.63-.44,1.29-.89,2.09-.94.95-.06,1.87.05,2.74.46.81.37,1.51.87,2.08,1.56.49.58,1.12.93,1.82,1.13-.02.08-.04.16-.05.24l-.21-.03c-.58-.1-.97-.51-1.36-.91-.13-.13-.25-.24-.43-.28-.15-.04-.31-.14-.41-.26-.44-.53-1.05-.8-1.66-1.09-.78-.37-1.6-.42-2.43-.37-.23.02-.48.09-.68.2-.91.52-1.77,1.09-2.56,1.79-.6.53-1.24,1.05-2,1.41-.53.25-1.02.6-1.57.82-1.33.52-2.64.62-3.98-.01-.73-.35-1.39-.81-2.04-1.27-.71-.49-1.39-1.02-2.21-1.32-.81-.3-1.62-.56-2.5-.56-.51.01-1.01-.06-1.52-.04-.65.02-1.25.22-1.73.7-.19.18-.4.34-.6.51-.19-.27-.19-.31-.01-.49.21-.21.39-.46.63-.62.33-.22.69-.46,1.06-.55.56-.13,1.14-.21,1.71-.21.44,0,.88.05,1.32.16.17.04.35.04.53.08,1.34.26,2.5.89,3.57,1.73.33.25.67.49,1.01.73.65.46,1.4.72,2.15.95.26.08.57.06.85.02Z"/>
      <path class="cls-2" d="m17.07,99.39c.25.01.51-.04.73-.15.55-.26,1.12-.45,1.64-.79.65-.44,1.45-.6,2.22-.74.08-.01.16-.02.24-.02.26,0,.53.06.8.08-.01.26-.11.37-.32.35-.64-.07-1.23.12-1.82.32-.18.06-.36.13-.54.21-.19.09-.37.18-.55.29-.64.39-1.33.66-2.04.86-.3.08-.67.03-.96-.07-.57-.18-1-.56-1.26-1.12-.08-.17-.07-.31.05-.45.19,0,.22.17.3.28.37.53.82.95,1.51.95Z"/>
    </g>
  </g>
</svg>