<?xml version="1.0" encoding="UTF-8"?>
<svg xmlns="http://www.w3.org/2000/svg" viewBox="0 0 136.06 136.06">
  <defs>
    <style>
      .cls-1 {
        fill: #fff;
      }

      .cls-2 {
        fill: #0c3454;
      }

      .cls-3 {
        fill: #e0e1e3;
      }
    </style>
  </defs>
  <g id="Layer_3" data-name="Layer 3">
    <rect class="cls-3" x="0" width="136.06" height="136.06"/>
  </g>
  <g id="B_W" data-name="B&amp;amp;W">
    <path class="cls-2" d="m56.84,119.6c-.08-.37.16-.62.5-.57.54.09.94.66.85,1.23-.02.12-.05.23-.09.35-.15.5-.51.74-1.03.71-.3-.02-.55-.23-.63-.54-.08-.33-.02-.63.2-1,.1.28.06.5.06.71.02.52.41.73.85.46.4-.24.57-.93.33-1.3-.19-.28-.52-.36-.82-.2-.07.04-.14.1-.22.15Z"/>
    <path class="cls-2" d="m61.54,120.15c-.02.26.02.48-.21.53-.2.05-.37-.05-.48-.24-.13-.24-.22-.49-.16-.76.03-.17.12-.31.3-.34.18-.03.28.1.34.23.09.21.16.44.2.59Zm-.48-.21s-.06.05-.09.07c.02.14.03.3.33.32-.1-.17-.17-.28-.24-.39Z"/>
    <path class="cls-2" d="m121.83,88.65l-.03,3.18c-1.06-1.16-1.86-2.33-3.64-2.4-.53-.02-1.78.14-2.89,1.11-.48.43-1.06,1.34-2.55,2.11-.59.38-2.4,1.06-4.04-.05-.49-.28-1.94-1.76-2.21-2.4-.19-.42-1.14-2.79-1.69-3.22-.82-.66-3.12-.58-3.65.29-.49.46-1.36,1.8-1.86,2.6-.17.27-.3.48-.36.57-.44.68-.95,1.31-1.58,1.79-.44.33-.97.58-1.5.77-1.14.42-2.3-.08-2.85-1.17-.34-.67-.52-1.39-.66-2.12-.08-.37-.16-.73-.19-1.1-.04-.38-.01-.76-.01-1.14,0-.43.02-.86,0-1.29-.05-1.08-.13-2.16-.17-3.25-.02-.56.01-1.13,0-1.69-.05-1.52-.11-11.23-.05-12.09.04-.61.1-1.21.13-1.82.02-.64,0-1.27,0-1.91.02-1.49,0-2.98.05-4.47.03-.95.12-1.9.23-2.85.12-.97.27-1.93.65-2.85.38-.9.66-1.84,1.05-2.74.26-.58.63-1.11.96-1.65.21-.34.46-.65.68-.99.05-.07.06-.17.06-.25-.02-.66-.15-1.27-.7-1.79-.48.42-.99.84-1.46,1.28-.58.54-1,1.22-1.39,1.89-.36.62-.52,1.32-.65,2.03-.15.78-.28,1.57-.41,2.36-.03.18-.03.36-.03.54,0,.83-.08,1.66-.25,2.48-.06.26-.06.53-.08.79-.09,1.15-.19,2.29-.26,3.43-.04.57,0,1.15-.01,1.72-.02.68-.07,1.36-.12,2.04-.06.6-.15,1.2-.2,1.81-.04.48-.01.98-.09,1.45-.21,1.3-.89,10.25-.87,11.38,0,.71.04,1.43.09,2.14.07.87.15,1.74.27,2.61.1.81.19,1.62.19,2.44,0,.35.08.7.1,1.06.03.65.07,1.29.24,1.93.18.63.4,1.25.75,1.8.18.26.42.5.68.7.79.59,1.66.94,2.67.98.47.02.91-.04,1.36-.14,1.14-.28,2.1-.87,2.84-1.78.56-.68,1.08-1.38,1.46-2.19.12-.24.27-.46.45-.65.18-.2.39-.38.61-.54.26-.19.68-.59.97-.74.57-.31,2.41.34,2.5.38.19.12-.02.58-.32.44-.06-.01-1.66-.59-2.43-.13-.16.1-1.51,1.71-1.87,2.26-.41.63-.71,1.33-1.26,1.88-.93.93-1.99,1.61-3.31,1.75-.89.09-1.77-.02-2.64-.31-.8-.26-1.43-.71-2.01-1.28-.47-.44-.7-1.03-.88-1.63-.33-1.06-.48-2.15-.48-3.26-.01-.53-.03-1.06-.06-1.59-.02-.22-.05-.45-.12-.66-.21-.56-.12-1.15-.17-1.72-.05-.51-.04-1.01-.07-1.52-.02-.29-.03-.58-.02-.87,0-.18,0-.36,0-.55.04-1.03.85-11.48.92-12.38.07-.96.21-1.92.3-2.88.04-.37.04-.74.05-1.12.03-1.02.04-2.05.09-3.08.07-1.42.15-2.85.28-4.27.06-.71.19-1.42.16-2.14-.05-1.4.22-2.75.62-4.08.03-.11.05-.23.08-.35.14-.48.29-.96.66-1.34.03-.03.06-.07.08-.11.25-.73.81-1.24,1.34-1.75.33-.32.76-.56,1.14-.83.09-.06.18-.11.27-.16-.26-.59-.79-.85-1.33-1.05-.45-.17-.94-.27-1.42-.37-.47-.1-.82.05-1.17.44-.61.69-.96,1.49-1.21,2.35-.09.34-.28.7-.09,1.08.02.04.01.11,0,.17-.18.58-.17,1.19-.21,1.79-.01.21-.07.41-.1.62-.04.32-.07.65-.11.97-.03.27-.06.53-.08.8-.03.55-.06,1.1-.1,1.64-.04.59-.11,1.18-.15,1.77-.05.62-.08,1.24-.12,1.86-.03.36-.05.71-.09,1.07-.11,1.09-.14,2.19-.01,3.29.04.35-.01.71-.02,1.07-.02.37-.02.74-.04,1.1-.05.92-.1,1.84-.16,2.76-.05.63-.15,1.26-.19,1.9-.09,1.53.07,10.06,0,10.94-.02.28.01.56.01.83,0,.08,0,.15-.01.23-.08,1.14-.1,2.28-.11,3.43-.01,1.03.02,2.05.03,3.08.01.31.04.63.06.94.03.56.06,1.12.08,1.68,0,.07-.02.15-.03.22-.16,1.2.18,2.22,1.19,2.93.55.37,1.21.47,1.89.52.03.08.06.17.1.31-.76-.08-1.49-.02-2.15-.45-.75-.5-1.24-1.15-1.41-2.03-.14-.67-.15-1.35-.08-2.04.04-.4-.02-.8-.03-1.2-.04-.85-.08-1.7-.11-2.54-.02-.48-.06-.96-.06-1.43.01-.7.05-1.4.06-2.1.02-.46.02-.92.03-1.38.02-1.19-.39-12.01-.35-13.31v-.25c.04-1.4.05-2.8.29-4.2.16-.89.16-1.8.24-2.71.05-.5.12-1,.19-1.5.13-1.12.29-2.24.39-3.36.06-.68.02-1.36.05-2.04,0-.27.06-.53.08-.79.04-.43.05-.87.1-1.29,0-.04.01-.08.01-.12.17-1.73.43-3.43.89-5.11.18-.66.51-1.22.78-1.82.22-.49.64-.8,1.17-.98.91-.3,1.78-.15,2.66.16.7.25,1.27.65,1.62,1.31.29.57.55,1.15.58,1.81.03.54.11,1.08.15,1.62.02.2.03.42-.01.61-.15.92-.45,1.78-.82,2.63-.23.54-.49,1.09-.62,1.65-.17.75.31,1.47,1.05,1.58.15.02.3.03.44.06,1.01.23,1.7-.32,2.35-.96.04-.03.05-.09.08-.11.56-.33.71-.93.95-1.47.14-.32.32-.64.41-.98.16-.56.31-1.12.38-1.7.08-.61.12-1.24.08-1.86-.04-.69-.16-1.39-.53-2-.3-.5-.6-.99-.95-1.45-.2-.27-.48-.48-.75-.69-.88-.71-1.81-1.37-2.85-1.82-.27-.12-.55-.24-.84-.35-.26-.1-.53-.19-.79-.27-.48-.15-.97-.26-1.47-.36-.52-.11-1.05-.24-1.58-.27-.39-.03-.82.02-1.18.16-.68.26-1.29.65-1.83,1.16-.63.6-1.07,1.31-1.42,2.08-.16.34-.33.67-.51.99-.32.59-.42,1.25-.57,1.89-.13.53-.25,1.07-.35,1.61-.1.58-.2,1.16-.28,1.74-.04-.02-.08-.03-.12-.04-.11-.02-.21-.05-.31-.06-.02,0-.04,0-.06,0,.11-1.01.3-2,.48-3,.15-.77.37-1.54.66-2.27.35-.91.7-1.84,1.37-2.58.53-.59,1.05-1.18,1.78-1.53.26-.12.5-.27.73-.43.11-.08.23-.2.27-.33.21-.58.6-1.05.98-1.52.54-.64,1.14-1.2,1.92-1.55.17-.08.35-.17.49-.31.26-.27.6-.4.94-.46.67-.14,1.35-.18,2.02-.33.57-.12,1.11-.03,1.67.09.23.05.47.05.7.08.77.07,1.41.45,2.03.86.54.37,1.08.73,1.64,1.11.71-.5,1.49-.68,2.31-.78.06,0,.14-.02.16-.05.17-.25.45-.26.69-.29.61-.06,1.24-.07,1.86-.11.22-.01.44-.08.66-.07.51.02,1.01.03,1.51.11.56.09,1.11.25,1.6.58.56.39.99.9,1.27,1.5.17.36.24.77.3,1.16.12.81-.04,1.57-.42,2.29-.08.15-.19.29-.3.46.27.11.53.23.79.33,1,.37,1.68,1.1,2.26,1.95.43.63.68,1.35.87,2.08.15.55.08,1.1-.04,1.66-.1.44-.37.85-.3,1.33,0,.05-.04.11-.07.16-.55.97-1.35,1.59-2.46,1.79-.22.04-.43.09-.65.13-.03.01-.05.04-.09.08.08.04.14.09.22.13.56.34.89.85,1.15,1.43.03.07.06.15.11.2.31.34.24.77.27,1.17.04.41-.07.81-.19,1.21-.18.61-.57,1.08-.86,1.6-.3.53-.82.88-1.35,1.2-.17.11-.36.2-.51.33-.52.44-1.12.42-1.73.34-.25-.03-.5-.02-.74-.05-.21-.02-.42-.04-.62-.11-.35-.11-.69-.26-1.1-.41.13.25.23.47.35.68.22.4.33.82.26,1.27-.01.06-.01.12-.01.18.04.67-.34,1.14-.73,1.61-.88,1.06-2.05,1.21-3.32,1.02-.78-.11-1.52-.32-2.14-.82-.3-.24-.58-.51-.9-.79-.27,1.05-.72,1.97-1.67,2.53-.9.53-1.87.81-2.97.76-.06.43-.14.88-.18,1.33-.08.83-.15,1.65-.21,2.48-.04.7-.2,10.33-.17,10.68.02.24.03.48.09.71.22.71.17,1.44.17,2.17,0,.23.09.47.08.7-.03.87-.08,1.73-.12,2.59-.02.34-.06.68-.05,1.03.03.86-.02,1.72.16,2.58.06.28-.03.59.13.87.89-.25,1.6-.79,2.25-1.4.27-.24.51-.54.7-.86.33-.59.75-1.14.91-1.82.07-.28.25-.54.42-.78.45-.64.88-1.29,1.53-1.77.39-.28.84-.35,1.28-.47.58-.15,1.18-.06,1.76.01.21.03.89.43,1.05.53.69.49,1.26,1.08,1.48,1.93.03.08,1.18,2.62,1.78,3.18.51.48,1.12.65,1.77.76,1.87-.04,2.67-1.36,3.48-2.42,1.11-1.13,2.6-2.28,4.52-2.38,2.87.51,3.07,1.17,3.51,1.65Zm-7.14-38.56c.09-1.03-.12-2-.7-2.85-.36-.53-.79-1.01-1.22-1.48-.18-.21-.42-.39-.67-.51-.44-.22-.9-.39-1.35-.57-.31-.12-.34-.28-.08-.51.1-.08.21-.16.28-.27.59-.91.86-1.88.41-2.91-.28-.65-.69-1.25-1.37-1.54-.5-.21-1.04-.32-1.58-.45-.25-.05-.53-.04-.79-.06-.32-.02-.65-.08-.97-.05-.89.07-1.78.16-2.66.28-.57.08-1.12.27-1.6.68.17.16.34.3.49.46.53.54,1.07,1.06,1.31,1.81.14.44.3.87.45,1.3.04.09.09.2.16.26.27.27.57.52.85.78.41.38.82.76,1.21,1.16.3.31.6.64.82,1,.3.52.53,1.08.79,1.63.28.62.35,1.29.34,1.95-.02.89-.1,1.78-.15,2.67,0,.23.01.48-.03.71-.01.06-.02.12-.04.18-.05.18-.12.36-.19.53-.15.39-.28.77-.47,1.14-.16.32-.42.58-.55.91-.27.66-.71,1.2-1.18,1.71-.46.49-1.01.86-1.63,1.05-.32.1-.64.17-.97.23-.68.11-1.38.11-2.07-.03-.53-.1-.88-.08-1.29.34-.62.65-1.42,1.06-2.35,1.15-.18.01-.3.1-.36.27-.29.72-.68,1.4-.96,2.14-.43,1.15-.76,2.31-1,3.5-.05.24.02.35.26.36.3,0,.58-.03.85-.19.27-.17.59-.27.88-.42.29-.14.63-.24.84-.46.76-.78,1.21-1.72,1.17-2.84,0-.11.06-.21.09-.31.4.07.44.1.68.37.27.32.54.64.82.94.37.39.82.67,1.33.79.81.2,1.63.29,2.47.11.69-.14,1.44-.83,1.57-1.52.05-.31.09-.62.1-.93.02-.4.03-.81-.15-1.19-.1-.21-.17-.44-.23-.67-.03-.1-.03-.22-.05-.37.12.04.17.05.22.08.5.28.99.51,1.59.48.37-.01.74.1,1.11.14.14.01.29,0,.44-.02.38-.05.66-.33,1-.47.58-.26,1.06-.62,1.44-1.12.63-.83,1.12-1.71.94-2.83-.17-1.06-.62-1.88-1.64-2.32-.08-.03-.16-.09-.22-.15-.09-.09-.13-.17-.13-.23,0-.02,0-.04.01-.05.04-.06.11-.11.23-.15.49-.16.98-.31,1.49-.43,1.08-.25,1.68-.96,1.88-2.01.08-.4.1-.8.13-1.2Zm-6.62,2.1c.06-1.13,0-2.26-.13-3.39-.05-.49-.19-.92-.39-1.36-.11-.24-.19-.49-.31-.73-.28-.55-.67-1.02-1.15-1.39-.33-.25-.71-.44-1.04-.7-.48-.38-1-.68-1.56-.92-.36-.16-.74-.3-1.11-.44-.15-.06-.31-.08-.52-.13.03.12.03.15.05.17.06.07.13.13.19.19.55.48,1.03,1.03,1.42,1.64.33.53.63,1.08.92,1.63.14.27.24.57.34.86.3.9.45,1.82.37,2.76-.05.61-.07,1.22-.21,1.81-.27,1.14-.66,2.24-1.17,3.3-.32.68-.7,1.33-1.26,1.85-.36.33-.66.7-.99,1.06-.04.05-.04.13-.07.19.07.04.11.07.15.07.9-.02,1.79.12,2.68-.24.55-.22.99-.54,1.42-.89.31-.25.55-.61.75-.97.39-.69.73-1.42,1.09-2.13.35-.71.49-1.46.53-2.24Zm-3.44-.62c.12-.78.28-1.57.17-2.39-.12-.82-.33-1.62-.74-2.33-.57-.99-1.22-1.93-2.09-2.7-.87-.78-1.65-1.68-2.73-2.21-.44-.22-.86-.48-1.31-.66-.86-.34-1.77-.38-2.69-.36-.49,0-.97.05-1.43.25-.45.2-.91.36-1.36.53v.09s.08.03.11.04c1.08.18,2.11.48,3.11.91,1.19.5,2.28,1.19,3.25,2.07.48.44.96.85,1.26,1.43.17.33.28.69.49,1,.22.34.29.71.34,1.09.02.09-.01.19.03.26.3.59-.01,1.22.15,1.81-.16.34-.15.72-.21,1.08-.1.68-.29,1.34-.37,2.01-.07.69-.39,1.28-.67,1.87-.33.68-.84,1.25-1.58,1.56-.45.18-.86.47-1.36.52-.42.04-.66.25-.73.67-.12.69.1,1.31.62,1.74.33.28.76.48,1.25.33.98-.32,1.7-1,2.42-1.69.4-.38.76-.79,1.15-1.18.46-.47.91-.95,1.19-1.54.44-.94.84-1.9,1.25-2.86.18-.44.41-.88.48-1.34Zm-.74-8.33c-.05-.43-.11-.82-.39-1.14-.36-.41-.69-.86-1.07-1.25-.63-.64-1.3-1.22-2.12-1.61-.92-.45-1.88-.73-2.88-.91-.54-.09-1.09-.19-1.64-.16-.58.03-1.17.12-1.74.31-1.24.41-2.38.95-3.2,2-.26.34-.6.66-.68,1.16.32-.01.62-.07.9-.03.44.07.73-.17,1.05-.37.22-.14.43-.33.68-.41.59-.17,1.2-.35,1.81-.41,1.21-.12,2.41.04,3.57.39,1.03.32,1.92.92,2.76,1.57.34.26.67.43,1.07.51.61.11,1.22.22,1.88.35Zm-6.95,17.36c-.09-.07-.16-.16-.25-.19-.43-.15-.72-.46-1-.8-.39-.49-.52-.8-.12-1.54.12-.24.23-.48.34-.7-.36-.26-.7-.5-1.03-.75-.21-.16-.34-.36-.42-.62-.16-.54-.11-1.06.07-1.57.31-.89.65-1.76.94-2.65.15-.43.29-.87.28-1.34h-.09c-.11.16-.21.33-.33.5-.52.71-1.03,1.43-1.31,2.29-.14.42-.33.83-.48,1.25-.22.64-.49,1.28-.63,1.94-.19.85-.32,1.72-.41,2.59-.13,1.33-.22,2.66-.19,4,.02.81-.06,1.63-.07,2.45-.02,1.06,0,2.12,0,3.18-.01.63-.06,1.25-.1,1.88-.02.32-.01,9.19.05,10.43.04.92.07,1.84.19,2.76.09.75.13,1.5.14,2.25.01,1.2.06,2.41.19,3.61.08.78.35,1.49.73,2.18.3.54.8.76,1.38.86.17.02.26-.04.27-.21,0-.09.01-.19,0-.27-.13-.81-.14-1.63-.2-2.45-.05-.81.06-1.6.09-2.4.02-.6-.02-1.19-.05-1.78-.01-.29-.08-.56-.11-.84-.06-.68-.11-1.36-.18-2.04-.05-.52-.12-1.03-.16-1.55-.03-.46-.06-10.8.03-11.61.16-1.42.26-2.84.62-4.22.31-1.24.69-2.46,1.26-3.61.17-.34.37-.68.56-1.03Z"/>
    <path class="cls-2" d="m119.71,104.21v.45c-.23.09-.48.18-.71.3-.58.29-1.16.59-1.73.9-.59.32-1.24.4-1.88.43-.55.04-1.11-.01-1.64-.11s-1-.3-1.43-.59c-.25-.17-.5-.38-.72-.61-.13-.13-.27-.29-.16-.6.06.01.12.03.18.04.05.01.1.03.14.06.29.23.53.53.85.71.46.29.98.47,1.53.56.96.15,1.88.01,2.79-.27.19-.06.37-.14.55-.24.18-.09.35-.21.51-.32.52-.36,1.11-.53,1.72-.71Z"/>
    <path class="cls-2" d="m119.14,97.63q.26.17.12.6c-.16-.12-.29-.22-.41-.32-.74-.64-1.57-1.02-2.55-1.06-.79-.03-1.58-.08-2.38.02-.81.11-1.55.38-2.26.75-.93.48-1.71,1.17-2.51,1.84-.71.6-1.45,1.16-2.32,1.53-.46.19-.93.31-1.43.34-.57.04-1.14.07-1.72.07-.23,0-.48-.02-.7-.11-.91-.36-1.82-.75-2.57-1.39-.66-.56-1.29-1.16-1.94-1.72-.26-.22-.53-.45-.84-.58-1.76-.75-3.6-1.18-5.52-.8-1.01.2-2.01.5-2.97.93-.68.3-1.34.62-1.97,1.02-.35.23-.65.5-.94.81-.1.1-.24.18-.35.26-.08-.08-.11-.15-.11-.22s.04-.13.08-.19c.41-.62.87-1.14,1.57-1.51.56-.3,1.17-.51,1.72-.83.65-.38,1.41-.43,2.12-.66.08-.03.17-.05.25-.07,1.3-.37,2.62-.38,3.96-.14.79.14,1.55.34,2.28.65.2.08.4.19.59.29.14.07.28.13.42.2.05.02.1.05.14.09.51.48,1.06.94,1.53,1.46.76.83,1.74,1.27,2.72,1.72.31.14.69.16,1.04.17.85.04,1.6-.27,2.34-.62.59-.29,1.09-.67,1.54-1.13.58-.6,1.21-1.14,1.89-1.62.31-.22.67-.39,1.02-.54.52-.24,1.05-.49,1.59-.67.33-.1.7-.09,1.04-.13.08,0,.16.04.22.02.82-.27,1.62.04,2.42.08.32.02.68.09.92.39.04.06.12.09.19.1.59.11,1.06.45,1.53.79.08.06.16.13.25.18Z"/>
    <path class="cls-2" d="m118.18,109.89s.07.05.1.07c-.03.12-.03.26-.09.37-.09.17-.21.31-.31.47-.21.35-.47.64-.81.88-.47.33-.93.69-1.39,1.04-.55.4-1.22.45-1.85.62-1.41.37-2.73.13-3.99-.6-.74-.44-1.33-1.02-1.82-1.74-.31-.46-.73-.85-1.11-1.26-.26-.29-.53-.56-.81-.83-.36-.34-.76-.61-1.25-.75-.31-.08-.62-.19-.91-.33-.42-.2-.85-.31-1.31-.37-.57-.07-1.15-.16-1.72-.21-.6-.05-1.15.19-1.67.43-.61.28-1.17.67-1.75,1.01-.09.05-.18.11-.25.18-.67.69-1.45,1.23-2.25,1.73-.51.32-1.1.53-1.67.75-.45.17-.92.32-1.39.43-1.13.27-2.27.43-3.43.1-.69-.19-1.35-.45-1.96-.82-.19-.11-.4-.22-.41-.56.13.05.24.07.33.12.29.17.57.36.87.53.24.13.49.28.78.06.04-.04.14-.01.21,0,.44.07.88.14,1.31.21.09.01.18.02.27.02.98-.06,1.94-.25,2.88-.54.82-.25,1.46-.79,2.1-1.32.42-.35.84-.7,1.27-1.04.51-.39,1.01-.79,1.55-1.12.91-.58,1.85-1.07,2.96-1.12.43-.01.86-.13,1.28-.14,1.43,0,2.71.44,3.83,1.33l.18.15c.18.14.36.28.59.34.28.36.63.64.94.96.19.19.36.4.49.65.24.44.56.83.89,1.21.18.21.43.37.66.52.37.23.75.46,1.14.65.19.09.38.24.63.14.03-.01.08.01.11.04.56.4,1.18.4,1.84.4.63-.01,1.08-.37,1.6-.59.62-.26,1.12-.71,1.67-1.06.34-.21.69-.39,1.03-.59.12-.07.23-.16.35-.24.1-.06.2-.12.29-.18Z"/>
    <path class="cls-2" d="m116.65,103.59c.16.11.2.25.1.47-.36-.18-.7-.32-1.01-.52-.7-.44-1.47-.63-2.26-.76-.73-.12-1.44-.11-2.12.04-.45.1-.88.25-1.31.46-.54.27-1.04.65-1.58.92-.66.33-1.34.62-2.03.89-.15.05-.31.05-.49.05h-.23c-.1-.2-.08-.34.16-.4.19-.04.38-.05.56-.12,1-.37,1.96-.85,2.85-1.43.61-.39,1.22-.74,1.92-.86.86-.15,1.72-.3,2.59-.02.15.05.32.04.48.08.61.12,1.16.4,1.67.75.23.16.47.3.7.45Z"/>
    <path class="cls-2" d="m115.81,98.69c.31.14.31.16.22.58-.35-.14-.69-.28-1.03-.41-.19-.07-.39-.14-.59-.19-.13-.04-.3-.03-.3-.2,0-.12.1-.24.17-.39.55.22,1.04.4,1.53.61Z"/>
    <path class="cls-1" d="m113.99,47.24c.58.85.79,1.82.7,2.85-.03.4-.05.8-.13,1.2-.2,1.05-.8,1.76-1.88,2.01-.51.12-1,.27-1.49.43-.12.04-.19.09-.23.15-.01.01-.01.03-.01.05l-2.36-.17c.02-.06.03-.12.04-.18.04-.23.02-.48.03-.71.05-.89.13-1.78.15-2.67,0-.66-.06-1.33-.34-1.95-.26-.55-.49-1.11-.79-1.63-.22-.36-.52-.69-.82-1-.39-.4-.8-.78-1.21-1.16-.28-.26-.58-.51-.85-.78-.07-.06-.12-.17-.16-.26-.15-.43-.31-.86-.45-1.3-.24-.75-.78-1.27-1.31-1.81-.15-.16-.32-.3-.49-.46.48-.41,1.03-.6,1.6-.68.88-.12,1.77-.21,2.66-.28.32-.03.65.03.97.05.26.02.54.01.79.06.54.13,1.08.24,1.58.45.68.29,1.09.89,1.37,1.54.45,1.03.18,2-.41,2.91-.07.11-.18.19-.28.27-.26.23-.23.39.08.51.45.18.91.35,1.35.57.25.12.49.3.67.51.43.47.86.95,1.22,1.48Z"/>
    <path class="cls-2" d="m113.8,109.28c.18.17.08.32-.01.53-.12-.07-.21-.1-.27-.16-.4-.38-.88-.59-1.37-.82-.46-.21-.93-.29-1.42-.3-.1-.01-.21.02-.31-.01-.04-.01-.08-.04-.11-.07s-.06-.06-.06-.09c0-.09.05-.22.12-.25.11-.06.25-.11.38-.11h.04c.47.06.95.09,1.4.23.62.2,1.14.6,1.61,1.05Z"/>
    <path class="cls-2" d="m113.55,93.96c.19.27.07.39-.13.48-.58.28-1.18.51-1.73.84-.46.27-.94.48-1.44.69-1.19.49-2.4.44-3.62.14-.97-.24-1.78-.72-2.44-1.46-.08-.09-.16-.19-.19-.3-.02-.07.02-.19.07-.23s.16,0,.24.02c.05.02.09.07.13.11.7.89,1.67,1.33,2.73,1.55.84.17,1.69.12,2.53-.15s1.62-.66,2.39-1.08c.46-.25.97-.41,1.46-.61Z"/>
    <path class="cls-1" d="m112.94,56.63c.18,1.12-.31,2-.94,2.83-.38.5-.86.86-1.44,1.12-.34.14-.62.42-1,.47-.15.01-.3.03-.44.02-.37-.04-.74-.15-1.11-.14-.6.03-1.09-.2-1.59-.48-.05-.03-.1-.04-.22-.08l-2.6-1.04c.33-.06.65-.13.97-.23.62-.19,1.17-.56,1.63-1.05.47-.51.91-1.05,1.18-1.71.13-.33.39-.59.55-.91.19-.37.32-.75.47-1.14.07-.17.14-.35.19-.53l2.36.17c0,.06.04.14.13.23.06.06.14.12.22.15,1.02.44,1.47,1.26,1.64,2.32Z"/>
    <path class="cls-1" d="m106.48,61.41c.18.38.17.79.15,1.19-.01.31-.05.62-.1.93-.13.69-.88,1.38-1.57,1.52-.84.18-1.66.09-2.47-.11-.51-.12-.96-.4-1.33-.79-.28-.3-.55-.62-.82-.94-.24-.27-.28-.3-.68-.37-.03.1-.09.2-.09.31.04,1.12-.41,2.06-1.17,2.84-.21.22-.55.32-.84.46-.29.15-.61.25-.88.42-.27.16-.55.2-.85.19-.24-.01-.31-.12-.26-.36.24-1.19.57-2.35,1-3.5.28-.74.67-1.42.96-2.14.06-.17.18-.26.36-.27.93-.09,1.73-.5,2.35-1.15.41-.42.76-.44,1.29-.34.69.14,1.39.14,2.07.03l2.6,1.04c.02.15.02.27.05.37.06.23.13.46.23.67Z"/>
    <path class="cls-2" d="m104.73,98.19c.15.12.3.22.14.52-.72-.5-1.41-.96-2.06-1.46-.44-.33-.9-.59-1.41-.75-.36-.11-.72-.19-1.07-.29-.08-.02-.17-.06-.23-.12-.11-.12-.05-.28.1-.3.12-.01.25-.02.36.02.57.19,1.14.41,1.72.57.35.11.57.36.84.57.54.41,1.07.83,1.61,1.24Z"/>
    <path class="cls-1" d="m104.8,49.18c.11.82-.05,1.61-.17,2.39-.07.46-.3.9-.48,1.34-.41.96-.81,1.92-1.25,2.86-.28.59-.73,1.07-1.19,1.54-.39.39-.75.8-1.15,1.18-.72.69-1.44,1.37-2.42,1.69-.49.15-.92-.05-1.25-.33-.52-.43-.74-1.05-.62-1.74.07-.42.31-.63.73-.67.5-.05.91-.34,1.36-.52.74-.31,1.25-.88,1.58-1.56.28-.59.6-1.18.67-1.87.08-.67.27-1.33.37-2.01.06-.36.05-.74.21-1.08-.16-.59.15-1.22-.15-1.81-.04-.07-.01-.17-.03-.26-.05-.38-.12-.75-.34-1.09-.21-.31-.32-.67-.49-1-.3-.58-.78-.99-1.26-1.43-.97-.88-2.06-1.57-3.25-2.07-1-.43-2.03-.73-3.11-.91-.03-.01-.07-.03-.11-.04v-.09c.45-.17.91-.33,1.36-.53.46-.2.94-.25,1.43-.25.92-.02,1.83.02,2.69.36.45.18.87.44,1.31.66,1.08.53,1.86,1.43,2.73,2.21.87.77,1.52,1.71,2.09,2.7.41.71.62,1.51.74,2.33Z"/>
    <path class="cls-2" d="m100.91,103.97v.3c-.48.07-.96.1-1.42.21-.91.23-1.78.56-2.61,1-1.08.58-2.24.9-3.44.95-.78.03-1.58-.04-2.33-.33-.45-.18-.81-.5-1.1-.89-.07-.09-.08-.23-.12-.36.27-.12.4.06.5.17.4.41.87.67,1.41.79,1.1.25,2.22.24,3.29-.09.83-.27,1.62-.66,2.42-1.03,1.07-.49,2.18-.82,3.4-.72Z"/>
    <path class="cls-1" d="m99.27,89.87l1.02.06c-.18.19-.33.41-.45.65-.38.81-.9,1.51-1.46,2.19-.74.91-1.7,1.5-2.84,1.78-.45.1-.89.16-1.36.14-1.01-.04-1.88-.39-2.67-.98-.26-.2-.5-.44-.68-.7-.35-.55-.57-1.17-.75-1.8-.17-.64-.21-1.28-.24-1.93-.02-.36-.1-.71-.1-1.06,0-.82-.09-1.63-.19-2.44-.12-.87-.2-1.74-.27-2.61-.05-.71-.08-1.43-.09-2.14-.02-1.13.66-10.08.87-11.38.08-.47.05-.97.09-1.45.05-.61.14-1.21.2-1.81.05-.68.1-1.36.12-2.04.02-.57-.03-1.15.01-1.72.07-1.14.17-2.28.26-3.43.02-.26.02-.53.08-.79.17-.82.25-1.65.25-2.48,0-.18,0-.36.03-.54.13-.79.26-1.58.41-2.36.13-.71.29-1.41.65-2.03.39-.67.81-1.35,1.39-1.89.47-.44.98-.86,1.46-1.28.55.52.68,1.13.7,1.79,0,.08-.01.18-.06.25-.22.34-.47.65-.68.99-.33.54-.7,1.07-.96,1.65-.39.9-.67,1.84-1.05,2.74-.38.92-.53,1.88-.65,2.85-.11.95-.2,1.9-.23,2.85-.05,1.49-.03,2.98-.05,4.47,0,.64.01,1.27,0,1.91-.03.61-.09,1.21-.13,1.82-.06.86,0,10.57.05,12.09.02.56-.01,1.13,0,1.69.04,1.09.12,2.17.17,3.25.02.43,0,.86,0,1.29,0,.38-.03.76.01,1.14.03.37.11.73.19,1.1.14.73.32,1.45.66,2.12.55,1.09,1.71,1.59,2.85,1.17.53-.19,1.06-.44,1.5-.77.63-.48,1.14-1.11,1.58-1.79.06-.09.19-.3.36-.57Z"/>
    <path class="cls-2" d="m97.52,99.53c.18.17.37.35.25.68-.09-.07-.18-.12-.25-.19-.53-.55-1.23-.75-1.93-.93-.21-.05-.22-.03-.43-.34.2-.02.34-.06.48-.04.69.11,1.35.33,1.88.82Z"/>
    <path class="cls-2" d="m97.38,102.02c.24.03.25.17.17.41-.72-.1-1.45-.11-2.11-.39-.53-.22-1.05-.5-1.53-.82-.69-.47-1.45-.77-2.25-.93-.73-.14-1.47-.19-2.22-.05-.47.09-.87.29-1.25.55-.21.14-.4.3-.6.45-.23-.18-.27-.28-.12-.45.46-.49.98-.9,1.66-1.04,1.03-.22,2.02-.11,3.03.2.62.19,1.18.46,1.74.77.44.24.85.53,1.29.78.5.3,1.06.36,1.62.45.19.03.38.05.57.07Z"/>
    <path class="cls-2" d="m86.19,115.92c.15.5.15,1.02.05,1.54-.12.53-.43.89-.91.96-.14.02-.3.02-.43-.04-.81-.33-1.23-.93-1.2-1.78-.02-.53.18-.99.36-1.46.1-.26.69-.46,1.02-.39.63.15.93.61,1.11,1.17Zm-.56,2.13c.31-.16.35-.45.34-.77.03-.47-.18-.9-.36-1.31-.06-.13-.27-.23-.43-.27-.32-.07-.81.2-.93.5-.27.71-.3,1.27.5,1.76.28.17.57.26.88.09Z"/>
    <path class="cls-2" d="m85.25,68.53c.02.14.03.28.03.42,0,.34-.05.67-.06,1-.03.54-.03,1.09,0,1.64.04.69-.44,11.48-.39,13.04.02.76.07,1.51.08,2.27.01.39,0,.77-.03,1.16-.04.72-.09,1.44-.14,2.16-.07.95-.15,1.9-.23,2.85-.01.22-.02.44-.04.66-.07.75-.1,1.51-.23,2.25-.1.55-.15,1.11-.31,1.65-.13.42-.14.88-.19,1.32-.02.15-.03.29-.04.44v.02c-.06.57-.11,1.15-.16,1.71-.06.63-.12,1.25-.18,1.87-.09,1.05-.12,2.1-.33,3.14-.09.47-.02.97-.04,1.46,0,.34.01.69-.06,1.02-.13.61-.02,1.22-.11,1.83-.16,1.1-.6,2.04-1.71,2.51-.4.16-.79.33-1.2.48-.53.2-1.08.27-1.65.21-.55-.05-1.1-.06-1.64-.11-.28-.02-.56-.06-.83-.13-.63-.15-1.26-.23-1.91-.22-1.06.03-2.11-.1-3.16-.17-.82-.06-1.64-.09-2.45-.13-.64-.04-1.28-.09-1.92-.13-.09-.01-.17.03-.26.03l-1.92-.03c-.52,0-1.04-.02-1.56.01-.79.04-1.57.14-2.36.18-.35.02-.71-.04-1.07-.03-.87.02-1.75.05-2.62.09-.16.01-.33.04-.48.09-.7.24-1.43.2-2.14.33-.86.15-1.73.1-2.59.27-.44.09-.92.05-1.38.01-.78-.06-1.56-.19-2.35-.24-.56-.04-1.04-.28-1.47-.59-.53-.4-1.07-.82-1.34-1.46-.15-.34-.29-.7-.39-1.06-.04-.13-.06-.25-.09-.37-.01-.03-.01-.05-.02-.08-.17-.88-.27-1.77-.4-2.65,0-.09-.04-.17-.04-.26,0-1.06,0-2.11,0-3.17.01-.49.06-.98.05-1.47-.01-.73-.07-1.46-.08-2.19,0-.3,0-.59-.01-.89,0-.73,0-1.46.01-2.18,0-1.02.02-2.03.03-3.04,0-1.08,0-2.15,0-3.22.01-.51.05-1.01.05-1.52.02-.89,0-1.78.05-2.67.05-1.04.15-2.08.22-3.11.03-.46.02-.92.04-1.38.04-1.16.07-2.32.13-3.47.06-1.44.5-8.34.46-9.35-.04-1.05-.1-2.1-.14-3.15-.04-1.07-.06-2.14-.11-3.21-.02-.38-.09-.76-.13-1.14-.06-.47-.1-.94-.17-1.41-.11-.81-.31-1.6-.52-2.38-.27-.99-.68-1.91-1.07-2.84-.46-1.08-.98-2.14-1.82-3-.84-.87-1.78-1.61-2.88-2.14-.23-.11-.5-.16-.77-.18-1.15-.08-2.24.19-3.28.7-.54.26-1.08.55-1.62.83-.62.33-1.08.84-1.51,1.38-.5.63-.76,1.36-1.02,2.11-.26.77-.4,1.57-.55,2.36,0,.02-.01.05-.01.07-.08.46-.17.91-.27,1.36-.19.79-.14,1.61.16,2.41.27.7.43,1.44.69,2.15.26.72.5,1.45.97,2.08.17.22.26.5.42.73.19.28.4.56.64.79.15.15.39.21.58.32.62.37,1.3.42,1.98.36.45-.03.6-.39.7-.77.08-.29.18-.58.22-.88.09-.64,0-1.23-.36-1.79-.34-.52-.69-1.04-1.21-1.4-.2-.13-.4-.27-.58-.42-.47-.42-.84-.92-1.19-1.44-.39-.59-.65-1.23-.81-1.91-.1-.42-.14-.85-.09-1.26.05-.38.16-.74.37-1.07.52-.83,1.17-1.57,2.14-1.94.03-.01.06-.01.08-.03.98-.64,2.03-.49,3.11-.32.66.1,1.2.41,1.75.72.48.28.86.7,1.09,1.2.33.73.69,1.45.88,2.23.22.97.3,1.96.35,2.95l.09,2.04c.01.14.04.27.06.4.1.75.22,1.5.29,2.25.05.56.03,1.13.07,1.69.04.8-.07,1.34-.02,2.14.02.19.08,1.01.07,1.21-.02.58.07.81.03,1.39-.02.3-.07.6-.08.89-.02.51,0,1.01-.01,1.51-.02.78-.06,1.55-.09,2.32-.03.88-.08,3.67.07,4.94.1.81.03,1.64.05,2.46.01.61.03,1.22.05,1.83,0,.22.01.44.01.66.01,1.26-.02,2.53.05,3.79.05.93.06,1.87.27,2.79.05.25-.02.53-.08.79-.11.6-.24,1.21-.55,1.74-.3.49-.6.98-1.01,1.4-.25.27-.52.53-.76.82-.57.67-1.31,1.1-2.09,1.48-.42.21-.82.47-1.3.56-.99.18-1.98.28-2.95-.07-.66-.24-1.27-.57-1.8-1.05-.83-.74-1.72-1.42-2.73-1.9-.43-.2-.87-.38-1.32-.52-.76-.23-1.51-.11-2.23.17-.33.14-.66.27-.99.4-.23-.22-.25-.38-.04-.48.17-.08.34-.17.51-.26.59-.3,1.19-.57,1.87-.54.54.03,1.08.2,1.6.37.54.16,1.05.39,1.51.75.31.24.68.41,1.02.63.14.1.26.24.39.36.79.66,1.65,1.2,2.6,1.58.36.14.73.15,1.1.11,1.04-.11,2.05-.36,2.99-.85.28-.15.54-.36.8-.56.33-.25.65-.51.97-.78.09-.07.18-.15.26-.24.49-.62,1.15-1.13,1.43-1.91.14-.39.25-.79.34-1.19.08-.38.13-.76.18-1.14.02-.09-.01-.18-.01-.26-.04-.7-.08-1.39-.14-2.09,0-.14-.07-.27-.1-.42-.05-.23-.11-.46-.12-.69-.05-1.09-.07-2.17-.14-3.26-.04-.81-.15-1.62-.22-2.42-.02-.3,0-.6-.02-.9-.06-.77.02-1.31-.04-2.08-.05-.72.02-1.6.07-2.32.12-1.68.09-3.21.12-3.74.01-.31.01-.98,0-1.28-.03-1.39-.1-2.77-.16-4.16-.02-.58-.05-1.16-.09-1.73-.06-.74-.15-1.48-.21-2.23-.04-.6-.04-1.21-.07-1.81-.03-.67-.05-1.34-.11-2.01-.05-.77-.16-1.53-.2-2.3-.06-1-.34-1.93-.76-2.82-.06-.14-.14-.27-.19-.41-.16-.45-.46-.81-.84-1.08-1.03-.74-2.19-1.11-3.48-.98-.12.02-.24.05-.34.09-.46.18-1.3.76-1.71,1.33.51-.21.98-.18,1.45-.05.18.05.38.06.57.08.62.05.99.49,1.31.92.42.58.76,1.21,1.13,1.82.06.09.09.21.16.27.69.57.82,1.42,1.1,2.19.11.3.19.6.25.91.15.73.33,1.47.42,2.22.09.72.09,1.45.13,2.17l.15,2.58c.03.59.08,1.18.09,1.78.01.74,0,1.48-.01,2.23-.02,1.54-.05,5.47.02,6.32.05.65-.03,1.31-.06,1.97,0,.15-.01.3-.01.44-.02,1.21-.04,2.41-.04,3.61.01,1.4,0,2.8.04,4.2.04.99.16,1.98.24,2.97.05.64.16,1.28.15,1.91-.01.55-.23,1.07-.51,1.55-.24.43-.6.74-.96,1.04-.45.38-.91.74-1.39,1.06-.22.15-.51.25-.78.29-.47.07-.95.08-1.42.11-.33.03-.61-.09-.88-.26-.78-.51-1.43-1.15-2.02-1.86-.39-.46-.85-.87-1.31-1.27-.21-.18-.51-.27-.79-.41,0-.26.09-.37.32-.3.37.12.75.22,1.03.51.59.59,1.2,1.16,1.74,1.79.57.65,1.3.91,2.1,1.06.1.02.21.02.31.04.59.16,1.13-.03,1.62-.31.55-.33,1.08-.73,1.58-1.13.2-.16.32-.43.45-.66.23-.41.52-.8.52-1.3,0-.8.03-1.6.03-2.4,0-.09,0-.21-.05-.26-.22-.2-.22-.46-.25-.72-.06-.64-.15-1.27-.19-1.91-.03-.59,0-1.18-.02-1.78,0-.64-.01-1.28-.02-1.92-.02-1.14-.04-2.29-.05-3.44-.01-.4.05-.8.04-1.2-.01-.61-.08-.9-.11-1.6-.01-.08-.15-3.37-.04-4.44.18-1.61.15-3.23.16-4.84v-1.95c0-.28-.06-.56-.05-.84.02-1.02-.02-2.03-.19-3.03-.21-1.15-.34-2.33-.84-3.41-.24-.52-.52-1.03-.77-1.56-.34-.74-.83-1.38-1.29-2.04-.32-.48-.75-.88-1.4-.92-.27-.02-.53-.09-.79-.12-.4-.05-.77.06-1.12.25-.07.04-.14.11-.18.19-.34.56-.65,1.14-.56,1.88.16-.04.32-.06.47-.11.84-.23,1.61-.12,2.3.46.35.28.67.57.84,1.01.15.37.43.68.56,1.05.23.62.44,1.25.55,1.91.1.62.31,1.21.46,1.81.09.35.17.69.23,1.04.07.35.12.7.19,1.05.15.76.04,1.54.25,2.29.21.8.28,2.79.3,3.03.03.37.04,3.52.02,4.55-.03,1.52-.22,2.85-.24,4.37-.01.49-.04.98-.03,1.47,0,.46.04.92.05,1.38,0,.25-.04.5-.04.75s.02.47.04.71c.08.86.19,1.71.25,2.57.05.73.05,1.46.05,2.18-.01.6-.05,1.19-.09,1.79-.05.6-.28,1.15-.49,1.71-.18.48-.3,1.58-3.08,1.55-.96,0-2-1.08-2.51-1.62-.49-.5-1.24-1.03-2.06-.97-1.01.22-1.61.96-2.18,1.7-.7.92-2.23,2.01-3.33,2.51-.8.39-1.65.48-2.31.48-.48,0-.85-.07-1.04-.11-.89-.19-2.46-1.71-2.91-2.36-.62-1.02-2.04-2.08-3.77-2.1v-1.4c.71-.01,2.01.07,2.26.15.92.28,1.71.96,2.24,1.53.26.29.49.6.72.9.26.35.53.69.77,1.04.4.6,1,.82,1.67.88.87.08,1.57-.34,2.25-.82.8-.57,1.39-1.33,2.02-2.07.47-.55.9-1.15,1.42-1.65.68-.66,1.44-1.21,2.46-1.2.27,0,.56.03.8.21.2.13.4.24.61.37.73.45,1.2,1.18,1.79,1.77.22.22.45.42.75.71.06-.49.13-.86.14-1.23.02-.64-.01-1.28.01-1.92.02-1,.06-1.99.08-2.99,0-.48-.09-.97.09-1.44-.15-.44.08-.88.03-1.29-.06-.6.15-1.18.02-1.77-.04-.18.06-.4.06-.6-.01-.87-.05-1.73-.07-2.6,0-.51-.14-.96-.16-2.03-.02-.56-.09-1.11-.14-1.74-.35.36-.61.68-.92.95-.52.46-1.06.9-1.73,1.15-.42.15-.82.09-1.22.09-.53,0-1.04-.12-1.52-.32-.41-.18-.82-.38-1.13-.74-.4-.47-.67-1.01-.96-1.54-.02-.04-.04-.09-.03-.13.07-.31-.05-.58-.12-.86-.11-.51-.16-1.02.12-1.62-.25.12-.4.21-.55.26-.64.24-1.26.52-1.94.65-.78.14-1.5.01-2.2-.32-.85-.4-1.54-1-2.12-1.73-.31-.38-.59-.79-.73-1.26-.19-.62-.14-1.25.08-1.84.24-.66.55-1.29.83-1.95-.63-.67-1.2-1.4-1.69-2.2-.55-.87-1.01-1.79-1.24-2.8-.21-.86-.2-1.74.06-2.6.08-.29.16-.57.27-.85.43-1.14,1.15-2.07,2.08-2.85.5-.42,1.07-.69,1.7-.83.22-.05.43-.11.67-.17-.06-.14-.09-.23-.14-.32-.36-.62-.66-1.26-.79-1.97-.12-.62-.11-1.24.04-1.86.15-.56.25-1.14.49-1.66.61-1.33,1.52-2.41,2.91-2.99.76-.32,1.53-.48,2.33-.16.28.11.58.2.92.32.04-.14.1-.28.13-.44.06-.33.18-.65.36-.94.2-.33.37-.68.54-1.02.46-.91,1.27-1.39,2.15-1.78.91-.41,1.85-.35,2.78-.06.32.1.66.19.96.33.49.23.86.62,1.19,1.03.05.06.12.09.19.15.15-.14.31-.26.43-.4.84-.92,2.08-1.25,3.25-.84,1,.34,1.94.83,2.72,1.55.36.34.59.81.86,1.24.14.21.19.47.32.69.28.48.27.98.17,1.5-.04.22-.06.44-.09.66-.11.79-.41,1.51-.85,2.18-.26.39-.54.78-.92,1.01.09.62.19,1.22.28,1.81.02.09.04.19.01.27-.15.39.06.67.27.98.57.86,1.03,1.78,1.3,2.8.17.66.43,1.29.62,1.94.27.9.49,1.8.51,2.75.01.45.15.9.19,1.36.05.65.06,1.3.09,1.96.02.4.05.8.07,1.2l.12,2.31c.03.66.03,1.31.06,1.97.04.78-.3,5.27-.24,6.05.09,1.23-.14,3.4-.18,4.1-.09,1.53-.04,3.31-.13,4.84-.1,1.54-.22,3.09-.28,4.63-.06,1.26-.05,2.53-.07,3.79-.02,1.14-.06,2.28-.07,3.43,0,.62.04,1.24.06,1.86.01.18.01.36.01.54-.02.61-.07,1.21-.05,1.82.03,1.22.09,2.44.14,3.66v.35c-.04,1.21.04,2.41.25,3.59.06.34.07.69.14,1.02.2.9.53,1.77.99,2.57.35.6.85,1.11,1.54,1.35s1.41.37,2.14.45c.39.04.79.1,1.18.17.69.14,1.37.02,2.05-.05,1.33-.15,2.65-.34,3.98-.5.41-.05.83-.06,1.25-.09.94-.05,1.89-.11,2.84-.16.06-.01.12,0,.18-.01.74-.21,1.5-.23,2.25-.27.93-.06,1.85-.11,2.77-.17.49-.03.99-.04,1.49-.02.12,0,.23.01.35.01.46.02.91.05,1.37.08.31.02.62,0,.93.02.75.05,1.49.12,2.23.18.62.05,1.24.1,1.87.14,1.15.08,2.31.09,3.46.28h0c.14.02.28.05.43.08.91.19,1.81.03,2.64-.4.13-.07.27-.14.41-.19.48-.2.83-.55.96-1.05.16-.58.24-1.19.35-1.79l.18-.96c.04-.22.11-.43.12-.65.06-1.22.1-2.44.16-3.66.03-.67.05-1.34.12-2.01.07-.82.19-1.65.29-2.47.09-.76.16-1.51.26-2.26.1-.69.24-1.38.32-2.07.21-1.6.23-3.2.28-4.81.04-1.25.06-2.5.06-3.75,0-1.33-.05-2.65-.09-3.98-.04-1.09.5-10.06.53-11.08.03-.86.02-1.73.01-2.59v-.28c-.02-1.02,0-2.03-.11-3.04-.17-1.56-.06-3.13-.17-4.69-.06-.95-.15-1.89-.21-2.84-.04-.71-.05-1.43-.07-2.14-.01-.28-.05-.56-.03-.84.01-.23.03-.47.04-.7.04-.01.07-.02.11-.04.02,0,.13,0,.29-.08-.01.55.04,1.1.05,1.65.01.31,0,.61.01.91,0,.54.01,1.07.01,1.6,0,.6,0,1.21.02,1.81.02.61.05,1.21.07,1.82,0,.14,0,.29-.03.43-.08.54.11,1.05.15,1.58.06.78.12,1.57.2,2.35.06.6.14,1.2.23,1.8Zm-42.28-22.02c.08-.66-.12-1.26-.34-1.86-.19-.54-.42-1.03-.85-1.43-.83-.76-1.82-1.17-2.87-1.48-.38-.12-.76-.04-1.14.04-.7.15-1.16.62-1.48,1.24-.11.22-.22.39-.57.39-.02-.04-.09-.13-.15-.21-.29-.41-.58-.83-.88-1.24-.11-.13-.23-.28-.38-.36-.81-.39-1.65-.59-2.57-.58-.78.01-1.36.34-1.86.84-.76.74-1.1,1.71-1.35,2.72-.12.46-.15.93-.15,1.41,0,.34-.11.42-.44.43-.37.01-.67-.13-.92-.39-.4-.43-.95-.58-1.48-.66-.45-.07-.92.08-1.32.32-.44.27-.88.56-1.27.89-.59.49-1.08,1.08-1.34,1.81-.23.66-.44,1.32-.34,2.04.04.3-.02.61.04.89.12.63.29,1.25.62,1.81.1.18.2.36.34.61-.13.07-.22.14-.33.17-.27.07-.55.13-.83.17-.65.11-1.2.42-1.7.85-.83.71-1.41,1.6-1.78,2.63-.3.87-.39,1.76-.16,2.67.05.21.19.41.22.63.17,1.2.83,2.18,1.46,3.16.26.4.54.81.99,1.06.27.15.5.36.71.59.24.26.2.41-.07.62-.16.12-.31.27-.42.44-.18.27-.37.55-.46.86-.17.54-.35,1.09-.39,1.64-.07.83.5,1.41,1.02,1.95.3.3.68.53,1.01.79.61.48,1.29.72,2.07.68.29-.02.59-.05.88-.08.81-.08,1.54-.33,2.12-.93.07-.08.2-.1.28-.14.18.15.08.27.04.39-.17.52-.22,1.04-.1,1.58.1.46.27.88.49,1.3.47.9,1.13,1.52,2.1,1.78.38.11.8.06,1.19.15.47.11.88-.04,1.23-.27.85-.57,1.53-1.31,2.11-2.15.06-.09.08-.22.07-.34-.06-1-.1-2.01-.41-2.98-.08-.26-.22-.51-.34-.76-.05-.11-.12-.21-.16-.31-.19-.52-.66-.66-1.1-.82-.05-.02-.12.01-.17.03-.59.31-1.2.33-1.85.23-.9-.14-1.69-.48-2.34-1.09-.57-.54-.9-1.24-1.26-1.98-.08-.02-.21-.08-.33-.07-.3.02-.56-.09-.8-.23-.62-.35-1.19-.75-1.62-1.35-.47-.66-.88-1.31-.85-2.15.01-.07-.03-.14-.05-.22-.25-.9-.22-1.82-.19-2.75.01-.27.08-.55.12-.83.08-.51.34-.95.53-1.41.16-.37.33-.74.53-1.08.27-.44.58-.85.92-1.23.11-.13.23-.26.35-.38.48-.48.95-.98,1.51-1.38.55-.39,1.08-.79,1.68-1.09.2-.1.31-.23.34-.48.04-.25.16-.5.26-.75.22-.55.56-1.04.88-1.54.46-.7,1.11-1.19,1.74-1.71.32-.26.68-.49,1.06-.67.5-.25,1.02-.49,1.56-.64.48-.14.97-.18,1.46-.18h.16c.49.02.98.07,1.48.12.72.08,1.36.4,2.03.65.66.26,1.2.69,1.59,1.29.22.35.4.73.6,1.09.05.1.12.18.21.32.2-.2.36-.35.51-.52.62-.73.79-1.63.9-2.56Zm-1.46,5.46s.07-.03.11-.04c-.04-.26-.03-.53-.12-.77-.28-.82-.56-1.65-1.17-2.32-.33-.36-.56-.81-1.01-1.05-.99-.52-2.02-.95-3.15-1.08-.92-.11-1.84-.09-2.71.3-.63.27-1.25.57-1.84.91-.4.23-.79.53-1.12.86-.68.66-1.13,1.49-1.49,2.36-.08.18-.09.39-.14.62.33-.05.59-.11.85-.13.53-.05,1.07-.11,1.6-.1.22.01.4-.01.58-.13,1.29-.86,2.68-1.48,4.21-1.72.91-.15,1.81-.11,2.64.36.97.57,1.98,1.08,2.76,1.93Zm-3.69,38.34c.01-1.24-.08-2.47-.14-3.71-.02-.4-.07-.8-.12-1.19-.07-.44-.11-4.05-.09-4.78.05-1.3.07-2.61.1-3.92.01-.4,0-.8,0-1.2.02-.92.14-1.83.05-2.76-.08-.75-.09-1.51-.13-2.27-.02-.35-.01-.72-.09-1.06-.19-.76-.33-1.51-.35-2.29-.03-.57-.14-1.15-.27-1.71s-.18-1.12-.33-1.67c-.14-.51-.23-1.02-.35-1.54-.14-.64-.35-1.27-.66-1.85-.15-.3-.29-.61-.49-.88-.34-.47-.81-.81-1.35-1.06-.64-.28-1.23-.16-1.82.12.27,1.26.65,1.87,1.42,2.86.3.39.61.78,1.01,1.1.55.42.93,1,1.23,1.62.17.36.33.75.25,1.16-.11.61-.26,1.22-.43,1.81-.12.37-.42.58-.8.64-.53.09-1.06.15-1.59.23-.15.28-.31.57-.48.88.34.25.72.46,1.02.76.66.64.66,1.36.82,2.22.11.61.14,1.29.18,1.91.05.6.05,1.26.1,1.86.03.43.03.97.02,1.4-.03,1.44.16,2.35.14,3.11,0,.31-.09,2.19-.1,2.25-.07,1.49.03,2.99-.04,4.47,0,.09-.12,1.31-.14,1.77-.01.36.05.62.05.98,0,.41-.08,1.02-.07,1.44,0,.62-.1,1.01-.06,1.63.03.37.2.66.59.81.46.19.94.23,1.43.19.59-.06.98-.41,1.1-.98.01-.08.01-.18.05-.26.32-.66.34-1.39.35-2.09Zm-5.29-22.41c-.31-.16-.63-.26-.86-.47-.39-.34-.78-.71-1.06-1.14-.62-.96-1.17-1.96-1.42-3.1-.08-.37-.19-.74-.28-1.12-.05-.21-.07-.44-.14-.65-.21-.66-.19-1.35-.22-2.03-.01-.26.05-.53.1-.79.13-.64.27-1.28.41-1.91.04-.22.08-.43.13-.67-.32.02-.49.17-.64.37-.24.34-.45.71-.74,1-.39.39-.55.88-.71,1.36-.26.76-.45,1.54-.55,2.33-.06.49-.1.97-.13,1.46-.02.25-.01.5,0,.75,0,.75.11,1.48.44,2.17.04.09.04.2.05.3.01.11,0,.22.03.33.22.76.66,1.39,1.22,1.94.38.38.81.71,1.34.83.41.1.82.15,1.23.21.17.03.37.08.53.02.6-.22,1.2-.47,1.27-1.19Zm-1.31-16.03c-.25,0-.42.02-.59,0-1.18-.12-2.15.37-3.02,1.1-.57.47-1.09,1.01-1.62,1.53-.42.4-.86.79-1.2,1.25-.79,1.09-1.45,2.26-1.57,3.65-.06.78-.14,1.57.08,2.35.09.29.13.61.22.9.12.4.2.82.42,1.16.48.74,1.07,1.4,1.76,1.94.08.06.18.12.27.14.26.06.38-.06.3-.31-.34-1.07-.47-2.18-.5-3.3-.01-.5-.03-1.03.09-1.5.21-.82.5-1.62.83-2.4.48-1.17,1.19-2.18,2.36-2.78.11-.06.24-.16.29-.26.11-.24.19-.5.25-.76.14-.54.32-1.05.68-1.49.31-.37.6-.76.95-1.22Z"/>
    <path class="cls-2" d="m83.43,68.97c0,.11,0,.22-.01.33-.2,1.04-.37,2.68-1.66,2.84-1.35-.1-.47-1.44-.16-2.14.33-.9-.09-1.72-1.07-1.18-1.43,1.58-1.37,3.94-1.67,5.96-.19,1.04-.27,2.14-.27,3.26h0v.08c-.01.22-.02.43-.04.65s-.06.41-.14.59c-.1-1.78-.08-3.57.16-5.34.27-1.55.43-3.31,1.18-4.72.22-.43.49-.82.84-1.16.32-.12.61-.08.84.06.29.16.49.47.59.84.14.6-.27,1.25-.48,1.81-.09.25-.21.53.07.71.15.05.43.25.55.09-.19-.08-.33-.21-.42-.41.21-.19.24.3.5.23.41-.18-.47-.34-.22-.59.12.15.25.29.44.3.25-.35-.1-.32-.25-.51.14-.05.26.15.41.1-.02-.04-.02-.11-.09-.11-.12,0-.29-.18-.26-.28.13.03.32.18.47.15.12-.06.22-.33.08-.4.35-.26.05-.41-.26-.43.12-.11.4.09.42-.13.02-.15-.05-.31-.23-.31.01-.08.1-.05.14-.08.19-.07.15-.43-.03-.5.24-.26-.05-.31-.28-.29-.05-.16.24-.16.16-.29-.05-.11-.17-.03-.27-.04-.08-.04-.08-.16-.1-.23-.05-.16-.24.02-.35.04,0-.01-.01-.02-.01-.02.12-.14.47-.22.66-.17-.02-.08-.03-.15-.04-.2-.11,0-.2.03-.3.05l-.02-.02c.27-.52-.24-.03-.44-.11.82-.71-1.37-.81-1.7-.38-.61.3-.9,1.11-1.13,1.72-.05.2-.19.38.06.48-.09.02-.2-.08-.24.02-.07.23-.17.41.07.55,0,.01-.01.02-.02.02-.29-.19-.37.26-.34.47.08.1.32.1.28.24-.04-.02-.07-.04-.09-.05-.07.02-.11-.01-.15-.06-.18-.14-.18.21-.21.32-.05.22.21.14.11.42-.11-.19-.25-.15-.23.06.01.18.4-.07.46.2-.08.05-.16.07-.24.06-.12-.17-.35-.06-.28.18.13.1.33.03.44.17-.04.03-.08.09-.13.11-.03-.13-.18-.11-.25-.18-.18.2-.17.48.14.45.01.05.03.1.04.14-.39-.14-.43.11-.39.44.04.03.25,0,.22.13-.4-.12-.38.57-.26.58.16.06.01.2-.1.2-.13,1.43-.01,2.94-.12,4.44-.06.65-.11,1.3-.14,1.95h0c-.15.04-.28-.01-.29-.19-.02-.28-.02-1.45-.05-1.55h-.02c-.02-.35-.03-.71-.04-1.06-.02-.23-.05-.46-.07-.69,0-.13.03-.26.03-.39,0-.18-.02-.35-.03-.53,0-.04.02-.09.03-.13,0-.12.03-.24.04-.36.04-.23.07-.46.09-.68.21-2,.66-3.98,1.32-5.88.46-1.87,2.13-2.45,3.75-1.71.8.42,1,1.23,1,2.06Z"/>
    <path class="cls-1" d="m82.75,69.26c.18,0,.25.16.23.31-.02.22-.3.02-.42.13.31.02.61.17.26.43.14.07.04.34-.08.4-.15.03-.34-.12-.47-.15-.03.1.14.28.26.28.07,0,.07.07.09.11-.15.05-.27-.15-.41-.1.15.19.5.16.25.51-.19-.01-.32-.15-.44-.3-.25.25.63.41.22.59-.26.07-.29-.42-.5-.23.09.2.23.33.42.41-.12.16-.4-.04-.55-.09-.28-.18-.16-.46-.07-.71.21-.56.62-1.21.48-1.81-.1-.37-.3-.68-.59-.84-.23-.14-.52-.18-.84-.06-.35.34-.62.73-.84,1.16-.75,1.41-.91,3.17-1.18,4.72-.24,1.77-.26,3.56-.16,5.34-.09.23-.24.43-.46.6-.09.07-.19.12-.28.12.03-.65.08-1.3.14-1.95.11-1.5-.01-3.01.12-4.44.11,0,.26-.14.1-.2-.12,0-.14-.7.26-.58.03-.13-.18-.1-.22-.13-.04-.33,0-.58.39-.44-.01-.04-.03-.09-.04-.14-.31.03-.32-.25-.14-.45.07.07.22.05.25.18.05-.02.09-.08.13-.11-.11-.14-.31-.07-.44-.17-.07-.24.16-.35.28-.18.08.01.16-.01.24-.06-.06-.27-.45-.02-.46-.2-.02-.21.12-.25.23-.06.1-.28-.16-.2-.11-.42.03-.11.03-.46.21-.32.04.05.08.08.15.06.02.01.05.03.09.05.04-.14-.2-.14-.28-.24-.03-.21.05-.66.34-.47.01,0,.02-.01.02-.02-.24-.14-.14-.32-.07-.55.04-.1.15,0,.24-.02-.25-.1-.11-.28-.06-.48.23-.61.52-1.42,1.13-1.72.33-.43,2.52-.33,1.7.38.2.08.71-.41.44.11l.02.02c.1-.02.19-.04.3-.05.01.05.02.12.04.2-.19-.05-.54.03-.66.17,0,0,.01.01.01.02.11-.02.3-.2.35-.04.02.07.02.19.1.23.1,0,.22-.07.27.04.08.13-.21.13-.16.29.23-.02.52.03.28.29.18.07.22.43.03.5-.04.03-.13,0-.14.08Z"/>
    <path class="cls-2" d="m79.87,79c.02.31.05.62.04.93,0,.3-.06.59-.07.88-.02.45-.41.73-.53,1.13-.05.17-.12.33-.18.49.19.11.34.2.49.3.22.15.28.38.24.63-.07.38-.2.47-.61.44-.03,0-.07,0-.11.01-.02,0-.04-.01-.06-.01-.02-.12-.04-.25-.06-.39l.28.1c-.07-.17-.16-.28-.31-.28-.05-.41-.11-.84-.16-1.27.09-.06.17-.14.2-.28-.07-.03-.15-.02-.23-.01-.01-.12-.03-.25-.04-.38.14-.08.28-.18.39-.29.21-.2.31-.48.36-.89-.25.3-.51.55-.79.74-.01-.14-.03-.28-.04-.42.1-.11.2-.23.3-.36.24-.32.53-.61.44-1.06-.02-.09.04-.19.06-.3-.14-.08-.26-.16-.41-.25,0,.53-.17.98-.43,1.38-.03-.57-.05-1.15-.05-1.72v-.07h0c.02-.13.19-.48.37-.58.19-.09.55.07.59.08.11.13.19.29.22.47.05.33.07.65.1.98Z"/>
    <path class="cls-1" d="m79.51,80.11c-.05.41-.15.69-.36.89-.11.11-.25.21-.39.29-.01-.14-.03-.29-.04-.44.28-.19.54-.44.79-.74Z"/>
    <path class="cls-2" d="m79.48,91.76c.08.17-.06.42.04.55-.01,3.65-.4,7.25-.54,10.89-.26,2.44.38,5.19-.29,7.46-.02.05-.04.12-.05.16-.14.01-.3.03-.41.04-.07-.04-.13-.08-.18-.13-1.09-.98-.02-4.27-.24-5.69.14-1.89-.1-3.83-.01-5.72-.25-3.36-.06-6.71.16-10.07-.18-2-.32-3.99-.44-5.99l.06.03s.08.03.11.04c.03.49.09.97.17,1.46-.01.02-.03.03-.03.03.22,1.25.44,2.51.42,3.8.31-.03.33.27,0,.24.04.07-.05.28.08.26q.05.21-.05.24c0,.13,0,.25.01.37.16.02.33.06.19.25-.27-.13-.29.45.1.26.06.04.11.11.18.19-.22.1-.2.01-.38.08-.16,0-.01.33,0,.43.19-.05.71.11.3.25-.49-.1-.33.29.07.22.03.04.05.08.09.13-.11.11-.29.06-.42.12.02.09.08.18.08.28.4-.05.46.37.01.2,0,.1.01.18.01.28.1.1.3-.07.34.06.06.22-.2.15-.33.18-.03.19-.12.58.17.48,0,.1,0,.2-.02.31-.08-.13-.22-.08-.2.06.14.22.64.08.73.47-.27-.06-.49-.12-.73-.18-.03.13-.1.46.05.49.11-.01.47.02.38.19-.11.1-.19.06-.31.02-.28-.07-.17.22-.2.41.1.18.42-.11.44.25-.15.1-.21,0-.35,0-.16-.03-.11.58-.08.67.33.01.28.4-.02.23.03.17-.08.43.12.5.19.1-.02.28-.16.26-.52,2.65-.22,5.28-.32,7.97.04,1.75-.29,3.55-.06,5.31.46.91.89-.29.81-.82-.03-4.58.01-9.14.44-13.71.04-.53.06-1.06.07-1.59.08-2.94-.31-5.87-.33-8.83l-.15-1.38c.09,0,.18.01.27.03.01.12.03.24.05.36-.03,2.48.43,5.05.36,7.6h0Z"/>
    <path class="cls-1" d="m79.48,78.71c-.02.11-.08.21-.06.3.09.45-.2.74-.44,1.06-.1.13-.2.25-.3.36-.01-.2-.03-.39-.04-.59.26-.4.42-.85.43-1.38.15.09.27.17.41.25Z"/>
    <path class="cls-1" d="m78.96,85.15c.02,2.96.41,5.89.33,8.83h-.08c-.09-.39-.59-.25-.73-.47-.02-.14.12-.19.2-.06.01-.11.01-.21.02-.31-.29.1-.2-.29-.17-.48.13-.03.39.04.33-.18-.04-.13-.24.04-.34-.06,0-.1-.01-.18-.01-.28.45.17.39-.25-.01-.2,0-.1-.06-.19-.08-.28.13-.06.31,0,.42-.12-.04-.05-.06-.09-.09-.13-.4.07-.56-.32-.07-.22.41-.14-.11-.3-.3-.25-.01-.1-.16-.43,0-.43.18-.07.16.02.38-.08-.07-.08-.12-.15-.18-.19-.39.19-.37-.39-.1-.26.14-.19-.03-.23-.19-.25-.01-.12-.01-.24-.01-.37q.1-.03.05-.24c-.13.02-.04-.19-.08-.26.33.03.31-.27,0-.24.02-1.29-.2-2.55-.42-3.8,0,0,.02,0,.03-.03-.08-.49-.14-.97-.17-1.46.08.02.15.05.22.08.03.02.07.03.11.05,0,0,0,0,.02.01t.02.01c.14.05.27.12.4.19.02.01.04.01.06.02,0,0,0,.01,0,.01.03.02.06.03.09.05.02.01.05.01.08.02.01,0,.02-.01.03-.01.03,0,.05,0,.08.01l.15,1.38Z"/>
    <path class="cls-1" d="m79.3,83.51l-.28-.1-.03-.18c.15,0,.24.11.31.28Z"/>
    <path class="cls-2" d="m79.02,83.41c.02.14.04.27.06.39-.09-.02-.18-.03-.27-.03-.07-.56-.13-1.13-.19-1.7.07-.03.15-.07.21-.11.05.43.11.86.16,1.27-.03,0-.07,0-.11.02-.01.03-.02.07-.03.1l.17.06Z"/>
    <path class="cls-1" d="m78.8,81.67c.08-.01.16-.02.23.01-.03.14-.11.22-.2.28-.01-.09-.02-.19-.03-.29Z"/>
    <path class="cls-1" d="m78.99,83.23l.03.18-.17-.06s.02-.07.03-.1c.04-.01.08-.02.11-.02Z"/>
    <path class="cls-1" d="m78.8,81.67c.01.1.02.2.03.29-.06.04-.14.08-.21.11,0-.14-.02-.28-.04-.42.07.04.14.03.22.02Z"/>
    <path class="cls-2" d="m78.62,82.07c.06.57.12,1.14.19,1.7-.03-.01-.05-.01-.08-.01-.01,0-.02.01-.03.01-.03-.01-.06-.01-.08-.02-.03-.02-.06-.03-.09-.05,0,0,0-.01,0-.01-.02-.01-.04-.01-.06-.02-.13-.07-.26-.14-.4-.19t-.02-.01s-.02-.01-.02-.01c-.04-.02-.08-.03-.11-.05-.07-.03-.14-.06-.22-.08l-.03-.39c.16.05.33.1.49.16.22.09.34.03.51-.16-.17-.06-.3-.1-.41-.15-.13-.06-.25-.13-.39-.21.15-.35.43-.32.62-.44.04-.03.09-.05.14-.07Z"/>
    <path class="cls-2" d="m78.76,81.29c.01.13.03.26.04.38-.08.01-.15.02-.22-.02,0-.08-.01-.16-.02-.24.06-.04.13-.08.2-.12Z"/>
    <path class="cls-1" d="m78.72,80.85c.01.15.03.3.04.44-.07.04-.14.08-.2.12-.01-.14-.02-.28-.04-.43.07-.04.13-.08.2-.13Z"/>
    <path class="cls-2" d="m78.68,80.43c.01.14.03.28.04.42-.07.05-.13.09-.2.13l-.03-.39c.07-.05.13-.1.19-.16Z"/>
    <path class="cls-1" d="m78.64,79.84c.01.2.03.39.04.59-.06.06-.12.11-.19.16,0-.16-.02-.33-.03-.5.03-.03.06-.06.08-.09.04-.05.07-.1.1-.16Z"/>
    <path class="cls-2" d="m78.64,79.84c-.03.06-.06.11-.1.16-.02.03-.05.06-.08.09-.02-.24-.04-.49-.05-.73.08-.18.12-.37.14-.59s.03-.43.04-.65c0,.57.02,1.15.05,1.72Z"/>
    <path class="cls-1" d="m78.58,81.65c.02.14.03.28.04.42-.05.02-.1.04-.14.07-.19.12-.47.09-.62.44.14.08.26.15.39.21.11.05.24.09.41.15-.17.19-.29.25-.51.16-.16-.06-.33-.11-.49-.16-.04-.8-.04-1.61,0-2.41.12,0,.26-.04.39-.11.15-.07.3-.19.42-.33.01.17.02.34.03.5-.13.11-.27.19-.44.25-.18.07-.23.23-.04.41.18-.08.35-.16.51-.27.02.15.03.29.04.43-.04.02-.07.05-.11.07.04.09.08.15.13.17Z"/>
    <path class="cls-2" d="m78.56,81.41c0,.08.02.16.02.24-.05-.02-.09-.08-.13-.17.04-.02.07-.05.11-.07Z"/>
    <path class="cls-2" d="m78.49,80.59l.03.39c-.16.11-.33.19-.51.27-.19-.18-.14-.34.04-.41.17-.06.31-.14.44-.25Z"/>
    <path class="cls-2" d="m78.41,79.36c.01.24.03.49.05.73-.12.14-.27.26-.42.33-.13.07-.27.11-.39.11,0-.15,0-.29.02-.44h0c.09-.01.19-.06.28-.13.22-.17.37-.37.46-.6Z"/>
    <path class="cls-2" d="m77.66,82.94l.03.39s-.07-.03-.11-.04l-.06-.03c0-.12-.01-.25-.02-.37.05.01.11.03.16.05Z"/>
    <path class="cls-2" d="m77.67,80.09c-.01.15-.01.29-.02.44-.1,0-.18-.01-.26-.05-.03-.72-.06-1.43-.08-2.14h.02c.03.1.03,1.27.05,1.55.01.18.14.23.29.2Z"/>
    <path class="cls-1" d="m77.65,80.53c-.03.8-.03,1.61,0,2.41-.05-.02-.11-.04-.16-.05-.04-.8-.08-1.61-.11-2.41.08.04.16.05.26.05Z"/>
    <path class="cls-2" d="m77.5,82.89c.01.12.02.25.02.37-.1-.03-.19-.08-.3-.11-.14-.04-.3-.06-.45-.06-.01,0-.01-.01-.01-.01-.07.02-.14.04-.21.04h-.01c-.22.02-.42-.02-.58.2.12.34.08.67-.03,1.02-.11.38-.2.78-.24,1.17-.07.74-.28,1.43-.51,2.12-.17.49-.37.97-.55,1.46-.37.95-.95,1.78-1.53,2.61-.07.1-.15.19-.2.29-.24.51-.66.83-1.14,1.09-.42.23-.83.47-1.24.71-.17.1-.24.24-.22.44.08.67.15,1.33.22,2,.09.77.05,1.54-.03,2.31-.11,1.14-.26,2.28-.19,3.43.04.74-.05,1.49-.07,2.23-.01.48,0,.96-.01,1.44,0,.4-.04.43-.43.43-.43.01-.87.02-1.3.03-.1.01-.2.03-.36.06,0,.18-.01.36,0,.53.02.32.19.52.52.57.2.04.41.02.61.02.27,0,.54-.04.81-.02.51.04.85.46.82.98-.01.16-.02.33.02.48.1.36.13.7-.1,1.04.33.21.51.5.45.87-.03.14-.11.32-.22.4-.26.2-.56.32-.91.33-.65.02-1.31.06-1.96.13-.12.01-.24.02-.36.02s-.23-.01-.35-.02c-.35-.04-.69-.13-1.01-.27-.57-.25-.86-.74-.92-1.34-.07-.71-.12-1.42-.15-2.13-.02-.37.04-.74.04-1.11.01-.17-.03-.34-.06-.56-.46.04-.87.09-1.28.12-.45.04-.9.06-1.34.08-.49.02-.98.03-1.47.06-.34.03-.46.17-.48.47-.03.33.12.55.43.63.09.02.19.06.27.04.48-.14.94.06,1.41.08.36.02.64.27.81.57.06.12.05.33-.01.46-.09.2-.04.34.06.5.29.44.26.61-.16.97-.03.02-.04.05-.04.05.11.22.25.41.31.63.1.34-.05.58-.38.69-.56.17-1.1.38-1.7.24-.19-.05-.41.04-.62.05-.71.04-1.43.12-2.12-.08-.67-.2-1.16-.52-1.08-1.58.07-.94.22-1.87.15-2.81-.04-.43-.02-.45-.44-.52-.38-.08-.46-.17-.49-.57-.11-1.07-.14-2.14-.01-3.21.02-.18-.05-.38-.05-.57.01-.81.06-1.61.05-2.41-.01-.69-.07-1.37-.1-2.05-.01-.28,0-.56.02-.84.02-.49.05-.98.08-1.47.02-.22-.07-.35-.29-.38-.85-.09-1.64-.41-2.43-.7-1.07-.38-1.97-.98-2.65-1.95-.77-1.1-1.32-2.29-1.76-3.54-.19-.52-.26-1.09-.35-1.65-.15-.89-.28-1.79-.41-2.68-.01-.03-.03-.06-.03-.09-.06-1.16-.18-2.31-.13-3.48.06-1.32.07-2.65.08-3.97,0-.58-.08-1.16-.05-1.74.04-.78.15-1.56.23-2.35.01-.13.03-.26.05-.44.34-.06.68-.12,1.05-.18.07-.52-.02-.99-.29-1.44-.23-.37-.44-.75-.57-1.15-.13-.36-.21-.77-.19-1.14.07-.82-.02-1.62-.02-2.43,0-.54.17-.69.77-.66.06-.09.1-.21.18-.29.09-.09.21-.19.32-.2.3-.01.6.04.9.04.07.01.16-.04.24-.07.37-.16.59-.08.72.31.25.73.42,1.47.3,2.24-.01.04.01.09.02.18.13-.18.23-.32.34-.47.17-.22.41-.25.64-.16.21.08.36.29.36.52s-.02.48-.11.69c-.28.65-.61,1.29-.89,1.95-.08.18-.11.39-.13.59-.03.37-.04.75-.06,1.12,0,.23.03.43.33.49.19.04.23.2.19.39-.12.46-.22.93-.32,1.39-.02.1-.05.21-.05.31.05.72-.18,1.41-.23,2.12-.11,1.4-.44,2.77-.39,4.17.01.43.07.86.15,1.29.09.47.18.94.29,1.42.1.47.21.94.32,1.41.11.49.29.96.44,1.44.05.17.12.33.17.51.27,1,.92,1.67,1.88,2.04.53.2,1.06.37,1.6.55.04.02.08.04.12.05.67.14.7.13.97-.49.28-.62.65-1.18,1.11-1.67.29-.3.68-.53,1.05-.74.25-.14.31-.32.3-.58-.06-.94-.12-1.87-.17-2.81-.03-.48-.22-.85-.66-1.08-.18-.1-.36-.21-.6-.34,0,.72.38,1.28.58,1.91-.36.26-.73.28-1.1.24-.97-.1-1.95-.21-2.92-.31-.1-.01-.21.02-.31.02-.25.01-.51.03-.75,0-.29-.05-.4-.13-.42-.35-.01-.06-.01-.12-.01-.2.04-.73.13-1.46.12-2.19-.01-1.01.24-1.98.34-2.98.03-.35.16-.7.28-1.03.35-.96.73-1.9,1.42-2.7.49-.55.86-1.21,1.11-1.91.14-.39.31-.78.43-1.17.08-.27.13-.55.14-.83.01-.34.05-.65.38-.91-.38-.42-.81-.79-1.01-1.38.19-.07.37-.13.57-.2.08-.29.16-.6.25-.91.17-.6.55-1,1.1-1.27.67-.32,1.36-.54,2.07-.7.53-.12,1.09-.11,1.64-.03.83.13,1.67.26,2.46.59.15.07.29.11.39.26.24.35.56.64.67,1.09.03.16.27.27.47.45-.26.47-.52.95-.79,1.44.04.06.08.14.14.2.17.2.22.43.1.66-.15.3-.14.6-.07.91.13.59.08,1.18-.02,1.77-.1.64-.06,1.27.07,1.91.06.3.08.61.13.92.04.22-.02.39-.25.46-.21.06-.41.15-.63.18-.38.06-.77.07-1.15.12-.12.01-.22.08-.42.15.2.1.32.13.41.19.34.22.4.75.08.99-.25.2-.31.41-.26.7.09.43.16.86.24,1.3.01.05.02.12,0,.17-.14.35.05.63.18.92.11.25.19.5.28.75.07.2.15.37.37.47.21.09.4.25.57.42.29.28.4.64.41,1.05,0,.32.08.63.12.95.07.57-.02,1.09-.38,1.55-.12.17-.28.13-.44.05-.6-.35-1.23-.66-1.67-1.24-.06-.08-.15-.14-.27-.24-.29.67-.12,1.3-.05,1.99.43.13.84.27,1.27.38.68.18,1.23.58,1.77,1.01.43.34.78.76,1.11,1.2.19.26.3.28.57.12.57-.32,1.18-.58,1.62-1.08.55-.63,1.07-1.28,1.34-2.09.13-.38.2-.77.21-1.17.02-.37.14-.73.21-1.1.04-.21.08-.43.11-.65.06-.41.29-.57.7-.47.22.04.29-.04.37-.33.12-.43.24-.85.38-1.27.07-.21.17-.42.3-.59.41-.51.77-1.06,1.36-1.4.34-.19.64-.32,1.09-.39.1-.02.28-.02.39-.02.12,0,.3.02.39.01.02.71.05,1.42.08,2.14-.12-.04-.23-.12-.31-.24-.09-.14-.13-.33-.15-.5-.02-.27-.02-.54-.01-.81,0-.15-.06-.25-.2-.22-.32.05-.65.02-.94.22-.64.44-1.09,1.05-1.49,1.69-.31.48-.35,1.03-.44,1.57-.04.25.04.39.27.47.31.11.62.2.92.33.27.11.49.08.74-.08.33-.2.71-.31,1.1-.2.21.05.41.11.62.18Zm-2.13,1.36c.03-.13.02-.26.03-.4-.85-.28-1.56-.87-2.51-.89-.11.53-.29,1.03-.32,1.54-.05.67-.18,1.31-.48,1.88-.32.6-.71,1.18-1.16,1.69-.48.55-1.12.92-1.81,1.2-.1.04-.19.12-.32.2.73,1.23.94,2.63,1.44,3.96.57-.31,1.1-.58,1.6-.88.22-.13.41-.31.56-.51.27-.35.47-.76.74-1.11.88-1.14,1.25-2.51,1.71-3.84.33-.92.31-1.9.52-2.84Zm-4.53,26.37c0-.14-.07-.33-.18-.42s-.29-.13-.45-.15c-.38-.05-.77-.07-1.15-.1-.16,0-.26-.05-.28-.23.19-.17.43-.13.67-.15.29-.02.58-.09.86-.17.09-.02.2-.17.2-.25-.01-.11-.1-.25-.2-.31-.12-.07-.29-.06-.43-.08-.24-.05-.51.02-.71-.23.11-.25.33-.25.51-.27.17-.03.34.03.52.02.09,0,.25-.04.26-.09.02-.09-.01-.23-.08-.31-.16-.19-.39-.25-.64-.24-.33.02-.65.05-.98.05-.58,0-.86-.23-1.01-.8-.03-.13-.04-.26-.05-.4-.02-.33-.06-.38-.4-.39h-1.03c-.44.01-.47.03-.46.47.02,1.05.04,2.11.09,3.17.02.5.27.88.76,1.11.44.22.92.3,1.38.28.82-.04,1.63-.16,2.44-.24.03-.01.06-.01.08-.03.1-.08.28-.16.28-.24Zm-.98-10.33c.1-1.33.3-2.66.16-4-.07-.74-.21-1.47-.34-2.2-.11-.57-.27-1.12-.37-1.69-.22-1.36-.77-2.55-1.61-3.63-.54-.69-1.24-1.15-1.93-1.64-.1-.07-.23-.08-.44-.14.35.61.37,1.16.23,1.72-.05.24-.14.44-.35.59-.31.23-.62.4-1,.47-.35.07-.39.11-.38.48.02.33.06.66.09.98.07.87-.09,1.76.17,2.62.07.25-.06.34-.33.33-.28-.01-.56-.02-.84-.02-.37,0-.52-.12-.59-.48-.05-.23-.09-.47-.09-.7,0-.94,0-1.88-.12-2.81-.03-.24-.09-.37-.35-.42-.56-.1-.9-.55-1.3-.9-.08-.06-.1-.17-.15-.27-.16-.34-.07-.69.04-1.11-.11.05-.15.06-.18.08-.29.15-.35.47-.52.7-.52.66-.84,1.4-1.08,2.18-.07.23-.08.48-.17.7-.25.64-.34,1.32-.4,2-.09.96-.17,1.93-.23,2.89-.03.46-.04.92-.03,1.39.01.68.07,1.36.07,2.04.02,1.33.01,2.65.01,3.97,0,.79-.01,1.57,0,2.35.01.31.12.41.42.4.4-.01.8-.02,1.19-.1,1.15-.25,2.31-.4,3.49-.35.29.02.59-.03.89-.06.34-.04.67-.11,1.01-.12,1.03-.04,2.06-.05,3.08-.06.52-.01,1.04-.02,1.56-.02.2,0,.29-.1.29-.31v-.89c.03-.91.06-1.81.09-2.72.01-.42-.02-.84.01-1.25Zm-3.6-24.77c.31-.03.39-.15.33-.45-.05-.26-.11-.52-.14-.79-.1-.69-.19-1.38-.05-2.08.03-.17,0-.36-.01-.53-.05-.43-.11-.86-.18-1.34-.94-.02-1.89-.04-2.85-.06-.7-.02-1.39.02-2.05.28-.3.11-.54.25-.64.56-.26.83-.53,1.64-.76,2.48-.14.51-.19,1.05-.28,1.57-.17.98-.46,1.94-.43,2.95.02.69,0,1.39-.03,2.09-.02.38.09.71.34.98.34.33.68.66,1.05.96.39.32.62.73.67,1.22.06.51.08,1.03.09,1.55.01.57,0,1.14.01,1.71.01.2.04.43.15.59.32.43.72.79,1.28.9.24.04.44-.01.62-.17.29-.25.39-.58.37-.96-.04-.67-.09-1.33-.11-2,0-.25.01-.53.11-.75.15-.34.18-.64-.05-.94-.02-.04-.03-.09-.05-.13-.24-.57-.61-1-1.25-1.17-.48-.13-.86-.44-1.19-.83-.31-.36-.53-.78-.62-1.22-.1-.52-.04-1.09-.04-1.63,0-.07.05-.15.08-.21.23-.44.48-.86.95-1.09.29-.14.6-.26.88-.43.5-.3,1.03-.44,1.62-.35.07-.1.16-.19.2-.29.09-.24.26-.35.51-.36.24-.01.48-.03.71-.04.26-.01.51.01.76-.02Zm.27-8.45c0-.09,0-.14-.03-.18-.29-.64-.83-1.01-1.46-1.2-.57-.18-1.16-.29-1.75-.35-.46-.05-.95-.02-1.41.06-.48.09-.92.32-1.4.43-1.03.26-1.47.98-1.62,1.96.39.14.76-.02,1.11-.09.89-.17,1.79-.19,2.68-.28.48-.04.96-.03,1.45-.12.66-.12,1.33-.24,2.02-.14.13.02.27-.05.41-.09Zm-.14,1.36c.15-.22.3-.44.35-.76-.68-.15-1.34-.11-1.99.03-.53.11-1.05.15-1.59.13-.62-.03-1.24,0-1.86.07-.68.08-1.34.24-2.02.37-.24.04-.47.11-.77.19.14.2.24.34.34.48.16.24.33.3.64.22,1.22-.3,2.45-.57,3.71-.6.89-.02,1.78.02,2.67.04.19,0,.4.01.52-.17Zm-.25,1.48c.33-.11.39-.33.15-.57-.16-.16-.38-.29-.59-.36-.24-.07-.5-.09-.75-.08-.92.02-1.84.06-2.76.1-.21.01-.42.01-.62.05-.69.16-1.38.34-2.08.49-.29.06-.43.22-.51.48-.09.3-.02.48.29.5.28.03.59-.01.87-.07.39-.1.75-.3,1.14-.36.78-.1,1.57-.13,2.35-.17.48-.03.97-.01,1.46-.01v.03c.2.01.41.04.62.04.14-.01.3-.02.43-.07Zm-.91,18.3c.06-.63-.18-1.33-1.05-1.38.09.73-.22,1.23-.82,1.57-.25.15-.5.15-.77.05-.24-.1-.49-.2-.74-.3-.3-.13-.53-.33-.67-.62-.05-.11-.13-.21-.2-.33-.51.61-.43,1.52.35,1.88.19.09.37.18.57.25.76.25.51.18.67.86.02.09,0,.18.01.27.03.95.06,1.91.09,2.86,0,.09,0,.19.04.26.05.08.13.18.21.18.16.02.33,0,.48-.05.08-.03.18-.17.18-.26-.01-.5-.05-1.01-.07-1.51-.03-.7-.19-1.38-.06-2.09.04-.21.11-.32.31-.36.11-.02.21-.05.31-.06.67-.06,1.09-.37,1.16-1.22Zm-.29-7.14c-.17-.33-.3-.59-.44-.87-.22.03-.39.06-.57.08-.65.05-1.1-.24-1.32-.71-.1-.21-.17-.43-.28-.72.14-.12.27-.28.44-.36.39-.17.79-.31,1.2-.44.19-.05.27-.11.2-.32-.41-.11-.79,0-1.2.1-.53.12-.75.43-.85.9-.13.65-.09,1.25.42,1.77.67.67,1.48.63,2.4.57Zm-.84-2.16c.14-.03.28-.12.24-.31-.04-.16-.15-.22-.3-.21-.38.03-.68.21-.95.43l.04.12h.44c.18,0,.36.01.53-.03Zm-.31.99c.39-.04.55-.15.65-.51-.44.03-.85.06-1.31.09.16.35.34.45.66.42Zm-.5,31.01c.14-.04.21-.14.2-.3,0-.18-.14-.22-.28-.23-.24-.01-.47-.01-.71-.01-.19.01-.36-.02-.45-.29.13-.05.25-.11.39-.14.13-.02.26.01.4,0,.29-.04.58-.11.7-.44-.16-.28-.38-.36-.68-.32-.23.03-.47.03-.71.02-.18-.01-.32-.11-.34-.3-.02-.15.16-.3.37-.3.22-.01.45,0,.67-.01.16-.01.32-.05.37-.25-.04-.04-.06-.09-.09-.1-.48-.23-.96-.45-1.52-.39-.82.09-1.14-.17-1.29-.98-.02-.12-.07-.22-.12-.36-.55.11-1.07.21-1.63.32-.02.05-.06.09-.06.13.07,1.13.1,2.25-.11,3.37-.06.32.1.63.44.75.32.11.65.21.98.26.7.1,1.4.03,2.09-.09.47-.08.92-.22,1.38-.34Zm-3.4-38.88c.14-.4.29-.79.44-1.22-.55.07-1.05.12-1.58.19-.1.31-.2.63-.3.96-.25.87-.66,1.68-1.23,2.35-.99,1.16-1.57,2.48-1.9,3.94-.35,1.59-.42,3.21-.41,4.84,0,.1.03.19.05.31.32.03.61.05.9.08.51.04,1.01.1,1.51.13.65.04,1.31.07,2.01.1.01-.18.04-.31.02-.43-.13-.62-.3-1.24-.41-1.87-.11-.61-.2-1.23-.26-1.85-.07-.77.08-1.54.15-2.31.09-.99.22-1.97.46-2.93.06-.23.15-.47.16-.7.01-.56.21-1.07.39-1.59Zm-2.04,18.95c.07-.27.13-.54.19-.81-.08-.06-.13-.11-.18-.12-.3-.07-.62-.11-.91-.19-.49-.13-.99-.24-1.45-.45-.9-.4-1.56-1.07-1.92-2-.21-.56-.4-1.12-.58-1.69-.11-.36-.19-.74-.28-1.12-.24-1.03-.46-2.06-.69-3.09,0-.04,0-.09,0-.13-.02-.25-.03-.5-.03-.74,0-.45.03-.9.09-1.35.17-1.26.31-2.51.47-3.76.09-.74.19-1.48.29-2.24-1.01-.07-2.01-.15-3.04-.22-.04.18-.09.31-.09.44-.04.78-.08,1.57-.1,2.35-.01.79-.02,1.58-.02,2.37-.01.81,0,1.6-.01,2.41v.04s-.01.09-.01.13c-.08.95-.19,1.89-.08,2.84.05.38.12.76.19,1.14.19,1.07.19,2.17.53,3.21.05.13.06.26.08.39.08.67.41,1.23.69,1.82.1.22.25.41.34.62.17.47.43.88.71,1.28.64.93,1.44,1.62,2.55,1.92.51.14,1.02.33,1.53.47.24.07.5.11.74.11.38.02.39,0,.43-.39.06-.58.1-1.16.2-1.73.09-.51.24-1.01.37-1.51Zm-4.11-22.58c-.15-.14-.29-.27-.46-.41,0,.07-.02.12-.02.18.01.29-.13.51-.31.71-.07.07-.22.12-.31.1-.07-.01-.13-.15-.16-.24-.02-.06-.01-.14,0-.22,0-.46.04-.92.04-1.38,0-.38-.04-.42-.51-.56v1.61c0,.15.01.3-.02.44-.02.07-.12.16-.18.17-.07.01-.18-.07-.2-.13-.05-.13-.09-.29-.08-.43.03-.41-.14-.83.06-1.23.02-.03-.06-.14-.11-.15-.04-.02-.13.04-.16.09-.03.06-.03.14-.03.22.01.4.02.8.04,1.2,0,.09.03.19.01.26-.03.07-.12.16-.18.16-.06.01-.17-.08-.19-.14-.03-.16-.03-.32-.03-.49l-.06-1.44c-.23-.01-.22.12-.22.24.01.58.01,1.16.02,1.74,0,.13-.02.25-.17.27-.16.01-.25-.09-.27-.24-.02-.09,0-.18-.02-.27,0-.47,0-.94-.01-1.42,0-.05-.03-.1-.05-.19-.11.04-.2.08-.3.11.07.06.13.1.25.2-.37.11-.32.37-.31.61.01.29.05.59.05.89-.01.68.23,1.27.59,1.84.33.53.69,1.08.56,1.77-.03.21.11.27.26.29.45.04.89.05,1.36-.08,0-.39,0-.73,0-1.07,0-.39.05-.76.24-1.12.32-.62.59-1.26.88-1.89Zm-1.73-2.33c.38-.11.38-.29.04-.65q-.15.28-.04.65Zm-.47.11c.06-.31-.09-.49-.26-.71-.13.5-.1.59.26.71Zm-.7.18c-.04-.26.08-.56-.21-.81q-.13.59.04.91c.06-.03.17-.08.17-.1Zm-.62.18c-.12-.21-.22-.37-.31-.53-.04.01-.08.02-.12.02-.01.18-.02.35-.04.56.17-.02.28-.03.47-.05Z"/>
    <path class="cls-1" d="m77.39,80.48c.03.8.07,1.61.11,2.41-.21-.07-.41-.13-.62-.18-.39-.11-.77,0-1.1.2-.25.16-.47.19-.74.08-.3-.13-.61-.22-.92-.33-.23-.08-.31-.22-.27-.47.09-.54.13-1.09.44-1.57.4-.64.85-1.25,1.49-1.69.29-.2.62-.17.94-.22.14-.03.2.07.2.22-.01.27-.01.54.01.81.02.17.06.36.15.5.08.12.19.2.31.24Z"/>
    <path class="cls-2" d="m76.48,115.11c.34.19.48.7.35,1.08-.08.2-.22.31-.41.35-.18.03-.31-.09-.4-.23-.16-.26-.41-.49-.4-.87.08-.14.12-.32.24-.42.21-.16.43-.02.62.09Zm.17.86c-.13-.25-.21-.44-.5-.4.11.16.17.4.5.4Z"/>
    <path class="cls-2" d="m75.6,119.5c-.02.2-.02.33-.04.46-.08.5-.45.75-.93.61-.34-.1-.63-.28-.75-.65-.08-.26-.16-.53-.21-.81-.08-.43.17-.9.57-1.09.46-.24.98,0,1.15.54.11.32.15.66.21.94Zm-.33.51c.08-.41.02-.82-.12-1.22-.06-.2-.36-.38-.51-.36-.17.03-.37.25-.4.48-.02.15,0,.3,0,.45h-.02v.22c.01.4.24.66.63.71.23.03.37-.05.42-.28Z"/>
    <path class="cls-1" d="m70.66,110.2c.11.09.18.28.18.42,0,.08-.18.16-.28.24-.02.02-.05.02-.08.03-.81.08-1.62.2-2.44.24-.46.02-.94-.06-1.38-.28-.49-.23-.74-.61-.76-1.11-.05-1.06-.07-2.12-.09-3.17-.01-.44.02-.46.46-.47h1.03c.34.01.38.06.4.39.01.14.02.27.05.4.15.57.43.8,1.01.8.33,0,.65-.03.98-.05.25-.01.48.05.64.24.07.08.1.22.08.31-.01.05-.17.09-.26.09-.18.01-.35-.05-.52-.02-.18.02-.4.02-.51.27.2.25.47.18.71.23.14.02.31.01.43.08.1.06.19.2.2.31,0,.08-.11.23-.2.25-.28.08-.57.15-.86.17-.24.02-.48-.02-.67.15.02.18.12.23.28.23.38.03.77.05,1.15.1.16.02.34.06.45.15Z"/>
    <path class="cls-2" d="m69.01,113.64c.57.3.6.37.3.92-.55.1-.81-.1-.97-.55.22-.46.34-.53.67-.37Zm.04.62s.1-.06.2-.13c-.11-.05-.16-.1-.22-.1-.04,0-.08.06-.12.09.04.05.08.12.14.14Z"/>
    <path class="cls-2" d="m68.87,116.29c.22.08.37.28.32.57-.04.25-.15.5-.23.75-.07.23-.28.24-.47.26-.32-.01-.65-.47-.55-.82.05-.19.15-.38.26-.55.16-.24.41-.3.67-.21Zm-.28,1.34c.43-.33.49-.66.15-1.08-.3.14-.53.3-.52.66,0,.26.15.37.37.42Z"/>
    <path class="cls-1" d="m66.59,75.07c.06.3-.02.42-.33.45-.25.03-.5.01-.76.02-.23.01-.47.03-.71.04-.25.01-.42.12-.51.36-.04.1-.13.19-.2.29-.59-.09-1.12.05-1.62.35-.28.17-.59.29-.88.43-.47.23-.72.65-.95,1.09-.03.06-.08.14-.08.21,0,.54-.06,1.11.04,1.63.09.44.31.86.62,1.22.33.39.71.7,1.19.83.64.17,1.01.6,1.25,1.17.02.04.03.09.05.13.23.3.2.6.05.94-.1.22-.11.5-.11.75.02.67.07,1.33.11,2,.02.38-.08.71-.37.96-.18.16-.38.21-.62.17-.56-.11-.96-.47-1.28-.9-.11-.16-.14-.39-.15-.59-.02-.57,0-1.14-.01-1.71,0-.52-.03-1.04-.09-1.55-.05-.49-.28-.9-.67-1.22-.37-.3-.71-.63-1.05-.96-.25-.27-.36-.6-.34-.98.03-.7.05-1.4.03-2.09-.03-1.01.26-1.97.43-2.95.09-.52.14-1.06.28-1.57.23-.84.5-1.65.76-2.48.1-.31.34-.45.64-.56.66-.26,1.35-.3,2.05-.28.96.02,1.91.04,2.85.06.07.48.13.91.18,1.34.02.17.04.36.01.53-.14.7-.05,1.39.05,2.08.03.27.09.53.14.79Zm-.86-2.88c.12-.49-.22-.86-.55-1.06-.4-.25-.91-.37-1.39-.41-.55-.04-1.1.05-1.65.2-.4.12-.65.27-.81.65-.09.22-.35.44-.33.64.03.23.29.43.44.65.45.68,1.08,1.02,1.9.89.43-.07.88,0,1.29-.23.3-.18.56-.38.81-.61.22-.2.36-.4.29-.72Z"/>
    <path class="cls-1" d="m66.5,66.89s.02.09.03.18c-.14.04-.28.11-.41.09-.69-.1-1.36.02-2.02.14-.49.09-.97.08-1.45.12-.89.09-1.79.11-2.68.28-.35.07-.72.23-1.11.09.15-.98.59-1.7,1.62-1.96.48-.11.92-.34,1.4-.43.46-.08.95-.11,1.41-.06.59.06,1.18.17,1.75.35.63.19,1.17.56,1.46,1.2Z"/>
    <path class="cls-1" d="m66.74,67.67c-.05.32-.2.54-.35.76-.12.18-.33.17-.52.17-.89-.02-1.78-.06-2.67-.04-1.26.03-2.49.3-3.71.6-.31.08-.48.02-.64-.22-.1-.14-.2-.28-.34-.48.3-.08.53-.15.77-.19.68-.13,1.34-.29,2.02-.37.62-.07,1.24-.1,1.86-.07.54.02,1.06-.02,1.59-.13.65-.14,1.31-.18,1.99-.03Z"/>
    <path class="cls-1" d="m66.29,69.34c.24.24.18.46-.15.57-.13.05-.29.06-.43.07-.21,0-.42-.03-.62-.04v-.03c-.49,0-.98-.02-1.46.01-.78.04-1.57.07-2.35.17-.39.06-.75.26-1.14.36-.28.06-.59.1-.87.07-.31-.02-.38-.2-.29-.5.08-.26.22-.42.51-.48.7-.15,1.39-.33,2.08-.49.2-.04.41-.04.62-.05.92-.04,1.84-.08,2.76-.1.25-.01.51,0,.75.08.21.07.43.2.59.36Z"/>
    <path class="cls-2" d="m65.93,114.9c.12.22,0,.74-.19.92-.15.14-.47.14-.75-.03-.21-.13-.42-.26-.6-.42-.23-.22-.26-.48-.1-.77.14-.27.36-.38.79-.35.3.05.64.26.85.65Zm-.23.56c.01-.43-.48-.84-.83-.77-.21.03-.31.21-.24.42.1.28.57.59.85.54.1-.02.17-.15.22-.19Z"/>
    <path class="cls-2" d="m65.19,71.67c-.09-.33-.24-.46-.6-.42.23.16.38.27.6.42Zm-.01-.54c.33.2.67.57.55,1.06.07.32-.07.52-.29.72-.25.23-.51.43-.81.61-.41.23-.86.16-1.29.23-.82.13-1.45-.21-1.9-.89-.15-.22-.41-.42-.44-.65-.02-.2.24-.42.33-.64.16-.38.41-.53.81-.65.55-.15,1.1-.24,1.65-.2.48.04.99.16,1.39.41Zm.03,1.3c-.14-.17-.26-.33-.42-.53-.11.27-.16.5-.28.68-.1.17-.28.3-.46.49.55,0,.86-.28,1.16-.64Zm-.95-.09c.15-.2.17-.44.05-.67-.13-.24-.35-.19-.55-.16-.24.02-.47.04-.71.07-.09.02-.22.06-.26.13-.16.27-.17.58-.04.85.1.2.3.31.57.33.48.04.71-.25.94-.55Zm-.88,1.02c-.46-.1-.93-.2-1.39-.31.4.39.86.52,1.39.31Zm-1.02-.62v-1.03c-.27.14-.5.25-.79.4.27.22.48.39.79.63Z"/>
    <path class="cls-1" d="m64.79,71.9c.16.2.28.36.42.53-.3.36-.61.63-1.16.64.18-.19.36-.32.46-.49.12-.18.17-.41.28-.68Z"/>
    <path class="cls-2" d="m64.35,117.12c.57.16.88,1.13.5,1.58-.17.2-.31.5-.62.44-.44-.08-.89-.19-1.3-.36-.35-.14-.4-.43-.32-.81.1-.48.39-.71.78-.89.08-.04.17-.05.18-.05.31.03.55.03.78.09Zm.25,1.52c.07-.1.15-.31.09-.39-.17-.27-.37-.55-.73-.58-.41-.04-.81-.03-1.15.28-.02.56.09.73.58.85.2.05.41.08.61.09.23.01.46-.05.6-.25Z"/>
    <path class="cls-1" d="m64.59,71.25c.36-.04.51.09.6.42-.22-.15-.37-.26-.6-.42Z"/>
    <path class="cls-1" d="m64.5,80.2c.14.28.27.54.44.87-.92.06-1.73.1-2.4-.57-.51-.52-.55-1.12-.42-1.77.1-.47.32-.78.85-.9.41-.1.79-.21,1.2-.1.07.21-.01.27-.2.32-.41.13-.81.27-1.2.44-.17.08-.3.24-.44.36.11.29.18.51.28.72.22.47.67.76,1.32.71.18-.02.35-.05.57-.08Z"/>
    <path class="cls-1" d="m64.31,71.67c.12.23.1.47-.05.67-.23.3-.46.59-.94.55-.27-.02-.47-.13-.57-.33-.13-.27-.12-.58.04-.85.04-.07.17-.11.26-.13.24-.03.47-.05.71-.07.2-.03.42-.08.55.16Zm-.66.82c.19-.05.35-.24.34-.42-.02-.18-.19-.32-.42-.3-.17.01-.34.06-.51.09.02.49.24.72.59.63Z"/>
    <path class="cls-1" d="m64.34,78.6c.04.19-.1.28-.24.31-.17.04-.35.03-.53.03h-.44l-.04-.12c.27-.22.57-.4.95-.43.15-.01.26.05.3.21Z"/>
    <path class="cls-2" d="m63.99,72.07c.01.18-.15.37-.34.42-.35.09-.57-.14-.59-.63.17-.03.34-.08.51-.09.23-.02.4.12.42.3Z"/>
    <path class="cls-1" d="m64.44,79.39c-.1.36-.26.47-.65.51-.32.03-.5-.07-.66-.42.46-.03.87-.06,1.31-.09Z"/>
    <path class="cls-1" d="m63.49,110.61c.01.16-.06.26-.2.3-.46.12-.91.26-1.38.34-.69.12-1.39.19-2.09.09-.33-.05-.66-.15-.98-.26-.34-.12-.5-.43-.44-.75.21-1.12.18-2.24.11-3.37,0-.04.04-.08.06-.13.56-.11,1.08-.21,1.63-.32.05.14.1.24.12.36.15.81.47,1.07,1.29.98.56-.06,1.04.16,1.52.39.03.01.05.06.09.1-.05.2-.21.24-.37.25-.22.01-.45,0-.67.01-.21,0-.39.15-.37.3.02.19.16.29.34.3.24.01.48.01.71-.02.3-.04.52.04.68.32-.12.33-.41.4-.7.44-.14.01-.27-.02-.4,0-.14.03-.26.09-.39.14.09.27.26.3.45.29.24,0,.47,0,.71.01.14.01.27.05.28.23Z"/>
    <path class="cls-1" d="m61.99,73.05c.46.11.93.21,1.39.31-.53.21-.99.08-1.39-.31Z"/>
    <path class="cls-1" d="m62.36,71.71v1.03c-.31-.24-.52-.41-.79-.63.29-.15.52-.26.79-.4Z"/>
    <path class="cls-2" d="m60.98,114.31c.3.2.33.55.05.77-.13.1-.3.17-.45.03-.13-.13-.26-.27-.39-.41-.08-.1-.18-.23-.07-.36.09-.09.22-.16.33-.24.21.08.38.12.53.21Zm-.2.58s.11-.09.18-.15c-.17-.14-.29-.3-.53-.2.06.19.17.32.35.35Z"/>
    <path class="cls-1" d="m60.33,70.81c-.15.43-.3.82-.44,1.22-.18.52-.38,1.03-.39,1.59-.01.23-.1.47-.16.7-.24.96-.37,1.94-.46,2.93-.07.77-.22,1.54-.15,2.31.06.62.15,1.24.26,1.85.11.63.28,1.25.41,1.87.02.12-.01.25-.02.43-.7-.03-1.36-.06-2.01-.1-.5-.03-1-.09-1.51-.13-.29-.03-.58-.05-.9-.08-.02-.12-.05-.21-.05-.31,0-1.63.06-3.25.41-4.84.33-1.46.91-2.78,1.9-3.94.57-.67.98-1.48,1.23-2.35.1-.33.2-.65.3-.96.53-.07,1.03-.12,1.58-.19Z"/>
    <path class="cls-2" d="m57.94,115.62c.32.33.28.87-.05,1.14-.17.14-.36.24-.6.1-.32-.18-.67-.32-1-.48-.26-.11-.5-.64-.43-.95.07-.3.33-.47.86-.47.39.06.86.27,1.22.66Zm-.41,1.03c.23,0,.33-.13.33-.38,0-.39-.26-.67-.65-.7-.16-.02-.32-.06-.48-.06-.13.01-.31.03-.39.11-.13.14-.13.37.01.5.33.3.71.53,1.18.53Z"/>
    <path class="cls-1" d="m53.28,67.99c.17.14.31.27.46.41-.29.63-.56,1.27-.88,1.89-.19.36-.24.73-.24,1.12,0,.34,0,.68,0,1.07-.47.13-.91.12-1.36.08-.15-.02-.29-.08-.26-.29.13-.69-.23-1.24-.56-1.77-.36-.57-.6-1.16-.59-1.84,0-.3-.04-.6-.05-.89-.01-.24-.06-.5.31-.61-.12-.1-.18-.14-.25-.2.1-.03.19-.07.3-.11.02.09.05.14.05.19.01.48.01.95.01,1.42.01.09,0,.18.02.27.02.15.11.25.27.24.15-.02.17-.14.17-.27-.01-.58-.01-1.16-.02-1.74,0-.12,0-.25.22-.24l.06,1.44c0,.17,0,.33.03.49.02.06.13.15.19.14.06,0,.15-.09.18-.16.02-.07-.01-.17-.01-.26-.02-.4-.03-.8-.04-1.2,0-.08,0-.16.03-.22.03-.05.12-.11.16-.09.05.01.13.12.11.15-.2.4-.03.82-.06,1.23,0,.14.03.3.08.43.02.06.13.14.2.13.06-.01.16-.1.18-.17.03-.14.02-.29.02-.44v-1.61c.47.14.52.18.51.56,0,.46-.03.92-.04,1.38-.01.08-.02.16,0,.22.03.09.09.23.16.24.09.02.24-.03.31-.1.18-.2.32-.42.31-.71,0-.06.02-.11.02-.18Z"/>
    <path class="cls-2" d="m53.11,115.39c.1.25.12.83.03,1.14-.34-.26-.23-.72-.49-1.02-.05-.01-.06-.01-.08-.01-.12-.03-.29.16-.36-.08-.04-.13.2-.35.37-.36.17-.02.46.17.53.33Z"/>
    <path class="cls-2" d="m52.94,116.81c-.46.22-.7.06-.73-.45.13.3.39.4.73.45Z"/>
    <path class="cls-2" d="m47.74,116.83c.15.2.18.49.26.74-.08.85-.5,1.39-1.33,1.42-.2,0-.44-.04-.59-.15-.66-.5-1.17-1.1-1.17-1.98.01-.27.1-.57.23-.81.17-.32.57-.36.86-.34.75.08,1.31.52,1.74,1.12Zm-.41,1.65c.26-.35.39-.72.3-1.17-.11-.53-.95-1.09-1.39-1.09-.47.01-.94.38-.96.77-.04.64.42,1.39,1.02,1.65.11.05.22.07.28.09.31-.02.58-.02.75-.25Z"/>
    <path class="cls-2" d="m43.12,99.1c.08.03.14.11.21.17-.06.05-.11.14-.18.15-.28.04-.56.04-.84.09-.37.05-.74.1-1.09.2-.37.1-.71.28-1,.56-.52.49-1.05.96-1.59,1.41-.25.21-.52.36-.78.55-.46.35-.9.73-1.39,1.04-.5.32-1.02.66-1.58.86-.61.23-1.27.31-1.79.42-.65-.09-1.17-.14-1.69-.25-.54-.12-.97-.48-1.39-.82-.48-.38-.9-.83-1.38-1.19-.39-.31-.86-.47-1.34-.53-.42-.06-.84-.1-1.26-.14-.14-.01-.28.02-.42.03-1.07.08-2.02.55-2.98,1.02-.65.32-1.33.54-2.06.59-.02.01-.04.01-.06.01-.27.02-.54.06-.8.12-.54.14-1.07.06-1.61.02-.61-.05-1.21-.1-1.8-.29-.38-.13-.69-.33-1.02-.54-.04-.03-.11-.07-.12-.11-.02-.1,0-.21-.02-.32.09.03.19.03.25.08.68.66,1.5.7,2.36.63.08,0,.16.01.25.02,1.12.07,2.24-.02,3.34-.32.67-.18,1.29-.51,1.93-.8.74-.34,1.5-.65,2.27-.88.32-.09.64-.14.95-.14.72,0,1.42.24,2.08.63.7.41,1.34.9,1.94,1.44.49.44,1.04.77,1.66.95.14.04.29.06.43.05.71-.07,1.43-.05,2.14-.25.51-.15.96-.38,1.38-.69.64-.48,1.29-.96,1.91-1.48.52-.43,1-.92,1.5-1.38.05-.05.09-.12.14-.15.64-.33,1.27-.65,2.02-.62.39.01.79-.07,1.18-.11.09-.01.18-.05.25-.03Z"/>
    <path class="cls-2" d="m43.14,110.03c-.02.08-.04.16-.05.24l-.21-.03c-.58-.1-.97-.51-1.36-.91-.13-.13-.25-.24-.43-.28-.15-.04-.31-.14-.4-.26-.45-.53-1.06-.8-1.67-1.09-.78-.37-1.6-.42-2.43-.37-.23.02-.48.09-.68.2-.91.52-1.77,1.09-2.56,1.79-.6.53-1.24,1.05-1.99,1.41-.54.25-1.03.6-1.58.82-1.33.52-2.64.62-3.98-.01-.73-.35-1.38-.81-2.04-1.27-.7-.49-1.38-1.02-2.2-1.32s-1.63-.56-2.51-.56c-.51.01-1.01-.06-1.52-.04-.65.02-1.25.22-1.73.7-.19.18-.4.34-.6.51-.19-.27-.19-.31,0-.49.21-.21.39-.46.63-.62.33-.22.69-.46,1.06-.55.56-.13,1.14-.21,1.71-.21.44,0,.88.05,1.32.16.17.04.36.04.53.08,1.34.26,2.5.89,3.57,1.73.33.25.67.49,1.01.73.65.46,1.4.72,2.15.95.26.08.57.06.85.02.82-.11,1.63-.26,2.35-.75.3-.21.68-.3.99-.49.48-.29.96-.61,1.4-.95.56-.43,1.07-.94,1.65-1.35.63-.44,1.3-.89,2.1-.94.94-.06,1.86.05,2.73.46.81.37,1.51.87,2.09,1.56.49.58,1.11.93,1.81,1.13Z"/>
    <path class="cls-1" d="m42.63,44.65c.22.6.42,1.2.34,1.86-.11.93-.28,1.83-.9,2.56-.15.17-.31.32-.51.52-.09-.14-.16-.22-.21-.32-.2-.36-.38-.74-.6-1.09-.39-.6-.93-1.03-1.59-1.29-.67-.25-1.31-.57-2.03-.65-.5-.05-.99-.1-1.48-.12h-.16l.23-2.71c.35,0,.46-.17.57-.39.32-.62.78-1.09,1.48-1.24.38-.08.76-.16,1.14-.04,1.05.31,2.04.72,2.87,1.48.43.4.66.89.85,1.43Z"/>
    <path class="cls-1" d="m41.46,93.12c0,.08.03.17.01.26-.05.38-.1.76-.18,1.14-.09.4-.2.8-.34,1.19-.28.78-.94,1.29-1.43,1.91-.08.09-.17.17-.26.24-.32.27-.64.53-.97.78-.26.2-.52.41-.8.56-.94.49-1.95.74-2.99.85-.37.04-.74.03-1.1-.11-.95-.38-1.81-.92-2.6-1.58-.13-.12-.25-.26-.39-.36-.34-.22-.71-.39-1.02-.63-.46-.36-.97-.59-1.51-.75-.52-.17-1.06-.34-1.6-.37-.68-.03-1.28.24-1.87.54l-.18-.36c1.1-.5,2.63-1.59,3.33-2.51.57-.74,1.17-1.48,2.18-1.7.82-.06,1.57.47,2.06.97.51.54,1.55,1.63,2.51,1.62,2.78.03,2.9-1.07,3.08-1.55.21-.56.44-1.11.49-1.71.04-.6.08-1.19.09-1.79,0-.72,0-1.45-.05-2.18-.06-.86-.17-1.71-.25-2.57-.02-.24-.04-.47-.04-.71s.04-.5.04-.75c-.01-.46-.05-.92-.05-1.38,0-.49.02-.98.03-1.47.02-1.52.21-2.85.24-4.37.02-1.03.01-4.18-.02-4.55-.02-.24-.09-2.23-.3-3.03-.21-.75-.1-1.53-.25-2.29-.07-.35-.12-.7-.19-1.05-.06-.35-.14-.69-.23-1.04-.15-.6-.36-1.19-.46-1.81-.11-.66-.32-1.29-.55-1.91-.13-.37-.41-.68-.56-1.05-.17-.44-.49-.73-.84-1.01-.69-.58-1.46-.69-2.3-.46-.15.05-.31.07-.47.11-.09-.74.22-1.32.56-1.88.04-.08.11-.15.18-.19.35-.19.72-.3,1.12-.25.26.03.52.1.79.12.65.04,1.08.44,1.4.92.46.66.95,1.3,1.29,2.04.25.53.53,1.04.77,1.56.5,1.08.63,2.26.84,3.41.17,1,.21,2.01.19,3.03-.01.28.04.56.05.84v1.95c0,1.61.02,3.23-.16,4.84-.11,1.07.03,4.36.04,4.44.03.7.1.99.11,1.6,0,.4-.05.8-.04,1.2,0,1.15.03,2.3.05,3.44.01.64.02,1.28.02,1.92.01.6-.01,1.19.02,1.78.04.64.13,1.27.19,1.91.03.26.03.52.25.72.06.05.06.17.05.26,0,.8-.03,1.6-.03,2.4,0,.5-.29.89-.52,1.3-.13.23-.25.5-.45.66-.5.4-1.03.8-1.58,1.13-.49.28-1.03.47-1.62.31-.1-.02-.21-.02-.31-.04-.8-.15-1.53-.41-2.1-1.06-.54-.63-1.15-1.2-1.74-1.79-.28-.29-.66-.39-1.03-.51-.23-.07-.32.04-.32.3.28.14.58.23.79.41.46.4.92.81,1.31,1.27.59.71,1.24,1.35,2.02,1.86.27.17.55.29.88.26.47-.03.95-.04,1.42-.11.27-.04.56-.14.78-.29.48-.32.94-.68,1.39-1.06.36-.3.72-.61.96-1.04.28-.48.5-1,.51-1.55.01-.63-.1-1.27-.15-1.91-.08-.99-.2-1.98-.24-2.97-.04-1.4-.03-2.8-.04-4.2,0-1.2.02-2.4.04-3.61,0-.14.01-.29.01-.44.03-.66.11-1.32.06-1.97-.07-.85-.04-4.78-.02-6.32.01-.75.02-1.49.01-2.23-.01-.6-.06-1.19-.09-1.78l-.15-2.58c-.04-.72-.04-1.45-.13-2.17-.09-.75-.27-1.49-.42-2.22-.06-.31-.14-.61-.25-.91-.28-.77-.41-1.62-1.1-2.19-.07-.06-.1-.18-.16-.27-.37-.61-.71-1.24-1.13-1.82-.32-.43-.69-.87-1.31-.92-.19-.02-.39-.03-.57-.08-.47-.13-.94-.16-1.45.05.41-.57,1.25-1.15,1.71-1.33.1-.04.22-.07.34-.09,1.29-.13,2.45.24,3.48.98.38.27.68.63.84,1.08.05.14.13.27.19.41.42.89.7,1.82.76,2.82.04.77.15,1.53.2,2.3.06.67.08,1.34.11,2.01.03.6.03,1.21.07,1.81.06.75.15,1.49.21,2.23.04.57.07,1.15.09,1.73.06,1.39.13,2.77.16,4.16.01.3.01.97,0,1.28-.03.53,0,2.06-.12,3.74-.05.72-.12,1.6-.07,2.32.06.77-.02,1.31.04,2.08.02.3,0,.6.02.9.07.8.18,1.61.22,2.42.07,1.09.09,2.17.14,3.26.01.23.07.46.12.69.03.15.09.28.1.42.06.7.1,1.39.14,2.09Z"/>
    <path class="cls-2" d="m40.9,113.5c.26.28.42.62.4,1.01-.01.06-.03.12-.02.18.01.23.08.48-.12.67-.22.23-.51.32-.8.36-.42.05-.79-.13-1.13-.32-.34-.2-.48-1.01-.29-1.52.05.31.07.57.13.81.1.48.54.82.99.81.56-.02.89-.45.76-1-.05-.23-.14-.46-.26-.67-.21-.38-.92-.48-1.25-.18-.06.06-.12.13-.19.21-.02-.01-.04-.03-.05-.05,0-.01-.02-.02-.03-.04-.05-.06-.05-.13.03-.23.41-.52,1.37-.55,1.83-.04Z"/>
    <path class="cls-2" d="m41.28,102.49c-.06.08-.11.17-.19.22-.59.36-1.83.28-2.38-.14-.15-.11-.2-.25-.09-.45.39.14.75.27,1.11.38.37.11.73.09,1.09-.06.14-.06.3-.14.46.05Z"/>
    <path class="cls-2" d="m41.17,106.2c-.18.21-.31.18-.45.09-.24-.14-.49-.28-.72-.44-.73-.51-1.54-.65-2.41-.55-.41.05-.83.07-1.23.16-.37.09-.72.27-1.08.41-.16-.24-.16-.27.07-.4.44-.27.93-.39,1.44-.44.54-.05,1.09-.1,1.64-.1.44-.01.86.11,1.24.33.5.3.98.62,1.5.94Z"/>
    <path class="cls-1" d="m35.72,43.41l-.23,2.71c-.49,0-.98.04-1.46.18-.54.15-1.06.39-1.56.64-.38.18-.74.41-1.06.67-.63.52-1.28,1.01-1.74,1.71-.32.5-.66.99-.88,1.54-.1.25-.22.5-.26.75-.03.25-.14.38-.34.48-.6.3-1.13.7-1.68,1.09-.56.4-1.03.9-1.51,1.38-.12.12-.24.25-.35.38l-2.71-1.03c.11-.03.2-.1.33-.17-.14-.25-.24-.43-.34-.61-.33-.56-.5-1.18-.62-1.81-.06-.28,0-.59-.04-.89-.1-.72.11-1.38.34-2.04.26-.73.75-1.32,1.34-1.81.39-.33.83-.62,1.27-.89.4-.24.87-.39,1.32-.32.53.08,1.08.23,1.48.66.25.26.55.4.92.39.33-.01.44-.09.44-.43,0-.48.03-.95.15-1.41.25-1.01.59-1.98,1.35-2.72.5-.5,1.08-.83,1.86-.84.92-.01,1.76.19,2.57.58.15.08.27.23.38.36.3.41.59.83.88,1.24.06.08.13.17.15.21Z"/>
    <path class="cls-1" d="m34.02,73.94c0,.12-.01.25-.07.34-.58.84-1.26,1.58-2.11,2.15-.35.23-.76.38-1.23.27-.39-.09-.81-.04-1.19-.15-.97-.26-1.63-.88-2.1-1.78-.22-.42-.39-.84-.49-1.3-.12-.54-.07-1.06.1-1.58.04-.12.14-.24-.04-.39-.08.04-.21.06-.28.14-.58.6-1.31.85-2.12.93-.29.03-.59.06-.88.08-.78.04-1.46-.2-2.07-.68-.33-.26-.71-.49-1.01-.79-.52-.54-1.09-1.12-1.02-1.95.04-.55.22-1.1.39-1.64.09-.31.28-.59.46-.86.11-.17.26-.32.42-.44.27-.21.31-.36.07-.62-.21-.23-.44-.44-.71-.59-.45-.25-.73-.66-.99-1.06-.63-.98-1.29-1.96-1.46-3.16-.03-.22-.17-.42-.22-.63-.23-.91-.14-1.8.16-2.67.37-1.03.95-1.92,1.78-2.63.5-.43,1.05-.74,1.7-.85.28-.04.56-.1.83-.17l2.71,1.03c-.34.38-.65.79-.92,1.23-.2.34-.37.71-.53,1.08-.19.46-.45.9-.53,1.41-.04.28-.11.56-.12.83-.03.93-.06,1.85.19,2.75.02.08.06.15.05.22-.03.84.38,1.49.85,2.15.43.6,1,1,1.62,1.35.24.14.5.25.8.23.12-.01.25.05.33.07.36.74.69,1.44,1.26,1.98.65.61,1.44.95,2.34,1.09.65.1,1.26.08,1.85-.23.05-.02.12-.05.17-.03.44.16.91.3,1.1.82.04.1.11.2.16.31.12.25.26.5.34.76.31.97.35,1.98.41,2.98Z"/>
    <path class="cls-1" d="m30.61,66.29c.28.43.67.8,1.06,1.14.23.21.55.31.86.47-.07.72-.67.97-1.27,1.19-.16.06-.36.01-.53-.02-.41-.06-.82-.11-1.23-.21-.53-.12-.96-.45-1.34-.83-.56-.55-1-1.18-1.22-1.94-.03-.11-.02-.22-.03-.33,0-.1,0-.21-.05-.3-.33-.69-.44-1.42-.44-2.17-.01-.25-.02-.5,0-.75.03-.49.07-.97.13-1.46.1-.79.29-1.57.55-2.33.16-.48.32-.97.71-1.36.29-.29.5-.66.74-1,.15-.2.32-.35.64-.37-.05.24-.09.45-.13.67-.14.63-.28,1.27-.41,1.91-.05.26-.11.53-.1.79.03.68.01,1.37.22,2.03.07.21.09.44.14.65"/>
    <path class="cls-2" d="m30.89,105.13c.21.15.4.29.58.43-.08.33-.37.41-.59.52-.79.4-1.61.55-2.5.37-.54-.1-.94-.43-1.34-.74-.41-.32-.75-.72-1.1-1.1-.09-.09-.09-.26-.09-.41.32.14.56.37.78.62.32.36.68.65,1.07.93.75.53,1.55.5,2.37.28.1-.02.2-.07.29-.11q.42-.16.43-.62s.04-.08.1-.17Z"/>
    <path class="cls-2" d="m26.67,98.84c.13.03.26.07.38.11,0,.28-.03.32-.26.3-.08,0-.17-.01-.25-.01h-.01c-.64-.03-1.26.01-1.9.1-.72.1-1.36.42-2.01.7-.74.31-1.49.34-2.25.14-.17-.05-.34-.13-.5-.21-.19-.09-.25-.23-.12-.45.23.08.47.15.7.23.72.24,1.42.21,2.12-.13,1.22-.58,2.51-.86,3.88-.79.07,0,.15,0,.22.01Z"/>
    <path class="cls-2" d="m25.27,106.42c.16.05.28.11.19.33-.46.04-.83-.2-1.21-.37-.25-.1-.47-.26-.68-.42-.94-.69-1.99-.89-3.12-.76-.44.06-.79.33-1.14.59-.08.06-.15.12-.24.19-.15-.16-.16-.3,0-.44.37-.38.82-.64,1.35-.72.11-.02.21-.03.32-.04h0s.02-.01.03-.01c.99-.08,1.9.2,2.75.72.57.36,1.12.72,1.76.93Z"/>
    <path class="cls-2" d="m22.7,97.77c0,.26-.11.37-.32.35-.64-.07-1.23.12-1.82.32-.18.06-.36.13-.54.21-.19.09-.37.18-.55.29-.64.39-1.33.66-2.04.86-.3.08-.66.03-.96-.07-.57-.18-1-.56-1.26-1.12-.08-.17-.07-.31.05-.45.19,0,.22.17.3.28.37.53.82.95,1.51.95.25.01.51-.04.73-.15.55-.26,1.12-.45,1.64-.79.65-.44,1.45-.6,2.22-.74.08-.01.16-.02.24-.02.26,0,.53.06.8.08Z"/>
    <g>
      <path class="cls-2" d="m85.23,53.61c0-.14.03-.16.24-.16-.02.06-.04.12-.06.16-.06.1-.11-.04-.17,0m-3.46-.73s.08-.08.11-.13c.04-.07.06-.07.11,0,.03.03.04.07.07.11-.1-.03-.18.16-.29.03m2.47.67c.04-.07.07-.15.12-.18.05-.03.12.03.13.08,0,.05-.04.12-.08.15-.03.02-.1-.02-.17-.05m.5-1.45c-.07.02-.13.03-.18.05-.05.02-.15,0-.15-.06,0-.03.02-.1.04-.1.1,0,.2,0,.29.12m-2.67.27c.08-.04.14-.08.22-.1.1-.02.1.09.13.15-.08.06-.27.04-.35-.05m4.56.68c.01-.08-.12-.15,0-.22.05-.03.14-.04.18.05.1.21-.08.14-.17.17m-2.38,1.31s-.01-.07,0-.1l.07-.07.09-.03s.08.03.1.06v.09c-.09.03-.16.11-.26.05m-2.27-1.38c.07-.01.12-.03.16-.03.05,0,.11.02.13.05.03.04.02.1.02.15l-.05.02c-.07-.05-.14-.1-.2-.15-.01-.01-.03-.02-.07-.06m3.27-.21l-.03-.03c.05,0,.1-.02.15-.01l.07.03v.1c-.03.05-.06.11-.13.11l-.05.03-.03-.08c0-.05,0-.1.01-.15m-.52,1.17c-.07.04-.13.09-.19.12-.07.03-.13-.03-.11-.1.02-.07.05-.15.14-.15.07,0,.12.03.16.13m.5-.65l.04-.07c.06-.05.12-.14.23-.08.07.04.09.07.05.14-.03.04-.22.08-.26.06l-.05-.05Zm-.37-1.16v-.03s.06,0,.09,0c.05.01.11.02.1.09,0,.05-.02.1-.04.15l-.03.02c-.06,0-.11,0-.17-.01l-.08-.03.07-.1s.04-.07.06-.1m-2.04,2.3s.06.02.09.04c.06.03.1.08.07.15-.02.03-.07.04-.11.06h-.05c-.07.07-.1-.01-.15-.04l.02-.12s.08-.06.13-.09m2.27-1.63c-.07.01-.14.03-.2.03-.05,0-.12-.02-.13-.08,0-.05.03-.11.06-.15.03-.03.09-.04.14-.04l.07.06c.08.04.02.12.06.18m-.45.05c.09.15.07.3-.06.44l-.07-.07c-.02-.09-.02-.19-.03-.28-.02-.09,0-.11.08-.09h.08Zm1.56-.36v-.03s-.07-.08-.07-.08c-.08-.05-.11-.11-.06-.15.05-.04.11-.07.17-.08.03,0,.09.02.11.05.05.08-.06.28-.15.29m-1.93.13c.05-.08.16-.12.11-.25.07,0,.14-.02.18,0,.04.02.08.09.09.14,0,.03-.03.1-.11.09-.03,0-.08,0-.1.03-.07.08-.11,0-.17-.02m2.25-.01c.02-.16-.11-.31-.02-.46.14-.01.21.08.23.2.03.16-.1.21-.21.27m-2.39,1.46v-.03c-.07.04-.12.02-.14-.04-.01-.03,0-.07,0-.11,0-.09.03-.16.12-.2.08-.04.16,0,.19.1.02.07-.03.09-.05.13-.03.05-.08.1-.12.15m-1.01-.32c.08.1.07.18,0,.25-.07.05-.15.09-.23.14-.02-.14-.04-.26-.07-.38.11,0,.21,0,.3-.01m1.83-.34c-.11.02-.19-.03-.16-.07.03-.06,0-.09-.01-.13-.03-.09.06-.23.14-.23.1,0,.18.13.13.23-.02.05-.04.09-.07.14l-.04.05Zm-3.12-.86c-.03.1-.06.2-.1.3l-.07.03c-.09,0-.18-.02-.27-.04-.02-.11.06-.16.14-.22.09-.06.18-.1.3-.07m4.02.89c-.09.02-.14,0-.13-.09,0-.04.01-.08.01-.12,0-.12.18-.19.26-.12.04.03.06.07.1.11.05.05,0,.11-.02.13-.08.05-.16.07-.23.1m-3.74-.69s-.1-.06-.15-.09v-.07c.08-.09.2-.11.32-.05l.08.07c.08.09,0,.17,0,.23-.08,0-.15,0-.23,0,0-.02,0-.06-.01-.1m1.91.31c.01-.07.03-.15.05-.23l.06-.08c.08-.04.13,0,.18.06.09.11.1.21,0,.3l-.09.02c-.07-.02-.14-.05-.21-.07m-1.58-.08s.13-.03.17,0c.07.05.11.14.11.25,0,.09-.06.13-.1.18l-.09.02c-.06-.04-.1-.09-.15-.14v-.06c.02-.07.04-.14.06-.24m1.73.37c-.11.15-.26.15-.44.12.01-.06.03-.11.04-.17.04-.16.07-.19.21-.2.06,0,.19.09.19.14,0,.04,0,.08,0,.1m1.41-.96c-.07.05-.13.1-.2.13-.06.03-.13.04-.2.05-.03,0-.06-.02-.02-.06.07-.09.07-.18.01-.28v-.05c.1-.04.2-.06.3-.02.11.05.12.14.12.23m-1.79-.37q0,.12-.06.18c-.06.06-.24.1-.28.05-.08-.1-.19-.11-.31-.14l.06-.08c.1-.03.2-.06.3-.07.06,0,.13-.06.2,0,.03.02.06.04.09.06m-.12,1.91l-.09-.03s-.08-.05-.12-.07c-.07-.03-.07-.06-.02-.11l.02-.06.03-.06c.1-.08.2-.09.32-.03.11.06.13.19.04.27-.05.04-.11.06-.18.1m2.68-.78c-.15-.05-.29-.1-.44-.15.04-.1.07-.19.1-.28.03-.07.14-.1.21-.08.08.03.19.21.18.32,0,.06-.03.13-.05.19m-.69-.24c-.02-.07-.03-.13-.06-.19-.04-.07-.03-.13.01-.19.04-.05.07-.11.09-.17.02-.07.06-.07.12-.07.07,0,.08.08.12.11.08.06.05.12.02.19-.06.16-.17.25-.31.31m-2.92-.37l.06.03s.12,0,.15.03c.06.08.18.12.17.26,0,.07-.03.12-.09.13-.06,0-.12.06-.19,0-.05-.04-.12-.06-.18-.08-.1-.04-.05-.12-.07-.19-.02-.07,0-.1.07-.12l.08-.06Zm1.12-.13c.02-.09.05-.18.07-.27.01-.04.01-.09.03-.12.05-.08.13-.09.21-.08l.08.07c.07.04.07.12.08.18.01.07.04.17-.04.21-.07.04-.14.07-.22.07s-.15-.05-.21-.07m.01.05c.04.08.07.14.1.21.02.05.03.11.01.15-.05.11-.29.13-.38.05-.03-.02-.06-.04-.12-.07,0,0,0-.04,0-.07,0-.08,0-.16.02-.24l.06-.07s.07-.01.11,0c.07.01.14.03.2.05m.97,1.65s.04-.09.05-.14c.02-.1-.06-.22-.16-.24-.06-.01-.09-.06-.06-.12.04-.1.16-.17.27-.15.1.02.19.09.22.18.03.12.04.25-.06.35-.03.03-.06.07-.09.1-.05.06-.1.07-.16,0m-1.51-.25c.07-.02.08,0,.22.1.09.07.08.17.05.21-.06.1-.16.19-.28.2-.07,0-.14-.01-.21-.02-.08,0-.15-.02-.23-.03.03-.05.05-.09.09-.12.06-.05.14-.08.2-.14.05-.05.09-.12.16-.2m.54.2c.05.02.08.03.12.05.12.04.1.15.1.24,0,.06-.03.16-.07.17-.13.04-.23.14-.36.15-.11.01-.22.05-.33.07l-.09-.03s-.02-.1,0-.12c.07-.06.14-.1.22-.14.12-.06.25-.09.31-.24.02-.05.06-.1.1-.16m-.51-1.66s0,.05,0,.09c-.02.1-.12.17-.19.14-.14-.06-.27-.12-.43-.13l-.05-.04c-.05-.07-.1-.13-.14-.21v-.08c.05-.07.24-.08.33-.04l.08.03c.07.01.14,0,.21.03.12.03.18.1.19.21m4.23-.77v.04c-.05.02-.1.06-.16.07-.09.02-.2.13-.21.21,0,.05,0,.1-.03.14-.02.05-.02.08.03.11.08.07.11.17.12.27,0,.1,0,.21,0,.31l.05.06c.06.02.12.02.18.03.08,0,.16.02.24.01.06,0,.09.03.08.07,0,.02-.06.05-.1.05-.15,0-.3-.03-.45-.04-.08,0-.17.02-.23-.01-.11-.06-.2-.16-.31-.24-.05-.04-.04-.06-.02-.1.03-.06.06-.12.06-.18,0-.1,0-.2-.09-.28-.08-.07-.06-.13.03-.18l.04-.05c.08-.08.15-.18.24-.22.11-.05.24-.07.36-.09.04,0,.09.02.14.02m-4.79,2.45s0,.08,0,.1c-.03.07,0,.18-.13.15l-.05.05s-.05.1-.08.15c-.04.08-.15.14-.22.09-.07-.06-.14-.05-.21-.04l-.09.03c-.15.02-.31,0-.46-.04-.11-.03-.23-.05-.34-.1-.12-.04-.23-.12-.35-.15-.12-.03-.22-.1-.31-.18-.05-.04-.09-.13-.09-.19,0-.08.06-.15.07-.23.03-.15.11-.26.19-.37.09-.11.18-.22.28-.32.04-.04.11-.07.17-.07.09,0,.19.04.28.05.04,0,.08-.01.11,0,.11.04.22.09.33.14.09.04.19.06.26.12.18.17.38.34.49.58.02.03.03.07.05.1.03.05.06.1.09.14m.3-.87c-.02-.07.01-.12.05-.17.05-.06.1-.14.16-.16.07-.02.16,0,.23.02.12.04.19.25.09.36-.1.11-.16.11-.3.05-.08-.03-.13-.12-.23-.1l.02.07c.06,0,.09.06.14.09.08.07.09.18.02.25l-.05.05-.07-.03c-.12,0-.24.02-.36-.01-.05-.01-.12,0-.13-.05l.06-.12c.07-.05.12-.11.15-.19l.02-.02c.07-.02.15-.03.22-.04m1.69,1.25c.3-.2.41-.32.48-.36,0,0,.24-.23.36-.31.19-.13.32-.33.54-.4.1-.03.17-.13.3-.13.07,0,.12-.07.19-.1.07-.02.17,0,.23-.05.09-.05.19,0,.28-.06.06-.04.16,0,.25.01.04,0,.08,0,.13,0,.06,0,.12,0,.18.03.06.03.1.02.15-.01.05-.04.11-.07.16-.1.06-.04.05-.09,0-.15-.09-.1-.19-.09-.3-.08-.08,0-.15,0-.23,0,.15-.04.3-.08.46-.12,0-.03,0-.06.01-.09-.2-.03-.37.12-.57.11v-.03c.1-.02.2-.04.31-.06.05-.01.1-.03.14-.06.02-.02.02-.07.03-.12-.17.05-.32.1-.46.14v-.04c.12-.04.25-.07.38-.12.03-.01.06-.05.07-.08l-.05-.06c-.12.04-.23.08-.34.12h-.07s0-.02,0-.02c.08-.02.15-.05.23-.06.12-.02.2-.11.16-.22-.14.07-.29.13-.43.2v-.03c.13-.07.27-.14.41-.21-.03-.05-.05-.09-.08-.15-.02.01-.05.03-.09.05h-.05s.01-.04.01-.04c.04-.02.09-.03.15-.05-.02-.04-.04-.09-.05-.14v-.08c.04-.09.01-.14-.07-.14-.08,0-.15.01-.23.06-.05.04-.13.04-.2.05-.04,0-.08,0-.12,0-.06.03-.12.06-.16.11-.07.08-.17.1-.26.15-.06.03-.12.08-.19.11-.07.03-.14.05-.21.08-.07.04-.15,0-.22,0-.19.03-.38,0-.57.01-.08,0-.16-.07-.25-.1-.08-.03-.16-.05-.24-.07-.08-.02-.15-.05-.23-.07-.1-.02-.2-.05-.31-.06-.13-.01-.26-.03-.39-.07h-.06c-.15,0-.29,0-.43.03-.12.02-.23.07-.35.07-.13,0-.24.06-.35.13-.09.05-.2.05-.3.08l-.07.03c-.06.02-.44.23-.49.23l-.07.04c-.15.07-.29.13-.44.2-.05.03-.1.07-.14.1-.09.05-.18.1-.26.16-.15.1-.26.24-.37.39-.06.07-.13.14-.16.23-.04.11-.11.2-.17.3-.04.07-.05.15-.07.23-.05.19-.05.19.11.3.06.04.13.07.19.11.14.08.28.13.44.17.11.02.21.08.31.12.08.03.17.06.26.08.15.04.31.08.47.1.08,0,.14.05.21.08.05.03.12,0,.19,0,.06,0,.13,0,.19-.01h.05c.12.06.24.01.36.02.16,0,.32,0,.48,0,.05,0,.09-.04.14-.05.2-.03.39-.05.58-.13.03-.01.25-.03.53-.21"/>
      <path class="cls-1" d="m81.12,53.97h-.04c-.08,0-.16-.03-.23-.06-.11-.05-.12-.13-.05-.22.03-.04.07-.07.11-.1.06-.05.12-.11.19-.13.13-.03.27-.04.4-.05.1,0,.19.04.28.1.07.05.17.04.25.1.05.04.06.07,0,.11-.03.02-.07.04-.11.06-.08.04-.15.09-.24.12-.07.03-.16.02-.23.05-.07.03-.13.03-.18-.01-.05-.04-.08-.1-.11-.15-.02-.03-.04-.07-.06-.1l-.09.06-.04.05v.04c.02.06.05.13.14.13m1.67.1s-.06-.09-.09-.14c-.02-.03-.04-.07-.05-.1-.11-.24-.31-.4-.49-.58-.07-.06-.17-.09-.26-.12-.11-.05-.22-.1-.33-.14-.03-.01-.07,0-.11,0-.1-.02-.19-.05-.28-.05-.06,0-.13.03-.17.07-.1.1-.19.21-.28.32-.09.11-.17.22-.19.37-.01.08-.07.15-.07.23,0,.06.04.15.09.19.09.08.19.15.31.18.12.03.23.11.35.15.11.04.23.07.34.1.15.04.3.06.46.04l.09-.03c.07,0,.14-.02.21.04.07.05.17,0,.22-.08.03-.05.05-.1.08-.15l.05-.05c.12.02.11-.09.13-.15,0-.02,0-.05,0-.1"/>
      <path class="cls-1" d="m87.58,51.63s-.09-.03-.14-.02c-.12.02-.25.03-.36.09-.09.05-.16.14-.24.22l-.04.05c-.09.05-.11.11-.03.18.09.08.1.18.09.28,0,.06-.04.12-.06.18-.02.04-.03.07.02.1.1.08.2.18.31.24.06.03.15,0,.23.01.15.01.3.03.45.04.03,0,.09-.03.1-.05,0-.05-.02-.08-.08-.07-.08,0-.16,0-.24-.01-.06,0-.12-.01-.18-.03l-.05-.06c0-.1,0-.21,0-.31,0-.11-.04-.21-.12-.27-.04-.03-.05-.06-.03-.11.02-.04.02-.09.03-.14,0-.08.12-.19.21-.21.06-.01.11-.05.16-.07v-.04Z"/>
      <path class="cls-1" d="m83.34,52.39c-.01-.11-.08-.18-.19-.21-.07-.02-.14-.01-.21-.03l-.08-.03c-.09-.04-.29-.03-.34.04v.08c.05.07.1.14.15.21l.05.04c.15,0,.29.07.43.13.07.03.17-.04.19-.14,0-.04,0-.08,0-.09"/>
      <path class="cls-1" d="m83.86,54.06c-.04.06-.07.1-.1.16-.06.15-.19.19-.31.24-.08.04-.16.08-.22.14-.02.02-.01.08,0,.12l.09.03c.11-.02.22-.06.33-.07.14-.01.23-.12.36-.15.04,0,.07-.11.07-.17,0-.09.02-.2-.1-.24-.03-.01-.07-.03-.12-.05"/>
      <path class="cls-1" d="m83.31,53.85c-.07.09-.11.15-.16.2-.06.05-.13.09-.2.14-.03.03-.05.07-.09.12.08.01.16.02.23.03.07,0,.14.03.21.02.12-.01.22-.1.28-.2.03-.04.04-.15-.06-.21-.14-.1-.15-.12-.22-.1"/>
      <path class="cls-1" d="m84.82,54.1c.07.07.11.05.16,0,.03-.03.06-.07.09-.1.1-.1.09-.23.06-.35-.03-.1-.11-.17-.22-.18-.12-.02-.23.04-.27.15-.02.06,0,.11.06.12.1.02.18.14.16.24-.01.05-.03.09-.05.14"/>
      <path class="cls-1" d="m83.09,53.21c-.07.01-.15.03-.22.04l-.02.02c-.03.08-.09.14-.15.19l-.06.12c.02.05.08.04.13.05.12.04.24,0,.36.01l.07.03.05-.05c.07-.07.06-.19-.02-.25-.04-.04-.07-.08-.14-.09l-.02-.07h0Z"/>
      <path class="cls-1" d="m83.09,53.21c.09-.01.15.07.23.1.14.06.2.05.3-.05.1-.11.03-.32-.09-.36-.07-.02-.16-.04-.23-.02-.07.02-.12.1-.16.16-.03.05-.07.1-.05.17h0Z"/>
      <path class="cls-1" d="m83.86,52.46c-.06-.01-.13-.03-.2-.05-.04,0-.08,0-.11,0l-.06.07c-.01.08-.01.16-.02.24,0,.03,0,.07,0,.07.05.03.09.04.12.07.09.08.33.05.38-.05.02-.04,0-.1-.01-.15-.02-.07-.06-.13-.1-.21"/>
      <path class="cls-1" d="m83.85,52.4c.07.02.14.07.21.07.07,0,.15-.03.22-.07.08-.05.05-.14.04-.21-.01-.06-.02-.14-.08-.18l-.08-.07c-.08-.01-.16,0-.21.08-.02.04-.02.08-.03.12-.02.09-.04.17-.07.27"/>
      <path class="cls-1" d="m82.73,52.53l-.08.06c-.06.02-.08.05-.07.12.02.07-.03.15.07.19.06.02.13.04.18.08.07.06.13,0,.19,0,.06,0,.08-.06.09-.13.01-.14-.11-.18-.17-.26-.02-.03-.1-.02-.15-.03l-.06-.03Z"/>
      <path class="cls-1" d="m85.65,52.9c.14-.06.25-.16.31-.31.03-.07.06-.13-.02-.19-.04-.03-.04-.11-.12-.11-.06,0-.1,0-.12.07-.02.06-.05.12-.09.17-.05.06-.06.12-.01.19.03.05.04.12.06.19"/>
      <path class="cls-1" d="m86.34,53.13c.02-.06.04-.12.05-.19.01-.1-.1-.29-.18-.32-.07-.02-.18.01-.21.08-.04.09-.07.18-.1.28.15.05.29.1.44.15"/>
      <path class="cls-1" d="m83.67,53.91c.07-.04.13-.06.18-.1.09-.07.07-.21-.04-.27-.11-.06-.22-.05-.32.03l-.03.06-.02.06c-.05.05-.05.08.02.11.04.02.08.05.12.07l.09.03Z"/>
      <path class="cls-1" d="m83.79,52.01s-.07-.04-.09-.06c-.07-.05-.13,0-.2,0-.1,0-.2.04-.3.07l-.06.08c.13.03.24.03.31.14.04.05.22.01.28-.05q.06-.06.06-.18"/>
      <path class="cls-1" d="m85.58,52.38c0-.09-.01-.18-.12-.23-.1-.04-.19-.02-.28.02v.05c.04.1.05.19-.03.28-.03.04,0,.06.02.06.07,0,.14-.02.2-.05.07-.03.13-.08.2-.13"/>
      <path class="cls-1" d="m84.17,53.34s0-.06,0-.1c0-.05-.13-.15-.19-.14-.15.01-.18.03-.21.2-.01.06-.03.11-.04.17.18.03.33.03.44-.12"/>
      <path class="cls-1" d="m82.43,52.96c-.02.09-.04.17-.06.24v.06c.04.05.09.1.14.14l.09-.02s.11-.09.1-.18c0-.1-.04-.19-.11-.24-.04-.03-.12,0-.17,0"/>
      <path class="cls-1" d="m84.02,53.04c.07.03.14.06.21.07l.09-.02c.1-.09.09-.19,0-.3-.05-.07-.11-.1-.18-.06l-.06.08c-.02.08-.04.17-.05.23"/>
      <path class="cls-1" d="m82.11,52.73s0,.08,0,.1c.08,0,.15,0,.23,0,.02-.06.08-.14,0-.23l-.08-.07c-.12-.06-.24-.04-.32.05v.07s.1.06.15.09"/>
      <path class="cls-1" d="m85.84,53.43c.07-.03.15-.06.23-.1.02-.01.07-.07.02-.13-.03-.03-.06-.08-.1-.11-.08-.07-.25,0-.26.12,0,.04,0,.08-.01.12,0,.09.04.11.13.09"/>
      <path class="cls-1" d="m81.82,52.54c-.12-.03-.22.01-.3.07-.08.06-.16.1-.14.22.09.01.18.03.27.04l.07-.03c.04-.09.06-.19.1-.3"/>
      <path class="cls-1" d="m84.95,53.4l.04-.05s.05-.09.07-.14c.04-.1-.04-.23-.13-.23-.08,0-.18.14-.14.23.02.04.05.07.01.13-.03.05.05.09.16.07"/>
      <path class="cls-1" d="m83.12,53.74c-.09,0-.19,0-.3.01.02.12.04.24.07.38.08-.05.16-.09.23-.14.08-.06.09-.15,0-.25"/>
      <path class="cls-1" d="m84.13,54.05s.09-.09.12-.15c.02-.04.08-.06.05-.13-.03-.1-.1-.14-.19-.1-.09.04-.11.11-.12.2,0,.04-.01.08,0,.11.02.06.06.08.12.04v.03Z"/>
      <path class="cls-1" d="m86.52,52.59c.11-.06.24-.11.21-.27-.02-.12-.09-.21-.23-.2-.09.16.03.31.02.46"/>
      <path class="cls-1" d="m84.27,52.6c.06.02.1.11.17.02.02-.02.07-.04.1-.03.07,0,.11-.07.11-.09,0-.05-.05-.12-.09-.14-.05-.02-.11,0-.18,0,.05.13-.06.17-.11.25"/>
      <path class="cls-1" d="m86.2,52.47c.09,0,.21-.21.15-.29-.02-.03-.08-.06-.11-.05-.06.01-.12.04-.17.08-.05.04-.03.1.06.15l.08.08v.03Z"/>
      <path class="cls-1" d="m84.63,52.83h-.08c-.08-.02-.09,0-.08.09.02.09.01.19.03.28l.07.07c.13-.14.14-.28.06-.44"/>
      <path class="cls-1" d="m85.08,52.79c-.03-.06.02-.13-.06-.18l-.07-.06s-.1.01-.14.04c-.04.04-.07.1-.06.15,0,.06.08.08.13.08.06,0,.13-.02.2-.03"/>
      <path class="cls-1" d="m82.82,54.42s-.1.05-.13.09l-.02.12s.08.11.15.04h.05s.09-.03.11-.06c.03-.06,0-.12-.07-.15-.03-.02-.06-.02-.09-.04"/>
      <path class="cls-1" d="m84.86,52.12s-.04.07-.06.1l-.07.1.08.03c.06,0,.11.01.17.01l.03-.02s.04-.1.04-.15c0-.07-.05-.08-.1-.09-.03,0-.07,0-.1,0v.03Z"/>
      <path class="cls-1" d="m85.23,53.28l.05.05s.23-.02.26-.06c.05-.07.03-.1-.05-.14-.11-.06-.16.02-.23.08l-.04.07Z"/>
      <path class="cls-1" d="m84.73,53.93c-.03-.09-.09-.13-.16-.13-.09,0-.12.08-.14.15-.02.07.04.13.11.1.07-.03.13-.08.19-.12"/>
      <path class="cls-1" d="m85.24,52.76c0,.05-.02.1-.01.15l.03.08.05-.03c.07,0,.1-.06.13-.11v-.1s-.07-.03-.07-.03c-.05,0-.1,0-.15.01l.03.03Z"/>
      <path class="cls-1" d="m81.98,52.97s.06.05.07.06c.07.05.13.1.2.15l.05-.02c0-.05,0-.12-.02-.15-.02-.03-.09-.05-.13-.05-.05,0-.1.01-.16.03"/>
      <path class="cls-1" d="m84.24,54.35c.1.06.17-.02.25-.05v-.09s-.05-.05-.09-.06l-.09.03-.07.07s0,.06,0,.1"/>
      <path class="cls-1" d="m86.62,53.05c.09-.04.27.03.17-.17-.04-.09-.13-.07-.18-.05-.12.07.02.14,0,.22"/>
      <path class="cls-1" d="m82.07,52.37c.08.09.26.1.35.05-.03-.06-.03-.17-.13-.15-.07.02-.14.06-.22.1"/>
      <path class="cls-1" d="m84.74,52.1c-.09-.12-.19-.12-.29-.12-.02,0-.04.07-.04.1,0,.05.1.08.15.06.05-.02.11-.03.18-.05"/>
      <path class="cls-1" d="m84.24,53.55c.07.02.14.06.17.05.04-.03.08-.1.08-.15,0-.05-.07-.12-.13-.08-.05.03-.07.11-.12.18"/>
      <path class="cls-1" d="m81.77,52.88c.11.13.19-.05.29-.03-.02-.04-.04-.08-.07-.11-.05-.07-.07-.06-.11,0-.03.05-.07.09-.11.13"/>
      <path class="cls-1" d="m85.23,53.61c.06-.03.11.1.17,0,.03-.05.04-.1.06-.16-.21,0-.23.01-.24.16"/>
      <path class="cls-2" d="m81.77,53.66l.03.09q-.08.06-.2-.12c.06.01.11.02.17.03m-.65.31c-.09,0-.12-.07-.15-.13v-.04s.06-.05.06-.05l.09-.06s.04.07.06.1c.04.05.07.11.11.15.05.05.11.04.18.01.07-.03.16-.02.23-.05.08-.03.16-.08.24-.12.04-.02.08-.03.11-.06.05-.03.04-.07,0-.11-.08-.06-.18-.05-.25-.1-.09-.06-.18-.1-.28-.1-.13,0-.27.01-.4.05-.07.02-.13.08-.19.13-.04.03-.08.06-.11.1-.07.09-.05.17.05.22.07.03.15.05.23.07h.04Z"/>
      <path class="cls-1" d="m81.77,53.66c-.06-.01-.11-.02-.17-.03q.12.17.2.12l-.03-.09Z"/>
    </g>
  </g>
</svg>