<?xml version="1.0" encoding="UTF-8"?>
<svg xmlns="http://www.w3.org/2000/svg" viewBox="0 0 136.06 136.06">
  <defs>
    <style>
      .cls-1 {
        fill: #fff;
      }

      .cls-2 {
        fill: #f2d06c;
      }

      .cls-3 {
        fill: #0c3454;
      }

      .cls-4 {
        fill: #bac2d7;
      }

      .cls-5 {
        fill: #a7483f;
        opacity: .8;
      }

      .cls-6 {
        fill: #d9c6b8;
      }
    </style>
  </defs>
  <g id="poni_01">
    <rect class="cls-4" x="14.17" y="12.76" width="107.72" height="110.55" fill="none" stroke="#0c3454" stroke-width="0.25"/>
  </g>
  <g id="Layer_1" data-name="Layer 1">
    <path class="cls-3" d="m14.19,114.19c12.57.03,25.17-.21,37.65-.32,5.79.01,11.54.07,17.29-.03,5.75-.13,11.61-.24,17.38-.07,11.77.46,23.57.65,35.36.72,0,.2-.02.41-.04.61,0,.08-.02.15-.03.23-7.47,0-14.93-.05-22.38-.12-7.21-.16-14.38-.56-21.59-.44-11.64.36-23.03.22-34.6.47-9.68.26-19.47.39-29.26.34.09-.46.17-.93.23-1.39Z"/>
    <g id="_6gP2W3" data-name="6gP2W3">
      <g>
        <path class="cls-1" d="m80.92,73.19s-.06,0-.1,0c-.05-.44-.13-.87-.15-1.31-.01-.27.08-.54.09-.81.01-.7,0-1.41,0-2.11,0-.21-.04-.43-.06-.64-.05-.58-.09-1.17-.14-1.75,0-.13-.01-.25-.03-.38-.06-.43-.12-.86-.17-1.29-.05-.34-.09-.68-.13-1.03-.07-.54-.14-1.07-.22-1.61-.06-.42-.12-.84-.19-1.26-.1-.66-.21-1.33-.31-1.99-.09-.59-.18-1.18-.26-1.77-.07-.45-.13-.91-.19-1.36-.08-.58-.14-1.16-.23-1.73-.09-.54-.2-1.07-.32-1.61-.08-.37-.14-.75-.28-1.09-.21-.5-.36-.99-.37-1.53,0-.45-.07-.89-.44-1.21-.13-.11-.27-.2-.42-.28-.45-.24-.9-.47-1.35-.7-.22-.11-.45-.2-.67-.29-.06-.02-.14,0-.22,0-.07,0-.15.04-.21.03-.32-.06-.63-.15-.95-.2-.77-.13-1.55-.3-2.34-.19-.53.07-1.07.05-1.56.29-.18.09-.37.18-.57.19-.47.04-.94.03-1.41.07-.45.04-.9.1-1.34.18-.22.04-.44.12-.64.22-.49.24-1.01.44-1.32.93-.06.1-.11.22-.19.28-.3.24-.46.56-.6.89-.32.74-.62,1.49-.92,2.24-.18.45-.35.91-.51,1.37-.17.47-.34.95-.47,1.43-.12.47-.16.95-.28,1.42-.15.58-.36,1.15-.52,1.73-.21.75-.39,1.51-.6,2.27-.13.47-.28.93-.41,1.41-.13.51-.24,1.02-.35,1.53-.21.93-.43,1.86-.64,2.79-.09.39-.18.79-.2,1.19-.04.77-.04,1.55-.06,2.32-.02.77-.03,1.55-.05,2.32,0,.04,0,.08,0,.12-.06.52-.13,1.04-.19,1.56-.04.42-.07.84-.1,1.26-.01.16,0,.32,0,.48,0,.37-.02.75-.04,1.12-.03.58-.09,1.16-.11,1.73-.01.3.03.6.04.89.01.3,0,.6.02.9.05.72.14,1.43.17,2.15.04.92.03,1.85.06,2.77.01.38.06.76.11,1.13.06.47.14.94.18,1.42.06.6.1,1.21.16,1.87.5.05.97.12,1.44.15.43.02.87,0,1.31,0,.17,0,.23.06.21.22-.04.29-.09.57-.09.86,0,.56.04,1.11.04,1.67,0,.62,0,1.24,0,1.86,0,.07,0,.15,0,.22.03.43.07.86.09,1.29.02.39,0,.79,0,1.18,0,.14.05.25.21.23.21-.02.43-.09.62-.04.43.11.86,0,1.29.04.47.03.51.04.57.37.01.06-.01.13-.02.19-.02.28-.1.57-.05.84.07.37-.04.66-.3.85-.34.24-.73.43-1.11.61-.29.13-.62.2-.93.31-.29.1-.49.28-.54.6-.04.29.14.44.35.58.05.04.1.08.15.12-.02,0-.05.01-.07.02.04.17.03.39.13.5.12.12.34.12.51.17,0,0-.01.01-.03.02-.34.09-.32.4-.38.65-.03.11.06.22.23.26.43.1.81-.11,1.17-.23.7-.25,1.37-.62,2.03-.98.59-.32.91-.86.96-1.51.09-1.08.11-2.16.17-3.23,0-.02.02-.04.02-.05.32-.04.63-.1.94-.11.49-.02.97,0,1.46,0,.22,0,.44-.03.65.01.28.06.49-.03.56-.32.26.02.53.06.79.04.2,0,.26.1.27.24.03.39.06.78.06,1.17,0,.41-.07.82-.09,1.24-.01.19.03.39-.01.58-.1.47.04.89.27,1.26.33.54.9.82,1.43,1.11.6.33,1.24.56,1.89.8.25.09.55.07.82.08.08,0,.21-.07.22-.13.02-.13-.02-.27-.04-.4.1-.09.28-.18.32-.31.04-.13-.08-.3-.11-.41.14-.15.3-.31.43-.47.1-.13.08-.29-.06-.36-.3-.16-.61-.31-.92-.44-.18-.07-.38-.07-.57-.12-.44-.11-.8-.49-.85-.93-.03-.27-.03-.54-.06-.82-.05-.58-.1-1.16-.14-1.75.32,0,.58,0,.84,0,.22,0,.45-.08.67-.05.19.03.19-.04.2-.17.01-.27.03-.53.05-.8.05-.79.1-1.57.16-2.36,0-.08.09-.15.14-.23.02-.04.05-.09.05-.13.02-.2.03-.39.05-.59.04-.39.07-.77.13-1.16.08-.58.19-1.16.27-1.74.02-.16.09-.2.25-.23.56-.11,1.08.2,1.65.09.27-.05.57,0,.87-.07.37-.08.75-.08,1.13-.12.24-.02.34-.16.31-.38-.04-.28-.07-.56-.09-.83-.02-.24-.01-.48-.02-.73-.01-.33-.04-.66-.04-.98,0-.65,0-1.29,0-1.94,0-.26,0-.53,0-.81.08.02.13.02.16.05.19.18.36.37.65.41.3.04.58.2.88.25.33.05.66.06.99.06.33,0,.68.03.96-.2.08-.07.18-.2.16-.29-.02-.12-.12-.28-.23-.31-.2-.07-.43-.07-.65-.08-.1,0-.21.02-.32.03.18-.17.39-.27.57-.42.26-.22.55-.44.73-.73.22-.36.36-.77.51-1.17.14-.38.26-.77.37-1.15.03-.12.06-.26.02-.36-.04-.1-.19-.23-.27-.22-.21.04-.43.12-.6.25-.38.29-.73.62-1.1.93-.12.1-.27.18-.4.27-.02-.02-.03-.03-.05-.05.09-.17.19-.34.29-.51.1-.17.07-.34-.04-.47-.06-.07-.2-.13-.29-.12-.15,0-.32.05-.44.13-.39.25-.77.52-1.14.78-.23.16-.45.33-.7.51-.04-.35-.04-.65.21-.89.11-.11.19-.25.27-.38.43-.74.94-1.42,1.57-2,.05-.04.1-.08.1-.08.11.12.2.22.3.32.08-.09.14-.2.24-.27.08-.06.21-.1.3-.09.11.02.21.11.33.17.24.11.49.2.76.1-.18-.05-.36-.08-.54-.1-.4-.05-.59-.29-.46-.62.39.18.65.63,1.15.59-.24-.12-.47-.24-.71-.37.3-.29.17-.52-.03-.77.11.02.17.04.31.07-.1-.06-.13-.09-.16-.11-.03-.02-.07-.03-.1-.05l.04-.06c.47.3.97.49,1.49.31-.27-.03-.57-.06-.83-.09.01-.21.02-.36.03-.55.06-.02.17-.06.27-.1-.22-.03-.45-.07-.69-.1.13-.25.28-.29.48-.17.3.18.63.27.98.24.11,0,.22-.06.36-.09-.3-.02-.55-.04-.8-.05.01-.02.03-.05.04-.07-.06-.04-.12-.1-.18-.13-.15-.07-.38-.03-.46-.35.2.04.39.03.53.1.41.22.79.1,1.18-.03.05-.02.07-.09.13-.15-.35.11-.66.27-1.06.12.09-.05.16-.07.21-.11.12-.11.24-.26.17-.43-.03-.07-.2-.08-.31-.12-.04-.01-.08-.01-.15-.02.47-.09.91-.18,1.36-.26,0-.02,0-.05-.01-.07-.2.02-.4.05-.6.07-.02-.02-.03-.04-.05-.06.14-.14.28-.28.41-.42.03-.03.06-.08.08-.12.05-.15.09-.3.13-.45h-.44c.09-.32.44-.51.66-.78-.03-.02-.05-.04-.08-.06-.28.3-.56.61-.83.91-.03-.13.09-.36-.21-.36.1-.17.18-.31.26-.45-.02,0-.03-.02-.05-.03-.11.16-.23.33-.33.47h-.35s.03-.1.04-.11c-.2.12-.42.26-.65.4.01-.14.02-.24.03-.35-.2-.03-.39-.06-.59-.09.05-.11.09-.21.15-.35.18.08.35.15.53.23-.11-.22-.3-.3-.51-.33-.15-.02-.31-.02-.53-.04.14-.14.21-.27.31-.29.15-.04.35-.06.47,0,.21.13.24.14.31-.15h-.68s.03-.07.03-.1c0-.09,0-.18-.01-.27-.09.01-.17,0-.25.04-.08.03-.14.08-.21.13-.02-.02-.03-.04-.05-.06.21-.21.41-.41.62-.62l-.1-.08c-.23.26-.45.52-.68.79-.31-.33-.33.18-.58.24,0-.11,0-.21.02-.3.03-.17-.04-.28-.21-.29-.11,0-.21.04-.32.07q.07-.52-.28-.69c.1-.17.21-.35.31-.52-.02-.01-.04-.02-.07-.04-.3.27-.33.7-.49,1.04-.11-.06-.22-.11-.34-.17.1-.26.2-.52.3-.8-.04,0-.1-.01-.1,0-.18.49-.35.97-.52,1.46-.11,0-.23.02-.36.03.08-.21.16-.4.24-.6-.02,0-.05-.02-.07-.03-.19.46-.39.92-.58,1.38Z"/>
        <path class="cls-3" d="m80.92,73.19c.19-.46.39-.92.58-1.38.02,0,.05.02.07.03-.08.2-.16.4-.24.6.13,0,.26-.02.36-.03.17-.48.34-.97.52-1.46,0,0,.06,0,.1,0-.1.28-.2.54-.3.8.12.06.23.11.34.17.17-.34.19-.77.49-1.04.02.01.04.02.07.04-.1.17-.21.34-.31.52q.35.17.28.69c.11-.03.22-.07.32-.07.17,0,.24.12.21.29-.01.09-.01.19-.02.3.24-.06.26-.57.58-.24.23-.26.46-.53.68-.79l.1.08c-.21.21-.41.41-.62.62.02.02.03.04.05.06.07-.04.13-.1.21-.13.08-.03.17-.03.25-.04,0,.09.01.18.01.27,0,.03-.02.06-.03.1h.68c-.07.29-.1.27-.31.15-.12-.07-.32-.04-.47,0-.09.02-.16.15-.31.29.22.01.37.01.53.04.21.03.4.11.51.33-.18-.08-.35-.15-.53-.23-.06.15-.11.25-.15.35.19.03.39.06.59.09,0,.11-.02.21-.03.35.23-.14.45-.28.65-.4,0,0-.02.07-.04.11h.35c.1-.14.21-.31.33-.47.02,0,.03.02.05.03-.08.14-.17.29-.26.45.3,0,.18.23.21.36.28-.3.56-.61.83-.91.03.02.05.04.08.06-.22.27-.57.45-.66.78h.44c-.04.15-.08.3-.13.45-.01.04-.05.09-.08.12-.14.14-.28.28-.41.42.02.02.03.04.05.06.2-.02.4-.05.6-.07,0,.02,0,.05.01.07-.44.08-.88.17-1.36.26.07,0,.11,0,.15.02.11.03.27.05.31.12.07.17-.05.31-.17.43-.04.04-.11.06-.21.11.39.15.7-.02,1.06-.12-.05.06-.08.14-.13.15-.39.13-.77.25-1.18.03-.14-.07-.33-.07-.53-.1.08.31.3.27.46.35.07.03.12.09.18.13-.01.02-.03.05-.04.07.25.02.5.03.8.05-.15.04-.25.09-.36.09-.35.02-.68-.07-.98-.24-.21-.12-.35-.08-.48.17.24.04.47.07.69.1-.1.04-.22.08-.27.1,0,.19-.02.34-.03.55.26.03.56.06.83.09-.53.18-1.02-.01-1.49-.31l-.04.06s.07.03.1.05c.03.02.07.04.16.11-.14-.03-.2-.04-.31-.07.2.25.33.48.03.77.24.13.47.25.71.37-.5.04-.76-.4-1.15-.59-.13.32.06.56.46.62.18.02.36.05.54.1-.27.1-.52.01-.76-.1-.11-.05-.21-.15-.33-.17-.09-.02-.22.03-.3.09-.1.07-.16.18-.24.27-.09-.1-.18-.2-.3-.32,0,0-.06.04-.1.08-.64.58-1.15,1.26-1.57,2-.08.13-.16.27-.27.38-.25.24-.25.54-.21.89.25-.18.47-.35.7-.51.38-.27.75-.54,1.14-.78.13-.08.29-.12.44-.13.1,0,.23.05.29.12.11.13.14.3.04.47-.1.17-.19.34-.29.51.02.02.03.03.05.05.13-.09.28-.17.4-.27.37-.31.72-.64,1.1-.93.17-.13.39-.2.6-.25.08-.02.23.12.27.22.04.1.02.25-.02.36-.11.39-.23.77-.37,1.15-.15.4-.29.82-.51,1.17-.18.28-.47.5-.73.73-.17.15-.38.25-.57.42.11-.01.21-.04.32-.03.22.01.45.01.65.08.1.03.21.19.23.31.02.09-.08.22-.16.29-.28.23-.63.2-.96.2-.33,0-.67,0-.99-.06-.3-.05-.58-.21-.88-.25-.29-.04-.46-.23-.65-.41-.03-.02-.07-.02-.16-.05,0,.29,0,.55,0,.81,0,.65,0,1.29,0,1.94,0,.33.03.66.04.98,0,.24,0,.49.02.73.02.28.05.56.09.83.03.22-.07.36-.31.38-.38.03-.76.03-1.13.12-.3.07-.6.02-.87.07-.57.11-1.09-.2-1.65-.09-.16.03-.22.07-.25.23-.08.58-.19,1.16-.27,1.74-.05.38-.09.77-.13,1.16-.02.2-.03.39-.05.59,0,.04-.03.09-.05.13-.05.08-.13.15-.14.23-.06.79-.11,1.57-.16,2.36-.02.27-.03.53-.05.8,0,.13,0,.2-.2.17-.21-.03-.44.04-.67.05-.26.01-.52,0-.84,0,.05.6.1,1.17.14,1.75.02.27.02.55.06.82.05.44.41.82.85.93.19.05.4.05.57.12.32.12.62.27.92.44.14.08.16.23.06.36-.13.17-.29.32-.43.47.03.11.15.28.11.41-.04.13-.23.23-.32.31.02.14.06.27.04.4,0,.06-.14.13-.22.13-.28,0-.57.01-.82-.08-.64-.23-1.29-.47-1.89-.8-.53-.29-1.1-.57-1.43-1.11-.23-.38-.36-.8-.27-1.26.04-.19,0-.39.01-.58.03-.41.08-.82.09-1.24,0-.39-.02-.78-.06-1.17-.01-.14-.07-.25-.27-.24-.26.01-.53-.03-.79-.04-.06.29-.27.38-.56.32-.21-.04-.43-.01-.65-.01-.49,0-.97-.01-1.46,0-.31.01-.62.07-.94.11,0,.01-.02.03-.02.05-.05,1.08-.08,2.16-.17,3.23-.05.65-.38,1.19-.96,1.51-.66.36-1.33.73-2.03.98-.36.13-.74.33-1.17.23-.16-.04-.26-.15-.23-.26.06-.24.04-.56.38-.65.02,0,.04-.02.03-.02-.17-.05-.39-.06-.51-.17-.11-.1-.09-.33-.13-.5.02,0,.05-.01.07-.02-.05-.04-.1-.08-.15-.12-.21-.14-.39-.29-.35-.58.05-.32.25-.5.54-.6.31-.1.63-.17.93-.31.38-.17.77-.36,1.11-.61.26-.19.37-.48.3-.85-.05-.27.03-.56.05-.84,0-.06.03-.13.02-.19-.07-.33-.1-.34-.57-.37-.43-.03-.85.07-1.29-.04-.19-.05-.41.03-.62.04-.17.01-.21-.09-.21-.23,0-.39.01-.79,0-1.18-.02-.43-.06-.86-.09-1.29,0-.07,0-.15,0-.22,0-.62,0-1.24,0-1.86,0-.56-.04-1.11-.04-1.67,0-.29.05-.57.09-.86.02-.17-.04-.23-.21-.22-.44,0-.87.02-1.31,0-.47-.03-.94-.09-1.44-.15-.05-.66-.09-1.27-.16-1.87-.05-.47-.13-.94-.18-1.42-.05-.38-.1-.75-.11-1.13-.03-.92-.02-1.85-.06-2.77-.03-.72-.12-1.43-.17-2.15-.02-.3-.01-.6-.02-.9-.01-.3-.05-.6-.04-.89.02-.58.07-1.16.11-1.73.02-.37.03-.75.04-1.12,0-.16,0-.32,0-.48.03-.42.06-.84.1-1.26.05-.52.13-1.04.19-1.56,0-.04,0-.08,0-.12.02-.77.03-1.55.05-2.32.02-.77.01-1.55.06-2.32.02-.4.12-.79.2-1.19.21-.93.43-1.86.64-2.79.12-.51.22-1.02.35-1.53.12-.47.28-.94.41-1.41.2-.75.39-1.51.6-2.27.16-.58.37-1.15.52-1.73.12-.47.16-.95.28-1.42.13-.49.3-.96.47-1.43.16-.46.33-.92.51-1.37.3-.75.6-1.5.92-2.24.14-.33.31-.66.6-.89.09-.07.13-.19.19-.28.31-.49.83-.69,1.32-.93.2-.1.42-.18.64-.22.44-.08.89-.14,1.34-.18.47-.04.94-.02,1.41-.07.19-.02.39-.11.57-.19.5-.24,1.04-.22,1.56-.29.79-.1,1.56.07,2.34.19.32.05.64.14.95.2.07.01.14-.02.21-.03.07,0,.15-.03.22,0,.23.09.46.18.67.29.45.23.9.46,1.35.7.15.08.29.17.42.28.38.31.44.75.44,1.21,0,.54.16,1.04.37,1.53.14.34.2.72.28,1.09.12.53.23,1.07.32,1.61.09.57.16,1.15.23,1.73.06.45.12.91.19,1.36.09.59.17,1.18.26,1.77.1.66.21,1.33.31,1.99.06.42.13.84.19,1.26.08.54.15,1.07.22,1.61.05.34.09.68.13,1.03.06.43.12.86.17,1.29.02.13.02.25.03.38.05.58.09,1.17.14,1.75.02.21.06.43.06.64,0,.7.01,1.41,0,2.11,0,.27-.1.54-.09.81.02.44.1.87.15,1.31.03,0,.06,0,.1,0Zm-3.73,5.49c-.22.35-.45.7-.67,1.05.02.01.04.03.05.04.07-.08.14-.16.21-.24-.03.07-.05.15-.09.22-.22.43-.44.85-.66,1.28-.1.18-.2.36-.3.55.17-.38.33-.77.5-1.15-.01,0-.02-.01-.03-.02-.26.47-.51.95-.77,1.42.2-.44.38-.9.61-1.33.48-.89.99-1.77,1.5-2.65.24-.42.53-.81.8-1.21.11-.17.24-.32.36-.48-1.04.81-1.6,1.96-2.22,3.05,0,0-.02-.04-.03-.06-.03,0-.05-.01-.08-.02-.16.42-.31.85-.5,1.26-.25.54-.56,1.05-.81,1.59-.28.6-.52,1.22-.76,1.83-.17.42-.33.84-.5,1.26.02.02.03.03.05.05.06-.04.14-.06.17-.12.2-.46.39-.93.58-1.4.1-.24.2-.48.3-.71,0,.05.02.11,0,.15-.15.4-.31.81-.48,1.21-.11.28-.24.55-.37.83.35.08.09-.28.27-.3,0,.09-.01.17-.02.26.02,0,.03,0,.05,0,.3-.8.6-1.6.9-2.4,0,.06,0,.12,0,.17-.22.64-.45,1.28-.68,1.91-.02.05,0,.11,0,.16.24-.05.39-.15.45-.4.07-.28.17-.56.29-.83.23-.55.48-1.1.71-1.65.19-.43.37-.87.55-1.31.08-.2.17-.4.25-.6-.02,0-.04-.02-.06-.02l-1.5,3.24s-.04-.06-.03-.08c.27-.61.54-1.21.81-1.82.38-.86.78-1.71,1.32-2.49,0,.04.01.08.02.12-.01-.01-.03-.03-.04-.04.76-.95,1.52-1.9,2.28-2.85-.34.29-.66.6-.95.94-.35.42-.68.86-1.01,1.3-.12.17-.21.36-.31.54.05-.19.11-.38.16-.57.03,0,.08,0,.09-.02.22-.29.43-.59.65-.89.16-.21.33-.42.49-.63,0,0-.01-.01-.02-.02-.12.1-.23.2-.35.3.02-.04.03-.09.06-.13.25-.27.51-.55.77-.82.06-.06.12-.11.22-.19-.01.11-.01.15-.02.22.09-.07.15-.12.22-.17-.14-.07-.27-.15-.4-.2-.04-.02-.13,0-.16.04-.3.37-.6.74-.87,1.13-.25.36-.45.75-.67,1.13-.12.19-.24.37-.36.56Zm.9,2.16s.04-.04.06-.06c.27-.37.53-.74.8-1.1.26-.34.52-.69.8-1.02.44-.52.9-1.04,1.34-1.55.04-.04.04-.11.06-.16-.03-.02-.06-.05-.09-.07-.13.16-.27.31-.4.47,0,0-.01-.01-.02-.02.19-.2.38-.4.56-.6-.02-.02-.03-.03-.05-.05-.15.07-.3.13-.46.2.04-.06.08-.12.13-.17-.84.68-1.6,1.43-2.11,2.46.1-.08.16-.12.21-.17-.19.33-.38.66-.56.99-.03.05-.07.1-.1.15-.01,0-.02-.01-.03-.02.05-.11.1-.22.15-.34-.06,0-.08.02-.09.04-.22.4-.43.81-.66,1.2-.26.43-.59.83-.81,1.28-.31.63-.56,1.29-.84,1.94.02,0,.03.02.05.03.1-.17.19-.34.29-.51-.03.12-.05.25-.08.37-.02.08-.08.17.08.13.14.05.28.13.34-.09.05.17.09.33.14.5.25-.5.5-1.02.76-1.52.27-.54.53-1.08.83-1.6.21-.36.49-.69.73-1.04-.01.04-.02.08-.04.11-.41.69-.87,1.35-1.24,2.06-.47.89-.87,1.82-1.3,2.73-.05.11-.09.23-.13.35.02,0,.03.02.05.03.05-.05.1-.11.16-.16,0,.05,0,.1,0,.21.13-.11.23-.18.28-.22.09.02.15.05.17.03.06-.06.11-.13.14-.2.14-.33.27-.67.42-.99.33-.7.66-1.4,1-2.1.22-.45.43-.91.7-1.33.34-.53.71-1.04,1.1-1.54.33-.43.7-.82,1.05-1.23-.02.05-.04.1-.07.15-.44.56-.89,1.12-1.33,1.68-.67.87-1.16,1.84-1.61,2.84-.04.09-.13.19.07.17h0c-.09.17-.18.36-.27.54-.22.42-.46.83-.67,1.25-.12.23-.19.48-.29.72.19-.08.38-.1.46-.27.16.1.33.02.39-.08.21-.34.4-.69.56-1.06.15-.32.22-.67.39-.97.33-.59.71-1.16,1.08-1.74.38-.6.75-1.2,1.14-1.79.11-.17.27-.32.41-.49-.08.13-.16.26-.25.39-.26.39-.53.78-.79,1.18-.17.26-.32.54-.47.8.02.01.04.02.06.03.56-.82,1.12-1.65,1.67-2.47-.01-.01-.03-.02-.04-.03-.06.03-.13.07-.19.1.02-.05.04-.11.08-.15.31-.32.63-.63.94-.95.02-.02.02-.04.03-.05-.05-.06-.1-.12-.14-.17-.06.04-.1.06-.14.09-.01-.09-.02-.18-.04-.33-.96,1-1.91,1.9-2.6,3.03.03-.11.09-.19.15-.28.43-.58.84-1.17,1.29-1.73.29-.36.65-.66.98-1,.05-.05.08-.13.15-.23-.19.11-.34.2-.48.28.13-.14.26-.28.39-.41-.16.03-.29.1-.42.17-.58.32-.95.85-1.32,1.36-.52.72-1.02,1.46-1.51,2.2-.38.58-.7,1.2-1.06,1.79-.21.35-.43.7-.65,1.05.02-.05.03-.09.05-.14.36-.67.71-1.36,1.09-2.02.25-.44.57-.83.85-1.26.16-.25.29-.53.43-.79.57-.93,1.3-1.74,2.04-2.55-.04-.03-.07-.07-.05-.05-.21.14-.4.26-.58.38v-.29c-.18.17-.32.27-.43.4-.44.5-.89.99-1.3,1.51-.38.49-.7,1.02-1.05,1.53-.23.33-.46.65-.69.97.04-.11.07-.23.12-.33.07-.14.15-.27.23-.41Zm-3.28,7.25s.07-.02.07-.04c0-.19,0-.39,0-.58,0-.04-.04-.08-.07-.13-.1.25-.19.48-.28.71.06-.25.12-.51.18-.76-.02,0-.04,0-.06-.01-.11.33-.25.65-.32.98-.12.58-.21,1.18-.31,1.76-.11.65-.23,1.3-.33,1.96-.06.39-.07.79-.1,1.18.03,0,.05,0,.08,0v-.54s.03,0,.05,0v.78c.08-.02.14-.07.13-.1-.13-.53.1-1.02.16-1.53.04-.34.07-.69.11-1.03.05-.41.1-.83.14-1.24-.03.3-.06.6-.09.9.02,0,.03,0,.05,0,.18-.81.35-1.62.53-2.43.02,0,.04.01.06.02,0,.02-.01.05-.02.07-.19.89-.38,1.79-.57,2.68,0,0,.01,0,.02,0,.06-.14.12-.28.18-.41-.11.53-.24,1.05-.34,1.58-.07.41-.11.82-.16,1.23.02,0,.04,0,.06,0,.03-.23.05-.47.08-.7h.03c0,.07.01.14.02.26.03-.09.05-.13.06-.17,0,.25,0,.51-.05.75-.04.23-.03.25.19.23.05-.51.08-1.01.14-1.51.08-.59.13-1.19.28-1.77.2-.78.48-1.54.72-2.31.03-.11.04-.2-.09-.26-.09-.04-.18-.1-.29-.17-.06.21-.13.39-.17.58-.06.35-.09.7-.16,1.04-.06.28-.15.55-.23.82-.04.13-.08.26-.12.38.08-.33.17-.66.22-1,.07-.42.11-.86.16-1.28Zm1.02.89c-.05.16-.11.32-.14.49-.22,1.05-.43,2.09-.65,3.14-.05.25-.09.51-.13.77.08-.1.1-.21.13-.31.13-.64.24-1.3.41-1.93.21-.76.48-1.5.7-2.26.06-.22.05-.46.08-.69-.02,0-.03,0-.05,0-.12.26-.24.53-.36.79.09-.28.18-.56.27-.84-.08-.03-.16-.05-.28-.09-.11.4-.21.78-.31,1.17-.12.46-.27.91-.37,1.37-.14.62-.24,1.25-.35,1.88-.05.27-.1.53-.14.8,0,.05.04.11.06.16.03-.02.08-.04.08-.06.07-.3.14-.6.2-.91.09-.43.15-.87.24-1.3.08-.41.16-.82.27-1.22.09-.32.22-.64.34-.96Zm-2.66-.51c-.06.43-.12.86-.17,1.28,0,0-.02,0-.02,0v-.44c-.27,1.15-.48,2.31-.39,3.5.06-.05.09-.11.09-.17-.02-.74.2-1.44.35-2.15.08-.41.18-.81.26-1.22.07-.34.1-.68.18-1.01.09-.39.22-.77.31-1.15.01-.06-.07-.14-.13-.27-.07.2-.11.31-.16.42.01-.12.02-.24.04-.39-.24.36-.3.74-.34,1.13-.02.16,0,.31,0,.47Zm6.27-10.94c.05-.07.09-.16.15-.22.26-.24.53-.47.8-.71-.11-.12-.16-.17-.2-.22-.06.04-.1.06-.14.09,0-.05-.01-.09-.03-.23-.17.17-.3.3-.42.43-.19.21-.38.44-.58.65-.11.11-.25.2-.35.31-.18.19-.35.39-.51.61-.2.28-.41.57-.57.88-.24.45-.44.93-.66,1.39-.18.37-.37.73-.54,1.09-.15.32-.28.66-.43.99-.1.21-.23.41-.31.63-.17.44-.31.88-.46,1.32.02.01.03.03.05.04.1-.11.19-.21.29-.32.01.03.03.07.05.12.16-.27.34-.51.45-.77.32-.73.59-1.48.91-2.21.13-.3.33-.57.5-.85-.16.31-.32.63-.47.95-.17.37-.32.74-.48,1.11.02,0,.04.02.06.03.1-.19.18-.38.29-.56.57-.97,1.16-1.93,1.73-2.9.38-.66.82-1.27,1.36-1.8.23-.22.44-.46.66-.69-.02-.02-.03-.04-.05-.07-.08.05-.18.08-.25.15-.29.26-.58.52-.86.79Zm-4.37,3.57c-.05.16-.09.33-.15.49-.24.61-.5,1.22-.74,1.84-.15.4-.28.8-.42,1.2-.05.15-.1.31-.15.46.02,0,.05.02.07.03.04-.09.1-.18.13-.27.24-.65.46-1.31.71-1.95.13-.33.32-.64.48-.96.24-.45.49-.9.7-1.36.19-.41.2-.89.51-1.26.11-.14.17-.31.27-.47.2-.32.41-.65.61-.97.08-.12.15-.23.23-.35-.16.12-.29.26-.39.42-.22.34-.42.68-.63,1.02-.28.46-.57.92-.85,1.38-.15.25-.28.51-.42.77.17-.63.53-1.17.87-1.72.08-.14.1-.24.05-.39-.09-.27-.16-.55-.21-.83-.1-.59-.17-1.19-.25-1.79-.07-.53-.14-1.06-.24-1.58-.1-.56-.22-1.12-.37-1.67-.12-.4-.28-.8-.47-1.17-.22-.42-.5-.81-.77-1.2-.21-.3-.44-.59-.67-.89-.09.21-.14.38-.13.55.01.6-.1,1.16-.46,1.65-.16.21-.29.45-.48.62-.21.19-.49.31-.73.46-.29.18-.58.36-.94.37-.15,0-.22.06-.19.25.08.52.13,1.04.18,1.57.02.2-.03.41-.03.61,0,.13.03.26.03.39-.01.5-.05,1-.06,1.51,0,.44.02.89.03,1.33,0,.01,0,.03,0,.04-.04.34-.1.68-.12,1.02-.02.37.01.74-.01,1.11-.06.95-.11,1.9.17,2.83.02.07.15.16.22.15.27-.03.53-.1.8-.13.19-.02.39,0,.58-.02.4-.04.79-.09,1.18-.12.06,0,.16.1.17.17.04.21.03.43.06.64.01.07.1.12.15.18.05-.05.11-.09.14-.14.06-.14.1-.29.15-.43.18-.49.37-.99.53-1.42-.24-.24-.44-.41-.61-.61-.34-.39-.73-.73-.92-1.22-.28-.73-.61-1.47-.54-2.28.04-.45.14-.9.24-1.35.06-.28.16-.55.26-.81.02-.05.14-.09.22-.09.04,0,.11.1.11.16,0,.11-.02.23-.06.33-.08.2-.23.39-.26.6-.13.78-.31,1.57-.05,2.36.15.45.31.91.52,1.33.12.24.34.43.53.63.2.22.42.42.62.62.27-.57.53-1.1.78-1.62Zm4.99-7.04c.08-.29.14-.57.24-.83.11-.3.2-.6.14-.93-.03-.18-.04-.38-.04-.56.02-.58.1-1.16.09-1.74,0-.62-.09-1.24-.14-1.85-.06-.69-.13-1.38-.19-2.07-.06-.63-.11-1.25-.16-1.88-.03-.36-.06-.71-.11-1.07-.04-.28-.1-.56-.14-.84-.09-.53-.17-1.05-.25-1.58-.03-.2-.08-.4-.1-.61-.04-.36-.06-.72-.11-1.08-.07-.46-.15-.92-.25-1.37-.15-.7-.29-1.39-.47-2.08-.23-.85-.48-1.68-.53-2.57-.02-.32-.02-.65-.09-.97-.11-.51-.26-1.01-.4-1.51-.11-.38-.13-.78-.33-1.14-.22-.42-.45-.79-.92-.97-.35-.13-.67-.34-1.02-.47-.36-.13-.77-.13-1.1-.31-.52-.28-1.09-.25-1.63-.35-.75-.15-1.51-.04-2.26.1-.25.05-.5.14-.75.21,0,.02.01.05.02.07.06,0,.13.01.19,0,.34-.02.67-.06,1.01-.06.52,0,1.05.04,1.57.07.09,0,.18.02.26.05.04.02.07.08.1.13-.06,0-.11.02-.17.02-.22,0-.45,0-.67.02-.32.02-.64.09-.96.08-.25,0-.49-.11-.74-.13-.46-.03-.92.02-1.37-.04-.7-.11-1.38.03-2.05.15-.38.07-.73.3-1.09.45-.06.03-.12.05-.19.06-.44.03-.72.32-1,.61-.1.1-.12.27-.2.39-.17.25-.39.48-.52.75-.25.55-.47,1.13-.68,1.7-.17.47-.31.95-.47,1.43-.14.42-.28.83-.43,1.25-.23.62-.21,1.3-.48,1.92-.26.59-.4,1.22-.56,1.84-.36,1.35-.72,2.69-1.06,4.04-.19.74-.3,1.51-.53,2.24-.18.58-.26,1.16-.33,1.76-.02.19-.05.38-.05.57,0,.47,0,.94-.01,1.41,0,.24,0,.52-.12.69-.23.32-.1.66-.14.98-.05.51.02,1.03,0,1.55-.02.66-.09,1.32-.13,1.98-.02.32-.02.64-.04.96,0,.14.01.29-.01.43-.05.27-.12.53-.17.8-.03.16-.02.33-.04.49-.05.45-.12.9-.14,1.35-.02.48.04.96.04,1.45,0,.36-.05.71-.03,1.07.02.43.1.87.13,1.3.02.26,0,.52,0,.79,0,.69,0,1.38,0,2.08,0,.08-.01.17,0,.25.02.22.04.44.06.67.02.38.03.75.06,1.13.05.53.13,1.06.19,1.59.05.4.09.8.15,1.2.05.33.14.4.49.41.7.02,1.4.04,2.1.05.07,0,.14,0,.23-.02-.02-.25-.05-.47-.06-.69,0-.35,0-.71,0-1.06,0-.15-.04-.29-.05-.44,0-.51,0-1.02,0-1.54,0-.48-.01-.96,0-1.43,0-.23-.09-.37-.22-.54-.2-.26-.41-.52-.53-.82-.18-.47-.29-.96-.41-1.45-.23-.89-.27-1.81-.2-2.72,0-.11.04-.21.05-.32.03-.49.03-.98.08-1.47.04-.37.12-.73.23-1.08.14-.46.3-.93.52-1.36.24-.49.56-.94.85-1.41.09-.15.26-.29.26-.43.01-.72-.03-1.45-.03-2.17,0-.39.04-.78.1-1.16.06-.44.18-.86.24-1.3.11-.76.22-1.53.3-2.3.08-.77.16-1.55.2-2.32.03-.58,0-1.16,0-1.74,0-.18-.05-.36-.04-.54.04-.65.09-1.3.15-1.95.03-.36.06-.72.12-1.08.09-.58.21-1.16.28-1.75.08-.69.17-1.38.41-2.04.19-.53.34-1.07.53-1.6.22-.63.46-1.25.68-1.89.13-.36.21-.73.35-1.09.14-.36.32-.69.49-1.04.02,0,.04.02.06.03-.07.15-.14.29-.21.44-.19.43-.41.85-.46,1.34-.03.29-.07.59-.16.86-.15.44-.36.86-.53,1.29-.06.15-.08.32-.13.48.16-.03.25-.13.36-.15.29-.07.59-.09.87-.17.25-.06.49-.19.74-.26.49-.13.98-.24,1.47-.35.1-.02.21-.05.31-.05,1-.04,1.99-.07,2.99-.1.2,0,.39-.05.59-.07.14,0,.28-.01.41.02.35.09.71.18,1.05.3.3.11.59.27.88.39.26.1.47.37.81.26-.05-.3-.1-.58-.16-.91-.02.06-.03.1-.03.13-.09-.44-.16-.85-.19-1.26-.02-.27.03-.54-.02-.81-.07-.43-.08-.89-.47-1.2-.1-.08-.19-.2-.26-.31-.04-.07-.02-.17-.03-.31.11.09.16.12.19.16.22.26.56.42.66.79.1.39.17.77.15,1.19-.02.38.13.77.19,1.16.07.4.13.79.18,1.19.07.48.11.96.19,1.44.06.39.15.78.21,1.17.07.46.14.93.2,1.39.06.42.13.85.15,1.27.02.8,0,1.6,0,2.4,0,.36.04.71.05,1.07,0,.4,0,.79,0,1.19,0,.07.03.14.05.21.03.08.09.15.09.23,0,.56.11,1.1.23,1.65.12.54.15,1.1.17,1.66.02.6-.02,1.21-.02,1.82,0,.21.04.41.03.62-.04.76-.1,1.52-.15,2.28,0,.1-.04.2-.04.29,0,.4,0,.8,0,1.2,0,.49.05.98.03,1.47-.02.53-.1,1.05-.15,1.58-.01.13,0,.27,0,.4-.01.35-.03.7-.04,1.05,0,.18,0,.36-.17.53-.03-.39-.08-.73-.06-1.07.02-.6.09-1.2.14-1.8.02-.21.04-.43.05-.64.02-.53.04-1.07.04-1.6,0-.53-.06-1.07-.03-1.6.03-.58.16-1.16.18-1.74.03-1.1.02-2.19,0-3.29,0-.29-.07-.58-.13-.86-.06-.31-.16-.61-.22-.93-.07-.36-.12-.73-.16-1.1-.07-.6-.14-1.21-.19-1.82-.02-.2.04-.4.03-.59-.02-.7-.06-1.39-.09-2.09,0-.12-.03-.24-.05-.36-.15.41-.27.82-.35,1.23-.11.56-.21,1.12-.43,1.65-.16.39-.29.8-.43,1.2-.12.35-.22.7-.37,1.03-.24.51-.51,1-.79,1.48-.17.29-.35.58-.57.82-.28.31-.62.56-.92.84-.05.04-.09.11-.09.17-.01.29,0,.59,0,.88,0,.23.05.47-.02.67-.1.3.05.39.25.51.35.21.7.45,1.03.69.2.15.38.33.55.52.2.21.38.42.56.65.09.11.14.25.21.37.19.32.4.63.55.96.26.58.43,1.18.53,1.81.02.15.05.29.07.44.07.44.17.87.21,1.31.08.81.12,1.62.21,2.43.03.31.15.6.23.91.02,0,.04.02.07.03.65-1.38,1.74-2.39,2.89-3.35-.39-.36-.45-1.16-.16-1.87-.04.36-.08.72-.12,1.08.2-.18.14-.54.51-.53.01,0,.03-.05.04-.08.08-.27.16-.55.25-.82.02-.07.07-.13.11-.2,0,0,.01,0,.02.01-.11.37-.23.74-.34,1.11.02,0,.04.02.06.03.16-.13.32-.26.48-.39.03.04.06.08.09.13Zm-13.15-4.41c-.09,0-.15,0-.18.02-.57.34-1.15.67-1.7,1.05-.43.3-.83.64-1.21,1-.45.42-.88.85-1.27,1.32-.34.41-.64.87-.9,1.34-.25.45-.48.93-.64,1.43-.17.53-.27,1.09-.37,1.65-.06.35-.14.72-.09,1.06.07.46,0,.9.03,1.35.05.6.12,1.2.45,1.74.16.26.31.52.45.78.13.24.24.5.38.73.21.37.47.71.66,1.09.15.29.32.54.55.77.51.53,1.1.95,1.68,1.39.24.18.45.4.76.48.25.07.5.15.76.2.3.06.6.09.87.23.01,0,.03.01.05.02.38.07.76.15,1.14.22.21.04.41.12.61.14.27.02.55.02.83,0,.47-.03.93.04,1.4-.01.53-.06,1.04-.23,1.56-.29.11-.01.2-.07.21-.22,0-.12.04-.29.12-.36.14-.11.1-.21.07-.35-.05-.3-.1-.6-.11-.9-.02-.4,0-.8,0-1.26-.3.05-.57.09-.84.13-.41.06-.83.13-1.24.19-.48.07-.96.19-1.46.12-.69-.1-1.36-.24-2.02-.44-.81-.25-1.54-.62-2.16-1.2-.46-.44-.88-.92-1.23-1.46-.35-.54-.47-1.13-.48-1.75,0-.49.02-.98.05-1.47.02-.29.03-.58.11-.85.11-.37.27-.71.42-1.07.03-.08.1-.16.17-.21.06-.04.16-.04.23-.01.03.01.05.13.03.19-.09.26-.2.51-.31.77-.23.53-.37,1.08-.36,1.67,0,.2.04.42,0,.6-.12.45.05.9.02,1.34,0,.03.03.06.04.08.26.48.55.94.95,1.31.4.37.72.84,1.29.99,0,0,.01.01.02.02.36.26.75.45,1.19.55.53.12,1.04.3,1.57.44.21.06.42.09.69.14-.12-.57.12-1.1-.03-1.63-.01-.05,0-.1,0-.15,0-.36.03-.72.02-1.08,0-.38-.02-.75-.03-1.13,0-.17,0-.34,0-.5,0-.66,0-1.31,0-1.97,0-.3,0-.6.02-.89.01-.26.06-.53.06-.79,0-.51-.02-1.02-.04-1.52-.02-.38-.04-.75-.06-1.12-.17-.02-.28-.04-.39-.04-.32,0-.57-.21-.86-.3-.4-.13-.76-.32-1.08-.61-.16-.14-.24-.28-.28-.47-.06-.26-.12-.52-.2-.78-.14-.5-.14-.99.03-1.48.02-.07.02-.14.03-.25Zm3.35-17.32s0-.05,0-.08c-.82.18-1.68.02-2.5.32-.56.21-1.16.31-1.74.46-.2.05-.4.15-.61.17-.29.03-.4.19-.43.44-.06.58-.14,1.16-.17,1.75-.02.46,0,.93.05,1.39.07.78.16,1.55.25,2.33.03.28.08.56.12.85,0,.05.02.1.02.15,0,.27-.01.55,0,.82.06.71.22,1.4.42,2.08.17.59.4,1.17.64,1.74.36.86.86,1.55,1.84,1.83.48.14.96.16,1.44.2.41.03.82.03,1.23.03.31,0,.63-.05.86-.27.45-.41.92-.79,1.2-1.36.26-.52.67-.97.94-1.49.22-.41.34-.86.5-1.3.14-.37.29-.73.4-1.1.21-.7.42-1.41.57-2.13.17-.77.46-1.51.29-2.34-.12-.58-.14-1.17-.22-1.76-.02-.17-.08-.34-.09-.51-.03-.38-.04-.76-.06-1.15,0-.04-.05-.1-.09-.11-.07-.02-.17.01-.23-.03-.66-.39-1.33-.76-2.1-.9-.25-.04-.49-.18-.73-.18-.61.01-1.21.08-1.82.13Zm-.63,44.26c-.04-.47-.11-.91-.1-1.36,0-.76.06-1.53.1-2.29.02-.38.06-.76.1-1.13.04-.37.11-.73.13-1.1.03-.39.03-.79.02-1.18-.01-.36-.05-.73-.11-1.09-.02-.14-.07-.35-.17-.4-.16-.08-.38-.09-.56-.06-.51.08-1,0-1.49-.1-.35-.08-.67-.25-1.01-.35-.42-.13-.87-.18-1.28-.34-.79-.31-1.52-.73-2.11-1.35-.13-.14-.28-.26-.41-.41-.27-.32-.53-.64-.8-.97,0,.18.05.35.05.52.03.88.04,1.75.05,2.63,0,.07-.01.15.02.2.15.22.09.44.06.68-.03.22-.03.43-.03.65,0,.27.04.54.04.82,0,.25-.08.49-.08.73,0,.42.04.85.04,1.27,0,.44-.04.88-.03,1.32.01.51.05,1.01.08,1.52.03.66.07,1.31.1,1.97,0,.16.1.22.21.21.54-.03,1.08-.08,1.62-.11.46-.02.92-.03,1.38,0,.58.03,1.15.13,1.72.13.35,0,.7-.13,1.05-.18.45-.07.91-.14,1.4-.21Zm-7.15-23.91c.22-.27.4-.51.61-.73.21-.22.45-.42.66-.64.33-.34.62-.72.97-1.04.27-.25.6-.43.91-.63.19-.12.38-.26.59-.34.33-.13.69-.19,1.02-.32.25-.1.62-.09.61-.51,0-.05.01-.1.01-.15.02-.38.04-.76.04-1.15,0-.13-.02-.33-.11-.38-.57-.36-1.02-.82-1.4-1.38-.4-.59-.53-1.3-.83-1.93-.17-.37-.19-.82-.27-1.24-.06-.35-.1-.71-.15-1.07-.06-.43-.11-.86-.17-1.3-.06-.5-.13-.99-.18-1.49-.03-.35-.03-.71-.06-1.07-.06-.71-.18-1.43-.18-2.14,0-.57.14-1.15.21-1.72-.25-.07-.24.13-.27.24-.08.35-.14.7-.21,1.05-.04.18-.11.36-.15.54-.1.56-.2,1.11-.29,1.67-.09.59-.2,1.18-.26,1.78-.05.45-.04.9-.06,1.35,0,.03,0,.05,0,.08-.01.53-.07,1.07-.03,1.59.05.82.1,1.64-.06,2.46-.13.69-.23,1.39-.36,2.08-.1.56-.21,1.11-.31,1.66-.08.45-.17.91-.24,1.36-.06.37-.14.75-.14,1.12-.01.61.02,1.21.04,1.82,0,.12.02.24.04.4Zm7.85,15.31c-.02.29-.04.6-.06.91,0,.14-.03.28-.03.42,0,.48.02.95.03,1.43,0,.16-.05.33-.04.49.03.55.13,1.1.1,1.65-.03.63,0,1.27-.1,1.9,0,.02.02.04.02.07.02.14.04.29.05.43.03.4.05.81.06,1.15.24.04.41.1.59.1.37,0,.75-.03,1.12-.03.16,0,.32.07.48.09.43.07.86.14,1.29.18.51.05,1,.27,1.47.11.18-1.1.35-2.18.53-3.25-.1.09-.18.19-.29.23-.04.02-.14-.09-.23-.16h-.42c-.04-.05-.12-.15-.22-.26-.06.19-.1.31-.13.43-.02,0-.05,0-.07,0-.05-.08-.09-.16-.12-.22-.12-.05-.21-.09-.31-.13-.01.02-.04.08-.08.14-.13-.34-.23.02-.39-.02-.02-.16-.04-.34-.06-.51-.07,0-.14.01-.2-.02-.06-.03-.11-.09-.2-.17-.05.2-.08.36-.12.51-.25-.05-.37-.17-.34-.43,0-.07-.1-.16-.15-.24-.09.23-.12.41-.34.57v-1.2s-.03,0-.05,0l-.16,1.2s-.03,0-.05,0c0-.04,0-.08,0-.13-.08,0-.14,0-.19.01,0-.19-.01-.35,0-.52.03-.33.08-.67.13-1,.06-.37.06-.76.2-1.1.37-.92.43-1.92.73-2.86-.02,0-.05-.01-.07-.02-.37,1.18-.75,2.36-1.12,3.54.01-.28.08-.54.16-.8.15-.52.31-1.04.46-1.56.12-.44.24-.87.37-1.38-.78.29-1.51.31-2.25.41Zm5,13.91l.05-.12c.07.02.15.03.21.07.29.17.58.14.86,0,.14-.07.28-.26.15-.38-.2-.18-.46-.35-.71-.39-.42-.07-.76-.19-1.13-.43-.46-.3-.57-.7-.62-1.16-.07-.67-.07-1.34-.12-2.01,0-.07-.1-.16-.17-.18-.41-.09-.83-.17-1.24-.24-.24-.04-.47-.06-.71-.06-.05,0-.15.09-.15.14.02.67.05,1.34.07,2.01,0,.1-.04.19-.04.29-.02.27-.02.55-.04.82-.03.35.03.67.27.96.37.43.93.57,1.34.93.1.08.18.18.29.26.13.09.28.17.42.25.22.13.42.29.65.38.4.16.83.26,1.36.21-.09-.13-.13-.24-.21-.29-.25-.17-.52-.33-.78-.49-.03-.02-.04-.08-.07-.12.05-.02.1-.05.14-.04.05.01.09.07.15.09.24.1.47.22.72.27.09.02.22-.12.33-.19-.08-.07-.15-.15-.24-.21-.07-.04-.15-.05-.23-.09-.18-.08-.36-.17-.54-.26Zm-10.63-4.54c0,.32.01.62,0,.93-.02.31-.02.63-.11.93-.07.22-.21.49-.4.6-.43.24-.91.41-1.37.59-.24.09-.51.13-.75.21-.23.08-.39.39-.32.6.06.19.38.35.58.28.27-.09.54-.2.81-.29q.05.19-.14.25c-.22.08-.44.13-.64.24-.08.04-.15.18-.14.27,0,.08.1.23.16.23.26.01.53.11.77-.09.12-.1.26-.23.45-.07-.03.04-.06.09-.1.11-.27.16-.57.29-.82.48-.12.1-.22.31-.21.47,0,.21.23.11.37.13.04,0,.08-.01.12-.03.36-.14.72-.33,1.09-.41.47-.1.86-.35,1.27-.56.17-.09.29-.28.46-.39.31-.21.5-.51.61-.84.08-.23.09-.48.12-.73.04-.4.09-.8.1-1.21.02-.58,0-1.16,0-1.78-.62.03-1.25.06-1.91.09Zm3.37-30.46s-.05.08-.05.13c-.04.57-.07,1.14-.1,1.71-.03.56.04,1.1.15,1.65.1.49.29.92.85,1.01.36.06.74.11,1.1.09.19,0,.42-.11.57-.24.42-.34.42-.88.58-1.35.13-.38.11-.8.24-1.18.21-.62.17-1.24.18-1.89-.16.06-.28.13-.41.15-.48.09-.97.18-1.45.25-.23.03-.48.05-.7,0-.31-.07-.61-.21-.94-.33Zm8.75,22.6c.24.03.42.09.58.05.45-.1.87.02,1.3.08.21.03.43.03.65,0,.27-.02.53-.12.79-.12.35,0,.54-.12.52-.47-.02-.47-.07-.94-.09-1.42-.04-.84-.07-1.67-.1-2.51,0-.15.05-.31.06-.46.02-.27.03-.54.04-.81h-.09c0,.07,0,.14-.02.2-.05.13-.1.34-.19.37-.46.15-.93.27-1.41.36-.16.03-.28.04-.33.21-.03.1-.07.19-.1.25.28.29.57.53.39.97-.01.03.03.08.05.13.08.22.12.43-.08.6-.22.19-.46.38-.67.55.09,0,.23-.05.35-.02.09.02.19.12.22.21.03.1.03.28-.03.32-.32.22-.65.41-1.05.41-.19,0-.36.04-.45.25-.1.27-.22.54-.35.84Zm5.38-8.63c-.12.09-.29.22-.46.36-.28.24-.53.54-.85.72-.26.15-.33.27-.3.55.03.25-.06.52-.08.78,0,.08,0,.21.04.25.58.44,1.14.9,1.91,1.03.54.09,1.05-.01,1.58.02.1,0,.22-.07.3-.14.04-.04.04-.21.01-.22-.18-.08-.42-.25-.54-.19-.25.12-.49.09-.73.11-.07,0-.14-.02-.21-.02.04-.07.07-.16.13-.22.06-.05.14-.09.22-.1.19-.04.31-.13.41-.31.07-.12.23-.24.37-.27.38-.1.5-.41.66-.7-.11.04-.21.11-.3.18-.04.04-.06.11-.11.13-.26.14-.53.27-.8.4-.06.03-.15.01-.23.02v-.09c.28-.17.63-.24.86-.53.24-.29.59-.49.83-.78.15-.17.19-.43.28-.65-.02,0-.04-.02-.06-.03-.53.75-1.35,1.03-2.16,1.33.33-.22.72-.35,1.05-.57.35-.24.64-.56.96-.84-.03,0-.05-.02-.08-.03-.03-.07-.06-.15-.09-.23-.07-.23.04-.38.24-.5-.39.07-.7.25-.93.54-.37.47-.86.74-1.42.91-.06.02-.13-.01-.19-.02.01-.06,0-.14.04-.19.12-.16.27-.29.39-.45.12-.16.23-.34.34-.51-.02-.02-.04-.03-.07-.05-.12.15-.23.38-.38.42-.17.05-.39-.07-.64-.12Zm-14.44-11.79c-.12.26-.25.49-.34.73-.18.5-.19,1.02-.04,1.52.09.3.21.62.41.84.58.61,1.28.97,2.16,1,.64.02,1.12-.29,1.63-.56.36-.2.53-.59.71-.94.05-.1.16-.19.18-.3.08-.3.16-.6.19-.91.02-.29.01-.6-.06-.88-.03-.12-.25-.18-.39-.27-.19-.13-.39-.26-.61-.41-.17.54-.35,1.03-.48,1.53-.09.34-.2.67-.47.89-.21.17-.49.34-.75.36-.36.02-.73-.11-1.09-.17-.45-.08-.7-.41-.79-.81-.12-.51-.18-1.03-.27-1.61Zm10.86,16.78c-.23.14-.43.28-.66.39-.3.15-.6.32-.92.38-.37.07-.77.02-1.15.01-.06,0-.12-.05-.18-.08.05-.04.07-.03.09-.03.99.13,1.87-.14,2.63-.8.04-.03.04-.17,0-.22-.15-.21-.33-.11-.5-.03-.31.14-.6.32-.92.4-.28.07-.6.08-.88.03-.14-.02-.26-.22-.37-.35-.02-.03.04-.16.1-.2.14-.11.32-.18.46-.29.13-.1.27-.22.36-.36.07-.11.09-.26-.1-.33-.09.39-.34.54-.67.35-.26-.15-.42-.07-.62.08-.24.18-.5.37-.78.45-.29.08-.62.03-.93.02-.09,0-.18-.03-.31-.06.06.48.12.92.18,1.31.29.1.55.2.81.28.04.01.11.01.11,0,.08-.16.11-.01.17.02.25.15.5.3.76.45.21.13.52.21.62.4.15.26.4.33.6.43.41.21.88.23,1.34.09.19-.06.39-.11.58-.19.07-.03.11-.15.17-.23-.08-.03-.16-.09-.25-.1-.09-.01-.18,0-.27.03-.51.16-1.02.16-1.44,0,.45-.14.98-.28,1.49-.47.35-.13.53-.45.59-.83-.38.39-.86.6-1.36.69-.51.09-1.04.06-1.56.08,0-.04,0-.08,0-.11.37-.02.75-.03,1.12-.05.47-.03.94-.09,1.31-.42.21-.19.51-.35.39-.77Zm1.56-3.9s-.03-.02-.04-.03c-.47.84-.95,1.68-1.45,2.56.26,0,.45.02.63,0,.46-.05.5-.11.55-.57.02-.18.11-.35.17-.53.02-.06.06-.12.07-.18.03-.42.05-.83.08-1.25Zm-3.64,6.34c-.69,1.73-1.28,3.45-1.44,5.29.03,0,.05.01.08.02.03-.13.06-.26.09-.38h.03c-.01.15-.03.29-.04.43.1-.12.16-.25.19-.38.07-.34.11-.68.19-1.01.09-.42.21-.84.32-1.26.15-.58.29-1.15.45-1.73.08-.3.19-.6.28-.9-.05-.03-.1-.05-.14-.07Zm-2.04,5.31c.28-1.92.7-3.8,1.3-5.65-.04-.01-.1-.04-.2-.08-.71,1.86-1.13,3.76-1.1,5.73Zm-.54-6.65s-.04,0-.06,0c-.07.24-.16.48-.21.72-.19.89-.38,1.79-.55,2.69-.13.64-.25,1.29-.34,1.93-.04.29,0,.6,0,.9.03,0,.06,0,.1,0,.27-.74.16-1.53.31-2.29v.53c.07-.24.1-.48.14-.73.05-.37.1-.73.16-1.1.07-.42.13-.84.21-1.26.08-.42.19-.83.28-1.24.01-.05-.02-.12-.03-.18Zm1.6,6.61c.27-1.77,1.07-3.38,1.53-5.1-.1-.02-.2-.03-.33-.06-.56,1.68-.93,3.41-1.19,5.15Zm-1.21-6.47c-.49,1.62-.65,3.27-.8,4.91.07-.17.11-.35.15-.53.1-.54.21-1.08.3-1.62.09-.49.14-.99.24-1.48.09-.4.23-.78.35-1.17-.08-.04-.14-.07-.24-.12Zm-2.06,5.42s.02,0,.04,0c.05-.67.1-1.35.16-2.02.04-.44.07-.89.17-1.32.16-.72.37-1.43.56-2.15.01-.04.02-.08.01-.12,0-.04-.04-.08-.06-.11-.03.03-.08.05-.08.09-.1.4-.22.79-.29,1.19-.14.76-.25,1.52-.36,2.28-.06.37-.12.73-.14,1.1-.02.35,0,.71,0,1.06Zm3.8,1.08c.13-.94.25-1.84.37-2.74-.15.32-.28.65-.37.98-.07.26-.13.53-.14.79,0,.27.06.54.09.82,0,.04.02.08.04.15Zm-2.71-.61h.05c.06-.98.12-1.96.18-2.89-.07.27-.17.58-.22.9-.05.32-.05.66-.06.98,0,.31-.21.62,0,.97v-.63s.02,0,.04,0v.67Zm-.94-1.79s.06.01.1.02c.21-1.15.41-2.31.62-3.46-.04,0-.08-.01-.13-.02l-.59,3.46Zm9.33-15.31c0-.13.05-.25.01-.32-.13-.21-.28-.4-.43-.59-.03-.03-.08-.04-.12-.07-.02.05-.06.09-.07.14-.03.34.17.63.61.85Zm-.23-3.33c-.36.05-.52.74-.32,1.27.22-.41.42-.79.32-1.27Zm2.07,1.64c-.16-.14-.33-.25-.46-.39-.2-.22-.37-.26-.62-.09.22.34.74.59,1.08.48Zm.61.02c-.02.15.02.31.16.22.23-.14.41-.35.6-.54.01-.01-.06-.17-.1-.18-.26-.03-.5.13-.59.37.05.03.1.06.19.11-.11,0-.18.01-.26.02Zm-2.63-.36c.15,0,.28.04.36,0,.14-.09.27-.22.38-.35.03-.04.02-.14-.01-.2-.01-.03-.11-.02-.17-.01-.28.05-.43.25-.55.57Zm2.5,1.01c.2.08.39.2.6.23.09.01.2-.17.31-.27-.33-.34-.6-.15-.91.04Zm-4.07.31c.27-.09.53-.17.85-.27-.3-.22-.58-.25-.77-.11-.11.08-.21.17-.08.38Zm2.82-.73c-.1-.14-.18-.28-.28-.39-.05-.05-.17-.08-.22-.06-.1.05-.18.14-.26.23-.01.01.04.12.07.13.23.05.44.25.69.08Zm-2.74,1.1c-.4-.24-.54-.24-.79.13.32.21.65.16.79-.13Zm.22-1.21c.36-.31.55-.79.43-1.02-.27.21-.45.62-.43,1.02Zm-7.98,16.18h-.11c-.12.72-.23,1.45-.35,2.18.03,0,.06,0,.09.01.12-.73.25-1.46.37-2.19Zm8-14.81v.58c.16.08.3.11.39-.12.07-.18-.02-.31-.39-.46Zm-.35-1.57c-.29.18-.52.7-.44.95.36-.42.49-.68.44-.95Zm-6.33,14.9s.04,0,.06.01c.17-.66.34-1.32.51-2-.04,0-.11-.01-.11,0-.16.66-.31,1.33-.46,1.99Zm10.87-12.77c.13-.08.22-.13.32-.19-.09-.09-.07-.29-.28-.28-.19,0-.29.12-.32.28,0,.04.17.12.28.19Zm-2.94.5c.16-.18.21-.49.13-.67-.07-.14-.14-.11-.21,0-.11.16-.07.48.09.68Zm.36-2.33c-.13.24-.13.48.02.54.08.03.24,0,.27-.06.21-.32-.15-.32-.29-.48Zm1.47-1.06c.27.22.58.17.9.16-.16-.27-.63-.35-.9-.16Zm-.01,3.39c-.13.1-.25.16-.32.25-.07.09-.11.22-.14.34,0,.02.11.1.13.09.09-.05.21-.11.24-.19.06-.15.06-.33.08-.49Zm-.12-1.95c-.26.23-.3.41-.14.76.28-.28.29-.33.14-.76Zm-4.1.52c.06-.34.12-.63.18-.96-.32.12-.43.7-.18.96Zm7,.09c-.18.01-.33.03-.52.04.08.09.12.14.16.19,0,.01-.02.03-.03.04-.09-.03-.17-.05-.26-.08-.03.05-.07.11-.1.16.42.12.58.05.75-.36Zm-3.35.13c-.34.4-.36.44-.29.68.33-.11.47-.43.29-.68Zm-6.74,10.1c.07.02.14.05.22.07.11-.23.21-.46.33-.74q-.49.38-.56.66Zm4.47-10.11c.16-.1.29-.17.42-.26v-.22c-.19-.02-.51.15-.53.3,0,.06.07.12.11.17Zm2.04-2.82c.02.28.3.09.42.19.02.02.16-.09.23-.16.02-.02,0-.1-.01-.15,0-.02-.07-.03-.11-.02-.17.04-.34.09-.53.14Zm-1.48,1.74c.12-.11.23-.22.33-.32-.33-.02-.62.07-.72.22.14.04.28.07.39.1Zm1.39,2.33c-.19-.01-.36-.03-.53-.03-.03,0-.07.07-.08.11,0,.04.04.09.07.11.19.14.37.16.54-.18Zm-.08,3.84s.01.06.02.1c.29.22.37.19.57-.25-.2.05-.39.11-.59.16Zm-.61-7.89c.41-.41.46-.67.23-.84-.08.29-.15.56-.23.84Zm-.06,1.64c-.2-.11-.29.02-.35.15-.09.18.02.3.18.4.06-.18.11-.36.17-.55Zm2.21-1.33c.2-.2.4-.41.65-.66-.33,0-.62.3-.65.66Zm-.71-.68c-.08-.24-.58-.14-.94.19.34-.07.64-.13.94-.19Zm-.23,2.42s-.05-.05-.08-.08c-.09.05-.23.08-.27.16-.07.14-.06.31.18.4.06-.16.12-.32.17-.47Zm-2.3-1.78c-.03-.07-.07-.17-.12-.28-.02,0-.04,0-.06,0-.09.27-.19.54-.28.81.01,0,.02,0,.03.01.13-.17.27-.34.43-.55Zm5.27.82c-.36-.08-.38-.06-.47.35.07,0,.14-.02.23-.03-.02.07-.03.12-.04.17,0,0,.02,0,.03,0,.08-.17.17-.34.25-.51Zm.95.19c-.22.2-.39.35-.59.53.34.07.57-.12.59-.53Zm-1.08.71c.39-.08.48-.34.24-.65-.08.22-.15.42-.24.65Zm-3.89-.67c-.21-.08-.41-.15-.63-.24-.06.05-.15.12-.26.22.23.02.52-.2.58.25.13-.1.22-.17.3-.23Zm.38-1.27c-.35,0-.49.26-.65.47.24-.11.55-.1.65-.47Zm2.02,3.76s-.05.04-.07.06c.02.04.03.1.06.12.13.09.27.16.41.23.04.02.09.03.14.04-.01-.05-.01-.13-.05-.16-.16-.11-.33-.2-.5-.3Zm-2.24-.57h-.08c-.02-.11-.08-.22-.06-.3.03-.1.13-.18.2-.27-.13-.02-.25-.04-.38-.06.03.14.1.29.06.39-.08.2.03.26.14.36.05-.05.08-.08.11-.12Zm2.1,1.8c.22-.22.09-.5-.24-.59.09.23.17.41.24.59Zm-1.58-6.24c-.11.26-.2.47-.28.67.38-.17.44-.31.28-.67Zm-.65,5.03c.29-.05.41-.21.32-.5-.2.03-.31.21-.32.5Zm-5.64,7.72c-.24.11-.4.18-.56.26.35.17.39.17.49.03.04-.05.03-.14.06-.29Zm4.43-8.04c.3.33.44.32.53,0h-.53Zm1.71-3.09c.05.24.15.25.66.07,0-.02,0-.04,0-.07h-.66Zm-.48,2.54s.02.05.03.08c.35.05.47,0,.53-.33l-.56.25Zm3.26,4.71s-.05-.02-.07-.03c-.36.23-.39.31-.17.58.09-.2.16-.37.24-.55Zm-1.23-6.45c-.16-.3-.42-.25-.67-.32.13.23.23.28.67.32Zm-.25,2.35s-.02-.05-.03-.07c-.1.02-.28.03-.28.07-.02.14.01.29.02.44.02,0,.03,0,.05.01.08-.15.16-.3.24-.45Zm.13-1.68c-.31-.16-.33.1-.41.26.25.1.37.02.41-.26Zm-.4,2.8c-.13.16-.14.3-.02.41.04.03.18.03.21,0,.13-.2-.07-.27-.19-.4Zm-2.13-.72c-.06.17-.1.28-.14.39,0,.03.02.08.04.09.03.02.1.03.12,0,.06-.07.15-.15.15-.23,0-.08-.09-.15-.17-.26Zm1.64,1.44c.1.12.17.21.25.3.14-.13.13-.28.05-.44-.09.04-.16.07-.3.14Zm-4.13-1.01s.04.04.06.06l.73-.85s-.04-.04-.06-.05c-.24.28-.48.57-.72.85Zm3.65-2.45c-.31-.02-.11.36-.33.41.12.04.2.08.27.1.02-.16.04-.32.06-.52Zm1.61,1.01s.02-.1.03-.14c-.21-.04-.42-.07-.63-.11,0,.04-.01.07-.02.11.21.05.42.1.63.15Zm.97.15c.11-.27-.03-.34-.17-.4-.03-.01-.09.04-.13.07.09.1.18.2.3.33Zm-.15-.55c.21-.03.35-.04.48-.06,0-.03,0-.06,0-.09-.12-.03-.24-.07-.36-.07-.03,0-.07.11-.13.23Zm1.5-.47c-.37-.16-.44.18-.65.22.01.02.02.05.04.07.19-.09.38-.18.62-.3Zm-3.78,1.86c.27.2.33.18.54-.17-.2.06-.34.11-.54.17Zm-7.07,7.63c.38-.18.36-.53.48-.8-.15.25-.3.5-.48.8Zm8.37-9.31c0,.28.13.39.45.37-.15-.13-.3-.24-.45-.37Zm-1.06,2.9c.03-.12.07-.2.06-.28,0-.03-.12-.09-.13-.08-.07.06-.13.13-.2.22.1.05.16.09.27.14Zm2.01-3.42c.05.13.08.24.14.38.06-.18.11-.33.18-.53-.14.07-.23.11-.31.15Zm-1.73,1.8s.01-.05.02-.08c-.09-.03-.2-.1-.25-.07-.08.05-.11.17-.2.32.19-.08.31-.12.43-.17Zm.6-3.83s-.07-.03-.11-.05l-.22.53s.07.03.1.04c.08-.17.15-.35.23-.52Zm-6.54,7.01s-.04-.02-.06-.03c-.14.29-.28.57-.42.86.02.01.05.02.07.03.14-.29.27-.57.41-.86Zm3.89-3.4c.05.02.11.04.18.06.03-.09.05-.17.08-.24-.06-.06-.11-.11-.17-.18-.05.06-.09.11-.15.18.08.01.12.02.17.02-.03.05-.06.09-.1.15Zm-.67-1.62c.19.14.34.25.49.37l-.03.06v-.34c-.15-.03-.28-.05-.46-.08Zm3.41,1.7c.07-.09.15-.17.23-.26-.25-.1-.3-.07-.23.26Z"/>
        <path class="cls-1" d="m80.07,74.05s-.06-.08-.09-.13c-.16.13-.32.26-.48.39-.02,0-.04-.02-.06-.03.11-.37.23-.74.34-1.11,0,0-.01,0-.02-.01-.04.07-.08.13-.11.2-.09.27-.17.54-.25.82,0,.03-.03.08-.04.08-.38,0-.32.35-.51.53.04-.36.08-.72.12-1.08-.29.72-.22,1.52.16,1.87-1.14.96-2.23,1.97-2.89,3.35-.02,0-.04-.02-.07-.03-.08-.3-.2-.6-.23-.91-.09-.81-.13-1.62-.21-2.43-.05-.44-.14-.87-.21-1.31-.02-.15-.05-.29-.07-.44-.1-.63-.27-1.23-.53-1.81-.15-.33-.37-.64-.55-.96-.07-.12-.13-.26-.21-.37-.18-.22-.36-.44-.56-.65-.17-.18-.35-.37-.55-.52-.33-.25-.68-.48-1.03-.69-.21-.13-.35-.22-.25-.51.07-.2.01-.45.02-.67,0-.29,0-.59,0-.88,0-.06.05-.13.09-.17.31-.28.64-.54.92-.84.22-.24.4-.53.57-.82.28-.49.55-.98.79-1.48.16-.33.25-.69.37-1.03.14-.4.26-.81.43-1.2.22-.53.33-1.09.43-1.65.08-.41.2-.82.35-1.23.02.12.04.24.05.36.03.7.07,1.39.09,2.09,0,.2-.05.4-.03.59.05.61.12,1.21.19,1.82.04.37.09.73.16,1.1.06.31.16.62.22.93.06.28.12.57.13.86.01,1.1.03,2.19,0,3.29-.02.58-.15,1.16-.18,1.74-.03.53.03,1.06.03,1.6,0,.53-.02,1.07-.04,1.6,0,.21-.04.43-.05.64-.05.6-.11,1.2-.14,1.8-.01.34.04.67.06,1.07.18-.17.16-.35.17-.53,0-.35.03-.7.04-1.05,0-.13,0-.27,0-.4.05-.53.12-1.05.15-1.58.02-.49-.02-.98-.03-1.47,0-.4,0-.8,0-1.2,0-.1.03-.19.04-.29.05-.76.11-1.52.15-2.28.01-.21-.03-.41-.03-.62,0-.61.04-1.21.02-1.82-.02-.55-.05-1.12-.17-1.66-.12-.55-.23-1.09-.23-1.65,0-.08-.06-.15-.09-.23-.02-.07-.05-.14-.05-.21,0-.4,0-.79,0-1.19,0-.36-.04-.71-.05-1.07,0-.8.01-1.6,0-2.4-.01-.43-.09-.85-.15-1.27-.06-.46-.12-.93-.2-1.39-.06-.39-.15-.78-.21-1.17-.07-.48-.12-.96-.19-1.44-.05-.4-.12-.8-.18-1.19-.06-.39-.22-.78-.19-1.16.03-.42-.04-.8-.15-1.19-.1-.37-.44-.53-.66-.79-.03-.04-.08-.07-.19-.16.01.15,0,.25.03.31.07.12.15.23.26.31.39.31.4.77.47,1.2.04.26,0,.54.02.81.04.41.1.81.19,1.26,0-.03.02-.06.03-.13.06.33.11.61.16.91-.34.11-.55-.16-.81-.26-.3-.12-.58-.28-.88-.39-.34-.12-.7-.22-1.05-.3-.13-.03-.27-.03-.41-.02-.2.01-.39.06-.59.07-1,.04-1.99.07-2.99.1-.11,0-.21.03-.31.05-.49.11-.99.22-1.47.35-.25.07-.49.19-.74.26-.29.07-.58.1-.87.17-.11.03-.2.12-.36.15.04-.16.06-.33.13-.48.17-.43.38-.85.53-1.29.09-.27.13-.57.16-.86.05-.49.27-.9.46-1.34.07-.15.14-.29.21-.44-.02,0-.04-.02-.06-.03-.16.35-.35.68-.49,1.04-.14.35-.23.73-.35,1.09-.22.63-.46,1.25-.68,1.89-.18.53-.34,1.07-.53,1.6-.23.66-.32,1.35-.41,2.04-.07.59-.19,1.16-.28,1.75-.05.36-.09.72-.12,1.08-.05.65-.11,1.3-.15,1.95-.01.18.04.36.04.54,0,.58.03,1.16,0,1.74-.04.78-.11,1.55-.2,2.32-.08.77-.19,1.53-.3,2.3-.06.43-.18.86-.24,1.3-.06.38-.1.77-.1,1.16,0,.72.04,1.45.03,2.17,0,.15-.18.29-.26.43-.29.47-.6.92-.85,1.41-.22.43-.37.9-.52,1.36-.11.35-.19.72-.23,1.08-.05.49-.06.98-.08,1.47,0,.11-.04.21-.05.32-.06.92-.02,1.83.2,2.72.12.49.23.98.41,1.45.11.3.33.56.53.82.13.17.22.31.22.54-.02.48,0,.96,0,1.43,0,.51,0,1.02,0,1.54,0,.15.04.29.05.44,0,.35,0,.71,0,1.06,0,.22.04.44.06.69-.09,0-.16.02-.23.02-.7-.02-1.4-.03-2.1-.05-.35-.01-.44-.08-.49-.41-.06-.4-.1-.8-.15-1.2-.06-.53-.14-1.06-.19-1.59-.04-.37-.04-.75-.06-1.13-.01-.22-.04-.44-.06-.67,0-.08,0-.17,0-.25,0-.69,0-1.38,0-2.08,0-.26.02-.53,0-.79-.03-.43-.11-.87-.13-1.3-.02-.35.03-.71.03-1.07,0-.48-.06-.96-.04-1.45.01-.45.09-.9.14-1.35.02-.16,0-.33.04-.49.05-.27.12-.53.17-.8.02-.14,0-.29.01-.43.01-.32.02-.64.04-.96.04-.66.1-1.32.13-1.98.02-.52-.05-1.04,0-1.55.03-.32-.09-.66.14-.98.12-.17.11-.46.12-.69.02-.47,0-.94.01-1.41,0-.19.03-.38.05-.57.07-.59.15-1.18.33-1.76.23-.73.34-1.5.53-2.24.34-1.35.7-2.7,1.06-4.04.17-.62.31-1.26.56-1.84.27-.62.25-1.3.48-1.92.15-.41.29-.83.43-1.25.16-.48.3-.96.47-1.43.21-.57.42-1.14.68-1.7.12-.27.35-.5.52-.75.08-.12.1-.29.2-.39.28-.29.56-.58,1-.61.06,0,.13-.03.19-.06.36-.15.71-.39,1.09-.45.67-.12,1.35-.26,2.05-.15.45.07.91.02,1.37.04.25.02.49.12.74.13.32,0,.64-.06.96-.08.22-.02.45-.02.67-.02.06,0,.11-.01.17-.02-.03-.04-.06-.11-.1-.13-.08-.03-.17-.05-.26-.05-.52-.03-1.05-.06-1.57-.07-.34,0-.67.04-1.01.06-.06,0-.13,0-.19,0,0-.02-.01-.05-.02-.07.25-.07.49-.17.75-.21.75-.14,1.5-.24,2.26-.1.54.11,1.11.07,1.63.35.33.18.74.18,1.1.31.35.13.67.34,1.02.47.47.18.7.55.92.97.2.37.23.76.33,1.14.14.5.29,1,.4,1.51.07.32.07.65.09.97.04.88.3,1.72.53,2.57.19.68.33,1.38.47,2.08.1.45.18.91.25,1.37.05.36.07.72.11,1.08.02.2.07.4.1.61.08.53.17,1.05.25,1.58.05.28.11.56.14.84.05.35.07.71.11,1.07.06.63.11,1.25.16,1.88.06.69.13,1.38.19,2.07.05.62.13,1.23.14,1.85,0,.58-.06,1.16-.09,1.74,0,.19,0,.38.04.56.06.33-.03.63-.14.93-.09.27-.15.54-.24.83Zm-3.52-22.86s-.05.01-.08.02c.04.24.09.47.13.71.08.48.16.97.26,1.45.04.22.15.43.19.66.05.27.06.56.09.83.05.46.13.93.16,1.39.03.36-.04.73.02,1.08.13.78.15,1.57.19,2.36.03.57.04,1.13.05,1.7,0,.41,0,.82,0,1.23.02-.01.03-.02.05-.03.03.04.09.08.1.12.01.14,0,.27,0,.41,0,.53.02,1.06-.01,1.58-.04.58-.12,1.17-.18,1.75-.02.15-.06.3-.04.44.07.79.18,1.58.23,2.37.03.43-.05.86-.03,1.29.04.66.13,1.33.19,1.99.04.51.06,1.02.11,1.53.03.29.1.58.16.86.03,0,.06,0,.08,0,0-.15.04-.31,0-.45-.15-.51-.12-1.03-.14-1.55-.01-.26-.03-.51-.05-.77-.05-.59-.11-1.18-.14-1.78-.02-.4.02-.81,0-1.22-.05-.71-.15-1.41-.19-2.12-.05-.78.03-1.56.1-2.34.05-.57.06-1.14.05-1.71,0-.53-.09-1.06-.1-1.58,0-.54.03-1.08.04-1.62,0-.33.03-.67,0-1-.06-.62-.19-1.24-.24-1.86-.06-.8-.07-1.61-.11-2.41-.01-.22-.05-.44-.09-.66-.08-.4-.16-.8-.26-1.19-.13-.48-.29-.96-.43-1.44,0-.02-.04-.03-.06-.04Zm-13.74,5.05s-.07-.02-.1-.03c-.04.14-.07.29-.12.43-.18.48-.3.98-.51,1.46-.23.54-.34,1.14-.48,1.71-.1.4-.17.82-.24,1.23-.11.65-.22,1.29-.31,1.94-.05.33-.07.67-.11,1.01-.07.68-.13,1.36-.19,2.04.03,0,.06,0,.08.01.02-.09.06-.18.06-.27-.01-.17.01-.35.02-.51.03-.59.11-1.18.2-1.76.08-.61.18-1.22.29-1.83.05-.26.15-.51.2-.78.04-.24-.01-.47.09-.72.16-.41.2-.87.32-1.29.18-.63.4-1.25.6-1.87.08-.25.14-.51.21-.77Zm-2.94,18.7s.06,0,.09.01c.06-.65.12-1.3.18-1.95.04-.38.09-.75.14-1.13.03-.27.15-.55.09-.8-.08-.31.06-.59.04-.89-.02-.32.09-.64.13-.97.03-.21.01-.43.06-.64.17-.71.25-1.42.16-2.14-.03.12-.05.24-.06.36,0,.07.01.14,0,.21-.05.39-.11.78-.16,1.17-.07.48-.13.96-.2,1.44-.03.23-.06.47-.09.7-.05.38.07.76-.05,1.14-.06.18-.02.38-.05.57-.03.27-.09.53-.11.8-.03.41-.03.82-.06,1.22-.02.3-.08.59-.12.89Zm2.26-9.66c-.03.06-.07.13-.08.19-.09.93-.2,1.85-.25,2.78-.04.77-.12,1.54-.3,2.29-.05.21-.05.43-.07.64.59-1.92.5-3.92.7-5.9Zm-1.67,17.1c-.2.32,0,4.33.23,4.69-.08-1.55-.15-3.13-.23-4.69Zm14.87-14s.05,0,.07,0c0-.19.02-.39,0-.58-.03-.23-.12-.45-.13-.68-.02-.46,0-.92-.03-1.38-.01-.13-.02-.25,0-.39.03-.32,0-.64-.02-.96-.02,0-.05,0-.07,0-.12.4,0,3.01.19,3.99Zm-1.5-1.62c-.21.23-.13,1.73.1,2.04-.03-.68-.06-1.34-.1-2.04Zm4.78-4.91s.03,0,.05,0v-2.33s-.03,0-.05,0v2.33Zm-4.21,5.08c-.04.09-.08.12-.07.15,0,.3.01.59.02.89,0,.15-.01.3,0,.45.01.08.09.14.14.21,0-.08.02-.16.02-.25,0-.11-.02-.21-.02-.32-.02-.36.06-.72-.09-1.14Zm-14.56,9.87c.04-.55.07-1.1.11-1.66-.03,0-.06,0-.09,0-.07.55-.16,1.1-.02,1.66Zm3.33-23.59c.15-.4.3-.81.45-1.2-.34.22-.6.9-.45,1.2Zm11.72,17.97s.07,0,.1,0v-1.23s-.05,0-.08,0c-.18.41.07.82-.03,1.23Zm4.15-4.7c-.1.06-.15.08-.15.09.04.44.08.88.12,1.32,0,0,.02,0,.03,0v-1.42Zm-.91-10.47c.09-.55.02-.86-.27-1.27.1.45.18.84.27,1.27Zm-1.72-1.81c-.17.38-.09.77-.09,1.17.03,0,.06,0,.09,0v-1.17Zm-1.93,10.33s-.06,0-.09,0c.04.41.08.82.13,1.29.15-.47,0-.88-.04-1.29Zm-.84-14.55c.14-.2.14-.85-.05-.99.02.32.03.64.05.99Zm5.18,14.26s.06,0,.1,0l-.06-1.14h-.09c.02.39.04.77.06,1.15Zm-2.41-14.32s.04-.01.06-.02c.05-.37-.07-.65-.29-.66.08.23.15.45.22.67Zm.37,9.88s.05,0,.08,0c-.03-.33-.05-.66-.08-.99-.24.35.05.65,0,.99Zm-5.63-10.57s-.05,0-.07,0c.02.3.03.59.05.89.13-.3.13-.59.02-.89Zm7.87,20.65h-.09c.04.34.08.66.12.99h.08c-.04-.34-.08-.66-.11-.99Zm-11.5-18.28s.07,0,.1-.01c-.02-.23-.03-.47-.05-.7h-.12c.02.25.05.48.07.72Zm8.24-.6s.09,0,.13,0c-.02-.19-.04-.38-.05-.57-.03,0-.05,0-.08,0v.57Zm-9-1.32s-.07,0-.11,0c-.02.29-.03.59-.05.88.02,0,.03,0,.05,0,.04-.29.07-.58.11-.88Zm6.74,2.13s.06-.02.09-.03c-.07-.2-.14-.4-.21-.6-.03,0-.06.02-.09.03.07.2.13.4.2.6Z"/>
        <path class="cls-5" d="m66.92,69.64c-.01.1,0,.18-.03.25-.16.49-.17.98-.03,1.48.07.26.14.52.2.78.04.19.12.33.28.47.32.29.67.48,1.08.61.29.09.54.29.86.3.11,0,.21.02.39.04.02.36.05.74.06,1.12.02.51.04,1.02.04,1.52,0,.26-.05.53-.06.79-.01.3-.02.6-.02.89,0,.66,0,1.31,0,1.97,0,.17,0,.34,0,.5,0,.38.03.75.03,1.13,0,.36-.02.72-.02,1.08,0,.05-.02.1,0,.15.15.53-.09,1.06.03,1.63-.27-.05-.48-.08-.69-.14-.52-.14-1.04-.32-1.57-.44-.44-.1-.83-.29-1.19-.55,0,0-.01-.01-.02-.02-.57-.15-.89-.62-1.29-.99-.41-.37-.69-.83-.95-1.31-.02-.03-.05-.06-.04-.08.04-.45-.14-.89-.02-1.34.05-.19.02-.4,0-.6-.02-.59.13-1.14.36-1.67.11-.25.21-.51.31-.77.02-.05,0-.18-.03-.19-.07-.03-.17-.03-.23.01-.07.04-.13.13-.17.21-.15.35-.32.7-.42,1.07-.08.27-.09.57-.11.85-.03.49-.05.98-.05,1.47,0,.62.13,1.21.48,1.75.35.54.77,1.02,1.23,1.46.61.58,1.35.94,2.16,1.2.67.21,1.34.35,2.02.44.5.07.98-.05,1.46-.12.41-.06.83-.12,1.24-.19.27-.04.54-.09.84-.13,0,.46-.01.86,0,1.26.01.3.06.61.11.9.02.13.07.23-.07.35-.08.07-.12.23-.12.36,0,.15-.1.21-.21.22-.53.06-1.03.24-1.56.29-.48.05-.94-.02-1.4.01-.28.02-.56.02-.83,0-.21-.02-.41-.1-.61-.14-.38-.08-.76-.15-1.14-.22-.02,0-.03,0-.05-.02-.27-.15-.57-.18-.87-.23-.26-.05-.5-.13-.76-.2-.3-.08-.52-.3-.76-.48-.58-.45-1.17-.87-1.68-1.39-.23-.23-.4-.49-.55-.77-.2-.38-.45-.72-.66-1.09-.14-.24-.25-.49-.38-.73-.15-.26-.29-.53-.45-.78-.33-.53-.4-1.13-.45-1.74-.04-.45.04-.89-.03-1.35-.05-.34.03-.71.09-1.06.1-.55.2-1.11.37-1.65.16-.49.38-.97.64-1.43.26-.47.56-.93.9-1.34.39-.47.83-.91,1.27-1.32.38-.36.78-.7,1.21-1,.55-.38,1.13-.7,1.7-1.05.04-.02.1,0,.18-.02Z"/>
        <path class="cls-6" d="m70.26,52.32c.6-.05,1.21-.12,1.82-.13.24,0,.48.13.73.18.77.14,1.44.51,2.1.9.06.04.16,0,.23.03.04.01.09.07.09.11.02.38.03.76.06,1.15.01.17.07.34.09.51.07.59.1,1.18.22,1.76.17.82-.12,1.57-.29,2.34-.16.72-.37,1.42-.57,2.13-.11.37-.26.74-.4,1.1-.16.44-.28.89-.5,1.3-.28.52-.68.97-.94,1.49-.29.57-.75.95-1.2,1.36-.24.22-.55.26-.86.27-.41,0-.82,0-1.23-.03-.48-.04-.96-.06-1.44-.2-.97-.28-1.48-.97-1.84-1.83-.24-.57-.47-1.15-.64-1.74-.2-.68-.36-1.37-.42-2.08-.02-.27,0-.54,0-.82,0-.05-.02-.1-.02-.15-.04-.28-.09-.56-.12-.85-.09-.78-.18-1.55-.25-2.33-.04-.46-.07-.93-.05-1.39.03-.58.1-1.17.17-1.75.03-.25.14-.41.43-.44.21-.02.4-.12.61-.17.58-.15,1.18-.26,1.74-.46.82-.3,1.68-.14,2.5-.32,0,.03,0,.05,0,.08Zm-4.18,3.66c.14-.05.27-.11.41-.14.26-.06.55-.06.79-.16.42-.18.77,0,1.15.12.04.01.06.07.09.11.29.4.44.85.49,1.34.03.28.06.57.07.85.03.6.02,1.21.07,1.81.03.36.14.7.21,1.06.03.14-.03.22-.17.24-.19.02-.35-.02-.42-.22-.05-.15.08-.52.19-.58.06-.03.11-.09.17-.14-.4,0-.47.29-.5.55-.02.13.09.33.2.41.18.12.41.26.61-.05.05.28.08.54.4.58.3.04.45-.13.53-.39.01-.05.11-.08.18-.1.12-.05.27-.06.36-.13.34-.27.27-.78-.14-.96-.15-.06-.16-.14-.15-.26,0-.1.04-.19.05-.29.05-.7.09-1.4.16-2.1.03-.27.08-.56.2-.8.29-.54.85-.61,1.39-.69.33-.05.63.07.94.16.35.1.69.23,1.04.35,0,.03-.02.06-.02.09-.05,0-.1,0-.15-.02-.33-.11-.67-.22-1.03-.12-.2.05-.39.09-.59.15-.28.08-.56.17-.83.28-.15.06-.18.17-.06.3.36.38.83.41,1.32.39.24-.01.49-.05.73-.07,0,.03.01.05.02.08-.32.16-.64.32-.96.48.01.02.02.04.03.07.4-.17.8-.33,1.18-.53.41-.21.46-.69.71-1.01-.1-.04-.18-.06-.26-.1-.29-.14-.56-.34-.87-.42-.66-.17-1.33-.32-1.99-.01-.3.14-.59.29-.75.61-.22.44-.19.93-.25,1.39-.06.45-.03.92-.07,1.37-.03.43-.08.85-.15,1.27-.05.3-.16.59-.26.94-.2-.15-.43-.23-.47-.37-.2-.62-.38-1.26-.37-1.92,0-.37,0-.74,0-1.11,0-.16-.04-.31-.05-.47,0-.29.02-.57-.01-.86-.03-.28-.07-.59-.21-.82-.25-.43-.67-.67-1.19-.65-.25.01-.5.09-.75.09-.4,0-.73.14-1.03.39Zm4.05,7.1c-.36.02-.7.05-1.02.25-.5.32-.51.69-.19,1.15.21.3.52.38.8.51.27.12.55.06.78-.1.28-.2.44-.49.54-.81.12-.37.02-.69-.34-.88-.17-.09-.39-.09-.59-.13Zm-3.9-5.98c.61.35,1.48.47,2.08-.07.09-.08.17-.21.17-.32,0-.06-.17-.12-.27-.17-.11-.06-.24-.1-.35-.15-.07-.03-.15-.11-.22-.09-.36.07-.71.15-1.06.23-.17.04-.33.09-.56.15-.12.17,0,.47.41.78-.08-.14-.13-.22-.2-.35Zm5.9,6.15c.03.3.09.61.08.92,0,.32-.09.63-.13.94.35-.36.37-1.64.05-1.85Zm-3.83,1.7c-.36-.61-.72-1.21-.14-1.96-.6.36-.47,1.6.14,1.96Zm-1.56-7.36c.48.19.89.07,1.3.04.02,0,.04-.06.06-.1-.04-.02-.08-.05-.11-.05-.14.01-.27.04-.41.06-.25.02-.51.03-.84.04Z"/>
        <path class="cls-5" d="m69.63,96.58c-.49.07-.95.14-1.4.21-.35.06-.7.19-1.05.18-.57,0-1.15-.1-1.72-.13-.46-.02-.92-.01-1.38,0-.54.02-1.08.08-1.62.11-.11,0-.21-.05-.21-.21-.02-.66-.06-1.31-.1-1.97-.03-.51-.07-1.01-.08-1.52,0-.44.03-.88.03-1.32,0-.42-.04-.85-.04-1.27,0-.24.07-.49.08-.73,0-.27-.03-.54-.04-.82,0-.22,0-.44.03-.65.03-.23.09-.46-.06-.68-.03-.05-.02-.13-.02-.2-.02-.88-.03-1.75-.05-2.63,0-.17-.06-.34-.05-.52.27.32.53.65.8.97.13.15.27.27.41.41.6.62,1.33,1.04,2.11,1.35.41.16.85.21,1.28.34.34.1.67.28,1.01.35.49.11.98.18,1.49.1.18-.03.4-.02.56.06.1.05.15.26.17.4.05.36.09.72.11,1.09.01.39,0,.79-.02,1.18-.02.37-.09.73-.13,1.1-.04.38-.08.75-.1,1.13-.04.76-.09,1.53-.1,2.29,0,.44.06.89.1,1.36Z"/>
        <path class="cls-5" d="m75.08,81.09c-.25.52-.5,1.05-.78,1.62-.2-.2-.42-.4-.62-.62-.19-.2-.41-.39-.53-.63-.21-.43-.38-.88-.52-1.33-.26-.79-.07-1.58.05-2.36.03-.21.18-.4.26-.6.04-.1.06-.22.06-.33,0-.06-.07-.16-.11-.16-.08,0-.2.04-.22.09-.1.27-.2.54-.26.81-.1.45-.21.9-.24,1.35-.07.81.26,1.54.54,2.28.19.49.59.84.92,1.22.17.2.37.37.61.61-.16.44-.35.93-.53,1.42-.05.14-.09.29-.15.43-.02.06-.09.1-.14.14-.05-.06-.14-.12-.15-.18-.03-.21-.03-.43-.06-.64-.01-.07-.12-.17-.17-.17-.4.03-.79.08-1.18.12-.19.02-.39,0-.58.02-.27.03-.53.11-.8.13-.07,0-.2-.08-.22-.15-.28-.93-.23-1.88-.17-2.83.02-.37,0-.74.01-1.11.02-.34.08-.68.12-1.02,0-.01,0-.03,0-.04-.01-.44-.03-.89-.03-1.33,0-.5.04-1,.06-1.51,0-.13-.03-.26-.03-.39,0-.21.05-.41.03-.61-.04-.52-.1-1.05-.18-1.57-.03-.19.04-.25.19-.25.36,0,.65-.18.94-.37.24-.15.52-.27.73-.46.19-.17.33-.41.48-.62.36-.49.47-1.05.46-1.65,0-.17.04-.34.13-.55.22.3.46.58.67.89.27.39.55.79.77,1.2.2.37.36.77.47,1.17.16.55.27,1.11.37,1.67.1.52.16,1.05.24,1.58.08.6.16,1.19.25,1.79.04.28.12.56.21.83.05.15.03.25-.05.39-.34.55-.7,1.09-.87,1.72h0Z"/>
        <path class="cls-1" d="m62.48,72.66c-.02-.16-.03-.28-.04-.4-.02-.61-.06-1.21-.04-1.82,0-.38.08-.75.14-1.12.07-.46.16-.91.24-1.36.1-.55.21-1.11.31-1.66.12-.69.22-1.39.36-2.08.15-.82.11-1.63.06-2.46-.03-.53.02-1.06.03-1.59,0-.03,0-.05,0-.08.02-.45,0-.9.06-1.35.06-.59.17-1.18.26-1.78.09-.56.18-1.11.29-1.67.03-.18.11-.36.15-.54.07-.35.13-.71.21-1.05.03-.11.02-.31.27-.24-.08.57-.21,1.14-.21,1.72,0,.71.12,1.43.18,2.14.03.36.02.71.06,1.07.05.5.12,1,.18,1.49.05.43.11.86.17,1.3.05.36.09.72.15,1.07.07.42.09.87.27,1.24.3.63.42,1.34.83,1.93.38.56.83,1.02,1.4,1.38.08.05.11.25.11.38,0,.38-.03.76-.04,1.15,0,.05-.01.1-.01.15,0,.42-.36.41-.61.51-.33.13-.69.19-1.02.32-.21.08-.4.21-.59.34-.31.2-.64.38-.91.63-.35.32-.64.69-.97,1.04-.21.22-.45.41-.66.64-.2.22-.38.46-.61.73Zm1.39-4.39s.05.02.08.03c.03-.09.09-.17.1-.26.03-.24.04-.48.06-.72.01-.12.03-.24.04-.37.02-.33.03-.67.07-1,.03-.35.11-.7.13-1.05.02-.29.02-.58,0-.87-.03-.33.15-.67-.02-1-.01-.03.02-.07.02-.11,0-.5,0-1.01-.01-1.51-.25.11-.17.28-.15.43.02.25.11.51.05.73-.09.35.03.69-.05,1.04-.09.38.03.8.02,1.2-.01.45-.06.89-.1,1.33-.07.7-.15,1.41-.23,2.11Zm1.35-1.1s-.09-.02-.14-.04c-.1.58-.19,1.15-.29,1.73.04,0,.08.01.12.02.1-.57.2-1.14.31-1.71Zm.83.42c-.04-.43-.08-.85-.12-1.3-.17.35-.1,1.11.12,1.3Zm-2.54,3.09c.18-.29.02-.63.14-.95-.21.13-.26.48-.14.95Zm2.08-2.14s-.05,0-.07,0c0,.16-.09.34.14.47-.02-.16-.05-.32-.07-.48Zm-1.41-8.8s.09,0,.13,0c0-.16-.02-.32-.02-.48-.03,0-.05,0-.08,0,0,.16-.02.32-.03.48Z"/>
        <path class="cls-5" d="m70.33,87.98c.74-.11,1.48-.12,2.25-.41-.13.5-.25.94-.37,1.38-.15.52-.31,1.04-.46,1.56-.08.26-.14.52-.16.8.37-1.18.75-2.36,1.12-3.54.02,0,.05.01.07.02-.3.94-.36,1.93-.73,2.86-.14.34-.14.73-.2,1.1-.05.33-.09.66-.13,1-.02.16,0,.33,0,.52.05,0,.11,0,.19-.01,0,.04,0,.08,0,.13.02,0,.03,0,.05,0l.16-1.2s.03,0,.05,0v1.2c.22-.16.25-.34.34-.57.05.08.16.17.15.24-.03.26.09.38.34.43.04-.16.07-.32.12-.51.09.08.14.14.2.17.06.03.13.01.2.02.02.17.04.35.06.51.15.04.26-.32.39.02.04-.07.07-.12.08-.14.1.04.2.08.31.13.03.05.08.13.12.22.02,0,.05,0,.07,0,.04-.12.08-.24.13-.43.09.12.17.21.22.26h.42c.1.07.19.18.23.16.11-.04.19-.15.29-.23-.17,1.07-.35,2.14-.53,3.25-.47.16-.97-.06-1.47-.11-.43-.05-.86-.12-1.29-.18-.16-.02-.32-.09-.48-.09-.37,0-.75.03-1.12.03-.18,0-.35-.06-.59-.1-.02-.34-.04-.75-.06-1.15,0-.14-.03-.29-.05-.43,0-.02-.03-.05-.02-.07.09-.63.07-1.27.1-1.9.03-.55-.07-1.1-.1-1.65,0-.16.04-.33.04-.49,0-.48-.02-.95-.03-1.43,0-.14.02-.28.03-.42.02-.31.04-.61.06-.91Zm.92,5.27s.06,0,.08,0c.05-.48.11-.96.16-1.44-.02,0-.03,0-.05,0-.07.48-.13.96-.2,1.44Z"/>
        <path class="cls-6" d="m75.33,101.89c.18.09.36.18.54.26.07.03.16.04.23.09.09.06.16.14.24.21-.11.07-.24.21-.33.19-.25-.05-.48-.17-.72-.27-.05-.02-.09-.08-.15-.09-.04,0-.09.03-.14.04.02.04.03.1.07.12.26.17.53.32.78.49.08.06.12.17.21.29-.53.05-.95-.05-1.36-.21-.23-.09-.43-.25-.65-.38-.14-.08-.29-.16-.42-.25-.1-.07-.19-.17-.29-.26-.41-.36-.97-.5-1.34-.93-.24-.28-.3-.6-.27-.96.02-.27.02-.55.04-.82,0-.1.05-.19.04-.29-.02-.67-.05-1.34-.07-2.01,0-.05.1-.14.15-.14.24,0,.48.03.71.06.42.07.83.15,1.24.24.07.01.16.11.17.18.05.67.05,1.34.12,2.01.04.45.16.86.62,1.16.37.24.71.36,1.13.43.26.04.51.22.71.39.14.12,0,.31-.15.38-.28.14-.58.17-.86,0-.06-.04-.14-.05-.21-.07l-.05.12Z"/>
        <path class="cls-6" d="m64.7,97.35c.66-.03,1.3-.06,1.91-.09,0,.62.01,1.2,0,1.78-.01.4-.06.81-.1,1.21-.03.24-.04.5-.12.73-.11.34-.3.64-.61.84-.17.11-.29.3-.46.39-.41.21-.8.46-1.27.56-.38.08-.73.27-1.09.41-.04.01-.08.03-.12.03-.13-.02-.36.08-.37-.13,0-.16.09-.38.21-.47.25-.19.54-.32.82-.48.04-.02.06-.07.1-.11-.19-.16-.33-.02-.45.07-.24.2-.51.1-.77.09-.06,0-.16-.15-.16-.23,0-.09.07-.23.14-.27.2-.1.43-.16.64-.24q.19-.07.14-.25c-.27.1-.54.2-.81.29-.2.07-.51-.09-.58-.28-.07-.22.08-.53.32-.6.25-.08.51-.12.75-.21.47-.18.94-.34,1.37-.59.19-.11.33-.38.4-.6.09-.29.09-.62.11-.93.02-.3,0-.61,0-.93Z"/>
        <path class="cls-6" d="m68.07,66.9c.33.12.63.26.94.33.22.05.47.03.7,0,.49-.07.97-.16,1.45-.25.13-.03.26-.09.41-.15-.01.65.03,1.27-.18,1.89-.13.38-.11.8-.24,1.18-.15.46-.16,1.01-.58,1.35-.15.13-.38.23-.57.24-.37.01-.74-.04-1.1-.09-.56-.09-.75-.52-.85-1.01-.11-.54-.18-1.09-.15-1.65.03-.57.07-1.14.1-1.71,0-.05.04-.1.05-.13Z"/>
        <path class="cls-1" d="m76.82,89.5c.12-.3.24-.57.35-.84.08-.22.26-.25.45-.25.41,0,.74-.19,1.05-.41.06-.04.06-.22.03-.32-.03-.09-.13-.19-.22-.21-.12-.03-.26.01-.35.02.21-.17.44-.35.67-.55.2-.17.17-.38.08-.6-.02-.04-.06-.09-.05-.13.18-.44-.11-.68-.39-.97.02-.06.07-.16.1-.25.05-.17.17-.18.33-.21.48-.09.95-.21,1.41-.36.09-.03.14-.24.19-.37.02-.06.01-.14.02-.21h.09c-.01.27-.02.54-.04.81-.01.15-.07.31-.06.46.03.84.06,1.68.1,2.51.02.47.07.94.09,1.42.02.35-.17.48-.52.47-.26,0-.53.09-.79.12-.21.02-.43.02-.65,0-.43-.05-.85-.18-1.3-.08-.16.04-.35-.03-.58-.05Z"/>
        <path class="cls-6" d="m82.2,80.87c.25.06.47.17.64.12.15-.05.26-.27.38-.42.02.02.04.03.07.05-.11.17-.22.34-.34.51-.12.16-.27.29-.39.45-.03.04-.03.12-.04.19.06,0,.13.04.19.02.56-.17,1.05-.44,1.42-.91.23-.29.55-.47.93-.54-.2.12-.31.27-.24.5.02.08.06.15.09.23.03,0,.05.02.08.03-.32.28-.61.6-.96.84-.33.22-.72.35-1.05.57.81-.3,1.63-.59,2.16-1.33.02,0,.04.02.06.03-.09.22-.14.48-.28.65-.25.29-.6.48-.83.78-.24.29-.58.36-.87.53v.09c.08,0,.17.01.23-.02.27-.12.54-.26.8-.4.05-.02.06-.1.11-.13.09-.07.19-.13.3-.18-.16.29-.28.61-.66.7-.14.04-.3.15-.37.27-.1.18-.22.27-.41.31-.08.02-.16.05-.22.1-.06.05-.09.14-.13.22.07,0,.14.03.21.02.24-.02.48.02.73-.11.12-.06.36.1.54.19.03.01.03.18-.01.22-.08.07-.2.15-.3.14-.52-.03-1.04.07-1.58-.02-.77-.13-1.33-.6-1.91-1.03-.05-.04-.05-.17-.04-.25.02-.26.11-.53.08-.78-.03-.29.04-.41.3-.55.32-.18.56-.48.85-.72.16-.14.34-.27.46-.36Z"/>
        <path class="cls-2" d="m67.76,69.08c.09.57.15,1.1.27,1.61.1.4.34.73.79.81.36.07.73.19,1.09.17.26-.01.54-.19.75-.36.27-.22.38-.55.47-.89.13-.5.31-.99.48-1.53.22.15.41.28.61.41.13.09.36.16.39.27.07.28.08.59.06.88-.03.31-.11.61-.19.91-.03.11-.13.2-.18.3-.19.35-.35.74-.71.94-.51.28-.99.58-1.63.56-.88-.03-1.59-.39-2.16-1-.21-.22-.32-.54-.41-.84-.15-.5-.14-1.02.04-1.52.09-.24.22-.47.34-.73Z"/>
        <path class="cls-6" d="m78.62,85.86c.12.42-.18.58-.39.77-.37.33-.84.39-1.31.42-.37.02-.75.04-1.12.05,0,.04,0,.08,0,.11.52-.02,1.05,0,1.56-.08.51-.08.99-.29,1.36-.69-.06.38-.24.69-.59.83-.51.19-1.04.33-1.49.47.42.15.93.15,1.44,0,.09-.03.18-.04.27-.03.09.01.17.06.25.1-.05.08-.09.19-.17.23-.18.08-.38.14-.58.19-.46.14-.93.11-1.34-.09-.2-.1-.45-.17-.6-.43-.11-.19-.41-.27-.62-.4-.25-.15-.5-.3-.76-.45-.05-.03-.09-.18-.17-.02,0,.02-.08.01-.11,0-.26-.09-.52-.18-.81-.28-.05-.39-.11-.83-.18-1.31.13.02.22.06.31.06.31,0,.64.06.93-.02.28-.08.54-.27.78-.45.21-.16.36-.24.62-.08.33.19.58.05.67-.35.19.07.17.22.1.33-.09.14-.22.26-.36.36-.14.11-.31.18-.46.29-.06.04-.12.17-.1.2.11.14.23.33.37.35.29.05.6.04.88-.03.32-.08.61-.27.92-.4.17-.08.36-.19.5.03.03.05.03.19,0,.22-.75.66-1.63.92-2.63.8-.02,0-.04-.01-.09.03.06.03.12.08.18.08.38,0,.78.05,1.15-.01.32-.06.62-.23.92-.38.22-.11.43-.25.66-.39Z"/>
        <path class="cls-2" d="m77.79,85.3c-.08.18-.27.2-.46.27.09-.24.17-.49.29-.72.21-.42.45-.84.67-1.25.09-.18.18-.36.27-.54.19-.34.38-.68.57-1.02-.02-.01-.04-.02-.06-.03-.07.12-.15.23-.2.35-.11.23-.2.47-.3.71-.2.02-.11-.08-.07-.17.44-1,.94-1.97,1.61-2.84.44-.57.89-1.12,1.33-1.68.03-.04.05-.1.07-.15.15-.17.31-.34.46-.51.14-.09.29-.17.48-.28-.06.1-.09.17-.15.23-.33.33-.69.64-.98,1-.45.56-.86,1.15-1.29,1.73-.06.08-.12.17-.15.28.69-1.12,1.64-2.02,2.6-3.03.02.15.03.24.04.33-.05.07-.1.15-.16.22-.74.81-1.52,1.59-2.08,2.55-.37.65-.77,1.27-1.16,1.91-.2.33-.39.66-.58,1-.13.27-.27.54-.39.81-.07.14-.13.29-.2.44-.05.14-.11.27-.16.41Z"/>
        <path class="cls-2" d="m81.97,77.71c-.15.17-.31.34-.46.51-.35.41-.72.81-1.05,1.23-.39.5-.76,1.01-1.1,1.54-.27.42-.48.88-.7,1.33-.34.69-.67,1.39-1,2.1-.15.33-.28.66-.42.99-.03.07-.09.14-.14.2-.02.02-.08-.01-.17-.03-.05.04-.14.11-.28.22,0-.11,0-.16,0-.21h0c.17-.36.33-.73.5-1.1.09-.2.17-.41.26-.61.22-.35.44-.7.65-1.05.35-.6.68-1.21,1.06-1.79.48-.75.98-1.49,1.51-2.2.37-.51.74-1.05,1.32-1.36.13-.07.27-.14.42-.17-.13.14-.26.28-.39.41Z"/>
        <path class="cls-2" d="m79.15,80.48c-.25.34-.52.67-.73,1.04-.3.52-.56,1.07-.83,1.6-.26.51-.51,1.02-.76,1.52-.05-.17-.09-.33-.14-.5.14-.28.24-.6.44-.83.36-.42.53-.94.79-1.41.28-.51.5-1.06.83-1.54.4-.59.87-1.13,1.33-1.69.2-.24.42-.47.64-.7.17-.18.34-.35.5-.52.19-.12.37-.25.58-.38-.02-.02.02.02.05.05-.73.81-1.47,1.62-2.04,2.55l-.67.8Z"/>
        <path class="cls-2" d="m77.79,85.3c.05-.14.11-.27.16-.41.07-.11.16-.22.22-.35.13-.3.25-.6.38-.9.19-.33.38-.67.58-1,.38-.64.79-1.26,1.16-1.91.55-.97,1.33-1.75,2.08-2.55.06-.07.11-.15.16-.22.04-.03.08-.05.14-.09.04.05.09.11.14.17,0,.02-.02.04-.03.05-.31.32-.63.63-.94.95-.04.04-.05.1-.08.15h0c-.14.15-.29.3-.4.48-.39.59-.77,1.19-1.14,1.79-.36.58-.74,1.15-1.08,1.74-.17.3-.24.65-.39.97-.17.36-.35.72-.56,1.06-.06.1-.23.18-.39.08Z"/>
        <path class="cls-2" d="m80.71,76.86c.15-.07.3-.13.46-.2.02.02.03.03.05.05-.19.2-.38.4-.56.6,0,0,.01.01.02.02.13-.16.27-.31.4-.47.03.02.06.05.09.07-.02.05-.03.12-.06.16-.45.52-.9,1.03-1.34,1.55-.28.33-.54.67-.8,1.02-.27.36-.54.73-.8,1.1,0-.05,0-.11-.01-.14-.88.87-1.28,2.02-1.8,3.11-.1.17-.19.34-.29.51-.02,0-.03-.02-.05-.03.28-.65.52-1.31.84-1.94.22-.45.55-.85.81-1.28.24-.39.44-.8.66-1.2.01-.02.03-.04.09-.04-.05.11-.1.22-.15.34.01,0,.02.01.03.02.03-.05.07-.1.1-.15.19-.33.38-.66.56-.99.07-.08.16-.15.22-.23.44-.53.88-1.06,1.32-1.59.08-.1.15-.2.22-.3Zm-1.51,2.27s-.04-.03-.05-.05c-.25.35-.51.71-.76,1.06.02.01.04.03.05.04l.76-1.05Z"/>
        <path class="cls-2" d="m81.21,77.46c-.17.17-.34.35-.5.52-.22.23-.44.45-.64.7-.45.55-.93,1.09-1.33,1.69-.32.48-.55,1.03-.83,1.54-.26.47-.42.99-.79,1.41-.2.23-.3.55-.44.83-.06.22-.21.14-.34.09.26-.62.53-1.23.79-1.85.2-.27.41-.54.61-.81.23-.32.46-.65.69-.97.35-.51.67-1.04,1.05-1.53.41-.52.86-1.01,1.3-1.51.11-.13.25-.23.43-.4v.29Z"/>
        <path class="cls-2" d="m75.53,84.24c-.1.11-.19.21-.29.32-.02-.01-.03-.02-.05-.04.15-.44.3-.89.46-1.32.08-.22.22-.42.31-.63.15-.33.27-.66.43-.99.17-.37.37-.73.54-1.09.22-.46.42-.94.66-1.39.16-.31.37-.59.57-.88.15-.21.33-.41.51-.61.11-.11.24-.2.35-.31.2-.21.38-.43.58-.65.12-.13.25-.26.42-.43.02.13.02.18.03.23-.21.22-.43.44-.64.67-.14.15-.3.29-.42.46-.37.5-.75,1-1.08,1.53-.3.48-.54.99-.79,1.5-.24.49-.44.99-.66,1.48-.15.33-.33.65-.48.99-.16.38-.3.77-.45,1.16Z"/>
        <path class="cls-2" d="m75.53,84.24c.15-.39.29-.78.45-1.16.14-.33.33-.65.48-.99.23-.49.43-1,.66-1.48.25-.51.49-1.02.79-1.5.33-.53.71-1.03,1.08-1.53.12-.17.28-.31.42-.46.21-.22.43-.45.64-.67.04-.03.08-.05.14-.09.05.05.1.1.2.22-.27.24-.54.47-.8.71-.06.06-.1.14-.15.22h0c-.12.12-.26.23-.36.38-.34.47-.68.93-.99,1.42-.25.39-.44.81-.66,1.21h0c-.17.28-.37.54-.5.84-.32.73-.6,1.48-.91,2.21-.11.26-.29.5-.45.77-.02-.05-.04-.09-.05-.12Z"/>
        <path class="cls-2" d="m74.93,82.89c-.1.24-.2.48-.3.71-.19.47-.38.93-.58,1.4-.02.05-.11.08-.17.12-.02-.02-.03-.03-.05-.05.17-.42.33-.84.5-1.26.25-.61.49-1.23.76-1.83.25-.54.55-1.05.81-1.59.19-.41.33-.84.5-1.26.03,0,.05.01.08.02.01.03.02.05.03.06.62-1.09,1.18-2.24,2.22-3.05-.12.16-.25.31-.36.48-.27.4-.55.79-.8,1.21-.51.88-1.02,1.76-1.5,2.65-.23.43-.41.88-.61,1.33-.17.35-.34.71-.51,1.06Z"/>
        <path class="cls-2" d="m74.44,90.36c.04-.13.08-.25.12-.38.08-.27.17-.54.23-.82.07-.34.1-.7.16-1.04.03-.19.11-.37.17-.58.11.07.2.13.29.17.13.06.12.16.09.26-.24.77-.52,1.53-.72,2.31-.15.58-.2,1.18-.28,1.77-.06.5-.1,1-.14,1.51-.21.02-.22,0-.19-.23.04-.25.05-.5.05-.75-.01.04-.03.08-.06.17,0-.12-.01-.19-.02-.26h-.03c-.03.23-.05.46-.08.7-.02,0-.04,0-.06,0,.05-.41.08-.83.16-1.23.09-.53.22-1.05.34-1.58,0,0,0,0,0,0Z"/>
        <path class="cls-2" d="m77.39,78.93c-.54.78-.94,1.63-1.32,2.49-.27.61-.54,1.21-.81,1.82,0,.02,0,.04.03.08l1.5-3.24s.04.02.06.02c-.08.2-.17.4-.25.6-.18.44-.36.87-.55,1.31-.24.55-.48,1.1-.71,1.65-.11.27-.22.55-.29.83-.06.25-.21.35-.45.4,0-.06-.02-.12,0-.16.22-.64.45-1.28.68-1.91.02-.05,0-.11,0-.17.15-.35.31-.71.46-1.06.1-.18.2-.36.3-.55.22-.43.44-.85.66-1.28.04-.07.06-.15.09-.22.04-.07.07-.14.11-.21.03-.03.07-.06.1-.1.19-.28.37-.56.56-.84h0c-.05.18-.11.38-.16.57h0Zm-2.56,5.35s.05.02.07.03c.1-.29.2-.58.3-.87-.02,0-.04-.01-.06-.02-.1.29-.2.58-.3.86Z"/>
        <path class="cls-5" d="m80.18,81.96c-.02.42-.05.83-.08,1.25,0,.06-.05.12-.07.18-.06.18-.15.35-.17.53-.05.46-.09.52-.55.57-.18.02-.36,0-.63,0,.5-.89.98-1.73,1.45-2.56.01.01.03.02.04.03Z"/>
        <path class="cls-2" d="m76.54,88.3s.08.05.14.07c-.09.3-.2.6-.28.9-.16.57-.3,1.15-.45,1.73-.11.42-.22.84-.32,1.26-.08.33-.12.68-.19,1.01-.03.14-.09.27-.19.38.01-.14.03-.28.04-.42h-.03c-.03.12-.06.25-.09.38-.03,0-.05-.01-.08-.02.16-1.83.74-3.56,1.44-5.29Z"/>
        <path class="cls-2" d="m75.08,81.1c.14-.26.27-.52.42-.77.28-.46.56-.92.85-1.38.21-.34.41-.68.63-1.02.1-.16.23-.3.39-.42-.08.12-.15.23-.23.35-.2.32-.41.64-.61.97-.09.15-.16.33-.27.47-.31.37-.32.85-.51,1.26-.21.46-.47.91-.7,1.36-.17.32-.35.63-.48.96-.25.64-.48,1.3-.71,1.95-.03.09-.09.18-.13.27-.02,0-.05-.02-.07-.03.05-.15.1-.31.15-.46.14-.4.27-.8.42-1.2.24-.61.49-1.22.74-1.84.06-.16.1-.32.15-.49,0,0,0,0,0,0Z"/>
        <path class="cls-2" d="m79.45,77.52c.29-.26.57-.53.86-.79.07-.06.16-.1.25-.15.02.02.03.04.05.07-.22.23-.43.46-.66.69-.54.54-.98,1.14-1.36,1.8-.56.97-1.15,1.94-1.73,2.9-.11.18-.19.37-.29.56-.02,0-.04-.02-.06-.03.16-.37.31-.74.48-1.11.15-.32.31-.63.47-.95,0,0,0,0,0,0,.18-.26.37-.51.54-.78.3-.47.59-.96.89-1.43.18-.28.39-.54.58-.81h0Z"/>
        <path class="cls-2" d="m73.49,87.24c.04-.11.08-.22.16-.42.07.13.15.21.13.27-.09.39-.22.77-.31,1.15-.08.33-.11.68-.18,1.01-.08.41-.18.81-.26,1.22-.14.71-.37,1.41-.35,2.15,0,.06-.03.12-.09.17-.09-1.19.11-2.35.39-3.5v.44s.02,0,.02,0c.06-.43.12-.86.17-1.28.1-.4.21-.81.31-1.21Z"/>
        <path class="cls-2" d="m74.5,93.61c-.02-1.98.4-3.87,1.1-5.73.1.04.16.07.2.08-.6,1.85-1.02,3.73-1.3,5.65Z"/>
        <path class="cls-2" d="m73.96,86.97c0,.06.04.12.03.18-.09.41-.2.82-.28,1.24-.08.42-.15.84-.21,1.26-.06.36-.11.73-.16,1.1-.04.24-.07.48-.14.73v-.53c-.15.76-.04,1.55-.31,2.29-.03,0-.06,0-.1,0,0-.3-.04-.61,0-.9.09-.65.22-1.29.34-1.93.18-.9.36-1.79.55-2.69.05-.25.14-.48.21-.72.02,0,.04,0,.06,0Z"/>
        <path class="cls-2" d="m75.55,93.57c.26-1.75.63-3.47,1.19-5.15.13.02.24.04.33.06-.46,1.72-1.26,3.33-1.53,5.1Z"/>
        <path class="cls-2" d="m75.83,88.97c-.11.32-.25.63-.34.96-.11.4-.19.81-.27,1.22-.09.43-.16.87-.24,1.3-.06.3-.13.61-.2.91,0,.03-.05.04-.08.06-.02-.05-.06-.11-.06-.16.04-.27.09-.53.14-.8.12-.63.22-1.26.35-1.88.1-.46.25-.91.37-1.37.1-.38.2-.77.31-1.17.12.04.19.06.28.09-.09.29-.18.57-.27.84h0Z"/>
        <path class="cls-2" d="m74.28,89.51c-.05.41-.1.83-.14,1.24-.04.34-.07.69-.11,1.03-.06.51-.28,1-.16,1.53,0,.03-.05.08-.13.1v-.78s-.03,0-.05,0v.54s-.05,0-.08,0c.03-.39.04-.79.1-1.18.09-.66.22-1.31.33-1.96.1-.59.18-1.18.31-1.76.07-.33.21-.66.32-.98.02,0,.04,0,.06.01-.06.25-.12.51-.18.76-.09.49-.17.98-.26,1.46Z"/>
        <path class="cls-2" d="m74.34,87.11c.09.05.16.08.24.12-.12.39-.26.78-.35,1.17-.11.49-.16.99-.24,1.48-.09.54-.2,1.08-.3,1.62-.03.18-.08.36-.15.53.15-1.65.31-3.3.8-4.91Z"/>
        <path class="cls-2" d="m75.74,81.58c-.15.35-.31.71-.46,1.06-.3.8-.6,1.6-.9,2.4-.02,0-.03,0-.05,0,0-.09.01-.17.02-.26-.18.03.07.38-.27.3.13-.28.26-.56.37-.83.16-.4.32-.8.48-1.21.02-.04,0-.1,0-.15.17-.35.34-.71.51-1.06.26-.47.51-.95.77-1.42.01,0,.02.01.03.02-.17.38-.33.77-.5,1.15Z"/>
        <path class="cls-2" d="m79.15,80.48c.22-.27.44-.54.67-.8-.14.26-.27.54-.43.79-.27.43-.59.82-.85,1.26-.38.66-.73,1.34-1.09,2.02-.02.04-.03.09-.05.14-.09.2-.17.41-.26.61-.17.37-.33.74-.5,1.11h0c-.05.05-.1.1-.16.16-.02,0-.03-.02-.05-.03.04-.12.08-.23.13-.35.43-.91.83-1.84,1.3-2.73.37-.71.82-1.37,1.24-2.06.02-.03.02-.07.04-.11Z"/>
        <path class="cls-2" d="m75.83,88.98c.12-.26.24-.53.36-.79.02,0,.03,0,.05,0-.02.23-.01.47-.08.69-.22.76-.5,1.5-.7,2.26-.17.63-.28,1.29-.41,1.93-.02.11-.05.22-.13.31.04-.26.08-.51.13-.77.21-1.05.43-2.1.65-3.14.03-.17.09-.33.14-.49,0,0,0,0,0,0Z"/>
        <path class="cls-2" d="m77.55,78.12c.22-.38.42-.77.67-1.13.27-.39.58-.76.87-1.13.03-.03.12-.05.16-.04.13.05.26.13.4.2-.07.06-.13.1-.22.17,0-.08.01-.12.02-.22-.1.08-.16.13-.22.19-.26.27-.51.54-.77.82-.03.03-.04.08-.06.13-.25.32-.51.64-.76.96-.03.01-.06.03-.09.04Z"/>
        <path class="cls-2" d="m80.71,76.86c-.07.1-.14.2-.22.3-.44.53-.88,1.06-1.32,1.59-.07.08-.15.15-.22.23-.06.04-.12.09-.22.17.5-1.03,1.26-1.78,2.11-2.46-.04.06-.08.12-.13.17Z"/>
        <path class="cls-2" d="m72.28,92.52c0-.35-.02-.71,0-1.06.03-.37.09-.73.14-1.1.12-.76.23-1.52.36-2.28.07-.4.19-.79.29-1.19,0-.03.06-.06.08-.09.02.04.05.07.06.11,0,.04,0,.08-.01.12-.19.72-.4,1.43-.56,2.15-.1.43-.13.88-.17,1.32-.06.67-.11,1.35-.16,2.02-.01,0-.02,0-.04,0Z"/>
        <path class="cls-2" d="m74.28,89.51c.09-.49.17-.98.26-1.46.09-.23.18-.46.28-.71.03.05.07.09.07.13,0,.19,0,.39,0,.58,0,.01-.04.02-.07.04h0s.01-.04.02-.07c-.02,0-.04-.01-.06-.02-.18.81-.35,1.62-.53,2.43-.02,0-.03,0-.05,0,.03-.3.06-.6.09-.9Z"/>
        <path class="cls-2" d="m76.09,93.6c-.02-.07-.04-.11-.04-.15-.03-.27-.1-.55-.09-.82,0-.27.07-.53.14-.79.09-.33.22-.66.37-.98-.12.9-.24,1.8-.37,2.74Z"/>
        <path class="cls-2" d="m77.38,78.94c.1-.18.19-.38.31-.54.33-.44.66-.88,1.01-1.3.29-.34.61-.65.95-.94-.76.95-1.52,1.9-2.28,2.85.01.01.03.03.04.04,0-.04-.01-.08-.02-.12,0,0,0,0,0,0Z"/>
        <path class="cls-3" d="m77.14,82.39c-.26.62-.53,1.23-.79,1.85-.16.04-.1-.06-.08-.13.03-.12.05-.25.08-.37.52-1.08.92-2.23,1.8-3.11,0,.04,0,.09.01.14-.02.02-.04.04-.06.06-.45.42-.77.93-1.01,1.49,0,.01.04.04.06.06Z"/>
        <path class="cls-2" d="m73.38,92.99v-.67s-.02,0-.04,0v.63c-.22-.35-.02-.66,0-.97,0-.33,0-.66.06-.98.05-.32.15-.63.22-.9-.06.93-.12,1.91-.18,2.88h-.05Z"/>
        <path class="cls-2" d="m72.44,91.2l.59-3.46s.08.01.13.02c-.21,1.15-.41,2.31-.62,3.46-.03,0-.06-.01-.1-.02Z"/>
        <path class="cls-2" d="m81.77,75.89c-.44-.21-.64-.51-.61-.85,0-.05.04-.09.07-.14.04.02.09.03.12.07.15.19.31.39.43.59.04.07,0,.19-.01.32Z"/>
        <path class="cls-2" d="m81.54,72.56c.1.48-.1.86-.32,1.27-.19-.53-.03-1.22.32-1.27Z"/>
        <path class="cls-2" d="m81.75,79.19c.06-.03.13-.07.19-.1.01.01.03.02.04.03-.56.82-1.12,1.65-1.67,2.47-.02-.01-.04-.02-.06-.03.16-.27.31-.54.47-.8.26-.4.53-.79.79-1.18.08-.13.16-.26.25-.38,0,0,0,0,0,0Z"/>
        <path class="cls-2" d="m83.62,74.2c-.34.11-.87-.13-1.08-.48.25-.17.43-.13.62.09.13.15.3.26.46.39Z"/>
        <path class="cls-2" d="m84.23,74.21c.08,0,.15-.01.26-.02-.08-.05-.13-.08-.19-.11.09-.23.34-.4.59-.37.04,0,.12.16.1.18-.19.19-.38.4-.6.54-.14.09-.18-.07-.16-.22Z"/>
        <path class="cls-2" d="m81.6,73.86c.12-.32.28-.51.55-.57.06-.01.15-.01.17.01.03.05.05.16.01.2-.11.13-.23.26-.38.35-.08.05-.21,0-.36,0Z"/>
        <path class="cls-2" d="m84.1,74.86c.31-.19.59-.38.91-.04-.11.1-.22.28-.31.27-.21-.03-.4-.15-.6-.23Z"/>
        <path class="cls-2" d="m77.14,82.39s-.06-.05-.06-.06c.25-.56.56-1.07,1.01-1.49-.08.14-.16.27-.23.41-.05.11-.08.22-.12.33-.2.27-.41.54-.61.81Z"/>
        <path class="cls-2" d="m80.03,75.17c-.14-.21-.03-.3.08-.38.19-.14.47-.11.77.11-.31.1-.58.19-.85.27Z"/>
        <path class="cls-2" d="m82.84,74.45c-.25.16-.46-.03-.69-.08-.03,0-.08-.12-.07-.13.08-.09.16-.18.26-.23.05-.03.17,0,.22.06.1.11.18.24.28.39Z"/>
        <path class="cls-2" d="m80.1,75.55c-.14.29-.47.35-.79.13.25-.37.38-.37.79-.13Z"/>
        <path class="cls-2" d="m80.32,74.34c-.02-.4.16-.81.43-1.02.12.23-.07.71-.43,1.02Z"/>
        <path class="cls-2" d="m72.33,90.52c-.12.73-.25,1.46-.37,2.19-.03,0-.06,0-.09-.01.12-.73.23-1.45.35-2.18h.11Z"/>
        <path class="cls-2" d="m73.49,87.24c-.1.4-.21.81-.31,1.21,0-.16,0-.32,0-.47.04-.39.1-.77.34-1.13-.01.15-.03.27-.04.39Z"/>
        <path class="cls-2" d="m74.81,88.08c-.05.43-.09.86-.16,1.28-.05.34-.15.67-.22,1,0,0,0,0,0,0-.06.14-.12.28-.18.41,0,0-.01,0-.02,0,.19-.89.38-1.79.57-2.68,0,0,0,0,0,0Z"/>
        <path class="cls-2" d="m80.34,75.71c.37.16.46.28.39.46-.09.23-.23.2-.39.12v-.58Z"/>
        <path class="cls-2" d="m77.64,78.07c.25-.32.51-.64.76-.96.12-.1.23-.2.35-.3,0,0,.01.01.02.02-.16.21-.33.42-.49.63-.22.29-.43.59-.65.89-.01.02-.06.01-.09.02,0,0,0,0,0,0,.03-.1.06-.2.09-.3Z"/>
        <path class="cls-2" d="m79.99,74.15c.05.27-.07.53-.44.95-.08-.25.15-.77.44-.95Z"/>
        <path class="cls-2" d="m73.66,89.05c.15-.66.3-1.33.46-1.99,0,0,.07,0,.11,0-.17.68-.34,1.34-.51,2-.02,0-.04,0-.06-.01Z"/>
        <path class="cls-2" d="m84.54,76.28c-.12-.08-.29-.15-.28-.19.03-.15.13-.27.32-.28.21,0,.19.19.28.28-.09.06-.19.11-.32.19Z"/>
        <path class="cls-2" d="m81.6,76.77c-.16-.2-.2-.52-.09-.68.07-.1.14-.14.21,0,.09.18.03.49-.13.67Z"/>
        <path class="cls-2" d="m81.96,74.44c.14.16.5.15.29.48-.04.06-.2.09-.27.06-.15-.05-.15-.3-.02-.54Z"/>
        <path class="cls-2" d="m83.43,73.39c.27-.19.74-.12.9.16-.32,0-.63.06-.9-.16Z"/>
        <path class="cls-2" d="m83.41,76.78c-.02.16-.03.33-.08.49-.03.08-.15.14-.24.19-.02.01-.14-.07-.13-.09.03-.12.06-.25.14-.34.07-.09.19-.15.32-.25Z"/>
        <path class="cls-2" d="m83.29,74.83c.15.42.14.47-.14.76-.16-.35-.12-.52.14-.76Z"/>
        <path class="cls-2" d="m79.2,75.35c-.25-.26-.14-.83.18-.96-.06.32-.12.62-.18.96Z"/>
        <path class="cls-2" d="m86.19,75.44c-.17.41-.33.48-.75.36.04-.06.07-.11.1-.16.09.03.17.05.26.08,0-.01.02-.03.03-.04-.04-.05-.08-.1-.16-.19.19-.01.34-.03.52-.04Z"/>
        <path class="cls-2" d="m82.85,75.57c.18.25.05.57-.29.68-.07-.24-.05-.29.29-.68Z"/>
        <path class="cls-2" d="m76.11,85.68q.06-.28.56-.66c-.13.28-.23.5-.33.74-.08-.03-.15-.05-.22-.07Z"/>
        <path class="cls-2" d="m80.58,75.57s-.11-.12-.11-.17c.02-.15.34-.32.53-.3v.22c-.14.08-.26.16-.42.26Z"/>
        <path class="cls-2" d="m82.61,72.75c.19-.05.36-.1.53-.14.03,0,.1,0,.11.02.02.04.04.13.01.15-.07.07-.21.18-.23.16-.12-.11-.4.09-.42-.19Z"/>
        <path class="cls-2" d="m81.14,74.48c-.11-.03-.25-.06-.39-.1.1-.15.39-.24.72-.22-.11.1-.22.21-.33.32Z"/>
        <path class="cls-2" d="m82.53,76.81c-.17.35-.35.32-.54.18-.03-.02-.07-.07-.07-.11,0-.04.05-.11.08-.11.17,0,.34.02.53.03Z"/>
        <path class="cls-6" d="m82.45,80.65c.2-.05.39-.11.59-.16-.2.44-.28.47-.57.25,0-.03-.01-.06-.02-.1Z"/>
        <path class="cls-2" d="m81.84,72.76c.07-.28.15-.56.23-.84.24.18.18.43-.23.84Z"/>
        <path class="cls-2" d="m81.77,74.4c-.06.19-.11.37-.17.55-.16-.1-.27-.22-.18-.4.06-.13.15-.26.35-.15Z"/>
        <path class="cls-2" d="m83.98,73.07c.03-.35.32-.65.65-.66-.25.25-.45.45-.65.66Z"/>
        <path class="cls-2" d="m83.27,72.39c-.3.06-.6.12-.94.19.36-.33.86-.43.94-.19Z"/>
        <path class="cls-2" d="m83.04,74.8c-.06.16-.11.31-.17.47-.24-.09-.25-.25-.18-.4.04-.08.18-.11.27-.16.03.03.05.05.08.08Z"/>
        <path class="cls-1" d="m80.75,73.02c-.16.21-.3.38-.43.55-.01,0-.02,0-.03-.01.09-.27.19-.54.28-.81.02,0,.04,0,.06,0,.04.1.09.21.12.28Z"/>
        <path class="cls-2" d="m86.02,73.84c-.08.17-.17.34-.25.51,0,0-.02,0-.03,0,.01-.05.02-.1.04-.17-.08.01-.15.02-.23.03.1-.42.11-.43.47-.35Z"/>
        <path class="cls-2" d="m86.96,74.03c-.02.41-.24.6-.59.53.2-.18.37-.33.59-.53Z"/>
        <path class="cls-2" d="m85.88,74.74c.08-.23.16-.43.24-.65.25.3.16.56-.24.65Z"/>
        <path class="cls-2" d="m81.99,74.07c-.08.06-.18.13-.3.23-.06-.45-.35-.23-.58-.25.11-.09.2-.17.26-.22.22.08.41.16.63.24Z"/>
        <path class="cls-2" d="m82.37,72.8c-.09.38-.41.36-.65.47.16-.22.3-.46.65-.47Z"/>
        <path class="cls-2" d="m84.39,76.56c.17.1.34.19.5.3.04.02.03.1.05.16-.05-.01-.1-.02-.14-.04-.14-.07-.28-.15-.41-.23-.03-.02-.04-.08-.06-.12.02-.02.05-.04.07-.06Z"/>
        <path class="cls-2" d="m82.15,75.99s-.07.07-.11.12c-.11-.1-.23-.17-.14-.36.04-.1-.03-.25-.06-.39.13.02.25.04.38.06-.07.09-.17.17-.2.27-.03.08.03.19.06.28h.08Z"/>
        <path class="cls-2" d="m84.25,77.79c-.07-.18-.15-.36-.24-.59.33.08.46.36.24.59Z"/>
        <path class="cls-2" d="m82.68,71.54c.16.36.1.5-.28.67.09-.21.17-.41.28-.67Z"/>
        <path class="cls-2" d="m82.03,76.58c0-.29.11-.47.32-.5.09.29-.02.46-.32.5Z"/>
        <path class="cls-6" d="m76.38,84.3c-.03.15-.02.23-.06.29-.11.14-.14.14-.49-.03.16-.07.32-.15.56-.26Z"/>
        <path class="cls-2" d="m80.82,76.26h.53c-.09.32-.23.33-.53,0Z"/>
        <path class="cls-2" d="m82.52,73.17h.66s0,.04,0,.07c-.51.18-.61.17-.66-.07Z"/>
        <path class="cls-2" d="m82.05,75.71l.56-.25c-.06.33-.18.39-.53.33-.01-.03-.02-.05-.03-.08Z"/>
        <path class="cls-3" d="m77.64,78.07c-.03.1-.06.2-.09.3-.19.28-.37.56-.56.84-.03.04-.06.07-.1.1.1-.21.2-.43.29-.64.12-.19.24-.37.36-.56.03-.01.06-.03.09-.04Z"/>
        <path class="cls-6" d="m85.31,80.42c-.08.18-.15.35-.24.55-.22-.26-.19-.35.17-.58.02.01.05.02.07.03Z"/>
        <path class="cls-2" d="m84.08,73.97c-.43-.03-.54-.09-.67-.32.24.07.51.02.67.32Z"/>
        <path class="cls-2" d="m77.19,78.67c-.1.21-.2.43-.29.64-.04.07-.07.14-.11.21-.07.08-.14.16-.21.24-.02-.01-.04-.03-.05-.04.22-.35.45-.7.67-1.05Z"/>
        <path class="cls-2" d="m83.83,76.32c-.08.15-.16.3-.24.45-.02,0-.03,0-.05-.01-.01-.15-.04-.3-.02-.44,0-.04.18-.05.28-.07,0,.02.02.05.03.07Z"/>
        <path class="cls-2" d="m83.96,74.64c-.04.28-.17.36-.41.26.09-.16.1-.42.41-.26Z"/>
        <path class="cls-2" d="m83.56,77.44c.12.13.31.2.19.4-.02.04-.17.04-.21,0-.12-.12-.11-.25.02-.41Z"/>
        <path class="cls-2" d="m81.43,76.72c.08.11.17.19.17.26,0,.08-.09.16-.15.23-.02.02-.09.01-.12,0-.02-.01-.05-.07-.04-.09.03-.11.08-.22.14-.39Z"/>
        <path class="cls-2" d="m83.07,78.16c.14-.06.21-.1.3-.14.08.16.09.31-.05.44-.08-.09-.15-.19-.25-.3Z"/>
        <path class="cls-2" d="m78.94,77.16c.24-.28.48-.57.72-.85.02.02.04.04.06.05l-.73.85s-.04-.04-.06-.06Z"/>
        <path class="cls-2" d="m82.59,74.71c-.03.2-.04.36-.06.52-.06-.03-.15-.06-.27-.1.22-.06.02-.44.33-.41Z"/>
        <path class="cls-2" d="m84.2,75.73c-.21-.05-.42-.1-.63-.15,0-.04.01-.07.02-.11.21.04.42.07.63.11,0,.05-.02.1-.03.14Z"/>
        <path class="cls-2" d="m85.17,75.88c-.12-.13-.21-.23-.3-.33.04-.02.1-.08.13-.07.14.06.27.13.17.4Z"/>
        <path class="cls-2" d="m85.02,75.33c.07-.12.1-.23.13-.23.12,0,.24.04.36.07,0,.03,0,.06,0,.09-.13.02-.27.03-.48.06Z"/>
        <path class="cls-2" d="m86.52,74.86c-.24.11-.43.21-.62.3-.01-.02-.02-.05-.04-.07.21-.05.29-.39.65-.22Z"/>
        <path class="cls-2" d="m82.74,76.72c.2-.06.34-.11.54-.17-.21.35-.27.37-.54.17Z"/>
        <path class="cls-2" d="m75.67,84.35c.18-.31.33-.55.48-.8-.12.27-.1.62-.48.8Z"/>
        <path class="cls-2" d="m84.04,75.04c.16.13.3.24.45.37-.32.02-.46-.09-.45-.37Z"/>
        <path class="cls-2" d="m82.97,77.95c-.11-.06-.17-.09-.27-.14.07-.08.13-.16.2-.22.02-.01.13.05.13.08,0,.08-.03.16-.06.28Z"/>
        <path class="cls-2" d="m84.98,74.53c.08-.04.17-.08.31-.15-.07.2-.12.36-.18.53-.05-.14-.09-.25-.14-.38Z"/>
        <path class="cls-2" d="m83.25,76.33c-.12.05-.23.09-.43.17.09-.15.12-.27.2-.32.05-.03.16.04.25.07,0,.03-.01.05-.02.08Z"/>
        <path class="cls-2" d="m83.85,72.49c-.08.17-.15.35-.23.52-.03-.01-.07-.03-.1-.04l.22-.53s.07.03.11.05Z"/>
        <path class="cls-2" d="m77.31,79.51c-.14.29-.27.57-.41.86-.02-.01-.05-.02-.07-.03.14-.29.28-.57.42-.86.02,0,.04.02.06.03Z"/>
        <path class="cls-2" d="m81.2,76.11c.04-.06.07-.1.1-.15-.05,0-.09-.01-.17-.02.06-.07.1-.12.15-.18.06.07.12.12.17.18-.02.08-.05.15-.08.24-.07-.02-.13-.04-.18-.06Z"/>
        <path class="cls-2" d="m80.54,74.49c.18.03.32.06.46.08v.34l.03-.06c-.15-.11-.3-.22-.49-.37Z"/>
        <path class="cls-2" d="m83.95,76.19c-.07-.33-.02-.37.23-.26-.08.09-.15.18-.23.26Z"/>
        <path class="cls-3" d="m76.55,51.18s.05.02.06.04c.15.48.3.96.43,1.44.1.39.18.79.26,1.19.04.22.08.44.09.66.04.8.05,1.61.11,2.41.05.62.17,1.24.24,1.86.03.33.01.67,0,1-.01.54-.05,1.08-.04,1.62,0,.53.09,1.06.1,1.58.01.57,0,1.14-.05,1.71-.07.78-.15,1.56-.1,2.34.04.71.14,1.41.19,2.12.03.4-.01.81,0,1.22.03.59.09,1.19.14,1.78.02.26.04.51.05.77.03.52-.01,1.04.14,1.55.04.14,0,.3,0,.45-.03,0-.06,0-.08,0-.05-.29-.13-.57-.16-.86-.05-.51-.06-1.02-.11-1.53-.06-.66-.15-1.33-.19-1.99-.02-.43.06-.86.03-1.29-.05-.79-.16-1.58-.23-2.37-.01-.14.03-.29.04-.44.06-.58.15-1.16.18-1.75.03-.53.01-1.06.01-1.58,0-.14.01-.27,0-.41,0-.04-.06-.08-.1-.12-.02.01-.03.02-.05.03,0-.41,0-.82,0-1.23-.01-.57-.02-1.13-.05-1.7-.04-.79-.06-1.58-.19-2.36-.06-.35,0-.72-.02-1.08-.03-.47-.11-.93-.16-1.39-.03-.28-.04-.56-.09-.83-.04-.22-.14-.43-.19-.66-.1-.48-.17-.97-.26-1.45-.04-.24-.09-.47-.13-.71.03,0,.05-.01.08-.02Z"/>
        <path class="cls-3" d="m62.8,56.23c-.07.26-.13.52-.21.77-.2.62-.41,1.24-.6,1.87-.12.43-.16.88-.32,1.29-.1.25-.04.49-.09.72-.05.26-.15.51-.2.78-.11.61-.2,1.22-.29,1.83-.08.59-.17,1.17-.2,1.76,0,.17-.03.34-.02.51,0,.09-.04.18-.06.27-.03,0-.06,0-.08-.01.06-.68.13-1.36.19-2.04.03-.34.06-.67.11-1.01.1-.65.2-1.29.31-1.94.07-.41.14-.82.24-1.23.14-.58.25-1.17.48-1.71.2-.48.33-.98.51-1.46.05-.14.08-.29.12-.43.03.01.07.02.1.03Z"/>
        <path class="cls-3" d="m59.87,74.94c.04-.3.09-.59.12-.89.03-.41.03-.82.06-1.22.02-.27.08-.53.11-.8.02-.19,0-.39.05-.57.12-.38,0-.76.05-1.14.03-.23.06-.47.09-.7.07-.48.13-.96.2-1.44.05-.39.11-.78.16-1.17,0-.07-.01-.14,0-.21,0-.12.03-.24.06-.36.1.73.01,1.44-.16,2.14-.05.21-.04.43-.06.64-.04.32-.15.65-.13.97.02.3-.12.57-.04.89.06.24-.05.53-.09.8-.05.38-.1.75-.14,1.13-.07.65-.12,1.3-.18,1.95-.03,0-.06,0-.09-.01Z"/>
        <path class="cls-3" d="m62.12,65.27c-.19,1.98-.1,3.98-.7,5.9.02-.21.02-.43.07-.64.18-.75.26-1.52.3-2.29.05-.93.16-1.86.25-2.78,0-.07.05-.13.08-.19Z"/>
        <path class="cls-3" d="m60.45,82.37c.08,1.56.15,3.14.23,4.69-.23-.37-.43-4.38-.23-4.69Z"/>
        <path class="cls-3" d="m75.32,68.37c-.18-.97-.3-3.58-.19-3.99.02,0,.05,0,.07,0,0,.32.05.64.02.96-.01.14,0,.25,0,.39.04.46,0,.92.03,1.38.01.23.11.45.13.68.02.19,0,.39,0,.58-.02,0-.05,0-.07,0Z"/>
        <path class="cls-3" d="m73.82,66.76c.03.7.06,1.36.1,2.04-.23-.31-.31-1.82-.1-2.04Z"/>
        <path class="cls-3" d="m78.6,61.85v-2.33s.03,0,.05,0v2.33s-.03,0-.05,0Z"/>
        <path class="cls-3" d="m74.39,66.93c.16.41.07.78.09,1.14,0,.11.02.21.02.32,0,.08-.01.16-.02.25-.05-.07-.13-.13-.14-.21-.02-.15,0-.3,0-.45,0-.3-.02-.59-.02-.89,0-.03.03-.07.07-.15Z"/>
        <path class="cls-3" d="m59.84,76.8c-.14-.56-.05-1.11.02-1.66.03,0,.06,0,.09,0-.04.55-.07,1.1-.11,1.66Z"/>
        <path class="cls-3" d="m63.16,53.21c-.15-.3.11-.98.45-1.2-.15.39-.3.79-.45,1.2Z"/>
        <path class="cls-3" d="m74.88,71.18c.09-.41-.16-.82.03-1.23.03,0,.05,0,.08,0v1.23s-.07,0-.1,0Z"/>
        <path class="cls-3" d="m79.03,66.48v1.42s-.02,0-.03,0c-.04-.44-.08-.88-.12-1.32,0-.01.05-.03.15-.09Z"/>
        <path class="cls-3" d="m78.12,56.02c-.09-.43-.18-.82-.27-1.27.3.41.36.72.27,1.27Z"/>
        <path class="cls-3" d="m76.4,54.21v1.17s-.06,0-.09,0c0-.39-.07-.79.09-1.17Z"/>
        <path class="cls-3" d="m74.47,64.53c.04.41.18.82.04,1.29-.05-.46-.09-.87-.13-1.29.03,0,.06,0,.09,0Z"/>
        <path class="cls-3" d="m73.63,49.98c-.02-.35-.03-.67-.05-.99.19.14.19.79.05.99Z"/>
        <path class="cls-3" d="m78.82,64.24c-.02-.38-.04-.76-.06-1.14h.09c.02.37.04.75.06,1.13-.03,0-.06,0-.1,0Z"/>
        <path class="cls-3" d="m76.41,49.92c-.07-.22-.15-.44-.22-.67.22,0,.33.29.29.66-.02,0-.04.01-.06.02Z"/>
        <path class="cls-3" d="m76.78,59.8c.05-.33-.25-.64,0-.99.03.33.05.66.08.99-.03,0-.05,0-.08,0Z"/>
        <path class="cls-3" d="m71.15,49.23c.1.3.11.59-.02.89-.02-.3-.03-.59-.05-.89.02,0,.05,0,.07,0Z"/>
        <path class="cls-3" d="m79.03,69.88c.04.33.08.65.11.98h-.08c-.04-.32-.08-.64-.12-.97h.09Z"/>
        <path class="cls-3" d="m67.52,51.6c-.02-.23-.05-.47-.07-.7h.12c.02.22.03.46.05.69-.03,0-.07,0-.1.01Z"/>
        <path class="cls-3" d="m75.76,51v-.57s.05,0,.08,0c.02.19.04.38.05.57-.04,0-.09,0-.13,0Z"/>
        <path class="cls-3" d="m66.76,49.69c-.04.29-.07.58-.11.88-.02,0-.03,0-.05,0,.02-.29.03-.59.05-.88.04,0,.07,0,.11,0Z"/>
        <path class="cls-3" d="m73.5,51.81c-.07-.2-.13-.4-.2-.6.03,0,.06-.02.09-.03.07.2.14.4.21.6-.03,0-.06.02-.09.03Z"/>
        <path class="cls-3" d="m66.09,55.98c.29-.25.63-.4,1.03-.39.25,0,.5-.08.75-.09.52-.02.94.22,1.19.65.14.24.17.54.21.82.03.28,0,.57.01.86,0,.16.04.31.05.47,0,.37,0,.74,0,1.11-.01.67.17,1.3.37,1.92.04.14.27.22.47.37.1-.36.21-.64.26-.94.07-.42.12-.85.15-1.27.03-.46,0-.92.07-1.37.07-.47.03-.95.25-1.39.16-.32.45-.48.75-.61.66-.3,1.34-.15,1.99.01.3.08.58.28.87.42.08.04.16.06.26.1-.25.32-.3.8-.71,1.01-.38.2-.79.35-1.18.53-.01-.02-.02-.04-.03-.07.32-.16.64-.32.96-.48,0-.03-.01-.05-.02-.08-.24.03-.49.06-.73.07-.48.02-.95,0-1.32-.39-.12-.13-.09-.24.06-.3.27-.11.55-.19.83-.28.19-.06.39-.1.59-.15.36-.09.69,0,1.03.12.05.02.1.01.15.02,0-.03.02-.06.02-.09-.35-.12-.69-.25-1.04-.35-.3-.09-.6-.2-.94-.16-.54.08-1.1.15-1.39.69-.13.23-.18.52-.2.8-.07.7-.11,1.4-.16,2.1,0,.1-.04.19-.05.29,0,.12,0,.19.15.26.41.17.48.69.14.96-.1.08-.24.08-.36.13-.06.03-.16.06-.18.1-.08.27-.23.43-.53.39-.32-.04-.35-.29-.4-.58-.2.31-.43.17-.61.05-.11-.08-.22-.28-.2-.41.03-.27.1-.56.5-.55-.06.05-.11.1-.17.14-.11.06-.24.43-.19.58.07.2.23.25.42.22.14-.02.2-.1.17-.24-.07-.35-.18-.7-.21-1.06-.05-.6-.04-1.21-.07-1.81-.01-.28-.04-.57-.07-.85-.06-.49-.2-.94-.49-1.34-.03-.04-.05-.1-.09-.11-.37-.12-.73-.3-1.15-.12-.24.1-.53.1-.79.16-.14.03-.27.09-.41.14Zm7.03.68c-.11.01-.19.02-.27.04-.26.06-.52.12-.77.21-.08.03-.13.13-.19.19.08.07.14.17.23.2.24.09.49.14.76.22-.13-.4-.09-.63.17-.78-.04.13-.08.22-.09.32-.01.1-.03.24.03.3.05.07.19.09.29.09.15,0,.3-.25.28-.41-.04-.25-.21-.24-.4-.2-.01-.06-.02-.12-.03-.17Zm.1-.03c.62.13.52.48.27.91.3-.1.52-.16.72-.26.2-.1.25-.45.09-.5-.32-.1-.64-.26-1.08-.15Zm-2.75,4.48c.44-.08.53-.14.55-.34.02-.18-.18-.44-.43-.55-.04.29-.08.59-.12.89Z"/>
        <path class="cls-3" d="m70.14,63.08c.2.04.42.04.59.13.36.19.46.51.34.88-.11.32-.27.61-.54.81-.24.17-.52.22-.78.1-.29-.13-.59-.22-.8-.51-.33-.47-.32-.84.19-1.15.32-.2.66-.23,1.02-.25Zm.61.84h-1.68c-.03.44.09.7.4.78.18.05.38.01.57.02.47.03.81-.34.7-.8Zm.11-.32s.03-.09.05-.13c-.09-.07-.16-.18-.26-.2-.48-.09-.96-.14-1.37.2-.05.04-.06.13-.09.19.06,0,.12.03.17.03.27-.02.54-.05.82-.07.23-.01.45-.01.68-.02Z"/>
        <path class="cls-3" d="m66.24,57.1c.07.13.12.22.2.35-.41-.3-.53-.61-.41-.78.23-.06.39-.11.56-.15.35-.08.71-.17,1.06-.23.06-.01.14.06.22.09.12.05.24.09.35.15.1.05.28.12.27.17,0,.11-.08.24-.17.32-.6.54-1.47.42-2.08.07Zm.71-.6c-.3.12-.55.21-.8.31,0,.03,0,.07,0,.1.26.1.52.19.76.28.02-.23.03-.43.05-.69Zm.15.03c-.03.07-.08.14-.07.19.02.16.05.32.12.46.01.03.19-.01.29-.04.18-.05.25-.27.11-.38-.12-.1-.29-.15-.45-.23Zm.59.64c.1-.05.19-.07.24-.12.1-.09.19-.19.29-.29-.08-.05-.17-.1-.25-.16-.03-.02-.04-.06-.07-.07-.15-.05-.3-.09-.45-.13-.02.03-.03.06-.05.08.33.11.37.35.29.67Z"/>
        <path class="cls-3" d="m72.14,63.25c.32.21.29,1.49-.05,1.85.05-.3.12-.62.13-.94,0-.31-.05-.61-.08-.92Z"/>
        <path class="cls-3" d="m68.31,64.95c-.61-.36-.74-1.61-.14-1.96-.57.75-.22,1.35.14,1.96Z"/>
        <path class="cls-3" d="m66.75,57.59c.33-.02.58-.02.84-.04.14-.01.27-.04.41-.06.04,0,.07.03.11.05-.02.03-.04.09-.06.1-.41.03-.82.15-1.3-.04Z"/>
        <path class="cls-3" d="m63.87,68.27c.08-.7.16-1.41.23-2.11.04-.44.09-.89.1-1.33,0-.4-.1-.82-.02-1.2.08-.36-.05-.69.05-1.04.06-.22-.03-.49-.05-.73-.01-.15-.09-.32.15-.43,0,.5.01,1.01.01,1.51,0,.04-.04.09-.02.11.18.33,0,.67.02,1,.02.29.03.58,0,.87-.03.35-.1.7-.13,1.05-.03.33-.04.67-.07,1,0,.12-.03.24-.04.37-.02.24-.03.48-.06.72-.01.09-.06.18-.1.26-.03,0-.05-.02-.08-.03Z"/>
        <path class="cls-3" d="m65.22,67.18c-.1.57-.2,1.14-.31,1.71-.04,0-.08-.01-.12-.02.1-.58.19-1.15.29-1.73.05.01.09.02.14.04Z"/>
        <path class="cls-3" d="m66.05,67.59c-.22-.19-.29-.95-.12-1.3.04.45.08.86.12,1.3Z"/>
        <path class="cls-3" d="m63.51,70.68c-.13-.47-.08-.82.14-.95-.12.32.04.66-.14.95Z"/>
        <path class="cls-3" d="m65.59,68.54c.02.16.05.32.07.48-.23-.12-.14-.3-.14-.47.02,0,.05,0,.07,0Z"/>
        <path class="cls-3" d="m64.18,59.74c0-.16.02-.32.03-.48.03,0,.05,0,.08,0,0,.16.02.32.02.48-.04,0-.09,0-.13,0Z"/>
        <path class="cls-3" d="m71.25,93.25c.07-.48.13-.96.2-1.44.02,0,.03,0,.05,0-.05.48-.11.96-.16,1.44-.03,0-.06,0-.08,0Z"/>
        <path class="cls-3" d="m78.54,83.64c-.12.3-.24.6-.38.9-.06.12-.14.23-.22.35.07-.15.13-.29.2-.44.13-.27.26-.54.39-.81Z"/>
        <path class="cls-3" d="m78.57,83.06c.1-.24.19-.47.3-.71.06-.12.13-.24.2-.35.02.01.04.02.06.03-.19.34-.38.68-.57,1.02,0,0,0,0,0,0Z"/>
        <path class="cls-3" d="m76.64,85.6c.17-.37.33-.74.5-1.11-.17.37-.33.74-.5,1.11Z"/>
        <path class="cls-3" d="m79.21,79.12l-.76,1.05s-.04-.03-.05-.04c.25-.35.51-.71.76-1.06.02.02.04.03.05.05Z"/>
        <path class="cls-3" d="m79.46,77.51c-.19.27-.4.53-.58.81-.31.47-.59.96-.89,1.43-.17.27-.36.52-.54.78.22-.41.42-.82.66-1.21.31-.49.65-.95.99-1.42.1-.14.24-.26.36-.38Z"/>
        <path class="cls-3" d="m74.83,84.28c.1-.29.2-.58.3-.86.02,0,.04.01.06.02-.1.29-.2.58-.3.87-.02,0-.05-.02-.07-.03Z"/>
        <path class="cls-6" d="m73.12,56.66c.01.05.02.11.03.17.19-.05.36-.05.4.2.03.17-.13.42-.28.41-.1,0-.24-.02-.29-.09-.05-.06-.04-.2-.03-.3.01-.1.05-.19.09-.32-.26.14-.31.37-.17.78-.26-.07-.52-.13-.76-.22-.09-.03-.16-.13-.23-.2.06-.07.12-.17.19-.19.25-.08.51-.14.77-.21.08-.02.16-.02.27-.04Z"/>
        <path class="cls-6" d="m73.22,56.63c.43-.11.75.05,1.08.15.17.05.12.4-.09.5-.2.1-.42.15-.72.26.25-.43.35-.78-.27-.91Z"/>
        <path class="cls-6" d="m70.47,61.11c.04-.3.08-.59.12-.89.26.11.46.37.43.55-.02.2-.11.25-.55.34Z"/>
        <path class="cls-5" d="m70.76,63.92c.11.46-.23.83-.7.8-.19-.01-.39.02-.57-.02-.31-.08-.43-.34-.4-.78h1.68Z"/>
        <path class="cls-5" d="m70.87,63.6c-.23,0-.45,0-.68.02-.27.02-.54.05-.82.07-.06,0-.12-.02-.17-.03.03-.07.04-.15.09-.19.42-.33.9-.28,1.37-.2.09.02.17.13.26.2-.02.04-.03.09-.05.13Z"/>
        <path class="cls-6" d="m66.95,56.51c-.02.26-.03.47-.05.69-.24-.09-.5-.19-.76-.28,0-.03,0-.07,0-.1.25-.1.5-.2.8-.31Z"/>
        <path class="cls-6" d="m67.09,56.54c.16.08.33.12.45.23.14.12.07.34-.11.38-.1.03-.28.06-.29.04-.06-.14-.09-.3-.12-.46,0-.05.04-.12.07-.19Z"/>
        <path class="cls-6" d="m67.68,57.18c.08-.32.04-.56-.29-.67.02-.03.03-.06.05-.08.15.04.3.08.45.13.03,0,.05.05.07.07.08.05.17.11.25.16-.1.1-.19.2-.29.29-.06.05-.14.07-.24.12Z"/>
      </g>
    </g>
  </g>
</svg>