<?xml version="1.0" encoding="UTF-8"?>
<svg xmlns="http://www.w3.org/2000/svg" viewBox="0 0 136.06 136.06">
  <defs>
    <style>
      .cls-1 {
        fill: #fff;
      }

      .cls-2 {
        fill: #0c3454;
      }

      .cls-3 {
        fill: #e0e1e3;
      }
    </style>
  </defs>
  <g id="Layer_3" data-name="Layer 3">
    <rect class="cls-3" width="136.06" height="136.06"/>
  </g>
  <g id="B_W" data-name="B&amp;amp;W">
    <path class="cls-2" d="m14.19,114.19c12.57.03,25.17-.21,37.65-.32,5.79.01,11.54.07,17.29-.03,5.75-.13,11.61-.24,17.38-.07,11.77.46,23.57.65,35.36.72,0,.2-.02.41-.04.61,0,.08-.02.15-.03.23-7.47,0-14.93-.05-22.38-.12-7.21-.16-14.38-.56-21.59-.44-11.64.36-23.03.22-34.6.47-9.68.26-19.47.39-29.26.34.09-.46.17-.93.23-1.39Z"/>
    <g>
      <path class="cls-1" d="m84.22,75.58c0,.05-.01.1-.02.14-.21-.04-.42-.09-.63-.14.01-.04.02-.07.02-.11.21.04.42.07.63.11Z"/>
      <path class="cls-2" d="m81.79,77.08c-.21.13-.39.26-.58.38v-.29c-.18.16-.32.27-.43.4-.44.49-.89.98-1.3,1.51-.37.48-.69,1.01-1.04,1.52-.23.33-.46.65-.69.97.04-.11.07-.22.12-.33.06-.14.15-.27.22-.41l.06-.06c.27-.36.53-.73.8-1.1.26-.34.52-.69.8-1.02.44-.52.89-1.03,1.34-1.55.04-.04.04-.11.06-.16-.02-.03-.05-.05-.08-.08.05-.05.09-.1.14-.15-.01-.02-.03-.03-.05-.05-.15.07-.3.13-.45.2.04-.06.08-.12.13-.18-.85.68-1.61,1.43-2.11,2.46.1-.08.16-.12.21-.17-.18.33-.37.66-.56.99-.03.05-.07.1-.1.15-.01-.01-.02-.01-.03-.02l.15-.33c-.06,0-.08.01-.09.03-.22.4-.43.81-.66,1.2-.26.44-.59.84-.82,1.29-.31.63-.56,1.29-.83,1.94,0,0,.03.01.05.02.09-.17.19-.34.29-.51-.03.13-.05.25-.08.37-.02.08-.08.18.08.14.14.04.28.13.35-.1.04.17.09.34.14.5.25-.5.5-1.01.75-1.52.27-.54.53-1.09.83-1.61.21-.36.49-.69.73-1.03-.01.04-.01.08-.03.11-.42.69-.87,1.35-1.24,2.06-.47.89-.87,1.82-1.3,2.73-.05.11-.08.23-.13.35.02,0,.03.02.05.02.05-.05.09-.1.15-.15.01.04.01.1.01.2.14-.11.23-.19.28-.22.09.02.15.04.17.03.05-.06.11-.13.14-.2.14-.33.27-.67.42-.99.32-.71.65-1.41,1-2.1.22-.45.43-.91.7-1.33.33-.53.71-1.04,1.1-1.54.33-.42.69-.82,1.04-1.23-.02.05-.04.11-.07.15-.44.56-.89,1.12-1.33,1.68-.67.87-1.16,1.84-1.6,2.84-.04.08-.12.18.05.17-.08.18-.16.36-.26.53-.22.42-.46.83-.67,1.26-.12.23-.19.48-.29.72.19-.08.38-.1.46-.27.15.1.33.02.39-.08.21-.34.4-.69.56-1.06.15-.31.22-.67.39-.97.34-.59.71-1.16,1.08-1.74.37-.6.75-1.19,1.14-1.79.11-.17.26-.31.4-.47-.08.13-.16.25-.24.37-.26.4-.53.79-.79,1.19-.17.26-.32.53-.47.8.02.01.03.02.05.03.56-.82,1.12-1.64,1.68-2.47-.02-.01-.03-.02-.04-.03-.07.04-.13.07-.19.11h0c.02-.06.04-.11.07-.15.31-.32.63-.63.94-.95.02-.01.03-.04.04-.05-.05-.06-.1-.12-.15-.17-.05.04-.09.07-.14.09,0-.09-.02-.18-.03-.33-.96,1-1.91,1.9-2.6,3.03.03-.11.09-.2.15-.28.42-.58.83-1.17,1.29-1.73.29-.36.65-.66.98-1,.05-.05.08-.13.14-.22-.19.11-.33.19-.48.28.13-.14.26-.28.39-.41-.15.03-.29.1-.42.17-.58.32-.95.85-1.32,1.36-.53.72-1.03,1.46-1.51,2.21-.37.58-.7,1.19-1.06,1.79-.21.35-.43.7-.64,1.05.01-.04.02-.09.04-.13.36-.68.71-1.36,1.09-2.02.26-.44.58-.84.85-1.26.16-.26.29-.53.43-.79.57-.94,1.3-1.74,2.03-2.55-.02-.02-.04-.05-.05-.05Zm-5.34,13.82c-.15.31-.27.62-.36.94-.07.26-.14.53-.14.79-.01.27.05.55.09.82,0,.04.02.08.04.15.13-.93.25-1.81.37-2.7Zm5.39-18.16c.4-.41.46-.65.22-.83-.08.28-.15.56-.22.83Zm-9.34,20.07c-.08.22-.11.4-.33.56v-1.2h-.05c-.06.4-.11.8-.16,1.2-.02-.01-.04-.01-.05-.01,0-.04,0-.08.01-.13-.08,0-.15,0-.19.02,0-.19-.02-.36,0-.52.03-.33.07-.67.12-1,.06-.37.07-.76.2-1.1.38-.92.44-1.91.73-2.85-.02-.01-.04-.02-.07-.02-.37,1.18-.74,2.36-1.12,3.54.01-.28.08-.54.16-.8.15-.52.31-1.04.46-1.56.12-.44.24-.88.37-1.38-.78.29-1.51.31-2.25.42-.02.29-.04.6-.06.9-.01.14-.03.28-.03.42,0,.47.02.95.02,1.42.01.17-.04.33-.03.49.03.55.13,1.11.1,1.65-.04.64-.01,1.28-.1,1.91-.01.02.02.04.02.06.02.15.04.29.05.44.02.4.04.8.06,1.15.24.04.41.1.59.1.38,0,.75-.04,1.13-.03.15,0,.31.07.47.09.43.07.86.14,1.3.18.5.06,1,.28,1.47.11.18-1.1.35-2.18.52-3.24-.1.08-.18.19-.29.23-.04.02-.14-.09-.23-.16h-.42c-.04-.06-.12-.15-.22-.27-.06.19-.09.31-.13.43-.03.01-.05.01-.07.01-.05-.08-.1-.16-.13-.21-.11-.05-.21-.09-.31-.13-.01.03-.04.08-.08.15-.13-.35-.23.01-.39-.03-.02-.16-.04-.34-.06-.51-.06,0-.14.01-.2-.02-.06-.02-.11-.09-.2-.16-.04.2-.08.35-.12.51-.24-.05-.37-.17-.33-.43,0-.08-.09-.15-.16-.23Zm3.07.63c.29-1.72,1.06-3.29,1.5-4.97-.09-.02-.2-.03-.33-.06-.55,1.65-.91,3.32-1.17,5.03Zm5.43-18.54s.02-.03.03-.04c-.01-.01-.02-.02-.03-.02v-.27c-.15-.02-.28-.05-.47-.08.18.13.33.24.47.35v.06Zm.28.86c-.05.07-.09.11-.15.18.08.01.13.01.17.02-.03.05-.06.09-.1.15.06.02.11.04.18.06.03-.09.05-.16.08-.24-.06-.06-.11-.11-.18-.17Zm-2.43-.98c.2-.18.15-.53.51-.52.01,0,.03-.05.04-.08.08-.28.16-.55.25-.82.02-.07.07-.13.11-.2,0,0,.01.01.02.01-.12.37-.23.74-.35,1.11l.06.03c.16-.13.33-.26.48-.39.04.04.07.08.1.12.08-.29.14-.56.23-.83.11-.3.2-.6.15-.93-.04-.19-.05-.38-.04-.56.02-.58.1-1.16.09-1.74-.01-.62-.09-1.24-.15-1.86l-.18-2.07c-.06-.63-.11-1.25-.17-1.88-.03-.35-.06-.71-.1-1.07-.04-.28-.1-.56-.15-.84-.08-.52-.16-1.05-.25-1.57-.03-.21-.07-.41-.1-.61-.04-.36-.05-.72-.11-1.08-.06-.46-.15-.92-.24-1.37-.15-.7-.29-1.4-.48-2.08-.23-.85-.48-1.68-.53-2.57-.01-.32-.02-.65-.08-.97-.11-.51-.26-1-.4-1.51-.11-.38-.14-.77-.33-1.14-.23-.42-.45-.79-.92-.97-.35-.13-.67-.34-1.02-.46-.36-.13-.77-.13-1.1-.31-.52-.28-1.09-.25-1.63-.35-.75-.15-1.51-.04-2.26.09-.25.05-.49.14-.74.22,0,.02.01.05.02.07.06,0,.12,0,.19,0,.33-.02.67-.06,1.01-.06.52,0,1.04.04,1.57.06.08.01.18.03.26.06.04.02.07.08.1.13-.06,0-.11.01-.17.02-.22.01-.44.01-.67.02-.32.03-.64.09-.96.08-.25,0-.49-.11-.74-.13-.45-.02-.92.03-1.37-.04-.7-.11-1.37.03-2.04.15-.38.07-.73.3-1.09.46-.06.02-.12.05-.19.05-.44.03-.72.33-1,.61-.1.1-.12.27-.2.39-.17.25-.39.48-.52.75-.25.55-.47,1.12-.68,1.7-.17.47-.31.95-.47,1.43-.14.41-.27.83-.42,1.24-.23.62-.21,1.3-.48,1.92-.26.58-.4,1.22-.57,1.84-.36,1.35-.71,2.7-1.05,4.05-.19.74-.3,1.51-.53,2.24-.18.58-.26,1.16-.33,1.75-.02.19-.04.38-.05.57,0,.47.01.94,0,1.41-.01.24,0,.52-.12.7-.23.32-.1.65-.14.97-.05.51.02,1.03,0,1.55-.03.66-.09,1.32-.13,1.98-.02.31-.03.63-.04.95,0,.15.01.29-.01.43-.05.27-.12.54-.17.81-.03.16-.02.33-.04.49-.04.45-.12.9-.14,1.35-.01.48.04.96.04,1.44,0,.36-.04.72-.03,1.07.02.44.1.87.13,1.3.02.26.01.52.01.79v2.07c0,.09-.02.17-.01.26l.06.66c.02.38.02.76.06,1.13.05.53.12,1.06.19,1.59.05.4.08.8.15,1.2.05.33.14.4.49.41.7.02,1.4.03,2.1.05.07,0,.14-.01.23-.02-.02-.24-.05-.47-.06-.69-.01-.35.01-.7,0-1.06,0-.14-.05-.29-.05-.44v-1.53c0-.48-.01-.96.01-1.44.01-.22-.09-.37-.22-.54-.2-.25-.41-.52-.53-.82-.18-.46-.29-.96-.41-1.44-.23-.9-.27-1.81-.2-2.73,0-.1.04-.21.04-.31.03-.49.03-.99.09-1.47.04-.37.12-.74.22-1.09.15-.46.3-.93.52-1.36.25-.49.56-.94.85-1.41.09-.14.26-.28.26-.43.02-.72-.03-1.45-.02-2.17,0-.39.04-.78.1-1.16.06-.44.18-.86.24-1.3.11-.76.22-1.53.3-2.29.09-.78.16-1.55.2-2.33.03-.57.01-1.16,0-1.73,0-.19-.05-.37-.04-.55.04-.65.09-1.3.15-1.95.03-.36.06-.72.11-1.08.09-.58.21-1.16.28-1.75.09-.69.18-1.38.41-2.04.19-.53.34-1.07.53-1.6.22-.63.46-1.25.68-1.88.13-.36.21-.74.35-1.09s.33-.69.49-1.04l.06.03c-.07.15-.14.29-.2.44-.19.43-.42.85-.46,1.34-.03.29-.07.59-.16.86-.15.44-.36.86-.54,1.29-.06.15-.08.32-.12.48.16-.04.25-.13.36-.15.29-.07.59-.1.87-.17.26-.07.49-.19.74-.26.49-.13.98-.23,1.47-.35.11-.02.21-.05.32-.05,1-.04,1.99-.07,2.99-.1.2-.01.39-.06.59-.07.13-.01.27-.01.4.02.36.09.71.18,1.06.3.3.11.58.27.88.39.26.11.47.37.81.26-.05-.29-.1-.58-.16-.9,0,.06-.02.09-.03.12-.1-.44-.16-.85-.19-1.25-.02-.27.03-.55-.02-.81-.07-.43-.08-.89-.47-1.2-.1-.08-.19-.19-.25-.31-.04-.07-.03-.17-.04-.31.11.09.16.12.2.16.22.26.55.42.65.79.11.39.18.77.15,1.19-.02.38.13.77.19,1.16.07.39.13.79.18,1.19.07.48.12.96.19,1.44.06.39.15.78.22,1.17.07.46.13.93.19,1.39.06.42.14.85.15,1.27.03.8,0,1.6.01,2.4,0,.36.04.71.05,1.07.01.39,0,.79,0,1.18,0,.07.03.14.06.21.02.08.08.15.08.23,0,.56.12,1.1.24,1.64s.14,1.1.16,1.66c.02.6-.01,1.21-.02,1.81,0,.21.04.42.03.62-.04.76-.1,1.52-.15,2.28,0,.1-.04.2-.04.29v1.2c.01.5.05.99.03,1.48-.02.52-.1,1.05-.15,1.58,0,.13.01.27,0,.4,0,.35-.03.7-.04,1.05-.01.18.01.36-.17.53-.02-.16-.03-.32-.04-.47-.02-.2-.03-.4-.02-.59.02-.6.08-1.2.13-1.8.02-.22.05-.43.05-.65.02-.53.05-1.06.04-1.59,0-.54-.05-1.07-.03-1.6.03-.58.17-1.16.18-1.74.03-1.1.02-2.2.01-3.29-.01-.29-.07-.58-.13-.86-.06-.31-.16-.62-.22-.93-.06-.36-.11-.73-.16-1.09-.07-.61-.14-1.21-.19-1.82,0-.2.04-.4.04-.59-.03-.7-.06-1.4-.09-2.09-.01-.12-.03-.24-.05-.36-.15.41-.27.82-.35,1.23-.11.56-.21,1.12-.43,1.65-.17.39-.29.8-.43,1.2-.12.35-.22.71-.37,1.04-.24.5-.51.99-.79,1.48-.17.29-.35.58-.57.82-.28.31-.62.56-.92.85-.05.04-.09.11-.1.16-.01.3,0,.59-.01.88,0,.23.06.47-.01.68-.1.29.05.38.25.51.35.21.7.45,1.03.69.2.15.38.34.55.52.2.2.39.42.56.64.09.11.14.25.21.37.19.32.41.63.56.96.26.58.43,1.19.53,1.81.02.15.04.29.07.44.07.44.17.87.21,1.31.07.6.11,1.2.16,1.79.02.22.04.43.06.64.03.3.15.6.23.9.02.01.05.02.07.03.65-1.38,1.74-2.39,2.89-3.35-.39-.36-.45-1.16-.17-1.88-.04.36-.08.71-.12,1.07Zm-2.72,8.81c-.15.24-.29.48-.46.76.36-.17.36-.5.46-.76Zm7.43-6.14c-.13.16-.14.29-.02.4.04.04.18.03.21-.01.12-.2-.07-.27-.19-.39Zm-8.31,16.19c.1-.12.16-.24.19-.37.07-.34.11-.68.18-1.02.1-.42.21-.83.32-1.25.15-.58.29-1.16.45-1.73.08-.3.19-.6.28-.9-.05-.03-.09-.05-.14-.07-.69,1.73-1.27,3.45-1.43,5.29.02,0,.05.01.07.02l.09-.39s.02.01.03.01c-.01.14-.03.27-.04.41Zm10.64-17.68c.4.15.7-.02,1.05-.12-.05.06-.08.13-.13.15-.39.13-.77.25-1.18.03-.14-.08-.33-.07-.53-.1.08.31.3.27.46.34.06.04.12.09.18.13-.01.03-.03.05-.04.07.25.02.5.03.8.05-.15.04-.26.09-.37.1-.35.02-.68-.07-.98-.25-.21-.12-.35-.08-.48.17.24.04.47.07.69.1-.1.04-.21.08-.27.1,0,.19-.02.34-.03.55.26.03.56.06.83.08-.53.18-1.02-.01-1.49-.31-.02.02-.03.05-.04.07.03.01.06.03.1.04.03.02.06.05.16.11-.14-.03-.2-.04-.31-.07.2.25.33.48.03.77.25.13.48.25.72.37-.5.05-.77-.4-1.15-.59-.13.33.06.57.46.62.18.02.36.05.54.1-.27.1-.52.02-.76-.09-.11-.06-.21-.15-.33-.17-.09-.02-.22.03-.3.09-.1.06-.16.17-.24.27-.09-.1-.19-.2-.3-.33,0,.01-.06.05-.1.09-.64.58-1.15,1.26-1.58,2-.07.14-.16.27-.27.38-.25.25-.25.54-.21.9.25-.18.47-.35.7-.51.38-.27.75-.54,1.14-.79.13-.08.29-.11.44-.12.1-.01.23.04.3.12.11.13.14.3.04.47s-.19.34-.29.51c.02.01.03.03.05.05.13-.09.28-.17.4-.27.37-.31.71-.64,1.09-.93.17-.13.39-.21.6-.25.08-.01.23.12.27.22s.02.25-.02.37c-.11.38-.23.77-.37,1.15-.15.4-.29.81-.51,1.17-.18.28-.47.5-.73.73-.17.14-.39.24-.57.41.11-.01.21-.04.32-.03.22.01.44.01.65.08.1.03.2.19.22.31.02.08-.08.22-.16.29-.28.22-.63.2-.96.2s-.67,0-.99-.06c-.3-.05-.58-.21-.88-.25-.29-.04-.46-.23-.65-.41-.03-.02-.08-.02-.16-.05v.82c0,.64-.01,1.29,0,1.94,0,.33.02.65.04.98,0,.24,0,.49.02.73.02.28.05.56.08.83.03.23-.07.37-.31.39-.38.03-.76.03-1.13.11-.29.07-.6.02-.87.07-.57.11-1.09-.2-1.64-.09-.17.03-.23.07-.25.23-.09.58-.19,1.16-.27,1.74-.06.38-.09.77-.13,1.15-.02.2-.03.4-.05.6-.01.04-.03.08-.06.13-.04.07-.13.14-.14.22-.06.79-.1,1.57-.16,2.36-.01.27-.03.53-.04.8,0,.14,0,.2-.2.17-.21-.03-.44.04-.67.05-.26.01-.52,0-.84,0,.05.6.1,1.17.15,1.75.02.28.02.55.06.82.05.44.41.82.85.93.19.04.39.05.57.12.32.12.63.27.92.44.14.07.16.23.06.36-.13.16-.29.32-.43.47.03.11.15.29.11.41-.04.14-.22.23-.32.32.02.13.06.27.04.4-.01.05-.15.13-.22.13-.28-.01-.57,0-.83-.08-.64-.23-1.28-.47-1.88-.79-.53-.29-1.1-.58-1.43-1.12-.23-.37-.36-.79-.27-1.26.04-.19,0-.39.01-.58.03-.41.09-.82.1-1.24,0-.38-.03-.77-.06-1.16-.01-.14-.07-.25-.27-.24-.27.01-.53-.03-.79-.05-.07.29-.28.38-.56.32-.21-.04-.43-.01-.65-.01-.49-.01-.97-.02-1.46,0-.31.01-.62.07-.94.11-.01.01-.03.03-.03.05-.05,1.08-.08,2.16-.16,3.24-.06.65-.38,1.19-.97,1.51-.66.36-1.32.73-2.03.98-.35.12-.74.33-1.17.23-.16-.04-.25-.15-.23-.26.06-.24.05-.56.38-.65.02,0,.04-.02.04-.02-.17-.05-.4-.05-.51-.17-.11-.1-.1-.33-.14-.5.03,0,.05-.01.07-.02l-.15-.12c-.21-.13-.39-.28-.35-.57.05-.32.25-.51.54-.6.31-.11.63-.18.92-.31.39-.17.77-.36,1.11-.61.27-.19.37-.48.31-.85-.05-.26.03-.55.05-.83,0-.07.03-.13.01-.19-.06-.33-.1-.35-.57-.38-.43-.03-.86.08-1.29-.03-.19-.05-.41.02-.61.04-.17.01-.22-.09-.22-.23,0-.4.01-.79,0-1.19-.02-.43-.06-.85-.09-1.28-.01-.08-.01-.15-.01-.23,0-.62.01-1.23,0-1.85-.01-.56-.05-1.12-.04-1.67,0-.29.05-.58.09-.86.02-.17-.05-.23-.21-.22-.44,0-.87.02-1.31-.01-.47-.02-.94-.09-1.44-.14-.05-.66-.09-1.27-.15-1.87-.05-.48-.13-.95-.19-1.42-.04-.38-.09-.75-.11-1.13-.03-.93-.02-1.85-.06-2.78-.03-.71-.12-1.43-.17-2.14-.02-.3-.01-.61-.02-.91,0-.29-.06-.59-.05-.89.02-.58.08-1.16.11-1.73.02-.38.03-.75.04-1.12,0-.16-.01-.33,0-.48.03-.42.06-.84.1-1.26.06-.53.13-1.05.19-1.57.01-.04.01-.08.01-.12.02-.78.03-1.55.05-2.33.02-.77.01-1.54.06-2.32.02-.39.12-.79.2-1.18.21-.93.43-1.86.64-2.79.12-.51.23-1.03.36-1.53.12-.47.28-.94.4-1.41.21-.75.39-1.51.6-2.26.16-.58.37-1.15.52-1.73.12-.47.16-.96.29-1.42.12-.49.3-.96.47-1.43.16-.46.33-.92.51-1.37.3-.75.6-1.5.92-2.25.14-.33.3-.65.6-.89.09-.07.13-.19.19-.28.31-.5.84-.69,1.32-.93.2-.1.42-.18.64-.22.45-.08.9-.14,1.35-.18.46-.04.94-.03,1.4-.07.2-.02.39-.11.57-.19.5-.24,1.04-.23,1.57-.3.79-.1,1.56.07,2.33.2.32.05.64.14.96.2.06.01.14-.02.21-.03.07,0,.15-.02.22,0,.22.09.45.18.67.29.45.22.9.46,1.35.69.15.08.29.18.42.28.38.32.44.76.44,1.21.01.54.16,1.04.37,1.53.14.34.2.72.28,1.09.12.53.24,1.07.32,1.61.1.57.16,1.15.24,1.73.06.45.12.91.19,1.36.08.59.17,1.19.26,1.78.1.66.21,1.32.31,1.99.07.42.13.84.19,1.26.08.53.15,1.07.22,1.61.05.34.09.68.13,1.02.06.43.12.86.18,1.3.01.12.02.25.03.38.04.58.09,1.17.13,1.75.02.21.06.43.06.64,0,.7,0,1.41,0,2.11-.01.27-.1.54-.09.81.03.44.1.87.16,1.31.03,0,.06,0,.09.01.2-.47.39-.93.58-1.39.03.01.05.02.07.03-.07.2-.15.4-.24.61.14-.01.26-.02.37-.03.17-.49.34-.97.51-1.46.01-.01.06,0,.11.01-.11.27-.21.53-.31.79.12.06.23.12.35.17.16-.33.19-.76.49-1.04.02.02.04.03.07.04-.11.17-.21.34-.31.52q.34.17.28.69c.11-.03.21-.07.32-.07.17,0,.24.12.21.29-.01.1-.01.19-.01.3.24-.06.26-.57.57-.24.23-.27.46-.53.69-.79.03.03.07.06.1.09-.21.2-.41.41-.62.62.02.02.03.04.05.06.07-.05.14-.1.21-.13.08-.03.17-.03.26-.04,0,.09.01.18.01.27,0,.03-.02.06-.03.1h.68c-.07.29-.1.28-.32.15-.11-.07-.32-.04-.47,0-.09.02-.16.14-.31.28.22.02.38.02.53.04.21.03.4.11.51.33-.19-.08-.36-.16-.53-.23-.06.14-.11.24-.15.35.19.03.38.06.58.1-.01.11-.01.21-.03.35.24-.14.46-.28.65-.4,0,0-.02.07-.03.12h.35c.1-.15.21-.31.33-.48.01.01.03.02.05.03-.09.15-.17.29-.27.45.31,0,.18.24.22.37.28-.31.55-.61.83-.92.03.03.05.05.08.07-.22.27-.57.45-.66.78h.43c-.04.15-.08.3-.13.45-.01.04-.05.09-.08.12-.13.14-.27.28-.41.42.01.02.03.04.05.06.2-.03.4-.05.6-.07.01.02.01.05.02.07-.45.08-.89.17-1.36.26.07.01.11.01.15.02.11.03.28.05.31.12.07.16-.05.31-.17.42-.05.04-.11.06-.2.11Zm-11.08,12.14c-.19.88-.38,1.78-.57,2.66h.02c.06-.14.12-.26.17-.4h.01c-.11.52-.24,1.04-.34,1.57-.07.41-.1.82-.15,1.23.02,0,.04.01.06.01.03-.23.06-.47.09-.7h.02c.01.07.02.14.02.26.03-.08.05-.12.06-.15,0,.25,0,.5-.04.74-.04.22-.03.25.19.23.04-.51.07-1.01.14-1.51.07-.59.13-1.19.28-1.77.19-.78.47-1.54.71-2.31.04-.1.05-.2-.08-.26-.1-.04-.18-.1-.3-.17-.06.21-.13.39-.16.58-.06.34-.09.7-.16,1.04-.06.28-.15.55-.23.82-.04.13-.08.25-.12.38.08-.34.17-.66.23-.99.06-.42.1-.85.15-1.26Zm0-.02s.07-.03.07-.04c0-.19.01-.39,0-.58,0-.04-.04-.08-.07-.13-.09.25-.18.48-.27.72.06-.26.12-.51.18-.77-.02,0-.04-.01-.06-.01-.11.33-.25.65-.32.98-.13.59-.21,1.18-.31,1.77-.11.65-.23,1.3-.33,1.96-.05.39-.06.78-.09,1.18h.08v-.53h.05v.78c.07-.02.14-.07.13-.1-.13-.53.1-1.02.15-1.53.04-.34.07-.69.11-1.03.04-.29.07-.59.11-.88-.01.18-.03.36-.05.54.02,0,.04.01.05.01.18-.81.36-1.62.53-2.43.02.01.04.01.06.02,0,.02-.01.05-.02.07Zm1.02-3.52c.34.16.38.17.49.02.03-.05.03-.13.06-.28-.24.11-.39.18-.55.26Zm-2.31,2.3c-.24.36-.3.74-.34,1.13-.02.15,0,.31,0,.47-.05.42-.11.85-.17,1.28h-.02v-.44c-.28,1.16-.48,2.32-.39,3.51.06-.06.09-.11.09-.17-.03-.74.2-1.44.34-2.16.09-.4.18-.81.26-1.22.07-.33.11-.68.18-1.01.09-.39.22-.77.31-1.15.02-.06-.07-.14-.13-.26-.08.18-.12.29-.16.4.01-.12.03-.23.04-.38Zm5.18-10.69c-1.03.81-1.59,1.95-2.2,3.04-.01-.01-.02-.04-.03-.07-.03,0-.05-.01-.08-.02-.16.43-.3.86-.49,1.27-.25.54-.56,1.05-.81,1.59-.27.6-.51,1.21-.76,1.83-.17.41-.34.84-.5,1.26.02.01.03.03.05.04.06-.03.14-.06.17-.11.2-.46.39-.93.58-1.4.1-.24.2-.48.3-.71,0,.05.02.1,0,.15-.16.4-.31.8-.48,1.2-.11.28-.24.55-.37.84.35.07.09-.28.28-.31-.01.09-.02.18-.02.26.01,0,.03.01.04.01l.9-2.4s.01.12-.01.17c-.22.64-.45,1.27-.68,1.91,0,.05.01.11.01.17.24-.05.39-.15.45-.4.06-.28.17-.56.28-.83.23-.55.48-1.1.71-1.65.19-.43.37-.87.55-1.3.08-.2.17-.4.25-.6l-.06-.03-1.5,3.24s-.03-.06-.02-.08c.27-.6.54-1.21.81-1.82.38-.86.78-1.7,1.31-2.48.01,0,.01-.01.01-.01,0,.01,0,.03.01.04l-.03.03s.02.03.04.05c-.01-.03-.01-.05-.01-.08.74-.94,1.49-1.87,2.24-2.81-.34.29-.66.59-.94.94-.35.42-.69.86-1.01,1.3-.12.16-.21.35-.3.53h-.01c.05-.17.1-.34.15-.52h0s.01-.03.02-.04h0s.07-.01.08-.03c.22-.29.43-.59.65-.88.16-.22.33-.42.49-.63-.01-.01-.01-.02-.02-.02-.12.1-.23.2-.35.3.02-.04.03-.1.06-.13.25-.27.51-.55.77-.82.05-.06.12-.11.22-.19-.01.11-.02.14-.03.22.09-.07.15-.12.23-.17-.14-.08-.27-.15-.4-.21-.04-.01-.13,0-.16.04-.3.37-.6.74-.87,1.13-.25.36-.45.76-.67,1.13-.12.19-.24.38-.36.56-.22.35-.45.7-.67,1.05.02.02.03.03.05.04.07-.08.14-.16.22-.23-.03.07-.06.15-.09.22-.22.43-.44.85-.66,1.28-.09.17-.19.33-.28.5.16-.37.33-.74.48-1.11-.01-.01-.02-.01-.03-.02-.26.48-.51.95-.77,1.42.2-.44.38-.9.61-1.32.49-.89.99-1.78,1.5-2.65.25-.42.53-.81.8-1.21.11-.17.23-.31.35-.47Zm2.73.56c-.06.16-.11.27-.14.38-.01.03.02.08.04.1.03.02.1.02.12,0,.06-.06.15-.15.15-.22,0-.08-.09-.15-.17-.26Zm4.94-2.17c.35.07.57-.12.59-.53-.22.2-.39.35-.59.53Zm.15.3c-.37-.16-.44.17-.65.22.01.03.02.05.03.08.19-.09.38-.19.62-.3Zm-.64-.12c.39-.09.48-.35.23-.65-.08.22-.15.42-.23.65Zm-.12-.4c.09-.17.17-.33.26-.5-.36-.08-.38-.07-.48.35.08-.01.15-.02.23-.03-.02.08-.03.12-.04.17.01.01.02.01.03.01Zm.43,1.1c-.18.01-.34.03-.52.04.08.09.12.14.16.19-.01.01-.02.03-.03.04-.09-.02-.17-.05-.26-.07-.03.05-.07.1-.1.16.42.12.58.05.75-.36Zm-.69-.17s0-.06,0-.1c-.12-.02-.24-.06-.36-.07-.03,0-.06.11-.13.23.21-.03.35-.04.48-.06Zm-.2,5.14s-.04-.02-.07-.03c-.35.23-.39.32-.17.58.09-.2.17-.37.24-.55Zm-.13-4.53c.11-.27-.03-.34-.17-.4-.03-.01-.08.04-.13.07.09.1.18.2.3.33Zm.03,5.31l-.06-.03c-.53.75-1.35,1.04-2.16,1.34.33-.22.72-.35,1.05-.57.35-.24.64-.56.96-.84-.03-.01-.05-.02-.08-.03-.03-.07-.06-.15-.09-.22-.07-.23.04-.39.24-.51-.39.07-.71.25-.94.54-.37.47-.86.74-1.42.91-.05.02-.12-.01-.18-.02.01-.06,0-.14.03-.19.13-.15.27-.29.39-.45.13-.16.23-.33.34-.5-.02-.02-.04-.04-.06-.05-.13.15-.23.38-.38.42-.17.05-.39-.07-.65-.12-.11.09-.29.21-.45.35-.28.25-.53.54-.85.72-.26.15-.33.27-.3.56.03.25-.06.52-.08.78,0,.08,0,.21.04.25.59.43,1.14.9,1.91,1.03.54.09,1.06-.01,1.58.02.1.01.22-.07.3-.14.04-.04.04-.21.01-.22-.17-.09-.41-.25-.54-.19-.24.12-.48.09-.73.11-.06,0-.14-.02-.21-.03.04-.07.07-.16.13-.21.06-.06.14-.09.22-.11.19-.03.31-.13.41-.31.07-.12.23-.23.37-.27.38-.09.5-.41.66-.7-.12.04-.21.11-.3.18-.05.03-.06.11-.11.13-.26.14-.53.28-.8.4-.07.03-.15.01-.23.02,0-.03,0-.06-.01-.09.3-.18.64-.24.87-.54.24-.29.59-.49.84-.77.14-.17.19-.43.28-.65Zm-.09-6.28l.18-.54c-.14.07-.23.12-.31.16.05.13.08.23.13.38Zm-.12-1.02s-.05-.17-.1-.18c-.25-.03-.5.13-.59.37.05.03.1.06.19.11-.12.01-.18.02-.26.02-.02.16.02.31.16.22.23-.14.41-.35.6-.54Zm-.19,3.09s.09.03.14.04c-.02-.05-.02-.13-.05-.16-.16-.11-.33-.2-.5-.3-.02.02-.05.04-.07.06.02.04.03.1.06.12.14.09.28.16.42.24Zm-.1-1.89c.08.01.2-.17.31-.27-.33-.34-.61-.15-.92.04.2.08.4.2.61.23Zm.15,1c-.09-.1-.07-.29-.28-.28-.19,0-.29.12-.32.27,0,.04.17.12.28.19.13-.07.23-.13.32-.18Zm-.82-1.05c-.01.28.13.39.46.37-.16-.12-.3-.24-.46-.37Zm.22,2.75c.22-.22.09-.51-.24-.59.09.23.17.41.24.59Zm-.83-4.4c.27.22.58.16.9.15-.16-.27-.63-.34-.9-.15Zm.56-.32c.2-.21.4-.41.65-.66-.33,0-.63.3-.65.66Zm.22,2.65s.02-.09.02-.14c-.21-.04-.42-.07-.63-.11,0,.04,0,.07-.02.11.21.05.42.1.63.14Zm-.26.47c.08-.08.15-.17.23-.26-.25-.11-.3-.07-.23.26Zm.02-1.55c-.31-.16-.33.1-.42.26.25.1.38.02.42-.26Zm-.34-1.63c.08-.17.15-.34.23-.52-.04,0-.07-.03-.11-.05-.07.18-.15.36-.22.53.03.02.07.03.1.04Zm.21,3.31s-.02-.05-.03-.07c-.1.02-.28.03-.28.07-.03.14.01.29.02.44.02,0,.03.01.05.01l.24-.45Zm-1.3-2.6c.22.34.74.58,1.08.48-.16-.14-.33-.25-.46-.4-.19-.22-.37-.25-.62-.08Zm1.55.25c-.16-.3-.43-.26-.67-.32.12.23.23.28.67.32Zm-.77,4.5c.14-.14.14-.28.05-.45-.08.04-.16.08-.3.14.1.12.18.21.25.31Zm.02-1.2c.06-.16.06-.33.08-.49-.13.1-.25.16-.32.25s-.11.22-.14.34c0,.02.1.09.13.09.1-.05.22-.11.25-.19Zm-.18-1.69c.28-.28.29-.33.14-.75-.26.23-.29.4-.14.75Zm.12-2.8s0-.11-.02-.15c-.01-.02-.07-.03-.11-.02-.17.04-.34.09-.53.14.02.28.3.08.43.19.01.02.16-.09.23-.16Zm-.02,3.55s0-.06.02-.08c-.09-.03-.21-.11-.25-.07-.08.04-.11.16-.2.32.19-.08.31-.13.43-.17Zm-.07-3.1v-.06h-.66c.05.24.15.24.66.06Zm.09-.85c-.08-.24-.58-.14-.94.19.34-.07.63-.13.94-.19Zm-.53,4.34c.27.2.33.18.54-.17-.2.06-.34.1-.54.17Zm.13-1.45c.05-.16.11-.32.17-.47-.03-.03-.05-.06-.08-.08-.09.05-.24.08-.27.16-.07.14-.06.31.18.39Zm.17,5.22c-.2.05-.4.1-.59.16,0,.03.01.06.02.09.28.22.37.19.57-.25Zm-.07-2.54c.03-.12.07-.2.06-.28,0-.03-.11-.09-.13-.08-.07.05-.13.13-.2.22.1.05.16.08.27.14Zm-.42-1.69c.34-.12.47-.44.29-.69-.34.4-.36.45-.29.69Zm-.4-1.9c.23.05.44.25.69.08-.1-.14-.18-.27-.29-.38-.04-.05-.16-.08-.22-.06-.1.05-.18.14-.25.23-.02,0,.03.12.07.13Zm.24-2.14c.38-.17.44-.32.28-.68-.11.27-.19.47-.28.68Zm.21,3.23c-.18.09-.37.17-.56.26.01.02.02.05.03.08.35.05.47-.01.53-.34Zm-.02-.74c-.31-.02-.11.36-.33.42.12.04.21.07.27.1.02-.16.04-.32.06-.52Zm-.56,1.87c.3-.05.41-.21.32-.51-.2.04-.31.21-.32.51Zm.31-3.08s.02-.15-.01-.2c-.02-.03-.11-.03-.17-.02-.28.06-.43.25-.55.57.14,0,.27.04.35,0,.15-.09.27-.22.38-.35Zm-.08,1.42c.21-.32-.15-.32-.29-.48-.14.24-.13.49.01.54.08.03.24,0,.28-.06Zm-.26,2.07c.19.14.37.17.53-.18-.19-.02-.36-.03-.53-.03-.03,0-.07.06-.07.1-.01.04.03.09.07.11Zm.22-1.57c-.12-.02-.25-.04-.37-.07.02.15.1.3.06.39-.09.2.03.27.14.37.04-.05.08-.09.11-.12-.03,0-.05,0-.08-.02-.02-.09-.08-.2-.06-.28.03-.1.13-.18.2-.27Zm-.52-1.12c.12-.1.22-.17.3-.23-.22-.08-.41-.16-.63-.24-.06.05-.15.13-.26.22.24.02.53-.2.59.25Zm.03-1.03c.24-.11.55-.1.65-.48-.35.01-.49.26-.65.48Zm.05,2.61c0-.12.05-.25.01-.32-.13-.21-.28-.4-.44-.59-.02-.03-.07-.05-.12-.07-.02.05-.06.09-.06.14-.03.34.16.63.61.84Zm-.17.89c.16-.18.21-.49.13-.67-.07-.14-.14-.11-.22-.01-.11.16-.07.48.09.68Zm.17-2.38c-.2-.11-.29.02-.35.15-.09.19.02.31.18.41.05-.19.11-.36.17-.56Zm-.55-.57c.22-.4.42-.79.32-1.27-.36.05-.52.74-.32,1.27Zm-.09.66c.12-.11.23-.21.34-.32-.34-.02-.62.07-.72.22.13.04.28.08.38.1Zm.21,1.78h-.53c.3.33.44.31.53,0Zm-.34-.95v-.22c-.19-.02-.51.15-.53.3-.01.06.07.13.11.18.16-.1.28-.18.42-.26Zm-.69-.97c.36-.31.55-.79.43-1.02-.27.21-.45.62-.43,1.02Zm.41,1.83c.07-.18-.02-.3-.39-.46v.59c.16.08.31.1.39-.13Zm.02-3.15c-.03-.07-.07-.18-.12-.28-.02,0-.04,0-.06.01-.09.27-.19.54-.28.81.01,0,.02,0,.03,0,.14-.17.27-.34.43-.55Zm-.61,16.5c.35.01.54-.12.52-.47-.02-.48-.07-.95-.09-1.42-.04-.84-.08-1.67-.1-2.51-.01-.16.05-.31.06-.46.02-.27.03-.54.04-.81h-.09c-.01.06,0,.14-.02.2-.05.13-.1.34-.19.37-.46.15-.93.27-1.41.36-.16.03-.28.04-.33.21-.03.1-.07.19-.1.26.28.28.58.52.4.96-.02.03.03.09.04.13.09.21.12.43-.08.6-.22.19-.46.38-.66.54.09,0,.23-.05.34-.02.09.02.2.13.23.22s.03.28-.03.32c-.32.21-.65.41-1.05.41-.19,0-.37.03-.45.25-.1.27-.22.54-.35.84.24.02.42.09.59.05.44-.1.86.02,1.3.08.21.02.43.02.64.01.27-.03.53-.13.79-.12Zm.48-12.87s-.04-.04-.05-.06c-.09.05-.18.08-.25.14-.29.26-.58.53-.86.79h0c.05-.08.08-.16.15-.22.26-.24.53-.47.8-.71-.11-.12-.16-.17-.2-.22-.06.03-.1.06-.14.09-.01-.05-.02-.1-.04-.23-.17.17-.3.3-.42.43-.19.22-.38.44-.58.65-.1.11-.24.2-.35.31-.17.19-.35.39-.5.61-.21.28-.41.57-.57.87-.24.46-.44.93-.66,1.39-.18.37-.37.73-.55,1.1-.15.32-.27.66-.42.98-.1.21-.23.41-.31.63-.17.44-.31.88-.46,1.32.01.02.03.03.05.04.09-.1.19-.21.28-.32.01.03.03.07.05.12.16-.27.34-.51.45-.77.32-.74.6-1.48.92-2.22.11-.26.28-.49.44-.74-.14.28-.28.56-.41.84-.17.36-.32.74-.48,1.11.03.01.05.02.07.03.1-.19.18-.38.29-.56.57-.97,1.16-1.93,1.73-2.9.38-.66.82-1.27,1.36-1.81.22-.22.44-.46.66-.69Zm.26-1.75c-.3-.22-.58-.25-.77-.11-.11.08-.21.17-.08.38.27-.09.54-.17.85-.27Zm-.77,8.31c.03-.42.05-.84.08-1.25-.02-.01-.03-.02-.05-.03-.47.83-.94,1.67-1.45,2.56.27,0,.45.02.63,0,.46-.05.5-.11.55-.58.02-.18.11-.35.17-.53.03-.05.07-.11.07-.17Zm-.55-8.11c.36-.42.49-.68.44-.95-.29.18-.52.7-.44.95Zm-.24.58c.32.22.65.16.79-.13-.41-.24-.55-.24-.79.13Zm-.32,1.53c.25-.28.49-.56.73-.85-.02-.02-.04-.04-.06-.05-.24.28-.49.56-.73.85.02.02.04.04.06.05Zm.2-1.86c.07-.34.12-.64.18-.96-.32.12-.42.7-.18.96Zm-.96,11.28c.21-.19.51-.35.39-.77-.23.14-.44.28-.66.39-.3.15-.6.32-.92.38-.37.07-.77.02-1.15.01-.06,0-.12-.05-.18-.08.04-.04.07-.03.09-.03.99.13,1.87-.14,2.62-.8.04-.03.05-.17,0-.22-.14-.21-.33-.1-.5-.03-.3.14-.6.33-.92.41-.28.07-.59.08-.88.03-.14-.02-.26-.22-.37-.35-.02-.03.04-.16.1-.2.14-.11.31-.18.45-.29.14-.1.27-.22.36-.36.07-.11.09-.27-.1-.33-.09.39-.34.54-.67.34-.27-.15-.42-.07-.63.09-.23.18-.49.37-.77.45-.29.08-.62.02-.93.02-.09,0-.18-.03-.31-.06.06.49.12.92.18,1.32.29.1.55.19.81.28.03.01.1.01.11,0,.08-.16.12-.01.17.02l.75.45c.22.13.52.21.63.4.15.26.4.33.6.43.41.21.88.23,1.34.09.2-.05.4-.11.58-.19.07-.03.11-.15.17-.23-.09-.03-.17-.08-.25-.09-.09-.02-.19,0-.27.03-.51.15-1.02.15-1.44.01.46-.14.99-.28,1.49-.48.36-.13.53-.44.59-.82-.37.39-.85.6-1.36.68-.51.09-1.04.06-1.56.09v-.12c.37-.01.75-.03,1.12-.05.47-.03.94-.09,1.31-.42Zm-1.11-8.77c.08-.12.16-.23.23-.35-.16.12-.29.26-.39.42-.22.34-.42.68-.63,1.02-.28.46-.57.92-.84,1.38-.15.25-.28.5-.41.76.16-.64.53-1.17.87-1.72.08-.13.09-.23.04-.38-.08-.27-.16-.55-.2-.83-.1-.59-.17-1.19-.25-1.79-.08-.52-.14-1.05-.24-1.58-.1-.56-.22-1.12-.37-1.67-.12-.4-.28-.8-.48-1.17-.22-.42-.5-.81-.77-1.2-.21-.31-.44-.6-.67-.89-.08.21-.13.38-.13.55.02.6-.09,1.16-.46,1.65-.15.21-.29.45-.48.62-.21.18-.49.3-.73.46-.29.18-.58.35-.93.36-.16.01-.22.06-.19.26.08.51.13,1.04.17,1.56.02.2-.02.41-.03.62,0,.13.04.26.03.39,0,.5-.05,1-.05,1.51-.01.44.02.88.03,1.33v.04c-.04.34-.1.68-.12,1.02-.02.37.01.74-.01,1.11-.06.95-.11,1.9.16,2.83.03.07.15.16.22.16.27-.03.53-.1.8-.14.19-.02.38,0,.57-.02.4-.04.79-.09,1.19-.12.05-.01.16.1.17.17.04.21.03.43.07.64.01.06.09.12.15.18.04-.05.11-.09.13-.14.06-.14.1-.29.16-.44.18-.49.36-.98.53-1.42-.25-.24-.44-.41-.61-.61-.34-.38-.73-.73-.92-1.22-.28-.74-.61-1.47-.55-2.28.04-.45.15-.9.25-1.35.06-.28.15-.55.26-.81.02-.06.14-.09.22-.09.03,0,.1.1.1.15,0,.11-.02.23-.06.34-.08.2-.23.39-.26.6-.13.78-.32,1.57-.06,2.36.15.45.31.9.53,1.33.11.24.34.43.52.63.21.22.42.42.62.62.28-.57.53-1.1.78-1.62-.05.16-.08.33-.15.48-.24.62-.5,1.22-.73,1.84-.16.39-.29.8-.42,1.2-.06.15-.1.31-.15.46.02.01.04.02.07.03.04-.09.09-.17.13-.27.24-.65.46-1.31.71-1.95.14-.33.32-.64.49-.96.23-.46.49-.9.7-1.37.19-.41.2-.89.51-1.25.12-.14.18-.32.27-.47.2-.32.41-.65.61-.97Zm-.22,2.51c.14-.29.27-.58.41-.86l-.06-.03c-.14.28-.28.57-.42.86.03.01.05.02.07.03Zm-.44,21.47c.14-.07.28-.26.14-.38-.2-.18-.46-.35-.71-.4-.42-.06-.77-.19-1.13-.42-.46-.3-.57-.71-.62-1.16-.06-.67-.07-1.34-.11-2.01-.01-.07-.1-.16-.17-.18-.41-.09-.83-.17-1.25-.24-.23-.03-.47-.05-.71-.06-.05,0-.15.09-.15.14.02.67.05,1.34.07,2.02,0,.09-.04.19-.04.29-.02.27-.02.55-.04.82-.03.35.02.67.27.95.37.43.93.57,1.34.93.1.08.18.18.28.26.14.09.28.17.42.25.22.13.42.29.65.38.4.16.83.26,1.36.21-.09-.13-.13-.24-.21-.3-.26-.17-.53-.32-.79-.49-.03-.02-.04-.08-.06-.12.04-.02.1-.05.14-.05.05.02.09.07.14.09.24.1.48.22.73.27.09.02.22-.13.33-.19-.08-.08-.16-.16-.24-.22-.07-.04-.16-.05-.23-.08-.18-.09-.36-.18-.54-.26,0-.04.03-.09.05-.13.07.03.15.04.21.08.29.17.58.14.87,0Zm-.13-16.09c.1-.24.21-.46.33-.74q-.49.38-.55.66c.07.03.14.05.22.08Zm-.1,2.42s-.03.01-.05.01c-.12.27-.24.52-.35.79h-.01c.09-.28.18-.55.28-.84-.09-.03-.16-.05-.28-.09-.11.4-.21.79-.31,1.17-.12.46-.27.91-.37,1.37-.14.62-.24,1.25-.36,1.88-.04.26-.1.53-.14.8-.01.05.04.1.06.16.03-.02.07-.04.08-.07.07-.3.14-.6.2-.9.09-.44.16-.87.25-1.31.08-.41.16-.82.27-1.22.08-.32.22-.62.32-.94h.01c-.05.16-.11.31-.14.48-.22,1.04-.43,2.09-.65,3.14-.05.25-.09.51-.13.77.08-.1.1-.21.13-.32.13-.64.24-1.3.41-1.93.2-.76.48-1.5.7-2.26.07-.22.06-.46.08-.69Zm-.43-.21s-.1-.04-.2-.08c-.7,1.86-1.12,3.75-1.1,5.73.28-1.92.7-3.8,1.3-5.65Zm-.49-28.81c.17-.77.46-1.52.29-2.34-.12-.58-.14-1.17-.22-1.76-.02-.17-.07-.33-.09-.5-.02-.39-.03-.77-.06-1.15,0-.04-.05-.1-.09-.11-.08-.03-.18.01-.24-.03-.66-.39-1.33-.76-2.1-.9-.24-.04-.48-.18-.72-.17-.61.01-1.21.08-1.82.13,0-.03,0-.05,0-.08-.82.18-1.68.02-2.5.32-.56.21-1.16.31-1.74.47-.2.05-.4.15-.61.17-.28.03-.4.18-.43.44-.06.58-.14,1.16-.16,1.75-.02.46.01.93.05,1.39.06.78.15,1.55.24,2.33.03.28.08.56.13.84,0,.05.02.1.02.15,0,.27-.01.55,0,.82.06.7.22,1.4.42,2.08.17.59.4,1.17.64,1.74.35.86.86,1.55,1.83,1.83.49.14.96.16,1.45.2.4.04.82.04,1.23.03.31-.01.62-.05.86-.27.45-.41.92-.79,1.2-1.36.27-.53.67-.98.95-1.49.21-.41.33-.87.5-1.3.13-.37.28-.73.39-1.11.21-.7.42-1.41.58-2.12Zm-.74,28.07c-.08-.04-.14-.07-.23-.12-.5,1.62-.65,3.27-.81,4.92.07-.18.12-.35.15-.53.1-.54.21-1.08.3-1.62.09-.49.14-.99.24-1.48.09-.39.23-.78.35-1.17Zm-.34-.16s-.11-.01-.11,0c-.16.66-.31,1.33-.46,1.99.02,0,.04.01.06.01.17-.66.34-1.32.51-2Zm-.25.08c.01-.05-.02-.12-.03-.18-.02.01-.04.01-.06.01-.07.24-.15.48-.21.72-.19.9-.37,1.8-.55,2.69-.13.65-.25,1.29-.35,1.94-.04.29,0,.59,0,.9h.09c.27-.74.17-1.53.32-2.29v.53c.06-.24.09-.48.13-.72.05-.37.1-.74.16-1.1.07-.42.13-.84.22-1.26.08-.41.19-.82.28-1.24Zm-.56,5.85c.07-.98.13-1.95.19-2.88-.07.26-.18.57-.22.89-.05.32-.05.66-.06.98-.01.31-.21.62,0,.97v-.63h.04v.67h.04Zm-.21-5.95s.02-.09.02-.12c-.01-.05-.04-.08-.06-.12-.03.03-.08.06-.09.09-.1.4-.22.79-.29,1.19-.13.76-.25,1.52-.36,2.28-.06.36-.12.73-.15,1.1-.02.35,0,.71,0,1.06h.04c.05-.67.1-1.34.16-2.02.04-.44.07-.88.17-1.32.16-.72.37-1.43.56-2.14Zm-.14-.28c.15-.11.1-.21.08-.34-.06-.3-.1-.6-.12-.91-.01-.4,0-.8,0-1.26-.3.05-.57.1-.84.14-.41.06-.83.13-1.24.18-.48.07-.96.2-1.46.13-.69-.1-1.36-.24-2.02-.45-.81-.25-1.55-.61-2.16-1.19-.46-.44-.88-.92-1.23-1.46-.35-.55-.47-1.13-.48-1.75,0-.49.02-.98.05-1.47.02-.29.03-.58.11-.85.11-.37.27-.72.42-1.07.03-.08.1-.17.17-.21.06-.03.16-.03.23-.01.03.01.05.13.03.19-.1.26-.2.51-.31.77-.23.53-.37,1.08-.36,1.67.01.2.05.41,0,.6-.13.45.05.9.01,1.34,0,.03.03.06.04.09.27.47.55.93.96,1.31.4.37.72.84,1.29.99.01,0,.01.01.02.02.36.26.75.45,1.19.55.53.12,1.04.3,1.57.44.2.06.42.09.68.14-.12-.57.12-1.1-.03-1.63-.01-.04,0-.1,0-.15,0-.36.03-.72.03-1.08s-.02-.75-.03-1.12v-.51c0-.65,0-1.31,0-1.96,0-.3.01-.6.02-.9.01-.26.06-.52.06-.79,0-.51-.02-1.01-.04-1.52-.02-.38-.04-.75-.07-1.12-.17-.02-.28-.04-.38-.04-.32-.01-.57-.21-.86-.3-.4-.13-.76-.32-1.08-.61-.15-.15-.24-.28-.28-.47-.05-.27-.12-.53-.19-.79-.15-.49-.14-.99.02-1.48.03-.06.02-.14.03-.24-.08,0-.14-.01-.18.01-.57.35-1.15.67-1.7,1.05-.43.3-.83.64-1.21,1-.45.41-.88.85-1.27,1.32-.34.41-.64.87-.9,1.34-.26.45-.48.93-.64,1.43-.17.53-.27,1.09-.37,1.64-.06.35-.14.72-.09,1.06.07.46,0,.9.03,1.35.05.6.12,1.2.45,1.73.16.26.31.52.46.79.13.24.24.49.38.73.22.37.47.72.66,1.09.15.29.32.55.55.78.51.53,1.1.95,1.68,1.39.24.19.45.4.76.48.25.07.5.15.75.2.3.06.6.09.87.23.02.01.04.02.05.02.38.08.76.15,1.14.23.2.04.41.12.61.14.28.02.56.02.83,0,.47-.03.93.04,1.41-.01.53-.06,1.03-.24,1.56-.3.11-.01.2-.06.21-.22.01-.12.04-.29.12-.36Zm-.54,4.46c.21-1.15.41-2.31.62-3.46-.04-.01-.08-.01-.12-.02-.2,1.15-.4,2.31-.6,3.46.03.01.07.01.1.02Zm.13-20.76c.02-.29.01-.6-.06-.89-.03-.11-.25-.18-.38-.27-.2-.13-.39-.26-.61-.41-.17.54-.35,1.03-.48,1.53-.09.34-.2.67-.47.89-.21.17-.49.34-.75.36-.36.02-.73-.11-1.09-.18-.46-.08-.7-.4-.8-.81-.12-.5-.17-1.03-.27-1.6-.12.26-.25.49-.34.73-.18.5-.19,1.02-.04,1.52.09.3.21.62.41.84.58.62,1.28.98,2.16,1,.64.02,1.13-.28,1.63-.56.37-.19.53-.58.72-.94.05-.1.15-.19.18-.3.08-.3.16-.6.19-.91Zm-.7,22.25c.12-.73.25-1.46.37-2.19h-.11c-.12.73-.24,1.45-.35,2.18.03,0,.06.01.09.01Zm-.56-23.99c.2-.62.16-1.25.17-1.9-.15.06-.28.13-.41.16-.48.09-.96.18-1.45.24-.23.03-.48.05-.7,0-.32-.07-.62-.21-.94-.33-.02.04-.05.08-.06.13-.03.57-.07,1.14-.1,1.71-.03.56.04,1.11.15,1.65.1.48.29.92.85,1.01.36.06.74.1,1.1.09.2,0,.42-.11.57-.24.42-.34.43-.88.58-1.34.13-.38.11-.81.24-1.18Zm-1.55,21.97c.03-.39.03-.79.02-1.18-.02-.37-.06-.73-.11-1.09-.02-.14-.07-.35-.16-.4-.16-.08-.38-.09-.56-.06-.51.08-1.01.01-1.49-.1-.35-.08-.67-.26-1.02-.36-.42-.12-.87-.17-1.27-.33-.79-.31-1.52-.74-2.12-1.35-.13-.14-.28-.26-.41-.41-.27-.32-.53-.64-.8-.97,0,.18.05.35.06.52.02.88.03,1.75.05,2.63,0,.06-.01.15.02.19.15.22.08.45.05.68-.02.22-.02.44-.02.65,0,.27.04.55.04.82-.01.24-.08.49-.09.73,0,.43.04.85.05,1.27,0,.44-.04.88-.03,1.32.01.51.05,1.01.08,1.52.03.66.07,1.31.1,1.97,0,.17.09.22.21.21.54-.02,1.08-.08,1.62-.1.46-.02.92-.03,1.38-.01.58.03,1.15.13,1.73.13.35,0,.7-.12,1.05-.18.45-.08.91-.14,1.4-.21-.04-.47-.11-.92-.11-1.36.01-.77.06-1.53.1-2.3.02-.37.06-.75.1-1.13.04-.37.11-.73.13-1.1Zm-1.99-22.37c.02-.38.05-.77.05-1.15,0-.13-.03-.33-.11-.38-.57-.36-1.03-.82-1.41-1.38-.4-.6-.52-1.3-.82-1.93-.18-.38-.19-.83-.27-1.24-.06-.36-.1-.72-.15-1.07-.06-.44-.11-.87-.16-1.3-.07-.5-.14-.99-.19-1.49-.03-.36-.02-.72-.05-1.07-.06-.72-.18-1.43-.18-2.14-.01-.58.13-1.15.21-1.72-.25-.07-.25.13-.27.24-.09.35-.14.71-.21,1.06-.04.18-.12.36-.15.54-.1.55-.2,1.11-.29,1.67-.09.59-.19,1.18-.26,1.77-.05.45-.04.9-.06,1.35v.08c-.01.53-.07,1.06-.03,1.59.05.82.09,1.64-.06,2.46-.13.69-.24,1.39-.36,2.08-.1.56-.21,1.11-.31,1.66-.08.46-.17.91-.24,1.37-.06.37-.13.74-.14,1.12-.01.61.02,1.21.04,1.82.01.12.02.24.04.4.22-.27.4-.51.6-.72.21-.23.45-.42.66-.64.33-.34.63-.72.98-1.04.27-.24.6-.42.91-.63.19-.12.38-.25.59-.33.33-.13.69-.19,1.02-.32.25-.1.61-.09.61-.51,0-.05.01-.1.01-.15Zm-1.25,30.72c.01-.58,0-1.16,0-1.78-.62.03-1.25.06-1.91.09,0,.32.01.62,0,.93-.02.31-.03.63-.12.92-.06.23-.2.49-.39.6-.43.24-.91.41-1.37.59-.25.09-.51.13-.76.21-.23.07-.39.39-.32.6.07.2.38.35.58.29l.81-.3q.05.19-.14.26c-.22.07-.44.13-.64.23-.08.04-.15.18-.15.27s.11.23.17.23c.26.02.53.11.77-.09.12-.1.26-.23.45-.07-.04.04-.06.08-.1.11-.27.15-.57.28-.81.47-.13.1-.22.32-.21.48,0,.21.23.1.36.12.04.01.08-.01.12-.02.36-.14.72-.33,1.09-.41.47-.1.86-.35,1.27-.56.18-.09.3-.28.47-.39.31-.21.49-.51.61-.84.07-.23.09-.49.11-.73.05-.4.09-.81.11-1.21Z"/>
      <path class="cls-1" d="m86.96,74.03c-.02.41-.24.6-.59.53.2-.18.37-.33.59-.53Z"/>
      <path class="cls-1" d="m85.87,75.08c.21-.05.28-.38.65-.22-.24.11-.43.21-.62.3-.01-.03-.02-.05-.03-.08Z"/>
      <path class="cls-1" d="m86.11,74.09c.25.3.16.56-.23.65.08-.23.15-.43.23-.65Z"/>
      <path class="cls-1" d="m86.02,73.84c-.09.17-.17.33-.26.5,0,0-.02,0-.03-.01.01-.05.02-.09.04-.17-.08.01-.15.02-.23.03.1-.42.12-.43.48-.35Z"/>
      <path class="cls-1" d="m85.67,75.48c.18-.01.34-.03.52-.04-.17.41-.33.48-.75.36.03-.06.07-.11.1-.16.09.02.17.05.26.07.01-.01.02-.03.03-.04-.04-.05-.08-.1-.16-.19Z"/>
      <path class="cls-1" d="m85.23,80.38s.05.02.07.03c-.07.18-.15.35-.24.55-.22-.26-.18-.35.17-.58Z"/>
      <path class="cls-1" d="m85,75.48c.14.06.28.13.17.4-.12-.13-.21-.23-.3-.33.05-.03.1-.08.13-.07Z"/>
      <path class="cls-1" d="m85.14,81.16l.06.03c-.09.22-.14.48-.28.65-.25.28-.6.48-.84.77-.23.3-.57.36-.87.54.01.03.01.06.01.09.08,0,.16.01.23-.02.27-.12.54-.26.8-.4.05-.02.06-.1.11-.13.09-.07.18-.14.3-.18-.16.29-.28.61-.66.7-.14.04-.3.15-.37.27-.1.18-.22.28-.41.31-.08.02-.16.05-.22.11-.06.05-.09.14-.13.21.07.01.15.03.21.03.25-.02.49.01.73-.11.13-.06.37.1.54.19.03.01.03.18-.01.22-.08.07-.2.15-.3.14-.52-.03-1.04.07-1.58-.02-.77-.13-1.32-.6-1.91-1.03-.05-.04-.05-.17-.04-.25.02-.26.11-.53.08-.78-.03-.29.04-.41.3-.56.32-.18.57-.47.85-.72.16-.14.34-.26.45-.35.26.05.48.17.65.12.15-.04.25-.27.38-.42.02.01.04.03.06.05-.11.17-.21.34-.34.5-.12.16-.26.3-.39.45-.03.05-.02.13-.03.19.06.01.13.04.18.02.56-.17,1.05-.44,1.42-.91.23-.29.55-.47.94-.54-.2.12-.31.28-.24.51.03.07.06.15.09.22.03,0,.05.02.08.03-.32.28-.61.6-.96.84-.33.22-.72.35-1.05.57.81-.3,1.63-.59,2.16-1.34Z"/>
      <path class="cls-1" d="m85.29,74.37l-.18.54c-.05-.15-.08-.25-.13-.38.08-.04.17-.09.31-.16Z"/>
      <path class="cls-1" d="m84.89,73.71s.12.17.1.18c-.19.19-.37.4-.6.54-.14.09-.18-.06-.16-.22.08,0,.14-.01.26-.02-.09-.05-.14-.08-.19-.11.09-.24.34-.4.59-.37Z"/>
      <path class="cls-1" d="m84.94,77.02s-.1-.02-.14-.04c-.14-.08-.28-.15-.42-.24-.03-.02-.04-.08-.06-.12.02-.02.05-.04.07-.06.17.1.34.19.5.3.03.03.03.11.05.16Z"/>
      <path class="cls-1" d="m84.57,75.81c.21-.01.19.18.28.28-.09.05-.19.11-.32.18-.11-.07-.28-.15-.28-.19.03-.15.13-.27.32-.27Z"/>
      <path class="cls-1" d="m84.01,77.2c.33.08.46.37.24.59-.07-.18-.15-.36-.24-.59Z"/>
      <path class="cls-1" d="m84.32,73.54c-.32.01-.63.07-.9-.15.27-.19.74-.12.9.15Z"/>
      <path class="cls-1" d="m84.63,72.41c-.25.25-.45.45-.65.66.02-.36.32-.66.65-.66Z"/>
      <path class="cls-1" d="m83.54,74.9c.09-.16.11-.42.42-.26-.04.28-.17.36-.42.26Z"/>
      <path class="cls-1" d="m83.85,72.49c-.08.18-.15.35-.23.52-.03-.01-.07-.02-.1-.04.07-.17.15-.35.22-.53.04.02.07.04.11.05Z"/>
      <path class="cls-1" d="m83.56,77.45c.12.12.31.19.19.39-.03.04-.17.05-.21.01-.12-.11-.11-.24.02-.4Z"/>
      <path class="cls-1" d="m83.61,74.2c-.34.1-.86-.14-1.08-.48.25-.17.43-.14.62.08.13.15.3.26.46.4Z"/>
      <path class="cls-1" d="m83.41,73.65c.24.06.51.02.67.32-.44-.04-.55-.09-.67-.32Z"/>
      <path class="cls-1" d="m83.36,78.02c.09.17.09.31-.05.45-.07-.1-.15-.19-.25-.31.14-.06.22-.1.3-.14Z"/>
      <path class="cls-1" d="m83.41,76.78c-.02.16-.02.33-.08.49-.03.08-.15.14-.25.19-.03,0-.13-.07-.13-.09.03-.12.07-.25.14-.34s.19-.15.32-.25Z"/>
      <path class="cls-1" d="m83.29,74.83c.15.42.14.47-.14.75-.15-.35-.12-.52.14-.75Z"/>
      <path class="cls-1" d="m83.25,72.63s.04.12.02.15c-.07.07-.22.18-.23.16-.13-.11-.41.09-.43-.19.19-.05.36-.1.53-.14.04-.01.1,0,.11.02Z"/>
      <path class="cls-1" d="m83.27,76.25s-.02.05-.02.08c-.12.04-.24.09-.43.17.09-.16.12-.28.2-.32.04-.04.16.04.25.07Z"/>
      <path class="cls-1" d="m83.18,73.17v.06c-.51.18-.61.18-.66-.06h.66Z"/>
      <path class="cls-1" d="m82.33,72.57c.36-.33.86-.43.94-.19-.31.06-.6.12-.94.19Z"/>
      <path class="cls-1" d="m83.28,76.55c-.21.35-.27.37-.54.17.2-.07.34-.11.54-.17Z"/>
      <path class="cls-1" d="m83.04,74.8c-.06.15-.12.31-.17.47-.24-.08-.25-.25-.18-.39.03-.08.18-.11.27-.16.03.02.05.05.08.08Z"/>
      <path class="cls-1" d="m82.45,80.65c.19-.06.39-.11.59-.16-.2.44-.29.47-.57.25-.01-.03-.02-.06-.02-.09Z"/>
      <path class="cls-1" d="m83.03,77.67c.01.08-.03.16-.06.28-.11-.06-.17-.09-.27-.14.07-.09.13-.17.2-.22.02-.01.13.05.13.08Z"/>
      <path class="cls-1" d="m82.84,75.57c.18.25.05.57-.29.69-.07-.24-.05-.29.29-.69Z"/>
      <path class="cls-1" d="m82.84,74.44c-.25.17-.46-.03-.69-.08-.04-.01-.09-.12-.07-.13.07-.09.15-.18.25-.23.06-.02.18.01.22.06.11.11.19.24.29.38Z"/>
      <path class="cls-1" d="m82.67,71.54c.16.36.1.51-.28.68.09-.21.17-.41.28-.68Z"/>
      <path class="cls-1" d="m82.04,75.71c.19-.09.38-.17.56-.26-.06.33-.18.39-.53.34-.01-.03-.02-.06-.03-.08Z"/>
      <path class="cls-1" d="m82.25,75.13c.22-.06.02-.44.33-.42-.02.2-.04.36-.06.52-.06-.03-.15-.06-.27-.1Z"/>
      <path class="cls-1" d="m82.34,76.07c.09.3-.02.46-.32.51.01-.3.12-.47.32-.51Z"/>
      <path class="cls-1" d="m82.32,73.3s.04.16.01.2c-.11.13-.23.26-.38.35-.08.04-.21,0-.35,0,.12-.32.27-.51.55-.57.06-.01.15-.01.17.02Z"/>
      <path class="cls-1" d="m81.96,74.44c.14.16.5.16.29.48-.04.06-.2.09-.28.06-.14-.05-.15-.3-.01-.54Z"/>
      <path class="cls-1" d="m82.52,76.81c-.16.35-.34.32-.53.18-.04-.02-.08-.07-.07-.11,0-.04.04-.1.07-.1.17,0,.34.01.53.03Z"/>
      <path class="cls-1" d="m81.84,75.35c.12.03.25.05.37.07-.07.09-.17.17-.2.27-.02.08.04.19.06.28.03.01.05.01.08.02-.03.03-.07.07-.11.12-.11-.1-.23-.17-.14-.37.04-.09-.04-.24-.06-.39Z"/>
      <path class="cls-1" d="m82.06,71.91c.24.18.18.42-.22.83.07-.27.14-.55.22-.83Z"/>
      <path class="cls-1" d="m81.99,74.07c-.08.06-.18.13-.3.23-.06-.45-.35-.23-.59-.25.11-.09.2-.17.26-.22.22.08.41.16.63.24Z"/>
      <path class="cls-1" d="m82.37,72.79c-.1.38-.41.37-.65.48.16-.22.3-.47.65-.48Z"/>
      <path class="cls-1" d="m81.78,75.56c.04.07-.01.2-.01.32-.45-.21-.64-.5-.61-.84,0-.05.04-.09.06-.14.05.02.1.04.12.07.16.19.31.38.44.59Z"/>
      <path class="cls-1" d="m81.42,74.54c.06-.13.15-.26.35-.15-.06.2-.12.37-.17.56-.16-.1-.27-.22-.18-.41Z"/>
      <path class="cls-1" d="m81.54,72.55c.1.48-.1.87-.32,1.27-.2-.53-.04-1.22.32-1.27Z"/>
      <path class="cls-1" d="m81.47,74.16c-.11.11-.22.21-.34.32-.1-.02-.25-.06-.38-.1.1-.15.38-.24.72-.22Z"/>
      <path class="cls-1" d="m81.46,75.93c-.03.08-.05.15-.08.24-.07-.02-.12-.04-.18-.06.04-.06.07-.1.1-.15-.04-.01-.09-.01-.17-.02.06-.07.1-.11.15-.18.07.06.12.11.18.17Z"/>
      <path class="cls-1" d="m80.81,76.26h.53c-.09.31-.23.33-.53,0Z"/>
      <path class="cls-2" d="m81.03,74.86s-.02.02-.03.04v-.06s.02.01.03.02Z"/>
      <path class="cls-1" d="m81,75.09v.22c-.14.08-.26.16-.42.26-.04-.05-.12-.12-.11-.18.02-.15.34-.32.53-.3Z"/>
      <path class="cls-1" d="m81,74.57v.27c-.14-.11-.29-.22-.47-.35.19.03.32.06.47.08Z"/>
      <path class="cls-2" d="m81,76.94c-.11.13-.22.27-.33.39-.01,0-.01-.01-.02-.02.12-.12.23-.25.35-.37Z"/>
      <path class="cls-1" d="m80.74,73.32c.12.23-.07.71-.43,1.02-.02-.4.16-.81.43-1.02Z"/>
      <path class="cls-1" d="m80.33,75.71c.37.16.46.28.39.46-.08.23-.23.21-.39.13v-.59Z"/>
      <path class="cls-1" d="m80.1,74.79c.19-.14.47-.11.77.11-.31.1-.58.18-.85.27-.13-.21-.03-.3.08-.38Z"/>
      <path class="cls-1" d="m79.99,74.15c.05.27-.08.53-.44.95-.08-.25.15-.77.44-.95Z"/>
      <path class="cls-1" d="m80.1,75.55c-.14.29-.47.35-.79.13.24-.37.38-.37.79-.13Z"/>
      <path class="cls-1" d="m79.37,74.39c-.06.32-.11.62-.18.96-.24-.26-.14-.84.18-.96Z"/>
      <path class="cls-2" d="m79.09,77.89c.11-.14.23-.24.35-.37-.19.27-.39.52-.57.8-.3.47-.59.96-.89,1.43-.16.26-.34.49-.52.74.21-.4.41-.79.64-1.17.31-.49.66-.96.99-1.43Z"/>
      <path class="cls-2" d="m79.2,79.12c-.25.35-.5.7-.76,1.05-.01-.01-.03-.02-.05-.03.25-.36.51-.71.76-1.07.02.02.03.04.05.05Z"/>
      <path class="cls-2" d="m79.02,69.88c.04.32.08.65.12.98-.03,0-.06,0-.09.01-.04-.33-.08-.66-.12-.98.03-.01.06-.01.09-.01Z"/>
      <path class="cls-2" d="m79.13,82.03c-.17.3-.34.61-.51.91.08-.2.16-.4.25-.59.05-.12.13-.23.2-.35l.06.03Z"/>
      <path class="cls-2" d="m79.03,66.48v1.42h-.03l-.12-1.32s.05-.04.15-.1Z"/>
      <path class="cls-2" d="m78.85,63.09l.06,1.14s-.06,0-.1,0l-.06-1.14s.06-.01.1-.01Z"/>
      <path class="cls-2" d="m78.65,59.52v2.33h-.05v-2.33h.05Z"/>
      <path class="cls-1" d="m78.62,85.86c.12.42-.18.58-.39.77-.37.33-.84.39-1.31.42-.37.02-.75.04-1.12.05v.12c.52-.03,1.05,0,1.56-.09.51-.08.99-.29,1.36-.68-.06.38-.23.69-.59.82-.5.2-1.03.34-1.49.48.42.14.93.14,1.44-.01.08-.03.18-.05.27-.03.08.01.16.06.25.09-.06.08-.1.2-.17.23-.18.08-.38.14-.58.19-.46.14-.93.12-1.34-.09-.2-.1-.45-.17-.6-.43-.11-.19-.41-.27-.63-.4l-.75-.45s-.09-.18-.17-.02c-.01.01-.08.01-.11,0-.26-.09-.52-.18-.81-.28-.06-.4-.12-.83-.18-1.32.13.03.22.06.31.06.31,0,.64.06.93-.02.28-.08.54-.27.77-.45.21-.16.36-.24.63-.09.33.2.58.05.67-.34.19.06.17.22.1.33-.09.14-.22.26-.36.36-.14.11-.31.18-.45.29-.06.04-.12.17-.1.2.11.13.23.33.37.35.29.05.6.04.88-.03.32-.08.62-.27.92-.41.17-.07.36-.18.5.03.04.05.03.19,0,.22-.75.66-1.63.93-2.62.8-.02,0-.05-.01-.09.03.06.03.12.08.18.08.38.01.78.06,1.15-.01.32-.06.62-.23.92-.38.22-.11.43-.25.66-.39Z"/>
      <path class="cls-2" d="m78.62,82.95s-.03.07-.05.11h-.01s.04-.08.06-.11Z"/>
      <path class="cls-2" d="m78.51,83.7c-.11.28-.22.56-.34.84-.05.11-.13.2-.2.3.05-.13.12-.26.18-.39l.36-.75Z"/>
      <path class="cls-2" d="m78.19,74.47c.04.14,0,.31,0,.46h-.08c-.05-.28-.13-.57-.16-.86-.05-.51-.06-1.02-.11-1.53-.05-.67-.15-1.33-.18-1.99-.03-.43.06-.87.03-1.3-.06-.79-.16-1.57-.24-2.36-.01-.15.03-.3.05-.44.06-.59.14-1.17.18-1.75.03-.53.01-1.06.01-1.59,0-.13.01-.27,0-.41,0-.04-.06-.08-.09-.11-.02.01-.04.02-.05.03,0-.41,0-.82-.01-1.23-.01-.57-.02-1.14-.05-1.7-.04-.79-.06-1.58-.18-2.36-.06-.35.01-.73-.02-1.09-.04-.46-.11-.92-.16-1.39-.03-.28-.04-.56-.09-.83-.04-.23-.15-.44-.19-.66-.1-.48-.17-.97-.26-1.45-.04-.24-.08-.47-.13-.71.03-.01.06-.01.08-.02.02.01.06.02.06.04.15.48.31.96.44,1.44.1.39.18.79.26,1.19.04.22.08.44.09.66.04.8.05,1.61.11,2.41.05.62.17,1.24.24,1.86.03.33.01.67,0,1-.01.54-.05,1.08-.04,1.62.01.53.09,1.06.1,1.59.01.56,0,1.14-.05,1.7-.07.78-.15,1.56-.1,2.35.04.7.14,1.41.19,2.12.03.4,0,.81.01,1.21.03.6.09,1.19.14,1.78.02.26.04.51.05.77.03.52-.01,1.04.15,1.55Z"/>
      <path class="cls-2" d="m78.14,80.63s0,.09.01.14l-.06.06c-.45.42-.76.93-1.01,1.49,0,.01.04.04.06.07-.27.61-.53,1.23-.8,1.85-.16.04-.1-.06-.08-.14.03-.12.05-.24.08-.37.52-1.08.92-2.23,1.8-3.1Z"/>
      <path class="cls-2" d="m77.84,54.74c.3.42.36.73.27,1.28-.09-.44-.17-.83-.27-1.28Z"/>
      <path class="cls-2" d="m77.64,78.07c-.03.1-.06.19-.09.29h-.01s-.01.03-.01.04h0c-.19.28-.36.55-.54.82-.02.03-.06.06-.1.1.1-.22.2-.43.3-.65.12-.18.24-.37.36-.56.03-.01.06-.03.09-.04Z"/>
      <path class="cls-2" d="m77.55,78.36h0s-.01.03-.02.04c0-.01.01-.03.01-.04h.01Z"/>
      <path class="cls-2" d="m77.4,78.97s0,.05.01.08c-.02-.02-.03-.03-.04-.05l.03-.03Z"/>
      <path class="cls-2" d="m76.77,58.81c.03.33.05.66.08.99h-.07c.05-.34-.25-.64-.01-.99Z"/>
      <path class="cls-1" d="m76.6,101.46c.14.12,0,.31-.14.38-.29.14-.58.17-.87,0-.06-.04-.14-.05-.21-.08-.02.04-.04.09-.05.13.18.08.36.17.54.26.07.03.16.04.23.08.08.06.16.14.24.22-.11.06-.24.21-.33.19-.25-.05-.49-.17-.73-.27-.05-.02-.09-.07-.14-.09-.04,0-.1.03-.14.05.02.04.03.1.06.12.26.17.53.32.79.49.08.06.12.17.21.3-.53.05-.96-.05-1.36-.21-.23-.09-.43-.25-.65-.38-.14-.08-.28-.16-.42-.25-.1-.08-.18-.18-.28-.26-.41-.36-.97-.5-1.34-.93-.25-.28-.3-.6-.27-.95.02-.27.02-.55.04-.82,0-.1.04-.2.04-.29-.02-.68-.05-1.35-.07-2.02,0-.05.1-.14.15-.14.24.01.48.03.71.06.42.07.84.15,1.25.24.07.02.16.11.17.18.04.67.05,1.34.11,2.01.05.45.16.86.62,1.16.36.23.71.36,1.13.42.25.05.51.22.71.4Z"/>
      <path class="cls-2" d="m76.18,49.25c.22,0,.34.29.29.65-.02,0-.04.02-.06.02-.08-.22-.15-.44-.23-.67Z"/>
      <path class="cls-2" d="m76.4,54.21v1.17s-.07,0-.1-.01c.01-.39-.07-.79.1-1.16Z"/>
      <path class="cls-1" d="m76.38,84.3c-.03.15-.03.23-.06.28-.11.15-.15.14-.49-.02.16-.08.31-.15.55-.26Z"/>
      <path class="cls-2" d="m75.84,50.43c.01.19.03.38.05.57h-.13v-.57h.08Z"/>
      <path class="cls-1" d="m75.6,56.81c.17.82-.12,1.57-.29,2.34-.16.71-.37,1.42-.58,2.12-.11.38-.26.74-.39,1.11-.17.43-.29.89-.5,1.3-.28.51-.68.96-.95,1.49-.28.57-.75.95-1.2,1.36-.24.22-.55.26-.86.27-.41.01-.83.01-1.23-.03-.49-.04-.96-.06-1.45-.2-.97-.28-1.48-.97-1.83-1.83-.24-.57-.47-1.15-.64-1.74-.2-.68-.36-1.38-.42-2.08-.02-.27,0-.55,0-.82,0-.05-.02-.1-.02-.15-.05-.28-.1-.56-.13-.84-.09-.78-.18-1.55-.24-2.33-.04-.46-.07-.93-.05-1.39.02-.59.1-1.17.16-1.75.03-.26.15-.41.43-.44.21-.02.41-.12.61-.17.58-.16,1.18-.26,1.74-.47.82-.3,1.68-.14,2.5-.32,0,.03,0,.05,0,.08.61-.05,1.21-.12,1.82-.13.24-.01.48.13.72.17.77.14,1.44.51,2.1.9.06.04.16,0,.24.03.04.01.09.07.09.11.03.38.04.76.06,1.15.02.17.07.33.09.5.08.59.1,1.18.22,1.76Zm-.85-.19c-.09-.03-.18-.05-.26-.09-.29-.14-.56-.35-.86-.42-.66-.17-1.33-.32-1.99-.02-.31.14-.59.3-.75.62-.23.44-.19.93-.26,1.39-.06.45-.03.92-.06,1.37-.04.43-.08.85-.16,1.27-.05.3-.16.59-.26.95-.2-.16-.43-.23-.47-.37-.2-.62-.38-1.26-.37-1.92.01-.37.01-.74,0-1.11,0-.16-.04-.31-.04-.47-.01-.28.02-.57-.01-.85-.04-.28-.07-.59-.21-.83-.25-.43-.67-.67-1.19-.65-.25.02-.5.09-.75.09-.4,0-.73.14-1.02.4.13-.05.27-.11.41-.14.26-.06.54-.06.79-.16.42-.18.77,0,1.14.12.04.01.06.07.09.11.29.4.44.85.49,1.34.04.28.06.57.08.85.02.6.02,1.21.07,1.81.02.36.13.71.2,1.06.03.14-.03.22-.17.24-.19.02-.35-.03-.41-.23-.06-.15.07-.52.18-.58.06-.03.11-.09.17-.14-.4,0-.47.29-.5.56-.01.13.09.33.21.41.17.12.4.26.61-.04.05.29.08.53.4.57.12.01.22-.01.3-.07.11-.05.19-.17.23-.33.01-.04.11-.07.17-.1.12-.05.27-.06.37-.13.33-.27.26-.79-.14-.96-.15-.06-.17-.14-.16-.26.01-.1.04-.19.05-.29.05-.7.09-1.4.16-2.1.02-.27.07-.56.2-.8.3-.53.85-.6,1.4-.68.33-.05.63.07.93.15.35.11.69.24,1.04.36-.01.02-.02.05-.03.08-.05,0-.1,0-.14-.02-.34-.11-.67-.21-1.03-.12-.2.05-.4.1-.59.15-.28.09-.56.18-.83.28-.15.06-.18.17-.06.3.37.39.84.41,1.32.39.24-.01.49-.05.73-.07,0,.03.01.05.02.08l-.96.48.03.06c.4-.17.8-.33,1.18-.53.41-.21.46-.69.71-1.01Zm-2.61,6.63c.03.3.09.61.08.92s-.09.63-.13.93c.34-.36.36-1.64.05-1.85Zm-1.08.84c.13-.37.02-.69-.33-.88-.17-.09-.39-.09-.59-.13-.37.02-.7.05-1.02.25-.51.32-.52.69-.19,1.16.21.29.52.38.8.51.27.12.55.06.79-.11.27-.19.43-.48.54-.8Zm-2.74-7.05c.09-.08.17-.21.17-.32,0-.06-.17-.12-.27-.17-.11-.06-.24-.1-.35-.16-.08-.03-.16-.1-.22-.09-.36.07-.71.15-1.06.23-.17.04-.33.09-.56.15-.12.17,0,.47.41.78-.08-.14-.13-.23-.2-.36.61.36,1.48.48,2.08-.06Zm-.28.59s.04-.06.06-.09c-.03-.02-.07-.05-.11-.05-.13.01-.27.05-.41.06-.25.01-.51.02-.83.04.47.19.88.07,1.29.04Zm.27,7.32c-.37-.61-.72-1.22-.15-1.96-.59.35-.46,1.6.15,1.96Z"/>
      <path class="cls-2" d="m75.39,67.79c.02.19,0,.39,0,.58h-.07c-.19-.97-.31-3.58-.19-3.99h.07c.01.32.04.64.01.96-.01.14,0,.25.01.39.04.46.01.92.03,1.38,0,.23.11.45.14.68Z"/>
      <path class="cls-2" d="m75.19,83.44c-.1.29-.19.58-.29.87-.03-.01-.05-.02-.07-.03.1-.29.2-.57.3-.86.02,0,.04.01.06.02Z"/>
      <path class="cls-2" d="m74.98,69.95v1.23h-.1c.09-.41-.16-.82.02-1.23h.08Z"/>
      <path class="cls-2" d="m74.49,56.53c.08.04.17.06.26.09-.25.32-.3.8-.71,1.01-.38.2-.78.36-1.18.53l-.03-.06.96-.48s-.02-.05-.02-.08c-.24.02-.49.06-.73.07-.48.02-.95,0-1.32-.39-.12-.13-.09-.24.06-.3.27-.1.55-.19.83-.28.19-.05.39-.1.59-.15.36-.09.69.01,1.03.12.04.02.09.02.14.02.01-.03.02-.06.03-.08-.35-.12-.69-.25-1.04-.36-.3-.08-.6-.2-.93-.15-.55.08-1.1.15-1.4.68-.13.24-.18.53-.2.8-.07.7-.11,1.4-.16,2.1-.01.1-.04.19-.05.29-.01.12.01.2.16.26.4.17.47.69.14.96-.1.07-.25.08-.37.13-.06.03-.16.06-.17.1-.04.16-.12.28-.23.33.1-.36.21-.65.26-.95.08-.42.12-.84.16-1.27.03-.45,0-.92.06-1.37.07-.46.03-.95.26-1.39.16-.32.44-.48.75-.62.66-.3,1.33-.15,1.99.02.3.07.57.28.86.42Zm-.28.75c.2-.1.25-.45.08-.5-.32-.1-.64-.26-1.07-.15.62.13.52.48.27.91.29-.1.52-.16.72-.26Zm-.94.16c.15.01.3-.24.28-.41-.04-.25-.21-.24-.4-.2-.02-.06-.03-.12-.04-.17-.11.01-.19.01-.27.03-.26.07-.52.13-.77.21-.08.03-.13.13-.19.19.07.07.14.17.23.2.24.09.49.15.76.22-.14-.4-.09-.63.17-.78-.04.13-.08.22-.09.32s-.02.24.03.3c.05.07.19.09.29.09Zm-2.25,3.33c.02-.18-.18-.44-.43-.55-.04.29-.08.59-.12.89.44-.08.53-.14.55-.34Z"/>
      <path class="cls-2" d="m74.47,64.53c.04.41.18.82.03,1.29-.04-.46-.08-.87-.12-1.28.03-.01.06-.01.09-.01Z"/>
      <path class="cls-2" d="m74.48,68.06c.01.11.02.21.03.32,0,.08-.02.17-.02.25-.05-.07-.13-.14-.15-.21-.02-.15,0-.3,0-.45,0-.3-.01-.6-.02-.89,0-.03.04-.07.08-.16.15.42.07.78.09,1.14Z"/>
      <path class="cls-2" d="m73.82,66.76c.03.7.06,1.35.1,2.04-.23-.31-.31-1.82-.1-2.04Z"/>
      <path class="cls-2" d="m73.58,48.99c.18.14.19.79.05.99-.02-.35-.04-.67-.05-.99Z"/>
      <path class="cls-2" d="m73.38,51.19l.21.6s-.06.01-.09.02c-.07-.2-.14-.39-.2-.59.03-.01.05-.02.08-.03Z"/>
      <path class="cls-2" d="m72.22,64.17c.01-.31-.05-.62-.08-.92.31.21.29,1.49-.05,1.85.04-.3.12-.62.13-.93Z"/>
      <path class="cls-2" d="m71.49,91.81c-.05.48-.11.96-.16,1.44h-.08c.06-.48.13-.96.19-1.44h.05Z"/>
      <path class="cls-1" d="m71.57,66.82c-.01.65.03,1.28-.17,1.9-.13.37-.11.8-.24,1.18-.15.46-.16,1-.58,1.34-.15.13-.37.24-.57.24-.36,0-.74-.03-1.1-.09-.56-.09-.75-.53-.85-1.01-.11-.54-.18-1.09-.15-1.65.03-.57.07-1.14.1-1.71.01-.05.04-.09.06-.13.32.12.62.26.94.33.22.05.47.03.7,0,.49-.06.97-.15,1.45-.24.13-.03.26-.1.41-.16Z"/>
      <path class="cls-2" d="m71.15,49.23c.1.3.11.59-.02.89-.02-.3-.03-.59-.05-.89h.07Z"/>
      <path class="cls-2" d="m70.73,63.21c.35.19.46.51.33.88-.11.32-.27.61-.54.8-.24.17-.52.23-.79.11-.28-.13-.59-.22-.8-.51-.33-.47-.32-.84.19-1.16.32-.2.65-.23,1.02-.25.2.04.42.04.59.13Zm.13.39s.03-.08.05-.13c-.09-.06-.16-.18-.26-.2-.47-.08-.95-.13-1.37.2-.05.04-.06.13-.09.19.06.01.12.04.18.03.27-.02.54-.05.81-.07.23-.01.46-.01.68-.02Zm-.81,1.12c.47.03.81-.34.7-.8h-1.67c-.03.44.09.7.4.78.18.05.38.01.57.02Z"/>
      <path class="cls-1" d="m70.59,60.22c.25.11.45.37.43.55-.02.2-.11.26-.55.34.04-.3.08-.6.12-.89Z"/>
      <path class="cls-1" d="m70.91,63.47s-.03.09-.05.13c-.22.01-.45.01-.68.02-.27.02-.54.05-.81.07-.06.01-.12-.02-.18-.03.03-.06.04-.15.09-.19.42-.33.9-.28,1.37-.2.1.02.17.14.26.2Z"/>
      <path class="cls-1" d="m70.75,63.92c.11.46-.23.83-.7.8-.19-.01-.39.03-.57-.02-.31-.08-.43-.34-.4-.78h1.67Z"/>
      <path class="cls-2" d="m69.45,61.19c-.21.3-.44.16-.61.04-.12-.08-.22-.28-.21-.41.03-.27.1-.56.5-.56-.06.05-.11.11-.17.14-.11.06-.24.43-.18.58.06.2.22.25.41.23.14-.02.2-.1.17-.24-.07-.35-.18-.7-.2-1.06-.05-.6-.05-1.21-.07-1.81-.02-.28-.04-.57-.08-.85-.05-.49-.2-.94-.49-1.34-.03-.04-.05-.1-.09-.11-.37-.12-.72-.3-1.14-.12-.25.1-.53.1-.79.16-.14.03-.28.09-.41.14.29-.26.62-.4,1.02-.4.25,0,.5-.07.75-.09.52-.02.94.22,1.19.65.14.24.17.55.21.83.03.28,0,.57.01.85,0,.16.04.31.04.47.01.37.01.74,0,1.11-.01.66.17,1.3.37,1.92.04.14.27.21.47.37-.08.06-.18.08-.3.07-.32-.04-.35-.28-.4-.57Z"/>
      <path class="cls-2" d="m68.49,56.72c0,.11-.08.24-.17.32-.6.54-1.47.42-2.08.06.07.13.12.22.2.36-.41-.31-.53-.61-.41-.78.23-.06.39-.11.56-.15.35-.08.7-.16,1.06-.23.06-.01.14.06.22.09.11.06.24.1.35.16.1.05.27.11.27.17Zm-.28.05c-.08-.05-.17-.1-.25-.16-.03-.02-.05-.05-.07-.06-.15-.05-.31-.09-.46-.13,0,.03-.03.05-.04.08.33.11.36.35.29.67.1-.04.18-.06.24-.11.11-.09.2-.19.29-.29Zm-.78.38c.18-.05.25-.27.11-.39-.12-.1-.29-.15-.45-.23-.03.08-.08.14-.07.19.02.16.05.32.12.46.01.03.19-.01.29-.03Zm-.53.05c.01-.23.03-.44.05-.7l-.8.32s-.01.06-.01.09c.26.1.52.2.76.29Z"/>
      <path class="cls-2" d="m68.1,57.54s-.04.09-.06.09c-.41.03-.82.15-1.29-.04.32-.02.58-.03.83-.04.14-.01.28-.05.41-.06.04,0,.08.03.11.05Z"/>
      <path class="cls-2" d="m68.16,62.99c-.57.74-.22,1.35.15,1.96-.61-.36-.74-1.61-.15-1.96Z"/>
      <path class="cls-2" d="m67.57,50.88c.02.24.03.47.05.7-.03.01-.07.01-.1.02-.03-.24-.05-.47-.07-.71.04,0,.08-.01.12-.01Z"/>
      <path class="cls-2" d="m66.75,49.68c-.03.3-.07.59-.1.88h-.05c.01-.3.03-.59.05-.88h.1Z"/>
      <path class="cls-1" d="m66.61,97.26c0,.62.01,1.2,0,1.78-.02.4-.06.81-.11,1.21-.02.24-.04.5-.11.73-.12.33-.3.63-.61.84-.17.11-.29.3-.47.39-.41.21-.8.46-1.27.56-.37.08-.73.27-1.09.41-.04.01-.08.03-.12.02-.13-.02-.36.09-.36-.12-.01-.16.08-.38.21-.48.24-.19.54-.32.81-.47.04-.03.06-.07.1-.11-.19-.16-.33-.03-.45.07-.24.2-.51.11-.77.09-.06,0-.17-.14-.17-.23s.07-.23.15-.27c.2-.1.42-.16.64-.23q.19-.07.14-.26l-.81.3c-.2.06-.51-.09-.58-.29-.07-.21.09-.53.32-.6.25-.08.51-.12.76-.21.46-.18.94-.35,1.37-.59.19-.11.33-.37.39-.6.09-.29.1-.61.12-.92.01-.31,0-.61,0-.93.66-.03,1.29-.06,1.91-.09Z"/>
      <path class="cls-2" d="m65.92,66.29c.04.46.08.87.12,1.3-.22-.18-.29-.94-.12-1.3Z"/>
      <path class="cls-2" d="m65.59,68.54c.02.16.05.32.07.48-.23-.12-.14-.31-.14-.47.02,0,.05,0,.07-.01Z"/>
      <path class="cls-2" d="m65.21,67.18l-.3,1.71s-.08-.02-.12-.02c.09-.58.19-1.15.29-1.73.04.01.09.02.13.04Z"/>
      <path class="cls-2" d="m64.31,63.04c.18.33,0,.67.03,1,.02.29.02.58,0,.86-.02.36-.09.7-.13,1.05-.03.33-.04.67-.07,1,0,.12-.03.24-.04.37-.02.24-.03.48-.06.71-.01.1-.06.18-.09.27l-.09-.03c.08-.7.16-1.41.23-2.11.05-.44.09-.89.1-1.33.01-.4-.1-.82-.01-1.2.08-.36-.05-.7.05-1.05.06-.22-.04-.48-.06-.73-.01-.15-.09-.32.16-.43,0,.5,0,1.01,0,1.51,0,.04-.04.09-.03.11Z"/>
      <path class="cls-2" d="m64.28,59.26l.03.48h-.14l.03-.48h.08Z"/>
      <path class="cls-2" d="m63.61,52.01c-.15.39-.3.79-.45,1.2-.15-.3.11-.98.45-1.2Z"/>
      <path class="cls-2" d="m63.64,69.73c-.12.32.04.66-.13.95-.13-.47-.08-.82.13-.95Z"/>
      <path class="cls-2" d="m62.7,56.2s.06.02.1.03c-.07.26-.13.51-.21.77-.2.62-.41,1.24-.6,1.87-.12.43-.16.88-.32,1.29-.1.25-.04.49-.09.72-.05.27-.15.52-.19.78-.11.61-.21,1.22-.29,1.83-.08.58-.17,1.17-.2,1.76-.01.16-.03.34-.02.51.01.09-.04.18-.06.27-.02-.01-.05-.01-.08-.01.06-.69.13-1.37.19-2.05.04-.33.06-.67.11-1,.1-.65.2-1.3.31-1.94.08-.41.14-.83.24-1.23.14-.58.25-1.17.48-1.71.2-.48.33-.98.5-1.46.06-.14.09-.29.13-.43Z"/>
      <path class="cls-2" d="m62.04,65.46c.01-.06.05-.12.08-.19-.19,1.98-.1,3.98-.7,5.9.03-.22.03-.42.08-.63.17-.76.26-1.52.3-2.29.05-.93.16-1.86.24-2.79Z"/>
      <path class="cls-2" d="m60.75,66.43c.1.73.02,1.44-.15,2.14-.05.21-.04.43-.07.64-.04.33-.15.65-.13.97.02.3-.11.57-.04.89.06.24-.05.53-.09.8-.04.37-.1.75-.14,1.12-.06.65-.12,1.3-.18,1.96-.03-.01-.06-.01-.09-.02.04-.29.1-.59.12-.88.03-.41.03-.82.06-1.23.02-.27.08-.53.11-.8.02-.19-.01-.39.04-.57.12-.38.01-.76.05-1.14.03-.23.07-.47.1-.7.06-.48.13-.96.2-1.44.05-.39.11-.78.16-1.17.01-.07-.01-.14-.01-.21.01-.12.03-.24.06-.36Z"/>
      <path class="cls-2" d="m60.45,82.37c.08,1.56.15,3.14.23,4.69-.23-.37-.43-4.38-.23-4.69Z"/>
      <path class="cls-2" d="m59.94,75.14c-.03.55-.07,1.11-.11,1.66-.14-.57-.05-1.12.02-1.67.03.01.06.01.09.01Z"/>
    </g>
  </g>
</svg>