<?xml version="1.0" encoding="UTF-8"?>
<svg id="Layer_1" data-name="Layer 1" xmlns="http://www.w3.org/2000/svg" viewBox="0 0 136.06 136.06">
  <defs>
    <style>
      .cls-1 {
        fill: #0c3454;
      }

      .cls-2 {
        fill: #636a42;
      }
    </style>
  </defs>
  <g id="_0pMsCc" data-name="0pMsCc">
    <g>
      <path class="cls-2" d="m82.63,73.33c-.05-.2-.07-.36-.12-.52-.29-.92-1.07-1.57-1.17-2.63-.12-1.19-.22-2.3.39-3.37.35-.61.71-.77,1.34-.47,1.22.58,2.42,1.2,3.62,1.8,1.13.57,1.77,1.48,1.82,2.75.02.68-.02,1.39-.16,2.05-.45,2.13-.95,4.25-1.45,6.37-.45,1.93-.88,3.88-1.4,5.79-.17.63-.51,1.26-1.17,1.6-.89.47-1.76.98-2.68,1.41-.59.27-1.19.51-1.92.25-.71-.25-1.44.6-1.25,1.33.14.54.38.97.94,1.13.58.16.81-.33,1.11-.66.44-.49,1.75-.84,2.25-.46.46.34.98.81,1.14,1.32.19.62.02,1.35-.02,2.03,0,.07-.16.12-.24.19-.43.4-.48.83-.21,1.35.21.39.53.58.93.71.5.16,1.23.01,1.39-.49.11-.32-.05-.81-.24-1.14-.22-.39-.18-.79.24-.97,1.2-.49,2.26.24,2.63,1.5.08.29.08.52-.18.79-.43.44-.26,1.24.23,1.46.96.43,1.98.11,2.43-.82.17-.34.39-.81-.31-.92-.09-.01-.24-.19-.22-.26.17-.67.32-1.36.6-1.98.07-.17.65-.29.86-.18.25.13.71.25.62.76-.07.42.39,1.06.84,1.23.55.21,1.63-.23,1.97-.79.41-.67-.09-2.03-.93-2.04-.3,0-.65-.1-.88-.27-1.29-.99-2.56-2.03-3.83-3.05-.87-.69-1.45-1.48-.9-2.65.01-.03.02-.07.03-.1.22-.93.4-1.86.66-2.78.25-.89.6-1.76.86-2.65.22-.76.34-1.55.54-2.32.31-1.24.68-2.46.97-3.7.38-1.59.74-3.18,1.03-4.78.13-.7.1-1.44.1-2.16,0-.22-.05-.54-.2-.66-.59-.48-1.19-.96-1.86-1.31-.7-.37-1.48-.61-2.22-.9-1.73-.67-3.45-1.32-5.18-1.99-.28-.11-.58-.2-.83-.36-.83-.53-1.43-1.3-2-2.08-.21-.28-.44-.56-.58-.88-.79-1.77-1.91-3.33-3.13-4.82-.83-1-1.83-1.76-2.95-2.38-.97-.54-1.92-1.18-2.96-1.54-1.39-.49-2.69-1.14-3.97-1.83-.18-.1-.3-.3-.44-.46.26-.08.41-.04.57-.03,1.35.08,2.71.09,4.04.26,2.73.35,5.44.79,8.16,1.17.34.05.7-.05,1.05-.05.85,0,1.7.08,2.54.02.89-.06,1.77-.22,2.65-.36,1.13-.18,2.15-.59,2.98-1.43.29-.29.31-.6.17-.92-.2-.43-.39-.88-.66-1.27-.73-1.01-1.51-2-2.28-2.98-.19-.25-.45-.45-.64-.7-.84-1.13-1.67-2.26-2.5-3.4-.5-.68-1.01-1.36-1.5-2.05-.14-.2-.29-.41.16-.5.37-.08.71-.32,1.08-.43.79-.25,1.59-.51,2.39-.69,1.53-.34,3.08-.61,4.61-.97.51-.12.81,0,1.1.37.64.86,1.27,1.73,1.93,2.58.79,1.01,1.62,2,2.43,3.01.08.1.15.25.14.36-.15,1.1-.03,1.22,1.03,1.3.66.05,1.21-.45,1.32-.92.11-.45-.22-.96-.79-1.24.76-1.71,2.36-2.98,3.56-2.81.07.25.15.51.23.77.12.4.41.6.8.6.75.02,1.75-.85,1.89-1.39.21-.81-.06-1.57-.61-2.14-.55-.57-1.27-.53-1.95-.15-1.73-1.45-2.07-3.53-1.25-4.62.28.21.54.45.84.63.55.33,1.28.02,1.56-.54.57-1.12.28-2.16-.25-3.17-.31-.59-1.08-.95-1.6-.78-1.07.35-1.4.78-1.3,1.69.02.17,0,.35,0,.62-.77,0-1.54.12-2.26,0-1.32-.23-2.46-.65-1.82-2.34,0-.02.02-.03.03-.04.66.14,1.6-.15,1.77-.72.19-.61.11-1.18-.22-1.51-.74-.76-1.67-.79-2.63-.76-.54.02-1.03.57-.93,1.03.07.33.23.64.34.96.05.14.11.32.06.44-.11.33-.28.64-.42.96-.79,1.87-1.59,3.74-2.38,5.62-.28.66-.36.7-1.05.47-.06-.02-.14,0-.21,0-1.23-.05-2.47-.14-3.7-.15-1.5-.01-2.97.02-4.45.45-.76.22-1.51.41-2.25.7-1.15.45-1.68,1.53-1.5,2.37.24,1.12.59,2.25,1.07,3.28.68,1.44,1.52,2.79,2.3,4.18.17.3.38.59.6.86.34.43.7.85,1.05,1.27-.58-.17-1.09-.43-1.61-.64-1.44-.57-2.88-1.19-4.35-1.65-1.04-.33-2.14-.55-3.22-.61-1.09-.06-2.19.22-3.28.21-1.52-.02-2.98.22-4.42.65-.77.23-1.39.74-1.89,1.33-.34.4-.49.97-.75,1.45-.11.2-.29.35-.44.52l-.2-.04c.22-.45.16-.68-.32-.63-.08,0-.17-.1-.26-.13-.37-.13-.77-.4-1.1-.33-.84.17-1.73.38-2.46.8-.86.49-1.58,1.21-2.35,1.85-.94.79-1.74,1.71-2.4,2.75-.37.58-.81,1.12-1.3,1.79-.27-.63-.48-1.15-.71-1.66-.52-1.15-1.01-2.31-1.58-3.44-.46-.91-.96-1.81-1.92-2.32-.28-.15-.48-.2-.7.04-.86.92-1.78,1.78-2.55,2.76-.92,1.17-1.71,2.46-2.58,3.68-1.04,1.46-2.1,2.92-3.17,4.35-.46.61-.52.76-1.42.55-.24-.06-.48-.11-.73-.14-.97-.11-1.94-.17-2.89-.32-.3-.05-.6-.28-.82-.5-.42-.43-1.15-.64-1.66-.32-.44.27-.85.61-1.24.94-.4.34-.44.8-.06,1.16.27.25.63.53.97.55.65.05,1.09.3,1.47.81.64.87.88,1.81.76,2.84-.33.07-.64.06-.87.19-.21.13-.46.41-.47.62,0,.44.08.9.23,1.31.27.79,1.18,1.15,1.91.74.25-.14.51-.52.52-.8.02-.52.29-.94.83-.87,1.17.13,2.26,1.15,2.26,2.64-.28.21-.58.34-.73.57-.56.89-.37,1.59.54,2.3.57.45,1.47.16,2-.34.62-.59.66-1.11.2-1.87-.04-.07-.05-.16-.05-.24-.03-.84.56-1.37,1.37-1.23.79.14.79.17,1.02,1.08.07.27.21.59.43.73.55.37,1.61-.01,1.95-.65.25-.47-.17-1.6-.72-1.78-.42-.14-.54-.43-.71-.78-.4-.82-.79-1.67-1.31-2.42-.78-1.13-.89-1.65-.25-2.65.09-.13.21-.24.29-.38.55-.99,1.1-1.99,1.65-2.99.55-1,1.08-2.01,1.65-2.99.29-.51.64-.99.98-1.47.03-.05.34,0,.35.06.26.91.49,1.82.72,2.73.27,1.04.54,2.08.79,3.12.3,1.24.56,2.49.88,3.73.26,1,.53,2.01.88,2.98.19.52.46,1.05.83,1.47.67.76,2.02.46,2.71-.48,1.17-1.59,1.7-3.47,2.43-5.26.56-1.37,1.19-2.7,1.87-4.02.51-.99,1.13-1.91,1.71-2.86.14-.24.28-.47.42-.71.05.02.09.05.14.07-.07.37-.24.75-.2,1.12.15,1.48-.08,2.94.02,4.43.15,2.04.3,4.09.79,6.06.33,1.34.91,2.64,1.52,3.89.63,1.29.69,2.44-.11,3.43-1.2,1.49-2.43,2.96-3.62,4.47-.75.95-1.41,1.98-2.16,2.94-.7.9-1.03,1.87-.74,2.98.12.47.39.9.54,1.36.36,1.12.93,2.12,1.67,3.02.99,1.22,2.01,2.42,3.01,3.63.99,1.2,1.93,2.43,2.96,3.58.89,1,1.97,1.85,2.81,2.89.7.88,1.09,1.58.13,2.68-.63.72-1.1,1.59-1.63,2.38-.32.09-.69.17-1.03.31-.94.36-1.27,1.47-.82,2.39.39.79,1.06,1,1.8.99,1.24-.01,2.29-1.15,1.76-2.49-.1-.26-.15-.66-.02-.86.11-.16.52-.14.8-.16.11,0,.26.04.34.12.43.39.88.76,1.24,1.2.93,1.12.9,1.69.29,2.65-.27.43-.47.89-.2,1.32.32.51.74,1.03,1.44,1.03.87,0,1.63-.32,2.28-.9.69-.61.62-1.43-.12-2-.21-.16-.44-.44-.45-.68-.02-.48,0-1.01.17-1.46.35-.95,1.39-1.5,2.38-1.34.12.02.26.16.31.29.16.36.42.46.81.47.81,0,1.33-.38,1.71-1.06.54-.97.38-1.38-.68-1.71-.46-.14-.72-.37-.95-.68-.64-.85-.84-1.81-.55-2.85.07-.27.17-.34.45-.27.55.13,1.37-.3,1.56-.75.32-.75-.2-1.19-.59-1.68-.32-.41-.74-.2-1.13-.12-.86.17-1.73.35-2.58.56-.49.12-.98.28-1.44.49-.53.23-1.03.52-1.6.81-.81-1-1.6-1.96-2.36-2.93-.94-1.19-1.98-2.33-2.78-3.61-1.01-1.6-2.25-3-3.47-4.41-.79-.92-1.36-1.89-1.82-2.96-.47-1.12.13-2.09.65-2.99.47-.83,1.12-1.56,1.68-2.34.68-.95,1.32-1.94,2.03-2.87.44-.57,1.16-.65,1.62-.21.47.45.91.93,1.33,1.43.19.23.32.53.38.82.17.87.1,1.71-.31,2.53-.34.67-.73,1.37-.46,2.19.02.07-.04.21-.11.26-.58.44-.69,1.08-.8,1.74-.32,1.92.97,3.92,2.89,4.28.93.17,1.91.31,2.66-.34.5.46.93.97,1.45,1.34.77.53,1.6.98,2.43,1.43.88.47,1.79.79,2.83.7,1.44-.12,2.69-.66,3.76-1.59.69-.6,1.33-1.23,1.79-2.06.49-.88.74-1.82.59-2.74-.14-.87-.35-1.69-.02-2.57,1.3-.46,1.56-1.15,1.48-3.04-.03-.74-.94-1.46-2.09-1.69Z"/>
      <path class="cls-1" d="m82.63,73.33c1.15.23,2.06.95,2.09,1.69.09,1.89-.18,2.58-1.48,3.04-.33.88-.12,1.7.02,2.57.15.92-.1,1.85-.59,2.74-.46.84-1.1,1.47-1.79,2.06-1.07.93-2.31,1.47-3.76,1.59-1.05.09-1.96-.23-2.83-.7-.83-.44-1.66-.9-2.43-1.43-.53-.37-.96-.87-1.45-1.34-.74.65-1.72.51-2.66.34-1.92-.36-3.21-2.35-2.89-4.28.11-.66.22-1.3.8-1.74.07-.05.13-.19.11-.26-.26-.82.13-1.52.46-2.19.41-.82.48-1.66.31-2.53-.06-.29-.2-.59-.38-.82-.41-.5-.86-.98-1.33-1.43-.46-.44-1.18-.36-1.62.21-.71.93-1.35,1.92-2.03,2.87-.56.78-1.21,1.51-1.68,2.34-.52.91-1.12,1.87-.65,2.99.45,1.08,1.03,2.05,1.82,2.96,1.21,1.41,2.46,2.81,3.47,4.41.81,1.28,1.84,2.42,2.78,3.61.77.97,1.55,1.93,2.36,2.93.57-.29,1.07-.58,1.6-.81.47-.2.95-.36,1.44-.49.85-.21,1.72-.38,2.58-.56.38-.08.81-.29,1.13.12.38.49.91.93.59,1.68-.19.45-1.02.88-1.56.75-.28-.07-.38,0-.45.27-.28,1.05-.09,2,.55,2.85.23.31.49.54.95.68,1.06.33,1.22.74.68,1.71-.38.68-.9,1.07-1.71,1.06-.38,0-.65-.1-.81-.47-.05-.12-.19-.27-.31-.29-.99-.16-2.03.39-2.38,1.34-.17.45-.2.97-.17,1.46.01.24.24.52.45.68.75.57.82,1.39.12,2-.65.57-1.41.9-2.28.9-.7,0-1.12-.51-1.44-1.03-.26-.42-.07-.88.2-1.32.61-.97.64-1.53-.29-2.65-.37-.44-.82-.81-1.24-1.2-.08-.08-.23-.13-.34-.12-.28.02-.69,0-.8.16-.13.2-.08.6.02.86.54,1.34-.52,2.48-1.76,2.49-.74,0-1.41-.2-1.8-.99-.45-.92-.12-2.02.82-2.39.34-.13.71-.21,1.03-.31.53-.79,1-1.65,1.63-2.38.96-1.1.57-1.8-.13-2.68-.83-1.05-1.91-1.89-2.81-2.89-1.03-1.15-1.97-2.39-2.96-3.58-1-1.21-2.01-2.41-3.01-3.63-.74-.9-1.31-1.9-1.67-3.02-.15-.46-.41-.89-.54-1.36-.29-1.11.04-2.08.74-2.98.75-.96,1.41-1.98,2.16-2.94,1.18-1.51,2.42-2.97,3.62-4.47.79-.99.74-2.13.11-3.43-.61-1.25-1.19-2.55-1.52-3.89-.49-1.98-.64-4.02-.79-6.06-.11-1.48.13-2.95-.02-4.43-.04-.36.13-.74.2-1.12-.05-.02-.09-.05-.14-.07-.14.24-.28.48-.42.71-.57.95-1.2,1.87-1.71,2.86-.68,1.31-1.31,2.65-1.87,4.02-.73,1.79-1.27,3.67-2.43,5.26-.69.95-2.04,1.24-2.71.48-.37-.41-.64-.94-.83-1.47-.35-.97-.62-1.98-.88-2.98-.32-1.24-.58-2.49-.88-3.73-.25-1.04-.52-2.08-.79-3.12-.23-.91-.47-1.83-.72-2.73-.02-.05-.32-.11-.35-.06-.35.48-.69.96-.98,1.47-.57.99-1.1,1.99-1.65,2.99-.55,1-1.09,2-1.65,2.99-.08.14-.2.25-.29.38-.64,1-.53,1.52.25,2.65.52.75.91,1.6,1.31,2.42.17.34.29.64.71.78.56.18.98,1.32.72,1.78-.35.63-1.41,1.02-1.95.65-.21-.14-.36-.47-.43-.73-.23-.91-.23-.94-1.02-1.08-.81-.14-1.4.39-1.37,1.23,0,.08.01.17.05.24.46.76.42,1.28-.2,1.87-.53.5-1.43.79-2,.34-.9-.71-1.1-1.42-.54-2.3.15-.23.45-.36.73-.57,0-1.49-1.1-2.51-2.26-2.64-.54-.06-.81.35-.83.87-.01.28-.27.66-.52.8-.72.41-1.63.05-1.91-.74-.15-.42-.24-.88-.23-1.31,0-.22.25-.5.47-.62.23-.14.54-.13.87-.19.12-1.03-.12-1.98-.76-2.84-.37-.51-.82-.76-1.47-.81-.34-.03-.71-.3-.97-.55-.39-.37-.34-.83.06-1.16.4-.34.8-.67,1.24-.94.52-.31,1.24-.11,1.66.32.22.23.52.46.82.5.96.15,1.93.21,2.89.32.24.03.49.09.73.14.9.21.96.05,1.42-.55,1.08-1.44,2.13-2.89,3.17-4.35.87-1.22,1.65-2.5,2.58-3.68.77-.98,1.69-1.85,2.55-2.76.22-.24.43-.19.7-.04.96.52,1.46,1.41,1.92,2.32.57,1.13,1.06,2.29,1.58,3.44.23.51.44,1.02.71,1.66.49-.67.93-1.21,1.3-1.79.66-1.04,1.46-1.95,2.4-2.75.76-.64,1.49-1.36,2.35-1.85.74-.42,1.62-.62,2.46-.8.33-.07.73.2,1.1.33.09.03.18.14.26.13.48-.04.55.18.32.63l.2.04c.15-.17.33-.33.44-.52.26-.48.41-1.04.75-1.45.5-.59,1.12-1.1,1.89-1.33,1.44-.43,2.9-.66,4.42-.65,1.09.01,2.19-.27,3.28-.21,1.08.06,2.18.28,3.22.61,1.48.47,2.91,1.08,4.35,1.65.53.21,1.03.47,1.61.64-.35-.42-.71-.84-1.05-1.27-.22-.27-.42-.56-.6-.86-.78-1.38-1.63-2.74-2.3-4.18-.49-1.04-.83-2.16-1.07-3.28-.18-.84.34-1.91,1.5-2.37.74-.29,1.49-.48,2.25-.7,1.48-.42,2.96-.46,4.45-.45,1.23,0,2.47.1,3.7.15.07,0,.15-.02.21,0,.69.24.78.19,1.05-.47.79-1.87,1.58-3.74,2.38-5.62.14-.32.31-.63.42-.96.04-.13-.02-.3-.06-.44-.1-.32-.26-.63-.34-.96-.1-.46.39-1.01.93-1.03.95-.04,1.88,0,2.63.76.32.33.4.9.22,1.51-.18.57-1.12.85-1.77.72-.01.01-.03.03-.03.04-.64,1.69.5,2.11,1.82,2.34.73.12,1.49.01,2.26,0,0-.27.03-.45,0-.62-.1-.91.23-1.34,1.3-1.69.51-.17,1.29.19,1.6.78.53,1.02.82,2.05.25,3.17-.28.56-1.02.87-1.56.54-.3-.18-.56-.41-.84-.63-.82,1.09-.48,3.17,1.25,4.62.68-.38,1.41-.42,1.95.15.54.57.82,1.32.61,2.14-.14.54-1.15,1.41-1.89,1.39-.38,0-.68-.21-.8-.6-.08-.26-.15-.52-.23-.77-1.2-.17-2.8,1.1-3.56,2.81.57.27.9.79.79,1.24-.12.46-.67.97-1.32.92-1.05-.09-1.18-.2-1.03-1.3.02-.11-.06-.26-.14-.36-.81-1.01-1.63-1.99-2.43-3.01-.66-.84-1.29-1.72-1.93-2.58-.28-.38-.59-.49-1.1-.37-1.53.37-3.08.63-4.61.97-.81.18-1.6.44-2.39.69-.37.12-.71.35-1.08.43-.44.09-.3.3-.16.5.49.69,1,1.37,1.5,2.05.83,1.13,1.66,2.27,2.5,3.4.19.25.44.45.64.7.77.99,1.54,1.97,2.28,2.98.28.38.47.83.66,1.27.15.33.13.63-.17.92-.83.84-1.85,1.25-2.98,1.43-.88.14-1.76.3-2.65.36-.84.06-1.69-.02-2.54-.02-.35,0-.71.1-1.05.05-2.72-.38-5.44-.82-8.16-1.17-1.34-.17-2.69-.17-4.04-.26-.16,0-.31-.05-.57.03.15.16.27.36.44.46,1.29.69,2.58,1.34,3.97,1.83,1.04.37,1.99,1,2.96,1.54,1.12.62,2.12,1.38,2.95,2.38,1.23,1.49,2.34,3.04,3.13,4.82.14.32.37.6.58.88.58.78,1.17,1.55,2,2.08.25.16.55.25.83.36,1.73.66,3.45,1.32,5.18,1.99.75.29,1.52.52,2.22.9.66.35,1.27.84,1.86,1.31.15.12.2.43.2.66,0,.72.03,1.45-.1,2.16-.3,1.6-.66,3.19-1.03,4.78-.29,1.24-.66,2.47-.97,3.7-.2.77-.32,1.56-.54,2.32-.25.89-.61,1.76-.86,2.65-.26.92-.44,1.85-.66,2.78,0,.03-.01.07-.03.1-.54,1.17.03,1.96.9,2.65,1.28,1.02,2.54,2.05,3.83,3.05.23.18.58.27.88.27.83.01,1.34,1.37.93,2.04-.34.55-1.42,1-1.97.79-.44-.17-.91-.81-.84-1.23.09-.51-.38-.62-.62-.76-.21-.11-.78.01-.86.18-.28.63-.42,1.31-.6,1.98-.02.07.13.24.22.26.7.11.48.58.31.92-.46.93-1.47,1.25-2.43.82-.49-.22-.66-1.02-.23-1.46.26-.27.26-.5.18-.79-.37-1.27-1.42-2-2.63-1.5-.41.17-.45.58-.24.97.19.33.35.82.24,1.14-.17.5-.9.64-1.39.49-.41-.13-.73-.31-.93-.71-.27-.52-.22-.95.21-1.35.08-.07.24-.12.24-.19.04-.68.2-1.41.02-2.03-.15-.51-.67-.98-1.14-1.32-.51-.38-1.81-.03-2.25.46-.3.33-.53.83-1.11.66-.56-.15-.8-.59-.94-1.13-.18-.73.54-1.58,1.25-1.33.73.26,1.33.02,1.92-.25.91-.42,1.78-.94,2.68-1.41.65-.34.99-.97,1.17-1.6.52-1.92.95-3.86,1.4-5.79.49-2.12,1-4.24,1.45-6.37.14-.67.18-1.37.16-2.05-.04-1.26-.69-2.18-1.82-2.75-1.2-.61-2.41-1.22-3.62-1.8-.63-.3-.99-.14-1.34.47-.61,1.07-.51,2.18-.39,3.37.11,1.06.88,1.72,1.17,2.63.05.16.08.32.12.52Zm-16.56,24.91c.77-.74,1.38-1.59,1.69-2.75.23.16.57.27.64.47.21.61.32,1.25.47,1.88.39,1.64.79,3.28,1.2,4.98-.09.05-.3.13-.48.26-.34.24-.76.47-.63.98.13.53.68.94,1.23.94.58,0,1.13-.21,1.41-.72.21-.38-.22-.65-.41-.96-.25-.41-.67-.73-.66-1.32.02-.76-.12-1.51-.19-2.27-.09-.83-.17-1.66-.28-2.48-.08-.62-.2-1.23-.31-1.84-.03-.15-.06-.3-.09-.46.22,0,.49-.11.64-.01.76.49,1.52,1,2.22,1.57.67.55,1.27,1.18,1.91,1.77.24.22.59.36.38.81-.02.05.31.31.52.39.14.06.41.04.51-.06.21-.21.49-.49.49-.74,0-.3-.12-.71-.64-.67-.29.02-.66.03-.86-.12-1.1-.89-2.16-1.83-3.24-2.75-.07-.06-.15-.14-.22-.14-.58,0-.88-.36-1.17-.85.15-.11.27-.24.42-.29.46-.15.93-.29,1.41-.41.9-.22,1.78-.47,2.58-1.12.24.2.51.41.8.65l.63-.18c-.15-.29-.23-.59-.41-.78-.12-.12-.41-.13-.61-.09-.25.04-.48.2-.73.25-.26.05-.54-.02-.79.05-1.16.33-2.3.72-3.46,1.02-.27.07-.62.35-.91-.02-.8-1-1.63-1.99-2.41-3.01-1.7-2.22-3.37-4.45-5.07-6.67-.41-.53-.79-1.14-1.31-1.52-.88-.65-1.55-1.45-2.12-2.35-.43-.68-.69-1.41-.34-2.22.09-.21.17-.43.27-.64.26-.56.49-1.15.81-1.67.52-.83,1.09-1.63,1.68-2.41.93-1.24,1.77-2.62,3.42-3.04.29-.07.71-.04.95.13,1.2.82,2.09,1.89,2.46,3.34.06.23.33.47.28.66-.16.66-.41,1.29-.62,1.93-.11.35-.21.7-.33,1.09,1.87,0,3.63-.2,5.39.51-.21-.36-.38-.65-.55-.95h0c-.02-.08-.05-.16-.07-.24.06-.03.12-.06.18-.09.16.29.33.58.49.87.53.95.94,1.93,1.18,3,.22,1.01-.32,1.76-.8,2.53.02-.89.88-1.6.49-2.64-.1.25-.16.45-.25.63-.21.45-.38.94-.67,1.34-.64.88-.59,1.91.31,2.52.88.6,1.82,1.13,2.79,1.58,1.53.71,3,.28,4.39-.44.99-.51,1.72-1.3,2.33-2.26.46-.72.66-1.48.5-2.21-.2-.91-.29-1.77-.07-2.68-1.42.25-3.06-.55-3.42-1.78-.16-.56-.13-1.25.02-1.83.3-1.15,1.4-1.46,2.35-1.92-.3-.53-.65-1.01-.87-1.54-.32-.78-.31-1.59-.24-2.45.09-1.03.38-1.9.99-2.7.43-.57.94-.87,1.67-.65.96.29,1.93.58,2.89.91,1.53.53,2.64,1.58,3.36,2.99.28.55.49,1.2.5,1.81,0,.82-.17,1.65-.36,2.46-.41,1.7-.86,3.39-1.33,5.07-.64,2.29-1.28,4.57-1.99,6.84-.19.62-.34,1.33-1.08,1.68-1.06.5-2.08,1.11-3.26,1.75.62-.06,1.16,0,1.59-.18.75-.34,1.42-.84,2.14-1.27.2-.12.42-.19.63-.29.01.27.03.55.04.82,0,.05-.05.1-.06.15-.37,1.48-.76,2.96-1.12,4.44-.08.34-.11.66-.46.87-.49.28-.32.69-.05,1,.13.15.52.28.65.2.22-.14.32-.41.17-.76-.13-.3-.17-.7-.09-1.01.13-.55.41-1.06.58-1.6.35-1.07.96-2.07.89-3.27,0-.11.22-.24.38-.4.11.25.17.39.18.41.3-.07.54-.19.77-.16.24.03.46.21.68.32-.08-.19-.18-.34-.31-.45-.27-.21-.71-.34-.79-.6-.09-.28.17-.66.26-1,.21-.86.41-1.72.62-2.58.33-1.36.69-2.7.99-4.07.37-1.67.64-3.37,1.03-5.04.52-2.23.92-4.47,1.18-6.75.09-.77-.69-1.98-1.37-2.2-1.18-.37-2.36-.74-3.51-1.19-1.46-.58-2.93-1.18-4.32-1.9-1.36-.7-2.19-1.98-3.06-3.2-.96-1.33-1.68-2.84-2.94-3.95-.41-.36-.74-.81-1.12-1.2-.53-.56-1.01-1.22-1.63-1.65-.89-.62-1.88-1.12-2.87-1.59-.85-.4-1.76-.67-2.62-1.04-.76-.33-1.47-.74-1.96-1.45-.33-.49-.07-1.15.51-1.26.28-.06.57-.12.84-.1,1.88.13,3.78.08,5.64.42.92.17,1.85.36,2.78.45,1.53.14,3.07.19,4.6.3,2.27.17,4.51.06,6.68-.72.61-.22.82-.78.39-1.29-.42-.5-.89-.96-1.33-1.44-.72-.77-1.55-1.47-2.13-2.34-1.31-1.97-2.5-4.01-3.69-6.05-.17-.29-.52-.76-.12-1.13,1.17-1.09,2.55-1.68,4.16-1.78,1.1-.07,2.19-.26,3.28-.4.33-.04.67-.09,1-.14.42-.06.85-.11,1.27-.16-.08-.14-.16-.18-.24-.18-.65-.01-1.29-.02-1.94-.02-.4,0-.8.01-1.19.02-.09,0-.17,0-.26-.01-.87-.09-1.76-.35-2.61-.24-1.69.22-3.36.66-5.04.97-.94.17-1.23,1.18-1.07,1.95.36,1.79,1.41,3.27,2.18,4.87.73,1.51,1.61,2.94,2.74,4.2.24.27.31.77.59.9.49.23.31.41.13.71-.29-.09-.58-.16-.86-.26-1.25-.45-2.48-.98-3.76-1.35-1.25-.36-2.62-.4-3.82-.87-1.51-.59-3.06-.71-4.61-.74-1.65-.03-3.29.28-4.79.96-.86.39-1.84.75-2.16,1.84-.28.93-1.3.95-1.97.79-.2-.05-.32-.36-.52-.47-.8-.41-2.6-.06-3.3.57-.6.54-1.28,1-1.84,1.58-.7.71-1.33,1.49-1.96,2.26-.2.24-.3.56-.49.8-.69.9-1.39,1.78-2.14,2.72-.1-.15-.19-.26-.24-.38-.56-1.51-1.05-3.05-1.69-4.52-.48-1.11-1.13-2.16-1.75-3.21-.27-.46-.59-.47-.96-.05-.43.49-.81,1.01-1.18,1.55-.71,1.03-1.4,2.07-2.1,3.11-.2.3-.36.63-.59.9-.64.73-1.34,1.41-1.95,2.16-.68.82-1.28,1.7-1.94,2.54-.25.32-.51.8-.83.86-.73.14-1.52.14-2.26.05-1.11-.14-2.19-.43-3.29-.61-.37-.06-.58-.17-.66-.56-.03-.14-.2-.32-.34-.36-.35-.1-.76-.13-.91.29-.09.25-.14.69,0,.81.31.25.75.5.98.05.79.28,1.5.7,2.24.76,1.21.08,2.14.8,3.23,1.12.11.03.19.19.26.26-1.44,1.05-2.62,2.32-3.77,3.66-.21-.19-.39-.41-.62-.55-.17-.1-.43-.17-.59-.1-.14.06-.26.31-.27.49-.06.7.19,1.09.83,1.4.47.22.93-.04.86-.54-.07-.55.15-.88.57-1.16.18-.12.33-.26.51-.39,1.02-.75,2.03-1.51,3.06-2.25.3-.22.39-.06.39.26,0,.46.05.92.07,1.37.04,1.52.07,3.05.11,4.5-.48.11-.85.12-1.12.28-.21.13-.41.45-.42.7-.02.41.27.71.69.74.31.02.64-.05.95-.13.49-.12.53-.29.32-.73-.12-.24-.21-.53-.2-.8.08-1.46.23-2.92.29-4.38.03-.71.09-1.4.53-2.07.11.24.28.43.27.61-.07.9-.19,1.8-.27,2.71-.05.54-.06,1.08-.09,1.69.26-.17.44-.25.58-.38.47-.47,1.01-.21,1.45-.04.48.18.93.53.78,1.2-.02.08.02.19.07.26.07.09.22.22.27.2.19-.09.36-.21.51-.36.04-.04,0-.22-.05-.28-.91-.89-1.26-2.11-1.88-3.16-.43-.73-.7-1.57-1.18-2.26-.3-.43-.3-.71-.06-1.09.77-1.24,1.55-2.47,2.3-3.73.7-1.17,1.33-2.38,2.05-3.54.35-.57.81-1.08,1.26-1.58.31-.34,1.03-.22,1.16.15.33.96.65,1.92.95,2.89.09.3.09.64.18.94.21.77.44,1.53.67,2.29.26.89.5,1.79.78,2.67.24.79.63,1.56.75,2.37.15.95.6,1.74,1.03,2.55.24.45.63.48.89.06.49-.81.96-1.64,1.33-2.51.48-1.13.8-2.33,1.3-3.45.46-1.03,1.06-1.99,1.59-2.99.48-.91.9-1.85,1.43-2.73.57-.96,1.09-1.96,2.12-2.57.35-.21.63-.28,1.06-.04-.12.92-.27,1.86-.37,2.8-.16,1.56-.35,3.12-.43,4.69-.11,2.14.55,4.18,1.01,6.23.33,1.46,1.19,2.7,1.8,4.04.19.43.45,1,.31,1.36-.32.84-.82,1.62-1.34,2.36-.77,1.1-1.62,2.14-2.44,3.2-.29.38-.65.71-.93,1.09-.66.89-1.25,1.82-1.94,2.69-.49.62-.76,1.28-.64,2.04.09.53.3,1.05.45,1.57.38,1.29,1.12,2.36,2.01,3.35.79.88,1.63,1.73,2.34,2.67.94,1.26,1.86,2.52,2.98,3.64,1.35,1.34,2.63,2.75,3.93,4.13.07.07.13.21.11.3-.16.69-.31,1.4-.54,2.07-.16.47-.46.9-.7,1.34-.42.38-.93.7-1.23,1.17-.39.61-.69,1.2-1.58,1-.12-.03-.45.31-.42.38.24.65.96,1.31,1.83.96-.22-1.19.17-2.2,1.04-3.05.14-.13.23-.31.35-.47Zm3.35-15.12c.21-.09.43-.17.63-.29.68-.43.82-1.21,1.13-1.87.16-.35.31-.81.21-1.15-.26-.85-.95-1.38-1.72-1.77-.97-.49-1.97-.18-2.92.07-.79.2-1.06.72-1.04,1.55.02.72.22,1.36.57,2,.56,1.04,2.02,1.76,3.15,1.46Zm26.24-43.91l.17-.13c-.89-1.28-1.74-2.58-2.68-3.83-.58-.76-1.28-1.43-1.58-2.26.45-.36.81-.72,1.23-.98,1.18-.75,2.38-1.46,3.56-2.19.65-.4,1.3-.82,1.95-1.23-.03-.05-.06-.09-.08-.14-1.95,1.06-3.89,2.12-5.91,3.23-.17-.11-.35-.26-.2-.69.4-1.14.73-2.3,1.05-3.46.22-.8.36-1.61.54-2.42-1.66,2.27-2.14,5.04-3.43,7.28.29.3.53.52.72.77.25.34.43.74.68,1.07,1.07,1.39,2.15,2.77,3.24,4.14.23.29.5.56.75.84Zm3.04-3.57c-2.27-.78-4.44-1.53-6.74-2.32,1.37,1.85,2.65,3.58,4.01,5.42.32-1.51,1.62-2.14,2.74-3.1Zm-14.71,39.54c-.26-.5-.44-.73-.93-.89-.38-.12-.78-.22-1.17-.27-1.47-.19-2.17.43-2.06,1.88.05.71.43,1.59,1.12,1.65.59.06,1.21.15,1.77.02.42-.09.93-.43,1.1-.79.22-.46.13-1.06.18-1.6Zm15.53-41.19s.06-.07.09-.1c-1.22-1.25-1.61-2.72-1.24-4.4-1.73,1.01-3.43,2-5.26,3.07,2.2.49,4.3.96,6.41,1.43Zm-5.49-7.17c-.41,1.47-.81,2.9-1.19,4.24,1.91-1.02,3.85-2.06,5.79-3.1,0-.05-.01-.09-.02-.14-1.64.27-3.21.25-4.58-1Zm-20.11,71.94c-1.36-.96-2.17-2.46-3.8-3.1.23,1.87.46,3.69.71,5.66.42-1.68,1.57-2.3,3.1-2.56Zm18.7-66.06s-.03.1-.04.14c.06.02.11.05.17.06.66.18,1.33.31,1.97.54,1.42.51,2.82,1.07,4.24,1.6.33.12.71.3,1.01.24.58-.13.75.09.89.59.05.17.37.33.59.37.15.03.47-.15.48-.26.04-.46.09-.96-.04-1.39-.12-.41-.57-.4-.89-.09-.11.11-.33.2-.46.16-.97-.29-1.91-.67-2.89-.92-.99-.25-2.02-.36-3.02-.56-.67-.14-1.34-.33-2-.49Zm-57.43,28.8c1.6.72,2.46,1.83,2.58,3.48.35-1.86.36-3.67,0-5.6-.88.72-1.7,1.4-2.58,2.12Zm54.46,32.56c.13-1.11.59-1.98,1.68-2.53-1.17-.86-2-2.04-3.23-2.74-.05.03-.09.06-.14.09.56,1.73,1.12,3.45,1.68,5.18Zm-56.75-36.55s-.04.1-.07.15c.85,1.27.92,2.61.29,4.02.06.01.12.03.18.04.89-1,1.78-2,2.79-3.14-1.15-.39-2.17-.73-3.19-1.07Zm41.3,35.76c-1.01.35-2.01.7-3.12,1.08,1.3,1.06,2.58,2.11,3.86,3.15-1.19-1.24-1.32-2.65-.74-4.23Zm26.89-64.27c.04-.29.08-.55.11-.81.12-1.1-.55-1.94-1.65-2.04-.1,0-.29.04-.3.11-.09.32-.22.66-.19.97.07.65,1.3,1.74,2.03,1.77Zm-15.46,63.22s.07.09.11.14c.8-.44,1.44.05,2.11.39.03-.03.06-.07.1-.1-.41-1.16-.82-2.32-1.23-3.49-.35,1.01-.72,2.03-1.08,3.06Zm-.84-1.12c.32-1.11.64-2.22,1-3.47-.95.57-1.76,1.05-2.59,1.55.67.55,1.4.99,1.6,1.91Zm8.96-66.62c.22-.25.44-.37.73.02.23.31.61.23.82.02.17-.18.32-.61.22-.79-.45-.81-1.22-.99-2.11-.87-.53.07-.59.35-.25.78.2.26.38.54.59.83Zm-6.41,63.92l-.15.06c.18.6.33,1.21.53,1.81.46,1.38.94,2.77,1.43,4.14.12.33.03.53-.23.74-.11.09-.25.29-.22.4.09.3.9.46,1.15.25.48-.4.46-.55-.07-.89-.13-.08-.21-.26-.27-.41-.61-1.76-1.2-3.52-1.81-5.28-.1-.28-.25-.54-.38-.8Zm2.71.99s-.05.06-.08.09c.04.05.08.1.12.14.57.55,1.14,1.09,1.71,1.64.42.41.7,1,1.42,1,.05,0,.15.24.13.35-.04.29-.13.58-.2.85.3.18.29.15,1.17-.06.37-.09.39-.28.36-.55-.07-.57-.47-.76-1.01-.49-1.21-.99-2.42-1.97-3.63-2.96Zm-21.57,10.41c-.17-.81-.37-1.78-.59-2.82-.47.63-.93,1.24-1.31,1.73.64.37,1.32.76,1.9,1.1Zm27.43-60.39c-.15.24-.26.41-.36.58-.06.1-.16.24-.13.31.21.51.61.26.9.13.2-.08.32-.35.47-.53-.22-.18-.43-.37-.66-.52-.07-.04-.2.02-.22.02Zm-15.58,50.02c-.24-.13-.43-.27-.63-.32-.17-.04-.5-.01-.52.06-.06.21-.07.48.02.69.05.11.38.24.46.18.27-.17.48-.43.67-.61Zm-10.55-11.74c.57.47,1.17.97,1.76,1.45-.25-.98-1.04-1.62-1.76-1.45Z"/>
      <path class="cls-2" d="m71.6,76.39c.17.3.34.59.55.95-1.76-.71-3.52-.52-5.39-.51.12-.39.22-.74.33-1.09.21-.64.46-1.28.62-1.93.04-.18-.22-.42-.28-.66-.38-1.44-1.27-2.51-2.46-3.34-.24-.16-.66-.2-.95-.13-1.65.42-2.49,1.8-3.42,3.04-.59.78-1.16,1.58-1.68,2.41-.33.52-.55,1.11-.81,1.67-.1.21-.17.43-.27.64-.35.81-.09,1.54.34,2.22.57.9,1.24,1.7,2.12,2.35.53.39.91.99,1.31,1.52,1.7,2.22,3.37,4.45,5.07,6.67.78,1.02,1.61,2.01,2.41,3.01.3.37.64.09.91.02,1.16-.31,2.3-.69,3.46-1.02.25-.07.53,0,.79-.05.25-.05.48-.21.73-.25.2-.03.49-.03.61.09.19.19.27.49.41.78l-.63.18c-.29-.24-.55-.45-.8-.65-.8.65-1.68.9-2.58,1.12-.47.12-.95.25-1.41.41-.15.05-.27.19-.42.29.29.49.59.86,1.17.85.07,0,.16.08.22.14,1.08.92,2.14,1.86,3.24,2.75.19.16.57.14.86.12.52-.04.64.38.64.67,0,.25-.28.53-.49.74-.1.1-.36.11-.51.06-.2-.08-.54-.34-.52-.39.21-.45-.14-.59-.38-.81-.64-.59-1.24-1.22-1.91-1.77-.7-.57-1.46-1.08-2.22-1.57-.15-.1-.42,0-.64.01.03.15.06.3.09.46.1.61.22,1.22.31,1.84.11.83.2,1.65.28,2.48.08.76.21,1.52.19,2.27-.01.59.41.91.66,1.32.19.32.62.58.41.96-.28.52-.84.72-1.41.72-.55,0-1.09-.41-1.23-.94-.13-.51.29-.74.63-.98.18-.13.4-.22.48-.26-.41-1.71-.81-3.34-1.2-4.98-.15-.63-.26-1.27-.47-1.88-.07-.2-.4-.31-.64-.47-.31,1.17-.92,2.01-1.69,2.75,0,0,.02,0,.02,0,.24-.45.53-.87.7-1.34.23-.67.38-1.37.54-2.07.02-.09-.04-.23-.11-.3-1.3-1.38-2.58-2.79-3.93-4.13-1.12-1.12-2.04-2.38-2.98-3.64-.71-.94-1.54-1.79-2.34-2.67-.89-.98-1.64-2.05-2.01-3.35-.15-.52-.36-1.04-.45-1.57-.13-.77.14-1.42.64-2.04.69-.86,1.28-1.8,1.94-2.69.28-.38.64-.71.93-1.09.83-1.06,1.67-2.1,2.44-3.2.52-.74,1.02-1.52,1.34-2.36.14-.36-.12-.94-.31-1.36-.6-1.34-1.47-2.58-1.8-4.04-.46-2.06-1.12-4.09-1.01-6.23.08-1.57.27-3.13.43-4.69.1-.94.25-1.88.37-2.8-.43-.24-.71-.16-1.06.04-1.03.6-1.55,1.61-2.12,2.57-.52.88-.95,1.82-1.43,2.73-.53,1-1.14,1.96-1.59,2.99-.5,1.12-.81,2.32-1.3,3.45-.37.87-.85,1.7-1.33,2.51-.25.42-.65.4-.89-.06-.42-.81-.88-1.6-1.03-2.55-.13-.81-.51-1.58-.75-2.37-.27-.89-.52-1.78-.78-2.67-.22-.76-.46-1.52-.67-2.29-.08-.31-.08-.64-.18-.94-.3-.97-.63-1.93-.95-2.89-.13-.37-.84-.49-1.16-.15-.46.49-.91,1.01-1.26,1.58-.72,1.16-1.35,2.37-2.05,3.54-.75,1.25-1.53,2.49-2.3,3.73-.24.38-.24.67.06,1.09.48.69.75,1.53,1.18,2.26.62,1.06.97,2.28,1.88,3.16.06.06.09.24.05.28-.15.14-.32.27-.51.36-.05.02-.2-.11-.27-.2-.05-.06-.09-.18-.07-.26.15-.67-.31-1.01-.78-1.2-.44-.17-.98-.43-1.45.04-.13.13-.32.21-.58.38.03-.61.04-1.15.09-1.69.08-.9.2-1.8.27-2.71.01-.18-.16-.37-.27-.61-.45.68-.5,1.36-.53,2.07-.06,1.46-.21,2.92-.29,4.38-.01.26.08.55.2.8.21.44.17.61-.32.73-.31.08-.64.15-.95.13-.42-.03-.71-.33-.69-.74.01-.25.21-.57.42-.7.27-.17.64-.17,1.12-.28-.03-1.46-.07-2.98-.11-4.5-.01-.46-.06-.92-.07-1.37,0-.32-.09-.47-.39-.26-1.03.74-2.04,1.5-3.06,2.25-.17.13-.33.27-.51.39-.41.28-.64.62-.57,1.16.07.5-.39.76-.86.54-.63-.3-.89-.7-.83-1.4.02-.18.13-.44.27-.49.16-.06.43,0,.59.1.23.13.41.35.62.55,1.15-1.33,2.33-2.61,3.77-3.66-.07-.08-.15-.23-.26-.26-1.09-.33-2.02-1.04-3.23-1.12-.74-.05-1.46-.48-2.24-.76-.23.45-.68.2-.98-.05-.14-.11-.09-.56,0-.81.15-.43.56-.4.91-.29.14.04.32.22.34.36.08.39.3.5.66.56,1.1.18,2.19.47,3.29.61.74.09,1.53.09,2.26-.05.32-.06.58-.54.83-.86.65-.84,1.26-1.72,1.94-2.54.62-.75,1.32-1.43,1.95-2.16.23-.27.39-.6.59-.9.7-1.04,1.39-2.08,2.1-3.11.37-.53.75-1.06,1.18-1.55.36-.42.68-.41.96.05.62,1.05,1.27,2.09,1.75,3.21.64,1.47,1.13,3.01,1.69,4.52.04.12.14.22.24.38.75-.95,1.45-1.83,2.14-2.72.19-.25.29-.56.49-.8.64-.77,1.26-1.55,1.96-2.26.56-.57,1.24-1.04,1.84-1.58.7-.63,2.51-.98,3.3-.57.2.1.32.42.52.47.68.16,1.7.14,1.97-.79.32-1.08,1.3-1.45,2.16-1.84,1.51-.68,3.14-1,4.79-.96,1.56.03,3.1.14,4.61.74,1.2.47,2.57.51,3.82.87,1.28.37,2.5.9,3.76,1.35.28.1.57.17.86.26.19-.3.36-.48-.13-.71-.27-.13-.35-.63-.59-.9-1.14-1.26-2.01-2.69-2.74-4.2-.77-1.6-1.82-3.07-2.18-4.87-.16-.77.13-1.78,1.07-1.95,1.68-.31,3.35-.75,5.04-.97.84-.11,1.74.15,2.61.24.09,0,.17.01.26.01.4,0,.8-.02,1.19-.02.65,0,1.29,0,1.94.02.08,0,.16.04.24.18-.42.05-.85.1-1.27.16-.33.04-.67.1-1,.14-1.09.14-2.18.33-3.28.4-1.61.1-2.99.68-4.16,1.78-.4.38-.06.84.12,1.13,1.19,2.04,2.38,4.08,3.69,6.05.58.87,1.41,1.57,2.13,2.34.45.48.91.94,1.33,1.44.42.5.22,1.07-.39,1.29-2.17.79-4.41.89-6.68.72-1.53-.11-3.07-.16-4.6-.3-.93-.09-1.86-.28-2.78-.45-1.87-.34-3.76-.3-5.64-.42-.28-.02-.57.05-.84.1-.58.12-.84.78-.51,1.26.49.71,1.2,1.12,1.96,1.45.86.37,1.78.64,2.62,1.04.99.47,1.97.97,2.87,1.59.62.43,1.1,1.09,1.63,1.65.38.4.71.84,1.12,1.2,1.26,1.11,1.98,2.62,2.94,3.95.87,1.21,1.7,2.5,3.06,3.2,1.4.72,2.86,1.32,4.32,1.9,1.15.46,2.33.82,3.51,1.19.69.22,1.46,1.42,1.37,2.2-.26,2.27-.65,4.52-1.18,6.75-.39,1.67-.67,3.36-1.03,5.04-.3,1.36-.66,2.71-.99,4.07-.21.86-.4,1.72-.62,2.58-.08.34-.34.72-.26,1,.08.26.52.39.79.6.14.11.24.26.31.45-.23-.11-.44-.29-.68-.32-.23-.03-.48.09-.77.16,0-.02-.07-.16-.18-.41-.16.16-.38.29-.38.4.07,1.19-.54,2.19-.89,3.27-.17.54-.45,1.05-.58,1.6-.08.32-.04.71.09,1.01.15.35.04.62-.17.76-.13.08-.51-.04-.65-.2-.27-.31-.44-.72.05-1,.36-.21.38-.53.46-.87.36-1.48.74-2.96,1.12-4.44.01-.05.06-.1.06-.15,0-.27-.03-.55-.04-.82-.21.1-.43.17-.63.29-.71.42-1.39.93-2.14,1.27-.42.19-.97.12-1.59.18,1.18-.64,2.19-1.25,3.26-1.75.75-.35.89-1.06,1.08-1.68.71-2.27,1.35-4.55,1.99-6.84.47-1.68.92-3.37,1.33-5.07.19-.8.36-1.64.36-2.46,0-.61-.22-1.26-.5-1.81-.72-1.42-1.83-2.47-3.36-2.99-.95-.33-1.92-.61-2.89-.91-.72-.22-1.23.08-1.67.65-.61.8-.91,1.68-.99,2.7-.07.86-.08,1.67.24,2.45.22.53.57,1.01.87,1.54-.94.45-2.05.76-2.35,1.92-.15.58-.19,1.26-.02,1.83.36,1.23,2,2.04,3.42,1.78-.22.91-.13,1.78.07,2.68.16.73-.04,1.49-.5,2.21-.61.96-1.35,1.75-2.33,2.26-1.39.72-2.87,1.15-4.39.44-.97-.45-1.91-.98-2.79-1.58-.9-.61-.95-1.64-.31-2.52.29-.4.46-.89.67-1.34.09-.19.16-.39.25-.63.39,1.04-.47,1.75-.49,2.64.48-.78,1.02-1.52.8-2.53-.23-1.07-.64-2.05-1.18-3-.16-.29-.33-.58-.49-.87-.06.03-.12.06-.18.09.02.08.05.17.07.25-.49-.29-.97-.58-1.46-.88.24.34.52.62.84.82.16.1.41.04.62.06Zm5.22-2.25c-1.08.59-.99,3.41-.13,4.59.47.64,1.06,1.27,1.73,1.69.6.38,1.39.47,2.1.69.03-.08.05-.17.08-.25-.62-.18-1.34-.21-1.84-.56-.74-.51-1.52-1.14-1.93-1.91-.69-1.31-.89-2.76,0-4.24Zm-4.05.58c.65.61,1.35,1.1,1.83,1.75.49.67.76,1.5,1.12,2.25.42-.64-1.51-3.74-2.95-4Z"/>
      <path class="cls-2" d="m69.42,83.12c-1.13.3-2.59-.42-3.15-1.46-.35-.64-.55-1.28-.57-2-.02-.82.25-1.34,1.04-1.55.96-.25,1.95-.56,2.92-.07.77.39,1.47.92,1.72,1.77.1.34-.05.8-.21,1.15-.31.66-.45,1.44-1.13,1.87-.19.12-.42.19-.63.29Zm.23-2.76c-.14-.53-.8-1.08-1.28-.99-.39.07-.68.84-.42,1.42.11.26.58.55.85.51.77-.1.99-.44.85-.94Z"/>
      <path class="cls-2" d="m95.66,39.21c-.25-.28-.52-.55-.75-.84-1.09-1.37-2.17-2.75-3.24-4.14-.26-.33-.43-.73-.68-1.07-.19-.26-.43-.47-.72-.77,1.29-2.24,1.77-5.01,3.43-7.28-.18.81-.32,1.62-.54,2.42-.32,1.16-.65,2.32-1.05,3.46-.15.43.03.58.2.69,2.02-1.1,3.96-2.16,5.91-3.23.03.05.06.09.08.14-.65.41-1.3.82-1.95,1.23-1.19.73-2.39,1.44-3.56,2.19-.42.27-.78.62-1.23.98.3.83,1,1.5,1.58,2.26.94,1.24,1.79,2.55,2.68,3.83l-.17.13Z"/>
      <path class="cls-2" d="m98.7,35.64c-1.11.96-2.42,1.59-2.74,3.1-1.36-1.84-2.64-3.58-4.01-5.42,2.31.8,4.48,1.54,6.74,2.32Z"/>
      <path class="cls-2" d="m83.99,75.19c-.04.54.04,1.14-.18,1.6-.17.37-.69.7-1.1.79-.56.12-1.18.04-1.77-.02-.69-.07-1.07-.94-1.12-1.65-.11-1.45.6-2.07,2.06-1.88.4.05.79.15,1.17.27.49.16.67.38.93.89Zm-1.85,1.11c.13-.32.31-.58.25-.65-.15-.2-.41-.31-.63-.46-.1.23-.27.47-.26.7,0,.12.32.22.63.41Z"/>
      <path class="cls-2" d="m99.52,34c-2.1-.47-4.21-.94-6.41-1.43,1.83-1.07,3.53-2.06,5.26-3.07-.37,1.68.02,3.15,1.24,4.4-.03.03-.06.07-.09.1Z"/>
      <path class="cls-2" d="m94.03,26.83c1.36,1.24,2.94,1.27,4.58,1,0,.05.01.09.02.14-1.94,1.04-3.88,2.08-5.79,3.1.38-1.34.77-2.77,1.19-4.24Z"/>
      <path class="cls-2" d="m73.92,98.77c-1.53.26-2.68.88-3.1,2.56-.25-1.97-.47-3.79-.71-5.66,1.64.63,2.44,2.14,3.8,3.1Z"/>
      <path class="cls-2" d="m92.62,32.71c.67.17,1.33.36,2,.49,1,.2,2.03.31,3.02.56.98.25,1.92.63,2.89.92.13.04.35-.06.46-.16.32-.3.77-.32.89.09.13.43.08.93.04,1.39,0,.11-.33.28-.48.26-.22-.04-.54-.2-.59-.37-.14-.5-.31-.72-.89-.59-.3.07-.68-.11-1.01-.24-1.41-.53-2.82-1.09-4.24-1.6-.64-.23-1.31-.36-1.97-.54-.06-.02-.11-.04-.17-.06.01-.05.03-.1.04-.14Z"/>
      <path class="cls-2" d="m35.19,61.51c.88-.72,1.7-1.4,2.58-2.12.36,1.93.35,3.74,0,5.6-.12-1.66-.98-2.76-2.58-3.48Z"/>
      <path class="cls-2" d="m89.65,94.08c-.56-1.73-1.12-3.45-1.68-5.18.05-.03.09-.06.14-.09,1.23.7,2.06,1.88,3.23,2.74-1.09.55-1.55,1.42-1.68,2.53Z"/>
      <path class="cls-2" d="m32.9,57.53c1.02.34,2.04.68,3.19,1.07-1.01,1.14-1.9,2.14-2.79,3.14-.06-.01-.12-.03-.18-.04.63-1.41.56-2.75-.29-4.02.02-.05.04-.1.07-.15Z"/>
      <path class="cls-2" d="m74.2,93.3c-.58,1.59-.46,2.99.74,4.23-1.28-1.04-2.55-2.09-3.86-3.15,1.11-.39,2.11-.73,3.12-1.08Z"/>
      <path class="cls-2" d="m101.09,29.02c-.73-.03-1.96-1.12-2.03-1.77-.04-.31.1-.65.19-.97.02-.06.2-.11.3-.11,1.09.1,1.77.94,1.65,2.04-.03.26-.07.52-.11.81Z"/>
      <path class="cls-2" d="m85.63,92.24c.36-1.03.72-2.05,1.08-3.06.41,1.17.82,2.33,1.23,3.49-.03.03-.06.07-.1.1-.67-.34-1.3-.83-2.11-.39-.04-.05-.07-.09-.11-.14Z"/>
      <path class="cls-2" d="m84.79,91.12c-.2-.92-.93-1.36-1.6-1.91.84-.5,1.64-.98,2.59-1.55-.36,1.25-.68,2.36-1,3.47Z"/>
      <path class="cls-2" d="m93.75,24.5c-.2-.29-.38-.57-.59-.83-.34-.44-.28-.72.25-.78.89-.12,1.66.06,2.11.87.1.18-.05.6-.22.79-.2.22-.59.29-.82-.02-.29-.39-.51-.27-.73-.02Z"/>
      <path class="cls-2" d="m87.34,88.42c.13.27.28.53.38.8.61,1.76,1.2,3.52,1.81,5.28.05.15.14.33.27.41.53.34.56.49.07.89-.25.21-1.06.06-1.15-.25-.03-.11.1-.31.22-.4.26-.2.35-.4.23-.74-.49-1.38-.97-2.76-1.43-4.14-.2-.6-.36-1.21-.53-1.81l.15-.06Z"/>
      <path class="cls-2" d="m90.06,89.41c1.21.99,2.42,1.97,3.63,2.96.54-.27.94-.08,1.01.49.03.26,0,.46-.36.55-.88.21-.87.25-1.17.06.07-.27.16-.56.2-.85.02-.11-.08-.35-.13-.35-.72,0-1-.59-1.42-1-.57-.55-1.14-1.09-1.71-1.64-.04-.04-.08-.09-.12-.14.03-.03.05-.06.08-.09Z"/>
      <path class="cls-2" d="m66.07,98.24c-.11.16-.21.34-.35.47-.88.84-1.26,1.85-1.04,3.05-.87.34-1.59-.31-1.83-.96-.03-.07.31-.4.42-.38.89.2,1.18-.39,1.58-1,.3-.46.81-.78,1.23-1.16,0,0-.02,0-.02,0Z"/>
      <path class="cls-2" d="m68.49,99.82c-.58-.33-1.25-.72-1.9-1.1.37-.49.83-1.1,1.31-1.73.22,1.04.42,2.01.59,2.82Z"/>
      <path class="cls-2" d="m95.92,39.42s.15-.07.22-.02c.23.15.44.34.66.52-.15.18-.27.45-.47.53-.29.12-.69.38-.9-.13-.03-.07.07-.21.13-.31.1-.17.21-.34.36-.58Z"/>
      <path class="cls-2" d="m80.34,89.44c-.19.18-.4.44-.67.61-.09.06-.42-.07-.46-.18-.08-.2-.08-.47-.02-.69.02-.07.35-.1.52-.06.21.05.39.19.63.32Z"/>
      <path class="cls-2" d="m69.79,77.7c.72-.16,1.51.47,1.76,1.45-.59-.48-1.19-.98-1.76-1.45Z"/>
      <path class="cls-1" d="m76.82,74.14c-.88,1.48-.68,2.93,0,4.24.4.77,1.19,1.4,1.93,1.91.5.35,1.22.38,1.84.56-.03.08-.05.17-.08.25-.71-.22-1.49-.31-2.1-.69-.67-.42-1.25-1.05-1.73-1.69-.86-1.17-.96-4,.13-4.59Z"/>
      <path class="cls-1" d="m72.77,74.72c1.44.27,3.37,3.37,2.95,4-.36-.76-.63-1.59-1.12-2.25-.47-.65-1.17-1.14-1.83-1.75Z"/>
      <path class="cls-1" d="m71.6,76.39c-.21-.01-.46.04-.62-.06-.32-.2-.6-.47-.84-.82.49.29.97.58,1.46.88,0,0,0,0,0,0Z"/>
      <path class="cls-1" d="m69.65,80.36c.15.51-.08.84-.85.94-.27.04-.73-.26-.85-.51-.26-.58.03-1.35.42-1.42.48-.09,1.14.46,1.28.99Zm.01.02c-.48-.28-.78-.53-1.13-.64-.22-.07-.46.58-.35.91.15.42.54.29.81.26.18-.02.34-.26.66-.53Z"/>
      <path class="cls-1" d="m82.15,76.29c-.31-.19-.63-.3-.63-.41,0-.23.16-.46.26-.7.22.15.47.26.63.46.06.07-.12.33-.25.65Z"/>
      <path class="cls-2" d="m69.66,80.38c-.32.27-.48.51-.66.53-.27.03-.66.16-.81-.26-.12-.33.13-.98.35-.91.35.11.65.36,1.13.64Z"/>
    </g>
  </g>
</svg>