<?xml version="1.0" encoding="UTF-8"?>
<svg xmlns="http://www.w3.org/2000/svg" viewBox="0 0 136.06 136.06">
  <defs>
    <style>
      .cls-1 {
        fill: #fff;
      }

      .cls-2 {
        fill: #0c3454;
      }

      .cls-3 {
        fill: #e0e1e3;
      }
    </style>
  </defs>
  <g id="Layer_3" data-name="Layer 3">
    <rect class="cls-3" width="136.06" height="136.06"/>
  </g>
  <g id="B_W" data-name="B&amp;amp;W">
    <g>
      <path class="cls-1" d="m95.51,23.75c.1.17-.05.6-.22.79-.2.21-.59.29-.82-.02-.28-.4-.5-.27-.73-.02-.2-.29-.38-.57-.58-.84-.34-.44-.29-.71.24-.78.89-.12,1.66.06,2.11.87Z"/>
      <path class="cls-1" d="m99.55,26.17c1.09.1,1.77.94,1.64,2.04-.03.26-.06.52-.1.81-.73-.03-1.96-1.12-2.03-1.78-.04-.31.09-.65.18-.97.02-.06.21-.11.31-.1Z"/>
      <path class="cls-1" d="m101.88,34.61c.13.43.08.93.04,1.39-.01.1-.34.28-.48.25-.22-.04-.54-.19-.59-.37-.14-.5-.31-.72-.89-.58-.31.06-.69-.12-1.01-.24-1.42-.53-2.82-1.09-4.24-1.6-.64-.23-1.31-.36-1.96-.54-.06-.02-.12-.04-.17-.06l.03-.15c.67.17,1.33.36,2.01.5,1,.2,2.02.31,3.02.56.97.24,1.92.62,2.88.91.13.04.35-.06.46-.16.33-.3.77-.32.9.09Z"/>
      <path class="cls-1" d="m98.23,28.45c.03.05.05.09.08.14l-1.95,1.23c-1.19.73-2.39,1.44-3.56,2.19-.42.26-.79.62-1.23.98.3.83,1,1.5,1.58,2.26.94,1.24,1.79,2.55,2.68,3.83-.06.04-.11.09-.17.13-.25-.28-.52-.55-.75-.84-1.08-1.38-2.17-2.76-3.24-4.14-.25-.34-.43-.73-.68-1.08-.18-.25-.43-.47-.72-.77,1.29-2.23,1.77-5,3.43-7.27-.17.81-.32,1.62-.53,2.41-.32,1.17-.65,2.33-1.05,3.46-.15.44.03.59.2.7,2.02-1.1,3.96-2.17,5.91-3.23Z"/>
      <path class="cls-1" d="m98.6,27.82c.01.05.02.1.02.14-1.93,1.04-3.87,2.08-5.78,3.11.37-1.35.77-2.77,1.18-4.24,1.37,1.24,2.94,1.26,4.58.99Z"/>
      <path class="cls-1" d="m99.61,33.89s-.06.07-.09.11c-2.1-.47-4.21-.94-6.41-1.43,1.83-1.07,3.53-2.06,5.26-3.07-.37,1.67.02,3.15,1.24,4.39Z"/>
      <path class="cls-1" d="m98.7,35.64c-1.12.96-2.42,1.6-2.74,3.1-1.36-1.84-2.64-3.57-4.01-5.42,2.31.79,4.48,1.54,6.75,2.32Z"/>
      <path class="cls-1" d="m36.09,58.6c-1.02,1.13-1.91,2.14-2.8,3.14-.06-.01-.12-.03-.18-.04.63-1.41.56-2.75-.28-4.02l.06-.15c1.02.34,2.04.68,3.2,1.07Z"/>
      <path class="cls-1" d="m37.77,59.39c.36,1.93.34,3.75,0,5.61-.12-1.66-.98-2.76-2.58-3.49.87-.72,1.7-1.39,2.58-2.12Z"/>
      <path class="cls-1" d="m66.02,98.3c-.09.14-.19.3-.3.41-.88.84-1.27,1.85-1.05,3.04-.87.35-1.58-.31-1.83-.96-.02-.07.31-.4.43-.38.89.2,1.18-.39,1.58-1,.29-.44.76-.75,1.17-1.11Z"/>
      <path class="cls-1" d="m67.89,96.99c.22,1.04.42,2.02.59,2.83-.58-.34-1.25-.73-1.89-1.1.37-.49.83-1.1,1.3-1.73Z"/>
      <path class="cls-1" d="m70.11,95.67c1.63.63,2.44,2.14,3.8,3.1-1.53.26-2.68.88-3.1,2.56-.24-1.97-.47-3.79-.7-5.66Z"/>
      <path class="cls-1" d="m74.19,93.29c-.58,1.59-.45,3,.74,4.24-1.28-1.05-2.56-2.09-3.86-3.15,1.12-.39,2.12-.74,3.12-1.09Z"/>
      <path class="cls-1" d="m94.69,92.86c.03.26.01.46-.36.55-.88.21-.87.25-1.17.06.07-.27.16-.56.2-.85.02-.11-.08-.35-.13-.35-.72.01-1-.59-1.42-.99-.57-.55-1.14-1.1-1.71-1.64-.05-.05-.08-.1-.12-.14.02-.03.05-.06.07-.09,1.21.99,2.42,1.97,3.63,2.96.54-.27.94-.08,1.01.49Z"/>
      <path class="cls-1" d="m91.33,91.55c-1.09.55-1.55,1.42-1.68,2.53-.56-1.73-1.13-3.45-1.69-5.18.05-.03.1-.06.14-.09,1.23.7,2.06,1.88,3.23,2.74Z"/>
      <path class="cls-1" d="m89.79,94.92c.53.34.55.48.07.89-.25.21-1.06.05-1.15-.25-.03-.1.11-.31.22-.4.25-.2.34-.4.23-.73-.49-1.38-.97-2.76-1.44-4.14-.19-.6-.35-1.21-.53-1.81l.15-.06c.12.27.28.53.37.81.61,1.76,1.21,3.52,1.81,5.28.05.15.14.33.27.41Z"/>
      <path class="cls-1" d="m86.7,89.18c.42,1.17.83,2.33,1.23,3.49-.03.03-.06.07-.09.1-.67-.34-1.31-.83-2.11-.39-.04-.05-.07-.09-.11-.14.36-1.02.73-2.05,1.08-3.06Z"/>
      <path class="cls-1" d="m85.78,87.65c-.36,1.25-.68,2.36-1,3.47-.2-.92-.93-1.36-1.6-1.91.84-.5,1.65-.99,2.6-1.56Z"/>
      <path class="cls-1" d="m83.99,75.19c-.05.54.04,1.14-.18,1.6-.17.36-.68.7-1.1.79-.56.13-1.18.04-1.77-.02-.68-.07-1.06-.94-1.12-1.65-.1-1.45.6-2.07,2.07-1.88.39.05.79.15,1.17.27.49.16.67.38.93.89Zm-1.85,1.1c.13-.31.31-.57.26-.65-.16-.19-.41-.31-.63-.46-.1.23-.27.47-.26.7,0,.11.32.22.63.41Z"/>
      <path class="cls-1" d="m71.54,79.15c-.58-.48-1.18-.98-1.76-1.45.72-.16,1.52.47,1.76,1.45Z"/>
      <path class="cls-2" d="m93.7,25.11c-1.66,2.27-2.14,5.04-3.43,7.27.29.3.54.52.72.77.25.35.43.74.68,1.08,1.07,1.38,2.16,2.76,3.24,4.14.23.29.5.56.75.84.06-.04.11-.09.17-.13-.89-1.28-1.74-2.59-2.68-3.83-.58-.76-1.28-1.43-1.58-2.26.44-.36.81-.72,1.23-.98,1.17-.75,2.37-1.46,3.56-2.19l1.95-1.23s-.05-.09-.08-.14c-1.95,1.06-3.89,2.13-5.91,3.23-.17-.11-.35-.26-.2-.7.4-1.13.73-2.29,1.05-3.46.21-.79.36-1.6.53-2.41Zm8.7,8.81c.54.57.82,1.33.61,2.14-.15.54-1.15,1.41-1.9,1.39-.38,0-.67-.2-.79-.6-.08-.26-.15-.52-.23-.77-1.2-.17-2.8,1.1-3.56,2.81.57.27.9.78.79,1.23-.11.47-.67.97-1.32.92-1.06-.09-1.18-.2-1.03-1.3.02-.12-.06-.27-.14-.37-.8-1-1.63-1.99-2.43-3-.66-.85-1.29-1.72-1.93-2.58-.28-.38-.59-.49-1.09-.37-1.53.37-3.08.63-4.61.97-.81.18-1.6.44-2.4.69-.36.12-.7.35-1.08.43-.44.09-.29.3-.15.5.49.69,1,1.37,1.5,2.05.83,1.13,1.65,2.27,2.5,3.39.18.26.44.46.63.71.77.98,1.55,1.97,2.28,2.98.28.38.47.83.66,1.27.15.32.13.62-.16.92-.83.84-1.85,1.25-2.99,1.43-.87.14-1.76.3-2.64.36-.84.05-1.7-.02-2.54-.02-.35,0-.71.1-1.05.05-2.73-.38-5.44-.82-8.17-1.16-1.33-.17-2.69-.18-4.04-.26-.16-.01-.31-.05-.57.03.15.16.27.36.45.46,1.28.69,2.58,1.34,3.97,1.83,1.04.37,1.98,1,2.96,1.55,1.11.62,2.12,1.38,2.94,2.38,1.23,1.49,2.35,3.04,3.14,4.82.14.31.37.59.58.88.58.78,1.17,1.54,2,2.08.26.16.55.25.84.36,1.72.66,3.45,1.32,5.17,1.99.75.28,1.53.52,2.23.89.66.36,1.27.84,1.86,1.32.15.12.2.43.2.66-.01.72.02,1.45-.11,2.15-.29,1.6-.65,3.2-1.03,4.78-.29,1.24-.66,2.47-.97,3.7-.2.78-.33,1.56-.54,2.33-.26.89-.61,1.76-.86,2.65-.26.92-.44,1.85-.66,2.78-.01.03-.01.07-.03.1-.54,1.17.04,1.96.9,2.65,1.28,1.02,2.54,2.05,3.84,3.05.23.17.58.27.87.27.83.01,1.34,1.37.93,2.05-.34.55-1.42.99-1.97.78-.44-.17-.91-.81-.84-1.23.09-.51-.37-.62-.62-.76-.21-.11-.79.01-.86.18-.28.63-.43,1.32-.6,1.99,0,.06.14.24.23.25.7.12.48.58.31.93-.46.92-1.47,1.24-2.43.81-.5-.22-.66-1.01-.23-1.46.25-.27.26-.5.18-.79-.37-1.27-1.43-2-2.63-1.5-.41.17-.45.57-.24.96.19.33.35.82.24,1.14-.17.5-.89.64-1.39.49-.41-.13-.73-.32-.94-.71-.27-.52-.22-.95.22-1.35.07-.07.23-.12.24-.19.03-.68.2-1.41.01-2.03-.15-.51-.67-.97-1.13-1.32-.51-.37-1.82-.03-2.26.46-.3.34-.53.83-1.11.67-.14-.04-.26-.1-.36-.17-.31-.21-.47-.56-.57-.96-.19-.72.54-1.58,1.25-1.33.73.26,1.33.03,1.92-.25.91-.42,1.78-.93,2.68-1.4.65-.35.99-.98,1.16-1.61.53-1.91.95-3.85,1.41-5.79.49-2.12.99-4.23,1.44-6.36.14-.67.18-1.37.16-2.06-.04-1.26-.69-2.18-1.82-2.75-1.2-.6-2.4-1.22-3.62-1.8-.63-.3-.99-.14-1.34.47-.61,1.07-.51,2.18-.39,3.37.11,1.06.88,1.72,1.17,2.63.05.16.08.33.12.52,1.15.24,2.06.95,2.1,1.69.08,1.9-.18,2.59-1.48,3.05-.33.87-.12,1.69.02,2.56.15.92-.1,1.86-.59,2.74-.46.84-1.1,1.46-1.79,2.06-1.07.93-2.31,1.47-3.75,1.59-1.05.09-1.96-.23-2.84-.7-.82-.44-1.65-.9-2.42-1.43-.53-.36-.96-.87-1.46-1.34-.74.66-1.72.52-2.65.34-1.92-.35-3.21-2.35-2.89-4.27.11-.67.22-1.31.8-1.75.07-.05.13-.19.11-.26-.27-.82.12-1.51.46-2.19.41-.82.48-1.66.31-2.53-.06-.29-.2-.59-.38-.81-.42-.51-.86-.99-1.33-1.43-.46-.44-1.19-.36-1.62.21-.71.93-1.35,1.92-2.04,2.87-.55.78-1.2,1.51-1.67,2.34-.52.9-1.12,1.86-.65,2.99.45,1.07,1.02,2.05,1.81,2.96,1.22,1.41,2.46,2.82,3.47,4.41.81,1.28,1.84,2.42,2.78,3.62.77.97,1.56,1.92,2.37,2.92.57-.29,1.07-.58,1.6-.81.46-.2.95-.36,1.44-.48.85-.22,1.72-.39,2.58-.56.38-.08.81-.29,1.13.12.04.05.08.09.12.14.36.43.76.86.47,1.54-.2.45-1.02.88-1.56.74-.29-.07-.38,0-.46.27-.28,1.05-.08,2,.56,2.86.23.31.49.54.95.68,1.06.33,1.22.74.68,1.71-.38.68-.9,1.07-1.71,1.06-.38-.01-.64-.1-.81-.47-.05-.12-.19-.26-.31-.28-.99-.16-2.02.39-2.37,1.34-.17.44-.2.97-.18,1.45.02.24.24.52.45.68.75.57.82,1.39.13,2-.65.57-1.42.9-2.29.9-.7,0-1.12-.52-1.44-1.03-.26-.42-.07-.88.2-1.31.62-.97.64-1.53-.29-2.66-.36-.44-.82-.81-1.24-1.2-.09-.08-.23-.13-.35-.12-.28.02-.69,0-.8.16-.13.2-.08.6.02.86.54,1.33-.52,2.47-1.76,2.49-.73,0-1.41-.2-1.8-.99-.44-.92-.12-2.03.82-2.39.35-.13.71-.21,1.03-.31.53-.78,1-1.65,1.63-2.37.96-1.1.57-1.8-.13-2.68-.83-1.05-1.91-1.89-2.81-2.89-1.03-1.16-1.97-2.39-2.96-3.59-1-1.21-2.01-2.41-3-3.63-.74-.91-1.32-1.9-1.67-3.02-.15-.47-.42-.9-.54-1.37-.29-1.11.04-2.08.74-2.97.74-.96,1.4-1.99,2.15-2.94,1.19-1.51,2.42-2.97,3.62-4.47.79-.98.74-2.13.11-3.42-.61-1.25-1.19-2.55-1.52-3.89-.49-1.98-.64-4.02-.79-6.06-.11-1.49.13-2.96-.02-4.43-.04-.36.13-.75.2-1.12-.05-.02-.1-.05-.14-.07-.14.24-.28.48-.42.71-.57.95-1.2,1.88-1.71,2.86-.67,1.31-1.31,2.65-1.86,4.02-.74,1.79-1.27,3.67-2.44,5.26-.69.95-2.04,1.24-2.71.49-.37-.42-.65-.95-.83-1.47-.35-.98-.62-1.98-.88-2.98-.32-1.24-.58-2.49-.88-3.73-.25-1.04-.52-2.08-.79-3.12-.23-.91-.46-1.83-.72-2.73-.02-.06-.32-.11-.35-.06-.35.47-.7.95-.99,1.46-.57.99-1.1,2-1.65,3-.55.99-1.09,1.99-1.65,2.99-.07.13-.2.24-.29.38-.63,1-.53,1.52.26,2.65.52.75.9,1.59,1.31,2.42.16.34.28.64.7.78.56.18.98,1.31.73,1.78-.35.63-1.41,1.02-1.96.65-.21-.15-.36-.47-.42-.74-.23-.91-.23-.94-1.02-1.08-.81-.14-1.4.39-1.37,1.23,0,.08.01.17.05.24.46.76.42,1.28-.2,1.87-.53.5-1.43.79-2,.34-.9-.71-1.09-1.41-.53-2.3.14-.23.45-.36.73-.57-.01-1.5-1.1-2.52-2.27-2.65-.54-.06-.81.36-.83.88-.01.28-.26.66-.52.8-.72.41-1.63.05-1.9-.74-.15-.41-.24-.87-.23-1.31,0-.22.25-.49.46-.62.23-.14.55-.13.87-.2.13-1.02-.12-1.97-.76-2.84-.37-.5-.82-.76-1.46-.81-.34-.03-.71-.3-.98-.55-.38-.37-.34-.83.06-1.17.4-.33.8-.67,1.24-.94.52-.31,1.25-.11,1.67.32.22.23.52.46.82.5.95.16,1.93.22,2.89.32.25.03.49.09.73.15.89.2.96.05,1.42-.56,1.07-1.43,2.13-2.89,3.17-4.35.87-1.22,1.66-2.5,2.58-3.68.77-.98,1.69-1.84,2.55-2.76.22-.24.42-.19.7-.04.97.52,1.47,1.41,1.92,2.32.57,1.13,1.06,2.29,1.58,3.44.23.51.44,1.02.71,1.66.49-.67.93-1.21,1.3-1.79.66-1.04,1.46-1.96,2.4-2.75.77-.64,1.49-1.36,2.35-1.85.73-.42,1.62-.62,2.46-.79.33-.07.73.2,1.1.33.09.03.18.14.26.13.48-.05.55.18.32.63.07.02.14.03.2.04.15-.17.34-.32.45-.52.26-.48.41-1.04.75-1.45.5-.59,1.11-1.1,1.89-1.33,1.44-.43,2.9-.66,4.42-.65,1.09,0,2.19-.26,3.28-.2,1.08.06,2.18.28,3.21.6,1.48.47,2.91,1.08,4.36,1.66.52.2,1.03.47,1.61.64-.35-.43-.71-.84-1.04-1.27-.22-.28-.43-.56-.6-.86-.78-1.38-1.63-2.74-2.3-4.18-.49-1.03-.84-2.16-1.08-3.28-.18-.84.35-1.91,1.5-2.37.74-.29,1.49-.48,2.25-.69,1.47-.43,2.95-.46,4.45-.45,1.23.01,2.47.1,3.7.15.07,0,.15-.02.21,0,.7.23.78.19,1.05-.47.79-1.87,1.59-3.74,2.38-5.61.14-.33.31-.63.42-.96.04-.13-.02-.3-.06-.44-.11-.33-.27-.64-.34-.96-.11-.46.39-1.01.92-1.03.96-.04,1.89,0,2.63.75.32.33.4.9.21,1.51-.17.57-1.11.85-1.77.71-.01.02-.03.03-.03.05-.64,1.69.5,2.11,1.82,2.33.72.13,1.49,0,2.26,0,0-.27.03-.45.01-.62-.1-.91.23-1.34,1.3-1.69.51-.17,1.29.19,1.6.78.53,1.02.82,2.05.25,3.18-.28.56-1.02.87-1.56.54-.3-.18-.56-.42-.84-.63-.82,1.09-.49,3.17,1.24,4.62.68-.38,1.41-.42,1.96.15Zm-.48,2.08c.04-.46.09-.96-.04-1.39-.13-.41-.57-.39-.9-.09-.11.1-.33.2-.46.16-.96-.29-1.91-.67-2.88-.91-1-.25-2.02-.36-3.02-.56-.68-.14-1.34-.33-2.01-.5l-.03.15s.11.04.17.06c.65.18,1.32.31,1.96.54,1.42.51,2.82,1.07,4.24,1.6.32.12.7.3,1.01.24.58-.14.75.08.89.58.05.18.37.33.59.37.14.03.47-.15.48-.25Zm-.73-7.79c.13-1.1-.55-1.94-1.64-2.04-.1,0-.29.04-.31.1-.09.32-.22.66-.18.97.07.66,1.3,1.75,2.03,1.78.04-.29.07-.55.1-.81Zm-1.67,5.79s.06-.07.09-.11c-1.22-1.24-1.61-2.72-1.24-4.39-1.73,1.01-3.43,2-5.26,3.07,2.2.49,4.31.96,6.41,1.43Zm-.9-6.04s-.01-.09-.02-.14c-1.64.27-3.21.25-4.58-.99-.41,1.47-.81,2.89-1.18,4.24,1.91-1.03,3.85-2.07,5.78-3.11Zm-2.66,10.78c.32-1.5,1.62-2.14,2.74-3.1-2.27-.78-4.44-1.53-6.75-2.32,1.37,1.85,2.65,3.58,4.01,5.42Zm.84,1.18c-.22-.17-.43-.36-.67-.52-.06-.04-.2.02-.22.02-.15.24-.26.41-.35.58-.06.1-.16.24-.13.32.21.51.61.25.9.13.19-.08.31-.35.47-.53Zm-1.51-15.38c.17-.19.32-.62.22-.79-.45-.81-1.22-.99-2.11-.87-.53.07-.58.34-.24.78.2.27.38.55.58.84.23-.25.45-.38.73.02.23.31.62.23.82.02Zm-.96,68.87c.37-.09.39-.29.36-.55-.07-.57-.47-.76-1.01-.49-1.21-.99-2.42-1.97-3.63-2.96-.02.03-.05.06-.07.09.04.04.07.09.12.14.57.54,1.14,1.09,1.71,1.64.42.4.7,1,1.42.99.05,0,.15.24.13.35-.04.29-.13.58-.2.85.3.19.29.15,1.17-.06Zm-2.83-25.67c.08-.77-.69-1.98-1.38-2.2-1.18-.37-2.36-.74-3.51-1.19-1.46-.58-2.93-1.18-4.32-1.9-1.37-.7-2.19-1.98-3.07-3.2-.95-1.33-1.68-2.83-2.93-3.94-.41-.36-.75-.81-1.12-1.21-.54-.56-1.01-1.21-1.63-1.65-.9-.62-1.89-1.11-2.87-1.58-.85-.41-1.77-.67-2.63-1.05-.76-.32-1.47-.74-1.96-1.44-.33-.49-.07-1.15.51-1.26.28-.06.57-.13.85-.11,1.88.13,3.77.08,5.64.43.92.16,1.85.35,2.78.44,1.53.14,3.06.19,4.6.3,2.27.17,4.51.07,6.68-.72.61-.22.82-.78.39-1.29-.42-.5-.88-.96-1.33-1.44-.72-.78-1.55-1.48-2.13-2.34-1.3-1.97-2.5-4.01-3.69-6.06-.17-.29-.52-.75-.11-1.13,1.16-1.09,2.54-1.68,4.16-1.78,1.09-.06,2.18-.26,3.28-.4.33-.04.66-.09,1-.14.42-.05.85-.1,1.27-.15-.08-.14-.16-.18-.24-.18-.65,0-1.29-.02-1.94-.02-.4,0-.8.01-1.19.02-.09,0-.18,0-.26-.02-.87-.09-1.77-.35-2.61-.24-1.69.22-3.36.66-5.04.97-.94.17-1.23,1.18-1.07,1.95.36,1.8,1.41,3.27,2.18,4.87.73,1.51,1.6,2.94,2.74,4.2.24.26.31.77.59.9.49.22.31.41.12.71-.29-.09-.58-.17-.86-.27-1.25-.45-2.48-.98-3.75-1.34-1.26-.36-2.62-.4-3.82-.87-1.52-.6-3.06-.71-4.62-.74-1.65-.03-3.28.28-4.79.96-.86.39-1.84.76-2.16,1.84-.28.93-1.3.95-1.98.79-.19-.05-.31-.36-.51-.47-.8-.41-2.6-.06-3.3.58-.6.54-1.28,1-1.85,1.57-.7.71-1.32,1.5-1.96,2.27-.2.24-.3.55-.49.8-.69.9-1.4,1.78-2.14,2.72-.1-.15-.19-.25-.24-.37-.56-1.51-1.05-3.05-1.69-4.52-.48-1.12-1.13-2.16-1.75-3.21-.27-.46-.59-.47-.96-.05-.42.48-.8,1.01-1.17,1.54-.71,1.03-1.4,2.07-2.1,3.11-.2.3-.35.63-.59.9-.64.73-1.33,1.41-1.95,2.16-.68.82-1.28,1.7-1.94,2.54-.25.32-.5.81-.82.86-.74.14-1.52.15-2.26.05-1.11-.14-2.19-.43-3.29-.61-.37-.06-.59-.17-.67-.56-.03-.14-.2-.32-.34-.36-.35-.1-.76-.13-.91.3-.09.25-.14.69,0,.8.3.26.74.5.98.05.78.28,1.5.71,2.24.76,1.21.08,2.14.8,3.23,1.12.12.04.19.19.27.27-1.44,1.05-2.62,2.32-3.77,3.65-.21-.19-.39-.41-.62-.54-.17-.1-.43-.17-.59-.1-.14.05-.26.31-.27.49-.06.69.19,1.09.82,1.39.47.23.93-.03.86-.53-.07-.55.15-.88.57-1.17.17-.12.33-.26.5-.38,1.02-.75,2.04-1.51,3.06-2.25.3-.22.39-.06.4.26,0,.45.05.91.06,1.37.04,1.52.07,3.05.11,4.5-.48.11-.85.12-1.12.29-.21.12-.41.45-.42.69-.02.41.27.71.69.74.31.02.64-.05.95-.12.49-.13.53-.29.32-.73-.12-.25-.21-.54-.2-.8.08-1.46.23-2.92.29-4.38.03-.72.09-1.4.53-2.08.11.24.28.44.27.62-.07.9-.19,1.8-.27,2.7-.05.54-.06,1.08-.09,1.69.26-.17.44-.25.57-.38.48-.47,1.01-.21,1.45-.04.48.18.93.52.79,1.19-.02.08.02.2.07.26.07.09.22.22.27.19.19-.08.36-.21.51-.35.04-.04,0-.23-.05-.29-.91-.88-1.26-2.1-1.89-3.16-.43-.73-.7-1.57-1.18-2.25-.3-.43-.3-.71-.06-1.1.77-1.24,1.55-2.47,2.3-3.73.7-1.17,1.33-2.37,2.05-3.53.35-.57.8-1.09,1.26-1.58.31-.34,1.03-.22,1.16.15.32.96.65,1.92.95,2.89.09.3.09.64.18.95.2.76.44,1.52.66,2.28.26.89.5,1.79.78,2.68.24.79.62,1.56.75,2.37.15.95.6,1.74,1.03,2.55.23.45.63.48.88.06.49-.81.96-1.64,1.33-2.51.49-1.13.8-2.32,1.3-3.44.46-1.03,1.06-2,1.59-3,.48-.9.91-1.85,1.43-2.73.57-.96,1.09-1.96,2.12-2.57.35-.2.63-.28,1.06-.04-.12.92-.27,1.86-.37,2.8-.16,1.56-.35,3.12-.43,4.69-.1,2.14.55,4.17,1.02,6.23.32,1.47,1.19,2.7,1.79,4.04.19.43.46,1,.32,1.36-.32.84-.82,1.62-1.34,2.36-.77,1.1-1.62,2.14-2.44,3.2-.3.38-.66.7-.94,1.09-.65.89-1.25,1.82-1.94,2.68-.49.62-.76,1.28-.63,2.05.09.53.3,1.05.45,1.57.37,1.29,1.12,2.36,2.01,3.35.79.87,1.63,1.72,2.34,2.67.94,1.25,1.86,2.52,2.98,3.63,1.35,1.34,2.63,2.75,3.93,4.13.07.07.13.21.11.3-.16.69-.31,1.4-.54,2.07-.16.45-.43.85-.66,1.27l-.06.06s-.03.04-.04.06c-.41.36-.88.67-1.17,1.11-.4.61-.69,1.2-1.58,1-.12-.02-.45.31-.43.38.25.65.96,1.31,1.83.96-.22-1.19.17-2.2,1.05-3.04.11-.11.21-.27.3-.41.02-.02.04-.03.06-.05,0-.02.03-.05.04-.07.74-.73,1.33-1.56,1.63-2.69.24.16.57.27.64.47.21.6.32,1.25.47,1.88.39,1.63.79,3.27,1.2,4.98-.09.04-.3.13-.49.26-.34.24-.76.47-.63.98.14.53.68.94,1.23.94.58-.01,1.13-.21,1.41-.73.21-.38-.22-.64-.41-.96-.25-.41-.67-.73-.65-1.32.01-.76-.12-1.51-.2-2.27-.09-.83-.17-1.66-.28-2.48-.09-.62-.2-1.23-.31-1.84-.02-.16-.06-.31-.08-.46.21-.01.49-.11.64-.01.76.49,1.51,1,2.22,1.57.67.55,1.27,1.18,1.91,1.77.24.21.59.36.38.81,0,.06.32.3.51.38.15.06.41.04.51-.05.21-.21.49-.49.49-.74,0-.29-.12-.71-.64-.67-.28.02-.66.03-.85-.12-1.11-.89-2.17-1.83-3.24-2.75-.07-.06-.15-.14-.22-.14-.58.01-.88-.36-1.18-.85.15-.11.27-.25.43-.3.46-.15.93-.29,1.4-.4.9-.23,1.78-.47,2.58-1.12.25.2.51.41.8.65.15-.05.37-.11.63-.19-.14-.29-.22-.59-.41-.78-.12-.12-.41-.12-.61-.09-.25.04-.48.2-.74.25-.25.05-.54-.02-.78.05-1.16.33-2.3.71-3.46,1.02-.28.08-.62.36-.92-.01-.8-1.01-1.62-1.99-2.41-3.01-1.7-2.22-3.37-4.45-5.07-6.67-.41-.53-.78-1.14-1.31-1.52-.89-.65-1.56-1.45-2.13-2.35-.43-.68-.69-1.41-.34-2.22.09-.21.17-.43.27-.64.26-.56.49-1.14.81-1.66.52-.83,1.09-1.63,1.68-2.42.93-1.24,1.77-2.62,3.42-3.04.3-.08.71-.04.95.13,1.2.82,2.09,1.89,2.47,3.33.06.23.32.47.28.66-.16.65-.42,1.28-.63,1.93-.11.35-.21.7-.33,1.09,1.87-.01,3.63-.2,5.39.51-.21-.36-.38-.65-.55-.95-.03-.08-.05-.16-.07-.25.06-.02.12-.05.18-.08.16.29.33.58.49.87.53.94.94,1.93,1.18,3,.22,1.01-.32,1.75-.8,2.53.02-.89.88-1.6.49-2.63-.1.24-.17.44-.25.63-.22.45-.38.94-.67,1.34-.64.88-.59,1.92.31,2.53.88.59,1.82,1.12,2.78,1.57,1.53.71,3,.28,4.4-.44.99-.51,1.72-1.3,2.33-2.26.46-.71.66-1.48.5-2.21-.2-.9-.29-1.77-.07-2.68-1.42.25-3.06-.55-3.42-1.78-.16-.57-.13-1.26.02-1.83.3-1.16,1.41-1.47,2.35-1.92-.31-.53-.65-1.01-.87-1.54-.32-.78-.32-1.59-.24-2.45.08-1.03.37-1.9.99-2.7.43-.57.94-.87,1.67-.65.96.29,1.93.57,2.88.9,1.53.53,2.64,1.58,3.36,3,.28.55.5,1.2.5,1.81.01.82-.16,1.65-.36,2.46-.41,1.7-.86,3.39-1.33,5.07-.64,2.29-1.28,4.57-1.99,6.84-.2.62-.34,1.33-1.08,1.68-1.07.5-2.08,1.11-3.26,1.75.62-.06,1.16,0,1.59-.18.75-.34,1.42-.85,2.13-1.27.2-.12.42-.2.63-.29.02.27.03.54.04.82,0,.05-.04.09-.06.15-.37,1.48-.75,2.95-1.11,4.43-.08.34-.11.66-.46.87-.49.28-.33.69-.05,1,.13.16.51.28.64.2.22-.14.32-.41.17-.76-.13-.3-.16-.69-.09-1.01.14-.55.41-1.06.59-1.6.34-1.07.96-2.07.88-3.27,0-.11.22-.24.38-.4.11.25.17.39.18.41.29-.07.54-.19.77-.15.23.03.45.2.68.32-.08-.2-.18-.35-.31-.45-.27-.21-.72-.35-.8-.6-.08-.28.17-.66.26-1,.21-.86.41-1.72.62-2.58.33-1.36.69-2.71.99-4.07.36-1.67.64-3.37,1.03-5.03.52-2.23.92-4.48,1.18-6.75Zm-1.64,28.07c.48-.41.46-.55-.07-.89-.13-.08-.22-.26-.27-.41-.6-1.76-1.2-3.52-1.81-5.28-.09-.28-.25-.54-.37-.81l-.15.06c.18.6.34,1.21.53,1.81.47,1.38.95,2.76,1.44,4.14.11.33.02.53-.23.73-.11.09-.25.3-.22.4.09.3.9.46,1.15.25Zm-.21-1.73c.13-1.11.59-1.98,1.68-2.53-1.17-.86-2-2.04-3.23-2.74-.04.03-.09.06-.14.09.56,1.73,1.13,3.45,1.69,5.18Zm-1.72-1.41c-.4-1.16-.81-2.32-1.23-3.49-.35,1.01-.72,2.04-1.08,3.06.04.05.07.09.11.14.8-.44,1.44.05,2.11.39.03-.03.06-.07.09-.1Zm-3.15-1.55c.32-1.11.64-2.22,1-3.47-.95.57-1.76,1.06-2.6,1.56.67.55,1.4.99,1.6,1.91Zm-.97-14.33c.22-.46.13-1.06.18-1.6-.26-.51-.44-.73-.93-.89-.38-.12-.78-.22-1.17-.27-1.47-.19-2.17.43-2.07,1.88.06.71.44,1.58,1.12,1.65.59.06,1.21.15,1.77.02.42-.09.93-.43,1.1-.79Zm-3.47,12.65c-.24-.12-.43-.26-.63-.31-.17-.04-.51,0-.53.05-.06.22-.06.49.02.69.05.11.38.24.47.18.27-.17.48-.43.67-.61Zm-5.41,8.09c-1.19-1.24-1.32-2.65-.74-4.24-1,.35-2,.7-3.12,1.09,1.3,1.06,2.58,2.1,3.86,3.15Zm-1.02,1.24c-1.36-.96-2.17-2.47-3.8-3.1.23,1.87.46,3.69.7,5.66.42-1.68,1.57-2.3,3.1-2.56Zm-2.74-17.82c.17-.34.31-.81.21-1.14-.25-.86-.95-1.39-1.72-1.77-.98-.49-1.97-.18-2.93.07-.79.2-1.05.72-1.03,1.54.01.73.22,1.36.57,2,.56,1.05,2.01,1.77,3.15,1.47.21-.1.43-.17.62-.29.69-.44.82-1.22,1.13-1.88Zm-1.39-3.25c.58.47,1.18.97,1.76,1.45-.24-.98-1.04-1.61-1.76-1.45Zm-1.3,22.12c-.17-.81-.37-1.79-.59-2.83-.47.63-.93,1.24-1.3,1.73.64.37,1.31.76,1.89,1.1Zm-30.71-34.82c.34-1.86.36-3.68,0-5.61-.88.73-1.71,1.4-2.58,2.12,1.6.73,2.46,1.83,2.58,3.49Zm-4.48-3.26c.89-1,1.78-2.01,2.8-3.14-1.16-.39-2.18-.73-3.2-1.07l-.06.15c.84,1.27.91,2.61.28,4.02.06,0,.12.03.18.04Z"/>
      <path class="cls-1" d="m90.12,65.54c.69.22,1.46,1.43,1.38,2.2-.26,2.27-.66,4.52-1.18,6.75-.39,1.66-.67,3.36-1.03,5.03-.3,1.36-.66,2.71-.99,4.07-.21.86-.41,1.72-.62,2.58-.09.34-.34.72-.26,1,.08.25.53.39.8.6.13.1.23.25.31.45-.23-.12-.45-.29-.68-.32-.23-.04-.48.08-.77.15-.01-.02-.07-.16-.18-.41-.16.16-.38.29-.38.4.08,1.2-.54,2.2-.88,3.27-.18.54-.45,1.05-.59,1.6-.07.32-.04.71.09,1.01.15.35.05.62-.17.76-.13.08-.51-.04-.64-.2-.28-.31-.44-.72.05-1,.35-.21.38-.53.46-.87.36-1.48.74-2.95,1.11-4.43.02-.06.06-.1.06-.15-.01-.28-.02-.55-.04-.82-.21.09-.43.17-.63.29-.71.42-1.38.93-2.13,1.27-.43.19-.97.12-1.59.18,1.18-.64,2.19-1.25,3.26-1.75.74-.35.88-1.06,1.08-1.68.71-2.27,1.35-4.55,1.99-6.84.47-1.68.92-3.37,1.33-5.07.2-.81.37-1.64.36-2.46,0-.61-.22-1.26-.5-1.81-.72-1.42-1.83-2.47-3.36-3-.95-.33-1.92-.61-2.88-.9-.73-.22-1.24.08-1.67.65-.62.8-.91,1.67-.99,2.7-.08.86-.08,1.67.24,2.45.22.53.56,1.01.87,1.54-.94.45-2.05.76-2.35,1.92-.15.57-.18,1.26-.02,1.83.36,1.23,2,2.03,3.42,1.78-.22.91-.13,1.78.07,2.68.16.73-.04,1.5-.5,2.21-.61.96-1.34,1.75-2.33,2.26-1.4.72-2.87,1.15-4.4.44-.96-.45-1.9-.98-2.78-1.57-.9-.61-.95-1.65-.31-2.53.29-.4.45-.89.67-1.34.08-.19.15-.39.25-.63.39,1.03-.47,1.74-.49,2.63.48-.78,1.02-1.52.8-2.53-.24-1.07-.65-2.06-1.18-3-.16-.29-.33-.58-.49-.87-.06.03-.12.06-.18.08.02.09.04.17.07.25-.49-.29-.97-.58-1.46-.88.25.35.52.63.84.82.16.1.41.04.62.06.17.3.34.59.55.95-1.76-.71-3.52-.52-5.39-.51.12-.39.22-.74.33-1.09.21-.65.47-1.28.63-1.93.04-.19-.22-.43-.28-.66-.38-1.44-1.27-2.51-2.47-3.33-.24-.17-.65-.21-.95-.13-1.65.42-2.49,1.8-3.42,3.04-.59.79-1.16,1.59-1.68,2.42-.32.52-.55,1.1-.81,1.66-.1.21-.18.43-.27.64-.35.81-.09,1.54.34,2.22.57.9,1.24,1.7,2.13,2.35.53.38.9.99,1.31,1.52,1.7,2.22,3.37,4.45,5.07,6.67.79,1.02,1.61,2,2.41,3.01.3.37.64.09.92.01,1.16-.31,2.3-.69,3.46-1.02.24-.07.53,0,.78-.05.26-.05.49-.21.74-.25.2-.03.49-.03.61.09.19.19.27.49.41.78-.26.08-.48.14-.63.19-.29-.24-.55-.45-.8-.65-.8.65-1.68.89-2.58,1.12-.47.11-.94.25-1.4.4-.16.05-.28.19-.43.3.3.49.6.86,1.18.85.07,0,.15.08.22.14,1.07.92,2.13,1.86,3.24,2.75.19.15.57.14.85.12.52-.04.64.38.64.67,0,.25-.28.53-.49.74-.1.09-.36.11-.51.05-.19-.08-.51-.32-.51-.38.21-.45-.14-.6-.38-.81-.64-.59-1.24-1.22-1.91-1.77-.71-.57-1.46-1.08-2.22-1.57-.15-.1-.43,0-.64.01.02.15.06.3.08.46.11.61.22,1.22.31,1.84.11.82.19,1.65.28,2.48.08.76.21,1.51.2,2.27-.02.59.4.91.65,1.32.19.32.62.58.41.96-.28.52-.83.72-1.41.73-.55,0-1.09-.41-1.23-.94-.13-.51.29-.74.63-.98.19-.13.4-.22.49-.26-.41-1.71-.81-3.35-1.2-4.98-.15-.63-.26-1.28-.47-1.88-.07-.2-.4-.31-.64-.47-.3,1.13-.89,1.96-1.63,2.69.23-.42.5-.82.66-1.27.23-.67.38-1.38.54-2.07.02-.09-.04-.23-.11-.3-1.3-1.38-2.58-2.79-3.93-4.13-1.12-1.11-2.04-2.38-2.98-3.63-.71-.95-1.55-1.8-2.34-2.67-.89-.99-1.64-2.06-2.01-3.35-.15-.52-.36-1.04-.45-1.57-.13-.77.14-1.43.63-2.05.69-.86,1.29-1.79,1.94-2.68.28-.39.64-.71.94-1.09.82-1.06,1.67-2.1,2.44-3.2.52-.74,1.02-1.52,1.34-2.36.14-.36-.13-.93-.32-1.36-.6-1.34-1.47-2.57-1.79-4.04-.47-2.06-1.12-4.09-1.02-6.23.08-1.57.27-3.13.43-4.69.1-.94.25-1.88.37-2.8-.43-.24-.71-.16-1.06.04-1.03.61-1.55,1.61-2.12,2.57-.52.88-.95,1.83-1.43,2.73-.53,1-1.13,1.97-1.59,3-.5,1.12-.81,2.31-1.3,3.44-.37.87-.84,1.7-1.33,2.51-.25.42-.65.39-.88-.06-.43-.81-.88-1.6-1.03-2.55-.13-.81-.51-1.58-.75-2.37-.28-.89-.52-1.79-.78-2.68-.22-.76-.46-1.52-.66-2.28-.09-.31-.09-.65-.18-.95-.3-.97-.63-1.93-.95-2.89-.13-.37-.85-.49-1.16-.15-.46.49-.91,1.01-1.26,1.58-.72,1.16-1.35,2.36-2.05,3.53-.75,1.26-1.53,2.49-2.3,3.73-.24.39-.24.67.06,1.1.48.68.75,1.52,1.18,2.25.63,1.06.98,2.28,1.89,3.16.05.06.09.25.05.29-.15.14-.32.27-.51.35-.05.03-.2-.1-.27-.19-.05-.06-.09-.18-.07-.26.14-.67-.31-1.01-.79-1.19-.44-.17-.97-.43-1.45.04-.13.13-.31.21-.57.38.03-.61.04-1.15.09-1.69.08-.9.2-1.8.27-2.7,0-.18-.16-.38-.27-.62-.44.68-.5,1.36-.53,2.08-.06,1.46-.21,2.92-.29,4.38-.01.26.08.55.2.8.21.44.17.6-.32.73-.31.07-.64.14-.95.12-.42-.03-.71-.33-.69-.74.01-.24.21-.57.42-.69.27-.17.64-.18,1.12-.29-.04-1.45-.07-2.98-.11-4.5,0-.46-.06-.92-.06-1.37-.01-.32-.1-.48-.4-.26-1.02.74-2.04,1.5-3.06,2.25-.17.12-.33.26-.5.38-.42.29-.64.62-.57,1.17.07.5-.39.76-.86.53-.63-.3-.88-.7-.82-1.39.01-.18.13-.44.27-.49.16-.07.42,0,.59.1.23.13.41.35.62.54,1.15-1.33,2.33-2.6,3.77-3.65-.08-.08-.15-.23-.27-.27-1.09-.32-2.02-1.04-3.23-1.12-.74-.05-1.46-.48-2.24-.76-.24.45-.68.21-.98-.05-.14-.11-.09-.55,0-.8.15-.43.56-.4.91-.3.14.04.31.22.34.36.08.39.3.5.67.56,1.1.18,2.18.47,3.29.61.74.1,1.52.09,2.26-.05.32-.05.57-.54.82-.86.66-.84,1.26-1.72,1.94-2.54.62-.75,1.31-1.43,1.95-2.16.24-.27.39-.6.59-.9.7-1.04,1.39-2.08,2.1-3.11.37-.53.75-1.06,1.17-1.54.37-.42.69-.41.96.05.62,1.05,1.27,2.09,1.75,3.21.64,1.47,1.13,3.01,1.69,4.52.05.12.14.22.24.37.74-.94,1.45-1.82,2.14-2.72.19-.25.29-.56.49-.8.64-.77,1.26-1.56,1.96-2.27.57-.57,1.25-1.03,1.85-1.57.7-.64,2.5-.99,3.3-.58.2.11.32.42.51.47.68.16,1.7.14,1.98-.79.32-1.08,1.3-1.45,2.16-1.84,1.51-.68,3.14-.99,4.79-.96,1.56.03,3.1.14,4.62.74,1.2.47,2.56.51,3.82.87,1.27.36,2.5.89,3.75,1.34.28.1.57.18.86.27.19-.3.37-.49-.12-.71-.28-.13-.35-.64-.59-.9-1.14-1.26-2.01-2.69-2.74-4.2-.77-1.6-1.82-3.07-2.18-4.87-.16-.77.13-1.78,1.07-1.95,1.68-.31,3.35-.75,5.04-.97.84-.11,1.74.15,2.61.24.08.01.17.02.26.02.39,0,.79-.02,1.19-.02.65,0,1.29.01,1.94.02.08,0,.16.04.24.18-.42.05-.85.1-1.27.15-.34.05-.67.1-1,.14-1.1.14-2.19.34-3.28.4-1.62.1-3,.69-4.16,1.78-.41.38-.06.84.11,1.13,1.19,2.05,2.39,4.09,3.69,6.06.58.86,1.41,1.56,2.13,2.34.45.48.91.94,1.33,1.44.43.51.22,1.07-.39,1.29-2.17.79-4.41.89-6.68.72-1.54-.11-3.07-.16-4.6-.3-.93-.09-1.86-.28-2.78-.44-1.87-.35-3.76-.3-5.64-.43-.28-.02-.57.05-.85.11-.58.11-.84.77-.51,1.26.49.7,1.2,1.12,1.96,1.44.86.38,1.78.64,2.63,1.05.98.47,1.97.96,2.87,1.58.62.44,1.09,1.09,1.63,1.65.37.4.71.85,1.12,1.21,1.25,1.11,1.98,2.61,2.93,3.94.88,1.22,1.7,2.5,3.07,3.2,1.39.72,2.86,1.32,4.32,1.9,1.15.45,2.33.82,3.51,1.19Zm-9.61,15.57c.03-.08.05-.17.08-.25-.62-.18-1.34-.21-1.84-.56-.74-.52-1.52-1.15-1.93-1.92-.68-1.3-.89-2.76,0-4.24-1.09.59-.99,3.42-.13,4.59.47.64,1.06,1.27,1.73,1.69.6.38,1.39.47,2.09.69Zm-4.8-2.38c.42-.64-1.51-3.74-2.95-4.01.66.61,1.35,1.1,1.83,1.75.49.67.75,1.5,1.12,2.26Z"/>
      <path class="cls-2" d="m82.4,75.64c.05.08-.13.34-.26.65-.31-.19-.63-.3-.63-.41-.01-.23.16-.47.26-.7.22.15.47.27.63.46Z"/>
      <path class="cls-2" d="m80.59,80.86c-.03.08-.05.17-.08.25-.7-.22-1.49-.31-2.09-.69-.67-.42-1.26-1.05-1.73-1.69-.86-1.17-.96-4,.13-4.59-.89,1.48-.68,2.94,0,4.24.41.77,1.19,1.4,1.93,1.92.5.35,1.22.38,1.84.56Z"/>
      <path class="cls-2" d="m72.76,74.72c1.44.27,3.37,3.37,2.95,4.01-.37-.76-.63-1.59-1.12-2.26-.48-.65-1.17-1.14-1.83-1.75Z"/>
      <path class="cls-2" d="m71.6,76.39c-.21-.02-.46.04-.62-.06-.32-.19-.59-.47-.84-.82.49.3.97.59,1.46.88Z"/>
      <path class="cls-1" d="m69.65,80.37h-.01c-.14-.55-.8-1.09-1.27-1.01-.39.07-.68.85-.42,1.43.11.25.58.54.85.51.75-.1.98-.43.85-.92h0Zm1.73-.56c.1.33-.04.8-.21,1.14-.31.66-.44,1.44-1.13,1.88-.19.12-.41.19-.62.29-1.14.3-2.59-.42-3.15-1.47-.35-.64-.56-1.27-.57-2-.02-.82.24-1.34,1.03-1.54.96-.25,1.95-.56,2.93-.07.77.38,1.47.91,1.72,1.77Z"/>
      <path class="cls-2" d="m69.65,80.38c.13.49-.1.82-.85.92-.27.03-.74-.26-.85-.51-.26-.58.03-1.36.42-1.43.47-.08,1.13.46,1.27,1-.47-.28-.77-.52-1.11-.62-.21-.07-.46.57-.34.91.14.42.53.29.81.26.18-.03.34-.26.65-.53Z"/>
      <path class="cls-2" d="m69.64,80.36h.01v.02s-.01,0-.01-.02Z"/>
      <path class="cls-2" d="m66.12,98.18s-.03.05-.04.07c-.02.02-.04.03-.06.05.01-.02.03-.04.04-.06l.06-.06Z"/>
    </g>
  </g>
</svg>