<?xml version="1.0" encoding="UTF-8"?>
<svg id="Layer_1" data-name="Layer 1" xmlns="http://www.w3.org/2000/svg" viewBox="0 0 136.06 136.06">
  <defs>
    <style>
      .cls-1 {
        fill: #fff;
      }

      .cls-2 {
        fill: #f2d06c;
      }

      .cls-3 {
        fill: #0c3454;
      }
    </style>
  </defs>
  <path class="cls-3" d="m96.6,89.1c-.23,2.32-.55,5.37-.83,8.42-.26,2.87-1.44,5.44-2.59,8.02-.81,1.82-1.66,3.62-2.58,5.38-1.31,2.49-3.5,3.57-6.25,3.62-.3,0-.67-.06-.89-.25-.95-.81-1.86-1.75-1.96-3.03-.18-2.47-.82-4.84-1.3-7.25-.44-2.24-1.47-4.21-3.31-5.74-1.25-1.03-2.5-2.07-3.55-3.36-.86-1.05-2.07-1.81-3.12-2.72-.83-.72-1.7-1.33-2.74-1.77-.93-.39-1.71-1.11-2.56-1.68-.75-.5-1.47-1.07-2.27-1.48-1.21-.63-2.46-1.18-3.72-1.7-1.17-.48-2.39-.8-3.55-1.31-.56-.24-.98-.78-1.49-1.13-.85-.59-1.74-1.11-2.58-1.7-.51-.36-.98-.77-1.45-1.18-1.48-1.29-3.05-2.49-4.39-3.92-1.22-1.3-2.13-2.89-3.26-4.27-2.21-2.7-3.65-5.82-4.91-9.02-.81-2.05-1.45-4.19-2.01-6.32-.34-1.3-.36-2.67-.55-4.01-.04-.29-.17-.6-.34-.85-.88-1.34-1.04-2.71-.25-4.16.41-.74.48-1.51.07-2.29-1.06-2-1.51-4.18-1.96-6.36-.29-1.41.01-2.82.37-4.2.93-3.57,2.96-6.38,5.88-8.58.99-.74,1.93-1.53,2.95-2.22,1.45-.98,3.1-1.31,4.83-1.53,3-.37,5.51.69,7.87,2.32.7.49,1.29.76,2.15.28.74-.41,1.57-.36,2.4.02.9.42,1.77.83,2.59,1.44.63.46,1.55.68,2.35.73,1.94.11,3.58,1.01,5.27,1.78.64.3,1.22.75,1.82,1.13.13.08.28.21.42.2.72-.05,1.1.25,1.28.96.05.21.41.37.65.49,1.58.79,2.7,2.1,3.68,3.48,1,1.41,1.82,2.96,2.63,4.5,1.31,2.49,2.52,5.03,3.8,7.53,1,1.95,1.51,4.09,2.41,6.07,1.7,3.77,2.85,7.75,4.34,11.59.44,1.14.68,2.36,1.07,3.52.25.75.52,1.52.95,2.16,1.5,2.26,2.18,4.81,2.87,7.37.42,1.56.55,3.2,1.23,4.69.11.25.18.54.2.81.1,1.59.18,3.18.31,5.5ZM57.6,28.21c.26.1.53.2.85.33,0-.39.05-.67-.02-.92-.04-.13-.27-.29-.42-.3-.15,0-.41.13-.45.25-.06.2.03.44.05.66-.19-.06-.38-.12-.57-.18-.03.26-.17.57-.07.77.17.35.49.31.75.05-.05-.24-.09-.45-.13-.66Zm-4.79-2.39c.56.55.62,1.13,0,1.68.51.39.92.74,1.33,0-.15-.25-.4-.51-.41-.78,0-.25.25-.51.38-.76-.84-.6-1.72-1.23-2.56-1.83-.48.51-.85.91-1.22,1.31-.31-.06-.63-.12-1.03-.2q1.16-1.16.35-1.73c0,.55-.07,1.05-.8,1.07-.1-.37-.2-.73-.31-1.1-2.42-.64-4.51.27-6.69,1.25.22.3.38.5.62.83-.3.12-.67.34-.72.28-.19-.22-.28-.53-.38-.74-.37.24-.82.52-1.26.81-.33.21-.71.38-.68.87v-.03c-.83.09-1.29.79-1.81,1.3-.74.73-1.67,1.36-1.97,2.46l.04-.04c-1.08.97-1.89,2.08-1.77,3.64,0,.09-.01.21-.06.29-.5.77-.89,2.05-.85,2.86.12,2.57.76,5.02,1.85,7.34.5,1.08.74,2.07.09,3.14-.12.2-.22.42-.31.64-.38,1-.19,1.87.67,2.7-.03-.49-.13-.97-.23-1.45-.16-.8-.01-1.03.79-1.23.42-.11.84-.22,1.11-.29.17-.39.26-.7.45-.95.04-.05.49.06.59.21.4.61-.46.58-.54.96.83,1.34.89,1.97.45,3.23.51-.65,1.02-1.29,1.53-1.93.68.53,1.25,1.02,1.87,1.45.6.42,1.07,1.13,2,1.12-.45-.67-.84-1.26-1.22-1.84-.3.03-.55.06-1.02.12.17-.46.27-.75.36-1-.34-.9-.69-1.81-1-2.63-.6.46-1.18.91-1.95,1.5-.02-.42-.1-.81-.03-.85,1.01-.45.43-1.09.23-1.67-.08-.22-.29-.43-.29-.65,0-.23.12-.59.28-.67.36-.17.65.1.63.46-.03.61.35.91.72,1.27.04-.21.04-.4-.03-.57-.27-.68-.23-1.58-1.22-1.81-.1-.02-.13-.39-.19-.62.34-.05.59-.08.84-.11-.28-2.45.38-4.77.52-7.12-.38-.14-.95-.17-.67-.74.29-.6.73,0,1.21.02,1.15-3.88,3.82-6.24,7.77-7.34-.72-.64-.15-1.14-.03-1.67.05-.24.12-.6.27-.66.43-.16.77.03.86.53-.33.41-1.11.63-.6,1.34,1.12-.1,2.21-.2,3.37-.31.03-.48.04-1.1.69-1.37h-.02Zm-13.12,25.08c-.53.44-.98.9-1.51,1.24-.46.3-.67.67-.59,1.19.17,1.25.22,2.52.54,3.73.77,2.91,1.59,5.82,3.04,8.5.54,1.01,1.03,2.05,1.57,3.06,1.68,3.11,4.03,5.61,7,7.5,1.64,1.04,3.31,2.03,4.98,3.02.85.51,1.7,1.04,2.6,1.43,2.58,1.13,5.25,2,7.59,3.66,2.27,1.6,4.54,3.2,6.75,4.88.98.74,1.87,1.62,2.91,2.26,1.72,1.07,3.2,2.34,4.23,4.08,1.23,2.08,2.4,4.19,3.6,6.29.25.44.58.86.71,1.34.56,2.05.84,4.13.74,6.26-.02.42.05.88.2,1.28.38,1,1.7,1.3,2.42.53.54-.58,1.03-1.22,1.42-1.9.83-1.45,1.56-2.95,2.36-4.41,1.63-2.98,2.77-6.14,3.3-9.5.13-.86.4-1.73.36-2.58-.07-1.46-.25-2.93-.52-4.37-.53-2.81-1.13-5.6-1.97-8.33-.77-2.5-1.59-4.99-2.39-7.48-.35-1.1-.7-2.2-1.08-3.28-.87-2.43-1.81-4.83-2.63-7.28-.71-2.1-1.16-4.31-1.98-6.36-.98-2.47-2.21-4.84-3.37-7.23-.95-1.97-2.04-3.87-2.93-5.87-1.08-2.42-2.63-4.5-4.22-6.58-.86-1.13-2.12-1.78-3.16-2.69-1.49-1.31-3.35-1.89-5.05-2.75-1.15-.58-2.53-.7-3.79-1.03-.14.2-.2.35-.32.45-.9.79-.99,1.72-.62,2.81.45,1.31.38,2.66.16,4.02-.16,1.01-.27,2.05-.3,3.07-.06,1.87.55,3.69.38,5.57-.06.63-.13,1.26-.14,1.89-.02,1.67-.85,3.08-1.66,4.38-.96,1.53-2.55,2.46-4.23,3.17-.69.29-1.33.79-2.05.91-1.64.27-3.24.08-4.81-.62-1.56-.69-2.85-1.89-4.56-2.27-.07-.02-.13-.09-.19-.14-.93-.62-1.86-1.23-2.79-1.85Zm19.62-6.49c-.22-3.19-.56-6.32-1.75-9.31-.68-1.7-1.37-3.37-2.51-4.84-1.33-1.73-4.17-2.99-6.34-1.66-.33.2-.73.36-1.11.39-.92.06-1.66.49-2.39.99-1.66,1.15-2.98,2.61-3.72,4.51-.45,1.17-.89,2.37-1.14,3.6-.23,1.11-.24,2.28-.28,3.42-.02.67-.03,1.38.15,2.01.77,2.67,1.5,5.34,3.27,7.6.87,1.11,1.75,2.16,3,2.83,1.24.66,2.6,1.26,3.96,1.12,2.43-.24,4.68-1.15,6.42-2.97,1.27-1.32,2.11-2.87,2.23-4.75.06-.98.12-1.96.18-2.94Zm-.63-10.91q-.06,2.61.55,3.51c.39-1.6.23-3.09-.36-4.55-.46.12-.85.19-.88-.43-.04-.59-.39-.44-.86-.29.26.62.51,1.18.76,1.77h.78Zm1.23-4.32c-.56-.29-.98-.19-1.48.09-.42.24-.96.29-1.45.39-.37.07-.74.08-1.29.13.44.54.77.96,1.18,1.46.12-.55.06-1.05.66-1.01.69.05.68.58.62,1.07.28.02.48.04.57.05.39-.72.76-1.4,1.19-2.17Zm-.59-2.51c-.23-.56-.64-.55-1.02-.54-.58.02-1.24-.07-1.71.18-.56.29-1.11-.28-1.59.15,1.02.46,1.02.59.26,1.43-.2.22-.23.63-.26.95,0,.09.27.21.49.37.32-.57.59-1.08.87-1.58.57-1,1.09-1.23,2.24-1,.21.04.43.03.71.04Zm-21.8,23.88c-.12-.53-.15-.97-.33-1.35-.22-.47-.67-.4-1-.13-.16.13-.31.55-.23.66.33.46.69.97,1.56.81Zm30.96-20.46c-.53-.26-.83-.48-1.16-.53-.21-.04-.59.12-.66.28-.07.17.1.54.27.66.22.15.55.15.64.17.34-.22.57-.36.9-.58Zm-30.79,31.9c.33.3.57.54.82.77.08-.15.25-.31.23-.45-.07-.59-.47-.48-1.06-.32Zm31.56-31.37q-.77.3-.44,1.03c.17-.4.31-.71.44-1.03Zm-30.95,33.29c.48.29.73.44,1.16.7-.13-.51-.2-.75-.26-1.01-.24.08-.41.14-.9.31Zm33-30.46c.13-.38.27-.77.4-1.15-.51.25-.66.63-.4,1.15Zm-34.65,23.66c-.03.1-.06.2-.09.3.2.07.41.14.61.21.03-.11.07-.22.1-.33-.21-.06-.41-.12-.62-.18Zm28.29-27.98c0-.11,0-.23.01-.34-.24.03-.49.05-.73.08l.02.26h.7Z"/>
  <path class="cls-1" d="m59.32,44.41c-.06.98-.12,1.96-.18,2.94-.12,1.88-.96,3.42-2.23,4.75-1.75,1.82-3.99,2.73-6.42,2.97-1.36.14-2.72-.46-3.96-1.12-1.25-.67-2.13-1.72-3-2.83-1.77-2.26-2.51-4.93-3.27-7.6-.18-.63-.18-1.34-.15-2.01.04-1.14.05-2.31.28-3.42.25-1.23.69-2.42,1.14-3.6.74-1.9,2.05-3.36,3.72-4.51.72-.5,1.46-.94,2.39-.99.38-.02.78-.19,1.11-.39,2.17-1.33,5.01-.06,6.34,1.66,1.14,1.47,1.83,3.14,2.51,4.84,1.19,2.99,1.53,6.12,1.75,9.31Zm-16.49-4.54c-.52.42-.47.98-.38,1.47.28,1.52.55,3.04.98,4.52.28.98.65,2.01,1.27,2.79,1.24,1.57,2.91,2.67,4.78,3.42,1.06.42,2.17.58,3.19.03.9-.48,1.69-1.17,2.51-1.8.35-.26.59-.61.56-1.2-.23.12-.37.16-.48.24-.74.54-1.46,1.09-2.2,1.62-1.19.87-2.45.81-3.73.25-.33-.14-.64-.3-.95-.48-2.44-1.38-4.08-3.35-4.56-6.18-.25-1.48-.51-2.96-.77-4.44-.01-.06-.1-.11-.22-.25Zm3.5,5.38c-.11.06-.23.11-.34.17.09.31.13.65.29.92,1.22,1.97,3.15,2.28,5.22,2.08,1.15-.11,2.65-1.73,2.86-2.87,0-.05-.07-.12-.09-.15-.8.71-1.54,1.53-2.43,2.11-1.01.66-2.14.26-3.2-.04-1.13-.33-1.64-1.35-2.31-2.21Zm4.96-1.01c1.37.57,2.61.41,3.22-.45.78-1.1,1.43-2.28,2.11-3.45.1-.18.01-.47.01-.84-.22.17-.34.22-.39.3-.61,1.02-1.22,2.04-1.83,3.07-.38.65-.85,1.13-1.7,1.09-.4-.02-.8.15-1.42.27Zm5.61-.66c-.05.28-.09.39-.09.5.09,1.43-.17,2.74-1.18,3.84-.17.18-.18.51-.31.95,1.82-1.14,2.61-3.84,1.58-5.29Zm-10.34-2.55c-.51,1.39.55,2.96,1.83,3.04.13,0,.27-.19.42-.31-.53-.4-1.08-.68-1.44-1.12-.37-.46-.55-1.07-.82-1.61Zm1.84-2.74c-.37,1.03-.36,1.06.58,1.75.85.62,1.67.74,2.36.26-1.16-.45-2.39-.72-2.94-2.01Zm-4.16-2.13c-.53.82-.49,2.09.05,2.64.06.06.27-.03.51-.06-.5-.83.01-1.78-.56-2.57Zm7.47,9.95c-.64.09-1.23.18-1.82.26-.2.41,0,.62.36.7.53.13,1.04-.21,1.47-.96Z"/>
  <path class="cls-2" d="m49.37,26.14c-.09-.5-.43-.69-.86-.53-.15.06-.22.42-.27.66-.12.53-.7,1.03.03,1.67-3.95,1.1-6.62,3.46-7.77,7.34-.47-.02-.92-.62-1.21-.02-.27.57.3.59.67.74-.14,2.35-.8,4.66-.52,7.12-.25.03-.5.07-.84.11.06.23.09.59.19.62.98.23.94,1.12,1.22,1.81.07.17.07.36.03.57-.36-.36-.75-.66-.72-1.27.02-.36-.27-.63-.63-.46-.17.08-.28.44-.28.67,0,.22.21.42.29.65.2.59.78,1.23-.23,1.67-.08.03,0,.43.03.85.77-.59,1.35-1.04,1.95-1.5.31.82.66,1.73,1,2.63-.09.25-.2.54-.36,1,.47-.05.73-.08,1.02-.12.38.58.78,1.17,1.22,1.84-.93,0-1.4-.7-2-1.12-.62-.43-1.19-.92-1.87-1.45-.5.64-1.01,1.28-1.53,1.93.44-1.26.38-1.89-.45-3.23.08-.38.94-.35.54-.96-.1-.15-.55-.26-.59-.21-.18.25-.28.57-.45.95-.27.07-.69.19-1.11.29-.8.2-.95.43-.79,1.23.1.48.2.96.23,1.45-.87-.84-1.06-1.7-.67-2.7.08-.22.19-.44.31-.64.65-1.07.41-2.06-.09-3.14-1.08-2.32-1.72-4.77-1.85-7.34-.04-.81.35-2.09.85-2.86.05-.08.07-.19.06-.29-.13-1.56.68-2.67,1.77-3.64.09.36.18.73.27,1.1.37-.12.64-.22.97-.33-.04.56-.06,1.01-.09,1.45,1.43.11,1.52.04,1.65-1.06h-1.17c.25-.35.43-.61.63-.88.5.31.96.59,1.38.85.46-.36.85-.68,1.27-1.02-.08-.17-.17-.34-.24-.47.28-.33.54-.64.92-1.1-.49-.21-.81-.34-1.22-.51-.14.86.25,1.79-.9,2.03-.35-.48-.71-.75-1.42-.28-.33.22-1.02.65-1.57.05-.04-.05-.34.14-.52.21.3-1.1,1.23-1.73,1.97-2.46.52-.51.98-1.21,1.82-1.3.03.15.11.41.07.43-.53.24-.57.65-.48,1.15.03.14-.13.31-.25.59-.18-.19-.25-.32-.36-.38-.18-.1-.39-.23-.57-.2-.11.02-.3.32-.26.43.05.18.25.34.43.45.11.07.34-.03.44.05.61.44.86.22,1.09-.43.26-.76.67-1.46,1.03-2.21-.43-.26-.81-.25-1.15.15-.03-.49.36-.66.68-.87.44-.29.89-.57,1.26-.81.1.21.19.52.38.74.05.06.42-.16.72-.28-.25-.33-.4-.53-.62-.83,2.17-.98,4.26-1.89,6.69-1.25.1.37.2.73.31,1.1.73-.02.81-.52.8-1.07q.81.57-.35,1.73c.4.08.72.14,1.03.2,0,0-.03-.03-.03-.03-.32.24-.65.48-.97.72,0,0,.03.02.03.02Zm-4.35,1.26c.01-.11,0-.24.04-.34.16-.32.23-.62-.18-.78-.53-.19-.71.1-.77.64.33.15.64.3.95.44-.95.1-1.59.76-2.38,1.25.29.46.25,1.08.75,1.38.1-.03.17-.04.17-.06.06-.36.12-.73.17-1.09.08-.57.43-.77.97-.57q.82.31.87-.61c.44-.14.83.96,1.32-.02-.13-.15-.32-.29-.41-.48-.16-.31-.35-.55-.72-.38-.45.21-.29.57-.16.91-.2-.09-.41-.19-.61-.29Zm-8.57,11.13c.49-.19.86-.31,1.21-.47.16-.08.4-.23.41-.37.04-.47.11-.99-.05-1.41-.29-.77-.73-1.48-1.13-2.21-.06-.11-.29-.25-.35-.22-.14.08-.33.27-.32.4.04.48.13.93-.39,1.25-.11.07-.16.45-.08.54.35.39-.17.69-.07.98.12.33.45.58.64.9.09.16.08.38.12.62Zm4.97-7.69c-.73.59-1.24,1.3-1.85,1.41-1.24.21.23,1.25-.57,1.46.15.2.27.43.45.59.08.07.29-.01.43-.03.03-.57.06-1.09.09-1.62,1.09.16,1.12-.91,1.69-1.29.03-.02-.18-.39-.25-.52Zm-2.31,9.57c-.19-.18-.33-.45-.49-.46-.39-.02-.75.04-.78.61-.03.58-.26,1.15-.34,1.73-.03.23.01.55.15.71.11.12.54.15.63.05.13-.16.17-.48.1-.7-.17-.59-.11-.95.34-1.43.13-.14.23-.3.39-.51Zm8.62-14.04q-2.15-1.47-2.68-.57c1-.11,1.34.8,2.03,1.26.22-.23.4-.42.65-.68Zm-11.8,18.57c.3-.74.5-1.22.69-1.72.13-.33-.02-.58-.34-.61-.18-.02-.51.12-.55.26-.15.48-.26.98-.28,1.48,0,.17.28.35.48.59Zm1.11-3.85c.76-.76.74-.85-.09-1.17-.23-.09-.4-.32-.63-.41-.15-.06-.43-.03-.5.06-.08.11-.06.42.04.51.35.35.75.64,1.19,1Zm.44,5.62c.41-.1.48-.38.34-.72-.12-.28-.31-.54-.46-.8-.21-.34-.58-.41-.78-.16-.16.21-.18.7-.03.92.2.32.61.51.93.76Zm9.73-22.93s-.09,0-.11.01c-.14.16-.43.4-.4.47.21.43.48.84.79,1.21.06.07.4-.1.6-.16.03,0,.05-.06.06-.1.11-.3-.63-1.43-.94-1.43Zm-3.48,2.5c.83-1.24.81-1.38-.07-1.78-.18.33-.36.66-.56,1.03.21.25.38.45.63.75Zm-7.72,7.89c-.29-.25-.5-.44-.9-.78-.1.74-.71,1.15-.24,1.8.78.06.59-.77,1.14-1.02Zm5.45-5.23q.38,1.02,1.26.61-.26-.81-1.26-.61Zm-3.94,9.36c-.07.45-.16.65-.11.8.07.23.24.44.39.63.02.03.28-.04.29-.1.06-.24.14-.51.07-.74-.05-.18-.3-.29-.65-.6Zm5.41-10.37c-.29-.26-.46-.48-.67-.56-.08-.03-.41.27-.4.4.01.22.21.42.33.64.21-.13.41-.27.74-.48Zm-4.82,5.75c-.25.49-.52.82-.06,1.14.13.09.52.04.58-.07.26-.44-.05-.7-.52-1.07Zm-2.25,4.76c-.24-.47-.55-.68-.95-.39-.11.08-.09.55.04.68.38.38.68.16.91-.29Zm1.42,5.17c-.08.08-.16.16-.24.23.15.27.3.55.46.82.21-.16.43-.32.78-.59-.47-.22-.73-.34-1-.46Zm-1.88-10.69c.1.08.19.16.29.24.27-.11.73.02.64-.54-.03-.17-.3-.3-.45-.45-.16.25-.32.5-.48.76Zm3.77,4.46c.18-.4.47-.73.03-1.06-.09-.07-.41.01-.48.12-.25.39-.17.72.45.94Zm-4.27,3.58c.1.11.2.22.31.33.23-.13.47-.27.7-.4-.17-.18-.33-.36-.5-.54-.17.21-.34.41-.51.62Zm6.47-13.58c-.45-.02-.84-.2-.89.37-.01.16.1.45.19.47.55.11.61-.3.7-.84Zm2.05-.75c-.21-.18-.36-.4-.47-.38-.19.04-.34.22-.51.35.13.15.25.44.38.43.17,0,.34-.22.6-.4Zm-8.77,14.87c-.24.53-.24.87.34,1.1.37-.48.34-.81-.34-1.1Zm.15-1.45c.06-.1.12-.2.18-.3l-.5-.77c-.1.02-.19.05-.29.07,0,.26-.09.56,0,.77.06.14.39.16.6.23Zm11.2-15.44c.19-.21.33-.36.47-.52-.16-.11-.34-.34-.48-.31-.16.03-.32.26-.39.44-.02.06.22.22.4.4Zm-10.89,12.44c-.24-.17-.41-.28-.57-.39-.11.18-.31.37-.3.55,0,.13.26.26.41.39.13-.16.27-.31.47-.54Zm1.16,4.18c.06,1.05.11,1.08.91.6-.3-.2-.56-.37-.91-.6Zm2.83-1.63c.35-.57.27-.86-.39-.99-.23.46-.1.73.39.99Zm.88,8.68c-.1.03-.21.05-.31.08.08.25.15.51.27.73.02.04.31-.06.6-.13-.25-.3-.41-.49-.57-.68Z"/>
  <path class="cls-2" d="m52.83,25.8c-.65.27-.66.89-.69,1.37-1.16.11-2.24.2-3.37.31-.51-.71.27-.93.6-1.34l-.03-.02c.1.21.2.42.31.65.35.02.7.08,1.04.05.68-.05.84-.45.51-1.06-.21-.38-.5-.46-.88-.36,0,0,.03.03.03.03.37-.4.74-.79,1.22-1.31.84.6,1.73,1.23,2.56,1.83-.13.25-.39.51-.38.76,0,.27.27.52.41.78-.4.74-.82.39-1.33,0,.61-.56.55-1.13,0-1.68-.13-.18-.23-.42-.41-.54-.33-.23-.52-.01-.5.64.31-.04.62-.07.92-.11Z"/>
  <path class="cls-2" d="m58.69,33.49h-.78c-.25-.59-.49-1.15-.76-1.77.47-.15.82-.3.86.29.04.62.42.55.88.43.58,1.47.74,2.95.36,4.55q-.62-.9-.55-3.51Z"/>
  <path class="cls-2" d="m59.92,29.17c-.42.78-.8,1.46-1.19,2.17-.09,0-.29-.02-.57-.05.06-.48.07-1.02-.62-1.07-.6-.04-.54.46-.66,1.01-.41-.51-.74-.92-1.18-1.46.54-.05.92-.06,1.29-.13.49-.09,1.03-.15,1.45-.39.5-.28.92-.38,1.48-.09Z"/>
  <path class="cls-2" d="m59.33,26.66c-.28-.02-.5,0-.71-.04-1.15-.23-1.67,0-2.24,1-.28.5-.56,1.01-.87,1.58-.22-.16-.5-.27-.49-.37.03-.33.06-.73.26-.95.76-.83.76-.96-.26-1.43.48-.43,1.03.14,1.59-.15.48-.25,1.13-.17,1.71-.18.37-.01.79-.02,1.02.54Z"/>
  <path class="cls-1" d="m37.53,50.53c-.87.16-1.23-.35-1.56-.81-.08-.12.07-.53.23-.66.33-.27.78-.34,1,.13.18.38.21.82.33,1.35Z"/>
  <path class="cls-2" d="m68.49,30.08c-.34.22-.57.36-.9.58-.09-.02-.42-.01-.64-.17-.18-.12-.34-.5-.27-.66.07-.17.45-.32.66-.28.33.06.63.28,1.16.53Z"/>
  <path class="cls-1" d="m57.62,28.24c-.03-.22-.11-.47-.06-.67.03-.12.29-.26.45-.25.15,0,.38.16.42.3.07.25.02.53.02.92-.32-.12-.58-.22-.85-.33l.02.03Z"/>
  <path class="cls-2" d="m37.7,61.97c.59-.17.99-.27,1.06.32.02.14-.15.3-.23.45-.25-.23-.5-.46-.82-.77Z"/>
  <path class="cls-2" d="m57.6,28.21c.04.21.08.43.13.66-.27.26-.58.3-.75-.05-.1-.2.04-.51.07-.77.19.06.38.12.57.18,0,0-.02-.03-.02-.03Z"/>
  <path class="cls-2" d="m69.26,30.6c-.14.32-.27.64-.44,1.03q-.33-.73.44-1.03Z"/>
  <path class="cls-2" d="m38.31,63.89c.49-.17.66-.23.9-.31.07.26.13.51.26,1.01-.43-.26-.68-.41-1.16-.7Z"/>
  <path class="cls-2" d="m71.31,33.43c-.26-.53-.11-.9.4-1.15-.13.38-.27.77-.4,1.15Z"/>
  <path class="cls-2" d="m36.66,57.09c.21.06.41.12.62.18-.03.11-.07.22-.1.33-.2-.07-.41-.14-.61-.21.03-.1.06-.2.09-.3Z"/>
  <path class="cls-2" d="m64.94,29.12h-.7l-.02-.26c.24-.03.49-.05.73-.08,0,.11,0,.23-.01.34Z"/>
  <path class="cls-3" d="m42.83,39.86c.12.13.21.18.22.25.26,1.48.52,2.96.77,4.44.47,2.83,2.11,4.81,4.56,6.18.31.17.63.33.95.48,1.28.56,2.54.62,3.73-.25.74-.54,1.46-1.09,2.2-1.62.11-.08.25-.13.48-.24.03.6-.21.94-.56,1.2-.82.62-1.61,1.32-2.51,1.8-1.01.54-2.13.39-3.19-.03-1.87-.75-3.54-1.85-4.78-3.42-.62-.78-.99-1.81-1.27-2.79-.42-1.48-.7-3-.98-4.52-.09-.48-.14-1.05.38-1.47Z"/>
  <path class="cls-3" d="m46.33,45.24c.66.86,1.18,1.88,2.31,2.21,1.06.31,2.2.7,3.2.04.89-.58,1.63-1.4,2.43-2.11.02.03.1.1.09.15-.21,1.14-1.71,2.76-2.86,2.87-2.07.21-4-.1-5.22-2.08-.16-.26-.2-.61-.29-.92.11-.06.23-.11.34-.17Z"/>
  <path class="cls-3" d="m51.29,44.23c.62-.13,1.02-.29,1.42-.27.86.04,1.32-.44,1.7-1.09.6-1.03,1.21-2.05,1.83-3.07.05-.09.17-.13.39-.3,0,.37.09.66-.01.84-.67,1.17-1.33,2.35-2.11,3.45-.61.86-1.85,1.02-3.22.45Z"/>
  <path class="cls-3" d="m56.9,43.57c1.03,1.45.24,4.15-1.58,5.29.14-.44.14-.77.31-.95,1.01-1.1,1.27-2.41,1.18-3.84,0-.11.04-.22.09-.5Z"/>
  <path class="cls-3" d="m46.56,41.02c.27.54.45,1.16.82,1.61.36.44.91.72,1.44,1.12-.15.11-.29.32-.42.31-1.29-.08-2.34-1.64-1.83-3.04Z"/>
  <path class="cls-3" d="m48.4,38.28c.55,1.29,1.78,1.56,2.94,2.01-.7.48-1.51.36-2.36-.26-.94-.68-.95-.72-.58-1.75Z"/>
  <path class="cls-3" d="m44.25,36.14c.57.79.06,1.74.56,2.57-.24.03-.45.12-.51.06-.55-.55-.58-1.82-.05-2.64Z"/>
  <path class="cls-3" d="m51.72,46.1c-.42.76-.93,1.09-1.47.96-.35-.08-.56-.29-.36-.7.59-.08,1.18-.17,1.82-.26Z"/>
  <path class="cls-3" d="m35.65,30.51c.18-.08.48-.26.52-.21.55.61,1.24.17,1.57-.05.71-.47,1.07-.19,1.42.28,1.15-.25.76-1.17.9-2.03.41.17.73.31,1.22.51-.38.46-.65.77-.92,1.1.07.13.16.31.24.47-.42.34-.81.65-1.27,1.02-.43-.26-.88-.54-1.38-.85-.2.28-.37.53-.63.88h1.17c-.13,1.11-.22,1.18-1.65,1.06.03-.44.06-.89.09-1.45-.33.11-.6.2-.97.33-.09-.37-.18-.73-.27-1.1,0,0-.04.04-.04.04Z"/>
  <path class="cls-3" d="m36.45,38.53c-.04-.24-.03-.46-.12-.62-.19-.32-.52-.57-.64-.9-.1-.28.42-.58.07-.98-.08-.09-.02-.47.08-.54.51-.32.43-.77.39-1.25-.01-.13.18-.32.32-.4.06-.03.29.11.35.22.4.73.83,1.44,1.13,2.21.16.42.08.94.05,1.41-.01.14-.25.29-.41.37-.35.17-.72.29-1.21.47Zm-.19-2.03c.08.2.1.37.2.48.13.16.3.27.46.4.14-.2.37-.38.39-.59.03-.35-.08-.71-.15-1.28-.38.42-.61.67-.89.99Z"/>
  <path class="cls-3" d="m39.43,26.78c.34-.4.72-.41,1.15-.15-.36.75-.77,1.45-1.03,2.21-.23.65-.48.87-1.09.43-.1-.07-.33.02-.44-.05-.17-.11-.37-.27-.43-.45-.04-.12.15-.42.26-.43.18-.02.39.1.57.2.11.06.18.19.36.38.13-.28.28-.45.25-.59-.09-.5-.06-.91.48-1.15.03-.01-.05-.28-.07-.43,0,0-.01.03-.01.03Z"/>
  <path class="cls-3" d="m41.43,30.84c.06.13.27.5.25.52-.57.39-.6,1.46-1.69,1.29-.03.53-.06,1.06-.09,1.62-.14.01-.35.1-.43.03-.18-.16-.31-.39-.45-.59.8-.22-.67-1.25.57-1.46.61-.1,1.11-.82,1.85-1.41Z"/>
  <path class="cls-3" d="m45.61,27.67q-.06.92-.88.61c-.54-.21-.89,0-.97.57-.05.36-.11.73-.17,1.09,0,.02-.07.02-.17.06-.5-.3-.46-.92-.75-1.38.79-.49,1.43-1.15,2.38-1.25l-.03.04c.2.09.41.19.61.28l-.02-.02Z"/>
  <path class="cls-3" d="m39.12,40.41c-.16.21-.26.37-.39.51-.45.48-.51.84-.34,1.43.06.22.03.54-.1.7-.08.1-.52.08-.63-.05-.14-.16-.19-.48-.15-.71.08-.58.31-1.15.34-1.73.03-.58.39-.64.78-.61.16,0,.3.27.49.46Z"/>
  <path class="cls-3" d="m47.74,26.37c-.25.26-.43.45-.65.68-.68-.46-1.02-1.37-2.03-1.26q.54-.89,2.68.57Z"/>
  <path class="cls-3" d="m50.31,25.41c.38-.1.67-.02.88.36.33.61.17,1-.51,1.06-.34.03-.69-.03-1.04-.05-.11-.23-.21-.44-.31-.65.32-.24.65-.48.97-.72Z"/>
  <path class="cls-3" d="m35.94,44.94c-.2-.23-.49-.42-.48-.59.02-.5.13-1,.28-1.48.04-.14.37-.28.55-.26.32.03.47.28.34.61-.19.49-.39.98-.69,1.72Z"/>
  <path class="cls-3" d="m37.05,41.09c-.44-.36-.84-.66-1.19-1-.1-.1-.12-.4-.04-.51.07-.1.36-.12.5-.06.23.09.4.32.63.41.83.32.85.42.09,1.17Z"/>
  <path class="cls-3" d="m37.49,46.71c-.32-.25-.73-.44-.93-.76-.14-.22-.12-.71.03-.92.19-.26.57-.19.78.16.16.27.35.52.46.8.14.33.07.62-.34.72Z"/>
  <path class="cls-3" d="m47.22,23.79c.32,0,1.06,1.13.94,1.43-.01.04-.03.09-.06.1-.21.07-.55.23-.6.16-.31-.37-.58-.78-.79-1.21-.04-.07.25-.31.4-.47.02-.02.08-.01.11-.01Z"/>
  <path class="cls-3" d="m43.73,26.29c-.25-.29-.42-.5-.63-.75.2-.37.38-.7.56-1.03.87.39.89.54.07,1.78Z"/>
  <path class="cls-3" d="m45.63,27.69c-.13-.34-.29-.7.16-.91.37-.17.56.06.72.38.1.19.29.34.41.48-.49.98-.88-.12-1.32.03,0,0,.02.02.02.02Z"/>
  <path class="cls-3" d="m36.01,34.18c-.55.25-.36,1.09-1.14,1.02-.47-.65.14-1.06.24-1.8.4.34.61.53.9.78Z"/>
  <path class="cls-3" d="m41.46,28.95q.99-.2,1.26.61-.87.4-1.26-.61Z"/>
  <path class="cls-3" d="m37.52,38.31c.35.31.6.43.65.6.06.22-.01.5-.07.74-.01.06-.27.13-.29.1-.15-.2-.32-.4-.39-.63-.05-.16.04-.36.11-.8Z"/>
  <path class="cls-3" d="m45.05,27.37c-.31-.14-.62-.29-.95-.44.06-.54.25-.83.77-.64.41.15.34.46.18.78-.05.09-.03.22-.04.34,0,0,.03-.04.03-.04Z"/>
  <path class="cls-3" d="m42.93,27.94c-.33.21-.54.35-.74.48-.12-.21-.32-.42-.33-.64,0-.14.32-.43.4-.4.22.08.38.3.67.56Z"/>
  <path class="cls-3" d="m38.12,33.69c.47.37.78.63.52,1.07-.06.11-.46.16-.58.07-.46-.32-.19-.65.06-1.14Z"/>
  <path class="cls-3" d="m35.87,38.45c-.23.45-.54.67-.91.29-.13-.13-.14-.6-.04-.68.39-.3.71-.08.95.39Z"/>
  <path class="cls-3" d="m37.28,43.62c.26.12.52.24,1,.46-.35.27-.57.43-.78.59-.15-.27-.3-.55-.46-.82.08-.08.16-.16.24-.23Z"/>
  <path class="cls-3" d="m35.41,32.93c.16-.25.32-.5.48-.76.16.15.43.28.45.45.09.56-.37.43-.64.54-.1-.08-.19-.16-.29-.24Z"/>
  <path class="cls-3" d="m39.18,37.4c-.62-.21-.7-.55-.45-.94.07-.11.39-.19.48-.12.44.33.15.66-.03,1.06Z"/>
  <path class="cls-3" d="m34.9,40.97c.17-.21.34-.41.51-.62.17.18.33.36.5.54-.23.13-.47.27-.7.4-.1-.11-.2-.22-.31-.33Z"/>
  <path class="cls-3" d="m41.37,27.39c-.08.54-.14.95-.7.84-.1-.02-.2-.31-.19-.47.05-.56.44-.38.89-.37Z"/>
  <path class="cls-3" d="m43.42,26.64c-.26.19-.43.4-.6.4-.12,0-.25-.28-.38-.43.17-.12.33-.31.51-.35.1-.02.26.2.47.38Z"/>
  <path class="cls-3" d="m34.66,41.51c.68.29.7.61.34,1.1-.58-.22-.58-.57-.34-1.1Z"/>
  <path class="cls-3" d="m34.81,40.06c-.21-.07-.54-.09-.6-.23-.1-.21-.01-.51,0-.77.1-.02.19-.05.29-.07l.5.77c-.06.1-.12.2-.18.3Z"/>
  <path class="cls-3" d="m46.01,24.62c-.18-.17-.42-.34-.4-.4.07-.18.23-.41.39-.44.14-.02.32.2.48.31-.14.15-.28.31-.47.52Z"/>
  <path class="cls-3" d="m35.12,37.06c-.2.23-.33.39-.47.54-.15-.13-.41-.26-.41-.39,0-.18.19-.37.3-.55.16.11.32.22.57.39Z"/>
  <path class="cls-3" d="m36.28,41.24c.35.23.61.4.91.6-.8.48-.85.45-.91-.6Z"/>
  <path class="cls-3" d="m39.11,39.61c-.48-.26-.61-.53-.39-.99.66.13.73.43.39.99Z"/>
  <path class="cls-3" d="m39.99,48.29c.16.19.31.38.57.68-.29.06-.58.17-.6.13-.13-.22-.19-.48-.27-.73.1-.03.21-.05.31-.08Z"/>
  <path class="cls-3" d="m52.83,25.8c-.31.04-.61.07-.92.11-.02-.65.17-.86.5-.64.18.12.27.36.41.54,0,0,.02-.02.02-.02Z"/>
  <path class="cls-2" d="m36.26,36.5c.28-.31.51-.57.89-.99.08.57.19.93.15,1.28-.02.21-.25.4-.39.59-.16-.13-.33-.25-.46-.4-.09-.11-.12-.28-.2-.48Z"/>
</svg>