<?xml version="1.0" encoding="UTF-8"?>
<svg xmlns="http://www.w3.org/2000/svg" viewBox="0 0 136.06 136.06">
  <defs>
    <style>
      .cls-1 {
        fill: #fff;
      }

      .cls-2 {
        fill: #0c3454;
      }

      .cls-3 {
        fill: #e0e1e3;
      }
    </style>
  </defs>
  <g id="Layer_3" data-name="Layer 3">
    <rect class="cls-3" x="0" width="136.06" height="136.06"/>
  </g>
  <g id="B_W" data-name="B&amp;amp;W">
    <g>
      <path class="cls-1" d="m59.31,44.4c-.06.98-.12,1.97-.18,2.95-.12,1.87-.96,3.42-2.23,4.74-1.75,1.83-3.99,2.73-6.43,2.97-1.36.14-2.72-.46-3.96-1.12-1.25-.67-2.13-1.72-3-2.83-1.77-2.26-2.51-4.93-3.27-7.6-.18-.63-.18-1.34-.16-2.01.04-1.14.05-2.31.28-3.42.26-1.23.69-2.42,1.14-3.6.74-1.9,2.06-3.36,3.72-4.51.72-.5,1.46-.93,2.38-.99.38-.03.78-.19,1.11-.39,2.17-1.33,5.01-.06,6.35,1.66,1.13,1.47,1.82,3.15,2.5,4.84,1.19,2.99,1.53,6.13,1.75,9.31Z"/>
      <path class="cls-2" d="m57.61,28.21v.02h-.01v-.02h.01Z"/>
      <path class="cls-2" d="m39.44,26.75v.03s-.01-.02-.01-.03h.01Z"/>
      <path class="cls-2" d="m37.17,57.6c.03-.11.07-.22.1-.33-.21-.06-.41-.12-.62-.18l-.09.3c.2.07.4.14.61.21Zm2.3,6.99c-.13-.5-.2-.75-.27-1.01-.23.08-.41.14-.89.31.48.29.72.44,1.16.7Zm-3.5-14.87c.33.46.69.97,1.56.81-.12-.52-.15-.97-.33-1.34-.22-.47-.67-.4-1-.14-.16.14-.31.55-.23.67Zm21-20.9c.17.35.49.31.76.05-.05-.23-.09-.44-.13-.64h.01v-.02c.26.1.52.2.84.32,0-.38.04-.66-.02-.91-.04-.14-.27-.29-.42-.3-.16,0-.42.13-.45.25-.06.19.02.43.05.64h-.01v.02c-.19-.06-.37-.12-.56-.18-.03.26-.16.57-.07.77Zm2.95.35c-.56-.3-.99-.19-1.49.09-.42.23-.95.29-1.45.38-.36.07-.74.08-1.28.13.44.54.77.96,1.17,1.46.13-.55.06-1.05.67-1,.68.04.67.58.62,1.06.28.03.48.04.57.05.39-.72.76-1.4,1.19-2.17Zm4.32-.06h.7c.01-.11.01-.22.01-.33-.24.02-.48.05-.73.08.01.08.02.17.02.25Zm2.43.71c-.07.17.1.54.27.67.22.15.56.14.65.16.33-.21.56-.36.9-.58-.53-.25-.83-.47-1.16-.53-.21-.04-.59.12-.66.28Zm-7.34-3.16c-.23-.56-.65-.56-1.02-.55-.58.02-1.24-.06-1.71.18-.56.3-1.11-.28-1.59.15,1.02.47,1.02.6.26,1.43-.2.22-.23.63-.26.95,0,.1.27.21.49.37.32-.57.59-1.08.87-1.58.57-1,1.1-1.23,2.25-1,.2.05.42.03.71.05Zm9.93,3.94q-.77.3-.45,1.03c.17-.39.31-.71.45-1.03Zm-29.15-4.7c-.31.21-.69.37-.68.85-.83.1-1.29.79-1.81,1.3-.74.73-1.67,1.36-1.97,2.46-1.06.96-1.85,2.06-1.73,3.6,0,.09-.01.21-.06.29-.5.77-.89,2.05-.86,2.85.13,2.57.77,5.03,1.85,7.35.51,1.08.75,2.07.09,3.14-.12.2-.22.42-.31.64-.38,1.01-.19,1.87.68,2.71-.03-.49-.14-.97-.23-1.45-.16-.81-.01-1.03.79-1.23.42-.11.84-.22,1.11-.3.16-.38.26-.7.44-.95.04-.05.5.06.59.21.4.6-.46.58-.54.96.83,1.34.89,1.96.45,3.22.51-.64,1.03-1.29,1.53-1.92.68.53,1.25,1.02,1.87,1.45.6.42,1.07,1.12,2,1.12-.45-.68-.84-1.27-1.22-1.85-.3.04-.55.07-1.03.12.17-.46.27-.75.37-1-.35-.9-.69-1.8-1.01-2.63-.6.46-1.18.91-1.95,1.5-.02-.42-.1-.81-.02-.84,1-.45.42-1.09.22-1.68-.07-.22-.28-.43-.28-.65s.11-.58.28-.66c.36-.17.65.09.64.46-.03.6.35.9.71,1.26.04-.2.04-.4-.02-.57-.28-.68-.24-1.57-1.22-1.8-.1-.03-.13-.4-.19-.62.34-.05.59-.08.84-.12-.28-2.45.38-4.77.52-7.12-.37-.14-.94-.16-.67-.73.29-.6.73-.01,1.21.01,1.14-3.88,3.81-6.23,7.76-7.34-.72-.64-.15-1.14-.02-1.67.05-.23.11-.6.27-.66.43-.16.76.03.85.53-.32.4-1.11.63-.6,1.34,1.13-.11,2.21-.21,3.37-.31.04-.47.05-1.09.68-1.36.56.55.62,1.13.01,1.69.5.39.92.73,1.32,0-.14-.26-.4-.52-.41-.78-.01-.25.25-.51.38-.76-.84-.6-1.72-1.23-2.56-1.83-.48.51-.85.91-1.22,1.31-.31-.07-.62-.13-1.03-.21q1.16-1.16.35-1.72c0,.55-.07,1.05-.81,1.07-.1-.37-.2-.73-.3-1.1-2.42-.64-4.51.27-6.69,1.24.23.3.38.51.63.84-.3.12-.67.34-.72.28-.2-.22-.29-.53-.39-.74-.37.23-.81.52-1.26.8Zm-1.36,36.39c-.07-.59-.47-.49-1.05-.32.32.3.57.54.82.77.08-.15.25-.31.23-.45Zm32.96-30.01c-.52.25-.67.62-.4,1.15.13-.38.26-.77.4-1.15Zm-12.58,15.07c.06-.98.12-1.97.18-2.95-.22-3.18-.56-6.32-1.75-9.31-.68-1.69-1.37-3.37-2.5-4.84-1.34-1.72-4.18-2.99-6.35-1.66-.33.2-.73.36-1.11.39-.92.06-1.66.49-2.38.99-1.66,1.15-2.98,2.61-3.72,4.51-.45,1.18-.88,2.37-1.14,3.6-.23,1.11-.24,2.28-.28,3.42-.02.67-.02,1.38.16,2.01.76,2.67,1.5,5.34,3.27,7.6.87,1.11,1.75,2.16,3,2.83,1.24.66,2.6,1.26,3.96,1.12,2.44-.24,4.68-1.14,6.43-2.97,1.27-1.32,2.11-2.87,2.23-4.74Zm5.46-16.84c-1.15-.57-2.52-.7-3.78-1.03-.14.21-.21.36-.32.46-.9.79-.99,1.71-.62,2.81.45,1.31.38,2.65.16,4.01-.16,1.02-.26,2.05-.3,3.07-.06,1.87.56,3.69.39,5.57-.06.63-.14,1.26-.15,1.9-.02,1.66-.84,3.07-1.66,4.38-.96,1.53-2.55,2.46-4.23,3.17-.69.3-1.33.8-2.04.91-1.64.27-3.25.08-4.81-.61s-2.85-1.89-4.56-2.27c-.07-.02-.12-.1-.19-.14-.93-.62-1.86-1.23-2.79-1.85-.53.44-.98.9-1.5,1.24-.47.3-.67.67-.6,1.19.17,1.25.22,2.53.54,3.73.77,2.92,1.59,5.82,3.04,8.5.54,1.01,1.02,2.05,1.57,3.06,1.68,3.11,4.02,5.61,7,7.5,1.64,1.04,3.32,2.03,4.99,3.03.85.5,1.69,1.03,2.59,1.43,2.58,1.12,5.26,2,7.6,3.65,2.26,1.61,4.53,3.2,6.74,4.88.98.75,1.87,1.62,2.91,2.26,1.72,1.07,3.2,2.35,4.23,4.09,1.23,2.07,2.4,4.19,3.6,6.29.25.44.58.86.71,1.34.56,2.04.85,4.13.75,6.26-.02.42.05.88.2,1.28.37.99,1.7,1.29,2.42.53.54-.58,1.03-1.22,1.42-1.9.83-1.45,1.56-2.95,2.36-4.41,1.63-2.99,2.77-6.14,3.29-9.5.14-.86.4-1.73.36-2.58-.07-1.47-.25-2.93-.52-4.37-.53-2.81-1.14-5.6-1.97-8.33-.77-2.51-1.59-4.99-2.39-7.49-.36-1.1-.7-2.2-1.09-3.28-.87-2.43-1.81-4.84-2.63-7.28-.71-2.11-1.17-4.31-1.98-6.37-.99-2.46-2.21-4.83-3.38-7.23-.95-1.97-2.04-3.87-2.93-5.87-1.08-2.42-2.63-4.5-4.22-6.58-.86-1.13-2.12-1.79-3.15-2.7-1.5-1.3-3.35-1.89-5.06-2.75Zm7.87.87c.05.2.4.36.65.49,1.58.78,2.7,2.1,3.68,3.48,1,1.41,1.82,2.96,2.63,4.5,1.3,2.48,2.51,5.02,3.8,7.52,1,1.95,1.51,4.09,2.41,6.08,1.7,3.77,2.85,7.74,4.34,11.59.44,1.14.67,2.36,1.07,3.52.25.75.52,1.52.95,2.16,1.5,2.26,2.18,4.81,2.87,7.37.42,1.56.55,3.2,1.23,4.69.11.25.18.54.2.81.1,1.59.18,3.18.31,5.5-.23,2.33-.55,5.37-.83,8.42-.25,2.88-1.44,5.45-2.59,8.02-.81,1.82-1.65,3.62-2.58,5.38-1.31,2.49-3.5,3.57-6.25,3.62-.3.01-.67-.06-.89-.24-.95-.81-1.86-1.76-1.95-3.03-.18-2.47-.83-4.84-1.3-7.25-.44-2.24-1.46-4.21-3.31-5.74-1.25-1.03-2.5-2.07-3.55-3.36-.86-1.05-2.08-1.81-3.12-2.72-.83-.72-1.7-1.33-2.74-1.77-.93-.39-1.71-1.11-2.56-1.68-.76-.5-1.48-1.07-2.28-1.48-1.2-.63-2.45-1.19-3.71-1.7-1.17-.48-2.4-.8-3.55-1.31-.55-.24-.97-.78-1.49-1.13-.85-.59-1.74-1.11-2.58-1.7-.51-.36-.98-.77-1.45-1.18-1.48-1.29-3.05-2.5-4.39-3.92-1.22-1.3-2.13-2.89-3.26-4.28-2.21-2.7-3.65-5.82-4.91-9.01-.81-2.06-1.45-4.19-2.01-6.33-.34-1.29-.36-2.67-.55-4.01-.04-.29-.17-.59-.34-.84-.88-1.35-1.03-2.72-.25-4.16.41-.74.48-1.51.07-2.29-1.05-1.99-1.5-4.18-1.96-6.36-.29-1.41.02-2.82.38-4.2.93-3.56,2.95-6.38,5.88-8.57.98-.75,1.93-1.54,2.95-2.23,1.45-.98,3.1-1.31,4.83-1.53,3-.36,5.51.69,7.87,2.32.71.49,1.3.76,2.15.29.74-.41,1.57-.37,2.4.02.9.43,1.77.84,2.59,1.44.62.46,1.54.68,2.35.72,1.94.12,3.58,1.01,5.27,1.79.64.3,1.21.75,1.82,1.13.14.08.29.21.42.2.72-.05,1.1.25,1.28.96Zm-13.22,5.62c.38-1.61.23-3.09-.36-4.55-.46.11-.84.19-.88-.43-.04-.59-.39-.44-.86-.3.27.62.51,1.19.76,1.77h.79q-.07,2.61.55,3.51Z"/>
    </g>
    <path class="cls-2" d="m42.83,39.86c.12.13.21.18.22.25.26,1.48.52,2.96.77,4.44.47,2.83,2.11,4.81,4.56,6.18.31.17.63.33.95.48,1.28.56,2.54.62,3.73-.25.74-.54,1.46-1.09,2.2-1.62.11-.08.25-.13.48-.24.03.6-.21.94-.56,1.2-.82.62-1.61,1.32-2.51,1.8-1.01.54-2.13.39-3.19-.03-1.87-.75-3.54-1.85-4.78-3.42-.62-.78-.99-1.81-1.27-2.79-.42-1.48-.7-3-.98-4.52-.09-.48-.14-1.05.38-1.47Z"/>
    <path class="cls-2" d="m46.33,45.24c.66.86,1.18,1.88,2.31,2.21,1.06.31,2.2.7,3.2.04.89-.58,1.63-1.4,2.43-2.11.02.03.1.1.09.15-.21,1.14-1.71,2.76-2.86,2.87-2.07.21-4-.1-5.22-2.08-.16-.26-.2-.61-.29-.92.11-.06.23-.11.34-.17Z"/>
    <path class="cls-2" d="m51.29,44.23c.62-.13,1.02-.29,1.42-.27.86.04,1.32-.44,1.7-1.09.6-1.03,1.21-2.05,1.83-3.07.05-.09.17-.13.39-.3,0,.37.09.66-.01.84-.67,1.17-1.33,2.35-2.11,3.45-.61.86-1.85,1.02-3.22.45Z"/>
    <path class="cls-2" d="m56.9,43.57c1.03,1.45.24,4.15-1.58,5.29.14-.44.14-.77.31-.95,1.01-1.1,1.27-2.41,1.18-3.84,0-.11.04-.22.09-.5Z"/>
    <path class="cls-2" d="m46.56,41.02c.27.54.45,1.16.82,1.61.36.44.91.72,1.44,1.12-.15.11-.29.32-.42.31-1.29-.08-2.34-1.64-1.83-3.04Z"/>
    <path class="cls-2" d="m48.4,38.28c.55,1.29,1.78,1.56,2.94,2.01-.7.48-1.51.36-2.36-.26-.94-.68-.95-.72-.58-1.75Z"/>
    <path class="cls-2" d="m44.25,36.14c.57.79.06,1.74.56,2.57-.24.03-.45.12-.51.06-.55-.55-.58-1.82-.05-2.64Z"/>
    <path class="cls-2" d="m51.72,46.1c-.42.76-.93,1.09-1.47.96-.35-.08-.56-.29-.36-.7.59-.08,1.18-.17,1.82-.26Z"/>
    <path class="cls-2" d="m35.65,30.51c.18-.08.48-.26.52-.21.55.61,1.24.17,1.57-.05.71-.47,1.07-.19,1.42.28,1.15-.25.76-1.17.9-2.03.41.17.73.31,1.22.51-.38.46-.65.77-.92,1.1.07.13.16.31.24.47-.42.34-.81.65-1.27,1.02-.43-.26-.88-.54-1.38-.85-.2.28-.37.53-.63.88h1.17c-.13,1.11-.22,1.18-1.65,1.06.03-.44.06-.89.09-1.45-.33.11-.6.2-.97.33-.09-.37-.18-.73-.27-1.1,0,0-.04.04-.04.04Z"/>
    <path class="cls-2" d="m36.45,38.53c-.04-.24-.03-.46-.12-.62-.19-.32-.52-.57-.64-.9-.1-.28.42-.58.07-.98-.08-.09-.02-.47.08-.54.51-.32.43-.77.39-1.25-.01-.13.18-.32.32-.4.06-.03.29.11.35.22.4.73.83,1.44,1.13,2.21.16.42.08.94.05,1.41-.01.14-.25.29-.41.37-.35.17-.72.29-1.21.47Zm-.19-2.03c.08.2.1.37.2.48.13.16.3.27.46.4.14-.2.37-.38.39-.59.03-.35-.08-.71-.15-1.28-.38.42-.61.67-.89.99Z"/>
    <path class="cls-2" d="m39.43,26.78c.34-.4.72-.41,1.15-.15-.36.75-.77,1.45-1.03,2.21-.23.65-.48.87-1.09.43-.1-.07-.33.02-.44-.05-.17-.11-.37-.27-.43-.45-.04-.12.15-.42.26-.43.18-.02.39.1.57.2.11.06.18.19.36.38.13-.28.28-.45.25-.59-.09-.5-.06-.91.48-1.15.03-.01-.05-.28-.07-.43,0,0-.01.03-.01.03Z"/>
    <path class="cls-2" d="m41.43,30.84c.06.13.27.5.25.52-.57.39-.6,1.46-1.69,1.29-.03.53-.06,1.06-.09,1.62-.14.01-.35.1-.43.03-.18-.16-.31-.39-.45-.59.8-.22-.67-1.25.57-1.46.61-.1,1.11-.82,1.85-1.41Z"/>
    <path class="cls-2" d="m45.61,27.67q-.06.92-.88.61c-.54-.21-.89,0-.97.57-.05.36-.11.73-.17,1.09,0,.02-.07.02-.17.06-.5-.3-.46-.92-.75-1.38.79-.49,1.43-1.15,2.38-1.25l-.03.04c.2.09.41.19.61.28l-.02-.02Z"/>
    <path class="cls-2" d="m39.12,40.41c-.16.21-.26.37-.39.51-.45.48-.51.84-.34,1.43.06.22.03.54-.1.7-.08.1-.52.08-.63-.05-.14-.16-.19-.48-.15-.71.08-.58.31-1.15.34-1.73.03-.58.39-.64.78-.61.16,0,.3.27.49.46Z"/>
    <path class="cls-2" d="m47.74,26.37c-.25.26-.43.45-.65.68-.68-.46-1.02-1.37-2.03-1.26q.54-.89,2.68.57Z"/>
    <path class="cls-2" d="m50.31,25.41c.38-.1.67-.02.88.36.33.61.17,1-.51,1.06-.34.03-.69-.03-1.04-.05-.11-.23-.21-.44-.31-.65.32-.24.65-.48.97-.72Z"/>
    <path class="cls-2" d="m35.94,44.94c-.2-.23-.49-.42-.48-.59.02-.5.13-1,.28-1.48.04-.14.37-.28.55-.26.32.03.47.28.34.61-.19.49-.39.98-.69,1.72Z"/>
    <path class="cls-2" d="m37.05,41.09c-.44-.36-.84-.66-1.19-1-.1-.1-.12-.4-.04-.51.07-.1.36-.12.5-.06.23.09.4.32.63.41.83.32.85.42.09,1.17Z"/>
    <path class="cls-2" d="m37.49,46.71c-.32-.25-.73-.44-.93-.76-.14-.22-.12-.71.03-.92.19-.26.57-.19.78.16.16.27.35.52.46.8.14.33.07.62-.34.72Z"/>
    <path class="cls-2" d="m47.22,23.79c.32,0,1.06,1.13.94,1.43-.01.04-.03.09-.06.1-.21.07-.55.23-.6.16-.31-.37-.58-.78-.79-1.21-.04-.07.25-.31.4-.47.02-.02.08-.01.11-.01Z"/>
    <path class="cls-2" d="m43.73,26.29c-.25-.29-.42-.5-.63-.75.2-.37.38-.7.56-1.03.87.39.89.54.07,1.78Z"/>
    <path class="cls-2" d="m45.63,27.69c-.13-.34-.29-.7.16-.91.37-.17.56.06.72.38.1.19.29.34.41.48-.49.98-.88-.12-1.32.03,0,0,.02.02.02.02Z"/>
    <path class="cls-2" d="m36.01,34.18c-.55.25-.36,1.09-1.14,1.02-.47-.65.14-1.06.24-1.8.4.34.61.53.9.78Z"/>
    <path class="cls-2" d="m41.46,28.95q.99-.2,1.26.61-.87.4-1.26-.61Z"/>
    <path class="cls-2" d="m37.52,38.31c.35.31.6.43.65.6.06.22-.01.5-.07.74-.01.06-.27.13-.29.1-.15-.2-.32-.4-.39-.63-.05-.16.04-.36.11-.8Z"/>
    <path class="cls-2" d="m45.05,27.37c-.31-.14-.62-.29-.95-.44.06-.54.25-.83.77-.64.41.15.34.46.18.78-.05.09-.03.22-.04.34,0,0,.03-.04.03-.04Z"/>
    <path class="cls-2" d="m42.93,27.94c-.33.21-.54.35-.74.48-.12-.21-.32-.42-.33-.64,0-.14.32-.43.4-.4.22.08.38.3.67.56Z"/>
    <path class="cls-2" d="m38.12,33.69c.47.37.78.63.52,1.07-.06.11-.46.16-.58.07-.46-.32-.19-.65.06-1.14Z"/>
    <path class="cls-2" d="m35.87,38.45c-.23.45-.54.67-.91.29-.13-.13-.14-.6-.04-.68.39-.3.71-.08.95.39Z"/>
    <path class="cls-2" d="m37.28,43.62c.26.12.52.24,1,.46-.35.27-.57.43-.78.59-.15-.27-.3-.55-.46-.82.08-.08.16-.16.24-.23Z"/>
    <path class="cls-2" d="m35.41,32.93c.16-.25.32-.5.48-.76.16.15.43.28.45.45.09.56-.37.43-.64.54-.1-.08-.19-.16-.29-.24Z"/>
    <path class="cls-2" d="m39.18,37.4c-.62-.21-.7-.55-.45-.94.07-.11.39-.19.48-.12.44.33.15.66-.03,1.06Z"/>
    <path class="cls-2" d="m34.9,40.97c.17-.21.34-.41.51-.62.17.18.33.36.5.54-.23.13-.47.27-.7.4-.1-.11-.2-.22-.31-.33Z"/>
    <path class="cls-2" d="m41.37,27.39c-.08.54-.14.95-.7.84-.1-.02-.2-.31-.19-.47.05-.56.44-.38.89-.37Z"/>
    <path class="cls-2" d="m43.42,26.64c-.26.19-.43.4-.6.4-.12,0-.25-.28-.38-.43.17-.12.33-.31.51-.35.1-.02.26.2.47.38Z"/>
    <path class="cls-2" d="m34.66,41.51c.68.29.7.61.34,1.1-.58-.22-.58-.57-.34-1.1Z"/>
    <path class="cls-2" d="m34.81,40.06c-.21-.07-.54-.09-.6-.23-.1-.21-.01-.51,0-.77.1-.02.19-.05.29-.07l.5.77c-.06.1-.12.2-.18.3Z"/>
    <path class="cls-2" d="m46.01,24.62c-.18-.17-.42-.34-.4-.4.07-.18.23-.41.39-.44.14-.02.32.2.48.31-.14.15-.28.31-.47.52Z"/>
    <path class="cls-2" d="m35.12,37.06c-.2.23-.33.39-.47.54-.15-.13-.41-.26-.41-.39,0-.18.19-.37.3-.55.16.11.32.22.57.39Z"/>
    <path class="cls-2" d="m36.28,41.24c.35.23.61.4.91.6-.8.48-.85.45-.91-.6Z"/>
    <path class="cls-2" d="m39.11,39.61c-.48-.26-.61-.53-.39-.99.66.13.73.43.39.99Z"/>
    <path class="cls-2" d="m39.99,48.29c.16.19.31.38.57.68-.29.06-.58.17-.6.13-.13-.22-.19-.48-.27-.73.1-.03.21-.05.31-.08Z"/>
    <path class="cls-2" d="m52.83,25.8c-.31.04-.61.07-.92.11-.02-.65.17-.86.5-.64.18.12.27.36.41.54,0,0,.02-.02.02-.02Z"/>
  </g>
</svg>