<svg width="182" height="182" fill="none" xmlns="http://www.w3.org/2000/svg"><path fill="#E0E1E3" d="M0 0h181.417v181.417H0z"/><path d="M134.381 62.292c.338-.12.62-.172.62-.23.005-.406-.047-.807-.078-1.213-.084.005-.162.005-.24.01-.089.407-.172.818-.302 1.433Zm-22.912 6.604c.516-.209.99-.443 1.49-.594.406-.12.599-.339.557-.745-.052-.437-.338-.594-.739-.547-.755.089-1.511.162-2.25.308-.448.083-.599.797-.219 1.062.344.235.771.35 1.161.516Zm-.312-4.839c-.005.042-.016.078-.026.12-.141 0-.281 0-.427-.005-.459-.016-.865.036-.87.635-.005.6.396.636.859.656.433.027.865.146 1.292.22.385.067.776.202 1.151.166.234-.016.609-.292.62-.469.016-.25-.193-.666-.406-.745-.709-.255-1.459-.395-2.193-.578Zm20.615-9.276c-.079.021-.157.047-.235.068-.026.255-.015.51-.083.755-.36 1.302-.703 2.615-1.115 3.901-.297.927-.719 1.813-1.015 2.735-.047.15.229.583.39.599.735.088 1.485-.51 1.63-1.297.183-1 .23-2.026.464-3.016.229-.969.339-1.932.24-2.917-.026-.286-.178-.552-.276-.828Zm1.317-1.802-.161.078c-.005.115-.026.235-.021.35.094 1.135.193 2.265.281 3.395.136 1.693-.172 3.323-.604 4.943-.052.213.109.479.167.724.224-.1.552-.136.646-.302.348-.641.661-1.308.911-1.995.156-.422.245-.89.24-1.333-.016-.641-.125-1.282-.224-1.917-.131-.813-.24-1.636-.469-2.422-.151-.536-.505-1.016-.766-1.52Zm-7.562 10.255c1.364.328 2.281-.135 2.724-1.338.047-.13.13-.245.177-.375.416-1.203.823-2.406 1.245-3.61.125-.37.281-.734.468-1.213-.005-.031-.052-.24-.047-.453.037-1.615.188-3.24.073-4.85-.047-.681-.656-1.322-1.01-1.984a2.878 2.878 0 0 1-.224.084c.026.364.073.724.078 1.083.011 1.5.083 3.005 0 4.5-.073 1.287-.297 2.573-.5 3.85-.172 1.036-.354 2.04-1.51 2.588-.672.312-1.391.791-1.474 1.718Zm-4.521-24.89c.526.354 1.052.604 1.432.99.677.682 1.255 1.452 1.891 2.176.724.839 1.562 1.594 2.172 2.51.604.902.958 1.97 1.468 2.938.162.308.433.61.73.782.52.296 1.01.994 1.005 1.599-.005.166.057.338.088.505l.214-.016c.01-.234.078-.484.031-.708-.094-.469-.385-.932-.354-1.38.083-1.209-.344-2.235-.932-3.214-.927-1.547-2.183-2.828-3.558-3.984-.52-.443-1.109-.808-1.651-1.24-.734-.588-1.588-.797-2.536-.958Zm3.656 4.968c-.083.047-.172.094-.26.141.422 1.005.916 1.984 1.25 3.016.328 1.041.468 2.14.75 3.203.38 1.463.495 2.818.208 3.229a27.321 27.321 0 0 0-.328-.677c-.182.37-.375.64-.443.943-.349 1.494-.599 3.02-1.015 4.5-.37 1.297-1.11 2.4-2.099 3.354-.532.51-.881 1.208-1.334 1.854.485.182.797.38 1.12.406.344.021.886-.01 1.011-.218.645-1.053 1.182-2.172 1.75-3.277.072-.14.088-.312.125-.474.088.084.177.167.26.25.266 1.547-1.255 2.428-1.552 3.87.458-.328.828-.567 1.167-.854.718-.61 1.161-1.411 1.562-2.245.208-.432.516-.812.698-1.25.625-1.5.338-3.125.552-4.682.193-1.396-.219-2.813.104-4.23.089-.4-.114-1.015-.406-1.332-.714-.792-1.068-1.704-1.245-2.714-.015-.094-.057-.24-.114-.25-.73-.188-.99-.734-1.183-1.396-.114-.411-.38-.781-.578-1.166Zm.464 69.839c-.417.281-.761.469-1.063.714-1.036.849-2.068 1.698-3.364 2.135-.36.12-.594.323-.542.771.12.995.203 1.989.292 2.984.099 1.183.187 2.37.291 3.552.183 2.131.412 4.261.542 6.396.083 1.365.125 2.745-.016 4.099-.156 1.552-.411 3.12-.875 4.604-.213.688-.718 1.521-1.776 1.516a30.417 30.417 0 0 0-3.151.146 4.034 4.034 0 0 0-1.479.474c-.536.297-.463.833.078 1.13.891.489 1.828.75 2.854.651.417-.037.672.156.703.594.027.422-.067.75-.557.817-.666.089-1.338.151-1.989.297-.344.078-.662.302-.99.459.224.359.411.75.688 1.067.151.172.442.25.687.297.609.12 1.234.162 1.839.307.224.053.401.303.599.464-.193.167-.36.422-.584.484-.416.115-.89.052-1.302.177a9.105 9.105 0 0 0-1.745.756c-.515.297-.63.896-.411 1.359.13.281.651.5 1.015.537.516.046 1.053-.099 1.584-.167.916-.12 1.828-.313 2.75-.36 1.224-.057 2.458-.083 3.677.006 1.588.114 2.354-.688 2.641-2.167.276-1.427.369-2.901.432-4.359.052-1.099-.084-2.198-.12-3.297a812.499 812.499 0 0 1-.141-4.927c-.052-2.276-.088-4.558-.145-6.834-.032-1.338-.094-2.672-.136-4.005-.099-2.885-.198-5.765-.281-8.651-.021-.63-.005-1.266-.005-2.026Zm-22.948 25.672c.047.042.099.083.146.125-.417.177-.823.484-1.245.51-1.505.105-3.026.23-4.521.115-.787-.057-.932.365-1.104.823-.193.51.234 1.13.833 1.203.839.104 1.688.062 2.521.177.385.052.807.266 1.078.542.297.291-.224.974-.755.984-.896.021-1.797-.036-2.688.031-.218.016-.604.407-.583.573.042.25.354.62.589.651.922.115 1.864.115 2.797.177.27.016.609.011.796.162.219.182.349.51.427.797.037.135-.125.453-.234.474-.812.135-1.646.364-2.437.281-1.073-.115-1.865.156-2.37 1.156-.474.948-.057 1.87.984 2.068a8.515 8.515 0 0 0 1.807.141c2.219-.063 4.448.203 6.662-.261 1.677-.354 2.37-1.193 2.536-2.604.157-1.297.256-2.604.287-3.912.12-4.484.219-8.973.281-13.458.021-1.5-.047-3.005-.141-4.5-.114-1.974-.296-3.943-.458-5.974-1.302 0-2.583-.021-3.864.011-.667.015-1.105.375-1.172 1.088-.052.511-.136 1.016-.157 1.526-.062 1.568-.099 3.141-.151 4.714-.005.135-.047.276-.052.411-.005.625-.036 1.255-.005 1.88.031.605.151 1.209.188 1.818.067 1.031.072 2.068.151 3.094.062.828.239 1.651.27 2.479.026.625-.078 1.255-.161 1.875-.036.281-.172.547-.255.823Zm9.661-57.516c1.406 2.136 1.589 4.605.839 7.136-.104.338-.281.713-.542.937-1.427 1.25-2.906 2.453-4.344 3.698-.755.656-1.552 1.302-2.177 2.084-.729.91-1.203 2.03-1.937 2.937-1.156 1.422-1.354 3.042-1.188 4.745.073.687.245 1.432.584 2.026.838 1.479 2.385 1.969 3.885 2.474.401.135.854.281 1.255.229.703-.083 1.375-.412 2.078-.474 1.521-.141 2.896-.703 4.276-1.271.448-.182.98-.255 1.334-.542a23.415 23.415 0 0 0 2.427-2.286c.39-.422.62-1 .875-1.531.224-.453.333-.969.594-1.396.145-.24.468-.458.744-.5.36-.052.651.125.625.615-.036.708.131 1.458-.047 2.125-.265.963-.479 2.02-1.52 2.583-.276.151-.464.458-.688.698-.448.474-.854.989-1.344 1.411-.312.276-.724.469-1.119.615a114.33 114.33 0 0 1-3.495 1.208c-.422.141-.865.25-1.302.36-.24.062-.49.114-.74.156-.271.047-.542.099-.818.114-.307.016-.619-.01-.932-.005-.807.011-1.609.031-2.417.037-.942.005-1.89-.016-2.833 0-.135 0-.271.14-.26.135-.552-.224-.985-.422-1.438-.578-1.323-.458-2.666-.859-3.979-1.354-.917-.344-1.818-.651-2.896-.396.084.213.146.401.224.583.37.854 1.224 1.089 1.953 1.422.589.266.792.615.693 1.188-.104.593-.672 1.073-1.23 1.036-.317-.021-.63-.125-.947-.182-.719-.13-1.48-.516-2.078.229-.167.203-.339.542-.276.755.062.224.38.485.62.526.843.136 1.703.365 2.557.011.104-.042.255-.016.375.005.443.088.906.146 1.323.307.255.099.599.349.62.557.015.214-.26.552-.495.677-1.047.553-2.219.386-3.292.245-.875-.12-1.23.167-1.552.797.912.886 2.073 1.021 3.203 1.245.6.12 1.188.344 1.797.401.547.047 1.11-.099 1.661-.109 1.089-.021 2.183.02 3.271-.021.599-.021 1.188-.162 1.782-.255.911-.146 1.817-.313 2.729-.428.286-.036.599.141.89.115 1.417-.115 2.834-.297 4.25-.401 2.344-.167 4.506-.87 6.48-2.135.901-.579 1.927-1.011 2.442-2.058.031-.067.167-.078.235-.135 1.073-.88 2.234-1.677 3.182-2.677.917-.959 1.505-2.156 2.005-3.427.698-1.766.589-3.443.052-5.162-.26-.828-.63-1.625-.937-2.443-.188-.489-.24-1.072-.537-1.468-.88-1.167-1.854-2.266-2.791-3.39-1.073-1.287-2.615-2.027-3.646-3.423-1.308-1.765-1.985-3.62-2-5.781-.016-1.458.26-2.844.922-4.135.666-1.313 1.286-2.667 2.479-3.62.416-.328.906-.568 1.312-.912 1.235-1.041 1.552-2.515 1.792-4.005.12-.729-.042-1.562.25-2.203.458-.984.448-1.969.469-2.984.015-.5-.203-.766-.709-.73-.323.021-.64.084-.963.126-.464.052-.927.166-1.386.135a17.42 17.42 0 0 1-2.27-.281c-.542-.105-.98-.282-1.084-1.032-.14-1.026.537-1.567 1.042-2.187.989-1.23 2.12-2.344 3.088-3.583.761-.974 1.131-2.136 1.386-3.365.302-1.48.76-2.927.609-4.464-.036-.37-.125-.734-.13-1.104-.031-1.422-.578-2.713-1.182-3.937-.651-1.318-1.584-2.495-2.37-3.75-.87-1.401-2.047-2.35-3.677-2.771-.943-.25-1.839-.693-2.792-.922-.693-.172-1.453-.25-2.156-.161-.76.099-1.521.37-2.219.698-.818.38-1.745.755-2.307 1.411a4.95 4.95 0 0 1-1.641 1.292c-.234.12-.526.302-.614.526-.573 1.495-1.011 3.026-1.016 4.646-.005.755-.042 1.51-.042 2.265 0 .834.042 1.667.032 2.505-.011.72-.011 1.453-.131 2.162-.187 1.062-.479 2.104-.708 3.161-.031.125.021.386.078.401.662.151 1.349.433 1.995.36.724-.078 1.401-.537 2.13-.714.297-.068.86.073.969.287.339.682.677 1.432.74 2.182.088 1.088-.073 2.203-.099 3.307-.006.271.104.552.145.73.464-.037.855-.172 1.162-.068.906.312 1.76.765 2.667 1.078 1 .343 1.114 1.187 1.244 2.02.068.433.032.897.006 1.34-.063 1.27-1.188 2.681-2.365 2.77-.906.063-1.297.76-1.526 1.297-.573 1.333-.969 2.766-1.281 4.193-.203.942-.209 1.994.401 2.823.635.864 1.521 1.494 2.63 1.62.698.083 1.417.03 2.13.02.401-.01.87-.088.958.422.027.146-.395.52-.619.531-1.125.057-2.256.026-3.412.026Zm25.224-16.432c-.484-.11-.833-.255-1.182-.255-1.162.005-2.323-.125-3.479.255-.662.213-1.323.505-2.13.338-.777-.156-1.625.011-2.433.11-.172.02-.422.344-.432.542-.026.458.057.927.12 1.385.271 1.87.052 3.682-.646 5.443-.177.442-.323.9-.49 1.349-.234.635-.635 1.104-1.13 1.599-.969.968-2.364 1.375-3.172 2.52-.37.526-.724 1.073-1.083 1.61-.037.057-.063.125-.109.177-1.094 1.245-1.167 2.849-1.396 4.349-.261 1.745.229 3.27 1.744 4.448 1.141.885 2.318 1.781 3.073 3.093.24.422.688.797 1.131 1.021 1.244.625 1.734 1.829 2.296 2.943.495.98 1.073 2.042 1.125 3.089.079 1.583.584 3.047.782 4.583.073.547.198 1.089.276 1.641.198 1.359-.709 2.296-1.318 3.338-.375.63-.838 1.203-1.255 1.807-.188.276-.313.521-.037.87.063.084-.317.516-.64.709 0 1.77-.063 3.541.021 5.302.057 1.151.338 2.291.5 3.432.166 1.198.27 2.401.479 3.588.474 2.73.192 5.48.276 8.224.041 1.474.109 2.954.135 4.428.042 2.104-.114 3.348-.208 5.562-.188.807-.109 2.229-.089 3.047.021.943-.453 2.193-.739 3.052-.469 1.38-2.042 1.885-3.396 2.328-1.958.636-3.953.469-5.964.318-.994-.078-2.015-.016-3.01.114-1.563.209-2.417-1.145-2.083-2.651.125-.578.547-1.093.776-1.52-.287-.506-.766-.99-.802-1.5-.068-.912-.344-1.938.468-2.73-.781-.979-.869-2.468-.208-3.547.469-.765 1.031-.77 2.344-.635 1.354.141 2.745-.146 3.75-1.177.255-.26.062-.969.062-1.474.005-1.453 0-2.901.005-4.349 0-.208.042-.422.042-.63 0-1.604-.015-3.208.005-4.813.016-.864.177-1.734.12-2.588-.146-2.104-.38-4.203-.573-6.276-1.646.448-3.151.875-4.666 1.255-.401.099-.881.156-1.256.031-.812-.271-1.484.047-2.192.302a.895.895 0 0 1-.521.052c-.641-.171-.823-.057-.828.599-.006 2.266-.037 4.532.01 6.792.052 2.578.219 5.151.261 7.729.046 3.073.041 6.146 0 9.219a61.629 61.629 0 0 1-.292 4.969c-.083.833-.568 1.536-1.406 1.802-.938.302-1.943.401-2.865.739-.807.292-1.583.021-2.365.12-.645.078-1.281.219-1.927.24-.791.031-1.588 0-2.375-.084-.453-.046-.859.334-1.359 0-.396-.26-.932-.338-1.417-.432-.567-.109-1.187-.786-1.28-1.344-.095-.578-.303-1.135-.48-1.781.11-.094.297-.266.5-.417.547-.411.661-1.046.437-1.692-.171-.49-.208-1.032-.302-1.552-.114-.61-.145-1.25-.354-1.823-.536-1.474.016-3.511 1.328-4.292.328-.193.839-.104 1.266-.115.755-.015 1.51-.005 2.27-.015.147 0 .303-.057.454-.047 1.146.073 1.708-.344 1.672-1.474-.073-1.953-.287-3.901-.386-5.859-.047-.849.037-1.703.068-2.558.005-.234.047-.463.047-.698.005-1.885-.021-3.776.021-5.661.015-.661.192-1.318.333-2.193-.854-.021-1.635-.015-2.411-.073-.355-.02-.698-.198-1.052-.26-.959-.162-1.954-.214-2.886-.474-.77-.219-1.484-.661-2.203-1.036-.14-.073-.245-.287-.281-.454-.255-1.119-.193-2.198.562-3.119-.817-1.193-.573-3.365.521-4.563.24-.266.333-.448.214-.844-.328-1.047-.35-2.161.729-2.739.578-.308 1.4-.224 2.114-.198.756.021 1.532.109 2.266.302.698.187 1.349.547 2.026.828.25.104.505.198.927.365-.068-.381-.094-.631-.161-.87-.183-.662-.49-1.307-.552-1.979-.198-2.068.182-4.063.875-6.021.541-1.526 1.114-3.01 2.401-4.078 1.39-1.156 2.838-2.25 4.198-3.448 1.114-.974 2.411-1.87 2.989-3.26.339-.808.287-1.834.208-2.745-.078-.855-.401-1.698-.682-2.521-.094-.271-.37-.521-.625-.698-2.073-1.412-3.135-3.896-2.411-6.255.411-1.329 1.146-2.568 1.802-3.808.39-.74.411-1.25-.276-1.687-.578-.36-.542-.781-.276-1.23.349-.593.088-.989-.141-1.562-.38-.979-.818-1.969-.677-3.146.151-1.286-.016-2.609-.063-3.916-.005-.1-.161-.271-.265-.282-.797-.104-1.604-.286-2.375.115-.479.245-.932.292-1.432.02-.417-.223-.943-.28-1.308-.567-.656-.51-.474-1.292-.338-1.963.265-1.323.776-2.61.922-3.938.187-1.682.067-3.396.161-5.088.063-1.13.266-2.25.427-3.375.12-.865.266-1.735.422-2.594.042-.219.109-.464.24-.636.38-.5.536-1.088.776-1.65.948-2.209 2.297-4.199 4.755-4.834 1.588-.406 3.276-.661 4.979-.313.615.13 1.276-.015 1.911.042.995.094 1.985.26 2.974.39.141.022.323.053.412-.02.547-.417.859-.036 1.25.281.401.334.859.61 1.312.87 1.266.734 2.547 1.443 3.818 2.167.099.057.224.156.245.25.177.9 1.016 1.177 1.578 1.713 1.25 1.182 2.141 2.61 2.911 4.13.318.625.74 1.193 1.125 1.782.803 1.234 1.37 2.541 1.672 4.01.308 1.474.995 2.865 1.323 4.339.422 1.932.651 3.911.974 5.875.084.52.224 1.036.276 1.562.089.886.125 1.776.198 2.922Zm-70.802 5.453c0-.02.005-.041.005-.062.308 0 .646.083.912-.021.245-.1.568-.386.573-.6.005-.213-.302-.572-.532-.63-.666-.166-1.359-.234-2.046-.296-.422-.042-.865-.078-1.266.02-.208.053-.453.396-.469.626-.02.187.24.547.427.588.787.177 1.594.255 2.396.375Zm-.864-4.318c-.386.047-.88.068-1.344.188-.432.115-.797.411-.63.917.083.26.385.64.583.64a49.876 49.876 0 0 0 4.042-.213c.166-.01.416-.386.421-.6 0-.208-.229-.577-.411-.609-.844-.156-1.708-.218-2.662-.323Zm12.02 53.985c-.833.271-1.567.526-2.307.755-1.234.375-1.203.37-1.24 1.62-.062 1.87.188 3.745-.255 5.604-.224.943-.302 1.943-.286 2.911.036 2.579-.156 5.151.229 7.735.234 1.562.146 3.182.172 4.776.016 1.359.198 2.672.729 3.937.474 1.131 1.068 2.203 2.417 2.318 1.682.146 3.38.156 5.078.146.906-.005 1.818-.151 2.719-.261 1.005-.125 1.932-.395 2.437-1.651-.661.141-1.26.162-1.755.396-.854.412-1.625.183-2.328-.229-.245-.141-.328-.687-.334-1.052 0-.234.235-.63.438-.682.667-.172 1.385-.162 2.052-.339.474-.125.917-.406 1.333-.682.13-.089.198-.427.13-.573-.052-.115-.354-.141-.552-.156-.77-.068-1.661.354-2.208-.542-.182-.292-.396-.687-.328-.974.057-.245.48-.516.776-.568.734-.119 1.49-.093 2.24-.171.458-.053.953-.188 1.005-.75.042-.396-.995-1.323-1.422-1.282-.453.047-.885.229-1.333.339-1.12.276-2.24.547-3.365.807-.115.031-.27-.016-.385-.068-.313-.14-.594-.401-.917-.442-1.146-.157-1.469-.959-1.599-1.922-.203-1.469-.422-2.938-.573-4.412-.219-2.177-.458-4.359-.542-6.541-.093-2.381-.026-4.766-.026-7.151v-.896Zm-7.463 28.062c-.505-.052-1-.208-1.448-.125-.964.183-1.854.224-2.6-.536-.103-.104-.223-.266-.213-.396.032-.448.756-1.089 1.214-1.141.297-.036.656-.015.87-.171.219-.162.411-.511.406-.777-.005-.208-.313-.562-.51-.583a6.758 6.758 0 0 0-1.745.078c-.386.063-.563-.041-.672-.375-.1-.307-.219-.604.182-.828.594-.333 1.193-.568 1.896-.469.323.047.672.032.984-.041.443-.104.875-.302.74-.891-.135-.573-.61-.489-1.026-.474-.839.037-1.693.198-2.516.099-.573-.068-1.291-.338-1.62-.766-.624-.828-.91-1.848-.921-2.927-.037-4.849-.089-9.698-.136-14.546 0-.047.021-.11-.005-.141-.172-.234-.307-.578-.542-.667-.484-.177-1.02-.213-1.536-.307-.73-.13-1.484-.188-2.188-.406-.697-.214-1.338-.594-2.099-.943-.052.771-.14 1.437-.135 2.104.005.802.125 1.604.12 2.406-.005 1.151-.115 2.302-.125 3.454-.021 2.078-.005 4.156-.01 6.234 0 .594 0 1.187-.021 1.776-.026.677-.141 1.359-.1 2.031.157 2.417.344 4.834.558 7.245.083.969.114 1.995.86 2.755.79.813 1.64 1.578 2.9 1.516.86-.037 1.724-.104 2.589-.136.708-.02 1.427 0 2.14 0 .474 0 .948-.036 1.422 0 1.12.094 2.839-.901 3.287-2.052ZM68.397 64.5c-.214-1.578-.459-3.02-.594-4.469a4.336 4.336 0 0 1 .224-1.786c.203-.578.672-.943 1.37-1.021 1.109-.12 2.187-.36 3.177-.948.37-.219.427-.443.297-.766-.162-.416-.407-.796-.537-1.218-.292-.948-.443-1.959-.838-2.86-.235-.531-.407-1.026-.495-1.61-.209-1.385-.537-2.75-.802-4.13-.058-.296.03-.64-.089-.9-.328-.72-.995-.443-1.531-.391-1.156.115-2.307.302-3.464.448-.437.052-.885.042-1.328.099-1.354.172-2.708.49-4.062.505-1.375.01-2.474.62-3.521 1.287-.6.385-1.162 1.109-1.344 1.786-.219.828-.469 1.667-.588 2.547-.22 1.625.14 3.146.359 4.693.193 1.364.61 2.661-.12 4.02-.542 1.006-1.208 1.714-2.39 1.85-.146.015-.391.098-.407.187-.15.849-.333 1.703-.36 2.557-.02.578.235 1.162.277 1.75.073.964.005 1.938.125 2.89.203 1.678.76 3.267 1.463 4.798.313.682.506 1.495 1.006 2 1.12 1.135 1.645 2.65 2.75 3.812.958 1.005 1.52 2.396 2.224 3.636.265.479.52.984.65 1.51.24.984.34 2.01.594 2.99.24.911.047 1.744-.229 2.583-.182.563-.5 1.088-.62 1.661-.302 1.485-.838 2.813-1.937 3.907-.667.661-1.27 1.39-1.849 2.13-.25.318-.323.76-.557 1.088-.625.901-1.328 1.745-1.933 2.657-1.177 1.781-1.614 3.812-1.49 5.89.115 1.907.574 3.787.798 5.688.255 2.172 1.75 3.422 3.349 4.536.922.641 2.057.964 3.052 1.5 1 .532 2.073.292 3.104.344.4.021.73.047 1.068.234.156.089.317.235.479.24 1.708.062 3.448.297 5.12.068 1.177-.162 2.338-.323 3.526-.344.297-.005.593-.073.885-.135 2.438-.485 4.677-1.73 7.214-1.875 1.432-.084 2.854-.355 4.276-.532.875-.104 1.76-.156 2.625-.307.213-.036.52-.359.53-.568.017-.218-.218-.536-.437-.672a3.894 3.894 0 0 0-2.375-.609c-.218.016-.583-.25-.64-.453-.052-.188.177-.505.364-.688.151-.145.412-.203.636-.239.755-.11 1.526-.146 2.265-.313.25-.057.563-.385.61-.635.031-.167-.344-.563-.568-.589-.52-.057-1.063.078-1.594.078-.463-.005-.932-.031-1.37-.151-.171-.052-.343-.38-.364-.593-.016-.188.15-.521.297-.563a14.691 14.691 0 0 1 2.01-.39c.537-.063 1.287-.589 1.344-1.037.068-.479-.417-1.12-1.078-1.141-.797-.026-1.703-.041-2.375.308-1.125.583-2.328 1.062-3.375 1.724-1.23.781-2.589 1.182-3.865 1.797-.963.468-2.166.427-3.187.817-1.276.495-2.662-.099-3.89.532-.058.031-.147.02-.214.005-.76-.167-1.547-.266-2.271-.531-1.047-.375-2.058-.86-3.073-1.313-.693-.307-1.443-.542-2.042-.984-1.161-.865-2.026-2.006-2.672-3.328-.703-1.438-.89-2.803.162-4.193.317.286.588.734.942.807.553.115.532.474.605.839.224 1.078.328 2.218 1.203 2.724 0 .401-.1.739.015.859.375.38.813.703 1.256 1.01 1.78 1.235 3.609 2.329 5.921 2 .792-.114 1.605-.088 2.38-.244.949-.188 1.88-.464 2.787-.776.25-.089.557-.438.573-.688.042-.646-.042-1.302-.12-1.948-.099-.922-.172-1.854-.38-2.75-.365-1.526-.974-2.922-1.844-4.276-1.687-2.64-4.041-4.599-6.302-6.651-.625-.563-.932-1.14-1.099-1.901-.307-1.412-.578-2.833-.995-4.219-.416-1.416-.312-2.786.412-4.005.531-.896 1.307-1.677 2.083-2.396 1.151-1.067 2.104-2.177 1.755-3.885-.197-.943-.296-1.964-.75-2.776-.552-.985-1.307-1.834-1.078-3.037-1.099-.328-2.224.021-3.208-.52-.36-.193-.75-.344-1.078-.584-.365-.276-.688-.615-1.005-.948-.365-.375-.61-.765-.401-1.354.088-.24-.021-.614-.162-.86-.328-.583-.213-1.072.25-1.473.542-.464 1.281-.771 1.672-1.334.547-.796 1.25-.677 1.969-.656.906.026 1.812.104 2.844.172Zm9.291 45.854c.98-.411 2.021-.859 3.068-1.297.297-.125.64-.177.89-.359.954-.677 1.933-1.12 3.157-1.276.896-.12 1.791-.177 2.682-.188.469 0 .964.151 1.39.349.766.339 1.032 1.146.709 1.912-.333.797-.604 1.552-.02 2.411.557.818.26 1.615-.303 2.11.464.677.901 1.239 1.235 1.859.104.198-.063.552-.136.823-.036.125-.177.219-.219.344-.385 1.281-1.291 1.484-2.53 1.536-2.225.083-4.438.417-6.652.656-.734.079-1.469.183-2.328.287.062 1.375.15 2.703.187 4.031.032 1.063.053 2.125.006 3.188-.11 2.255.25 4.453.708 6.645.161.787.36 1.563.536 2.349a.595.595 0 0 1 .016.271c-.474 2.172 1.396 3.026 3 2.735 1.568-.282 3.162-.636 4.77.062 1.095.474 1.87 2.13 1.527 3.24a68.363 68.363 0 0 0-1.031 3.771c-.094.385-.058.807-.026 1.208.057.713.27 1.437.203 2.135-.047.469-.38.995-.745 1.318-.36.318-.906.443-1.39.583-.657.188-1.334.318-2.011.453-.563.115-1.13.25-1.698.271-.599.026-1.208-.073-1.807-.125-1.14-.093-2.282-.192-3.422-.286-2.505-.203-4.521-2.688-4.693-4.505-.203-2.209-.265-4.427-.448-6.641-.12-1.5-.39-2.99-.505-4.49-.089-1.198-.078-2.401-.037-3.604.053-1.63.146-3.265.277-4.896.114-1.39-.188-2.713-.51-4.041-.022-.089-.053-.177-.058-.271-.104-.917-.1-.818-.98-.745-1.541.125-3.098.443-4.65-.073-.386-.125-.85-.015-1.323-.015 0 1.13.01 2.218-.005 3.302-.006.27-.126.547-.126.817-.005 4.11-.005 8.219 0 12.328.006.344.047.704.162 1.021.057.162.344.375.5.354.86-.125 1.719-.322 2.573-.479.453-.088.917-.234 1.37-.203.849.057 2.198 1.641 2.177 2.511-.01.458-.1.921-.167 1.531-.765.307-.52 1.292-.797 2.021-.203.541.38.692.714.932.27.193.713.302.802.547.161.443.187.969.146 1.448-.089 1.026-.532 1.979-1.287 2.63-.557.479-1.354.729-2.088.943-1.052.302-2.136.505-3.214.692-.266.047-.604-.265-.838-.187-.818.255-1.578.396-2.47.255-.957-.146-1.973.094-2.963.089-1.36-.011-2.53-.657-3.088-1.808-.584-1.192-.88-2.562-1.068-3.89-.281-1.943-.396-3.912-.495-5.875-.052-1.058.089-2.12.11-3.183.005-.39-.12-.781-.125-1.171-.006-3.563.01-7.125-.01-10.688-.006-1.479-.12-2.958-.12-4.443 0-.838.13-1.672.208-2.593-.193-.094-.48-.188-.719-.355-.38-.265-.901-.437-.807-1.099.031-.192-.12-.458-.266-.614-.276-.307-.562-.563-.286-1.026.047-.078-.032-.281-.115-.375-.937-1.037-.948-2.406-1.27-3.651-.292-1.115-.485-2.261-.647-3.396a4.625 4.625 0 0 1 .079-1.583c.338-1.526.599-3.094 1.161-4.542.526-1.365 1.333-2.64 2.14-3.875.964-1.464 2.13-2.797 3.074-4.276.713-1.115 1.213-2.365 1.817-3.552.797-1.573.75-3.162.104-4.755-.349-.865-.671-1.756-1.12-2.568-.275-.5-.843-.839-1.135-1.333-.312-.537-.943-.839-1.015-1.568-.032-.323-.459-.594-.688-.901-.37-.505-.766-.995-1.073-1.537-.469-.828-.864-1.697-1.302-2.552-.219-.427-.5-.828-.661-1.276-.266-.729-.672-1.443-.474-2.276a.522.522 0 0 0-.063-.338c-.776-1.474-.963-3.105-1.15-4.72-.037-.29.207-.603.218-.91.026-1.324.042-2.652-.016-3.975-.01-.307-.26-.734-.526-.89-.88-.516-1.14-1.443-1.599-2.23-.849-1.458-1.625-2.989-1.495-4.723.079-.964.526-1.896.771-2.854.11-.422.12-.865.188-1.365.166.14.276.234.281.24 0-.907-.14-1.912.031-2.855.287-1.546.047-3.24 1.104-4.583.526-.667 1.073-1.338 1.704-1.896.406-.364 1-.52 1.494-.797.943-.52 1.865-1.088 2.818-1.588 2.281-1.193 4.61-2.323 7.125-2.901 1.682-.386 3.401-.339 4.969.687.62.401 1.453.485 2.068.89.63.418 1.208.985 1.635 1.605.667.969.88 2.063.594 3.276-.105.453.302 1 .364 1.516.219 1.916.375 3.838.584 5.755a8.205 8.205 0 0 0 1.234 3.516c.297.474.563.895.37 1.546-.104.344.276.808.354 1.235.083.463.14.963.078 1.432-.135 1.047-1.161.912-1.818 1.281-.864.49-1.854.49-2.776.76-.448.136-.599.402-.557.813.078.76.182 1.521.276 2.282.14 1.099.177 2.229.453 3.296.38 1.485-.198 2.74-.677 4.042-.052.151-.182.297-.182.448-.01 1.365-.162 2.708.74 3.963a7.9 7.9 0 0 1 1.296 2.933c.157.729-.198 1.578-.349 2.364-.062.318-.291.63-.26.922.088.912-.474 1.453-1.016 2.021-.614.646-1.224 1.302-1.86 1.927-.202.209-.645.297-.697.51-.203.818-.401 1.667-.385 2.5.015 1.011.208 2.027.4 3.027.23 1.171.438 2.385 1.334 3.27.724.709 1.552 1.313 2.292 2.006.411.39.75.86 1.125 1.297.833.968 1.75 1.88 2.484 2.922 1.286 1.817 2.401 3.749 2.844 5.958.317 1.588.442 3.213.661 4.859Z" fill="#1A3151"/><path d="M104.74 102.76c0 .797.244 1.047 1.031 1.053 1.052.005 1.375-.235 1.37-1.021-.005-.719-.594-1.256-1.375-1.24-.641.011-1.026.464-1.026 1.208Zm12.708-34.421c.245-2.209-.599-4.183-1.13-6.209-.057-.213-.485-.484-.703-.453-.203.026-.526.427-.511.646.042.635.214 1.266.349 1.896.245 1.12.578 2.229.735 3.364.208 1.485-.151 2.896-.766 4.26-.177.397-.177.891.328 1.079.537.198.818-.188 1-.63.521-1.282.912-2.584.698-3.953Zm-6.661-22.021c.156-.255.239-.589.453-.719 1.224-.73 2.432-1.52 3.922-1.651.088-.01.171-.13.26-.198-.068-.078-.13-.208-.208-.219-.808-.135-1.61-.12-2.328.297a276.718 276.718 0 0 0-5.657 3.354c-.177.11-.364.469-.307.636.135.4.333.849.641 1.12.698.598 1.468 1.124 2.234 1.645.583.401 1.312.662 1.776 1.162.427.458.896.76 1.432.797 1.224.093 2.485.192 3.683.01.885-.135 1.703-.713 2.541-1.104.891-.422 1.313-1.167 1.245-2.115-.042-.573-.234-1.15-.453-1.687-.339-.85-.677-1.719-1.167-2.48-.677-1.051-1.901-1.176-3.021-1.484.042.125.047.271.12.323.719.51 1.474.985 2.172 1.526.25.193.38.547.594.875-1.302-.333-2.427-.65-3.563-.9-1.182-.266-2.234.275-3.323.723.11.193.417.48.375.698-.187.906.141 1.719.303 2.568.067.36-.073.599-.521.479a29.993 29.993 0 0 0-1.677-.375c-.657-.13-1.485-.984-1.459-1.651.037-.813.813-.677 1.308-.89.119-.053.291.015.411-.037.396-.167.771-.37 1.156-.557a4.643 4.643 0 0 0-.099-.26c-.271.036-.547.072-.843.114Zm1.052 34.99c1.156 0 2.286.03 3.411-.027.224-.01.646-.385.62-.531-.089-.51-.557-.432-.958-.427-.714.016-1.433.068-2.131-.016-1.109-.125-1.994-.755-2.63-1.62-.609-.828-.604-1.88-.401-2.822.313-1.427.708-2.855 1.281-4.193.23-.537.625-1.23 1.526-1.297 1.177-.088 2.302-1.5 2.365-2.77.026-.449.062-.907-.005-1.345-.13-.828-.245-1.672-1.245-2.015-.906-.313-1.76-.766-2.667-1.078-.307-.105-.698.03-1.161.067-.042-.177-.151-.458-.146-.729.026-1.104.188-2.213.099-3.307-.063-.745-.401-1.5-.74-2.182-.109-.214-.671-.36-.968-.287-.73.177-1.407.636-2.131.714-.645.073-1.333-.209-1.994-.36-.058-.015-.11-.276-.078-.4.229-1.058.52-2.1.708-3.162.12-.709.12-1.443.13-2.162.01-.833-.031-1.672-.031-2.505 0-.755.036-1.51.041-2.265.006-1.62.443-3.151 1.016-4.646.089-.219.38-.407.615-.526a4.936 4.936 0 0 0 1.64-1.292c.563-.656 1.49-1.031 2.308-1.417.698-.323 1.458-.593 2.213-.692.708-.089 1.469-.01 2.162.161.948.23 1.849.677 2.791.922 1.63.422 2.808 1.37 3.677 2.77.787 1.256 1.719 2.433 2.37 3.75.604 1.225 1.151 2.516 1.182 3.938.006.37.094.735.131 1.104.156 1.537-.308 2.985-.61 4.464-.255 1.23-.625 2.39-1.385 3.36-.969 1.244-2.099 2.359-3.089 3.588-.505.62-1.182 1.161-1.036 2.187.099.75.536.927 1.078 1.032.75.14 1.51.24 2.271.28.458.027.927-.082 1.385-.14.323-.036.641-.099.964-.12.505-.03.719.23.708.73-.021 1.015-.01 2-.463 2.984-.297.64-.136 1.474-.256 2.203-.239 1.49-.557 2.964-1.791 4.005-.401.344-.896.584-1.313.912-1.193.948-1.807 2.307-2.479 3.62-.661 1.291-.937 2.677-.922 4.135.016 2.162.693 4.016 2 5.781 1.031 1.396 2.573 2.136 3.646 3.422.937 1.125 1.911 2.219 2.792 3.39.297.397.349.98.536 1.475.307.812.677 1.61.938 2.437.536 1.719.645 3.396-.052 5.162-.5 1.271-1.089 2.468-2.006 3.427-.948.995-2.109 1.797-3.182 2.677-.068.057-.203.068-.234.135-.516 1.047-1.547 1.479-2.443 2.058-1.974 1.265-4.135 1.968-6.479 2.135-1.417.104-2.834.286-4.25.401-.292.026-.604-.151-.891-.115-.911.115-1.818.282-2.729.428-.594.093-1.182.234-1.781.255-1.089.041-2.183 0-3.271.021-.552.01-1.115.156-1.662.104-.609-.052-1.198-.276-1.796-.396-1.13-.224-2.292-.359-3.204-1.245.323-.63.677-.917 1.552-.797 1.073.146 2.245.308 3.292-.245.235-.125.51-.463.495-.677-.02-.208-.365-.458-.62-.557-.422-.161-.88-.219-1.323-.307-.12-.021-.27-.047-.375-.005-.854.354-1.713.125-2.557-.011-.24-.041-.557-.307-.62-.531-.062-.208.11-.542.276-.75.6-.745 1.36-.359 2.078-.229.318.057.63.161.948.182.558.037 1.125-.443 1.23-1.036.098-.573-.105-.922-.693-1.188-.73-.328-1.584-.568-1.953-1.422-.073-.182-.141-.364-.224-.583 1.078-.255 1.979.052 2.895.396 1.313.495 2.657.896 3.98 1.354.453.156.885.354 1.432.578-.005.005.13-.135.266-.135.942-.016 1.89.005 2.833 0 .807-.006 1.609-.026 2.417-.037.312-.005.625.021.932.005.276-.015.547-.067.818-.114.25-.042.5-.094.744-.156.433-.11.87-.219 1.297-.36 1.172-.39 2.339-.781 3.495-1.208.396-.146.807-.339 1.12-.615.489-.422.896-.937 1.344-1.411.224-.24.416-.552.692-.698 1.037-.563 1.25-1.62 1.516-2.583.177-.667.01-1.417.047-2.125.026-.49-.266-.667-.625-.615a1.21 1.21 0 0 0-.745.5c-.255.427-.37.943-.589 1.396-.26.531-.489 1.109-.88 1.531a23.315 23.315 0 0 1-2.427 2.286c-.354.287-.885.36-1.333.542-1.38.568-2.755 1.13-4.276 1.271-.703.062-1.375.385-2.073.474-.412.052-.86-.094-1.261-.229-1.5-.505-3.046-.995-3.885-2.474-.344-.594-.51-1.339-.578-2.026-.167-1.703.026-3.323 1.182-4.745.735-.906 1.209-2.026 1.938-2.943.625-.776 1.416-1.422 2.177-2.078 1.437-1.245 2.916-2.448 4.344-3.698.26-.229.437-.599.541-.937.75-2.531.568-5-.838-7.136Zm-9.667 57.51c.089-.271.219-.537.26-.818.084-.62.188-1.25.162-1.875-.031-.828-.208-1.651-.271-2.479-.078-1.026-.083-2.063-.151-3.094-.036-.609-.156-1.213-.188-1.818-.031-.625 0-1.255.006-1.88.005-.135.052-.276.052-.411.052-1.573.088-3.146.151-4.714.021-.51.104-1.015.156-1.526.068-.713.505-1.073 1.177-1.088 1.276-.032 2.557-.011 3.86-.011.161 2.031.343 4 .458 5.974.094 1.495.161 3 .14 4.5-.062 4.485-.161 8.974-.281 13.458a44.426 44.426 0 0 1-.286 3.912c-.167 1.411-.86 2.25-2.537 2.604-2.213.464-4.442.198-6.661.261a8.413 8.413 0 0 1-1.802-.141c-1.047-.193-1.464-1.12-.985-2.068.5-1 1.292-1.271 2.36-1.156.797.083 1.635-.146 2.442-.281.11-.016.271-.339.235-.474-.078-.287-.208-.615-.427-.797-.188-.151-.526-.146-.797-.162-.932-.062-1.875-.062-2.797-.177-.234-.031-.547-.401-.583-.651-.032-.166.354-.557.578-.573.89-.067 1.791-.015 2.687-.031.532-.01 1.052-.693.755-.984a1.976 1.976 0 0 0-1.078-.542c-.833-.12-1.687-.073-2.52-.177-.594-.073-1.027-.693-.834-1.203.172-.458.318-.88 1.104-.823 1.495.115 3.016-.01 4.516-.115.427-.031.833-.333 1.25-.51a3.493 3.493 0 0 1-.151-.13Zm22.953-25.667c0 .76-.016 1.396 0 2.031.089 2.881.188 5.761.287 8.646.041 1.333.104 2.667.135 4.005.057 2.276.094 4.558.146 6.834.036 1.64.088 3.281.14 4.927.037 1.099.172 2.203.12 3.297-.062 1.458-.151 2.932-.432 4.359-.292 1.479-1.052 2.281-2.641 2.167-1.218-.089-2.453-.063-3.677 0-.922.047-1.833.234-2.75.354-.531.068-1.067.213-1.583.167-.365-.037-.886-.25-1.016-.537-.213-.463-.104-1.068.412-1.359a8.698 8.698 0 0 1 1.745-.75c.411-.136.88-.068 1.302-.183.224-.062.39-.317.583-.484-.198-.161-.375-.411-.599-.464-.604-.145-1.229-.187-1.839-.307-.244-.047-.536-.13-.687-.297-.276-.312-.464-.708-.688-1.067.329-.157.641-.386.99-.459.651-.146 1.323-.208 1.984-.302.495-.062.589-.39.558-.807-.026-.443-.282-.636-.698-.599-1.026.099-1.964-.162-2.854-.651-.542-.297-.615-.833-.079-1.13a4.033 4.033 0 0 1 1.48-.474 30.34 30.34 0 0 1 3.151-.146c1.057.005 1.562-.828 1.776-1.516.463-1.484.718-3.052.88-4.604.135-1.354.094-2.739.01-4.099-.125-2.135-.359-4.265-.541-6.396-.099-1.182-.188-2.369-.292-3.552-.089-.995-.172-1.989-.292-2.984-.052-.448.183-.651.542-.771 1.297-.437 2.328-1.286 3.365-2.135.302-.245.645-.433 1.062-.714Z" fill="#D7C3B1"/><path d="M125.87 58.786c1.48-.406 1.724-3.703.834-5.578-.104.266-.188.547-.141.802.146.766.38 1.49.042 2.292-.323.77-.485 1.615-.735 2.484Zm-1.208-15.474c.198.386.464.756.578 1.167.193.662.453 1.209 1.183 1.396.057.01.098.156.114.25.182 1.01.531 1.917 1.245 2.708.292.323.495.938.406 1.339-.323 1.417.089 2.833-.104 4.229-.214 1.563.073 3.182-.552 4.682-.182.438-.49.823-.698 1.25-.401.834-.844 1.641-1.563 2.245-.333.287-.713.526-1.166.854.297-1.442 1.818-2.323 1.557-3.87a64.859 64.859 0 0 0-.266-.25c-.041.162-.052.334-.125.474-.562 1.105-1.104 2.224-1.75 3.276-.125.209-.666.24-1.01.22-.323-.027-.635-.225-1.12-.412.453-.64.802-1.339 1.334-1.85.994-.952 1.729-2.056 2.099-3.353.416-1.474.666-3.006 1.015-4.5.068-.302.266-.573.443-.948.146.297.239.49.328.682.286-.411.172-1.766-.214-3.23-.276-1.062-.411-2.16-.744-3.202-.334-1.032-.828-2.01-1.25-3.016.088-.047.177-.094.26-.14Zm-3.656-4.968c.948.161 1.802.37 2.536.958.542.432 1.125.797 1.657 1.24 1.375 1.156 2.625 2.437 3.552 3.984.583.98 1.015 2.005.932 3.214-.031.447.26.911.354 1.38.047.224-.016.474-.036.708l-.209.016c-.031-.167-.093-.334-.088-.505.005-.605-.485-1.303-1.005-1.6a2.03 2.03 0 0 1-.73-.78c-.51-.975-.864-2.037-1.468-2.938-.61-.917-1.448-1.672-2.172-2.51-.63-.725-1.214-1.495-1.891-2.178-.38-.385-.906-.635-1.432-.99Z" fill="#A63939"/><path d="M125.527 63.234c.083-.927.802-1.406 1.474-1.718 1.161-.547 1.338-1.552 1.51-2.589.203-1.276.427-2.562.5-3.849.083-1.495.011-3-.005-4.5 0-.36-.047-.719-.073-1.083.078-.026.151-.052.224-.084.354.662.963 1.303 1.01 1.985.115 1.61-.036 3.234-.073 4.849-.005.213.042.422.047.453-.187.48-.343.844-.468 1.213-.422 1.204-.829 2.407-1.245 3.61-.042.13-.13.245-.177.375-.443 1.203-1.36 1.666-2.724 1.338Zm7.562-10.255c.261.505.615.985.771 1.521.229.786.333 1.61.464 2.427.099.63.213 1.27.224 1.912a3.92 3.92 0 0 1-.24 1.333 14.688 14.688 0 0 1-.917 1.995c-.088.166-.416.203-.64.302-.058-.245-.219-.51-.167-.724.432-1.62.74-3.25.604-4.943-.088-1.13-.187-2.266-.281-3.396-.01-.114.016-.234.021-.349.057-.026.109-.052.161-.078Zm-1.317 1.802c.098.271.25.542.281.823.094.99-.016 1.953-.245 2.927-.234.985-.281 2.01-.464 3.01-.145.782-.895 1.386-1.63 1.303-.161-.021-.437-.448-.39-.604.296-.922.718-1.808 1.015-2.735.412-1.286.755-2.599 1.115-3.906.068-.24.057-.5.088-.75.073-.02.151-.047.23-.068Zm-20.61 9.276c.729.183 1.479.318 2.188.578.213.079.422.495.406.745-.011.177-.386.448-.62.474-.375.031-.766-.104-1.151-.172-.432-.078-.859-.192-1.292-.218-.463-.026-.864-.058-.859-.657.005-.599.411-.65.875-.635.141.005.281 0 .422 0 .01-.037.021-.073.031-.115Zm.307 4.839c-.39-.167-.817-.281-1.161-.516-.38-.265-.229-.979.219-1.062.739-.146 1.5-.219 2.25-.308.401-.046.692.105.739.547.042.412-.146.625-.557.745-.5.151-.974.385-1.49.594Zm22.912-6.604c.13-.615.213-1.026.302-1.433.078-.005.156-.005.24-.01.031.406.083.807.078 1.214 0 .057-.282.109-.62.229Z" fill="#A63939"/><path d="M62.09 75.86c-.147-.37-.194-.584-.303-.761-.39-.625-.86-1.208-1.208-1.854a15.738 15.738 0 0 1-1.72-5.224c-.244-1.683-.369-3.354.845-4.755.578-.667.453-1.328.12-2.271-.318.49-.657.828-.782 1.234-.411 1.281-1.172 2.448-1.203 3.86-.02 1.12-.208 2.24-.208 3.359 0 .531.203 1.094.437 1.578.354.74.771 1.448 1.245 2.12.594.849 1.25 1.656 1.917 2.453.13.151.448.14.86.26Zm7.244-26.172c-.156-.073-.354-.094-.438-.204-.916-1.27-2.416-1.64-3.682-2.37-.156-.088-.406-.036-.614-.03-.771.03-1.558.166-2.313.077-1.146-.13-2.146.276-3.042.808-.734.437-1.302 1.177-1.895 1.823-.698.765-.589 1.614.218 2.25.35.276.714.541 1 .87.459.546 1.058.713 1.719.786.135.016.302 0 .406.068 1.38.942 2.818.765 4.235.145.65-.28 1.24-.729 1.849-1.12a42.41 42.41 0 0 0 1.708-1.145c.125-.089.302-.292.27-.375-.265-.693.423-1 .579-1.584ZM68.396 64.5c-1.03-.063-1.937-.146-2.843-.172-.72-.02-1.422-.14-1.974.656-.38.563-1.125.87-1.667 1.334-.463.4-.578.89-.25 1.474.14.245.25.62.162.859-.209.589.036.98.4 1.354.318.334.641.672 1.006.948.323.24.719.385 1.073.584.99.541 2.114.192 3.213.52-.229 1.203.531 2.052 1.078 3.037.453.812.558 1.833.75 2.776.355 1.703-.61 2.817-1.755 3.885-.776.719-1.552 1.495-2.088 2.396-.72 1.219-.829 2.583-.401 4.005.411 1.386.682 2.807.99 4.224.166.755.473 1.334 1.098 1.901 2.26 2.047 4.615 4 6.302 6.646.87 1.354 1.48 2.75 1.844 4.276.213.896.276 1.828.38 2.745.073.651.162 1.307.12 1.953-.016.25-.323.604-.573.688-.911.312-1.839.588-2.786.776-.776.151-1.589.13-2.38.244-2.313.329-4.141-.765-5.923-2-.442-.307-.88-.63-1.25-1.01-.12-.125-.02-.458-.02-.859-.875-.506-.98-1.641-1.203-2.724-.073-.365-.047-.724-.605-.839-.354-.073-.625-.521-.942-.807-1.047 1.39-.865 2.755-.162 4.193.646 1.322 1.51 2.463 2.672 3.328.599.442 1.349.672 2.042.984 1.015.453 2.026.938 3.073 1.313.724.265 1.51.364 2.27.531.068.015.157.026.214 0 1.23-.636 2.615-.042 3.896-.537 1.015-.39 2.219-.349 3.182-.817 1.276-.615 2.636-1.016 3.87-1.797 1.042-.662 2.245-1.141 3.37-1.724.672-.344 1.578-.334 2.375-.308.661.021 1.146.662 1.083 1.141-.063.443-.813.974-1.349 1.037-.677.083-1.349.213-2.01.39-.146.042-.313.38-.297.563.02.213.192.541.364.593.438.12.912.146 1.365.151.536 0 1.078-.13 1.604-.072.219.02.594.421.563.583-.047.25-.355.578-.61.635-.74.167-1.51.203-2.265.318-.224.031-.485.089-.636.234-.187.183-.416.5-.364.688.057.203.421.469.64.453a3.919 3.919 0 0 1 2.38.609c.209.141.448.454.433.672-.01.209-.318.532-.532.568-.87.151-1.75.203-2.624.307-1.428.177-2.844.443-4.277.532-2.536.145-4.776 1.39-7.213 1.875-.297.062-.594.13-.886.135-1.187.021-2.348.182-3.526.344-1.671.229-3.411-.006-5.12-.063-.16-.01-.322-.156-.478-.245-.34-.192-.667-.213-1.073-.234-1.026-.052-2.1.188-3.094-.344-1-.536-2.136-.859-3.057-1.5-1.6-1.114-3.094-2.359-3.35-4.536-.223-1.901-.682-3.787-.796-5.688-.125-2.078.312-4.109 1.49-5.89.603-.912 1.307-1.756 1.932-2.657.234-.328.307-.776.552-1.088.583-.74 1.187-1.469 1.854-2.135 1.099-1.09 1.635-2.417 1.943-3.902.114-.573.432-1.099.614-1.661.276-.839.469-1.672.23-2.583-.261-.98-.355-2.006-.595-2.99-.13-.526-.385-1.036-.65-1.505-.704-1.245-1.266-2.636-2.224-3.646-1.105-1.162-1.63-2.672-2.75-3.807-.5-.505-.693-1.318-1.006-2-.703-1.531-1.26-3.12-1.463-4.797-.12-.953-.052-1.927-.125-2.89-.042-.59-.297-1.173-.276-1.75.031-.855.208-1.71.36-2.558.015-.089.26-.172.405-.188 1.177-.135 1.85-.843 2.391-1.854.724-1.354.313-2.656.12-4.015-.219-1.547-.578-3.068-.36-4.693.12-.88.37-1.724.594-2.547.182-.677.74-1.406 1.339-1.786 1.047-.667 2.145-1.276 3.52-1.287 1.355-.01 2.709-.333 4.063-.505.443-.057.89-.047 1.328-.099 1.156-.146 2.307-.339 3.464-.448.536-.052 1.203-.333 1.53.39.12.261.037.605.095.902.26 1.38.588 2.745.797 4.13.088.578.265 1.073.494 1.61.396.9.547 1.91.839 2.859.13.422.38.802.542 1.218.125.329.067.547-.303.766-.99.594-2.072.828-3.177.948-.698.078-1.166.443-1.37 1.02a4.336 4.336 0 0 0-.223 1.787c.135 1.453.375 2.89.593 4.469Zm1.558 83.557c-.448 1.151-2.167 2.146-3.287 2.058-.474-.042-.948-.006-1.427-.006-.713 0-1.422-.02-2.135.006-.865.026-1.73.088-2.594.13-1.26.062-2.104-.703-2.896-1.516-.745-.76-.776-1.781-.86-2.755a305.087 305.087 0 0 1-.556-7.245c-.042-.672.072-1.354.098-2.031.021-.589.021-1.182.027-1.776 0-2.078-.016-4.156.005-6.234.01-1.152.12-2.303.125-3.454.005-.802-.12-1.604-.12-2.401-.005-.666.083-1.333.135-2.109.76.349 1.407.729 2.094.943.708.218 1.464.276 2.193.406.515.094 1.052.13 1.536.307.235.089.37.433.542.667.026.031.005.094.005.141.047 4.848.1 9.697.136 14.546.01 1.079.296 2.105.921 2.927.329.428 1.047.698 1.62.766.823.099 1.677-.062 2.516-.099.416-.015.89-.099 1.026.474.135.594-.297.787-.74.891a2.61 2.61 0 0 1-.984.041c-.703-.099-1.302.136-1.896.469-.401.224-.281.521-.182.828.11.334.286.438.672.375a6.544 6.544 0 0 1 1.744-.078c.198.021.506.375.51.583.006.261-.187.615-.405.771-.214.162-.573.141-.87.177-.464.052-1.182.693-1.214 1.141-.01.13.11.292.214.396.745.76 1.635.719 2.599.536.448-.083.942.073 1.448.125Zm7.468-28.062v.901c0 2.38-.072 4.765.021 7.146.084 2.182.328 4.364.547 6.541.146 1.474.365 2.943.568 4.412.13.963.453 1.765 1.604 1.922.318.041.604.302.911.442.115.052.266.099.386.068 1.125-.255 2.245-.531 3.37-.807.442-.11.875-.292 1.328-.339.427-.041 1.463.886 1.422 1.282-.052.562-.547.697-1.01.75-.74.078-1.5.052-2.235.171-.297.052-.719.323-.776.568-.068.287.146.682.328.974.547.896 1.443.479 2.208.542.198.015.5.041.552.156.068.146 0 .484-.13.573-.411.276-.86.557-1.333.682-.667.177-1.386.167-2.052.339-.198.052-.438.448-.438.687.005.36.089.906.334 1.047.703.412 1.468.641 2.328.229.495-.234 1.093-.255 1.755-.396-.505 1.256-1.432 1.526-2.438 1.651-.9.11-1.812.256-2.718.261-1.693.01-3.396 0-5.078-.146-1.35-.115-1.943-1.187-2.417-2.323-.531-1.26-.714-2.573-.73-3.932-.02-1.594.063-3.214-.171-4.776-.39-2.584-.193-5.156-.23-7.735-.015-.968.063-1.968.287-2.911.438-1.859.193-3.734.255-5.604.037-1.25.01-1.245 1.24-1.62.74-.229 1.474-.484 2.312-.755Z" fill="#D7C3B1"/><path d="M65.39 66.005c.96.11 1.824.172 2.668.328.177.032.411.401.411.61 0 .213-.255.588-.422.599-1.344.12-2.693.198-4.042.213-.197 0-.5-.38-.583-.64-.167-.506.198-.802.63-.917.464-.125.959-.14 1.339-.193Zm.87 4.323c-.802-.12-1.609-.198-2.395-.375-.188-.041-.448-.4-.427-.588.015-.23.26-.573.468-.625.402-.1.844-.063 1.266-.021.688.062 1.38.13 2.047.297.23.057.536.416.531.63-.005.213-.328.5-.573.599-.265.104-.604.02-.911.02 0 .022-.005.042-.005.063Z" fill="#A63939"/><path d="M111.245 50.177c.114.599 1.416 1.953 1.807 1.958 1.536.026 3.094.151 4.568-.432.338-.135.609-.432.916-.65-.229-.225-.406-.319-.562-.293-.5.084-.99.26-1.49.313-1.198.135-2.37.146-3.495-.453-.489-.26-1.109-.287-1.744-.443Zm1.703-3.63c0 .411.031.828-.011 1.24-.099 1.104.521 1.828 1.297 2.447.162.13.453.157.682.146.719-.036.667-.703.901-1.146.391-.734.318-1.479.099-2.229-.057-.182-.239-.479-.343-.469-.891.073-1.787-.677-2.625.01Zm3.224 4.156c1.093.162 2.099-.266 3.041-.823.255-.15.5-.562.495-.849-.016-.922-1.312-2.172-2.24-2.265-.906-.094-.994 0-.848.9.015.115.02.24.005.355-.146.875-.297 1.75-.453 2.682Zm-5.386-4.385c.297-.042.573-.078.849-.115l.094.26c-.386.188-.761.386-1.156.558-.12.052-.292-.016-.417.036-.49.214-1.271.078-1.302.89-.026.668.802 1.522 1.458 1.652.563.11 1.12.234 1.677.38.448.115.589-.125.521-.484-.161-.85-.489-1.662-.302-2.568.042-.219-.266-.505-.375-.698 1.089-.453 2.141-.99 3.323-.729 1.135.255 2.26.568 3.562.906-.213-.328-.343-.682-.593-.875-.698-.541-1.448-1.015-2.172-1.531-.073-.047-.078-.193-.125-.318 1.125.308 2.349.433 3.026 1.485.489.765.828 1.63 1.167 2.479.218.536.411 1.114.453 1.687.067.948-.354 1.698-1.245 2.115-.839.39-1.656.969-2.542 1.104-1.198.182-2.458.083-3.682-.01-.531-.037-1.01-.339-1.432-.797-.469-.505-1.193-.76-1.776-1.162-.766-.52-1.537-1.041-2.23-1.645-.312-.271-.51-.72-.645-1.12-.058-.167.13-.532.307-.636a296.63 296.63 0 0 1 5.651-3.354c.724-.417 1.526-.432 2.333-.297.078.01.141.14.209.219-.089.068-.172.188-.266.198-1.484.13-2.688.927-3.917 1.651-.213.125-.302.464-.453.719Zm6.662 22.02c.213 1.37-.177 2.672-.698 3.954-.183.448-.464.828-1 .63-.505-.188-.505-.677-.328-1.078.614-1.365.974-2.776.765-4.26-.156-1.136-.489-2.246-.734-3.365-.136-.63-.307-1.26-.349-1.896-.016-.219.307-.62.51-.646.219-.031.646.24.703.453.532 2.026 1.375 4 1.131 6.208Zm-12.709 34.422c0-.744.386-1.197 1.026-1.208.782-.016 1.37.521 1.375 1.24.006.786-.317 1.026-1.369 1.021-.787-.006-1.032-.256-1.032-1.053Zm21.131-43.974c.25-.87.411-1.713.734-2.484.338-.802.104-1.526-.042-2.292-.047-.255.037-.536.141-.802.89 1.875.646 5.172-.833 5.578Zm-64.568-5.578c-.005.078-.005.151-.005.224 1.312.813 2.604-.015 3.885-.224.396-.062.953-.323.974-.942-1.646.323-3.25.63-4.854.942ZM65 48.156c.234 1.13.442 2.12.672 3.193.802-.411 1.614-.833 2.442-1.26-.916-1.204-2.729-2.188-3.114-1.933Zm-3.151.104c-.62.188-1.391.292-2.016.657-.318.187-.427.817-.5 1.265-.026.136.365.453.599.495.797.136 1.604.182 2.5.27-.198-.91-.365-1.687-.583-2.687Zm7.484 1.428c-.156.583-.844.89-.578 1.583.031.078-.146.286-.27.375-.563.396-1.131.776-1.71 1.146-.609.39-1.197.838-1.853 1.125-1.412.614-2.85.791-4.23-.151-.104-.068-.27-.052-.406-.068-.661-.073-1.26-.24-1.719-.781-.286-.334-.65-.6-1-.875-.807-.636-.922-1.485-.218-2.25.593-.646 1.161-1.386 1.896-1.823.895-.532 1.895-.938 3.041-.808.76.089 1.542-.046 2.318-.072.203-.01.453-.063.61.026 1.265.729 2.765 1.099 3.681 2.37.084.109.282.13.438.203Zm-7.245 26.171c-.411-.12-.729-.109-.86-.26-.666-.797-1.322-1.604-1.916-2.453a14.67 14.67 0 0 1-1.245-2.12c-.234-.484-.437-1.047-.437-1.578 0-1.12.187-2.24.208-3.36.032-1.41.792-2.578 1.203-3.859.125-.406.464-.745.782-1.234.333.943.458 1.604-.12 2.27-1.214 1.402-1.089 3.073-.844 4.756a15.736 15.736 0 0 0 1.719 5.224c.349.646.817 1.229 1.208 1.854.11.177.156.39.302.76Z" fill="#1A3151"/><path d="M116.173 50.703c.156-.932.307-1.807.453-2.682.015-.115.01-.24-.006-.354-.145-.901-.057-.995.849-.901.927.093 2.224 1.343 2.24 2.26.005.292-.24.703-.495.854-.943.557-1.948.985-3.041.823Zm-.667-3.036c-.068-.089-.193-.36-.396-.453-.276-.12-1.214.682-1.135 1.02.073.297.364.641.64.766.386.167.797-.417.891-1.333Zm-2.557-1.12c.838-.688 1.734.062 2.625-.01.104-.011.286.286.343.468.219.75.292 1.495-.099 2.23-.234.442-.182 1.109-.901 1.145-.229.01-.521-.015-.682-.146-.776-.62-1.396-1.343-1.297-2.448.037-.411.011-.828.011-1.24Z" fill="#D7C3B1"/><path d="M111.244 50.177c.636.156 1.255.182 1.745.443 1.125.599 2.297.588 3.495.453.5-.052.989-.23 1.489-.313.157-.026.334.068.563.292-.307.219-.578.516-.917.651-1.474.583-3.031.458-4.567.432-.391-.005-1.693-1.359-1.808-1.958ZM61.849 48.26c.218 1 .385 1.776.583 2.688-.896-.089-1.703-.136-2.5-.27-.23-.043-.62-.36-.6-.49.074-.454.183-1.084.5-1.271.626-.365 1.397-.47 2.017-.657Zm3.15-.104c.386-.255 2.204.73 3.115 1.933-.828.427-1.64.849-2.443 1.26a604.724 604.724 0 0 1-.672-3.193Zm-3.697 5.052c1.604-.312 3.208-.62 4.854-.942-.021.62-.578.88-.974.942-1.282.209-2.573 1.037-3.886.224 0-.073 0-.146.006-.224Z" fill="#D7C3B1"/><path d="M115.505 47.667c-.094.916-.506 1.5-.891 1.333-.276-.125-.568-.469-.641-.766-.078-.338.86-1.14 1.136-1.02.203.093.328.364.396.453Z" fill="#1A3151"/></svg>