<?xml version="1.0" encoding="UTF-8"?>
<svg id="Layer_1" data-name="Layer 1" xmlns="http://www.w3.org/2000/svg" viewBox="0 0 136.06 136.06">
  <defs>
    <style>
      .cls-1 {
        fill: #a84940;
      }

      .cls-2 {
        fill: #0c3454;
      }

      .cls-3 {
        fill: #d8c6b8;
      }
    </style>
  </defs>
  <path class="cls-2" d="m102.8,48.66c-.37-.08-.63-.19-.89-.19-.87,0-1.74-.1-2.61.19-.5.16-.99.38-1.6.26-.58-.12-1.22,0-1.82.08-.13.02-.31.26-.32.41-.02.34.04.69.09,1.04.2,1.4.04,2.76-.49,4.08-.13.33-.24.68-.37,1.01-.18.47-.48.83-.85,1.2-.73.73-1.77,1.03-2.38,1.89-.28.4-.54.81-.81,1.21-.03.04-.05.1-.08.13-.82.93-.88,2.14-1.04,3.26-.2,1.31.17,2.45,1.31,3.34.86.66,1.74,1.33,2.3,2.32.18.32.52.6.85.76.93.47,1.3,1.37,1.72,2.21.37.74.81,1.53.84,2.32.06,1.19.44,2.29.59,3.44.05.41.15.82.21,1.23.15,1.02-.53,1.72-.99,2.5-.28.47-.63.9-.94,1.36-.14.21-.24.39-.03.65.05.06-.24.39-.48.53,0,1.33-.05,2.65.02,3.98.04.86.25,1.72.37,2.57.13.89.2,1.8.36,2.69.36,2.05.15,4.11.21,6.17.03,1.11.08,2.22.1,3.32.03,1.58-.08,2.51-.15,4.17-.14.61-.08,1.67-.07,2.29.02.71-.34,1.64-.56,2.29-.35,1.04-1.53,1.42-2.55,1.75-1.47.48-2.96.35-4.47.24-.75-.06-1.51-.01-2.26.09-1.17.15-1.81-.86-1.57-1.99.1-.43.41-.82.58-1.14-.21-.38-.58-.74-.6-1.12-.05-.68-.26-1.45.35-2.05-.58-.74-.65-1.85-.16-2.66.35-.57.77-.58,1.76-.48,1.02.1,2.06-.11,2.81-.88.19-.2.05-.73.05-1.11,0-1.09,0-2.17,0-3.26,0-.16.03-.31.03-.47,0-1.2-.01-2.41,0-3.61,0-.65.13-1.3.09-1.94-.11-1.58-.28-3.15-.43-4.71-1.24.33-2.36.66-3.5.94-.3.08-.66.12-.94.03-.61-.2-1.11.03-1.64.23-.12.04-.27.07-.39.04-.48-.13-.62-.04-.62.45,0,1.7-.03,3.4,0,5.1.04,1.93.17,3.86.2,5.8.04,2.3.03,4.61,0,6.91-.02,1.24-.1,2.49-.22,3.73-.06.63-.43,1.15-1.05,1.35-.7.22-1.46.3-2.15.55-.6.22-1.19.01-1.77.09-.48.06-.96.17-1.44.18-.59.02-1.19,0-1.78-.06-.34-.03-.64.25-1.02,0-.3-.2-.7-.26-1.06-.33-.43-.08-.89-.59-.96-1.01-.07-.43-.23-.85-.36-1.33.08-.07.23-.2.38-.31.41-.31.5-.78.33-1.27-.13-.37-.15-.77-.23-1.16-.08-.46-.11-.94-.27-1.37-.4-1.1.01-2.63,1-3.22.25-.15.63-.08.95-.09.57-.01,1.14,0,1.7-.01.11,0,.23-.04.34-.04.86.06,1.28-.26,1.25-1.1-.05-1.47-.21-2.93-.29-4.4-.03-.64.03-1.28.05-1.92,0-.17.04-.35.04-.52,0-1.42-.02-2.83.01-4.25.01-.49.15-.99.25-1.64-.64-.02-1.23-.01-1.81-.05-.26-.02-.52-.15-.79-.2-.72-.12-1.46-.16-2.16-.36-.58-.16-1.11-.49-1.65-.78-.1-.05-.18-.21-.21-.34-.19-.84-.14-1.65.42-2.34-.62-.89-.43-2.52.39-3.42.18-.2.25-.34.16-.63-.25-.78-.26-1.62.55-2.05.43-.23,1.05-.17,1.58-.15.57.02,1.15.08,1.7.23.52.14,1.01.41,1.52.62.19.08.38.15.7.27-.05-.28-.07-.47-.12-.65-.14-.5-.37-.98-.41-1.49-.15-1.55.14-3.04.65-4.51.41-1.15.84-2.26,1.8-3.06,1.04-.87,2.13-1.69,3.15-2.59.83-.73,1.81-1.4,2.24-2.44.25-.61.22-1.38.15-2.06-.06-.64-.3-1.27-.51-1.89-.07-.21-.28-.39-.47-.52-1.56-1.06-2.35-2.92-1.81-4.69.31-1,.86-1.92,1.35-2.86.29-.56.31-.94-.21-1.26-.43-.27-.41-.59-.21-.92.26-.45.07-.74-.1-1.17-.29-.73-.62-1.48-.51-2.36.11-.96-.01-1.96-.05-2.94,0-.08-.12-.2-.2-.21-.6-.08-1.21-.21-1.78.09-.36.18-.7.22-1.07.02-.31-.17-.71-.21-.98-.43-.49-.38-.36-.97-.25-1.47.2-.99.58-1.96.69-2.96.14-1.26.05-2.55.12-3.82.05-.85.2-1.69.32-2.53.09-.65.2-1.3.32-1.95.03-.16.08-.34.18-.47.28-.38.4-.82.58-1.24.71-1.65,1.72-3.15,3.57-3.62,1.19-.31,2.46-.5,3.73-.24.46.1.96-.01,1.44.03.75.07,1.49.2,2.23.29.1.01.24.04.31-.02.41-.31.64-.03.93.21.3.25.64.45.99.65.95.55,1.91,1.08,2.86,1.63.07.04.17.12.18.19.13.67.76.88,1.18,1.28.94.89,1.6,1.96,2.18,3.1.24.47.55.9.84,1.34.6.92,1.03,1.9,1.26,3.01.23,1.11.75,2.15.99,3.25.32,1.45.49,2.94.73,4.41.06.39.17.78.21,1.17.06.66.09,1.33.15,2.19m-18.92,12.32c1.06,1.6,1.19,3.45.63,5.35-.07.25-.21.54-.4.7-1.07.94-2.18,1.84-3.26,2.77-.57.49-1.17.98-1.63,1.56-.55.68-.9,1.53-1.46,2.21-.87,1.07-1.01,2.28-.89,3.56.05.52.18,1.07.43,1.52.63,1.11,1.79,1.48,2.91,1.85.3.1.64.21.94.17.52-.06,1.03-.31,1.56-.36,1.14-.1,2.17-.52,3.21-.95.33-.14.73-.19,1-.41.64-.53,1.26-1.1,1.82-1.71.29-.32.46-.75.66-1.15.17-.34.25-.73.44-1.05.11-.18.35-.34.56-.37.27-.04.49.09.47.46-.03.53.1,1.1-.04,1.59-.2.72-.36,1.52-1.14,1.94-.21.11-.35.35-.52.53-.33.35-.64.74-1.01,1.06-.24.21-.54.35-.84.46-.87.32-1.74.61-2.62.91-.32.11-.65.19-.98.27-.18.05-.37.08-.56.12-.2.04-.41.07-.61.09-.23.01-.47,0-.7,0-.6,0-1.21.02-1.81.03-.71,0-1.42-.01-2.13,0-.1,0-.2.1-.19.1-.41-.17-.74-.32-1.08-.43-.99-.34-2-.65-2.98-1.01-.69-.26-1.37-.49-2.17-.3.06.16.11.3.17.44.28.64.92.82,1.47,1.07.44.2.59.46.52.89-.08.44-.5.81-.92.78-.24-.02-.47-.09-.71-.14-.54-.1-1.11-.39-1.56.17-.12.15-.25.41-.21.56.05.17.28.37.46.4.63.1,1.28.27,1.92,0,.08-.03.19-.01.28,0,.33.07.68.11.99.23.19.07.45.26.46.42.01.16-.19.42-.37.51-.79.42-1.67.29-2.47.18-.65-.09-.92.12-1.16.6.69.66,1.56.77,2.4.93.45.09.89.26,1.35.3.41.04.83-.07,1.25-.08.82-.02,1.64.02,2.45-.01.45-.02.89-.12,1.34-.19.68-.11,1.36-.23,2.05-.32.21-.03.45.1.67.09,1.06-.09,2.12-.22,3.19-.3,1.76-.13,3.38-.65,4.86-1.6.68-.43,1.45-.76,1.83-1.54.02-.05.12-.06.18-.1.8-.66,1.67-1.26,2.39-2.01.68-.72,1.13-1.62,1.5-2.57.52-1.32.44-2.58.04-3.87-.19-.62-.47-1.22-.7-1.83-.14-.37-.18-.81-.4-1.1-.66-.88-1.39-1.7-2.09-2.54-.8-.96-1.96-1.52-2.73-2.57-.98-1.32-1.49-2.71-1.5-4.33,0-1.09.2-2.13.69-3.1.5-.98.97-2,1.86-2.71.31-.25.68-.43.99-.68.93-.78,1.16-1.89,1.34-3,.09-.55-.03-1.17.19-1.65.34-.74.33-1.48.35-2.24,0-.37-.15-.57-.53-.55-.24.02-.48.06-.72.09-.35.04-.69.12-1.04.11-.57-.03-1.14-.11-1.71-.21-.41-.08-.73-.21-.81-.77-.11-.77.4-1.17.78-1.64.74-.92,1.59-1.76,2.32-2.69.57-.73.85-1.6,1.04-2.52.23-1.11.57-2.19.46-3.35-.03-.28-.1-.55-.1-.83-.02-1.07-.43-2.04-.89-2.95-.49-.99-1.19-1.87-1.77-2.81-.66-1.05-1.54-1.76-2.76-2.08-.71-.18-1.38-.52-2.1-.69-.52-.13-1.09-.19-1.62-.12-.57.07-1.14.28-1.66.52-.61.29-1.31.57-1.73,1.06-.37.43-.75.73-1.23.97-.18.09-.4.23-.46.4-.43,1.12-.76,2.27-.76,3.48,0,.57-.03,1.13-.03,1.7,0,.63.03,1.25.02,1.88,0,.54,0,1.09-.1,1.62-.14.8-.36,1.58-.53,2.37-.02.1.02.29.06.3.5.12,1.01.32,1.49.27.54-.06,1.05-.4,1.6-.54.22-.05.64.05.72.21.26.51.51,1.08.56,1.64.07.82-.05,1.65-.07,2.48,0,.21.08.41.11.55.35-.03.64-.13.87-.05.68.24,1.32.58,2,.81.75.26.83.89.93,1.51.05.33.02.67,0,1.01-.05.95-.89,2.01-1.78,2.08-.68.05-.97.57-1.14.97-.43,1-.73,2.08-.96,3.15-.15.71-.16,1.5.3,2.12.48.65,1.14,1.12,1.97,1.22.53.06,1.06.02,1.6.01.3,0,.65-.06.72.32.02.11-.3.39-.47.4-.84.04-1.69.02-2.56.02m-7.25,43.13s.07.06.11.1c-.31.13-.62.36-.93.38-1.13.08-2.27.17-3.39.08-.59-.04-.7.27-.83.62-.14.38.18.85.63.9.63.08,1.27.04,1.89.13.29.04.6.2.81.41.22.22-.17.73-.57.74-.67.01-1.35-.03-2.01.03-.17.01-.46.3-.44.43.03.19.26.47.44.49.69.09,1.4.09,2.1.13.21.01.46,0,.6.12.16.13.26.38.32.6.03.1-.1.34-.18.36-.61.1-1.23.28-1.83.21-.8-.09-1.4.12-1.77.87-.36.71-.04,1.4.74,1.55.44.08.9.12,1.35.11,1.67-.05,3.34.15,5-.2,1.26-.26,1.78-.9,1.9-1.95.12-.97.19-1.96.22-2.93.09-3.36.16-6.73.21-10.09.02-1.12-.04-2.25-.1-3.38-.09-1.48-.22-2.96-.34-4.48-.98,0-1.94-.02-2.9,0-.5.01-.83.28-.88.82-.04.38-.1.76-.12,1.14-.05,1.18-.07,2.36-.11,3.53,0,.1-.04.21-.04.31,0,.47-.03.94,0,1.41.02.46.11.91.14,1.36.05.77.05,1.55.11,2.32.05.62.18,1.24.21,1.86.02.47-.06.94-.12,1.4-.03.21-.13.41-.19.62m17.21-19.25c-.31.21-.57.35-.8.53-.78.63-1.55,1.27-2.52,1.6-.27.09-.44.24-.4.58.09.74.15,1.49.22,2.24.08.89.14,1.78.22,2.66.14,1.6.31,3.2.41,4.8.06,1.02.09,2.06-.01,3.07-.12,1.17-.31,2.34-.66,3.46-.16.51-.54,1.14-1.33,1.13-.79,0-1.58.03-2.36.11-.38.04-.77.17-1.11.36-.4.22-.35.62.06.85.67.37,1.37.56,2.14.49.31-.03.5.12.52.45.02.31-.05.56-.42.61-.5.07-1,.11-1.49.22-.26.06-.5.23-.74.34.17.27.31.56.52.8.11.13.33.19.52.22.46.09.93.12,1.38.23.17.04.3.23.45.35-.14.13-.27.32-.44.36-.32.09-.67.04-.98.14-.45.14-.9.33-1.31.56-.39.22-.47.67-.31,1.02.1.21.49.38.76.4.39.04.79-.07,1.19-.12.69-.09,1.37-.23,2.06-.27.92-.05,1.84-.06,2.76,0,1.19.08,1.76-.52,1.98-1.62.21-1.07.28-2.18.33-3.27.04-.82-.06-1.65-.09-2.47-.04-1.23-.08-2.46-.11-3.69-.04-1.71-.07-3.42-.11-5.13-.02-1-.07-2-.1-3-.07-2.16-.14-4.32-.21-6.49-.01-.48,0-.95,0-1.52m-.35-52.38c-.07.04-.13.07-.19.11.32.75.69,1.49.93,2.26.25.78.35,1.61.56,2.4.29,1.1.37,2.11.16,2.42-.07-.14-.14-.29-.25-.51-.14.28-.28.48-.33.71-.26,1.12-.45,2.27-.76,3.38-.28.97-.83,1.8-1.57,2.52-.4.38-.66.9-1,1.39.36.14.6.29.84.31.26.02.66,0,.76-.16.48-.79.89-1.63,1.31-2.46.05-.11.06-.24.09-.35.07.06.13.12.2.19.2,1.16-.94,1.82-1.17,2.9.34-.25.62-.43.88-.64.54-.46.87-1.06,1.17-1.69.15-.32.39-.61.52-.93.47-1.13.25-2.34.42-3.51.14-1.05-.17-2.11.08-3.17.07-.3-.09-.76-.3-1-.53-.59-.8-1.28-.93-2.03-.01-.07-.04-.18-.09-.19-.55-.14-.74-.55-.88-1.04-.09-.31-.29-.59-.43-.88m-2.74-3.72c.4.27.79.45,1.08.74.51.51.94,1.09,1.42,1.63.54.63,1.17,1.19,1.63,1.88.45.68.72,1.48,1.1,2.2.12.23.32.46.55.59.39.23.76.75.75,1.2,0,.13.04.25.07.38.05,0,.11,0,.16-.01.01-.18.06-.36.03-.53-.07-.35-.29-.7-.27-1.04.06-.9-.26-1.68-.7-2.41-.7-1.16-1.64-2.12-2.67-2.99-.39-.33-.83-.61-1.24-.93-.55-.44-1.19-.6-1.9-.72m3.39,18.67c1.02.25,1.71-.1,2.04-1,.04-.1.1-.18.13-.28.31-.9.62-1.81.93-2.71.1-.28.21-.55.35-.91,0-.02-.04-.18-.04-.34.03-1.21.14-2.43.06-3.64-.04-.51-.49-.99-.76-1.49-.06.02-.11.04-.17.06.02.27.05.54.06.81.01,1.12.06,2.25,0,3.37-.05.97-.22,1.93-.38,2.89-.13.78-.26,1.53-1.13,1.94-.5.24-1.04.6-1.11,1.29m5.67-7.69s-.08.04-.12.06c0,.09-.02.17-.02.26.07.85.14,1.7.21,2.55.1,1.27-.13,2.49-.45,3.71-.04.16.08.36.12.54.16-.07.41-.1.48-.22.26-.48.5-.98.68-1.5.12-.31.19-.67.18-1,0-.48-.09-.96-.17-1.44-.1-.61-.18-1.23-.35-1.82-.12-.4-.38-.76-.58-1.14m-.99,1.35c-.06.02-.12.04-.17.05-.02.19-.01.38-.06.56-.27.98-.53,1.96-.84,2.93-.22.69-.54,1.36-.76,2.05-.04.11.17.44.29.45.55.07,1.11-.39,1.22-.97.14-.75.17-1.52.35-2.26.17-.73.26-1.45.18-2.19-.02-.21-.14-.41-.21-.62m-15.46,6.96s-.01.06-.02.09c-.11,0-.21,0-.32,0-.35-.01-.65.03-.65.48,0,.45.3.47.65.49.32.02.64.11.97.16.29.05.58.15.86.13.17-.01.46-.22.47-.35.01-.19-.15-.5-.31-.56-.53-.19-1.09-.29-1.64-.43m.23,3.63c.39-.16.74-.33,1.12-.45.31-.09.45-.25.42-.56-.04-.33-.25-.44-.55-.41-.57.07-1.13.12-1.69.23-.33.06-.45.6-.16.8.26.18.58.26.87.39m17.18-4.95c.25-.09.46-.13.46-.17,0-.3-.03-.61-.06-.91-.06,0-.12,0-.18,0-.06.31-.13.61-.22,1.08"/>
  <path class="cls-2" d="m58.27,82.77c.73-.31,1.51-.64,2.3-.97.22-.09.48-.13.67-.27.72-.51,1.45-.84,2.37-.96.67-.09,1.34-.13,2.01-.14.35,0,.72.11,1.04.26.57.26.77.86.53,1.43-.25.6-.45,1.17-.02,1.81.42.61.2,1.21-.23,1.58.35.51.68.93.93,1.4.08.15-.05.41-.1.61-.03.1-.13.17-.16.26-.29.96-.97,1.11-1.9,1.15-1.67.06-3.33.31-4.99.49-.55.06-1.1.14-1.75.22.05,1.03.11,2.03.14,3.02.02.8.04,1.59,0,2.39-.08,1.69.19,3.34.53,4.99.12.59.27,1.17.4,1.76.02.07.03.14.01.21-.36,1.63,1.05,2.27,2.25,2.05,1.18-.21,2.37-.48,3.58.05.82.36,1.4,1.6,1.14,2.43-.29.93-.54,1.88-.78,2.83-.07.29-.04.6-.02.9.04.54.2,1.08.15,1.6-.03.35-.28.75-.56.99-.27.24-.68.33-1.04.44-.49.14-1,.24-1.51.34-.42.08-.85.19-1.27.2-.45.02-.9-.06-1.36-.09-.85-.07-1.71-.15-2.56-.22-1.88-.15-3.39-2.02-3.52-3.38-.15-1.65-.2-3.32-.34-4.98-.09-1.13-.29-2.24-.38-3.37-.07-.9-.06-1.8-.03-2.7.04-1.22.11-2.45.21-3.67.08-1.04-.14-2.03-.38-3.03-.02-.07-.04-.13-.05-.2-.08-.69-.07-.61-.73-.56-1.16.09-2.33.33-3.49-.05-.29-.1-.64-.01-.99-.01,0,.85,0,1.66,0,2.48,0,.2-.09.41-.09.61,0,3.08,0,6.16,0,9.24,0,.26.03.53.12.77.04.12.26.28.37.26.65-.09,1.29-.24,1.93-.36.34-.06.69-.17,1.02-.15.64.04,1.65,1.23,1.63,1.88,0,.35-.07.69-.12,1.15-.57.23-.39.97-.6,1.52-.15.41.28.52.53.7.2.14.53.23.6.41.12.33.14.73.11,1.09-.07.77-.4,1.49-.96,1.97-.42.36-1.02.55-1.57.71-.79.23-1.6.38-2.41.52-.2.03-.45-.2-.63-.14-.61.19-1.18.3-1.85.19-.72-.11-1.48.07-2.22.06-1.02,0-1.9-.49-2.32-1.35-.44-.89-.66-1.92-.8-2.92-.21-1.46-.29-2.93-.37-4.4-.04-.79.07-1.59.08-2.39,0-.29-.09-.59-.09-.88,0-2.67,0-5.34,0-8.01,0-1.11-.09-2.22-.09-3.33,0-.63.1-1.26.16-1.94-.15-.07-.36-.14-.54-.27-.29-.2-.68-.33-.61-.82.02-.14-.09-.34-.2-.46-.21-.23-.43-.42-.22-.77.03-.06-.02-.21-.08-.28-.7-.78-.71-1.81-.95-2.74-.22-.84-.36-1.69-.48-2.55-.06-.38-.03-.8.06-1.19.25-1.15.45-2.32.87-3.41.4-1.02,1-1.98,1.61-2.91.72-1.1,1.6-2.1,2.3-3.21.53-.84.91-1.77,1.36-2.66.6-1.18.56-2.37.08-3.57-.26-.65-.5-1.32-.84-1.93-.21-.38-.63-.63-.85-1-.24-.4-.71-.63-.76-1.18-.02-.24-.34-.44-.52-.68-.28-.38-.58-.74-.8-1.15-.35-.62-.65-1.28-.98-1.92-.16-.32-.38-.62-.5-.96-.2-.55-.51-1.08-.35-1.71.02-.08,0-.18-.05-.25-.58-1.11-.72-2.33-.86-3.54-.03-.22.16-.45.16-.68.02-.99.03-1.99,0-2.98-.01-.23-.19-.55-.4-.67-.66-.39-.86-1.08-1.2-1.67-.64-1.09-1.22-2.24-1.12-3.54.06-.72.4-1.42.58-2.14.08-.32.09-.65.14-1.02.13.11.21.18.21.18,0-.68-.11-1.43.02-2.14.21-1.16.04-2.43.83-3.44.39-.5.8-1,1.27-1.42.31-.27.75-.39,1.12-.6.71-.39,1.4-.82,2.12-1.19,1.71-.89,3.46-1.74,5.34-2.18,1.26-.29,2.55-.25,3.72.51.47.3,1.09.36,1.55.67.47.31.91.74,1.23,1.2.5.73.66,1.54.45,2.45-.08.34.23.75.27,1.14.16,1.44.28,2.88.44,4.32.1.95.42,1.83.93,2.64.22.35.42.67.28,1.16-.08.26.21.61.27.93.06.35.1.72.06,1.07-.1.79-.87.69-1.36.96-.65.37-1.39.37-2.08.57-.34.1-.45.3-.42.61.06.57.14,1.14.21,1.71.1.83.13,1.67.34,2.47.29,1.11-.15,2.06-.51,3.03-.04.11-.14.22-.14.33,0,1.02-.12,2.03.56,2.97.46.64.81,1.43.97,2.2.12.55-.15,1.18-.26,1.78-.04.24-.22.47-.19.69.07.68-.35,1.09-.76,1.51-.46.49-.92.98-1.39,1.45-.15.15-.49.22-.53.38-.15.61-.3,1.25-.29,1.87.01.76.16,1.52.3,2.27.17.88.33,1.79,1,2.45.54.53,1.16.99,1.72,1.51.31.29.56.64.84.97.63.73,1.31,1.41,1.86,2.19.96,1.36,1.8,2.81,2.13,4.47.24,1.19.33,2.41.5,3.64m-6.97-34.39c-.16-1.18-.34-2.26-.45-3.35-.04-.44.02-.92.17-1.34.15-.44.5-.71,1.03-.77.83-.09,1.64-.27,2.38-.71.28-.17.32-.33.23-.58-.12-.31-.31-.6-.4-.91-.22-.71-.33-1.47-.63-2.14-.17-.4-.31-.77-.37-1.21-.16-1.04-.4-2.06-.6-3.1-.04-.22.02-.48-.07-.68-.24-.54-.75-.33-1.15-.29-.87.08-1.73.23-2.6.34-.33.04-.67.03-.99.07-1.02.13-2.03.37-3.05.38-1.03,0-1.85.47-2.64.97-.45.29-.87.83-1,1.34-.17.62-.35,1.25-.44,1.91-.17,1.22.1,2.36.27,3.52.15,1.02.45,2-.09,3.01-.41.76-.91,1.29-1.79,1.39-.11.01-.29.08-.31.14-.11.64-.25,1.28-.27,1.92-.01.43.18.87.21,1.31.05.72,0,1.45.09,2.17.15,1.26.57,2.45,1.1,3.6.23.51.38,1.12.75,1.5.84.85,1.23,1.99,2.06,2.86.72.75,1.14,1.8,1.67,2.73.2.36.39.74.49,1.13.18.74.25,1.51.45,2.24.18.68.03,1.31-.17,1.94-.14.42-.38.82-.47,1.25-.23,1.11-.63,2.11-1.46,2.93-.5.5-.95,1.05-1.39,1.6-.19.24-.24.57-.42.82-.47.67-1,1.31-1.45,1.99-.88,1.34-1.21,2.86-1.12,4.42.08,1.43.43,2.84.6,4.27.19,1.63,1.31,2.57,2.51,3.4.69.48,1.54.72,2.29,1.12.75.4,1.55.22,2.32.26.3.01.55.03.8.17.12.07.24.18.36.18,1.28.04,2.59.22,3.84.05.88-.12,1.75-.24,2.64-.26.22,0,.44-.06.66-.1,1.83-.37,3.51-1.3,5.41-1.41,1.07-.06,2.14-.26,3.21-.4.66-.08,1.32-.12,1.97-.23.16-.03.39-.27.4-.43.01-.16-.17-.4-.33-.5-.54-.34-1.13-.5-1.78-.46-.16,0-.44-.19-.48-.34-.04-.14.13-.38.27-.51.11-.11.31-.15.48-.18.57-.08,1.14-.11,1.7-.24.19-.04.42-.29.46-.48.02-.12-.26-.42-.42-.44-.39-.04-.8.06-1.2.06-.34,0-.7-.02-1.03-.11-.13-.04-.26-.28-.27-.44-.01-.14.11-.39.22-.42.49-.13,1-.23,1.51-.29.4-.05.96-.44,1.01-.78.05-.36-.31-.84-.81-.86-.6-.02-1.28-.03-1.78.23-.84.44-1.75.8-2.53,1.29-.92.59-1.94.89-2.9,1.35-.72.35-1.63.32-2.39.61-.96.37-2-.08-2.92.4-.04.02-.11.01-.16,0-.57-.13-1.16-.2-1.71-.4-.78-.28-1.54-.65-2.3-.99-.52-.23-1.08-.4-1.53-.74-.87-.65-1.52-1.5-2.01-2.5-.53-1.08-.66-2.1.12-3.14.24.21.44.55.71.6.42.09.4.35.46.63.17.81.24,1.66.9,2.04,0,.3-.08.56.01.65.28.29.61.53.94.76,1.33.92,2.71,1.74,4.44,1.5.59-.08,1.2-.07,1.78-.18.71-.14,1.41-.35,2.09-.58.19-.07.42-.33.43-.52.03-.48-.03-.98-.09-1.46-.08-.69-.13-1.39-.29-2.06-.27-1.14-.73-2.19-1.38-3.21-1.27-1.98-3.03-3.45-4.73-4.98-.47-.42-.7-.86-.82-1.43-.23-1.06-.44-2.13-.74-3.17-.32-1.06-.24-2.09.31-3,.4-.67.98-1.26,1.56-1.8.86-.8,1.58-1.64,1.32-2.92-.15-.71-.22-1.47-.56-2.08-.41-.74-.98-1.38-.81-2.28-.82-.25-1.67.02-2.41-.39-.27-.15-.56-.26-.81-.44-.27-.2-.52-.46-.76-.71-.27-.28-.46-.57-.3-1.01.06-.18-.02-.46-.12-.65-.25-.44-.16-.81.19-1.1.41-.35.96-.58,1.25-1,.41-.6.94-.51,1.48-.49.68.02,1.36.08,2.13.13m1.17,62.67c-.38-.04-.75-.16-1.09-.09-.72.14-1.39.17-1.95-.4-.08-.08-.17-.2-.16-.3.03-.34.57-.82.91-.86.22-.03.49-.01.65-.13.16-.12.31-.38.3-.58,0-.16-.23-.42-.38-.44-.43-.04-.88-.02-1.31.06-.29.05-.42-.03-.5-.28-.08-.23-.16-.45.14-.62.44-.25.89-.43,1.42-.35.24.03.5.02.74-.03.33-.08.66-.23.55-.67-.1-.43-.46-.37-.77-.35-.63.03-1.27.15-1.89.08-.43-.05-.97-.26-1.22-.58-.47-.62-.68-1.39-.69-2.2-.03-3.64-.07-7.27-.1-10.91,0-.03.01-.08,0-.1-.13-.17-.23-.44-.41-.5-.36-.13-.76-.16-1.15-.23-.55-.1-1.11-.14-1.64-.3-.52-.16-1-.44-1.57-.71-.04.58-.1,1.08-.1,1.58,0,.6.1,1.2.09,1.8,0,.86-.09,1.73-.09,2.59-.02,1.56,0,3.12,0,4.68,0,.44,0,.89-.02,1.33-.02.51-.11,1.02-.07,1.52.12,1.81.26,3.62.42,5.43.06.73.09,1.5.64,2.07.6.61,1.23,1.18,2.18,1.14.65-.03,1.29-.08,1.94-.1.53-.02,1.07,0,1.6,0,.36,0,.71-.03,1.07,0,.84.07,2.13-.68,2.47-1.54m5.6-21.05c-.62.21-1.18.4-1.73.57-.92.28-.9.28-.93,1.22-.04,1.4.14,2.81-.19,4.2-.17.71-.23,1.45-.22,2.18.03,1.93-.12,3.87.17,5.8.18,1.18.11,2.39.13,3.58.01,1.02.15,2,.55,2.95.36.85.8,1.65,1.81,1.74,1.26.11,2.54.12,3.81.11.68,0,1.36-.11,2.04-.2.75-.09,1.45-.3,1.83-1.24-.5.11-.94.12-1.31.3-.64.31-1.22.14-1.75-.17-.18-.11-.25-.51-.25-.79,0-.18.18-.47.33-.51.5-.13,1.04-.12,1.54-.25.36-.09.69-.31,1-.51.09-.06.15-.32.1-.43-.04-.09-.27-.11-.42-.12-.58-.05-1.25.27-1.66-.4-.13-.22-.3-.52-.24-.73.04-.18.36-.39.58-.42.55-.09,1.12-.07,1.68-.13.35-.04.72-.14.76-.56.03-.3-.75-.99-1.07-.96-.34.04-.66.17-1,.25-.84.21-1.68.41-2.53.61-.09.02-.2-.01-.29-.05-.23-.11-.45-.3-.68-.33-.86-.12-1.1-.72-1.2-1.44-.15-1.1-.32-2.2-.43-3.31-.16-1.63-.34-3.27-.41-4.91-.07-1.78-.02-3.57-.02-5.36v-.67m-9.02-40.49c-.29.04-.66.05-1.01.14-.32.08-.6.31-.47.69.06.19.29.48.44.48,1.01,0,2.02-.07,3.03-.16.12-.01.31-.29.32-.45,0-.16-.17-.44-.31-.46-.64-.12-1.28-.16-2-.24m.65,3.24s0-.03,0-.04c.23,0,.48.06.68-.02.18-.07.42-.29.43-.45,0-.16-.23-.43-.4-.47-.5-.12-1.02-.17-1.54-.22-.31-.03-.65-.06-.95.02-.16.04-.34.3-.35.47-.01.14.18.41.32.44.59.13,1.19.19,1.79.28"/>
  <path class="cls-3" d="m83.88,60.98c.87,0,1.72.02,2.56-.02.17,0,.49-.29.47-.4-.07-.39-.42-.33-.72-.32-.53.01-1.07.05-1.6-.01-.83-.1-1.5-.57-1.97-1.22-.46-.62-.45-1.41-.3-2.12.23-1.07.53-2.14.96-3.15.17-.4.47-.92,1.14-.97.88-.06,1.73-1.12,1.77-2.08.02-.34.05-.68,0-1.01-.1-.62-.18-1.25-.93-1.51-.68-.24-1.32-.58-2-.81-.23-.08-.52.02-.87.05-.03-.13-.11-.34-.11-.55.02-.83.14-1.66.07-2.48-.05-.56-.3-1.12-.55-1.64-.08-.16-.5-.27-.73-.22-.54.13-1.05.48-1.6.54-.48.05-1-.15-1.49-.27-.04-.01-.08-.2-.06-.3.17-.79.39-1.58.53-2.37.09-.53.09-1.08.1-1.62,0-.62-.02-1.25-.02-1.88,0-.57.03-1.13.03-1.7,0-1.22.33-2.36.76-3.48.07-.17.28-.31.46-.39.48-.24.86-.54,1.23-.97.42-.49,1.11-.77,1.73-1.06.52-.24,1.09-.45,1.66-.52.53-.07,1.1,0,1.62.12.71.17,1.38.51,2.1.69,1.22.32,2.1,1.03,2.76,2.08.59.94,1.29,1.82,1.78,2.81.45.92.86,1.89.89,2.95,0,.28.07.55.1.83.11,1.15-.23,2.24-.46,3.35-.19.92-.47,1.79-1.04,2.52-.73.93-1.58,1.77-2.32,2.69-.38.47-.88.87-.78,1.64.08.56.4.69.81.77.56.11,1.13.18,1.71.21.34.02.69-.06,1.04-.11.24-.03.48-.08.72-.09.38-.02.54.17.53.55-.02.76,0,1.5-.35,2.24-.22.48-.1,1.1-.19,1.65-.18,1.12-.42,2.22-1.34,3-.3.26-.67.43-.99.68-.89.71-1.36,1.73-1.86,2.71-.5.97-.7,2.01-.69,3.1.01,1.62.52,3.01,1.5,4.33.77,1.05,1.93,1.6,2.73,2.57.7.84,1.43,1.67,2.09,2.54.23.3.26.74.4,1.1.23.61.51,1.21.7,1.83.4,1.29.49,2.55-.04,3.87-.38.95-.82,1.85-1.5,2.57-.71.75-1.58,1.35-2.39,2.01-.05.04-.15.05-.18.1-.38.79-1.16,1.11-1.83,1.54-1.48.95-3.1,1.48-4.86,1.6-1.07.08-2.12.21-3.19.3-.22.02-.45-.11-.66-.09-.69.08-1.36.21-2.05.32-.44.07-.89.18-1.34.19-.82.03-1.64,0-2.45.01-.42,0-.84.12-1.25.08-.45-.04-.9-.21-1.35-.3-.85-.17-1.72-.27-2.4-.93.24-.47.51-.69,1.16-.6.81.11,1.68.23,2.47-.18.18-.09.38-.35.37-.51-.01-.16-.27-.35-.46-.42-.31-.12-.66-.16-.99-.23-.09-.02-.2-.04-.28,0-.64.27-1.29.09-1.92,0-.18-.03-.42-.23-.46-.4-.04-.16.08-.41.21-.56.45-.56,1.02-.27,1.56-.17.24.04.47.12.71.14.42.03.85-.33.92-.78.07-.43-.08-.69-.52-.89-.55-.25-1.19-.43-1.46-1.07-.06-.14-.11-.28-.17-.44.81-.19,1.48.04,2.17.3.98.37,1.99.67,2.98,1.01.34.12.66.27,1.08.43,0,0,.09-.1.2-.1.71-.01,1.42,0,2.13,0,.6,0,1.21-.02,1.81-.03.23,0,.47.02.7,0,.21-.01.41-.05.61-.08.19-.03.37-.07.56-.12.33-.08.66-.16.98-.27.88-.29,1.75-.59,2.62-.91.3-.11.6-.25.84-.46.37-.32.67-.7,1.01-1.06.17-.18.31-.41.52-.53.78-.42.94-1.21,1.14-1.94.14-.5,0-1.06.04-1.59.02-.37-.2-.5-.47-.46-.21.03-.45.19-.56.37-.19.32-.28.71-.44,1.05-.19.4-.37.83-.66,1.15-.56.61-1.18,1.18-1.82,1.71-.27.22-.67.27-1,.41-1.04.43-2.07.85-3.21.95-.53.05-1.03.29-1.56.36-.31.04-.64-.07-.94-.17-1.12-.38-2.28-.75-2.91-1.85-.25-.45-.38-1-.43-1.52-.12-1.28.02-2.49.89-3.56.55-.68.91-1.52,1.46-2.21.47-.58,1.06-1.07,1.63-1.56,1.08-.93,2.19-1.83,3.26-2.77.19-.17.33-.45.4-.7.56-1.9.43-3.75-.63-5.35m-.79-26.24c.11-.19.18-.44.34-.54.92-.55,1.83-1.14,2.94-1.24.07,0,.13-.1.2-.15-.05-.06-.1-.15-.16-.17-.6-.1-1.21-.09-1.75.23-1.42.82-2.84,1.66-4.24,2.51-.13.08-.27.35-.23.47.1.3.25.64.48.84.52.45,1.1.84,1.67,1.24.44.3.98.49,1.33.87.32.34.67.57,1.07.6.92.07,1.86.15,2.76,0,.66-.1,1.28-.53,1.9-.83.67-.31.99-.87.93-1.58-.03-.43-.18-.86-.34-1.27-.26-.64-.51-1.29-.88-1.86-.51-.79-1.43-.88-2.27-1.11.03.09.04.2.09.24.54.39,1.1.74,1.63,1.15.19.15.29.41.45.66-.98-.25-1.82-.49-2.67-.68-.89-.2-1.68.21-2.49.54.08.14.31.36.28.52-.14.68.1,1.29.23,1.93.05.27-.05.45-.39.36-.42-.11-.84-.2-1.26-.28-.49-.1-1.11-.74-1.09-1.24.02-.61.61-.51.98-.67.09-.04.22.01.31-.03.29-.13.58-.28.87-.42-.02-.07-.05-.13-.07-.19-.21.03-.41.06-.63.08m4.99,16.52c.19-1.66-.45-3.14-.85-4.66-.04-.16-.36-.36-.53-.34-.15.02-.39.32-.38.48.03.48.16.95.26,1.42.18.84.43,1.67.55,2.52.15,1.11-.12,2.17-.57,3.19-.13.3-.13.67.25.81.4.15.61-.14.75-.47.39-.96.68-1.94.52-2.97m-9.53,25.82c0,.6.18.79.77.79.79,0,1.03-.18,1.03-.76,0-.54-.45-.94-1.03-.93-.48,0-.77.35-.77.9"/>
  <path class="cls-3" d="m76.63,104.12c.07-.2.16-.4.19-.61.06-.47.14-.94.12-1.4-.03-.62-.16-1.24-.21-1.86-.06-.77-.06-1.55-.11-2.32-.03-.46-.12-.91-.14-1.36-.02-.47,0-.94,0-1.41,0-.1.04-.21.04-.31.04-1.18.07-2.36.11-3.53.01-.38.08-.76.12-1.15.05-.54.38-.8.88-.82.96-.02,1.92,0,2.9,0,.12,1.52.25,3,.34,4.48.07,1.12.12,2.25.1,3.38-.05,3.37-.12,6.73-.21,10.09-.03.98-.1,1.96-.21,2.93-.13,1.06-.64,1.69-1.9,1.95-1.66.35-3.33.15-5,.2-.45.01-.91-.02-1.35-.11-.78-.15-1.09-.84-.74-1.55.38-.75.97-.95,1.77-.87.6.06,1.22-.11,1.83-.21.08-.01.2-.25.18-.36-.06-.22-.16-.46-.32-.6-.14-.11-.39-.11-.6-.12-.7-.05-1.4-.04-2.1-.13-.17-.02-.41-.3-.44-.49-.02-.12.27-.42.44-.43.67-.05,1.34-.01,2.01-.03.4,0,.79-.52.57-.74-.21-.2-.52-.37-.81-.41-.62-.09-1.26-.06-1.89-.13-.45-.06-.77-.52-.63-.9.13-.34.24-.66.83-.62,1.12.08,2.26,0,3.39-.08.32-.02.62-.25.94-.38-.04-.03-.08-.06-.11-.1"/>
  <path class="cls-3" d="m93.84,84.86c0,.57-.01,1.04,0,1.52.07,2.16.14,4.32.21,6.49.03,1,.08,2,.1,3,.04,1.71.07,3.42.11,5.13.03,1.23.07,2.46.11,3.69.03.82.13,1.65.09,2.47-.05,1.09-.12,2.2-.33,3.27-.22,1.11-.79,1.71-1.98,1.62-.92-.07-1.84-.05-2.76,0-.69.04-1.38.18-2.06.27-.4.05-.8.16-1.19.12-.27-.02-.66-.19-.76-.4-.16-.35-.08-.8.31-1.02.41-.23.86-.42,1.31-.56.31-.1.66-.05.98-.14.17-.04.29-.24.44-.36-.15-.12-.28-.31-.45-.35-.45-.11-.92-.14-1.38-.23-.18-.04-.4-.1-.52-.22-.21-.24-.35-.53-.52-.8.25-.12.48-.29.74-.34.49-.11.99-.16,1.49-.22.37-.05.44-.3.42-.61-.02-.33-.21-.48-.52-.45-.77.07-1.47-.12-2.14-.49-.4-.22-.46-.62-.06-.85.33-.18.73-.32,1.11-.36.78-.08,1.58-.11,2.36-.11.79,0,1.17-.62,1.33-1.14.35-1.11.54-2.29.66-3.45.1-1.02.07-2.05.01-3.08-.1-1.6-.27-3.2-.41-4.8-.08-.89-.14-1.78-.22-2.66-.07-.75-.13-1.49-.22-2.24-.04-.34.13-.49.4-.58.97-.33,1.75-.97,2.52-1.6.22-.18.48-.33.8-.54"/>
  <path class="cls-1" d="m93.5,32.48c.15.29.35.57.43.88.14.5.34.9.88,1.04.04.01.08.12.09.19.13.76.4,1.44.93,2.03.22.24.37.7.3,1-.24,1.06.07,2.12-.08,3.17-.16,1.17.06,2.39-.42,3.51-.14.33-.37.61-.52.93-.3.63-.64,1.23-1.17,1.69-.25.21-.53.39-.88.64.22-1.08,1.36-1.74,1.17-2.9-.07-.06-.13-.12-.2-.19-.03.12-.04.25-.09.36-.42.83-.83,1.67-1.31,2.46-.1.15-.5.18-.76.16-.24-.02-.48-.17-.84-.31.34-.48.6-1,1-1.39.74-.72,1.3-1.54,1.57-2.52.32-1.11.5-2.25.76-3.38.05-.22.2-.43.33-.71.11.22.18.37.25.51.22-.31.13-1.33-.16-2.42-.21-.79-.31-1.62-.56-2.4-.25-.77-.62-1.51-.94-2.26.07-.03.13-.07.2-.11m.91,11.61c1.11-.3,1.29-2.78.62-4.18-.08.2-.14.41-.1.6.11.57.28,1.12.03,1.72-.24.58-.36,1.21-.55,1.86"/>
  <path class="cls-1" d="m90.75,28.76c.71.12,1.35.28,1.9.72.4.32.84.6,1.24.93,1.03.87,1.97,1.83,2.67,2.99.44.73.76,1.5.7,2.41-.02.34.19.69.27,1.04.04.17-.01.36-.03.53-.05,0-.11,0-.16.01-.02-.13-.07-.25-.07-.38,0-.46-.36-.98-.75-1.2-.22-.13-.43-.36-.55-.59-.38-.73-.65-1.53-1.1-2.2-.46-.68-1.08-1.25-1.63-1.88-.47-.54-.91-1.12-1.42-1.63-.29-.29-.68-.48-1.08-.74"/>
  <path class="cls-1" d="m94.14,47.43c.06-.69.6-1.05,1.11-1.29.87-.41,1.01-1.16,1.13-1.94.15-.96.32-1.92.38-2.89.06-1.12,0-2.25,0-3.37,0-.27-.04-.54-.06-.81.06-.02.11-.04.17-.06.26.5.72.98.76,1.49.09,1.21-.03,2.42-.06,3.64,0,.16.03.32.04.34-.14.36-.26.63-.35.91-.31.9-.62,1.81-.93,2.71-.03.1-.1.18-.13.28-.33.9-1.02,1.25-2.04,1"/>
  <path class="cls-1" d="m99.82,39.74c.2.38.46.74.58,1.14.17.59.25,1.21.35,1.82.08.48.16.96.17,1.44,0,.33-.06.68-.18,1-.19.51-.42,1.02-.68,1.5-.07.12-.32.15-.48.22-.05-.18-.17-.38-.12-.54.32-1.22.55-2.44.45-3.71-.07-.85-.14-1.7-.21-2.55,0-.09.01-.17.02-.26.04-.02.08-.04.12-.06"/>
  <path class="cls-1" d="m98.83,41.08c.07.21.19.41.21.62.07.74,0,1.46-.18,2.19-.18.74-.21,1.51-.35,2.26-.11.59-.67,1.04-1.22.98-.12-.01-.33-.34-.29-.45.22-.69.54-1.36.76-2.05.31-.97.57-1.95.84-2.93.05-.18.04-.38.06-.56.06-.02.12-.04.17-.05"/>
  <path class="cls-1" d="m83.37,48.04c.55.14,1.11.24,1.64.43.16.06.32.37.31.56,0,.13-.29.34-.46.35-.28.03-.58-.08-.86-.13-.32-.06-.64-.14-.97-.16-.35-.02-.65-.04-.65-.49,0-.45.31-.49.65-.48.11,0,.21,0,.32,0,0-.03.01-.06.02-.09"/>
  <path class="cls-1" d="m83.6,51.67c-.29-.13-.62-.21-.87-.39-.28-.2-.17-.73.16-.8.56-.11,1.12-.17,1.69-.23.3-.03.52.08.55.41.03.31-.11.47-.42.56-.38.11-.73.29-1.12.45"/>
  <path class="cls-1" d="m100.79,46.72c.1-.46.16-.77.22-1.08.06,0,.12,0,.18,0,.02.3.06.61.06.91,0,.04-.21.08-.46.17"/>
  <path class="cls-3" d="m51.3,48.37c-.78-.05-1.45-.11-2.13-.13-.54-.02-1.07-.11-1.48.49-.29.42-.84.65-1.25,1-.35.3-.44.67-.19,1.1.1.18.19.46.12.64-.16.44.03.74.3,1.02.24.25.48.5.76.71.24.18.54.29.81.44.74.41,1.58.14,2.41.39-.17.9.4,1.54.81,2.28.34.61.42,1.38.56,2.08.26,1.28-.45,2.11-1.32,2.92-.58.54-1.17,1.12-1.56,1.79-.54.92-.62,1.94-.3,3,.31,1.04.51,2.11.74,3.17.12.57.35,1,.82,1.43,1.7,1.54,3.46,3,4.73,4.98.65,1.02,1.11,2.06,1.38,3.21.16.67.21,1.37.29,2.06.06.49.12.98.09,1.46-.01.18-.24.45-.43.51-.68.24-1.38.44-2.09.58-.58.11-1.19.1-1.78.18-1.74.24-3.11-.58-4.44-1.5-.33-.23-.66-.47-.94-.76-.09-.09-.01-.34-.01-.65-.66-.38-.73-1.23-.9-2.04-.06-.27-.04-.54-.46-.63-.26-.05-.47-.39-.7-.6-.79,1.04-.65,2.07-.12,3.14.49.99,1.13,1.85,2.01,2.5.45.33,1.01.51,1.53.74.76.34,1.52.71,2.3.99.55.2,1.13.27,1.71.4.05.01.11.02.16,0,.92-.48,1.96-.03,2.92-.4.76-.29,1.67-.26,2.39-.61.96-.46,1.98-.76,2.9-1.35.78-.5,1.69-.86,2.53-1.29.5-.26,1.18-.25,1.78-.23.5.02.86.5.81.86-.05.33-.61.73-1.01.78-.51.06-1.01.16-1.51.29-.11.03-.24.28-.22.42.01.16.14.41.27.44.33.09.68.11,1.02.11.4,0,.81-.1,1.2-.05.17.02.45.32.42.44-.04.19-.27.44-.45.48-.56.12-1.13.15-1.7.24-.17.02-.36.07-.48.18-.14.13-.31.38-.27.52.04.15.32.35.48.34.65-.04,1.25.12,1.78.46.16.1.34.34.33.5-.01.16-.24.4-.4.43-.65.11-1.31.15-1.97.23-1.07.13-2.13.33-3.21.4-1.9.11-3.58,1.04-5.41,1.41-.22.04-.44.1-.67.1-.89.02-1.76.14-2.64.26-1.25.17-2.56,0-3.84-.05-.12,0-.24-.12-.36-.18-.25-.14-.5-.16-.8-.17-.77-.04-1.58.14-2.32-.26-.75-.4-1.6-.64-2.29-1.12-1.2-.83-2.32-1.77-2.51-3.4-.17-1.43-.51-2.84-.6-4.27-.09-1.56.23-3.08,1.12-4.42.45-.68.98-1.32,1.45-1.99.17-.25.23-.58.42-.82.44-.56.89-1.1,1.39-1.6.83-.82,1.23-1.82,1.46-2.93.09-.43.33-.82.46-1.25.21-.63.35-1.25.17-1.94-.19-.74-.26-1.5-.45-2.24-.1-.39-.29-.77-.49-1.13-.53-.93-.95-1.98-1.67-2.73-.83-.87-1.22-2.01-2.06-2.86-.37-.38-.52-.99-.75-1.5-.53-1.15-.95-2.34-1.1-3.6-.09-.72-.04-1.45-.09-2.17-.03-.44-.22-.88-.21-1.31.02-.64.16-1.28.27-1.92.01-.06.19-.13.3-.14.88-.1,1.39-.63,1.79-1.39.55-1.02.24-1.99.09-3.01-.16-1.16-.43-2.3-.27-3.52.09-.66.27-1.29.44-1.91.14-.51.56-1.05,1.01-1.34.79-.5,1.61-.96,2.64-.97,1.02,0,2.03-.25,3.05-.38.33-.04.67-.03,1-.07.87-.11,1.73-.25,2.6-.34.4-.04.9-.25,1.15.29.09.2.03.46.07.68.2,1.03.44,2.06.6,3.1.07.44.2.81.37,1.21.29.68.41,1.43.63,2.14.1.32.28.6.4.91.1.25.05.41-.23.58-.74.44-1.55.62-2.38.71-.53.06-.88.33-1.03.77-.15.42-.21.9-.17,1.34.1,1.09.28,2.17.45,3.35m.7-11.11c-.12-.05-.27-.07-.33-.15-.69-.95-1.81-1.23-2.76-1.77-.12-.07-.31-.03-.46-.02-.58.02-1.17.12-1.74.06-.86-.1-1.61.2-2.28.6-.55.33-.98.88-1.42,1.37-.53.57-.44,1.21.17,1.69.26.21.53.4.75.65.35.41.8.53,1.29.59.1.01.23,0,.31.05,1.04.71,2.11.57,3.17.11.49-.21.93-.55,1.39-.84.43-.28.86-.56,1.28-.86.09-.07.22-.22.2-.28-.2-.52.32-.75.43-1.19m-5.44,19.63c-.11-.28-.14-.44-.22-.57-.29-.47-.64-.9-.9-1.39-.66-1.23-1.09-2.53-1.29-3.92-.18-1.26-.28-2.52.63-3.57.44-.5.34-1,.09-1.7-.24.37-.49.62-.59.93-.31.96-.88,1.83-.9,2.89-.02.84-.16,1.68-.16,2.52,0,.4.15.82.33,1.18.26.55.58,1.09.93,1.59.45.64.94,1.24,1.44,1.84.1.11.33.11.64.2"/>
  <path class="cls-3" d="m52.47,111.04c-.34.86-1.63,1.61-2.47,1.54-.35-.03-.71,0-1.07,0-.53,0-1.07-.01-1.6,0-.65.02-1.3.07-1.94.1-.94.04-1.58-.53-2.17-1.14-.56-.57-.58-1.34-.64-2.07-.16-1.81-.3-3.62-.42-5.43-.03-.5.05-1.02.07-1.52.02-.44.02-.89.02-1.33,0-1.56-.01-3.12,0-4.68,0-.86.09-1.73.09-2.59,0-.6-.09-1.2-.09-1.8,0-.5.06-1,.1-1.58.57.26,1.05.54,1.57.71.53.16,1.09.21,1.64.31.39.07.79.1,1.15.23.17.06.28.32.41.5.02.02,0,.07,0,.1.03,3.64.08,7.27.1,10.91,0,.81.22,1.58.69,2.19.25.32.78.53,1.22.58.62.07,1.26-.05,1.89-.08.31-.01.67-.07.77.35.1.44-.22.59-.56.67-.24.06-.5.07-.74.03-.53-.07-.98.1-1.42.35-.3.17-.21.39-.14.62.08.25.22.33.51.28.43-.07.88-.1,1.31-.06.15.01.38.28.38.44,0,.2-.14.46-.3.58-.16.12-.43.1-.65.13-.35.04-.89.52-.91.86,0,.1.08.22.16.3.56.57,1.23.54,1.95.4.33-.06.71.06,1.09.09"/>
  <path class="cls-3" d="m58.06,89.99v.68c0,1.79-.05,3.58.02,5.36.06,1.64.25,3.27.41,4.91.11,1.11.27,2.21.43,3.31.1.72.34,1.33,1.2,1.44.24.03.45.23.69.33.09.04.2.07.29.05.84-.19,1.68-.4,2.52-.61.33-.08.66-.22,1-.25.32-.03,1.1.66,1.07.96-.04.42-.41.52-.76.56-.56.06-1.13.04-1.68.13-.22.04-.54.24-.58.42-.05.22.11.51.24.73.41.67,1.08.36,1.66.4.15.01.38.03.41.12.05.11,0,.36-.1.43-.31.21-.65.42-1,.51-.5.13-1.04.12-1.54.25-.15.04-.33.33-.33.51,0,.27.07.68.25.79.53.31,1.1.48,1.75.17.37-.18.82-.19,1.31-.3-.38.94-1.07,1.14-1.83,1.24-.68.08-1.36.19-2.04.2-1.27,0-2.55,0-3.81-.11-1.01-.09-1.46-.89-1.81-1.74-.4-.95-.53-1.93-.55-2.95-.02-1.2.05-2.41-.13-3.58-.29-1.94-.15-3.87-.17-5.8,0-.73.05-1.48.22-2.18.33-1.4.15-2.8.19-4.2.03-.94,0-.93.93-1.22.56-.17,1.11-.36,1.73-.57"/>
  <path class="cls-1" d="m49.04,49.51c.72.08,1.36.13,2,.24.13.03.31.3.31.46,0,.16-.19.44-.32.45-1.01.09-2.02.15-3.03.16-.15,0-.38-.29-.44-.48-.12-.38.15-.6.47-.69.35-.09.72-.11,1.01-.14"/>
  <path class="cls-1" d="m49.69,52.74c-.6-.09-1.2-.15-1.79-.28-.14-.03-.34-.3-.32-.44.01-.17.2-.43.35-.47.3-.08.63-.05.95-.02.52.05,1.04.1,1.54.22.17.04.4.31.4.47,0,.16-.25.38-.43.45-.2.08-.45.02-.68.02,0,.01,0,.03,0,.04"/>
  <path class="cls-2" d="m83.09,34.74c.22-.03.43-.06.63-.09.02.06.05.13.07.2-.29.14-.57.29-.87.42-.09.04-.22-.01-.31.03-.37.16-.95.06-.98.67-.02.5.6,1.14,1.09,1.24.42.08.84.18,1.26.28.34.09.44-.09.39-.36-.12-.64-.37-1.25-.23-1.93.03-.16-.2-.38-.28-.52.81-.34,1.6-.74,2.49-.54.85.19,1.69.43,2.67.68-.16-.25-.26-.51-.45-.66-.52-.41-1.09-.76-1.63-1.15-.05-.04-.06-.15-.09-.24.84.23,1.76.32,2.27,1.12.37.57.62,1.22.88,1.86.16.4.31.84.34,1.27.05.71-.27,1.27-.93,1.58-.63.3-1.24.73-1.91.83-.9.14-1.84.06-2.76,0-.4-.03-.75-.25-1.07-.6-.35-.38-.89-.57-1.33-.87-.57-.39-1.15-.78-1.67-1.24-.23-.2-.38-.54-.48-.84-.04-.12.1-.4.23-.47,1.4-.85,2.82-1.69,4.24-2.51.54-.31,1.14-.33,1.75-.23.06.01.1.11.16.17-.07.05-.13.14-.2.15-1.11.1-2.02.69-2.94,1.24-.16.09-.22.35-.34.54m4.04,3.29c.82.12,1.58-.2,2.28-.62.19-.11.38-.42.37-.64-.01-.69-.99-1.63-1.68-1.7-.68-.07-.75,0-.64.68.01.09.02.18,0,.26-.11.66-.22,1.31-.34,2.01m-2.42-3.12c0,.31.02.62,0,.93-.07.83.39,1.37.97,1.83.12.1.34.12.51.11.54-.03.5-.53.67-.86.29-.55.24-1.11.07-1.67-.04-.14-.18-.36-.26-.35-.67.06-1.34-.51-1.97,0m-1.27,2.72c.08.45,1.06,1.46,1.35,1.47,1.15.02,2.32.11,3.42-.32.25-.1.46-.32.69-.49-.17-.17-.3-.24-.42-.22-.38.06-.74.2-1.12.24-.9.1-1.78.11-2.62-.34-.37-.2-.83-.22-1.31-.33"/>
  <path class="cls-2" d="m88.08,51.25c.16,1.03-.13,2.01-.52,2.97-.14.33-.35.62-.75.47-.38-.14-.38-.51-.25-.81.46-1.02.73-2.08.57-3.19-.12-.85-.37-1.68-.55-2.53-.1-.47-.23-.94-.26-1.42-.01-.16.23-.46.38-.48.16-.02.48.18.53.34.4,1.52,1.03,3,.85,4.66"/>
  <path class="cls-2" d="m78.56,77.07c0-.56.29-.9.77-.9.59,0,1.03.39,1.03.93,0,.59-.24.77-1.03.76-.59,0-.77-.19-.77-.79"/>
  <path class="cls-2" d="m94.4,44.09c.19-.65.31-1.28.55-1.86.25-.6.08-1.15-.03-1.72-.04-.19.02-.4.1-.6.67,1.41.48,3.88-.62,4.18"/>
  <path class="cls-2" d="m52,37.26c-.12.44-.63.67-.43,1.19.02.06-.11.22-.2.28-.42.3-.85.58-1.28.86-.46.29-.9.63-1.39.84-1.06.46-2.14.59-3.17-.11-.08-.05-.2-.04-.31-.05-.49-.06-.94-.18-1.29-.59-.21-.25-.49-.45-.75-.65-.61-.47-.69-1.11-.16-1.69.45-.49.87-1.04,1.42-1.37.67-.4,1.42-.7,2.28-.6.57.06,1.16-.04,1.74-.06.15,0,.34-.05.46.02.95.55,2.07.82,2.76,1.77.06.08.21.1.33.15m-5.61-1.07c-.47.14-1.04.22-1.51.49-.24.14-.32.61-.38.95-.02.1.28.34.45.37.6.1,1.2.14,1.88.2-.15-.69-.28-1.27-.44-2.02m2.36-.08c.18.85.33,1.59.5,2.39.6-.31,1.21-.62,1.84-.94-.69-.9-2.05-1.64-2.34-1.45m-2.77,3.79c0,.06,0,.11,0,.17.98.61,1.95-.01,2.92-.17.29-.05.71-.24.73-.71-1.24.24-2.44.48-3.64.71"/>
  <path class="cls-2" d="m46.56,56.9c-.31-.09-.55-.08-.64-.2-.5-.6-.99-1.2-1.44-1.84-.35-.5-.67-1.04-.93-1.59-.18-.37-.33-.79-.33-1.18,0-.84.14-1.68.16-2.52.02-1.06.59-1.93.9-2.89.1-.3.35-.56.59-.93.25.71.34,1.2-.09,1.7-.91,1.05-.81,2.31-.63,3.57.2,1.38.63,2.69,1.29,3.92.26.49.61.92.9,1.39.08.13.12.29.22.57"/>
  <path class="cls-3" d="m87.13,38.03c.12-.7.23-1.36.34-2.01.01-.09.01-.18,0-.26-.11-.68-.04-.75.64-.68.69.07,1.67,1.01,1.68,1.7,0,.22-.18.53-.37.64-.71.42-1.46.74-2.28.62"/>
  <path class="cls-3" d="m84.71,34.91c.63-.52,1.3.04,1.97-.01.08,0,.22.22.26.35.17.56.22,1.12-.07,1.67-.18.33-.14.83-.68.86-.17,0-.39-.01-.51-.11-.58-.46-1.04-1.01-.97-1.83.03-.31,0-.62,0-.93m1.92.84c-.05-.07-.15-.27-.3-.34-.21-.09-.91.51-.85.76.05.22.27.48.48.57.29.13.6-.31.67-1"/>
  <path class="cls-3" d="m83.43,37.63c.48.11.94.14,1.31.33.84.45,1.72.44,2.62.34.38-.04.74-.17,1.12-.24.12-.02.25.05.42.22-.23.17-.43.39-.69.49-1.1.44-2.27.34-3.42.32-.29,0-1.27-1.02-1.35-1.47"/>
  <path class="cls-3" d="m46.39,36.19c.16.75.29,1.33.44,2.02-.67-.07-1.28-.1-1.88-.21-.17-.03-.47-.27-.45-.37.06-.34.14-.81.38-.95.47-.27,1.04-.35,1.51-.49"/>
  <path class="cls-3" d="m48.75,36.12c.29-.19,1.65.55,2.34,1.45-.62.32-1.23.63-1.83.94-.17-.81-.33-1.55-.5-2.4"/>
  <path class="cls-3" d="m45.98,39.91c1.2-.23,2.41-.47,3.64-.71-.02.47-.44.66-.73.71-.96.16-1.93.78-2.92.17,0-.06,0-.11,0-.17"/>
  <path class="cls-2" d="m86.63,35.75c-.07.69-.38,1.13-.67,1-.21-.09-.43-.35-.48-.57-.06-.25.64-.86.85-.76.15.07.24.27.3.34"/>
</svg>