<?xml version="1.0" encoding="UTF-8"?>
<svg xmlns="http://www.w3.org/2000/svg" viewBox="0 0 136.06 136.06">
  <defs>
    <style>
      .cls-1 {
        fill: #fff;
      }

      .cls-2 {
        fill: #0c3454;
      }

      .cls-3 {
        fill: #e0e1e3;
      }
    </style>
  </defs>
  <g id="Layer_3" data-name="Layer 3">
    <rect class="cls-3" x="0" width="136.06" height="136.06"/>
  </g>
  <g id="B_W" data-name="B&amp;amp;W">
    <g>
      <path class="cls-1" d="m93.24,31.13c-.47-.54-.91-1.12-1.41-1.63-.29-.29-.68-.48-1.08-.74.71.12,1.36.28,1.91.72.4.32.84.6,1.23.93,1.04.86,1.98,1.82,2.67,2.99.44.73.76,1.5.7,2.4-.02.34.2.69.27,1.04.03.17-.02.35-.03.53-.05.01-.11.01-.16.01-.02-.12-.07-.25-.07-.38.01-.45-.36-.97-.75-1.2-.22-.13-.43-.35-.55-.58-.38-.73-.64-1.53-1.1-2.21-.45-.68-1.08-1.25-1.63-1.88Z"/>
      <path class="cls-1" d="m100.78,46.72c.1-.46.17-.77.23-1.08h.18c.02.3.06.6.06.91,0,.04-.21.08-.47.17Z"/>
      <path class="cls-1" d="m100.73,45.13c-.19.51-.42,1.02-.69,1.5-.06.12-.31.15-.48.22-.04-.18-.16-.38-.12-.54.32-1.22.55-2.44.45-3.71l-.21-2.55c0-.08.01-.17.02-.26.03-.02.07-.04.11-.05.2.37.46.73.58,1.13.17.59.25,1.21.35,1.82.08.48.16.96.17,1.44,0,.33-.07.68-.18,1Z"/>
      <path class="cls-1" d="m97.75,44.63c.31-.97.57-1.95.84-2.93.05-.18.04-.37.06-.56l.18-.06c.07.21.19.41.21.63.07.73-.01,1.46-.19,2.19-.17.74-.21,1.51-.35,2.26-.1.58-.67,1.04-1.22.97-.12-.01-.33-.34-.29-.45.22-.69.54-1.36.76-2.05Z"/>
      <path class="cls-1" d="m94.14,47.43c.06-.7.61-1.06,1.11-1.29.87-.41,1-1.17,1.13-1.95.16-.95.32-1.91.38-2.88.06-1.12,0-2.25,0-3.37,0-.28-.03-.55-.05-.82.05-.02.11-.04.17-.06.26.49.72.98.75,1.49.09,1.2-.02,2.42-.05,3.63-.01.16.03.32.03.34-.14.36-.25.63-.35.91-.31.9-.62,1.81-.93,2.71-.03.1-.1.19-.13.28-.34.9-1.02,1.25-2.05,1.01Z"/>
      <path class="cls-1" d="m94.4,44.09c1.11-.31,1.29-2.78.63-4.18-.08.2-.14.41-.11.6.11.57.29,1.11.03,1.72-.24.58-.36,1.21-.55,1.86Zm-2.52,3.37c-.24-.02-.48-.17-.84-.31.34-.48.6-1,1-1.38.75-.72,1.3-1.55,1.57-2.52.32-1.11.5-2.25.77-3.38.05-.22.19-.42.33-.7.11.22.18.36.25.51.21-.31.13-1.33-.16-2.43-.21-.79-.32-1.62-.56-2.4-.25-.77-.62-1.51-.94-2.26.07-.04.13-.07.2-.11.14.29.34.57.43.88.14.5.34.9.88,1.04.05.02.08.13.09.19.14.76.4,1.44.94,2.04.21.24.37.7.3,1-.24,1.06.07,2.12-.08,3.17-.16,1.17.06,2.39-.41,3.51-.14.33-.37.62-.53.94-.3.63-.63,1.23-1.17,1.69-.25.21-.53.39-.87.64.22-1.09,1.36-1.75,1.16-2.91-.06-.06-.13-.12-.19-.18-.03.11-.04.24-.1.35-.42.83-.83,1.67-1.31,2.46-.09.15-.5.18-.76.16Z"/>
      <path class="cls-1" d="m47.58,52.02c.01-.17.19-.43.35-.47.3-.07.63-.04.95-.01.51.05,1.03.1,1.53.22.18.04.4.31.4.47s-.24.38-.43.45c-.2.08-.45.02-.68.02,0,.01-.01.03-.01.04-.6-.08-1.2-.14-1.79-.28-.14-.03-.34-.29-.32-.44Z"/>
      <path class="cls-1" d="m51.03,50.66c-1,.09-2.02.15-3.03.16-.15,0-.37-.29-.44-.48-.12-.38.15-.61.48-.69.35-.09.72-.11,1-.14.72.08,1.37.12,2,.24.14.02.31.3.31.46s-.19.44-.32.45Z"/>
      <path class="cls-1" d="m82.73,51.28c-.28-.2-.17-.73.16-.79.56-.11,1.13-.17,1.69-.23.3-.04.52.08.55.41.04.3-.11.47-.41.56-.38.11-.73.29-1.12.44-.29-.12-.61-.21-.87-.39Z"/>
      <path class="cls-1" d="m83.37,48.04c.55.14,1.11.24,1.64.44.16.05.32.37.31.56-.01.13-.3.33-.47.35-.28.02-.58-.08-.86-.13-.33-.05-.65-.14-.97-.16-.35-.02-.65-.04-.65-.49.01-.45.31-.49.66-.48h.32s.01-.06.02-.09Z"/>
      <path class="cls-1" d="m44.14,51.02c-.18-1.26-.28-2.52.63-3.57.44-.5.34-1,.1-1.7-.24.36-.5.62-.59.92-.31.96-.88,1.84-.9,2.9-.02.84-.16,1.68-.16,2.52,0,.39.15.82.33,1.18.26.55.58,1.09.93,1.59.45.64.94,1.24,1.44,1.84.1.11.33.11.64.2-.1-.28-.14-.44-.22-.58-.3-.46-.65-.9-.91-1.39-.65-1.22-1.09-2.53-1.29-3.91Zm-.97-11.99c.27.21.54.41.75.66.35.4.8.53,1.29.58.11.02.23,0,.31.05,1.03.71,2.11.58,3.17.12.49-.22.93-.55,1.39-.85.43-.27.86-.56,1.28-.86.1-.06.23-.22.2-.28-.19-.52.32-.75.44-1.19-.12-.05-.27-.07-.33-.15-.69-.95-1.81-1.23-2.76-1.77-.12-.07-.31-.03-.46-.03-.58.03-1.17.13-1.74.06-.86-.1-1.61.21-2.28.61-.55.32-.97.88-1.42,1.36-.53.58-.44,1.22.16,1.69Zm14.83,45.24c.96-.46,1.98-.76,2.9-1.34.78-.5,1.69-.86,2.53-1.3.51-.26,1.19-.25,1.78-.23.5.02.86.5.81.86-.04.33-.61.73-1.01.78-.5.06-1.01.15-1.5.29-.11.03-.24.28-.23.42.02.16.15.41.28.44.32.09.68.12,1.02.12.4,0,.81-.1,1.2-.06.17.02.45.32.42.44-.03.19-.26.44-.45.48-.56.12-1.13.15-1.7.23-.17.03-.36.07-.48.18-.14.14-.31.38-.27.52.04.15.32.35.48.34.65-.04,1.25.11,1.78.46.16.1.34.33.33.5,0,.15-.24.4-.4.42-.65.12-1.31.16-1.97.24-1.07.13-2.13.33-3.2.39-1.91.11-3.59,1.04-5.42,1.41-.22.04-.44.1-.66.1-.89.02-1.76.14-2.64.26-1.26.17-2.56-.01-3.84-.05-.13,0-.25-.12-.36-.18-.26-.14-.5-.16-.81-.18-.77-.04-1.57.14-2.32-.26s-1.6-.64-2.29-1.12c-1.2-.84-2.32-1.77-2.51-3.4-.17-1.43-.52-2.84-.6-4.27-.09-1.56.23-3.08,1.12-4.42.45-.68.98-1.31,1.45-1.99.17-.25.23-.58.41-.81.44-.56.89-1.11,1.39-1.6.82-.82,1.23-1.82,1.46-2.93.08-.43.32-.83.46-1.25.21-.63.35-1.25.17-1.94-.19-.73-.26-1.5-.45-2.24-.09-.39-.28-.77-.48-1.13-.53-.93-.95-1.98-1.67-2.73-.83-.87-1.22-2.01-2.06-2.86-.38-.38-.52-.99-.76-1.5-.52-1.15-.94-2.34-1.1-3.59-.08-.72-.03-1.45-.09-2.17-.03-.44-.22-.88-.21-1.31.03-.65.16-1.29.27-1.92.02-.07.2-.13.31-.15.88-.09,1.38-.63,1.79-1.38.55-1.02.24-1.99.09-3.02-.16-1.16-.43-2.3-.27-3.52.09-.66.28-1.29.44-1.9.14-.51.56-1.06,1.01-1.34.79-.51,1.61-.96,2.64-.97,1.02-.01,2.03-.25,3.05-.38.33-.04.66-.03.99-.07.87-.11,1.73-.26,2.6-.34.4-.04.91-.25,1.15.29.09.2.03.46.07.68.2,1.03.44,2.06.6,3.1.06.43.2.8.37,1.2.3.68.41,1.44.63,2.15.1.31.28.6.4.91.1.25.05.41-.22.58-.74.44-1.55.62-2.38.71-.53.06-.88.33-1.03.76-.15.42-.21.9-.17,1.34.1,1.09.28,2.17.45,3.35-.78-.04-1.46-.1-2.14-.12-.54-.02-1.06-.11-1.48.49-.29.42-.84.65-1.25,1-.35.3-.43.66-.18,1.1.1.19.18.47.12.65-.16.44.02.73.29,1.01.24.25.49.51.76.71.24.18.54.3.81.44.74.41,1.58.15,2.4.39-.17.9.4,1.54.81,2.28.34.61.42,1.38.57,2.08.26,1.28-.46,2.12-1.32,2.92-.58.54-1.17,1.12-1.56,1.79-.55.92-.63,1.94-.31,3.01.31,1.03.51,2.1.75,3.16.12.57.35,1,.82,1.43,1.7,1.54,3.46,3,4.73,4.98.65,1.02,1.11,2.07,1.38,3.21.16.67.21,1.37.29,2.06.05.49.11.98.08,1.47-.01.18-.24.45-.42.51-.69.24-1.39.44-2.09.58-.59.12-1.2.1-1.79.19-1.74.24-3.11-.58-4.44-1.5-.33-.23-.66-.47-.94-.76-.09-.09-.02-.35-.02-.65-.65-.37-.73-1.23-.9-2.04-.05-.27-.04-.54-.45-.63-.27-.05-.47-.39-.71-.6-.79,1.04-.65,2.06-.12,3.14.48.99,1.13,1.85,2.01,2.5.44.33,1.01.5,1.53.73.76.34,1.51.71,2.3.99.54.2,1.13.27,1.7.4.06.01.12.02.16,0,.93-.48,1.96-.03,2.92-.4.77-.3,1.67-.27,2.39-.62Z"/>
      <path class="cls-1" d="m42.35,90.54c.57.27,1.05.55,1.57.71.53.16,1.1.21,1.65.3.38.07.78.1,1.15.24.17.06.27.32.4.5.02.02.01.06.01.1.03,3.64.07,7.27.1,10.91.01.81.22,1.58.69,2.19.25.33.79.53,1.22.58.61.07,1.25-.05,1.88-.07.31-.02.67-.08.77.35.1.44-.22.59-.55.67-.24.06-.5.07-.74.03-.53-.07-.98.1-1.42.35-.3.17-.22.39-.14.62.08.25.21.33.5.28.43-.07.88-.09,1.31-.05.15.01.38.28.38.43,0,.2-.13.46-.3.58-.16.12-.43.11-.65.13-.35.04-.89.52-.91.86-.01.1.08.22.16.3.56.57,1.23.54,1.95.4.33-.06.7.05,1.08.09-.33.87-1.62,1.61-2.46,1.54-.36-.03-.71,0-1.07,0-.53,0-1.07-.01-1.6,0-.65.02-1.3.07-1.95.1-.94.05-1.58-.52-2.17-1.13-.56-.57-.58-1.34-.65-2.07-.15-1.81-.3-3.62-.41-5.43-.03-.51.05-1.02.07-1.53.02-.44.02-.88.02-1.33,0-1.56-.01-3.12,0-4.68.01-.86.09-1.72.1-2.59,0-.6-.09-1.2-.09-1.8,0-.5.06-1,.1-1.58Z"/>
      <path class="cls-1" d="m62.35,109.74c-.15.04-.33.33-.33.51,0,.27.07.68.25.79.52.31,1.1.48,1.75.17.37-.18.81-.19,1.31-.3-.38.95-1.08,1.15-1.83,1.24-.67.09-1.36.19-2.04.2-1.27,0-2.54,0-3.81-.11-1.01-.09-1.45-.89-1.81-1.74-.39-.95-.53-1.94-.55-2.95-.01-1.2.05-2.41-.12-3.59-.29-1.93-.15-3.86-.18-5.8-.01-.72.05-1.47.22-2.18.33-1.4.15-2.8.19-4.2.03-.94.01-.94.93-1.22.56-.17,1.11-.36,1.73-.57v.68c0,1.79-.05,3.58.02,5.36.06,1.64.24,3.27.41,4.91.11,1.1.27,2.2.42,3.3.1.73.35,1.33,1.21,1.45.24.03.45.22.68.33.09.04.2.07.29.05.85-.19,1.69-.4,2.53-.61.33-.08.66-.21.99-.25.33-.03,1.1.66,1.07.96-.04.42-.41.53-.75.56-.56.06-1.13.04-1.68.13-.22.04-.54.25-.58.43-.05.21.11.51.24.73.41.67,1.08.36,1.66.4.15.02.37.04.41.12.05.11,0,.37-.09.43-.32.21-.65.42-1.01.52-.5.13-1.03.12-1.53.25Z"/>
      <path class="cls-1" d="m74.43,108.55c-.7-.05-1.4-.04-2.1-.13-.17-.03-.4-.3-.44-.49,0-.12.27-.42.44-.43.67-.05,1.34-.01,2.02-.02.39-.01.78-.52.56-.74-.2-.21-.52-.37-.81-.41-.62-.09-1.26-.05-1.89-.13-.44-.05-.77-.52-.62-.9.13-.35.24-.66.83-.62,1.12.08,2.26-.01,3.39-.09.31-.02.62-.24.93-.38-.04-.03-.07-.06-.11-.09.07-.21.16-.41.19-.62.07-.47.14-.94.12-1.4-.02-.63-.15-1.24-.2-1.86-.06-.78-.06-1.55-.11-2.33-.03-.45-.12-.9-.14-1.36-.03-.47,0-.94,0-1.41,0-.1.04-.2.04-.31.04-1.18.07-2.36.11-3.53.02-.39.08-.77.12-1.15.05-.53.38-.8.88-.81.96-.03,1.92-.01,2.9-.01.12,1.52.25,3,.34,4.48.07,1.12.12,2.25.11,3.37-.05,3.37-.13,6.73-.21,10.1-.03.98-.1,1.96-.22,2.93-.12,1.06-.64,1.69-1.9,1.95-1.66.35-3.33.15-5,.2-.45,0-.91-.02-1.35-.11-.78-.14-1.1-.84-.74-1.55.38-.75.97-.95,1.77-.86.6.06,1.23-.11,1.83-.21.08-.02.21-.26.18-.36-.06-.22-.16-.46-.32-.6-.14-.11-.39-.11-.6-.12Z"/>
      <path class="cls-1" d="m85.7,111.03c.41-.23.85-.42,1.31-.56.3-.1.66-.05.97-.14.17-.04.3-.23.44-.36-.15-.12-.28-.31-.45-.35-.45-.11-.92-.14-1.38-.23-.18-.04-.4-.09-.51-.22-.21-.24-.35-.53-.52-.8.25-.12.48-.29.74-.35.49-.11,1-.15,1.49-.22.37-.05.44-.3.42-.61-.02-.33-.21-.48-.52-.45-.77.08-1.48-.12-2.15-.49-.4-.22-.45-.62-.05-.84.33-.19.73-.32,1.11-.36.78-.08,1.57-.11,2.36-.11.79,0,1.17-.62,1.33-1.13.35-1.12.54-2.29.66-3.46.1-1.01.07-2.05.01-3.07-.1-1.6-.27-3.2-.41-4.8-.07-.89-.14-1.78-.22-2.66-.06-.75-.13-1.5-.21-2.24-.04-.34.13-.49.4-.58.98-.33,1.75-.97,2.53-1.6.22-.18.48-.33.79-.54,0,.57-.01,1.05,0,1.52.07,2.17.14,4.33.22,6.49.03,1,.07,2,.1,3,.04,1.71.07,3.42.11,5.13.03,1.23.06,2.46.1,3.69.03.83.13,1.66.09,2.48-.04,1.09-.11,2.2-.32,3.27-.22,1.11-.79,1.71-1.98,1.62-.92-.06-1.84-.05-2.76,0-.69.04-1.38.18-2.06.27-.4.05-.8.16-1.19.12-.27-.02-.66-.19-.76-.4-.16-.35-.08-.8.31-1.02Z"/>
      <path class="cls-1" d="m80.42,35.39c-.13.08-.27.35-.23.47.1.3.25.64.48.84.53.45,1.1.85,1.67,1.24.44.3.99.49,1.34.87.32.34.67.57,1.07.6.92.07,1.86.14,2.77,0,.66-.1,1.27-.53,1.9-.83.67-.31.99-.87.93-1.58-.03-.43-.17-.86-.34-1.27-.25-.63-.5-1.28-.87-1.85-.51-.8-1.43-.89-2.27-1.12.04.1.04.2.09.24.54.39,1.11.74,1.63,1.15.19.14.29.41.45.65-.98-.25-1.82-.48-2.67-.67-.89-.2-1.68.2-2.5.54.09.15.32.36.28.52-.13.68.11,1.3.23,1.93.05.27-.05.45-.39.36-.42-.11-.84-.2-1.26-.28-.49-.1-1.11-.74-1.09-1.24.02-.61.61-.51.98-.67.09-.04.22.02.31-.02.29-.13.58-.28.87-.42-.03-.07-.05-.13-.08-.2-.2.03-.41.06-.63.09.11-.19.18-.45.34-.54.92-.55,1.82-1.14,2.94-1.24.07-.01.13-.1.19-.15-.05-.06-.09-.15-.15-.16-.61-.1-1.21-.09-1.75.22-1.42.83-2.84,1.66-4.24,2.52Zm-1.9,1.25c0-.57.03-1.13.03-1.7,0-1.21.33-2.36.76-3.48.07-.17.28-.31.46-.4.49-.24.86-.54,1.23-.97.42-.49,1.12-.77,1.73-1.06.53-.24,1.1-.44,1.67-.52.52-.07,1.09-.01,1.61.12.72.17,1.39.51,2.1.69,1.22.32,2.1,1.03,2.76,2.08.58.94,1.29,1.83,1.77,2.82.45.91.87,1.88.89,2.95,0,.28.07.55.1.83.11,1.15-.23,2.23-.46,3.34-.19.93-.47,1.8-1.04,2.53-.73.93-1.57,1.76-2.32,2.68-.37.47-.88.87-.77,1.65,0,.07.02.13.04.19l-1.27.2c-.18-.67-.4-1.33-.57-1.99-.05-.16-.37-.37-.53-.34-.15.02-.39.32-.38.48.03.48.16.95.26,1.42.05.23.1.45.15.68l-.7.18c-.11-.37-.32-.68-.79-.84-.68-.23-1.32-.57-2-.81-.23-.07-.52.03-.87.05-.03-.13-.11-.34-.11-.54.02-.83.14-1.66.07-2.48-.04-.56-.29-1.12-.55-1.64-.08-.16-.5-.27-.73-.21-.54.13-1.05.47-1.59.53-.49.06-1-.15-1.5-.27-.04-.01-.08-.2-.06-.3.17-.79.39-1.57.53-2.37.09-.53.09-1.08.1-1.62,0-.63-.02-1.25-.02-1.88Z"/>
      <path class="cls-1" d="m79.32,76.16c-.48.01-.77.35-.77.91,0,.6.19.79.78.79.79,0,1.03-.18,1.02-.76,0-.55-.44-.95-1.03-.94Zm-6.68,8.49c-.64.27-1.29.09-1.92-.01-.18-.03-.42-.23-.46-.4-.05-.15.08-.41.2-.56.45-.56,1.02-.27,1.56-.17.24.04.47.12.71.14.42.02.85-.34.92-.78.08-.43-.07-.69-.51-.89-.55-.25-1.19-.43-1.47-1.07-.06-.14-.1-.28-.17-.44.81-.19,1.49.04,2.18.3.98.37,1.99.67,2.98,1.02.34.11.66.26,1.08.43,0-.01.09-.1.19-.1.71,0,1.42,0,2.13,0,.6,0,1.21-.02,1.81-.03.23,0,.47.02.7,0,.21-.01.41-.05.61-.08.19-.03.38-.07.56-.12.33-.08.66-.16.97-.27.88-.29,1.76-.59,2.62-.91.3-.11.61-.25.84-.45.37-.32.68-.71,1.01-1.06.17-.18.31-.42.52-.53.78-.42.94-1.21,1.14-1.94.13-.49,0-1.06.03-1.59.02-.37-.2-.5-.47-.46-.2.03-.45.2-.55.37-.2.33-.28.71-.45,1.05-.19.4-.36.83-.66,1.15-.56.61-1.17,1.19-1.82,1.71-.26.22-.66.27-.99.41-1.04.43-2.07.85-3.21.95-.53.05-1.03.3-1.56.36-.3.04-.64-.07-.94-.17-1.13-.38-2.29-.75-2.92-1.86-.25-.44-.38-1-.43-1.52-.13-1.28.02-2.49.88-3.55.56-.68.91-1.53,1.46-2.21.47-.58,1.06-1.07,1.63-1.56,1.08-.94,2.19-1.84,3.26-2.78.2-.16.33-.45.4-.7.57-1.9.43-3.75-.62-5.35.87,0,1.71.02,2.55-.02.18-.01.49-.29.47-.4-.06-.38-.42-.32-.72-.32-.53.02-1.07.05-1.6,0-.83-.09-1.49-.56-1.97-1.21-.46-.62-.45-1.41-.3-2.12.24-1.07.53-2.14.96-3.15.17-.4.47-.92,1.15-.97.88-.06,1.72-1.12,1.77-2.08.02-.33.05-.67-.01-1-.03-.23-.07-.47-.14-.68l.7-.18c.16.61.31,1.23.4,1.85.16,1.11-.12,2.17-.57,3.19-.14.3-.14.67.24.81.4.15.61-.14.75-.47.39-.96.68-1.94.52-2.97.11-.93-.05-1.8-.27-2.66l1.27-.2c.11.4.41.51.76.58.57.11,1.14.18,1.71.21.34.02.69-.06,1.04-.1.24-.03.48-.08.72-.1.38-.02.54.18.53.55-.01.76-.01,1.5-.35,2.24-.22.48-.1,1.1-.19,1.65-.18,1.12-.41,2.23-1.34,3.01-.3.25-.67.43-.98.68-.9.71-1.36,1.73-1.86,2.71-.5.97-.71,2.01-.7,3.11.02,1.62.52,3.01,1.5,4.33.78,1.05,1.93,1.6,2.74,2.57.7.84,1.43,1.66,2.09,2.54.23.3.26.74.4,1.1.23.62.51,1.21.71,1.84.4,1.28.48,2.54-.04,3.87-.38.95-.82,1.85-1.5,2.57-.72.74-1.59,1.34-2.39,2-.05.05-.15.06-.18.11-.38.78-1.16,1.1-1.83,1.54-1.48.95-3.1,1.47-4.86,1.6-1.06.08-2.12.21-3.19.3-.22.02-.45-.11-.66-.08-.69.08-1.37.21-2.05.31-.45.07-.89.18-1.34.2-.81.03-1.63,0-2.45,0-.42.01-.84.12-1.25.08-.45-.04-.89-.21-1.35-.3-.84-.16-1.71-.27-2.4-.93.25-.47.51-.69,1.17-.6.8.11,1.68.23,2.47-.18.17-.09.38-.35.37-.51-.02-.16-.28-.34-.47-.42-.31-.12-.66-.16-.99-.23-.09-.01-.2-.03-.28,0Z"/>
      <path class="cls-2" d="m95.03,39.91c.66,1.4.48,3.87-.63,4.18.19-.65.31-1.28.55-1.86.26-.61.08-1.15-.03-1.72-.03-.19.03-.4.11-.6Z"/>
      <path class="cls-2" d="m86.59,48.16c-.1-.47-.23-.94-.26-1.42-.01-.16.23-.46.38-.48.16-.03.48.18.53.34.17.66.39,1.32.57,1.99.22.86.38,1.73.27,2.66.16,1.03-.13,2.01-.52,2.97-.14.33-.35.62-.75.47-.38-.14-.38-.51-.24-.81.45-1.02.73-2.08.57-3.19-.09-.62-.24-1.24-.4-1.85-.05-.23-.1-.45-.15-.68Z"/>
      <path class="cls-2" d="m85.48,36.18c-.06-.26.64-.86.85-.77.15.07.24.27.3.34-.07.69-.38,1.13-.67,1-.21-.09-.43-.35-.48-.57Z"/>
      <path class="cls-2" d="m87.47,36.01c-.11.66-.22,1.32-.34,2.02.82.12,1.57-.2,2.28-.62.19-.11.37-.42.37-.64-.01-.69-.99-1.63-1.68-1.7-.68-.07-.75,0-.64.68.02.09.02.18,0,.26Zm-2.77-.17c-.07.83.39,1.37.97,1.83.13.1.35.12.52.11.54-.02.5-.52.67-.85.29-.56.24-1.11.08-1.68-.05-.13-.18-.35-.26-.35-.67.06-1.34-.51-1.97,0,0,.31.02.62-.01.93Zm-1.27,1.79c.09.45,1.07,1.47,1.36,1.47,1.15.02,2.32.12,3.42-.32.26-.1.46-.33.69-.49-.17-.17-.3-.24-.42-.22-.38.06-.74.19-1.12.24-.9.1-1.77.1-2.62-.34-.37-.2-.83-.22-1.31-.34Zm-3.24-1.77c-.04-.12.1-.39.23-.47,1.4-.86,2.82-1.69,4.24-2.52.54-.31,1.14-.32,1.75-.22.06,0,.1.1.15.16-.06.05-.12.14-.19.15-1.12.1-2.02.69-2.94,1.24-.16.09-.23.35-.34.54.22-.03.43-.06.63-.09.03.07.05.13.08.2-.29.14-.58.29-.87.42-.09.04-.22-.02-.31.02-.37.16-.96.06-.98.67-.02.5.6,1.14,1.09,1.24.42.08.84.17,1.26.28.34.09.44-.09.39-.36-.12-.63-.36-1.25-.23-1.93.04-.16-.19-.37-.28-.52.82-.34,1.61-.74,2.5-.54.85.19,1.69.42,2.67.67-.16-.24-.26-.51-.45-.65-.52-.41-1.09-.76-1.63-1.15-.05-.04-.05-.14-.09-.24.84.23,1.76.32,2.27,1.12.37.57.62,1.22.87,1.85.17.41.31.84.34,1.27.06.71-.26,1.27-.93,1.58-.63.3-1.24.73-1.9.83-.91.14-1.85.07-2.77,0-.4-.03-.75-.26-1.07-.6-.35-.38-.9-.57-1.34-.87-.57-.39-1.14-.79-1.67-1.24-.23-.2-.38-.54-.48-.84Z"/>
      <path class="cls-2" d="m80.35,77.1c.01.58-.23.76-1.02.76-.59,0-.78-.19-.78-.79,0-.56.29-.9.77-.91.59,0,1.03.39,1.03.94Z"/>
      <path class="cls-2" d="m101.01,45.64c-.06.31-.13.62-.23,1.08.26-.09.47-.13.47-.17,0-.31-.04-.61-.06-.91h-.18Zm-2.42-3.94c-.27.98-.53,1.96-.84,2.93-.22.69-.54,1.36-.76,2.05-.04.11.17.44.29.45.55.07,1.12-.39,1.22-.97.14-.75.18-1.52.35-2.26.18-.73.26-1.46.19-2.19-.02-.22-.14-.42-.21-.63l-.18.06c-.02.19-.01.38-.06.56Zm1.45,4.93c.27-.48.5-.99.69-1.5.11-.32.18-.67.18-1-.01-.48-.09-.96-.17-1.44-.1-.61-.18-1.23-.35-1.82-.12-.4-.38-.76-.58-1.13-.04.01-.08.03-.11.05-.01.09-.03.18-.02.26l.21,2.55c.1,1.27-.13,2.49-.45,3.71-.04.16.08.36.12.54.17-.07.42-.1.48-.22Zm-5.9.8c1.03.24,1.71-.11,2.05-1.01.03-.09.1-.18.13-.28.31-.9.62-1.81.93-2.71.1-.28.21-.55.35-.91,0-.02-.04-.18-.03-.34.03-1.21.14-2.43.05-3.63-.03-.51-.49-1-.75-1.49-.06.02-.12.04-.17.06.02.27.05.54.05.82,0,1.12.07,2.25,0,3.37-.06.97-.22,1.93-.38,2.88-.13.78-.26,1.54-1.13,1.95-.5.23-1.05.59-1.11,1.29Zm-1.48-17.95c-.55-.44-1.2-.6-1.91-.72.4.26.79.45,1.08.74.5.51.94,1.09,1.41,1.63.55.63,1.18,1.2,1.63,1.88.46.68.72,1.48,1.1,2.21.12.23.33.45.55.58.39.23.76.75.75,1.2,0,.13.05.26.07.38.05,0,.11,0,.16-.01,0-.18.06-.36.03-.53-.07-.35-.29-.7-.27-1.04.06-.9-.26-1.67-.7-2.4-.69-1.17-1.63-2.13-2.67-2.99-.39-.33-.83-.61-1.23-.93Zm-.78,17.98c.26.02.67-.01.76-.16.48-.79.89-1.63,1.31-2.46.06-.11.07-.24.1-.35.06.06.13.12.19.18.2,1.16-.94,1.82-1.16,2.91.34-.25.62-.43.87-.64.54-.46.87-1.06,1.17-1.69.16-.32.39-.61.53-.94.47-1.12.25-2.34.41-3.51.15-1.05-.16-2.11.08-3.17.07-.3-.09-.76-.3-1-.54-.6-.8-1.28-.94-2.04-.01-.06-.04-.17-.09-.19-.54-.14-.74-.54-.88-1.04-.09-.31-.29-.59-.43-.88-.07.04-.13.07-.2.11.32.75.69,1.49.94,2.26.24.78.35,1.61.56,2.4.29,1.1.37,2.12.16,2.43-.07-.15-.14-.29-.25-.51-.14.28-.28.48-.33.7-.27,1.13-.45,2.27-.77,3.38-.27.97-.82,1.8-1.57,2.52-.4.38-.66.9-1,1.38.36.14.6.29.84.31Zm-6.18,63.57c-.39.22-.47.67-.31,1.02.1.21.49.38.76.4.39.04.79-.07,1.19-.12.68-.09,1.37-.23,2.06-.27.92-.05,1.84-.06,2.76,0,1.19.09,1.76-.51,1.98-1.62.21-1.07.28-2.18.32-3.27.04-.82-.06-1.65-.09-2.48-.04-1.23-.07-2.46-.1-3.69-.04-1.71-.07-3.42-.11-5.13-.03-1-.07-2-.1-3-.08-2.16-.15-4.32-.22-6.49-.01-.47,0-.95,0-1.52-.31.21-.57.36-.79.54-.78.63-1.55,1.27-2.53,1.6-.27.09-.44.24-.4.58.08.74.15,1.49.21,2.24.08.88.15,1.77.22,2.66.14,1.6.31,3.2.41,4.8.06,1.02.09,2.06-.01,3.07-.12,1.17-.31,2.34-.66,3.46-.16.51-.54,1.14-1.33,1.13-.79,0-1.58.03-2.36.11-.38.04-.78.17-1.11.36-.4.22-.35.62.05.84.67.37,1.38.57,2.15.49.31-.03.5.12.52.45.02.31-.05.56-.42.61-.49.07-1,.11-1.49.22-.26.06-.49.23-.74.35.17.27.31.56.52.8.11.13.33.18.51.22.46.09.93.12,1.38.23.17.04.3.23.45.35-.14.13-.27.32-.44.36-.31.09-.67.04-.97.14-.46.14-.9.33-1.31.56Zm-2.81-60.54c-.33.06-.44.59-.16.79.26.18.58.27.87.39.39-.15.74-.33,1.12-.44.3-.09.45-.26.41-.56-.03-.33-.25-.45-.55-.41-.56.06-1.13.12-1.69.23Zm-.52-1.88c0,.45.3.47.65.49.32.02.64.11.97.16.28.05.58.15.86.13.17-.02.46-.22.47-.35.01-.19-.15-.51-.31-.56-.53-.2-1.09-.3-1.64-.44-.01.03-.02.06-.02.09h-.32c-.35-.01-.65.03-.66.48Zm-10.8,62.09c-.36.71-.04,1.41.74,1.55.44.09.9.12,1.35.11,1.67-.05,3.34.15,5-.2,1.26-.26,1.78-.89,1.9-1.95.12-.97.19-1.95.22-2.93.08-3.37.16-6.73.21-10.1.01-1.12-.04-2.25-.11-3.37-.09-1.48-.22-2.96-.34-4.48-.98,0-1.94-.02-2.9.01-.5.01-.83.28-.88.81-.04.38-.1.76-.12,1.15-.04,1.17-.07,2.35-.11,3.53,0,.11-.04.21-.04.31,0,.47-.03.94,0,1.41.02.46.11.91.14,1.36.05.78.05,1.55.11,2.33.05.62.18,1.23.2,1.86.02.46-.05.93-.12,1.4-.03.21-.12.41-.19.62.04.03.07.06.11.09-.31.14-.62.36-.93.38-1.13.08-2.27.17-3.39.09-.59-.04-.7.27-.83.62-.15.38.18.85.62.9.63.08,1.27.04,1.89.13.29.04.61.2.81.41.22.22-.17.73-.56.74-.68,0-1.35-.03-2.02.02-.17.01-.45.31-.44.43.04.19.27.46.44.49.7.09,1.4.08,2.1.13.21.01.46.01.6.12.16.14.26.38.32.6.03.1-.1.34-.18.36-.6.1-1.23.27-1.83.21-.8-.09-1.39.11-1.77.86Zm-1.11-27.02c-.12.15-.25.41-.2.56.04.17.28.37.46.4.63.1,1.28.28,1.92.01.08-.03.19-.01.28,0,.33.07.68.11.99.23.19.08.45.26.47.42,0,.16-.2.42-.37.51-.79.41-1.67.29-2.47.18-.66-.09-.92.13-1.17.6.69.66,1.56.77,2.4.93.46.09.9.26,1.35.3.41.04.83-.07,1.25-.08.82,0,1.64.02,2.45,0,.45-.02.89-.13,1.34-.2.68-.1,1.36-.23,2.05-.31.21-.03.44.1.66.08,1.07-.09,2.13-.22,3.19-.3,1.76-.13,3.38-.65,4.86-1.6.67-.44,1.45-.76,1.83-1.54.03-.05.13-.06.18-.11.8-.66,1.67-1.26,2.39-2,.68-.72,1.12-1.62,1.5-2.57.52-1.33.44-2.59.04-3.87-.2-.63-.48-1.22-.71-1.84-.14-.36-.17-.8-.4-1.1-.66-.88-1.39-1.7-2.09-2.54-.81-.97-1.96-1.52-2.74-2.57-.98-1.32-1.48-2.71-1.5-4.33-.01-1.1.2-2.14.7-3.11.5-.98.96-2,1.86-2.71.31-.25.68-.43.98-.68.93-.78,1.16-1.89,1.34-3.01.09-.55-.03-1.17.19-1.65.34-.74.34-1.48.35-2.24,0-.37-.15-.57-.53-.55-.24.02-.48.07-.72.1-.35.04-.7.12-1.04.1-.57-.03-1.14-.1-1.71-.21-.35-.07-.65-.18-.76-.58-.02-.06-.03-.12-.04-.19-.11-.78.4-1.18.77-1.65.75-.92,1.59-1.75,2.32-2.68.57-.73.85-1.6,1.04-2.53.23-1.11.57-2.19.46-3.34-.03-.28-.1-.55-.1-.83-.02-1.07-.44-2.04-.89-2.95-.48-.99-1.19-1.88-1.77-2.82-.66-1.05-1.54-1.76-2.76-2.08-.71-.18-1.38-.52-2.1-.69-.52-.13-1.09-.19-1.61-.12-.57.08-1.14.28-1.67.52-.61.29-1.31.57-1.73,1.06-.37.43-.74.73-1.23.97-.18.09-.39.23-.46.4-.43,1.12-.76,2.27-.76,3.48,0,.57-.03,1.13-.03,1.7,0,.63.03,1.25.02,1.88-.01.54-.01,1.09-.1,1.62-.14.8-.36,1.58-.53,2.37-.02.1.02.29.06.3.5.12,1.01.33,1.5.27.54-.06,1.05-.4,1.59-.53.23-.06.65.05.73.21.26.52.51,1.08.55,1.64.07.82-.05,1.65-.07,2.48,0,.2.08.41.11.54.35-.02.64-.12.87-.05.68.24,1.32.58,2,.81.47.16.68.47.79.84.07.21.11.45.14.68.06.33.03.67.01,1-.05.96-.89,2.02-1.77,2.08-.68.05-.98.57-1.15.97-.43,1.01-.72,2.08-.96,3.15-.15.71-.16,1.5.3,2.12.48.65,1.14,1.12,1.97,1.21.53.06,1.07.03,1.6,0,.3,0,.66-.06.72.32.02.11-.29.39-.47.4-.84.04-1.68.02-2.55.02,1.05,1.6,1.19,3.45.62,5.35-.07.25-.2.54-.4.7-1.07.94-2.18,1.84-3.26,2.78-.57.49-1.16.98-1.63,1.56-.55.68-.9,1.53-1.46,2.21-.86,1.06-1.01,2.27-.88,3.55.05.52.18,1.08.43,1.52.63,1.11,1.79,1.48,2.92,1.86.3.1.64.21.94.17.53-.06,1.03-.31,1.56-.36,1.14-.1,2.17-.52,3.21-.95.33-.14.73-.19.99-.41.65-.52,1.26-1.1,1.82-1.71.3-.32.47-.75.66-1.15.17-.34.25-.72.45-1.05.1-.17.35-.34.55-.37.27-.04.49.09.47.46-.02.53.1,1.1-.03,1.59-.2.73-.36,1.52-1.14,1.94-.21.11-.35.35-.52.53-.33.35-.64.74-1.01,1.06-.23.2-.54.34-.84.45-.86.32-1.74.62-2.62.91-.31.11-.64.19-.97.27-.18.05-.37.09-.56.12-.2.03-.4.07-.61.08-.23.02-.47,0-.7,0-.6.01-1.21.02-1.81.03-.71,0-1.42,0-2.13,0-.1,0-.19.09-.19.1-.42-.17-.74-.32-1.08-.43-.99-.35-2-.65-2.98-1.02-.69-.26-1.37-.49-2.18-.3.07.16.11.3.17.44.28.64.92.82,1.47,1.07.44.2.59.46.51.89-.07.44-.5.8-.92.78-.24-.02-.47-.1-.71-.14-.54-.1-1.11-.39-1.56.17Zm-1.35,3.97c-.19-.85-.14-1.65.42-2.35-.61-.89-.43-2.52.39-3.42.18-.2.26-.33.16-.63-.24-.78-.26-1.62.55-2.05.44-.24,1.05-.17,1.59-.15.57.01,1.15.08,1.7.23.52.13,1.01.4,1.51.61.19.08.39.15.7.28-.05-.29-.07-.47-.12-.65-.14-.5-.37-.99-.41-1.49-.15-1.55.13-3.04.65-4.51.41-1.15.84-2.26,1.8-3.06,1.05-.87,2.13-1.69,3.15-2.59.84-.73,1.81-1.4,2.24-2.44.26-.61.22-1.38.16-2.06-.06-.64-.3-1.28-.51-1.89-.07-.21-.28-.4-.47-.53-1.56-1.06-2.35-2.92-1.81-4.69.31-1,.86-1.92,1.35-2.85.29-.56.31-.94-.2-1.27-.44-.27-.41-.58-.21-.92.26-.45.06-.74-.11-1.17-.28-.74-.61-1.48-.51-2.36.12-.97-.01-1.96-.04-2.94-.01-.08-.12-.2-.2-.21-.6-.08-1.21-.21-1.78.08-.36.19-.7.22-1.07.02-.32-.17-.71-.21-.99-.42-.49-.39-.35-.98-.25-1.48.2-.99.58-1.95.69-2.95.14-1.26.05-2.55.12-3.82.05-.84.2-1.69.32-2.53.09-.65.2-1.3.32-1.95.03-.16.08-.34.18-.47.28-.38.4-.82.58-1.24.71-1.66,1.72-3.15,3.57-3.62,1.19-.31,2.46-.5,3.73-.24.46.1.96-.01,1.44.03.74.07,1.48.2,2.23.3.1.01.24.03.3-.02.41-.31.65-.03.94.21.3.25.64.46.99.65.95.55,1.91,1.09,2.86,1.63.07.04.17.12.18.19.13.67.76.88,1.19,1.28.93.89,1.6,1.96,2.18,3.1.24.47.55.89.84,1.34.61.92,1.03,1.9,1.26,3,.23,1.11.74,2.15.99,3.26.32,1.45.49,2.93.73,4.4.06.39.17.78.21,1.18.06.66.09,1.33.15,2.19-.37-.09-.63-.19-.89-.19-.87,0-1.74-.1-2.61.18-.5.17-.99.38-1.6.26-.58-.12-1.22.01-1.82.08-.13.02-.32.26-.33.41-.02.34.04.69.09,1.04.21,1.4.04,2.76-.48,4.08-.13.33-.24.67-.37,1.01-.18.48-.47.83-.85,1.2-.72.73-1.77,1.03-2.37,1.89-.28.4-.55.8-.82,1.21-.03.04-.05.09-.08.13-.82.94-.88,2.14-1.05,3.26-.19,1.31.17,2.46,1.31,3.34.86.66,1.74,1.33,2.31,2.32.18.32.51.6.84.76.94.47,1.31,1.38,1.73,2.21.37.74.8,1.53.84,2.32.06,1.18.44,2.28.59,3.44.05.41.15.81.21,1.23.14,1.02-.54,1.72-1,2.5-.28.47-.62.9-.94,1.36-.14.2-.23.39-.02.65.04.06-.24.38-.48.53,0,1.33-.05,2.65.01,3.98.04.86.26,1.71.38,2.57.12.9.2,1.8.36,2.69.35,2.05.14,4.11.2,6.17.04,1.11.08,2.21.1,3.32.03,1.58-.08,2.51-.15,4.17-.14.61-.08,1.67-.07,2.29.02.7-.34,1.64-.55,2.28-.35,1.04-1.53,1.42-2.55,1.75-1.47.48-2.96.35-4.47.24-.75-.06-1.51-.01-2.26.09-1.17.15-1.81-.86-1.56-1.99.09-.44.41-.82.58-1.14-.22-.38-.58-.74-.6-1.13-.05-.68-.26-1.45.35-2.04-.32-.41-.49-.94-.49-1.46,0-.42.11-.84.33-1.2.35-.58.78-.58,1.76-.48,1.02.1,2.06-.11,2.81-.88.2-.2.05-.73.05-1.11.01-1.09,0-2.18,0-3.26,0-.16.03-.32.04-.47,0-1.21-.01-2.41,0-3.61.01-.65.13-1.3.09-1.95-.11-1.57-.28-3.15-.43-4.7-1.24.33-2.36.65-3.5.94-.3.07-.66.12-.94.02-.61-.2-1.12.04-1.65.23-.12.04-.27.07-.39.04-.48-.13-.62-.05-.62.45,0,1.7-.03,3.39,0,5.09.04,1.94.17,3.87.2,5.8.02,1.69.03,3.38,0,5.07.01.61,0,1.23,0,1.84-.01,1.24-.09,2.49-.21,3.73-.07.62-.43,1.15-1.06,1.35-.7.23-1.46.3-2.15.55-.6.22-1.18.02-1.77.09-.48.06-.96.17-1.44.19-.6.02-1.2-.01-1.79-.07-.34-.03-.64.25-1.02,0-.29-.19-.69-.25-1.06-.32-.42-.09-.89-.59-.96-1.01-.07-.43-.23-.85-.36-1.33.08-.08.23-.2.38-.32.4-.31.49-.78.32-1.27-.12-.37-.15-.77-.22-1.16-.09-.46-.11-.94-.27-1.37-.4-1.1.02-2.63,1-3.22.24-.14.63-.08.95-.08.56-.02,1.13-.01,1.7-.01.11,0,.23-.05.34-.04.86.06,1.28-.26,1.25-1.1-.05-1.47-.21-2.93-.29-4.4-.03-.64.03-1.28.05-1.92.01-.17.04-.35.04-.52.01-1.42-.02-2.83.02-4.25.01-.49.14-.98.25-1.64-.64-.02-1.23,0-1.81-.06-.27-.01-.52-.15-.79-.19-.72-.12-1.46-.16-2.16-.36-.58-.16-1.12-.49-1.66-.78-.1-.05-.18-.21-.21-.33Z"/>
      <path class="cls-2" d="m51.09,37.57c-.69-.9-2.05-1.64-2.34-1.45.18.84.33,1.59.5,2.39.6-.31,1.21-.62,1.84-.94Zm-5.12,2.34v.16c.98.61,1.96,0,2.92-.16.29-.05.71-.24.73-.71-1.24.24-2.44.47-3.65.71Zm-2.8-.88c-.6-.47-.69-1.11-.16-1.69.45-.48.87-1.04,1.42-1.36.67-.4,1.42-.71,2.28-.61.57.07,1.16-.03,1.74-.06.15,0,.34-.04.46.03.95.54,2.07.82,2.76,1.77.06.08.21.1.33.15-.12.44-.63.67-.44,1.19.03.06-.1.22-.2.28-.42.3-.85.59-1.28.86-.46.3-.9.63-1.39.85-1.06.46-2.14.59-3.17-.12-.08-.05-.2-.03-.31-.05-.49-.05-.94-.18-1.29-.58-.21-.25-.48-.45-.75-.66Zm1.78-1.02c.59.1,1.2.13,1.87.2-.15-.68-.27-1.27-.44-2.02-.46.14-1.04.23-1.51.5-.23.14-.32.61-.37.95-.02.1.27.34.45.37Z"/>
      <path class="cls-2" d="m43.38,49.57c.02-1.06.59-1.94.9-2.9.09-.3.35-.56.59-.92.24.7.34,1.2-.1,1.7-.91,1.05-.81,2.31-.63,3.57.2,1.38.64,2.69,1.29,3.91.26.49.61.93.91,1.39.08.14.12.3.22.58-.31-.09-.54-.09-.64-.2-.5-.6-.99-1.2-1.44-1.84-.35-.5-.67-1.04-.93-1.59-.18-.36-.33-.79-.33-1.18,0-.84.14-1.68.16-2.52Z"/>
      <path class="cls-2" d="m48.04,49.65c-.33.08-.6.31-.48.69.07.19.29.48.44.48,1.01,0,2.03-.07,3.03-.16.13,0,.32-.29.32-.45s-.17-.44-.31-.46c-.63-.12-1.28-.16-2-.24-.28.03-.65.05-1,.14Zm-.11,1.9c-.16.04-.34.3-.35.47-.02.15.18.41.32.44.59.14,1.19.2,1.79.28,0,0,.01-.03.01-.04.23,0,.48.06.68-.02.19-.07.43-.29.43-.45s-.22-.43-.4-.47c-.5-.12-1.02-.17-1.53-.22-.32-.03-.65-.06-.95.01Zm0,53.94c-.47-.61-.68-1.38-.69-2.19-.03-3.64-.07-7.27-.1-10.91,0-.04,0-.08-.01-.1-.13-.18-.23-.44-.4-.5-.37-.14-.77-.17-1.15-.24-.55-.09-1.12-.14-1.65-.3-.52-.16-1-.44-1.57-.71-.04.58-.1,1.08-.1,1.58,0,.6.09,1.2.09,1.8-.01.87-.09,1.73-.1,2.59-.01,1.56,0,3.12,0,4.68,0,.45,0,.89-.02,1.33-.02.51-.1,1.02-.07,1.53.11,1.81.26,3.62.41,5.43.07.73.09,1.5.65,2.07.59.61,1.23,1.18,2.17,1.13.65-.03,1.3-.08,1.95-.1.53-.01,1.07,0,1.6,0,.36,0,.71-.03,1.07,0,.84.07,2.13-.67,2.46-1.54-.38-.04-.75-.15-1.08-.09-.72.14-1.39.17-1.95-.4-.08-.08-.17-.2-.16-.3.02-.34.56-.82.91-.86.22-.02.49-.01.65-.13.17-.12.31-.38.3-.58,0-.15-.23-.42-.38-.43-.43-.04-.88-.02-1.31.05-.29.05-.42-.03-.5-.28-.08-.23-.16-.45.14-.62.44-.25.89-.42,1.42-.35.24.04.5.03.74-.03.33-.08.65-.23.55-.67-.1-.43-.46-.37-.77-.35-.63.02-1.27.14-1.88.07-.43-.05-.97-.25-1.22-.58Zm7.92,5.01c.36.85.8,1.65,1.81,1.74,1.27.11,2.54.11,3.81.11.68-.01,1.37-.11,2.04-.2.75-.09,1.45-.29,1.83-1.24-.5.11-.94.12-1.31.3-.65.31-1.23.14-1.75-.17-.18-.11-.25-.52-.25-.79,0-.18.18-.47.33-.51.5-.13,1.03-.12,1.53-.25.36-.1.69-.31,1.01-.52.09-.06.14-.32.09-.43-.04-.08-.26-.1-.41-.12-.58-.04-1.25.27-1.66-.4-.13-.22-.29-.52-.24-.73.04-.18.36-.39.58-.43.55-.09,1.12-.07,1.68-.13.34-.03.71-.14.75-.56.03-.3-.74-.99-1.07-.96-.33.04-.66.17-.99.25-.84.21-1.68.42-2.53.61-.09.02-.2,0-.29-.05-.23-.11-.44-.3-.68-.33-.86-.12-1.11-.72-1.21-1.45-.15-1.1-.31-2.2-.42-3.3-.17-1.64-.35-3.27-.41-4.91-.07-1.78-.02-3.57-.02-5.36v-.68c-.62.21-1.17.4-1.73.57-.92.28-.9.28-.93,1.22-.04,1.4.14,2.8-.19,4.2-.17.71-.23,1.46-.22,2.18.03,1.94-.11,3.87.18,5.8.17,1.18.11,2.39.12,3.59.02,1.01.16,2,.55,2.95Zm1.93-31.38c.24,1.19.33,2.41.5,3.65.73-.31,1.51-.65,2.3-.98.22-.09.47-.13.66-.27.72-.51,1.45-.84,2.37-.96.67-.08,1.34-.13,2.01-.13.35-.01.72.11,1.05.26.57.25.77.86.53,1.43-.25.6-.46,1.17-.02,1.81.42.61.2,1.21-.23,1.58.35.51.68.93.93,1.4.08.14-.05.41-.1.61-.03.1-.14.17-.16.26-.3.96-.98,1.12-1.9,1.15-1.67.06-3.33.32-4.99.49-.56.06-1.11.14-1.75.22.05,1.03.11,2.03.14,3.02.03.8.04,1.6,0,2.39-.08,1.69.19,3.35.54,4.99.12.59.26,1.17.4,1.76.01.06.03.14.01.2-.36,1.63,1.05,2.27,2.25,2.06,1.18-.22,2.37-.48,3.58.04.82.36,1.4,1.6,1.14,2.43-.28.94-.54,1.88-.77,2.83-.07.29-.04.6-.02.9.04.54.2,1.08.15,1.61-.03.35-.28.74-.56.98-.26.24-.67.34-1.04.44-.49.14-1,.24-1.51.34-.42.09-.84.19-1.27.21-.45.01-.9-.06-1.36-.1-.85-.07-1.71-.14-2.56-.21-1.88-.15-3.39-2.02-3.52-3.38-.15-1.66-.2-3.32-.34-4.98-.09-1.13-.29-2.24-.37-3.37-.07-.9-.06-1.8-.03-2.7.04-1.23.11-2.45.21-3.68.08-1.04-.15-2.03-.39-3.03-.01-.06-.04-.13-.04-.2-.08-.69-.08-.61-.74-.56-1.15.09-2.32.34-3.48-.05-.29-.1-.64-.02-1-.02,0,.85.01,1.67,0,2.48,0,.21-.09.41-.09.62,0,3.08,0,6.16,0,9.24,0,.26.03.53.12.77.04.12.25.28.37.26.65-.09,1.29-.24,1.93-.36.34-.06.69-.17,1.03-.15.64.04,1.65,1.23,1.63,1.88-.01.35-.07.69-.12,1.15-.58.23-.39.97-.6,1.52-.15.41.29.52.54.7.2.14.53.22.59.41l.06.18c.07.29.07.6.05.9-.06.77-.39,1.49-.96,1.98-.42.36-1.02.54-1.57.7-.79.23-1.6.38-2.41.52-.19.04-.45-.2-.63-.14-.61.19-1.18.3-1.85.19-.72-.11-1.48.07-2.22.07-1.02-.01-1.9-.49-2.32-1.35-.43-.9-.66-1.93-.8-2.92-.21-1.46-.29-2.94-.37-4.41-.04-.79.07-1.59.08-2.39.01-.29-.09-.58-.09-.88,0-2.67.01-5.34,0-8.01,0-1.11-.09-2.22-.09-3.33,0-.63.1-1.26.16-1.95-.15-.07-.36-.14-.54-.26-.29-.2-.68-.33-.6-.83.02-.14-.09-.34-.2-.46-.21-.23-.43-.42-.22-.77.03-.06-.02-.21-.08-.28-.71-.78-.72-1.8-.96-2.74-.22-.83-.36-1.69-.48-2.55-.06-.38-.03-.8.06-1.18.25-1.15.44-2.32.86-3.41.4-1.02,1.01-1.98,1.61-2.9.72-1.1,1.6-2.1,2.31-3.21.53-.84.91-1.78,1.36-2.67.6-1.17.56-2.37.08-3.56-.27-.65-.51-1.32-.84-1.93-.21-.37-.63-.63-.85-1-.24-.4-.71-.63-.76-1.18-.03-.23-.35-.44-.52-.67-.28-.38-.58-.74-.8-1.15-.36-.62-.66-1.28-.98-1.92-.17-.32-.38-.62-.5-.95-.2-.55-.5-1.08-.35-1.71,0-.08-.01-.18-.05-.25-.58-1.11-.72-2.33-.86-3.54-.03-.22.15-.46.16-.69.02-.99.03-1.98-.01-2.98-.01-.23-.2-.55-.4-.67-.66-.38-.85-1.08-1.19-1.67-.64-1.09-1.22-2.24-1.13-3.54.06-.72.4-1.42.58-2.14.08-.32.09-.65.14-1.03.13.11.21.18.21.19,0-.68-.1-1.44.03-2.15.21-1.15.03-2.42.83-3.43.39-.5.8-1.01,1.27-1.43.31-.27.75-.38,1.12-.59.71-.39,1.4-.82,2.12-1.19,1.71-.9,3.46-1.75,5.34-2.18,1.26-.29,2.55-.25,3.73.51.46.31,1.09.37,1.55.67.47.32.9.74,1.22,1.21.5.73.66,1.54.45,2.45-.08.34.23.75.27,1.14.17,1.44.28,2.88.44,4.32.1.94.42,1.83.93,2.64.22.35.42.67.27,1.15-.07.26.21.61.27.93.06.35.1.72.06,1.07-.1.79-.87.69-1.36.97-.65.36-1.4.36-2.09.57-.33.1-.45.3-.42.61.06.57.14,1.14.21,1.7.11.83.13,1.68.34,2.48.29,1.11-.15,2.05-.5,3.03-.05.11-.14.22-.14.33-.01,1.03-.12,2.04.55,2.98.46.64.81,1.43.98,2.2.11.55-.15,1.18-.27,1.77-.04.24-.21.47-.19.69.06.69-.36,1.09-.76,1.52-.46.48-.92.97-1.4,1.44-.15.16-.48.23-.52.39-.15.61-.3,1.25-.29,1.87.01.76.16,1.52.3,2.27.17.88.33,1.79,1,2.45.54.54,1.16.99,1.72,1.51.31.29.56.64.84.97.63.73,1.31,1.41,1.87,2.19.96,1.36,1.8,2.82,2.13,4.47Zm3.13,3.81c-.92.58-1.94.88-2.9,1.34-.72.35-1.62.32-2.39.62-.96.37-1.99-.08-2.92.4-.04.02-.1.01-.16,0-.57-.13-1.16-.2-1.7-.4-.79-.28-1.54-.65-2.3-.99-.52-.23-1.09-.4-1.53-.73-.88-.65-1.53-1.51-2.01-2.5-.53-1.08-.67-2.1.12-3.14.24.21.44.55.71.6.41.09.4.36.45.63.17.81.25,1.67.9,2.04,0,.3-.07.56.02.65.28.29.61.53.94.76,1.33.92,2.7,1.74,4.44,1.5.59-.09,1.2-.07,1.79-.19.7-.14,1.4-.34,2.09-.58.18-.06.41-.33.42-.51.03-.49-.03-.98-.08-1.47-.08-.69-.13-1.39-.29-2.06-.27-1.14-.73-2.19-1.38-3.21-1.27-1.98-3.03-3.44-4.73-4.98-.47-.43-.7-.86-.82-1.43-.24-1.06-.44-2.13-.75-3.16-.32-1.07-.24-2.09.31-3.01.39-.67.98-1.25,1.56-1.79.86-.8,1.58-1.64,1.32-2.92-.15-.7-.23-1.47-.57-2.08-.41-.74-.98-1.38-.81-2.28-.82-.24-1.66.02-2.4-.39-.27-.14-.57-.26-.81-.44-.27-.2-.52-.46-.76-.71-.27-.28-.45-.57-.29-1.01.06-.18-.02-.46-.12-.65-.25-.44-.17-.8.18-1.1.41-.35.96-.58,1.25-1,.42-.6.94-.51,1.48-.49.68.02,1.36.08,2.14.12-.17-1.18-.35-2.26-.45-3.35-.04-.44.02-.92.17-1.34.15-.43.5-.7,1.03-.76.83-.09,1.64-.27,2.38-.71.27-.17.32-.33.22-.58-.12-.31-.3-.6-.4-.91-.22-.71-.33-1.47-.63-2.15-.17-.4-.31-.77-.37-1.2-.16-1.04-.4-2.07-.6-3.1-.04-.22.02-.48-.07-.68-.24-.54-.75-.33-1.15-.29-.87.08-1.73.23-2.6.34-.33.04-.66.03-.99.07-1.02.13-2.03.37-3.05.38-1.03.01-1.85.46-2.64.97-.45.28-.87.83-1.01,1.34-.16.61-.35,1.24-.44,1.9-.16,1.22.11,2.36.27,3.52.15,1.03.46,2-.09,3.02-.41.75-.91,1.29-1.79,1.38-.11.02-.29.08-.31.15-.11.63-.24,1.27-.27,1.92,0,.43.18.87.21,1.31.06.72.01,1.45.09,2.17.16,1.25.58,2.44,1.1,3.59.24.51.38,1.12.76,1.5.84.85,1.23,1.99,2.06,2.86.72.75,1.14,1.8,1.67,2.73.2.36.39.74.48,1.13.19.74.26,1.51.45,2.24.18.69.04,1.31-.17,1.94-.14.42-.38.82-.46,1.25-.23,1.11-.64,2.11-1.46,2.93-.5.49-.95,1.04-1.39,1.6-.18.23-.24.56-.41.81-.47.68-1,1.31-1.45,1.99-.89,1.34-1.21,2.86-1.12,4.42.08,1.43.43,2.84.6,4.27.19,1.63,1.31,2.56,2.51,3.4.69.48,1.54.72,2.29,1.12s1.55.22,2.32.26c.31.02.55.04.81.18.11.06.23.18.36.18,1.28.04,2.58.22,3.84.05.88-.12,1.75-.24,2.64-.26.22,0,.44-.06.66-.1,1.83-.37,3.51-1.3,5.42-1.41,1.07-.06,2.13-.26,3.2-.39.66-.08,1.32-.12,1.97-.24.16-.02.39-.27.4-.42.01-.17-.17-.4-.33-.5-.53-.35-1.13-.5-1.78-.46-.16,0-.44-.19-.48-.34-.04-.14.13-.38.27-.52.12-.11.31-.15.48-.18.57-.08,1.14-.11,1.7-.23.19-.04.42-.29.45-.48.03-.12-.25-.42-.42-.44-.39-.04-.8.06-1.2.06-.34,0-.7-.03-1.02-.12-.13-.03-.26-.28-.28-.44-.01-.14.12-.39.23-.42.49-.14,1-.23,1.5-.29.4-.05.97-.45,1.01-.78.05-.36-.31-.84-.81-.86-.59-.02-1.27-.03-1.78.23-.84.44-1.75.8-2.53,1.3Z"/>
    </g>
  </g>
</svg>