<?xml version="1.0" encoding="UTF-8"?>
<svg xmlns="http://www.w3.org/2000/svg" viewBox="0 0 136.06 136.06">
  <defs>
    <style>
      .cls-1 {
        fill: #fff;
      }

      .cls-2 {
        fill: #a84940;
      }

      .cls-3 {
        fill: #0c3454;
      }

      .cls-4 {
        fill: #d8c6b8;
      }

      .cls-5 {
        fill: #b0c4e2;
      }

      .cls-6 {
        fill: #636c43;
      }
    </style>
  </defs>
  <g id="poni_01">
    <rect class="cls-5" x="14.17" y="12.76" width="107.72" height="110.55" fill="none" stroke="#0c3454" stroke-width="0.25"/>
  </g>
  <g id="Layer_1" data-name="Layer 1">
    <g>
      <g>
        <path class="cls-3" d="m24.06,68.1c.11-.18.22-.36.31-.54.22-.47.6-.64,1.08-.59.53.06,1.04.19,1.45.57.11.1.23.17.33.25.04-.01.07-.01.08-.02.8-1,1.63-.82,2.63.12.16.16.32.33.51.53.45-.42.84-.88,1.52-.77.55.08.86.48,1.28.84.07-.09.17-.19.24-.3.32-.46.63-.54,1.15-.35.35.13.72.16,1.01.45.29.29.44.61.4,1-.1.84-.49,1.47-1.29,1.8-.9.38-1.85.57-2.82.63-1.18.07-2.35.09-3.53.11-.31,0-.63-.04-.95-.04-.92,0-1.85-.02-2.77.04-1.12.07-2.13-.22-3.11-.7-.79-.38-1.46-1.78-1.03-2.84.22-.54,1.25-.98,1.76-.92.64.07.93.18,1.75.74m.14.72c-.13-.13-.23-.23-.33-.33-.43-.44-.93-.72-1.56-.75-.44-.02-.95,0-1.11.42-.18.46-.31,1.07-.17,1.51.19.58.68,1.03,1.31,1.29.85.35,1.73.35,2.61.37,1.14.02,2.27-.04,3.41-.04,1.5,0,3,.11,4.48-.14.52-.09,1.02-.23,1.53-.36.56-.13.88-.54,1.11-1.03.18-.39.06-.9-.27-1.13-.4-.29-.92-.23-1.25.15-.21.25-.41.51-.68.86-.11-.25-.2-.42-.26-.6-.39-1.18-1.3-1.39-2.15-.48-.15.16-.32.3-.47.44-.38-.43-.68-.82-1.03-1.16-.47-.44-1.26-.6-1.72.16-.13.21-.23.44-.36.66-.07.11-.16.2-.28.36-.24-.44-.43-.81-.64-1.16-.35-.59-1.32-.6-1.67,0-.18.3-.32.62-.5.98"/>
        <path class="cls-1" d="m24.21,68.82c.18-.36.32-.68.5-.98.35-.59,1.32-.58,1.67,0,.21.36.4.72.64,1.16.12-.15.22-.25.28-.36.13-.21.23-.44.36-.66.46-.75,1.25-.6,1.72-.16.36.34.66.74,1.03,1.16.14-.13.32-.28.47-.44.85-.91,1.76-.7,2.15.48.06.18.15.35.26.6.28-.35.47-.61.68-.86.33-.39.84-.44,1.25-.15.33.23.45.74.27,1.13-.23.49-.54.9-1.11,1.03-.51.12-1.02.27-1.53.36-1.49.25-2.99.14-4.48.14-1.14,0-2.28.06-3.41.04-.88-.02-1.76-.02-2.61-.37-.63-.26-1.12-.72-1.31-1.29-.15-.44-.02-1.05.17-1.51.16-.41.67-.44,1.11-.42.63.03,1.13.31,1.56.75.1.1.2.2.33.33"/>
        <path class="cls-3" d="m92.2,40.28c.14-.65.5-1.03,1.11-1.16.56-.12,1.07-.08,1.35.53,1.23-1.31,2.44-1.25,3.29-.29.43-.27.88-.54,1.42-.5.55.04.97.34,1.31.77.32-.19.62-.38.94-.56.71-.4,1.23-.25,1.64.46.05.08.1.17.15.24.03.04.08.08.14.14.13-.1.27-.21.4-.31.53-.41,1.18-.29,1.43.32.13.31.26.4.6.48.37.08.74.34,1.01.62.35.35.16.99-.32,1.35-.68.52-1.49.71-2.32.79-1.32.12-2.64.24-3.96.3-.84.04-1.69-.03-2.53,0-1.58.05-3.15-.05-4.71-.19-.67-.06-1.33-.17-1.98-.35-.52-.14-.92-.5-1.01-1.07-.1-.65.05-1.24.64-1.61.19-.12.47-.13.7-.13.22,0,.44.1.71.16m.21.64c-.26-.18-.42-.32-.61-.42-.3-.17-.65-.25-.92-.02-.74.64-.77,1.83.26,2.2.36.13.73.25,1.11.3.91.11,1.83.12,2.74.25,1.33.2,2.65-.02,3.96-.15,1.87-.18,3.74-.36,5.62-.36.68,0,1.32-.08,1.88-.54.26-.22.32-.46.31-.76-.01-.32-.26-.46-.51-.56-.17-.07-.38-.08-.57-.1-.44-.06-.44-.06-.51-.5-.04-.29-.16-.5-.47-.58-.3-.08-.53.01-.71.24-.1.12-.17.25-.26.38-.1.15-.21.29-.31.44-.11-.11-.12-.18-.12-.24-.06-.6-.4-1.08-.89-1.24-.38-.12-1.02.16-1.36.57-.11.14-.25.26-.42.43-.28-.58-.59-1.05-1.22-1.13-.62-.08-1.06.23-1.39.81-.18-.19-.34-.32-.46-.48-.46-.55-1.39-.74-1.97-.32-.26.19-.43.53-.63.8-.07.09-.14.19-.21.3-.37-.5-.69-.97-1.36-.89-.88.11-.85.84-.97,1.56"/>
        <path class="cls-1" d="m92.4,40.92c.12-.72.09-1.45.97-1.56.67-.08.99.39,1.36.89.08-.11.14-.21.21-.3.2-.27.36-.61.63-.8.58-.42,1.51-.24,1.97.32.13.15.28.29.46.48.34-.58.77-.89,1.39-.81.62.08.93.55,1.22,1.13.17-.17.31-.29.42-.43.34-.41.98-.69,1.36-.57.49.15.83.63.89,1.24,0,.07.01.13.12.24.1-.15.21-.29.31-.44.09-.13.16-.26.26-.38.18-.23.41-.32.71-.24.31.08.43.29.47.58.07.44.07.43.51.5.19.03.39.03.57.1.25.1.5.24.51.56.01.29-.04.53-.31.76-.56.47-1.2.54-1.88.54-1.88,0-3.75.18-5.62.36-1.31.13-2.62.35-3.96.15-.9-.13-1.83-.15-2.74-.25-.38-.04-.75-.17-1.11-.3-1.03-.36-1-1.55-.26-2.2.27-.24.62-.15.92.02.18.1.34.24.61.42"/>
        <path class="cls-3" d="m108.65,23.1c.86-1.27,1.79-1.21,2.88-.01.49-.13,1-.11,1.49.15.84.44,1.15,1.42.71,2.28-.49.96-1.35,1.43-2.31,1.73-.83.26-1.7.28-2.57.19-.88-.09-1.69-.39-2.24-1.13-.63-.83-.78-1.75-.37-2.73.36-.85,1.32-1.15,2.11-.69.09.05.17.12.29.21m.21.86s-.1.01-.15.02c-.09-.15-.2-.3-.27-.47-.31-.68-1.27-.66-1.59-.05-.17.31-.28.66-.37,1-.23.85.38,1.9,1.19,2.27.94.43,1.91.44,2.9.35.91-.08,1.73-.42,2.38-1.06.28-.27.51-.64.62-1,.29-.99-.65-1.93-1.65-1.69-.1.02-.19.09-.27.15-.14.11-.27.24-.44.4-.01-.15-.02-.23-.03-.31-.03-.44-.44-.94-.85-1.05-.66-.17-1.21.19-1.36.87-.04.19-.08.38-.12.57"/>
        <path class="cls-1" d="m108.86,23.95c.04-.19.08-.38.12-.57.14-.69.69-1.04,1.36-.87.41.11.82.61.85,1.05,0,.08.01.16.03.31.18-.16.3-.29.44-.4.08-.06.17-.13.27-.15,1-.24,1.94.71,1.65,1.69-.11.37-.34.74-.62,1-.65.63-1.47.97-2.38,1.06-.99.09-1.96.08-2.9-.35-.8-.37-1.42-1.42-1.19-2.27.09-.34.21-.69.37-1,.32-.6,1.28-.63,1.59.05.07.16.18.31.27.47.05,0,.1-.01.15-.02"/>
        <path class="cls-3" d="m44.7,49.97c.52.47.51,1.29,0,2.07-.79,1.23-3.32.89-3.74-.32-.2-.57-.22-1.11.12-1.63.27-.4.59-.51,1.03-.29.24.12.41.13.62-.05.69-.59,1.23-.5,1.97.22m-2.29,1.05c-.03-.16-.07-.25-.06-.32.06-.36-.14-.5-.44-.56-.3-.06-.53.09-.61.33-.14.4-.19.81.1,1.2.45.6,1.48.94,2.28.71.58-.16,1.06-.78,1.09-1.41.02-.56-.31-1-.91-1.2-.61-.2-1.07.14-1.05.78,0,.12.04.25.06.37-.2.04-.3.06-.45.09"/>
        <path class="cls-1" d="m42.4,51.02c.15-.03.25-.05.45-.09-.02-.12-.06-.25-.06-.37-.02-.64.44-.99,1.05-.78.6.2.93.64.91,1.2-.03.62-.5,1.24-1.09,1.41-.8.22-1.82-.11-2.28-.71-.29-.39-.23-.8-.1-1.2.08-.24.31-.4.61-.33.3.07.51.2.44.56-.01.08.03.16.06.32"/>
        <path class="cls-3" d="m33.01,40.57c-.74-.25-1.22-.83-1.93-1.12-.67.8-1.56,1.34-2.5,1.88-.07-.49.27-.78.35-1.16.08-.37.28-.72.44-1.11-.46-.51-1-1.11-1.37-1.82-.21-.4-.52-.73-.75-1.11-.04-.07-.08-.14-.16-.29.51.08.91.27,1.32.39.43.12.85.29,1.28.44.11-.6.19-1.19.34-1.77.15-.57.11-1.18.41-1.77.32.35.27.78.38,1.14.12.38.19.77.29,1.19.23-.09.44-.17.64-.26.35-.17.69-.35,1.04-.53.09-.05.19-.11.25,0,.03.05.01.16-.02.23-.23.43-.47.85-.71,1.27-.04.06-.07.13-.1.19-.12.26-.1.28.17.38.44.17.88.34,1.32.51.09.03.19.05.28.08,0,.04,0,.07,0,.11-.09.07-.16.16-.26.21-.25.14-.51.28-.78.4-.36.17-.38.16-.33.54.04.31.14.61.21.92.06.27.12.54.18.82.01.06,0,.12,0,.23m-5.41-4.25c.3.37.61.75.91,1.12.37.45.74.9,1.12,1.34.15.18.14.34.04.53-.2.36-.39.73-.57,1.1-.06.12-.1.25-.15.38.02.02.05.03.07.05.66-.53,1.32-1.05,2.02-1.61.29.03.54.28.82.46.29.18.57.39.9.62-.16-.77-.31-1.46-.46-2.17.44-.21.89-.42,1.39-.65-.39-.18-.7-.32-1.02-.46-.03-.01-.07-.01-.11-.02-.75-.13-.76-.3-.44-.91.18-.34.35-.68.55-1.07-.59.27-1.13.52-1.7.78-.14-.72-.2-1.43-.52-2.14-.06.35-.11.62-.16.89-.13.65-.33,1.29-.32,1.97,0,.17,0,.37-.16.51-.69-.35-1.4-.63-2.2-.71"/>
        <path class="cls-1" d="m27.6,36.32c.8.07,1.51.35,2.2.71.17-.14.16-.34.16-.51-.01-.68.19-1.32.32-1.97.05-.27.1-.54.16-.89.32.72.38,1.42.52,2.14.57-.26,1.11-.51,1.7-.78-.2.39-.37.73-.55,1.07-.33.61-.31.77.44.91.04,0,.07,0,.11.02.32.14.63.29,1.02.46-.5.24-.94.44-1.39.65.15.71.3,1.4.47,2.17-.33-.23-.61-.43-.9-.62-.28-.18-.54-.43-.82-.46-.7.56-1.36,1.09-2.02,1.61-.02-.02-.05-.03-.07-.05.05-.13.09-.26.15-.38.19-.37.37-.74.57-1.1.11-.19.12-.35-.04-.53-.38-.44-.75-.89-1.12-1.34-.31-.37-.61-.75-.91-1.12m5.2,1.15s0-.06,0-.09c-.42-.17-.84-.35-1.27-.53.14-.31.26-.59.41-.91-.49-.03-.67.48-1.08.5-.19-.17-.15-.51-.45-.6-.02.05-.05.08-.05.11-.05.35-.09.7-.14,1.04-.03.28-.06.31-.34.3-.27,0-.53-.01-.8-.02-.06,0-.12.02-.25.05.21.13.37.2.51.32.28.23.55.48.83.71.14.12.17.24.12.42-.1.35-.18.71-.27,1.11.08-.05.13-.07.17-.11.22-.22.43-.47.66-.67.12-.11.19-.38.42-.27.17.08.32.22.47.34.04.04.06.11.1.15.05.04.11.05.23.1-.06-.63-.11-1.2-.17-1.81.3-.05.59-.1.89-.15"/>
        <path class="cls-3" d="m32.8,37.47c-.29.05-.58.1-.88.15.06.61.11,1.18.17,1.81-.12-.05-.19-.06-.23-.1-.04-.04-.06-.11-.1-.15-.15-.12-.29-.27-.47-.34-.23-.11-.3.16-.42.27-.24.2-.44.45-.67.67-.04.04-.09.06-.17.11.1-.4.17-.76.27-1.11.05-.18.02-.3-.12-.42-.28-.23-.55-.48-.83-.71-.14-.11-.3-.19-.51-.32.12-.03.19-.05.25-.05.27,0,.53.01.8.02.28,0,.31-.02.34-.3.04-.35.09-.7.14-1.04,0-.03.03-.06.05-.12.3.09.27.43.45.6.41-.02.59-.53,1.08-.5-.14.32-.27.6-.41.91.43.18.85.35,1.27.53,0,.03,0,.06,0,.09m-2.49.1c-.3-.02-.56-.04-.87-.07.05.09.07.13.1.16.22.19.44.38.66.57.31.26.3.26.2.65-.05.18-.12.38-.08.6.31-.32.59-.61.88-.91.23.18.44.35.68.52.12-.57-.13-1.07-.13-1.59.24-.04.46-.08.67-.12-.34-.18-.66-.39-1.08-.33.05-.25.09-.48.14-.73-.23.17-.43.31-.63.46-.1-.16-.2-.31-.29-.45-.02,0-.05.01-.07.02-.06.39-.11.78-.17,1.21"/>
        <path class="cls-1" d="m30.31,37.57c.06-.43.12-.82.17-1.21.02,0,.05-.01.07-.02.09.14.18.28.29.45.2-.15.4-.29.63-.46-.05.25-.09.47-.14.73.42-.06.74.15,1.08.33-.22.04-.43.08-.67.12,0,.52.25,1.01.13,1.59-.23-.18-.45-.35-.68-.52-.29.3-.58.59-.88.91-.04-.22.03-.41.08-.6.11-.39.11-.39-.2-.65-.22-.19-.44-.38-.66-.57-.03-.03-.05-.07-.1-.16.31.02.57.04.87.07"/>
        <path class="cls-3" d="m113.97,73.4c-.86-1.27-1.79-1.21-2.88-.01-.49-.13-1-.11-1.49.15-.84.44-1.15,1.42-.71,2.28.49.95,1.35,1.43,2.31,1.73.83.26,1.7.28,2.57.19.88-.09,1.69-.39,2.24-1.13.63-.83.78-1.75.37-2.73-.36-.85-1.32-1.15-2.11-.69-.09.05-.17.12-.29.21m-.21.86s.1.01.15.02c.09-.15.2-.3.27-.47.31-.69,1.27-.66,1.59-.05.17.31.28.66.37,1,.23.85-.38,1.9-1.19,2.27-.94.43-1.91.44-2.9.35-.91-.08-1.73-.42-2.38-1.06-.28-.27-.51-.64-.62-1-.29-.99.65-1.93,1.65-1.69.1.02.19.09.27.15.14.11.27.24.44.4.01-.15.02-.23.03-.31.03-.44.44-.94.85-1.05.66-.17,1.21.19,1.36.87.04.19.08.38.12.57"/>
        <path class="cls-1" d="m113.76,74.26c-.04-.19-.08-.38-.12-.57-.14-.69-.69-1.04-1.36-.87-.41.11-.82.61-.85,1.05,0,.08-.01.16-.03.31-.18-.16-.3-.29-.44-.4-.08-.06-.17-.13-.27-.15-1-.24-1.94.71-1.65,1.69.11.37.34.74.62,1,.65.63,1.47.97,2.38,1.06.99.09,1.96.08,2.9-.35.8-.37,1.42-1.42,1.19-2.27-.09-.34-.21-.69-.37-1-.32-.6-1.28-.63-1.59.05-.07.16-.18.31-.27.47-.05,0-.1-.01-.15-.02"/>
        <path class="cls-1" d="m39.05,116.32c0,.13.02.29-.19.26-.4-.05-.5-.13-.48-.34.02-.21.08-.28.28-.26.39.05.42.02.39.34"/>
        <path class="cls-3" d="m113.66,122.83v.35H22.8s0,.01-.01.01c-.29.01-.58.02-.88.02-.32.01-.65.01-.98.01.22-.76.5-1.51.88-2.22.94-1.78,1.87-3.59,2.81-5.39,1.05-2.02,2.34-3.86,3.75-5.63.37-.47.78-.91,1.16-1.36.45-.54,3.04-3.41,3.46-3.98.8-1.09,5.39-6.63,14.72-9.49,2.62-1.15,5.8-1.81,7.39-2.18.78-.16,1.51-.46,2.32-.58,1.6-.27,3.22-.53,4.73-1.22.94-.44,2.03-.54,3.09-.43.21.02.42-.03.69-.05.04-.14,3.9-.44,5.16-.54,2.14-.08,6.23.53,8.58.78,1.04.2,4.09.78,4.26.82.19.06,1.39.47,2.27.66,1.72.57,2.11,1.07,3.46,1.33.86.16,1.66.69,2.5,1.06.06.02.11.08.17.11,2.13.87,3.87,2.37,5.77,3.58.94.58,1.96,1.1,2.81,1.79.98.8,1.8,1.75,2.66,2.66.53.53,1.03,1.06,1.48,1.65.35.47,3.02,4.59,3.22,4.48.11.21,3.66,9.28,3.84,9.28.06.18,1.08,3.13,1.55,4.48m-90.75,0h88.95c-.46-1.41-.91-2.82-1.34-4.24-.96-3.17-2.18-6.25-3.82-9.11-.05-.32-.86-1.41-1.02-1.67.13-.05-2.07-2.58-2.29-2.54-.57-.7-1.15-1.4-1.72-2.09-1.94-2.3-4.59-3.64-7.11-5.12-.74-.45-1.75-.51-2.38-1.04-.99-.81-2.1-1.26-3.21-1.76-1-.46-9.07-2.28-9.07-2.28-.88-.19-1.77-.36-2.65-.45-.06-.09-5.46-.3-5.75-.32-.45.08-5.59.56-6.03.66-.14.04-.25.13-.35.2-.06.01-.11.01-.16.01-.95.1-1.89.19-2.82.29-.83.09-1.67.21-2.49.26-1.65.11-2.9-.27-4.44.16-.76.21-2.12,1.23-3.43,1.45-1.04.18-1.89.36-4.15,1.02-3.71,1.23-7.79,3.38-8.52,4.66-1.27,1.25-3.79,4.08-6.12,5.68-.21.15-3.63,3.62-3.52,3.79-1.08,1.68-2.15,3.35-3.25,5-1.52,2.31-2.46,4.86-3.31,7.44"/>
        <path class="cls-6" d="m111.86,122.83H22.91c.85-2.58,1.79-5.13,3.31-7.44,1.1-1.65,2.17-3.32,3.25-5-.11-.17,3.31-3.64,3.52-3.79,2.33-1.6,4.85-4.43,6.12-5.68.73-1.28,4.81-3.43,8.52-4.66,2.26-.66,3.11-.84,4.15-1.02,1.31-.22,2.67-1.24,3.43-1.45,1.54-.43,2.79-.05,4.44-.16.82-.05,1.66-.17,2.49-.26.93-.1,1.87-.19,2.82-.29.05,0,.1,0,.16-.01.1-.07.21-.16.35-.2.44-.1,5.58-.58,6.03-.66.29.02,5.69.23,5.75.32.88.09,1.77.26,2.65.45,0,0,8.07,1.82,9.07,2.28,1.11.5,2.22.95,3.21,1.76.63.53,1.64.59,2.38,1.04,2.52,1.48,5.17,2.82,7.11,5.12.57.69,1.15,1.39,1.72,2.09.22-.04,2.42,2.49,2.29,2.54.16.26.97,1.35,1.02,1.67,1.64,2.86,2.86,5.94,3.82,9.11.43,1.42.88,2.83,1.34,4.24"/>
        <path class="cls-3" d="m67.62,114.94c-.35.85-.2,1.31.46,1.6.76.33,1.94-.24,2.12-1.04.13-.55-.12-.96-.59-1.23-.32-.19-.66-.34-1.16-.59.3-.15.51-.33.58-.29.49.32,1.06.61,1.4,1.06.36.47.39,1.1,0,1.68-.5.72-1.71,1.16-2.53.89-.62-.21-1.12-1.02-1.02-1.68.03-.21.07-.23.74-.39"/>
        <path class="cls-3" d="m78.18,111.03c-.09.65-.69,1.17-1.21,1.06-.54-.11-1.17-.97-1.1-1.51.07-.56.72-1.1,1.26-1.03.56.07,1.14.88,1.05,1.48m-1.22-.97c-.45.07-.61.39-.48.8.08.26.3.6.53.67.48.15.63-.26.7-.5-.29-.37-.51-.65-.76-.97"/>
        <path class="cls-3" d="m73.24,105.35c-.02.27.02.51-.06.55-.26.16-.55.33-.84.36-.59.07-1.48-.77-1.53-1.37-.06-.75.78-1.43,1.95-1.5-.08.14-.11.29-.2.34-.18.1-.4.13-.58.22-.58.28-.81.66-.65,1.03.22.51.94.8,1.45.57.11-.05.23-.1.46-.22"/>
        <path class="cls-3" d="m82.17,109.41c.21.12.41.24.6.36.62-.86.49-1.05-1.1-1.62.69-.37,1.23-.27,1.67.32.28.38.28,1.22-.03,1.57-.21.25-.48.46-.82.28-.34-.18-.56-.43-.32-.9"/>
        <path class="cls-3" d="m79.31,106.59c.3-1.11.21-1.54-.34-1.91-.44-.3-.84-.21-1.69.44.04-.27.02-.49.11-.6.48-.58,1.16-.67,1.79-.29.68.42,1.03,1.28.73,1.9-.08.16-.32.25-.61.46"/>
        <path class="cls-3" d="m83.95,103.57c-.9.66-.91.69-.27,1.43.2-.39.38-.73.56-1.07.35.24.39.49.15.94-.26.49-.71.75-1.08.6-.5-.19-.73-.89-.51-1.53.16-.47.41-.57,1.15-.38"/>
        <path class="cls-3" d="m76.35,120.24c.44-.67.81-.34,1.15-.26.26.07.54.16.73.34.12.11.11.39.1.59-.03.41-.72.91-1.24.91-.35,0-.42-.09-.64-.86.32.11.6.29.86.27.22-.02.56-.23.61-.41.07-.32-.21-.45-.54-.46-.29,0-.59-.07-1.01-.12"/>
        <path class="cls-3" d="m44.96,108.7c.08-.99.23-1.14.94-1.07.68.07,1.18.51,1.12,1-.07.65-.74,1.02-1.6.84.1-.74,1.14-.12,1.21-.86-.5-.83-.81-.84-1.68.1"/>
        <path class="cls-3" d="m55.26,117.15c-.54.33-.81.74-.56,1.39.31.81.78,1.21,1.65,1.24-.04-.29-.07-.57-.11-.85.05-.01.09-.03.14-.05.15.29.29.57.43.85-.41.44-.81.62-1.33.27-.75-.5-1.21-1.16-1.17-2.09.03-.52.15-.61.94-.77"/>
        <path class="cls-3" d="m66.65,108.91q.79-.16.68-1c-.29.06-.58.11-.94.18.01-.13-.02-.28.04-.37.31-.44.74-.5,1.15-.17.45.36.47,1.18.03,1.6-.33.32-.53.27-.96-.23"/>
        <path class="cls-3" d="m57.13,101.05c.35-.09.57-.14.95-.23-.18-.35-.33-.62-.52-.98-.35.26-.61.46-.91.69-.22-.54.1-.93.46-.94.39-.01.85.24,1.17.51.3.26.14.97-.17,1.23-.2.18-.41.13-.98-.27"/>
        <path class="cls-3" d="m88.13,106.71c-.46,1.02-.47,1.1.06,1.47.19.13.53.22.72.14.37-.15.35-.64.02-1.39.61.36.7.39.61.71-.11.37-.32.77-.6,1.02-.33.29-.98-.06-1.35-.66-.31-.49-.2-.84.53-1.29"/>
        <path class="cls-3" d="m75.8,117.46c-.13-.38-.55-.76-.13-1.17.16-.16.6-.19.81-.09.21.1.45.49.41.7-.1.51-.54.65-1.09.56"/>
        <path class="cls-3" d="m94.59,118.07c.28.56.25,1.12-.15,1.33-.2.11-.54.12-.75.02-.42-.21-.63-.77-.44-1.15.13-.26.37-.47.65-.81.13.6-.69,1.16.25,1.59.14-.31.28-.62.44-.99"/>
        <path class="cls-3" d="m99.11,106.46c.28.06.56.12.83.18.48-.95.3-1.22-1.02-1.63.61-.22,1.18-.07,1.48.4.22.35.21,1.13-.03,1.4-.25.28-.56.24-1.26-.35"/>
        <path class="cls-3" d="m71.23,110.36c.5-.4,1.15-.33,1.42.09.28.42.11,1.03-.39,1.35-.46.3-.58.26-.93-.39.28,0,.52.06.74,0,.13-.03.28-.23.29-.37.01-.13-.11-.34-.22-.4-.27-.13-.57-.19-.91-.29"/>
        <path class="cls-3" d="m85.92,109.33c.18.2.37.39.53.6.28.36.22.84-.12.97-.38.15-.56-.09-.72-.41-.22-.46-.3-.86.3-1.16"/>
        <path class="cls-3" d="m60.42,109.2c.66.27,1.08.44,1.52.62-.14.74-.44,1.11-1.28,1.01-.06-.44-.13-.91-.24-1.63m.62,1.31c.12-.13.25-.23.24-.26-.07-.13-.18-.23-.27-.35-.07.06-.2.14-.19.18.04.13.13.25.23.43"/>
        <path class="cls-3" d="m82.85,113.39c.03-.22.05-.37.07-.55-.22-.07-.46-.14-.7-.21.04-.12.05-.23.08-.24.33-.07.67-.19.99-.16.22.02.52.23.6.43.13.34-.14.58-.46.68-.15.05-.33.02-.57.04"/>
        <path class="cls-3" d="m73.63,110.02q-.68-.9-.45-1.98c.4.22.77.41,1.12.6.12.65-.13,1.05-.67,1.38m-.02-1.41c-.29.41-.23.64.1.76.06.02.28-.2.26-.23-.08-.17-.21-.32-.36-.52"/>
        <path class="cls-3" d="m49.87,112.11c-.08.52-.82,1.09.07,1.49.5-.41.66-.88.24-1.55.75.18.53.67.5,1.01-.05.49-.51.96-.88.89-.22-.04-.5-.27-.58-.48-.2-.51.05-.99.65-1.36"/>
        <path class="cls-3" d="m88.97,116.75c-.37-.05-.66-.1-1.03-.15.62-.36,1.61-.24,1.87.21.08.14.08.44-.02.56-.1.12-.4.2-.53.14-.15-.08-.23-.33-.32-.52-.03-.05,0-.13.02-.24"/>
        <path class="cls-3" d="m58.55,95.51c-.15.79-.53,1.14-.68.89-.2-.33-.85.03-.74-.56.09-.51.41-.59,1.43-.33"/>
        <path class="cls-3" d="m94.06,107.16c-.35.66-.61,1.13-.12,1.57.65.07.37-.52.63-.83.28.48.19.87-.22,1.16-.31.22-.65.13-.81-.19-.33-.65-.56-1,.52-1.72"/>
        <path class="cls-3" d="m78.05,114.39c-.83.22-.89.18-1.05-.44-.08-.32-.07-.57.3-.63.47-.07.74.34.75,1.07"/>
        <path class="cls-3" d="m80.75,117.69c.15-.41.26-.68.42-1.11.5.67.76,1.22.57,1.97-.57-.05-.58-.65-.99-.85"/>
        <path class="cls-3" d="m91.52,110.68c.05.27.09.49.14.76-.71-.02-1.33-.03-1.96-.05q.01-.37,1.82-.71"/>
        <path class="cls-3" d="m97.9,114.51c-.66-.12-1.24-.23-1.98-.38.17-.19.28-.42.43-.46.59-.14,1.13.15,1.55.84"/>
        <path class="cls-3" d="m88.32,103.31c-.04.28-.07.48-.1.68.21,0,.4-.01.59-.02-.04.22-.03.48-.15.64-.09.12-.39.2-.53.15-.19-.07-.46-.28-.47-.45-.03-.44.1-.85.66-1.01"/>
        <path class="cls-3" d="m68.16,118.46c-.01.45-.02.83-.03,1.23.82.03.57-.54.63-1.09.2.24.42.41.39.49-.12.32-.26.66-.49.89-.33.32-.75.16-.89-.28-.13-.4-.03-.72.4-1.24"/>
        <path class="cls-3" d="m77.53,107.72c-.37.23-.56.43-.78.46-.37.05-.62-.29-.59-.68.03-.37.33-.5.57-.44.24.06.42.33.79.65"/>
        <path class="cls-3" d="m90.15,103.74c.48.01.76-.04,1,.04.38.13.53.58.29.72-.22.12-.58.13-.83.04-.16-.06-.23-.38-.46-.8"/>
        <path class="cls-3" d="m74.22,113.01c.85.15,1.01.31.94.85-.04.33-.2.53-.54.5-.46-.05-.57-.4-.4-1.35m.71.68c-.11-.09-.19-.19-.3-.24-.03-.01-.19.15-.18.17.08.12.18.23.27.33.06-.07.12-.15.21-.26"/>
        <path class="cls-3" d="m95.93,103.57c1.01-.38,1.42.14,1.23,1.43-.25-.08-.49-.16-.72-.23q.17-.98-.52-1.2"/>
        <path class="cls-3" d="m62.87,116.85c-.98.65-.96.64-.56,1.64.07.18-.04.43-.09.83-.68-.57-.53-1.17-.44-1.71.08-.48.35-.83,1.08-.76"/>
        <path class="cls-3" d="m68.67,102.57c.31-.46.69-.65,1.06-.31.39.36.12.66-.3.91-.23-.18-.46-.36-.76-.6"/>
        <path class="cls-3" d="m79.51,112.97c.36-.15.56-.24.77-.33-.08-.11-.15-.22-.23-.33-.24.02-.48.04-.75.06.01-.1,0-.26.04-.27.24-.08.52-.22.74-.16.13.03.22.39.24.6.02.23-.06.46-.11.8-.24-.13-.4-.22-.69-.37"/>
        <path class="cls-3" d="m61.53,104.42c.24-.64.69-.56,1.13-.39.11.04.22.29.19.41-.03.12-.25.28-.37.26-.3-.04-.59-.17-.94-.28"/>
        <path class="cls-3" d="m94.09,100.06c.06.21.12.42.18.65.15-.09.29-.17.49-.29.08.46.07.8-.4.85-.36.04-.52-.42-.27-1.21"/>
        <path class="cls-3" d="m48.94,97.71c.22-.16.43-.3.78-.55.08.45.13.78.19,1.14-.59.11-.79-.19-.97-.59"/>
        <path class="cls-3" d="m67.86,111.76c-.41-.38-.58-.54-.79-.73.17-.16.3-.34.47-.4.12-.04.42.07.43.12.01.26-.05.52-.11,1.01"/>
        <path class="cls-3" d="m81.23,104.71c.15.27.34.52.43.8.02.07-.25.24-.38.37-.09-.12-.24-.24-.27-.37-.04-.21,0-.43,0-.65.07-.05.15-.1.22-.14"/>
        <path class="cls-3" d="m69.63,107.73c.12-.07.14-.1.17-.1.36-.05.72-.04.79.4.02.11-.2.37-.33.39-.46.05-.68-.2-.63-.69"/>
        <path class="cls-3" d="m68.84,105.24c.84.02,1.03.19.93.68-.1.48-.4.48-.83.28.19-.14.35-.25.58-.41-.24-.2-.46-.37-.67-.55"/>
        <path class="cls-3" d="m48.95,101.2c.29-.19.45-.38.58-.36.16.02.3.2.45.31-.12.14-.23.4-.35.4-.18,0-.36-.17-.68-.34"/>
        <path class="cls-3" d="m64.07,104.3c.07-.29.07-.43.13-.48.19-.16.4-.29.61-.42.02,0,.12.07.14.13.11.42-.28.39-.49.53-.08.05-.16.1-.39.23"/>
        <path class="cls-3" d="m49.3,104.75c.8-.9.82-.91,1.13-.21-.33.06-.64.12-1.13.21"/>
        <path class="cls-3" d="m90.01,98.76c.22-.16.44-.44.62-.43.35.03.4.41.24.63-.24.31-.53.15-.86-.2"/>
        <path class="cls-3" d="m74.18,110.62c.2.11.42.2.6.34.02.02-.13.27-.2.41-.2-.13-.4-.26-.6-.4.07-.12.14-.23.2-.35"/>
        <path class="cls-3" d="m54.32,105.5c-.12-.65.12-.89.7-1.04-.02.58-.29.78-.7,1.04"/>
        <path class="cls-3" d="m75.41,105.49c-.04.31-.07.62-.13,1.12-.51-.52-.29-.83-.2-1.13.11,0,.22,0,.33,0"/>
        <path class="cls-3" d="m71.88,114.42c.2,0,.42-.07.59,0,.08.03.06.32.12.66-.36-.22-.55-.34-.75-.45.01-.07.03-.14.05-.21"/>
        <path class="cls-3" d="m58.17,106.91c-.18-.32-.33-.59-.51-.9q.77.13.51.9"/>
        <path class="cls-3" d="m55.99,109.73c.19-.23.3-.36.46-.55.14.2.26.38.51.74-.43-.09-.66-.13-.97-.19"/>
        <path class="cls-3" d="m75.55,104.43c.44-.49.69-.48.87.11-.24-.03-.48-.06-.87-.11"/>
        <path class="cls-3" d="m75.98,108.1q.22.78-.56.81c.2-.29.36-.52.56-.81"/>
        <path class="cls-3" d="m85.42,116.34c.25.15.5.3.91.55-.69.22-.88-.07-1.08-.35.06-.07.11-.13.17-.2"/>
        <path class="cls-3" d="m53.28,98.3c.13-.13.25-.28.4-.38.03-.02.18.14.28.22-.14.14-.29.28-.43.43-.08-.09-.17-.17-.25-.26"/>
        <path class="cls-3" d="m98.57,108.66c.03.2.06.4.09.59-.07.02-.14.03-.21.05-.05-.19-.1-.39-.15-.58.09-.02.18-.04.27-.06"/>
        <path class="cls-3" d="m82.26,122.01c-.23-.09-.46-.17-.87-.33.2-.09.3-.19.36-.16.21.07.41.19.61.28-.03.07-.07.14-.1.21"/>
        <path class="cls-3" d="m79.3,108.13c-.14.18-.27.35-.41.52-.09-.1-.16-.15-.16-.19-.01-.38.09-.61.57-.33"/>
        <path class="cls-3" d="m69.66,110.52c.16.06.31.13.47.19-.03.06-.06.16-.08.16-.16-.02-.31-.06-.47-.09.03-.09.06-.17.08-.26"/>
        <path class="cls-3" d="m73.4,104.73c-.15.1-.23.19-.33.2-.05,0-.17-.13-.16-.19.02-.1.11-.2.17-.29.08.08.17.15.32.28"/>
        <path class="cls-3" d="m62.69,106.28c-.19.1-.3.19-.43.22-.05.01-.21-.15-.2-.16.07-.11.15-.23.25-.3.03-.02.15.09.38.23"/>
      </g>
      <g>
        <path class="cls-6" d="m76.97,110.05c.24.31.46.59.76.97-.07.24-.23.65-.7.5-.23-.07-.45-.41-.53-.67-.13-.41.03-.73.48-.8"/>
        <path class="cls-6" d="m61.04,110.51c-.1-.17-.19-.29-.23-.43-.01-.04.12-.12.19-.18.09.11.2.22.27.35.01.02-.11.13-.24.26"/>
        <path class="cls-6" d="m73.6,108.61c.15.2.28.35.36.52.02.03-.2.25-.26.23-.33-.11-.39-.34-.1-.76"/>
        <path class="cls-6" d="m74.93,113.69c-.09.11-.15.19-.21.26-.09-.11-.2-.21-.27-.33,0-.01.15-.18.18-.17.11.05.19.15.3.24"/>
        <path class="cls-3" d="m91.1,68.33c-.18-.04-.32-.1-.45-.1-.44,0-.88-.05-1.31.09-.25.08-.5.19-.81.13-.29-.06-.61,0-.92.04-.06,0-.16.13-.16.21-.01.17.02.35.05.52.1.71.02,1.39-.24,2.06-.07.17-.12.34-.19.51-.09.24-.24.42-.43.6-.37.37-.89.52-1.2.95-.14.2-.27.41-.41.61-.01.02-.02.05-.04.07-.41.47-.44,1.08-.53,1.64-.1.66.08,1.24.66,1.68.43.33.88.67,1.16,1.17.09.16.26.3.43.39.47.24.66.69.87,1.11.19.37.41.77.43,1.17.03.6.22,1.15.29,1.73.03.21.07.41.1.62.07.51-.27.87-.5,1.26-.14.24-.32.46-.47.68-.07.1-.12.2-.01.33.02.03-.12.19-.24.27,0,.67-.02,1.34,0,2,.02.43.13.86.19,1.3.06.45.1.91.18,1.35.18,1.03.07,2.07.1,3.11.02.56.04,1.12.05,1.67.01.79-.04,1.26-.08,2.1-.07.31-.04.84-.04,1.15,0,.35-.17.83-.28,1.15-.18.52-.77.71-1.28.88-.74.24-1.49.18-2.25.12-.38-.03-.76,0-1.14.04-.59.08-.91-.43-.79-1,.05-.22.21-.41.29-.58-.11-.19-.29-.37-.3-.57-.02-.35-.13-.73.18-1.03-.29-.37-.33-.93-.08-1.34.18-.29.39-.29.89-.24.51.05,1.04-.06,1.42-.44.1-.1.03-.37.03-.56,0-.55,0-1.1,0-1.64,0-.08.01-.16.02-.24,0-.61,0-1.21,0-1.82,0-.33.07-.65.04-.98-.05-.79-.14-1.59-.22-2.37-.62.17-1.19.33-1.76.47-.15.04-.33.06-.47.01-.31-.1-.56.02-.83.11-.06.02-.14.03-.2.02-.24-.06-.31-.02-.31.23,0,.86-.01,1.71,0,2.57.02.97.08,1.95.1,2.92.02,1.16.02,2.32,0,3.48,0,.63-.05,1.25-.11,1.88-.03.31-.21.58-.53.68-.36.11-.73.15-1.08.28-.31.11-.6,0-.89.05-.24.03-.48.08-.73.09-.3,0-.6,0-.9-.03-.17-.02-.32.12-.51,0-.15-.1-.35-.13-.54-.16-.21-.04-.45-.3-.48-.51-.04-.22-.11-.43-.18-.67.04-.04.11-.1.19-.16.21-.15.25-.39.17-.64-.07-.19-.08-.39-.11-.59-.04-.23-.06-.47-.13-.69-.2-.56,0-1.33.5-1.62.12-.07.32-.04.48-.04.28,0,.57,0,.86,0,.06,0,.12-.02.17-.02.43.03.65-.13.63-.56-.03-.74-.11-1.47-.15-2.21-.02-.32.01-.65.03-.97,0-.09.02-.17.02-.26,0-.71,0-1.43,0-2.14,0-.25.07-.5.13-.83-.32,0-.62,0-.91-.03-.13-.01-.26-.08-.4-.1-.36-.06-.74-.08-1.09-.18-.29-.08-.56-.25-.83-.39-.05-.03-.09-.11-.11-.17-.1-.42-.07-.83.21-1.18-.31-.45-.22-1.27.2-1.72.09-.1.13-.17.08-.32-.12-.39-.13-.82.28-1.03.22-.12.53-.08.8-.08.29,0,.58.04.86.12.26.07.51.21.76.31.1.04.19.08.35.14-.03-.14-.04-.24-.06-.33-.07-.25-.18-.49-.21-.75-.07-.78.07-1.53.33-2.27.2-.58.42-1.14.91-1.54.53-.44,1.07-.85,1.59-1.3.42-.37.91-.71,1.13-1.23.13-.31.11-.69.08-1.04-.03-.32-.15-.64-.26-.95-.04-.1-.14-.2-.24-.26-.78-.53-1.18-1.47-.91-2.36.16-.5.43-.97.68-1.44.15-.28.16-.47-.1-.64-.22-.14-.2-.3-.1-.46.13-.23.03-.37-.05-.59-.14-.37-.31-.74-.26-1.19.06-.49,0-.99-.02-1.48,0-.04-.06-.1-.1-.11-.3-.04-.61-.11-.9.04-.18.09-.35.11-.54,0-.16-.08-.36-.11-.49-.21-.25-.19-.18-.49-.13-.74.1-.5.29-.99.35-1.49.07-.64.03-1.28.06-1.92.02-.43.1-.85.16-1.27.05-.33.1-.65.16-.98.01-.08.04-.17.09-.24.14-.19.2-.41.29-.62.36-.83.87-1.58,1.8-1.82.6-.15,1.24-.25,1.88-.12.23.05.48,0,.72.02.38.04.75.1,1.12.15.05,0,.12.02.15,0,.21-.16.32-.01.47.11.15.13.33.23.5.33.48.28.96.54,1.44.82.04.02.08.06.09.09.07.34.38.44.6.65.47.45.81.99,1.1,1.56.12.23.28.45.42.67.3.47.52.96.63,1.51.11.56.38,1.08.5,1.64.16.73.25,1.48.37,2.22.03.2.09.39.1.59.03.33.05.67.08,1.1m-9.53,6.21c.53.81.6,1.74.32,2.69-.04.13-.1.27-.2.35-.54.47-1.1.93-1.64,1.4-.29.25-.59.49-.82.79-.28.35-.45.77-.73,1.11-.44.54-.51,1.15-.45,1.79.03.26.09.54.22.77.32.56.9.74,1.47.93.15.05.32.11.48.09.26-.03.52-.16.78-.18.58-.05,1.09-.26,1.62-.48.17-.07.37-.1.5-.21.32-.27.63-.55.92-.86.15-.16.23-.38.33-.58.08-.17.13-.37.22-.53.05-.09.18-.17.28-.19.14-.02.25.05.24.23-.01.27.05.55-.02.8-.1.36-.18.76-.57.98-.1.06-.18.17-.26.26-.17.18-.32.37-.51.53-.12.1-.27.18-.42.23-.44.16-.88.31-1.32.46-.16.05-.33.09-.49.14-.09.02-.19.04-.28.06-.1.02-.2.04-.31.04-.12,0-.24,0-.35,0-.3,0-.61.01-.91.01-.36,0-.71,0-1.07,0-.05,0-.1.05-.1.05-.21-.09-.37-.16-.54-.22-.5-.17-1.01-.33-1.5-.51-.35-.13-.69-.25-1.09-.15.03.08.06.15.08.22.14.32.46.41.74.54.22.1.3.23.26.45-.04.22-.25.41-.46.39-.12,0-.24-.05-.36-.07-.27-.05-.56-.2-.79.09-.06.08-.13.2-.1.28.02.08.14.18.23.2.32.05.64.14.97,0,.04-.02.1,0,.14,0,.17.03.34.06.5.11.1.04.23.13.23.21,0,.08-.1.21-.19.26-.4.21-.84.15-1.24.09-.33-.04-.46.06-.59.3.35.33.78.39,1.21.47.23.05.45.13.68.15.21.02.42-.04.63-.04.41,0,.82,0,1.24,0,.22,0,.45-.06.67-.1.34-.05.69-.12,1.03-.16.11-.01.22.05.33.04.54-.04,1.07-.11,1.61-.15.88-.06,1.7-.33,2.45-.81.34-.22.73-.38.92-.78.01-.03.06-.03.09-.05.41-.33.84-.64,1.2-1.01.35-.36.57-.81.76-1.29.26-.67.22-1.3.02-1.95-.1-.31-.24-.61-.36-.92-.07-.19-.09-.41-.2-.56-.33-.44-.7-.85-1.05-1.28-.4-.49-.99-.77-1.38-1.29-.49-.67-.75-1.37-.76-2.18,0-.55.1-1.07.35-1.56.25-.49.49-1.01.94-1.37.16-.12.34-.22.5-.35.46-.39.58-.95.68-1.51.05-.28-.02-.59.1-.83.17-.37.17-.75.18-1.13,0-.19-.08-.29-.27-.27-.12,0-.24.03-.36.05-.17.02-.35.06-.52.05-.29-.02-.58-.05-.86-.11-.2-.04-.37-.11-.41-.39-.05-.39.2-.59.39-.83.37-.46.8-.89,1.17-1.35.29-.37.43-.81.52-1.27.11-.56.29-1.11.23-1.69-.01-.14-.05-.28-.05-.42-.01-.54-.22-1.03-.45-1.49-.24-.5-.6-.94-.89-1.42-.33-.53-.78-.89-1.39-1.05-.36-.09-.7-.26-1.06-.35-.26-.06-.55-.09-.82-.06-.29.04-.57.14-.84.26-.31.15-.66.29-.87.53-.19.22-.38.37-.62.49-.09.04-.2.11-.23.2-.22.56-.38,1.14-.39,1.76,0,.28-.02.57-.02.85,0,.32.02.63.01.94,0,.27,0,.55-.05.82-.07.4-.18.79-.27,1.19,0,.05,0,.15.03.15.25.06.51.16.75.14.27-.03.53-.2.81-.27.11-.03.32.03.36.11.13.26.26.54.28.82.03.41-.03.83-.04,1.25,0,.1.04.21.05.28.18-.01.32-.07.44-.03.34.12.67.29,1.01.41.38.13.42.45.47.76.03.17.01.34,0,.51-.02.48-.45,1.01-.89,1.04-.34.03-.49.29-.58.49-.22.5-.37,1.04-.48,1.58-.08.36-.08.75.15,1.07.24.33.57.56.99.61.26.03.54.01.8,0,.15,0,.33-.03.36.16.01.06-.15.19-.24.2-.42.02-.85,0-1.29,0m-3.65,21.72s.04.03.06.05c-.16.07-.31.18-.47.19-.57.04-1.14.09-1.71.04-.3-.02-.35.14-.42.31-.07.19.09.43.32.46.32.04.64.02.95.07.15.02.31.1.41.2.11.11-.09.37-.29.37-.34,0-.68-.01-1.01.01-.08,0-.23.15-.22.22.01.09.13.23.22.25.35.04.7.04,1.06.07.1,0,.23,0,.3.06.08.07.13.19.16.3.01.05-.05.17-.09.18-.31.05-.62.14-.92.11-.4-.04-.7.06-.89.44-.18.36-.02.71.37.78.22.04.46.06.68.05.84-.02,1.68.08,2.52-.1.63-.13.89-.45.96-.98.06-.49.1-.98.11-1.48.04-1.69.08-3.39.11-5.08,0-.57-.02-1.13-.05-1.7-.04-.74-.11-1.49-.17-2.26-.49,0-.98,0-1.46,0-.25,0-.42.14-.44.41-.02.19-.05.38-.06.58-.02.59-.04,1.19-.06,1.78,0,.05-.02.1-.02.16,0,.24-.01.47,0,.71.01.23.06.46.07.69.03.39.03.78.06,1.17.02.31.09.62.1.94,0,.23-.03.47-.06.71-.01.11-.06.21-.1.31m8.67-9.69c-.16.1-.29.18-.4.27-.39.32-.78.64-1.27.81-.14.05-.22.12-.2.29.04.37.08.75.11,1.13.04.45.07.9.11,1.34.07.81.16,1.61.2,2.42.03.51.05,1.04,0,1.55-.06.59-.16,1.18-.33,1.74-.08.26-.27.57-.67.57-.4,0-.79.01-1.19.06-.19.02-.39.09-.56.18-.2.11-.18.31.03.43.34.19.69.28,1.08.25.16-.02.25.06.26.22,0,.16-.02.28-.21.31-.25.03-.5.06-.75.11-.13.03-.25.11-.37.17.08.14.16.28.26.4.06.07.17.1.26.11.23.04.47.06.69.12.08.02.15.12.23.18-.07.06-.14.16-.22.18-.16.04-.34.02-.49.07-.23.07-.45.17-.66.28-.19.11-.24.34-.15.51.05.11.25.19.38.2.19.02.4-.04.6-.06.35-.04.69-.12,1.04-.13.46-.02.93-.03,1.39,0,.6.04.89-.26,1-.82.1-.54.14-1.1.16-1.65.02-.41-.03-.83-.05-1.24-.02-.62-.04-1.24-.05-1.86-.02-.86-.03-1.72-.06-2.58-.01-.51-.04-1.01-.05-1.51-.04-1.09-.07-2.18-.11-3.27,0-.24,0-.48,0-.76m-.17-26.38s-.07.04-.1.05c.16.38.35.75.47,1.14.13.39.18.81.28,1.21.15.55.19,1.07.08,1.22-.03-.07-.07-.14-.12-.26-.07.14-.14.24-.17.36-.13.57-.22,1.14-.38,1.7-.14.49-.42.91-.79,1.27-.2.19-.33.46-.5.7.18.07.3.15.42.15.13,0,.33,0,.38-.08.24-.4.45-.82.66-1.24.03-.05.03-.12.05-.18l.1.09c.1.58-.47.92-.59,1.46.17-.12.31-.22.44-.32.27-.23.44-.53.59-.85.08-.16.19-.31.26-.47.24-.57.13-1.18.21-1.77.07-.53-.08-1.06.04-1.6.04-.15-.04-.38-.15-.5-.27-.3-.4-.64-.47-1.02,0-.04-.02-.09-.04-.1-.28-.07-.37-.28-.44-.53-.04-.15-.14-.29-.22-.44m-1.38-1.88c.2.13.4.23.54.37.25.26.47.55.71.82.27.32.59.6.82.95.23.34.36.74.55,1.11.06.12.16.23.28.3.2.11.38.38.38.6,0,.06.02.13.03.19h.08c0-.1.03-.19.01-.27-.04-.18-.15-.35-.13-.52.03-.46-.13-.84-.35-1.21-.35-.58-.82-1.07-1.34-1.5-.2-.17-.42-.31-.62-.47-.28-.22-.6-.3-.96-.36m1.71,9.4c.51.12.86-.05,1.03-.5.02-.05.05-.09.07-.14.16-.46.31-.91.47-1.36.05-.14.11-.28.18-.46,0-.01-.02-.09-.02-.17.01-.61.07-1.22.03-1.83-.02-.26-.25-.5-.38-.75-.03.01-.06.02-.08.03,0,.14.03.27.03.41,0,.57.03,1.13,0,1.7-.03.49-.11.97-.19,1.45-.06.39-.13.77-.57.98-.25.12-.53.3-.56.65m2.86-3.87s-.04.02-.06.03c0,.04-.01.09,0,.13.03.43.07.85.11,1.28.05.64-.07,1.25-.23,1.87-.02.08.04.18.06.27.08-.04.21-.05.24-.11.13-.24.25-.5.34-.75.06-.16.09-.33.09-.5,0-.24-.05-.48-.08-.72-.05-.31-.09-.62-.18-.92-.06-.2-.19-.38-.29-.57m-.5.68s-.06.02-.09.03c0,.09,0,.19-.03.28-.14.49-.27.99-.42,1.47-.11.35-.27.68-.38,1.03-.02.06.09.22.15.23.28.03.56-.19.61-.49.07-.38.09-.76.18-1.14.09-.37.13-.73.09-1.1-.01-.11-.07-.21-.11-.31m-7.78,3.51s0,.03-.01.04c-.05,0-.11,0-.16,0-.17,0-.33.01-.33.24,0,.23.15.24.33.25.16,0,.32.05.49.08.15.02.29.08.43.06.09,0,.23-.11.23-.18,0-.1-.07-.25-.15-.28-.27-.1-.55-.15-.83-.22m.12,1.83c.19-.08.37-.17.56-.22.15-.05.22-.13.21-.28-.02-.17-.13-.22-.28-.21-.28.03-.57.06-.85.12-.17.03-.22.3-.08.4.13.09.29.13.44.2m8.65-2.5c.13-.05.23-.07.23-.09,0-.15-.02-.31-.03-.46h-.09c-.03.16-.06.31-.11.54"/>
        <path class="cls-3" d="m68.68,85.51c.37-.16.76-.32,1.16-.49.11-.05.24-.07.34-.14.36-.26.73-.42,1.19-.48.34-.05.68-.07,1.01-.07.17,0,.36.06.53.13.29.13.39.43.27.72-.13.3-.23.59,0,.91.21.31.1.61-.11.8.17.26.34.47.47.7.04.07-.02.21-.05.31-.01.05-.07.08-.08.13-.15.48-.49.56-.96.58-.84.03-1.68.16-2.51.25-.28.03-.56.07-.88.11.03.52.06,1.02.07,1.52.01.4.02.8,0,1.2-.04.85.1,1.68.27,2.51.06.3.14.59.2.89,0,.03.01.07,0,.1-.18.82.53,1.14,1.13,1.03.59-.11,1.2-.24,1.8.02.41.18.71.8.58,1.22-.14.47-.27.95-.39,1.42-.03.14-.02.3,0,.45.02.27.1.54.08.81-.02.18-.14.38-.28.5-.14.12-.34.17-.53.22-.25.07-.5.12-.76.17-.21.04-.43.1-.64.1-.23,0-.46-.03-.68-.05-.43-.03-.86-.07-1.29-.11-.95-.08-1.71-1.02-1.77-1.7-.08-.83-.1-1.67-.17-2.51-.05-.57-.15-1.13-.19-1.7-.03-.45-.03-.91-.01-1.36.02-.62.06-1.23.11-1.85.04-.53-.07-1.03-.19-1.53,0-.03-.02-.07-.02-.1-.04-.35-.04-.31-.37-.28-.58.05-1.17.17-1.76-.03-.15-.05-.32,0-.5,0,0,.43,0,.84,0,1.25,0,.1-.05.21-.05.31,0,1.55,0,3.1,0,4.66,0,.13.02.27.06.39.02.06.13.14.19.13.33-.05.65-.12.97-.18.17-.03.35-.09.52-.08.32.02.83.62.82.95,0,.17-.04.35-.06.58-.29.12-.2.49-.3.76-.08.2.14.26.27.35.1.07.27.11.3.21.06.17.07.36.05.55-.03.39-.2.75-.48.99-.21.18-.51.28-.79.35-.4.12-.81.19-1.21.26-.1.02-.23-.1-.32-.07-.31.1-.59.15-.93.1-.36-.06-.74.03-1.12.03-.51,0-.96-.25-1.17-.68-.22-.45-.33-.97-.4-1.47-.1-.73-.15-1.48-.19-2.22-.02-.4.03-.8.04-1.2,0-.15-.05-.29-.05-.44,0-1.34,0-2.69,0-4.03,0-.56-.05-1.12-.05-1.68,0-.32.05-.63.08-.98-.07-.04-.18-.07-.27-.13-.15-.1-.34-.17-.31-.42.01-.07-.04-.17-.1-.23-.11-.11-.21-.21-.11-.39.02-.03-.01-.11-.04-.14-.35-.39-.36-.91-.48-1.38-.11-.42-.18-.85-.24-1.28-.03-.19-.01-.4.03-.6.13-.58.22-1.17.44-1.72.2-.51.5-1,.81-1.46.36-.55.8-1.06,1.16-1.61.27-.42.46-.89.69-1.34.3-.59.28-1.19.04-1.8-.13-.33-.25-.66-.42-.97-.1-.19-.32-.32-.43-.5-.12-.2-.36-.32-.38-.59-.01-.12-.17-.22-.26-.34-.14-.19-.29-.38-.4-.58-.18-.31-.33-.64-.49-.97-.08-.16-.19-.31-.25-.48-.1-.28-.26-.55-.18-.86,0-.04,0-.09-.02-.13-.29-.56-.36-1.17-.43-1.78-.01-.11.08-.23.08-.34,0-.5.02-1,0-1.5,0-.12-.1-.28-.2-.34-.33-.19-.43-.54-.6-.84-.32-.55-.61-1.13-.56-1.78.03-.36.2-.72.29-1.08.04-.16.05-.33.07-.52.06.06.1.09.11.09,0-.34-.05-.72.01-1.08.11-.58.02-1.22.42-1.73.2-.25.4-.5.64-.72.15-.14.38-.2.56-.3.36-.2.71-.41,1.07-.6.86-.45,1.74-.88,2.69-1.1.63-.15,1.28-.13,1.88.26.23.15.55.18.78.34.24.16.46.37.62.61.25.37.33.78.23,1.24-.04.17.11.38.14.57.08.72.14,1.45.22,2.17.05.48.21.92.47,1.33.11.18.21.34.14.58-.04.13.11.31.13.47.03.18.05.36.03.54-.05.4-.44.35-.69.49-.33.18-.7.18-1.05.29-.17.05-.23.15-.21.31.03.29.07.57.1.86.05.42.07.84.17,1.25.14.56-.08,1.04-.26,1.53-.02.06-.07.11-.07.17,0,.51-.06,1.02.28,1.5.23.32.41.72.49,1.11.06.28-.08.6-.13.9-.02.12-.11.24-.1.35.03.34-.18.55-.38.76-.23.25-.46.49-.7.73-.08.08-.25.11-.26.19-.08.31-.15.63-.15.94,0,.38.08.76.15,1.14.08.44.17.9.5,1.23.27.27.58.5.86.76.16.15.28.32.42.49.32.37.66.71.94,1.1.48.69.91,1.42,1.07,2.25.12.6.17,1.21.25,1.83m-3.51-17.32c-.08-.6-.17-1.14-.23-1.69-.02-.22.01-.46.09-.67.08-.22.25-.36.52-.39.42-.05.83-.14,1.2-.36.14-.08.16-.17.11-.29-.06-.16-.15-.3-.2-.46-.11-.36-.17-.74-.32-1.08-.09-.2-.15-.39-.19-.61-.08-.52-.2-1.04-.3-1.56-.02-.11,0-.24-.04-.34-.12-.27-.38-.17-.58-.15-.44.04-.87.12-1.31.17-.17.02-.33.02-.5.04-.51.07-1.02.19-1.53.19-.52,0-.93.23-1.33.49-.23.14-.44.42-.51.67-.08.31-.18.63-.22.96-.08.61.05,1.19.14,1.77.07.51.23,1.01-.05,1.52-.21.38-.46.65-.9.7-.06,0-.15.04-.15.07-.06.32-.12.64-.14.97,0,.22.09.44.11.66.03.36,0,.73.05,1.09.08.63.29,1.23.55,1.81.12.26.19.57.38.76.42.43.62,1,1.04,1.44.36.38.57.91.84,1.37.1.18.2.37.25.57.09.37.13.76.23,1.13.09.34.02.66-.09.98-.07.21-.19.41-.23.63-.11.56-.32,1.06-.73,1.47-.25.25-.48.53-.7.81-.09.12-.12.29-.21.41-.24.34-.5.66-.73,1-.44.67-.61,1.44-.56,2.22.04.72.22,1.43.3,2.15.1.82.66,1.29,1.26,1.71.35.24.78.36,1.15.57.38.2.78.11,1.17.13.15,0,.28.02.4.09.06.03.12.09.18.09.65.02,1.3.11,1.93.03.44-.06.88-.12,1.33-.13.11,0,.22-.03.33-.05.92-.18,1.77-.65,2.73-.71.54-.03,1.08-.13,1.61-.2.33-.04.66-.06.99-.12.08-.01.2-.14.2-.21,0-.08-.08-.2-.17-.25-.27-.17-.57-.25-.9-.23-.08,0-.22-.09-.24-.17-.02-.07.07-.19.14-.26.06-.05.16-.08.24-.09.29-.04.57-.06.86-.12.09-.02.21-.15.23-.24.01-.06-.13-.21-.21-.22-.2-.02-.4.03-.6.03-.17,0-.35-.01-.52-.06-.06-.02-.13-.14-.14-.22,0-.07.06-.2.11-.21.25-.07.5-.12.76-.15.2-.02.49-.22.51-.39.02-.18-.16-.42-.41-.43-.3,0-.64-.01-.9.12-.43.22-.88.4-1.27.65-.47.29-.98.45-1.46.68-.36.18-.82.16-1.2.31-.48.19-1.01-.04-1.47.2-.02.01-.05,0-.08,0-.29-.06-.58-.1-.86-.2-.4-.14-.78-.33-1.16-.5-.26-.12-.55-.2-.77-.37-.44-.33-.77-.76-1.01-1.26-.27-.54-.34-1.06.06-1.58.12.11.22.28.36.31.21.04.2.18.23.32.08.41.12.84.45,1.03,0,.15-.04.28,0,.33.14.14.31.27.47.38.67.47,1.36.88,2.24.75.3-.04.6-.03.9-.09.36-.07.71-.17,1.05-.29.09-.03.21-.17.22-.26.01-.24-.02-.49-.04-.74-.04-.35-.06-.7-.14-1.04-.14-.58-.37-1.1-.69-1.62-.64-1-1.53-1.74-2.38-2.51-.24-.21-.35-.43-.41-.72-.12-.53-.22-1.07-.38-1.59-.16-.54-.12-1.05.15-1.51.2-.34.5-.63.79-.9.43-.4.8-.82.66-1.47-.07-.36-.11-.74-.28-1.05-.21-.37-.5-.69-.41-1.15-.41-.12-.84,0-1.21-.2-.13-.07-.28-.13-.41-.22-.14-.1-.26-.23-.38-.36-.14-.14-.23-.29-.15-.51.03-.09,0-.23-.06-.32-.12-.22-.08-.41.09-.56.2-.18.48-.29.63-.5.21-.3.47-.26.74-.25.34.01.68.04,1.08.06m.59,31.56c-.19-.02-.38-.08-.55-.05-.36.07-.7.08-.98-.2-.04-.04-.08-.1-.08-.15.01-.17.28-.41.46-.43.11-.01.25,0,.33-.07.08-.06.15-.19.15-.29,0-.08-.12-.21-.19-.22-.22-.02-.44,0-.66.03-.15.03-.21-.01-.25-.14-.04-.12-.08-.23.07-.31.22-.13.45-.22.72-.18.12.02.25.01.37-.02.17-.04.33-.11.28-.34-.05-.22-.23-.18-.39-.18-.32.01-.64.07-.95.04-.22-.03-.49-.13-.61-.29-.24-.31-.34-.7-.35-1.1-.01-1.83-.03-3.66-.05-5.49,0-.02,0-.04,0-.05-.06-.09-.12-.22-.2-.25-.18-.07-.39-.08-.58-.12-.28-.05-.56-.07-.83-.15-.26-.08-.5-.22-.79-.35-.02.29-.05.54-.05.8,0,.3.05.6.05.91,0,.44-.04.87-.05,1.3,0,.78,0,1.57,0,2.36,0,.22,0,.45,0,.67-.01.26-.05.51-.04.77.06.91.13,1.82.21,2.74.03.37.04.75.32,1.04.3.31.62.6,1.1.57.33-.02.65-.04.98-.05.27,0,.54,0,.81,0,.18,0,.36-.01.54,0,.42.03,1.07-.34,1.24-.78m2.82-10.6c-.32.1-.59.2-.87.29-.46.14-.45.14-.47.61-.02.71.07,1.41-.1,2.12-.08.36-.11.73-.11,1.1.01.97-.06,1.95.09,2.92.09.59.06,1.2.07,1.81,0,.51.08,1.01.27,1.49.18.43.4.83.91.88.64.06,1.28.06,1.92.06.34,0,.69-.06,1.03-.1.38-.05.73-.15.92-.62-.25.05-.47.06-.66.15-.32.16-.61.07-.88-.09-.09-.05-.12-.26-.12-.4,0-.09.09-.24.17-.26.25-.06.52-.06.77-.13.18-.05.35-.16.5-.26.05-.03.07-.16.05-.22-.02-.04-.14-.05-.21-.06-.29-.02-.63.13-.83-.2-.07-.11-.15-.26-.12-.37.02-.09.18-.19.29-.21.28-.05.57-.04.85-.07.17-.02.36-.07.38-.28.01-.15-.38-.5-.54-.48-.17.02-.33.08-.5.13-.42.1-.85.21-1.27.31-.04.01-.1,0-.15-.03-.12-.05-.22-.15-.34-.17-.44-.06-.56-.36-.61-.73-.08-.56-.16-1.11-.22-1.67-.08-.82-.17-1.65-.21-2.47-.04-.9,0-1.8,0-2.7v-.34m-4.54-20.39c-.14.02-.33.03-.51.07-.16.04-.3.16-.24.35.03.1.15.24.22.24.51,0,1.02-.04,1.53-.08.06,0,.16-.15.16-.23,0-.08-.09-.22-.15-.23-.32-.06-.64-.08-1.01-.12m.33,1.63v-.02c.12,0,.25.03.35,0,.09-.04.21-.14.22-.22,0-.08-.11-.22-.2-.24-.25-.06-.51-.09-.77-.11-.16-.01-.33-.03-.48,0-.08.02-.17.15-.18.24,0,.07.09.21.16.22.3.07.6.1.9.14"/>
        <path class="cls-4" d="m81.57,74.54c.44,0,.86.01,1.29-.01.09,0,.24-.14.24-.2-.03-.19-.21-.16-.36-.16-.27,0-.54.02-.8,0-.42-.05-.75-.29-.99-.61-.23-.31-.23-.71-.15-1.07.12-.54.27-1.08.48-1.58.09-.2.24-.47.58-.49.44-.03.87-.57.89-1.04,0-.17.02-.34,0-.51-.05-.31-.09-.63-.47-.76-.34-.12-.67-.29-1.01-.41-.11-.04-.26.01-.44.03-.01-.07-.06-.17-.05-.28,0-.42.07-.84.04-1.25-.02-.28-.15-.57-.28-.82-.04-.08-.25-.14-.36-.11-.28.07-.53.24-.81.27-.24.03-.5-.08-.75-.14-.02,0-.04-.1-.03-.15.09-.4.2-.79.27-1.19.05-.27.05-.54.05-.82,0-.31-.01-.63-.01-.95,0-.28.01-.57.02-.85,0-.61.17-1.19.39-1.75.03-.08.14-.15.23-.2.24-.12.43-.27.62-.49.21-.25.56-.39.87-.53.26-.12.55-.22.84-.26.27-.03.55,0,.82.06.36.09.7.26,1.06.35.61.16,1.06.52,1.39,1.05.3.47.65.92.89,1.42.23.46.43.95.44,1.49,0,.14.04.28.05.42.06.58-.12,1.13-.23,1.69-.09.46-.24.9-.52,1.27-.37.47-.79.89-1.17,1.35-.19.24-.45.44-.39.83.04.28.2.35.41.39.28.06.57.09.86.11.17.01.35-.03.52-.05.12-.01.24-.04.36-.05.19-.01.27.09.27.28,0,.38,0,.75-.18,1.13-.11.24-.05.56-.09.83-.09.56-.21,1.12-.68,1.51-.15.13-.34.22-.5.34-.45.36-.68.87-.94,1.37-.25.49-.35,1.01-.35,1.56,0,.81.26,1.51.76,2.18.39.53.97.81,1.38,1.29.35.43.72.84,1.05,1.28.11.15.13.37.2.56.12.31.26.61.35.92.2.65.24,1.28-.02,1.95-.19.48-.41.93-.76,1.29-.36.38-.8.68-1.2,1.01-.03.02-.08.03-.09.05-.19.4-.58.56-.92.78-.75.48-1.56.74-2.45.81-.54.04-1.07.11-1.61.15-.11,0-.23-.06-.33-.04-.35.04-.69.11-1.03.16-.22.03-.45.09-.67.1-.41.02-.82,0-1.24,0-.21,0-.42.06-.63.04-.23-.02-.45-.1-.68-.15-.43-.09-.86-.14-1.21-.47.12-.24.26-.35.59-.3.4.05.85.12,1.24-.09.09-.05.19-.17.19-.26,0-.08-.14-.17-.23-.21-.16-.06-.33-.08-.5-.12-.05,0-.1-.02-.14,0-.32.13-.65.05-.97,0-.09-.02-.21-.12-.23-.2-.02-.08.04-.21.1-.28.23-.28.51-.14.79-.09.12.02.24.06.36.07.21.01.43-.17.47-.39.04-.22-.04-.35-.26-.45-.28-.12-.6-.21-.74-.54-.03-.07-.05-.14-.08-.22.41-.1.75.02,1.09.15.49.19,1,.34,1.5.51.17.06.33.13.54.22,0,0,.05-.05.1-.05.36,0,.71,0,1.07,0,.3,0,.61-.01.91-.01.12,0,.24,0,.35,0,.1,0,.21-.03.31-.04.09-.02.19-.03.28-.06.16-.04.33-.08.49-.14.44-.15.88-.3,1.32-.46.15-.06.31-.13.42-.23.19-.16.34-.35.51-.53.09-.09.16-.21.26-.26.39-.21.47-.61.57-.98.07-.25,0-.53.02-.8.01-.19-.1-.25-.24-.23-.1.02-.23.1-.28.19-.1.16-.14.36-.22.53-.1.2-.18.42-.33.58-.28.31-.59.6-.92.86-.13.11-.33.14-.5.21-.52.21-1.04.43-1.62.48-.26.02-.52.15-.78.18-.15.02-.32-.04-.48-.09-.57-.19-1.15-.38-1.47-.93-.13-.22-.19-.5-.22-.77-.06-.64.01-1.25.45-1.79.28-.34.46-.77.73-1.11.23-.29.54-.54.82-.79.54-.47,1.1-.92,1.64-1.4.1-.08.17-.23.2-.35.28-.95.22-1.89-.32-2.69m-.4-13.22c.06-.1.09-.22.17-.27.46-.28.92-.58,1.48-.62.04,0,.07-.05.1-.08-.03-.03-.05-.08-.08-.08-.3-.05-.61-.04-.88.11-.72.41-1.43.84-2.14,1.27-.07.04-.14.18-.11.24.05.15.12.32.24.42.26.23.55.43.84.62.22.15.5.25.67.44.16.17.34.29.54.3.46.04.94.07,1.39,0,.33-.05.64-.27.96-.42.34-.16.5-.44.47-.8-.01-.22-.09-.43-.17-.64-.13-.32-.26-.65-.44-.94-.26-.4-.72-.44-1.14-.56.02.05.02.1.05.12.27.19.56.37.82.58.1.07.14.21.23.33-.49-.13-.92-.24-1.35-.34-.45-.1-.85.11-1.26.28.04.07.16.18.14.26-.07.34.05.65.11.97.03.13-.03.22-.2.18-.21-.05-.42-.1-.63-.14-.25-.05-.56-.37-.55-.62.01-.31.31-.26.49-.34.05-.02.11,0,.16-.01.15-.06.29-.14.44-.21-.01-.03-.02-.07-.04-.1-.1.01-.21.03-.32.04m2.51,8.32c.1-.83-.22-1.58-.43-2.34-.02-.08-.18-.18-.26-.17-.08.01-.2.16-.19.24.01.24.08.48.13.72.09.42.22.84.28,1.27.08.56-.06,1.09-.29,1.61-.07.15-.07.34.12.41.2.08.31-.07.38-.24.2-.48.34-.98.26-1.49m-4.8,13c0,.3.09.4.39.4.4,0,.52-.09.52-.38,0-.27-.22-.47-.52-.47-.24,0-.39.17-.39.46"/>
        <path class="cls-4" d="m77.93,96.26c.03-.1.08-.2.1-.31.03-.24.07-.47.06-.71-.01-.31-.08-.62-.1-.94-.03-.39-.03-.78-.06-1.17-.02-.23-.06-.46-.07-.69-.01-.24,0-.47,0-.71,0-.05.02-.1.02-.16.02-.59.03-1.19.06-1.78,0-.19.04-.38.06-.58.03-.27.19-.4.44-.41.48-.01.97,0,1.46,0,.06.77.13,1.51.17,2.26.03.56.06,1.13.05,1.7-.03,1.69-.06,3.39-.11,5.08-.01.49-.05.99-.11,1.48-.06.53-.32.85-.96.98-.83.18-1.68.08-2.52.1-.23,0-.46-.01-.68-.05-.39-.07-.55-.42-.37-.78.19-.38.49-.48.89-.44.3.03.62-.06.92-.11.04,0,.1-.13.09-.18-.03-.11-.08-.23-.16-.3-.07-.06-.2-.06-.3-.06-.35-.02-.71-.02-1.06-.07-.09-.01-.21-.15-.22-.25-.01-.06.14-.21.22-.22.34-.03.68,0,1.01-.01.2,0,.4-.26.29-.37-.1-.1-.26-.18-.41-.2-.31-.04-.64-.03-.95-.07-.23-.03-.39-.26-.32-.46.06-.17.12-.33.42-.31.56.04,1.14,0,1.71-.04.16-.01.31-.12.47-.19-.02-.02-.04-.03-.06-.05"/>
        <path class="cls-4" d="m86.59,86.56c0,.29,0,.53,0,.77.03,1.09.07,2.18.11,3.27.02.5.04,1.01.05,1.51.02.86.03,1.72.06,2.58.01.62.03,1.24.05,1.86.01.42.06.83.05,1.24-.03.55-.06,1.11-.17,1.65-.11.56-.4.86-1,.82-.46-.03-.93-.02-1.39,0-.35.02-.69.09-1.04.14-.2.03-.4.08-.6.06-.14-.01-.33-.1-.38-.2-.08-.17-.04-.4.15-.51.21-.12.43-.21.66-.28.16-.05.33-.03.49-.07.08-.02.15-.12.22-.18-.07-.06-.14-.16-.23-.18-.23-.05-.46-.07-.69-.12-.09-.02-.2-.05-.26-.11-.11-.12-.18-.27-.26-.4.12-.06.24-.15.37-.17.25-.06.5-.08.75-.11.19-.02.22-.15.21-.31-.01-.17-.11-.24-.26-.22-.39.04-.74-.06-1.08-.25-.21-.11-.23-.31-.03-.43.17-.09.37-.16.56-.18.39-.04.79-.06,1.19-.06.4,0,.59-.31.67-.57.17-.56.27-1.15.33-1.74.05-.51.04-1.03,0-1.55-.05-.81-.14-1.61-.21-2.42-.04-.45-.07-.89-.11-1.34-.03-.38-.06-.75-.11-1.13-.02-.17.07-.25.2-.29.49-.16.88-.49,1.27-.81.11-.09.24-.16.4-.27"/>
        <path class="cls-2" d="m86.42,60.19c.07.15.17.29.22.44.07.25.17.46.44.53.02,0,.04.06.04.1.07.38.2.72.47,1.02.11.12.19.35.15.5-.12.54.04,1.07-.04,1.6-.08.59.03,1.2-.21,1.77-.07.16-.19.31-.26.47-.15.32-.32.62-.59.85-.13.11-.27.2-.44.32.11-.54.69-.88.59-1.46l-.1-.09c-.01.06-.02.13-.05.18-.21.42-.42.84-.66,1.24-.05.08-.25.09-.38.08-.12,0-.24-.08-.42-.15.17-.24.3-.51.5-.7.38-.36.65-.78.79-1.27.16-.56.25-1.13.38-1.7.03-.11.1-.22.17-.36.05.11.09.18.12.26.11-.15.06-.67-.08-1.22-.11-.4-.16-.82-.28-1.21-.12-.39-.31-.76-.47-1.14.03-.02.06-.04.1-.05m.46,5.84c.56-.15.65-1.4.31-2.11-.04.1-.07.21-.05.3.05.29.14.56.02.86-.12.29-.18.61-.28.94"/>
        <path class="cls-2" d="m85.04,58.31c.36.06.68.14.96.36.2.16.42.3.62.47.52.44.99.92,1.34,1.51.22.37.38.76.35,1.21-.01.17.1.35.13.52.02.09,0,.18-.01.27h-.08c-.01-.06-.03-.12-.03-.19,0-.23-.18-.49-.38-.6-.11-.06-.22-.18-.28-.29-.19-.37-.33-.77-.55-1.11-.23-.35-.55-.63-.82-.95-.24-.27-.46-.57-.71-.82-.15-.15-.34-.24-.54-.37"/>
        <path class="cls-2" d="m86.74,67.71c.03-.35.3-.53.56-.65.44-.21.51-.58.57-.98.08-.48.16-.97.19-1.45.03-.56,0-1.13,0-1.7,0-.14-.02-.27-.03-.41.03-.01.06-.02.08-.03.13.25.36.49.38.75.04.61-.01,1.22-.03,1.83,0,.08.02.16.02.17-.07.18-.13.32-.18.46-.16.45-.31.91-.47,1.36-.02.05-.05.09-.07.14-.17.45-.51.63-1.03.5"/>
        <path class="cls-2" d="m89.6,63.84c.1.19.23.37.29.57.09.3.13.61.18.92.04.24.08.48.08.72,0,.17-.03.35-.09.5-.1.26-.21.51-.34.75-.04.06-.16.08-.24.11-.02-.09-.08-.19-.06-.27.16-.61.28-1.23.23-1.87-.03-.43-.07-.86-.11-1.28,0-.04,0-.09,0-.13.02-.01.04-.02.06-.03"/>
        <path class="cls-2" d="m89.1,64.52c.04.1.09.21.1.31.04.37,0,.74-.09,1.1-.09.37-.11.76-.17,1.14-.05.3-.34.52-.61.49-.06,0-.17-.17-.15-.23.11-.35.27-.68.38-1.03.15-.49.29-.98.42-1.47.03-.09.02-.19.03-.28.03,0,.06-.02.09-.03"/>
        <path class="cls-2" d="m81.32,68.02c.28.07.56.12.83.22.08.03.16.19.15.28,0,.07-.15.17-.23.18-.14.01-.29-.04-.44-.06-.16-.03-.32-.07-.49-.08-.18,0-.33-.02-.33-.25,0-.23.16-.25.33-.24.05,0,.11,0,.16,0,0-.01,0-.03.01-.04"/>
        <path class="cls-2" d="m81.44,69.85c-.15-.06-.31-.11-.44-.2-.14-.1-.09-.37.08-.4.28-.05.57-.08.85-.12.15-.02.26.04.28.21.02.15-.06.24-.21.28-.19.06-.37.15-.56.22"/>
        <path class="cls-2" d="m90.09,67.36c.05-.23.08-.39.11-.54h.09c.01.15.03.3.03.46,0,.02-.11.04-.23.09"/>
        <path class="cls-4" d="m65.17,68.19c-.39-.03-.73-.05-1.07-.07-.27,0-.54-.05-.74.25-.15.21-.43.33-.63.5-.17.15-.22.34-.09.56.05.09.09.23.06.32-.08.22.01.37.15.51.12.13.24.25.38.36.12.09.27.15.41.22.37.21.8.07,1.21.2-.09.45.2.77.41,1.15.17.31.21.69.28,1.05.13.64-.23,1.06-.66,1.47-.29.27-.59.56-.79.9-.27.46-.31.98-.15,1.51.16.52.26,1.06.38,1.59.06.29.18.5.41.72.86.78,1.74,1.51,2.38,2.51.33.51.56,1.04.69,1.62.08.34.11.69.14,1.04.03.24.06.49.04.74,0,.09-.12.23-.22.26-.34.12-.7.22-1.05.29-.29.06-.6.05-.9.09-.88.12-1.56-.29-2.24-.75-.17-.12-.33-.24-.47-.38-.05-.05,0-.17,0-.33-.33-.19-.37-.62-.45-1.03-.03-.14-.02-.27-.23-.32-.13-.03-.23-.2-.35-.31-.4.53-.33,1.04-.06,1.58.24.5.57.93,1.01,1.26.22.17.51.26.77.37.38.17.76.35,1.16.5.28.1.57.14.86.2.03,0,.06.01.08,0,.46-.24.99-.01,1.47-.2.38-.15.84-.13,1.2-.31.48-.23,1-.38,1.46-.68.39-.25.85-.43,1.27-.65.25-.13.6-.13.9-.12.25,0,.43.25.41.43-.02.17-.31.37-.51.39-.26.03-.51.08-.76.15-.06.01-.12.14-.11.21,0,.08.07.2.14.22.17.05.34.06.52.06.2,0,.41-.05.6-.03.08,0,.22.16.21.22-.02.09-.13.22-.23.24-.28.06-.57.08-.86.12-.08.01-.18.04-.24.09-.07.07-.16.19-.14.26.02.08.16.18.24.17.33-.02.63.06.9.23.08.05.17.17.17.25,0,.08-.12.2-.2.22-.33.06-.66.08-.99.12-.54.06-1.07.17-1.61.2-.96.06-1.8.52-2.73.71-.11.02-.22.05-.33.05-.45,0-.89.07-1.33.13-.63.09-1.29,0-1.93-.02-.06,0-.12-.06-.18-.09-.13-.07-.25-.08-.4-.09-.39-.02-.79.07-1.17-.13s-.81-.32-1.15-.56c-.6-.42-1.17-.89-1.26-1.71-.08-.72-.26-1.43-.3-2.15-.05-.78.12-1.55.56-2.22.23-.34.49-.66.73-1,.09-.12.12-.29.21-.41.22-.28.45-.56.7-.81.41-.41.62-.91.73-1.47.04-.22.16-.42.23-.63.1-.32.18-.63.09-.97-.1-.37-.13-.76-.23-1.13-.05-.2-.14-.39-.25-.57-.27-.47-.48-.99-.84-1.38-.42-.44-.62-1.01-1.04-1.44-.19-.19-.26-.5-.38-.76-.26-.58-.48-1.18-.55-1.81-.04-.36-.02-.73-.05-1.09-.02-.22-.11-.44-.11-.66.01-.32.08-.65.14-.97,0-.03.1-.06.15-.07.44-.05.7-.32.9-.7.27-.51.12-1,.05-1.52-.08-.58-.22-1.16-.14-1.77.04-.33.14-.65.22-.96.07-.26.28-.53.51-.68.4-.25.81-.48,1.33-.49.51,0,1.02-.13,1.53-.19.17-.02.33-.02.5-.04.44-.05.87-.13,1.31-.17.2-.02.46-.12.58.15.04.1.01.23.03.34.1.52.22,1.04.3,1.56.03.22.1.41.19.61.15.34.21.72.32,1.08.05.16.14.3.2.46.05.12.03.21-.11.29-.37.22-.78.31-1.2.36-.26.03-.44.17-.52.39-.07.21-.11.45-.08.68.05.55.14,1.09.22,1.69m.35-5.6c-.06-.03-.13-.03-.17-.08-.35-.48-.91-.62-1.39-.89-.06-.03-.15-.01-.23-.01-.29,0-.59.06-.88.03-.43-.05-.81.1-1.15.3-.28.17-.49.44-.72.69-.26.29-.22.61.08.85.13.1.27.2.38.33.17.21.4.27.65.3.05,0,.11,0,.15.03.52.36,1.06.29,1.6.06.25-.11.47-.28.7-.42.22-.14.43-.28.65-.43.05-.03.11-.11.1-.14-.1-.26.16-.38.22-.6m-2.74,9.89c-.05-.14-.07-.22-.11-.29-.15-.24-.32-.46-.45-.7-.33-.62-.55-1.28-.65-1.97-.09-.64-.14-1.27.32-1.8.22-.25.17-.5.05-.86-.12.19-.25.31-.3.47-.15.48-.44.92-.45,1.46,0,.42-.08.85-.08,1.27,0,.2.08.41.17.6.13.28.29.55.47.8.23.32.47.63.73.93.05.06.17.06.32.1"/>
        <path class="cls-4" d="m65.76,99.75c-.17.43-.82.81-1.24.78-.18-.01-.36,0-.54,0-.27,0-.54,0-.81,0-.33.01-.65.03-.98.05-.48.02-.8-.27-1.1-.57-.28-.29-.29-.67-.32-1.04-.08-.91-.15-1.82-.21-2.74-.02-.25.03-.51.04-.77,0-.22,0-.45,0-.67,0-.79,0-1.57,0-2.36,0-.44.04-.87.05-1.3,0-.3-.04-.6-.04-.91,0-.25.03-.5.05-.79.29.13.53.27.79.35.27.08.55.1.83.15.19.03.4.05.58.12.09.03.14.16.21.25,0,.01,0,.03,0,.05.02,1.83.04,3.66.05,5.49,0,.41.11.79.35,1.11.12.16.39.26.61.29.31.04.63-.02.95-.04.16,0,.34-.04.39.18.05.22-.11.3-.28.34-.12.03-.25.03-.37.02-.27-.04-.49.05-.72.18-.15.08-.11.2-.07.31.04.12.11.17.25.14.22-.04.44-.05.66-.03.08,0,.19.14.19.22,0,.1-.07.23-.15.29-.08.06-.22.05-.33.07-.18.02-.45.26-.46.43,0,.05.04.11.08.15.28.29.62.27.98.2.17-.03.36.03.55.05"/>
        <path class="cls-4" d="m68.58,89.15v.34c0,.9-.03,1.8,0,2.7.03.83.12,1.65.21,2.47.06.56.14,1.11.21,1.67.05.36.17.67.61.73.12.02.23.12.35.17.04.02.1.04.15.03.42-.1.85-.2,1.27-.31.17-.04.33-.11.5-.13.16-.02.55.33.54.48-.02.21-.21.26-.38.28-.28.03-.57.02-.85.07-.11.02-.27.12-.29.21-.02.11.06.26.12.37.21.34.54.18.83.2.07,0,.19.02.21.06.03.06,0,.18-.05.22-.16.1-.32.21-.5.26-.25.07-.52.06-.77.13-.08.02-.17.17-.17.26,0,.14.03.34.12.4.27.16.56.24.88.09.19-.09.41-.1.66-.15-.19.47-.54.58-.92.62-.34.04-.69.1-1.03.1-.64,0-1.28,0-1.92-.06-.51-.04-.73-.45-.91-.88-.2-.48-.27-.97-.28-1.49,0-.6.02-1.21-.07-1.81-.15-.97-.07-1.95-.09-2.92,0-.37.03-.74.11-1.1.17-.7.07-1.41.1-2.12.01-.47,0-.47.47-.61.28-.09.56-.18.87-.29"/>
        <path class="cls-2" d="m64.03,68.76c.36.04.69.06,1.01.12.07.01.15.15.15.23,0,.08-.1.22-.16.23-.51.04-1.02.08-1.53.08-.08,0-.19-.14-.22-.24-.06-.19.08-.3.24-.35.18-.05.36-.05.51-.07"/>
        <path class="cls-2" d="m64.36,70.39c-.3-.04-.61-.07-.9-.14-.07-.02-.17-.15-.16-.22,0-.09.1-.22.18-.24.15-.04.32-.02.48,0,.26.03.52.05.77.11.09.02.2.16.2.24,0,.08-.12.19-.22.22-.1.04-.23,0-.34,0v.02Z"/>
        <path class="cls-3" d="m81.18,61.32c.11-.01.22-.03.32-.04.01.03.02.07.04.1-.15.07-.29.15-.44.21-.04.02-.11,0-.16.01-.19.08-.48.03-.49.34,0,.25.3.57.55.62.21.04.42.09.63.14.17.04.22-.04.2-.18-.06-.32-.18-.63-.11-.97.02-.08-.1-.19-.14-.26.41-.17.81-.37,1.26-.27.43.1.85.21,1.35.34-.08-.12-.13-.26-.23-.33-.26-.2-.55-.38-.82-.58-.03-.02-.03-.07-.05-.12.42.12.89.16,1.14.56.19.29.31.62.44.94.08.2.16.42.17.64.03.36-.13.64-.47.8-.32.15-.63.36-.96.42-.45.07-.93.03-1.39,0-.2-.02-.38-.13-.54-.3-.18-.19-.45-.29-.67-.44-.29-.2-.58-.4-.84-.62-.12-.1-.19-.27-.24-.42-.02-.06.05-.2.11-.24.71-.43,1.42-.85,2.14-1.27.27-.16.58-.17.88-.11.03,0,.05.06.08.08-.03.02-.07.07-.1.07-.56.05-1.02.35-1.48.62-.08.05-.11.18-.17.27m2.03,1.66c.41.06.79-.1,1.15-.31.1-.06.19-.21.19-.32,0-.35-.5-.82-.85-.85-.34-.04-.38,0-.32.34,0,.04,0,.09,0,.13-.06.33-.11.66-.17,1.01m-1.22-1.57c0,.15.01.31,0,.47-.04.42.19.69.49.92.06.05.17.06.26.06.27-.01.25-.26.34-.43.15-.28.12-.56.04-.84-.02-.07-.09-.18-.13-.18-.34.03-.67-.26-.99,0m-.64,1.37c.04.23.53.74.68.74.58,0,1.17.06,1.72-.16.13-.05.23-.16.35-.25-.09-.09-.15-.12-.21-.11-.19.03-.37.1-.56.12-.45.05-.89.06-1.32-.17-.19-.1-.42-.11-.66-.17"/>
        <path class="cls-3" d="m83.69,69.64c.08.52-.07,1.01-.26,1.49-.07.17-.18.31-.38.24-.19-.07-.19-.26-.12-.41.23-.51.37-1.05.29-1.61-.06-.43-.18-.85-.28-1.27-.05-.24-.12-.48-.13-.72,0-.08.11-.23.19-.24.08-.01.24.09.26.17.2.76.52,1.51.43,2.34"/>
        <path class="cls-3" d="m78.89,82.64c0-.28.14-.45.39-.46.3,0,.52.2.52.47,0,.3-.12.39-.52.38-.3,0-.39-.1-.39-.4"/>
        <path class="cls-3" d="m86.87,66.03c.09-.33.16-.65.28-.94.13-.3.04-.58-.02-.86-.02-.1.01-.2.05-.3.34.71.24,1.95-.31,2.11"/>
        <path class="cls-3" d="m65.52,62.6c-.06.22-.32.34-.22.6.01.03-.06.11-.1.14-.21.15-.43.29-.65.43-.23.15-.45.32-.7.42-.53.23-1.08.3-1.6-.06-.04-.03-.1-.02-.15-.03-.25-.03-.47-.09-.65-.3-.11-.12-.25-.23-.38-.33-.31-.24-.35-.56-.08-.85.22-.25.44-.53.72-.69.34-.2.72-.35,1.15-.3.29.03.58-.02.87-.03.08,0,.17-.02.23.01.48.28,1.04.41,1.39.89.03.04.11.05.17.08m-2.83-.54c-.24.07-.52.11-.76.25-.12.07-.16.31-.19.48,0,.05.14.17.23.19.3.05.6.07.94.1-.08-.35-.14-.64-.22-1.02m1.19-.04c.09.43.17.8.25,1.21.3-.16.61-.31.92-.47-.35-.46-1.03-.83-1.18-.73m-1.4,1.91s0,.06,0,.08c.5.31.98,0,1.47-.08.15-.02.36-.12.37-.36-.62.12-1.23.24-1.83.36"/>
        <path class="cls-3" d="m62.79,72.48c-.16-.04-.27-.04-.32-.1-.25-.3-.5-.6-.73-.93-.18-.25-.33-.52-.47-.8-.09-.19-.17-.4-.17-.6,0-.42.07-.85.08-1.27.01-.53.3-.97.45-1.46.05-.15.18-.28.3-.47.12.36.17.61-.05.86-.46.53-.41,1.16-.32,1.8.1.7.32,1.35.65,1.97.13.24.31.46.45.7.04.07.06.15.11.29"/>
        <path class="cls-4" d="m83.21,62.98c.06-.35.12-.68.17-1.01,0-.04,0-.09,0-.13-.05-.34-.02-.38.32-.34.35.04.84.51.85.86,0,.11-.09.26-.19.32-.36.21-.74.37-1.15.31"/>
        <path class="cls-4" d="m81.99,61.41c.32-.26.65.02.99,0,.04,0,.11.11.13.18.08.28.11.56-.04.84-.09.17-.07.42-.34.43-.09,0-.2,0-.26-.06-.29-.23-.53-.51-.49-.92.01-.16,0-.31,0-.47m.97.42s-.07-.14-.15-.17c-.11-.05-.46.26-.43.39.03.11.14.24.24.29.15.06.3-.16.34-.5"/>
        <path class="cls-4" d="m81.35,62.78c.24.06.47.07.66.17.43.23.87.22,1.32.17.19-.02.38-.09.56-.12.06,0,.12.03.21.11-.11.08-.22.19-.35.25-.56.22-1.14.17-1.72.16-.15,0-.64-.51-.68-.74"/>
        <path class="cls-4" d="m62.7,62.06c.08.38.15.67.22,1.02-.34-.04-.64-.05-.94-.1-.09-.01-.24-.13-.23-.18.03-.17.07-.41.19-.48.23-.14.53-.18.76-.25"/>
        <path class="cls-4" d="m63.89,62.02c.15-.1.83.28,1.18.73-.31.16-.62.32-.92.48-.09-.4-.16-.78-.25-1.21"/>
        <path class="cls-4" d="m62.49,63.93c.61-.12,1.21-.24,1.83-.36,0,.24-.22.33-.37.36-.48.08-.97.39-1.47.08,0-.03,0-.06,0-.08"/>
        <path class="cls-3" d="m82.96,61.83c-.04.35-.19.57-.34.5-.11-.05-.21-.18-.24-.29-.03-.13.32-.43.43-.39.08.04.12.14.15.17"/>
      </g>
    </g>
  </g>
</svg>