<svg width="143" height="147" viewbox="0 0 143 147" fill="none" xmlns="http://www.w3.org/2000/svg"><g clip-path="url(#Group 3__a)"><path d="M143.521 147.411H-.104V.011h143.625v147.4Z" fill="#B4C5E6"/><path d="m13.276 74.76-.438-.437c-.573-.583-1.234-.958-2.078-1-.588-.026-1.265.005-1.484.557-.245.615-.417 1.422-.219 2.01.255.771.906 1.376 1.75 1.725 1.13.468 2.307.474 3.474.494 1.516.037 3.031-.046 4.552-.052 1.995-.005 3.995.14 5.974-.187.693-.12 1.365-.313 2.047-.48.75-.177 1.167-.718 1.474-1.374.24-.521.078-1.193-.36-1.506a1.204 1.204 0 0 0-1.66.203c-.287.334-.543.683-.912 1.152-.146-.334-.266-.563-.344-.808-.516-1.573-1.74-1.844-2.87-.635-.198.213-.427.406-.62.583-.5-.567-.9-1.099-1.375-1.552-.63-.588-1.682-.797-2.297.208-.177.287-.312.594-.484.875-.088.151-.213.276-.375.48-.323-.584-.573-1.079-.854-1.553-.469-.786-1.76-.796-2.23-.01-.244.401-.432.828-.671 1.307Zm-.193-.958c.14-.245.297-.474.412-.724.291-.63.796-.854 1.442-.786.709.078 1.38.255 1.933.755.14.125.302.229.442.333.052-.015.089-.01.1-.026 1.072-1.333 2.176-1.099 3.5.156.218.209.426.433.687.703.593-.557 1.125-1.166 2.031-1.025.724.114 1.151.635 1.708 1.114.094-.12.22-.255.323-.406.432-.615.834-.719 1.537-.464.463.172.953.214 1.343.604.386.391.594.808.532 1.339-.125 1.115-.662 1.953-1.72 2.401-1.207.505-2.473.76-3.765.833-1.567.089-3.14.115-4.713.151-.417.01-.839-.052-1.26-.052-1.23.005-2.47-.03-3.699.052-1.484.1-2.833-.297-4.135-.932-1.052-.51-1.948-2.375-1.38-3.786.291-.714 1.672-1.302 2.349-1.23.849.089 1.245.235 2.333.99Z" fill="#1A3151"/><path d="M13.276 74.76c.24-.479.427-.906.672-1.307.468-.786 1.76-.776 2.229.01.281.475.531.97.854 1.553.161-.204.286-.329.375-.48.172-.28.307-.588.484-.874.615-1.006 1.667-.797 2.297-.209.474.453.875.984 1.375 1.552.193-.177.422-.37.62-.583 1.13-1.209 2.354-.938 2.87.635.078.245.198.474.344.808.37-.47.625-.818.911-1.151a1.205 1.205 0 0 1 1.662-.204c.437.313.598.985.359 1.506-.307.656-.724 1.197-1.474 1.375-.682.166-1.354.359-2.047.479-1.98.328-3.98.182-5.974.187-1.52.005-3.036.089-4.552.052-1.167-.02-2.344-.026-3.474-.494-.844-.35-1.495-.953-1.75-1.724-.198-.589-.026-1.396.219-2.01.219-.553.896-.584 1.484-.558.844.042 1.505.417 2.078 1l.438.437Z" fill="white"/><path d="M104.203 37.557c-.349-.245-.563-.427-.807-.562-.396-.224-.86-.339-1.224-.021-.99.854-1.026 2.443.343 2.927.48.172.974.339 1.48.396 1.213.14 2.442.156 3.645.333 1.782.266 3.527-.026 5.277-.198 2.494-.245 4.984-.484 7.494-.479.912 0 1.766-.104 2.511-.724.354-.297.427-.614.411-1.01-.021-.422-.349-.615-.682-.745-.234-.094-.5-.104-.755-.14-.584-.084-.584-.079-.677-.662-.058-.386-.214-.672-.625-.776-.401-.104-.709.015-.954.323-.125.161-.229.338-.343.505-.141.198-.282.396-.417.594-.146-.151-.156-.24-.167-.323-.073-.807-.536-1.448-1.182-1.646-.505-.156-1.364.214-1.807.76-.151.188-.339.35-.568.573-.38-.776-.792-1.396-1.62-1.505-.833-.11-1.406.307-1.859 1.078-.245-.25-.448-.432-.62-.635-.614-.74-1.849-.985-2.625-.422-.349.26-.562.708-.838 1.068-.094.125-.177.255-.282.406-.5-.662-.922-1.297-1.817-1.188-1.172.146-1.136 1.12-1.292 2.073Zm-.271-.849c.193-.87.667-1.375 1.474-1.547.755-.161 1.427-.114 1.797.714 1.641-1.745 3.26-1.667 4.385-.38.573-.354 1.167-.719 1.891-.662.729.058 1.286.459 1.745 1.032.432-.26.833-.516 1.25-.745.948-.531 1.646-.328 2.182.614.063.11.13.22.203.318.042.063.104.104.188.182.182-.14.359-.276.536-.416.709-.552 1.568-.386 1.901.427.167.406.354.541.802.635.49.104.985.459 1.349.828.464.47.214 1.313-.427 1.808-.911.698-1.984.942-3.088 1.047-1.756.161-3.516.317-5.276.406-1.125.057-2.256-.042-3.381-.005-2.099.062-4.192-.063-6.281-.26a15.504 15.504 0 0 1-2.635-.464c-.693-.188-1.224-.667-1.344-1.428-.141-.87.068-1.65.844-2.15.25-.157.625-.178.937-.172.297.005.589.13.948.218Z" fill="#1A3151"/><path d="M104.203 37.557c.156-.953.12-1.927 1.292-2.073.895-.109 1.317.526 1.817 1.188.105-.151.188-.281.282-.406.276-.36.489-.808.838-1.068.776-.563 2.011-.318 2.625.422.172.203.375.385.62.635.453-.77 1.026-1.187 1.859-1.078.828.11 1.24.73 1.62 1.505.229-.224.417-.385.568-.573.443-.547 1.302-.916 1.807-.76.646.198 1.109.839 1.182 1.646.011.083.021.172.167.323.135-.198.276-.396.417-.594.114-.167.218-.344.343-.505.245-.308.553-.427.954-.323.411.104.567.39.625.776.093.583.093.578.677.661.255.037.521.047.755.141.333.13.661.323.682.745.016.396-.057.713-.411 1.01-.745.62-1.599.724-2.511.724-2.51-.005-5 .234-7.494.48-1.75.171-3.495.463-5.277.197-1.203-.177-2.432-.193-3.645-.333-.506-.057-1-.224-1.48-.396-1.369-.484-1.333-2.073-.343-2.927.364-.318.828-.203 1.224.02.244.136.458.319.807.563Z" fill="white"/><path d="M126.151 14.938c-.063.01-.131.015-.193.025-.125-.208-.266-.406-.36-.624-.416-.912-1.692-.88-2.119-.073-.219.416-.375.88-.5 1.333-.302 1.13.51 2.531 1.583 3.02 1.26.579 2.552.59 3.87.47 1.213-.11 2.307-.563 3.177-1.412.37-.354.677-.849.823-1.333.39-1.313-.87-2.578-2.193-2.26a.988.988 0 0 0-.359.202c-.188.152-.354.323-.589.537-.015-.193-.026-.302-.036-.412-.042-.588-.589-1.255-1.136-1.4-.88-.225-1.62.25-1.807 1.166-.052.255-.104.51-.161.76Zm-.282-1.146c1.141-1.693 2.38-1.615 3.839-.01.661-.173 1.328-.147 1.984.197 1.125.594 1.537 1.89.953 3.047-.651 1.276-1.802 1.901-3.078 2.307-1.104.344-2.271.365-3.416.245-1.178-.125-2.25-.515-2.995-1.505-.834-1.115-1.042-2.339-.495-3.64.479-1.126 1.766-1.537 2.823-.917.114.067.219.156.385.276Z" fill="#1A3151"/><path d="M126.152 14.938c.057-.25.109-.506.161-.76.188-.918.927-1.392 1.807-1.168.547.146 1.094.813 1.136 1.401.01.11.021.22.036.412.235-.214.401-.386.589-.537a.988.988 0 0 1 .359-.203c1.323-.317 2.583.948 2.193 2.26-.146.485-.453.98-.823 1.334-.87.849-1.964 1.302-3.177 1.412-1.318.12-2.61.109-3.87-.47-1.073-.489-1.885-1.89-1.583-3.02.125-.453.281-.917.5-1.333.427-.808 1.703-.839 2.12.072.093.22.234.417.359.626.062-.01.13-.016.193-.027Z" fill="white"/><path d="M37.536 51.026c-.037-.219-.094-.328-.073-.432.083-.48-.188-.662-.594-.75-.396-.084-.703.12-.812.442-.183.526-.26 1.079.13 1.6.599.801 1.969 1.244 3.031.947.776-.213 1.417-1.041 1.448-1.875.031-.744-.411-1.333-1.208-1.599-.813-.265-1.432.193-1.401 1.047.005.167.052.334.078.495-.26.052-.396.078-.6.125Zm3.062-1.396c.693.625.678 1.719 0 2.766-1.057 1.64-4.422 1.187-4.979-.427-.265-.76-.297-1.485.157-2.172.354-.542.791-.682 1.364-.39.328.166.542.171.823-.068.927-.782 1.635-.662 2.635.291Z" fill="#1A3151"/><path d="M37.536 51.026c.203-.047.338-.073.599-.125-.026-.161-.073-.328-.079-.495-.03-.854.589-1.312 1.402-1.047.796.266 1.24.855 1.208 1.6-.031.833-.672 1.66-1.448 1.874-1.063.297-2.432-.145-3.031-.948-.391-.52-.313-1.072-.13-1.599.109-.322.416-.526.812-.442.406.088.677.27.594.75-.021.104.036.213.073.432Z" fill="white"/><path d="M17.801 31.422c.407.5.813 1 1.22 1.495.494.593.989 1.192 1.494 1.78.203.24.193.454.047.71-.266.478-.516.968-.76 1.463-.084.161-.136.338-.198.51.026.021.057.047.088.068.88-.703 1.76-1.401 2.693-2.151.385.036.724.37 1.099.61.39.244.76.52 1.203.822l-.62-2.896c.594-.276 1.182-.552 1.849-.864-.51-.235-.932-.427-1.354-.615-.047-.02-.1-.015-.146-.02-.995-.183-1.02-.397-.583-1.214.24-.448.463-.907.729-1.422-.787.36-1.505.693-2.266 1.036-.187-.963-.265-1.9-.692-2.859-.084.463-.151.828-.22 1.188-.166.87-.442 1.718-.426 2.625.005.218.005.484-.22.677-.92-.474-1.864-.85-2.937-.943Zm7.209 5.667c-.985-.334-1.63-1.105-2.573-1.495-.901 1.062-2.084 1.781-3.334 2.505-.088-.656.365-1.042.47-1.547.098-.495.37-.953.588-1.474-.62-.677-1.334-1.48-1.834-2.422-.28-.536-.697-.963-.994-1.479-.052-.094-.104-.193-.214-.385.672.104 1.203.364 1.76.52.573.162 1.13.386 1.709.584.15-.792.26-1.589.458-2.36.193-.76.14-1.578.547-2.359.422.469.354 1.031.505 1.52.157.506.256 1.027.39 1.579.298-.12.584-.224.855-.349a49.19 49.19 0 0 0 1.38-.703c.12-.063.25-.146.339-.005.041.067.015.213-.031.302-.308.567-.63 1.13-.948 1.698a4.071 4.071 0 0 0-.136.26c-.15.35-.135.37.23.505.588.22 1.171.459 1.76.683.12.047.25.073.375.109v.146c-.115.099-.219.219-.344.286-.338.193-.682.37-1.036.537-.48.219-.506.213-.438.719.057.411.182.817.276 1.229.084.36.167.724.245 1.088.016.073 0 .157-.005.308Z" fill="#1A3151"/><path d="M24.734 32.958c0-.041.005-.083.005-.125-.557-.229-1.115-.458-1.693-.698.188-.416.354-.791.542-1.213-.646-.042-.89.646-1.438.672-.25-.224-.203-.677-.604-.797-.031.068-.062.11-.067.156-.063.464-.125.927-.183 1.39-.041.37-.078.407-.453.402-.354-.005-.713-.021-1.068-.021-.083 0-.166.031-.328.068.276.172.495.27.683.422.38.302.734.635 1.104.942.182.157.229.323.161.558-.135.468-.24.947-.364 1.479.104-.068.177-.1.229-.151.291-.297.562-.625.885-.896.167-.14.25-.5.563-.354.229.104.422.291.62.453.057.052.072.156.135.203.062.047.15.062.312.125-.078-.839-.15-1.599-.224-2.412.407-.072.792-.135 1.183-.203Zm-6.927-1.536c1.067.094 2.01.469 2.932.943.224-.193.224-.459.219-.678-.016-.906.255-1.755.427-2.625.067-.359.135-.724.218-1.187.428.958.506 1.896.693 2.86.76-.344 1.48-.678 2.271-1.037-.266.515-.495.974-.734 1.422-.438.817-.412 1.031.583 1.213.047.006.099 0 .14.021.428.188.85.38 1.365.615-.672.312-1.26.588-1.854.864l.62 2.896c-.438-.302-.813-.578-1.203-.823-.38-.24-.714-.573-1.1-.61-.931.75-1.812 1.449-2.692 2.152-.031-.02-.062-.047-.094-.068.068-.172.12-.349.203-.51.245-.495.495-.985.766-1.464.14-.255.151-.468-.052-.708a123.015 123.015 0 0 1-2.708-3.276Z" fill="white"/><path d="M21.416 33.099c-.401-.031-.745-.057-1.161-.094.073.12.093.182.135.219.292.255.588.505.885.755.412.35.401.344.26.865-.067.245-.16.5-.109.797.412-.422.787-.813 1.178-1.209.307.235.593.459.9.698.157-.765-.171-1.427-.177-2.12.323-.057.615-.104.901-.156-.453-.245-.88-.52-1.447-.437.067-.339.12-.641.182-.974-.313.229-.568.411-.839.61l-.385-.6c-.031.01-.063.016-.094.026-.073.521-.146 1.042-.229 1.62Zm3.313-.14c-.386.067-.771.13-1.178.202.073.813.146 1.573.224 2.417-.161-.068-.255-.083-.312-.13-.063-.052-.073-.151-.136-.198-.197-.167-.39-.354-.62-.458-.312-.146-.395.213-.562.354-.323.27-.594.599-.885.896-.052.052-.125.083-.23.15.13-.53.23-1.01.365-1.478.068-.235.021-.401-.161-.558-.37-.312-.73-.64-1.104-.942-.188-.151-.407-.256-.683-.422.167-.037.245-.068.328-.068.355 0 .714.016 1.068.02.375.006.412-.03.453-.4.058-.464.12-.927.183-1.396.005-.042.036-.083.067-.151.401.12.354.573.604.797.547-.026.792-.714 1.438-.672-.188.422-.354.797-.542 1.213.578.24 1.136.47 1.693.698 0 .042-.005.084-.01.125Z" fill="#1A3151"/><path d="M21.417 33.099c.084-.578.157-1.099.23-1.62.03-.01.062-.015.093-.026l.386.6c.27-.199.526-.381.838-.61-.062.333-.114.635-.182.974.568-.084.995.192 1.448.437-.287.052-.578.1-.901.156.005.693.333 1.355.177 2.12-.307-.24-.594-.463-.901-.698-.39.396-.766.787-1.177 1.209-.052-.297.041-.552.11-.797.14-.521.15-.516-.261-.865-.297-.25-.594-.5-.886-.755-.041-.036-.062-.099-.135-.219.416.037.76.063 1.161.094Z" fill="white"/><path d="M132.678 82.016c.068.005.13.01.193.02.125-.208.265-.406.364-.624.412-.912 1.693-.876 2.12-.068.219.416.375.875.495 1.328.307 1.13-.511 2.536-1.584 3.026-1.255.578-2.546.583-3.869.464-1.214-.11-2.302-.563-3.177-1.407a3.172 3.172 0 0 1-.818-1.338c-.396-1.313.864-2.578 2.193-2.255.13.025.25.114.359.203.182.15.354.317.588.536.016-.198.021-.302.032-.411.047-.594.588-1.26 1.135-1.401.886-.23 1.62.244 1.807 1.161.053.255.11.51.162.766Zm.281-1.146c-1.14-1.698-2.38-1.62-3.838-.016-.657-.172-1.329-.14-1.98.203-1.125.594-1.541 1.886-.953 3.047.646 1.271 1.797 1.901 3.073 2.302 1.104.35 2.271.37 3.422.25 1.172-.125 2.25-.52 2.99-1.51.838-1.11 1.047-2.334.494-3.64-.479-1.126-1.765-1.537-2.817-.917-.12.067-.224.161-.391.28Z" fill="#1A3151"/><path d="M132.677 82.016c-.052-.256-.109-.51-.162-.766-.187-.917-.921-1.39-1.807-1.161-.547.14-1.088.807-1.135 1.4-.011.11-.016.214-.031.412-.235-.219-.407-.385-.589-.536-.109-.089-.229-.177-.359-.203-1.329-.323-2.589.942-2.193 2.255.141.49.453.984.818 1.338.875.844 1.963 1.297 3.177 1.407 1.323.12 2.614.114 3.869-.464 1.073-.49 1.891-1.896 1.584-3.026a6.366 6.366 0 0 0-.495-1.328c-.427-.807-1.708-.844-2.12.068-.099.218-.239.416-.364.624a2.202 2.202 0 0 0-.193-.02Zm-99.604 56.078c-.016.166.031.38-.255.344-.537-.073-.667-.178-.641-.459.031-.271.114-.375.375-.344.516.068.552.032.52.459Z" fill="white"/><path d="M11.547 146.776h118.599a261.39 261.39 0 0 1-1.787-5.656c-1.281-4.224-2.906-8.334-5.093-12.146-.068-.427-1.146-1.88-1.36-2.229.172-.063-2.76-3.438-3.052-3.386-.76-.932-1.536-1.864-2.291-2.786-2.589-3.068-6.12-4.854-9.485-6.828-.984-.599-2.333-.677-3.172-1.386-1.317-1.078-2.797-1.677-4.281-2.343-1.333-.615-12.094-3.042-12.094-3.042-1.172-.255-2.36-.479-3.531-.599-.078-.12-7.281-.401-7.667-.427-.599.104-7.453.745-8.041.88-.183.052-.334.172-.464.266-.083.015-.146.015-.213.015-1.266.131-2.521.25-3.76.386-1.11.12-2.23.281-3.324.344-2.198.145-3.864-.36-5.916.213-1.016.281-2.829 1.641-4.573 1.932-1.391.245-2.521.485-5.537 1.365-4.943 1.635-10.385 4.505-11.36 6.214-1.692 1.666-5.051 5.437-8.16 7.572-.277.198-4.84 4.823-4.693 5.053-1.438 2.239-2.865 4.463-4.334 6.666-2.026 3.078-3.276 6.479-4.411 9.922Zm121 0v.464H11.401s0 .015-.016.015c-.385.011-.77.026-1.171.026-.428.011-.865.011-1.308.011a15.27 15.27 0 0 1 1.172-2.959c1.255-2.375 2.495-4.786 3.75-7.187 1.401-2.693 3.12-5.146 5-7.505.49-.625 1.037-1.214 1.547-1.813.599-.719 4.052-4.547 4.61-5.307 1.067-1.453 7.187-8.839 19.63-12.656 3.494-1.532 7.734-2.412 9.854-2.907 1.036-.213 2.01-.609 3.093-.77 2.13-.36 4.292-.709 6.303-1.625 1.255-.589 2.708-.724 4.12-.579.28.032.562-.036.921-.062.052-.188 5.203-.589 6.88-.724 2.855-.104 8.308.708 11.443 1.042 1.386.265 5.453 1.041 5.677 1.093.255.078 1.854.625 3.026.881 2.297.76 2.813 1.427 4.615 1.77 1.146.214 2.213.922 3.333 1.417.078.026.146.104.229.146 2.839 1.161 5.157 3.161 7.693 4.771 1.25.776 2.609 1.468 3.745 2.39 1.307 1.068 2.401 2.334 3.547 3.547.708.703 1.375 1.412 1.974 2.198.463.625 4.026 6.12 4.291 5.974.146.281 4.881 12.375 5.12 12.375.084.24 1.443 4.172 2.068 5.974Z" fill="#1A3151"/><path d="M130.146 146.776h-118.6c1.136-3.443 2.386-6.844 4.412-9.922 1.47-2.203 2.896-4.427 4.334-6.666-.146-.23 4.416-4.855 4.692-5.053 3.11-2.135 6.47-5.906 8.162-7.572.974-1.709 6.416-4.579 11.36-6.214 3.015-.88 4.145-1.12 5.536-1.365 1.744-.291 3.557-1.651 4.573-1.932 2.052-.573 3.718-.068 5.916-.213 1.094-.063 2.214-.224 3.323-.344 1.24-.136 2.495-.255 3.76-.386.068 0 .13 0 .214-.015.13-.094.281-.214.464-.266.588-.135 7.442-.776 8.041-.88.386.026 7.589.307 7.667.427 1.172.12 2.36.344 3.531.599 0 0 10.76 2.427 12.094 3.042 1.484.666 2.964 1.265 4.281 2.343.839.709 2.188.787 3.172 1.386 3.365 1.974 6.896 3.76 9.485 6.828.755.922 1.531 1.854 2.291 2.786.292-.052 3.224 3.323 3.052 3.386.214.349 1.292 1.802 1.36 2.229 2.187 3.812 3.812 7.922 5.093 12.146a261.39 261.39 0 0 0 1.787 5.656Z" fill="#59673B"/><path d="M71.156 136.25c-.47 1.135-.271 1.75.614 2.13 1.016.438 2.584-.317 2.828-1.38.172-.74-.166-1.281-.786-1.646-.427-.25-.886-.453-1.547-.786.396-.203.688-.448.776-.386.662.422 1.417.808 1.87 1.407.484.635.526 1.474 0 2.234-.667.958-2.287 1.542-3.375 1.182-.834-.276-1.49-1.359-1.36-2.234.042-.281.089-.313.98-.521Zm12.468-6.516c-.604.094-.812.526-.635 1.068.11.344.401.792.708.886.63.197.839-.344.938-.667-.39-.495-.688-.87-1.01-1.287Zm1.62 1.302c-.125.865-.911 1.558-1.604 1.412-.719-.151-1.557-1.297-1.469-2.01.094-.75.964-1.464 1.677-1.37.745.099 1.516 1.172 1.396 1.968Zm-6.599-7.567c-.031.364.026.677-.078.739-.344.214-.73.438-1.12.48-.791.088-1.979-1.032-2.041-1.818-.079-1.005 1.041-1.906 2.599-2.005-.105.187-.151.39-.266.458-.24.13-.531.167-.781.292-.771.375-1.073.875-.86 1.375.297.682 1.25 1.062 1.933.765.156-.062.302-.14.614-.286Zm11.917 5.406.802.479c.833-1.14.656-1.401-1.458-2.166.921-.49 1.635-.355 2.229.432.38.5.37 1.62-.042 2.094-.286.328-.635.609-1.099.364-.448-.229-.74-.573-.432-1.203Zm-3.818-3.755c.406-1.485.276-2.057-.448-2.547-.583-.391-1.125-.276-2.25.583.063-.364.021-.646.146-.797.636-.765 1.547-.895 2.386-.38.9.552 1.374 1.714.979 2.526-.11.214-.422.328-.813.615Zm6.193-4.026c-1.209.885-1.214.927-.365 1.906.271-.516.51-.974.745-1.427.469.318.526.651.208 1.255-.343.656-.948.995-1.442.807-.662-.25-.98-1.192-.683-2.036.22-.625.542-.755 1.537-.505Zm-10.14 22.229c.577-.891 1.083-.464 1.525-.349.344.083.724.219.969.453.156.146.146.521.125.787-.036.557-.958 1.208-1.651 1.218-.464.006-.563-.114-.849-1.151.427.146.797.386 1.14.36.297-.026.75-.308.808-.552.099-.422-.276-.599-.719-.61-.39-.005-.781-.088-1.349-.156Zm-41.85-15.396c.1-1.323.302-1.526 1.26-1.432.907.094 1.574.682 1.5 1.333-.098.87-.994 1.36-2.13 1.115.136-.985 1.516-.167 1.605-1.151-.667-1.104-1.079-1.115-2.235.135Zm13.73 11.276c-.72.438-1.079.979-.745 1.86.406 1.072 1.036 1.609 2.203 1.651-.047-.386-.1-.761-.146-1.136.062-.021.12-.042.182-.062.193.385.386.765.578 1.14-.552.589-1.078.828-1.77.36-1-.672-1.615-1.547-1.558-2.787.037-.693.198-.818 1.255-1.026Zm15.182-10.984c1.052-.214 1.052-.214.906-1.334-.39.073-.77.146-1.26.24.015-.177-.026-.375.057-.49.406-.588.984-.661 1.531-.234.6.474.625 1.573.042 2.13-.438.422-.703.354-1.276-.312Zm-12.683-10.485c.47-.114.766-.187 1.271-.312a336.88 336.88 0 0 0-.692-1.307c-.464.349-.813.609-1.22.911-.286-.713.136-1.234.62-1.25.516-.021 1.13.323 1.553.677.395.344.187 1.287-.224 1.646-.276.24-.547.177-1.308-.365Zm41.323 7.542c-.609 1.354-.625 1.464.089 1.958.255.172.703.287.963.183.49-.193.469-.854.032-1.849.817.479.937.521.812.948-.151.494-.427 1.026-.802 1.359-.443.391-1.302-.083-1.797-.875-.411-.656-.265-1.12.703-1.724ZM82.067 139.62c-.177-.505-.734-1.016-.167-1.568.214-.208.797-.255 1.084-.114.281.14.599.656.547.932-.141.682-.72.864-1.464.75Zm25.052.812c.375.75.328 1.495-.198 1.776-.271.141-.724.157-.995.026-.567-.281-.838-1.031-.593-1.531.172-.349.489-.625.869-1.088.167.807-.916 1.546.329 2.13.187-.417.369-.834.588-1.313Zm6.026-15.484c.375.083.745.161 1.11.24.635-1.271.395-1.636-1.36-2.178.813-.291 1.578-.088 1.974.532.297.463.271 1.51-.042 1.869-.338.381-.744.323-1.682-.463Zm-37.172 5.193c.672-.532 1.526-.443 1.896.114.375.563.14 1.37-.52 1.808-.62.406-.777.354-1.246-.516.376.01.698.078.985 0 .172-.042.375-.307.39-.484.016-.178-.14-.459-.296-.537-.36-.172-.76-.25-1.209-.385Zm19.589-1.37c.245.271.5.521.713.797.365.479.292 1.12-.166 1.297-.505.198-.75-.12-.953-.547-.297-.61-.396-1.141.406-1.547Zm-33.177 1.573c.166-.177.338-.318.323-.344-.1-.172-.24-.312-.365-.464-.094.079-.276.188-.26.235.052.177.172.338.302.573Zm-.823-1.745c.885.359 1.443.583 2.026.823-.188.984-.583 1.484-1.708 1.349-.089-.594-.178-1.214-.318-2.172Zm29.896 5.583c.041-.291.067-.494.093-.729-.286-.083-.614-.182-.937-.276.052-.167.062-.307.104-.318.438-.088.89-.25 1.318-.208.291.037.692.313.797.578.177.459-.183.771-.61.906-.208.063-.442.032-.765.047Zm-12.318-6.369c-.385.552-.307.859.13 1.01.078.026.37-.266.35-.313-.11-.229-.287-.432-.48-.697Zm.026 1.875c-.906-1.193-.906-1.193-.599-2.641.542.286 1.026.552 1.495.802.156.875-.177 1.401-.896 1.839Zm-31.677 2.796c-.104.698-1.094 1.448.094 1.98.672-.553.875-1.167.317-2.063 1 .24.709.896.662 1.344-.068.661-.672 1.281-1.167 1.193-.297-.053-.661-.355-.77-.636-.266-.677.067-1.318.864-1.818Zm52.13 6.177c-.49-.072-.88-.13-1.364-.197.823-.485 2.151-.318 2.5.281.109.193.104.588-.021.745-.13.161-.542.276-.714.182-.208-.104-.302-.443-.422-.688-.036-.067.01-.171.021-.323Zm-40.547-28.317c-.203 1.057-.703 1.526-.911 1.192-.276-.437-1.13.042-.99-.755.115-.682.537-.791 1.901-.437Zm47.349 15.536c-.463.88-.823 1.505-.166 2.094.864.104.494-.693.838-1.099.37.646.255 1.151-.292 1.542-.406.291-.864.177-1.078-.25-.437-.87-.744-1.334.698-2.287Zm-21.36 9.646c-1.103.292-1.192.24-1.405-.583-.11-.433-.084-.761.4-.839.62-.099.99.448 1.006 1.422Zm3.61 4.401c.203-.547.344-.911.563-1.484.661.89 1.015 1.625.755 2.62-.76-.063-.77-.87-1.318-1.136Zm14.354-9.359.188 1.01c-.938-.021-1.771-.042-2.609-.062.015-.5.015-.5 2.421-.948Zm8.516 5.104c-.88-.167-1.651-.313-2.646-.5.235-.261.375-.568.578-.615.792-.192 1.511.198 2.068 1.115ZM98.76 120.745c-.058.364-.094.635-.136.906.276-.01.532-.016.787-.021-.058.292-.037.641-.198.854-.12.167-.51.276-.708.204-.26-.094-.615-.375-.63-.599-.042-.584.135-1.136.885-1.344Zm-26.875 20.208c-.016.599-.026 1.104-.042 1.641 1.089.036.755-.724.839-1.448.265.318.557.547.515.646-.156.422-.344.88-.656 1.182-.443.432-.995.219-1.182-.375-.172-.531-.047-.958.526-1.646Zm12.49-14.328c-.495.307-.75.578-1.032.615-.495.067-.828-.386-.786-.901.036-.495.442-.667.76-.584.318.084.568.448 1.057.87Zm16.827-5.307c.641.021 1.016-.058 1.329.052.505.182.713.776.38.958-.297.162-.776.172-1.099.052-.219-.083-.307-.51-.61-1.062Zm-20.296 13.271c-.141-.125-.256-.256-.396-.318-.047-.021-.255.203-.245.219.104.161.24.302.365.448.078-.099.161-.198.276-.349Zm-.943-.912c1.13.198 1.349.412 1.255 1.141-.052.432-.27.708-.719.661-.62-.068-.76-.526-.536-1.802Zm28.948-12.588c1.344-.506 1.89.182 1.646 1.901a60.33 60.33 0 0 1-.959-.308c.229-1.307.229-1.307-.687-1.593Zm-44.084 17.713c-1.302.865-1.28.854-.74 2.188.095.239-.056.578-.119 1.109-.911-.766-.708-1.557-.583-2.281.11-.646.463-1.104 1.443-1.016Zm7.724-19.036c.417-.61.922-.865 1.422-.412.526.479.162.886-.4 1.214-.308-.245-.615-.485-1.022-.802Zm14.464 13.854c.484-.203.75-.323 1.02-.438-.098-.14-.202-.286-.301-.432-.318.026-.636.047-1.005.078.015-.135.005-.344.052-.359.322-.11.687-.292.979-.219.172.047.297.516.323.802.03.307-.078.62-.146 1.068-.323-.177-.537-.292-.922-.5Zm-23.98-11.396c.319-.854.923-.745 1.506-.526.14.052.292.391.25.547-.042.156-.338.37-.495.349-.4-.052-.786-.224-1.26-.37Zm43.417-5.813c.079.282.157.563.24.87.198-.12.385-.234.656-.396.104.615.094 1.073-.536 1.136-.479.052-.693-.552-.36-1.61Zm-60.197-3.13c.296-.208.572-.406 1.036-.734.104.599.177 1.047.255 1.516-.786.14-1.052-.25-1.291-.782Zm25.223 18.729c-.546-.51-.77-.718-1.046-.979.229-.208.395-.448.62-.526.16-.057.567.089.572.162.016.349-.062.703-.145 1.343Zm17.829-9.401c.203.355.453.693.573 1.068.03.099-.334.323-.516.49-.125-.162-.318-.313-.354-.495-.058-.281-.005-.578.005-.87a9.79 9.79 0 0 1 .292-.193Zm-15.464 4.032c.156-.094.193-.131.234-.136.48-.067.959-.052 1.058.537.02.151-.271.494-.448.515-.62.073-.906-.26-.844-.916Zm-1.062-3.313c1.12.021 1.375.245 1.234.906-.13.641-.537.636-1.11.37l.771-.552c-.328-.26-.609-.495-.895-.724Zm-26.51-5.39c.395-.256.593-.5.775-.48.209.021.401.261.604.407-.156.187-.307.526-.468.531-.235.005-.48-.224-.912-.458Zm20.155 4.135c.105-.385.094-.568.177-.641.25-.213.537-.385.813-.552.02-.015.167.094.188.167.14.557-.38.526-.651.713-.105.068-.214.131-.527.313Zm-19.698.594c1.068-1.209 1.094-1.209 1.51-.287-.431.078-.848.156-1.51.287Zm54.282-7.985c.302-.213.583-.588.833-.567.469.036.537.546.318.838-.318.412-.703.198-1.151-.271Zm-21.104 15.813c.276.14.562.265.802.448.03.026-.172.359-.266.547l-.802-.532c.088-.151.177-.307.266-.463Zm-26.485-6.834c-.166-.875.162-1.182.932-1.39-.02.765-.385 1.042-.932 1.39Zm28.13-.01-.171 1.5c-.683-.693-.38-1.099-.271-1.505.146 0 .297 0 .442.005Zm-4.708 11.906c.266-.01.563-.093.787 0 .109.047.083.422.156.886-.48-.287-.74-.448-1-.604.015-.094.036-.188.057-.282Zm-18.286-10.01c-.24-.422-.443-.781-.677-1.198 1.026.167 1.026.167.677 1.198Zm-2.896 3.76.61-.739c.187.271.348.51.676.995-.578-.115-.885-.178-1.286-.256Zm26.073-7.062c.588-.651.911-.646 1.161.14-.317-.041-.64-.078-1.161-.14Zm.573 4.885c.302 1.042.302 1.042-.745 1.078.266-.38.474-.687.745-1.078Zm12.583 10.995c.333.198.667.401 1.219.729-.922.297-1.177-.088-1.438-.463l.219-.266Zm-42.854-24.057c.172-.172.333-.375.531-.505.042-.032.245.182.37.286-.188.193-.38.38-.568.568a10.872 10.872 0 0 1-.333-.349Zm60.385 13.807c.042.26.078.526.12.792-.094.021-.187.047-.276.067-.073-.26-.141-.515-.208-.776.119-.026.244-.057.364-.083Zm-21.745 17.802c-.307-.114-.614-.229-1.161-.437.26-.12.401-.245.49-.214.28.094.541.245.812.375-.047.094-.094.182-.14.276Zm-3.942-18.5c-.193.24-.365.464-.547.698-.12-.141-.219-.198-.219-.255-.016-.511.12-.813.766-.443Zm-12.854 3.188c.208.083.411.171.62.255-.037.073-.084.219-.11.213-.208-.02-.417-.078-.625-.119.042-.115.078-.235.115-.349Z" fill="#1A3151"/><path d="M78.874 122.641c-.203.135-.312.25-.437.27-.063.006-.23-.182-.22-.255.027-.14.152-.265.235-.39l.422.375Zm-14.281 2.062c-.25.136-.401.261-.573.297-.073.016-.276-.193-.266-.214.089-.151.198-.302.334-.395.041-.032.203.119.505.312Z" fill="#1A3151"/><path d="M83.625 129.734c.323.417.62.792 1.01 1.287-.099.323-.307.864-.937.667-.308-.094-.6-.542-.709-.886-.177-.542.031-.974.636-1.068Zm-21.24.61c-.13-.235-.25-.396-.302-.573-.016-.047.167-.156.26-.235.125.151.266.292.365.464.016.026-.156.167-.323.344Zm16.755-2.532c.193.266.37.469.48.698.02.047-.271.339-.35.313-.437-.151-.515-.458-.13-1.011Zm1.766 6.777c-.115.151-.198.25-.276.349-.125-.146-.26-.287-.365-.448-.01-.016.198-.24.245-.219.14.062.255.193.396.318Z" fill="#59673B"/><path d="M101.119 72.807c.167-.057.307-.088.307-.114.006-.203-.021-.406-.036-.61l-.12.005c-.042.204-.088.412-.151.72Zm-11.536 3.328c.26-.104.494-.224.75-.302.203-.057.296-.166.276-.375-.021-.218-.167-.296-.37-.276-.38.047-.76.084-1.136.156-.224.042-.296.402-.109.537.172.12.39.177.589.26Zm-.157-2.437c-.005.02-.01.042-.015.057-.073 0-.146.005-.214 0-.234-.01-.437.016-.443.323 0 .302.204.318.438.328.219.01.432.073.646.11.198.03.39.104.583.083.115-.01.307-.146.313-.234.005-.125-.1-.339-.209-.375-.354-.13-.729-.198-1.099-.292Zm10.375-4.672c-.036.01-.073.026-.114.037-.01.124-.01.255-.042.374-.182.662-.354 1.318-.562 1.97-.151.463-.36.91-.51 1.38-.027.072.114.291.192.296.37.047.75-.26.823-.65.094-.506.114-1.022.234-1.516.115-.495.172-.98.125-1.474-.016-.14-.094-.281-.146-.417Zm.667-.906c-.026.015-.057.026-.083.036 0 .063-.016.12-.011.177.047.573.099 1.141.141 1.714.068.849-.083 1.672-.302 2.49-.026.104.052.239.083.359.115-.047.281-.068.323-.151.177-.323.333-.657.464-1.005a2.09 2.09 0 0 0 .119-.667c-.005-.323-.062-.646-.114-.969-.068-.406-.12-.823-.235-1.219-.078-.27-.255-.51-.385-.765Zm-3.813 5.161c.688.167 1.151-.068 1.376-.672.025-.062.067-.125.088-.187.214-.61.417-1.214.625-1.818.068-.187.146-.37.24-.614a.964.964 0 0 1-.026-.224c.02-.813.099-1.636.041-2.443-.026-.344-.333-.667-.51-1a1.015 1.015 0 0 1-.115.042c.016.182.037.364.037.547.01.755.041 1.51 0 2.265-.037.646-.146 1.292-.25 1.938-.084.52-.177 1.026-.76 1.302-.34.161-.699.4-.745.864ZM94.38 60.75c.266.177.532.302.724.5.344.344.636.73.954 1.094.364.422.786.802 1.093 1.265.302.453.48.99.74 1.48.078.15.219.307.364.39.266.151.51.5.506.808 0 .083.03.171.046.255l.105-.01c.01-.115.041-.24.02-.355-.046-.24-.192-.469-.177-.698.042-.604-.177-1.125-.474-1.614-.463-.782-1.093-1.428-1.786-2.006-.266-.224-.563-.411-.833-.625-.37-.297-.802-.4-1.282-.484Zm1.844 2.5c-.041.026-.088.047-.13.073.213.505.463 1 .63 1.52.167.522.235 1.079.375 1.61.193.74.25 1.422.104 1.625a7.925 7.925 0 0 0-.161-.338c-.094.187-.188.323-.224.474-.177.755-.302 1.52-.51 2.265-.188.651-.558 1.209-1.058 1.688-.27.26-.442.609-.672.932.24.094.401.198.563.208.172.01.448-.005.51-.11.323-.53.594-1.093.88-1.65.037-.073.042-.156.063-.24l.135.125c.13.781-.635 1.224-.786 1.953.23-.166.422-.286.589-.432.359-.307.588-.708.786-1.13.104-.219.26-.411.349-.63.318-.755.172-1.573.281-2.36.094-.703-.11-1.411.052-2.125.047-.208-.057-.515-.203-.677-.36-.396-.536-.854-.625-1.364-.01-.047-.031-.12-.062-.125-.365-.094-.495-.37-.594-.703-.057-.204-.193-.391-.292-.589Zm.235 35.172c-.214.135-.386.234-.537.354-.52.427-1.042.86-1.693 1.078-.182.063-.296.162-.27.391.057.495.099 1 .14 1.5.052.594.1 1.192.151 1.786.094 1.073.209 2.146.271 3.224.042.682.063 1.38-.005 2.063-.078.781-.209 1.573-.443 2.317-.104.349-.36.766-.896.766a14.717 14.717 0 0 0-1.583.073c-.255.026-.52.115-.745.24-.27.145-.234.416.037.567.448.245.921.38 1.437.328.209-.02.339.078.354.302.016.209-.03.375-.28.407-.334.047-.673.078-1 .151-.173.036-.334.151-.5.229.114.182.207.38.348.536.073.089.224.131.344.151.307.063.625.084.927.157.114.026.203.151.302.234-.099.083-.182.214-.292.245-.213.057-.453.021-.656.088a4.111 4.111 0 0 0-.88.381.517.517 0 0 0-.209.682c.068.146.329.255.51.271.261.026.532-.047.798-.084.463-.062.922-.156 1.385-.177a13.82 13.82 0 0 1 1.854 0c.797.058 1.183-.349 1.329-1.093.14-.719.187-1.459.218-2.198.026-.547-.041-1.105-.062-1.657-.026-.828-.052-1.656-.068-2.479-.031-1.151-.047-2.297-.073-3.443-.02-.671-.047-1.343-.073-2.015l-.14-4.36c-.01-.317 0-.635 0-1.015ZM84.9 111.344c.026.021.052.041.073.067-.208.089-.411.24-.625.256-.76.052-1.526.114-2.276.057-.396-.031-.474.182-.557.411-.1.261.12.573.422.61.422.052.849.031 1.265.088.198.026.412.136.547.271.146.151-.114.49-.38.495-.453.01-.906-.016-1.354.021-.115.005-.307.203-.292.286.021.125.177.313.292.328.469.058.943.058 1.411.089.136.005.308.005.401.083.11.089.177.255.214.401.016.068-.063.229-.12.235-.406.073-.828.187-1.23.145-.535-.057-.937.079-1.187.579-.24.479-.03.942.495 1.041.297.058.61.084.907.073 1.12-.031 2.244.104 3.359-.13.844-.177 1.193-.604 1.276-1.313a22.7 22.7 0 0 0 .146-1.968c.057-2.261.11-4.521.14-6.776a29.99 29.99 0 0 0-.073-2.271c-.057-.99-.15-1.985-.229-3.005-.656 0-1.302-.011-1.948.005-.333.01-.557.187-.588.547-.026.255-.068.51-.078.771-.032.791-.052 1.578-.078 2.369 0 .073-.021.141-.026.209-.006.317-.016.635 0 .948.015.307.072.609.093.916.031.516.037 1.037.073 1.558.031.416.12.833.14 1.25.011.312-.04.63-.082.942-.021.141-.084.276-.13.412Zm4.865-28.959c.708 1.073.802 2.318.422 3.589-.052.172-.14.36-.271.474-.719.63-1.464 1.234-2.188 1.865-.38.328-.78.656-1.093 1.046-.37.459-.61 1.026-.98 1.48-.583.718-.677 1.53-.593 2.39.031.35.12.719.291 1.021.422.745 1.204.99 1.954 1.245.203.067.432.14.635.114.354-.041.693-.208 1.042-.24.77-.067 1.463-.348 2.156-.635.224-.093.495-.13.672-.276.432-.354.844-.74 1.224-1.15.192-.214.312-.506.442-.772.11-.229.167-.49.297-.703a.587.587 0 0 1 .375-.25c.183-.03.328.063.313.308-.016.359.068.734-.021 1.067-.135.49-.245 1.021-.766 1.302-.14.078-.234.235-.349.355-.224.24-.432.494-.677.708-.156.14-.364.234-.562.312a69.96 69.96 0 0 1-1.76.61 9.23 9.23 0 0 1-.652.177c-.125.036-.25.057-.375.078a2.795 2.795 0 0 1-.411.057c-.156.01-.313-.005-.474 0-.401.005-.807.016-1.214.016-.474.005-.953-.005-1.427 0-.067.005-.135.073-.135.073-.276-.115-.495-.214-.719-.292-.667-.229-1.344-.437-2.005-.682-.464-.177-.917-.328-1.458-.203.041.11.073.208.114.297.182.432.615.546.984.713.292.136.396.313.344.6-.047.296-.333.54-.614.52-.162-.01-.318-.063-.48-.089-.359-.067-.744-.26-1.046.115-.084.104-.167.27-.141.38.031.11.193.245.313.266.427.067.859.182 1.291.005a.398.398 0 0 1 .188 0c.224.047.453.078.666.156.125.047.302.177.313.281.005.11-.136.277-.25.34-.526.28-1.12.197-1.662.124-.437-.057-.614.083-.78.401.463.448 1.046.516 1.614.625.302.063.599.177.906.203.276.026.557-.052.838-.057.547-.005 1.1.016 1.646-.005.302-.016.6-.084.896-.13.459-.073.917-.162 1.375-.22.146-.015.302.074.448.063.714-.062 1.427-.15 2.14-.203a6.796 6.796 0 0 0 3.261-1.078c.453-.292.974-.505 1.23-1.031.02-.037.083-.042.12-.068.54-.448 1.124-.849 1.603-1.354.459-.48.755-1.083 1.01-1.724.35-.886.298-1.734.027-2.599-.136-.417-.323-.818-.474-1.23-.094-.244-.12-.536-.271-.739-.443-.588-.932-1.14-1.406-1.708-.537-.646-1.313-1.02-1.834-1.724-.656-.886-1-1.823-1.01-2.906-.005-.735.135-1.433.469-2.089.333-.656.645-1.338 1.245-1.817.213-.167.458-.287.66-.459.62-.526.782-1.27.902-2.016.063-.37-.02-.791.13-1.109.23-.5.224-.995.235-1.505.005-.25-.105-.385-.36-.37-.161.01-.323.042-.484.063-.23.026-.464.083-.698.072a9.35 9.35 0 0 1-1.14-.145c-.277-.052-.495-.14-.548-.516-.072-.52.271-.792.526-1.104.495-.62 1.068-1.177 1.558-1.807.38-.485.567-1.073.692-1.693.151-.745.386-1.474.308-2.245-.016-.187-.063-.37-.068-.557-.01-.714-.286-1.365-.594-1.98-.328-.666-.797-1.26-1.192-1.89-.438-.703-1.032-1.182-1.85-1.396-.479-.125-.927-.349-1.406-.463a3.075 3.075 0 0 0-1.088-.084 4.02 4.02 0 0 0-1.115.35c-.411.197-.88.385-1.161.713-.25.291-.5.49-.828.65-.12.063-.266.157-.308.267-.291.75-.51 1.52-.515 2.338 0 .38-.021.76-.021 1.14 0 .422.026.84.016 1.261-.006.365 0 .734-.063 1.089-.094.536-.245 1.062-.36 1.593-.01.063.016.193.042.204.334.078.677.213 1.005.182.365-.042.704-.271 1.073-.36.146-.036.433.037.485.141.172.344.344.724.375 1.099.047.552-.037 1.11-.052 1.667 0 .135.057.276.073.364.234-.015.432-.083.588-.031.453.156.886.385 1.344.542.5.177.557.599.625 1.015a3.26 3.26 0 0 1 0 .677c-.026.641-.594 1.35-1.188 1.396-.458.032-.656.38-.77.651-.287.672-.485 1.396-.646 2.115-.1.474-.104 1.005.203 1.422.323.432.766.75 1.323.812.354.042.719.016 1.073.01.203-.005.442-.041.484.214.016.073-.198.26-.312.266-.568.031-1.136.015-1.72.015Zm12.703-8.276c-.245-.057-.422-.13-.599-.125-.583 0-1.167-.067-1.75.125-.333.11-.667.256-1.073.172-.39-.083-.818.005-1.224.052-.083.01-.208.177-.213.276-.016.23.026.464.057.698a5.293 5.293 0 0 1-.323 2.74c-.094.224-.167.453-.25.677-.12.323-.318.557-.568.807-.49.485-1.192.693-1.599 1.266-.187.27-.364.541-.547.812a.392.392 0 0 1-.052.089c-.552.63-.588 1.437-.703 2.193-.13.875.115 1.645.88 2.24.573.442 1.167.895 1.547 1.556.12.214.344.401.568.516.63.313.875.917 1.156 1.48.25.494.542 1.025.568 1.557.036.797.292 1.53.396 2.307.036.276.099.547.135.823.1.687-.354 1.161-.666 1.682-.183.318-.417.61-.63.911-.094.141-.157.261-.016.438.031.042-.162.26-.323.36 0 .89-.031 1.78.01 2.666.032.583.172 1.156.25 1.729.084.604.14 1.209.245 1.808.24 1.375.094 2.76.135 4.14.021.745.058 1.485.068 2.229.021 1.058-.057 1.688-.099 2.802-.099.407-.057 1.12-.047 1.537.01.474-.229 1.099-.375 1.531-.234.698-1.026.953-1.708 1.172-.984.323-1.99.24-3.005.161a7.402 7.402 0 0 0-1.516.063c-.786.104-1.213-.578-1.047-1.339.063-.291.276-.552.39-.765-.145-.255-.385-.495-.405-.755-.032-.459-.172-.974.24-1.375-.397-.49-.438-1.24-.11-1.787.24-.385.52-.385 1.182-.318.682.068 1.386-.073 1.89-.593.126-.131.032-.49.032-.745v-2.188c0-.104.02-.213.02-.317.006-.808-.004-1.615.006-2.422.005-.438.089-.875.057-1.302-.073-1.063-.187-2.12-.286-3.162-.828.224-1.589.443-2.35.63-.202.053-.447.084-.635.016-.406-.135-.744.026-1.104.151a.45.45 0 0 1-.26.026c-.318-.083-.417-.026-.417.302-.005 1.141-.02 2.281.005 3.422.026 1.297.11 2.594.13 3.891.027 1.547.022 3.099 0 4.64a30.82 30.82 0 0 1-.145 2.506c-.042.416-.287.77-.709.906-.473.151-.979.203-1.442.37-.406.151-.797.015-1.193.062-.323.042-.64.115-.969.125a9.091 9.091 0 0 1-1.198-.047c-.224-.021-.427.167-.682 0-.198-.13-.469-.166-.713-.219-.287-.052-.6-.395-.646-.677-.047-.286-.151-.567-.24-.89.058-.052.151-.136.25-.214.276-.208.334-.526.224-.849-.088-.25-.104-.521-.156-.781-.057-.312-.073-.63-.177-.922-.271-.739.01-1.765.672-2.161.161-.099.422-.052.635-.058.38-.005.76 0 1.14-.005.079 0 .157-.031.23-.026.578.037.865-.172.844-.739-.037-.985-.146-1.969-.198-2.954-.021-.427.02-.859.036-1.286.005-.12.026-.234.026-.349 0-.953-.01-1.906.01-2.854.006-.333.094-.662.167-1.104-.432-.011-.823-.006-1.213-.037-.182-.01-.35-.099-.531-.13-.485-.083-.985-.109-1.454-.24-.39-.109-.744-.333-1.109-.52-.068-.037-.125-.146-.14-.23-.13-.562-.1-1.104.28-1.573-.41-.598-.286-1.692.266-2.296.12-.13.167-.224.104-.427-.161-.521-.171-1.084.37-1.375.292-.157.703-.115 1.063-.1.38.011.77.053 1.14.152.355.093.683.276 1.021.416.125.052.255.1.469.183-.036-.188-.047-.318-.083-.438-.089-.333-.245-.661-.276-.995-.1-1.041.088-2.046.437-3.03.276-.772.563-1.516 1.208-2.058.704-.584 1.433-1.13 2.12-1.735.558-.49 1.214-.937 1.505-1.64.167-.407.141-.927.1-1.386-.037-.427-.199-.854-.34-1.265-.051-.14-.187-.266-.317-.354-1.042-.709-1.578-1.964-1.213-3.151.208-.667.578-1.292.906-1.917.198-.37.208-.63-.14-.844-.287-.187-.272-.396-.136-.625.177-.297.041-.495-.073-.786-.188-.49-.412-.99-.339-1.584.073-.645-.01-1.312-.03-1.974-.006-.046-.084-.13-.136-.14-.401-.047-.808-.14-1.198.057-.24.125-.469.146-.719.016-.208-.115-.474-.146-.656-.287-.334-.26-.24-.656-.172-.99.135-.666.39-1.317.463-1.984.094-.849.037-1.708.084-2.562.031-.568.13-1.136.213-1.698.063-.438.136-.875.214-1.307a.717.717 0 0 1 .12-.318c.187-.255.265-.552.39-.834.48-1.114 1.157-2.114 2.396-2.432.797-.208 1.651-.338 2.505-.156.308.063.646-.01.964.016.5.052 1 .135 1.5.197.067.01.156.027.203-.01.276-.208.432-.016.63.146.203.167.432.302.662.437.64.365 1.28.724 1.922 1.089.052.031.114.078.124.125.089.453.51.594.792.865.63.593 1.078 1.312 1.469 2.078.156.312.37.599.562.895.407.626.693 1.282.844 2.021.156.745.5 1.443.667 2.183.213.974.328 1.974.489 2.958.042.266.115.526.141.792.042.442.063.89.099 1.468Zm-35.651 2.745.005-.031c.151 0 .323.042.453-.01.125-.047.287-.193.292-.303 0-.104-.151-.286-.266-.317-.338-.084-.687-.115-1.036-.151-.209-.016-.432-.037-.636.01-.104.031-.224.203-.234.318-.01.093.12.276.214.297.395.088.802.13 1.208.187Zm-.438-2.172c-.192.021-.442.031-.677.094-.213.057-.4.208-.317.464.046.13.198.323.296.323.678-.01 1.36-.047 2.032-.11.088-.005.213-.198.213-.302 0-.104-.114-.292-.203-.307-.427-.078-.86-.11-1.344-.162Zm6.058 27.183c-.422.14-.792.265-1.167.38-.62.187-.604.187-.625.817-.031.943.094 1.886-.125 2.823a5.996 5.996 0 0 0-.146 1.464c.016 1.297-.078 2.594.115 3.896.12.786.073 1.599.088 2.406.01.682.1 1.344.365 1.979.24.573.542 1.11 1.219 1.167.849.073 1.703.078 2.557.073.453 0 .917-.073 1.37-.13.505-.063.974-.198 1.224-.829-.334.068-.63.079-.88.198-.433.209-.818.089-1.172-.114-.125-.073-.167-.349-.167-.531 0-.12.115-.318.219-.344.333-.084.692-.084 1.031-.167.24-.068.463-.208.672-.349.068-.042.099-.213.068-.286-.026-.058-.183-.073-.282-.078-.385-.037-.833.177-1.11-.271-.093-.151-.197-.349-.166-.495.031-.12.24-.26.39-.281.37-.063.75-.052 1.126-.089.234-.026.484-.094.51-.38.021-.198-.5-.667-.718-.641-.224.021-.443.11-.667.167a94.96 94.96 0 0 1-1.698.406c-.057.016-.135-.005-.193-.031-.156-.073-.302-.203-.458-.224-.583-.078-.745-.484-.813-.969-.099-.739-.208-1.479-.286-2.224-.11-1.093-.23-2.192-.27-3.291-.048-1.198-.011-2.401-.011-3.599v-.453Zm-3.76 14.13c-.256-.026-.506-.104-.73-.063-.484.094-.932.115-1.307-.271-.052-.052-.115-.135-.11-.197.016-.224.38-.547.61-.579.15-.015.333-.005.443-.083a.54.54 0 0 0 .198-.391c0-.104-.157-.281-.256-.291a3.098 3.098 0 0 0-.875.036c-.198.037-.286-.021-.338-.187-.052-.157-.11-.302.088-.417.302-.167.6-.286.959-.234.161.021.333.015.494-.021.224-.052.443-.151.37-.453-.067-.287-.307-.245-.515-.235-.422.016-.855.099-1.266.047-.292-.031-.651-.172-.818-.385-.312-.417-.458-.932-.463-1.474-.016-2.443-.047-4.886-.068-7.323 0-.026.01-.057 0-.073-.089-.115-.156-.292-.276-.333-.245-.089-.51-.11-.77-.157-.37-.067-.75-.093-1.105-.203-.349-.109-.672-.297-1.057-.474-.026.386-.068.724-.068 1.058 0 .406.062.807.062 1.213-.005.578-.057 1.156-.062 1.735-.016 1.046-.005 2.099-.005 3.14 0 .302 0 .599-.01.896-.016.344-.074.688-.053 1.026.078 1.214.172 2.432.282 3.646.041.489.057 1.005.432 1.385.4.412.823.797 1.458.766.438-.021.87-.057 1.302-.068.36-.01.719-.005 1.078-.005.24 0 .48-.016.72.005.562.047 1.426-.458 1.655-1.036Zm-.787-42.073c-.11-.797-.23-1.521-.297-2.25a2.12 2.12 0 0 1 .115-.901c.099-.292.333-.474.687-.516.557-.057 1.099-.177 1.599-.474.188-.11.214-.224.151-.385-.083-.209-.203-.406-.27-.615-.147-.479-.225-.984-.423-1.437a3.19 3.19 0 0 1-.25-.813c-.104-.698-.27-1.385-.4-2.078-.032-.15.01-.323-.048-.458-.166-.36-.5-.224-.77-.193-.584.052-1.162.151-1.745.224-.219.026-.448.02-.667.047-.682.089-1.364.25-2.047.255-.692.005-1.244.313-1.776.651-.302.193-.583.558-.672.896-.114.417-.24.838-.296 1.287-.115.817.067 1.583.182 2.359.093.687.302 1.344-.063 2.026-.276.505-.61.865-1.203.932-.073.005-.198.052-.208.094-.073.427-.167.854-.182 1.286-.006.292.12.589.14.88.037.485.005.98.063 1.459.104.844.385 1.64.74 2.417.156.343.254.75.504 1.005.563.573.829 1.333 1.386 1.916.484.51.766 1.209 1.12 1.834.135.24.26.495.328.76.12.495.166 1.01.297 1.505.12.459.026.88-.115 1.302-.089.282-.25.547-.307.834-.157.75-.427 1.422-.98 1.969-.338.333-.64.703-.932 1.073-.125.161-.161.385-.28.552-.313.448-.668.875-.97 1.333-.593.896-.817 1.922-.755 2.969.057.958.292 1.906.401 2.864.13 1.094.886 1.724 1.688 2.281.463.323 1.036.485 1.541.756.5.271 1.042.146 1.558.177.203.005.37.021.536.114.083.047.162.12.245.12.86.031 1.734.151 2.578.037.594-.084 1.177-.162 1.776-.172.146-.005.297-.042.443-.068 1.229-.245 2.354-.875 3.635-.948.719-.042 1.438-.177 2.151-.266.443-.052.886-.078 1.323-.156.11-.021.26-.182.27-.286.006-.11-.114-.266-.223-.334a1.918 1.918 0 0 0-1.198-.307c-.104.005-.292-.13-.323-.229-.02-.094.094-.26.188-.349.073-.073.208-.104.323-.12.375-.057.765-.073 1.14-.156a.492.492 0 0 0 .302-.323c.016-.083-.172-.281-.281-.292-.266-.03-.536.037-.807.037-.23 0-.469-.016-.688-.078-.088-.021-.177-.188-.182-.297-.01-.094.073-.266.151-.287a7.22 7.22 0 0 1 1.01-.192c.266-.031.646-.297.678-.521.03-.245-.209-.568-.547-.578-.401-.01-.855-.016-1.193.156-.568.292-1.172.537-1.698.87-.62.39-1.307.593-1.948.906-.484.234-1.094.214-1.604.406-.646.25-1.344-.047-1.964.271-.026.016-.067.01-.104 0-.385-.083-.781-.135-1.146-.266-.526-.187-1.03-.432-1.546-.661-.344-.156-.725-.27-1.027-.495-.588-.437-1.02-1.01-1.349-1.677-.349-.724-.442-1.411.084-2.11.161.147.297.37.474.407.281.057.27.24.307.422.11.542.162 1.115.604 1.37 0 .203-.052.375.01.432.188.193.407.354.63.51.897.62 1.819 1.172 2.985 1.006.396-.058.802-.042 1.198-.12.474-.094.943-.234 1.401-.39.125-.048.281-.225.287-.35.02-.323-.021-.656-.058-.979-.052-.464-.088-.932-.192-1.385a6.917 6.917 0 0 0-.927-2.157c-.85-1.328-2.037-2.312-3.177-3.343a1.69 1.69 0 0 1-.553-.959c-.15-.713-.291-1.427-.5-2.125-.208-.713-.156-1.406.204-2.015.27-.453.661-.844 1.052-1.209.578-.536 1.062-1.099.885-1.958-.099-.474-.151-.99-.38-1.396-.276-.495-.656-.922-.542-1.531-.552-.162-1.12.016-1.614-.26-.183-.1-.38-.172-.542-.292-.188-.14-.35-.313-.51-.48-.183-.187-.308-.385-.198-.682.041-.12-.01-.307-.084-.432-.166-.291-.11-.541.13-.74.271-.239.641-.39.839-.671.276-.407.63-.344.99-.334.458.016.911.052 1.432.089Zm4.682 23.088c.49-.208 1.016-.432 1.542-.65.15-.063.323-.094.448-.183.484-.344.974-.562 1.588-.646.453-.057.901-.088 1.354-.094.235 0 .485.079.698.178.386.172.521.578.36.963-.172.401-.308.781-.01 1.214.28.411.13.812-.157 1.062.234.339.458.625.625.938.052.099-.031.276-.068.411-.02.063-.093.115-.109.177-.198.646-.651.745-1.276.771-1.12.042-2.234.208-3.349.328-.37.042-.74.094-1.172.151.031.688.073 1.36.094 2.026.016.537.026 1.073 0 1.604-.052 1.136.125 2.245.36 3.349.077.396.181.787.265 1.183.01.041.02.093.01.135-.24 1.094.703 1.521 1.51 1.38.792-.146 1.594-.323 2.407.032.547.234.937 1.067.766 1.63-.193.625-.365 1.26-.521 1.896-.047.192-.026.406-.01.609.03.359.135.724.098 1.078-.02.234-.192.5-.375.662-.177.156-.453.223-.698.291-.333.094-.671.162-1.01.229-.286.058-.573.125-.854.136-.307.015-.61-.037-.917-.063-.573-.047-1.146-.099-1.719-.146-1.26-.099-2.276-1.349-2.364-2.265-.1-1.115-.13-2.229-.224-3.344-.063-.755-.198-1.505-.255-2.26a19.106 19.106 0 0 1-.021-1.813 55.09 55.09 0 0 1 .14-2.469c.058-.698-.093-1.364-.255-2.036-.01-.042-.026-.089-.031-.135-.052-.464-.047-.412-.49-.375-.78.062-1.562.223-2.343-.037-.193-.062-.427-.01-.667-.01 0 .573.005 1.119 0 1.666-.005.136-.063.276-.063.412-.005 2.067-.005 4.135 0 6.208 0 .172.021.354.079.511.03.083.177.192.25.182.437-.068.864-.162 1.296-.245.23-.042.464-.115.693-.099.427.026 1.104.823 1.094 1.26-.005.235-.047.464-.083.771-.386.157-.26.651-.401 1.021-.1.271.192.349.359.469.135.094.36.151.406.276.078.224.089.484.068.729a1.94 1.94 0 0 1-.646 1.323c-.281.24-.682.365-1.052.474-.526.156-1.073.255-1.62.354-.13.021-.302-.135-.422-.099-.406.13-.791.198-1.24.13-.484-.073-.994.047-1.494.042-.682-.005-1.27-.328-1.552-.906-.297-.599-.443-1.292-.542-1.964-.14-.974-.198-1.968-.245-2.953-.026-.531.042-1.073.052-1.604.006-.198-.062-.396-.062-.594-.005-1.791.005-3.583-.005-5.38-.005-.745-.063-1.49-.063-2.234 0-.422.068-.844.11-1.308-.1-.047-.245-.093-.365-.177-.193-.135-.453-.224-.406-.557.015-.094-.057-.229-.13-.307-.141-.157-.287-.282-.146-.516.02-.042-.016-.146-.058-.187-.473-.526-.479-1.214-.64-1.844a14.526 14.526 0 0 1-.323-1.709c-.037-.26-.02-.536.036-.796.172-.766.302-1.558.584-2.287.265-.687.672-1.328 1.078-1.948.484-.74 1.073-1.411 1.547-2.156.36-.563.61-1.193.916-1.787.401-.791.375-1.593.052-2.395-.177-.438-.338-.886-.562-1.292-.14-.255-.427-.427-.573-.672-.156-.27-.474-.422-.51-.791-.016-.162-.23-.297-.344-.454-.188-.255-.39-.5-.542-.77-.234-.422-.437-.86-.656-1.287-.11-.219-.255-.417-.333-.64-.13-.37-.339-.73-.24-1.152a.268.268 0 0 0-.031-.166c-.39-.745-.485-1.563-.578-2.38-.021-.146.104-.302.109-.459.01-.666.02-1.333-.005-2a.66.66 0 0 0-.266-.448c-.448-.26-.578-.729-.807-1.12-.427-.734-.818-1.51-.75-2.38.036-.49.266-.958.385-1.437.058-.214.063-.438.094-.693.083.078.14.125.14.125 0-.458-.067-.964.016-1.437.146-.776.026-1.63.558-2.308.265-.338.541-.672.859-.953.203-.187.5-.265.75-.4.474-.267.938-.553 1.422-.803 1.15-.599 2.323-1.172 3.583-1.458.85-.198 1.714-.172 2.505.343.313.204.73.245 1.042.448.318.209.61.495.823.808a1.99 1.99 0 0 1 .297 1.65c-.052.23.156.506.182.766.115.964.193 1.927.297 2.896a4.14 4.14 0 0 0 .62 1.771c.15.24.281.448.187.776-.052.177.14.406.177.625.042.234.073.484.042.719-.068.526-.583.458-.917.646-.432.25-.932.244-1.395.385-.224.068-.308.198-.282.406.037.386.089.766.14 1.146.069.557.084 1.125.225 1.662.193.75-.1 1.38-.339 2.036-.026.078-.093.151-.093.224-.006.688-.078 1.365.375 2 .307.427.541.958.65 1.474.079.37-.098.797-.176 1.193-.032.156-.146.312-.13.463.046.459-.24.73-.511 1.016-.307.328-.615.656-.938.974-.099.104-.323.15-.349.255-.104.412-.203.838-.192 1.26.005.506.104 1.021.198 1.521.114.589.224 1.203.672 1.646.364.36.78.661 1.156 1.01.208.198.375.433.562.651.422.49.886.954 1.255 1.475.646.916 1.209 1.89 1.433 3 .156.802.224 1.62.333 2.447Z" fill="#1A3151"/><path d="M86.194 93.188c0 .4.125.526.52.526.532.005.693-.115.688-.51 0-.365-.297-.631-.693-.626-.323.005-.515.234-.515.61Zm6.395-17.334c.13-1.114-.296-2.11-.567-3.125-.026-.11-.245-.245-.355-.229-.104.016-.26.214-.255.323.021.323.11.64.177.953.12.568.287 1.125.37 1.698.104.745-.078 1.458-.385 2.146-.089.198-.089.448.166.541.266.1.412-.093.5-.317.26-.646.459-1.302.35-1.99ZM89.24 64.766c.073-.13.12-.297.224-.36.62-.37 1.23-.77 1.974-.833.047-.005.089-.068.136-.104-.037-.037-.068-.1-.104-.11-.407-.067-.813-.057-1.177.151a135.11 135.11 0 0 0-2.85 1.693c-.083.052-.177.234-.15.318.067.203.166.427.322.562.355.302.74.568 1.125.829.292.203.657.333.896.588.214.23.453.38.719.401.615.047 1.25.094 1.854 0 .448-.068.86-.354 1.281-.552.448-.214.662-.589.625-1.063-.02-.291-.12-.583-.229-.854-.172-.427-.338-.864-.583-1.245-.344-.53-.958-.593-1.526-.75.026.063.026.136.062.162.365.26.745.495 1.094.77.125.1.193.277.302.438-.656-.166-1.224-.323-1.797-.453-.593-.135-1.125.14-1.672.365.053.099.209.245.188.354-.094.453.073.865.151 1.292.036.182-.036.302-.26.244a16.418 16.418 0 0 0-.844-.192c-.334-.063-.75-.495-.735-.834.016-.406.407-.338.657-.448.062-.026.15.01.208-.015.198-.084.39-.188.583-.281a.966.966 0 0 0-.052-.13c-.135.015-.276.036-.422.057Zm.526 17.62c.584 0 1.151.015 1.72-.016.114-.005.327-.193.312-.266-.042-.26-.282-.219-.485-.213-.354.005-.718.03-1.073-.01-.557-.063-1-.381-1.322-.813-.308-.417-.303-.948-.198-1.427.156-.714.354-1.438.64-2.11.115-.265.313-.62.771-.65.594-.048 1.162-.756 1.193-1.397.01-.224.026-.458-.005-.677-.068-.416-.12-.838-.625-1.015-.459-.157-.891-.386-1.344-.542-.156-.057-.354.016-.589.031-.015-.088-.073-.229-.067-.364.01-.558.088-1.115.046-1.667-.03-.375-.203-.755-.375-1.099-.052-.104-.338-.177-.484-.14-.365.088-.708.317-1.073.359-.328.031-.672-.104-1.005-.188-.031-.005-.052-.135-.042-.198.12-.53.266-1.057.36-1.593.062-.355.062-.724.067-1.089.006-.417-.02-.838-.02-1.26 0-.38.02-.76.02-1.14.006-.819.224-1.584.516-2.34.042-.114.188-.208.307-.265a2.55 2.55 0 0 0 .828-.651c.282-.328.75-.521 1.162-.714a4.018 4.018 0 0 1 1.114-.349c.355-.041.74-.005 1.089.084.48.114.927.338 1.406.463.818.214 1.412.693 1.85 1.396.395.63.864 1.224 1.192 1.886.307.62.578 1.27.594 1.984.005.187.052.37.067.557.078.776-.156 1.5-.307 2.25-.125.615-.312 1.203-.693 1.688-.49.625-1.062 1.187-1.557 1.807-.255.312-.599.583-.526 1.104.052.375.27.464.547.516.375.073.76.125 1.146.146.229.01.463-.047.692-.073.162-.016.323-.052.485-.063.255-.016.364.12.36.37-.011.51-.006 1.005-.235 1.505-.151.318-.068.74-.125 1.104-.125.75-.281 1.495-.906 2.021-.204.172-.448.292-.662.459-.599.479-.911 1.16-1.25 1.822-.333.651-.469 1.35-.463 2.084.01 1.083.349 2.02 1.01 2.906.52.703 1.297 1.078 1.833 1.724.474.568.964 1.12 1.407 1.708.15.203.177.495.27.74.157.411.339.812.474 1.229.271.865.323 1.714-.026 2.599-.255.64-.552 1.245-1.01 1.73-.48.5-1.063.9-1.604 1.343-.037.031-.1.036-.12.073-.255.526-.776.74-1.23 1.031a6.796 6.796 0 0 1-3.26 1.078c-.713.052-1.427.146-2.14.203-.146.011-.302-.078-.448-.057-.459.052-.917.141-1.375.214-.297.046-.6.114-.896.13-.547.021-1.099-.005-1.646.005-.281.005-.562.083-.838.057-.308-.026-.605-.14-.907-.198-.567-.114-1.15-.182-1.614-.63.166-.318.344-.463.786-.4.537.072 1.13.155 1.656-.126.115-.062.256-.23.245-.338-.005-.105-.182-.235-.307-.282-.214-.083-.443-.11-.667-.156-.062-.01-.135-.026-.187 0-.432.177-.865.063-1.292-.005-.12-.021-.276-.156-.307-.266-.031-.11.052-.276.135-.38.302-.375.688-.182 1.047-.115.162.032.318.079.474.089.281.02.573-.224.625-.52.047-.287-.052-.464-.349-.6-.37-.166-.797-.286-.984-.713-.042-.094-.073-.188-.115-.297.542-.125.995.031 1.459.203.661.245 1.338.448 2.005.682.224.078.442.177.724.292a.22.22 0 0 1 .13-.073c.474-.005.948.005 1.427 0 .406 0 .813-.01 1.219-.016.156 0 .312.01.468 0a2.65 2.65 0 0 0 .412-.057c.125-.02.25-.047.37-.078a7.22 7.22 0 0 0 .656-.182 53.82 53.82 0 0 0 1.76-.605c.198-.078.407-.171.563-.312.245-.214.453-.469.677-.708.115-.12.208-.276.349-.355.52-.28.63-.812.76-1.302.094-.333.01-.708.026-1.067.016-.245-.135-.339-.312-.308a.587.587 0 0 0-.375.25c-.13.214-.188.474-.297.704-.13.265-.25.557-.443.77-.38.412-.791.797-1.224 1.151-.177.146-.442.183-.672.276-.692.282-1.385.568-2.15.636-.355.031-.693.198-1.047.24-.204.025-.433-.047-.636-.115-.75-.255-1.531-.5-1.953-1.245-.172-.302-.26-.672-.292-1.02-.083-.86.01-1.673.594-2.391.37-.454.61-1.021.98-1.48.312-.39.713-.718 1.093-1.052.724-.625 1.469-1.229 2.188-1.86a1 1 0 0 0 .27-.473c.38-1.27.287-2.516-.422-3.589Zm-4.864 28.958c.042-.136.11-.271.13-.412.042-.312.094-.63.083-.942-.015-.417-.109-.834-.14-1.25-.037-.516-.042-1.037-.073-1.558-.02-.307-.078-.609-.094-.916-.016-.313 0-.631 0-.943.005-.073.026-.141.026-.214.026-.786.047-1.583.078-2.369.01-.256.052-.516.078-.771.037-.36.256-.537.589-.547.646-.016 1.292-.005 1.948-.005.078 1.026.172 2.015.23 3.01.046.75.082 1.511.072 2.261-.036 2.26-.083 4.52-.14 6.781a22.752 22.752 0 0 1-.146 1.969c-.084.708-.433 1.135-1.277 1.312-1.114.234-2.24.099-3.354.13a4.016 4.016 0 0 1-.911-.073c-.526-.093-.735-.562-.495-1.041.25-.5.651-.636 1.193-.578.396.041.817-.073 1.224-.141.057-.011.135-.172.12-.245-.037-.141-.105-.307-.214-.396-.094-.078-.266-.078-.401-.083-.474-.031-.943-.031-1.412-.089-.114-.015-.27-.203-.291-.328-.016-.083.177-.281.291-.286.448-.037.901-.011 1.355-.021.265-.005.526-.344.38-.495a1.051 1.051 0 0 0-.547-.271c-.417-.057-.844-.036-1.266-.088-.302-.037-.515-.349-.422-.61.089-.229.162-.442.558-.411.755.057 1.515-.005 2.276-.057.213-.016.416-.167.625-.256a.888.888 0 0 0-.073-.067Zm11.557-12.922c0 .38-.01.698 0 1.016l.14 4.359c.027.672.058 1.344.074 2.016.026 1.145.047 2.291.073 3.442.02.823.041 1.651.067 2.479.021.552.089 1.11.063 1.662-.031.734-.078 1.474-.219 2.193-.146.744-.531 1.151-1.328 1.093a14.705 14.705 0 0 0-1.854-.005c-.464.026-.922.12-1.386.182-.265.037-.536.11-.796.084-.183-.016-.443-.125-.51-.271a.517.517 0 0 1 .207-.682 4.19 4.19 0 0 1 .875-.381c.209-.067.448-.031.662-.088.11-.031.193-.162.292-.245-.1-.083-.188-.208-.303-.234-.302-.073-.62-.094-.927-.157-.12-.02-.265-.062-.343-.151-.141-.156-.235-.354-.35-.536.167-.078.329-.193.5-.229.329-.073.667-.104 1-.151.25-.032.298-.198.282-.407-.016-.223-.146-.322-.349-.302-.52.052-.995-.083-1.443-.328-.27-.151-.307-.422-.036-.567.224-.125.49-.214.745-.24a13.533 13.533 0 0 1 1.583-.073c.536 0 .792-.417.896-.766.234-.744.364-1.536.442-2.317.068-.683.047-1.38.006-2.063-.063-1.078-.177-2.151-.271-3.224-.052-.593-.094-1.192-.146-1.786-.047-.5-.089-1.005-.146-1.5-.026-.229.089-.328.271-.39.651-.22 1.172-.652 1.693-1.074.15-.125.323-.219.536-.36Z" fill="#D7C3B1"/><path d="M96.834 71.042c.745-.204.87-1.865.422-2.808-.057.136-.1.276-.073.407.073.385.193.75.02 1.15-.16.391-.244.813-.369 1.25Zm-.61-7.792c.1.198.235.385.292.589.094.333.23.609.594.703.031.005.052.078.057.125.094.51.271.968.63 1.364.146.162.25.474.204.677-.167.714.046 1.427-.052 2.125-.11.787.036 1.605-.282 2.36-.088.219-.245.411-.349.63-.203.422-.427.823-.786 1.13-.167.146-.36.266-.589.432.151-.729.917-1.172.782-1.953l-.13-.125c-.021.084-.027.172-.063.24-.287.557-.557 1.12-.88 1.65-.063.105-.339.12-.51.11-.162-.015-.324-.114-.563-.208.229-.323.406-.672.672-.927.5-.484.87-1.042 1.057-1.693.208-.745.333-1.51.51-2.266.037-.15.13-.286.224-.473.073.145.12.244.167.338.14-.203.083-.885-.11-1.625-.14-.531-.208-1.088-.374-1.615-.167-.515-.417-1.01-.63-1.515.046-.026.088-.047.13-.073Zm-1.843-2.5c.479.083.911.188 1.281.484.27.214.568.401.833.62.693.584 1.323 1.23 1.792 2.01.292.49.51 1.011.469 1.615-.016.23.13.464.177.698.026.11-.01.234-.02.354l-.105.01c-.016-.083-.047-.171-.047-.254.005-.308-.24-.657-.505-.808a.975.975 0 0 1-.365-.39c-.26-.49-.437-1.026-.74-1.48-.307-.463-.728-.843-1.093-1.265-.318-.365-.615-.75-.953-1.094-.193-.198-.459-.323-.724-.5Z" fill="#A63939"/><path d="M96.662 73.281c.042-.463.401-.703.74-.864.583-.276.677-.782.76-1.302.104-.646.214-1.287.25-1.938.042-.75.01-1.51 0-2.266 0-.182-.02-.364-.036-.546.036-.016.078-.026.114-.042.177.333.485.656.51 1 .058.807-.02 1.625-.041 2.443 0 .104.02.213.026.224-.094.244-.172.427-.24.614-.208.604-.411 1.214-.625 1.818-.02.062-.062.125-.088.187-.224.605-.688.839-1.37.672Zm3.807-5.161c.131.255.308.495.386.765.114.396.166.813.234 1.22.052.322.11.645.115.968a1.75 1.75 0 0 1-.125.667 6.904 6.904 0 0 1-.459 1.005c-.046.088-.213.104-.322.15-.032-.119-.11-.254-.084-.358.219-.818.375-1.641.302-2.49-.041-.573-.093-1.14-.14-1.714 0-.057.01-.114.01-.177.026-.01.057-.02.083-.036Zm-.666.906c.052.14.13.276.14.417.052.495-.005.979-.12 1.469-.12.5-.14 1.015-.234 1.52-.073.396-.453.698-.817.651-.084-.01-.225-.224-.198-.302.15-.463.359-.906.51-1.375.208-.65.38-1.307.563-1.963.03-.125.025-.255.041-.38.037-.01.078-.026.115-.037Zm-10.375 4.672c.37.094.745.161 1.099.292.11.036.213.25.208.375-.005.088-.198.224-.313.234-.187.02-.385-.052-.583-.083-.213-.037-.427-.1-.646-.11-.234-.01-.437-.026-.437-.328.005-.307.208-.333.443-.323.067.005.14 0 .213 0a.841.841 0 0 0 .016-.057Zm.156 2.437c-.198-.083-.417-.14-.589-.26-.187-.135-.114-.495.11-.536.375-.073.755-.11 1.135-.151.203-.026.35.052.37.27.02.209-.073.318-.276.375-.255.079-.49.198-.75.302Zm11.536-3.328c.063-.307.11-.515.151-.718l.12-.006c.016.204.042.407.037.61 0 .026-.141.057-.308.114Z" fill="#A63939"/><path d="M64.713 79.64c-.068-.187-.094-.296-.151-.385-.198-.312-.432-.604-.604-.932a7.92 7.92 0 0 1-.87-2.625c-.12-.849-.188-1.693.427-2.401.292-.333.224-.667.063-1.14-.162.244-.334.416-.396.62-.209.645-.594 1.233-.604 1.942-.01.568-.11 1.13-.11 1.693 0 .265.104.552.224.796.177.37.39.73.625 1.068.297.427.63.833.969 1.234.063.073.224.073.427.13Zm3.651-13.182c-.078-.03-.177-.046-.219-.099-.463-.64-1.218-.822-1.854-1.192-.083-.047-.208-.016-.312-.016-.386.016-.782.083-1.167.037-.573-.063-1.078.14-1.526.406-.37.224-.656.594-.958.922-.35.385-.297.812.109 1.13.177.14.365.276.505.443.235.27.532.354.865.395.067.006.156-.005.208.032.693.474 1.417.385 2.13.073.329-.141.625-.365.933-.563.286-.187.578-.38.859-.578.063-.042.151-.146.135-.188-.135-.349.214-.505.292-.802Zm-.474 7.464c-.52-.037-.974-.073-1.432-.089-.36-.01-.714-.067-.99.334-.198.281-.568.437-.844.672-.234.198-.291.442-.124.74.072.124.124.312.083.431-.11.297.016.495.198.683.161.166.323.338.51.474.162.125.36.198.542.297.495.276 1.062.099 1.614.26-.114.61.266 1.036.542 1.531.23.412.281.922.38 1.396.177.86-.307 1.422-.885 1.958-.39.36-.781.756-1.052 1.209-.36.614-.412 1.302-.203 2.015.208.698.349 1.412.5 2.125.083.38.24.672.552.959 1.14 1.031 2.328 2.015 3.177 3.343a6.97 6.97 0 0 1 .927 2.157c.104.453.14.922.193 1.385.036.323.078.656.057.98-.005.124-.162.307-.287.348-.458.157-.927.297-1.4.39-.396.079-.803.069-1.198.12-1.167.167-2.089-.385-2.985-1.005a3.98 3.98 0 0 1-.63-.51c-.063-.063-.01-.23-.01-.432-.443-.255-.495-.828-.605-1.37-.036-.188-.026-.365-.307-.422-.177-.036-.312-.266-.474-.406-.526.703-.432 1.385-.083 2.11.328.666.76 1.239 1.349 1.676.302.224.682.339 1.026.495.515.23 1.02.474 1.547.662.364.13.765.182 1.145.265.037.01.079.016.105 0 .62-.318 1.317-.02 1.963-.266.51-.197 1.12-.177 1.604-.416.641-.307 1.329-.51 1.948-.901.521-.334 1.13-.578 1.698-.87.339-.177.792-.167 1.193-.156.338.01.578.333.547.578-.032.224-.412.49-.677.52a6.536 6.536 0 0 0-1.01.199c-.079.015-.162.187-.152.28.01.11.094.272.183.298.218.062.458.078.687.078.27 0 .542-.068.807-.037.11.01.297.209.281.292a.487.487 0 0 1-.307.323c-.37.083-.76.099-1.14.156-.11.016-.245.047-.318.12-.094.094-.208.255-.182.344.026.104.208.24.317.234.443-.031.839.073 1.198.302.11.073.23.229.224.339-.01.104-.161.265-.27.286-.438.078-.88.104-1.323.157-.714.088-1.433.223-2.152.265-1.28.073-2.406.703-3.635.948-.146.026-.297.063-.443.068-.599.01-1.182.088-1.776.172-.844.114-1.719-.006-2.578-.032-.083-.005-.161-.083-.245-.125-.166-.093-.333-.104-.536-.119-.516-.026-1.057.099-1.557-.172-.506-.271-1.078-.433-1.542-.755-.802-.558-1.557-1.188-1.682-2.282-.115-.958-.35-1.906-.407-2.864-.062-1.047.162-2.068.756-2.969.302-.458.656-.88.968-1.333.12-.167.157-.396.282-.552.291-.37.593-.74.932-1.073.552-.552.823-1.22.979-1.964.057-.292.219-.557.307-.838.141-.422.24-.844.115-1.303-.13-.494-.177-1.01-.297-1.505a3.169 3.169 0 0 0-.328-.76c-.354-.625-.636-1.323-1.12-1.834-.557-.583-.823-1.349-1.385-1.916-.25-.255-.35-.662-.506-1.005-.354-.776-.635-1.573-.74-2.417-.056-.48-.025-.974-.056-1.458-.026-.292-.151-.589-.146-.875.015-.433.11-.865.182-1.292.01-.042.136-.089.208-.094.594-.067.927-.427 1.203-.932.365-.682.157-1.339.063-2.026-.114-.776-.297-1.542-.182-2.36.057-.442.182-.87.297-1.28.088-.344.375-.71.671-.902.532-.338 1.084-.646 1.776-.65.683-.006 1.365-.167 2.047-.256.22-.026.448-.02.667-.047.583-.073 1.161-.172 1.745-.23.27-.02.604-.16.77.199.058.13.016.307.048.458.13.693.296 1.38.4 2.078.042.292.13.542.25.808.198.458.277.963.422 1.442.068.214.193.401.271.615.063.161.037.276-.15.385-.5.297-1.042.417-1.6.474-.354.042-.588.224-.692.516a2.295 2.295 0 0 0-.11.9c.068.73.188 1.454.297 2.25Zm.787 42.073c-.23.578-1.094 1.083-1.657 1.036-.24-.021-.479-.005-.718-.005-.36 0-.72-.005-1.073.005-.438.011-.87.047-1.308.068-.635.031-1.062-.354-1.458-.766-.375-.38-.39-.895-.432-1.385a142.84 142.84 0 0 1-.282-3.646c-.02-.338.037-.682.047-1.026.01-.297.016-.594.016-.891 0-1.052-.01-2.099 0-3.145.01-.579.063-1.157.068-1.735 0-.406-.063-.807-.063-1.213-.005-.334.042-.672.068-1.058.385.177.708.365 1.057.474.354.11.735.136 1.104.203.256.047.526.068.771.157.12.041.188.218.276.333.01.016 0 .047 0 .073.026 2.437.052 4.88.068 7.323.005.542.146 1.057.463 1.474.167.213.526.354.818.39.412.047.844-.036 1.266-.052.208-.01.448-.052.516.235.067.302-.152.401-.37.453a1.446 1.446 0 0 1-.495.021c-.36-.052-.662.067-.959.234-.197.115-.14.261-.088.417.052.166.14.224.338.187.287-.047.59-.067.875-.036.1.01.256.187.261.291a.543.543 0 0 1-.208.391c-.11.078-.287.068-.438.089-.229.026-.594.349-.61.573-.005.062.058.145.11.203.375.38.823.359 1.307.265.224-.041.474.037.73.063Zm3.76-14.13v.453c0 1.198-.037 2.401.01 3.599.042 1.099.162 2.198.271 3.291.078.745.188 1.485.287 2.224.067.485.229.891.812.969.157.021.302.151.459.224a.36.36 0 0 0 .192.036c.568-.135 1.13-.27 1.698-.411.224-.057.443-.146.667-.167.219-.026.74.443.719.641-.027.286-.277.354-.51.38-.376.037-.756.026-1.126.089-.15.021-.36.161-.39.281-.032.146.073.344.166.49.276.453.724.244 1.11.276.098.005.255.02.28.078.032.073 0 .245-.067.286-.208.141-.432.281-.672.349-.338.089-.698.078-1.031.167-.104.026-.219.224-.219.344 0 .182.042.458.167.531.354.203.74.323 1.172.114.25-.119.547-.13.88-.198-.25.631-.719.766-1.224.829-.453.057-.917.13-1.37.135-.854 0-1.708-.005-2.557-.078-.677-.057-.98-.594-1.219-1.167-.265-.635-.354-1.297-.364-1.984-.016-.802.03-1.615-.089-2.406-.193-1.297-.099-2.594-.115-3.891a6 6 0 0 1 .146-1.464c.22-.937.094-1.885.125-2.822.021-.631.005-.631.625-.818.375-.115.745-.245 1.167-.38Z" fill="#D7C3B1"/><path d="M66.38 74.682c.485.052.917.084 1.344.162.088.015.203.203.203.307 0 .104-.125.297-.213.302-.672.063-1.355.1-2.032.104-.099.005-.255-.187-.297-.317-.083-.256.105-.407.318-.464.234-.062.484-.073.677-.094Zm.438 2.172c-.406-.057-.813-.099-1.209-.187-.093-.021-.224-.203-.213-.297.01-.115.13-.287.234-.318.203-.047.427-.026.636-.01.349.036.698.067 1.036.15.115.032.266.214.266.318-.005.11-.167.256-.292.302-.13.053-.302.01-.453.01l-.005.032Z" fill="#A63939"/><path d="M89.468 66.708c.057.302.713.985.911.985.771.015 1.558.078 2.297-.219.172-.068.307-.214.464-.323-.115-.114-.203-.161-.282-.151-.255.047-.5.13-.755.162-.599.067-1.187.072-1.755-.23-.25-.13-.557-.145-.88-.224Zm.854-1.828c0 .209.016.417 0 .625-.052.558.26.917.651 1.23.083.067.23.078.344.072.364-.015.333-.349.453-.573.198-.37.161-.744.047-1.125-.026-.088-.12-.24-.172-.234-.448.037-.896-.344-1.323.005Zm1.625 2.094c.552.083 1.057-.135 1.531-.417.13-.073.255-.28.25-.427-.005-.463-.661-1.093-1.125-1.14-.458-.047-.505 0-.427.458a.66.66 0 0 1 0 .172c-.073.442-.146.885-.229 1.354Zm-2.708-2.208c.145-.021.286-.042.421-.058.021.042.037.089.053.13-.193.094-.386.193-.584.282-.057.026-.146-.005-.208.015-.25.11-.64.042-.656.448-.016.339.406.771.734.834.281.057.563.12.844.192.224.058.297-.062.26-.244-.078-.427-.245-.839-.15-1.292.02-.11-.136-.255-.188-.354.546-.224 1.078-.495 1.671-.365.573.125 1.136.287 1.797.453-.109-.161-.177-.338-.302-.437-.349-.271-.729-.51-1.093-.771-.037-.026-.037-.099-.063-.161.568.156 1.182.218 1.526.75.245.38.412.817.584 1.244.109.271.208.563.229.855.036.473-.178.848-.625 1.062-.422.198-.834.484-1.282.557-.604.089-1.24.042-1.854-.005-.265-.02-.505-.172-.718-.401-.235-.255-.605-.385-.896-.588a12.52 12.52 0 0 1-1.125-.829c-.157-.135-.256-.359-.323-.562-.026-.084.067-.266.156-.323.938-.573 1.89-1.13 2.844-1.688.364-.208.77-.218 1.177-.15.036.005.067.072.104.114-.047.031-.089.094-.136.099-.744.062-1.354.464-1.973.833-.105.063-.151.23-.224.36Zm3.349 11.088c.109.688-.089 1.344-.35 1.99-.093.224-.234.416-.5.318-.255-.094-.255-.344-.166-.542.307-.688.49-1.401.385-2.146-.083-.573-.25-1.13-.37-1.698-.067-.312-.156-.63-.177-.953-.005-.11.157-.307.26-.323.11-.016.324.12.35.23.27 1.02.693 2.01.568 3.124Zm-6.396 17.334c0-.376.193-.605.515-.61.396-.005.693.26.693.625.005.396-.156.516-.687.51-.396 0-.521-.124-.521-.525Zm10.64-22.146c.125-.438.209-.86.37-1.25.172-.401.052-.766-.02-1.151-.027-.13.015-.271.072-.407.448.943.323 2.605-.422 2.808Zm-32.515-2.808v.115c.661.406 1.312-.01 1.958-.115.198-.03.48-.161.49-.474-.829.162-1.64.318-2.448.474Zm1.864-2.541c.12.567.224 1.067.339 1.604.4-.208.812-.417 1.229-.63-.458-.61-1.375-1.105-1.568-.974Zm-1.588.052c-.313.094-.698.146-1.01.328-.162.094-.22.411-.256.64-.01.068.188.225.302.245.401.068.807.094 1.26.141-.098-.464-.187-.854-.296-1.354Zm3.77.719c-.078.291-.427.448-.291.796.016.042-.073.146-.136.188-.28.198-.572.39-.864.578-.302.193-.599.422-.927.563-.714.312-1.438.4-2.135-.073-.053-.037-.136-.026-.204-.032-.333-.041-.63-.125-.864-.395-.146-.167-.328-.302-.5-.443-.412-.318-.469-.745-.115-1.13.302-.329.589-.698.959-.922.447-.266.953-.469 1.525-.401.386.041.782-.026 1.167-.042.104-.005.23-.031.313.016.635.37 1.39.552 1.854 1.192.036.058.14.068.219.105Zm-3.65 13.177c-.203-.058-.365-.058-.427-.13a16.785 16.785 0 0 1-.97-1.235 7.826 7.826 0 0 1-.624-1.068c-.12-.244-.224-.53-.224-.796 0-.563.099-1.126.11-1.693.01-.709.395-1.297.603-1.943.063-.203.235-.375.396-.62.162.474.23.808-.062 1.14-.615.71-.547 1.553-.427 2.402.135.927.427 1.802.87 2.625.171.328.406.62.603.932.058.089.084.198.152.386Z" fill="#1A3151"/><path d="M91.947 66.974c.083-.469.156-.912.23-1.354a.478.478 0 0 0-.006-.172c-.068-.458-.026-.505.432-.458.464.047 1.12.677 1.125 1.14.006.146-.12.354-.25.427-.474.282-.979.5-1.53.417Zm-.333-1.531c-.037-.042-.1-.177-.198-.224-.14-.063-.615.338-.573.51a.642.642 0 0 0 .323.386c.193.088.4-.209.448-.672Zm-1.292-.563c.427-.349.875.032 1.323-.005.052-.005.146.146.172.234.115.38.15.756-.047 1.125-.12.224-.088.558-.453.579-.115.005-.26-.01-.344-.079-.39-.307-.703-.671-.65-1.229.015-.208 0-.416 0-.625Z" fill="#D7C3B1"/><path d="M89.47 66.708c.322.079.63.094.88.224.567.302 1.156.297 1.755.23.255-.032.5-.115.755-.162.078-.01.166.037.281.151-.156.11-.292.255-.464.323-.74.297-1.526.234-2.296.219-.198 0-.855-.683-.912-.985Zm-24.876-.963c.11.5.198.89.297 1.354-.453-.047-.86-.073-1.26-.14-.115-.022-.313-.178-.303-.245.037-.23.094-.547.256-.641.312-.182.698-.234 1.01-.328Zm1.589-.052c.192-.13 1.11.364 1.567.969-.416.218-.828.427-1.229.635l-.338-1.604Zm-1.865 2.541c.807-.156 1.62-.312 2.448-.474-.01.313-.292.443-.49.474-.645.105-1.296.521-1.958.115v-.115Z" fill="#D7C3B1"/><path d="M91.615 65.443c-.047.463-.255.76-.448.672a.642.642 0 0 1-.323-.386c-.041-.172.433-.573.573-.51.1.047.162.182.198.224Z" fill="#1A3151"/></g><defs><clipPath id="Group 3__a"><path fill="white" d="M0 0h143v147H0z"/></clipPath></defs></svg>