<?xml version="1.0" encoding="UTF-8"?>
<svg id="Layer_1" data-name="Layer 1" xmlns="http://www.w3.org/2000/svg" viewBox="0 0 136.06 136.06">
  <defs>
    <style>
      .cls-1 {
        fill: #a7483f;
      }

      .cls-2 {
        fill: #0c3454;
      }
    </style>
  </defs>
  <path class="cls-2" d="m72.45,27.16c1.62.83,1.85,2.58,1.75,4.23-.35,1.83-.65,4.73-2.92,5-2.39-.17-.83-2.54-.29-3.79.6-1.56-.15-3.02-1.88-2.06-2.52,2.79-2.4,6.94-2.94,10.5-.94,5.23-.31,11.37.48,16.54-.06,4.37.75,8.91.63,13.37h-.02c.13.31-.1.77.08.98-.02,6.42-.71,12.79-.96,19.21-.46,4.29.67,9.14-.5,13.14l-.12.29c-.25.02-.5.06-.69.08-2.44-1.38-.35-7.64-.77-10.27.27-3.35-.15-6.75,0-10.08-.44-5.92-.1-11.83.29-17.75-.63-7.02-1-14.08-1.21-21.1-.04-.4-.1-.81-.13-1.23,0-.21.06-.46.06-.69,0-.29-.04-.6-.06-.9,0-.08.04-.15.04-.23.04-.21.08-.42.1-.63.06-.4.1-.81.13-1.21.38-3.52,1.17-7,2.35-10.35.81-3.33,3.75-4.33,6.6-3.04Zm.83,4.02c.33-.12.25-.75-.06-.9.4-.44-.12-.52-.5-.48-.08-.31.42-.29.29-.52-.1-.19-.31-.06-.48-.1-.13-.04-.13-.27-.17-.4-.1-.25-.42.06-.62.08l-.02-.02c.21-.25.83-.38,1.15-.29-.04-.15-.06-.27-.06-.38-.19.04-.37.08-.54.12-.02-.02-.02-.04-.04-.04.48-.94-.42-.08-.77-.19,1.44-1.25-2.4-1.42-3-.67-1.08.54-1.58,1.94-1.98,3.04-.12.35-.35.67.1.85-.15.04-.35-.15-.42.04-.12.4-.29.71.13.96,0,.02-.02.02-.04.04-.52-.35-.65.46-.6.83.13.17.56.17.48.42-.06-.04-.12-.08-.15-.1-.12.04-.19-.02-.27-.1-.31-.25-.31.37-.37.56-.08.38.37.25.19.75-.19-.35-.44-.27-.4.1.02.33.71-.12.81.35-.13.1-.27.13-.42.12-.21-.33-.62-.12-.48.31.23.19.58.06.77.31-.08.06-.13.15-.23.19-.06-.25-.31-.19-.44-.31-.31.35-.29.85.25.79.02.08.06.17.08.25-.69-.27-.77.17-.69.75.08.08.44.02.38.25-.71-.21-.67,1-.46,1.02.29.1.02.35-.17.35-.23,2.5-.02,5.19-.21,7.81-.33,3.92-.54,7.87.1,11.77-.02.02-.06.04-.06.04.38,2.21.77,4.42.73,6.71.56-.06.6.46,0,.42.08.12-.08.48.15.44q.08.38-.1.42c0,.21,0,.44.02.65.29.04.58.12.33.44-.46-.23-.5.79.19.44.1.1.19.21.31.35-.38.19-.35.02-.67.15-.27,0-.02.56,0,.75.35-.08,1.25.19.54.44-.87-.17-.58.52.12.37.06.1.1.17.15.25-.19.19-.5.12-.73.19.04.17.12.33.13.52.71-.1.81.65.02.35,0,.17,0,.33.02.5.17.17.54-.13.6.1.12.38-.35.27-.58.33-.06.33-.21,1,.31.83-.02.19-.02.37-.04.56-.15-.25-.38-.13-.37.12.25.37,1.13.13,1.29.83-.46-.12-.87-.23-1.29-.33-.04.21-.17.81.08.87.21-.02.85.04.69.33-.19.19-.35.12-.56.02-.48-.1-.29.42-.35.73.15.31.75-.17.77.46-.25.17-.37-.02-.62,0-.27-.08-.19,1.02-.13,1.17.58,0,.5.71-.04.4.06.29-.13.77.21.88.35.15-.04.48-.27.46-.92,4.67-.4,9.31-.58,14.04.08,3.08-.5,6.27-.1,9.37.81,1.58,1.56-.54,1.42-1.44-.06-8.08.02-16.14.77-24.18.08-.92.12-1.87.13-2.79.13-5.19-.56-10.35-.6-15.56-.69-6.46-1.58-13.1-.67-19.62.46-2.73.75-5.85,2.08-8.33.38-.75.87-1.44,1.48-2.04.56-.23,1.08-.15,1.48.08.5.29.87.85,1.04,1.48.25,1.08-.48,2.23-.85,3.21-.17.44-.37.94.12,1.25.27.1.75.42.98.13-.35-.13-.6-.37-.75-.69.37-.35.42.52.88.4.73-.33-.83-.6-.38-1.04.21.27.44.5.77.52.44-.62-.17-.56-.44-.88.25-.1.46.23.73.17-.04-.08-.04-.21-.15-.19-.21,0-.52-.33-.46-.5.23.06.56.33.83.27.21-.12.38-.6.13-.71.62-.46.1-.71-.46-.75.21-.21.71.13.75-.23.04-.27-.1-.56-.4-.56.02-.15.17-.1.25-.13Z"/>
  <path class="cls-1" d="m73.22,30.28c.31.15.38.79.06.9-.08.04-.23-.02-.25.13.31,0,.44.29.4.56-.04.37-.54.02-.75.23.56.04,1.08.29.46.75.25.12.08.6-.13.71-.27.06-.6-.21-.83-.27-.06.17.25.5.46.5.12-.02.12.12.15.19-.27.06-.48-.27-.73-.17.27.33.88.27.44.88-.33-.02-.56-.25-.77-.52-.44.44,1.12.71.38,1.04-.46.12-.52-.75-.88-.4.15.33.4.56.75.69-.23.29-.71-.04-.98-.13-.48-.31-.29-.81-.12-1.25.37-.98,1.1-2.13.85-3.21-.17-.63-.54-1.19-1.04-1.48-.4-.23-.92-.31-1.48-.08-.62.6-1.1,1.29-1.48,2.04-1.33,2.48-1.62,5.6-2.08,8.33-.9,6.52-.02,13.16.67,19.62.04,5.21.73,10.37.6,15.56h-.15c-.15-.69-1.04-.46-1.29-.83-.02-.25.21-.37.37-.12.02-.19.02-.37.04-.56-.52.17-.37-.5-.31-.83.23-.06.69.06.58-.33-.06-.23-.42.08-.6-.1-.02-.17-.02-.33-.02-.5.79.31.69-.44-.02-.35-.02-.19-.1-.35-.13-.52.23-.08.54,0,.73-.19-.06-.08-.1-.15-.15-.25-.69.15-.98-.54-.12-.37.71-.25-.19-.52-.54-.44-.02-.19-.27-.75,0-.75.33-.13.29.04.67-.15-.12-.13-.21-.25-.31-.35-.69.35-.65-.67-.19-.44.25-.33-.04-.4-.33-.44-.02-.21-.02-.44-.02-.65q.17-.04.1-.42c-.23.04-.08-.33-.15-.44.6.04.56-.48,0-.42.04-2.29-.35-4.5-.73-6.71,0,0,.04-.02.06-.04-.63-3.9-.42-7.85-.1-11.77.19-2.62-.02-5.31.21-7.81.19,0,.46-.25.17-.35-.21-.02-.25-1.23.46-1.02.06-.23-.31-.17-.38-.25-.08-.58,0-1.02.69-.75-.02-.08-.06-.17-.08-.25-.54.06-.56-.44-.25-.79.13.12.38.06.44.31.1-.04.15-.13.23-.19-.19-.25-.54-.12-.77-.31-.13-.42.27-.63.48-.31.15.02.29-.02.42-.12-.1-.46-.79-.02-.81-.35-.04-.37.21-.44.4-.1.17-.5-.27-.37-.19-.75.06-.19.06-.81.37-.56.08.08.15.13.27.1.04.02.1.06.15.1.08-.25-.35-.25-.48-.42-.06-.37.08-1.17.6-.83.02-.02.04-.02.04-.04-.42-.25-.25-.56-.13-.96.08-.19.27,0,.42-.04-.44-.17-.21-.5-.1-.85.4-1.1.9-2.5,1.98-3.04.6-.75,4.44-.58,3,.67.35.12,1.25-.75.77.19.02,0,.02.02.04.04.17-.04.35-.08.54-.12,0,.12.02.23.06.38-.33-.1-.94.04-1.15.29l.02.02c.19-.02.52-.33.62-.08.04.13.04.37.17.4.17.04.38-.1.48.1.13.23-.37.21-.29.52.38-.04.9.04.5.48Z"/>
  <path class="cls-1" d="m66.78,74.9h.15c-.02.92-.06,1.87-.13,2.79-.75,8.04-.83,16.1-.77,24.18.13.9-.62,3.02-1.42,1.44-.4-3.1.17-6.29.1-9.37.17-4.73-.35-9.37.58-14.04.23.02.62-.31.27-.46-.35-.12-.15-.6-.21-.88.54.31.62-.4.04-.4-.06-.15-.13-1.25.13-1.17.25-.02.37.17.62,0-.02-.63-.62-.15-.77-.46.06-.31-.13-.83.35-.73.21.1.37.17.56-.02.15-.29-.48-.35-.69-.33-.25-.06-.12-.65-.08-.87.42.1.83.21,1.29.33Z"/>
</svg>