<?xml version="1.0" encoding="UTF-8"?>
<svg xmlns="http://www.w3.org/2000/svg" viewBox="0 0 136.06 136.06">
  <defs>
    <style>
      .cls-1 {
        fill: #fff;
      }

      .cls-2 {
        fill: #0c3454;
      }

      .cls-3 {
        fill: #e0e1e3;
      }
    </style>
  </defs>
  <g id="Layer_3" data-name="Layer 3">
    <rect class="cls-3" x="0" width="136.06" height="136.06"/>
  </g>
  <g id="B_W" data-name="B&amp;amp;W">
    <g>
      <path class="cls-1" d="m66.8,77.69c-.75,8.04-.83,16.1-.77,24.18.13.9-.62,3.01-1.43,1.44-.4-3.1.18-6.29.1-9.37.17-4.73-.35-9.37.58-14.04.23.02.61-.31.27-.46-.35-.12-.16-.6-.22-.89.54.31.62-.4.04-.4-.06-.15-.13-1.25.14-1.17.25-.02.36.17.61,0-.02-.64-.61-.16-.77-.47.06-.3-.13-.82.35-.73.21.1.36.18.56-.02.15-.28-.48-.34-.7-.32-.25-.06-.11-.66-.07-.87.42.1.82.21,1.29.33h.15c-.02.92-.06,1.86-.13,2.79Z"/>
      <path class="cls-1" d="m67.74,31.39c-1.33,2.48-1.62,5.6-2.08,8.33-.9,6.52-.02,13.16.67,19.62.04,5.21.73,10.37.6,15.56h-.15c-.16-.69-1.04-.46-1.29-.83-.02-.25.21-.36.36-.11.02-.2.02-.37.04-.56-.52.17-.36-.5-.31-.83.23-.06.7.06.58-.33-.06-.23-.42.08-.6-.09-.01-.17-.01-.33-.01-.5.78.31.69-.44-.02-.35-.02-.19-.1-.34-.14-.52.23-.07.54,0,.73-.19-.06-.08-.09-.15-.15-.25-.69.15-.98-.54-.12-.37.71-.25-.19-.51-.54-.44-.01-.19-.26-.75,0-.75.33-.13.29.04.68-.15-.12-.14-.21-.25-.31-.35-.69.35-.65-.67-.19-.44.25-.33-.04-.4-.33-.44-.02-.21-.02-.45-.02-.66q.17-.04.1-.42c-.23.04-.08-.33-.16-.44.6.04.56-.48,0-.43.04-2.28-.34-4.5-.73-6.71,0,0,.04-.02.06-.04-.63-3.9-.42-7.84-.1-11.77.2-2.61-.01-5.31.22-7.81.19,0,.46-.25.17-.34-.21-.02-.25-1.23.46-1.02.06-.23-.31-.18-.38-.25-.08-.58,0-1.02.69-.75-.02-.08-.06-.18-.08-.25-.54.05-.56-.45-.25-.79.14.11.39.06.44.31.1-.04.16-.14.23-.2-.19-.25-.53-.11-.76-.3-.14-.43.26-.64.48-.31.15.02.28-.02.42-.12-.1-.46-.79-.02-.81-.34-.04-.37.21-.45.41-.1.17-.5-.27-.36-.2-.75.06-.19.06-.81.37-.56.08.08.15.14.27.1.04.02.09.06.15.1.08-.25-.34-.25-.48-.43-.06-.36.08-1.17.6-.83.02-.01.04-.01.04-.03-.43-.25-.25-.56-.14-.97.08-.19.27,0,.42-.03-.44-.18-.21-.5-.09-.85.4-1.1.9-2.5,1.98-3.04.6-.75,4.44-.58,3,.67.35.12,1.25-.75.77.2.02,0,.02.02.04.03.17-.03.34-.07.54-.11,0,.11.02.23.05.38-.32-.09-.94.04-1.15.29l.02.02c.19-.02.52-.32.61-.07.04.13.04.36.18.4.17.04.38-.1.48.1.13.23-.37.21-.29.51.38-.03.9.04.5.49.31.15.38.78.06.9-.08.04-.23-.02-.25.13.31,0,.44.29.4.56-.04.37-.54.02-.75.23.56.04,1.08.29.46.75.25.12.08.6-.13.71-.27.06-.6-.21-.83-.26-.06.17.25.5.46.5.12-.02.12.11.16.19-.27.06-.48-.27-.73-.18.27.33.88.27.44.89-.33-.02-.56-.25-.77-.52-.44.44,1.11.71.38,1.04-.46.11-.52-.75-.88-.41.15.33.4.56.75.7-.23.29-.71-.04-.98-.14-.48-.31-.29-.81-.12-1.25.37-.98,1.1-2.13.85-3.21-.17-.63-.54-1.19-1.04-1.48-.4-.23-.92-.31-1.48-.08-.62.6-1.1,1.29-1.48,2.04Z"/>
      <path class="cls-2" d="m69.1,30.54c-2.52,2.79-2.4,6.95-2.94,10.51-.94,5.23-.31,11.36.48,16.54-.06,4.36.75,8.9.64,13.37h-.02c.13.3-.1.77.07.98-.01,6.42-.71,12.79-.96,19.21-.46,4.29.68,9.14-.5,13.14-.04.09-.07.19-.11.29-.25.02-.5.05-.7.07-2.44-1.38-.34-7.63-.76-10.27.26-3.34-.16-6.75,0-10.08-.45-5.92-.1-11.82.28-17.75-.63-7.02-1-14.08-1.21-21.1-.04-.4-.09-.81-.13-1.23,0-.21.06-.46.06-.69,0-.29-.04-.6-.06-.91,0-.07.04-.15.04-.23.03-.21.07-.42.09-.63.06-.41.1-.81.14-1.21.38-3.52,1.17-7,2.34-10.35.81-3.33,3.75-4.33,6.6-3.04,1.62.83,1.85,2.58,1.75,4.23-.35,1.83-.65,4.73-2.92,5-2.39-.17-.83-2.54-.29-3.79.6-1.56-.16-3.02-1.89-2.06Zm-3.54,41.61c.18.17.54-.14.6.09.12.39-.35.27-.58.33-.05.33-.21,1,.31.83-.02.19-.02.36-.04.56-.15-.25-.38-.14-.36.11.25.37,1.13.14,1.29.83-.47-.12-.87-.23-1.29-.33-.04.21-.18.81.07.87.22-.02.85.04.7.32-.2.2-.35.12-.56.02-.48-.09-.29.43-.35.73.16.31.75-.17.77.47-.25.17-.36-.02-.61,0-.27-.08-.2,1.02-.14,1.17.58,0,.5.71-.04.4.06.29-.13.77.22.89.34.15-.04.48-.27.46-.93,4.67-.41,9.31-.58,14.04.08,3.08-.5,6.27-.1,9.37.81,1.57,1.56-.54,1.43-1.44-.06-8.08.02-16.14.77-24.18.07-.93.11-1.87.13-2.79.13-5.19-.56-10.35-.6-15.56-.69-6.46-1.57-13.1-.67-19.62.46-2.73.75-5.85,2.08-8.33.38-.75.86-1.44,1.48-2.04.56-.23,1.08-.15,1.48.08.5.29.87.85,1.04,1.48.25,1.08-.48,2.23-.85,3.21-.17.44-.36.94.12,1.25.27.1.75.43.98.14-.35-.14-.6-.37-.75-.7.36-.34.42.52.88.41.73-.33-.82-.6-.38-1.04.21.27.44.5.77.52.44-.62-.17-.56-.44-.89.25-.09.46.24.73.18-.04-.08-.04-.21-.16-.19-.21,0-.52-.33-.46-.5.23.05.56.32.83.26.21-.11.38-.59.13-.71.62-.46.1-.71-.46-.75.21-.21.71.14.75-.23.04-.27-.09-.56-.4-.56.02-.15.17-.09.25-.13.32-.12.25-.75-.06-.9.4-.45-.12-.52-.5-.49-.08-.3.42-.28.29-.51-.1-.2-.31-.06-.48-.1-.14-.04-.14-.27-.18-.4-.09-.25-.42.05-.61.07l-.02-.02c.21-.25.83-.38,1.15-.29-.03-.15-.05-.27-.05-.38-.2.04-.37.08-.54.11-.02-.01-.02-.03-.04-.03.48-.95-.42-.08-.77-.2,1.44-1.25-2.4-1.42-3-.67-1.08.54-1.58,1.94-1.98,3.04-.12.35-.35.67.09.85-.15.03-.34-.16-.42.03-.11.41-.29.72.14.97,0,.02-.02.02-.04.03-.52-.34-.66.47-.6.83.14.18.56.18.48.43-.06-.04-.11-.08-.15-.1-.12.04-.19-.02-.27-.1-.31-.25-.31.37-.37.56-.07.39.37.25.2.75-.2-.35-.45-.27-.41.1.02.32.71-.12.81.34-.14.1-.27.14-.42.12-.22-.33-.62-.12-.48.31.23.19.57.05.76.3-.07.06-.13.16-.23.2-.05-.25-.3-.2-.44-.31-.31.34-.29.84.25.79.02.07.06.17.08.25-.69-.27-.77.17-.69.75.07.07.44.02.38.25-.71-.21-.67,1-.46,1.02.29.09.02.34-.17.34-.23,2.5-.02,5.2-.22,7.81-.32,3.93-.53,7.87.1,11.77-.02.02-.06.04-.06.04.39,2.21.77,4.43.73,6.71.56-.05.6.47,0,.43.08.11-.07.48.16.44q.07.38-.1.42c0,.21,0,.45.02.66.29.04.58.11.33.44-.46-.23-.5.79.19.44.1.1.19.21.31.35-.39.19-.35.02-.68.15-.26,0-.01.56,0,.75.35-.07,1.25.19.54.44-.86-.17-.57.52.12.37.06.1.09.17.15.25-.19.19-.5.12-.73.19.04.18.12.33.14.52.71-.09.8.66.02.35,0,.17,0,.33.01.5Z"/>
    </g>
  </g>
</svg>