<?xml version="1.0" encoding="UTF-8"?>
<svg xmlns="http://www.w3.org/2000/svg" viewBox="0 0 136.06 136.06">
  <defs>
    <style>
      .cls-1 {
        fill: #fff;
      }

      .cls-2 {
        fill: #0c3454;
      }

      .cls-3 {
        fill: #e0e1e3;
      }
    </style>
  </defs>
  <g id="Layer_3" data-name="Layer 3">
    <rect class="cls-3" x="0" width="136.06" height="136.06"/>
  </g>
  <g id="B_W" data-name="B&amp;amp;W">
    <path class="cls-2" d="m99.09,33.05c-.19.12-.35,0-.54-.06-.08.23-.17.42-.25.65.29.12.52.23.81.35,0-.15,0-.23.02-.31,0-.08.04-.19.04-.27-.02-.12-.04-.23-.08-.35Zm0-.02c.17-.29.02-.5-.25-.71.31-.08.33-.27.23-.58-.17.37-.29.69-.42.98.17.1.29.21.44.31Zm-12.49,49.22c-.25.46-.19.9-.04,1.33.1.29.33.37.65.31.58-.12.96-.46,1.17-1.02-.19-.15-.37-.27-.52-.44-.12-.15-.23-.33-.35-.52-.27.1-.52.21-.9.33Zm-.44-6.06c-.1.08-.15.15-.21.21-.19.17-.37.4-.6.5-.54.25-.87.6-1.02,1.19-.17.62.04,1.31.58,1.64.15.1.29.12.46.1.46-.04.81-.27,1.17-.5.42-.25.56-.65.6-1.1-.94-.37-.96-1.17-.98-2.04Zm-.04,6.98c-.6.44-.81,1.04-.9,1.71-.04.27.04.48.23.65.08.1.19.19.29.27.29.23.6.27.92.1.27-.17.46-.42.44-.79v-.83c-.65-.04-.81-.54-.98-1.1Zm-5.68-6.5c-.33.25-.56.6-.85.85-.31.25-.71.42-1.15.44-.04.25-.1.48-.1.69-.02.4.04.77.33,1.04.67.62,1.5.67,2.27.23.27-.15.4-.46.42-.77.02-.27-.27-.31-.44-.42-.27-.15-.4-.4-.5-.67-.15-.37-.1-.75,0-1.15.02-.08,0-.15.02-.25Zm-1.56-2.79c-.5.62-1.06,1.1-1.87,1.23-.19.69-.1,1.33.21,1.96.19.37.52.6.96.62.42,0,.79-.17,1.12-.37.27-.17.52-.4.67-.75-.12-.1-.25-.19-.37-.27-.27-.21-.6-.42-.69-.75-.12-.48-.21-.98-.06-1.48.02-.04.04-.12.04-.19Zm.33-8.18c-.6.77-1.27,1.29-2.29,1.25,0,.1,0,.15-.02.21-.27.6-.12,1.19.17,1.77.15.29.4.5.73.56.62.17,1.25.1,1.81-.21.27-.15.5-.33.58-.65.08-.25.17-.5.25-.77-.83-.48-1.06-1.27-1.23-2.17Zm-6.5,7.33c-.31.42-.65.69-1.15.69-.12.46-.25.92-.19,1.4.04.42.23.79.67,1,.15.06.25.06.4,0,.79-.37,1.04-1.08,1.23-1.89-.69-.08-.75-.65-.96-1.19Zm-.08-8c-.4.48-.73.83-1.27,1.02-.06.27-.15.54-.23.81-.19.65.04,1.17.54,1.6.17.15.31.19.5.15.44-.08.87-.48.96-.92.08-.48.15-.96.23-1.5-.46-.19-.62-.6-.73-1.17Zm-.85,19.84c-.17.15-.31.29-.48.4-.17.12-.4.17-.65.27-.1.54-.23,1.15-.35,1.75-.19.73-.35,1.46-.54,2.17-.25.96-.58,5.73-.56,6.7.04,1.48.02,2.96-.06,4.41-.08,1-.25,1.98-.31,2.98-.06,1.02-.25,2.02-.33,3.06-.06.54-.17,1.08-.23,1.62-.02.15-.02.29-.02.44.37.15.71.27,1.04.4.19.08.35.19.52.29.15.08.31.17.46.27s.31.23.46.37c.21.25.46.5.6.79.23.52.52,1.02.52,1.62-.02.42-.15.62-.54.73-.31.08-.6.15-.92.17-.19.02-.37-.06-.58-.1-.27-.02-.56-.04-.83-.06-.75-.08-1.4-.42-2.04-.79-.73-.42-1.33-1.04-1.85-1.71-.15-.19-.27-.42-.37-.65-.62-1.27-.98-2.6-1-4.02,0-.37-.1-.75-.19-1.1-.21-.85-.29-1.69-.27-2.56.02-.6-.02-1.23-.02-1.85.02-.62-.17-1.33-.15-1.98.02-.56,0-1.37,0-1.94,0-.35.21-2.56.48-5.12.29-1.71.35-3.08.71-3.77.04-.06.06-.15.08-.23.27-.67.29-.87.56-1.54.21-.52.44-1.04.62-1.52-.21-.08-.4-.04-.54-.5-1.04.56-1.25.29-1.5-.12-.17.06-.33.15-.5.17-.5.02-.85-.37-.83-.96.02-.29.02-.56.19-.81.06-.08.04-.23.04-.35,0-.48-.02-.94.25-1.37.1-.17.21-.35.37-.6-.06-.46.04-.98.37-1.44-.35-.69-.31-1.17.44-1.64.12-.42.23-.77.33-1.12.06-.21.1-.42.15-.62.02-.06.02-.15.02-.23.08-.5.29-.87.87-.94.1-.87.25-1.73,1.17-2.17-.29-.94.23-1.5.87-2.06,0-.02.02-.08,0-.12-.37-.9.06-1.89.79-2.46.06-.06.15-.12.21-.19.23-.17.42-.35.46-.67.08-.42.37-.73.69-1.02.17-.17.29-.33.31-.58,0-.5.21-.94.52-1.33-.12-.15-.27-.27-.37-.42-.42-.48-.85-.94-1.21-1.44-.42-.56-.94-1.08-1.06-1.79-.08-.48-.06-.98-.1-1.48-.02-.25-.04-.48-.06-.71,0-.08-.02-.15,0-.21.12-.92.17-1.83.4-2.75.12-.48.19-.98.29-1.46.1-.44.23-.87.37-1.31.25-.77.5-1.56.83-2.33.46-1.04.79-2.14,1.37-3.16.15-.25.25-.54.37-.81.04-.08.06-.17.12-.23.54-.58.87-1.33,1.5-1.85.48-.42.98-.79,1.54-1.08.85-.48,1.77-.5,2.73-.5,0-.1.02-.23.02-.33-.04-.94-.04-1.87.17-2.81.17-.75.37-1.5.58-2.25.02-.15.06-.29.1-.44.08-.4.17-.81.29-1.21.12-.48.23-.96.4-1.42.23-.62.48-1.23.75-1.83.27-.56.54-1.1.85-1.64.25-.44.58-.85.9-1.27.15-.19.29-.37.44-.58l1.19-1.56s.06-.08.12-.1c.35-.17.42-.48.54-.79.12-.4.33-.77.5-1.15.08-.15.17-.29.23-.44-.48-.46-.6-1-.42-1.58.19-.62.77-.81,1.27-1.04.12-1.04.46-1.98,1.06-2.81.42-.58.87-1.15,1.48-1.56.58-.42,1.15-.85,1.75-1.25.31-.21.65-.35.96-.5.75-.37,1.48-.79,2.1-1.33.44-.4.87-.81,1.15-1.37.21-.42.44-.85.77-1.17.85-.79,1.85-1.15,3-.73.65.25,1.25.62,1.62,1.27.17.31.33.6.44.96.12.48.15.96.08,1.44-.04.44-.19.85-.25,1.29-.1.71.04,1.35.46,1.96.19.27.33.58.5.85.08.17.19.29.27.46.5.96.96,1.94,1.12,3.02.08.44.02.92.02,1.35v.29c.06.58,0,1.15-.12,1.71-.08.42-.17.81-.25,1.23.4.5.35,1.12-.1,1.58-.06.06-.15.1-.19.17-.19.29-.44.42-.81.33-.04.21-.1.4-.12.6-.02.56-.23,1.08-.44,1.6-.1.27-.17.56-.1.83.12.67.12,1.33.1,2-.02.62-.04,1.27-.06,1.89,0,.58,0,1.17-.04,1.77-.02.83-.15,1.64-.31,2.46-.06.29-.06.58-.02.9.06.37-.02.79-.06,1.17s-.15.75-.17,1.1c-.04.71-.29,1.33-.54,1.96-.12.29-.27.56-.35.85-.1.29-.29.48-.48.69-.1.12-.17.27-.27.4.33.21.62.42.94.58.71.37,1.19.96,1.62,1.58.17.21.27.46.56.56.08.04.19.17.23.27.15.56.5,1.06.48,1.69-.02.46.12.92.17,1.4.04.6.04,1.21.06,1.79,0,.15-.04.31-.12.44-.23.31-.25.69-.33,1.06-.1.5-.23.98-.35,1.48-.23.9-.46,1.81-.71,2.69-.19.71-.44,1.37-.65,2.06-.15.42-.21.83-.35,1.25-.17.52-.37,1.02-.56,1.54-.23.65-.46,1.31-.69,1.98-.29.77-.6,1.54-1.02,2.27-.17.27-.4.54-.62.77-.31.29-.65.58-1,.83-.56.37-1.19.67-1.92.48-.15-.04-.31-.04-.5-.06-.02.1-.02.19-.06.27-.06.19-.04.33.1.48.31.33.31.56.1.98-.08.12-.15.25-.23.37-.19.33-.33.65-.15,1.04.08.19.02.46-.06.67-.15.37-.29.75-.65,1,.29.42.42.87.35,1.37-.08.48-.17.96-.75,1.17.31.4.25.83.23,1.25-.02.25-.15.5-.21.75-.02.08-.02.17-.02.23.02.1.04.19.06.27.21.6.02,1.1-.4,1.54-.06.04-.1.1-.15.17.31.48.12.94-.17,1.33-.12.21-.15.37-.04.54.23.42.15.83.02,1.23-.08.27-.31.54-.5.79-.08.1-.21.15-.33.25.29.58.17,1.08-.29,1.5.02.29.04.56.04.81-.02.4-.21.71-.54.9-.21.12-.4.23-.6.33-.4.21-1.02-.02-1.17-.44-.1-.29-.15-.6-.21-.9-.44.42-.9.77-1.56.44-.5-.25-.67-.69-.71-1.21-.17.1-.31.21-.46.33-.08.06-.15.15-.17.21-.08.48-.17.96-.27,1.42-.06.31-.17.62-.25.94-.1.31-.58,1.56-.71,3.81-.08.58-.06,1.17-.12,1.75-.06.69-.15,1.37-.21,2.08-.04.33-.1.65-.15.98-.08.6-.19,1.21-.27,1.79-.1.92-.29,1.83-.52,2.73-.15.52-.19,1.08-.42,1.62-.17.37-.23.81-.31,1.23-.04.15,0,.25.15.27.15.04.31.06.46.12.52.15.98.37,1.42.73.69.54,1.19,1.21,1.67,1.92.17.23.25.54.35.81.06.17,0,.25-.15.35-.65.48-1.35.52-2.1.37-.79-.15-1.58-.31-2.35-.52-.52-.17-1.1-.33-1.54-.67-.58-.42-.96-1.02-1.02-1.79-.06-.85-.17-1.69-.21-2.52-.04-.42,0-.83,0-1.25-.02-.62-.08-1.25-.08-1.89,0-.35.06-.73.06-1.1.02-.15,0-.27-.02-.4-.12-1.04-.08-2.06.04-3.08.08-.62.12-1.5.19-2.12.06-.54,0-.79.1-1.31.06-.42.27-2.5.42-2.89.12-.4.5-1.71.67-2.08.44-.94.56-1.4.96-1.92.06-.1.23-.42.27-.5-.08-.08-.17-.46-.33-.85-.46.46-1.02.67-1.67.5s-1.08-.56-1.27-1.27c-.37.35-.79.62-1.27.48s-.73-.56-.81-1.04c-.37.21-.75.42-1.12.6-.65.33-1.42-.08-1.52-.85-.02-.17-.04-.31-.06-.54Zm-4.87-11.06c-.52.4-.67.94-.92,1.4-.17.33.1.96.58.96.42-.02.79-.37.83-.83.02-.25.02-.48.02-.75-.35-.08-.65-.25-.52-.77Zm-.75,8.33c-.15.12-.25.23-.35.31-.15.08-.29.12-.42.19-.04.17-.06.33-.08.48-.08.29-.02.54.1.77.21.42.65.48.96.17.25-.25.46-.52.56-.87-.4-.25-.67-.58-.77-1.04Zm-1.08-2.12c-.21.19-.42.4-.62.6v.42c-.02.17-.02.31-.02.48-.04.4.08.6.46.73.4.12.73.08.94-.23.19-.27.33-.56.31-.96-.62-.06-.9-.54-1.06-1.04Zm35.83-55.3c.08-.75.19-1.5.17-2.25,0-.81-.17-1.62-.54-2.35-.12-.21-.23-.44-.33-.65-.4-.75-.77-1.52-1.19-2.25-.37-.6-.46-1.23-.31-1.89.08-.46.15-.9.23-1.35.12-.71-.04-1.35-.44-1.96-.1-.17-.23-.29-.4-.42-.29-.21-.65-.4-.81-.73-.12-.25-.31-.29-.52-.33-.92-.12-1.69.17-2.39.71-.12.12-.23.29-.31.44-.15.27-.23.54-.37.81-.31.65-.77,1.19-1.33,1.62-.23.19-.5.33-.73.5-.48.4-1.04.65-1.58.92-.29.15-.58.27-.85.44-.44.29-.85.6-1.27.92-.25.17-.48.35-.67.56-.62.71-1.19,1.44-1.58,2.29-.17.37-.33.75-.31,1.21.17-.02.33,0,.48-.04.58-.17,1.17-.23,1.75-.27.17-.02.37-.02.52-.12.25-.15.46-.21.67-.02.08.08.17.12.29.15.33.04.65.1.98.15.58.1,1.19.21,1.77.33.29.04.6.15.9.23s.56.21.85.29c.6.17,1.21.29,1.77.52.9.33,1.75.75,2.69,1,.5.15.94.46,1.27.85.48.58,1.02,1.08,1.33,1.77,0,.02.04.04.12.08.06-.4.12-.77.17-1.15Zm-.21,2.62c.04-.37-.06-.73-.12-1.1,0-.06-.04-.15-.1-.21-.48-.5-.79-1.15-1.33-1.6-.62-.52-1.25-1.04-2.06-1.29-.15-.04-.29-.1-.46-.17-.69-.27-1.37-.56-2.1-.79-.67-.21-1.37-.35-2.08-.52-.31-.06-.65-.1-.96-.17-.62-.1-1.23-.21-1.85-.29-.31-.04-.62.04-.94,0-.4-.06-.77-.04-1.15.04-.31.06-.65.12-.96.15-.46.06-.96,0-1.35.33h-.08c-.58.08-.85.5-1.08.98-.12.29-.1.58.25.77.48-.25.98-.5,1.54-.6.27-.04.56-.12.85-.15.5-.04,1.02-.04,1.52-.06.19,0,.37-.02.56,0,1,.06,2.02.02,2.96.46.06.02.15.02.21.04.46.08.92.12,1.37.25.52.15,1.02.31,1.5.54.65.29,1.25.65,1.87.98l.12.12c.4.33.81.65,1.19,1,.37.33.73.71,1.06,1.1.25.27.5.52.83.65.37.15.73.04.79-.46Zm-.21,26.69c.06-.69.1-1.37.04-2.08-.08-.79-.1-1.56-.65-2.21-.27-.31-.48-.67-.65-1.04-.19-.37-.5-.69-.85-.92-.37-.25-.75-.5-1.15-.73-.17-.1-.37-.12-.58-.06-.37.15-.75.31-1.12.37-.6.1-1.19.15-1.79,0-.46-.12-.79-.44-1.21-.56-.44-.12-.85-.33-1.29-.48-.69-.25-1.35-.52-1.87-1.08-.21-.25-.4-.48-.6-.73-.44.1-.69.48-1,.75-.17.15-.29.35-.48.44-.46.21-.94.31-1.44.27-.6-.06-1.04-.35-1.31-.87-.21-.42-.37-.85-.58-1.33-.44.21-.87.25-1.31.23-.25-.02-.48-.02-.73-.04-.92-.06-1.81-.12-2.64-.54-.17-.08-.33-.12-.48-.21-.5-.27-1-.54-1.46-.87-.35-.27-.73-.33-1.15-.31-.5.02-.98.23-1.46.4-.73.25-1.29.71-1.85,1.17-.46.37-.77.9-1.06,1.4-.23.4-.48.79-.69,1.19-.25.48-.5.96-.71,1.46-.25.62-.44,1.29-.69,1.92-.27.67-.56,1.31-.79,2-.17.54-.31,1.08-.44,1.62-.23.92-.4,1.85-.52,2.79-.08.69-.15,1.35-.08,2.04.02.35.06.69.08,1.04.02.54.19,1.04.56,1.48l1,1.19.31.44c.06.1.15.21.23.31.6.6,1.31,1.08,2.12,1.42.58.25,1.19.44,1.81.44,1.1-.02,2.21-.06,3.29-.08.71-.02,1.42-.1,2.1-.02.69.06,1.35-.02,2.02-.17.21-.04.42-.04.62-.08.48-.1.94-.25,1.42-.31.54-.08,1.12-.08,1.69-.12.33-.02.67-.02,1-.04.21,0,.42,0,.62.02.83.06,1.64.25,2.48.15.1,0,.21.04.31.04.31.06.6.06.92-.02.19-.04.4,0,.65,0,.04-.12.1-.27.15-.44.06-.25.06-.5.15-.75.1-.37-.23-1-.56-1.21-.31-.19-.62-.42-.92-.65-.31-.23-.6-.48-.98-.62-.35-.12-.69-.29-1.02-.46-.27-.12-.52-.27-.79-.4-.35-.15-.73-.27-1.1-.37-1-.31-1.96-.73-3-.92-.79-.15-1.56-.35-2.35-.52-.35-.08-.73-.17-1.08-.25-.4-.1-.77-.23-1.15-.33-.23-.06-.44-.12-.65-.23-.69-.31-1.4-.37-2.12-.35-.4,0-.79.17-1.19.19-.44.04-.83.12-1.19.4-.06.06-.19.06-.27.06-.08-.02-.19-.08-.21-.15s.02-.19.06-.23c.15-.19.35-.31.58-.33.67-.1,1.06-.5,1.35-1.08.33-.71.77-1.35.98-2.1.21-.71.46-1.42.67-2.12.02-.06.02-.15.02-.23-.02-.62-.04-1.27-.06-1.89,0-.1.02-.21.04-.33.21.02.23.1.23.25,0,.25.04.52.02.77-.02.71.06,1.42-.17,2.1-.17.54-.44,1.04-.4,1.62,0,.06-.02.1-.04.17-.23.5-.44,1-.67,1.5-.12.31-.25.6-.37.94h.27c.83-.02,1.67.02,2.48.27.56.19,1.12.42,1.71.58.48.15.98.21,1.46.33.56.12,1.1.29,1.67.44s1.12.23,1.67.42c.9.31,1.81.56,2.67.96.48.23,1,.4,1.48.6.42.17.81.35,1.21.56.23.1.46.23.65.37.25.23.48.48.71.71.08.08.17.1.27.17.06-.4.15-.73.15-1.06.04-.87.35-1.67.69-2.46.12-.33.31-.62.5-.92.31-.48.73-.9.92-1.46,0-.02.04-.06.06-.1.29-.33.58-.67.87-.98.04-.06.15-.1.21-.15l.06.06c-.04.08-.1.17-.15.25-.42.58-.96,1.1-1.19,1.79-.08.25-.15.5-.27.73-.35.69-.58,1.42-.79,2.14-.17.65-.31,1.29-.46,1.92v.29c.02.65.08,1.31-.15,1.96-.08.23-.15.48-.21.73.69.42,1.35.85,1.5,1.75-.1-.02-.23-.08-.29-.17-.35-.54-.87-.9-1.42-1.21-.15-.06-.31-.1-.46-.1-.5-.02-.98.06-1.48-.04-.33-.08-.67-.12-1-.1-.96,0-1.92.04-2.89.06h-.48c-.54.02-1.08.02-1.62.08-.33.02-.67.15-.98.21-.54.1-1.06.17-1.58.25-.08.02-.15.06-.27.12.17.08.27.15.37.19.15.06.31.1.48.19.5.27,1,.56,1.5.83.42.23.83.46,1.23.71.6.4,1.21.81,1.83,1.21.5.31,1.02.62,1.52.92.62.35,1.19.83,1.87,1.08.4.17.77.35,1.17.5.54.23,1.1.35,1.69.44.67.08,1.29-.04,1.89-.29.46-.21.9-.52,1.27-.87.5-.48.79-1.04,1.02-1.67.23-.54.42-1.1.62-1.67.15-.37.31-.77.46-1.15.31-.85.62-1.69.92-2.54.06-.17.06-.35.12-.54.12-.42.29-.83.42-1.25.37-1.37.71-2.75,1.08-4.12.25-.87.35-1.75.42-2.62Zm-.92-25.47c.04-.15.04-.29-.1-.4-.23-.19-.46-.37-.69-.56-.56-.46-1.15-.92-1.71-1.37-.19-.15-.33-.31-.58-.29-.1,0-.21-.08-.29-.12-.33-.19-.56-.54-.94-.67-.96-.37-1.89-.75-2.85-1.1-.23-.1-.48-.15-.73-.23-.48-.21-.94-.42-1.46-.52-.73-.15-1.44-.23-2.14-.04-.27.06-.54.17-.83.17-.44,0-.83.19-1.25.27-.46.08-.94.17-1.4.27-.1.02-.21.08-.25.17-.23.42-.5.85-.62,1.29-.19.65-.54,1.25-.52,1.94-.31.58-.4,1.23-.4,1.87-.02,1.06-.04,2.14-.02,3.21,0,.48.17.96.15,1.44,0,.48.12.92.23,1.37.1.54.44,1.02.71,1.5.04.06.1.1.17.15.15-.31.27-.62.44-.92.17-.31.37-.58.54-.9.19-.37.48-.6.9-.73.54-.17,1.1-.21,1.67-.23h.15c.71.19,1.44.25,2.08.58.21.12.44.21.65.31.56.31,1.06.69,1.4,1.29.48.9.56,1.79.27,2.75-.06.21-.06.42-.08.73.27-.19.46-.33.65-.46.54-.29,1.04-.67,1.52-1.04.71-.58,1.33-1.23,1.96-1.92,1.02-1.15,1.73-2.5,2.21-3.98.15-.48.31-.96.48-1.46.25-.79.5-1.58.73-2.37Zm-.6,8.33c.15-.33.21-2.29.1-2.71-.29-.12-.58-.25-.94-.4-.06.37-.37.62-.33,1,.12.1.25.19.46.31-.29,0-.52-.06-.67.04-.19.1-.27.33-.4.5.23.27.62.17.83.48-.4.08-.69-.17-1.04-.19-.27.37-.56.73-.85,1.12.37.23.75.4,1.15.44.12,0,.21.02.23.19-.62.15-1.06-.23-1.54-.44-.46.5-.92,1-1.35,1.48.35.37.83.58,1.33.75.48.17.98.31,1.54.5-.15.08-.21.15-.27.12-.19-.02-.4-.08-.58-.15-.29-.08-.56-.23-.87-.31-.5-.17-1-.35-1.31-.81-.06.04-.12.06-.17.08-.67.52-1.37.98-2.19,1.23-.17.06-.33.23-.4.37-.21.54-.58.96-.85,1.44-.1.15-.17.31-.25.46.17.06.31.12.5.21-.12.08-.19.15-.23.12-.15-.02-.29-.08-.44-.15-.46.58-.94,1.15-1.46,1.75.23.48.65.85,1.1,1.17.5.35,1.08.52,1.64.75.12.04.27.1.4.17.33.12.69.21,1,.35.58.27,1.19.35,1.79.29.29-.02.56-.1.83-.17.96-.21,1.4-.92,1.73-1.73.02-.04,0-.08,0-.12-.52-.06-1.04-.12-1.56-.19-.6-.06-1.19-.17-1.71-.52-.19-.15-.35-.27-.6-.27-.06.02-.12-.04-.19-.06-.21-.1-.42-.21-.62-.29-.08-.04-.21-.04-.19-.23.29.02.56.04.77.25.06.04.15.12.21.1.37-.04.6.21.85.37.23.15.46.27.75.29.35.04.71.12,1.06.19.46.06.92.1,1.42.17.27-.71.44-1.35.23-2.1.21-.02.27-.19.27-.4,0-.15.06-.27.1-.4.04-.19.08-.4.12-.58.02-.21.04-.42.08-.62.04-.19.12-.35.17-.52.06-.33.1-.65.17-.96.1-.71.21-1.42.29-2.12-.46-.15-.85-.25-1.27-.37-.19-.06-.31-.15-.25-.42.46.27.87.54,1.4.52Zm-5.35-13.24c-.08-.02-.17-.04-.29-.08.02.15.02.23.02.35.1-.1.19-.17.27-.27Zm-.9.1q.31.12.46-.19-.31-.08-.46.19Zm-.33-.04l.12-.25s-.08-.02-.1-.04c-.04.08-.08.17-.1.23.02.02.04.04.08.06Zm-.44,49.47c.29-.44.25-.9-.1-1.23-.29.08-.56.06-.83-.1-.25-.19-.37-.42-.46-.71-.19.08-.37.17-.52.25-.08.25-.19.46-.19.67.02.42.06.83.17,1.23.04.19.21.4.37.5.42.23.96.1,1.29-.25.1-.1.21-.23.27-.35Zm0-49.62c.15,0,.17-.1.15-.29-.1.06-.17.1-.23.17,0,0,.06.12.08.12Zm-.02,14.03c.15-.12.12-.29.06-.46-.06-.19-.15-.4-.25-.56-.17-.27-.33-.58-.56-.81-.19-.19-.44-.4-.71-.46s-.5-.21-.73-.35c-.25-.17-.5-.31-.81-.33-.1,0-.21-.04-.31-.06-.48-.19-.96-.23-1.46-.21-.71.02-1.37.1-1.79.77-.02.06-.06.08-.08.15-.06.1-.1.21-.12.27.27.12.48.23.73.33.12-.12.27-.27.37-.44.23-.31.54-.4.9-.35.15,0,.29.04.42.06.35.1.71.21,1.04.31.44.17.9.29,1.31.5.44.23.81.54.94,1.08.04.23-.04.44.04.62.1.33.02.6-.12.9-.04.08-.06.17-.1.23.19.23.54.23.62.65-.23-.12-.37-.19-.52-.27-.21-.12-.37-.12-.54.06-.15.19-.35.27-.58.33-.79.17-1.54-.1-2.31-.23-.02,0-.04-.02-.06-.04-.52-.37-1.12-.65-1.44-1.27-.15-.31-.27-.58-.25-.92s.06-.69.08-1.04c-.19-.06-.4-.12-.62-.21-.21.08-.29.29-.35.5.12.06.23.1.35.15-.02.04-.02.06-.02.08-.1.04-.21.06-.31.1-.06.02-.17.04-.19.1-.25.42-.37.87-.44,1.4.17-.02.27,0,.37-.04.21-.08.42-.06.62-.02.17.04.31.06.48.1.04.02.06.1.17.23-.62-.08-1.15-.21-1.69-.02-.23.46-.12.96-.15,1.42h1.85c.19.02.37.02.54.06.6.19,1.21.31,1.79.5.65.23,1.17.58,1.69.98.04.04.06.15.08.21l-.06.06c-.6-.37-1.15-.81-1.83-1.04-.67-.23-1.35-.42-2.06-.5-.69-.08-1.4-.17-2.12.06v.75c.4.21.79-.12,1.23.08-.44.21-.83.23-1.25.19,0,.17.02.27.02.37.02.1.04.21.06.29,1.42.04,2.33.27,2.62.73-.9-.29-1.75-.56-2.71-.5.06.33.1.65.17.94l-.02.02h.02c.04.12.1.23.15.35.83.08,1.64.08,2.35.58-.12.15-.23.1-.35.04-.25-.1-.52-.23-.79-.27-.35-.06-.73-.17-1.12-.04.12.27.23.48.33.71,1.04,0,1.96.25,2.75.92.17-.06.29-.12.31-.35.02-.15.23-.25.35-.4-.65-.71-1.4-1.12-2.29-1.31-.54-.12-1.1-.17-1.69-.23v-.02c.15-.23.33-.21.56-.17.35.06.73.12,1.1.21.83.15,1.56.5,2.19,1.08.08.08.19.15.31.25.17-.17.44-.17.54-.42-.15-.17-.29-.31-.44-.44s-.31-.23-.44-.35c-.15-.12-.37-.15-.42-.44.62.21,1,.73,1.5,1.04.33-.29.44-.42.52-.69-.29-.44-.73-.73-1.17-.98-.42-.25-.87-.44-1.4-.69.15-.02.19-.06.23-.04.98.27,1.77.85,2.56,1.52.33-.46.71-.85.92-1.4-.29-.27-.56-.58-.9-.81-.31-.23-.67-.37-1.02-.58.06-.04.08-.08.1-.08.19.06.44.08.6.19.46.33.92.69,1.37,1.04.17-.21.4-.42.37-.77-.21-.15-.44-.29-.65-.46-.06-.06-.15-.21-.1-.27.08-.12.17-.02.25.04.23.17.44.35.67.54.31-.35.44-.77.5-1.17-.1-.1-.21-.21-.37-.35.23-.02.35-.02.5-.02.02-.29.06-.58.08-.81-.25-.21-.56-.25-.73-.54.29-.19.46.23.73.12Zm-.62,34.04c.27.08.44-.02.58-.37-.29-.08-.58-.17-.9-.25-.02.4.08.56.31.62Zm.44,3.23c.04-.23.06-.44-.06-.6-.33.06-.62.1-.94.15-.08.19-.21.37-.29.58-.04.1-.04.27.02.35.1.17.25.33.42.46.15.12.31.06.42-.08.21-.25.37-.52.44-.85Zm-.21-51.53s.02-.06.02-.1c-.06-.02-.12-.02-.21-.04,0,.02-.02.06-.02.1.08,0,.15.02.21.04Zm-.15,53.74c.02-.29-.1-.56-.31-.79-.17-.19-.35-.15-.56-.25-.19.35-.48.52-.79.65-.08.04-.21.08-.25.17-.12.23-.25.46-.31.69-.15.46.04.94.4,1.1.5.25,1.44-.06,1.62-.58.12-.31.19-.65.21-.98Zm-.69-54.01c.1.06.21.15.37,0-.15-.04-.25-.06-.35-.08,0,.04-.02.06-.02.08Zm-.33,57.76c.5-.65.62-1.33.33-1.94-.15.06-.29.15-.44.17-.29.02-.46.21-.58.42-.17.29-.23.65-.08.94.12.27.37.48.77.42Zm-.54-41.69c.58-.25,1.19-1.08.73-1.87-.04-.06-.06-.15-.08-.21-.1-.62-.54-.94-1.08-1.1-.48-.15-.96-.29-1.42-.42-.17-.06-.33-.12-.5-.15s-.35-.04-.48.02c-.37.21-.75.46-.98.85-.25.46-.17.92-.08,1.37.02.08.1.15.19.21.56.42,1.06.9,1.73,1.17.15.06.29.19.46.23.52.17,1.02.1,1.52-.1Zm.44,43.48c.4-.5.6-.98.37-1.58-.19.06-.42.1-.4.35.04.37-.1.69-.31,1,.1.08.21.15.33.23Zm-.52-11.43c.25,0,.52-.08.65-.33-.62-.29-1.23-.58-1.87-.9-.06.56.04.87.42,1.04.25.1.54.19.81.19Zm.4,3.69c.06-.19.15-.37.23-.58-.62-.48-.85-1.17-.96-1.87-.35.04-.5.25-.58.54-.12.4-.27.79-.35,1.19-.06.19-.06.4-.04.58.02.35.33.71.67.75s.92-.29,1.04-.6Zm-.04,1.27c.15-.23.35-.46.1-.75-.31.17-.62.31-.96.48q.04.33.33.42c.23.08.42.04.52-.15Zm-.65,8.31c.67-.25.9-1.02.5-1.6-.1-.17-.21-.19-.35-.12-.27.08-.52.19-.81.27-.08.44-.06.62.21,1.25.08.25.21.29.46.21Zm-.08,2.12c.75-.23.98-1.21.52-1.94-.06,0-.12.02-.19.04-.08.02-.17.04-.23.08.1.65.21,1.23-.1,1.81Zm-.04-4.04c.35-.33.65-.69.62-1.21,0-.08-.06-.21-.12-.25-.37-.27-.6-.6-.54-1.08-.23.15-.42.35-.62.42-.44.12-.67.4-.75.81,0,.04-.02.08-.04.1-.21.23-.12.46,0,.67.21.44.83.73,1.29.62.06-.02.12-.04.17-.08Zm-.94-9.99c.67-.06,1-.42,1.15-1.17-.19-.04-.35-.08-.52-.12-.4-.1-.65-.37-.71-.79-.02-.15,0-.31-.02-.48,0-.15-.15-.29-.27-.27-.27.02-.52.31-.56.58-.02.29-.06.58-.1.87-.08.44.15,1,.52,1.21.17.1.35.19.52.17Zm.62,7.14c.12-.23.25-.46.4-.73-.46-.29-.58-.71-.62-1.1-.42.15-.79.29-1.25.46-.12.46-.27,1-.06,1.56.12.29.29.4.6.35.4-.04.73-.19.94-.54Zm.15,8.45c.25-.29.35-.73-.02-1.12-.35.1-.69.21-1.04.29-.04.12-.12.29,0,.48.08.15.15.33.27.44.27.19.6.15.79-.08Zm.15-2.14c.06-.37-.04-.77-.06-1.15-.77-.15-.6-.85-.85-1.35-.08.1-.15.19-.21.25s-.15.17-.25.19c-.37.1-.46.33-.44.69.02.12.02.23.02.35-.02.17.04.4-.04.52-.21.29-.08.56,0,.83.12.35.5.62.81.62.56,0,.96-.52,1.02-.96Zm-.15-9.35c.02-.06.02-.15,0-.21-.08-.23-.17-.46-.27-.75-.5-.1-.67-.56-.83-1.06-.1.1-.21.17-.29.25-.29.27-.58.56-1.02.6-.06.02-.17.1-.19.19-.23.67-.21,1.33.17,1.96.04.1.12.19.23.21.4.17.81.17,1.17.02.52-.23.9-.65,1.04-1.21Zm-.81,13.43c.56-.35.73-.77.54-1.46-.42-.08-.87-.12-1.02-.71-.29.21-.52.37-.75.54-.02-.02-.06-.04-.08-.06,0,.17-.02.33-.02.48-.02.33-.04.67.06,1,.04.19.15.29.33.37.35.12.65,0,.94-.17Zm-.98-15.26c.67-.48.81-1.23,1.06-2-.75-.06-1.12-.52-1.33-1.08-.73.29-1.04.9-1.19,1.56-.12.71-.06,1.4.48,1.92.4-.02.69-.19.98-.4Zm.19,12.97c.25-.17.25-.42.29-.69-.46-.17-.56-.6-.73-1-.31.35-.71.4-1.12.44-.02.12-.02.23-.06.31-.15.35-.02.65.15.92.08.15.27.29.44.33.37.08.73-.1,1.04-.31Zm-.25-6.25c.23-.27.37-.6.42-1.04-.5-.17-.6-.62-.71-1.08-.25.21-.46.4-.71.52-.23.12-.52.17-.77.25-.08.29-.06.29-.02.81.06.52.44.71.83.85.37.15.73,0,.96-.31Zm-.46-11.58c.31-.06.62-.19.92-.4-.58-.48-1.15-.92-1.81-1.29-.08.58,0,1.02.29,1.42.17.23.37.29.6.27Zm-.46,1.69c.5-.35.69-.87.75-1.46-.94-.04-1.25-.31-1.44-1.54-.29.19-.54.42-.83.54s-.35.35-.42.62c-.06.37.08.73.19,1.08.02.15.15.25.27.35.19.15.4.25.58.4.31.23.62.21.9,0Zm-1.73-26.86c.33.9,1.25,1.19,2.33.73-.4-.56-1.83-.98-2.33-.73Zm1.02,44.7c.46-.04.92-.54.98-1.08-.58-.06-.92-.44-1.04-.98-.35.12-.65.23-.94.33-.02.23,0,.42-.02.6,0,.29.1.56.27.77.19.23.44.37.75.35Zm.12-6.68c.15-.23.23-.48.35-.75-.58-.19-.79-.6-.92-1.1-.29.25-.56.48-.79.71l-.06.69c-.02.33.19.77.44.83.25.1.85-.12.98-.37Zm-.83-6.04c.56-.33,1-.75,1.1-1.42-.35-.44-.5-.79-.58-1.89-.06.06-.1.08-.12.1-.46.54-.94,1.02-1.69,1.15-.08,0-.17.12-.21.21-.31.62-.21,1.25.15,1.83.17.31.48.4.81.27.19-.06.37-.15.54-.25Zm.29,10.31c.17-.17.29-.37.42-.52-.31-.35-.6-.67-.9-1-.21.42-.6.5-1.02.5-.27.56-.19.81.29,1.08.5.29.87.27,1.21-.06Zm.27-18.99c-.08-.1-.1-.15-.12-.17-.65-.42-1.29-.85-1.96-1.25-.19-.12-.29-.08-.37.17-.19.42-.1.83.06,1.23.27.73,1.17,1.04,1.79.6.23-.17.4-.37.6-.58Zm-.73,5.35c.25-.31.46-.69.65-.98-.33-.35-.67-.65-.92-1s-.42-.75-.6-1.15c-.4.52-.85.69-1.56.85-.08.21-.19.46-.25.71-.02.19.08.4.04.56-.06.29.06.54.17.79.1.23.27.42.33.65.12.37.4.48.73.44.25-.04.5-.1.71-.25.27-.17.52-.37.71-.62Zm.35-49.99c.08,0,.17,0,.25-.02-.02-.04-.02-.12-.04-.12-.06,0-.15.02-.21.02v.12Zm-1.54,58.07c.73-.02,1.37-.58,1.52-1.35-.04-.02-.06-.04-.1-.06-.69-.25-1.17-1.02-1.06-1.73.04-.19.1-.37.17-.56.04-.12.06-.27.1-.4-.21-.08-.25,0-.31.12-.23.62-.69,1.06-1.15,1.48-.12.1-.29.15-.52.27-.19.29-.27.65-.23,1.06.04.4.23.75.52,1.02.12.12.35.12.54.17.19.02.35-.02.52-.02Zm1.25,2.81c.04-.21.06-.42.08-.62-.44-.08-.58-.46-.85-.75-.06.1-.12.17-.17.23-.15.31-.37.5-.73.56-.21.02-.37.19-.44.42-.15.35-.1.67.1,1.02.44.71.96.71,1.48.44.23-.12.35-.35.42-.62.04-.21.06-.44.1-.67Zm-.87,4.02c.17-.1.35-.27.35-.56-.65-.06-.92-.56-1.17-1.1-.21.17-.42.33-.62.44-.19.1-.27.23-.27.4-.02.17-.02.33-.02.5.02.42.29.67.71.75.44.08.71-.21,1.02-.42Zm.06-18.7c.04-.08,0-.19,0-.23-.98-.37-1.4-1.1-1.52-2.08-.29.21-.54.44-.83.54s-.62.08-.98.12c-.15.44-.08.87-.02,1.31.1.62.46,1.04,1,1.33,1.04.54,1.96-.17,2.35-1Zm0,41.58c-.04-.08-.06-.21-.12-.31-.33-.48-.67-.96-1.04-1.42-.19-.25-.44-.44-.67-.65l-.02-.02c-.48-.56-1.15-.73-1.83-.81-.35-.04-.73,0-1.08-.02-.17,0-.27-.06-.25-.29.31-.08.62-.15.94-.23.08-.29.19-.58.27-.87.21-.87.44-1.75.62-2.62.23-1.02.44-2.06.54-3.12.02-.37.25-1.46.35-2.44-.02-.17.12-1.02.15-1.17.06-.62.08-1.19.17-1.83.06-.62.08-1.35.29-2.29.1-.75.25-1.21.54-2.04.02-.04.02-.1.04-.15.25-.58.33-1.21.44-1.83-1.33-.12-1.25-.42-1.42-1.35-.04.04-.08.06-.12.1-.37.29-.79.5-1.29.42-.17-.04-.42-.19-.42-.19-.06.21-.58.94-.67,1.12-.35.81-.5,1.21-.79,2.1-.17.56-.4,1.25-.42,1.87-.08.92-.23,1.98-.31,2.54-.12.77-.08,1.48-.19,2.25-.08.73-.15,1.48-.19,2.23-.04.71-.02,1.42-.02,2.12-.02.21-.06.42-.04.6.02.79.06,1.58.1,2.37.04.58.06,1.19.1,1.77.04.5.1,1,.17,1.52.06.54.27,1.04.71,1.4.37.31.81.56,1.23.81.19.1.44.17.65.21.37.08.77.1,1.12.21.67.17,1.29.31,1.98.25.19-.02.37,0,.48-.25Zm-.29-28.32c.17-.33.19-.71.19-1.1-.29.02-.56.04-.83.08-.08.02-.15.08-.21.12-.37.4-.33.94.1,1.37.4.06.6-.21.75-.48Zm.08-45.2c.02-.08.02-.19-.02-.27-.15-.27-.31-.52-.46-.77-.17,0-.35.17-.42-.12.08-.04.19-.08.27-.12-.21-.5-.42-1-.6-1.5-.5.04-.54.02-.54-.25.17.02.33.04.52.06-.02-.31-.04-.58-.06-.85-.02-.23-.1-.31-.33-.31-.15,0-.29-.06-.42-.1-.48-.21-.96-.37-1.42-.6-.19-.1-.44-.19-.48-.52.85.35,1.6.9,2.56,1-.06-.85-.1-1.67-.15-2.42-.17-.17-.46-.1-.46-.44.17.04.31.08.48.15v-.35c-.37-.27-.85-.35-1.08-.77.02-.02.02-.06.04-.08.33.21.67.42,1.04.65.02-.21.02-.37.02-.52q-.25-.19-.25-.42c.1.02.19.06.31.1.02-.29.02-.56.04-.83-.19-.1-.42-.12-.44-.42.19.06.33.1.5.15.08-.29.17-.56.25-.85-.17-.08-.31-.17-.46-.25-.46.52-.79,1.04-1.12,1.6.17.1.27.17.4.23s.29.08.23.33c-.29-.12-.56-.25-.85-.37-.19.27-.35.52-.52.75.23.5.83.44,1.08.85-.48-.02-.87-.25-1.25-.56-.15.27-.29.5-.4.77-.02.06.02.23.08.27.23.15.37.4.67.48.17.04.31.15.48.23-.02.04-.04.06-.06.1-.54.02-.9-.37-1.29-.69-.29.25-.85,1.56-.92,2.14.48.37.98.73,1.6.81-.04.19-.15.23-.25.17-.23-.08-.46-.15-.67-.27-.27-.12-.52-.31-.79-.46-.04.06-.08.08-.1.12-.1.31-.21.65-.29.98-.21.77-.4,1.54-.6,2.31-.08.35-.08.4.21.58.48.31.94.58,1.48.75.29.08.54.23.83.35-.08.17-.23.17-.31.12-.52-.23-1.02-.44-1.54-.69-.27-.12-.52-.29-.83-.48-.1.46-.17.87-.27,1.29-.08.25.02.42.23.52.27.17.54.31.79.46.37.21.75.37,1.17.46.27.06.56.15.83.27.48.17.92.44,1.44.46.06,0,.12.06.27.15-.4.06-.69.06-.98-.04-.54-.21-1.04-.46-1.6-.56-.54-.1-.98-.4-1.46-.62-.25-.12-.48-.29-.75-.44-.02.1-.04.17-.04.25-.02.35,0,.73-.04,1.08s.02.67.12.98c.02.1.06.23.15.29.25.21.52.4.81.58.75.48,1.54.87,2.44.98.73.08,1.46.12,2.21.15.31.02.65-.06,1-.1-.1-.48-.19-.9-.29-1.31-.12-.6-.15-1.25-.12-1.87.06-.67.12-1.31.19-1.98-.1-.04-.19-.06-.27-.06-.46.02-.85-.17-1.23-.35-.37-.21-.73-.4-1.1-.6-.12-.08-.12-.19.02-.31.35.23.73.44,1.1.65.48.27.98.48,1.54.42.06-.17.1-.33.15-.48Zm-1.12,40.94c.42-.37.73-.81,1-1.35-.5-.48-.77-1.06-.77-1.73-.33.27-.65.52-.96.77-.33.25-.73.31-1.15.33-.06.21-.15.37-.17.56-.04.4-.02.81.29,1.12.23.21.48.37.75.5.37.19.69.06,1-.21Zm.4,7.56c.08-.15.08-.27-.06-.4-.44-.31-.62-.75-.62-1.31-.27.23-.5.44-.75.6-.31.21-.52.52-.48.9s.29.65.62.79c.21.08.42.19.67.06.27-.12.5-.35.62-.65Zm-.17-59.8s-.04-.02-.06-.04c-.12.15-.25.29-.42.46.12.08.21.15.31.21.06-.23.12-.42.17-.62Zm.06,48.37c-.1-.02-.17-.04-.21-.08-.19-.15-.46-.25-.54-.46-.25-.62-.73-1.21-.65-1.98-.65.56-1.33.98-2.14,1.1-.04.12-.06.21-.08.27-.23.46-.4.92-.23,1.42v.12c-.1.27.04.46.23.62.1.1.23.19.33.29.6.46,1.25.44,1.89.15.23-.1.44-.25.62-.42.33-.27.62-.58.77-1.04Zm-.69,9.37c.15-.27.21-.54.1-.79-.17-.4-.25-.77-.1-1.17h-.06c-.42.52-.94.87-1.62.92-.06,0-.15.06-.19.1-.19.33-.29.69-.23,1.08.08.48.92.9,1.31.62.31-.21.6-.44.79-.77Zm-1.58,3.89c.48-.02,1.08-.33,1.21-.9-.35-.15-.71-.31-.9-.73-.17-.4-.08-.75.08-1.12-.04,0-.06,0-.08.02s-.06.06-.08.1c-.19.37-.46.69-.87.79-.15.04-.19.15-.21.27-.08.31-.08.62.04.94s.48.62.81.62Zm.67-20.34c.69-.19,1.17-.67,1.42-1.42-1.04-.54-2.08-1.06-3.19-1.62-.08.37-.19.67-.21.96-.02.65.23,1.21.65,1.69.35.44.87.54,1.33.4Zm.33,11.64s.02-.06.02-.1c0,.04-.02.06-.02.1-.15.48-.37.87-.85,1.06-.5.19-1,.27-1.52.12-.06.5-.02.92.1,1.33s.58.81.96.85c.73.08,1.56-.42,1.77-1.17-.85-.58-.56-1.4-.46-2.21Zm-.27-8.22c.02-.19,0-.31-.17-.42-.48-.29-.73-.75-.83-1.27-.04-.15-.06-.27-.12-.48-.52.69-1.21.92-2.02.9-.27.9-.21,1.75.06,2.58.06.21.21.29.42.31.52.08,1.02.02,1.5-.19.62-.27,1.1-.69,1.17-1.44Zm-1.27,14.74c.23-.15.4-.4.62-.62-1-.56-.96-1.31-.62-2.17-.1.04-.21.08-.25.17-.27.5-.75.71-1.21.94-.29.15-.44.37-.35.69.04.19.12.37.25.54.44.56.98.79,1.56.46Zm-2.04-1.94c.75-.04,1.29-.37,1.6-1.06-.73-.62-.75-1.48-.69-2.39-.31.33-.25.79-.62.98-.33.19-.69.33-1.1.52-.15.46-.08.92.08,1.4.12.35.37.58.73.56Zm.37,3.29c.48-.08.83-.37,1.02-.9-.81-.21-1.29-.75-1.5-1.54-.19.35-.52.48-.83.65-.44.25-.54.65-.29,1.08.33.6.98.83,1.6.71Zm.77-22.26s0-.12,0-.19c-1.25,0-2.48,0-3.73-.02,0,.54.1,1.02.37,1.46.1.15.23.29.4.35.58.27,1.21.23,1.77-.08.58-.33.92-.9,1.19-1.52Zm-1.52,9.47c.4-.31.75-.65.87-1.19-.58-.21-.87-.67-1.02-1.23l-.33.33c-.42.35-.9.54-1.42.6-.23.02-.33.12-.33.33,0,.42,0,.83.35,1.17.33.33,1.02.52,1.48.25.12-.08.27-.17.4-.27Zm.42,6.5c.15-.23.27-.5.4-.73-.54-.52-.67-1.15-.54-1.87.02-.1.02-.21.04-.31-.04,0-.06-.02-.1-.02-.04.08-.1.17-.15.25-.27.6-.71,1.02-1.29,1.31-.1.06-.19.17-.23.27-.15.48-.06.94.29,1.33.19.23.42.35.71.25.21-.06.42-.1.6-.21.1-.06.21-.17.27-.27Zm-.98,4.16c.42-.15.58-.46.73-.83-.69-.23-.81-.83-.94-1.4-.37.15-.69.27-1.04.42.02.27.02.56.04.85.04.31,0,.65.21.92.17.27.29.35.58.25.17-.04.27-.17.42-.21Zm.5-14.99c.02-.1.02-.21.04-.31-.42-.1-.65-.4-.92-.67-.27-.31-.17-.75-.4-1.15-.35.67-.81,1.1-1.44,1.37-.1.02-.19.17-.23.27-.17.46-.29.94-.25,1.46.04.48.21.85.58,1.17.33.29.71.33,1.08.17.5-.21.79-.62,1.15-1,.06-.08.1-.19.12-.29.08-.33.17-.69.25-1.02Zm-1.37,9.16c.65-.27,1.08-.71,1.21-1.44-.37-.19-.58-.5-.71-.83-.15-.33-.21-.71-.29-1.08-.44.52-.85,1.04-1.56,1.23-.21.54-.04,1.04.19,1.54.1.19.29.35.48.48s.42.21.69.1Zm-.23,3.62c.5-.08.77-.4.85-.96-.69-.19-1-.69-1.21-1.29-.35.08-.67.15-1.02.21-.31.67-.33,1.27-.02,1.6.37.42.87.5,1.4.44Zm.33-15.57c.1-.29.06-.37-.21-.56-.35-.21-.58-.52-.71-.9-.02-.08-.04-.17-.08-.29-.15.23-.25.44-.35.62-.12.25-.33.35-.58.35-.29-.02-.56-.04-.9-.06-.23.6-.4,1.21-.1,1.83.29.65.83.94,1.5.73.17-.04.29-.21.46-.29.54-.33.79-.87.98-1.44Zm-.62,8.93c.31-.33.65-.69.58-1.21-.71-.21-1.06-.69-1.19-1.42-.37.33-.67.71-1.15.71-.04.19-.06.33-.1.48-.12.4-.06.77-.02,1.19.1.67.98,1,1.54.52.1-.08.25-.17.33-.27Zm-.21,10.22c.37-.06.75-.4.87-.83-.73-.27-.73-.94-.79-1.6-.17.17-.29.29-.42.4-.15.12-.29.23-.44.35-.06.06-.15.15-.15.23,0,.25,0,.52.06.75.08.35.42.77.85.71Zm.1-6.16c.02-.23.06-.44.08-.62-.69-.35-1.15-.85-1.23-1.62-.33.15-.62.27-1.02.44-.02.06-.04.19-.08.31-.21.48-.04.87.29,1.25.21.21.48.23.75.33.44.19.81.06,1.21-.08Zm-.75,4.06c.35-.31.69-.6.67-1.17-.98-.15-1.46-.71-1.37-1.77-.27.25-.48.46-.71.69-.06.06-.12.19-.12.27,0,.5-.04,1.02.12,1.52.19.65.75.87,1.31.52.04-.04.08-.04.1-.06Zm.29-18.91c.15-.25.1-.48.02-.77-.37.04-.75.1-1.1.06-.37-.02-.75-.17-1.17-.29-.21.4-.23.79.02,1.17.27.42.98.77,1.46.69.19-.04.37-.1.46-.29.1-.19.21-.4.31-.56Zm-.21,7.56c.04-.17.06-.27-.08-.33-.25-.1-.37-.31-.48-.52-.1-.25-.21-.48-.33-.77-.27.27-.56.54-.81.81-.1.12-.19.31-.19.46-.02.25.04.5.1.75.15.5.67.69,1.08.4.29-.21.56-.44.71-.79Zm-.71,4.54c.17-.08.27-.19.27-.4-.27-.19-.6-.29-.77-.52-.19-.23-.25-.56-.35-.85-.29.21-.58.42-.85.62-.06.06-.1.15-.12.23-.12.54.37,1.25,1.04,1.17.27-.04.52-.12.79-.25Zm-.15,7.85c.12-.12.17-.29.25-.46-.83-.15-1.19-.69-1.31-1.46-.33.35-.5.79-1,.83-.04.19-.08.35-.08.52-.02.19-.02.37,0,.56.06.42.54.77.94.69.48-.12.9-.33,1.21-.69Zm-1.5-3.58c.79.12,1.48-.4,1.52-1.17-.58-.19-.9-.62-1.1-1.21-.21.17-.37.31-.56.42-.19.08-.4.12-.6.21-.12.29-.12.6-.06.92.08.54.29.75.81.83Zm1.42-12.06c.12-.35.12-.4-.19-.58-.25-.17-.46-.33-.56-.62-.04-.06-.1-.15-.15-.21-.19.15-.33.37-.52.4-.31.08-.46.27-.54.52-.12.35-.19.73-.29,1.1s-.02.73.15,1.08c.12.29.35.46.65.54.08,0,.19.02.23-.02.17-.12.35-.25.46-.42.37-.54.58-1.17.77-1.79Zm-1.04,13.12c.04-.21.04-.42.06-.6-.21-.02-.4-.02-.58-.06-.15-.04-.23.04-.31.12-.23.19-.48.37-.81.62.02.17.02.42.08.62.1.33.65.54.85.33.31-.29.62-.58.71-1.04Zm-1.4-3.41c.62-.15,1.08-.35,1.25-1.17-.56-.27-.87-.73-.98-1.35-.35.27-.65.5-1.02.79-.15.37-.17.85.04,1.31.12.27.44.48.71.42Zm.98-14.8c.15-.15.08-.33-.15-.4-.06-.02-.12-.02-.19-.04-.69-.12-1.37-.27-1.83-.81-.25.02-.33.19-.4.33-.1.27-.21.54-.25.81-.04.42.08.83.48,1.06.4.25.79.29,1.25.08.48-.23.71-.71,1.08-1.04Zm-.56,8.52c.23-.23.4-.5.62-.79-.79-.27-1.17-.81-1.29-1.58-.23.15-.48.25-.58.42-.37.58-.17,1.54.37,1.98.27.21.65.21.87-.02Zm-.19,8.83c-.12-.17-.25-.33-.35-.5s-.17-.35-.25-.54c-.27.1-.5.25-.75.33-.27.06-.37.12-.31.4s.15.52.44.65c.52.21.87.12,1.23-.33Zm-.33-11.99c.1-.35.19-.71.27-1.12-.35-.21-.67-.46-.87-.83-.1-.15-.21-.15-.35-.08-.25.08-.5.15-.75.25-.1.04-.19.1-.23.19-.21.27-.21.62-.19.94,0,.31.06.67.17.96.08.19.25.35.44.44.54.27,1.35-.12,1.52-.73Zm-.17,7.04c.15-.17.25-.37.42-.6-.62-.37-.81-.96-.85-1.6-.25.12-.5.23-.71.35-.1.06-.21.17-.29.27-.21.29-.27.62-.25.98.04.48.37.67.75.81.33.1.67.04.94-.21Zm-.25,7.64c.17-.15.31-.31.46-.48-.15-.23-.31-.42-.37-.65-.08-.21-.06-.46-.08-.77-.12.21-.19.4-.31.5-.31.25-.33.6-.44.96-.06.21-.02.37.17.48.19.12.4.15.58-.04Zm-.21-3.85c.33-.21.42-.52.46-.9-.79-.25-1.04-.87-1.1-1.64-.25.15-.48.25-.69.4-.08.04-.15.12-.19.19-.27.81-.27,1.42.52,2,.31.23.69.17,1-.04Zm-.02,32.07c.17-.02.31-.08.48-.12-.06-1-.42-1.81-1.15-2.44-.33-.25-.69-.48-1.1-.58-.37-.08-.77-.21-1.15-.31-.08-.04-.19-.04-.27-.04-.37,0-.75.02-1.12.04-.06,0-.12-.04-.19-.04-.06-.27.08-.4.29-.48.19-.08.37-.19.58-.25.27-.08.42-.27.46-.54.04-.19.06-.4.1-.58l.12-1.12.37-2.87c.04-.25.02-.48.06-.73.04-.37.12-.73.15-1.1.04-.54.04-1.08.06-1.62.02-.31.08-.62.1-.96.02-.4,0-.81-.02-1.23,0-.29.04-4.64.06-4.91.06-2.17.73-4.1,1.17-6.23.06-.35.12-.73.25-1.08.1-.31-.02-.52-.23-.73-.21.12-.4.27-.62.37-.87.4-2.37-.15-2.62-1.17-.23.12-.44.27-.65.4-.06.04-.15.08-.17.15-.25.56-.5,1.1-.71,1.67-.27.67-.35,1.54-.6,2.21-.46,1.77-.52,2.37-.56,3.64.02,1.6-.46,4.48-.48,5.46,0,.48.06.98.06,1.46-.04,1.27-.02,2.54.25,3.79.1.46.15.94.19,1.4.06.37.12.77.12,1.15.04,1.04.15,2.04.46,3.02.19.56.4,1.1.75,1.58.62.83,1.27,1.6,2.21,2.08.23.1.46.17.67.29.83.48,1.73.52,2.67.46Zm-1.02-38.08c.5-.1,1.1-.69,1.21-1.25-.6-.56-.65-.62-.77-1.17-.27.15-.52.29-.79.4-.4.15-.69.33-.62.81,0,.08-.04.17-.06.23-.1.52.62,1.06,1.04.98Zm1-8.43c.02-.08.04-.19.08-.31-.58-.02-1-.29-1.25-.79-.69.31-1,1.44-.79,1.98.15.37.37.6.75.65s.69-.12.96-.33c.06-.04.06-.19.08-.29.04-.29.1-.6.17-.9Zm-1.04,16.93c.29-.06.56-.21.71-.58-.54-.12-.62-.67-.87-1.02-.65.27-.58.83-.4,1.27.08.21.31.4.56.33Zm-.37-4.89c.44-.12.69-.46.87-.85-.27-.21-.58-.35-.73-.62-.17-.25-.15-.62-.21-.94-.25.17-.52.33-.79.5,0,.19,0,.4-.02.62-.02.33.06.65.19.96.15.33.35.44.69.33Zm-.56-5.89c.71-.08,1.33-.44,1.35-1.42-.5-.08-.87-.4-1.06-.9-.5.1-.83.33-.94.83-.04.25-.06.48-.06.73,0,.33.42.79.71.75Zm.67,11.91c.23-.15.35-.37.33-.6-.31-.15-.58-.25-.79-.42-.31-.25-.5-.58-.44-1.02.04-.19-.06-.29-.29-.27-.19.48-.5.85-1,1.02-.06.23-.1.44-.19.62-.1.23-.04.42.08.6.19.35.92.69,1.31.54.33-.12.67-.29.98-.48Zm-1.37-2.67c.56.21,1.23-.1,1.54-.69-.42-.42-.81-.85-.77-1.56-.19.17-.35.27-.46.4-.25.31-.54.44-.92.31-.12.23-.15.46-.1.69.08.52.21.69.71.85Zm.21-5.54c.52-.06.92-.44,1-.98q-.75-.52-1-1c-.12.08-.21.17-.33.23s-.27.1-.4.15v.46c0,.15-.04.29-.02.44.08.54.35.75.75.71Zm.62-6.75c0-.46.08-.9.25-1.25-.27-.37-.5-.69-.77-1.06-.08.08-.21.15-.29.27-.19.25-.35.54-.5.81-.29.48-.25.96.06,1.44.25.4.69.5,1.04.17.1-.1.21-.25.21-.37Zm-.33,9.91c.17-.21.37-.37.42-.71-.54-.15-.58-.65-.75-1.1-.31.4-.73.58-1.19.65-.21.4-.21.67-.12,1.1.04.19.12.31.29.4.6.33.65.33,1.15-.15.06-.06.15-.12.21-.19Zm-.4-5.58c.08-.25.12-.5.17-.75,0-.08-.02-.19-.08-.25-.19-.21-.37-.4-.56-.6-.25.1-.52.27-.56.4-.12.52-.23,1.04-.17,1.56.58.27,1,.15,1.21-.35Zm-.5,3.91c.4-.27.46-.69.54-1.12-.35-.17-.73-.29-.9-.77-.29.52-.71.65-1.21.6.06.31.1.62.21.9.15.48.94.69,1.35.4Zm-.25,5c.25-.15.42-.37.6-.67-.71-.21-.9-.75-.94-1.4-.23.12-.46.23-.62.33-.35.44-.33.87-.15,1.33.21.5.62.67,1.1.4Zm.21-11.35c.04-.31.1-.6.15-.92-.08-.06-.21-.12-.33-.21-.1-.08-.21-.21-.37-.37-.19.25-.33.48-.5.67-.31.35-.25.75.04,1.23.06.1.19.19.31.21.21.02.67-.37.71-.6Zm-.77,9.04c.25-.21.27-.33.02-.58-.27-.25-.42-.54-.35-.92.02-.06-.02-.12-.04-.21-.19.19-.4.35-.56.54-.12.17-.29.17-.46.15-.1-.02-.21-.06-.35-.12-.08.5.08.9.35,1.27.08.1.25.17.42.21.37.08.69-.08.98-.33Zm-.6-6.52c.37-.42.56-.9.58-1.46-.21-.17-.42-.33-.65-.5-.04.02-.1.04-.15.08-.58.4-.69,1.04-.75,1.69v.21c.04.23.15.31.37.31.27,0,.42-.17.58-.33Zm-.52,5.16c.35-.29.62-.65.85-1.06-.48-.27-.58-.71-.71-1.19-.33.5-.75.77-1.31.75-.04.1-.04.19-.06.27-.12.52-.02.79.46,1.06.12.06.25.15.4.19.1.02.29.04.37-.02Zm-.06-2.44c.1-.15.21-.31.1-.52-.08-.17-.19-.33-.29-.54-.17.15-.29.25-.46.37-.23-.08-.48-.17-.73-.27-.15.21-.29.6-.31.85-.02.54.02.6.56.69.02.02.04.04.08.04.23.04.44,0,.62-.19.15-.15.29-.27.42-.44Zm-.54-1.1c.35-.23.52-.56.65-.94-.25-.17-.65-.1-.73-.52-.37.12-.5.4-.62.69-.12.31.06.52.19.73.08.17.33.17.52.04Zm-1.04,8.35c.56-.17.79-.52.77-1.27-.35-.08-.69-.21-.81-.6-.33.1-.4.33-.44.6-.02.27-.06.52-.08.79-.02.31.27.56.56.48Zm.44-3.85c.15-.27.23-.58.33-.85-.27-.23-.48-.44-.67-.6-.25.02-.5.06-.81.08-.21.23-.27.52-.29.83-.02.44.19.71.6.9.23.1.67-.06.83-.35Zm-.33-2.48c-.17-.17-.31-.31-.46-.48-.65.37-.69.85-.04,1.31.44-.17.5-.27.5-.83Zm-.29,4.08c0-.31.02-.6.02-.83-.37-.21-.69-.4-1.02-.6-.23.35-.42.77-.44,1.23-.04.69.46.81.87.62.21-.1.4-.29.56-.42Zm-.67,1.52c.02-.25.02-.5.04-.75-.27-.04-.56-.08-.85-.12-.19.27-.19.56-.17.83,0,.27.25.48.54.48.17.02.42-.23.44-.44Z"/>
    <path class="cls-2" d="m98.89,35.09q-.27.19-.33-.1c.1.04.19.06.33.1Z"/>
    <path class="cls-2" d="m98.64,39.07s.04.08.08.12c-.06.02-.12.06-.21.1,0-.04-.02-.06-.04-.1.04-.04.1-.08.17-.12Z"/>
    <path class="cls-2" d="m98.57,34.35s-.04.06-.04.06c-.1-.04-.23-.08-.33-.12.02-.04.02-.1.04-.12.19-.04.25.08.33.19Z"/>
    <path class="cls-2" d="m98.07,38.93c.06-.19.19-.19.33-.12q-.1.21-.33.12Z"/>
    <path class="cls-2" d="m98.39,41.4h-.27q.15-.17.27,0Z"/>
    <path class="cls-2" d="m98.32,37.86s.02.1.02.21c-.19-.06-.31-.12-.48-.21.19-.17.33-.08.46,0Z"/>
    <path class="cls-2" d="m98.26,40.05c-.21.27-.25.27-.58.06.21-.17.37-.12.58-.06Z"/>
    <path class="cls-2" d="m97.97,41.03c-.08.27-.19.31-.4.21.06-.19.21-.19.4-.21Z"/>
    <path class="cls-2" d="m97.8,38.59c-.06.21-.17.23-.29.19-.42-.15-.83-.29-1.25-.46-.15-.06-.27-.17-.4-.25-.08-.06-.15-.15-.21-.23.04-.04.06-.06.08-.1.33.19.65.4.98.54.33.12.71.21,1.08.31Z"/>
    <path class="cls-2" d="m97.62,29.72c.06.12,0,.23-.15.27-.33-.19-.5-.48-.52-.81-.04-.46-.27-.77-.6-1-.62-.44-1.33-.69-2.12-.6-.25.02-.5-.02-.75.04-.29.08-.58.21-.85.35-.21.1-.37.25-.54.4-.1.1-.21.23-.25.37-.12.44-.23.9-.25,1.37,0,.42-.08.85-.17,1.27s-.21.85-.33,1.27c-.08.29-.21.58-.33.85-.17.35-.58.52-.96.42-.37-.12-.75-.23-1.12-.33-.33-.1-.46-.35-.46-.69.02-.21.04-.42.12-.62.35-.94.75-1.89,1.12-2.83.15-.4.17-.81.12-1.23-.02-.4-.1-.79-.21-1.19-.12-.44-.58-.9-.98-1.12-.71-.4-1.48-.4-2.25-.25-.4.08-.77.29-1.15.44-.12.06-.25.12-.37.02.02-.31.29-.42.52-.5.46-.15.92-.25,1.4-.35.54-.12,1.06.06,1.56.25.23.06.44.19.65.31.67.33,1.04.85,1.1,1.6l.12,1.06c.08.67-.21,1.27-.44,1.85-.15.42-.31.81-.48,1.21-.15.31-.31.6-.48.94-.21.42-.06.69.4.85.23.06.46.19.71.27.4.15.56.08.79-.31.27-.46.35-1,.48-1.52.17-.69.31-1.4.46-2.08.08-.33.17-.67.25-1.02.06-.27.23-.5.46-.65.29-.19.62-.35.94-.5.35-.17.71-.29,1.12-.33.62-.04,1.19.1,1.73.42.42.23.87.44,1.12.87.23.4.42.81.58,1.23Z"/>
    <path class="cls-2" d="m96.99,43.92c.23-.08.4-.23.67-.02-.25.12-.44.17-.67.02Z"/>
    <path class="cls-2" d="m97.37,36.51s-.1.06-.17.1c-.04-.08-.08-.15-.1-.21.04-.02.12-.08.15-.06.06.04.08.1.12.17Z"/>
    <path class="cls-2" d="m97.3,30.89c.04.25.06.52-.25.65-.06.02-.1.08-.15.15-.46.67-1.12.81-1.87.73-.27-.04-.52-.1-.83-.15-.37-.19-.75-.4-1.08-.75-.48-.56-.69-1.21-.71-1.92,0-.12-.04-.25-.06-.35-.06-.27-.02-.42.25-.48.33-.06.67-.12.98-.12.46,0,.9.04,1.33.15.75.21,1.46.52,1.98,1.15.23.29.35.6.42.96Zm-.71.48l.48-.48c-.1-.58-.46-1.06-.98-1.27,0,.42-.15.81-.35,1.17-.23.37-.67.46-1.06.69.17.04.27.1.37.1.42,0,.83,0,1.23-.02.1-.02.23-.1.31-.19Zm-.77-1.17c.12-.48.02-.81-.27-.96-.15-.06-.29-.15-.44-.15-.23-.02-.48,0-.67.08-.46.23-.71,1.08-.48,1.56.04.06.08.15.15.19.4.35,1.21.21,1.48-.27.1-.17.17-.35.23-.46Zm-2.89.56c.4.96,1.31,1.42,2.52,1.37-.96-.27-1.79-.69-2.52-1.37Zm.85-.92c.08-.31.29-.58.46-.9-.25-.17-.56-.06-.83-.1-.15-.02-.29.02-.44.08-.23.1-.27.19-.21.44.15.52.46.94.77,1.35.04.06.15.1.19.12.02-.35-.02-.69.06-1Z"/>
    <path class="cls-2" d="m97.01,42.49c.23,0,.44.06.6.31-.44-.02-.56-.08-.6-.31Z"/>
    <path class="cls-2" d="m97.22,39.18c-.27.25-.5.06-.69-.04-.23-.12-.65-.1-.71-.56.12.04.23.04.29.08.23.15.44.27.73.29.12.02.23.12.37.23Z"/>
    <path class="cls-2" d="m97.18,40.99c-.15.21-.31.15-.46.08-.6-.19-1.21-.37-1.79-.58-.29-.1-.58-.23-.85-.35-.08-.04-.15-.12-.21-.19.02-.02.04-.06.06-.08,1.08.37,2.14.75,3.25,1.12Z"/>
    <path class="cls-2" d="m96.62,42.44c-.15.17-.27.15-.42.08-.52-.17-1.04-.35-1.54-.52-.21-.08-.42-.17-.65-.27-.1-.04-.21-.1-.33-.12-.67-.06-1.1-.52-1.58-.9-.06-.06-.08-.17-.15-.25.04-.02.06-.04.08-.06.06.04.15.08.21.12.21.17.42.33.62.5.27.23.58.37.94.4.08.02.15.04.21.06.75.27,1.5.54,2.25.81.1.04.21.08.35.15Z"/>
    <path class="cls-2" d="m96.57,43.69c-.1.23-.27.17-.48.06.17-.17.31-.17.48-.06Z"/>
    <path class="cls-2" d="m95.28,45.84c.25-.15.48-.08.79-.06-.08.1-.15.19-.19.19-.21,0-.44.15-.6-.12Z"/>
    <path class="cls-2" d="m95.72,41.28c.23.08.52.06.69.29-.5-.04-1-.08-1.42-.4.02-.04.02-.06.02-.1.25.06.48.12.71.21Z"/>
    <path class="cls-2" d="m95.57,43.32s.02.04.04.08c-.12.12-.27.08-.4.04-.54-.19-1.08-.4-1.62-.58-.48-.19-.96-.37-1.42-.58-.29-.1-.58-.23-.83-.46.04-.06.06-.08.08-.08h.1c1.31.65,2.69,1.1,4.04,1.58Z"/>
    <path class="cls-2" d="m94.91,46.57c.12-.02.25-.02.25.17,0,.02-.08.06-.12.06-.12,0-.19-.08-.12-.23Z"/>
    <path class="cls-2" d="m95.05,29.97c.04.12.02.27-.02.37-.08.15-.35.23-.5.17-.17-.08-.21-.23-.17-.4.04-.19.08-.35.15-.52h.1c.06.1.1.23.15.31.1.02.29.02.29.06Z"/>
    <path class="cls-2" d="m94.68,13.52c.17.4.48.65.54,1.06-.42-.35-.65-.75-.54-1.06Z"/>
    <path class="cls-2" d="m94.26,45.63q.29-.27.6.06c-.25-.02-.42-.04-.6-.06Z"/>
    <path class="cls-2" d="m94.41,15.58c.1.08.12.23.15.37-.31-.23-.5-.52-.67-.85-.48-.94-.29-1.87.08-2.79.04-.08.1-.17.17-.23.04-.02.1,0,.25,0-.44.46-.5.98-.58,1.48-.06.29-.02.62.06.92.12.4.19.81.54,1.1Z"/>
    <path class="cls-2" d="m93.41,45.13c-.19.12-.33.08-.46.04-1.08-.31-2.04-.92-2.85-1.69-.06-.04-.04-.15-.06-.21l.04-.04c.52.37,1,.79,1.54,1.1s1.15.52,1.79.79Z"/>
    <path class="cls-2" d="m93.1,46.01l-.06.12c-.23-.06-.48-.12-.71-.21-.52-.23-1.04-.48-1.56-.71-.1-.04-.23-.06-.19-.25.06,0,.15-.02.21,0,.77.33,1.54.69,2.31,1.04Z"/>
    <path class="cls-2" d="m92.72,15.09c.25.37.46.73.69,1.08-.31-.06-.65-.48-.75-.92-.02-.04.04-.1.06-.17Z"/>
    <path class="cls-2" d="m92.24,43.05s.02.12,0,.15c-.02.04-.08.06-.17.1-.02-.08-.04-.17-.02-.17.04-.04.12-.06.19-.08Z"/>
    <path class="cls-2" d="m92.16,17.71s.06.06.08.1c0,.02-.04.06-.06.08-.04-.02-.08-.06-.1-.1l.08-.08Z"/>
    <path class="cls-2" d="m92.04,17.19s-.04.02-.04.02c-.21-.4-.5-.71-.9-.92-.06-.02-.08-.1-.12-.19.6.1,1.04.58,1.06,1.08Z"/>
    <path class="cls-2" d="m91.91,42.94c-.21.17-.35.12-.52-.02.17-.21.31-.12.52.02Z"/>
    <path class="cls-2" d="m91.43,36.78s-.04.04-.08.06c-.1-.12-.21-.23-.33-.37q.35-.04.42.31Z"/>
    <path class="cls-2" d="m90.97,19.62s0,.08-.02.1c-.08-.02-.17-.02-.25-.06-.25-.06-.5-.15-.75-.23-.06-.02-.1-.1-.15-.15.46-.04.81.15,1.17.33Z"/>
    <path class="cls-2" d="m90.91,18.5c-.1.02-.17.06-.21.04-.02,0-.06-.08-.04-.12,0-.02.08-.08.1-.06.04.02.08.06.15.15Z"/>
    <path class="cls-2" d="m90.35,35.78c.1.04.25.12.17.35-1.17-.81-2.48-1.19-3.85-1.42.21-.19.44-.21.65-.12.69.23,1.4.27,2.04.6.35.17.69.37,1,.58Z"/>
    <path class="cls-2" d="m90.2,17.33c.15.08.29.23.21.46-.27-.23-.5-.42-.75-.62.27-.17.4.06.54.17Z"/>
    <path class="cls-2" d="m89.89,44.44c-.31.31-.35.31-.56-.04.21,0,.37.02.56.04Z"/>
    <path class="cls-2" d="m88.75,36.28c.67.17,1.06.79.92,1.44-.04.25-.19.42-.4.52-.48.25-.98.27-1.5.21-.1,0-.21-.04-.29-.1-.48-.35-.96-.69-1.21-1.25-.17-.35-.06-.71.29-.85.4-.15.77-.23,1.21-.1.31.1.67.1.98.15Zm.67,1.21c.06-.48-.17-.83-.67-.96-.5-.1-.98-.17-1.48-.21-.25-.02-.54,0-.75.37.27.04.48.08.67.1.5.02.96.08,1.4.33.25.15.56.23.83.35Zm0,.42c-.1-.21-.25-.31-.42-.23-.19.08-.35.02-.5-.04-.33-.19-.71-.15-1.06-.27-.19-.06-.4-.06-.6-.1.1.19.21.37.37.44.37.17.75.27,1.12.42.4.15.73.02,1.08-.21Z"/>
    <path class="cls-2" d="m89.62,18.62c-.19-.1-.35-.21-.52-.29.42-.1.46-.08.52.29Z"/>
    <path class="cls-2" d="m88.89,27.95c.29.37.08.75-.04,1.15-.15.44-.54.69-.94.79-.31.1-.69-.02-1.02-.06-.19-.02-.35-.1-.54-.15-.12-.04-.23-.08-.35-.1-.52-.08-.81-.52-1.04-.92-.21-.33-.33-.73-.46-1.12-.12-.37-.06-.5.31-.62.17-.06.33-.1.52-.15.85-.15,1.71-.23,2.56.06.48.17.73.52.94.92.02.06.02.15.06.21Zm-.42.75c.15-.08.29-.33.27-.5-.04-.37-.21-.73-.54-.98-.02.77-.25,1.4-1.06,1.77.56.12.96-.06,1.33-.29Zm.06.44c-.17.08-.35.15-.5.25-.37.23-.75.19-1.1.02-.25-.12-.52-.25-.75-.37-.42-.23-.83-.46-1.02-.94-.04-.1-.19-.19-.29-.27.08.42.21.81.52,1.1.12.12.25.27.4.33.58.17,1.19.31,1.79.44.35.08.81-.23.96-.56Zm-.87-.73c.29-.42.44-.87.21-1.42-.27-.04-.56-.1-.87-.15-.33-.04-.54.1-.67.42-.12.33-.08.65.02.96.06.23.15.54.46.54s.67-.06.85-.35Zm-1.6-.21c.06-.46.1-.87.15-1.33-.19.02-.42.02-.62.06-.17.02-.33.08-.5.1-.08.35.23.48.37.67.17.19.37.4.6.5Z"/>
    <path class="cls-2" d="m88.87,19.6c-.08.21-.21.19-.33.1-.02,0-.02-.08-.02-.1.02-.04.08-.1.1-.08.08,0,.17.04.25.08Z"/>
    <path class="cls-2" d="m87.41,18.83c.25-.25.83-.21,1.1.1-.37-.04-.71-.06-1.1-.1Z"/>
    <path class="cls-2" d="m87.58,27.62c-.06.12-.08.21-.15.29-.17.27-.31.35-.5.25-.23-.12-.37-.46-.29-.69.02-.06.08-.12.19-.23.15.37.5.23.75.37Z"/>
    <path class="cls-2" d="m86.77,44.55c.33-.15.42-.1.58.29-.23-.12-.37-.21-.58-.29Z"/>
    <path class="cls-2" d="m86.89,39.45c-.37.21-.9.17-1.1-.06.37-.04.71-.04,1.1.06Z"/>
    <path class="cls-2" d="m86.14,41.17c-.23.21-.42-.02-.58-.02.19-.15.37-.12.58.02Z"/>
    <path class="cls-2" d="m85.58,35.05q.35.02.54.25-.48-.04-.54-.25Z"/>
    <path class="cls-2" d="m85.14,39.22v.08c-.37.19-.48.19-.67-.08h.67Z"/>
    <path class="cls-2" d="m85.27,37.49c-.33.17-.37.15-.77-.19.27-.04.5.06.77.19Z"/>
    <path class="cls-2" d="m83.14,43.13c-.04-.31.06-.33.25-.23-.1.08-.15.12-.25.23Z"/>
    <path class="cls-2" d="m82.58,39.2q.29-.06.4.25c-.19-.06-.37-.02-.4-.25Z"/>
    <path class="cls-2" d="m82.92,41.45q-.23.08-.65-.15.21-.17.65.15Z"/>
    <path class="cls-2" d="m82.81,42.86c-.19,0-.44.19-.58-.15.25-.12.42,0,.58.15Z"/>
    <path class="cls-2" d="m82.62,89.92s-.06.08-.08.08c-.46-.15-.9-.27-1.42-.42.08-.1.12-.17.17-.19.31-.04,1.06.25,1.33.52Z"/>
    <path class="cls-2" d="m82.62,90.88c-.12.23-.25.23-.4.12-.12-.08-.31-.15-.17-.42.19.1.35.19.56.29Z"/>
    <path class="cls-2" d="m82.37,110.22c.06.21-.02.27-.15.27-.23-.02-.52.06-.69-.25.29-.25.56.04.83-.02Z"/>
    <path class="cls-2" d="m82.06,36.2c.29-.1.4-.06.58.27-.25-.06-.48-.02-.58-.27Z"/>
    <path class="cls-2" d="m82.25,39.11v.1c-.12.02-.27.02-.46.02q.19-.25.46-.12Z"/>
    <path class="cls-2" d="m81.64,109.18c.1-.29.17-.33.56-.31-.04.31-.17.4-.56.31Z"/>
    <path class="cls-2" d="m82.02,36.97c-.44.08-.71-.17-1-.35.25-.08.81.12,1,.35Z"/>
    <path class="cls-2" d="m82.06,32.08c-.19.17-.35.1-.54-.25.27-.04.4.12.54.25Z"/>
    <path class="cls-2" d="m81.77,42.61l-.87-.19c-.83-.25-1.69-.52-2.5-.9-.31-.15-.6-.31-.9-.5-.1-.06-.19-.15-.04-.31.81.58,1.73.9,2.64,1.21.5.15,1.02.33,1.52.5.06.02.12.08.15.19Z"/>
    <path class="cls-2" d="m81.56,91.94c.12.06.21.12.12.29-.29-.1-.62-.08-.79-.44.29-.15.48.02.67.15Z"/>
    <path class="cls-2" d="m81.67,36.05s-.06.04-.08.08c-.29-.08-.56-.17-.85-.27-.54-.19-1.1-.4-1.64-.58-.27-.1-.5-.25-.6-.56h.15c.73.52,1.58.71,2.42.98.17.06.33.17.5.25.04.02.08.06.12.1Z"/>
    <path class="cls-2" d="m81.46,90.61s.08.08.1.12c-.04.04-.1.12-.17.12-.08.02-.19-.02-.27-.04-.42-.17-.81-.31-1.25-.48.02-.17.08-.25.27-.19.31.1.62.21.94.33.12.04.25.06.37.12Z"/>
    <path class="cls-2" d="m81.42,109.43s-.04.08-.04.1c-.5.02-1-.1-1.5.08.08-.29.29-.4.48-.42.29-.02.58.02.87.06.06,0,.12.1.19.17Z"/>
    <path class="cls-2" d="m81.42,39.01c-.4.1-.48.06-.48-.17q.31.02.48.17Z"/>
    <path class="cls-2" d="m81.21,97.46c.12,0,.17.12.1.27-.21-.02-.46.12-.67-.1.15-.19.35-.21.56-.17Z"/>
    <path class="cls-2" d="m81,34.22q.42.02.5.33c-.23,0-.4-.1-.5-.33Z"/>
    <path class="cls-2" d="m80.85,94.79c.17-.02.29,0,.35.25-.35.02-.69.15-1.06.06.19-.33.46-.29.71-.31Z"/>
    <path class="cls-2" d="m80.65,32.01c.19-.04.31-.02.35.21-.17,0-.29-.02-.35-.21Z"/>
    <path class="cls-2" d="m80.87,37.03c-.06.04-.1.06-.12.08-.04-.04-.08-.1-.1-.17,0,0,.06-.06.1-.06.04.02.08.08.12.15Z"/>
    <path class="cls-2" d="m80.67,38.45c.15.1.08.19-.02.29-.1-.06-.19-.15-.1-.27.02-.02.08-.04.12-.02Z"/>
    <path class="cls-2" d="m80.15,110.24q.37-.25.52,0-.31.19-.52,0Z"/>
    <path class="cls-2" d="m80.62,99.64c-.27.15-.35.12-.67-.08.33-.23.46-.21.67.08Z"/>
    <path class="cls-2" d="m80.44,103.2s-.04.08-.08.1c-.19.06-.35-.02-.54-.27.23,0,.37,0,.52.02.04,0,.1.08.1.15Z"/>
    <path class="cls-2" d="m80.4,108.51s0,.17-.02.17c-.25.02-.48.17-.73-.1.21-.04.4-.12.6-.17.04,0,.12.06.15.1Z"/>
    <path class="cls-2" d="m80.35,92.63c.06.15.02.21-.1.21-.42,0-.65.06-.85-.33.37-.23.65.15.96.12Z"/>
    <path class="cls-2" d="m79.48,101.58c.31.06.6.12.9.19,0,.19-.1.25-.23.23-.42-.06-.83-.12-1.25-.21-.06-.02-.12-.12-.12-.17.02-.06.1-.12.17-.12.19,0,.37.04.54.08Z"/>
    <path class="cls-2" d="m80.19,96.04c.12.02.21.12.15.29-.21,0-.42,0-.62-.02-.06-.02-.1-.15-.17-.21.06-.04.15-.15.21-.15.15,0,.29.02.44.08Z"/>
    <path class="cls-2" d="m80.21,97.23c.1.02.15.19.04.21-.1.04-.23.04-.33.02-.12,0-.12-.02-.27-.25.23.02.4,0,.56.02Z"/>
    <path class="cls-2" d="m78.98,100.37c.42.04.81.08,1.23.12-.02.06,0,.17-.04.19-.23.17-.94.08-1.12-.12-.04-.04-.04-.1-.06-.19Z"/>
    <path class="cls-2" d="m80.19,36.84c-.19.12-.35.04-.52-.02-.12-.04-.17-.15-.12-.31.21.1.48.08.65.33Z"/>
    <path class="cls-2" d="m79.31,98.37c.33-.25.67-.21.81.1-.29.12-.56.12-.81-.1Z"/>
    <path class="cls-2" d="m79.63,105.97s-.04.12-.08.15c-.19.08-.37.15-.58.19-.12.04-.25,0-.27-.19.21-.23.52-.19.77-.27.04,0,.12.08.17.12Z"/>
    <path class="cls-2" d="m79.88,103.68c-.5.19-.69.15-1-.17.29-.15.81-.06,1,.17Z"/>
    <path class="cls-2" d="m79.44,32.14c-.04.06-.08.12-.1.19-.02-.02-.06-.04-.06-.04l.06-.19s.06.02.1.04Z"/>
    <path class="cls-2" d="m79.19,104.47c.15-.02.27.02.33.27-.46.06-.85.19-1.29-.08.29-.33.65-.15.96-.19Z"/>
    <path class="cls-2" d="m79.4,94.85c-.06.06-.15.15-.21.15-.19,0-.33-.04-.42-.29.17-.02.31-.08.44-.04.06,0,.12.12.19.19Z"/>
    <path class="cls-2" d="m78.54,108.85c.21-.12.44-.15.71-.04-.04.06-.06.17-.12.19-.15.06-.33.08-.5.12-.04,0-.15-.04-.17-.06,0-.08.02-.17.08-.21Z"/>
    <path class="cls-2" d="m79.13,36.26c.04.06.1.1.1.15-.02.06-.08.1-.17.17-.04-.06-.08-.12-.08-.15.04-.06.1-.1.15-.17Z"/>
    <path class="cls-2" d="m79.15,97.14c.06.25-.12.27-.23.25-.21-.02-.48.04-.62-.27.31-.08.58,0,.85.02Z"/>
    <path class="cls-2" d="m78.98,36.12c-.19.25-.37.1-.54.06-.04-.02-.06-.12-.12-.25.27.08.46.12.67.19Z"/>
    <path class="cls-2" d="m78.85,99.43c-.31.17-.67.12-.94-.15.37-.17.71-.12.94.15Z"/>
    <path class="cls-2" d="m78.5,102.47c.06.25.02.37-.17.35-.06-.02-.12-.12-.19-.19.1-.04.21-.1.35-.17Z"/>
    <path class="cls-2" d="m69.34,111.76c.17-.15.6-.12.92.06-.33.1-.58.19-.83.25-.04,0-.12-.06-.12-.1-.02-.06,0-.17.04-.21Z"/>
    <path class="cls-2" d="m69.92,111.03c-.02.25-.19.29-.4.25.04-.31.08-.35.4-.25Z"/>
    <path class="cls-2" d="m68.74,110.26s.08.06.1.08c-.02.08-.02.23-.08.25-.31.15-.65.23-1.02.1.23-.46.73-.15,1-.44Z"/>
    <path class="cls-2" d="m68.84,89.23c-.23.27-.62.23-1.12-.12.42-.08.77.08,1.12.12Z"/>
    <path class="cls-2" d="m68.44,111.24c0,.1.02.23,0,.25-.25.17-.52.25-.9.23.21-.42.56-.37.9-.48Z"/>
    <path class="cls-2" d="m68.17,87.38s-.04.12-.06.12c-.42-.02-.85,0-1.25-.27.25-.15.81-.08,1.31.15Z"/>
    <path class="cls-2" d="m68.17,101.16c-.04.1-.02.21-.06.25-.1.1-.5.17-.69.12.06-.42.42-.33.75-.37Z"/>
    <path class="cls-2" d="m67.42,96.89c.21,0,.44-.12.58.12-.17.21-.31.21-.94.1.08-.21.21-.25.35-.23Z"/>
    <path class="cls-2" d="m67.76,90.75c-.1.04-.19.1-.25.08-.29-.1-.6-.23-.98-.37.37-.25.79-.12,1.23.29Z"/>
    <path class="cls-2" d="m67.42,102.77c.06.02.08.12.15.23-.23.04-.42.15-.6-.02.12-.19.27-.29.46-.21Z"/>
    <path class="cls-2" d="m67.49,104.26q-.21.15-.73-.08c.1-.06.19-.17.29-.19.21-.02.37.06.44.27Z"/>
    <path class="cls-2" d="m67.34,107.7c0,.17.06.31,0,.37-.1.15-.25.06-.37.02-.02-.27.17-.27.37-.4Z"/>
    <path class="cls-2" d="m66.67,100.54c.21-.29.42-.33.67-.19-.19.25-.29.29-.67.19Z"/>
    <path class="cls-2" d="m67.15,88.57c-.35.04-.67-.1-.94-.23-.19-.08-.44-.15-.46-.48.08,0,.17-.02.21.02.4.17.77.35,1.15.54.02,0,.02.06.04.15Z"/>
    <path class="cls-2" d="m67.01,105.14s.12.06.12.1c0,.06-.06.19-.1.19-.17.02-.33.02-.52.02.12-.31.25-.4.5-.31Z"/>
    <path class="cls-2" d="m67.09,98.79c-.04.15-.02.25-.08.27-.17.15-.46.15-.81.02.02-.04.04-.12.08-.12.25-.06.5-.1.81-.17Z"/>
    <path class="cls-2" d="m67.09,109.85c-.12.21-.31.17-.52.15.1-.37.15-.37.52-.15Z"/>
    <path class="cls-2" d="m66.97,86.21c-.42.06-.44.06-.96-.25.21-.27.52-.21.96.25Z"/>
    <path class="cls-2" d="m66.76,106.24c.06.17-.02.25-.17.25-.19.04-.4.04-.58.04-.04,0-.08-.08-.12-.12.25-.31.31-.31.87-.17Z"/>
    <path class="cls-2" d="m66.09,104.24s.1.08.15.12c-.06.06-.1.15-.17.17-.19,0-.4,0-.58-.02-.06,0-.1-.08-.17-.12.06-.06.1-.17.17-.19.1-.02.21,0,.31,0v.02c.1,0,.21,0,.29.02Z"/>
    <path class="cls-2" d="m65.36,108.43c.15-.23.29-.29.81-.27-.02.33-.37.44-.81.27Z"/>
    <path class="cls-2" d="m66.11,101.54s-.02.1-.06.12c-.15.1-.4.04-.56-.15.17-.21.35-.15.52-.1.04,0,.1.08.1.12Z"/>
    <path class="cls-2" d="m66.15,98.31c-.1.06-.17.15-.23.15-.5-.06-1.02-.06-1.54-.31.42-.25.6-.23,1.77.17Z"/>
    <path class="cls-2" d="m65.92,89.29c-.27.12-.46.1-.77-.12.31-.19.52-.15.77.12Z"/>
    <path class="cls-2" d="m64.8,99.91c.23-.37.56-.12.94-.17-.27.33-.6.37-.94.17Z"/>
    <path class="cls-2" d="m64.82,102.95c.27,0,.54.02.87.02-.15.33-.4.27-.58.29-.17.02-.35-.04-.52-.06-.02-.02-.06-.08-.04-.1,0-.04.04-.08.06-.12.02-.02.06-.02.08-.02h.12Z"/>
    <path class="cls-2" d="m65.61,91.13s0,.06-.02.1c-.29.21-.6.08-.92-.06.04-.06.08-.15.1-.15.27.02.56.06.83.1Z"/>
    <path class="cls-2" d="m65.51,105.78c-.12.29-.31.35-.71.23.04-.29.21-.35.71-.23Z"/>
    <g>
      <path class="cls-1" d="m79.54,96.1c.13.39.27.78.38,1.17.04.17.04.36.05.55,0,.14-.01.28-.03.42-.03.22-.08.44-.12.65-.07.31-.12.62-.1.94.03.29.04.59-.17.84-.14.17-.26.34-.39.51-.22.27-.38.57-.43.9-.13.79-.55,1.39-1.11,1.93-.02.02-.05.05-.08.07-.29.2-.57.44-.88.58-.29.12-.62.17-.93.17-.35,0-.68.07-1.02.13-.65.12-1.29.22-1.96.16-.52-.04-1.04-.06-1.56-.11-.17-.01-.33-.09-.49-.17-.55-.24-1.08-.5-1.62-.75-.12-.06-.25-.09-.37-.11-.39-.07-.66-.3-.89-.6-.09-.13-.2-.24-.28-.38-.08-.12-.13-.26-.17-.41-.13-.44-.23-.89-.42-1.32-.17-.39-.24-.82-.31-1.24-.06-.36-.09-.72-.1-1.08-.01-.23-.01-.48.07-.69.07-.18.02-.36.1-.51.09-.16.08-.32.09-.49,0-.09.03-.21.09-.28.18-.24.28-.5.32-.79.01-.01,0-.02.01-.03.2-.19.23-.48.38-.69.05-.06.1-.12.12-.19.16-.47.43-.87.71-1.27.17-.24.4-.41.67-.56.34-.18.66-.37,1.03-.45.09-.02.17-.08.24-.13.12-.07.2-.16.29-.27.1-.14.27-.24.43-.29.23-.08.41-.25.61-.37.18-.1.32-.26.49-.35.4-.2.76-.47,1.25-.43.26.03.53-.05.8-.07.26,0,.52,0,.71,0,.89.19,1.68.42,2.35.95.3.23.55.52.76.84.22.35.45.71.68,1.06,0,.03.05.06.05.1.03.34.22.63.34.94.15.37.28.75.41,1.12Z"/>
      <path class="cls-2" d="m79.82,98.89c.04-.21.09-.43.12-.65.02-.14.03-.28.03-.42-.01-.19-.01-.38-.05-.55-.11-.39-.25-.78-.38-1.17-.13-.37-.26-.75-.41-1.12-.12-.31-.31-.6-.34-.94,0-.04-.04-.07-.05-.1-.23-.35-.46-.71-.68-1.06-.21-.32-.46-.61-.76-.84-.67-.53-1.46-.76-2.35-.95-.19,0-.45,0-.71,0-.27.02-.54.1-.8.07-.49-.04-.85.23-1.25.43-.17.09-.31.25-.49.35-.2.12-.38.29-.61.37-.16.05-.33.15-.43.29-.09.11-.17.2-.29.27-.07.05-.15.11-.24.13-.37.08-.69.27-1.03.45-.27.15-.5.32-.67.56-.28.4-.55.8-.71,1.27-.02.07-.07.13-.12.19-.15.21-.18.5-.38.69-.01.01,0,.02-.01.03-.04.29-.14.55-.32.79-.06.07-.09.19-.09.28-.01.17,0,.33-.09.49-.08.15-.03.33-.1.51-.08.21-.08.46-.07.69.01.36.04.72.1,1.08.07.42.14.85.31,1.24.19.43.29.88.42,1.32.04.15.09.29.17.41.08.14.19.25.28.38.23.3.5.53.89.6.12.02.25.05.37.11.54.25,1.07.51,1.62.75.16.08.32.16.49.17.52.05,1.04.07,1.56.11.67.06,1.31-.04,1.96-.16.34-.06.67-.12,1.02-.13.31,0,.64-.05.93-.17.31-.14.59-.38.88-.58.03-.02.06-.05.08-.07.56-.54.98-1.14,1.11-1.93.05-.33.21-.63.43-.9.13-.17.25-.34.39-.51.21-.25.2-.55.17-.84-.02-.32.03-.63.1-.94Zm.95.45c.02.29,0,.58-.06.86-.03.19-.1.37-.24.52-.09.1-.19.22-.25.34-.11.26-.32.42-.5.62-.06.07-.09.15-.14.23-.06.1-.12.2-.17.31-.04.08-.08.17-.08.26-.02.33-.25.59-.32.9-.21.14-.32.35-.39.59,0,.02-.05.05-.09.06-.14.01-.2.11-.25.23-.11.22-.29.36-.51.47-.16.08-.32.18-.44.31-.19.2-.46.2-.68.33-.12.07-.3.04-.45.06-.29.05-.58.09-.87.13-.09.02-.18.04-.28.04-.41,0-.81.08-1.21.19-.08.02-.18,0-.28,0-.13,0-.25.01-.38.01-.19-.01-.39.01-.56-.04-.39-.12-.78-.08-1.16-.09-.31-.01-.59-.11-.85-.24-.56-.26-1.1-.54-1.66-.8-.09-.05-.21-.07-.32-.09-.18-.04-.34-.13-.48-.27-.09-.09-.22-.17-.32-.26-.34-.29-.56-.67-.78-1.06-.05-.07-.08-.17-.09-.26-.01-.25-.1-.47-.23-.68-.25-.35-.32-.77-.39-1.18-.07-.36-.13-.71-.19-1.07-.07-.4-.03-.8.02-1.2.03-.32.07-.64.12-.96.03-.2.1-.39.14-.6.07-.35.12-.71.09-1.08-.02-.29.08-.55.2-.8.21-.45.48-.86.63-1.34.06-.17.22-.32.34-.47.11-.13.22-.26.34-.38.05-.05.11-.09.18-.12.47-.18.93-.4,1.44-.48.17-.02.34-.1.5-.18.37-.19.74-.38,1.1-.59.21-.11.4-.23.59-.37.39-.27.83-.42,1.3-.47.58-.07,1.17-.03,1.75.03.18.02.35.02.61.04.31.11.68.25,1.06.37.41.15.74.42,1.09.66.4.27.65.66.92,1.02.17.23.33.46.49.69.1.13.19.25.15.44-.03.18.1.32.22.43.08.08.11.16.14.26.04.17.11.33.17.49.11.28.23.55.33.82.07.18.1.36.16.53.06.15.12.3.22.42.21.24.32.53.41.82.07.2.05.43.07.64.04.31-.01.59-.16.85-.02.03,0,.08,0,.11Z"/>
    </g>
    <path class="cls-2" d="m66.98,92.11c-.09-.11-.18-.2-.24-.31-.08-.13,0-.23.08-.32.08-.09.17,0,.24.05.03.02.06.05.08.07.14.14.14.2,0,.35-.04.04-.08.07-.17.15Z"/>
    <path class="cls-2" d="m79.54,91.89c.23-.28.46-.55.84-.63.19-.04.27.04.29.24.02.2-.09.35-.23.45-.17.12-.37.2-.57.3-.11-.12-.21-.23-.32-.36Z"/>
    <path class="cls-2" d="m63.66,54.59c.19.21.38.39.54.6.07.09.13.17.22.24.07.06.11.17.16.25.15.22.29.44.44.67.02.03.04.06.07.09.15.12.3.22.3.44.19.1.21.31.3.47.1.18.17.36.21.57.05.21.19.4.29.6.14.3.28.59.37.91.07.26.15.53.32.76.09.12.15.28.18.44.14.7.45,1.35.57,2.06.03.18,0,.42.2.57.04.03,0,.16.03.24.1.32.22.63.33.94,0,.03.04.05.04.07.02.31.17.58.28.86.14.38.27.76.43,1.13.09.23.23.44.32.67.05.12.08.26.11.4.06.25.15.49.32.69.19.24.35.5.36.82,0,.05.01.09,0,.14-.06.28-.21.35-.47.23-.17-.07-.3-.19-.38-.36-.05-.1-.1-.2-.13-.31-.07-.27-.19-.51-.38-.73-.2-.24-.34-.53-.49-.81-.31-.56-.62-1.13-.91-1.7-.1-.2-.17-.41-.26-.62-.12-.27-.26-.54-.38-.81-.19-.44-.35-.89-.55-1.32-.24-.52-.33-1.08-.45-1.63-.12-.54-.2-1.1-.36-1.64-.11-.39-.3-.76-.46-1.14-.14-.32-.28-.65-.44-.96-.3-.58-.49-1.2-.74-1.8-.04-.09-.11-.17-.15-.26-.18-.37-.17-.4.13-.74Z"/>
    <path class="cls-2" d="m50.99,70.5c.29.01.47.15.6.33.31.42.66.82.9,1.28.22.4.52.71.79,1.05.04.05.09.1.11.16.06.23.21.4.37.55.34.32.6.71.98.99.18.13.31.33.46.51.29.37.55.75.85,1.1.22.25.49.46.75.66.25.2.52.38.8.55.65.4,1.16.97,1.73,1.46.51.44.9.98,1.35,1.48.48.54.92,1.1,1.32,1.69.1.15.25.27.36.42.27.33.55.65.79,1.01.24.37.47.73.77,1.06.43.47.75,1.01,1.07,1.56.26.44.58.84.86,1.27.25.39.51.77.71,1.2.23.48.51.94.91,1.31.16.15.28.35.41.52-.04.08-.06.14-.1.19-.07.12-.17.16-.31.11-.26-.08-.44-.25-.55-.49-.09-.21-.21-.39-.38-.54-.04-.03-.07-.08-.1-.13-.31-.5-.63-1-.92-1.5-.15-.26-.29-.54-.38-.83-.11-.35-.32-.63-.53-.91-.33-.45-.67-.89-1.02-1.33-.3-.38-.62-.73-.93-1.1-.1-.12-.2-.25-.3-.37-.28-.34-.57-.67-.83-1.02-.33-.45-.65-.91-.94-1.39-.19-.31-.43-.55-.67-.81-.21-.23-.42-.44-.57-.72-.07-.13-.17-.24-.29-.33-.3-.23-.61-.44-.92-.66-.33-.24-.65-.51-1-.71-.31-.18-.57-.41-.83-.65-.21-.19-.38-.43-.6-.61-.4-.34-.76-.72-1.06-1.14-.06-.09-.15-.16-.24-.23-.33-.27-.54-.63-.78-.98-.43-.61-.9-1.19-1.38-1.77-.15-.18-.35-.33-.54-.49-.25-.21-.49-.42-.66-.71-.13-.22-.21-.43-.14-.69.03-.11.04-.22.06-.34Z"/>
    <path class="cls-2" d="m40.1,54.72c.18.12.34.21.48.32.31.25.61.52.92.77.58.46,1,1.08,1.51,1.6.27.28.54.56.82.85.38.4.76.79,1.14,1.19.6.62,1.21,1.23,1.8,1.86.42.44.84.89,1.11,1.46.15.3.42.54.63.82.24.32.43.68.69.98.18.22.4.42.63.6.4.32.89.51,1.21.92.16.2.31.42.44.64.1.17,0,.57-.15.7-.12.1-.27.06-.37,0-.28-.16-.6-.27-.81-.54-.03-.04-.06-.08-.1-.1-.42-.27-.61-.7-.73-1.16-.09-.34-.27-.61-.48-.87-.46-.56-.93-1.12-1.4-1.67-.24-.28-.52-.53-.78-.79-.15-.15-.29-.32-.44-.46-.31-.29-.62-.59-.95-.86-.48-.41-.97-.8-1.44-1.22-.38-.34-.73-.72-1.1-1.08-.26-.26-.52-.53-.78-.8-.33-.33-.68-.64-.97-1-.32-.4-.59-.84-.87-1.27-.08-.13-.08-.67,0-.89Z"/>
    <path class="cls-2" d="m38.99,78.63c.1,0,.19-.03.25,0,.13.05.26.12.37.2.46.36.92.72,1.38,1.09.28.23.55.47.83.71.28.23.55.47.84.7.41.32.82.65,1.27.92.66.41,1.35.78,2.03,1.16.49.27,1,.5,1.49.78.38.22.74.46,1.1.72.37.27.72.56,1.08.84.07.06.16.09.25.13.21.11.46.19.63.35.16.16.31.34.5.47.17.12.29.31.44.45.46.45.89.92,1.29,1.43.31.4.71.74,1.09,1.08.37.33.75.63,1.06,1.03.21.27.47.5.73.73.47.41.95.82,1.44,1.2.75.59,1.54,1.12,2.42,1.49.29.12.56.29.85.43.59.28,1.19.53,1.77.82.43.22.87.4,1.25.7-.12.25-.18.26-.4.13-.13-.08-.24-.19-.43-.19-.11,0-.2-.15-.32-.2-.48-.21-.96-.4-1.43-.6-.78-.34-1.53-.72-2.24-1.19-.12-.08-.26-.12-.37-.2-.3-.22-.63-.38-.91-.64-.2-.19-.47-.29-.7-.45-.39-.27-.81-.51-1.15-.84-.54-.52-1.11-1.01-1.73-1.44-.07-.05-.14-.1-.19-.17-.35-.47-.8-.84-1.21-1.25-.19-.19-.36-.4-.53-.6-.04-.04-.08-.08-.12-.11-.51-.35-.93-.8-1.32-1.28-.23-.28-.46-.55-.78-.75-.11-.07-.18-.18-.28-.27-.6-.51-1.24-.97-1.9-1.4-.58-.39-1.17-.76-1.77-1.12-.31-.19-.65-.32-.97-.5-.45-.26-.91-.51-1.34-.8-.35-.23-.65-.53-.98-.79-.48-.38-.97-.76-1.46-1.13-.41-.31-.81-.62-1.22-.93-.06-.05-.11-.1-.18-.14-.21-.12-.35-.3-.44-.6Z"/>
    <path class="cls-2" d="m41.47,68.62c.38-.06.61.05.84.32.37.43.71.89,1.14,1.27.36.32.69.69.98,1.08.42.57.92,1.05,1.46,1.49.14.12.27.25.4.39.34.37.67.75,1.01,1.12.29.32.61.62.9.94.14.15.23.34.36.5.28.36.58.71.84,1.08.28.39.49.81.65,1.27.13.37.31.72.56,1.03.2.26.38.53.57.8.28.38.57.75.86,1.12.05.07.11.13.17.18.17.14.33.29.46.48.12.17.28.33.44.47.34.3.67.61.98.95.22.25.51.43.77.64.54.43,1.12.8,1.7,1.17.38.24.73.51,1.12.74.99.6,1.97,1.21,2.91,1.87.3.21.62.4.92.62.23.17.39.38.42.66,0,.09-.02.21-.08.28-.08.08-.19.01-.28-.05-.36-.26-.72-.52-.99-.89-.05-.07-.12-.12-.18-.17-.37-.27-.74-.52-1.11-.8-.38-.28-.79-.49-1.21-.69-.25-.12-.49-.28-.74-.42-.09-.05-.17-.11-.26-.15-.32-.14-.59-.36-.86-.57-.3-.23-.63-.42-.94-.64-.2-.14-.41-.29-.58-.47-.32-.31-.61-.66-.93-.97-.3-.29-.62-.56-.93-.84-.06-.05-.12-.11-.17-.17-.43-.43-.78-.92-1.23-1.32-.23-.2-.44-.45-.6-.73-.42-.72-.85-1.44-1.29-2.15-.36-.58-.75-1.14-1.12-1.71-.09-.14-.17-.29-.26-.43-.16-.25-.3-.52-.48-.75-.18-.22-.41-.41-.61-.61-.19-.19-.4-.37-.54-.59-.17-.28-.39-.49-.63-.71-.46-.43-.92-.87-1.39-1.29-.4-.35-.73-.76-1.1-1.14-.27-.28-.51-.6-.76-.9-.17-.2-.39-.31-.61-.44-.09-.05-.17-.11-.24-.19-.1-.13-.19-.27-.27-.42-.04-.07-.03-.16-.05-.26Z"/>
    <path class="cls-2" d="m53.9,59.52c.39.27.74.53,1,.89.08.11.2.2.31.28.26.19.39.49.62.71.02.02.03.05.04.07.15.32.29.65.46.95.12.21.16.46.33.66.09.11.08.31.16.44.18.3.26.66.56.89-.03.24.24.29.3.5.05.18.24.33.35.5.11.17.2.37.32.54.13.19.25.39.43.55.23.22.41.49.62.73.2.22.42.43.64.63.34.31.68.61.99.94.18.18.32.4.49.6.02.02.04.04.05.06.27.3.57.59.81.92.19.27.45.47.65.73.19.25.39.53.7.68.12.06.2.22.27.34.18.31.43.56.7.79.1.08.19.19.24.3.06.16.17.19.32.21.05,0,.1.04.16.06.06.28.11.56.18.84.04.14,0,.27-.11.31-.1.04-.24.07-.36-.04-.31-.3-.6-.61-.82-.98-.03-.05-.04-.1-.06-.16-.05-.1-.07-.22-.15-.29-.22-.21-.42-.43-.55-.71-.1-.22-.32-.3-.47-.47-.28-.31-.57-.61-.87-.9-.33-.33-.67-.65-.99-.98-.32-.33-.63-.68-.95-1.02-.2-.21-.39-.42-.58-.64-.2-.22-.39-.44-.59-.67-.06-.07-.12-.14-.18-.21-.27-.32-.55-.63-.81-.95-.39-.49-.79-.97-1.16-1.48-.33-.46-.58-.97-.76-1.5-.17-.5-.45-.93-.73-1.37-.29-.46-.64-.87-.97-1.29-.19-.24-.41-.45-.58-.69-.09-.13-.16-.3-.17-.46,0-.09.11-.19.18-.29Z"/>
    <path class="cls-2" d="m69.47,76.92c-.23.04-.36-.08-.43-.27-.15-.41-.31-.82-.42-1.24-.2-.74-.43-1.47-.77-2.15-.32-.63-.67-1.24-1.1-1.8-.21-.28-.4-.58-.6-.88-.38-.56-.77-1.13-1.15-1.69-.1-.15-.19-.3-.29-.45-.28-.43-.57-.86-.83-1.29-.13-.21-.22-.43-.32-.65-.24-.53-.47-1.05-.7-1.58-.13-.3-.29-.58-.39-.89-.16-.46-.29-.92-.43-1.38-.05-.16-.1-.32-.14-.48-.08-.27-.17-.53-.22-.8-.03-.14.07-.24.2-.31.16.1.3.21.39.37.04.07.12.11.16.18.04.08.04.18.07.26.07.2.16.41.23.61.01.03.02.05.02.08.02.29.14.55.26.81.1.22.15.45.21.68.15.56.31,1.12.55,1.64.16.35.33.7.55,1.02.23.34.46.68.68,1.03.15.23.36.43.46.68.16.38.43.69.67.99.32.41.58.86.95,1.23.03.03.05.08.07.12.13.3.25.61.45.87.14.18.21.41.31.62.08.17.13.36.22.53.27.48.44.99.63,1.5,0,.03.02.06.03.08.34.43.38.98.61,1.44.11.22.16.44.21.67.04.18.04.33-.11.45Z"/>
    <path class="cls-2" d="m73.06,75.38c.07.12.14.18.15.26.05.23.14.45.26.66.17.31.25.65.32.99.03.14.11.28.04.45-.03.07.06.2.1.3.02.04.05.09.05.13-.04.42.12.8.19,1.21.03.21.04.42.04.63,0,.27.06.55.13.82.06.26.1.51.09.78-.01.36.05.73.14,1.09.12.51.23,1.02.25,1.55,0,.2.06.4.09.6.03.21.08.41.1.62.02.2.07.38.17.55.08.14.09.28.08.43-.01.13,0,.26,0,.39.02.19-.14.46-.32.53-.1.04-.17.02-.25-.06-.18-.18-.25-.38-.22-.63.07-.45.04-.91,0-1.36-.02-.3-.09-.6-.13-.9-.04-.3-.06-.61-.11-.91-.06-.33-.17-.65-.23-.97-.05-.28-.09-.57-.09-.86,0-.27,0-.54-.09-.8-.14-.38-.09-.78-.14-1.16-.03-.19-.04-.39-.08-.58-.12-.47-.21-.94-.25-1.43-.03-.42-.18-.82-.35-1.21-.15-.35-.33-.68-.45-1.04-.1-.28-.26-.53-.37-.81-.16-.37-.3-.74-.44-1.11-.17-.44-.48-.81-.71-1.22-.13-.23-.23-.47-.34-.71-.09-.19-.2-.38-.24-.59-.04-.18-.04-.39,0-.57.02-.16.2-.16.32-.18.11-.02.13.11.18.2.15.3.08.67.28.95.37.52.62,1.11,1.04,1.61.2.24.36.52.46.82.01.04.03.07.03.11.05.28.09.55.15.83.02.11.04.25.11.31.14.12.09.23.05.31Z"/>
    <path class="cls-2" d="m62.08,66.53c.08.27-.1.44-.23.62-.06.08-.16.09-.22.01-.13-.16-.29-.28-.39-.49-.16-.32-.39-.61-.61-.9-.28-.39-.59-.77-.86-1.17-.42-.62-.82-1.24-1.23-1.87-.03-.05-.06-.1-.1-.13-.13-.1-.2-.21-.16-.38.01-.05-.01-.11-.04-.16-.25-.47-.5-.93-.75-1.4-.3-.58-.59-1.16-.91-1.73-.15-.28-.35-.53-.54-.78-.31-.4-.66-.78-.96-1.19-.14-.19-.23-.42-.32-.65-.08-.19-.03-.38.06-.59.07.03.15.04.2.08.21.17.43.32.54.59.03.07.08.12.13.18.29.35.58.69.94.97.24.19.37.46.54.7.15.22.29.44.35.71,0,.04.07.06.1.09.05.06.11.13.15.2.12.21.24.41.34.63.07.15.11.32.17.47.15.37.25.77.46,1.12.15.26.23.55.36.82.12.26.25.51.4.75.07.11.22.14.31.26.27.34.53.68.73,1.07.04.07.05.16.09.23.04.09.09.18.15.26.08.12.21.22.26.35.08.22.29.33.37.56.06.17.21.32.34.45.07.07.13.11.17.21.02.06.13.08.19.12Z"/>
    <path class="cls-2" d="m55.94,44.44c.2.04.32.14.36.34.04.2.15.32.36.28.1.18.06.4.24.53.05.04,0,.2.03.28.07.19.17.38.26.56.14.31.34.59.41.93.03.12.13.22.19.34.18.32.34.66.53.97.17.27.26.58.48.83.2.22.3.53.44.8.11.22.19.47.35.64.09.1.07.22.13.31.09.15.16.3.29.43.05.05.04.15.08.22.19.33.39.65.58.98.06.1.12.21.17.32.2.41.4.82.59,1.23.03.07.05.14.08.21.05.11.09.22.15.33.08.17.18.34.26.52.1.24.19.49.26.74.02.08.08.16.13.24.1.16.08.35.11.53.05.34.19.68.13,1.04-.02.1-.02.19-.13.2-.11,0-.2-.04-.24-.16,0-.02-.01-.04-.02-.05-.14-.71-.47-1.35-.7-2.02-.05-.14-.16-.26-.21-.4-.16-.45-.3-.9-.45-1.35-.17-.52-.39-1.01-.7-1.46-.33-.48-.66-.95-.97-1.44-.18-.28-.29-.6-.46-.89-.17-.27-.36-.53-.57-.76-.28-.31-.49-.66-.64-1.04-.22-.55-.43-1.11-.66-1.66-.1-.25-.24-.48-.38-.72-.18-.31-.36-.63-.44-.99-.03-.12-.09-.24-.16-.36-.13-.22-.14-.24.02-.43.03-.03.06-.07.09-.1Z"/>
    <path class="cls-2" d="m34.29,53.47c.26.28.45.52.68.72.23.19.48.37.74.51.35.18.68.38.94.68.23.27.5.5.73.76.21.24.43.48.58.75.41.75.9,1.45,1.37,2.17.38.58.73,1.19,1.11,1.77.27.41.6.79.88,1.19.22.31.39.65.62.96.23.31.48.61.76.88.19.19.18.4.21.65-.22,0-.39-.04-.5-.21-.1-.14-.2-.29-.3-.43-.04-.06-.09-.12-.15-.17-.46-.38-.78-.88-1.14-1.35-.36-.47-.61-1.02-.9-1.53-.22-.38-.42-.78-.67-1.13-.43-.58-.87-1.15-1.35-1.69-.52-.58-1.07-1.13-1.62-1.68-.2-.2-.42-.38-.65-.54-.37-.25-.58-.62-.86-.94-.06-.06-.11-.13-.18-.17-.26-.16-.36-.42-.4-.69-.02-.14.07-.31.12-.52Z"/>
    <path class="cls-2" d="m58.89,83.23c-.2.09-.36.09-.53,0-.3-.16-.56-.35-.83-.55-.58-.44-1.1-.95-1.75-1.29-.31-.16-.6-.38-.88-.6-.29-.23-.58-.47-.84-.74-.32-.32-.6-.69-.92-1.01-.23-.23-.43-.46-.58-.74-.02-.03-.04-.07-.06-.09-.52-.47-.93-1.05-1.4-1.57-.17-.19-.4-.34-.57-.53-.41-.47-.71-1.02-1.03-1.56-.21-.35-.42-.7-.67-1.02-.54-.68-1.1-1.34-1.66-2.01-.31-.37-.64-.72-.93-1.1-.12-.15-.19-.34-.26-.52-.02-.05.02-.13.03-.21.33-.01.56.14.74.36.35.43.69.88,1.04,1.32.38.49.77.96,1.14,1.46.43.58.83,1.17,1.25,1.75.31.43.65.84.97,1.27.21.28.39.59.6.88.2.29.41.57.63.86.12.16.25.3.37.46.18.24.35.48.54.71.18.22.37.42.55.63.01.01.02.03.04.04.33.2.55.52.84.76.24.2.47.43.74.57.63.33,1.15.83,1.76,1.19.08.05.16.1.24.14.32.15.62.32.95.43.35.12.47.36.51.7Z"/>
    <path class="cls-2" d="m41.52,86.24c.14.08.27.14.39.21.11.06.18.19.34.17.02,0,.05.04.08.07.48.52.95,1.05,1.5,1.49.15.12.31.24.47.35.35.25.61.59.88.92.24.3.51.56.82.79.39.29.76.6,1.14.9.21.16.45.3.68.44.17.11.36.21.53.32.52.33,1.03.67,1.55,1.01.39.25.78.51,1.18.75.17.1.35.18.52.27.3.15.6.29.9.45.63.33,1.3.54,1.97.74.52.15,1.02.35,1.53.53.03,0,.05.03.07.04.1.04.17.1.15.21-.02.09-.17.17-.28.14-.46-.13-.91-.27-1.36-.4-.22-.07-.44-.16-.66-.22-.5-.12-.93-.37-1.37-.61-.47-.26-.96-.5-1.43-.76-.73-.4-1.47-.79-2.19-1.22-.47-.28-.92-.6-1.37-.91-.15-.11-.27-.27-.42-.37-.47-.34-.95-.65-1.42-.99-.51-.37-1.01-.73-1.46-1.17-.49-.48-1.04-.91-1.56-1.36-.4-.34-.8-.66-1.08-1.12-.07-.11-.15-.21-.24-.31-.06-.07-.14-.15-.07-.24.05-.06.15-.07.24-.1Z"/>
    <path class="cls-2" d="m60.72,73.48c.18-.17.35-.1.51-.13.02,0,.04,0,.05.02.15.18.34.35.45.55.18.34.45.61.71.89.14.15.25.29.32.48.28.72.63,1.41,1.09,2.04.17.23.27.51.4.76.15.28.31.55.46.83.12.21.24.42.35.63.2.37.4.73.59,1.1,0,0,0,.02.01.03.43.4.71.91,1,1.41.09.15.22.28.31.43.12.21.22.43.33.64.04.08.04.16-.04.19-.04.02-.13,0-.17-.05-.07-.07-.13-.11-.23-.12-.14-.02-.31-.05-.31-.27,0-.06-.08-.12-.13-.17-.18-.16-.31-.34-.38-.57-.03-.13-.12-.25-.21-.36-.31-.39-.63-.76-.93-1.15-.21-.26-.41-.53-.59-.81-.22-.32-.42-.66-.61-1-.18-.32-.39-.63-.47-1,0-.04-.06-.07-.09-.1-.25-.22-.45-.47-.54-.8-.07-.27-.18-.52-.23-.8-.05-.24-.2-.47-.34-.69-.21-.33-.46-.63-.67-.96-.23-.34-.44-.69-.66-1.04Z"/>
    <path class="cls-2" d="m27.58,77.25c-.1-.03-.18-.04-.26-.07-.05-.02-.13-.06-.14-.11-.07-.36-.36-.58-.56-.85-.39-.52-.81-1.01-1.23-1.5-.26-.3-.56-.57-.84-.85-.13-.13-.26-.26-.39-.4-.34-.39-.66-.8-1.03-1.17-.48-.48-.98-.93-1.49-1.38-.41-.36-.85-.7-1.28-1.04-.31-.25-.65-.47-.95-.73-.64-.56-1.4-.95-2.11-1.41-.58-.37-1.09-.8-1.57-1.28-.08-.09-.19-.15-.27-.24-.03-.03-.04-.13-.02-.15.04-.04.11-.06.17-.05.07.01.14.05.19.1.36.37.81.63,1.22.93.73.53,1.49,1.03,2.22,1.56.35.25.66.55.99.82.47.37.95.73,1.43,1.08.26.19.54.35.8.55.18.13.33.29.51.43.57.47,1.15.94,1.72,1.41.41.34.69.79.94,1.26.21.39.44.78.8,1.06.23.17.47.33.7.5.29.22.45.54.58.87.08.22.03.44-.14.65Z"/>
    <path class="cls-2" d="m73.81,88.63c-.2.18-.4.16-.6.07-.04-.11-.09-.23-.12-.35-.06-.29-.11-.58-.15-.87-.09-.55-.18-1.1-.26-1.65-.02-.13-.03-.26-.05-.39-.06-.55-.15-1.1-.48-1.57-.05-.07-.07-.17-.09-.26-.05-.18-.09-.36-.18-.54-.12-.26-.13-.57-.18-.86-.06-.35-.14-.68-.26-1.01-.1-.29-.25-.57-.33-.86-.12-.42-.33-.78-.55-1.15-.14-.23-.25-.48-.36-.72-.02-.05-.03-.11-.03-.16,0-.23.12-.32.33-.22.11.05.25.06.33.19.03.06.14.09.21.13.1.31.19.62.37.9.1.15.18.33.24.52.09.3.13.61.26.9.11.24.08.55.2.78.19.37.13.82.38,1.16.02.03.02.09.03.13.08.36.16.71.25,1.07,0,.03.04.06.07.09.21.19.27.44.33.7.07.36.18.71.27,1.07.04.18.1.35.13.53,0,.04-.1.13-.09.14.14.17.02.34.02.5,0,.07.04.13.06.2,0,.03.03.07.02.08-.12.19.03.32.12.45.06.09.15.16,0,.24-.02.01-.04.11-.03.12.2.17.14.4.16.62,0,0,0,.02,0,.02Z"/>
    <path class="cls-2" d="m33.51,76.05c-.15.01-.24,0-.32.03-.19.08-.29-.2-.48-.1-.14-.09-.29-.17-.41-.28-.35-.31-.69-.64-1.08-.9-.21-.14-.4-.31-.59-.46-.32-.26-.64-.51-.95-.78-.2-.18-.41-.36-.58-.56-.46-.55-.91-1.11-1.36-1.67-.07-.09-.11-.19-.17-.29-.33-.47-.67-.94-.99-1.42-.08-.12-.17-.25-.21-.38-.06-.21-.22-.34-.36-.49-.18-.19-.35-.38-.5-.59-.14-.19-.07-.3.16-.35.21-.04.35,0,.48.18.12.17.29.32.44.47.1.1.23.17.33.27.21.21.24.49.33.73.14.37.36.68.56,1,.25.39.56.72.91,1.02.08.07.15.15.2.23.27.5.69.87,1.02,1.32.25.33.62.5.93.75.5.41,1.04.75,1.59,1.09.35.22.72.44.91.84.04.09.09.18.17.34Z"/>
    <path class="cls-2" d="m51.92,46.07c.07-.03.13-.05.19-.07.16-.05.26.02.36.16.17.24.33.5.54.7.32.32.57.7.83,1.06.07.09.08.23.11.34.03.11.06.21.1.32.06.15.12.31.19.46.08.16.16.33.26.48.24.36.49.72.74,1.08.05.07.11.12.17.17.04.04.09.09.12.14.19.28.38.57.57.85.04.06.07.14.08.21.02.16.03.33.03.5,0,.2-.14.29-.32.21-.26-.11-.42-.33-.48-.58-.11-.48-.42-.81-.73-1.15-.11-.12-.18-.26-.35-.35-.13-.07-.19-.26-.3-.38-.27-.31-.55-.61-.81-.93-.13-.16-.22-.34-.31-.52-.25-.47-.5-.94-.75-1.41-.09-.17-.16-.36-.26-.52-.16-.27-.07-.52,0-.76Z"/>
    <path class="cls-2" d="m28.32,82.6c-.26,0-.44-.15-.61-.29-.38-.32-.74-.66-1.09-1-.36-.35-.74-.66-1.18-.91-.43-.26-.83-.57-1.23-.88-.34-.26-.7-.49-1.08-.68-.15-.07-.28-.17-.39-.3-.26-.31-.54-.59-.81-.89-.15-.17-.31-.35-.42-.55-.18-.32-.45-.54-.73-.77-.18-.15-.23-.35-.3-.55-.04-.11.04-.15.13-.16.1,0,.2,0,.3,0,.06,0,.13.02.17.06.17.16.35.31.48.5.17.27.4.46.64.65.27.21.56.41.81.65.12.11.21.29.27.45.05.11.1.2.2.29.22.21.45.41.7.59.3.21.56.48.85.72.19.16.38.3.57.45.25.22.49.45.75.66.1.08.21.15.33.21.14.08.29.15.44.23.04.02.07.08.11.09.39.09.54.41.73.71.05.08.14.15.22.21.2.14.23.22.15.51Z"/>
    <path class="cls-2" d="m44.36,92.21c-.15.04-.28,0-.4-.07-.29-.2-.57-.4-.86-.6-.14-.1-.29-.2-.44-.28-.24-.13-.49-.26-.75-.38-.15-.07-.31-.13-.45-.21-.54-.29-1.08-.59-1.62-.88-.29-.15-.58-.29-.87-.45-.45-.24-.91-.46-1.34-.74-.44-.28-.84-.61-1.26-.91-.19-.13-.39-.25-.58-.38-.39-.27-.78-.54-1.16-.83-.04-.03-.07-.14-.05-.19.04-.11.17-.14.26-.1.26.12.53.23.77.39.57.38,1.11.78,1.67,1.18.3.21.58.44.89.63.9.55,1.84,1.01,2.82,1.42.41.17.81.39,1.21.57.48.21.88.55,1.29.87.26.21.53.41.8.61.14.1.19.2.09.35Z"/>
    <path class="cls-2" d="m26.47,51.81s.08.04.13.07c.5.34,1.01.67,1.51,1.01.66.45,1.13,1.08,1.6,1.71.32.43.61.89.94,1.32.17.23.38.44.61.61.39.3.74.63,1.08.97.26.26.55.47.85.67.22.15.4.36.6.54.22.2.44.41.66.6.1.08.15.16.07.28-.06.1-.12.12-.23.07-.36-.17-.64-.42-.91-.71-.18-.2-.4-.36-.61-.54-.25-.21-.51-.4-.76-.61-.2-.17-.39-.34-.58-.52-.21-.2-.41-.4-.61-.61-.3-.32-.58-.65-.89-.96-.34-.34-.57-.76-.82-1.16-.27-.45-.62-.8-1.09-1.04-.33-.17-.65-.36-.95-.57-.32-.23-.61-.49-.76-.87-.06-.15,0-.26.17-.25Z"/>
    <path class="cls-2" d="m48.52,57.18c-.13.08-.24.18-.38.22-.12.03-.27.02-.38-.11-.13-.13-.29-.23-.43-.35-.11-.09-.23-.17-.3-.29-.08-.15-.2-.26-.31-.39-.5-.61-1.01-1.22-1.39-1.93-.25-.48-.57-.91-.95-1.3-.09-.09-.15-.21-.23-.31-.19-.22-.39-.45-.6-.66-.04-.04-.13-.06-.19-.07-.22-.01-.36-.12-.4-.34,0-.04,0-.08-.02-.11-.19-.2-.12-.43-.08-.65.03-.22.23-.29.4-.14.05.04.1.09.14.14.35.45.7.89,1.04,1.34.12.16.2.35.33.52.13.16.28.31.42.46.3.29.53.62.74.98.2.34.44.66.73.95.15.15.27.35.4.53.19.26.42.5.69.66.15.09.31.17.42.3.14.17.34.29.37.55Z"/>
    <path class="cls-2" d="m58.12,73.87c.11.04.2.05.24.1.25.3.49.61.82.83.1.07.16.18.23.28.36.47.74.94,1.08,1.43.24.34.44.71.59,1.1.26.67.45,1.37.83,1.98.19.3.31.63.43.96.04.11,0,.18-.13.19-.17.01-.31-.1-.39-.25-.19-.33-.31-.69-.45-1.05-.08-.2-.24-.37-.35-.57-.13-.23-.23-.46-.37-.69-.18-.3-.36-.59-.55-.87-.25-.36-.52-.71-.79-1.05-.24-.3-.48-.6-.75-.87-.17-.18-.29-.39-.39-.61-.13-.29-.04-.58-.06-.93Z"/>
    <path class="cls-2" d="m54.79,65.62c.44.53.88,1.02,1.39,1.45.15.13.27.3.41.45.21.23.44.45.63.7.25.33.48.68.69,1.03.14.23.27.47.5.63.02.02.05.03.06.05.31.37.63.73.92,1.12.17.23.31.49.45.74.04.08.05.18.04.27,0,.06-.04.15-.09.18-.05.03-.16.01-.2-.03-.13-.14-.25-.3-.37-.45-.12-.16-.22-.34-.34-.51-.12-.17-.26-.34-.4-.5-.21-.25-.42-.5-.63-.75-.18-.21-.36-.43-.55-.64-.39-.44-.78-.86-1.16-1.3-.25-.29-.5-.57-.67-.92-.12-.24-.31-.44-.47-.66-.12-.17-.22-.35-.33-.52-.1-.17-.1-.18.1-.33Z"/>
    <path class="cls-2" d="m48.25,46.75c-.41-.11-.63-.42-.74-.75-.09-.27-.26-.47-.42-.67-.21-.27-.44-.53-.64-.81-.12-.18-.18-.41-.3-.59-.16-.24-.35-.47-.54-.7-.2-.26-.43-.49-.55-.82-.07-.2-.16-.39-.17-.6.18-.11.31-.1.46.03.19.16.34.34.49.53.18.24.4.44.61.65.21.22.46.41.64.65.16.2.28.44.33.7.03.17.1.31.2.45.12.16.17.37.25.55.04.1.09.2.14.29.01.02.04.05.04.07-.03.2.13.32.22.46.18.28.19.27-.03.56Z"/>
    <path class="cls-2" d="m30.94,76.42c.08.07.2.13.23.21.12.35.42.57.61.86.15.22.31.42.46.63,0,0,0,.02.01.02.11.12.03.32.22.42.15.08.26.23.39.35.12.11.23.25.37.34.32.21.58.5.84.77.19.19.37.39.54.6.16.2.32.41.45.63.1.18.26.29.41.41.23.19.48.35.71.53.29.23.43.56.54.89.02.05-.01.15-.06.19-.07.07-.15.03-.22-.03-.09-.08-.2-.13-.29-.21-.16-.13-.33-.25-.46-.4-.16-.18-.33-.36-.45-.58-.1-.18-.29-.31-.43-.47-.13-.16-.24-.33-.36-.49-.21-.26-.44-.51-.63-.78-.2-.28-.46-.48-.72-.69-.39-.31-.83-.57-1.16-.95-.18-.21-.38-.41-.56-.63-.04-.05-.06-.14-.06-.21-.03-.35-.21-.61-.46-.83-.06-.05-.11-.11-.16-.15-.1-.08-.13-.19-.08-.3.06-.11.17-.14.31-.14Z"/>
    <path class="cls-2" d="m67.72,78.26c.38-.05.53.2.64.44.18.38.36.77.47,1.19.09.36.25.72.43,1.06.13.26.27.53.35.83.14.54.21,1.1.4,1.64.06.16.06.35.04.52-.01.12-.1.23-.15.35-.21-.07-.31-.19-.32-.39,0-.11-.01-.23-.07-.33-.15-.27-.19-.56-.22-.85-.05-.49-.26-.92-.51-1.33-.24-.38-.45-.79-.63-1.2-.18-.41-.26-.86-.35-1.3-.02-.08-.02-.17-.06-.24-.07-.12-.03-.23,0-.36Z"/>
    <path class="cls-2" d="m31.09,59.72c.06.04.1.05.12.07.3.26.61.52.91.79.23.2.46.41.67.63.17.17.33.35.49.54.18.21.36.43.53.65.23.3.46.61.68.92.04.05.05.15.03.2-.04.09-.15.08-.22.03-.21-.12-.44-.22-.56-.44-.16-.29-.41-.49-.69-.67-.43-.28-.88-.57-1.23-.97-.11-.13-.28-.21-.42-.31-.13-.09-.25-.17-.24-.35,0-.05-.03-.11-.06-.15-.21-.23-.15-.51-.16-.77,0-.05.09-.11.14-.16Z"/>
    <path class="cls-2" d="m50.08,35.45c.07-.07.12-.15.19-.18.1-.04.2,0,.27.09.25.34.5.67.76,1.01.02.03.05.07.04.1-.05.18.1.29.16.42.04.09.1.18.13.28.06.22.18.39.33.57.27.33.51.68.77,1.02.07.09.14.19.22.28.08.09.07.19.01.28-.06.1-.16.08-.25.03-.09-.06-.19-.12-.27-.2-.36-.39-.68-.82-.96-1.27-.1-.16-.25-.29-.35-.45-.33-.5-.66-1.01-.97-1.53-.07-.12-.06-.28-.08-.45Z"/>
    <path class="cls-2" d="m20.77,60.13c.43.22.72.58,1.06.88.36.31.72.62,1.08.93.27.23.55.47.83.7.44.35.89.68,1.33,1.03.1.08.17.2.22.31.03.07,0,.19-.06.24-.1.09-.23,0-.26-.07-.2-.37-.56-.53-.89-.74-.89-.57-1.73-1.2-2.47-1.95-.31-.31-.6-.63-.9-.95-.15-.16-.13-.22.07-.37Z"/>
    <path class="cls-2" d="m44.56,80.73c-.43-.25-.85-.47-1.25-.74-.56-.38-1.13-.75-1.62-1.22-.3-.29-.63-.56-.94-.83-.08-.07-.18-.13-.09-.25.08-.11.18-.07.28-.03.31.12.6.29.87.49.54.4,1.07.8,1.61,1.2.33.25.67.5,1,.75.04.03.08.07.12.12q.2.22.03.51Z"/>
    <path class="cls-2" d="m64.77,99.75c-.2,0-.39.04-.59-.07-.09-.05-.22-.03-.33-.05-.39-.08-.77-.17-1.17-.22-.32-.04-.62-.2-.94-.27-.41-.09-.78-.24-1.12-.47-.28-.18-.58-.33-.86-.51-.08-.05-.14-.13-.18-.21-.02-.04,0-.14.03-.18.03-.03.13-.05.17-.03.31.15.63.28.92.47.56.37,1.19.47,1.82.6.39.08.78.16,1.16.29.16.06.35.05.52.08.04,0,.09,0,.13.03.1.05.19.12.29.17.18.09.19.12.16.37Z"/>
    <path class="cls-2" d="m36.59,45.35c.3.01.6.04.85.24.05.04.11.07.17.1.27.16.56.28.78.52.1.11.27.14.4.23.14.09.27.2.39.31.3.27.59.54.89.81.03.03.08.07.08.11,0,.06.01.14-.02.18-.03.04-.12.06-.17.05-.31-.06-.58-.19-.83-.39-.52-.4-1.04-.81-1.6-1.15-.26-.16-.5-.35-.74-.54-.14-.11-.29-.25-.2-.48Z"/>
    <path class="cls-2" d="m56.92,94.94c-.16.02-.28-.05-.4-.14-.11-.09-.27-.14-.36-.25-.23-.28-.59-.31-.85-.53-.26-.22-.55-.41-.81-.64-.27-.24-.51-.51-.76-.78-.09-.1-.18-.22-.04-.38.06.04.11.06.16.1.04.03.06.09.1.09.39.03.58.38.89.54.16.09.33.17.49.27.08.05.15.13.23.18.42.26.82.54,1.17.89.17.17.35.35.19.64Z"/>
    <path class="cls-2" d="m65.97,92.62s-.1-.02-.15-.05c-.5-.28-1.01-.55-1.49-.85-.29-.19-.57-.42-.78-.71-.06-.09-.1-.19-.14-.27.12-.2.27-.22.45-.17.38.1.73.26,1.05.49.22.17.41.36.58.59.08.11.21.18.31.28.06.05.13.11.17.18.11.16.17.33-.01.53Z"/>
    <path class="cls-2" d="m46.63,77.75c.27-.14.34-.14.49.05.39.48.81.95,1.01,1.56.07.23.19.45.31.65.08.13.21.23.32.35.23.24.47.47.71.7.08.08.08.24,0,.3-.08.07-.23.05-.3-.04-.13-.17-.26-.34-.39-.51-.06-.07-.12-.16-.2-.19-.21-.1-.35-.26-.47-.45-.13-.2-.3-.38-.45-.57-.02-.02-.04-.06-.06-.06-.23-.02-.25-.2-.3-.37-.04-.12-.11-.24-.18-.35-.14-.23-.31-.43-.32-.73,0-.11-.11-.22-.19-.35Z"/>
    <path class="cls-2" d="m33.83,67.28c.08.03.14.04.19.08.15.14.31.27.44.42.3.33.67.59.93.95.1.15.21.31.43.33.02,0,.05.03.06.05.23.35.57.54.91.76.23.15.55.24.61.6-.14.09-.27.13-.44-.01-.12-.11-.29-.16-.43-.25-.3-.18-.61-.35-.91-.54-.26-.17-.48-.39-.61-.68-.24-.54-.66-.94-1.09-1.33-.14-.13-.14-.13-.1-.37Z"/>
    <path class="cls-2" d="m31.32,67.86c-.11-.12-.21-.25-.33-.37-.11-.11-.23-.21-.34-.32-.1-.1-.19-.21-.27-.32-.15-.2-.32-.4-.43-.62-.1-.2-.15-.43-.21-.66-.03-.11.09-.17.21-.12.33.13.64.32.86.6.31.38.54.8.62,1.3.01.08.04.16.06.24q.05.18-.18.27Z"/>
    <path class="cls-2" d="m69.67,88.56c-.2.12-.31.12-.4,0-.21-.27-.44-.54-.61-.83-.25-.43-.46-.87-.66-1.32-.06-.12-.04-.29-.01-.43.03-.15.12-.19.24-.1.14.1.29.22.38.36.24.38.45.79.53,1.25.02.14.12.28.23.38.12.12.18.24.21.4.02.1.06.19.1.31Z"/>
    <path class="cls-2" d="m35.1,72.2c.12-.01.21-.05.29-.03.1.02.22.06.29.14.26.31.5.64.76.95.18.2.34.42.48.65.17.3.36.59.54.88.02.04.06.08.07.12,0,.06-.01.12-.02.17-.06,0-.13,0-.17-.03-.06-.05-.12-.12-.16-.19-.16-.29-.41-.5-.66-.71-.29-.23-.49-.53-.7-.83-.21-.3-.33-.66-.6-.93-.04-.04-.06-.11-.11-.21Z"/>
    <path class="cls-2" d="m61.35,90.91c-.2,0-.37-.07-.51-.2-.44-.38-.88-.77-1.32-1.16-.07-.06-.13-.13-.21-.18-.14-.09-.2-.19-.11-.36.06,0,.13-.02.18,0,.09.06.17.08.28.04.06-.02.16.03.22.08.26.21.53.41.77.65.16.15.28.35.42.52.08.1.18.19.27.28.1.11.1.21,0,.32Z"/>
    <path class="cls-2" d="m70.57,85.56c.07.04.14.06.17.1.16.25.46.4.55.71.07.25.21.49.17.78-.01.08.02.19.06.27.05.1.03.19-.04.25-.08.07-.17.04-.25-.03-.09-.08-.19-.15-.28-.23-.03-.03-.09-.06-.09-.1-.01-.21-.16-.35-.25-.52-.05-.09-.07-.19-.09-.29-.05-.2-.09-.4-.12-.6-.01-.08.01-.18.05-.26.02-.04.1-.06.14-.08Z"/>
    <path class="cls-2" d="m54.98,87.44c-.36-.18-.73-.36-1.09-.56-.07-.04-.12-.14-.17-.21-.14-.22-.28-.44-.41-.66-.04-.07-.05-.16-.06-.24,0-.06.03-.12.05-.18.06.02.12.03.17.06.08.04.15.09.22.14.06.05.13.1.16.17.06.15.17.25.31.33.31.19.6.41.89.63.08.06.14.17.17.27.05.16-.07.27-.25.24Z"/>
    <path class="cls-2" d="m43.83,74.17c.04-.27.14-.31.31-.17.09.07.16.14.28.16.07.01.14.08.2.14.11.11.21.24.31.36.22.27.44.55.66.83.06.07.14.16.05.25-.05.05-.16.07-.24.07-.07,0-.14-.03-.2-.07-.53-.37-.97-.83-1.31-1.38-.04-.07-.05-.15-.06-.18Z"/>
    <path class="cls-2" d="m40.59,85.9c-.08.16-.08.31-.27.39-.18.07-.3.05-.43-.06-.19-.16-.38-.33-.57-.48-.09-.07-.22-.11-.33-.16-.14-.06-.24-.21-.21-.35.01-.05.09-.12.15-.13.11,0,.22.01.33.04.49.14.91.41,1.34.73Z"/>
    <path class="cls-2" d="m48.21,52.31c-.2-.03-.38-.07-.51-.27-.12-.2-.27-.38-.4-.57-.2-.31-.17-.53,0-.74.61.24,1.12,1.11.91,1.58Z"/>
    <path class="cls-2" d="m63.79,94c.28.14.54.26.79.4.27.15.55.3.76.53-.07.28-.09.31-.33.25-.21-.05-.43-.14-.61-.25-.22-.13-.42-.31-.62-.47-.23-.19-.22-.28.01-.46Z"/>
    <path class="cls-2" d="m41.84,72.35c-.18,0-.29-.04-.42-.14-.18-.15-.43-.23-.6-.41-.07-.07-.18-.16-.17-.24.02-.15-.14-.31.05-.46.06.03.14.05.2.1.31.26.62.53.92.8.12.1.13.22.02.35Z"/>
    <path class="cls-2" d="m75.56,89.74c-.12.03-.22.04-.3.08-.17.09-.24.08-.32-.08-.1-.23-.08-.47-.03-.71.02-.1.06-.2.09-.29.05-.13.11-.16.23-.1.15.07.27.18.29.35.03.25.02.51.03.75Z"/>
    <path class="cls-2" d="m38.16,75.52c.07-.13.17-.14.28-.06.31.24.62.47.86.78.11.14.22.28.31.42.05.07.07.15.11.25-.45-.09-1.39-.95-1.55-1.4Z"/>
    <path class="cls-2" d="m65.58,94.16c-.33-.15-.66-.29-.84-.63-.09-.18-.04-.27.15-.34.19-.07.36,0,.5.1.17.13.29.3.45.47-.09.14-.16.26-.26.41Z"/>
    <path class="cls-2" d="m45.37,81.47c.09.03.19.06.28.1.42.21.75.53,1.11.82.11.09.05.18.02.32-.09-.03-.2-.03-.27-.08-.34-.23-.68-.46-.99-.71-.11-.09-.27-.22-.14-.45Z"/>
    <path class="cls-2" d="m57.34,91.02c.02-.13.09-.15.17-.12.04.01.07.05.11.08.15.09.3.18.45.27.2.13.4.27.6.4.09.06.1.14.05.22-.05.09-.13.12-.24.08-.38-.12-.71-.33-1.04-.55-.17-.11-.01-.29-.1-.38Z"/>
    <path class="cls-2" d="m43.03,76.28c-.21.16-.22.17-.37.03-.18-.17-.42-.26-.59-.45-.14-.17-.24-.32-.15-.55.14-.08.24-.07.37.05.19.2.42.36.6.56.08.08.09.23.14.36Z"/>
    <path class="cls-2" d="m71.77,90.05c-.24-.24-.25-.54-.23-.82.02-.26.29-.34.49-.17.04.03.07.06.1.09.27.27.25.56-.07.77-.08.05-.18.08-.29.12Z"/>
    <path class="cls-2" d="m66.44,86.72c-.14-.13-.3-.25-.43-.38-.11-.11-.21-.24-.3-.36-.04-.06-.08-.15-.08-.22,0-.12.12-.19.22-.12.28.19.56.38.74.66.03.05.07.12.08.18,0,.07,0,.15-.03.2-.03.04-.12.03-.2.05Z"/>
    <path class="cls-2" d="m64.45,95.93c.55.13.59.2.42.68-.17.04-.34.07-.51-.02-.25-.13-.28-.34-.07-.52.06-.05.11-.1.16-.14Z"/>
    <path class="cls-2" d="m67.4,77.51c-.17-.02-.29-.09-.35-.27-.03-.09-.11-.16-.12-.25-.02-.08,0-.19.03-.25.07-.1.18-.08.27-.01.23.14.35.37.42.61.04.14-.07.2-.26.17Z"/>
    <path class="cls-2" d="m68.58,90.65c-.09-.16-.16-.27-.2-.39-.05-.13-.1-.26-.12-.39-.02-.11.09-.18.18-.11.23.15.43.33.53.59.05.12,0,.22-.12.26-.09.03-.19.04-.27.05Z"/>
    <path class="cls-2" d="m69.85,89.48c.19-.04.28.06.34.18.09.19.17.39.23.59.04.12-.04.17-.18.15-.29-.06-.47-.45-.45-.66.01-.09.04-.17.06-.25Z"/>
    <path class="cls-2" d="m60.24,96.04c.19.04.38.09.56.13.19.04.23.21.32.33.06.09-.02.16-.12.17-.19.02-.72-.18-.82-.37-.05-.1-.06-.17.05-.26Z"/>
    <path class="cls-2" d="m64.8,97.62c.1.17,0,.31-.07.45-.02.04-.15.07-.2.05-.16-.08-.31-.19-.45-.3-.04-.03-.05-.14-.03-.17.04-.04.12-.06.19-.06.18,0,.35.02.56.04Z"/>
    <path class="cls-2" d="m57.16,96.62c.22.11.38.2.54.28.07.03.14.07.18.12.04.05.08.15.05.19-.02.05-.12.07-.19.08-.04,0-.09-.03-.13-.05-.14-.07-.28-.14-.43-.21-.09-.05-.21-.1-.19-.21.01-.08.1-.14.15-.2Z"/>
    <path class="cls-2" d="m67.55,88.73c-.07-.05-.15-.09-.19-.15-.09-.17-.17-.35-.25-.53-.02-.04,0-.12.04-.14.03-.03.11-.03.15,0,.3.16.39.46.25.83Z"/>
    <path class="cls-2" d="m67.57,85.05c-.16-.02-.25-.14-.3-.3-.02-.09-.03-.18-.02-.27,0-.05.04-.11.08-.13.04-.02.12,0,.15.02.08.06.19.15.19.22,0,.14.07.24.09.35.02.11-.07.14-.19.11Z"/>
    <path class="cls-2" d="m66.98,92.11c-.09-.11-.18-.2-.24-.31-.08-.13,0-.23.08-.32.08-.09.17,0,.24.05.03.02.06.05.08.07.14.14.14.2,0,.35-.04.04-.08.07-.17.15Z"/>
    <path class="cls-2" d="m70.52,85.1c-.14.08-.24.13-.35.19-.08-.14-.17-.25-.22-.37-.02-.06-.01-.18.03-.22.08-.08.17-.04.23.05.09.11.18.21.3.35Z"/>
    <path class="cls-2" d="m58.11,95.21c.3,0,.45.12.55.38-.32.18-.55.03-.55-.38Z"/>
    <path class="cls-2" d="m66.48,75.42c.08.1.16.18.22.27.04.06.06.15.06.22,0,.04-.05.1-.09.11-.04.01-.11-.02-.14-.05-.06-.07-.12-.16-.17-.25-.07-.13-.04-.23.12-.3Z"/>
    <path class="cls-2" d="m41.45,74.53c.07.1.28.09.23.26-.03.09-.16.17-.27.21-.09.04-.2-.09-.22-.21-.02-.12,0-.15.25-.26Z"/>
    <path class="cls-2" d="m59.15,97.82c-.36.12-.39.14-.47-.16.16-.07.29-.23.52-.13l-.05.29Z"/>
    <path class="cls-2" d="m56.77,96.36c0,.27-.29.17-.38.36-.04-.18-.29-.22-.17-.45l.55.09Z"/>
    <path class="cls-2" d="m62.4,97.06c.24-.1.35-.09.4.04.04.1-.03.24-.13.27-.12.03-.21-.07-.27-.31Z"/>
    <path class="cls-2" d="m64.43,74.26c.05.07.11.13.17.22-.08.03-.14.06-.22.09-.02-.11-.03-.2-.04-.28.03,0,.06-.02.09-.03Z"/>
    <path class="cls-2" d="m58.19,73.33c.01-.13.02-.23.04-.35.16.19.15.25-.04.35Z"/>
    <path class="cls-2" d="m72.47,77.35c.04.1.15.19.04.35-.02-.15-.03-.25-.04-.35Z"/>
    <path class="cls-2" d="m57.43,72.08c-.06.02-.12.04-.21.06.04-.16.1-.17.21-.06Z"/>
    <path class="cls-2" d="m60.01,72.54s.06.1.09.14c-.01,0-.02.01-.03.02-.03-.05-.07-.09-.1-.14.01,0,.03-.02.04-.03Z"/>
    <path class="cls-2" d="m75.19,96.81c-.08.04-.14.04-.16.07-.12.16-.28.17-.44.14-.19-.04-.3-.18-.38-.34-.03-.05-.04-.11-.05-.16-.04-.14-.09-.28-.13-.42-.04-.13-.08-.26-.12-.39-.03-.11,0-.24-.11-.33-.18-.14-.31-.35-.56-.38-.11-.02-.22-.04-.33-.07-.45-.11-.88-.26-1.34-.28-.15,0-.3-.04-.45-.03-.17.02-.36.05-.46.2-.11.17-.27.28-.43.39-.2.14-.41.26-.65.3-.3.05-.56-.15-.47-.43.11-.36.21-.76.67-.89.15-.04.29-.12.43-.2.39-.23.81-.26,1.24-.23.53.04,1.06.12,1.56.33.15.06.33.08.48.14.44.17.82.4,1.14.77.23.26.3.56.44.85.01.02.01.05.02.08.02.29,0,.59.13.87Z"/>
    <path class="cls-2" d="m75.45,100.76c-.09-.03-.18-.07-.28-.1-.06-.02-.13-.02-.19-.02-.26.02-.53.06-.79.08-.02,0-.04,0-.05.01-.24.15-.49.29-.72.46-.07.05-.1.15-.14.24-.11.3-.36.44-.65.48-.24.04-.49-.2-.34-.51.12-.24.27-.46.43-.67.08-.12.18-.25.3-.33.14-.1.31-.17.48-.21.44-.11.89-.21,1.33-.3.22-.05.43-.05.65.05.27.12.56.19.83.31.33.14.6.33.68.73.04.21.21.39.31.59.08.17.16.34.22.51.11.29-.07.61-.37.69-.33.08-.58-.06-.8-.27-.12-.11-.13-.27-.12-.42.02-.31-.04-.61-.08-.91-.03-.17-.12-.27-.26-.33-.14-.05-.28-.08-.43-.12,0,.01,0,.02-.01.03Z"/>
    <path class="cls-2" d="m72.98,104.11c-.3-.03-.61-.04-.91-.08-.38-.06-.76-.11-1.12-.22-.18-.06-.33-.23-.48-.37-.16-.15-.29-.34-.45-.49-.15-.15-.26-.31-.3-.52-.04-.21-.12-.41-.17-.62-.05-.2.05-.28.25-.24.05.01.12.03.16.06.3.28.61.56.76.95.07.19.15.31.36.36.13.03.24.16.37.19.27.06.55.11.83.11.32,0,.65-.02.97-.07.26-.04.54-.09.76-.26.1-.07.18-.16.28-.23.17-.15.31-.12.42.07.09.15.18.3.27.45.06.1.04.18-.04.27-.16.2-.37.31-.6.42-.14.07-.27.16-.42.18-.31.04-.62.06-.93.08,0-.01,0-.03,0-.04Z"/>
    <path class="cls-2" d="m68.27,98.34c.08-.13.04-.31-.08-.49-.1-.15-.15-.3-.08-.47.07-.18.11-.21.29-.17.27.06.47.22.6.45.09.16.17.33.25.5.11.23.1.44-.08.64-.1.11-.12.29-.3.33-.1.02-.19.07-.28.08-.16,0-.28.09-.39.19-.05.04-.09.1-.13.15-.15.19-.34.15-.53.08-.15-.06-.23-.18-.24-.34-.03-.24.03-.45.25-.57.21-.12.44-.23.71-.37Z"/>
    <path class="cls-2" d="m72.52,98.37c.24.04.47.08.69.1.07,0,.18-.01.19-.05.03-.07.04-.18.01-.26-.05-.12-.14-.22-.21-.33-.03-.05-.07-.11-.08-.17-.05-.19.02-.4.16-.5.17-.12.33-.06.46.04.21.16.4.35.39.66,0,.06.02.13.04.19.06.21.06.41-.05.61-.08.14-.15.3-.22.44-.07.14-.2.2-.35.18-.14-.02-.27-.04-.41-.08-.11-.03-.21-.07-.32-.1-.36-.09-.48-.36-.31-.73Z"/>
    <path class="cls-2" d="m71.54,100.02c-.18-.05-.35.06-.55.06-.3,0-.47-.15-.66-.34-.22-.21-.29-.49-.39-.76-.03-.08-.01-.18,0-.27.03-.1.08-.18.13-.27.07-.14.24-.17.35-.06.14.14.28.3.4.46.06.09.13.1.23.12.17.03.35.08.49.17.26.15.29.42.12.7-.03.05-.07.11-.12.19Z"/>
    <path class="cls-2" d="m77.58,97.78s-.03.06-.04.08c-.14.23-.32.31-.62.26-.32-.05-.62-.16-.89-.31-.08-.05-.15-.14-.2-.22-.11-.19-.09-.21.07-.35.25-.21.54-.33.85-.38.14-.03.29-.06.46-.09.15.03.17.32.43.24-.04.28-.24.52-.06.79Z"/>
    <path class="cls-2" d="m75.69,94.34c-.07-.07-.15-.15-.21-.24-.04-.06-.05-.15-.07-.22,0-.03,0-.08-.02-.11-.13-.23-.1-.66.08-.85.11-.12.25-.2.42-.15.2.05.41.11.47.34.09.34.03.67-.14.98-.12.22-.28.31-.53.26Z"/>
    <path class="cls-2" d="m78.64,98.1c.28.2.29.47.04.71-.06.06-.11.14-.16.22-.14.23-.54.3-.76.13-.1-.07-.1-.18-.1-.27,0-.3.07-.55.49-.56.16,0,.31-.13.5-.22Z"/>
    <path class="cls-2" d="m82.57,101.34c-.12-.25-.04-.43.1-.6.12,0,.25-.02.37-.01.29.02.59.06.88.09.55.07,1.1.14,1.66.21.13.02.26.04.39.06.55.1,1.1.16,1.64-.03.09-.03.19-.02.28-.02.19,0,.38.01.57-.02.28-.04.58.03.87.06.35.04.7.05,1.04.03.31-.02.61-.08.92-.08.43,0,.84-.1,1.25-.21.26-.07.53-.1.79-.15.05,0,.11,0,.17.02.22.07.27.2.12.37-.08.09-.13.22-.28.26-.07.02-.12.11-.18.16-.32,0-.65.01-.97.11-.17.05-.36.08-.56.09-.31,0-.62-.05-.93,0-.26.04-.55-.07-.81-.03-.41.08-.82-.11-1.22.04-.04.01-.09,0-.14,0-.37-.02-.73-.04-1.1-.06-.03,0-.07.02-.1.04-.24.15-.49.14-.76.12-.36-.03-.73-.03-1.1-.04-.18,0-.36,0-.55-.02-.04,0-.09-.13-.11-.12-.2.09-.33-.08-.49-.12-.06-.02-.14,0-.21,0-.03,0-.07.01-.09,0-.15-.17-.31-.06-.46,0-.1.03-.19.1-.23-.07,0-.03-.09-.07-.11-.06-.22.14-.43.02-.64-.02,0,0-.02,0-.02,0Z"/>
    <path class="cls-2" d="m91.44,91.52c-.07.09-.1.18-.16.2-.36.15-.72.31-1.03.56-.09.07-.22.1-.33.14-.56.22-1.11.45-1.67.64-.39.13-.8.23-1.22.27-.71.07-1.44.05-2.13.25-.34.1-.69.13-1.04.15-.12,0-.17-.05-.14-.17.03-.16.18-.27.34-.31.37-.09.75-.11,1.13-.14.22-.02.42-.13.64-.18.25-.06.51-.1.76-.16.33-.09.67-.18.99-.29.41-.14.82-.3,1.23-.47.35-.15.71-.3,1.04-.47.22-.12.45-.17.69-.21.31-.05.57.13.91.2Z"/>
    <path class="cls-2" d="m94.22,98.35c-.06.38-.34.45-.6.49-.42.07-.84.13-1.27.12-.38,0-.76.04-1.14.12-.29.06-.58.12-.89.11-.56-.01-1.12-.11-1.68-.07-.17,0-.35-.04-.51-.11-.11-.04-.19-.16-.29-.24.12-.19.26-.25.47-.2.11.03.23.05.33.03.3-.07.59-.03.88.03.48.08.95,0,1.42-.13.43-.12.88-.22,1.33-.28.45-.06.9,0,1.35.03.08,0,.17.02.25,0,.14-.03.23.03.35.09Z"/>
    <path class="cls-2" d="m81.23,84.77c-.01-.16.06-.28.16-.39.1-.11.15-.26.26-.35.29-.21.34-.58.57-.82.24-.25.44-.53.68-.78.26-.26.54-.49.82-.72.1-.08.23-.17.38-.02-.04.06-.07.11-.11.16-.03.04-.09.06-.1.1-.05.38-.41.56-.59.86-.09.16-.19.32-.29.47-.05.08-.14.14-.2.22-.28.4-.58.79-.95,1.12-.18.16-.37.33-.65.16Z"/>
    <path class="cls-2" d="m80.91,92.7s.05-.09.09-.13c.41-.4.8-.82,1.23-1.19.26-.23.56-.43.9-.55.1-.03.21-.04.3-.05.15.17.14.32.04.48-.2.34-.45.63-.77.87-.22.17-.46.3-.73.39-.13.04-.23.15-.35.22-.07.04-.14.09-.22.12-.19.06-.37.07-.51-.16Z"/>
    <path class="cls-2" d="m98.93,81.6c.05.3.04.36-.19.46-.57.24-1.14.52-1.78.53-.24,0-.48.06-.71.12-.15.04-.28.13-.42.21-.29.16-.58.33-.87.49-.1.06-.25,0-.29-.08-.04-.1.01-.23.12-.28.2-.08.4-.15.6-.23.08-.03.18-.07.24-.14.15-.18.34-.26.56-.33.23-.07.45-.18.67-.27.03-.01.07-.02.07-.04.08-.22.26-.18.44-.18.13,0,.26-.04.38-.08.26-.07.5-.17.78-.1.11.03.25-.05.39-.08Z"/>
    <path class="cls-2" d="m83.79,97.38c-.06-.22-.03-.33.11-.39.32-.12.64-.27.97-.35.48-.12.97-.2,1.46-.27.13-.02.29.04.42.11.14.07.15.17.03.26-.14.11-.29.21-.45.26-.44.13-.88.22-1.35.17-.14-.02-.3.04-.43.12-.15.09-.28.1-.44.09-.1,0-.2,0-.32.01Z"/>
    <path class="cls-2" d="m85.4,88.77c.05-.19.17-.33.33-.43.49-.32.99-.63,1.48-.94.08-.05.16-.09.23-.15.12-.11.24-.13.38,0-.02.05-.02.13-.06.17-.08.07-.12.14-.12.26,0,.07-.07.15-.14.19-.27.19-.54.39-.83.56-.19.11-.41.17-.61.27-.12.05-.23.12-.35.18-.13.06-.23.04-.31-.1Z"/>
    <path class="cls-2" d="m86.42,99.07c-.06.06-.09.12-.14.13-.29.09-.51.33-.83.33-.27,0-.53.06-.79-.06-.08-.04-.18-.03-.27-.02-.11.02-.19-.02-.23-.11-.05-.1.01-.18.1-.23.1-.07.2-.14.3-.21.04-.02.08-.06.12-.06.21.05.38-.06.57-.1.1-.02.2-.02.31,0,.2.01.41.02.61.05.08.01.17.06.24.12.04.03.03.11.04.16Z"/>
    <path class="cls-2" d="m90.41,85.23c.28-.3.55-.6.84-.89.06-.06.16-.08.25-.11.25-.07.5-.15.75-.21.08-.02.17,0,.25.01.06.01.1.06.15.1-.03.05-.06.11-.1.15-.06.06-.13.12-.2.17-.06.04-.13.1-.21.11-.17.02-.28.09-.41.21-.27.25-.56.47-.85.68-.08.06-.2.08-.31.08-.17,0-.24-.14-.17-.3Z"/>
    <path class="cls-2" d="m80.19,90.22c-.21.23-.4.45-.6.65-.22.22-.44.45-.72.59-.25-.14-.27-.17-.15-.38.11-.19.25-.37.41-.52.19-.18.41-.32.62-.47.25-.17.33-.14.44.14Z"/>
    <path class="cls-2" d="m81.02,102.71c0-.12.02-.22,0-.31-.04-.19-.01-.26.17-.28.25-.03.48.05.69.17.09.05.17.11.25.17.11.08.12.15.03.25-.11.13-.25.21-.42.18-.25-.05-.49-.12-.73-.18Z"/>
    <path class="cls-2" d="m79.54,91.89c.23-.28.46-.55.84-.63.19-.04.27.04.29.24.02.2-.09.35-.23.45-.17.12-.37.2-.57.3-.11-.12-.21-.23-.32-.36Z"/>
    <path class="cls-2" d="m84.84,84.85c.11.06.12.13.07.2-.03.04-.07.06-.11.09-.13.12-.26.24-.39.36-.18.16-.37.31-.55.47-.08.07-.16.06-.22-.02-.07-.08-.08-.16-.01-.25.22-.33.51-.59.81-.85.15-.13.28.07.4,0Z"/>
    <path class="cls-2" d="m81.77,98.97c.3-.16.58-.09.85,0,.25.09.25.38.03.52-.04.03-.08.05-.12.07-.33.19-.61.08-.72-.28-.03-.09-.03-.19-.04-.31Z"/>
    <path class="cls-2" d="m95.03,98.26c.07-.15.17-.25.35-.26.09,0,.18-.06.27-.05.08,0,.18.04.23.1.08.09.02.19-.06.27-.2.18-.45.23-.71.24-.15,0-.17-.12-.09-.3Z"/>
    <path class="cls-2" d="m82.08,95.74c.18-.04.31-.08.43-.09.14-.01.28-.02.41,0,.11.02.15.13.06.21-.21.18-.44.32-.72.35-.13.01-.21-.06-.21-.19,0-.1.02-.19.03-.28Z"/>
    <path class="cls-2" d="m82.85,97.3c-.01.19-.14.25-.26.27-.21.04-.42.05-.63.05-.13,0-.15-.09-.09-.21.13-.26.56-.33.76-.25.08.04.16.09.23.13Z"/>
    <path class="cls-2" d="m79.21,86.24c-.09.17-.19.34-.28.51-.09.17-.26.17-.41.21-.1.03-.15-.07-.13-.16.03-.19.37-.65.58-.68.11-.02.18-.01.24.12Z"/>
    <path class="cls-2" d="m77.24,85.08c-.06.24-.1.42-.15.6-.02.07-.03.15-.07.21-.04.05-.13.11-.18.1-.05-.01-.09-.1-.12-.16-.01-.04,0-.09.02-.14.03-.15.07-.31.11-.46.02-.1.05-.22.16-.23.08,0,.16.06.23.1Z"/>
    <path class="cls-2" d="m81.12,93.8c.13-.06.24-.11.36-.15.14-.04.22.07.28.17.06.1-.04.16-.11.22-.03.02-.06.04-.09.06-.18.1-.23.08-.34-.09-.03-.05-.05-.1-.1-.21Z"/>
    <path class="cls-2" d="m86.87,99.15c-.04-.16-.06-.27-.09-.39.15-.04.28-.09.42-.11.07,0,.17.04.2.09.05.1-.01.17-.11.21-.13.05-.25.12-.42.2Z"/>
    <path class="cls-2" d="m81.21,86.82c-.09.28-.24.4-.52.42-.08-.36.12-.53.52-.42Z"/>
    <path class="cls-2" d="m97.29,97.95c-.12.05-.21.11-.32.13-.07.02-.16.02-.23,0-.04-.01-.08-.08-.08-.12,0-.04.05-.1.09-.12.09-.04.19-.07.28-.09.14-.03.23.02.25.2Z"/>
    <path class="cls-2" d="m77.8,82.61c-.02-.38-.02-.41.29-.41.02.17.14.34-.02.53l-.27-.12Z"/>
    <path class="cls-2" d="m77.41,84.64c-.26.06-.23-.24-.44-.28.17-.09.15-.33.4-.27l.04.56Z"/>
    <path class="cls-2" d="m77.64,88.04c.03.26-.01.36-.15.38-.11,0-.23-.1-.22-.2,0-.13.12-.19.37-.17Z"/>
    <path class="cls-2" d="m78.89,84.48c-.22-.06-.3-.15-.27-.3.06-.34.11-.69.21-1.01.15-.47.34-.93.53-1.38.05-.12.19-.23.31-.3.13-.08.22-.03.24.11.02.17.03.36-.01.52-.12.44-.28.86-.57,1.23-.09.11-.12.28-.13.42,0,.17-.06.3-.16.42-.06.08-.1.18-.16.28Z"/>
    <path class="cls-2" d="m76.22,88.09c-.05-.36-.1-.71.11-1.04.1-.17.21-.17.37-.05.16.12.19.31.18.48-.02.21-.11.41-.17.62-.16,0-.31,0-.48,0Z"/>
    <path class="cls-2" d="m75.98,83.03s-.03-.1-.03-.16c0-.57-.01-1.14.02-1.71.02-.35.09-.7.24-1.02.05-.1.12-.18.17-.25.23.01.33.13.37.31.1.38.13.76.08,1.16-.04.28-.11.54-.23.79-.06.12-.06.27-.09.41-.02.08-.03.16-.07.24-.09.18-.21.31-.47.25Z"/>
  </g>
</svg>