<svg width="505" height="648" viewBox="0 0 507 648" fill="none" xmlns="http://www.w3.org/2000/svg"><path d="M502.733 164.563c0-1.787.053-3.469-.015-5.136-.052-1.292-.651-2.015-2.13-1.708-1.641.349-3.308.776-4.974.802-3.99.078-7.974-.068-11.964-.078-3.156-.016-6.333.036-9.396.062-.854 1.907-.536 3.485-.271 5.042.454 2.667 1.214 3.172 3.844 2.562 2.037-.468 4.052-.989 6.094-1.39 1.984-.396 2.677.271 2.823 2.255.177 2.266.307 4.563.776 6.771.891 4.213-.052 7.974-1.854 11.802-1.615 3.411-3.985 5.667-7.563 6.641-1.797.494-3.692 1.078-5.505.974-2.13-.136-4.292-.787-6.318-1.537-5.718-2.12-11.052-4.745-14.932-9.838-3.229-4.224-6.214-8.615-7.734-13.667-2.094-6.985-2.48-14.266-2.511-21.547-.026-5.839 1.604-11.359 3.136-16.932 2.838-10.282 15.323-15.667 23.333-13.709 2.281.547 4.531.87 6.146 2.641 2.146 2.333 4.177 4.802 5 7.964.547 2.104 1.068 4.223 1.401 6.359.411 2.547.427 2.864 2.984 3.146a46.49 46.49 0 0 0 8.016.172c2.385-.146 2.984-1 2.573-3.292-.386-2.146-1.266-4.203-1.547-6.359-.667-4.938-3.88-8.136-7.292-11.204-5.88-5.25-13.229-5.651-20.469-5.401-5.463.188-10.76 1.87-15.437 4.896-2.667 1.719-5.385 3.505-7.599 5.745-3.109 3.12-5.281 7.026-6.708 11.177-2.36 6.849-4.745 13.719-5.813 20.932-.521 3.412-1.265 6.829-.453 10.36 2.25 9.734 7.333 17.922 13.771 25.359 1.734 2 3.641 3.88 5.599 5.667 1.614 1.453 3.255 3.015 5.177 3.932 3.865 1.854 7.943 3.083 12.37 2.682a28.746 28.746 0 0 1 4.776.011c3.479.297 6.651-.849 9.864-1.906 1.12-.36 2.48-.506 3.266-1.24 2.469-2.307 5.135-4.583 6.922-7.385 2.213-3.454 4.109-7.136 4.625-11.469.469-3.959-.438-7.24-2.729-10.292-.537-.708-1.547-1.359-.802-2.255.479-.573 1.494-.849 2.307-.932 2.958-.292 5.917-.453 9.213-.677Zm2.917.932c.016.838-.318 1.693-.516 2.708h-9c.532 1.755 1.053 3.224 1.412 4.745 1.078 4.521.104 8.812-1.682 12.984-2.334 5.391-5.849 9.922-10.334 13.683-1.026.864-2.343 1.479-3.609 1.958-7.469 2.786-15.177 3.203-22.906 1.708-5.323-1.041-10.214-3.172-13.844-7.588-1.88-2.292-4.318-4.13-6.214-6.427-2.026-2.438-3.812-5.094-5.479-7.787-1.828-2.942-3.573-5.974-5.041-9.12-2.704-5.76-3.943-11.822-2.704-18.213 1.573-8.094 3.558-16.12 6.412-23.823 2.359-6.391 6.359-11.786 11.974-16 5.932-4.443 12.64-6.547 19.745-7.776 1.333-.224 2.776.042 4.151.229 3.609.49 7.359.651 10.786 1.729 4.052 1.271 7.677 3.641 10.531 6.896 5.198 5.958 7.094 13.172 7.506 20.854.135 2.532-.36 2.854-2.933 3-2.786.157-5.557.521-8.333.532-2.255.015-4.521-.344-6.948-.573-.729-3.599-1.463-6.985-2.094-10.386-.599-3.291-2.744-5.708-4.635-8.229-.63-.854-1.938-1.427-3.031-1.667-7.276-1.599-13.599.48-18.813 5.631-1.401 1.395-2.25 3.505-2.984 5.427-1.88 4.942-3.068 10.156-3.203 15.395-.12 5.016.27 10.058.843 15.11.677 5.864 3.214 10.797 6.146 15.599a30.018 30.018 0 0 0 5.917 7c3.094 2.651 6.844 4.349 10.792 5.495.572.156 1.197.187 1.729.437 4.015 1.854 7.588.453 11.067-1.463.657-.36 1.188-1.068 1.599-1.724.683-1.094 1.256-2.25 1.829-3.412.984-1.974 1.666-3.948 1.239-6.255-.479-2.609-.667-5.266-1-8.12-4.146.271-7.88 2.391-12.224.964-.521-4.229-1.057-8.615-1.604-13.042.87-.375 1.391-.771 1.937-.802 3.438-.13 6.881-.214 10.303-.25 2.093-.026 4.187.12 6.281.078 4.562-.068 9.135.172 13.614-.984 1.23-.323 2.162.146 2.521 1.453.162.573.401 1.146.427 1.734.172 2.755.318 5.516.37 8.292Zm-2.146 139.734c1.349 2.25.641 4.214-1.734 4.771-.386.094-.797.094-1.198.078-4.495-.088-8.839 1.057-13.24 1.948-2.52.511-5.145.375-7.708.693-1.865.239-3.693.802-5.557 1.068-2.656.375-5.308.734-7.974.869-3.667.183-7.349.157-11.026.214-2.922.026-3.719-.511-4.203-3.776-.386-2.625-.25-5.349-.427-8.026-.542-8.802-1.183-17.599-1.693-26.412-.104-1.937.213-3.896.281-5.854.292-8.51.359-17.026.896-25.51.453-7.386 1.411-14.729 2.198-22.078.172-1.615.864-2.693 2.614-3.042 2.438-.505 4.829-.797 7.344-.609 5.057.369 10.11.427 15.188-.454 4-.697 8.109-.76 12.172-.974 2.161-.109 4.322.068 6.484.146 1.625.068 2.146 1.224 2.37 2.797.203 1.365.536 2.698.922 4 .505 1.724-.693 3.459-2.787 3.656-1.479.162-2.989.026-4.479.026-5.75.016-11.479-.093-17.229.079-3.25.109-6.505.734-9.771 1-1.161.093-2.349-.198-3.521-.36-2.026-.25-3.239.724-2.948 2.922.87 6.401-.052 12.802.229 19.198.131 2.734.396 3 2.839 2.604 4.891-.791 9.786-1.562 14.708-2.203 4.094-.521 8.198-1.01 12.318-1.198 3.068-.135 6.161.172 9.229.401.61.052 1.36.505 1.745 1.037 1.521 2.015.495 6.323-1.787 7.187-1.479.573-3.078.802-4.656.985a853.395 853.395 0 0 1-16.599 1.869c-2.864.308-5.745.464-8.625.719-2.135.188-4.281.349-6.401.625-2.719.375-3.401 1.151-3.692 4.094-.162 1.521-.188 3.057-.266 4.547.76 9.786.864 19.614 2.948 29.213.635 2.99.651 3.084 3.224 2.906 5.948-.395 11.896-.692 17.812-1.239 5.641-.505 11.308-.823 16.844-2.224 1.547-.401 2.703.036 3.516 1.599.484.932 1.093 1.802 1.64 2.708Zm-8.823 335.88c.625-.067 1.693-1.187 1.651-1.76-.281-3.906-.77-7.786-1.281-11.682-.156-1.292-.797-2.172-2.385-2.224-4.052-.151-8.136-.776-12.162-.573-7.838.396-15.64.984-23.505 1.036-10.094.068-20.187 1.229-30.281 1.974-3.505.266-4.146-.317-4.146-4.026 0-2.573-.094-5.146-.255-7.708-.396-6.333-1.334-12.677-1.198-19 .213-9.745 1.172-19.479 1.745-29.224.119-2.146 1.067-3.297 3.203-3.359 1.067-.026 2.146.093 3.213.156 3.094.151 6.172.401 9.25.443 3.375.052 6.776-.282 10.136-.094 3.64.213 7.239 1.052 10.88 1.213 6.224.282 12.469.282 18.693.308 3.625.01 7.255-.146 10.922-.214.25-.656.609-1.146.609-1.641.068-4.734.135-9.468.083-14.197-.015-2.032-1.505-2.282-3.146-2.282-6.895.037-13.802-.12-20.682.12-5.13.188-10.255 1.01-15.375-.161-5.318-1.24-10.635-1.761-16.078-.558-2.891.625-5.88.849-8.839 1.078-.989.079-2-.442-3.109-.708-.062-1.292-.146-2.37-.172-3.437-.12-4.334-.198-8.657-.307-12.99-.266-9.729-.583-19.453-.797-29.187-.068-2.542.49-2.917 3.156-2.849 1.63.026 3.255.036 4.87-.068 7.01-.469 14-1.083 21.01-1.427 5.266-.266 10.573.067 15.829-.349 7.427-.573 14.828-1.266 22.291-.771.896.052 1.813-.042 3.229-.068-.135-4.12-.255-7.948-.375-11.854-1.067-.12-1.864-.292-2.666-.292-4.068-.026-8.162.308-12.172-.078-5.214-.51-10.281.479-15.359 1.037-7.922.87-15.803 2.041-23.829 1.51-4.026-.255-8.104.36-12.145.24-4.709-.151-9.401-.604-14.084-1.058-3.411-.317-6.692-2.385-10.422-.64-.109.63-.39 1.297-.307 1.922.667 5.453-.495 10.776-1.057 16.135a27.163 27.163 0 0 0-.12 3.25c.109 4.604.281 9.188.365 13.787.13 7.041.145 14.083.302 21.109.119 5.281.51 10.547.588 15.828.068 5.25-.224 10.505-.146 15.761.105 6.489.495 12.984.677 19.479.162 5.411-.052 10.854.401 16.239.521 6.094.907 12.146.417 18.25-.297 3.485-.239 6.974-.375 11.032 2.521.156 4.386.291 6.266.395 9.745.495 19.427 2.214 29.239 1.11 2.683-.308 5.427-.479 8.11-.266 7.932.625 15.823 1.625 23.76 2.198 4.172.307 8.386.161 12.573.016 4.438-.151 8.88-.469 13.307-.881Zm4.651-22.135c2.214 2.693 3.881 5.76 3.625 9.438-.291 4.296-.984 8.578-1 12.869 0 4.532-1.906 6.599-6.437 6.214-1.99-.172-3.974-.146-5.958-.136-2.974.026-5.938.136-8.912.146-6.625.032-13.25.12-19.864-.026-4.589-.094-9.172-.531-13.745-.88-2.693-.198-5.391-.609-8.094-.729-6.682-.297-13.375-.375-20.052-.75-3.912-.224-7.792-.948-11.698-1.266-1.865-.161-3.771-.041-5.651.12-2.188.172-3.854-.469-4.359-2.719-.735-3.281-1.693-6.599-1.839-9.932-.297-6.453-.214-12.948-.068-19.401.146-7.177.703-14.349.745-21.521.052-7.562-.281-15.135-.463-22.708-.125-4.599-.256-9.188-.417-13.771-.25-6.76-.599-13.521-.771-20.281-.083-3.104.156-6.214.198-9.318.052-4.604.052-9.203.078-13.818.042-6.489.229-13 .042-19.489-.078-2.776-1.146-5.495-1.464-8.282-.39-3.401.36-3.864 3.849-3.838 5 .036 10-.188 15-.307 3.656-.084 7.307-.23 10.964-.256 9.198-.041 18.396-.145 27.583.026 6.24.12 12.469.615 18.693 1.042 8.401.573 16.786.719 25.177-.052 2.453-.229 3.187.276 3.463 2.745.631 5.651.855 11.307-.479 16.932-.453 1.906-1.521 2.776-3.333 2.99-4.25.531-8.495 1.146-12.761 1.573-6.187.614-12.401 1.036-18.583 1.625-11.495 1.067-22.974 1.453-34.469.015-.505-.057-1.052.063-2.213.146-.146 12.719-.224 25.052 1.052 37.344 7.255-.36 13.854-.651 20.443-1 5.797-.307 11.583-.932 17.385-.985 7.318-.052 14.641.334 21.958.506 6.631.161 7.829 1.718 7.964 8.974.104 5.411-.547 10.854-.922 16.281-.146 2.094-.453 4.172-.734 6.719-21.25-.615-41.985-1.266-63.282-3.162-.421 2.375-1.119 4.667-1.197 7-.162 4.87.135 9.75.015 14.63-.161 6.761-.213 13.547-.948 20.266-.349 3.13-.401 6.094.011 9.651 3.802-.094 7.442.057 11.031-.344 9.182-1.026 18.385-.76 27.599-.718 6.068.026 12.13-.87 18.198-1.417 3.776-.344 7.521-.906 11.291-1.146 1.12-.078 2.724.24 3.349 1Zm3.495-171.281c.172 2.828-.161 3.015-2.948 3.323-5.573.625-11.146 1.317-16.718 1.974-.855.088-1.709.062-2.563.088-4.344.162-8.703.417-13.052.485-7.333.104-14.651.036-21.974.197-3.172.068-6.333.532-9.505.777-1.787.13-3.615.385-5.386.239-1.895-.161-3.708-.641-5.64.063-1.375.51-2.188-.464-2.495-1.761-.854-3.599-1.734-7.182-2.505-10.797-.401-1.869-.615-3.776-.854-5.656a99.904 99.904 0 0 1-.469-5.026c-.156-2-.36-4.01-.401-6.026-.12-5.599-.052-11.198-.276-16.797a57.262 57.262 0 0 0-.11-2.109l2.683-.13c.265 5.557.651 11.119 1 16.692.281 4.438.984 8.88.958 13.318-.01 4.229 1.547 8.109 1.958 12.198.016.177.24.333.615.792 2.588-.214 5.12-.579 7.656-.615 5.849-.12 11.761-.589 17.531.036 4.36.485 8.589.818 12.948.417 4.974-.443 9.974-.375 14.974-.588 6.292-.266 12.36-1.829 18.464-3.24.708-.162 1.359-.573 2.161-.922.068-2.958-.078-5.88-.573-8.745l3.12-.521a123.977 123.977 0 0 1 1.401 12.334Z" fill="#1A3151"/><path d="M502.719 159.427c.068 1.667.016 3.349.016 5.135-3.297.224-6.255.386-9.214.678-.812.083-1.828.359-2.307.932-.745.896.266 1.547.802 2.255 2.292 3.052 3.198 6.333 2.729 10.292-.515 4.333-2.411 8.015-4.625 11.468-1.786 2.803-4.453 5.079-6.921 7.386-.787.734-2.146.88-3.266 1.239-3.214 1.058-6.386 2.204-9.865 1.907a28.638 28.638 0 0 0-4.776-.011c-4.427.401-8.505-.828-12.37-2.682-1.921-.917-3.562-2.479-5.177-3.932-1.958-1.787-3.864-3.667-5.599-5.667-6.437-7.437-11.52-15.625-13.77-25.359-.813-3.532-.068-6.948.453-10.36 1.067-7.213 3.453-14.083 5.812-20.932 1.427-4.151 3.599-8.057 6.709-11.177 2.213-2.24 4.932-4.026 7.599-5.745 4.677-3.026 9.973-4.708 15.437-4.896 7.24-.25 14.589.151 20.469 5.401 3.411 3.068 6.625 6.266 7.291 11.203.282 2.157 1.162 4.214 1.547 6.36.412 2.291-.187 3.146-2.573 3.291-2.651.172-5.359.12-8.015-.171-2.558-.282-2.573-.599-2.985-3.146-.333-2.136-.854-4.255-1.401-6.36-.823-3.161-2.854-5.63-5-7.963-1.614-1.771-3.864-2.094-6.145-2.641-8.011-1.958-20.495 3.427-23.334 13.709-1.531 5.572-3.161 11.093-3.135 16.932.031 7.281.416 14.562 2.51 21.547 1.521 5.052 4.505 9.442 7.735 13.666 3.88 5.094 9.213 7.719 14.932 9.839 2.026.75 4.187 1.401 6.318 1.536 1.812.105 3.708-.479 5.505-.974 3.578-.974 5.948-3.229 7.562-6.64 1.802-3.828 2.745-7.589 1.854-11.802-.468-2.209-.599-4.505-.776-6.771-.145-1.984-.838-2.651-2.823-2.255-2.041.401-4.057.922-6.093 1.39-2.63.61-3.391.104-3.844-2.562-.266-1.557-.583-3.136.271-5.042 3.062-.026 6.239-.078 9.396-.062 3.989.01 7.974.156 11.963.078 1.667-.026 3.334-.453 4.974-.802 1.479-.308 2.078.416 2.13 1.708Z" fill="#E3E3E4"/><path d="m501.427 435.359-3.12.521a32.607 32.607 0 0 0-1.067-4.411c-.865-.058-1.506-.203-2.12-.094a609.92 609.92 0 0 0-11.802 2.104c-5.089.974-10.089 2.479-15.386 2.188-8.369-.479-16.463 1.203-24.505 3.291-.828.214-1.786-.026-2.666-.172-.599-.093-1.162-.453-1.761-.572-3.161-.615-5.052-3.401-4.599-6.48.318-2.078.386-4.198.427-6.307.052-2.026 0-4.052-.109-6.068-.24-4.224-.583-8.453-.771-12.677-.177-3.494-.297-7-.177-10.479.031-.818.99-2.135 1.734-2.307 3.084-.708 6.214-1.36 9.36-1.495 5.828-.229 11.682.094 17.521-.135 2.76-.105 5.51-.292 8.255-.521l.317 3.443c-2.291.197-4.572.453-6.864.734-1.99.25-4.052-.094-6.068.094-5.677.547-11.427.453-17.026 1.958-1.588.427-2.198 1.026-2.12 2.531.104 2.308.068 4.656.412 6.938.708 4.823 1.708 9.599 1.573 14.531-.078 2.401.427 4.802.708 7.453 4.802-.401 8.99-.974 13.188-1.026a90.297 90.297 0 0 1 12.718.677c2.521.323 4.813-.224 7.203-.573 1.24-.182 2.651-.531 3.745-.13 1.667.625 3.052.344 4.615-.135a17.339 17.339 0 0 1 4.052-.704c3.453-.187 6.922-.255 10.375-.322 1.37-.026 2.385.442 2.745 2a110.03 110.03 0 0 1 1.213 6.145Zm-.854-414.786c.146 1.906-.828 2.948-3.172 3.12-4.734.349-9.453.963-14.229.614-2.078-.145-4.198-.041-6.266.214-2.734.333-3.401 1.198-3.213 3.958.323 4.563.88 9.11 1.109 13.682.214 4.375.094 8.76.182 13.146.094 3.651.256 7.318.454 10.985.057 1.015.125 2.015.187 3.03l-3.156.225c-.255-3.266-.521-6.531-.787-9.802-.041-.584-.281-1.156-.468-1.719-1.042-3.156-1.599-6.36-1.068-9.693.135-.77-.052-1.588-.104-2.385-.334-5.255-.656-10.505-1.042-15.76-.161-2.282-.495-4.547-.667-6.829-.161-1.864.625-2.854 2.469-2.932 2.276-.094 4.573-.052 6.865.042 2.974.12 5.948.599 8.906.49 3.411-.105 6.99.374 10.307-1.84-.093-4.213.052-8.53-1.573-12.374-3.203.057-6.052.161-8.906.161-6.12-.026-12.213 1.12-18.349.214-.146-.026-.307-.026-.463-.026l-.058-2.813c2.282-.026 4.573 0 6.881-.052 5.041-.135 10.067-.802 15.109-1.203.693-.068 1.385-.01 2.094-.036 2.25-.11 4.505-.23 7.213-.365.104.375.438 1.177.505 1.99.438 5.317.839 10.64 1.24 15.958Z" fill="#1A3151"/><path d="M498.306 435.88c.495 2.865.641 5.787.573 8.745-.802.349-1.453.76-2.161.922-6.104 1.411-12.172 2.974-18.464 3.239-5 .214-10 .146-14.974.589-4.359.401-8.588.068-12.948-.417-5.77-.625-11.682-.156-17.531-.036-2.536.036-5.068.401-7.656.614-.375-.458-.599-.614-.615-.791-.411-4.089-1.968-7.969-1.958-12.198.026-4.438-.677-8.88-.958-13.318-.349-5.573-.735-11.135-1-16.693a392.833 392.833 0 0 1-.203-5.578c-.105-4.224.359-8.479.64-12.718.469-6.865 1.042-13.735.177-20.615-.083-.625-.333-1.333-.135-1.865 1.547-4.349-.255-8.588-.292-12.88-.031-3.786-.271-7.573-.427-11.547 4.557-.505 8.891-1.599 13.146-1.307 5.307.375 10.583.51 15.88.385 4.13-.088 8.25-.505 12.386-.515 3.281 0 6.572.307 9.838.625 1.854.187 2.12.719 1.974 2.505-.333 3.906-.641 7.813-.958 11.828-3.521.948-6.948-.229-10.401-.349-.386-.01-.761-.026-1.146-.026-.547-.026-1.094-.036-1.641-.052-6.682-.078-13.375-.161-20.052-.224-2.443-.031-4.87 0-7.229 0-1.745 2.104-2.078 4.292-1.411 6.875.427 1.698.078 3.589.187 5.375.307 4.974.677 9.948 1.036 15.094 2.761 1.667 5.761 1.135 8.803.682 2.708-.417 5.442-.76 8.187-.922 4.344-.265 8.693-.453 13.052-.521 6.281-.078 12.563-.01 19.042-.01 1.344 3.036 1.599 6.104 1.281 9.438-1.229.291-2.323.708-3.453.802-2.76.239-5.51.505-8.255.729-2.745.229-5.495.416-8.255.521-5.839.229-11.693-.094-17.521.135-3.146.135-6.276.786-9.36 1.495-.744.172-1.703 1.489-1.734 2.307-.12 3.479 0 6.984.177 10.479.188 4.224.531 8.453.771 12.677.109 2.016.161 4.042.109 6.068-.041 2.109-.109 4.229-.427 6.307-.453 3.078 1.438 5.865 4.599 6.48.599.119 1.162.479 1.761.572.88.146 1.838.386 2.666.172 8.042-2.088 16.136-3.771 24.505-3.291 5.297.291 10.297-1.214 15.386-2.188a609.92 609.92 0 0 1 11.802-2.104c.614-.109 1.255.036 2.12.094a32.607 32.607 0 0 1 1.067 4.411Zm-3-429.135c1.625 3.843 1.48 8.161 1.573 12.375-3.317 2.213-6.896 1.734-10.307 1.838-2.958.11-5.932-.37-8.906-.49-2.292-.093-4.589-.135-6.865-.041-1.844.078-2.63 1.068-2.469 2.932.172 2.282.506 4.547.667 6.828.386 5.256.708 10.506 1.042 15.76.052.798.239 1.615.104 2.386-.531 3.334.026 6.537 1.068 9.693.187.563.427 1.135.468 1.719.266 3.27.532 6.536.787 9.802.25 3.266.489 6.531.677 9.802.135 2.213-.307 2.61-2.24 2.651-3.052.052-6.104.016-9.494.016-.25-3.454-.49-6.521-.704-9.589-.322-4.745-.682-9.495-.947-14.255-.053-.984-.11-1.984-.162-2.969-.13-2.682.146-5.375.135-8.057-.026-3.735-.229-7.48-.213-11.214.01-3.77.12-7.547.359-11.307.188-2.703-.333-3.547-3.239-3.636-2.443-.083-4.896.079-7.349.172-4.453.146-8.917.375-13.386.464-2.359.057-4.734-.104-7.239-.172-.683-4.026-1.308-7.828-1.948-11.651.974-1.042 2.094-1.573 3.479-1.48 2.87.173 5.75.293 8.615.558 5.75.531 11.479.078 17.213-.146 3.229-.12 6.443-.922 9.667-1.4.614-.094 1.281-.24 1.896-.24.156 0 .317 0 .463.026 6.136.906 12.229-.24 18.349-.214 2.854 0 5.703-.104 8.906-.161Zm1.026 632.604c.042.573-1.026 1.693-1.651 1.76-4.427.412-8.869.73-13.307.881-4.187.145-8.401.291-12.573-.016-7.937-.573-15.828-1.573-23.76-2.198-2.683-.214-5.427-.042-8.11.266-9.812 1.104-19.494-.615-29.239-1.11-1.88-.104-3.745-.239-6.266-.396.136-4.057.078-7.546.375-11.031.49-6.104.104-12.156-.416-18.25-.454-5.385-.24-10.828-.402-16.239-.182-6.495-.572-12.99-.677-19.48-.078-5.255.214-10.51.146-15.76-.078-5.281-.469-10.547-.588-15.828-.157-7.026-.172-14.068-.302-21.109-.084-4.599-.256-9.183-.365-13.787a27.163 27.163 0 0 1 .12-3.25c.562-5.359 1.724-10.682 1.057-16.135-.083-.625.198-1.292.307-1.922 3.73-1.745 7.011.323 10.422.64 4.683.454 9.375.907 14.084 1.058 4.041.119 8.119-.495 12.145-.24 8.026.531 15.907-.641 23.829-1.51 5.078-.558 10.145-1.547 15.359-1.037 4.01.386 8.104.052 12.172.078.802 0 1.599.172 2.666.292.12 3.906.24 7.734.375 11.854-1.416.026-2.333.12-3.229.068-7.463-.495-14.864.198-22.291.771-5.256.416-10.563.083-15.828.349-7.011.343-14 .958-21.011 1.427-1.614.104-3.239.094-4.87.067-2.666-.067-3.224.308-3.156 2.849.214 9.735.531 19.459.797 29.188.109 4.333.187 8.656.307 12.99.026 1.067.11 2.145.172 3.437 1.109.266 2.12.786 3.109.708 2.959-.229 5.948-.453 8.839-1.078 5.443-1.203 10.76-.682 16.078.558 5.12 1.171 10.245.348 15.375.161 6.88-.24 13.787-.083 20.682-.12 1.641 0 3.131.25 3.146 2.281.052 4.73-.015 9.464-.083 14.198 0 .495-.359.985-.609 1.641-3.667.068-7.297.224-10.922.214-6.224-.027-12.469-.027-18.693-.308-3.641-.161-7.24-1-10.88-1.213-3.36-.188-6.761.146-10.136.093-3.078-.041-6.156-.291-9.25-.442-1.067-.063-2.145-.183-3.213-.157-2.136.063-3.084 1.214-3.203 3.36-.573 9.745-1.532 19.479-1.745 29.224-.136 6.323.802 12.666 1.198 19 .161 2.562.255 5.135.255 7.708 0 3.708.641 4.292 4.146 4.026 10.094-.745 20.187-1.906 30.281-1.974 7.865-.052 15.667-.64 23.505-1.036 4.026-.203 8.11.422 12.162.573 1.588.052 2.229.932 2.385 2.224.511 3.895 1 7.776 1.281 11.682Z" fill="#E3E3E4"/><path d="M488.428 390.146c.239.896.265 1.844.375 2.682-2.938 1.734-5.829 2.172-8.922 2.094-2.974-.083-5.948.036-8.922.265l-.318-3.442c2.745-.224 5.495-.49 8.255-.729 1.131-.094 2.224-.511 3.453-.802.318-3.334.063-6.402-1.281-9.438-6.479 0-12.76-.068-19.041.01-4.36.068-8.709.256-13.053.521-2.744.162-5.479.505-8.187.922-3.042.453-6.042.985-8.802-.682-.36-5.146-.729-10.12-1.037-15.094-.109-1.786.24-3.677-.187-5.375-.667-2.583-.333-4.771 1.411-6.875 2.36 0 4.787-.031 7.23 0 6.677.063 13.369.146 20.052.224.546.016 1.093.026 1.64.052l-.094 3.177c-1.145 0-2.317.12-3.453.156-2.76.094-5.505.24-8.265.454-2.735.213-5.469.536-8.214.828-2.094.229-4.172.479-6.416.734-.969 6.25 1.083 11.917 3.364 18 3.333-.292 6.771-.693 10.24-.88 4.557-.255 9.119-.307 13.692-.537 4.651-.224 9.318-.515 13.974-.849 2.396-.177 4.464-1.203 6.36-3.307.677.88 1.453 1.505 1.703 2.292.87 2.734 1.521 5.531 2.297 8.281.692 2.453 1.479 4.865 2.146 7.318Z" fill="#1A3151"/><path d="M479.521 355.203c1.01 1.636-.135 2.839-2.068 3.156-4.771.787-9.437.693-14.172-.463-.734-.188-1.51-.24-2.281-.24l.094-3.177c.385 0 .76.016 1.146.026 3.453.12 6.88 1.297 10.401.349.317-4.015.625-7.922.958-11.828.146-1.786-.12-2.318-1.974-2.505-3.265-.318-6.557-.625-9.838-.625-4.136.01-8.256.427-12.386.515a168.44 168.44 0 0 1-15.88-.385c-4.255-.292-8.589.802-13.146 1.307.156 3.974.396 7.761.427 11.547.037 4.292 1.839 8.531.292 12.88-.198.532.052 1.24.135 1.865.865 6.88.292 13.75-.177 20.615-.281 4.239-.745 8.494-.64 12.718.057 1.855.119 3.709.203 5.578l-2.683.131c-.239-5.547-.677-11.104-.947-16.651-.157-3.401-.037-6.813-.214-10.214-.224-4.349-.625-8.682-.943-13.016-.229-3.281-.401-6.572-.682-9.854-.464-5.291-1.01-10.557-1.479-15.854-.24-2.797.026-3.13 2.708-3.609 3.547-.656 7.094-1.391 10.667-1.813 1.719-.203 3.521.266 5.276.334 1.802.062 3.63.156 5.417 0 5.812-.495 11.614-1.204 17.427-1.615 1.974-.135 4 .281 5.974.583 3.453.537 6.88 1.188 10.317 1.802 1.042.172 2.094.334 3.12.563 2.682.599 2.745 1.146 2.641 3.865-.094 2.625.349 5.291.828 7.89.37 2.042.25 4.151 1.479 6.125Zm-2.453-273.844c.625 2.948-.693 4.813-3.656 4.922-3.037.104-6.094.214-9.131.453-1.375.105-2.75.438-4.083.803-1.427.395-2.13-.058-2.729-1.417-.922-2.052-1.307-4.068-1.188-6.334.401-7.145.677-14.291.266-21.437l3.214-.177c.265 4.76.625 9.51.947 14.255.214 3.068.454 6.135.704 9.589 3.39 0 6.442.036 9.494-.016 1.933-.042 2.375-.438 2.24-2.651-.188-3.27-.427-6.537-.677-9.802l3.156-.224c.12 1.755.281 3.516.469 5.266.239 2.265.495 4.546.974 6.77Z" fill="#1A3151"/><path d="m467.532 4.281.057 2.813c-.614 0-1.281.146-1.896.24-3.224.479-6.437 1.28-9.666 1.4-5.735.224-11.464.677-17.214.146-2.864-.265-5.745-.385-8.614-.557-1.386-.094-2.506.437-3.48 1.48.641 3.822 1.266 7.624 1.948 11.65 2.506.068 4.881.23 7.24.172 4.469-.088 8.932-.318 13.385-.463 2.453-.094 4.907-.256 7.349-.172 2.907.088 3.427.932 3.24 3.635-.24 3.76-.349 7.536-.36 11.307-.015 3.735.188 7.48.214 11.214.01 2.682-.266 5.375-.135 8.057.052.984.109 1.984.161 2.969l-3.213.177a95.72 95.72 0 0 0-.693-7.453c-.563-4.23-.599-8.521-.87-12.787-.214-3.468-.37-6.948-.651-10.416-.094-1.052-.505-2.078-.786-3.172-5.042.187-9.907.385-14.761.547-4.734.161-9.453.281-14.588.437-.224-.864-.651-1.864-.719-2.88-.266-4.36-.427-8.745-.641-13.12-.036-.677-.146-1.37-.265-2.062-.334-1.818.187-2.521 2.026-2.724a6.63 6.63 0 0 1 1.203 0c4.13.375 8.265.802 12.396 1.12 1.989.161 3.989.177 5.989.109 4.162-.136 8.438.187 12.464-.682 3.63-.771 7.255-.933 10.88-.985ZM432.24 276.35c.188 3.37.292 6.76.255 10.146-.057 4.88-.229 9.76-.453 14.64-.213 4.412.146 8.933-2.614 13.599-2.172-.119-4.719-.187-7.255-.442-3.308-.344-6.506-.052-9.735.802-1.557.411-3.344.213-4.984 0-.469-.052-1.188-1.162-1.136-1.719.537-5.385-.172-10.75-.302-16.109-.109-4.37.146-8.745.089-13.12-.037-3.068-.344-6.12-.516-9.094-4.239-.036-8.375-.062-12.427-.094-.083 5.922-.255 11.735-.203 17.537 0 .12 0 .224.016.344l-3.11.067c-.104-4.786-.547-9.573-.531-14.37.016-2.666-.12-5.333-.188-7.776 1.349-.932 2.292-.494 3.386-.187 1.776.495 3.786 1.109 5.469.708 3.708-.88 7.281-.291 10.984-.146.255.771.641 1.428.656 2.079.198 6.812.933 13.692.318 20.442-.505 5.479.776 10.651.656 16.089 4.521.802 13.49-.584 15.948-2.302-.068-.99-.042-2.016-.245-2.974-1.515-7.084-1.333-14.229-.906-21.401.083-1.386.094-2.787.109-4.172.042-7.948-1-15.88-.333-23.854.266-3.146.026-6.36-.229-9.521-.344-4.349-1.036-8.667-1.37-13-.39-5.12-.562-10.255-.844-15.505-3.385-.203-6.557-.427-9.729-.563-1.364-.052-2.255.563-2.333 2.11-.068 1.489-.401 2.973-.443 4.463a2467.83 2467.83 0 0 0-.651 24.776c-.026 1.464.011 2.943.052 4.412l-3.281-.011c-.094-3.307-.224-6.333-.161-9.333.119-5.271.546-10.511.64-15.776.057-3.651-.198-7.334-.411-11-.12-2 .958-3.683 2.89-3.787a363.17 363.17 0 0 1 14.297-.494c1.438-.027 2.891.416 4.281.64.12.75.24 1.136.24 1.521.078 6.161 0 12.333.25 18.495.162 3.745.87 7.463 1.266 11.213.494 4.641 1 9.276 1.364 13.917.479 6.24.88 12.495 1.224 18.75Z" fill="#1A3151"/><path d="M409.64 252.214a97.29 97.29 0 0 1 .068 3.932c-.015 2.015-.359 2.297-2.255 2.135-1.479-.12-2.958-.359-4.453-.442-3.563-.214-7.12-.771-10.641.453-1.094.375-2.344.442-3.521.468-1.88.042-2.489-.588-2.677-2.385-.135-1.281-.333-2.547-.479-3.828-.39-3.146-1.031-6.292-1.094-9.453-.135-5.651.146-11.334.105-17-.011-2.719-.318-5.438-.48-7.683-3.307-.197-6.135-.359-8.776-.515.016 2.666.058 4.943.058 7.224-.016 4.083-.427 8.187-.016 12.229.802 8.062-.214 16.094.026 24.146.162 4.958-.12 9.932-.068 14.906.084 7.161.256 14.307.459 21.469.104 3.463.317 6.942.541 10.411.125 1.813.511 2.078 2.417 2.334 1.573.197 3.12.614 4.693.77 2.291.256 4.651.829 6.89-.265-.265-4.078-.968-7.959-.692-11.771.161-2.146.177-4.297.119-6.443l3.11-.067c.052 4.75.359 9.51.521 14.239.067 2.094.119 4.188.067 6.271-.041 1.786-.828 2.49-2.427 1.906-1.349-.479-2.484-.255-3.76-.052-1.36.224-2.776.156-4.146.266-1.245.104-2.604-.417-3.615.823-.187.229-.75.203-1.135.229-1.88.078-3.76.255-5.641.172-.88-.052-1.734-.615-2.854-1.037 1.802-2.588 2.151-5.12 1.828-7.817-.093-.787 0-1.599.084-2.386.823-9.052.396-18.104.265-27.161-.135-8.745-.109-17.506-.416-26.24-.266-7.224.307-14.516-1.344-21.677-.453-2-.188-4.161-.214-6.255-.052-3.558-.067-7.12-.093-10.797 1.651-.698 3.067-.88 5.026-.271 2.974.938 6.239 1.068 9.401 1.297 2.88.213 3.317.677 3.479 3.531.359 6.443.974 12.854 1.307 19.292.172 3.177-.094 6.364-.052 9.547.026 2.442.198 4.88.318 7.536 5.88-.708 11.411.011 16.812-.88-.01-.385-.01-.786-.026-1.172l3.281.011ZM404.771 4.536c2.135-.307 3.093.49 2.75 2.61-.266 1.708-.084 3.64-1.839 5.057-1.588-1.307-3.443-1.698-5.51-1.4-1.49.213-2.464.676-2.344 2.384.094 1.48.214 2.959.172 4.438-.094 3.776-.318 7.547-.427 11.323-.068 2.187-.052 4.375.015 6.557.063 2.485.292 4.964.334 7.427.078 4.177.104 8.334.104 12.495 0 3.76-.052 7.52-.094 11.281-.036 3.292-.25 6.573-.094 9.855.11 2.036.787 4.052 1.162 6.093.385 2.01-.693 3.156-2.599 2.61-2.12-.6-3.854-1.532-4.88-3.891-1.386-3.172-3.266-6.146-5.172-9.042-4.11-6.213-8.349-12.317-12.578-18.453-3.719-5.411-7.422-10.838-11.25-16.172-2.042-2.812-4.386-5.4-6.479-8.187-2.735-3.651-5.375-7.36-8-11.078-.735-1.058-1.162-2.365-2.803-2.63.068 10.708-.052 21.213.256 31.708.317 10.495-.657 21.026.64 31.745 4.334.656 8.516 1.24 12.891.802 1.87 2.135.958 4.505.776 6.906-.63.198-1.281.667-1.724.52-3.557-1.228-7.063.334-10.599.105-.693-.037-1.401-.026-2.094-.026-3.265.016-6.547-.052-9.823.068-3.093.12-3.349.026-3.963-2.907-.146-.682-.36-1.349-.464-2.041-.39-2.266.917-3.745 3.276-3.839 1.177-.041 2.349-.198 3.615-.307.307-1.344.734-2.48.786-3.64.214-4.667.334-9.344.417-14.011.063-3.776-.083-7.547.063-11.307.239-6.47.229-12.907-.079-19.375-.239-5.162-.093-10.334-.239-15.506a36.075 36.075 0 0 0-.693-6.203c-.401-2.052-.052-3.49 2.026-4.344.719-.28 1.318-.854 2.224-1.468.641.52 1.521.906 1.948 1.588 3.76 5.974 8.203 11.438 12.802 16.771 3.094 3.604 6.547 6.896 9.787 10.375 4.197 4.52 8.239 9.11 11 14.776 2.291 4.703 5.197 9.104 7.812 13.651 1.135 1.985 2.198 4 3.318 5.984.521.938 1.083 1.855 2.187 2.725.177-1.027.521-2.068.495-3.084-.292-11.52-.734-23.036-.974-34.557-.12-5.656.068-11.323.188-16.974.041-1.6.265-3.172-.802-4.64-2.454.16-4.907.213-7.334.52-1.359.172-1.916-.385-2.01-1.52-.136-1.47-.255-3.027 1-3.949 3.88.266 7.583.417 11.265.802 3.907.412 7.719-.093 11.558-.625Zm-16.839 396.719c4.87 4.948 7.495 10.865 7.443 17.745-.057 5.052-.88 10.068-4.083 14.281-1.839 2.427-3.318 5.104-5.974 6.922-3.48 2.386-7.334 3.453-11.396 3.583-5.495.188-11-.041-16.511.026-2.489.027-4.984.323-7.479.495-.292 3.438.63 6.547-.583 9.573-2.485.349-4.912.625-7.297 1.042-1.412.239-2.052-.281-2.703-1.521-1.334-2.573-.912-5.349-1.229-8.016-.839-7.25-1.506-14.531-2.224-21.786-.084-.854-.203-1.729-.058-2.547.11-.516.615-1.292 1.058-1.37 3.104-.536 6.239-.937 9.718-1.427.651 3.401 1.266 6.677 1.933 10.188 3.734-.042 7.291.343 10.89-.323a39.311 39.311 0 0 1 7.282-.667c3.64 0 6.52-1.667 9.333-3.641.521-.359.896-.958 1.453-1.239 3.203-1.599 3.427-4.292 2.787-7.333-1.198-5.704-4.813-9.547-10.105-11.36-7.385-2.547-14.281-5.734-20.547-10.479-4.359-3.307-8.171-7.109-11.718-11.198-1.282-1.484-2.016-3.458-2.88-5.271-.511-1.052-.631-2.276-1.136-3.317-3.255-6.813 1.026-18.292 7.625-21.974 1.469-.829 2.708-2.052 4.188-2.881 4.895-2.708 9.828-5.385 15.51-6.161.516-.063 1.078-.307 1.557-.188 4.933 1.188 9.667-.635 14.532-.77 1.015-2.521-.276-4.745-.344-7.016-.026-.823-.427-1.635-.599-2.464-.511-2.359.838-3.802 3.156-3.145 2.349.666 4.589.52 6.938.156 3.515-.547 4.849.802 5.198 4.401.317 3.469 1.026 6.906 1.437 10.375.417 3.479.682 6.974.99 10.453.359 4.01.614 8.042 1.052 12.042.333 2.984-.011 3.172-3.104 3.583-2.829.385-5.469.052-8.146-.573-2.162-.505-3.938-1.333-4.11-4.078-.146-2.323-.828-4.589-1.146-6.896-.375-2.734-1.109-3.677-3.88-3.479-3.682.266-7.333.896-11 1.427-1.468.198-2.922.531-4.375.813-5.614 1.052-8.703 4.75-10.198 9.989-.239.849-.135 1.985.25 2.787 1.443 3.052 2.938 6.104 4.683 8.984.922 1.505 2.255 2.88 3.692 3.906 6.375 4.573 13.188 8.349 20.573 11.172 3.735 1.427 6.709 4.297 9.547 7.177Zm-13.505 230.891c.01 2.265-2.813 5.39-4.865 5.135-5.297-.656-10.307 1.068-15.468 1.495-9.839.813-19.641 2.063-29.48 2.917-4.786.416-9.63.323-14.453.479-2.812.094-5.64.364-8.453.297-2.812-.084-16.906-1.016-19.12-1.162-3.39-.213-6.64.12-9.817 1.318-2.146.818-3.542-.052-3.917-2.318-.042-.255-.12-.495-.109-.745.213-4.307-.052-8.734.786-12.921 1.484-7.386-1.396-14.761-1.182-22.162.01-.239-.177-.479-.162-.719.318-10.76.401-21.531 1.094-32.265.344-5.386-1.359-9.802-1.401-15.255-.052-8.641-4.068-42.162-3.333-50.438.359-4.068 1.041-8.026 1.708-12.026.333-2.031-.016-4.177-.016-6.271 0-3.104.907-3.88 4.026-3.76 2.428.094 4.547 1.469 7.24.88 3.682-.797 14.469-2.01 18.266-2.182 6.041-.271 12.041-.401 17.974 1.385 2.281.677 4.922.505 7.349.24 6.786-.761 13.557-1.052 20.375-.709 2.677.136 5.265 1.297 8.01.844 2.083-.349 4.146-.75 6.24-.937 3.442-.318 3.666-.105 4.88 3.067.265.693.385 1.599.896 2.026 2.453 2.11 2.052 4.776 1.838 7.521-.411 5.412-.693 10.839-1.094 17.11-1.52.25-3.187.796-4.838.744-6.682-.213-13.349-.573-20.026-.932-9.641-.536-19.281-1.187-28.922-1.641-2.948-.135-5.906.224-8.828.36-1.25 3.573-.703 21.078.937 25.437 4.089-.224 8.396-.198 12.625-.771 5.771-.786 11.495-1.708 17.344-1.317a18.631 18.631 0 0 0 4.427-.281c6.443-1.162 12.802.01 19.162.718 3.385.375 6.64.453 9.922-.505.546-.177 1.197-.016 1.729 0 2.817 6.078 3.281 16.906 1.271 27.906-2.443 1.558-5 2.172-8.016 2.12-6.891-.12-13.797.318-20.693.438-6.411.119-12.838.135-19.265.161-2.948 0-5.896-.135-8.839-.12-.974 0-1.937.255-2.911.386-2.198.297-4.396.708-6.599.828-3.308.161-3.865.495-4.094 3.88-.13 1.839.057 3.693.146 5.531.161 3.214.323 6.417.562 9.615.255 3.588.641 10 1 13.562.349 3.276 1.375 4.266 4.709 4.532 7.916.614 15.838 1.291 23.77 1.682 3.563.172 7.146-.281 10.709-.443.375-.01.744-.026 1.119-.01 7.308.344 14.506-2.125 21.813-1.802 2.839.119 5.682.172 8.521.213 2.677.026 3.625 1.094 3.797 3.787.333 5.521.843 11.041 1.244 16.573.198 2.828.396 5.666.412 8.505Zm41.172-439.188c-.104-2.182-.427-4.359-.615-6.531-.276-3.24-.557-6.469-.823-9.708-.401-4.693-.802-9.37-1.255-14.052-.469-4.745-1.224-9.464-1.677-14.214-.88-9.198-1.547-18.427-2.495-27.614-.349-3.318-.666-6.678-2.229-9.787-.703-1.437-1.292-1.786-2.917-1.547-4.802.709-9.562 1.99-14.494 1.427-.745-.093-1.547.282-2.308.521-1.093.349-1.521 1.083-1.359 2.292.333 2.562.427 5.151.828 7.708 1.156 7.359 2.385 14.719 2.13 22.229-.104 3-.12 6.011-.187 9.011-.906-.813-1.24-1.735-1.729-2.558-3.724-6.349-7.485-12.666-11.188-19.015-1.255-2.146-2.453-4.318-3.547-6.547-2.094-4.281-4.052-8.615-6.135-12.891-1.078-2.213-1.307-2.255-3.719-1.708-2.693.615-5.359 1.198-8.135 1.135a14.11 14.11 0 0 1-2.12-.177c-1.854-.291-3.787-.104-5.677-.156-1.36-.031-2.042.583-2 1.969.187 5.948-.776 11.989 1.489 17.776.214.531.256 1.161.297 1.745.266 4.869.464 9.734.771 14.604.307 4.838.724 9.677 1.083 14.505.266 3.573.787 7.172.959 10.745.067 1.359.093 2.719.026 4.083-.188 3.849.521 7.49.838 11.224.334 3.839.818 7.693.818 11.531 0 3.844.984 5.188 4.813 5.177 1.666-.015 3.343-.213 5.026-.255 3.359-.078 6.718-.068 10.078-.198 1.521-.067 1.989-.843 1.812-2.349a438.36 438.36 0 0 1-.864-8.281c-.829-8.37-1.813-16.719-2.386-25.104-.401-5.813-.255-11.682-.333-17.521.276-.016.557-.042.838-.052.615 1.437 1.318 2.865 1.839 4.344a339.092 339.092 0 0 0 14.349 34.666c1.932 4 3.864 7.99 5.786 11.99.532 1.104 1.344 1.25 2.48.932 4.614-1.333 9.375-1.547 14.145-1.786 2.537-.136 5.042-.651 7.813-1.026 0-2.443.083-4.495-.026-6.537Zm-58.745 24.365c-.146-1.604-.922-2.365-2.417-2.469-3.875-.265-7.744-.693-11.609-.693-5.266 0-10.521.292-15.786.532-2.068.093-4.12.547-6.188.536-.401 0-.812 0-1.214-.026-3.078-.057-6.145-.271-9.229-.391-4.052-.145-8.13-.411-12.182-.333-6.365.136-12.708.537-19.057.787-2.334.093-2.745.604-2.172 2.937.078.292.104.599.229.865 2.026 4.651 1.172 9.854 2.703 14.599.094.255-.068.588-.078.88-.109 2.187.427 2.776 2.693 2.734 4.093-.094 8.146.026 12.146 1.13 1.505.417 3.135.485 4.708.537 2.854.094 5.719.068 8.573.052a36.23 36.23 0 0 0 3.854-.214c1.719-.187 3.427-.479 5.156-.718.391 3.64.214 7.119 1.188 10.255 1.989 6.37 1.64 12.984 2.666 19.453.829 5.156.401 10.516.547 15.786.084 3.063-.198 6.224.427 9.183 1 4.708 1.334 9.427 1.563 14.203.146 2.958.37 5.932.64 8.88.172 1.854.917 2.615 2.386 2.344 4.094-.761 8.161-1.427 12.359-.693 1.625.297 2.078-.333 2.094-2.094.01-.489-.094-.984-.135-1.479-.36-4.557-.704-9.12-1.079-13.666-.239-2.974-.411-5.948-.786-8.891-.667-5.333-1.333-10.656-1.625-16.016a84.513 84.513 0 0 1-.161-5.984c0-.589.01-1.188-.026-1.787-.308-4.854-.631-9.708-.964-14.562-.063-1.094-.026-2.224-.292-3.266-.802-3.015-.786-6.026-.401-8.88 4.068-.573 7.974-1.333 11.922-1.614 3.068-.214 6.266-1.266 9.172.64.958-.786 1.802-1.469 2.547-2.078-.761-7.068-1.505-13.776-2.172-20.479ZM330.932 117.24c.136 2.239.375 4.505.36 6.776-.011 2.583-.428 2.89-2.974 2.984-2.969.094-5.959.146-8.933.307-.948.052-1.88.401-3 .651.12 2.854.255 5.511.334 8.162.067 2.682.083 5.349.109 8.015 0 .599-.109 1.198-.12 1.797-.213 7.162-.51 14.323-.547 21.495-.015 2.641.719 5.292.907 7.948.291 4.359.437 8.734.625 13.094.078 1.864.109 3.745.171 5.771 1.271.041 2.334.067 3.391.135 2.063.12 4.146.198 6.182.479.563.078 1.485.839 1.469 1.281-.01 2.547 1.865 5.292-.573 7.521-2.734.12-5.427.334-8.104.334-3.068 0-6.125-.256-9.187-.271-2.084 0-4.162.271-6.24.349-1.87.078-3.75.067-5.63.067-.974-.015-1.943-.145-2.907-.119-2.026.062-2.947-.683-3.161-2.615-.104-.99-.359-1.948-.453-2.932-.214-2.214 1.229-3.63 3.391-3.479 1.052.078 2.119.062 3.171-.032 2.959-.276 5.907-.609 9.026-.942-.89-22.297-1.265-44.511-3.708-67.11-.932-.797-2.062-1.052-3.609-.625-4.042 1.094-8.026.547-11.974-.854-.308-2.224-.667-4.375-.896-6.521-.198-1.828.469-2.531 2.229-2.745 3-.349 6-.75 9-1.119.281-.026.583-.052.865-.016 4.869.776 9.838.266 14.692 1.719 2.375.724 5.136.213 7.709.161 2.172-.052 4.349-.291 6.531-.333.547-.011 1.109.385 1.854.667ZM318.12 84.745c.281-4.266.547-8.183.828-12.334-1.401-.24-2.641-.573-3.906-.666-4.657-.344-9.308-.677-13.974-.907-4.334-.197-8.667-.302-13-.395-1.735-.032-2.469-.615-2.48-2.51-.026-2.48-.296-5.027.172-7.428.771-3.984.386-7.906.104-11.849-.093-1.281-.276-2.562-.302-3.854-.015-1 .558-1.99 1.542-1.812 3.135.53 6.109-.365 9.161-.63 5.11-.464 10.256-.667 15.683-.985.187-2.839.401-5.599.547-8.36.067-1.067-.521-1.723-1.631-1.64-2.666.188-5.333.48-8 .667-4.104.265-8.213.453-12.317.703-1.865.11-3.787.057-5.589.443-2.094.453-2.609.24-2.719-1.959-.171-3.573-.317-7.135-.531-10.708-.135-2.469.479-3.266 2.974-3.412 1.583-.093 3.182-.015 4.771-.015 4.958-.026 9.922-.094 14.88-.052 2.068.01 4.136.25 6.307.4 0-2.546.042-4.723-.015-6.88-.037-1.083-.531-1.494-1.761-1.375-2.453.24-4.942.224-7.411.292-3.281.068-6.557 0-9.839.177-5.932.318-11.854.787-18.453 1.24.12 3.547.214 6.89.344 10.24.266 6.239.776 12.489.76 18.744 0 5.667-.557 11.35-.838 17.016-.052 1.094.026 2.182.042 3.276.078 5.27.198 10.536.239 15.802.011 2.573-.109 5.161-.177 8.187 14.896 1.188 29.708.068 44.589.584Zm2.922-15.25c.958.64.651 1.89.546 3.067-.187 2.172-.51 4.344-.604 6.532-.062 1.573.177 3.161.188 4.734.015 1.094-.12 2.172-.214 3.52-2.703.12-5.265.36-7.823.319-6.177-.079-12.349-.6-18.51-.36-4.771.188-9.531.36-14.307.136-2.573-.12-5.146-.375-7.73-.51-1.708-.095-1.828-1.12-1.75-2.464.204-3.255.443-6.521.427-9.776-.01-5.36-.197-10.72-.307-16.078-.01-.693-.052-1.386-.026-2.079.36-6.578.802-13.15 1.068-19.724.104-2.572-.12-5.171-.255-7.744-.292-5.745-.641-11.495-.943-17.24-.031-.693.052-1.385.062-2.094.032-1.385.844-1.948 2.12-1.948 4.948-.01 9.88-.974 14.844-.291.292.052.609.12.891.041 6.052-1.708 12.213.026 18.296-.64 1.636-.188 3.25-.563 5.318-.922.214.625.719 1.48.719 2.333.026 3.078-.224 6.146.588 9.198.438 1.667-.161 2.177-2.052 2.401-2.281.266-4.494.495-6.786-.281-1.24-.412-2.75-.063-4.12-.01-4.963.198-9.948-.282-14.87.625-.291.052-.557.171-1.281.385.068 3.188.151 6.245.214 9.27.203.157.359.386.51.386 6.583-.333 13.182-.666 19.771-1.015 2.76-.146 5.562.187 8.229-.933.307-.13 1.182.401 1.344.802.265.677.203 1.506.203 2.276 0 3.579-.094 7.151 0 10.724.036 1.865-.151 2.276-2.068 2.292-7.12.042-14.203.531-21.229 1.615-.865.13-1.771.052-2.974.093-.573 3.464.177 6.917-.052 10.334-.224 3.437-.307 6.906-.453 10.718 2.307.198 4.307.36 6.323.547 2.932.266 5.849.6 8.786.802 2.13.146 4.292.146 6.438.172 2.281.026 4.521-.145 6.776.625 1.333.453 2.916.136 4.693.162Zm-19.938 278.573c.365 2.557.271 2.948-2.182 3.708-1.094.333-2.282.438-3.427.573-2 .213-4 .37-6.016.573-.625.052-1.266.146-1.906.156-3.651.083-4.933-1.396-4.959-5-.015-3.771-.375-7.531-.588-11.422-1.068-.109-1.771-.255-2.495-.255-2.182.01-4.37.026-6.573.068l-.052-3.255c.229 0 .495-.094.719-.136 3.026-.422 6.057-.864 9.068-1.276 1.88-.266 2.692.188 3.265 2.068.537 1.812 1 3.677 1.281 5.541.469 3.032.761 6.068 1.12 9.136h7.667c.573-8.292.411-16.479-.188-24.589l3.443-.276c.188 2.308.37 4.625.547 6.933.198 2.651.052 5.317.24 7.974.239 3.171.599 6.333 1.036 9.479Z" fill="#1A3151"/><path d="m299.281 323.682-3.442.276c-.344-4.666-.855-9.291-1.428-13.906-3.625.537-7 1.042-10.598 1.573 0 1.615-.011 3.391 0 5.161.026 1.907.083 3.813-1.454 5.256-2.505-.297-4.921-.896-7.291-.787-3.136.146-6.255.558-9.417.719-3.026.161-6.052.599-9.036 1.198l-.693-3.333c.812-.146 1.609-.292 2.411-.454 6.042-1.145 12.052-2.692 18.308-1.864 1.026.135 2.078.015 3.239.015.469-3.093.505-6-.307-8.911-.693-2.516-.292-2.786 2.401-2.839 2.198-.052 4.401-.411 6.599-.692 2-.266 3.974-.625 5.958-.922 1.229-.172 2.084.255 2.401 1.536.375 1.427.974 2.839 1.12 4.308.443 4.547.854 9.104 1.229 13.666Z" fill="#1A3151"/><path d="M295.838 323.958c.599 8.11.761 16.297.188 24.589h-7.667c-.359-3.068-.651-6.104-1.12-9.136-.281-1.864-.745-3.729-1.281-5.541-.573-1.88-1.385-2.333-3.266-2.068-3.01.412-6.041.854-9.067 1.276-.224.042-.49.136-.719.136a.412.412 0 0 1-.198-.042c-2.87-1.505-5.776-.505-8.63-.104-2.917.427-5.906.864-8.667 1.854-3.026 1.068-6.344 2.068-7.838 5.479-.412.958-1.042 1.906-1.198 2.932-.896 5.948-.084 11.443 4.651 15.745 1.734 1.563 3.453 3.151 5.281 4.604 6.958 5.573 13.974 11.078 21.625 15.703 1.083.657 2.266 1.162 3.443 1.667 3.786 1.641 6.427 4.203 7.77 8.281 3.282 9.99 1.761 19.36-4.052 27.761-3.599 5.187-9.026 8.599-14.989 10.922-.292.104-.625.156-.891.317-5.562 3.094-11.479 4.896-17.88 5-3.161 1.693-6.693.745-10.016 1.412-2.812.562-3.317 1.135-2.609 3.963a98.055 98.055 0 0 1 1.411 6.521c.12.693-.078 1.438-.171 2.771-4.667.453-9.068.896-13.803 1.349-.187-1.521-.401-2.724-.505-3.896-.015-.172-.015-.333-.026-.505-.255-5.411-.359-10.828-.692-16.24-.214-3.265-.896-6.52-1.12-9.786-.203-2.844-.042-5.708-.042-8.844 3.76-.344 7.078-.635 10.854-.969.24 3.823.464 7.266.693 10.719.052.735-.052 1.615.307 2.162.386.599 1.224 1.239 1.891 1.25 6.453.187 12.776-1.131 19.12-2 5.39-.745 10.349-2.907 15.375-4.828 1.573-.599 3.135-1.224 4.666-1.943.641-.323 1.438-.761 1.719-1.349 1.521-3.333 3.974-6.386 3.495-10.375-.453-3.755-2.615-6.479-5.12-9.25-6.016-6.625-14.042-9.349-22.052-12.12-3.427-1.203-6.693-2.615-9.786-4.505-2.334-1.427-4.855-2.604-7.042-4.229-4.214-3.162-6.932-7.318-7.974-12.615-.932-4.703-2.068-9.307-1.146-14.172 1.255-6.666 5-11.838 9.469-16.64.208-.224.489-.438.771-.532 4.291-1.521 8.52-3.307 12.922-4.427a94.19 94.19 0 0 1 4.692-1.083c2.985-.599 6.011-1.037 9.037-1.198 3.161-.161 6.281-.573 9.416-.719 2.37-.109 4.787.49 7.292.787 1.536-1.443 1.479-3.349 1.453-5.256-.01-1.77 0-3.546 0-5.161 3.599-.531 6.974-1.036 10.599-1.573.573 4.615 1.083 9.24 1.427 13.906Z" fill="#E3E3E4"/><path d="M294.563 399.708c.182 6.198-1.187 12.011-4.64 17.224a79.707 79.707 0 0 1-3.922 5.417c-3.23 4.078-7.521 6.917-11.922 9.427-3.344 1.917-7.172 3.011-10.787 4.453-1.76.703-3.547 1.36-5.317 2.052-2.625 1.011-5.256 1.198-8.094.719-5.042-.865-5.443-.344-5.094 4.599.026.323-.052.682.068.964 1.224 2.942.224 5.505-1.599 8.276-1.589 0-3.203-.172-4.761.041-4.083.532-8.161 1.146-12.213 1.896-2.761.516-3.641.156-3.948-2.521-.255-2.229-.411-4.442-.547-6.666l3.854-.136c.104 1.172.318 2.375.505 3.896 4.735-.453 9.136-.896 13.803-1.349.093-1.333.291-2.078.171-2.771a98.055 98.055 0 0 0-1.411-6.521c-.708-2.828-.203-3.401 2.609-3.963 3.323-.667 6.855.281 10.016-1.412 6.401-.104 12.318-1.906 17.88-5 .266-.161.599-.213.891-.317 5.963-2.323 11.39-5.735 14.989-10.922 5.813-8.401 7.334-17.771 4.052-27.761-1.343-4.078-3.984-6.64-7.77-8.281-1.177-.505-2.36-1.01-3.443-1.667-7.651-4.625-14.667-10.13-21.625-15.703-1.828-1.453-3.547-3.041-5.281-4.604-4.735-4.302-5.547-9.797-4.651-15.745.156-1.026.786-1.974 1.198-2.932 1.494-3.411 4.812-4.411 7.838-5.479 2.761-.99 5.75-1.427 8.667-1.854 2.854-.401 5.76-1.401 8.63.104.052.031.13.042.198.042l.052 3.255c-1.214.01-2.438.036-3.651.078-2.625.094-5.401-.146-7.854.625-3.386 1.068-6.891 2.469-9.667 4.63-1.88 1.453-2.135 4.547-1.213 7.104.572 1.589 1.307 3.146 2.229 4.563 4.01 6.224 8.718 11.583 15.968 14.385 5.349 2.068 10.297 4.974 14.402 9.146 2.229 2.266 4.656 4.349 6.906 6.599 2.692 2.682 3.76 6.057 3.989 9.76.12 2.12.438 4.23.495 6.349Zm-8.135-247.359c.239.839.343 1.797.239 2.667-.786 6.489-.255 13.187-2.521 19.437-1.197 3.323-2.052 6.787-4.104 9.813-1.307 1.948-1.989 4.297-3.786 5.989-1.297 1.198-2.427 2.573-3.641 3.854-.213.224-.416.454-.666.61-2.922 1.87-5.907 3.63-8.761 5.588-3.479 2.386-7.417 3.214-11.495 3.599-1.573.162-3.187.026-4.77.026v.203c-4.573-.213-9.136-.479-13.709-.614-1.547-.042-2.146-.839-2.265-2.172-.146-1.589-.188-3.187-.266-4.776-.135-2.88-.307-5.76-.365-8.641-.062-3.557-.01-7.119-.026-10.677-.01-3.963.068-7.922-.036-11.87l3.12-.078c0 .813.062 1.625.119 2.427.276 4.068.787 8.12.839 12.172.052 5.453.948 10.896.266 16.36-.037.297-.094.666.041.88.375.63.735 1.375 1.308 1.708.64.375 1.505.427 2.291.469 5.068.266 10.12.089 15.188-.51 3.854-.464 7-2.678 10.651-3.506 6.015-4.187 10.854-9.291 13.161-16.427a1423.897 1423.897 0 0 0 4.906-15.255c1.417-4.531 1.709-9.146.589-13.651l2.786-.786c.308 1.052.599 2.104.907 3.161Zm-.907-3.161-2.786.786a24.375 24.375 0 0 0-.547-1.854c-2.614-7.615-7.427-13.813-13.786-18.677-2.323-1.787-4.964-3.761-7.709-4.24-5.119-.896-10.093-2.51-15.494-2.39l-.079-3.157c.146 0 .292-.015.443-.057 3.932-.974 7.693.443 11.505.87 4.334.479 8.521 1.797 12.573 3.463 5.959 2.469 10.042 6.724 12.104 12.735 1.401 4.12 2.589 8.323 3.776 12.521Z" fill="#1A3151"/><path d="M282.734 149.974c1.12 4.505.828 9.12-.588 13.651a1423.955 1423.955 0 0 1-4.907 15.255c-2.307 7.136-7.145 12.24-13.161 16.427-3.651.828-6.797 3.042-10.651 3.505a89.205 89.205 0 0 1-15.188.511c-.786-.042-1.651-.094-2.291-.469-.573-.333-.933-1.078-1.308-1.708-.135-.214-.078-.584-.041-.88.682-5.464-.214-10.907-.266-16.36-.052-4.052-.562-8.104-.838-12.172-.058-.802-.12-1.614-.12-2.427 0-.385.01-.76.052-1.146.948-8.708-.615-17.239-1.828-25.786-.693-4.786-.505-9.479.146-14.229 4.427-1.557 8.656-1.13 12.895-1.318.188 0 .375-.016.558-.016 5.401-.119 10.375 1.495 15.495 2.391 2.744.479 5.385 2.453 7.708 4.24 6.359 4.864 11.172 11.062 13.786 18.677.214.614.386 1.239.547 1.854Z" fill="#E3E3E4"/><path d="M281.881 402.745c.479 3.989-1.974 7.041-3.495 10.375-.281.588-1.078 1.026-1.718 1.349-1.532.718-3.094 1.343-4.667 1.942-5.026 1.922-9.984 4.084-15.375 4.829-6.344.869-12.667 2.187-19.12 2-.667-.011-1.505-.651-1.891-1.25-.359-.547-.255-1.428-.307-2.162-.229-3.453-.453-6.896-.693-10.719-3.776.334-7.093.625-10.854.969 0 3.136-.161 6 .042 8.844.224 3.265.906 6.521 1.12 9.786.333 5.412.437 10.828.692 16.24.011.172.011.333.027.505l-3.855.136c-.041-.75-.078-1.48-.135-2.23-.438-6.666-.385-13.369-2.089-19.916-.296-1.12-.401-2.308-.468-3.469-.214-4.333-.375-8.682-.563-13.026-.12-2.453.349-3.042 2.844-3.052 1.463-.016 2.932.453 4.396.396a96.401 96.401 0 0 0 8.547-.693c3.427-.427 4.937.76 4.921 4.24 0 2.989-.135 5.963-.187 8.937-.01.411.109.823.214 1.599 6.572-.63 13.145-.906 19.572-2 4.657-.802 9.204-2.521 13.657-4.188 2.64-.984 4.307-3.145 3.744-6.281-.479-2.703-.802-5.505-1.718-8.067-.615-1.667-1.974-3.266-3.375-4.438-5.25-4.349-11.735-6.24-17.948-8.682-7.505-2.943-14.729-6.479-21.104-11.547-3.292-2.61-4.693-6.25-5.787-10.011-1.562-5.359-1.333-10.895-1.401-16.442-.052-4.599 1.078-8.61 3.281-12.386 2.615-4.479 6.375-7.573 11.24-9.786 5.333-2.438 10.891-3.625 16.495-4.708l.692 3.333a94.708 94.708 0 0 0-4.692 1.083c-4.401 1.12-8.63 2.906-12.922 4.427-.281.094-.563.308-.771.532-4.469 4.802-8.213 9.973-9.469 16.64-.922 4.865.214 9.469 1.146 14.172 1.042 5.297 3.761 9.453 7.974 12.615 2.188 1.625 4.708 2.802 7.042 4.229 3.094 1.89 6.359 3.302 9.786 4.505 8.011 2.771 16.037 5.495 22.052 12.12 2.506 2.771 4.667 5.495 5.12 9.25ZM247.865 638.88c-1.093-1.974-11.635-14.239-12.531-15.828-.479-.838-.958-1.693-1.573-2.437-3.239-4.042-5.187-8.896-8.682-12.839-5.719-6.469-11.078-13.271-16.437-20.057-5.053-6.427-10.016-12.943-14.813-19.558-3.922-5.401-7.562-10.989-11.323-16.505-1.37-2.015-.823-3.854 1.599-5.057 4.214-2.063 8.484-3.984 12.667-6.104 6.937-3.521 13.791-7.052 19.125-13.068 3.276-3.682 5.12-7.906 6.25-12.411.666-2.631.213-5.683-.308-8.443-.572-3.011-1.77-5.917-2.734-8.865-.266-.812-.463-1.76-1.01-2.333-2.761-2.88-5.787-5.521-9.828-6.266-3.948-.734-7.855-2.416-12.027-1.067-.651.213-1.468-.042-2.197-.094-3.454-.214-6.948-.896-10.334-.563-9.229.881-18.547.693-27.656 2.802-1.974.454-4.188-.067-6.281-.161-1.479-.068-2.969-.333-4.438-.224-2.187.156-2.708 1.078-2.437 3.188.198 1.557.104 3.145.156 4.718.109 3.693.214 7.386.359 11.094.11 2.693.308 5.37.453 8.068.334 6.505.537 13.026 1.032 19.531.265 3.557 1.302 7.078 1.479 10.641.427 8.505.437 17.026.838 25.531.256 5.307.974 10.588 1.386 15.896.417 5.291.922 10.583 1.015 15.89.188 10.87.131 21.735.172 32.599 0 1.443.802 2.177 2.12 1.844 5.016-1.255 11.625 1.318 16.615-.042 1.239-.333.401-5.198.078-6.427-.771-2.906.802-11.333.76-12.812-.12-6.427-.333-12.865-.385-19.292-.026-2.333.463-4.693.385-7.026-.343-10.109-.797-20.203-1.281-30.307-.062-1.307.323-2.375 1.51-2.604.933-.157 2.183.109 2.933.656.958.708 1.495 1.958 2.307 2.88 3.839 4.344 8.094 8.386 11.479 13.052a577.151 577.151 0 0 1 19.011 27.896c5.494 8.557 18.083 26.76 24.656 34.49 0 0 16.026.281 17.89-.386Zm8.271 1.24c1.146 1.88.172 4.692-2.151 4.734-3.583.052-17.343-.64-21.932 0-1.771.531-2.984.188-4.615-1.078-8.078-6.307-17.744-22.88-23.395-31.042-2.12-3.067-4.323-5.948-7.204-8.411-2.505-2.162-4.599-4.844-6.718-7.417-4.162-5.036-8.198-10.172-12.802-15.906 0 1.87-.198 3.172.031 4.385 1.13 6.016 1.213 12 .719 18.094-.547 6.906-.563 13.854-.802 20.787-.198 5.906-.412 10.442-.599 16.349-.016.614.145 1.213.213 1.812.281 2.667-.443 3.443-2.958 3.318-8.162-.344-16.323.698-24.485.349-.744-.026-1.515.067-2.224-.078-1.828-.401-3.281-1.188-3.171-3.443.052-1.198-.323-2.521.036-3.615 1.109-3.343.536-6.677-.156-9.864-2.084-9.469-2.761-19.078-3.521-28.693-.813-10.24-1.495-20.479-2.349-30.708-1.01-12.318-1.401-24.641-1.464-36.985-.015-4.562-.255-9.135-.203-13.692.052-4.896-.052-9.844.573-14.683.787-6.067.084-12.026-.146-18.041-.041-1.172 0-2.36 0-4.089 4.563.25 8.375.531 12.204.651 5.822.172 11.666.386 17.479.292 6.067-.078 12.119-.453 18.172-.797 2.093-.109 4.187-.844 6.229-.708 4.302.281 8.599.854 12.849 1.505 3.776.562 7.494 1.427 11.255 2.12 2.479.453 3.828 2.057 5.385 4 3.495 4.349 4.907 9.359 5.881 14.588.536 2.88.656 5.865.682 8.802.036 3.584.13 7.224-.427 10.745-1.443 9.068-7 15.641-13.948 21.104-3.281 2.563-6.427 5.375-10.641 6.63-1.599.464-2.812 2.224-4.583 3.735 2.239 3.849 4.635 7.984 7.052 12.12 1.625 2.77 3.281 5.546 4.906 8.317 2.318 3.985 5.427 7.292 8.479 10.719 4.412 4.932 9.266 9.547 12.532 15.479 1.604 2.896 4.161 5.24 5.937 8.057 2.787 4.386 5.25 8.974 7.917 13.438.692 1.161 1.63 2.172 2.453 3.255 1.547 2.037 8.177 11.703 9.51 13.865Zm-6.521-628.521c.719 1.427.891 2.63.599 4.12-1.453 7.453-4.015 14.547-6.744 21.604-1.323 3.385-2.297 7-4.151 10.088-3.146 5.256-4.865 11.068-7.292 16.605-2.307 5.291-4.693 10.479-8.344 15.052-1.443 1.802-2.151 4.198-3.12 6.375-1.229 2.729-2.213 2.958-4.213.666-1.068-1.24-2.042-2.573-3-3.895l2.573-1c.333.52.974.854 1.692 1.453.771-1.068 1.506-1.865 2.011-2.797 1.573-2.87 2.906-5.87 4.604-8.64 5.479-8.949 9.412-18.563 12.573-28.522 1.146-3.588 1.984-7.297 3.302-10.812 1.938-5.188 4.177-10.255 6.563-16.026-3.146-.578-5.948-1.084-8.683-1.589l.521-2.838c2.203.276 4.417.146 6.615.156 1.479.016 2.974 0 4.494 0Zm-4.494 108.057.078 3.156c-.182 0-.37.016-.557.016-4.24.188-8.469-.239-12.896 1.318-.651 4.75-.839 9.443-.146 14.229 1.213 8.547 2.776 17.078 1.828 25.786-.042.386-.052.761-.052 1.146l-3.12.078a86.936 86.936 0 0 0-.109-3.052c-.172-3.666-.985-7.291-1.282-10.948-.437-5.437-.796-10.88-.916-16.333-.084-3.609-.427-7.13-1.443-10.599-1.307-4.495.307-4.734 4.349-5.094 2.797-.25 5.651-.119 8.479-.104 1.386 0 2.771.12 4.162.198.531.026 1.104.203 1.625.203Z" fill="#1A3151"/><path d="M194.838 519.323c1.813-5.042.615-9.802-3.76-12.974-1.677-1.214-3.625-2.094-5.359-3.255-2.745-1.865-5.584-1.495-8.453-.505-1.745.599-3.37 1.625-5.146 1.974-1.667.333-2.651 1.25-3.506 2.463-1.906 2.776-2.135 5.964-2.187 9.177-.094 2.636-.078 5.292 2.042 7.224 1.823 1.651 3.609 3.625 5.812 4.521 2.641 1.068 5.641 2.495 8.547 1.453 5.172-1.838 9.943-4.333 12.01-10.078Zm40.495 103.729c.896 1.589 11.438 13.854 12.531 15.828-1.864.667-17.89.386-17.89.386-6.573-7.73-19.162-25.933-24.656-34.49a577.151 577.151 0 0 0-19.011-27.896c-3.385-4.666-7.64-8.708-11.479-13.052-.812-.922-1.349-2.172-2.307-2.88-.75-.547-2-.813-2.933-.656-1.187.229-1.572 1.297-1.51 2.604.484 10.104.938 20.198 1.281 30.307.078 2.333-.411 4.693-.385 7.026.052 6.427.265 12.865.385 19.292.042 1.479-1.531 9.906-.76 12.812.323 1.23 1.161 6.094-.078 6.427-4.99 1.36-11.599-1.213-16.615.042-1.318.333-2.12-.401-2.12-1.844-.041-10.864.016-21.729-.172-32.599-.093-5.307-.598-10.599-1.015-15.89-.412-5.308-1.13-10.589-1.386-15.896-.401-8.505-.411-17.026-.838-25.531-.177-3.563-1.214-7.084-1.479-10.641-.495-6.505-.698-13.026-1.032-19.531-.145-2.698-.343-5.375-.453-8.068-.145-3.708-.25-7.401-.359-11.094-.052-1.573.042-3.161-.156-4.718-.271-2.11.25-3.032 2.437-3.188 1.469-.109 2.959.156 4.438.224 2.093.094 4.307.615 6.281.162 9.109-2.11 18.427-1.922 27.656-2.803 3.386-.333 6.88.349 10.334.563.729.052 1.546.307 2.197.094 4.172-1.349 8.079.333 12.027 1.067 4.041.745 7.067 3.386 9.828 6.266.547.573.744 1.521 1.01 2.333.964 2.948 2.162 5.855 2.734 8.865.521 2.76.974 5.812.308 8.443-1.13 4.505-2.974 8.729-6.25 12.411-5.334 6.016-12.188 9.547-19.125 13.068-4.183 2.12-8.453 4.041-12.667 6.104-2.422 1.203-2.969 3.042-1.599 5.057 3.761 5.516 7.401 11.104 11.323 16.505 4.797 6.615 9.76 13.131 14.813 19.558 5.359 6.786 10.718 13.588 16.437 20.057 3.495 3.943 5.443 8.797 8.682 12.839.615.744 1.094 1.599 1.573 2.437ZM246.667 15.87c-2.386 5.77-4.625 10.838-6.563 16.026-1.318 3.515-2.156 7.224-3.302 10.812-3.161 9.959-7.094 19.573-12.573 28.521-1.698 2.771-3.031 5.771-4.604 8.64-.505.933-1.24 1.73-2.011 2.798-.718-.6-1.359-.933-1.692-1.454-2.818-4.453-5.787-8.828-8.334-13.426-4.057-7.36-8.989-14.094-13.843-20.891a34.775 34.775 0 0 1-2.37-3.802c-3.12-5.771-6.255-11.532-9.255-17.375-1.854-3.61-3.547-7.318-5.198-11.037-.604-1.349-.87-2.844-1.349-4.479 3.88-2.094 8.307-1.536 12.479-2.922.453.64 1.109 1.198 1.323 1.89 2.984 9.35 7.932 17.777 12.37 26.454 3.135 6.12 6.708 11.974 10.802 17.51 1.291 1.745 2.213 3.771 3.427 5.573.427.641 1.239 1.026 1.797 1.48.458-.376.708-.48.75-.626.932-4.416 3.25-8.28 4.838-12.427 1.693-4.427 2.802-9.12 3.745-13.776 1.203-5.864 3.057-11.49 5.323-17.01.719-1.75 1.812-2.776 3.865-2.39.562.109 1.135.213 1.692.322 2.735.505 5.537 1.01 8.683 1.589Z" fill="#E3E3E4"/><path d="m238.506 11.443-.521 2.838c-.557-.11-1.13-.213-1.693-.323-2.052-.385-3.146.641-3.864 2.391-2.266 5.52-4.12 11.146-5.323 17.01-.943 4.657-2.052 9.35-3.745 13.776-1.589 4.146-3.906 8.01-4.839 12.428-.041.145-.291.25-.75.624-.557-.453-1.369-.838-1.796-1.479-1.214-1.802-2.136-3.828-3.427-5.573l2.76-1.599c.318.48.677.933 1.01 1.412.271.01.537.042.787.052 1.015-3.266 1.963-6.557 3.041-9.797 3.068-9.229 4-19.083 8.334-27.922.479-.948.573-2.094.828-3.12.854-.4 1.615-.906 2.437-1.135 1.11-.292 2.443-.823 3.349-.453 1.136.469 2.266.719 3.412.87Zm-17.932 186.239c.895 2.131.546 2.651-1.813 2.943-4.427.536-8.854 1.042-13.281 1.604-.974.12-1.932.396-2.891.61-2.151.468-4.12-.625-4.469-2.813-1.317-8.333-4.625-16.026-7.494-23.865l3.213-1.161c.229.682.479 1.349.75 2.016 1.849 4.599 3.917 9.104 5.865 13.677.896 2.093 1.651 4.255 2.614 6.323.438.974 1.105 1.88 2.506 1.677 3.411-.479 6.854-.865 10.401-1.318-.188-.573-.323-1.146-.563-1.682-3.13-7.078-6.333-14.13-9.427-21.224-3.729-8.563-7.13-17.281-11.786-25.401-.547-.948-.943-1.974-1.396-2.974-2.042-4.412-3.948-8.891-6.136-13.224-2.198-4.334-4.666-8.547-7.052-12.792-1.63-2.89-3.828-5.292-6.521-7.505-.359.615-.76 1.083-.932 1.615a4489.842 4489.842 0 0 0-7.401 22.041 3.847 3.847 0 0 0-.198.88l-2.682-.52c.281-1.417.557-2.813.932-4.204 1.75-6.479 3.656-12.916 5.521-19.385.266-.948.667-1.865 1-2.797.667-1.776 2-2.682 3.828-2.88 1.734-.188 2.734.771 3.609 2.13 6.214 9.735 12 19.693 17 30.11.948 1.973 1.761 4 2.683 5.984 2.505 5.401 4.984 10.812 7.599 16.161 2.229 4.558 4.776 8.959 6.922 13.547 2.239 4.761 4.161 9.667 6.224 14.505 1.119 2.641 2.281 5.266 3.375 7.922Z" fill="#1A3151"/><path d="m215.921 81.213-2.573 1c-.323-.437-.641-.88-.963-1.317-2.917-3.906-5.839-7.818-8.704-11.76-4.802-6.615-9.119-13.48-12.817-20.813-4.344-8.604-9.302-16.912-13.943-25.365-1.094-1.984-1.974-4.104-2.99-6.145-1.198-2.386-2.343-4.813-3.703-7.105-1.495-2.52-1.041-3.682 1.943-4.187 2.042-.35 4.083-.693 6.135-.985 3.334-.51 6.667-1.03 10.011-1.442 4.094-.521 5.203 1.505 5.937 4.255 1.183 4.396 2.516 8.786 4.12 13.052.865 2.292 2.427 4.318 3.609 6.505a1720.43 1720.43 0 0 1 7.698 14.136c1.797 3.317 3.547 6.677 5.334 10 .088.161.198.333.291.494l-2.76 1.6c-4.094-5.537-7.667-11.391-10.802-17.511-4.438-8.677-9.386-17.104-12.37-26.453-.213-.693-.87-1.25-1.323-1.89-4.172 1.385-8.599.827-12.479 2.921.479 1.636.745 3.13 1.349 4.48 1.651 3.718 3.344 7.426 5.198 11.036 3 5.843 6.135 11.604 9.255 17.375a34.777 34.777 0 0 0 2.37 3.802c4.854 6.797 9.786 13.531 13.844 20.89 2.547 4.6 5.515 8.974 8.333 13.427ZM191.52 241.026c.906-2.37 1.651-5.068.25-7.198-1.813-2.786-3.969-5.64-7.396-6.656-3.495-1.026-7.042-2.011-10.786-1.745-3.776.281-7.547.453-11.323.693-.667.052-1.318.213-2.094.349.417 8.479.812 16.786 1.203 25.052 2.787 1.255 5.573 1.505 8.453 1.094.985-.136 2.011.01 2.985-.146 2.349-.36 4.734-.63 6.974-1.323a30.507 30.507 0 0 0 6.52-2.88c1.386-.823 2.615-2.105 3.573-3.427.802-1.094 1.162-2.516 1.641-3.813Zm10.078 70.922c.505.974.083 2.427.083 3.344-1.536.698-2.562 1.323-3.666 1.588-1.032.24-2.162.172-3.214.068-.682-.068-1.307-.573-1.974-.667-2.588-.349-2.51-.333-2.948-3.015-.479-2.943-1.135-5.855-1.744-8.771-1.605-7.573-3.178-15.146-4.855-22.709-.494-2.213-1.442-4.333-1.948-6.557-.947-4.151-1.734-8.349-2.572-12.536-.188-.948-.266-1.917-.412-2.933-3.948-.599-7.484.506-11.057 1.23-1.037.213-1.24 1.171-1.24 2.13 0 2.203-.036 4.385-.036 6.573 0 7.093-.203 14.187.104 21.265.333 7.521 1.109 15.016 1.786 22.521.256 2.667-.838 4.084-3.547 4.203a49.68 49.68 0 0 0-4.734.438c-2.427.333-2.974 0-3.146-2.599-.307-4.375-.385-8.761-.734-13.12-.359-4.349-.958-8.682-1.386-13.026-.197-2.083-.411-4.172-.359-6.266.136-4.963.12-9.869-.896-14.802-.786-3.76-.718-7.718-.906-11.588-.266-5.558-.344-11.13-.651-16.693-.188-3.359-.719-6.703-.974-10.068-.146-1.968-.104-3.968-.01-5.958.104-2.344.395-2.839 2.703-3.078 2.75-.307 5.521-.203 8.281-.255.802-.011 1.615.161 2.385.052 4.375-.625 8.75.083 13.11-.011 5.625-.135 10.812 1.401 15.719 3.891 1.588.802 3.067 2.349 3.932 3.922 3.187 5.76 4.172 11.667.922 17.922-1.479 2.849-2.974 5.573-5.495 7.625-.974.802-2.026 1.505-3.333 2.479 1 4.078 1.895 8.333 3.093 12.505 1.948 6.693 3.427 13.495 4.256 20.401.453 3.813 1.812 7.307 2.718 10.948.266 1.052.521 2.104.787 3.162.718 2.77.588 5.718 1.958 8.385Zm-5.385 138.104c.198 2.693-.146 2.87-2.693 3.016-3.172.161-6.323.588-9.495.89-1.255.12-2.521.365-3.771.308-4.453-.172-8.896-.532-13.349-.677-6.479-.204-12.974-.443-19.453-.375-3.682.052-7.375.718-11.052 1.067-2.963.282-5.922.615-8.88.693-2.854.068-4.083-1.229-4.162-4.068-.026-1.265.23-2.531.23-3.797.026-2.656.01-5.307-.068-7.948-.068-1.906-.349-3.812-.385-5.718-.188-7.401.317-14.88-.631-22.188-1.036-7.974-.854-15.906-1.146-23.87-.161-4.515-.958-9.01-1.307-13.531-.359-4.76-.479-9.547-.797-14.307-.239-3.386-.692-6.761-.963-10.136-.156-2.119-.25-4.239-.224-6.359.036-2.385 1.068-3.463 3.573-3.479 2-.01 4.01.297 5.974.682 6.104 1.198 12.187 1.292 18.369.625 8.87-.958 17.777-1.479 26.657-2.213l.307 3.265c-4 .401-8 .683-11.99 1.084-5.265.531-10.52 1.276-15.796 1.692-3.495.282-7.136.719-10.495.078-4.026-.786-7.735.36-11.854.266 0 4.573-.386 8.844.109 13.016.49 4.026.906 8 .974 12.052.062 3.281.437 6.562.719 9.838.333 4 .734 7.99 1.078 11.99.135 1.588.052 3.213.375 4.76 1.224 6.068 1.745 12.172 1.651 18.37-.037 2.854-.24 5.818.333 8.578 1.094 5.24 1.469 10.49 1.615 15.813.104 3.677.599 7.344.922 11.026 2.864 0 5.453.318 7.916-.068 5.495-.838 10.964-1.281 16.511-.958 5.198.276 10.411.463 15.609.692 1.922.079 3.88-.145 5.734.198 4.292.813 8.402-.666 12.615-.76.464-.01.932-.396 1.495-.651-.083-4.589 1.515-9.068.094-13.76-1.365-.068-2.615-.172-3.87-.172-4.13-.016-8.292.156-12.427-.016-3.078-.146-6.13-.068-9.094.589l-.76-3.282v-.015c4.64-1.12 9.692-.907 14.536-.787 4.198.11 8.266-.213 12.333-1.104 2.438-.531 2.584-.333 3.224 2.12.615 2.333.896 4.651.87 7.104-.026 3.469.583 6.948.839 10.427Zm-12.042 73.563c4.443-1.506 5.974-4.855 4.016-9.079-.36-.791-.48-1.734-1-2.39-.802-1.011-1.683-2.25-2.802-2.667-2.12-.76-4.402-1.771-6.652.057-.588.464-1.64.36-2.427.506-2 4.224-2.359 7.703-.958 11.093.333.823 1.063 1.823 1.823 2.068 2.599.797 5.24 1.344 8 .412Zm6.906-17.266c4.375 3.172 5.573 7.932 3.761 12.974-2.068 5.745-6.839 8.24-12.011 10.078-2.906 1.042-5.906-.385-8.547-1.453-2.203-.896-3.989-2.87-5.812-4.521-2.12-1.932-2.136-4.588-2.042-7.224.052-3.213.281-6.401 2.188-9.177.854-1.213 1.838-2.13 3.505-2.463 1.776-.349 3.401-1.375 5.146-1.974 2.87-.99 5.708-1.36 8.453.505 1.734 1.161 3.682 2.041 5.359 3.255ZM193.838 175l-3.214 1.161c-.307-.828-.599-1.656-.891-2.479-.494-1.427-1.239-1.922-2.588-1.87-.906.042-1.828-.093-2.693.094-2.864.599-5.692.761-8.573.016-.932-.24-1.974-.042-3.239-.042-2.469 8.933-4.412 17.802-5.709 26.922l-2.932-.443c.589-4.599 1.094-9.224 1.667-13.838.135-1.078.411-2.136.625-3.198.656-3.109 1.588-6.188 1.854-9.323.187-2.214.656-4.01 2.375-5.557 2.052 0 4.13.052 6.213-.016 3.652-.12 7.308-.255 10.948-.505 2.157-.146 3.49.719 4.183 2.906.656 2.052 1.255 4.13 1.974 6.172Z" fill="#1A3151"/><path d="M190.563 435.187c1.422 4.693-.177 9.172-.094 13.761-.562.255-1.031.641-1.495.651-4.213.094-8.323 1.573-12.614.76-1.854-.343-3.813-.119-5.735-.198-5.198-.229-10.411-.416-15.609-.692-5.547-.323-11.016.12-16.51.958-2.464.385-5.052.068-7.917.068-.323-3.683-.818-7.349-.922-11.026-.146-5.323-.521-10.573-1.615-15.813-.572-2.76-.369-5.724-.333-8.578.094-6.198-.427-12.302-1.651-18.37-.323-1.547-.239-3.172-.375-4.76-.344-4-.745-7.99-1.078-11.99-.281-3.276-.656-6.557-.719-9.838-.067-4.052-.484-8.026-.974-12.052-.495-4.172-.109-8.443-.109-13.016 4.12.094 7.828-1.052 11.854-.266 3.359.641 7 .204 10.495-.078 5.276-.416 10.531-1.161 15.797-1.692 3.989-.401 7.989-.683 11.989-1.084.104 0 .214-.01.318-.026 3.24-.317 3.964.146 4.229 3.479.276 3.605.438 7.204.599 10.802.026.495-.239 1-.479 1.865-1.161 0-2.307.094-3.443-.01-4.401-.417-8.677.265-12.984.958-2.469.385-5.052.052-7.573.161-2.854.131-5.693.495-8.547.584-1.573.041-3.161-.224-4.734-.422-1.865-.245-2.563.146-2.959 1.943-.177.724-.203 1.494-.161 2.229.266 6.224.531 12.463.865 18.692.083 1.683.296 3.386.64 5.042.443 2.052 1.333 2.427 3.453 2.292 3.99-.255 7.974-.292 11.974-.479 2.948-.146 5.896-.401 8.839-.573 2.245-.146 4.495-.495 6.724-.495.703 0 1.427.042 2.13.135 2.24.276 4.161-.187 6.203-.724 1.609-.411 3.266-.677 4.958-1.01 1.881 3.505.865 6.88.933 10.37-7.214.776-14.172 1.937-21.318 1.578-6.589-.333-13.203-.391-20.016 1.437-.651 2.709-.291 5.521.386 8.266 1.161 4.682 1.469 9.453 1.333 14.203-.088 3.677-.838 7.333-1.302 11-.161 1.344.266 2.307 1.703 2.599 6.511 1.344 12.99 1.745 19.537-.016.307-.078.609-.156.916-.223 2.964-.657 6.016-.735 9.094-.589 4.135.172 8.297 0 12.427.016 1.255 0 2.505.104 3.87.171Z" fill="#E3E3E4"/><path d="M187.984 398.932c.255 3.188-.573 4.256-3.719 4.323-1.463.037-2.984.068-4.411-.229-3.906-.771-7.787-.557-11.693.016-1.776.265-3.614.078-5.417.239-4 .386-8 .828-11.984 1.318-1.109.135-1.932.63-1.989 2.026-.089 2.547-.464 5.068-.558 7.604-.146 4.146-.187 8.292-.239 12.427-.026 1.891-.016 3.787-.016 6.011 5.427-.427 10.573 1.135 16.083-.282.12-.026.25-.062.37-.078l.761 3.282c-.308.067-.61.145-.917.224-6.547 1.76-13.026 1.359-19.537.015-1.437-.291-1.864-1.255-1.703-2.599.464-3.666 1.214-7.323 1.302-11 .136-4.75-.171-9.521-1.333-14.203-.677-2.745-1.036-5.557-.385-8.266 6.812-1.828 13.427-1.77 20.015-1.437 7.146.359 14.104-.802 21.318-1.578-.068-3.49.948-6.865-.932-10.37-1.693.333-3.349.599-4.959 1.01-2.041.537-3.963 1-6.203.724a16.377 16.377 0 0 0-2.13-.135l-.026-3.214c3.292-.041 6.557-.317 9.745-1.281 1.104-.333 2.213-.692 3.281-1.146 1.839-.786 3.172-.437 3.729 1.443.547 1.813.802 3.745.964 5.636.281 3.161.343 6.348.583 9.52ZM171.401 154.88c3.385 1.198 6.317.026 9.343.078-.427-2.906-5.64-13.625-7.557-15.265-.052 5.416-2.443 10.177-1.786 15.187Zm13.614-.307c.422.922.532 1.974.771 2.948-5.708 1.745-11.187 1.042-16.614 1.068-2.797.01-3.532-1.386-2.584-4.084.943-2.692 1.558-5.463 2.25-8.224.735-2.974 1.308-5.958 1.828-8.974.198-1.119.349-2.187 1.709-2.385 1.369-.214 2.651.146 3.385 1.37a102.404 102.404 0 0 1 3.573 6.521 483.532 483.532 0 0 1 5.682 11.76Z" fill="#1A3151"/><path d="M181.626 358.932c.041 1.068-.36 2.162-.506 2.974-6.015.172-11.557-.786-17.104.334-5.656 1.145-11.364 1.416-17.109 1.375-1.802-.016-3.589 0-5.667 0-.385 7.359.412 14.375 1.334 21.692 5.479-.146 10.828.771 16.265-.198 2.802-.494 5.735-.39 8.599-.349.75.016 1.495.016 2.245 0l.026 3.214c-2.229 0-4.479.349-6.724.495-2.943.172-5.891.427-8.839.573-4 .187-7.984.224-11.974.479-2.119.135-3.01-.24-3.453-2.292a32.998 32.998 0 0 1-.64-5.042c-.334-6.229-.599-12.468-.865-18.692-.042-.735-.015-1.505.162-2.229.395-1.797 1.093-2.188 2.958-1.943 1.573.198 3.161.463 4.734.422 2.854-.089 5.693-.453 8.547-.584 2.521-.109 5.104.224 7.573-.161 4.307-.693 8.583-1.375 12.984-.958 1.136.104 2.282.01 3.443.01.24-.865.505-1.37.479-1.865-.161-3.598-.323-7.197-.599-10.802-.265-3.333-.989-3.796-4.229-3.479a2.118 2.118 0 0 1-.317.026l-.308-3.265c1.146-.105 2.266-.48 3.412-.651.896-.136 2.161-.563 2.599-.162.948.88 1.963 2.188 2.057 3.375.479 5.891.703 11.797.917 17.703Zm-17.625-160.573 2.932.443c-.24 1.641-.453 3.292-.641 4.958-2.745.136-5.479.412-8.198.375-3.375-.067-6.744-.39-10.119-.599-1.412-.093-2.256-.75-2.068-2.296.281-2.25.323-4.573.932-6.735 2.12-7.463 3.573-15.026 4.521-22.729.427-3.401 1.719-6.708 2.802-10 2.026-6.229 4.307-12.375 6.214-18.641.651-2.135 1.062-4.349 1.505-6.546l2.682.52c-.161 3.396-1.161 6.599-2.094 9.849-2.067 7.245-3.708 14.604-5.698 21.87-2.104 7.771-4.411 15.479-5.822 23.412-.297 1.666-.75 3.296-1.027 4.963-.177 1.026.037 2.172 1.308 2.266 3.666.276 7.344.401 11.01.557 1.12.052 1.641-.703 1.761-1.667ZM160.12 47.495c.625 5.625.349 11.224-1.812 16.693-1.094 2.744-1.682 5.666-3.349 8.187-1.224 1.854-2.703 3.318-4.651 4.495-3.386 2.036-6.656 4.302-9.906 6.573-2.443 1.703-5.172 2.427-8.052 2.812-2.349.308-4.724.521-7.068.906-4.787.797-9.615.427-14.427.401-2.87-.015-5.761-.213-8.615.026-3.291.266-4.922-1.083-5.172-4.203-.349-4.343-.776-8.692-.828-13.036-.078-7.12.266-14.24.146-21.349-.01-.854-.026-1.708-.036-2.573l2.302-.042c.093 3.573.203 7.151.307 10.724.23 7.677.48 15.344.786 23.01.026.87.256 1.803.657 2.563.281.531.974 1.156 1.505 1.188 5.359.265 10.719.583 16.078.541 3.547-.036 7.083-.635 10.615-1a6.54 6.54 0 0 0 1.442-.343c2.88-1.016 5.823-1.88 8.625-3.11 3.308-1.463 6.813-2.692 8.985-5.958 1.656-2.453 3.39-4.865 5.255-7.172 2.588-3.214 4.375-6.589 3.292-10.88-.063-.281 0-.6.041-.896.776-4.797 0-9.547-.76-14.24-.453-2.854-1.266-5.463-2.401-7.854l2.536-.823c2.334 4.823 3.906 9.974 4.505 15.36Z" fill="#1A3151"/><path d="M155.48 40.813c.76 4.692 1.536 9.442.76 14.24-.041.296-.104.614-.041.895 1.083 4.292-.704 7.667-3.292 10.88-1.865 2.307-3.599 4.719-5.255 7.172-2.172 3.266-5.677 4.495-8.985 5.958-2.802 1.23-5.744 2.094-8.625 3.11a6.53 6.53 0 0 1-1.442.343c-3.532.365-7.068.964-10.615 1-5.359.042-10.719-.276-16.078-.541-.531-.032-1.224-.657-1.505-1.188-.401-.76-.63-1.692-.657-2.562-.307-7.667-.557-15.334-.786-23.01-.104-3.574-.214-7.152-.307-10.725a817.04 817.04 0 0 1-.214-10.718c-.088-7.256-.036-14.521-.052-21.839 3.109-1.76 6.177-1.161 9.24-1.068 4.067.136 8.135.136 12.083 1.35.479.13 1.01.301 1.464.213 5.026-.938 9.229 1.453 13.562 3.292 2.094.89 4.13 1.89 6.13 2.984 5.563 3.026 9.698 7.135 12.214 12.36 1.135 2.39 1.948 5 2.401 7.853Z" fill="#E3E3E4"/><path d="m155.615 32.135-2.537.823c-2.515-5.224-6.651-9.333-12.213-12.359a69.28 69.28 0 0 0-6.131-2.984c-4.333-1.839-8.536-4.23-13.562-3.292-.453.088-.984-.083-1.464-.214-3.947-1.213-8.015-1.213-12.083-1.349-3.062-.093-6.13-.692-9.24 1.068.016 7.318-.036 14.584.053 21.839.041 3.573.125 7.145.213 10.718l-2.302.042c-.177-6.974-.578-13.958-.844-20.948-.213-5.067-.437-10.13-.65-15.156 2.796-1.974 5.463-2.589 8.317-2.578 3.359.031 6.75-.209 10.083.083 2.011.172 3.959 1.162 5.933 1.787 1.505.463 2.974 1.24 4.505 1.385 5.026.505 9.656 2.162 14.068 4.443 3 1.547 6.067 3.078 8.718 5.13 2.479 1.922 4.922 4.213 6.547 6.854a55.437 55.437 0 0 1 2.589 4.708Zm-17.068 162.386c-.266 2.12-.469 4.052-.745 5.958-.187 1.323-1.854 2.75-3.495 2.682-2.562-.109-5.119-.416-7.666-.786-6.016-.906-12.026-1.562-18.12-1.229-1.385.068-2.802.015-4.188-.068-4.359-.276-8.708-.609-13.067-.875-.464-.031-.959.172-1.427.318-3.677 1.161-5.839-.735-5.558-4.563.198-2.651-.12-5.343-.146-8.01-.083-7.734-.16-15.469-.15-23.188 0-1.77.453-3.531.578-5.291.145-2.375.197-4.75.224-7.136.067-6.041.291-12.078.093-18.119-.24-7.042.521-14.12-.718-21.136-.282-1.573.197-2.932 1.385-4.437 2.922.505 6.016-.23 9.161.411 1.797.359 3.797.323 5.625-.026 4.813-.891 9.683-.573 14.495-.583 4.412-.016 8.839.838 13.25 1.291 1.188.12 2.391.12 3.573.308 1.521.239 3.016.599 4.724.958-.349 1.776-.536 3.135-.88 4.453-.266 1.026-1.094 1.24-2.12 1.214a598.974 598.974 0 0 0-13.417-.344c-1.76-.031-3.531.146-5.307.213-3.573.146-7.01-.067-10.557-1.041-2.99-.802-6.323-.334-9.495-.375-1.495-.011-2.266.838-2.25 2.505.063 5.401.266 10.818.25 16.214 0 2.682-.385 5.364-.505 8.041-.042 1.026.187 2.068.291 3.078 7.47.605 14.547 0 21.641-.531 6.745-.495 13.505-.469 20.146 1.162.375.093.724.307 1.12.479.187 2.557.39 4.828.536 7.093.068 1.188-.521 1.881-1.75 1.933-.291.026-.599-.016-.89-.026-8.136-.36-16.256-.745-24.386-1.078a313.986 313.986 0 0 0-11.922-.245c-3.427-.011-4.36.963-4.562 4.333-.396 6.88-.906 13.75-1.198 20.63-.162 3.651.015 7.334.078 11 .016.464.24.933.443 1.651 3.864-.119 7.677 1.042 11.557.016.484-.12.974-.281 1.453-.255 5.735.323 11.469.573 17.188 1.041 3.843.308 7.63.678 11.494.25 2.042-.223 3.803.964 5.214 2.11Zm-4.984 75.307c-.683-5.015-1.297-10.042-2.068-15.026-.307-1.974-1.042-3.812-2.453-5.359-.724-.802-1.375-1.75-1.802-2.735-1.094-2.588-3.188-4.041-5.589-5.093-1.969-.881-4.036-1.657-6.13-2.23-3.787-1.052-7.573-2.13-11.641-1.359-1.599.297-3.349-.224-5.026-.318-1.682-.109-3.416-.442-5.041-.161-4.214.719-8.308 1.896-12.026 4.161-2.12 1.282-4.292 2.48-6.547 3.532-1.547.734-2.573 1.786-3.266 3.296-1.495 3.25-3.052 6.464-4.547 9.704-.323.718-.708 1.494-.745 2.265-.177 4.453-.52 8.938-.333 13.391.292 6.745 2.677 12.932 5.411 19.052 3.891 8.651 10.162 14.812 18.625 18.906 3.136 1.521 6.641 2.068 9.855 1.531 5.375-.89 10.625-2.583 15.041-6.104 2.334-1.87 4.625-3.786 7.011-5.588 3.922-2.948 6.297-6.797 7.094-11.641.213-1.266.572-2.516.906-3.771 1.39-5.401 2.854-10.776 3.271-16.453Zm2.01-8.281c1.948 9.094 1.563 18.146-1.172 27-2.161 6.958-5.479 13.443-10.068 19.12-2.802 3.468-6.041 6.239-10.812 7.385-5.229 1.281-10.505 2.109-15.76 3.094-1.026.187-2.198.015-3.23-.266a57.55 57.55 0 0 1-18.411-8.89c-2.865-2.084-5.292-4.761-7.172-7.855-1.734-2.88-3.719-5.63-5.24-8.614-2.51-4.922-3.828-10.162-3.28-15.787.265-2.76.093-5.562.254-8.333.13-2.266.089-4.641.771-6.745 1.719-5.364 2.495-11.067 5.573-15.948.052-3.281 2.734-4.614 4.719-6.479 4.536-4.271 10.057-6.588 15.88-8.375 1.682-.521 3.27-1.385 4.948-1.906 1.776-.563 3.599-.922 5.281-1.333 3.094.546 5.933.974 8.761 1.546 6.463 1.308 12.864 3.011 18.026 7.334 3.974 3.318 7.239 7.224 8.677 12.505.844 3.078 1.109 6.214 1.64 9.323a96.44 96.44 0 0 0 .615 3.224Z" fill="#1A3151"/><path d="M131.495 254.802c.771 4.984 1.386 10.011 2.068 15.026-.417 5.677-1.88 11.052-3.271 16.453-.333 1.255-.693 2.505-.906 3.771-.797 4.844-3.172 8.693-7.094 11.641-2.385 1.802-4.677 3.718-7.01 5.588-4.417 3.521-9.667 5.214-15.042 6.104-3.214.537-6.719-.01-9.854-1.531-8.464-4.094-14.735-10.255-18.625-18.906-2.735-6.12-5.12-12.307-5.412-19.052-.187-4.453.156-8.938.334-13.391.036-.771.421-1.547.744-2.265 1.495-3.24 3.052-6.454 4.547-9.704.693-1.51 1.719-2.562 3.266-3.296 2.255-1.052 4.427-2.25 6.547-3.532 3.718-2.265 7.812-3.442 12.026-4.161 1.625-.281 3.36.052 5.041.161 1.678.094 3.428.615 5.027.318 4.067-.771 7.854.307 11.64 1.359 2.094.573 4.162 1.349 6.13 2.23 2.401 1.052 4.495 2.505 5.589 5.093.427.985 1.078 1.933 1.802 2.735 1.411 1.547 2.146 3.385 2.453 5.359Z" fill="#E3E3E4"/><path d="M109.813 518.599c1.291-.156 2.719-.464 2.692-2.427-.067-4.693-.01-9.396-.052-14.104 0-.308-.333-.615-.666-1.172-6.589.239-13.266.427-19.948.729-3.078.151-6.146.641-9.224.75-4.36.146-8.734.052-13.094.146-2.349.052-4.682.265-7.026.427-3.443.255-6.922.948-10.333.708-9.24-.63-18.453-1.87-27.75-.656-1.063.135-2.198-.214-3.292-.359-5.042-.625-9.708.718-14.437 2.411.557 4.906 1.078 9.521 1.635 14.521 4.23.323 8.734.906 13.255.963 3.802.037 7.563-.697 11.427-.27 6.318.682 12.589-.438 18.828-1.36 2.438-.343 2.823-.093 3.198 2.266.36 2.307.667 4.656.72 6.989.239 9.027-.277 18.079 1 27.079.442 3.041.817 6.229.426 9.255-1.265 9.89-.25 19.786-.37 29.677-.067 6.667-.135 13.333-.177 20-.052 7.818.094 15.614 1.604 23.307.438 2.24.97 2.667 3.224 2.495 2.016-.161 3.865.026 5.787.865 2.531 1.119 4.094 0 4.026-2.787-.052-2.078-.573-4.156-.677-6.25-.308-5.932-.547-11.87-.75-17.812-.12-3.563-.01-7.151-.13-10.709a191.34 191.34 0 0 0-.615-9.922c-.453-5.052-1-10.078-1.52-15.119-.334-3.386-.626-6.771-1.027-10.146-.318-2.693-1.172-5.401-1.068-8.068.23-6.292-1.411-12.583.11-18.865.078-.348.01-.734-.016-1.109-.469-5.651-.948-11.318-1.411-16.974-.188-2.333.76-3.422 3.224-3.411 1.99 0 3.963.265 5.932.427 2.938.265 5.87.734 8.818.76 3.823.042 7.677-.531 11.49-.359 5.536.224 10.812-1.172 16.187-1.896Zm3.213-23.573c5.375.094 8.896 3.443 8.266 8.896-.651 5.667-1.094 11.318-1.276 17.01-.12 3.709-1.255 4.589-5.177 4.657-4.318.067-8.641.119-12.959-.016-8.682-.266-17.333-.464-26.468 1.974-.292 2.307-.797 4.614-.85 6.922-.187 7.401-.442 14.786.037 22.198.417 6.547-.01 13.119.11 19.682.145 7.797.359 15.599.77 23.385.23 4.188 1.052 8.334 1.427 12.521.386 4.188.615 8.386.787 12.584.23 5.187.385 10.375.401 15.562.01 1.427-.292 3-.948 4.255-.89 1.719-2.427 2.651-4.615 2.438-4.291-.412-8.598-.641-12.906-.922-.984-.063-1.984.016-2.974-.011-3.213-.093-4.385-.932-4.65-4.052-.438-5.161-.693-10.349-.865-15.536-.24-6.797-.375-13.615-.495-20.427-.12-6.427-.068-12.854-.255-19.276-.13-4.443-.37-8.88-.88-13.297-.84-7.224-2.214-14.412-2.855-21.667-.453-5.104-.078-10.307-.052-15.463 0-2.724.068-5.443.052-8.151-.01-1.334-.745-2.063-2.088-2.089-.615-.015-1.245.063-1.854.104-8.282.599-16.521-.015-24.776-.588-2.547-.183-5.13.416-7.72.484-1.801.052-3.681.089-5.385-.375-3.692-1.026-4.135-4.323-4.265-7.401-.125-2.948.36-5.906.49-8.864.083-1.735.572-3.735-.105-5.136-1.588-3.318-.083-6.281.344-9.375.255-1.838 1.375-2.463 3.094-2.463 7.297-.026 14.588-.297 21.88-.053 5.042.157 10.068.969 15.11 1.516 5.41.573 10.812 1.229 16.223 1.693 1.443.135 2.933-.453 4.401-.438 2.214.042 4.438.547 6.651.453 7.042-.307 14.068-.864 21.11-1.187 3.718-.172 7.437-.104 11.161-.01 4.037.078 8.063.395 12.104.463Z" fill="#1A3151"/><path d="M112.505 516.172c.026 1.963-1.401 2.271-2.693 2.427-5.375.724-10.651 2.12-16.188 1.896-3.812-.172-7.666.401-11.49.359-2.947-.026-5.88-.495-8.817-.76-1.969-.162-3.943-.427-5.932-.427-2.464-.011-3.412 1.078-3.224 3.411.463 5.656.942 11.323 1.411 16.974.026.375.094.76.016 1.109-1.52 6.282.12 12.573-.11 18.865-.104 2.667.75 5.375 1.068 8.068.401 3.375.693 6.76 1.026 10.146.521 5.041 1.068 10.067 1.521 15.119.292 3.297.495 6.615.615 9.922.12 3.557.01 7.146.13 10.709.203 5.942.443 11.88.75 17.812.104 2.094.625 4.172.677 6.25.068 2.786-1.495 3.906-4.026 2.786-1.922-.838-3.77-1.026-5.787-.864-2.255.172-2.786-.255-3.224-2.495-1.51-7.693-1.656-15.489-1.604-23.307.042-6.667.11-13.334.177-20 .12-9.891-.895-19.787.37-29.677.39-3.026.016-6.214-.427-9.255-1.276-9-.76-18.053-1-27.079-.052-2.333-.36-4.682-.719-6.989-.375-2.36-.76-2.61-3.197-2.266-6.24.922-12.51 2.042-18.829 1.36-3.864-.428-7.625.307-11.427.27-4.52-.057-9.026-.64-13.255-.963-.557-5-1.078-9.615-1.635-14.521 4.729-1.693 9.396-3.036 14.437-2.411 1.094.145 2.23.494 3.292.359 9.297-1.214 18.51.026 27.75.656 3.411.24 6.89-.453 10.333-.708 2.344-.162 4.677-.375 7.026-.427 4.36-.094 8.735 0 13.094-.146 3.078-.109 6.146-.599 9.224-.75 6.682-.302 13.359-.49 19.948-.729.333.557.666.864.666 1.172.042 4.708-.015 9.411.053 14.104Z" fill="#E3E3E4"/><path d="M103.161 348.693c.156.974.172 1.974.265 3.146-3.119 0-5.854.067-8.588-.026-2.854-.094-5.703-.334-8.573-.49-.412-.031-.865.12-1.266.026-5.932-1.349-11.854.505-17.786.094-.589-.042-1.198.198-1.802.302.161 3.948.323 7.734.453 11.521.213 6.802.443 13.604.614 20.401.042 1.588-.145 3.187-.197 4.776-.428 11.531-.693 23.062-1.376 34.583-.255 4.375-.718 8.854-3.067 12.87-1.104 1.89-1.719 4.094-2.547 6.156-1.344 3.391-3.573 5.88-6.917 7.521-3.604 1.776-6.906 4.109-10.974 4.87-2.442.463-4.786.838-7.24.172-1.015-.266-2.109-.292-3.16-.308-2.735-.052-5.136-.744-7.428-2.401-1.932-1.401-4.307-2.224-6.495-3.281-1.437-.703-2.64-1.531-3.49-3.062-1.015-1.829-2.603-3.323-3.869-5.027-3.37-4.578-4.36-10.057-5.703-15.39-.828-3.307-1.401-6.641-.63-10.078.229-.974-.24-2.094-.308-3.146-.213-3.349 1.084-4.719 4.417-4.75 2.333-.011 4.677-.104 7.01-.011 1.027.042 2.136.308 3.042.771 1.709.881 1.771 1.443.906 3.271-1.213 2.573-1.307 5.318-1.198 8.089.12 3.724.334 7.427.37 11.151.042 3.745 1.417 6.692 4.427 9.026 3.48 2.703 7.23 4.625 11.683 4 5.28-.735 9.692-2.75 12.854-7.667 2.437-3.828 3.77-7.802 4.37-12.068.666-4.692.922-9.453 1.135-14.198.214-4.843.906-9.843.052-14.536-1.427-7.812-1.224-15.839-3.52-23.505.452-3.896-1.522-7.625-.506-11.656.48-1.907-.266-4.131-.505-6.823-3.026.307-5.443.531-7.844.786-3.89.427-7.77.88-11.65 1.276-3.803.391-7.6.761-11.402 1.068-4.427.375-8.854.812-13.281.932-2.344.068-2.943-.719-3.12-3.088-.13-1.802-.089-3.615.042-5.401.109-1.386.802-2.349 2.427-2.386 2.547-.057 5.093-.125 7.625-.375 4-.401 8-.838 11.974-1.479 8.307-1.323 16.64-1.76 25.041-1.76 8.401.01 16.813.171 25.214-.214 4.161-.203 8.24.188 12.344.318 4.536.146 8.895-.573 13.244-1.703.704-.177 1.532-.537 2.131-.334.64.224 1.401.943 1.562 1.584.547 2.109.891 4.296 1.24 6.453ZM79.401 78.537c-.36-.844-.574-1.605-.99-2.23-4.693-6.906-8.334-14.505-13.6-21.041-1.171-1.453-1.932-3.214-2.853-4.855-.985-1.729-1.917-3.479-2.891-5.208-1.23-2.161-2.495-4.297-3.682-6.469-.771-1.385-1.344-2.895-2.188-4.229-2.557-4.026-5.36-7.906-7.786-12C41.572 16 35.947 11 31.265 5.203c-.703-.88-1.52-.87-2.162.13-.317.506-.609 1.052-.786 1.615C26.28 13.479 24.213 20 22.28 26.573c-.947 3.24-1.427 6.614-2.453 9.828-1.812 5.667-3.843 11.255-5.854 16.854-1.469 4.104-3.265 8.12-4.547 12.282-1.427 4.65-2.411 9.421-3.625 14.13-.614 2.427-.364 2.838 2.026 3.041.48.037 1.026-.041 1.427.162 3.318 1.677 6.76.541 10.25.906-.411-7 .35-13.443 2.214-19.724.495-1.64.964-3.49 2.068-4.677l.172-.23c1.323.058 2.64.084 3.963.11 7.505.224 14.557.36 21.787-1.656l10.838 12.693c1.745 3 3.76 5.854 5.771 8.682 1.031 1.453 2.365 2.438 4.333 1.318.537-.302 1.334-.224 2-.172 2.365.213 4.427-.64 6.75-1.584Zm2.984-1.152c.588 1.016 1.145 2.058 2 3.615-1.865.599-3.224 1.12-4.64 1.453-4.319 1.052-8.678 2.042-13.011 3.068-2.417.573-2.974.437-4.042-1.745-1.505-3.135-2.77-6.39-4.36-9.484-1.801-3.532-3.88-6.917-5.744-10.412-.776-1.453-1.896-1.958-3.417-1.802-2.276.23-4.547.495-6.812.724-1.677.156-3.36.276-5.042.427-3.063.266-6.12.584-9.172.787-1.094.062-1.667.53-1.917 1.505-.307 1.146-.614 2.307-.828 3.479a627.279 627.279 0 0 0-1.87 11.469c-.291 1.906-.453 3.854-.703 6.068-1.349.223-2.573.557-3.828.609-5.067.229-10.135.36-15.187.52-3.146.094-4.735-2.051-3.854-5.041.75-2.557 1.333-5.172 2.041-7.755.334-1.245.64-2.51 1.162-3.667C4.504 68.11 6.05 65.11 7.333 62c.562-1.344.546-2.922 1.015-4.318 2.547-7.812 5.146-15.604 7.745-23.39 1.068-3.172 2.281-6.292 3.255-9.49.839-2.75 1.438-5.562 2.157-8.333.255-.948.588-1.87.906-2.787 1.093-3.161 2.177-6.333 3.333-9.468.297-.813.818-1.589 1.333-2.292 1.63-2.177 2.802-2.547 4.605-.64 4.546 4.838 9.12 9.718 13.13 15 3.828 5.025 6.974 10.572 10.385 15.921.75 1.156 1.35 2.438 2.084 3.61 2.583 4.135 5.213 8.24 7.812 12.359 1.438 2.27 2.932 4.495 4.292 6.818 4.36 7.437 8.682 14.932 13 22.395Zm-2.573 119.401c.588 1.334.041 1.959-1.427 2.204-4.558.729-9.052.25-13.584-.271-4.24-.464-8.536-.651-12.734.666-2.922.922-3.172.803-4.026-2.078-.495-1.708-1.604-2.922-2.64-4.229-3.454-4.318-5.298-9.531-7.975-14.276-2.718-4.828-5.093-9.896-9.198-14.562-.177 1.203-.468 2-.364 2.734.364 2.854 1.083 5.667 1.27 8.521.516 8.239.84 16.505 1.214 24.76.037.88-.067 1.761-.135 3.011-2.828.229-5.505.453-8.198.656-1.365.104-2.735.213-4.094.213-2.177 0-4.333-.119-6.51-.145-1.6-.032-3.183.036-4.787.01-1.37-.026-2.729-.12-4.385-.187-.026-1.428-.427-2.745-.026-3.719.734-1.745 1.068-3.521 1.224-5.318l3.39.333c-.265 2.813.188 3.344 3 3.454 3.386.119 6.771.197 10.146.463 2.667.214 3.172-.094 2.959-2.771-.427-5.734-.829-11.479-.36-17.213.427-5.386.453-10.787-.599-16.052-.828-4.058.162-7.896.386-11.818.145-2.667.614-2.729 3.546-2.479.625 1.12 1.162 2.307 1.88 3.359 2.641 3.854 5.318 7.667 7.454 11.854 1.802 3.537 4 6.87 5.958 10.323 2.307 4.052 4.589 8.12 6.76 12.24.787 1.479 1.308 3.104 1.803 4.719.557 1.828 1.599 2.614 3.588 2.958 4.719.802 9.318-.156 13.943-.641 1.146-.104 2.24-.719 3.52-1.156-2.853-4.563-5.734-8.734-8.145-13.161-2.281-4.172-4.896-8.079-7.693-11.865l2.88-2.162c2.693 3.599 5.36 7.198 7.974 10.855 4.037 5.666 7.917 11.437 11.855 17.187.77 1.146 1.572 2.318 2.13 3.583Z" fill="#1A3151"/><path d="M38.598 124.229c1.084-3.922-.104-7.359-2.88-10.068-1.547-1.505-3.25-3.322-5.917-2.989-.364-.037-.817-.224-1.135-.094-2.922 1.245-5.865 2.458-8.693 3.854-.656.334-1.323 1.375-1.349 2.11-.12 2.677-.213 5.369.813 7.958 1.734 4.427 6.911 6.974 11.161 5.333 1.896-.734 3.709-1.677 5.563-2.547 1.505-.708 2.036-2.104 2.437-3.557Zm32.214 68.12c-1.281.437-2.375 1.052-3.521 1.156-4.625.485-9.224 1.443-13.943.641-1.99-.344-3.031-1.13-3.588-2.959-.495-1.614-1.016-3.239-1.802-4.718-2.172-4.12-4.454-8.188-6.76-12.24-1.96-3.453-4.157-6.786-5.96-10.323-2.135-4.187-4.812-8-7.452-11.854-.72-1.052-1.256-2.24-1.88-3.359-2.933-.25-3.402-.188-3.547 2.479-.224 3.922-1.214 7.76-.386 11.818 1.052 5.265 1.026 10.666.6 16.052-.47 5.734-.069 11.479.358 17.213.214 2.677-.291 2.985-2.958 2.771-3.375-.266-6.76-.344-10.146-.464-2.812-.109-3.265-.64-3-3.453.386-4.031 1.104-8.083.959-12.109-.318-8.906.52-17.786-.068-26.708-.438-6.813.36-13.703.51-20.558.13-6.411.183-12.812.172-19.229-.015-2.276-.416-4.547-.469-6.812-.01-.677.36-1.735.87-2 2.453-1.25 5.026-2.282 7.531-3.438 2.667-1.229 5.308-.068 7.922.12 5.13.37 10.24 1.25 15.386 1.583 5.77.365 9.255 3.641 11.734 8.391.719 1.396 1.13 2.974 1.625 4.479.88 2.667.255 5.011-1.599 7.104-1.562 1.787-2.922 3.75-4.562 5.427-1.932 1.99-4 3.855-6.172 5.563-.974.76-2.35 1.01-3.547 1.479-2.068.786-2.375 1.802-1.135 3.505 1.922 2.656 3.75 5.375 5.682 8.016 2.65 3.599 5.255 7.239 8.078 10.703 1.787 2.203 3.547 4.427 5.23 6.698 2.796 3.786 5.41 7.693 7.692 11.864 2.411 4.428 5.291 8.599 8.146 13.162Z" fill="#E3E3E4"/><path d="m57.854 165.161-2.88 2.162c-1.682-2.271-3.443-4.495-5.23-6.698-2.822-3.464-5.426-7.104-8.078-10.703-1.932-2.641-3.76-5.359-5.682-8.016-1.24-1.703-.932-2.718 1.136-3.505 1.198-.469 2.573-.719 3.547-1.479a62.286 62.286 0 0 0 6.171-5.563c1.641-1.677 3-3.64 4.563-5.427 1.854-2.093 2.479-4.437 1.599-7.104-.495-1.505-.906-3.083-1.625-4.479-2.48-4.75-5.964-8.026-11.734-8.391-5.146-.333-10.256-1.213-15.386-1.583-2.614-.187-5.255-1.349-7.922-.12-2.505 1.156-5.078 2.188-7.531 3.438-.51.265-.88 1.323-.87 2 .052 2.265.453 4.536.469 6.812.01 6.417-.042 12.818-.172 19.229-.151 6.855-.948 13.745-.51 20.558.588 8.922-.25 17.802.067 26.708.146 4.026-.573 8.078-.958 12.109l-3.39-.333c.244-2.521.135-5.083.296-7.604.308-4.729.104-9.516-.135-14.276-.266-5.151-.906-10.297-1.24-15.443-.146-2.333.136-4.708.042-7.052-.146-3.229-.162-6.521-.813-9.667-.52-2.505-.453-4.921-.27-7.385.12-1.682.213-3.375.296-5.057.146-2.849.146-5.719.438-8.558.495-4.812 1.12-9.614 1.802-14.411.224-1.615.77-3.188 1.198-4.912 3.266-.078 6.24 0 9.177-.239 4.13-.344 8.24-1.078 12.37-1.318 2.349-.135 4.828.078 7.11.651a246.14 246.14 0 0 1 16.25 4.724c2.723.906 4.254 3.292 5.015 5.959.89 3.104 1.588 6.307 2.172 9.494.505 2.813.093 5.573-1.214 8.131-1.161 2.296-2.24 4.656-3.666 6.76-1.933 2.854-5.386 3.615-8.146 5.323-.922.573-1.922.984-3.052 1.557 2.343 3.708 4.411 7.203 6.703 10.537 1.75 2.531 3.828 4.838 5.682 7.302 1.469 1.963 2.932 3.911 4.401 5.869Zm-12.333-119c-3.35-6.265-5.36-13.229-10.933-19.203-1.39 7.094-3.588 13.391-3.87 20.47 5-.428 9.667-.829 14.803-1.267Zm4.505 1.6c-.026.229-.052.442-.13.65a1.832 1.832 0 0 1-.75.948c-.464.308-.907.443-1.505.563-.59.12-1.162.156-1.813.187-.39.01-.787.01-1.177.01-.677-.077-1.422-.077-2.25-.01-3.906.276-7.828.198-11.787.813a.602.602 0 0 0-.494-.23h-3.651c-.709-2-.63-3.947-.271-5.947.468-2.73.854-5.464 1.453-8.156 1.015-4.51 2.135-8.99 3.307-13.454.443-1.692 1.683-2.12 3.255-1.255 2.48 1.386 4.6 3.23 5.922 5.76 1.667 3.172 3.037 6.495 4.719 9.667 1.813 3.438 2.599 7.401 5.172 10.453Z" fill="#1A3151"/><path d="M34.094 124.708c.77-1.229.677-2.427.557-3.666-.25-2.427-1.797-4.136-3.557-5.589-1.48-1.239-2.959-.547-4.386.333-.229.146-.573.094-.87.188-2.104.667-3.823 1.854-3.291 4.839 0 .442-.042.947.041 1.427.37 2.416 1.771 4.281 3.73 5.505 1.536.974 3.041 0 4.27-1.146.13-.13.36-.188.547-.224 1.172-.214 2.198-.469 2.959-1.667Zm1.625-10.547c2.776 2.709 3.963 6.146 2.88 10.068-.401 1.453-.932 2.849-2.438 3.557-1.854.87-3.666 1.813-5.562 2.547-4.25 1.641-9.427-.906-11.162-5.333-1.026-2.589-.932-5.281-.812-7.958.026-.735.693-1.776 1.349-2.11 2.828-1.396 5.77-2.609 8.693-3.854.317-.13.77.057 1.135.094 2.667-.333 4.37 1.484 5.917 2.989Zm18.297 121.891c.317-1.453.437-2.943.583-4.427.135-1.24-.307-2.12-1.677-2.333-1.76-.266-3.51-.813-5.271-.849-2.667-.068-5.438.651-8 .198-3.969-.709-7.719.317-11.557.531-3.563.187-7.11.734-10.683.786-3.942.058-7.906-.265-11.864-.395-1.959-.068-2.427.359-2.375 2.427.083 2.479.307 4.958.39 7.437.063 2.078-.041 4.162.037 6.24.213 5.468.614 10.922.708 16.385.162 9.24.042 18.495.224 27.734.083 3.469.667 6.896.906 10.36.042.495.068.989.084 1.479.172 5.031.041 10.068.041 15.521 1.422.265 2.73.693 4.052.734 4.88.136 9.787-.135 14.625.308 2.36.213 3.896-.318 5.386-1.948.76-.813 1.177-1.615.937-2.651-1.255-5.469-1.656-11-1.52-16.589.01-.495.026-1-.042-1.495-.64-5.505-1.307-11.01-1.922-16.515-.052-.443.188-.922.323-1.521.734-.058 1.437-.162 2.12-.214a7.465 7.465 0 0 1 1.224 0c6.161.599 12.057-.734 17.922-2.359 1.468-.401 1.838-1.214 1.614-2.656-.265-1.761-.4-3.558-.469-5.344-.093-2.802-1.28-4.229-4.104-4.177-2.974.067-5.937.469-8.906.666-3.135.204-6.281.428-9.547.136-.094-1.052-.24-1.828-.213-2.599.171-4.573.359-9.146.598-13.719.12-2.213.829-2.802 3.308-2.818 6.291-.026 12.573-.104 18.854.058 2 .052 3.49-.365 4.813-2.323-1.136-1.932-1.084-3.959-.6-6.068Z" fill="#1A3151"/></svg>