<svg xmlns="http://www.w3.org/2000/svg" width="468.889" height="503.447" viewBox="0 0 468.889 503.447">
  <g id="Layer_2" data-name="Layer 2" transform="translate(-25.769 -51.734)">
    <path id="Path_944" data-name="Path 944" d="M483.561,539.509a7.3,7.3,0,0,1,1.988,5.176c-.16,2.353-.541,4.7-.548,7.053,0,2.489-1.043,3.619-3.531,3.407-1.09-.1-2.179-.081-3.268-.073-1.63.014-3.253.073-4.883.08-3.632.014-7.265.066-10.891-.014-2.514-.052-5.029-.293-7.536-.482-1.477-.11-2.953-.336-4.437-.4-3.662-.161-7.331-.205-11-.41-2.142-.124-4.269-.519-6.411-.694a18.229,18.229,0,0,0-3.1.066c-1.2.1-2.113-.256-2.39-1.492a31.757,31.757,0,0,1-1.009-5.446c-.161-3.538-.117-7.1-.037-10.635.08-3.933.388-7.866.409-11.8.029-4.144-.153-8.3-.256-12.448q-.1-3.783-.226-7.55c-.139-3.706-.329-7.412-.424-11.119-.044-1.7.088-3.406.11-5.109.029-2.522.029-5.044.044-7.573.022-3.56.125-7.127.022-10.687-.044-1.52-.629-3.011-.8-4.539-.212-1.864.2-2.12,2.113-2.105,2.741.021,5.482-.1,8.223-.168,2.007-.044,4.006-.124,6.009-.139,5.043-.022,10.086-.08,15.123.015,3.421.065,6.835.336,10.248.57a86.284,86.284,0,0,0,13.8-.029c1.345-.125,1.747.153,1.9,1.505a26.939,26.939,0,0,1-.264,9.284,1.909,1.909,0,0,1-1.827,1.637c-2.332.292-4.656.629-6.995.863-3.392.336-6.8.57-10.19.892a86.87,86.87,0,0,1-18.9.007,9.669,9.669,0,0,0-1.214.08A177.541,177.541,0,0,0,444,497.706c3.977-.2,7.6-.358,11.206-.548,3.18-.168,6.352-.511,9.532-.541,4.013-.029,8.026.183,12.039.278,3.633.087,4.291.943,4.364,4.919.059,2.97-.3,5.95-.5,8.925-.08,1.148-.248,2.287-.4,3.684-11.651-.336-23.018-.694-34.691-1.732a27.4,27.4,0,0,0-.658,3.837c-.088,2.668.073,5.344.007,8.019-.088,3.706-.117,7.427-.52,11.11a22.465,22.465,0,0,0,.008,5.292c2.087-.051,4.079.029,6.044-.19a130.619,130.619,0,0,1,15.131-.395c3.326.014,6.652-.475,9.978-.775,2.068-.19,4.122-.5,6.192-.628a2.447,2.447,0,0,1,1.834.548m-2.55,12.134c.343-.037.928-.651.906-.963-.153-2.142-.424-4.269-.7-6.4a1.226,1.226,0,0,0-1.231-1.223l-.077,0c-2.222-.08-4.459-.424-6.666-.314-4.3.219-8.574.541-12.887.569-5.533.037-11.066.673-16.6,1.082-1.926.147-2.273-.175-2.273-2.207,0-1.411-.051-2.821-.139-4.225-.219-3.472-.731-6.952-.658-10.416.117-5.343.642-10.679.957-16.022.066-1.177.586-1.806,1.755-1.843.585-.014,1.177.052,1.762.088,1.7.08,3.384.219,5.073.241,1.846.029,3.713-.154,5.555-.052,1.995.118,3.969.577,5.964.666,3.414.153,6.835.153,10.248.168,1.989.007,3.977-.081,5.987-.118a3.072,3.072,0,0,0,.337-.9c.037-2.6.073-5.19.044-7.785-.007-1.111-.826-1.25-1.725-1.25-3.779.022-7.566-.066-11.337.066-2.814.1-5.619.555-8.428-.088a19.626,19.626,0,0,0-8.816-.307,35.884,35.884,0,0,1-4.846.592,6,6,0,0,1-1.7-.387c-.037-.709-.081-1.3-.1-1.887-.066-2.376-.11-4.743-.168-7.119-.146-5.336-.321-10.665-.438-16-.037-1.4.27-1.6,1.732-1.564.892.014,1.784.021,2.668-.037,3.845-.256,7.675-.593,11.52-.782,2.889-.146,5.8.037,8.676-.19a85.283,85.283,0,0,1,12.222-.424c.49.029.995-.022,1.766-.036-.073-2.259-.139-4.357-.205-6.5a14.342,14.342,0,0,0-1.461-.16c-2.23-.015-4.473.167-6.673-.044-2.859-.278-5.636.263-8.421.569-4.342.476-8.662,1.119-13.062.826-2.208-.138-4.445.2-6.662.132-2.581-.08-5.153-.329-7.719-.577-1.871-.176-3.67-1.308-5.716-.351a3.755,3.755,0,0,0-.168,1.052c.365,2.99-.27,5.906-.577,8.845a14.734,14.734,0,0,0-.066,1.783c.059,2.522.154,5.037.2,7.558.073,3.859.08,7.719.167,11.571.066,2.894.278,5.779.321,8.677.037,2.88-.124,5.76-.08,8.639.059,3.56.271,7.12.373,10.68.087,2.969-.029,5.95.219,8.9a60.143,60.143,0,0,1,.226,10.006c-.16,1.908-.132,3.823-.205,6.045,1.382.088,2.408.161,3.436.219,5.343.271,10.65,1.214,16.03.607a23.165,23.165,0,0,1,4.444-.146c4.349.343,8.676.892,13.025,1.2a63.647,63.647,0,0,0,6.893.007c2.435-.08,4.868-.256,7.3-.481" fill="#001d33"/>
    <path id="Path_951" data-name="Path 951" d="M481.914,550.676c.022.314-.562.928-.906.963-2.426.226-4.861.4-7.295.481a63.647,63.647,0,0,1-6.893-.007c-4.35-.314-8.677-.863-13.026-1.2a23.167,23.167,0,0,0-4.444.146c-5.378.607-10.687-.336-16.03-.607-1.03-.058-2.054-.131-3.435-.219.073-2.221.044-4.137.2-6.044a60.264,60.264,0,0,0-.227-10.007c-.249-2.953-.131-5.936-.219-8.9-.1-3.56-.315-7.12-.372-10.679-.044-2.88.117-5.76.08-8.64s-.256-5.779-.321-8.677c-.088-3.852-.1-7.712-.168-11.571-.044-2.522-.139-5.036-.2-7.557a14.56,14.56,0,0,1,.065-1.784c.308-2.938.944-5.855.578-8.844a3.76,3.76,0,0,1,.167-1.053c2.047-.957,3.845.176,5.716.351,2.569.249,5.137.5,7.719.577,2.215.066,4.452-.27,6.662-.131,4.4.292,8.72-.351,13.062-.826,2.786-.307,5.563-.848,8.421-.57,2.2.212,4.444.029,6.674.044a14.364,14.364,0,0,1,1.462.161c.065,2.141.131,4.239.2,6.5-.774.014-1.279.066-1.765.037a85.274,85.274,0,0,0-12.222.424c-2.88.226-5.79.044-8.677.19-3.845.19-7.675.526-11.52.782-.883.058-1.776.051-2.668.037-1.461-.037-1.766.167-1.732,1.564.117,5.336.292,10.665.438,16,.059,2.376.1,4.743.168,7.119.015.585.059,1.177.1,1.887a5.969,5.969,0,0,0,1.7.387,35.919,35.919,0,0,0,4.847-.592,19.621,19.621,0,0,1,8.815.306c2.809.643,5.614.191,8.428.088,3.772-.132,7.558-.044,11.337-.066.9,0,1.718.139,1.725,1.25.029,2.6-.007,5.19-.044,7.786a3.091,3.091,0,0,1-.336.9c-2.007.036-4,.124-5.986.117-3.414-.015-6.835-.015-10.249-.168-1.995-.088-3.969-.548-5.964-.665-1.842-.1-3.706.08-5.555.051-1.686-.022-3.377-.161-5.073-.241-.585-.037-1.177-.1-1.762-.087-1.169.037-1.685.665-1.754,1.842-.315,5.343-.841,10.679-.958,16.022-.073,3.465.438,6.944.658,10.416.088,1.4.139,2.814.139,4.225,0,2.033.351,2.354,2.273,2.208,5.534-.41,11.067-1.044,16.6-1.082,4.312-.029,8.588-.351,12.886-.57,2.207-.11,4.444.233,6.666.314a1.229,1.229,0,0,1,1.306,1.144c0,.026,0,.052,0,.077.278,2.135.549,4.262.7,6.4" fill="#d1d1d3"/>
    <path id="Path_960" data-name="Path 960" d="M415.082,546.731c.008,1.243-1.542,2.953-2.668,2.814-2.9-.358-5.65.586-8.479.819-5.394.446-10.767,1.134-16.161,1.6-2.624.226-5.278.175-7.924.263-1.543.051-3.092.2-4.634.16s-9.269-.555-10.482-.635a12.684,12.684,0,0,0-5.378.722c-1.177.446-1.944-.029-2.149-1.272a2.018,2.018,0,0,1-.058-.409,48.524,48.524,0,0,1,.431-7.083c.811-4.049-.768-8.091-.65-12.149.007-.132-.1-.263-.088-.4.176-5.9.219-11.8.6-17.689.19-2.953-.746-5.373-.768-8.362-.028-4.735-2.229-23.116-1.827-27.652.2-2.229.57-4.4.936-6.593a21.525,21.525,0,0,0-.008-3.435c0-1.7.5-2.127,2.208-2.061,1.33.051,2.492.8,3.969.481a97.35,97.35,0,0,1,10.014-1.2,29.118,29.118,0,0,1,9.853.76,10.483,10.483,0,0,0,4.028.132,68.774,68.774,0,0,1,11.169-.388c1.469.073,2.889.709,4.392.461,1.141-.19,2.274-.41,3.421-.511,1.887-.176,2.007-.059,2.676,1.681.146.381.212.877.489,1.111,1.345,1.155,1.124,2.617,1.009,4.122-.226,2.97-.38,5.94-.6,9.379a13.683,13.683,0,0,1-2.654.409c-3.662-.117-7.317-.315-10.979-.512-5.284-.292-10.569-.65-15.854-.9-1.616-.073-3.238.124-4.84.2-.687,1.96-.387,11.558.512,13.947,2.247-.124,4.605-.11,6.922-.424a47.209,47.209,0,0,1,9.51-.722,10.015,10.015,0,0,0,2.426-.153c3.532-.636,7.018.007,10.5.4a13.639,13.639,0,0,0,5.438-.278,2.975,2.975,0,0,1,.951,0c1.542,3.333,1.8,9.268.694,15.3a7.536,7.536,0,0,1-4.393,1.162c-3.779-.065-7.566.176-11.345.241-3.515.066-7.039.073-10.562.088-1.616,0-3.23-.073-4.846-.066a11.7,11.7,0,0,0-1.593.212c-1.2.16-2.412.387-3.619.453-1.813.088-2.12.271-2.247,2.127a24.565,24.565,0,0,0,.08,3.033c.088,1.762.176,3.516.307,5.271.139,1.966.35,5.482.548,7.434.19,1.8.753,2.339,2.58,2.488,4.342.336,8.684.709,13.033.921,1.952.094,3.918-.154,5.87-.241.2-.007.409-.015.614-.007,4.006.19,7.952-1.163,11.959-.987,1.557.066,3.115.095,4.671.117,1.469.015,1.988.6,2.087,2.076.183,3.026.461,6.052.68,9.086.11,1.55.219,3.106.226,4.663" fill="#001d33"/>
    <path id="Path_973" data-name="Path 973" d="M350.232,551.1a1.662,1.662,0,0,1-1.176,2.595c-1.967.028-9.51-.351-12.025,0a2.479,2.479,0,0,1-2.529-.593c-4.43-3.457-9.729-12.543-12.828-17.016a23.287,23.287,0,0,0-3.947-4.612,32.484,32.484,0,0,1-3.685-4.064c-2.28-2.763-4.494-5.577-7.017-8.72a15.126,15.126,0,0,0,.014,2.408,36.964,36.964,0,0,1,.395,9.919c-.3,3.786-.306,7.595-.438,11.4-.11,3.238-.226,5.724-.329,8.962a7.568,7.568,0,0,0,.117.994c.153,1.462-.241,1.886-1.623,1.82-4.473-.19-8.947.381-13.42.191a7.66,7.66,0,0,1-1.221-.044c-1-.22-1.8-.651-1.739-1.887a7.772,7.772,0,0,1,.021-1.981,10.057,10.057,0,0,0-.087-5.409,115.089,115.089,0,0,1-1.927-15.732c-.446-5.613-.818-11.227-1.284-16.834-.555-6.754-.767-13.507-.8-20.276-.008-2.5-.139-5.007-.11-7.507a68.671,68.671,0,0,1,.314-8.049c.431-3.326.044-6.592-.08-9.89-.022-.642,0-1.294,0-2.247,2.5.139,4.59.292,6.688.358,3.2.1,6.4.212,9.583.16,3.326-.044,6.645-.248,9.964-.438a31.01,31.01,0,0,1,3.413-.388c2.361.154,4.715.468,7.047.826,2.068.307,4.108.782,6.169,1.163a4.874,4.874,0,0,1,2.953,2.192,17.223,17.223,0,0,1,3.223,8,28.036,28.036,0,0,1,.373,4.824,35.161,35.161,0,0,1-.234,5.892c-.79,4.97-3.837,8.574-7.646,11.571-1.8,1.4-3.523,2.945-5.833,3.632-.877.256-1.542,1.221-2.514,2.047,1.228,2.113,2.543,4.379,3.867,6.645.891,1.52,1.8,3.04,2.689,4.561a37.128,37.128,0,0,0,4.649,5.877c2.42,2.705,5.08,5.233,6.871,8.486.877,1.586,2.28,2.873,3.253,4.415,1.525,2.408,2.88,4.919,4.342,7.368a19.578,19.578,0,0,0,1.345,1.784c.848,1.118,4.48,6.421,5.212,7.6m-4.532-.68c-.6-1.082-6.381-7.807-6.871-8.677a9.5,9.5,0,0,0-.863-1.338c-1.776-2.214-2.844-4.875-4.759-7.039-3.136-3.545-6.074-7.273-9.013-11-2.77-3.523-5.489-7.1-8.121-10.724-2.149-2.96-4.145-6.02-6.206-9.049-.753-1.1-.453-2.112.877-2.77,2.31-1.133,4.649-2.185,6.944-3.348,3.8-1.926,7.558-3.867,10.482-7.163a15.657,15.657,0,0,0,3.428-6.8,11.158,11.158,0,0,0-.168-4.627,40.36,40.36,0,0,0-1.5-4.858,3.382,3.382,0,0,0-.555-1.28,10.236,10.236,0,0,0-5.388-3.435c-2.167-.4-4.3-1.323-6.593-.585a3.41,3.41,0,0,1-1.2-.051,36.122,36.122,0,0,0-5.665-.308c-5.056.482-10.168.381-15.16,1.535a13.319,13.319,0,0,1-3.443-.088,21.059,21.059,0,0,0-2.434-.124c-1.2.087-1.484.592-1.338,1.747.11.856.058,1.725.087,2.588.059,2.025.117,4.049.2,6.082.058,1.477.167,2.945.249,4.422.183,3.567.292,7.144.561,10.709.146,1.952.716,3.882.812,5.833.233,4.664.241,9.334.461,14,.138,2.909.533,5.8.76,8.712s.5,5.8.555,8.713c.1,5.957.073,11.915.1,17.872,0,.79.438,1.191,1.162,1.009,2.748-.687,6.374.722,9.108-.022.68-.183.219-2.851.044-3.523-.424-1.594.438-6.214.416-7.025-.065-3.523-.183-7.054-.211-10.578-.015-1.279.256-2.573.211-3.852-.19-5.539-.438-11.077-.7-16.615-.037-.716.176-1.3.826-1.426a2.336,2.336,0,0,1,1.605.358,10.051,10.051,0,0,1,1.264,1.579c2.106,2.383,4.437,4.6,6.294,7.157q5.438,7.488,10.423,15.291c3.012,4.693,9.912,14.67,13.515,18.909,0,0,8.786.154,9.809-.211" fill="#001d33"/>
    <path id="Path_976" data-name="Path 976" d="M338.829,541.746c.49.87,6.272,7.6,6.871,8.677-1.024.365-9.809.212-9.809.212-3.6-4.24-10.5-14.218-13.516-18.91q-4.989-7.785-10.423-15.291c-1.857-2.558-4.189-4.774-6.294-7.157a10.054,10.054,0,0,0-1.264-1.578,2.328,2.328,0,0,0-1.606-.358c-.65.124-.862.708-.825,1.425.263,5.538.511,11.077.7,16.615.044,1.279-.226,2.573-.212,3.853.029,3.522.146,7.053.212,10.576.022.812-.84,5.431-.416,7.025.175.673.635,3.341-.045,3.523-2.733.745-6.359-.666-9.107.021-.723.183-1.163-.219-1.163-1.008-.021-5.958.008-11.915-.094-17.872-.052-2.909-.329-5.811-.556-8.713s-.621-5.8-.76-8.713c-.219-4.663-.226-9.334-.461-14-.094-1.952-.665-3.882-.811-5.833-.27-3.567-.38-7.143-.562-10.709-.08-1.477-.19-2.946-.249-4.422-.08-2.033-.139-4.057-.2-6.082-.029-.863.022-1.732-.088-2.588-.146-1.155.139-1.659,1.338-1.746a20.847,20.847,0,0,1,2.435.124,13.312,13.312,0,0,0,3.442.087c4.993-1.155,10.1-1.052,15.161-1.534a36.127,36.127,0,0,1,5.665.306,3.386,3.386,0,0,0,1.2.052c2.287-.739,4.43.183,6.593.585a10.235,10.235,0,0,1,5.387,3.435,3.4,3.4,0,0,1,.556,1.28,40.414,40.414,0,0,1,1.5,4.856,11.147,11.147,0,0,1,.168,4.628,15.657,15.657,0,0,1-3.428,6.8c-2.924,3.3-6.681,5.233-10.482,7.163-2.3,1.163-4.634,2.215-6.943,3.348-1.33.658-1.631,1.666-.878,2.771,2.061,3.026,4.057,6.089,6.206,9.049,2.631,3.626,5.351,7.2,8.122,10.723,2.938,3.721,5.877,7.449,9.013,11,1.915,2.167,2.982,4.824,4.758,7.039a9.359,9.359,0,0,1,.863,1.338m-22.2-56.869a5.824,5.824,0,0,0-2.061-7.113c-.921-.665-1.988-1.147-2.939-1.783A4.88,4.88,0,0,0,307,475.7a22.592,22.592,0,0,1-2.821,1.082,2.951,2.951,0,0,0-1.927,1.353,8.748,8.748,0,0,0-1.2,5.028c-.051,1.445-.044,2.9,1.118,3.962a12.038,12.038,0,0,0,3.188,2.478c1.444.585,3.091,1.364,4.685.8,2.835-1.009,5.453-2.376,6.585-5.526" fill="#d1d1d3"/>
    <path id="Path_983" data-name="Path 983" d="M314.569,477.764a5.824,5.824,0,0,1,2.061,7.113c-1.133,3.15-3.75,4.517-6.586,5.526-1.593.57-3.237-.212-4.685-.8a12.034,12.034,0,0,1-3.187-2.478c-1.162-1.06-1.169-2.515-1.118-3.962a8.728,8.728,0,0,1,1.2-5.029,2.951,2.951,0,0,1,1.927-1.353A22.436,22.436,0,0,0,307,475.7a4.883,4.883,0,0,1,4.634.278c.951.636,2.018,1.118,2.939,1.784m-3.786,9.465c2.434-.826,3.275-2.66,2.2-4.976a6.179,6.179,0,0,0-.548-1.308,4.236,4.236,0,0,0-1.535-1.462c-1.162-.417-2.412-.972-3.647.029-.321.256-.9.2-1.33.278-1.1,2.317-1.294,4.225-.527,6.081a2.036,2.036,0,0,0,1,1.134,6.923,6.923,0,0,0,4.386.226" fill="#001d33"/>
    <path id="Path_996" data-name="Path 996" d="M271.778,471.559c2.946.052,4.875,1.886,4.532,4.876-.358,3.106-.6,6.206-.7,9.326-.065,2.033-.687,2.515-2.835,2.551-2.369.037-4.736.066-7.105-.007-4.759-.146-9.5-.256-14.51,1.082a37.233,37.233,0,0,0-.468,3.8c-.1,4.056-.241,8.107.022,12.17.226,3.589-.007,7.193.058,10.79.081,4.275.2,8.552.424,12.82.125,2.3.577,4.569.782,6.864s.336,4.6.431,6.9c.124,2.843.212,5.686.219,8.53a5.1,5.1,0,0,1-.519,2.332,2.388,2.388,0,0,1-2.529,1.338c-2.354-.227-4.715-.351-7.076-.5-.541-.037-1.089.007-1.63-.007-1.762-.052-2.408-.512-2.551-2.222-.241-2.829-.38-5.673-.475-8.516-.132-3.727-.2-7.464-.27-11.2-.066-3.524-.037-7.047-.139-10.569-.073-2.435-.205-4.868-.482-7.288-.461-3.962-1.213-7.9-1.564-11.88-.249-2.8-.044-5.65-.029-8.479,0-1.491.037-2.982.029-4.466a1.05,1.05,0,0,0-.942-1.148,1.179,1.179,0,0,0-.206,0c-.336-.007-.68.037-1.016.059a95.768,95.768,0,0,1-13.581-.321c-1.4-.1-2.814.226-4.232.263a10.206,10.206,0,0,1-2.953-.2c-2.025-.565-2.266-2.373-2.339-4.061-.066-1.616.2-3.238.27-4.861a6.343,6.343,0,0,0-.058-2.814c-.87-1.82-.044-3.443.19-5.137.139-1.009.753-1.352,1.7-1.352,4-.015,8-.161,11.995-.029,2.762.087,5.519.533,8.281.833,2.97.314,5.929.672,8.9.929.79.073,1.6-.249,2.412-.241,1.214.021,2.435.3,3.647.249,3.86-.169,7.712-.476,11.571-.651,2.04-.1,4.079-.059,6.118-.008,2.215.045,4.423.22,6.637.256m-1.762,12.923c.709-.087,1.492-.256,1.477-1.33-.037-2.573-.007-5.153-.029-7.733,0-.168-.183-.337-.365-.643-3.612.132-7.273.234-10.935.4-1.686.08-3.371.351-5.057.409-2.39.08-4.788.029-7.178.08-1.284.029-2.568.146-3.853.234a40.052,40.052,0,0,1-5.665.388c-5.065-.344-10.113-1.024-15.211-.358a7.313,7.313,0,0,1-1.805-.2,17,17,0,0,0-7.916,1.323c.306,2.69.592,5.217.9,7.96,2.317.176,4.787.5,7.265.526,2.087.022,4.145-.38,6.261-.146,3.465.373,6.9-.24,10.321-.745,1.338-.191,1.55-.052,1.755,1.242a29.468,29.468,0,0,1,.395,3.83c.131,4.949-.154,9.912.548,14.849a19.083,19.083,0,0,1,.233,5.073c-.694,5.424-.138,10.848-.2,16.271q-.056,5.482-.1,10.965a63.9,63.9,0,0,0,.883,12.771c.241,1.229.534,1.462,1.766,1.365a6.349,6.349,0,0,1,3.172.475c1.388.614,2.247,0,2.207-1.525-.029-1.14-.315-2.28-.372-3.428q-.252-4.879-.41-9.766c-.065-1.952-.007-3.918-.073-5.87-.066-1.813-.175-3.632-.336-5.438-.249-2.77-.548-5.526-.833-8.289-.183-1.856-.344-3.713-.562-5.562a28.883,28.883,0,0,1-.585-4.422c.124-3.452-.775-6.9.058-10.343a2.092,2.092,0,0,0-.007-.607q-.384-4.65-.774-9.3c-.1-1.28.416-1.879,1.765-1.871,1.09,0,2.168.146,3.254.233,1.6.146,3.216.4,4.832.417,2.1.022,4.21-.292,6.3-.2,3.034.125,5.929-.642,8.874-1.037" fill="#001d33"/>
    <path id="Path_997" data-name="Path 997" d="M271.492,483.152c.014,1.075-.768,1.242-1.477,1.33-2.946.4-5.84,1.162-8.874,1.038-2.087-.1-4.2.219-6.3.2-1.616-.014-3.224-.27-4.832-.416-1.082-.088-2.167-.234-3.253-.234-1.353-.007-1.871.592-1.766,1.871q.384,4.648.774,9.305a2.128,2.128,0,0,1,.008.607c-.834,3.443.065,6.893-.059,10.343a28.867,28.867,0,0,0,.585,4.422c.219,1.847.381,3.706.562,5.563.285,2.763.585,5.519.833,8.289.161,1.8.271,3.625.336,5.439.066,1.952.008,3.917.074,5.869q.16,4.89.409,9.766c.058,1.148.343,2.288.372,3.428.037,1.525-.818,2.142-2.207,1.525a6.348,6.348,0,0,0-3.172-.475c-1.235.1-1.525-.139-1.766-1.364a63.965,63.965,0,0,1-.877-12.778q.033-5.481.1-10.964c.065-5.423-.49-10.848.2-16.271a19.083,19.083,0,0,0-.233-5.073c-.7-4.934-.417-9.9-.549-14.849a29.277,29.277,0,0,0-.394-3.83c-.2-1.294-.417-1.433-1.755-1.243-3.421.5-6.856,1.118-10.321.746-2.12-.234-4.181.168-6.261.146-2.478-.029-4.948-.351-7.266-.527-.306-2.741-.592-5.27-.9-7.96a16.985,16.985,0,0,1,7.917-1.322,7.314,7.314,0,0,0,1.8.2c5.1-.665,10.146.015,15.211.358a39.914,39.914,0,0,0,5.665-.388c1.284-.087,2.569-.2,3.853-.233,2.39-.051,4.788,0,7.178-.08,1.686-.059,3.371-.329,5.057-.41,3.662-.167,7.324-.27,10.935-.4.183.307.365.475.365.642.022,2.581-.007,5.16.029,7.734" fill="#d1d1d3"/>
    <path id="Path_966" data-name="Path 966" d="M364.369,352.173l-2.158.176c-.217-2.926-.535-5.828-.895-8.721-2.275.334-4.39.652-6.647.986,0,1.012-.008,2.124,0,3.236.016,1.2.05,2.392-.912,3.291a29.292,29.292,0,0,0-4.575-.493c-1.965.092-3.922.351-5.9.451a39.5,39.5,0,0,0-5.669.753l-.435-2.087c.51-.092,1.012-.183,1.514-.284,3.787-.722,7.559-1.685,11.478-1.171a16.2,16.2,0,0,0,2.032.008,13.059,13.059,0,0,0-.193-5.585c-.435-1.581-.183-1.748,1.505-1.781a40.758,40.758,0,0,0,4.14-.436c1.254-.166,2.488-.393,3.738-.577a1.19,1.19,0,0,1,1.472.818,1.024,1.024,0,0,1,.032.146,17.943,17.943,0,0,1,.7,2.7q.414,4.278.769,8.571" fill="#001d33"/>
    <path id="Path_945" data-name="Path 945" d="M484.785,429.947c.109,1.773-.1,1.89-1.846,2.082-3.495.393-6.99.828-10.486,1.238-.535.058-1.07.041-1.605.058-2.729.1-5.458.26-8.187.3-4.6.067-9.189.025-13.781.125-1.989.042-3.972.335-5.962.482a21.79,21.79,0,0,1-3.378.151,7.787,7.787,0,0,0-3.537.042c-.862.321-1.372-.293-1.564-1.1-.535-2.258-1.087-4.507-1.572-6.773-.252-1.172-.385-2.367-.536-3.546-.125-1.043-.217-2.1-.293-3.153-.1-1.254-.225-2.517-.251-3.779-.075-3.513-.034-7.024-.176-10.537-.016-.443-.033-.878-.066-1.321l1.68-.08c.167,3.487.41,6.974.627,10.469.176,2.784.619,5.569.6,8.354-.008,2.649.971,5.084,1.229,7.651.008.108.151.208.385.493,1.622-.134,3.21-.359,4.8-.384a86,86,0,0,1,11,.025,40,40,0,0,0,8.119.259c3.12-.276,6.256-.234,9.391-.368a63.327,63.327,0,0,0,11.582-2.032,8.554,8.554,0,0,0,1.355-.577,28.53,28.53,0,0,0-.36-5.485l1.957-.326a77.533,77.533,0,0,1,.878,7.735" fill="#001d33"/>
    <path id="Path_947" data-name="Path 947" d="M483.9,422.213l-1.957.325a20.417,20.417,0,0,0-.669-2.767,6.35,6.35,0,0,0-1.329-.059c-2.466.419-4.942.854-7.4,1.322-3.195.61-6.33,1.555-9.65,1.371-5.251-.3-10.327.753-15.369,2.065a4.23,4.23,0,0,1-1.672-.108c-.376-.058-.727-.284-1.1-.359a3.532,3.532,0,0,1-2.885-4.064,29.74,29.74,0,0,0,.267-3.956c.034-1.271,0-2.542-.066-3.8-.151-2.649-.368-5.3-.482-7.952-.108-2.191-.184-4.39-.108-6.573a1.926,1.926,0,0,1,1.086-1.445,32.735,32.735,0,0,1,5.87-.937c3.655-.142,7.325.059,10.988-.08,1.731-.066,3.451-.184,5.176-.326l.2,2.158c-1.439.125-2.868.284-4.307.46-1.245.16-2.542-.059-3.8.058-3.562.343-7.166.285-10.675,1.229-1,.268-1.38.642-1.33,1.589a41.837,41.837,0,0,0,.26,4.348,52.828,52.828,0,0,1,.986,9.115,35.033,35.033,0,0,0,.443,4.674c3.01-.251,5.636-.61,8.267-.642a56.572,56.572,0,0,1,7.978.426,16.238,16.238,0,0,0,4.516-.359,5.124,5.124,0,0,1,2.349-.081,4.143,4.143,0,0,0,2.89-.08,10.96,10.96,0,0,1,2.542-.443c2.167-.117,4.339-.16,6.505-.2a1.5,1.5,0,0,1,1.722,1.251v0c.292,1.279.543,2.568.76,3.853" fill="#001d33"/>
    <path id="Path_949" data-name="Path 949" d="M481.951,422.538a28.546,28.546,0,0,1,.36,5.486,8.552,8.552,0,0,1-1.355.577,63.756,63.756,0,0,1-11.582,2.032c-3.135.134-6.271.093-9.391.368a39.992,39.992,0,0,1-8.118-.263,86.2,86.2,0,0,0-11-.025c-1.588.025-3.177.252-4.8.385-.234-.284-.376-.385-.384-.494-.259-2.568-1.238-5-1.229-7.651.017-2.784-.426-5.568-.6-8.354-.217-3.495-.46-6.983-.627-10.468-.05-1.171-.092-2.334-.125-3.5-.067-2.649.226-5.318.4-7.978a66.708,66.708,0,0,0,.109-12.927,2.713,2.713,0,0,1-.081-1.171c.97-2.729-.16-5.385-.183-8.078-.017-2.375-.167-4.749-.268-7.241,2.86-.322,5.578-1,8.245-.82,3.328.234,6.64.321,9.959.241,2.593-.059,5.177-.321,7.769-.326,2.057,0,4.122.193,6.17.393,1.163.117,1.329.452,1.238,1.573-.209,2.449-.4,4.9-.6,7.417-2.207.594-4.357-.142-6.522-.218-.241-.008-.477-.016-.723-.016-.342-.017-.685-.025-1.028-.034q-6.283-.075-12.577-.142c-1.53-.017-3.05,0-4.532,0a4.479,4.479,0,0,0-.883,4.315,18.8,18.8,0,0,1,.117,3.371c.193,3.119.426,6.238.653,9.466,1.731,1.043,3.612.711,5.519.426,1.7-.259,3.412-.477,5.137-.577,2.729-.167,5.452-.284,8.187-.326,3.938-.051,7.877-.008,11.941-.008a11.415,11.415,0,0,1,.8,5.92,15.167,15.167,0,0,1-2.167.5c-1.731.151-3.451.321-5.176.46s-3.445.259-5.176.326c-3.663.142-7.334-.059-10.988.08a32.559,32.559,0,0,0-5.87.937,1.924,1.924,0,0,0-1.086,1.444c-.076,2.183,0,4.382.108,6.573.117,2.649.335,5.3.481,7.953.067,1.262.1,2.534.067,3.8a29.74,29.74,0,0,1-.267,3.956,3.532,3.532,0,0,0,2.885,4.064c.376.075.727.3,1.1.359a4.254,4.254,0,0,0,1.673.109c5.042-1.313,10.118-2.367,15.369-2.066,3.32.184,6.456-.76,9.65-1.371,2.458-.468,4.933-.9,7.4-1.321a6.288,6.288,0,0,1,1.329.058,20.546,20.546,0,0,1,.669,2.768" fill="#d1d1d3"/>
    <path id="Path_952" data-name="Path 952" d="M475.755,393.856a12.36,12.36,0,0,1,.234,1.681,9.953,9.953,0,0,1-5.594,1.313,54.118,54.118,0,0,0-5.6.167l-.2-2.158c1.723-.142,3.445-.309,5.177-.46a15.19,15.19,0,0,0,2.167-.5,11.409,11.409,0,0,0-.8-5.921c-4.064,0-8-.042-11.941.008-2.734.042-5.458.161-8.187.326-1.722.1-3.437.321-5.137.577-1.906.284-3.787.619-5.519-.426-.225-3.227-.46-6.347-.652-9.466a18.8,18.8,0,0,0-.117-3.371,4.482,4.482,0,0,1,.882-4.315c1.481,0,3-.017,4.533,0q6.283.063,12.577.142c.342.008.685.017,1.028.034l-.059,1.99c-.722,0-1.455.075-2.167.1-1.731.059-3.451.151-5.184.284-1.715.134-3.428.335-5.151.519-1.313.142-2.617.3-4.022.46-.61,3.921.678,7.475,2.107,11.288,2.087-.184,4.248-.435,6.421-.552,2.86-.161,5.72-.193,8.589-.335,2.918-.142,5.845-.326,8.763-.535a5.725,5.725,0,0,0,3.988-2.074,5.916,5.916,0,0,1,1.071,1.438c.544,1.715.954,3.47,1.438,5.193.436,1.539.928,3.05,1.347,4.591" fill="#001d33"/>
    <path id="Path_953" data-name="Path 953" d="M470.169,371.941c.636,1.028-.08,1.781-1.3,1.982a21.829,21.829,0,0,1-8.889-.293,5.82,5.82,0,0,0-1.429-.151l.058-1.99c.241,0,.477.008.723.017,2.167.075,4.315.812,6.522.218.2-2.518.393-4.967.6-7.418.092-1.123-.075-1.455-1.238-1.572-2.048-.2-4.114-.393-6.171-.393-2.592.008-5.177.267-7.768.325-3.32.076-6.631-.008-9.96-.24-2.667-.184-5.385.5-8.244.819.1,2.488.251,4.867.267,7.242.025,2.693,1.154,5.352.184,8.078a2.712,2.712,0,0,0,.08,1.171,66.865,66.865,0,0,1-.108,12.927c-.176,2.659-.468,5.326-.4,7.978q.051,1.743.126,3.495l-1.681.08c-.151-3.478-.426-6.965-.594-10.444-.1-2.132-.025-4.273-.134-6.4-.142-2.729-.393-5.443-.594-8.161-.142-2.057-.251-4.123-.426-6.181-.293-3.319-.636-6.622-.928-9.942-.15-1.756.017-1.965,1.7-2.266,2.225-.409,4.449-.869,6.69-1.137a22.359,22.359,0,0,1,3.311.208,26.711,26.711,0,0,0,3.4,0c3.645-.309,7.283-.752,10.929-1.012a17.272,17.272,0,0,1,3.746.368c2.167.335,4.315.744,6.471,1.128.653.109,1.314.209,1.957.352,1.681.376,1.723.722,1.656,2.425a23.074,23.074,0,0,0,.519,4.95c.234,1.279.16,2.6.927,3.838" fill="#001d33"/>
    <path id="Path_959" data-name="Path 959" d="M412.731,400.822a15.27,15.27,0,0,1,4.665,11.13c-.033,3.168-.552,6.313-2.558,8.956-1.155,1.525-2.082,3.2-3.746,4.339a13.116,13.116,0,0,1-7.15,2.248c-3.445.117-6.9-.025-10.354.017-1.563.017-3.13.2-4.69.309-.184,2.157.393,4.1-.368,6-1.556.217-3.077.393-4.575.652-.883.151-1.284-.176-1.7-.953-.836-1.615-.568-3.354-.769-5.026-.526-4.548-.944-9.115-1.4-13.663a6.021,6.021,0,0,1-.034-1.6c.067-.325.384-.81.661-.861,1.948-.335,3.913-.585,6.1-.9.409,2.133.794,4.189,1.212,6.389a39.459,39.459,0,0,0,6.832-.2,24.613,24.613,0,0,1,4.565-.418,10.054,10.054,0,0,0,5.854-2.283c.326-.226.562-.6.912-.778,2.006-1,2.149-2.693,1.747-4.6a9.222,9.222,0,0,0-6.341-7.124,45.379,45.379,0,0,1-12.886-6.573,48.742,48.742,0,0,1-7.349-7.024,14.425,14.425,0,0,1-1.806-3.3c-.321-.661-.394-1.43-.711-2.082-2.04-4.273.642-11.472,4.783-13.781.92-.518,1.7-1.284,2.626-1.806,3.068-1.7,6.163-3.378,9.725-3.863a2.864,2.864,0,0,1,.978-.117c3.094.744,6.063-.4,9.115-.482.636-1.58-.176-2.977-.218-4.4a9.33,9.33,0,0,0-.376-1.547c-.321-1.48.527-2.383,1.982-1.974a9.924,9.924,0,0,0,4.348.1c2.207-.343,3.043.5,3.261,2.759.2,2.175.642,4.334.9,6.506s.426,4.373.619,6.556c.225,2.517.384,5.042.66,7.55.209,1.874-.008,1.99-1.948,2.248a13.793,13.793,0,0,1-5.109-.36c-1.354-.321-2.466-.836-2.575-2.559-.093-1.455-.519-2.877-.723-4.323-.234-1.714-.694-2.308-2.433-2.182-2.308.167-4.6.562-6.9.9-.92.125-1.832.334-2.743.51-3.52.661-5.458,2.977-6.4,6.261a2.674,2.674,0,0,0,.161,1.747,60.583,60.583,0,0,0,2.935,5.636,8.626,8.626,0,0,0,2.316,2.45,56.987,56.987,0,0,0,12.9,7.007,17.8,17.8,0,0,1,5.987,4.495" fill="#001d33"/>
    <path id="Path_965" data-name="Path 965" d="M365.514,367.466c.226,1.606.167,1.846-1.372,2.328a12.309,12.309,0,0,1-2.148.36c-1.255.134-2.509.234-3.773.359-.393.034-.8.092-1.2.1-2.291.051-3.094-.878-3.11-3.136-.008-2.366-.235-4.724-.368-7.166-.668-.066-1.112-.16-1.563-.16-1.372.008-2.743.017-4.123.042l-.033-2.041a2.767,2.767,0,0,0,.451-.08c1.9-.267,3.8-.543,5.686-.8,1.18-.167,1.686.118,2.049,1.3a26.242,26.242,0,0,1,.8,3.478c.293,1.9.477,3.8.7,5.728h4.808a107.685,107.685,0,0,0-.118-15.42l2.158-.175c.117,1.444.234,2.9.343,4.348.125,1.663.033,3.336.151,5,.151,1.99.376,3.972.652,5.945" fill="#001d33"/>
    <path id="Path_967" data-name="Path 967" d="M362.211,352.348a107.685,107.685,0,0,1,.117,15.42H357.52c-.225-1.926-.409-3.829-.7-5.728a26.083,26.083,0,0,0-.8-3.478c-.359-1.179-.869-1.464-2.048-1.3-1.889.26-3.788.536-5.686.8a2.761,2.761,0,0,1-.452.08.3.3,0,0,1-.125-.025c-1.8-.944-3.621-.321-5.41-.066a28.278,28.278,0,0,0-5.435,1.162c-1.9.669-3.981,1.3-4.917,3.437a8.058,8.058,0,0,0-.753,1.84c-.562,3.729-.05,7.175,2.918,9.872,1.087.979,2.167,1.974,3.312,2.885a127.3,127.3,0,0,0,13.565,9.85,17.71,17.71,0,0,0,2.157,1.044,8.218,8.218,0,0,1,4.875,5.193,18.912,18.912,0,0,1-2.542,17.409,19.814,19.814,0,0,1-9.4,6.848,3.259,3.259,0,0,0-.561.2,23.594,23.594,0,0,1-11.214,3.136c-1.982,1.062-4.2.468-6.28.883-1.766.351-2.082.711-1.639,2.483.342,1.346.635,2.718.883,4.089a9.12,9.12,0,0,1-.109,1.739c-2.926.284-5.686.562-8.655.845-.117-.954-.251-1.706-.321-2.442-.008-.108-.008-.209-.017-.321-.16-3.395-.225-6.79-.435-10.185-.134-2.048-.561-4.088-.7-6.138-.125-1.781-.025-3.579-.025-5.544,2.358-.217,4.44-.4,6.807-.61.151,2.4.293,4.557.435,6.723a3.036,3.036,0,0,0,.192,1.354,1.746,1.746,0,0,0,1.187.786c4.047.117,8.011-.711,11.991-1.254,3.379-.468,6.489-1.823,9.642-3.027.986-.376,1.965-.769,2.926-1.221a2.355,2.355,0,0,0,1.079-.844c.953-2.087,2.488-4.005,2.19-6.506-.284-2.358-1.639-4.064-3.21-5.8-3.773-4.156-8.805-5.859-13.831-7.6a31.674,31.674,0,0,1-6.138-2.826c-1.463-.9-3.043-1.631-4.414-2.649a12.628,12.628,0,0,1-5-7.91c-.585-2.951-1.3-5.837-.722-8.889.786-4.181,3.136-7.425,5.94-10.434a1.272,1.272,0,0,1,.481-.335c2.693-.953,5.343-2.074,8.107-2.776.969-.251,1.957-.477,2.943-.678a39.5,39.5,0,0,1,5.669-.752c1.982-.1,3.939-.36,5.9-.452a29.3,29.3,0,0,1,4.575.493c.963-.9.928-2.1.912-3.291-.008-1.112,0-2.224,0-3.236,2.258-.335,4.373-.652,6.647-.986.36,2.889.678,5.8.895,8.721" fill="#d1d1d3"/>
    <path id="Path_968" data-name="Path 968" d="M361.408,399.853a18.085,18.085,0,0,1-2.909,10.8c-.769,1.162-1.589,2.3-2.459,3.395a24.817,24.817,0,0,1-7.476,5.912,52.175,52.175,0,0,1-6.764,2.794c-1.1.443-2.224.853-3.337,1.284a9.34,9.34,0,0,1-5.076.452c-3.161-.544-3.412-.218-3.194,2.884a2,2,0,0,0,.041.6c.769,1.847.142,3.452-1,5.194a22.185,22.185,0,0,0-2.985.024c-2.559.335-5.118.723-7.66,1.188-1.731.325-2.282.1-2.475-1.581-.161-1.4-.259-2.784-.343-4.181l2.417-.08c.067.736.2,1.488.321,2.442,2.97-.285,5.728-.562,8.655-.845a9.041,9.041,0,0,0,.108-1.739c-.251-1.372-.543-2.743-.883-4.089-.443-1.773-.125-2.133,1.639-2.483,2.082-.418,4.3.176,6.28-.883a23.588,23.588,0,0,0,11.214-3.136,3.216,3.216,0,0,1,.562-.2,19.817,19.817,0,0,0,9.4-6.848,18.915,18.915,0,0,0,2.542-17.409,8.224,8.224,0,0,0-4.875-5.194,17.638,17.638,0,0,1-2.158-1.043,127.539,127.539,0,0,1-13.565-9.85c-1.145-.912-2.224-1.906-3.31-2.885-2.97-2.7-3.479-6.146-2.919-9.872a8.147,8.147,0,0,1,.753-1.84c.937-2.141,3.019-2.768,4.917-3.437a28.272,28.272,0,0,1,5.436-1.162c1.789-.252,3.611-.878,5.409.066a.3.3,0,0,0,.126.025l.033,2.04c-.761.009-1.529.025-2.291.051a18.856,18.856,0,0,0-4.925.393,19.334,19.334,0,0,0-6.063,2.9c-1.179.912-1.338,2.852-.761,4.457a13.951,13.951,0,0,0,1.4,2.86c2.517,3.9,5.468,7.266,10.018,9.022a25.2,25.2,0,0,1,9.031,5.737c1.4,1.422,2.918,2.729,4.334,4.139a9.013,9.013,0,0,1,2.5,6.121c.076,1.329.276,2.649.309,3.981" fill="#001d33"/>
    <path id="Path_972" data-name="Path 972" d="M353.456,401.759c.3,2.5-1.238,4.415-2.191,6.506a2.361,2.361,0,0,1-1.079.844c-.963.452-1.94.845-2.927,1.221-3.152,1.2-6.26,2.559-9.641,3.027-3.98.543-7.946,1.372-11.991,1.255a1.751,1.751,0,0,1-1.187-.786,3.054,3.054,0,0,1-.193-1.355c-.142-2.167-.284-4.323-.435-6.723-2.366.209-4.448.393-6.806.611,0,1.965-.1,3.762.025,5.544.142,2.048.568,4.088.7,6.137.209,3.4.276,6.79.435,10.185.008.109.008.209.017.321l-2.417.081c-.025-.468-.05-.928-.08-1.4-.276-4.181-.241-8.387-1.313-12.492a11.156,11.156,0,0,1-.293-2.175c-.134-2.718-.235-5.443-.352-8.169-.075-1.539.218-1.907,1.781-1.915.92-.008,1.84.284,2.76.251q2.684-.1,5.36-.435c2.149-.267,3.094.477,3.085,2.659,0,1.873-.08,3.738-.117,5.6a7.524,7.524,0,0,0,.134,1c4.123-.393,8.245-.568,12.276-1.255a48.128,48.128,0,0,0,8.56-2.625,3.356,3.356,0,0,0,2.349-3.939,30.828,30.828,0,0,0-1.078-5.056,7.139,7.139,0,0,0-2.116-2.785c-3.291-2.729-7.359-3.914-11.256-5.443a50.618,50.618,0,0,1-13.237-7.242c-2.065-1.639-2.943-3.922-3.629-6.28-.978-3.361-.836-6.831-.878-10.31a14.652,14.652,0,0,1,2.057-7.768,14.929,14.929,0,0,1,7.049-6.138,44.7,44.7,0,0,1,10.344-2.952l.435,2.087c-.986.2-1.974.426-2.943.677-2.76.7-5.41,1.823-8.1,2.777a1.273,1.273,0,0,0-.482.334c-2.8,3.01-5.15,6.255-5.939,10.435-.577,3.05.134,5.939.722,8.888a12.626,12.626,0,0,0,5,7.911c1.371,1.02,2.952,1.756,4.414,2.648a31.586,31.586,0,0,0,6.138,2.826c5.025,1.74,10.06,3.445,13.831,7.6,1.572,1.739,2.926,3.444,3.21,5.8" fill="#001d33"/>
    <path id="Path_982" data-name="Path 982" d="M299.73,431.43c.126,1.686-.092,1.8-1.685,1.89-1.99.1-3.964.367-5.954.562a17.364,17.364,0,0,1-2.366.192c-2.794-.108-5.578-.335-8.37-.426-4.064-.125-8.137-.276-12.2-.234-2.307.033-4.624.451-6.931.668-1.857.176-3.714.385-5.569.435-1.789.042-2.559-.769-2.609-2.55-.017-.794.142-1.588.142-2.383.017-1.664.008-3.328-.042-4.984-.041-1.2-.217-2.391-.24-3.587-.118-4.64.2-9.331-.394-13.914-.652-5-.535-9.976-.722-14.968-.1-2.835-.6-5.653-.82-8.487-.225-2.985-.3-5.987-.5-8.972-.151-2.124-.435-4.24-.6-6.356-.1-1.329-.161-2.659-.142-3.988.025-1.5.668-2.174,2.241-2.182a18.807,18.807,0,0,1,3.746.426,38.037,38.037,0,0,0,11.523.393c5.56-.6,11.146-.928,16.716-1.388l.192,2.049c-2.508.251-5.017.426-7.517.677-3.3.335-6.6.8-9.909,1.062a25.135,25.135,0,0,1-6.582.05c-2.525-.493-4.849.226-7.434.167a71.649,71.649,0,0,0,.067,8.162,71.34,71.34,0,0,1,.61,7.559c.042,2.057.277,4.115.452,6.171.209,2.508.46,5.008.678,7.518a25.291,25.291,0,0,0,.234,2.985,53.764,53.764,0,0,1,1.031,11.517,25.067,25.067,0,0,0,.208,5.378,55.781,55.781,0,0,1,1.013,9.917c.066,2.308.376,4.607.577,6.916a33.749,33.749,0,0,0,4.967-.042,49.372,49.372,0,0,1,10.354-.6c3.261.176,6.53.293,9.792.435a25.7,25.7,0,0,1,3.6.125c2.693.511,5.268-.418,7.91-.476a3.062,3.062,0,0,0,.937-.41c-.05-2.877.953-5.686.058-8.629-.853-.042-1.639-.109-2.425-.109-2.592-.008-5.2.1-7.793-.008a21.649,21.649,0,0,0-5.7.368l-.477-2.057v-.008a35.678,35.678,0,0,1,9.115-.494,31.951,31.951,0,0,0,7.735-.694c1.53-.335,1.622-.209,2.024,1.329a16.589,16.589,0,0,1,.543,4.457c-.017,2.175.368,4.357.527,6.539" fill="#001d33"/>
    <path id="Path_985" data-name="Path 985" d="M296.185,422.1c.895,2.944-.108,5.754-.059,8.63a3.045,3.045,0,0,1-.936.409c-2.643.059-5.217.986-7.91.477a25.709,25.709,0,0,0-3.6-.126c-3.261-.142-6.531-.259-9.793-.435a49.445,49.445,0,0,0-10.354.6,33.463,33.463,0,0,1-4.966.042c-.2-2.307-.511-4.607-.578-6.915a55.674,55.674,0,0,0-1.009-9.917,25.066,25.066,0,0,1-.208-5.378,53.83,53.83,0,0,0-1.037-11.523,25.259,25.259,0,0,1-.235-2.985c-.217-2.508-.468-5.008-.677-7.517-.176-2.058-.409-4.115-.452-6.171a71.653,71.653,0,0,0-.611-7.56,71.4,71.4,0,0,1-.066-8.161c2.583.059,4.908-.661,7.434-.167a25.129,25.129,0,0,0,6.581-.05c3.312-.26,6.606-.728,9.909-1.062,2.5-.252,5.009-.427,7.518-.678a1.48,1.48,0,0,0,.2-.017c2.033-.2,2.484.093,2.649,2.183.176,2.258.276,4.515.377,6.773a4.65,4.65,0,0,1-.3,1.171c-.728,0-1.445.058-2.158-.008a31.983,31.983,0,0,0-8.144.6,42.774,42.774,0,0,1-4.75.1c-1.789.08-3.57.309-5.36.367a19.715,19.715,0,0,1-2.97-.267c-1.171-.151-1.605.092-1.856,1.221a4.891,4.891,0,0,0-.1,1.4c.167,3.9.334,7.818.543,11.723a20.127,20.127,0,0,0,.4,3.161c.276,1.284.837,1.525,2.167,1.438,2.5-.16,5-.184,7.509-.3,1.846-.092,3.692-.25,5.544-.359,1.4-.093,2.818-.309,4.215-.309a10.151,10.151,0,0,1,1.338.08,9.892,9.892,0,0,0,3.888-.452c1.012-.259,2.048-.426,3.11-.636,1.179,2.2.544,4.315.585,6.506-4.523.481-8.888,1.213-13.37.986a39.708,39.708,0,0,0-12.551.9,10.914,10.914,0,0,0,.241,5.185,33.038,33.038,0,0,1,.836,8.909,68.933,68.933,0,0,1-.82,6.9,1.285,1.285,0,0,0,.878,1.59,1.258,1.258,0,0,0,.192.04,26.043,26.043,0,0,0,12.25-.008c.193-.051.385-.1.577-.142a21.652,21.652,0,0,1,5.7-.368c2.593.109,5.2,0,7.794.008.786,0,1.572.067,2.425.109" fill="#d1d1d3"/>
    <path id="Path_986" data-name="Path 986" d="M294.572,399.369c.16,2-.36,2.667-2.334,2.709a12.211,12.211,0,0,1-2.767-.142,21.376,21.376,0,0,0-7.334.008c-1.112.167-2.266.051-3.395.151q-3.764.363-7.518.828a1.217,1.217,0,0,0-1.242,1.193c0,.026,0,.051,0,.076-.059,1.6-.293,3.178-.352,4.766-.092,2.6-.117,5.2-.151,7.794-.017,1.187-.008,2.375-.008,3.773,3.4-.268,6.631.711,10.085-.176a2.323,2.323,0,0,1,.234-.051l.477,2.058c-.193.041-.385.092-.577.142a26.056,26.056,0,0,1-12.25.008,1.285,1.285,0,0,1-1.11-1.438,1.159,1.159,0,0,1,.04-.193,68.875,68.875,0,0,0,.819-6.9,33.007,33.007,0,0,0-.836-8.91,10.909,10.909,0,0,1-.241-5.184,39.6,39.6,0,0,1,12.551-.9c4.482.225,8.847-.5,13.371-.987-.042-2.191.594-4.306-.586-6.505-1.061.209-2.1.376-3.11.636a9.909,9.909,0,0,1-3.888.452,10.327,10.327,0,0,0-1.338-.081l-.017-2.015a21.914,21.914,0,0,0,6.113-.8,19.888,19.888,0,0,0,2.057-.722c1.155-.494,1.99-.276,2.342.9a17.378,17.378,0,0,1,.6,3.537c.176,1.982.217,3.98.367,5.97" fill="#001d33"/>
    <path id="Path_988" data-name="Path 988" d="M290.583,374.282a8.482,8.482,0,0,1-.321,1.864c-3.773.108-7.25-.494-10.729.209a51.868,51.868,0,0,1-10.728.861c-1.128-.008-2.247,0-3.554,0a75.722,75.722,0,0,0,.836,13.605c3.437-.092,6.79.482,10.2-.125a29.033,29.033,0,0,1,5.394-.218q.7.014,1.4,0l.017,2.016c-1.4,0-2.809.217-4.214.309-1.847.108-3.693.267-5.544.359-2.509.117-5.009.142-7.509.3-1.329.081-1.89-.151-2.167-1.438a20.241,20.241,0,0,1-.4-3.161c-.208-3.9-.376-7.818-.543-11.723a4.891,4.891,0,0,1,.1-1.4c.252-1.128.686-1.372,1.857-1.221a19.7,19.7,0,0,0,2.97.267c1.789-.058,3.57-.284,5.36-.367a42.756,42.756,0,0,0,4.749-.1,31.988,31.988,0,0,1,8.145-.6c.711.066,1.429.008,2.157.008a4.566,4.566,0,0,0,.3-1.171c-.1-2.258-.2-4.515-.376-6.773-.167-2.087-.619-2.383-2.649-2.183a1.508,1.508,0,0,1-.2.017l-.193-2.044c.722-.067,1.421-.3,2.14-.41.562-.08,1.355-.351,1.631-.1A3.771,3.771,0,0,1,290,363.18c.3,3.692.444,7.4.578,11.105" fill="#001d33"/>
    <path id="Path_998" data-name="Path 998" d="M241.372,367.86c.1.61.108,1.237.167,1.973-1.957,0-3.67.042-5.385-.017-1.789-.058-3.579-.208-5.378-.309a5.01,5.01,0,0,1-.794.017c-3.721-.844-7.434.321-11.157.059a4.915,4.915,0,0,0-1.129.193c.1,2.475.2,4.849.284,7.223.135,4.265.277,8.529.385,12.794.025.995-.092,2-.125,2.994-.268,7.233-.435,14.466-.861,21.69-.161,2.743-.452,5.553-1.927,8.07a28.527,28.527,0,0,0-1.6,3.863,8.538,8.538,0,0,1-4.34,4.716c-2.258,1.113-4.334,2.576-6.882,3.05a9.8,9.8,0,0,1-4.541.108,8.291,8.291,0,0,0-1.981-.192,7.88,7.88,0,0,1-4.656-1.505,26.165,26.165,0,0,0-4.072-2.057,4.6,4.6,0,0,1-2.192-1.927,30.66,30.66,0,0,0-2.418-3.144c-2.116-2.868-2.735-6.305-3.579-9.65a13.47,13.47,0,0,1-.393-6.322,7.359,7.359,0,0,0-.193-1.973c-.134-2.1.678-2.96,2.768-2.977,1.463-.008,2.935-.067,4.4-.008a4.7,4.7,0,0,1,1.906.481c1.07.552,1.113.9.569,2.049a10.629,10.629,0,0,0-.753,5.076c.075,2.333.209,4.655.234,6.99a6.806,6.806,0,0,0,2.777,5.661c2.182,1.7,4.532,2.9,7.325,2.508,3.311-.46,6.079-1.722,8.061-4.808a18.54,18.54,0,0,0,2.742-7.567c.418-2.943.577-5.928.711-8.91.134-3.035.569-6.17.034-9.114-.9-4.9-.769-9.935-2.207-14.743.284-2.441-.954-4.783-.321-7.308.3-1.2-.167-2.592-.321-4.281-1.9.192-3.412.335-4.917.493-2.442.268-4.876.553-7.308.8-2.384.241-4.767.477-7.15.669-2.776.234-5.552.509-8.328.585-1.472.042-1.846-.452-1.957-1.94a22.931,22.931,0,0,1,.025-3.387,1.428,1.428,0,0,1,1.525-1.5c1.6-.034,3.195-.076,4.783-.235,2.508-.25,5.017-.526,7.509-.928a99.675,99.675,0,0,1,15.7-1.1c5.268.008,10.544.108,15.812-.134,2.609-.126,5.167.117,7.743.2a28.933,28.933,0,0,0,8.3-1.07,2.8,2.8,0,0,1,1.339-.208,1.71,1.71,0,0,1,.978.995c.343,1.321.562,2.693.778,4.047" fill="#001d33"/>
    <path id="Path_948" data-name="Path 948" d="M485.148,70.562c.135,1.749-.758,2.7-2.91,2.861-4.342.321-8.669.883-13.049.562a30.1,30.1,0,0,0-5.748.2c-2.506.306-3.118,1.1-2.947,3.632.294,4.182.807,8.352,1.015,12.547.2,4.013.086,8.034.171,12.058.086,3.351.233,6.714.416,10.077.049.93.11,1.846.171,2.777l-2.9.208q-.35-4.5-.723-8.99a6.53,6.53,0,0,0-.428-1.577,18.656,18.656,0,0,1-.978-8.891,9.435,9.435,0,0,0-.1-2.189c-.306-4.816-.6-9.637-.953-14.455-.147-2.091-.453-4.174-.612-6.261-.147-1.712.575-2.617,2.263-2.69,2.091-.086,4.194-.049,6.3.037,2.729.11,5.458.55,8.169.453,3.131-.1,6.409.342,9.454-1.686-.086-3.865.049-7.827-1.445-11.349-2.935.049-5.552.147-8.169.147-5.613-.024-11.2,1.028-16.828.2a2.349,2.349,0,0,0-.428-.024l-.048-2.581c2.09-.024,4.194,0,6.31-.049,4.622-.122,9.23-.733,13.856-1.1.636-.061,1.272-.012,1.92-.037,2.067-.1,4.134-.208,6.616-.33a8.509,8.509,0,0,1,.465,1.822c.4,4.88.771,9.759,1.137,14.639" fill="#001d33"/>
    <path id="Path_950" data-name="Path 950" d="M480.318,57.88c1.492,3.522,1.357,7.485,1.445,11.349-3.046,2.029-6.323,1.59-9.454,1.685-2.715.1-5.442-.343-8.169-.453-2.1-.085-4.207-.122-6.3-.037-1.685.074-2.408.979-2.263,2.691.161,2.091.465,4.174.612,6.261.355,4.816.648,9.636.954,14.455a9.484,9.484,0,0,1,.1,2.188,18.629,18.629,0,0,0,.978,8.891,6.584,6.584,0,0,1,.428,1.578q.366,4.494.722,8.989c.233,3,.453,5.993.624,8.99.122,2.03-.281,2.4-2.055,2.434-2.8.048-5.6.012-8.707.012-.232-3.168-.453-5.98-.648-8.793-.294-4.354-.623-8.708-.868-13.073-.049-.9-.1-1.822-.147-2.729-.122-2.458.135-4.929.122-7.385-.024-3.424-.208-6.861-.2-10.285.012-3.461.11-6.922.33-10.37.171-2.483-.306-3.253-2.97-3.338-2.238-.073-4.488.073-6.742.16-4.085.135-8.182.343-12.281.428-2.167.049-4.341-.1-6.64-.16-.624-3.693-1.2-7.179-1.785-10.689a3.835,3.835,0,0,1,3.192-1.357c2.629.161,5.271.269,7.9.514,5.271.489,10.53.073,15.789-.135a82.006,82.006,0,0,0,8.866-1.284,11.939,11.939,0,0,1,1.737-.22,2.344,2.344,0,0,1,.427.024c5.626.832,11.214-.22,16.828-.2,2.617,0,5.234-.1,8.169-.147" fill="#d1d1d3"/>
    <path id="Path_954" data-name="Path 954" d="M463.589,126.315c.575,2.7-.636,4.415-3.351,4.513-2.788.1-5.589.2-8.377.416a20.62,20.62,0,0,0-3.742.733c-1.309.367-1.957-.049-2.507-1.3a12.127,12.127,0,0,1-1.088-5.809,172.943,172.943,0,0,0,.24-19.665l2.948-.16c.241,4.365.574,8.719.868,13.073.2,2.809.416,5.625.648,8.793,3.106,0,5.907.037,8.707-.012,1.773-.037,2.177-.4,2.055-2.434-.171-3-.392-5.993-.624-8.99l2.9-.208c.11,1.614.256,3.229.427,4.831a58.841,58.841,0,0,0,.893,6.212" fill="#001d33"/>
    <path id="Path_955" data-name="Path 955" d="M454.845,55.618l.049,2.581a12.076,12.076,0,0,0-1.737.219,81.728,81.728,0,0,1-8.866,1.285c-5.259.208-10.515.623-15.788.135-2.63-.241-5.271-.355-7.9-.514a3.836,3.836,0,0,0-3.192,1.357c.587,3.51,1.162,7,1.785,10.688,2.3.061,4.476.208,6.641.161,4.093-.086,8.193-.294,12.28-.428,2.247-.086,4.5-.232,6.742-.161,2.667.086,3.143.857,2.97,3.339-.22,3.451-.321,6.909-.33,10.37-.012,3.424.171,6.86.2,10.285.012,2.458-.241,4.928-.122,7.384.049.9.1,1.822.147,2.729l-2.947.161q-.185-3.413-.636-6.836c-.514-3.877-.551-7.815-.795-11.728-.2-3.179-.342-6.371-.6-9.551a19.054,19.054,0,0,0-.723-2.911c-4.622.171-9.086.355-13.537.5-4.342.147-8.669.257-13.379.4a14.14,14.14,0,0,1-.66-2.641c-.241-4-.392-8.023-.587-12.034a17.006,17.006,0,0,0-.241-1.9c-.306-1.664.171-2.312,1.859-2.495a5.475,5.475,0,0,1,1.1,0c3.79.343,7.581.734,11.373,1.027a48.134,48.134,0,0,0,5.491.1c3.816-.122,7.741.171,11.435-.623a50.928,50.928,0,0,1,9.979-.9" fill="#001d33"/>
    <path id="Path_958" data-name="Path 958" d="M397.281,55.851c1.957-.281,2.838.452,2.52,2.4-.241,1.566-.073,3.339-1.686,4.636a6.2,6.2,0,0,0-5.051-1.284c-1.369.195-2.263.623-2.153,2.188.086,1.358.2,2.715.161,4.073-.086,3.461-.294,6.922-.392,10.383-.061,2.007-.049,4.013.012,6.02.061,2.275.269,4.549.306,6.812.073,3.828.1,7.644.1,11.459,0,3.451-.049,6.9-.086,10.346-.037,3.02-.232,6.029-.086,9.038a44.989,44.989,0,0,0,1.065,5.589c.354,1.846-.636,2.9-2.385,2.4a6.142,6.142,0,0,1-4.476-3.571,56.272,56.272,0,0,0-4.745-8.291c-3.767-5.7-7.656-11.3-11.532-16.926-3.415-4.969-6.815-9.946-10.325-14.834-1.871-2.581-4.024-4.953-5.94-7.509-2.506-3.351-4.928-6.75-7.337-10.162-.673-.963-1.065-2.167-2.569-2.408.061,9.82-.049,19.457.232,29.081s-.6,19.286.587,29.118a46.824,46.824,0,0,0,11.825.734c1.712,1.957.883,4.133.71,6.334-.575.184-1.174.612-1.577.477-3.266-1.124-6.482.306-9.723.1-.636-.037-1.284-.024-1.92-.024-3,.012-6-.049-9.013.061-2.837.11-3.069.024-3.632-2.666-.135-.623-.33-1.235-.428-1.871-.354-2.079.844-3.436,3.009-3.522,1.076-.037,2.152-.184,3.314-.281a20.343,20.343,0,0,0,.722-3.338c.2-4.28.306-8.573.379-12.853.061-3.461-.073-6.922.061-10.37.22-5.932.208-11.838-.073-17.769-.22-4.736-.086-9.478-.22-14.223A33.045,33.045,0,0,0,336.3,59.5c-.366-1.883-.048-3.2,1.859-3.987a12.251,12.251,0,0,0,2.042-1.345c.587.477,1.395.832,1.786,1.455a129.045,129.045,0,0,0,11.741,15.385c2.837,3.3,6,6.322,8.976,9.514,3.852,4.146,7.557,8.353,10.089,13.551,2.1,4.316,4.769,8.352,7.166,12.521,1.043,1.822,2.018,3.669,3.045,5.491a7.525,7.525,0,0,0,2.007,2.5,15.271,15.271,0,0,0,.453-2.826c-.269-10.566-.673-21.132-.893-31.7-.11-5.185.061-10.383.171-15.571.037-1.468.241-2.911-.734-4.254-2.247.147-4.5.195-6.726.476-1.247.161-1.761-.354-1.846-1.394-.122-1.345-.232-2.776.918-3.62,3.559.241,6.958.379,10.334.734a43.3,43.3,0,0,0,10.6-.575" fill="#001d33"/>
    <path id="Path_964" data-name="Path 964" d="M320.481,115.431c.883.587.6,1.737.5,2.81-.171,1.993-.465,3.987-.551,5.992-.061,1.445.161,2.9.171,4.342.012,1-.11,1.993-.2,3.228-2.482.11-4.83.33-7.178.294-5.662-.073-11.325-.551-16.975-.33-4.378.171-8.744.33-13.122.122-2.36-.11-4.72-.343-7.093-.465-1.565-.086-1.675-1.027-1.605-2.262.184-2.985.4-5.98.392-8.964-.012-4.917-.184-9.833-.281-14.749-.012-.636-.049-1.272-.025-1.908.33-6.029.734-12.058.978-18.087.1-2.36-.11-4.745-.232-7.105-.269-5.271-.587-10.542-.869-15.812-.025-.636.049-1.272.061-1.92.025-1.272.771-1.785,1.945-1.785,4.541-.011,9.064-.894,13.615-.267a1.862,1.862,0,0,0,.82.037c5.552-1.565,11.2.024,16.775-.586,1.5-.171,2.984-.514,4.88-.844a6.789,6.789,0,0,1,.66,2.14c.024,2.825-.208,5.638.538,8.438.4,1.525-.147,1.993-1.883,2.2a13.816,13.816,0,0,1-6.225-.257c-1.137-.379-2.519-.061-3.779-.012-4.549.184-9.123-.257-13.635.575-.269.048-.514.16-1.174.354.061,2.923.135,5.724.2,8.5.183.146.329.354.464.354q9.063-.458,18.14-.929c2.532-.135,5.1.171,7.545-.857.281-.122,1.088.367,1.235.734a5.877,5.877,0,0,1,.184,2.091c0,3.277-.086,6.555,0,9.832.037,1.712-.135,2.091-1.9,2.1a132.868,132.868,0,0,0-19.469,1.48,25.882,25.882,0,0,1-2.729.086c-.525,3.179.161,6.347-.049,9.478-.208,3.155-.281,6.334-.416,9.832,2.116.184,3.95.33,5.8.5,2.691.241,5.369.551,8.06.734,1.957.134,3.937.134,5.906.16a19.065,19.065,0,0,1,6.213.575c1.223.416,2.678.122,4.3.147m-2.678,13.99c.257-3.914.5-7.509.759-11.312-1.285-.22-2.422-.526-3.583-.611-4.268-.322-8.537-.624-12.817-.832-3.975-.184-7.946-.281-11.924-.367-1.59-.024-2.262-.562-2.274-2.3a34.13,34.13,0,0,1,.16-6.812c.71-3.657.355-7.252.1-10.872-.086-1.174-.257-2.347-.281-3.531-.012-.918.514-1.822,1.419-1.663,2.874.488,5.6-.33,8.4-.575,4.683-.428,9.4-.612,14.382-.9.171-2.6.367-5.137.5-7.667a1.276,1.276,0,0,0-1.491-1.511c-2.446.171-4.891.441-7.338.612-3.767.24-7.533.415-11.3.648a33.831,33.831,0,0,0-5.125.4c-1.919.415-2.4.219-2.494-1.8-.161-3.278-.294-6.543-.489-9.821-.122-2.263.441-3,2.729-3.13,1.455-.086,2.922-.012,4.378-.012,4.55-.024,9.1-.086,13.646-.049,1.895.012,3.79.232,5.784.367,0-2.336.037-4.33-.012-6.311-.037-.99-.489-1.369-1.614-1.259-2.247.22-4.537.208-6.8.269-3.009.061-6.02,0-9.025.16-5.442.294-10.872.723-16.926,1.138.11,3.253.2,6.322.321,9.391.241,5.723.71,11.458.7,17.194,0,5.2-.514,10.407-.77,15.6-.049,1,.024,2.007.036,3.009.073,4.83.184,9.661.22,14.491.012,2.361-.1,4.736-.16,7.509,13.66,1.089,27.247.061,40.9.538" fill="#001d33"/>
    <path id="Path_974" data-name="Path 974" d="M254.968,62.331a5.41,5.41,0,0,1,.551,3.779,116.977,116.977,0,0,1-6.188,19.812c-1.21,3.106-2.1,6.421-3.8,9.258-2.889,4.816-4.463,10.15-6.689,15.225-2.116,4.856-4.305,9.613-7.656,13.806-1.32,1.651-1.969,3.853-2.861,5.846-1.124,2.506-2.03,2.714-3.865.611-.978-1.137-1.871-2.36-2.751-3.571l2.36-.917a7.907,7.907,0,0,0,1.553,1.333,26.042,26.042,0,0,0,1.846-2.569c1.445-2.629,2.666-5.377,4.22-7.924a117.752,117.752,0,0,0,11.532-26.158c1.052-3.291,1.822-6.69,3.034-9.919,1.773-4.757,3.827-9.4,6.019-14.7-2.889-.525-5.458-.99-7.961-1.455l.477-2.6a50.312,50.312,0,0,0,6.065.147c1.358.012,2.729,0,4.122,0" fill="#001d33"/>
    <path id="Path_977" data-name="Path 977" d="M252.266,66.245c-2.189,5.3-4.244,9.943-6.02,14.7-1.211,3.228-1.981,6.628-3.033,9.918a117.783,117.783,0,0,1-11.529,26.16c-1.553,2.544-2.776,5.3-4.219,7.925a26.155,26.155,0,0,1-1.847,2.568,7.864,7.864,0,0,1-1.549-1.335c-2.581-4.084-5.308-8.1-7.644-12.315-3.718-6.75-8.242-12.922-12.694-19.163a31.922,31.922,0,0,1-2.177-3.485c-2.861-5.3-5.735-10.578-8.487-15.935-1.7-3.314-3.253-6.714-4.769-10.126a33.651,33.651,0,0,1-1.236-4.109c3.559-1.92,7.619-1.406,11.447-2.679a7.2,7.2,0,0,1,1.21,1.737c2.74,8.574,7.277,16.3,11.349,24.264a115.153,115.153,0,0,0,9.906,16.057c1.186,1.6,2.029,3.461,3.143,5.112a7.281,7.281,0,0,0,1.651,1.357c.416-.343.648-.44.684-.575.857-4.047,2.985-7.594,4.44-11.4a79.917,79.917,0,0,0,3.436-12.633,86.869,86.869,0,0,1,4.879-15.6c.661-1.606,1.663-2.544,3.546-2.189l1.554.293c2.506.465,5.075.93,7.961,1.456" fill="#d1d1d3"/>
    <path id="Path_978" data-name="Path 978" d="M244.782,62.185l-.477,2.6-1.553-.294c-1.883-.355-2.89.587-3.546,2.189a86.792,86.792,0,0,0-4.88,15.6,79.916,79.916,0,0,1-3.436,12.633c-1.455,3.8-3.583,7.35-4.439,11.4-.037.135-.269.232-.685.574a7.276,7.276,0,0,1-1.651-1.357c-1.112-1.651-1.957-3.51-3.143-5.112l2.532-1.467c.293.441.623.856.929,1.3.241.012.489.037.722.049.93-3,1.8-6.02,2.789-8.99,2.809-8.462,3.669-17.5,7.643-25.6a13.311,13.311,0,0,0,.759-2.862,15.117,15.117,0,0,1,2.238-1.043c1.015-.269,2.237-.758,3.069-.416a12.17,12.17,0,0,0,3.13.795" fill="#001d33"/>
    <path id="Path_980" data-name="Path 980" d="M224.065,126.181l-2.36.918-.883-1.211c-2.679-3.583-5.356-7.166-7.986-10.786a138.642,138.642,0,0,1-11.75-19.089c-3.986-7.888-8.536-15.506-12.792-23.26-1-1.822-1.809-3.767-2.739-5.638-1.1-2.189-2.153-4.414-3.4-6.518-1.369-2.312-.954-3.375,1.785-3.84,1.871-.321,3.742-.636,5.626-.9,3.057-.464,6.114-.941,9.184-1.321,3.755-.477,4.769,1.382,5.442,3.9,1.088,4.036,2.311,8.06,3.779,11.972.794,2.1,2.225,3.963,3.314,5.968q3.558,6.458,7.056,12.963c1.651,3.045,3.253,6.127,4.891,9.172.086.147.184.306.269.452l-2.53,1.469a115.24,115.24,0,0,1-9.9-16.057c-4.073-7.962-8.61-15.691-11.349-24.264a7.2,7.2,0,0,0-1.211-1.738c-3.828,1.272-7.888.758-11.447,2.678a33.591,33.591,0,0,0,1.235,4.109c1.517,3.412,3.07,6.812,4.77,10.126,2.751,5.356,5.626,10.639,8.487,15.935a31.924,31.924,0,0,0,2.177,3.485c4.451,6.237,8.976,12.413,12.694,19.164,2.335,4.218,5.063,8.23,7.643,12.315" fill="#001d33"/>
    <path id="Path_990" data-name="Path 990" d="M172.885,95.253a31.364,31.364,0,0,1-1.663,15.311c-1,2.52-1.541,5.2-3.069,7.509a13.114,13.114,0,0,1-4.268,4.122c-3.106,1.871-6.1,3.949-9.086,6.028a16.217,16.217,0,0,1-7.384,2.581c-2.153.281-4.33.477-6.482.831-4.39.734-8.817.392-13.232.367-2.63-.012-5.283-.2-7.9.024-3.02.241-4.512-.99-4.745-3.852-.321-3.987-.709-7.974-.758-11.96-.073-6.53.24-13.061.134-19.579-.012-.783-.024-1.565-.037-2.361l2.116-.036q.129,4.916.281,9.832.312,10.566.723,21.11a5.56,5.56,0,0,0,.6,2.347,2.122,2.122,0,0,0,1.382,1.089c4.917.241,9.833.538,14.749.5,3.253-.036,6.493-.586,9.735-.917a6.124,6.124,0,0,0,1.321-.321c2.641-.929,5.344-1.724,7.912-2.849,3.033-1.346,6.25-2.471,8.243-5.467,1.516-2.248,3.106-4.464,4.816-6.582,2.372-2.947,4.013-6.042,3.02-9.979a2.331,2.331,0,0,1,.037-.82c.709-4.4,0-8.756-.7-13.061a26.341,26.341,0,0,0-2.2-7.2l2.323-.758a43.351,43.351,0,0,1,4.134,14.088" fill="#001d33"/>
    <path id="Path_991" data-name="Path 991" d="M168.63,89.126c.7,4.305,1.406,8.658.7,13.061a2.35,2.35,0,0,0-.037.819c.991,3.938-.648,7.032-3.02,9.98-1.712,2.116-3.3,4.329-4.816,6.582-1.993,3-5.21,4.121-8.242,5.466-2.569,1.124-5.271,1.92-7.913,2.85a6.19,6.19,0,0,1-1.32.321c-3.241.33-6.482.883-9.735.917-4.916.037-9.832-.257-14.748-.5a2.118,2.118,0,0,1-1.387-1.1,5.565,5.565,0,0,1-.6-2.348q-.422-10.548-.722-21.109-.147-4.917-.281-9.833c-.086-3.277-.161-6.555-.2-9.832-.086-6.653-.037-13.318-.049-20.032,2.852-1.611,5.666-1.058,8.478-.978,3.73.122,7.46.122,11.077,1.236a3.084,3.084,0,0,0,1.345.195c4.61-.856,8.462,1.334,12.441,3.021q2.88,1.229,5.626,2.739a25.522,25.522,0,0,1,11.2,11.339,26.344,26.344,0,0,1,2.2,7.2" fill="#d1d1d3"/>
    <path id="Path_992" data-name="Path 992" d="M168.752,81.165l-2.324.758a25.509,25.509,0,0,0-11.2-11.336q-2.751-1.5-5.626-2.74c-3.974-1.685-7.826-3.877-12.441-3.02a3.085,3.085,0,0,1-1.345-.2c-3.62-1.113-7.35-1.113-11.077-1.235-2.809-.086-5.625-.636-8.475.978.012,6.714-.037,13.379.049,20.032.037,3.277.11,6.555.2,9.832l-2.115.036c-.16-6.4-.526-12.8-.77-19.213-.2-4.647-.4-9.293-.6-13.9a12.426,12.426,0,0,1,7.632-2.36c3.082.025,6.188-.195,9.245.074,1.846.16,3.632,1.064,5.442,1.639a21.866,21.866,0,0,0,4.134,1.272,35.805,35.805,0,0,1,12.9,4.072,51.218,51.218,0,0,1,8,4.709,24.836,24.836,0,0,1,6.005,6.285c.868,1.407,1.651,2.85,2.373,4.317" fill="#001d33"/>
    <path id="Path_999" data-name="Path 999" d="M101.589,122.671c.538.929,1.051,1.883,1.834,3.314-1.712.55-2.959,1.027-4.254,1.333-3.963.963-7.961,1.871-11.935,2.809-2.214.526-2.729.4-3.706-1.6-1.382-2.874-2.544-5.859-4-8.695-1.651-3.241-3.559-6.348-5.271-9.552a2.869,2.869,0,0,0-3.13-1.651c-2.091.208-4.174.453-6.25.661-1.541.147-3.082.257-4.622.391-2.81.241-5.613.538-8.414.723a1.686,1.686,0,0,0-1.761,1.382c-.281,1.051-.561,2.116-.758,3.192-.6,3.5-1.174,7-1.712,10.515-.269,1.749-.416,3.532-.649,5.564a29.479,29.479,0,0,1-3.51.562c-4.647.208-9.294.33-13.929.476-2.889.086-4.341-1.883-3.532-4.622.681-2.339,1.22-4.736,1.867-7.107A22.414,22.414,0,0,1,28.923,117c1.234-2.839,2.653-5.59,3.826-8.44.514-1.235.5-2.678.929-3.962,2.336-7.166,4.721-14.308,7.1-21.45.979-2.911,2.091-5.772,2.985-8.707.77-2.52,1.321-5.1,1.981-7.644.232-.869.537-1.712.831-2.556,1-2.9,1.993-5.809,3.058-8.683a8.651,8.651,0,0,1,1.223-2.1c1.492-1.993,2.568-2.335,4.218-.586A175.667,175.667,0,0,1,67.126,66.624c3.508,4.61,6.4,9.7,9.528,14.6.685,1.064,1.235,2.238,1.908,3.314,2.372,3.791,4.78,7.558,7.162,11.341,1.321,2.078,2.69,4.121,3.938,6.249,4,6.822,7.961,13.7,11.923,20.548m-2.739,1.051a13.526,13.526,0,0,0-.9-2.042c-4.3-6.341-7.642-13.312-12.471-19.3a30.944,30.944,0,0,1-2.617-4.452c-.9-1.589-1.76-3.191-2.653-4.778-1.124-1.981-2.287-3.938-3.375-5.932-.71-1.272-1.235-2.654-2.007-3.877-2.348-3.692-4.916-7.252-7.143-11.007C64.155,66.367,59,61.782,54.7,56.462c-.648-.808-1.394-.8-1.981.122A6.4,6.4,0,0,0,52,58.064c-1.871,5.992-3.767,11.972-5.538,18-.869,2.969-1.309,6.065-2.248,9.012-1.667,5.2-3.526,10.321-5.372,15.458-1.345,3.767-3,7.448-4.174,11.263-1.305,4.268-2.209,8.643-3.322,12.963-.562,2.226-.33,2.6,1.858,2.789a3.759,3.759,0,0,1,1.309.147c3.045,1.541,6.2.5,9.4.831a51.73,51.73,0,0,1,2.03-18.087,10.908,10.908,0,0,1,1.9-4.292c.049-.061.1-.135.161-.208,1.21.049,2.421.073,3.632.1,6.885.208,13.354.33,19.986-1.517l9.942,11.639c1.605,2.751,3.452,5.369,5.3,7.961.941,1.334,2.167,2.238,3.974,1.211a3.385,3.385,0,0,1,1.834-.161c2.168.2,4.06-.587,6.189-1.455" fill="#001d33"/>
    <path id="Path_1003" data-name="Path 1003" d="M71.908,95.5a2.5,2.5,0,0,1-.122.6,1.666,1.666,0,0,1-.685.869,3.609,3.609,0,0,1-1.382.513,10.1,10.1,0,0,1-1.663.171c-.355.012-.722.012-1.076.012a10.654,10.654,0,0,0-2.067-.012c-3.583.257-7.179.184-10.811.746a.557.557,0,0,0-.453-.208H50.3a10.347,10.347,0,0,1-.241-5.458c.428-2.507.783-5.014,1.333-7.485.93-4.133,1.957-8.242,3.034-12.339.4-1.553,1.541-1.945,2.984-1.149a13.072,13.072,0,0,1,5.43,5.283c1.525,2.91,2.788,5.956,4.329,8.866,1.663,3.155,2.385,6.787,4.745,9.588M67.78,94.026c-3.07-5.747-4.916-12.131-10.029-17.61-1.272,6.507-3.29,12.281-3.546,18.773L67.78,94.027" fill="#001d33"/>
    <path id="Path_942" data-name="Path 942" d="M438.952,203.137a9.942,9.942,0,0,1-.36,1.874h-6.234c.369,1.22.73,2.235.979,3.288a14.115,14.115,0,0,1-1.163,9,25.545,25.545,0,0,1-7.155,9.474,8.632,8.632,0,0,1-2.5,1.357,28.961,28.961,0,0,1-15.865,1.183,15.735,15.735,0,0,1-9.585-5.254c-1.3-1.588-2.991-2.863-4.3-4.451a47.559,47.559,0,0,1-3.8-5.393,60.743,60.743,0,0,1-3.491-6.316,20.106,20.106,0,0,1-1.874-12.613,105.405,105.405,0,0,1,4.441-16.5,24.108,24.108,0,0,1,8.294-11.084c4.109-3.075,8.754-4.534,13.675-5.384a9.748,9.748,0,0,1,2.872.157,45.325,45.325,0,0,1,7.471,1.2,16.081,16.081,0,0,1,7.3,4.774c3.6,4.128,4.913,9.123,5.2,14.442.092,1.754-.25,1.976-2.032,2.077-1.929.111-3.851.36-5.771.369-1.558.01-3.13-.24-4.811-.4-.508-2.493-1.015-4.839-1.45-7.194-.415-2.281-1.9-3.952-3.213-5.7a3.708,3.708,0,0,0-2.1-1.156,13.53,13.53,0,0,0-13.029,3.9,10.709,10.709,0,0,0-2.069,3.758,32.527,32.527,0,0,0-2.216,10.665,76.688,76.688,0,0,0,.582,10.462c.471,4.063,2.226,7.48,4.257,10.8a20.794,20.794,0,0,0,4.1,4.848,19.785,19.785,0,0,0,7.47,3.8,7.313,7.313,0,0,1,1.2.3c2.78,1.284,5.254.314,7.664-1.016a3.445,3.445,0,0,0,1.108-1.191c.471-.757.868-1.559,1.265-2.364a6.654,6.654,0,0,0,.859-4.331c-.333-1.81-.462-3.647-.693-5.624-2.872.185-5.455,1.653-8.468.665-.36-2.927-.73-5.965-1.108-9.031a5.031,5.031,0,0,1,1.339-.554q3.573-.141,7.137-.175c1.45-.019,2.9.082,4.35.055,3.158-.046,6.325.12,9.428-.684a1.3,1.3,0,0,1,1.745,1.007,5.518,5.518,0,0,1,.295,1.2c.12,1.912.222,3.825.259,5.743m-2.022-.646c0-1.237.036-2.4-.01-3.555-.037-.9-.452-1.394-1.477-1.183A18.246,18.246,0,0,1,432,198.3c-2.762.056-5.525-.046-8.283-.055-2.188-.009-4.386.028-6.51.046a5.472,5.472,0,0,0-.184,3.49c.313,1.847.84,2.2,2.659,1.771,1.412-.323,2.807-.683,4.22-.96,1.375-.277,1.856.185,1.957,1.558a36.217,36.217,0,0,0,.535,4.691,12.451,12.451,0,0,1-1.283,8.172,7.882,7.882,0,0,1-5.236,4.6,12.262,12.262,0,0,1-3.814.674,15.771,15.771,0,0,1-4.377-1.063c-3.961-1.468-7.654-3.287-10.342-6.814a30.319,30.319,0,0,1-5.356-9.465,52.3,52.3,0,0,1-1.736-14.922c-.019-4.045,1.108-7.867,2.169-11.727,1.967-7.119,10.61-10.85,16.16-9.492,1.579.378,3.139.6,4.257,1.828a13.294,13.294,0,0,1,3.462,5.513c.378,1.459.739,2.927.97,4.4.283,1.764.295,1.984,2.068,2.179a31.759,31.759,0,0,0,5.55.12c1.652-.1,2.068-.693,1.782-2.281-.268-1.487-.877-2.909-1.071-4.4-.462-3.416-2.687-5.633-5.051-7.756-4.072-3.639-9.16-3.916-14.174-3.74a20.951,20.951,0,0,0-10.7,3.389,30.528,30.528,0,0,0-5.263,3.98,20.167,20.167,0,0,0-4.645,7.738,81.364,81.364,0,0,0-4.027,14.5c-.36,2.364-.877,4.727-.313,7.175,1.558,6.741,5.078,12.411,9.539,17.563a47.234,47.234,0,0,0,3.878,3.924,16.036,16.036,0,0,0,3.583,2.724A16.241,16.241,0,0,0,411,227.514a19.726,19.726,0,0,1,3.306.009c2.409.2,4.605-.591,6.833-1.321a6.146,6.146,0,0,0,2.263-.858,28.433,28.433,0,0,0,4.792-5.116,18.827,18.827,0,0,0,3.2-7.941,9.4,9.4,0,0,0-1.893-7.128c-.369-.49-1.071-.942-.554-1.559a2.531,2.531,0,0,1,1.6-.646c2.05-.2,4.1-.314,6.38-.471" fill="#001d33"/>
    <path id="Path_946" data-name="Path 946" d="M436.921,198.936c.046,1.154.009,2.317.009,3.555-2.281.157-4.331.268-6.38.471a2.531,2.531,0,0,0-1.6.646c-.517.619.185,1.071.554,1.559a9.4,9.4,0,0,1,1.893,7.128,18.827,18.827,0,0,1-3.2,7.941,28.536,28.536,0,0,1-4.792,5.116,6.084,6.084,0,0,1-2.263.858c-2.226.73-4.423,1.524-6.833,1.321a19.622,19.622,0,0,0-3.306-.009,16.26,16.26,0,0,1-8.571-1.856,16.1,16.1,0,0,1-3.583-2.724,47.115,47.115,0,0,1-3.879-3.925c-4.462-5.152-7.978-10.822-9.539-17.562-.566-2.447-.046-4.811.314-7.175a81.408,81.408,0,0,1,4.026-14.5,20.167,20.167,0,0,1,4.645-7.738,30.478,30.478,0,0,1,5.263-3.98,20.942,20.942,0,0,1,10.7-3.389c5.013-.176,10.1.1,14.173,3.74,2.364,2.125,4.59,4.34,5.051,7.756.194,1.5.8,2.918,1.071,4.4.284,1.588-.129,2.179-1.782,2.281a31.744,31.744,0,0,1-5.549-.12c-1.771-.194-1.783-.416-2.069-2.179-.231-1.477-.591-2.945-.97-4.4a13.3,13.3,0,0,0-3.462-5.513c-1.117-1.228-2.678-1.45-4.257-1.828-5.549-1.358-14.192,2.373-16.159,9.492-1.063,3.86-2.189,7.682-2.17,11.727a52.189,52.189,0,0,0,1.736,14.922,30.33,30.33,0,0,0,5.356,9.465c2.687,3.527,6.381,5.347,10.342,6.814a15.77,15.77,0,0,0,4.378,1.063,12.228,12.228,0,0,0,3.813-.675,7.881,7.881,0,0,0,5.236-4.6,12.46,12.46,0,0,0,1.284-8.172,36.044,36.044,0,0,1-.536-4.691c-.1-1.376-.582-1.838-1.957-1.558-1.413.277-2.807.637-4.22.96-1.819.425-2.345.071-2.659-1.771a5.465,5.465,0,0,1,.185-3.49c2.125-.018,4.321-.055,6.51-.046,2.762.009,5.525.11,8.283.055a18.33,18.33,0,0,0,3.444-.554c1.025-.212,1.44.284,1.478,1.183" fill="#d1d1d3"/>
    <path id="Path_961" data-name="Path 961" d="M376.585,222.16c-.07-1.515-.295-3.02-.425-4.525-.194-2.244-.387-4.478-.572-6.722-.277-3.25-.554-6.492-.868-9.732-.323-3.288-.85-6.557-1.164-9.847-.609-6.371-1.071-12.761-1.727-19.126a19.061,19.061,0,0,0-1.542-6.778,1.564,1.564,0,0,0-2.022-1.071c-3.325.49-6.621,1.376-10.037.988a4.045,4.045,0,0,0-1.6.36,1.275,1.275,0,0,0-.957,1.528c0,.02.01.04.015.06.231,1.771.3,3.565.573,5.337.8,5.1,1.652,10.194,1.477,15.393-.071,2.078-.083,4.165-.129,6.242a6.32,6.32,0,0,1-1.2-1.771c-2.576-4.391-5.18-8.772-7.748-13.168-.867-1.487-1.7-2.991-2.456-4.533-1.45-2.964-2.807-5.965-4.25-8.929-.748-1.533-.9-1.559-2.576-1.183a22.767,22.767,0,0,1-5.633.785,10.175,10.175,0,0,1-1.469-.119,30.731,30.731,0,0,0-3.933-.111c-.942-.018-1.413.407-1.385,1.367.129,4.118-.536,8.3,1.034,12.308a4.051,4.051,0,0,1,.2,1.21c.185,3.371.323,6.741.536,10.112.212,3.352.5,6.7.748,10.047.185,2.474.545,4.967.665,7.442.046.943.065,1.884.018,2.826a57.1,57.1,0,0,0,.582,7.775c.231,2.66.567,5.328.567,7.988s.683,3.592,3.333,3.583c1.154-.009,2.318-.148,3.481-.176,2.327-.055,4.654-.046,6.981-.141,1.053-.046,1.376-.582,1.256-1.625-.221-1.913-.415-3.826-.6-5.738-.572-5.8-1.256-11.579-1.652-17.388-.277-4.026-.176-8.089-.231-12.134.194-.009.388-.028.581-.037.425,1,.914,1.984,1.275,3.011a235.617,235.617,0,0,0,9.936,24.008q2.009,4.155,4.007,8.3c.37.766.933.867,1.718.646a42.809,42.809,0,0,1,9.8-1.237c1.755-.092,3.49-.453,5.411-.708,0-1.691.055-3.112-.018-4.525" fill="#001d33"/>
    <path id="Path_963" data-name="Path 963" d="M317.949,169.717c.092,1.552.259,3.121.25,4.691-.01,1.792-.3,2-2.06,2.069-2.059.064-4.127.1-6.187.212a13.662,13.662,0,0,0-2.077.453c.083,1.976.175,3.814.231,5.651.046,1.856.055,3.7.071,5.55,0,.415-.071.83-.083,1.246-.148,4.959-.354,9.918-.379,14.885-.009,1.829.5,3.666.628,5.5.2,3.02.305,6.048.434,9.067.056,1.293.071,2.6.12,4,.877.028,1.616.046,2.345.092,1.432.083,2.872.142,4.285.332.388.056,1.025.582,1.016.887-.01,1.764,1.292,3.666-.4,5.208-1.893.083-3.758.231-5.614.231-2.126,0-4.239-.176-6.362-.185-1.441,0-2.881.185-4.322.24-1.292.055-2.594.046-3.9.046-.674-.009-1.345-.1-2.013-.083-1.4.046-2.041-.471-2.188-1.81-.071-.683-.249-1.346-.314-2.031a2.061,2.061,0,0,1,2.346-2.409,13.42,13.42,0,0,0,2.2-.018c2.05-.194,4.091-.425,6.251-.656-.618-15.443-.877-30.823-2.567-46.475a2.521,2.521,0,0,0-2.5-.434,13.66,13.66,0,0,1-8.292-.591c-.213-1.542-.462-3.029-.618-4.515-.142-1.265.323-1.755,1.542-1.9,2.077-.24,4.155-.517,6.233-.776a2.618,2.618,0,0,1,.6-.009c3.371.536,6.815.185,10.176,1.191,1.644.5,3.556.149,5.338.111,1.505-.037,3.01-.2,4.524-.231a4.266,4.266,0,0,1,1.284.462" fill="#001d33"/>
    <path id="Path_969" data-name="Path 969" d="M287.126,194.032a4.8,4.8,0,0,1,.167,1.847c-.545,4.5-.176,9.132-1.746,13.463-.83,2.3-1.421,4.7-2.844,6.8-.9,1.346-1.375,2.975-2.621,4.146-.895.831-1.68,1.782-2.521,2.668a2.422,2.422,0,0,1-.462.425c-2.022,1.293-4.091,2.512-6.066,3.869a16.311,16.311,0,0,1-7.96,2.494,32.842,32.842,0,0,1-3.306.018v.142c-3.167-.148-6.325-.332-9.493-.425a1.434,1.434,0,0,1-1.565-1.289,1.416,1.416,0,0,1,0-.216c-.1-1.1-.129-2.207-.185-3.306-.092-1.995-.213-3.989-.25-5.984-.046-2.465-.009-4.931-.018-7.4-.009-2.743.046-5.485-.028-8.217l2.161-.056c0,.567.046,1.127.083,1.681.194,2.816.545,5.623.581,8.429.037,3.777.656,7.545.185,11.33a1.037,1.037,0,0,0,.028.609,3.215,3.215,0,0,0,.905,1.183,3.606,3.606,0,0,0,1.588.323,61.61,61.61,0,0,0,10.518-.355c2.668-.323,4.848-1.855,7.377-2.428,4.165-2.9,7.517-6.436,9.114-11.376,1.145-3.519,2.291-7.037,3.4-10.564a17.366,17.366,0,0,0,.406-9.456l1.93-.545c.212.73.416,1.46.628,2.189" fill="#001d33"/>
    <path id="Path_970" data-name="Path 970" d="M286.5,191.844l-1.93.545c-.11-.425-.23-.859-.378-1.284a27.389,27.389,0,0,0-9.548-12.937c-1.607-1.237-3.435-2.6-5.337-2.936-3.546-.618-6.99-1.736-10.73-1.653l-.055-2.188a1.123,1.123,0,0,0,.305-.037c2.723-.674,5.327.3,7.969.6a32.4,32.4,0,0,1,8.707,2.4,14.221,14.221,0,0,1,8.385,8.819c.969,2.853,1.791,5.761,2.613,8.67" fill="#001d33"/>
    <path id="Path_971" data-name="Path 971" d="M284.567,192.39a17.363,17.363,0,0,1-.407,9.455c-1.107,3.528-2.253,7.045-3.4,10.564-1.6,4.94-4.949,8.477-9.114,11.377-2.53.572-4.709,2.105-7.378,2.428a61.7,61.7,0,0,1-10.517.354,3.591,3.591,0,0,1-1.588-.323,3.219,3.219,0,0,1-.9-1.182,1.029,1.029,0,0,1-.027-.609c.471-3.787-.148-7.554-.185-11.33-.037-2.808-.388-5.615-.582-8.43-.037-.554-.083-1.117-.083-1.68a7.8,7.8,0,0,1,.037-.794c.656-6.03-.425-11.94-1.265-17.859a34.861,34.861,0,0,1,.1-9.853c3.066-1.08,5.993-.785,8.93-.914.128,0,.258-.009.387-.009,3.74-.083,7.184,1.034,10.73,1.653,1.9.332,3.73,1.7,5.337,2.936a27.391,27.391,0,0,1,9.548,12.937c.148.425.268.858.378,1.283" fill="#d1d1d3"/>
    <path id="Path_975" data-name="Path 975" d="M258.52,171.391l.055,2.188c-.129,0-.258.009-.387.009-2.936.129-5.864-.166-8.929.914a34.9,34.9,0,0,0-.1,9.853c.841,5.919,1.921,11.83,1.266,17.859a7.262,7.262,0,0,0-.037.794l-2.161.055c-.009-.7-.037-1.412-.071-2.114-.119-2.54-.683-5.051-.886-7.58-.3-3.767-.554-7.535-.637-11.311a28.105,28.105,0,0,0-1-7.342c-.9-3.112.212-3.279,3.011-3.528,1.938-.176,3.915-.083,5.873-.071.96,0,1.92.083,2.881.142.369.018.766.141,1.126.141" fill="#001d33"/>
    <path id="Path_979" data-name="Path 979" d="M241.518,225.428c.618,1.477.378,1.837-1.256,2.04-3.066.369-6.132.721-9.2,1.108-.675.083-1.339.277-2,.425a2.421,2.421,0,0,1-3.094-1.948c-.914-5.771-3.2-11.1-5.189-16.528l2.225-.8c.158.471.333.933.517,1.4,1.284,3.187,2.715,6.3,4.064,9.473.618,1.45,1.144,2.946,1.81,4.377a1.588,1.588,0,0,0,1.736,1.164c2.364-.333,4.746-.6,7.2-.915a11.574,11.574,0,0,0-.388-1.163c-2.17-4.9-4.386-9.788-6.528-14.7-2.586-5.929-4.94-11.968-8.163-17.592-.378-.655-.656-1.366-.97-2.059-1.412-3.056-2.733-6.159-4.25-9.16s-3.232-5.919-4.888-8.855a18.388,18.388,0,0,0-4.515-5.2,6.572,6.572,0,0,0-.647,1.117q-2.589,7.632-5.125,15.264a2.763,2.763,0,0,0-.141.609l-1.856-.36c.194-.979.387-1.948.646-2.908,1.21-4.488,2.53-8.948,3.825-13.427.185-.656.462-1.293.693-1.939a2.963,2.963,0,0,1,2.65-1.995,2.534,2.534,0,0,1,2.5,1.478,198.572,198.572,0,0,1,11.78,20.851c.655,1.366,1.219,2.77,1.856,4.146,1.736,3.739,3.453,7.489,5.263,11.192,1.542,3.158,3.306,6.2,4.792,9.382,1.552,3.3,2.881,6.7,4.313,10.047.776,1.828,1.579,3.647,2.338,5.485" fill="#001d33"/>
    <path id="Path_984" data-name="Path 984" d="M223.005,209.721l-2.226.8c-.212-.573-.416-1.145-.618-1.718a1.6,1.6,0,0,0-1.792-1.293,11.284,11.284,0,0,0-1.865.065,12.785,12.785,0,0,1-5.938.009,9.906,9.906,0,0,0-2.244-.028A147.484,147.484,0,0,0,204.37,226.2l-2.031-.3c.406-3.187.757-6.39,1.153-9.585.093-.748.284-1.477.435-2.216a54.3,54.3,0,0,0,1.283-6.455,5.263,5.263,0,0,1,1.644-3.851c1.421,0,2.862.037,4.3-.009,2.53-.083,5.06-.176,7.58-.354a2.536,2.536,0,0,1,2.9,2.013c.453,1.422.868,2.863,1.367,4.275" fill="#001d33"/>
    <path id="Path_987" data-name="Path 987" d="M216.892,195.574a11.071,11.071,0,0,1,.536,2.041c-3.952,1.21-7.748.721-11.506.739-1.939.009-2.447-.96-1.791-2.826s1.08-3.786,1.558-5.7c.508-2.059.9-4.128,1.265-6.215.142-.775.24-1.514,1.183-1.652a2.161,2.161,0,0,1,2.345.951c.877,1.478,1.709,2.982,2.474,4.515q2.023,4.046,3.934,8.147m-9.428.212c2.346.831,4.377.018,6.473.055-.295-2.013-3.906-9.437-5.235-10.573-.037,3.749-1.69,7.046-1.238,10.517" fill="#001d33"/>
    <path id="Path_989" data-name="Path 989" d="M202.34,225.9l2.032.3q-.25,1.7-.444,3.435c-1.9.092-3.795.284-5.679.259-2.338-.046-4.675-.268-7.009-.416-.979-.064-1.558-.517-1.431-1.588a31.025,31.025,0,0,1,.646-4.663,103.79,103.79,0,0,0,3.13-15.744,38.042,38.042,0,0,1,1.939-6.926c1.4-4.313,2.982-8.571,4.3-12.909.453-1.478.739-3.011,1.044-4.534l1.856.36a29.89,29.89,0,0,1-1.45,6.824c-1.432,5.014-2.567,10.111-3.943,15.143-1.459,5.384-3.057,10.721-4.038,16.215-.2,1.154-.517,2.281-.708,3.435-.12.708.027,1.505.9,1.57,2.54.194,5.089.277,7.627.388.776.037,1.134-.489,1.22-1.154" fill="#001d33"/>
    <path id="Path_993" data-name="Path 993" d="M184.711,223.24c-.185,1.469-.323,2.807-.517,4.128a2.507,2.507,0,0,1-2.419,1.856,51.744,51.744,0,0,1-5.313-.545,61.412,61.412,0,0,0-12.549-.85,27.762,27.762,0,0,1-2.9-.046c-3.02-.194-6.03-.425-9.05-.609a2.949,2.949,0,0,0-.988.221c-2.55.8-4.045-.507-3.851-3.158.142-1.837-.082-3.7-.1-5.549-.055-5.356-.11-10.711-.1-16.058,0-1.228.314-2.447.4-3.666.1-1.643.142-3.288.157-4.94.047-4.183.2-8.366.065-12.549-.167-4.876.36-9.776-.5-14.636a3.692,3.692,0,0,1,.96-3.076c2.022.354,4.165-.157,6.343.284a10.444,10.444,0,0,0,3.9-.019c3.333-.618,6.7-.4,10.037-.406a87.983,87.983,0,0,1,9.179.9c.821.083,1.652.083,2.474.213,1.053.166,2.087.415,3.269.665-.24,1.228-.369,2.169-.609,3.084-.185.708-.757.859-1.468.84q-4.641-.167-9.29-.24c-1.219-.018-2.447.1-3.675.148a23.4,23.4,0,0,1-7.312-.718c-2.068-.554-4.377-.231-6.574-.258-1.035-.009-1.57.581-1.559,1.736.046,3.74.185,7.489.176,11.229,0,1.856-.268,3.711-.354,5.567a14.808,14.808,0,0,0,.2,2.133,94.831,94.831,0,0,0,14.987-.369,44.592,44.592,0,0,1,13.955.8,5.359,5.359,0,0,1,.776.332c.129,1.771.268,3.343.369,4.912a1.133,1.133,0,0,1-.9,1.324,1.113,1.113,0,0,1-.305.015,4.572,4.572,0,0,1-.619-.018c-5.633-.25-11.256-.517-16.889-.748-2.752-.1-5.5-.167-8.255-.167-2.373-.009-3.02.665-3.158,3-.277,4.764-.628,9.52-.831,14.285-.11,2.53.009,5.078.055,7.618a5.732,5.732,0,0,0,.3,1.144c2.678-.082,5.318.721,8.005.01a3.48,3.48,0,0,1,1.006-.176c3.971.222,7.941.4,11.9.72a41.6,41.6,0,0,0,7.96.176,5.047,5.047,0,0,1,3.613,1.459" fill="#001d33"/>
    <path id="Path_1000" data-name="Path 1000" d="M144.035,224.81c.407.921.028,1.357-.988,1.524a34.2,34.2,0,0,1-9.409-.185,21.235,21.235,0,0,0-8.819.462c-2.022.637-2.2.554-2.789-1.441a8.544,8.544,0,0,0-1.828-2.927c-2.391-2.992-3.666-6.6-5.525-9.89-1.884-3.343-3.528-6.851-6.371-10.084a7.956,7.956,0,0,0-.25,1.893c.25,1.976.748,3.924.877,5.9.36,5.707.582,11.432.84,17.148.028.609-.046,1.219-.092,2.086-1.958.158-3.814.314-5.679.453-.942.071-1.893.148-2.833.148-1.506,0-3-.083-4.506-.1-1.108-.019-2.207.027-3.315.009-.952-.018-1.893-.083-3.039-.129a7.547,7.547,0,0,1-.018-2.576,12.132,12.132,0,0,0,.85-3.684l2.345.231c-.185,1.948.129,2.318,2.078,2.392,2.345.082,4.691.141,7.027.323,1.847.148,2.2-.065,2.05-1.921a76.784,76.784,0,0,1-.249-11.921,40.38,40.38,0,0,0-.416-11.118c-.572-2.807.111-5.467.268-8.181.1-1.847.425-1.893,2.456-1.718.434.776.8,1.6,1.3,2.327a75,75,0,0,1,5.165,8.207c1.246,2.447,2.77,4.756,4.127,7.147,1.6,2.807,3.177,5.624,4.682,8.477a18.41,18.41,0,0,1,1.247,3.269,2.7,2.7,0,0,0,2.484,2.051c3.269.553,6.455-.111,9.659-.444a11.545,11.545,0,0,0,2.437-.8c-1.976-3.158-3.97-6.048-5.642-9.114a71.406,71.406,0,0,0-5.328-8.217l2-1.5c1.865,2.493,3.712,4.986,5.525,7.516,2.8,3.925,5.485,7.923,8.209,11.9a16.417,16.417,0,0,1,1.478,2.484" fill="#001d33"/>
    <path id="Path_1001" data-name="Path 1001" d="M137.8,221.735a11.563,11.563,0,0,1-2.437.8c-3.2.332-6.391,1-9.659.444a2.7,2.7,0,0,1-2.484-2.05,18.468,18.468,0,0,0-1.247-3.27c-1.506-2.853-3.085-5.667-4.682-8.477-1.357-2.391-2.881-4.7-4.128-7.147A74.587,74.587,0,0,0,108,193.83c-.495-.73-.867-1.552-1.3-2.327-2.031-.176-2.354-.129-2.456,1.717-.157,2.715-.84,5.375-.267,8.182a40.379,40.379,0,0,1,.416,11.118,76.66,76.66,0,0,0,.249,11.921c.148,1.856-.2,2.068-2.05,1.92-2.338-.185-4.682-.24-7.027-.323-1.948-.071-2.263-.443-2.078-2.391a64.009,64.009,0,0,0,.665-8.385c-.221-6.168.36-12.318-.046-18.495-.3-4.719.25-9.493.354-14.239q.143-6.661.12-13.317c-.009-1.579-.283-3.149-.323-4.719a1.789,1.789,0,0,1,.6-1.385c1.7-.867,3.481-1.579,5.217-2.382,1.847-.85,3.675-.046,5.485.083,3.556.258,7.092.868,10.656,1.1,4,.249,6.409,2.521,8.126,5.808a20.986,20.986,0,0,1,1.126,3.1,4.747,4.747,0,0,1-1.107,4.922c-1.081,1.237-2.023,2.6-3.158,3.758a43.46,43.46,0,0,1-4.275,3.851,9.6,9.6,0,0,1-2.456,1.025c-1.431.544-1.644,1.246-.785,2.428,1.329,1.837,2.6,3.721,3.933,5.549,1.838,2.494,3.639,5.014,5.6,7.415,1.237,1.524,2.456,3.066,3.619,4.636a71.407,71.407,0,0,1,5.328,8.217c1.671,3.066,3.666,5.956,5.642,9.114M115.5,174.555a6.792,6.792,0,0,0-2-6.972c-1.071-1.044-2.253-2.3-4.1-2.069-.25-.027-.567-.157-.785-.064-2.023.858-4.063,1.7-6.021,2.668a2.037,2.037,0,0,0-.933,1.46,12.951,12.951,0,0,0,.566,5.512,6.234,6.234,0,0,0,7.73,3.694c1.311-.508,2.567-1.163,3.85-1.764a3.394,3.394,0,0,0,1.69-2.465" fill="#d1d1d3"/>
    <path id="Path_1002" data-name="Path 1002" d="M128.826,202.907l-2,1.5c-1.163-1.57-2.382-3.112-3.62-4.636-1.958-2.4-3.758-4.922-5.6-7.414-1.339-1.829-2.6-3.712-3.933-5.55-.859-1.182-.647-1.883.784-2.428a9.577,9.577,0,0,0,2.459-1.026A43.219,43.219,0,0,0,121.2,179.5c1.134-1.163,2.078-2.521,3.158-3.757a4.746,4.746,0,0,0,1.108-4.922,21.1,21.1,0,0,0-1.126-3.1c-1.718-3.288-4.128-5.559-8.126-5.809-3.565-.231-7.1-.84-10.656-1.1-1.81-.129-3.638-.933-5.485-.083-1.736.8-3.519,1.514-5.217,2.382a1.785,1.785,0,0,0-.6,1.386c.037,1.569.314,3.139.323,4.718q.015,6.663-.12,13.318c-.1,4.746-.656,9.52-.354,14.238.407,6.178-.175,12.326.046,18.5a63.98,63.98,0,0,1-.665,8.384l-2.347-.232c.167-1.746.092-3.519.2-5.263a86.328,86.328,0,0,0-.093-9.89c-.184-3.565-.627-7.129-.858-10.7-.1-1.615.092-3.258.027-4.887a42.531,42.531,0,0,0-.566-6.7,17.982,17.982,0,0,1-.185-5.116c.083-1.163.148-2.338.2-3.5.1-1.976.1-3.961.305-5.928.341-3.334.775-6.659,1.247-9.982a34.873,34.873,0,0,1,.83-3.4c2.263-.055,4.322,0,6.353-.166,2.863-.241,5.707-.749,8.572-.915a16.636,16.636,0,0,1,4.921.453c3.787.96,7.554,2.05,11.257,3.269a5.658,5.658,0,0,1,3.471,4.128c.618,2.151,1.1,4.367,1.5,6.574a8.765,8.765,0,0,1-.84,5.633,42.317,42.317,0,0,1-2.54,4.682c-1.339,1.976-3.73,2.5-5.642,3.683-.638.4-1.33.684-2.115,1.081,1.625,2.567,3.057,4.986,4.645,7.3,1.21,1.754,2.65,3.352,3.934,5.06,1.016,1.357,2.032,2.705,3.046,4.063" fill="#001d33"/>
    <path id="Path_1004" data-name="Path 1004" d="M113.5,167.589a6.788,6.788,0,0,1,2,6.971,3.394,3.394,0,0,1-1.689,2.466c-1.284.6-2.54,1.255-3.851,1.763a6.235,6.235,0,0,1-7.729-3.693,13.117,13.117,0,0,1-.567-5.513,2.041,2.041,0,0,1,.933-1.459c1.958-.97,4-1.81,6.021-2.668.222-.092.536.036.785.064,1.847-.231,3.029,1.025,4.1,2.069m-1.126,7.3a3.7,3.7,0,0,0,.387-2.54,5.881,5.881,0,0,0-2.465-3.869c-1.025-.859-2.05-.378-3.038.231-.157.1-.4.064-.6.129-1.459.462-2.65,1.284-2.281,3.353a5.93,5.93,0,0,0,.028.988A5.421,5.421,0,0,0,106.987,177c1.063.674,2.106,0,2.955-.794a.775.775,0,0,1,.378-.158,2.638,2.638,0,0,0,2.05-1.154" fill="#001d33"/>
    <path id="Path_943" data-name="Path 943" d="M484.557,318.77c.954,1.6.453,2.986-1.228,3.383a3.2,3.2,0,0,1-.851.057c-3.184-.066-6.265.747-9.383,1.38-1.786.359-3.648.265-5.458.491-1.323.17-2.618.567-3.94.756-1.881.265-3.761.52-5.651.614-2.6.133-5.207.114-7.815.151-2.069.02-2.636-.359-2.976-2.674-.274-1.862-.18-3.789-.3-5.689-.387-6.236-.841-12.473-1.2-18.718-.075-1.37.151-2.76.2-4.148.208-6.029.255-12.066.633-18.077.321-5.235,1-10.441,1.559-15.651a2.15,2.15,0,0,1,1.851-2.155,18.53,18.53,0,0,1,5.207-.435,43.72,43.72,0,0,0,10.763-.321,72.821,72.821,0,0,1,8.627-.689c1.531-.076,3.061.047,4.592.1,1.152.047,1.525.869,1.685,1.984a20.533,20.533,0,0,0,.652,2.835,2.064,2.064,0,0,1-1.974,2.59,29.776,29.776,0,0,1-3.176.019c-4.072.009-8.135-.066-12.208.057-2.3.075-4.611.52-6.926.709a11.826,11.826,0,0,1-2.495-.256c-1.436-.18-2.3.511-2.087,2.07.614,4.535-.037,9.069.161,13.606.1,1.937.283,2.126,2.013,1.846,3.467-.558,6.936-1.105,10.422-1.559,2.9-.368,5.812-.718,8.732-.85a56,56,0,0,1,6.539.283,1.921,1.921,0,0,1,1.238.737c1.077,1.427.349,4.479-1.267,5.093a13.531,13.531,0,0,1-3.3.7q-5.881.722-11.765,1.322c-2.031.218-4.072.331-6.113.511-1.513.132-3.034.246-4.536.444-1.927.265-2.408.812-2.618,2.9-.113,1.077-.132,2.167-.188,3.221.538,6.936.614,13.9,2.087,20.7.453,2.117.463,2.182,2.286,2.06,4.215-.284,8.428-.492,12.625-.879a75.9,75.9,0,0,0,11.934-1.578,1.969,1.969,0,0,1,2.495,1.134c.34.661.774,1.275,1.162,1.918" fill="#001d33"/>
    <path id="Path_956" data-name="Path 956" d="M434.051,298.3c.132,2.39.208,4.791.179,7.191-.037,3.459-.16,6.917-.321,10.375-.151,3.13.105,6.331-1.851,9.638-1.541-.085-3.346-.132-5.137-.311a18.9,18.9,0,0,0-6.9.567,9.492,9.492,0,0,1-3.532,0c-.331-.038-.841-.822-.8-1.22.378-3.817-.122-7.616-.217-11.414-.076-3.1.1-6.2.066-9.3-.028-2.174-.246-4.334-.369-6.445-3.005-.028-5.934-.047-8.806-.065-.057,4.2-.18,8.315-.142,12.426a2.005,2.005,0,0,0,.009.245l-2.2.047c-.075-3.392-.387-6.784-.378-10.186.01-1.889-.085-3.78-.132-5.509a2.374,2.374,0,0,1,2.4-.132,8.323,8.323,0,0,0,3.874.5c2.627-.624,5.16-.208,7.786-.1a5.816,5.816,0,0,1,.463,1.473c.142,4.829.662,9.7.227,14.486-.359,3.884.548,7.549.463,11.4,3.2.567,9.563-.415,11.3-1.635a15.626,15.626,0,0,0-.17-2.106c-1.078-5.018-.945-10.083-.643-15.167.057-.982.066-1.974.076-2.957.028-5.632-.709-11.254-.236-16.9a41.2,41.2,0,0,0-.161-6.747c-.245-3.081-.736-6.142-.973-9.213-.274-3.629-.4-7.266-.6-10.989-2.4-.142-4.649-.3-6.9-.4A1.413,1.413,0,0,0,418.8,257a1.391,1.391,0,0,0-.017.347c-.048,1.058-.284,2.106-.313,3.165q-.268,8.773-.463,17.557c-.019,1.039.01,2.086.038,3.13l-2.328-.01c-.065-2.344-.16-4.488-.113-6.614.085-3.733.388-7.447.454-11.179.037-2.589-.142-5.2-.293-7.795a2.3,2.3,0,0,1,2.051-2.684c3.371-.179,6.755-.3,10.129-.349a17.151,17.151,0,0,1,3.033.453,8.708,8.708,0,0,1,.17,1.077c.057,4.366,0,8.741.18,13.106.113,2.655.614,5.292.9,7.946.349,3.291.708,6.577.963,9.865q.51,6.633.869,13.285" fill="#001d33"/>
    <path id="Path_957" data-name="Path 957" d="M418.034,281.2c.028.927.057,1.862.047,2.788-.01,1.427-.255,1.625-1.6,1.512-1.049-.085-2.1-.255-3.156-.312-2.523-.151-5.046-.548-7.54.321a8.457,8.457,0,0,1-2.495.331c-1.332.028-1.766-.416-1.9-1.691-.1-.907-.236-1.806-.34-2.713a66.945,66.945,0,0,1-.775-6.7c-.1-4.007.1-8.032.076-12.048-.01-1.926-.228-3.853-.341-5.443-2.344-.142-4.346-.255-6.217-.368.01,1.889.038,3.506.038,5.122a82.725,82.725,0,0,0-.01,8.668c.567,5.717-.151,11.4.018,17.113.114,3.514-.085,7.04-.047,10.564.057,5.074.18,10.139.321,15.214.076,2.456.227,4.922.388,7.379.085,1.284.359,1.475,1.71,1.654,1.115.142,2.212.435,3.327.548,1.625.18,3.3.586,4.884-.189-.188-2.889-.689-5.641-.491-8.347.113-1.525.123-3.043.085-4.564l2.2-.048c.038,3.364.255,6.738.368,10.092.048,1.483.085,2.97.048,4.441-.028,1.267-.586,1.766-1.72,1.351a5.012,5.012,0,0,0-2.665-.038c-.963.161-1.966.113-2.939.189-.879.075-1.846-.293-2.56.586-.133.16-.529.142-.8.16-1.332.057-2.665.18-4,.123a8.05,8.05,0,0,1-2.022-.737,7.548,7.548,0,0,0,1.295-5.538,7.778,7.778,0,0,1,.057-1.691c.586-6.416.283-12.832.188-19.248-.094-6.2-.075-12.407-.293-18.6-.188-5.122.218-10.29-.954-15.365a21.6,21.6,0,0,1-.151-4.431c-.037-2.523-.047-5.046-.066-7.654a4.7,4.7,0,0,1,3.563-.189,29.372,29.372,0,0,0,6.662.917c2.041.151,2.352.481,2.466,2.5.255,4.564.69,9.109.926,13.673.123,2.248-.065,4.507-.037,6.766.019,1.729.142,3.458.227,5.338,4.167-.5,8.088.01,11.915-.623-.01-.274-.01-.558-.019-.832Z" fill="#001d33"/>
    <path id="Path_962" data-name="Path 962" d="M380.627,256.472a1.668,1.668,0,0,0-1.585-1.747c-.042,0-.084,0-.125,0-2.75-.188-5.491-.491-8.231-.491-3.732,0-7.455.208-11.188.378-1.465.066-2.92.388-4.384.378-.283,0-.576,0-.86-.019-2.182-.038-4.356-.189-6.539-.274-2.872-.1-5.764-.293-8.636-.236-4.507.1-9.005.378-13.5.558-1.654.066-1.947.426-1.541,2.079a4.167,4.167,0,0,0,.161.614c1.436,3.3.831,6.983,1.918,10.347.066.18-.047.416-.057.624-.075,1.55.3,1.965,1.909,1.937a29.378,29.378,0,0,1,8.608.8,14.576,14.576,0,0,0,3.336.378c2.022.066,4.054.048,6.076.038a26.177,26.177,0,0,0,2.729-.151c1.22-.132,2.428-.34,3.657-.51.274,2.579.151,5.045.841,7.266,1.408,4.516,1.163,9.2,1.89,13.786.586,3.657.283,7.455.387,11.188a36.271,36.271,0,0,0,.3,6.511,62.187,62.187,0,0,1,1.105,10.063c.1,2.1.265,4.2.454,6.293.123,1.313.652,1.852,1.691,1.663a24.383,24.383,0,0,1,8.759-.491c1.153.208,1.475-.236,1.484-1.483a9.949,9.949,0,0,0-.1-1.049c-.255-3.232-.5-6.463-.766-9.686-.17-2.107-.293-4.215-.558-6.3-.472-3.78-.944-7.55-1.152-11.349-.085-1.408-.123-2.825-.113-4.243,0-.416.009-.841-.02-1.266q-.326-5.16-.68-10.319a12.563,12.563,0,0,0-.208-2.315,16,16,0,0,1-.284-6.293c2.883-.406,5.651-.945,8.448-1.143,2.174-.151,4.441-.9,6.5.454.68-.558,1.275-1.04,1.805-1.475-.539-5.008-1.068-9.761-1.54-14.514" fill="#001d33"/>
    <path id="Path_981" data-name="Path 981" d="M270.6,323.532c.359.69.057,1.72.057,2.372a16.828,16.828,0,0,1-2.6,1.124,7.1,7.1,0,0,1-2.277.047c-.482-.047-.926-.406-1.4-.473-1.834-.245-1.777-.236-2.087-2.135-.341-2.087-.8-4.149-1.238-6.218-1.134-5.367-2.247-10.734-3.439-16.092-.35-1.568-1.02-3.071-1.38-4.649-.671-2.939-1.228-5.916-1.824-8.882-.132-.671-.188-1.365-.293-2.079-2.8-.425-5.3.359-7.833.869-.737.151-.879.832-.879,1.512,0,1.559-.028,3.109-.028,4.656,0,5.027-.142,10.054.076,15.071.236,5.33.784,10.64,1.266,15.96.179,1.889-.6,2.89-2.514,2.976-1.123.048-2.239.161-3.354.312-1.72.236-2.107,0-2.23-1.846-.217-3.1-.273-6.208-.519-9.3s-.681-6.152-.982-9.231a36.829,36.829,0,0,1-.256-4.441,45.445,45.445,0,0,0-.633-10.488,52.631,52.631,0,0,1-.642-8.211c-.189-3.94-.246-7.89-.463-11.83-.133-2.382-.511-4.754-.69-7.134a35.017,35.017,0,0,1-.009-4.224c.075-1.663.283-2.013,1.918-2.182,1.947-.218,3.912-.142,5.868-.18a14.689,14.689,0,0,0,1.691.038c3.1-.444,6.2.057,9.289-.01a23.132,23.132,0,0,1,11.141,2.759,7.046,7.046,0,0,1,2.787,2.778c2.259,4.083,2.958,8.268.652,12.7a16.087,16.087,0,0,1-3.893,5.4c-.689.567-1.436,1.068-2.362,1.758.709,2.889,1.342,5.906,2.192,8.863a90.239,90.239,0,0,1,3.014,14.458,62.476,62.476,0,0,0,1.926,7.757c.189.747.369,1.493.558,2.24.51,1.965.416,4.053,1.389,5.939m-7.143-50.26c.642-1.685,1.172-3.591.18-5.1-1.285-1.975-2.816-4-5.245-4.715a21.6,21.6,0,0,0-7.644-1.238c-2.675.2-5.348.321-8.023.491-.473.038-.935.151-1.483.246.293,6.009.576,11.9.851,17.755a10.523,10.523,0,0,0,5.991.775c.7-.1,1.427.01,2.116-.1a34.145,34.145,0,0,0,4.942-.935,21.689,21.689,0,0,0,4.621-2.041,8.958,8.958,0,0,0,2.532-2.429,10.984,10.984,0,0,0,1.163-2.7" fill="#001d33"/>
    <path id="Path_994" data-name="Path 994" d="M223.808,287.814a37.441,37.441,0,0,1-.832,19.135,40.563,40.563,0,0,1-7.134,13.55,13.767,13.767,0,0,1-7.663,5.235c-3.7.907-7.446,1.493-11.169,2.192a5.376,5.376,0,0,1-2.286-.189,40.723,40.723,0,0,1-13.055-6.3,19.087,19.087,0,0,1-5.084-5.566c-1.228-2.041-2.637-3.987-3.714-6.1a20.012,20.012,0,0,1-2.328-11.188c.189-1.956.066-3.94.18-5.906a19.443,19.443,0,0,1,.548-4.781c1.219-3.8,1.766-7.843,3.95-11.3.038-2.327,1.937-3.269,3.345-4.592,3.21-3.023,7.124-4.668,11.254-5.933,1.19-.369,2.314-.983,3.5-1.351,1.257-.4,2.552-.652,3.742-.945,2.192.388,4.206.689,6.209,1.1,4.583.927,9.118,2.136,12.775,5.2a17.536,17.536,0,0,1,6.151,8.863c.6,2.183.785,4.4,1.163,6.6.132.766.273,1.531.435,2.287m-1.427,5.868c-.482-3.552-.917-7.115-1.465-10.649a7.089,7.089,0,0,0-1.739-3.8,7.324,7.324,0,0,1-1.275-1.937,6.968,6.968,0,0,0-3.96-3.612,30.481,30.481,0,0,0-4.346-1.578c-2.683-.747-5.367-1.512-8.249-.963a15.782,15.782,0,0,1-3.562-.227,15.694,15.694,0,0,0-3.572-.114,23.805,23.805,0,0,0-8.523,2.948,49.573,49.573,0,0,1-4.639,2.505,4.567,4.567,0,0,0-2.315,2.334c-1.059,2.3-2.167,4.583-3.222,6.879a4.793,4.793,0,0,0-.529,1.6c-.123,3.156-.368,6.331-.236,9.487.208,4.782,1.9,9.166,3.837,13.5a26.623,26.623,0,0,0,13.2,13.4,11.776,11.776,0,0,0,6.983,1.087,22.643,22.643,0,0,0,10.658-4.328c1.654-1.322,3.279-2.683,4.97-3.959a12.506,12.506,0,0,0,5.027-8.249c.151-.9.407-1.786.643-2.674a66.057,66.057,0,0,0,2.314-11.661" fill="#001d33"/>
    <path id="Path_995" data-name="Path 995" d="M220.915,283.033c.548,3.532.982,7.1,1.465,10.649a65.968,65.968,0,0,1-2.315,11.661c-.236.888-.491,1.776-.642,2.674a12.514,12.514,0,0,1-5.027,8.249c-1.691,1.275-3.317,2.637-4.97,3.959a22.642,22.642,0,0,1-10.664,4.327,11.782,11.782,0,0,1-6.983-1.087,26.627,26.627,0,0,1-13.2-13.4c-1.936-4.334-3.628-8.721-3.836-13.5-.133-3.156.113-6.331.236-9.487a4.793,4.793,0,0,1,.529-1.6c1.058-2.3,2.167-4.576,3.222-6.879a4.569,4.569,0,0,1,2.314-2.334,49.463,49.463,0,0,0,4.64-2.505,23.806,23.806,0,0,1,8.523-2.948,15.7,15.7,0,0,1,3.572.114,15.842,15.842,0,0,0,3.562.227c2.882-.549,5.566.217,8.249.963a30.525,30.525,0,0,1,4.346,1.578,6.971,6.971,0,0,1,3.96,3.612,7.325,7.325,0,0,0,1.275,1.937,7.089,7.089,0,0,1,1.739,3.8" fill="#d1d1d3"/>
    <path id="Path_1005" data-name="Path 1005" d="M166.005,269.747a26.891,26.891,0,0,0,.417-3.136,1.314,1.314,0,0,0-.927-1.611,1.375,1.375,0,0,0-.263-.043,30.189,30.189,0,0,0-3.732-.6c-1.89-.047-3.853.463-5.67.142-2.815-.5-5.47.227-8.192.378-2.523.132-5.037.519-7.569.558-2.8.038-5.6-.189-8.41-.284-1.39-.047-1.72.256-1.686,1.721.057,1.757.218,3.514.274,5.272.047,1.474-.028,2.948.028,4.422.151,3.874.435,7.739.5,11.613.113,6.548.028,13.105.16,19.654.057,2.457.473,4.885.642,7.342q.043.523.057,1.049c.123,3.562.029,7.134.029,11a19.7,19.7,0,0,0,2.872.52c3.459.094,6.936-.1,10.366.217a4.094,4.094,0,0,0,3.817-1.379,1.969,1.969,0,0,0,.661-1.881,47.333,47.333,0,0,1-1.077-11.755,6.558,6.558,0,0,0-.028-1.058c-.453-3.9-.926-7.8-1.364-11.707a3.784,3.784,0,0,1,.227-1.077c.519-.038,1.02-.114,1.5-.151a5.261,5.261,0,0,1,.87,0c4.365.425,8.541-.52,12.7-1.673,1.04-.283,1.3-.86,1.143-1.881a33.864,33.864,0,0,1-.331-3.789c-.065-1.984-.907-2.995-2.91-2.958-2.107.048-4.2.331-6.312.473a43.545,43.545,0,0,1-6.766.1,16.541,16.541,0,0,1-.15-1.846c.122-3.241.255-6.483.425-9.724.085-1.568.586-1.984,2.344-1.993,4.46-.02,8.909-.076,13.361.037a3.473,3.473,0,0,0,3.411-1.644,5.631,5.631,0,0,1-.426-4.3" fill="#001d33"/>
    <path id="Path_174" data-name="Path 174" d="M459.961,215.182a8.337,8.337,0,0,0,1.187,3.8c.984,2.35,2.431,4.33,4.952,5.106,3.577,1.242,8.285.915,10.689-2.3,5.811-6.336,4.875-12.162,1.976-19.586-1.731-3.9-6.112-5.719-9.711-7.515-7.288-2.95-12.821-9.791-13.389-17.762-.326-3.185-.45-6.4.789-9.4a14.613,14.613,0,0,1,5.173-5.826c7.247-4.03,15.528-1.993,17.267-1.218,7.287,3.247,7.975,6.269,8.872,11.762.094.581.246,3.569.277,4.158.039.753.993.315,2.416.238,1.465-.079,3.992-.1,4.067.519.138,1.144.134,3.436.131,4.59-.048.4-1.917.248-2.679.236-5.3.069-14.7.423-15.143-.2s-.139-2.632-.194-3.921c-.03-.692-.083-1.228.968-1.254,1.915-.047,5.631.482,5.652-.008.267-6.421-.644-9.114-5.159-11.887-3.119-1.915-9.98-.95-12.678,1.671-2.11,2.049-2.548,4.7-2.571,7.846-.021,2.955.468,6.024,2.674,8.206,4.96,5.87,12.98,7.944,17.758,13.939a26.455,26.455,0,0,1,3.348,6.8,27.261,27.261,0,0,1,1.489,9.739c-.4,6.492-2.733,12.4-5.98,14.574a21.007,21.007,0,0,1-13.664,4.119c-5.307-.031-12.456-2.428-13.687-5.267-1.106-2.55-2.481-4.865-3.475-7.393-.237-.778-.424-2.795-1.055-3.3-.4-.317-6.085.3-6.218-.357-.363-1.789.033-4.154,0-5.98-.012-.648,2.56-.442,3.789-.616,3.762.187,6.785-.136,11.269-.16,2.312-.012,5.623-.041,7.714-.135a23.208,23.208,0,0,1,.634,6.337C467.312,215.137,461.622,214.829,459.961,215.182Z" fill="#001d33"/>
  </g>
</svg>
