<svg xmlns="http://www.w3.org/2000/svg" width="380.183" height="485.636" viewBox="0 0 380.183 485.636">
  <g id="Group_19" data-name="Group 19" transform="translate(-72.86 -67.996)">
    <g id="Group_18" data-name="Group 18">
      <g id="Group_17" data-name="Group 17">
        <g id="Layer_1" data-name="Layer 1" transform="translate(-545.904)">
          <path id="Path_109" data-name="Path 109" d="M998.44,292.881c1.01,1.69.48,3.16-1.3,3.58a3.384,3.384,0,0,1-.9.06c-3.37-.07-6.63.79-9.93,1.46-1.89.38-3.86.28-5.78.52-1.4.18-2.77.6-4.17.8-1.99.28-3.98.55-5.98.65-2.75.14-5.51.12-8.27.16-2.19.02-2.79-.38-3.15-2.83-.29-1.97-.19-4.01-.32-6.02-.41-6.6-.89-13.2-1.27-19.81-.08-1.45.16-2.92.21-4.39.22-6.38.27-12.77.67-19.13.34-5.54,1.06-11.05,1.65-16.56a2.274,2.274,0,0,1,1.96-2.28,19.576,19.576,0,0,1,5.51-.46,46.271,46.271,0,0,0,11.39-.34,77.133,77.133,0,0,1,9.13-.73c1.62-.08,3.24.05,4.86.11,1.22.05,1.61.92,1.78,2.1a21.748,21.748,0,0,0,.69,3,2.182,2.182,0,0,1-2.09,2.74,31.369,31.369,0,0,1-3.36.02c-4.31.01-8.61-.07-12.92.06-2.44.08-4.88.55-7.33.75a12.522,12.522,0,0,1-2.64-.27c-1.52-.19-2.43.54-2.21,2.19.65,4.8-.04,9.6.17,14.4.1,2.05.3,2.25,2.13,1.95,3.67-.59,7.34-1.17,11.03-1.65,3.07-.39,6.15-.76,9.24-.9a59.335,59.335,0,0,1,6.92.3,2.029,2.029,0,0,1,1.31.78c1.14,1.51.37,4.74-1.34,5.39a14.282,14.282,0,0,1-3.49.74q-6.225.765-12.45,1.4c-2.15.23-4.31.35-6.47.54-1.6.14-3.21.26-4.8.47-2.04.28-2.55.86-2.77,3.07-.12,1.14-.14,2.29-.2,3.41.57,7.34.65,14.71,2.21,21.91.48,2.24.49,2.31,2.42,2.18,4.46-.3,8.92-.52,13.36-.93a80.315,80.315,0,0,0,12.63-1.67,2.083,2.083,0,0,1,2.64,1.2C997.57,291.551,998.03,292.2,998.44,292.881Z" fill="#001d33"/>
          <path id="Path_110" data-name="Path 110" d="M995.31,532.191c1.66,2.02,2.91,4.32,2.72,7.08-.22,3.22-.74,6.43-.75,9.65,0,3.4-1.43,4.95-4.83,4.66-1.49-.13-2.98-.11-4.47-.1-2.23.02-4.45.1-6.68.11-4.97.02-9.94.09-14.9-.02-3.44-.07-6.88-.4-10.31-.66-2.02-.15-4.04-.46-6.07-.55-5.01-.22-10.03-.28-15.04-.56-2.93-.17-5.84-.71-8.77-.95a25.054,25.054,0,0,0-4.24.09c-1.64.13-2.89-.35-3.27-2.04a43.58,43.58,0,0,1-1.38-7.45c-.22-4.84-.16-9.71-.05-14.55.11-5.38.53-10.76.56-16.14.04-5.67-.21-11.35-.35-17.03q-.135-5.175-.31-10.33c-.19-5.07-.45-10.14-.58-15.21-.06-2.33.12-4.66.15-6.99.04-3.45.04-6.9.06-10.36.03-4.87.17-9.75.03-14.62-.06-2.08-.86-4.12-1.1-6.21-.29-2.55.27-2.9,2.89-2.88,3.75.03,7.5-.14,11.25-.23,2.74-.06,5.48-.17,8.22-.19,6.9-.03,13.8-.11,20.69.02,4.68.09,9.35.46,14.02.78a117.828,117.828,0,0,0,18.88-.04c1.84-.17,2.39.21,2.6,2.06a36.88,36.88,0,0,1-.36,12.7,2.613,2.613,0,0,1-2.5,2.24c-3.19.4-6.37.86-9.57,1.18-4.64.46-9.3.78-13.94,1.22a118.833,118.833,0,0,1-25.85.01,13.02,13.02,0,0,0-1.66.11,242.829,242.829,0,0,0,.79,28.01c5.44-.27,10.39-.49,15.33-.75,4.35-.23,8.69-.7,13.04-.74,5.49-.04,10.98.25,16.47.38,4.97.12,5.87,1.29,5.97,6.73.08,4.06-.41,8.14-.69,12.21-.11,1.57-.34,3.13-.55,5.04-15.94-.46-31.49-.95-47.46-2.37a37.692,37.692,0,0,0-.9,5.25c-.12,3.65.1,7.31.01,10.97-.12,5.07-.16,10.16-.71,15.2a30.75,30.75,0,0,0,.01,7.24c2.85-.07,5.58.04,8.27-.26,6.89-.77,13.79-.57,20.7-.54,4.55.02,9.1-.65,13.65-1.06,2.83-.26,5.64-.68,8.47-.86A3.349,3.349,0,0,1,995.31,532.191Zm-3.49,16.6c.47-.05,1.27-.89,1.24-1.32-.21-2.93-.58-5.84-.96-8.76a1.679,1.679,0,0,0-1.79-1.67c-3.04-.11-6.1-.58-9.12-.43-5.88.3-11.73.74-17.63.78-7.57.05-15.14.92-22.71,1.48-2.63.2-3.11-.24-3.11-3.02,0-1.93-.07-3.86-.19-5.78-.3-4.75-1-9.51-.9-14.25.16-7.31.88-14.61,1.31-21.92.09-1.61.8-2.47,2.4-2.52.8-.02,1.61.07,2.41.12,2.32.11,4.63.3,6.94.33,2.53.04,5.08-.21,7.6-.07,2.73.16,5.43.79,8.16.91,4.67.21,9.35.21,14.02.23,2.72.01,5.44-.11,8.19-.16a4.211,4.211,0,0,0,.46-1.23c.05-3.55.1-7.1.06-10.65-.01-1.52-1.13-1.71-2.36-1.71-5.17.03-10.35-.09-15.51.09-3.85.14-7.69.76-11.53-.12a26.839,26.839,0,0,0-12.06-.42,49,49,0,0,1-6.63.81,8.174,8.174,0,0,1-2.33-.53c-.05-.97-.11-1.78-.13-2.58-.09-3.25-.15-6.49-.23-9.74-.2-7.3-.44-14.59-.6-21.89-.05-1.91.37-2.19,2.37-2.14,1.22.02,2.44.03,3.65-.05,5.26-.35,10.5-.81,15.76-1.07,3.95-.2,7.93.05,11.87-.26a116.694,116.694,0,0,1,16.72-.58c.67.04,1.36-.03,2.42-.05-.1-3.09-.19-5.96-.28-8.89a19.858,19.858,0,0,0-2-.22c-3.05-.02-6.12.23-9.13-.06-3.91-.38-7.71.36-11.52.78-5.94.65-11.85,1.53-17.87,1.13-3.02-.19-6.08.27-9.11.18-3.53-.11-7.05-.45-10.56-.79-2.56-.24-5.02-1.79-7.82-.48a5.152,5.152,0,0,0-.23,1.44c.5,4.09-.37,8.08-.79,12.1a19.9,19.9,0,0,0-.09,2.44c.08,3.45.21,6.89.27,10.34.1,5.28.11,10.56.23,15.83.09,3.96.38,7.91.44,11.87.05,3.94-.17,7.88-.11,11.82.08,4.87.37,9.74.51,14.61.12,4.06-.04,8.14.3,12.18a82.374,82.374,0,0,1,.31,13.69c-.22,2.61-.18,5.23-.28,8.27,1.89.12,3.29.22,4.7.3,7.31.37,14.57,1.66,21.93.83a31.714,31.714,0,0,1,6.08-.2c5.95.47,11.87,1.22,17.82,1.65a87.237,87.237,0,0,0,9.43.01C985.17,549.341,988.5,549.1,991.82,548.791Z" fill="#001d33"/>
          <path id="Path_111" data-name="Path 111" d="M997.93,403.731c.13,2.12-.12,2.26-2.21,2.49-4.18.47-8.36.99-12.54,1.48-.64.07-1.28.05-1.92.07-3.26.12-6.53.31-9.79.36-5.5.08-10.99.03-16.48.15-2.38.05-4.75.4-7.13.58a26.075,26.075,0,0,1-4.04.18c-1.42-.12-2.78-.48-4.23.05-1.03.38-1.64-.35-1.87-1.32-.64-2.7-1.3-5.39-1.88-8.1-.3-1.4-.46-2.83-.64-4.24-.15-1.25-.26-2.51-.35-3.77-.12-1.5-.27-3.01-.3-4.52-.09-4.2-.04-8.4-.21-12.6-.02-.53-.04-1.05-.08-1.58l2.01-.1c.2,4.17.49,8.34.75,12.52.21,3.33.74,6.66.72,9.99-.01,3.17,1.16,6.08,1.47,9.15.01.13.18.25.46.59,1.94-.16,3.84-.43,5.74-.46,4.39-.09,8.82-.44,13.15.03a47.817,47.817,0,0,0,9.71.31c3.73-.33,7.48-.28,11.23-.44,4.72-.2,9.27-1.37,13.85-2.43a10.184,10.184,0,0,0,1.62-.69,34.078,34.078,0,0,0-.43-6.56l2.34-.39A92.493,92.493,0,0,1,997.93,403.731Z" fill="#001d33"/>
          <path id="Path_112" data-name="Path 112" d="M996.88,394.481l-2.34.39a24.507,24.507,0,0,0-.8-3.31,7.528,7.528,0,0,0-1.59-.07c-2.95.5-5.91,1.02-8.85,1.58-3.82.73-7.57,1.86-11.54,1.64-6.28-.36-12.35.9-18.38,2.47a5.065,5.065,0,0,1-2-.13c-.45-.07-.87-.34-1.32-.43a4.224,4.224,0,0,1-3.45-4.86,35.563,35.563,0,0,0,.32-4.73c.04-1.52,0-3.04-.08-4.55-.18-3.17-.44-6.34-.58-9.51-.13-2.62-.22-5.25-.13-7.86a2.3,2.3,0,0,1,1.3-1.73,39.028,39.028,0,0,1,7.02-1.12c4.37-.17,8.76.07,13.14-.1,2.07-.08,4.13-.22,6.19-.39l.24,2.58c-1.72.15-3.43.34-5.15.55-1.49.19-3.04-.07-4.55.07-4.26.41-8.57.34-12.77,1.47-1.19.32-1.65.77-1.59,1.9a50.045,50.045,0,0,0,.31,5.2c.53,3.62,1.28,7.2,1.18,10.9a41.914,41.914,0,0,0,.53,5.59c3.6-.3,6.74-.73,9.89-.77a67.631,67.631,0,0,1,9.54.51,19.411,19.411,0,0,0,5.4-.43,6.122,6.122,0,0,1,2.81-.1,4.956,4.956,0,0,0,3.46-.1,13.092,13.092,0,0,1,3.04-.53c2.59-.14,5.19-.19,7.78-.24a1.8,1.8,0,0,1,2.06,1.5C996.32,391.4,996.62,392.941,996.88,394.481Z" fill="#001d33"/>
          <path id="Path_113" data-name="Path 113" d="M996.24,83.391c.11,1.43-.62,2.21-2.38,2.34a73.1,73.1,0,0,1-10.67.46,24.616,24.616,0,0,0-4.7.16c-2.05.25-2.55.9-2.41,2.97.24,3.42.66,6.83.83,10.26.16,3.28.07,6.57.14,9.86.07,2.74.19,5.49.34,8.24.04.76.09,1.51.14,2.27l-2.37.17q-.285-3.675-.59-7.35a5.367,5.367,0,0,0-.35-1.29,15.244,15.244,0,0,1-.8-7.27,7.725,7.725,0,0,0-.08-1.79c-.25-3.94-.49-7.88-.78-11.82-.12-1.71-.37-3.41-.5-5.12-.12-1.4.47-2.14,1.85-2.2,1.71-.07,3.43-.04,5.15.03,2.23.09,4.46.45,6.68.37,2.56-.08,5.24.28,7.73-1.38-.07-3.16.04-6.4-1.18-9.28-2.4.04-4.54.12-6.68.12-4.59-.02-9.16.84-13.76.16a2,2,0,0,0-.35-.02l-.04-2.11c1.71-.02,3.43,0,5.16-.04,3.78-.1,7.55-.6,11.33-.9.52-.05,1.04-.01,1.57-.03,1.69-.08,3.38-.17,5.41-.27a6.979,6.979,0,0,1,.38,1.49C995.64,75.411,995.94,79.4,996.24,83.391Z" fill="#001d33"/>
          <path id="Path_114" data-name="Path 114" d="M994.54,394.871a34.078,34.078,0,0,1,.43,6.56,10.184,10.184,0,0,1-1.62.69c-4.58,1.06-9.13,2.23-13.85,2.43-3.75.16-7.5.11-11.23.44a47.817,47.817,0,0,1-9.71-.31c-4.33-.47-8.76-.12-13.15-.03-1.9.03-3.8.3-5.74.46-.28-.34-.45-.46-.46-.59-.31-3.07-1.48-5.98-1.47-9.15.02-3.33-.51-6.66-.72-9.99-.26-4.18-.55-8.35-.75-12.52-.06-1.4-.11-2.79-.15-4.18-.08-3.17.27-6.36.48-9.54.35-5.15.78-10.3.13-15.46a3.243,3.243,0,0,1-.1-1.4c1.16-3.26-.19-6.44-.22-9.66-.02-2.84-.2-5.68-.32-8.66,3.42-.38,6.67-1.2,9.86-.98,3.98.28,7.94.38,11.91.29,3.1-.07,6.19-.38,9.29-.39,2.46,0,4.93.23,7.38.47,1.39.14,1.59.54,1.48,1.88-.25,2.93-.48,5.86-.72,8.87-2.64.71-5.21-.17-7.8-.26-.29-.01-.57-.02-.86-.02-.41-.02-.82-.03-1.23-.04q-7.515-.09-15.04-.17c-1.83-.02-3.65,0-5.42,0a5.358,5.358,0,0,0-1.06,5.16,22.414,22.414,0,0,1,.14,4.03c.23,3.73.51,7.46.78,11.32,2.07,1.25,4.32.85,6.6.51,2.03-.31,4.08-.57,6.14-.69,3.26-.2,6.52-.34,9.79-.39,4.71-.06,9.42-.01,14.28-.01a13.655,13.655,0,0,1,.96,7.08,18.086,18.086,0,0,1-2.59.6c-2.07.18-4.13.38-6.19.55s-4.12.31-6.19.39c-4.38.17-8.77-.07-13.14.1a39.028,39.028,0,0,0-7.02,1.12,2.3,2.3,0,0,0-1.3,1.73c-.09,2.61,0,5.24.13,7.86.14,3.17.4,6.34.58,9.51.08,1.51.12,3.03.08,4.55a35.563,35.563,0,0,1-.32,4.73,4.224,4.224,0,0,0,3.45,4.86c.45.09.87.36,1.32.43a5.065,5.065,0,0,0,2,.13c6.03-1.57,12.1-2.83,18.38-2.47,3.97.22,7.72-.91,11.54-1.64,2.94-.56,5.9-1.08,8.85-1.58a7.528,7.528,0,0,1,1.59.07A24.507,24.507,0,0,1,994.54,394.871Z" fill="#d9dadc"/>
          <path id="Path_115" data-name="Path 115" d="M992.29,73.021c1.22,2.88,1.11,6.12,1.18,9.28-2.49,1.66-5.17,1.3-7.73,1.38-2.22.08-4.45-.28-6.68-.37-1.72-.07-3.44-.1-5.15-.03-1.38.06-1.97.8-1.85,2.2.13,1.71.38,3.41.5,5.12.29,3.94.53,7.88.78,11.82a7.725,7.725,0,0,1,.08,1.79,15.244,15.244,0,0,0,.8,7.27,5.367,5.367,0,0,1,.35,1.29q.3,3.675.59,7.35c.19,2.45.37,4.9.51,7.35.1,1.66-.23,1.96-1.68,1.99-2.29.04-4.58.01-7.12.01-.19-2.59-.37-4.89-.53-7.19-.24-3.56-.51-7.12-.71-10.69-.04-.74-.08-1.49-.12-2.23-.1-2.01.11-4.03.1-6.04-.02-2.8-.17-5.61-.16-8.41.01-2.83.09-5.66.27-8.48.14-2.03-.25-2.66-2.43-2.73-1.83-.06-3.67.06-5.51.13-3.34.11-6.69.28-10.04.35-1.77.04-3.55-.08-5.43-.13-.51-3.02-.98-5.87-1.46-8.74a3.137,3.137,0,0,1,2.61-1.11c2.15.13,4.31.22,6.46.42a97.57,97.57,0,0,0,12.91-.11,67,67,0,0,0,7.25-1.05,9.846,9.846,0,0,1,1.42-.18,2,2,0,0,1,.35.02c4.6.68,9.17-.18,13.76-.16C987.75,73.141,989.89,73.061,992.29,73.021Z" fill="#d9dadc"/>
          <path id="Path_116" data-name="Path 116" d="M993.06,547.471c.03.43-.77,1.27-1.24,1.32-3.32.31-6.65.55-9.98.66a87.237,87.237,0,0,1-9.43-.01c-5.95-.43-11.87-1.18-17.82-1.65a31.714,31.714,0,0,0-6.08.2c-7.36.83-14.62-.46-21.93-.83-1.41-.08-2.81-.18-4.7-.3.1-3.04.06-5.66.28-8.27a82.374,82.374,0,0,0-.31-13.69c-.34-4.04-.18-8.12-.3-12.18-.14-4.87-.43-9.74-.51-14.61-.06-3.94.16-7.88.11-11.82-.06-3.96-.35-7.91-.44-11.87-.12-5.27-.13-10.55-.23-15.83-.06-3.45-.19-6.89-.27-10.34a19.9,19.9,0,0,1,.09-2.44c.42-4.02,1.29-8.01.79-12.1a5.152,5.152,0,0,1,.23-1.44c2.8-1.31,5.26.24,7.82.48,3.51.34,7.03.68,10.56.79,3.03.09,6.09-.37,9.11-.18,6.02.4,11.93-.48,17.87-1.13,3.81-.42,7.61-1.16,11.52-.78,3.01.29,6.08.04,9.13.06a19.858,19.858,0,0,1,2,.22c.09,2.93.18,5.8.28,8.89-1.06.02-1.75.09-2.42.05a116.694,116.694,0,0,0-16.72.58c-3.94.31-7.92.06-11.87.26-5.26.26-10.5.72-15.76,1.07-1.21.08-2.43.07-3.65.05-2-.05-2.42.23-2.37,2.14.16,7.3.4,14.59.6,21.89.08,3.25.14,6.49.23,9.74.02.8.08,1.61.13,2.58a8.174,8.174,0,0,0,2.33.53,49,49,0,0,0,6.63-.81,26.839,26.839,0,0,1,12.06.42c3.84.88,7.68.26,11.53.12,5.16-.18,10.34-.06,15.51-.09,1.23,0,2.35.19,2.36,1.71.04,3.55-.01,7.1-.06,10.65a4.211,4.211,0,0,1-.46,1.23c-2.75.05-5.47.17-8.19.16-4.67-.02-9.35-.02-14.02-.23-2.73-.12-5.43-.75-8.16-.91-2.52-.14-5.07.11-7.6.07-2.31-.03-4.62-.22-6.94-.33-.8-.05-1.61-.14-2.41-.12-1.6.05-2.31.91-2.4,2.52-.43,7.31-1.15,14.61-1.31,21.92-.1,4.74.6,9.5.9,14.25.12,1.92.19,3.85.19,5.78,0,2.78.48,3.22,3.11,3.02,7.57-.56,15.14-1.43,22.71-1.48,5.9-.04,11.75-.48,17.63-.78,3.02-.15,6.08.32,9.12.43a1.679,1.679,0,0,1,1.79,1.67C992.48,541.631,992.85,544.541,993.06,547.471Z" fill="#d9dadc"/>
          <path id="Path_117" data-name="Path 117" d="M987.13,360.571a14.684,14.684,0,0,1,.28,2.01,11.9,11.9,0,0,1-6.69,1.57,64.99,64.99,0,0,0-6.69.2l-.24-2.58c2.06-.17,4.12-.37,6.19-.55a18.086,18.086,0,0,0,2.59-.6,13.655,13.655,0,0,0-.96-7.08c-4.86,0-9.57-.05-14.28.01-3.27.05-6.53.19-9.79.39-2.06.12-4.11.38-6.14.69-2.28.34-4.53.74-6.6-.51-.27-3.86-.55-7.59-.78-11.32a22.414,22.414,0,0,0-.14-4.03,5.358,5.358,0,0,1,1.06-5.16c1.77,0,3.59-.02,5.42,0q7.515.075,15.04.17c.41.01.82.02,1.23.04l-.07,2.38c-.86,0-1.74.09-2.59.12-2.07.07-4.13.18-6.2.34-2.05.16-4.1.4-6.16.62-1.57.17-3.13.36-4.81.55-.73,4.69.81,8.94,2.52,13.5,2.5-.22,5.08-.52,7.68-.66,3.42-.19,6.84-.23,10.27-.4,3.49-.17,6.99-.39,10.48-.64a6.852,6.852,0,0,0,4.77-2.48,7.117,7.117,0,0,1,1.28,1.72c.65,2.05,1.14,4.15,1.72,6.21C986.04,356.921,986.63,358.731,987.13,360.571Z" fill="#001d33"/>
          <path id="Path_118" data-name="Path 118" d="M980.45,334.361c.76,1.23-.1,2.13-1.55,2.37a26.1,26.1,0,0,1-10.63-.35,6.948,6.948,0,0,0-1.71-.18l.07-2.38c.29,0,.57.01.86.02,2.59.09,5.16.97,7.8.26.24-3.01.47-5.94.72-8.87.11-1.34-.09-1.74-1.48-1.88-2.45-.24-4.92-.47-7.38-.47-3.1.01-6.19.32-9.29.39-3.97.09-7.93-.01-11.91-.29-3.19-.22-6.44.6-9.86.98.12,2.98.3,5.82.32,8.66.03,3.22,1.38,6.4.22,9.66a3.243,3.243,0,0,0,.1,1.4c.65,5.16.22,10.31-.13,15.46-.21,3.18-.56,6.37-.48,9.54.04,1.39.09,2.78.15,4.18l-2.01.1c-.18-4.16-.51-8.33-.71-12.49-.12-2.55-.03-5.11-.16-7.66-.17-3.26-.47-6.51-.71-9.76-.17-2.46-.3-4.93-.51-7.39-.35-3.97-.76-7.92-1.11-11.89-.18-2.1.02-2.35,2.03-2.71,2.66-.49,5.32-1.04,8-1.36a26.581,26.581,0,0,1,3.96.25,32.344,32.344,0,0,0,4.06,0c4.36-.37,8.71-.9,13.07-1.21a20.627,20.627,0,0,1,4.48.44c2.59.4,5.16.89,7.74,1.35.78.13,1.57.25,2.34.42,2.01.45,2.06.86,1.98,2.9a27.563,27.563,0,0,0,.62,5.92C979.62,331.3,979.53,332.881,980.45,334.361Z" fill="#001d33"/>
          <path id="Path_119" data-name="Path 119" d="M978.61,128.981c.47,2.21-.52,3.61-2.74,3.69-2.28.08-4.57.16-6.85.34a16.9,16.9,0,0,0-3.06.6c-1.07.3-1.6-.04-2.05-1.06a9.927,9.927,0,0,1-.89-4.75,141.43,141.43,0,0,0,.2-16.08l2.41-.13c.2,3.57.47,7.13.71,10.69.16,2.3.34,4.6.53,7.19,2.54,0,4.83.03,7.12-.01,1.45-.03,1.78-.33,1.68-1.99-.14-2.45-.32-4.9-.51-7.35l2.37-.17c.09,1.32.21,2.64.35,3.95A48.161,48.161,0,0,0,978.61,128.981Z" fill="#001d33"/>
          <path id="Path_120" data-name="Path 120" d="M971.46,71.171l.04,2.11a9.846,9.846,0,0,0-1.42.18,67,67,0,0,1-7.25,1.05,97.57,97.57,0,0,1-12.91.11c-2.15-.2-4.31-.29-6.46-.42a3.137,3.137,0,0,0-2.61,1.11c.48,2.87.95,5.72,1.46,8.74,1.88.05,3.66.17,5.43.13,3.35-.07,6.7-.24,10.04-.35,1.84-.07,3.68-.19,5.51-.13,2.18.07,2.57.7,2.43,2.73-.18,2.82-.26,5.65-.27,8.48-.01,2.8.14,5.61.16,8.41.01,2.01-.2,4.03-.1,6.04.04.74.08,1.49.12,2.23l-2.41.13q-.15-2.79-.52-5.59c-.42-3.17-.45-6.39-.65-9.59-.16-2.6-.28-5.21-.49-7.81a15.593,15.593,0,0,0-.59-2.38c-3.78.14-7.43.29-11.07.41-3.55.12-7.09.21-10.94.33a11.562,11.562,0,0,1-.54-2.16c-.2-3.27-.32-6.56-.48-9.84a13.993,13.993,0,0,0-.2-1.55c-.25-1.36.14-1.89,1.52-2.04a4.511,4.511,0,0,1,.9,0c3.1.28,6.2.6,9.3.84a39.539,39.539,0,0,0,4.49.08c3.12-.1,6.33.14,9.35-.51A41.711,41.711,0,0,1,971.46,71.171Z" fill="#001d33"/>
          <path id="Path_121" data-name="Path 121" d="M944.99,271.221c.14,2.53.22,5.07.19,7.61-.04,3.66-.17,7.32-.34,10.98-.16,3.31.11,6.7-1.96,10.2-1.63-.09-3.54-.14-5.44-.33a20,20,0,0,0-7.3.6,10.007,10.007,0,0,1-3.74,0c-.35-.04-.89-.87-.85-1.29.4-4.04-.13-8.06-.23-12.08-.08-3.28.11-6.56.07-9.84-.03-2.3-.26-4.59-.39-6.82-3.18-.03-6.28-.05-9.32-.07-.06,4.44-.19,8.8-.15,13.15a2.272,2.272,0,0,0,.01.26l-2.33.05c-.08-3.59-.41-7.18-.4-10.78.01-2-.09-4-.14-5.83a2.511,2.511,0,0,1,2.54-.14,8.807,8.807,0,0,0,4.1.53c2.78-.66,5.46-.22,8.24-.11a6.156,6.156,0,0,1,.49,1.56c.15,5.11.7,10.27.24,15.33-.38,4.11.58,7.99.49,12.07,3.39.6,10.12-.44,11.96-1.73a16.485,16.485,0,0,0-.18-2.23c-1.14-5.31-1-10.67-.68-16.05.06-1.04.07-2.09.08-3.13.03-5.96-.75-11.91-.25-17.89a43.714,43.714,0,0,0-.17-7.14c-.26-3.26-.78-6.5-1.03-9.75-.29-3.84-.42-7.69-.63-11.63-2.54-.15-4.92-.32-7.3-.42a1.5,1.5,0,0,0-1.75,1.58c-.05,1.12-.3,2.23-.33,3.35q-.285,9.285-.49,18.58c-.02,1.1.01,2.21.04,3.31l-2.46-.01c-.07-2.48-.17-4.75-.12-7,.09-3.95.41-7.88.48-11.83.04-2.74-.15-5.5-.31-8.25a2.43,2.43,0,0,1,2.17-2.84c3.57-.19,7.15-.32,10.72-.37a18.153,18.153,0,0,1,3.21.48,9.178,9.178,0,0,1,.18,1.14c.06,4.62,0,9.25.19,13.87.12,2.81.65,5.6.95,8.41.37,3.48.75,6.96,1.02,10.44Q944.61,264.181,944.99,271.221Z" fill="#001d33"/>
          <path id="Path_122" data-name="Path 122" d="M928.04,253.121c.03.98.06,1.97.05,2.95-.01,1.51-.27,1.72-1.69,1.6-1.11-.09-2.22-.27-3.34-.33-2.67-.16-5.34-.58-7.98.34a8.95,8.95,0,0,1-2.64.35c-1.41.03-1.87-.44-2.01-1.79-.1-.96-.25-1.91-.36-2.87a70.928,70.928,0,0,1-.82-7.09c-.1-4.24.11-8.5.08-12.75-.01-2.04-.24-4.08-.36-5.76-2.48-.15-4.6-.27-6.58-.39.01,2,.04,3.71.04,5.42a87.659,87.659,0,0,0-.01,9.17c.6,6.05-.16,12.07.02,18.11.12,3.72-.09,7.45-.05,11.18.06,5.37.19,10.73.34,16.1.08,2.6.24,5.21.41,7.81.09,1.36.38,1.56,1.81,1.75,1.18.15,2.34.46,3.52.58,1.72.19,3.49.62,5.17-.2-.2-3.06-.73-5.97-.52-8.83.12-1.61.13-3.22.09-4.83l2.33-.05c.04,3.56.27,7.13.39,10.68.05,1.57.09,3.14.05,4.7-.03,1.34-.62,1.87-1.82,1.43a5.3,5.3,0,0,0-2.82-.04c-1.02.17-2.08.12-3.11.2-.93.08-1.95-.31-2.71.62-.14.17-.56.15-.85.17-1.41.06-2.82.19-4.23.13a8.558,8.558,0,0,1-2.14-.78,7.991,7.991,0,0,0,1.37-5.86,8.254,8.254,0,0,1,.06-1.79c.62-6.79.3-13.58.2-20.37-.1-6.56-.08-13.13-.31-19.68-.2-5.42.23-10.89-1.01-16.26a22.84,22.84,0,0,1-.16-4.69c-.04-2.67-.05-5.34-.07-8.1a4.975,4.975,0,0,1,3.77-.2,31.124,31.124,0,0,0,7.05.97c2.16.16,2.49.51,2.61,2.65.27,4.83.73,9.64.98,14.47.13,2.38-.07,4.77-.04,7.16.02,1.83.15,3.66.24,5.65,4.41-.53,8.56.01,12.61-.66-.01-.29-.01-.59-.02-.88Z" fill="#001d33"/>
          <path id="Path_123" data-name="Path 123" d="M924.39,71.361c1.6-.23,2.32.37,2.06,1.96-.2,1.28-.06,2.73-1.38,3.79a5.07,5.07,0,0,0-4.13-1.05c-1.12.16-1.85.51-1.76,1.79.07,1.11.16,2.22.13,3.33-.07,2.83-.24,5.66-.32,8.49-.05,1.64-.04,3.28.01,4.92.05,1.86.22,3.72.25,5.57.06,3.13.08,6.25.08,9.37,0,2.82-.04,5.64-.07,8.46-.03,2.47-.19,4.93-.07,7.39a36.762,36.762,0,0,0,.87,4.57c.29,1.51-.52,2.37-1.95,1.96a5.021,5.021,0,0,1-3.66-2.92,46.025,46.025,0,0,0-3.88-6.78c-3.08-4.66-6.26-9.24-9.43-13.84-2.79-4.06-5.57-8.13-8.44-12.13-1.53-2.11-3.29-4.05-4.86-6.14-2.05-2.74-4.03-5.52-6-8.31-.55-.79-.87-1.77-2.1-1.97.05,8.03-.04,15.91.19,23.78s-.49,15.77.48,23.81a38.3,38.3,0,0,0,9.67.6c1.4,1.6.72,3.38.58,5.18-.47.15-.96.5-1.29.39-2.67-.92-5.3.25-7.95.08-.52-.03-1.05-.02-1.57-.02-2.45.01-4.91-.04-7.37.05-2.32.09-2.51.02-2.97-2.18-.11-.51-.27-1.01-.35-1.53a2.314,2.314,0,0,1,2.46-2.88c.88-.03,1.76-.15,2.71-.23a16.645,16.645,0,0,0,.59-2.73c.16-3.5.25-7.01.31-10.51.05-2.83-.06-5.66.05-8.48.18-4.85.17-9.68-.06-14.53-.18-3.87-.07-7.75-.18-11.63a27.022,27.022,0,0,0-.52-4.65c-.3-1.54-.04-2.62,1.52-3.26a10.047,10.047,0,0,0,1.67-1.1c.48.39,1.14.68,1.46,1.19a105.539,105.539,0,0,0,9.6,12.58c2.32,2.7,4.91,5.17,7.34,7.78,3.15,3.39,6.18,6.83,8.25,11.08,1.72,3.53,3.9,6.83,5.86,10.24.85,1.49,1.65,3,2.49,4.49a6.145,6.145,0,0,0,1.64,2.04,12.474,12.474,0,0,0,.37-2.31c-.22-8.64-.55-17.28-.73-25.92-.09-4.24.05-8.49.14-12.73.03-1.2.2-2.38-.6-3.48-1.84.12-3.68.16-5.5.39-1.02.13-1.44-.29-1.51-1.14-.1-1.1-.19-2.27.75-2.96,2.91.2,5.69.31,8.45.6A35.445,35.445,0,0,0,924.39,71.361Z" fill="#001d33"/>
          <path id="Path_124" data-name="Path 124" d="M911.76,368.9a18.26,18.26,0,0,1,5.58,13.31c-.04,3.79-.66,7.55-3.06,10.71-1.38,1.82-2.49,3.83-4.48,5.19a15.68,15.68,0,0,1-8.55,2.69c-4.12.14-8.25-.03-12.38.02-1.87.02-3.74.24-5.61.37-.22,2.58.47,4.91-.44,7.18-1.86.26-3.68.47-5.47.78-1.06.18-1.54-.21-2.03-1.14-1-1.93-.68-4.01-.92-6.01-.63-5.44-1.13-10.9-1.67-16.34a7.216,7.216,0,0,1-.04-1.91c.08-.39.46-.97.79-1.03,2.33-.4,4.68-.7,7.29-1.07.49,2.55.95,5.01,1.45,7.64,2.8-.03,5.47.26,8.17-.24a29.422,29.422,0,0,1,5.46-.5c2.73,0,4.89-1.25,7-2.73.39-.27.67-.72,1.09-.93,2.4-1.2,2.57-3.22,2.09-5.5a11.03,11.03,0,0,0-7.58-8.52,54.221,54.221,0,0,1-15.41-7.86,58.266,58.266,0,0,1-8.79-8.4,17.306,17.306,0,0,1-2.16-3.95c-.38-.79-.47-1.71-.85-2.49-2.44-5.11.77-13.72,5.72-16.48,1.1-.62,2.03-1.54,3.14-2.16,3.67-2.03,7.37-4.04,11.63-4.62a3.439,3.439,0,0,1,1.17-.14c3.7.89,7.25-.48,10.9-.58.76-1.89-.21-3.56-.26-5.26a11.325,11.325,0,0,0-.45-1.85c-.38-1.77.63-2.85,2.37-2.36a11.859,11.859,0,0,0,5.2.12c2.64-.41,3.64.6,3.9,3.3.24,2.6.77,5.18,1.08,7.78s.51,5.23.74,7.84c.27,3.01.46,6.03.79,9.03.25,2.24-.01,2.38-2.33,2.69a16.472,16.472,0,0,1-6.11-.43c-1.62-.38-2.95-1-3.08-3.06-.11-1.74-.62-3.44-.86-5.17-.28-2.05-.83-2.76-2.91-2.61-2.76.2-5.5.67-8.25,1.07-1.1.15-2.19.4-3.28.61-4.21.79-6.53,3.56-7.65,7.49a3.2,3.2,0,0,0,.19,2.09,72.945,72.945,0,0,0,3.51,6.74,10.311,10.311,0,0,0,2.77,2.93,68.168,68.168,0,0,0,15.43,8.38C907.4,364.591,909.63,366.741,911.76,368.9Z" fill="#001d33"/>
          <path id="Path_125" data-name="Path 125" d="M901.63,542.071c.01,1.7-2.11,4.04-3.65,3.85-3.97-.49-7.73.8-11.6,1.12-7.38.61-14.73,1.55-22.11,2.19-3.59.31-7.22.24-10.84.36-2.11.07-4.23.27-6.34.22s-12.68-.76-14.34-.87a17.352,17.352,0,0,0-7.36.99c-1.61.61-2.66-.04-2.94-1.74a2.7,2.7,0,0,1-.08-.56c.16-3.23-.04-6.55.59-9.69,1.11-5.54-1.05-11.07-.89-16.62.01-.18-.13-.36-.12-.54.24-8.07.3-16.15.82-24.2.26-4.04-1.02-7.35-1.05-11.44-.04-6.48-3.05-31.62-2.5-37.83.27-3.05.78-6.02,1.28-9.02a29.511,29.511,0,0,0-.01-4.7c0-2.33.68-2.91,3.02-2.82,1.82.07,3.41,1.1,5.43.66a133.026,133.026,0,0,1,13.7-1.64c4.53-.2,9.03-.3,13.48,1.04a14.336,14.336,0,0,0,5.51.18,94.017,94.017,0,0,1,15.28-.53c2.01.1,3.95.97,6.01.63,1.56-.26,3.11-.56,4.68-.7,2.58-.24,2.75-.08,3.66,2.3.2.52.29,1.2.67,1.52,1.84,1.58,1.54,3.58,1.38,5.64-.31,4.06-.52,8.13-.82,12.83a18.581,18.581,0,0,1-3.63.56c-5.01-.16-10.01-.43-15.02-.7-7.23-.4-14.46-.89-21.69-1.23-2.21-.1-4.43.17-6.62.27-.94,2.68-.53,15.81.7,19.08,3.07-.17,6.3-.15,9.47-.58,4.33-.59,8.62-1.28,13.01-.99a13.707,13.707,0,0,0,3.32-.21c4.83-.87,9.6.01,14.37.54a18.636,18.636,0,0,0,7.44-.38,4.049,4.049,0,0,1,1.3,0c2.11,4.56,2.46,12.68.95,20.93a10.3,10.3,0,0,1-6.01,1.59c-5.17-.09-10.35.24-15.52.33-4.81.09-9.63.1-14.45.12-2.21,0-4.42-.1-6.63-.09a16.287,16.287,0,0,0-2.18.29c-1.65.22-3.3.53-4.95.62-2.48.12-2.9.37-3.07,2.91a33.829,33.829,0,0,0,.11,4.15c.12,2.41.24,4.81.42,7.21.19,2.69.48,7.5.75,10.17.26,2.46,1.03,3.2,3.53,3.4,5.94.46,11.88.97,17.83,1.26,2.67.13,5.36-.21,8.03-.33.28-.01.56-.02.84-.01,5.48.26,10.88-1.59,16.36-1.35,2.13.09,4.26.13,6.39.16,2.01.02,2.72.82,2.85,2.84.25,4.14.63,8.28.93,12.43C901.47,537.811,901.62,539.941,901.63,542.071Z" fill="#001d33"/>
          <path id="Path_126" data-name="Path 126" d="M888.451,226.951a1.765,1.765,0,0,0-1.81-1.85c-2.911-.2-5.81-.52-8.711-.52-3.95,0-7.89.22-11.839.4-1.551.07-3.09.41-4.64.4-.3,0-.61,0-.911-.02-2.31-.04-4.61-.2-6.92-.29-3.039-.11-6.1-.31-9.14-.25-4.769.1-9.529.4-14.289.59-1.75.07-2.06.45-1.631,2.2a4.55,4.55,0,0,0,.17.65c1.521,3.49.88,7.39,2.031,10.95.07.19-.05.44-.06.66-.081,1.64.32,2.08,2.019,2.05a31.091,31.091,0,0,1,9.111.85,15.4,15.4,0,0,0,3.529.4c2.141.07,4.291.05,6.43.04a27.664,27.664,0,0,0,2.89-.16c1.29-.14,2.571-.36,3.87-.54.291,2.73.161,5.34.891,7.69,1.489,4.78,1.229,9.74,2,14.59.619,3.87.3,7.89.409,11.84a38.541,38.541,0,0,0,.32,6.89,65.972,65.972,0,0,1,1.171,10.65c.11,2.22.279,4.45.48,6.66.13,1.39.69,1.96,1.789,1.76a25.808,25.808,0,0,1,9.271-.52c1.219.22,1.56-.25,1.57-1.57a10.146,10.146,0,0,0-.1-1.11c-.269-3.42-.529-6.84-.81-10.25-.18-2.23-.31-4.46-.589-6.67-.5-4-1-7.99-1.221-12.01-.089-1.49-.13-2.99-.12-4.49,0-.44.01-.89-.019-1.34q-.347-5.46-.721-10.92a13.216,13.216,0,0,0-.219-2.45,16.907,16.907,0,0,1-.3-6.66c3.051-.43,5.981-1,8.94-1.21,2.3-.16,4.7-.95,6.88.48.721-.59,1.351-1.1,1.911-1.56C889.511,237.011,888.951,231.981,888.451,226.951Z" fill="#001d33"/>
          <path id="Path_127" data-name="Path 127" d="M861.59,120.081c.72.48.49,1.42.41,2.3-.14,1.63-.38,3.26-.45,4.9-.05,1.18.13,2.37.14,3.55.01.82-.09,1.63-.16,2.64-2.03.09-3.95.27-5.87.24-4.63-.06-9.26-.45-13.88-.27-3.58.14-7.15.27-10.73.1-1.93-.09-3.86-.28-5.8-.38-1.28-.07-1.37-.84-1.31-1.85.15-2.44.33-4.89.32-7.33-.01-4.02-.15-8.04-.23-12.06-.01-.52-.04-1.04-.02-1.56.27-4.93.6-9.86.8-14.79.08-1.93-.09-3.88-.19-5.81-.22-4.31-.48-8.62-.71-12.93-.02-.52.04-1.04.05-1.57.02-1.04.63-1.46,1.59-1.46,3.71-.01,7.41-.73,11.13-.22a1.526,1.526,0,0,0,.67.03c4.54-1.28,9.16.02,13.72-.48,1.23-.14,2.44-.42,3.99-.69a5.534,5.534,0,0,1,.54,1.75,27.116,27.116,0,0,0,.44,6.9c.33,1.25-.12,1.63-1.54,1.8a11.252,11.252,0,0,1-5.09-.21,9.146,9.146,0,0,0-3.09-.01c-3.72.15-7.46-.21-11.15.47-.22.04-.42.13-.96.29.05,2.39.11,4.68.16,6.95.15.12.27.29.38.29q7.41-.375,14.83-.76c2.07-.11,4.17.14,6.17-.7.23-.1.89.3,1.01.6a4.819,4.819,0,0,1,.15,1.71c0,2.68-.07,5.36,0,8.04.03,1.4-.11,1.71-1.55,1.72a108.657,108.657,0,0,0-15.92,1.21,21.19,21.19,0,0,1-2.23.07c-.43,2.6.13,5.19-.04,7.75-.17,2.58-.23,5.18-.34,8.04,1.73.15,3.23.27,4.74.41,2.2.2,4.39.45,6.59.6,1.6.11,3.22.11,4.83.13a15.612,15.612,0,0,1,5.08.47A12.5,12.5,0,0,0,861.59,120.081Zm-2.19,11.44c.21-3.2.41-6.14.62-9.25-1.05-.18-1.98-.43-2.93-.5-3.49-.26-6.98-.51-10.48-.68-3.25-.15-6.5-.23-9.75-.3-1.3-.02-1.85-.46-1.86-1.88a27.936,27.936,0,0,1,.13-5.57,33.511,33.511,0,0,0,.08-8.89c-.07-.96-.21-1.92-.23-2.89-.01-.75.42-1.49,1.16-1.36,2.35.4,4.58-.27,6.87-.47,3.83-.35,7.69-.5,11.76-.74.14-2.13.3-4.2.41-6.27a1.044,1.044,0,0,0-1.22-1.23c-2,.14-4,.36-6,.5-3.08.2-6.16.34-9.24.53a27.646,27.646,0,0,0-4.19.33c-1.57.34-1.96.18-2.04-1.47-.13-2.68-.24-5.35-.4-8.03-.1-1.85.36-2.45,2.23-2.56,1.19-.07,2.39-.01,3.58-.01,3.72-.02,7.44-.07,11.16-.04,1.55.01,3.1.19,4.73.3,0-1.91.03-3.54-.01-5.16-.03-.81-.4-1.12-1.32-1.03-1.84.18-3.71.17-5.56.22-2.46.05-4.92,0-7.38.13-4.45.24-8.89.59-13.84.93.09,2.66.16,5.17.26,7.68.2,4.68.58,9.37.57,14.06,0,4.25-.42,8.51-.63,12.76-.04.82.02,1.64.03,2.46.06,3.95.15,7.9.18,11.85.01,1.93-.08,3.87-.13,6.14C837.13,131.971,848.24,131.131,859.4,131.521Z" fill="#001d33"/>
          <path id="Path_128" data-name="Path 128" d="M846.64,329.011c.27,1.92.2,2.21-1.64,2.78a14.675,14.675,0,0,1-2.57.43c-1.5.16-3,.28-4.51.43-.47.04-.95.11-1.43.12-2.74.06-3.7-1.05-3.72-3.75-.01-2.83-.28-5.65-.44-8.57-.8-.08-1.33-.19-1.87-.19-1.64.01-3.28.02-4.93.05l-.04-2.44a3.415,3.415,0,0,0,.54-.1c2.27-.32,4.54-.65,6.8-.96,1.41-.2,2.02.14,2.45,1.55a31.334,31.334,0,0,1,.96,4.16c.35,2.27.57,4.55.84,6.85h5.75a128.817,128.817,0,0,0-.14-18.44l2.58-.21c.14,1.73.28,3.47.41,5.2.15,1.99.04,3.99.18,5.98C846.04,324.281,846.31,326.651,846.64,329.011Z" fill="#001d33"/>
          <path id="Path_129" data-name="Path 129" d="M845.27,310.721l-2.58.21c-.26-3.5-.64-6.97-1.07-10.43-2.72.4-5.25.78-7.95,1.18,0,1.21-.01,2.54,0,3.87.02,1.43.06,2.86-1.09,3.94a35.133,35.133,0,0,0-5.47-.59c-2.35.11-4.69.42-7.06.54a47.157,47.157,0,0,0-6.78.9l-.52-2.5c.61-.11,1.21-.22,1.81-.34,4.53-.86,9.04-2.02,13.73-1.4a19.608,19.608,0,0,0,2.43.01,15.622,15.622,0,0,0-.23-6.68c-.52-1.89-.22-2.09,1.8-2.13a48.876,48.876,0,0,0,4.95-.52c1.5-.2,2.98-.47,4.47-.69a1.425,1.425,0,0,1,1.8,1.15,21.611,21.611,0,0,1,.84,3.23Q844.845,305.586,845.27,310.721Z" fill="#001d33"/>
          <path id="Path_130" data-name="Path 130" d="M842.69,310.931a128.817,128.817,0,0,1,.14,18.44h-5.75c-.27-2.3-.49-4.58-.84-6.85a31.334,31.334,0,0,0-.96-4.16c-.43-1.41-1.04-1.75-2.45-1.55-2.26.31-4.53.64-6.8.96a3.415,3.415,0,0,1-.54.1.365.365,0,0,1-.15-.03c-2.15-1.13-4.33-.38-6.47-.08a33.876,33.876,0,0,0-6.5,1.39c-2.27.8-4.76,1.55-5.88,4.11a9.7,9.7,0,0,0-.9,2.2c-.67,4.46-.06,8.58,3.49,11.81,1.3,1.17,2.59,2.36,3.96,3.45a152.381,152.381,0,0,0,16.22,11.78,21.179,21.179,0,0,0,2.58,1.25,9.834,9.834,0,0,1,5.83,6.21,22.621,22.621,0,0,1-3.04,20.82c-2.7,3.89-6.77,6.45-11.24,8.19a3.81,3.81,0,0,0-.67.24,28.211,28.211,0,0,1-13.41,3.75c-2.37,1.27-5.02.56-7.51,1.06-2.11.42-2.49.85-1.96,2.97.41,1.61.76,3.25,1.06,4.89a10.841,10.841,0,0,1-.13,2.08c-3.5.34-6.8.67-10.35,1.01-.14-1.14-.3-2.04-.38-2.92-.01-.13-.01-.25-.02-.38-.19-4.06-.27-8.12-.52-12.18-.16-2.45-.67-4.89-.84-7.34-.15-2.13-.03-4.28-.03-6.63,2.82-.26,5.31-.48,8.14-.73.18,2.87.35,5.45.52,8.04a3.646,3.646,0,0,0,.23,1.62,2.091,2.091,0,0,0,1.42.94c4.84.14,9.58-.85,14.34-1.5,4.04-.56,7.76-2.18,11.53-3.62,1.18-.45,2.35-.92,3.5-1.46a2.818,2.818,0,0,0,1.29-1.01c1.14-2.5,2.98-4.79,2.62-7.78-.34-2.82-1.96-4.86-3.84-6.94-4.51-4.97-10.53-7.01-16.54-9.09a37.838,37.838,0,0,1-7.34-3.38c-1.75-1.07-3.64-1.95-5.28-3.17a15.1,15.1,0,0,1-5.98-9.46c-.7-3.53-1.55-6.98-.86-10.63.94-5,3.75-8.88,7.1-12.48a1.515,1.515,0,0,1,.58-.4c3.22-1.14,6.39-2.48,9.69-3.32,1.16-.3,2.34-.57,3.52-.81a47.157,47.157,0,0,1,6.78-.9c2.37-.12,4.71-.43,7.06-.54a35.133,35.133,0,0,1,5.47.59c1.15-1.08,1.11-2.51,1.09-3.94-.01-1.33,0-2.66,0-3.87,2.7-.4,5.23-.78,7.95-1.18C842.05,303.961,842.43,307.431,842.69,310.931Z" fill="#d9dadc"/>
          <path id="Path_131" data-name="Path 131" d="M841.73,367.741a21.629,21.629,0,0,1-3.48,12.92c-.92,1.39-1.9,2.75-2.94,4.06a29.7,29.7,0,0,1-8.94,7.07,62.5,62.5,0,0,1-8.09,3.34c-1.32.53-2.66,1.02-3.99,1.54a11.168,11.168,0,0,1-6.07.54c-3.78-.65-4.08-.26-3.82,3.45a2.424,2.424,0,0,0,.05.72c.92,2.21.17,4.13-1.2,6.21a26.556,26.556,0,0,0-3.57.03c-3.06.4-6.12.86-9.16,1.42-2.07.39-2.73.12-2.96-1.89-.19-1.67-.31-3.33-.41-5l2.89-.1c.08.88.24,1.78.38,2.92,3.55-.34,6.85-.67,10.35-1.01a10.841,10.841,0,0,0,.13-2.08c-.3-1.64-.65-3.28-1.06-4.89-.53-2.12-.15-2.55,1.96-2.97,2.49-.5,5.14.21,7.51-1.06a28.211,28.211,0,0,0,13.41-3.75,3.81,3.81,0,0,1,.67-.24c4.47-1.74,8.54-4.3,11.24-8.19a22.621,22.621,0,0,0,3.04-20.82,9.834,9.834,0,0,0-5.83-6.21,21.179,21.179,0,0,1-2.58-1.25,152.381,152.381,0,0,1-16.22-11.78c-1.37-1.09-2.66-2.28-3.96-3.45-3.55-3.23-4.16-7.35-3.49-11.81a9.7,9.7,0,0,1,.9-2.2c1.12-2.56,3.61-3.31,5.88-4.11a33.876,33.876,0,0,1,6.5-1.39c2.14-.3,4.32-1.05,6.47.08a.365.365,0,0,0,.15.03l.04,2.44c-.91.01-1.83.03-2.74.06-1.97.07-4.05-.11-5.89.47a23.126,23.126,0,0,0-7.25,3.47c-1.41,1.09-1.6,3.41-.91,5.33a16.665,16.665,0,0,0,1.67,3.42c3.01,4.67,6.54,8.69,11.98,10.79a30.123,30.123,0,0,1,10.8,6.86c1.67,1.7,3.49,3.26,5.18,4.95a10.776,10.776,0,0,1,2.99,7.32C841.45,364.571,841.69,366.151,841.73,367.741Z" fill="#001d33"/>
          <path id="Path_132" data-name="Path 132" d="M832.22,370.021c.36,2.99-1.48,5.28-2.62,7.78a2.818,2.818,0,0,1-1.29,1.01c-1.15.54-2.32,1.01-3.5,1.46-3.77,1.44-7.49,3.06-11.53,3.62-4.76.65-9.5,1.64-14.34,1.5a2.091,2.091,0,0,1-1.42-.94,3.646,3.646,0,0,1-.23-1.62c-.17-2.59-.34-5.17-.52-8.04-2.83.25-5.32.47-8.14.73,0,2.35-.12,4.5.03,6.63.17,2.45.68,4.89.84,7.34.25,4.06.33,8.12.52,12.18.01.13.01.25.02.38l-2.89.1c-.03-.56-.06-1.11-.1-1.67-.33-5-.29-10.03-1.57-14.94a13.334,13.334,0,0,1-.35-2.6c-.16-3.25-.28-6.51-.42-9.77-.09-1.84.26-2.28,2.13-2.29,1.1-.01,2.2.34,3.3.3q3.21-.12,6.41-.52c2.57-.32,3.7.57,3.69,3.18,0,2.24-.1,4.47-.14,6.7a8.87,8.87,0,0,0,.16,1.2c4.93-.47,9.86-.68,14.68-1.5a57.59,57.59,0,0,0,10.24-3.14,4.014,4.014,0,0,0,2.81-4.71,36.961,36.961,0,0,0-1.29-6.05,8.535,8.535,0,0,0-2.53-3.33c-3.94-3.26-8.8-4.68-13.46-6.51a60.536,60.536,0,0,1-15.83-8.66c-2.47-1.96-3.52-4.69-4.34-7.51-1.17-4.02-1-8.17-1.05-12.33a17.509,17.509,0,0,1,2.46-9.29,17.858,17.858,0,0,1,8.43-7.34,53.448,53.448,0,0,1,12.37-3.53l.52,2.5c-1.18.24-2.36.51-3.52.81-3.3.84-6.47,2.18-9.69,3.32a1.515,1.515,0,0,0-.58.4c-3.35,3.6-6.16,7.48-7.1,12.48-.69,3.65.16,7.1.86,10.63a15.1,15.1,0,0,0,5.98,9.46c1.64,1.22,3.53,2.1,5.28,3.17a37.838,37.838,0,0,0,7.34,3.38c6.01,2.08,12.03,4.12,16.54,9.09C830.26,365.161,831.88,367.2,832.22,370.021Z" fill="#001d33"/>
          <path id="Path_133" data-name="Path 133" d="M812.91,548.051c.86,1.41.13,3.52-1.61,3.55-2.69.04-13.01-.48-16.45,0a3.389,3.389,0,0,1-3.46-.81c-6.06-4.73-13.31-17.16-17.55-23.28a31.824,31.824,0,0,0-5.4-6.31,44.447,44.447,0,0,1-5.04-5.56c-3.12-3.78-6.15-7.63-9.6-11.93a20.635,20.635,0,0,0,.02,3.29,50.564,50.564,0,0,1,.54,13.57c-.41,5.18-.42,10.39-.6,15.59-.15,4.43-.31,7.83-.45,12.26a10.3,10.3,0,0,0,.16,1.36c.21,2-.33,2.58-2.22,2.49-6.12-.26-12.24.52-18.36.26a10.247,10.247,0,0,1-1.67-.06c-1.37-.3-2.46-.89-2.38-2.58a10.641,10.641,0,0,1,.03-2.71c.83-2.51.4-5.01-.12-7.4-1.56-7.1-2.07-14.31-2.64-21.52-.61-7.68-1.12-15.36-1.76-23.03-.76-9.24-1.05-18.48-1.1-27.74-.01-3.42-.19-6.85-.15-10.27a93.926,93.926,0,0,1,.43-11.01c.59-4.55.06-9.02-.11-13.53-.03-.88,0-1.77,0-3.07,3.42.19,6.28.4,9.15.49,4.37.13,8.75.29,13.11.22,4.55-.06,9.09-.34,13.63-.6,1.57-.08,3.14-.63,4.67-.53,3.23.21,6.45.64,9.64,1.13,2.83.42,5.62,1.07,8.44,1.59,1.86.34,2.87,1.54,4.04,3,2.62,3.26,3.68,7.02,4.41,10.94a38.319,38.319,0,0,1,.51,6.6,48.112,48.112,0,0,1-.32,8.06c-1.08,6.8-5.25,11.73-10.46,15.83-2.46,1.92-4.82,4.03-7.98,4.97-1.2.35-2.11,1.67-3.44,2.8,1.68,2.89,3.48,5.99,5.29,9.09,1.22,2.08,2.46,4.16,3.68,6.24a50.757,50.757,0,0,0,6.36,8.04c3.31,3.7,6.95,7.16,9.4,11.61,1.2,2.17,3.12,3.93,4.45,6.04,2.09,3.29,3.94,6.73,5.94,10.08a26.86,26.86,0,0,0,1.84,2.44C806.94,539.181,811.91,546.431,812.91,548.051Zm-6.2-.93c-.82-1.48-8.73-10.68-9.4-11.87a12.975,12.975,0,0,0-1.18-1.83c-2.43-3.03-3.89-6.67-6.51-9.63-4.29-4.85-8.31-9.95-12.33-15.04-3.79-4.82-7.51-9.71-11.11-14.67-2.94-4.05-5.67-8.24-8.49-12.38-1.03-1.51-.62-2.89,1.2-3.79,3.16-1.55,6.36-2.99,9.5-4.58,5.2-2.64,10.34-5.29,14.34-9.8a21.418,21.418,0,0,0,4.69-9.31,15.261,15.261,0,0,0-.23-6.33,55.364,55.364,0,0,0-2.05-6.65,4.636,4.636,0,0,0-.76-1.75c-2.07-2.16-4.34-4.14-7.37-4.7-2.96-.55-5.89-1.81-9.02-.8a4.641,4.641,0,0,1-1.65-.07c-2.59-.16-5.21-.67-7.75-.42-6.92.66-13.91.52-20.74,2.1-1.48.34-3.14-.05-4.71-.12a28.68,28.68,0,0,0-3.33-.17c-1.64.12-2.03.81-1.83,2.39.15,1.17.08,2.36.12,3.54.08,2.77.16,5.54.27,8.32.08,2.02.23,4.03.34,6.05.25,4.88.4,9.77.77,14.65.2,2.67.98,5.31,1.11,7.98.32,6.38.33,12.77.63,19.15.19,3.98.73,7.94,1.04,11.92s.69,7.94.76,11.92c.14,8.15.1,16.3.13,24.45,0,1.08.6,1.63,1.59,1.38,3.76-.94,8.72.99,12.46-.03.93-.25.3-3.9.06-4.82-.58-2.18.6-8.5.57-9.61-.09-4.82-.25-9.65-.29-14.47-.02-1.75.35-3.52.29-5.27-.26-7.58-.6-15.15-.96-22.73-.05-.98.24-1.78,1.13-1.95a3.194,3.194,0,0,1,2.2.49,13.766,13.766,0,0,1,1.73,2.16c2.88,3.26,6.07,6.29,8.61,9.79q7.44,10.245,14.26,20.92c4.12,6.42,13.56,20.07,18.49,25.87C793.29,547.411,805.31,547.621,806.71,547.121Z" fill="#001d33"/>
          <path id="Path_134" data-name="Path 134" d="M808.02,76.661a4.422,4.422,0,0,1,.45,3.09,95.643,95.643,0,0,1-5.06,16.2c-.99,2.54-1.72,5.25-3.11,7.57-2.36,3.94-3.65,8.3-5.47,12.45a48.726,48.726,0,0,1-6.26,11.29,21.661,21.661,0,0,0-2.34,4.78c-.92,2.05-1.66,2.22-3.16.5-.8-.93-1.53-1.93-2.25-2.92l1.93-.75a6.452,6.452,0,0,0,1.27,1.09,21.4,21.4,0,0,0,1.51-2.1c1.18-2.15,2.18-4.4,3.45-6.48a96.288,96.288,0,0,0,9.43-21.39c.86-2.69,1.49-5.47,2.48-8.11,1.45-3.89,3.13-7.69,4.92-12.02-2.36-.43-4.46-.81-6.51-1.19l.39-2.13a41.077,41.077,0,0,0,4.96.12C805.76,76.671,806.88,76.661,808.02,76.661Z" fill="#001d33"/>
          <path id="Path_135" data-name="Path 135" d="M797.31,535.251c.67,1.19,8.58,10.39,9.4,11.87-1.4.5-13.42.29-13.42.29-4.93-5.8-14.37-19.45-18.49-25.87q-6.825-10.65-14.26-20.92c-2.54-3.5-5.73-6.53-8.61-9.79a13.766,13.766,0,0,0-1.73-2.16,3.194,3.194,0,0,0-2.2-.49c-.89.17-1.18.97-1.13,1.95.36,7.58.7,15.15.96,22.73.06,1.75-.31,3.52-.29,5.27.04,4.82.2,9.65.29,14.47.03,1.11-1.15,7.43-.57,9.61.24.92.87,4.57-.06,4.82-3.74,1.02-8.7-.91-12.46.03-.99.25-1.59-.3-1.59-1.38-.03-8.15.01-16.3-.13-24.45-.07-3.98-.45-7.95-.76-11.92s-.85-7.94-1.04-11.92c-.3-6.38-.31-12.77-.63-19.15-.13-2.67-.91-5.31-1.11-7.98-.37-4.88-.52-9.77-.77-14.65-.11-2.02-.26-4.03-.34-6.05-.11-2.78-.19-5.55-.27-8.32-.04-1.18.03-2.37-.12-3.54-.2-1.58.19-2.27,1.83-2.39a28.68,28.68,0,0,1,3.33.17c1.57.07,3.23.46,4.71.12,6.83-1.58,13.82-1.44,20.74-2.1,2.54-.25,5.16.26,7.75.42a4.641,4.641,0,0,0,1.65.07c3.13-1.01,6.06.25,9.02.8,3.03.56,5.3,2.54,7.37,4.7a4.636,4.636,0,0,1,.76,1.75,55.364,55.364,0,0,1,2.05,6.65,15.261,15.261,0,0,1,.23,6.33,21.418,21.418,0,0,1-4.69,9.31c-4,4.51-9.14,7.16-14.34,9.8-3.14,1.59-6.34,3.03-9.5,4.58-1.82.9-2.23,2.28-1.2,3.79,2.82,4.14,5.55,8.33,8.49,12.38,3.6,4.96,7.32,9.85,11.11,14.67,4.02,5.09,8.04,10.19,12.33,15.04,2.62,2.96,4.08,6.6,6.51,9.63A12.975,12.975,0,0,1,797.31,535.251Zm-30.37-77.8c1.36-3.78.46-7.35-2.82-9.73-1.26-.91-2.72-1.57-4.02-2.44-2.06-1.4-4.19-1.12-6.34-.38a30.9,30.9,0,0,1-3.86,1.48,4.033,4.033,0,0,0-2.63,1.85c-1.43,2.08-1.6,4.47-1.64,6.88-.07,1.98-.06,3.97,1.53,5.42,1.37,1.24,2.71,2.72,4.36,3.39,1.98.8,4.23,1.87,6.41,1.09C761.81,463.631,765.39,461.761,766.94,457.451Z" fill="#d9dadc"/>
          <path id="Path_136" data-name="Path 136" d="M805.81,79.861c-1.79,4.33-3.47,8.13-4.92,12.02-.99,2.64-1.62,5.42-2.48,8.11a96.288,96.288,0,0,1-9.43,21.39c-1.27,2.08-2.27,4.33-3.45,6.48a21.4,21.4,0,0,1-1.51,2.1,6.452,6.452,0,0,1-1.27-1.09c-2.11-3.34-4.34-6.62-6.25-10.07a160.978,160.978,0,0,0-10.38-15.67,26.125,26.125,0,0,1-1.78-2.85c-2.34-4.33-4.69-8.65-6.94-13.03-1.39-2.71-2.66-5.49-3.9-8.28a27.423,27.423,0,0,1-1.01-3.36c2.91-1.57,6.23-1.15,9.36-2.19a5.884,5.884,0,0,1,.99,1.42c2.24,7.01,5.95,13.33,9.28,19.84a94.183,94.183,0,0,0,8.1,13.13c.97,1.31,1.66,2.83,2.57,4.18a5.963,5.963,0,0,0,1.35,1.11c.34-.28.53-.36.56-.47.7-3.31,2.44-6.21,3.63-9.32a65.42,65.42,0,0,0,2.81-10.33,70.985,70.985,0,0,1,3.99-12.76c.54-1.31,1.36-2.08,2.9-1.79l1.27.24C801.35,79.051,803.45,79.431,805.81,79.861Z" fill="#d9dadc"/>
          <path id="Path_137" data-name="Path 137" d="M799.69,76.541l-.39,2.13-1.27-.24c-1.54-.29-2.36.48-2.9,1.79a70.985,70.985,0,0,0-3.99,12.76,65.42,65.42,0,0,1-2.81,10.33c-1.19,3.11-2.93,6.01-3.63,9.32-.03.11-.22.19-.56.47a5.963,5.963,0,0,1-1.35-1.11c-.91-1.35-1.6-2.87-2.57-4.18l2.07-1.2c.24.36.51.7.76,1.06.2.01.4.03.59.04.76-2.45,1.47-4.92,2.28-7.35,2.3-6.92,3-14.31,6.25-20.94a10.9,10.9,0,0,0,.62-2.34,12.409,12.409,0,0,1,1.83-.85,4.571,4.571,0,0,1,2.51-.34A9.934,9.934,0,0,0,799.69,76.541Z" fill="#001d33"/>
          <path id="Path_138" data-name="Path 138" d="M782.75,128.871l-1.93.75-.72-.99c-2.19-2.93-4.38-5.86-6.53-8.82a113.329,113.329,0,0,1-9.61-15.61c-3.26-6.45-6.98-12.68-10.46-19.02-.82-1.49-1.48-3.08-2.24-4.61-.9-1.79-1.76-3.61-2.78-5.33-1.12-1.89-.78-2.76,1.46-3.14,1.53-.26,3.06-.52,4.6-.74,2.5-.38,5-.77,7.51-1.08,3.07-.39,3.9,1.13,4.45,3.19.89,3.3,1.89,6.59,3.09,9.79a41.806,41.806,0,0,0,2.71,4.88q2.91,5.28,5.77,10.6c1.35,2.49,2.66,5.01,4,7.5.07.12.15.25.22.37l-2.07,1.2a94.183,94.183,0,0,1-8.1-13.13c-3.33-6.51-7.04-12.83-9.28-19.84a5.884,5.884,0,0,0-.99-1.42c-3.13,1.04-6.45.62-9.36,2.19a27.423,27.423,0,0,0,1.01,3.36c1.24,2.79,2.51,5.57,3.9,8.28,2.25,4.38,4.6,8.7,6.94,13.03a26.125,26.125,0,0,0,1.78,2.85A160.978,160.978,0,0,1,776.5,118.8C778.41,122.251,780.64,125.531,782.75,128.871Z" fill="#001d33"/>
          <path id="Path_139" data-name="Path 139" d="M772.01,297.921c.38.73.06,1.82.06,2.51a17.8,17.8,0,0,1-2.75,1.19,7.488,7.488,0,0,1-2.41.05c-.51-.05-.98-.43-1.48-.5-1.94-.26-1.88-.25-2.21-2.26-.36-2.21-.85-4.39-1.31-6.58-1.2-5.68-2.38-11.36-3.64-17.03-.37-1.66-1.08-3.25-1.46-4.92-.71-3.11-1.3-6.26-1.93-9.4-.14-.71-.2-1.44-.31-2.2-2.96-.45-5.61.38-8.29.92-.78.16-.93.88-.93,1.6,0,1.65-.03,3.29-.03,4.93,0,5.32-.15,10.64.08,15.95.25,5.64.83,11.26,1.34,16.89.19,2-.63,3.06-2.66,3.15-1.19.05-2.37.17-3.55.33-1.82.25-2.23,0-2.36-1.95-.23-3.28-.29-6.57-.55-9.84s-.72-6.51-1.04-9.77a38.864,38.864,0,0,1-.27-4.7,48.111,48.111,0,0,0-.67-11.1,55.754,55.754,0,0,1-.68-8.69c-.2-4.17-.26-8.35-.49-12.52-.14-2.52-.54-5.03-.73-7.55a37.033,37.033,0,0,1-.01-4.47c.08-1.76.3-2.13,2.03-2.31,2.06-.23,4.14-.15,6.21-.19a15.381,15.381,0,0,0,1.79.04c3.28-.47,6.56.06,9.83-.01a24.465,24.465,0,0,1,11.79,2.92,7.449,7.449,0,0,1,2.95,2.94c2.39,4.32,3.13,8.75.69,13.44a17.026,17.026,0,0,1-4.12,5.72c-.73.6-1.52,1.13-2.5,1.86.75,3.06,1.42,6.25,2.32,9.38a95.39,95.39,0,0,1,3.19,15.3c.34,2.86,1.36,5.48,2.04,8.21.2.79.39,1.58.59,2.37C771.08,293.711,770.98,295.921,772.01,297.921Zm-7.56-53.19c.68-1.78,1.24-3.8.19-5.4-1.36-2.09-2.98-4.23-5.55-4.99a22.847,22.847,0,0,0-8.09-1.31c-2.83.21-5.66.34-8.49.52-.5.04-.99.16-1.57.26.31,6.36.61,12.59.9,18.79a11.143,11.143,0,0,0,6.34.82c.74-.1,1.51.01,2.24-.11a36.3,36.3,0,0,0,5.23-.99,22.961,22.961,0,0,0,4.89-2.16,9.5,9.5,0,0,0,2.68-2.57A11.6,11.6,0,0,0,764.45,244.731Z" fill="#001d33"/>
          <path id="Path_140" data-name="Path 140" d="M767.97,405.5c.15,2.02-.11,2.15-2.02,2.26-2.38.12-4.74.44-7.12.67a20.768,20.768,0,0,1-2.83.23c-3.34-.13-6.67-.4-10.01-.51-4.86-.15-9.73-.33-14.59-.28-2.76.04-5.53.54-8.29.8-2.22.21-4.44.46-6.66.52-2.14.05-3.06-.92-3.12-3.05-.02-.95.17-1.9.17-2.85.02-1.99.01-3.98-.05-5.96-.05-1.43-.26-2.86-.29-4.29-.14-5.55.24-11.16-.47-16.64-.78-5.98-.64-11.93-.86-17.9-.12-3.39-.72-6.76-.98-10.15-.27-3.57-.36-7.16-.6-10.73-.18-2.54-.52-5.07-.72-7.6-.12-1.59-.19-3.18-.17-4.77.03-1.79.8-2.6,2.68-2.61a22.538,22.538,0,0,1,4.48.51,45.487,45.487,0,0,0,13.78.47c6.65-.72,13.33-1.11,19.99-1.66l.23,2.45c-3,.3-6,.51-8.99.81-3.95.4-7.89.96-11.85,1.27a30.083,30.083,0,0,1-7.87.06c-3.02-.59-5.8.27-8.89.2a85.286,85.286,0,0,0,.08,9.76,85.588,85.588,0,0,1,.73,9.04c.05,2.46.33,4.92.54,7.38.25,3,.55,5.99.81,8.99a30.142,30.142,0,0,0,.28,3.57,64.314,64.314,0,0,1,1.24,13.78,29.939,29.939,0,0,0,.25,6.43,66.63,66.63,0,0,1,1.21,11.86c.08,2.76.45,5.51.69,8.27a40.207,40.207,0,0,0,5.94-.05,59.026,59.026,0,0,1,12.38-.72c3.9.21,7.81.35,11.71.52a30.645,30.645,0,0,1,4.3.15c3.22.61,6.3-.5,9.46-.57a3.64,3.64,0,0,0,1.12-.49c-.06-3.44,1.14-6.8.07-10.32-1.02-.05-1.96-.13-2.9-.13-3.1-.01-6.22.12-9.32-.01a25.866,25.866,0,0,0-6.82.44l-.57-2.46v-.01c3.48-.84,7.27-.68,10.9-.59a38.175,38.175,0,0,0,9.25-.83c1.83-.4,1.94-.25,2.42,1.59a19.811,19.811,0,0,1,.65,5.33C767.32,400.281,767.78,402.891,767.97,405.5Z" fill="#001d33"/>
          <path id="Path_141" data-name="Path 141" d="M764.12,447.721c3.28,2.38,4.18,5.95,2.82,9.73-1.55,4.31-5.13,6.18-9.01,7.56-2.18.78-4.43-.29-6.41-1.09-1.65-.67-2.99-2.15-4.36-3.39-1.59-1.45-1.6-3.44-1.53-5.42.04-2.41.21-4.8,1.64-6.88a4.033,4.033,0,0,1,2.63-1.85,30.9,30.9,0,0,0,3.86-1.48c2.15-.74,4.28-1.02,6.34.38C761.4,446.151,762.86,446.811,764.12,447.721Zm-5.18,12.95c3.33-1.13,4.48-3.64,3.01-6.81a8.434,8.434,0,0,0-.75-1.79,5.79,5.79,0,0,0-2.1-2c-1.59-.57-3.3-1.33-4.99.04-.44.35-1.23.27-1.82.38-1.5,3.17-1.77,5.78-.72,8.32a2.781,2.781,0,0,0,1.37,1.55A9.468,9.468,0,0,0,758.94,460.671Z" fill="#001d33"/>
          <path id="Path_142" data-name="Path 142" d="M763.73,394.351c1.07,3.52-.13,6.88-.07,10.32a3.64,3.64,0,0,1-1.12.49c-3.16.07-6.24,1.18-9.46.57a30.645,30.645,0,0,0-4.3-.15c-3.9-.17-7.81-.31-11.71-.52a59.026,59.026,0,0,0-12.38.72,40.207,40.207,0,0,1-5.94.05c-.24-2.76-.61-5.51-.69-8.27a66.63,66.63,0,0,0-1.21-11.86,29.939,29.939,0,0,1-.25-6.43,64.314,64.314,0,0,0-1.24-13.78,30.142,30.142,0,0,1-.28-3.57c-.26-3-.56-5.99-.81-8.99-.21-2.46-.49-4.92-.54-7.38a85.588,85.588,0,0,0-.73-9.04,85.286,85.286,0,0,1-.08-9.76c3.09.07,5.87-.79,8.89-.2a30.083,30.083,0,0,0,7.87-.06c3.96-.31,7.9-.87,11.85-1.27,2.99-.3,5.99-.51,8.99-.81a1.941,1.941,0,0,0,.24-.02c2.43-.24,2.97.11,3.17,2.61.21,2.7.33,5.4.45,8.1a5.487,5.487,0,0,1-.36,1.4c-.87,0-1.73.07-2.58-.01a38.331,38.331,0,0,0-9.74.72,51.072,51.072,0,0,1-5.68.12c-2.14.1-4.27.37-6.41.44a23.653,23.653,0,0,1-3.55-.32c-1.4-.18-1.92.11-2.22,1.46a5.86,5.86,0,0,0-.12,1.67c.2,4.67.4,9.35.65,14.02a24.13,24.13,0,0,0,.48,3.78c.33,1.54,1,1.82,2.59,1.72,2.99-.19,5.98-.22,8.98-.36,2.21-.11,4.42-.3,6.63-.43,1.68-.11,3.37-.37,5.04-.37a12.279,12.279,0,0,1,1.6.1,11.836,11.836,0,0,0,4.65-.54c1.21-.31,2.45-.51,3.72-.76,1.41,2.63.65,5.16.7,7.78-5.41.58-10.63,1.45-15.99,1.18-4.94-.25-9.9-.29-15.01,1.08a13.059,13.059,0,0,0,.29,6.2,39.484,39.484,0,0,1,1,10.65,82.46,82.46,0,0,1-.98,8.25,1.532,1.532,0,0,0,1.28,1.95,31.142,31.142,0,0,0,14.65-.01c.23-.06.46-.12.69-.17a25.866,25.866,0,0,1,6.82-.44c3.1.13,6.22,0,9.32.01C761.77,394.221,762.71,394.3,763.73,394.351Z" fill="#d9dadc"/>
          <path id="Path_143" data-name="Path 143" d="M761.8,367.161c.19,2.39-.43,3.19-2.79,3.24a14.623,14.623,0,0,1-3.31-.17,25.574,25.574,0,0,0-8.77.01c-1.33.2-2.71.06-4.06.18q-4.5.435-8.99.99a1.457,1.457,0,0,0-1.49,1.52c-.07,1.91-.35,3.8-.42,5.7-.11,3.11-.14,6.22-.18,9.32-.02,1.42-.01,2.84-.01,4.51,4.07-.32,7.93.85,12.06-.21a2.785,2.785,0,0,1,.28-.06l.57,2.46c-.23.05-.46.11-.69.17a31.142,31.142,0,0,1-14.65.01,1.532,1.532,0,0,1-1.28-1.95,82.46,82.46,0,0,0,.98-8.25,39.484,39.484,0,0,0-1-10.65,13.059,13.059,0,0,1-.29-6.2c5.11-1.37,10.07-1.33,15.01-1.08,5.36.27,10.58-.6,15.99-1.18-.05-2.62.71-5.15-.7-7.78-1.27.25-2.51.45-3.72.76a11.836,11.836,0,0,1-4.65.54,12.279,12.279,0,0,0-1.6-.1l-.02-2.41a26.219,26.219,0,0,0,7.31-.96,23.886,23.886,0,0,0,2.46-.86c1.38-.59,2.38-.33,2.8,1.08a20.794,20.794,0,0,1,.72,4.23C761.57,362.391,761.62,364.781,761.8,367.161Z" fill="#001d33"/>
          <path id="Path_144" data-name="Path 144" d="M757.03,337.161a10.043,10.043,0,0,1-.38,2.23c-4.51.13-8.67-.59-12.83.25a62.024,62.024,0,0,1-12.83,1.03c-1.35-.01-2.69,0-4.25,0a90.565,90.565,0,0,0,1,16.27c4.11-.11,8.12.58,12.2-.15a34.654,34.654,0,0,1,6.45-.26q.84.015,1.68,0l.02,2.41c-1.67,0-3.36.26-5.04.37-2.21.13-4.42.32-6.63.43-3,.14-5.99.17-8.98.36-1.59.1-2.26-.18-2.59-1.72a24.13,24.13,0,0,1-.48-3.78c-.25-4.67-.45-9.35-.65-14.02a5.86,5.86,0,0,1,.12-1.67c.3-1.35.82-1.64,2.22-1.46a23.653,23.653,0,0,0,3.55.32c2.14-.07,4.27-.34,6.41-.44a51.072,51.072,0,0,0,5.68-.12,38.331,38.331,0,0,1,9.74-.72c.85.08,1.71.01,2.58.01a5.487,5.487,0,0,0,.36-1.4c-.12-2.7-.24-5.4-.45-8.1-.2-2.5-.74-2.85-3.17-2.61a1.941,1.941,0,0,1-.24.02l-.23-2.45c.86-.08,1.7-.36,2.56-.49.67-.1,1.62-.42,1.95-.12a4.509,4.509,0,0,1,1.54,2.53C756.7,328.3,756.87,332.731,757.03,337.161Z" fill="#001d33"/>
          <path id="Path_145" data-name="Path 145" d="M740.9,103.581a25.678,25.678,0,0,1-1.36,12.52c-.82,2.06-1.26,4.25-2.51,6.14a10.713,10.713,0,0,1-3.49,3.37c-2.54,1.53-4.99,3.23-7.43,4.93a13.272,13.272,0,0,1-6.04,2.11c-1.76.23-3.54.39-5.3.68-3.59.6-7.21.32-10.82.3-2.15-.01-4.32-.16-6.46.02-2.47.2-3.69-.81-3.88-3.15-.26-3.26-.58-6.52-.62-9.78-.06-5.34.2-10.68.11-16.01-.01-.64-.02-1.28-.03-1.93l1.73-.03q.105,4.02.23,8.04.255,8.64.59,17.26a4.551,4.551,0,0,0,.49,1.92,1.733,1.733,0,0,0,1.13.89c4.02.2,8.04.44,12.06.41,2.66-.03,5.31-.48,7.96-.75a5,5,0,0,0,1.08-.26c2.16-.76,4.37-1.41,6.47-2.33,2.48-1.1,5.11-2.02,6.74-4.47,1.24-1.84,2.54-3.65,3.94-5.38,1.94-2.41,3.28-4.94,2.47-8.16a1.9,1.9,0,0,1,.03-.67c.58-3.6,0-7.16-.57-10.68a21.529,21.529,0,0,0-1.8-5.89l1.9-.62A35.437,35.437,0,0,1,740.9,103.581Z" fill="#001d33"/>
          <path id="Path_146" data-name="Path 146" d="M737.42,98.571c.57,3.52,1.15,7.08.57,10.68a1.9,1.9,0,0,0-.03.67c.81,3.22-.53,5.75-2.47,8.16-1.4,1.73-2.7,3.54-3.94,5.38-1.63,2.45-4.26,3.37-6.74,4.47-2.1.92-4.31,1.57-6.47,2.33a5,5,0,0,1-1.08.26c-2.65.27-5.3.72-7.96.75-4.02.03-8.04-.21-12.06-.41a1.733,1.733,0,0,1-1.13-.89,4.551,4.551,0,0,1-.49-1.92q-.345-8.625-.59-17.26-.12-4.02-.23-8.04c-.07-2.68-.13-5.36-.16-8.04-.07-5.44-.03-10.89-.04-16.38,2.33-1.32,4.63-.87,6.93-.8a34.143,34.143,0,0,1,9.06,1.01,2.519,2.519,0,0,0,1.1.16c3.77-.7,6.92,1.09,10.17,2.47q2.355,1.005,4.6,2.24a20.863,20.863,0,0,1,9.16,9.27A21.529,21.529,0,0,1,737.42,98.571Z" fill="#d9dadc"/>
          <path id="Path_147" data-name="Path 147" d="M737.52,92.061l-1.9.62a20.863,20.863,0,0,0-9.16-9.27q-2.25-1.23-4.6-2.24c-3.25-1.38-6.4-3.17-10.17-2.47a2.519,2.519,0,0,1-1.1-.16,34.143,34.143,0,0,0-9.06-1.01c-2.3-.07-4.6-.52-6.93.8.01,5.49-.03,10.94.04,16.38.03,2.68.09,5.36.16,8.04l-1.73.03c-.13-5.23-.43-10.47-.63-15.71-.16-3.8-.33-7.6-.49-11.37a10.157,10.157,0,0,1,6.24-1.93c2.52.02,5.06-.16,7.56.06a21.6,21.6,0,0,1,4.45,1.34,17.76,17.76,0,0,0,3.38,1.04,29.264,29.264,0,0,1,10.55,3.33,41.877,41.877,0,0,1,6.54,3.85,20.308,20.308,0,0,1,4.91,5.14C736.29,89.681,736.93,90.861,737.52,92.061Z" fill="#001d33"/>
          <path id="Path_148" data-name="Path 148" d="M722.49,260.121a39.625,39.625,0,0,1-.88,20.25,42.932,42.932,0,0,1-7.55,14.34,14.576,14.576,0,0,1-8.11,5.54c-3.92.96-7.88,1.58-11.82,2.32a5.7,5.7,0,0,1-2.42-.2,43.107,43.107,0,0,1-13.81-6.67,20.229,20.229,0,0,1-5.38-5.89c-1.3-2.16-2.79-4.22-3.93-6.46a21.184,21.184,0,0,1-2.46-11.84c.2-2.07.07-4.17.19-6.25a20.614,20.614,0,0,1,.58-5.06c1.29-4.02,1.87-8.3,4.18-11.96.04-2.46,2.05-3.46,3.54-4.86,3.4-3.2,7.54-4.94,11.91-6.28,1.26-.39,2.45-1.04,3.71-1.43,1.33-.42,2.7-.69,3.96-1,2.32.41,4.45.73,6.57,1.16,4.85.98,9.65,2.26,13.52,5.5a18.562,18.562,0,0,1,6.51,9.38c.63,2.31.83,4.66,1.23,6.99C722.17,258.511,722.32,259.321,722.49,260.121Zm-1.51,6.21c-.51-3.76-.97-7.53-1.55-11.27a7.5,7.5,0,0,0-1.84-4.02,7.751,7.751,0,0,1-1.35-2.05,7.379,7.379,0,0,0-4.19-3.82,32.375,32.375,0,0,0-4.6-1.67c-2.84-.79-5.68-1.6-8.73-1.02a16.7,16.7,0,0,1-3.77-.24,16.573,16.573,0,0,0-3.78-.12,25.174,25.174,0,0,0-9.02,3.12,52.69,52.69,0,0,1-4.91,2.65,4.837,4.837,0,0,0-2.45,2.47c-1.12,2.44-2.29,4.85-3.41,7.28a5.076,5.076,0,0,0-.56,1.7c-.13,3.34-.39,6.7-.25,10.04.22,5.06,2.01,9.7,4.06,14.29a28.177,28.177,0,0,0,13.97,14.18,12.463,12.463,0,0,0,7.39,1.15,23.962,23.962,0,0,0,11.28-4.58c1.75-1.4,3.47-2.84,5.26-4.19a13.241,13.241,0,0,0,5.32-8.73c.16-.95.43-1.89.68-2.83A69.845,69.845,0,0,0,720.98,266.331Z" fill="#001d33"/>
          <path id="Path_149" data-name="Path 149" d="M719.43,255.061c.58,3.74,1.04,7.51,1.55,11.27a69.845,69.845,0,0,1-2.45,12.34c-.25.94-.52,1.88-.68,2.83a13.241,13.241,0,0,1-5.32,8.73c-1.79,1.35-3.51,2.79-5.26,4.19A23.962,23.962,0,0,1,695.99,299a12.463,12.463,0,0,1-7.39-1.15,28.177,28.177,0,0,1-13.97-14.18c-2.05-4.59-3.84-9.23-4.06-14.29-.14-3.34.12-6.7.25-10.04a5.076,5.076,0,0,1,.56-1.7c1.12-2.43,2.29-4.84,3.41-7.28a4.837,4.837,0,0,1,2.45-2.47,52.69,52.69,0,0,0,4.91-2.65,25.174,25.174,0,0,1,9.02-3.12,16.573,16.573,0,0,1,3.78.12,16.7,16.7,0,0,0,3.77.24c3.05-.58,5.89.23,8.73,1.02a32.375,32.375,0,0,1,4.6,1.67,7.379,7.379,0,0,1,4.19,3.82,7.751,7.751,0,0,0,1.35,2.05A7.5,7.5,0,0,1,719.43,255.061Z" fill="#d9dadc"/>
          <path id="Path_150" data-name="Path 150" d="M705.58,439.231c4.03.07,6.67,2.58,6.2,6.67-.49,4.25-.82,8.49-.96,12.76-.09,2.78-.94,3.44-3.88,3.49-3.24.05-6.48.09-9.72-.01-6.51-.2-13-.35-19.85,1.48a51.076,51.076,0,0,0-.64,5.19c-.14,5.55-.33,11.09.03,16.65.31,4.91-.01,9.84.08,14.76.11,5.85.27,11.7.58,17.54.17,3.14.79,6.25,1.07,9.39s.46,6.29.59,9.44c.17,3.89.29,7.78.3,11.67a6.992,6.992,0,0,1-.71,3.19,3.265,3.265,0,0,1-3.46,1.83c-3.22-.31-6.45-.48-9.68-.69-.74-.05-1.49.01-2.23-.01-2.41-.07-3.29-.7-3.49-3.04-.33-3.87-.52-7.76-.65-11.65-.18-5.1-.28-10.21-.37-15.32-.09-4.82-.05-9.64-.19-14.46-.1-3.33-.28-6.66-.66-9.97-.63-5.42-1.66-10.81-2.14-16.25-.34-3.83-.06-7.73-.04-11.6,0-2.04.05-4.08.04-6.11a1.436,1.436,0,0,0-1.57-1.57c-.46-.01-.93.05-1.39.08a130.972,130.972,0,0,1-18.58-.44c-1.91-.14-3.85.31-5.79.36a13.951,13.951,0,0,1-4.04-.28c-2.77-.77-3.1-3.24-3.2-5.55-.09-2.21.27-4.43.37-6.65.06-1.3.43-2.8-.08-3.85-1.19-2.49-.06-4.71.26-7.03.19-1.38,1.03-1.85,2.32-1.85,5.47-.02,10.94-.22,16.41-.04,3.78.12,7.55.73,11.33,1.14,4.06.43,8.11.92,12.17,1.27,1.08.1,2.2-.34,3.3-.33,1.66.03,3.33.41,4.99.34,5.28-.23,10.55-.65,15.83-.89,2.79-.13,5.58-.08,8.37-.01C699.53,438.941,702.55,439.181,705.58,439.231Zm-2.41,17.68c.97-.12,2.04-.35,2.02-1.82-.05-3.52-.01-7.05-.04-10.58,0-.23-.25-.46-.5-.88-4.94.18-9.95.32-14.96.55-2.31.11-4.61.48-6.92.56-3.27.11-6.55.04-9.82.11-1.76.04-3.51.2-5.27.32a54.757,54.757,0,0,1-7.75.53c-6.93-.47-13.84-1.4-20.81-.49a10,10,0,0,1-2.47-.27c-3.78-.47-7.28.54-10.83,1.81.42,3.68.81,7.14,1.23,10.89,3.17.24,6.55.68,9.94.72,2.85.03,5.67-.52,8.57-.2,4.74.51,9.44-.33,14.12-1.02,1.83-.26,2.12-.07,2.4,1.7a40.117,40.117,0,0,1,.54,5.24c.18,6.77-.21,13.56.75,20.31a26.112,26.112,0,0,1,.32,6.94c-.95,7.42-.19,14.84-.28,22.26q-.075,7.5-.13,15a87.423,87.423,0,0,0,1.2,17.48c.33,1.68.73,2,2.42,1.87a8.676,8.676,0,0,1,4.34.65c1.9.84,3.07,0,3.02-2.09-.04-1.56-.43-3.12-.51-4.69q-.345-6.675-.56-13.36c-.09-2.67-.01-5.36-.1-8.03-.09-2.48-.24-4.97-.46-7.44-.34-3.79-.75-7.56-1.14-11.34-.25-2.54-.47-5.08-.77-7.61-.24-2.02-.88-4.05-.8-6.05.17-4.72-1.06-9.44.08-14.15a2.893,2.893,0,0,0-.01-.83q-.525-6.36-1.06-12.73c-.14-1.75.57-2.57,2.42-2.56,1.49,0,2.97.2,4.45.32,2.2.2,4.4.55,6.61.57,2.87.03,5.76-.4,8.62-.27C695.18,458.5,699.14,457.451,703.17,456.911Z" fill="#001d33"/>
          <path id="Path_151" data-name="Path 151" d="M705.19,455.091c.02,1.47-1.05,1.7-2.02,1.82-4.03.54-7.99,1.59-12.14,1.42-2.86-.13-5.75.3-8.62.27-2.21-.02-4.41-.37-6.61-.57-1.48-.12-2.96-.32-4.45-.32-1.85-.01-2.56.81-2.42,2.56q.525,6.36,1.06,12.73a2.893,2.893,0,0,1,.01.83c-1.14,4.71.09,9.43-.08,14.15-.08,2,.56,4.03.8,6.05.3,2.53.52,5.07.77,7.61.39,3.78.8,7.55,1.14,11.34.22,2.47.37,4.96.46,7.44.09,2.67.01,5.36.1,8.03q.225,6.69.56,13.36c.08,1.57.47,3.13.51,4.69.05,2.09-1.12,2.93-3.02,2.09a8.676,8.676,0,0,0-4.34-.65c-1.69.13-2.09-.19-2.42-1.87a87.423,87.423,0,0,1-1.2-17.48q.045-7.5.13-15c.09-7.42-.67-14.84.28-22.26a26.112,26.112,0,0,0-.32-6.94c-.96-6.75-.57-13.54-.75-20.31a40.117,40.117,0,0,0-.54-5.24c-.28-1.77-.57-1.96-2.4-1.7-4.68.69-9.38,1.53-14.12,1.02-2.9-.32-5.72.23-8.57.2-3.39-.04-6.77-.48-9.94-.72-.42-3.75-.81-7.21-1.23-10.89,3.55-1.27,7.05-2.28,10.83-1.81a10,10,0,0,0,2.47.27c6.97-.91,13.88.02,20.81.49a54.757,54.757,0,0,0,7.75-.53c1.76-.12,3.51-.28,5.27-.32,3.27-.07,6.55,0,9.82-.11,2.31-.08,4.61-.45,6.92-.56,5.01-.23,10.02-.37,14.96-.55.25.42.5.65.5.88C705.18,448.041,705.14,451.571,705.19,455.091Z" fill="#d9dadc"/>
          <path id="Path_152" data-name="Path 152" d="M698.18,329.481c.12.73.13,1.48.2,2.36-2.34,0-4.39.05-6.44-.02-2.14-.07-4.28-.25-6.43-.37a6.057,6.057,0,0,1-.95.02c-4.45-1.01-8.89.38-13.34.07a5.875,5.875,0,0,0-1.35.23c.12,2.96.24,5.8.34,8.64.16,5.1.33,10.2.46,15.3.03,1.19-.11,2.39-.15,3.58-.32,8.65-.52,17.3-1.03,25.94-.19,3.28-.54,6.64-2.3,9.65a34.219,34.219,0,0,0-1.91,4.62,10.209,10.209,0,0,1-5.19,5.64c-2.7,1.33-5.18,3.08-8.23,3.65a11.729,11.729,0,0,1-5.43.13,9.879,9.879,0,0,0-2.37-.23,9.419,9.419,0,0,1-5.57-1.8,31.289,31.289,0,0,0-4.87-2.46,5.5,5.5,0,0,1-2.62-2.3,36.735,36.735,0,0,0-2.9-3.77c-2.53-3.43-3.27-7.54-4.28-11.54a16.112,16.112,0,0,1-.47-7.56,8.826,8.826,0,0,0-.23-2.36c-.16-2.51.81-3.54,3.31-3.56,1.75-.01,3.51-.08,5.26-.01a5.614,5.614,0,0,1,2.28.58c1.28.66,1.33,1.08.68,2.45a12.723,12.723,0,0,0-.9,6.07c.09,2.79.25,5.57.28,8.36a8.139,8.139,0,0,0,3.32,6.77c2.61,2.03,5.42,3.47,8.76,3,3.96-.55,7.27-2.06,9.64-5.75a22.169,22.169,0,0,0,3.28-9.05c.5-3.52.69-7.09.85-10.65.16-3.63.68-7.38.04-10.9-1.07-5.86-.92-11.88-2.64-17.63.34-2.92-1.14-5.72-.38-8.74.36-1.43-.2-3.1-.38-5.12-2.27.23-4.08.4-5.88.59-2.92.32-5.83.66-8.74.96-2.85.29-5.7.57-8.55.8-3.32.28-6.64.61-9.96.7-1.76.05-2.21-.54-2.34-2.32a27.365,27.365,0,0,1,.03-4.05,1.714,1.714,0,0,1,1.82-1.79c1.91-.04,3.82-.09,5.72-.28,3-.3,6-.63,8.98-1.11a119.224,119.224,0,0,1,18.78-1.32c6.3.01,12.61.13,18.91-.16,3.12-.15,6.18.14,9.26.24a34.628,34.628,0,0,0,9.93-1.28,3.347,3.347,0,0,1,1.6-.25,2.047,2.047,0,0,1,1.17,1.19C697.66,326.221,697.92,327.861,698.18,329.481Z" fill="#001d33"/>
          <path id="Path_153" data-name="Path 153" d="M682.6,126c.44.76.86,1.54,1.5,2.71-1.4.45-2.42.84-3.48,1.09-3.24.79-6.51,1.53-9.76,2.3-1.81.43-2.23.33-3.03-1.31-1.13-2.35-2.08-4.79-3.27-7.11-1.35-2.65-2.91-5.19-4.31-7.81a2.346,2.346,0,0,0-2.56-1.35c-1.71.17-3.41.37-5.11.54-1.26.12-2.52.21-3.78.32-2.3.2-4.59.44-6.88.59a1.381,1.381,0,0,0-1.44,1.13c-.23.86-.46,1.73-.62,2.61-.49,2.86-.96,5.72-1.4,8.6-.22,1.43-.34,2.89-.53,4.55a24.017,24.017,0,0,1-2.87.46c-3.8.17-7.6.27-11.39.39-2.36.07-3.55-1.54-2.89-3.78.56-1.92,1-3.88,1.53-5.82a18.322,18.322,0,0,1,.87-2.75c1.01-2.32,2.17-4.57,3.13-6.9.42-1.01.41-2.19.76-3.24,1.91-5.86,3.86-11.7,5.81-17.54.8-2.38,1.71-4.72,2.44-7.12.63-2.06,1.08-4.17,1.62-6.25.19-.71.44-1.4.68-2.09.82-2.37,1.63-4.75,2.5-7.1a7.085,7.085,0,0,1,1-1.72c1.22-1.63,2.1-1.91,3.45-.48a143.89,143.89,0,0,1,9.85,11.25c2.87,3.77,5.23,7.93,7.79,11.94.56.87,1.01,1.83,1.56,2.71,1.94,3.1,3.91,6.18,5.86,9.27,1.08,1.7,2.2,3.37,3.22,5.11C676.12,114.781,679.36,120.4,682.6,126Zm-2.24.86a10.953,10.953,0,0,0-.74-1.67c-3.52-5.18-6.25-10.88-10.2-15.78a25.355,25.355,0,0,1-2.14-3.64c-.74-1.3-1.44-2.61-2.17-3.91-.92-1.62-1.87-3.22-2.76-4.85-.58-1.04-1.01-2.17-1.64-3.17-1.92-3.02-4.02-5.93-5.84-9-2.88-4.88-7.1-8.63-10.61-12.98-.53-.66-1.14-.65-1.62.1a5.212,5.212,0,0,0-.59,1.21c-1.53,4.9-3.08,9.79-4.53,14.72-.71,2.43-1.07,4.96-1.84,7.37-1.36,4.25-2.88,8.44-4.39,12.64-1.1,3.08-2.45,6.09-3.41,9.21-1.07,3.49-1.81,7.07-2.72,10.6-.46,1.82-.27,2.13,1.52,2.28a3.089,3.089,0,0,1,1.07.12c2.49,1.26,5.07.41,7.69.68A42.279,42.279,0,0,1,637.1,116a8.892,8.892,0,0,1,1.55-3.51c.04-.05.08-.11.13-.17.99.04,1.98.06,2.97.08,5.63.17,10.92.27,16.34-1.24l8.13,9.52c1.31,2.25,2.82,4.39,4.33,6.51.77,1.09,1.77,1.83,3.25.99a2.77,2.77,0,0,1,1.5-.13A10.7,10.7,0,0,0,680.36,126.861Z" fill="#001d33"/>
          <path id="Path_154" data-name="Path 154" d="M658.33,103.781a2.033,2.033,0,0,1-.1.49,1.361,1.361,0,0,1-.56.71,2.946,2.946,0,0,1-1.13.42,8.345,8.345,0,0,1-1.36.14c-.29.01-.59.01-.88.01a8.6,8.6,0,0,0-1.69-.01c-2.93.21-5.87.15-8.84.61a.452.452,0,0,0-.37-.17h-2.74a8.463,8.463,0,0,1-.2-4.46c.35-2.05.64-4.1,1.09-6.12.76-3.38,1.6-6.74,2.48-10.09.33-1.27,1.26-1.59,2.44-.94a10.688,10.688,0,0,1,4.44,4.32c1.25,2.38,2.28,4.87,3.54,7.25C655.81,98.521,656.4,101.491,658.33,103.781Zm-3.38-1.2c-2.51-4.7-4.02-9.92-8.2-14.4-1.04,5.32-2.69,10.04-2.9,15.35Z" fill="#001d33"/>
          <path id="Path_155" data-name="Path 155" d="M661.321,241a28.665,28.665,0,0,0,.44-3.32,1.391,1.391,0,0,0-1.26-1.75,31.882,31.882,0,0,0-3.951-.64c-2-.05-4.08.49-6,.15-2.979-.53-5.789.24-8.669.4-2.67.14-5.331.55-8.011.59-2.96.04-5.929-.2-8.9-.3-1.469-.05-1.819.27-1.779,1.82.06,1.86.229,3.72.289,5.58.05,1.56-.029,3.12.031,4.68.159,4.1.459,8.19.529,12.29.12,6.93.031,13.87.171,20.8.06,2.6.5,5.17.68,7.77.029.37.05.74.06,1.11.13,3.77.029,7.55.029,11.64a20.794,20.794,0,0,0,3.041.55c3.659.1,7.339-.1,10.969.23a4.332,4.332,0,0,0,4.04-1.46,2.083,2.083,0,0,0,.7-1.99,49.978,49.978,0,0,1-1.139-12.44,7.111,7.111,0,0,0-.031-1.12c-.479-4.13-.979-8.26-1.44-12.39a4.086,4.086,0,0,1,.24-1.14c.55-.04,1.081-.12,1.591-.16a5.641,5.641,0,0,1,.919,0c4.62.45,9.04-.55,13.44-1.77,1.1-.3,1.381-.91,1.211-1.99a35.75,35.75,0,0,1-.351-4.01c-.07-2.1-.959-3.17-3.079-3.13-2.231.05-4.45.35-6.681.5a46.078,46.078,0,0,1-7.159.1,17.249,17.249,0,0,1-.16-1.95c.129-3.43.269-6.86.449-10.29.091-1.66.62-2.1,2.481-2.11,4.719-.02,9.43-.08,14.139.04a3.68,3.68,0,0,0,3.611-1.74A5.95,5.95,0,0,1,661.321,241Z" fill="#001d33"/>
        </g>
      </g>
    </g>
    <g id="Layer_2" data-name="Layer 2" transform="translate(-545.904)">
      <g id="Group_16" data-name="Group 16">
        <path id="Path_156" data-name="Path 156" d="M950.324,189.709a9.411,9.411,0,0,1-.341,1.779h-5.915c.35,1.157.692,2.121.928,3.12a13.36,13.36,0,0,1-1.1,8.535,24.238,24.238,0,0,1-6.791,8.991,8.194,8.194,0,0,1-2.375,1.288,27.477,27.477,0,0,1-15.055,1.122,14.934,14.934,0,0,1-9.1-4.986c-1.235-1.507-2.839-2.717-4.083-4.224a45.178,45.178,0,0,1-3.6-5.118,57.787,57.787,0,0,1-3.313-5.994,19.086,19.086,0,0,1-1.778-11.97,99.864,99.864,0,0,1,4.215-15.66,22.873,22.873,0,0,1,7.869-10.516,29.263,29.263,0,0,1,12.978-5.109,9.245,9.245,0,0,1,2.726.149,42.966,42.966,0,0,1,7.089,1.139,15.249,15.249,0,0,1,6.923,4.53c3.418,3.918,4.662,8.659,4.934,13.706.088,1.665-.237,1.876-1.928,1.972-1.831.1-3.654.342-5.477.35-1.481.009-2.971-.227-4.566-.376-.482-2.366-.964-4.592-1.375-6.827-.395-2.164-1.806-3.751-3.05-5.407a3.519,3.519,0,0,0-1.989-1.1,12.84,12.84,0,0,0-12.365,3.7,10.178,10.178,0,0,0-1.963,3.566,30.824,30.824,0,0,0-2.1,10.122,72.715,72.715,0,0,0,.552,9.929c.447,3.856,2.112,7.1,4.039,10.253a19.8,19.8,0,0,0,3.891,4.6,18.788,18.788,0,0,0,7.09,3.61,7.012,7.012,0,0,1,1.139.289c2.638,1.218,4.986.3,7.274-.964a3.258,3.258,0,0,0,1.051-1.13c.447-.719.824-1.481,1.2-2.244a6.32,6.32,0,0,0,.815-4.11c-.316-1.717-.438-3.461-.658-5.336-2.725.175-5.179,1.568-8.035.631-.342-2.778-.693-5.662-1.052-8.571a4.784,4.784,0,0,1,1.271-.526q3.391-.13,6.774-.166c1.375-.018,2.751.079,4.127.052,3-.043,6,.114,8.947-.648a1.234,1.234,0,0,1,1.657.955,5.264,5.264,0,0,1,.28,1.139C950.193,186.072,950.289,187.886,950.324,189.709Zm-1.919-.613c0-1.175.035-2.279-.008-3.374-.035-.85-.43-1.323-1.4-1.122a17.416,17.416,0,0,1-3.268.526c-2.62.052-5.241-.044-7.861-.053-2.077-.008-4.162.027-6.178.044a5.185,5.185,0,0,0-.175,3.313c.3,1.752.8,2.085,2.524,1.682,1.34-.307,2.664-.648,4-.911,1.306-.263,1.762.175,1.858,1.481a34.368,34.368,0,0,0,.508,4.451,11.82,11.82,0,0,1-1.218,7.756,7.479,7.479,0,0,1-4.968,4.364,11.635,11.635,0,0,1-3.62.64,14.992,14.992,0,0,1-4.153-1.008c-3.76-1.393-7.265-3.12-9.815-6.467a28.767,28.767,0,0,1-5.083-8.983,49.629,49.629,0,0,1-1.647-14.161c-.018-3.838,1.051-7.466,2.059-11.129,1.866-6.757,10.069-10.3,15.336-9.009,1.5.359,2.979.57,4.039,1.735a12.632,12.632,0,0,1,3.287,5.232c.359,1.384.7,2.778.92,4.18.272,1.674.28,1.884,1.963,2.068a30.2,30.2,0,0,0,5.267.114c1.568-.1,1.962-.657,1.691-2.165-.254-1.41-.833-2.76-1.017-4.18-.438-3.242-2.55-5.345-4.793-7.361-3.865-3.453-8.693-3.715-13.452-3.549a19.884,19.884,0,0,0-10.148,3.216,29.059,29.059,0,0,0-4.995,3.777,19.142,19.142,0,0,0-4.408,7.344,77.176,77.176,0,0,0-3.82,13.758c-.342,2.243-.833,4.487-.3,6.809,1.481,6.4,4.819,11.778,9.052,16.668a44.6,44.6,0,0,0,3.681,3.724,15.212,15.212,0,0,0,3.4,2.585,15.415,15.415,0,0,0,8.132,1.762,18.674,18.674,0,0,1,3.137.009,16.286,16.286,0,0,0,6.485-1.254,5.763,5.763,0,0,0,2.147-.815,27.029,27.029,0,0,0,4.548-4.854,17.868,17.868,0,0,0,3.041-7.537,8.923,8.923,0,0,0-1.8-6.765c-.351-.465-1.017-.894-.526-1.481a2.392,2.392,0,0,1,1.516-.613C944.295,189.35,946.241,189.245,948.405,189.1Z" fill="#001d33"/>
        <path id="Path_157" data-name="Path 157" d="M948.4,185.722c.043,1.1.008,2.2.008,3.374-2.164.149-4.11.254-6.055.447a2.392,2.392,0,0,0-1.516.613c-.491.587.175,1.016.526,1.481a8.923,8.923,0,0,1,1.8,6.765,17.868,17.868,0,0,1-3.041,7.537,27.029,27.029,0,0,1-4.548,4.854,5.763,5.763,0,0,1-2.147.815,16.286,16.286,0,0,1-6.485,1.254,18.674,18.674,0,0,0-3.137-.009,15.415,15.415,0,0,1-8.132-1.762,15.212,15.212,0,0,1-3.4-2.585,44.6,44.6,0,0,1-3.681-3.724c-4.233-4.89-7.571-10.271-9.052-16.668-.535-2.322-.044-4.566.3-6.809a77.176,77.176,0,0,1,3.82-13.758,19.142,19.142,0,0,1,4.408-7.344,29.059,29.059,0,0,1,4.995-3.777A19.884,19.884,0,0,1,923.2,153.21c4.759-.166,9.587.1,13.452,3.549,2.243,2.016,4.355,4.119,4.793,7.361.184,1.42.763,2.77,1.017,4.18.271,1.508-.123,2.069-1.691,2.165a30.2,30.2,0,0,1-5.267-.114c-1.683-.184-1.691-.394-1.963-2.068-.219-1.4-.561-2.8-.92-4.18a12.632,12.632,0,0,0-3.287-5.232c-1.06-1.165-2.541-1.376-4.039-1.735-5.267-1.288-13.47,2.252-15.336,9.009-1.008,3.663-2.077,7.291-2.059,11.129a49.629,49.629,0,0,0,1.647,14.161,28.767,28.767,0,0,0,5.083,8.983c2.55,3.347,6.055,5.074,9.815,6.467a14.992,14.992,0,0,0,4.153,1.008,11.635,11.635,0,0,0,3.62-.64,7.479,7.479,0,0,0,4.968-4.364,11.82,11.82,0,0,0,1.218-7.756,34.368,34.368,0,0,1-.508-4.451c-.1-1.306-.552-1.744-1.858-1.481-1.34.263-2.664.6-4,.911-1.727.4-2.226.07-2.524-1.682a5.185,5.185,0,0,1,.175-3.313c2.016-.017,4.1-.052,6.178-.044,2.62.009,5.241.1,7.861.053a17.416,17.416,0,0,0,3.268-.526C947.967,184.4,948.362,184.872,948.4,185.722Z" fill="#d9dadc"/>
        <path id="Path_158" data-name="Path 158" d="M891.137,207.761c-.07-1.437-.28-2.865-.4-4.294-.184-2.129-.368-4.25-.543-6.379-.263-3.085-.526-6.161-.824-9.237-.306-3.119-.806-6.222-1.1-9.341-.578-6.047-1.016-12.111-1.639-18.149a18.072,18.072,0,0,0-1.463-6.432,1.485,1.485,0,0,0-1.919-1.017c-3.155.465-6.283,1.306-9.526.938a3.823,3.823,0,0,0-1.516.342,1.21,1.21,0,0,0-.894,1.507c.219,1.682.281,3.382.544,5.065a77.119,77.119,0,0,1,1.4,14.608c-.07,1.972-.079,3.953-.123,5.924a6,6,0,0,1-1.139-1.682c-2.445-4.172-4.916-8.325-7.353-12.5-.823-1.411-1.612-2.839-2.331-4.3-1.376-2.813-2.664-5.661-4.031-8.474-.71-1.455-.859-1.481-2.445-1.122a21.663,21.663,0,0,1-5.345.745,9.559,9.559,0,0,1-1.394-.114,29.322,29.322,0,0,0-3.733-.105c-.894-.018-1.341.385-1.314,1.3.122,3.908-.509,7.878.981,11.681a3.844,3.844,0,0,1,.193,1.148c.175,3.2.307,6.4.508,9.6.2,3.181.473,6.362.71,9.534.175,2.349.517,4.715.631,7.063.044.894.061,1.788.018,2.682a53.912,53.912,0,0,0,.552,7.379c.219,2.523.534,5.056.534,7.58s.649,3.409,3.164,3.4c1.095-.009,2.2-.14,3.3-.167,2.209-.052,4.417-.043,6.625-.131,1-.044,1.306-.552,1.192-1.542-.21-1.814-.394-3.628-.569-5.442-.544-5.5-1.192-10.989-1.569-16.5-.263-3.82-.166-7.676-.219-11.514.184-.009.368-.027.552-.036.4.947.868,1.885,1.209,2.857a223.433,223.433,0,0,0,9.43,22.785q1.905,3.944,3.8,7.878c.35.727.885.824,1.63.613a40.484,40.484,0,0,1,9.3-1.174c1.665-.088,3.312-.429,5.135-.675C891.155,210.452,891.208,209.1,891.137,207.761Z" fill="#001d33"/>
        <path id="Path_159" data-name="Path 159" d="M835.491,157.995c.087,1.472.245,2.962.236,4.452-.008,1.7-.28,1.9-1.954,1.963-1.954.061-3.917.1-5.871.2a13.069,13.069,0,0,0-1.972.429c.079,1.876.167,3.62.219,5.364.044,1.761.053,3.514.07,5.266,0,.4-.07.789-.079,1.183-.14,4.706-.333,9.412-.359,14.127-.009,1.735.473,3.479.6,5.223.193,2.865.289,5.74.412,8.6.052,1.227.07,2.463.114,3.795.832.026,1.533.043,2.226.087,1.358.079,2.725.132,4.066.316.368.052.973.552.964.841-.009,1.674,1.227,3.479-.377,4.942-1.8.079-3.567.22-5.328.22-2.016,0-4.022-.167-6.038-.176-1.367,0-2.734.176-4.1.228-1.227.053-2.463.044-3.7.044-.64-.009-1.28-.1-1.911-.079-1.332.044-1.936-.447-2.077-1.718-.07-.648-.236-1.279-.3-1.927a1.957,1.957,0,0,1,2.226-2.288,12.747,12.747,0,0,0,2.086-.017c1.945-.184,3.882-.4,5.933-.622-.587-14.653-.833-29.252-2.436-44.106a2.394,2.394,0,0,0-2.375-.412,12.958,12.958,0,0,1-7.87-.561c-.2-1.463-.438-2.874-.587-4.285-.131-1.2.307-1.665,1.464-1.8,1.971-.228,3.943-.491,5.915-.736a2.463,2.463,0,0,1,.569-.009c3.2.508,6.468.175,9.658,1.131,1.559.473,3.373.14,5.065.1,1.428-.035,2.857-.193,4.294-.219A4.055,4.055,0,0,1,835.491,157.995Z" fill="#001d33"/>
        <path id="Path_160" data-name="Path 160" d="M806.239,181.068a4.562,4.562,0,0,1,.158,1.753c-.517,4.268-.167,8.667-1.656,12.777-.789,2.182-1.35,4.46-2.7,6.45-.858,1.279-1.3,2.821-2.488,3.934-.85.789-1.595,1.692-2.393,2.533a2.339,2.339,0,0,1-.438.4c-1.919,1.227-3.882,2.384-5.757,3.672a15.477,15.477,0,0,1-7.554,2.366,31.245,31.245,0,0,1-3.137.018v.131c-3.006-.14-6-.316-9.009-.4a1.361,1.361,0,0,1-1.49-1.429c-.1-1.042-.123-2.094-.175-3.137-.088-1.893-.2-3.786-.237-5.678-.044-2.34-.009-4.68-.017-7.02-.009-2.6.044-5.205-.027-7.8l2.051-.053c0,.535.044,1.069.079,1.6.184,2.673.517,5.337.552,8,.035,3.584.622,7.16.175,10.753a.978.978,0,0,0,.027.578,3.042,3.042,0,0,0,.858,1.122,3.419,3.419,0,0,0,1.508.306,58.358,58.358,0,0,0,9.981-.333c2.533-.306,4.6-1.761,7-2.3,3.952-2.752,7.133-6.108,8.649-10.8,1.087-3.338,2.173-6.677,3.225-10.025a16.483,16.483,0,0,0,.386-8.973l1.831-.517C805.845,179.684,806.037,180.376,806.239,181.068Z" fill="#001d33"/>
        <path id="Path_161" data-name="Path 161" d="M805.643,178.992l-1.831.517c-.106-.4-.219-.815-.36-1.218a25.991,25.991,0,0,0-9.061-12.278c-1.525-1.174-3.26-2.471-5.065-2.787-3.365-.587-6.634-1.647-10.183-1.568l-.053-2.077a1.106,1.106,0,0,0,.29-.035c2.585-.64,5.056.289,7.562.57a30.736,30.736,0,0,1,8.264,2.278,13.493,13.493,0,0,1,7.957,8.369C804.083,173.471,804.863,176.231,805.643,178.992Z" fill="#001d33"/>
        <path id="Path_162" data-name="Path 162" d="M803.812,179.509a16.483,16.483,0,0,1-.386,8.973c-1.052,3.348-2.138,6.687-3.225,10.025-1.516,4.689-4.7,8.045-8.649,10.8-2.4.543-4.469,2-7,2.3a58.358,58.358,0,0,1-9.981.333,3.419,3.419,0,0,1-1.508-.306,3.042,3.042,0,0,1-.858-1.122.978.978,0,0,1-.027-.578c.447-3.593-.14-7.169-.175-10.753-.035-2.664-.368-5.328-.552-8-.035-.526-.079-1.06-.079-1.6a7.3,7.3,0,0,1,.035-.753c.622-5.723-.4-11.331-1.2-16.948a33.1,33.1,0,0,1,.1-9.351c2.909-1.025,5.687-.745,8.474-.867.123,0,.245-.009.368-.009,3.549-.079,6.818.981,10.183,1.568,1.8.316,3.54,1.613,5.065,2.787a25.991,25.991,0,0,1,9.061,12.278C803.593,178.694,803.706,179.1,803.812,179.509Z" fill="#d9dadc"/>
        <path id="Path_163" data-name="Path 163" d="M779.09,159.581l.053,2.077c-.123,0-.245.009-.368.009-2.787.122-5.565-.158-8.474.867a33.1,33.1,0,0,0-.1,9.351c.8,5.617,1.822,11.225,1.2,16.948a7.3,7.3,0,0,0-.035.753l-2.051.053c-.008-.666-.035-1.341-.07-2.007-.114-2.41-.648-4.793-.841-7.194-.289-3.576-.526-7.151-.605-10.735a26.631,26.631,0,0,0-.946-6.967c-.859-2.953.2-3.111,2.857-3.348,1.84-.166,3.715-.079,5.573-.07.912,0,1.823.079,2.734.132C778.372,159.467,778.749,159.581,779.09,159.581Z" fill="#001d33"/>
        <path id="Path_164" data-name="Path 164" d="M762.957,210.864c.587,1.4.36,1.743-1.191,1.936-2.91.351-5.819.684-8.729,1.052-.639.079-1.27.263-1.9.4a2.3,2.3,0,0,1-2.936-1.849c-.868-5.477-3.041-10.534-4.925-15.686l2.112-.763c.149.447.315.885.491,1.323,1.218,3.024,2.576,5.986,3.856,8.992.587,1.375,1.086,2.795,1.717,4.153a1.508,1.508,0,0,0,1.648,1.1c2.243-.316,4.5-.57,6.835-.868a10.829,10.829,0,0,0-.368-1.1c-2.059-4.653-4.163-9.289-6.2-13.951-2.453-5.626-4.688-11.357-7.746-16.694-.36-.622-.623-1.3-.921-1.955-1.34-2.9-2.593-5.845-4.031-8.693s-3.067-5.617-4.635-8.4a17.461,17.461,0,0,0-4.286-4.933,6.272,6.272,0,0,0-.613,1.06q-2.458,7.243-4.864,14.486a2.616,2.616,0,0,0-.131.578l-1.762-.342c.184-.929.369-1.849.614-2.76,1.148-4.259,2.4-8.492,3.628-12.742.175-.622.438-1.227.657-1.84a2.811,2.811,0,0,1,2.515-1.893,2.4,2.4,0,0,1,2.375,1.4,188.26,188.26,0,0,1,11.173,19.788c.622,1.3,1.157,2.628,1.762,3.934,1.647,3.549,3.277,7.107,4.995,10.621,1.463,3,3.137,5.889,4.548,8.9,1.472,3.128,2.734,6.353,4.092,9.534C761.476,207.393,762.239,209.12,762.957,210.864Z" fill="#001d33"/>
        <path id="Path_165" data-name="Path 165" d="M745.387,195.957l-2.112.763c-.2-.544-.394-1.087-.587-1.63a1.519,1.519,0,0,0-1.7-1.227,10.7,10.7,0,0,0-1.77.061,12.112,12.112,0,0,1-5.635.009,9.39,9.39,0,0,0-2.13-.026A139.969,139.969,0,0,0,727.7,211.6l-1.928-.29c.385-3.023.718-6.064,1.095-9.1.088-.71.272-1.4.412-2.1a51.537,51.537,0,0,0,1.218-6.125,5,5,0,0,1,1.56-3.655c1.35,0,2.717.035,4.084-.009,2.4-.078,4.8-.166,7.194-.333a2.407,2.407,0,0,1,2.752,1.911C744.519,193.249,744.914,194.616,745.387,195.957Z" fill="#001d33"/>
        <path id="Path_166" data-name="Path 166" d="M739.586,182.532a10.557,10.557,0,0,1,.508,1.937c-3.751,1.148-7.352.683-10.919.7-1.84.008-2.322-.912-1.7-2.682s1.025-3.593,1.481-5.407c.482-1.954.859-3.917,1.2-5.9.132-.737.228-1.438,1.122-1.569a2.051,2.051,0,0,1,2.226.9c.833,1.4,1.621,2.83,2.349,4.285Q737.772,178.642,739.586,182.532Zm-8.948.2c2.226.789,4.154.018,6.143.053-.28-1.91-3.706-8.956-4.968-10.034C731.778,176.31,730.209,179.438,730.638,182.733Z" fill="#001d33"/>
        <path id="Path_167" data-name="Path 167" d="M725.775,211.31l1.928.29q-.237,1.617-.421,3.26c-1.8.087-3.6.271-5.389.245-2.217-.044-4.435-.254-6.652-.394-.929-.062-1.481-.491-1.358-1.508a29.443,29.443,0,0,1,.614-4.425,98.458,98.458,0,0,0,2.97-14.941,36.037,36.037,0,0,1,1.841-6.573c1.332-4.092,2.83-8.132,4.083-12.251.43-1.4.7-2.857.99-4.3l1.762.342a28.354,28.354,0,0,1-1.376,6.476c-1.358,4.759-2.436,9.6-3.742,14.372-1.384,5.109-2.9,10.174-3.829,15.388-.193,1.1-.491,2.165-.675,3.26-.114.675.026,1.428.859,1.49,2.41.184,4.828.263,7.238.368C725.354,212.441,725.7,211.941,725.775,211.31Z" fill="#001d33"/>
        <path id="Path_168" data-name="Path 168" d="M709.046,208.787c-.176,1.393-.307,2.664-.491,3.917a2.38,2.38,0,0,1-2.3,1.761,48.657,48.657,0,0,1-5.039-.517,58.3,58.3,0,0,0-11.909-.806,26.057,26.057,0,0,1-2.752-.044c-2.865-.184-5.722-.4-8.588-.578a2.783,2.783,0,0,0-.937.21c-2.419.763-3.839-.482-3.655-3,.132-1.744-.079-3.514-.1-5.267-.053-5.082-.105-10.165-.1-15.239,0-1.165.3-2.322.376-3.479.1-1.56.132-3.12.149-4.688.044-3.97.193-7.94.062-11.91-.158-4.627.341-9.28-.474-13.889a3.5,3.5,0,0,1,.912-2.918c1.919.333,3.952-.149,6.02.271a9.913,9.913,0,0,0,3.7-.017,52.569,52.569,0,0,1,9.526-.386,83.625,83.625,0,0,1,8.711.85c.78.079,1.568.079,2.348.2,1,.157,1.981.394,3.1.631-.227,1.165-.35,2.059-.578,2.927-.175.674-.719.815-1.393.8q-4.4-.157-8.816-.228c-1.157-.017-2.322.1-3.488.14a22.185,22.185,0,0,1-6.94-.683c-1.963-.526-4.154-.219-6.24-.246-.981-.008-1.49.553-1.481,1.648.044,3.549.175,7.107.167,10.656,0,1.761-.255,3.523-.333,5.284a14.178,14.178,0,0,0,.192,2.025,89.991,89.991,0,0,0,14.223-.351,42.3,42.3,0,0,1,13.241.762,5.219,5.219,0,0,1,.737.316c.122,1.683.254,3.172.35,4.662a1.077,1.077,0,0,1-1.148,1.271,4.426,4.426,0,0,1-.587-.018c-5.346-.236-10.682-.491-16.028-.71-2.612-.1-5.223-.157-7.834-.157-2.253-.009-2.866.631-3,2.848-.263,4.522-.6,9.035-.789,13.556-.1,2.4.009,4.82.052,7.23a5.472,5.472,0,0,0,.29,1.087c2.541-.079,5.047.683,7.6.009a3.3,3.3,0,0,1,.956-.167c3.768.21,7.536.377,11.295.684a39.631,39.631,0,0,0,7.554.166A4.779,4.779,0,0,1,709.046,208.787Z" fill="#001d33"/>
        <path id="Path_169" data-name="Path 169" d="M670.444,210.276c.385.877.026,1.289-.938,1.446a32.419,32.419,0,0,1-8.93-.175,20.165,20.165,0,0,0-8.369.438c-1.919.6-2.085.526-2.646-1.367a8.14,8.14,0,0,0-1.735-2.778c-2.27-2.839-3.479-6.266-5.241-9.385-1.787-3.173-3.347-6.5-6.046-9.57a7.582,7.582,0,0,0-.237,1.8c.237,1.875.71,3.724.832,5.6.342,5.416.553,10.849.8,16.274.026.578-.044,1.157-.088,1.98-1.857.149-3.619.3-5.389.43-.894.07-1.8.14-2.69.14-1.429,0-2.848-.079-4.277-.1-1.051-.018-2.094.026-3.146.008-.9-.017-1.8-.079-2.883-.122a7.166,7.166,0,0,1-.018-2.445,11.511,11.511,0,0,0,.807-3.5l2.226.219c-.176,1.849.122,2.2,1.971,2.27,2.226.079,4.452.131,6.669.307,1.753.14,2.086-.062,1.946-1.823a72.71,72.71,0,0,1-.237-11.313,38.322,38.322,0,0,0-.394-10.551c-.544-2.664.1-5.188.254-7.765.1-1.752.4-1.8,2.331-1.63.412.736.762,1.516,1.235,2.209a70.775,70.775,0,0,1,4.9,7.79c1.183,2.322,2.629,4.513,3.917,6.783,1.516,2.664,3.015,5.337,4.443,8.045a17.362,17.362,0,0,1,1.183,3.1,2.564,2.564,0,0,0,2.358,1.945c3.1.526,6.125-.1,9.166-.42a10.953,10.953,0,0,0,2.313-.763c-1.875-3-3.768-5.74-5.354-8.649a67.719,67.719,0,0,0-5.056-7.8l1.893-1.42c1.77,2.366,3.522,4.732,5.24,7.133,2.655,3.725,5.205,7.519,7.791,11.3A15.678,15.678,0,0,1,670.444,210.276Z" fill="#001d33"/>
        <path id="Path_170" data-name="Path 170" d="M664.528,207.358a10.953,10.953,0,0,1-2.313.763c-3.041.315-6.064.946-9.166.42a2.564,2.564,0,0,1-2.358-1.945,17.362,17.362,0,0,0-1.183-3.1c-1.428-2.708-2.927-5.381-4.443-8.045-1.288-2.27-2.734-4.461-3.917-6.783a70.775,70.775,0,0,0-4.9-7.79c-.473-.693-.823-1.473-1.235-2.209-1.928-.166-2.235-.122-2.331,1.63-.149,2.577-.8,5.1-.254,7.765a38.322,38.322,0,0,1,.394,10.551,72.71,72.71,0,0,0,.237,11.313c.14,1.761-.193,1.963-1.946,1.823-2.217-.176-4.443-.228-6.669-.307-1.849-.07-2.147-.421-1.971-2.27a60.913,60.913,0,0,0,.631-7.957c-.211-5.854.341-11.69-.044-17.553-.289-4.478.236-9.008.333-13.513q.131-6.322.114-12.636c-.009-1.5-.272-2.988-.307-4.478a1.7,1.7,0,0,1,.57-1.315c1.612-.823,3.3-1.5,4.951-2.261,1.752-.806,3.488-.043,5.205.079,3.374.246,6.73.824,10.113,1.043,3.794.237,6.082,2.392,7.712,5.512a20.067,20.067,0,0,1,1.069,2.945,4.507,4.507,0,0,1-1.052,4.67c-1.025,1.175-1.919,2.463-3,3.567a41.019,41.019,0,0,1-4.057,3.654,9.087,9.087,0,0,1-2.331.973c-1.359.517-1.56,1.183-.745,2.305,1.262,1.744,2.462,3.531,3.733,5.267,1.744,2.366,3.453,4.758,5.31,7.036,1.175,1.446,2.332,2.91,3.436,4.4a67.719,67.719,0,0,1,5.056,7.8C660.76,201.618,662.653,204.361,664.528,207.358Zm-21.172-44.771a6.444,6.444,0,0,0-1.892-6.616c-1.017-.991-2.139-2.183-3.891-1.963-.237-.027-.535-.149-.745-.062-1.919.815-3.856,1.613-5.714,2.533a1.935,1.935,0,0,0-.885,1.384,12.332,12.332,0,0,0,.535,5.232A5.915,5.915,0,0,0,638.1,166.6c1.245-.482,2.437-1.1,3.655-1.673A3.221,3.221,0,0,0,643.356,162.587Z" fill="#d9dadc"/>
        <path id="Path_171" data-name="Path 171" d="M656.011,189.49l-1.893,1.42c-1.1-1.49-2.261-2.954-3.436-4.4-1.857-2.278-3.566-4.67-5.31-7.036-1.271-1.736-2.471-3.523-3.733-5.267-.815-1.122-.614-1.788.745-2.305a9.087,9.087,0,0,0,2.331-.973,41.019,41.019,0,0,0,4.057-3.654c1.078-1.1,1.972-2.392,3-3.567a4.507,4.507,0,0,0,1.052-4.67,20.067,20.067,0,0,0-1.069-2.945c-1.63-3.12-3.918-5.275-7.712-5.512-3.383-.219-6.739-.8-10.113-1.043-1.717-.122-3.453-.885-5.205-.079-1.648.763-3.339,1.438-4.951,2.261a1.7,1.7,0,0,0-.57,1.315c.035,1.49.3,2.979.307,4.478q.012,6.322-.114,12.636c-.1,4.505-.622,9.035-.333,13.513.385,5.863-.167,11.7.044,17.553a60.913,60.913,0,0,1-.631,7.957l-2.226-.219c.157-1.656.087-3.339.192-5a81.671,81.671,0,0,0-.087-9.385c-.175-3.383-.6-6.766-.815-10.148-.1-1.534.088-3.094.026-4.636a40.36,40.36,0,0,0-.534-6.353,17.087,17.087,0,0,1-.176-4.855c.079-1.1.141-2.217.193-3.321.1-1.876.1-3.76.289-5.626.325-3.164.736-6.319,1.183-9.474.149-1.06.509-2.094.789-3.224,2.147-.053,4.1,0,6.029-.158,2.717-.228,5.416-.71,8.132-.868a15.82,15.82,0,0,1,4.671.43c3.593.911,7.169,1.945,10.683,3.1a5.373,5.373,0,0,1,3.295,3.917c.587,2.042,1.043,4.145,1.428,6.239a8.322,8.322,0,0,1-.8,5.346,40.375,40.375,0,0,1-2.41,4.443c-1.271,1.875-3.541,2.375-5.355,3.5-.6.376-1.262.648-2.006,1.025,1.542,2.436,2.9,4.732,4.408,6.923,1.148,1.665,2.515,3.181,3.733,4.8C654.083,186.922,655.047,188.2,656.011,189.49Z" fill="#001d33"/>
        <path id="Path_172" data-name="Path 172" d="M641.464,155.971a6.444,6.444,0,0,1,1.892,6.616,3.221,3.221,0,0,1-1.6,2.34c-1.218.569-2.41,1.191-3.655,1.673a5.915,5.915,0,0,1-7.334-3.505,12.332,12.332,0,0,1-.535-5.232,1.935,1.935,0,0,1,.885-1.384c1.858-.92,3.795-1.718,5.714-2.533.21-.087.508.035.745.062C639.325,153.788,640.447,154.98,641.464,155.971Zm-1.07,6.931a3.508,3.508,0,0,0,.368-2.41,5.579,5.579,0,0,0-2.339-3.671c-.973-.815-1.946-.36-2.883.219-.149.1-.377.061-.57.122-1.385.438-2.515,1.218-2.165,3.181a5.626,5.626,0,0,0,.027.938,5.141,5.141,0,0,0,2.453,3.619c1.008.64,2,0,2.805-.753a.722.722,0,0,1,.359-.149A2.509,2.509,0,0,0,640.394,162.9Z" fill="#001d33"/>
        <path id="Path_173" data-name="Path 173" d="M964.409,198.358a7.318,7.318,0,0,0,1.041,3.333c.862,2.059,2.13,3.794,4.339,4.475,3.135,1.088,7.261.8,9.367-2.014,5.093-5.552,4.272-10.657,1.732-17.163-1.517-3.417-5.356-5.012-8.51-6.585a18.612,18.612,0,0,1-11.734-15.566c-.285-2.791-.394-5.608.692-8.236a12.814,12.814,0,0,1,4.533-5.105c6.352-3.532,13.608-1.747,15.132-1.068,6.386,2.846,6.989,5.494,7.774,10.308.083.509.216,3.128.243,3.644.035.659.871.276,2.117.208,1.284-.069,3.5-.085,3.564.455.122,1,.118,3.011.115,4.022-.041.35-1.679.218-2.347.207-4.644.06-12.878.371-13.271-.172s-.121-2.306-.17-3.436c-.025-.606-.073-1.076.849-1.1,1.678-.042,4.935.422,4.953-.008.234-5.627-.565-7.987-4.521-10.416-2.733-1.679-8.746-.833-11.11,1.464-1.85,1.8-2.233,4.12-2.253,6.876-.019,2.589.41,5.279,2.343,7.191,4.346,5.144,11.375,6.961,15.562,12.215a23.218,23.218,0,0,1,2.934,5.957,23.9,23.9,0,0,1,1.3,8.534c-.348,5.689-2.4,10.863-5.241,12.772a18.419,18.419,0,0,1-11.974,3.609c-4.65-.027-10.915-2.128-11.994-4.616-.969-2.235-2.175-4.263-3.045-6.478-.208-.682-.372-2.45-.925-2.892-.347-.278-5.333.261-5.449-.313-.318-1.568.029-3.641,0-5.24-.01-.569,2.244-.388,3.321-.541,3.3.164,5.945-.119,9.874-.14,2.027-.011,4.928-.036,6.761-.118a20.341,20.341,0,0,1,.555,5.553C970.851,198.319,965.865,198.049,964.409,198.358Z" fill="#001d33"/>
      </g>
    </g>
  </g>
</svg>
