<svg
  xmlns="http://www.w3.org/2000/svg"
  width="50"
  height="38"
  viewBox="0 0 50 38"
>
  <rect
    id="Rectangle_45"
    data-name="Rectangle 45"
    width="50"
    height="38"
    fill="none"
  />
  <path
    id="Path_851"
    data-name="Path 851"
    d="M14.786,135.541a261.013,261.013,0,0,0,37.312-.823c3.125-.294,3.156-5.214,0-4.919a261.006,261.006,0,0,1-37.312.823c-3.165-.156-3.156,4.763,0,4.919"
    transform="translate(-8.415 -125.814)"
    fill="#002742"
  />
  <path
    id="Path_852"
    data-name="Path 852"
    d="M15.672,142.491a248.676,248.676,0,0,0,36.2-.639c3.257-.293,3.288-5.217,0-4.919a248.678,248.678,0,0,1-36.2.639c-3.3-.182-3.285,4.739,0,4.919"
    transform="translate(58.329 159.895) rotate(180)"
    fill="#002742"
  />
  <path
    id="Path_853"
    data-name="Path 853"
    d="M15.658,150.476c12.125-.161,24.25-.371,36.375-.53,3.161-.043,3.171-4.962,0-4.919-12.125.159-24.25.369-36.375.53-3.163.043-3.171,4.962,0,4.919"
    transform="translate(-9.282 -116.066)"
    fill="#002742"
  />
</svg>