<svg width="51" height="44" viewBox="0 0 69 60" fill="none" xmlns="http://www.w3.org/2000/svg"><path d="M9.38 52.953c12.89 0 25.791-.193 38.64-1.104 4.682-.385 9.458-.307 14.037-1.417.89-.375.218-3.198.526-4.229.536-2.885-2.391-26.443 4.28-20.885 3.006 4.093 2.168 9.005 1.402 13.692a71.57 71.57 0 0 1-1.49 16.115c-.213 1.375-.208 3.578-2.135 3.411-6.589.042-13.099 1.198-19.719.948-8.4.386-16.635-2.453-24.916-.666C12.937 57.65.88 62.823 1.311 51.198.624 44.078.672 36.938.16 29.812c-.016-.828.27-1.104 1.135-1.296 2.521-1.75 5.302 1.552 5.448 4 .636 1.51-.02 3.12.02 4.708-.603 2.932.46 5.958.944 8.865.854 1.88-.766 6.4 1.672 6.87" fill="#141F2C"/><path d="M30.764 29.963c-.22-8.39-1.068-16.973-1.568-25.468a1.728 1.728 0 0 1 .588-1.912c1.485-.65 4.141-3.083 5.318-1.052 3.5 7.547 1.802 16.604 1.906 24.703 4.162-3.562 11.052-7 8.021 2.037-2.911 4.24-5.302 9.385-9.417 12.708-1.026.813-1.687-.635-2.552-.844-5.135-1.895-9.432-6.484-13.198-10.432-5.859-11.52 7.11-2.276 10.902.26Z" fill="#141F2C"/></svg>