<?xml version="1.0" encoding="UTF-8"?>
<svg id="Layer_2" data-name="Layer 2" xmlns="http://www.w3.org/2000/svg" viewBox="0 0 51.68 44.09">
  <defs>
    <style>
      .cls-1 {
        fill: #fff;
      }

      .cls-2 {
        fill: #061e31;
      }
    </style>
  </defs>
  <g id="Layer_1-2" data-name="Layer 1">
    <g>
      <path id="Path_9934" data-name="Path 9934" class="cls-1" d="m6.91,39.16c-1.85-.35-.6-3.74-1.26-5.15-.36-2.18-1.16-4.45-.71-6.65-.03-1.19.46-2.4-.02-3.53-.11-1.83-2.19-4.31-4.09-3-.65.15-.86.35-.85.97.38,5.35.35,10.7.86,16.04-.32,8.72,8.72,4.84,14.02,5.71,6.21-1.33,12.39.79,18.69.5,4.96.19,9.85-.68,14.79-.71,1.44.12,1.44-1.53,1.6-2.56,1.35-5.01.68-10.2,1.57-15.26.44-2.47-.1-5.01-1.51-7.09-4.97-4.21-2.84,13.52-3.21,15.66-.2.76.23,2.91-.39,3.17-3.43.83-7.02.77-10.53,1.06-9.64.69-19.31.83-28.98.83m16.04-17.24c-2.84-1.9-12.57-8.84-8.18-.19,2.83,2.96,6.05,6.4,9.9,7.83.64.15,1.15,1.25,1.91.63,3.09-2.49,4.88-6.35,7.06-9.53,2.27-6.77-2.88-4.21-6.02-1.53-.07-6.07,1.2-12.86-1.42-18.52-.89-1.53-2.88.31-4,.79-.44.34-.61.91-.44,1.43.37,6.37,1.01,12.81,1.17,19.1"/>
      <path id="Path_9935" data-name="Path 9935" class="cls-2" d="m6.91,39.16c9.67,0,19.34-.14,28.98-.83,3.51-.29,7.09-.23,10.53-1.06.67-.28.17-2.4.4-3.17.4-2.16-1.79-19.83,3.21-15.66,2.25,3.07,1.62,6.75,1.05,10.27.09,4.06-.29,8.11-1.12,12.08-.16,1.03-.15,2.68-1.6,2.56-4.94.03-9.82.9-14.79.71-6.3.29-12.48-1.84-18.69-.5-5.3-.88-14.34,3.01-14.02-5.71C.35,32.51.38,27.15,0,21.81c-.01-.62.2-.83.85-.97,1.89-1.31,3.98,1.16,4.08,3,.48,1.13-.01,2.34.02,3.53-.45,2.2.34,4.47.71,6.65.64,1.41-.57,4.8,1.26,5.15"/>
      <path id="Path_9936" data-name="Path 9936" class="cls-2" d="m22.95,21.92c-.16-6.29-.8-12.73-1.17-19.1-.17-.52,0-1.1.44-1.43,1.12-.49,3.11-2.31,3.99-.79,2.62,5.66,1.35,12.45,1.43,18.53,3.12-2.67,8.29-5.25,6.02,1.53-2.18,3.18-3.97,7.04-7.06,9.53-.77.61-1.27-.48-1.91-.63-3.85-1.42-7.07-4.87-9.9-7.83-4.39-8.64,5.33-1.71,8.18.19"/>
    </g>
  </g>
</svg>