<svg xmlns="http://www.w3.org/2000/svg" width="449.158" height="485.348" viewBox="0 0 449.158 485.348">
  <g id="Layer_2" data-name="Layer 2" transform="translate(-1666.373 -48.638)">
    <path id="Path_51" data-name="Path 51" d="M1972.06,174.132q.306,8.346.612,16.691a3.829,3.829,0,0,1-4.807,4.083,29.756,29.756,0,0,0-15.221.459,8.119,8.119,0,0,1-2.084.3c-1.918.017-2.417-.572-2.69-2.429-1.008-6.855-.767-13.753-.831-20.644-.02-2.1-.266-4.206-.313-6.311a22.643,22.643,0,0,1,.22-3.707A51.583,51.583,0,0,1,1950,150.027a36.76,36.76,0,0,1,6.213-10.712,28.056,28.056,0,0,1,7.045-5.6c5.388-3.154,11.312-4.957,17.194-6.726,3.635-1.094,7.542-1.909,11.426-.18,2.4,1.066,5.287.624,7.576,2.162,2.835,1.9,6.374,1.841,9.333,3.407,2.447,1.295,4.941,2.5,7.409,3.756,5.1,2.6,7.894,7.1,9.793,12.226,1.4,3.79,2.33,7.763,3.822,11.514,1.855,4.665,2.292,9.6,3.115,14.445.6,3.536.426,7.2.645,10.8.124,2.032.521,4.061.493,6.086-.1,7.28-.207,14.564-.553,21.835-.21,4.409-1.224,8.8-1.212,13.193.011,3.836-1.314,7.408-1.385,11.21-.044,2.375-1.093,4.723-1.606,7.1-.279,1.291-.307,2.635-.572,3.93-1.5,7.329-3.525,14.464-7.61,20.868a21.257,21.257,0,0,1-5.409,5.8,40.678,40.678,0,0,1-11.351,5.751c-2.426.8-4.827,1.68-7.273,2.411a17.168,17.168,0,0,1-3.114.428c-1.738.183-3.476.406-5.22.475a18.4,18.4,0,0,1-3.128-.289c-3.071-.412-6.139-.846-9.207-1.278-3.392-.478-6.084-2.3-8.544-4.524a63.3,63.3,0,0,1-4.6-4.4,23.453,23.453,0,0,1-2.286-3.509,24.029,24.029,0,0,1-2.5-4.256c-1.309-3.679-3.573-6.936-4.679-10.666a57.992,57.992,0,0,1-1.746-8.3c-.384-2.705-.341-5.467-.65-8.186-.427-3.763-.959-7.517-1.542-11.259a2.89,2.89,0,0,1,2.827-3.557,55.361,55.361,0,0,1,9.47,1.034,1.967,1.967,0,0,0,1.263-.065c2.183-1.2,4.58-.972,6.919-1.131,3.216-.218,4.921,1.333,5.186,4.509.221,2.635.559,5.264.937,7.882a8.819,8.819,0,0,0,.833,2.467c1.466,3.082,2.621,6.328,5.061,8.886.934.98,1.389,2.411,2.305,3.415,3.241,3.552,7.535,4.206,12.056,4.1a2.3,2.3,0,0,0,.792-.083c4.97-2.04,9.12-4.923,11.106-10.251a57.139,57.139,0,0,0,3.186-16.589,94.384,94.384,0,0,0,.322-11.108c-.38-6.724.428-13.427.153-20.122a78.509,78.509,0,0,0-1.769-13.133c-1.161-5.432-2.228-10.927-4.608-16.025-1.256-2.689-2.316-5.487-3.781-8.055a17.757,17.757,0,0,0-4.946-5.954,36.619,36.619,0,0,0-5.779-3.385,12.423,12.423,0,0,0-7.127-1.022c-2.154.285-4.361.25-6.214,1.728-3.246,2.59-5.567,5.734-5.714,10-.15,4.343-.033,8.7-.033,13.045Zm-7.773,13.335c-.053-1.079-.081-2.3-.18-3.525-.289-3.587-.677-7.168-.9-10.759-.493-8.059,2.1-15,7.02-21.43,3.7-4.844,8.425-7.047,14.133-7.811a32.853,32.853,0,0,1,4.34-.092,1.232,1.232,0,0,1,.71.289c2.187,1.816,5.034,2.085,7.539,3.148,1.5.636,3.095,1.032,4.3,2.166,2.416,2.265,5.344,4.06,6.749,7.274.247.564.68,1.047.934,1.609,1.415,3.134,3.167,6.175,4.107,9.449a134.545,134.545,0,0,1,2.688,13.232c.566,3.123.9,6.288,1.465,9.41a63.637,63.637,0,0,1,1.406,13.463c-.1,3.253-.618,6.541-.3,9.748a48.125,48.125,0,0,1-.609,12.314c-.793,5.07-1.675,10.132-2.732,15.153a34,34,0,0,1-2.248,6.51,48.525,48.525,0,0,1-7.909,12.523c-2.344,2.683-5.731,3.135-9,3.723-.078.014-.169-.049-.253-.077a71.461,71.461,0,0,1-7.72-2.641c-3.4-1.588-6.581-3.621-9.914-5.351a17.537,17.537,0,0,1-8.606-10.273,26.767,26.767,0,0,1-.734-3.887c-.453-2.4-.918-4.8-1.38-7.216-1.554-.126-2.788-.2-4.014-.334s-2.429-.335-3.786-.528c0,1.572.012,2.726,0,3.88-.046,3.692-.038,7.365,1.934,10.7a5.314,5.314,0,0,1,.318,1.512,23.877,23.877,0,0,0,.909,3.856c1.66,4.062,3.213,8.2,5.251,12.069,2.587,4.916,6.414,8.573,12.178,9.63.511.094,1.266.121,1.461.447.719,1.2,2.015,1,2.867.927,2.336-.2,4.787.126,6.979-1.208a10.149,10.149,0,0,1,3.037-.963c4.945-1.109,8.776-4.164,12.471-7.331,2.212-1.9,4.014-4.267,6.062-6.364,4.5-4.6,7.408-10.147,9.651-16.095.843-2.234,1.805-4.43,2.5-6.708a80.662,80.662,0,0,0,2.1-8.244c.672-3.473,1.268-6.977,1.59-10.5.3-3.218,0-6.491.3-9.708.411-4.425-.128-8.8-.316-13.188a19.26,19.26,0,0,0-.384-3.158c-.88-4.15-1.83-8.286-2.72-12.434-.873-4.067-1.626-8.161-2.588-12.207-.509-2.141-1.449-4.176-2.025-6.3-1.587-5.87-3.026-11.742-7.085-16.61a47.068,47.068,0,0,0-7.271-7.656,17.593,17.593,0,0,0-9.035-3.373c-2.966-.322-5.943-.543-8.919-.764a55.252,55.252,0,0,0-8.518-.462c-4.019.332-8.046.951-11.617,3.173-3.152,1.961-6.4,3.722-8.646,6.867-3.216,4.5-5.956,9.15-7.03,14.716a114.5,114.5,0,0,0-1.174,12.072,40.264,40.264,0,0,0,1.384,14.68c.548,1.908,1.139,3.809,3.974,3.756a15.645,15.645,0,0,0,4.324-.325C1962.171,188,1963,187.8,1964.287,187.467Z" fill="#001d33"/>
    <path id="Path_52" data-name="Path 52" d="M1829.741,191.586c0-4.26.316-8.55-.08-12.773-.486-5.185-.449-10.456-1.983-15.528a31.773,31.773,0,0,1-1.036-5.471,36.121,36.121,0,0,0-2.433-9.223,12.762,12.762,0,0,0-9.9-8.234c-2.583-.52-5.144-1.151-7.723-1.694-2.849-.6-5.689-1.3-8.569-1.685a9.9,9.9,0,0,0-6.169.975,18.968,18.968,0,0,0-7.106,6.246,26.036,26.036,0,0,0-4.691,14.2c-.035,3.186-.478,6.382-.311,9.551.228,4.316.458,8.674,2.066,12.8a12.513,12.513,0,0,1,.563,2.6c.2,1.271-.206,1.862-1.549,2.534-2.232,1.118-4.518,1.075-6.807,1.266-2.821.236-5.631.245-8.46.765a24.017,24.017,0,0,1-4.857.257,2.757,2.757,0,0,1-2.862-3.278c.281-3.682.595-7.362.814-11.048.057-.956-.311-1.934-.271-2.894.253-6.18.438-12.368.915-18.532a42.143,42.143,0,0,1,1.642-8.283,56.845,56.845,0,0,1,5.932-14.4,17.543,17.543,0,0,1,4.759-5.293c3.325-2.367,6.647-4.774,10.445-6.245a56.676,56.676,0,0,1,8.439-2.1c1.8-.392,3.631-.615,5.448-.913a2.169,2.169,0,0,1,.784-.108c4.123.989,8.2-.736,12.325-.178,1.592.215,3.209.243,4.815.36a15.474,15.474,0,0,0,2.843.188c3.406-.4,6.453,1.073,9.5,2.06,1.71.555,3.847.547,5.19,2.3,2.367,3.086,6.284,4.589,8.417,7.9a150.1,150.1,0,0,1,7.991,13.166c1.409,2.784,1.983,6.042,2.625,9.15a65.928,65.928,0,0,1,1.212,15.093c-.268,10.279-.318,20.563-.6,30.84-.1,3.8-.64,7.592-.891,11.393-.14,2.127-.042,4.268-.154,6.4-.254,4.866-.156,9.8-.965,14.576a56.642,56.642,0,0,1-6.748,18.937c-1.591,2.757-2.89,5.713-4.728,8.288-1.7,2.38-3.487,4.87-6.548,5.864-.638.207-1.112.877-1.734,1.186-2.048,1.018-4.095,2.052-6.207,2.924-2.609,1.077-5.34,1.872-7.914,3.023-2.513,1.125-5.154,1.129-7.782,1.37-.968.088-1.963-.016-2.911.154a17.947,17.947,0,0,1-10.674-.992,40.183,40.183,0,0,0-6.659-1.684c-.345-.082-.767-.015-1.04-.192-3.856-2.484-8.041-4.415-11.218-7.967-3.86-4.317-6.074-9.514-8.777-14.486a31.164,31.164,0,0,1-4.028-13.62c-.2-4.407-.126-8.826-.173-13.239,0-.178,0-.356,0-.534,0-.515,1.129-6.24,1.312-6.663.728-1.685,1.415-2.1,3.227-2.063,1.931.035,3.863-.021,5.792.034a10.959,10.959,0,0,1,1.771.415c2.315.477,4.537,1.339,7.033.781,1.9-.425,3.356,1.035,3.455,3.091.064,1.332.06,2.671.007,4a46.821,46.821,0,0,0,3.418,19.216c.877,2.221,1.914,4.384,2.982,6.521a6.614,6.614,0,0,0,1.641,2.051c2.1,1.761,4.276,3.433,6.43,5.13a3.057,3.057,0,0,0,.908.551c4.678,1.482,9.371,2.637,13.939-.282a15.6,15.6,0,0,0,2.32-2.1,28.891,28.891,0,0,0,6.8-11.025c1.936-5.325,3.649-10.752,5.058-16.238a53.235,53.235,0,0,0,1.163-9.751c.42-6.466.681-12.942,1.008-19.413Z" fill="#001d33"/>
    <path id="Path_53" data-name="Path 53" d="M1829.808,493.531a2.346,2.346,0,0,0,.482-.2,11.011,11.011,0,0,0,2.811-2.643,16.725,16.725,0,0,0,1.426-2.8c.6-1.41,1.183-2.834,1.667-4.288a12.752,12.752,0,0,0,.323-6.273,21.618,21.618,0,0,0-2.621-6.448,1.679,1.679,0,0,1-.034-1.439.808.808,0,0,1,.752-.5c.794-.052,1.582-.177,2.374-.263.742-.081,1.486-.148,2.228-.224.478-.049.954-.118,1.433-.151a1.14,1.14,0,0,1,.972.418,2.691,2.691,0,0,1,.8,1.674c.135,1.129.467,2.232.661,3.356a8.308,8.308,0,0,1,.1,1.734,21.133,21.133,0,0,0,.148,2.791,21.276,21.276,0,0,1-.5,5.673c-.331,1.879-1.087,3.633-1.526,5.479-.345,1.452-.7,2.9-1.069,4.406.922.764,1.8,1.534,2.729,2.248a9.308,9.308,0,0,1,1.747,1.994c.311.423.4,1,.912,1.293.076.043.114.183.138.285.383,1.611.8,3.215,1.122,4.839a15.451,15.451,0,0,1,.149,2.325c.064,1.464.135,2.929.17,4.394.019.777-.029,1.555-.048,2.332a17.488,17.488,0,0,1-.1,2.616c-.211,1.18-.595,2.329-.909,3.491a.572.572,0,0,1-.123.293,6.246,6.246,0,0,0-1.228,2.015,4,4,0,0,1-.423.686,9.9,9.9,0,0,0-1.174,2,10.913,10.913,0,0,1-2.123,3.114,10.024,10.024,0,0,1-2.069,1.586,10.944,10.944,0,0,0-1.317.978c-.189.134-.43.2-.629.318a9.19,9.19,0,0,0-1.9,1.014c-.173.168-.6.091-.915.1a11.8,11.8,0,0,1-1.918-.009,8.62,8.62,0,0,1-2.267-.322,10.93,10.93,0,0,0-1.166-.269,13.731,13.731,0,0,1-1.389-.5c-.389-.164-.753-.388-1.137-.565a9.35,9.35,0,0,1-1.833-1.525,11.674,11.674,0,0,1-1.717-2.354,2.555,2.555,0,0,1-.237-.673c-.366-1.011-.784-2.006-1.09-3.034a20.727,20.727,0,0,1-.593-2.737c-.181-1.166-.288-2.344-.417-3.518a4.752,4.752,0,0,1-.024-.782c.06-1.068.136-2.136.2-3.205a1.814,1.814,0,0,0-.023-.8,1.125,1.125,0,0,1,.165-1.131.871.871,0,0,1,1.038-.531,18.389,18.389,0,0,0,4.892.212c.223-.03.6,0,.67.129.172.321.6.478.567.932-.079,1.154-.072,2.318-.209,3.464a10.928,10.928,0,0,0,.6,5.7,7.026,7.026,0,0,0,.407.691,8.094,8.094,0,0,0,2.159,2.734,2.935,2.935,0,0,0,1.191.434,7.781,7.781,0,0,0,2.063.189,3.414,3.414,0,0,0,2.418-1.956,23.232,23.232,0,0,0,1.948-4.57,11.863,11.863,0,0,0,.82-3.762,22.515,22.515,0,0,0-.119-4.341,11.534,11.534,0,0,0-1.467-3.942c-.56-.937-.94-1.981-1.411-2.971a2.648,2.648,0,0,0-.378-.6c-.611-.707-1.23-1.408-1.863-2.1-.616-.669-1.261-1.312-1.877-1.982-.343-.374-.67-.766-.974-1.172-.249-.333-.351-.792-.839-.908-.028-.006-.016-.129-.044-.188a4.781,4.781,0,0,0-.284-.562C1829.584,494.408,1829.576,494.388,1829.808,493.531Zm-7.545,18.216a2.369,2.369,0,0,0-.069.386c.036,1.667.052,3.334.127,5a22.689,22.689,0,0,0,.289,2.388c.076.5.264.986.312,1.487a9.84,9.84,0,0,0,.691,3.12c.172.386.389.753.545,1.146a6.324,6.324,0,0,0,4.46,3.838,9.644,9.644,0,0,0,3.828.325,22.7,22.7,0,0,0,4.558-.846,6.52,6.52,0,0,0,2.912-1.941c.447-.515.861-1.061,1.269-1.609a12.823,12.823,0,0,0,1.932-3.519c.283-.829.546-1.674.787-2.505a17.072,17.072,0,0,0,1.062-4.769c0-1.371-.036-2.744-.119-4.112-.079-1.311-.2-2.622-.376-3.923-.261-1.915-.586-3.822-.888-5.731a5.9,5.9,0,0,0-2.9-4.108,5.075,5.075,0,0,1-.928-.636,14.1,14.1,0,0,0-1.712-1.275l-.152-1.059c.569-.25.624-.818.77-1.325.223-.774.412-1.559.636-2.334.358-1.235.783-2.453,1.08-3.7a6.825,6.825,0,0,0,.191-2.242,13.429,13.429,0,0,1,.033-3.346c.143-.981.228-1.971.34-2.956.039-.338.1-.675.123-1.015.026-.421-.02-.85.034-1.266a6.657,6.657,0,0,0-1.161-4.75c-1.286.446-2.67-.2-3.951.367.241.928.845,1.684.807,2.635,0,.024.023.048.033.073a25.169,25.169,0,0,1,1.106,3.67,11.268,11.268,0,0,1,.235,3.274,21.649,21.649,0,0,1-.466,3.459,13.968,13.968,0,0,1-1.168,3.626c-.606,1.216-1.3,2.389-2,3.558a7.36,7.36,0,0,1-1.019,1.325c-.425.44-.932.8-1.388,1.209-.38.341-.393.548-.051.919.652.707,1.343,1.379,1.977,2.1a12.271,12.271,0,0,1,2.009,2.5c.716,1.477,1.667,2.807,2.4,4.263a18.589,18.589,0,0,1,1.346,3.054,30.768,30.768,0,0,1,1.012,3.884,13.987,13.987,0,0,1-.2,5.415c-.354,1.517-.779,3.019-1.174,4.527a6.454,6.454,0,0,1-.283,1,6.07,6.07,0,0,1-2.987,3.585,1.251,1.251,0,0,0-.357.324,3.693,3.693,0,0,1-3.438,1.057,3.492,3.492,0,0,1-1.313-.555c-.573-.377-1.04-.924-1.631-1.262a4.54,4.54,0,0,1-1.9-2.088,11.625,11.625,0,0,1-.821-2.339,9.15,9.15,0,0,1-.486-2.684c.03-.4.1-.8.1-1.2q.035-2,.029-4.006a1.034,1.034,0,0,0-.169-.411Z" fill="#001d33"/>
    <path id="Path_54" data-name="Path 54" d="M2054.073,61.186a39.463,39.463,0,0,0-.45,5.4c.22,4.309.5,8.625,1.038,12.9a72.543,72.543,0,0,1,.039,14.042c-.364,5.349-1.006,10.68-.862,16.063.111,4.155,0,8.315.025,12.472.036,5.141.143,10.282.168,15.423.027,5.673.311,11.371-.135,17.009a33.009,33.009,0,0,0,.279,8.9c.048.252-.157.675-.041.772,1.824,1.5.838,3.762,1.525,5.517,1.046,2.671,1.127,5.583,2.524,8.2.847,1.589.617,3.733.992,5.6a7.323,7.323,0,0,0,.951,2.011,14.589,14.589,0,0,1,2.118,5.6,11.211,11.211,0,0,0,1.426,3.588,20.83,20.83,0,0,0,2.794,4.911c3.5,3.771,7.713,5.828,13.074,4.393,8.175-2.188,12.861-7.522,14.4-15.743,1.02-5.471,2.093-10.934,2.954-16.43a17.505,17.505,0,0,0-.113-5.509c-1.1-6.575-3.682-12.689-6.1-18.855a30.323,30.323,0,0,1-.931-4.367c-.223-.983-.378-2-.617-2.966a16.412,16.412,0,0,1,.084-5.951,5.678,5.678,0,0,1,2.474-4.261,60.376,60.376,0,0,1,6.61-3.32c.868-.385,3.728.908,4.016,1.767a3.415,3.415,0,0,1-.126,2c-.743,2.271-1.671,4.483-2.359,6.769-.863,2.867-.42,5.671.375,8.549,1.377,4.984,3.806,9.461,6.22,13.946a22,22,0,0,1,2.349,10.184,47.91,47.91,0,0,1-.32,8.139,59.536,59.536,0,0,1-4.352,15.992c-.8,1.765-1.776,3.452-2.649,5.185-1.034,2.052-2.153,4.069-3.034,6.185-.98,2.353-2.415,4.107-4.943,4.806a1.89,1.89,0,0,0-.754.246c-2.6,2.369-6.078,2.8-9.169,4.049a20.1,20.1,0,0,1-5.377.906c-3.428.359-6.859.536-10.122-.96-.237-.108-.569-.062-.76-.211-3.671-2.865-8.006-4.937-10.667-9.02a3.867,3.867,0,0,0-1.849-1.364,5.285,5.285,0,0,1-3.287-3.849c-1.133-3.791-2.326-7.57-3.315-11.4-1.325-5.127-2.512-10.29-3.68-15.456a8.107,8.107,0,0,1-.03-2.923,16.113,16.113,0,0,0-.634-5.944A34.994,34.994,0,0,1,2042.9,159c-.343-5.27-.614-10.546-.779-15.824-.2-6.376-.3-12.755-.37-19.133-.055-4.876-.025-9.753.024-14.628.016-1.5.236-3,.335-4.5.346-5.253-.627-10.428-.944-15.642a11.288,11.288,0,0,1-.047-1.856c.73-6.964.838-13.953,1.1-20.943.208-5.531.616-11.153,3.074-16.331.81-1.708.933-1.814,2.682-1.063a1.761,1.761,0,0,0,.478.215c3.5.288,4.466,2.749,4.865,5.672C2053.6,57.074,2053.832,59.187,2054.073,61.186Z" fill="#001d33"/>
    <path id="Path_55" data-name="Path 55" d="M1799.028,482.724c1.108-.372,8.005.185,9.8.767a1.613,1.613,0,0,1,.03,1.356,14.291,14.291,0,0,0-.773,3.7,11.468,11.468,0,0,0,.8,4.663,3.2,3.2,0,0,0,4.2,2.047c.72-.218,1.442-.43,2.169-.622a5.665,5.665,0,0,0,3.874-3.733,9.943,9.943,0,0,0,.654-4.1,4.352,4.352,0,0,0-.792-2.152c-.765-1.231-1.613-2.411-2.4-3.629-.273-.423-.437-.914-.7-1.346-.649-1.081-1.354-2.129-1.979-3.223-.545-.954-1.035-1.941-1.506-2.933a16.537,16.537,0,0,1-.789-2,4.246,4.246,0,0,1-.059-.983c-.092-1.326-.227-2.65-.268-3.977-.025-.787.141-1.269,1.1-1.194.337.027.671.115,1.009.132.558.027,1.117.024,1.677.023.822,0,1.645.012,2.466-.031a2.749,2.749,0,0,0,.741-.29.827.827,0,0,1,1.167.361.479.479,0,0,1,.087.29,13.758,13.758,0,0,0-.069,3.648,7.986,7.986,0,0,0,.907,2.977c.321.734.688,1.448,1.058,2.159.1.2.336.337.428.54a15.586,15.586,0,0,0,2.64,3.6,13.12,13.12,0,0,1,1.613,2.1,8.692,8.692,0,0,1,.929,2.18,29.405,29.405,0,0,1,.569,3.48,10.775,10.775,0,0,1-.307,3.482c-.113.55-.236,1.1-.388,1.641a12.107,12.107,0,0,1-1.573,3.573,1.457,1.457,0,0,0-.14.2,9.924,9.924,0,0,1-2.268,2.667,12.2,12.2,0,0,1-2.841,2.1,13.492,13.492,0,0,1-3.3,1.244,18.461,18.461,0,0,1-3.495.513c-1.169.081-2.339.258-3.516.241a10.512,10.512,0,0,1-6.158-1.78c-.37-.263-.753-.508-1.138-.749a4.565,4.565,0,0,1-2.009-3.033,6.631,6.631,0,0,0-.559-1.329,4.355,4.355,0,0,1-.389-2.024,23.225,23.225,0,0,0-.2-2.315c-.058-.666-.135-1.333-.147-2-.016-.86.053-1.722.033-2.581-.022-.936-.106-1.871-.16-2.806C1799.05,483.284,1799.04,482.994,1799.028,482.724Z" fill="#001d33"/>
    <path id="Path_56" data-name="Path 56" d="M2087.558,495.442c-1.269.059-2.541-.079-3.807.094a13.012,13.012,0,0,1-2.224-.009c-.383-.014-.789-.641-.867-1.274-.206-1.677-.457-3.349-.6-5.031-.1-1.16-.038-2.333-.052-3.5-.012-.962-.089-1.928-.029-2.886.1-1.617.375-3.227.415-4.843a14.88,14.88,0,0,1,.623-3.975,25.955,25.955,0,0,1,1.228-3.618,8.288,8.288,0,0,1,1.667-2.084,19.206,19.206,0,0,1,8.136-4.859c1.077-.336,2.1-.838,3.175-1.183a4.623,4.623,0,0,1,1.62-.181,13.917,13.917,0,0,1,3.876.977,18.928,18.928,0,0,1,4.336,2.582,6.244,6.244,0,0,1,1.6,1.858,12.805,12.805,0,0,1,2.19,4.641c.393,2.278.942,4.529,1.341,6.806a24.249,24.249,0,0,1,.249,6.174c-.154,1.916-.254,3.837-.359,5.756a7.883,7.883,0,0,0,.085,1.022c.065.845-.461,1.571-.484,2.412-.009.37-.434.434-.744.381a16.646,16.646,0,0,0-4.4-.013,16.967,16.967,0,0,1-2.836-.219,1.3,1.3,0,0,0-.573.066,1.065,1.065,0,0,1-1.541-.989c.076-1.336.3-2.664.486-3.992.129-.921.341-1.831.442-2.755a32.121,32.121,0,0,0,.1-8.677,7.079,7.079,0,0,0-.961-2.819,4.543,4.543,0,0,0-1.483-1.182c-.675-.41-1.419-.7-2.112-1.085a2.494,2.494,0,0,0-2.651.349c-.488.285-1,.54-1.463.859-.417.287-.848.565-.9,1.185a4.725,4.725,0,0,1-.366,1.184,12.9,12.9,0,0,0-.519,4.971c.037,1.005-.05,2.016.032,3.016a18.874,18.874,0,0,0,.479,2.95c.328,1.335.723,2.657,1.159,3.961.291.869.123,2.82-.412,3.327a1.156,1.156,0,0,1-.6.345C2089.742,495.3,2088.649,495.361,2087.558,495.442Zm.483-3.85c-.212-.984-.332-1.8-.566-2.581a17.475,17.475,0,0,1-.868-7.026,23.786,23.786,0,0,1,.875-4.451c.225-.725.375-1.474.6-2.2a19.088,19.088,0,0,1,.889-2.534,6.348,6.348,0,0,1,2.719-2.9c2.007-1.114,4.069-.679,6.12-.281a6.006,6.006,0,0,1,2.685,1.471,5.119,5.119,0,0,1,2.147,3.194,3.963,3.963,0,0,0,.153.6,12.084,12.084,0,0,1,.293,6.229,3.98,3.98,0,0,0-.034.6c-.1,1.327-.132,2.663-.307,3.981a28.628,28.628,0,0,0-.632,4.8c.037,1.019.178,1.283,1.163,1.341a35.628,35.628,0,0,0,3.922.006c.77-.04,1.049-.417,1.15-1.2a26.629,26.629,0,0,1,.363-3.674.9.9,0,0,0,0-.207,33.8,33.8,0,0,0-.215-6.738,35.685,35.685,0,0,0-.8-3.95c-.525-1.824-1.192-3.607-1.809-5.4a5.6,5.6,0,0,0-.363-.741,8.72,8.72,0,0,0-2.425-2.622,8.48,8.48,0,0,0-5.527-1.947,4.126,4.126,0,0,1-1.021-.082,1.38,1.38,0,0,0-1.371.173c-.138.115-.4.076-.587.139-.842.278-1.692.539-2.518.86-1.34.52-2.211,1.655-3.277,2.538-.773.64-1.249,1.588-2.235,2.016a1.924,1.924,0,0,0-.878.928,25.966,25.966,0,0,0-1.611,3.417,23.866,23.866,0,0,0-.862,4.506,43.287,43.287,0,0,0,.083,7.718,2.521,2.521,0,0,1-.026.819,3.569,3.569,0,0,0,.585,3.192Z" fill="#001d33"/>
    <path id="Path_57" data-name="Path 57" d="M1855.335,482.189c.083.824.139,1.652.255,2.471.172,1.217.36,2.432.589,3.639a12.42,12.42,0,0,0,1.181,3.721c.438.8.8,1.642,1.2,2.461a.7.7,0,0,1-.3,1.023,2.961,2.961,0,0,0-.954.686,1.2,1.2,0,0,1-.789.265,26.442,26.442,0,0,0-4.918.84,11.421,11.421,0,0,1-1.516.278.787.787,0,0,1-.851-.6,14.873,14.873,0,0,1-.581-1.964c-.166-.807-.264-1.63-.356-2.451-.166-1.48-.334-2.961-.447-4.446-.079-1.054-.107-2.115-.089-3.171.027-1.537.148-3.072.171-4.61a7.7,7.7,0,0,1,1.31-4.647c.526-.715,1.01-1.462,1.541-2.174a2.422,2.422,0,0,1,.592-.484,7.481,7.481,0,0,1,3.3-1.556,3.376,3.376,0,0,0,1.122-.413,5.158,5.158,0,0,1,2.847-.387c.918.046,1.837.063,2.755.085a8.766,8.766,0,0,1,2.893.467,11.631,11.631,0,0,1,3.216,1.93c.6.481,1.17,1,1.75,1.509a5.756,5.756,0,0,1,1.279,2.187c.315.707.58,1.439.841,2.169a6.851,6.851,0,0,1,.449,2.447,10.124,10.124,0,0,0,.16,1.535c.19,1.368-.111,2.742.059,4.107a20.5,20.5,0,0,1-.135,4.21,12.614,12.614,0,0,0,.176,2.49c.1.861-.062,1.149-.882,1.2-1.334.085-2.671.122-4.005.214-.544.037-1.08.167-1.621.247a5.067,5.067,0,0,1-.855.091c-.589-.018-.65-.18-.741-.792-.194-1.305.334-2.547.269-3.834-.038-.766-.108-1.532-.131-2.3-.032-1.063-.034-2.128-.045-3.193-.017-1.484.06-2.978-.084-4.449a4.92,4.92,0,0,0-.579-2.109,3.918,3.918,0,0,0-2.6-1.909c-1.622-.3-2.738.527-3.867,1.4A4.2,4.2,0,0,0,1855.335,482.189Zm-.119,12.17a3.35,3.35,0,0,0-.065-.686c-.279-.81-.636-1.6-.862-2.422a31.477,31.477,0,0,1-.689-3.187c-.12-.727-.1-1.476-.16-2.215-.025-.338-.111-.675-.1-1.012.012-.586.069-1.171.117-1.757a18.149,18.149,0,0,1,.213-2.181,10.725,10.725,0,0,1,1.474-3.722,2.35,2.35,0,0,1,.787-.778,6.694,6.694,0,0,1,3.746-1.013,18.066,18.066,0,0,1,2.2.239,4.75,4.75,0,0,1,3.447,2.707,20.212,20.212,0,0,1,1.7,5.307c.14.785.216,1.584.286,2.379.04.459,0,.924.013,1.386a17.087,17.087,0,0,1-.151,3.766,16.491,16.491,0,0,0-.134,1.933h2.776c.082-.545.178-1.022.222-1.5a16.051,16.051,0,0,0,.191-3,25.6,25.6,0,0,0-.333-4.271c-.263-.968-.128-2.039-.35-3.024a13.756,13.756,0,0,0-1.844-4.613,8.505,8.505,0,0,0-2.542-2.759,6.322,6.322,0,0,0-2.1-1.078c-.759-.145-1.534-.215-2.286-.385a10.512,10.512,0,0,0-3.677.1,2.865,2.865,0,0,0-1.021.436,19,19,0,0,0-2.32,1.461,7.808,7.808,0,0,0-2.067,1.926,17.377,17.377,0,0,0-1.483,3.464,5.363,5.363,0,0,0-.272,1.5c-.033,1.025-.026,2.055.03,3.079a37.45,37.45,0,0,0,.494,5.057c.206,1.071.372,2.15.629,3.208a15.918,15.918,0,0,0,.682,1.837Z" fill="#001d33"/>
    <path id="Path_58" data-name="Path 58" d="M2031,367.666c.508-5.726,1-11.383,1.522-17.037a27.386,27.386,0,0,0,.456-3.157c-.111-3.8.856-7.5.548-11.353-.348-4.342.2-8.748.092-13.119a58.12,58.12,0,0,0-.861-9.619,37,37,0,0,1-.886-11.394,61.278,61.278,0,0,0,.042-10.237,24.051,24.051,0,0,0-1.163-5.166c-.742-2.616-.238-5.2.142-7.766a43.631,43.631,0,0,1,1.624-8.1c.534-1.533,1.3-2.253,2.761-1.646a6.913,6.913,0,0,1,3.013,2.208,10.6,10.6,0,0,1,1.868,6.005c.039,5.6.286,11.192.492,16.786.094,2.544.357,5.083.406,7.627a28.385,28.385,0,0,1-.442,3.519c-.468,4.3-.859,8.607-1.391,12.9-.4,3.231-1.09,6.428-1.434,9.664-.359,3.382-.541,6.788-.649,10.189-.107,3.328-.123,6.665,0,9.992.168,4.531.513,9.054.768,13.582.223,3.949.422,7.9.636,11.848a70.083,70.083,0,0,0,1.786,13.585c.607,2.384,1.034,4.816,1.706,7.179a8.027,8.027,0,0,0,1.532,2.759c1.211,1.485,2.576,2.845,3.878,4.256.613.664,1.257,1.3,1.842,1.99,2.039,2.4,4.833,3.6,7.573,4.928a23.818,23.818,0,0,0,7.909,2.055c2.081.231,4.141.816,6.271.414a108.354,108.354,0,0,0,16.453-4.346,43.274,43.274,0,0,0,9.5-4.276c4.288-2.835,8.27-6.094,11.131-10.416,1.236-1.869,1.79-4.176,2.793-6.216,1.279-2.6.831-5.047.166-7.758a48.86,48.86,0,0,0-3.262-8.23,6.937,6.937,0,0,0-.9-1.432q-3.524-4.473-7.077-8.922c-.706-.888-1.43-1.761-2.136-2.648-1.044-1.312-2.28-2.465-2.393-4.358a9.551,9.551,0,0,0-1.043-2.544,4.246,4.246,0,0,1,1.618-4.849c1.056-.733,2.866-.209,4.252.851,1.955,1.494,2.008,3.647,2.3,5.72.181,1.275.106,2.585.189,3.876a2.6,2.6,0,0,0,.309,1.437,38.423,38.423,0,0,1,3.116,3.877c.715,1.065,1.731,2.006,2.561,3.1,1.787,2.355,3.047,5.015,4.739,7.415a10.549,10.549,0,0,1,1.358,3.494,27.923,27.923,0,0,1,.72,4.4,25.19,25.19,0,0,1-3.289,15.028,49.925,49.925,0,0,1-5.1,6.5c-3.449,4.174-8.122,6.666-12.771,9.18-2.427,1.313-4.866,2.6-7.3,3.9-.063.034-.119.1-.184.107-4.535.774-8.416,3.671-13.168,3.869a39.749,39.749,0,0,1-11.488-1.41,25.676,25.676,0,0,1-9.013-4.138,16.282,16.282,0,0,0-2.635-1.374,20.887,20.887,0,0,1-8.543-7.1c-3.343-4.9-6.276-9.971-7.8-15.733-.7-2.663-1.136-5.4-1.639-8.114-.259-1.393-.422-2.8-.6-4.212C2031.59,372.711,2031.3,370.18,2031,367.666Z" fill="#001d33"/>
    <path id="Path_59" data-name="Path 59" d="M1996.526,417.349c-1.556-.609-20.6-1.85-23.346-1.767a47.881,47.881,0,0,1-7.782-.463c-.741-.1-3.495-1.168-4.589-.672-1.221-1.475-1.22-9.22-1.06-11.527.485-7,.658-14.015.892-21.025a42.248,42.248,0,0,0-1.608-14.3c-.69-2.185-3.654-13.9-4.831-17.467-2.051-6.22-6.037-11.617-10.7-16.553-2.658-2.816-6.743-3.761-10.687-4.424a49.244,49.244,0,0,0-17.981.452,24.913,24.913,0,0,0-15.35,9.344c-4.017,5.4-3.939,26.663-3.685,30.8.3,4.812.676,9.623,1.184,14.421.187,1.758,2.179,7.686,2.332,8.95q.846,6.99,1.471,14c.376,4.194-4.216,8.316-8.9,7.681-5.26-.713-10.329-.2-15.543.4a81.723,81.723,0,0,0-10.88,1.955c-1.666.423-8.305-2.873-8.4-5.309-.051-1.38-.748-2.732-.952-4.119-.4-2.733-.452-5.516-1.023-8.218-1.2-5.693-2.938-11.311-3.889-17.032a46.874,46.874,0,0,1-.021-10.531c.311-4.951,1.746-16.715,1.955-17.655.6-2.7,1.25-5.385,1.8-8.089,1.459-7.135,1.9-12.178,6.74-20.811,5.007-7.017,8.873-7.518,12.116-10.519,2.886-2.672,6.273-3.776,9.918-5.127,5.471-2.029,11.305-3.068,16.689-5.157,4.489-1.742,9.218-1.78,13.874-2.43.956-.134,12.1-1.6,16.782-1.345,3.443.185,6.881.44,10.324.621,2.088.11,14.129,3.048,16.68,3.53,4.994.944,8.846,3.719,13.052,5.938a39.162,39.162,0,0,1,14.514,12.881,90.621,90.621,0,0,1,6.822,13.178c3.157,6.984,3.487,14.5,4.856,21.814a98.233,98.233,0,0,1,1.78,11.471c.513,7.744.68,15.506.984,23.261.151,3.857-.051,7.757.557,11.557.383,2.395.529,9.122-.27,9.824A31.069,31.069,0,0,1,1996.526,417.349Z" fill="#001d33"/>
    <path id="Path_60" data-name="Path 60" d="M1750.941,240.588c.375,4.28,1.819,8.351.815,12.781a75.052,75.052,0,0,0-1.974,20.708c.272,5.022.959,10.025,1.136,15.048a156.222,156.222,0,0,1-.1,16.2,94.076,94.076,0,0,0-.053,17.439c.421,3.594.875,7.189,1.484,10.755.291,1.707-.152,3.682,1.564,5.144,2.145-.532,4.4-.977,6.582-1.656,5.72-1.778,11.589-1.445,17.422-1.233,5.737.208,11.473.632,17.188,1.186,8.617.836,17,2.649,23.8,8.463,4.847,4.146,9.122,8.877,10.556,15.389a30.835,30.835,0,0,1,.22,11.646c-.387,2.383-.613,4.791-.923,7.186a30.878,30.878,0,0,1-7.133,16.708c-1.764,2.032-4.261,3.437-5.972,5.5a46.438,46.438,0,0,1-12.095,10.347c-4.359,2.582-8.252,6.192-13.45,7.24-1.967.4-3.942.814-5.934,1.014-3.006.3-6.036.356-9.045.638-4.445.417-8.571-1.089-12.77-2.054a32.274,32.274,0,0,1-18.589-11.625c-2.628-3.3-5.881-6.088-7.934-9.878a73.62,73.62,0,0,1-6.095-15.1,121.318,121.318,0,0,1-2.972-11.986c-.723-4.128-1.025-8.34-1.333-12.528a95.991,95.991,0,0,0-1.375-10.672,51.489,51.489,0,0,1-.668-9.3c-.013-4.83.088-9.669.388-14.489.381-6.128,1.03-12.239,1.514-18.361.143-1.807.072-3.63.177-5.441.347-5.933.825-11.86,1.057-17.8.116-2.973-.227-5.962-.293-8.945-.04-1.794.13-3.592.075-5.385-.235-7.709-.523-15.417-.78-23.125a4.438,4.438,0,0,1,3.431-3.98,26.793,26.793,0,0,1,7.181-.345c3.984.474,8.049.259,12.079.346C1748.921,240.45,1749.719,240.519,1750.941,240.588Zm-4.263,4.918a21.506,21.506,0,0,0-8.848.243c-2.491.5-2.606.691-2.679,3.113-.19,6.248-.248,12.506-.651,18.742-.364,5.62-1.1,11.217-1.7,16.822-.534,5.006-1.724,9.918-1.539,15.034a60.744,60.744,0,0,1-.85,9.874c-.543,4.191-1.571,8.341-1.832,12.543-.364,5.844-.224,11.72-.275,17.583-.028,3.236.3,6.511-.088,9.7-.5,4.056.412,7.879,1.573,11.562,1.723,5.464,2.912,11.03,4.208,16.586a106.863,106.863,0,0,0,2.841,10.788c1.316,3.792,3.22,7.375,4.64,11.135a15.624,15.624,0,0,0,3.994,5.977,86.442,86.442,0,0,0,7.828,6.608c6.225,4.56,13.509,5.746,20.943,5.5,6.344-.207,12.113-2.859,17.626-5.858,3.721-2.025,7.372-4.2,10.92-6.51a41.125,41.125,0,0,0,6.379-5.042c4.291-4.216,6.954-9.586,9.6-14.869a45.987,45.987,0,0,0,5.315-19.622c.065-3.119-.408-6.238-2.793-8.678a28.369,28.369,0,0,1-2.494-2.994c-3.212-4.341-7.911-6.08-12.877-7.169a73.753,73.753,0,0,0-9.856-1.4c-7.87-.635-15.62-3.157-23.638-1.573-.1.02-.2-.01-.3.007-4.03.724-8.162.817-12.025,2.536a16.781,16.781,0,0,0-6.378,5.166c-1.221,1.546-2.047,3.4-3.141,5.053-.779,1.178-1.842,2.727-3.277,2.127-1.212-.506-2.016-2.072-2.888-3.252-.248-.335-.119-.962-.131-1.456-.064-2.506-.1-5.012-.177-7.517-.113-3.7-.281-7.4-.361-11.107-.034-1.575-.326-3.336.258-4.683.693-1.6.451-3.129.642-4.68.12-.971-.043-1.975.07-2.947.78-6.684,1.9-13.344,2.337-20.05.671-10.184-.112-20.364-1.108-30.509a63.725,63.725,0,0,1-.094-13.827C1746.336,254.332,1746.4,250.154,1746.678,245.506Z" fill="#001d33"/>
    <path id="Path_61" data-name="Path 61" d="M1950.01,478.922c.966-.034,1.931-.1,2.9-.093a14.369,14.369,0,0,1,2.007.174c.466.07.841.818.741,1.413-.257,1.54-.536,3.076-.792,4.616a13.758,13.758,0,0,0,.1,5.379c.45,1.96,1.987,2.575,3.758,2.414a7.7,7.7,0,0,0,2.4-.5,7.1,7.1,0,0,0,2.147-1.5,4.287,4.287,0,0,0,1.1-2.575,3.52,3.52,0,0,0-.684-2.552,8.019,8.019,0,0,1-.584-1.815c-.308-.82-.669-1.621-1.018-2.425q-.272-.625-.583-1.234c-.679-1.324-1.438-2.614-2.026-3.977a16.263,16.263,0,0,1-.756-2.813c-.247-1.071-.448-2.151-.67-3.227a.936.936,0,0,1-.064-.267,30.955,30.955,0,0,0-.326-5.366c-.048-.821.323-1.182,1.127-1.147a23.057,23.057,0,0,0,5.19-.139c.9-.165,1.277.416,1,1.27a11.885,11.885,0,0,0-.515,2.129,8.2,8.2,0,0,0,.612,4.582,8.63,8.63,0,0,0,1.092,1.779,8,8,0,0,1,.975,1.421,10.815,10.815,0,0,0,1.027,1.278,16.155,16.155,0,0,1,1.831,3.765,12.737,12.737,0,0,1,.93,2.759,17.642,17.642,0,0,1,.488,4.927,2.211,2.211,0,0,0-.027.643c.32,2.016-.556,3.791-1.156,5.612a2.6,2.6,0,0,1-1.014,1.263c-.79.564-1.47,1.279-2.227,1.893a13.641,13.641,0,0,1-3.1,1.856,13.04,13.04,0,0,1-2.9.686,6.18,6.18,0,0,0-.685.205c-.083.026-.183.116-.239.092-1.012-.435-2.123-.209-3.161-.5-1.055-.292-2.138-.484-3.2-.749a2.494,2.494,0,0,1-.7-.366,11.862,11.862,0,0,1-2.555-1.727,12.665,12.665,0,0,1-1.684-2.925,3.6,3.6,0,0,1-.614-2.434.336.336,0,0,0-.093-.247c-.782-.856-.577-1.92-.629-2.932-.052-1.04-.14-2.079-.178-3.12-.04-1.106-.073-2.213-.045-3.318a9.755,9.755,0,0,1,.262-1.723.709.709,0,0,1,.8-.6c.581.019,1.164.005,1.746.005Zm1.591,2.808c-.337-.056-.58-.075-.811-.138-1.189-.322-1.405-.349-1.835,1.15a2.318,2.318,0,0,0-.047.731c.053,1.193.161,2.385.169,3.578a11.445,11.445,0,0,0,.865,4.386c.674,1.609,1.254,3.31,2.959,4.229a7.577,7.577,0,0,0,1.98.929c1.312.279,2.611.646,3.936.83a8.06,8.06,0,0,0,2.742-.049,9.348,9.348,0,0,0,4.621-2.279,8.085,8.085,0,0,0,2.192-3.243,18.065,18.065,0,0,0,.948-5.78,19.813,19.813,0,0,0-.35-3,12.623,12.623,0,0,0-.551-2.687,7.29,7.29,0,0,0-1.87-2.941c-.1-.085-.1-.266-.166-.395a2.039,2.039,0,0,0-.254-.449c-.476-.556-.989-1.081-1.447-1.65a8.779,8.779,0,0,1-2.054-3.919c-.192-1.082-.337-2.173-.486-3.263-.1-.722-.167-1.448-.258-2.256l-1.911.1a7.738,7.738,0,0,0-.234,4.249c.294,1.743.782,3.455,1.217,5.173a5.479,5.479,0,0,0,.518,1.274c.765,1.393,1.519,2.8,2.354,4.147a15.815,15.815,0,0,1,2.059,4.977,8.576,8.576,0,0,1,.046,3.994,3.7,3.7,0,0,1-.585,1.317,28.29,28.29,0,0,1-2.776,2.8,5.905,5.905,0,0,1-3.24,1.487,5.689,5.689,0,0,1-3.088-.392,4.558,4.558,0,0,1-3.022-3.528,3.532,3.532,0,0,0-.282-.967,9.406,9.406,0,0,1-.869-2.976,12.064,12.064,0,0,1-.3-3.08A14.934,14.934,0,0,0,1951.6,481.73Z" fill="#001d33"/>
    <path id="Path_62" data-name="Path 62" d="M1772.72,456.157c.8.079,1.519.144,2.233.222.828.091,1.654.2,2.483.29.727.076.914.313.766,1.06a48.316,48.316,0,0,0-.577,6.579c-.077,1.314-.21,2.626-.284,3.941-.085,1.53-.182,3.063-.182,4.6,0,1.09.178,2.18.232,3.272.067,1.342.088,2.686.13,4.029.039,1.259.056,2.519.128,3.777.07,1.228.248,2.451.282,3.68a9.512,9.512,0,0,0,.335,2.69,9.337,9.337,0,0,0,1.545,3.252,4.078,4.078,0,0,0,1.423,1,9.9,9.9,0,0,0,3.771.771,4.639,4.639,0,0,0,2.827-.744c.554-.375,1.136-.715,1.651-1.138a2.072,2.072,0,0,0,.64-.91,10.236,10.236,0,0,0,.692-3.2,7,7,0,0,1,.1-.8,7.764,7.764,0,0,0-.274-2.629c-.415-1.778-.873-3.545-1.307-5.319-.113-.464-.194-.935-.3-1.4a.5.5,0,0,1,.32-.646,3.473,3.473,0,0,1,2.059-.087,10.076,10.076,0,0,0,2.964.206c.238-.034.477-.069.712-.12.489-.106.59-.058.754.429a3.063,3.063,0,0,1,.155.621c.2,1.728.458,3.448.5,5.193.028,1.153.177,2.3.261,3.456a11.321,11.321,0,0,1-1.275,5.9,4.89,4.89,0,0,0-.345.73,9.36,9.36,0,0,1-1.966,3.021,14.812,14.812,0,0,1-1.736,1.8,4.039,4.039,0,0,1-1.107.616c-.588.258-1.194.472-1.792.706a2.21,2.21,0,0,1-.371.158c-1.293.24-2.582.509-3.884.69a5.455,5.455,0,0,1-2.538-.319c-.863-.3-1.723-.608-2.569-.953a7.7,7.7,0,0,1-4.214-4.532c-.51-1.243-1.035-2.482-1.473-3.751a9.838,9.838,0,0,1-.618-3.543,17.892,17.892,0,0,0-.366-2.1c-.1-1.087-.144-2.181-.167-3.274a20.4,20.4,0,0,0-.259-2.948,14.912,14.912,0,0,1-.053-2.179q-.042-2.342-.087-4.683c-.025-1.263-.07-2.526-.07-3.789,0-.881.035-1.763.1-2.642.1-1.329,0-2.66.069-3.985.068-1.364.294-2.72.439-4.081.071-.668.117-1.339.173-2.008C1772.668,456.782,1772.692,456.5,1772.72,456.157Zm17.683,24.291c.068.413.092.707.167.988.251.936.561,1.857.774,2.8a12.09,12.09,0,0,1,.434,5.338c-.247,1.126-.478,2.257-.761,3.374a2.7,2.7,0,0,1-1.032,1.509c-.6.446-1.243.846-1.88,1.245a3.646,3.646,0,0,1-.871.421,8.535,8.535,0,0,1-6.488-.61,5.982,5.982,0,0,1-3.029-3.972,19.5,19.5,0,0,1-.833-3.846c-.052-.737-.31-1.458-.4-2.2-.1-.877-.071-1.769-.177-2.644a32.409,32.409,0,0,1-.307-4.669c.037-1.557-.018-3.119.075-4.672.165-2.762.408-5.52.628-8.279.13-1.634.3-3.265.41-4.9.052-.77.009-1.546.009-2.428-.751-.11-1.433-.236-2.122-.3-.806-.078-.915.065-.959.885-.049.928-.131,1.855-.217,2.782-.125,1.335-.274,2.668-.4,4-.059.641-.083,1.286-.116,1.929-.052.989-.12,1.977-.14,2.966-.012.589.1,1.18.079,1.767-.069,2.067-.19,4.133-.253,6.2-.051,1.684-.057,3.369-.065,5.054a17.143,17.143,0,0,0,.067,2.577c.255,1.725.562,3.447.951,5.146a20.161,20.161,0,0,0,1.177,3.842,11.075,11.075,0,0,0,3.014,4.222,2.665,2.665,0,0,0,.776.559,14.679,14.679,0,0,0,4.008.868c1.2.016,2.41-.036,3.616-.039a6.937,6.937,0,0,0,4.015-1.489,15.726,15.726,0,0,0,2.508-2.389,7.9,7.9,0,0,0,1.955-4.335q.148-1.159.228-2.326c.1-1.472.234-2.946.241-4.421.007-1.58-.111-3.162-.187-4.743a6.432,6.432,0,0,0-.142-.8C1793.52,479.645,1792.045,480.254,1790.4,480.448Z" fill="#001d33"/>
    <path id="Path_63" data-name="Path 63" d="M1854.535,119.859c.447-6.091.98-12.178,1.31-18.276.186-3.453-.022-6.926.063-10.387a58.092,58.092,0,0,1,.512-6.088,77.332,77.332,0,0,0,.275-13.378c-.141-3.267.171-6.553.284-9.831a1.71,1.71,0,0,1,1.7-1.73,9.3,9.3,0,0,1,3.17.053,18.776,18.776,0,0,0,6.589.058c1.673-.164,3.372-.065,5.06-.086a13.513,13.513,0,0,0,1.534-.044c1.959-.248,2.61.142,2.716,2.174.374,7.173.978,14.336.271,21.538-.337,3.44-.148,6.929-.247,10.394-.066,2.3-.3,4.6-.308,6.9a53.106,53.106,0,0,0,.331,5.832c1.018,9.553-.081,19.116.181,28.67.2,7.208.963,14.363,3.715,21.106a63.328,63.328,0,0,0,8,14.92,12.263,12.263,0,0,0,6.238,4.3c2.184.7,4.59.184,6.667,1.4.381.223,1.042-.006,1.57-.062q3.409-.366,6.815-.759a4.322,4.322,0,0,0,1.5-.282c3.912-2.089,7.292-4.656,8.711-9.174,1.053-3.352,1.212-6.564-.483-9.756a77.094,77.094,0,0,1-3.682-7.344c-1.4-3.5-3.3-6.831-3.472-10.78-.119-2.708-.176-5.475-1.422-8.037a5.19,5.19,0,0,1-.161-2.367c.083-1.8.743-2.383,2.506-2.253,1.306.1,2.6.343,3.91.376,2.154.055,4.311-.008,6.467-.024,1.328-.009,2.659-.079,3.984-.019,2.051.094,2.515.372,2.785,2.38a12.5,12.5,0,0,0,4.334,7.964c1.685,1.463,2.255,3.579,3.646,5.147,3.454,3.895,3.985,8.339,2.761,13.191-.237.942-.259,1.941-.528,2.871-.611,2.111-1.3,4.2-1.985,6.288-.383,1.172-.82,2.325-1.226,3.489a7.637,7.637,0,0,1-.32,1.011c-2.141,4.168-4.083,8.457-6.5,12.46-3.414,5.654-8.681,9.537-13.9,13.387a12.651,12.651,0,0,1-2.4,1.144,17.393,17.393,0,0,0-4.33,2.864c-2.2,1.9-4.654,3.766-7.917,3.635-2.374-.094-4.752-.088-7.128-.151a3.985,3.985,0,0,1-1.035-.235c-4.38-1.341-8.762-2.677-13.131-4.049a3.871,3.871,0,0,1-1.36-.8c-3.839-3.416-7.941-6.6-11.391-10.369a30.117,30.117,0,0,1-6.154-10.479c-1.212-3.513-2.519-7.008-3.453-10.6a63.938,63.938,0,0,1-1.545-9.159c-.308-2.814-.157-5.677-.442-8.5-.231-2.283-.938-4.517-1.205-6.8-.554-4.742-1.036-9.5-1.39-14.258-.184-2.474-.032-4.973-.032-7.46Zm61.516,12.615c1.981,5.863,3.816,11.294,5.653,16.724a7.3,7.3,0,0,0,.548,1.484c1.8,2.939,2.291,6.155,2.881,9.532,1.038,5.934-1.9,10.258-4.444,14.888a1.645,1.645,0,0,1-.556.569,63.263,63.263,0,0,1-6.34,3.82,48.775,48.775,0,0,1-6.533,2.15,10.679,10.679,0,0,1-8.49-.679c-1.632-.878-3.2-1.887-4.884-2.652a17.327,17.327,0,0,1-8.21-7.994c-1.7-3.205-3.357-6.437-5-9.677a57.84,57.84,0,0,1-6.083-25.108c-.114-4.952-.046-9.909-.013-14.864.029-4.337.11-8.674.194-13.01.108-5.584.3-11.167.341-16.75.02-3.1-.524-6.223-.253-9.287a84.482,84.482,0,0,0-.1-16.723,1.456,1.456,0,0,0-1.719-1.521c-2.775.05-5.556.168-8.323.03-1.339-.067-1.825.406-1.878,1.578-.068,1.508.028,3.03-.136,4.525-.629,5.721-1.334,11.434-2.008,17.15-.518,4.394-.966,8.8-1.562,13.182-.971,7.145-.845,14.339-1.131,21.516-.363,9.111.986,18.043,2.579,26.963.873,4.885,1.831,9.766,2.422,14.688a39.391,39.391,0,0,0,5.177,16.033c1.858,3.077,3.9,6.132,6.89,7.951,5.429,3.306,10.7,6.92,16.854,9.015,5.762,1.96,11.121,2.171,16.406-1.1a12.154,12.154,0,0,1,1.963-.789,20.085,20.085,0,0,0,4.124-1.694c2.877-2,6.142-3.266,8.8-5.782a39.258,39.258,0,0,0,8.33-10.473,141,141,0,0,0,6.777-15.561c1.012-2.765,1.077-5.884,1.5-8.854a3.98,3.98,0,0,0-.388-1.534c-.314-1.014-.653-2.021-.969-3.034-.989-3.171-2.233-6.182-5.057-8.228a2.1,2.1,0,0,1-.527-.563c-1.5-2.364-2.986-4.736-4.587-7.281C1924.382,131.585,1920.183,130.383,1916.051,132.474Z" fill="#001d33"/>
    <path id="Path_64" data-name="Path 64" d="M1746.568,190.924c-4.519-1.816-9.269-1.661-13.9-2.3a41.788,41.788,0,0,1-5.4-1.116c-2.131-.587-2.675-1.505-2.353-3.758a13.29,13.29,0,0,1,.817-3.34c1.136-2.649.788-5.409.822-8.143.029-2.287-.057-4.576.028-6.86a50.013,50.013,0,0,1,.576-8.157c.831-4.047-.412-7.89-.631-11.824a3.551,3.551,0,0,0-1.1-2.043c-4.544-4.492-9.815-7.569-16.331-8.131-.7-.06-1.4-.226-2.1-.256a21.928,21.928,0,0,0-4.238-.039,14.577,14.577,0,0,0-5.192,1.455,24.432,24.432,0,0,0-4.476,4.13,38.382,38.382,0,0,0-2.522,3,16.6,16.6,0,0,0-3.367,9.875c-.122,2.378-.421,4.748-.525,7.127-.213,4.867,1.123,9.448,2.6,14.026,1.084,3.366,1.867,6.829,2.784,10.249a8.2,8.2,0,0,0,.57,2.044c1.46,2.484.841,5.206.948,7.826a2.415,2.415,0,0,1-3.124,2.3,46.283,46.283,0,0,0-11.917-.783c-1.581.04-3.156.417-4.735.42-3.13.008-3.374-.384-3.729-3.441s-.928-6.109-1.4-9.163c-.764-4.939-1.654-9.865-2.224-14.826a21.419,21.419,0,0,1,.467-5.983c.559-3.215,1.168-6.437,2.035-9.579a64.976,64.976,0,0,1,14.416-25.976,44.254,44.254,0,0,1,4.813-4.582,12.168,12.168,0,0,1,3.047-1.577c4.683-2.006,9.7-2.673,14.641-3.694,2.681-.555,5.313-1.345,7.968-2.029a14.142,14.142,0,0,1,2.565-.631c3.707-.227,7.427-.6,11.128-.476a16.976,16.976,0,0,1,11.975,5.535,38.641,38.641,0,0,1,7.75,10.69,37.255,37.255,0,0,1,3.33,13.049,180.852,180.852,0,0,1,0,21.25c-.251,4.865-.7,9.72-1.066,14.579a47.442,47.442,0,0,1-.5,5.259C1748.619,187.119,1748.162,189.243,1746.568,190.924Zm-69.8,1,11.542-1.322c-.834-3.1-1.612-5.893-2.33-8.7-1.2-4.7-2.374-9.414-3.54-14.126a4.835,4.835,0,0,1-.028-1.065c-.059-3.727-.153-7.454-.17-11.182a21,21,0,0,1,4.485-13.84c1.109-1.369,1.935-2.966,3.015-4.364a8.571,8.571,0,0,1,2.45-2.381c4.622-2.509,9.517-3.738,14.811-2.645a13.533,13.533,0,0,0,2.625.353,28.468,28.468,0,0,1,8.553,1.758c4.949,1.592,8.894,4.491,11.248,9.157a57.258,57.258,0,0,1,5.057,16.675,5.039,5.039,0,0,1-.051,1.051q-.114,2.242-.227,4.484c-.172,3.363-.375,6.725-.507,10.09-.068,1.747-.012,3.5-.012,5.312,3.026,1.037,5.8,2.377,9.054,2.222,2.52-.12,2.7-.08,3.213-2.446a57.846,57.846,0,0,0,1.01-11.071c.154-6.881,1.842-13.653,1.189-20.613-.482-5.133-.79-10.236-2.789-15.086-1.77-4.293-4.113-8.162-8.3-10.386a50.49,50.49,0,0,0-10.442-4.5c-3.061-.814-6.334-1.485-9.676-.606a93.488,93.488,0,0,1-9.336,1.764A39.244,39.244,0,0,0,1693.3,125.7c-1.365.822-2.681,1.73-3.991,2.639-3.159,2.192-6.607,3.9-8.9,7.3-3.412,5.061-6.645,10.026-8.029,16.181-1.3,5.776-1.155,11.6-1.67,17.391a25.577,25.577,0,0,0,2.26,11.8c1.091,2.7,1.717,5.579,2.612,8.359A22.568,22.568,0,0,0,1676.773,191.924Z" fill="#001d33"/>
    <path id="Path_65" data-name="Path 65" d="M1964.287,187.467c-1.286.338-2.116.53-2.93.774a15.645,15.645,0,0,1-4.324.325c-2.835.053-3.426-1.848-3.974-3.756a40.264,40.264,0,0,1-1.384-14.68,114.5,114.5,0,0,1,1.174-12.072c1.074-5.566,3.814-10.212,7.03-14.716,2.247-3.145,5.494-4.906,8.646-6.867,3.571-2.222,7.6-2.841,11.617-3.173a55.252,55.252,0,0,1,8.518.462c2.976.221,5.953.442,8.919.764a17.593,17.593,0,0,1,9.035,3.373,47.068,47.068,0,0,1,7.271,7.656c4.059,4.868,5.5,10.74,7.085,16.61.576,2.129,1.516,4.164,2.025,6.3.962,4.046,1.715,8.14,2.588,12.207.89,4.148,1.84,8.284,2.72,12.434a19.26,19.26,0,0,1,.384,3.158c.188,4.392.727,8.763.316,13.188-.3,3.217,0,6.49-.3,9.708-.322,3.519-.918,7.023-1.59,10.5a80.662,80.662,0,0,1-2.1,8.244c-.7,2.278-1.659,4.474-2.5,6.708-2.243,5.948-5.152,11.491-9.651,16.095-2.048,2.1-3.85,4.467-6.062,6.364-3.695,3.167-7.526,6.222-12.471,7.331a10.149,10.149,0,0,0-3.037.963c-2.192,1.334-4.643,1-6.979,1.208-.852.074-2.148.274-2.867-.927-.195-.326-.95-.353-1.461-.447-5.764-1.057-9.591-4.714-12.178-9.63-2.038-3.873-3.591-8.007-5.251-12.069a23.877,23.877,0,0,1-.909-3.856,5.314,5.314,0,0,0-.318-1.512c-1.972-3.336-1.98-7.009-1.934-10.7.014-1.154,0-2.308,0-3.88,1.357.193,2.568.393,3.786.528s2.46.208,4.014.334c.462,2.412.927,4.813,1.38,7.216a26.767,26.767,0,0,0,.734,3.887,17.537,17.537,0,0,0,8.606,10.273c3.333,1.73,6.518,3.763,9.914,5.351a71.461,71.461,0,0,0,7.72,2.641c.084.028.175.091.253.077,3.273-.588,6.66-1.04,9-3.723a48.525,48.525,0,0,0,7.909-12.523,34,34,0,0,0,2.248-6.51c1.057-5.021,1.939-10.083,2.732-15.153a48.125,48.125,0,0,0,.609-12.314c-.321-3.207.194-6.495.3-9.748a63.637,63.637,0,0,0-1.406-13.463c-.569-3.122-.9-6.287-1.465-9.41a134.545,134.545,0,0,0-2.688-13.232c-.94-3.274-2.692-6.315-4.107-9.449-.254-.562-.687-1.045-.934-1.609-1.405-3.214-4.333-5.009-6.749-7.274-1.21-1.134-2.807-1.53-4.3-2.166-2.505-1.063-5.352-1.332-7.539-3.148a1.232,1.232,0,0,0-.71-.289,32.853,32.853,0,0,0-4.34.092c-5.708.764-10.431,2.967-14.133,7.811-4.918,6.434-7.513,13.371-7.02,21.43.22,3.591.608,7.172.9,10.759C1964.206,185.162,1964.234,186.388,1964.287,187.467Z" fill="#d9dadc"/>
    <path id="Path_66" data-name="Path 66" d="M1822.263,511.747h3.926a1.034,1.034,0,0,1,.169.411q.008,2-.029,4.006c-.007.4-.073.8-.1,1.2a9.15,9.15,0,0,0,.486,2.684,11.625,11.625,0,0,0,.821,2.339,4.54,4.54,0,0,0,1.9,2.088c.591.338,1.058.885,1.631,1.262a3.492,3.492,0,0,0,1.313.555,3.693,3.693,0,0,0,3.438-1.057,1.251,1.251,0,0,1,.357-.324,6.07,6.07,0,0,0,2.987-3.585,6.454,6.454,0,0,0,.283-1c.4-1.508.82-3.01,1.174-4.527a13.987,13.987,0,0,0,.2-5.415,30.768,30.768,0,0,0-1.012-3.884,18.589,18.589,0,0,0-1.346-3.054c-.733-1.456-1.684-2.786-2.4-4.263a12.271,12.271,0,0,0-2.009-2.5c-.634-.722-1.325-1.394-1.977-2.1-.342-.371-.329-.578.051-.919.456-.411.963-.769,1.388-1.209a7.36,7.36,0,0,0,1.019-1.325c.7-1.169,1.394-2.342,2-3.558a13.968,13.968,0,0,0,1.168-3.626,21.649,21.649,0,0,0,.466-3.459,11.268,11.268,0,0,0-.235-3.274,25.169,25.169,0,0,0-1.106-3.67c-.01-.025-.034-.049-.033-.073.038-.951-.566-1.707-.807-2.635,1.281-.569,2.665.079,3.951-.367a6.657,6.657,0,0,1,1.161,4.75c-.054.416-.008.845-.034,1.266-.021.34-.084.677-.123,1.015-.112.985-.2,1.975-.34,2.956a13.429,13.429,0,0,0-.033,3.346,6.825,6.825,0,0,1-.191,2.242c-.3,1.249-.722,2.467-1.08,3.7-.224.775-.413,1.56-.636,2.334-.146.507-.2,1.075-.77,1.325l.152,1.059a14.1,14.1,0,0,1,1.712,1.275,5.075,5.075,0,0,0,.928.636,5.9,5.9,0,0,1,2.9,4.108c.3,1.909.627,3.816.888,5.731.177,1.3.3,2.612.376,3.923.083,1.368.117,2.741.119,4.112a17.072,17.072,0,0,1-1.062,4.769c-.241.831-.5,1.676-.787,2.505a12.823,12.823,0,0,1-1.932,3.519c-.408.548-.822,1.094-1.269,1.609A6.52,6.52,0,0,1,1837,528.59a22.7,22.7,0,0,1-4.558.846,9.644,9.644,0,0,1-3.828-.325,6.324,6.324,0,0,1-4.46-3.838c-.156-.393-.373-.76-.545-1.146a9.84,9.84,0,0,1-.691-3.12c-.048-.5-.236-.987-.312-1.487a22.689,22.689,0,0,1-.289-2.388c-.075-1.665-.091-3.332-.127-5A2.369,2.369,0,0,1,1822.263,511.747Z" fill="#d9dadc"/>
    <path id="Path_67" data-name="Path 67" d="M2088.041,491.592h-4.176a3.569,3.569,0,0,1-.585-3.192,2.521,2.521,0,0,0,.026-.819,43.287,43.287,0,0,1-.083-7.718,23.866,23.866,0,0,1,.862-4.506,25.966,25.966,0,0,1,1.611-3.417,1.924,1.924,0,0,1,.878-.928c.986-.428,1.462-1.376,2.235-2.016,1.066-.883,1.937-2.018,3.277-2.538.826-.321,1.676-.582,2.518-.86.192-.063.449-.024.587-.139a1.38,1.38,0,0,1,1.371-.173,4.126,4.126,0,0,0,1.021.082,8.48,8.48,0,0,1,5.527,1.947,8.72,8.72,0,0,1,2.425,2.622,5.6,5.6,0,0,1,.363.741c.617,1.8,1.284,3.579,1.809,5.4a35.685,35.685,0,0,1,.8,3.95,33.8,33.8,0,0,1,.215,6.738.9.9,0,0,1,0,.207,26.629,26.629,0,0,0-.363,3.674c-.1.778-.38,1.155-1.15,1.2a35.628,35.628,0,0,1-3.922-.006c-.985-.058-1.126-.322-1.163-1.341a28.628,28.628,0,0,1,.632-4.8c.175-1.318.211-2.654.307-3.981a3.98,3.98,0,0,1,.034-.6,12.084,12.084,0,0,0-.293-6.229,3.963,3.963,0,0,1-.153-.6,5.119,5.119,0,0,0-2.147-3.194,6.006,6.006,0,0,0-2.685-1.471c-2.051-.4-4.113-.833-6.12.281a6.348,6.348,0,0,0-2.719,2.9,19.088,19.088,0,0,0-.889,2.534c-.227.724-.377,1.473-.6,2.2a23.786,23.786,0,0,0-.875,4.451,17.475,17.475,0,0,0,.868,7.026C2087.709,489.792,2087.829,490.608,2088.041,491.592Z" fill="#d9dadc"/>
    <path id="Path_68" data-name="Path 68" d="M1855.216,494.359l-3.456.182a15.918,15.918,0,0,1-.682-1.837c-.257-1.058-.423-2.137-.629-3.208a37.45,37.45,0,0,1-.494-5.057c-.056-1.024-.063-2.054-.03-3.079a5.363,5.363,0,0,1,.272-1.5,17.377,17.377,0,0,1,1.483-3.464,7.808,7.808,0,0,1,2.067-1.926,19,19,0,0,1,2.32-1.461,2.865,2.865,0,0,1,1.021-.436,10.512,10.512,0,0,1,3.677-.1c.752.17,1.527.24,2.286.385a6.322,6.322,0,0,1,2.1,1.078,8.505,8.505,0,0,1,2.542,2.759,13.756,13.756,0,0,1,1.844,4.613c.222.985.087,2.056.35,3.024a25.6,25.6,0,0,1,.333,4.271,16.051,16.051,0,0,1-.191,3c-.044.482-.14.959-.222,1.5h-2.776a16.491,16.491,0,0,1,.134-1.933,17.087,17.087,0,0,0,.151-3.766c-.017-.462.027-.927-.013-1.386-.07-.8-.146-1.594-.286-2.379a20.212,20.212,0,0,0-1.7-5.307,4.75,4.75,0,0,0-3.447-2.707,18.066,18.066,0,0,0-2.2-.239,6.694,6.694,0,0,0-3.746,1.013,2.35,2.35,0,0,0-.787.778,10.725,10.725,0,0,0-1.474,3.722,18.149,18.149,0,0,0-.213,2.181c-.048.586-.1,1.171-.117,1.757-.007.337.079.674.1,1.012.055.739.04,1.488.16,2.215a31.477,31.477,0,0,0,.689,3.187c.226.824.583,1.612.862,2.422A3.35,3.35,0,0,1,1855.216,494.359Z" fill="#fff"/>
    <path id="Path_69" data-name="Path 69" d="M1746.678,245.506c-.281,4.648-.342,8.826-.833,12.954a63.725,63.725,0,0,0,.094,13.827c1,10.145,1.779,20.325,1.108,30.509-.442,6.706-1.557,13.366-2.337,20.05-.113.972.05,1.976-.07,2.947-.191,1.551.051,3.085-.642,4.68-.584,1.347-.292,3.108-.258,4.683.08,3.7.248,7.4.361,11.107.075,2.505.113,5.011.177,7.517.012.494-.117,1.121.131,1.456.872,1.18,1.676,2.746,2.888,3.252,1.435.6,2.5-.949,3.277-2.127,1.094-1.655,1.92-3.507,3.141-5.053a16.781,16.781,0,0,1,6.378-5.166c3.863-1.719,7.995-1.812,12.025-2.536.1-.017.2.013.3-.007,8.018-1.584,15.768.938,23.638,1.573a73.753,73.753,0,0,1,9.856,1.4c4.966,1.089,9.665,2.828,12.877,7.169a28.369,28.369,0,0,0,2.494,2.994c2.385,2.44,2.858,5.559,2.793,8.678a45.987,45.987,0,0,1-5.315,19.622c-2.643,5.283-5.306,10.653-9.6,14.869a41.125,41.125,0,0,1-6.379,5.042c-3.548,2.312-7.2,4.485-10.92,6.51-5.513,3-11.282,5.651-17.626,5.858-7.434.243-14.718-.943-20.943-5.5a86.442,86.442,0,0,1-7.828-6.608,15.624,15.624,0,0,1-3.994-5.977c-1.42-3.76-3.324-7.343-4.64-11.135a106.863,106.863,0,0,1-2.841-10.788c-1.3-5.556-2.485-11.122-4.208-16.586-1.161-3.683-2.071-7.506-1.573-11.562.391-3.189.06-6.464.088-9.7.051-5.863-.089-11.739.275-17.583.261-4.2,1.289-8.352,1.832-12.543a60.744,60.744,0,0,0,.85-9.874c-.185-5.116,1.005-10.028,1.539-15.034.6-5.6,1.338-11.2,1.7-16.822.4-6.236.461-12.494.651-18.742.073-2.422.188-2.609,2.679-3.113A21.506,21.506,0,0,1,1746.678,245.506Z" fill="#d9dadc"/>
    <path id="Path_70" data-name="Path 70" d="M1790.4,480.448c1.642-.194,3.117-.8,4.762-.583a6.432,6.432,0,0,1,.142.8c.076,1.581.194,3.163.187,4.743-.007,1.475-.142,2.949-.241,4.421q-.08,1.166-.228,2.326a7.9,7.9,0,0,1-1.955,4.335,15.726,15.726,0,0,1-2.508,2.389,6.937,6.937,0,0,1-4.015,1.489c-1.206,0-2.411.055-3.616.039a14.679,14.679,0,0,1-4.008-.868,2.665,2.665,0,0,1-.776-.559,11.075,11.075,0,0,1-3.014-4.222,20.161,20.161,0,0,1-1.177-3.842c-.389-1.7-.7-3.421-.951-5.146a17.143,17.143,0,0,1-.067-2.577c.008-1.685.014-3.37.065-5.054.063-2.067.184-4.133.253-6.2.019-.587-.091-1.178-.079-1.767.02-.989.088-1.977.14-2.966.033-.643.057-1.288.116-1.929.122-1.336.271-2.669.4-4,.086-.927.168-1.854.217-2.782.044-.82.153-.963.959-.885.689.068,1.371.194,2.122.3,0,.882.043,1.658-.009,2.428-.111,1.635-.28,3.266-.41,4.9-.22,2.759-.463,5.517-.628,8.279-.093,1.553-.038,3.115-.075,4.672a32.409,32.409,0,0,0,.307,4.669c.106.875.077,1.767.177,2.644.085.737.343,1.458.4,2.2a19.5,19.5,0,0,0,.833,3.846,5.982,5.982,0,0,0,3.029,3.972,8.535,8.535,0,0,0,6.488.61,3.646,3.646,0,0,0,.871-.421c.637-.4,1.276-.8,1.88-1.245a2.7,2.7,0,0,0,1.032-1.509c.283-1.117.514-2.248.761-3.374a12.09,12.09,0,0,0-.434-5.338c-.213-.944-.523-1.865-.774-2.8C1790.495,481.155,1790.471,480.861,1790.4,480.448Z" fill="#d9dadc"/>
    <path id="Path_71" data-name="Path 71" d="M1676.773,191.924a22.568,22.568,0,0,1-1.2-2.553c-.9-2.78-1.521-5.662-2.612-8.359a25.577,25.577,0,0,1-2.26-11.8c.515-5.79.371-11.615,1.67-17.391,1.384-6.155,4.617-11.12,8.029-16.181,2.3-3.4,5.743-5.112,8.9-7.3,1.31-.909,2.626-1.817,3.991-2.639a39.244,39.244,0,0,1,14.317-5.243,93.488,93.488,0,0,0,9.336-1.764c3.342-.879,6.615-.208,9.676.606a50.49,50.49,0,0,1,10.442,4.5c4.191,2.224,6.534,6.093,8.3,10.386,2,4.85,2.307,9.953,2.789,15.086.653,6.96-1.035,13.732-1.189,20.613a57.846,57.846,0,0,1-1.01,11.071c-.514,2.366-.693,2.326-3.213,2.446-3.258.155-6.028-1.185-9.054-2.222,0-1.814-.056-3.565.012-5.312.132-3.365.335-6.727.507-10.09q.116-2.241.227-4.484a5.039,5.039,0,0,0,.051-1.051,57.258,57.258,0,0,0-5.057-16.675c-2.354-4.666-6.3-7.565-11.248-9.157a28.468,28.468,0,0,0-8.553-1.758,13.533,13.533,0,0,1-2.625-.353c-5.294-1.093-10.189.136-14.811,2.645a8.571,8.571,0,0,0-2.45,2.381c-1.08,1.4-1.906,3-3.015,4.364a21,21,0,0,0-4.485,13.84c.017,3.728.111,7.455.17,11.182a4.835,4.835,0,0,0,.028,1.065c1.166,4.712,2.336,9.423,3.54,14.126.718,2.8,1.5,5.6,2.33,8.7Z" fill="#d9dadc"/>
    <path id="Path_72" data-name="Path 72" d="M1924.358,474.065c-1.85-10.38-1.834-16.159.186-26.519.245-.8.068-1.3-.779-1.483-2.673-.485-5.514-.263-8.135-.667a1.315,1.315,0,0,0-1.633.386,120.628,120.628,0,0,0-1.207,18.64c-.908,12.9.378,36.49,18.178,34.915C1951.1,500.192,1947.49,464.511,1924.358,474.065Zm4.166,16.132c-2.419.248-3.66-2.4-4.251-4.333-.544-5.794,9.852-5.654,9.5.484C1934.025,489.066,1930.907,490.977,1928.524,490.2Z" fill="#001d33"/>
    <g id="Group_8" data-name="Group 8">
      <g id="Group_7" data-name="Group 7">
        <path id="Path_73" data-name="Path 73" d="M1910.459,478.69a7.19,7.19,0,0,1,.45,2.99c-.14,1.06-.17,2.15-.22,3.23-.06,1.02-.08,2.05-.13,3.07a19.149,19.149,0,0,1-.58,3.37,21.149,21.149,0,0,0-.35,2.39c-.13,1.01-.24,2.02-.35,3a2.248,2.248,0,0,1-2.01.34,28.129,28.129,0,0,0-5.19-.08,6.1,6.1,0,0,1-.77-.05,2.1,2.1,0,0,1,.12-1.74c.42-1,.77-2.03,1.18-3.04.19-.45.47-.86.66-1.31.43-1,.88-1.99,1.23-3.02a7.1,7.1,0,0,0,.34-3.39c-.1-.71-.23-1.41-.38-2.11a2.029,2.029,0,0,0-.79-1.3,1.274,1.274,0,0,1-.35-.38,2.536,2.536,0,0,0-2.74-1.35c-1.25.09-2.51.22-3.76.34a1.134,1.134,0,0,0-.26.01c-1.06.13-1.26.37-1.23,1.43a40.53,40.53,0,0,0,.25,5.16,3.85,3.85,0,0,1-.18,1.18,15.316,15.316,0,0,1-1.8,4.71,3.2,3.2,0,0,1-1.53,1.68c-.45.19-.75.71-1.19.97a25.1,25.1,0,0,1-3.39,1.81,6.413,6.413,0,0,1-2.29.2,17.115,17.115,0,0,1-2.48-.15,10.926,10.926,0,0,1-4.22-1.41,6.879,6.879,0,0,1-1.94-2.15,19.156,19.156,0,0,1-1.79-3.97,12.454,12.454,0,0,1-.71-4.4,36.559,36.559,0,0,1,.11-4.56c.07-.56.19-1.12.25-1.69a11.519,11.519,0,0,1,.08-1.18,6.63,6.63,0,0,1,.52-1.34c.21-.47.48-.91.72-1.37a2.134,2.134,0,0,1,.13-.32,12.862,12.862,0,0,1,1.33-1.84,6.273,6.273,0,0,1,2.3-1.73,13.056,13.056,0,0,0,1.89-.8,3.8,3.8,0,0,1,2.02-.32,15.8,15.8,0,0,1,3.43.24.824.824,0,0,0,.25.06c1.57-.22,2.77.81,4.15,1.23a4.789,4.789,0,0,1,1.59,1,.893.893,0,0,0,.94.21c2.02-.67,4.17-.54,6.21-1a11.033,11.033,0,0,1,4.44.24,7.081,7.081,0,0,1,2.03,1.1c.22.13.4.33.63.45a5.277,5.277,0,0,1,2.42,3.13C1909.8,477.06,1910.209,477.85,1910.459,478.69Zm-1.07,10.08a18.332,18.332,0,0,0,.36-4.11,33.165,33.165,0,0,1-.26-3.84,9.77,9.77,0,0,0-1.22-4.62,7.081,7.081,0,0,0-6.83-3.65c-.63.04-1.27.1-1.89.17-.72.09-1.43.19-2.14.31a16.267,16.267,0,0,0-4.23,1.44c-.95.46-1.35.39-1.88-.52a5.756,5.756,0,0,0-2.41-2,2.644,2.644,0,0,0-.97-.27,20.636,20.636,0,0,0-5.14.46,5.08,5.08,0,0,0-1.81.5,5.84,5.84,0,0,0-2.25,2.08,19.97,19.97,0,0,0-1.18,2.3,12.521,12.521,0,0,0-1.33,3.99c-.04.46-.08,4.03.03,5.32a8.63,8.63,0,0,0,.41,2.34,27.569,27.569,0,0,0,1.64,3.14,1.621,1.621,0,0,0,.61.58,35.6,35.6,0,0,0,5.22,2.66,5.072,5.072,0,0,0,3.22.04,10.621,10.621,0,0,0,3.16-1.89,1.72,1.72,0,0,0,.46-.6,18.433,18.433,0,0,0,2.09-4.82,14.249,14.249,0,0,0,.3-5.08c-.05-.39-.07-.78-.1-1.17-.05-.6-.04-1.2-.13-1.79-.11-.73-.14-.76.56-.95a34.081,34.081,0,0,1,5.4-1.13,6.367,6.367,0,0,1,5.07,1.34,1.419,1.419,0,0,0,.28.2,3.277,3.277,0,0,1,1.59,2.45,22.075,22.075,0,0,1,.33,4.37c-.05,1.02-.42,1.94-.54,2.93a13.555,13.555,0,0,1-1.43,3.95c-.26.58-.59,1.13-.85,1.72a6.669,6.669,0,0,0-.27.89,16.958,16.958,0,0,0,4.81.35c.17-.67.39-1.32.51-1.99C1908.879,492.17,1909.189,490.48,1909.389,488.77Z" fill="#001d33"/>
        <path id="Path_74" data-name="Path 74" d="M1909.749,484.66a18.332,18.332,0,0,1-.36,4.11c-.2,1.71-.51,3.4-.81,5.1-.12.67-.34,1.32-.51,1.99a16.958,16.958,0,0,1-4.81-.35,6.669,6.669,0,0,1,.27-.89c.26-.59.59-1.14.85-1.72a13.555,13.555,0,0,0,1.43-3.95c.12-.99.49-1.91.54-2.93a22.075,22.075,0,0,0-.33-4.37,3.277,3.277,0,0,0-1.59-2.45,1.419,1.419,0,0,1-.28-.2,6.367,6.367,0,0,0-5.07-1.34,34.081,34.081,0,0,0-5.4,1.13c-.7.19-.67.22-.56.95.09.59.08,1.19.13,1.79.03.39.05.78.1,1.17a14.249,14.249,0,0,1-.3,5.08,18.433,18.433,0,0,1-2.09,4.82,1.72,1.72,0,0,1-.46.6,10.621,10.621,0,0,1-3.16,1.89,5.072,5.072,0,0,1-3.22-.04,35.6,35.6,0,0,1-5.22-2.66,1.621,1.621,0,0,1-.61-.58,27.569,27.569,0,0,1-1.64-3.14,8.63,8.63,0,0,1-.41-2.34c-.11-1.29-.07-4.86-.03-5.32a12.521,12.521,0,0,1,1.33-3.99,19.97,19.97,0,0,1,1.18-2.3,5.84,5.84,0,0,1,2.25-2.08,5.08,5.08,0,0,1,1.81-.5,20.636,20.636,0,0,1,5.14-.46,2.644,2.644,0,0,1,.97.27,5.756,5.756,0,0,1,2.41,2c.53.91.93.98,1.88.52a16.267,16.267,0,0,1,4.23-1.44c.71-.12,1.42-.22,2.14-.31.62-.07,1.26-.13,1.89-.17a7.081,7.081,0,0,1,6.83,3.65,9.77,9.77,0,0,1,1.22,4.62A33.165,33.165,0,0,0,1909.749,484.66Zm-19.9-1.07a3.978,3.978,0,0,0-.12-2.24,8.2,8.2,0,0,0-5.39-4.73,1.029,1.029,0,0,0-.52.03,7.962,7.962,0,0,0-1.34.49,3.96,3.96,0,0,0-.93.71,4.157,4.157,0,0,0-.48.68,6.833,6.833,0,0,0-1.31,4.09,8.543,8.543,0,0,0,.89,3.99,3.016,3.016,0,0,0,.57.72c1.1,1.11,2.52,1.25,3.91,1.43,2.11.28,3.51-1.57,4.26-3.18A6.638,6.638,0,0,0,1889.849,483.59Z" fill="#d9dadc"/>
        <path id="Path_75" data-name="Path 75" d="M1889.729,481.35a3.978,3.978,0,0,1,.12,2.24,6.638,6.638,0,0,1-.46,1.99c-.75,1.61-2.15,3.46-4.26,3.18-1.39-.18-2.81-.32-3.91-1.43a3.016,3.016,0,0,1-.57-.72,8.543,8.543,0,0,1-.89-3.99,6.833,6.833,0,0,1,1.31-4.09,4.157,4.157,0,0,1,.48-.68,3.96,3.96,0,0,1,.93-.71,7.962,7.962,0,0,1,1.34-.49,1.029,1.029,0,0,1,.52-.03A8.2,8.2,0,0,1,1889.729,481.35Zm-2.03,4.57a3.6,3.6,0,0,0,.92-3.83,13.815,13.815,0,0,1-.7-1.23,1.958,1.958,0,0,0-1.94-1.26,5.9,5.9,0,0,1-1.58-.19,1.224,1.224,0,0,0-1.34.28c-.96,1.06-2.15,2.05-1.79,3.84a1.9,1.9,0,0,1-.08.56,2.638,2.638,0,0,0,1.1,2.38c.87.61,1.9.17,2.6.54A4.46,4.46,0,0,0,1887.7,485.92Z" fill="#001d33"/>
      </g>
    </g>
    <g id="Group_9" data-name="Group 9">
      <path id="Path_76" data-name="Path 76" d="M2018.175,514.8c.475,3.435.69,6.752,2.321,9.825a2.188,2.188,0,0,0,.167.268c1.5,2.054,4.216,3.271,6.662,2.134,1.888-.535,3.674-1.336,4.638-3.106a30.016,30.016,0,0,0,4.044-9.468c1.518-6.49.3-13.258.971-19.848a84.958,84.958,0,0,0-.313-15.3,1.933,1.933,0,0,0-.045-.239c-.97-3.93-2.976-7.985-7.3-8.792a1.611,1.611,0,0,1-.32-.1,12.8,12.8,0,0,0-6.548-.96,1.254,1.254,0,0,0-1.1,1.047c-.889,1.759-2.249,3.439-3.181,5.226-1.016,1.645-1.1,3.583-1.68,5.366a13.774,13.774,0,0,0,.069,8.566c.029,1.489-2.07,1.873-3.347,1.455a1.536,1.536,0,0,1-.854-.687c-.628-1.1-.419-2.98-.625-4.147-.337-5.414-.72-11.55,3.342-15.769,4.7-4.725,10.216-7.649,16.588-4.019,2.336,1.765,5.266,3.309,6.221,6.269a28.418,28.418,0,0,1,2.912,10.137c0,.045.01.091.018.137.577,3.2,1.117,6.411,1.589,9.63a1.68,1.68,0,0,1,.019.256c0,3.785.212,7.579.274,11.364a46.051,46.051,0,0,1-2.069,14.062,1.885,1.885,0,0,1-.1.249c-.639,1.365-.379,2.872-1.013,4.231a29.737,29.737,0,0,1-3.28,6.454c-2.2,4.491-6.817,4.424-11.092,3.384a16.953,16.953,0,0,1-7.569-2.91,1.829,1.829,0,0,0-.792-.283c-.733-.083-.855-.83-1.159-1.387-1.359-2.448-2.988-4.754-3.162-7.642-1.286-6.11-1.92-7.808,4.159-6.96A1.816,1.816,0,0,1,2018.175,514.8Z" fill="#001d33"/>
      <path id="Path_77" data-name="Path 77" d="M1982.456,483.6c.633,6.241-.035,4.431-5.325,4.739-1.379.073-1.841-1.379-1.889-2.482.022-5.217-.455-11.041,2.718-15.53a9.554,9.554,0,0,1,6.768-4.372,13.75,13.75,0,0,1,7.773-.131c1.644.374,4.7.642,5.665,2.12.043.089.195.129.3.186a4.055,4.055,0,0,1,1.98,2.478c2.666,5.8,2.074,12.323.844,18.424-1.2,5.547-2.422,3.244,1.481,7.6a21.4,21.4,0,0,1,3.222,6.2,17.973,17.973,0,0,1,.551,3.85,1.957,1.957,0,0,0,.485.961c.612.736-.237,1.84-.137,2.74a46.54,46.54,0,0,1-1.362,8.569,17.211,17.211,0,0,1-6.161,10.155c-3.045,2.828-6.7,5.362-11.065,4.8-2.655-.259-5.443-.86-7.076-3.2-3.744-4-4.818-8.4-6.327-13.489-.35-1.364-.642-2.757-.893-4.143a1.817,1.817,0,0,1-.015-.542c.41-3.4.79-6.8,1.168-10.2.346-2.336,4.327-.581,5.875-.582,1.53.272,2.09.182,1.9,1.9a38.709,38.709,0,0,1-.675,7.411,6.3,6.3,0,0,0,.113,2.011c.483,2.579.15,5.315,1.359,7.731.717,1.208.746,2.964,2.074,3.644,1.7,1.032,3.344.8,5.214.272,6.244-1.826,8.726-10.233,8.487-16.041-.368-4.817-1.7-12.468-7.639-12.933-1.192-.084-1.445-.577-1.065-1.655.346-.671,1.46-.982,1.222-1.959a19.749,19.749,0,0,0,1.7-5.241c.123-1.282.659-2.52.858-3.8.537-3.333-.215-7.242-3.454-8.962C1985.814,471.8,1981.942,479.021,1982.456,483.6Zm-3.364,20.075a1.806,1.806,0,0,0-2.082,1.6c-.2,1.881-.327,3.71-.466,5.627a13.1,13.1,0,0,0,1.061,6.982,1.712,1.712,0,0,1,.078.239c1.088,4.525,2.382,9.353,6.2,12.365a2.288,2.288,0,0,0,.265.182c2.839,1.619,9.054.455,11.632-1.3,3.111-1.67,5-4.686,6.245-7.908.98-2.7,2.107-5.408,2.348-8.3,1.124-6.712-.065-14.8-6.671-18.24-1.118-.773.761-2.046.921-3a1.144,1.144,0,0,1,.03-.141,30.7,30.7,0,0,0,.446-16.312c-.051-.251-.375-.465-.384-.7a4.146,4.146,0,0,0-1.293-2.995c-1.7-2.2-4.269-2.784-6.731-3.724-2.476-1.21-5.283-.515-7.72.378a17.866,17.866,0,0,0-3.436,2.679,2.16,2.16,0,0,0-.216.254c-1.134,1.576-1.358,3.634-1.867,5.48a1.788,1.788,0,0,0-.065.385c-.14,2.547.192,5.138-.023,7.693-.156,1.967,3.318,2.043,3.117.065.335-2.431-.314-5.219,1.107-7.354.97-2.495,2.249-5.006,5.259-5.274,2.99-.579,7.088-.745,8.716,2.339.36.7,1.1,1.107,1.242,1.993a11.094,11.094,0,0,1,.946,6.078c-.463,5.518-1.044,6.283-3.341,9.894a1.8,1.8,0,0,0,.576,2.505,12.514,12.514,0,0,1,3.941,3.256c2.814,4,2.633,9.059,2.8,13.729,0,.057,0,.114,0,.171-.243,4.7-1.321,8.939-4.394,12.614-2.209,3.383-7.252,5.428-10.986,3.36a2.156,2.156,0,0,1-.272-.178c-3.987-3.029-5.372-8.2-5.856-12.959-.007-.064-.01-.127-.012-.192-.056-3.13.261-6.271.435-9.4a1.806,1.806,0,0,0-1.512-1.885Z" fill="#001d33"/>
      <path id="Path_78" data-name="Path 78" d="M2048.075,449.124c.034,2.018.454,3.8.534,5.721a1.728,1.728,0,0,1,.066,1.575c-.12.5-.385.79-.837.793-1.476.01-2.955.008-4.427-.086-1.638.05-.909-4.783-1.135-6.047a65.621,65.621,0,0,0-.635-11.286,5.859,5.859,0,0,1-.067-2.746c.151-.5.419-.623.805-.567,1.277.183,2.542.444,3.82.615,1.082.145.878,1.052,1.035,1.7.363,1.234-.391,3.754,1.746,3.238a9.382,9.382,0,0,1,3.954.125,13.7,13.7,0,0,1,4.887.755q1.287.316,2.584.6c.456.1.738.207.572.815.224,2.811-.39,5.7-.069,8.52-.034,2.605-.108,5.211-.131,7.816.2,1.35-.55,4.232,1.494,4.2,3.847,0,6.4,2.506,9.436,4.3a1.8,1.8,0,0,1,.418.334,20.963,20.963,0,0,1,4.223,8.281,8.618,8.618,0,0,1,.143,4.293,15.4,15.4,0,0,1-3.905,8.946,2.083,2.083,0,0,1-.26.247,17.12,17.12,0,0,1-9.482,3.977,35.166,35.166,0,0,1-3.559-.473c-5.266-.556-7.883-5.523-10.68-9.372a12.967,12.967,0,0,1-1.1-1.787,2.2,2.2,0,0,1-.1-.486c-.062-.408-.264-.775-.356-1.149-.354-1.44-.958-2.885-.45-4.444,1.118-4.067,2.574-9.076,7.218-10.245,2.357-.731,1.412-3.526,1.523-5.359-.024-2.909-.4-5.746-.236-8.667a14.423,14.423,0,0,0-.256-4.235c-.181-1.108-.312-1.05-1.536-.852C2051.551,448.5,2049.732,448.35,2048.075,449.124Z" fill="#001d33"/>
      <path id="Path_79" data-name="Path 79" d="M1979.093,503.67l.034,0a1.806,1.806,0,0,1,1.512,1.885c-.174,3.124-.491,6.265-.435,9.4,0,.065.005.128.012.192.484,4.763,1.871,9.936,5.862,12.963a2.446,2.446,0,0,0,.258.172c3.236,1.845,7.431.409,9.938-2.02a2.021,2.021,0,0,0,.166-.179c2.7-3.226,4.847-7.069,5.02-11.369a1.067,1.067,0,0,1,.011-.111,21.124,21.124,0,0,0,.135-5.235c0-.039-.006-.078-.006-.117,0-3.747-.487-7.688-2.676-10.842a12.536,12.536,0,0,0-3.941-3.255,1.8,1.8,0,0,1-.576-2.505c2.3-3.612,2.879-4.382,3.341-9.894a11.1,11.1,0,0,0-.946-6.078c-.139-.886-.882-1.3-1.242-1.993-1.631-3.079-5.723-2.919-8.716-2.339-3.015.281-4.285,2.765-5.259,5.274-1.422,2.133-.771,4.924-1.107,7.354.2,1.978-3.272,1.9-3.117-.065.215-2.555-.117-5.146.023-7.693a1.788,1.788,0,0,1,.065-.385c.508-1.847.734-3.9,1.866-5.479a2.121,2.121,0,0,1,.217-.255,17.865,17.865,0,0,1,3.436-2.679c2.438-.892,5.243-1.588,7.72-.379,2.462.944,5.028,1.523,6.73,3.725a4.143,4.143,0,0,1,1.294,2.995c.009.238.333.452.384.7a30.687,30.687,0,0,1-.468,16.382c-.069.962-2.078,2.279-.929,3.073,6.6,3.438,7.8,11.528,6.671,18.24-.241,2.889-1.368,5.6-2.347,8.3-1.246,3.217-3.134,6.243-6.247,7.907-2.624,1.781-8.751,2.911-11.624,1.307a2.089,2.089,0,0,1-.278-.188c-3.81-3.014-5.1-7.838-6.192-12.362a1.639,1.639,0,0,0-.076-.237,13.085,13.085,0,0,1-1.061-6.983c.138-1.918.27-3.746.465-5.626A1.807,1.807,0,0,1,1979.093,503.67Z" fill="#d9dadc"/>
    </g>
  </g>
</svg>
