<svg xmlns="http://www.w3.org/2000/svg" width="439.402" height="522.499" viewBox="0 0 439.402 522.499">
  <g id="Layer_2" data-name="Layer 2" transform="translate(-1124.381 -41.03)">
    <path id="Path_80" data-name="Path 80" d="M1281.454,174.978c0-4.065.3-8.157-.077-12.186-.464-4.946-.428-9.974-1.891-14.813a30.235,30.235,0,0,1-.989-5.219,34.441,34.441,0,0,0-2.321-8.8,12.172,12.172,0,0,0-9.439-7.855c-2.465-.5-4.908-1.1-7.368-1.616-2.718-.572-5.427-1.238-8.174-1.608a9.441,9.441,0,0,0-5.886.931,18.1,18.1,0,0,0-6.779,5.958,24.834,24.834,0,0,0-4.475,13.545c-.033,3.039-.456,6.088-.3,9.111.218,4.118.438,8.276,1.971,12.207a11.918,11.918,0,0,1,.537,2.477c.192,1.212-.2,1.775-1.477,2.417-2.13,1.067-4.31,1.025-6.494,1.207-2.691.225-5.372.234-8.071.73a22.925,22.925,0,0,1-4.634.245,2.631,2.631,0,0,1-2.73-3.127c.269-3.513.568-7.023.777-10.539.055-.912-.3-1.846-.259-2.761.242-5.9.418-11.8.873-17.679a40.283,40.283,0,0,1,1.567-7.9,54.165,54.165,0,0,1,5.659-13.74,16.738,16.738,0,0,1,4.54-5.05c3.172-2.258,6.341-4.554,9.964-5.958a54.153,54.153,0,0,1,8.051-2.006c1.714-.374,3.464-.586,5.2-.871a2.1,2.1,0,0,1,.748-.1c3.934.944,7.826-.7,11.758-.17,1.519.206,3.061.233,4.593.344a14.753,14.753,0,0,0,2.713.179c3.249-.381,6.155,1.023,9.06,1.966,1.632.529,3.67.521,4.952,2.192,2.257,2.943,5.994,4.377,8.029,7.54a143.018,143.018,0,0,1,7.623,12.56c1.344,2.656,1.892,5.764,2.5,8.729a62.827,62.827,0,0,1,1.157,14.4c-.255,9.805-.3,19.616-.569,29.421-.1,3.627-.61,7.242-.849,10.868-.134,2.029-.041,4.072-.147,6.1-.243,4.642-.149,9.349-.921,13.906a54.031,54.031,0,0,1-6.438,18.065c-1.518,2.63-2.757,5.45-4.51,7.907-1.621,2.271-3.327,4.645-6.247,5.594-.609.2-1.061.837-1.654,1.132-1.954.971-3.907,1.957-5.921,2.788-2.49,1.028-5.095,1.786-7.55,2.885-2.4,1.073-4.917,1.077-7.424,1.306-.923.085-1.872-.015-2.778.148a17.125,17.125,0,0,1-10.182-.947,38.323,38.323,0,0,0-6.353-1.606c-.328-.079-.731-.015-.992-.183-3.678-2.37-7.671-4.212-10.7-7.6-3.683-4.118-5.8-9.076-8.373-13.819a29.725,29.725,0,0,1-3.843-12.993c-.189-4.2-.121-8.42-.165-12.63,0-.17,0-.34,0-.51,0-.491,1.076-5.952,1.251-6.356.695-1.608,1.35-2,3.079-1.968,1.841.033,3.685-.02,5.525.033a10.344,10.344,0,0,1,1.689.4c2.209.455,4.329,1.277,6.71.746,1.816-.406,3.2.987,3.3,2.948.061,1.271.057,2.548.007,3.819a44.643,44.643,0,0,0,3.261,18.332c.836,2.119,1.826,4.182,2.845,6.222a6.306,6.306,0,0,0,1.565,1.956c2,1.68,4.079,3.276,6.134,4.894a2.92,2.92,0,0,0,.866.526c4.462,1.413,8.94,2.515,13.3-.27a14.8,14.8,0,0,0,2.212-2,27.536,27.536,0,0,0,6.485-10.518c1.847-5.079,3.481-10.257,4.825-15.49a50.827,50.827,0,0,0,1.11-9.3c.4-6.168.65-12.346.962-18.519Z" fill="#001d33"/>
    <path id="Path_81" data-name="Path 81" d="M1199.42,511.138a3.034,3.034,0,0,0,.624-.252,14.251,14.251,0,0,0,3.64-3.423,21.665,21.665,0,0,0,1.846-3.632c.779-1.826,1.532-3.671,2.16-5.553a16.54,16.54,0,0,0,.418-8.124c-.515-3.067-1.992-5.684-3.4-8.351a2.177,2.177,0,0,1-.044-1.863,1.047,1.047,0,0,1,.975-.651c1.027-.067,2.048-.23,3.073-.341.961-.105,1.924-.192,2.886-.29.619-.064,1.236-.152,1.856-.2a1.479,1.479,0,0,1,1.259.542,3.5,3.5,0,0,1,1.03,2.168c.175,1.461.6,2.89.856,4.345a10.745,10.745,0,0,1,.125,2.246,27.453,27.453,0,0,0,.192,3.615,27.586,27.586,0,0,1-.643,7.346c-.429,2.434-1.408,4.706-1.976,7.1-.447,1.88-.911,3.757-1.385,5.706,1.194.989,2.336,1.986,3.534,2.91a12.112,12.112,0,0,1,2.263,2.583c.4.548.514,1.3,1.181,1.675.1.055.147.236.179.369.5,2.086,1.038,4.163,1.453,6.266a20.186,20.186,0,0,1,.192,3.011c.084,1.9.175,3.793.221,5.691.024,1.005-.038,2.013-.063,3.019a22.576,22.576,0,0,1-.124,3.389c-.273,1.528-.771,3.016-1.177,4.52a.761.761,0,0,1-.159.38c-.851.678-1.074,1.732-1.591,2.609a5.219,5.219,0,0,1-.547.889,12.778,12.778,0,0,0-1.521,2.588,14.112,14.112,0,0,1-2.749,4.032,12.956,12.956,0,0,1-2.679,2.054,14.107,14.107,0,0,0-1.706,1.267c-.245.174-.556.253-.815.412a11.949,11.949,0,0,0-2.467,1.313c-.224.218-.78.117-1.184.126a15.481,15.481,0,0,1-2.484-.011,11.233,11.233,0,0,1-2.936-.418,14.361,14.361,0,0,0-1.51-.349,17.741,17.741,0,0,1-1.8-.642c-.5-.212-.975-.5-1.473-.732a12.119,12.119,0,0,1-2.373-1.974c-1.013-.823-1.469-2.043-2.224-3.049a3.348,3.348,0,0,1-.307-.871c-.474-1.309-1.014-2.6-1.411-3.929a26.889,26.889,0,0,1-.768-3.545c-.235-1.51-.372-3.036-.54-4.556a6.226,6.226,0,0,1-.031-1.012c.077-1.384.176-2.767.255-4.151a2.345,2.345,0,0,0-.03-1.037,1.459,1.459,0,0,1,.214-1.465,1.127,1.127,0,0,1,1.344-.687,23.84,23.84,0,0,0,6.335.274c.289-.038.778,0,.867.167.223.416.775.619.735,1.207-.1,1.495-.093,3-.271,4.487a14.164,14.164,0,0,0,.784,7.381,8.649,8.649,0,0,0,.528.894,10.459,10.459,0,0,0,2.794,3.541,3.816,3.816,0,0,0,1.543.562,9.984,9.984,0,0,0,2.672.244c1.529-.16,2.382-1.339,3.131-2.532a30.088,30.088,0,0,0,2.523-5.918,15.392,15.392,0,0,0,1.062-4.873,29.166,29.166,0,0,0-.154-5.621,14.919,14.919,0,0,0-1.9-5.1c-.725-1.213-1.217-2.565-1.827-3.848a3.488,3.488,0,0,0-.489-.779c-.792-.915-1.593-1.823-2.413-2.714-.8-.867-1.633-1.7-2.431-2.567a19.657,19.657,0,0,1-1.261-1.517c-.323-.432-.455-1.027-1.088-1.177-.035-.008-.02-.167-.056-.243a6.1,6.1,0,0,0-.367-.728C1199.129,512.274,1199.119,512.248,1199.42,511.138Zm-9.772,23.59a3.018,3.018,0,0,0-.089.5c.046,2.159.067,4.318.164,6.474a29.312,29.312,0,0,0,.374,3.092c.1.648.342,1.277.4,1.926a12.749,12.749,0,0,0,.894,4.041c.223.5.505.975.706,1.483a8.191,8.191,0,0,0,5.777,4.971,12.5,12.5,0,0,0,4.957.421,29.451,29.451,0,0,0,5.9-1.095,8.462,8.462,0,0,0,3.772-2.514c.578-.668,1.115-1.374,1.643-2.083a16.652,16.652,0,0,0,2.5-4.559c.366-1.073.706-2.167,1.019-3.243a22.139,22.139,0,0,0,1.376-6.176c0-1.775-.047-3.553-.155-5.325-.1-1.7-.257-3.4-.487-5.081-.337-2.48-.759-4.949-1.15-7.422a7.645,7.645,0,0,0-3.76-5.319,6.54,6.54,0,0,1-1.2-.824,18.209,18.209,0,0,0-2.217-1.651l-.2-1.372c.736-.322.808-1.058,1-1.715.289-1,.533-2.019.824-3.022.463-1.6,1.014-3.178,1.4-4.795a8.851,8.851,0,0,0,.246-2.9,17.357,17.357,0,0,1,.044-4.333c.185-1.27.294-2.551.44-3.827.05-.439.132-.875.159-1.315.033-.545-.026-1.1.044-1.64a8.626,8.626,0,0,0-1.5-6.151c-1.666.578-3.458-.262-5.117.476.312,1.2,1.095,2.18,1.044,3.412,0,.031.03.063.044.1a32.67,32.67,0,0,1,1.433,4.752,14.626,14.626,0,0,1,.3,4.239,28.035,28.035,0,0,1-.6,4.48,18.134,18.134,0,0,1-1.512,4.7c-.785,1.575-1.689,3.094-2.591,4.607a9.519,9.519,0,0,1-1.32,1.717c-.549.57-1.206,1.033-1.8,1.565-.491.442-.509.709-.066,1.19.845.916,1.739,1.786,2.56,2.721a15.91,15.91,0,0,1,2.6,3.237c.927,1.914,2.159,3.636,3.107,5.522a24.06,24.06,0,0,1,1.744,3.955,39.716,39.716,0,0,1,1.31,5.03,18.1,18.1,0,0,1-.258,7.011c-.459,1.966-1.009,3.91-1.521,5.863a8.319,8.319,0,0,1-.366,1.3,7.868,7.868,0,0,1-3.869,4.643,1.608,1.608,0,0,0-.461.419,4.785,4.785,0,0,1-4.454,1.368,4.525,4.525,0,0,1-1.7-.718c-.742-.488-1.347-1.2-2.112-1.634a5.889,5.889,0,0,1-2.461-2.7,15.081,15.081,0,0,1-1.063-3.028,11.886,11.886,0,0,1-.63-3.477c.039-.52.125-1.038.134-1.558q.045-2.595.037-5.188a1.365,1.365,0,0,0-.218-.533Z" fill="#001d33"/>
    <path id="Path_82" data-name="Path 82" d="M1511.571,53a37.646,37.646,0,0,0-.43,5.156c.211,4.11.478,8.227.99,12.308a69.155,69.155,0,0,1,.038,13.4c-.347,5.1-.96,10.189-.822,15.325.106,3.963,0,7.931.024,11.9.034,4.9.136,9.809.159,14.714.027,5.411.3,10.847-.128,16.225a31.5,31.5,0,0,0,.266,8.49c.046.24-.15.645-.039.736,1.74,1.435.8,3.59,1.455,5.264,1,2.548,1.075,5.326,2.407,7.826.809,1.517.59,3.562.947,5.347a6.987,6.987,0,0,0,.907,1.918,13.9,13.9,0,0,1,2.021,5.346,10.708,10.708,0,0,0,1.36,3.423,19.9,19.9,0,0,0,2.665,4.685c3.341,3.6,7.359,5.559,12.473,4.191,7.8-2.088,12.269-7.176,13.733-15.019.974-5.219,2-10.431,2.819-15.674a16.735,16.735,0,0,0-.108-5.255c-1.052-6.273-3.512-12.1-5.819-17.987a28.87,28.87,0,0,1-.889-4.167c-.213-.938-.361-1.909-.588-2.829a15.643,15.643,0,0,1,.08-5.677,5.412,5.412,0,0,1,2.36-4.065,57.67,57.67,0,0,1,6.3-3.167c.829-.368,3.558.866,3.832,1.686a3.258,3.258,0,0,1-.12,1.9c-.709,2.167-1.594,4.278-2.251,6.458-.823,2.735-.4,5.41.358,8.156,1.313,4.754,3.631,9.026,5.934,13.3a20.982,20.982,0,0,1,2.241,9.715,45.685,45.685,0,0,1-.306,7.765,56.788,56.788,0,0,1-4.151,15.255c-.766,1.684-1.694,3.294-2.528,4.947-.986,1.957-2.053,3.882-2.894,5.9a7.074,7.074,0,0,1-4.716,4.585,1.811,1.811,0,0,0-.719.235c-2.482,2.26-5.8,2.674-8.747,3.863a19.172,19.172,0,0,1-5.129.864c-3.271.342-6.543.512-9.656-.916-.226-.1-.543-.059-.725-.2-3.5-2.733-7.638-4.71-10.176-8.6a3.7,3.7,0,0,0-1.764-1.3,5.041,5.041,0,0,1-3.136-3.672c-1.081-3.617-2.219-7.221-3.163-10.875-1.264-4.891-2.4-9.816-3.51-14.744a7.73,7.73,0,0,1-.028-2.789,15.387,15.387,0,0,0-.606-5.67,33.5,33.5,0,0,1-.886-4.956c-.327-5.027-.585-10.06-.743-15.1-.19-6.082-.285-12.168-.353-18.253-.052-4.651-.024-9.3.023-13.955.015-1.432.225-2.86.32-4.292.33-5.012-.6-9.949-.9-14.923a10.809,10.809,0,0,1-.045-1.77c.7-6.644.8-13.311,1.05-19.98.2-5.276.587-10.64,2.932-15.579.773-1.629.89-1.73,2.559-1.014a1.7,1.7,0,0,0,.455.205c3.335.275,4.261,2.623,4.641,5.411C1511.124,49.077,1511.341,51.094,1511.571,53Z" fill="#001d33"/>
    <path id="Path_83" data-name="Path 83" d="M1159.558,497.143c1.435-.481,10.367.24,12.7.994a2.088,2.088,0,0,1,.039,1.755,18.489,18.489,0,0,0-1,4.789,14.82,14.82,0,0,0,1.035,6.039c.892,2.11,2.653,3.5,5.444,2.652.932-.284,1.867-.558,2.809-.806,2.578-.679,4.047-2.449,5.016-4.835a12.856,12.856,0,0,0,.847-5.308,5.652,5.652,0,0,0-1.025-2.787c-.991-1.594-2.089-3.122-3.107-4.7-.352-.547-.565-1.183-.9-1.742-.84-1.4-1.754-2.758-2.564-4.175-.706-1.235-1.339-2.513-1.95-3.8a21.431,21.431,0,0,1-1.021-2.585,5.5,5.5,0,0,1-.077-1.273c-.119-1.717-.294-3.431-.347-5.15-.032-1.019.183-1.643,1.419-1.546.437.034.869.149,1.307.17.722.036,1.447.032,2.171.031,1.065,0,2.132.015,3.194-.04a3.6,3.6,0,0,0,.96-.376,1.071,1.071,0,0,1,1.511.467.611.611,0,0,1,.112.377,17.833,17.833,0,0,0-.088,4.723,10.333,10.333,0,0,0,1.174,3.856c.416.95.892,1.875,1.37,2.8.135.26.435.437.555.7a20.122,20.122,0,0,0,3.419,4.661,17.038,17.038,0,0,1,2.088,2.718,11.292,11.292,0,0,1,1.2,2.823,38.329,38.329,0,0,1,.736,4.506,13.944,13.944,0,0,1-.4,4.51c-.147.712-.307,1.424-.5,2.124a15.687,15.687,0,0,1-2.037,4.628,1.9,1.9,0,0,0-.181.256c-.638,1.442-1.892,2.361-2.938,3.454a15.8,15.8,0,0,1-3.679,2.717,17.453,17.453,0,0,1-4.268,1.611,23.917,23.917,0,0,1-4.525.664c-1.515.1-3.03.334-4.554.313a13.619,13.619,0,0,1-7.975-2.306c-.479-.34-.975-.658-1.473-.97a5.917,5.917,0,0,1-2.6-3.927,8.452,8.452,0,0,0-.724-1.722,5.65,5.65,0,0,1-.5-2.621,30.053,30.053,0,0,0-.26-3c-.075-.863-.175-1.727-.191-2.591-.02-1.114.07-2.23.043-3.343-.028-1.212-.136-2.422-.207-3.634C1159.587,497.868,1159.574,497.492,1159.558,497.143Z" fill="#001d33"/>
    <path id="Path_84" data-name="Path 84" d="M1533.208,513.613c-1.642.077-3.289-.1-4.929.122a16.81,16.81,0,0,1-2.881-.012c-.495-.018-1.021-.83-1.122-1.65-.266-2.171-.592-4.337-.774-6.514-.126-1.5-.05-3.022-.068-4.534-.015-1.246-.115-2.5-.037-3.736.132-2.1.486-4.179.537-6.273a19.263,19.263,0,0,1,.807-5.148,33.441,33.441,0,0,1,1.591-4.684,10.661,10.661,0,0,1,2.158-2.7,24.858,24.858,0,0,1,10.537-6.293c1.394-.435,2.72-1.085,4.111-1.532a5.993,5.993,0,0,1,2.1-.234,18.038,18.038,0,0,1,5.019,1.265,24.549,24.549,0,0,1,5.616,3.343,8.094,8.094,0,0,1,2.076,2.407,16.585,16.585,0,0,1,2.837,6.011c.508,2.949,1.219,5.864,1.737,8.813a31.464,31.464,0,0,1,.322,8c-.2,2.481-.329,4.968-.466,7.454a10.223,10.223,0,0,0,.111,1.322c.084,1.1-.6,2.035-.626,3.124-.013.48-.563.562-.965.493a21.587,21.587,0,0,0-5.695-.016,22.008,22.008,0,0,1-3.672-.283,1.685,1.685,0,0,0-.742.085,1.379,1.379,0,0,1-2-1.281c.1-1.73.388-3.45.629-5.169.167-1.193.442-2.372.573-3.568a41.657,41.657,0,0,0,.131-11.237,9.161,9.161,0,0,0-1.246-3.65A5.871,5.871,0,0,0,1546.96,486c-.874-.53-1.838-.91-2.735-1.4-1.271-.7-2.353-.179-3.434.451-.632.37-1.292.7-1.894,1.113-.54.371-1.1.732-1.161,1.535a6.143,6.143,0,0,1-.475,1.533,16.734,16.734,0,0,0-.672,6.438c.048,1.3-.064,2.61.042,3.9a24.439,24.439,0,0,0,.62,3.821c.424,1.73.936,3.442,1.5,5.13.377,1.125.159,3.651-.534,4.309a1.51,1.51,0,0,1-.772.446C1536.037,513.423,1534.622,513.508,1533.208,513.613Zm.626-4.986c-.274-1.273-.429-2.33-.733-3.343a22.632,22.632,0,0,1-1.123-9.1,30.663,30.663,0,0,1,1.133-5.764c.291-.939.486-1.908.779-2.847a24.945,24.945,0,0,1,1.151-3.282,8.227,8.227,0,0,1,3.521-3.761c2.6-1.443,5.27-.879,7.926-.363a7.759,7.759,0,0,1,3.477,1.9c1.306,1.117,2.546,2.289,2.78,4.136a5.319,5.319,0,0,0,.2.782,15.651,15.651,0,0,1,.379,8.066,5.006,5.006,0,0,0-.044.779c-.124,1.72-.17,3.45-.4,5.156-.276,2.072-.9,4.1-.819,6.218.048,1.319.23,1.661,1.506,1.737a46.041,46.041,0,0,0,5.08.006c1-.051,1.357-.539,1.489-1.546a34.524,34.524,0,0,1,.469-4.758,1.209,1.209,0,0,0,.005-.269,43.741,43.741,0,0,0-.28-8.726,45.917,45.917,0,0,0-1.03-5.115c-.68-2.361-1.543-4.67-2.343-7a7.153,7.153,0,0,0-.47-.96,11.283,11.283,0,0,0-3.14-3.4,10.991,10.991,0,0,0-7.158-2.522,5.243,5.243,0,0,1-1.322-.106,1.789,1.789,0,0,0-1.775.225c-.179.149-.512.1-.76.18-1.091.36-2.192.7-3.262,1.113-1.734.674-2.862,2.144-4.243,3.287-1,.829-1.617,2.057-2.894,2.612a2.477,2.477,0,0,0-1.137,1.2,33.569,33.569,0,0,0-2.086,4.426,30.927,30.927,0,0,0-1.117,5.835,55.99,55.99,0,0,0,.108,10,3.306,3.306,0,0,1-.034,1.061,4.622,4.622,0,0,0,.757,4.133Z" fill="#001d33"/>
    <path id="Path_85" data-name="Path 85" d="M1232.477,496.451c.107,1.067.18,2.139.33,3.2.223,1.575.466,3.149.763,4.712a16.077,16.077,0,0,0,1.53,4.819c.566,1.036,1.031,2.126,1.553,3.187a.908.908,0,0,1-.381,1.324,3.83,3.83,0,0,0-1.236.889,1.548,1.548,0,0,1-1.021.343,34.277,34.277,0,0,0-6.369,1.088,14.652,14.652,0,0,1-1.964.359,1.017,1.017,0,0,1-1.1-.769,19.113,19.113,0,0,1-.753-2.544c-.215-1.046-.342-2.111-.461-3.174-.215-1.917-.434-3.835-.579-5.758-.1-1.364-.139-2.738-.115-4.106.035-1.991.191-3.979.221-5.97a9.966,9.966,0,0,1,1.7-6.018c.681-.926,1.308-1.893,1.994-2.816a3.2,3.2,0,0,1,.767-.626,9.693,9.693,0,0,1,4.281-2.015,4.353,4.353,0,0,0,1.452-.536,6.7,6.7,0,0,1,3.688-.5c1.188.061,2.378.082,3.567.11a11.332,11.332,0,0,1,3.747.606,15.041,15.041,0,0,1,4.165,2.5c.778.624,1.515,1.3,2.266,1.955a7.457,7.457,0,0,1,1.656,2.832c.408.916.751,1.863,1.089,2.809a8.883,8.883,0,0,1,.582,3.169,13,13,0,0,0,.207,1.988c.246,1.771-.144,3.551.077,5.319a26.7,26.7,0,0,1-.175,5.451,16.4,16.4,0,0,0,.227,3.225c.135,1.114-.08,1.488-1.142,1.556-1.727.111-3.459.159-5.187.277-.7.049-1.4.217-2.1.32a6.387,6.387,0,0,1-1.106.118c-.764-.023-.842-.233-.96-1.025-.252-1.69.433-3.3.349-4.965-.05-.993-.141-1.984-.171-2.977-.041-1.378-.043-2.757-.058-4.135-.021-1.922.078-3.856-.109-5.762a6.357,6.357,0,0,0-.75-2.731,5.076,5.076,0,0,0-3.369-2.473c-2.1-.383-3.546.684-5.008,1.817A5.439,5.439,0,0,0,1232.477,496.451Zm-.155,15.759a4.212,4.212,0,0,0-.083-.887c-.361-1.05-.824-2.07-1.116-3.137a40.308,40.308,0,0,1-.893-4.127c-.156-.942-.136-1.912-.207-2.869-.033-.438-.143-.875-.134-1.31.015-.759.088-1.517.151-2.275a23.452,23.452,0,0,1,.275-2.825,13.906,13.906,0,0,1,1.91-4.821,3.043,3.043,0,0,1,1.019-1.006,8.66,8.66,0,0,1,4.851-1.312,23.455,23.455,0,0,1,2.845.309,6.152,6.152,0,0,1,4.464,3.506,26.2,26.2,0,0,1,2.2,6.872c.182,1.017.28,2.051.37,3.082.052.593,0,1.2.018,1.793a22.263,22.263,0,0,1-.2,4.879,21.175,21.175,0,0,0-.174,2.5h3.6c.106-.706.23-1.324.286-1.948a20.673,20.673,0,0,0,.248-3.879c-.189-1.839.068-3.695-.431-5.532-.341-1.253-.166-2.641-.453-3.916a17.858,17.858,0,0,0-2.388-5.974,11.027,11.027,0,0,0-3.293-3.572,8.187,8.187,0,0,0-2.722-1.4c-.983-.188-1.986-.279-2.961-.5a13.613,13.613,0,0,0-4.76.123,3.692,3.692,0,0,0-1.323.565,24.48,24.48,0,0,0-3.005,1.892,10.108,10.108,0,0,0-2.676,2.494,22.5,22.5,0,0,0-1.921,4.486,7,7,0,0,0-.353,1.949c-.041,1.328-.033,2.661.04,3.987a48.625,48.625,0,0,0,.639,6.55c.267,1.385.482,2.784.815,4.154a20.7,20.7,0,0,0,.883,2.378Z" fill="#001d33"/>
    <path id="Path_86" data-name="Path 86" d="M1467.921,370.218c.561-6.316,1.1-12.556,1.678-18.792a29.765,29.765,0,0,0,.5-3.481c-.121-4.187.945-8.273.6-12.522-.383-4.789.222-9.649.1-14.471a64.15,64.15,0,0,0-.95-10.609c-.794-4.121-1.478-8.257-.977-12.566a67.66,67.66,0,0,0,.047-11.291,26.538,26.538,0,0,0-1.284-5.7c-.818-2.885-.262-5.732.157-8.566a48.058,48.058,0,0,1,1.791-8.929c.589-1.691,1.436-2.485,3.046-1.815a7.61,7.61,0,0,1,3.322,2.435,11.69,11.69,0,0,1,2.061,6.624c.043,6.172.316,12.343.543,18.513.1,2.806.394,5.607.447,8.413a31.176,31.176,0,0,1-.487,3.881c-.516,4.742-.947,9.494-1.534,14.227-.441,3.564-1.2,7.091-1.581,10.659-.4,3.73-.6,7.487-.717,11.238-.117,3.671-.135,7.352,0,11.021.186,5,.567,9.987.848,14.98.245,4.356.465,8.713.7,13.068a77.241,77.241,0,0,0,1.97,14.984c.67,2.629,1.14,5.312,1.882,7.919a8.842,8.842,0,0,0,1.689,3.042c1.336,1.638,2.841,3.139,4.278,4.7.676.732,1.386,1.436,2.031,2.2,2.249,2.644,5.331,3.967,8.353,5.435a26.227,26.227,0,0,0,8.723,2.266c2.3.256,4.568.9,6.917.457a119.529,119.529,0,0,0,18.147-4.793,47.74,47.74,0,0,0,10.475-4.717c4.73-3.127,9.121-6.721,12.276-11.488,1.364-2.061,1.975-4.607,3.081-6.856,1.411-2.868.917-5.566.183-8.556a53.832,53.832,0,0,0-3.6-9.079,7.656,7.656,0,0,0-1-1.578q-3.886-4.935-7.806-9.842c-.779-.978-1.577-1.942-2.356-2.92-1.151-1.447-2.515-2.718-2.639-4.807-.057-.954-.782-1.858-1.151-2.8a4.682,4.682,0,0,1,1.785-5.349c1.165-.809,3.161-.23,4.69.939,2.155,1.648,2.214,4.023,2.538,6.309.2,1.406.118,2.85.209,4.274a2.874,2.874,0,0,0,.341,1.586,42.34,42.34,0,0,1,3.437,4.277c.788,1.173,1.909,2.211,2.824,3.416,1.972,2.6,3.361,5.532,5.227,8.178a11.656,11.656,0,0,1,1.5,3.854,30.937,30.937,0,0,1,.794,4.853A27.789,27.789,0,0,1,1557.417,399c-1.5,2.6-3.684,4.827-5.621,7.17-3.8,4.6-8.958,7.353-14.086,10.125-2.677,1.448-5.367,2.871-8.051,4.305-.069.037-.131.1-.2.117-5,.855-9.282,4.05-14.523,4.269a43.874,43.874,0,0,1-12.671-1.556,28.338,28.338,0,0,1-9.942-4.564,17.981,17.981,0,0,0-2.906-1.515,23.045,23.045,0,0,1-9.422-7.834c-3.687-5.4-6.922-11-8.6-17.352-.777-2.938-1.253-5.957-1.808-8.95-.286-1.536-.465-3.094-.659-4.646C1468.576,375.782,1468.253,372.99,1467.921,370.218Z" fill="#001d33"/>
    <path id="Path_87" data-name="Path 87" d="M1429.107,424.511c-1.717-.671-22.727-2.04-25.75-1.949a52.873,52.873,0,0,1-8.584-.51c-.817-.11-3.854-1.289-5.061-.741-1.347-1.627-1.346-10.17-1.169-12.715.534-7.719.725-15.457.984-23.189a46.615,46.615,0,0,0-1.774-15.772c-.761-2.411-4.03-15.328-5.328-19.266-2.263-6.861-6.659-12.813-11.8-18.257-2.932-3.107-7.437-4.148-11.787-4.88a54.343,54.343,0,0,0-19.832.5,27.485,27.485,0,0,0-16.931,10.307c-4.431,5.952-4.345,29.408-4.064,33.972.327,5.308.746,10.614,1.306,15.906.205,1.939,2.4,8.478,2.572,9.871q.931,7.71,1.622,15.443c.415,4.626-4.65,9.172-9.815,8.472-5.8-.787-11.392-.219-17.144.438a90.2,90.2,0,0,0-12,2.156c-1.838.467-9.16-3.169-9.26-5.856-.056-1.522-.825-3.013-1.05-4.543-.442-3.014-.5-6.084-1.129-9.064-1.328-6.28-3.24-12.475-4.288-18.785-.631-3.795-.266-7.749-.024-11.616.343-5.46,1.926-18.436,2.156-19.472.661-2.975,1.379-5.94,1.989-8.923,1.609-7.869,2.1-13.432,7.434-22.953,5.522-7.74,9.787-8.292,13.363-11.6,3.184-2.947,6.919-4.165,10.939-5.655,6.035-2.238,12.47-3.384,18.408-5.689,4.951-1.921,10.167-1.963,15.3-2.68,1.055-.147,13.34-1.762,18.51-1.483,3.8.2,7.589.485,11.387.685,2.3.121,15.584,3.362,18.4,3.894,5.509,1.04,9.757,4.1,14.4,6.549a43.2,43.2,0,0,1,16.009,14.207,99.96,99.96,0,0,1,7.525,14.535c3.482,7.7,3.845,15.992,5.355,24.06a108.186,108.186,0,0,1,1.963,12.652c.567,8.542.751,17.1,1.086,25.656.167,4.254-.056,8.555.614,12.747.422,2.642.584,10.061-.3,10.836A34.226,34.226,0,0,1,1429.107,424.511Z" fill="#001d33"/>
    <path id="Path_88" data-name="Path 88" d="M1355.083,492.219c1.25-.044,2.5-.127,3.75-.119a18.456,18.456,0,0,1,2.6.225c.6.09,1.088,1.058.959,1.829-.333,1.994-.695,3.984-1.026,5.978a17.794,17.794,0,0,0,.126,6.965c.582,2.54,2.572,3.336,4.867,3.128a9.992,9.992,0,0,0,3.1-.651,9.21,9.21,0,0,0,2.781-1.942,5.558,5.558,0,0,0,1.422-3.335,4.551,4.551,0,0,0-.885-3.3,10.415,10.415,0,0,1-.757-2.352c-.4-1.062-.865-2.1-1.318-3.14-.234-.54-.486-1.074-.755-1.6-.879-1.715-1.862-3.384-2.623-5.15a20.99,20.99,0,0,1-.98-3.643c-.319-1.387-.58-2.786-.867-4.18a1.22,1.22,0,0,1-.083-.345c.267-2.342-.286-4.633-.422-6.949-.063-1.063.419-1.531,1.46-1.486a29.81,29.81,0,0,0,6.72-.18c1.167-.213,1.654.54,1.294,1.646a15.292,15.292,0,0,0-.667,2.756,10.619,10.619,0,0,0,.792,5.934,11.22,11.22,0,0,0,1.415,2.3,10.377,10.377,0,0,1,1.262,1.84,14.143,14.143,0,0,0,1.331,1.655,20.979,20.979,0,0,1,2.371,4.876,16.473,16.473,0,0,1,1.2,3.573c.288,2.113.945,4.2.633,6.38a2.889,2.889,0,0,0-.035.833c.414,2.611-.719,4.909-1.5,7.268a3.369,3.369,0,0,1-1.314,1.635c-1.022.731-1.9,1.657-2.883,2.452a17.69,17.69,0,0,1-4.011,2.4,16.863,16.863,0,0,1-3.76.888,8.262,8.262,0,0,0-.886.265c-.108.034-.238.151-.31.12-1.31-.564-2.749-.271-4.094-.644-1.366-.378-2.768-.627-4.145-.97a3.24,3.24,0,0,1-.907-.474,15.453,15.453,0,0,1-3.308-2.236,16.452,16.452,0,0,1-2.18-3.788,4.659,4.659,0,0,1-.8-3.152.436.436,0,0,0-.12-.32c-1.013-1.11-.748-2.486-.814-3.8-.069-1.348-.182-2.693-.231-4.041-.053-1.432-.095-2.866-.059-4.3a12.719,12.719,0,0,1,.34-2.231.916.916,0,0,1,1.042-.77c.753.025,1.507.006,2.261.006Zm2.059,3.637c-.436-.072-.75-.1-1.049-.178-1.54-.417-1.82-.453-2.376,1.488a2.991,2.991,0,0,0-.062.947c.069,1.545.209,3.089.219,4.634a14.835,14.835,0,0,0,1.12,5.68c.873,2.083,1.624,4.286,3.833,5.476a9.764,9.764,0,0,0,2.563,1.2c1.7.362,3.382.837,5.1,1.075a10.443,10.443,0,0,0,3.55-.063,12.109,12.109,0,0,0,5.985-2.951,10.477,10.477,0,0,0,2.839-4.2,23.406,23.406,0,0,0,1.227-7.485,25.472,25.472,0,0,0-.453-3.884,16.409,16.409,0,0,0-.713-3.48,9.456,9.456,0,0,0-2.422-3.809c-.125-.109-.134-.344-.215-.511a2.678,2.678,0,0,0-.329-.582c-.617-.719-1.281-1.4-1.874-2.136a11.37,11.37,0,0,1-2.66-5.076c-.249-1.4-.437-2.814-.63-4.225-.127-.935-.216-1.875-.334-2.922l-2.475.13a10.032,10.032,0,0,0-.3,5.5c.38,2.258,1.013,4.475,1.576,6.7a7.133,7.133,0,0,0,.67,1.65c.991,1.8,1.967,3.62,3.049,5.369a20.471,20.471,0,0,1,2.666,6.445,11.09,11.09,0,0,1,.06,5.173,4.78,4.78,0,0,1-.758,1.705,36.462,36.462,0,0,1-3.595,3.622,7.645,7.645,0,0,1-4.2,1.925,7.351,7.351,0,0,1-4-.508,5.9,5.9,0,0,1-3.914-4.568,4.576,4.576,0,0,0-.365-1.253,12.168,12.168,0,0,1-1.125-3.854,15.578,15.578,0,0,1-.386-3.987A19.379,19.379,0,0,0,1357.142,495.856Z" fill="#001d33"/>
    <path id="Path_89" data-name="Path 89" d="M1125.49,462.738c1.04.1,1.967.187,2.891.288,1.073.118,2.142.262,3.215.375.942.1,1.184.4.993,1.373a62.511,62.511,0,0,0-.747,8.52c-.1,1.7-.272,3.4-.368,5.1-.111,1.982-.237,3.967-.236,5.95,0,1.413.23,2.824.3,4.238.087,1.738.113,3.479.168,5.218.051,1.63.073,3.262.166,4.89.09,1.591.32,3.175.365,4.766a12.335,12.335,0,0,0,.434,3.484,12.075,12.075,0,0,0,2,4.211,5.269,5.269,0,0,0,1.844,1.3,12.788,12.788,0,0,0,4.882,1,6,6,0,0,0,3.662-.963c.717-.486,1.471-.925,2.138-1.473a2.687,2.687,0,0,0,.829-1.179,13.288,13.288,0,0,0,.9-4.149,9.184,9.184,0,0,1,.124-1.034,10.068,10.068,0,0,0-.355-3.4c-.538-2.3-1.131-4.591-1.692-6.888-.147-.6-.252-1.211-.392-1.814a.655.655,0,0,1,.415-.838,4.514,4.514,0,0,1,2.667-.112,13.059,13.059,0,0,0,3.838.267c.308-.045.617-.089.922-.155.633-.137.764-.075.977.555a3.95,3.95,0,0,1,.2.805c.259,2.237.593,4.464.649,6.724.036,1.494.23,2.984.338,4.476a14.657,14.657,0,0,1-1.652,7.647,6.3,6.3,0,0,0-.446.945,12.124,12.124,0,0,1-2.546,3.912,19.258,19.258,0,0,1-2.248,2.331,5.262,5.262,0,0,1-1.434.8c-.761.333-1.546.61-2.32.914a2.888,2.888,0,0,1-.48.2c-1.675.311-3.345.659-5.031.894a7.083,7.083,0,0,1-3.287-.413c-1.117-.388-2.231-.788-3.326-1.234a9.976,9.976,0,0,1-5.457-5.87c-.661-1.609-1.342-3.214-1.909-4.857a12.766,12.766,0,0,1-.8-4.588,23.136,23.136,0,0,0-.475-2.719c-.133-1.407-.186-2.825-.216-4.239a26.459,26.459,0,0,0-.335-3.819,19.328,19.328,0,0,1-.069-2.821q-.054-3.033-.113-6.065c-.031-1.636-.09-3.271-.09-4.907,0-1.14.046-2.283.128-3.421.126-1.721,0-3.445.089-5.16.089-1.767.381-3.523.569-5.286.093-.865.151-1.733.224-2.6C1125.423,463.548,1125.453,463.18,1125.49,462.738Zm22.9,31.458c.088.534.119.916.217,1.28.325,1.211.727,2.4,1,3.626.514,2.274,1.082,4.553.562,6.914-.32,1.458-.619,2.922-.985,4.368a3.5,3.5,0,0,1-1.337,1.954c-.782.579-1.61,1.1-2.435,1.613a4.666,4.666,0,0,1-1.127.545,11.051,11.051,0,0,1-8.4-.789,7.749,7.749,0,0,1-3.922-5.144,25.162,25.162,0,0,1-1.078-4.981c-.068-.954-.4-1.888-.512-2.843-.131-1.135-.093-2.29-.229-3.424a42.008,42.008,0,0,1-.4-6.046c.049-2.016-.023-4.039.1-6.05.215-3.577.529-7.149.813-10.722.169-2.116.388-4.228.532-6.346.067-1,.011-2,.011-3.143-.972-.143-1.856-.307-2.747-.394-1.044-.1-1.185.084-1.242,1.145-.064,1.2-.17,2.4-.282,3.6-.161,1.73-.354,3.456-.512,5.186-.076.83-.107,1.665-.151,2.5-.067,1.28-.155,2.56-.181,3.841-.015.762.128,1.528.1,2.288-.09,2.677-.247,5.352-.328,8.03-.067,2.18-.073,4.363-.084,6.544a22.223,22.223,0,0,0,.086,3.338c.331,2.234.728,4.463,1.232,6.664a26.137,26.137,0,0,0,1.524,4.975,14.332,14.332,0,0,0,3.9,5.467,3.457,3.457,0,0,0,1.005.725,19.077,19.077,0,0,0,5.19,1.124c1.56.02,3.121-.047,4.682-.051a8.977,8.977,0,0,0,5.2-1.928,20.42,20.42,0,0,0,3.248-3.094,10.231,10.231,0,0,0,2.532-5.614c.128-1,.227-2.006.3-3.011.128-1.908.3-3.817.312-5.726.01-2.047-.144-4.1-.242-6.142a8.019,8.019,0,0,0-.184-1.035C1152.426,493.156,1150.516,493.945,1148.389,494.2Z" fill="#001d33"/>
    <path id="Path_90" data-name="Path 90" d="M1306.727,106.552c.427-5.812.936-11.618,1.25-17.436.177-3.294-.021-6.607.06-9.908a55.693,55.693,0,0,1,.488-5.808,73.8,73.8,0,0,0,.263-12.762c-.135-3.117.163-6.252.271-9.379a1.63,1.63,0,0,1,1.619-1.65,8.859,8.859,0,0,1,3.024.05,17.913,17.913,0,0,0,6.285.055c1.6-.156,3.217-.062,4.827-.082a12.968,12.968,0,0,0,1.464-.042c1.869-.236,2.49.136,2.591,2.074.357,6.843.933,13.676.259,20.547-.322,3.281-.142,6.61-.236,9.916-.063,2.193-.287,4.385-.294,6.577a51.006,51.006,0,0,0,.316,5.564c.971,9.114-.078,18.236.173,27.35.188,6.877.918,13.7,3.544,20.135a60.39,60.39,0,0,0,7.635,14.233,11.7,11.7,0,0,0,5.951,4.1c2.084.663,4.379.176,6.36,1.338.364.213.995,0,1.5-.059q3.254-.35,6.5-.724a4.1,4.1,0,0,0,1.433-.269c3.732-1.993,6.957-4.441,8.311-8.752,1-3.2,1.156-6.262-.461-9.307a73.556,73.556,0,0,1-3.513-7.006c-1.337-3.338-3.146-6.517-3.312-10.284-.114-2.583-.167-5.223-1.356-7.667a4.942,4.942,0,0,1-.154-2.258c.079-1.714.709-2.273,2.39-2.15,1.246.092,2.485.328,3.73.359,2.055.052,4.113-.008,6.17-.022,1.267-.009,2.537-.076,3.8-.019,1.956.09,2.4.355,2.656,2.271a11.926,11.926,0,0,0,4.135,7.6c1.607,1.4,2.151,3.415,3.478,4.911,3.3,3.715,3.8,7.955,2.634,12.583-.226.9-.247,1.852-.5,2.739-.583,2.014-1.242,4.006-1.894,6-.365,1.118-.782,2.218-1.17,3.328a7.442,7.442,0,0,1-.305.965c-2.042,3.976-3.9,8.068-6.2,11.886-3.257,5.394-8.281,9.1-13.264,12.771a12.067,12.067,0,0,1-2.287,1.092,16.554,16.554,0,0,0-4.131,2.732c-2.1,1.816-4.44,3.592-7.552,3.468-2.265-.09-4.534-.084-6.8-.144a3.838,3.838,0,0,1-.988-.224c-4.178-1.28-8.358-2.554-12.527-3.863a3.684,3.684,0,0,1-1.3-.763c-3.662-3.258-7.575-6.291-10.866-9.891a28.736,28.736,0,0,1-5.872-10c-1.155-3.352-2.4-6.686-3.293-10.11a61.058,61.058,0,0,1-1.475-8.737c-.293-2.684-.149-5.415-.421-8.1-.22-2.179-.9-4.31-1.149-6.488-.529-4.524-.989-9.059-1.326-13.6-.176-2.361-.031-4.745-.031-7.118Zm58.685,12.034c1.89,5.593,3.64,10.774,5.393,15.954a6.912,6.912,0,0,0,.523,1.416c1.713,2.8,2.185,5.872,2.748,9.093.99,5.661-1.812,9.787-4.239,14.2a1.566,1.566,0,0,1-.53.543,60.372,60.372,0,0,1-6.049,3.644,46.425,46.425,0,0,1-6.232,2.051,10.19,10.19,0,0,1-8.1-.647c-1.557-.838-3.055-1.8-4.66-2.531a16.528,16.528,0,0,1-7.832-7.626c-1.626-3.057-3.2-6.141-4.766-9.231a55.2,55.2,0,0,1-5.8-23.953c-.109-4.724-.044-9.453-.012-14.18.027-4.137.1-8.274.185-12.411.1-5.327.29-10.653.325-15.98.019-2.954-.5-5.936-.242-8.859a80.524,80.524,0,0,0-.1-15.953,1.389,1.389,0,0,0-1.64-1.451c-2.647.047-5.3.16-7.94.028-1.277-.064-1.74.388-1.791,1.505-.065,1.439.027,2.891-.13,4.318-.6,5.458-1.273,10.907-1.916,16.36-.494,4.192-.921,8.393-1.49,12.575-.926,6.816-.8,13.68-1.078,20.527-.346,8.691.94,17.213,2.46,25.722.832,4.66,1.747,9.316,2.31,14.012a37.6,37.6,0,0,0,4.939,15.295c1.773,2.935,3.725,5.849,6.573,7.585,5.179,3.154,10.2,6.6,16.078,8.6,5.5,1.869,10.61,2.07,15.651-1.054a11.53,11.53,0,0,1,1.874-.753,19.063,19.063,0,0,0,3.934-1.616c2.744-1.9,5.859-3.116,8.392-5.516a37.438,37.438,0,0,0,7.947-9.991,134.388,134.388,0,0,0,6.465-14.844c.966-2.639,1.028-5.614,1.427-8.447a3.783,3.783,0,0,0-.37-1.463c-.3-.968-.622-1.928-.924-2.895-.943-3.026-2.131-5.9-4.825-7.849a1.993,1.993,0,0,1-.5-.537c-1.43-2.256-2.849-4.519-4.376-6.946C1373.36,117.738,1369.355,116.591,1365.412,118.586Z" fill="#001d33"/>
    <g id="Group_10" data-name="Group 10">
      <path id="Path_91" data-name="Path 91" d="M1422.706,158.327q.292,7.962.584,15.923a3.653,3.653,0,0,1-4.586,3.9,28.4,28.4,0,0,0-14.521.438,7.721,7.721,0,0,1-1.987.283c-1.83.016-2.306-.546-2.567-2.317-.961-6.54-.732-13.121-.792-19.694-.019-2.008-.254-4.013-.3-6.021a21.564,21.564,0,0,1,.21-3.536,49.234,49.234,0,0,1,2.916-11.967,35.113,35.113,0,0,1,5.927-10.219,26.769,26.769,0,0,1,6.721-5.344c5.14-3.009,10.792-4.729,16.4-6.417,3.468-1.043,7.2-1.821,10.9-.172,2.286,1.018,5.044.6,7.227,2.063,2.7,1.817,6.081,1.756,8.9,3.25,2.334,1.236,4.714,2.385,7.068,3.584,4.868,2.48,7.531,6.775,9.342,11.663,1.34,3.616,2.224,7.4,3.647,10.984,1.77,4.451,2.186,9.159,2.971,13.78.573,3.373.406,6.869.616,10.307.118,1.939.5,3.874.47,5.806-.095,6.945-.2,13.894-.528,20.83-.2,4.206-1.167,8.393-1.156,12.586.01,3.66-1.254,7.067-1.321,10.7-.042,2.265-1.043,4.5-1.533,6.774-.265,1.232-.292,2.515-.545,3.75-1.435,6.992-3.362,13.8-7.26,19.907a20.279,20.279,0,0,1-5.16,5.538,38.788,38.788,0,0,1-10.828,5.487c-2.315.762-4.606,1.6-6.939,2.3a16.313,16.313,0,0,1-2.971.407c-1.657.175-3.316.388-4.979.454a17.52,17.52,0,0,1-2.984-.276c-2.93-.393-5.857-.807-8.784-1.219-3.236-.456-5.8-2.192-8.151-4.316a60.391,60.391,0,0,1-4.384-4.2,22.276,22.276,0,0,1-2.181-3.348,22.95,22.95,0,0,1-2.383-4.06c-1.249-3.509-3.409-6.616-4.464-10.175a55.143,55.143,0,0,1-1.666-7.921c-.367-2.58-.326-5.216-.62-7.809-.407-3.59-.915-7.171-1.471-10.741a2.756,2.756,0,0,1,2.7-3.393,52.677,52.677,0,0,1,9.034.986,1.876,1.876,0,0,0,1.206-.062c2.082-1.148,4.369-.927,6.6-1.079,3.069-.208,4.695,1.272,4.948,4.3.21,2.515.533,5.022.894,7.52a8.413,8.413,0,0,0,.794,2.353c1.4,2.941,2.5,6.037,4.828,8.478.891.934,1.325,2.3,2.2,3.257,3.093,3.389,7.188,4.012,11.5,3.909a2.192,2.192,0,0,0,.756-.08c4.741-1.945,8.7-4.7,10.595-9.779a54.545,54.545,0,0,0,3.04-15.825,90,90,0,0,0,.306-10.6c-.362-6.415.409-12.809.147-19.2a74.879,74.879,0,0,0-1.688-12.529c-1.108-5.181-2.126-10.424-4.4-15.288-1.2-2.565-2.208-5.234-3.606-7.684a16.956,16.956,0,0,0-4.719-5.68,34.866,34.866,0,0,0-5.512-3.229,11.848,11.848,0,0,0-6.8-.975c-2.055.272-4.161.239-5.929,1.649-3.1,2.47-5.311,5.47-5.451,9.541-.143,4.144-.032,8.3-.032,12.445Zm-7.415,12.722c-.05-1.03-.078-2.2-.172-3.364-.275-3.422-.645-6.838-.855-10.264-.471-7.687,2.005-14.305,6.7-20.443,3.532-4.621,8.038-6.723,13.484-7.452a31.2,31.2,0,0,1,4.14-.087,1.16,1.16,0,0,1,.676.275c2.087,1.732,4.8,1.989,7.193,3,1.429.607,2.952.985,4.106,2.066,2.306,2.161,5.1,3.874,6.439,6.94.236.538.649,1,.891,1.535,1.35,2.989,3.021,5.891,3.919,9.013a128.717,128.717,0,0,1,2.563,12.624c.54,2.979.855,6,1.4,8.977a60.83,60.83,0,0,1,1.342,12.843c-.1,3.1-.59,6.24-.284,9.3a45.891,45.891,0,0,1-.581,11.747c-.757,4.837-1.6,9.666-2.606,14.456a32.459,32.459,0,0,1-2.145,6.21,46.254,46.254,0,0,1-7.545,11.947c-2.236,2.56-5.467,2.991-8.59,3.552-.074.013-.161-.047-.241-.074a68.22,68.22,0,0,1-7.365-2.519c-3.24-1.515-6.278-3.454-9.458-5.1a16.731,16.731,0,0,1-8.21-9.8,25.6,25.6,0,0,1-.7-3.708c-.433-2.293-.876-4.583-1.317-6.884-1.482-.12-2.659-.189-3.83-.319s-2.316-.32-3.611-.5c0,1.5.011,2.6,0,3.7-.044,3.521-.036,7.025,1.845,10.208a5.065,5.065,0,0,1,.3,1.443,22.613,22.613,0,0,0,.867,3.678c1.583,3.875,3.065,7.819,5.009,11.514,2.468,4.69,6.119,8.178,11.617,9.187.488.089,1.208.115,1.394.426.686,1.146,1.923.955,2.735.885,2.229-.194,4.567.12,6.658-1.153a9.653,9.653,0,0,1,2.9-.919c4.718-1.058,8.373-3.972,11.9-6.993,2.111-1.81,3.83-4.071,5.784-6.071,4.291-4.393,7.067-9.68,9.207-15.355.8-2.131,1.721-4.226,2.386-6.4a77.048,77.048,0,0,0,2-7.865c.641-3.313,1.209-6.656,1.517-10.013.281-3.07-.005-6.192.281-9.261.392-4.221-.122-8.391-.3-12.581a18.4,18.4,0,0,0-.366-3.013c-.839-3.959-1.746-7.9-2.595-11.861-.833-3.88-1.551-7.786-2.468-11.645-.486-2.043-1.383-3.985-1.932-6.016-1.515-5.6-2.887-11.2-6.759-15.845a44.886,44.886,0,0,0-6.937-7.3,16.784,16.784,0,0,0-8.619-3.217c-2.829-.307-5.67-.518-8.508-.729a52.556,52.556,0,0,0-8.127-.441c-3.833.316-7.675.907-11.082,3.026-3.007,1.871-6.1,3.551-8.248,6.552-3.069,4.3-5.682,8.729-6.706,14.039a109.243,109.243,0,0,0-1.121,11.516,38.408,38.408,0,0,0,1.321,14c.522,1.821,1.086,3.634,3.791,3.584a14.944,14.944,0,0,0,4.125-.311C1413.273,171.554,1414.064,171.37,1415.291,171.049Z" fill="#001d33"/>
      <path id="Path_92" data-name="Path 92" d="M1415.291,171.049c-1.227.321-2.018.505-2.8.737a14.944,14.944,0,0,1-4.125.311c-2.7.05-3.269-1.763-3.791-3.584a38.408,38.408,0,0,1-1.321-14,109.243,109.243,0,0,1,1.121-11.516c1.024-5.31,3.637-9.742,6.706-14.039,2.143-3,5.241-4.681,8.248-6.552,3.407-2.119,7.249-2.71,11.082-3.026a52.556,52.556,0,0,1,8.127.441c2.838.211,5.679.422,8.508.729a16.784,16.784,0,0,1,8.619,3.217,44.886,44.886,0,0,1,6.937,7.3c3.872,4.643,5.244,10.245,6.759,15.845.549,2.031,1.446,3.973,1.932,6.016.917,3.859,1.635,7.765,2.468,11.645.849,3.957,1.756,7.9,2.595,11.861a18.4,18.4,0,0,1,.366,3.013c.18,4.19.694,8.36.3,12.581-.286,3.069,0,6.191-.281,9.261-.308,3.357-.876,6.7-1.517,10.013a77.048,77.048,0,0,1-2,7.865c-.665,2.173-1.583,4.268-2.386,6.4-2.14,5.675-4.916,10.962-9.207,15.355-1.954,2-3.673,4.261-5.784,6.071-3.524,3.021-7.179,5.935-11.9,6.993a9.653,9.653,0,0,0-2.9.919c-2.091,1.273-4.429.959-6.658,1.153-.812.07-2.049.261-2.735-.885-.186-.311-.906-.337-1.394-.426-5.5-1.009-9.149-4.5-11.617-9.187-1.944-3.7-3.426-7.639-5.009-11.514a22.613,22.613,0,0,1-.867-3.678,5.065,5.065,0,0,0-.3-1.443c-1.881-3.183-1.889-6.687-1.845-10.208.013-1.1,0-2.2,0-3.7,1.295.183,2.449.374,3.611.5s2.348.2,3.83.319c.441,2.3.884,4.591,1.317,6.884a25.6,25.6,0,0,0,.7,3.708,16.731,16.731,0,0,0,8.21,9.8c3.18,1.651,6.218,3.59,9.458,5.1a68.22,68.22,0,0,0,7.365,2.519c.08.027.167.087.241.074,3.123-.561,6.354-.992,8.59-3.552a46.254,46.254,0,0,0,7.545-11.947,32.459,32.459,0,0,0,2.145-6.21c1.009-4.79,1.849-9.619,2.606-14.456a45.891,45.891,0,0,0,.581-11.747c-.306-3.06.185-6.2.284-9.3a60.83,60.83,0,0,0-1.342-12.843c-.543-2.978-.858-6-1.4-8.977a128.717,128.717,0,0,0-2.563-12.624c-.9-3.122-2.569-6.024-3.919-9.013-.242-.537-.655-1-.891-1.535-1.34-3.066-4.133-4.779-6.439-6.94-1.154-1.081-2.677-1.459-4.106-2.066-2.39-1.014-5.106-1.271-7.193-3a1.16,1.16,0,0,0-.676-.275,31.2,31.2,0,0,0-4.14.087c-5.446.729-9.952,2.831-13.484,7.452-4.691,6.138-7.167,12.756-6.7,20.443.21,3.426.58,6.842.855,10.264C1415.213,168.85,1415.241,170.019,1415.291,171.049Z" fill="#d9dadc"/>
    </g>
    <path id="Path_93" data-name="Path 93" d="M1189.648,534.728h5.085a1.365,1.365,0,0,1,.218.533q.01,2.594-.037,5.188c-.009.52-.095,1.038-.134,1.558a11.886,11.886,0,0,0,.63,3.477,15.081,15.081,0,0,0,1.063,3.028,5.889,5.889,0,0,0,2.461,2.7c.765.438,1.37,1.146,2.112,1.634a4.525,4.525,0,0,0,1.7.718,4.785,4.785,0,0,0,4.454-1.368,1.608,1.608,0,0,1,.461-.419,7.868,7.868,0,0,0,3.869-4.643,8.319,8.319,0,0,0,.366-1.3c.512-1.953,1.062-3.9,1.521-5.863a18.1,18.1,0,0,0,.258-7.011,39.716,39.716,0,0,0-1.31-5.03,24.06,24.06,0,0,0-1.744-3.955c-.948-1.886-2.18-3.608-3.107-5.522a15.91,15.91,0,0,0-2.6-3.237c-.821-.935-1.715-1.8-2.56-2.721-.443-.481-.425-.748.066-1.19.591-.532,1.248-.995,1.8-1.565a9.519,9.519,0,0,0,1.32-1.717c.9-1.513,1.806-3.032,2.591-4.607a18.134,18.134,0,0,0,1.512-4.7,28.035,28.035,0,0,0,.6-4.48,14.626,14.626,0,0,0-.3-4.239,32.67,32.67,0,0,0-1.433-4.752c-.014-.032-.045-.064-.044-.1.051-1.232-.732-2.211-1.044-3.412,1.659-.738,3.451.1,5.117-.476a8.626,8.626,0,0,1,1.5,6.151c-.07.54-.011,1.1-.044,1.64-.027.44-.109.876-.159,1.315-.146,1.276-.255,2.557-.44,3.827a17.357,17.357,0,0,0-.044,4.333,8.851,8.851,0,0,1-.246,2.9c-.385,1.617-.936,3.2-1.4,4.795-.291,1-.535,2.019-.824,3.022-.189.657-.261,1.393-1,1.715l.2,1.372a18.209,18.209,0,0,1,2.217,1.651,6.54,6.54,0,0,0,1.2.824,7.645,7.645,0,0,1,3.76,5.319c.391,2.473.813,4.942,1.15,7.422.23,1.685.384,3.384.487,5.081.108,1.772.151,3.55.155,5.325a22.139,22.139,0,0,1-1.376,6.176c-.313,1.076-.653,2.17-1.019,3.243a16.652,16.652,0,0,1-2.5,4.559c-.528.709-1.065,1.415-1.643,2.083a8.462,8.462,0,0,1-3.772,2.514,29.451,29.451,0,0,1-5.9,1.095,12.5,12.5,0,0,1-4.957-.421,8.191,8.191,0,0,1-5.777-4.971c-.2-.508-.483-.983-.706-1.483a12.749,12.749,0,0,1-.894-4.041c-.063-.649-.306-1.278-.4-1.926a29.312,29.312,0,0,1-.374-3.092c-.1-2.156-.118-4.315-.164-6.474A3.018,3.018,0,0,1,1189.648,534.728Z" fill="#d9dadc"/>
    <path id="Path_94" data-name="Path 94" d="M1533.834,508.627h-5.408a4.622,4.622,0,0,1-.757-4.133,3.306,3.306,0,0,0,.034-1.061,55.99,55.99,0,0,1-.108-10,30.927,30.927,0,0,1,1.117-5.835,33.569,33.569,0,0,1,2.086-4.426,2.477,2.477,0,0,1,1.137-1.2c1.277-.555,1.893-1.783,2.894-2.612,1.381-1.143,2.509-2.613,4.243-3.287,1.07-.415,2.171-.753,3.262-1.113.248-.082.581-.031.76-.18a1.789,1.789,0,0,1,1.775-.225,5.243,5.243,0,0,0,1.322.106,10.991,10.991,0,0,1,7.158,2.522,11.283,11.283,0,0,1,3.14,3.4,7.153,7.153,0,0,1,.47.96c.8,2.326,1.663,4.635,2.343,7a45.917,45.917,0,0,1,1.03,5.115,43.741,43.741,0,0,1,.28,8.726,1.209,1.209,0,0,1-.005.269,34.524,34.524,0,0,0-.469,4.758c-.132,1.007-.492,1.5-1.489,1.546a46.041,46.041,0,0,1-5.08-.006c-1.276-.076-1.458-.418-1.506-1.737-.077-2.122.543-4.146.819-6.218.227-1.706.273-3.436.4-5.156a5.006,5.006,0,0,1,.044-.779,15.651,15.651,0,0,0-.379-8.066,5.319,5.319,0,0,1-.2-.782c-.234-1.847-1.474-3.019-2.78-4.136a7.759,7.759,0,0,0-3.477-1.9c-2.656-.516-5.326-1.08-7.926.363a8.227,8.227,0,0,0-3.521,3.761,24.945,24.945,0,0,0-1.151,3.282c-.293.939-.488,1.908-.779,2.847a30.663,30.663,0,0,0-1.133,5.764,22.632,22.632,0,0,0,1.123,9.1C1533.405,506.3,1533.56,507.354,1533.834,508.627Z" fill="#d9dadc"/>
    <path id="Path_95" data-name="Path 95" d="M1232.322,512.21l-4.475.236a20.7,20.7,0,0,1-.883-2.378c-.333-1.37-.548-2.769-.815-4.154a48.625,48.625,0,0,1-.639-6.55c-.073-1.326-.081-2.659-.04-3.987a7,7,0,0,1,.353-1.949,22.5,22.5,0,0,1,1.921-4.486,10.108,10.108,0,0,1,2.676-2.494,24.48,24.48,0,0,1,3.005-1.892,3.692,3.692,0,0,1,1.323-.565,13.613,13.613,0,0,1,4.76-.123c.975.22,1.978.311,2.961.5a8.187,8.187,0,0,1,2.722,1.4,11.027,11.027,0,0,1,3.293,3.572,17.858,17.858,0,0,1,2.388,5.974c.287,1.275.112,2.663.453,3.916.5,1.837.242,3.693.431,5.532a20.673,20.673,0,0,1-.248,3.879c-.056.624-.18,1.242-.286,1.948h-3.6a21.175,21.175,0,0,1,.174-2.5,22.263,22.263,0,0,0,.2-4.879c-.022-.6.034-1.2-.018-1.793-.09-1.031-.188-2.065-.37-3.082a26.2,26.2,0,0,0-2.2-6.872,6.152,6.152,0,0,0-4.464-3.506,23.455,23.455,0,0,0-2.845-.309,8.66,8.66,0,0,0-4.851,1.312,3.043,3.043,0,0,0-1.019,1.006,13.906,13.906,0,0,0-1.91,4.821,23.452,23.452,0,0,0-.275,2.825c-.063.758-.136,1.516-.151,2.275-.009.435.1.872.134,1.31.071.957.051,1.927.207,2.869a40.308,40.308,0,0,0,.893,4.127c.292,1.067.755,2.087,1.116,3.137A4.212,4.212,0,0,1,1232.322,512.21Z" fill="#fff"/>
    <g id="Group_11" data-name="Group 11">
      <path id="Path_96" data-name="Path 96" d="M1156.033,226.1c.413,4.721,2.007,9.211.9,14.1a82.81,82.81,0,0,0-2.177,22.84c.3,5.539,1.058,11.057,1.253,16.6a172.5,172.5,0,0,1-.107,17.863c-.441,6.429-.809,12.824-.058,19.234.464,3.965.964,7.93,1.636,11.863.321,1.882-.167,4.061,1.725,5.673,2.366-.587,4.853-1.078,7.26-1.826,6.309-1.961,12.782-1.594,19.216-1.361,6.327.23,12.654.7,18.957,1.309,9.505.922,18.749,2.921,26.248,9.335,5.346,4.572,10.061,9.79,11.643,16.973a34.035,34.035,0,0,1,.242,12.845c-.427,2.628-.676,5.284-1.018,7.926a34.055,34.055,0,0,1-7.867,18.428c-1.946,2.241-4.7,3.791-6.587,6.069a51.215,51.215,0,0,1-13.341,11.413c-4.808,2.847-9.1,6.829-14.834,7.985-2.17.438-4.348.9-6.545,1.119-3.316.334-6.658.393-9.977.7-4.9.46-9.453-1.2-14.084-2.266a35.6,35.6,0,0,1-20.5-12.822c-2.9-3.643-6.486-6.715-8.75-10.9a81.217,81.217,0,0,1-6.723-16.649,133.916,133.916,0,0,1-3.278-13.22c-.8-4.553-1.13-9.2-1.47-13.819a105.887,105.887,0,0,0-1.516-11.77,56.866,56.866,0,0,1-.738-10.253c-.014-5.328.1-10.665.428-15.981.42-6.759,1.137-13.5,1.67-20.252.158-1.993.08-4,.2-6,.382-6.544.91-13.082,1.166-19.63.128-3.279-.251-6.576-.324-9.866-.044-1.978.144-3.962.083-5.939-.259-8.5-.577-17-.86-25.507a4.894,4.894,0,0,1,3.784-4.389,29.508,29.508,0,0,1,7.92-.38c4.394.522,8.878.284,13.323.381C1153.805,225.951,1154.685,226.027,1156.033,226.1Zm-4.7,5.424a23.747,23.747,0,0,0-9.759.268c-2.747.556-2.874.763-2.955,3.433-.209,6.892-.273,13.795-.718,20.672-.4,6.2-1.216,12.372-1.877,18.554-.589,5.522-1.9,10.94-1.7,16.582a66.953,66.953,0,0,1-.938,10.891c-.6,4.623-1.732,9.2-2.021,13.834-.4,6.446-.246,12.927-.3,19.393-.031,3.57.335,7.182-.1,10.7-.549,4.474.455,8.691,1.735,12.753,1.9,6.027,3.212,12.166,4.641,18.294a118.107,118.107,0,0,0,3.134,11.9c1.451,4.182,3.552,8.134,5.118,12.281a17.229,17.229,0,0,0,4.4,6.592,95.4,95.4,0,0,0,8.635,7.288c6.866,5.03,14.9,6.338,23.1,6.07,7-.228,13.361-3.153,19.441-6.461,4.1-2.233,8.131-4.63,12.044-7.18a45.311,45.311,0,0,0,7.036-5.561c4.733-4.65,7.67-10.573,10.585-16.4,3.388-6.774,5.7-13.98,5.862-21.643.073-3.44-.45-6.879-3.08-9.571a31.408,31.408,0,0,1-2.751-3.3c-3.543-4.787-8.726-6.705-14.2-7.907a81.466,81.466,0,0,0-10.87-1.549c-8.681-.7-17.229-3.482-26.072-1.735-.107.022-.226-.012-.334.008-4.445.8-9,.9-13.262,2.8a18.5,18.5,0,0,0-7.035,5.7c-1.347,1.705-2.258,3.747-3.464,5.572-.86,1.3-2.032,3.008-3.615,2.347-1.337-.559-2.224-2.285-3.185-3.587-.274-.37-.131-1.061-.145-1.606-.07-2.764-.112-5.528-.195-8.291-.124-4.084-.31-8.166-.4-12.25-.037-1.737-.36-3.68.285-5.165.764-1.76.5-3.452.708-5.163.132-1.07-.048-2.178.077-3.25.86-7.372,2.09-14.718,2.577-22.114.74-11.233-.123-22.46-1.222-33.651a70.3,70.3,0,0,1-.1-15.25C1150.954,241.262,1151.022,236.653,1151.331,231.527Z" fill="#001d33"/>
      <path id="Path_97" data-name="Path 97" d="M1151.331,231.527c-.309,5.126-.377,9.735-.918,14.288a70.3,70.3,0,0,0,.1,15.25c1.1,11.191,1.962,22.418,1.222,33.651-.487,7.4-1.717,14.742-2.577,22.114-.125,1.072.055,2.18-.077,3.25-.212,1.711.056,3.4-.708,5.163-.645,1.485-.322,3.428-.285,5.165.088,4.084.274,8.166.4,12.25.083,2.763.125,5.527.195,8.291.014.545-.129,1.236.145,1.606.961,1.3,1.848,3.028,3.185,3.587,1.583.661,2.755-1.047,3.615-2.347,1.206-1.825,2.117-3.867,3.464-5.572a18.5,18.5,0,0,1,7.035-5.7c4.261-1.9,8.817-2,13.262-2.8.108-.02.227.014.334-.008,8.843-1.747,17.391,1.035,26.072,1.735a81.466,81.466,0,0,1,10.87,1.549c5.477,1.2,10.66,3.12,14.2,7.907a31.408,31.408,0,0,0,2.751,3.3c2.63,2.692,3.153,6.131,3.08,9.571-.161,7.663-2.474,14.869-5.862,21.643-2.915,5.827-5.852,11.75-10.585,16.4a45.311,45.311,0,0,1-7.036,5.561c-3.913,2.55-7.94,4.947-12.044,7.18-6.08,3.308-12.444,6.233-19.441,6.461-8.2.268-16.233-1.04-23.1-6.07a95.4,95.4,0,0,1-8.635-7.288,17.229,17.229,0,0,1-4.4-6.592c-1.566-4.147-3.667-8.1-5.118-12.281a118.107,118.107,0,0,1-3.134-11.9c-1.429-6.128-2.741-12.267-4.641-18.294-1.28-4.062-2.284-8.279-1.735-12.753.432-3.517.066-7.129.1-10.7.057-6.466-.1-12.947.3-19.393.289-4.635,1.423-9.211,2.021-13.834a66.953,66.953,0,0,0,.938-10.891c-.2-5.642,1.108-11.06,1.7-16.582.661-6.182,1.476-12.355,1.877-18.554.445-6.877.509-13.78.718-20.672.081-2.67.208-2.877,2.955-3.433A23.747,23.747,0,0,1,1151.331,231.527Z" fill="#d9dadc"/>
    </g>
    <path id="Path_98" data-name="Path 98" d="M1148.389,494.2c2.127-.251,4.037-1.04,6.167-.755a8.019,8.019,0,0,1,.184,1.035c.1,2.047.252,4.1.242,6.142-.009,1.909-.184,3.818-.312,5.726-.068,1.005-.167,2.011-.3,3.011a10.231,10.231,0,0,1-2.532,5.614,20.42,20.42,0,0,1-3.248,3.094,8.977,8.977,0,0,1-5.2,1.928c-1.561,0-3.122.071-4.682.051a19.077,19.077,0,0,1-5.19-1.124,3.457,3.457,0,0,1-1.005-.725,14.332,14.332,0,0,1-3.9-5.467,26.137,26.137,0,0,1-1.524-4.975c-.5-2.2-.9-4.43-1.232-6.664a22.223,22.223,0,0,1-.086-3.338c.011-2.181.017-4.364.084-6.544.081-2.678.238-5.353.328-8.03.025-.76-.118-1.526-.1-2.288.026-1.281.114-2.561.181-3.841.044-.833.075-1.668.151-2.5.158-1.73.351-3.456.512-5.186.112-1.2.218-2.4.282-3.6.057-1.061.2-1.247,1.242-1.145.891.087,1.775.251,2.747.394,0,1.141.056,2.146-.011,3.143-.144,2.118-.363,4.23-.532,6.346-.284,3.573-.6,7.145-.813,10.722-.12,2.011-.048,4.034-.1,6.05a42.008,42.008,0,0,0,.4,6.046c.136,1.134.1,2.289.229,3.424.11.955.444,1.889.512,2.843a25.162,25.162,0,0,0,1.078,4.981,7.749,7.749,0,0,0,3.922,5.144,11.051,11.051,0,0,0,8.4.789,4.666,4.666,0,0,0,1.127-.545c.825-.516,1.653-1.034,2.435-1.613a3.5,3.5,0,0,0,1.337-1.954c.366-1.446.665-2.91.985-4.368.52-2.361-.048-4.64-.562-6.914-.275-1.222-.677-2.415-1-3.626C1148.508,495.112,1148.477,494.73,1148.389,494.2Z" fill="#d9dadc"/>
    <g id="Group_12" data-name="Group 12">
      <path id="Path_99" data-name="Path 99" d="M1202.52,174.346c-4.311-1.733-8.842-1.584-13.257-2.191a39.89,39.89,0,0,1-5.153-1.064c-2.033-.561-2.552-1.437-2.244-3.586a12.649,12.649,0,0,1,.779-3.187c1.083-2.527.751-5.159.784-7.768.028-2.181-.054-4.365.027-6.544a47.658,47.658,0,0,1,.549-7.781c.793-3.861-.393-7.527-.6-11.28a3.387,3.387,0,0,0-1.05-1.949c-4.335-4.286-9.364-7.221-15.579-7.757-.671-.058-1.335-.216-2.006-.245a20.951,20.951,0,0,0-4.043-.036,13.883,13.883,0,0,0-4.954,1.388,23.282,23.282,0,0,0-4.27,3.94,36.519,36.519,0,0,0-2.406,2.863,15.851,15.851,0,0,0-3.212,9.421c-.116,2.269-.4,4.529-.5,6.8-.2,4.643,1.072,9.013,2.478,13.38,1.034,3.211,1.781,6.515,2.655,9.778a7.934,7.934,0,0,0,.544,1.95c1.393,2.37.8,4.966.9,7.466a2.3,2.3,0,0,1-2.981,2.192,44.086,44.086,0,0,0-11.368-.747c-1.508.038-3.011.4-4.517.4-2.986.007-3.219-.366-3.557-3.283s-.886-5.828-1.337-8.741c-.729-4.713-1.578-9.411-2.121-14.145a20.394,20.394,0,0,1,.445-5.707c.533-3.067,1.114-6.141,1.941-9.138A62,62,0,0,1,1142.222,114a42.068,42.068,0,0,1,4.592-4.371,11.612,11.612,0,0,1,2.907-1.506c4.468-1.913,9.258-2.549,13.968-3.524,2.557-.529,5.068-1.283,7.6-1.935a13.616,13.616,0,0,1,2.447-.6c3.537-.216,7.086-.568,10.617-.454a16.2,16.2,0,0,1,11.424,5.28,36.9,36.9,0,0,1,7.393,10.2,35.555,35.555,0,0,1,3.176,12.449,172.447,172.447,0,0,1,0,20.272c-.239,4.641-.663,9.273-1.017,13.908a45.25,45.25,0,0,1-.475,5.017C1204.477,170.716,1204.041,172.742,1202.52,174.346Zm-66.583.954,11.011-1.261c-.8-2.96-1.538-5.622-2.223-8.3q-1.722-6.729-3.377-13.476a4.623,4.623,0,0,1-.027-1.015c-.056-3.556-.146-7.112-.162-10.668a20.043,20.043,0,0,1,4.278-13.2c1.059-1.307,1.847-2.83,2.877-4.163a8.152,8.152,0,0,1,2.337-2.271c4.41-2.394,9.08-3.567,14.129-2.524a12.925,12.925,0,0,0,2.505.336,27.17,27.17,0,0,1,8.159,1.678,17.352,17.352,0,0,1,10.731,8.735A54.631,54.631,0,0,1,1191,145.078a4.856,4.856,0,0,1-.049,1q-.109,2.139-.216,4.278c-.164,3.208-.358,6.415-.484,9.625-.065,1.666-.011,3.337-.011,5.067,2.886.99,5.529,2.268,8.637,2.12,2.4-.114,2.575-.076,3.065-2.333a55.29,55.29,0,0,0,.964-10.562c.147-6.564,1.757-13.024,1.134-19.664-.46-4.9-.753-9.765-2.661-14.392-1.688-4.1-3.924-7.786-7.921-9.908a48.256,48.256,0,0,0-9.962-4.295c-2.92-.776-6.043-1.416-9.231-.578a89.282,89.282,0,0,1-8.907,1.683,37.457,37.457,0,0,0-13.657,5c-1.3.785-2.558,1.651-3.808,2.519-3.013,2.09-6.3,3.719-8.492,6.968-3.255,4.827-6.339,9.563-7.66,15.436-1.239,5.51-1.1,11.066-1.593,16.59a24.411,24.411,0,0,0,2.156,11.255c1.041,2.572,1.638,5.322,2.492,7.974A21.472,21.472,0,0,0,1135.937,175.3Z" fill="#001d33"/>
      <path id="Path_100" data-name="Path 100" d="M1135.937,175.3a21.472,21.472,0,0,1-1.142-2.435c-.854-2.652-1.451-5.4-2.492-7.974a24.411,24.411,0,0,1-2.156-11.255c.492-5.524.354-11.08,1.593-16.59,1.321-5.873,4.405-10.609,7.66-15.436,2.189-3.249,5.479-4.878,8.492-6.968,1.25-.868,2.506-1.734,3.808-2.519a37.457,37.457,0,0,1,13.657-5,89.282,89.282,0,0,0,8.907-1.683c3.188-.838,6.311-.2,9.231.578a48.256,48.256,0,0,1,9.962,4.295c4,2.122,6.233,5.812,7.921,9.908,1.908,4.627,2.2,9.495,2.661,14.392.623,6.64-.987,13.1-1.134,19.664a55.29,55.29,0,0,1-.964,10.562c-.49,2.257-.661,2.219-3.065,2.333-3.108.148-5.751-1.13-8.637-2.12,0-1.73-.054-3.4.011-5.067.126-3.21.32-6.417.484-9.625q.109-2.139.216-4.278a4.856,4.856,0,0,0,.049-1,54.631,54.631,0,0,0-4.824-15.908,17.352,17.352,0,0,0-10.731-8.735,27.17,27.17,0,0,0-8.159-1.678,12.925,12.925,0,0,1-2.505-.336c-5.049-1.043-9.719.13-14.129,2.524a8.152,8.152,0,0,0-2.337,2.271c-1.03,1.333-1.818,2.856-2.877,4.163a20.043,20.043,0,0,0-4.278,13.2c.016,3.556.106,7.112.162,10.668a4.623,4.623,0,0,0,.027,1.015q1.668,6.742,3.377,13.476c.685,2.676,1.428,5.338,2.223,8.3Z" fill="#d9dadc"/>
    </g>
    <path id="Path_101" data-name="Path 101" d="M1321.863,485.93c-2.4-13.443-2.375-20.926.241-34.343.317-1.041.088-1.686-1.01-1.921-3.46-.628-7.139-.34-10.534-.863a1.7,1.7,0,0,0-2.114.5,156.1,156.1,0,0,0-1.565,24.139c-1.175,16.7.49,47.256,23.542,45.215C1356.489,519.765,1351.819,473.557,1321.863,485.93Zm5.4,20.891c-3.132.322-4.74-3.108-5.505-5.611-.705-7.5,12.758-7.322,12.307.627C1334.382,505.356,1330.343,507.831,1327.258,506.821Z" fill="#001d33"/>
    <g id="Group_14" data-name="Group 14">
      <g id="Group_13" data-name="Group 13">
        <path id="Path_102" data-name="Path 102" d="M1303.856,491.912a9.146,9.146,0,0,1,.6,3.873c-.194,1.385-.22,2.8-.3,4.182-.064,1.334-.09,2.655-.168,3.989a22.962,22.962,0,0,1-.751,4.364,26.672,26.672,0,0,0-.453,3.082c-.156,1.308-.3,2.629-.441,3.885a2.979,2.979,0,0,1-2.616.454,34.1,34.1,0,0,0-6.708-.1c-.349.013-.7-.052-1.01-.065a2.752,2.752,0,0,1,.156-2.253c.543-1.308,1.01-2.642,1.541-3.937.233-.583.595-1.114.841-1.7.557-1.3,1.14-2.59,1.606-3.924a9.341,9.341,0,0,0,.441-4.39c-.13-.907-.3-1.826-.493-2.733a2.747,2.747,0,0,0-1.023-1.683,1.61,1.61,0,0,1-.453-.479,3.266,3.266,0,0,0-3.548-1.749c-1.632.117-3.251.285-4.869.428-.117.013-.234,0-.337.013-1.373.168-1.645.479-1.593,1.864a49.875,49.875,0,0,0,.324,6.67,5.324,5.324,0,0,1-.233,1.528,20.046,20.046,0,0,1-2.331,6.1,4.225,4.225,0,0,1-1.982,2.189c-.583.246-.971.919-1.541,1.243a33.28,33.28,0,0,1-4.39,2.344,8.013,8.013,0,0,1-2.966.259,20.423,20.423,0,0,1-3.211-.194,13.718,13.718,0,0,1-5.478-1.826,8.715,8.715,0,0,1-2.5-2.784,24.224,24.224,0,0,1-2.331-5.142,15.986,15.986,0,0,1-.907-5.685,47.308,47.308,0,0,1,.142-5.9c.091-.738.234-1.463.324-2.2a11.593,11.593,0,0,1,.091-1.516,10.594,10.594,0,0,1,.673-1.748c.285-.6.635-1.178.933-1.761.077-.13.09-.3.168-.415a15.379,15.379,0,0,1,1.722-2.382,8.04,8.04,0,0,1,2.992-2.241,19.17,19.17,0,0,0,2.447-1.036,5.042,5.042,0,0,1,2.6-.427,20.518,20.518,0,0,1,4.455.324.981.981,0,0,0,.324.077c2.033-.285,3.587,1.036,5.374,1.58a6.4,6.4,0,0,1,2.046,1.308,1.2,1.2,0,0,0,1.231.272c2.616-.867,5.387-.712,8.042-1.308a14.242,14.242,0,0,1,5.737.324,8.867,8.867,0,0,1,2.629,1.424c.3.169.53.415.828.583a6.854,6.854,0,0,1,3.134,4.041C1303.014,489.8,1303.545,490.825,1303.856,491.912Zm-1.373,13.054a24.4,24.4,0,0,0,.466-5.322,39.975,39.975,0,0,1-.337-4.973,12.838,12.838,0,0,0-1.58-5.983c-1.7-3.458-5.555-4.908-8.857-4.714-.816.052-1.632.117-2.448.22-.92.1-1.839.233-2.758.4a20.832,20.832,0,0,0-5.491,1.864c-1.218.6-1.736.505-2.422-.673a7.36,7.36,0,0,0-3.121-2.59,3.5,3.5,0,0,0-1.269-.35c-2.253-.259-4.442.3-6.643.583a6.517,6.517,0,0,0-2.344.661,7.592,7.592,0,0,0-2.927,2.693,27.967,27.967,0,0,0-1.528,2.979,16.757,16.757,0,0,0-1.723,5.167c-.051.583-.1,5.206.052,6.876a10.837,10.837,0,0,0,.531,3.044,37.78,37.78,0,0,0,2.111,4.053,2.263,2.263,0,0,0,.8.764,46.679,46.679,0,0,0,6.76,3.432,6.625,6.625,0,0,0,4.157.065,13.716,13.716,0,0,0,4.1-2.461,2.453,2.453,0,0,0,.583-.764,23.139,23.139,0,0,0,2.706-6.255,18.13,18.13,0,0,0,.4-6.579c-.078-.505-.1-1.01-.143-1.515-.051-.764-.038-1.554-.155-2.318-.155-.932-.181-.971.712-1.23a44.236,44.236,0,0,1,6.993-1.45,8.232,8.232,0,0,1,6.566,1.735,3.935,3.935,0,0,0,.376.246,4.27,4.27,0,0,1,2.059,3.186,27.528,27.528,0,0,1,.414,5.659c-.052,1.308-.544,2.512-.686,3.781a17.43,17.43,0,0,1-1.852,5.116c-.35.751-.764,1.476-1.1,2.227a7.581,7.581,0,0,0-.35,1.153,21.921,21.921,0,0,0,6.229.453c.221-.855.493-1.7.648-2.577C1301.809,509.382,1302.224,507.181,1302.483,504.966Z" fill="#001d33"/>
        <path id="Path_103" data-name="Path 103" d="M1302.949,499.644a24.4,24.4,0,0,1-.466,5.322c-.259,2.215-.674,4.416-1.062,6.605-.155.88-.427,1.722-.648,2.577a21.921,21.921,0,0,1-6.229-.453,7.581,7.581,0,0,1,.35-1.153c.337-.751.751-1.476,1.1-2.227a17.43,17.43,0,0,0,1.852-5.116c.142-1.269.634-2.473.686-3.781a27.528,27.528,0,0,0-.414-5.659,4.27,4.27,0,0,0-2.059-3.186,3.935,3.935,0,0,1-.376-.246,8.232,8.232,0,0,0-6.566-1.735,44.236,44.236,0,0,0-6.993,1.45c-.893.259-.867.3-.712,1.23.117.764.1,1.554.155,2.318.039.505.065,1.01.143,1.515a18.13,18.13,0,0,1-.4,6.579,23.139,23.139,0,0,1-2.706,6.255,2.453,2.453,0,0,1-.583.764,13.716,13.716,0,0,1-4.1,2.461,6.625,6.625,0,0,1-4.157-.065,46.679,46.679,0,0,1-6.76-3.432,2.263,2.263,0,0,1-.8-.764,37.78,37.78,0,0,1-2.111-4.053,10.837,10.837,0,0,1-.531-3.044c-.155-1.67-.1-6.293-.052-6.876a16.757,16.757,0,0,1,1.723-5.167,27.967,27.967,0,0,1,1.528-2.979,7.592,7.592,0,0,1,2.927-2.693,6.517,6.517,0,0,1,2.344-.661c2.2-.285,4.39-.842,6.643-.583a3.5,3.5,0,0,1,1.269.35,7.36,7.36,0,0,1,3.121,2.59c.686,1.178,1.2,1.269,2.422.673a20.832,20.832,0,0,1,5.491-1.864c.919-.169,1.838-.3,2.758-.4.816-.1,1.632-.168,2.448-.22,3.3-.194,7.161,1.256,8.857,4.714a12.838,12.838,0,0,1,1.58,5.983A39.975,39.975,0,0,0,1302.949,499.644Zm-25.771-1.386a5.4,5.4,0,0,0-.155-2.9,10.6,10.6,0,0,0-6.98-6.112,1.091,1.091,0,0,0-.674.039,11.669,11.669,0,0,0-1.748.621,5.317,5.317,0,0,0-1.191.92,4.378,4.378,0,0,0-.622.893A8.794,8.794,0,0,0,1264.1,497a11.353,11.353,0,0,0,1.152,5.167,3.487,3.487,0,0,0,.751.932c1.425,1.438,3.264,1.632,5.064,1.865,2.732.363,4.545-2.046,5.5-4.118A8.226,8.226,0,0,0,1277.178,498.258Z" fill="#d9dadc"/>
        <path id="Path_104" data-name="Path 104" d="M1277.023,495.357a5.4,5.4,0,0,1,.155,2.9,8.226,8.226,0,0,1-.608,2.59c-.959,2.072-2.772,4.481-5.5,4.118-1.8-.233-3.639-.427-5.064-1.865a3.487,3.487,0,0,1-.751-.932A11.353,11.353,0,0,1,1264.1,497a8.794,8.794,0,0,1,1.709-5.284,4.378,4.378,0,0,1,.622-.893,5.317,5.317,0,0,1,1.191-.92,11.669,11.669,0,0,1,1.748-.621,1.091,1.091,0,0,1,.674-.039A10.6,10.6,0,0,1,1277.023,495.357Zm-2.629,5.918c1.127-.686,1.943-3.483,1.178-4.96-.271-.543-.673-1.023-.893-1.592a2.564,2.564,0,0,0-2.512-1.632,7.159,7.159,0,0,1-2.047-.233,1.567,1.567,0,0,0-1.748.362c-1.23,1.373-2.771,2.642-2.3,4.96a2.528,2.528,0,0,1-.116.738,3.4,3.4,0,0,0,1.437,3.07c1.127.79,2.46.22,3.354.7C1272.335,502.816,1273.319,501.936,1274.394,501.275Z" fill="#001d33"/>
      </g>
    </g>
    <g id="Group_15" data-name="Group 15">
      <path id="Path_105" data-name="Path 105" d="M1443.358,538.678c.614,4.449.892,8.744,3.005,12.724a2.961,2.961,0,0,0,.216.347c1.937,2.659,5.46,4.236,8.628,2.763,2.444-.692,4.757-1.73,6.006-4.022a38.9,38.9,0,0,0,5.237-12.262c1.966-8.4.391-17.168,1.257-25.7a110.053,110.053,0,0,0-.405-19.81,2.719,2.719,0,0,0-.058-.309c-1.257-5.09-3.855-10.341-9.456-11.386a1.981,1.981,0,0,1-.413-.123,16.59,16.59,0,0,0-8.48-1.243,1.624,1.624,0,0,0-1.426,1.356c-1.152,2.278-2.913,4.454-4.119,6.768-1.317,2.131-1.43,4.639-2.176,6.949a17.847,17.847,0,0,0,.088,11.093c.038,1.929-2.68,2.425-4.334,1.884a1.992,1.992,0,0,1-1.1-.89c-.814-1.429-.543-3.859-.81-5.37-.436-7.011-.932-14.957,4.328-20.421,6.092-6.118,13.23-9.9,21.481-5.205,3.027,2.286,6.821,4.285,8.058,8.119a36.8,36.8,0,0,1,3.771,13.127,1.54,1.54,0,0,0,.023.177c.747,4.146,1.446,8.3,2.057,12.471a2.165,2.165,0,0,1,.025.333c0,4.9.274,9.814.355,14.716a59.681,59.681,0,0,1-2.679,18.21,2.29,2.29,0,0,1-.126.322c-.827,1.768-.49,3.72-1.311,5.479-.871,3.032-2.686,5.652-4.247,8.358-2.851,5.817-8.828,5.73-14.364,4.383a21.952,21.952,0,0,1-9.8-3.768,2.375,2.375,0,0,0-1.026-.367c-.95-.107-1.107-1.075-1.5-1.8-1.76-3.17-3.87-6.156-4.1-9.9-1.665-7.913-2.486-10.113,5.387-9.013A2.353,2.353,0,0,1,1443.358,538.678Z" fill="#001d33"/>
      <path id="Path_106" data-name="Path 106" d="M1397.1,498.271c.82,8.082-.045,5.739-6.9,6.137-1.786.1-2.384-1.786-2.446-3.214.029-6.756-.589-14.3,3.52-20.111a12.368,12.368,0,0,1,8.764-5.662,17.8,17.8,0,0,1,10.067-.169c2.128.483,6.085.831,7.336,2.744.055.116.252.168.388.241a5.254,5.254,0,0,1,2.565,3.209c3.453,7.514,2.686,15.959,1.093,23.86-1.557,7.183-3.136,4.2,1.917,9.84,1.994,2.368,3.063,5.214,4.174,8.033.586,1.554.48,3.34.713,4.986a2.54,2.54,0,0,0,.628,1.245c.793.952-.307,2.382-.178,3.548a60.269,60.269,0,0,1-1.764,11.1A22.286,22.286,0,0,1,1419,557.206c-3.944,3.662-8.681,6.944-14.33,6.222-3.438-.336-7.047-1.114-9.163-4.146-4.849-5.182-6.239-10.877-8.193-17.469-.453-1.766-.831-3.57-1.156-5.365a2.331,2.331,0,0,1-.02-.7c.53-4.4,1.022-8.81,1.513-13.214.447-3.025,5.6-.752,7.607-.753,1.981.351,2.707.234,2.454,2.465-.194,3.2-.062,6.435-.874,9.6a8.216,8.216,0,0,0,.147,2.6c.625,3.34.194,6.883,1.76,10.011.928,1.564.966,3.838,2.685,4.719,2.207,1.337,4.331,1.031,6.752.352,8.087-2.364,11.3-13.252,10.992-20.773-.477-6.238-2.2-16.146-9.893-16.748-1.543-.109-1.871-.748-1.379-2.144.448-.868,1.891-1.271,1.582-2.536.828-2.153,1.982-4.364,2.2-6.788.16-1.66.854-3.263,1.111-4.922.695-4.316-.278-9.378-4.472-11.605C1401.449,482.991,1396.435,492.348,1397.1,498.271Zm-4.356,26a2.34,2.34,0,0,0-2.7,2.073c-.253,2.436-.424,4.8-.6,7.287a16.96,16.96,0,0,0,1.373,9.042,1.985,1.985,0,0,1,.1.309c1.41,5.86,3.085,12.112,8.025,16.012a2.758,2.758,0,0,0,.344.236c3.676,2.1,11.725.59,15.063-1.689,4.029-2.162,6.478-6.067,8.088-10.24,1.269-3.493,2.728-7,3.041-10.745,1.455-8.692-.084-19.167-8.64-23.621-1.447-1,.986-2.65,1.192-3.888a1.448,1.448,0,0,1,.04-.183,39.753,39.753,0,0,0,.578-21.123c-.067-.325-.486-.6-.5-.911a5.364,5.364,0,0,0-1.675-3.879c-2.206-2.846-5.527-3.605-8.716-4.823-3.206-1.566-6.841-.666-10,.491a23.137,23.137,0,0,0-4.45,3.469,2.944,2.944,0,0,0-.28.329c-1.467,2.04-1.758,4.706-2.417,7.1a2.352,2.352,0,0,0-.084.5c-.181,3.3.249,6.654-.03,9.963-.2,2.547,4.3,2.646,4.037.084.434-3.149-.406-6.759,1.433-9.524,1.257-3.231,2.913-6.483,6.811-6.83,3.873-.749,9.179-.965,11.287,3.03.467.9,1.428,1.433,1.609,2.58a14.363,14.363,0,0,1,1.224,7.871c-.6,7.146-1.351,8.137-4.326,12.813a2.331,2.331,0,0,0,.747,3.244,16.2,16.2,0,0,1,5.1,4.216c3.645,5.179,3.41,11.732,3.629,17.78,0,.074,0,.148,0,.222-.315,6.082-1.711,11.576-5.691,16.335-2.86,4.381-9.391,7.03-14.227,4.352a2.935,2.935,0,0,1-.352-.232c-5.163-3.922-6.956-10.617-7.584-16.781-.008-.083-.013-.166-.014-.249-.073-4.053.337-8.121.562-12.167a2.339,2.339,0,0,0-1.958-2.441Z" fill="#001d33"/>
      <path id="Path_107" data-name="Path 107" d="M1482.078,453.63c.044,2.615.588,4.925.692,7.41a2.241,2.241,0,0,1,.085,2.039c-.155.651-.5,1.023-1.084,1.027-1.911.013-3.827.011-5.734-.112-2.12.066-1.176-6.193-1.469-7.83a84.936,84.936,0,0,0-.822-14.616,7.591,7.591,0,0,1-.087-3.556c.2-.642.542-.806,1.043-.734,1.653.237,3.291.575,4.946.8,1.4.187,1.138,1.362,1.341,2.2.47,1.6-.507,4.861,2.261,4.193a12.127,12.127,0,0,1,5.12.163,17.7,17.7,0,0,1,6.33.977q1.667.41,3.345.771c.59.128.956.268.742,1.055.29,3.64-.506,7.385-.091,11.033-.043,3.374-.14,6.748-.168,10.122.254,1.748-.713,5.48,1.934,5.442,4.981,0,8.288,3.246,12.22,5.573a2.351,2.351,0,0,1,.541.431c2.811,3.062,4.243,6.807,5.469,10.725.715,1.846.409,3.7.185,5.559a19.937,19.937,0,0,1-5.058,11.586,2.656,2.656,0,0,1-.335.319c-3.438,2.749-7.843,4.942-12.28,5.151a46.033,46.033,0,0,1-4.61-.612c-6.818-.721-10.207-7.153-13.83-12.138a16.772,16.772,0,0,1-1.428-2.313,2.788,2.788,0,0,1-.133-.63c-.081-.529-.342-1-.461-1.488-.459-1.865-1.242-3.736-.584-5.755,1.448-5.267,3.334-11.754,9.348-13.268,3.052-.947,1.829-4.566,1.973-6.939-.031-3.768-.514-7.441-.306-11.224a18.719,18.719,0,0,0-.332-5.485c-.234-1.435-.4-1.359-1.989-1.1C1486.579,452.827,1484.223,452.629,1482.078,453.63Z" fill="#001d33"/>
      <path id="Path_108" data-name="Path 108" d="M1392.745,524.268l.045.007a2.339,2.339,0,0,1,1.957,2.441c-.225,4.046-.635,8.114-.562,12.167,0,.083.006.166.014.249.628,6.167,2.423,12.866,7.592,16.787a3,3,0,0,0,.335.223c4.19,2.389,9.622.529,12.869-2.616a3.124,3.124,0,0,0,.215-.232c3.491-4.178,6.277-9.155,6.5-14.723a1.139,1.139,0,0,1,.014-.143,27.328,27.328,0,0,0,.175-6.78c-.005-.051-.007-.1-.007-.152,0-4.852-.632-9.956-3.467-14.04a16.212,16.212,0,0,0-5.1-4.215,2.331,2.331,0,0,1-.746-3.244c2.976-4.678,3.729-5.676,4.326-12.814a14.372,14.372,0,0,0-1.224-7.871c-.181-1.147-1.142-1.676-1.609-2.58-2.112-3.988-7.411-3.781-11.288-3.03-3.9.364-5.548,3.58-6.809,6.83-1.842,2.763-1,6.377-1.434,9.524.259,2.561-4.237,2.464-4.037-.084.279-3.309-.151-6.665.03-9.964a2.335,2.335,0,0,1,.084-.5c.658-2.392.951-5.053,2.417-7.1a2.681,2.681,0,0,1,.281-.33,23.1,23.1,0,0,1,4.449-3.469c3.158-1.156,6.791-2.056,10-.491,3.187,1.223,6.51,1.972,8.715,4.824a5.36,5.36,0,0,1,1.675,3.878c.012.308.431.586.5.911a39.76,39.76,0,0,1-.606,21.214c-.091,1.247-2.692,2.952-1.2,3.98,8.554,4.453,10.1,14.929,8.639,23.621-.311,3.742-1.772,7.251-3.039,10.745-1.613,4.166-4.058,8.085-8.089,10.24-3.4,2.306-11.333,3.77-15.054,1.692a2.655,2.655,0,0,1-.36-.244c-4.935-3.9-6.609-10.15-8.018-16.008a2.2,2.2,0,0,0-.1-.307,16.963,16.963,0,0,1-1.374-9.043c.18-2.484.35-4.851.6-7.287A2.341,2.341,0,0,1,1392.745,524.268Z" fill="#d9dadc"/>
    </g>
  </g>
</svg>
