<svg xmlns="http://www.w3.org/2000/svg" xmlns:xlink="http://www.w3.org/1999/xlink" width="577" height="648.205" viewBox="0 0 577 648.205">
  <defs>
    <clipPath id="clip-path">
      <rect id="Rectangle_3889" data-name="Rectangle 3889" width="577" height="648.205" fill="none"/>
    </clipPath>
  </defs>
  <g id="Group_11157" data-name="Group 11157" clip-path="url(#clip-path)">
    <path id="Path_11367" data-name="Path 11367" d="M255.873,123.317q.392,10.671.781,21.346a4.9,4.9,0,0,1-6.148,5.221,38.059,38.059,0,0,0-19.466.587,10.4,10.4,0,0,1-2.665.38c-2.452.022-3.092-.732-3.438-3.106-1.29-8.768-.982-17.59-1.064-26.4-.026-2.691-.34-5.378-.4-8.071a28.927,28.927,0,0,1,.282-4.741,65.917,65.917,0,0,1,3.908-16.043,47.07,47.07,0,0,1,7.945-13.7,35.862,35.862,0,0,1,9.012-7.166c6.891-4.034,14.468-6.339,21.988-8.6,4.651-1.4,9.646-2.442,14.614-.231,3.065,1.364,6.763.8,9.688,2.766,3.626,2.436,8.154,2.354,11.937,4.356,3.13,1.657,6.32,3.2,9.476,4.805,6.527,3.324,10.1,9.083,12.523,15.636,1.8,4.847,2.981,9.929,4.889,14.726,2.373,5.965,2.933,12.279,3.984,18.474.769,4.521.546,9.208.825,13.818.159,2.6.669,5.192.632,7.783-.128,9.311-.266,18.626-.709,27.926-.268,5.638-1.564,11.251-1.548,16.873.013,4.9-1.682,9.473-1.771,14.338-.056,3.037-1.4,6.039-2.055,9.081-.355,1.651-.391,3.371-.732,5.027-1.922,9.373-4.505,18.5-9.731,26.687a27.186,27.186,0,0,1-6.917,7.426,52.032,52.032,0,0,1-14.517,7.355c-3.1,1.022-6.174,2.148-9.3,3.084a22,22,0,0,1-3.982.547c-2.225.233-4.448.52-6.676.608a23.427,23.427,0,0,1-4-.371c-3.929-.526-7.854-1.081-11.778-1.635-4.335-.611-7.78-2.938-10.927-5.786a80.523,80.523,0,0,1-5.876-5.629,29.844,29.844,0,0,1-2.925-4.489c-1.107-1.794-2.5-3.495-3.195-5.442-1.675-4.7-4.573-8.87-5.986-13.641a73.967,73.967,0,0,1-2.233-10.618c-.491-3.459-.436-6.992-.831-10.469-.546-4.813-1.226-9.614-1.97-14.4-.377-2.408,1.19-4.666,3.613-4.549a70.638,70.638,0,0,1,12.111,1.322,2.524,2.524,0,0,0,1.617-.082c2.79-1.54,5.858-1.243,8.849-1.447,4.112-.279,6.294,1.706,6.633,5.766.281,3.371.716,6.732,1.2,10.081a11.39,11.39,0,0,0,1.065,3.154c1.877,3.942,3.353,8.093,6.472,11.365,1.2,1.253,1.778,3.084,2.949,4.367,4.144,4.544,9.637,5.38,15.419,5.24a2.944,2.944,0,0,0,1.014-.106c6.355-2.609,11.661-6.3,14.2-13.11a73.161,73.161,0,0,0,4.074-21.216,120.477,120.477,0,0,0,.409-14.206c-.483-8.6.549-17.173.2-25.736a100.454,100.454,0,0,0-2.264-16.8c-1.484-6.947-2.851-13.975-5.895-20.5-1.6-3.438-2.96-7.018-4.834-10.3a22.7,22.7,0,0,0-6.326-7.613,46.744,46.744,0,0,0-7.389-4.329,15.888,15.888,0,0,0-9.115-1.308c-2.756.364-5.579.319-7.95,2.211-4.149,3.312-7.119,7.332-7.307,12.791-.191,5.555-.042,11.122-.042,16.683-.114,0-.231,0-.345.006m-9.941,17.054c-.069-1.38-.1-2.947-.229-4.509-.369-4.589-.865-9.168-1.147-13.76-.632-10.307,2.689-19.178,8.977-27.408,4.733-6.195,10.774-9.012,18.078-9.989a41.788,41.788,0,0,1,5.55-.117,1.564,1.564,0,0,1,.907.369c2.8,2.322,6.439,2.667,9.641,4.026,1.916.813,3.958,1.32,5.5,2.771,3.092,2.9,6.838,5.192,8.632,9.3.318.722.87,1.338,1.2,2.057,1.811,4.008,4.051,7.9,5.255,12.085,1.584,5.515,2.408,11.257,3.437,16.922.722,3.994,1.144,8.043,1.871,12.035,1.041,5.7,1.985,11.4,1.8,17.219-.135,4.16-.793,8.364-.383,12.467a61.5,61.5,0,0,1-.777,15.748c-1.016,6.485-2.144,12.959-3.495,19.379a43.269,43.269,0,0,1-2.875,8.327,62.041,62.041,0,0,1-10.116,16.016c-3,3.432-7.328,4.01-11.515,4.762-.1.018-.215-.064-.324-.1-3.3-1.1-6.739-1.913-9.871-3.377-4.345-2.031-8.419-4.631-12.682-6.843a22.447,22.447,0,0,1-11.007-13.139,34.495,34.495,0,0,1-.937-4.971c-.578-3.074-1.173-6.145-1.763-9.229-1.99-.16-3.568-.252-5.136-.427s-3.1-.43-4.841-.675c0,2.01.014,3.487,0,4.963-.059,4.72-.048,9.418,2.472,13.685a6.709,6.709,0,0,1,.408,1.935,30.6,30.6,0,0,0,1.163,4.931c2.123,5.2,4.107,10.482,6.715,15.435,3.308,6.288,8.205,10.965,15.575,12.318.653.119,1.621.154,1.868.57.923,1.537,2.578,1.282,3.668,1.187,2.988-.26,6.121.16,8.926-1.545a12.917,12.917,0,0,1,3.883-1.232c6.325-1.418,11.225-5.325,15.952-9.377,2.829-2.426,5.133-5.457,7.754-8.138,5.752-5.888,9.473-12.977,12.342-20.585,1.077-2.856,2.307-5.665,3.2-8.579a103.123,103.123,0,0,0,2.686-10.543c.862-4.441,1.622-8.923,2.036-13.423.375-4.115-.006-8.3.375-12.417.525-5.659-.162-11.249-.4-16.865a25.1,25.1,0,0,0-.491-4.04c-1.126-5.308-2.343-10.6-3.48-15.9-1.117-5.2-2.079-10.437-3.31-15.612-.651-2.739-1.853-5.341-2.588-8.064-2.033-7.507-3.872-15.018-9.064-21.243-2.9-3.48-5.667-7.015-9.3-9.791a22.508,22.508,0,0,0-11.555-4.314c-3.791-.411-7.6-.695-11.4-.977-3.633-.27-7.3-.887-10.9-.59-5.138.424-10.29,1.216-14.854,4.058-4.032,2.508-8.186,4.76-11.06,8.783-4.114,5.76-7.616,11.7-8.99,18.821-.988,5.13-1.062,10.286-1.5,15.438a51.493,51.493,0,0,0,1.773,18.774c.7,2.442,1.457,4.873,5.08,4.805a20.062,20.062,0,0,0,5.532-.417c1.041-.311,2.1-.557,3.746-.988" transform="translate(135.08 37.182)" fill="#002742"/>
    <path id="Path_11368" data-name="Path 11368" d="M164.873,150.957c0-5.449.4-10.935-.1-16.335-.623-6.631-.574-13.373-2.535-19.86a40.683,40.683,0,0,1-1.327-7,46.176,46.176,0,0,0-3.111-11.8,16.326,16.326,0,0,0-12.655-10.53c-3.3-.664-6.578-1.471-9.877-2.166-3.644-.767-7.276-1.659-10.959-2.155a12.652,12.652,0,0,0-7.891,1.247,24.243,24.243,0,0,0-9.088,7.989c-3.618,5.511-5.925,11.448-6,18.158-.045,4.074-.611,8.162-.4,12.215.292,5.521.586,11.095,2.643,16.366a16.032,16.032,0,0,1,.719,3.32c.257,1.625-.262,2.381-1.98,3.241-2.856,1.43-5.779,1.373-8.706,1.616-3.608.3-7.2.314-10.821.98a30.669,30.669,0,0,1-6.211.329c-2.49-.072-3.852-1.678-3.661-4.192.361-4.709.762-9.415,1.043-14.129.072-1.223-.4-2.474-.348-3.7.324-7.9.56-15.817,1.171-23.7a53.82,53.82,0,0,1,2.1-10.593,72.641,72.641,0,0,1,7.586-18.421,22.436,22.436,0,0,1,6.087-6.769c4.252-3.026,8.5-6.105,13.357-7.987,3.43-1.329,7.167-1.9,10.793-2.689,2.3-.5,4.643-.786,6.968-1.168a2.786,2.786,0,0,1,1-.14c5.274,1.266,10.493-.94,15.764-.226,2.036.276,4.1.31,6.156.46a19.821,19.821,0,0,0,3.637.241c4.356-.512,8.252,1.372,12.148,2.635,2.187.709,4.919.7,6.638,2.939,3.026,3.945,8.035,5.868,10.764,10.108A191.46,191.46,0,0,1,188,86.081c1.8,3.56,2.537,7.727,3.358,11.7a84.323,84.323,0,0,1,1.55,19.3c-.342,13.147-.406,26.3-.762,39.445-.132,4.863-.818,9.707-1.139,14.569-.18,2.721-.055,5.46-.2,8.181-.326,6.225-.2,12.536-1.234,18.644a72.457,72.457,0,0,1-8.63,24.22c-2.034,3.525-3.7,7.305-6.047,10.6-2.172,3.044-4.459,6.229-8.374,7.5-.817.265-1.422,1.122-2.219,1.518-2.619,1.3-5.237,2.623-7.937,3.738-3.337,1.378-6.83,2.394-10.121,3.867-3.214,1.439-6.591,1.444-9.953,1.752-1.239.114-2.511-.021-3.724.2a22.961,22.961,0,0,1-13.651-1.269c-2.652-1.15-5.664-1.471-8.517-2.153-.44-.106-.98-.019-1.33-.246-4.931-3.177-10.285-5.648-14.346-10.19-4.937-5.521-7.769-12.167-11.225-18.525a39.871,39.871,0,0,1-5.154-17.42c-.252-5.637-.16-11.288-.22-16.934,0-.226,0-.454,0-.682,0-.658,1.444-7.979,1.677-8.523.932-2.153,1.81-2.678,4.128-2.636,2.469.045,4.94-.027,7.406.043a13.778,13.778,0,0,1,2.266.531c2.962.61,5.8,1.712,8.995,1,2.436-.544,4.292,1.322,4.419,3.952.082,1.7.077,3.416.01,5.12a59.837,59.837,0,0,0,4.372,24.576c1.122,2.842,2.447,5.608,3.814,8.342a8.453,8.453,0,0,0,2.1,2.623c2.688,2.251,5.47,4.39,8.225,6.561a3.9,3.9,0,0,0,1.162.7c5.982,1.895,11.984,3.373,17.827-.361a19.974,19.974,0,0,0,2.965-2.684,36.929,36.929,0,0,0,8.693-14.1c2.477-6.809,4.667-13.752,6.469-20.767a68.115,68.115,0,0,0,1.487-12.472c.538-8.269.871-16.552,1.29-24.828l-.562-.019" transform="translate(44.064 31.864)" fill="#002742"/>
    <path id="Path_11369" data-name="Path 11369" d="M156.91,377.623a3.959,3.959,0,0,0,.818-.331,18.727,18.727,0,0,0,4.769-4.483,28.623,28.623,0,0,0,2.418-4.757c1.02-2.392,2.006-4.809,2.829-7.275a21.666,21.666,0,0,0,.547-10.641c-.674-4.018-2.609-7.445-4.446-10.938a2.85,2.85,0,0,1-.058-2.442,1.374,1.374,0,0,1,1.276-.854c1.346-.087,2.684-.3,4.027-.446,1.258-.136,2.521-.25,3.78-.38.81-.082,1.617-.2,2.429-.255a1.937,1.937,0,0,1,1.649.709,4.58,4.58,0,0,1,1.351,2.84c.228,1.914.791,3.787,1.12,5.691a13.991,13.991,0,0,1,.164,2.943,36.161,36.161,0,0,0,.252,4.735,36.153,36.153,0,0,1-.842,9.622c-.562,3.188-1.845,6.164-2.588,9.295-.586,2.463-1.194,4.921-1.815,7.474,1.564,1.295,3.06,2.6,4.631,3.812a15.845,15.845,0,0,1,2.962,3.384c.528.717.674,1.7,1.548,2.193.128.072.193.31.234.485.65,2.732,1.359,5.452,1.9,8.207a26.361,26.361,0,0,1,.252,3.944c.109,2.484.229,4.969.289,7.454.032,1.317-.048,2.636-.082,3.955a29.768,29.768,0,0,1-.162,4.438c-.358,2-1.011,3.95-1.542,5.921a.989.989,0,0,1-.209.5c-1.115.887-1.407,2.269-2.084,3.416a6.768,6.768,0,0,1-.717,1.165,16.817,16.817,0,0,0-1.991,3.39c-1.04,1.871-1.957,3.841-3.6,5.282a17.022,17.022,0,0,1-3.511,2.691,18.325,18.325,0,0,0-2.233,1.659c-.321.228-.728.331-1.067.539-1.036.639-2.3.813-3.231,1.72-.294.286-1.022.154-1.552.165a20.385,20.385,0,0,1-3.254-.014,14.725,14.725,0,0,1-3.846-.547,18.635,18.635,0,0,0-1.977-.457,23.12,23.12,0,0,1-2.357-.841c-.661-.278-1.277-.658-1.93-.959-1.269-.587-2.062-1.736-3.108-2.585-1.327-1.078-1.924-2.676-2.914-4a4.357,4.357,0,0,1-.4-1.141c-.621-1.714-1.33-3.4-1.848-5.146a35.187,35.187,0,0,1-1.006-4.643c-.308-1.978-.488-3.976-.708-5.967a8.142,8.142,0,0,1-.04-1.327c.1-1.813.229-3.625.334-5.438a3.09,3.09,0,0,0-.038-1.357,1.907,1.907,0,0,1,.279-1.919,1.476,1.476,0,0,1,1.76-.9,31.265,31.265,0,0,0,8.3.359c.379-.05,1.019,0,1.136.218.292.546,1.016.812.963,1.582-.135,1.957-.122,3.931-.355,5.876a18.557,18.557,0,0,0,1.025,9.669,11.86,11.86,0,0,0,.692,1.171,13.75,13.75,0,0,0,3.661,4.639,4.955,4.955,0,0,0,2.02.735,13.042,13.042,0,0,0,3.5.321c2-.209,3.121-1.754,4.1-3.316a39.489,39.489,0,0,0,3.305-7.753,20.151,20.151,0,0,0,1.389-6.383,38.026,38.026,0,0,0-.2-7.361,19.568,19.568,0,0,0-2.487-6.689c-.951-1.587-1.595-3.358-2.394-5.04a4.571,4.571,0,0,0-.64-1.02c-1.038-1.2-2.087-2.387-3.161-3.554-1.044-1.136-2.139-2.227-3.185-3.363a25.405,25.405,0,0,1-1.651-1.988c-.424-.565-.6-1.345-1.425-1.54-.047-.011-.027-.218-.074-.319a8.038,8.038,0,0,0-.481-.953c-.881-1.391-.894-1.425-.5-2.878m-12.8,30.9a4,4,0,0,0-.117.656c.061,2.826.088,5.654.215,8.478a38.4,38.4,0,0,0,.491,4.051c.128.849.448,1.674.529,2.522a16.715,16.715,0,0,0,1.171,5.293c.292.655.661,1.277.924,1.943a10.728,10.728,0,0,0,7.567,6.511,16.365,16.365,0,0,0,6.493.55,38.49,38.49,0,0,0,7.732-1.433,11.093,11.093,0,0,0,4.94-3.292c.757-.876,1.46-1.8,2.152-2.729a21.79,21.79,0,0,0,3.278-5.972c.48-1.406.924-2.838,1.335-4.247.769-2.644,1.807-5.272,1.8-8.09,0-2.327-.061-4.655-.2-6.976-.136-2.222-.339-4.448-.639-6.655-.441-3.247-.995-6.482-1.507-9.722a10.015,10.015,0,0,0-4.924-6.967,8.614,8.614,0,0,1-1.574-1.08,23.657,23.657,0,0,0-2.9-2.161c-.085-.6-.168-1.178-.258-1.8.964-.422,1.059-1.386,1.308-2.246.379-1.314.7-2.644,1.078-3.958.606-2.1,1.329-4.162,1.832-6.282a11.627,11.627,0,0,0,.323-3.8,22.78,22.78,0,0,1,.058-5.677c.242-1.664.385-3.342.576-5.012.066-.574.172-1.146.209-1.722.043-.716-.034-1.442.058-2.148a11.3,11.3,0,0,0-1.97-8.058c-2.182.757-4.528-.343-6.7.624.409,1.572,1.434,2.854,1.369,4.469,0,.04.038.082.058.124a43.049,43.049,0,0,1,1.876,6.225,19.084,19.084,0,0,1,.4,5.553,36.645,36.645,0,0,1-.791,5.868,23.62,23.62,0,0,1-1.98,6.15c-1.028,2.065-2.213,4.055-3.394,6.036a12.377,12.377,0,0,1-1.73,2.25c-.719.746-1.58,1.353-2.354,2.049-.643.579-.666.929-.085,1.56,1.105,1.2,2.277,2.339,3.352,3.564a20.877,20.877,0,0,1,3.41,4.241c1.213,2.506,2.827,4.762,4.069,7.231a31.6,31.6,0,0,1,2.285,5.183,52.167,52.167,0,0,1,1.715,6.588,23.73,23.73,0,0,1-.337,9.184c-.6,2.574-1.322,5.121-1.993,7.679a10.962,10.962,0,0,1-.48,1.7,10.24,10.24,0,0,1-1.518,3.025c-1.067,1.165-2.014,2.437-3.549,3.057a2.1,2.1,0,0,0-.6.55,6.273,6.273,0,0,1-5.834,1.792,5.933,5.933,0,0,1-2.225-.94c-.971-.64-1.765-1.568-2.766-2.142a7.7,7.7,0,0,1-3.223-3.543,19.668,19.668,0,0,1-1.393-3.966,15.538,15.538,0,0,1-.825-4.553c.051-.682.162-1.361.175-2.042q.058-3.4.048-6.8a1.766,1.766,0,0,0-.286-.7Z" transform="translate(85.248 202.39)" fill="#002742"/>
    <path id="Path_11370" data-name="Path 11370" d="M315.291,16.048a50.47,50.47,0,0,0-.576,6.912c.282,5.51.64,11.029,1.327,16.5a92.778,92.778,0,0,1,.051,17.959c-.467,6.841-1.287,13.659-1.1,20.545.143,5.312,0,10.633.034,15.95.045,6.575.181,13.149.213,19.725.035,7.254.4,14.541-.172,21.752a42.16,42.16,0,0,0,.356,11.381c.061.323-.2.865-.051.988,2.331,1.924,1.07,4.812,1.949,7.056,1.338,3.416,1.441,7.14,3.228,10.492,1.083,2.033.789,4.775,1.267,7.167a9.4,9.4,0,0,0,1.218,2.572,18.658,18.658,0,0,1,2.708,7.167,14.337,14.337,0,0,0,1.824,4.589c1.089,2.155,1.975,4.56,3.573,6.28,4.477,4.825,9.864,7.454,16.72,5.619,10.455-2.8,16.449-9.619,18.411-20.135,1.3-7,2.676-13.983,3.779-21.012a22.382,22.382,0,0,0-.144-7.045c-1.41-8.409-4.709-16.229-7.8-24.114a38.619,38.619,0,0,1-1.192-5.587c-.286-1.256-.483-2.559-.788-3.791-.592-2.391-.231-5.091.106-7.612a7.264,7.264,0,0,1,3.164-5.45,77.344,77.344,0,0,1,8.454-4.245c1.11-.493,4.768,1.162,5.137,2.261a4.379,4.379,0,0,1-.162,2.551c-.95,2.9-2.137,5.734-3.016,8.658-1.1,3.668-.538,7.252.48,10.935,1.76,6.373,4.866,12.1,7.955,17.835a28.146,28.146,0,0,1,3,13.025,61.2,61.2,0,0,1-.409,10.408,76.181,76.181,0,0,1-5.566,20.452c-1.027,2.258-2.272,4.416-3.389,6.633-1.322,2.623-2.753,5.2-3.88,7.908-1.255,3.01-3.089,5.253-6.322,6.147a2.426,2.426,0,0,0-.964.314c-3.329,3.029-7.774,3.586-11.727,5.179-2.107.85-4.56.916-6.877,1.158-4.385.459-8.772.687-12.945-1.227-.3-.14-.728-.079-.972-.27-4.695-3.665-10.238-6.315-13.641-11.536a4.97,4.97,0,0,0-2.365-1.746c-2.389-.863-3.536-2.683-4.205-4.921-1.449-4.85-2.973-9.681-4.239-14.58-1.694-6.557-3.212-13.16-4.706-19.766a10.383,10.383,0,0,1-.038-3.74c.395-2.627-.258-5.093-.812-7.6A44.993,44.993,0,0,1,301,141.148c-.44-6.739-.785-13.487-1-20.237-.254-8.154-.382-16.313-.473-24.47-.069-6.235-.032-12.473.032-18.708.019-1.921.3-3.835.427-5.755.443-6.718-.8-13.336-1.207-20a14.516,14.516,0,0,1-.061-2.373c.934-8.908,1.072-17.847,1.409-26.787.265-7.073.788-14.264,3.929-20.886,1.036-2.184,1.2-2.32,3.432-1.359a2.208,2.208,0,0,0,.61.274c4.47.369,5.712,3.517,6.222,7.254.367,2.692.659,5.4.967,7.952" transform="translate(180.552 15)" fill="#002742"/>
    <path id="Path_11371" data-name="Path 11371" d="M118.384,361.331c1.879-.629,13.58.314,16.63,1.3a2.745,2.745,0,0,1,.051,2.3,24.225,24.225,0,0,0-1.312,6.272,19.417,19.417,0,0,0,1.356,7.91c1.168,2.765,3.475,4.586,7.13,3.474,1.221-.371,2.447-.73,3.681-1.056,3.377-.889,5.3-3.207,6.57-6.333a16.861,16.861,0,0,0,1.109-6.952,7.377,7.377,0,0,0-1.343-3.65c-1.3-2.089-2.736-4.09-4.069-6.156-.462-.717-.74-1.55-1.181-2.283-1.1-1.834-2.3-3.612-3.358-5.468-.924-1.617-1.754-3.292-2.554-4.975a28.057,28.057,0,0,1-1.338-3.385,7.218,7.218,0,0,1-.1-1.667c-.156-2.248-.385-4.494-.454-6.745-.042-1.335.239-2.153,1.858-2.026.573.045,1.139.2,1.712.223.947.047,1.9.042,2.845.042,1.394,0,2.792.019,4.183-.053a4.711,4.711,0,0,0,1.258-.493,1.4,1.4,0,0,1,1.978.611.815.815,0,0,1,.148.494c-.505,2.054-.16,4.128-.116,6.187a13.546,13.546,0,0,0,1.537,5.051c.546,1.243,1.168,2.455,1.8,3.661.176.339.57.571.727.915a26.322,26.322,0,0,0,4.478,6.105,22.257,22.257,0,0,1,2.734,3.56,14.788,14.788,0,0,1,1.577,3.7,49.454,49.454,0,0,1,.964,5.9,18.258,18.258,0,0,1-.52,5.906c-.193.934-.4,1.866-.659,2.782a20.511,20.511,0,0,1-2.667,6.063,2.268,2.268,0,0,0-.237.335c-.836,1.888-2.479,3.092-3.848,4.525a20.753,20.753,0,0,1-4.82,3.557,22.827,22.827,0,0,1-5.59,2.11,31.317,31.317,0,0,1-5.929.871c-1.983.136-3.968.438-5.964.409a17.852,17.852,0,0,1-10.447-3.02c-.627-.446-1.277-.863-1.929-1.271a7.742,7.742,0,0,1-3.41-5.144,11.183,11.183,0,0,0-.948-2.256,7.394,7.394,0,0,1-.659-3.434,38.661,38.661,0,0,0-.34-3.926c-.1-1.13-.228-2.261-.249-3.393-.027-1.458.09-2.92.056-4.379-.037-1.587-.18-3.172-.271-4.759-.029-.493-.047-.984-.067-1.442" transform="translate(71.561 200.35)" fill="#002742"/>
    <path id="Path_11372" data-name="Path 11372" d="M333,376.893a12.183,12.183,0,0,0,.879,1.63,28.278,28.278,0,0,1,5.163,12.136c.586,3.422,1.3,6.835,1.651,10.278a47.478,47.478,0,0,1-.212,6.484,8.637,8.637,0,0,0,.021,2.116,21.96,21.96,0,0,1,.083,6.484c-.122,1.54-.217,3.092-.488,4.613-.562,3.148-1.043,6.325-1.913,9.4-.852,3.021-1.826,6.054-4.1,8.545-.688.754-.874,1.845-1.919,2.415-1.4.764-2.75,1.606-4.1,2.439a11.6,11.6,0,0,1-4.359,1.579,15.637,15.637,0,0,1-4.085.257c-1.409-.144-2.858.063-4.287.059a5.484,5.484,0,0,1-2.014-.236c-1.345-.557-2.731-1.077-4.077-1.585a19.676,19.676,0,0,1-6.647-4.764c-1.234-1.194-2.973-2.086-3.564-3.867-.547-1.651-1.237-3.267-1.935-4.873a29.847,29.847,0,0,1-1.839-7.751,22.688,22.688,0,0,1,1.179-10.91c1.2-3.389,2.609-6.721,4.091-10.015a47.005,47.005,0,0,1,2.611-4.215c.387-.661.759-1.231,1.669-1.242a2.165,2.165,0,0,1,1.848,1.329,4.657,4.657,0,0,1,.531,4.51c-.618,1.4-1.006,2.895-1.611,4.3a22.8,22.8,0,0,1-1.43,2.41,28.8,28.8,0,0,0-3.644,9.436,5.49,5.49,0,0,1-.25,1.277c-1.024,2.254-.743,4.553-.274,6.841a18.255,18.255,0,0,0,1.162,4.079,29.566,29.566,0,0,0,2.615,4.2c.788,1.134,1.678,2.211,2.567,3.281a9.093,9.093,0,0,0,3.687,2.381,29.782,29.782,0,0,0,5.422,1.792,6.832,6.832,0,0,0,2.556.39c2.59-.558,5.3-.449,7.793-1.709a9.5,9.5,0,0,0,3.934-3.355c1.229-1.957,2.9-3.738,3.363-6.052a46.741,46.741,0,0,0,.852-5.131,67.367,67.367,0,0,0,.388-8.116c-.1-2.87.188-5.725.107-8.586-.085-3.093-.233-6.185-.4-9.276-.183-3.241-.281-6.493-.688-9.712-.345-2.726-.4-5.531-1.616-8.109-1.051-.286-2.193-.263-3.045-1.038-.112-.1-.555.151-.847.156-1.367.021-4.247-1.887-4.562-3.191a1.977,1.977,0,0,1,.69-1.534,8.8,8.8,0,0,1,2.16-1.388c1.285-.624,2.643-1.122,3.937-1.731a20.414,20.414,0,0,0,1.9-1.141,13.683,13.683,0,0,0,2.694-1.725,11.676,11.676,0,0,0,1.879-2.888,24.3,24.3,0,0,0,2.447-13.163,27.541,27.541,0,0,0-1.5-6.5,10.94,10.94,0,0,0-2.014-2.784,18.462,18.462,0,0,1-1.356-1.659,3.091,3.091,0,0,0-1.93-1.54c-.212-.056-.52-.1-.6-.239-.568-.976-1.569-1.045-2.578-1.115a19.388,19.388,0,0,0-4.186-.229c-2.136.331-4.359.576-6.094,2.1-1.1.961-2.432,1.688-3.609,2.577a2.84,2.84,0,0,0-1.409,2.142.833.833,0,0,1-.226.606c-1.309.929-.833,2.235-.977,3.448-.321,2.7.9,4.818,2.559,6.878A9.151,9.151,0,0,1,316.57,361a2.663,2.663,0,0,1-.751,3.008,20.911,20.911,0,0,0-1.656,1.9c-1.519-.748-3-1.422-4.414-2.208a2.18,2.18,0,0,1-.8-1.171c-.608-1.746-1.093-3.528-1.725-5.268a13.009,13.009,0,0,1,.042-9.07,26.9,26.9,0,0,1,4.444-8.024,7.7,7.7,0,0,1,3.92-2.63,44.318,44.318,0,0,1,7.982-1.815c1.839-.149,3.936-.31,5.73.939a20.061,20.061,0,0,0,3.9,1.768,11.923,11.923,0,0,1,6.044,5.661,44.3,44.3,0,0,1,2.333,5.415c1.346,3.539,1.036,7.05.586,10.612a33.79,33.79,0,0,1-3.427,10.163,2.992,2.992,0,0,1-.488.677c-1.693,1.908-3.392,3.811-5.29,5.94" transform="translate(178.341 202.875)" fill="#002742"/>
    <path id="Path_11373" data-name="Path 11373" d="M339.517,386.406c-2.152.1-4.31-.135-6.458.159a22.107,22.107,0,0,1-3.772-.014c-.647-.024-1.338-1.088-1.47-2.163-.35-2.843-.777-5.68-1.014-8.533-.165-1.969-.066-3.958-.09-5.938-.019-1.632-.151-3.27-.048-4.894.173-2.744.635-5.474.7-8.216a25.174,25.174,0,0,1,1.057-6.744,43.538,43.538,0,0,1,2.083-6.135,13.98,13.98,0,0,1,2.827-3.535,32.549,32.549,0,0,1,13.8-8.244c1.826-.57,3.564-1.422,5.385-2.007a7.883,7.883,0,0,1,2.749-.306,23.642,23.642,0,0,1,6.574,1.658c2.8.972,5,2.785,7.357,4.38a10.585,10.585,0,0,1,2.72,3.153c1.561,2.456,3.2,4.876,3.716,7.872.667,3.864,1.6,7.682,2.275,11.544a41.231,41.231,0,0,1,.422,10.474c-.262,3.249-.432,6.508-.61,9.763a13.2,13.2,0,0,0,.144,1.733c.109,1.434-.783,2.665-.82,4.091-.018.629-.738.736-1.263.647a28.33,28.33,0,0,0-7.461-.022,28.8,28.8,0,0,1-4.81-.371,2.252,2.252,0,0,0-.972.111,1.8,1.8,0,0,1-2.614-1.677c.13-2.266.51-4.518.825-6.771.218-1.563.579-3.108.749-4.674.534-4.9.969-9.8.172-14.718a12,12,0,0,0-1.632-4.781,7.711,7.711,0,0,0-2.514-2.007c-1.144-.693-2.407-1.192-3.583-1.839-1.664-.916-3.081-.234-4.5.59-.829.485-1.693.916-2.482,1.458-.708.486-1.439.958-1.521,2.01a8.081,8.081,0,0,1-.623,2.007,21.952,21.952,0,0,0-.881,8.433c.064,1.7-.083,3.419.056,5.115a32.021,32.021,0,0,0,.812,5c.557,2.266,1.226,4.507,1.969,6.72.491,1.473.207,4.783-.7,5.645a1.976,1.976,0,0,1-1.009.584c-1.847.188-3.7.3-5.551.438m.82-6.532c-.359-1.669-.563-3.052-.961-4.379a29.664,29.664,0,0,1-1.471-11.918,40.243,40.243,0,0,1,1.484-7.549c.382-1.231.637-2.5,1.02-3.729a32.444,32.444,0,0,1,1.508-4.3,10.77,10.77,0,0,1,4.611-4.927c3.406-1.89,6.9-1.152,10.383-.477a10.158,10.158,0,0,1,4.553,2.495c1.712,1.465,3.336,3,3.642,5.418a6.786,6.786,0,0,0,.262,1.024,20.517,20.517,0,0,1,.5,10.565,6.95,6.95,0,0,0-.058,1.022c-.162,2.253-.223,4.518-.52,6.753-.361,2.713-1.173,5.364-1.073,8.144.063,1.728.3,2.176,1.974,2.275a60.178,60.178,0,0,0,6.654.008c1.306-.067,1.778-.706,1.949-2.026.271-2.07.058-4.188.616-6.232a1.6,1.6,0,0,0,0-.351,57.311,57.311,0,0,0-.366-11.43,60.463,60.463,0,0,0-1.348-6.7c-.892-3.092-2.023-6.116-3.069-9.163a9.4,9.4,0,0,0-.616-1.258,14.809,14.809,0,0,0-4.114-4.448,14.384,14.384,0,0,0-9.375-3.3,6.851,6.851,0,0,1-1.733-.14,2.341,2.341,0,0,0-2.325.3c-.234.194-.669.128-.995.236-1.43.472-2.872.915-4.273,1.458-2.272.883-3.75,2.808-5.558,4.3-1.313,1.086-2.118,2.694-3.791,3.421a3.257,3.257,0,0,0-1.489,1.572c-.868,1.951-2.137,3.692-2.732,5.8a40.516,40.516,0,0,0-1.463,7.642,73.42,73.42,0,0,0,.141,13.091,4.342,4.342,0,0,1-.043,1.391,6.047,6.047,0,0,0,.992,5.413Z" transform="translate(197.439 199.372)" fill="#002742"/>
    <path id="Path_11374" data-name="Path 11374" d="M182.756,356.883c.141,1.4.236,2.8.433,4.193.292,2.063.61,4.123,1,6.171a21.054,21.054,0,0,0,2,6.314c.743,1.356,1.351,2.785,2.036,4.173a1.19,1.19,0,0,1-.5,1.734,5.013,5.013,0,0,0-1.617,1.165,2.035,2.035,0,0,1-1.34.449,44.815,44.815,0,0,0-8.342,1.426,19.659,19.659,0,0,1-2.572.47,1.331,1.331,0,0,1-1.442-1.008,25.093,25.093,0,0,1-.987-3.333c-.281-1.37-.448-2.766-.6-4.157-.282-2.511-.568-5.024-.759-7.543-.135-1.787-.183-3.588-.151-5.378.047-2.607.25-5.213.29-7.82a13.054,13.054,0,0,1,2.222-7.883c.892-1.213,1.714-2.479,2.612-3.689a4.234,4.234,0,0,1,1-.82,12.7,12.7,0,0,1,5.608-2.639,5.758,5.758,0,0,0,1.9-.7,8.751,8.751,0,0,1,4.83-.656c1.556.079,3.116.107,4.674.143a14.859,14.859,0,0,1,4.907.794,19.732,19.732,0,0,1,5.457,3.273c1.017.817,1.983,1.7,2.968,2.561a9.767,9.767,0,0,1,2.169,3.708c.534,1.2.984,2.44,1.426,3.679a11.662,11.662,0,0,1,.761,4.152,17.053,17.053,0,0,0,.273,2.6c.321,2.318-.189,4.651.1,6.967a34.834,34.834,0,0,1-.229,7.14,21.569,21.569,0,0,0,.3,4.225c.176,1.46-.106,1.949-1.5,2.038-2.264.146-4.533.209-6.795.364-.921.063-1.832.282-2.748.419a8.407,8.407,0,0,1-1.45.154c-1-.03-1.1-.3-1.256-1.343-.33-2.214.566-4.321.456-6.5-.064-1.3-.185-2.6-.223-3.9-.053-1.8-.056-3.61-.075-5.415-.029-2.519.1-5.052-.143-7.549a8.326,8.326,0,0,0-.984-3.576,6.644,6.644,0,0,0-4.412-3.239c-2.75-.5-4.645.9-6.559,2.381a7.121,7.121,0,0,0-2.744,6.457m-.2,20.643a5.57,5.57,0,0,0-.109-1.163c-.473-1.373-1.08-2.71-1.462-4.107a53.1,53.1,0,0,1-1.171-5.407c-.2-1.234-.176-2.5-.27-3.758-.043-.573-.188-1.146-.177-1.715.021-.995.117-1.988.2-2.981a30.793,30.793,0,0,1,.359-3.7,18.2,18.2,0,0,1,2.5-6.314,3.969,3.969,0,0,1,1.333-1.319,11.347,11.347,0,0,1,6.355-1.718,30.682,30.682,0,0,1,3.726.4,8.057,8.057,0,0,1,5.847,4.592,34.305,34.305,0,0,1,2.888,9c.237,1.332.366,2.686.485,4.035.067.778-.006,1.568.022,2.351a29.172,29.172,0,0,1-.255,6.389,27.383,27.383,0,0,0-.228,3.28h4.709c.14-.926.3-1.736.375-2.553a27.191,27.191,0,0,0,.324-5.081c-.247-2.408.09-4.841-.565-7.246-.446-1.641-.217-3.459-.594-5.129a23.381,23.381,0,0,0-3.127-7.825,14.428,14.428,0,0,0-4.313-4.679,10.753,10.753,0,0,0-3.565-1.829c-1.288-.246-2.6-.366-3.88-.653a17.807,17.807,0,0,0-6.235.16,4.857,4.857,0,0,0-1.733.74,32.406,32.406,0,0,0-3.936,2.479c-1.237.995-2.651,1.831-3.5,3.267a29.316,29.316,0,0,0-2.517,5.877,9.161,9.161,0,0,0-.462,2.551c-.055,1.739-.043,3.487.051,5.224a63.575,63.575,0,0,0,.838,8.578c.35,1.816.632,3.647,1.067,5.442a26.99,26.99,0,0,0,1.158,3.116c2.028-.107,3.9-.207,5.861-.31" transform="translate(102.704 203.891)" fill="#002742"/>
    <path id="Path_11375" data-name="Path 11375" d="M292.54,301.9c.65-7.323,1.277-14.557,1.946-21.79a34.675,34.675,0,0,0,.582-4.035c-.141-4.855,1.1-9.593.7-14.521-.444-5.553.257-11.188.119-16.78a74.533,74.533,0,0,0-1.1-12.3c-.921-4.778-1.714-9.574-1.133-14.57a78.38,78.38,0,0,0,.055-13.093,30.7,30.7,0,0,0-1.489-6.607c-.948-3.347-.3-6.647.183-9.933a55.742,55.742,0,0,1,2.076-10.354c.683-1.961,1.665-2.882,3.531-2.105a8.836,8.836,0,0,1,3.854,2.824,13.573,13.573,0,0,1,2.389,7.681c.048,7.156.366,14.312.629,21.466.12,3.254.457,6.5.518,9.755a36.161,36.161,0,0,1-.565,4.5c-.6,5.5-1.1,11.008-1.778,16.5-.512,4.132-1.394,8.221-1.834,12.359-.46,4.326-.693,8.682-.831,13.03-.136,4.257-.157,8.526,0,12.78.215,5.8.656,11.581.982,17.37.284,5.051.539,10.1.813,15.154a89.6,89.6,0,0,0,2.285,17.373c.777,3.048,1.322,6.16,2.182,9.182a10.267,10.267,0,0,0,1.957,3.528c1.55,1.9,3.3,3.639,4.961,5.442.785.85,1.608,1.665,2.355,2.546,2.607,3.066,6.18,4.6,9.685,6.3a30.417,30.417,0,0,0,10.115,2.627c2.662.3,5.3,1.045,8.022.53a138.494,138.494,0,0,0,21.041-5.556c4.212-1.508,8.415-3,12.146-5.47,5.484-3.626,10.577-7.793,14.235-13.322,1.582-2.389,2.29-5.341,3.573-7.949,1.637-3.326,1.064-6.455.212-9.922-.924-3.763-2.636-7.081-4.172-10.527a8.956,8.956,0,0,0-1.157-1.831q-4.505-5.721-9.051-11.411c-.9-1.134-1.829-2.251-2.732-3.387-1.335-1.677-2.915-3.151-3.06-5.572-.066-1.107-.907-2.155-1.335-3.254a5.428,5.428,0,0,1,2.07-6.2c1.351-.939,3.666-.266,5.438,1.088,2.5,1.913,2.569,4.666,2.944,7.316.231,1.63.136,3.305.242,4.956a3.33,3.33,0,0,0,.395,1.839,48.869,48.869,0,0,1,3.986,4.958c.915,1.362,2.214,2.566,3.275,3.963,2.286,3.012,3.9,6.413,6.062,9.482a13.5,13.5,0,0,1,1.736,4.469,35.851,35.851,0,0,1,.921,5.627,32.221,32.221,0,0,1-4.205,19.22c-1.742,3.021-4.273,5.6-6.519,8.314-4.411,5.338-10.387,8.526-16.332,11.742-3.1,1.678-6.224,3.328-9.335,4.992-.08.043-.152.122-.236.136-5.8.99-10.763,4.695-16.841,4.948a50.822,50.822,0,0,1-14.694-1.8,32.89,32.89,0,0,1-11.527-5.292,20.9,20.9,0,0,0-3.369-1.759,26.72,26.72,0,0,1-10.927-9.083c-4.274-6.266-8.026-12.751-9.973-20.12-.9-3.406-1.452-6.907-2.1-10.378-.331-1.781-.539-3.588-.764-5.388-.4-3.233-.78-6.469-1.163-9.685" transform="translate(176.346 106.11)" fill="#002742"/>
    <path id="Path_11376" data-name="Path 11376" d="M333.337,350.065c-1.991-.778-26.352-2.365-29.858-2.259a61.466,61.466,0,0,1-9.954-.592c-.947-.127-4.468-1.5-5.868-.86-1.563-1.887-1.561-11.793-1.356-14.744.619-8.95.841-17.922,1.141-26.888a54.048,54.048,0,0,0-2.057-18.289c-.882-2.8-4.672-17.773-6.179-22.339-2.623-7.955-7.721-14.857-13.68-21.169-3.4-3.6-8.622-4.81-13.667-5.659a63.048,63.048,0,0,0-23,.578,31.874,31.874,0,0,0-19.632,11.952c-5.138,6.9-5.036,34.1-4.711,39.393.379,6.153.863,12.306,1.513,18.444.239,2.248,2.787,9.829,2.983,11.445q1.081,8.941,1.88,17.906c.481,5.365-5.391,10.636-11.381,9.824-6.728-.911-13.21-.254-19.878.509a104.416,104.416,0,0,0-13.916,2.5c-2.131.541-10.62-3.674-10.736-6.79-.066-1.765-.958-3.493-1.218-5.268-.513-3.5-.579-7.055-1.309-10.511-1.54-7.281-3.758-14.466-4.972-21.782-.732-4.4-.31-8.985-.027-13.468.4-6.331,2.232-21.378,2.5-22.58.765-3.45,1.6-6.888,2.306-10.346,1.866-9.125,2.436-15.575,8.619-26.615,6.405-8.974,11.348-9.616,15.5-13.454,3.692-3.416,8.022-4.829,12.685-6.557,7-2.594,14.458-3.923,21.344-6.6,5.741-2.227,11.79-2.275,17.744-3.108,1.223-.17,15.467-2.043,21.462-1.72,4.4.237,8.8.563,13.2.8,2.671.14,18.07,3.9,21.332,4.515,6.387,1.2,11.313,4.756,16.693,7.594A50.1,50.1,0,0,1,319.408,230.4c3.535,5.3,6.132,11.119,8.724,16.854,4.038,8.932,4.46,18.545,6.211,27.9a125.684,125.684,0,0,1,2.275,14.671c.658,9.9.871,19.83,1.26,29.749.194,4.932-.064,9.921.712,14.78.489,3.063.677,11.666-.345,12.565a39.822,39.822,0,0,1-4.908,3.15" transform="translate(88.906 121.49)" fill="#002742"/>
    <path id="Path_11377" data-name="Path 11377" d="M80.731,153.3c.48,5.474,2.326,10.681,1.043,16.346a96.046,96.046,0,0,0-2.525,26.484c.348,6.423,1.227,12.821,1.454,19.246a199.941,199.941,0,0,1-.124,20.712c-.512,7.454-.939,14.87-.067,22.3.537,4.6,1.117,9.194,1.9,13.754.372,2.184-.194,4.711,2,6.58,2.744-.682,5.627-1.25,8.417-2.118,7.316-2.274,14.822-1.848,22.281-1.577,7.337.266,14.675.809,21.983,1.518,11.021,1.069,21.739,3.385,30.435,10.822,6.2,5.3,11.666,11.353,13.5,19.682a39.433,39.433,0,0,1,.281,14.894c-.494,3.047-.783,6.127-1.179,9.19-1.033,7.979-3.827,15.268-9.123,21.368-2.256,2.6-5.45,4.395-7.637,7.037a59.43,59.43,0,0,1-15.47,13.234c-5.574,3.3-10.553,7.918-17.2,9.259-2.516.507-5.041,1.04-7.589,1.3-3.844.387-7.721.456-11.568.817-5.685.533-10.962-1.393-16.332-2.628a41.283,41.283,0,0,1-23.775-14.867c-3.36-4.225-7.52-7.787-10.147-12.634a94.1,94.1,0,0,1-7.795-19.305,155.364,155.364,0,0,1-3.8-15.329c-.926-5.279-1.311-10.667-1.706-16.022a122.723,122.723,0,0,0-1.757-13.649,65.917,65.917,0,0,1-.855-11.889c-.016-6.177.112-12.366.5-18.53.488-7.838,1.317-15.653,1.937-23.483.183-2.31.091-4.642.226-6.957.443-7.589,1.056-15.169,1.353-22.763.148-3.8-.29-7.624-.375-11.44-.051-2.293.167-4.594.1-6.886-.3-9.86-.669-19.716-1-29.575a5.677,5.677,0,0,1,4.388-5.089,34.2,34.2,0,0,1,9.184-.441c5.094.6,10.294.331,15.448.441,1.022.022,2.042.111,3.605.2m-5.452,6.29a27.524,27.524,0,0,0-11.316.311c-3.185.643-3.333.884-3.426,3.981-.244,7.992-.316,16-.833,23.969-.465,7.188-1.41,14.347-2.176,21.514-.685,6.4-2.206,12.685-1.969,19.228a77.648,77.648,0,0,1-1.088,12.627c-.693,5.361-2.009,10.668-2.343,16.042-.467,7.475-.286,14.991-.351,22.488-.037,4.138.388,8.327-.112,12.406-.637,5.187.526,10.076,2.01,14.787,2.2,6.988,3.724,14.107,5.381,21.213a137.29,137.29,0,0,0,3.634,13.8c1.683,4.849,4.119,9.433,5.935,14.241a19.973,19.973,0,0,0,5.107,7.642,110.619,110.619,0,0,0,10.012,8.452c7.961,5.832,17.277,7.349,26.785,7.037,8.112-.265,15.491-3.655,22.543-7.491,4.757-2.59,9.426-5.369,13.965-8.326a52.64,52.64,0,0,0,8.157-6.448c5.489-5.393,8.9-12.26,12.274-19.016,3.928-7.854,6.61-16.21,6.8-25.1.083-3.989-.523-7.977-3.573-11.1a36.649,36.649,0,0,1-3.19-3.83c-4.107-5.552-10.118-7.775-16.468-9.168a94.4,94.4,0,0,0-12.6-1.8c-10.065-.812-19.977-4.037-30.232-2.01-.124.024-.262-.014-.387.008-5.154.926-10.437,1.045-15.377,3.243a21.457,21.457,0,0,0-8.159,6.607c-1.561,1.978-2.617,4.345-4.016,6.461-1,1.508-2.357,3.488-4.193,2.721-1.55-.647-2.578-2.649-3.692-4.159-.318-.428-.152-1.231-.168-1.863-.082-3.2-.13-6.41-.226-9.614-.144-4.735-.359-9.468-.46-14.2-.045-2.015-.419-4.268.329-5.99.886-2.041.576-4,.821-5.986.152-1.242-.056-2.525.09-3.769,1-8.549,2.423-17.067,2.988-25.643.858-13.025-.143-26.044-1.417-39.019a81.436,81.436,0,0,1-.119-17.683c.626-5.279.7-10.623,1.064-16.568" transform="translate(27.425 92.188)" fill="#002742"/>
    <path id="Path_11378" data-name="Path 11378" d="M257.468,382.256a3.874,3.874,0,0,1-3.422.586,45.727,45.727,0,0,0-8.791-.138,11.82,11.82,0,0,1-1.316-.082,3.626,3.626,0,0,1,.2-2.959c.717-1.7,1.316-3.443,2.012-5.149.313-.765.788-1.462,1.114-2.222.728-1.7,1.492-3.387,2.089-5.133a12.177,12.177,0,0,0,.586-5.754q-.267-1.8-.645-3.58a3.546,3.546,0,0,0-1.34-2.2,1.921,1.921,0,0,1-.6-.635c-.969-1.961-2.679-2.429-4.651-2.29-2.129.149-4.253.375-6.381.565-.146.013-.3,0-.44.018-1.8.226-2.142.629-2.084,2.434a66.731,66.731,0,0,0,.425,8.748,6.556,6.556,0,0,1-.306,2,26.089,26.089,0,0,1-3.055,7.992,5.535,5.535,0,0,1-2.591,2.864c-.765.322-1.28,1.2-2.02,1.632a43.2,43.2,0,0,1-5.754,3.074,10.843,10.843,0,0,1-3.88.339,27.776,27.776,0,0,1-4.213-.26,18.217,18.217,0,0,1-7.162-2.386,11.761,11.761,0,0,1-3.286-3.649,32.485,32.485,0,0,1-3.039-6.732,20.963,20.963,0,0,1-1.2-7.458,61.843,61.843,0,0,1,.193-7.732c.116-.963.311-1.914.422-2.877a16.634,16.634,0,0,1,.127-1.993,12.7,12.7,0,0,1,.882-2.286c.367-.789.817-1.539,1.221-2.31a5.1,5.1,0,0,1,.22-.542,21.38,21.38,0,0,1,2.253-3.127,10.563,10.563,0,0,1,3.912-2.928,22.884,22.884,0,0,0,3.2-1.364,6.516,6.516,0,0,1,3.424-.546,26.475,26.475,0,0,1,5.827.412,1.179,1.179,0,0,0,.425.1c2.655-.379,4.7,1.365,7.034,2.076a8.32,8.32,0,0,1,2.691,1.709,1.545,1.545,0,0,0,1.606.35c3.424-1.13,7.063-.923,10.527-1.706,2.593-.584,5.065-.014,7.528.419,1.219.215,2.307,1.2,3.442,1.863.379.221.693.557,1.077.762a8.973,8.973,0,0,1,4.112,5.3c.5,1.407,1.2,2.75,1.616,4.178a12.13,12.13,0,0,1,.765,5.069c-.241,1.811-.279,3.653-.375,5.483-.093,1.738-.125,3.477-.221,5.215a31.328,31.328,0,0,1-.984,5.714,35.809,35.809,0,0,0-.594,4.045c-.213,1.718-.4,3.44-.584,5.093M201,357.96c.136,2.253.221,4.449.42,6.635a14.388,14.388,0,0,0,.7,3.982,46.178,46.178,0,0,0,2.769,5.314,2.8,2.8,0,0,0,1.046.995,60.154,60.154,0,0,0,8.855,4.5,8.632,8.632,0,0,0,5.449.082c2.043-.587,3.673-1.99,5.37-3.215a3.039,3.039,0,0,0,.773-1.011,31.062,31.062,0,0,0,3.546-8.181,24.056,24.056,0,0,0,.517-8.621c-.091-.658-.128-1.324-.176-1.986-.074-1.009-.066-2.031-.22-3.029-.191-1.237-.231-1.285.945-1.619a58.574,58.574,0,0,1,9.163-1.9,10.775,10.775,0,0,1,8.6,2.272,3.356,3.356,0,0,0,.486.329,5.556,5.556,0,0,1,2.689,4.168,36.7,36.7,0,0,1,.557,7.414c-.075,1.715-.714,3.291-.911,4.958-.287,2.429-1.439,4.534-2.426,6.7-.448.985-.992,1.927-1.441,2.912a11.479,11.479,0,0,0-.454,1.51,28.869,28.869,0,0,0,8.162.6c.29-1.128.65-2.238.852-3.376.509-2.877,1.04-5.757,1.385-8.656.276-2.312.847-4.6.611-6.97a54.177,54.177,0,0,1-.443-6.516,16.7,16.7,0,0,0-2.068-7.831c-2.224-4.542-7.268-6.432-11.6-6.184q-1.608.091-3.207.284c-1.21.146-2.418.313-3.617.528a27.376,27.376,0,0,0-7.185,2.444c-1.6.78-2.283.663-3.186-.886a9.667,9.667,0,0,0-4.08-3.39,4.519,4.519,0,0,0-1.657-.457c-2.952-.34-5.823.388-8.716.769a8.735,8.735,0,0,0-3.063.857,9.951,9.951,0,0,0-3.83,3.53,36.317,36.317,0,0,0-2,3.9c-.961,2.18-2.046,4.329-2.254,6.769-.066.775-.289,1.561.783,2.126L201,357.96" transform="translate(119.501 203.198)" fill="#002742"/>
    <path id="Path_11379" data-name="Path 11379" d="M279.812,356.062c1.637-.058,3.275-.167,4.911-.157a24.231,24.231,0,0,1,3.4.3c.791.117,1.426,1.386,1.258,2.4-.436,2.612-.91,5.218-1.345,7.831a23.319,23.319,0,0,0,.165,9.123c.762,3.326,3.369,4.369,6.375,4.1a13.016,13.016,0,0,0,4.062-.854,11.992,11.992,0,0,0,3.644-2.543,7.269,7.269,0,0,0,1.863-4.367,5.957,5.957,0,0,0-1.16-4.329c-.594-.839-.61-2.067-.99-3.081-.523-1.389-1.134-2.749-1.726-4.112q-.462-1.061-.99-2.094c-1.152-2.246-2.439-4.433-3.437-6.745a27.659,27.659,0,0,1-1.282-4.772c-.419-1.816-.761-3.65-1.136-5.474a1.572,1.572,0,0,1-.109-.454c.35-3.068-.374-6.067-.554-9.1-.082-1.393.549-2.006,1.913-1.946a39.14,39.14,0,0,0,8.8-.236c1.527-.279,2.166.706,1.694,2.155a20.272,20.272,0,0,0-.875,3.61,13.921,13.921,0,0,0,1.038,7.772,14.648,14.648,0,0,0,1.853,3.018,13.712,13.712,0,0,1,1.654,2.412,18.406,18.406,0,0,0,1.742,2.168,27.484,27.484,0,0,1,3.106,6.386,21.6,21.6,0,0,1,1.576,4.682c.377,2.768,1.237,5.5.829,8.356a3.786,3.786,0,0,0-.046,1.091c.542,3.419-.942,6.431-1.961,9.519a4.4,4.4,0,0,1-1.722,2.142c-1.338.958-2.492,2.171-3.775,3.212a23.1,23.1,0,0,1-5.255,3.148,21.954,21.954,0,0,1-4.924,1.163,10.721,10.721,0,0,0-1.162.348c-.141.045-.311.2-.406.156-1.715-.738-3.6-.353-5.362-.842-1.789-.5-3.626-.822-5.43-1.271a4.228,4.228,0,0,1-1.187-.621c-1.475-.945-3.2-1.67-4.334-2.928a21.586,21.586,0,0,1-2.856-4.963c-.632-1.279-1.4-2.574-1.043-4.128a.565.565,0,0,0-.156-.419c-1.327-1.454-.98-3.257-1.069-4.974-.088-1.765-.238-3.528-.3-5.293-.069-1.876-.124-3.753-.077-5.629a16.539,16.539,0,0,1,.444-2.922,1.2,1.2,0,0,1,1.365-1.009c.987.032,1.975.008,2.964.008,0,.059,0,.117,0,.177m2.7,4.764c-.571-.095-.983-.128-1.375-.234-2.017-.546-2.384-.592-3.113,1.949a3.953,3.953,0,0,0-.08,1.24c.09,2.025.274,4.046.287,6.071a19.432,19.432,0,0,0,1.467,7.438c1.144,2.729,2.128,5.614,5.02,7.174a12.8,12.8,0,0,0,3.358,1.576c2.225.473,4.43,1.1,6.676,1.407a13.634,13.634,0,0,0,4.651-.082,15.868,15.868,0,0,0,7.839-3.865,13.728,13.728,0,0,0,3.718-5.5,30.638,30.638,0,0,0,1.608-9.8,33.371,33.371,0,0,0-.594-5.086,21.384,21.384,0,0,0-.934-4.558,12.373,12.373,0,0,0-3.172-4.99c-.164-.143-.175-.449-.281-.669a3.545,3.545,0,0,0-.432-.762c-.809-.942-1.678-1.832-2.455-2.8a14.922,14.922,0,0,1-3.485-6.649c-.326-1.836-.571-3.685-.825-5.534-.167-1.224-.282-2.455-.436-3.828l-3.243.172a13.133,13.133,0,0,0-.4,7.206c.5,2.959,1.327,5.863,2.065,8.776a9.315,9.315,0,0,0,.878,2.161c1.3,2.363,2.577,4.741,3.993,7.032a26.83,26.83,0,0,1,3.491,8.443,14.507,14.507,0,0,1,.079,6.776,6.26,6.26,0,0,1-.992,2.233,47.966,47.966,0,0,1-4.709,4.744,10.015,10.015,0,0,1-5.5,2.521,9.648,9.648,0,0,1-5.239-.664,7.732,7.732,0,0,1-5.126-5.983,5.992,5.992,0,0,0-.478-1.641,15.953,15.953,0,0,1-1.475-5.049,20.513,20.513,0,0,1-.505-5.223,25.213,25.213,0,0,0-.292-4" transform="translate(166.244 199.17)" fill="#002742"/>
    <path id="Path_11380" data-name="Path 11380" d="M91.12,321.983c1.362.135,2.575.245,3.787.379,1.406.154,2.806.342,4.212.491,1.234.13,1.552.53,1.3,1.8a82.039,82.039,0,0,0-.979,11.161c-.13,2.23-.356,4.454-.481,6.686-.144,2.6-.31,5.2-.31,7.793,0,1.85.3,3.7.395,5.551.114,2.277.149,4.557.22,6.835.067,2.136.1,4.273.218,6.405.119,2.084.419,4.159.478,6.243a16.134,16.134,0,0,0,.568,4.565,15.843,15.843,0,0,0,2.62,5.515,6.89,6.89,0,0,0,2.415,1.7,16.738,16.738,0,0,0,6.4,1.308,7.86,7.86,0,0,0,4.8-1.261c.94-.637,1.929-1.213,2.8-1.93a3.531,3.531,0,0,0,1.086-1.544,17.4,17.4,0,0,0,1.173-5.434,11.846,11.846,0,0,1,.162-1.354,13.149,13.149,0,0,0-.465-4.46c-.7-3.015-1.481-6.014-2.216-9.022-.193-.786-.329-1.587-.513-2.376a.857.857,0,0,1,.544-1.1,5.914,5.914,0,0,1,3.493-.146,17.131,17.131,0,0,0,5.027.35c.4-.059.809-.117,1.208-.2.83-.18,1-.1,1.28.727a5.172,5.172,0,0,1,.262,1.054c.34,2.931.777,5.848.85,8.809.048,1.956.3,3.909.443,5.863a19.193,19.193,0,0,1-2.164,10.017,8.35,8.35,0,0,0-.584,1.237c-.6,2.043-2.075,3.523-3.334,5.125a25.21,25.21,0,0,1-2.946,3.053,6.871,6.871,0,0,1-1.879,1.045c-1,.436-2.025.8-3.037,1.2a3.734,3.734,0,0,1-.629.268c-2.195.408-4.382.863-6.59,1.171a9.284,9.284,0,0,1-4.306-.541c-1.463-.509-2.923-1.033-4.356-1.617-3.565-1.452-5.731-4.236-7.15-7.687-.865-2.108-1.755-4.212-2.5-6.363a16.675,16.675,0,0,1-1.048-6.009,30.688,30.688,0,0,0-.621-3.562c-.175-1.844-.245-3.7-.284-5.553a34.474,34.474,0,0,0-.44-5,25.5,25.5,0,0,1-.09-3.7q-.07-3.971-.148-7.944c-.04-2.142-.119-4.286-.119-6.428,0-1.494.061-2.991.168-4.481.164-2.253,0-4.512.117-6.76.116-2.314.5-4.615.744-6.922.122-1.134.2-2.272.294-3.408.042-.481.082-.964.13-1.544m29.994,41.206c.116.7.156,1.2.284,1.677.427,1.587.951,3.15,1.314,4.749.672,2.978,1.415,5.964.735,9.057-.419,1.909-.81,3.827-1.29,5.722a4.581,4.581,0,0,1-1.752,2.559c-1.024.757-2.108,1.436-3.19,2.113a6.083,6.083,0,0,1-1.476.712,14.482,14.482,0,0,1-11.007-1.033,10.148,10.148,0,0,1-5.136-6.737,33.07,33.07,0,0,1-1.414-6.524c-.088-1.251-.526-2.474-.669-3.724-.172-1.487-.122-3-.3-4.486a54.927,54.927,0,0,1-.521-7.918c.064-2.643-.03-5.292.127-7.926.282-4.685.693-9.364,1.065-14.044.221-2.771.509-5.539.7-8.311.088-1.306.014-2.623.014-4.119-1.272-.186-2.431-.4-3.6-.515-1.367-.133-1.552.109-1.625,1.5-.085,1.576-.223,3.148-.371,4.719-.21,2.266-.464,4.528-.671,6.793-.1,1.088-.14,2.181-.2,3.272-.088,1.677-.2,3.353-.237,5.032-.019,1,.168,2,.135,3-.117,3.506-.323,7.01-.428,10.517-.088,2.856-.1,5.715-.111,8.573a29.155,29.155,0,0,0,.112,4.371c.433,2.927.955,5.847,1.614,8.73a34.217,34.217,0,0,0,2,6.516,18.786,18.786,0,0,0,5.113,7.162,4.551,4.551,0,0,0,1.317.95,25.025,25.025,0,0,0,6.8,1.471c2.044.026,4.088-.061,6.132-.066a11.77,11.77,0,0,0,6.813-2.527,26.841,26.841,0,0,0,4.253-4.051,13.41,13.41,0,0,0,3.316-7.355c.168-1.309.3-2.626.387-3.944.167-2.5.4-5,.409-7.5.013-2.681-.189-5.364-.318-8.045a10.6,10.6,0,0,0-.241-1.356c-2.79-.374-5.293.659-8.079.988" transform="translate(54.201 194.632)" fill="#002742"/>
    <path id="Path_11381" data-name="Path 11381" d="M149.983,85.583c.573-7.791,1.255-15.575,1.675-23.374.239-4.417-.027-8.857.082-13.283a74.062,74.062,0,0,1,.655-7.787,98.926,98.926,0,0,0,.351-17.11c-.18-4.178.22-8.38.364-12.573a2.185,2.185,0,0,1,2.169-2.213,11.923,11.923,0,0,1,4.055.067c2.837.717,5.6.35,8.427.074,2.14-.209,4.313-.082,6.471-.109a17.371,17.371,0,0,0,1.962-.056C178.7,8.9,179.533,9.4,179.667,12c.478,9.174,1.251,18.336.348,27.547-.432,4.4-.191,8.862-.318,13.293-.083,2.941-.383,5.877-.393,8.818a68.24,68.24,0,0,0,.422,7.459c1.3,12.217-.1,24.447.233,36.666.254,9.219,1.232,18.37,4.751,26.994,2.734,6.7,5.784,13.279,10.237,19.08a15.683,15.683,0,0,0,7.979,5.5c2.793.889,5.869.236,8.526,1.794.486.287,1.333-.006,2.007-.079q4.361-.469,8.717-.971a5.545,5.545,0,0,0,1.921-.359c5-2.673,9.327-5.956,11.142-11.734,1.346-4.287,1.552-8.395-.618-12.478a98.329,98.329,0,0,1-4.709-9.393c-1.792-4.475-4.218-8.736-4.44-13.787-.152-3.462-.225-7-1.819-10.277a6.653,6.653,0,0,1-.205-3.029c.106-2.3.95-3.045,3.2-2.882,1.67.124,3.331.44,5,.481,2.755.071,5.515-.01,8.271-.029,1.7-.013,3.4-.1,5.1-.026,2.623.12,3.215.477,3.56,3.045a15.985,15.985,0,0,0,5.543,10.184c2.155,1.871,2.885,4.579,4.663,6.583,4.417,4.982,5.1,10.665,3.531,16.869-.3,1.2-.331,2.484-.676,3.673-.781,2.7-1.664,5.37-2.538,8.043-.489,1.5-1.049,2.972-1.568,4.46a10.028,10.028,0,0,1-.409,1.293c-2.739,5.33-5.223,10.816-8.314,15.936-4.366,7.231-11.1,12.2-17.781,17.121a16.292,16.292,0,0,1-3.066,1.463,22.178,22.178,0,0,0-5.539,3.663c-2.813,2.434-5.951,4.815-10.124,4.648-3.037-.12-6.078-.112-9.117-.193a5.161,5.161,0,0,1-1.324-.3c-5.6-1.715-11.206-3.424-16.794-5.179a4.975,4.975,0,0,1-1.739-1.022c-4.91-4.369-10.155-8.435-14.567-13.261a38.492,38.492,0,0,1-7.872-13.4c-1.55-4.493-3.222-8.963-4.416-13.553a81.818,81.818,0,0,1-1.977-11.713c-.393-3.6-.2-7.26-.565-10.864-.3-2.922-1.2-5.778-1.54-8.7-.709-6.065-1.325-12.146-1.778-18.235-.236-3.164-.042-6.36-.042-9.542l-.59-.026m78.676,16.133c2.533,7.5,4.879,14.444,7.23,21.389a9.285,9.285,0,0,0,.7,1.9c2.3,3.759,2.931,7.873,3.685,12.192,1.327,7.589-2.429,13.12-5.683,19.04a2.082,2.082,0,0,1-.711.727,81,81,0,0,1-8.109,4.887,62.457,62.457,0,0,1-8.355,2.748,13.657,13.657,0,0,1-10.858-.868c-2.087-1.123-4.1-2.413-6.248-3.392a22.154,22.154,0,0,1-10.5-10.224c-2.179-4.1-4.294-8.233-6.389-12.375a73.972,73.972,0,0,1-7.78-32.112c-.146-6.333-.059-12.674-.016-19.01.037-5.547.14-11.093.247-16.64.138-7.14.39-14.28.436-21.421.026-3.961-.669-7.958-.324-11.876a107.884,107.884,0,0,0-.132-21.388,1.862,1.862,0,0,0-2.2-1.946c-3.549.064-7.106.215-10.644.039-1.714-.085-2.335.52-2.4,2.018-.087,1.929.035,3.875-.175,5.787-.8,7.316-1.706,14.623-2.567,21.933-.663,5.62-1.235,11.252-2,16.858-1.242,9.138-1.08,18.339-1.446,27.518-.465,11.652,1.261,23.076,3.3,34.483,1.117,6.248,2.343,12.489,3.1,18.785a50.373,50.373,0,0,0,6.62,20.505c2.376,3.936,4.993,7.841,8.812,10.168,6.944,4.229,13.678,8.852,21.555,11.531,7.369,2.506,14.224,2.776,20.983-1.414a15.4,15.4,0,0,1,2.511-1.009c1.771-.7,3.75-1.107,5.274-2.166,3.679-2.554,7.854-4.176,11.251-7.4,4.242-4.019,8.055-8.292,10.655-13.394a180.64,180.64,0,0,0,8.667-19.9c1.293-3.538,1.377-7.527,1.913-11.324a5.072,5.072,0,0,0-.5-1.961c-.4-1.3-.834-2.585-1.239-3.881-1.264-4.056-2.856-7.907-6.468-10.522a2.744,2.744,0,0,1-.674-.72c-1.916-3.024-3.819-6.057-5.866-9.312-5,.608-10.373-.931-15.658,1.744" transform="translate(90.662 5.503)" fill="#002742"/>
    <path id="Path_11382" data-name="Path 11382" d="M102.565,150.169c-5.779-2.325-11.854-2.126-17.773-2.938a53.635,53.635,0,0,1-6.909-1.428c-2.724-.751-3.421-1.925-3.008-4.807a16.958,16.958,0,0,1,1.045-4.271c1.452-3.389,1.008-6.917,1.051-10.415.037-2.925-.072-5.852.035-8.773a63.848,63.848,0,0,1,.736-10.432c1.064-5.176-.526-10.091-.805-15.122a4.542,4.542,0,0,0-1.407-2.612c-5.813-5.746-12.553-9.681-20.886-10.4-.9-.079-1.791-.29-2.691-.329a27.967,27.967,0,0,0-5.42-.048c-2.272.351-4.73.717-6.641,1.86-2.182,1.306-3.9,3.424-5.725,5.282a49.35,49.35,0,0,0-3.225,3.84c-2.946,3.69-4.067,8-4.3,12.629-.157,3.042-.539,6.073-.672,9.115-.273,6.225,1.436,12.083,3.321,17.938,1.386,4.3,2.387,8.735,3.56,13.109a10.543,10.543,0,0,0,.728,2.614c1.868,3.177,1.077,6.659,1.213,10.009a3.089,3.089,0,0,1-4,2.939c-5.033-1.189-10.135-1.131-15.241-1-2.022.051-4.037.533-6.055.538-4,.01-4.316-.491-4.77-4.4s-1.186-7.814-1.791-11.719C1.957,135.028.82,128.728.091,122.383a27.347,27.347,0,0,1,.6-7.652c.714-4.111,1.494-8.233,2.6-12.25A83.079,83.079,0,0,1,21.728,69.26,56.379,56.379,0,0,1,27.882,63.4a15.571,15.571,0,0,1,3.9-2.017c5.99-2.566,12.412-3.418,18.726-4.725,3.429-.709,6.795-1.72,10.19-2.594a18.119,18.119,0,0,1,3.28-.807c4.741-.29,9.5-.761,14.233-.608a21.707,21.707,0,0,1,15.315,7.079c3.933,4.1,7.517,8.387,9.911,13.672a47.664,47.664,0,0,1,4.26,16.688,231.285,231.285,0,0,1,0,27.177c-.321,6.222-.889,12.432-1.364,18.646a60.5,60.5,0,0,1-.637,6.726c-.509,2.667-1.091,5.383-3.13,7.535M13.3,151.446l14.761-1.69C27,145.789,26,142.22,25.083,138.631c-1.54-6.014-3.036-12.04-4.528-18.065a6.106,6.106,0,0,1-.035-1.362c-.077-4.767-.2-9.534-.217-14.3-.029-6.514,1.534-12.515,5.734-17.7,1.418-1.752,2.476-3.795,3.856-5.582a10.951,10.951,0,0,1,3.134-3.044c5.913-3.211,12.173-4.783,18.942-3.384a17.3,17.3,0,0,0,3.358.451,36.384,36.384,0,0,1,10.938,2.249c6.33,2.036,11.374,5.744,14.386,11.711a73.21,73.21,0,0,1,6.468,21.327,6.336,6.336,0,0,1-.066,1.343q-.144,2.869-.289,5.736c-.221,4.3-.48,8.6-.65,12.9-.087,2.233-.014,4.473-.014,6.793,3.87,1.327,7.413,3.04,11.58,2.842,3.222-.152,3.451-.1,4.109-3.127a74.075,74.075,0,0,0,1.292-14.16c.2-8.8,2.355-17.462,1.521-26.363-.618-6.564-1.011-13.091-3.568-19.294-2.262-5.491-5.259-10.437-10.618-13.282a64.566,64.566,0,0,0-13.356-5.758c-3.915-1.041-8.1-1.9-12.375-.775a119.63,119.63,0,0,1-11.941,2.256,50.189,50.189,0,0,0-18.309,6.705C32.688,67.8,31,68.963,29.328,70.126c-4.04,2.8-8.449,4.987-11.385,9.341-4.363,6.472-8.5,12.821-10.269,20.695C6.013,107.549,6.2,115,5.538,122.4c-.457,5.141.916,10.209,2.89,15.089,1.4,3.448,2.2,7.135,3.342,10.689a28.866,28.866,0,0,0,1.531,3.265" transform="translate(0 31.806)" fill="#002742"/>
    <path id="Path_11383" data-name="Path 11383" d="M243.62,136.789c-1.646.432-2.705.677-3.746.988a20.062,20.062,0,0,1-5.532.417c-3.623.067-4.382-2.363-5.08-4.805a51.493,51.493,0,0,1-1.773-18.774c.441-5.152.515-10.309,1.5-15.438,1.373-7.119,4.876-13.06,8.99-18.821,2.874-4.022,7.028-6.275,11.06-8.783,4.565-2.842,9.717-3.634,14.854-4.058,3.594-.3,7.265.321,10.9.59,3.8.282,7.613.566,11.4.977A22.508,22.508,0,0,1,297.754,73.4c3.631,2.776,6.4,6.31,9.3,9.791,5.192,6.225,7.031,13.736,9.064,21.243.735,2.723,1.937,5.325,2.588,8.064,1.231,5.174,2.193,10.41,3.31,15.612,1.138,5.306,2.354,10.594,3.48,15.9a25.094,25.094,0,0,1,.491,4.04c.241,5.616.927,11.206.4,16.865-.382,4.115,0,8.3-.375,12.417-.414,4.5-1.174,8.982-2.036,13.423A103.115,103.115,0,0,1,321.29,201.3c-.89,2.914-2.121,5.723-3.2,8.579-2.869,7.608-6.59,14.7-12.342,20.585-2.622,2.681-4.926,5.712-7.754,8.138-4.727,4.051-9.627,7.958-15.952,9.377a12.918,12.918,0,0,0-3.883,1.232c-2.8,1.706-5.938,1.285-8.926,1.545-1.089.095-2.745.35-3.668-1.187-.247-.416-1.215-.451-1.868-.57-7.369-1.353-12.266-6.03-15.575-12.318-2.607-4.953-4.592-10.24-6.715-15.435a30.6,30.6,0,0,1-1.163-4.931,6.709,6.709,0,0,0-.408-1.935c-2.521-4.266-2.532-8.964-2.472-13.685.018-1.476,0-2.952,0-4.963,1.736.245,3.283.5,4.841.675s3.146.266,5.136.427c.59,3.084,1.186,6.155,1.763,9.229a34.5,34.5,0,0,0,.937,4.971,22.447,22.447,0,0,0,11.007,13.139c4.263,2.213,8.337,4.812,12.682,6.843,3.132,1.465,6.57,2.275,9.871,3.377.109.035.226.117.324.1,4.188-.753,8.52-1.33,11.515-4.762a62.041,62.041,0,0,0,10.116-16.016,43.267,43.267,0,0,0,2.875-8.327c1.351-6.42,2.479-12.894,3.495-19.379a61.5,61.5,0,0,0,.777-15.748c-.409-4.1.249-8.306.383-12.467.183-5.819-.76-11.52-1.8-17.219-.727-3.992-1.149-8.042-1.871-12.035-1.028-5.665-1.853-11.408-3.437-16.922-1.2-4.186-3.443-8.077-5.255-12.085-.326-.719-.878-1.335-1.2-2.057-1.794-4.111-5.54-6.407-8.632-9.3-1.547-1.45-3.589-1.957-5.5-2.771-3.2-1.359-6.845-1.7-9.641-4.026a1.564,1.564,0,0,0-.907-.369,41.789,41.789,0,0,0-5.55.117c-7.3.977-13.344,3.795-18.078,9.989-6.288,8.229-9.609,17.1-8.977,27.408.282,4.592.778,9.171,1.147,13.76.125,1.561.16,3.129.229,4.509" transform="translate(137.391 40.764)" fill="#d9dadc"/>
    <path id="Path_11384" data-name="Path 11384" d="M142.993,407.135h6.66a1.766,1.766,0,0,1,.286.7q.014,3.4-.048,6.8c-.013.682-.124,1.361-.175,2.042a15.538,15.538,0,0,0,.825,4.553,19.672,19.672,0,0,0,1.393,3.966,7.7,7.7,0,0,0,3.223,3.543c1,.574,1.8,1.5,2.766,2.142a5.933,5.933,0,0,0,2.225.94,6.273,6.273,0,0,0,5.834-1.792,2.1,2.1,0,0,1,.6-.55c1.535-.619,2.482-1.892,3.549-3.057a10.243,10.243,0,0,0,1.518-3.025,10.967,10.967,0,0,0,.48-1.7c.671-2.558,1.391-5.105,1.993-7.679a23.73,23.73,0,0,0,.337-9.184,52.162,52.162,0,0,0-1.715-6.588,31.593,31.593,0,0,0-2.285-5.183c-1.242-2.469-2.856-4.725-4.069-7.231a20.877,20.877,0,0,0-3.41-4.241c-1.075-1.224-2.246-2.365-3.352-3.564-.581-.631-.558-.98.085-1.56.773-.7,1.635-1.3,2.354-2.049a12.38,12.38,0,0,0,1.73-2.25c1.181-1.982,2.365-3.971,3.393-6.036a23.621,23.621,0,0,0,1.98-6.15,36.65,36.65,0,0,0,.791-5.868,19.083,19.083,0,0,0-.4-5.553,43.041,43.041,0,0,0-1.876-6.225c-.019-.042-.059-.083-.058-.124.066-1.614-.96-2.9-1.369-4.469,2.174-.967,4.52.133,6.7-.624a11.3,11.3,0,0,1,1.97,8.058c-.091.706-.014,1.433-.058,2.148-.037.576-.143,1.147-.209,1.722-.191,1.67-.334,3.349-.576,5.012a22.781,22.781,0,0,0-.058,5.677,11.627,11.627,0,0,1-.322,3.8c-.5,2.12-1.226,4.186-1.832,6.282-.38,1.314-.7,2.644-1.078,3.958-.249.86-.343,1.824-1.308,2.246.09.621.173,1.2.258,1.8a23.658,23.658,0,0,1,2.9,2.161,8.615,8.615,0,0,0,1.574,1.08,10.015,10.015,0,0,1,4.924,6.967c.512,3.239,1.065,6.474,1.507,9.722.3,2.208.5,4.433.639,6.655.141,2.322.2,4.65.2,6.976,0,2.817-1.033,5.446-1.8,8.09-.411,1.409-.855,2.842-1.335,4.247a21.79,21.79,0,0,1-3.278,5.972c-.691.929-1.394,1.853-2.152,2.729a11.094,11.094,0,0,1-4.94,3.292,38.49,38.49,0,0,1-7.732,1.433,16.365,16.365,0,0,1-6.493-.55,10.728,10.728,0,0,1-7.567-6.511c-.263-.666-.632-1.288-.924-1.943a16.717,16.717,0,0,1-1.171-5.293c-.082-.849-.4-1.674-.529-2.522a38.407,38.407,0,0,1-.491-4.051c-.127-2.824-.154-5.652-.215-8.478a4,4,0,0,1,.117-.656" transform="translate(86.366 203.777)" fill="#d9dadc"/>
    <path id="Path_11385" data-name="Path 11385" d="M338.337,377.893h-7.084a6.047,6.047,0,0,1-.992-5.414,4.342,4.342,0,0,0,.043-1.391A73.423,73.423,0,0,1,330.164,358a40.516,40.516,0,0,1,1.463-7.642c.6-2.107,1.864-3.848,2.732-5.8a3.257,3.257,0,0,1,1.489-1.572c1.673-.727,2.479-2.335,3.791-3.421,1.808-1.5,3.286-3.422,5.558-4.3,1.4-.544,2.843-.987,4.273-1.458.326-.107.761-.042.995-.236a2.341,2.341,0,0,1,2.325-.3,6.851,6.851,0,0,0,1.733.14,14.384,14.384,0,0,1,9.375,3.3,14.809,14.809,0,0,1,4.114,4.448,9.4,9.4,0,0,1,.616,1.258c1.046,3.047,2.177,6.071,3.069,9.163a60.463,60.463,0,0,1,1.348,6.7,57.308,57.308,0,0,1,.366,11.43,1.6,1.6,0,0,1,0,.351c-.558,2.044-.345,4.162-.616,6.232-.172,1.32-.643,1.959-1.949,2.026a60.178,60.178,0,0,1-6.654-.008c-1.672-.1-1.911-.547-1.974-2.275-.1-2.781.712-5.431,1.073-8.144.3-2.235.358-4.5.52-6.753a6.95,6.95,0,0,1,.058-1.022,20.518,20.518,0,0,0-.5-10.565,6.786,6.786,0,0,1-.262-1.024c-.306-2.42-1.93-3.953-3.642-5.418a10.158,10.158,0,0,0-4.553-2.495c-3.479-.675-6.976-1.414-10.383.477a10.77,10.77,0,0,0-4.611,4.927,32.443,32.443,0,0,0-1.508,4.3c-.383,1.229-.639,2.5-1.02,3.729A40.243,40.243,0,0,0,335.9,361.6a29.664,29.664,0,0,0,1.471,11.918c.4,1.327.6,2.71.961,4.379" transform="translate(199.439 201.353)" fill="#d9dadc"/>
    <path id="Path_11386" data-name="Path 11386" d="M181.182,376.443c-1.964.1-3.833.2-5.861.31a26.988,26.988,0,0,1-1.158-3.116c-.435-1.8-.717-3.626-1.067-5.442a63.577,63.577,0,0,1-.838-8.578c-.095-1.738-.106-3.485-.051-5.224a9.16,9.16,0,0,1,.462-2.551,29.317,29.317,0,0,1,2.517-5.877c.854-1.436,2.267-2.272,3.5-3.267a32.4,32.4,0,0,1,3.936-2.479,4.857,4.857,0,0,1,1.733-.74,17.807,17.807,0,0,1,6.235-.16c1.277.287,2.591.408,3.88.653a10.753,10.753,0,0,1,3.565,1.829,14.428,14.428,0,0,1,4.313,4.679,23.38,23.38,0,0,1,3.127,7.825c.377,1.67.148,3.488.594,5.13.655,2.405.318,4.838.565,7.246a27.192,27.192,0,0,1-.324,5.081c-.074.817-.236,1.627-.375,2.553h-4.709a27.387,27.387,0,0,1,.228-3.28,29.17,29.17,0,0,0,.255-6.389c-.029-.783.045-1.572-.022-2.351-.119-1.349-.247-2.7-.485-4.035a34.306,34.306,0,0,0-2.888-9,8.057,8.057,0,0,0-5.847-4.592,30.682,30.682,0,0,0-3.726-.4,11.347,11.347,0,0,0-6.355,1.718,3.969,3.969,0,0,0-1.333,1.319,18.2,18.2,0,0,0-2.5,6.314,30.787,30.787,0,0,0-.359,3.7c-.082.993-.178,1.986-.2,2.981-.011.57.133,1.142.177,1.715.093,1.253.067,2.524.27,3.758a53.1,53.1,0,0,0,1.171,5.407c.382,1.4.988,2.734,1.462,4.107a5.571,5.571,0,0,1,.109,1.163" transform="translate(104.076 204.974)" fill="#d9dadc"/>
    <path id="Path_11387" data-name="Path 11387" d="M72.974,157.1c-.359,5.945-.438,11.289-1.064,16.568a81.436,81.436,0,0,0,.119,17.683c1.274,12.975,2.275,25.994,1.417,39.019-.565,8.576-1.991,17.094-2.988,25.643-.146,1.243.063,2.527-.09,3.769-.245,1.983.064,3.945-.821,5.986-.748,1.722-.374,3.974-.329,5.99.1,4.735.316,9.468.46,14.2.1,3.2.144,6.41.226,9.614.016.632-.149,1.434.168,1.863,1.114,1.51,2.142,3.512,3.692,4.159,1.836.767,3.195-1.213,4.193-2.721,1.4-2.116,2.455-4.483,4.016-6.461a21.457,21.457,0,0,1,8.159-6.607c4.94-2.2,10.224-2.317,15.377-3.243.125-.022.263.016.387-.008,10.254-2.026,20.167,1.2,30.232,2.01a94.386,94.386,0,0,1,12.6,1.8c6.351,1.393,12.361,3.617,16.468,9.168a36.649,36.649,0,0,0,3.19,3.83c3.05,3.121,3.657,7.109,3.573,11.1-.188,8.886-2.87,17.242-6.8,25.1-3.379,6.756-6.785,13.624-12.274,19.016a52.64,52.64,0,0,1-8.157,6.448c-4.539,2.957-9.208,5.736-13.965,8.326-7.052,3.836-14.431,7.227-22.543,7.491-9.508.311-18.824-1.2-26.785-7.037a110.618,110.618,0,0,1-10.012-8.452,19.973,19.973,0,0,1-5.107-7.642c-1.816-4.809-4.252-9.393-5.935-14.241a137.288,137.288,0,0,1-3.634-13.8c-1.657-7.106-3.177-14.225-5.381-21.213-1.484-4.711-2.647-9.6-2.01-14.787.5-4.079.075-8.268.112-12.406.066-7.5-.116-15.013.351-22.488.334-5.373,1.649-10.681,2.343-16.042A77.648,77.648,0,0,0,53.255,226.1c-.237-6.543,1.284-12.826,1.969-19.228.765-7.167,1.71-14.326,2.176-21.514.517-7.974.589-15.977.833-23.969.093-3.1.241-3.337,3.426-3.981a27.524,27.524,0,0,1,11.316-.311" transform="translate(29.73 94.684)" fill="#d9dadc"/>
    <path id="Path_11388" data-name="Path 11388" d="M120.437,362.275c2.785-.329,5.288-1.362,8.079-.988a10.6,10.6,0,0,1,.241,1.356c.128,2.681.331,5.364.318,8.045-.011,2.5-.242,5-.409,7.5-.09,1.317-.218,2.635-.387,3.944a13.41,13.41,0,0,1-3.316,7.355,26.841,26.841,0,0,1-4.253,4.051,11.77,11.77,0,0,1-6.813,2.527c-2.044,0-4.088.091-6.132.066a25.025,25.025,0,0,1-6.8-1.471,4.55,4.55,0,0,1-1.317-.95,18.785,18.785,0,0,1-5.113-7.162,34.217,34.217,0,0,1-2-6.516c-.659-2.883-1.181-5.8-1.614-8.73a29.154,29.154,0,0,1-.112-4.371c.014-2.858.022-5.717.111-8.573.106-3.507.311-7.012.428-10.517.034-1-.154-2-.135-3,.035-1.678.149-3.355.237-5.032.058-1.091.1-2.184.2-3.272.207-2.266.46-4.528.671-6.793.148-1.571.286-3.143.371-4.719.074-1.391.258-1.633,1.625-1.5,1.168.114,2.326.329,3.6.515,0,1.5.074,2.813-.014,4.119-.188,2.773-.475,5.54-.7,8.311-.372,4.68-.783,9.359-1.065,14.044-.157,2.635-.063,5.284-.127,7.926a54.928,54.928,0,0,0,.521,7.918c.18,1.486.13,3,.3,4.486.143,1.25.581,2.473.669,3.724a33.069,33.069,0,0,0,1.414,6.524,10.148,10.148,0,0,0,5.136,6.737,14.482,14.482,0,0,0,11.007,1.033,6.083,6.083,0,0,0,1.476-.712c1.081-.677,2.166-1.356,3.19-2.113a4.58,4.58,0,0,0,1.752-2.559c.48-1.895.871-3.812,1.29-5.722.68-3.094-.063-6.079-.735-9.057-.363-1.6-.887-3.162-1.314-4.749-.128-.477-.168-.977-.284-1.677" transform="translate(54.878 195.546)" fill="#d9dadc"/>
    <path id="Path_11389" data-name="Path 11389" d="M11.248,149.7a28.866,28.866,0,0,1-1.531-3.265c-1.146-3.554-1.946-7.241-3.342-10.689-1.974-4.879-3.347-9.948-2.89-15.089.659-7.4.475-14.854,2.136-22.241,1.771-7.873,5.906-14.222,10.269-20.695,2.936-4.355,7.345-6.538,11.385-9.341,1.677-1.163,3.36-2.323,5.105-3.376A50.189,50.189,0,0,1,50.689,58.3,119.63,119.63,0,0,0,62.63,56.041c4.274-1.123,8.46-.266,12.375.775a64.565,64.565,0,0,1,13.356,5.758c5.359,2.845,8.356,7.791,10.618,13.282,2.558,6.2,2.951,12.73,3.568,19.294.834,8.9-1.324,17.563-1.521,26.363a74.075,74.075,0,0,1-1.292,14.16c-.658,3.026-.887,2.975-4.109,3.127-4.167.2-7.71-1.515-11.58-2.842,0-2.32-.072-4.56.014-6.793.17-4.3.428-8.6.65-12.9q.147-2.869.289-5.736a6.336,6.336,0,0,0,.066-1.343A73.21,73.21,0,0,0,78.6,87.856c-3.012-5.967-8.056-9.675-14.386-11.711A36.384,36.384,0,0,0,53.274,73.9a17.3,17.3,0,0,1-3.358-.451c-6.769-1.4-13.03.173-18.942,3.384a10.951,10.951,0,0,0-3.134,3.044c-1.38,1.787-2.437,3.83-3.856,5.582-4.2,5.184-5.763,11.185-5.734,17.7.019,4.769.14,9.535.217,14.3a6.106,6.106,0,0,0,.035,1.362c1.492,6.025,2.988,12.051,4.528,18.065.918,3.589,1.914,7.158,2.98,11.125L11.248,149.7" transform="translate(2.053 33.555)" fill="#d9dadc"/>
    <path id="Path_11390" data-name="Path 11390" d="M258.415,359.319c-3.138-17.608-3.111-27.409.316-44.983.416-1.364.116-2.209-1.322-2.517-4.533-.821-9.353-.446-13.8-1.13-.911-.483-2.456-.122-2.769.655-1.746,13.253-1.938,18.245-2.049,31.619-1.54,21.877.64,61.9,30.836,59.225,34.143,1.452,28.026-59.075-11.214-42.869m7.068,27.364c-4.1.422-6.209-4.071-7.211-7.349-.924-9.829,16.711-9.592,16.12.82.422,4.61-4.868,7.852-8.91,6.529" transform="translate(144.127 187.673)" fill="#002742"/>
    <path id="Path_11391" data-name="Path 11391" d="M204.792,353a9.817,9.817,0,0,1,2.137-6.168,5.907,5.907,0,0,1,.785-1.032,6.571,6.571,0,0,1,1.508-1.075,14.64,14.64,0,0,1,2.185-.735,1.738,1.738,0,0,1,.854-.045,13.111,13.111,0,0,1,8.772,7.14,5.718,5.718,0,0,1,.193,3.381,9.15,9.15,0,0,1-.757,3.016c-1.208,2.423-3.49,5.226-6.931,4.8-2.259-.276-4.57-.494-6.36-2.171a4.535,4.535,0,0,1-.935-1.083A12.309,12.309,0,0,1,204.792,353m8.35,6.636c2,.144,3.243-.887,4.589-1.649,1.412-.8,2.442-4.066,1.484-5.784a21.405,21.405,0,0,1-1.133-1.856,3.223,3.223,0,0,0-3.158-1.9,10.242,10.242,0,0,1-2.575-.284,2.088,2.088,0,0,0-2.184.428c-1.553,1.6-3.488,3.084-2.9,5.792a2.72,2.72,0,0,1-.143.855,3.874,3.874,0,0,0,1.8,3.583c1.42.924,3.1.258,4.225.818" transform="translate(123.788 207.888)" fill="#002742"/>
  </g>
</svg>
