<svg xmlns="http://www.w3.org/2000/svg" width="278.045" height="258.73" viewBox="0 0 278.045 258.73">
  <g id="Layer_2" data-name="Layer 2" transform="translate(-1217.243 -805.105)">
    <g id="Group_2" data-name="Group 2">
      <g id="Group_1" data-name="Group 1">
        <path id="Path_1" data-name="Path 1" d="M1448.83,912.378c.87,4.78,1.13,10.08-1.04,14.54-4.07,10.67-7.96,21.74-12.05,32.38-2.33,5.52-16.86,19.79-17.86,20.84-9.12,7.72-16.54,16.02-27.17,21.2-17.1,12.35-36.86,13.42-57.58,16.89-23.53,3.95-45.12-5.93-66.38-15.63-18.14-6.34-28.25-19.85-32.05-37.01-5.96-27.37-1.48-55.57,8.21-81.56.83-3.92,5.91-19.21,7.12-22.93,6.52-12.19,19.89-18.71,27.89-29.83,2.06-2.32,24.16-8.99,26.85-9.86a142.644,142.644,0,0,1,26.28-6.44c2.8-.43,5.38-1.66,8.16-.36-4.5,7.05-10.46,13.49-13.55,21.47a74.248,74.248,0,0,0-9.1,18.1c-.22.71.01,1.56-.85,2.03a19.52,19.52,0,0,1-1.33,7.42c-1.87,5.5-1.53,11.71-3.6,17.02-2.36-2.53-13.05-18.44-16.53-12.69-4.45,10.73-5.11,22.58-6.25,34.12-3.29,8.98-15.35,10.66-22.19,16.51-3.48,3.74-17.78,5.73-14.66,11.85,2.7,3.58,7.33,4.67,11.29,6.25,9.33,4.04,14.2,2.85,23.71,6.61,3.95,1.96-8.21,15.34-9.3,18.6-3.18,3.76-3.99,8.45-7.19,12.17a1.856,1.856,0,0,0-.52,2.19c6.3,2.49,20.82-2.46,27.84-4.18,6.58-.57,13.25-.92,19.48-3.4,1.23-.29,2.84-1.59,3.78-.17,1.79,3.16,2.82,6.56,4.83,9.64,1.91,3.63,2.02,8.27,5.53,10.88,2.83,3.17,3.85,7.95,6.91,10.67,3.8-1.1,4.53-5.92,4.49-9.39-.86-9.94,4.9-19.34,8.34-28.43,1.9-2.85,8.37-1.24,11.68-2.68,10.19-1.45,20.62-1.16,30.72-3.71.01-2.88-2.02-5.01-3.33-7.44-1.04-1.69-3.39-1.94-4.75-3.35-3-1.56-4.51-4.63-6.67-7.1a179.537,179.537,0,0,0-14.17-12.31c1.81-2.95,4.15-5.64,5.72-8.56-.66-1.59,1.48-3.61-.52-4.63-1.62-1.32-2.35.41-3.73.98-2.58,1.2-3.94,3.87-5.83,5.95-1.39,2.55-4.34-2.72-6.05-3.07-3.91-1.03,12.52-27.19,11.46-31.2-4.68-3.67-15.31,3.69-21.41,4.43,3.04-9.49,8.7-18.72,14.82-26.31,4.2-5.2,10.13-8.55,14.91-13.21.74-.88,1.85-.35,2.56-1.24,4.44-2.02,9.08-3.73,13.44-5.99,1.54-.71,2.76-.03,4,1.12-10.17,6.46-19.82,13.44-28.25,22-4.3,3.05-11.6,8.93-7.26,14.46a1.182,1.182,0,0,0,1.99.41c4.36-5.26,10.66-8.51,15.51-13.34,6.75-6.96,15.12-12.29,21.96-18.88.77-.61,1.7-1.8,2.78-1.2,2.33,1.69,5.01,2.84,7,4.94-5.3,1.4-9.36,4.97-14.45,6.85-5.68,2.41-12.71,9-1.35,8.08,5.47-2.95,11.07-6.65,17.4-8.16,5.16-2.91,7.76-1.43,11.44,2.81-27.15,6.15-50.99,24.22-62.52,49.67-.58,2.63,4.69,2.05,4.95.02.09-2.82,3.79-3.2,3.83-5.99,2.66-4.48,7.15-7.83,11.05-11.26,4.31-4.1,8.1-8.83,13.43-11.75,5.14-6.46,9.9-6.37,17.35-8.34a105.826,105.826,0,0,1,19.31-5.52c3.21.48,7.06,5.28,9.31,7.85-8.55,2.6-18.75,1.65-26.27,6.7-9,4.49-17.49,10.1-26.48,14.6-3.57,1.35-11.99,6.62-11.24,10.73-.01,1.95,2.04.41,2.72,1.48a116.7,116.7,0,0,1,34.58-20.25c3.51-1.41,6.59-4.85,10.61-4.04,3.66-4,13.88-.47,19.78-2.54,4.7-.57,6.56,11.84,7.02,15.42-6.81.8-13.46.69-20.21,1.7-6.47.97-12.3,4.26-18.85,4.91-11.57,5.16-23.84,9.1-34.05,16.85-1.49,1.26-3.33,6.48-.19,6.83,1.44-.56,3.58,1.11,4.44-.97,6.15-7.42,20.65-12.55,29.63-16.4,4.3-2.75,9.94-2.81,14.85-3.01,7.69-.28,15.44-.89,23.13-1.28C1449.8,906.548,1449.08,910.058,1448.83,912.378Z" fill="#fff" opacity="0.8"/>
        <path id="Path_2" data-name="Path 2" d="M1347.26,817.438c1.4,1.1,6.14,4.05,6.14,4.05-6.69,6.01-10.74,15.71-15.63,22.94-5.1,8.02-5.65,18.24-8.66,27.19-.87,5.2-2.39,10.28-3.47,15.44-.6,2.85-2.23,5.32-1.34,8.34l-2.27.48c-.1-1.45-1.41-1.79-2.09-2.67-.27-1.66-1.66-2.53-2.58-3.73-4.11-3.71-1.23-9.93-.99-14.77.05-2.48,1.64-4.39,1.81-6.91,1.37-4.48,2.44-9.06,4.53-13.07,4.38-7.43,9.37-14.43,13.94-21.85,2.38-3.86,5.54-8.17,5.25-8.37C1343.91,821.488,1345.99,818.458,1347.26,817.438Z" fill="#fff" opacity="0.8"/>
        <path id="Path_3" data-name="Path 3" d="M1380.73,837.468c-6.19,2.58-8.99,8.91-14.53,12.37-8.52,5.24-14.64,12.92-19.53,21.55-3.99,5.71-5.82,12.5-9.44,18.4-.97,3.03-4.32,3.09-7.07,3.79,3.8-24.15,12.97-49.1,28.63-68.15,2.46.95,4.07,3,6.55,4.14-7.46,6.13-25.07,21.46-17.78,31.74,4.95-10.53,15.65-17.52,21.54-27.67C1369.52,830.378,1379.01,836.478,1380.73,837.468Z" fill="#fff" opacity="0.8"/>
        <path id="Path_4" data-name="Path 4" d="M1318.15,918.978c1.62,1.59,2.17,3.22,4.63,3.45,2.83-2.44,5.39-5.05,9.07-6.18.29.89-2.46,7.28-3.59,8.38.59,2.98.25,3.61,3.9,4.58,4.9,1.43,8.83,6.08,13.79,8.02-.08.11-.16.21-.24.32-9.22-.46-11.05-1.2-11.82.43-.65,1.37-.33,7.33-1.36,12.89-2.72-2.33-3.58-7.71-6.06-9.7-4.18-2.42-9.83,4.04-14.23,3.86,2.19-2.61,3.9-5.2,6.26-7.55.97-.72,3.69-4.7,2.91-6.64-7.42-.93-18.38-2.53-25.63-3.96,11.23-6.79,13.43-5.76,13-7.46-.35-1.41-2.51-4.73-2.77-16.06C1310.61,907.758,1313.18,914.648,1318.15,918.978Z" fill="#953430"/>
        <path id="Path_5" data-name="Path 5" d="M1290.5,916.888c-7.47.61-22.84,8.4-27.27,14.06,1.44-.28,10.04,2.84,11.76,3.79,4.09,1.33,16.4,3.51,20.09,5.21,4.62,2.26-2.67,8.46-4.09,10.42-5.3,6.01-9.61,14.58-12.64,21.61a191.457,191.457,0,0,0,43.58-12.25c3.68-3.04,3.86,2.68,4.72,5.04,2.77,7.18,4.32,16.22,9.08,21.98,4.61-11.09,5.88-23.36,11.81-33.92,2.82-4.49,9.06-1.85,13.34-1.7,4.12.61,8.36.07,12.53.01,2.47.64,4.73-.27,7.16-.01a1.77,1.77,0,0,0,1.91-.84c-11.56-9.2-22.51-19.28-34.44-28.13-.89-.65-2.06-.96-2.11-2.33a5.533,5.533,0,0,1-1.83-2.81c3.06-5.17,4.46-10.78,6.9-16.08.52-1.94,5.09-7.85,3.79-9.01-7.84,2.3-15.47,5.23-23.11,8.1-4.27.94-9.41,6.68-12.81,2.07-2.95-2-4.68-5.09-7.14-7.63-1.08-1.82-1.17-4.37-3.26-5.47-2.91-4.23-6.76-7.92-8.91-12.65-.43-.7-.97-2.15-1.96-2.01-1.3,9.88.12,19.73-1.17,29.6C1296.46,908.548,1297.65,917.788,1290.5,916.888Zm156.96-58.61c11.68,16.05,14.14,40.95,13.26,58.59-.6,11.91-6.57,30.71-9.36,45.22-2.17,11.32-7.01,16.32-12.83,25.67s-13.752,12.62-23.632,21.77c-7.46,6.92-12.718,11.54-21.628,15.84-11.72,5.78-21.93,6.94-34.93,7.23-8.64-.39-18.715,1.243-27.535,2.233-10.39-.48-23.645-7.6-33.915-9.343-21.71-6.77-29.58-10.05-45.21-22.89-6.1-5.01-19.1-15.75-21.24-22.21-2.23-5.44-5.64-10.31-6.13-16.29-.31-4.34-2.51-8.29-3.85-12.45a92.554,92.554,0,0,1-3-31.17c2.67-17.22,4.11-34.91,10-51.37,7.46-9.46,12.47-20.54,19.96-29.99,16.28-15.7,37.73-28.71,60.48-31.19,8.27.86,15.01-3.16,23.11-2.8,1.61.3,17.6,3.25,24.32,3.55,1.85.21,17.78,3.55,22.36,5.5,9.64,3,16.59,8.39,23.44,11.72,7.77,3.79,15.33,5.72,25.12,12.84C1432.98,843.628,1442.35,851.588,1447.46,858.278Zm.33,68.64c2.17-4.46,1.91-9.76,1.04-14.54.25-2.32.97-5.83-2.69-5.44-7.69.39-15.44,1-23.13,1.28-4.91.2-10.55.26-14.85,3.01-8.98,3.85-23.48,8.98-29.63,16.4-.86,2.08-3,.41-4.44.97-3.14-.35-1.3-5.57.19-6.83,10.21-7.75,22.48-11.69,34.05-16.85,6.55-.65,12.38-3.94,18.85-4.91,6.75-1.01,13.4-.9,20.21-1.7-.46-3.58-2.32-15.99-7.02-15.42-5.9,2.07-16.12-1.46-19.78,2.54-4.02-.81-7.1,2.63-10.61,4.04a116.7,116.7,0,0,0-34.58,20.25c-.68-1.07-2.73.47-2.72-1.48-.75-4.11,7.67-9.38,11.24-10.73,8.99-4.5,17.48-10.11,26.48-14.6,7.52-5.05,17.72-4.1,26.27-6.7-2.25-2.57-6.1-7.37-9.31-7.85a105.826,105.826,0,0,0-19.31,5.52c-7.45,1.97-12.21,1.88-17.35,8.34-5.33,2.92-9.12,7.65-13.43,11.75-3.9,3.43-8.39,6.78-11.05,11.26-.04,2.79-3.74,3.17-3.83,5.99-.26,2.03-5.53,2.61-4.95-.02,11.53-25.45,35.37-43.52,62.52-49.67-3.68-4.24-6.28-5.72-11.44-2.81-6.33,1.51-11.93,5.21-17.4,8.16-11.36.92-4.33-5.67,1.35-8.08,5.09-1.88,9.15-5.45,14.45-6.85-1.99-2.1-4.67-3.25-7-4.94-1.08-.6-2.01.59-2.78,1.2-6.84,6.59-15.21,11.92-21.96,18.88-4.85,4.83-11.15,8.08-15.51,13.34a1.182,1.182,0,0,1-1.99-.41c-4.34-5.53,2.96-11.41,7.26-14.46,8.43-8.56,18.08-15.54,28.25-22-1.24-1.15-2.46-1.83-4-1.12-4.36,2.26-9,3.97-13.44,5.99-.71.89-1.82.36-2.56,1.24-4.78,4.66-10.71,8.01-14.91,13.21-6.12,7.59-11.78,16.82-14.82,26.31,6.1-.74,16.73-8.1,21.41-4.43,1.06,4.01-15.37,30.17-11.46,31.2,1.71.35,4.66,5.62,6.05,3.07,1.89-2.08,3.25-4.75,5.83-5.95,1.38-.57,2.11-2.3,3.73-.98,2,1.02-.14,3.04.52,4.63-1.57,2.92-3.91,5.61-5.72,8.56a179.537,179.537,0,0,1,14.17,12.31c2.16,2.47,3.67,5.54,6.67,7.1,1.36,1.41,3.71,1.66,4.75,3.35,1.31,2.43,3.34,4.56,3.33,7.44-10.1,2.55-20.53,2.26-30.72,3.71-3.31,1.44-9.78-.17-11.68,2.68-3.44,9.09-9.2,18.49-8.34,28.43.04,3.47-.69,8.29-4.49,9.39-3.06-2.72-4.08-7.5-6.91-10.67-3.51-2.61-3.62-7.25-5.53-10.88-2.01-3.08-3.04-6.48-4.83-9.64-.94-1.42-2.55-.12-3.78.17-6.23,2.48-12.9,2.83-19.48,3.4-7.02,1.72-21.54,6.67-27.84,4.18a1.856,1.856,0,0,1,.52-2.19c3.2-3.72,4.01-8.41,7.19-12.17,1.09-3.26,13.25-16.64,9.3-18.6-9.51-3.76-14.38-2.57-23.71-6.61-3.96-1.58-8.59-2.67-11.29-6.25-3.12-6.12,11.18-8.11,14.66-11.85,6.84-5.85,18.9-7.53,22.19-16.51,1.14-11.54,1.8-23.39,6.25-34.12,3.48-5.75,14.17,10.16,16.53,12.69,2.07-5.31,1.73-11.52,3.6-17.02a19.52,19.52,0,0,0,1.33-7.42c.86-.47.63-1.32.85-2.03a74.248,74.248,0,0,1,9.1-18.1c3.09-7.98,9.05-14.42,13.55-21.47-2.78-1.3-5.36-.07-8.16.36a142.644,142.644,0,0,0-26.28,6.44c-2.69.87-24.79,7.54-26.85,9.86-8,11.12-21.37,17.64-27.89,29.83-1.21,3.72-6.29,19.01-7.12,22.93-9.69,25.99-14.17,54.19-8.21,81.56,3.8,17.16,13.91,30.67,32.05,37.01,21.26,9.7,42.85,19.58,66.38,15.63,20.72-3.47,40.48-4.54,57.58-16.89,10.63-5.18,18.05-13.48,27.17-21.2,1-1.05,15.53-15.32,17.86-20.84C1439.83,948.658,1443.72,937.588,1447.79,926.918Zm-81.59-77.08c5.54-3.46,8.34-9.79,14.53-12.37-1.72-.99-11.21-7.09-11.63-3.83-5.89,10.15-16.59,17.14-21.54,27.67-7.29-10.28,10.32-25.61,17.78-31.74-2.48-1.14-4.09-3.19-6.55-4.14-15.66,19.05-24.83,44-28.63,68.15,2.75-.7,6.1-.76,7.07-3.79,3.62-5.9,5.45-12.69,9.44-18.4C1351.56,862.758,1357.68,855.078,1366.2,849.838Zm-12.8-28.35s-4.74-2.95-6.14-4.05c-1.27,1.02-3.35,4.05-5.36,7.07.29.2-2.87,4.51-5.25,8.37-4.57,7.42-9.56,14.42-13.94,21.85-2.09,4.01-3.16,8.59-4.53,13.07-.17,2.52-1.76,4.43-1.81,6.91-.24,4.84-3.12,11.06.99,14.77.92,1.2,2.31,2.07,2.58,3.73.68.88,1.99,1.22,2.09,2.67l2.27-.48c-.89-3.02.74-5.49,1.34-8.34,1.08-5.16,2.6-10.24,3.47-15.44,3.01-8.95,3.56-19.17,8.66-27.19C1342.66,837.2,1346.71,827.5,1353.4,821.488Z" fill="#001d33"/>
        <path id="Path_6" data-name="Path 6" d="M1290.5,916.888c7.15.9,5.96-8.34,5.93-12.95,1.29-9.87-.13-19.72,1.17-29.6.99-.14,1.53,1.31,1.96,2.01,2.15,4.73,6,8.42,8.91,12.65,2.09,1.1,2.18,3.65,3.26,5.47,2.46,2.54,4.19,5.63,7.14,7.63,3.4,4.61,8.54-1.13,12.81-2.07,7.64-2.87,15.27-5.8,23.11-8.1,1.3,1.16-3.27,7.07-3.79,9.01-2.44,5.3-3.84,10.91-6.9,16.08a5.533,5.533,0,0,0,1.83,2.81c.05,1.37,1.22,1.68,2.11,2.33,11.93,8.85,22.88,18.93,34.44,28.13a1.77,1.77,0,0,1-1.91.84c-2.43-.26-4.69.65-7.16.01-4.17.06-8.41.6-12.53-.01-4.28-.15-10.52-2.79-13.34,1.7-5.93,10.56-7.2,22.83-11.81,33.92-4.76-5.76-6.31-14.8-9.08-21.98-.86-2.36-1.04-8.08-4.72-5.04a191.457,191.457,0,0,1-43.58,12.25c3.03-7.03,7.34-15.6,12.64-21.61,1.42-1.96,8.71-8.16,4.09-10.42-3.69-1.7-16-3.88-20.09-5.21-1.72-.95-10.32-4.07-11.76-3.79C1267.66,925.288,1283.03,917.5,1290.5,916.888Zm-2.41,13.86c4.56-.37,8.75,1.45,13.17,2.11,4.22,1.11,8.8.41,12.8,2.16-3.57,4-6.47,8.35-10.73,11.59-2.39,1.77-11.17,6.83-5.1,9.06,5.32-.08,10.31-3.86,15.28-5.66,2.71-.46,9.82-6.56,11.39-3.27a112.619,112.619,0,0,0,5.62,10.44c1.61,2.77,6.31,6.85,6.63,1.86,1.81-3.93-2.17-16.49,2-17.73,4.9.78,9.84.41,14.76.73,10.13-3.27-17.39-12.93-19.48-16.59,2.47-6.13,6.53-11.76,9.27-17.8-.18-9.93-15.76,7.51-19.96,8.49-2.19.64-3.03-3.48-4.43-4.74-.89-2.3-2.99-3.8-4.71-5.49-1.5-3.17-4.06-5.53-6.2-8.27-2.93-2.6-3.89-10.1-7.87-4.05-.6,3.96,1.53,7.65,1.61,11.6,0,3.92.96,7.8,1.53,11.7-.16,2.03-3.52,2.13-4.97,3.18a39.892,39.892,0,0,0-13.08,6.62C1283.64,928.438,1285.89,931.1,1288.09,930.748Z" fill="#f5c455"/>
        <path id="Path_7" data-name="Path 7" d="M1308.78,919.418c.43,1.7-1.77.67-13,7.46,7.25,1.43,18.21,3.03,25.63,3.96.78,1.94-1.94,5.92-2.91,6.64-2.36,2.35-4.07,4.94-6.26,7.55,4.4.18,10.05-6.28,14.23-3.86,2.48,1.99,3.34,7.37,6.06,9.7,1.03-5.56.71-11.52,1.36-12.89.77-1.63,2.6-.89,11.82-.43.08-.11.16-.21.24-.32-4.96-1.94-8.89-6.59-13.79-8.02-3.65-.97-3.31-1.6-3.9-4.58,1.13-1.1,3.88-7.49,3.59-8.38-3.68,1.13-6.24,3.74-9.07,6.18-2.46-.23-3.01-1.86-4.63-3.45-4.97-4.33-7.54-11.22-12.14-15.62C1306.27,914.688,1308.43,918.008,1308.78,919.418Zm-7.52,13.44c-4.42-.66-8.61-2.48-13.17-2.11-2.2.35-4.45-2.31-2.47-4.06a39.892,39.892,0,0,1,13.08-6.62c1.45-1.05,4.81-1.15,4.97-3.18-.57-3.9-1.53-7.78-1.53-11.7-.08-3.95-2.21-7.64-1.61-11.6,3.98-6.05,4.94,1.45,7.87,4.05,2.14,2.74,4.7,5.1,6.2,8.27,1.72,1.69,3.82,3.19,4.71,5.49,1.4,1.26,2.24,5.38,4.43,4.74,4.2-.98,19.78-18.42,19.96-8.49-2.74,6.04-6.8,11.67-9.27,17.8,2.09,3.66,29.61,13.32,19.48,16.59-4.92-.32-9.86.05-14.76-.73-4.17,1.24-.19,13.8-2,17.73-.32,4.99-5.02.91-6.63-1.86a112.619,112.619,0,0,1-5.62-10.44c-1.57-3.29-8.68,2.81-11.39,3.27-4.97,1.8-9.96,5.58-15.28,5.66-6.07-2.23,2.71-7.29,5.1-9.06,4.26-3.24,7.16-7.59,10.73-11.59C1310.06,933.268,1305.48,933.968,1301.26,932.858Z" fill="#001d33"/>
      </g>
    </g>
    <path id="Path_8" data-name="Path 8" d="M1383.858,871.682c-.391,1.548-1.958,2.13-2.771,3.287-1.54,2.831-4.57,4-6.6,6.4-1.113,1.251-2.285-.668-3.433.33-2.011,1.495-4.254-1.756-2.278-3.273C1372.194,877.022,1381.423,865.811,1383.858,871.682Z" fill="#001d33"/>
    <path id="Path_9" data-name="Path 9" d="M1490.537,887.772c-1.368,3.143-2.584,4.9-3.383,9.7-.068.409-.1.655-.407.844a26.8,26.8,0,0,1-10.956,3.55c-4.112.224-4.244-.974-4.248-1.7-.015-2.367,4-2.209,4.46-2.256s.342-2.173-.088-2.5-4.626,1.524-4.822-1.638c-.037-2.062,2.959-2.048,4.272-2.158.384-.323.263-2-.158-2.606-.611-.084-2.574.117-3.273-.072a2.309,2.309,0,0,1-2.231-2.733c.218-2.1,3.39-2.343,5.062-1.642a25.281,25.281,0,0,1,3.56,1.708.4.4,0,0,0,.631-.324,20.314,20.314,0,0,0-.289-3.494,28.114,28.114,0,0,0-5.609-1.389c-3.29-.254-6.585,1.054-7.159,4.3-.2,1.148-.055,4.238,1.607,5.247-1.344,2.145-.348,4.216.94,5.984a4.712,4.712,0,0,0-1.24,4.414c.37,2.6,2.34,3.4,4.659,4.019,5.648,1.376,9.967-.662,15.325-2.52.062,1.127.292,2.173.345,2.657.095.86,3.874.458,3.692-.414a17.908,17.908,0,0,1-.042-6.352,27.466,27.466,0,0,1,3.248-8.883C1494.847,888.713,1490.9,886.929,1490.537,887.772Z" fill="#001d33"/>
    <path id="Path_10" data-name="Path 10" d="M1475.942,842.519a91.54,91.54,0,0,1-11.459,6.115c-4.177,1.615-6.59,2.019-7.794-.081-2.195-3.826,2.35-6.563,4.077-7.422,2.624-1.3,9.711-3.885,12.009-4.92-.461-1.062-2.145-4.3-2.145-4.3-2.621.653-12.482,5.168-14.65,6.8-4.8,3.619-6.062,8.484-4.272,11.923,2.03,3.9,7.5,5.61,14.213,2.426,1.6-.756,10.137-5.037,12-6.5A23.574,23.574,0,0,0,1475.942,842.519Z" fill="#001d33"/>
    <path id="Path_11" data-name="Path 11" d="M1486.374,939.456c-1.366-.147-2.679-.306-3.791-.459-.527-.073-.109-3.8.44-3.737,1.992.232,3.288.285,4.947.574,2.691.468,3.086.672,4.378,2.228,2.863,3.446.091,8.241-1.905,8.829a8.237,8.237,0,0,1-3.967.6c-3.695-.322-7.728-1.173-10.568-1.673-5.433-.956-7.59-1.207-11.523-1.865-.5-.083.167-4.812.68-4.755,4.525.5,7.115,1.192,11.413,1.947,2.8.491,7.182,1.317,9.831,1.485a2,2,0,0,0,2.067-1.225C1488.517,940.683,1487.557,939.584,1486.374,939.456Z" fill="#001d33"/>
    <path id="Path_12" data-name="Path 12" d="M1457.189,971.483c2.093,1.618.553,3.476,5.746,3.838,5.375.374,7.767-1.331,13.734,1.553,4.336,2.1,4.65,8.111,2.732,11.539s-5.938,6.017-10.077,4.629c-2.426-.814-4.686-1.814-5.634-4.554a2.62,2.62,0,0,1,1.612-3.672c.722-.284,2.352.841,2.642,1.605,1.583,4.056,6.449,2.314,7.305-1.707.123-3.212-1.793-4.461-4.432-4.974-2.909-.564-6.7-.235-9.6-.651-3.954-.566-9.75-4.488-7.242-7.282A2.292,2.292,0,0,1,1457.189,971.483Z" fill="#001d33"/>
    <path id="Path_13" data-name="Path 13" d="M1490.876,954.068a10.843,10.843,0,0,0-3.264-2.83,14.092,14.092,0,0,0-5.261-1.521c-3.167-.392-5.824.932-6.659,2.68-1.595,3.337-.508,6.031,2.659,8.429a6.519,6.519,0,0,0-3.881,1.256,10.2,10.2,0,0,0-1.825,2.311,7.056,7.056,0,0,1-.14-1.563,12.612,12.612,0,0,1,.138-1.624c.178-1.224.486-2.423.685-3.426a9.173,9.173,0,0,0-.109-4.846c-.721-2.237-1.913-4.016-5.438-4.591-2.79-.455-6.472.286-7.531,2.972a4.086,4.086,0,0,0,1.162,4.77,6.162,6.162,0,0,0,2.814.772,1.741,1.741,0,0,0,.159-1.161,2.953,2.953,0,0,1-3.034-1.757c-.479-1.066.243-3.146,1.586-3.973s3.883-.662,4.831-.5a6.206,6.206,0,0,1,4.267,4.256,13.368,13.368,0,0,1-.4,4.473c-.5,2.828-1.283,5.333-.608,7.934a10.885,10.885,0,0,0,6.861,7.119c2.793,1.086,5.3.632,8.657-.987a2.3,2.3,0,0,0,.228-.135,5.8,5.8,0,0,0-.884-1.813,12.474,12.474,0,0,1-2.238,1.1,8.76,8.76,0,0,1-5.169.276,7.285,7.285,0,0,1-4.313-3.434,3.957,3.957,0,0,1-.131-3.144,4.586,4.586,0,0,1,2.886-2.95,7.149,7.149,0,0,1,4.646.279c.334.136.683.3,1,.407a2.269,2.269,0,0,0,.422-1.6,11.591,11.591,0,0,0-1.175-.276,8.591,8.591,0,0,1-3.024-1.76c-3.178-2.638-2.259-5.59-1.487-6.514a6.448,6.448,0,0,1,5.228-1.483,13.521,13.521,0,0,1,4.106,1.412,9.293,9.293,0,0,1,2.708,2.235c.184.221.333.456.516.636a2.733,2.733,0,0,0,1.232-1.1C1491.018,954.284,1490.942,954.173,1490.876,954.068Z" fill="#001d33"/>
    <path id="Path_14" data-name="Path 14" d="M1490.887,924.147c-3.726-1.252-7.695-1.349-10.943.68-1.8,1.127-2.656,2.44-3.741,4.7-2.277-2.328-6.319-3.222-8.992-1.551.231.377.339.787.536,1.176a7.887,7.887,0,0,1,4.593-.64c1.649.328,2.563,1.912,3.515,2.6l1.064-.107c.678-1.614,1.98-4.039,3.459-5.095,2.074-1.482,5.146-1.707,7.435-1.463,4.644.758,6.292,3.005,6.1,4.243-.435,2.786-2.595,2.8-6.735,1.9a6.863,6.863,0,0,1-1.953-.863l-.485.944c1.559.809,4.813,1.816,6.746,1.5,2.6-.422,3.252-1.383,3.513-3.109C1495.317,926.947,1493.885,925.354,1490.887,924.147Z" fill="#001d33"/>
    <path id="Path_15" data-name="Path 15" d="M1486.793,866.831c-2.073-1.63-5.845-1.77-8.8-.222-3.067,1.3-4.32,6.005-6.705,8.056-1.325,1.14-3.274.567-5.427.273-.155-.006-.342-.019-.542-.031a4.091,4.091,0,0,0-.44,1.71,9.8,9.8,0,0,0,7.1-.075c4.125-2.385,4.03-8.5,10.012-9.176,2.15-.3,4.3,1.366,5.078,3.386a4.636,4.636,0,0,1-1.461,4.652,6.237,6.237,0,0,1-4.839.142,3.22,3.22,0,0,0-.451,1.532,13.771,13.771,0,0,0,4.654.394c3.071-.461,4.361-3.539,4.287-5.616A7.834,7.834,0,0,0,1486.793,866.831Z" fill="#001d33"/>
    <path id="Path_16" data-name="Path 16" d="M1483.953,853.076c-1.719-2.729-5.6-3.143-9.14-2.114a12.245,12.245,0,0,0-5.2,2.949,6.072,6.072,0,0,0-1.9,3.794c-3.905-.269-6.3.744-7.478,2.2a4.854,4.854,0,0,0,.912,6.856c1.444.975,3.521,1.229,6.039.33a19.485,19.485,0,0,0,3.526-2.169,1.559,1.559,0,0,0-1.243-1.1,6.7,6.7,0,0,1-5.085,2.3c-4.2-.239-4.112-3.674-2.964-5.365a4.8,4.8,0,0,1,5.965-1.32c.4.2.787.59,1.285.289s.3-.86.358-1.275a5.891,5.891,0,0,1,1.583-3.442,10.918,10.918,0,0,1,4.371-2.754,9.593,9.593,0,0,1,4.977-.356c1.637.483,2.859,1.505,3.048,2.619a4.4,4.4,0,0,1-3.051,4.83,10.805,10.805,0,0,1-4.061.669,4.312,4.312,0,0,0,.4,1.635,12.584,12.584,0,0,0,5.56-1.7C1483.894,858.47,1485.446,855.627,1483.953,853.076Z" fill="#001d33"/>
    <path id="Path_17" data-name="Path 17" d="M1468.041,997.607a11.475,11.475,0,0,0-9.06-6.018c-1.866-.222-2.493-.461-2.668-1.527a5.731,5.731,0,0,0-2.338-3.9,5.1,5.1,0,0,0-4.15-1.137,4.362,4.362,0,0,0-3.848,3.729c-.179,2.613,1.065,4.154,2.672,4.736.059.021.584.19.64.21.241-.043.533-.618.58-.962a6.07,6.07,0,0,0-1.005-.509,2.868,2.868,0,0,1-1.536-2.694,2.688,2.688,0,0,1,1.329-2.47,3.8,3.8,0,0,1,5.305.96c1.145,1.43.568,4.173-.414,5.78l.865.783c.691-.618,2.18-1.778,3.447-1.708a10.941,10.941,0,0,1,4.852,1.611c4,2.341,5.112,6.471,3.783,8.306a4.834,4.834,0,0,1-2.717,1.645,5.56,5.56,0,0,1-5.423-1.853c-.495-.514-1.066-1.228-1.583-1.844-.208-.27-1.278.541-1.1.8a17.576,17.576,0,0,0,1.709,2.07,8.492,8.492,0,0,0,1.567,1.295c3.691,1.985,6.991,1.164,8.833-1.156C1469.074,1002.126,1468.893,999.383,1468.041,997.607Z" fill="#001d33"/>
    <path id="Path_18" data-name="Path 18" d="M1311.8,1037.732c4.857-1.01,8.837,1.521,10.251,6.211,1.331,3.319.028,5.834-1.8,9.031-.678,1.185-2.246,3.655-4.076,2.936-1.207-.551-2.854-1.8-1.43-3.8,2.2-3.089,4.526-5.614,1.848-9.232a1.547,1.547,0,0,0-2.81.61c1.036,6.633-3.218,10.737-8.184,9.568a8.674,8.674,0,0,1-5-4.035c-2.249-4.035-2.584-8.7.508-11.8C1304.014,1034.673,1309.537,1034.268,1311.8,1037.732Zm-3.9,9.284c1.633-.942,1.208-3.264.665-4.74-.65-1.767-2.245-2.86-4.242-1.4-1,1.661-1.156,3.216-.58,4.347C1304.345,1046.421,1305.842,1048.437,1307.894,1047.016Z" fill="#001d33"/>
    <path id="Path_19" data-name="Path 19" d="M1405.413,1042.1c-1-2.459-3.336-9.54-7.229-7.289a4.842,4.842,0,0,0-1.815,6.031c.742,1.618.14,2.538-1.274,3.113-3.25,1.322-4.257-3.894-3.716-6.727.572-3,1.14-4.956,4.029-6.491,4.246-2.256,8.8-1.98,12.442,5.005,3.423,6.557,11.258,17.965,5.711,22.875C1400.845,1069.876,1387.81,1044.715,1405.413,1042.1Z" fill="#001d33"/>
    <path id="Path_20" data-name="Path 20" d="M1433.118,1043.586c-1.7-2.867-3.338-7.138-5.83-10.814-2.34-3.451-7.143-8.941-9.819-5.977-2.829,3.134.681,8.334,3.26,11.359,3.134,3.677,6.086,4.95,8.906,7.964,1.461,1.561.682,2.43.249,3.551-.752.912-3.282.865-5.268-.345-3.713-2.263-5.713-4.578-8.646-8.662-4.126-5.743-7.737-14.147-3.14-18.489,4.271-4.034,11.346-.24,15.805,3.767,3.233,2.905,4.377,5.393,6.035,8.878,1.14,2.4,2.486,4.972,2.619,7.353A2.286,2.286,0,0,1,1433.118,1043.586Z" fill="#001d33"/>
    <path id="Path_21" data-name="Path 21" d="M1391.239,1054.974c-.4-6.451-1.686-10.9-3.846-14.164-1.973-2.98-4.609-4.377-7.478-3.882a6.8,6.8,0,0,0-5.689,4.678c-.553,1.679-.257,3.914.435,6.422a2.188,2.188,0,0,0,4.191-1.257c-.984-3.919-.577-5.382,2.038-6.181,2.532-.773,5.8,4.894,6.4,9.88.369,3.089,1.443,8.281-2.473,9.387-1.909.594-3.058-2.36-3.48-3.82-.531-1.84-1.86-2.405-2.9-2.206-2.285.591-1.993,2.505-1.743,3.709a7.7,7.7,0,0,0,6.278,6.124C1386.542,1064.49,1391.338,1062.448,1391.239,1054.974Z" fill="#001d33"/>
    <path id="Path_22" data-name="Path 22" d="M1371.3,1044.173a7.417,7.417,0,0,0-3.837-4.237c-3.18-1.311-5.957-.206-7.207,2.245a8.848,8.848,0,0,0-1.031,4.534c-.007,1.684,3.5,1.821,3.617-.1a6.888,6.888,0,0,1,.54-2.445c.345-.894,2.19-1.3,2.974-.993,2.681,1.035,2.656,4.263,2.66,7.656,0,3.269-.943,6.364-2.688,6.179-2.6-.277-2.7-1.665-2.864-3.6a1.907,1.907,0,0,0-3.8.336,7.745,7.745,0,0,0,.692,3.741c1.133,2.495,2.9,3.454,4.1,3.625,2.149.308,4.674.045,6.035-2.111a15.083,15.083,0,0,0,2-7.153A18.218,18.218,0,0,0,1371.3,1044.173Z" fill="#001d33"/>
    <path id="Path_23" data-name="Path 23" d="M1352.61,1041.064c-1.557.131-3.077.871-4.171,3.748-.471-2.413-2.1-4.407-4.452-4.422a5.768,5.768,0,0,0-4.881,2.881,6.445,6.445,0,0,0-7.595-3.019,7.173,7.173,0,0,0-3.214,1.958c-2.419,2.771-1.059,6.478-.552,9.8-.932.481-3.874.458-3.836.664a8.2,8.2,0,0,1,.115,1.86c-.021.129,2.425-.276,3.128-.207,7.757.763,8.085,5.143,9.472,7.17a5.311,5.311,0,0,1,2.185-.957,9.325,9.325,0,0,0-3.186-5.212c-3.227-1.781-4.828-2.017-5.786-3.843a10.863,10.863,0,0,1-1.081-4.43c-.025-3.3,1.95-5.386,4.127-5.369,1.907.015,4.76.262,4.978,5.494.024.587.054,2.753.088,3.567a3.753,3.753,0,0,0,2.306.013,26.67,26.67,0,0,1-.02-3.069c.239-2.663.52-5.618,4.144-5.32a4.342,4.342,0,0,1,2.816,2.969,15,15,0,0,1,.221,5.849,16.658,16.658,0,0,0,1.931.04,22.242,22.242,0,0,1,.486-4.9c.463-2.1,1.059-3.922,3.791-3.487a3.691,3.691,0,0,1,1.752,1.759c1.075,2.325-.3,5.659-.315,7.451.466.038,1,.548,1.712.44a42.137,42.137,0,0,0,.8-5.3,8.719,8.719,0,0,0-1.188-4.492A3.689,3.689,0,0,0,1352.61,1041.064Z" fill="#001d33"/>
    <path id="Path_24" data-name="Path 24" d="M1446.038,1020.293c-1.228-.555-3.7-.162-4.2-1.635a1.944,1.944,0,0,0-.6-1.2c-.374-.083-1.6.944-1.346,1.426a4.7,4.7,0,0,0,2.306,1.994c1.68.649,4.026.949,5.4,2.3a4.4,4.4,0,0,1,.29,6.178c-1.73,2.26-5.057,3.546-7.125,1.831-3.748-2.31-9.361-10.087-14.191-14.309-1.266-1.106-3.3-3.07-4.365-3.9-.312.177-1.448,1.347-1.405,1.63a9.379,9.379,0,0,0,1.2,1.075,50.145,50.145,0,0,1,6.689,5.978c4.091,4.146,7.618,11.181,13.821,12.091a7.816,7.816,0,0,0,7.033-3.265C1451.885,1027.109,1451.34,1022.5,1446.038,1020.293Z" fill="#001d33"/>
    <path id="Path_25" data-name="Path 25" d="M1275.1,1036.406c2.791-3.206,6.918-7.1.141-8.128-.608.914-1.147,1.246-1.317,2.432-.071.873-1.556,1-1.444,0,.982-2.8,2.671-5.391,3.934-8.088.242-.572.819-.389,1.149-.724.784,1.216-1.48,2.8-1.618,4.366,3.775.474,5.636,1.791,4.864,5.909-.923,2.006-2.777,3.3-3.929,5.2,4.36,4.929-1.669,13.257-7.481,9.158C1263.671,1042.48,1269.238,1033.5,1275.1,1036.406Zm-2.214,2.179a3.137,3.137,0,0,0-3.033,5.014c1.077,1.261,3.112,2.387,4.654,1.1A3.245,3.245,0,0,0,1272.883,1038.585Z" fill="#001d33"/>
    <path id="Path_26" data-name="Path 26" d="M1288.581,1031.926a13.406,13.406,0,0,0-2.445,3.765,3.887,3.887,0,0,0,1.511.592c.377-.686,1.429-3.111,2.094-3.579a2.922,2.922,0,0,1,4.524,1.085c1.636,2.585-.22,9.806-3.171,13.27-2.183,2.563-6.366,3.545-7.662.266a2.39,2.39,0,0,1,.682-2.633c.439-.5,1.144-1.259,1.684-1.783-.409-.514-.706-.492-1.181-.824a7.4,7.4,0,0,0-2.066,2.064,4.317,4.317,0,0,0-.849,2.78,3.9,3.9,0,0,0,4.465,3.741c2.275-.127,4.281-.491,6-2.539a20.546,20.546,0,0,0,2.781-5.211,16.584,16.584,0,0,0,1.516-7.326C1296.291,1031.959,1291.968,1028.76,1288.581,1031.926Z" fill="#001d33"/>
    <path id="Path_27" data-name="Path 27" d="M1488.325,908.721c-3.927-.633-8.687.45-10.36,3.532a7.625,7.625,0,0,0-5.9-1.433,4.546,4.546,0,0,0-3.93,3.71,5.277,5.277,0,0,0,2.666,5.51,7.443,7.443,0,0,0,6.977,0,2.06,2.06,0,0,0-.488-1.245,6.016,6.016,0,0,1-5.336.49,4.116,4.116,0,0,1-2.29-4.5,3.094,3.094,0,0,1,2.358-2.58,4.861,4.861,0,0,1,5.092,1.186,3.5,3.5,0,0,1,.49,1.806c.391-.014,1.245-.084,1.467-.092-.077-.747-.275-1.14.023-1.765a5.433,5.433,0,0,1,3.07-2.922,11.355,11.355,0,0,1,3.808-.77,10.622,10.622,0,0,1,6.262,1.759,3.934,3.934,0,0,1,.978,5.335c-.817,1.134-2.237,2.345-5.848,2.09a7.822,7.822,0,0,1-2.88-.758c-.317-.122-.953.835-.58,1a8.991,8.991,0,0,0,3.415.91c1.708.1,4.806-.185,6.355-1.633a5.264,5.264,0,0,0,1.615-3.908C1495.168,911.126,1491.833,909.286,1488.325,908.721Z" fill="#001d33"/>
  </g>
</svg>
