<svg id="Group_11158" data-name="Group 11158" xmlns="http://www.w3.org/2000/svg" xmlns:xlink="http://www.w3.org/1999/xlink" width="212.578" height="197.81" viewBox="0 0 212.578 197.81">
  <defs>
    <clipPath id="clip-path">
      <rect id="Rectangle_3895" data-name="Rectangle 3895" width="212.578" height="197.81" fill="none"/>
    </clipPath>
    <clipPath id="clip-path-3">
      <rect id="Rectangle_3890" data-name="Rectangle 3890" width="166.256" height="156.802" fill="none"/>
    </clipPath>
    <clipPath id="clip-path-4">
      <rect id="Rectangle_3891" data-name="Rectangle 3891" width="29.232" height="59.971" fill="none"/>
    </clipPath>
    <clipPath id="clip-path-5">
      <rect id="Rectangle_3892" data-name="Rectangle 3892" width="38.663" height="52.104" fill="none"/>
    </clipPath>
  </defs>
  <g id="Group_11171" data-name="Group 11171" clip-path="url(#clip-path)">
    <g id="Group_11168" data-name="Group 11168">
      <g id="Group_11167" data-name="Group 11167" clip-path="url(#clip-path)">
        <g id="Group_11160" data-name="Group 11160" transform="translate(11.291 6.822)" opacity="0.8">
          <g id="Group_11159" data-name="Group 11159">
            <g id="Group_11158-2" data-name="Group 11158" clip-path="url(#clip-path-3)">
              <path id="Path_11392" data-name="Path 11392" d="M180.536,84.116c.665,3.655.864,7.707-.8,11.116-3.112,8.158-6.086,16.621-9.213,24.756-1.781,4.22-12.89,15.13-13.655,15.933-6.973,5.9-12.646,12.248-20.773,16.208-13.074,9.442-28.181,10.26-44.022,12.913-17.99,3.02-34.5-4.534-50.75-11.95-13.869-4.847-21.6-15.176-24.5-28.3-4.557-20.926-1.132-42.486,6.277-62.356.635-3,4.518-14.687,5.444-17.531,4.985-9.32,15.207-14.3,21.323-22.806C51.442,20.33,68.339,15.23,70.4,14.565A109.06,109.06,0,0,1,90.488,9.642c2.141-.329,4.113-1.269,6.239-.275-3.44,5.39-8,10.314-10.36,16.415a56.769,56.769,0,0,0-6.957,13.838c-.168.543.008,1.193-.65,1.552a14.926,14.926,0,0,1-1.017,5.673c-1.43,4.2-1.17,8.953-2.752,13.013-1.8-1.934-9.977-14.1-12.638-9.7-3.4,8.2-3.907,17.263-4.778,26.086-2.515,6.866-11.736,8.15-16.965,12.623-2.661,2.859-13.594,4.381-11.208,9.06,2.064,2.737,5.6,3.57,8.632,4.778,7.133,3.089,10.857,2.179,18.127,5.054,3.02,1.5-6.277,11.728-7.11,14.221-2.431,2.875-3.051,6.46-5.5,9.3a1.419,1.419,0,0,0-.4,1.674c4.817,1.9,15.918-1.881,21.285-3.2,5.031-.436,10.13-.7,14.893-2.6.94-.222,2.171-1.216,2.89-.13,1.369,2.416,2.156,5.015,3.693,7.37,1.46,2.775,1.544,6.323,4.228,8.318,2.164,2.424,2.943,6.078,5.283,8.158,2.905-.841,3.463-4.526,3.433-7.179-.658-7.6,3.746-14.786,6.376-21.736,1.453-2.179,6.4-.948,8.93-2.049,7.791-1.109,15.765-.887,23.487-2.836.008-2.2-1.544-3.83-2.546-5.688-.8-1.292-2.592-1.483-3.632-2.561-2.294-1.193-3.448-3.54-5.1-5.428a137.281,137.281,0,0,0-10.834-9.412c1.384-2.255,3.173-4.312,4.373-6.544-.5-1.216,1.132-2.76-.4-3.54-1.239-1.009-1.8.313-2.852.749-1.973.917-3.012,2.959-4.457,4.549-1.063,1.95-3.318-2.08-4.625-2.347-2.989-.787,9.572-20.788,8.762-23.854-3.578-2.806-11.705,2.821-16.369,3.387a64.782,64.782,0,0,1,11.331-20.115c3.211-3.976,7.745-6.537,11.4-10.1.566-.673,1.414-.268,1.957-.948,3.395-1.544,6.942-2.852,10.275-4.58,1.177-.543,2.11-.023,3.058.856a120.249,120.249,0,0,0-21.6,16.82c-3.288,2.332-8.869,6.827-5.551,11.055a.9.9,0,0,0,1.521.313c3.333-4.021,8.15-6.506,11.858-10.2,5.161-5.321,11.56-9.4,16.789-14.435.589-.466,1.3-1.376,2.125-.917,1.781,1.292,3.83,2.171,5.352,3.777-4.052,1.07-7.156,3.8-11.048,5.237-4.343,1.843-9.717,6.881-1.032,6.178,4.182-2.255,8.464-5.084,13.3-6.239,3.945-2.225,5.933-1.093,8.746,2.148-20.757,4.7-38.984,18.517-47.8,37.975-.443,2.011,3.586,1.567,3.784.015.069-2.156,2.9-2.447,2.928-4.58,2.034-3.425,5.466-5.986,8.448-8.609,3.3-3.135,6.193-6.751,10.268-8.983,3.93-4.939,7.569-4.87,13.265-6.376a80.91,80.91,0,0,1,14.763-4.22c2.454.367,5.4,4.037,7.118,6-6.537,1.988-14.335,1.261-20.085,5.122-6.881,3.433-13.372,7.722-20.245,11.162-2.729,1.032-9.167,5.061-8.593,8.2-.008,1.491,1.56.313,2.08,1.132A89.222,89.222,0,0,1,150.833,66.6c2.684-1.078,5.038-3.708,8.112-3.089,2.8-3.058,10.612-.359,15.123-1.942,3.593-.436,5.015,9.052,5.367,11.789-5.207.612-10.291.528-15.451,1.3-4.947.742-9.4,3.257-14.412,3.754-8.846,3.945-18.227,6.957-26.033,12.883-1.139.963-2.546,4.954-.145,5.222,1.1-.428,2.737.849,3.395-.742,4.7-5.673,15.788-9.6,22.653-12.539,3.288-2.1,7.6-2.148,11.353-2.3,5.879-.214,11.8-.68,17.684-.979,2.8-.3,2.248,2.385,2.057,4.159" transform="translate(-14.768 -8.923)" fill="#fff"/>
            </g>
          </g>
        </g>
        <g id="Group_11163" data-name="Group 11163" transform="translate(74.866 9.429)" opacity="0.8">
          <g id="Group_11162" data-name="Group 11162">
            <g id="Group_11161" data-name="Group 11161" clip-path="url(#clip-path-4)">
              <path id="Path_11393" data-name="Path 11393" d="M122.46,12.333c1.07.841,4.694,3.1,4.694,3.1-5.115,4.595-8.211,12.011-11.95,17.539-3.9,6.132-4.32,13.945-6.621,20.788-.665,3.976-1.827,7.86-2.653,11.8-.459,2.179-1.7,4.067-1.024,6.376l-1.736.367c-.076-1.109-1.078-1.369-1.6-2.041-.206-1.269-1.269-1.934-1.973-2.852-3.142-2.836-.94-7.592-.757-11.292.038-1.9,1.254-3.356,1.384-5.283,1.047-3.425,1.865-6.927,3.463-9.993,3.349-5.681,7.164-11.032,10.658-16.705,1.82-2.951,4.236-6.246,4.014-6.4a31.558,31.558,0,0,1,4.1-5.405" transform="translate(-97.923 -12.333)" fill="#fff"/>
            </g>
          </g>
        </g>
        <g id="Group_11166" data-name="Group 11166" transform="translate(86.33 15.538)" opacity="0.8">
          <g id="Group_11165" data-name="Group 11165">
            <g id="Group_11164" data-name="Group 11164" clip-path="url(#clip-path-5)">
              <path id="Path_11394" data-name="Path 11394" d="M151.58,29.528c-4.733,1.973-6.873,6.812-11.109,9.457-6.514,4.006-11.193,9.878-14.932,16.476-3.051,4.366-4.45,9.557-7.217,14.068-.742,2.317-3.3,2.362-5.405,2.9,2.905-18.464,9.916-37.539,21.889-52.1,1.881.726,3.112,2.294,5.008,3.165-5.7,4.687-19.167,16.407-13.594,24.267C130,39.7,138.185,34.36,142.688,26.6c.321-2.492,7.577,2.171,8.892,2.928" transform="translate(-112.917 -20.323)" fill="#fff"/>
            </g>
          </g>
        </g>
        <path id="Path_11395" data-name="Path 11395" d="M95.64,110.2c1.239,1.216,1.659,2.462,3.54,2.638,2.164-1.865,4.121-3.861,6.934-4.725.222.68-1.881,5.566-2.745,6.407.451,2.278.191,2.76,2.982,3.5,3.746,1.093,6.751,4.648,10.543,6.132-.061.084-.122.161-.183.245-7.049-.352-8.448-.917-9.037.329-.5,1.047-.252,5.6-1.04,9.855-2.08-1.781-2.737-5.895-4.633-7.416-3.2-1.85-7.515,3.089-10.879,2.951,1.674-2,2.982-3.976,4.786-5.772.742-.55,2.821-3.593,2.225-5.077-5.673-.711-14.052-1.934-19.6-3.028,8.586-5.191,10.268-4.4,9.939-5.7-.268-1.078-1.919-3.616-2.118-12.279,3.517,3.364,5.482,8.632,9.282,11.942" transform="translate(-18.492 -23.134)" fill="#953430"/>
        <path id="Path_11396" data-name="Path 11396" d="M56.008,85.463c-5.711.466-17.462,6.422-20.849,10.749,1.1-.214,7.676,2.171,8.991,2.9,3.127,1.017,12.539,2.684,15.36,3.983,3.532,1.728-2.041,6.468-3.127,7.967-4.052,4.595-7.347,11.147-9.664,16.522a146.376,146.376,0,0,0,33.319-9.366c2.814-2.324,2.951,2.049,3.609,3.853,2.118,5.489,3.3,12.4,6.942,16.8,3.525-8.479,4.5-17.86,9.029-25.933,2.156-3.433,6.927-1.414,10.2-1.3,3.15.466,6.392.054,9.58.008,1.888.489,3.616-.206,5.474-.008a1.353,1.353,0,0,0,1.46-.642c-8.838-7.034-17.21-14.74-26.331-21.507-.68-.5-1.575-.734-1.613-1.781a4.23,4.23,0,0,1-1.4-2.148c2.34-3.953,3.41-8.242,5.275-12.294.4-1.483,3.892-6,2.9-6.889-5.994,1.758-11.827,4-17.669,6.193-3.265.719-7.194,5.107-9.794,1.583-2.255-1.529-3.578-3.892-5.459-5.833-.826-1.391-.895-3.341-2.492-4.182-2.225-3.234-5.168-6.055-6.812-9.671-.329-.535-.742-1.644-1.5-1.537-.994,7.554.092,15.084-.895,22.63.023,3.525.933,10.589-4.534,9.9m120-44.81c8.93,12.271,10.811,31.308,10.138,44.795-.459,9.106-5.023,23.479-7.156,34.573-1.659,8.655-5.359,12.477-9.809,19.626s-10.514,9.649-18.068,16.645c-5.7,5.291-9.723,8.822-16.536,12.11-8.96,4.419-16.766,5.306-26.705,5.528-6.606-.3-14.308.95-21.052,1.707-7.944-.367-18.078-5.813-25.929-7.143-16.6-5.176-22.615-7.684-34.565-17.5-4.664-3.83-14.6-12.042-16.239-16.98-1.7-4.159-4.312-7.882-4.687-12.454-.237-3.318-1.919-6.338-2.943-9.519A70.76,70.76,0,0,1,.166,88.208c2.041-13.165,3.142-26.69,7.645-39.275,5.7-7.233,9.534-15.7,15.26-22.929C35.518,14,51.918,4.054,69.311,2.158,75.634,2.816,80.787-.258,86.98.018c1.231.229,13.456,2.485,18.594,2.714,1.414.161,13.594,2.714,17.1,4.2,7.37,2.294,12.684,6.415,17.921,8.96,5.941,2.9,11.72,4.373,19.205,9.817,5.145,3.739,12.309,9.824,16.216,14.939m.252,52.478c1.659-3.41,1.46-7.462.8-11.116.191-1.774.742-4.457-2.057-4.159-5.879.3-11.8.765-17.684.979-3.754.153-8.066.2-11.353,2.3C139.1,84.079,128.013,88,123.311,93.674c-.658,1.59-2.294.313-3.395.742-2.4-.268-.994-4.259.145-5.222,7.806-5.925,17.187-8.938,26.033-12.883,5.008-.5,9.465-3.012,14.412-3.754,5.161-.772,10.245-.688,15.451-1.3-.352-2.737-1.774-12.225-5.367-11.789-4.511,1.583-12.324-1.116-15.123,1.942-3.073-.619-5.428,2.011-8.112,3.089a89.222,89.222,0,0,0-26.438,15.482c-.52-.818-2.087.359-2.08-1.132-.573-3.142,5.864-7.171,8.593-8.2,6.873-3.44,13.364-7.73,20.245-11.162,5.749-3.861,13.548-3.135,20.085-5.122-1.72-1.965-4.664-5.635-7.118-6a80.91,80.91,0,0,0-14.763,4.22c-5.7,1.506-9.335,1.437-13.265,6.376-4.075,2.232-6.973,5.849-10.268,8.983-2.982,2.622-6.415,5.184-8.448,8.609-.031,2.133-2.859,2.424-2.928,4.58-.2,1.552-4.228,2-3.784-.015,8.815-19.458,27.042-33.273,47.8-37.975-2.814-3.242-4.8-4.373-8.746-2.148-4.84,1.154-9.121,3.983-13.3,6.239-8.685.7-3.31-4.335,1.032-6.178,3.892-1.437,7-4.167,11.048-5.237-1.521-1.606-3.57-2.485-5.352-3.777-.826-.459-1.537.451-2.125.917-5.229,5.038-11.629,9.113-16.789,14.435-3.708,3.693-8.525,6.178-11.858,10.2a.9.9,0,0,1-1.521-.313c-3.318-4.228,2.263-8.723,5.551-11.055a120.249,120.249,0,0,1,21.6-16.82c-.948-.879-1.881-1.4-3.058-.856-3.333,1.728-6.881,3.035-10.275,4.58-.543.68-1.391.275-1.957.948-3.655,3.563-8.188,6.124-11.4,10.1A64.782,64.782,0,0,0,96.5,64.285c4.664-.566,12.791-6.193,16.369-3.387.81,3.066-11.751,23.066-8.762,23.854,1.307.268,3.563,4.3,4.625,2.347,1.445-1.59,2.485-3.632,4.457-4.549,1.055-.436,1.613-1.758,2.852-.749,1.529.78-.107,2.324.4,3.54-1.2,2.232-2.989,4.289-4.373,6.544A137.281,137.281,0,0,1,122.9,101.3c1.651,1.888,2.806,4.236,5.1,5.428,1.04,1.078,2.836,1.269,3.632,2.561,1,1.858,2.554,3.486,2.546,5.688-7.722,1.95-15.7,1.728-23.487,2.836-2.531,1.1-7.477-.13-8.93,2.049-2.63,6.95-7.034,14.136-6.376,21.736.031,2.653-.528,6.338-3.433,7.179-2.34-2.08-3.119-5.734-5.283-8.158-2.684-2-2.768-5.543-4.228-8.318-1.537-2.355-2.324-4.954-3.693-7.37-.719-1.086-1.95-.092-2.89.13-4.763,1.9-9.863,2.164-14.893,2.6-5.367,1.315-16.468,5.1-21.285,3.2a1.419,1.419,0,0,1,.4-1.674c2.447-2.844,3.066-6.43,5.5-9.3.833-2.492,10.13-12.722,7.11-14.22-7.271-2.875-10.994-1.965-18.127-5.054-3.028-1.208-6.567-2.041-8.632-4.778-2.385-4.679,8.548-6.2,11.208-9.06C42.361,82.29,51.582,81.006,54.1,74.14c.872-8.823,1.376-17.883,4.778-26.086,2.661-4.4,10.834,7.768,12.638,9.7,1.583-4.06,1.323-8.808,2.752-13.013a14.925,14.925,0,0,0,1.017-5.673c.658-.359.482-1.009.65-1.552A56.77,56.77,0,0,1,82.89,23.68c2.362-6.1,6.919-11.025,10.36-16.415-2.125-.994-4.1-.054-6.239.275a109.06,109.06,0,0,0-20.092,4.924C64.862,13.13,47.965,18.229,46.39,20c-6.116,8.5-16.338,13.487-21.323,22.806-.925,2.844-4.809,14.534-5.444,17.531C12.215,80.211,8.79,101.771,13.347,122.7c2.905,13.12,10.635,23.449,24.5,28.3,16.254,7.416,32.761,14.97,50.75,11.95,15.841-2.653,30.949-3.471,44.022-12.913,8.127-3.96,13.8-10.306,20.773-16.208.765-.8,11.873-11.713,13.655-15.933,3.127-8.135,6.1-16.6,9.213-24.756M113.884,34.2c4.236-2.645,6.376-7.485,11.109-9.457-1.315-.757-8.571-5.421-8.892-2.928-4.5,7.76-12.684,13.1-16.468,21.155-5.574-7.86,7.89-19.58,13.594-24.267-1.9-.872-3.127-2.439-5.008-3.165C96.246,30.1,89.235,49.178,86.33,67.641c2.1-.535,4.664-.581,5.405-2.9,2.768-4.511,4.167-9.7,7.217-14.068,3.739-6.6,8.418-12.47,14.932-16.476M104.1,12.526s-3.624-2.255-4.694-3.1a31.558,31.558,0,0,0-4.1,5.405c.222.153-2.194,3.448-4.014,6.4C87.8,26.907,83.983,32.258,80.634,37.939c-1.6,3.066-2.416,6.567-3.463,9.993-.13,1.927-1.346,3.387-1.384,5.283-.183,3.7-2.385,8.456.757,11.292.7.917,1.766,1.583,1.973,2.852.52.673,1.521.933,1.6,2.041l1.736-.367c-.68-2.309.566-4.2,1.024-6.376.826-3.945,1.988-7.829,2.653-11.8,2.3-6.843,2.722-14.656,6.621-20.788,3.739-5.528,6.835-12.944,11.95-17.539" transform="translate(0 0)" fill="#002742"/>
        <path id="Path_11397" data-name="Path 11397" d="M66.836,101.762c5.466.688,4.557-6.376,4.534-9.9.986-7.546-.1-15.077.895-22.63.757-.107,1.17,1,1.5,1.537,1.644,3.616,4.587,6.437,6.812,9.671,1.6.841,1.667,2.791,2.492,4.182,1.881,1.942,3.2,4.3,5.459,5.833,2.6,3.525,6.529-.864,9.794-1.583,5.841-2.194,11.675-4.434,17.669-6.193.994.887-2.5,5.405-2.9,6.889-1.865,4.052-2.936,8.341-5.275,12.294a4.23,4.23,0,0,0,1.4,2.148c.038,1.047.933,1.284,1.613,1.781,9.121,6.766,17.493,14.473,26.331,21.507a1.353,1.353,0,0,1-1.46.642c-1.858-.2-3.586.5-5.474.008-3.188.046-6.43.459-9.58-.008-3.272-.115-8.043-2.133-10.2,1.3-4.534,8.074-5.5,17.454-9.029,25.933-3.639-4.4-4.824-11.315-6.942-16.8-.658-1.8-.8-6.178-3.609-3.853a146.376,146.376,0,0,1-33.319,9.366c2.317-5.375,5.612-11.927,9.664-16.522,1.086-1.5,6.659-6.239,3.127-7.967-2.821-1.3-12.233-2.966-15.36-3.983-1.315-.726-7.89-3.112-8.991-2.9,3.387-4.327,15.138-10.283,20.849-10.749m-1.843,10.6c3.486-.283,6.69,1.109,10.069,1.613,3.226.849,6.728.313,9.786,1.651-2.729,3.058-4.947,6.384-8.2,8.861-1.827,1.353-8.54,5.222-3.9,6.927,4.067-.061,7.882-2.951,11.682-4.327,2.072-.352,7.508-5.015,8.708-2.5a86.123,86.123,0,0,0,4.3,7.982c1.231,2.118,4.824,5.237,5.069,1.422,1.384-3-1.659-12.607,1.529-13.555,3.746.6,7.523.313,11.285.558,7.745-2.5-13.3-9.886-14.893-12.684,1.888-4.687,4.992-8.991,7.087-13.609-.138-7.592-12.049,5.742-15.26,6.491-1.674.489-2.317-2.661-3.387-3.624-.68-1.758-2.286-2.905-3.6-4.2-1.147-2.424-3.1-4.228-4.74-6.323-2.24-1.988-2.974-7.722-6.017-3.1-.459,3.028,1.17,5.849,1.231,8.869a62.575,62.575,0,0,0,1.17,8.945c-.122,1.552-2.691,1.628-3.8,2.431a30.5,30.5,0,0,0-10,5.061c-1.514,1.338.206,3.372,1.888,3.1" transform="translate(-10.828 -16.299)" fill="#f5c455"/>
        <path id="Path_11398" data-name="Path 11398" d="M85.9,107.689c.329,1.3-1.353.512-9.939,5.7,5.543,1.093,13.922,2.317,19.6,3.028.6,1.483-1.483,4.526-2.225,5.077-1.8,1.8-3.112,3.777-4.786,5.772,3.364.138,7.684-4.8,10.879-2.951,1.9,1.521,2.554,5.635,4.633,7.416.787-4.251.543-8.808,1.04-9.855.589-1.246,1.988-.68,9.037-.329.061-.084.122-.161.183-.245-3.792-1.483-6.8-5.038-10.543-6.132-2.791-.742-2.531-1.223-2.982-3.5.864-.841,2.966-5.726,2.745-6.407-2.814.864-4.771,2.859-6.934,4.725-1.881-.176-2.3-1.422-3.54-2.638-3.8-3.31-5.765-8.578-9.282-11.942.2,8.662,1.85,11.2,2.118,12.279m-5.749,10.275c-3.379-.5-6.583-1.9-10.069-1.613-1.682.268-3.4-1.766-1.888-3.1a30.5,30.5,0,0,1,10-5.061c1.109-.8,3.677-.879,3.8-2.431a62.575,62.575,0,0,1-1.17-8.945c-.061-3.02-1.69-5.841-1.231-8.869,3.043-4.625,3.777,1.109,6.017,3.1,1.636,2.095,3.593,3.9,4.74,6.323,1.315,1.292,2.921,2.439,3.6,4.2,1.07.963,1.713,4.113,3.387,3.624,3.211-.749,15.123-14.083,15.26-6.491-2.095,4.618-5.2,8.922-7.087,13.609,1.6,2.8,22.638,10.184,14.893,12.684-3.762-.245-7.538.038-11.285-.558-3.188.948-.145,10.551-1.529,13.555-.245,3.815-3.838.7-5.069-1.422a86.114,86.114,0,0,1-4.3-7.982c-1.2-2.515-6.636,2.148-8.708,2.5-3.8,1.376-7.615,4.266-11.682,4.327-4.641-1.7,2.072-5.574,3.9-6.927,3.257-2.477,5.474-5.8,8.2-8.861-3.058-1.338-6.56-.8-9.786-1.651" transform="translate(-15.92 -20.292)" fill="#002742"/>
        <path id="Path_11399" data-name="Path 11399" d="M162.884,66.18c-.3,1.184-1.5,1.628-2.119,2.513-1.177,2.164-3.495,3.06-5.044,4.895-.85.956-1.745-.511-2.625.252-1.537,1.143-3.252-1.343-1.741-2.5,2.61-1.075,9.665-9.646,11.528-5.158" transform="translate(-35.5 -15.279)" fill="#002742"/>
      </g>
    </g>
    <g id="Group_11170" data-name="Group 11170">
      <g id="Group_11169" data-name="Group 11169" clip-path="url(#clip-path)">
        <path id="Path_11400" data-name="Path 11400" d="M267.476,81.077c-1.046,2.4-1.976,3.744-2.586,7.414-.052.313-.079.5-.311.645A20.489,20.489,0,0,1,256.2,91.85c-3.144.171-3.245-.745-3.248-1.3-.011-1.81,3.058-1.689,3.41-1.725s.261-1.661-.067-1.914-3.537,1.165-3.687-1.252c-.028-1.576,2.262-1.566,3.266-1.65.294-.248.2-1.525-.121-1.993-.467-.063-1.968.09-2.5-.054a1.766,1.766,0,0,1-1.706-2.09c.167-1.609,2.592-1.791,3.87-1.255a19.33,19.33,0,0,1,2.722,1.306.309.309,0,0,0,.482-.248A15.521,15.521,0,0,0,258.4,77a21.5,21.5,0,0,0-4.288-1.062c-2.515-.194-5.035.805-5.473,3.288-.155.878-.042,3.239,1.229,4.012-1.028,1.64-.266,3.223.719,4.575a3.6,3.6,0,0,0-.948,3.375c.283,1.984,1.789,2.6,3.562,3.073,4.318,1.052,7.62-.506,11.717-1.927.047.862.223,1.661.264,2.031.073.658,2.962.35,2.823-.317a13.678,13.678,0,0,1-.031-4.856,21,21,0,0,1,2.482-6.791c.316-.606-2.7-1.969-2.979-1.324" transform="translate(-58.531 -17.875)" fill="#002742"/>
        <path id="Path_11401" data-name="Path 11401" d="M252.81,34.916a69.983,69.983,0,0,1-8.761,4.676c-3.193,1.235-5.038,1.543-5.959-.062-1.678-2.926,1.8-5.018,3.118-5.675,2.005-1,7.424-2.969,9.181-3.761-.352-.812-1.639-3.29-1.639-3.29a61.683,61.683,0,0,0-11.2,5.2c-3.673,2.767-4.635,6.486-3.266,9.116,1.551,2.98,5.732,4.289,10.866,1.855a96.942,96.942,0,0,0,9.175-4.966,18,18,0,0,0-1.513-3.092" transform="translate(-55.024 -6.311)" fill="#002742"/>
        <path id="Path_11402" data-name="Path 11402" d="M263.913,133.363c-1.046-.112-2.048-.234-2.9-.352-.4-.055-.085-2.905.336-2.856,1.523.177,2.515.218,3.783.438,2.057.359,2.359.515,3.346,1.7,2.188,2.635.069,6.3-1.456,6.75a6.294,6.294,0,0,1-3.034.46c-2.824-.246-5.908-.9-8.08-1.279-4.154-.731-5.8-.923-8.811-1.427-.378-.063.128-3.678.521-3.635,3.46.381,5.439.912,8.725,1.489,2.141.375,5.492,1.006,7.517,1.135a1.531,1.531,0,0,0,1.58-.936c.107-.553-.625-1.394-1.53-1.491" transform="translate(-58.15 -30.646)" fill="#002742"/>
        <path id="Path_11403" data-name="Path 11403" d="M239.045,166.256c1.6,1.237.423,2.658,4.393,2.934,4.109.286,5.937-1.018,10.5,1.187,3.314,1.6,3.555,6.2,2.089,8.822s-4.54,4.6-7.7,3.539c-1.855-.622-3.583-1.387-4.307-3.482a2,2,0,0,1,1.232-2.807c.551-.217,1.8.643,2.02,1.227,1.21,3.1,4.931,1.769,5.584-1.305.095-2.456-1.37-3.411-3.388-3.8-2.223-.432-5.119-.18-7.342-.5-3.023-.433-7.454-3.431-5.537-5.567a1.752,1.752,0,0,1,2.46-.248" transform="translate(-55.596 -39.053)" fill="#002742"/>
        <path id="Path_11404" data-name="Path 11404" d="M266.346,147.586a8.283,8.283,0,0,0-2.5-2.164,10.769,10.769,0,0,0-4.022-1.163c-2.421-.3-4.452.713-5.09,2.049-1.219,2.551-.388,4.611,2.032,6.445a4.976,4.976,0,0,0-2.966.96,7.809,7.809,0,0,0-1.4,1.768,5.456,5.456,0,0,1-.106-1.2,9.518,9.518,0,0,1,.106-1.242c.136-.936.372-1.852.523-2.619a7,7,0,0,0-.083-3.7,4.59,4.59,0,0,0-4.157-3.511c-2.133-.348-4.948.219-5.759,2.272a3.124,3.124,0,0,0,.889,3.647,4.7,4.7,0,0,0,2.151.59,1.329,1.329,0,0,0,.122-.887,2.26,2.26,0,0,1-2.32-1.344,2.861,2.861,0,0,1,1.212-3.038,6.437,6.437,0,0,1,3.694-.381,4.747,4.747,0,0,1,3.263,3.254,10.247,10.247,0,0,1-.306,3.421c-.385,2.161-.982,4.077-.465,6.066a8.322,8.322,0,0,0,5.245,5.442c2.136.83,4.053.483,6.619-.755a1.77,1.77,0,0,0,.175-.1,4.455,4.455,0,0,0-.677-1.386,9.5,9.5,0,0,1-1.71.841,6.693,6.693,0,0,1-3.952.211,5.571,5.571,0,0,1-3.3-2.625,3.023,3.023,0,0,1-.1-2.4,3.506,3.506,0,0,1,2.206-2.256,5.473,5.473,0,0,1,3.553.213c.255.1.521.232.761.312a1.734,1.734,0,0,0,.323-1.226,8.8,8.8,0,0,0-.9-.211,6.568,6.568,0,0,1-2.312-1.346c-2.43-2.017-1.727-4.274-1.138-4.98a4.928,4.928,0,0,1,4-1.133,10.316,10.316,0,0,1,3.139,1.079,7.107,7.107,0,0,1,2.07,1.71c.141.168.255.348.395.486a2.1,2.1,0,0,0,.942-.84c-.058-.087-.116-.173-.166-.253" transform="translate(-57.142 -33.697)" fill="#002742"/>
        <path id="Path_11405" data-name="Path 11405" d="M268.069,118.83c-2.849-.957-5.883-1.031-8.366.519a7.416,7.416,0,0,0-2.86,3.6c-1.741-1.78-4.831-2.463-6.875-1.185.177.287.259.6.41.9a6.036,6.036,0,0,1,3.512-.489c1.261.252,1.96,1.462,2.687,1.991l.813-.082a10.035,10.035,0,0,1,2.645-3.9,8.677,8.677,0,0,1,5.684-1.119c3.551.579,4.811,2.3,4.662,3.243-.333,2.131-1.984,2.144-5.149,1.45a5.265,5.265,0,0,1-1.493-.659l-.371.722a10.522,10.522,0,0,0,5.158,1.148c1.985-.323,2.486-1.057,2.685-2.377.245-1.622-.849-2.84-3.141-3.762" transform="translate(-58.857 -27.817)" fill="#002742"/>
        <path id="Path_11406" data-name="Path 11406" d="M264.39,61.418c-1.585-1.246-4.469-1.353-6.727-.17-2.346,1-3.3,4.591-5.126,6.158-1.013.872-2.5.433-4.149.209-.118,0-.261-.015-.414-.024a3.146,3.146,0,0,0-.337,1.307,7.489,7.489,0,0,0,5.429-.057c3.154-1.823,3.081-6.5,7.655-7.015a3.907,3.907,0,0,1,3.882,2.588,3.542,3.542,0,0,1-1.116,3.557,4.765,4.765,0,0,1-3.7.109,2.459,2.459,0,0,0-.345,1.171,10.569,10.569,0,0,0,3.558.3,4.142,4.142,0,0,0,3.278-4.294,5.988,5.988,0,0,0-1.886-3.841" transform="translate(-58.307 -14.226)" fill="#002742"/>
        <path id="Path_11407" data-name="Path 11407" d="M260.887,47.352c-1.315-2.086-4.283-2.4-6.988-1.616a9.362,9.362,0,0,0-3.973,2.255,4.642,4.642,0,0,0-1.452,2.9c-2.986-.206-4.815.569-5.717,1.682a3.711,3.711,0,0,0,.7,5.242,5.045,5.045,0,0,0,4.617.252,14.89,14.89,0,0,0,2.7-1.658,1.191,1.191,0,0,0-.95-.844,5.126,5.126,0,0,1-3.888,1.761c-3.215-.183-3.144-2.81-2.266-4.1a3.668,3.668,0,0,1,4.56-1.009c.3.156.6.45.983.221s.229-.658.274-.975a4.5,4.5,0,0,1,1.21-2.632,8.334,8.334,0,0,1,3.342-2.106,7.334,7.334,0,0,1,3.805-.272,3.058,3.058,0,0,1,2.33,2,3.368,3.368,0,0,1-2.333,3.693,8.263,8.263,0,0,1-3.1.511,3.3,3.3,0,0,0,.3,1.25,9.621,9.621,0,0,0,4.251-1.3c1.558-1.135,2.745-3.308,1.6-5.259" transform="translate(-56.976 -10.676)" fill="#002742"/>
        <path id="Path_11408" data-name="Path 11408" d="M245.6,189.519a8.776,8.776,0,0,0-6.928-4.6c-1.427-.17-1.905-.352-2.04-1.167a4.382,4.382,0,0,0-1.788-2.982,3.9,3.9,0,0,0-3.172-.869,3.336,3.336,0,0,0-2.943,2.851,3.284,3.284,0,0,0,2.044,3.621c.044.016.446.145.489.161.184-.033.407-.472.443-.735a4.622,4.622,0,0,0-.769-.389,2.2,2.2,0,0,1-1.174-2.06,2.056,2.056,0,0,1,1.017-1.888,2.9,2.9,0,0,1,4.055.734c.876,1.093.435,3.19-.316,4.419l.661.6a4.442,4.442,0,0,1,2.635-1.306,8.359,8.359,0,0,1,3.71,1.232c3.058,1.789,3.908,4.947,2.892,6.35a3.7,3.7,0,0,1-2.077,1.258,4.253,4.253,0,0,1-4.146-1.417c-.378-.393-.814-.939-1.209-1.41-.159-.206-.978.414-.842.613a13.5,13.5,0,0,0,1.306,1.583,6.553,6.553,0,0,0,1.2.99c2.823,1.518,5.346.89,6.754-.884a4.8,4.8,0,0,0,.2-4.7" transform="translate(-53.853 -42.343)" fill="#002742"/>
        <path id="Path_11409" data-name="Path 11409" d="M91.5,232.036a6.451,6.451,0,0,1,7.837,4.749c1.018,2.538.021,4.46-1.378,6.905-.518.905-1.716,2.794-3.116,2.244-.923-.421-2.182-1.377-1.093-2.9,1.684-2.362,3.46-4.292,1.412-7.057a1.182,1.182,0,0,0-2.148.466c.792,5.071-2.46,8.209-6.257,7.315a6.629,6.629,0,0,1-3.825-3.085c-1.719-3.084-1.976-6.654.389-9.019,2.23-1.953,6.452-2.262,8.18.386m-2.984,7.1c1.249-.719.924-2.5.508-3.624-.5-1.351-1.716-2.187-3.242-1.067a3.458,3.458,0,0,0-.444,3.323c.465.913,1.609,2.454,3.178,1.368" transform="translate(-19.213 -54.183)" fill="#002742"/>
        <path id="Path_11410" data-name="Path 11410" d="M184.833,234.027c-.763-1.88-2.551-7.295-5.526-5.573a3.7,3.7,0,0,0-1.388,4.611,1.548,1.548,0,0,1-.974,2.38c-2.485,1.01-3.255-2.977-2.841-5.143.438-2.292.872-3.789,3.081-4.963,3.246-1.725,6.723-1.514,9.512,3.827,2.617,5.012,8.608,13.735,4.366,17.489-9.722,8.6-19.687-10.633-6.229-12.628" transform="translate(-40.969 -52.831)" fill="#002742"/>
        <path id="Path_11411" data-name="Path 11411" d="M210.593,233.034c-1.3-2.192-2.552-5.457-4.457-8.268-1.789-2.638-5.461-6.836-7.507-4.57-2.163,2.4.521,6.372,2.492,8.684,2.4,2.811,4.653,3.784,6.809,6.089,1.117,1.193.521,1.858.19,2.715-.575.7-2.509.661-4.028-.264-2.838-1.73-4.368-3.5-6.61-6.622-3.155-4.391-5.915-10.816-2.4-14.136,3.265-3.084,8.674-.183,12.084,2.88,2.472,2.221,3.346,4.123,4.614,6.788.872,1.831,1.9,3.8,2,5.622a1.747,1.747,0,0,1-3.189,1.082" transform="translate(-45.547 -50.705)" fill="#002742"/>
        <path id="Path_11412" data-name="Path 11412" d="M169.922,245.6c-.306-4.931-1.289-8.335-2.94-10.829-1.508-2.278-3.524-3.346-5.717-2.968a5.2,5.2,0,0,0-4.349,3.577,8.968,8.968,0,0,0,.333,4.91,1.673,1.673,0,0,0,3.2-.96c-.752-3-.441-4.116,1.558-4.726,1.936-.592,4.437,3.742,4.892,7.553.282,2.362,1.1,6.331-1.891,7.177-1.46.455-2.339-1.8-2.661-2.921a1.99,1.99,0,0,0-2.214-1.686c-1.747.451-1.524,1.915-1.333,2.836a5.887,5.887,0,0,0,4.8,4.681c2.729.632,6.4-.93,6.32-6.644" transform="translate(-36.895 -54.561)" fill="#002742"/>
        <path id="Path_11413" data-name="Path 11413" d="M151.216,237.939a5.67,5.67,0,0,0-2.934-3.239c-2.431-1-4.554-.158-5.51,1.716a6.766,6.766,0,0,0-.788,3.466c-.005,1.288,2.675,1.392,2.765-.076a5.275,5.275,0,0,1,.413-1.87c.264-.683,1.674-.99,2.274-.758,2.05.791,2.031,3.259,2.034,5.853,0,2.5-.721,4.865-2.055,4.723-1.987-.211-2.064-1.273-2.19-2.753a1.458,1.458,0,0,0-2.9.257,5.92,5.92,0,0,0,.529,2.86,4.372,4.372,0,0,0,3.132,2.772c1.643.235,3.573.034,4.615-1.614a11.544,11.544,0,0,0,1.525-5.469,13.93,13.93,0,0,0-.906-5.869" transform="translate(-33.431 -55.162)" fill="#002742"/>
        <path id="Path_11414" data-name="Path 11414" d="M128.609,235.7c-1.19.1-2.353.666-3.189,2.866-.36-1.845-1.608-3.369-3.4-3.381a4.414,4.414,0,0,0-3.732,2.2,4.929,4.929,0,0,0-5.807-2.308,5.477,5.477,0,0,0-2.456,1.5c-1.85,2.119-.81,4.953-.423,7.5-.712.367-2.961.349-2.933.507a6.229,6.229,0,0,1,.088,1.422c-.016.1,1.854-.21,2.391-.158,5.931.583,6.181,3.932,7.243,5.482a4.036,4.036,0,0,1,1.67-.732,7.128,7.128,0,0,0-2.436-3.986c-2.467-1.362-3.691-1.542-4.424-2.938a8.3,8.3,0,0,1-.826-3.387c-.019-2.521,1.491-4.117,3.155-4.1,1.458.011,3.64.2,3.806,4.2.018.449.041,2.106.067,2.727a2.878,2.878,0,0,0,1.764.011,20.218,20.218,0,0,1-.016-2.347c.183-2.036.4-4.3,3.168-4.067a3.319,3.319,0,0,1,2.153,2.269,11.453,11.453,0,0,1,.169,4.472,12.737,12.737,0,0,0,1.477.031,16.954,16.954,0,0,1,.371-3.742c.355-1.6.81-3,2.9-2.666a2.82,2.82,0,0,1,1.339,1.345c.822,1.777-.23,4.326-.241,5.7.357.03.768.419,1.309.336a32.064,32.064,0,0,0,.61-4.052,6.661,6.661,0,0,0-.908-3.434,2.82,2.82,0,0,0-2.885-1.257" transform="translate(-25.115 -55.301)" fill="#002742"/>
        <path id="Path_11415" data-name="Path 11415" d="M222.853,213.465c-.939-.424-2.831-.124-3.21-1.25a1.489,1.489,0,0,0-.457-.919c-.285-.063-1.223.722-1.029,1.091a3.6,3.6,0,0,0,1.763,1.524c1.284.5,3.078.726,4.126,1.762a3.365,3.365,0,0,1,.222,4.723c-1.323,1.728-3.866,2.711-5.448,1.4-2.865-1.766-7.157-7.712-10.85-10.94-.967-.846-2.524-2.347-3.337-2.984-.238.135-1.106,1.029-1.073,1.245a7.16,7.16,0,0,0,.914.822,38.287,38.287,0,0,1,5.114,4.57c3.128,3.17,5.825,8.549,10.567,9.244a5.978,5.978,0,0,0,5.378-2.5c1.791-2.581,1.374-6.1-2.68-7.792" transform="translate(-47.929 -48.945)" fill="#002742"/>
        <path id="Path_11416" data-name="Path 11416" d="M55.947,227.885c2.134-2.452,5.289-5.431.109-6.214-.466.7-.877.953-1.008,1.859-.054.667-1.19.764-1.1,0,.751-2.144,2.041-4.122,3.007-6.184.185-.437.626-.3.879-.554.6.93-1.132,2.141-1.237,3.338,2.885.362,4.309,1.369,3.718,4.518-.706,1.534-2.123,2.526-3,3.974,3.333,3.768-1.277,10.136-5.72,7-4.377-3.1-.121-9.964,4.358-7.74m-1.693,1.666a2.4,2.4,0,0,0-2.319,3.833c.823.964,2.38,1.825,3.559.844a2.481,2.481,0,0,0-1.24-4.677" transform="translate(-11.715 -51.046)" fill="#002742"/>
        <path id="Path_11417" data-name="Path 11417" d="M69.714,226.516a10.247,10.247,0,0,0-1.869,2.878,2.963,2.963,0,0,0,1.155.453,12.29,12.29,0,0,1,1.6-2.737,2.235,2.235,0,0,1,3.459.83c1.251,1.977-.168,7.5-2.424,10.145-1.669,1.96-4.867,2.71-5.858.2a1.826,1.826,0,0,1,.521-2.012c.336-.379.875-.963,1.287-1.364-.313-.393-.54-.375-.9-.629a5.647,5.647,0,0,0-1.58,1.578,3.3,3.3,0,0,0-.649,2.125,2.983,2.983,0,0,0,3.414,2.859,5.723,5.723,0,0,0,4.586-1.94,15.706,15.706,0,0,0,2.126-3.984,12.679,12.679,0,0,0,1.159-5.6c-.132-2.779-3.437-5.225-6.026-2.8" transform="translate(-15.173 -53.102)" fill="#002742"/>
        <path id="Path_11418" data-name="Path 11418" d="M266.308,103.575c-3-.484-6.641.344-7.92,2.7a5.828,5.828,0,0,0-4.514-1.095,3.477,3.477,0,0,0-3,2.836,4.036,4.036,0,0,0,2.038,4.213,5.69,5.69,0,0,0,5.334,0,1.569,1.569,0,0,0-.373-.951,4.6,4.6,0,0,1-4.079.375,3.148,3.148,0,0,1-1.752-3.437,2.365,2.365,0,0,1,1.8-1.973,3.715,3.715,0,0,1,3.892.907,2.681,2.681,0,0,1,.375,1.381c.3-.011.951-.064,1.121-.07-.059-.571-.21-.871.018-1.349a4.155,4.155,0,0,1,2.347-2.235,8.722,8.722,0,0,1,2.911-.589,8.124,8.124,0,0,1,4.788,1.345,3.009,3.009,0,0,1,.748,4.079c-.625.868-1.71,1.793-4.472,1.6a5.98,5.98,0,0,1-2.2-.58c-.242-.093-.728.638-.443.764a6.865,6.865,0,0,0,2.612.7c1.306.075,3.674-.141,4.859-1.248a4.027,4.027,0,0,0,1.235-2.987c-.09-2.538-2.64-3.944-5.323-4.376" transform="translate(-59.054 -24.356)" fill="#002742"/>
      </g>
    </g>
  </g>
</svg>
