<svg xmlns="http://www.w3.org/2000/svg" id="Layer_1" data-name="Layer 1" viewBox="125.43 189.83 275.04 260.13">
  <defs>
    <style>
      .cls-1 {
        fill: #f2d06c;
      }

      .cls-2 {
        fill: #a7483f;
      }

      .cls-3 {
        fill: #0c3454;
      }

      .cls-4 {
        fill: #fff;
        opacity: .8;
      }
    </style>
  </defs>
  <g>
    <path class="cls-4" d="m357.02,297.1c.87,4.78,1.13,10.08-1.04,14.54-4.07,10.67-7.96,21.74-12.05,32.38-2.33,5.52-16.86,19.79-17.86,20.84-9.12,7.72-16.54,16.02-27.17,21.2-17.1,12.35-36.86,13.42-57.58,16.89-23.53,3.95-45.12-5.93-66.38-15.63-18.14-6.34-28.25-19.85-32.05-37.01-5.96-27.37-1.48-55.57,8.21-81.56.83-3.92,5.91-19.21,7.12-22.93,6.52-12.19,19.89-18.71,27.89-29.83,2.06-2.32,24.16-8.99,26.85-9.86,8.57-3.06,17.28-5.04,26.28-6.44,2.8-.43,5.38-1.66,8.16-.36-4.5,7.05-10.46,13.49-13.55,21.47-3.82,5.56-7.04,11.92-9.1,18.1-.22.71,0,1.56-.85,2.03.08,2.52-.44,5.04-1.33,7.42-1.87,5.5-1.53,11.71-3.6,17.02-2.36-2.53-13.05-18.44-16.53-12.69-4.45,10.73-5.11,22.58-6.25,34.12-3.29,8.98-15.35,10.66-22.19,16.51-3.48,3.74-17.78,5.73-14.66,11.85,2.7,3.58,7.33,4.67,11.29,6.25,9.33,4.04,14.2,2.85,23.71,6.61,3.95,1.96-8.21,15.34-9.3,18.6-3.18,3.76-3.99,8.45-7.19,12.17-.66.62-.87,1.44-.52,2.19,6.3,2.49,20.82-2.46,27.84-4.18,6.58-.57,13.25-.92,19.48-3.4,1.23-.29,2.84-1.59,3.78-.17,1.79,3.16,2.82,6.56,4.83,9.64,1.91,3.63,2.02,8.27,5.53,10.88,2.83,3.17,3.85,7.95,6.91,10.67,3.8-1.1,4.53-5.92,4.49-9.39-.86-9.94,4.9-19.34,8.34-28.43,1.9-2.85,8.37-1.24,11.68-2.68,10.19-1.45,20.62-1.16,30.72-3.71.01-2.88-2.02-5.01-3.33-7.44-1.04-1.69-3.39-1.94-4.75-3.35-3-1.56-4.51-4.63-6.67-7.1-4.59-4.32-9.1-8.44-14.17-12.31,1.81-2.95,4.15-5.64,5.72-8.56-.66-1.59,1.48-3.61-.52-4.63-1.62-1.32-2.35.41-3.73.98-2.58,1.2-3.94,3.87-5.83,5.95-1.39,2.55-4.34-2.72-6.05-3.07-3.91-1.03,12.52-27.19,11.46-31.2-4.68-3.67-15.31,3.69-21.41,4.43,3.04-9.49,8.7-18.72,14.82-26.31,4.2-5.2,10.13-8.55,14.91-13.21.74-.88,1.85-.35,2.56-1.24,4.44-2.02,9.08-3.73,13.44-5.99,1.54-.71,2.76-.03,4,1.12-10.17,6.46-19.82,13.44-28.25,22-4.3,3.05-11.6,8.93-7.26,14.46.36.85,1.37,1.08,1.99.41,4.36-5.26,10.66-8.51,15.51-13.34,6.75-6.96,15.12-12.29,21.96-18.88.77-.61,1.7-1.8,2.78-1.2,2.33,1.69,5.01,2.84,7,4.94-5.3,1.4-9.36,4.97-14.45,6.85-5.68,2.41-12.71,9-1.35,8.08,5.47-2.95,11.07-6.65,17.4-8.16,5.16-2.91,7.76-1.43,11.44,2.81-27.15,6.15-50.99,24.22-62.52,49.67-.58,2.63,4.69,2.05,4.95.02.09-2.82,3.79-3.2,3.83-5.99,2.66-4.48,7.15-7.83,11.05-11.26,4.31-4.1,8.1-8.83,13.43-11.75,5.14-6.46,9.9-6.37,17.35-8.34,6.27-2.32,12.71-4.43,19.31-5.52,3.21.48,7.06,5.28,9.31,7.85-8.55,2.6-18.75,1.65-26.27,6.7-9,4.49-17.49,10.1-26.48,14.6-3.57,1.35-11.99,6.62-11.24,10.73-.01,1.95,2.04.41,2.72,1.48,10.25-8.78,22.05-15.49,34.58-20.25,3.51-1.41,6.59-4.85,10.61-4.04,3.66-4,13.88-.47,19.78-2.54,4.7-.57,6.56,11.84,7.02,15.42-6.81.8-13.46.69-20.21,1.7-6.47.97-12.3,4.26-18.85,4.91-11.57,5.16-23.84,9.1-34.05,16.85-1.49,1.26-3.33,6.48-.19,6.83,1.44-.56,3.58,1.11,4.44-.97,6.15-7.42,20.65-12.55,29.63-16.4,4.3-2.75,9.94-2.81,14.85-3.01,7.69-.28,15.44-.89,23.13-1.28,3.66-.39,2.94,3.12,2.69,5.44Z"/>
    <path class="cls-4" d="m255.45,202.16c1.4,1.1,6.14,4.05,6.14,4.05-6.69,6.01-10.74,15.71-15.63,22.94-5.1,8.02-5.65,18.24-8.66,27.19-.87,5.2-2.39,10.28-3.47,15.44-.6,2.85-2.23,5.32-1.34,8.34-.8.17-1.47.31-2.27.48-.1-1.45-1.41-1.79-2.09-2.67-.27-1.66-1.66-2.53-2.58-3.73-4.11-3.71-1.23-9.93-.99-14.77.05-2.48,1.64-4.39,1.81-6.91,1.37-4.48,2.44-9.06,4.53-13.07,4.38-7.43,9.37-14.43,13.94-21.85,2.38-3.86,5.54-8.17,5.25-8.37,2.01-3.02,4.09-6.05,5.36-7.07Z"/>
    <path class="cls-4" d="m288.92,222.19c-6.19,2.58-8.99,8.91-14.53,12.37-8.52,5.24-14.64,12.92-19.53,21.55-3.99,5.71-5.82,12.5-9.44,18.4-.97,3.03-4.32,3.09-7.07,3.79,3.8-24.15,12.97-49.1,28.63-68.15,2.46.95,4.07,3,6.55,4.14-7.46,6.13-25.07,21.46-17.78,31.74,4.95-10.53,15.65-17.52,21.54-27.67.42-3.26,9.91,2.84,11.63,3.83Z"/>
    <path class="cls-2" d="m226.34,303.7c1.62,1.59,2.17,3.22,4.63,3.45,2.83-2.44,5.39-5.05,9.07-6.18.29.89-2.46,7.28-3.59,8.38.59,2.98.25,3.61,3.9,4.58,4.9,1.43,8.83,6.08,13.79,8.02-.08.11-.16.21-.24.32-9.22-.46-11.05-1.2-11.82.43-.65,1.37-.33,7.33-1.36,12.89-2.72-2.33-3.58-7.71-6.06-9.7-4.18-2.42-9.83,4.04-14.23,3.86,2.19-2.61,3.9-5.2,6.26-7.55.97-.72,3.69-4.7,2.91-6.64-7.42-.93-18.38-2.53-25.63-3.96,11.23-6.79,13.43-5.76,13-7.46-.35-1.41-2.51-4.73-2.77-16.06,4.6,4.4,7.17,11.29,12.14,15.62Z"/>
    <path class="cls-3" d="m198.69,301.61c-7.47.61-22.84,8.4-27.27,14.06,1.44-.28,10.04,2.84,11.76,3.79,4.09,1.33,16.4,3.51,20.09,5.21,4.62,2.26-2.67,8.46-4.09,10.42-5.3,6.01-9.61,14.58-12.64,21.61,15.33-2.4,29.35-6.44,43.58-12.25,3.68-3.04,3.86,2.68,4.72,5.04,2.77,7.18,4.32,16.22,9.08,21.98,4.61-11.09,5.88-23.36,11.81-33.92,2.82-4.49,9.06-1.85,13.34-1.7,4.12.61,8.36.07,12.53.01,2.47.64,4.73-.27,7.16-.01.68.1,1.35-.01,1.91-.84-11.56-9.2-22.51-19.28-34.44-28.13-.89-.65-2.06-.96-2.11-2.33-.93-.74-1.5-1.72-1.83-2.81,3.06-5.17,4.46-10.78,6.9-16.08.52-1.94,5.09-7.85,3.79-9.01-7.84,2.3-15.47,5.23-23.11,8.1-4.27.94-9.41,6.68-12.81,2.07-2.95-2-4.68-5.09-7.14-7.63-1.08-1.82-1.17-4.37-3.26-5.47-2.91-4.23-6.76-7.92-8.91-12.65-.43-.7-.97-2.15-1.96-2.01-1.3,9.88.12,19.73-1.17,29.6.03,4.61,1.22,13.85-5.93,12.95Zm156.96-58.61c11.68,16.05,14.14,40.95,13.26,58.59-.6,11.91-6.57,30.71-9.36,45.22-2.17,11.32-7.01,16.32-12.83,25.67-5.83,9.35-13.75,12.62-23.63,21.77-7.46,6.92-12.72,11.54-21.63,15.84-11.72,5.78-21.93,6.94-34.93,7.23-8.64-.39-18.71,1.24-27.53,2.23-10.39-.48-23.65-7.6-33.92-9.34-21.71-6.77-29.58-10.05-45.21-22.89-6.1-5.01-19.1-15.75-21.24-22.21-2.23-5.44-5.64-10.31-6.13-16.29-.31-4.34-2.51-8.29-3.85-12.45-2.89-10.1-3.65-20.72-3-31.17,2.67-17.22,4.11-34.91,10-51.37,7.46-9.46,12.47-20.54,19.96-29.99,16.28-15.7,37.73-28.71,60.48-31.19,8.27.86,15.01-3.16,23.11-2.8,1.61.3,17.6,3.25,24.32,3.55,1.85.21,17.78,3.55,22.36,5.5,9.64,3,16.59,8.39,23.44,11.72,7.77,3.79,15.33,5.72,25.12,12.84,6.73,4.89,16.1,12.85,21.21,19.54Zm.33,68.64c2.17-4.46,1.91-9.76,1.04-14.54.25-2.32.97-5.83-2.69-5.44-7.69.39-15.44,1-23.13,1.28-4.91.2-10.55.26-14.85,3.01-8.98,3.85-23.48,8.98-29.63,16.4-.86,2.08-3,.41-4.44.97-3.14-.35-1.3-5.57.19-6.83,10.21-7.75,22.48-11.69,34.05-16.85,6.55-.65,12.38-3.94,18.85-4.91,6.75-1.01,13.4-.9,20.21-1.7-.46-3.58-2.32-15.99-7.02-15.42-5.9,2.07-16.12-1.46-19.78,2.54-4.02-.81-7.1,2.63-10.61,4.04-12.53,4.76-24.33,11.47-34.58,20.25-.68-1.07-2.73.47-2.72-1.48-.75-4.11,7.67-9.38,11.24-10.73,8.99-4.5,17.48-10.11,26.48-14.6,7.52-5.05,17.72-4.1,26.27-6.7-2.25-2.57-6.1-7.37-9.31-7.85-6.6,1.09-13.04,3.2-19.31,5.52-7.45,1.97-12.21,1.88-17.35,8.34-5.33,2.92-9.12,7.65-13.43,11.75-3.9,3.43-8.39,6.78-11.05,11.26-.04,2.79-3.74,3.17-3.83,5.99-.26,2.03-5.53,2.61-4.95-.02,11.53-25.45,35.37-43.52,62.52-49.67-3.68-4.24-6.28-5.72-11.44-2.81-6.33,1.51-11.93,5.21-17.4,8.16-11.36.92-4.33-5.67,1.35-8.08,5.09-1.88,9.15-5.45,14.45-6.85-1.99-2.1-4.67-3.25-7-4.94-1.08-.6-2.01.59-2.78,1.2-6.84,6.59-15.21,11.92-21.96,18.88-4.85,4.83-11.15,8.08-15.51,13.34-.62.67-1.63.44-1.99-.41-4.34-5.53,2.96-11.41,7.26-14.46,8.43-8.56,18.08-15.54,28.25-22-1.24-1.15-2.46-1.83-4-1.12-4.36,2.26-9,3.97-13.44,5.99-.71.89-1.82.36-2.56,1.24-4.78,4.66-10.71,8.01-14.91,13.21-6.12,7.59-11.78,16.82-14.82,26.31,6.1-.74,16.73-8.1,21.41-4.43,1.06,4.01-15.37,30.17-11.46,31.2,1.71.35,4.66,5.62,6.05,3.07,1.89-2.08,3.25-4.75,5.83-5.95,1.38-.57,2.11-2.3,3.73-.98,2,1.02-.14,3.04.52,4.63-1.57,2.92-3.91,5.61-5.72,8.56,5.07,3.87,9.58,7.99,14.17,12.31,2.16,2.47,3.67,5.54,6.67,7.1,1.36,1.41,3.71,1.66,4.75,3.35,1.31,2.43,3.34,4.56,3.33,7.44-10.1,2.55-20.53,2.26-30.72,3.71-3.31,1.44-9.78-.17-11.68,2.68-3.44,9.09-9.2,18.49-8.34,28.43.04,3.47-.69,8.29-4.49,9.39-3.06-2.72-4.08-7.5-6.91-10.67-3.51-2.61-3.62-7.25-5.53-10.88-2.01-3.08-3.04-6.48-4.83-9.64-.94-1.42-2.55-.12-3.78.17-6.23,2.48-12.9,2.83-19.48,3.4-7.02,1.72-21.54,6.67-27.84,4.18-.35-.75-.14-1.57.52-2.19,3.2-3.72,4.01-8.41,7.19-12.17,1.09-3.26,13.25-16.64,9.3-18.6-9.51-3.76-14.38-2.57-23.71-6.61-3.96-1.58-8.59-2.67-11.29-6.25-3.12-6.12,11.18-8.11,14.66-11.85,6.84-5.85,18.9-7.53,22.19-16.51,1.14-11.54,1.8-23.39,6.25-34.12,3.48-5.75,14.17,10.16,16.53,12.69,2.07-5.31,1.73-11.52,3.6-17.02.89-2.38,1.41-4.9,1.33-7.42.86-.47.63-1.32.85-2.03,2.06-6.18,5.28-12.54,9.1-18.1,3.09-7.98,9.05-14.42,13.55-21.47-2.78-1.3-5.36-.07-8.16.36-9,1.4-17.71,3.38-26.28,6.44-2.69.87-24.79,7.54-26.85,9.86-8,11.12-21.37,17.64-27.89,29.83-1.21,3.72-6.29,19.01-7.12,22.93-9.69,25.99-14.17,54.19-8.21,81.56,3.8,17.16,13.91,30.67,32.05,37.01,21.26,9.7,42.85,19.58,66.38,15.63,20.72-3.47,40.48-4.54,57.58-16.89,10.63-5.18,18.05-13.48,27.17-21.2,1-1.05,15.53-15.32,17.86-20.84,4.09-10.64,7.98-21.71,12.05-32.38Zm-81.59-77.08c5.54-3.46,8.34-9.79,14.53-12.37-1.72-.99-11.21-7.09-11.63-3.83-5.89,10.15-16.59,17.14-21.54,27.67-7.29-10.28,10.32-25.61,17.78-31.74-2.48-1.14-4.09-3.19-6.55-4.14-15.66,19.05-24.83,44-28.63,68.15,2.75-.7,6.1-.76,7.07-3.79,3.62-5.9,5.45-12.69,9.44-18.4,4.89-8.63,11.01-16.31,19.53-21.55Zm-12.8-28.35s-4.74-2.95-6.14-4.05c-1.27,1.02-3.35,4.05-5.36,7.07.29.2-2.87,4.51-5.25,8.37-4.57,7.42-9.56,14.42-13.94,21.85-2.09,4.01-3.16,8.59-4.53,13.07-.17,2.52-1.76,4.43-1.81,6.91-.24,4.84-3.12,11.06.99,14.77.92,1.2,2.31,2.07,2.58,3.73.68.88,1.99,1.22,2.09,2.67.8-.17,1.47-.31,2.27-.48-.89-3.02.74-5.49,1.34-8.34,1.08-5.16,2.6-10.24,3.47-15.44,3.01-8.95,3.56-19.17,8.66-27.19,4.89-7.23,8.94-16.93,15.63-22.94Z"/>
    <path class="cls-1" d="m198.69,301.61c7.15.9,5.96-8.34,5.93-12.95,1.29-9.87-.13-19.72,1.17-29.6.99-.14,1.53,1.31,1.96,2.01,2.15,4.73,6,8.42,8.91,12.65,2.09,1.1,2.18,3.65,3.26,5.47,2.46,2.54,4.19,5.63,7.14,7.63,3.4,4.61,8.54-1.13,12.81-2.07,7.64-2.87,15.27-5.8,23.11-8.1,1.3,1.16-3.27,7.07-3.79,9.01-2.44,5.3-3.84,10.91-6.9,16.08.33,1.09.9,2.07,1.83,2.81.05,1.37,1.22,1.68,2.11,2.33,11.93,8.85,22.88,18.93,34.44,28.13-.56.83-1.23.94-1.91.84-2.43-.26-4.69.65-7.16.01-4.17.06-8.41.6-12.53-.01-4.28-.15-10.52-2.79-13.34,1.7-5.93,10.56-7.2,22.83-11.81,33.92-4.76-5.76-6.31-14.8-9.08-21.98-.86-2.36-1.04-8.08-4.72-5.04-14.23,5.81-28.25,9.85-43.58,12.25,3.03-7.03,7.34-15.6,12.64-21.61,1.42-1.96,8.71-8.16,4.09-10.42-3.69-1.7-16-3.88-20.09-5.21-1.72-.95-10.32-4.07-11.76-3.79,4.43-5.66,19.8-13.45,27.27-14.06Zm-2.41,13.86c4.56-.37,8.75,1.45,13.17,2.11,4.22,1.11,8.8.41,12.8,2.16-3.57,4-6.47,8.35-10.73,11.59-2.39,1.77-11.17,6.83-5.1,9.06,5.32-.08,10.31-3.86,15.28-5.66,2.71-.46,9.82-6.56,11.39-3.27,2.43,5.06,3.23,6.33,5.62,10.44,1.61,2.77,6.31,6.85,6.63,1.86,1.81-3.93-2.17-16.49,2-17.73,4.9.78,9.84.41,14.76.73,10.13-3.27-17.39-12.93-19.48-16.59,2.47-6.13,6.53-11.76,9.27-17.8-.18-9.93-15.76,7.51-19.96,8.49-2.19.64-3.03-3.48-4.43-4.74-.89-2.3-2.99-3.8-4.71-5.49-1.5-3.17-4.06-5.53-6.2-8.27-2.93-2.6-3.89-10.1-7.87-4.05-.6,3.96,1.53,7.65,1.61,11.6,0,3.92.96,7.8,1.53,11.7-.16,2.03-3.52,2.13-4.97,3.18-4.77,1.46-9.12,3.54-13.08,6.62-1.98,1.75.27,4.41,2.47,4.06Z"/>
    <path class="cls-3" d="m216.97,304.14c.43,1.7-1.77.67-13,7.46,7.25,1.43,18.21,3.03,25.63,3.96.78,1.94-1.94,5.92-2.91,6.64-2.36,2.35-4.07,4.94-6.26,7.55,4.4.18,10.05-6.28,14.23-3.86,2.48,1.99,3.34,7.37,6.06,9.7,1.03-5.56.71-11.52,1.36-12.89.77-1.63,2.6-.89,11.82-.43.08-.11.16-.21.24-.32-4.96-1.94-8.89-6.59-13.79-8.02-3.65-.97-3.31-1.6-3.9-4.58,1.13-1.1,3.88-7.49,3.59-8.38-3.68,1.13-6.24,3.74-9.07,6.18-2.46-.23-3.01-1.86-4.63-3.45-4.97-4.33-7.54-11.22-12.14-15.62.26,11.33,2.42,14.65,2.77,16.06Zm-7.52,13.44c-4.42-.66-8.61-2.48-13.17-2.11-2.2.35-4.45-2.31-2.47-4.06,3.96-3.08,8.31-5.16,13.08-6.62,1.45-1.05,4.81-1.15,4.97-3.18-.57-3.9-1.53-7.78-1.53-11.7-.08-3.95-2.21-7.64-1.61-11.6,3.98-6.05,4.94,1.45,7.87,4.05,2.14,2.74,4.7,5.1,6.2,8.27,1.72,1.69,3.82,3.19,4.71,5.49,1.4,1.26,2.24,5.38,4.43,4.74,4.2-.98,19.78-18.42,19.96-8.49-2.74,6.04-6.8,11.67-9.27,17.8,2.09,3.66,29.61,13.32,19.48,16.59-4.92-.32-9.86.05-14.76-.73-4.17,1.24-.19,13.8-2,17.73-.32,4.99-5.02.91-6.63-1.86-2.39-4.11-3.19-5.38-5.62-10.44-1.57-3.29-8.68,2.81-11.39,3.27-4.97,1.8-9.96,5.58-15.28,5.66-6.07-2.23,2.71-7.29,5.1-9.06,4.26-3.24,7.16-7.59,10.73-11.59-4-1.75-8.58-1.05-12.8-2.16Z"/>
  </g>
  <path class="cls-3" d="m292.05,256.41c-.39,1.55-1.96,2.13-2.77,3.29-1.54,2.83-4.57,4-6.6,6.4-1.11,1.25-2.28-.67-3.43.33-2.01,1.49-4.25-1.76-2.28-3.27,3.41-1.41,12.64-12.62,15.08-6.75Z"/>
  <path class="cls-3" d="m358.75,391.67c.82-.17,1.08-.42,1.92-.73.28-.1,1.34-.19,1.68-.18,1.95.07,3.25,0,5.02,1.04.46.27,1,.42,1.47.67,1.01.54,1.6,1.4,1.84,2.53.07.34.24.68.42.99.98,1.56.79,3.17.16,4.75-.6,1.51-1.42,2.91-2.27,4.28-.14.23-.35.41-.52.62-.39.5-.8.98-1.14,1.51-.67,1.07-1.71,2.21-2.66,3-.36.3-.75.19-1.11.02-1.22-.57-2.41-1.45-3.57-2.13-1-.59-1.87-1.4-2.81-2.1-.97-.71-4.77-2.93-5.36-3.61-1.29-1.48-2.46-2.09-4.19-3.07-1.49-.85-3-2.27-4.47-3.16-1.28-.78-4.22-3.42-4.82-3.85-.59-.42-.62-.67-.17-1.27.28-.38,1.87-2.17,2.27-2.76.78-1.16,2.88-3.21,3.18-3.46,2.88-1.95,6.14-2.6,8.77-1.53.9.19,1.84.46,2.63.92.84.49,1.54,1.24,2.27,1.91,1.07.97,1.49,2.2,1.41,3.64-.04.62.01,1.24.02,1.96Zm4.46,12.21c.51-.7.97-1.37,1.46-2.01.89-1.17,1.72-1.84,1.3-3.43-.05-.2-.07-.94-.11-1.15-.11-.6-1-1.32-1.66-1.61-.65-.28-1.43-1-2.14-.87-1.24.23-2.06.26-3.21.77-.6.27-1.51,1.36-1.99,1.79-.37.33-.77.57-.87,1.07-.05.21.52.9.79,1.11,1.77,1.36,4.32,2.83,6.1,4.16.07.05.16.08.32.17Zm-11.69-8.56c.22-.34.73-1.01.87-1.32.3-.65.51-1.35.86-1.98.53-.98.83-1.95.61-3.09-.17-.84-1.53-2.45-2.39-2.39-1.58.1-3.5.15-4.67,1.44-.02.02-.05.03-.07.05-.52.53-1.34,1.44-1.85,1.98-.29.31-.23.59.14.81.36.21.79.37,1.07.66,1.32,1.33,3.89,2.69,5.43,3.85Z"/>
  <path class="cls-3" d="m361.94,234.15c-3.26.77-5.96-.72-7.48-3.05-1.82-2.77-1.98-6.73.57-9.46.68-.59,2.44-2.08,4.35-3.49,2.52-1.87,5.84-3.55,6.7-2.89.68.46,1.46,1.69,1.84,2.6.38,1-.82,2.05-2.33,3.01-1.59,1.03-3.52,1.96-4.23,2.66-1.8,1.73-2.1,3.49-1.48,4.59.8,1.42,2.57,1.71,5.76-.52,1.74-1.21,3.28-2.07,5.1-3.16,1.22-.75,2.06-.31,2.73.49.9,1.08,1.03,1.57,1.39,2.29.81,1.63-.9,2.33-2.5,3.38-1.52.99-3.4,1.96-3.86,3.34-.21.63-.32,1.22.13,2.11.15.52,2.08,1.32,2.56.99,1.12-.48,3.37-2.79,6.53-4.55.74-.41,1.89.25,2.75,1.23,1.02,1.18,1.62,2.82.6,3.66-1.3,1.09-2.63,2.14-3.98,3.16-1.71,1.3-2.88,2.84-4.61,4.07s-2.69,1.58-4.39,2.78c-.59.41-1.09.34-1.57-.03-.8-.6-1.74-1.35-2.33-2.53-.53-1.06-.66-1.82.26-2.42.45-.3,1.64-1.31,1.63-1.57-1.52-.22-2.22-.81-3.12-2.05-.83-1.15-1.5-2.66-1.02-4.66Z"/>
  <path class="cls-3" d="m395.46,339.46c-2.36.3-5.81-.37-8.56-.47-.44-.01-5.58-.39-7.82-.45-3.42-.41-6.87-.38-10.28-.93-.7-.08-1.65-.31-1.79-1.1.01-1.29-.17-3.55,1.76-3.2,1.16.11,3.37.18,4.54.37,2.22.21,3.44.28,5.67.25.61.04.56-.57.56-1-.51-6.6,7.17-11.7,12.78-10.32,1.65.53,4.24,1.11,4.34,2.04.1,1.02.02,2.93-.36,3.56-.23.38-1.04.39-3.42-.32-2.67-1.11-6.25-1.29-8.41,1.35-.48.49-1.02,2.57-.09,3.5,1.71,1.71,2.8,1.92,5.78,2.2,1.6.15,5.37-.77,5.85-.06s.28,3.26-.56,4.56Z"/>
  <path class="cls-3" d="m372.42,281.39c.02-.47.3-1.47.88-1.6,1.4-.49,5.7-1.01,6.99-1.34.97-.25,1.47-.23,1.36-1.23-.19-1.69-.96-4.77-.87-5.9s.84-2.65,2.06-3.94,2.93-2.38,4.95-2.8c1.91-.4,4.77-1.24,6.46-.91.56.11,1,.47,1.21,1.24.12.97,1.16,3.66-.6,4.22-2.05.65-3.82.77-5.3,1.14-1.22.59-2,1.53-2.34,2.58-.39,1.2-.2,2.56.55,3.76.45.73,2.1.57,3.85.18s3.6-.99,4.46-1.15c1.5-.28,1.92,1.52,2.09,2.41.31,1.64.86,2.88-1.34,3.32-2.28.32-4.5.72-6.7,1.14-2.97.57-5.91,1.19-8.9,1.72-2.17.39-4.36.73-6.63.98-1.56.17-2.05-1.57-2.21-3.78Z"/>
  <path class="cls-3" d="m196.76,429.69c.2.36.39.68.56,1.01.19.39.28.81.12,1.22-.17.43-.04.77.2,1.11.56.8,1.04,1.64,1.79,2.31.36.32.64.79.83,1.25.59,1.42,1.74,1.74,3.1,1.71.89-.02,1.79-.05,2.68-.09.24,0,.48-.1.71-.06.6.09.96-.21,1.23-.68.43-.76.8-1.52.79-2.45,0-1.06-.34-1.63-1.33-1.95-2.21-.72-4.23-1.78-6.08-3.18-.13-.1-.28-.17-.38-.29-.78-.99-1.54-2.03-1.78-3.29-.18-.93-.16-1.89-.23-2.84-.06-.84.27-1.56.71-2.23.22-.33.47-.65.72-.96.65-.8,1.38-1.41,2.52-1.48.78-.04,1.54-.37,2.32-.5.43-.07.89.03,1.34.04.3,0,.59-.02,1.08-.04,1.09.76,2.49,1.29,3.95,1.68.31.08.6.17.75-.19.26-.66.8-.78,1.41-.82.21-.01.41-.06.62-.1.28.51.31.98.11,1.48-.48,1.2-.93,2.42-1.41,3.62-.09.22-.25.41-.4.59-.57.72-1.15,1.44-1.77,2.21-.03,0-.14,0-.23-.03-.72-.2-.86-.43-.67-1.14.34-1.33.36-1.36-.78-2-.97-.55-1.98-1.01-2.98-1.5-.16-.08-.36-.13-.53-.11-.76.06-1.53.14-2.29.24-.82.11-1.4.94-1.28,1.77.21,1.44.95,2.53,2.08,3.42,1.3,1.02,2.69,1.9,4.22,2.52,1.18.48,2.09,1.28,2.9,2.18.63.7.77,1.65.84,2.59.06.84-.19,1.62-.35,2.42-.08.39-.09.78-.12,1.18-.02.26,0,.53-.04.79-.17,1.11-.68,1.62-1.78,1.84-.39.08-.76.2-1.15.29-.37.1-.71.36-1.14.22-.09-.03-.22-.01-.31.04-1,.54-2.08.29-3.12.34-1.09.05-2.18,0-3.21-.41-1.54-.6-3.03-1.3-4.11-2.62-.3-.36-.51-.79-.79-1.17-.39-.51-.41-.5-.86-.03-.4.42-.81.82-1.19,1.26-.26.31-.56.39-.92.27-.25-.09-.49-.2-.72-.34-.38-.23-.56-.57-.4-1.01.33-.95.6-1.93,1.04-2.83.73-1.5,1.57-2.95,2.39-4.4.38-.67.64-.8,1.36-.86Z"/>
  <path class="cls-3" d="m219.01,429.44c.23,0,.61-.03.99,0,.6.04,1.2.12,1.8.18.64-.55,1.36-.11,2.04-.19.05,0,.09-.05.18-.11.08-.35.13-.74.25-1.12.18-.58.37-1.16.6-1.71.33-.78.71-1.54,1.06-2.31.06-.14.1-.31.09-.47-.06-.67.24-1.18.61-1.71.32-.46.71-.7,1.2-.55.63.19,1.25.45,1.81.78.63.37.7,1.03.53,1.68-.46,1.72-.94,3.43-1.42,5.13-.08.28-.23.53-.34.81-.09.23-.17.47-.29.82.37.03.62.06.87.08.43.04.78.17,1.12.5.34.34.83.55,1.26.79.28.15.58.24.93.39.04.62.11,1.21.12,1.82.02.53-.1.7-.6.77-.57.08-1.16.12-1.74.09-.82-.06-1.63-.2-2.46-.31-.55.48-.45,1.19-.49,1.78-.12,1.68-.07,3.38.21,5.04.31,1.79,1.25,3.16,2.99,3.89.34.14.67.31.98.51.47.31.99.35,1.52.31.79-.07,1.56-.21,2.3-.5.46-.18.73-.52.95-.92.27-.48.55-.96.79-1.45.23-.47.49-.94.63-1.44.28-1.06,1.92-1.25,2.58-.55.39.42.81.89,1,1.41.24.65.28,1.39.37,2.09.06.46-.21.76-.6.93-.82.37-1.39,1.04-2.04,1.63-.23.21-.44.46-.71.61-1.18.65-2.29,1.43-3.68,1.64-1.81.28-3.6.28-5.3-.4-.74-.29-1.46-.73-2.02-1.36-.47-.53-1-1.01-1.48-1.55-.21-.23-.39-.52-.48-.81-.22-.8-.64-1.48-1.03-2.2-.57-1.05-.86-2.2-.97-3.39-.12-1.21-.22-2.42-.26-3.63-.02-.6.1-1.21.18-1.82.03-.24.13-.46.17-.7.08-.57.02-.67-.53-.9-.9-.38-1.82-.72-2.72-1.12-.33-.15-.68-.35-.91-.61-.41-.47-.72-1.02-.07-1.84Z"/>
  <path class="cls-3" d="m259.75,447.35c-.48-.67-.59-1.73-.61-2.74-.03-1.27-.05-2.54-.09-3.8-.05-1.46-.03-5.02-.12-5.15-.16-.21-.37-2.75-3.22-4.13-.61-.49-3.7-1.09-5.14-.56-1.81.55-2.33.71-3.26,1.39-.04,0-.14.15-.27.37.69.69,1.42,1.35,2.12,2.02.61-.46,1.66-.87,3.44-.71,2.38,0,3.14,1.17,3.07,3.59-.31.37-2.49-.38-4.81-.02-2.15.6-3.17,1.46-3.66,2.32-.93,1.63-1.12,3.58-.23,5.46,1.97,3.26,3.71,3.09,5.37,3.35.47,0,2.61-.12,3.08-.19,1.64-.24,1.74-1.55,1.89-1.2.24.58.43,1.2.67,1.49.85,1.01,2.46.5,3.04.25-.54-.64-.77-1.05-1.26-1.74Zm-3.71-2.93c-.19.97-1.26,1.2-1.69,1.19-.84.01-1.4.16-2.64-.27-.98-.32-1.47-1.03-1.43-2.64.12-1.51.52-1.9,2.03-2.5.53-.27,1.11-.18,1.81-.16.88.13,1.56.43,1.9,1.27.46,1.17.27,1.91.03,3.1Z"/>
  <path class="cls-3" d="m306.32,441.7c-.94.11-1.91-.45-2.85-.96-1.23-.67-2.54-1.26-3.44-2.39-.3-.37-.38-.92-.67-1.3-.27-.35-.78-.53-1.03-.9-.27-.41-.44-.93-.53-1.42-.31-1.69-.26-3.36.02-5.07.39-2.3,1.77-3.82,3.53-5.11.73-.53,1.55-.94,2.32-1.41.03-.02.06-.04.1-.05,1.29-.49,2.66-.38,3.96-.27,1.17.1,2.33.69,3.13,1.6.74.83,1.27,1.84,1.88,2.78.36.55.68,1.11,1.04,1.66.97,1.5,1.39,3.1,1.45,4.91.08,2.64-1.06,4.6-2.92,6.24-1.64,1.46-3.63,1.88-5.99,1.69Z"/>
  <path class="cls-3" d="m383.47,371.76c.84,1.54,1.11,2.7,1.27,4.15.24,2.1.06,4.04-.85,6.12-1.55,3.56-4.2,5.65-8.79,5.35-2.17-.14-6.59-.79-8.32-2.61-1.36-1.43-2.71-3.29-3.16-5.49-.35-1.75.22-4.74,2.02-5.89,2.23-1.56,4.79-2.3,8.15-1.88.54.07,1.08.03,1.47.52.24.31.29.63.16.98-.45,1.19-1.32,2.94-1.74,4.14-.65,1.87-1.08,3.39-2.03,5.2-.22.42-.32,1.15.15,1.38,1.27.62,2.82.83,4.24.9,2.69-.41,4.75-2.25,5.61-5.03.46-1.38.34-1.56.43-2.54.12-1.22-.1-2.36-.68-3.22-.42-.62-.7-1.05-.79-1.71-.11-.76.46-1.6,1.02-1.73.47-.11.9.06,1.83,1.34Zm-14.82,10.12c.95-1.13,1.24-2.87,2.02-4.12.48-.87,1.25-3.35,1.25-3.35-1.39-.23-3.06.15-3.86.73-.95.68-2.11,2.98-1.09,4.49.61.9.84,1.54,1.68,2.25Z"/>
  <path class="cls-3" d="m389.26,315.09c-2.04-.36-3.95-.33-5.86-.45-1.84-.11-6.51.05-8.4-.27-.7.01-1.36.27-2.1-.14-.5-.28-.26-2.12-.23-2.47.05-.6.56-.74.92-.82.87-.19,1.71-.16,2.58,0,.47.08.95.04,1.43.04.13,0,2.58.11,3.62.36.8.19,4.69.22,5.84.35.88.1,3.49.17,3.92.19,1.11.04,2.22.1,3.34.13.6.02,3.28,0,3.8.31.74.47.35,3.07-.23,3.16-.75.12-1.83-.07-2.59-.07-1.4,0-5.51-.26-6.02-.32Z"/>
  <path class="cls-3" d="m373.43,256.21c-.35-.86-.43-1.75-.44-2.65,0-1.1.55-2,1.22-2.79.68-.81,1.46-1.53,2.24-2.24.74-.68,1.3-.56,1.79.32.36.64.65,1.33,1.04,1.96,1.15,1.87,2.34,3.72,3.5,5.58.18.29.28.62.45.91.32.55.65,1.09.99,1.63.18.27.43.26.7.12,1.64-.83,3-2,4.06-3.5.86-1.51.65-4.3.3-5.69-.63-1.47-1.25-2.29-2.38-3.02-.57-.37-1.08-.8-1.8-.89-.22-.03-.45-.35-.6-.58-.16-.25.11-.73.41-.72.4.01.71.04,1.3.22.44.22.73.48,1.01.59.94.56,2.25,1.67,2.97,3.14.47,1.33.98,3.7.5,5.56-.18.86-.5,1.71-.99,2.48-.86,1.36-2.1,2.3-3.37,3.22-.54.39-1.05.8-1.59,1.18-.14.1-.34.2-.5.19-.67-.05-1.24.25-1.82.49-1.47.61-2.9.45-4.29-.2-.61-.29-1.25-.58-1.76-1.02-.88-.75-1.67-1.61-2.18-2.67-.08-.16-.58-1.21-.75-1.63Zm4.03-6.29c-.82-.15-1.23.46-1.69.9-1.14,1.08-1.96,2.32-1.53,4,.16.64.35,1.28.64,1.87,1.18,2.38,3.04,3.84,5.76,3.98.95.05,1.86-.23,2.64-.76-1.96-3.36-3.87-6.65-5.81-9.98Z"/>
  <path class="cls-3" d="m370.81,366.38c-.33-.4-.39-.81-.26-1.33.52-2.1.99-4.22,1.48-6.33.09-.4.22-.79.36-1.25-1.13-.31-1.93-1.15-3.07-1.3-.3-.04-.57-.31-.85-.47-.6-.33-1.21-.64-1.81-.97-.26-.14-.54-.27-.77-.46-.29-.25-.42-.56-.24-.96.17-.37.48-.45.82-.39.26.04.51.16.74.28,1.24.65,2.46,1.33,3.7,1.97.52.27,1.09.47,1.73.74.14-.23.33-.46.42-.72.42-1.23.83-2.48,1.22-3.72.06-.19.03-.41.07-.62.04-.23.1-.46.18-.68.13-.35.46-.35.76-.35.34,0,.44.27.48.54.16.92-.19,1.76-.44,2.61-.31,1.05-.7,2.08-1.09,3.19.28.11.48.22.7.26.87.16,1.77.23,2.63.47,2.16.59,4.29.5,6.43-.04,1.61-.41,3.21-.82,4.82-1.24,1.36-.36,2.37-1.7,2.37-3.18,0-1.6-.42-3.11-1.13-4.54-.24-.48-.12-.78.38-.78.38,0,.77.09,1.13.21.13.04.25.26.28.41.29,1.64.61,3.27.83,4.92.19,1.49-1.11,3.83-2.44,4.39-.81.34-1.69.53-2.54.76-1.03.28-2.07.5-3.1.78-2.11.57-4.23.46-6.35.09-1.2-.21-2.39-.45-3.59-.66-.8-.14-.98,0-1.16.82-.4,1.83-.78,3.66-1.18,5.49-.11.52-.25,1.04-.39,1.55-.14.51-.29.56-1.14.48Z"/>
  <path class="cls-3" d="m397.07,289.8c.23-.26.85-.22,1.23,0,.93.78,1.58,1.56,1.96,2.91.39,1.82.21,3.03-.18,4.56-.25.98-1.56,2.8-2.46,3.6-1.06.96-1.97,1.55-3.35,1.95-.82.24-1.97.42-2.8.62-1.52.36-3.07.27-4.56-.09-.68-.16-1.38-.6-1.89-1.09-.94-.92-1.75-1.96-2.62-2.96-.09-.11-.19-.24-.22-.38-.29-1.04-.92-1.82-.76-3.15.53-4.89,2.63-4.96,4.93-5.79,1.4-.49,3.21-.42,3.49-.49.52.17.64.82.48,1.17-.03.99-.1,2.41-.17,3.4-.11,1.85-.41,3.25-.52,5.1-.05.87-.03,1.88-.18,2.85.29.06,1.48-.04,1.74-.07,1.66-.2,3.56-.77,4.4-1.26,1.08-.84,1.71-1.43,2.32-2.25.73-1.06.93-2.1,1.17-3.18.14-.68,0-1.62-.35-2.44-.17-.35-.61-1.01-.88-1.31-.5-.49-1.2-1.15-.78-1.73Zm-8.22,1.07c-.63,0-2.23.14-2.76.35-.95.41-1.35.49-2.34,1.36-.85.65-1.11,2.88-.95,3.7.23,1.18.62,2.3,1.52,3.22.54.56,1.04,1.13,1.65,1.64.52.43,1.51.62,2.15.64.2-.4.54-3.39.52-4.47-.01-1.03-.04-2.07.1-3.08.12-.87.29-2.49.11-3.37Z"/>
  <path class="cls-3" d="m325.84,422.31c-.94.45-1.78.89-2.66,1.24-.94.37-.94.59-.55,1.43.44.96,1,1.87,1.54,2.79.76,1.3,1.54,2.6,2.33,3.89.47.77.97,1.52,1.46,2.26.27.4.21.88-.15,1.12-.43.28-.8.18-1.06-.29-1.18-2.13-2.34-4.28-3.55-6.4-.65-1.15-1.38-2.25-2.12-3.44-.53.36-1.06.7-1.57,1.06-.2.14-.37.3-.57.44-.45.32-.76.33-.99.06-.3-.37-.28-1,.1-1.28.63-.48,1.27-.95,1.94-1.38.33-.21.35-.42.18-.72-.16-.27-.31-.56-.51-.81-1.02-1.31-1.82-2.76-2.16-4.37-.19-.94-.47-1.93-.45-2.87.04-1.29.23-2.6,1.06-3.75.62-.86,1.2-1.75,2.11-2.33,1.28-.81,2.66-1.24,4.22-1.2.86.02,1.55.18,2.18.73.38.33.68.71.5,1.24-.06.18-.29.38-.48.43-.14.04-.43-.12-.49-.26-.23-.55-.66-.71-1.19-.79-.77-.12-1.53-.2-2.24.24-.17.11-.41.1-.61.16-.74.24-1.42.6-1.91,1.24-.21.27-.4.56-.63.82-1.41,1.61-1.26,3.48-1.01,5.42.15,1.16.5,2.22,1.09,3.2.52.88,1.15,1.7,1.78,2.61.89-.43,1.82-.83,2.69-1.31.76-.42.89-.44,1.38.3.09.13.17.26.33.53Z"/>
  <path class="cls-3" d="m267.95,430.68c.53.36.64.75.61,1.31-.1,1.85-.12,3.7-.13,5.55,0,.21.19.48.36.62.26.21.57.12.8-.11,1.79-1.8,4.14-2.35,6.5-2.85.84-.18,1.53.13,2.06.79-.44,1.01-.43.98-1.49.94-.45-.02-.91.08-1.35.18-1.87.43-3.48,1.27-4.98,2.53-1.2,1.01-1.58,2.04-1.28,3.5.21,1.02.3,2.06.45,3.1.12.83.26,1.66.36,2.49.06.53-.3,1.03-.69,1.03-.65,0-.95-.35-.97-1.03-.02-.75-.07-1.49-.16-2.23-.17-1.35-.47-2.69-.54-4.05-.06-1.23-.36-2.42-.44-3.63-.16-2.36-.03-4.72.03-7.09.01-.63.4-.83.88-1.06Z"/>
</svg>