<svg width="208" height="197" viewBox="0 0 208 197" fill="none" xmlns="http://www.w3.org/2000/svg"><g clip-path="url(#Group 3__a)"><mask id="Group 3__b" style="mask-type:luminance" maskUnits="userSpaceOnUse" x="-95" y="-144" width="398" height="451"><path d="M-94.648-143.634h397.413v450.603H-94.648v-450.603Z" fill="black" fill-opacity=".8"/></mask><g mask="url(#Group 3__b)"><mask id="Group 3__c" style="mask-type:luminance" maskUnits="userSpaceOnUse" x="11" y="6" width="165" height="157"><path d="M11.299 6.816h164.327V162.06H11.299V6.816Z" fill="white"/></mask><g mask="url(#Group 3__c)"><path d="M175.141 81.261c.659 3.62.856 7.632-.785 11.009-3.076 8.075-6.016 16.455-9.106 24.51-1.76 4.178-12.741 14.979-13.496 15.775-6.89 5.842-12.499 12.126-20.531 16.047-12.923 9.349-27.853 10.16-43.513 12.785-17.779 2.99-34.094-4.488-50.16-11.83-13.71-4.799-21.349-15.027-24.22-28.017-4.505-20.719-1.12-42.065 6.204-61.737.626-2.968 4.466-14.542 5.381-17.357 4.927-9.228 15.031-14.163 21.076-22.581 1.556-1.757 18.255-6.804 20.289-7.464 6.476-2.315 13.059-3.814 19.86-4.876 2.116-.325 4.064-1.256 6.166-.272-3.4 5.338-7.905 10.213-10.24 16.251-2.887 4.211-5.32 9.025-6.878 13.703-.165.538.01 1.18-.64 1.537.059 1.907-.334 3.815-1.007 5.615-1.41 4.164-1.154 8.865-2.718 12.883C69.04 55.33 60.96 43.287 58.33 47.64c-3.362 8.122-3.86 17.09-4.723 25.825-2.485 6.798-11.6 8.07-16.77 12.499-2.63 2.83-13.433 4.338-11.078 8.971 2.043 2.709 5.541 3.534 8.534 4.731 7.05 3.058 10.73 2.156 17.915 5.003 2.987 1.485-6.202 11.612-7.025 14.078-2.403 2.847-3.017 6.399-5.435 9.214-.499.47-.658 1.091-.392 1.658 4.761 1.884 15.733-1.862 21.038-3.166 4.97-.429 10.012-.695 14.72-2.573.93-.219 2.146-1.203 2.855-.127 1.355 2.392 2.131 4.965 3.651 7.295 1.444 2.749 1.526 6.262 4.18 8.237 2.137 2.399 2.908 6.018 5.222 8.076 2.87-.831 3.421-4.48 3.392-7.109-.65-7.522 3.701-14.639 6.302-21.52 1.435-2.155 6.326-.937 8.826-2.028 7.701-1.097 15.583-.878 23.213-2.809.009-2.18-1.526-3.791-2.514-5.63-.786-1.281-2.563-1.47-3.59-2.537-2.267-1.18-3.409-3.504-5.042-5.373-3.468-3.27-6.875-6.39-10.706-9.32 1.367-2.233 3.135-4.27 4.321-6.479-.498-1.203 1.119-2.732-.392-3.504-1.225-.999-1.774.31-2.819.74-1.948.91-2.976 2.93-4.404 4.506-1.051 1.928-3.28-2.061-4.573-2.324-2.955-.78 9.461-20.583 8.661-23.617-3.536-2.78-11.571 2.791-16.18 3.353 2.297-7.185 6.575-14.172 11.2-19.917 3.173-3.936 7.654-6.473 11.267-9.998.558-.668 1.397-.266 1.934-.94 3.356-1.529 6.86-2.824 10.157-4.533 1.163-.538 2.084-.024 3.023.846-7.687 4.89-14.978 10.175-21.348 16.653-3.25 2.31-8.767 6.76-5.487 10.947.271.644 1.036.819 1.505.31 3.294-3.98 8.053-6.44 11.719-10.098 5.101-5.269 11.427-9.302 16.595-14.29.582-.462 1.284-1.364 2.102-.908 1.759 1.277 3.784 2.15 5.29 3.737-4.006 1.062-7.076 3.764-10.922 5.187-4.292 1.824-9.603 6.812-1.019 6.114 4.133-2.232 8.366-5.032 13.148-6.176 3.899-2.203 5.865-1.083 8.646 2.129-20.518 4.654-38.534 18.332-47.245 37.596-.439 1.99 3.543 1.553 3.74.015.068-2.135 2.864-2.421 2.893-4.533 2.011-3.391 5.405-5.928 8.351-8.524 3.256-3.102 6.122-6.683 10.149-8.895 3.884-4.887 7.483-4.82 13.112-6.313 4.738-1.756 9.605-3.353 14.591-4.178 2.426.364 5.337 3.998 7.037 5.944-6.462 1.966-14.169 1.247-19.854 5.07-6.801 3.398-13.216 7.647-20.008 11.053-2.698 1.02-9.062 5.01-8.495 8.12-.006 1.479 1.541.31 2.054 1.12 7.746-6.643 16.663-11.723 26.133-15.328 2.651-1.067 4.98-3.67 8.017-3.057 2.766-3.028 10.488-.355 14.948-1.922 3.552-.432 4.957 8.962 5.305 11.67-5.148.607-10.172.524-15.273 1.29-4.888.733-9.295 3.223-14.246 3.717-8.74 3.903-18.015 6.886-25.728 12.753-1.128.955-2.518 4.905-.145 5.171 1.09-.425 2.707.84 3.357-.736 4.646-5.615 15.603-9.5 22.389-12.413 3.25-2.082 7.513-2.126 11.223-2.28 5.81-.21 11.666-.674 17.478-.967 2.766-.295 2.22 2.36 2.031 4.116Z" fill="white"/></g></g><mask id="Group 3__d" style="mask-type:luminance" maskUnits="userSpaceOnUse" x="-95" y="-144" width="398" height="451"><path d="M-94.648-143.634h397.413v450.603H-94.648v-450.603Z" fill="black" fill-opacity=".8"/></mask><g mask="url(#Group 3__d)"><mask id="Group 3__e" style="mask-type:luminance" maskUnits="userSpaceOnUse" x="74" y="9" width="30" height="60"><path d="M74.135 9.397h28.893v59.374H74.135V9.397Z" fill="white"/></mask><g mask="url(#Group 3__e)"><path d="M98.391 9.397c1.057.83 4.637 3.063 4.637 3.063-5.053 4.551-8.114 11.893-11.81 17.366-3.852 6.07-4.269 13.809-6.544 20.583-.659 3.936-1.807 7.78-2.622 11.686-.454 2.158-1.685 4.027-1.012 6.313-.605.13-1.113.236-1.715.363-.077-1.097-1.066-1.354-1.58-2.02-.203-1.256-1.254-1.915-1.95-2.823-3.106-2.81-.93-7.516-.747-11.18.038-1.878 1.24-3.324 1.366-5.23 1.036-3.392 1.845-6.86 3.424-9.895 3.31-5.623 7.08-10.922 10.533-16.54 1.8-2.922 4.188-6.183 3.967-6.334 1.52-2.289 3.09-4.58 4.053-5.352Z" fill="white"/></g></g><mask id="Group 3__f" style="mask-type:luminance" maskUnits="userSpaceOnUse" x="-95" y="-144" width="398" height="451"><path d="M-94.648-143.634h397.413v450.603H-94.648v-450.603Z" fill="black" fill-opacity=".8"/></mask><g mask="url(#Group 3__f)"><mask id="Group 3__g" style="mask-type:luminance" maskUnits="userSpaceOnUse" x="85" y="15" width="39" height="53"><path d="M85.469 15.444h38.215v51.589H85.469v-51.59Z" fill="white"/></mask><g mask="url(#Group 3__g)"><path d="M123.684 24.557c-4.679 1.955-6.796 6.745-10.981 9.365-6.438 3.965-11.064 9.78-14.757 16.313-3.016 4.323-4.398 9.462-7.134 13.927-.732 2.294-3.265 2.338-5.343 2.868 2.872-18.28 9.8-37.165 21.634-51.586 1.86.718 3.076 2.27 4.95 3.134-5.638 4.64-18.945 16.245-13.437 24.025 3.743-7.969 11.828-13.262 16.28-20.944.316-2.469 7.489 2.15 8.788 2.898Z" fill="white"/></g></g><path d="M76.39 86.258c1.226 1.204 1.642 2.437 3.502 2.611 2.137-1.848 4.073-3.823 6.854-4.677.218.674-1.86 5.511-2.713 6.342.446 2.256.189 2.732 2.946 3.469 3.702 1.082 6.671 4.6 10.42 6.07-.059.083-.121.16-.18.243-6.97-.35-8.35-.908-8.932.325-.493 1.038-.251 5.547-1.028 9.758-2.057-1.766-2.707-5.837-4.58-7.342-3.16-1.834-7.428 3.057-10.755 2.921 1.656-1.975 2.95-3.939 4.732-5.716.732-.544 2.79-3.557 2.2-5.026-5.61-.704-13.89-1.916-19.368-2.999 8.487-5.139 10.149-4.358 9.824-5.644-.266-1.068-1.898-3.581-2.093-12.16 3.475 3.333 5.417 8.546 9.172 11.825Z" fill="#A53839"/><path d="M103.028 12.46s-3.58-2.232-4.637-3.063c-.963.772-2.533 3.063-4.053 5.352.221.15-2.167 3.412-3.968 6.334-3.453 5.618-7.223 10.916-10.532 16.54-1.58 3.034-2.388 6.503-3.424 9.894-.127 1.907-1.328 3.353-1.367 5.231-.183 3.664-2.358 8.37.747 11.18.697.908 1.748 1.567 1.951 2.824.514.665 1.503.922 1.58 2.02.602-.128 1.11-.234 1.715-.364-.674-2.286.557-4.155 1.012-6.313.815-3.906 1.963-7.75 2.621-11.686 2.276-6.774 2.692-14.512 6.544-20.583 3.696-5.473 6.757-12.815 11.811-17.366Zm9.673 21.461c4.186-2.62 6.302-7.41 10.981-9.364-1.299-.748-8.472-5.367-8.788-2.898-4.451 7.682-12.536 12.975-16.28 20.944-5.507-7.78 7.8-19.386 13.438-24.025-1.875-.863-3.091-2.416-4.95-3.134C95.267 29.864 88.339 48.75 85.467 67.03c2.078-.53 4.611-.574 5.343-2.868 2.736-4.465 4.118-9.604 7.135-13.927 3.693-6.532 8.318-12.348 14.756-16.314Zm61.656 58.349c1.641-3.377 1.443-7.39.785-11.009.189-1.756.735-4.411-2.031-4.116-5.812.293-11.669.757-17.478.967-3.71.154-7.973.198-11.223 2.28-6.786 2.913-17.744 6.798-22.39 12.413-.649 1.576-2.267.31-3.356.736-2.373-.266-.983-4.216.145-5.171 7.713-5.867 16.988-8.85 25.728-12.753 4.95-.494 9.357-2.984 14.246-3.717 5.101-.766 10.125-.683 15.273-1.29-.349-2.708-1.754-12.102-5.305-11.67-4.46 1.567-12.182-1.106-14.948 1.922-3.038-.612-5.367 1.99-8.017 3.057-9.47 3.605-18.387 8.684-26.133 15.329-.514-.81-2.061.357-2.055-1.121-.566-3.11 5.798-7.1 8.496-8.12 6.792-3.406 13.206-7.655 20.008-11.053 5.685-3.823 13.392-3.104 19.854-5.07-1.701-1.946-4.611-5.58-7.038-5.944-4.985.825-9.853 2.422-14.591 4.178-5.629 1.493-9.227 1.425-13.112 6.313-4.026 2.212-6.892 5.793-10.148 8.894-2.946 2.597-6.341 5.134-8.351 8.525-.03 2.111-2.825 2.398-2.893 4.533-.198 1.538-4.18 1.975-3.74-.015 8.711-19.264 26.726-32.942 47.245-37.597-2.781-3.21-4.747-4.331-8.646-2.129-4.782 1.145-9.015 3.945-13.148 6.177-8.584.698-3.274-4.29 1.018-6.114 3.847-1.423 6.917-4.125 10.922-5.187-1.505-1.588-3.53-2.46-5.289-3.737-.818-.456-1.521.446-2.102.907-5.169 4.989-11.495 9.022-16.595 14.291-3.667 3.658-8.425 6.118-11.719 10.098-.47.508-1.234.334-1.506-.31-3.279-4.188 2.238-8.638 5.488-10.947 6.37-6.479 13.661-11.763 21.348-16.653-.939-.87-1.86-1.384-3.023-.846-3.297 1.71-6.801 3.004-10.158 4.533-.537.674-1.375.272-1.933.94-3.613 3.525-8.094 6.062-11.267 9.998-4.626 5.745-8.903 12.732-11.2 19.917 4.608-.562 12.643-6.132 16.18-3.353.8 3.034-11.616 22.836-8.661 23.617 1.293.263 3.521 4.252 4.572 2.324 1.429-1.576 2.456-3.596 4.404-4.506 1.045-.43 1.594-1.74 2.819-.74 1.512.772-.106 2.3.393 3.504-1.187 2.21-2.955 4.246-4.322 6.479 3.832 2.93 7.238 6.05 10.707 9.32 1.632 1.869 2.775 4.193 5.042 5.373 1.027 1.067 2.804 1.256 3.589 2.537.989 1.839 2.524 3.45 2.515 5.63-7.63 1.93-15.512 1.712-23.213 2.809-2.501 1.091-7.392-.128-8.826 2.028-2.601 6.881-6.952 13.998-6.303 21.52.03 2.629-.522 6.278-3.391 7.109-2.315-2.058-3.085-5.678-5.222-8.076-2.654-1.975-2.737-5.488-4.18-8.238-1.52-2.33-2.296-4.902-3.651-7.294-.709-1.076-1.925-.092-2.855.127-4.708 1.878-9.75 2.144-14.72 2.572-5.305 1.304-16.277 5.051-21.039 3.167-.265-.567-.106-1.188.393-1.659 2.417-2.814 3.031-6.366 5.434-9.213.824-2.466 10.013-12.594 7.026-14.078-7.185-2.847-10.866-1.946-17.915-5.003-2.993-1.198-6.491-2.023-8.534-4.731-2.356-4.633 8.448-6.141 11.078-8.971 5.169-4.43 14.284-5.701 16.77-12.5.862-8.734 1.36-17.702 4.723-25.825 2.63-4.352 10.71 7.691 12.492 9.604 1.565-4.018 1.308-8.72 2.719-12.883.673-1.8 1.065-3.708 1.006-5.615.65-.358.476-1 .64-1.538 1.56-4.677 3.992-9.491 6.879-13.702 2.335-6.038 6.84-10.914 10.24-16.25-2.102-.985-4.05-.054-6.167.271-6.8 1.062-13.383 2.56-19.86 4.876-2.034.66-18.732 5.707-20.288 7.463-6.045 8.419-16.15 13.354-21.076 22.582-.915 2.815-4.756 14.388-5.381 17.357-7.324 19.672-10.71 41.018-6.205 61.737 2.872 12.99 10.511 23.218 24.22 28.017 16.067 7.342 32.382 14.82 50.16 11.83 15.66-2.626 30.591-3.436 43.514-12.785 8.032-3.921 13.641-10.205 20.53-16.048.756-.795 11.737-11.596 13.496-15.775 3.091-8.054 6.031-16.434 9.107-24.51Zm-.248-51.959c8.826 12.147 10.686 30.997 10.018 44.35-.451 9.016-4.965 23.245-7.072 34.23-1.639 8.569-5.296 12.354-9.694 19.432-4.407 7.076-10.394 9.554-17.859 16.479-5.638 5.237-9.611 8.735-16.344 11.99-8.856 4.374-16.572 5.252-26.396 5.474-6.529-.296-14.142.94-20.808 1.688-7.852-.364-17.867-5.754-25.628-7.073-16.406-5.124-22.354-7.605-34.165-17.324-4.61-3.794-14.434-11.923-16.049-16.813-1.685-4.119-4.262-7.806-4.634-12.331-.233-3.285-1.895-6.277-2.908-9.426C.386 103.343-.19 95.304.303 87.394 2.32 74.36 3.408 60.968 7.86 48.508c5.638-7.162 9.422-15.548 15.084-22.7 12.3-11.884 28.509-21.733 45.7-23.611 6.253.65 11.345-2.392 17.467-2.12 1.216.228 13.298 2.46 18.375 2.688 1.399.16 13.437 2.687 16.9 4.163 7.282 2.27 12.536 6.351 17.711 8.87 5.871 2.872 11.586 4.333 18.983 9.72 5.086 3.702 12.168 9.728 16.029 14.793ZM55.497 84.677c-5.644.46-17.26 6.357-20.607 10.641 1.09-.21 7.586 2.15 8.885 2.868 3.09 1.009 12.395 2.659 15.182 3.945 3.492 1.712-2.017 6.405-3.091 7.889-4.003 4.548-7.262 11.035-9.55 16.358 11.584-1.819 22.178-4.876 32.932-9.273 2.78-2.301 2.916 2.028 3.566 3.814 2.095 5.435 3.264 12.277 6.863 16.639 3.483-8.395 4.442-17.683 8.923-25.678 2.131-3.398 6.848-1.399 10.081-1.286 3.114.461 6.317.053 9.469.009 1.866.484 3.575-.204 5.411-.009.514.077 1.021-.006 1.444-.636-8.735-6.964-17.012-14.592-26.027-21.293-.673-.49-1.556-.727-1.594-1.765-.703-.559-1.133-1.301-1.382-2.126 2.312-3.912 3.369-8.161 5.213-12.17.393-1.47 3.847-5.944 2.864-6.822-5.925 1.742-11.69 3.96-17.463 6.133-3.227.71-7.112 5.056-9.68 1.567-2.228-1.514-3.536-3.853-5.396-5.778-.817-1.378-.885-3.306-2.464-4.14-2.2-3.202-5.107-5.996-6.734-9.574-.324-.532-.732-1.63-1.478-1.523-.983 7.478.088 14.935-.886 22.407.024 3.49.921 10.483-4.481 9.803Z" fill="#1A3151"/><path d="M53.676 95.168c3.445-.281 6.612 1.097 9.954 1.596 3.188.84 6.648.31 9.67 1.635-2.698 3.028-4.888 6.322-8.108 8.774-1.804 1.339-8.44 5.171-3.853 6.86 4.02-.063 7.79-2.925 11.548-4.285 2.046-.349 7.418-4.968 8.605-2.478 1.836 3.832 2.44 4.793 4.247 7.904 1.217 2.096 4.768 5.186 5.01 1.407 1.37-2.974-1.639-12.481 1.511-13.421 3.705.591 7.436.31 11.155.553 7.654-2.475-13.142-9.787-14.72-12.558 1.865-4.64 4.935-8.9 7.004-13.475-.136-7.516-11.908 5.687-15.084 6.429-1.653.485-2.288-2.635-3.347-3.59-.67-1.739-2.259-2.874-3.557-4.154-1.134-2.401-3.07-4.187-4.688-6.26-2.214-1.97-2.937-7.647-5.945-3.066-.455 2.998 1.154 5.79 1.216 8.782 0 2.965.726 5.902 1.157 8.856-.12 1.537-2.662 1.611-3.757 2.406-3.605 1.106-6.893 2.68-9.883 5.012-1.497 1.325.203 3.339 1.865 3.073Zm1.822-10.492c5.402.68 4.504-6.313 4.48-9.802.975-7.472-.097-14.929.886-22.407.747-.106 1.154.99 1.479 1.523 1.626 3.578 4.534 6.372 6.733 9.574 1.58.834 1.647 2.762 2.465 4.14 1.86 1.925 3.167 4.264 5.396 5.778 2.568 3.489 6.453-.858 9.68-1.567 5.773-2.174 11.538-4.391 17.462-6.133.983.878-2.47 5.352-2.863 6.822-1.845 4.009-2.902 8.258-5.213 12.17.248.825.679 1.567 1.382 2.126.038 1.038.92 1.274 1.593 1.765 9.015 6.7 17.293 14.329 26.027 21.293-.422.63-.93.713-1.443.636-1.836-.195-3.546.493-5.411.009-3.153.044-6.356.452-9.47-.009-3.232-.113-7.949-2.112-10.08 1.286-4.481 7.995-5.44 17.283-8.924 25.678-3.598-4.362-4.767-11.204-6.863-16.639-.65-1.786-.785-6.115-3.566-3.814-10.753 4.397-21.348 7.454-32.93 9.273 2.287-5.323 5.546-11.81 9.549-16.358 1.074-1.484 6.582-6.177 3.09-7.889-2.786-1.286-12.09-2.936-15.181-3.945-1.3-.718-7.796-3.078-8.885-2.868 3.347-4.284 14.963-10.18 20.607-10.641Z" fill="#EFCF50"/><path d="M63.63 96.764c-3.342-.5-6.51-1.877-9.954-1.596-1.662.266-3.362-1.748-1.866-3.073 2.99-2.333 6.279-3.906 9.883-5.012 1.095-.795 3.637-.869 3.758-2.406-.431-2.954-1.157-5.89-1.157-8.856-.062-2.993-1.671-5.784-1.217-8.782 3.008-4.58 3.732 1.097 5.945 3.066 1.618 2.073 3.554 3.859 4.688 6.26 1.299 1.28 2.887 2.416 3.557 4.154 1.06.955 1.694 4.075 3.347 3.59 3.177-.742 14.949-13.945 15.084-6.428-2.069 4.574-5.139 8.835-7.004 13.474 1.579 2.77 22.375 10.083 14.721 12.558-3.72-.242-7.45.038-11.156-.553-3.15.94-.141 10.447-1.51 13.421-.243 3.779-3.794.689-5.01-1.407-1.807-3.111-2.412-4.072-4.248-7.904-1.186-2.49-6.559 2.129-8.605 2.478-3.757 1.36-7.527 4.222-11.547 4.285-4.587-1.689 2.048-5.521 3.852-6.86 3.22-2.452 5.41-5.746 8.109-8.774-3.023-1.324-6.483-.795-9.67-1.635Zm5.682-10.171c.324 1.286-1.337.505-9.824 5.644 5.479 1.083 13.759 2.295 19.367 2.999.59 1.47-1.467 4.482-2.199 5.026-1.783 1.777-3.076 3.741-4.732 5.716 3.327.136 7.595-4.755 10.754-2.921 1.874 1.505 2.524 5.576 4.581 7.342.776-4.211.534-8.72 1.027-9.758.582-1.233 1.963-.674 8.933-.325.059-.083.12-.16.18-.243-3.75-1.47-6.719-4.988-10.42-6.07-2.757-.737-2.5-1.213-2.946-3.469.853-.83 2.93-5.668 2.712-6.342-2.78.854-4.717 2.83-6.854 4.677-1.86-.174-2.276-1.407-3.5-2.61-3.756-3.28-5.698-8.493-9.172-11.825.195 8.578 1.827 11.091 2.093 12.159Zm56.735-36.137c-.296 1.174-1.482 1.615-2.093 2.49-1.166 2.14-3.457 3.03-4.986 4.846-.841.947-1.727-.508-2.595.249-1.52 1.132-3.214-1.328-1.721-2.478 2.58-1.065 9.553-9.55 11.395-5.107Zm44.936 105.15c.165-.26.549-.759.661-.999.227-.494.387-1.023.646-1.499.402-.739.626-1.479.458-2.339-.127-.633-1.154-1.854-1.807-1.813-1.192.077-2.642.116-3.527 1.091-.015.015-.041.021-.056.036-.396.402-1.013 1.088-1.396 1.499-.222.234-.175.447.109.609.274.16.596.278.812.497.994 1.008 2.943 2.037 4.1 2.918Zm8.835 6.479c.383-.529.735-1.032 1.104-1.52.676-.884 1.296-1.396.986-2.593-.039-.154-.051-.716-.08-.869-.083-.456-.756-1.003-1.252-1.219-.493-.213-1.083-.76-1.62-.659-.936.169-1.556.192-2.427.58-.451.201-1.139 1.031-1.499 1.354-.284.248-.579.432-.661.813-.036.157.389.68.596.837 1.337 1.026 3.265 2.141 4.611 3.152.053.038.118.062.242.124Zm-3.368-9.24c.619-.13.82-.314 1.449-.55.21-.08 1.009-.145 1.266-.133 1.476.056 2.459 0 3.793.789.349.207.753.319 1.113.509.768.411 1.214 1.058 1.394 1.913.053.26.177.52.318.745.741 1.18.597 2.398.121 3.599-.451 1.141-1.071 2.202-1.718 3.243-.106.172-.268.311-.392.47-.292.376-.608.74-.859 1.142-.511.807-1.293 1.673-2.01 2.271-.272.224-.564.142-.836.014-.927-.428-1.821-1.094-2.698-1.611-.753-.45-1.408-1.062-2.119-1.588-.732-.541-3.604-2.215-4.047-2.729-.971-1.124-1.86-1.582-3.165-2.324-1.127-.642-2.267-1.718-3.374-2.395-.968-.592-3.191-2.591-3.639-2.916-.446-.319-.467-.505-.133-.964.212-.287 1.417-1.641 1.718-2.09.587-.876 2.181-2.428 2.406-2.62 2.178-1.479 4.637-1.972 6.63-1.156.684.142 1.39.349 1.986.698.635.375 1.163.94 1.715 1.445.806.737 1.128 1.668 1.063 2.756-.03.465.009.938.018 1.482Zm2.408-119.234c-2.459.583-4.498-.547-5.655-2.306-1.376-2.1-1.494-5.095.431-7.165a56.796 56.796 0 0 1 3.285-2.643c1.907-1.417 4.416-2.691 5.062-2.186.514.352 1.104 1.278 1.391 1.967.289.757-.623 1.55-1.757 2.283-1.204.774-2.662 1.484-3.199 2.01-1.361 1.307-1.589 2.644-1.119 3.477.602 1.074 1.942 1.293 4.354-.39 1.316-.92 2.473-1.567 3.855-2.389.924-.57 1.558-.24 2.066.373.679.813.779 1.185 1.051 1.73.614 1.232-.676 1.765-1.892 2.557-1.151.754-2.571 1.482-2.919 2.534-.157.476-.24.92.103 1.594.115.393 1.567.996 1.93.745.845-.358 2.545-2.108 4.939-3.442.558-.313 1.429.187 2.075.932.77.89 1.222 2.131.455 2.773a82.887 82.887 0 0 1-3.002 2.39c-1.29.981-2.176 2.152-3.484 3.083-1.293.923-2.036 1.195-3.321 2.106-.442.313-.826.254-1.189-.021-.602-.455-1.311-1.02-1.759-1.916-.399-.801-.499-1.378.194-1.83.346-.225 1.24-.994 1.228-1.19-1.151-.168-1.679-.611-2.352-1.548-.629-.873-1.137-2.014-.771-3.528Zm25.333 79.715c-1.786.228-4.386-.281-6.467-.352-.328-.009-4.219-.299-5.907-.34-2.586-.311-5.195-.29-7.766-.701-.532-.062-1.246-.236-1.349-.837.008-.975-.13-2.685 1.331-2.418.88.079 2.547.139 3.43.283 1.674.157 2.598.21 4.286.193.458.026.422-.432.422-.757-.386-4.995 5.42-8.856 9.656-7.809 1.245.396 3.208.839 3.279 1.543.077.775.018 2.215-.271 2.694-.174.287-.788.295-2.583-.243-2.019-.836-4.726-.975-6.356 1.023-.36.37-.773 1.949-.07 2.653 1.295 1.295 2.119 1.452 4.368 1.664 1.211.113 4.059-.585 4.419-.044.36.538.21 2.463-.422 3.448Zm-17.41-43.96c.018-.355.227-1.112.664-1.213 1.057-.372 4.31-.763 5.284-1.014.735-.192 1.113-.18 1.03-.934-.147-1.284-.729-3.613-.655-4.471.074-.89.635-2.008 1.559-2.98.924-.973 2.211-1.804 3.743-2.12 1.446-.3 3.604-.941 4.879-.693.428.083.756.358.912.935.092.736.88 2.77-.449 3.196-1.546.494-2.889.586-4.005.86-.927.45-1.515 1.154-1.768 1.95-.293.91-.151 1.936.416 2.844.342.55 1.588.428 2.913.136 1.323-.29 2.722-.748 3.374-.872 1.131-.216 1.45 1.147 1.579 1.821.237 1.242.653 2.18-1.009 2.513-1.724.243-3.404.544-5.065.864-2.25.431-4.467.899-6.725 1.3a75.5 75.5 0 0 1-5.009.743c-1.175.13-1.547-1.186-1.668-2.865ZM54.041 181.624c.151.272.299.512.423.763.145.293.212.609.088.926-.13.322-.03.579.154.839.422.601.788 1.242 1.349 1.748.272.245.484.6.626.946.443 1.073 1.316 1.313 2.344 1.292a114.38 114.38 0 0 0 2.027-.065c.18-.006.367-.074.538-.047.454.068.726-.16.927-.518.327-.576.605-1.153.602-1.854-.006-.801-.26-1.23-1.007-1.475a15.457 15.457 0 0 1-4.596-2.41c-.097-.074-.212-.127-.283-.219-.594-.754-1.163-1.537-1.35-2.489-.135-.704-.12-1.435-.176-2.153-.048-.639.206-1.18.537-1.691.162-.255.351-.491.54-.725.496-.606 1.048-1.067 1.904-1.118.587-.035 1.163-.281 1.753-.375.328-.05.673.024 1.01.029.224.006.449-.014.815-.026.823.571 1.88.973 2.987 1.274.23.062.454.124.564-.145.198-.496.602-.594 1.062-.618.157-.008.31-.05.47-.074.212.385.236.74.085 1.121-.363.911-.702 1.83-1.065 2.741-.065.166-.19.311-.301.45-.431.55-.868 1.094-1.335 1.676-.026-.003-.103-.003-.177-.023-.543-.148-.646-.329-.51-.867.256-1.002.271-1.026-.59-1.511-.733-.414-1.497-.766-2.253-1.135a.814.814 0 0 0-.399-.083 30.27 30.27 0 0 0-1.73.186c-.62.086-1.059.71-.968 1.337.157 1.085.72 1.916 1.574 2.59.983.772 2.034 1.437 3.188 1.907.888.361 1.576.964 2.187 1.644.478.532.585 1.251.638 1.967.047.635-.145 1.224-.263 1.83-.056.29-.068.591-.092.89-.014.198-.002.402-.032.597-.127.84-.51 1.224-1.346 1.39-.292.059-.578.148-.865.225-.283.071-.54.272-.862.162a.34.34 0 0 0-.233.03c-.756.405-1.57.216-2.361.257-.824.041-1.645-.003-2.424-.307-1.16-.459-2.285-.985-3.102-1.982-.228-.275-.387-.6-.603-.884-.289-.387-.31-.381-.652-.026-.301.313-.614.621-.894.952-.201.236-.425.296-.697.201a2.772 2.772 0 0 1-.54-.257c-.286-.178-.422-.435-.307-.769.25-.719.454-1.461.788-2.141.555-1.135 1.184-2.229 1.804-3.329.283-.506.48-.604 1.03-.654Zm16.809-.183c.168-.003.46-.024.75-.003.454.032.906.092 1.357.139.481-.417 1.033-.086 1.547-.145.035-.003.065-.041.133-.083.056-.266.1-.562.189-.846.133-.437.277-.875.454-1.295.248-.591.538-1.162.797-1.747a.698.698 0 0 0 .068-.352c-.041-.509.18-.896.46-1.298.246-.352.538-.529.91-.417.472.145.942.34 1.367.591.472.284.528.778.395 1.272a222.693 222.693 0 0 1-1.071 3.888c-.06.21-.175.402-.254.609-.071.175-.127.355-.221.618l.66.059c.325.03.591.125.845.382.26.26.626.417.956.597.207.112.437.183.703.293.032.467.08.919.091 1.375.015.402-.073.529-.451.579-.434.057-.88.095-1.314.065-.617-.041-1.228-.153-1.862-.236-.41.366-.34.899-.372 1.348a15.724 15.724 0 0 0 .159 3.815c.233 1.351.948 2.392 2.264 2.942.254.106.505.236.738.387.357.234.744.266 1.151.234.596-.054 1.178-.163 1.739-.379.348-.136.552-.393.72-.695.204-.363.413-.724.6-1.1.176-.355.374-.712.475-1.091.212-.804 1.449-.949 1.948-.42.298.32.61.672.755 1.071.184.494.21 1.049.281 1.582.044.346-.16.573-.452.706-.62.281-1.053.787-1.54 1.23-.175.16-.337.349-.538.462-.891.491-1.736 1.079-2.783 1.239-1.364.207-2.716.213-4.009-.299-.56-.225-1.101-.556-1.523-1.029-.36-.402-.759-.766-1.116-1.171a1.61 1.61 0 0 1-.36-.612c-.171-.603-.484-1.124-.782-1.665-.434-.789-.647-1.667-.732-2.566a45.01 45.01 0 0 1-.201-2.747c-.015-.456.08-.917.136-1.375.023-.178.1-.349.127-.527.062-.431.017-.508-.399-.68-.685-.286-1.376-.55-2.051-.848-.251-.113-.514-.263-.688-.464-.31-.358-.543-.772-.056-1.393Zm27.98 11.331c-.141.733-.953.91-1.28.904-.635.009-1.055.125-1.993-.207-.744-.242-1.113-.78-1.084-1.995.095-1.139.399-1.438 1.538-1.89.402-.201.836-.136 1.364-.118.661.097 1.175.325 1.432.961.345.887.203 1.443.023 2.345Zm2.805 2.22c-.36-.505-.443-1.313-.458-2.073-.021-.958-.035-1.919-.071-2.877-.038-1.108-.02-3.802-.091-3.897-.121-.156-.284-2.081-2.433-3.128-.46-.373-2.798-.822-3.881-.42-1.367.42-1.763.535-2.462 1.05-.03.006-.106.115-.207.284.52.523 1.072 1.02 1.603 1.531.463-.352 1.255-.659 2.6-.538 1.798-.003 2.371.884 2.32 2.714-.232.281-1.882-.286-3.639-.014-1.623.452-2.394 1.103-2.766 1.753-.705 1.233-.844 2.712-.174 4.134 1.49 2.466 2.802 2.342 4.059 2.534.354-.006 1.972-.092 2.326-.148 1.234-.177 1.314-1.171 1.426-.905.18.435.322.908.505 1.127.637.766 1.856.378 2.293.189-.407-.485-.578-.795-.95-1.316Zm35.198-4.275c-.709.085-1.447-.34-2.155-.728-.93-.502-1.922-.955-2.604-1.809-.227-.284-.286-.698-.507-.985-.207-.266-.594-.402-.777-.677-.206-.311-.33-.701-.398-1.077-.234-1.274-.198-2.542.017-3.835.293-1.741 1.341-2.891 2.669-3.864.552-.405 1.169-.716 1.756-1.068.024-.014.047-.029.074-.038.971-.376 2.007-.29 2.987-.21.88.074 1.76.526 2.371 1.209.558.627.959 1.396 1.422 2.106.269.414.517.839.783 1.256.732 1.133 1.054 2.345 1.095 3.717.056 1.996-.803 3.48-2.205 4.725-1.24 1.103-2.742 1.422-4.528 1.278Zm47.1-45.285c.714-.852.938-2.174 1.523-3.123.366-.662.944-2.531.944-2.531-1.051-.174-2.314.116-2.919.55-.717.518-1.597 2.256-.821 3.398.461.68.638 1.168 1.273 1.706Zm11.199-7.659c.635 1.165.838 2.041.962 3.141.177 1.59.042 3.054-.643 4.636-1.169 2.697-3.171 4.279-6.642 4.051-1.638-.109-4.977-.6-6.284-1.972-1.031-1.082-2.052-2.493-2.389-4.155-.265-1.321.166-3.586 1.53-4.459 1.685-1.177 3.621-1.741 6.157-1.425.41.053.818.024 1.107.396a.715.715 0 0 1 .124.74c-.339.898-.998 2.226-1.314 3.131-.493 1.419-.814 2.566-1.535 3.941-.165.314-.242.867.116 1.041.959.47 2.128.633 3.199.683 2.031-.31 3.59-1.7 4.239-3.808.349-1.047.257-1.18.328-1.919.089-.926-.077-1.789-.511-2.44-.316-.47-.525-.789-.596-1.292-.08-.573.348-1.206.773-1.307.352-.083.682.048 1.379 1.017Zm4.369-42.892c-1.541-.272-2.988-.249-4.425-.337-1.393-.086-4.918.035-6.353-.207-.528.011-1.027.207-1.588-.11-.375-.21-.197-1.605-.177-1.865.036-.459.422-.562.697-.621.658-.142 1.29-.122 1.948-.006.351.062.717.03 1.08.03.101 0 1.949.085 2.74.271.605.142 3.542.166 4.413.27.67.08 2.639.13 2.961.141.838.033 1.679.077 2.52.1.455.013 2.48-.005 2.867.237.563.352.265 2.322-.174 2.395-.57.095-1.382-.056-1.958-.056-1.056.006-4.168-.195-4.551-.242Zm-8.915-49.339c-.617-.11-.93.349-1.278.68-.865.813-1.485 1.753-1.16 3.028.121.479.26.97.481 1.41.891 1.798 2.299 2.904 4.351 3.016.72.039 1.405-.177 1.998-.58-1.478-2.54-2.925-5.029-4.392-7.554Zm-3.04 4.767c-.26-.654-.328-1.325-.334-2.008-.006-.834.416-1.511.921-2.108.514-.612 1.101-1.162 1.691-1.7.561-.51.98-.427 1.355.239.278.488.496 1.008.789 1.484.87 1.416 1.765 2.815 2.644 4.226.136.218.213.47.34.691.239.417.49.828.75 1.23.132.208.324.196.528.092a8.267 8.267 0 0 0 3.067-2.65c.646-1.14.487-3.252.224-4.307-.475-1.11-.947-1.736-1.8-2.286-.431-.278-.815-.606-1.364-.671-.168-.024-.34-.263-.452-.44-.118-.187.086-.55.313-.542.301.009.534.03.983.163.334.165.549.363.765.446.711.423 1.703 1.269 2.24 2.378.357 1.005.738 2.8.378 4.207a5.62 5.62 0 0 1-.75 1.878c-.649 1.032-1.585 1.741-2.547 2.436-.405.293-.794.606-1.202.896-.106.077-.253.154-.375.145-.507-.038-.941.19-1.378.37-1.11.461-2.187.346-3.241-.148-.464-.219-.948-.444-1.334-.769-.668-.565-1.261-1.218-1.648-2.022a31.032 31.032 0 0 1-.563-1.23Zm-1.978 83.396c-.251-.299-.298-.612-.201-1.003.393-1.593.747-3.196 1.122-4.793.071-.298.168-.594.271-.943-.853-.234-1.461-.872-2.32-.988-.227-.029-.428-.233-.643-.352-.455-.245-.909-.484-1.364-.733-.198-.109-.41-.201-.579-.346-.218-.186-.318-.426-.18-.724.13-.278.363-.34.617-.299.195.03.384.118.561.21.933.494 1.86 1.005 2.799 1.49.395.204.82.355 1.301.559.107-.174.248-.346.316-.541.319-.934.626-1.875.924-2.815.047-.148.027-.313.056-.467a3.46 3.46 0 0 1 .139-.515c.1-.269.351-.263.573-.266.256 0 .33.207.366.414.118.695-.142 1.334-.331 1.976-.233.795-.531 1.57-.824 2.415.213.083.366.169.532.198.661.125 1.34.178 1.983.355 1.633.447 3.245.382 4.862-.032 1.213-.308 2.427-.624 3.64-.941 1.027-.269 1.795-1.289 1.795-2.407 0-1.212-.316-2.353-.854-3.432-.18-.364-.091-.592.29-.589.286 0 .581.071.856.157.097.029.189.195.209.313.222 1.242.467 2.478.629 3.726.145 1.127-.844 2.904-1.842 3.323-.614.258-1.275.4-1.922.574-.779.207-1.564.382-2.34.592-1.597.434-3.197.348-4.8.07-.906-.156-1.804-.343-2.71-.496-.602-.104-.744 0-.88.621-.301 1.386-.59 2.773-.891 4.157-.086.393-.189.784-.298 1.174-.109.384-.219.423-.862.358Zm13.629-57.166c-.476 0-1.689.107-2.084.266-.715.31-1.019.37-1.766 1.03-.637.493-.841 2.178-.72 2.802.174.89.467 1.745 1.145 2.44.414.42.789.857 1.246 1.242.393.33 1.14.47 1.624.488.156-.308.407-2.57.395-3.383-.009-.778-.029-1.564.08-2.333.091-.656.221-1.88.08-2.552Zm6.207-.804c.172-.198.647-.172.927-.003.703.594 1.196 1.177 1.479 2.206.295 1.375.163 2.297-.136 3.453-.189.743-1.174 2.12-1.862 2.73-.797.727-1.488 1.176-2.53 1.478-.617.177-1.491.32-2.116.467-1.152.272-2.318.207-3.445-.065-.517-.124-1.042-.452-1.426-.828-.714-.692-1.328-1.487-1.978-2.241a.82.82 0 0 1-.171-.287c-.221-.783-.697-1.378-.57-2.38.402-3.7 1.984-3.75 3.723-4.385 1.053-.37 2.426-.323 2.636-.37.395.133.484.621.363.89a84.96 84.96 0 0 1-.127 2.57c-.083 1.398-.307 2.46-.39 3.861-.038.66-.021 1.426-.136 2.159.216.05 1.119-.03 1.317-.053 1.257-.154 2.689-.58 3.324-.95.814-.635 1.29-1.082 1.75-1.703.555-.807.706-1.588.883-2.41.109-.511.003-1.22-.263-1.842a5.809 5.809 0 0 0-.661-.987c-.381-.373-.906-.873-.591-1.31Zm-53.827 100.307c-.711.337-1.346.674-2.007.94-.709.284-.709.449-.416 1.085.333.727.758 1.413 1.163 2.108.575.988 1.163 1.97 1.759 2.945.354.58.729 1.148 1.104 1.715.201.302.162.666-.112.843-.325.21-.602.139-.8-.219-.897-1.611-1.771-3.235-2.683-4.84-.493-.867-1.045-1.703-1.603-2.605-.402.269-.797.532-1.187.801-.15.104-.283.225-.431.331-.342.243-.575.252-.747.045-.23-.281-.209-.754.077-.973.475-.367.959-.722 1.464-1.047.248-.16.269-.319.133-.544-.124-.207-.236-.426-.381-.615-.773-.991-1.381-2.085-1.632-3.306-.148-.715-.357-1.461-.337-2.173.027-.979.178-1.969.8-2.836.473-.653.91-1.327 1.597-1.762.966-.609 2.008-.935 3.185-.911.647.015 1.175.139 1.648.553.286.248.513.538.377.934a.597.597 0 0 1-.363.329c-.1.029-.324-.092-.366-.195-.174-.417-.499-.536-.897-.598-.585-.091-1.154-.151-1.694.181-.133.079-.313.074-.464.124-.564.183-1.071.455-1.443.934-.163.204-.304.426-.476.624-1.065 1.218-.953 2.635-.767 4.101a6.19 6.19 0 0 0 .823 2.422c.396.665.871 1.283 1.346 1.975.676-.325 1.373-.624 2.034-.99.576-.32.667-.332 1.045.224.065.098.127.198.251.4Zm-43.746 6.33c.404.272.481.568.46.991-.077 1.398-.091 2.8-.103 4.202 0 .159.141.36.277.47.195.159.434.091.602-.08 1.358-1.36 3.129-1.777 4.909-2.156.635-.136 1.157.101 1.556.603-.331.76-.328.74-1.128.71-.339-.012-.684.062-1.021.139-1.411.322-2.63.964-3.761 1.916-.906.763-1.189 1.547-.968 2.65.157.771.227 1.561.34 2.344.088.627.191 1.254.265 1.884.05.399-.224.778-.519.778-.49.003-.72-.267-.735-.778a18.03 18.03 0 0 0-.118-1.691c-.127-1.024-.358-2.038-.408-3.064-.047-.931-.271-1.827-.33-2.75-.118-1.789-.021-3.578.02-5.366.012-.479.304-.627.662-.802Z" fill="#1A3151"/></g><defs><clipPath id="Group 3__a"><path fill="white" d="M0 0h208v197H0z"/></clipPath></defs></svg>