<svg xmlns="http://www.w3.org/2000/svg" width="275.034" height="260.102" viewBox="0 0 275.034 260.102">
  <g id="Layer_1" data-name="Layer 1" transform="translate(-678.324 -806.47)">
    <g id="Group_4" data-name="Group 4">
      <g id="Group_3" data-name="Group 3">
        <path id="Path_28" data-name="Path 28" d="M909.911,913.743c.87,4.78,1.13,10.08-1.04,14.54-4.07,10.67-7.96,21.74-12.05,32.38-2.33,5.52-16.86,19.79-17.86,20.84-9.12,7.72-16.54,16.02-27.17,21.2-17.1,12.35-36.86,13.42-57.58,16.89-23.53,3.95-45.12-5.93-66.38-15.63-18.14-6.34-28.25-19.85-32.05-37.01-5.96-27.37-1.48-55.57,8.21-81.56.83-3.92,5.91-19.21,7.12-22.93,6.52-12.19,19.89-18.71,27.89-29.83,2.06-2.32,24.16-8.99,26.85-9.86a142.644,142.644,0,0,1,26.28-6.44c2.8-.43,5.38-1.66,8.16-.36-4.5,7.05-10.46,13.49-13.55,21.47a74.252,74.252,0,0,0-9.1,18.1c-.22.71.01,1.56-.85,2.03a19.522,19.522,0,0,1-1.33,7.42c-1.87,5.5-1.53,11.71-3.6,17.02-2.36-2.53-13.05-18.44-16.53-12.69-4.45,10.73-5.11,22.58-6.25,34.12-3.29,8.98-15.35,10.66-22.19,16.51-3.48,3.74-17.78,5.73-14.66,11.85,2.7,3.58,7.33,4.67,11.29,6.25,9.33,4.04,14.2,2.85,23.71,6.61,3.95,1.96-8.21,15.34-9.3,18.6-3.18,3.76-3.99,8.45-7.19,12.17a1.856,1.856,0,0,0-.52,2.19c6.3,2.49,20.82-2.46,27.84-4.18,6.58-.57,13.25-.92,19.48-3.4,1.23-.29,2.84-1.59,3.78-.17,1.79,3.16,2.82,6.56,4.83,9.64,1.91,3.63,2.02,8.27,5.53,10.88,2.83,3.17,3.85,7.95,6.91,10.67,3.8-1.1,4.53-5.92,4.49-9.39-.86-9.94,4.9-19.34,8.34-28.43,1.9-2.85,8.37-1.24,11.68-2.68,10.19-1.45,20.62-1.16,30.72-3.71.01-2.88-2.02-5.01-3.33-7.44-1.04-1.69-3.39-1.94-4.75-3.35-3-1.56-4.51-4.63-6.67-7.1a179.547,179.547,0,0,0-14.17-12.31c1.81-2.95,4.15-5.64,5.72-8.56-.66-1.59,1.48-3.61-.52-4.63-1.62-1.32-2.35.41-3.73.98-2.58,1.2-3.94,3.87-5.83,5.95-1.39,2.55-4.34-2.72-6.05-3.07-3.91-1.03,12.52-27.19,11.46-31.2-4.68-3.67-15.31,3.69-21.41,4.43,3.04-9.49,8.7-18.72,14.82-26.31,4.2-5.2,10.13-8.55,14.91-13.21.74-.88,1.85-.35,2.56-1.24,4.44-2.02,9.08-3.73,13.44-5.99,1.54-.71,2.76-.03,4,1.12-10.17,6.46-19.82,13.44-28.25,22-4.3,3.05-11.6,8.93-7.26,14.46a1.182,1.182,0,0,0,1.99.41c4.36-5.26,10.66-8.51,15.51-13.34,6.75-6.96,15.12-12.29,21.96-18.88.77-.61,1.7-1.8,2.78-1.2,2.33,1.69,5.01,2.84,7,4.94-5.3,1.4-9.36,4.97-14.45,6.85-5.68,2.41-12.71,9-1.35,8.08,5.47-2.95,11.07-6.65,17.4-8.16,5.16-2.91,7.76-1.43,11.44,2.81-27.15,6.15-50.99,24.22-62.52,49.67-.58,2.63,4.69,2.05,4.95.02.09-2.82,3.79-3.2,3.83-5.99,2.66-4.48,7.15-7.83,11.05-11.26,4.31-4.1,8.1-8.83,13.43-11.75,5.14-6.46,9.9-6.37,17.35-8.34a105.825,105.825,0,0,1,19.31-5.52c3.21.48,7.06,5.28,9.31,7.85-8.55,2.6-18.75,1.65-26.27,6.7-9,4.49-17.49,10.1-26.48,14.6-3.57,1.35-11.99,6.62-11.24,10.73-.01,1.95,2.04.41,2.72,1.48a116.7,116.7,0,0,1,34.58-20.25c3.51-1.41,6.59-4.85,10.61-4.04,3.66-4,13.88-.47,19.78-2.54,4.7-.57,6.56,11.84,7.02,15.42-6.81.8-13.46.69-20.21,1.7-6.47.97-12.3,4.26-18.85,4.91-11.57,5.16-23.84,9.1-34.05,16.85-1.49,1.26-3.33,6.48-.19,6.83,1.44-.56,3.58,1.11,4.44-.97,6.15-7.42,20.65-12.55,29.63-16.4,4.3-2.75,9.94-2.81,14.85-3.01,7.69-.28,15.44-.89,23.13-1.28C910.881,907.913,910.161,911.423,909.911,913.743Z" fill="#fff" opacity="0.8"/>
        <path id="Path_29" data-name="Path 29" d="M808.341,818.8c1.4,1.1,6.14,4.05,6.14,4.05-6.69,6.01-10.74,15.71-15.63,22.94-5.1,8.02-5.65,18.24-8.66,27.19-.87,5.2-2.39,10.28-3.47,15.44-.6,2.85-2.23,5.32-1.34,8.34l-2.27.48c-.1-1.45-1.41-1.79-2.09-2.67-.27-1.66-1.66-2.53-2.58-3.73-4.11-3.71-1.23-9.93-.99-14.77.05-2.48,1.64-4.39,1.81-6.91,1.37-4.48,2.44-9.06,4.53-13.07,4.38-7.43,9.37-14.43,13.94-21.85,2.38-3.86,5.54-8.17,5.25-8.37C804.991,822.853,807.071,819.823,808.341,818.8Z" fill="#fff" opacity="0.8"/>
        <path id="Path_30" data-name="Path 30" d="M841.811,838.833c-6.19,2.58-8.99,8.91-14.53,12.37-8.52,5.24-14.64,12.92-19.53,21.55-3.99,5.71-5.82,12.5-9.44,18.4-.97,3.03-4.32,3.09-7.07,3.79,3.8-24.15,12.97-49.1,28.63-68.15,2.46.95,4.07,3,6.55,4.14-7.46,6.13-25.07,21.46-17.78,31.74,4.95-10.53,15.65-17.52,21.54-27.67C830.6,831.743,840.091,837.843,841.811,838.833Z" fill="#fff" opacity="0.8"/>
        <path id="Path_31" data-name="Path 31" d="M779.231,920.343c1.62,1.59,2.17,3.22,4.63,3.45,2.83-2.44,5.39-5.05,9.07-6.18.29.89-2.46,7.28-3.59,8.38.59,2.98.25,3.61,3.9,4.58,4.9,1.43,8.83,6.08,13.79,8.02-.08.11-.16.21-.24.32-9.22-.46-11.05-1.2-11.82.43-.65,1.37-.33,7.33-1.36,12.89-2.72-2.33-3.58-7.71-6.06-9.7-4.18-2.42-9.83,4.04-14.23,3.86,2.19-2.61,3.9-5.2,6.26-7.55.97-.72,3.69-4.7,2.91-6.64-7.42-.93-18.38-2.53-25.63-3.96,11.23-6.79,13.43-5.76,13-7.46-.35-1.41-2.51-4.73-2.77-16.06C771.691,909.123,774.261,916.013,779.231,920.343Z" fill="#953430"/>
        <path id="Path_32" data-name="Path 32" d="M751.581,918.253c-7.47.61-22.84,8.4-27.27,14.06,1.44-.28,10.04,2.84,11.76,3.79,4.09,1.33,16.4,3.51,20.09,5.21,4.62,2.26-2.67,8.46-4.09,10.42-5.3,6.01-9.61,14.58-12.64,21.61a191.456,191.456,0,0,0,43.58-12.25c3.68-3.04,3.86,2.68,4.72,5.04,2.77,7.18,4.32,16.22,9.08,21.98,4.61-11.09,5.88-23.36,11.81-33.92,2.82-4.49,9.06-1.85,13.34-1.7,4.12.61,8.36.07,12.53.01,2.47.64,4.73-.27,7.16-.01a1.77,1.77,0,0,0,1.91-.84c-11.56-9.2-22.51-19.28-34.44-28.13-.89-.65-2.06-.96-2.11-2.33a5.532,5.532,0,0,1-1.83-2.81c3.06-5.17,4.46-10.78,6.9-16.08.52-1.94,5.09-7.85,3.79-9.01-7.84,2.3-15.47,5.23-23.11,8.1-4.27.94-9.41,6.68-12.81,2.07-2.95-2-4.68-5.09-7.14-7.63-1.08-1.82-1.17-4.37-3.26-5.47-2.91-4.23-6.76-7.92-8.91-12.65-.43-.7-.97-2.15-1.96-2.01-1.3,9.88.12,19.73-1.17,29.6C757.541,909.913,758.731,919.153,751.581,918.253Zm156.96-58.61c11.68,16.05,14.14,40.95,13.26,58.59-.6,11.91-6.57,30.71-9.36,45.22-2.17,11.32-7.01,16.32-12.83,25.67s-13.752,12.62-23.632,21.77c-7.46,6.92-12.718,11.54-21.628,15.84-11.72,5.78-21.93,6.94-34.93,7.23-8.64-.39-18.715,1.243-27.535,2.233-10.39-.48-23.645-7.6-33.915-9.343-21.71-6.77-29.58-10.05-45.21-22.89-6.1-5.01-19.1-15.75-21.24-22.21-2.23-5.44-5.64-10.31-6.13-16.29-.31-4.34-2.51-8.29-3.85-12.45a92.55,92.55,0,0,1-3-31.17c2.67-17.22,4.11-34.91,10-51.37,7.46-9.46,12.47-20.54,19.96-29.99,16.28-15.7,37.73-28.71,60.48-31.19,8.27.86,15.01-3.16,23.11-2.8,1.61.3,17.6,3.25,24.32,3.55,1.85.21,17.78,3.55,22.36,5.5,9.64,3,16.59,8.39,23.44,11.72,7.77,3.79,15.33,5.72,25.12,12.84C894.061,844.993,903.431,852.953,908.541,859.643Zm.33,68.64c2.17-4.46,1.91-9.76,1.04-14.54.25-2.32.97-5.83-2.69-5.44-7.69.39-15.44,1-23.13,1.28-4.91.2-10.55.26-14.85,3.01-8.98,3.85-23.48,8.98-29.63,16.4-.86,2.08-3,.41-4.44.97-3.14-.35-1.3-5.57.19-6.83,10.21-7.75,22.48-11.69,34.05-16.85,6.55-.65,12.38-3.94,18.85-4.91,6.75-1.01,13.4-.9,20.21-1.7-.46-3.58-2.32-15.99-7.02-15.42-5.9,2.07-16.12-1.46-19.78,2.54-4.02-.81-7.1,2.63-10.61,4.04a116.7,116.7,0,0,0-34.58,20.25c-.68-1.07-2.73.47-2.72-1.48-.75-4.11,7.67-9.38,11.24-10.73,8.99-4.5,17.48-10.11,26.48-14.6,7.52-5.05,17.72-4.1,26.27-6.7-2.25-2.57-6.1-7.37-9.31-7.85a105.825,105.825,0,0,0-19.31,5.52c-7.45,1.97-12.21,1.88-17.35,8.34-5.33,2.92-9.12,7.65-13.43,11.75-3.9,3.43-8.39,6.78-11.05,11.26-.04,2.79-3.74,3.17-3.83,5.99-.26,2.03-5.53,2.61-4.95-.02,11.53-25.45,35.37-43.52,62.52-49.67-3.68-4.24-6.28-5.72-11.44-2.81-6.33,1.51-11.93,5.21-17.4,8.16-11.36.92-4.33-5.67,1.35-8.08,5.09-1.88,9.15-5.45,14.45-6.85-1.99-2.1-4.67-3.25-7-4.94-1.08-.6-2.01.59-2.78,1.2-6.84,6.59-15.21,11.92-21.96,18.88-4.85,4.83-11.15,8.08-15.51,13.34a1.182,1.182,0,0,1-1.99-.41c-4.34-5.53,2.96-11.41,7.26-14.46,8.43-8.56,18.08-15.54,28.25-22-1.24-1.15-2.46-1.83-4-1.12-4.36,2.26-9,3.97-13.44,5.99-.71.89-1.82.36-2.56,1.24-4.78,4.66-10.71,8.01-14.91,13.21-6.12,7.59-11.78,16.82-14.82,26.31,6.1-.74,16.73-8.1,21.41-4.43,1.06,4.01-15.37,30.17-11.46,31.2,1.71.35,4.66,5.62,6.05,3.07,1.89-2.08,3.25-4.75,5.83-5.95,1.38-.57,2.11-2.3,3.73-.98,2,1.02-.14,3.04.52,4.63-1.57,2.92-3.91,5.61-5.72,8.56a179.547,179.547,0,0,1,14.17,12.31c2.16,2.47,3.67,5.54,6.67,7.1,1.36,1.41,3.71,1.66,4.75,3.35,1.31,2.43,3.34,4.56,3.33,7.44-10.1,2.55-20.53,2.26-30.72,3.71-3.31,1.44-9.78-.17-11.68,2.68-3.44,9.09-9.2,18.49-8.34,28.43.04,3.47-.69,8.29-4.49,9.39-3.06-2.72-4.08-7.5-6.91-10.67-3.51-2.61-3.62-7.25-5.53-10.88-2.01-3.08-3.04-6.48-4.83-9.64-.94-1.42-2.55-.12-3.78.17-6.23,2.48-12.9,2.83-19.48,3.4-7.02,1.72-21.54,6.67-27.84,4.18a1.856,1.856,0,0,1,.52-2.19c3.2-3.72,4.01-8.41,7.19-12.17,1.09-3.26,13.25-16.64,9.3-18.6-9.51-3.76-14.38-2.57-23.71-6.61-3.96-1.58-8.59-2.67-11.29-6.25-3.12-6.12,11.18-8.11,14.66-11.85,6.84-5.85,18.9-7.53,22.19-16.51,1.14-11.54,1.8-23.39,6.25-34.12,3.48-5.75,14.17,10.16,16.53,12.69,2.07-5.31,1.73-11.52,3.6-17.02a19.522,19.522,0,0,0,1.33-7.42c.86-.47.63-1.32.85-2.03a74.252,74.252,0,0,1,9.1-18.1c3.09-7.98,9.05-14.42,13.55-21.47-2.78-1.3-5.36-.07-8.16.36a142.644,142.644,0,0,0-26.28,6.44c-2.69.87-24.79,7.54-26.85,9.86-8,11.12-21.37,17.64-27.89,29.83-1.21,3.72-6.29,19.01-7.12,22.93-9.69,25.99-14.17,54.19-8.21,81.56,3.8,17.16,13.91,30.67,32.05,37.01,21.26,9.7,42.85,19.58,66.38,15.63,20.72-3.47,40.48-4.54,57.58-16.89,10.63-5.18,18.05-13.48,27.17-21.2,1-1.05,15.53-15.32,17.86-20.84C900.911,950.023,904.8,938.953,908.871,928.283Zm-81.59-77.08c5.54-3.46,8.34-9.79,14.53-12.37-1.72-.99-11.21-7.09-11.63-3.83-5.89,10.15-16.59,17.14-21.54,27.67-7.29-10.28,10.32-25.61,17.78-31.74-2.48-1.14-4.09-3.19-6.55-4.14-15.66,19.05-24.83,44-28.63,68.15,2.75-.7,6.1-.76,7.07-3.79,3.62-5.9,5.45-12.69,9.44-18.4C812.641,864.123,818.761,856.443,827.281,851.2Zm-12.8-28.35s-4.74-2.95-6.14-4.05c-1.27,1.02-3.35,4.05-5.36,7.07.29.2-2.87,4.51-5.25,8.37-4.57,7.42-9.56,14.42-13.94,21.85-2.09,4.01-3.16,8.59-4.53,13.07-.17,2.52-1.76,4.43-1.81,6.91-.24,4.84-3.12,11.06.99,14.77.92,1.2,2.31,2.07,2.58,3.73.68.88,1.99,1.22,2.09,2.67l2.27-.48c-.89-3.02.74-5.49,1.34-8.34,1.08-5.16,2.6-10.24,3.47-15.44,3.01-8.95,3.56-19.17,8.66-27.19C803.741,838.563,807.791,828.863,814.481,822.853Z" fill="#001d33"/>
        <path id="Path_33" data-name="Path 33" d="M751.581,918.253c7.15.9,5.96-8.34,5.93-12.95,1.29-9.87-.13-19.72,1.17-29.6.99-.14,1.53,1.31,1.96,2.01,2.15,4.73,6,8.42,8.91,12.65,2.09,1.1,2.18,3.65,3.26,5.47,2.46,2.54,4.19,5.63,7.14,7.63,3.4,4.61,8.54-1.13,12.81-2.07,7.64-2.87,15.27-5.8,23.11-8.1,1.3,1.16-3.27,7.07-3.79,9.01-2.44,5.3-3.84,10.91-6.9,16.08a5.532,5.532,0,0,0,1.83,2.81c.05,1.37,1.22,1.68,2.11,2.33,11.93,8.85,22.88,18.93,34.44,28.13a1.77,1.77,0,0,1-1.91.84c-2.43-.26-4.69.65-7.16.01-4.17.06-8.41.6-12.53-.01-4.28-.15-10.52-2.79-13.34,1.7-5.93,10.56-7.2,22.83-11.81,33.92-4.76-5.76-6.31-14.8-9.08-21.98-.86-2.36-1.04-8.08-4.72-5.04a191.456,191.456,0,0,1-43.58,12.25c3.03-7.03,7.34-15.6,12.64-21.61,1.42-1.96,8.71-8.16,4.09-10.42-3.69-1.7-16-3.88-20.09-5.21-1.72-.95-10.32-4.07-11.76-3.79C728.741,926.653,744.111,918.863,751.581,918.253Zm-2.41,13.86c4.56-.37,8.75,1.45,13.17,2.11,4.22,1.11,8.8.41,12.8,2.16-3.57,4-6.47,8.35-10.73,11.59-2.39,1.77-11.17,6.83-5.1,9.06,5.32-.08,10.31-3.86,15.28-5.66,2.71-.46,9.82-6.56,11.39-3.27a112.642,112.642,0,0,0,5.62,10.44c1.61,2.77,6.31,6.85,6.63,1.86,1.81-3.93-2.17-16.49,2-17.73,4.9.78,9.84.41,14.76.73,10.13-3.27-17.39-12.93-19.48-16.59,2.47-6.13,6.53-11.76,9.27-17.8-.18-9.93-15.76,7.51-19.96,8.49-2.19.64-3.03-3.48-4.43-4.74-.89-2.3-2.99-3.8-4.71-5.49-1.5-3.17-4.06-5.53-6.2-8.27-2.93-2.6-3.89-10.1-7.87-4.05-.6,3.96,1.53,7.65,1.61,11.6,0,3.92.96,7.8,1.53,11.7-.16,2.03-3.52,2.13-4.97,3.18a39.893,39.893,0,0,0-13.08,6.62C744.721,929.8,746.971,932.463,749.171,932.113Z" fill="#f5c455"/>
        <path id="Path_34" data-name="Path 34" d="M769.861,920.783c.43,1.7-1.77.67-13,7.46,7.25,1.43,18.21,3.03,25.63,3.96.78,1.94-1.94,5.92-2.91,6.64-2.36,2.35-4.07,4.94-6.26,7.55,4.4.18,10.05-6.28,14.23-3.86,2.48,1.99,3.34,7.37,6.06,9.7,1.03-5.56.71-11.52,1.36-12.89.77-1.63,2.6-.89,11.82-.43.08-.11.16-.21.24-.32-4.96-1.94-8.89-6.59-13.79-8.02-3.65-.97-3.31-1.6-3.9-4.58,1.13-1.1,3.88-7.49,3.59-8.38-3.68,1.13-6.24,3.74-9.07,6.18-2.46-.23-3.01-1.86-4.63-3.45-4.97-4.33-7.54-11.22-12.14-15.62C767.351,916.053,769.511,919.373,769.861,920.783Zm-7.52,13.44c-4.42-.66-8.61-2.48-13.17-2.11-2.2.35-4.45-2.31-2.47-4.06a39.893,39.893,0,0,1,13.08-6.62c1.45-1.05,4.81-1.15,4.97-3.18-.57-3.9-1.53-7.78-1.53-11.7-.08-3.95-2.21-7.64-1.61-11.6,3.98-6.05,4.94,1.45,7.87,4.05,2.14,2.74,4.7,5.1,6.2,8.27,1.72,1.69,3.82,3.19,4.71,5.49,1.4,1.26,2.24,5.38,4.43,4.74,4.2-.98,19.78-18.42,19.96-8.49-2.74,6.04-6.8,11.67-9.27,17.8,2.09,3.66,29.61,13.32,19.48,16.59-4.92-.32-9.86.05-14.76-.73-4.17,1.24-.19,13.8-2,17.73-.32,4.99-5.02.91-6.63-1.86a112.642,112.642,0,0,1-5.62-10.44c-1.57-3.29-8.68,2.81-11.39,3.27-4.97,1.8-9.96,5.58-15.28,5.66-6.07-2.23,2.71-7.29,5.1-9.06,4.26-3.24,7.16-7.59,10.73-11.59C771.141,934.633,766.561,935.333,762.341,934.223Z" fill="#001d33"/>
      </g>
    </g>
    <path id="Path_35" data-name="Path 35" d="M844.94,873.048c-.392,1.547-1.959,2.13-2.772,3.286-1.54,2.831-4.57,4-6.6,6.4-1.112,1.251-2.285-.668-3.433.33-2.011,1.495-4.254-1.756-2.278-3.273C833.275,878.387,842.5,867.176,844.94,873.048Z" fill="#001d33"/>
    <path id="Path_36" data-name="Path 36" d="M911.64,1008.31a11.217,11.217,0,0,0,1.917-.729,7.738,7.738,0,0,1,1.678-.176c1.952.074,3.25,0,5.017,1.043.463.273,1,.42,1.474.674a3.526,3.526,0,0,1,1.842,2.527,3.132,3.132,0,0,0,.423.985,4.994,4.994,0,0,1,.159,4.754,26.772,26.772,0,0,1-2.273,4.283,7.8,7.8,0,0,1-.52.623c-.386.5-.8.975-1.137,1.505a13.692,13.692,0,0,1-2.66,3,.959.959,0,0,1-1.1.02c-1.225-.568-2.41-1.447-3.568-2.131a34.687,34.687,0,0,1-2.805-2.095c-.969-.714-4.77-2.929-5.359-3.608a13.621,13.621,0,0,0-4.186-3.069c-1.491-.847-3-2.268-4.465-3.163-1.278-.781-4.221-3.424-4.817-3.851s-.617-.671-.174-1.274c.28-.382,1.873-2.168,2.273-2.761a28.04,28.04,0,0,1,3.183-3.463c2.884-1.954,6.14-2.605,8.775-1.526a8.712,8.712,0,0,1,2.627.923,14.56,14.56,0,0,1,2.271,1.908,4.317,4.317,0,0,1,1.4,3.64C911.578,1006.966,911.628,1007.587,911.64,1008.31Zm4.456,12.207c.509-.7.971-1.367,1.462-2.009.893-1.17,1.715-1.843,1.3-3.429-.052-.2-.069-.942-.106-1.147-.111-.6-1-1.322-1.657-1.608s-1.432-1-2.144-.873a12.178,12.178,0,0,0-3.21.768,12.032,12.032,0,0,0-1.986,1.787c-.373.331-.766.573-.874,1.073-.046.211.516.9.789,1.109,1.767,1.355,4.32,2.826,6.1,4.163A2.681,2.681,0,0,0,916.1,1020.517Zm-11.691-8.56c.219-.342.728-1.006.873-1.319.3-.653.513-1.354.856-1.983a4.42,4.42,0,0,0,.605-3.088c-.165-.836-1.525-2.449-2.388-2.4-1.58.1-3.5.15-4.669,1.439-.02.022-.055.029-.075.05-.522.529-1.338,1.436-1.846,1.978-.292.311-.231.592.144.808a4.887,4.887,0,0,1,1.074.656C900.295,1009.431,902.874,1010.793,904.405,1011.957Z" fill="#001d33"/>
    <path id="Path_37" data-name="Path 37" d="M914.828,850.794a6.839,6.839,0,0,1-7.484-3.048,7.681,7.681,0,0,1,.571-9.465c.676-.592,2.438-2.082,4.346-3.494,2.524-1.868,5.841-3.555,6.7-2.886a6.767,6.767,0,0,1,1.839,2.6c.382,1-.825,2.046-2.326,3.012a43.306,43.306,0,0,0-4.232,2.657c-1.8,1.728-2.1,3.492-1.483,4.6.8,1.418,2.571,1.706,5.761-.516,1.745-1.215,3.276-2.069,5.1-3.158a1.878,1.878,0,0,1,2.735.493,8.582,8.582,0,0,1,1.39,2.287c.813,1.628-.9,2.331-2.5,3.38-1.523.994-3.4,1.955-3.863,3.345a2.414,2.414,0,0,0,.135,2.107c.153.517,2.076,1.317,2.555.986,1.117-.477,3.366-2.786,6.534-4.55.742-.412,1.892.246,2.748,1.232,1.019,1.175,1.619,2.817.6,3.664-1.3,1.087-2.632,2.135-3.976,3.156-1.705,1.3-2.875,2.843-4.609,4.075-1.711,1.216-2.694,1.578-4.393,2.779a1.205,1.205,0,0,1-1.573-.025,7.313,7.313,0,0,1-2.328-2.53c-.53-1.06-.663-1.822.258-2.422.454-.295,1.638-1.31,1.625-1.568a4.1,4.1,0,0,1-3.115-2.047A5.405,5.405,0,0,1,914.828,850.794Z" fill="#001d33"/>
    <path id="Path_38" data-name="Path 38" d="M948.351,956.1c-2.364.3-5.806-.371-8.558-.465-.436-.015-5.582-.4-7.818-.449-3.42-.41-6.874-.383-10.278-.926-.7-.082-1.649-.314-1.786-1.1.013-1.291-.171-3.549,1.764-3.2,1.165.106,3.371.183,4.536.374a46.9,46.9,0,0,0,5.673.253c.607.038.559-.569.56-1-.51-6.6,7.171-11.7,12.779-10.32,1.646.526,4.244,1.111,4.337,2.041a8.24,8.24,0,0,1-.359,3.558c-.229.377-1.041.39-3.417-.319-2.672-1.107-6.253-1.29-8.411,1.353-.477.487-1.022,2.571-.092,3.5,1.713,1.713,2.8,1.921,5.78,2.2,1.6.15,5.37-.772,5.848-.06S949.188,954.8,948.351,956.1Z" fill="#001d33"/>
    <path id="Path_39" data-name="Path 39" d="M925.313,898.028c.023-.471.3-1.469.876-1.6,1.4-.495,5.7-1.008,6.995-1.344.972-.253,1.473-.235,1.36-1.234-.193-1.694-.962-4.77-.866-5.9a7.088,7.088,0,0,1,2.063-3.939,9.576,9.576,0,0,1,4.951-2.8c1.914-.4,4.769-1.242,6.461-.915a1.522,1.522,0,0,1,1.207,1.235c.12.972,1.16,3.658-.6,4.219-2.046.654-3.822.775-5.3,1.137a4.361,4.361,0,0,0-2.34,2.578,4.484,4.484,0,0,0,.551,3.756c.455.727,2.1.565,3.855.181s3.6-.991,4.464-1.154c1.5-.283,1.921,1.515,2.091,2.409.313,1.637.864,2.877-1.335,3.318-2.284.322-4.505.72-6.7,1.142-2.975.57-5.908,1.185-8.9,1.717-2.167.387-4.364.729-6.628.981C925.964,901.985,925.47,900.245,925.313,898.028Z" fill="#001d33"/>
    <path id="Path_40" data-name="Path 40" d="M749.654,1046.326c.2.362.393.678.558,1.008a1.465,1.465,0,0,1,.117,1.223,1.091,1.091,0,0,0,.2,1.109,12.839,12.839,0,0,0,1.787,2.312,3.506,3.506,0,0,1,.826,1.247c.589,1.418,1.745,1.735,3.1,1.708.894-.018,1.789-.051,2.683-.085a3.975,3.975,0,0,1,.712-.065,1.127,1.127,0,0,0,1.228-.682,4.855,4.855,0,0,0,.795-2.449,1.744,1.744,0,0,0-1.335-1.949,20.567,20.567,0,0,1-6.081-3.183,1.961,1.961,0,0,1-.376-.292,7.847,7.847,0,0,1-1.782-3.288,25.068,25.068,0,0,1-.234-2.844,3.569,3.569,0,0,1,.709-2.233,10.753,10.753,0,0,1,.717-.957,3.4,3.4,0,0,1,2.516-1.477c.781-.045,1.541-.371,2.322-.495a7.9,7.9,0,0,1,1.337.04c.3.005.593-.02,1.079-.039a12.912,12.912,0,0,0,3.951,1.685c.3.083.6.166.746-.191a1.375,1.375,0,0,1,1.408-.818,6.182,6.182,0,0,0,.62-.1,1.615,1.615,0,0,1,.111,1.483c-.48,1.2-.927,2.418-1.407,3.621a2.538,2.538,0,0,1-.4.595c-.571.724-1.15,1.443-1.766,2.213a1.239,1.239,0,0,1-.235-.031c-.72-.2-.857-.433-.675-1.143.339-1.325.357-1.358-.782-2-.967-.545-1.98-1.01-2.979-1.5a1.069,1.069,0,0,0-.53-.111c-.764.064-1.529.137-2.289.244a1.568,1.568,0,0,0-1.281,1.766,5.2,5.2,0,0,0,2.084,3.421,17.464,17.464,0,0,0,4.216,2.519,7.971,7.971,0,0,1,2.9,2.176,4.175,4.175,0,0,1,.843,2.594,9.022,9.022,0,0,1-.348,2.418,10.719,10.719,0,0,0-.12,1.176c-.022.264,0,.531-.043.791a1.934,1.934,0,0,1-1.782,1.837c-.386.078-.764.195-1.146.294s-.712.359-1.138.217a.439.439,0,0,0-.311.037c-1,.536-2.078.287-3.124.34a7.6,7.6,0,0,1-3.206-.406,9.531,9.531,0,0,1-4.108-2.616c-.3-.362-.511-.793-.794-1.17-.386-.511-.412-.5-.863-.034-.4.416-.814.82-1.187,1.259a.769.769,0,0,1-.92.265,3.76,3.76,0,0,1-.716-.342.8.8,0,0,1-.4-1.012,25.5,25.5,0,0,1,1.041-2.83c.733-1.5,1.565-2.947,2.385-4.4A1.382,1.382,0,0,1,749.654,1046.326Z" fill="#001d33"/>
    <path id="Path_41" data-name="Path 41" d="M771.9,1046.085c.225,0,.612-.031.995,0,.6.042,1.2.121,1.8.184.636-.552,1.364-.114,2.044-.191.047-.005.089-.054.177-.111.075-.348.133-.741.248-1.116a17.733,17.733,0,0,1,.6-1.711c.329-.779.71-1.536,1.056-2.308a1,1,0,0,0,.09-.467,2.544,2.544,0,0,1,.608-1.714,1.047,1.047,0,0,1,1.2-.548,8.1,8.1,0,0,1,1.806.78,1.379,1.379,0,0,1,.525,1.681c-.456,1.716-.935,3.425-1.419,5.133a8.649,8.649,0,0,1-.337.806c-.092.232-.169.47-.291.816l.873.079a1.665,1.665,0,0,1,1.119.5,5.282,5.282,0,0,0,1.265.789,9.78,9.78,0,0,0,.93.389c.044.616.1,1.215.123,1.816.016.53-.1.7-.6.765a8.891,8.891,0,0,1-1.739.085c-.816-.055-1.626-.2-2.464-.312-.545.483-.451,1.187-.495,1.779a20.751,20.751,0,0,0,.214,5.041,4.836,4.836,0,0,0,2.994,3.888,6.064,6.064,0,0,1,.978.511,2.3,2.3,0,0,0,1.522.306,8.265,8.265,0,0,0,2.3-.5,1.858,1.858,0,0,0,.951-.917c.269-.481.549-.959.794-1.452a8,8,0,0,0,.627-1.444,1.625,1.625,0,0,1,2.578-.552,4.459,4.459,0,0,1,1,1.411,9.9,9.9,0,0,1,.369,2.091.873.873,0,0,1-.6.933,8.253,8.253,0,0,0-2.039,1.626,4.03,4.03,0,0,1-.713.607,11.221,11.221,0,0,1-3.681,1.638,10.025,10.025,0,0,1-5.3-.4,5.3,5.3,0,0,1-2.018-1.359c-.474-.531-1-1.013-1.476-1.545a2.186,2.186,0,0,1-.477-.809,10.58,10.58,0,0,0-1.032-2.2,8.715,8.715,0,0,1-.971-3.391c-.117-1.208-.222-2.419-.263-3.631a11.412,11.412,0,0,1,.178-1.816c.03-.235.131-.461.166-.7.085-.567.025-.669-.525-.9-.9-.375-1.822-.723-2.717-1.12a2.618,2.618,0,0,1-.91-.614A1.245,1.245,0,0,1,771.9,1046.085Z" fill="#001d33"/>
    <path id="Path_42" data-name="Path 42" d="M812.636,1063.988a5.135,5.135,0,0,1-.608-2.737c-.026-1.268-.046-2.536-.092-3.8-.053-1.463-.025-5.023-.121-5.146a6,6,0,0,0-3.217-4.133,8.156,8.156,0,0,0-5.137-.556A8.868,8.868,0,0,0,800.2,1049c-.039.006-.14.151-.274.372.688.695,1.417,1.348,2.121,2.025a4.806,4.806,0,0,1,3.441-.711c2.378,0,3.138,1.167,3.068,3.587-.3.369-2.492-.378-4.814-.02-2.147.6-3.17,1.455-3.662,2.315a5.787,5.787,0,0,0-.228,5.462c1.972,3.257,3.708,3.094,5.369,3.346.468-.005,2.612-.119,3.079-.193,1.635-.235,1.74-1.548,1.886-1.2a7.466,7.466,0,0,0,.669,1.491c.845,1.012,2.456.5,3.036.251C813.355,1065.086,813.126,1064.674,812.636,1063.988Zm-3.712-2.932a1.681,1.681,0,0,1-1.7,1.193,5.8,5.8,0,0,1-2.638-.271c-.981-.323-1.469-1.032-1.431-2.637.125-1.507.524-1.9,2.033-2.5a3.629,3.629,0,0,1,1.8-.158,2.119,2.119,0,0,1,1.9,1.27A4.739,4.739,0,0,1,808.924,1061.056Z" fill="#001d33"/>
    <path id="Path_43" data-name="Path 43" d="M859.212,1058.341a5.245,5.245,0,0,1-2.852-.962,10.455,10.455,0,0,1-3.444-2.393c-.3-.374-.379-.919-.672-1.3-.272-.353-.783-.532-1.027-.9a3.846,3.846,0,0,1-.527-1.42,14.479,14.479,0,0,1,.024-5.068,7.85,7.85,0,0,1,3.531-5.107c.729-.533,1.547-.944,2.325-1.41a.742.742,0,0,1,.095-.051,8.86,8.86,0,0,1,3.956-.274,4.844,4.844,0,0,1,3.134,1.6,22.514,22.514,0,0,1,1.885,2.781c.356.546.683,1.111,1.037,1.659a9.232,9.232,0,0,1,1.445,4.912,7.7,7.7,0,0,1-2.918,6.243A7.586,7.586,0,0,1,859.212,1058.341Z" fill="#001d33"/>
    <path id="Path_44" data-name="Path 44" d="M936.363,988.4a10.221,10.221,0,0,1,1.272,4.148,11.452,11.452,0,0,1-.851,6.124c-1.547,3.565-4.2,5.652-8.79,5.352-2.168-.141-6.586-.791-8.317-2.6a11.563,11.563,0,0,1-3.158-5.487c-.353-1.746.219-4.741,2.022-5.891a11.082,11.082,0,0,1,8.148-1.882c.545.068,1.082.028,1.468.52a.949.949,0,0,1,.16.979c-.446,1.189-1.319,2.94-1.736,4.138a34.34,34.34,0,0,1-2.031,5.2c-.219.417-.321,1.147.151,1.377a11.076,11.076,0,0,0,4.236.9,6.906,6.906,0,0,0,5.611-5.031,7.5,7.5,0,0,0,.43-2.537,4.929,4.929,0,0,0-.676-3.221,3.827,3.827,0,0,1-.788-1.707,1.665,1.665,0,0,1,1.023-1.728C935,986.946,935.441,987.117,936.363,988.4Zm-14.822,10.118c.947-1.126,1.244-2.874,2.015-4.124a27.628,27.628,0,0,0,1.249-3.347,5.852,5.852,0,0,0-3.861.729c-.949.683-2.112,2.978-1.086,4.489A8.985,8.985,0,0,0,921.541,998.516Z" fill="#001d33"/>
    <path id="Path_45" data-name="Path 45" d="M942.145,931.735a49.88,49.88,0,0,0-5.859-.448c-1.842-.114-6.507.049-8.4-.272-.7.015-1.358.274-2.1-.144-.495-.279-.259-2.123-.232-2.465.046-.6.558-.745.922-.822a6.608,6.608,0,0,1,2.576-.005,8.316,8.316,0,0,0,1.432.039,27.587,27.587,0,0,1,3.624.359c.8.188,4.687.217,5.841.354.883.1,3.492.171,3.916.188,1.111.045,2.223.1,3.335.132.6.017,3.283-.007,3.8.313.744.465.35,3.066-.233,3.163a18.589,18.589,0,0,1-2.591-.071C946.767,932.061,942.651,931.8,942.145,931.735Z" fill="#001d33"/>
    <path id="Path_46" data-name="Path 46" d="M926.322,872.851a7.118,7.118,0,0,1-.44-2.652,4.293,4.293,0,0,1,1.217-2.787,24.079,24.079,0,0,1,2.241-2.243c.743-.675,1.3-.562,1.793.316.365.644.655,1.332,1.042,1.961,1.151,1.87,2.337,3.718,3.5,5.582.179.287.281.621.45.915q.475.824.992,1.625c.175.271.428.255.7.119a10.939,10.939,0,0,0,4.059-3.5c.856-1.508.647-4.3.3-5.694a5.936,5.936,0,0,0-2.381-3.017,4.319,4.319,0,0,0-1.8-.89c-.224-.027-.452-.345-.6-.579a.533.533,0,0,1,.413-.717,4.486,4.486,0,0,1,1.3.215c.443.22.726.482,1.012.593a7.974,7.974,0,0,1,2.965,3.14,10.589,10.589,0,0,1,.5,5.557,7.468,7.468,0,0,1-.992,2.481,12.084,12.084,0,0,1-3.371,3.219c-.536.387-1.053.8-1.591,1.183a.865.865,0,0,1-.5.193,3.971,3.971,0,0,0-1.824.489,5.109,5.109,0,0,1-4.289-.2,7.837,7.837,0,0,1-1.764-1.016,8.217,8.217,0,0,1-2.18-2.67C926.991,874.314,926.49,873.268,926.322,872.851Zm4.025-6.295c-.817-.147-1.231.46-1.694.895-1.143,1.077-1.964,2.318-1.535,4a9.515,9.515,0,0,0,.638,1.866,6.548,6.548,0,0,0,5.759,3.982,4.3,4.3,0,0,0,2.643-.763C934.2,873.178,932.289,869.89,930.347,866.556Z" fill="#001d33"/>
    <path id="Path_47" data-name="Path 47" d="M923.7,983.024a1.375,1.375,0,0,1-.263-1.326c.519-2.1.988-4.22,1.484-6.329.094-.4.224-.788.357-1.247-1.129-.31-1.933-1.153-3.069-1.3-.3-.04-.565-.31-.851-.465-.6-.326-1.205-.644-1.806-.971a4.307,4.307,0,0,1-.765-.456.753.753,0,0,1-.237-.959.691.691,0,0,1,.817-.394,2.539,2.539,0,0,1,.74.279c1.237.652,2.46,1.329,3.7,1.968.525.27,1.086.468,1.725.739a4.092,4.092,0,0,0,.415-.716c.425-1.234.828-2.477,1.225-3.721a5.826,5.826,0,0,0,.074-.616,4.323,4.323,0,0,1,.183-.68c.132-.353.465-.345.757-.348.341,0,.437.27.484.545a5.73,5.73,0,0,1-.437,2.608c-.309,1.051-.7,2.076-1.089,3.193a4.525,4.525,0,0,0,.7.261c.875.164,1.773.234,2.628.469a12.362,12.362,0,0,0,6.432-.041q2.41-.613,4.816-1.244a3.309,3.309,0,0,0,2.374-3.178,10.1,10.1,0,0,0-1.128-4.537c-.238-.478-.122-.781.383-.779a3.915,3.915,0,0,1,1.134.21.6.6,0,0,1,.278.414c.292,1.638.614,3.273.829,4.923a5.053,5.053,0,0,1-2.436,4.387,19.823,19.823,0,0,1-2.544.76c-1.029.275-2.07.5-3.1.781a14.508,14.508,0,0,1-6.35.094c-1.2-.206-2.389-.453-3.586-.658-.8-.136-.984,0-1.163.822-.4,1.829-.783,3.662-1.182,5.491-.114.521-.251,1.037-.4,1.55S924.557,983.11,923.7,983.024Z" fill="#001d33"/>
    <path id="Path_48" data-name="Path 48" d="M949.957,906.439a1.123,1.123,0,0,1,1.226,0,5.4,5.4,0,0,1,1.956,2.914,8.876,8.876,0,0,1-.179,4.562,10.028,10.028,0,0,1-2.464,3.6,7.834,7.834,0,0,1-3.348,1.953c-.818.237-1.975.425-2.8.619a9.791,9.791,0,0,1-4.558-.085,4.315,4.315,0,0,1-1.889-1.093c-.942-.915-1.755-1.965-2.616-2.963a1.038,1.038,0,0,1-.224-.377c-.293-1.038-.923-1.822-.757-3.146.532-4.885,2.625-4.955,4.927-5.792a14.69,14.69,0,0,1,3.488-.488.9.9,0,0,1,.48,1.175c-.026.988-.105,2.406-.166,3.4-.113,1.847-.409,3.252-.518,5.1a28.189,28.189,0,0,1-.179,2.854,10.4,10.4,0,0,0,1.744-.07,13.772,13.772,0,0,0,4.4-1.256,11.016,11.016,0,0,0,2.32-2.25,8.093,8.093,0,0,0,1.165-3.181,4.38,4.38,0,0,0-.345-2.435,7.772,7.772,0,0,0-.878-1.306C950.235,907.68,949.537,907.017,949.957,906.439Zm-8.216,1.066a11.7,11.7,0,0,0-2.756.349,6.453,6.453,0,0,0-2.337,1.361c-.846.65-1.114,2.877-.953,3.7a6.04,6.04,0,0,0,1.516,3.221,23.217,23.217,0,0,0,1.648,1.643,3.973,3.973,0,0,0,2.149.642,22.711,22.711,0,0,0,.523-4.465,20.823,20.823,0,0,1,.1-3.082A12.363,12.363,0,0,0,941.741,907.505Z" fill="#001d33"/>
    <path id="Path_49" data-name="Path 49" d="M878.726,1038.952c-.944.446-1.781.893-2.657,1.242-.94.374-.937.595-.551,1.433.442.961,1,1.87,1.539,2.786q1.143,1.958,2.328,3.891c.469.766.966,1.516,1.463,2.264a.774.774,0,0,1-.152,1.117.669.669,0,0,1-1.059-.289c-1.183-2.132-2.343-4.277-3.549-6.4-.652-1.146-1.381-2.25-2.119-3.443-.534.358-1.056.7-1.573,1.06-.2.135-.374.3-.57.436-.453.32-.761.335-.988.058a.936.936,0,0,1,.1-1.285c.63-.481,1.272-.95,1.937-1.38a.454.454,0,0,0,.178-.72,7.935,7.935,0,0,0-.507-.811,10.651,10.651,0,0,1-2.157-4.37,12.945,12.945,0,0,1-.447-2.87,6.471,6.471,0,0,1,1.061-3.746,8.182,8.182,0,0,1,2.111-2.327,7.423,7.423,0,0,1,4.215-1.2,3.189,3.189,0,0,1,2.182.73c.378.329.679.71.5,1.235a.791.791,0,0,1-.478.433.566.566,0,0,1-.489-.26,1.319,1.319,0,0,0-1.186-.788,3.131,3.131,0,0,0-2.242.239,3,3,0,0,1-.613.162,3.818,3.818,0,0,0-1.911,1.235c-.212.272-.4.565-.627.824-1.411,1.609-1.263,3.482-1.015,5.418a8.215,8.215,0,0,0,1.087,3.2c.524.881,1.153,1.7,1.783,2.612.894-.43,1.816-.826,2.689-1.309.763-.423.886-.437,1.385.295C878.481,1038.553,878.559,1038.687,878.726,1038.952Z" fill="#001d33"/>
    <path id="Path_50" data-name="Path 50" d="M820.836,1047.316a1.279,1.279,0,0,1,.606,1.31c-.1,1.847-.119,3.7-.133,5.548a.952.952,0,0,0,.364.622.579.579,0,0,0,.8-.106c1.795-1.8,4.138-2.345,6.5-2.846a1.978,1.978,0,0,1,2.057.794c-.436,1.007-.435.978-1.492.939a5.281,5.281,0,0,0-1.35.184,11.613,11.613,0,0,0-4.979,2.532,3.263,3.263,0,0,0-1.28,3.5c.208,1.021.3,2.065.447,3.1.118.831.257,1.658.355,2.491.063.527-.3,1.026-.688,1.027-.651,0-.955-.352-.973-1.028-.021-.746-.066-1.494-.158-2.233-.167-1.352-.473-2.693-.539-4.048-.06-1.229-.358-2.416-.438-3.635-.155-2.364-.027-4.725.028-7.088C819.974,1047.743,820.362,1047.547,820.836,1047.316Z" fill="#001d33"/>
  </g>
</svg>
