<svg width="62" height="58" viewBox="0 0 84 79" fill="none" xmlns="http://www.w3.org/2000/svg"><path d="M18.52 47.849c1.386 6.62.136 13.813.75 20.573-.213 4.016.032 9.39 5.36 9.057a27.15 27.15 0 0 0 10.557.745c5.52.302 11.057.286 16.573-.037 7-1.223 14.781.615 21.333-2.307.865-1.682-.25-3.62.214-5.453-1.068-7.37-.433-15.047-1.672-22.458.068-1.63 3.422-.521 4.656-1.01 1.834.223 3.375-.714 5.177-.756.531.063 1.25-1.052 1.271-1.422.995-11.562.24-23.213.719-34.729-.75-3.52-1.052-8.448-5.078-9.687-7.266-.938-14.537.661-21.87.87C50.932 2.046 45.406.53 39.828.64c-4.865.302-9.912.015-14.907.39a105.7 105.7 0 0 0-13.52.813 19.016 19.016 0 0 0-3.75.911c-1.787.464-3.756-.067-5.615.35-2.703 1 0 5.78-.839 8.077a13.843 13.843 0 0 0 .084 3.183c-.74 8.947.052 17.859.286 26.833-.198 8.208 11.365 6.48 16.953 6.651Z" fill="white"/><path d="M65.31 17.578c0-.036.01-.068.01-.099 1.173.047 2.553-.265 3.48.651.703.417 1.588.532 1.448 1.615.078.635.541 1.276.52 1.906-.025.698-.239 1.38.245 2.005.26 5.651-.208 11.308.38 16.948.459 1.787 3.162.557 4.537.797.583-.13 1.661.24 1.693-.635.687-2 .39-4.302.588-6.438 1.177-6.792.058-13.437-.172-20.27-.015-2.282.094-4.818-2.036-6.193-1.287-1.448-3.167-.886-4.755-1.308-4.782.266-9.547-.75-14.334-.797-9.432.834-18.875 2.193-28.364 1.6a65.822 65.822 0 0 1-12.026-.464c-.469-.016-.969-.136-1.334.349-3.973.828-7.859 2.031-8.223 6.849A97.751 97.751 0 0 0 8.008 39.89c1.313 2.39 4.735 1.265 6.943 1.187 1.276-.062 4.364.98 3.583-1.396a65.706 65.706 0 0 1-.838-14.958c.505-1.635-1.032-4.708 1.244-5.266 15.427-1.062 31-2.573 46.376-1.885m2.109 12.23h.026c-.167-2.433-.266-5.553-1.412-7.595a74.003 74.003 0 0 0-8.791.417c-9.917.38-20.021 1.412-30 .964-9.709.552-5.073-.589-5.782 10.12 1.334 10.135.693 20.4 1.641 30.557.787 2.161.563 4.812 1.323 6.791 12.651 3.172 25.781 1.573 38.656 1.72 1.183-.183 2.901.25 3.787-.595 1.161-4.338.776-8.849.817-13.291a213.47 213.47 0 0 0-.265-29.089ZM18.519 47.848c-5.615-.167-17.13 1.557-16.954-6.651-.24-8.974-1.026-17.886-.286-26.833-.328-2.6.23-5.276-.276-7.927C.914 5.28.378 3.28 2.029 3.104c1.865-.411 3.828.12 5.615-.344a18.985 18.985 0 0 1 3.76-.916A106.56 106.56 0 0 1 24.92 1.03C29.914.656 34.96.943 39.826.641c5.578-.11 11.11 1.406 16.682.593 7.334-.208 14.61-1.807 21.87-.87 4.026 1.24 4.323 6.167 5.078 9.688-.48 11.516.276 23.167-.719 34.73-.02.37-.734 1.484-1.27 1.421-1.803.042-3.334.98-5.178.755-1.166.485-4.666-.609-4.656 1.01 1.24 7.412.604 15.09 1.672 22.46-.458 1.838.646 3.76-.208 5.452-6.568 2.922-14.344 1.078-21.344 2.308-5.516.322-11.052.338-16.573.036a27.15 27.15 0 0 1-10.557-.745c-5.464.209-5.5-4.906-5.36-9.057-.614-6.76.641-13.953-.75-20.573" fill="#141F2C"/><path d="M25.248 30.615c13.229 4.218 27.036-1.542 40.552-.506a1.56 1.56 0 0 0 .12-2.208 1.575 1.575 0 0 0-1.255-.52 166.34 166.34 0 0 0-22.61 2.28c-3.541 1.105-16.177-1.546-16.797.954m25.943 7.635v.042c1.854-.302 15.073.411 13.484-2.339-2.625-1.734-6.776-.4-9.843-.224-5.62.146-11.276.209-16.922.214-1.766-.063-14.235-1.677-12.39 1.61 1.536 2.301 4.046.614 6.171.968 6.463-.193 13.02.437 19.495-.271m11.786 24.313c2.88-.652-.146-3.558-1.922-2.959-4.213.224-8.453.563-12.698.427-5.13-.291-10.229-.052-15.349 0-2.265.443-6.395-1.26-7.39 1.438.177 1.541 2.213 1.307 3.375 1.333.27.016.646.287.776.188.588-.35 1.099.265 1.708.13 10.438-1.115 21.162.02 31.505-.563m-2.921-8.24c.942-.239 5.833-.64 3.875-2.723-1.568-.823-3.375.224-5.047.146-3.203-.235-6.386-.22-9.573-.433a116.543 116.543 0 0 0-17-.479c-2.328-.24-4.771-.588-6.781.917-4.35 3.531 12.552 1.474 13.864 1.86 7.068.103 13.39.504 20.667.718m1.984 15.234c.01.047.021.094.037.136.849.161 2.02-.24 2.15-1.183-.536-3.302-12.046-.427-15.223-1.234-2.698.438-25.922-2.667-22.912 2.167 1.183 1.979 6.157-.162 8.401.354 9.104-.557 18.531 1.291 27.542-.245M24.566 44.927c1.125 1.042 2.364.573 3.692.922 2.495-.089 5.052.078 7.547.151 8.531.365 17.35-.547 25.953.401 2.38.542 3.802-2.792 1.224-3.27-2.11.135-4.224-.011-6.312.103-6.662.032-13.318.058-19.974.22-2.688.077-12.01-2.293-12.136 1.468m42.865-15.115c.75 9.677.844 19.39.27 29.084-.04 4.442.345 8.947-.817 13.291-.875.86-2.61.396-3.786.594-12.875-.146-26 1.448-38.651-1.719-.766-1.979-.537-4.63-1.329-6.791-.713-11.204-.848-22.433-1.64-33.625-.084-7.985-2.62-6.401 5.781-7.052 9.974.448 20.078-.584 30-.97a73.996 73.996 0 0 1 8.792-.41c1.15 2.03 1.234 5.166 1.411 7.593h-.031" fill="white"/><path d="M62.473 11.922c.542 2.068 3.48 3.422 5.25 2.104.995-.64 2.589-2.427 1.214-3.39-2.198-1.037-5.297-1.459-6.464 1.286Zm2.839 5.656c-15.38-.682-30.953.823-46.38 1.886-2.266.583-.886 4.24-1.12 5.974a50.496 50.496 0 0 0 .713 14.25c.063.49.334 1.083-.265 1.427-2.615-.214-9.25 1.349-10.256-1.214a97.571 97.571 0 0 1-1.041-25.802c.396-4.818 4.203-6.016 8.224-6.849.364-.484.864-.365 1.333-.349 3.984.52 8.01.677 12.02.464 10.287.942 20.517-1.615 30.72-1.401 4.645-.021 9.307.953 13.89.713 6.386.672 4.344 7.781 5.24 12.25a96.964 96.964 0 0 1-.771 21.839c-.557 1.297-3.443.411-4.719.744-.703.053-1.469-.046-1.505-.911-.87-6.786.51-13.844-1.042-20.427-.218-.813-.026-1.495-1.005-1.776a5.578 5.578 0 0 0-4.026-.917c0 .031-.01.063-.016.1" fill="white"/><path d="M24.566 44.927c.12-3.766 9.47-1.39 12.136-1.469 6.656-.161 13.312-.182 19.974-.218 1.89.385 8.172-1.454 7.588 1.692-.13 1.334-1.4 1.521-2.5 1.474-8.604-.953-17.416-.041-25.953-.406-2.495-.068-5.057-.24-7.547-.146-1.328-.354-2.573.115-3.692-.922m37.484 24.625c-9.016 1.531-18.438-.312-27.542.245-2.302-.52-7.156 1.63-8.4-.354-3.068-4.818 20.239-1.734 22.91-2.167 3.287.828 14.542-2.099 15.225 1.235a1.778 1.778 0 0 1-2.151 1.177l-.037-.13m-1.995-15.245c-7.27-.209-13.599-.615-20.666-.719-1.354-.385-18.183 1.682-13.865-1.86 2.01-1.505 4.448-1.15 6.781-.91a116.542 116.542 0 0 1 17 .478c3.188.214 6.375.198 9.573.433 1.677.078 3.47-.964 5.047-.146 1.974 2.083-2.953 2.479-3.875 2.724m2.917 8.245c-10.344.578-21.068-.558-31.505.557-.61.13-1.115-.48-1.709-.136-.135.1-.505-.172-.77-.187-1.162-.026-3.214.203-3.38-1.333.989-2.698 5.135-.995 7.395-1.438 5.12-.057 10.219-.297 15.35 0 4.244.13 8.478-.203 12.697-.427 1.75-.599 4.823 2.307 1.922 2.958M51.19 38.25c-6.474.708-13.03.083-19.494.27-2.125-.353-4.641 1.334-6.172-.968-1.933-3.266 10.718-1.677 12.39-1.61 5.646 0 11.302-.067 16.922-.213 3.073-.182 7.219-1.505 9.844.219 1.625 2.75-11.693 2.042-13.49 2.338v-.041m-25.942-7.63c.536-2.485 13.406.145 16.802-.953a166.17 166.17 0 0 1 22.61-2.282 1.567 1.567 0 0 1 1.655 1.474 1.56 1.56 0 0 1-.515 1.26c-13.516-1.036-27.328 4.72-40.558.5m37.23-18.692c1.166-2.745 4.265-2.323 6.463-1.287 1.375.964-.219 2.745-1.213 3.391-1.771 1.318-4.703-.036-5.25-2.104Z" fill="#141F2C"/></svg>