<?xml version="1.0" encoding="UTF-8"?>
<svg id="Layer_2" data-name="Layer 2" xmlns="http://www.w3.org/2000/svg" viewBox="0 0 61.99 58.78">
  <defs>
    <style>
      .cls-1 {
        fill: #fff;
      }

      .cls-2 {
        fill: #061e31;
      }
    </style>
  </defs>
  <g id="Layer_1-2" data-name="Layer 1">
    <g>
      <path id="Path_9923" data-name="Path 9923" class="cls-1" d="m13.29,35.83c1.04,4.97.1,10.36.56,15.43-.16,3.01.02,7.04,4.02,6.79,2.58.7,5.27.89,7.92.56,4.14.22,8.29.21,12.43-.03,5.25-.92,11.08.46,16-1.73.65-1.26-.19-2.71.16-4.09-.8-5.53-.33-11.28-1.25-16.84.05-1.22,2.57-.39,3.49-.76,1.38.17,2.53-.53,3.88-.57.4.05.94-.79.95-1.07.75-8.67.18-17.41.54-26.05-.56-2.64-.79-6.33-3.81-7.26-5.45-.71-10.9.49-16.4.65-4.18.61-8.33-.53-12.51-.45-3.65.23-7.43.01-11.18.29-3.39-.01-6.78.19-10.14.61-.96.13-1.9.36-2.81.69-1.34.35-2.82-.05-4.21.26-2.03.75,0,4.34-.63,6.06-.07.8-.05,1.6.06,2.39-.56,6.71.04,13.39.21,20.13-.15,6.15,8.52,4.86,12.72,4.99"/>
      <path id="Path_9924" data-name="Path 9924" class="cls-2" d="m13.29,35.83c-4.21-.13-12.85,1.17-12.72-4.99-.18-6.73-.77-13.42-.22-20.12-.24-1.95.17-3.96-.21-5.94-.06-.87-.47-2.37.77-2.5,1.4-.31,2.87.09,4.21-.26.91-.32,1.86-.56,2.82-.69,3.36-.42,6.75-.62,10.14-.61,3.75-.28,7.53-.06,11.18-.29,4.18-.08,8.33,1.05,12.51.45,5.5-.16,10.95-1.36,16.4-.65,3.02.93,3.24,4.63,3.81,7.26-.36,8.64.21,17.38-.54,26.05-.02.28-.55,1.11-.95,1.07-1.35.03-2.5.74-3.88.57-.87.36-3.5-.46-3.49.76.93,5.56.45,11.32,1.25,16.84-.34,1.38.49,2.82-.16,4.09-4.92,2.19-10.76.81-16.01,1.73-4.14.24-8.29.26-12.43.03-2.65.33-5.34.14-7.92-.56-4.1.15-4.13-3.68-4.02-6.79-.46-5.07.48-10.47-.56-15.43m36.68-13.53h.02c-.12-1.83-.2-4.17-1.06-5.69-2.2-.03-4.4.07-6.59.31-7.44.29-15.02,1.06-22.5.72-7.28.42-3.81-.44-4.34,7.59,1,7.6.52,15.3,1.23,22.92.59,1.62.42,3.61.99,5.09,9.49,2.38,19.33,1.18,28.99,1.29.89-.13,2.17.19,2.84-.44.87-3.26.58-6.64.62-9.97.43-7.27.36-14.56-.2-21.82m-1.58-9.17s0-.05,0-.07c.88.03,1.92-.2,2.61.49.53.31,1.19.4,1.09,1.21.06.48.41.96.39,1.43-.02.52-.18,1.04.18,1.51.19,4.24-.15,8.48.29,12.71.34,1.34,2.37.42,3.4.6.44-.1,1.25.18,1.27-.48.52-1.5.29-3.23.44-4.83.88-5.09.04-10.08-.13-15.2,0-1.71.07-3.62-1.53-4.64-.96-1.09-2.37-.67-3.56-.98-3.58.2-7.16-.57-10.75-.6-7.07.63-14.16,1.65-21.27,1.2-3.01.16-6.03.04-9.02-.35-.35-.01-.73-.1-1,.26-2.98.62-5.89,1.53-6.17,5.14-.6,6.46-.34,12.96.78,19.35.98,1.79,3.55.95,5.21.89.96-.04,3.27.74,2.69-1.05-.64-3.7-.85-7.47-.63-11.22.38-1.23-.77-3.53.93-3.95,11.57-.8,23.25-1.93,34.78-1.41"/>
      <path id="Path_9925" data-name="Path 9925" class="cls-1" d="m49.97,22.3c.57,7.26.63,14.55.21,21.81-.03,3.33.26,6.71-.61,9.97-.66.64-1.96.3-2.84.45-9.66-.11-19.5,1.09-28.99-1.29-.57-1.49-.4-3.47-.99-5.09-.54-8.4-.64-16.82-1.23-25.22-.07-5.99-1.97-4.8,4.34-5.29,7.48.34,15.06-.44,22.5-.72,2.19-.23,4.39-.34,6.59-.31.86,1.52.93,3.88,1.06,5.69h-.02m-32.15,11.35c.85.78,1.77.43,2.77.69,1.87-.07,3.79.06,5.66.11,6.4.28,13.01-.41,19.47.3,1.79.41,2.85-2.09.92-2.45-1.58.1-3.17,0-4.74.08-4.99.03-9.99.04-14.98.17-2.01.06-9.01-1.72-9.1,1.1m28.12,18.48s.02.07.03.1c.64.12,1.52-.18,1.62-.88-.41-2.48-9.04-.32-11.42-.93-2.02.33-19.44-2-17.18,1.62.89,1.49,4.62-.12,6.3.27,6.83-.42,13.9.97,20.66-.18m-1.49-11.43c.71-.18,4.38-.48,2.91-2.05-1.18-.61-2.53.17-3.79.11-2.4-.17-4.79-.16-7.18-.32-4.23-.43-8.49-.55-12.75-.36-1.75-.18-3.58-.44-5.09.69-3.26,2.65,9.42,1.11,10.4,1.4,5.3.08,10.04.38,15.5.54m2.18,6.18c2.16-.49-.11-2.67-1.44-2.22-3.16.17-6.34.42-9.52.32-3.85-.22-7.67-.04-11.51,0-1.7.33-4.8-.94-5.54,1.08.13,1.15,1.66.98,2.53,1,.2.01.48.22.58.14.44-.26.82.2,1.28.1,7.83-.83,15.87.02,23.63-.42m-8.84-18.23v.03c1.39-.23,11.31.31,10.11-1.75-1.97-1.3-5.08-.3-7.38-.17-4.21.11-8.46.15-12.69.16-1.32-.05-10.67-1.26-9.29,1.21,1.15,1.72,3.03.46,4.63.72,4.85-.14,9.77.33,14.62-.2m-19.46-5.73c9.92,3.16,20.28-1.15,30.42-.38.48-.43.52-1.18.09-1.66-.24-.27-.59-.41-.94-.39-5.68.18-11.35.75-16.96,1.71-2.66.83-12.14-1.16-12.6.71"/>
      <path id="Path_9926" data-name="Path 9926" class="cls-1" d="m48.38,13.13c-11.53-.51-23.21.62-34.78,1.42-1.7.44-.67,3.18-.84,4.48-.33,3.57-.15,7.17.54,10.68.05.37.25.81-.2,1.07-1.96-.16-6.94,1.01-7.69-.91-1.12-6.39-1.38-12.9-.78-19.35.3-3.61,3.15-4.51,6.17-5.14.27-.36.65-.27,1-.26,2.99.39,6.01.51,9.02.35,7.71.71,15.39-1.21,23.04-1.05,3.49-.01,6.98.72,10.42.54,4.79.51,3.26,5.84,3.93,9.19.43,5.46.23,10.96-.58,16.38-.42.97-2.58.31-3.54.56-.53.04-1.1-.04-1.13-.68-.65-5.09.38-10.38-.78-15.32-.17-.61-.02-1.12-.75-1.33-.88-.61-1.96-.85-3.02-.69,0,.02,0,.05,0,.07m-2.13-4.24c.41,1.55,2.61,2.57,3.94,1.57.75-.48,1.94-1.82.91-2.54-1.65-.78-3.97-1.09-4.85.97"/>
      <path id="Path_9927" data-name="Path 9927" class="cls-2" d="m17.82,33.64c.09-2.83,7.1-1.04,9.1-1.1,4.99-.12,9.99-.14,14.98-.17,1.42.29,6.13-1.09,5.69,1.27-.1,1-1.05,1.14-1.87,1.11-6.45-.72-13.06-.03-19.47-.31-1.87-.05-3.79-.18-5.66-.11-.99-.26-1.93.09-2.77-.69"/>
      <path id="Path_9928" data-name="Path 9928" class="cls-2" d="m45.94,52.11c-6.76,1.15-13.83-.23-20.66.18-1.72-.39-5.37,1.22-6.3-.26-2.3-3.61,15.18-1.3,17.18-1.62,2.47.62,10.91-1.57,11.42.92-.22.68-.93,1.07-1.62.89l-.03-.1"/>
      <path id="Path_9929" data-name="Path 9929" class="cls-2" d="m44.45,40.69c-5.45-.16-10.2-.46-15.5-.54-1.02-.29-13.64,1.26-10.4-1.39,1.51-1.13,3.34-.86,5.09-.69,4.25-.19,8.51-.07,12.75.36,2.39.16,4.78.15,7.18.32,1.26.06,2.6-.72,3.79-.11,1.48,1.56-2.22,1.86-2.91,2.05"/>
      <path id="Path_9930" data-name="Path 9930" class="cls-2" d="m46.63,46.87c-7.76.43-15.8-.42-23.63.42-.46.1-.84-.36-1.28-.1-.1.07-.38-.13-.58-.14-.87-.02-2.41.15-2.53-1,.74-2.02,3.85-.75,5.54-1.08,3.84-.04,7.67-.22,11.51,0,3.19.1,6.36-.15,9.52-.32,1.32-.45,3.62,1.73,1.44,2.22"/>
      <path id="Path_9931" data-name="Path 9931" class="cls-2" d="m37.79,28.63c-4.86.53-9.77.06-14.62.2-1.59-.26-3.48,1-4.63-.72-1.45-2.45,8.04-1.26,9.29-1.21,4.24,0,8.48-.05,12.69-.16,2.31-.13,5.41-1.13,7.38.17,1.22,2.06-8.77,1.53-10.11,1.75v-.03"/>
      <path id="Path_9932" data-name="Path 9932" class="cls-2" d="m18.34,22.91c.4-1.86,10.05.11,12.6-.71,5.61-.96,11.27-1.53,16.96-1.71.65-.04,1.2.45,1.24,1.1.02.36-.12.71-.39.95-10.14-.78-20.49,3.54-30.42.38"/>
      <path id="Path_9933" data-name="Path 9933" class="cls-2" d="m46.26,8.89c.87-2.06,3.2-1.74,4.85-.97,1.03.72-.16,2.06-.91,2.54-1.33.99-3.53-.02-3.94-1.58"/>
    </g>
  </g>
</svg>