<?xml version="1.0" encoding="UTF-8"?>
<svg id="Layer_1" data-name="Layer 1" xmlns="http://www.w3.org/2000/svg" viewBox="0 0 136.06 136.06">
  <defs>
    <style>
      .cls-1 {
        fill: #fff;
      }

      .cls-2 {
        fill: #f2d06c;
      }

      .cls-3 {
        fill: #0c3454;
      }

      .cls-4 {
        fill: #a7483f;
        opacity: .8;
      }
    </style>
  </defs>
  <path class="cls-3" d="m72.77,101.55v-.05s-.08-.05-.1-.08c-.49-.95-.95-1.93-1.49-2.83-.1-.15-.54-.13-.82-.15.03.31-.1.77.05.95.72.72,1.49,1.36,2.26,2.03.03.05.05.08.08.13h.03Zm.03.03c1.1,3.39,3.65,5.32,6.76,6.81,1.49-4.32,1.44-8.32-.57-12.31-1.18.51-.49,1.46-.46,2.23,0,.46.26.95.31,1.41.05.82-.18,1.7.08,2.41.46,1.31-.05,2.26-.72,3.57-1.46-1.21-2.83-2.34-4.19-3.42-.36-.28-.82-.46-1.21-.72Zm33.68-29.18c.87.72.72,2.47-.33,2.9-3.47,1.39-6.53,3.7-10.61,4.16.82.9,1.44,1.7,2.18,2.36.95.85,1.46,1.88,1.85,3.03.28.87.62,1.72,1.77,1.52q-.03,1.9-1.52,2.44c-2.44.9-4.91,1.62-7.58.82-.57-.15-1.21-.05-2.06-.08.69,2.13,1.31,4.03,1.95,5.91.26.77.57,1.52.85,2.26.57,1.41-.03,2.36-1.57,2.39-2.77.05-5.55-.1-8.04-1.64-.8-.49-1.67-.8-2.57-1.23.95,5.32.57,10.69-.98,12.92-2.72-1.72-5.5-3.34-7.14-6.29-1.44-2.54-1.75-2.9-3.72-3.83-.87,1.64-1.72,3.34-2.62,4.98-.33.59-.77,1.18-1.28,1.62-1.77,1.59-3.6,3.11-5.52,4.78-2.41-3.55-3.34-7.53-2.93-11.87-1.7.87-3.26,1.77-4.88,2.57-.9.44-1.9.67-2.85,1.03l-4.39,1.7c-.28.13-.57.21-1.05.39-.15-3.9.03-7.55,1.41-11.12-3.67.41-7.04,1.8-10.94,2.13,2.03-3.39,2.34-7.27,5.47-10.1-4.11.28-7.42-1.52-11.15-2.72.85-1.64,2.08-2.98,3.08-4.47,1.03-1.57,3.01-1.75,4.42-2.98-1.21-.98-2.62-1.26-3.98-1.64-2.06-.59-3.78-1.75-5.37-3.13-.28-.26-.46-.69-.69-1.05,2.49-3.11,6.27-3.44,9.68-4.88-.41-.46-.64-.92-1.03-1.16-1.1-.69-1.57-1.8-2.16-2.83-.87-1.54-1.64-3.13-2.49-4.78.49-.77,1.18-1.18,2.29-1.21,2.18-.03,4.37-.23,6.68-.39.03-.39.1-.92.05-1.46-.26-2.18-.59-4.37-.82-6.58-.23-2.29.15-2.62,2.41-2.49.69.03,1.39-.1,2.08-.15,2.08-.15,3.88.85,5.75,1.49.36.1.72.15,1.21.28.26-3.44-.51-6.96,1.54-10.2.98.36,2,.74,3.03,1.13,1.18.44,2.41.72,3.52,1.28,1.08.57,2.08,1.36,3.08,2.08.44.31.85.64,1.41,1.08.08-.51.18-.74.15-.98-.28-2.47.85-4.57,1.67-6.76.28-.74.85-.87,1.62-.46,2.16,1.18,3.72,2.88,4.78,5.42,2.11-3.31,3.85-6.78,8.02-7.81,1.44.85,1.31.82,1.08,2.34-.39,2.36-.39,4.73.87,6.91.13.23.49.33.54.36,1.88-1.57,3.62-3.01,5.37-4.5.28-.23.41-.62.69-.87.46-.44,1-.8,1.62-1.31.62,1.77.67,3.44,1.05,4.98.51,2.06-.03,3.98,0,5.96.03.95.31,1.41,1.26,1.44.82,0,1.7.26,2.39,0,1.75-.64,3.39-.33,4.91.39.77.39,1.23.23,1.88-.18.33.62.64,1.16,1.05,1.9-1.03,1.16-2.03,2.36-3.13,3.47-1.1,1.1-2.34,2.11-3.6,3.24,1.41,1.05,2.21.15,2.88-.18,1.21.33,2.21.77,3.24.87,1.34.1,2.36.57,3.31,1.49.39.36.98.51,1.7.51.18.51.36,1.03.51,1.44-.74.98-1.36,1.85-2.03,2.7-1.31,1.72-3.19,2.65-5.04,3.6-.82.44-1.59.95-2.41,1.44,2.62,1.34,5.09,2.54,7.5,3.83.95.49,1.85,1.1,2.67,1.8Zm-7.04,4.93c1.9-1.05,3.8-2.08,5.73-3.13-.59-1.62-1.21-2.16-2.67-2.72-.92-.33-1.77-.9-2.67-1.34-1-.51-2-1.05-3.06-1.46-.41-.15-.95,0-1.41,0,1.95,1.28,4.6,1.31,5.5,3.85.57.03,1.05.03,1.54.05.05.59.13,1.13.21,1.85-1.28.69-2.49,1.54-3.83,2.03-1.28.49-2.7.59-4.32.92,1.88,1.13,3.44.8,4.98-.05Zm4.39-18.09c-.31-.23-.59-.44-.72-.54-2.11,2.06-4.08,4.03-6.09,5.99,3.13-.8,5.21-2.75,6.81-5.45Zm-5.7-1.62c.98.08,1.95,1.16,3.08-.08-2.08-1.23-4.08-1.13-6.09-.28.98.23,2,.28,3.01.36Zm-.05,4.37c.69-.9,1.93-1.34,2.23-2.75-1.95.39-3.72-.59-5.55-.36.1,1.67,1.88,1.05,2.41,2.23-1.05.31-1.98.59-3.13.92,1.23,1.16,1.88,1.28,2.8.72.41-.26.95-.41,1.23-.77Zm-.28,13.56c.87-.18,1.7-.67,2.52-1-1.26-3.11-2.77-4.08-5.99-3.7.72,1.05,1.64,1.95,3.01,1.93,1.16-.05,1.05.44.9,1.08-1.16.1-2.21.15-3.24.26-.26.03-.49.15-.9.31.69.69,1.03,1.03,1.36,1.36.87-.28,1.64-.1,2.34-.23Zm1-26.69c-.51-.28-.77-.49-1.05-.59-.28-.08-.59-.08-.9-.13-.85,2.54-2.72,4.19-4.5,5.96,2.7-1.05,4.26-3.39,6.45-5.24Zm-2.06,35.99c.46.64.98,1.16.77,1.93-.23.92-1.03,1.23-1.88,1.36-1.16.18-2.36.26-3.55.39,2.59.67,5.06.51,7.37-.9-1.23-3.19-2.9-5.96-6.32-7.4-.15.39-.26.51-.23.62.05.18.15.41.28.46,1.62.77,2.52,2.16,3.55,3.55Zm-6.17.77c.98,1.34,3.11,1.64,5.34,1.05-.49-2.11-1.85-3.37-3.62-4.19-1.46,1.9,1.39,1.77,1.16,3.24-.9-.03-1.72-.05-2.88-.1Zm4.24-37.97c-.92-.03-1.82-.05-2.72-.08.85.87,1.77.87,2.72.08Zm-.18,2.65l-.39-.62c-.9-.03-1.8-.05-2.65-.08.41.36.9.74,1.36,1.13-.28.39-.46.64-.64.9.1.05.18.1.26.15.67-.49,1.36-.98,2.06-1.49Zm-2.03,27.1c.92-3.55.95-7.17.9-10.76-.05-3.42-.54-6.78-2.08-9.92-.41-.9-.57-1.93-.8-2.9-.51-2.16-1.59-3.9-3.42-5.27-2.26-1.67-4.8-2.75-7.35-3.88-2.83-1.26-5.93-.95-8.91-1.31-2.18-.28-4.42.05-6.63.21-.72.05-1.44.44-2.16.46-5.19.28-9.84,2.08-14.18,4.86-1.05.67-2.21,1.23-3.11,2.08-3.52,3.29-5.55,7.5-6.83,12.1-.18.59-.23,1.23-.46,1.82-.51,1.18-.36,2.34-.05,3.52.1.41.36.8.46,1.21.08.33.05.69.08,1.05.05-3.55.67-6.96,2.06-10.2.8-1.85,1.54-3.78,2.65-5.42,1.05-1.52,2.54-2.72,3.85-4.06.41-.44.82-.95,1.34-1.18,1.88-.87,3.8-1.62,5.68-2.44.57-.26,1.1-.64,1.7-.8,1.62-.44,3.31-.69,4.93-1.21,2.85-.87,5.75-1.34,8.73-1.1,1.7.15,3.39.39,5.09.41,2.59.05,5.01.77,7.4,1.54,1.72.54,3.34,1.39,4.57,2.88,1.31,1.54,2.52,3.13,3.26,5.04.51,1.28.98,2.62,1.64,3.8,1.46,2.67,1.49,5.55,1.49,8.43-.03.98-.64,1.95.26,2.88.08.1,0,.62-.13.67-.87.41-.72,1.34-.57,1.8.39,1.16-.1,2.03-.51,3.01-.51,1.21-1,2.44-1.49,3.67-1.85,4.62-4.03,8.99-8.22,12-1.18.85-2.36,1.75-3.65,2.41-2.75,1.41-5.7,2.29-8.79,2.85-3.49.64-6.96.57-10.3-.33-4.37-1.18-8.79-2.36-12.33-5.5-.05.13-.13.23-.21.36,1.03.95,2.03,1.95,3.13,2.85,1.98,1.59,4.32,2.67,6.65,3.24,1.88.44,3.75.92,5.57,1.52.41.13.98.36,1.23.18,1.31-.87,2.83-.51,4.14-.59,2.83-.15,5.47-.92,8.14-1.54,1.82-.39,3.55-1.28,5.29-1.95,2.18-.87,3.78-2.34,5.19-3.88,3.31-3.57,5.5-7.86,6.73-12.59Zm-1.28-8.58c.26-3.06.21-6.11-.82-9.02-1.21-3.44-2.75-6.76-5.29-9.56-1.08-1.16-2.31-1.98-3.7-2.52-.87-.33-1.75-.62-2.62-.87-2.65-.77-5.34-1.18-8.14-1.28-2.16.13-4.32.1-6.42.39-2.39.31-4.73.9-7.09,1.31-2.67.44-5.09,1.54-7.4,2.83-3.47,1.9-6.01,4.8-7.73,8.37-.74,1.57-1.41,3.21-1.98,4.88-1.31,3.98-1.62,8.04-.23,12.07,1.36,3.9,3.42,7.45,5.65,10.87,1.75,2.67,4.24,4.68,7.3,5.78,1.72.62,3.44,1.23,5.19,1.72,3.08.87,6.17,1.44,9.45,1.08,1.41-.15,2.8-.39,4.14-.72,3.24-.72,6.27-1.95,8.97-4.08,1.57-1.23,3.26-2.54,4.32-4.21,3.34-5.19,5.86-10.76,6.42-17.03Zm-10.1,25.87c1.39,3.19,6.19,4.8,10.56,4.24-.62-3.37-1.26-6.65-3.93-9.33-.33.41-.59.72-.87,1.08.69.64,1.34,1.21,2,1.82-.31,1.7,1.52,3.21.49,5.19-1.44.33-2.8-.26-4.08-.8-1.36-.57-2.59-1.36-4.16-2.21Zm7.04,2.11c.54-2.59-1.13-3.78-2.39-5.19-.39.64-.46,1.03-.18,1.26.33.26.77.39,1.08.69.69.64.57,1.13-.31,1.46-.59-.49-1.1-.92-1.64-1.36-.82-.62-1.31-.31-1.77.72,1.75.82,3.42,1.59,5.21,2.41Zm-1.21-50.35c1.54-3.16,1-6.37.39-9.92-1.31,1.08-2.31,1.9-3.31,2.72-1.88,1.26-2.36,2.26-2.06,4.32.77-1.46,1.49-2.8,2.21-4.16.82-.39,1.67-.77,2.57-1.21.21,1.59.49,2.93.54,4.26.03,1.34-.21,2.67-.33,3.98Zm-1.13-2.95c-.08-.98-.13-1.8-.23-2.98-1.62,1.1-1.82,2.41-2.06,4.01.44-.64.72-1.08,1.03-1.54.44.18.77.31,1.26.51Zm-8.27,60.32c.67-1.18.1-2.26-.13-3.34l-.39,1.16c-1.9.05-2.77-1.36-3.8-2.47-.1-.46.1-1.13-.98-1.1.31.49.57.87.8,1.23,1.08,1.9,2.59,3.34,4.5,4.52Zm.8-63.94c-.23-1.16-.54-2.23-.67-3.37-.1-1.1-.05-2.21-.08-3.34-3.47.39-6.42,4.44-5.88,7.96.49-1.21.82-2.47,1.44-3.57.67-1.21,1.57-2.26,2.31-3.29,1.39.13,1.44,1.08,1.44,2,0,1.31.49,2.62,1.44,3.6Zm-.87,59.47c-.21-.9-.36-1.59-.57-2.57-1.05,1.08-1,1.28.57,2.57Zm-1.39-57.39c.18.8.67.77,1.39.36-.67-1.82-1.34-3.62-2.06-5.6-1.85,1.75-2.31,3.55-1.26,5.7.15-.87.33-1.75.57-2.95.46.36.9.54,1,.82.21.51.21,1.1.36,1.67Zm-16.57,67.67c4.21-2.52,7.4-5.78,8.07-10.87-.8,1-1.34,2.21-2.11,3.21-.82,1.03-1.85,1.9-2.83,2.77-1,.92-1.8,2.11-3.34,2.36-.39-3.01-.74-5.91-1.16-9.22-.26.41-.57.69-.64,1.03-.95,3.52.26,6.73,1.39,9.94.1.33.46.59.62.77Zm9.61-68.77c-.23-2.06-.92-3.21-2.41-4.34-.59-.51-1.16-1.03-1.77-1.57-1.36,2-1.77,3.9-1.1,5.39.33-.87.69-1.59.87-2.36.21-.92.82-1.16,1.62-1.23.44,1.64,1.64,2.72,2.8,4.11Zm-3.03-.44l.39-.31c-.26-.23-.51-.49-.77-.72-.08.05-.15.13-.23.21.21.26.41.54.62.82Zm-5.88,64.35c3.26-1.28,5.45-3.85,5.14-6.04-.87.13-1.39.21-1.75,1.39-.33,1.23-.98,2.77-2.65,3.34-.69-1.49-.98-2.98-.51-4.62-.92-.41-1.13-.05-1.18.54-.15,1.9.15,3.67.95,5.39Zm1.44-3.44c.36-.67.74-1.34,1.16-2.08q-1.64-.15-1.16,2.08Zm-1.82-58.16c.21-.1.39-.28.72-.51-.44-.54-.74-1.1-1.21-1.46-2.39-1.82-5.29-2.41-8.12-3.37-.36,1.05-.74,1.98-.95,2.93-.33,1.54-.08,2.36.92,3.67-.03-.67-.13-1.36-.05-2.06.1-.92.23-1.88.57-2.75.39-1.05,1.08-1.13,2.03-.46,1.28.92,2.47,2.03,3.88,2.62.9.36.9,1.03,1.26,1.67.36-.1.67-.15.95-.28Zm-3.42.98c.15-.92-.28-1.34-.77-1.75-.54-.44-1.05-.9-1.64-1.28-.33-.21-.98-.49-1.16-.33-.39.33-.77.9-.77,1.36-.03,1.03.36,1.98,1.23,2.65.51-.77-.72-1.72.28-2.47.9.59,1.8,1.18,2.83,1.82Zm-2.13,55.62c.74-.54,1.41-1.21,2.13-1.82-1.23-1.18-2.34-1.31-3.55-.39-.64.51-1.34.98-2.03,1.39-1.57.98-3.21,1.64-5.29,2.39.59-2.77.13-5.37,1.98-7.45.18-.18,0-.67-.03-1.44-3.11,3.47-3.7,7.06-2.98,11.2,1.75-.59,3.26-1.23,4.86-1.59,1.82-.41,3.42-1.21,4.91-2.29Zm-3.03-3.83c-.85-.62-1.13-.28-1.28.36-.03.08.1.21.23.39.31-.23.62-.44,1.05-.74Zm-3.42,2.9c.62-1.77,1.05-3.06,1.54-4.47-2.08.69-2.62,1.82-2.52,5.04,1.59.23,2.65-.21,3.85-1.72-.95.39-1.7.69-2.88,1.16Zm-3.24-51.33c1.18.31,2.36.39,3.72.1-2.77-2.06-7.45-3.01-9.4-1.23.03.59,0,1.23.05,1.85.13,1.44.28,2.88.44,4.32.08.67.44.95,1.13.77-.15-1.64-.31-3.19-.41-4.75s.85-2.26,2.34-1.75c.69.23,1.41.51,2.13.69Zm1.41,44.39c-.08-.08-.18-.15-.28-.23-2.57.36-5.11.72-7.86,1.1.26-1.54.95-2.62,1.64-3.65s1.54-1.98,2.54-3.21c-1.93.51-3.01,1.54-3.65,2.93-.95,1.95-1.7,4.03-2.7,6.45,3.21-.85,6.06-1.57,8.89-2.39.51-.13.95-.67,1.41-1Zm-.59-3.6c-.21-.23-.41-.44-.62-.64-.08.08-.13.13-.21.18.23.21.44.44.64.64.05-.08.13-.13.18-.18Zm-1.03,2.49c-.03-.1-.03-.18-.03-.28-1.36-.15-2.75-.31-4.16-.46-.13.33-.23.69-.49,1.41,1.77-.26,3.21-.46,4.68-.67Zm-1.98-7.17c-.44-.95-.87-1.9-1.31-2.85-.74-1.67-1.52-3.34-2.23-5.01-.23-.59-.33-1.23-.51-1.85-.13.05-.28.1-.41.15.13,3.75,2.34,6.65,4.11,9.71.13-.05.23-.1.36-.15Zm-1.98.59c-2.93.36-5.11-1.44-7.66-2.26.95-2.11,1.05-2.36,3.65-3.85.9-.51.95-.98.69-1.77q-4.96,2.52-7.27,6.65c1.67.54,3.29,1.21,4.98,1.57,1.85.41,3.78,1.1,5.6-.33Zm-6.04-2.77c2.08,1.21,3.98,1.64,5.45,1.05-.82-.15-1.62-.26-2.44-.46-1.36-.33-1.49-.87-.54-1.88.39-.41,1.1-.62.92-1.52-1.28.85-2.95,1.05-3.39,2.8Zm3.96-24.1c.21,0,.41-.33,1-.8-3.03-.46-5.57-.87-8.14.31.72,1.59,1.31,2.98,1.98,4.32.64,1.26,1.72,1.98,3.16,2.29-.98-1.44-1.95-2.75-2.77-4.16-.28-.46-.49-1.44-.23-1.7.39-.39,1.21-.46,1.85-.46,1.05-.03,2.11.15,3.16.21Zm-2.31,16.8c.28-.21.46-.54.64-.8-2.44-.98-4.68-1.88-6.99-2.8.69-1.46,1.77-2.16,3.26-2.36.92-.15,1.85-.39,2.72-.69.64-.23.74-.74.31-1.46-1.41.49-2.75,1.16-4.14,1.39-1.98.33-3.39,1.31-4.65,2.93,2.26,2.44,5.21,3.11,8.12,3.85.23.05.57.08.72-.05Zm-.59-14.72c-.08-.28-.18-.57-.26-.85-.15.05-.28.1-.44.15.15.28.28.54.44.82.08-.05.18-.08.26-.13Zm-1.67,11.69c.03-.72.03-1.26.05-1.93-.72.21-1.39.41-2.36.72.95.49,1.62.85,2.31,1.21Z"/>
  <path class="cls-2" d="m105.17,74.2c-1.93,1.05-3.83,2.08-5.73,3.13-1.54.85-3.11,1.18-4.98.05,1.62-.33,3.03-.44,4.32-.92,1.34-.49,2.54-1.34,3.83-2.03-.08-.72-.15-1.26-.21-1.85-.49-.03-.98-.03-1.54-.05-.9-2.54-3.55-2.57-5.5-3.85.46,0,1-.15,1.41,0,1.05.41,2.06.95,3.06,1.46.9.44,1.75,1,2.67,1.34,1.46.57,2.08,1.1,2.67,2.72Z"/>
  <path class="cls-2" d="m103.11,58.7c.13.1.41.31.72.54-1.59,2.7-3.67,4.65-6.81,5.45,2-1.95,3.98-3.93,6.09-5.99Z"/>
  <path class="cls-2" d="m101.21,57.55c-1.13,1.23-2.11.15-3.08.08-1-.08-2.03-.13-3.01-.36,2-.85,4.01-.95,6.09.28Z"/>
  <path class="cls-2" d="m100.31,59.24c-.31,1.41-1.54,1.85-2.23,2.75-.28.36-.82.51-1.23.77-.92.57-1.57.44-2.8-.72,1.16-.33,2.08-.62,3.13-.92-.54-1.18-2.31-.57-2.41-2.23,1.82-.23,3.6.74,5.55.36Z"/>
  <path class="cls-2" d="m100.31,74.55c-.82.33-1.64.82-2.52,1-.69.13-1.46-.05-2.34.23-.33-.33-.67-.67-1.36-1.36.41-.15.64-.28.9-.31,1.03-.1,2.08-.15,3.24-.26.15-.64.26-1.13-.9-1.08-1.36.03-2.29-.87-3.01-1.93,3.21-.39,4.73.59,5.99,3.7Z"/>
  <path class="cls-2" d="m97.74,48.27c.28.1.54.31,1.05.59-2.18,1.85-3.75,4.19-6.45,5.24,1.77-1.77,3.65-3.42,4.5-5.96.31.05.62.05.9.13Z"/>
  <path class="cls-2" d="m97.51,86.78c.21-.77-.31-1.28-.77-1.93-1.03-1.39-1.93-2.77-3.55-3.55-.13-.05-.23-.28-.28-.46-.03-.1.08-.23.23-.62,3.42,1.44,5.09,4.21,6.32,7.4-2.31,1.41-4.78,1.57-7.37.9,1.18-.13,2.39-.21,3.55-.39.85-.13,1.64-.44,1.88-1.36Z"/>
  <path class="cls-2" d="m95.92,86.68c-2.23.59-4.37.28-5.34-1.05,1.16.05,1.98.08,2.88.1.23-1.46-2.62-1.34-1.16-3.24,1.77.82,3.13,2.08,3.62,4.19Z"/>
  <path class="cls-2" d="m92.09,47.58c.9.03,1.8.05,2.72.08-.95.8-1.88.8-2.72-.08Z"/>
  <path class="cls-2" d="m94.25,49.69l.39.62c-.69.51-1.39,1-2.06,1.49-.08-.05-.15-.1-.26-.15.18-.26.36-.51.64-.9-.46-.39-.95-.77-1.36-1.13.85.03,1.75.05,2.65.08Z"/>
  <path class="cls-2" d="m93.5,66.64c.05,3.6.03,7.22-.9,10.76-1.23,4.73-3.42,9.02-6.73,12.59-1.41,1.54-3.01,3.01-5.19,3.88-1.75.67-3.47,1.57-5.29,1.95-2.67.62-5.32,1.39-8.14,1.54-1.31.08-2.83-.28-4.14.59-.26.18-.82-.05-1.23-.18-1.82-.59-3.7-1.08-5.57-1.52-2.34-.57-4.68-1.64-6.65-3.24-1.1-.9-2.11-1.9-3.13-2.85.08-.13.15-.23.21-.36,3.55,3.13,7.96,4.32,12.33,5.5,3.34.9,6.81.98,10.3.33,3.08-.57,6.04-1.44,8.79-2.85,1.28-.67,2.47-1.57,3.65-2.41,4.19-3.01,6.37-7.37,8.22-12,.49-1.23.98-2.47,1.49-3.67.41-.98.9-1.85.51-3.01-.15-.46-.31-1.39.57-1.8.13-.05.21-.57.13-.67-.9-.92-.28-1.9-.26-2.88,0-2.88-.03-5.75-1.49-8.43-.67-1.18-1.13-2.52-1.64-3.8-.74-1.9-1.95-3.49-3.26-5.04-1.23-1.49-2.85-2.34-4.57-2.88-2.39-.77-4.8-1.49-7.4-1.54-1.7-.03-3.39-.26-5.09-.41-2.98-.23-5.88.23-8.73,1.1-1.62.51-3.31.77-4.93,1.21-.59.15-1.13.54-1.7.8-1.88.82-3.8,1.57-5.68,2.44-.51.23-.92.74-1.34,1.18-1.31,1.34-2.8,2.54-3.85,4.06-1.1,1.64-1.85,3.57-2.65,5.42-1.39,3.24-2,6.65-2.06,10.2-.03-.36,0-.72-.08-1.05-.1-.41-.36-.8-.46-1.21-.31-1.18-.46-2.34.05-3.52.23-.59.28-1.23.46-1.82,1.28-4.6,3.31-8.81,6.83-12.1.9-.85,2.06-1.41,3.11-2.08,4.34-2.77,8.99-4.57,14.18-4.86.72-.03,1.44-.41,2.16-.46,2.21-.15,4.44-.49,6.63-.21,2.98.36,6.09.05,8.91,1.31,2.54,1.13,5.09,2.21,7.35,3.88,1.82,1.36,2.9,3.11,3.42,5.27.23.98.39,2,.8,2.9,1.54,3.13,2.03,6.5,2.08,9.92Z"/>
  <path class="cls-2" d="m90.5,59.81c1.03,2.9,1.08,5.96.82,9.02-.57,6.27-3.08,11.84-6.42,17.03-1.05,1.67-2.75,2.98-4.32,4.21-2.7,2.13-5.73,3.37-8.97,4.08l-.49-2c-.28-1.52-1.31-1.75-2.36-1.93-.72-.13-1.52-.08-2.21-.33-.28-.1-.54-.15-.77-.15l-.64-1.75c.59-.21,1.18-.46,1.85-.8,1.46,1.05,3.08.57,4.7.33,1.46-.18,2.39-1.05,3.13-2.21.41-.64.77-1.36,1.1-2.06.31-.64,0-1.26-.72-1.46-.82-.23-1.64-.59-2.49-.72-2.31-.36-4.68-1.08-6.76.62-.23-.13-.39-.23-.54-.33-.82-.54-1.28-.82-1.7-.82l1.26-1.8c.82.46,1.93.28,2.9-.18.95-.46,1.9-.95,2.85-1.41,1.26-.62,1.85-1.49,1.93-2.95.1-1.54-1.08-1.9-1.82-2.62-1.05-1.03-1.82-2.06-1.34-3.65.21-.57.28-1.31.08-1.88-.67-1.88-.49-3.75-.13-5.57.26-1.26-.1-2.54.67-3.75,1.44-2.23,3.55-3.31,6.09-3.72,1.08-.18,2.18-.36,3.55-.59-.41-.44-.64-.9-.87-.9-.13,0-.26-.03-.39-.03l.39-4.62c.87.26,1.75.54,2.62.87,1.39.54,2.62,1.36,3.7,2.52,2.54,2.8,4.08,6.11,5.29,9.56Zm-11.89,25c.9-1.05.95-2.34.69-3.65-.05-.26-.62-.41-.95-.62-.05.31-.21.62-.18.9.1,1.08.28,2.16.44,3.37Z"/>
  <path class="cls-2" d="m91.78,98.93c-4.37.57-9.17-1.05-10.56-4.24,1.57.85,2.8,1.64,4.16,2.21,1.28.54,2.65,1.13,4.08.8,1.03-1.98-.8-3.49-.49-5.19-.67-.62-1.31-1.18-2-1.82.28-.36.54-.67.87-1.08,2.67,2.67,3.31,5.96,3.93,9.33Z"/>
  <path class="cls-2" d="m85.87,91.61c1.26,1.41,2.93,2.59,2.39,5.19-1.8-.82-3.47-1.59-5.21-2.41.46-1.03.95-1.34,1.77-.72.54.44,1.05.87,1.64,1.36.87-.33,1-.82.31-1.46-.31-.31-.74-.44-1.08-.69-.28-.23-.21-.62.18-1.26Z"/>
  <path class="cls-2" d="m87.44,36.53c.62,3.55,1.16,6.76-.39,9.92.13-1.31.36-2.65.33-3.98-.05-1.34-.33-2.67-.54-4.26-.9.44-1.75.82-2.57,1.21l-.15-.15c1-.82,2-1.64,3.31-2.72Z"/>
  <path class="cls-2" d="m85.7,40.52c.1,1.18.15,2,.23,2.98-.49-.21-.82-.33-1.26-.51-.31.46-.59.9-1.03,1.54.23-1.59.44-2.9,2.06-4.01Z"/>
  <path class="cls-2" d="m84.13,39.26l.15.15c-.72,1.36-1.44,2.7-2.21,4.16-.31-2.06.18-3.06,2.06-4.32Z"/>
  <path class="cls-2" d="m78.99,96.08c2,3.98,2.06,7.99.57,12.31-3.11-1.49-5.65-3.42-6.76-6.81.39.26.85.44,1.21.72,1.36,1.08,2.72,2.21,4.19,3.42.67-1.31,1.18-2.26.72-3.57-.26-.72-.03-1.59-.08-2.41-.05-.46-.31-.95-.31-1.41-.03-.77-.72-1.72.46-2.23Z"/>
  <path class="cls-3" d="m79.3,81.16c.26,1.31.21,2.59-.69,3.65-.15-1.21-.33-2.29-.44-3.37-.03-.28.13-.59.18-.9.33.21.9.36.95.62Z"/>
  <path class="cls-3" d="m78.89,51.51c.23,0,.46.46.87.9-1.36.23-2.47.41-3.55.59-2.54.41-4.65,1.49-6.09,3.72-.77,1.21-.41,2.49-.67,3.75-.36,1.82-.54,3.7.13,5.57.21.57.13,1.31-.08,1.88-.49,1.59.28,2.62,1.34,3.65.74.72,1.93,1.08,1.82,2.62-.08,1.46-.67,2.34-1.93,2.95-.95.46-1.9.95-2.85,1.41-.98.46-2.08.64-2.9.18-.13-.05-.23-.15-.33-.23-1.08-.98-2.08-1-3.34-.59-.49-.44-.95-.85-1.41-1.26-.92-.87-1.08-1.75-.21-2.62.85-.87,1.52-2.16,3.31-1.7-.08-2.13-.15-4.08-.18-6.01-.03-.95.05-1.9.08-2.85.05-1.7.15-3.42.15-5.14-.03-1.88-.85-2.83-2.72-3.39-.9-.28-1.8-.64-2.72-.82-1.03-.21-2.11-.26-3.16-.28-.72,0-1.46.15-2.23.26-.05-1,.57-1.1,1.1-1.16,2.06-.31,4.14-.69,6.14.36.64.33,1.52.31,2.16.67,1.7.95,2.49,2.34,2.39,4.44-.23,3.67-.26,7.37-.15,11.07.05,2.29.41,4.57.69,6.86.1.87.69,1.21,1.52,1.46.92.26,1.41.05,1.8-.8.67-1.49.8-3.06.72-4.65-.03-.64-.13-1.26-.15-1.9-.03-3.67.03-7.32-.05-11-.05-2.9,1.49-4.88,3.55-6.58.26-.23.69-.21,1.05-.33.85-.39,1.77-.36,2.67-.9.72-.44,1.85-.26,2.85-.18.13,0,.26.03.39.03Zm-8.99,24.82c1.36-.41,1.98-1.26,1.82-2.31-.13-.9-.69-1.23-2.23-1.31.13,1.21.28,2.39.41,3.62Zm-6.7.03c-.03-1-.05-1.98-.08-3.19-1.7.03-2.34,1.03-2.93,2.18.92.74,1.52,2.13,3.01,1Z"/>
  <path class="cls-2" d="m78.89,46.86l-.39,4.62c-1-.08-2.13-.26-2.85.18-.9.54-1.82.51-2.67.9-.36.13-.8.1-1.05.33-2.06,1.7-3.6,3.67-3.55,6.58.08,3.67.03,7.32.05,11,.03.64.13,1.26.15,1.9.08,1.59-.05,3.16-.72,4.65-.39.85-.87,1.05-1.8.8-.82-.26-1.41-.59-1.52-1.46-.28-2.29-.64-4.57-.69-6.86-.1-3.7-.08-7.4.15-11.07.1-2.11-.69-3.49-2.39-4.44-.64-.36-1.52-.33-2.16-.67-2-1.05-4.08-.67-6.14-.36-.54.05-1.16.15-1.1,1.16.77-.1,1.52-.26,2.23-.26,1.05.03,2.13.08,3.16.28.92.18,1.82.54,2.72.82,1.88.57,2.7,1.52,2.72,3.39,0,1.72-.1,3.44-.15,5.14-.03.95-.1,1.9-.08,2.85.03,1.93.1,3.88.18,6.01-1.8-.46-2.47.82-3.31,1.7-.87.87-.72,1.75.21,2.62.46.41.92.82,1.41,1.26,1.26-.41,2.26-.39,3.34.59.1.08.21.18.33.23l-1.26,1.8c-.49,0-.87.39-1.62,1.18-.74.77-1.41,1.57-2.49,1.93-.74.23-1.39.69-2.26,1.16.87.64,1.44,1,1.93,1.44,2,1.85,3.7,2.41,5.86,1.75l.64,1.75c-.85,0-1.46.62-2.16,1.34.77.03,1.52.13,2.26.05,1.49-.13,2.88-.08,4.11.9.21.18.64.08,1.13.13l.49,2c-1.34.33-2.72.57-4.14.72-3.29.36-6.37-.21-9.45-1.08-1.75-.49-3.47-1.1-5.19-1.72-3.06-1.1-5.55-3.11-7.3-5.78-2.23-3.42-4.29-6.96-5.65-10.87-1.39-4.03-1.08-8.09.23-12.07.57-1.67,1.23-3.31,1.98-4.88,1.72-3.57,4.26-6.47,7.73-8.37,2.31-1.28,4.73-2.39,7.4-2.83,2.36-.41,4.7-1,7.09-1.31,2.11-.28,4.26-.26,6.42-.39,2.8.1,5.5.51,8.14,1.28Zm-23.04,35.66c-1.39-.03-1.7.9-1.9,1.8-.26,1.23.44,2.03,1.57,2.54-.1-.18-.21-.36-.28-.54-.51-1.03-.85-1.98.39-2.8.21-.13.15-.64.23-1Z"/>
  <path class="cls-2" d="m77.53,100.48c.23,1.08.8,2.16.13,3.34-1.9-1.18-3.42-2.62-4.5-4.52.05-.05.1-.1.18-.13,1.03,1.1,1.9,2.52,3.8,2.47l.39-1.16Z"/>
  <path class="cls-2" d="m77.78,36.51c.13,1.13.44,2.21.67,3.37-.95-.98-1.44-2.29-1.44-3.6,0-.92-.05-1.88-1.44-2-.74,1.03-1.64,2.08-2.31,3.29-.62,1.1-.95,2.36-1.44,3.57-.54-3.52,2.41-7.58,5.88-7.96.03,1.13-.03,2.23.08,3.34Z"/>
  <path class="cls-2" d="m77.01,96.78c.21.98.36,1.67.57,2.57-1.57-1.28-1.62-1.49-.57-2.57Z"/>
  <path class="cls-2" d="m77.58,42.31c-.72.41-1.21.44-1.39-.36-.15-.57-.15-1.16-.36-1.67-.1-.28-.54-.46-1-.82-.23,1.21-.41,2.08-.57,2.95-1.05-2.16-.59-3.96,1.26-5.7.72,1.98,1.39,3.78,2.06,5.6Z"/>
  <path class="cls-3" d="m75.21,81.8c.72.21,1.03.82.72,1.46-.33.69-.69,1.41-1.1,2.06-.74,1.16-1.67,2.03-3.13,2.21-1.62.23-3.24.72-4.7-.33-.67.33-1.26.59-1.85.8-2.16.67-3.85.1-5.86-1.75-.49-.44-1.05-.8-1.93-1.44.87-.46,1.52-.92,2.26-1.16,1.08-.36,1.75-1.16,2.49-1.93.74-.8,1.13-1.18,1.62-1.18.41,0,.87.28,1.7.82.15.1.31.21.54.33,2.08-1.7,4.44-.98,6.76-.62.85.13,1.67.49,2.49.72Zm-1.93,1.72c.05-.13.1-.26.15-.36-.44-.28-.82-.69-1.31-.82-1.95-.44-4.06-1.41-5.47,1.16-.15.23-.82.18-1.28.28.21.26.41.64.59.64.8-.1,1.7-.18,2.31-.62,1.03-.74,2.08-.77,3.21-.57.59.08,1.18.18,1.8.28Zm-2.21,3.16c1.16-.36,2.54-.51,2.67-2.18q-4.06-.28-6.45,1.13c.95,1.39,2.34,1.46,3.78,1.05Zm-5.73-2.9s0-.03-.03-.05h-.03v.05h.05Zm-.05-.08c.1-.95-.59-1.21-1.44-1.64-.41.64-.82,1.26-1.26,1.88.1.08.18.15.28.23.54-.33,1.1-.67,1.64-.98l.77.51Zm1.08,2.23c-.8-.39-1.59-.74-2.47-1.16-1.03.33-2.16.69-3.6,1.18,3.98,1.77,4.83,1.72,6.06-.03Z"/>
  <path class="cls-4" d="m73.44,83.16c-.05.1-.1.23-.15.36-.62-.1-1.21-.21-1.8-.28-1.13-.21-2.18-.18-3.21.57-.62.44-1.52.51-2.31.62-.18,0-.39-.39-.59-.64.46-.1,1.13-.05,1.28-.28,1.41-2.57,3.52-1.59,5.47-1.16.49.13.87.54,1.31.82Z"/>
  <path class="cls-2" d="m73.34,99.17c-.08.03-.13.08-.18.13-.23-.36-.49-.74-.8-1.23,1.08-.03.87.64.98,1.1Z"/>
  <path class="cls-1" d="m72.77,101.53v.03h-.03c-.03-.05-.05-.08-.08-.13.03.03.08.05.1.08v.03Z"/>
  <path class="cls-2" d="m71.18,98.6c.54.9,1,1.88,1.49,2.83-.77-.67-1.54-1.31-2.26-2.03-.15-.18-.03-.64-.05-.95.28.03.72,0,.82.15Z"/>
  <path class="cls-2" d="m71.72,74.02c.15,1.05-.46,1.9-1.82,2.31-.13-1.23-.28-2.41-.41-3.62,1.54.08,2.11.41,2.23,1.31Z"/>
  <path class="cls-4" d="m73.75,84.5c-.13,1.67-1.52,1.82-2.67,2.18-1.44.41-2.83.33-3.78-1.05q2.39-1.41,6.45-1.13Z"/>
  <path class="cls-3" d="m71.13,92.15c-.49-.05-.92.05-1.13-.13-1.23-.98-2.62-1.03-4.11-.9-.74.08-1.49-.03-2.26-.05.69-.72,1.31-1.34,2.16-1.34.23,0,.49.05.77.15.69.26,1.49.21,2.21.33,1.05.18,2.08.41,2.36,1.93Z"/>
  <path class="cls-2" d="m67.69,98.75c-.67,5.09-3.85,8.35-8.07,10.87-.15-.18-.51-.44-.62-.77-1.13-3.21-2.34-6.42-1.39-9.94.08-.33.39-.62.64-1.03.41,3.31.77,6.22,1.16,9.22,1.54-.26,2.34-1.44,3.34-2.36.98-.87,2-1.75,2.83-2.77.77-1,1.31-2.21,2.11-3.21Z"/>
  <path class="cls-2" d="m66.81,36.51c1.49,1.13,2.18,2.29,2.41,4.34-1.16-1.39-2.36-2.47-2.8-4.11l.39-.23Z"/>
  <path class="cls-2" d="m66.81,36.51l-.39.23c-.8.08-1.41.31-1.62,1.23-.18.77-.54,1.49-.87,2.36-.67-1.49-.26-3.39,1.1-5.39.62.54,1.18,1.05,1.77,1.57Z"/>
  <path class="cls-2" d="m66.58,40.11l-.39.31c-.21-.28-.41-.57-.62-.82.08-.08.15-.15.23-.21.26.23.51.49.77.72Z"/>
  <path class="cls-2" d="m65.45,98.73c.31,2.18-1.88,4.75-5.14,6.04-.8-1.72-1.1-3.49-.95-5.39.05-.59.26-.95,1.18-.54-.46,1.64-.18,3.13.51,4.62,1.67-.57,2.31-2.11,2.65-3.34.36-1.18.87-1.26,1.75-1.39Z"/>
  <path class="cls-1" d="m65.32,83.73s.03.03.03.05h-.05l.03-.05Z"/>
  <path class="cls-1" d="m65.32,83.73l-.03.05v-.05h.03Z"/>
  <path class="cls-4" d="m63.86,82.06c.85.44,1.54.69,1.44,1.64l-.77-.51c-.54.31-1.1.64-1.64.98-.1-.08-.18-.15-.28-.23.44-.62.85-1.23,1.26-1.88Z"/>
  <path class="cls-4" d="m63.91,84.78c.87.41,1.67.77,2.47,1.16-1.23,1.75-2.08,1.8-6.06.03,1.44-.49,2.57-.85,3.6-1.18Z"/>
  <path class="cls-2" d="m63.11,73.17c.03,1.21.05,2.18.08,3.19-1.49,1.13-2.08-.26-3.01-1,.59-1.16,1.23-2.16,2.93-2.18Z"/>
  <path class="cls-2" d="m62.91,99.24c-.41.74-.8,1.41-1.16,2.08q-.49-2.23,1.16-2.08Z"/>
  <path class="cls-2" d="m60.65,42.65c-.33.23-.51.41-.72.51-.28.13-.59.18-.95.28-.36-.64-.36-1.31-1.26-1.67-1.41-.59-2.59-1.7-3.88-2.62-.95-.67-1.64-.59-2.03.46-.33.87-.46,1.82-.57,2.75-.08.69.03,1.39.05,2.06-1-1.31-1.26-2.13-.92-3.67.21-.95.59-1.88.95-2.93,2.83.95,5.73,1.54,8.12,3.37.46.36.77.92,1.21,1.46Z"/>
  <path class="cls-2" d="m55.74,42.39c.49.41.92.82.77,1.75-1.03-.64-1.93-1.23-2.83-1.82-1,.74.23,1.7-.28,2.47-.87-.67-1.26-1.62-1.23-2.65,0-.46.39-1.03.77-1.36.18-.15.82.13,1.16.33.59.39,1.1.85,1.64,1.28Z"/>
  <path class="cls-3" d="m53.94,84.32c.21-.9.51-1.82,1.9-1.8-.08.36-.03.87-.23,1-1.23.82-.9,1.77-.39,2.8.08.18.18.36.28.54-1.13-.51-1.82-1.31-1.57-2.54Z"/>
  <path class="cls-2" d="m56.51,97.93c-.72.62-1.39,1.28-2.13,1.82-1.49,1.08-3.08,1.88-4.91,2.29-1.59.36-3.11,1-4.86,1.59-.72-4.14-.13-7.73,2.98-11.2.03.77.21,1.26.03,1.44-1.85,2.08-1.39,4.68-1.98,7.45,2.08-.74,3.72-1.41,5.29-2.39.69-.41,1.39-.87,2.03-1.39,1.21-.92,2.31-.8,3.55.39Z"/>
  <path class="cls-2" d="m50.06,96.29c.15-.64.44-.98,1.28-.36-.44.31-.74.51-1.05.74-.13-.18-.26-.31-.23-.39Z"/>
  <path class="cls-2" d="m49.47,94.36c-.49,1.41-.92,2.7-1.54,4.47,1.18-.46,1.93-.77,2.88-1.16-1.21,1.52-2.26,1.95-3.85,1.72-.1-3.21.44-4.34,2.52-5.04Z"/>
  <path class="cls-2" d="m48.42,47.61c-1.36.28-2.54.21-3.72-.1-.72-.18-1.44-.46-2.13-.69-1.49-.51-2.44.18-2.34,1.75s.26,3.11.41,4.75c-.69.18-1.05-.1-1.13-.77-.15-1.44-.31-2.88-.44-4.32-.05-.62-.03-1.26-.05-1.85,1.95-1.77,6.63-.82,9.4,1.23Z"/>
  <path class="cls-2" d="m45.82,91.66c.1.08.21.15.28.23-.46.33-.9.87-1.41,1-2.83.82-5.68,1.54-8.89,2.39,1-2.41,1.75-4.5,2.7-6.45.64-1.39,1.72-2.41,3.65-2.93-1,1.23-1.85,2.18-2.54,3.21s-1.39,2.11-1.64,3.65c2.75-.39,5.29-.74,7.86-1.1Z"/>
  <path class="cls-2" d="m44.9,87.66c.21.21.41.41.62.64-.05.05-.13.1-.18.18-.21-.21-.41-.44-.64-.64.08-.05.13-.1.21-.18Z"/>
  <path class="cls-2" d="m44.46,90.51c0,.1,0,.18.03.28-1.46.21-2.9.41-4.68.67.26-.72.36-1.08.49-1.41,1.41.15,2.8.31,4.16.46Z"/>
  <path class="cls-2" d="m41.2,80.77c.44.95.87,1.9,1.31,2.85-.13.05-.23.1-.36.15-1.77-3.06-3.98-5.96-4.11-9.71.13-.05.28-.1.41-.15.18.62.28,1.26.51,1.85.72,1.67,1.49,3.34,2.23,5.01Z"/>
  <path class="cls-2" d="m32.88,81.95c2.54.82,4.73,2.62,7.66,2.26-1.82,1.44-3.75.74-5.6.33-1.7-.36-3.31-1.03-4.98-1.57q2.31-4.14,7.27-6.65c.26.8.21,1.26-.69,1.77-2.59,1.49-2.7,1.75-3.65,3.85Z"/>
  <path class="cls-2" d="m39.94,82.49c-1.46.59-3.37.15-5.45-1.05.44-1.75,2.11-1.95,3.39-2.8.18.9-.54,1.1-.92,1.52-.95,1-.82,1.54.54,1.88.82.21,1.62.31,2.44.46Z"/>
  <path class="cls-2" d="m39.45,56.55c-.59.46-.8.8-1,.8-1.05-.05-2.11-.23-3.16-.21-.64,0-1.46.08-1.85.46-.26.26-.05,1.23.23,1.7.82,1.41,1.8,2.72,2.77,4.16-1.44-.31-2.52-1.03-3.16-2.29-.67-1.34-1.26-2.72-1.98-4.32,2.57-1.18,5.11-.77,8.14-.31Z"/>
  <path class="cls-2" d="m36.78,73.35c-.18.26-.36.59-.64.8-.15.13-.49.1-.72.05-2.9-.74-5.86-1.41-8.12-3.85,1.26-1.62,2.67-2.59,4.65-2.93,1.39-.23,2.72-.9,4.14-1.39.44.72.33,1.23-.31,1.46-.87.31-1.8.54-2.72.69-1.49.21-2.57.9-3.26,2.36,2.31.92,4.55,1.82,6.99,2.8Z"/>
  <path class="cls-2" d="m35.29,58.58c.08.28.18.57.26.85-.08.05-.18.08-.26.13-.15-.28-.28-.54-.44-.82.15-.05.28-.1.44-.15Z"/>
  <path class="cls-2" d="m33.93,69.19c-.03.67-.03,1.21-.05,1.93-.69-.36-1.36-.72-2.31-1.21.98-.31,1.64-.51,2.36-.72Z"/>
  <path class="cls-3" d="m58.85,57.51c1.18.95,1.88,2.26.85,3.78-.74,1.08-1.52,2.16-2.36,3.19-1.41,1.64-3.13,2.16-5.24,1.34-1.16-.44-2.36-.64-3.49-1.34-3.65-2.29-2.18-4.93.03-6.86,1.62-1.41,3.67-1.44,5.75-1.57,1.49.33,3.13.41,4.47,1.46Zm-3.32,7.24c2.04-.81,3.7-3.29,3.94-4.84-1.08-2.4-2.58-2.85-3.74-2.55,1.12,1.77,1.39,2.82,1.25,3.76-.25,1.32-.76,3.07-1.46,3.63Zm-1.48-1.32c.96-.25,1.49-.43,1.73-1.19.39-1.26.06-3.08-.58-3.61-1.11-.94-2.84-.32-3.61-.07-1,.33-1.81,3.02-.25,4.66-.02-.86.19-1.67.55-2.28.38-.64.93-1.04,1.54-1.03,1.22.28,1.29.93,1.31,1.42-.07.83,0,1.21-.69,2.08Zm-3.27,1.01c-1.39-1.64-1.73-5.01-.3-6.68-1.16-.08-2.96,2.3-3.17,3.23-.31,1.46,2.1,2.99,3.47,3.46Z"/>
  <path class="cls-3" d="m73.43,57.65c-1.18.95-1.88,2.26-.85,3.78.74,1.08,1.52,2.16,2.36,3.19,1.41,1.64,3.13,2.16,5.24,1.34,1.16-.44,2.36-.64,3.49-1.34,3.65-2.29,2.18-4.93-.03-6.86-1.62-1.41-3.67-1.44-5.75-1.57-1.49.33-3.13.41-4.47,1.46Zm3.32,7.24c-2.04-.81-3.7-3.29-3.94-4.84,1.08-2.4,2.58-2.85,3.74-2.55-1.12,1.77-1.39,2.82-1.25,3.76.25,1.32.76,3.07,1.46,3.63Zm1.48-1.32c-.96-.25-1.49-.43-1.73-1.19-.39-1.26-.06-3.08.58-3.61,1.11-.94,2.84-.32,3.61-.07,1,.33,1.81,3.02.25,4.66.02-.86-.19-1.67-.55-2.28-.38-.64-.93-1.04-1.54-1.03-1.22.28-1.29.93-1.31,1.42.07.83,0,1.21.69,2.08Zm3.27,1.01c1.39-1.64,1.73-5.01.3-6.68,1.16-.08,2.96,2.3,3.17,3.23.31,1.46-2.1,2.99-3.47,3.46Z"/>
</svg>