<svg width="181" height="181" fill="none" xmlns="http://www.w3.org/2000/svg"><g clip-path="url(#Group 7__a)"><path fill="#E0E1E3" d="M0 0h181v181.417H0z"/><path d="M44.59 94.818c.036-.959.036-1.683.067-2.573-.958.276-1.85.552-3.151.963 1.266.651 2.156 1.13 3.083 1.61Zm2.228-15.589c-.104-.375-.24-.75-.343-1.125-.209.068-.38.136-.584.203.203.375.375.72.584 1.094.104-.068.24-.099.343-.172Zm.787 19.63c.375-.276.614-.718.854-1.062-3.255-1.302-6.234-2.5-9.318-3.734.927-1.954 2.365-2.876 4.354-3.151a22.063 22.063 0 0 0 3.63-.922c.855-.313.995-.995.412-1.953-1.885.65-3.667 1.541-5.515 1.848-2.641.443-4.521 1.745-6.204 3.901 3.016 3.256 6.954 4.146 10.829 5.141.307.068.755.104.958-.068Zm3.083-22.4c.271 0 .547-.449 1.334-1.063-4.042-.615-7.433-1.167-10.86.411.964 2.125 1.75 3.974 2.64 5.755.855 1.678 2.292 2.636 4.214 3.047-1.302-1.916-2.604-3.666-3.703-5.546-.375-.62-.65-1.922-.307-2.266.516-.51 1.614-.615 2.469-.615 1.4-.03 2.807.209 4.213.276Zm-5.276 32.13c2.776 1.609 5.307 2.187 7.26 1.401-1.093-.204-2.156-.339-3.255-.615-1.812-.448-1.984-1.167-.718-2.5.515-.547 1.474-.823 1.234-2.021-1.714 1.13-3.938 1.401-4.52 3.735Zm8.052 3.697c-3.906.48-6.817-1.916-10.208-3.015 1.266-2.807 1.4-3.151 4.864-5.136 1.198-.687 1.266-1.302.922-2.364-6.61 3.354-6.61 3.354-9.692 8.87 2.224.718 4.385 1.609 6.645 2.088 2.464.552 5.037 1.474 7.47-.443Zm2.636-.786c-.584-1.271-1.167-2.536-1.745-3.802-.995-2.229-2.026-4.453-2.985-6.682-.307-.787-.442-1.641-.682-2.464-.172.068-.38.135-.547.203.167 5 3.115 8.87 5.48 12.948.171-.068.307-.135.479-.203Zm2.635 9.552c-.031-.135-.031-.239-.031-.375a837.963 837.963 0 0 0-5.552-.614c-.172.442-.308.921-.651 1.88 2.364-.339 4.28-.615 6.234-.891Zm1.37-3.323c-.271-.307-.547-.578-.818-.854a1.88 1.88 0 0 1-.276.24c.307.276.583.583.854.854.068-.099.172-.167.24-.24Zm.786 4.797c-.099-.099-.24-.203-.375-.307-3.422.479-6.817.958-10.479 1.474.344-2.058 1.266-3.495 2.193-4.865.922-1.37 2.052-2.64 3.39-4.281-2.572.682-4.01 2.057-4.864 3.906-1.266 2.599-2.26 5.375-3.6 8.594 4.282-1.13 8.084-2.089 11.855-3.182.682-.172 1.266-.891 1.88-1.339Zm-1.88-59.187c1.573.411 3.151.515 4.964.135-3.698-2.74-9.933-4.005-12.537-1.64.037.786 0 1.64.073 2.463.172 1.917.375 3.838.578 5.755.104.89.584 1.266 1.51 1.026-.208-2.193-.41-4.245-.551-6.333-.136-2.089 1.135-3.016 3.12-2.334.926.313 1.885.688 2.843.928Zm4.313 68.437c.823-2.365 1.406-4.078 2.057-5.958-2.776.922-3.495 2.427-3.354 6.713 2.12.308 3.526-.276 5.135-2.297-1.266.511-2.26.927-3.838 1.542Zm4.557-3.87c-1.13-.823-1.505-.38-1.714.479-.03.105.14.271.313.511.406-.307.817-.578 1.4-.99Zm4.041 5.104c.995-.724 1.886-1.614 2.844-2.432-1.646-1.578-3.114-1.75-4.729-.515a23.778 23.778 0 0 1-2.703 1.848c-2.089 1.303-4.281 2.193-7.057 3.188.791-3.703.172-7.161 2.64-9.932.24-.24 0-.891-.036-1.922-4.146 4.625-4.932 9.422-3.974 14.937 2.328-.791 4.349-1.646 6.474-2.125 2.432-.547 4.557-1.609 6.541-3.047Zm2.844-74.161c.209-1.23-.375-1.781-1.026-2.328-.718-.584-1.406-1.198-2.192-1.709-.448-.276-1.303-.65-1.542-.447-.516.447-1.026 1.197-1.026 1.812-.037 1.375.479 2.64 1.64 3.531.688-1.026-.958-2.297.38-3.286 1.199.786 2.397 1.573 3.766 2.427Zm4.558-1.297c.27-.14.51-.38.958-.687-.583-.72-.995-1.474-1.61-1.954-3.187-2.432-7.057-3.218-10.822-4.484-.485 1.401-.995 2.636-1.271 3.901-.443 2.057-.1 3.151 1.234 4.901-.036-.89-.172-1.818-.068-2.74.136-1.234.308-2.5.75-3.666.516-1.406 1.443-1.505 2.709-.615 1.713 1.23 3.286 2.703 5.172 3.495 1.198.474 1.198 1.365 1.677 2.224.479-.135.89-.208 1.27-.375Zm2.432 77.547c.479-.891.99-1.781 1.541-2.776-2.192-.203-2.192-.203-1.541 2.776Zm-1.922 4.589c4.354-1.714 7.266-5.136 6.854-8.053-1.166.178-1.854.276-2.333 1.855-.443 1.64-1.302 3.698-3.526 4.453-.922-1.99-1.302-3.974-.682-6.167-1.235-.547-1.51-.068-1.579.719-.203 2.536.204 4.896 1.266 7.193Zm7.844-85.803c.172-.14.344-.276.515-.411-.343-.307-.682-.651-1.026-.958a2.092 2.092 0 0 0-.307.27c.27.344.547.72.818 1.1Zm4.041.584c-.307-2.74-1.229-4.282-3.218-5.792-.787-.682-1.542-1.37-2.365-2.088-1.812 2.671-2.36 5.208-1.469 7.192.443-1.161.922-2.125 1.162-3.15.276-1.235 1.099-1.542 2.161-1.647.578 2.193 2.193 3.636 3.73 5.485ZM78.912 146.16c5.615-3.359 9.865-7.708 10.755-14.489-1.062 1.338-1.78 2.948-2.807 4.281-1.099 1.37-2.469 2.537-3.77 3.703-1.334 1.229-2.397 2.808-4.454 3.146-.51-4.005-.995-7.875-1.542-12.297-.343.552-.75.927-.854 1.375-1.265 4.688.344 8.974 1.85 13.255.135.443.614.787.822 1.026Zm22.094-90.224c.239 1.063.885 1.032 1.849.485-.891-2.432-1.781-4.833-2.74-7.469-2.468 2.328-3.083 4.724-1.682 7.604.208-1.166.448-2.328.755-3.937.615.479 1.198.719 1.339 1.094.271.682.271 1.474.479 2.224Zm1.849 76.521a180.862 180.862 0 0 1-.755-3.422c-1.407 1.438-1.334 1.709.755 3.422Zm1.161-79.291c-.307-1.542-.718-2.98-.89-4.49-.136-1.469-.068-2.943-.099-4.453-4.625.516-8.563 5.927-7.844 10.62.646-1.61 1.094-3.287 1.917-4.76.89-1.61 2.088-3.016 3.083-4.386 1.849.172 1.917 1.437 1.917 2.672 0 1.745.651 3.495 1.916 4.797Zm-1.057 85.255c.891-1.578.135-3.016-.172-4.453-.172.51-.344 1.026-.516 1.541-2.536.068-3.697-1.817-5.067-3.291-.14-.615.135-1.505-1.302-1.474.411.651.75 1.166 1.062 1.646 1.438 2.536 3.459 4.453 5.995 6.031Zm11.026-80.427c-.104-1.302-.172-2.396-.307-3.974-2.157 1.474-2.433 3.219-2.74 5.344.583-.855.958-1.438 1.37-2.053.583.24 1.026.407 1.677.683Zm1.505 3.937c2.058-4.213 1.339-8.495.516-13.218-1.745 1.437-3.083 2.53-4.417 3.63-2.5 1.677-3.151 3.015-2.739 5.755 1.026-1.953 1.984-3.734 2.942-5.552 1.099-.51 2.229-1.026 3.427-1.61.271 2.126.651 3.907.719 5.688.037 1.781-.276 3.563-.448 5.307Zm1.615 67.136c.719-3.459-1.511-5.032-3.188-6.917-.515.854-.614 1.37-.239 1.677.448.344 1.026.516 1.437.927.927.854.755 1.505-.411 1.953-.787-.651-1.469-1.234-2.193-1.817-1.094-.823-1.745-.412-2.359.958a555.812 555.812 0 0 0 6.953 3.219Zm-9.386-2.808c1.849 4.245 8.256 6.407 14.079 5.651-.823-4.484-1.683-8.869-5.245-12.432-.443.547-.787.959-1.162 1.438.922.859 1.782 1.609 2.672 2.432-.411 2.26 2.021 4.281.651 6.922-1.922.443-3.734-.344-5.448-1.063-1.812-.755-3.458-1.817-5.547-2.948Zm13.459-34.49c.343-4.077.276-8.155-1.094-12.025-1.609-4.589-3.667-9.01-7.057-12.74a13.194 13.194 0 0 0-4.933-3.36 45.675 45.675 0 0 0-3.494-1.16c-3.526-1.032-7.125-1.579-10.86-1.714-2.875.172-5.75.135-8.562.51-3.183.412-6.302 1.203-9.453 1.75-3.563.584-6.782 2.058-9.865 3.766-4.625 2.536-8.016 6.406-10.307 11.167a59.897 59.897 0 0 0-2.64 6.51c-1.746 5.307-2.157 10.719-.308 16.099 1.818 5.203 4.557 9.932 7.536 14.484 2.328 3.563 5.651 6.235 9.73 7.709 2.291.823 4.588 1.645 6.916 2.297 4.11 1.161 8.224 1.916 12.604 1.437a41.285 41.285 0 0 0 5.516-.958c4.318-.959 8.359-2.604 11.953-5.448 2.094-1.641 4.349-3.391 5.755-5.615 4.453-6.922 7.808-14.354 8.563-22.708Zm1.713 11.438c1.235-4.724 1.266-9.557 1.198-14.354-.068-4.552-.719-9.041-2.776-13.219-.547-1.198-.75-2.567-1.057-3.87-.688-2.88-2.125-5.208-4.557-7.02-3.016-2.23-6.407-3.667-9.797-5.172-3.766-1.682-7.912-1.27-11.886-1.75-2.911-.375-5.89.068-8.838.276-.959.068-1.917.583-2.875.615-6.922.38-13.12 2.776-18.906 6.474-1.407.89-2.948 1.645-4.146 2.776-4.693 4.385-7.401 10-9.11 16.13-.24.791-.312 1.646-.62 2.432-.687 1.578-.479 3.12-.067 4.693.135.552.479 1.062.614 1.61.105.447.073.926.105 1.405.067-4.729.89-9.28 2.74-13.599 1.062-2.463 2.056-5.036 3.53-7.229 1.401-2.02 3.391-3.63 5.136-5.411.547-.584 1.099-1.266 1.781-1.573 2.5-1.167 5.068-2.156 7.568-3.255.755-.344 1.474-.855 2.265-1.063 2.157-.583 4.417-.922 6.573-1.61 3.802-1.16 7.672-1.78 11.646-1.473 2.26.208 4.52.515 6.781.552 3.464.068 6.683 1.026 9.865 2.052 2.297.719 4.453 1.849 6.099 3.839 1.745 2.052 3.359 4.177 4.349 6.713.687 1.714 1.302 3.495 2.193 5.068 1.953 3.562 1.989 7.4 1.989 11.234-.036 1.302-.859 2.604.339 3.839.104.135 0 .817-.172.89-1.162.547-.959 1.782-.75 2.396.515 1.542-.136 2.709-.688 4.01a220.91 220.91 0 0 0-1.984 4.896c-2.469 6.167-5.38 11.99-10.964 15.995-1.573 1.13-3.151 2.328-4.864 3.219-3.662 1.885-7.604 3.052-11.714 3.802-4.656.859-9.281.755-13.734-.443-5.823-1.578-11.714-3.151-16.443-7.328-.067.167-.172.308-.27.479 1.37 1.266 2.703 2.599 4.176 3.802 2.636 2.12 5.756 3.563 8.87 4.313 2.5.583 5.005 1.234 7.438 2.021.547.172 1.297.479 1.64.239 1.75-1.161 3.766-.682 5.516-.786 3.766-.203 7.297-1.234 10.86-2.057 2.432-.511 4.723-1.709 7.051-2.599 2.917-1.167 5.037-3.12 6.922-5.172 4.417-4.766 7.328-10.485 8.974-16.787Zm2.709-36.135-.516-.823c-1.198-.036-2.396-.068-3.531-.104.552.479 1.203.995 1.817 1.51-.375.51-.614.854-.854 1.198.136.068.24.136.339.203.89-.65 1.818-1.302 2.745-1.984Zm.234-3.526a836.823 836.823 0 0 0-3.63-.104c1.13 1.161 2.364 1.161 3.63.104Zm-5.646 50.625c1.297 1.776 4.141 2.193 7.12 1.401-.651-2.807-2.464-4.484-4.828-5.583-1.953 2.536 1.849 2.364 1.541 4.317-1.197-.036-2.296-.067-3.833-.135Zm8.219-1.031c.614.859 1.302 1.541 1.026 2.573-.307 1.229-1.37 1.64-2.5 1.812-1.542.24-3.151.344-4.729.516 3.463.89 6.75.682 9.833-1.203-1.646-4.245-3.87-7.943-8.427-9.86-.203.511-.344.682-.307.818.067.239.208.547.375.62 2.156 1.026 3.359 2.875 4.729 4.724Zm2.739-47.985c-.682-.38-1.026-.65-1.406-.791-.375-.1-.786-.1-1.198-.167-1.13 3.39-3.63 5.578-5.994 7.943 3.598-1.407 5.687-4.521 8.598-6.985Zm-1.338 35.584c1.167-.24 2.266-.891 3.359-1.334-1.677-4.146-3.698-5.448-7.979-4.932.958 1.406 2.188 2.604 4.005 2.568 1.542-.068 1.407.583 1.198 1.442-1.541.136-2.942.204-4.312.339-.344.036-.651.208-1.203.411.927.927 1.375 1.37 1.817 1.818 1.167-.38 2.193-.141 3.115-.312Zm.38-18.084c.922-1.198 2.568-1.781 2.979-3.666-2.604.515-4.968-.787-7.401-.48.141 2.23 2.5 1.407 3.224 2.985-1.406.406-2.64.786-4.182 1.229 1.646 1.542 2.5 1.713 3.734.958.547-.338 1.266-.547 1.646-1.026Zm.068-5.823c1.302.105 2.604 1.542 4.109-.104-2.776-1.64-5.448-1.505-8.114-.375 1.297.308 2.666.375 4.005.48Zm7.604 2.157c-.411-.308-.786-.578-.958-.72-2.808 2.74-5.448 5.381-8.12 7.985 4.182-1.062 6.953-3.666 9.078-7.265Zm-5.859 24.114c2.536-1.401 5.073-2.771 7.64-4.177-.786-2.156-1.609-2.875-3.562-3.63-1.235-.448-2.365-1.198-3.563-1.781-1.333-.688-2.672-1.407-4.078-1.954-.547-.208-1.265 0-1.88 0 2.599 1.714 6.13 1.75 7.328 5.141.755.031 1.406.031 2.057.068.068.786.167 1.505.271 2.463-1.713.927-3.323 2.058-5.104 2.709-1.708.651-3.594.786-5.75 1.229 2.5 1.51 4.589 1.062 6.641-.068Zm9.385-6.573c1.167.959.964 3.287-.443 3.87-4.625 1.849-8.703 4.932-14.145 5.547 1.093 1.198 1.916 2.26 2.911 3.151 1.266 1.13 1.953 2.5 2.464 4.042.38 1.166.822 2.297 2.364 2.02-.036 2.537-.036 2.537-2.021 3.256-3.255 1.198-6.541 2.156-10.104 1.093-.755-.203-1.609-.067-2.739-.099a457.45 457.45 0 0 0 2.604 7.875c.343 1.032.75 2.021 1.13 3.016.75 1.886-.037 3.151-2.094 3.188-3.698.067-7.396-.141-10.719-2.193-1.062-.651-2.224-1.063-3.427-1.646 1.271 7.089.756 14.25-1.302 17.229-3.63-2.291-7.328-4.453-9.52-8.39-1.917-3.391-2.329-3.87-4.964-5.105-1.167 2.193-2.297 4.454-3.495 6.646-.448.787-1.026 1.573-1.713 2.157-2.365 2.125-4.797 4.145-7.365 6.369-3.219-4.724-4.453-10.036-3.906-15.823-2.26 1.167-4.35 2.365-6.505 3.427-1.198.579-2.537.891-3.803 1.37-1.953.75-3.906 1.505-5.859 2.261-.375.172-.75.271-1.406.51-.203-5.203.036-10.068 1.885-14.828-4.896.547-9.385 2.396-14.588 2.844 2.703-4.526 3.114-9.698 7.297-13.464-5.485.375-9.901-2.021-14.87-3.63 1.13-2.193 2.776-3.974 4.11-5.958 1.374-2.094 4.01-2.334 5.895-3.974-1.615-1.302-3.495-1.677-5.313-2.193-2.74-.787-5.036-2.328-7.156-4.177-.38-.344-.62-.927-.927-1.406 3.323-4.146 8.36-4.589 12.917-6.51-.552-.615-.86-1.23-1.375-1.542-1.469-.922-2.089-2.396-2.875-3.766-1.167-2.052-2.193-4.177-3.323-6.37.65-1.031 1.578-1.578 3.047-1.61 2.916-.036 5.823-.312 8.906-.515.036-.516.14-1.234.073-1.953-.344-2.911-.792-5.823-1.1-8.766-.306-3.052.21-3.494 3.22-3.323.927.032 1.849-.14 2.776-.208 2.776-.203 5.172 1.13 7.672 1.99.479.135.958.203 1.609.375.344-4.589-.682-9.282 2.057-13.6 1.302.48 2.672.996 4.042 1.506 1.573.583 3.219.964 4.693 1.714 1.437.755 2.77 1.817 4.109 2.776.583.411 1.13.854 1.885 1.437.1-.682.24-.99.204-1.302-.375-3.286 1.13-6.094 2.229-9.005.375-.995 1.13-1.167 2.156-.62 2.875 1.578 4.963 3.839 6.37 7.23 2.807-4.418 5.14-9.043 10.687-10.412 1.917 1.13 1.745 1.093 1.438 3.114-.511 3.151-.511 6.302 1.166 9.214.172.307.651.448.719.479 2.5-2.089 4.828-4.005 7.162-5.995.375-.307.547-.818.922-1.161.614-.584 1.333-1.063 2.156-1.75.823 2.364.89 4.593 1.406 6.646.688 2.74-.036 5.312 0 7.947.036 1.266.411 1.886 1.677 1.917 1.099 0 2.261.344 3.188 0 2.328-.854 4.52-.443 6.541.516 1.026.515 1.646.307 2.5-.24.448.823.854 1.542 1.407 2.537-1.37 1.536-2.709 3.145-4.183 4.62-1.474 1.473-3.114 2.812-4.791 4.317 1.88 1.406 2.942.203 3.833-.24 1.609.443 2.948 1.027 4.318 1.167 1.781.136 3.151.75 4.416 1.985.516.479 1.302.682 2.261.682.239.687.479 1.375.687 1.922-.995 1.302-1.818 2.463-2.708 3.594-1.745 2.296-4.245 3.53-6.714 4.796-1.093.584-2.125 1.266-3.218 1.917 3.494 1.781 6.781 3.396 10 5.104a18.858 18.858 0 0 1 3.562 2.401Zm-44.901 38.912c1.469 4.521 4.859 7.088 9.005 9.073 1.99-5.75 1.922-11.094-.75-16.407-1.578.688-.651 1.954-.62 2.98 0 .619.344 1.27.412 1.885.068 1.094-.24 2.26.104 3.219.615 1.75-.068 3.015-.958 4.76-1.953-1.609-3.771-3.114-5.584-4.552-.484-.38-1.099-.62-1.609-.958Zm-.036-.037v-.067c-.037-.037-.105-.068-.136-.105-.65-1.265-1.27-2.567-1.99-3.765-.135-.209-.718-.172-1.093-.209.031.412-.14 1.026.067 1.271.959.959 1.985 1.813 3.016 2.703.031.068.068.105.1.172h.036Z" fill="#1A3151"/><path d="M139.642 98.927c-2.568 1.406-5.104 2.776-7.641 4.177-2.052 1.13-4.14 1.578-6.646.068 2.162-.443 4.047-.578 5.756-1.229 1.781-.651 3.396-1.782 5.104-2.709-.099-.958-.203-1.677-.271-2.463-.651-.037-1.302-.037-2.057-.073-1.198-3.39-4.724-3.422-7.328-5.135.614 0 1.333-.204 1.885 0 1.401.546 2.74 1.265 4.073 1.953 1.198.583 2.328 1.333 3.562 1.78 1.954.756 2.776 1.475 3.563 3.631Zm-2.74-20.656c.172.14.547.411.959.719-2.125 3.599-4.896 6.203-9.078 7.265 2.671-2.604 5.307-5.245 8.119-7.984Zm-2.536-1.542c-1.505 1.646-2.807.209-4.109.104-1.339-.104-2.709-.171-4.006-.479 2.667-1.13 5.339-1.265 8.115.375Zm-1.198 2.26c-.411 1.886-2.057 2.47-2.979 3.667-.38.48-1.099.688-1.646 1.026-1.234.755-2.089.584-3.734-.958 1.541-.443 2.776-.818 4.182-1.234-.724-1.573-3.083-.75-3.224-2.98 2.432-.307 4.797.995 7.401.48Z" fill="#EFCF50"/><path d="M133.167 99.406c-1.093.448-2.192 1.094-3.359 1.339-.922.166-1.948-.068-3.115.307-.442-.448-.89-.891-1.817-1.818.552-.203.859-.375 1.203-.411 1.37-.135 2.771-.203 4.312-.344.209-.854.344-1.505-1.198-1.437-1.817.036-3.047-1.162-4.005-2.568 4.281-.516 6.302.786 7.979 4.932Zm-3.427-35.041c.38.14.719.411 1.406.791-2.911 2.464-5 5.578-8.598 6.985 2.364-2.365 4.864-4.552 5.994-7.943.412.068.823.068 1.198.167Zm-.307 51.343c.276-1.026-.412-1.708-1.026-2.567-1.37-1.849-2.568-3.698-4.729-4.724-.172-.068-.308-.381-.375-.62-.037-.136.104-.307.307-.823 4.557 1.922 6.781 5.62 8.427 9.87-3.083 1.88-6.37 2.088-9.828 1.198 1.573-.172 3.182-.276 4.724-.516 1.13-.172 2.193-.583 2.5-1.818Z" fill="#EFCF50"/><path d="M127.308 115.573c-2.979.786-5.823.38-7.12-1.401 1.542.068 2.636.099 3.834.135.307-1.953-3.495-1.781-1.542-4.317 2.365 1.099 4.177 2.776 4.828 5.583Zm-5.104-52.13c1.203.03 2.401.067 3.635.099-1.27 1.062-2.5 1.062-3.635-.1Zm2.88 2.807c.172.276.344.547.511.823-.922.682-1.849 1.333-2.74 1.984a2.802 2.802 0 0 0-.338-.203c.239-.344.479-.687.854-1.198-.615-.515-1.266-1.031-1.813-1.51 1.13.036 2.328.067 3.526.104Zm-.995 22.604c.068 4.797.037 9.63-1.197 14.354-1.646 6.302-4.558 12.021-8.974 16.787-1.886 2.052-4.006 4.005-6.917 5.172-2.333.89-4.625 2.088-7.057 2.599-3.563.823-7.094 1.849-10.86 2.057-1.745.104-3.765-.375-5.515.786-.344.24-1.094-.067-1.646-.239-2.427-.787-4.927-1.438-7.427-2.021-3.12-.75-6.24-2.193-8.875-4.313-1.474-1.203-2.808-2.536-4.177-3.802.099-.172.203-.312.27-.479 4.73 4.177 10.62 5.75 16.443 7.328 4.453 1.198 9.078 1.302 13.734.443 4.115-.75 8.053-1.917 11.719-3.802 1.709-.891 3.287-2.089 4.86-3.219 5.583-4.005 8.494-9.828 10.963-15.995a226.892 226.892 0 0 1 1.985-4.9c.546-1.297 1.197-2.464.687-4.006-.208-.614-.411-1.849.75-2.396.172-.073.276-.755.172-.89-1.198-1.235-.375-2.537-.339-3.839 0-3.833-.036-7.672-1.989-11.234-.891-1.573-1.505-3.354-2.193-5.068-.989-2.536-2.604-4.661-4.349-6.714-1.646-1.99-3.802-3.12-6.099-3.838-3.182-1.026-6.406-1.984-9.864-2.057-2.26-.032-4.521-.339-6.782-.547-3.974-.307-7.843.312-11.646 1.474-2.156.687-4.416 1.026-6.578 1.61-.786.208-1.505.718-2.26 1.062-2.5 1.099-5.068 2.088-7.568 3.255-.682.307-1.234.99-1.781 1.573-1.745 1.781-3.734 3.39-5.135 5.411-1.474 2.193-2.47 4.766-3.532 7.23-1.849 4.317-2.672 8.87-2.74 13.598-.036-.479 0-.958-.103-1.406-.136-.547-.48-1.057-.615-1.61-.411-1.572-.615-3.114.068-4.692.307-.786.38-1.64.614-2.432 1.714-6.13 4.422-11.745 9.115-16.13 1.198-1.13 2.74-1.886 4.146-2.776 5.786-3.698 11.99-6.094 18.906-6.474.958-.032 1.917-.547 2.875-.615 2.948-.208 5.927-.651 8.838-.276 3.974.48 8.12.068 11.886 1.745 3.391 1.51 6.781 2.948 9.797 5.177 2.432 1.812 3.87 4.14 4.557 7.02.307 1.303.511 2.672 1.057 3.87 2.058 4.177 2.709 8.667 2.776 13.22Z" fill="#EFCF50"/><path d="M104.226 113.073c1.198-1.401 1.266-3.115.922-4.865-.068-.343-.818-.547-1.266-.823-.068.412-.271.823-.239 1.204.135 1.437.375 2.875.583 4.484Zm15.859-33.328c1.37 3.87 1.438 7.948 1.094 12.02-.755 8.36-4.109 15.792-8.562 22.714-1.402 2.224-3.667 3.974-5.756 5.615-3.593 2.844-7.635 4.489-11.953 5.448l-.65-2.672c-.376-2.021-1.746-2.328-3.152-2.568-.958-.172-2.02-.104-2.943-.448a3.118 3.118 0 0 0-1.03-.203l-.855-2.328c.786-.276 1.573-.62 2.463-1.063 1.954 1.401 4.11.75 6.271.443 1.954-.239 3.183-1.401 4.177-2.943.547-.859 1.026-1.817 1.474-2.739.412-.86 0-1.682-.958-1.953-1.099-.313-2.193-.792-3.323-.964-3.083-.479-6.234-1.437-9.01.823a9.823 9.823 0 0 1-.719-.443c-1.094-.718-1.714-1.099-2.26-1.099l1.677-2.395c1.099.614 2.567.375 3.87-.24 1.27-.615 2.536-1.266 3.802-1.885 1.682-.823 2.468-1.985 2.572-3.938.136-2.057-1.437-2.536-2.432-3.495-1.406-1.37-2.432-2.74-1.781-4.864.27-.75.375-1.745.099-2.5-.89-2.5-.646-5-.167-7.433.339-1.677-.14-3.39.886-5 1.922-2.979 4.729-4.422 8.119-4.968 1.438-.24 2.912-.48 4.73-.787-.547-.583-.86-1.198-1.167-1.198-.172 0-.344-.036-.516-.036l.516-6.162a45.74 45.74 0 0 1 3.495 1.162 13.19 13.19 0 0 1 4.932 3.36c3.391 3.734 5.448 8.15 7.057 12.739Zm1.714 52.166c-5.823.756-12.229-1.401-14.078-5.651 2.088 1.131 3.734 2.193 5.547 2.948 1.713.719 3.526 1.506 5.447 1.063 1.37-2.641-1.062-4.662-.651-6.922-.89-.823-1.75-1.573-2.671-2.432.375-.479.718-.891 1.161-1.438 3.563 3.563 4.422 7.948 5.245 12.432Z" fill="#EFCF50"/><path d="M113.918 122.151c1.677 1.885 3.906 3.458 3.187 6.917a555.812 555.812 0 0 1-6.953-3.219c.615-1.37 1.266-1.781 2.36-.958.718.583 1.406 1.166 2.192 1.817 1.167-.448 1.339-1.099.412-1.953-.412-.411-.995-.583-1.438-.927-.375-.307-.276-.823.24-1.677Zm2.089-73.437c.822 4.724 1.541 9.005-.511 13.218.167-1.745.474-3.526.443-5.307-.068-1.781-.443-3.563-.719-5.688-1.198.584-2.328 1.1-3.427 1.61l-.203-.203c1.333-1.1 2.672-2.193 4.417-3.63Z" fill="#EFCF50"/><path d="M113.679 54.02c.135 1.579.203 2.673.307 3.975-.651-.276-1.093-.443-1.677-.688-.411.62-.786 1.203-1.37 2.058.308-2.125.584-3.87 2.74-5.344Zm-2.089-1.676.204.203c-.959 1.818-1.917 3.599-2.943 5.552-.412-2.74.239-4.078 2.739-5.755Zm-6.854 75.765c2.672 5.313 2.745 10.651.756 16.407-4.146-1.985-7.537-4.552-9.006-9.073.51.338 1.13.578 1.61.958 1.812 1.438 3.63 2.943 5.583 4.552.891-1.745 1.573-3.01.958-4.76-.343-.959-.036-2.125-.104-3.219-.068-.615-.411-1.266-.411-1.885-.032-1.026-.959-2.292.614-2.98Z" fill="#EFCF50"/><path d="M105.148 108.208c.344 1.75.276 3.464-.922 4.865-.208-1.609-.448-3.047-.583-4.484-.037-.381.171-.792.239-1.204.443.276 1.198.48 1.266.823Zm-21.474-6.406a883.835 883.835 0 0 1-.104-4.245c-2.26.031-3.115 1.37-3.907 2.912 1.235.995 2.021 2.844 4.01 1.333Zm8.937-.031c1.818-.547 2.641-1.677 2.433-3.084-.172-1.197-.922-1.645-2.98-1.744.172 1.61.38 3.182.547 4.828Zm11.99-33.089c.307 0 .62.615 1.167 1.198-1.818.308-3.287.547-4.73.787-3.39.552-6.197 1.99-8.114 4.968-1.031 1.61-.552 3.323-.89 5-.48 2.433-.72 4.933.171 7.433.27.755.167 1.75-.104 2.5-.651 2.125.375 3.495 1.781 4.864.99.959 2.568 1.438 2.432 3.495-.104 1.953-.89 3.115-2.572 3.938-1.266.619-2.532 1.27-3.803 1.885-1.296.615-2.77.859-3.87.24-.171-.068-.307-.204-.442-.308-1.443-1.302-2.776-1.338-4.453-.786a582.682 582.682 0 0 0-1.886-1.682c-1.234-1.162-1.437-2.329-.276-3.49 1.136-1.167 2.026-2.88 4.422-2.266-.104-2.838-.208-5.442-.24-8.01-.036-1.27.068-2.536.1-3.802.073-2.26.208-4.558.208-6.854-.036-2.5-1.13-3.766-3.63-4.521-1.198-.375-2.396-.854-3.63-1.094-1.37-.276-2.808-.344-4.214-.38-.958 0-1.953.208-2.98.344-.067-1.334.75-1.474 1.47-1.542 2.744-.412 5.515-.922 8.187.48.86.447 2.02.41 2.88.89 2.26 1.27 3.323 3.12 3.183 5.927-.308 4.896-.339 9.833-.204 14.766.068 3.046.547 6.093.928 9.14.135 1.167.921 1.609 2.015 1.953 1.235.344 1.886.073 2.401-1.062.89-1.985 1.063-4.073.959-6.198-.037-.854-.172-1.677-.204-2.537-.036-4.895.032-9.76-.072-14.656-.068-3.875 1.99-6.51 4.729-8.77.343-.308.922-.277 1.406-.444 1.125-.515 2.36-.479 3.557-1.203.964-.578 2.469-.338 3.808-.24.166 0 .338.037.51.037Z" fill="#1A3151"/><path d="M73.877 110.026c-1.85-.036-2.26 1.198-2.537 2.396-.338 1.646.584 2.708 2.094 3.39a6.844 6.844 0 0 1-.38-.718c-.683-1.37-1.13-2.636.515-3.735.271-.172.203-.854.308-1.333ZM104.6 62.484l-.516 6.162c-1.333-.1-2.839-.339-3.797.24-1.203.718-2.432.687-3.562 1.203-.485.171-1.063.135-1.407.442-2.74 2.26-4.797 4.901-4.729 8.771.104 4.896.037 9.76.073 14.656.031.86.167 1.683.203 2.537.104 2.125-.067 4.213-.958 6.198-.516 1.13-1.167 1.406-2.401 1.062-1.094-.338-1.88-.786-2.016-1.948-.38-3.052-.86-6.099-.927-9.15-.135-4.933-.104-9.865.203-14.761.14-2.808-.922-4.656-3.182-5.927-.86-.48-2.02-.443-2.88-.89-2.672-1.402-5.443-.891-8.188-.48-.718.068-1.541.208-1.468 1.542 1.026-.136 2.02-.344 2.979-.344 1.406.036 2.843.104 4.213.38 1.23.24 2.433.719 3.63 1.094 2.5.755 3.594 2.02 3.63 4.52 0 2.297-.135 4.594-.203 6.855-.036 1.265-.14 2.531-.104 3.802.032 2.568.136 5.172.24 8.01-2.396-.614-3.292 1.1-4.422 2.26-1.161 1.167-.958 2.334.276 3.496.615.552 1.234 1.098 1.886 1.682 1.677-.552 3.015-.516 4.453.786.135.104.27.24.442.308l-1.677 2.395c-.65 0-1.166.516-2.156 1.579-.995 1.026-1.885 2.088-3.323 2.567-.995.308-1.849.927-3.016 1.542 1.167.859 1.917 1.333 2.568 1.917 2.672 2.468 4.932 3.224 7.813 2.333l.854 2.328c-1.13 0-1.953.823-2.875 1.781 1.026.032 2.02.172 3.015.068 1.985-.172 3.834-.104 5.48 1.198.27.239.854.104 1.505.172l.65 2.672c-1.78.442-3.63.75-5.515.958-4.385.479-8.495-.276-12.604-1.438-2.328-.651-4.625-1.473-6.917-2.296-4.078-1.474-7.4-4.146-9.729-7.709-2.979-4.552-5.724-9.281-7.536-14.484-1.85-5.38-1.438-10.792.307-16.1a59.913 59.913 0 0 1 2.64-6.51c2.292-4.76 5.683-8.63 10.308-11.166 3.083-1.714 6.302-3.182 9.865-3.766 3.15-.547 6.27-1.338 9.453-1.75 2.812-.375 5.687-.338 8.562-.51 3.735.135 7.334.682 10.86 1.713Zm-1.813 71.485c.307 1.437 1.057 2.875.167 4.453-2.531-1.578-4.552-3.495-5.99-6.031a.627.627 0 0 1 .24-.172c1.37 1.474 2.531 3.359 5.067 3.291.172-.515.344-1.031.516-1.541Zm.339-85.292c.172 1.51.583 2.948.89 4.49-1.265-1.302-1.916-3.052-1.916-4.797 0-1.235-.068-2.5-1.917-2.672-.995 1.37-2.193 2.776-3.083 4.385-.823 1.474-1.266 3.151-1.917 4.76-.719-4.692 3.219-10.103 7.844-10.62.031 1.511-.037 2.98.099 4.454Zm-1.026 80.359c.276 1.303.479 2.224.755 3.422-2.089-1.713-2.156-1.984-.755-3.422Z" fill="#EFCF50"/><path d="M102.854 56.422c-.958.547-1.609.578-1.848-.484-.209-.75-.209-1.542-.48-2.224-.14-.375-.718-.615-1.338-1.1-.308 1.615-.547 2.777-.755 3.943-1.401-2.88-.787-5.276 1.682-7.604.958 2.636 1.849 5.037 2.739 7.469Z" fill="#EFCF50"/><path d="M87.917 114.578c-1.057-.51-2.12-.989-3.286-1.536-1.37.442-2.875.922-4.797 1.573 5.313 2.364 6.443 2.296 8.083-.037Zm-1.437-2.979c.14-1.266-.787-1.609-1.917-2.193a60.59 60.59 0 0 1-1.677 2.5c.136.104.24.209.375.313a68.032 68.032 0 0 1 2.193-1.302c.411.271.719.479 1.026.682Zm.067.104c0-.036 0-.036-.03-.068h-.037v.068h.067Zm7.641 3.87c1.542-.479 3.39-.682 3.563-2.912-5.412-.375-5.412-.375-8.6 1.511 1.266 1.849 3.12 1.948 5.037 1.401Zm2.943-4.214c.073-.171.14-.343.208-.479-.583-.375-1.094-.922-1.75-1.094-2.599-.583-5.406-1.885-7.291 1.542-.209.307-1.1.24-1.714.375.276.344.547.854.786.854 1.063-.135 2.26-.234 3.084-.817 1.37-.995 2.776-1.032 4.281-.756.787.105 1.578.24 2.396.375Zm2.573-2.291c.958.271 1.37 1.093.958 1.948-.448.927-.927 1.885-1.474 2.739-.995 1.542-2.224 2.709-4.177 2.948-2.161.307-4.318.958-6.27-.443-.891.443-1.678.787-2.464 1.063-2.88.891-5.14.135-7.813-2.333-.65-.579-1.4-1.058-2.567-1.917 1.166-.615 2.02-1.234 3.015-1.542 1.438-.479 2.328-1.541 3.323-2.567.995-1.063 1.505-1.579 2.156-1.579.547 0 1.167.381 2.26 1.099.209.136.412.271.72.443 2.776-2.26 5.927-1.302 9.01-.818 1.13.167 2.224.646 3.323.959Z" fill="#1A3151"/><mask id="Group 7__b" style="mask-type:luminance" maskUnits="userSpaceOnUse" x="-1" y="0" width="182" height="182"><path d="M-.582 0h181.417v181.417H-.582V0Z" fill="black" fill-opacity=".8"/></mask><g mask="url(#Group 7__b)"><mask id="Group 7__c" style="mask-type:luminance" maskUnits="userSpaceOnUse" x="86" y="109" width="12" height="4"><path d="M86.584 109.052h10.755v3.505H86.584v-3.505Z" fill="white"/></mask><g mask="url(#Group 7__c)"><path d="M97.34 110.88a7.446 7.446 0 0 0-.204.479c-.823-.135-1.614-.27-2.401-.375-1.505-.276-2.911-.239-4.281.756-.823.578-2.021.682-3.084.817-.24 0-.51-.51-.786-.854.615-.135 1.505-.068 1.713-.375 1.88-3.427 4.693-2.125 7.297-1.542.651.172 1.162.719 1.745 1.094Z" fill="#A53839"/></g></g><path d="M97.204 132.219c-.104.036-.171.104-.24.172-.312-.48-.65-.995-1.062-1.646 1.438-.031 1.162.859 1.302 1.474Z" fill="#EFCF50"/><path d="M96.45 135.37v.036h-.037c-.03-.067-.067-.104-.099-.172.032.037.1.068.136.105v.031Z" fill="white"/><path d="M94.325 131.469c.719 1.198 1.338 2.5 1.99 3.765-1.032-.89-2.058-1.744-3.016-2.708-.209-.234-.037-.854-.068-1.266.375.037.959 0 1.094.209Zm.719-32.781c.208 1.406-.615 2.536-2.433 3.083-.166-1.646-.375-3.219-.547-4.828 2.058.099 2.813.547 2.98 1.745Z" fill="#EFCF50"/><mask id="Group 7__d" style="mask-type:luminance" maskUnits="userSpaceOnUse" x="-1" y="0" width="182" height="182"><path d="M-.582 0h181.417v181.417H-.582V0Z" fill="black" fill-opacity=".8"/></mask><g mask="url(#Group 7__d)"><mask id="Group 7__e" style="mask-type:luminance" maskUnits="userSpaceOnUse" x="89" y="112" width="9" height="4"><path d="M89.152 112.464h8.6v3.401h-8.6v-3.401Z" fill="white"/></mask><g mask="url(#Group 7__e)"><path d="M97.751 112.661c-.172 2.23-2.02 2.433-3.562 2.912-1.917.547-3.771.448-5.037-1.406 3.188-1.881 3.188-1.881 8.6-1.506Z" fill="#A53839"/></g></g><path d="M94.256 122.87c-.651-.068-1.234.068-1.505-.172-1.646-1.302-3.495-1.37-5.485-1.198-.99.104-1.984-.036-3.01-.068.922-.958 1.745-1.781 2.875-1.781.307 0 .65.068 1.026.203.927.344 1.99.276 2.948.448 1.406.24 2.776.547 3.15 2.568Z" fill="#1A3151"/><path d="M89.667 131.672c-.89 6.781-5.14 11.13-10.755 14.489-.208-.239-.687-.583-.823-1.026-1.505-4.281-3.12-8.562-1.849-13.255.104-.448.51-.823.854-1.37.547 4.417 1.032 8.287 1.542 12.292 2.057-.338 3.12-1.917 4.453-3.146 1.302-1.166 2.672-2.333 3.766-3.703 1.031-1.333 1.75-2.943 2.812-4.281Zm-1.166-82.995c1.99 1.51 2.911 3.047 3.218 5.792-1.536-1.854-3.15-3.292-3.729-5.485.167-.099.339-.203.51-.307Z" fill="#EFCF50"/><path d="m88.502 48.677-.51.307c-1.063.105-1.886.412-2.162 1.646-.24 1.026-.719 1.985-1.162 3.151-.89-1.984-.343-4.52 1.47-7.192.822.718 1.577 1.406 2.364 2.088Zm-.307 4.797c-.172.135-.344.276-.516.411-.27-.375-.547-.755-.818-1.099.1-.099.203-.203.307-.27.34.307.683.65 1.027.958Zm-1.506 78.167c.407 2.911-2.5 6.333-6.854 8.047-1.057-2.297-1.474-4.657-1.265-7.193.067-.787.343-1.266 1.573-.719-.615 2.193-.24 4.177.687 6.167 2.23-.755 3.083-2.813 3.526-4.453.484-1.579 1.167-1.683 2.333-1.849Z" fill="#EFCF50"/><path d="M86.517 111.635c.031.037.031.037.031.068h-.067l.036-.068Zm0 0-.036.068v-.068h.036Z" fill="white"/><mask id="Group 7__f" style="mask-type:luminance" maskUnits="userSpaceOnUse" x="-1" y="0" width="182" height="182"><path d="M-.582 0h181.417v181.417H-.582V0Z" fill="black" fill-opacity=".8"/></mask><g mask="url(#Group 7__f)"><mask id="Group 7__g" style="mask-type:luminance" maskUnits="userSpaceOnUse" x="82" y="109" width="5" height="4"><path d="M82.887 109.406h3.61v2.813h-3.61v-2.813Z" fill="white"/></mask><g mask="url(#Group 7__g)"><path d="M84.564 109.406c1.13.584 2.052.927 1.917 2.193-.308-.203-.615-.411-1.027-.682a68.25 68.25 0 0 0-2.192 1.302c-.136-.104-.24-.209-.375-.313a60.59 60.59 0 0 0 1.677-2.5Z" fill="#A53839"/></g></g><mask id="Group 7__h" style="mask-type:luminance" maskUnits="userSpaceOnUse" x="-1" y="0" width="182" height="182"><path d="M-.582 0h181.417v181.417H-.582V0Z" fill="black" fill-opacity=".8"/></mask><g mask="url(#Group 7__h)"><mask id="Group 7__i" style="mask-type:luminance" maskUnits="userSpaceOnUse" x="79" y="113" width="9" height="4"><path d="M79.834 113.042h8.083v3.317h-8.083v-3.317Z" fill="white"/></mask><g mask="url(#Group 7__i)"><path d="M84.63 113.042c1.168.547 2.23 1.026 3.287 1.536-1.64 2.333-2.77 2.401-8.083.037 1.922-.651 3.427-1.131 4.797-1.573Z" fill="#A53839"/></g></g><path d="M83.57 97.557c.036 1.61.067 2.912.104 4.25-1.99 1.505-2.776-.343-4.01-1.338.79-1.542 1.645-2.875 3.906-2.912Zm-.271 34.766c-.552.995-1.063 1.885-1.542 2.776-.651-2.979-.651-2.979 1.542-2.776Zm-3.016-75.458c-.448.307-.687.546-.958.687-.38.167-.792.24-1.271.375-.48-.86-.48-1.75-1.677-2.224-1.886-.792-3.459-2.266-5.172-3.495-1.266-.89-2.193-.791-2.703.615-.448 1.167-.62 2.432-.755 3.667-.105.921.03 1.849.067 2.74-1.338-1.75-1.677-2.845-1.234-4.902.276-1.266.786-2.5 1.27-3.9 3.766 1.265 7.636 2.051 10.824 4.483.614.48 1.026 1.235 1.61 1.954Z" fill="#EFCF50"/><path d="M73.74 56.52c.652.548 1.235 1.1 1.027 2.334a214.9 214.9 0 0 1-3.766-2.432c-1.338.99.307 2.255-.38 3.286-1.161-.89-1.677-2.156-1.64-3.53 0-.615.51-1.365 1.025-1.813.24-.209 1.094.171 1.542.447.787.51 1.474 1.126 2.193 1.709Z" fill="#EFCF50"/><path d="M71.34 112.422c.275-1.198.687-2.432 2.536-2.396-.104.479-.037 1.162-.307 1.333-1.646 1.099-1.198 2.365-.516 3.735.104.239.24.479.38.719-1.51-.683-2.432-1.745-2.094-3.391Z" fill="#1A3151"/><path d="M74.767 130.578c-.959.823-1.85 1.708-2.844 2.432-1.984 1.438-4.11 2.5-6.542 3.047-2.125.479-4.145 1.334-6.474 2.125-.958-5.515-.171-10.312 3.974-14.937.032 1.031.276 1.677.032 1.922-2.464 2.771-1.85 6.234-2.636 9.932 2.776-.995 4.969-1.885 7.058-3.188a24.319 24.319 0 0 0 2.708-1.848c1.604-1.235 3.078-1.063 4.724.515Z" fill="#EFCF50"/><path d="M66.168 128.385c.208-.859.583-1.302 1.713-.479-.583.412-.995.683-1.406.99-.167-.235-.338-.412-.307-.511Z" fill="#EFCF50"/><path d="M65.382 125.818c-.65 1.88-1.234 3.593-2.052 5.958 1.573-.615 2.568-1.031 3.833-1.542-1.609 2.021-3.015 2.605-5.14 2.297-.136-4.286.583-5.791 3.36-6.713Zm-1.406-62.344c-1.813.38-3.39.276-4.964-.135-.958-.24-1.922-.615-2.843-.922-1.985-.688-3.256.234-3.12 2.328.14 2.088.344 4.14.552 6.333-.927.24-1.406-.135-1.51-1.026-.204-1.917-.412-3.839-.579-5.755-.067-.823-.036-1.677-.067-2.464 2.599-2.364 8.833-1.099 12.53 1.64Zm-3.458 58.745c.14.104.276.203.38.307-.62.448-1.203 1.167-1.886 1.339-3.77 1.093-7.572 2.052-11.854 3.182 1.339-3.219 2.334-5.99 3.6-8.594.853-1.854 2.296-3.224 4.864-3.906-1.339 1.646-2.469 2.911-3.39 4.281-.928 1.37-1.85 2.807-2.194 4.865 3.667-.516 7.058-.995 10.48-1.474Zm-1.235-5.344c.276.276.552.547.823.854-.068.073-.172.141-.24.24-.27-.271-.546-.578-.854-.854.105-.068.172-.136.271-.24Z" fill="#EFCF50"/><path d="M58.704 120.677c0 .135 0 .24.031.38-1.953.271-3.87.547-6.234.891.343-.964.479-1.443.65-1.886 1.886.204 3.735.412 5.553.615Zm-4.354-12.979 1.75 3.802c-.172.068-.308.135-.48.203-2.364-4.073-5.312-7.948-5.484-12.948.172-.067.38-.135.552-.203.24.818.375 1.677.682 2.464.959 2.229 1.99 4.453 2.98 6.682Zm-11.094 1.573c3.39 1.099 6.302 3.495 10.203 3.015-2.427 1.917-5 .995-7.464.443-2.26-.479-4.421-1.37-6.645-2.088 3.083-5.516 3.083-5.516 9.692-8.87.344 1.062.276 1.677-.922 2.364-3.463 1.985-3.598 2.329-4.864 5.136Z" fill="#EFCF50"/><path d="M52.673 109.99c-1.953.786-4.484.208-7.26-1.401.583-2.334 2.807-2.605 4.52-3.735.24 1.198-.718 1.469-1.234 2.021-1.265 1.333-1.093 2.052.719 2.5 1.099.271 2.161.411 3.255.615Zm-.65-34.594c-.787.614-1.063 1.062-1.334 1.062-1.406-.067-2.807-.307-4.214-.276-.86 0-1.953.104-2.468.615-.339.344-.068 1.646.312 2.266 1.094 1.88 2.396 3.63 3.698 5.546-1.917-.411-3.36-1.37-4.214-3.046-.89-1.782-1.677-3.63-2.64-5.756 3.427-1.578 6.818-1.026 10.86-.411Zm-3.563 22.4c-.24.345-.48.787-.855 1.063-.208.172-.65.136-.958.068-3.87-.995-7.812-1.885-10.823-5.14 1.677-2.157 3.558-3.459 6.198-3.902 1.85-.307 3.63-1.198 5.516-1.849.578.959.443 1.641-.412 1.954a22.072 22.072 0 0 1-3.63.921c-1.99.276-3.427 1.198-4.354 3.151 3.083 1.235 6.062 2.433 9.318 3.735Z" fill="#EFCF50"/><path d="M46.475 78.099c.104.38.24.755.343 1.135-.104.068-.24.1-.343.167-.209-.375-.38-.719-.584-1.094.203-.067.375-.135.584-.208ZM44.657 92.25c-.031.89-.031 1.61-.068 2.568-.922-.48-1.812-.959-3.083-1.61 1.302-.411 2.193-.687 3.15-.958Z" fill="#EFCF50"/><path d="M67.12 85.917c-1.848-2.183-2.306-6.683-.395-8.912-1.542-.104-3.948 3.068-4.224 4.302-.411 1.953 2.797 3.985 4.62 4.61Zm4.365-1.344c1.282-.328 1.985-.578 2.297-1.583.521-1.677.084-4.105-.776-4.813-1.484-1.245-3.781-.432-4.807-.088-1.339.448-2.422 4.036-.328 6.213-.037-1.146.25-2.23.734-3.031.51-.85 1.245-1.39 2.052-1.37 1.63.37 1.724 1.234 1.75 1.89-.088 1.11 0 1.615-.922 2.782Zm1.97 1.76c2.718-1.073 4.926-4.39 5.26-6.453-1.438-3.192-3.438-3.791-4.99-3.406 1.49 2.365 1.849 3.766 1.672 5.02-.328 1.761-1.016 4.095-1.943 4.84Zm4.431-9.656c1.573 1.27 2.5 3.016 1.13 5.037-.994 1.442-2.02 2.88-3.15 4.25-1.886 2.192-4.177 2.875-6.99 1.78-1.542-.582-3.151-.859-4.656-1.78-4.865-3.052-2.912-6.579.031-9.146 2.161-1.886 4.901-1.917 7.677-2.089 1.984.443 4.177.547 5.958 1.948Zm30.204 9.427c1.848-2.182 2.312-6.682.395-8.911 1.542-.104 3.948 3.067 4.224 4.302.412 1.953-2.797 3.979-4.619 4.61Zm-4.365-1.344c-1.281-.333-1.984-.578-2.297-1.583-.521-1.677-.078-4.104.776-4.812 1.484-1.25 3.781-.433 4.807-.089 1.339.448 2.422 4.031.334 6.214.031-1.151-.255-2.23-.74-3.037-.51-.844-1.245-1.385-2.052-1.37-1.63.375-1.724 1.24-1.75 1.896.089 1.104 0 1.615.922 2.781Zm-1.969 1.76c-2.719-1.072-4.927-4.39-5.26-6.452 1.437-3.198 3.437-3.792 4.989-3.406-1.49 2.359-1.849 3.765-1.671 5.02.328 1.76 1.015 4.094 1.942 4.839Zm-4.432-9.655c-1.573 1.27-2.5 3.015-1.13 5.036.995 1.438 2.02 2.88 3.15 4.245 1.886 2.193 4.183 2.88 6.99 1.781 1.542-.578 3.151-.854 4.657-1.781 4.864-3.047 2.911-6.573-.032-9.14-2.161-1.886-4.901-1.923-7.672-2.094-1.989.447-4.182.552-5.963 1.953Z" fill="#1A3151"/></g><defs><clipPath id="Group 7__a"><path fill="white" d="M0 0h181v181.417H0z"/></clipPath></defs></svg>