<svg width="181" height="181" fill="none" xmlns="http://www.w3.org/2000/svg"><g clip-path="url(#Group 1__a)"><path fill="white" d="M0 0h181v181H0z"/><mask id="Group 1__b" style="mask-type:luminance" maskUnits="userSpaceOnUse" x="0" y="0" width="182" height="182"><path d="M0 0h181.417v181.417H0V0Z" fill="white"/></mask><g mask="url(#Group 1__b)"><path d="M0 181.417h181.417V0H0v181.417Z" fill="#E3E3E4"/></g><mask id="Group 1__c" style="mask-type:luminance" maskUnits="userSpaceOnUse" x="33" y="40" width="111" height="110"><path d="M33.334 40h110.667v109.333H33.334V40Z" fill="white"/></mask><g mask="url(#Group 1__c)"><path d="M59.87 116.88c.277.266.547.547.823.854-.078.068-.171.131-.24.24-.28-.281-.546-.589-.864-.854.104-.078.172-.146.281-.24Zm-.588 3.802c0 .131 0 .24.042.37-1.964.281-3.87.547-6.24.896.344-.964.48-1.443.651-1.88 1.88.198 3.734.401 5.547.614Z" fill="white"/><path d="M56.203 114.547c-1.333 1.641-2.469 2.906-3.39 4.281-.933 1.37-1.855 2.813-2.198 4.865 3.666-.521 7.067-1 10.479-1.479.146.104.281.213.385.317-.625.443-1.198 1.162-1.89 1.334-3.76 1.093-7.563 2.057-11.839 3.187 1.333-3.224 2.318-6 3.583-8.599.87-1.854 2.292-3.224 4.87-3.906Zm12.266 13.359c-.589.412-1 .683-1.417.99-.156-.245-.333-.401-.302-.511.208-.854.583-1.307 1.719-.479Z" fill="white"/><path d="M62.6 132.531c-.13-4.276.589-5.786 3.36-6.719-.651 1.881-1.224 3.599-2.052 5.959 1.573-.61 2.573-1.026 3.838-1.531-1.61 2.015-3.01 2.599-5.146 2.291Z" fill="white"/><path d="M63.495 125.161c-2.468 2.771-1.838 6.24-2.64 9.933 2.786-.99 4.974-1.88 7.067-3.188a26.062 26.062 0 0 0 2.704-1.838c1.604-1.24 3.083-1.068 4.724.505-.964.828-1.855 1.719-2.844 2.443-1.985 1.437-4.104 2.489-6.547 3.036-2.12.479-4.146 1.333-6.464 2.136-.958-5.521-.171-10.323 3.974-14.948.026 1.041.266 1.682.026 1.921Zm18.839 9.933c-.651-2.974-.651-2.974 1.547-2.776-.547 1-1.068 1.896-1.547 2.776Z" fill="white"/><path d="M81.411 137.948c2.23-.76 3.084-2.813 3.521-4.453.48-1.589 1.177-1.682 2.334-1.854.416 2.906-2.49 6.333-6.855 8.052-1.052-2.308-1.463-4.667-1.265-7.198.067-.787.349-1.266 1.573-.724-.61 2.203-.24 4.187.692 6.177Z" fill="white"/><path d="M77.684 130.505c.547 4.417 1.026 8.297 1.531 12.297 2.068-.333 3.12-1.922 4.453-3.151 1.307-1.156 2.682-2.333 3.776-3.693 1.026-1.343 1.745-2.942 2.813-4.291-.896 6.786-5.146 11.135-10.76 14.494-.204-.239-.683-.588-.829-1.026-1.505-4.281-3.104-8.562-1.839-13.255.094-.453.506-.828.855-1.375Zm17.224.964c.718 1.198 1.333 2.505 1.99 3.771-1.027-.891-2.058-1.745-3.016-2.709-.198-.239-.042-.864-.068-1.265.375.026.964 0 1.094.203Zm7.776-2.427c.276 1.291.479 2.224.76 3.427-2.094-1.724-2.161-1.99-.76-3.427Zm-4.896 3.187c1.375 1.464 2.536 3.344 5.068 3.276l.52-1.531c.308 1.427 1.053 2.865.162 4.453-2.537-1.588-4.547-3.505-5.99-6.042-.307-.479-.65-.984-1.067-1.64 1.442-.026 1.177.854 1.307 1.484Z" fill="white"/><path d="M104.256 140.958c.89-1.744 1.573-3.01.958-4.76-.333-.958-.026-2.13-.094-3.224-.078-.615-.411-1.266-.411-1.88-.042-1.026-.958-2.292.615-2.99 2.666 5.307 2.729 10.656.744 16.417-4.135-1.99-7.53-4.563-9-9.083.506.348 1.136.588 1.615.963 1.812 1.438 3.625 2.948 5.573 4.557Zm10.239-18.812c1.678 1.896 3.907 3.469 3.188 6.922a802.218 802.218 0 0 1-6.948-3.214c.615-1.375 1.266-1.786 2.359-.958.719.573 1.401 1.156 2.198 1.812 1.162-.442 1.334-1.093.401-1.948-.401-.411-.984-.588-1.437-.932-.375-.307-.266-.828.239-1.682Z" fill="white"/><path d="M117.137 119.479c3.557 3.563 4.427 7.948 5.239 12.427-5.812.761-12.229-1.401-14.083-5.64 2.094 1.119 3.734 2.187 5.562 2.932 1.709.724 3.521 1.521 5.438 1.068 1.375-2.641-1.063-4.651-.651-6.917-.891-.818-1.745-1.578-2.667-2.427.375-.484.719-.896 1.162-1.443Zm5.932-9.495c2.359 1.11 4.172 2.776 4.828 5.589-2.989.786-5.828.375-7.12-1.401 1.532.068 2.625.094 3.823.135.308-1.948-3.489-1.786-1.531-4.323Z" fill="white"/><path d="M124.188 106.974c4.557 1.922 6.787 5.625 8.427 9.865-3.078 1.88-6.359 2.093-9.828 1.203 1.573-.177 3.188-.282 4.734-.521 1.12-.162 2.188-.573 2.495-1.813.276-1.026-.416-1.708-1.026-2.562-1.375-1.854-2.578-3.709-4.724-4.735-.172-.062-.317-.369-.385-.609-.026-.135.109-.307.307-.828Zm2.469-8.146c1.37-.135 2.771-.213 4.318-.349.213-.854.349-1.505-1.198-1.437-1.818.036-3.042-1.162-4-2.563 4.276-.52 6.291.787 7.974 4.922-1.094.453-2.188 1.104-3.365 1.344-.917.177-1.943-.063-3.104.307-.453-.453-.896-.891-1.828-1.812.562-.214.87-.386 1.203-.412Z" fill="white"/><path d="M136.521 96.77c-.651-.036-1.292-.036-2.053-.062-1.203-3.4-4.723-3.427-7.333-5.145.625 0 1.344-.204 1.891 0 1.401.541 2.734 1.265 4.067 1.958 1.198.573 2.334 1.333 3.573 1.77 1.948.761 2.776 1.48 3.563 3.641-2.573 1.401-5.109 2.776-7.641 4.172-2.052 1.136-4.146 1.578-6.656.068 2.161-.438 4.057-.583 5.76-1.224 1.787-.656 3.386-1.786 5.11-2.708-.11-.959-.214-1.677-.281-2.47Zm-2.771-17.786c-.417 1.896-2.058 2.47-2.974 3.667-.391.484-1.11.698-1.656 1.031-1.224.755-2.079.584-3.735-.963 1.547-.438 2.776-.813 4.188-1.224-.719-1.573-3.078-.76-3.224-2.99 2.437-.307 4.797 1 7.401.48Zm3.729-.718c.177.145.547.416.963.718-2.119 3.605-4.895 6.204-9.083 7.271 2.682-2.604 5.323-5.24 8.12-7.99Zm-10.651-1.907c2.677-1.13 5.344-1.265 8.12.375-1.506 1.641-2.813.198-4.11.105-1.333-.105-2.703-.172-4.01-.48Zm-3.693-4.213c2.36-2.375 4.865-4.557 5.985-7.948.416.068.828.068 1.203.161.385.146.718.412 1.411.803-2.922 2.463-5 5.572-8.599 6.984Zm3.281-8.6c-1.27 1.053-2.494 1.053-3.63-.108 1.203.041 2.401.067 3.63.109Zm-.244 3.522c-.917.692-1.839 1.344-2.73 1.984-.109-.068-.203-.13-.349-.198.24-.349.48-.682.855-1.203-.615-.505-1.266-1.026-1.813-1.505 1.13.041 2.333.068 3.531.11.172.265.349.546.506.812Zm-9.584-18.36c.828 4.73 1.547 9.01-.505 13.224.156-1.745.479-3.53.438-5.307-.068-1.786-.438-3.557-.719-5.693-1.203.589-2.334 1.11-3.427 1.615-.959 1.812-1.922 3.599-2.948 5.547-.412-2.735.239-4.068 2.745-5.745 1.333-1.094 2.666-2.203 4.416-3.64Z" fill="white"/><path d="M111.521 59.36c.307-2.12.589-3.865 2.735-5.334.145 1.573.213 2.667.317 3.974-.651-.281-1.104-.453-1.677-.693-.417.615-.786 1.198-1.375 2.052Zm-15.76-4.521c-.719-4.693 3.229-10.105 7.854-10.61.026 1.505-.042 2.969.094 4.453.172 1.505.583 2.943.89 4.48-1.265-1.297-1.916-3.042-1.916-4.787 0-1.24-.068-2.51-1.922-2.682-.985 1.375-2.188 2.776-3.078 4.385-.829 1.484-1.266 3.162-1.922 4.76Z" fill="white"/><path d="M99.016 56.563c-1.4-2.88-.786-5.282 1.677-7.615.964 2.64 1.855 5.036 2.75 7.463-.963.563-1.614.589-1.854-.479-.203-.745-.203-1.53-.479-2.213-.135-.386-.724-.625-1.333-1.104-.308 1.614-.547 2.77-.76 3.947Zm-10.24-3.084c-.176.136-.348.266-.51.401-.276-.375-.547-.745-.823-1.094.105-.104.198-.197.308-.265.343.307.677.64 1.026.958Z" fill="white"/><path d="M85.257 53.786c-.896-1.984-.35-4.52 1.463-7.197.828.718 1.573 1.395 2.365 2.093 1.984 1.505 2.916 3.052 3.224 5.787-1.547-1.854-3.162-3.297-3.735-5.485-1.067.11-1.89.417-2.156 1.641-.245 1.026-.724 1.99-1.162 3.161Zm-6 1.12c.614.48 1.025 1.24 1.614 1.959-.453.307-.698.546-.963.682-.37.172-.787.24-1.266.375-.48-.854-.48-1.75-1.682-2.214-1.875-.802-3.464-2.27-5.172-3.51-1.266-.88-2.188-.787-2.703.63-.443 1.156-.615 2.427-.76 3.667-.095.916.036 1.838.077 2.734-1.349-1.75-1.682-2.844-1.24-4.896.282-1.265.787-2.505 1.266-3.906 3.776 1.266 7.641 2.052 10.829 4.48Z" fill="white"/><path d="M74.324 56.52c.651.548 1.24 1.095 1.026 2.334a114.583 114.583 0 0 1-3.76-2.443c-1.35 1 .307 2.271-.386 3.297-1.161-.895-1.682-2.161-1.64-3.536 0-.61.52-1.36 1.026-1.813.24-.198 1.094.172 1.547.453.786.506 1.463 1.12 2.187 1.709ZM52.668 70.053c-.198-1.917-.401-3.838-.573-5.76-.068-.813-.042-1.677-.068-2.464 2.6-2.36 8.828-1.094 12.537 1.651-1.818.375-3.39.266-4.974-.146-.964-.24-1.906-.614-2.844-.922-1.984-.677-3.25.24-3.12 2.334.151 2.083.35 4.15.563 6.333-.932.24-1.412-.13-1.521-1.026Zm-5.615 8.052c.11.375.24.75.35 1.125-.11.078-.24.104-.35.172-.197-.375-.37-.719-.572-1.094.203-.067.374-.135.572-.203Z" fill="white"/><path d="M48.6 84.615c-1.916-.417-3.36-1.375-4.213-3.052-.89-1.792-1.677-3.63-2.64-5.76 3.426-1.574 6.817-1.032 10.853-.402-.786.615-1.052 1.052-1.333 1.052-1.396-.068-2.797-.307-4.214-.266-.849 0-1.942.094-2.463.615-.334.344-.068 1.635.307 2.266 1.104 1.88 2.396 3.625 3.703 5.547Zm-6.505 8.599a84.58 84.58 0 0 1 3.146-.959c-.037.88-.037 1.6-.068 2.558-.916-.48-1.812-.959-3.078-1.6Z" fill="white"/><path d="M39.72 94.068c3.094 1.224 6.068 2.427 9.323 3.734-.24.333-.48.787-.854 1.052-.198.172-.651.146-.959.078-3.87-1-7.812-1.89-10.828-5.145 1.683-2.162 3.558-3.454 6.198-3.907 1.854-.307 3.64-1.198 5.521-1.838.573.958.443 1.64-.411 1.942a20.543 20.543 0 0 1-3.625.922c-1.99.281-3.427 1.198-4.365 3.162Zm.214 16.573c3.083-5.506 3.083-5.506 9.692-8.87.35 1.057.271 1.682-.932 2.364-3.453 1.985-3.583 2.334-4.854 5.131 3.39 1.109 6.297 3.494 10.203 3.015-2.427 1.917-5 1-7.469.453-2.25-.479-4.411-1.375-6.64-2.093Z" fill="white"/><path d="M46 108.589c.573-2.334 2.802-2.605 4.52-3.735.24 1.198-.718 1.464-1.239 2.026-1.265 1.334-1.093 2.052.719 2.495 1.094.276 2.161.411 3.255.609-1.948.787-4.479.214-7.255-1.395Zm5.958-7.573c.948 2.224 1.99 4.453 2.974 6.677.589 1.265 1.162 2.536 1.75 3.802-.177.068-.307.146-.479.213-2.364-4.083-5.307-7.948-5.484-12.948.177-.067.375-.145.547-.213.24.828.375 1.682.692 2.469Zm72.709-12.162c.078 4.797.041 9.625-1.198 14.36-1.641 6.291-4.547 12.015-8.974 16.77-1.88 2.068-4 4.016-6.906 5.177-2.334.891-4.631 2.094-7.068 2.61-3.563.818-7.078 1.844-10.854 2.057-1.745.094-3.771-.39-5.521.787-.334.239-1.094-.068-1.64-.24-2.428-.786-4.933-1.443-7.428-2.026-3.12-.75-6.24-2.188-8.875-4.307-1.469-1.203-2.802-2.547-4.177-3.813a2.09 2.09 0 0 0 .266-.484c4.734 4.187 10.63 5.76 16.442 7.333 4.454 1.203 9.079 1.307 13.745.453 4.11-.76 8.042-1.916 11.709-3.812 1.718-.88 3.291-2.078 4.864-3.214 5.589-4.01 8.495-9.823 10.964-16a275.36 275.36 0 0 1 1.984-4.89c.547-1.308 1.203-2.47.682-4.016-.203-.615-.401-1.839.761-2.386.172-.078.265-.76.172-.895-1.204-1.24-.375-2.531-.349-3.839 0-3.838-.026-7.666-1.985-11.24-.896-1.572-1.505-3.343-2.187-5.067-1-2.531-2.615-4.651-4.36-6.703-1.64-1.99-3.802-3.12-6.093-3.844-3.188-1.026-6.401-1.984-9.865-2.052-2.255-.042-4.52-.344-6.776-.547-3.974-.307-7.854.307-11.651 1.469-2.162.693-4.417 1.026-6.573 1.61-.786.202-1.51.723-2.27 1.067-2.49 1.094-5.063 2.083-7.558 3.255-.693.307-1.24.984-1.787 1.573-1.75 1.77-3.734 3.385-5.135 5.412-1.48 2.187-2.464 4.76-3.531 7.229-1.854 4.307-2.667 8.864-2.735 13.599-.041-.48 0-.959-.104-1.412-.135-.547-.484-1.057-.614-1.599-.417-1.588-.63-3.125.067-4.698.302-.797.37-1.65.61-2.437 1.708-6.136 4.416-11.745 9.11-16.136 1.197-1.13 2.744-1.88 4.145-2.77 5.786-3.693 11.984-6.094 18.906-6.47.959-.036 1.922-.557 2.88-.624 2.948-.198 5.933-.64 8.839-.266 3.974.48 8.12.068 11.88 1.745 3.401 1.505 6.787 2.948 9.802 5.172 2.427 1.817 3.865 4.15 4.558 7.015.307 1.308.51 2.677 1.057 3.88 2.052 4.172 2.703 8.667 2.771 13.214Z" fill="white"/><path d="M84.256 101.802c-1.99 1.505-2.776-.333-4.016-1.333.802-1.537 1.657-2.88 3.907-2.906.041 1.609.067 2.906.109 4.239Zm8.385-4.854c2.068.094 2.813.547 2.985 1.745.203 1.401-.61 2.536-2.422 3.078-.177-1.651-.39-3.224-.563-4.823Z" fill="white"/><path d="M104.229 108.589c.131 1.437.37 2.88.573 4.479 1.198-1.401 1.266-3.11.933-4.854-.068-.349-.828-.547-1.266-.829-.068.417-.281.829-.24 1.204Zm-8.734 16.958a44.23 44.23 0 0 1-5.52.958c-4.386.469-8.495-.276-12.6-1.437-2.333-.656-4.63-1.479-6.922-2.297-4.078-1.479-7.4-4.146-9.734-7.719-2.974-4.547-5.719-9.281-7.531-14.479-1.854-5.375-1.443-10.786.307-16.104a60.11 60.11 0 0 1 2.64-6.51c2.292-4.761 5.678-8.626 10.308-11.157 3.078-1.724 6.302-3.187 9.865-3.776 3.145-.547 6.265-1.333 9.453-1.745 2.812-.375 5.692-.333 8.562-.51 3.73.135 7.334.682 10.865 1.708 1.161.35 2.318.719 3.495 1.172 1.838.708 3.489 1.818 4.932 3.349 3.385 3.734 5.437 8.162 7.052 12.745 1.375 3.87 1.443 7.948 1.094 12.026-.745 8.349-4.104 15.792-8.558 22.708-1.416 2.229-3.666 3.974-5.76 5.615-3.604 2.838-7.64 4.495-11.948 5.453Zm-.656-2.682c-.37-2.011-1.745-2.318-3.146-2.558-.958-.172-2.026-.109-2.948-.453-.385-.135-.719-.203-1.026-.203-1.13 0-1.958.818-2.88 1.776 1.031.042 2.016.172 3.016.068 1.984-.162 3.838-.094 5.479 1.198.265.239.854.109 1.505.172Zm-5.516-6.61c1.959 1.412 4.12.761 6.266.453 1.958-.239 3.187-1.416 4.187-2.948.547-.854 1.026-1.812 1.464-2.744.417-.854 0-1.683-.958-1.948-1.094-.308-2.188-.787-3.323-.964-3.079-.479-6.224-1.437-9.01.828a6.832 6.832 0 0 1-.71-.453c-1.103-.719-1.718-1.094-2.265-1.094-.65 0-1.161.521-2.161 1.573-.985 1.026-1.88 2.094-3.318 2.573-1 .308-1.854.922-3.016 1.537 1.162.864 1.922 1.344 2.573 1.916 2.667 2.469 4.922 3.23 7.802 2.334.787-.276 1.573-.61 2.47-1.063Zm8.584-39.39c-1.573 1.27-2.506 3.015-1.13 5.041 1 1.427 2.025 2.865 3.156 4.24 1.88 2.203 4.177 2.88 6.989 1.786 1.531-.583 3.146-.854 4.651-1.786 4.87-3.042 2.906-6.573-.036-9.146-2.151-1.88-4.896-1.922-7.667-2.078-1.989.437-4.177.547-5.963 1.943Zm-13.829.922c0 2.307-.13 4.598-.198 6.854-.041 1.265-.135 2.53-.104 3.796.037 2.579.13 5.178.24 8.032-2.401-.63-3.297 1.094-4.417 2.25-1.172 1.161-.958 2.333.271 3.495.61.546 1.24 1.093 1.89 1.682 1.667-.547 3.016-.521 4.443.786.146.105.276.24.454.302 1.088.615 2.573.375 3.864-.239 1.266-.61 2.531-1.266 3.802-1.88 1.677-.823 2.464-1.985 2.573-3.933.13-2.067-1.443-2.547-2.427-3.505-1.417-1.36-2.443-2.734-1.786-4.854.276-.76.37-1.745.104-2.505-.89-2.495-.651-5-.172-7.427.344-1.683-.135-3.401.89-5 1.922-2.99 4.725-4.427 8.12-4.974 1.427-.24 2.912-.48 4.724-.787-.547-.588-.854-1.198-1.161-1.198-.172 0-.349-.03-.521-.03-1.333-.105-2.839-.345-3.797.244-1.203.719-2.427.677-3.562 1.182-.48.177-1.068.151-1.412.453-2.734 2.255-4.786 4.896-4.724 8.776.11 4.891.042 9.76.068 14.651.042.855.172 1.683.213 2.537.094 2.12-.078 4.213-.958 6.198-.52 1.135-1.172 1.401-2.4 1.067-1.095-.348-1.892-.786-2.027-1.958-.375-3.042-.854-6.094-.922-9.15-.13-4.933-.104-9.85.203-14.756.146-2.802-.922-4.656-3.187-5.922-.854-.48-2.016-.453-2.87-.896-2.677-1.396-5.453-.89-8.182-.479-.724.068-1.547.203-1.485 1.547 1.032-.146 2.032-.344 2.99-.344 1.4.026 2.838.104 4.213.37 1.224.24 2.427.724 3.625 1.094 2.495.76 3.6 2.026 3.625 4.52Zm-10.437 37.307c-.693-1.375-1.136-2.641.505-3.735.281-.171.214-.854.307-1.333-1.838-.042-2.25 1.203-2.53 2.401-.334 1.641.582 2.708 2.093 3.386-.136-.24-.281-.48-.375-.719Zm5.958-33.375c1.375-2.026.443-3.771-1.13-5.037-1.786-1.4-3.974-1.51-5.963-1.948-2.771.162-5.516.198-7.667 2.079-2.943 2.572-4.906 6.109-.037 9.145 1.506.938 3.12 1.204 4.651 1.787 2.813 1.094 5.11.416 6.99-1.787 1.13-1.37 2.156-2.796 3.156-4.24Z" fill="white"/><path d="M105.734 108.214c.334 1.744.266 3.453-.932 4.854-.203-1.599-.443-3.042-.573-4.479-.042-.375.172-.787.24-1.204.437.282 1.198.48 1.265.829Zm3.334-31.026c1.922 2.24 1.453 6.734-.401 8.916 1.828-.625 5.041-2.666 4.625-4.61-.276-1.239-2.677-4.4-4.224-4.306Zm-1.146 7.307c2.094-2.188 1.01-5.776-.323-6.214-1.026-.349-3.333-1.161-4.813.078-.854.709-1.291 3.146-.77 4.813.307 1.016 1.01 1.255 2.291 1.588-.922-1.161-.838-1.682-.922-2.776.032-.666.12-1.53 1.75-1.906.813-.01 1.547.537 2.052 1.375.48.802.771 1.896.735 3.042Zm-7.521-2.813c-.188-1.255.172-2.656 1.667-5.015-1.547-.386-3.547.198-4.985 3.4.334 2.068 2.532 5.37 5.25 6.454-.916-.75-1.614-3.084-1.932-4.839ZM111.536 77c2.943 2.573 4.907 6.104.037 9.146-1.505.932-3.12 1.203-4.651 1.786-2.813 1.094-5.11.417-6.99-1.786-1.13-1.375-2.156-2.813-3.156-4.24-1.375-2.026-.443-3.77 1.13-5.041 1.787-1.396 3.974-1.506 5.964-1.943 2.771.156 5.515.198 7.666 2.078Zm-18.203 45.693c-1.64-1.292-3.495-1.36-5.479-1.198-1 .104-1.984-.026-3.016-.068.922-.958 1.75-1.776 2.88-1.776.308 0 .641.068 1.027.203.922.344 1.99.281 2.948.453 1.4.24 2.776.547 3.145 2.558-.65-.063-1.24.067-1.505-.172Zm1.443-7.12c1.531-.479 3.385-.677 3.557-2.906-5.411-.386-5.411-.386-8.599 1.505 1.266 1.844 3.12 1.948 5.042 1.401Zm-10.938-3.359a57.431 57.431 0 0 1 2.204-1.292c.4.266.718.479 1.026.677.135-1.266-.787-1.615-1.922-2.188a55.594 55.594 0 0 1-1.677 2.495c.13.11.24.214.37.308Zm11.75 4.494c-2.145.308-4.307.959-6.265-.453-.896.453-1.682.787-2.469 1.063-2.88.896-5.135.135-7.802-2.334-.651-.573-1.411-1.052-2.573-1.916 1.162-.615 2.016-1.229 3.016-1.537 1.437-.479 2.333-1.547 3.317-2.573 1-1.052 1.51-1.573 2.162-1.573.547 0 1.161.375 2.266 1.094.203.146.4.281.708.453 2.786-2.265 5.932-1.307 9.01-.828 1.136.177 2.23.656 3.323.964.959.265 1.375 1.093.959 1.948-.438.932-.917 1.89-1.464 2.744-1 1.532-2.23 2.709-4.188 2.948Zm-7.083-2.119c-1.062-.521-2.13-1-3.291-1.547-1.376.437-2.88.916-4.797 1.573 5.317 2.359 6.437 2.291 8.088-.026Zm9.417-3.709c-.589-.375-1.094-.922-1.75-1.094-2.6-.588-5.412-1.88-7.292 1.532-.213.323-1.094.245-1.719.39.282.334.558.855.787.855 1.068-.136 2.266-.245 3.094-.829 1.359-.989 2.77-1.026 4.28-.75.787.11 1.574.245 2.397.375.067-.171.135-.343.203-.479Zm-10.787.828c0-.041 0-.041-.041-.067h-.026v.067h.067Zm-12.99-.349c-1.64 1.094-1.197 2.36-.504 3.735.093.239.24.479.375.719-1.51-.678-2.428-1.745-2.094-3.386.281-1.198.693-2.443 2.531-2.401-.094.479-.026 1.162-.307 1.333Z" fill="#1A3151"/><path d="M94.47 95.427c.984.958 2.557 1.438 2.427 3.505-.11 1.948-.896 3.11-2.573 3.933-1.27.614-2.536 1.27-3.802 1.88-1.291.614-2.77.854-3.864.239-.177-.062-.308-.198-.454-.302-1.427-1.307-2.775-1.333-4.442-.786-.651-.589-1.281-1.136-1.89-1.682-1.23-1.162-1.444-2.334-.272-3.495 1.12-1.156 2.016-2.88 4.417-2.25-.11-2.854-.203-5.453-.24-8.031-.026-1.266.063-2.532.105-3.797.067-2.256.203-4.547.203-6.855-.031-2.494-1.136-3.76-3.63-4.52-1.198-.37-2.401-.855-3.626-1.094-1.374-.266-2.812-.344-4.213-.37-.958 0-1.958.198-2.99.344-.062-1.344.76-1.48 1.485-1.547 2.729-.412 5.505-.917 8.182.48.854.442 2.016.416 2.87.895 2.266 1.266 3.333 3.12 3.187 5.922-.307 4.906-.333 9.823-.203 14.755.068 3.057.547 6.11.922 9.151.135 1.172.932 1.609 2.026 1.958 1.23.334 1.88.068 2.401-1.067.88-1.985 1.052-4.078.959-6.198-.037-.854-.172-1.683-.214-2.537-.026-4.89.042-9.76-.068-14.65-.062-3.88 1.99-6.522 4.724-8.777.344-.302.932-.276 1.412-.453 1.135-.505 2.36-.463 3.562-1.182.959-.589 2.464-.35 3.797-.245.172 0 .349.031.521.031.307 0 .614.61 1.161 1.198-1.812.308-3.297.547-4.724.787-3.395.546-6.198 1.984-8.12 4.974-1.025 1.599-.546 3.317-.89 5-.48 2.427-.719 4.932.172 7.427.266.76.172 1.745-.104 2.505-.657 2.12.37 3.495 1.786 4.854Zm-1.828 1.52c.172 1.6.385 3.173.563 4.824 1.812-.542 2.624-1.677 2.421-3.078-.172-1.198-.916-1.651-2.984-1.745Zm-12.401 3.522c1.24 1 2.026 2.838 4.016 1.333-.042-1.333-.068-2.63-.11-4.24-2.25.026-3.104 1.37-3.906 2.907Z" fill="#1A3151"/><path d="M79.291 79.88c-1.437-3.198-3.437-3.786-4.984-3.4 1.495 2.358 1.854 3.76 1.667 5.015-.318 1.76-1.016 4.093-1.933 4.838 2.72-1.078 4.917-4.385 5.25-6.453Zm-10.838 4.427c-.037-1.145.255-2.24.734-3.041.505-.839 1.24-1.386 2.052-1.37 1.63.37 1.719 1.24 1.75 1.906-.083 1.094 0 1.61-.922 2.77 1.282-.332 1.985-.572 2.292-1.588.52-1.666.083-4.104-.77-4.812-1.48-1.24-3.787-.427-4.813-.078-1.334.437-2.417 4.026-.323 6.213Zm7.99 1.651c-1.88 2.204-4.178 2.88-6.99 1.787-1.531-.584-3.146-.85-4.651-1.787-4.87-3.036-2.907-6.573.036-9.145 2.151-1.88 4.896-1.917 7.667-2.079 1.99.438 4.177.547 5.963 1.948 1.573 1.266 2.506 3.01 1.13 5.037-1 1.443-2.025 2.87-3.156 4.24Zm-8.735-.036c-1.854-2.188-2.307-6.682-.401-8.922-1.547-.094-3.948 3.068-4.224 4.307-.417 1.948 2.797 3.985 4.625 4.615Z" fill="#1A3151"/><mask id="Group 1__d" style="mask-type:luminance" maskUnits="userSpaceOnUse" x="34" y="41" width="109" height="108"><path d="M34.24 41.042h108.49v107.521H34.24V41.042Z" fill="white"/></mask><g mask="url(#Group 1__d)"><path d="M134.949 76.734c-2.776-1.64-5.443-1.505-8.12-.375 1.307.308 2.677.375 4.01.48 1.297.093 2.604 1.536 4.11-.105Zm1.854 22.506c-1.719.921-3.323 2.052-5.11 2.708-1.703.641-3.599.786-5.76 1.224 2.51 1.51 4.604 1.068 6.656-.068 2.531-1.396 5.068-2.771 7.641-4.172-.787-2.161-1.615-2.88-3.563-3.64-1.239-.438-2.375-1.198-3.573-1.771-1.333-.693-2.666-1.417-4.067-1.959-.547-.203-1.266 0-1.891 0 2.615 1.72 6.13 1.745 7.333 5.146.761.026 1.401.026 2.052.063.068.791.172 1.51.282 2.469Zm4.239-20.521c-.989 1.297-1.812 2.469-2.708 3.599-1.745 2.297-4.24 3.52-6.708 4.786-1.089.589-2.12 1.271-3.224 1.922 3.494 1.787 6.786 3.386 10.015 5.11a18.686 18.686 0 0 1 3.558 2.395c1.161.964.958 3.281-.454 3.87-4.614 1.854-8.692 4.932-14.145 5.547 1.104 1.198 1.916 2.266 2.916 3.156 1.271 1.125 1.948 2.495 2.469 4.042.375 1.161.813 2.292 2.359 2.015-.036 2.532-.036 2.532-2.026 3.25-3.255 1.204-6.531 2.162-10.093 1.094-.761-.198-1.615-.067-2.745-.094a498.259 498.259 0 0 0 2.599 7.881c.349 1.026.76 2.015 1.135 3.015.761 1.881-.041 3.146-2.094 3.188-3.692.068-7.401-.146-10.723-2.203-1.053-.651-2.224-1.052-3.422-1.641 1.265 7.094.755 14.255-1.297 17.229-3.641-2.291-7.334-4.453-9.521-8.385-1.917-3.401-2.333-3.88-4.974-5.11-1.156 2.188-2.292 4.454-3.49 6.641-.442.787-1.026 1.573-1.708 2.162-2.375 2.119-4.802 4.145-7.375 6.375-3.213-4.735-4.453-10.042-3.906-15.829-2.25 1.162-4.344 2.36-6.505 3.427-1.198.584-2.532.891-3.802 1.37-1.943.75-3.907 1.511-5.85 2.255-.374.172-.76.282-1.4.521-.214-5.213.026-10.067 1.88-14.838-4.906.557-9.386 2.396-14.6 2.849 2.704-4.516 3.12-9.693 7.303-13.464-5.48.375-9.906-2.015-14.865-3.625 1.12-2.203 2.776-3.974 4.11-5.963 1.37-2.094 4.01-2.334 5.89-3.974-1.614-1.308-3.494-1.677-5.307-2.198-2.745-.787-5.042-2.323-7.162-4.172-.385-.35-.609-.922-.932-1.401 3.334-4.146 8.36-4.6 12.922-6.505-.547-.63-.854-1.245-1.375-1.547-1.463-.922-2.094-2.401-2.88-3.776-1.156-2.052-2.188-4.172-3.318-6.36.651-1.041 1.573-1.588 3.052-1.614 2.907-.037 5.828-.307 8.907-.521.026-.505.135-1.224.067-1.943-.349-2.922-.786-5.828-1.093-8.776-.308-3.041.197-3.495 3.213-3.318.922.037 1.854-.135 2.77-.203 2.777-.213 5.178 1.12 7.683 1.99.48.13.959.198 1.6.37.348-4.584-.678-9.276 2.067-13.6 1.291.48 2.666.99 4.041 1.511 1.573.584 3.214.959 4.693 1.703 1.438.76 2.771 1.828 4.104 2.787.589.4 1.136.854 1.88 1.427.11-.677.24-.985.214-1.292-.385-3.291 1.12-6.094 2.23-9.015.37-.985 1.12-1.157 2.145-.61 2.88 1.573 4.974 3.839 6.375 7.224 2.813-4.411 5.146-9.042 10.693-10.411 1.916 1.13 1.745 1.093 1.437 3.12-.521 3.145-.521 6.291 1.162 9.213.172.307.651.438.719.48 2.494-2.095 4.828-4.016 7.161-6 .375-.308.547-.813.917-1.162.614-.589 1.333-1.068 2.161-1.745.828 2.36.896 4.583 1.401 6.64.693 2.745-.026 5.308 0 7.943.042 1.271.412 1.896 1.682 1.922 1.089 0 2.266.35 3.183 0 2.333-.854 4.521-.437 6.547.521 1.026.505 1.64.307 2.494-.24.454.813.865 1.532 1.412 2.532-1.37 1.536-2.703 3.145-4.182 4.63-1.469 1.463-3.11 2.797-4.787 4.302 1.88 1.417 2.943.214 3.823-.24 1.615.454 2.948 1.026 4.323 1.177 1.786.13 3.146.745 4.411 1.985.521.479 1.308.682 2.266.682.24.677.479 1.37.682 1.917Zm-17.573 24.495c1.24-4.735 1.282-9.563 1.198-14.36-.067-4.547-.718-9.041-2.771-13.213-.546-1.204-.75-2.573-1.057-3.88-.693-2.865-2.13-5.198-4.557-7.016-3.016-2.224-6.401-3.667-9.802-5.172-3.761-1.677-7.906-1.266-11.88-1.745-2.907-.375-5.891.068-8.839.266-.958.067-1.922.588-2.88.625-6.922.375-13.12 2.776-18.906 6.468-1.401.891-2.948 1.641-4.146 2.771-4.693 4.391-7.401 10-9.11 16.136-.24.786-.302 1.64-.609 2.437-.693 1.573-.484 3.11-.068 4.698.13.542.48 1.052.615 1.6.104.452.062.931.104 1.41.068-4.734.88-9.291 2.734-13.598 1.068-2.47 2.053-5.042 3.532-7.23 1.4-2.026 3.39-3.64 5.135-5.411.547-.588 1.094-1.266 1.787-1.573 2.494-1.172 5.067-2.161 7.557-3.255.76-.344 1.484-.865 2.27-1.068 2.157-.583 4.412-.916 6.574-1.61 3.797-1.16 7.677-1.775 11.65-1.468 2.256.203 4.522.505 6.777.547 3.463.068 6.677 1.026 9.864 2.052 2.292.724 4.453 1.854 6.094 3.844 1.745 2.052 3.359 4.172 4.359 6.703.683 1.724 1.292 3.495 2.188 5.068 1.958 3.573 1.984 7.4 1.984 11.24-.026 1.306-.849 2.598.349 3.838.094.135 0 .817-.172.896-1.161.546-.963 1.77-.76 2.385.521 1.547-.135 2.708-.682 4.016a275.38 275.38 0 0 0-1.985 4.89c-2.468 6.177-5.375 11.99-10.963 16-1.573 1.136-3.146 2.334-4.865 3.214-3.667 1.896-7.599 3.052-11.708 3.812-4.667.854-9.292.75-13.745-.453-5.813-1.573-11.708-3.146-16.443-7.333a2.09 2.09 0 0 1-.265.484c1.375 1.266 2.708 2.61 4.177 3.813 2.635 2.119 5.755 3.557 8.88 4.307 2.49.583 5 1.24 7.422 2.026.547.172 1.307.479 1.64.24 1.75-1.177 3.776-.693 5.521-.787 3.776-.213 7.292-1.239 10.854-2.057 2.438-.516 4.735-1.719 7.068-2.61 2.906-1.161 5.026-3.109 6.906-5.177 4.428-4.755 7.334-10.479 8.974-16.77Zm14.974-24.23a26.211 26.211 0 0 1-.963-.718c-2.797 2.75-5.438 5.385-8.12 7.99 4.188-1.069 6.964-3.667 9.083-7.272Zm-4.692 20.417c-1.683-4.135-3.698-5.443-7.974-4.922.958 1.401 2.182 2.6 4 2.563 1.547-.068 1.411.583 1.198 1.437-1.547.136-2.948.214-4.318.35-.333.025-.641.197-1.203.41.932.922 1.375 1.36 1.828 1.813 1.161-.37 2.187-.13 3.104-.307 1.177-.24 2.271-.89 3.365-1.344Zm0-20.417c-2.605.521-4.964-.786-7.401-.479.145 2.23 2.505 1.417 3.224 2.99-1.412.411-2.641.786-4.188 1.224 1.656 1.547 2.51 1.719 3.734.963.547-.333 1.266-.547 1.657-1.03.916-1.199 2.557-1.772 2.974-3.668Zm-2.016-13.822c-.693-.391-1.026-.657-1.411-.803-.375-.093-.787-.093-1.204-.161-1.119 3.39-3.625 5.573-5.984 7.948 3.599-1.412 5.677-4.521 8.599-6.984Zm-14.052 63.906c.719-3.453-1.51-5.026-3.188-6.922-.505.854-.614 1.375-.239 1.682.453.344 1.036.521 1.437.932.933.855.761 1.506-.401 1.948-.797-.656-1.479-1.239-2.198-1.812-1.093-.828-1.744-.417-2.359.958a802.218 802.218 0 0 0 6.948 3.214Zm14.932-12.229c-1.64-4.24-3.864-7.943-8.427-9.865-.198.521-.333.693-.307.828.068.24.213.547.385.609 2.151 1.027 3.349 2.881 4.724 4.735.61.854 1.302 1.536 1.026 2.562-.307 1.24-1.375 1.651-2.495 1.813-1.546.239-3.161.344-4.734.521 3.469.89 6.75.677 9.828-1.203Zm-6.442-49.771a24.087 24.087 0 0 0-.506-.813c-1.198-.041-2.401-.067-3.531-.11.547.48 1.198 1 1.813 1.506-.375.52-.615.854-.855 1.203.146.068.24.13.349.198.891-.64 1.813-1.292 2.73-1.984Zm-3.386-3.63c1.136 1.161 2.359 1.161 3.63.109-1.229-.042-2.427-.068-3.63-.11Zm-14.495 62.828c1.854 4.239 8.271 6.401 14.084 5.64-.813-4.479-1.683-8.864-5.24-12.427-.443.547-.786.959-1.161 1.443.921.849 1.776 1.609 2.666 2.427-.411 2.266 2.026 4.276.651 6.917-1.916.453-3.729-.344-5.437-1.068-1.828-.745-3.469-1.813-5.563-2.932Zm12.485-12.094c1.291 1.776 4.13 2.187 7.119 1.401-.656-2.813-2.468-4.479-4.828-5.589-1.958 2.537 1.839 2.375 1.532 4.323-1.198-.041-2.292-.067-3.823-.135Zm.984-22.401c.349-4.078.281-8.156-1.094-12.026-1.614-4.584-3.666-9.01-7.052-12.745-1.442-1.531-3.094-2.64-4.932-3.349a48.137 48.137 0 0 0-3.495-1.172c-3.531-1.026-7.135-1.573-10.864-1.708-2.87.177-5.75.135-8.563.51-3.187.412-6.307 1.198-9.453 1.745-3.557.589-6.787 2.052-9.865 3.776-4.63 2.531-8.015 6.396-10.307 11.156-1 2.094-1.88 4.282-2.64 6.51-1.745 5.319-2.162 10.73-.308 16.105 1.813 5.198 4.563 9.932 7.531 14.479 2.334 3.573 5.657 6.24 9.735 7.719 2.297.818 4.588 1.64 6.922 2.297 4.104 1.161 8.213 1.906 12.599 1.437a44.25 44.25 0 0 0 5.52-.958c4.308-.958 8.344-2.615 11.948-5.453 2.094-1.641 4.344-3.386 5.761-5.615 4.453-6.916 7.812-14.359 8.557-22.708Zm-16.437 36.333c-1.573.698-.657 1.964-.615 2.99 0 .614.333 1.265.411 1.88.068 1.094-.239 2.266.094 3.224.615 1.75-.068 3.016-.958 4.76-1.948-1.609-3.761-3.119-5.573-4.557-.48-.375-1.11-.615-1.615-.963 1.47 4.52 4.865 7.093 9 9.083 1.985-5.761 1.922-11.11-.744-16.417Zm10.76-66.172c2.052-4.213 1.333-8.495.505-13.224-1.75 1.438-3.083 2.547-4.416 3.641-2.506 1.677-3.157 3.01-2.745 5.745 1.026-1.948 1.989-3.735 2.948-5.547 1.093-.505 2.224-1.026 3.427-1.615.281 2.136.651 3.907.718 5.693.042 1.776-.281 3.563-.437 5.307ZM103.615 44.23c-4.625.505-8.573 5.917-7.854 10.61.656-1.6 1.094-3.276 1.922-4.76.89-1.61 2.094-3.011 3.078-4.386 1.854.172 1.922 1.442 1.922 2.682 0 1.745.651 3.49 1.917 4.786-.308-1.536-.719-2.974-.891-4.479-.135-1.484-.068-2.948-.094-4.453Zm-.078 94.198c.891-1.588.146-3.026-.161-4.453l-.521 1.531c-2.531.068-3.693-1.812-5.068-3.276-.13-.63.135-1.51-1.307-1.484.416.656.76 1.161 1.067 1.64 1.443 2.537 3.454 4.454 5.99 6.042Zm-6.64-3.187c-.657-1.266-1.271-2.573-1.99-3.771-.13-.203-.719-.177-1.094-.203.026.401-.13 1.026.068 1.265.958.964 1.99 1.818 3.016 2.709.036.067.062.093.104.161h.026v-.068c-.026-.026-.094-.067-.13-.093Zm6.546-2.771a171.557 171.557 0 0 1-.76-3.427c-1.401 1.437-1.333 1.703.76 3.427ZM114.574 58c-.105-1.307-.172-2.401-.318-3.974-2.146 1.469-2.427 3.214-2.735 5.333.589-.854.959-1.437 1.375-2.052.573.24 1.027.412 1.678.693Zm-13.881-9.052c-2.463 2.333-3.078 4.734-1.677 7.614.214-1.177.453-2.333.76-3.947.61.479 1.199.718 1.334 1.104.276.682.276 1.468.479 2.213.24 1.068.891 1.042 1.854.48-.895-2.428-1.786-4.823-2.75-7.464Zm-16.812 83.37c-2.198-.198-2.198-.198-1.547 2.776.48-.88 1-1.776 1.547-2.776Zm-5.214 12.817c.146.438.625.787.828 1.026 5.615-3.359 9.865-7.708 10.76-14.494-1.067 1.349-1.786 2.948-2.812 4.291-1.093 1.36-2.468 2.537-3.776 3.693-1.333 1.229-2.385 2.818-4.453 3.151-.505-4-.984-7.88-1.531-12.297-.349.547-.76.922-.854 1.375-1.266 4.693.333 8.974 1.838 13.255Zm6.266-11.64c-.438 1.64-1.292 3.693-3.516 4.453-.937-1.99-1.307-3.974-.698-6.177-1.224-.542-1.505-.063-1.572.724-.198 2.531.213 4.89 1.27 7.198 4.36-1.719 7.266-5.146 6.85-8.052-1.157.172-1.85.265-2.334 1.854Zm1.786-86.906c-1.812 2.677-2.359 5.213-1.463 7.197.437-1.171.916-2.135 1.161-3.161.266-1.224 1.089-1.531 2.157-1.64.573 2.187 2.187 3.63 3.734 5.484-.307-2.735-1.24-4.282-3.224-5.787-.792-.698-1.537-1.375-2.365-2.093Zm2.058 6.89c-.35-.318-.683-.65-1.026-.958-.11.068-.204.161-.308.265.276.35.547.72.823 1.094.162-.135.334-.265.51-.4Zm-16.271 79.537c.99-.724 1.88-1.615 2.844-2.443-1.641-1.573-3.12-1.745-4.724-.505a26.062 26.062 0 0 1-2.704 1.838c-2.093 1.308-4.28 2.198-7.067 3.188.802-3.693.172-7.162 2.64-9.933.24-.239 0-.88-.026-1.921-4.145 4.625-4.932 9.427-3.974 14.948 2.318-.803 4.344-1.657 6.464-2.136 2.443-.547 4.563-1.599 6.547-3.036Zm-4.037-5.11c-1.135-.828-1.51-.375-1.718.479-.032.11.145.266.302.511.416-.307.828-.578 1.416-.99Zm-22.468-19.317c2.776 1.609 5.307 2.182 7.255 1.395-1.094-.198-2.162-.333-3.255-.609-1.813-.443-1.985-1.161-.72-2.495.522-.562 1.48-.828 1.24-2.026-1.718 1.13-3.947 1.401-4.52 3.735Zm33.255-53.683c-3.188-2.427-7.052-3.213-10.828-4.479-.48 1.401-.985 2.64-1.266 3.906-.443 2.052-.11 3.146 1.24 4.896-.042-.896-.172-1.818-.078-2.734.145-1.24.317-2.51.76-3.667.516-1.417 1.438-1.51 2.703-.63 1.708 1.24 3.297 2.708 5.172 3.51 1.203.464 1.203 1.36 1.682 2.214.48-.136.896-.203 1.266-.375.266-.136.51-.375.963-.682-.588-.72-1-1.48-1.614-1.959Zm-3.906 3.948c.213-1.24-.375-1.786-1.026-2.333-.724-.589-1.401-1.203-2.188-1.709-.453-.28-1.307-.65-1.547-.453-.505.453-1.026 1.203-1.026 1.813-.041 1.375.48 2.64 1.64 3.536.694-1.026-.963-2.297.386-3.297 1.188.803 2.386 1.589 3.76 2.443ZM64.563 63.48c-3.708-2.745-9.937-4.01-12.536-1.65.026.786 0 1.65.067 2.463.172 1.922.375 3.843.573 5.76.11.896.589 1.266 1.521 1.026a251.36 251.36 0 0 1-.562-6.333c-.13-2.094 1.135-3.01 3.125-2.334.932.308 1.875.683 2.838.922 1.584.412 3.162.521 4.974.146Zm-3.469 58.735c-3.411.479-6.812.958-10.479 1.479.344-2.052 1.266-3.495 2.198-4.865.922-1.375 2.057-2.64 3.39-4.281-2.577.682-4 2.052-4.869 3.906-1.266 2.599-2.25 5.375-3.583 8.599 4.276-1.13 8.078-2.094 11.838-3.187.693-.172 1.266-.891 1.89-1.334a3.131 3.131 0 0 0-.385-.317Zm-11.468-20.443c-6.61 3.364-6.61 3.364-9.693 8.87 2.23.718 4.39 1.614 6.64 2.093 2.47.547 5.042 1.464 7.47-.453-3.907.479-6.813-1.906-10.204-3.015 1.271-2.797 1.401-3.146 4.854-5.131 1.204-.682 1.282-1.307.933-2.364Zm16.333 24.042c-2.77.932-3.49 2.442-3.36 6.718 2.136.308 3.537-.276 5.152-2.291-1.271.505-2.271.921-3.844 1.531.828-2.36 1.4-4.078 2.052-5.958Zm-12.224-5.745c-.172.437-.307.916-.651 1.88 2.37-.349 4.276-.615 6.24-.896-.042-.13-.042-.239-.042-.37a464.321 464.321 0 0 0-5.547-.614Zm1.198-12.375c-.984-2.224-2.026-4.453-2.974-6.677-.318-.787-.453-1.641-.693-2.47-.172.069-.37.147-.547.214.178 5 3.12 8.865 5.485 12.948.172-.067.302-.145.479-.213-.589-1.266-1.161-2.537-1.75-3.802Zm-9.76-12.88c.03-.959.03-1.678.067-2.558-.958.266-1.854.547-3.146.959 1.266.64 2.162 1.12 3.078 1.599Zm15.52 22.921a16.48 16.48 0 0 0-.823-.854c-.109.094-.177.162-.28.24.317.265.582.573.864.854.068-.109.161-.172.24-.24ZM47.71 89.984c.854-.302.984-.984.411-1.942-1.88.64-3.666 1.53-5.52 1.838-2.641.453-4.516 1.745-6.198 3.907 3.015 3.255 6.958 4.145 10.828 5.145.307.068.76.094.958-.078.375-.265.615-.719.854-1.052-3.255-1.307-6.229-2.51-9.323-3.734.938-1.964 2.375-2.88 4.365-3.162a20.548 20.548 0 0 0 3.625-.922Zm4.89-14.583c-4.036-.63-7.426-1.172-10.848.401.958 2.13 1.744 3.969 2.635 5.76.854 1.678 2.297 2.636 4.214 3.053-1.308-1.922-2.6-3.667-3.703-5.547-.375-.63-.641-1.922-.308-2.266.521-.52 1.615-.615 2.464-.615 1.416-.041 2.817.198 4.213.266.282 0 .547-.437 1.334-1.052Zm-5.197 3.828c-.11-.375-.24-.75-.35-1.125-.197.068-.37.136-.572.203.203.375.375.72.573 1.094.11-.068.24-.094.349-.172Z" fill="#1A3151"/></g></g></g><defs><clipPath id="Group 1__a"><path fill="white" d="M0 0h181v181H0z"/></clipPath></defs></svg>