<?xml version="1.0" encoding="UTF-8"?>
<svg xmlns="http://www.w3.org/2000/svg" viewBox="0 0 136.06 136.06">
  <defs>
    <style>
      .cls-1 {
        fill: #fff;
      }

      .cls-2 {
        fill: #0c3454;
      }

      .cls-3 {
        fill: #e0e1e3;
      }
    </style>
  </defs>
  <g id="Layer_3" data-name="Layer 3">
    <rect class="cls-3" x="0" width="136.06" height="136.06"/>
  </g>
  <g id="B_W" data-name="B&amp;amp;W">
    <g>
      <path class="cls-1" d="m44.9,87.66c.21.2.41.41.62.64-.06.05-.13.1-.18.18-.21-.21-.41-.44-.65-.64.08-.06.13-.11.21-.18Z"/>
      <path class="cls-1" d="m44.46,90.51c0,.1,0,.18.03.28-1.47.21-2.9.41-4.68.67.26-.72.36-1.08.49-1.41,1.41.15,2.8.3,4.16.46Z"/>
      <path class="cls-1" d="m42.15,85.91c-1,1.23-1.85,2.18-2.54,3.21-.7,1.03-1.39,2.11-1.65,3.65,2.75-.39,5.3-.75,7.86-1.11.11.08.21.16.29.24-.47.33-.9.87-1.42,1-2.82.82-5.67,1.54-8.88,2.39,1-2.42,1.74-4.5,2.69-6.45.65-1.39,1.72-2.42,3.65-2.93Z"/>
      <path class="cls-1" d="m51.35,95.93c-.44.31-.75.51-1.06.74-.12-.18-.25-.3-.23-.38.16-.64.44-.98,1.29-.36Z"/>
      <path class="cls-1" d="m46.95,99.4c-.1-3.21.44-4.34,2.52-5.04-.49,1.41-.92,2.7-1.54,4.47,1.18-.46,1.93-.77,2.88-1.15-1.21,1.51-2.26,1.95-3.86,1.72Z"/>
      <path class="cls-1" d="m47.62,93.87c-1.85,2.08-1.38,4.68-1.98,7.45,2.09-.74,3.73-1.41,5.3-2.39.69-.41,1.38-.87,2.03-1.38,1.2-.93,2.31-.8,3.54.38-.72.62-1.39,1.29-2.13,1.83-1.49,1.08-3.08,1.87-4.91,2.28-1.59.36-3.11,1-4.85,1.6-.72-4.14-.13-7.74,2.98-11.21.02.78.2,1.26.02,1.44Z"/>
      <path class="cls-1" d="m61.75,101.32q-.49-2.23,1.16-2.08c-.41.75-.8,1.42-1.16,2.08Z"/>
      <path class="cls-1" d="m61.06,103.46c1.67-.57,2.31-2.11,2.64-3.34.36-1.19.88-1.26,1.75-1.39.31,2.18-1.87,4.75-5.14,6.04-.79-1.73-1.1-3.5-.95-5.4.05-.59.26-.95,1.18-.54-.46,1.65-.18,3.14.52,4.63Z"/>
      <path class="cls-1" d="m58.26,97.88c.41,3.31.77,6.22,1.15,9.22,1.55-.25,2.34-1.44,3.34-2.36.98-.87,2.01-1.75,2.83-2.77.77-1.01,1.31-2.21,2.11-3.22-.67,5.09-3.86,8.35-8.07,10.87-.15-.18-.51-.44-.62-.77-1.13-3.21-2.33-6.42-1.38-9.94.07-.34.38-.62.64-1.03Z"/>
      <path class="cls-1" d="m71.18,98.6c.54.9,1,1.88,1.49,2.83-.77-.67-1.54-1.31-2.26-2.03-.15-.18-.03-.65-.05-.95.28.02.72,0,.82.15Z"/>
      <path class="cls-1" d="m77.01,96.78c.21.97.36,1.67.57,2.57-1.57-1.29-1.62-1.49-.57-2.57Z"/>
      <path class="cls-1" d="m73.34,99.17c1.03,1.1,1.9,2.51,3.8,2.46.13-.38.26-.77.39-1.15.23,1.07.79,2.15.12,3.34-1.9-1.19-3.41-2.63-4.49-4.53-.23-.36-.49-.74-.8-1.23,1.08-.02.88.64.98,1.11Z"/>
      <path class="cls-1" d="m78.19,105.72c.67-1.31,1.18-2.26.72-3.57-.25-.72-.02-1.6-.07-2.42-.06-.46-.31-.95-.31-1.41-.03-.77-.72-1.72.46-2.24,2,3.98,2.05,7.99.56,12.31-3.1-1.49-5.65-3.42-6.75-6.81.38.26.85.44,1.21.72,1.36,1.08,2.72,2.21,4.18,3.42Z"/>
      <path class="cls-1" d="m85.87,91.61c1.26,1.42,2.93,2.6,2.39,5.19-1.79-.82-3.46-1.59-5.21-2.41.46-1.03.95-1.34,1.77-.72.54.43,1.05.87,1.65,1.36.87-.33,1-.82.3-1.46-.3-.31-.74-.44-1.08-.7-.28-.23-.2-.62.18-1.26Z"/>
      <path class="cls-1" d="m87.85,89.61c2.67,2.67,3.32,5.96,3.93,9.32-4.36.57-9.17-1.05-10.56-4.23,1.57.84,2.8,1.64,4.17,2.2,1.28.54,2.64,1.14,4.08.8,1.03-1.98-.8-3.49-.49-5.19-.67-.61-1.31-1.18-2-1.82.28-.36.54-.67.87-1.08Z"/>
      <path class="cls-1" d="m92.3,82.49c1.77.83,3.13,2.08,3.62,4.19-2.24.59-4.37.28-5.34-1.05,1.15.05,1.97.07,2.87.1.23-1.46-2.62-1.34-1.15-3.24Z"/>
      <path class="cls-1" d="m93.14,80.23c3.42,1.44,5.09,4.22,6.32,7.4-2.31,1.41-4.77,1.57-7.37.9,1.18-.13,2.39-.21,3.55-.39.84-.12,1.64-.43,1.87-1.36.21-.77-.31-1.28-.77-1.92-1.03-1.39-1.93-2.78-3.54-3.55-.13-.05-.24-.28-.29-.46-.02-.1.08-.23.23-.62Z"/>
      <path class="cls-1" d="m94.99,74.12c1.03-.1,2.08-.16,3.24-.26.16-.64.26-1.13-.9-1.08-1.36.03-2.28-.87-3-1.92,3.21-.39,4.72.59,5.98,3.69-.82.34-1.64.83-2.52,1.01-.69.13-1.46-.05-2.33.23-.34-.34-.67-.67-1.37-1.36.42-.16.65-.29.9-.31Z"/>
      <path class="cls-1" d="m102.39,72.58c-.49-.03-.97-.03-1.54-.05-.9-2.55-3.54-2.57-5.5-3.86.47,0,1.01-.15,1.42,0,1.05.41,2.05.95,3.05,1.47.9.43,1.75,1,2.68,1.33,1.46.57,2.08,1.11,2.67,2.73-1.93,1.05-3.83,2.08-5.73,3.13-1.54.85-3.11,1.18-4.99.05,1.62-.33,3.04-.44,4.32-.92,1.34-.49,2.54-1.34,3.83-2.03-.08-.72-.16-1.26-.21-1.85Z"/>
      <path class="cls-1" d="m100.31,59.24c-.31,1.42-1.54,1.85-2.23,2.75-.29.36-.83.52-1.24.77-.92.57-1.56.44-2.8-.72,1.16-.33,2.08-.61,3.14-.92-.54-1.18-2.31-.57-2.42-2.24,1.83-.23,3.6.75,5.55.36Z"/>
      <path class="cls-1" d="m103.11,58.7c.13.11.41.31.72.54-1.59,2.7-3.67,4.65-6.81,5.45,2.01-1.95,3.99-3.93,6.09-5.99Z"/>
      <path class="cls-1" d="m95.12,57.27c2.01-.85,4.01-.95,6.09.28-1.13,1.23-2.11.15-3.08.08-1-.08-2.03-.13-3.01-.36Z"/>
      <path class="cls-1" d="m92.35,54.11c1.77-1.78,3.65-3.42,4.49-5.96.31.05.62.05.9.12.29.11.54.31,1.06.6-2.19,1.85-3.75,4.18-6.45,5.24Z"/>
      <path class="cls-1" d="m94.81,47.66c-.95.79-1.87.79-2.72-.08.9.03,1.8.05,2.72.08Z"/>
      <path class="cls-1" d="m94.63,50.3c-.69.52-1.38,1.01-2.05,1.49-.08-.05-.15-.1-.26-.15.18-.26.36-.51.64-.9-.46-.38-.95-.77-1.36-1.13.85.03,1.75.05,2.65.08.13.2.26.41.38.61Z"/>
      <path class="cls-1" d="m87.44,36.53c.62,3.55,1.16,6.76-.38,9.92.12-1.31.36-2.65.33-3.98-.05-1.34-.33-2.67-.54-4.27-.9.44-1.75.83-2.57,1.21-.72,1.36-1.44,2.7-2.21,4.16-.31-2.05.18-3.05,2.06-4.31,1-.82,2-1.65,3.31-2.73Z"/>
      <path class="cls-1" d="m83.64,44.52c.23-1.59.44-2.9,2.05-4,.11,1.18.16,2,.24,2.98-.49-.21-.83-.34-1.26-.52-.31.46-.59.9-1.03,1.54Z"/>
      <path class="cls-1" d="m71.82,41.13c-.54-3.52,2.42-7.58,5.89-7.96.02,1.13-.03,2.23.07,3.34.13,1.13.44,2.21.67,3.36-.95-.97-1.44-2.28-1.44-3.59,0-.93-.05-1.88-1.44-2.01-.74,1.03-1.64,2.08-2.31,3.29-.62,1.11-.95,2.37-1.44,3.57Z"/>
      <path class="cls-1" d="m74.26,42.42c-1.05-2.16-.59-3.96,1.26-5.71.72,1.98,1.39,3.78,2.06,5.6-.72.42-1.21.44-1.39-.36-.15-.56-.15-1.15-.36-1.66-.1-.29-.54-.47-1-.83-.23,1.21-.41,2.08-.57,2.96Z"/>
      <path class="cls-1" d="m66.58,40.11c-.13.1-.26.2-.38.3-.21-.28-.41-.56-.62-.82.08-.08.15-.15.23-.2.26.23.51.48.77.72Z"/>
      <path class="cls-1" d="m63.94,40.34c-.67-1.49-.26-3.39,1.1-5.4.62.54,1.18,1.05,1.77,1.57,1.49,1.13,2.19,2.29,2.42,4.34-1.16-1.39-2.37-2.47-2.8-4.11-.8.08-1.42.31-1.62,1.23-.18.77-.54,1.49-.87,2.37Z"/>
      <path class="cls-1" d="m59.44,41.18c.46.36.77.93,1.21,1.47-.34.23-.52.41-.72.51-.28.13-.59.18-.95.28-.36-.64-.36-1.31-1.26-1.66-1.41-.6-2.6-1.7-3.88-2.63-.95-.66-1.64-.59-2.03.47-.33.87-.46,1.82-.57,2.75-.07.69.03,1.38.06,2.05-1.01-1.31-1.26-2.13-.93-3.67.21-.95.59-1.88.95-2.93,2.83.95,5.73,1.54,8.12,3.36Z"/>
      <path class="cls-1" d="m55.74,42.39c.49.41.93.82.77,1.75-1.03-.64-1.93-1.23-2.82-1.83-1.01.75.23,1.7-.29,2.47-.87-.67-1.26-1.62-1.23-2.65,0-.46.39-1.02.77-1.36.18-.15.82.13,1.16.34.59.38,1.1.84,1.64,1.28Z"/>
      <path class="cls-1" d="m39.5,52.54c-.15-1.44-.3-2.88-.43-4.32-.05-.61-.03-1.26-.05-1.85,1.95-1.77,6.62-.82,9.4,1.24-1.36.28-2.54.2-3.73-.11-.72-.18-1.43-.46-2.13-.69-1.49-.51-2.44.18-2.34,1.75.11,1.56.26,3.11.42,4.75-.7.18-1.06-.1-1.14-.77Z"/>
      <path class="cls-1" d="m35.29,58.58c.08.28.18.56.26.84-.08.06-.18.08-.26.13-.15-.28-.28-.54-.43-.82.15-.05.28-.1.43-.15Z"/>
      <path class="cls-1" d="m36.45,63.46c-1.44-.31-2.52-1.03-3.16-2.29-.67-1.34-1.26-2.72-1.98-4.32,2.57-1.18,5.11-.77,8.14-.3-.59.46-.79.79-1,.79-1.05-.05-2.1-.23-3.16-.2-.64,0-1.46.07-1.85.46-.25.26-.05,1.23.23,1.7.83,1.41,1.8,2.72,2.78,4.16Z"/>
      <path class="cls-1" d="m31.57,69.91c.97-.31,1.64-.52,2.36-.72-.03.66-.03,1.2-.05,1.92-.69-.36-1.36-.72-2.31-1.2Z"/>
      <path class="cls-1" d="m29.79,70.55c2.32.92,4.55,1.82,6.99,2.8-.18.25-.36.59-.64.79-.15.13-.49.11-.72.06-2.9-.75-5.86-1.42-8.12-3.86,1.26-1.62,2.67-2.59,4.65-2.93,1.39-.23,2.73-.9,4.14-1.38.43.72.33,1.23-.31,1.46-.87.31-1.8.54-2.72.69-1.49.21-2.57.9-3.27,2.37Z"/>
      <path class="cls-1" d="m29.95,82.98q2.31-4.13,7.27-6.65c.26.79.2,1.26-.7,1.77-2.59,1.49-2.69,1.75-3.64,3.85,2.54.83,4.72,2.62,7.65,2.26-1.82,1.44-3.75.75-5.6.34-1.69-.36-3.31-1.03-4.98-1.57Z"/>
      <path class="cls-1" d="m34.5,81.44c.43-1.75,2.1-1.95,3.39-2.8.18.9-.54,1.1-.93,1.52-.95,1-.82,1.54.54,1.87.82.21,1.62.31,2.44.46-1.46.59-3.36.16-5.44-1.05Z"/>
      <path class="cls-1" d="m38.97,75.76c.71,1.67,1.49,3.34,2.23,5.01.44.95.87,1.9,1.31,2.85-.13.05-.23.11-.36.16-1.77-3.06-3.98-5.96-4.11-9.71.13-.05.28-.11.41-.16.18.62.28,1.26.52,1.85Z"/>
      <path class="cls-1" d="m93.5,66.64c.06,3.6.03,7.22-.9,10.77-1.23,4.72-3.41,9.01-6.73,12.58-1.41,1.55-3,3.01-5.18,3.88-1.75.67-3.47,1.57-5.3,1.96-2.67.61-5.31,1.38-8.14,1.54-1.31.07-2.83-.29-4.14.59-.25.18-.82-.05-1.23-.18-1.82-.59-3.7-1.08-5.57-1.52-2.34-.56-4.68-1.64-6.66-3.23-1.1-.9-2.1-1.91-3.13-2.86.08-.12.15-.23.2-.36,3.55,3.14,7.97,4.32,12.33,5.5,3.34.9,6.81.98,10.31.34,3.08-.57,6.03-1.44,8.78-2.86,1.29-.66,2.47-1.56,3.65-2.41,4.19-3.01,6.37-7.37,8.22-12,.49-1.23.98-2.46,1.49-3.67.41-.98.9-1.85.51-3.01-.15-.46-.3-1.38.57-1.79.13-.06.2-.57.13-.67-.9-.93-.28-1.9-.26-2.88,0-2.88-.02-5.75-1.49-8.43-.67-1.18-1.13-2.51-1.64-3.8-.75-1.9-1.96-3.49-3.27-5.03-1.23-1.49-2.85-2.34-4.57-2.88-2.39-.77-4.8-1.49-7.4-1.54-1.69-.03-3.39-.26-5.08-.41-2.98-.23-5.89.23-8.74,1.1-1.62.52-3.31.77-4.93,1.21-.59.15-1.13.54-1.7.8-1.87.82-3.8,1.56-5.67,2.44-.52.23-.93.74-1.34,1.18-1.31,1.33-2.8,2.54-3.85,4.06-1.11,1.64-1.85,3.57-2.65,5.42-1.39,3.23-2,6.65-2.05,10.2-.03-.36,0-.72-.08-1.06-.1-.41-.36-.79-.46-1.2-.31-1.19-.47-2.34.05-3.52.23-.6.28-1.24.46-1.83,1.28-4.6,3.31-8.81,6.83-12.1.9-.85,2.06-1.41,3.11-2.08,4.34-2.77,8.99-4.57,14.18-4.85.72-.03,1.44-.42,2.16-.47,2.21-.15,4.45-.48,6.63-.2,2.98.36,6.09.05,8.91,1.31,2.55,1.13,5.09,2.21,7.35,3.88,1.82,1.36,2.9,3.11,3.42,5.26.23.98.38,2.01.79,2.91,1.54,3.13,2.03,6.5,2.08,9.91Z"/>
      <path class="cls-1" d="m63.19,76.35c-1.49,1.13-2.08-.25-3.01-1,.6-1.15,1.24-2.16,2.93-2.18.03,1.21.05,2.18.08,3.18Z"/>
      <path class="cls-1" d="m69.48,72.71c1.55.07,2.11.41,2.24,1.31.15,1.05-.46,1.9-1.82,2.31-.13-1.24-.29-2.42-.42-3.62Z"/>
      <path class="cls-1" d="m59.7,61.29c1.03-1.52.33-2.83-.85-3.78-1.34-1.05-2.98-1.13-4.47-1.46-2.08.12-4.14.15-5.75,1.56-2.21,1.93-3.68,4.58-.03,6.86,1.13.7,2.34.9,3.49,1.34,2.11.82,3.83.31,5.24-1.34.85-1.03,1.62-2.1,2.37-3.18Zm-4.47,25.03c-.52-1.03-.85-1.98.38-2.8.21-.13.16-.64.23-1-1.38-.03-1.69.9-1.9,1.8-.25,1.23.44,2.03,1.57,2.54-.1-.18-.21-.36-.28-.54Zm7.83-27.98c0,1.73-.1,3.45-.15,5.14-.03.95-.1,1.9-.08,2.85.03,1.93.1,3.88.18,6.02-1.8-.47-2.47.82-3.31,1.69-.88.87-.72,1.75.2,2.62.46.41.93.82,1.42,1.26,1.25-.41,2.26-.39,3.33.59.11.08.21.18.34.23.82.46,1.93.28,2.9-.18.95-.46,1.9-.95,2.85-1.41,1.26-.62,1.85-1.49,1.93-2.95.1-1.55-1.08-1.91-1.82-2.63-1.06-1.02-1.83-2.05-1.34-3.64.21-.57.28-1.31.08-1.88-.67-1.87-.49-3.75-.13-5.57.26-1.26-.1-2.55.67-3.75,1.44-2.24,3.54-3.32,6.09-3.73,1.07-.18,2.18-.36,3.54-.59-.41-.44-.64-.9-.87-.9-.13,0-.26-.02-.39-.02-1-.08-2.13-.26-2.85.18-.9.54-1.82.51-2.67.89-.36.13-.8.11-1.06.34-2.05,1.69-3.59,3.67-3.54,6.58.08,3.67.03,7.32.05,10.99.03.64.13,1.26.16,1.9.07,1.59-.06,3.16-.72,4.65-.39.85-.88,1.05-1.8.8-.82-.26-1.42-.59-1.52-1.47-.28-2.28-.64-4.57-.69-6.86-.1-3.7-.08-7.39.15-11.07.11-2.1-.69-3.49-2.39-4.44-.64-.36-1.51-.34-2.15-.67-2.01-1.05-4.09-.67-6.14-.36-.54.05-1.16.15-1.11,1.16.77-.11,1.52-.26,2.24-.26,1.05.02,2.13.08,3.16.28.92.18,1.82.54,2.72.82,1.87.57,2.7,1.52,2.72,3.39Zm10.37-.69c-1.18.95-1.88,2.26-.85,3.78.75,1.07,1.52,2.15,2.37,3.18,1.41,1.65,3.13,2.16,5.24,1.34,1.15-.44,2.36-.64,3.49-1.34,3.65-2.28,2.18-4.93-.03-6.86-1.61-1.41-3.67-1.44-5.75-1.56-1.49.33-3.13.41-4.47,1.46Zm-6.44,29.54c1.47,1.06,3.09.57,4.7.34,1.47-.18,2.39-1.06,3.14-2.21.41-.64.77-1.36,1.1-2.06.31-.64,0-1.26-.72-1.46-.82-.23-1.64-.59-2.49-.72-2.31-.36-4.67-1.08-6.76.62-.23-.13-.38-.23-.53-.34-.83-.54-1.29-.82-1.7-.82-.49,0-.87.39-1.62,1.18-.74.77-1.41,1.57-2.49,1.93-.75.23-1.39.69-2.26,1.15.87.65,1.44,1.01,1.93,1.44,2,1.85,3.69,2.42,5.85,1.75.59-.21,1.18-.46,1.85-.8Zm4.14,4.96c-.28-1.51-1.31-1.74-2.36-1.92-.72-.13-1.52-.08-2.21-.34-.29-.1-.54-.15-.77-.15-.85,0-1.47.61-2.16,1.33.77.03,1.51.13,2.26.05,1.49-.12,2.88-.07,4.11.9.2.18.64.08,1.13.13Zm.49,2.01c-1.34.33-2.73.56-4.14.72-3.29.35-6.37-.21-9.45-1.08-1.75-.49-3.47-1.11-5.19-1.72-3.06-1.11-5.55-3.11-7.3-5.79-2.23-3.41-4.29-6.96-5.65-10.86-1.39-4.03-1.08-8.09.23-12.08.57-1.67,1.23-3.31,1.98-4.88,1.72-3.57,4.26-6.47,7.73-8.37,2.31-1.29,4.73-2.39,7.4-2.83,2.36-.41,4.7-1,7.09-1.31,2.11-.28,4.27-.25,6.42-.38,2.8.1,5.5.51,8.15,1.28.87.26,1.74.54,2.62.88,1.38.53,2.62,1.36,3.7,2.51,2.54,2.8,4.08,6.12,5.29,9.56,1.03,2.9,1.08,5.96.82,9.02-.56,6.26-3.08,11.84-6.42,17.03-1.06,1.67-2.75,2.98-4.32,4.21-2.7,2.13-5.73,3.37-8.96,4.09Zm6.55-12.72c.1,1.08.28,2.16.43,3.36.9-1.05.95-2.33.7-3.64-.05-.26-.62-.41-.95-.62-.05.31-.21.62-.18.9Z"/>
      <path class="cls-2" d="m79.3,81.16c.25,1.31.2,2.59-.7,3.64-.15-1.2-.33-2.28-.43-3.36-.03-.28.13-.59.18-.9.33.21.9.36.95.62Z"/>
      <path class="cls-2" d="m83.65,57.75c2.21,1.93,3.68,4.58.03,6.86-1.13.7-2.34.9-3.49,1.34-2.11.82-3.83.31-5.24-1.34-.85-1.03-1.62-2.11-2.37-3.18-1.03-1.52-.33-2.83.85-3.78,1.34-1.05,2.98-1.13,4.47-1.46,2.08.12,4.14.15,5.75,1.56Zm-8.35,3.51c-.14-.94.13-1.99,1.25-3.76-1.16-.29-2.66.15-3.74,2.55.25,1.55,1.9,4.03,3.94,4.84-.69-.56-1.21-2.31-1.45-3.63Zm5.64,2.11c1.57-1.64.76-4.33-.24-4.66-.77-.26-2.5-.87-3.61.06-.64.53-.97,2.36-.58,3.61.23.76.76.94,1.72,1.19-.69-.87-.63-1.26-.69-2.08.02-.5.09-1.15,1.31-1.43.61-.01,1.16.4,1.54,1.03.36.6.58,1.42.55,2.28Zm.86-5.48c1.44,1.68,1.09,5.05-.3,6.69,1.37-.47,3.78-2,3.47-3.46-.21-.93-2.01-3.3-3.17-3.23Z"/>
      <path class="cls-2" d="m70,92.02c-1.23-.97-2.62-1.02-4.11-.9-.75.08-1.49-.02-2.26-.05.69-.72,1.31-1.33,2.16-1.33.23,0,.48.05.77.15.69.26,1.49.21,2.21.34,1.05.18,2.08.41,2.36,1.92-.49-.05-.93.05-1.13-.13Z"/>
      <path class="cls-2" d="m65.35,83.78s0-.03-.03-.05h-.02v.05h.05Zm8.09-.62c-.44-.28-.82-.69-1.31-.82-1.95-.44-4.06-1.41-5.47,1.15-.16.24-.82.18-1.29.29.21.25.42.64.59.64.8-.1,1.7-.18,2.32-.62,1.02-.74,2.08-.77,3.21-.56.59.08,1.18.18,1.8.28.05-.13.1-.26.15-.36Zm-7.06,2.78c-.8-.39-1.6-.75-2.47-1.16-1.03.33-2.16.69-3.6,1.18,3.99,1.77,4.83,1.72,6.07-.02Zm5.31,1.59c-1.61.23-3.23.72-4.7-.34-.67.34-1.26.59-1.85.8-2.16.67-3.85.1-5.85-1.75-.49-.43-1.06-.79-1.93-1.44.87-.46,1.51-.92,2.26-1.15,1.08-.36,1.75-1.16,2.49-1.93.75-.79,1.13-1.18,1.62-1.18.41,0,.87.28,1.7.82.15.11.3.21.53.34,2.09-1.7,4.45-.98,6.76-.62.85.13,1.67.49,2.49.72.72.2,1.03.82.72,1.46-.33.7-.69,1.42-1.1,2.06-.75,1.15-1.67,2.03-3.14,2.21Zm-8.81-3.37c.54-.33,1.11-.67,1.65-.97.3.2.54.36.77.51.1-.95-.59-1.21-1.44-1.64-.41.64-.82,1.26-1.26,1.87.1.08.18.16.28.23Zm8.2,2.52c1.15-.36,2.54-.51,2.67-2.18q-4.06-.29-6.45,1.13c.95,1.38,2.34,1.46,3.78,1.05Z"/>
      <path class="cls-2" d="m55.61,83.52c-1.23.82-.9,1.77-.38,2.8.07.18.18.36.28.54-1.13-.51-1.82-1.31-1.57-2.54.21-.9.52-1.83,1.9-1.8-.07.36-.02.87-.23,1Z"/>
      <path class="cls-2" d="m60.18,75.35c.93.75,1.52,2.13,3.01,1-.03-1-.05-1.97-.08-3.18-1.69.02-2.33,1.03-2.93,2.18Zm9.3-2.64c.13,1.2.29,2.38.42,3.62,1.36-.41,1.97-1.26,1.82-2.31-.13-.9-.69-1.24-2.24-1.31Zm1.37-1.14c.74.72,1.92,1.08,1.82,2.63-.08,1.46-.67,2.33-1.93,2.95-.95.46-1.9.95-2.85,1.41-.97.46-2.08.64-2.9.18-.13-.05-.23-.15-.34-.23-1.07-.98-2.08-1-3.33-.59-.49-.44-.96-.85-1.42-1.26-.92-.87-1.08-1.75-.2-2.62.84-.87,1.51-2.16,3.31-1.69-.08-2.14-.15-4.09-.18-6.02-.02-.95.05-1.9.08-2.85.05-1.69.15-3.41.15-5.14-.02-1.87-.85-2.82-2.72-3.39-.9-.28-1.8-.64-2.72-.82-1.03-.2-2.11-.26-3.16-.28-.72,0-1.47.15-2.24.26-.05-1.01.57-1.11,1.11-1.16,2.05-.31,4.13-.69,6.14.36.64.33,1.51.31,2.15.67,1.7.95,2.5,2.34,2.39,4.44-.23,3.68-.25,7.37-.15,11.07.05,2.29.41,4.58.69,6.86.1.88.7,1.21,1.52,1.47.92.25,1.41.05,1.8-.8.66-1.49.79-3.06.72-4.65-.03-.64-.13-1.26-.16-1.9-.02-3.67.03-7.32-.05-10.99-.05-2.91,1.49-4.89,3.54-6.58.26-.23.7-.21,1.06-.34.85-.38,1.77-.35,2.67-.89.72-.44,1.85-.26,2.85-.18.13,0,.26.02.39.02.23,0,.46.46.87.9-1.36.23-2.47.41-3.54.59-2.55.41-4.65,1.49-6.09,3.73-.77,1.2-.41,2.49-.67,3.75-.36,1.82-.54,3.7.13,5.57.2.57.13,1.31-.08,1.88-.49,1.59.28,2.62,1.34,3.64Z"/>
      <path class="cls-2" d="m50.78,64.44c-1.39-1.64-1.73-5.01-.3-6.69-1.16-.07-2.96,2.3-3.17,3.23-.31,1.46,2.1,2.99,3.47,3.46Zm6.55.03c-1.41,1.65-3.13,2.16-5.24,1.34-1.15-.44-2.36-.64-3.49-1.34-3.65-2.28-2.18-4.93.03-6.86,1.61-1.41,3.67-1.44,5.75-1.56,1.49.33,3.13.41,4.47,1.46,1.18.95,1.88,2.26.85,3.78-.75,1.08-1.52,2.15-2.37,3.18Zm-5.99-1.24c-.03-.86.19-1.68.55-2.28.38-.63.93-1.04,1.54-1.03,1.22.28,1.29.93,1.31,1.43-.06.82,0,1.21-.69,2.08.96-.25,1.49-.43,1.72-1.19.39-1.25.06-3.08-.58-3.61-1.11-.93-2.84-.32-3.61-.06-1,.33-1.81,3.02-.24,4.66Zm8.13-3.32c-1.08-2.4-2.58-2.84-3.74-2.55,1.12,1.77,1.39,2.82,1.25,3.76-.24,1.32-.76,3.07-1.45,3.63,2.04-.81,3.69-3.29,3.94-4.84Z"/>
      <path class="cls-2" d="m35.55,59.42c-.08-.28-.18-.56-.26-.84-.15.05-.28.1-.43.15.15.28.28.54.43.82.08-.05.18-.07.26-.13Zm3.9-2.87c-3.03-.47-5.57-.88-8.14.3.72,1.6,1.31,2.98,1.98,4.32.64,1.26,1.72,1.98,3.16,2.29-.98-1.44-1.95-2.75-2.78-4.16-.28-.47-.48-1.44-.23-1.7.39-.39,1.21-.46,1.85-.46,1.06-.03,2.11.15,3.16.2.21,0,.41-.33,1-.79Zm-3.67,10.94c.64-.23.74-.74.31-1.46-1.41.48-2.75,1.15-4.14,1.38-1.98.34-3.39,1.31-4.65,2.93,2.26,2.44,5.22,3.11,8.12,3.86.23.05.57.07.72-.06.28-.2.46-.54.64-.79-2.44-.98-4.67-1.88-6.99-2.8.7-1.47,1.78-2.16,3.27-2.37.92-.15,1.85-.38,2.72-.69Zm9.74,20.81c-.21-.23-.41-.44-.62-.64-.08.07-.13.12-.21.18.24.2.44.43.65.64.05-.08.12-.13.18-.18Zm-11.64-17.19c.02-.72.02-1.26.05-1.92-.72.2-1.39.41-2.36.72.95.48,1.62.84,2.31,1.2Zm7.32,9.66c-.74-1.67-1.52-3.34-2.23-5.01-.24-.59-.34-1.23-.52-1.85-.13.05-.28.11-.41.16.13,3.75,2.34,6.65,4.11,9.71.13-.05.23-.11.36-.16-.44-.95-.87-1.9-1.31-2.85Zm-.9,9.28c-.13.33-.23.69-.49,1.41,1.78-.26,3.21-.46,4.68-.67-.03-.1-.03-.18-.03-.28-1.36-.16-2.75-.31-4.16-.46Zm9.17,4.31c-2.08.7-2.62,1.83-2.52,5.04,1.6.23,2.65-.21,3.86-1.72-.95.38-1.7.69-2.88,1.15.62-1.77,1.05-3.06,1.54-4.47Zm-12.25-18.03q-4.96,2.52-7.27,6.65c1.67.54,3.29,1.21,4.98,1.57,1.85.41,3.78,1.1,5.6-.34-2.93.36-5.11-1.43-7.65-2.26.95-2.1,1.05-2.36,3.64-3.85.9-.51.96-.98.7-1.77Zm8.6,15.33c-2.56.36-5.11.72-7.86,1.11.26-1.54.95-2.62,1.65-3.65.69-1.03,1.54-1.98,2.54-3.21-1.93.51-3,1.54-3.65,2.93-.95,1.95-1.69,4.03-2.69,6.45,3.21-.85,6.06-1.57,8.88-2.39.52-.13.95-.67,1.42-1-.08-.08-.18-.16-.29-.24Zm2.6-44.05c-2.78-2.06-7.45-3.01-9.4-1.24.02.59,0,1.24.05,1.85.13,1.44.28,2.88.43,4.32.08.67.44.95,1.14.77-.16-1.64-.31-3.19-.42-4.75-.1-1.57.85-2.26,2.34-1.75.7.23,1.41.51,2.13.69,1.19.31,2.37.39,3.73.11Zm8.09-3.47c.16-.93-.28-1.34-.77-1.75-.54-.44-1.05-.9-1.64-1.28-.34-.21-.98-.49-1.16-.34-.38.34-.77.9-.77,1.36-.03,1.03.36,1.98,1.23,2.65.52-.77-.72-1.72.29-2.47.89.6,1.79,1.19,2.82,1.83Zm2.93-2.96c-2.39-1.82-5.29-2.41-8.12-3.36-.36,1.05-.74,1.98-.95,2.93-.33,1.54-.08,2.36.93,3.67-.03-.67-.13-1.36-.06-2.05.11-.93.24-1.88.57-2.75.39-1.06,1.08-1.13,2.03-.47,1.28.93,2.47,2.03,3.88,2.63.9.35.9,1.02,1.26,1.66.36-.1.67-.15.95-.28.2-.1.38-.28.72-.51-.44-.54-.75-1.11-1.21-1.47Zm-24.94,40.26c2.08,1.21,3.98,1.64,5.44,1.05-.82-.15-1.62-.25-2.44-.46-1.36-.33-1.49-.87-.54-1.87.39-.42,1.11-.62.93-1.52-1.29.85-2.96,1.05-3.39,2.8Zm16.85,14.49c-.85-.62-1.13-.28-1.29.36-.02.08.11.2.23.38.31-.23.62-.43,1.06-.74Zm3.03,3.83c.74-.54,1.41-1.21,2.13-1.83-1.23-1.18-2.34-1.31-3.54-.38-.65.51-1.34.97-2.03,1.38-1.57.98-3.21,1.65-5.3,2.39.6-2.77.13-5.37,1.98-7.45.18-.18,0-.66-.02-1.44-3.11,3.47-3.7,7.07-2.98,11.21,1.74-.6,3.26-1.24,4.85-1.6,1.83-.41,3.42-1.2,4.91-2.28Zm12.2-59.65c-.26-.24-.51-.49-.77-.72-.08.05-.15.12-.23.2.21.26.41.54.62.82.12-.1.25-.2.38-.3Zm-1.54-5.17c-1.36,2.01-1.77,3.91-1.1,5.4.33-.88.69-1.6.87-2.37.2-.92.82-1.15,1.62-1.23.43,1.64,1.64,2.72,2.8,4.11-.23-2.05-.93-3.21-2.42-4.34-.59-.52-1.15-1.03-1.77-1.57Zm-1.34,65.18c-.33,1.23-.97,2.77-2.64,3.34-.7-1.49-.98-2.98-.52-4.63-.92-.41-1.13-.05-1.18.54-.15,1.9.16,3.67.95,5.4,3.27-1.29,5.45-3.86,5.14-6.04-.87.13-1.39.2-1.75,1.39Zm-4.7,8.73c.11.33.47.59.62.77,4.21-2.52,7.4-5.78,8.07-10.87-.8,1.01-1.34,2.21-2.11,3.22-.82,1.02-1.85,1.9-2.83,2.77-1,.92-1.79,2.11-3.34,2.36-.38-3-.74-5.91-1.15-9.22-.26.41-.57.69-.64,1.03-.95,3.52.25,6.73,1.38,9.94Zm3.91-9.61q-1.65-.15-1.16,2.08c.36-.66.75-1.33,1.16-2.08Zm12.61-62.53c-1.85,1.75-2.31,3.55-1.26,5.71.16-.88.34-1.75.57-2.96.46.36.9.54,1,.83.21.51.21,1.1.36,1.66.18.8.67.78,1.39.36-.67-1.82-1.34-3.62-2.06-5.6Zm10.41,6.79c-.08-.98-.13-1.8-.24-2.98-1.61,1.1-1.82,2.41-2.05,4,.44-.64.72-1.08,1.03-1.54.43.18.77.31,1.26.52Zm-8.35,55.85c-.21-.9-.36-1.6-.57-2.57-1.05,1.08-1,1.28.57,2.57Zm-4.91,2.08c-.49-.95-.95-1.93-1.49-2.83-.1-.15-.54-.13-.82-.15.02.3-.1.77.05.95.72.72,1.49,1.36,2.26,2.03.03.05.05.07.08.12h.02v-.05s-.07-.05-.1-.07Zm4.98,2.39c.67-1.19.11-2.27-.12-3.34-.13.38-.26.77-.39,1.15-1.9.05-2.77-1.36-3.8-2.46-.1-.47.1-1.13-.98-1.11.31.49.57.87.8,1.23,1.08,1.9,2.59,3.34,4.49,4.53Zm.06-70.65c-3.47.38-6.43,4.44-5.89,7.96.49-1.2.82-2.46,1.44-3.57.67-1.21,1.57-2.26,2.31-3.29,1.39.13,1.44,1.08,1.44,2.01,0,1.31.49,2.62,1.44,3.59-.23-1.15-.54-2.23-.67-3.36-.1-1.11-.05-2.21-.07-3.34Zm9.35,13.28c1.54-3.16,1-6.37.38-9.92-1.31,1.08-2.31,1.91-3.31,2.73-1.88,1.26-2.37,2.26-2.06,4.31.77-1.46,1.49-2.8,2.21-4.16.82-.38,1.67-.77,2.57-1.21.21,1.6.49,2.93.54,4.27.03,1.33-.21,2.67-.33,3.98Zm-8.07,49.63c-1.18.52-.49,1.47-.46,2.24,0,.46.25.95.31,1.41.05.82-.18,1.7.07,2.42.46,1.31-.05,2.26-.72,3.57-1.46-1.21-2.82-2.34-4.18-3.42-.36-.28-.83-.46-1.21-.72,1.1,3.39,3.65,5.32,6.75,6.81,1.49-4.32,1.44-8.33-.56-12.31Zm12.33-27.25c.26-3.06.21-6.12-.82-9.02-1.21-3.44-2.75-6.76-5.29-9.56-1.08-1.15-2.32-1.98-3.7-2.51-.88-.34-1.75-.62-2.62-.88-2.65-.77-5.35-1.18-8.15-1.28-2.15.13-4.31.1-6.42.38-2.39.31-4.73.9-7.09,1.31-2.67.44-5.09,1.54-7.4,2.83-3.47,1.9-6.01,4.8-7.73,8.37-.75,1.57-1.41,3.21-1.98,4.88-1.31,3.99-1.62,8.05-.23,12.08,1.36,3.9,3.42,7.45,5.65,10.86,1.75,2.68,4.24,4.68,7.3,5.79,1.72.61,3.44,1.23,5.19,1.72,3.08.87,6.16,1.43,9.45,1.08,1.41-.16,2.8-.39,4.14-.72,3.23-.72,6.26-1.96,8.96-4.09,1.57-1.23,3.26-2.54,4.32-4.21,3.34-5.19,5.86-10.77,6.42-17.03Zm-.74,16.8c.97,1.33,3.1,1.64,5.34,1.05-.49-2.11-1.85-3.36-3.62-4.19-1.47,1.9,1.38,1.78,1.15,3.24-.9-.03-1.72-.05-2.87-.1Zm-9.36,9.07c1.39,3.18,6.2,4.8,10.56,4.23-.61-3.36-1.26-6.65-3.93-9.32-.33.41-.59.72-.87,1.08.69.64,1.33,1.21,2,1.82-.31,1.7,1.52,3.21.49,5.19-1.44.34-2.8-.26-4.08-.8-1.37-.56-2.6-1.36-4.17-2.2Zm10.87-47.12c.85.87,1.77.87,2.72.08-.92-.03-1.82-.05-2.72-.08Zm2.54,2.72c-.12-.2-.25-.41-.38-.61-.9-.03-1.8-.05-2.65-.08.41.36.9.75,1.36,1.13-.28.39-.46.64-.64.9.11.05.18.1.26.15.67-.48,1.36-.97,2.05-1.49Zm4.83,37.33c-1.23-3.18-2.9-5.96-6.32-7.4-.15.39-.25.52-.23.62.05.18.16.41.29.46,1.61.77,2.51,2.16,3.54,3.55.46.64.98,1.15.77,1.92-.23.93-1.03,1.24-1.87,1.36-1.16.18-2.37.26-3.55.39,2.6.67,5.06.51,7.37-.9Zm-11.2,9.17c.54-2.59-1.13-3.77-2.39-5.19-.38.64-.46,1.03-.18,1.26.34.26.78.39,1.08.7.7.64.57,1.13-.3,1.46-.6-.49-1.11-.93-1.65-1.36-.82-.62-1.31-.31-1.77.72,1.75.82,3.42,1.59,5.21,2.41Zm10.54-47.93c-.52-.29-.77-.49-1.06-.6-.28-.07-.59-.07-.9-.12-.84,2.54-2.72,4.18-4.49,5.96,2.7-1.06,4.26-3.39,6.45-5.24Zm1.51,10.37c-1.95.39-3.72-.59-5.55-.36.11,1.67,1.88,1.06,2.42,2.24-1.06.31-1.98.59-3.14.92,1.24,1.16,1.88,1.29,2.8.72.41-.25.95-.41,1.24-.77.69-.9,1.92-1.33,2.23-2.75Zm0,15.31c-1.26-3.1-2.77-4.08-5.98-3.69.72,1.05,1.64,1.95,3,1.92,1.16-.05,1.06.44.9,1.08-1.16.1-2.21.16-3.24.26-.25.02-.48.15-.9.31.7.69,1.03,1.02,1.37,1.36.87-.28,1.64-.1,2.33-.23.88-.18,1.7-.67,2.52-1.01Zm3.52-15.31c-.31-.23-.59-.43-.72-.54-2.1,2.06-4.08,4.04-6.09,5.99,3.14-.8,5.22-2.75,6.81-5.45Zm-11.23,18.17c.93-3.55.96-7.17.9-10.77-.05-3.41-.54-6.78-2.08-9.91-.41-.9-.56-1.93-.79-2.91-.52-2.15-1.6-3.9-3.42-5.26-2.26-1.67-4.8-2.75-7.35-3.88-2.82-1.26-5.93-.95-8.91-1.31-2.18-.28-4.42.05-6.63.2-.72.05-1.44.44-2.16.47-5.19.28-9.84,2.08-14.18,4.85-1.05.67-2.21,1.23-3.11,2.08-3.52,3.29-5.55,7.5-6.83,12.1-.18.59-.23,1.23-.46,1.83-.52,1.18-.36,2.33-.05,3.52.1.41.36.79.46,1.2.08.34.05.7.08,1.06.05-3.55.66-6.97,2.05-10.2.8-1.85,1.54-3.78,2.65-5.42,1.05-1.52,2.54-2.73,3.85-4.06.41-.44.82-.95,1.34-1.18,1.87-.88,3.8-1.62,5.67-2.44.57-.26,1.11-.65,1.7-.8,1.62-.44,3.31-.69,4.93-1.21,2.85-.87,5.76-1.33,8.74-1.1,1.69.15,3.39.38,5.08.41,2.6.05,5.01.77,7.4,1.54,1.72.54,3.34,1.39,4.57,2.88,1.31,1.54,2.52,3.13,3.27,5.03.51,1.29.97,2.62,1.64,3.8,1.47,2.68,1.49,5.55,1.49,8.43-.02.98-.64,1.95.26,2.88.07.1,0,.61-.13.67-.87.41-.72,1.33-.57,1.79.39,1.16-.1,2.03-.51,3.01-.51,1.21-1,2.44-1.49,3.67-1.85,4.63-4.03,8.99-8.22,12-1.18.85-2.36,1.75-3.65,2.41-2.75,1.42-5.7,2.29-8.78,2.86-3.5.64-6.97.56-10.31-.34-4.36-1.18-8.78-2.36-12.33-5.5-.05.13-.12.24-.2.36,1.03.95,2.03,1.96,3.13,2.86,1.98,1.59,4.32,2.67,6.66,3.23,1.87.44,3.75.93,5.57,1.52.41.13.98.36,1.23.18,1.31-.88,2.83-.52,4.14-.59,2.83-.16,5.47-.93,8.14-1.54,1.83-.39,3.55-1.29,5.3-1.96,2.18-.87,3.77-2.33,5.18-3.88,3.32-3.57,5.5-7.86,6.73-12.58Zm13.18-18.37c-.74.97-1.36,1.85-2.03,2.7-1.31,1.72-3.18,2.64-5.03,3.59-.82.44-1.59.95-2.42,1.44,2.62,1.34,5.09,2.54,7.51,3.83.95.49,1.85,1.1,2.67,1.8.87.72.72,2.46-.34,2.9-3.46,1.39-6.52,3.7-10.61,4.16.83.9,1.44,1.7,2.19,2.37.95.84,1.46,1.87,1.85,3.03.28.87.61,1.72,1.77,1.51q-.03,1.9-1.52,2.44c-2.44.9-4.9,1.62-7.57.82-.57-.15-1.21-.05-2.06-.07.69,2.13,1.31,4.03,1.95,5.91.26.77.57,1.51.85,2.26.57,1.41-.03,2.36-1.57,2.39-2.77.05-5.55-.11-8.04-1.65-.79-.49-1.67-.79-2.57-1.23.95,5.32.57,10.69-.97,12.92-2.73-1.72-5.5-3.34-7.14-6.29-1.44-2.55-1.75-2.91-3.73-3.83-.87,1.64-1.72,3.34-2.62,4.98-.33.59-.77,1.18-1.28,1.62-1.78,1.59-3.6,3.11-5.53,4.78-2.41-3.55-3.34-7.53-2.93-11.87-1.69.87-3.26,1.77-4.88,2.57-.9.44-1.9.67-2.85,1.03-1.46.56-2.93,1.13-4.39,1.69-.28.13-.57.21-1.05.39-.16-3.91.02-7.55,1.41-11.13-3.68.42-7.04,1.8-10.95,2.14,2.03-3.39,2.34-7.27,5.48-10.1-4.11.28-7.43-1.51-11.15-2.72.84-1.65,2.08-2.98,3.08-4.47,1.03-1.57,3.01-1.75,4.42-2.98-1.21-.98-2.62-1.26-3.98-1.65-2.06-.59-3.78-1.74-5.37-3.13-.29-.26-.46-.69-.7-1.05,2.5-3.11,6.27-3.45,9.69-4.88-.41-.47-.64-.93-1.03-1.16-1.1-.69-1.57-1.8-2.16-2.83-.87-1.54-1.64-3.13-2.49-4.77.49-.78,1.18-1.19,2.29-1.21,2.18-.03,4.37-.23,6.68-.39.02-.38.1-.92.05-1.46-.26-2.19-.59-4.37-.82-6.58-.23-2.28.15-2.62,2.41-2.49.69.03,1.39-.1,2.08-.15,2.08-.16,3.88.84,5.76,1.49.36.1.72.15,1.2.28.26-3.44-.51-6.96,1.55-10.2.97.36,2,.74,3.03,1.13,1.18.44,2.41.72,3.52,1.28,1.08.57,2.08,1.37,3.08,2.09.44.3.85.64,1.41,1.07.08-.51.18-.74.16-.97-.29-2.47.84-4.57,1.67-6.76.28-.74.84-.87,1.61-.46,2.16,1.18,3.73,2.88,4.78,5.42,2.11-3.31,3.86-6.78,8.02-7.81,1.44.85,1.31.82,1.08,2.34-.39,2.36-.39,4.72.87,6.91.13.23.49.33.54.36,1.87-1.57,3.62-3.01,5.37-4.5.28-.23.41-.61.69-.87.46-.44,1-.8,1.62-1.31.62,1.77.67,3.44,1.05,4.98.52,2.06-.02,3.98,0,5.96.03.95.31,1.42,1.26,1.44.82,0,1.7.26,2.39,0,1.75-.64,3.39-.33,4.91.39.77.38,1.23.23,1.87-.18.34.61.65,1.15,1.06,1.9-1.03,1.15-2.03,2.36-3.14,3.47s-2.33,2.1-3.59,3.23c1.41,1.06,2.21.16,2.87-.18,1.21.34,2.21.77,3.24.88,1.34.1,2.36.56,3.31,1.49.39.36.98.51,1.7.51.18.51.36,1.03.51,1.44Zm-3.18,15.39c-1.29.69-2.49,1.54-3.83,2.03-1.28.48-2.7.59-4.32.92,1.88,1.13,3.45.8,4.99-.05,1.9-1.05,3.8-2.08,5.73-3.13-.59-1.62-1.21-2.16-2.67-2.73-.93-.33-1.78-.9-2.68-1.33-1-.52-2-1.06-3.05-1.47-.41-.15-.95,0-1.42,0,1.96,1.29,4.6,1.31,5.5,3.86.57.02,1.05.02,1.54.05.05.59.13,1.13.21,1.85Zm-1.39-16.88c-2.08-1.23-4.08-1.13-6.09-.28.98.23,2.01.28,3.01.36.97.07,1.95,1.15,3.08-.08Z"/>
    </g>
  </g>
</svg>