<?xml version="1.0" encoding="UTF-8"?>
<svg id="Layer_1" data-name="Layer 1" xmlns="http://www.w3.org/2000/svg" viewBox="0 0 136.06 136.06">
  <defs>
    <style>
      .cls-1 {
        fill: #fff;
      }

      .cls-2 {
        fill: #0c3454;
      }
    </style>
  </defs>
  <path class="cls-1" d="m55.07,47.05c-.18-.11-.38-.19-.52-.33-.61-.61-1.4-.91-2.25-1.1-.97-.22-1.95-.37-2.93-.56-1.05-.21-2.11-.29-3.14-.07-1.24.27-2.48.58-3.55,1.27-.27.17-.58.46-.83.43-.28-.03-.52-.37-.79-.55-1.03-.67-2.07-1.37-3.32-1.62-.71-.14-1.51-.12-2.24,0-.89.14-1.75.47-2.63.67-.36.08-.64.18-.63.67-.14-.21-.21-.32-.29-.43-.05.03-.09.07-.14.1.18.19.32.48.54.54.43.11.6.39.74.7.13.29.24.59.37.88.07.17.17.33.26.49-.03.02-.06.03-.09.05.12.06.23.11.35.17-.33.24.08.29.14.42.07.15.18.29.3.41.31.35.58.76.97,1.02.41.28.93.44,1.41.62.52.2,1.05.42,1.59.53.66.14,1.01.44,1.03,1.07,0,.14.02.3.09.42.38.66.79,1.32,1.19,1.97.31.51.43,1.07.34,1.64-.24,1.43-.03,2.84.13,4.26.11.99.34,1.97.37,2.95.03,1,.24,1.93.72,2.8.41.75.74,1.54,1.61,2.02.44.24.92.51,1.34.52.94.02,1.89-.16,2.84-.28.4-.05.59.05.54.44-.05.39-.25.76-.28,1.15-.07.77-.13,1.54-.1,2.31.04.97-.04,1.94,0,2.91.02.58.14,1.15.19,1.73.06.61.05,1.24.16,1.84.14.75.37,1.48.56,2.22.2.79.37,1.59.58,2.38.23.83.48,1.66.75,2.49.14.43.32.85.53,1.26.1.2.32.35.48.53.1.12.18.26.28.38.29.39.77.69.75,1.24-.03.76-.05,1.51-.11,2.27-.05.64-.14,1.28-.22,1.92,0,.01-.03.02-.03.04-.09,1.06-.18,2.12-.26,3.19-.05.66-.09,1.31-.13,1.98.24.18.51.39.82.63-.12.07-.26.15-.38.23.58.19,1.04.69,1.74.64.18-.01.35-.09.57-.15.23.22.39,0,.51-.21.41-.72.67-1.47.66-2.31-.03-1.65,0-3.3-.01-4.95,0-.79-.06-1.57-.1-2.36-.02-.48-.09-.95-.09-1.43,0-.28.09-.55.15-.94.59.39,1.07.71,1.5.99.03.38.08.74.07,1.1-.02.7-.11,1.39-.09,2.09.02.85.17,1.7.19,2.55.02.74-.08,1.48-.08,2.22,0,.72.11,1.44.07,2.16-.03.57-.11,1.08.61,1.36.27.1.51.3.72.5.72.66,1.73.24,2.04-.43.08-.18.19-.35.28-.53.31-.56.61-1.12.55-1.78-.03-.32,0-.65,0-.98.03-1.01.1-2.01.09-3.02-.02-.94-.13-1.87-.2-2.8-.02-.24-.04-.49-.06-.73-.06-.73-.11-1.46-.17-2.18.17.01.23.1.27.09.5-.09.96-.05,1.47.01.96.11,1.97-.07,2.95-.17.4-.04.78-.23,1.18-.32.56-.13,1.13-.23,1.7-.33.57-.1,1.15-.31,1.7-.27,1.05.08,2.09.31,2.98.67.84,2.64.74,5.38.94,8.11.12-.07.18-.11.24-.14-.03.19-.22.41-.18.45.38.43,0,.85.03,1.27.03.29.27.65.16.86-.21.37-.03.56.09.88.13.35.28.3.55.27.01.14.03.27.04.4.12.01.23,0,.33.04.36.12.67.11,1.06-.06.51-.22.52-.64.74-.98.33-.54.47-1.12.3-1.74-.06-.22-.09-.45-.1-.68-.01-.79.04-1.59-.02-2.38-.09-1.24-.26-2.47-.39-3.7-.03-.3-.06-.61-.11-.91-.08-.53-.18-1.05-.26-1.49,1-.69,1.86-1.38,2.86-1.64.17.18.25.33.39.41.33.2.47.46.38.81-.07.27-.05.52-.02.8.1,1.06.11,2.14.12,3.21,0,.51-.1,1.01-.08,1.52.02.51.12,1.02.19,1.53.03.21.08.42.09.63.05.71.13,1.42.11,2.13-.02.61-.18,1.21-.27,1.8.36.14.61.24.86.33.08.03.25.02.25.03,0,.37.3.28.53.28.31,0,.61,0,.92,0,.54.01.96-.24,1.15-.64.2-.44.28-.94.32-1.42.08-.82.1-1.64.14-2.46.06-1.25.16-2.49.16-3.74,0-1.07-.12-2.15-.19-3.22-.02-.29-.05-.58-.08-.87-.04-.46-.23-.91.14-1.36.57-.7.84-1.56.84-2.39,0-1.96.22-3.93-.17-5.88-.31-1.54-.6-3.08-.9-4.62-.15-.74-.25-1.49.09-2.21.15-.32.4-.61.6-.92.05.02.1.04.16.06.04.2.06.42.12.61.23.69.47,1.38.72,2.06.09.25.14.57.33.73.38.31.4.7.48.94.45.26.87.41,1.16.68.42.39,1.02.55,1.44.26.68-.47,1.12-1.12,1.29-1.86.17-.76.21-1.55.22-2.33.01-1.1-.05-2.2-.09-3.3-.02-.68-.07-1.35-.1-2.03,0-.07-.05-.15-.06-.22-.12-.65-.29-1.29-.33-1.94-.06-1-.51-1.87-1.14-2.63-.71-.85-1.55-1.61-2.37-2.37-.42-.39-.92-.71-1.42-1.02-.53-.32-1.1-.6-1.67-.88-.57-.29-1.11-.68-1.72-.81-1.29-.26-2.59-.52-3.93-.4-.23.02-.46.08-.69.09-1.69.04-3.39.07-5.08.09-.85,0-1.64.21-2.43.47-.78.26-1.57.52-2.38.63-.93.12-1.89.03-2.82.11-.93.08-1.86-.32-2.79,0-.06.02-.14.02-.2,0-.77-.31-1.56-.59-2.3-.95-.31-.15-.51-.48-.8-.68-1.45-1-1.89-2.25-1.3-3.76.08-.2.19-.39.26-.59.18-.5.6-.76,1.1-.9,1.53-.44,3.08-.82,4.35-1.78.82-.62,1.27-1.44,1.42-2.39.1-.62.12-1.25.26-1.86.07-.32-.02-.39-.33-.4-.34,0-.68.01-1.01-.03-1.37-.2-2.72-.45-4.12-.16-1.27.26-2.51.59-3.4,1.51-.37.39-.59.9-.92,1.43Z"/>
  <path class="cls-2" d="m55.07,47.05c.33-.53.55-1.04.92-1.43.89-.92,2.13-1.25,3.4-1.51,1.4-.29,2.75-.04,4.12.16.33.05.68.03,1.01.03.31,0,.4.07.33.4-.14.61-.16,1.24-.26,1.86-.15.95-.6,1.77-1.42,2.39-1.27.96-2.82,1.34-4.35,1.78-.5.14-.92.41-1.1.9-.07.2-.18.39-.26.59-.59,1.52-.15,2.77,1.3,3.76.29.2.49.53.8.68.74.36,1.53.64,2.3.95.06.02.14.03.2,0,.93-.32,1.86.08,2.79,0,.94-.08,1.9.01,2.82-.11.81-.11,1.6-.37,2.38-.63.79-.26,1.58-.46,2.43-.47,1.69-.02,3.39-.06,5.08-.09.23,0,.46-.07.69-.09,1.34-.12,2.65.14,3.93.4.61.13,1.16.52,1.72.81.56.28,1.13.56,1.67.88.5.3,1,.63,1.42,1.02.83.76,1.67,1.52,2.37,2.37.63.76,1.08,1.62,1.14,2.63.04.65.22,1.29.33,1.94.01.07.05.15.06.22.04.68.08,1.35.1,2.03.04,1.1.1,2.2.09,3.3,0,.78-.05,1.57-.22,2.33-.17.73-.6,1.39-1.29,1.86-.42.29-1.02.13-1.44-.26-.29-.27-.71-.42-1.16-.68-.07-.23-.1-.63-.48-.94-.19-.16-.24-.48-.33-.73-.25-.68-.49-1.37-.72-2.06-.07-.2-.08-.41-.12-.61-.05-.02-.1-.04-.16-.06-.2.3-.45.59-.6.92-.34.72-.24,1.47-.09,2.21.3,1.54.59,3.08.9,4.62.39,1.95.17,3.92.17,5.88,0,.84-.26,1.69-.84,2.39-.36.45-.17.9-.14,1.36.02.29.06.58.08.87.07,1.07.19,2.15.19,3.22,0,1.25-.1,2.49-.16,3.74-.04.82-.06,1.64-.14,2.46-.05.48-.12.98-.32,1.42-.19.41-.61.66-1.15.64-.31,0-.61,0-.92,0-.23,0-.53.09-.53-.28,0-.01-.17,0-.25-.03-.25-.09-.5-.19-.86-.33.09-.58.25-1.19.27-1.8.03-.71-.06-1.42-.11-2.13-.01-.21-.06-.42-.09-.63-.07-.51-.18-1.02-.19-1.53-.02-.5.09-1.01.08-1.52-.01-1.07-.02-2.14-.12-3.21-.03-.28-.05-.53.02-.8.09-.35-.05-.61-.38-.81-.13-.08-.22-.23-.39-.41-1.01.26-1.87.95-2.86,1.64.08.44.17.97.26,1.49.05.3.08.61.11.91.14,1.23.3,2.46.39,3.7.06.79,0,1.59.02,2.38,0,.23.04.46.1.68.17.62.03,1.2-.3,1.74-.21.34-.23.76-.74.98-.39.17-.69.18-1.06.06-.1-.03-.21-.02-.33-.04-.01-.13-.03-.26-.04-.4-.27.03-.42.09-.55-.27-.11-.32-.3-.51-.09-.88.12-.21-.13-.56-.16-.86-.04-.42.35-.84-.03-1.27-.04-.05.16-.27.18-.45-.06.04-.12.07-.24.14-.2-2.73-.1-5.47-.94-8.11-.9-.36-1.93-.59-2.98-.67-.56-.04-1.14.17-1.7.27-.57.1-1.14.2-1.7.33-.4.09-.78.28-1.18.32-.98.11-1.99.28-2.95.17-.51-.06-.98-.1-1.47-.01-.04,0-.1-.08-.27-.09.06.73.11,1.46.17,2.18.02.24.04.49.06.73.07.93.18,1.87.2,2.8.02,1-.06,2.01-.09,3.02,0,.33-.03.65,0,.98.06.66-.24,1.22-.55,1.78-.1.17-.2.35-.28.53-.3.67-1.32,1.09-2.04.43-.21-.19-.45-.39-.72-.5-.72-.28-.65-.78-.61-1.36.04-.72-.07-1.44-.07-2.16,0-.74.1-1.48.08-2.22-.02-.85-.17-1.7-.19-2.55-.02-.69.08-1.39.09-2.09,0-.36-.05-.72-.07-1.1-.43-.29-.91-.6-1.5-.99-.07.39-.16.67-.15.94,0,.48.07.95.09,1.43.04.79.09,1.57.1,2.36.02,1.65-.02,3.3.01,4.95.02.84-.25,1.59-.66,2.31-.12.21-.28.42-.51.21-.21.06-.39.14-.57.15-.69.04-1.16-.45-1.74-.64.12-.07.26-.15.38-.23-.31-.24-.59-.45-.82-.63.04-.67.08-1.32.13-1.98.08-1.06.17-2.12.26-3.19,0-.01.02-.02.03-.04.08-.64.17-1.28.22-1.92.06-.76.08-1.51.11-2.27.02-.55-.46-.85-.75-1.24-.09-.13-.17-.26-.28-.38-.15-.18-.37-.33-.48-.53-.21-.4-.39-.83-.53-1.26-.27-.82-.52-1.65-.75-2.49-.21-.79-.39-1.59-.58-2.38-.18-.74-.42-1.47-.56-2.22-.11-.6-.1-1.23-.16-1.84-.06-.58-.17-1.15-.19-1.73-.04-.97.04-1.94,0-2.91-.03-.77.03-1.54.1-2.31.04-.39.23-.76.28-1.15.05-.39-.14-.49-.54-.44-.94.12-1.89.3-2.84.28-.43,0-.91-.28-1.34-.52-.87-.49-1.2-1.27-1.61-2.02-.48-.88-.69-1.81-.72-2.8-.03-.99-.26-1.97-.37-2.95-.16-1.41-.37-2.83-.13-4.26.09-.56-.03-1.13-.34-1.64-.4-.66-.8-1.31-1.19-1.97-.07-.12-.09-.28-.09-.42-.02-.63-.36-.94-1.03-1.07-.55-.11-1.07-.33-1.59-.53-.48-.18-1-.34-1.41-.62-.39-.26-.65-.67-.97-1.02-.11-.13-.23-.26-.3-.41-.06-.13-.47-.18-.14-.42-.12-.06-.23-.11-.35-.17.03-.02.06-.03.09-.05-.09-.16-.18-.32-.26-.49-.13-.29-.23-.59-.37-.88-.15-.31-.31-.59-.74-.7-.22-.06-.36-.35-.54-.54.05-.03.09-.07.14-.1.07.11.14.21.29.43-.01-.49.27-.58.63-.67.88-.21,1.74-.53,2.63-.67.73-.11,1.52-.14,2.24,0,1.25.25,2.29.95,3.32,1.62.28.18.51.52.79.55.26.03.57-.26.83-.43,1.07-.69,2.32-1,3.55-1.27,1.03-.22,2.1-.14,3.14.07.97.19,1.96.35,2.93.56.84.19,1.64.49,2.25,1.1.14.14.34.22.52.33Zm-3.62,38.01c.34-.78.83-1.03,1.38-.75-.89.32-.95.41-.7.97.24.01.49.03.73.04,0,.04.01.09.02.13-.22.08-.36.35-.7.1-.08-.06-.27-.1-.32-.06-.07.06-.13.24-.08.31.5.67.69,1.54,1.59,1.98.7.34.97.37,1.57-.12.2-.17.47-.31.73-.37.35-.07.73-.05,1.15-.07.02.04.05.16.13.25.36.4.44,1.01,1.11,1.18.67.17,1.26.1,1.86-.24.73-.41,1.45-.9,2.4-.79.28.03.56.07.85.09,1.38.1,2.67-.32,4-.53,1.13-.18,2.3-.28,3.36-.64.92-.31,1.52-.15,2.25.35.51.34,1.22.51,1.86.58.94.1,1.89.15,2.73-.47.72-.53,1.46-1.06,2.42-1.22.39-.07.63.08.85.32.07.08.11.2.2.26.45.27.92.52,1.38.78.33.19.59.19.95-.03.77-.48,1.06-1.21,1.43-1.92.45-.88.14-1.7-.16-2.52-.05-.14-.11-.28-.16-.42.03-.02.07-.03.1-.05.16.12.32.24.55.41.13-.66.36-1.25.35-1.85,0-.85-.25-1.7-.27-2.55-.03-1.63-.54-3.19-.87-4.77-.22-1.09-.04-2.03.64-2.92.12-.15.35-.25.55-.31.04-.01.24.24.27.39.35,1.44.95,2.76,2.07,3.85.25.24.52.5.84.66.31.15.7.25.97-.12.31-.44.61-.88.91-1.33.04-.06.09-.14.09-.21,0-1.12-.01-2.24-.04-3.37-.02-.7-.15-1.39-.13-2.09.03-1.19-.08-2.37-.32-3.54-.03-.13-.1-.26-.18-.37-.4-.59-.79-1.2-1.22-1.76-.31-.41-.68-.78-1.06-1.14-.39-.37-.8-.72-1.24-1.03-.4-.29-.82-.65-1.29-.74-.77-.15-1.22-.72-1.88-1-.43-.18-.68-.69-1.28-.59-.1.02-.22-.03-.33-.04.03.11.06.22.1.32.13.3.25.59-.09.97-.04-.24-.07-.38-.08-.52-.05-.87-.05-.89-.97-1.14-.48-.13-.98-.18-1.48-.22-.67-.06-1.36-.2-2-.09-.77.13-1.53.11-2.29.17-1.21.09-2.43.16-3.7.24.16.61-.3,1.26.45,1.69-.67.14-.73.1-.72-.45.01-.4.06-.8.11-1.27-.89.24-1.79.48-2.68.73-.28.08-.54.28-.82.3-1.12.08-2.24.18-3.36.15-1.02-.03-2.07-.1-3.03-.36-.93-.25-1.79-.75-2.64-1.19-.2-.1-.46-.49-.4-.59.17-.28.06-.42-.12-.6-.16-.16-.31-.33-.52-.55,0,.33.02.58,0,.83-.01.1-.13.18-.2.27-.1-.07-.25-.12-.28-.21-.31-.98-.44-1.96-.06-2.96.18-.48.35-.98.49-1.47.08-.28,0-.61.14-.85.28-.48-.02-.88-.2-1.24-.19-.39-.36-.86-.89-1.04-.04-.01-.09-.07-.09-.11-.07-.63-.67-.68-1.14-.88-.12-.05-.31-.09-.35-.18-.35-.78-1.05-1.19-1.88-1.4-.94-.24-1.91-.39-2.87-.57-.73-.13-1.47-.35-2.21-.35-.74,0-1.51.15-2.21.37-.95.29-1.87.69-2.78,1.09-.35.16-.69.41-.93.69-.51.58-.85,1.28-1.57,1.7-.05.03-.08.1-.1.15-.35,1.19-.34,2.31.42,3.42.76,1.11,1.35,2.29,1.22,3.69-.08.88-.02,1.78-.01,2.66,0,.17.05.33.07.5.11.86.23,1.73.33,2.59.05.46.04.92.11,1.38.08.49.17.99.35,1.46.21.56.42,1.15.8,1.61.46.55.85,1.27,1.71,1.37.7.09,1.45.12,2.14,0,1.21-.22,2.4-.58,3.6-.88.32-.08.64-.17.97-.21.51-.07,1.04-.06,1.55-.15.76-.13,1.48.09,1.93.65.05.06.16.09.21.15.18.19.45.38.48.59.03.18-.23.56-.36.57-.24,0-.57-.16-.71-.35-.35-.44-.69-.82-1.35-.8-.12,0-.25-.15-.35-.23-.2.12-.41.28-.64.38-.14.06-.34,0-.5.05-.72.19-1.43.43-2.16.6-.7.17-.86.3-.92.98,0,.08,0,.16,0,.23,0,1.4-.02,2.8,0,4.19,0,.45.12.91.21,1.35.22,1.04.5,2.08.68,3.12.11.59.04,1.2.14,1.79.2,1.22.44,2.43.7,3.64.11.5.2,1.02.72,1.42Zm13.07-40.12c-.73.48-1.31,1.13-2.32.96-.08-.01-.16.03-.24.04-.66.08-1.32.18-1.98.23-.97.08-1.83.36-2.46,1.05-.4.43-.72.97-.5,1.55.25.66.6,1.28.92,1.93.62-.19,1.32-.39,2.02-.61,1.22-.38,2.41-.82,3.29-1.72.37-.38.67-.88.84-1.37.23-.66.3-1.36.44-2.07Zm-24.24,3.36c-.18-.02-.36-.02-.53-.06-.51-.15-1.02-.32-1.52-.5-.16-.06-.32-.14-.43-.25-.26-.23-.45-.55-.74-.73-.42-.24-.89-.44-1.37-.57-.71-.19-1.44-.33-2.16-.46-.12-.02-.31.05-.4.14-.05.06-.01.23.04.33.21.36.44.71.66,1.07.53.87.86,1.85,1.84,2.45.94.57,1.87,1.11,3.05,1.13.4,0,.55-.12.43-.5-.04-.12-.06-.3,0-.4.35-.55.74-1.08,1.13-1.65Zm41.34,40.22c-.03.27-.09.5-.09.72.02.57.06,1.15.1,1.72.13,1.88.27,3.77.41,5.65.03.46.27.71.71.72.46.02.79-.25.82-.69.05-.62.08-1.23.1-1.85.04-1.31.09-2.63.1-3.95,0-.75-.05-1.51-.11-2.26-.01-.15-.17-.28-.27-.45-.56.58-1.17.7-1.77.37Zm-28.17.98c-.03.57-.06,1.19-.1,1.82-.05.64-.11,1.28-.18,1.92-.07.59-.14,1.18-.26,1.77-.1.47-.38.91-.43,1.38-.05.48.08.97.13,1.47,1.11.35,1.9.32,2.33-.04-.03-.07-.11-.15-.11-.23.02-.92.04-1.85.08-2.77.01-.31.15-.62.14-.93-.02-.58-.11-1.16-.14-1.74-.05-.83-.06-1.66-.12-2.49,0-.12-.22-.33-.33-.33-.31,0-.63.1-1.01.17Zm4.98.3c0,.76,0,1.55,0,2.33,0,.25,0,.5,0,.75.04.78.1,1.57.13,2.35.02.7-.03,1.4.03,2.1.03.46.64.75,1.25.65.5-.09.21-.46.26-.71.02-.09,0-.19,0-.28.2-.94.22-1.89.09-2.83-.03-.23-.18-.44-.19-.66-.03-.69.02-1.38-.02-2.06-.02-.48-.11-.97-.21-1.45-.02-.11-.22-.26-.35-.26-.32-.01-.64.05-1.01.08Zm16.21-1.14c.06.58.09,1.18.21,1.77.13.63.33,1.23.17,1.89-.12.49-.09,1-.11,1.51-.01.44.04.88,0,1.32-.09.9,0,1.74.66,2.47.57-.25,1.11-.52,1.14-1.16.02-.38-.03-.76-.07-1.14-.1-.83-.25-1.66-.3-2.5-.05-.9-.04-1.8-.27-2.68-.11-.44-.15-.9-.22-1.35l-.14.1c-.31-.06-.63-.13-1.07-.22Zm-18.08-40.58c.11-.19.22-.32.26-.46.27-1.12,1.23-1.51,2.28-1.7,1.01-.19,2.05-.25,3.07-.39,1.04-.14,1.21-.24,1.68-.83-1.55-.23-3.08-.59-4.63-.15-.79.23-1.61.46-2.31.85-.79.43-1.2,1.18-1.45,2.04.35.2.71.42,1.11.65Zm-15.52-.3c-.28-.32-.44-.57-.67-.75-.46-.35-.96-.67-1.45-.99-.42-.27-.84-.55-1.28-.79-.28-.16-.62-.38-.91-.35-.81.07-1.62.24-2.42.38,0,.04,0,.09-.01.13.37.1.74.21,1.11.31.73.19,1.49.35,2.04.87.72.7,1.55,1.21,2.62,1.29.28.02.56-.05.97-.09Zm42.04,50.63c-.09.34-.38.62-.03,1.03.28-.2.53-.38.81-.58-.29-.17-.48-.28-.77-.45Zm-29.1.11c.04.38.08.71.13,1.17.34-.21.56-.35.78-.48-.3-.23-.56-.43-.9-.69Zm-1.35.06c.24.27.42.46.68.75v-.75h-.68Z"/>
  <path class="cls-1" d="m51.45,85.05c-.52-.39-.61-.92-.72-1.42-.26-1.21-.5-2.42-.7-3.64-.1-.59-.03-1.2-.14-1.79-.19-1.05-.46-2.08-.68-3.12-.1-.45-.2-.9-.21-1.35-.03-1.4,0-2.79,0-4.19,0-.08,0-.16,0-.23.06-.67.22-.81.92-.98.73-.17,1.44-.41,2.16-.6.16-.04.35,0,.5-.05.23-.1.44-.26.64-.38.11.07.23.23.35.23.67-.02,1.01.36,1.35.8.15.19.47.35.71.35.13,0,.39-.38.36-.57-.03-.21-.3-.4-.48-.59-.06-.06-.16-.08-.21-.15-.45-.56-1.17-.79-1.93-.65-.51.09-1.03.08-1.55.15-.33.04-.65.13-.97.21-1.2.3-2.38.66-3.6.88-.69.12-1.44.09-2.14,0-.86-.1-1.25-.82-1.71-1.37-.38-.46-.59-1.05-.8-1.61-.18-.47-.27-.97-.35-1.46-.07-.45-.06-.92-.11-1.38-.1-.87-.22-1.73-.33-2.59-.02-.17-.07-.33-.07-.5,0-.89-.07-1.78.01-2.66.13-1.39-.47-2.58-1.22-3.69-.76-1.11-.77-2.23-.42-3.42.02-.06.05-.12.1-.15.72-.41,1.06-1.12,1.57-1.7.24-.28.58-.53.93-.69.91-.4,1.82-.8,2.78-1.09.71-.22,1.47-.37,2.21-.37.74,0,1.47.21,2.21.35.96.18,1.93.33,2.87.57.83.21,1.53.62,1.88,1.4.04.09.22.13.35.18.47.2,1.07.24,1.14.88,0,.04.05.09.09.11.53.18.7.65.89,1.04.17.36.48.76.2,1.24-.14.24-.06.57-.14.85-.14.5-.31.99-.49,1.47-.37,1-.25,1.98.06,2.96.03.09.18.14.28.21.07-.09.19-.18.2-.27.03-.25,0-.5,0-.83.21.22.36.39.52.55.18.18.3.32.12.6-.06.1.2.48.4.59.86.44,1.71.94,2.64,1.19.97.26,2.01.33,3.03.36,1.12.03,2.24-.06,3.36-.15.28-.02.54-.22.82-.3.89-.25,1.79-.49,2.68-.73-.04.47-.09.87-.11,1.27-.01.55.05.58.72.45-.75-.44-.29-1.09-.45-1.69,1.27-.08,2.49-.15,3.7-.24.76-.06,1.53-.05,2.29-.17.64-.11,1.33.03,2,.09.5.04,1,.09,1.48.22.93.25.92.27.97,1.14,0,.14.04.28.08.52.34-.38.22-.67.09-.97-.05-.1-.07-.21-.1-.32.11.02.23.06.33.04.61-.1.86.41,1.28.59.66.28,1.11.85,1.88,1,.47.09.88.45,1.29.74.44.31.85.66,1.24,1.03.38.36.75.73,1.06,1.14.44.57.82,1.17,1.22,1.76.08.11.15.24.18.37.25,1.17.35,2.34.32,3.54-.02.69.11,1.39.13,2.09.03,1.12.04,2.24.04,3.37,0,.07-.05.15-.09.21-.3.44-.6.89-.91,1.33-.26.37-.66.27-.97.12-.32-.16-.59-.41-.84-.66-1.12-1.09-1.72-2.41-2.07-3.85-.04-.15-.23-.4-.27-.39-.2.06-.44.16-.55.31-.68.88-.86,1.82-.64,2.92.32,1.58.83,3.14.87,4.77.02.85.26,1.7.27,2.55,0,.59-.22,1.19-.35,1.85-.23-.17-.39-.29-.55-.41-.03.02-.07.03-.1.05.05.14.11.28.16.42.31.83.61,1.65.16,2.52-.36.71-.66,1.44-1.43,1.92-.35.22-.62.22-.95.03-.46-.26-.93-.51-1.38-.78-.09-.05-.13-.18-.2-.26-.22-.24-.46-.39-.85-.32-.96.16-1.7.69-2.42,1.22-.84.62-1.8.57-2.73.47-.64-.07-1.35-.24-1.86-.58-.74-.5-1.33-.66-2.25-.35-1.06.36-2.23.46-3.36.64-1.33.21-2.63.63-4,.53-.28-.02-.56-.06-.85-.09-.95-.11-1.67.38-2.4.79-.6.34-1.2.41-1.86.24-.67-.17-.75-.78-1.11-1.18-.08-.09-.11-.21-.13-.25-.42.02-.8,0-1.15.07-.26.05-.53.2-.73.37-.6.49-.87.46-1.57.12-.9-.44-1.09-1.31-1.59-1.98-.05-.06,0-.24.08-.31.04-.04.24,0,.32.06.34.25.49-.02.7-.1,0-.04-.01-.09-.02-.13-.24-.01-.49-.03-.73-.04-.25-.56-.18-.65.7-.97-.55-.28-1.04-.03-1.38.75Zm6.35-16.68c-.33-.13-.69-.23-.99-.4-.25-.15-.46-.38-.15-.67.03-.03.05-.11.03-.15-.02-.04-.12-.07-.15-.06-.14.1-.36.19-.39.32-.04.18,0,.44.14.56.26.24.57.45.9.6.19.09.55.21.58-.22.29,0,.35-.1.2-.34-.24-.39-.13-.75.15-1.1.07-.08.08-.2.16-.41-.84.56-.99,1.27-.5,1.87Zm8.65,15.24c-.11.3-.19.6-.33.89-.18.37,0,.9-.59,1.1-.04.01-.04.24.02.31.06.08.22.1.43.18.21-.65.45-1.32.64-2,.04-.13-.12-.31-.18-.46-.02-.2-.04-.39-.07-.58-.07-.44-.19-.88-.23-1.32-.03-.37.03-.75.06-1.12-.71.9-.54,2.36.26,3.01Zm-22.53-31.25c.01.06.08.24.07.41-.09,1.19-.2,2.38-.29,3.57-.08,1.02-.09,2.04-.23,3.05-.09.64-.27,1.26-.09,1.92.09.32.06.65-.38.86-.14.07-.24.44-.17.59.11.24.38.43.6.61.14.12.32.28.48.28.53,0,.75.32.89.69.16.39.24.81.39,1.21.04.1.25.23.32.2.45-.15.78-.36.85-.88.07-.53.32-1,1-1.18.41-.11.84-.29,1.16-.54.21-.16.32-.49.34-.75,0-.13-.3-.3-.48-.42-.13-.08-.3-.15-.46-.16-.81-.08-1.64-.5-2.44.04-.03.02-.09,0-.14-.01-.37-.02-.74-.05-1.11-.05-.25,0-.5,0-.52-.29-.03-.33-.05-.66-.01-.98.12-.95.33-1.9.39-2.86.11-1.8.14-3.61.22-5.41.05-.98-1.04-2.35-2.2-2.55-.25-.04-.49-.08-.74-.11-.62-.07-1.4.51-1.22.99.18.48.52.93.89,1.31.17.17.6.13.92.16.43.04.86.05,1.28.1.18.02.35.1.67.19Zm6.06,5.77c.07.03.14.05.22.08.08-.14.2-.27.23-.42.12-.49.21-.98.3-1.47.24-1.26.6-2.49,1.33-3.59.06-.1.22-.2.33-.2.3,0,.6.02.89.09.8.2,1.53.15,2.25-.28.5-.3.64-.89.27-1.31-.49-.55-1.04-.9-1.86-.75-.2.04-.41,0-.61,0-.57,0-1.1.41-1.27.93-.2.63-.44,1.26-.68,1.89-.17.44-.42.87-.53,1.32-.32,1.23-.58,2.48-.86,3.72Zm-6.08,6.38c-.06,0-.12.02-.18.03-.28.49-.35.98-.05,1.5.09.16.11.37.24.48.48.43,1.07.54,1.73.43.21-.04.43,0,.76,0,.22-.09.54-.27,1.03-.41.25-.07.77.2,1.17.1.69-.18,1.17-1.13,1.03-1.96-.19.24-.3.4-.44.53-.22.22-.45.56-.71.59-1.08.13-2.17.19-3.27.21-.61,0-.9-.28-1.08-.83-.07-.22-.16-.44-.24-.66Zm36.42-1.84s.12.06.19.02c.31-.17.53-.45.35-.75-.31-.49-.69-.97-1.11-1.39-.22-.21-.3-.34-.17-.61.12-.25.16-.52.23-.78-.05-.01-.11-.03-.16-.04-.48.54-.62,1.19-.58,1.87-.35-.2-.7-.4-1.04-.59-.08.06-.15.12-.23.19.88.32.97,1.07,1.2,1.74.05-.02.1-.04.15-.07.01-.25.03-.51.04-.65.28.01.51.04.74.03.27,0,.54-.01.56.29.01.21-.1.42-.18.74Zm-9.54-2.23c-.14.44-.06.68.26.9.27.19.49.44.81.73-.95.15-1.41-.43-1.88-.83-.53-.45-.51-1.16-.57-1.81-.12.14-.18.27-.2.4-.15.96.31,1.68,1.16,2.19.42.25.78.69,1.43.49.2-.06.41.09.38.36-.01.11.02.23.03.37.34-.24.38-.65.07-1.05-.45-.57-.94-1.11-1.48-1.73Zm6.42,2.6s.09-.03.13-.04c.07-1.02-.75-1.64-1.32-2.4-.32.28-.19.48.05.7.2.19.36.41.54.61-.02.04-.03.09-.05.13-.33-.04-.71,0-.98-.12-.75-.35-.85-.77-.49-1.52.12-.25.23-.49.35-.74-.05-.02-.1-.05-.15-.07-.14.16-.28.32-.42.48-.58.66-.34,1.74.48,2.12.69.32,1.08.29,1.39-.17.17.37.32.71.47,1.04Zm-19.19,14c-.44.38-.7.81-.65,1.37.03.39-.2.47-.56.38-.44-.12-.83-.84-.7-1.25.09-.28.16-.57.24-.85-.22.07-.34.16-.4.28-.16.35-.36.71-.39,1.08-.01.17.34.36.51.55.08.1.12.23.15.3.16.02.35,0,.45.08.5.38.52.38.82-.16.55-.09,1.05.73,1.69.01-.6.15-1.17.04-1.32-.41-.13-.4.08-.89.14-1.36Zm13.11-7.49c-.18-.17-.33-.25-.39-.38-.1-.22-.09-.5-.23-.69-.26-.36-.58-.68-.9-1-.03-.03-.2.02-.27.07-.03.02,0,.18.06.21.34.22.66.49.79.83.26.68.5,1.4.1,2.14.06.02.12.05.18.07.14-.16.28-.31.43-.47.35.95,1.05,1.85,1.46,1.85-.67-.82-1.23-1.68-1.22-2.64Zm-17.22,7.27c-.65.4-.67,1.01-.73,1.61-.02.18-.15.36-.22.54-.2-.19-.43-.36-.57-.57-.06-.1.05-.29.08-.44.04-.24.07-.49.1-.73-.2.15-.29.32-.37.48-.27.54-.44,1.08.2,1.5.17.11.44.15.65.12.17-.02.31-.2.45-.3-.09-.15-.15-.26-.21-.37.25.07.42.21.61.31.16.08.36.2.5.17.13-.03.22-.24.39-.44-.64.05-1.09-.07-1.1-.6-.01-.41.14-.83.22-1.26Zm19.2-17.33c-.74.55-1.21,1.61-.8,2.15.42.56,1.16.77,2.05.53v1.12c.06,0,.12,0,.18,0,.03-.23.05-.46.1-.68.12-.63-.34-1.51-.98-1.78-.09-.04-.24.03-.36.05.06.07.12.14.19.2.27.22.69.35.6.82-.15.01-.29.01-.42.04-.64.13-1.15-.34-1-.93.13-.48.28-.96.45-1.52Zm-11.58,4.5c.05.05.1.09.15.14.17-.1.43-.17.49-.31.43-1.08,1.03-2.19.14-3.28-.69-.86-1.71-1.28-3-1.46.13.19.17.29.23.31.3.11.64.16.92.3.48.24.98.5,1.39.83.56.43.65,1.04.52,1.68-.11.55-.05,1.15-.72,1.47-.08.04-.08.21-.12.32Zm3.12-3.98c-.74-.03-1.18.43-1.02.93.13.43.25.88.5,1.26.32.48.75.94,1.43,1.01.15.02.36-.1.47-.21.06-.06-.05-.25-.09-.38-.03-.08-.07-.16-.1-.25-.13-.36-.25-.73-.4-1.17-.51.63.07,1.05.24,1.56-.73-.02-1.05-.46-1.34-.88-.43-.63-.63-1.27.31-1.86Zm-7.34-1.1c-.06-.04-.13-.08-.19-.12-.14.14-.31.26-.41.43-.33.54-.22,1.07.04,1.61.41.86,1.23,1.3,2.08,1.6.43.15.97-.16,1.26-.57.11-.15.1-.37.14-.56-.18.01-.26.05-.29.11-.26.48-.75.76-1.24.59-.72-.26-1.32-.69-1.66-1.37-.3-.61-.29-1.19.26-1.72Zm-4.02,23.75s-.06.06-.09.09c.03.08.05.18.11.24.15.15.3.36.48.38.12.02.38-.23.4-.39.06-.41.1-.85,0-1.25-.12-.54-.37-1.06-.59-1.66-.31.33-.41.98-.23,1.1.72.49.35,1.16.49,1.81-.26-.15-.42-.24-.57-.33Zm18.98-14.93c.43.07.66.29.71.66.05.32.11.63.12.95,0,.18-.07.38-.14.56-.06.14-.16.27-.24.4.14-.02.28-.04.41-.08.06-.02.12-.07.15-.12.32-.56.27-1.16.1-1.74-.17-.6-.53-.83-1.14-.85-.07-.38-.13-.75-.2-1.12-.08,0-.15.02-.23.03-.1.56.18,1.09.25,1.65.06-.11.13-.23.19-.33Zm-4.82-8.19c-1.17.62-1.29,1.32-.87,2.11.51.96,1.7,1.44,2.46,1.03-.86-.13-1.57-.36-2.05-1.04-.59-.81.11-1.37.46-2.1Zm-8.38,9.09c-.55.12-.44.55-.49.87h-.77c.56.86.58,1.77.43,2.69.65-.71.22-1.55.41-2.32.11-.03.24-.07.25-.07.07-.45.12-.81.18-1.17Zm-2.55,3.63c.89-.77.52-2.19-.77-3.05-.03.05-.08.1-.1.15-.11.46.19.71.56.95.64.41.66,1.25,0,1.6.1.12.2.23.3.34Zm2.76,11.08c-1,.59-1.37,2.38-.75,3.5.11-.05.23-.09.33-.15.09-.04.16-.1.25-.15-.07-.04-.17-.07-.22-.13-.11-.12-.28-.25-.27-.37.05-.53.12-1.05.24-1.57.09-.38.27-.73.41-1.13Zm8.85-1.41c.66-.56.66-1.29.02-2.41-.2-.35-.46-.61-1.02-.54.26.42.93.56.63,1.14.13-.02.22-.06.25-.03.23.17.35,1.26.12,1.35-.5.19-.14.31,0,.49Zm-13.8-12.29c-.57.4-.45.9-.23,1.07.53.41.42.93.52,1.42.01.06-.07.14-.12.21-.12.15-.24.31-.36.46.08.06.15.11.23.17.15-.14.41-.25.43-.41.06-.36.08-.75,0-1.11-.11-.58-.31-1.15-.49-1.81Zm12.59-1.99s-.05.09-.08.14c1.21.84,1.68,1.98,1.54,3.44.14-.14.19-.17.2-.2.23-.62,0-1.19-.14-1.8-.15-.61-.54-1.04-1-1.42-.12-.1-.35-.11-.52-.16Zm-9.07-1.88c-.81-.95-.37-2.31.85-2.69-.14-.07-.31-.15-.45-.12-.65.14-.9.61-1.07,1.13-.2.58-.15,1.13.26,1.62.06.07.26.05.4.06Zm1.92,14.19s-.03.09-.04.14c.09.04.26.08.27.13.09.52.24,1.05.2,1.57-.02.22-.44.4-.66.62-.05.05-.04.16-.05.24.27-.06.61-.06.8-.21.18-.15.22-.46.31-.71.21-.63.02-1.38-.44-1.69-.1-.07-.26-.07-.38-.1Zm18.71-9.67c.17-.1.46-.17.51-.31.27-.77.08-1.54-.1-2.3-.08-.35-.46-.47-.74-.38.54.93.97,1.86.34,2.99Zm.09-8.68c-.28-.06-.64-.05-.83-.21-.23-.19-.39-.51-.45-.79-.14-.7-.03-.88.55-1.16-.61-.16-1.1.13-1.01.67.08.47.26.93.48,1.36.21.41.97.45,1.26.13Zm-22.06,14.55c-.22-.16-.4-.23-.48-.35-.45-.64-.34-1.23.28-1.73.06-.05.05-.22,0-.3-.05-.09-.18-.15-.37-.29-.18.35-.35.67-.5.99-.24.52.1.96.26,1.43.14.4.39.38.8.25Zm12.33,3.32c.29,0,.69-.27.84.16.1.29.41.39.52.6.13.26.08.59.12.89.01.11.06.22.09.33.08-.08.19-.15.23-.25.23-.58-.33-1.78-.95-2.04-.33-.14-.77.02-.84.32Zm12.87-10.16c.63.21.81.16.86-.21.1-.68-.08-1.31-.54-1.85-.1-.12-.42-.11-.64-.1-.09,0-.17.16-.26.25.66-.08,1.17.67,1.12,1.59-.16.09-.32.18-.54.31Zm-21.07,7.46c-.6.26-.97.72-.98,1.27-.01.41.26.82.4,1.25.27-.04.48-.07.68-.09l.1-.09c-.58-.17-.91-.51-.78-1.01.12-.46.38-.88.58-1.32Zm.11,9.24h.13c.27-1.01.53-2.01.8-3.02-.05-.01-.09-.02-.14-.03-.76.74-.55,1.8-.96,2.66-.04.09.11.26.17.39Zm15.89-7.14s.09,0,.14,0c.19-1.08.37-2.15.56-3.23-.38.3-.66.65-.67,1.14-.01.54-.07,1.07-.09,1.61,0,.16.04.32.07.48Zm4.09-9.09c.57-.89,0-2.02-.7-2.51-.1-.07-.33.02-.51.03.61.37,1.2,1.34,1.12,1.92,0,.06,0,.13-.04.18-.22.28-.22.27.13.38Zm1.13,11.54c-.23.28-.39.48-.61.76.75-.13,1-.48.92-1.02-.05-.31-.09-.64-.21-.93-.12-.31-.12-.74-.65-.79.19.7.38,1.37.55,1.99Zm-6.8-2.42c-.01.13-.04.23-.02.25.38.21.41.56.43.9.04.47.41,1.01-.31,1.35-.04.02,0,.15,0,.27.32-.11.71-.05.74-.44.06-.85.15-1.71-.85-2.34Zm-14.45-7.06s.2-.07.22-.15c.24-.81.16-1.6-.22-2.36-.04-.07-.22-.09-.34-.13-.03.11-.13.23-.09.31.07.16.27.4.27.44.1.6.11,1.22.15,1.89Zm22.4,7.55c.39,1.01.74,1.91,1.13,2.89.23-.92-.33-2.45-1.13-2.89Zm-30.71-5.63l.16.1c.11-.19.35-.41.31-.57-.14-.59-.36-1.18-.59-1.75-.08-.19-.29-.34-.45-.5-.07.06-.2.13-.19.17.07.22.18.42.27.63,0,.01.03.02.04.03.54.5.73,1.28.45,1.89Zm-2.04-.59c.51.18.64.15.75-.19.06-.2.08-.44.04-.64-.1-.49-.24-.98-.37-1.48-.26.22-.3.8-.15,1.11.1.22.15.5.11.74-.02.16-.24.29-.38.46Zm12.2,13.05c.08-.54.09-1.01.22-1.44.12-.43.36-.83.55-1.24-.9.17-1.44,1.8-.77,2.68Zm2.66-10.59c-.8.51-1.04,1.72-.48,2.46.1.14.39.37.61-.01-1.07-.77-.23-1.62-.12-2.45Zm13.23,1.32c.76.08,1.43-1.53,1.28-2.5-.09.11-.19.17-.22.26-.1.27-.15.56-.27.82-.24.49-.52.96-.78,1.43Zm7.39-8.45c-.02.48.49.18.65.38.08-.09.2-.17.25-.28.26-.55,0-1.04-.28-1.51-.18-.29-.91-.23-1.16.16.46-.27.71-.15.96.2.25.35.32.67.14,1.05h-.56Zm-2.64-1.01c.83.32,1.04.53,1.11.91.08.44-.17.63-.58.71.11.32.25.34.55.18.32-.17.31-.39.34-.65.12-.91-.36-1.5-1.41-1.15Zm-22.19-2.81c-.57.29-.9.71-.97,1.25-.05.37-.02.74,0,1.11,0,.07.2.19.3.18.12,0,.23-.13.42-.24-.21-.04-.31-.06-.41-.07-.16-.72.14-1.32.51-1.91.06-.1.09-.21.14-.32Zm1.82,17.87s.07.04.14.03c.39-.03.38-.31.43-.57.09-.52.22-1.04.28-1.56.01-.11-.22-.24-.34-.36,0,.11.02.21.02.32,0,.11-.01.22-.04.33-.15.58-.32,1.16-.49,1.8Zm7.1-10.71c-1.08-.86-.45-1.87-.29-2.89-.5.32-.74,1.21-.64,2.01.06.49.44.7.93.89Zm.52,10c-.92.22-.84,1.65.15,2.83-.34-.99-.59-1.87-.15-2.83Zm-7.6-10.12c.55-.94.27-1.95.31-2.93,0-.03-.15-.06-.31-.11v3.04Zm-7.84,12.32c-.13.1-.3.17-.38.29-.17.28-.22.68-.46.87-.3.24-.08.36.04.44.31.2.66.34,1,.5.05-.08.14-.2.23-.34-.99-.14-1.03-.36-.43-1.76Zm24.26-1.87c.99-.03.8-.68.92-1.09.16-.56-.19-1.24-.72-1.5.27.88.68,1.74-.2,2.58Zm-22.1-1.99c-.09.54-.28,1.06.07,1.58.2.3.25.66-.21.9-.06.03-.06.15-.09.24.18.02.32.04.47.05.34-.97.02-1.87-.25-2.77Zm16.32-1.01c-.12.18-.6.15-.17.46.06.05.05.2.05.31-.02.55-.06,1.1-.09,1.7.25.09.34-.1.39-.35.04-.19.1-.39.09-.58-.03-.49.18-1.01-.27-1.54Zm-8.81-11.16c-.65.85-.71,2.75-.21,3.04.07-.96.14-1.96.21-3.04Zm-12.72,11.85c-.34.47-.37.75-.23,1.45.02.1-.12.22-.19.33-.09.12-.19.23-.29.35.04.05.08.1.13.14.14-.07.33-.11.41-.22.46-.61.25-1.31.28-1.97,0-.02-.05-.04-.1-.09Zm28.1-14.03c-.35-.62.01-.96.36-1.33.29-.31.55-.65.45-1.17-.26.3-.48.52-.66.76-.2.26-.38.53-.54.82-.23.42-.13.75.38.93Zm-21.43-6.38c-.51.39-.01.7.05,1.01.05.23.64.43.98.36.67-.14.78-.22.78-.59-1.3.36-1.65.22-1.82-.78Zm-1.2,24.4s-.08-.04-.12-.06c-.19.34-.37.68-.57,1.01-.32.52-.1.93.32,1.3.04.04.17.03.23,0,.07-.04.12-.13.19-.22-.16-.04-.28-.06-.49-.11.15-.66.29-1.29.44-1.92Zm18.68-13.84c.05.04.11.08.16.11.12-.13.31-.25.33-.39.1-.6.19-1.21.22-1.81.02-.32-.13-.38-.53-.37.22.83.28,1.65-.19,2.46Zm-14.37,4.92c.03-.05.05-.1.08-.15-.72,0-.57-.39-.47-.72.1-.3.27-.59.38-.89.04-.11,0-.25,0-.38-.18.07-.26.15-.31.24-.29.49-.63.98-.49,1.58.03.13.17.29.31.35.13.05.33-.01.49-.03Zm13.56,3.89c.14-.84.27-1.67.41-2.47-.66.16-.97,1.9-.41,2.47Zm.38-12.8s.09,0,.14,0c.41-.6.43-1.23.07-1.84-.09-.15-.41-.2-.64-.24-.07-.01-.19.16-.28.25,0,.05.01.09.02.14.51-.31.6.04.7.3.07.19.04.41.04.61,0,.26-.03.52-.04.78Zm-7.99,9.59c-.75.56-.86,2.03-.27,2.65.01-.43-.09-.87-.05-1.3.04-.45.21-.9.32-1.34Zm6.87-6.83c-.55,1.02-.21,2.26.58,2.93-.51-.93-.6-1.92-.58-2.93Zm-6.15-7.57c.12.26.2.46.31.64.12.2.31.37.41.58.18.36.31.74.5,1.2.17-1.07-.39-2.24-1.23-2.42Zm9.74,21.16s-.1.01-.15.02c-.19.65-.07,1.29.14,1.92.02.08.32.08.49.12,0-.13.04-.26,0-.38-.1-.36-.24-.71-.35-1.06-.06-.2-.08-.41-.12-.62Zm2.03-10.76c.07,0,.14,0,.21,0-.15-.87-.29-1.73-.46-2.71-.42,1.02-.17,1.87.25,2.71Zm-6.73-5.71c.12-.06.28-.09.35-.19.24-.32.14-1.08-.2-1.44-.17-.18-.33-.49-.87-.15.28.12.56.25.89.39-.31.17-.44.24-.56.3.02.04.03.08.05.13.12-.03.23-.07.43-.13-.03.32-.05.64-.09,1.07Zm14.8,2.9c.03-.09.14-.22.11-.32-.16-.53-.32-1.07-.56-1.57-.2-.41-.31-.38-.54-.11.35.7.67,1.35,1,1.99Zm-37.27,8.22l-.16-.05c-.13.28-.27.55-.39.84-.28.7-.04,1.14.74,1.36.1.03.23-.06.35-.09-.07-.06-.14-.14-.23-.18-.55-.23-.65-.45-.5-1.02.07-.28.12-.57.18-.85Zm25.89,2.84c.55.64.58,1.28-.08,1.9.59.04.87-.25.87-.8.01-.91-.14-1.14-.79-1.11Zm-7.62-1.68c.32-.81.6-1.51.87-2.2-.67.1-1.22,1.26-.87,2.2Zm-17.52-9.69c-.63.01-1.43.61-1.49,1.17-.02.19,0,.44.12.58.07.09.37.02.67.02-.66-.42-.49-.76.7-1.77Zm23.9,15.88c-.04-.8.55-1.56.15-2.42-.18.83-.81,1.58-.15,2.42Zm8.91-19.1c-.57-.3-.76-.64-.64-1.09.08-.32.21-.64.3-.96.02-.07-.02-.16-.04-.24-.07,0-.14-.01-.2-.02-.15.45-.36.89-.42,1.35-.09.66.22.96,1.01.96Zm-10.84,9.94c.16-.05.33-.11.54-.18-.93-.58-.31-1.55-.81-2.18-.23.8-.26,1.57.27,2.36Zm-7.47-6.79c-.06,0-.11,0-.17,0-.18.88-.36,1.76-.55,2.65.39.11.43-.26.49-.48.12-.42.17-.87.22-1.3.03-.29,0-.58,0-.87Zm16.67,6.31l.15-.05c.04-.81-.28-1.54-.73-2.23-.02-.03-.08-.06-.12-.06-.07,0-.14,0-.21,0,.01.06.01.12.04.18.21.51.42,1.03.62,1.54.08.21.16.41.24.62Zm-17.71,6.93s.1-.03.15-.04c-.07-.75-.14-1.49-.23-2.35-.46.49-.32,2.09.08,2.39Zm-1.08-8.68c-.39.26-.62,1.58-.44,1.86.18.29.47.36.74.13-.54-.23-.44-.65-.39-1.06.03-.31.06-.62.09-.93Zm3.14-2.99c-.05,0-.11-.01-.16-.02-.39.62-.31,1.32-.21,1.99.03.21.36.37.58.59-.12-.5-.26-.9-.3-1.31-.03-.41.05-.83.08-1.25Zm14.95-4.21c-.65-.75.14-1.36.16-2.04-.76.33-1,1.41-.48,2.19.11-.05.22-.1.33-.15Zm-6.77,20.43c.55.09.99.21,1.43.23.36.01.65-.71.49-1.26-.24.3-.39.64-.67.79-.31.17-.73.16-1.25.25Zm-12.37-9.85c-.43.4-.67.85-.6,1.42.04.31.03.59.51.52.07-.01.14.02.21.03-.03-.07-.07-.15-.1-.22-.07-.18-.2-.37-.19-.54.02-.4.11-.8.17-1.21Zm-1.69-13.54c-.04-.05-.08-.1-.12-.15-.11.09-.23.16-.33.26-.39.39-.49,1.05-1.22,1.14.19.37.56.38.81.03.3-.41.57-.85.85-1.28Zm18.86,14.39c.96-.24,1.66-1.54,1.24-2.24-.43.74-.36,1.66-1.24,2.24Zm-2.55-11.73c.39.09.55-.21.67-.49.2-.46,0-1.18-.25-1.35-.13.59-.27,1.21-.41,1.84Zm-4.5,10.74c-.85.62-1.17,1.76-.66,2.17.21-.7.43-1.41.66-2.17Zm-6.14-12.02c-.5.16-.68,1.03-.38,1.65.12.24.68.34.99.18-.84-.34-.85-.36-.61-1.83Zm-1.21.48c-.79.56-1.03,1.53-.58,1.99.21-.09.41-.18.61-.27-.44-.1-.55-.32-.39-.72.11-.29.21-.58.36-1Zm-11.86,10.48c.05,0,.1-.01.16-.02-.12-.76-.24-1.52-.36-2.28-.05,0-.11.01-.16.02-.41.82.12,1.54.36,2.28Zm22.06-2.58c-.05,0-.11.02-.16.02-.24,1.06-.22,1.18.3,1.77.2-.11.4-.22.61-.33-.55,0-.64-.29-.66-.66,0-.27-.06-.54-.1-.8Zm-30.73-23.07c-.51.7-.33,2.06.28,2.17-.09-.72-.18-1.45-.28-2.17Zm35.68,32.7h-.25c.06.7.13,1.39.19,2.08.09,0,.17-.01.26-.02.39-.72-.17-1.37-.2-2.06Zm-17.87-17.21c-.07-.04-.14-.09-.22-.13-.26.33-.58.64-.77,1.01-.1.19,0,.51.11.71.08.13.37.15.57.22.02-.04.03-.08.05-.11-.58-.41-.62-.37-.14-1.12.13-.2.26-.39.4-.58Zm5.77-1.05c-.45.9.63,1.1.79,1.71.02.09.25.14.38.21.03-.03.07-.07.1-.1-.41-.59-.83-1.18-1.27-1.81Zm13.3-2.81c-.93-.4-.19-1.14-.37-1.67-.43.21-.61.89-.39,1.48.15.41.46.46.76.19Zm-22.69,12.02c-.59.04-.91.65-.8,1.44.04.29.27.44.63.39-.76-.67,0-1.22.17-1.83Zm28.67-3.29l-.16.05c.27.67.55,1.34.82,2.02.27-.46-.12-1.67-.66-2.06Zm-2.04-6.28c-.07,0-.14-.02-.21-.03-.15.63-.45,1.27.06,1.95.21-.13.4-.24.59-.35-.54-.05-.65-.22-.53-.75.06-.27.06-.55.09-.82Zm3.06,5.34c.44-.04.49-.25.51-.53.03-.66-.16-1.2-.86-1.68.13.8,1.01,1.39.36,2.21Zm-6.35,13.2c-.06.02-.12.03-.18.05.07.57.14,1.14.22,1.81.29-.2.45-.32.54-.38-.21-.54-.4-1.01-.58-1.48Zm.48-5.76c.07.79-.61,1.11-1.12,1.53.49.36.69-.19,1.02-.29.32-.1.36-.83.1-1.24Zm-9.56,5.97c-.71.57-.91,1.36-.47,1.88.17-.69.32-1.28.47-1.88Zm-2.66-18.22c-.1.82.61,1.26.68,1.96.37-.38.01-1.37-.68-1.96Zm-7.33-1.89c-.33.73.12,1.46,0,2.19.3-.73.28-1.46,0-2.19Zm6.63,12.17c-.92-.27-.21-1.17-.82-1.55v1.55h.82Zm13.36-13.99c-.13.59-.08,1.14.31,1.62.21.26.35.22.45.09-.28-.63-.52-1.17-.76-1.72Zm-4.38,13.55c-.28-.51-.56-1-.86-1.54-.25,1.21.35,1.73.86,1.54Zm1.54.05c.32-.43-.32-1.73-.94-1.79.32.61.63,1.2.94,1.79Zm-13.69,12.07c.08,0,.17,0,.25-.01.14-.48.29-.96.43-1.43-.38-.01-.53.14-.8.94-.05.14.08.34.12.51Zm10.32-17.14c-.36.58-.21,1.59.33,2.1-.1-.66-.21-1.32-.33-2.1Zm-11.25,3.84c-.05,0-.1,0-.16,0-.06.52-.11,1.04-.17,1.55.22.1.38.17.55.25-.08-.62-.15-1.21-.23-1.8Zm-13.16-4.36c-.08-.01-.16-.03-.24-.04-.12.34-.28.67-.33,1.02-.02.14.17.36.33.45.1.06.32-.06.48-.1,0-.04,0-.08.01-.13-.6-.09-.58-.37-.36-.75.08-.13.07-.3.11-.46Zm-2.54,7.55c.1.04.2.07.29.11.26-.59.51-1.19.77-1.78l-.25-.09c-.27.59-.54,1.18-.82,1.77Zm37.07-10.9c.15-.17.34-.3.32-.39-.12-.48-.29-.95-.44-1.43-.06.58-.27,1.15.12,1.82Zm-4.8-5.26h-.2c0,.43-.03.84.01,1.25.02.17.18.32.27.48.03-.17.07-.33.09-.5.01-.09.01-.19,0-.28-.05-.32-.12-.64-.18-.96Zm-9.8-.7c-.07-.58-.12-1.06-.18-1.55-.05,0-.09.02-.14.02.08.54-.47,1.08.01,1.62.16-.05.3-.1.3-.1Zm3.89-1.23c-.42.03-.87.67-.66,1,.05.07.17.16.25.15.08,0,.2-.11.22-.19.08-.32.13-.65.19-.96Zm-30.85-6.48c.26-.08.48-.16.21-.44-.06-.06-.07-.17-.08-.25-.05-.34-.09-.69-.14-1.12-.35.66-.25,1.23.02,1.82Zm15.52,19.03c.08-.49.15-.94.23-1.38-.63.57-.73,1.19-.23,1.38Zm9.84,13.91c-.07-.02-.13-.04-.2-.05-.15.33-.31.65-.45.99-.04.1,0,.22,0,.33.12-.04.32-.05.35-.12.12-.37.2-.76.3-1.14Zm-20.34-34.56c-.48.18-.69.76-.51,1.44.5-.44.22-1.02.51-1.44Zm38.2,14.99c.43-.32.23-.97-.39-1.29.14.45.26.84.39,1.29Zm.49,7.58c.06,0,.12.02.18.03.03-.14.08-.28.09-.42.01-.33.04-.68-.44-.98.07.54.12.96.17,1.37Zm-15.79-5.85c-.05,0-.1.02-.15.03,0,.32-.02.64.01.95,0,.08.16.15.25.22.08-.08.23-.18.22-.25-.09-.32-.22-.64-.33-.95Zm5.43,11.53c-.37.32-.26.63-.05.9.07.08.29.07.52.11-.19-.4-.31-.68-.47-1.01Zm6.99-6.99c.07,0,.13,0,.2,0,.31-.37.29-.74-.11-1.13-.03.4-.06.76-.09,1.12Zm-.78-9.66c-.13-.38-.23-.69-.34-1.01-.32.48-.17.9.34,1.01Zm-12.1,24.13c.18.14.37.28.64.48.09-.37.15-.6.23-.88-.31.14-.56.26-.86.4Zm4.2-6.66c.03-.41.05-.73.07-1.06-.04,0-.09-.01-.13-.02-.13.28-.27.56-.39.81.14.08.23.14.45.26Zm-1.78-20.38s-.05-.08-.08-.12c-.35.07-.79.02-.72.64.27-.17.53-.35.8-.52Zm2.19.43c.6-.22.47-.55.44-.91-.5.16-.32.53-.44.91Zm1.7-.16c.09,0,.19,0,.28-.01-.03-.33-.06-.65-.09-.98-.07,0-.13,0-.2,0v.98Zm8.2,14.77c-.15-.27-.29-.52-.5-.89-.09.87-.04.96.5.89Zm-1.21-12.49c-.06,0-.12.01-.19.02.06.29.12.58.21.99.39-.46.12-.73-.02-1.01Zm-2.81,8.95l-.17-.06c-.08.14-.2.28-.22.43-.01.1.11.22.17.33.07-.1.18-.2.21-.31.04-.13,0-.27,0-.4Zm-1.96.19c-.47.36-.46.5.09.9-.03-.34-.06-.58-.09-.9Zm-35.15-19.1c.52-.19.21-.52.26-.77,0-.01-.15-.05-.26-.09v.86Zm.89-.83c.02.29.04.58.06.87.06,0,.12-.01.18-.02.08-.3.2-.61-.24-.86Zm1.32,1.14c.04-.26.08-.47.1-.67,0-.02-.16-.05-.25-.07.03.23-.34.49.15.75Z"/>
  <path class="cls-1" d="m64.52,44.93c-.14.71-.22,1.42-.44,2.07-.17.49-.47.98-.84,1.37-.88.89-2.07,1.34-3.29,1.72-.7.22-1.4.42-2.02.61-.31-.65-.67-1.27-.92-1.93-.22-.59.1-1.12.5-1.55.63-.68,1.49-.97,2.46-1.05.66-.05,1.32-.15,1.98-.23.08,0,.17-.05.24-.04,1.01.17,1.59-.48,2.32-.96Z"/>
  <path class="cls-1" d="m40.27,48.29c-.39.57-.77,1.1-1.13,1.65-.06.1-.04.27,0,.4.12.37-.04.5-.43.5-1.18-.02-2.11-.56-3.05-1.13-.98-.6-1.31-1.58-1.84-2.45-.22-.36-.45-.71-.66-1.07-.06-.1-.1-.28-.04-.33.09-.09.27-.16.4-.14.73.13,1.46.26,2.16.46.48.13.95.32,1.37.57.3.17.49.49.74.73.12.11.28.2.43.25.5.18,1.01.35,1.52.5.16.05.35.04.53.06Z"/>
  <path class="cls-1" d="m81.62,88.5c.6.32,1.21.2,1.77-.37.1.16.26.3.27.45.06.75.11,1.51.11,2.26,0,1.32-.06,2.63-.1,3.95-.02.62-.06,1.23-.1,1.85-.03.44-.36.7-.82.69-.44-.01-.68-.26-.71-.72-.14-1.88-.27-3.76-.41-5.65-.04-.57-.08-1.15-.1-1.72,0-.22.05-.45.09-.72Z"/>
  <path class="cls-1" d="m53.45,89.48c.39-.07.7-.17,1.01-.17.11,0,.32.21.33.33.06.83.07,1.66.12,2.49.03.58.13,1.16.14,1.74,0,.31-.12.62-.14.93-.04.92-.06,1.85-.08,2.77,0,.08.07.15.11.23-.43.35-1.22.39-2.33.04-.05-.49-.18-.99-.13-1.47.05-.47.32-.91.43-1.38.13-.58.19-1.17.26-1.77.07-.64.13-1.28.18-1.92.05-.63.07-1.25.1-1.82Z"/>
  <path class="cls-1" d="m58.43,89.79c.37-.04.69-.1,1.01-.08.12,0,.32.15.35.26.1.48.19.96.21,1.45.03.69,0,1.38.02,2.06,0,.22.16.44.19.66.14.95.11,1.89-.09,2.83-.02.09,0,.19,0,.28-.05.25.24.63-.26.71-.62.11-1.22-.19-1.25-.65-.05-.7,0-1.4-.03-2.1-.03-.78-.09-1.57-.13-2.35-.01-.25,0-.5,0-.75,0-.78,0-1.57,0-2.33Z"/>
  <path class="cls-1" d="m74.64,88.65c.45.09.76.16,1.07.22l.14-.1c.07.45.1.91.22,1.35.23.88.22,1.78.27,2.68.05.83.2,1.66.3,2.5.04.38.09.76.07,1.14-.03.64-.56.91-1.14,1.16-.66-.72-.76-1.56-.66-2.47.04-.43-.01-.88,0-1.32.02-.5-.01-1.02.11-1.51.16-.66-.04-1.26-.17-1.89-.12-.59-.15-1.19-.21-1.77Z"/>
  <path class="cls-1" d="m56.56,48.07c-.4-.23-.76-.45-1.11-.65.24-.86.66-1.61,1.45-2.04.71-.38,1.52-.62,2.31-.85,1.55-.45,3.09-.09,4.63.15-.46.6-.64.69-1.68.83-1.02.14-2.06.2-3.07.39-1.06.2-2.01.59-2.28,1.7-.04.14-.15.27-.26.46Z"/>
  <path class="cls-1" d="m41.04,47.77c-.41.04-.69.11-.97.09-1.07-.08-1.9-.59-2.62-1.29-.55-.53-1.31-.68-2.04-.87-.37-.1-.74-.21-1.11-.31,0-.04,0-.09.01-.13.81-.13,1.61-.31,2.42-.38.29-.02.63.2.91.35.44.24.86.52,1.28.79.49.32.99.64,1.45.99.23.18.39.43.67.75Z"/>
  <path class="cls-1" d="m83.08,98.4c.29.17.48.28.77.45-.27.2-.53.38-.81.58-.34-.41-.06-.69.03-1.03Z"/>
  <path class="cls-1" d="m53.98,98.51c.34.26.6.46.9.69-.21.13-.44.27-.78.48-.05-.46-.09-.8-.13-1.17Z"/>
  <path class="cls-1" d="m52.63,98.57h.68v.75c-.26-.29-.43-.48-.68-.75Z"/>
  <path class="cls-2" d="m43.91,52.36c-.32-.09-.49-.17-.67-.19-.43-.05-.86-.05-1.28-.1-.32-.03-.75.01-.92-.16-.38-.37-.71-.83-.89-1.31-.18-.48.59-1.06,1.22-.99.25.03.49.07.74.11,1.17.2,2.25,1.57,2.2,2.55-.09,1.8-.11,3.61-.22,5.41-.06.96-.27,1.91-.39,2.86-.04.32-.01.66.01.98.02.3.27.29.52.29.37,0,.74.03,1.11.05.05,0,.11.03.14.01.8-.54,1.63-.12,2.44-.04.16.01.33.08.46.16.19.12.49.28.48.42-.01.26-.13.6-.34.75-.33.25-.75.43-1.16.54-.68.18-.93.64-1,1.18-.07.51-.4.73-.85.88-.07.02-.28-.11-.32-.2-.15-.4-.23-.82-.39-1.21-.15-.36-.36-.68-.89-.69-.16,0-.34-.16-.48-.28-.22-.19-.49-.37-.6-.61-.07-.16.03-.53.17-.59.44-.21.47-.54.38-.86-.18-.66,0-1.28.09-1.92.14-1.01.15-2.03.23-3.05.09-1.19.2-2.38.29-3.57.01-.17-.06-.35-.07-.41Zm-1.17-.75s.08.07.13.11c.17-.09.34-.18.51-.26-.13-.15-.27-.3-.48-.54-.07.32-.12.51-.16.69Z"/>
  <path class="cls-2" d="m49.97,58.13c.28-1.24.55-2.49.86-3.72.12-.45.37-.88.53-1.32.24-.63.47-1.25.68-1.89.17-.52.69-.93,1.27-.93.2,0,.41.03.61,0,.82-.15,1.38.21,1.86.75.37.42.23,1.01-.27,1.31-.71.43-1.45.47-2.25.28-.29-.07-.59-.09-.89-.09-.11,0-.27.11-.33.2-.73,1.11-1.09,2.33-1.33,3.59-.09.49-.18.99-.3,1.47-.04.15-.15.28-.23.42-.07-.03-.14-.05-.22-.08Zm3.07-6.99c-.32.37-.56.64-.82.94.71.29.81.17.82-.94Zm1.58.84c.44-.3.39-.61-.16-.88.05.31.1.57.16.88Z"/>
  <path class="cls-2" d="m43.89,64.51c.08.22.17.44.24.66.17.55.47.84,1.08.83,1.09-.02,2.18-.08,3.27-.21.26-.03.48-.38.71-.59.14-.14.25-.3.44-.53.14.83-.34,1.78-1.03,1.96-.4.1-.92-.17-1.17-.1-.49.13-.82.32-1.03.41-.33,0-.55-.03-.76,0-.66.12-1.25,0-1.73-.43-.13-.12-.15-.33-.24-.48-.3-.52-.23-1.01.05-1.5.06,0,.12-.02.18-.03Z"/>
  <path class="cls-2" d="m80.32,62.67c.08-.32.19-.53.18-.74-.02-.3-.3-.3-.56-.29-.23,0-.46-.02-.74-.03,0,.15-.02.4-.04.65-.05.02-.1.04-.15.07-.23-.67-.32-1.43-1.2-1.74.08-.06.15-.12.23-.19.34.2.68.39,1.04.59-.05-.68.1-1.32.58-1.87.05.01.11.03.16.04-.07.26-.12.54-.23.78-.13.27-.05.4.17.61.43.42.8.89,1.11,1.39.19.3-.04.58-.35.75-.07.04-.21-.02-.19-.02Z"/>
  <path class="cls-2" d="m70.77,60.43c.53.62,1.03,1.16,1.48,1.73.31.4.26.81-.07,1.05-.01-.14-.05-.25-.03-.37.03-.27-.18-.43-.38-.36-.65.2-1.01-.23-1.43-.49-.84-.51-1.31-1.22-1.16-2.19.02-.13.08-.26.2-.4.06.65.04,1.36.57,1.81.47.4.93.98,1.88.83-.32-.29-.54-.54-.81-.73-.32-.22-.4-.46-.26-.9Z"/>
  <path class="cls-2" d="m77.2,63.03c-.15-.34-.3-.67-.47-1.04-.31.46-.7.5-1.39.17-.82-.38-1.06-1.46-.48-2.12.14-.16.28-.32.42-.48.05.02.1.05.15.07-.12.25-.23.5-.35.74-.37.76-.27,1.17.49,1.52.28.13.65.09.98.12.02-.04.03-.09.05-.13-.18-.21-.34-.43-.54-.61-.23-.22-.37-.41-.05-.7.58.76,1.39,1.38,1.32,2.4-.04.01-.09.03-.13.04Z"/>
  <path class="cls-2" d="m58,77.03c-.06.48-.28.97-.14,1.36.15.46.72.57,1.32.41-.64.72-1.14-.11-1.69-.01-.3.55-.32.55-.82.16-.1-.08-.29-.05-.45-.08-.03-.07-.07-.2-.15-.3-.17-.2-.53-.38-.51-.55.03-.37.23-.73.39-1.08.05-.12.18-.21.4-.28-.08.28-.15.57-.24.85-.13.41.25,1.13.7,1.25.35.1.59.01.56-.38-.05-.56.21-.98.65-1.37Z"/>
  <path class="cls-2" d="m71.11,69.54c0,.96.55,1.82,1.22,2.64-.41,0-1.11-.9-1.46-1.85-.14.16-.28.32-.43.47-.06-.02-.12-.05-.18-.07.4-.74.16-1.45-.1-2.14-.13-.34-.45-.61-.79-.83-.05-.03-.09-.19-.06-.21.07-.05.24-.1.27-.07.31.32.64.64.9,1,.14.19.13.47.23.69.06.12.21.21.39.38Z"/>
  <path class="cls-2" d="m53.89,76.81c-.08.44-.23.85-.22,1.26.01.53.46.65,1.1.6-.17.2-.25.41-.39.44-.15.03-.35-.08-.5-.17-.19-.1-.36-.24-.61-.31.06.11.12.22.21.37-.14.1-.29.28-.45.3-.21.03-.48,0-.65-.12-.64-.42-.47-.96-.2-1.5.08-.16.17-.33.37-.48-.03.24-.07.49-.1.73-.02.15-.14.34-.08.44.14.22.37.38.57.57.08-.18.21-.35.22-.54.06-.61.07-1.22.73-1.61Z"/>
  <path class="cls-2" d="m73.09,59.48c-.17.56-.32,1.04-.45,1.52-.15.59.36,1.06,1,.93.13-.03.26-.03.42-.04.09-.46-.33-.59-.6-.82-.07-.06-.12-.13-.19-.2.12-.02.27-.09.36-.05.64.28,1.1,1.15.98,1.78-.04.23-.07.45-.1.68-.06,0-.12,0-.18,0v-1.12c-.89.25-1.62.03-2.05-.53-.41-.53.06-1.6.8-2.15Z"/>
  <path class="cls-2" d="m61.51,63.98c.04-.11.04-.28.12-.32.67-.32.61-.93.72-1.47.13-.64.04-1.24-.52-1.68-.42-.33-.91-.58-1.39-.83-.28-.14-.62-.19-.92-.3-.06-.02-.1-.12-.23-.31,1.29.19,2.31.61,3,1.46.89,1.09.29,2.2-.14,3.28-.06.14-.32.21-.49.31-.05-.05-.1-.09-.15-.14Z"/>
  <path class="cls-2" d="m64.63,60c-.94.59-.74,1.24-.31,1.86.29.42.61.87,1.34.88-.17-.52-.74-.93-.24-1.56.15.44.27.81.4,1.17.03.08.08.16.1.25.04.13.15.32.09.38-.11.11-.32.23-.47.21-.68-.07-1.11-.53-1.43-1.01-.25-.37-.37-.83-.5-1.26-.16-.5.28-.97,1.02-.93Z"/>
  <path class="cls-2" d="m57.29,58.9c-.55.53-.56,1.1-.26,1.72.34.68.93,1.11,1.66,1.37.49.17.97-.11,1.24-.59.03-.06.11-.1.29-.11-.04.19-.04.41-.14.56-.29.41-.83.73-1.26.57-.85-.31-1.68-.75-2.08-1.6-.26-.54-.36-1.07-.04-1.61.1-.16.27-.28.41-.43.06.04.13.08.19.12Z"/>
  <path class="cls-2" d="m53.27,82.66c.16.09.31.18.57.33-.14-.66.23-1.33-.49-1.81-.19-.13-.09-.77.23-1.1.22.6.47,1.12.59,1.66.09.4.05.84,0,1.25-.02.15-.29.4-.4.39-.18-.02-.33-.24-.48-.38-.06-.06-.07-.16-.11-.24.03-.03.06-.06.09-.09Z"/>
  <path class="cls-2" d="m72.25,67.73c-.06.1-.12.22-.19.33-.07-.56-.35-1.09-.25-1.65.08,0,.15-.02.23-.03.06.37.13.75.2,1.12.61.02.96.25,1.14.85.17.58.22,1.17-.1,1.74-.03.05-.09.11-.15.12-.13.04-.28.05-.41.08.08-.13.18-.26.24-.4.07-.18.15-.37.14-.56,0-.32-.08-.63-.12-.95-.06-.37-.28-.59-.71-.66Z"/>
  <path class="cls-2" d="m67.42,59.54c-.35.72-1.05,1.29-.46,2.1.49.68,1.2.91,2.05,1.04-.76.41-1.95-.07-2.46-1.03-.42-.79-.3-1.49.87-2.11Z"/>
  <path class="cls-2" d="m59.04,68.63c-.05.36-.11.72-.18,1.17,0,0-.14.04-.25.07-.19.77.24,1.61-.41,2.32.15-.93.13-1.83-.43-2.69h.77c.05-.32-.06-.75.49-.87Z"/>
  <path class="cls-2" d="m56.49,72.26c-.1-.11-.2-.22-.3-.34.65-.35.63-1.19,0-1.6-.37-.24-.67-.49-.56-.95.01-.05.06-.1.1-.15,1.29.85,1.66,2.28.77,3.05Z"/>
  <path class="cls-2" d="m59.25,83.34c-.15.39-.33.75-.41,1.13-.12.52-.19,1.04-.24,1.57-.01.12.16.26.27.37.05.06.14.09.22.13-.08.05-.16.11-.25.15-.11.06-.22.1-.33.15-.63-1.13-.26-2.92.75-3.5Z"/>
  <path class="cls-2" d="m68.1,81.93c-.13-.18-.49-.3,0-.49.23-.08.1-1.18-.12-1.35-.03-.03-.13.01-.25.03.3-.58-.37-.72-.63-1.14.56-.07.82.19,1.02.54.64,1.11.65,1.85-.02,2.41Z"/>
  <path class="cls-2" d="m54.3,69.65c.18.66.38,1.23.49,1.81.07.36.06.75,0,1.11-.03.15-.28.27-.43.41-.08-.06-.15-.11-.23-.17.12-.15.24-.3.36-.46.05-.07.13-.15.12-.21-.1-.49.01-1.01-.52-1.42-.22-.17-.35-.67.23-1.07Z"/>
  <path class="cls-2" d="m66.89,67.65c.18.05.4.06.52.16.47.39.86.81,1,1.42.14.6.37,1.18.14,1.8-.01.03-.06.06-.2.2.14-1.47-.33-2.6-1.54-3.44.03-.05.05-.09.08-.14Z"/>
  <path class="cls-2" d="m57.82,65.77c-.14-.02-.34,0-.4-.06-.42-.49-.46-1.04-.26-1.62.18-.52.43-.99,1.07-1.13.14-.03.3.05.45.12-1.22.37-1.66,1.74-.85,2.69Z"/>
  <path class="cls-2" d="m59.74,79.96c.13.03.28.03.38.1.46.3.65,1.05.44,1.69-.08.25-.12.55-.31.71-.18.15-.53.15-.8.21.02-.08,0-.19.05-.24.22-.21.65-.4.66-.62.04-.52-.11-1.05-.2-1.57-.01-.06-.18-.09-.27-.13.01-.05.03-.09.04-.14Z"/>
  <path class="cls-2" d="m78.45,70.29c.63-1.12.2-2.06-.34-2.99.29-.1.66.03.74.38.18.76.37,1.53.1,2.3-.05.14-.33.21-.51.31Z"/>
  <path class="cls-2" d="m78.54,61.62c-.28.32-1.05.28-1.26-.13-.22-.43-.4-.9-.48-1.36-.09-.54.4-.83,1.01-.67-.58.28-.7.46-.55,1.16.06.28.22.6.45.79.19.16.55.15.83.21Z"/>
  <path class="cls-2" d="m56.48,76.17c-.41.13-.67.15-.8-.25-.16-.47-.5-.91-.26-1.43.15-.32.32-.64.5-.99.19.14.32.2.37.29.04.08.05.25,0,.3-.62.5-.73,1.09-.28,1.73.09.12.26.2.48.35Z"/>
  <path class="cls-2" d="m68.82,79.49c.07-.3.51-.46.84-.32.62.26,1.18,1.46.95,2.04-.04.1-.15.17-.23.25-.03-.11-.07-.22-.09-.33-.04-.3,0-.63-.12-.89-.11-.21-.42-.31-.52-.6-.15-.43-.55-.15-.84-.16Z"/>
  <path class="cls-2" d="m81.68,69.33c.22-.13.38-.22.54-.31.05-.92-.46-1.67-1.12-1.59.09-.09.17-.25.26-.25.22,0,.54-.02.64.1.46.53.64,1.17.54,1.85-.05.36-.22.42-.86.21Z"/>
  <path class="cls-2" d="m60.61,76.78c-.2.44-.46.87-.58,1.32-.13.49.21.84.78,1.01l-.1.09c-.2.03-.41.06-.68.09-.15-.42-.42-.84-.4-1.25.02-.55.38-1.01.98-1.27Z"/>
  <path class="cls-2" d="m60.71,86.03c-.06-.13-.21-.3-.17-.39.41-.86.2-1.91.96-2.66.05.01.09.02.14.03-.27,1-.53,2.01-.8,3.01h-.13Z"/>
  <path class="cls-2" d="m76.6,78.89c-.02-.16-.07-.32-.07-.48.02-.54.08-1.07.09-1.61.01-.49.29-.83.67-1.14-.19,1.08-.37,2.15-.56,3.23-.05,0-.09,0-.14,0Z"/>
  <path class="cls-2" d="m80.7,69.8c-.35-.1-.34-.1-.13-.38.04-.04.03-.12.04-.18.08-.59-.51-1.55-1.12-1.92.17-.01.41-.1.51-.03.7.49,1.27,1.61.7,2.51Z"/>
  <path class="cls-2" d="m81.83,81.34c-.17-.61-.36-1.29-.55-1.99.53.04.52.48.65.79.12.29.16.62.21.93.08.54-.17.89-.92,1.02.22-.28.39-.48.61-.76Z"/>
  <path class="cls-2" d="m75.03,78.92c1.01.62.92,1.49.85,2.34-.03.38-.42.32-.74.44,0-.12-.03-.25,0-.27.72-.34.34-.88.31-1.35-.03-.34-.06-.69-.43-.9-.03-.01,0-.11.02-.25Z"/>
  <path class="cls-2" d="m60.58,71.85c-.04-.67-.05-1.28-.15-1.89,0-.05-.2-.28-.27-.44-.04-.08.06-.21.09-.31.12.04.3.05.34.13.38.76.46,1.56.22,2.36-.03.09-.2.13-.22.15Z"/>
  <path class="cls-2" d="m82.98,79.4c.79.45,1.36,1.97,1.13,2.89-.38-.98-.73-1.88-1.13-2.89Z"/>
  <path class="cls-2" d="m52.27,73.77c.28-.61.1-1.39-.45-1.89-.01-.01-.03-.02-.04-.03-.1-.21-.2-.41-.27-.63-.01-.04.12-.11.19-.17.15.17.37.31.45.5.23.57.45,1.15.59,1.75.04.16-.2.38-.31.57l-.16-.1Z"/>
  <path class="cls-2" d="m50.23,73.17c.14-.16.35-.3.38-.46.04-.24,0-.51-.11-.74-.14-.31-.11-.89.15-1.11.13.5.27.98.37,1.48.04.21.02.44-.04.64-.11.34-.24.37-.75.19Z"/>
  <path class="cls-2" d="m62.44,86.22c-.67-.88-.13-2.51.77-2.68-.19.41-.42.81-.55,1.24-.13.43-.14.89-.22,1.44Z"/>
  <path class="cls-2" d="m65.1,75.64c-.11.83-.94,1.68.12,2.45-.22.39-.51.15-.61.01-.55-.75-.32-1.96.48-2.46Z"/>
  <path class="cls-2" d="m66.44,83.61c-.8-.65-.97-2.11-.26-3.01-.02.37-.08.75-.06,1.12.03.44.15.88.23,1.32.03.19.05.39.07.58h.02Z"/>
  <path class="cls-2" d="m66.43,83.62c.07.16.22.33.18.46-.19.68-.42,1.34-.64,2-.21-.08-.37-.1-.43-.18-.06-.07-.06-.3-.02-.31.58-.2.4-.73.59-1.1.14-.28.22-.59.33-.89,0,0-.02.01-.02.01Z"/>
  <path class="cls-2" d="m78.33,76.95c.26-.47.54-.94.78-1.43.13-.26.17-.55.27-.82.03-.09.13-.15.22-.26.16.97-.52,2.58-1.28,2.5Z"/>
  <path class="cls-2" d="m85.72,68.5h.56c.18-.37.11-.69-.14-1.05-.25-.35-.5-.47-.96-.2.25-.39.97-.46,1.16-.16.29.47.54.95.28,1.51-.05.11-.16.19-.25.28-.16-.2-.67.1-.65-.38Z"/>
  <path class="cls-2" d="m83.08,67.49c1.05-.35,1.53.24,1.41,1.15-.03.26-.02.49-.34.65-.3.16-.44.13-.55-.18.41-.08.66-.27.58-.71-.07-.39-.28-.59-1.11-.91Z"/>
  <path class="cls-2" d="m60.89,64.68c-.05.11-.08.22-.14.32-.37.59-.67,1.19-.51,1.91.1.02.2.04.41.07-.19.12-.3.24-.42.24-.1,0-.3-.11-.3-.18-.03-.37-.06-.75,0-1.11.07-.54.4-.96.97-1.25Z"/>
  <path class="cls-2" d="m62.71,82.56c.17-.64.34-1.22.49-1.8.03-.11.04-.22.04-.33,0-.11-.01-.21-.02-.32.12.12.35.25.34.36-.06.52-.18,1.04-.28,1.56-.05.26-.04.54-.43.57-.07,0-.15-.03-.14-.03Z"/>
  <path class="cls-2" d="m69.81,71.85c-.48-.18-.87-.39-.93-.89-.1-.79.15-1.68.64-2.01-.16,1.02-.8,2.03.29,2.89Z"/>
  <path class="cls-2" d="m70.33,81.85c-.44.96-.19,1.84.15,2.83-.99-1.18-1.07-2.61-.15-2.83Z"/>
  <path class="cls-2" d="m62.73,71.73v-3.04c.16.06.31.09.31.11-.04.98.24,1.99-.31,2.93Z"/>
  <path class="cls-2" d="m54.89,84.05c-.6,1.4-.56,1.61.43,1.76-.09.14-.18.26-.23.34-.34-.16-.69-.31-1-.5-.12-.08-.34-.2-.04-.44.24-.19.29-.58.46-.87.07-.12.25-.19.38-.29Z"/>
  <path class="cls-2" d="m79.16,82.18c.88-.84.47-1.7.2-2.58.53.26.88.94.72,1.5-.12.41.07,1.05-.92,1.09Z"/>
  <path class="cls-2" d="m57.06,80.19c.27.9.59,1.8.25,2.77-.16-.02-.3-.03-.47-.05.03-.08.03-.21.09-.24.45-.23.41-.6.21-.9-.36-.52-.16-1.05-.07-1.58Z"/>
  <path class="cls-2" d="m73.38,79.19c.45.52.25,1.05.27,1.54.01.19-.05.39-.09.58-.05.25-.14.44-.39.35.03-.6.06-1.15.09-1.7,0-.1.02-.26-.05-.31-.43-.31.05-.29.17-.46Z"/>
  <path class="cls-2" d="m64.58,68.03c-.08,1.08-.15,2.08-.21,3.04-.49-.28-.44-2.18.21-3.04Z"/>
  <path class="cls-2" d="m51.86,79.88c.06.05.11.07.1.09-.04.67.17,1.36-.28,1.97-.08.11-.27.15-.41.22-.04-.05-.08-.1-.13-.14.1-.12.2-.23.29-.35.08-.1.21-.23.19-.33-.14-.71-.11-.99.23-1.45Z"/>
  <path class="cls-2" d="m79.97,65.85c-.51-.18-.61-.5-.38-.93.15-.28.34-.56.54-.82.18-.24.4-.46.66-.76.1.52-.16.87-.45,1.17-.35.37-.71.7-.36,1.33Z"/>
  <path class="cls-2" d="m58.53,59.48c.17,1.01.52,1.14,1.82.78,0,.37-.12.45-.78.59-.34.07-.94-.13-.98-.36-.07-.31-.57-.62-.05-1.01Z"/>
  <path class="cls-2" d="m57.33,83.88c-.14.63-.29,1.26-.44,1.92.21.04.33.07.49.11-.08.09-.12.18-.19.22-.06.03-.18.04-.23,0-.43-.36-.64-.77-.32-1.3.2-.33.38-.67.57-1.01.04.02.08.04.12.06Z"/>
  <path class="cls-2" d="m76,70.04c.47-.8.4-1.63.19-2.46.4-.01.55.05.53.37-.03.61-.12,1.21-.22,1.81-.02.14-.22.26-.33.39-.05-.04-.11-.08-.16-.11Z"/>
  <path class="cls-2" d="m61.64,74.96c-.17.01-.36.08-.49.03-.14-.05-.28-.21-.31-.35-.14-.6.19-1.09.49-1.58.05-.09.13-.16.31-.24,0,.13.03.26,0,.38-.11.3-.28.58-.38.89-.1.33-.25.71.47.72-.03.05-.05.1-.08.15Z"/>
  <path class="cls-2" d="m75.2,78.85c-.57-.58-.25-2.31.41-2.47-.13.81-.27,1.63-.41,2.47Z"/>
  <path class="cls-2" d="m75.57,66.06c.01-.26.04-.52.04-.78,0-.2.03-.43-.04-.61-.09-.25-.18-.6-.7-.3,0-.05-.01-.09-.02-.14.09-.09.21-.26.28-.25.23.04.55.09.64.24.37.61.34,1.25-.07,1.84-.05,0-.09,0-.14,0Z"/>
  <path class="cls-2" d="m67.58,75.65c-.11.45-.28.89-.32,1.34-.04.43.06.87.05,1.3-.59-.61-.49-2.09.27-2.65Z"/>
  <path class="cls-2" d="m74.45,68.82c-.03,1.01.07,2.01.58,2.93-.79-.67-1.13-1.91-.58-2.93Z"/>
  <path class="cls-2" d="m68.3,61.25c.83.18,1.4,1.35,1.23,2.42-.19-.46-.32-.84-.5-1.2-.1-.21-.29-.38-.41-.58-.11-.18-.19-.38-.31-.64Z"/>
  <path class="cls-2" d="m78.04,82.41c.04.21.06.42.12.62.11.36.25.71.35,1.06.03.12,0,.25,0,.38-.17-.04-.46-.04-.49-.12-.2-.63-.33-1.27-.14-1.92.05,0,.1-.01.15-.02Z"/>
  <path class="cls-2" d="m80.07,71.65c-.42-.84-.67-1.69-.25-2.71.16.97.31,1.84.46,2.71-.07,0-.14,0-.21,0Z"/>
  <path class="cls-2" d="m73.34,65.94c.04-.43.06-.75.09-1.07-.2.06-.31.09-.43.13-.02-.04-.03-.08-.05-.13.12-.07.24-.13.56-.3-.33-.15-.61-.27-.89-.39.53-.34.69-.04.87.15.34.36.44,1.12.2,1.44-.07.09-.23.13-.35.19Z"/>
  <path class="cls-2" d="m88.14,68.84c-.32-.65-.65-1.29-1-1.99.23-.28.34-.3.54.11.25.5.4,1.04.56,1.57.03.1-.08.24-.11.32Z"/>
  <path class="cls-2" d="m50.87,77.06c-.06.28-.11.57-.18.85-.15.58-.05.79.5,1.02.09.04.15.12.23.18-.12.03-.25.11-.35.09-.78-.22-1.01-.65-.74-1.36.11-.28.26-.56.39-.84l.16.05Z"/>
  <path class="cls-2" d="m76.76,79.91c.65-.03.8.19.79,1.11,0,.54-.28.84-.87.8.66-.63.64-1.27.08-1.9Z"/>
  <path class="cls-2" d="m69.14,78.22c-.35-.94.2-2.1.87-2.2-.27.69-.55,1.39-.87,2.2Z"/>
  <path class="cls-2" d="m51.62,68.53c-1.18,1-1.35,1.35-.7,1.77-.31,0-.6.07-.67-.02-.12-.14-.15-.39-.12-.58.07-.56.86-1.16,1.49-1.17Z"/>
  <path class="cls-2" d="m75.52,84.42c-.66-.85-.03-1.6.15-2.42.39.86-.19,1.62-.15,2.42Z"/>
  <path class="cls-2" d="m84.43,65.32c-.79,0-1.09-.3-1.01-.96.06-.46.27-.9.42-1.35.07,0,.14.01.2.02.01.08.06.16.04.24-.09.32-.22.63-.3.96-.11.45.07.8.64,1.09Z"/>
  <path class="cls-2" d="m73.59,75.26c-.53-.79-.5-1.57-.27-2.36.5.63-.12,1.61.81,2.18-.21.07-.38.13-.54.18Z"/>
  <path class="cls-2" d="m66.12,68.47c0,.29.03.58,0,.87-.05.44-.1.88-.22,1.3-.06.22-.1.59-.49.48.18-.89.37-1.77.55-2.65.06,0,.11,0,.17,0Z"/>
  <path class="cls-2" d="m82.79,74.78c-.08-.21-.16-.41-.24-.62-.21-.51-.42-1.03-.62-1.54-.02-.06-.03-.12-.04-.18.07,0,.14-.02.21,0,.04,0,.1.03.12.06.45.69.77,1.42.73,2.23l-.15.05Z"/>
  <path class="cls-2" d="m65.08,81.71c-.4-.29-.54-1.9-.08-2.39.08.86.15,1.6.23,2.35-.05.01-.1.03-.15.04Z"/>
  <path class="cls-2" d="m64,73.03c-.03.31-.06.62-.09.93-.04.41-.15.83.39,1.06-.27.23-.56.16-.74-.13-.18-.28.05-1.61.44-1.86Z"/>
  <path class="cls-2" d="m67.14,70.05c-.03.42-.11.84-.08,1.25.03.41.18.81.3,1.31-.22-.21-.55-.38-.58-.59-.1-.67-.18-1.37.21-1.99.05,0,.11.01.16.02Z"/>
  <path class="cls-2" d="m82.08,65.84c-.11.05-.22.1-.33.15-.51-.78-.28-1.86.48-2.19-.02.67-.81,1.29-.16,2.04Z"/>
  <path class="cls-2" d="m75.32,86.27c.52-.09.94-.08,1.25-.25.28-.15.43-.49.67-.79.16.55-.13,1.28-.49,1.26-.44-.02-.88-.14-1.43-.23Z"/>
  <path class="cls-2" d="m62.94,76.42c-.06.4-.15.8-.17,1.21,0,.18.12.36.19.54.03.07.06.15.1.22-.07-.01-.14-.04-.21-.03-.48.07-.47-.21-.51-.52-.07-.57.17-1.02.6-1.42Z"/>
  <path class="cls-2" d="m61.25,62.88c-.28.43-.55.86-.85,1.28-.26.35-.62.34-.81-.03.73-.09.82-.74,1.22-1.14.1-.1.22-.17.33-.26.04.05.08.1.12.15Z"/>
  <path class="cls-2" d="m80.11,77.26c.88-.58.81-1.5,1.24-2.24.42.7-.28,2-1.24,2.24Z"/>
  <path class="cls-2" d="m77.56,65.54c.14-.63.28-1.25.41-1.84.26.18.45.89.25,1.35-.12.28-.27.58-.67.49Z"/>
  <path class="cls-2" d="m57.78,68.36c-.03.43-.39.3-.59.22-.33-.15-.65-.36-.9-.6-.13-.12-.17-.38-.14-.56.02-.12.24-.22.39-.32.02-.02.13.02.15.06.02.04,0,.12-.03.15-.31.29-.11.52.15.67.3.17.65.27.99.4h-.02Z"/>
  <path class="cls-2" d="m73.06,76.27c-.23.77-.45,1.47-.66,2.17-.51-.41-.19-1.56.66-2.17Z"/>
  <path class="cls-2" d="m66.92,64.25c-.24,1.47-.23,1.49.61,1.83-.32.16-.88.05-.99-.18-.3-.62-.12-1.49.38-1.65Z"/>
  <path class="cls-2" d="m65.71,64.73c-.15.42-.25.71-.36,1-.16.4-.05.62.39.72-.2.09-.41.18-.61.27-.44-.46-.21-1.43.58-1.99Z"/>
  <path class="cls-2" d="m53.86,75.22c-.25-.75-.77-1.46-.36-2.28.05,0,.11-.01.16-.02.12.76.24,1.52.36,2.28-.05,0-.1.01-.16.02Z"/>
  <path class="cls-2" d="m75.92,72.63c.03.27.09.54.1.8.01.37.1.65.66.66-.2.11-.41.22-.61.33-.52-.59-.54-.71-.3-1.77.05,0,.11-.02.16-.02Z"/>
  <path class="cls-2" d="m45.19,49.57c.09.72.18,1.45.28,2.17-.61-.11-.79-1.47-.28-2.17Z"/>
  <path class="cls-2" d="m80.87,82.27c.02.69.58,1.34.2,2.06-.09,0-.17.01-.26.02-.06-.69-.13-1.38-.19-2.07h.25Z"/>
  <path class="cls-2" d="m62.99,65.06c-.13.19-.27.38-.4.58-.48.75-.44.71.14,1.12-.02.04-.03.08-.05.11-.2-.07-.49-.09-.57-.22-.12-.2-.21-.53-.11-.71.18-.37.5-.67.77-1.01.07.04.14.09.22.13Z"/>
  <path class="cls-2" d="m68.77,64.02c.44.63.86,1.22,1.27,1.81-.03.03-.07.07-.1.1-.13-.07-.36-.11-.38-.21-.15-.6-1.24-.8-.79-1.71Z"/>
  <path class="cls-2" d="m82.07,61.21c-.3.28-.61.22-.76-.19-.22-.59-.04-1.27.39-1.48.18.53-.55,1.26.37,1.67Z"/>
  <path class="cls-2" d="m59.38,73.23c-.17.61-.93,1.16-.17,1.83-.37.05-.59-.1-.63-.39-.11-.79.22-1.4.8-1.44Z"/>
  <path class="cls-2" d="m88.06,69.94c.54.39.93,1.6.66,2.06-.28-.68-.55-1.35-.82-2.02l.16-.05Z"/>
  <path class="cls-2" d="m86.02,63.66c-.03.27-.03.55-.09.82-.12.53-.01.7.53.75-.19.11-.37.23-.59.35-.51-.69-.22-1.32-.06-1.95.07,0,.14.02.21.03Z"/>
  <path class="cls-2" d="m89.08,69c.65-.82-.23-1.41-.36-2.21.71.48.9,1.03.86,1.68-.01.27-.07.48-.51.53Z"/>
  <path class="cls-2" d="m82.73,82.2c.18.47.37.94.58,1.48-.09.06-.25.18-.54.38-.08-.66-.15-1.24-.22-1.81.06-.02.12-.03.18-.05Z"/>
  <path class="cls-2" d="m83.21,76.45c.27.41.23,1.14-.1,1.24-.33.1-.53.66-1.02.29.51-.42,1.19-.74,1.12-1.53Z"/>
  <path class="cls-2" d="m73.65,82.41c-.15.59-.3,1.19-.47,1.88-.44-.51-.24-1.31.47-1.88Z"/>
  <path class="cls-2" d="m70.99,64.2c.69.59,1.06,1.58.68,1.96-.07-.7-.78-1.14-.68-1.96Z"/>
  <path class="cls-2" d="m63.66,62.3c.28.74.3,1.47,0,2.19.12-.73-.32-1.47,0-2.19Z"/>
  <path class="cls-2" d="m70.3,74.47h-.82v-1.55c.62.38-.1,1.27.82,1.55Z"/>
  <path class="cls-2" d="m83.66,60.48c.24.54.48,1.09.76,1.72-.1.13-.24.17-.45-.09-.39-.49-.44-1.03-.31-1.62Z"/>
  <path class="cls-2" d="m79.28,74.03c-.5.19-1.11-.32-.86-1.54.3.54.57,1.03.86,1.54Z"/>
  <path class="cls-2" d="m80.82,74.08c-.31-.58-.62-1.18-.94-1.79.62.06,1.25,1.36.94,1.79Z"/>
  <path class="cls-2" d="m67.13,86.15c-.05-.17-.17-.36-.12-.51.28-.8.43-.95.8-.94-.14.48-.29.96-.43,1.43-.08,0-.17,0-.25.01Z"/>
  <path class="cls-2" d="m77.45,69.01c.12.78.23,1.44.33,2.1-.54-.5-.69-1.52-.33-2.1Z"/>
  <path class="cls-2" d="m57.8,68.37c-.48-.59-.33-1.31.5-1.87-.08.21-.09.33-.16.41-.28.34-.39.7-.15,1.1.15.24.08.34-.2.34,0,0,.02.02.02.02Z"/>
  <path class="cls-2" d="m66.21,72.85c.07.59.15,1.18.23,1.8-.17-.08-.34-.15-.55-.25.06-.51.11-1.03.17-1.55.05,0,.1,0,.16,0Z"/>
  <path class="cls-2" d="m53.05,68.49c-.03.15-.03.32-.11.46-.22.38-.23.66.36.75,0,.04,0,.08-.01.13-.17.04-.38.16-.48.1-.16-.09-.35-.31-.33-.45.05-.35.21-.68.33-1.02.08.01.16.03.24.04Z"/>
  <path class="cls-2" d="m50.51,76.04c.27-.59.54-1.18.82-1.77l.25.09c-.26.59-.51,1.19-.77,1.78-.1-.04-.2-.07-.29-.11Z"/>
  <path class="cls-2" d="m87.58,65.14c-.38-.66-.18-1.24-.12-1.82.15.48.32.95.44,1.43.02.09-.17.22-.32.39Z"/>
  <path class="cls-2" d="m82.78,59.88c.06.32.12.64.18.96.02.09.01.19,0,.28-.02.17-.06.33-.09.5-.09-.16-.25-.32-.27-.48-.04-.41-.01-.83-.01-1.24h.2Z"/>
  <path class="cls-2" d="m72.98,59.18s-.14.05-.3.1c-.48-.54.06-1.08-.01-1.62.05,0,.09-.02.14-.02.06.48.11.97.18,1.55Z"/>
  <path class="cls-2" d="m76.86,57.95c-.06.32-.11.64-.19.96-.02.08-.14.18-.22.19-.08,0-.2-.08-.25-.15-.21-.33.25-.97.66-1Z"/>
  <path class="cls-2" d="m46.01,51.47c-.27-.59-.37-1.16-.02-1.82.06.44.1.78.14,1.12.01.09.02.19.08.25.27.28.05.36-.21.44Z"/>
  <path class="cls-2" d="m61.53,70.51c-.5-.19-.4-.81.23-1.38-.07.45-.15.89-.23,1.38Z"/>
  <path class="cls-2" d="m71.37,84.41c-.09.38-.17.77-.3,1.14-.02.06-.23.08-.35.12,0-.11-.04-.23,0-.33.13-.33.3-.66.45-.99.07.02.13.04.2.05Z"/>
  <path class="cls-2" d="m51.03,49.86c-.28.42,0,1-.51,1.44-.19-.68.02-1.26.51-1.44Z"/>
  <path class="cls-2" d="m89.23,64.85c-.13-.44-.25-.83-.39-1.29.62.32.83.97.39,1.29Z"/>
  <path class="cls-2" d="m89.72,72.43c-.05-.42-.1-.83-.17-1.37.48.31.45.65.44.98,0,.14-.06.28-.09.42-.06,0-.12-.02-.18-.03Z"/>
  <path class="cls-2" d="m73.93,66.58c.12.32.25.63.33.95.02.06-.14.16-.22.25-.09-.07-.25-.14-.25-.22-.03-.32-.01-.64-.01-.95.05,0,.1-.02.15-.03Z"/>
  <path class="cls-2" d="m79.36,78.11c.16.34.28.61.47,1.01-.23-.04-.45-.03-.52-.11-.21-.27-.32-.58.05-.9Z"/>
  <path class="cls-2" d="m86.35,71.11c.03-.36.06-.71.09-1.12.39.39.41.76.11,1.13-.07,0-.13,0-.2,0Z"/>
  <path class="cls-2" d="m85.58,61.45c-.51-.11-.66-.53-.34-1.01.11.32.21.64.34,1.01Z"/>
  <path class="cls-2" d="m73.48,85.58c.3-.14.55-.26.86-.4-.07.28-.13.51-.23.88-.26-.2-.46-.35-.64-.48Z"/>
  <path class="cls-2" d="m77.68,78.93c-.22-.13-.31-.18-.45-.26.12-.25.26-.53.39-.81.04,0,.09.01.13.02-.02.32-.04.65-.07,1.06Z"/>
  <path class="cls-2" d="m75.91,58.55c-.27.17-.53.35-.8.52-.07-.62.37-.57.72-.64.03.04.05.08.08.12Z"/>
  <path class="cls-2" d="m78.09,58.98c.12-.38-.07-.75.44-.91.03.36.16.7-.44.91Z"/>
  <path class="cls-2" d="m79.79,58.82v-.98c.07,0,.13,0,.2,0,.03.33.06.65.09.98-.09,0-.19,0-.28.01Z"/>
  <path class="cls-2" d="m87.99,73.59c-.54.07-.59-.02-.5-.89.21.36.35.62.5.89Z"/>
  <path class="cls-2" d="m86.78,61.09c.14.28.42.55.02,1.01-.09-.41-.15-.7-.21-.99.06,0,.12-.01.19-.02Z"/>
  <path class="cls-2" d="m83.97,70.04c0,.14.03.28,0,.4-.03.11-.14.2-.21.31-.06-.11-.19-.23-.17-.33.02-.15.14-.29.22-.43l.17.06Z"/>
  <path class="cls-2" d="m82.01,70.23c.03.32.05.55.09.9-.55-.4-.56-.54-.09-.9Z"/>
  <path class="cls-2" d="m46.87,51.13v-.86c.11.04.27.08.26.09-.05.24.25.58-.26.77Z"/>
  <path class="cls-2" d="m47.76,50.3c.44.25.32.55.24.86-.06,0-.12.01-.18.02-.02-.29-.04-.58-.06-.87Z"/>
  <path class="cls-2" d="m49.07,51.43c-.48-.26-.12-.52-.15-.75.09.02.25.05.25.07-.02.21-.06.41-.1.67Z"/>
  <path class="cls-1" d="m42.74,51.61c.04-.19.09-.38.16-.69.21.24.34.39.48.54-.17.09-.34.18-.51.26-.04-.04-.08-.07-.13-.11Z"/>
  <path class="cls-1" d="m53.05,51.13c-.01,1.11-.11,1.23-.82.94.26-.29.5-.57.82-.94Z"/>
  <path class="cls-1" d="m54.63,51.97c-.06-.31-.1-.57-.16-.88.54.27.6.58.16.88Z"/>
</svg>