<?xml version="1.0" encoding="UTF-8"?>
<svg xmlns="http://www.w3.org/2000/svg" viewBox="0 0 136.06 136.06">
  <defs>
    <style>
      .cls-1 {
        fill: #fff;
      }

      .cls-2 {
        fill: #0c3454;
      }

      .cls-3 {
        fill: #e0e1e3;
      }
    </style>
  </defs>
  <g id="Layer_3" data-name="Layer 3">
    <rect class="cls-3" x="0" width="136.06" height="136.06"/>
  </g>
  <g id="B_W" data-name="B&amp;amp;W">
    <g>
      <path class="cls-1" d="m40.54,52.68c-.5-.73-.68-1.47-.63-2.23h.2c0,.06,0,.11.03.16.18.47.52.93.9,1.3.17.17.6.13.92.16.42.04.85.05,1.28.1.18.02.35.09.67.19.01.06.08.24.07.41-.09,1.19-.2,2.38-.29,3.57-.08,1.02-.09,2.04-.23,3.05-.09.65-.28,1.26-.09,1.92.08.33.05.66-.39.86-.14.07-.24.44-.17.6.12.24.38.42.61.61.14.12.32.28.48.28.53.01.75.33.9.69.16.39.24.81.39,1.21.03.1.24.23.32.21v.22c-.09,0-.2,0-.3,0-.61.01-.9-.29-1.08-.83-.07-.23-.16-.44-.24-.66-.06,0-.12.01-.18.02-.28.49-.34.98-.05,1.5.05.08.07.17.11.26l-.37.27c-.37-.45-.58-1.04-.79-1.6-.17-.47-.27-.97-.35-1.46-.07-.45-.06-.92-.11-1.38-.1-.86-.22-1.73-.33-2.59-.02-.17-.07-.33-.07-.5,0-.89-.07-1.78.01-2.66.13-1.39-.47-2.58-1.22-3.69Z"/>
      <path class="cls-1" d="m34.31,45.26c.8-.13,1.61-.31,2.42-.38.29-.02.63.2.91.35.44.25.86.52,1.28.8.49.32.99.64,1.45.99.23.17.39.43.67.75-.41.04-.69.11-.97.09-1.08-.08-1.9-.59-2.63-1.29-.55-.52-1.31-.68-2.04-.87-.37-.1-.74-.21-1.1-.31,0-.05,0-.09.01-.13Z"/>
      <path class="cls-1" d="m38.7,50.83c-1.17-.02-2.1-.56-3.04-1.13-.99-.6-1.32-1.58-1.84-2.44-.22-.36-.45-.71-.66-1.08-.06-.09-.1-.27-.04-.33.08-.08.27-.15.39-.13.73.13,1.46.26,2.16.46.48.13.95.32,1.37.56.3.18.49.49.74.73.12.11.28.19.44.25.5.18,1.01.35,1.52.5.17.05.35.04.53.06-.39.57-.77,1.1-1.13,1.65-.06.1-.04.28,0,.4.12.37-.04.5-.44.5Z"/>
      <path class="cls-1" d="m55.45,47.42c.25-.87.66-1.62,1.45-2.04.7-.39,1.52-.62,2.31-.85,1.55-.45,3.09-.08,4.64.15-.47.59-.65.69-1.68.83s-2.06.2-3.07.39c-1.06.2-2.01.59-2.28,1.71-.04.14-.15.27-.26.46-.4-.24-.76-.45-1.11-.65Z"/>
      <path class="cls-1" d="m57.92,50.69c-.31-.65-.67-1.27-.91-1.93-.22-.58.1-1.12.49-1.55.63-.69,1.5-.98,2.47-1.05.66-.05,1.32-.15,1.98-.23.08-.01.17-.05.24-.04,1.01.17,1.59-.48,2.32-.96-.14.71-.21,1.41-.44,2.07-.17.49-.47.98-.84,1.37-.88.89-2.07,1.34-3.29,1.71-.7.22-1.4.43-2.02.61Z"/>
      <path class="cls-1" d="m83.07,98.4c.29.16.49.28.78.44-.28.2-.53.38-.81.59-.34-.42-.06-.69.03-1.03Z"/>
      <path class="cls-1" d="m82.03,96.59c-.13-1.88-.27-3.76-.4-5.64-.04-.58-.08-1.15-.1-1.72-.01-.23.05-.46.09-.73.6.33,1.21.2,1.77-.37.1.16.26.3.27.45.06.75.11,1.5.1,2.26,0,1.31-.05,2.63-.09,3.94-.02.62-.06,1.23-.11,1.85-.03.44-.36.7-.82.69-.43-.02-.67-.27-.71-.73Z"/>
      <path class="cls-1" d="m74.91,93.81c.02-.5,0-1.02.11-1.51.16-.66-.04-1.26-.17-1.89-.12-.58-.14-1.19-.21-1.76.45.09.76.16,1.08.22.04-.03.09-.07.13-.1.07.45.11.9.22,1.34.23.89.22,1.79.27,2.68.05.84.2,1.67.3,2.5.04.38.09.76.07,1.14-.03.64-.56.91-1.13,1.16-.66-.72-.76-1.56-.67-2.46.05-.44,0-.88,0-1.32Z"/>
      <path class="cls-1" d="m53.31,99.31c-.26-.28-.44-.48-.68-.75h.68v.75Z"/>
      <path class="cls-1" d="m54.11,99.68c-.05-.46-.09-.8-.13-1.17.34.25.6.45.9.68-.21.14-.43.27-.77.49Z"/>
      <path class="cls-1" d="m52.48,96.36c.05-.46.32-.91.42-1.37.13-.58.2-1.18.27-1.77.07-.64.13-1.28.18-1.92.04-.63.07-1.25.1-1.82.39-.07.7-.17,1.01-.17.11,0,.32.21.33.33.06.83.07,1.66.12,2.49.03.58.13,1.16.14,1.74.01.31-.12.62-.14.93-.04.92-.06,1.85-.08,2.77,0,.08.07.15.1.23-.43.35-1.22.38-2.33.03-.05-.49-.17-.99-.12-1.47Z"/>
      <path class="cls-1" d="m60.21,94.14c.13.94.11,1.89-.09,2.83-.02.09,0,.19,0,.28-.05.25.24.62-.26.71-.62.11-1.22-.19-1.26-.65-.05-.7,0-1.4-.02-2.1-.03-.78-.09-1.56-.13-2.35-.02-.25-.01-.5-.01-.75v-2.32c.37-.04.69-.1,1.01-.09.13.01.33.15.35.26.1.48.18.96.21,1.45.03.69,0,1.38.02,2.06,0,.23.15.44.19.67Z"/>
      <path class="cls-1" d="m73.65,82.41c-.71.57-.91,1.36-.47,1.88.17-.69.32-1.29.47-1.88Zm15.07-10.41c.27-.46-.12-1.67-.66-2.06-.06.01-.11.03-.17.04.28.67.55,1.34.83,2.02Zm-18.42,2.47c-.92-.27-.21-1.16-.83-1.54v1.54h.83Zm3.75-6.7c.07-.08.23-.18.21-.24-.08-.33-.21-.64-.33-.96l-.15.03c0,.32-.02.64,0,.96.01.07.17.14.26.21Zm-.57,17.81c.18.14.37.28.64.49.09-.37.15-.61.22-.89-.31.15-.55.26-.86.4Zm-1.08-7.13c.21-.7.43-1.41.66-2.18-.85.62-1.17,1.77-.66,2.18Zm-2.36-12.62c-.41-.59-.83-1.18-1.27-1.82-.45.91.63,1.11.79,1.71.02.09.25.14.38.21.03-.04.07-.07.1-.1Zm6.72,14.07c.55.64.57,1.28-.09,1.91.59.04.87-.26.88-.8.01-.91-.14-1.14-.79-1.11Zm-12.18-11.87c-.66.85-.71,2.75-.22,3.03.07-.96.14-1.95.22-3.03Zm24.65-3.18c.43-.32.22-.97-.39-1.29.13.46.25.85.39,1.29Zm-18.75,19.83c-.34-.99-.59-1.87-.15-2.83-.92.22-.84,1.65.15,2.83Zm-.47-8.66c-.67.1-1.22,1.26-.87,2.2.32-.81.6-1.51.87-2.2Zm4.12-.94c-.93-.58-.31-1.55-.81-2.18-.23.79-.26,1.57.27,2.36.16-.06.33-.11.54-.18Zm1.07,3.77c.14-.84.27-1.66.41-2.47-.66.16-.98,1.89-.41,2.47Zm-1.94,1.1c-.02.55-.05,1.11-.08,1.7.24.09.34-.1.39-.35.03-.19.1-.39.09-.58-.03-.49.18-1.01-.28-1.54-.11.18-.6.15-.16.47.06.04.05.2.04.3Zm2.41,2.04c-.19.83-.81,1.58-.16,2.42-.04-.79.55-1.55.16-2.42Zm-6.01-2.35c.09.29.4.39.51.6.13.26.09.59.13.89.01.11.05.22.08.33.08-.08.19-.15.23-.25.23-.58-.33-1.78-.95-2.04-.33-.14-.77.01-.85.32.3,0,.7-.27.85.15Zm-6.46,3.9c-.9.18-1.43,1.8-.76,2.68.07-.54.09-1,.22-1.44.12-.42.36-.83.54-1.24Zm10.23-18.67c-.03.32-.05.64-.09,1.07.12-.06.28-.09.35-.18.24-.32.14-1.08-.2-1.44-.18-.18-.34-.49-.87-.15.28.13.56.25.89.4-.32.17-.44.24-.56.3.02.04.04.09.05.13.12-.04.23-.07.43-.13Zm16.11,6.18c.07.54.12.96.18,1.38.06,0,.12.01.18.02.03-.14.08-.27.09-.41,0-.34.03-.68-.45-.99Zm-18.67-.72c.35.95,1.06,1.84,1.47,1.85-.68-.83-1.23-1.69-1.23-2.64-.18-.17-.33-.26-.38-.38-.11-.22-.1-.5-.24-.69-.25-.36-.58-.68-.89-1-.03-.03-.2.02-.28.08-.02.02.01.18.06.21.35.22.66.49.79.83.27.68.51,1.4.1,2.14.06.02.12.04.18.07.14-.16.28-.32.42-.47Zm-7.67,10.42c-.16.59-.32,1.17-.49,1.81.01,0,.08.03.14.03.39-.03.38-.32.43-.57.09-.52.22-1.04.27-1.56.02-.11-.21-.24-.33-.36.01.11.02.21.02.32s-.01.23-.04.33Zm14.1-5.09c-.38.3-.66.65-.67,1.13-.02.54-.07,1.08-.09,1.61,0,.16.04.32.06.48.05.01.09.01.14.01.19-1.08.37-2.15.56-3.23Zm-6.57,10.01c.12-.04.32-.05.34-.12.13-.37.21-.76.3-1.14-.07-.02-.13-.04-.2-.05-.15.32-.31.65-.45.98-.03.1.01.22.01.33Zm-9.41-12.61c-.29.49-.63.99-.49,1.58.04.14.18.3.31.35.14.05.33-.01.5-.03.02-.05.05-.1.08-.15-.73-.01-.58-.4-.48-.72.1-.31.27-.59.38-.89.04-.11.01-.25.01-.38-.18.08-.26.15-.31.24Zm-.43-8.38c-.57.29-.9.72-.97,1.25-.05.37-.02.75.01,1.12.01.07.2.19.3.18.12-.01.23-.13.42-.24-.21-.04-.31-.06-.41-.08-.16-.72.14-1.32.51-1.9.06-.1.09-.22.14-.33Zm-.08-1.7c-.4.4-.49,1.05-1.22,1.14.19.37.56.38.81.03.31-.42.57-.85.85-1.28l-.12-.15c-.11.09-.23.17-.32.26Zm-.2,13.8c-.6.26-.97.72-.99,1.27,0,.41.26.82.41,1.24.27-.03.48-.06.68-.09.03-.03.07-.06.1-.09-.57-.17-.91-.51-.78-1.01.12-.45.38-.88.58-1.32Zm-1.23-3.55c-.58.04-.91.65-.8,1.44.04.29.27.44.63.39-.75-.67,0-1.23.17-1.83Zm-.13,10.11c-1.01.59-1.38,2.38-.75,3.5.11-.05.22-.09.33-.15.09-.04.17-.1.25-.15-.08-.04-.17-.07-.22-.13-.11-.11-.28-.25-.27-.37.05-.53.12-1.06.24-1.57.09-.38.27-.74.42-1.13Zm-.7-13.84h-.77c.56.87.58,1.77.43,2.7.64-.72.21-1.56.41-2.33.11-.03.24-.07.25-.07.06-.45.12-.81.17-1.17-.54.13-.44.55-.49.87Zm-1.49,10.69c-.09.54-.28,1.06.07,1.59.21.3.25.66-.2.89-.06.03-.06.16-.09.24.17.02.32.04.47.05.34-.97.02-1.87-.25-2.77Zm-.43,4.63c-.31.53-.1.94.33,1.3.04.03.17.03.22,0,.08-.04.12-.13.2-.22-.17-.03-.28-.06-.49-.1.15-.66.29-1.29.44-1.92-.04-.02-.08-.05-.12-.07-.19.34-.38.68-.58,1.01Zm-1-15.45c-.11.46.19.71.56.95.63.41.65,1.25,0,1.6.1.12.2.23.3.34.89-.76.52-2.19-.77-3.04-.03.05-.08.1-.09.15Zm-.21,5.11c-.24.53.1.96.26,1.43.14.41.39.38.8.25-.22-.16-.4-.23-.48-.35-.46-.64-.34-1.23.28-1.73.06-.04.05-.21,0-.29-.05-.1-.18-.15-.37-.3-.18.35-.35.67-.5.99Zm.13,3.55c-.01.17.35.36.52.55.08.1.12.24.15.3.16.03.35,0,.45.08.5.38.52.38.82-.16.55-.1,1.05.73,1.69.01-.6.15-1.17.04-1.32-.41-.13-.4.08-.89.14-1.37-.44.38-.69.81-.65,1.37.04.39-.2.47-.55.37-.44-.12-.83-.84-.7-1.25.09-.28.16-.57.24-.85-.21.07-.34.16-.39.28-.16.35-.37.71-.4,1.08Zm-1.25-8.39c-.57.41-.45.91-.23,1.07.54.41.42.93.52,1.42.01.06-.07.15-.12.21-.11.16-.23.31-.35.46.07.06.15.12.23.17.15-.13.4-.25.43-.41.06-.36.08-.75,0-1.11-.11-.58-.31-1.15-.49-1.81Zm-.25,15.57c-.3.24-.08.36.04.44.31.19.66.34,1,.5.06-.08.14-.2.23-.34-.99-.14-1.03-.36-.43-1.76-.13.1-.3.17-.38.29-.17.29-.21.68-.46.87Zm-.56-12.28c-.4.82.12,1.54.37,2.28.05,0,.1-.01.15-.01-.12-.76-.24-1.53-.36-2.29-.05.01-.1.02-.16.02Zm.09,7.14c-.31.33-.41.98-.23,1.1.72.49.35,1.16.49,1.82-.25-.15-.41-.24-.57-.34l-.09.09c.03.09.04.18.1.24.15.15.3.36.48.39.12.01.38-.24.4-.39.06-.41.1-.85.01-1.25-.12-.54-.37-1.06-.59-1.66Zm-.77-11.62c-.11.34-.28.67-.33,1.02-.02.14.17.36.33.45.1.05.32-.06.48-.1.01-.04.01-.09.01-.13-.59-.09-.58-.37-.36-.75.08-.13.07-.3.11-.45-.08-.01-.16-.03-.24-.04Zm-.63,9.25c-.27.53-.44,1.08.2,1.49.17.11.45.15.65.12.17-.02.31-.2.46-.3-.09-.15-.15-.26-.21-.37.24.07.41.21.61.31.15.08.35.2.5.17.13-.03.22-.24.39-.44-.64.05-1.09-.08-1.11-.61-.01-.41.14-.82.22-1.26-.65.4-.67,1.01-.73,1.61,0,.19-.14.36-.22.54-.2-.19-.43-.36-.57-.57-.06-.1.05-.29.08-.44.03-.24.06-.49.1-.73-.21.15-.29.31-.37.48Zm-.04-6.15c-.07-.19-.29-.34-.44-.5-.07.05-.19.12-.19.16.07.22.18.43.27.63,0,.02.03.02.04.03.55.5.73,1.28.45,1.89.05.04.1.07.15.1.11-.19.35-.4.31-.57-.14-.59-.35-1.17-.59-1.74Zm-.87,10.61c.14-.07.33-.11.41-.22.46-.61.25-1.31.29-1.97,0-.02-.05-.04-.11-.09-.34.47-.37.75-.23,1.46.02.09-.12.22-.19.32-.09.12-.2.24-.3.35.05.05.09.1.13.15Zm.06-7.89c-.27.59-.55,1.18-.82,1.77.1.04.2.07.29.11.26-.6.52-1.19.77-1.79l-.24-.09Zm-1.1-1.1c.51.18.64.15.75-.19.06-.2.08-.44.04-.64-.09-.5-.24-.98-.36-1.48-.27.22-.3.8-.16,1.11.1.23.15.5.11.74-.02.16-.23.3-.38.46Zm.09,4.68c-.27.7-.04,1.13.74,1.35.1.03.23-.05.35-.09-.07-.06-.14-.14-.22-.18-.55-.23-.66-.44-.51-1.02.08-.28.13-.57.19-.85-.06-.02-.11-.03-.16-.05-.13.28-.27.55-.39.84Zm-.2-8.15c-.02.19.01.44.13.58.07.09.37.02.67.02-.65-.42-.48-.77.7-1.77-.63.01-1.43.61-1.5,1.17Zm26.63,16.8c.36.01.64-.71.48-1.27-.24.3-.39.64-.67.79-.3.17-.72.16-1.24.25.54.09.98.21,1.43.23Zm-11.52-4.83c-.07-.74-.15-1.49-.23-2.34-.46.48-.32,2.09.08,2.38.05-.01.1-.02.15-.04Zm22.67-16.92c-.12-.48-.29-.95-.44-1.43-.06.58-.27,1.16.12,1.82.14-.17.34-.3.32-.39Zm-23.99,9.21l.09-.93c-.39.26-.62,1.58-.44,1.86.18.3.47.36.74.13-.54-.22-.43-.65-.39-1.06Zm11.11-2.21c-.5-.93-.6-1.92-.57-2.94-.56,1.03-.21,2.27.57,2.94Zm1.17-4.17c.22.83.28,1.65-.19,2.46.06.04.11.07.16.11.12-.13.31-.24.34-.39.1-.6.18-1.2.22-1.81.01-.32-.13-.38-.53-.37Zm-1.04-3.6c-.08-.01-.19.16-.28.25,0,.05.01.09.01.14.51-.31.6.04.7.29.07.19.04.41.03.62,0,.26-.02.51-.04.77.05.01.1.01.14.01.41-.6.44-1.23.07-1.84-.09-.15-.41-.2-.63-.24Zm2.63,7.12c-.1-.65-.2-1.31-.33-2.09-.35.58-.21,1.59.33,2.09Zm-4.41-2.75c-.18-.59-.53-.82-1.14-.85-.07-.37-.13-.75-.2-1.12-.07.01-.15.02-.22.03-.1.55.18,1.09.25,1.64.06-.11.13-.22.19-.33.43.07.65.3.71.66.05.32.11.64.12.95.01.19-.07.38-.14.56-.05.14-.16.26-.24.4.14-.03.28-.04.42-.08.06-.01.12-.07.15-.12.32-.56.26-1.16.1-1.74Zm2.51,12.9c.07-.85.16-1.71-.85-2.34-.01.14-.04.24-.02.25.38.21.41.56.44.9.04.48.41,1.02-.31,1.36-.03.01,0,.15,0,.27.32-.12.71-.06.74-.44Zm-13.87-15.31c-.1.19-.01.51.11.71.08.13.37.16.57.23.02-.04.03-.08.05-.12-.58-.41-.62-.37-.14-1.12.12-.2.26-.39.39-.58-.07-.04-.14-.09-.21-.13-.27.33-.59.64-.77,1.01Zm-.48,4.56c.08-.49.15-.93.23-1.38-.63.57-.73,1.19-.23,1.38Zm5.48,15.14c-.05.15.07.34.12.51.08-.01.17-.01.25-.01.14-.48.29-.96.43-1.44-.38-.01-.53.14-.8.94Zm4.67-19.49c.37-.38.01-1.37-.69-1.96-.1.82.61,1.26.69,1.96Zm-4.15-.07c-.84-.34-.85-.36-.61-1.83-.5.16-.68,1.03-.38,1.65.11.23.68.34.99.18Zm-6.68,19.94c.26-1,.53-2.01.8-3.01-.05-.01-.1-.03-.14-.04-.76.75-.55,1.8-.96,2.66-.05.09.1.26.16.39h.14Zm27.87-19.23c.13.8,1.01,1.39.36,2.21.44-.04.49-.25.51-.53.03-.65-.16-1.2-.87-1.68Zm-28.15,14.96c.21-.63.02-1.38-.44-1.69-.1-.06-.26-.07-.39-.1-.01.05-.03.09-.04.14.1.04.26.07.27.13.1.52.24,1.05.2,1.57-.01.22-.44.41-.66.62-.05.05-.04.16-.05.24.27-.06.61-.05.8-.2.18-.16.22-.46.31-.71Zm21.53-10.62c-.03-.35-.06-.58-.09-.9-.47.36-.46.5.09.9Zm-3.68,1.36c-.24,1.21.36,1.73.86,1.54-.28-.51-.56-1-.86-1.54Zm-13.2,5.6c-1.07-.77-.23-1.62-.12-2.45-.8.5-1.04,1.71-.48,2.46.1.13.39.37.6-.01Zm16.86-.11c.5.36.7-.2,1.03-.3.32-.09.36-.82.1-1.24.06.8-.61,1.11-1.13,1.54Zm-16.37-13.25c-.79.56-1.02,1.53-.58,1.99.21-.09.41-.18.61-.27-.43-.1-.54-.31-.39-.72.12-.29.21-.58.36-1Zm17.08,10.05c.05-.02.1-.03.15-.05.05-.82-.27-1.54-.72-2.23-.02-.04-.08-.06-.12-.07-.07-.01-.14.01-.21.01.01.06.02.12.04.18.2.51.41,1.03.62,1.54.08.21.16.41.24.62Zm-19.83,3.39c-.07-.18-.2-.37-.19-.55.02-.4.11-.8.17-1.2-.42.4-.66.85-.6,1.42.04.31.03.59.51.52.07-.01.14.02.21.03-.03-.07-.07-.15-.1-.22Zm19.58-9.05c.1-.68-.08-1.31-.54-1.85-.1-.12-.42-.11-.64-.1-.09,0-.17.16-.26.25.66-.08,1.17.67,1.12,1.59-.16.09-.32.19-.54.32.63.21.81.15.86-.21Zm-.47-7.91c-.93-.41-.19-1.14-.37-1.67-.43.2-.61.89-.39,1.48.15.41.46.46.76.19Zm-3.12,8.77c.27-.77.08-1.54-.1-2.3-.08-.34-.46-.47-.74-.37.54.93.96,1.86.34,2.98.17-.1.45-.17.5-.31Zm-1.27,8.94c.03-.4.05-.73.07-1.05-.04-.01-.09-.01-.13-.02-.13.28-.27.56-.39.81.14.08.23.14.45.26Zm-7.87-7.07c-1.09-.86-.45-1.88-.29-2.9-.5.33-.74,1.22-.64,2.01.06.49.44.7.93.89Zm-1.25-.82c.23-.62,0-1.19-.14-1.79-.15-.62-.54-1.04-1.01-1.43-.12-.1-.34-.11-.52-.16-.02.05-.05.09-.08.14,1.22.84,1.69,1.98,1.55,3.44.14-.14.18-.16.2-.2Zm-2.68,3.37c.22.09.38.17.55.24-.08-.62-.15-1.2-.22-1.79-.06,0-.11,0-.16-.01-.06.52-.12,1.04-.17,1.56Zm13.43,4.61c.07.08.29.07.52.11-.19-.4-.31-.67-.47-1.01-.37.32-.26.63-.05.9Zm-1.42,3.42c-.19.65-.07,1.29.13,1.92.03.08.32.08.49.12,0-.13.04-.26,0-.38-.1-.36-.24-.71-.35-1.06-.06-.2-.08-.41-.12-.62-.05.01-.1.01-.15.02Zm-11.99-11.79c.12-.42.17-.86.22-1.3.03-.29,0-.58,0-.87h-.16c-.18.88-.37,1.76-.55,2.65.39.11.43-.26.49-.48Zm16.69-9.51c.02.17.18.33.27.49.03-.17.07-.34.09-.5,0-.09.02-.19,0-.28-.05-.32-.12-.64-.18-.96-.06,0-.13.01-.19.01,0,.41-.03.83.01,1.24Zm-15.54,10.17c-.03-.42.05-.84.09-1.26-.06,0-.11-.01-.16-.01-.4.62-.32,1.32-.21,1.99.03.2.36.37.58.59-.12-.51-.26-.91-.3-1.31Zm8.71,1.36c-.24,1.05-.22,1.17.3,1.77.2-.11.4-.22.61-.33-.56-.01-.65-.29-.66-.66-.01-.27-.06-.54-.09-.81-.06.01-.11.02-.16.03Zm7.55,11.02c-.21-.54-.4-1.01-.58-1.48-.06.02-.12.04-.18.05.07.58.14,1.15.22,1.81.29-.2.45-.31.54-.38Zm-4.2-8.16c-.24.49-.52.97-.78,1.43.76.08,1.43-1.53,1.28-2.5-.1.11-.19.17-.23.26-.1.27-.14.56-.27.81Zm-.88-10.47c.19-.46,0-1.18-.26-1.36-.13.59-.27,1.21-.41,1.84.39.09.55-.2.67-.48Zm8.37-3.94c.06.29.12.58.21.99.39-.46.12-.73-.03-1.01-.06.01-.12.01-.18.02Zm-6.53,19.98c.16-.56-.19-1.23-.71-1.5.27.89.67,1.74-.2,2.59.98-.03.8-.68.91-1.09Zm3.51-10.68c-.01.11.11.23.17.34.08-.1.18-.2.21-.31.04-.13.01-.27.01-.4-.06-.02-.11-.04-.17-.06-.08.14-.2.28-.22.43Zm.03-1.3c.1.32.24.34.54.18.32-.16.31-.38.34-.65.12-.9-.36-1.5-1.41-1.15.83.32,1.04.53,1.11.91.07.45-.18.63-.58.71Zm-2.99,13.16c.06.69.13,1.38.19,2.07.08,0,.17-.01.25-.02.39-.71-.17-1.36-.19-2.05h-.25Zm1.21-.93c-.23.28-.4.48-.62.76.75-.14,1-.48.92-1.03-.05-.31-.09-.64-.21-.93-.13-.31-.12-.75-.65-.79.2.7.38,1.37.56,1.99Zm-13.71-1.81c-.2-.35-.46-.61-1.03-.54.26.42.93.56.63,1.14.13-.02.22-.06.26-.03.23.17.35,1.26.12,1.34-.5.19-.13.31,0,.49.66-.56.66-1.29.02-2.4Zm12.21-15c.29-.31.55-.66.45-1.18-.26.3-.48.52-.66.76-.2.26-.38.53-.54.82-.22.42-.12.74.39.92-.36-.62.01-.96.36-1.32Zm-20.17,4.99c.06.16.26.4.27.44.1.61.11,1.22.15,1.89.02-.02.2-.07.22-.15.24-.81.16-1.6-.22-2.36-.03-.08-.22-.09-.33-.13-.04.1-.13.23-.09.31Zm25.42-8.07c-.13-.38-.24-.69-.34-1.01-.33.48-.17.9.34,1.01Zm-1.16.74c-.28-.62-.52-1.17-.76-1.71-.13.59-.08,1.14.31,1.62.21.26.35.23.45.09Zm-21.69,9.54c.55-.94.27-1.95.31-2.93,0-.03-.15-.06-.31-.12v3.05Zm4.53,5.26c.04-.45.21-.9.32-1.34-.75.55-.86,2.03-.27,2.64,0-.43-.09-.87-.05-1.3Zm14.98-13.19c-.76.33-1,1.41-.48,2.19.1-.05.21-.1.32-.15-.65-.75.14-1.37.16-2.04Zm-1.42,10.28c.32-.43-.32-1.73-.94-1.79.32.61.63,1.21.94,1.79Zm6.32-7.24c.35.71.67,1.35,1,2,.03-.09.14-.23.1-.33-.16-.52-.32-1.06-.56-1.56-.2-.41-.31-.39-.54-.11Zm-.52,1.76c.26-.55.01-1.04-.28-1.5-.18-.3-.91-.24-1.16.16.46-.27.71-.16.96.2.25.35.32.67.14,1.04h-.56c-.02.48.5.18.65.38.09-.09.2-.17.25-.28Zm-6.8.34c-.42,1.01-.17,1.87.25,2.71h.21c-.15-.87-.3-1.74-.46-2.71Zm-13.69,12.78c-.03-.38.03-.75.06-1.13-.72.9-.54,2.36.24,3v.03c-.1.29-.18.6-.32.87-.18.37-.01.9-.59,1.1-.03.01-.04.24.02.31.07.08.22.1.43.18.22-.65.45-1.32.64-2,.04-.13-.12-.31-.18-.46t.01-.02h-.01c-.03-.2-.04-.38-.07-.57-.08-.44-.2-.87-.23-1.31Zm17.71-18.71c-.14.45-.36.89-.42,1.35-.09.66.22.96,1.01.95-.57-.29-.76-.64-.65-1.09.08-.32.21-.63.3-.96.02-.07-.02-.15-.04-.23-.06-.01-.13-.01-.2-.02Zm-3.15,6.79c.57-.9,0-2.02-.7-2.51-.1-.07-.33.02-.5.03.61.37,1.2,1.34,1.12,1.92-.01.06-.01.14-.04.18-.22.28-.22.27.12.38Zm-.58,7.46c.97-.24,1.67-1.54,1.24-2.24-.43.74-.36,1.66-1.24,2.24Zm5.82-12.78c.05-.27.06-.55.09-.82l-.21-.03c-.15.63-.45,1.27.06,1.95.22-.13.4-.24.59-.35-.54-.06-.65-.22-.53-.75Zm.51,5.52c-.03.4-.06.76-.09,1.11.07.01.13.01.2.01.31-.36.29-.74-.11-1.12Zm-3.47,9.4c.4,1.01.75,1.91,1.13,2.89.23-.92-.33-2.45-1.13-2.89Zm4.52-6.7c-.09.87-.04.96.5.88-.15-.27-.29-.52-.5-.88Zm-3.21,9.56l.15.42c.31.83.62,1.65.17,2.53-.37.71-.66,1.44-1.43,1.92-.35.22-.62.22-.94.03-.46-.26-.93-.51-1.39-.78-.09-.05-.12-.18-.19-.26-.22-.24-.46-.39-.85-.32-.97.16-1.71.69-2.42,1.22-.84.62-1.8.57-2.74.47-.64-.07-1.35-.24-1.86-.59-.73-.49-1.33-.65-2.25-.35-1.06.36-2.23.46-3.36.64-1.33.21-2.63.63-4.01.53-.28-.02-.56-.06-.84-.09-.95-.11-1.67.38-2.4.79-.61.34-1.2.41-1.87.24s-.74-.78-1.1-1.18c-.08-.09-.12-.21-.14-.25-.42.02-.8-.01-1.15.06-.26.06-.52.21-.73.37-.6.49-.87.46-1.57.12-.9-.44-1.08-1.3-1.59-1.98-.05-.06.01-.24.08-.3.05-.04.24,0,.32.06.34.25.49-.02.7-.1,0-.05,0-.09-.02-.14-.24,0-.48-.02-.73-.04-.24-.56-.18-.65.71-.97-.55-.28-1.04-.04-1.38.74-.52-.39-.61-.92-.72-1.42-.26-1.2-.5-2.42-.7-3.63-.1-.59-.03-1.21-.14-1.8-.19-1.04-.46-2.08-.68-3.12-.1-.45-.2-.9-.21-1.35-.03-1.4,0-2.8,0-4.2,0-.07-.01-.15,0-.23.06-.67.22-.81.92-.98.73-.17,1.44-.4,2.16-.6.16-.04.35.01.49-.05.24-.1.44-.25.65-.38.1.07.23.23.35.23.67-.02,1.01.35,1.35.8.15.18.48.35.72.34.13,0,.39-.38.36-.56-.01-.06-.03-.11-.06-.16l.3-.05s.04.06.06.08c.26.24.57.45.91.6.19.09.54.21.58-.21h.02s-.01,0-.01-.01c.28,0,.34-.1.19-.34-.24-.39-.12-.76.16-1.1.07-.08.08-.2.16-.41l-.48-.73c-.81-.95-.37-2.31.85-2.68-.03-.02-.06-.03-.09-.05l.23-.62h0c.43.16.97-.16,1.26-.57.1-.15.1-.37.14-.56-.02,0-.04,0-.06.01l-.05-.6c.2-.09.24-.21.24-.44-.33.09-.6.15-.82.17l-.05-1.08s.03.03.04.03c.31.11.64.16.92.3.49.25.98.5,1.4.83.55.43.64,1.03.51,1.67-.1.55-.04,1.15-.71,1.48-.09.04-.09.21-.13.32.05.05.1.09.15.14.17-.1.43-.17.49-.31.2-.5.44-1.01.54-1.52h.97c-.32.74.12,1.48,0,2.21.27-.65.28-1.31.07-1.97l.51-.16c.3.41.71.77,1.3.83.15.01.36-.1.47-.22.06-.05-.05-.24-.09-.37-.03-.09-.07-.17-.1-.25-.1-.28-.19-.55-.29-.85l.94-.06c.02.06.05.12.09.19.5.96,1.69,1.45,2.46,1.03l.08-.04c.14.31.27.65.43,1.04.11-.72-.1-1.48-.51-1.96l.83-.08c.15.14.31.26.5.37.41.25.78.69,1.42.49.2-.07.41.09.38.36-.02.11.02.23.03.37.33-.25.38-.65.07-1.05-.04-.05-.08-.11-.13-.16l.29-.24c.43.45,1.12.61,1.93.38v1.13h.18c.03-.22.05-.45.1-.68.07-.35-.05-.78-.27-1.14l.24-.18c.11.37.36.7.75.88.69.32,1.08.29,1.39-.17.16.37.32.7.47,1.04.04-.02.09-.03.13-.05.03-.43-.1-.78-.3-1.1l.37-.24c.26.23.75.25,1.03.07l.35-.11c.08.24.15.48.23.72.05-.02.1-.05.15-.07.01-.25.03-.51.03-.65.28.01.51.04.74.03.27-.01.55-.01.57.29.01.21-.1.42-.18.74-.02,0,.12.06.19.02.31-.17.53-.45.35-.75-.32-.49-.69-.97-1.11-1.38-.22-.22-.3-.34-.18-.61.12-.25.16-.52.24-.79-.04-.01-.07-.01-.1-.02l.08-.31c.1,0,.19,0,.28,0-.02-.33-.05-.66-.08-.98l.08-.48c.13.02.26.04.39.08.92.25.91.27.97,1.14.01.14.04.28.08.52.34-.38.22-.68.09-.97-.04-.1-.07-.22-.1-.32.11.01.23.06.33.04.61-.1.86.41,1.28.59.66.28,1.11.85,1.88,1,.47.09.89.45,1.29.74.44.31.85.66,1.24,1.03.38.36.75.73,1.06,1.14.44.57.82,1.17,1.22,1.76.08.12.16.24.19.37.24,1.17.35,2.35.32,3.54-.01.69.11,1.39.13,2.08.04,1.13.04,2.25.05,3.37,0,.07-.05.15-.09.21-.3.44-.6.89-.91,1.33-.27.37-.66.27-.97.12-.32-.16-.59-.42-.84-.66-1.12-1.08-1.72-2.41-2.07-3.84-.03-.15-.23-.41-.27-.39-.2.06-.44.16-.56.31-.67.88-.86,1.82-.64,2.91.33,1.59.84,3.14.87,4.78.02.85.26,1.7.27,2.55,0,.59-.22,1.19-.36,1.85-.22-.18-.38-.3-.54-.42-.04.02-.07.04-.1.05Z"/>
      <path class="cls-1" d="m72.8,57.63c-.05.01-.09.02-.14.03.08.54-.47,1.08.01,1.62.16-.05.3-.1.31-.1-.07-.58-.13-1.06-.18-1.55Zm-20.75-6.43c-.21.63-.44,1.26-.68,1.88-.17.45-.42.87-.53,1.32-.32,1.24-.58,2.48-.87,3.72.07.03.15.05.22.08.08-.14.19-.27.23-.42.11-.49.21-.98.3-1.47.24-1.26.6-2.49,1.33-3.59.06-.1.22-.21.33-.21.3,0,.6.02.89.09.8.2,1.53.15,2.25-.27.5-.3.64-.89.26-1.31-.48-.55-1.04-.91-1.86-.76-.2.04-.41.01-.61.01-.57,0-1.1.41-1.26.93Zm-1.02-1.35c-.48.18-.69.76-.51,1.44.5-.43.23-1.02.51-1.44Zm-2.1.83c.02.23-.34.49.14.75.05-.26.09-.46.1-.67,0-.02-.16-.05-.24-.08Zm-1.17-.38l.06.87c.06-.01.12-.01.18-.02.08-.3.2-.61-.24-.85Zm-1.63.47c-.05-.34-.09-.68-.14-1.12-.35.66-.25,1.23.02,1.82.26-.08.48-.16.2-.44-.05-.06-.07-.17-.08-.26Zm-.94-1.21c-.51.71-.34,2.06.27,2.17-.09-.72-.18-1.44-.27-2.17Zm1.68.71v.86c.51-.2.21-.53.26-.77,0-.02-.16-.06-.26-.09Zm28.24,8.8c.26-.17.53-.35.8-.52-.03-.04-.06-.08-.08-.12-.36.07-.79.02-.72.64Zm1.56-.16c.08-.32.13-.64.19-.96-.42.03-.87.67-.66,1,.04.07.17.16.25.15s.2-.11.22-.19Zm1.86-.85c-.5.17-.32.54-.44.92.6-.22.47-.56.44-.92Zm-11.11,1.48c-1.07.57-1.25,1.2-.95,1.91l-.94.06c-.04-.11-.07-.21-.11-.32-.51.62.07,1.04.24,1.56-.73-.02-1.05-.46-1.34-.89-.43-.62-.63-1.27.31-1.86-.74-.03-1.18.43-1.02.93.13.43.25.89.5,1.26.04.06.08.12.13.18l-.51.16c-.02-.07-.04-.15-.07-.23h-.97c.13-.59.08-1.18-.4-1.76-.69-.86-1.71-1.28-3-1.47.1.14.15.23.19.28l.05,1.08c-.65.06-.87-.2-1-.95-.51.39-.01.7.05,1.01.05.23.64.43.99.36.25-.05.42-.1.54-.15l.05.6c-.14.01-.2.05-.23.1-.26.48-.75.76-1.24.59-.72-.26-1.32-.69-1.65-1.37-.31-.62-.3-1.19.25-1.72-.06-.04-.12-.08-.19-.11-.13.14-.3.26-.4.42-.33.54-.22,1.07.03,1.61.41.86,1.23,1.29,2.08,1.6l-.23.62c-.12-.06-.25-.1-.35-.08-.65.14-.9.61-1.08,1.13-.19.58-.15,1.13.27,1.62.06.07.26.04.4.06l.48.73c-.83.55-.99,1.25-.52,1.85h0c-.32-.11-.68-.21-.97-.38-.25-.15-.46-.38-.15-.67.04-.03.05-.12.03-.15-.02-.04-.12-.07-.15-.06-.14.1-.36.2-.38.32-.03.15,0,.34.07.48l-.3.05c-.1-.15-.28-.29-.42-.44-.06-.06-.17-.08-.22-.14-.44-.57-1.17-.79-1.92-.65-.51.09-1.04.08-1.55.15-.33.04-.65.13-.97.21-1.19.3-2.38.66-3.59.88-.69.12-1.44.08-2.14,0-.86-.11-1.25-.83-1.71-1.38h0s.37-.28.37-.28c.03.09.06.17.13.22.48.44,1.07.55,1.73.43.21-.04.43-.01.76-.01.22-.09.54-.27,1.03-.4.26-.07.77.2,1.17.1.7-.18,1.18-1.13,1.04-1.96-.2.23-.31.39-.45.53-.22.22-.44.56-.7.59-.98.12-1.97.18-2.96.2v-.22c.43-.15.77-.37.83-.88.07-.53.33-1,1-1.18.42-.11.84-.29,1.17-.54.2-.15.32-.49.33-.75.01-.13-.29-.3-.48-.41-.13-.09-.3-.15-.46-.17-.82-.07-1.64-.5-2.44.04-.03.02-.09-.01-.14-.01-.37-.02-.74-.05-1.11-.05-.25,0-.5.01-.52-.28-.02-.33-.05-.66-.01-.99.12-.95.33-1.9.39-2.86.11-1.8.13-3.61.22-5.41.05-.98-1.04-2.35-2.2-2.55-.25-.04-.49-.08-.74-.11-.56-.06-1.25.4-1.25.84h-.2c.01-.4.09-.8.21-1.2.02-.06.05-.13.1-.15.72-.42,1.06-1.12,1.57-1.7.24-.28.58-.53.93-.69.91-.4,1.82-.79,2.78-1.09.7-.21,1.47-.37,2.21-.37s1.47.21,2.2.35c.96.17,1.93.33,2.87.56.83.21,1.53.62,1.88,1.4.04.09.23.13.35.18.47.19,1.07.24,1.14.87,0,.04.05.09.09.11.53.18.7.65.89,1.04.17.37.48.76.2,1.24-.14.24-.07.57-.15.85-.14.5-.3.99-.49,1.47-.37,1-.24,1.98.07,2.96.02.09.18.14.27.21.08-.09.2-.18.21-.27.03-.25,0-.5,0-.83.2.22.35.39.52.55.18.18.29.32.12.6-.06.1.2.48.4.59.86.44,1.72.94,2.65,1.19.96.26,2.01.33,3.03.36,1.11.03,2.24-.07,3.36-.15.28-.02.53-.22.82-.3.89-.25,1.79-.49,2.68-.73-.04.48-.1.87-.11,1.27-.01.55.05.59.72.45-.75-.44-.29-1.09-.45-1.7,1.27-.08,2.49-.14,3.7-.24.76-.05,1.52-.04,2.29-.17.64-.11,1.33.03,2,.09.36.03.73.06,1.09.13h0s-.08.49-.08.49h-.2v.99l-.08.31s-.04-.01-.06-.02c-.48.55-.63,1.19-.58,1.87-.35-.2-.7-.4-1.04-.59-.07.06-.15.12-.23.18.58.21.81.6.98,1.03l-.35.11s.08-.05.11-.09c-.28-.07-.64-.06-.83-.21-.23-.19-.39-.51-.45-.79-.15-.7-.03-.88.55-1.16-.61-.16-1.1.13-1.01.67.08.46.26.93.48,1.36.03.06.07.11.12.15l-.37.24c-.27-.46-.68-.85-1.02-1.3-.32.28-.19.48.05.7.2.18.36.41.54.61-.01.04-.03.09-.05.13-.33-.03-.7.01-.98-.12-.75-.35-.85-.77-.48-1.52.12-.25.23-.5.34-.75-.05-.02-.1-.05-.15-.07l-.42.48c-.31.35-.39.82-.27,1.24l-.24.18c-.18-.28-.43-.52-.71-.64-.09-.04-.24.03-.36.05.06.07.11.14.18.2.27.23.69.36.6.82-.15.01-.29.01-.42.04-.64.13-1.15-.34-1-.93.13-.48.28-.96.45-1.52-.74.55-1.21,1.61-.8,2.15.04.05.08.1.12.14l-.29.24c-.41-.52-.86-1.02-1.35-1.58-.14.44-.06.68.26.9.28.19.49.44.81.73-.95.15-1.41-.43-1.88-.83-.53-.45-.51-1.17-.57-1.82-.12.14-.18.27-.2.4-.12.75.14,1.35.66,1.82l-.83.08c-.2-.23-.45-.4-.72-.46.12.25.2.46.31.64.12.2.31.37.41.58.03.05.05.11.08.16l-.08.04c-.86-.13-1.57-.36-2.06-1.04-.58-.81.12-1.37.46-2.09Z"/>
      <path class="cls-2" d="m89.72,72.43c-.06-.42-.11-.84-.18-1.38.48.31.46.65.45.99-.01.14-.06.27-.09.41-.06-.01-.12-.02-.18-.02Z"/>
      <path class="cls-2" d="m88.84,63.56c.61.32.82.97.39,1.29-.14-.44-.26-.83-.39-1.29Z"/>
      <path class="cls-2" d="m88.72,66.79c.71.48.9,1.03.87,1.68-.02.28-.07.49-.51.53.65-.82-.23-1.41-.36-2.21Z"/>
      <path class="cls-2" d="m88.06,69.94c.54.39.93,1.6.66,2.06-.28-.68-.55-1.35-.83-2.02.06-.01.11-.03.17-.04Z"/>
      <path class="cls-2" d="m87.99,73.58c-.54.08-.59-.01-.5-.88.21.36.35.61.5.88Z"/>
      <path class="cls-2" d="m88.14,68.84c-.33-.65-.65-1.29-1-2,.23-.28.34-.3.54.11.24.5.4,1.04.56,1.56.04.1-.07.24-.1.33Z"/>
      <path class="cls-2" d="m87.46,63.32c.15.48.32.95.44,1.43.02.09-.18.22-.32.39-.39-.66-.18-1.24-.12-1.82Z"/>
      <path class="cls-2" d="m86.81,62.1c-.09-.41-.15-.7-.21-.99.06-.01.12-.01.18-.02.15.28.42.55.03,1.01Z"/>
      <path class="cls-2" d="m86.35,71.11c.03-.35.06-.71.09-1.11.4.38.42.76.11,1.12-.07,0-.13,0-.2-.01Z"/>
      <path class="cls-2" d="m86.34,67.1c.29.46.54.95.28,1.5-.05.11-.16.19-.25.28-.15-.2-.67.1-.65-.38h.56c.18-.37.11-.69-.14-1.04-.25-.36-.5-.47-.96-.2.25-.4.98-.46,1.16-.16Z"/>
      <path class="cls-2" d="m85.93,64.48c-.12.53-.01.69.53.75-.19.11-.37.22-.59.35-.51-.68-.21-1.32-.06-1.95l.21.03c-.03.27-.04.55-.09.82Z"/>
      <path class="cls-2" d="m85.24,60.44c.1.32.21.63.34,1.01-.51-.11-.67-.53-.34-1.01Z"/>
      <path class="cls-2" d="m83.75,70.75c-.06-.11-.18-.23-.17-.34.02-.15.14-.29.22-.43.06.02.11.04.17.06,0,.13.03.27-.01.4-.03.11-.13.21-.21.31Z"/>
      <path class="cls-2" d="m83.42,64.36c.06-.46.28-.9.42-1.35.07.01.14.01.2.02.02.08.06.16.04.23-.09.33-.22.64-.3.96-.11.45.08.8.65,1.09-.79,0-1.1-.29-1.01-.95Z"/>
      <path class="cls-2" d="m83.66,60.48c.24.54.48,1.09.76,1.71-.1.14-.24.17-.45-.09-.39-.48-.44-1.03-.31-1.62Z"/>
      <path class="cls-2" d="m84.19,68.4c-.07-.38-.28-.59-1.11-.91,1.05-.35,1.53.25,1.41,1.15-.03.27-.02.49-.34.65-.3.16-.44.14-.54-.18.4-.08.65-.26.58-.71Z"/>
      <path class="cls-2" d="m82.08,77.98c.52-.43,1.19-.74,1.13-1.54.26.42.22,1.15-.1,1.24-.33.1-.53.66-1.03.3Z"/>
      <path class="cls-2" d="m82.97,79.4c.8.44,1.36,1.97,1.13,2.89-.38-.98-.73-1.88-1.13-2.89Z"/>
      <path class="cls-2" d="m82.86,61.62c-.09-.16-.25-.32-.27-.49-.04-.41-.01-.83-.01-1.24.06,0,.13-.01.19-.01.06.32.13.64.18.96.02.09,0,.19,0,.28-.02.16-.06.33-.09.5Z"/>
      <path class="cls-2" d="m82.73,82.2c.18.47.37.94.58,1.48-.09.07-.25.18-.54.38-.08-.66-.15-1.23-.22-1.81.06,0,.12-.03.18-.05Z"/>
      <path class="cls-2" d="m82.22,72.5c.45.69.77,1.41.72,2.23-.05.02-.1.03-.15.05-.08-.21-.16-.41-.24-.62-.21-.51-.42-1.03-.62-1.54-.02-.06-.03-.12-.04-.18.07,0,.14-.02.21-.01.04.01.1.03.12.07Z"/>
      <path class="cls-2" d="m82.01,70.23c.03.32.06.55.09.9-.55-.4-.56-.54-.09-.9Z"/>
      <path class="cls-2" d="m81.76,65.99c-.52-.78-.28-1.86.48-2.19-.02.67-.81,1.29-.16,2.04-.11.05-.22.1-.32.15Z"/>
      <path class="cls-2" d="m81.7,59.54c.18.53-.56,1.26.37,1.67-.3.27-.61.22-.76-.19-.22-.59-.04-1.28.39-1.48Z"/>
      <path class="cls-2" d="m81.21,82.1c.22-.28.39-.48.62-.76-.18-.62-.36-1.29-.56-1.99.53.04.52.48.65.79.12.29.16.62.21.93.08.55-.17.89-.92,1.03Z"/>
      <path class="cls-2" d="m82.22,69.01c.05-.92-.46-1.67-1.12-1.59.09-.09.17-.25.26-.25.22-.01.54-.02.64.1.46.54.64,1.17.54,1.85-.05.36-.23.42-.86.21.22-.13.38-.23.54-.32Z"/>
      <path class="cls-2" d="m80.81,84.34c-.06-.69-.13-1.38-.19-2.07h.25c.02.69.58,1.34.19,2.05-.08.01-.17.02-.25.02Z"/>
      <path class="cls-2" d="m81.35,75.02c.43.7-.27,2-1.24,2.24.88-.58.81-1.5,1.24-2.24Z"/>
      <path class="cls-2" d="m80.82,74.08c-.31-.58-.62-1.18-.94-1.79.62.06,1.26,1.36.94,1.79Z"/>
      <path class="cls-2" d="m79.79,58.82v-.99h.2c.03.32.06.65.08.98-.09,0-.18,0-.28,0Z"/>
      <path class="cls-2" d="m79.99,67.29c.7.49,1.27,1.61.7,2.51-.34-.11-.34-.1-.12-.38.03-.04.03-.12.04-.18.08-.58-.51-1.55-1.12-1.92.17,0,.4-.1.5-.03Z"/>
      <path class="cls-2" d="m80.07,71.65c-.42-.84-.67-1.7-.25-2.71.16.97.31,1.84.46,2.71h-.21Z"/>
      <path class="cls-2" d="m80.78,63.35c.1.52-.16.87-.45,1.18-.35.36-.72.7-.36,1.32-.51-.18-.61-.5-.39-.92.16-.29.34-.56.54-.82.18-.24.4-.46.66-.76Z"/>
      <path class="cls-2" d="m79.36,79.59c.52.27.87.94.71,1.5-.11.41.07,1.06-.91,1.09.87-.85.47-1.7.2-2.59Z"/>
      <path class="cls-2" d="m79.36,78.11c.16.34.28.61.47,1.01-.23-.04-.45-.03-.52-.11-.21-.27-.32-.58.05-.9Z"/>
      <path class="cls-2" d="m79.28,74.03c-.5.19-1.1-.33-.86-1.54.3.54.58,1.03.86,1.54Z"/>
      <path class="cls-2" d="m78.85,67.68c.18.76.37,1.53.1,2.3-.05.14-.33.21-.5.31.62-1.12.2-2.05-.34-2.98.28-.1.66.03.74.37Z"/>
      <path class="cls-2" d="m78.33,76.95c.26-.46.54-.94.78-1.43.13-.25.17-.54.27-.81.04-.09.13-.15.23-.26.15.97-.52,2.58-1.28,2.5Z"/>
      <path class="cls-2" d="m78.09,58.98c.12-.38-.06-.75.44-.92.03.36.16.7-.44.92Z"/>
      <path class="cls-2" d="m79.75,60.55c.42.41.79.89,1.11,1.38.18.3-.04.58-.35.75-.07.04-.21-.02-.19-.02.08-.32.19-.53.18-.74-.02-.3-.3-.3-.57-.29-.23.01-.46-.02-.74-.03,0,.14-.02.4-.03.65-.05.02-.1.05-.15.07-.08-.24-.15-.48-.23-.72-.17-.43-.4-.82-.98-1.03.08-.06.16-.12.23-.18.34.19.69.39,1.04.59-.05-.68.1-1.32.58-1.87.02.01.04.01.06.02.03.01.06.01.1.02-.08.27-.12.54-.24.79-.12.27-.04.39.18.61Z"/>
      <path class="cls-2" d="m78.02,84.35c-.2-.63-.32-1.27-.13-1.92.05-.01.1-.01.15-.02.04.21.06.42.12.62.11.35.25.7.35,1.06.04.12,0,.25,0,.38-.17-.04-.46-.04-.49-.12Z"/>
      <path class="cls-2" d="m77.97,63.69c.26.18.45.9.26,1.36-.12.28-.28.57-.67.48.14-.63.28-1.25.41-1.84Z"/>
      <path class="cls-2" d="m77.75,77.87c-.02.32-.04.65-.07,1.05-.22-.12-.31-.18-.45-.26.12-.25.26-.53.39-.81.04.01.09.01.13.02Z"/>
      <path class="cls-2" d="m77.45,69.01c.13.78.23,1.44.33,2.09-.54-.5-.68-1.51-.33-2.09Z"/>
      <path class="cls-2" d="m77.81,59.46c-.58.28-.7.46-.55,1.16.06.28.22.6.45.79.19.15.55.14.83.21-.03.04-.07.07-.11.09-.28.18-.77.16-1.03-.07-.05-.04-.09-.09-.12-.15-.22-.43-.4-.9-.48-1.36-.09-.54.4-.83,1.01-.67Z"/>
      <path class="cls-2" d="m75.32,86.27c.52-.09.94-.08,1.24-.25.28-.15.43-.49.67-.79.16.56-.12,1.28-.48,1.27-.45-.02-.89-.14-1.43-.23Z"/>
      <path class="cls-2" d="m76.67,81.81c.66-.63.64-1.27.09-1.91.65-.03.8.2.79,1.11-.01.54-.29.84-.88.8Z"/>
      <path class="cls-2" d="m76.63,76.79c.01-.48.29-.83.67-1.13-.19,1.08-.37,2.15-.56,3.23-.05,0-.09,0-.14-.01-.02-.16-.07-.32-.06-.48.02-.53.07-1.07.09-1.61Z"/>
      <path class="cls-2" d="m76.86,57.95c-.06.32-.11.64-.19.96-.02.08-.14.18-.22.19s-.21-.08-.25-.15c-.21-.33.24-.97.66-1Z"/>
      <path class="cls-2" d="m76,70.04c.47-.81.41-1.63.19-2.46.4-.01.54.05.53.37-.04.61-.12,1.21-.22,1.81-.03.15-.22.26-.34.39-.05-.04-.1-.07-.16-.11Z"/>
      <path class="cls-2" d="m76.01,73.44c.01.37.1.65.66.66-.21.11-.41.22-.61.33-.52-.6-.54-.72-.3-1.77.05,0,.1-.02.16-.03.03.27.08.54.09.81Z"/>
      <path class="cls-2" d="m75.51,84.41c-.65-.84-.03-1.59.16-2.42.39.87-.2,1.63-.16,2.42Z"/>
      <path class="cls-2" d="m75.91,58.55c-.27.17-.54.35-.8.52-.07-.62.36-.57.72-.64.02.04.05.08.08.12Z"/>
      <path class="cls-2" d="m75.03,78.91c1.01.63.92,1.49.85,2.34-.03.38-.42.32-.74.44,0-.12-.03-.26,0-.27.72-.34.35-.88.31-1.36-.03-.34-.06-.69-.44-.9-.02,0,.01-.11.02-.25Z"/>
      <path class="cls-2" d="m75.61,76.38c-.14.81-.27,1.63-.41,2.47-.57-.58-.25-2.31.41-2.47Z"/>
      <path class="cls-2" d="m74.87,64.23c.09-.09.2-.26.28-.25.22.04.54.09.63.24.37.61.34,1.24-.07,1.84-.04,0-.09,0-.14-.01.02-.26.04-.51.04-.77,0-.21.04-.43-.03-.62-.1-.25-.19-.6-.7-.29,0-.05-.01-.09-.01-.14Z"/>
      <path class="cls-2" d="m75.43,59.63c-.11.25-.22.5-.34.75-.37.75-.27,1.17.48,1.52.28.13.65.09.98.12.02-.04.04-.09.05-.13-.18-.2-.34-.43-.54-.61-.24-.22-.37-.42-.05-.7.34.45.75.84,1.02,1.3.2.32.33.67.3,1.1-.04.02-.09.03-.13.05-.15-.34-.31-.67-.47-1.04-.31.46-.7.49-1.39.17-.39-.18-.64-.51-.75-.88-.12-.42-.04-.89.27-1.24l.42-.48s.1.05.15.07Z"/>
      <path class="cls-2" d="m74.45,68.81c-.03,1.02.07,2.01.57,2.94-.78-.67-1.13-1.91-.57-2.94Z"/>
      <path class="cls-2" d="m74.12,86.07c-.27-.21-.46-.35-.64-.49.31-.14.55-.25.86-.4-.07.28-.13.52-.22.89Z"/>
      <path class="cls-2" d="m74.26,67.53c.02.06-.14.16-.21.24-.09-.07-.25-.14-.26-.21-.03-.32,0-.64,0-.96l.15-.03c.12.32.25.63.33.96Z"/>
      <path class="cls-2" d="m73.59,75.26c-.53-.79-.5-1.57-.27-2.36.5.63-.12,1.6.81,2.18-.21.07-.38.12-.54.18Z"/>
      <path class="cls-2" d="m73.66,80.72c.01.19-.06.39-.09.58-.05.25-.15.44-.39.35.03-.59.06-1.15.08-1.7.01-.1.02-.26-.04-.3-.44-.32.05-.29.16-.47.46.53.25,1.05.28,1.54Z"/>
      <path class="cls-2" d="m73.18,84.29c-.44-.52-.24-1.31.47-1.88-.15.59-.3,1.19-.47,1.88Z"/>
      <path class="cls-2" d="m73.34,65.94c.04-.43.06-.75.09-1.07-.2.06-.31.09-.43.13,0-.04-.03-.09-.05-.13.12-.06.24-.13.56-.3-.33-.15-.61-.27-.89-.4.53-.34.69-.03.87.15.34.36.44,1.12.2,1.44-.07.09-.23.12-.35.18Z"/>
      <path class="cls-2" d="m72.8,57.63c.05.49.11.97.18,1.55-.01,0-.15.05-.31.1-.48-.54.07-1.08-.01-1.62.05,0,.09-.02.14-.03Z"/>
      <path class="cls-2" d="m74.34,62.15c-.81.23-1.5.07-1.93-.38-.04-.04-.08-.09-.12-.14-.41-.54.06-1.6.8-2.15-.17.56-.32,1.04-.45,1.52-.15.59.36,1.06,1,.93.13-.03.27-.03.42-.04.09-.46-.33-.59-.6-.82-.07-.06-.12-.13-.18-.2.12-.02.27-.09.36-.05.28.12.53.36.71.64.22.36.34.79.27,1.14-.05.23-.07.46-.1.68h-.18v-1.13Z"/>
      <path class="cls-2" d="m73.06,76.27c-.23.77-.45,1.48-.66,2.18-.51-.41-.19-1.56.66-2.18Z"/>
      <path class="cls-2" d="m72.23,67.5c.61.03.96.26,1.14.85.16.58.22,1.18-.1,1.74-.03.05-.09.11-.15.12-.14.04-.28.05-.42.08.08-.14.19-.26.24-.4.07-.18.15-.37.14-.56-.01-.31-.07-.63-.12-.95-.06-.36-.28-.59-.71-.66-.06.11-.13.22-.19.33-.07-.55-.35-1.09-.25-1.64.07,0,.15-.02.22-.03.07.37.13.75.2,1.12Z"/>
      <path class="cls-2" d="m70.99,64.19c.7.59,1.06,1.58.69,1.96-.08-.7-.79-1.14-.69-1.96Z"/>
      <path class="cls-2" d="m71.07,85.55c-.02.07-.22.08-.34.12,0-.11-.04-.23-.01-.33.14-.33.3-.66.45-.98.07.01.13.03.2.05-.09.38-.17.77-.3,1.14Z"/>
      <path class="cls-2" d="m70.33,81.85c-.44.96-.19,1.84.15,2.83-.99-1.18-1.07-2.61-.15-2.83Z"/>
      <path class="cls-2" d="m70.3,74.47h-.83v-1.54c.62.38-.09,1.27.83,1.54Z"/>
      <path class="cls-2" d="m70.17,68.59c-.13-.34-.44-.61-.79-.83-.05-.03-.08-.19-.06-.21.08-.06.25-.11.28-.08.31.32.64.64.89,1,.14.19.13.47.24.69.05.12.2.21.38.38,0,.95.55,1.81,1.23,2.64-.41-.01-1.12-.9-1.47-1.85-.14.15-.28.31-.42.47-.06-.03-.12-.05-.18-.07.41-.74.17-1.46-.1-2.14Z"/>
      <path class="cls-2" d="m71.03,61.33c-.32-.22-.4-.46-.26-.9.49.56.94,1.06,1.35,1.58.05.05.09.11.13.16.31.4.26.8-.07,1.05-.01-.14-.05-.26-.03-.37.03-.27-.18-.43-.38-.36-.64.2-1.01-.24-1.42-.49-.19-.11-.35-.23-.5-.37-.52-.47-.78-1.07-.66-1.82.02-.13.08-.26.2-.4.06.65.04,1.37.57,1.82.47.4.93.98,1.88.83-.32-.29-.53-.54-.81-.73Z"/>
      <path class="cls-2" d="m69.14,78.22c-.35-.94.2-2.1.87-2.2-.27.69-.55,1.39-.87,2.2Z"/>
      <path class="cls-2" d="m69.52,68.95c-.16,1.02-.8,2.04.29,2.9-.49-.19-.87-.4-.93-.89-.1-.79.14-1.68.64-2.01Z"/>
      <path class="cls-2" d="m68.81,79.49c.08-.31.52-.46.85-.32.62.26,1.18,1.46.95,2.04-.04.1-.15.17-.23.25-.03-.11-.07-.22-.08-.33-.04-.3,0-.63-.13-.89-.11-.21-.42-.31-.51-.6-.15-.42-.55-.14-.85-.15Z"/>
      <path class="cls-2" d="m69.56,65.72c-.16-.6-1.24-.8-.79-1.71.44.64.86,1.23,1.27,1.82-.03.03-.07.06-.1.1-.13-.07-.36-.12-.38-.21Z"/>
      <path class="cls-2" d="m69.53,63.67c-.16-.39-.29-.73-.43-1.04-.03-.05-.05-.11-.08-.16-.1-.21-.29-.38-.41-.58-.11-.18-.19-.39-.31-.64.27.06.52.23.72.46.41.48.62,1.24.51,1.96Z"/>
      <path class="cls-2" d="m67.13,86.15c-.05-.17-.17-.36-.12-.51.27-.8.42-.95.8-.94-.14.48-.29.96-.43,1.44-.08,0-.17,0-.25.01Z"/>
      <path class="cls-2" d="m67.09,78.99c.57-.07.83.19,1.03.54.64,1.11.64,1.84-.02,2.4-.13-.18-.5-.3,0-.49.23-.08.11-1.17-.12-1.34-.04-.03-.13.01-.26.03.3-.58-.37-.72-.63-1.14Z"/>
      <path class="cls-2" d="m68.42,69.24c.14.6.37,1.17.14,1.79-.02.04-.06.06-.2.2.14-1.46-.33-2.6-1.55-3.44.03-.05.06-.09.08-.14.18.05.4.06.52.16.47.39.86.81,1.01,1.43Z"/>
      <path class="cls-2" d="m67.58,75.65c-.11.44-.28.89-.32,1.34-.04.43.06.87.05,1.3-.59-.61-.48-2.09.27-2.64Z"/>
      <path class="cls-2" d="m66.77,72.02c-.11-.67-.19-1.37.21-1.99.05,0,.1.01.16.01-.04.42-.12.84-.09,1.26.04.4.18.8.3,1.31-.22-.22-.55-.39-.58-.59Z"/>
      <path class="cls-2" d="m66.92,64.25c-.24,1.47-.23,1.49.61,1.83-.31.16-.88.05-.99-.18-.3-.62-.12-1.49.38-1.65Z"/>
      <path class="cls-2" d="m66.47,61.45c-.3-.71-.12-1.34.95-1.91-.34.72-1.04,1.28-.46,2.09.49.68,1.2.91,2.06,1.04-.77.42-1.96-.07-2.46-1.03-.04-.07-.07-.13-.09-.19Z"/>
      <path class="cls-2" d="m66.44,83.6s0,.01-.01.02v-.03h.01Z"/>
      <path class="cls-2" d="m66.21,72.85c.07.59.14,1.17.22,1.79-.17-.07-.33-.15-.55-.24.05-.52.11-1.04.17-1.56.05.01.1.01.16.01Z"/>
      <path class="cls-2" d="m66.19,80.59c-.03.38-.09.75-.06,1.13.03.44.15.87.23,1.31.03.19.04.37.07.56-.78-.64-.96-2.1-.24-3Z"/>
      <path class="cls-2" d="m66.61,84.08c-.19.68-.42,1.35-.64,2-.21-.08-.36-.1-.43-.18-.06-.07-.05-.3-.02-.31.58-.2.41-.73.59-1.1.14-.27.22-.58.32-.87.06.15.22.33.18.46Z"/>
      <path class="cls-2" d="m66.12,69.34c-.05.44-.1.88-.22,1.3-.06.22-.1.59-.49.48.18-.89.37-1.77.55-2.65h.16c0,.29.03.58,0,.87Z"/>
      <path class="cls-2" d="m65.13,66.72c-.44-.46-.21-1.43.58-1.99-.15.42-.24.71-.36,1-.15.41-.04.62.39.72-.2.09-.4.18-.61.27Z"/>
      <path class="cls-2" d="m65,79.33c.08.85.16,1.6.23,2.34-.05.02-.1.03-.15.04-.4-.29-.54-1.9-.08-2.38Z"/>
      <path class="cls-2" d="m65.1,75.64c-.11.83-.95,1.68.12,2.45-.21.38-.5.14-.6.01-.56-.75-.32-1.96.48-2.46Z"/>
      <path class="cls-2" d="m64.58,68.03c-.08,1.08-.15,2.07-.22,3.03-.49-.28-.44-2.18.22-3.03Z"/>
      <path class="cls-2" d="m64.63,60c-.94.59-.74,1.24-.31,1.86.29.43.61.87,1.34.89-.17-.52-.75-.94-.24-1.56.04.11.07.21.11.32.1.3.19.57.29.85.03.08.07.16.1.25.04.13.15.32.09.37-.11.12-.32.23-.47.22-.59-.06-1-.42-1.3-.83-.05-.06-.09-.12-.13-.18-.25-.37-.37-.83-.5-1.26-.16-.5.28-.96,1.02-.93Z"/>
      <path class="cls-2" d="m63.56,74.89c-.18-.28.05-1.6.44-1.86l-.09.93c-.04.41-.15.84.39,1.06-.27.23-.56.17-.74-.13Z"/>
      <path class="cls-2" d="m63.73,62.53c.21.66.2,1.32-.07,1.97.12-.73-.32-1.47,0-2.2.03.08.05.16.07.23Z"/>
      <path class="cls-2" d="m63.2,80.75c.03-.1.04-.22.04-.33s-.01-.21-.02-.32c.12.12.35.25.33.36-.05.52-.18,1.04-.27,1.56-.05.25-.04.54-.43.57-.06,0-.13-.03-.14-.03.17-.64.33-1.22.49-1.81Z"/>
      <path class="cls-2" d="m63.04,68.8c-.04.98.24,1.99-.31,2.93v-3.05c.16.06.31.09.31.12Z"/>
      <path class="cls-2" d="m62.94,76.42c-.06.4-.15.8-.17,1.2-.01.18.12.37.19.55.03.07.07.15.1.22-.07-.01-.14-.04-.21-.03-.48.07-.47-.21-.51-.52-.06-.57.18-1.02.6-1.42Z"/>
      <path class="cls-2" d="m62.44,86.22c-.67-.88-.14-2.5.76-2.68-.18.41-.42.82-.54,1.24-.13.44-.15.9-.22,1.44Z"/>
      <path class="cls-2" d="m62.01,65.94c.18-.37.5-.68.77-1.01.07.04.14.09.21.13-.13.19-.27.38-.39.58-.48.75-.44.71.14,1.12-.02.04-.03.08-.05.12-.2-.07-.49-.1-.57-.23-.12-.2-.21-.52-.11-.71Z"/>
      <path class="cls-2" d="m61.76,69.12c-.08.45-.15.89-.23,1.38-.5-.19-.4-.81.23-1.38Z"/>
      <path class="cls-2" d="m60.83,74.64c-.14-.59.2-1.09.49-1.58.05-.09.13-.16.31-.24,0,.13.03.27-.01.38-.11.3-.28.58-.38.89-.1.32-.25.71.48.72-.03.05-.06.1-.08.15-.17.02-.36.08-.5.03-.13-.05-.27-.21-.31-.35Z"/>
      <path class="cls-2" d="m60.71,86.02c-.06-.13-.21-.3-.16-.39.41-.86.2-1.91.96-2.66.04.01.09.03.14.04-.27,1-.54,2.01-.8,3.01h-.14Z"/>
      <path class="cls-2" d="m60.4,64.15c-.25.35-.62.34-.81-.03.73-.09.82-.74,1.22-1.14.09-.09.21-.17.32-.26l.12.15c-.28.43-.54.86-.85,1.28Z"/>
      <path class="cls-2" d="m60.16,69.52c-.04-.08.05-.21.09-.31.11.04.3.05.33.13.38.76.46,1.55.22,2.36-.02.08-.2.13-.22.15-.04-.67-.05-1.28-.15-1.89-.01-.04-.21-.28-.27-.44Z"/>
      <path class="cls-2" d="m59.92,65.93c.07-.53.4-.96.97-1.25-.05.11-.08.23-.14.33-.37.58-.67,1.18-.51,1.9.1.02.2.04.41.08-.19.11-.3.23-.42.24-.1.01-.29-.11-.3-.18-.03-.37-.06-.75-.01-1.12Z"/>
      <path class="cls-2" d="m60.17,81.8c.04-.52-.1-1.05-.2-1.57-.01-.06-.17-.09-.27-.13,0-.05.03-.09.04-.14.13.03.29.04.39.1.46.31.65,1.06.44,1.69-.09.25-.13.55-.31.71-.19.15-.53.14-.8.2.01-.08,0-.19.05-.24.22-.21.65-.4.66-.62Z"/>
      <path class="cls-2" d="m59.62,78.05c.02-.55.39-1.01.99-1.27-.2.44-.46.87-.58,1.32-.13.5.21.84.78,1.01-.03.03-.07.06-.1.09-.2.03-.41.06-.68.09-.15-.42-.42-.83-.41-1.24Z"/>
      <path class="cls-2" d="m62.69,62.29c-.1.51-.34,1.02-.54,1.52-.06.14-.32.21-.49.31-.05-.05-.1-.09-.15-.14.04-.11.04-.28.13-.32.67-.33.61-.93.71-1.48.13-.64.04-1.24-.51-1.67-.42-.33-.91-.58-1.4-.83-.28-.14-.61-.19-.92-.3-.01,0-.03-.02-.04-.03-.04-.05-.09-.14-.19-.28,1.29.19,2.31.61,3,1.47.48.58.53,1.17.4,1.75Z"/>
      <path class="cls-2" d="m58.58,74.67c-.11-.79.22-1.4.8-1.44-.17.6-.92,1.16-.17,1.83-.36.05-.59-.1-.63-.39Z"/>
      <path class="cls-2" d="m58.58,60.49c-.06-.31-.56-.62-.05-1.01.13.75.35,1.01,1,.95.22-.02.49-.08.82-.17,0,.23-.04.35-.24.44-.12.05-.29.1-.54.15-.35.07-.94-.13-.99-.36Z"/>
      <path class="cls-2" d="m58.5,86.84c-.63-1.12-.26-2.91.75-3.5-.15.39-.33.75-.42,1.13-.12.51-.19,1.04-.24,1.57-.01.12.16.26.27.37.05.06.14.09.22.13-.08.05-.16.11-.25.15-.11.06-.22.1-.33.15Z"/>
      <path class="cls-2" d="m58.21,72.2c.15-.93.13-1.83-.43-2.7h.77c.05-.32-.05-.74.49-.87-.05.36-.11.72-.17,1.17,0,0-.14.04-.25.07-.2.77.23,1.61-.41,2.33Z"/>
      <path class="cls-2" d="m57.98,68.01c.15.24.09.34-.19.34h0c-.47-.6-.31-1.3.52-1.85-.08.21-.09.33-.16.41-.28.34-.4.71-.16,1.1Z"/>
      <path class="cls-2" d="m57.79,68.35s0,.01.01.02h-.02v-.02h0Z"/>
      <path class="cls-2" d="m57.15,64.09c.18-.52.43-.99,1.08-1.13.1-.02.23.02.35.08.03.02.06.03.09.05-1.22.37-1.66,1.73-.85,2.68-.14-.02-.34.01-.4-.06-.42-.49-.46-1.04-.27-1.62Z"/>
      <path class="cls-2" d="m56.93,82.67c.45-.23.41-.59.2-.89-.35-.53-.16-1.05-.07-1.59.27.9.59,1.8.25,2.77-.15-.01-.3-.03-.47-.05.03-.08.03-.21.09-.24Z"/>
      <path class="cls-2" d="m56.96,86.12c-.43-.36-.64-.77-.33-1.3.2-.33.39-.67.58-1.01.04.02.08.05.12.07-.15.63-.29,1.26-.44,1.92.21.04.32.07.49.1-.08.09-.12.18-.2.22-.05.03-.18.03-.22,0Z"/>
      <path class="cls-2" d="m56.73,60.82c-.25-.54-.36-1.07-.03-1.61.1-.16.27-.28.4-.42.07.03.13.07.19.11-.55.53-.56,1.1-.25,1.72.33.68.93,1.11,1.65,1.37.49.17.98-.11,1.24-.59.03-.05.09-.09.23-.1.02-.01.04-.01.06-.01-.04.19-.04.41-.14.56-.29.41-.83.73-1.26.57h0c-.85-.31-1.67-.74-2.08-1.6Z"/>
      <path class="cls-2" d="m56.29,67.97s-.04-.05-.06-.08c-.08-.14-.1-.33-.07-.48.02-.12.24-.22.38-.32.03-.01.13.02.15.06.02.03.01.12-.03.15-.31.29-.1.52.15.67.29.17.65.27.97.39-.04.42-.39.3-.58.21-.34-.15-.65-.36-.91-.6Z"/>
      <path class="cls-2" d="m56.07,78.58c-.17-.19-.53-.38-.52-.55.03-.37.24-.73.4-1.08.05-.12.18-.21.39-.28-.08.28-.15.57-.24.85-.13.41.26,1.13.7,1.25.35.1.59.02.55-.37-.04-.56.21-.99.65-1.37-.06.48-.27.97-.14,1.37.15.45.72.56,1.32.41-.64.72-1.14-.11-1.69-.01-.3.54-.32.54-.82.16-.1-.08-.29-.05-.45-.08-.03-.06-.07-.2-.15-.3Z"/>
      <path class="cls-2" d="m56.19,70.32c-.37-.24-.67-.49-.56-.95.01-.05.06-.1.09-.15,1.29.85,1.66,2.28.77,3.04-.1-.11-.2-.22-.3-.34.65-.35.63-1.19,0-1.6Z"/>
      <path class="cls-2" d="m55.68,75.91c-.16-.47-.5-.9-.26-1.43.15-.32.32-.64.5-.99.19.15.32.2.37.3.04.08.05.25,0,.29-.62.5-.74,1.09-.28,1.73.08.12.26.19.48.35-.41.13-.66.16-.8-.25Z"/>
      <path class="cls-2" d="m54.09,85.65c-.12-.08-.34-.2-.04-.44.25-.19.29-.58.46-.87.08-.12.25-.19.38-.29-.6,1.4-.56,1.62.43,1.76-.09.14-.17.26-.23.34-.34-.16-.69-.31-1-.5Z"/>
      <path class="cls-2" d="m54.07,70.71c-.22-.16-.34-.66.23-1.07.18.66.38,1.23.49,1.81.07.36.05.75,0,1.11-.03.16-.28.28-.43.41-.08-.05-.16-.11-.23-.17.12-.15.24-.3.35-.46.05-.06.13-.15.12-.21-.1-.49.02-1.01-.52-1.42Z"/>
      <path class="cls-2" d="m53.28,82.98c-.06-.06-.07-.15-.1-.24l.09-.09c.16.1.32.19.57.34-.14-.66.23-1.33-.49-1.82-.18-.12-.08-.77.23-1.1.22.6.47,1.12.59,1.66.09.4.05.84-.01,1.25-.02.15-.28.4-.4.39-.18-.03-.33-.24-.48-.39Z"/>
      <path class="cls-2" d="m53.86,75.21c-.25-.74-.77-1.46-.37-2.28.06,0,.11-.01.16-.02.12.76.24,1.53.36,2.29-.05,0-.1.01-.15.01Z"/>
      <path class="cls-2" d="m52.48,69.47c.05-.35.22-.68.33-1.02.08.01.16.03.24.04-.04.15-.03.32-.11.45-.22.38-.23.66.36.75,0,.04,0,.09-.01.13-.16.04-.38.15-.48.1-.16-.09-.35-.31-.33-.45Z"/>
      <path class="cls-2" d="m52.38,79.19c-.64-.41-.47-.96-.2-1.49.08-.17.16-.33.37-.48-.04.24-.07.49-.1.73-.03.15-.14.34-.08.44.14.21.37.38.57.57.08-.18.21-.35.22-.54.06-.6.08-1.21.73-1.61-.08.44-.23.85-.22,1.26.02.53.47.66,1.11.61-.17.2-.26.41-.39.44-.15.03-.35-.09-.5-.17-.2-.1-.37-.24-.61-.31.06.11.12.22.21.37-.15.1-.29.28-.46.3-.2.03-.48-.01-.65-.12Z"/>
      <path class="cls-2" d="m52.27,73.76c.28-.61.1-1.39-.45-1.89,0-.01-.03-.01-.04-.03-.09-.2-.2-.41-.27-.63,0-.04.12-.11.19-.16.15.16.37.31.44.5.24.57.45,1.15.59,1.74.04.17-.2.38-.31.57-.05-.03-.1-.06-.15-.1Z"/>
      <path class="cls-2" d="m51.63,81.34c-.14-.71-.11-.99.23-1.46.06.05.11.07.11.09-.04.66.17,1.36-.29,1.97-.08.11-.27.15-.41.22-.04-.05-.08-.1-.13-.15.1-.11.21-.23.3-.35.07-.1.21-.23.19-.32Z"/>
      <path class="cls-2" d="m51.57,74.36c-.25.6-.51,1.19-.77,1.79-.09-.04-.19-.07-.29-.11.27-.59.55-1.18.82-1.77l.24.09Z"/>
      <path class="cls-2" d="m54.63,51.97c.44-.3.38-.6-.16-.88.06.31.1.57.16.88Zm-2.4.1c.71.29.8.17.82-.94-.33.37-.57.65-.82.94Zm-.18.65c-.73,1.1-1.09,2.33-1.33,3.59-.09.49-.19.98-.3,1.47-.04.15-.15.28-.23.42-.07-.03-.15-.05-.22-.08.29-1.24.55-2.48.87-3.72.11-.45.36-.87.53-1.32.24-.62.47-1.25.68-1.88.16-.52.69-.93,1.26-.93.2,0,.41.03.61-.01.82-.15,1.38.21,1.86.76.38.42.24,1.01-.26,1.31-.72.42-1.45.47-2.25.27-.29-.07-.59-.09-.89-.09-.11,0-.27.11-.33.21Z"/>
      <path class="cls-2" d="m50.5,71.97c-.14-.31-.11-.89.16-1.11.12.5.27.98.36,1.48.04.2.02.44-.04.64-.11.34-.24.37-.75.19.15-.16.36-.3.38-.46.04-.24-.01-.51-.11-.74Z"/>
      <path class="cls-2" d="m50.52,51.29c-.18-.68.03-1.26.51-1.44-.28.42-.01,1.01-.51,1.44Z"/>
      <path class="cls-2" d="m51.06,79.2c-.78-.22-1.01-.65-.74-1.35.12-.29.26-.56.39-.84.05.02.1.03.16.05-.06.28-.11.57-.19.85-.15.58-.04.79.51,1.02.08.04.15.12.22.18-.12.04-.25.12-.35.09Z"/>
      <path class="cls-2" d="m50.25,70.28c-.12-.14-.15-.39-.13-.58.07-.56.87-1.16,1.5-1.17-1.18,1-1.35,1.35-.7,1.77-.3,0-.6.07-.67-.02Z"/>
      <path class="cls-2" d="m49.07,51.43c-.48-.26-.12-.52-.14-.75.08.03.24.06.24.08-.01.21-.05.41-.1.67Z"/>
      <path class="cls-2" d="m48,51.15c-.06,0-.12,0-.18.02l-.06-.87c.44.24.32.55.24.85Z"/>
      <path class="cls-2" d="m46.87,51.13v-.86c.1.03.26.07.26.09-.05.24.25.57-.26.77Z"/>
      <path class="cls-2" d="m45.99,49.65c.05.44.09.78.14,1.12.01.09.03.2.08.26.28.28.06.36-.2.44-.27-.59-.37-1.16-.02-1.82Z"/>
      <path class="cls-2" d="m45.46,51.73c-.61-.11-.78-1.46-.27-2.17.09.73.18,1.45.27,2.17Z"/>
      <path class="cls-2" d="m43.66,66.03c-.29-.52-.23-1.01.05-1.5.06-.01.12-.02.18-.02.08.22.17.43.24.66.18.54.47.84,1.08.83.1,0,.21,0,.31,0,.99-.02,1.98-.08,2.96-.2.26-.03.48-.37.7-.59.14-.14.25-.3.45-.53.14.83-.34,1.78-1.04,1.96-.4.1-.91-.17-1.17-.1-.49.13-.81.31-1.03.4-.33,0-.55-.03-.76.01-.66.12-1.25.01-1.73-.43-.07-.05-.1-.13-.13-.22-.04-.09-.06-.18-.11-.26Z"/>
      <path class="cls-2" d="m42.9,50.91c-.07.32-.12.51-.16.69.04.04.08.08.13.11.17-.08.34-.17.51-.26-.14-.15-.27-.3-.48-.54Zm-1.86,1c-.38-.37-.72-.83-.9-1.3-.02-.05-.03-.1-.03-.15,0-.44.69-.9,1.25-.84.25.03.49.07.74.11,1.16.2,2.25,1.57,2.2,2.55-.09,1.8-.11,3.61-.22,5.41-.06.96-.27,1.91-.39,2.86-.04.33-.01.66.01.99.02.29.27.28.52.28.37,0,.74.03,1.11.05.05,0,.11.03.14.01.8-.54,1.62-.11,2.44-.04.16.02.33.08.46.17.19.11.49.28.48.41-.01.26-.13.6-.33.75-.33.25-.75.43-1.17.54-.67.18-.93.65-1,1.18-.06.51-.4.73-.84.88-.08.02-.29-.11-.32-.21-.15-.4-.23-.82-.39-1.21-.15-.36-.37-.68-.9-.69-.16,0-.34-.16-.48-.28-.23-.19-.49-.37-.61-.61-.07-.16.03-.53.17-.6.44-.2.47-.53.39-.86-.19-.66,0-1.27.09-1.92.14-1.01.15-2.03.23-3.05.09-1.19.2-2.38.29-3.57.01-.17-.06-.35-.07-.41-.32-.1-.49-.17-.67-.19-.43-.05-.86-.06-1.28-.1-.32-.03-.75.01-.92-.16Z"/>
      <path class="cls-2" d="m56.9,45.38c-.79.42-1.2,1.17-1.45,2.04.35.2.71.41,1.11.65.11-.19.22-.32.26-.46.27-1.12,1.22-1.51,2.28-1.71,1.01-.19,2.04-.25,3.07-.39s1.21-.24,1.68-.83c-1.55-.23-3.09-.6-4.64-.15-.79.23-1.61.46-2.31.85Zm-2.02,53.81c-.3-.23-.56-.43-.9-.68.04.37.08.71.13,1.17.34-.22.56-.35.77-.49Zm-1.57-.63h-.68c.24.27.42.47.68.75v-.75Zm-.83-2.2c-.05.48.07.98.12,1.47,1.11.35,1.9.32,2.33-.03-.03-.08-.1-.15-.1-.23.02-.92.04-1.85.08-2.77.02-.31.15-.62.14-.93-.01-.58-.11-1.16-.14-1.74-.05-.83-.06-1.66-.12-2.49,0-.12-.22-.33-.33-.33-.31,0-.62.1-1.01.17-.03.57-.06,1.19-.1,1.82-.05.64-.11,1.28-.18,1.92-.07.59-.14,1.19-.27,1.77-.1.46-.37.91-.42,1.37Zm-15.75-51.48c-.81.07-1.62.25-2.42.38-.01.04-.01.08-.01.13.36.1.73.21,1.1.31.73.19,1.49.35,2.04.87.73.7,1.55,1.21,2.63,1.29.28.02.56-.05.97-.09-.28-.32-.44-.58-.67-.75-.46-.35-.96-.67-1.45-.99-.42-.28-.84-.55-1.28-.8-.28-.15-.62-.37-.91-.35Zm-1.07,4.82c.94.57,1.87,1.11,3.04,1.13.4,0,.56-.13.44-.5-.04-.12-.06-.3,0-.4.36-.55.74-1.08,1.13-1.65-.18-.02-.36-.01-.53-.06-.51-.15-1.02-.32-1.52-.5-.16-.06-.32-.14-.44-.25-.25-.24-.44-.55-.74-.73-.42-.24-.89-.43-1.37-.56-.7-.2-1.43-.33-2.16-.46-.12-.02-.31.05-.39.13-.06.06-.02.24.04.33.21.37.44.72.66,1.08.52.86.85,1.84,1.84,2.44Zm40.41,40.41c-.11-.44-.15-.89-.22-1.34-.04.03-.09.07-.13.1-.32-.06-.63-.13-1.08-.22.07.57.09,1.18.21,1.76.13.63.33,1.23.17,1.89-.12.49-.09,1.01-.11,1.51,0,.44.05.88,0,1.32-.09.9.01,1.74.67,2.46.57-.25,1.1-.52,1.13-1.16.02-.38-.03-.76-.07-1.14-.1-.83-.25-1.66-.3-2.5-.05-.89-.04-1.79-.27-2.68Zm-13.88-44.22c-.07-.01-.16.03-.24.04-.66.08-1.32.18-1.98.23-.97.07-1.84.36-2.47,1.05-.39.43-.71.97-.49,1.55.24.66.6,1.28.91,1.93.62-.18,1.32-.39,2.02-.61,1.22-.37,2.41-.82,3.29-1.71.37-.39.67-.88.84-1.37.23-.66.3-1.36.44-2.07-.73.48-1.31,1.13-2.32.96Zm-2.07,51.08c.2-.94.22-1.89.09-2.83-.04-.23-.19-.44-.19-.67-.03-.68.01-1.37-.02-2.06-.03-.49-.11-.97-.21-1.45-.02-.11-.22-.25-.35-.26-.32-.01-.64.05-1.01.09v2.32c0,.25-.01.5.01.75.04.79.1,1.57.13,2.35.02.7-.03,1.4.02,2.1.04.46.64.76,1.26.65.5-.09.21-.46.26-.71,0-.09-.01-.19,0-.28Zm22.92,2.46c.28-.21.53-.39.81-.59-.29-.16-.49-.28-.78-.44-.09.34-.37.61-.03,1.03Zm-1.41-8.48c.13,1.88.27,3.76.4,5.64.04.46.28.71.71.73.46.01.79-.25.82-.69.05-.62.09-1.23.11-1.85.04-1.31.09-2.63.09-3.94.01-.76-.04-1.51-.1-2.26,0-.15-.17-.29-.27-.45-.56.57-1.17.7-1.77.37-.04.27-.1.5-.09.73.02.57.06,1.14.1,1.72Zm3.08,4.92c-.04.82-.06,1.64-.14,2.46-.04.48-.12.98-.32,1.42-.19.4-.61.65-1.15.64-.3-.01-.61,0-.91,0-.23-.01-.53.08-.53-.29,0-.01-.18,0-.26-.03-.25-.09-.5-.19-.86-.33.09-.59.25-1.19.27-1.8.03-.71-.06-1.42-.11-2.13-.01-.21-.06-.42-.09-.64-.07-.5-.18-1.01-.19-1.52-.02-.51.09-1.02.08-1.52,0-1.07-.02-2.14-.12-3.21-.03-.28-.05-.53.02-.8.09-.34-.04-.61-.38-.81-.13-.08-.22-.23-.39-.41-1.01.26-1.86.95-2.86,1.64.08.44.17.97.26,1.49.04.31.07.61.11.91.13,1.24.3,2.47.39,3.7.06.79,0,1.59.02,2.39,0,.22.04.45.1.67.17.63.03,1.2-.3,1.74-.22.35-.24.77-.74.99-.39.16-.69.17-1.06.05-.09-.03-.2-.02-.33-.04-.01-.12-.02-.26-.04-.4-.26.04-.42.09-.54-.26-.11-.32-.3-.51-.09-.88.12-.21-.13-.57-.15-.86-.05-.42.34-.84-.04-1.27-.04-.05.16-.27.18-.46-.06.04-.12.08-.24.15-.2-2.74-.1-5.47-.94-8.11-.9-.36-1.93-.59-2.98-.67-.56-.04-1.14.17-1.71.27s-1.14.2-1.7.33c-.4.09-.78.28-1.18.33-.98.1-1.99.28-2.95.17-.51-.06-.98-.1-1.47-.01-.04.01-.11-.08-.28-.09.06.73.12,1.45.17,2.18.02.25.05.49.07.74.07.93.18,1.86.2,2.8,0,1-.06,2.01-.09,3.02-.01.32-.03.65,0,.97.05.66-.25,1.22-.55,1.78-.1.18-.2.35-.29.53-.3.67-1.32,1.09-2.03.43-.21-.19-.45-.39-.72-.5-.72-.27-.65-.78-.62-1.35.04-.72-.07-1.44-.07-2.16s.1-1.48.08-2.21c-.02-.85-.16-1.7-.19-2.55-.02-.7.08-1.39.1-2.09,0-.36-.05-.72-.08-1.09-.43-.29-.9-.6-1.49-1-.07.39-.16.67-.16.95,0,.47.07.95.09,1.43.04.78.09,1.57.1,2.35.02,1.65-.02,3.3.02,4.95.01.84-.25,1.59-.66,2.31-.12.21-.28.42-.51.21-.21.06-.38.14-.56.15-.7.05-1.16-.45-1.74-.64.12-.07.26-.15.38-.23-.31-.24-.59-.45-.82-.63.04-.67.08-1.32.13-1.98.08-1.06.17-2.13.26-3.19,0-.01.02-.02.02-.04.08-.64.17-1.28.22-1.92.06-.75.08-1.51.11-2.27.02-.54-.46-.84-.75-1.24-.1-.12-.18-.26-.28-.38-.15-.18-.37-.33-.48-.53-.2-.4-.38-.82-.52-1.25-.27-.83-.52-1.66-.75-2.49-.22-.79-.39-1.59-.58-2.38-.19-.74-.42-1.48-.56-2.22-.11-.61-.11-1.23-.16-1.84-.06-.58-.17-1.16-.2-1.74-.03-.96.04-1.93.01-2.91-.03-.76.03-1.54.1-2.31.04-.38.23-.75.28-1.14s-.14-.49-.54-.44c-.94.12-1.89.29-2.84.27-.42-.01-.9-.28-1.34-.52-.87-.49-1.2-1.27-1.61-2.02-.48-.88-.69-1.81-.72-2.81-.03-.98-.26-1.96-.37-2.95-.16-1.41-.37-2.83-.13-4.26.09-.56-.03-1.12-.33-1.63-.4-.66-.81-1.31-1.19-1.98-.07-.12-.09-.28-.09-.42-.02-.63-.37-.94-1.03-1.07-.55-.12-1.07-.33-1.59-.53-.49-.18-1-.34-1.42-.62-.38-.26-.65-.67-.96-1.02-.12-.13-.23-.27-.3-.42-.06-.13-.47-.18-.14-.42-.12-.06-.23-.11-.35-.17.03-.02.06-.03.09-.05-.09-.16-.18-.32-.26-.49-.13-.29-.23-.59-.36-.88-.15-.32-.31-.59-.75-.7-.21-.06-.36-.36-.54-.54.05-.04.1-.07.14-.1.08.1.15.21.29.41-.01-.48.27-.57.63-.65.88-.21,1.74-.54,2.63-.68.73-.11,1.52-.13,2.24.01,1.25.25,2.29.94,3.32,1.61.28.18.51.53.79.56.26.02.57-.26.84-.43,1.07-.69,2.31-1,3.55-1.27,1.03-.23,2.1-.14,3.14.06.98.19,1.96.35,2.93.56.84.19,1.64.49,2.25,1.1.13.14.34.23.52.34.33-.53.55-1.04.92-1.43.89-.92,2.13-1.25,3.4-1.51,1.4-.29,2.75-.04,4.12.16.33.05.67.03,1.01.03.31.01.4.08.33.4-.14.61-.16,1.24-.26,1.86-.15.96-.6,1.77-1.42,2.4-1.26.96-2.82,1.34-4.35,1.77-.5.15-.92.41-1.1.91-.07.2-.18.39-.26.59-.59,1.51-.15,2.76,1.3,3.76.29.2.49.53.8.68.74.35,1.53.64,2.3.95.05.02.14.02.2,0,.93-.32,1.86.08,2.79,0,.94-.08,1.9.01,2.83-.11.81-.11,1.6-.37,2.37-.63.8-.26,1.59-.46,2.43-.47,1.7-.02,3.39-.05,5.08-.09.24,0,.47-.07.7-.09,1.34-.11,2.65.14,3.93.4.61.13,1.16.52,1.73.81.56.28,1.13.56,1.66.88.5.3,1,.63,1.42,1.02.83.76,1.67,1.52,2.37,2.37.63.75,1.08,1.62,1.14,2.62.04.65.22,1.29.34,1.94.01.07.05.14.05.22.04.68.08,1.35.11,2.03.04,1.1.1,2.2.09,3.3-.01.78-.05,1.57-.22,2.33-.16.73-.6,1.38-1.28,1.86-.42.29-1.03.13-1.45-.27-.28-.27-.7-.42-1.15-.68-.07-.23-.1-.63-.48-.93-.19-.16-.24-.48-.33-.73-.25-.69-.49-1.38-.72-2.07-.07-.19-.09-.4-.12-.61-.06-.02-.11-.04-.16-.06-.2.3-.45.59-.6.91-.34.72-.23,1.47-.09,2.21.3,1.54.59,3.09.9,4.63.4,1.95.18,3.92.18,5.87,0,.84-.27,1.69-.84,2.4-.36.45-.17.9-.13,1.36.02.29.06.58.08.87.06,1.08.18,2.15.18,3.23,0,1.24-.1,2.49-.16,3.73Zm-.28-13.19l-.15-.42s.06-.03.1-.05c.16.12.32.24.54.42.14-.66.36-1.26.36-1.85-.01-.85-.25-1.7-.27-2.55-.03-1.64-.54-3.19-.87-4.78-.22-1.09-.03-2.03.64-2.91.12-.15.36-.25.56-.31.04-.02.24.24.27.39.35,1.43.95,2.76,2.07,3.84.25.24.52.5.84.66.31.15.7.25.97-.12.31-.44.61-.89.91-1.33.04-.06.09-.14.09-.21-.01-1.12-.01-2.24-.05-3.37-.02-.69-.14-1.39-.13-2.08.03-1.19-.08-2.37-.32-3.54-.03-.13-.11-.25-.19-.37-.4-.59-.78-1.19-1.22-1.76-.31-.41-.68-.78-1.06-1.14-.39-.37-.8-.72-1.24-1.03-.4-.29-.82-.65-1.29-.74-.77-.15-1.22-.72-1.88-1-.42-.18-.67-.69-1.28-.59-.1.02-.22-.03-.33-.04.03.1.06.22.1.32.13.29.25.59-.09.97-.04-.24-.07-.38-.08-.52-.06-.87-.05-.89-.97-1.14-.13-.04-.26-.06-.39-.08h0c-.36-.08-.73-.11-1.09-.14-.67-.06-1.36-.2-2-.09-.77.13-1.53.12-2.29.17-1.21.1-2.43.16-3.7.24.16.61-.3,1.26.45,1.7-.67.14-.73.1-.72-.45.01-.4.07-.79.11-1.27-.89.24-1.79.48-2.68.73-.29.08-.54.28-.82.3-1.12.08-2.25.18-3.36.15-1.02-.03-2.07-.1-3.03-.36-.93-.25-1.79-.75-2.65-1.19-.2-.11-.46-.49-.4-.59.17-.28.06-.42-.12-.6-.17-.16-.32-.33-.52-.55,0,.33.02.58,0,.83-.01.09-.13.18-.21.27-.09-.07-.25-.12-.27-.21-.31-.98-.44-1.96-.07-2.96.19-.48.35-.97.49-1.47.08-.28.01-.61.15-.85.28-.48-.03-.87-.2-1.24-.19-.39-.36-.86-.89-1.04-.04-.02-.08-.07-.09-.11-.07-.63-.67-.68-1.14-.87-.12-.05-.31-.09-.35-.18-.35-.78-1.05-1.19-1.88-1.4-.94-.23-1.91-.39-2.87-.56-.73-.14-1.47-.35-2.2-.35s-1.51.16-2.21.37c-.96.3-1.87.69-2.78,1.09-.35.16-.69.41-.93.69-.51.58-.85,1.28-1.57,1.7-.05.02-.08.09-.1.15-.12.4-.2.8-.21,1.19-.05.76.13,1.5.63,2.23.75,1.11,1.35,2.3,1.22,3.69-.08.88-.02,1.77-.01,2.66,0,.17.05.33.07.5.11.86.23,1.73.33,2.59.05.46.04.93.11,1.38.08.49.18.99.35,1.46.21.56.42,1.15.79,1.6h0c.46.56.85,1.28,1.71,1.39.7.08,1.45.12,2.14,0,1.21-.22,2.4-.58,3.59-.88.32-.08.64-.17.97-.21.51-.07,1.04-.06,1.55-.15.75-.14,1.48.08,1.92.65.05.06.16.08.22.14.14.15.32.29.42.44.03.05.05.1.06.16.03.18-.23.56-.36.56-.24.01-.57-.16-.72-.34-.34-.45-.68-.82-1.35-.8-.12,0-.25-.16-.35-.23-.21.13-.41.28-.65.38-.14.06-.33.01-.49.05-.72.2-1.43.43-2.16.6-.7.17-.86.31-.92.98-.01.08,0,.16,0,.23,0,1.4-.02,2.8,0,4.2.01.45.11.9.21,1.35.22,1.04.49,2.08.68,3.12.11.59.04,1.21.14,1.8.2,1.21.44,2.43.7,3.63.11.5.2,1.03.72,1.42.34-.78.83-1.02,1.38-.74-.89.32-.95.41-.71.97.25.02.49.03.73.04.01.05.02.09.02.14-.21.08-.36.35-.7.1-.08-.06-.27-.1-.32-.06-.07.06-.13.24-.08.3.51.68.69,1.54,1.59,1.98.7.34.97.37,1.57-.12.21-.16.47-.31.73-.37.35-.07.73-.04,1.15-.06.02.04.06.16.14.25.36.4.43,1.01,1.1,1.18s1.26.1,1.87-.24c.73-.41,1.45-.9,2.4-.79.28.03.56.07.84.09,1.38.1,2.68-.32,4.01-.53,1.13-.18,2.3-.28,3.36-.64.92-.3,1.52-.14,2.25.35.51.35,1.22.52,1.86.59.94.1,1.9.15,2.74-.47.71-.53,1.45-1.06,2.42-1.22.39-.07.63.08.85.32.07.08.1.21.19.26.46.27.93.52,1.39.78.32.19.59.19.94-.03.77-.48,1.06-1.21,1.43-1.92.45-.88.14-1.7-.17-2.53Z"/>
    </g>
  </g>
</svg>