<?xml version="1.0" encoding="UTF-8"?>
<svg xmlns="http://www.w3.org/2000/svg" viewBox="0 0 136.06 136.06">
  <defs>
    <style>
      .cls-1 {
        fill: #fff;
      }

      .cls-2 {
        fill: #0c3454;
      }

      .cls-3 {
        fill: #e0e1e3;
      }
    </style>
  </defs>
  <g id="Layer_3" data-name="Layer 3">
    <rect class="cls-3" width="136.06" height="136.06"/>
  </g>
  <g id="B_W" data-name="B&amp;amp;W">
    <g>
      <path class="cls-1" d="m54.97,58.14c.05.06.1.13.12.16-.35-.1-.72-.18-1.08-.3-.37-.14-.73,0-1.1,0-.38.01-.74.05-1.08.34.19-.43.53-.56.89-.66.47-.13.94-.1,1.41.01.32.08.62.19.84.45Z"/>
      <path class="cls-1" d="m52.41,69.26c.05.13.11.26.18.37-.27-.05-.51-.09-.75-.14-.03,0-.06,0-.11,0-.33.03-.41.02-.47-.36-.07-.5-.18-.99-.25-1.5-.05-.4-.08-.8-.12-1.2-.03-.43-.07-.87-.1-1.31-.07-.7-.13-1.39-.17-2.09-.03-.43-.07-.88-.04-1.31.04-.59.03-1.19.19-1.78.09-.35.08-.73.13-1.1.06-.37.13-.72.18-1.1.01-.08-.04-.16-.06-.24-.02,0-.04.01-.07.01-.04.23-.06.46-.09.69-.04.24-.09.5-.13.75-.04.26-.08.52-.11.79-.04.25-.06.51-.09.78-.02.25-.02.51-.04.76-.02.24-.09.47-.07.7.03.69.1,1.38.15,2.07.03.43.05.88.09,1.31.05.56.12,1.11.19,1.67.06.49.14.97.21,1.45.03.19.07.38.11.57.01.12.01.24.02.38-.29-.05-.54-.08-.79-.15-.07-.01-.14-.07-.15-.13-.08-.35-.16-.7-.21-1.06-.04-.32-.07-.66-.07-.98-.01-.37.02-.73.03-1.1,0-.38.01-.75,0-1.13-.01-.51-.04-1.02-.03-1.53,0-.45.04-.91.07-1.37,0-.05-.02-.11-.02-.16-.01-.05-.02-.1-.02-.16.04-.3.08-.62.11-.93.04-.29.06-.57.1-.86.05-.32.02-.65.14-.98.11-.33.09-.7.12-1.05.01-.07.02-.14.02-.21,0-.07-.02-.14-.03-.24-.21.11-.19.27-.21.41-.05.23-.09.47-.15.72-.07.32-.17.65-.22.99-.05.28-.11.57-.07.86.06.39-.13.74-.13,1.1,0,.38,0,.76-.01,1.14,0,.39-.01.77-.01,1.15,0,.41.01.81.01,1.21,0,.37-.01.73.01,1.08.01.25.09.49.12.73.04.29.08.59.12.88.04.28.08.55.12.81.04.3.08.59.13.91-.26,0-.54.01-.81-.02-.08,0-.18-.16-.2-.25-.07-.39-.11-.78-.14-1.18-.04-.6-.09-1.2-.12-1.79-.01-.04-.01-.08-.01-.11,0-.71-.02-1.42.01-2.12.03-.59.14-1.17.19-1.76.04-.34.06-.68.1-1,.03-.34.08-.68.12-1.01,0-.07-.01-.13-.02-.19-.01,0-.03.01-.05.01-.08.4-.19.79-.25,1.19-.11.59-.18,1.18-.25,1.77-.06.5-.11,1.01-.14,1.52-.01.3.01.6.01.91.02.47.03.96.04,1.44.03.53.05,1.05.09,1.58.02.27.05.55.08.82,0,.06,0,.13,0,.24-.23-.06-.44-.1-.63-.18-.06-.02-.12-.08-.13-.14-.11-.47-.24-.92-.33-1.39-.04-.29,0-.59,0-.89,0-.15-.01-.28-.01-.43.01-.25.03-.49.05-.75.03-.29.07-.6.12-.89.06-.33.14-.64.19-.97.02-.08,0-.18,0-.27.13-.75.23-1.51.39-2.26.08-.35.22-.71.34-1.07.25-.75.49-1.49.76-2.24.1-.3.23-.58.36-.85.03-.06.1-.12.15-.12.41-.01.81-.01,1.18-.01-.03.62-.07,1.22-.1,1.81-.03.31-.05.61-.05.92,0,.42.03.85.05,1.28,0,.22-.05.45-.04.67,0,.46,0,.92.07,1.37.06.56.17,1.12.25,1.68.01.08.07.16.07.24.03.24.02.48.06.72.05.51.13,1.01.17,1.52.07.75.42,1.4.68,2.07Z"/>
      <path class="cls-1" d="m57.76,54.38c.03.24-.34.5-.34.5-.09.06-.18.16-.51.39-.28.23-.62.4-.68.46-.18.14-.34.26-.58.2-.3-.09-.61-.16-.95-.25.1-.15.14-.31.25-.38.31-.22.26-.58.4-.87.04-.08.07-.19.07-.28,0-.17-.36-.58-.6-.68.11.14.19.24.27.32.16.15.21.37.13.56-.15.35-.35.66-.61.93-.14.14-.25.42-.54.24-.02-.01-.04,0-.06,0-.19-.02-.38-.02-.56-.06-.19-.03-.43.09-.52-.21-.08-.27-.26-.51-.3-.79-.04-.2.06-.42.1-.63.02-.06,0-.12,0-.19h-.08c-.07.35-.24.68-.1,1.08.09.23.08.49.11.73-.25.02-.47.03-.69.07-.22.02-.45.02-.66.08-.29.08-.58.04-.76-.15-.29-.29-.53-.63-.75-.98-.09-.13-.22-.28-.16-.5.07-.26.21-.44.47-.54-.03-.06-.05-.11-.09-.19-.09.1-.15.18-.22.24-.18.15-.36.65-.28.86.11.29.21.58.45.8.13.13.24.3.33.43-.35.21-.65-.05-.94-.17-.41-.17-.77-.44-.95-.88-.13-.3-.24-.57,0-.85.15-.15.33-.28.45-.44.32-.4.77-.51,1.22-.61.35-.07.72-.09,1.08-.14.45-.05.9-.12,1.35-.14.3-.02.61,0,.91.03.42.05.84.07,1.26.2.35.1.71.17,1.04.31.48.2.97.35,1.39.67.14.09.26.21.39.3.18.13.22.33.26.53Zm-1.72.13c.17-.15.11-.57-.12-.74.04.25.08.5.12.74Zm-2.39-.05c.1-.33.09-.63-.04-.92h-.07c.02.1.04.21.05.31.01.11.01.22.01.33.01.09-.13.2.05.28Zm-.83-1.16c.16-.16.18-.23.06-.38-.05.14-.09.25-.12.36.02.01.04.02.06.02Zm-.9,1c.01-.21.02-.41.03-.58-.18.24-.19.53-.03.58Zm-1.28-.46c.02-.17.1-.34.17-.54-.28.37-.35.79-.16,1.06,0-.18-.03-.35-.01-.52Z"/>
      <path class="cls-1" d="m55.96,56.4c-.01.18-.06.36-.09.58-.29-.06-.58-.11-.84-.16-.42-.08-.82-.21-1.24-.23-.54-.02-1.08.04-1.62.06-.33.02-.67.02-.99.05-.26.02-.51.05-.76.08h-.11c-.36-.02-.4-.06-.4-.4.01-.56,0-.55.56-.55.29,0,.57-.05.86-.06.19-.01.39.02.58.02.09,0,.17-.03.26-.03.31-.01.63.01.94-.02.45-.04.86.07,1.29.14.27.05.55.15.82.22.2.05.41.09.61.15.05.01.13.1.13.15Z"/>
      <path class="cls-1" d="m54.73,62.86c.08.01.14.12.2.18-.07.05-.13.13-.21.14-.2.02-.4.01-.59.01h-.44c.3-.4.68-.38,1.04-.33Z"/>
      <path class="cls-1" d="m55.04,63.47c-.02.06-.02.13-.05.17-.24.38-.58.4-.88.04-.06-.08-.11-.16-.18-.25h.92c.06,0,.13.02.19.04Z"/>
      <path class="cls-1" d="m55.11,62.21v.59c-.23-.16-.43-.22-.66-.15-.22.08-.46.1-.67.18-.3.12-.36.35-.21.62.14.28.33.53.63.63.18.06.38.06.57.03.14-.03.16.01.18.14,0,.09.01.17.02.23-.15.07-.3.17-.44.17-.15,0-.34-.06-.45-.17-.11-.1-.24-.09-.32-.06-.13.05-.16-.02-.23-.08-.13-.15-.28-.3-.42-.43-.02-.03-.04-.04-.04-.06-.04-.29-.18-.6.02-.89.12-.18.32-.25.49-.3.18-.04.29-.12.37-.27.02-.02.07-.04.1-.05.01.03.01.06.03.11.17-.04.34-.07.54-.12.01.02.05.06.1.13.08-.18.39.07.39-.25Z"/>
      <path class="cls-1" d="m53.41,68.27c0,.56,0,1.09-.02,1.61-.02.58-.03,1.17-.08,1.75-.01.16-.09.29-.27.34-.33.1-.64.2-.99.11-.1-.02-.23.02-.34.01-.39-.02-.68-.5-.62-.96.07-.45.11-.9.15-1.34.52-.17,1.03-.02,1.61.01-.03-.14-.04-.25-.08-.35-.17-.38-.36-.76-.54-1.12.42-.03.82-.04,1.18-.06Z"/>
      <path class="cls-1" d="m56.56,60.83s-.04.13-.07.14c-.13.04-.29.07-.44.09-.25.02-.49.03-.75.05-.15,0-.21.11-.24.25-.01.06,0,.12,0,.2-.26-.14-.54-.1-.81-.07-.29.03-.47.24-.73.3-.04.01-.09.03-.13.03-.33-.04-.44.01-.56.33-.04.11-.07.2-.23.14-.05-.01-.17.06-.2.12-.09.17-.15.35-.19.54-.04.17-.08.33-.09.5,0,.19.03.36.17.5.08.07.12.17.07.3-.07.15-.08.33.08.47.22.17.41.39.61.59.02.02.06.02.08.04.07.03.13.07.19.11.05.03.09.06.14.09.03.02.09.04.1.07.09.22.26.19.44.16.06-.01.13.01.21.02-.01.02-.01.04-.01.06-.05,0-.11-.01-.15-.01v.07c.17-.01.33-.03.5-.05.15-.01.31-.03.41-.03.04-.12.08-.21.11-.3.02.01.04.01.05.02v.19s.04,0,.05.01c.02-.08.05-.15.08-.22.17.39.13.8.04,1.19-.02.12-.11.25-.22.32-.28.22-.47.57-.86.69-.45.12-.9.29-1.35.41-.16.05-.35.03-.5,0-.08-.01-.17-.12-.19-.19-.13-.61-.32-1.21-.33-1.84-.01-.27,0-.54-.01-.8,0-.14-.01-.29-.04-.43-.07-.3-.16-.61-.23-.92-.04-.15-.03-.31-.04-.46-.03-.4-.08-.8-.09-1.2-.01-.45.03-.89.03-1.33,0-.53-.03-1.05-.03-1.58.01-.48.05-.96.08-1.43.01-.24.04-.47.04-.71.01-.32.04-.36.36-.34.44.03.86.07,1.29.1.31.02.63,0,.95.04.42.07.86,0,1.27.19.11.06.28,0,.46,0,0,.33-.01.6,0,.88.01.67.19,1.3.41,1.92.09.27.18.52.27.78Zm-1.15-2.2s-.1-.14-.15-.21c-.01-.01-.03-.03-.03-.05-.13-.49-.57-.65-.96-.76-.47-.12-.97-.18-1.48-.06-.5.12-.91.37-1.19.81-.05.07.01.31.02.31.21,0,.23.22.34.32.2.18.35.44.65.5.08,0,.17.03.25.04.3.05.59.09.88.13-.1-.07-.22-.08-.33-.1-.21-.04-.42-.1-.64-.13-.33-.04-.54-.23-.69-.49.01-.02.02-.04.03-.05.11.04.22.09.32.13.22.1.43.2.65.28.42.15.85.11,1.27,0,.27-.07.56-.05.82-.26.15-.12.17-.27.24-.41Z"/>
      <path class="cls-1" d="m56.05,84.25c-.21.12-.37-.02-.53-.1.17,0,.38-.13.53.1Z"/>
      <path class="cls-1" d="m55.81,80.41c.12.04.23.13.35.19-.11.07-.2.18-.32.2-.07.01-.24-.03-.19-.29.02-.01.11-.11.16-.1Z"/>
      <path class="cls-1" d="m57.38,81.11s.05.04.07.05c-.03.12-.06.25-.12.36-.01.04-.11.05-.15.03-.04-.01-.06-.12-.04-.15.07-.11.15-.19.24-.29Z"/>
      <path class="cls-1" d="m66.73,67.48v.08c-.15.04-.32.09-.48.14-.1-.13-.05-.24.05-.31.18-.12.3.02.43.09Z"/>
      <path class="cls-1" d="m63.74,63.35c.09.11.08.24,0,.37-.03.06-.09.11-.14.17-.02-.01-.05-.03-.06-.04.04-.17.08-.33.12-.51.03.01.05.01.08.01Z"/>
      <path class="cls-1" d="m67.92,65.76c.06.17.01.38.01.57-.02,0-.04,0-.07.01-.12-.18-.23-.36-.36-.53-.07-.07-.17-.14-.25-.2-.38-.3-.82-.35-1.24-.17-.24.1-.44.29-.63.48-.2.2-.17.52.05.8.22.26.49.42.86.4.16-.02.37.02.46.21-.16-.03-.34-.08-.5-.04-.22.05-.14.29-.19.46-.22,0-.44-.05-.66-.03-.17.01-.35.02-.49.1s-.25.26-.39.42c-.26-.15-.53-.31-.81-.46-.2-.11-.41-.2-.61-.29-.1-.05-.13-.08-.09-.22.08-.3.16-.61.21-.92.11-.66.22-1.3.32-1.95.01-.04,0-.08,0-.13,0-.14-.01-.27.18-.38.2-.1.21-.37.05-.69.1.04.2.05.21.08.05.18.09.37.12.56.05.35-.21.71.07,1.05.03,0,.08.02.14.03.37-.5.89-.72,1.47-.84.16-.03.34-.09.5-.07.18.03.34.16.51.23,0,.02-.01.03-.02.05h-.59s-.07.1-.05.16c.01.04.12.07.18.08.31.03.62.03.93.09.14.03.26.16.36.27.09.11.13.26.19.42-.51-.38-1.1-.4-1.7-.48,0,.04-.01.1-.02.17.12.02.23.05.34.05.33.01.66.07.97.21.23.11.46.25.54.5Zm-2.88-.18s.07-.11.11-.16c-.28.06-.45.2-.48.49-.03.3-.05.6.18.84.02.03.07.04.1.05,0-.03.01-.07,0-.1-.23-.39-.26-.69.1-1.12Z"/>
      <path class="cls-1" d="m57.31,80.98s0,.04,0,.06c-.28.26-.32.38-.23.64-.57.41-1.17.69-1.91.64-.01.05-.01.12-.01.19.06,0,.13.01.21,0,.23-.04.48-.06.71-.14.31-.12.6-.29.95-.46-.1.19-.15.36-.26.5-.12.15-.27.27-.42.36-.17.08-.36.13-.55.15-.18.03-.36-.03-.54-.02.21.24.44.3.72.18.25-.1.49-.21.73-.31,0,0,.01.01.01.02-.19.29-.45.53-.8.58-.27.03-.56-.07-.85-.11-.07,0-.16.01-.23.01v.08c.13.05.25.13.38.14.34.03.58.25.85.39.18.1.2.17.09.33-.24-.25-.5-.29-.8-.15-.06.02-.15-.07-.22-.12-.39-.28-.76-.56-1.16-.82-.17-.11-.39-.16-.61-.25.05-.6.11-1.26.18-1.93h.06c.27,0,.51-.01.77-.18.24-.16.57-.19.86-.28.1-.03.18-.06.25-.08.06.18.1.35.15.57-.13.03-.32.07-.49.12-.11.05-.23.08-.33.13-.16.07-.13.18-.01.25.14.09.28.17.43.19.46.06.91,0,1.31-.28.16-.12.32-.25.49-.36.07-.04.18-.03.26-.04Z"/>
      <path class="cls-1" d="m67.55,82.48c-.17.03-.34.06-.51.08s-.34.04-.52.04c-.15,0-.25-.19-.23-.44.45-.07.86.08,1.26.32Z"/>
      <path class="cls-1" d="m67.64,82.73c-.1.11-.18.26-.31.35-.3.21-.66.15-.99.12-.07-.01-.14-.14-.19-.21.15-.27.39-.18.59-.21.29-.04.57-.03.9-.05Z"/>
      <path class="cls-1" d="m72.64,81.28c.13-.04.26-.09.39-.14-.08.22-.6.32-.84.19-.06.3-.12.61-.2.91-.12.44-.24.88-.41,1.3-.24.6-.64,1.11-1.07,1.58-.2.22-.45.39-.66.6s-.45.43-.44.81c.01.39-.07.79-.11,1.19-.02.2-.26.39-.46.4-.1.01-.2.05-.3.07-.32.04-.62-.01-.85-.22-.09-.09-.12-.31-.08-.45.09-.37.07-.75.05-1.13,0-.2-.29-.41-.52-.44-.19-.03-.4-.05-.57-.14-.51-.31-.62-.87-.48-1.39.09-.34.19-.66.28-.99.31-.02.65-.03.98-.05.18-.02.44-.33.45-.52,0-.06.04-.13.08-.19.06-.12.07-.23-.06-.31-.38-.25-.8-.37-1.26-.4-.07-.01-.14-.01-.24-.01.04-.08.06-.16.09-.22.12-.22.06-.42-.05-.63-.1-.2-.3-.13-.46-.16-.17-.02-.35.03-.52.03-.28.01-.35-.09-.21-.34.25-.44.53-.87.67-1.37.07-.26.17-.51.25-.77s.14-.51.2-.73c.23.03.46.07.69.09.07,0,.17-.02.22-.07.14-.15.32-.12.5-.11.39.02.78.03,1.16.09.15.02.27.18.42.22.27.09.33.31.43.53.12.25.14.49.1.76-.03.27-.04.54-.01.81.02.29.22.41.5.36.18-.03.35-.06.54-.09.02.11.04.23.06.37.15.03.19-.03.2-.15.01-.08.08-.16.13-.23.04-.05.09-.09.14-.13-.07-.01-.13-.02-.23-.04.01-.05.02-.11.04-.18.24.1.31.25.29.47-.01.1.03.2.03.3.01.3,0,.6-.25.81-.22.18-.3.4-.28.67.01.04.01.08,0,.12,0,.1.03.22-.11.24-.12.02-.33-.14-.33-.25,0-.09,0-.18,0-.29-.18.24-.15.4.07.51.07.04.15.07.22.1.19.08.28.03.32-.17.03-.14.04-.29.04-.43.01-.13.04-.19.16-.25.1-.05.2-.16.24-.26.17-.45.19-.92.05-1.38-.03-.11-.11-.23-.21-.3-.21-.16-.39-.06-.5.23,0-.01-.03-.02-.03-.03-.02-.35.23-.79.6-.82.2-.01.49.23.56.43.1.29.07.57-.01.86-.03.1-.05.21-.05.31.02.3.36.52.66.42Zm-1.4-.11c.02-.09.05-.17.04-.26,0-.04-.08-.08-.14-.12-.01,0-.04.03-.06.04.03.05.06.09.09.14.01.03.02.06.02.09-.02,0-.05,0-.08-.01-.02,0-.05-.02-.07-.03-.01.02-.02.04-.03.07.07.02.15.05.23.08Zm-2.03-1.75c.11-.11.1-.23.02-.33-.13-.17-.28-.32-.43-.47-.32-.31-.68-.54-1.16-.54-.17.05-.34.12-.51.14-.33.05-.54.25-.75.47-.12.13-.15.31-.08.43.29.44.63.81,1.18.95.53.14.98.01,1.43-.26.18-.1.18-.27.3-.39Zm-.87,4.33c.31-.6.21-1.22.08-1.84-.09-.41-.46-.67-.72-.99-.02-.02-.12.02-.18.03,0,.02,0,.04,0,.07.32.19.49.51.62.83.12.32.22.67.14,1.03-.04.14-.02.28-.03.42-.05.44-.28.79-.48,1.17-.02.03-.03.06-.05.1.05,0,.1.01.14,0,.05-.02.1-.06.12-.11.12-.23.23-.47.35-.7Z"/>
      <path class="cls-1" d="m64.14,89.11c.05.06.03.22.01.33-.09.36-.15.72-.05,1.08.07.25-.2.2-.27.32-.03.05-.14.05-.21.05-.36-.02-.73-.04-1.08-.09-.17-.02-.32-.13-.36-.32-.01-.05,0-.1,0-.19.33.29.4.31.57.18-.38-.13-.75-.27-.61-.81.23.18.46.37.69.55.17-.11.1-.19-.01-.21-.29-.04-.43-.22-.53-.46-.04-.09-.02-.21,0-.32.24.29.53.46.84.59.04.02.08,0,.12,0-.04-.04-.06-.1-.1-.12-.21-.13-.44-.23-.63-.37-.08-.06-.12-.21-.14-.33-.01-.03.1-.13.14-.12.11.02.21.07.3.12.12.07.24.17.37.23.05.03.14-.01.22-.02-.02-.06-.03-.13-.06-.17-.09-.1-.19-.18-.28-.28-.04-.05-.04-.11-.08-.21.22.02.42-.01.56.07.22.12.41.3.59.49Z"/>
      <path class="cls-1" d="m64.89,92.31c.01.32.02.64.01.97,0,.21-.24.39-.51.42-.08,0-.17.01-.24.04-.31.14-.65.18-.98.16-.11,0-.23-.06-.31-.13-.2-.2-.35-.44-.33-.74,0-.03.03-.06.03-.06l.6.48s.05-.04.08-.07c-.04-.05-.07-.13-.12-.15-.43-.18-.57-.44-.48-.91.23.21.46.42.74.68,0-.08.02-.16-.01-.18-.1-.08-.21-.16-.33-.22-.2-.11-.36-.38-.34-.7.15.07.28.12.39.19.22.12.43.24.65.36.04.02.1.02.13.01.09-.04.16-.1.24-.15-.06-.05-.13-.1-.2-.16-.1-.09-.22-.18-.3-.29-.03-.04-.02-.17.02-.2.06-.05.17-.08.24-.05.35.13.67.31.96.55.04.03.06.1.06.15Z"/>
      <path class="cls-1" d="m76.91,99.1s0,.06-.02.1l-.03.21c-.1-.02-.21.09-.33-.03-.13-.14-.19-.29-.21-.47-.02-.12-.07-.24-.11-.36-.04.01-.09.01-.13.02,0,.15-.04.31.01.45.07.21-.04.35-.11.53-.3-.19-.03-.62-.35-.78-.07.05-.14.09-.22.15-.06-.41-.07-.78-.17-1.14-.05-.21-.21-.42-.37-.59-.29-.35-.73-.49-1.13-.58-.34-.08-.69-.27-1.09-.1,0-.23-.01-.42,0-.6,0-.04.08-.11.12-.12.57-.07,1.13,0,1.7.06.75.07,1.26.52,1.82.92.12.09.18.29.25.44.11.25.25.51.3.77.06.37.05.75.07,1.12Z"/>
      <path class="cls-1" d="m75.13,99.11c.01.13-.04.26-.06.38-.21.03-.3-.05-.26-.23s-.06-.28-.24-.39c0,.09,0,.17-.02.24-.01.14-.02.29-.05.43-.01.04-.09.09-.11.08-.07-.03-.17-.07-.18-.13-.05-.14-.06-.3-.1-.44-.02-.09-.07-.16-.1-.24-.02,0-.04,0-.06,0-.06.23-.12.45-.18.68,0,.02-.02.05-.02.07-.03.21-.1.26-.34.22-.13-.03-.18-.17-.17-.34,0-.29,0-.59-.04-.88-.04-.22-.2-.29-.57-.3v-1.54c.11.01.23.01.35.04.44.1.9.17,1.33.34.35.14.62.44.7.84.07.39.09.77.12,1.16Z"/>
      <path class="cls-1" d="m79.66,85.74c.05.05.09.11.16.2-.1.01-.17.02-.23.02-.26-.02-.45-.15-.62-.33-.13-.14-.31-.18-.49-.23-.08-.03-.17-.05-.26-.08v-.03c.19-.04.39-.09.58-.1.07-.01.15.05.21.09.11.06.21.13.31.21.11.08.23.16.34.25Z"/>
      <path class="cls-1" d="m79.51,86.05s.08.01.13.02c-.1.15-.19.28-.27.43-.02.02,0,.07,0,.1.03.1,0,.13-.1.13-.28,0-.5-.15-.73-.29-.23-.16-.31-.41-.43-.64-.05-.09-.11-.18-.16-.27,0-.03-.02-.08,0-.09.02-.02.07-.04.1-.04.17.04.34.07.51.12.11.04.22.09.32.15.07.04.12.13.18.19.03.03.06.05.1.06.12.05.24.09.36.13Z"/>
      <path class="cls-1" d="m85.22,85.13c-.11.16-.15.18-.4.22-.24.04-.49.05-.72.1-.25.05-.48.15-.54.44-.01.04-.04.07-.07.12-.09-.06-.18-.11-.26-.17.06-.22.16-.41.34-.52.17-.1.36-.16.55-.22.37-.12.73-.03,1.1.03Z"/>
      <path class="cls-1" d="m89.96,99.18c-.07.05-.13.1-.19.15-.09-.11-.02-.18,0-.27.07.05.12.08.19.12Z"/>
      <path class="cls-1" d="m82.72,99.11v.19c-.06-.07-.1-.12-.16-.19h.16Z"/>
      <path class="cls-1" d="m83.1,99.27c-.05.03-.11.07-.19.12,0-.11-.02-.2-.03-.3.08.07.15.12.22.18Z"/>
      <path class="cls-2" d="m91.65,91.32c0,.28.03.57.02.85,0,.2-.01.41-.05.61-.04.19-.14.36-.3.48-.1.07-.24.03-.34-.07-.07-.07-.17-.11-.28-.18,0-.06-.02-.16-.11-.24-.05-.04-.06-.12-.08-.19-.06-.18-.11-.35-.17-.53-.02-.06-.02-.11-.03-.16-.01-.01-.02-.01-.04-.02-.04.08-.1.15-.14.24-.08.18-.05.38-.02.57.07.4.14.8.22,1.2.09.51.04,1.02.04,1.52,0,.22-.07.44-.2.62-.09.12-.04.24-.03.36,0,.07.01.15.02.22.01.28.04.56.04.84,0,.32-.02.65-.04.97,0,.21,0,.42-.03.64-.01.12-.03.25-.08.36-.04.11-.14.17-.27.17h-.22c-.05,0-.12.02-.12-.07,0-.01-.04-.01-.06-.01-.06-.03-.12-.05-.21-.09.03-.15.06-.31.07-.47,0-.18-.02-.36-.03-.55,0-.05-.01-.11-.02-.16-.02-.13-.04-.27-.05-.4,0-.13.03-.26.02-.39,0-.28,0-.56-.02-.83-.01-.08-.02-.14,0-.21.02-.09-.01-.16-.09-.21-.03-.02-.05-.06-.09-.11-.24.07-.44.25-.68.43.02.11.04.25.06.38l.03.24c.03.32.07.64.09.96.01.2,0,.41.01.62,0,.06,0,.12.02.17.04.16.01.31-.07.45-.05.09-.06.2-.18.26-.09.04-.16.04-.25.01-.02,0-.05,0-.08-.01,0-.03,0-.06,0-.1-.06,0-.09.02-.12-.07-.03-.08-.07-.13-.02-.23.02-.05-.03-.14-.04-.22-.01-.11.08-.22-.01-.33,0-.02.04-.07.04-.12-.01.01-.03.02-.05.04-.05-.71-.03-1.42-.23-2.1-.21-.1-.46-.16-.7-.18-.14-.01-.27.05-.41.07-.13.03-.27.06-.4.09-.09.02-.19.07-.28.08-.23.03-.47.08-.7.05-.12-.02-.23-.03-.35,0-.01,0-.02-.02-.06-.03.01.19.02.38.04.57,0,.06,0,.13,0,.19.02.24.05.48.05.73s-.01.52-.02.78c0,.08-.01.17,0,.25,0,.17-.06.32-.13.46-.02.05-.05.09-.07.14-.07.17-.31.28-.48.11-.05-.05-.11-.1-.17-.13-.17-.07-.15-.2-.15-.35,0-.18-.01-.37-.01-.56s.02-.38.02-.57c0-.22-.04-.44-.05-.66,0-.18.02-.36.02-.54.01-.1-.01-.19-.01-.29-.11-.07-.22-.15-.36-.26-.01.11-.04.18-.04.25.01.12.02.25.03.37.01.2.02.41.02.61v1.28c0,.22-.06.42-.15.6-.03.06-.07.11-.12.06-.05.01-.09.03-.14.04-.16.01-.27-.12-.41-.17l.09-.06c-.07-.06-.14-.12-.19-.16.01-.18.02-.35.03-.52.02-.27.04-.55.06-.82,0-.01,0-.01,0-.01.01-.17.04-.33.05-.5.01-.2.02-.39.02-.59,0-.14-.11-.22-.18-.32-.02-.03-.04-.07-.06-.1-.04-.05-.09-.09-.11-.14-.05-.1-.1-.21-.13-.32-.06-.22-.12-.43-.18-.65-.05-.2-.09-.41-.13-.62-.05-.19-.1-.38-.14-.57-.02-.16-.02-.32-.03-.48-.02-.15-.04-.3-.05-.45-.01-.25.01-.5,0-.75-.01-.2.01-.4.03-.6,0-.1.05-.2.06-.3s-.03-.13-.13-.11c-.22.03-.44.07-.67.07-.1,0-.21-.07-.32-.14-.2-.12-.28-.33-.38-.52-.11-.23-.16-.47-.17-.73,0-.25-.06-.51-.09-.76-.03-.37-.08-.74-.03-1.11.03-.14,0-.29-.08-.42-.09-.17-.19-.34-.28-.51,0-.03-.02-.08-.02-.11,0-.17-.08-.25-.24-.28-.13-.03-.25-.09-.38-.14-.11-.05-.24-.09-.33-.16s-.16-.17-.23-.26c-.03-.04-.06-.07-.07-.11-.02-.04-.11-.05-.04-.11-.02-.02-.05-.03-.08-.04,0-.01.02-.01.02-.02l-.06-.12c-.03-.08-.05-.16-.09-.23-.03-.09-.07-.16-.17-.19-.05-.01-.09-.09-.13-.14.01,0,.02-.01.03-.02.02.03.04.05.07.11,0-.13.07-.15.15-.17.21-.06.41-.14.62-.18.18-.03.36-.03.53,0,.3.07.55.25.79.42.07.05.12.14.19.15.06,0,.13-.07.2-.12.25-.18.54-.26.84-.33.24-.05.49-.03.74.02.23.05.47.09.69.15.2.05.39.12.54.28.03.04.08.06.12.09.08-.14.13-.27.22-.37.21-.24.5-.32.8-.39.34-.08.66-.01.98.04.08.01.16.01.24.01.07,0,.09.02.08.1-.04.16-.04.32-.06.48-.04.25-.15.46-.34.62-.3.25-.67.35-1.03.47-.12.03-.22.1-.26.23l-.06.15c-.14.4-.04.72.3.98.07.05.12.14.19.17.18.1.37.17.55.25.01,0,.03,0,.05,0,.22-.08.44.02.66,0s.45,0,.67-.03c.19-.03.38-.09.56-.16.19-.07.37-.12.58-.12l1.2-.03c.05,0,.11-.01.16-.02.32-.03.63.04.93.1.15.04.28.14.41.21.14.08.27.15.4.23.12.08.23.17.33.27.2.19.4.39.57.61.14.2.25.42.27.68.01.17.05.34.07.5,0,.02.02.04.02.06.01.18.02.35.02.53Zm-.12,1.28c0-.29,0-.58,0-.88-.01-.18-.04-.36-.03-.54,0-.31-.02-.61-.08-.91,0-.04-.02-.07-.04-.1-.1-.15-.19-.31-.29-.46-.08-.1-.16-.2-.25-.29-.1-.1-.19-.19-.3-.27-.09-.07-.19-.17-.3-.19-.18-.04-.29-.19-.45-.26-.1-.05-.16-.18-.3-.15-.03,0-.05-.01-.08-.01,0,.02,0,.05.02.08.04.08.06.15-.02.25-.01-.06-.01-.1-.02-.13q-.01-.23-.23-.3c-.11-.03-.23-.04-.35-.06-.15-.01-.32-.05-.47-.02-.18.03-.36.03-.54.05-.29.02-.58.04-.88.06.04.16-.07.32.11.44-.16.03-.18.02-.17-.12,0-.1.01-.2.02-.33-.21.07-.42.13-.63.19-.07.02-.13.07-.2.08-.26.02-.53.04-.79.04-.24-.01-.49-.03-.72-.1-.22-.06-.42-.19-.63-.3-.04-.03-.11-.13-.09-.16.04-.07,0-.11-.03-.15s-.07-.09-.12-.14c0,.08,0,.15,0,.21,0,.02-.03.05-.04.07-.03-.02-.06-.03-.07-.05-.07-.26-.1-.51-.01-.77.04-.13.08-.25.11-.38.02-.07,0-.16.04-.22.06-.13-.01-.23-.05-.32-.05-.11-.09-.23-.21-.28-.01,0-.02-.01-.02-.02-.02-.17-.16-.18-.27-.23-.03-.01-.08-.02-.08-.05-.09-.2-.25-.3-.45-.36-.22-.06-.45-.1-.68-.14-.17-.04-.35-.09-.52-.09-.18,0-.36.04-.53.09-.22.08-.44.18-.65.29-.09.04-.17.1-.22.17-.12.15-.2.34-.38.44,0,.01-.02.03-.02.04-.08.31-.08.6.1.89s.32.59.29.96c-.02.22,0,.46,0,.69,0,.04.01.08.01.13.03.22.06.44.08.67.01.12.01.24.03.36s.04.25.08.37c.05.15.1.3.19.42.11.14.2.33.4.36.17.02.35.03.51,0,.29-.06.57-.15.85-.23.08-.02.15-.04.23-.06.12-.01.25-.01.37-.03.18-.04.35.02.45.17.02.01.04.02.05.03.05.05.11.1.12.16,0,.04-.05.14-.09.14-.05,0-.13-.04-.17-.09-.08-.11-.16-.21-.32-.2-.02,0-.05-.04-.08-.06-.05.03-.1.07-.15.1-.04.01-.08,0-.12.01-.17.05-.34.11-.51.16-.17.04-.2.07-.22.25v1.15c.01.11.03.23.05.35.06.27.12.54.17.81.02.15,0,.31.03.46.04.32.1.63.16.95.03.12.05.26.17.36.08-.2.2-.26.33-.19-.21.08-.22.11-.17.25.06.01.12.01.18.01v.04c-.05.02-.08.09-.17.02,0-.01-.06-.02-.07-.01-.02.01-.03.06-.02.08.12.17.16.4.38.51.16.09.23.1.37-.03.05-.04.11-.08.17-.1.08-.01.17-.01.27-.01.01.01.02.04.04.06.08.1.1.26.26.31.16.04.3.02.44-.06.17-.11.34-.24.57-.21.06.01.13.02.2.02.32.03.63-.08.95-.13.26-.05.54-.07.79-.17.22-.08.36-.04.54.09.12.09.28.14.44.15.22.03.45.04.64-.12.17-.13.35-.27.58-.31.09-.02.15.02.2.08.02.02.02.05.05.07.1.07.21.13.32.2.08.05.14.05.23-.01.18-.12.25-.31.33-.5.11-.22.04-.44-.03-.65-.02-.04-.03-.07-.04-.11,0,0,0-.01.02-.01.04.03.08.06.13.1.03-.17.09-.32.09-.48-.01-.22-.06-.44-.07-.66-.01-.42-.13-.82-.2-1.23-.06-.29,0-.53.15-.76.03-.04.08-.07.13-.08,0,0,.06.06.06.1.09.37.23.72.49,1,.06.06.13.13.2.17.08.04.17.06.23-.03.08-.12.15-.23.22-.35.01-.01.02-.03.02-.05Zm-1.76,6.73c.06-.05.12-.1.19-.15-.07-.04-.12-.07-.19-.12-.02.09-.09.16,0,.27Zm.17-2.23c0-.19-.01-.39-.03-.58,0-.04-.04-.08-.06-.12-.13.15-.28.18-.42.1-.01.07-.02.13-.02.18,0,.15.01.3.02.45.03.49.07.98.1,1.47.01.11.06.18.17.18.1.01.18-.06.19-.18.01-.15.02-.31.02-.47.01-.35.03-.69.03-1.03Zm-1.67,1.45c0-.09-.01-.19-.02-.29-.02-.22-.06-.43-.07-.65-.01-.23-.01-.47-.07-.69-.02-.12-.03-.24-.05-.35-.01.01-.02.01-.03.02-.07-.01-.15-.03-.25-.05.01.14.02.3.05.45.03.17.07.32.04.49-.03.13-.03.26-.03.39,0,.12.01.23,0,.34-.02.24,0,.46.16.64.13-.06.26-.13.27-.3Zm-3-12.81c.06-.17.07-.36.11-.54-.18.12-.31.29-.55.25-.02,0-.04.01-.06.01-.16.02-.31.05-.47.06-.23.02-.43.09-.58.27-.1.11-.17.25-.12.4.06.17.14.34.22.5.14-.04.31-.1.47-.15.29-.1.58-.22.78-.45.09-.1.16-.23.2-.35Zm-.45-.39c.25-.04.29-.06.4-.22-.37-.06-.73-.15-1.1-.03-.19.06-.38.12-.55.22-.18.11-.28.3-.34.52.08.06.17.11.26.17.03-.05.06-.08.07-.12.06-.29.29-.39.54-.44.23-.05.48-.06.72-.1Zm-.48,13.34c.04-.24.05-.49.02-.73-.01-.06-.05-.12-.05-.17,0-.18,0-.36,0-.54-.01-.12-.03-.25-.05-.37-.01-.03-.05-.07-.08-.07-.08,0-.16,0-.24.02v.8c0,.2.02.4.03.61.01.18-.01.36.01.54,0,.12.15.2.29.17.12-.02.05-.12.06-.18.01-.03,0-.05.01-.08Zm-1.2-.8c-.01-.15-.03-.3-.04-.45-.01-.22-.01-.43-.03-.65,0-.03-.05-.08-.07-.08-.08,0-.15.02-.24.04-.01.15-.02.31-.03.47-.01.17-.02.34-.04.5-.02.15-.03.31-.06.46-.03.12-.09.23-.1.36,0,.12.02.25.03.38.26.09.45.08.55-.01-.01-.02-.03-.04-.03-.06.01-.24.01-.48.02-.72.01-.08.04-.16.04-.24Zm-.23,1.5c.08-.05.14-.09.19-.12-.07-.06-.14-.11-.22-.18.01.1.02.19.03.3Zm-.19-.09v-.19h-.16c.06.07.1.12.16.19Zm-2.9-13.36c-.07-.09-.11-.15-.16-.2-.11-.09-.23-.17-.34-.25-.1-.08-.2-.15-.31-.21-.06-.04-.14-.1-.21-.09-.19.01-.39.06-.58.1v.03c.09.03.18.05.26.08.18.05.36.09.49.23.17.18.36.31.62.33.06,0,.13-.01.23-.02Zm-.18.13c-.05,0-.09,0-.13-.02-.12-.04-.24-.08-.36-.13-.04-.01-.07-.03-.1-.06-.06-.06-.11-.15-.18-.19-.1-.06-.21-.11-.32-.15-.17-.05-.34-.08-.51-.12-.03,0-.08.02-.1.04-.01.01,0,.06,0,.09.05.09.11.18.16.27.12.23.2.48.43.64.23.14.45.29.73.29.09,0,.13-.03.1-.13,0-.03-.02-.08,0-.1.08-.15.17-.28.27-.43Z"/>
      <path class="cls-1" d="m89,91.44c-.1.26-.04.48.06.69h.05c-.03-.22-.07-.44-.11-.69Zm-4.28.04c-.14.15-.17.3-.05.35.02-.13.04-.23.05-.35Zm4.8.29c-.11.08-.11.12.02.22,0-.09-.01-.14-.02-.22Zm-1,.21c-.02-.17-.05-.33-.08-.54-.08.15-.05.41.08.54Zm1.2-2.46s.02-.08.02-.12c.01-.03.01-.05,0-.08,0-.08-.02-.16-.04-.24h-.04c0,.11,0,.21,0,.32,0,.04.03.07.06.12Zm-1.03.01c-.07-.02-.14-.02-.19-.06-.05-.05-.09-.13-.1-.2-.04-.18-.01-.23.13-.3-.15-.04-.26.03-.24.17.02.12.06.24.11.35s.22.12.29.04Zm-1.15,5.4c-.17.15-.21.34-.11.47.04-.17.08-.32.11-.47Zm-2.58-2.8c.13-.24.06-.5.07-.74,0-.01-.04-.02-.07-.03v.77Zm6.18-2.09c.03.12.06.21.09.32.1-.08.05-.25-.09-.32Zm-.86.94c.1-.06.16-.03.22.06s.07.17.03.27h-.13c0,.13.12.05.15.1.02-.02.05-.04.06-.07.07-.15,0-.27-.06-.39-.05-.08-.21-.06-.27.03Zm1.03,1c0,.14.02.24.04.35.01,0,.02,0,.04.01.01-.04.02-.08.02-.11,0-.09.01-.18-.1-.25Zm-2.62-.21s.1-.04.11-.07c.06-.2.02-.4-.03-.6-.02-.09-.1-.12-.17-.1.13.24.23.47.09.77Zm1.33,3.11c.05-.24-.08-.63-.27-.74.09.26.18.48.27.74Zm-2.15-.86s0,.05,0,.06c.09.05.1.14.11.23.01.12.1.26-.07.35-.01,0-.01.04-.01.07.08-.03.17-.01.18-.11.02-.22.04-.45-.2-.6Zm2.42-4.79c-.08.13-.04.23.08.25-.03-.09-.06-.17-.08-.25Zm-1.05,3.52c.06-.11-.08-.44-.22-.45.07.15.15.3.22.45Zm.67-3.51c-.03.16-.02.29.08.41.04.07.08.06.1.03-.06-.17-.12-.3-.18-.44Zm-2.5-.26c-.18.13-.29.41-.19.55s.27.2.48.14v.29h.05c0-.06.01-.12.02-.18.03-.16-.08-.39-.23-.46-.02,0-.06.01-.09.01.02.02.03.04.05.06.06.05.16.09.14.21-.04,0-.07,0-.1.01-.15.03-.27-.09-.24-.24.03-.13.07-.24.11-.39Zm1.48,4.83c-.08.08-.06.16-.01.23.02.02.07.01.12.02-.04-.1-.07-.16-.11-.25Zm-3.55-1.84c.02-.25.03-.5.05-.78-.15.21-.16.68-.05.78Zm1.28.2c-.25-.22-.1-.48-.06-.74-.11.08-.17.31-.15.52.02.13.1.18.21.22Zm1.29,1.82c.03-.22.06-.43.09-.64-.15.05-.23.49-.09.64Zm.07,1.44c-.01-.21.13-.4.04-.62-.04.21-.19.4-.04.62Zm-1.07-5.23c-.02.21.15.32.16.5.09-.1.01-.34-.16-.5Zm-.44,3.62c.08-.21.14-.38.21-.56-.16.03-.29.32-.21.56Zm.06-4.86s-.04.06-.04.1c-.04.25.07.43.27.57.1.06.18.17.34.12.04,0,.09.03.09.1-.01.03,0,.06,0,.09.08-.06.09-.17.02-.27-.11-.15-.22-.29-.35-.45-.03.11-.01.18.06.23s.12.12.19.19c-.22.04-.33-.11-.44-.21-.13-.12-.12-.3-.14-.47Zm-1.27,3.54c-.1.07-.15.4-.11.47.04.08.11.09.18.03-.13-.06-.11-.17-.1-.27,0-.08.02-.15.03-.23Zm-.37,3.4c.01-.14.02-.25.05-.37.03-.11.08-.2.12-.31-.21.05-.32.45-.17.68Zm-1.28-1.54c-.02.13-.06.27.02.39.05.08.06.18-.05.24-.01,0-.01.04-.02.06.04,0,.08.01.11.01.08-.24.01-.47-.06-.7Zm-1.55-7.52c.12-.11.06-.25.12-.36-.11.04-.16.18-.12.36Zm-.65-.24c0,.08.01.14.01.22.02,0,.03,0,.05,0,.02-.07.04-.14-.06-.21Zm10.11,5.12c0,.3,0,.59,0,.88,0,.02,0,.04-.02.05-.07.12-.14.23-.22.35-.06.09-.15.07-.23.03-.07-.04-.14-.11-.2-.17-.26-.28-.4-.63-.49-1,0-.04-.05-.1-.06-.1-.05.01-.1.04-.13.08-.16.23-.21.47-.15.76.07.41.19.81.2,1.23,0,.22.06.44.07.66,0,.16-.06.31-.09.48-.05-.04-.09-.07-.13-.1-.01,0-.01.01-.02.01,0,.04.02.07.04.11.07.21.14.43.03.65-.08.19-.15.38-.33.5-.09.06-.15.06-.23.01-.11-.07-.22-.13-.32-.2-.03-.02-.03-.05-.05-.07-.05-.06-.11-.1-.2-.08-.23.04-.41.18-.58.31-.19.16-.42.15-.64.12-.16-.01-.32-.06-.44-.15-.18-.13-.32-.17-.54-.09-.25.1-.53.12-.79.17-.32.05-.63.16-.95.13-.07,0-.14-.01-.2-.02-.23-.03-.4.1-.57.21-.14.08-.28.1-.44.06-.16-.05-.18-.21-.26-.31-.02-.02-.03-.05-.04-.06-.1,0-.19,0-.27.01-.06.02-.12.06-.17.1-.14.13-.21.12-.37.03-.22-.11-.26-.34-.38-.51-.01-.02,0-.07.02-.08.01-.01.06,0,.07.01.09.07.12,0,.17-.02v-.04c-.06,0-.12,0-.18-.01-.05-.14-.04-.17.17-.25-.13-.07-.25,0-.33.19-.12-.1-.14-.24-.17-.36-.06-.32-.12-.63-.16-.95-.03-.15,0-.31-.03-.46-.05-.27-.11-.54-.17-.81-.02-.12-.04-.24-.05-.35v-1.15c.02-.18.05-.21.22-.25.17-.05.34-.11.51-.16.04-.01.08,0,.12-.01.05-.03.1-.07.15-.1.03.02.06.06.08.06.16-.01.24.09.32.2.04.05.12.09.17.09.04,0,.1-.1.09-.14-.01-.06-.07-.11-.12-.16,0-.01-.03-.02-.05-.03-.1-.15-.27-.21-.45-.17-.12.02-.25.02-.37.03-.08.02-.15.04-.23.06-.28.08-.56.17-.85.23-.16.03-.34.02-.51,0-.2-.03-.29-.22-.4-.36-.09-.12-.14-.27-.19-.42-.04-.12-.06-.25-.08-.37s-.02-.24-.03-.36c-.02-.23-.05-.45-.08-.67,0-.05-.01-.09-.01-.13,0-.23-.02-.47,0-.69.03-.37-.11-.67-.29-.96s-.18-.58-.1-.89c0,0,.01-.03.02-.04.18-.1.26-.29.38-.44.05-.07.13-.13.22-.17.21-.11.43-.21.65-.29.17-.05.35-.09.53-.09.17,0,.35.05.52.09.23.04.46.08.68.14.2.06.36.16.45.36,0,.03.05.04.08.05.11.05.25.06.27.23,0,.01,0,.02.02.02.12.05.16.17.21.28.04.09.11.19.05.32-.04.06-.02.15-.04.22-.03.13-.07.25-.11.38-.09.26-.06.51.01.77.01.02.04.03.07.05,0-.02.04-.05.04-.07,0-.06,0-.13,0-.21.05.05.08.1.12.14s.07.08.03.15c-.02.03.05.13.09.16.21.11.41.24.63.3.23.07.48.09.72.1.26,0,.53-.02.79-.04.07-.01.13-.06.2-.08.21-.06.42-.12.63-.19,0,.13-.02.23-.02.33-.01.14.01.15.17.12-.18-.12-.07-.28-.11-.44.3-.02.59-.04.88-.06.18-.02.36-.02.54-.05.15-.03.32.01.47.02.12.02.24.03.35.06q.22.07.23.3s.01.07.02.13c.08-.1.06-.17.02-.25-.01-.03-.01-.06-.02-.08.03,0,.05.01.08.01.14-.03.2.1.3.15.16.07.27.22.45.26.11.02.21.12.3.19.11.08.2.17.3.27.09.09.17.19.25.29.1.15.19.31.29.46.02.03.03.06.04.1.06.3.08.6.08.91,0,.18.02.36.03.54Zm-.32-.28c.1-.01.11-.06.12-.14,0-.17-.04-.31-.21-.43.03.21.24.36.09.57Zm-.09.78c.06-.12-.03-.43-.16-.54,0,.01-.02.01-.04.02.07.17.13.34.2.52Zm-.14-.82s.04-.06.03-.08c-.04-.14-.08-.28-.14-.41-.04-.11-.07-.1-.12-.03.08.18.16.35.23.52Zm-.15,1c-.02.23,0,.25.12.23-.04-.07-.07-.14-.12-.23Zm.1-2.06c-.03-.13-.07-.25-.11-.37-.01.15-.06.3.03.47.04-.04.08-.08.08-.1Zm-.26-.69c.09-.12.03-.19,0-.26h-.04c0,.08.03.16.05.26Zm-.06,2.34c.07-.09.06-.19-.03-.29,0,.1,0,.2-.02.29h.05Zm-.16-1.44s.09-.06.14-.09c-.13-.01-.16-.05-.13-.19.01-.07.01-.14.02-.21-.02-.01-.03-.01-.05-.01-.03.16-.11.33.02.5Zm-.33.8c.03-.24-.09-.39-.33-.3.19.08.24.14.26.24.02.11-.04.16-.14.18.03.08.06.09.13.05.07-.05.07-.1.08-.17Zm-.1-1.4s0-.04-.01-.06h-.04c-.04.11-.09.23-.1.35-.02.17.05.25.23.25-.13-.08-.18-.17-.15-.29.02-.08.05-.16.07-.25Zm-.03,1.86s0-.07,0-.1c-.02-.01-.03-.01-.04-.02-.02.04-.05.08-.06.12,0,.02.03.06.04.08.02-.02.05-.05.05-.08Zm-.2,1.88c.08-.02.09-.21.02-.32.02.21-.14.29-.26.4.12.09.16-.05.24-.08Zm-.08,1.66c.07-.06.11-.09.13-.1-.05-.14-.09-.26-.14-.39-.01.01-.03.01-.04.02.02.15.03.29.05.47Zm.04-2.42c.01-.21-.06-.4-.17-.58,0-.01-.02-.02-.03-.02h-.05s.01.03.01.05c.05.13.1.27.15.4.02.05.04.11.06.16.01-.01.02-.01.03-.01Zm-.09-1.46c.02-.17-.02-.34-.13-.48-.03-.03-.1-.03-.15-.02-.02,0-.04.04-.06.06.15-.02.27.18.26.41-.04.03-.07.05-.13.09.15.05.19.04.21-.06Zm-.32,3.37c.18-.04.24-.13.22-.27-.01-.08-.02-.16-.05-.24s-.03-.19-.15-.21c.04.18.09.36.13.52-.06.07-.09.13-.15.2Zm.13-4.18s.05-.03.08-.04c-.16-.19.03-.35.04-.53-.18.09-.24.37-.12.57Zm-.11-1.29c.04.11.11.12.19.05-.22-.1-.05-.29-.09-.43-.1.05-.15.23-.1.38Zm-.28,4.21c.23-.06.4-.4.3-.58-.11.19-.09.43-.3.58Zm.23,1.83c.09-.18-.04-.35-.05-.53h-.06c.02.18.03.36.05.54.02,0,.04,0,.06-.01Zm-.13-5.61c.07-.04.12-.11.08-.19-.08-.13-.16-.25-.26-.36-.06-.06-.08-.09-.05-.16.03-.06.04-.13.06-.2-.01-.01-.03-.01-.04-.01-.11.14-.15.31-.13.48-.09-.05-.17-.1-.25-.15-.02.01-.04.03-.05.05.2.08.23.27.28.45,0-.01.02-.01.04-.02v-.17c.07,0,.13.01.18.01.06,0,.13,0,.13.08.01.05-.02.11-.04.19,0,0,.03.01.05,0Zm.04,1.85c.13-.23,0-.53-.17-.65-.02-.02-.08,0-.12.01.15.09.29.34.27.49,0,.02,0,.04-.01.05q-.05.07.03.1Zm-.09-1.37c.07-.08.13-.17.11-.3-.06.07-.11.13-.16.19-.04.07-.09.14-.12.21-.06.11-.03.2.09.24-.09-.16,0-.24.08-.34Zm-.06,4.3c.04-.15-.04-.32-.17-.39.07.23.16.45-.04.67.23-.01.18-.18.21-.28Zm0-5.78c0-.09-.01-.17-.02-.26-.01,0-.03.01-.04.01v.25h.06Zm-.41,4.7c.18.02.34-.4.3-.65-.02.03-.04.05-.05.07-.02.07-.03.15-.06.21-.06.13-.13.25-.19.37Zm.02-1.15c-.06.31.09.44.21.39-.07-.13-.14-.25-.21-.39Zm-.08-3.51c.15-.05.12-.14.11-.23-.12.04-.08.13-.11.23Zm.1,6.61s0-.07,0-.1c-.02-.09-.05-.18-.08-.27-.01-.05-.02-.11-.03-.16h-.03c-.05.17-.02.34.03.5,0,.02.07.02.11.03Zm-.06-5.03c.04-.12,0-.31-.06-.35-.04.15-.07.31-.1.47.09.03.13-.05.16-.12Zm-.13,3.59c0-.1.01-.19.01-.27h-.03l-.09.21s.06.03.11.06Zm-.04.54c.01-.23-.03-.29-.18-.28.13.16.13.33-.02.49.14.01.2-.06.2-.21Zm-.05-4.67c.02-.26-.17-.42-.31-.62-.08.07-.04.12.01.18.05.05.09.1.13.16,0,.01,0,.02,0,.03-.08-.01-.17,0-.23-.03-.18-.09-.21-.2-.12-.4.03-.06.06-.12.08-.19-.01,0-.02-.01-.03-.02-.03.04-.07.09-.1.13-.14.17-.08.45.11.55.15.08.25.07.33-.04.04.1.08.18.11.26.01,0,.02,0,.03-.01Zm-.14,4.12c.05-.27.09-.55.14-.83-.09.08-.16.17-.16.29-.01.14-.02.28-.02.42-.01.04,0,.08,0,.12h.03Zm0,1.98c.09,0,.16-.19.12-.33-.06.08-.09.16-.16.2-.07.05-.17.04-.29.07.13.02.23.05.33.06Zm-.01-7.15c.02-.09.03-.17.04-.25-.1,0-.2.17-.16.26.02.01.05.04.06.03.02,0,.05-.02.06-.04Zm-.04,2.81c.02-.16.04-.31.05-.47,0-.08-.03-.1-.13-.1.05.22.07.43-.04.64.01.01.02.02.04.03.02-.03.07-.06.08-.1Zm-.11,1.21l.15-.09c-.13,0-.16-.07-.16-.17,0-.07-.01-.14-.02-.21-.01,0-.03.01-.04.01-.06.27-.05.3.07.46Zm-.08-2.17c.1-.16.1-.32.02-.48-.02-.04-.1-.05-.15-.06-.02,0-.05.04-.07.06v.04c.12-.08.15,0,.17.08.01.05.01.1.01.16s-.01.13-.01.2h.03Zm.05-1.95s-.02-.02-.02-.03c-.09.02-.19,0-.17.17.06-.05.12-.09.19-.14Zm-.21,3.42c-.12-.24-.15-.49-.14-.76-.13.27-.05.59.14.76Zm-.18-1.09c-.02-.08-.05-.17-.08-.25-.01,0-.03,0-.04,0,0,.08,0,.16.01.25,0,.02.03.03.06.05.01-.02.05-.04.05-.06Zm-.04,4.81c.02-.1.04-.16.06-.23-.08.03-.14.06-.21.1.04.04.09.07.15.13Zm-.12-2.81s.08-.02.12-.04c-.22-.15-.07-.4-.19-.57-.05.21-.06.41.07.61Zm.02-2.46c.06-.08.03-.28-.05-.37-.04-.05-.08-.13-.2-.04.06.03.13.06.21.1-.08.05-.11.06-.13.08,0,.01,0,.02.01.03.03-.01.05-.01.1-.03,0,.08,0,.17-.02.28.03-.02.07-.03.08-.05Zm-.01,3.88c0-.13.05-.26-.06-.4-.03.05-.14.04-.04.12,0,.01,0,.05,0,.08,0,.14,0,.29-.02.44.06.02.08-.02.09-.09,0-.05.03-.1.02-.15Zm-.09-2.76c.08-.14.06-.3.02-.45s-.12-.21-.26-.22c-.02-.09-.04-.19-.05-.29-.02,0-.04.01-.05.01-.03.14.04.28.06.43.01-.03.03-.06.04-.09.1.02.15.08.17.17.01.08.02.16.03.25,0,.04-.02.09-.04.14,0,.04-.03.07-.05.1.03,0,.06-.01.1-.01.01-.01.02-.02.03-.04Zm-.07-2.83c-.01-.15-.03-.27-.04-.4-.01,0-.02,0-.03,0,.02.14-.11.28,0,.42.04-.01.07-.02.07-.03Zm-.13,5c.05-.18.1-.36.15-.56-.2.16-.28.45-.15.56Zm-.32,1.84c.03-.09.05-.19.07-.29-.01-.01-.03-.01-.05-.02-.03.09-.07.17-.1.26-.01.02,0,.05,0,.08.03-.01.08-.01.08-.03Zm.3-3.47c-.16-.21-.29-.43-.29-.68-.04-.04-.08-.07-.09-.1-.03-.05-.02-.13-.06-.18-.06-.09-.13-.17-.21-.26-.01,0-.05.01-.06.02s0,.05,0,.06c.08.06.16.13.19.21.06.18.12.37.02.56.02,0,.03.01.04.02.04-.04.07-.08.1-.13.09.25.25.48.35.48Zm-.41,2.35c.06-.15-.08-.46-.22-.53-.08-.04-.19,0-.2.08.07,0,.16-.07.2.04.02.07.09.1.12.15.03.07.02.16.03.24,0,.03.01.05.02.08.02-.02.04-.04.05-.06Zm-.27-1.75h.2c-.22-.07-.05-.3-.2-.4v.4Zm.24,2.65c-.08-.26-.14-.49-.04-.74-.21.06-.19.43.04.74Zm-.1-4.89c-.1-.15-.2-.31-.3-.47-.11.23.15.28.18.44.01.02.06.04.09.05.01,0,.02-.01.03-.02Zm-.13-.56c.05-.28-.09-.58-.29-.63.03.07.05.12.08.17s.07.09.1.15c.04.09.07.19.11.31Zm-.7-.53c.12.25.4.38.58.27-.2-.03-.37-.09-.48-.27-.14-.21.02-.35.11-.54-.28.16-.31.34-.21.54Zm.48,2.44c.05-.16,0-.31-.04-.47-.03-.16-.12-.27-.24-.37-.02-.02-.08-.03-.12-.04,0,.01-.01.03-.02.04.29.21.4.51.37.89.03-.04.04-.04.05-.05Zm-.11,2.82c.15-.14.15-.33,0-.62-.05-.09-.11-.16-.24-.14.06.11.22.15.15.3.03-.01.05-.02.06-.01.05.04.08.33.03.35-.12.05-.03.08,0,.12Zm-.17,1.09c.03-.12.07-.24.1-.37-.09,0-.13.04-.19.25-.01.03.02.08.03.13.02,0,.04,0,.06-.01Zm-.03-2.37c.01-.12.05-.23.07-.35-.17.15-.2.53-.06.69,0-.11-.02-.23-.01-.34Zm-.17-2.87c.02.06.16.08.23.04-.2-.08-.2-.09-.14-.47-.12.04-.16.27-.09.43Zm.19,1.74c-.03-.13-.06-.24-.07-.34-.01-.11,0-.22.02-.33h-.04c-.09.16-.07.34-.05.51.01.06.09.1.14.16Zm-.18,2.97s-.02-.08-.04-.12c0-.05-.01-.1-.02-.15-.01-.11-.04-.23-.05-.34-.01-.1.01-.2.01-.29-.17.23-.12.61.06.78-.02.07-.04.15-.07.23-.05.09-.01.23-.14.28,0,0,0,.06,0,.08.02.02.05.03.1.05.05-.17.11-.34.15-.52Zm-.04-2.45c-.02-.16-.03-.31-.05-.46h-.04c0,.13-.03.27-.04.4.05.03.09.04.13.06Zm-.07-1.37v-.23h-.04c-.04.23-.09.46-.13.69.09.03.1-.07.12-.12.02-.11.04-.23.05-.34Zm-.03-1.65s-.01-.06-.02-.1c-.01-.02-.02-.04-.02-.06-.03-.1-.06-.19-.1-.31-.12.17.02.28.06.41-.17,0-.25-.12-.32-.23-.1-.16-.15-.33.08-.48-.18-.01-.28.11-.25.24.03.11.06.23.12.33.08.12.18.24.34.26.04,0,.09-.03.11-.06Zm-.21.97s.1-.05.15-.07c-.1-.03-.13-.08-.09-.19.02-.07.05-.15.08-.26-.19.15-.24.4-.14.52Zm-.01,3.89s.03-.01.04-.01c-.02-.2-.04-.39-.06-.61-.1.12-.07.54.02.62Zm-.11-.94s.09.1.15,0c-.26-.2-.06-.42-.03-.64-.19.13-.25.45-.12.64Zm-.23-3.53c.08-.19.07-.38.01-.57-.08.19.02.38-.01.57Zm-.09,4.55c.03-.14.06-.27.07-.41,0-.03-.05-.06-.08-.09,0,.03.01.05.01.08s-.01.06-.01.09c-.04.15-.08.3-.12.47,0-.01.02.01.03,0,.1,0,.09-.08.1-.14Zm-.05-.94s0-.04-.02-.06c-.02-.05-.05-.1-.05-.14.01-.11.03-.21.05-.32-.1.11-.16.23-.15.37,0,.08,0,.16.12.14.02-.01.04,0,.05.01Zm-.11-3.31s.07-.1.1-.15c-.02-.01-.04-.02-.05-.03-.07.08-.14.16-.19.26-.02.05,0,.13.03.18.02.04.09.04.14.06,0-.01,0-.02.01-.03-.14-.11-.15-.09-.04-.29Zm-.1-.47c.1-.28.24-.57.03-.85-.16-.23-.4-.33-.71-.38.03.05.04.07.06.08.07.03.15.04.21.07.12.07.24.13.33.22.14.11.16.27.13.43-.03.15,0,.3-.17.39-.02,0-.02.05-.03.08.01.01.02.02.03.04.04-.03.1-.05.12-.08Zm-.12,2.89s.01-.03.02-.04c-.18-.01-.14-.11-.12-.19.03-.08.07-.15.09-.23,0-.03,0-.06,0-.1-.04.02-.06.04-.07.06-.07.13-.15.26-.11.41,0,.04.04.08.07.09.03.02.08,0,.12,0Zm-.19,2.86c.06-.26.13-.52.19-.78,0,0-.02,0-.03,0-.18.2-.13.47-.23.69-.01.03.02.07.04.11,0-.01.02-.01.03-.01Zm.1-6s-.02-.02-.03-.04c-.03.03-.06.05-.08.07-.09.1-.12.27-.29.3.05.09.13.09.19,0,.08-.1.14-.22.21-.33Zm-.11,2.29c.06-.21.04-.41-.05-.61,0-.02-.06-.02-.08-.04,0,.03-.03.07-.02.09.01.04.06.1.06.11.02.16.03.32.04.49,0,0,.04-.02.05-.04Zm-.01-1.73l.03-.09c-.14.08-.21.19-.23.33-.01.09-.01.19,0,.28,0,.02.05.05.07.05.03,0,.06-.03.1-.06-.05-.01-.07-.02-.09-.02-.04-.19.03-.34.12-.49Zm0,3.68s0-.02.02-.03c-.14-.04-.21-.13-.18-.26.02-.12.09-.23.13-.34-.14.07-.23.19-.23.33,0,.1.06.21.1.32.06-.01.11-.02.16-.02Zm-.04.66c.05-.17,0-.36-.1-.44-.03-.02-.06-.02-.09-.03-.01.02-.01.03-.01.04.02.01.06.02.06.03.02.14.06.28.05.41,0,.06-.1.1-.16.16-.01.01-.01.04-.01.06.07-.01.15-.01.19-.05s.05-.12.07-.18Zm-.11-5.16s.02-.1.03-.15c-.04.01-.06.02-.07.03-.06.12-.18.2-.29.15-.17-.06-.31-.18-.39-.35-.07-.16-.07-.31.06-.45-.02,0-.03-.02-.05-.03-.03.04-.07.07-.09.11-.08.14-.06.28.01.42.09.22.29.34.49.42.1.04.23-.05.3-.15Zm-.12-.26c.15-.04.18-.06.18-.16-.31.1-.39.06-.43-.2-.12.1,0,.18.01.26.02.06.16.12.24.1Zm-.24,3.58c.01.08.07.12.15.1-.18-.17,0-.32.04-.47-.14.01-.21.17-.19.37Zm.15,1.07c-.15.04-.28.02-.32-.1-.03-.11.02-.23.04-.36-.11.1-.17.21-.16.36.01.1-.05.12-.13.09-.1-.03-.2-.21-.16-.32.02-.07.03-.15.05-.22-.05.02-.08.04-.09.07-.04.09-.09.19-.09.28-.01.05.08.1.12.15.02.02.03.06.03.07.04.01.09,0,.11.02q.12.1.2-.04c.13-.02.24.19.4,0Zm-.09,2.05s.04-.03.06-.04c-.02-.01-.04-.02-.05-.03-.03-.03-.07-.07-.06-.1,0-.14.02-.27.05-.41.02-.1.07-.19.1-.29-.24.15-.33.62-.18.91.03-.02.06-.03.08-.04Zm.01-4.38c.02-.12.03-.21.04-.3-.13.03-.1.14-.11.22h-.19c.14.23.14.46.1.7.16-.18.06-.4.1-.6l.06-.02Zm-.05-1.74s-.07-.04-.1-.03c-.15.03-.21.15-.26.29-.04.15-.03.29.07.42.01.02.06.01.09.01-.19-.24-.08-.6.2-.69Zm-.12.99s.02-.05.04-.11c-.2.15-.24.32-.13.48-.08-.03-.16-.05-.23-.1-.06-.03-.11-.09-.03-.17,0,0,0-.03,0-.04,0-.01-.03-.02-.04-.01-.03.02-.09.05-.09.08-.01.05,0,.11.03.14.06.07.14.12.21.16.05.02.13.05.14-.05h.01-.01c.07-.01.09-.03.05-.1-.06-.1-.03-.19.04-.28Zm-.23,4.98s.03-.03.05-.06c-.04,0-.07,0-.12-.02.04-.17.07-.34.11-.5-.01-.01-.02-.01-.03-.02-.05.09-.09.18-.14.26-.07.14-.02.25.08.34.01.01.04.01.05,0Zm-.16-3.59c.21-.2.12-.57-.18-.79-.01.01-.02.02-.03.04-.02.12.05.18.14.24.15.11.15.33,0,.42.02.03.04.06.07.09Zm-.2.94c.04.11.1.1.2.07-.06-.04-.1-.06-.12-.09-.11-.17-.08-.32.07-.45.01-.01.01-.06,0-.08s-.04-.04-.09-.07c-.04.09-.08.17-.12.25-.05.14.03.25.06.37Zm-.03-6.11c.12-.08.15-.23.06-.34-.11-.14-.25-.24-.44-.2-.05.01-.1,0-.15,0-.13,0-.26.11-.3.24-.04.17-.1.33-.16.49-.03.12-.09.23-.12.35-.08.32-.14.64-.21.96.02.01.04.01.06.02.01-.04.04-.07.05-.11.03-.12.05-.25.07-.38.06-.33.14-.64.32-.93.01-.03.05-.05.07-.05.07,0,.15,0,.21.02.19.05.37.04.54-.07Zm-.1,8.77s.03-.06.05-.09c-.23-.04-.24-.09-.1-.46-.03.03-.07.05-.09.08-.04.07-.05.17-.11.22-.07.07-.02.1,0,.12.07.05.16.09.24.13Zm-.08-3.52c.02-.1.02-.2,0-.29-.02-.15-.07-.3-.11-.47-.14.1-.11.23-.05.28.12.1.09.24.12.36,0,.02-.02.04-.03.06-.03.04-.06.08-.08.12.01.01.03.03.05.04.04-.03.1-.07.1-.1Zm0,1.58c-.15.01-.26-.02-.26-.16,0-.1.03-.21.05-.32-.15.1-.16.26-.17.41,0,.05-.03.1-.05.14-.05-.05-.1-.09-.14-.15-.01-.02.01-.07.02-.11,0-.06.02-.13.02-.19-.04.04-.06.08-.08.13-.07.14-.11.28.04.38.04.03.11.04.16.03.04,0,.07-.05.11-.07-.02-.04-.04-.06-.04-.09.05.01.09.04.13.07.04.02.09.05.12.04.03,0,.05-.06.09-.11Zm-.14,1.12c.01-.11.02-.22,0-.33-.03-.14-.09-.27-.14-.43-.08.09-.1.25-.06.29.18.12.09.3.12.47-.06-.04-.1-.07-.13-.09-.01.01-.02.02-.03.02,0,.03,0,.05.03.07.03.03.07.09.11.1.03,0,.09-.06.1-.1Zm-.04-2.02c-.03-.2-.06-.4-.08-.59h-.04c-.1.21.03.4.08.59h.04Zm-.17-1.4v-.03c-.14-.02-.13-.1-.08-.19.02-.04.01-.08.02-.12-.02,0-.03-.01-.05-.01-.03.09-.07.17-.08.26,0,.04.04.1.08.12.02.01.07-.02.11-.03Zm-.21,1.05s.09-.1.08-.15c-.04-.15-.09-.3-.14-.45-.02-.05-.07-.09-.11-.13-.01.02-.04.04-.04.04.02.06.04.11.06.17,0,0,0,0,0,.01.13.12.17.33.11.49,0,0,.02.01.03.02Zm-.17,2.1c.11-.16.06-.34.07-.52,0,0-.02-.01-.03-.02-.08.12-.09.2-.05.38,0,.02-.03.06-.05.08-.02.04-.05.06-.07.09.01.02.02.03.03.04.03-.02.08-.03.1-.05Zm-.21-1.51c.06-.15.12-.3.18-.46-.02-.01-.04-.01-.06-.02-.06.15-.12.3-.19.46.02.01.05.01.07.02Zm.14.77s-.03-.03-.05-.04c-.13-.06-.15-.12-.12-.27.02-.07.03-.15.05-.22-.02,0-.03-.01-.04-.01-.03.07-.07.14-.09.21-.07.19-.01.3.17.36.03,0,.06-.02.08-.03Zm-.1-1.59c.02-.05.02-.11.01-.16-.02-.13-.05-.26-.08-.39-.07.06-.07.21-.04.29.02.06.03.13.03.19-.01.04-.06.08-.09.12.12.05.15.04.17-.05Zm-.17-.7s.09.01.16.01c-.16-.11-.12-.2.16-.46-.15,0-.33.16-.35.3-.01.05,0,.12.03.15Zm-.39-.94c.16-.05.28-.3.24-.51-.04.06-.07.1-.1.14-.06.05-.11.14-.17.15-.26.03-.52.05-.77.05-.15.01-.22-.07-.26-.21-.02-.06-.04-.12-.06-.17h-.04c-.06.13-.08.26,0,.39.02.04.03.1.06.13.11.11.25.14.41.11.04,0,.1,0,.18,0,.05-.03.12-.08.24-.11.06-.02.18.05.28.03Zm.11-3.94c.01-.07.02-.13.02-.18,0,0-.03-.01-.05-.02,0,.06-.08.13.03.2Zm-.13,3.04c.05-.04.08-.13.08-.19,0-.04-.07-.08-.12-.11-.03-.02-.07-.04-.11-.04-.19-.02-.38-.13-.57.01,0,0-.02-.01-.04-.01-.08,0-.17-.01-.26-.01-.06,0-.12,0-.12-.07,0-.09,0-.18,0-.26.02-.25.07-.49.09-.74.02-.47.03-.94.05-1.4.01-.26-.24-.61-.52-.67-.06-.01-.12-.02-.18-.02-.14-.02-.33.13-.28.25.04.13.12.24.21.34.04.04.14.03.22.04l.3.03s.08.02.16.05c0,.01.02.06.01.1l-.06.93c-.02.26-.03.53-.06.79-.02.17-.06.33-.02.5.02.08.01.17-.09.22-.03.02-.06.11-.04.15.03.07.09.12.14.16.04.04.08.08.12.08.12,0,.17.08.21.18s.06.21.09.31c.01.02.06.06.08.05.1-.04.18-.09.2-.22.01-.14.07-.26.23-.31.1-.03.2-.08.28-.14Zm-.39-3.12c.12-.05.05-.14.06-.2,0-.01-.04-.02-.06-.03v.23Zm-.21.09c.07-.03.12-.05.05-.12-.01-.01-.01-.04-.02-.06-.01-.09-.02-.18-.03-.3-.08.18-.06.32,0,.48Zm-.12.06c-.03-.18-.05-.37-.07-.56-.12.18-.08.54.07.56Z"/>
      <path class="cls-2" d="m91.31,91.98c.11.07.1.16.1.25,0,.03,0,.07-.02.11-.02-.01-.03-.01-.04-.01-.02-.11-.03-.21-.04-.35Z"/>
      <path class="cls-2" d="m91.14,90.04c.14.07.19.24.09.32-.03-.11-.06-.2-.09-.32Z"/>
      <path class="cls-2" d="m91.32,91.3c0,.08-.02.13-.12.14.15-.21-.06-.36-.09-.57.17.12.21.26.21.43Z"/>
      <path class="cls-2" d="m90.95,91.68c.13.11.22.42.16.54-.07-.18-.13-.35-.2-.52.02-.01.03-.01.04-.02Z"/>
      <path class="cls-2" d="m91,91.32s-.02.06-.03.08c-.07-.17-.15-.34-.23-.52.05-.07.08-.08.12.03.06.13.1.27.14.41Z"/>
      <path class="cls-2" d="m90.94,92.63c-.13.02-.14,0-.12-.23.05.09.08.16.12.23Z"/>
      <path class="cls-2" d="m90.81,89.97c.04.12.08.24.11.37,0,.02-.04.06-.08.1-.09-.17-.04-.32-.03-.47Z"/>
      <path class="cls-2" d="m90.65,89.39c.04.07.1.14,0,.26-.02-.1-.04-.18-.05-.26h.04Z"/>
      <path class="cls-2" d="m90.55,90.95c.07.12.13.24.06.39-.01.03-.04.05-.06.07-.03-.05-.15.03-.15-.1h.13c.04-.1.03-.18-.03-.27s-.12-.12-.22-.06c.06-.09.22-.11.27-.03Z"/>
      <path class="cls-2" d="m90.57,91.7c.09.1.1.2.03.29h-.05c.01-.09.01-.19.02-.29Z"/>
      <path class="cls-2" d="m90.58,90.46c-.05.03-.09.06-.14.09-.13-.17-.05-.34-.02-.5.02,0,.03,0,.05.01-.01.07-.01.14-.02.21-.03.14,0,.18.13.19Z"/>
      <path class="cls-2" d="m90.29,89.23c.02.08.05.16.08.25-.12-.02-.16-.12-.08-.25Z"/>
      <path class="cls-2" d="m89.78,91.05c.24-.09.36.06.33.3-.01.07-.01.12-.08.17-.07.04-.1.03-.13-.05.1-.02.16-.07.14-.18-.02-.1-.07-.16-.26-.24Z"/>
      <path class="cls-2" d="m90.09,89.68s-.06.04-.1-.03c-.1-.12-.11-.25-.08-.41.06.14.12.27.18.44Z"/>
      <path class="cls-2" d="m89.75,94.14c.19.11.32.5.27.74-.09-.26-.18-.48-.27-.74Z"/>
      <path class="cls-2" d="m90,89.89s.02.05.01.06c-.02.09-.05.17-.07.25-.03.12.02.21.15.29-.18,0-.25-.08-.23-.25,0-.12.06-.24.1-.35h.04Z"/>
      <path class="cls-2" d="m89.99,91.71s0,.07,0,.1c0,.03-.03.06-.05.08-.01-.02-.04-.06-.04-.08.01-.04.04-.08.06-.12.01.01.02.01.04.02Z"/>
      <path class="cls-1" d="m89.91,96.52c.02.19.03.39.03.58,0,.34-.02.68-.03,1.03,0,.16,0,.32-.02.47-.01.12-.09.19-.19.18-.11,0-.16-.07-.17-.18-.03-.49-.07-.98-.1-1.47-.01-.15-.02-.3-.02-.45,0-.05.01-.11.02-.18.14.08.29.05.42-.1.02.04.06.08.06.12Z"/>
      <path class="cls-2" d="m89.8,93.37c.07.11.06.3-.02.32-.08.03-.12.17-.24.08.12-.11.28-.19.26-.4Z"/>
      <path class="cls-2" d="m89.83,95.25s-.06.04-.13.1c-.02-.18-.03-.32-.05-.47,0-.01.03-.01.04-.02.05.13.09.25.14.39Z"/>
      <path class="cls-2" d="m89.74,89.32s.01.05,0,.08c0,.04,0,.07-.02.12-.03-.05-.06-.08-.06-.12,0-.11,0-.21,0-.32h.04c.02.08.03.16.04.24Z"/>
      <path class="cls-2" d="m89.57,92.35c.11.18.18.37.17.58,0,0-.02,0-.03.01-.02-.05-.04-.11-.06-.16-.05-.13-.1-.27-.15-.4,0-.02,0-.03-.01-.05h.05s.03.01.03.02Z"/>
      <path class="cls-2" d="m89.52,90.99c.11.14.15.31.13.48-.02.1-.06.11-.21.06.06-.04.09-.06.13-.09.01-.23-.11-.43-.26-.41.02-.02.04-.06.06-.06.05-.01.12-.01.15.02Z"/>
      <path class="cls-2" d="m89.55,94.57c.02.14-.04.23-.22.27.06-.07.09-.13.15-.2-.04-.16-.09-.34-.13-.52.12.02.12.13.15.21s.04.16.05.24Z"/>
      <path class="cls-2" d="m89.54,90.62s-.05.03-.08.04c-.12-.2-.06-.48.12-.57-.01.18-.2.34-.04.53Z"/>
      <path class="cls-2" d="m89.52,91.77c0,.08.02.13.02.22-.13-.1-.13-.14-.02-.22Z"/>
      <path class="cls-2" d="m89.54,89.42c-.08.07-.15.06-.19-.05-.05-.15,0-.33.1-.38.04.14-.13.33.09.43Z"/>
      <path class="cls-2" d="m89.37,93c.1.18-.07.52-.3.58.21-.15.19-.39.3-.58Z"/>
      <path class="cls-2" d="m89.25,94.88c.01.18.14.35.05.53-.02.01-.04.01-.06.01-.02-.18-.03-.36-.05-.54h.06Z"/>
      <path class="cls-2" d="m89.25,89.61c.04.08-.01.15-.08.19-.02.01-.05,0-.05,0,.02-.08.05-.14.04-.19,0-.08-.07-.08-.13-.08-.05,0-.11-.01-.18-.01v.17s-.03.01-.04.02c-.05-.18-.08-.37-.28-.45.01-.02.03-.04.05-.05.08.05.16.1.25.15-.02-.17.02-.34.13-.48.01,0,.03,0,.04.01-.02.07-.03.14-.06.2-.03.07-.01.1.05.16.1.11.18.23.26.36Z"/>
      <path class="cls-2" d="m89.02,92.3c.14.01.28.34.22.45-.07-.15-.15-.3-.22-.45Z"/>
      <path class="cls-2" d="m89.04,91c.17.12.3.42.17.65q-.08-.03-.03-.1s.01-.03.01-.05c.02-.15-.12-.4-.27-.49.04-.01.1-.03.12-.01Z"/>
      <path class="cls-2" d="m89.23,89.98c.02.13-.04.22-.11.3-.08.1-.17.18-.08.34-.12-.04-.15-.13-.09-.24.03-.07.08-.14.12-.21.05-.06.1-.12.16-.19Z"/>
      <path class="cls-2" d="m89.11,92.13h-.05c-.1-.21-.16-.43-.06-.69.04.25.08.47.11.69Z"/>
      <path class="cls-2" d="m88.89,94.19c.13.07.21.24.17.39-.03.1.02.27-.21.28.2-.22.11-.44.04-.67Z"/>
      <path class="cls-2" d="m89.04,88.54c.01.09.02.17.02.26h-.06v-.25s.03-.01.04-.01Z"/>
      <path class="cls-2" d="m88.95,92.85c.04.25-.12.67-.3.65.06-.12.13-.24.19-.37.03-.06.04-.14.06-.21,0-.02.03-.04.05-.07Z"/>
      <path class="cls-2" d="m88.89,93.81c.04.09.07.15.11.25-.05-.01-.1,0-.12-.02-.05-.07-.07-.15.01-.23Z"/>
      <path class="cls-2" d="m88.88,92.74c-.12.05-.27-.08-.21-.39.07.14.14.26.21.39Z"/>
      <path class="cls-2" d="m88.77,91.1c.05.2.09.4.03.6-.01.03-.07.05-.11.07.14-.3.04-.53-.09-.77.07-.02.15.01.17.1Z"/>
      <path class="cls-2" d="m88.7,88.61c.01.09.04.18-.11.23.03-.1-.01-.19.11-.23Z"/>
      <path class="cls-2" d="m88.69,95.35s0,.07,0,.1c-.04-.01-.11-.01-.11-.03-.05-.16-.08-.33-.03-.5h.03c.01.05.02.11.03.16.03.09.06.18.08.27Z"/>
      <path class="cls-2" d="m88.57,90.07c.06.04.1.23.06.35-.03.07-.07.15-.16.12.03-.16.06-.32.1-.47Z"/>
      <path class="cls-2" d="m88.69,89.53c-.07.08-.24.07-.29-.04s-.09-.23-.11-.35c-.02-.14.09-.21.24-.17-.14.07-.17.12-.13.3,0,.07.05.15.1.2.05.04.12.04.19.06Z"/>
      <path class="cls-2" d="m88.51,93.74c0,.08-.01.17-.01.27-.05-.03-.08-.04-.11-.06l.09-.21h.03Z"/>
      <path class="cls-2" d="m88.44,91.44c.03.21.06.37.08.54-.13-.13-.16-.39-.08-.54Z"/>
      <path class="cls-2" d="m88.28,94.27c.15-.01.19.05.18.28,0,.15-.06.22-.2.21.15-.16.15-.33.02-.49Z"/>
      <path class="cls-2" d="m88.27,89.63c-.08.11-.18.12-.33.04-.19-.1-.25-.38-.11-.55.03-.04.07-.09.1-.13.01,0,.02.02.03.02-.02.07-.05.13-.08.19-.09.2-.06.31.12.4.06.03.15.02.23.03,0-.01,0-.02,0-.03-.04-.06-.08-.11-.13-.16-.05-.06-.09-.11-.01-.18.14.2.33.36.31.62,0,.01-.02.01-.03.01-.03-.08-.07-.16-.11-.26Z"/>
      <path class="cls-2" d="m88.41,93.17c-.05.28-.09.56-.14.83h-.03s-.02-.08,0-.12c0-.14,0-.28.02-.42,0-.12.07-.21.16-.29Z"/>
      <path class="cls-2" d="m88.39,95.65c.04.14-.03.33-.12.33-.1-.01-.2-.04-.33-.06.12-.03.22-.02.29-.07.07-.04.1-.12.16-.2Z"/>
      <path class="cls-2" d="m88.3,88.58c-.01.08-.02.16-.04.25-.01.02-.04.04-.06.04,0,.01-.04-.02-.06-.03-.04-.09.06-.26.16-.26Z"/>
      <path class="cls-2" d="m88.27,91.17c-.01.16-.03.31-.05.47-.01.04-.06.07-.08.1-.02-.01-.03-.02-.04-.03.11-.21.09-.42.04-.64.1,0,.13.02.13.1Z"/>
      <path class="cls-1" d="m88.25,98.26c.01.1.02.2.02.29-.01.17-.14.24-.27.3-.16-.18-.18-.4-.16-.64.01-.11,0-.22,0-.34,0-.13,0-.26.03-.39.03-.17,0-.32-.04-.49-.03-.15-.04-.31-.05-.45.1.02.18.04.25.05.01-.01.02-.01.03-.02.02.11.03.23.05.35.06.22.06.46.07.69.01.22.05.43.07.65Z"/>
      <path class="cls-2" d="m88.26,92.76l-.15.09c-.12-.16-.13-.19-.07-.46.01,0,.03-.01.04-.01.01.07.02.14.02.21,0,.1.03.17.16.17Z"/>
      <path class="cls-2" d="m88.05,90.2c.08.16.08.32-.02.48h-.03c0-.07.01-.14.01-.2s0-.11-.01-.16c-.02-.07-.05-.16-.17-.08v-.04s.05-.06.07-.06c.05.01.13.02.15.06Z"/>
      <path class="cls-2" d="m88.06,88.7s0,.02.02.03c-.07.05-.13.09-.19.14-.02-.17.08-.15.17-.17Z"/>
      <path class="cls-2" d="m87.87,94.02c.24.15.22.38.2.6,0,.1-.1.08-.18.11,0-.03,0-.07.01-.07.17-.09.08-.23.07-.35-.01-.09-.02-.18-.11-.23,0-.01,0-.03,0-.06Z"/>
      <path class="cls-2" d="m88.02,94.81c.09.22-.05.41-.04.62-.15-.22,0-.41.04-.62Z"/>
      <path class="cls-2" d="m88,93.35c-.03.21-.06.42-.09.64-.14-.15-.06-.59.09-.64Z"/>
      <path class="cls-2" d="m87.54,89.32c.15.07.26.3.23.46-.01.06-.02.12-.02.18h-.05v-.29c-.21.06-.38,0-.48-.14s.01-.42.19-.55c-.04.15-.08.26-.11.39-.03.15.09.27.24.24.03-.01.06-.01.1-.01.02-.12-.08-.16-.14-.21-.02-.02-.03-.04-.05-.06.03,0,.07-.02.09-.01Z"/>
      <path class="cls-2" d="m87.73,91.39c-.01.27.02.52.14.76-.19-.17-.27-.49-.14-.76Z"/>
      <path class="cls-2" d="m87.61,90.81c.03.08.06.17.08.25,0,.02-.04.04-.05.06-.03-.02-.06-.03-.06-.05-.01-.09-.01-.17-.01-.25.01,0,.03,0,.04,0Z"/>
      <path class="cls-2" d="m87.71,95.64c-.02.07-.04.13-.06.23-.06-.06-.11-.09-.15-.13.07-.04.13-.07.21-.1Z"/>
      <path class="cls-2" d="m87.65,93.02s-.08.03-.12.04c-.13-.2-.12-.4-.07-.61.12.17-.03.42.19.57Z"/>
      <path class="cls-2" d="m87.5,90.23c.08.09.11.29.05.37-.01.02-.05.03-.08.05.01-.11.01-.2.02-.28-.05.02-.07.02-.1.03-.01-.01-.01-.02-.01-.03.02-.02.05-.03.13-.08-.08-.04-.15-.07-.21-.1.12-.09.16-.01.2.04Z"/>
      <path class="cls-2" d="m87.48,94.08c.11.14.06.27.06.4.01.05-.01.1-.02.15-.01.07-.03.11-.09.09.01-.15.01-.3.02-.44,0-.03,0-.07,0-.08-.1-.08,0-.07.04-.12Z"/>
      <path class="cls-2" d="m87.54,94.93c-.03.15-.07.3-.11.47-.1-.13-.06-.32.11-.47Z"/>
      <path class="cls-2" d="m87.47,91.27c.04.15.06.31-.02.45,0,.02-.02.03-.03.04-.04,0-.07.01-.1.01.02-.03.04-.06.05-.1.02-.05.04-.1.04-.14,0-.09-.02-.17-.03-.25-.02-.09-.07-.15-.17-.17-.01.03-.03.06-.04.09-.02-.15-.09-.29-.06-.43,0,0,.03-.01.05-.01.01.1.03.2.05.29.14.01.22.07.26.22Z"/>
      <path class="cls-2" d="m87.34,88.49c.01.13.03.25.04.4,0,.01-.03.02-.07.03-.11-.14.02-.28,0-.42,0,0,.02,0,.03,0Z"/>
      <path class="cls-2" d="m87.4,93.33c-.05.2-.1.38-.15.56-.13-.11-.05-.4.15-.56Z"/>
      <path class="cls-2" d="m87.21,89.67c.07.1.06.21-.02.27,0-.03-.01-.06,0-.09,0-.07-.05-.11-.09-.1-.16.05-.24-.06-.34-.12-.2-.14-.31-.32-.27-.57,0-.04.01-.06.04-.1.02.17.01.35.14.47.11.1.22.25.44.21-.07-.07-.12-.14-.19-.19s-.09-.12-.06-.23c.13.16.24.3.35.45Z"/>
      <path class="cls-2" d="m86.91,90.2c.17.16.25.4.16.5,0-.18-.18-.29-.16-.5Z"/>
      <path class="cls-2" d="m87,95.44c-.02.1-.04.2-.07.29,0,.02-.05.02-.08.03,0-.03-.01-.06,0-.08.03-.09.07-.17.1-.26.02.01.04.01.05.02Z"/>
      <path class="cls-2" d="m86.94,91.58c0,.25.13.47.29.68-.1,0-.26-.23-.35-.48-.03.05-.06.09-.1.13,0,0-.02-.02-.04-.02.1-.19.04-.38-.02-.56-.03-.08-.11-.15-.19-.21,0-.01-.02-.05,0-.06s.05-.02.06-.02c.08.09.15.17.21.26.04.05.03.13.06.18.01.03.05.06.09.1Z"/>
      <path class="cls-2" d="m86.6,94.08c.14.07.28.38.22.53,0,.02-.03.04-.05.06-.01-.03-.02-.05-.02-.08-.01-.08,0-.17-.03-.24-.03-.05-.1-.08-.12-.15-.04-.11-.13-.04-.2-.04,0-.08.12-.12.2-.08Z"/>
      <path class="cls-2" d="m86.75,92.86h-.2v-.4c.15.1-.02.33.2.4Z"/>
      <path class="cls-2" d="m86.75,94.77c-.1.25-.04.48.04.74-.23-.31-.25-.68-.04-.74Z"/>
      <path class="cls-2" d="m86.39,90.15c.1.16.2.32.3.47-.01.01-.02.02-.03.02-.03-.01-.08-.03-.09-.05-.03-.16-.29-.21-.18-.44Z"/>
      <path class="cls-2" d="m86.68,93.26c-.07.18-.13.35-.21.56-.08-.24.05-.53.21-.56Z"/>
      <path class="cls-2" d="m86.27,89.43c.2.05.34.35.29.63-.04-.12-.07-.22-.11-.31-.03-.06-.07-.1-.1-.15s-.05-.1-.08-.17Z"/>
      <path class="cls-2" d="m86.56,91.43c-.04.26-.19.52.06.74-.11-.04-.19-.09-.21-.22-.02-.21.04-.44.15-.52Z"/>
      <path class="cls-2" d="m86.44,89.8c-.18.11-.46-.02-.58-.27-.1-.2-.07-.38.21-.54-.09.19-.25.33-.11.54.11.18.28.24.48.27Z"/>
      <path class="cls-2" d="m86.3,91.5c.04.16.09.31.04.47-.01.01-.02.01-.05.05.03-.38-.08-.68-.37-.89.01-.01.02-.03.02-.04.04.01.1.02.12.04.12.1.21.21.24.37Z"/>
      <path class="cls-2" d="m86.23,94.17c.15.29.15.48,0,.62-.03-.04-.12-.07,0-.12.05-.02.02-.31-.03-.35,0,0-.03,0-.06.01.07-.15-.09-.19-.15-.3.13-.02.19.05.24.14Z"/>
      <path class="cls-2" d="m86.16,95.51c-.03.13-.07.25-.1.37-.02.01-.04.01-.06.01-.01-.05-.04-.1-.03-.13.06-.21.1-.25.19-.25Z"/>
      <path class="cls-2" d="m86.1,93.16c-.02.12-.06.23-.07.35,0,.11.01.23.01.34-.14-.16-.11-.54.06-.69Z"/>
      <path class="cls-2" d="m86.09,90.68c-.07.04-.21.02-.23-.04-.07-.16-.03-.39.09-.43-.06.38-.06.39.14.47Z"/>
      <path class="cls-2" d="m85.98,92.04c0,.1.04.21.07.34-.05-.06-.13-.1-.14-.16-.02-.17-.04-.35.05-.51h.04c-.01.11-.03.22-.02.33Z"/>
      <path class="cls-2" d="m85.83,95.23s.05.09.04.12c-.04.18-.1.35-.15.52-.05-.02-.08-.03-.1-.05,0-.02,0-.07,0-.08.13-.05.09-.19.14-.28.03-.08.05-.16.07-.23Z"/>
      <path class="cls-2" d="m85.78,92.44c.02.15.03.3.05.46-.04-.02-.08-.03-.13-.06.01-.13.03-.27.04-.4h.04Z"/>
      <path class="cls-2" d="m85.81,95.08c0,.05.02.1.02.15-.18-.17-.23-.55-.06-.78,0,.09-.02.19-.01.29.01.11.04.23.05.34Z"/>
      <path class="cls-2" d="m85.76,91.3v.23c-.01.11-.03.23-.05.34-.02.05-.03.15-.12.12.04-.23.09-.46.13-.69h.04Z"/>
      <path class="cls-2" d="m85.71,89.78s.04.09.02.1c-.02.03-.07.06-.11.06-.16-.02-.26-.14-.34-.26-.06-.1-.09-.22-.12-.33-.03-.13.07-.25.25-.24-.23.15-.18.32-.08.48.07.11.15.23.32.23-.04-.13-.18-.24-.06-.41.04.12.07.21.1.31,0,.02,0,.04.02.06Z"/>
      <path class="cls-2" d="m85.67,90.78c-.05.02-.1.05-.15.07-.1-.12-.05-.37.14-.52-.03.11-.06.19-.08.26-.04.11-.01.16.09.19Z"/>
      <path class="cls-2" d="m85.55,94.73s-.03,0-.04.01c-.09-.08-.12-.5-.02-.62.02.22.04.41.06.61Z"/>
      <path class="cls-2" d="m85.55,93.8c-.06.1-.12.03-.15,0-.13-.19-.07-.51.12-.64-.03.22-.23.44.03.64Z"/>
      <path class="cls-2" d="m85.39,91.19c-.02.28-.03.53-.05.78-.11-.1-.1-.57.05-.78Z"/>
      <path class="cls-1" d="m85.38,85.2c-.04.18-.05.37-.11.54-.04.12-.11.25-.2.35-.2.23-.49.35-.78.45-.16.05-.33.11-.47.15-.08-.16-.16-.33-.22-.5-.05-.15.02-.29.12-.4.15-.18.35-.25.58-.27.16-.01.31-.04.47-.06.02,0,.04-.01.06-.01.24.04.37-.13.55-.25Z"/>
      <path class="cls-2" d="m85.33,93c-.07.06-.14.05-.18-.03-.04-.07,0-.4.11-.47-.01.08-.02.15-.03.23-.01.1-.03.21.1.27Z"/>
      <path class="cls-2" d="m85.18,89.7c.06.19.07.38-.01.57.03-.19-.07-.38.01-.57Z"/>
      <path class="cls-2" d="m85.15,94.41c-.01.14-.04.27-.07.41-.01.06,0,.14-.1.14-.01.01-.03-.01-.03,0,.04-.17.08-.32.12-.47,0-.03.01-.06.01-.09s-.01-.05-.01-.08c.03.03.08.06.08.09Z"/>
      <path class="cls-2" d="m85.03,91.39c0,.24.06.5-.07.74v-.77s.07.02.07.03Z"/>
      <path class="cls-2" d="m85.01,93.82s.02.04.02.06c0-.01-.03-.02-.05-.01-.11.02-.11-.06-.12-.14-.01-.14.05-.26.15-.37-.02.11-.04.21-.05.32,0,.04.03.09.05.14Z"/>
      <path class="cls-2" d="m85.02,90.42c-.03.05-.07.1-.1.15-.11.2-.1.18.04.29-.01.01-.01.02-.01.03-.05-.02-.12-.02-.14-.06-.03-.05-.05-.13-.03-.18.05-.1.12-.18.19-.26.01.01.03.02.05.03Z"/>
      <path class="cls-2" d="m85.06,95.22c-.04.11-.09.2-.12.31-.03.12-.04.23-.05.37-.15-.23-.04-.63.17-.68Z"/>
      <path class="cls-2" d="m84.85,89.25c.21.28.07.57-.03.85-.02.03-.08.05-.12.08,0-.02-.02-.03-.03-.04.01-.03.01-.07.03-.08.16-.09.14-.24.17-.39.03-.16.01-.32-.13-.43-.09-.09-.21-.15-.33-.22-.06-.03-.14-.04-.21-.07-.02-.01-.03-.03-.06-.08.31.05.55.15.71.38Z"/>
      <path class="cls-2" d="m84.72,92.95s-.02.02-.02.04c-.04,0-.09.02-.12,0-.03-.01-.07-.05-.07-.09-.04-.15.04-.28.11-.41.01-.02.03-.04.07-.06,0,.04,0,.07,0,.1-.02.08-.06.15-.09.23-.02.08-.06.18.12.19Z"/>
      <path class="cls-2" d="m84.72,91.48c-.01.12-.03.22-.05.35-.12-.05-.09-.2.05-.35Z"/>
      <path class="cls-2" d="m84.7,95.07c-.06.26-.13.52-.19.78-.01,0-.02,0-.03.01-.02-.04-.05-.08-.04-.11.1-.22.05-.49.23-.69.01,0,.02,0,.03,0Z"/>
      <path class="cls-2" d="m84.58,89.81s.02.03.03.04c-.07.11-.13.23-.21.33-.06.09-.14.09-.19,0,.17-.03.2-.2.29-.3.02-.02.05-.04.08-.07Z"/>
      <path class="cls-2" d="m84.45,91.53c.09.2.11.4.05.61-.01.02-.05.04-.05.04,0-.17-.02-.33-.04-.49,0-.01-.05-.07-.06-.11-.01-.02.01-.06.02-.09.02.02.07.02.08.04Z"/>
      <path class="cls-2" d="m84.52,90.32l-.03.09c-.09.15-.16.3-.12.49.02,0,.04,0,.09.02-.04.03-.07.06-.1.06-.02,0-.07-.03-.07-.05-.01-.09-.01-.19,0-.28.02-.14.09-.25.23-.33Z"/>
      <path class="cls-2" d="m84.5,94.06s-.02.02-.02.03c-.05,0-.1.01-.16.02-.04-.11-.1-.22-.1-.32,0-.14.09-.26.23-.33-.04.11-.11.22-.13.34-.03.13.04.22.18.26Z"/>
      <path class="cls-2" d="m84.34,94.31c.11.08.15.27.1.44-.02.06-.03.14-.07.18s-.12.04-.19.05c0-.02,0-.05.01-.06.06-.06.16-.1.16-.16.01-.13-.03-.27-.05-.41,0-.01-.04-.02-.06-.03,0,0,0-.02.01-.04.03.01.06.01.09.03Z"/>
      <path class="cls-1" d="m84.36,97.96c.03.24.02.49-.02.73-.01.03,0,.05-.01.08-.01.06.06.16-.06.18-.14.03-.29-.05-.29-.17-.02-.18,0-.36-.01-.54-.01-.21-.02-.41-.03-.61v-.8c.08-.01.16-.02.24-.02.03,0,.07.04.08.07.02.12.04.25.05.37,0,.18,0,.36,0,.54,0,.05.04.11.05.17Z"/>
      <path class="cls-2" d="m84.36,89.44c-.01.05-.01.11-.03.15-.07.1-.2.19-.3.15-.2-.08-.4-.2-.49-.42-.07-.14-.09-.28-.01-.42.02-.04.06-.07.09-.11.02.01.03.02.05.03-.13.14-.13.29-.06.45.08.17.22.29.39.35.11.05.23-.03.29-.15.01-.01.03-.02.07-.03Z"/>
      <path class="cls-2" d="m84.39,89.17c0,.1-.03.12-.18.16-.08.02-.22-.04-.24-.1-.01-.08-.13-.16-.01-.26.04.26.12.3.43.2Z"/>
      <path class="cls-2" d="m84.12,93.01c-.08.02-.14-.02-.15-.1-.02-.2.05-.36.19-.37-.04.15-.22.3-.04.47Z"/>
      <path class="cls-2" d="m83.8,93.88c.04.12.17.14.32.1-.16.19-.27-.02-.4,0q-.08.14-.2.04s-.07-.01-.11-.02c0,0,0-.05-.03-.07-.04-.05-.13-.1-.12-.15,0-.09.05-.19.09-.28.01-.03.04-.05.09-.07-.02.07-.03.15-.05.22-.04.11.06.29.16.32.08.03.14.01.13-.09-.01-.15.05-.26.16-.36-.02.13-.07.25-.04.36Z"/>
      <path class="cls-2" d="m84.09,95.99s-.04.03-.06.04-.05.02-.08.04c-.15-.29-.06-.76.18-.91-.03.1-.08.19-.1.29-.03.14-.04.27-.05.41-.01.03.03.07.06.1.01.01.03.02.05.03Z"/>
      <path class="cls-2" d="m84.08,91.35c-.01.09-.02.18-.04.3l-.06.02c-.04.2.06.42-.1.6.04-.24.04-.47-.1-.7h.19c.01-.08-.02-.19.11-.22Z"/>
      <path class="cls-2" d="m83.89,89.88s.07.01.1.03c-.28.09-.39.45-.2.69-.03,0-.08.01-.09-.01-.1-.13-.11-.27-.07-.42.05-.14.11-.26.26-.29Z"/>
      <path class="cls-2" d="m83.91,90.79c-.02.06-.03.09-.04.11-.07.09-.1.18-.04.28.04.07.02.09-.05.09-.11-.16-.07-.33.13-.48Z"/>
      <polygon class="cls-2" points="83.78 91.27 83.79 91.28 83.78 91.28 83.78 91.27"/>
      <path class="cls-2" d="m83.78,91.27h0c0,.11-.09.08-.14.06-.07-.04-.15-.09-.21-.16-.03-.03-.04-.09-.03-.14,0-.03.06-.06.09-.08.01-.01.03,0,.04.01,0,.01,0,.03,0,.04-.08.08-.03.14.03.17.07.05.15.07.23.1Z"/>
      <path class="cls-2" d="m83.61,94.36c.07.23.14.46.06.7-.03,0-.07-.01-.11-.01,0-.02,0-.06.02-.06.11-.06.1-.16.05-.24-.08-.12-.04-.26-.02-.39Z"/>
      <path class="cls-2" d="m83.69,95.82s-.03.05-.05.06c-.01.01-.04.01-.05,0-.1-.09-.15-.2-.08-.34.05-.08.09-.17.14-.26,0,.01.02.01.03.02-.04.16-.07.33-.11.5.05.01.08.01.12.02Z"/>
      <path class="cls-2" d="m83.3,91.5c.3.22.39.59.18.79-.03-.03-.05-.06-.07-.09.15-.09.15-.31,0-.42-.09-.06-.16-.12-.14-.24,0-.02.02-.03.03-.04Z"/>
      <path class="cls-2" d="m83.48,93.3c-.1.03-.16.04-.2-.07-.03-.12-.11-.23-.06-.37.04-.08.08-.16.12-.25.05.03.08.05.09.07s.01.07,0,.08c-.15.13-.18.28-.07.45.02.03.06.05.12.09Z"/>
      <path class="cls-2" d="m82.66,86.82c-.08.09-.13.16-.19.23.17.08.19.05.19-.23Zm.65-.04c.09.11.06.26-.06.34-.17.11-.35.12-.54.07-.06-.02-.14-.02-.21-.02-.02,0-.06.02-.07.05-.18.29-.26.6-.32.93-.02.13-.04.26-.07.38-.01.04-.04.07-.05.11-.02-.01-.04-.01-.06-.02.07-.32.13-.64.21-.96.03-.12.09-.23.12-.35.06-.16.12-.32.16-.49.04-.13.17-.24.3-.24.05,0,.1.01.15,0,.19-.04.33.06.44.2Zm-.27.25c.1-.08.09-.16-.04-.23.01.08.02.14.04.23Z"/>
      <path class="cls-2" d="m83.2,95.8s-.04.07-.05.09c-.08-.04-.17-.08-.24-.13-.03-.02-.08-.05,0-.12.06-.05.07-.15.11-.22.02-.03.06-.05.09-.08-.14.37-.13.42.1.46Z"/>
      <path class="cls-1" d="m83.1,97.44c.01.15.03.3.04.45,0,.08-.03.16-.04.24-.01.24-.01.48-.02.72,0,.02.02.04.03.06-.1.09-.29.1-.55.01-.01-.13-.04-.26-.03-.38.01-.13.07-.24.1-.36.03-.15.04-.31.06-.46.02-.16.03-.33.04-.5,0-.16.02-.32.03-.47.09-.02.16-.04.24-.04.02,0,.07.05.07.08.02.22.02.43.03.65Z"/>
      <path class="cls-2" d="m83.07,92.08c.02.09.02.19,0,.29,0,.03-.06.07-.1.1-.02-.01-.04-.03-.05-.04.02-.04.05-.08.08-.12.01-.02.03-.04.03-.06-.03-.12,0-.26-.12-.36-.06-.05-.09-.18.05-.28.04.17.09.32.11.47Z"/>
      <path class="cls-2" d="m82.73,93.95s.02.05.04.09c-.04.02-.07.07-.11.07-.05.01-.12,0-.16-.03-.15-.1-.11-.24-.04-.38.02-.05.04-.09.08-.13,0,.06-.01.13-.02.19-.01.04-.03.09-.02.11.04.06.09.1.14.15.02-.04.05-.09.05-.14,0-.15.02-.31.17-.41-.02.11-.05.22-.05.32,0,.14.11.17.26.16-.04.05-.06.11-.09.11-.03,0-.08-.02-.12-.04-.04-.03-.08-.06-.13-.07Z"/>
      <path class="cls-2" d="m82.93,94.74c.02.11.01.22,0,.33-.01.04-.07.1-.1.1-.04-.01-.08-.07-.11-.1-.02-.02-.02-.04-.03-.07,0,0,.02,0,.03-.02.03.02.07.05.13.09-.03-.17.06-.35-.12-.47-.04-.04-.02-.2.06-.29.05.16.11.29.14.43Z"/>
      <path class="cls-2" d="m82.81,92.46c.02.19.05.39.08.59h-.04c-.05-.19-.18-.38-.08-.59h.04Z"/>
      <path class="cls-2" d="m82.72,91.62v.03s-.09.04-.11.03c-.04-.02-.09-.08-.08-.12.01-.09.05-.17.08-.26.02,0,.03.01.05.01,0,.04,0,.08-.02.12-.05.09-.06.17.08.19Z"/>
      <path class="cls-2" d="m82.59,92.55s-.05.1-.08.15c-.01-.01-.02-.02-.03-.02.06-.16.02-.37-.11-.49,0-.01,0-.01,0-.01-.02-.06-.04-.11-.06-.17,0,0,.03-.02.04-.04.04.04.09.08.11.13.05.15.1.3.14.45Z"/>
      <path class="cls-2" d="m82.41,94.28c0,.18.04.36-.07.52-.02.02-.07.03-.1.05,0-.01-.02-.02-.03-.04.02-.03.05-.05.07-.09.02-.02.05-.06.05-.08-.04-.18-.03-.26.05-.38.01.01.03.02.03.02Z"/>
      <path class="cls-2" d="m82.31,92.83c-.06.16-.12.31-.18.46-.02-.01-.05-.01-.07-.02.07-.16.13-.31.19-.46.02,0,.04,0,.06.02Z"/>
      <path class="cls-2" d="m82.22,94.02s.04.03.05.04c-.02,0-.05.03-.08.03-.18-.06-.24-.17-.17-.36.02-.07.06-.14.09-.21,0,0,.02.01.04.01-.02.07-.03.15-.05.22-.03.15-.01.21.12.27Z"/>
      <path class="cls-2" d="m82.18,92.31s.01.11-.01.16c-.02.09-.05.1-.17.05.03-.04.08-.08.09-.12,0-.06-.01-.13-.03-.19-.03-.08-.03-.23.04-.29.03.13.06.26.08.39Z"/>
      <path class="cls-2" d="m82.16,91.78c-.07,0-.14.02-.16-.01-.03-.03-.04-.1-.03-.15.02-.14.2-.3.35-.3-.28.26-.32.35-.16.46Z"/>
      <path class="cls-2" d="m82.18,86.48c-.06.11,0,.25-.12.36-.04-.18,0-.32.12-.36Z"/>
      <path class="cls-2" d="m81.85,90.32c.04.21-.08.46-.24.51-.1.02-.22-.05-.28-.03-.12.03-.19.08-.24.11-.08,0-.14,0-.18,0-.16.03-.3,0-.41-.11-.03-.03-.04-.09-.06-.13-.07-.13-.05-.26,0-.39h.04s.04.11.06.17c.04.14.11.22.26.21.25,0,.51-.02.77-.05.06-.01.11-.1.17-.15.03-.04.06-.08.1-.14Z"/>
      <path class="cls-2" d="m81.74,86.71s0,.11-.02.18c-.11-.07-.03-.14-.03-.2.02.01.05.02.05.02Z"/>
      <path class="cls-2" d="m81.67,89.74c0,.06-.03.15-.08.19-.08.06-.18.11-.28.14-.16.05-.22.17-.23.31-.02.13-.1.18-.2.22-.02.01-.07-.03-.08-.05-.03-.1-.05-.21-.09-.31s-.09-.18-.21-.18c-.04,0-.08-.04-.12-.08-.05-.04-.11-.09-.14-.16-.02-.04.01-.13.04-.15.1-.05.11-.14.09-.22-.04-.17,0-.33.02-.5.03-.26.04-.53.06-.79l.06-.93s-.01-.09-.01-.1c-.08-.03-.12-.05-.16-.05l-.3-.03c-.08-.01-.18,0-.22-.04-.09-.1-.17-.21-.21-.34-.05-.12.14-.27.28-.25.06,0,.12.01.18.02.28.06.53.41.52.67-.02.46-.03.93-.05,1.4-.02.25-.07.49-.09.74,0,.08,0,.17,0,.26,0,.07.06.07.12.07.09,0,.18.01.26.01.02,0,.03.01.04.01.19-.14.38-.03.57-.01.04,0,.08.02.11.04.05.03.12.07.12.11Zm-1.42-2.78s.08-.05.12-.07c-.03-.04-.06-.08-.11-.14-.02.08-.03.13-.04.18l.03.03Z"/>
      <path class="cls-2" d="m81.41,86.6c.1.07.08.14.06.21-.02,0-.03,0-.05,0,0-.08-.01-.14-.01-.22Z"/>
      <path class="cls-2" d="m81.26,86.61c-.01.06.06.15-.06.2v-.23s.06.02.06.03Z"/>
      <path class="cls-2" d="m81.04,86.78c.07.07.02.09-.05.12-.06-.16-.08-.3,0-.48.01.12.02.21.03.3,0,.02,0,.05.02.06Z"/>
      <path class="cls-2" d="m80.8,86.4c.02.19.04.38.07.56-.15-.02-.19-.38-.07-.56Z"/>
      <path class="cls-2" d="m76.32,99.41c-.04.1-.07.19-.12.27-.07.1-.16.16-.29.05-.11-.1-.23-.08-.31.03-.11.13-.22.15-.34.02-.12.21-.28.26-.49.16-.05-.03-.13-.03-.19-.03-.12,0-.26.04-.34-.02-.17-.1-.28-.02-.39.07-.11.08-.48.1-.61.03-.22-.13-.29-.3-.27-.53.01-.24-.01-.49-.04-.73-.02-.1-.07-.22-.24-.2,0,.15.02.3.04.44.02.26-.16.48-.46.51s-.6.06-.9.06c-.41,0-.81-.04-1.21-.04-.33.01-.66.06-.98.07-.15.01-.3-.02-.45-.03-.25,0-.51.01-.76,0-.49-.03-.98-.04-1.45-.26-.18-.08-.39-.09-.59-.15-.32-.11-.54-.36-.66-.65-.19-.5-.22-1.03-.21-1.56.02-.48.09-.95.12-1.43.03-.3.03-.61.04-.92.01-.09.03-.19.03-.28,0-.05-.02-.15-.04-.16-.29-.02-.21-.27-.27-.44-.01-.03-.01-.06-.01-.09-.5.21-1.01.38-1.55.43-.46.04-.64-.2-.84-.55-.04-.06-.07-.14-.09-.21-.05-.17-.04-.33.12-.44-.09-.23-.14-.45.03-.66.01-.02,0-.06.01-.08.04-.09.07-.23.12-.24.09-.02.21.04.29.09.16.1.3.25.47.34.13.06.3.07.44.1.01-.02.02-.04.03-.07-.09-.08-.19-.16-.28-.25-.05-.05-.1-.11-.13-.17-.11-.19-.06-.32.16-.38.31-.08.68.01.89.25.04.04.08.09.12.12.05.03.13.1.16.08.07-.04.16-.12.17-.2.03-.19.03-.4.04-.57-.28-.15-.54-.31-.81-.44-.06-.02-.2.01-.25.07-.24.25-.54.21-.83.18s-.6,0-.87-.19c-.18-.12-.25-.28-.23-.5.01-.14-.05-.28-.07-.43-.03-.2,0-.25.11-.3.04-.15.06-.26.1-.38.02-.09.05-.18.08-.28.07-.15.2-.2.35-.11.18.11.37.23.58.32-.21-.23-.45-.45-.25-.79.38-.1.67.05.92.35.11.13.26.24.41.37.18-.23.44-.22.71-.21.15.01.3,0,.45,0,.14,0,.22-.05.28-.19.15-.32.34-.62.51-.93.06-.11.12-.22.17-.33.16-.35.48-.56.74-.82.05-.05.15-.05.24-.09-.07-.14-.16-.27-.34-.29-.38-.06-.73-.17-.99-.49-.25-.31-.35-.66-.29-1.04.06-.37.21-.73.29-1.1.03-.13-.03-.28-.08-.42-.1-.29-.11-.29.15-.5-.05-.09-.11-.19-.15-.3-.02-.04-.03-.1-.02-.15.05-.3.13-.6.15-.9,0-.2-.2-.13-.31-.14-.23-.03-.47.01-.69-.03-.25-.05-.33-.21-.22-.45.11-.25.26-.48.39-.73.09-.16.19-.33.26-.51.13-.39.24-.79.38-1.17.17-.44.06-.8-.24-1.14-.22-.27-.16-.65.09-.89.24-.24.47-.5.79-.66.06-.03.13-.06.2-.07.44-.04.86.06,1.26.21.44.17.86.15,1.29-.03.63-.25,1.24-.17,1.8.22.2.14.41.27.59.43.17.17.3.38.46.56.13.16.27.3.41.45.35.41.54.9.64,1.42.06.3.06.61.08.92.02.29.02.59.06.88.04.36-.19.73-.54.81-.19.05-.39.08-.6.12,0,.15.02.33-.01.51-.05.3-.13.59-.21.89-.07.28-.12.57-.25.83-.22.43-.43.87-.81,1.2-.25.21-.46.48-.69.72-.14.13-.32.24-.43.4-.13.17-.37.3-.33.51.43.23.87.39,1.21.67.25.21.4.56.56.86.22.41.32.86.4,1.31.07.38.11.77.14,1.15.03.42.06.84.03,1.26-.02.28-.13.56-.22.84-.05.17-.14.32-.22.48-.04.08-.08.16-.12.23-.06.1-.17.21-.15.3.02.15.11.3.21.4.26.23.57.36.91.42.28.06.51.41.46.69-.02.13-.02.26-.04.42.29-.01.55-.04.82-.04.24,0,.47.01.71.04.25.04.52.07.76.17.33.15.69.24.96.51.08.07.18.12.27.16.27.14.34.4.44.65.09.25.21.5.3.75.06.16.12.33.12.49.01.37,0,.74-.02,1.11,0,.15-.13.16-.24.19-.21.06-.35-.04-.49-.21Zm.57-.21s.02-.07.02-.1c-.02-.37,0-.75-.07-1.12-.05-.26-.19-.52-.3-.77-.07-.15-.13-.35-.25-.44-.56-.4-1.07-.85-1.82-.92-.57-.06-1.13-.13-1.7-.06-.04.01-.11.08-.12.12-.01.18,0,.37,0,.6.4-.17.75.02,1.09.1.4.09.84.23,1.13.58.16.17.32.38.37.59.1.36.11.73.17,1.14.08-.06.15-.1.22-.15.32.16.05.59.35.78.07-.18.18-.32.11-.53-.05-.14-.01-.3-.01-.45.04,0,.09,0,.13-.02.04.12.09.24.11.36.02.18.08.33.21.47.12.12.23.01.33.03l.03-.21Zm-1.36.32c.01-.08-.03-.16-.05-.24-.03.01-.05.01-.08.02-.03.08-.05.17-.08.29.1-.03.2-.04.21-.07Zm-.46-.03c.02-.12.07-.25.06-.38-.03-.39-.05-.77-.12-1.16-.08-.4-.35-.7-.7-.84-.43-.17-.89-.24-1.33-.34-.12-.03-.24-.03-.35-.04v1.54c.37.01.53.08.57.3.04.29.04.59.04.88,0,.17.04.31.17.34.24.04.31-.01.34-.22,0-.02.02-.05.02-.07.06-.23.12-.45.18-.68.02,0,.04,0,.06,0,.03.08.08.15.1.24.04.14.05.3.1.44.01.06.11.1.18.13.02.01.1-.04.11-.08.03-.14.04-.29.05-.43.01-.07.01-.15.02-.24.18.11.28.21.24.39s.05.26.26.23Zm-2.04-18.35c-.13.05-.26.1-.39.14-.3.1-.64-.12-.66-.42,0-.1.02-.21.05-.31.08-.29.11-.57.01-.86-.07-.2-.36-.44-.56-.43-.37.03-.62.47-.6.82,0,.01.02.02.03.03.11-.29.29-.39.5-.23.1.07.18.19.21.3.14.46.12.93-.05,1.38-.04.1-.14.21-.24.26-.12.06-.15.12-.16.25,0,.14-.01.29-.04.43-.04.2-.13.25-.32.17-.07-.03-.15-.06-.22-.1-.22-.11-.25-.27-.07-.51,0,.11,0,.2,0,.29,0,.11.21.27.33.25.14-.02.11-.14.11-.24.01-.04.01-.08,0-.12-.02-.27.06-.49.28-.67.25-.21.26-.51.25-.81,0-.1-.04-.2-.03-.3.02-.22-.05-.37-.29-.47-.02.07-.03.13-.04.18.1.02.16.03.23.04-.05.04-.1.08-.14.13-.05.07-.12.15-.13.23-.01.12-.05.18-.2.15-.02-.14-.04-.26-.06-.37-.19.03-.36.06-.54.09-.28.05-.48-.07-.5-.36-.03-.27-.02-.54.01-.81.04-.27.02-.51-.1-.76-.1-.22-.16-.44-.43-.53-.15-.04-.27-.2-.42-.22-.38-.06-.77-.07-1.16-.09-.18-.01-.36-.04-.5.11-.05.05-.15.07-.22.07-.23-.02-.46-.06-.69-.09-.06.22-.12.47-.2.73s-.18.51-.25.77c-.14.5-.42.93-.67,1.37-.14.25-.07.35.21.34.17,0,.35-.05.52-.03.16.03.36-.04.46.16.11.21.17.41.05.63-.03.06-.05.14-.09.22.1,0,.17,0,.24.01.46.03.88.15,1.26.4.13.08.12.19.06.31-.04.06-.08.13-.08.19-.01.19-.27.5-.45.52-.33.02-.67.03-.98.05-.09.33-.19.65-.28.99-.14.52-.03,1.08.48,1.39.17.09.38.11.57.14.23.03.52.24.52.44.02.38.04.76-.05,1.13-.04.14-.01.36.08.45.23.21.53.26.85.22.1-.02.2-.06.3-.07.2-.01.44-.2.46-.4.04-.4.12-.8.11-1.19,0-.38.22-.59.44-.81s.46-.38.66-.6c.43-.47.83-.98,1.07-1.58.17-.42.29-.86.41-1.3.08-.3.14-.61.2-.91.24.13.76.03.84-.19Zm-.59,14.03c0-.2-.06-.33-.25-.41-.24-.09-.47-.2-.68-.32-.24-.15-.49-.3-.56-.6,0-.03-.09-.06-.11-.04-.18.09-.36.14-.57.16-.22.01-.46.08-.62.27-.02.02-.06.04-.09.04-.58.12-1.16.29-1.77.29-.25,0-.52.03-.77-.01-.5-.07-.99-.17-1.52-.27.01.15.04.29.03.43-.04.8-.11,1.59-.14,2.39-.01.33.02.67.08,1,.1.47.34.84.86.94.13.02.25.04.37.08.4.13.82.2,1.22.16.38-.04.76-.08,1.14-.06s.76-.04,1.14.07c.1.04.22.05.33.04.37-.02.74-.05,1.11-.07.17-.02.36-.01.42-.2.06-.17.08-.36.1-.55.02-.21,0-.42.04-.63.04-.29.12-.58.16-.87.03-.22,0-.45,0-.67.02-.39.05-.78.07-1.17Zm-.9-3.41c.01-.48-.04-.96-.08-1.43-.04-.62-.15-1.21-.38-1.79-.2-.53-.48-.97-.91-1.33-.02.01-.04.02-.06.02.02.04.02.09.04.12.26.49.42.98.21,1.53-.17.45-.54.69-.95.81-.39.1-.81.08-1.22.09-.16,0-.34-.03-.43-.23.09-.01.17-.03.24-.02.63.11,1.23.08,1.78-.31.44-.32.69-.72.54-1.28-.12-.4-.25-.8-.73-.98.02.08.02.15.04.19.2.32.15.65.12.99-.02.24-.19.37-.33.53-.19.21-.4.41-.71.47-.33.07-.61-.06-.91-.08-.25-.02-.49-.08-.63-.3-.14-.21-.23-.45-.31-.68-.06-.17-.08-.36-.11-.53-.86,1.29-1.34,2.69-1.45,4.26,1.03-.3,2.05-.42,3.06-.34.13-.27.31-.45.54-.58.34-.19.68-.36.77-.79.04-.15.16-.21.33-.22-.05.18-.1.34-.15.51h.57s.01.04.01.06c-.21.04-.44.04-.62.13-.2.1-.37.27-.55.42-.18.14-.34.29-.49.42.24.06.45.09.65.17.11.05.2.17.29.26.07.08.12.18.16.28.02.05,0,.11,0,.17-.07-.02-.14-.02-.2-.06-.13-.08-.25-.19-.38-.28-.35-.25-.75-.12-1.13-.16-.41-.03-.83-.01-1.24.03-.48.06-.96.15-1.44.25-.07.02-.16.12-.18.2-.04.16-.04.32-.04.48-.02.3-.03.59-.02.88,0,.11.05.25.13.3.13.09.3.15.46.17.54.07,1.08.13,1.62.16.32.02.64-.04.95-.08.44-.05.88-.1,1.31-.18.28-.05.54-.15.8-.26.16-.07.31-.19.43-.31.11-.12.16-.27.25-.41.24-.39.34-.83.36-1.27Zm-1.95-3.49c.14-.28.1-.57.07-.86,0-.1-.08-.19-.12-.28-.03,0-.06.01-.09.01l-.03.45c-.01.38-.23.66-.57.73-.09.01-.18.01-.26.04-.34.12-.65.05-.95-.14-.19-.11-.32-.43-.29-.61.03-.25.04-.5.07-.78-.06.03-.09.04-.12.06-.25.23-.38.89-.18,1.21.33.56.57.9,1.27.83.25-.02.5,0,.7-.18.15-.14.23-.36.47-.4,0,0,.02-.06.03-.08Zm-2.55-5.71c.17-.02.34-.05.51-.08-.4-.24-.81-.39-1.26-.32-.02.25.08.44.23.44.18,0,.35-.02.52-.04Zm.29.52c.13-.09.21-.24.31-.35-.33.02-.61.01-.9.05-.2.03-.44-.06-.59.21.05.07.12.2.19.21.33.03.69.09.99-.12Zm-1.76,6.01c-.1-.01-.21-.02-.31-.04-.51-.1-.81.16-.82.68,0,.1-.05.2-.06.31-.01.15-.07.39.01.45.2.15.42.36.74.31,0-.62.22-1.17.44-1.71Zm-.67,4.19c0-.33,0-.65-.01-.97,0-.05-.02-.12-.06-.15-.29-.24-.61-.42-.96-.55-.07-.03-.18,0-.24.05-.04.03-.05.16-.02.2.08.11.2.2.3.29.07.06.14.11.2.16-.08.05-.15.11-.24.15-.03.01-.09.01-.13-.01-.22-.12-.43-.24-.65-.36-.11-.07-.24-.12-.39-.19-.02.32.14.59.34.7.12.06.23.14.33.22.03.02.01.1.01.18-.28-.26-.51-.47-.74-.68-.09.47.05.73.48.91.05.02.08.1.12.15-.03.03-.05.05-.08.07l-.6-.48s-.03.03-.03.06c-.02.3.13.54.33.74.08.07.2.13.31.13.33.02.67-.02.98-.16.07-.03.16-.04.24-.04.27-.03.51-.21.51-.42Zm-.75-3.84c.02-.11.04-.27-.01-.33-.18-.19-.37-.37-.59-.49-.14-.08-.34-.05-.56-.07.04.1.04.16.08.21.09.1.19.18.28.28.03.04.04.11.06.17-.08.01-.17.05-.22.02-.13-.06-.25-.16-.37-.23-.09-.05-.19-.1-.3-.12-.04-.01-.15.09-.14.12.02.12.06.27.14.33.19.14.42.24.63.37.04.02.06.08.1.12-.04,0-.08.01-.12,0-.31-.13-.6-.3-.84-.59-.02.11-.04.23,0,.32.1.24.24.42.53.46.11.02.18.1.01.21-.23-.18-.46-.37-.69-.55-.14.54.23.68.61.81-.17.13-.24.11-.57-.18,0,.09-.01.14,0,.19.04.19.19.3.36.32.35.05.72.07,1.08.09.07,0,.18,0,.21-.05.07-.12.34-.07.27-.32-.1-.36-.04-.72.05-1.08Z"/>
      <path class="cls-2" d="m71.28,80.91c.01.09-.02.17-.04.26-.08-.03-.16-.06-.23-.08.01-.03.02-.05.03-.07.02.01.05.03.07.03.03.01.06.01.08.01,0-.03-.01-.06-.02-.09-.03-.05-.06-.09-.09-.14.02-.01.05-.04.06-.04.06.04.14.08.14.12Z"/>
      <path class="cls-2" d="m55.83,83.55c.12.07.2.11.27.16.09.06.16.12.23.19.12.12.1.51-.04.53-.24.03-.49.11-.72-.07-.11-.08-.24-.14-.37-.21,0,.05,0,.07,0,.09-.01.53,0,1.04-.01,1.56,0,.41-.03.82-.03,1.23-.02.46-.02.93,0,1.39,0,.16,0,.32.02.47,0,.13-.01.26,0,.38.04.43.09.86.13,1.3.06.49.06,1,.17,1.49.03.11,0,.22.01.33.03.37.09.74.11,1.11.01.27-.07.54-.02.79.06.32-.06.6-.04.91.03.35,0,.68,0,1.07.92-.07,1.83-.15,2.76-.22v-.22c-.03-.62-.07-1.24-.08-1.86-.01-.37.02-.74.03-1.1.02-.27.02-.55.05-.81.04-.53.12-1.05.15-1.58.04-.51.06-1.04.09-1.56.01-.18.05-.38.07-.57.04-.33.11-.67.12-.99.02-.61.02-1.22.01-1.84-.01-.27-.06-.54-.08-.82-.03-.78-.05-1.56-.08-2.34,0-.39-.05-.79-.08-1.17,0-.03,0-.05,0-.09-.05-.64-.11-1.27-.2-1.9-.08-.6-.19-1.21-.3-1.81-.07-.33-.19-.65-.28-.98,0-.03,0-.12.02-.13.04-.01.1-.01.14.01.04.04.07.09.1.13.06.17.12.34.18.53.09-.02.17-.04.25-.07.2-.1.4-.23.6-.33.28-.17.57-.34.86-.5.53-.29,1.05-.58,1.57-.89.35-.21.7-.43.99-.72.24-.23.59-.37.73-.7.04-.08.13-.13.18-.19.09-.11.18-.21.22-.34.11-.27.16-.56.27-.83.23-.6.49-1.18.71-1.78.15-.38.23-.78.38-1.17.14-.38.15-.38-.21-.56-.45-.23-.89-.46-1.35-.69-.24-.12-.48-.24-.73-.37-.04.07-.1.16-.15.23-.15.23-.3.45-.45.68-.21.32-.41.66-.63.96-.13.19-.37.33-.46.53-.14.38-.42.61-.69.87-.38.37-.81.66-1.34.84-.55.16-1.06.36-1.64.42-.37.03-.72.09-1.07.03-.46-.09-.91-.16-1.36-.28-.33-.07-.64-.2-.98-.3,0,.28-.05.54.15.78.17.2.29.43.41.67.17.36.32.72.45,1.09.13.35.2.72.31,1.08.16.55.35,1.09.35,1.67,0,.03.01.07.01.1.03.31.07.63.07.96,0,.17-.07.36-.08.54-.03.49-.04.98-.06,1.48.06,0,.15.02.21,0,.22-.08.37-.02.53.14.12.15.13.31.08.45-.03.1-.16.21-.26.25-.24.1-.5.16-.74.23-.01.1-.02.17-.02.24.48.17.88-.04,1.27-.27.22-.13.44-.27.66-.4.03-.02.1-.01.13.01.16.12.26.28.26.45,0,.09-.03.18-.08.26-.06.11-.21.17-.24.28-.09.3-.33.55-.33.89,0,.13-.06.3-.15.37-.28.21-.52.5-.94.49Zm14.02-15.23c.03.36-.08.75-.39,1.05-.05.05-.09.11-.14.17-.22.31-.53.45-.9.46h-.89c-.25,0-.41-.13-.54-.34-.11-.16-.25-.3-.37-.45-.23-.25-.45-.52-.69-.77-.14-.16-.27-.32-.44-.46-.06-.05-.19-.02-.29-.02-.16.01-.31.06-.41.21-.08.11-.09.21.07.26.23.07.44.2.55.41.06.12.04.3,0,.43-.09.32-.21.61-.33.92-.03.1-.06.22-.1.31-.16.37-.31.74-.49,1.1-.3.61-.64,1.2-.87,1.85-.07.19-.21.37-.36.5-.44.36-.9.71-1.36,1.07-.13.12-.25.25-.4.36-.27.2-.57.37-.83.58-.41.32-.84.59-1.31.82-.2.09-.43.19-.63.29-.14.1-.28.21-.45.34.05.18.12.39.16.6.07.34.12.68.17,1.02.06.33.13.64.18.97.05.35.08.7.11,1.06s.06.71.08,1.06c.02.25.03.49.04.73.02.24.04.47.04.72,0,.29,0,.6,0,.89,0,.28.03.54.05.81,0,.05-.02.11-.02.17-.02.42-.02.84-.04,1.26-.02.28-.06.54-.06.81-.01.61-.22,1.21-.23,1.82,0,.36-.05.71-.08,1.06-.04.34-.09.68-.15,1.03,0,.04-.01.07-.02.11-.02.85-.07,1.7-.07,2.54.01.6.11,1.2.16,1.8,0,.18-.02.35-.03.46-.77.09-1.51.16-2.26.25,0,.35,0,.72,0,1.08.01.27.06.56.09.84.02.22-.07.29-.39.32-.01.14,0,.29-.04.43-.16.45-.56.6-.97.65-.4.04-.81,0-1.2-.1-.3-.1-.6-.14-.9-.22-.06-.02-.14-.12-.16-.19-.1-.25-.14-.51-.24-.76-.02-.05-.16-.09-.25-.1-.07-.01-.15.04-.22.06.24.26.03.52-.02.79-.07.39-.43.41-.72.47-.49.13-1,.19-1.51.13-.3-.04-.6-.09-.9-.15-.44-.11-.67-.35-.64-.81,0-.03-.01-.08-.01-.13-.19,0-.37-.01-.54.01-.2.02-.27-.02-.27-.22.01-.45.03-.89.04-1.35v-.28c-.12-.01-.24-.04-.35-.04-.5.01-1.01.02-1.5.05-.27,0-.54.07-.81.12-.05.01-.15-.01-.16-.05-.03-.06-.03-.14-.01-.21.15-.35.32-.71.46-1.07.25-.58.48-1.17.73-1.76.36-.84.67-1.69.83-2.6.08-.47.2-.93.3-1.41.08-.48.14-.97.23-1.45.05-.37.13-.74.17-1.11.03-.51.03-1.02.03-1.53,0-.19-.03-.39-.04-.58-.03-.54-.06-1.06-.08-1.6-.02-.33-.03-.65-.04-.99-.01-.15-.02-.3-.05-.44,0-.04-.04-.1-.09-.13-.37-.23-.59-.59-.75-.98-.26-.63-.43-1.27-.43-1.96,0-.93-.06-1.87-.02-2.81.03-.69.13-1.41.55-2.01.22-.3.38-.64.57-.95.05-.08.13-.14.18-.2.33-.47.72-.87,1.2-1.2.48-.34,1-.56,1.57-.71.17-.04.36-.03.55-.04.28-.01.47-.2.47-.47v-1.1c0-.13,0-.2-.18-.16-.13.02-.28-.06-.42-.07-.09-.01-.19,0-.29,0-.12.01-.26.04-.4.04-.44-.01-.89-.02-1.34-.04-.16,0-.32-.03-.48-.07-.04-.02-.07-.11-.09-.18-.03-.16-.04-.32-.09-.48-.08-.42-.19-.83-.25-1.25-.03-.19,0-.38-.01-.58-.01-.22-.04-.44-.03-.66,0-.31.06-.61.09-.91.03-.19.05-.38.09-.55.07-.35.18-.7.25-1.05.06-.27.08-.57.13-.84.05-.33.1-.65.16-.97.08-.36.15-.71.25-1.06.11-.41.26-.81.4-1.21.09-.29.2-.58.29-.86.04-.12.11-.24.15-.35.17-.47.35-.96.5-1.44.04-.11-.03-.23-.04-.35,0-.21-.01-.41.01-.61.01-.27-.12-.45-.35-.56-.35-.18-.7-.38-.99-.64-.29-.24-.34-.54-.35-.9,0-.32.21-.49.38-.69.12-.15.32-.24.48-.36.01-.01.03-.01.04-.01.49-.48,1.13-.45,1.73-.56.5-.08,1.01-.17,1.51-.19.46-.02.92.05,1.37.07h.15c.34-.02.66.04.99.15.12.05.25.04.37.07.47.17.95.36,1.42.52.42.14.75.44,1.1.66.23.13.36.54.29.8-.03.22-.37.42-.37.42-.11.08-.17.18-.46.41-.34.27-.68.46-.76.5-.17.09,0,.15,0,.22v.62c.01.09.05.18.03.27s-.09.18-.14.26c-.03,0-.06-.01-.09-.02.06.61.09,1.22.2,1.82.09.54.28,1.05.42,1.57.03.12.07.23.06.34-.01.08-.07.21-.14.23-.18.05-.36.07-.55.09-.24.02-.48.03-.78.07.01.18.01.38.03.58.01.16.07.32.05.49-.01.28-.05.57-.08.85-.01.09-.01.17-.03.24-.03.14-.09.27-.12.4s-.07.27-.07.4c0,.14.03.28.07.42.02.07.09.12.13.18.04.07.13.16.1.2-.09.27.08.49.11.73.07.55.02,1.05-.39,1.48-.3.32-.64.56-1.05.72-.12.04-.23.12-.34.19-.03.02-.06.08-.06.13-.03.6-.07,1.21-.09,1.82-.01.28,0,.57,0,.85s.05.34.34.43c.45.13.9.28,1.35.42.4.13.83.17,1.25.23.65.1,1.26-.08,1.86-.27.63-.19,1.22-.5,1.7-1,.25-.25.55-.47.78-.75.23-.27.43-.58.63-.88.22-.35.42-.71.62-1.05.07-.14.12-.29.16-.44.05-.13.08-.27.13-.41.01-.03.09-.07.13-.06.12.01.23.04.37.07.07-.29.16-.57.23-.87.04-.18.1-.37.12-.56.07-.48.07-.95.02-1.44-.03-.38.1-.75.26-1.09.05-.13.11-.28.2-.37.13-.12.26-.06.35.08.16.29.26.57.24.91-.02.18.02.37.03.56.01.03.04.06.06.09.14-.1.27-.2.39-.3,0-.02.04-.05.04-.07-.08-.44.08-.85.13-1.27.08-.7.34-1.33.63-1.95.22-.46.54-.87.97-1.18.13-.08.29-.1.34-.27,0-.02.1,0,.16,0-.15.63-.33,1.24-.41,1.85-.07.44-.04.92-.02,1.37.01.21.03.43.09.63.03.12.15.22.21.34.03.06.02.15.03.22,0,.03.02.08.04.1.25.23.52.43.73.67.17.19.32.41.3.69,0,.04.03.09.06.13.22.29.15.66.2,1,0,.01-.02.03-.03.06.29.18.59.36.88.52.47.25.73.66.77,1.17Zm-.64.96c.25-.22.28-.54.29-.78,0-.73-.2-.92-.81-.87-.45.04-.88.51-.95,1-.03.26-.05.52,0,.78.03.14.08.22.2.26.3.11.55.02.8-.11.16-.09.33-.16.47-.28Zm-.32-1.91c-.36-.3-.7-.18-1.05-.02-.4.17-.41.58-.59.93-.01-.56.3-1.04,1.14-1.21-.06-.05-.08-.09-.12-.11-.44-.27-.78-.62-1-1.09-.02-.05-.08-.09-.14-.11-.16-.07-.34-.12-.52-.17-.1-.02-.2-.08-.28-.05-.21.07-.42.18-.6.3-.23.16-.19.41-.19.64,0,.2.13.32.3.37.1.03.22.03.34.04.31.05.62.11.79.46.08.17.06.26-.1.33-.27.1-.54.19-.85.3.43.52.89,1.04,1.46,1.51-.13-.5-.08-.97.17-1.41.27-.46.72-.64,1.24-.71Zm-.96-1.04c0-.19.05-.4-.01-.57-.08-.25-.31-.39-.54-.5-.31-.14-.64-.2-.97-.21-.11,0-.22-.03-.34-.05.01-.07.02-.13.02-.17.6.08,1.19.1,1.7.48-.06-.16-.1-.31-.19-.42-.1-.11-.22-.24-.36-.27-.31-.06-.62-.06-.93-.09-.06-.01-.17-.04-.18-.08-.02-.06.04-.13.05-.16h.59s.02-.03.02-.05c-.17-.07-.33-.2-.51-.23-.16-.02-.34.04-.5.07-.58.12-1.1.34-1.47.84-.06-.01-.11-.03-.14-.03-.28-.34-.02-.7-.07-1.05-.03-.19-.07-.38-.12-.56-.01-.03-.11-.04-.21-.08.16.32.15.59-.05.69-.19.11-.18.24-.18.38,0,.05.01.09,0,.13-.1.65-.21,1.29-.32,1.95-.05.31-.13.62-.21.92-.04.14-.01.17.09.22.2.09.41.18.61.29.28.15.55.31.81.46.14-.16.25-.34.39-.42s.32-.09.49-.1c.22-.02.44.02.66.03.05-.17-.03-.41.19-.46.16-.04.34.01.5.04-.09-.19-.3-.23-.46-.21-.37.02-.64-.14-.86-.4-.22-.28-.25-.6-.05-.8s.39-.38.63-.48c.42-.18.86-.13,1.24.17.08.06.18.13.25.2.13.17.24.35.36.53.03-.01.05-.01.07-.01Zm-1.2,1.23v-.08c-.13-.07-.25-.21-.43-.09-.1.07-.15.18-.05.31.16-.05.33-.1.48-.14Zm-.44-5.68c.08-.64.24-1.27.36-1.9-.23.19-.46.39-.62.63-.18.28-.33.6-.43.92-.12.32-.19.66-.26,1-.05.22-.06.44-.08.66-.03.27-.06.55-.09.83.47-.08.9-.16,1.35-.23-.2-.61-.3-1.25-.23-1.91Zm-2.55,1.84c.08-.13.09-.26,0-.37-.03,0-.05,0-.08-.01-.04.18-.08.34-.12.51.01.01.04.03.06.04.05-.06.11-.11.14-.17Zm-6.32-8.84s.37-.26.34-.5c-.04-.2-.08-.4-.26-.53-.13-.09-.25-.21-.39-.3-.42-.32-.91-.47-1.39-.67-.33-.14-.69-.21-1.04-.31-.42-.13-.84-.15-1.26-.2-.3-.03-.61-.05-.91-.03-.45.02-.9.09-1.35.14-.36.05-.73.07-1.08.14-.45.1-.9.21-1.22.61-.12.16-.3.29-.45.44-.24.28-.13.55,0,.85.18.44.54.71.95.88.29.12.59.38.94.17-.09-.13-.2-.3-.33-.43-.24-.22-.34-.51-.45-.8-.08-.21.1-.71.28-.86.07-.06.13-.14.22-.24.04.08.06.13.09.19-.26.1-.4.28-.47.54-.06.22.07.37.16.5.22.35.46.69.75.98.18.19.47.23.76.15.21-.06.44-.06.66-.08.22-.04.44-.05.69-.07-.03-.24-.02-.5-.11-.73-.14-.4.03-.73.1-1.08h.08c0,.07.02.13,0,.19-.04.21-.14.43-.1.63.04.28.22.52.3.79.09.3.33.18.52.21.18.04.37.04.56.06.02,0,.04-.01.06,0,.29.18.4-.1.54-.24.26-.27.46-.58.61-.93.08-.19.03-.41-.13-.56-.08-.08-.16-.18-.27-.32.24.1.6.51.6.68,0,.09-.03.2-.07.28-.14.29-.09.65-.4.87-.11.07-.15.23-.25.38.34.09.65.16.95.25.24.06.4-.06.58-.2.06-.06.4-.23.68-.46.33-.23.42-.33.51-.39Zm.03,26.28s-.05-.03-.07-.05c-.09.1-.17.18-.24.29-.02.03,0,.14.04.15.04.02.14.01.15-.03.06-.11.09-.24.12-.36Zm-.13-.12s0-.04,0-.06c-.08.01-.19,0-.26.04-.17.11-.33.24-.49.36-.4.27-.85.34-1.31.28-.15-.02-.29-.1-.43-.19-.12-.07-.15-.18.01-.25.1-.05.22-.08.33-.13.17-.05.36-.09.49-.12-.05-.22-.09-.39-.15-.57-.07.02-.15.05-.25.08-.29.09-.62.12-.86.28-.26.17-.5.18-.77.18h-.06c-.07.67-.13,1.33-.18,1.93.22.09.44.14.61.25.4.26.77.54,1.16.82.07.05.16.14.22.12.3-.14.56-.1.8.15.11-.16.09-.23-.09-.33-.27-.14-.51-.36-.85-.39-.13-.01-.25-.09-.38-.14v-.08c.07,0,.16-.01.23-.01.29.04.58.14.85.11.35-.05.61-.29.8-.58,0-.01-.01-.02-.01-.02-.24.1-.48.21-.73.31-.28.12-.51.06-.72-.18.18-.01.36.05.54.02.19-.02.38-.07.55-.15.15-.09.3-.21.42-.36.11-.14.16-.31.26-.5-.35.17-.64.34-.95.46-.23.08-.48.1-.71.14-.08.01-.15,0-.21,0,0-.07,0-.14.01-.19.74.05,1.34-.23,1.91-.64-.09-.26-.05-.38.23-.64Zm-.83-20.07s.08-.11.07-.14c-.09-.26-.18-.51-.27-.78-.22-.62-.4-1.25-.41-1.92-.01-.28,0-.55,0-.88-.18,0-.35.06-.46,0-.41-.18-.85-.12-1.27-.19-.32-.04-.64-.02-.95-.04-.43-.03-.85-.07-1.29-.1-.32-.02-.35.02-.36.34,0,.24-.03.47-.04.71-.03.47-.07.95-.08,1.43,0,.53.03,1.05.03,1.58,0,.44-.04.88-.03,1.33.01.4.06.8.09,1.2,0,.15,0,.31.04.46.07.31.16.62.23.92.03.14.04.29.04.43.01.26,0,.53.01.8.01.63.2,1.23.33,1.84.02.07.11.18.19.19.15.03.34.05.5,0,.45-.12.9-.29,1.35-.41.39-.12.58-.47.86-.69.11-.07.2-.2.22-.32.09-.39.13-.8-.04-1.19-.03.07-.06.14-.08.22-.01-.01-.02-.01-.05-.01v-.19s-.03-.01-.05-.02c-.03.09-.07.18-.11.3-.1,0-.26.02-.41.03-.17.02-.33.04-.5.05v-.07s.1.01.15.01c0-.02,0-.04.01-.06-.08-.01-.15-.03-.21-.02-.18.03-.35.06-.44-.16-.01-.03-.07-.05-.1-.07-.05-.03-.09-.06-.14-.09-.06-.04-.12-.08-.19-.11-.02-.02-.06-.02-.08-.04-.2-.2-.39-.42-.61-.59-.16-.14-.15-.32-.08-.47.05-.13,0-.23-.07-.3-.14-.14-.18-.31-.17-.5.01-.17.05-.33.09-.5.04-.19.1-.37.19-.54.03-.06.15-.13.2-.12.16.06.19-.03.23-.14.12-.32.23-.37.56-.33.04,0,.09-.02.13-.03.26-.06.44-.27.73-.3.27-.03.55-.07.81.07,0-.08-.01-.14,0-.2.03-.14.09-.25.24-.25.26-.02.5-.03.75-.05.15-.02.31-.05.44-.09Zm-.33,19.63c-.12-.06-.23-.15-.35-.19-.05,0-.14.09-.16.1-.05.26.12.3.19.29.12-.02.21-.13.32-.2Zm-.64,3.55c.16.08.32.22.53.1-.15-.23-.36-.09-.53-.1Zm.27,14.29c.12.01.18-.04.17-.17-.01-.41-.03-.82-.05-1.24v-.46c-.23,0-.45,0-.67,0-.19,0-.35-.16-.34-.35,0-.3.02-.58.03-.88.02-.2.03-.38.04-.58.02-.38.03-.77.04-1.15,0-.24-.02-.49-.03-.73-.01-.28,0-.58-.03-.86-.04-.34-.1-.68-.13-1.01-.04-.44-.05-.89-.09-1.33-.01-.2-.03-.41-.04-.61-.01-.15-.04-.3-.03-.45,0-.51.02-1,.03-1.5,0-.42.03-.84.04-1.26.02-.4.04-.8.05-1.19v-.79c-.13-.08-.27-.18-.42-.29-.07.57-.12,1.1-.2,1.64-.11.63-.2,1.26-.17,1.92.03.54-.02,1.09-.03,1.64-.01.58,0,1.17,0,1.75,0,.15-.01.3,0,.45.04.41.08.8.12,1.2.04.53.08,1.06.13,1.59.03.46.09.93.14,1.4.03.49.06.98.1,1.47.01.13.03.25.03.38,0,.21,0,.43,0,.64,0,.22.03.45.05.7.03.01.08.04.12.04.38.02.76.03,1.14.04Zm.08-41.46c.03-.22.08-.4.09-.58,0-.05-.08-.14-.13-.15-.2-.06-.41-.1-.61-.15-.27-.07-.55-.17-.82-.22-.43-.07-.84-.18-1.29-.14-.31.03-.63,0-.94.02-.09,0-.17.03-.26.03-.19,0-.39-.03-.58-.02-.29.01-.57.06-.86.06-.56,0-.55-.01-.56.55,0,.34.04.38.4.4h.11c.25-.03.5-.06.76-.08.32-.03.66-.03.99-.05.54-.02,1.08-.08,1.62-.06.42.02.82.15,1.24.23.26.05.55.1.84.16Zm-.2,42.29c.06-.03.14-.18.11-.22-.05-.09-.15-.22-.25-.23-.3-.05-.62-.08-.93-.1-.32-.02-.63-.01-.94-.03-.21,0-.43-.02-.64-.03-.04,0-.11.03-.12.06-.03.18.2.57.38.61.42.09.84.16,1.22.24.23-.04.41-.04.58-.08.2-.05.4-.12.59-.22Zm-.56-36.47v-.59c0,.32-.31.07-.39.25-.05-.07-.09-.11-.1-.13-.2.05-.37.08-.54.12-.02-.05-.02-.08-.03-.11-.03.01-.08.03-.1.05-.08.15-.19.23-.37.27-.17.05-.37.12-.49.3-.2.29-.06.6-.02.89,0,.02.02.03.04.06.14.13.29.28.42.43.07.06.1.13.23.08.08-.03.21-.04.32.06.11.11.3.17.45.17.14,0,.29-.1.44-.17-.01-.06-.02-.14-.02-.23-.02-.13-.04-.17-.18-.14-.19.03-.39.03-.57-.03-.3-.1-.49-.35-.63-.63-.15-.27-.09-.5.21-.62.21-.08.45-.1.67-.18.23-.07.43-.01.66.15Zm-.05,15.07c0-.33-.01-.67-.06-1.01-.08-.44-.2-.87-.31-1.31-.1-.45-.2-.9-.33-1.33-.09-.28-.2-.56-.34-.83-.11-.22-.26-.42-.4-.64-.16.11-.29.19-.2.4.1.29.18.6.25.9.13.5.26,1,.37,1.51.11.53.19,1.08.28,1.63.04.2.07.4.08.61,0,.28,0,.58,0,.86.02.41.06.82.07,1.23,0,.18-.03.36-.04.54.48-.07.58-.36.58-.72,0-.61.04-1.23.04-1.84Zm-.07-14.23s.03-.11.05-.17c-.06-.02-.13-.04-.19-.04h-.92c.07.09.12.17.18.25.3.36.64.34.88-.04Zm-.06-.6c-.06-.06-.12-.17-.2-.18-.36-.05-.74-.07-1.04.33h.44c.19,0,.39.01.59-.01.08-.01.14-.09.21-.14Zm-.26,2.39c-.04-.18-.07-.34-.11-.49-.03.01-.05.02-.07.02-.08.2-.02.42.18.47Zm-.27.23c.15-.17-.1-.29-.03-.45-.02.01-.05.01-.07.01,0,.15.01.3.02.44h.08Zm-.03,14.73c0-.48-.02-.96-.05-1.44-.02-.48-.12-.94-.12-1.42,0-.37-.03-.75-.15-1.13-.13-.41-.19-.85-.28-1.27-.1-.43-.19-.84-.28-1.26-.06-.29-.12-.59-.19-.9q-.41.1-.32.49v.08c.08.5.11,1.02.25,1.5.19.66.13,1.35.19,2.01.03.3-.06.59-.02.88.06.42-.05.81-.1,1.22-.01.14-.06.29-.09.44-.04.15-.09.29.15.36.05.02.09.18.1.27.03.14.02.29.05.43.01.05.07.11.11.12.11.01.22.01.33,0,.25-.04.42-.18.42-.38Zm-.05,17.13c.01-.29.03-.59,0-.87-.04-.52-.11-1.03-.15-1.54-.04-.28-.05-.55-.07-.83-.03-.49-.06-.98-.1-1.47-.01-.17-.07-.34-.08-.52-.02-.38-.03-.76-.05-1.13,0-.23-.03-.45-.05-.67-.02-.45-.06-.91-.05-1.38,0-.48.11-.97.1-1.46-.03-.89.15-1.77.17-2.66.01-.14.05-.28.07-.41.06-.32.1-.62.13-.94.01-.06,0-.16-.05-.2-.21-.21-.46-.36-.76-.34-.04,0-.12.07-.12.1,0,.22-.11.28-.31.27-.04-.01-.14.08-.14.12,0,.43.04.87,0,1.3-.05.7-.16,1.38-.21,2.08-.06.7-.11,1.42-.13,2.13,0,.5.07.99.09,1.5.03.41.04.83.07,1.25.02.33.06.66.09,1,.08.71.17,1.4.25,2.11-.02,0-.04.01-.06.01-.05-.19-.09-.38-.11-.57-.04-.39-.05-.79-.09-1.19-.06-.57-.14-1.15-.19-1.72-.03-.25-.02-.5-.05-.76-.04-.51-.11-1.02-.11-1.52-.01-.7.02-1.39.07-2.09.04-.58.15-1.16.2-1.75.06-.61.07-1.22.11-1.86-.08-.01-.11-.01-.13-.01-.35.08-.69.14-1.03.21-.04.01-.08.11-.08.16-.01.42-.01.85,0,1.28,0,.15-.01.31,0,.47.03.4.09.8.11,1.2.02.47.02.95.04,1.42.01.25.07.5.08.75.02.28.03.57.04.86,0,.33-.01.65,0,.99.01.21.05.42.08.63.06.44.1.9.15,1.34.04.32.11.64.14.97s0,.69.05,1.02c.11.59.26,1.17.4,1.74.05.25.1.49.15.74-.16.02-.3.02-.41.06-.39.15-.8.09-1.2.07-.71-.03-1.4-.13-2.11-.19-.43-.04-.87-.09-1.32-.12.01.12.04.28.03.43-.02.33-.08.66-.11.98-.01.11.02.18.16.17.21-.02.43-.04.64-.05.32-.02.64-.04.96-.05.09,0,.19.03.27.02.29-.03.57-.09.86-.12.48-.06.96-.12,1.46-.16.34-.02.67.04,1.01.04.4.01.79,0,1.2,0,.03-.29.07-.56.08-.84Zm-.26-32.92s-.04-.03-.06-.04c-.09.04-.17.07-.25.1v.08c.07.02.15.07.21.05.05-.02.07-.13.1-.19Zm-.9,8.14c.45-.17.61-.4.52-.87-.01-.06-.07-.12-.12-.21-.05.15-.07.24-.1.33-.11.27-.41.26-.63.37-.1.05-.21.07-.33.07-.18,0-.37-.04-.54-.06-.43-.07-.78-.2-.92-.65-.02-.07-.07-.13-.14-.23-.18.51-.07.89.33,1.13.16.11.37.16.56.19.46.06.91.11,1.37-.07Zm.17-8.32s.05-.04.08-.05c-.08-.1-.14-.18-.2-.28-.03.04-.05.06-.09.08.07.08.14.17.21.25Zm.06,5.46c.01-.52.01-1.05.02-1.61-.36.02-.76.03-1.18.06.18.36.37.74.54,1.12.04.1.05.21.08.35-.58-.03-1.09-.18-1.61-.01-.04.44-.08.89-.15,1.34-.06.46.23.94.62.96.11.01.24-.03.34-.01.35.09.66-.01.99-.11.18-.05.26-.18.27-.34.05-.58.06-1.17.08-1.75Zm.09-7.55c-.06-.08-.11-.14-.17-.2-.04.06-.12.13-.12.2,0,.08.08.15.13.23.05-.07.09-.13.16-.23Zm-.39,17.12c.11-.44.28-.87.26-1.35-.02-.41.01-.83,0-1.25,0-.28-.03-.57-.05-.85-.01-.17-.04-.34-.07-.52-.14-.75-.27-1.52-.41-2.29-.02-.11-.05-.16-.17-.11-.05.01-.1.02-.17.04.04.15,0,.3.02.44.06.47.07.93-.02,1.4-.16.75-.22,1.51-.2,2.28,0,.04,0,.11-.03.15-.16.28-.07.59-.09.87,0,.15.01.31.01.45.01.24.02.48.04.71,0,.04.05.09.09.12.25.09.49.19.75.28.01-.13.01-.25.04-.37Zm.21,1.62c.01-.32.07-.66-.17-.96-.01.03-.01.05-.01.05-.13-.11-.26-.25-.4-.28-.44-.08-.89-.13-1.33-.17-.46-.02-.91.04-1.35-.02-.45-.05-.87.02-1.28.17-.08-.18.04-.21.16-.23.09-.01.16-.02.25-.03.23-.03.46-.07.69-.09.12-.01.24.03.37.05,0-.05.02-.08,0-.09-.17-.38-.42-.72-.78-.93-.19-.12-.44-.13-.67-.17-.13-.02-.21-.04-.21-.22.35.06.7.12,1.06.2.31-.98.71-1.95.25-3.01.12.05.24.12.24.2.04.4.23.77.08,1.2-.14.43-.21.88-.3,1.33-.03.15-.03.3,0,.44,0,.07.1.12.14.18.12.2.22.4.35.6.11.21.49.29.82.17-.02-.24-.06-.48-.06-.73,0-.34,0-.69.03-1.04.01-.14.03-.3.04-.45.02-.33.01-.64.06-.96.02-.13.08-.27.08-.42.02-.35.07-.69.11-1.04.04-.37.1-.74.12-1.1.02-.26,0-.51,0-.77-.57-.1-1.1-.6-.9-1.38-.28.06-.57.08-.82.19-.48.22-.99.4-1.37.81-.3.33-.65.65-.94,1-.22.26-.39.56-.58.84-.24.38-.49.76-.55,1.21-.06.51-.14,1.01-.16,1.52-.01.54.03,1.1.05,1.65.02.12.04.25.05.38,0,.24-.05.49.01.72.09.39.23.78.38,1.16.16.43.39.82.82,1.04.05.02.09.06.13.1.46.37.98.61,1.55.75.46.11.94.22,1.41.32.3.06.6.14.91.16.41.03.8-.13,1.17-.27.48-.2.52-.41.51-.89,0-.09-.04-.2-.03-.29.02-.3.06-.6.07-.9Zm-.05-19.03s.03-.04.05-.07c-.03-.01-.06-.04-.08-.04-.1.05-.18.11-.26.18.02.01.03.03.05.05.07-.04.16-.08.24-.12Zm-.37,2.68s-.01-.12-.04-.14c-.07-.05-.17-.09-.27-.14.01.09.01.15.02.22.08-.02.13-.03.2-.05.01.02.01.03.01.04-.03,0-.09.02-.11.04-.01.04-.01.08-.02.12.08-.03.15-.05.21-.09Zm-.12-1.29c-.05.01-.1.01-.15.01s-.11.01-.18.03c.04.11.08.22.12.32.08-.06.14-.11.17-.16.04-.05.03-.12.04-.2Zm.09-.9c-.2-.06-.33-.12-.39.04-.02.05.04.14.06.2.1-.06.19-.14.33-.24Zm-.26,7.1c-.07-.11-.13-.24-.18-.37-.26-.67-.61-1.32-.68-2.07-.04-.51-.12-1.01-.17-1.52-.04-.24-.03-.48-.06-.72,0-.08-.06-.16-.07-.24-.08-.56-.19-1.12-.25-1.68-.06-.45-.06-.91-.07-1.37-.01-.22.04-.45.04-.67-.02-.43-.05-.86-.05-1.28,0-.31.02-.61.05-.92.03-.59.07-1.19.1-1.81-.37,0-.77,0-1.18.01-.05,0-.12.06-.15.12-.13.27-.26.55-.36.85-.27.75-.51,1.49-.76,2.24-.12.36-.26.72-.34,1.07-.16.75-.26,1.51-.39,2.26,0,.09.02.19,0,.27-.05.33-.13.64-.19.97-.05.29-.09.6-.12.89-.02.26-.04.5-.05.75,0,.15.01.28.01.43,0,.3-.04.6,0,.89.09.47.22.92.33,1.39.01.06.07.12.13.14.19.08.4.12.63.18,0-.11,0-.18,0-.24-.03-.27-.06-.55-.08-.82-.04-.53-.06-1.05-.09-1.58-.01-.48-.02-.97-.04-1.44,0-.31-.02-.61-.01-.91.03-.51.08-1.02.14-1.52.07-.59.14-1.18.25-1.77.06-.4.17-.79.25-1.19.02,0,.04-.01.05-.01.01.06.03.12.02.19-.04.33-.09.67-.12,1.01-.04.32-.06.66-.1,1-.05.59-.16,1.17-.19,1.76-.03.7-.01,1.41-.01,2.12,0,.03,0,.07.01.11.03.59.08,1.19.12,1.79.03.4.07.79.14,1.18.02.09.12.25.2.25.27.03.55.02.81.02-.05-.32-.09-.61-.13-.91-.04-.26-.08-.53-.12-.81-.04-.29-.08-.59-.12-.88-.03-.24-.11-.48-.12-.73-.02-.35-.01-.71-.01-1.08,0-.4-.01-.8-.01-1.21,0-.38.01-.76.01-1.15.01-.38.01-.76.01-1.14,0-.36.19-.71.13-1.1-.04-.29.02-.58.07-.86.05-.34.15-.67.22-.99.06-.25.1-.49.15-.72.02-.14,0-.3.21-.41.01.1.02.17.03.24,0,.07,0,.14-.02.21-.03.35-.01.72-.12,1.05-.12.33-.09.66-.14.98-.04.29-.06.57-.1.86-.03.31-.07.63-.11.93,0,.06.01.11.02.16,0,.05.02.11.02.16-.03.46-.07.92-.07,1.37-.01.51.02,1.02.03,1.53.01.38,0,.75,0,1.13-.01.37-.04.73-.03,1.1,0,.32.03.66.07.98.05.36.13.71.21,1.06.01.06.08.12.15.13.25.07.5.1.79.15-.01-.14-.01-.26-.02-.38-.04-.19-.08-.38-.11-.57-.07-.48-.15-.96-.21-1.45-.07-.56-.14-1.11-.19-1.67-.04-.43-.06-.88-.09-1.31-.05-.69-.12-1.38-.15-2.07-.02-.23.05-.46.07-.7.02-.25.02-.51.04-.76.03-.27.05-.53.09-.78.03-.27.07-.53.11-.79.04-.25.09-.51.13-.75.03-.23.05-.46.09-.69.03,0,.05-.01.07-.01.02.08.07.16.06.24-.05.38-.12.73-.18,1.1-.05.37-.04.75-.13,1.1-.16.59-.15,1.19-.19,1.78-.03.43.01.88.04,1.31.04.7.1,1.39.17,2.09.03.44.07.88.1,1.31.04.4.07.8.12,1.2.07.51.18,1,.25,1.5.06.38.14.39.47.36.05,0,.08,0,.11,0,.24.05.48.09.75.14Zm-.18,4.16v-.67c-.14-.03-.26-.05-.41-.08,0,.28.01.52-.01.76-.04.49-.11.98-.15,1.47-.03.26-.03.51-.06.75s-.12.46-.14.71c-.04.37-.05.76-.07,1.14,0,.09.04.17.02.23-.11.45.07.87.08,1.3.01.21.19.02.28.09.03,0,.12-.04.12-.08.02-.12.01-.24.01-.37,0-.49-.02-.99,0-1.48.03-.74.02-1.48.16-2.2.05-.27.08-.53.12-.8.02-.26.04-.51.05-.77Zm-.15,23.13s.1,0,.15-.01c-.09-.29-.18-.58-.24-.87-.1-.46-.17-.93-.25-1.39-.04-.2-.1-.39-.09-.58.03-.52-.16-1.01-.19-1.52-.01-.22-.06-.43-.08-.64-.05-.35-.07-.72-.09-1.08-.04-.66-.08-1.33-.12-2-.03-.46-.03-.92-.05-1.38,0-.03,0-.05-.01-.08-.02-.15-.05-.3-.06-.45-.02-.41-.02-.82-.04-1.23-.01-.35-.07-.71-.08-1.06-.01-.32.02-.62.05-.89-1.21-.17-2.35-.51-3.47-1.06,0,.2-.02.38,0,.57.02.36.08.72.11,1.07.01.15.01.3.02.45,0,.07.01.13.02.2.01.37.02.73.04,1.1.01.39.04.79.03,1.18,0,.33-.07.65-.12.98-.05.36-.13.72-.2,1.07-.11.62-.2,1.26-.33,1.87-.05.3-.2.59-.23.88-.06.53-.26,1-.44,1.48-.18.5-.42.98-.63,1.47-.27.64-.46,1.32-.98,1.9.1,0,.17,0,.22-.01.1-.02.21-.07.3-.08.3-.03.58-.07.87-.09s.58-.04.87-.03c.2,0,.41.04.61.08.23.03.44.09.67.11.4.04.8.05,1.21.09.15.01.31.04.46.04.37-.02.73-.03,1.09-.09.33-.05.65-.12.98,0Zm.04-33.09q.09-.49-.12-.64c.03.25.05.45.07.64h.05Zm-.73,35.62c.05-.04.09-.09.13-.14-.05-.14-.08-.27-.13-.39-.11-.18-.24-.32-.49-.28-.16.03-.33.01-.49.04-.39.08-.78.14-1.15.26-.24.08-.45.09-.68.03-.12-.04-.21-.06-.26.08-.03.15-.04.28.12.37.29.15.59.25.93.24.29,0,.58.1.87.06.39-.04.81-.01,1.15-.27Z"/>
      <path class="cls-2" d="m69.23,79.09c.08.1.09.22-.02.33-.12.12-.12.29-.3.39-.45.27-.9.4-1.43.26-.55-.14-.89-.51-1.18-.95-.07-.12-.04-.3.08-.43.21-.22.42-.42.75-.47.17-.02.34-.09.51-.14.48,0,.84.23,1.16.54.15.15.3.3.43.47Zm-.25.26s.05-.14.02-.16c-.17-.13-.35-.25-.52-.38.1.39-.15.62-.34.89.35-.03.6-.17.84-.35Zm-.58-.32c0-.12-.01-.26-.15-.29-.21-.05-.43-.08-.65-.11-.36.02-.35.02-.47.28-.09.21-.04.44.08.57s.35.21.54.22c.31,0,.62-.39.65-.67Zm.36.74c-.34.06-.66.22-1,.12-.33-.1-.66-.22-.99-.33.39.46,1.44.65,1.99.21Zm-2.14-1.12c.75-.36,1.46-.25,2.17.11-.69-.8-1.69-.56-2.17-.11Zm.44,0c-.19.1-.37.19-.56.29.11.28.3.39.51.46.02-.24.03-.47.05-.75Z"/>
      <path class="cls-2" d="m68.42,81.91c.13.62.23,1.24-.08,1.84-.12.23-.23.47-.35.7-.02.05-.07.09-.12.11-.04.02-.09,0-.14,0,.02-.04.03-.07.05-.1.2-.38.43-.73.48-1.17.01-.14-.01-.28.03-.42.08-.36-.02-.71-.14-1.03-.13-.32-.3-.64-.62-.83,0-.03,0-.05,0-.07.06-.01.16-.05.18-.03.26.32.63.58.72.99Z"/>
      <path class="cls-2" d="m67.91,78.84c.11.26-.08.38-.14.54-.29-.06-.41-.26-.31-.55l.24.18c.06-.05.13-.1.21-.17Z"/>
      <path class="cls-2" d="m65.15,65.42c-.04.05-.07.11-.11.16-.36.43-.33.73-.1,1.12.02.03,0,.07,0,.1-.03-.01-.08-.02-.1-.05-.23-.24-.21-.54-.18-.84.03-.29.2-.43.48-.49Z"/>
      <path class="cls-2" d="m55.92,53.77c.23.17.29.59.12.74-.04-.24-.08-.49-.12-.74Z"/>
      <path class="cls-2" d="m51.83,58.34c.34-.29.7-.33,1.08-.34.37,0,.73-.14,1.1,0,.36.12.73.2,1.08.3-.02-.03-.07-.1-.12-.16-.22-.26-.52-.37-.84-.45-.47-.11-.94-.14-1.41-.01-.36.1-.7.23-.89.66Zm3.43.08c.05.07.17.17.15.21-.07.14-.09.29-.24.41-.26.21-.55.19-.82.26-.42.11-.85.15-1.27,0-.22-.08-.43-.18-.65-.28-.1-.04-.21-.09-.32-.13-.01.01-.02.03-.03.05.15.26.36.45.69.49.22.03.43.09.64.13.11.02.23.03.33.1-.29-.04-.58-.08-.88-.13-.08-.01-.17-.03-.25-.04-.3-.06-.45-.32-.65-.5-.11-.1-.13-.32-.34-.32,0,0-.07-.24-.02-.31.28-.44.69-.69,1.19-.81.51-.12,1.01-.06,1.48.06.39.11.83.27.96.76,0,.02.02.04.03.05Zm-.12.14c-.21-.23-.98-.51-1.27-.44.16.34.11.67-.06,1.02.48-.11,1.06,0,1.33-.58Zm-1.28.05c.08-.29-.1-.53-.4-.53h-.45c-.17.01-.33.07-.32.28,0,.17,0,.36.09.5.06.11.23.17.37.22.37.16.54.07.67-.31.02-.05.03-.11.04-.16Zm-1.25.27v-.74c-.17.04-.36.06-.54.12-.06.02-.11.12-.15.19-.01.02.04.1.08.12.21.11.42.22.61.31Z"/>
      <path class="cls-2" d="m53.61,53.54c.13.29.14.59.04.92-.18-.08-.04-.19-.05-.28,0-.11,0-.22-.01-.33-.01-.1-.03-.21-.05-.31h.07Z"/>
      <path class="cls-2" d="m53.42,58.38c.2.08.15.24.04.34-.07.06-.27.08-.34.03-.07-.06-.07-.23-.09-.35,0-.01.1-.04.16-.05.08,0,.15.02.23.03Z"/>
      <path class="cls-2" d="m52.88,52.92c.12.15.1.22-.06.38-.02,0-.04-.01-.06-.02.03-.11.07-.22.12-.36Z"/>
      <path class="cls-2" d="m51.95,53.72c0,.17-.02.37-.03.58-.16-.05-.15-.34.03-.58Z"/>
      <path class="cls-2" d="m50.81,53.3c-.07.2-.15.37-.17.54s.02.34.01.52c-.19-.27-.12-.69.16-1.06Z"/>
    </g>
    <path class="cls-2" d="m14.22,111.94c.9,0,1.96.03,2.86.05,11.45.26,24.27-.21,36.78-.12,7.12.05,16.2.09,23.01.33,3.75.13,5.36.49,8.99.54,4.59.08,9.18.11,13.76.08,7.52-.06,14.85.05,22.38.05v1.34c-7.47-.14-14.93-.1-22.36.22-4.61.08-9.2.08-13.8.04-21.69-.13-41.35-.24-62.84-.2-.93,0-7.87,0-8.79.02v-2.33Z"/>
  </g>
</svg>