<?xml version="1.0" encoding="UTF-8"?>
<svg id="Layer_1" data-name="Layer 1" xmlns="http://www.w3.org/2000/svg" viewBox="0 0 136.06 136.06">
  <defs>
    <style>
      .cls-1 {
        fill: #fff;
      }

      .cls-2 {
        fill: #f2d06c;
      }

      .cls-3 {
        fill: #0c3454;
      }

      .cls-4 {
        fill: #a7483f;
      }

      .cls-4, .cls-5 {
        opacity: .8;
      }

      .cls-5 {
        fill: #324a8d;
      }
    </style>
  </defs>
  <path class="cls-3" d="m39.98,79.15c-.05,1.27.16,2.55.1,3.82-.13,2.55-.39,5.1-.28,7.66.05,1.16.04,2.33.09,3.49.06,1.55,0,3.12.37,4.65.01.05,0,.11,0,.17.01,1.48.03,2.95.04,4.43,0,.52-.06.96-.51,1.36-.5.44-.78,1.06-.43,1.75.12.24.32.44.48.67-.01.02-.02.04-.03.06.43.19.84.39,1.3.5.37.01.74.07,1.14.24.07.62.15,1.29.23,1.98-.22.08-.4.15-.58.22-.39.15-.76.68-.75,1.12.01.48.36.67.76.81,1.26.44,2.56.43,3.86.26.28-.04.59-.21.79-.41.58-.57.48-1.08-.22-1.49-.12-.07-.25-.13-.3-.16.1-.8.19-1.54.29-2.34.35-.11.69-.08,1.02.02.03,0,.06-.01.09-.02.19-.13.4-.23.63-.31.04-.01.09-.02.13-.03.34-.29.74-.53.9-.88.18-.4.09-.92.11-1.4,1.61-.16,3.13-.38,4.65-.46,2.04-.11,4.08-.13,6.12-.19,1.39-.04,2.78-.1,4.16-.09,1.08,0,2.16.14,3.23.14,1.98,0,3.97-.1,5.95-.09,1.02,0,2.03.19,3.05.24.82.04,1.64,0,2.46.02.62.01,1.24.06,1.88.1.49.99-.18,1.88-.23,2.83,0,0-.01,0-.02,0,.01.03.02.07.03.1.1.24.24.45.39.66.88.24,1.68.46,2.47.68.21.51.08.88-.38,1.23-.7.53-.67,1.04.04,1.54.68.49,1.4.82,2.28.74.56-.05,1.14.08,1.7.04.61-.04,1.13-.27,1.34-.96.18-.59.07-1.05-.43-1.38-.12-.08-.3-.09-.38-.19-.11-.14-.24-.35-.21-.5.02-.14.22-.31.37-.36.26-.09.56-.09.84-.15.42-.08.89-.09,1.23-.3.17-.1.32-.16.47-.19,0,0,0-.01,0-.01.15-.11.28-.24.4-.37.1-.13.19-.28.27-.43-.09-.22-.11-.48-.01-.85.27-1.06.09-2.12.16-3.18.09-1.44.02-2.89.02-4.34,0-1.19-.04-2.37,0-3.56.05-1.5.17-3,.22-4.5.08-2.23.18-4.47.18-6.7,0-1.41-.18-2.83-.23-4.24-.02-.56.06-1.14.14-1.7.02-.17.19-.39.34-.44.56-.19.55-.7.65-1.12.11-.45.25-1.01.09-1.39-.7-1.64-1.86-2.83-3.67-3.27-.33-.08-.65-.17-1.02-.27,0-.38-.02-.72,0-1.06.03-.65.14-1.31.09-1.96-.16-1.72-.27-3.44-.05-5.16.03-.23.03-.46.02-.68-.08-1.81-.17-3.63-.24-5.44-.01-.39.11-.78.08-1.17-.06-.82-.17-1.64-.25-2.45-.1-1.04-.21-2.08-.27-3.13-.05-.82-.02-1.64-.06-2.46-.04-.72-.39-1.07-1.13-1.27-1.43-.39-2.89-.55-4.36-.69-.7-.07-1.4-.19-2.1-.34-.18-.04-.38-.23-.46-.41-.29-.65-.52-1.32-.79-1.97-.74-1.81-1.41-3.66-2.26-5.41-1.18-2.42-2.5-4.78-3.78-7.14-1.33-2.45-2.96-4.7-4.6-6.95-.12-.16-.25-.31-.39-.44-.29-.27-.6-.31-.9,0-.3.3-.64.57-.9.9-.85,1.1-1.69,2.21-2.5,3.34-2.03,2.81-4.07,5.6-5.84,8.58-1.13,1.9-2.43,3.69-3.34,5.73-.27.62-.59,1.21-.89,1.83-1.22.05-2.39.09-3.58-.04-1.16-.13-2.33-.11-3.5-.12-.62,0-.74.15-.76.76,0,.25.01.51-.03.76-.32,1.87-.67,3.74-.96,5.61-.22,1.4-.41,2.81-.55,4.22-.11,1.04-.11,2.1-.18,3.14-.11,1.59-.22,3.18-.35,4.77-.15,1.79.02,3.57.11,5.36.02.43-.04.85,0,1.28.06.99.07.99-.81,1.41-.13.06-.27.1-.39.17-.79.43-1.61.81-2.16,1.59-.47.67-.74,2.06-.37,2.81.43.87.71,1.74.67,2.75Zm.6,16.07c-.31-3.43-.29-6.85-.1-10.28.09-1.72.09-3.45.11-5.18,0-.5-.08-1-.11-1.37.65-.21,1.19-.38,1.77-.56-.02.43-.05.84-.07,1.26-.06,1.21-.16,2.42-.15,3.63.02,2.92-.26,5.83,0,8.76.16,1.85.02,3.73.02,5.6,0,2.35,0,4.71,0,7.06,0,.14-.01.28-.03.51-.42.02-.76.03-1.14.05-.03-1.07-.05-2.08-.08-3.1-.06-2.12,0-4.26-.2-6.37Zm4.16-3.37c-.02,1.67-.07,3.34-.06,5.01,0,2.2.06,4.4.08,6.6,0,.45-.04.89-.07,1.38-.47-.03-.92-.05-1.47-.08-.04-.67-.1-1.34-.11-2.01,0-1.05-.02-2.1.07-3.14.17-2.15-.16-4.3-.1-6.45.05-2.04-.21-4.08-.23-6.12-.02-2.13.09-4.26.13-6.39.01-.62-.02-1.24-.03-1.87,0-.28.03-.56.05-.94.66.22,1.16.5,1.77.19.32.67.23,1.4.23,2.08,0,1.44-.14,2.88-.17,4.33-.05,2.47-.06,4.94-.09,7.41Zm2.31,3.78c-.05,1.5-.19,3-.32,4.49-.14,1.51-.43,3.02-.1,4.54.02.08,0,.17,0,.25-.01.08-.04.16-.07.3-.21-.01-.43,0-.64-.04-.22-.03-.44-.09-.72-.15-.05-.99-.13-1.98-.14-2.96,0-1.45.04-2.9.06-4.35.02-2.29.01-4.58.04-6.87.01-1.33.06-2.66.09-3.99.02-1.3.04-2.6.06-3.91.02-1.44.05-2.88.07-4.39,1.07.44,1.31.36,2.15-.72.06.25.15.44.15.64-.02,1.96-.02,3.92-.09,5.88-.03.82-.23,1.63-.28,2.45-.12,1.67-.22,3.34-.27,5.01-.03,1.27.08,2.55.04,3.82Zm-.63,15.41c.22.24,0,.48-.18.66-.12.11-.28.21-.44.23-1.24.14-2.48.15-3.69-.23-.18-.06-.34-.19-.53-.31.04-.66.32-.97.92-.91.06.03.12.05.15.09.22.34.26.87.79.9.58.03,1.18.07,1.68-.36.19-.16.43-.32.66-.34.21-.01.49.11.64.27Zm-3.68-3.09c1.11,0,2.06-.01,3.01-.02.46,1.15-.09,2.02-.77,2.78-.37.41-.99.42-1.52.24-.42-.14-.47-.6-.54-.99-.07-.36-.12-.72-.16-1.08-.03-.3-.02-.6-.03-.94Zm4.24-.63c-1.49.03-2.98-.09-4.47-.13-.49-.01-.89-.3-1.38-.35-.66-.07-1-.64-1.01-1.41,2.96-.29,5.77.18,8.66.9-.49.71-1.15.98-1.8.99Zm.31-10.71c.07-2.91.1-5.83.21-8.74.05-1.27.31-2.53.39-3.81.09-1.55.1-3.1.13-4.65,0-.61-.05-1.23-.07-1.9.38.19.7.35,1.14.57.09,1.65.19,3.34.27,5.03.03.71.04,1.42.02,2.13-.03,1.13-.09,2.26-.15,3.39-.06,1.26-.13,2.52-.21,3.78-.2,3.29-.4,6.58-.6,9.87-.06.99-.11,1.97-.17,3.05-.39-.02-.72-.04-1.15-.06-.07-.48-.15-.95-.21-1.41-.19-1.29.12-2.53.28-3.79.15-1.14.09-2.3.12-3.45Zm33.33,7.93c-1.98-.03-3.97.04-5.95-.22-1.06-.14-2.15-.02-3.23-.02-1.62,0-3.23.01-4.85,0-2.16,0-4.32,0-6.47-.02-.54,0-1.08-.09-1.62-.05-2.77.17-5.56.09-8.32.55-.29.05-.61-.02-.99-.05.05-.48.09-.92.15-1.48.73.03,1.43.09,2.13.09,1.21,0,2.43-.05,3.64-.09,1.73-.06,3.45-.2,5.17.15.76.15,1.59.1,2.37-.01,1.97-.29,3.93-.41,5.92-.4,1.86,0,3.73-.29,5.59-.41,1.1-.07,2.21-.06,3.32-.05.79,0,1.59.07,2.38.13.33.02.65.11,1.01.17,0,.59,0,1.09,0,1.6-.11.04-.18.1-.26.1Zm-30.39-36.93c.06,1.05.1,2.1.14,3.14.02.39,0,.78.01,1.27-.83-.26-1.59-.46-2.33-.73-.38-.14-.36-.56-.36-.89,0-.71,0-1.42.05-2.13.07-.93.23-1.86.29-2.79.06-.88.02-1.76.05-2.63.04-1.28.1-2.56.17-3.84.06-1.07.12-2.14.23-3.2.11-1.01.3-2.02.43-3.03.06-.5.06-1.02.09-1.53.02-.33.06-.66.11-1.11.68.04,1.29.08,1.9.1,1.84.08,3.69.15,5.53.21,1.1.04,2.21.1,3.31.09,2.58-.01,5.17-.09,7.75-.08,1.96.01,3.93.03,5.87.23,1.66.17,3.29.59,4.92.95,1.08.24,2.13.56,3.2.87.6.18.8.48.78,1.06-.04,1.07-.11,2.15-.09,3.22.03,1.39.13,2.78.22,4.16.09,1.42.26,2.83.28,4.24.02,1.3-.09,2.61-.17,3.92-.07,1.07-.2,2.14-.29,3.2-.91.27-1.73.51-2.6.77.03-.59.04-1.1.09-1.6.1-1.02.24-2.03.32-3.05.2-2.37.41-4.74.55-7.12.06-1.1-.03-2.21-.05-3.32-.01-.54-.04-1.08-.07-1.62-.03-.59-.04-1.19-.09-1.78-.03-.46-.28-.71-.72-.93-1.13-.55-2.35-.65-3.55-.85-1.65-.28-3.3-.55-4.96-.77-1.06-.14-2.13-.15-3.19-.24-.68-.06-1.35-.21-2.02-.21-1.22,0-2.44.06-3.65.1-.14,0-.28,0-.43,0-2.13-.02-4.26-.07-6.39-.05-1.52.01-3.05.12-4.75.19-.06.9-.1,1.74-.17,2.58-.12,1.53-.27,3.06-.4,4.58-.12,1.41-.31,2.82-.31,4.24,0,1.44.19,2.89.28,4.33Zm-2.82-3.8c.06,2.4-.11,4.81-.18,7.28-.72-.04-1.31-.07-2-.11,0-.31,0-.61.01-.91.15-2.53.33-5.06.46-7.59.16-2.98.27-5.97.44-8.95.07-1.16.18-2.32.37-3.47.14-.83.45-1.63.65-2.46.1-.4.29-.56.71-.55.45,0,.9-.09,1.35-.12.9-.07,1.81-.11,2.71-.18.42-.03.85-.08,1.26-.18,1.25-.31,2.47-.19,3.72.01.98.16,1.98.17,2.97.28,2.79.3,5.6.53,8.37.97,1.61.25,3.23.25,4.83.46,1.06.14,2.11.42,3.16.66,1.44.33,2.87.67,4.3,1.05.87.23,1.73.52,2.59.8.61.2.9.64.93,1.28.08,1.64.15,3.29.27,4.93.07,1.02.22,2.02.32,3.04.37,3.79.72,7.58.41,11.39-.02.25,0,.51.01.84-.72.21-1.48.19-2.31.19.14-1.59.23-3.06.41-4.52.21-1.79.21-3.57.15-5.36-.05-1.44-.04-2.89-.1-4.33-.03-.65-.17-1.29-.26-1.94-.17-1.21-.22-2.43-.11-3.65.01-.16-.01-.33-.02-.48-2.36-.55-4.66-1.1-6.98-1.63-1.78-.41-3.58-.55-5.41-.5-.59.02-1.18-.14-1.77-.16-2.16-.09-4.31-.14-6.47-.23-2.56-.11-5.1.25-7.65.28-1.74.02-3.44-.16-5.14-.51-.16-.03-.32-.05-.61-.1-.32,2.42-.63,4.8-.93,7.18-.31,2.42-.55,4.84-.49,7.3Zm21.28,16.1c-1.25-.92-1.77-3.09-1.13-4.51.3-.67.88-.92,1.43-1.27.37-.23.72-.48,1.15-.76.53.61,1.25,1.18,2.16,1.49.13.04.23.16.35.24,1.17.8,1.27,1.47.39,2.88-.25.4-.64.72-.97,1.07-1.1,1.2-1.29,2.84-.48,4.22.04.07.07.15.12.25-.2.04-.39.11-.57.11-.39,0-.79-.04-1.26-.06,0-.1,0-.24.02-.36.35-1.49.01-2.44-1.2-3.32Zm-6.62-1.5c-.67-.48-1.43-.96-1.62-1.89-.13-.66-.04-1.22.54-1.65.43-.32.84-.67,1.27-.98.47-.34.71-.77.72-1.37.02-1.11-.16-2.08-1.27-2.65-.48-.25-.95-.54-1.35-.88-.26-.22-.53-.57-.57-.9-.13-1.02.08-1.99.87-2.74.29-.27.61-.51.91-.77.24-.21.49-.4.68-.64.54-.68.47-1.13-.23-1.64-.42-.3-.83-.6-1.28-.85-.43-.24-.5-.58-.41-1.01.16-.79.55-1.45,1.23-1.87.61-.37,1.08-.84,1.02-1.54-.06-.74-.62-1.16-1.31-1.42-1.17-.45-1.55-1.24-1.35-2.51.07-.41.29-.59.69-.6,1.19-.04,2.38-.1,3.57-.13.6-.01,1.22.82,1,1.37-.08.2-.34.36-.56.45-.64.26-1.23.57-1.69,1.1-.47.55-.47.98.12,1.43.31.24.67.42,1.02.59.71.33.9.74.86,1.55-.04.63-.24,1.03-.82,1.34-.78.42-1.04,1.24-1.27,2.04-.03.11-.05.24-.02.34.4,1.11.66,2.34,1.84,2.95.69.36.94.98,1.06,1.66.12.65-.3,1.12-.7,1.57-.3.34-.65.64-.93.99-.43.55-.66,1.18-.5,1.9.11.5.19,1,.33,1.49.16.56.49,1,.95,1.38.39.32.72.72,1.06,1.1.43.51.45,1.12.21,1.69-.25.6-.61,1.15-.92,1.72-.27.49-.6.96-.8,1.48-.46,1.16-.07,2.22.59,3.35-.66-.04-1.22-.07-1.84-.1.12-.31.22-.59.33-.87.63-1.57.43-3.18-1.42-4.5Zm-5.41.3c-.24-.15-.47-.34-.73-.41-.74-.22-1.09-.8-1.31-1.46-.27-.81-.53-1.63-.2-2.49.08-.2.21-.4.37-.55.46-.44.71-.94.68-1.59-.05-1.08-.08-2.13-1.01-2.95-.69-.6-.7-1.91.07-2.51.18-.14.36-.29.48-.48.24-.38.55-.76.62-1.18.22-1.25.1-2.45-.96-3.35-.34-.29-.41-.65-.29-1.08.27-.96.61-1.87,1.3-2.64.36-.41.6-.94.84-1.34.53.45,1.05.98,1.65,1.37.56.36.7.82.7,1.43,0,.66-.38,1.03-.91,1.2-.87.27-1.45.86-1.94,1.58-.13.18-.17.46-.16.69.06,1.28.73,2.17,1.81,2.81.63.38,1.07.9.88,1.68-.1.39-.34.77-.59,1.09-.26.33-.63.58-.94.87-.71.66-1.1,1.5-1.27,2.44-.18,1,.45,1.67,1.09,2.27.47.45,1.02.82,1.56,1.19.42.29.6.64.58,1.15-.02.64-.17,1.25-.54,1.77-.53.74-.68,1.57-.56,2.43.14,1.03.36,2.05.56,3.19-1.06.06-2.19-.19-3.5-.13.19-.4.27-.74.47-.97.51-.57,1.07-1.08,1.61-1.63.13-.14.27-.3.33-.47.34-.85.14-1.41-.69-1.94Zm-.25-22.92c-.45-.65-.85-1.25-1.62-1.59-.57-.25-.66-.94-.51-1.64,1.16-.24,2.25-.03,3.35.02.44.02,1,.88,1.01,1.43,0,.39-.31.79-.89.86-.62.08-1.06.34-1.34.92Zm1.83,25.51c-.07-1.12-.09-2.21.65-3.18.2-.26.31-.61.37-.94.26-1.27.06-1.71-1.02-2.43-.4-.27-.78-.56-1.17-.86-.46-.35-.69-.86-.72-1.4-.07-1.21.21-2.31,1.25-3.09.3-.22.56-.48.86-.7.35-.26.44-.62.51-1.03.16-.94-.17-1.64-.87-2.26-.54-.48-1.04-1.05-1.46-1.64-.45-.64-.32-1.42.3-1.89.42-.32.93-.55,1.43-.71.53-.17.74-.44.85-1,.17-.89.2-1.7-.48-2.37-.32-.31-.73-.53-1.08-.81-.23-.19-.5-.4-.62-.66-.22-.46-.04-.75.45-.9.24-.07.5-.12.73-.22.93-.39,1.15-.98.71-1.9-.09-.2-.22-.38-.38-.66.43.02.75.04,1.05.06,0,.51,0,1.01.03,1.51.06.84.6,1.32,1.31,1.64.1.05.22.06.32.1.49.21.93.52.97,1.08.03.51-.27.89-.72,1.17-.89.55-1.42,1.37-1.56,2.42-.06.43.04.77.43,1.02.46.29.86.65,1.34.91.77.41.57.87.03,1.41-.34.34-.74.62-1.11.92-.88.72-1.23,1.66-1.25,2.77-.01.79.31,1.36.95,1.79.52.35,1.06.67,1.56,1.04.61.44.95,1.54.67,2.22-.1.24-.34.45-.55.62-.35.28-.75.5-1.1.78-1.56,1.24-1.6,2.63-.45,4.06.49.61,1.17,1.07,1.82,1.53.42.3.71.65.81,1.14.17.81.03,1.59-.32,2.32-.21.44-.53.77-1.14.71-.7-.07-1.42.01-2.13-.04-.21-.01-.47-.2-.59-.38-.44-.65-.62-1.38-.67-2.16Zm8.14-26.32c.49.29.97.59,1.45.89.2.13.39.27.72.49-.58.36-1,.7-1.48.9-1.28.55-1.65,1.71-1.61,2.91.02.88.74,1.3,1.28,1.82.16.15.36.29.56.38.71.29.8.92.81,1.55,0,.24-.17.55-.36.73-.33.31-.77.5-1.08.82-.28.29-.46.69-.72,1.09-.37-.7-.84-1.18-1.47-1.55-.32-.18-.53-.58-.74-.91-.15-.24-.21-.52-.32-.79-.4-.99-.1-2.24.84-2.75.97-.53,1.02-1.35.98-2.25-.03-.54-.29-.96-.83-1.2-.36-.16-.72-.35-1.04-.58-.55-.39-.58-.6-.09-1.08.34-.33.74-.68,1.17-.82,1.19-.37,1.35-.89.72-2.15-.01-.02,0-.05,0-.18.3-.01.62-.02.98-.03-.12.55-.23,1.01-.33,1.47-.12.54.05.94.53,1.23Zm4.76-2.18c.92.05,1.81.08,2.7.17.16.02.34.27.42.45.28.61,0,1.2-.24,1.72-.3.66-.74,1.27-1.14,1.88-.57.86-.81,1.78-.32,2.71.3.56.74,1.06,1.19,1.52.56.57,1.12,1.07,1.25,1.96.11.76,0,1.33-.62,1.81-.69.53-1.01,1.24-1.12,2.12-.12.93.31,1.52.98,2.03.36.27.76.5,1.14.75,1.36.91,1.71,2.48.8,3.95-.28.45-.66.83-1.01,1.24-.35.41-.72.8-1.13,1.26-.41-.98-1.08-1.57-1.96-1.99-1.98-.93-2.2-1.92-1.57-3.78.16-.46.66-.86,1.09-1.14.65-.42,1.03-.95,1.19-1.69.18-.85,0-1.56-1-1.98-.6-.25-1.16-.58-1.73-.89-.99-.55-1.2-1.83-.27-2.84.34-.37.78-.67,1.2-.95,1.09-.72,1.27-2.07.35-2.98-.3-.29-.68-.51-1.03-.74-.54-.34-.85-.78-.87-1.45-.02-.53.16-.94.6-1.12.92-.38,1.2-1.06,1.11-2.02Zm-1.03,1.55c-1.42.84-1.4,2.53.03,3.39.29.17.61.32.86.54.89.77.76,1.92-.24,2.54-.63.39-1.19.86-1.6,1.5-.59.91-.25,2.27.56,2.81.54.36,1.12.67,1.71.93,1.29.58,1.5,1.7.48,2.7-.1.1-.21.2-.33.27-.86.47-1.5,1.12-1.63,2.28-.2-.24-.31-.38-.43-.51-.59-.65-1.18-1.29-1.77-1.94-.19-.21-.4-.4-.59-.62-.78-.88-.63-2.02.41-2.58,1.36-.73,1.35-1.35.98-2.85-.08-.31-.43-.58-.7-.81-.34-.29-.77-.49-1.09-.8-.77-.74-.84-1.63-.42-2.56.12-.26.38-.47.62-.65.32-.23.67-.42,1.03-.6.61-.3.91-.74.73-1.44-.64-.36-1.29-.71-1.92-1.09-.65-.39-.77-.71-.58-1.42.09-.35.23-.69.36-1.06.73.04,1.44.06,2.14.12.6.05,1.2.16,1.87.25.34.71.23,1.18-.48,1.6Zm-1.48,19.21c-1.08.62-1.73,1.52-1.92,2.8-.34-.89-.97-1.51-1.65-2.12-1.57-1.41-1.55-3.59-.03-5.01.21-.19.41-.4.58-.62.15-.2.26-.43.4-.66.91.97,1.82,1.92,2.71,2.88.21.23.39.49.52.77.41.85.21,1.5-.6,1.97Zm-3.84,9.29c-.14-.28-.1-.66-.14-.99l.03.03c-.02-.3-.11-.61-.04-.88.13-.46.29-.95.58-1.31.57-.73.97-1.53,1.32-2.37.03-.07.1-.12.19-.21.07,1.38.67,2.37,1.76,3.14,1.05.74,1.54,1.73,1.01,3.03-.05.12-.05.27-.08.45-1.2.2-2.38.3-3.57.22-.62-.04-.83-.65-1.06-1.11Zm6.62-1.38c.09-.9.39-1.69,1.07-2.34.5-.48.92-1.05,1.45-1.67.07.99.57,1.64,1.26,2.2.92.75,1.25,2.25.81,3.34-.13.31-.33.43-.64.45-.93.05-1.87.11-2.8.15-.12,0-.28-.06-.37-.15-.58-.53-.85-1.2-.78-1.98Zm4.81-1.3c-.48-.47-.94-.91-1.4-1.36-.46-.45-.56-1.04-.6-1.64-.02-.24.06-.54.2-.72.36-.47.75-.93,1.19-1.33.74-.67,1.19-1.47,1.35-2.47.22-1.36-.4-2.29-1.42-3.04-.39-.29-.81-.53-1.2-.81-1.18-.87-1.01-2.67.29-3.4.43-.24.85-.53,1.09-1.02.56-1.15-.2-1.93-.76-2.76-.18-.27-.5-.45-.75-.68-.27-.25-.52-.51-.78-.76.05-.08.09-.16.14-.24.21.03.43.04.64.08,1.13.22,2.25.31,3.35-.15.24-.1.45-.29.69-.45-1.63-1.47-3.03-1.75-5.24-.45-.05-.67.03-1.25.57-1.69.02-.02.04-.04.06-.06,1.23-1.07,1.57-2.44,1.34-4.11.44.06.84.11,1.11.14.36.82.62,1.56,1,2.24.18.32.54.59.87.76,1.14.58,1.76,1.57,2.25,2.68.17.38-.02.63-.3.89-.78.69-1.5,1.44-2.56,1.77-1.05.33-1.11,2.14-.52,2.72.36.35.78.65,1.21.91,1.14.69,1.82,1.62,1.7,3-.02.21-.08.46-.21.62-.37.46-.76.92-1.19,1.33-1.22,1.14-1.38,2.54-.43,3.89.06.09.13.18.22.3-.4.93-.87,1.83-1.18,2.79-.31.95-.47,1.96-.71,3.02Zm-2.74-21c.58-.27.97-.45,1.5-.7-.12.47-.19.78-.28,1.16-.38-.14-.7-.27-1.22-.47Zm1.97-.51c.08-.03.33.14.35.25.07.35.06.7-.54.71-.04-.09-.09-.17-.1-.24-.05-.29-.04-.59.29-.71Zm.62,1.28c.06-.5.09-.77.12-1.06.54-.1.9.16,1.38.51-.51.19-.93.34-1.5.55Zm.88-6.46c.97,0,1.84.24,2.66.62.17.08.36.3.4.48.25,1.04.24,2.1.15,3.25-.24-.25-.44-.41-.57-.61-.38-.6-.91-.98-1.54-1.28-.84-.4-1.32-1.49-1.1-2.46Zm1.14,17.37c.47-.52.97-1.01,1.46-1.51.05.01.11.03.16.04-.13.99-.25,1.99-.38,2.98-.01.11-.07.22-.08.33q-.11.83-.84,1.25c-.87-.68-1.05-2.28-.32-3.09Zm-.25-6.1c-.84-.43-1.14-1.09-1.04-1.96.05-.44.27-.83.64-.93,1.13-.31,1.9-1.08,2.7-1.84.02-.02.05-.02.14-.04-.12,2.17-.23,4.29-.35,6.4-.62-.74-1.3-1.24-2.09-1.64Zm-26.74-6.08c.07-1.24.09-2.49.18-3.73.05-.68.19-1.34.3-2.1.45-.06.89-.11,1.37-.18.22.8.2,1.45-.47,2.01-.56.46-.9,1.09-1.14,1.77-.28.78-.1,1.44.59,1.93.88.63,1.34,1.44,1.23,2.54-.04.36-.19.61-.45.88-.41.42-.79.88-1.09,1.39-.43.74-.54,1.55-.1,2.36.24.45.51.88.76,1.32.49.89.72,1.85.18,2.75-.53.88-1.09,1.71-1.11,2.79-.52-1.09-.46-2.24-.56-3.35-.3-3.47.11-6.92.3-10.38Zm.89,12.57c.14-.4.33-.81.6-1.12.69-.75.63-1.61.42-2.48-.1-.43-.37-.82-.58-1.22-.09-.18-.2-.35-.3-.52-.88-1.43-.47-2.66.62-3.65.78-.71,1.05-1.43.71-2.4-.08-.24-.09-.5-.13-.77-.52-.43-1.03-.8-1.48-1.23-.4-.39-.34-.93-.15-1.36.25-.56.55-1.17,1-1.55.52-.45.69-.93.71-1.55,0-.22.02-.45.04-.7.26-.05.48-.08.46.27-.06.88.37,1.39,1.13,1.81.41.23.71.71.97,1.14.23.38.18.83-.1,1.2-.35.48-.7.97-1.07,1.43-.59.75-.69,1.66-.86,2.55-.07.36.13.63.4.88.44.4.77.89.91,1.5.21.94.08,1.73-.72,2.35-.24.19-.5.4-.67.65-.49.72-.65,1.51-.25,2.34.28.59.56,1.18.92,1.72.39.58.43,1.15.19,1.78-.14.37-.29.74-.46,1.09-.81,1.64-.44,3.14.52,4.57.13.2.38.33.59.47.4.27.82.51,1.21.79.66.48.67,1.16.06,1.69-.36.32-.71.65-1.05,1-.26.26-.52.53-.72.84-.19.3-.31.65-.45.97-.49.01-.44-.29-.44-.58-.01-.99.05-1.98-.08-2.95-.22-1.54-.41-3.08-.9-4.58-.27-.81-.54-1.6-.96-2.34-.39-.67-.33-1.37-.08-2.06Zm2,12.88c1.6.05,3.39.12,5.17.14,1.33.02,2.66-.06,4-.04,1.24.02,2.49.14,3.73.16.99.02,1.98-.03,2.97-.09,1.55-.09,3.11-.22,4.66-.33.28-.02.58,0,.85-.07.64-.19,1.06.11,1.38.58.53.77,1.03,1.57,1.51,2.37.44.72.84,1.46,1.33,2.31-.33-.02-.51-.02-.69-.04-1.75-.2-3.49-.48-5.24-.59-2.39-.15-4.8-.19-7.2-.23-1.59-.03-3.18.02-4.76,0-.59,0-1.18-.14-1.78-.19-2.25-.21-4.48-.1-6.71.21-.89.12-1.8.09-2.91.15,1.25-1.54,2.15-3.08,3.69-4.34Zm7.43,10.86c-1.16.05-1.4.92-1.78,1.85-.88-.98-2.03-1.11-3.15-1.52.24-1.35.71-2.78-.7-3.95,1.31-.19,2.48-.38,3.66-.07.26.07.56,0,.84,0,.86,0,1.73.01,2.68.02-.4.54-.69.98-1.03,1.38-.56.66-.88,1.38-.53,2.31Zm-5.11-1.34c-.04.5-.21.99-.32,1.49-.04.16-.08.31-.12.45.8.21,1.56.4,2.31.61.58.16,1.01.49,1.15,1.1.15.66-.13,1.15-.65,1.54-.88.68-1.53.84-2.62.54-.1.29-.22.6-.32.91-.08.24-.11.5-.19.74-.23.66-.61.97-1.15.96-.53-.01-1.05-.42-1.23-1.02-.13-.46-.21-.93-.32-1.42-.96.16-1.77-.13-2.47-.71-.88-.73-.78-1.76.25-2.26.52-.25,1.13-.34,1.7-.47.27-.06.56-.04.8-.06.09-.94.17-1.83.27-2.72.07-.63.49-1.08.92-1.49.38-.36.7-.34,1.16-.05.68.43.88,1.11.83,1.85Zm-.28,7.61c.16-.41.19-.87.27-1.32,1.57-.05,2.84-.52,3.47-2.11.39.99,1.16,1.35,2.25,1.31.16,1.11-.24,2.29.64,3.4-2.55,0-4.91.01-7.41.02.31-.5.61-.87.78-1.29Zm6.49-1.22c-.02-.48.04-.96.07-1.55-1.15.17-2.27.2-2.45-1.16-.17-1.29.76-1.81,1.93-1.99-.31-1.37.29-2.82,1.34-3.45.89-.54,2.33.24,2.35,1.28,0,.34-.04.68-.11,1.01-.07.3-.2.58-.35.99.42.04.8.08,1.18.11,1.12.08,2.09.53,2.91,1.26.86.77.78,1.61-.27,2.08-.87.39-1.81.66-2.8.45-.22-.04-.45-.03-.69-.04-.1.64-.18,1.28-.29,1.91-.1.6-.47,1.03-.99,1.31-.64.35-1.43.07-1.63-.64-.14-.51-.17-1.06-.19-1.59Zm9.46-5.87c.01.38-.18.58-.5.7-.73.27-1.25.76-1.6,1.57-1.19-.91-2.45-1.57-4.09-1.47.53-1.37.76-2.63-.67-3.54,2.59,0,5.12,0,7.77,0-.69.83-.94,1.75-.91,2.74Zm-5.99,5.35c1.64-.2,3.39.03,4.41-1.73.55.88,1.56.84,2.46,1.16.1,1.17.2,2.27,1.24,2.98-.09.06-.14.12-.18.11-1.62-.13-3.21.25-4.81.32-.48.02-.96.03-1.44.04-.81,0-1.62,0-2.61,0,.85-.88.82-1.9.94-2.88Zm8.09,1.38c-.64-.58-.63-1.35-.65-2.12,0-.17.02-.34.03-.61-.24-.05-.47-.1-.71-.13-.34-.04-.68-.03-1.01-.1-1.04-.22-1.27-.91-.56-2.01.09.31.19.52.2.74.05.82.06.85.88.87.48.01.96,0,1.53-.02.07.85.14,1.66.21,2.47.55.39,1.16.13,1.75.24.05-.99.1-1.9.15-2.81.7-.12,1.44-.26,2.27-.41-.09-.55-.17-1.02-.26-1.56-.72-.04-1.42-.08-2.19-.12-.07-.6-.16-1.12-.2-1.65-.03-.34.02-.68,0-1.02-.04-.63-.32-.85-.94-.79-.22.02-.44.07-.77.12,0,1.12,0,2.24,0,3.39-.78.14-1.47.27-2.16.39-.01-.06-.03-.11-.04-.17.37-.09.73-.18,1.18-.29-.44-.92-.27-1.83.01-2.72.4-1.26,1.94-1.69,2.95-.82.11.09.2.21.3.3,1,.87,1.05.97,1.14,2.6.25.01.52.05.79.04.63-.02,1.17.18,1.66.56.59.46.78,1.37.18,2-.82.87-1.76,1.27-3,1.2-.05.54-.08,1.07-.16,1.59-.09.63-.21,1.28-.93,1.5-.7.21-1.18-.25-1.65-.67Zm.4-5.69c-.08-.87-.14-1.74-.22-2.67.27-.02.45-.03.69-.05.13,1.11.26,2.19.39,3.29.78.04,1.46.08,2.11.11.26.7.26.73-.32.85-.36.07-.73.08-1.09.11-.22.02-.43.03-.67.05.04.68.11,1.3.1,1.91,0,.63-.04.63-.76.67-.16-.83-.31-1.66-.48-2.57-.71.03-1.4.07-2.13.1-.14-.56-.01-.84.47-.9.45-.05.9-.13,1.34-.19.52-.07.61-.2.56-.71Zm2.75,3.82c1.18-.16,2.21-.7,3.17-1.69.15,1.62.28,3.07.42,4.62-1.51.19-2.91-.1-4.55-.11.84-.89.68-1.89.97-2.83Zm3.02-3.68c-.72-.85-1.67-1.03-2.68-1.04-.01-1.23-.56-2.06-1.57-2.82,1.58-.04,2.97-.07,4.46-.1-.07,1.36-.14,2.61-.22,3.96Zm-7.13-4.78c-1.61.02-3.21.26-4.82.33-.82.04-1.66,0-2.46-.15-1.27-.24-2.54-.15-3.82-.15-1.44,0-2.88-.1-4.32-.07-1.52.02-3.04.12-4.55.21-.96.06-1.91.21-2.94-.03.03-.6.06-1.18.1-1.83.34-.02.64-.05.94-.07.51-.02,1.03.02,1.53-.04,1.65-.22,3.26.15,4.88.25.86.05,1.71.2,2.58.13.95-.08,1.91,0,2.87-.01.96-.02,1.91.05,2.88-.1,1.05-.16,2.15.05,3.23.08,1.24.04,2.49.05,3.73.11,1.15.05,2.31.14,3.46.22,1.04.07,2.09.18,3.13.24.81.05.84.05.84.97-2.45-.04-4.86-.13-7.26-.09Zm-22.96.72c1.27-.06,2.56-.11,3.92-.17-1.17,1.28-1.39,2.81-1.49,4.42-1.07.08-2.05.31-2.95,1.15.18-1.88.35-3.62.52-5.39Zm-.58,7.64c.78.61,1.6,1.19,2.7,1.25.12.89.45,1.68,1.26,2.22-1.37.2-2.71.46-4.15.11.06-1.19.13-2.36.2-3.59Zm31.78-4.31c.05-2.18.12-4.35.21-6.53.07-1.79.2-3.57.28-5.35.04-.99.03-1.98.04-2.97,0-.47.08-.87.63-1.08.35-.14.64-.45,1.06-.76.03.78.12,1.49.09,2.2-.09,1.7-.27,3.39-.36,5.09-.05.96-.06,1.93.02,2.89.14,1.74-.05,3.46-.25,5.18-.08.67.03,1.35.05,2.03,0,.17.04.34.03.51-.04,1.87-.1,3.75-.13,5.62-.02,1.36,0,2.72,0,4.08,0,.17-.02.33-.03.56-.34.04-.59.06-.94.1-.08-.87-.14-1.71-.22-2.54-.17-1.66-.4-3.31-.5-4.97-.08-1.35-.03-2.71,0-4.07Zm4.58,5.04c-.07,2.17-.06,4.35-.08,6.59-.8-.04-1.52-.08-2.36-.13-.04-.82-.11-1.66-.13-2.49-.02-.59,0-1.18.02-1.78.02-1.47.05-2.94.07-4.41.01-1.05-.03-2.1.02-3.15.05-1.27.2-2.54.25-3.82.04-1.16-.02-2.32.02-3.49.04-1.36.16-2.72.21-4.09.05-1.27.05-2.55.08-3.83,0-.14.03-.27.05-.48.88.07,1.41,1.24,2.44.38.06,1,.13,1.87.16,2.74.11,3.35-.11,6.69-.35,10.03-.19,2.63-.29,5.28-.37,7.92Zm1.47,11.28c.15.22.38.42.4.63.03.36-.29.57-.61.6-1.13.09-2.26.12-3.36-.25-.47-.16-.52-.44-.22-1.07,1.04.99,2.67,1.01,3.78.09Zm-3.11-1.45c.74.04,1.48.08,2.28.12-.1,1.11-.55,1.45-1.56,1.28-.74-.13-.92-.47-.72-1.4Zm4.99-1.29c-1.7.31-3.39.66-5.14.37-.7-.12-1.41-.14-2.1-.25-.21-.03-.43-.16-.59-.31-.32-.3-.27-.57.13-.81.33-.2.66-.29,1.09-.26,1.18.09,2.36.25,3.56.1.95-.12,1.92-.03,2.88,0,.32.01.64.15.94.22.03.64-.33.85-.77.93Zm-.22-13c-.08,2.78-.2,5.56-.27,8.34-.02.65.1,1.3.15,1.95.02.28.02.56.04.95-.78-.04-1.42-.08-2.17-.12-.05-.46-.13-.92-.13-1.39,0-.74.05-1.47.06-2.21.02-1.25,0-2.5.03-3.74.01-.73.12-1.47.11-2.2-.03-2.83.4-5.63.47-8.45.05-2.15.14-4.3.16-6.44,0-.82-.12-1.64-.17-2.46-.01-.19.02-.39.03-.69.66.37,1.21.02,1.85-.22.29.81.26,1.62.26,2.42.01,1.73.02,3.46-.02,5.18-.03,1.11-.15,2.21-.23,3.31-.04.48-.1.96-.11,1.44-.03,1.44-.03,2.88-.07,4.33Zm1.5,3.11c-.12,2.07.09,4.14-.26,6.2-.11.65.03,1.35.06,2.1-.27-.04-.51-.08-.75-.12-.45-1.11-.45-2.26-.43-3.38.04-1.96.2-3.92.25-5.88.05-1.96,0-3.92.04-5.88.02-.79.2-1.58.21-2.37.05-2.32.07-4.65.07-6.98,0-1.33-.07-2.66-.11-3.99,0-.14.01-.28.03-.56.4.53.7.93.98,1.31.07,1.17.17,2.33.19,3.5.03,1.56.02,3.11,0,4.67,0,1.24,0,2.49-.07,3.73-.06,1.22-.25,2.43-.31,3.65-.05,1.05,0,2.1.01,3.15,0,.28.06.57.05.85Zm.93-20.38c-.11.15-.36.2-.59.33-.54-.75-.16-1.99-1.5-1.99-.23.51-.49,1.04-.7,1.58-.12.31-.29.5-.61.48-.37-.03-.41-.34-.46-.62-.1-.47-.19-.95-.29-1.45-.11.11-.2.27-.3.28-.79.06-.85.11-.81.85.02.33.03.67,0,1-.01.12-.14.23-.23.37-1.38-.36-1.79-1.38-1.83-2.65-.61,0-.93.25-1.12.71-.07.18-.14.37-.21.55-.26.59-.52.75-1.11.68-.63-.08-.83-.25-.9-.91-.09-.9-.05-1.94,1.1-2.18,1.81-1.15,3.75-.81,5.69-.5.36.06.72.16,1.08.2.81.08,1.55.34,2.23.78.71.46,1.04,1.81.55,2.5Zm-1.91-4.28c.23.07.42.22.64.34-1.18-.22-2.27-.34-3.38-.32-.51,0-1.02-.13-1.53-.11-.76.02-1.53.07-2.28.21-.6.12-1.18.38-1.75.61-.18.07-.36.22-.45.38-.49.84-.93,1.7-.89,2.71,0,.21.06.5.2.62.64.53.61,1.27.61,1.95,0,2.01-.04,4.02-.12,6.03-.03.84-.21,1.68-.33,2.61-.36-.26-.55-.59-.72-.93-.6-1.24-1.39-2.34-2.34-3.33-.29-.3-.44-.64-.41-1.07.07-1.35.02-2.72.19-4.06.19-1.62.89-3.08,1.73-4.56.1.22.17.36.28.61.22-.4.5-.71.56-1.06.08-.44.32-.62.67-.78.73-.34,1.48-.55,2.3-.53.71.01,1.42-.03,2.12-.1,1.71-.17,3.31.31,4.92.79Zm-45.8-13.11c.06-.95.08-1.91.15-2.86.07-.99.11-1.99.27-2.96.25-1.53.59-3.05.9-4.58.07-.36.2-.71.27-1.07.15-.81.29-1.62.43-2.42.07-.41.16-.82.24-1.27,2.55.27,5,.15,7.44-.23.42-1.43,1.12-2.74,1.86-3.99,1.68-2.83,3.42-5.63,5.24-8.37,1.46-2.19,3.06-4.3,4.63-6.42.46-.63,1.04-1.17,1.63-1.83.28.32.55.57.75.86,1.29,1.9,2.56,3.81,3.83,5.72,1.6,2.39,2.71,5.05,4.05,7.58.76,1.42,1.29,2.96,1.9,4.46.47,1.15.88,2.33,1.36,3.48.07.17.32.34.51.37.92.16,1.85.26,2.78.41,1.26.2,2.52.39,3.77.63.68.13.9.43.91,1.12.03,2.58.3,5.15.58,7.71.01.11.03.23.01.34-.22,1.96.08,3.91.17,5.86.05.98-.12,1.98-.12,2.97,0,1.05.05,2.1.08,3.14,0,.06.03.11.03.17-.05,1.01-.11,2.02-.17,3.15-.56-.12-1-.21-1.48-.31,0-.46-.08-.89,0-1.29.35-1.59.03-3.17,0-4.75-.01-.79-.06-1.58-.13-2.37-.13-1.52-.31-3.04-.43-4.56-.14-1.8-.2-3.61-.34-5.42-.07-.9-.17-1.8-.36-2.68-.13-.63-.49-1.08-1.22-1.25-2.1-.48-4.2-.99-6.27-1.59-2.16-.62-4.37-.67-6.57-.87-1.86-.17-3.73-.2-5.57-.59-1.27-.27-2.59-.34-3.89-.45-.48-.04-.96.09-1.44.06-1.5-.09-3-.25-4.5-.33-.56-.03-1.14.01-1.69.13-1.01.22-2.01.34-3.04.29-.42-.02-.84.09-1.26.14-.45.05-.91.19-1.34.12-.53-.08-.77.16-.89.56-.27.89-.56,1.79-.73,2.71-.17.92-.23,1.86-.29,2.79-.14,2.18-.24,4.37-.36,6.56-.2,3.71-.4,7.42-.61,11.13,0,.17-.04.33-.07.55-.36.07-.71.15-1.12.23-.04-.8-.08-1.55-.1-2.31-.05-1.3-.14-2.61-.11-3.91.04-1.53.21-3.06.31-4.58Zm-.17,11.52c.56-.1,1.12-.15,1.67-.26.99-.2,1.96-.11,2.92.17.65.19,1.33.32,1.94.6.76.34,1.41.83,1.51,1.76.13.17.33.32.38.51.33,1.08.73,2.16.91,3.27.25,1.53.29,3.09.49,4.63.09.68-.1,1.19-.6,1.57-.93.73-1.6,1.66-2.21,2.65-.04.06-.13.07-.26.14-.05-.56-.11-1.08-.14-1.61-.05-1.18-.06-2.37-.14-3.55-.08-1.23-.24-2.46-.33-3.7-.02-.2.04-.5.17-.6.75-.57.89-1.33.8-2.19,0-.06,0-.11.01-.17l.03.04c-.16-.39-.31-.78-.47-1.17h0c-.84-.82-1.86-1.13-3.02-1.33-1.48-.26-2.96-.33-4.45-.34l-.04-.18c.27-.08.54-.19.82-.24Zm-1.44.96c1.52.03,3.06-.21,4.58.2.4.11.85.04,1.28.1,1.57.21,2.19,1.3,2.41,2.57.09.55-.6,1.57-1.12,1.67-.27.05-.61-.06-.87-.2-.34-.18-.63-.46-1-.74-.29.48-.5.89-.76,1.25-.13.18-.38.39-.57.38-.33,0-.54-.29-.61-.62-.05-.25-.07-.51-.14-.75-.03-.12-.16-.21-.31-.39-.15.19-.3.31-.35.47-.13.43-.38.75-.83.7-.43-.04-.68-.35-.75-.81-.02-.16-.14-.38-.27-.44-.24-.1-.28.14-.4.31-.18.27-.42.54-.69.72-.81.51-1.1.44-1.58-.37-.3-.5-.71-.95-.62-1.63.18-1.35,1.24-2.44,2.62-2.42Z"/>
  <path class="cls-3" d="m74.38,40.6c-.04-.18-.09-.27-.07-.33.02-.06.12-.09.18-.14.03.06.08.12.07.18-.01.07-.08.13-.18.29Z"/>
  <path class="cls-4" d="m87.31,72.48c-.56-.12-1-.21-1.48-.31,0-.46-.08-.89,0-1.29.35-1.59.03-3.17,0-4.75-.01-.79-.06-1.58-.13-2.37-.13-1.52-.31-3.04-.43-4.56-.14-1.8-.2-3.61-.34-5.42-.07-.9-.17-1.8-.36-2.68-.13-.63-.49-1.08-1.22-1.25-2.1-.48-4.2-.99-6.27-1.59-2.16-.62-4.37-.67-6.57-.87-1.86-.17-3.73-.2-5.57-.59-1.27-.27-2.59-.34-3.89-.45-.48-.04-.96.09-1.44.06-1.5-.09-3-.25-4.5-.33-.56-.03-1.14.01-1.69.13-1.01.22-2.01.34-3.04.29-.42-.02-.84.09-1.26.14-.45.05-.91.19-1.34.12-.53-.08-.77.16-.89.56-.27.89-.56,1.79-.73,2.71-.17.92-.23,1.86-.29,2.79-.14,2.18-.24,4.37-.36,6.56-.2,3.71-.4,7.42-.61,11.13,0,.17-.04.33-.07.55-.36.07-.71.15-1.12.23-.04-.8-.08-1.55-.1-2.31-.05-1.3-.14-2.61-.11-3.91.04-1.53.21-3.06.31-4.58.06-.95.08-1.91.15-2.86.07-.99.11-1.99.27-2.96.25-1.53.59-3.05.9-4.58.07-.36.2-.71.27-1.07.15-.81.29-1.62.43-2.42.07-.41.16-.82.24-1.27,2.55.27,5,.15,7.44-.23.42-1.43,1.12-2.74,1.86-3.99,1.68-2.83,3.42-5.63,5.24-8.37,1.46-2.19,3.06-4.3,4.63-6.42.46-.63,1.04-1.17,1.63-1.83.28.32.55.57.75.86,1.29,1.9,2.56,3.81,3.83,5.72,1.6,2.39,2.71,5.05,4.05,7.58.76,1.42,1.29,2.96,1.9,4.46.47,1.15.88,2.33,1.36,3.48.07.17.32.34.51.37.92.16,1.85.26,2.78.41,1.26.2,2.52.39,3.77.63.68.13.9.43.91,1.12.03,2.58.3,5.15.58,7.71.01.11.03.23.01.34-.22,1.96.08,3.91.17,5.86.05.98-.12,1.98-.12,2.97,0,1.05.05,2.1.08,3.14,0,.06.03.11.03.17-.05,1.01-.11,2.02-.17,3.15Zm-10.18-26.6c-.12-.39-.18-.66-.29-.91-.61-1.43-1.37-2.82-1.8-4.31-.39-1.33-.98-2.53-1.61-3.73-.94-1.81-1.96-3.58-3-5.33-.87-1.47-1.92-2.8-3.32-3.83-.45-.34-.5-.37-.91.07-.64.69-1.24,1.4-1.85,2.11-.28.32-.56.64-.81.99-.36.51-.62,1.09-1.03,1.55-1.38,1.54-2.33,3.34-3.34,5.11-1.22,2.11-2.4,4.24-3.61,6.36-.32.55-.19.84.45.92,1.83.22,3.66.48,5.49.61,1.92.14,3.86.18,5.79.23.88.03,1.76-.08,2.64,0,1.52.14,3.01.5,4.56.35.84-.08,1.68-.12,2.64-.19Z"/>
  <path class="cls-2" d="m47.22,71.09l-2-.11c0-.31,0-.61.01-.91.15-2.53.33-5.06.46-7.59.16-2.98.27-5.97.44-8.95.07-1.16.18-2.32.37-3.47.14-.83.45-1.63.65-2.46.1-.4.29-.56.71-.55.45,0,.9-.09,1.35-.12.9-.07,1.81-.11,2.71-.18.42-.03.85-.08,1.26-.18,1.25-.31,2.47-.19,3.72.01.98.16,1.98.17,2.97.28,2.79.3,5.6.53,8.37.97,1.61.25,3.23.25,4.83.45,1.06.14,2.11.42,3.16.66,1.44.33,2.87.67,4.3,1.05.87.23,1.73.52,2.59.8.61.2.9.64.93,1.28.08,1.64.15,3.29.27,4.93.07,1.02.22,2.02.32,3.04.37,3.79.72,7.58.41,11.39-.02.25,0,.51.01.84-.72.21-1.48.19-2.31.19.14-1.59.23-3.06.41-4.52.21-1.79.21-3.57.15-5.36-.05-1.44-.04-2.89-.1-4.33-.03-.65-.17-1.29-.26-1.94-.17-1.21-.22-2.43-.11-3.65.01-.16-.01-.33-.02-.48-2.36-.55-4.66-1.1-6.98-1.63-1.78-.41-3.58-.55-5.41-.5-.59.02-1.18-.14-1.77-.16-2.16-.09-4.31-.14-6.47-.23-2.56-.11-5.1.25-7.65.28-1.74.02-3.44-.16-5.14-.51-.16-.03-.32-.05-.61-.1-.32,2.42-.63,4.8-.93,7.18-.31,2.42-.55,4.84-.49,7.3.06,2.4-.11,4.81-.18,7.28Z"/>
  <path class="cls-4" d="m50.81,51.88c-.06.9-.1,1.74-.17,2.58-.12,1.53-.27,3.06-.4,4.58-.12,1.41-.31,2.82-.31,4.23,0,1.44.19,2.89.28,4.33.06,1.05.1,2.1.14,3.14.02.39,0,.78.01,1.27-.83-.26-1.59-.46-2.33-.73-.38-.14-.36-.56-.36-.89,0-.71,0-1.42.05-2.13.07-.93.23-1.86.29-2.79.06-.88.02-1.76.05-2.63.04-1.28.1-2.56.17-3.84.06-1.07.12-2.14.23-3.2.11-1.01.3-2.02.43-3.03.06-.5.06-1.02.09-1.53.02-.33.06-.66.11-1.11.68.04,1.29.08,1.9.1,1.84.08,3.69.15,5.53.21,1.1.04,2.21.1,3.31.09,2.58-.01,5.17-.09,7.75-.08,1.96.01,3.93.03,5.87.23,1.66.17,3.29.59,4.92.95,1.08.24,2.13.56,3.2.87.6.18.8.48.78,1.06-.04,1.07-.11,2.15-.09,3.22.03,1.39.13,2.78.22,4.16.09,1.42.26,2.83.28,4.24.02,1.3-.09,2.61-.17,3.92-.07,1.07-.2,2.14-.3,3.2-.91.27-1.73.51-2.6.77.03-.59.04-1.1.09-1.6.1-1.02.24-2.03.32-3.05.2-2.37.41-4.74.55-7.12.06-1.1-.03-2.21-.05-3.32-.01-.54-.04-1.08-.07-1.62-.03-.59-.04-1.19-.09-1.78-.03-.46-.28-.71-.72-.93-1.13-.55-2.35-.65-3.55-.85-1.65-.28-3.3-.55-4.96-.77-1.06-.14-2.13-.15-3.19-.24-.68-.06-1.35-.21-2.02-.21-1.22,0-2.44.06-3.65.1-.14,0-.28,0-.43,0-2.13-.02-4.26-.07-6.39-.05-1.52.01-3.05.12-4.75.19Z"/>
  <path class="cls-4" d="m53.96,84.1c1.6.05,3.39.12,5.17.14,1.33.02,2.66-.06,4-.04,1.24.02,2.49.14,3.73.16.99.02,1.98-.03,2.97-.09,1.55-.09,3.11-.22,4.66-.33.28-.02.58,0,.85-.07.64-.19,1.06.11,1.38.58.53.77,1.03,1.57,1.52,2.37.44.72.84,1.46,1.33,2.31-.33-.02-.51-.02-.69-.04-1.75-.2-3.49-.48-5.24-.59-2.39-.15-4.8-.18-7.2-.23-1.59-.03-3.18.03-4.76,0-.59,0-1.18-.14-1.78-.19-2.25-.21-4.48-.1-6.71.21-.89.12-1.8.09-2.91.15,1.25-1.54,2.15-3.08,3.69-4.34Z"/>
  <path class="cls-4" d="m84.08,78.56c.88.07,1.41,1.24,2.44.38.06,1,.13,1.87.16,2.74.11,3.35-.11,6.69-.35,10.03-.19,2.63-.29,5.28-.37,7.92-.07,2.17-.06,4.35-.08,6.59-.8-.04-1.52-.08-2.36-.13-.04-.82-.11-1.66-.13-2.49-.02-.59,0-1.18.02-1.78.02-1.47.05-2.94.07-4.41.01-1.05-.03-2.1.02-3.15.05-1.27.2-2.54.25-3.82.04-1.16-.02-2.32.02-3.48.04-1.36.16-2.72.21-4.09.05-1.27.05-2.55.08-3.83,0-.14.03-.27.05-.48Z"/>
  <path class="cls-2" d="m58.53,52.65l1.05.06c0,.51,0,1.01.03,1.51.06.84.6,1.32,1.31,1.64.1.05.22.06.32.1.49.21.93.52.97,1.08.03.51-.27.89-.72,1.17-.89.55-1.42,1.37-1.56,2.42-.06.43.04.77.43,1.02.46.29.86.65,1.34.91.77.41.57.87.03,1.41-.34.34-.74.62-1.11.92-.88.72-1.23,1.66-1.25,2.77-.01.79.31,1.36.95,1.79.52.35,1.06.67,1.56,1.04.61.44.95,1.54.67,2.22-.1.24-.34.45-.55.62-.35.28-.75.5-1.1.78-1.56,1.24-1.6,2.63-.45,4.06.49.61,1.17,1.07,1.82,1.53.42.3.71.65.81,1.14.17.81.03,1.59-.32,2.32-.21.44-.53.77-1.14.71-.7-.07-1.42.01-2.13-.04-.21-.01-.47-.2-.59-.38-.44-.65-.62-1.38-.67-2.16-.07-1.12-.09-2.21.65-3.18.2-.26.31-.61.37-.94.26-1.27.06-1.71-1.02-2.43-.4-.27-.78-.56-1.17-.86-.46-.35-.69-.86-.72-1.4-.07-1.21.21-2.31,1.25-3.09.3-.22.56-.48.86-.7.35-.26.44-.62.51-1.03.16-.94-.17-1.64-.87-2.26-.54-.48-1.04-1.05-1.46-1.64-.45-.64-.32-1.42.3-1.89.42-.32.93-.55,1.43-.71.53-.17.74-.44.85-1,.17-.89.2-1.7-.48-2.37-.32-.31-.73-.53-1.08-.81-.23-.19-.5-.4-.62-.66-.22-.46-.04-.75.45-.9.24-.07.5-.12.73-.22.93-.39,1.15-.98.71-1.9-.09-.2-.22-.38-.38-.66Zm2.88,19.26c-1.99-1.2-3.53-1.15-4.4.12.64,1.05,1.6,1.28,2.72,1.05.71-.15,1.45-.3,1.68-1.17Zm-3.88-9.22c.03.6.59,1.34,1.13,1.5.84.25,1.96-.15,2.52-.89-.62-.73-1.82-1.17-3.65-.6Zm4.9,18.9c-1-1.08-2.64-1.18-3.43-.25.93.89,2.16,1,3.43.25Zm-1.03-24.41c-1.01-1.23-2.48-1.51-3.37-.7.78.95,2.21,1.26,3.37.7Z"/>
  <path class="cls-2" d="m74.02,76.35c-.41-.98-1.08-1.57-1.96-1.99-1.98-.93-2.2-1.92-1.57-3.78.16-.46.66-.86,1.09-1.14.65-.42,1.03-.95,1.19-1.69.18-.85,0-1.56-1-1.98-.6-.25-1.16-.58-1.73-.89-.99-.55-1.2-1.83-.27-2.84.34-.37.78-.67,1.2-.95,1.09-.72,1.27-2.07.35-2.98-.3-.29-.68-.51-1.03-.74-.54-.34-.85-.78-.87-1.45-.02-.53.16-.94.6-1.12.92-.38,1.2-1.06,1.11-2.02.92.05,1.81.08,2.7.17.16.02.34.27.42.45.28.61,0,1.2-.24,1.72-.3.66-.74,1.27-1.14,1.88-.57.86-.81,1.78-.32,2.71.3.56.74,1.06,1.19,1.52.56.57,1.12,1.07,1.25,1.96.11.76,0,1.33-.62,1.81-.69.53-1.01,1.24-1.12,2.12-.12.93.31,1.52.98,2.03.36.27.76.5,1.14.75,1.36.91,1.71,2.48.8,3.95-.28.45-.66.83-1.01,1.24-.35.41-.72.8-1.13,1.26Zm-1.16-4.85c-.25.03-.56.04-.86.12-.23.06-.59.18-.61.33-.04.23.1.53.26.73.51.63,2.33.96,3.09.59.35-.17.43-.45.17-.74-.53-.59-1.19-.94-2.05-1.03Z"/>
  <path class="cls-2" d="m64.99,83.88c-.66-.04-1.22-.07-1.84-.1.12-.31.22-.59.33-.87.63-1.57.43-3.18-1.42-4.5-.67-.48-1.43-.96-1.62-1.89-.13-.66-.04-1.22.54-1.65.43-.32.84-.67,1.27-.98.47-.34.71-.77.72-1.37.02-1.11-.16-2.08-1.27-2.65-.48-.25-.95-.54-1.35-.88-.26-.22-.53-.57-.57-.9-.13-1.02.08-1.99.87-2.74.29-.27.61-.51.91-.77.24-.21.49-.4.68-.64.54-.68.47-1.13-.23-1.64-.42-.3-.83-.6-1.28-.85-.43-.24-.5-.58-.41-1.01.16-.79.55-1.45,1.23-1.87.61-.37,1.08-.84,1.02-1.54-.06-.74-.62-1.16-1.31-1.42-1.17-.45-1.55-1.24-1.35-2.51.07-.41.29-.59.69-.6,1.19-.04,2.38-.1,3.57-.13.6-.01,1.22.82,1,1.37-.08.2-.35.36-.56.45-.64.26-1.23.57-1.69,1.1-.47.55-.47.98.12,1.43.31.24.67.42,1.02.59.71.33.9.74.86,1.55-.04.63-.24,1.03-.82,1.34-.78.42-1.04,1.24-1.27,2.04-.03.11-.05.24-.02.34.4,1.11.66,2.34,1.84,2.95.69.36.94.98,1.06,1.66.12.65-.3,1.12-.7,1.57-.3.34-.65.64-.93.99-.43.55-.66,1.18-.5,1.9.11.5.19,1,.33,1.49.16.56.49,1,.95,1.38.39.32.72.72,1.06,1.1.43.51.45,1.12.21,1.69-.25.6-.61,1.15-.92,1.72-.27.49-.6.96-.8,1.48-.46,1.16-.07,2.22.59,3.35Zm-4.03-7.29c.61,1.1,1.57,1.54,2.81,1.48.85-.04,1.35-.55,1.88-1.13-2.13-1.39-3.71-1.49-4.68-.35Zm-.54-9.32c.69.94,2.18,1.28,3.29.77.15-.07.31-.14.44-.25.39-.3.36-.66-.09-.83-.39-.15-.81-.23-1.21-.36-.92-.29-1.71-.08-2.44.66Zm-.21-13.85c.78,1.03,3.06,1.05,3.85.22.06-.07.05-.2.08-.35-.98-.24-1.89-.83-2.9-.18-.15.1-.39.07-.58.13-.15.04-.3.11-.46.17Zm3.52,6.71c-.35-.68-1.01-.64-1.62-.66-.61-.02-.65.03-.71.73,1.06.52,1.74.51,2.34-.06Z"/>
  <path class="cls-2" d="m73.55,59.92c.21.03.43.04.64.08,1.13.22,2.25.31,3.35-.15.24-.1.45-.29.69-.45-1.63-1.47-3.03-1.75-5.24-.45-.05-.67.03-1.25.57-1.69.02-.02.04-.04.06-.06,1.23-1.07,1.57-2.44,1.34-4.11.44.06.84.11,1.11.14.36.82.62,1.56,1,2.24.18.32.54.59.87.76,1.14.58,1.76,1.57,2.25,2.68.17.38-.02.63-.3.89-.78.7-1.5,1.44-2.56,1.77-1.05.33-1.11,2.14-.52,2.72.36.35.78.65,1.21.91,1.14.69,1.82,1.62,1.7,3-.02.21-.08.46-.21.62-.37.46-.76.92-1.19,1.33-1.22,1.14-1.38,2.54-.43,3.89.06.09.13.18.22.3-.4.93-.87,1.83-1.18,2.79-.31.95-.47,1.96-.71,3.02-.48-.47-.94-.91-1.4-1.36-.46-.45-.56-1.04-.6-1.64-.02-.24.06-.54.2-.72.36-.47.75-.93,1.19-1.33.74-.67,1.19-1.47,1.35-2.47.22-1.36-.4-2.29-1.42-3.04-.39-.29-.81-.53-1.2-.81-1.18-.87-1.01-2.67.29-3.4.43-.24.85-.53,1.09-1.02.56-1.15-.2-1.93-.76-2.76-.18-.27-.5-.45-.75-.68-.27-.25-.52-.51-.78-.76.05-.08.09-.16.14-.24Zm5.33,7.91c-.55-.73-1.25-1.24-2.1-1.35-.82-.11-1.69-.01-2.28.78.58,1.09,1.58,1.2,2.61,1.22.67.02,1.37.05,1.77-.65Z"/>
  <path class="cls-4" d="m89.01,106.4c-.78-.04-1.42-.08-2.17-.12-.05-.46-.13-.92-.13-1.39,0-.74.05-1.47.06-2.21.02-1.25,0-2.5.03-3.74.01-.73.12-1.47.11-2.2-.03-2.83.4-5.63.47-8.45.05-2.15.14-4.3.16-6.44,0-.82-.12-1.64-.17-2.46-.01-.19.02-.39.03-.69.66.37,1.21.02,1.85-.22.29.81.26,1.62.26,2.42.01,1.73.02,3.46-.02,5.18-.03,1.11-.15,2.21-.23,3.31-.04.48-.1.96-.11,1.44-.03,1.44-.03,2.88-.07,4.33-.08,2.78-.2,5.56-.27,8.34-.02.65.1,1.3.15,1.95.02.28.02.56.04.95Z"/>
  <path class="cls-2" d="m53.32,59.07c-.52-.43-1.03-.8-1.48-1.23-.4-.39-.34-.93-.15-1.36.25-.56.55-1.17,1-1.55.52-.45.69-.93.71-1.55,0-.22.02-.45.04-.7.26-.05.48-.08.46.27-.06.88.37,1.39,1.13,1.81.41.23.71.71.97,1.14.23.38.18.83-.1,1.2-.35.48-.7.97-1.07,1.43-.59.75-.69,1.66-.86,2.55-.07.36.13.63.4.88.44.4.77.89.91,1.5.21.94.08,1.73-.72,2.35-.24.19-.5.4-.67.65-.49.72-.65,1.51-.25,2.34.28.59.56,1.18.92,1.72.39.58.43,1.15.19,1.78-.14.37-.29.74-.46,1.09-.81,1.64-.44,3.14.52,4.57.13.2.38.33.59.47.4.27.82.51,1.21.79.66.48.67,1.16.06,1.69-.36.32-.71.65-1.05,1-.26.26-.52.53-.72.84-.19.3-.31.65-.45.97-.49.01-.44-.29-.44-.58-.01-.99.05-1.98-.08-2.95-.22-1.54-.41-3.08-.9-4.58-.27-.81-.54-1.6-.96-2.34-.39-.67-.33-1.37-.08-2.06.14-.4.33-.81.6-1.12.69-.75.63-1.61.42-2.48-.1-.43-.37-.82-.58-1.22-.09-.18-.2-.35-.3-.52-.88-1.43-.47-2.66.62-3.65.78-.71,1.05-1.43.71-2.4-.08-.24-.09-.5-.13-.77Zm1.59,5.74c-.09-.69-.42-.96-1.32-.93-.49.02-.98.2-1.46.34-.06.02-.07.24-.1.38.94.48,1.85.8,2.88.2Z"/>
  <path class="cls-2" d="m56.51,56.67c.53.45,1.05.98,1.65,1.37.56.36.7.82.7,1.43,0,.66-.38,1.03-.91,1.2-.87.27-1.45.86-1.94,1.58-.13.18-.17.46-.16.69.06,1.28.73,2.17,1.81,2.81.63.38,1.07.9.88,1.68-.1.39-.34.77-.59,1.09-.26.33-.63.58-.94.87-.71.66-1.1,1.5-1.27,2.44-.18,1,.45,1.67,1.09,2.27.47.45,1.02.82,1.56,1.19.42.29.6.64.58,1.15-.02.64-.17,1.25-.54,1.77-.53.74-.68,1.57-.56,2.43.14,1.03.36,2.05.56,3.19-1.06.06-2.19-.19-3.5-.13.19-.4.27-.74.47-.97.51-.57,1.07-1.08,1.61-1.63.13-.14.27-.3.33-.47.34-.85.14-1.41-.69-1.94-.24-.15-.47-.34-.73-.41-.74-.22-1.09-.8-1.31-1.46-.27-.81-.53-1.63-.2-2.49.08-.2.21-.4.37-.55.46-.44.71-.94.68-1.59-.05-1.08-.08-2.13-1.01-2.95-.69-.6-.7-1.91.07-2.51.18-.14.36-.29.48-.48.24-.38.55-.76.62-1.18.22-1.25.1-2.45-.96-3.35-.34-.29-.41-.65-.29-1.08.27-.96.61-1.87,1.3-2.64.36-.41.6-.94.84-1.34Zm2.07,19.86c-.08-.13-.09-.2-.13-.22-.47-.24-.93-.63-1.41-.67-.65-.06-1.32.13-1.98.26-.23.04-.24.42-.01.54.22.11.49.15.7.27.97.56,1.87.34,2.83-.18Zm-.84-8.61c-.97-.64-1.92-.62-2.92-.23.69,1.09,2.2,1.23,2.92.23Z"/>
  <path class="cls-4" d="m45.35,78.56c1.07.44,1.31.36,2.15-.72.06.25.15.44.15.64-.02,1.96-.02,3.92-.09,5.88-.03.82-.23,1.63-.28,2.45-.12,1.67-.22,3.34-.27,5.01-.03,1.27.08,2.55.04,3.82-.05,1.5-.19,3-.32,4.49-.14,1.51-.43,3.02-.1,4.54.02.08,0,.17,0,.26-.01.08-.04.16-.07.3-.21-.01-.43,0-.64-.04-.22-.03-.44-.09-.72-.15-.05-.99-.13-1.98-.14-2.96,0-1.45.04-2.9.06-4.35.02-2.29.01-4.58.04-6.87.01-1.33.06-2.66.09-3.99.02-1.3.04-2.6.06-3.91.02-1.44.05-2.88.07-4.39Z"/>
  <path class="cls-4" d="m43,77.85c.66.22,1.16.5,1.77.19.32.67.23,1.4.23,2.08,0,1.44-.14,2.88-.17,4.33-.05,2.47-.06,4.94-.09,7.41-.02,1.67-.07,3.34-.06,5.01,0,2.2.06,4.4.08,6.6,0,.45-.04.89-.07,1.38l-1.47-.08c-.04-.67-.1-1.34-.11-2.01,0-1.05-.02-2.1.07-3.14.17-2.15-.16-4.3-.1-6.45.05-2.04-.21-4.08-.24-6.12-.02-2.13.09-4.26.12-6.39.01-.62-.02-1.24-.03-1.87,0-.28.03-.56.05-.94Z"/>
  <path class="cls-4" d="m80.38,90.64c-2.45-.04-4.86-.13-7.26-.09-1.61.02-3.21.26-4.82.33-.82.04-1.66,0-2.46-.15-1.27-.24-2.54-.15-3.82-.15-1.44,0-2.88-.1-4.32-.07-1.52.02-3.04.12-4.55.21-.96.06-1.91.21-2.94-.03l.1-1.83c.34-.02.64-.05.94-.07.51-.02,1.03.03,1.53-.04,1.65-.22,3.26.15,4.88.25.86.05,1.71.2,2.58.13.95-.08,1.91,0,2.87-.01.96-.02,1.91.05,2.88-.1,1.05-.16,2.15.05,3.23.08,1.24.04,2.49.05,3.73.11,1.15.05,2.31.14,3.46.22,1.04.07,2.09.18,3.13.24.81.05.84.05.84.97Z"/>
  <path class="cls-4" d="m83.02,106.07c-.34.04-.59.06-.94.1-.08-.87-.14-1.71-.22-2.54-.17-1.66-.4-3.31-.5-4.97-.08-1.35-.03-2.71,0-4.07.05-2.18.12-4.35.21-6.53.07-1.78.2-3.57.28-5.35.04-.99.03-1.98.04-2.97,0-.47.08-.87.63-1.08.35-.14.64-.45,1.06-.76.03.78.12,1.49.09,2.2-.09,1.7-.27,3.39-.36,5.09-.05.96-.06,1.93.02,2.89.14,1.74-.05,3.46-.25,5.18-.08.67.03,1.35.05,2.03,0,.17.04.34.03.51-.04,1.87-.1,3.75-.13,5.62-.02,1.36,0,2.72,0,4.08,0,.17-.02.33-.03.56Z"/>
  <path class="cls-2" d="m90.24,73.94c-1.18-.22-2.27-.34-3.38-.32-.51,0-1.02-.13-1.53-.11-.76.02-1.53.07-2.28.21-.6.12-1.18.38-1.75.61-.18.07-.36.22-.45.38-.49.84-.93,1.7-.89,2.71,0,.21.06.5.2.62.64.53.61,1.27.61,1.95,0,2.01-.04,4.02-.12,6.03-.03.84-.21,1.68-.33,2.61-.36-.26-.55-.59-.72-.93-.6-1.24-1.39-2.34-2.34-3.33-.29-.3-.44-.64-.41-1.07.07-1.35.02-2.72.19-4.06.19-1.62.89-3.08,1.73-4.56.1.22.17.36.28.61.22-.4.5-.71.56-1.06.08-.44.32-.62.67-.78.73-.34,1.48-.55,2.3-.53.71.01,1.42-.03,2.12-.1,1.71-.17,3.31.31,4.92.79.23.07.42.22.64.34Zm-9.83.28c-.61.07-.81.51-.93.93-.22.83-.55,1.66-.39,2.55.46-1.15.49-2.45,1.31-3.48Zm-2.78,6.01c.36-.68.37-.79.08-1.41l-.08,1.41Zm1.18-1.32c-.17.28-.33.57-.07.91q.24-.44.07-.91Zm.9,4.77q.24-.49-.04-1.01c-.29.35-.12.64.04,1.01Zm.13-3.68c.06,0,.13,0,.19.01l.03-.55h-.16c-.02.17-.04.36-.07.54Zm-1.34,2.31c.34-.33.39-.51.04-.78l-.04.78Z"/>
  <path class="cls-4" d="m49.18,104.75c.05-.48.09-.92.15-1.48.73.03,1.43.09,2.13.09,1.21,0,2.43-.05,3.64-.09,1.73-.06,3.45-.2,5.17.15.76.15,1.59.1,2.37-.01,1.97-.29,3.93-.41,5.92-.4,1.86,0,3.73-.29,5.59-.41,1.1-.07,2.21-.06,3.32-.05.79,0,1.59.07,2.38.13.33.02.65.11,1.01.17,0,.59,0,1.09,0,1.6-.11.04-.18.1-.26.1-1.98-.03-3.97.04-5.95-.22-1.06-.14-2.15-.02-3.23-.02-1.62,0-3.23.01-4.85,0-2.16,0-4.32,0-6.47-.02-.54,0-1.08-.09-1.62-.05-2.77.17-5.56.09-8.32.55-.29.05-.61-.02-.99-.05Z"/>
  <path class="cls-2" d="m68.71,55.95c-.64-.36-1.29-.71-1.92-1.09-.65-.39-.77-.71-.58-1.42.09-.35.23-.69.36-1.06.73.04,1.44.06,2.14.12.6.05,1.2.16,1.87.25.34.71.23,1.18-.48,1.6-1.42.84-1.4,2.53.03,3.39.29.17.61.32.86.54.89.77.76,1.92-.24,2.54-.63.39-1.19.86-1.6,1.5-.59.91-.25,2.27.56,2.81.54.36,1.12.67,1.71.93,1.29.58,1.5,1.7.48,2.7-.1.1-.21.2-.33.27-.86.47-1.5,1.12-1.63,2.28-.2-.24-.31-.38-.43-.51-.59-.65-1.18-1.29-1.77-1.94-.19-.21-.4-.4-.59-.62-.78-.88-.63-2.02.41-2.58,1.36-.73,1.35-1.35.98-2.85-.08-.31-.43-.58-.7-.81-.34-.29-.77-.49-1.09-.8-.77-.74-.84-1.63-.42-2.56.12-.26.38-.47.62-.65.32-.23.67-.42,1.03-.6.61-.3.91-.74.73-1.44Zm.59,10.8c-.51.05-.94.04-1.35.14-.17.04-.36.26-.43.44-.12.29.11.47.35.59.94.46,1.92.63,2.95.3.27-.09.45-.2.46-.51,0-.31-.14-.48-.42-.55-.54-.14-1.09-.28-1.56-.4Zm-2.64-7.64c.19.73.74.97,1.28,1.16.66.23,2.02-.22,2.61-.83-1.26-.63-2.52-.68-3.89-.33Zm-.13-5.79c.28.56.27.59.86.71.92.18,1.83.21,2.68-.36-.8-.79-2.34-.94-3.54-.35Z"/>
  <path class="cls-5" d="m47.48,76.58c-.29.48-.5.89-.76,1.25-.13.18-.38.39-.57.38-.33,0-.54-.29-.61-.62-.05-.25-.07-.51-.14-.75-.03-.12-.16-.21-.31-.39-.15.19-.3.31-.35.47-.13.43-.38.75-.83.7-.43-.04-.68-.35-.75-.81-.02-.16-.14-.38-.27-.44-.24-.1-.28.14-.4.31-.18.27-.42.54-.69.72-.81.51-1.1.44-1.58-.37-.3-.5-.71-.95-.62-1.63.18-1.35,1.24-2.44,2.62-2.42,1.52.03,3.06-.21,4.58.2.4.11.85.04,1.28.1,1.57.21,2.19,1.3,2.41,2.57.09.55-.6,1.57-1.12,1.67-.27.05-.61-.06-.87-.2-.34-.18-.63-.46-1-.74Z"/>
  <path class="cls-4" d="m48.25,105.33l-1.15-.06c-.07-.48-.15-.95-.21-1.41-.19-1.29.12-2.53.28-3.79.15-1.14.09-2.3.12-3.45.07-2.91.1-5.83.21-8.74.05-1.27.31-2.53.39-3.81.09-1.55.1-3.1.13-4.65,0-.61-.05-1.23-.07-1.9.38.19.7.35,1.14.57.09,1.64.19,3.34.27,5.03.03.71.04,1.42.02,2.13-.03,1.13-.09,2.26-.15,3.39-.06,1.26-.13,2.52-.21,3.78-.2,3.29-.4,6.58-.6,9.87-.06.99-.11,1.97-.17,3.05Z"/>
  <path class="cls-4" d="m41.99,104.65c-.42.02-.76.03-1.14.05-.03-1.07-.05-2.08-.08-3.1-.06-2.12,0-4.26-.2-6.37-.31-3.43-.29-6.85-.1-10.28.09-1.72.09-3.45.11-5.18,0-.5-.08-1-.11-1.37.65-.21,1.19-.38,1.77-.56-.02.43-.05.84-.07,1.26-.06,1.21-.16,2.42-.15,3.63.02,2.92-.26,5.83,0,8.76.16,1.85.02,3.73.02,5.6,0,2.35,0,4.71,0,7.06,0,.14-.01.28-.03.51Z"/>
  <path class="cls-2" d="m62.06,95.32c-.31-1.37.29-2.82,1.34-3.45.89-.54,2.33.24,2.35,1.28,0,.34-.04.68-.11,1.01-.07.3-.2.58-.35.99.42.04.8.08,1.18.11,1.12.08,2.09.53,2.91,1.26.86.77.78,1.61-.27,2.08-.87.39-1.81.66-2.8.45-.22-.04-.45-.03-.69-.04-.1.64-.18,1.28-.29,1.91-.1.6-.47,1.03-.99,1.31-.64.35-1.43.07-1.63-.64-.14-.51-.17-1.06-.19-1.59-.02-.48.04-.96.07-1.55-1.15.17-2.27.2-2.45-1.16-.17-1.29.76-1.81,1.93-1.99Zm1.14,2.64c.04.52.09.94.1,1.36,0,1.4,0,1.4,1.37,1.13.05,0,.09-.06.16-.11.28-.79-.24-1.66.11-2.49.46-.01.88-.02,1.3-.03.44-.01.88-.04,1.37-.06-.02-.51-.04-.92-.06-1.35-.56.03-1.01.07-1.46.06-.44,0-.88-.08-1.37-.12-.05-1.05-.09-2-.13-3.02-.39-.05-.75-.09-1.16-.14l-.16,2.98c-.51.07-1.06.13-1.62.22-.3.05-.67.05-.72.46-.04.38-.02.76-.02,1.23.83-.05,1.55-.09,2.28-.13Z"/>
  <path class="cls-4" d="m89.72,77.43c.4.53.7.93.98,1.31.07,1.17.17,2.33.19,3.5.03,1.56.02,3.11,0,4.67,0,1.24,0,2.49-.07,3.73-.06,1.22-.25,2.43-.31,3.65-.05,1.05,0,2.1.01,3.15,0,.28.06.57.05.85-.12,2.07.09,4.14-.26,6.2-.11.65.03,1.35.06,2.1-.27-.04-.51-.08-.75-.12-.45-1.11-.45-2.26-.43-3.38.04-1.96.2-3.92.25-5.88.05-1.96,0-3.92.04-5.88.02-.79.2-1.58.21-2.37.05-2.32.07-4.65.07-6.98,0-1.33-.07-2.66-.11-3.99,0-.14.01-.28.03-.56Z"/>
  <path class="cls-2" d="m65.95,66.55c-.37-.7-.84-1.18-1.47-1.55-.32-.18-.53-.58-.74-.91-.15-.24-.21-.52-.32-.79-.4-.99-.1-2.24.84-2.75.97-.53,1.02-1.35.98-2.25-.03-.54-.29-.96-.83-1.2-.36-.16-.72-.35-1.04-.58-.55-.39-.58-.6-.09-1.08.34-.33.74-.68,1.17-.82,1.19-.37,1.35-.89.72-2.15-.01-.02,0-.05,0-.18.3-.01.62-.02.98-.03-.12.55-.23,1.01-.33,1.47-.12.54.05.94.53,1.23.49.29.97.59,1.45.89.2.13.39.27.72.49-.58.36-1,.7-1.48.9-1.28.55-1.65,1.71-1.61,2.91.02.88.74,1.3,1.28,1.82.16.15.36.29.56.38.71.29.8.92.81,1.55,0,.24-.17.55-.36.73-.33.31-.77.5-1.08.82-.28.29-.46.69-.72,1.09Z"/>
  <path class="cls-2" d="m71.69,83.54c-.2.04-.39.11-.57.11-.39,0-.79-.04-1.26-.06,0-.1,0-.24.02-.36.35-1.49.01-2.44-1.2-3.32-1.25-.92-1.77-3.09-1.13-4.51.3-.67.88-.92,1.43-1.27.37-.23.72-.48,1.15-.76.53.61,1.25,1.18,2.16,1.49.13.04.23.16.35.24,1.17.8,1.27,1.47.39,2.88-.25.4-.64.72-.97,1.07-1.1,1.2-1.29,2.84-.48,4.22.04.07.07.15.12.25Zm-3.55-6.88c.22.65.79.89,1.35,1.01,1.03.23,2.04.19,2.97-.48-1.06-.87-2.84-1.09-4.31-.53Z"/>
  <path class="cls-5" d="m90.92,78.21c-.54-.75-.16-1.99-1.5-1.99-.23.51-.49,1.04-.7,1.58-.12.31-.29.5-.61.48-.37-.03-.41-.34-.46-.62-.1-.47-.19-.95-.29-1.45-.11.11-.2.27-.3.28-.79.06-.85.11-.81.85.02.33.03.67,0,1-.01.12-.14.23-.23.37-1.38-.36-1.79-1.38-1.83-2.65-.61,0-.93.25-1.12.71-.07.18-.14.37-.21.55-.26.59-.52.75-1.11.68-.63-.08-.83-.25-.9-.91-.09-.9-.05-1.94,1.1-2.18,1.81-1.15,3.75-.81,5.69-.5.36.06.72.16,1.08.2.81.08,1.55.34,2.23.78.71.46,1.04,1.81.55,2.5-.11.15-.36.2-.59.33Z"/>
  <path class="cls-2" d="m51.68,74.29c.13.17.33.32.38.51.33,1.08.73,2.16.91,3.27.25,1.53.29,3.09.49,4.63.09.68-.1,1.19-.6,1.57-.93.73-1.6,1.66-2.21,2.65-.03.06-.13.07-.26.14-.05-.56-.11-1.08-.14-1.6-.05-1.18-.06-2.37-.14-3.55-.08-1.23-.24-2.46-.33-3.7-.02-.2.04-.5.17-.6.75-.57.89-1.33.8-2.19,0-.06,0-.11.01-.17.15.56.29,1.12.45,1.67.05.16.15.29.23.44.17-.2.21-.35.18-.49-.19-.87-.41-1.75-.61-2.62h-.02c.19.19.38.37.63.61.03-.25.05-.41.08-.58l-.02.02Zm-.25,4.15c-.19.54-.23.92.26,1.37.05-.52.18-.9-.26-1.37Zm.89,4.52c.08,0,.17,0,.25,0,.02-.26.15-.55-.32-.87.03.37.05.62.07.86Zm.17-4.67c-.07,0-.14,0-.2,0-.19.27-.21.53.16.86l.05-.86Zm-1.76.45c-.08,0-.17.02-.25.03.04.23.08.46.13.82.33-.38.36-.61.11-.85Zm.82,3.31c.09-.31.16-.54-.16-.78-.14.3-.23.53.16.78Zm-.18,2.48c.39-.15.36-.37.25-.61-.01-.03-.1-.03-.21-.05l-.04.66Z"/>
  <path class="cls-2" d="m73.8,95.36c-.78.14-1.47.27-2.16.39l-.04-.17c.37-.09.73-.18,1.18-.29-.44-.92-.27-1.83.01-2.72.4-1.26,1.94-1.69,2.95-.82.11.09.2.21.3.3,1,.87,1.05.97,1.14,2.6.25.01.52.05.79.04.63-.02,1.17.18,1.66.56.59.46.78,1.37.18,2-.82.87-1.76,1.27-3,1.2-.05.54-.08,1.07-.16,1.59-.09.63-.21,1.28-.93,1.5-.7.21-1.18-.25-1.65-.67-.64-.58-.63-1.35-.65-2.12,0-.17.02-.34.03-.61-.24-.05-.47-.1-.71-.13-.34-.04-.68-.03-1.01-.1-1.04-.22-1.27-.91-.56-2.01.09.31.19.52.2.74.05.82.06.85.88.87.48.01.96,0,1.53-.02.07.85.14,1.66.21,2.47.55.39,1.16.13,1.75.24l.15-2.81c.7-.12,1.44-.26,2.27-.41-.09-.55-.17-1.02-.26-1.56-.72-.04-1.42-.08-2.19-.12-.07-.6-.16-1.12-.2-1.65-.03-.34.02-.68,0-1.02-.04-.63-.32-.85-.94-.79-.22.02-.44.07-.77.12,0,1.12,0,2.24,0,3.39Z"/>
  <path class="cls-2" d="m66.7,76.35c-.34-.89-.97-1.51-1.65-2.12-1.57-1.41-1.55-3.59-.03-5.01.21-.19.41-.4.58-.62.15-.2.26-.43.4-.66.91.97,1.82,1.92,2.71,2.88.21.23.39.49.52.77.41.85.21,1.5-.6,1.97-1.08.62-1.73,1.52-1.92,2.8Z"/>
  <path class="cls-2" d="m55.85,95.57c.8.21,1.56.4,2.31.61.58.16,1.01.49,1.15,1.1.15.66-.13,1.15-.65,1.54-.88.68-1.53.84-2.62.54-.1.29-.22.6-.32.91-.08.24-.11.5-.19.74-.23.66-.61.97-1.15.96-.53-.01-1.05-.42-1.23-1.02-.13-.46-.21-.93-.32-1.42-.96.16-1.77-.13-2.47-.71-.88-.73-.78-1.76.25-2.26.52-.25,1.13-.34,1.7-.47.27-.06.56-.04.8-.06.09-.94.17-1.83.27-2.72.07-.63.49-1.08.92-1.49.38-.36.7-.34,1.16-.05.68.43.88,1.11.83,1.85-.04.5-.21.99-.32,1.49-.04.16-.08.31-.12.45Zm-2.34,5.55c.56-.2,1.12,0,1.47-.39,0-.79,0-1.52,0-2.21,1.04-.1,1.96-.18,2.84-.27l.08-1.39c-.91-.17-1.78-.34-2.67-.51-.12-1.28-.23-2.48-.34-3.73-.41.05-.7.09-1.04.13-.05.29-.11.53-.13.78-.05.88-.11,1.76-.11,2.64,0,.48-.24.66-.64.73-.14.02-.28.03-.42.03-1.46.03-1.49.07-1.41,1.48,0,.02.03.04.12.15l1.94.11c.11.84.22,1.61.33,2.45Z"/>
  <path class="cls-4" d="m72.85,98.93c.1,1.17.2,2.27,1.24,2.98-.09.06-.14.11-.18.11-1.62-.13-3.21.25-4.81.32-.48.02-.96.03-1.44.04-.81,0-1.62,0-2.61,0,.85-.88.82-1.9.94-2.88,1.64-.2,3.39.03,4.41-1.73.55.88,1.56.84,2.46,1.16Zm-3.24.59c-.43-.05-.69.13-.73.51-.05.47.31.89.78.93.36.03.62-.24.68-.71.05-.41-.21-.68-.73-.74Z"/>
  <path class="cls-2" d="m51.33,72.39c-.52-1.09-.46-2.24-.56-3.35-.3-3.47.11-6.92.3-10.38.07-1.24.09-2.49.18-3.73.05-.68.19-1.34.3-2.1.45-.06.89-.11,1.37-.18.22.8.2,1.45-.47,2.01-.56.46-.9,1.09-1.14,1.77-.28.78-.1,1.44.59,1.93.88.63,1.34,1.44,1.23,2.54-.04.36-.19.61-.45.88-.41.42-.79.88-1.09,1.39-.43.74-.54,1.55-.1,2.36.24.45.51.88.76,1.32.49.89.72,1.85.18,2.75-.53.88-1.09,1.71-1.11,2.79Z"/>
  <path class="cls-4" d="m59.62,96.81c-.88-.98-2.03-1.11-3.15-1.52.24-1.35.71-2.79-.7-3.95,1.31-.19,2.48-.38,3.66-.07.26.07.56,0,.84,0,.86,0,1.73.01,2.68.02-.4.54-.69.98-1.03,1.38-.56.66-.88,1.38-.53,2.31-1.16.05-1.4.92-1.78,1.85Zm-.69-3.1c.43.04.75-.25.79-.7.03-.32-.32-.68-.71-.71-.38-.04-.75.25-.79.61-.05.38.29.76.71.8Z"/>
  <path class="cls-4" d="m72.88,91.41c-.69.83-.94,1.75-.91,2.74.01.38-.18.58-.5.7-.73.27-1.25.76-1.6,1.57-1.19-.91-2.45-1.57-4.09-1.47.53-1.37.76-2.63-.67-3.54,2.59,0,5.12,0,7.77,0Zm-2.84,2.69c.75-.53.89-1.04.52-1.77-.23-.45-.74-.57-1.14-.28-.45.33-.51,1.3-.07,1.66.21.17.48.27.7.38Z"/>
  <path class="cls-4" d="m59.77,97.8c.39.99,1.16,1.35,2.25,1.31.16,1.11-.24,2.29.64,3.4-2.55,0-4.91.01-7.41.02.31-.5.61-.87.78-1.29.16-.41.19-.87.27-1.32,1.57-.05,2.84-.52,3.47-2.11Zm.32,2c-.18.21-.34.36-.45.55-.15.25-.22.53.07.76.31.24.6.11.85-.08.27-.21.24-.52.08-.77-.11-.17-.33-.28-.55-.46Z"/>
  <path class="cls-2" d="m73.91,77.44c.07.99.57,1.64,1.26,2.2.92.75,1.25,2.25.81,3.34-.13.31-.33.43-.64.45-.93.05-1.87.11-2.8.15-.12,0-.28-.06-.37-.15-.58-.53-.85-1.2-.78-1.98.09-.9.39-1.69,1.07-2.34.5-.48.92-1.05,1.45-1.67Zm1.6,4.17c-.05-.15-.05-.26-.1-.29-.79-.5-1.66-.7-2.59-.57-.29.04-.53.19-.47.48.04.2.27.42.46.5.88.36,1.76.22,2.7-.11Z"/>
  <path class="cls-2" d="m64.66,81.87c-.02-.3-.11-.61-.04-.88.13-.46.29-.95.58-1.31.57-.72.97-1.53,1.32-2.37.03-.07.1-.12.19-.21.07,1.38.67,2.37,1.76,3.14,1.05.74,1.54,1.73,1.01,3.03-.05.12-.05.27-.08.45-1.2.2-2.38.3-3.57.22-.62-.04-.83-.65-1.06-1.11-.14-.28-.1-.66-.14-.99.29.16.62.27.86.48.74.65,3.05.65,3.59-.44-.05-.06-.09-.16-.15-.18-.81-.27-1.6-.65-2.43-.74-.69-.07-1.47.11-1.84.9Z"/>
  <path class="cls-2" d="m80.26,59.98c-.12,2.17-.23,4.29-.35,6.4-.62-.74-1.3-1.24-2.09-1.64-.84-.43-1.14-1.09-1.04-1.96.05-.44.27-.83.64-.93,1.13-.31,1.9-1.08,2.7-1.84.02-.02.05-.02.14-.04Z"/>
  <path class="cls-4" d="m54.08,91.09c-1.17,1.28-1.39,2.81-1.49,4.42-1.07.08-2.05.31-2.95,1.15.18-1.88.35-3.62.52-5.39,1.27-.06,2.56-.11,3.92-.17Zm-2.02,2.01c-.2-.15-.36-.23-.47-.35-.26-.28-.53-.3-.81-.07-.21.18-.13.8.11,1,.25.2.69.17.9-.09.1-.12.16-.29.27-.49Z"/>
  <path class="cls-5" d="m40.11,105.43c2.96-.29,5.77.18,8.66.9-.49.71-1.15.98-1.8.99-1.49.03-2.98-.09-4.47-.13-.49-.01-.89-.3-1.38-.35-.66-.07-1-.64-1.01-1.41Z"/>
  <path class="cls-5" d="m90.08,107.23c.03.64-.33.85-.77.93-1.7.31-3.39.66-5.14.37-.7-.12-1.41-.14-2.1-.25-.21-.03-.43-.16-.59-.31-.32-.3-.27-.57.13-.81.33-.2.66-.29,1.09-.26,1.18.09,2.36.25,3.56.1.95-.12,1.92-.03,2.88,0,.32.01.64.15.94.22Z"/>
  <path class="cls-4" d="m76.26,101.84c.84-.89.68-1.89.97-2.83,1.18-.16,2.21-.7,3.17-1.69.15,1.62.28,3.07.42,4.62-1.51.19-2.91-.1-4.55-.11Zm2.96-1.03c.36,0,.79-.31.82-.61.03-.3-.55-.93-.87-.94-.31-.01-.65.38-.67.76-.02.41.32.78.72.79Z"/>
  <path class="cls-5" d="m72.1,96.99c-.14-.56-.01-.84.47-.9.45-.05.9-.13,1.34-.19.52-.07.61-.2.56-.71-.08-.87-.14-1.74-.22-2.68.27-.02.45-.03.69-.05.13,1.11.26,2.19.39,3.29.78.04,1.46.08,2.11.11.26.7.26.73-.32.85-.36.07-.73.08-1.09.11-.22.02-.43.03-.67.05.04.68.11,1.3.1,1.91,0,.63-.04.63-.76.67-.16-.83-.31-1.66-.48-2.57-.71.03-1.4.07-2.13.1Z"/>
  <path class="cls-2" d="m54.27,52.56c1.16-.24,2.25-.03,3.35.02.44.02,1,.88,1.01,1.43,0,.39-.31.79-.89.86-.62.08-1.06.34-1.34.92-.45-.65-.85-1.25-1.62-1.59-.57-.25-.66-.94-.51-1.64Z"/>
  <path class="cls-4" d="m77.58,94.29c-.01-1.23-.56-2.06-1.57-2.82,1.58-.04,2.97-.07,4.46-.1l-.22,3.96c-.72-.85-1.67-1.03-2.68-1.04Zm1.52-.89c.36-.25.9-.37.72-.9-.09-.26-.44-.48-.72-.59-.13-.05-.45.19-.55.36-.21.35-.05.65.56,1.12Z"/>
  <path class="cls-4" d="m42.73,107.96c1.11,0,2.06-.01,3.01-.02.46,1.15-.09,2.02-.77,2.78-.37.41-.99.42-1.52.24-.42-.14-.47-.6-.54-.99-.07-.36-.12-.72-.16-1.08-.03-.3-.02-.6-.03-.94Z"/>
  <path class="cls-4" d="m53.54,102.38c-1.37.19-2.71.46-4.15.11l.2-3.59c.78.61,1.6,1.19,2.7,1.25.12.89.45,1.68,1.26,2.22Zm-3.68-1.95c-.25.47-.14.85.22,1.16.27.23.57.19.8-.11.22-.29.18-.6-.16-.77-.26-.13-.57-.19-.85-.28Z"/>
  <path class="cls-2" d="m76.93,53.47c.97,0,1.84.24,2.66.62.17.08.36.3.4.48.25,1.04.24,2.1.15,3.25-.24-.25-.44-.41-.57-.61-.38-.6-.91-.98-1.54-1.28-.84-.4-1.32-1.49-1.1-2.46Z"/>
  <path class="cls-2" d="m50.33,74.11c-.84-.82-1.86-1.13-3.02-1.33-1.48-.26-2.96-.33-4.45-.34-.01-.06-.03-.12-.04-.18.27-.08.54-.19.82-.24.56-.1,1.12-.15,1.67-.26.99-.2,1.96-.11,2.92.17.65.19,1.33.32,1.94.6.76.34,1.41.83,1.51,1.76,0,0,.02-.02.02-.02-.19-.15-.38-.31-.6-.49-.04.2-.07.33-.1.47,0,0,.02-.01.02-.01-.23-.19-.46-.38-.84-.7.08.33.11.45.15.57Z"/>
  <path class="cls-2" d="m79.7,69.37c-.13.99-.25,1.99-.38,2.98-.01.11-.07.22-.08.33q-.11.83-.84,1.25c-.87-.68-1.05-2.28-.32-3.09.47-.52.97-1.01,1.46-1.51.05.01.11.03.16.04Z"/>
  <path class="cls-5" d="m41.57,111.39c.04-.66.32-.97.92-.91.06.03.12.05.15.09.22.34.26.87.79.9.58.03,1.18.07,1.68-.36.19-.16.43-.32.66-.34.21-.01.49.11.64.27.22.24,0,.48-.18.66-.11.11-.28.21-.44.23-1.24.14-2.48.15-3.69-.23-.18-.06-.34-.19-.53-.31Z"/>
  <path class="cls-5" d="m83.65,110.81c1.04.99,2.67,1.01,3.78.09.15.22.38.42.4.63.03.36-.29.57-.61.6-1.13.09-2.26.12-3.36-.25-.47-.16-.52-.44-.22-1.07Z"/>
  <path class="cls-4" d="m86.6,109.58c-.1,1.11-.55,1.45-1.56,1.28-.74-.13-.92-.47-.72-1.4.74.04,1.48.08,2.28.12Z"/>
  <path class="cls-3" d="m50.33,74.11c-.03-.12-.06-.24-.15-.57.38.32.61.51.84.7.21.87.42,1.74.61,2.62.03.14-.01.3-.18.49-.08-.15-.18-.28-.23-.44-.16-.55-.3-1.11-.45-1.67,0,0,.03.04.03.04-.16-.39-.31-.78-.47-1.17h0Z"/>
  <path class="cls-5" d="m76.05,59.93c.06-.5.09-.77.12-1.06.54-.1.9.16,1.38.51-.51.19-.93.34-1.5.55Z"/>
  <path class="cls-5" d="m74.68,59.62c-.38-.14-.7-.27-1.22-.47.58-.27.97-.45,1.5-.7-.12.47-.19.78-.28,1.16Z"/>
  <path class="cls-5" d="m75.25,59.6c-.04-.09-.09-.17-.1-.24-.05-.29-.04-.59.29-.71.08-.03.33.14.35.25.07.35.06.7-.54.71Z"/>
  <path class="cls-1" d="m50.33,74.11c.16.39.31.78.47,1.17-.16-.39-.31-.78-.47-1.17Z"/>
  <path class="cls-3" d="m77.13,45.88c-.96.07-1.8.1-2.64.19-1.54.15-3.04-.21-4.56-.35-.87-.08-1.76.03-2.64,0-1.93-.06-3.86-.09-5.79-.23-1.84-.14-3.66-.4-5.49-.61-.65-.08-.77-.37-.45-.92,1.21-2.12,2.39-4.25,3.61-6.36,1.02-1.76,1.97-3.57,3.34-5.11.41-.46.67-1.04,1.03-1.55.24-.35.53-.67.81-.99.61-.71,1.22-1.43,1.85-2.11.41-.44.45-.41.91-.07,1.39,1.03,2.44,2.37,3.32,3.83,1.04,1.75,2.06,3.52,3,5.33.62,1.2,1.22,2.4,1.61,3.73.44,1.48,1.19,2.87,1.8,4.31.11.25.17.52.29.91Zm-4.18-7.81c-.34,1.42-.61,2.82-1.38,4.04-.76,1.21-1.93,2.01-3.12,2.78,1.25,0,2.47-.12,3.69-.11,1.22.01,2.42.35,3.81.17-.84-2.45-1.95-4.64-2.99-6.88Zm-10.46-4.41c.3-.19.47-.34.68-.42.39-.15.82-.38,1.2-.34,1.43.17,2.86.44,4.28.68.17.03.33.1.48.17,1.72.85,2.41,2.42,2.51,4.17.15,2.46-.98,4.4-3.06,5.7-.58.36-1.31.58-1.99.66-.96.12-1.94-.05-2.81-.51-1.47-.78-2.71-1.78-3.11-3.52-.25-1.1-.18-2.19.14-3.26.18-.61.36-1.22.54-1.83-1.02,1.19-1.62,2.53-1.57,4.09.04,1.45.47,2.72,1.66,3.67,1.13.9,2.4,1.53,3.81,1.78,1.27.23,2.61.17,3.65-.74.83-.72,1.6-1.54,2.24-2.42,1.1-1.5,1.25-3.24.97-5.04-.18-1.17-.81-2.05-1.78-2.68-2.22-1.45-4.6-1.82-7.15-.99-.36.12-.58.31-.7.83Zm8.43-.05c-.11-.85-.6-1.36-.96-1.88-.96-1.38-1.75-2.93-3.46-3.77-1.02,1.45-2.21,2.75-3.17,4.27,2.73-.8,5.18-.22,7.59,1.38Zm-11.6,4.86c-.49.82-.92,1.52-1.31,2.23-.51.91-.99,1.83-1.5,2.74-.34.61-.23.89.45,1,.59.09,1.18.17,1.77.21,1.5.11,2.99.21,4.49.3.12,0,.24-.05.5-.12-2.98-1.13-4.6-3.06-4.4-6.36Zm1.54-.1c1.05-.13,1.98-.25,2.87-.37-.52-1.19-1.02-2.32-1.55-3.52-.8,1.21-1.07,2.53-1.32,3.89Zm9.81-2.8c-.66,1.1-1.65,1.78-2.63,2.48,1.12.3,2.18.58,3.29.88.29-1.16-.11-2.25-.66-3.36Zm-3.02,4.58c1.55.28,2.4.09,3.38-.79-1.08-.72-2.25-.86-3.41-.85.01.59.02,1.11.03,1.63Zm-1.42-6.33c-1.02,1.13-.78,2.38-1,3.59.56.1,1.02.18,1.58.27.06-1.32.09-2.57-.57-3.86Zm-3.41.05c.66.82,1.27,1.58,1.88,2.34.29-.93.58-1.86.88-2.83-.99-.24-1.92-.15-2.77.49Zm4.28-.37c.2.96.37,1.83.52,2.58.8-.43,1.61-.85,2.46-1.31-.74-1-1.93-1.02-2.99-1.27Zm-6.15,5.48c-.2,1.1.31,2.46,1.06,2.91.45-.7.9-1.39,1.33-2.05-.86-.31-1.63-.59-2.39-.86Zm5.05,4.76c.4-.97.36-1.96.26-2.98-.44-.06-.8-.11-1.15-.16-.42,1.58-.1,2.76.9,3.14Zm-.32-3.6c.83.07,1.25-.28,1.31-1.03.05-.68-.35-1.04-1.14-1.04-.14,0-.29,0-.42.03-.76.17-1.18.91-.87,1.51.26.49.75.45,1.13.53Zm1.21,1.51l-.12,2.29c.8-.14,1.59-.33,2.21-1.01-.32-.2-.63-.39-.94-.58-.33-.2-.67-.41-1.14-.7Zm-4.12-7.24c.04,1.2.7,2.63,1.54,3.41.53-.31.61-.44.3-.97-.43-.73-.95-1.41-1.44-2.1-.09-.12-.24-.2-.4-.34Zm8.21,5.5c-.82.73-1.83.54-2.92.66.44.29.77.45,1.02.68.28.25.5.58.77.9.63-.66,1.01-1.35,1.13-2.25Zm-8.41,2.36c.7-.22,1.41-.4,1.76-1.16.26-.57.15-.84-.48-1.14-1.06.96-1.44,1.62-1.29,2.3Zm6.92.3c-.19-1.06-1.02-1.44-1.81-1.81-.28-.13-.66-.46-.9.09.46.78,1.73,1.61,2.71,1.72Zm.73-6.94c-1.28-.13-2.59.97-2.74,2.15,1.05-.46,1.85-1.23,2.74-2.15Zm-7.48,7.01c.57.55,1.25.93,2.08,1.16-.14-.72-.27-1.36-.4-1.98-.6.3-1.14.56-1.69.82Zm-1.21-4.01c0,.07,0,.14,0,.21.31.13.61.28.92.4.24.09.49.15.74.19.51.08.64-.05.62-.6,0-.15-.06-.3-.1-.51-.77.11-1.48.22-2.18.32Z"/>
  <path class="cls-3" d="m61.41,71.91c-.22.87-.96,1.02-1.68,1.17-1.12.23-2.09,0-2.72-1.05.87-1.27,2.41-1.32,4.4-.12Zm-1.59.76c.34-.12.61-.22.89-.32v-.18c-.34-.11-.69-.23-1.16-.39.11.37.18.6.27.88Zm-.56-.07c.04-.05.07-.1.11-.15-.12-.18-.24-.36-.41-.61-.15.21-.24.34-.39.55.27.08.48.14.68.2Zm-.83-.84c-.3.11-.48.17-.73.26.19.18.29.28.46.44.1-.25.16-.41.27-.7Z"/>
  <path class="cls-3" d="m57.53,62.7c1.83-.57,3.03-.13,3.65.6-.56.75-1.68,1.14-2.52.89-.54-.16-1.09-.89-1.13-1.5Zm1.1.13c-.25.04-.44.08-.78.14.28.31.47.52.73.8l.05-.94Zm.42.79c.08.04.16.08.24.12.12-.16.33-.32.33-.48,0-.14-.23-.29-.36-.43-.06.03-.12.05-.17.08l-.04.71Zm.88.24c.33-.19.55-.31.9-.51-.33-.17-.53-.28-.8-.42-.03.33-.06.56-.1.93Z"/>
  <path class="cls-3" d="m62.43,81.6c-1.27.74-2.5.64-3.43-.25.78-.93,2.42-.83,3.43.25Zm-1.22.06c.22-.03.37-.04.67-.08-.34-.27-.51-.39-.67.08Zm-.49-.53c-.12.12-.23.18-.24.25,0,.08.09.21.16.22.06.02.21-.08.22-.15.02-.08-.07-.17-.15-.33Z"/>
  <path class="cls-3" d="m61.4,57.18c-1.16.56-2.59.24-3.37-.7.9-.81,2.36-.52,3.37.7Zm-1.84-.22c-.28-.65-.32-.65-.88-.28.27.09.5.16.88.28Z"/>
  <path class="cls-3" d="m72.86,71.5c.86.09,1.52.44,2.05,1.03.26.29.18.57-.17.74-.76.37-2.58.04-3.09-.59-.16-.2-.3-.51-.26-.73.02-.14.38-.27.61-.33.3-.08.61-.09.86-.12Zm-1.12.56c.42.96,1.84,1.35,2.92.82-.64-1.02-1.67-1.31-2.92-.82Z"/>
  <path class="cls-3" d="m60.95,76.59c.98-1.15,2.56-1.04,4.68.35-.52.58-1.02,1.09-1.88,1.13-1.24.06-2.19-.38-2.81-1.48Zm2.92,1.27c.49-.33.84-.56,1.27-.85-.47-.26-.81-.44-1.19-.65l-.08,1.5Zm-1.19-.81q.43-.08.63.36c.56-.29.2-.69.19-1.04q-.71-.02-.82.69Zm-1.35-.43c.38.36.63.59.97.9l.07-1.37c-.36.16-.62.28-1.04.47Z"/>
  <path class="cls-3" d="m60.41,67.27c.72-.74,1.51-.95,2.44-.66.4.12.82.21,1.21.36.45.17.48.52.09.83-.13.1-.29.18-.44.25-1.1.51-2.59.17-3.29-.77Zm3.6.27c0-.07-.02-.14-.03-.21-.29-.1-.58-.2-.93-.32l-.05.97c.39-.17.7-.3,1.01-.43Zm-2.36.31s.09-.09.14-.14c-.05-.26-.11-.52-.19-.9-.27.2-.47.35-.77.58.37.2.59.33.82.45Zm.66-.18c.16-.14.35-.25.33-.3-.05-.14-.16-.27-.28-.36-.02-.02-.27.14-.26.21,0,.13.11.26.21.45Z"/>
  <path class="cls-3" d="m60.21,53.41c.16-.06.31-.13.46-.17.19-.05.42-.03.58-.13,1.01-.66,1.91-.07,2.9.18-.03.15-.02.28-.08.35-.79.83-3.07.81-3.85-.22Zm3.35.17c-.01-.05-.02-.11-.03-.16-.18-.03-.36-.06-.59-.1.04.2.06.32.09.51.21-.1.37-.18.53-.25Zm-1.6.28c.65-.13.74-.32.3-.72-.09.22-.17.4-.3.72Zm-.32-.52c-.19.06-.37.12-.65.2q.46.16.65-.2Z"/>
  <path class="cls-3" d="m63.73,60.12c-.59.57-1.27.58-2.34.06.07-.7.11-.75.71-.73.61.02,1.27-.02,1.62.66Z"/>
  <path class="cls-3" d="m78.88,67.84c-.41.71-1.11.67-1.77.65-1.03-.03-2.03-.13-2.61-1.22.6-.8,1.46-.89,2.28-.78.84.12,1.55.62,2.1,1.35Zm-2.62-.72c-.08.44-.16.83.34.95.35.08.42-.23.42-.49,0-.46-.29-.56-.76-.45Zm1.02,1.15c.34-.15.65-.19.77-.35.14-.2-.03-.42-.28-.5-.14-.04-.29-.07-.49-.12,0,.3,0,.51,0,.97Zm-1.42-1.28c-.34.13-.6.23-.88.33.19.52.49.63.92.53-.01-.27-.03-.52-.04-.86Z"/>
  <path class="cls-3" d="m54.91,64.81c-1.04.59-1.95.28-2.88-.2.03-.14.04-.36.1-.38.48-.14.97-.33,1.46-.34.91-.03,1.23.24,1.32.93Z"/>
  <path class="cls-3" d="m58.57,76.54c-.97.52-1.87.75-2.83.18-.21-.13-.48-.16-.7-.27-.22-.11-.22-.49.01-.54.66-.13,1.33-.32,1.98-.26.49.04.95.43,1.41.67.04.02.06.09.13.22Zm-.6-.12c-.28-.14-.46-.23-.68-.34q.08.55.68.34Zm-2.06-.02c.09-.05.19-.07.21-.12.02-.05-.06-.19-.08-.19-.09.01-.17.06-.25.1.04.06.07.13.12.21Z"/>
  <path class="cls-3" d="m57.73,67.93c-.72,1-2.22.86-2.92-.23.99-.39,1.94-.41,2.92.23Z"/>
  <path class="cls-3" d="m80.41,74.22c-.82,1.03-.85,2.33-1.31,3.48-.16-.9.17-1.72.39-2.55.11-.42.31-.86.93-.93Z"/>
  <path class="cls-3" d="m77.63,80.23l.08-1.41c.29.62.28.73-.08,1.41Z"/>
  <path class="cls-3" d="m78.81,78.92q.16.48-.07.91c-.25-.35-.1-.63.07-.91Z"/>
  <path class="cls-3" d="m79.71,83.69c-.16-.36-.34-.66-.04-1.01q.28.51.04,1.01Z"/>
  <path class="cls-3" d="m79.85,80.01c.02-.19.04-.37.07-.56h.16c-.01.2-.02.38-.03.57-.06,0-.13,0-.19-.01Z"/>
  <path class="cls-3" d="m78.51,82.32l.04-.78c.35.26.3.45-.04.78Z"/>
  <path class="cls-3" d="m69.3,66.74c.47.12,1.02.25,1.56.4.27.07.43.24.42.55,0,.31-.19.43-.46.51-1.03.33-2,.16-2.95-.3-.24-.12-.47-.3-.35-.59.07-.18.26-.4.43-.44.41-.09.83-.09,1.35-.14Zm1.38,1.04c.01-.07.02-.15.03-.22-.8-.52-1.68-.41-2.65-.31.53.85,1.03.06,1.5.12.03.18.06.32.1.5.37-.03.69-.06,1.02-.09Z"/>
  <path class="cls-3" d="m66.66,59.1c1.37-.35,2.63-.31,3.89.33-.59.61-1.95,1.05-2.61.83-.54-.19-1.09-.42-1.28-1.16Zm2.1.69c.04-.1.07-.21.11-.31-.17-.07-.34-.13-.51-.2-.04.12-.12.34-.1.35.16.08.33.12.5.17Zm-.98.05c.16-.25.21-.46-.06-.58-.08-.04-.22.05-.42.11.21.2.34.33.48.47Zm1.5.01c.22-.11.39-.2.56-.28,0-.05-.02-.1-.03-.15-.2-.03-.39-.07-.62-.11.04.21.06.34.09.54Z"/>
  <path class="cls-3" d="m66.53,53.3c1.21-.59,2.74-.44,3.54.35-.85.56-1.76.53-2.68.36-.59-.11-.59-.14-.86-.71Zm.47.1c.38.19.56.4.9-.04-.34.02-.53.03-.9.04Zm1.6.11c-.11-.06-.2-.13-.29-.14-.05,0-.11.09-.16.13.09.07.19.15.29.21.01,0,.09-.1.16-.2Z"/>
  <path class="cls-3" d="m63.2,97.96c-.73.04-1.44.08-2.28.13,0-.47-.02-.85.02-1.23.05-.41.42-.41.72-.46.55-.08,1.1-.15,1.62-.22l.16-2.98c.4.05.77.1,1.16.14.04,1.02.09,1.97.13,3.02.48.05.92.11,1.37.12.45,0,.89-.04,1.46-.06.02.43.04.84.06,1.35-.49.02-.93.04-1.37.06-.42.01-.85.02-1.3.03-.35.83.17,1.69-.11,2.49-.07.05-.11.1-.16.11-1.37.27-1.36.27-1.37-1.13,0-.42-.06-.84-.1-1.36Zm1.28,1.97c-.07-.66-.12-1.19-.17-1.72-.06-.56.13-.76.7-.75.57,0,1.13.02,1.7,0,.29,0,.59-.06.45-.6-.91-.05-1.85-.1-2.79-.15-.05-1.07-.1-2.03-.15-3-.07,0-.14-.01-.21-.02-.05.17-.15.33-.15.5,0,.57.03,1.13.07,1.7.05.66.06.66-.63.78-.5.09-1,.17-1.51.22-.35.03-.41.2-.34.55.75-.03,1.46-.06,2.2-.09.04.92.08,1.73.11,2.58.24,0,.43,0,.72,0Z"/>
  <path class="cls-3" d="m68.14,76.65c1.47-.56,3.26-.35,4.31.53-.92.67-1.94.72-2.97.48-.56-.13-1.13-.36-1.35-1.01Zm3.61.44c-.47-.11-.81-.2-1.25-.3.04.25.02.44.1.49.35.22.69.12,1.15-.19Zm-2.97-.19c.23.11.4.19.62.29q-.07-.52-.62-.29Z"/>
  <path class="cls-3" d="m51.43,78.43c.43.47.31.85.26,1.37-.49-.45-.45-.83-.26-1.37Z"/>
  <path class="cls-3" d="m51,74.25c.03-.13.06-.26.1-.47.22.18.41.34.6.49-.02.16-.04.32-.08.58-.25-.24-.44-.42-.63-.6Z"/>
  <path class="cls-3" d="m52.32,82.95c-.02-.24-.04-.48-.07-.86.47.32.34.6.32.87-.08,0-.17,0-.25,0Z"/>
  <path class="cls-3" d="m52.49,78.28l-.05.86c-.36-.34-.35-.6-.16-.86.07,0,.14,0,.2,0Z"/>
  <path class="cls-3" d="m50.74,78.73c.25.24.22.47-.11.85-.06-.36-.1-.59-.13-.82.08,0,.17-.02.25-.03Z"/>
  <path class="cls-3" d="m51.56,82.04c-.39-.25-.3-.48-.16-.78.32.24.25.47.16.78Z"/>
  <path class="cls-3" d="m51.38,84.52l.04-.66c.11.03.2.02.21.05.12.24.15.46-.25.61Z"/>
  <path class="cls-3" d="m53.51,101.12c-.11-.83-.21-1.6-.33-2.45l-1.94-.11c-.08-.11-.11-.13-.12-.15-.08-1.41-.05-1.45,1.41-1.48.14,0,.28,0,.42-.03.41-.07.65-.25.64-.73,0-.88.06-1.76.11-2.64.01-.25.08-.5.13-.78.34-.04.63-.08,1.04-.13.11,1.25.22,2.45.34,3.73.9.17,1.76.33,2.67.51l-.08,1.39c-.88.08-1.8.17-2.84.27,0,.69,0,1.42,0,2.21-.35.39-.91.19-1.47.39Zm.73-4.01c-.93.19-1.76.37-2.58.54.13.25.28.38.44.39.25.02.5-.04.76-.06.71-.05.8.04.93.77.06.36.17.71.28,1.06.06.18.17.34.26.51.14-.45.13-.84.12-1.23-.02-.91.04-.95.93-.96.72,0,1.46.08,2.2-.29-.06-.28-.11-.54-.15-.73-.55-.12-1.01-.24-1.48-.31-.48-.08-.98-.11-1.47-.16-.03-.98-.06-1.95-.08-2.93-.05,0-.11,0-.16,0,0,1.09,0,2.18,0,3.41Z"/>
  <path class="cls-3" d="m69.61,99.52c.52.06.78.32.73.74-.05.47-.31.74-.68.71-.48-.04-.84-.47-.78-.93.04-.38.3-.56.73-.51Zm-.22.45c-.05.06-.11.11-.16.17.12.14.22.32.37.41.05.03.24-.18.41-.32-.17-.1-.23-.15-.31-.17-.1-.04-.2-.06-.31-.09Z"/>
  <path class="cls-3" d="m58.93,93.71c-.42-.04-.75-.42-.71-.8.04-.36.42-.65.79-.61.38.04.73.39.71.71-.04.45-.36.74-.79.7Zm.07-.21c.18-.23.38-.37.38-.5,0-.13-.23-.33-.36-.33-.13,0-.35.2-.36.33-.01.13.18.28.35.5Z"/>
  <path class="cls-3" d="m70.03,94.09c-.22-.12-.49-.21-.7-.38-.44-.36-.38-1.33.07-1.66.4-.29.91-.17,1.14.28.37.72.23,1.23-.52,1.77Zm.5-1.12c-.26-.24-.43-.55-.62-.56-.37-.03-.38.36-.41.63-.04.31.2.52.45.49.18-.03.33-.3.58-.56Z"/>
  <path class="cls-3" d="m60.08,99.8c.22.18.44.29.55.46.16.25.19.56-.08.77-.25.19-.54.32-.85.08-.29-.23-.22-.5-.07-.76.11-.18.27-.34.45-.55Z"/>
  <path class="cls-3" d="m75.51,81.62c-.94.33-1.82.47-2.7.11-.2-.08-.42-.31-.46-.5-.06-.28.19-.44.47-.48.93-.12,1.8.07,2.59.57.05.03.06.15.1.29Zm-.83-.29c-.21-.06-.42-.11-.72-.2.15.58.46.39.72.2Z"/>
  <path class="cls-3" d="m64.66,81.87c.37-.8,1.15-.98,1.84-.9.83.09,1.62.47,2.43.74.07.02.11.12.15.18-.54,1.09-2.85,1.09-3.59.44-.24-.21-.57-.33-.86-.48,0,0,.03.03.03.03Zm1.55-.6c-.28.11-.52.21-.76.31.19.42.4.63.82.59-.02-.29-.04-.53-.06-.9Zm2.32.82c0-.06-.02-.12-.03-.18-.3-.1-.6-.2-.97-.32.01.32.02.55.03.86.38-.14.68-.25.97-.36Z"/>
  <path class="cls-3" d="m52.07,93.1c-.11.21-.17.37-.27.49-.21.26-.66.29-.9.09-.24-.19-.32-.82-.11-1,.27-.23.55-.21.81.07.11.12.26.2.47.35Zm-.66.39c.04-.06.08-.13.12-.19-.13-.08-.27-.17-.4-.25-.03.07-.11.19-.09.2.11.09.25.17.37.24Z"/>
  <path class="cls-3" d="m79.22,100.8c-.39,0-.73-.38-.72-.79.01-.38.36-.77.67-.76.31.01.9.64.87.94-.03.3-.46.62-.82.61Zm.34-.6c.05-.07.1-.14.15-.21-.13-.06-.27-.18-.39-.16-.13.02-.24.16-.36.26.09.09.16.24.26.26.1.02.22-.09.34-.14Z"/>
  <path class="cls-3" d="m79.1,93.4c-.61-.47-.77-.77-.56-1.12.11-.18.43-.41.55-.36.28.11.63.33.72.59.18.54-.35.65-.72.9Zm.35-.8c-.02-.06-.04-.12-.05-.18-.14.01-.28.03-.42.04.02.1.04.21.06.31l.42-.18Z"/>
  <path class="cls-3" d="m49.86,100.43c.29.09.59.15.85.28.34.17.39.49.16.77-.23.3-.53.34-.8.11-.36-.31-.47-.69-.22-1.16Zm.86.8c-.13-.13-.21-.24-.32-.28-.07-.03-.18.06-.27.1.08.12.15.26.26.35.03.02.17-.08.33-.17Z"/>
  <path class="cls-2" d="m72.95,38.07c1.04,2.24,2.15,4.44,2.99,6.88-1.39.18-2.6-.16-3.81-.17-1.22-.01-2.43.1-3.69.11,1.19-.77,2.36-1.57,3.12-2.78.77-1.22,1.04-2.62,1.38-4.04Z"/>
  <path class="cls-5" d="m62.49,33.66c.12-.52.34-.71.7-.83,2.55-.83,4.93-.47,7.15.99.96.63,1.6,1.51,1.78,2.68.28,1.8.12,3.54-.97,5.04-.65.88-1.42,1.7-2.24,2.42-1.04.91-2.37.97-3.65.74-1.4-.25-2.68-.88-3.81-1.78-1.19-.94-1.61-2.22-1.66-3.67-.05-1.57.54-2.9,1.57-4.09-.18.61-.36,1.22-.54,1.83-.32,1.08-.39,2.16-.14,3.26.4,1.74,1.63,2.74,3.11,3.52.88.46,1.85.63,2.81.51.68-.08,1.41-.3,1.99-.66,2.08-1.31,3.21-3.24,3.06-5.7-.11-1.75-.79-3.31-2.51-4.17-.15-.08-.31-.14-.48-.17-1.43-.24-2.85-.51-4.28-.68-.38-.05-.81.19-1.2.34-.21.08-.38.23-.68.42Z"/>
  <path class="cls-2" d="m70.92,33.61c-2.41-1.59-4.85-2.18-7.59-1.38.96-1.53,2.15-2.83,3.17-4.27,1.71.84,2.5,2.39,3.46,3.77.36.52.85,1.04.96,1.88Z"/>
  <path class="cls-2" d="m59.32,38.47c-.2,3.3,1.42,5.23,4.4,6.36-.26.06-.38.13-.5.12-1.5-.09-3-.19-4.49-.3-.59-.04-1.18-.13-1.77-.21-.68-.1-.8-.39-.45-1,.51-.91.99-1.83,1.5-2.74.4-.71.83-1.4,1.31-2.23Z"/>
  <path class="cls-4" d="m60.86,38.37c.25-1.36.52-2.68,1.32-3.89.53,1.2,1.03,2.33,1.55,3.52-.89.11-1.82.23-2.87.37Z"/>
  <path class="cls-4" d="m70.67,35.57c.54,1.12.94,2.2.66,3.36-1.11-.3-2.17-.58-3.29-.88.98-.71,1.97-1.38,2.63-2.48Z"/>
  <path class="cls-5" d="m67.65,40.15c-.01-.52-.02-1.04-.03-1.63,1.16-.01,2.33.13,3.41.85-.97.88-1.82,1.06-3.38.79Z"/>
  <path class="cls-5" d="m66.23,33.82c.66,1.28.64,2.54.57,3.86-.55-.1-1.02-.18-1.58-.27.22-1.2-.02-2.46,1-3.59Z"/>
  <path class="cls-4" d="m62.82,33.86c.85-.63,1.78-.72,2.77-.49-.3.97-.59,1.9-.88,2.83-.61-.76-1.22-1.52-1.88-2.34Z"/>
  <path class="cls-4" d="m67.09,33.5c1.06.25,2.25.27,2.99,1.27-.86.45-1.66.88-2.46,1.31-.15-.75-.33-1.62-.52-2.58Z"/>
  <path class="cls-4" d="m60.95,38.97c.77.28,1.53.55,2.39.86-.43.66-.88,1.35-1.33,2.05-.75-.45-1.26-1.81-1.06-2.91Z"/>
  <path class="cls-5" d="m65.99,43.73c-1-.38-1.32-1.56-.9-3.14.35.05.71.1,1.15.16.1,1.02.15,2.01-.26,2.98Z"/>
  <path class="cls-2" d="m65.67,40.13c-.38-.08-.87-.04-1.13-.53-.32-.6.11-1.34.87-1.51.14-.03.28-.04.42-.03.79,0,1.19.36,1.14,1.04-.05.75-.47,1.1-1.31,1.03Zm-.33-1.54c-.16.46-.24.82.09,1.09.1.08.34.1.45.03.38-.22.23-.57.16-.92-.21-.06-.42-.12-.71-.21Z"/>
  <path class="cls-4" d="m66.88,41.64c.48.29.81.49,1.14.7.31.19.62.38.94.58-.63.68-1.41.87-2.21,1.01l.12-2.29Z"/>
  <path class="cls-5" d="m62.76,34.4c.16.13.32.21.4.34.49.69,1.01,1.37,1.44,2.1.31.53.23.66-.3.97-.84-.78-1.5-2.21-1.54-3.41Z"/>
  <path class="cls-4" d="m70.97,39.9c-.12.89-.5,1.58-1.13,2.25-.27-.32-.49-.65-.77-.9-.26-.24-.59-.4-1.02-.68,1.1-.12,2.11.07,2.92-.66Z"/>
  <path class="cls-5" d="m62.56,42.26c-.16-.67.23-1.34,1.29-2.3.63.3.74.57.48,1.14-.35.76-1.06.93-1.76,1.16Z"/>
  <path class="cls-5" d="m69.47,42.57c-.98-.11-2.25-.93-2.71-1.72.24-.55.62-.23.9-.09.79.37,1.62.75,1.81,1.81Z"/>
  <path class="cls-5" d="m70.2,35.63c-.9.92-1.69,1.69-2.74,2.15.15-1.18,1.46-2.28,2.74-2.15Z"/>
  <path class="cls-4" d="m62.72,42.63c.55-.27,1.08-.53,1.69-.82.12.62.25,1.26.4,1.98-.83-.23-1.51-.61-2.08-1.16Z"/>
  <path class="cls-5" d="m61.51,38.62c.71-.1,1.41-.21,2.18-.32.04.21.09.36.1.51.02.54-.11.67-.62.6-.25-.04-.5-.1-.74-.19-.31-.11-.62-.26-.92-.4,0-.07,0-.14,0-.21Z"/>
  <path class="cls-5" d="m59.82,72.68c-.09-.29-.16-.51-.27-.88.47.16.82.27,1.16.39v.18c-.28.1-.55.2-.89.32Z"/>
  <path class="cls-5" d="m59.26,72.61c-.21-.06-.41-.12-.68-.2.15-.22.24-.34.39-.55.16.24.28.42.41.61-.04.05-.07.1-.11.15Z"/>
  <path class="cls-5" d="m58.42,71.76c-.11.29-.17.45-.27.7-.17-.16-.28-.27-.46-.44.26-.09.43-.15.73-.26Z"/>
  <path class="cls-5" d="m58.63,62.83l-.05.94c-.26-.28-.45-.49-.73-.8.34-.06.53-.09.78-.14Z"/>
  <path class="cls-5" d="m59.04,63.62l.04-.71c.06-.03.12-.05.17-.08.13.14.36.29.36.43,0,.16-.21.32-.33.48-.08-.04-.16-.08-.24-.12Z"/>
  <path class="cls-5" d="m59.92,63.86c.04-.37.06-.6.1-.93.27.14.47.24.8.42-.35.2-.57.33-.9.51Z"/>
  <path class="cls-5" d="m61.21,81.65c.16-.47.33-.35.67-.08-.3.04-.46.05-.67.08Z"/>
  <path class="cls-5" d="m60.72,81.13c.07.15.16.25.15.33-.01.07-.16.17-.22.15-.07-.02-.16-.15-.16-.22,0-.07.12-.14.24-.25Z"/>
  <path class="cls-5" d="m59.55,56.96c-.38-.12-.61-.19-.88-.28.56-.38.6-.37.88.28Z"/>
  <path class="cls-5" d="m71.74,72.06c1.25-.5,2.28-.21,2.92.82-1.08.54-2.5.14-2.92-.82Z"/>
  <path class="cls-5" d="m63.88,77.86l.08-1.5c.38.21.71.39,1.19.65-.43.29-.78.52-1.27.85Z"/>
  <path class="cls-5" d="m62.68,77.05q.11-.7.82-.69c.01.35.37.75-.19,1.04q-.2-.44-.63-.36Z"/>
  <path class="cls-5" d="m61.33,76.62c.42-.19.68-.31,1.04-.47l-.07,1.37c-.33-.31-.58-.54-.97-.9Z"/>
  <path class="cls-5" d="m64.01,67.54c-.31.13-.63.27-1.01.43l.05-.97c.35.12.64.22.93.32,0,.07.02.14.03.21Z"/>
  <path class="cls-5" d="m61.65,67.84c-.23-.13-.45-.25-.82-.45.31-.23.5-.38.77-.58.08.38.13.64.19.9-.05.05-.09.09-.14.14Z"/>
  <path class="cls-5" d="m62.3,67.66c-.09-.19-.2-.32-.21-.45,0-.07.24-.23.26-.21.12.1.23.22.28.36.02.05-.18.16-.33.3Z"/>
  <path class="cls-5" d="m63.56,53.59c-.16.08-.32.15-.53.25-.04-.19-.06-.32-.09-.51.24.04.41.07.59.1.01.05.02.11.03.16Z"/>
  <path class="cls-5" d="m61.96,53.87c.14-.32.21-.5.3-.72.44.41.35.6-.3.72Z"/>
  <path class="cls-5" d="m61.64,53.36q-.19.36-.65.2c.27-.09.46-.14.65-.2Z"/>
  <path class="cls-5" d="m76.25,67.12c.47-.11.75,0,.76.45,0,.26-.06.57-.42.49-.5-.11-.42-.51-.34-.95Z"/>
  <path class="cls-5" d="m77.27,68.27c0-.46,0-.67,0-.97.2.05.35.07.49.12.25.08.42.3.28.5-.12.17-.42.21-.77.35Z"/>
  <path class="cls-5" d="m75.86,67c.02.34.03.59.04.86-.43.1-.73,0-.92-.53.27-.1.54-.2.88-.33Z"/>
  <path class="cls-5" d="m57.97,76.42q-.61.2-.68-.34c.22.11.41.2.68.34Z"/>
  <path class="cls-5" d="m55.91,76.41c-.05-.08-.08-.14-.12-.21.08-.04.17-.09.25-.1.02,0,.1.14.08.19-.02.05-.12.07-.21.12Z"/>
  <path class="cls-5" d="m70.67,67.78c-.33.03-.65.06-1.02.09-.03-.18-.06-.32-.1-.5-.47-.06-.97.73-1.5-.12.97-.1,1.85-.21,2.65.31-.01.07-.02.15-.03.22Z"/>
  <path class="cls-5" d="m68.76,59.79c-.17-.05-.35-.09-.5-.17-.02,0,.06-.23.1-.35.17.07.34.13.51.2-.04.1-.07.21-.11.31Z"/>
  <path class="cls-5" d="m67.79,59.84c-.14-.14-.27-.27-.48-.47.2-.06.34-.15.42-.11.27.12.22.33.06.58Z"/>
  <path class="cls-5" d="m69.29,59.85c-.03-.19-.06-.33-.09-.54.23.04.43.07.62.11,0,.05.02.1.03.15-.17.08-.34.17-.56.28Z"/>
  <path class="cls-5" d="m67,53.4c.38-.02.56-.03.9-.04-.34.44-.53.24-.9.04Z"/>
  <path class="cls-5" d="m68.6,53.52c-.08.09-.15.2-.16.2-.1-.06-.19-.13-.29-.21.05-.05.12-.14.16-.13.09.01.18.08.29.14Z"/>
  <path class="cls-5" d="m64.48,99.92c-.29,0-.48,0-.72,0-.04-.85-.07-1.66-.11-2.58-.74.03-1.45.06-2.2.09-.07-.36,0-.52.34-.55.51-.05,1.01-.13,1.51-.22.69-.12.67-.13.63-.78-.04-.57-.07-1.13-.07-1.7,0-.17.1-.33.15-.5.07,0,.14.01.21.02.05.97.1,1.93.15,3,.93.05,1.88.1,2.79.15.14.53-.16.59-.45.6-.57.01-1.13,0-1.7,0-.58,0-.76.19-.7.75.05.53.11,1.06.17,1.72Z"/>
  <path class="cls-5" d="m71.75,77.1c-.46.31-.8.41-1.15.19-.07-.05-.05-.24-.1-.49.44.11.78.19,1.25.3Z"/>
  <path class="cls-5" d="m68.78,76.91q.55-.24.62.29c-.22-.1-.39-.18-.62-.29Z"/>
  <path class="cls-5" d="m54.24,97.11c0-1.23,0-2.32,0-3.41.05,0,.11,0,.16,0,.03.98.06,1.95.08,2.93.49.05.98.08,1.47.16.47.07.93.2,1.48.31.04.19.09.45.15.73-.74.37-1.48.28-2.2.29-.89.01-.95.05-.93.96,0,.39.02.78-.12,1.23-.09-.17-.21-.33-.26-.51-.11-.35-.22-.7-.28-1.06-.13-.72-.22-.81-.93-.77-.25.02-.51.08-.76.06-.16-.01-.31-.14-.44-.39.83-.17,1.65-.34,2.58-.54Z"/>
  <path class="cls-2" d="m69.39,99.97c.1.03.21.05.31.09.07.03.14.08.31.17-.17.14-.35.35-.41.32-.15-.09-.25-.27-.37-.41.05-.06.11-.11.16-.17Z"/>
  <path class="cls-2" d="m59,93.5c-.17-.23-.37-.38-.35-.5.02-.13.23-.33.36-.33.13,0,.36.2.36.33,0,.13-.19.28-.38.5Z"/>
  <path class="cls-2" d="m70.53,92.98c-.25.25-.39.53-.58.56-.25.04-.49-.17-.45-.49.03-.27.04-.66.41-.63.19.01.36.32.62.56Z"/>
  <path class="cls-5" d="m74.69,81.33c-.26.2-.57.38-.72-.2.3.08.51.14.72.2Z"/>
  <path class="cls-5" d="m66.21,81.28c.03.37.04.61.06.9-.43.04-.64-.17-.82-.59.25-.1.48-.2.76-.31Z"/>
  <path class="cls-5" d="m68.53,82.1c-.3.11-.59.22-.97.36-.01-.31-.02-.54-.03-.86.37.12.67.22.97.32,0,.06.02.12.03.18Z"/>
  <path class="cls-2" d="m51.4,93.49c-.13-.08-.26-.15-.37-.24-.01-.01.06-.13.09-.2.13.08.27.17.4.25-.04.06-.08.13-.12.19Z"/>
  <path class="cls-2" d="m79.56,100.21c-.11.05-.24.16-.34.14-.1-.02-.18-.17-.26-.26.12-.09.23-.24.36-.26.12-.02.26.1.39.16-.05.07-.1.14-.15.21Z"/>
  <path class="cls-2" d="m79.45,92.6l-.42.18c-.02-.1-.04-.21-.06-.31.14-.01.28-.03.42-.04.02.06.04.12.05.18Z"/>
  <path class="cls-2" d="m50.72,101.23c-.16.08-.3.19-.33.17-.11-.1-.18-.23-.26-.35.09-.04.2-.13.27-.1.11.04.18.16.32.28Z"/>
  <path class="cls-3" d="m65.34,38.59c.29.09.49.15.71.21.06.35.22.7-.16.92-.11.06-.36.05-.45-.03-.33-.28-.25-.63-.09-1.09Z"/>
</svg>