<?xml version="1.0" encoding="UTF-8"?>
<svg xmlns="http://www.w3.org/2000/svg" viewBox="0 0 136.06 136.06">
  <defs>
    <style>
      .cls-1 {
        fill: #fff;
      }

      .cls-2 {
        fill: #0c3454;
      }

      .cls-3 {
        fill: #e0e1e3;
      }
    </style>
  </defs>
  <g id="Layer_3" data-name="Layer 3">
    <rect class="cls-3" x="0" width="136.06" height="136.06"/>
  </g>
  <g id="B_W" data-name="B&amp;amp;W">
    <g>
      <path class="cls-1" d="m90.94,84.44c.75.13,1.28-.27,1.81-.72.31-.27.48-.6.58-.98.02-.1.03-.27-.03-.32-.3-.3-.57-.66-1.04-.73-.52-.07-1.05-.14-1.59-.22-.46.08-.92.15-1.38.23-.2.04-.5.42-.53.63-.03.36.02.69.33.93.44.34.87.69,1.32,1.02.15.1.35.13.53.16Zm4.46-1.55c-.77.22-1.51.54-2.19.96-.18.12-.38.23-.52.39-.3.33-.67.53-1.08.68-.29.1-.61.12-.82.16-.48-.02-.82-.12-1.12-.38-.22-.18-.48-.31-.72-.46-.32-.19-.67-.34-.95-.57-.55-.44-1.17-.71-1.83-.91-.4-.12-.72-.66-.69-1.07.03-.29.25-.42.46-.52.53-.28,1.08-.4,1.7-.3.57.1,1.15.09,1.74.06.58-.02,1.17.05,1.75.07.76.03,1.51.05,2.27.07.27.01.55,0,.82,0,.57-.01,1.14-.04,1.72-.06.36,0,.53.11.67.42.14.35.13.6-.15.82-.33.25-.63.53-1.06.65Z"/>
      <path class="cls-1" d="m82.48,98.75c-.46.66-1.27.89-1.71,1.51l.06.09c.09-.04.19-.06.27-.12.24-.18.48-.36.7-.55.25-.22.47-.46.69-.7.04-.04,0-.15-.01-.23Zm.31-4.92c.15-.39.15-.81.01-1.03-.1.33-.13.63-.01,1.03Zm-.94-.35c-.37,1-.54,2.06-1.03,3.06.34.03.39-.22.45-.39.2-.63.39-1.26.57-1.9.06-.24.11-.51.01-.77Zm-.55,5.54q-.68.74-.6,1.07c.18-.43.62-.61.6-1.07Zm-.85.17c.24-.39.57-.72.83-1.09.35-.47.77-.91.93-1.49.17-.58.3-1.17.45-1.8-.24,0-.31.15-.35.3-.04.17-.05.34-.09.51-.13.66-.32,1.3-.76,1.85-.46.56-.89,1.15-1.34,1.72-.14.18-.28.37-.45.51-1.08.87-2.31,1.31-3.7,1.27h-.38s-.02.09-.03.14c.1.04.19.11.28.11.33,0,.66-.02.99-.05.66-.06,1.28-.3,1.88-.57.7-.32,1.33-.72,1.74-1.41Zm.25-5.73c-.09.08-.12.15-.12.23.03,1.18-.31,2.29-.63,3.4-.36,1.24-1.12,2.13-2.27,2.72-.3.16-.57.37-.89.58.24.18.36.08.48,0,.49-.31.99-.62,1.47-.96.58-.4.98-.96,1.21-1.62.22-.6.36-1.24.55-1.85.25-.75.28-1.52.26-2.3,0-.07-.04-.13-.06-.2Zm3.92,2.83c.29-.61.42-1.26.7-1.88.13.46.38.9.22,1.41-.03.07-.03.14-.03.21-.04.69-.28,1.31-.65,1.89-.19.28-.36.59-.55.87-.14.19-.3.4-.49.55-.5.4-1.01.81-1.56,1.13-.54.3-1.13.57-1.71.75-.67.19-1.35.31-2.03.41-.69.09-1.39.13-2.08-.06-.3-.08-.6-.09-.9-.16-.2-.03-.47-.02-.54-.27-.06-.26.22-.29.38-.39.69-.46,1.42-.86,2.08-1.37.64-.49,1.31-1,1.77-1.69.3-.46.54-.97.56-1.52.03-.52.17-.99.28-1.46q.07-.26-.16-.6c-.07.32.1.65-.2.87-.23-.16-.21-.44-.25-.66-.05-.21.03-.46.12-.6.06-.09.55-.73.61-.78.28-.24.55-.28.82-.45.67-.41,1.39-.46,2.11-.14.98.44.97.44.88,1.56-.05.84-.41,1.58-.64,2.36-.15.51-.47.97-.73,1.46-.06.1-.18.18-.28.25-.11.11-.18.2-.08.34.43-.07.54-.44.72-.71.37-.55.56-1.17.79-1.79.32-.87.54-1.75.5-2.78.26.22.48.39.66.57.17.18.16.43.1.65-.19.64-.36,1.29-.62,1.92-.21.52-.55,1-.82,1.51-.03.06-.05.17-.09.29.38-.23.62-.7,1.11-1.69Zm-1.72,3.1c.71-.21,1.99-1.7,1.99-2.34-.61.9-1.27,1.65-1.99,2.34Z"/>
      <path class="cls-1" d="m68.26,99.19c.62-.02.99-.31,1.03-.72-.35.25-.69.49-1.03.72Zm1.38.24c.54-.25,1.07-.54,1.48-.98.39-.41.77-.83.88-1.4-.02-.02-.05-.05-.08-.07-.07.08-.17.14-.21.23-.36.75-.92,1.3-1.64,1.71-.18.1-.4.21-.43.51Zm.32-4.95c-.05.16-.08.24-.1.31-.18.76-.44,1.49-.81,2.17-.23.4-.53.75-.82,1.1-.2.23-.43.44-.68.59-.37.23-.79.4-1.18.6-.05.03-.08.07-.2.17.17.01.26.04.33.01.64-.2,1.23-.51,1.69-.99.38-.41.76-.84,1.06-1.3.46-.72.65-1.56.83-2.39,0-.05-.06-.13-.12-.27Zm-.05,3.41c.41-.24.59-.66.81-1.03.24-.41.39-.87.64-1.26.25-.41.23-.88.41-1.33.43.12.82.3,1.2.55-.1.44-.35.8-.65,1.14.39-.02.61-.28.91-1.09.3.09.6.18.92.27-.03.32-.14.57-.31.78-.41.54-.81,1.08-1.32,1.53-.14.12-.29.28-.24.59.87-.9,1.83-1.63,2.23-2.87.1.05.19.09.24.1-.07.32-.09.6-.18.87-.12.32-.27.64-.46.92-.22.34-.47.66-.74.95-.67.72-1.45,1.27-2.38,1.57-.63.21-1.27.35-1.91.5-.24.05-.51.03-.77.04-.91.05-1.8-.02-2.7-.18-.11-.02-.22-.11-.4-.22.2-.15.31-.26.44-.35.56-.35,1.02-.77,1.45-1.28.34-.43.65-.87.85-1.37.21-.55.43-1.1.58-1.67.1-.38.09-.79.13-1.2.01-.15,0-.31.01-.47,0-.23.09-.3.33-.27.13.02.27.07.4.1,0,.72-.45,2.29-.97,3.35.24.03.34-.14.41-.3.28-.8.7-1.54.75-2.41,0-.18.08-.36.13-.56.09.02.19.05.27.09.41.19.82.41,1.23.6.2.09.24.2.23.43-.05.69-.35,1.27-.68,1.83-.27.49-.56.96-.86,1.44-.02.06-.02.12,0,.21Z"/>
      <path class="cls-2" d="m112.05,71.31c.22-.25.63-.27,1.01,0h-1.01Z"/>
      <path class="cls-2" d="m111,74.6h.07s-.04.02-.05.02h-.01s-.01-.02-.01-.02Z"/>
      <path class="cls-2" d="m111.02,74.62s-.05.01-.07.01c.02-.01.04-.01.06-.02h.01Z"/>
      <path class="cls-2" d="m110.77,78.16c.6.14,1.19-.06,1.78,0,.09.01.18.04.27.06,0,.04-.01.09-.01.14-.73.11-1.46.14-2.21.09-.04-.19,0-.33.17-.29Z"/>
      <path class="cls-2" d="m112.78,81.04c-1.95.47-3.94.53-5.94.46-.09,0-.18-.05-.27-.15.08-.03.16-.07.25-.07.8,0,1.61.03,2.41,0,.63-.02,1.26-.08,1.88-.17.68-.09,1.36-.23,2.03-.36.22-.04.44-.13.66-.18.1-.03.2-.04.29-.06.02.05.03.1.04.15-.45.13-.89.28-1.35.38Z"/>
      <path class="cls-2" d="m106.59,76.09c1.94-.12,3.84-.57,5.74-.95.03-.01.07.03.14.07-.07.06-.11.12-.16.13-1.01.22-2.01.44-3.02.65-.39.08-.79.15-1.18.2-.44.06-.88.1-1.32.13-.1.01-.21-.05-.4-.1.13-.09.17-.13.2-.13Z"/>
      <path class="cls-2" d="m110.4,73.16c.1-.03.19-.08.28-.1.64-.09,1.28-.18,1.92-.26.12-.02.24,0,.36,0,.01.03.01.06.01.09-.41.23-.87.21-1.31.3-.09.02-.18.01-.25.05-.84.4-1.74.3-2.62.33-.76.03-1.51.09-2.27.13-.14.01-.28.01-.43-.01-.04,0-.08-.08-.16-.17.34-.05.62-.11.9-.12,1.01-.04,2.03-.06,3.05-.1.17,0,.35-.09.52-.14Z"/>
      <path class="cls-2" d="m106.19,68.82c.74,0,1.48-.06,2.17.26-.43.17-.85-.04-1.27-.02-.44.02-.89,0-1.4,0,.16-.25.33-.24.5-.24Z"/>
      <path class="cls-2" d="m113.59,77.44c-1.05.02-2.09.12-3.12.33-.62.13-1.24.28-1.86.35-.7.08-1.41.09-2.11.11-.58.01-1.17,0-1.75-.02-.29-.02-.58-.08-.85-.2.19,0,.38-.01.58,0h3.09c.68.02,1.34-.12,2-.25.87-.18,1.76-.28,2.64-.38.65-.08,1.31-.12,1.97-.15.2-.01.43-.08.6.08-.01.04-.01.08-.01.12-.4,0-.79,0-1.18.01Z"/>
      <path class="cls-2" d="m103.8,68.78c.23-.04.5-.09.72.09-1.29.23-2.56.49-3.86.53,0-.04,0-.07-.01-.11.21-.03.41-.08.61-.11.85-.14,1.69-.29,2.54-.4Z"/>
      <path class="cls-2" d="m104.68,66.83c.88-.14,1.76-.24,2.64-.34.21-.03.44-.05.63.19-.17.01-.33.02-.49.04-.71.09-1.42.18-2.13.26-.61.07-1.22.12-1.78.42-.03.02-.08,0-.18,0,.06-.09.08-.19.13-.21.39-.13.78-.29,1.18-.36Z"/>
      <path class="cls-2" d="m108.82,75c.71-.14,1.41-.25,2.13-.37-.2.07-.4.17-.61.2-.67.09-1.32.22-1.97.42-.38.11-.79.15-1.19.21-.88.15-1.77.3-2.66.45-.62.11-1.24.25-1.87.26-.29,0-.58.06-.87.09-.01-.03-.01-.06-.02-.09.12-.03.24-.06.36-.07.94-.04,1.85-.24,2.77-.4.87-.16,1.76-.26,2.63-.41.44-.07.86-.21,1.3-.29Z"/>
      <path class="cls-2" d="m106.55,79.67c.81.02,1.63-.01,2.45-.03.14,0,.28-.05.42-.07.07,0,.15.02.31.03-.34.22-.62.26-.92.26-.76.01-1.52.02-2.29.02-.97,0-1.94,0-2.91-.01-.62-.01-1.23-.09-1.85-.07-.47.02-.93.13-1.4.2-.21.03-.42.09-.63.11-.06,0-.14-.08-.27-.15,1.05-.29,2.01-.45,3.01-.41,1.36.06,2.72.1,4.08.12Z"/>
      <path class="cls-2" d="m111,71.17c-.31.02-.62.07-.93.05-.89-.07-1.78.01-2.68.02-.14,0-.28.06-.42.08l-2.16.24c-.79.09-1.59.2-2.39.26-.46.04-.94.01-1.41,0-.13,0-.27-.06-.39-.14.24-.09.48-.06.72-.06.33-.02.66,0,.98-.03.84-.08,1.68-.2,2.53-.26s1.69-.2,2.54-.3c.83-.09,1.67-.02,2.5-.01.37.01.74.04,1.11.06v.1Z"/>
      <path class="cls-2" d="m100.05,76.31c.47-.01.93-.16,1.41-.08-.47.09-.93.24-1.41.08Z"/>
      <path class="cls-2" d="m106.74,83.41c-.74.08-1.48.01-2.22.02-.83.01-1.66.08-2.48.23-.41.07-.85.03-1.28.04-.04.01-.08-.03-.12-.04l.03-.09c.18-.04.34-.1.52-.12,1.89-.2,3.78-.37,5.69-.25.04.01.08.07.18.14-.15.04-.23.06-.32.07Z"/>
      <path class="cls-2" d="m104.49,81.54c-1.42-.09-2.83-.06-4.19.45.07-.3.26-.42.49-.46.54-.12,1.09-.28,1.64-.31.62-.04,1.25.03,1.87.06.08.01.16.1.25.15-.02.04-.04.08-.06.11Z"/>
      <path class="cls-2" d="m98.4,71.9c-.22,0-.43,0-.65,0-.12,0-.18-.06-.14-.19.43-.16.85-.08,1.27.02,0,.05.01.1.01.14-.16.01-.33.03-.49.03Z"/>
      <path class="cls-2" d="m109.35,83.47c.93-.26,1.88-.36,2.83-.5.51-.07,1.02-.15,1.53-.18.07,0,.13,0,.23.08-.07.04-.13.1-.2.11-1.23.18-2.47.33-3.7.53-.59.1-1.16.31-1.74.46-1.32.34-2.64.71-3.98,1.01-.75.17-1.52.24-2.29.17-.66-.06-1.31-.14-1.95-.26-.76-.15-1.5-.34-2.25-.52-.07-.01-.13-.07-.2-.1.01-.03.02-.06.02-.09.17.01.33,0,.49.04.75.17,1.49.37,2.25.52.48.1.96.13,1.45.18.73.08,1.45-.04,2.18-.12.19-.02.38-.1.58-.15,1.58-.39,3.18-.75,4.75-1.18Z"/>
      <path class="cls-2" d="m99.22,69.61c-2.69.61-5.32,1.46-8.08,1.77-.06,0-.12-.04-.19-.14.19-.06.39-.14.59-.17,1.5-.22,2.99-.48,4.44-.91.44-.13.9-.18,1.33-.33.54-.2,1.12-.23,1.67-.38.1-.03.22-.01.33-.02.01.03.02.05.03.08-.04.04-.08.09-.12.1Z"/>
      <path class="cls-2" d="m95.18,67.97c-.26.08-.28.07-.31-.27.56-.12,1.13-.25,1.7-.35.55-.1,1.05-.39,1.61-.44.02.03.04.06.06.1-.07.05-.12.13-.19.15-.36.13-.73.25-1.1.35-.21.05-.43.05-.63.1-.39.11-.76.24-1.14.36Z"/>
      <path class="cls-2" d="m99.31,83.06c-1.28.25-2.53.62-3.69,1.24-.55.3-1.12.56-1.67.84-.04-.04-.08-.08-.12-.13.07-.04.15-.07.22-.11.71-.35,1.41-.7,2.12-1.04.84-.41,1.74-.66,2.65-.86.78-.16,1.57-.32,2.37-.43.83-.11,1.68-.17,2.52-.25.06,0,.11-.02.17-.02.83-.02,1.67-.08,2.5-.05.67.02,1.33.16,2,.21.48.03.95.01,1.43,0,.2,0,.39-.05.59-.06,1.33-.05,2.61-.36,3.88-.72.2-.05.38-.17.65-.29-.21.32-.46.4-.7.46-.75.19-1.51.34-2.26.52-.94.22-1.91.2-2.86.26-.51.03-1.03-.07-1.55-.12-.76-.08-1.53-.21-2.31-.07-.12.03-.26,0-.39.01-.97.07-1.95.11-2.92.21-.88.09-1.76.24-2.63.4Z"/>
      <path class="cls-2" d="m97.96,74.72c-.8-.13-1.6-.29-2.41-.35-.5-.04-1,.08-1.5.12-.3.02-.6.02-.9.02-.08,0-.16-.07-.24-.11,0-.03,0-.07.02-.11.11-.03.21-.08.32-.09.82-.04,1.64-.12,2.45-.1.67.02,1.34.14,2,.26.27.05.51.22.76.33-.01.04-.02.08-.03.11-.16-.03-.31-.06-.47-.08Z"/>
      <path class="cls-2" d="m93.98,72.81c-1.57.15-3.15.26-4.78.5.05-.12.06-.18.09-.18.53-.11,1.05-.23,1.59-.31.56-.08,1.13-.19,1.7-.16.64.03,1.25-.26,1.9-.14.13.03.28-.02.42-.03.38-.04.76-.08,1.15-.1.14-.01.28.07.42.1,0,.05-.01.09-.02.14-.82.06-1.64.1-2.47.18Z"/>
      <path class="cls-2" d="m93.89,85.96c-.53.02-1.04.14-1.56.18-.08,0-.15-.03-.23-.04v-.11c.41-.17.86-.19,1.29-.23.9-.09,1.8-.18,2.7-.24.57-.04,1.15-.04,1.72-.01.9.06,1.79.16,2.69.24.24.02.48,0,.73,0-.09.14-.26.15-.39.15-.4,0-.81.02-1.2-.02-.8-.1-1.61-.17-2.41-.13-1.11.05-2.22.18-3.34.21Z"/>
      <path class="cls-2" d="m92.11,82.32c.12.22.23.44.35.66-.31-.18-.36-.29-.35-.66Z"/>
      <path class="cls-2" d="m91.02,82.2c.54-.01.91.41.83.97-.11-.22-.18-.42-.31-.58-.13-.15-.33-.25-.52-.39Z"/>
      <path class="cls-2" d="m91.37,83.22c.02.19-.06.37-.23.42-.12.04-.29-.04-.43-.08-.04-.01-.07-.05-.1-.08-.19-.19-.26-.47-.17-.66.08-.15.28-.21.49-.15.29.09.44.28.44.55Z"/>
      <path class="cls-2" d="m92.75,83.72c-.53.45-1.06.85-1.81.72-.18-.03-.38-.06-.53-.16-.45-.33-.88-.68-1.32-1.02-.31-.24-.36-.57-.33-.93.03-.21.33-.59.53-.63.46-.08.92-.15,1.38-.23.54.08,1.07.15,1.59.22.47.07.74.43,1.04.73.06.05.05.22.03.32-.1.38-.27.71-.58.98Zm-2.87-.23c.54.35,1.1.66,1.78.61.02-.16.05-.31.07-.47.02,0,.03.01.05.01.04.1.07.2.13.35.31-.27.6-.49.85-.75.32-.34.3-.76-.04-.96-.26-.15-.54-.28-.82-.35-.45-.11-.92-.12-1.39-.1-.45.02-.86.11-1.24.35-.27.18-.3.33-.12.61.18.29.45.51.73.7Z"/>
      <path class="cls-2" d="m94.93,79.89c-.17-.09-.45-.01-.68.02-.71.09-1.41.23-2.13.28-.56.03-1.14-.04-1.72-.06-.46-.01-.93-.08-1.41-.03-.46.05-.94-.03-1.41-.06-.08-.01-.15-.06-.22-.09.01-.03.01-.06.02-.09.44.04.88.12,1.32.1,1.15-.05,2.3.07,3.44.04.25,0,.5,0,.73-.05.93-.21,1.87-.24,2.82-.24.51.01.97.07,1.42.28.39.18.63.47.74.89.17.7.07,1.33-.43,1.88-.13.14-.27.23-.55.17.14-.15.25-.25.34-.37.22-.3.41-.6.41-1.01s-.16-.73-.46-.98c-.4-.35-.85-.57-1.41-.55-.28.02-.55.04-.82-.13Z"/>
      <path class="cls-2" d="m89.95,76.09c.97.04,1.92.21,2.89.31.65.06,1.31.09,1.97.13.14.01.27.04.4.05.01.04.01.07.01.1-.09.02-.17.06-.26.06-.91-.06-1.82-.12-2.73-.19-.23-.01-.45-.05-.68-.07-.1,0-.21.01-.3-.01-1.1-.18-2.13-.2-3.07-.09-.21.02-.42.01-.63.01h-.57l-.03-.09c.07-.04.13-.12.2-.13.94-.04,1.87-.12,2.8-.08Z"/>
      <path class="cls-2" d="m86.63,73.47c-.25.05-.51.07-.77.1-.25.03-.51.13-.77-.08.74-.08,1.49-.16,2.28-.24-.21.31-.51.18-.74.22Z"/>
      <path class="cls-2" d="m85.6,70.85c-.13.03-.29.04-.39-.22,1.23-.08,2.34-.54,3.55-.54-.06.03-.12.09-.19.1-.99.23-1.98.45-2.97.66Z"/>
      <path class="cls-2" d="m85.38,78.25c.65-.04,1.29-.07,1.94-.08.94-.02,1.89-.03,2.84-.02.25,0,.51.05.76.08.79.11,1.57.15,2.36.04.54-.08,1.09-.08,1.63-.12.19-.01.37-.04.55-.07.87-.17,1.75-.08,2.63-.07.16,0,.32.02.48.04-.31.16-.6.13-.9.12-.65-.01-1.31-.07-1.97.05-.59.11-1.19.13-1.79.17-.75.04-1.49.06-2.24.08-.19,0-.4-.01-.59-.05-.82-.17-1.66-.11-2.49-.1-.94.01-1.89,0-2.83.12-.21.03-.44-.04-.68-.12.1-.03.2-.07.3-.07Z"/>
      <path class="cls-2" d="m85.94,81.17c-.21.1-.43.23-.46.52-.03.41.29.95.69,1.07.66.2,1.28.47,1.83.91.28.23.63.38.95.57.24.15.5.28.72.46.3.26.64.36,1.12.38.21-.04.53-.06.82-.16.41-.15.78-.35,1.08-.68.14-.16.34-.27.52-.39.68-.42,1.42-.74,2.19-.96.43-.12.73-.4,1.06-.65.28-.22.29-.47.15-.82-.14-.31-.31-.43-.67-.42-.58.02-1.15.05-1.72.06-.27,0-.55.02-.82,0-.76-.02-1.51-.04-2.27-.07-.58-.02-1.17-.09-1.75-.07-.59.03-1.17.04-1.74-.06-.62-.1-1.17.02-1.7.3Zm.69,2.34c-.49-.22-.99-.39-1.38-.78-.3-.3-.37-.52-.22-.91.05-.14.07-.28.14-.41.08-.16.16-.38.3-.45.35-.18.67-.45,1.1-.46.27,0,.54-.05.85-.09.13.02.3.04.47.08.68.16,1.37.09,2.06.08.1,0,.22-.03.3.01.37.19.76.11,1.13.08.76-.07,1.51.07,2.27.09.67.02,1.34,0,2.02-.08.87-.09,1.49.48,1.22,1.4-.05.18-.23.36-.39.49-.61.48-1.31.78-2.05,1.02-.61.2-1.14.54-1.62.96-.61.55-1.34.86-2.15.92-.37.03-.74-.09-1.06-.31-.39-.27-.75-.58-1.17-.8-.59-.32-1.21-.57-1.82-.84Z"/>
      <path class="cls-2" d="m84.78,80.94c-.36.21-.47.6-.65.93-.05.09-.01.26.02.38.23.75.72,1.27,1.47,1.5.33.11.69.14,1.03.22.08.02.15.09.22.14-.94.08-1.76-.16-2.46-.72-.75-.6-.83-1.68-.39-2.32.14-.19.3-.33.46-.49.02-.02.05-.06.06-.06.4.12.6-.26.91-.34.09-.02.18,0,.35,0-.1.11-.14.18-.2.22-.27.19-.54.37-.82.54Z"/>
      <path class="cls-2" d="m84.01,87.26c.01.68.2,1.27.58,1.81.3.42.75.67,1.19.91.67.37,1.43.4,2.17.43.52.02,1.05.04,1.57.09.2.01.41-.03.61-.05l.03.15c-.25.03-.49.08-.74.07-.51-.01-1.02-.06-1.53-.09-.44-.03-.89-.03-1.33-.1-.55-.1-1.04-.38-1.52-.66-.63-.37-1.01-.93-1.2-1.58-.25-.77-.29-1.59.35-2.25.12-.12.26-.24.41-.3.84-.37,1.72-.46,2.62-.29.5.1,1.01.2,1.51.31.1.02.19.08.29.12-.01.03-.01.07-.02.1-.29-.01-.58-.01-.87-.05-.34-.05-.67-.16-1-.21-.67-.1-1.36-.08-2,.1-.66.19-1.14.74-1.12,1.49Z"/>
      <path class="cls-2" d="m85.58,74.53c.56.01,1.12-.03,1.67-.04.26,0,.52-.01.77.02.97.09,1.92.3,2.9.29,1.15,0,2.29.1,3.44.16.62.02,1.25.04,1.87.08.58.04,1.16.15,1.74.15.85-.01,1.69-.09,2.53-.15.98-.05,1.96-.26,2.95-.18.3.02.59-.02.89-.04.15,0,.28,0,.4.2-.23.01-.41.01-.58.02-.68.03-1.37.05-2.05.09-.2.01-.39.06-.59.08-.61.06-1.22.12-1.84.17-.34.03-.68.07-1.02.09-.61.02-1.24.12-1.83,0-.55-.11-1.1-.12-1.64-.22-.52-.1-1.02-.12-1.54-.13-.84-.04-1.69-.11-2.53-.17-.5-.03-1-.06-1.5-.11-.54-.06-1.08-.14-1.62-.2-.14-.02-.28-.04-.43-.03-.61.02-1.23.08-1.84.07-.65,0-1.29-.06-1.93-.09-.18-.01-.49.03-.54,0-.06-.03-.03-.09.01-.11.12-.02.21-.02.33-.02.66.02,1.32.06,1.98.07Z"/>
      <path class="cls-2" d="m84.75,79.3c-.48.07-.96.13-1.44.21-.41.07-.41-.22-.25-.26.74-.2,1.49-.33,2.25-.42.71-.08,1.4-.06,2.1-.01.73.06,1.45.06,2.18.11.71.06,1.42.15,2.13.22.15.02.31.03.46.04,1.26.04,2.53.1,3.76-.26.21-.06.43-.05.64-.07.38-.04.77-.09,1.15-.12.6-.05,1.21-.15,1.8-.12.65.04,1.28-.13,1.92-.11.65.02,1.29-.05,1.94-.06.41-.01.83.04,1.24.05,1.11.03,2.21.05,3.32.09.27.01.54.05.81.12,1.01.26,2.04.3,3.07.2.61-.05,1.21-.24,1.81-.39.47-.13.93-.29,1.39-.43.02-.01.05.02.15.07-.19.09-.32.19-.47.22-.85.22-1.69.46-2.55.62-.91.18-1.84.18-2.74-.02-.86-.18-1.73-.23-2.61-.25-.89-.03-1.79-.1-2.69-.13-.57-.01-1.14.03-1.71.05-.5,0-1,.02-1.5.05-.2.01-.4.05-.59.07-.13.02-.26.05-.38.04-.96-.04-1.91.06-2.85.18-.08,0-.15.03-.22.02-.55-.09-1.04.17-1.56.23-.36.04-.71.09-1.07.12-.4.03-.8.05-1.2.06-.2,0-.4-.05-.6-.06-.7-.03-1.4-.04-2.1-.08-.75-.05-1.49-.13-2.23-.19-.49-.03-.98-.1-1.46-.06-.64.05-1.27.18-1.9.27Z"/>
      <path class="cls-2" d="m84.89,97.05c0,.64-1.28,2.13-1.99,2.34.72-.69,1.38-1.44,1.99-2.34Z"/>
      <path class="cls-2" d="m83.13,76.74c.12-.07.25-.14.37-.21.03.02.05.05.07.07-.02.05-.02.14-.07.16-.27.17-.7.47-.81.47-.11-.01-.18-.17-.05-.25.17-.06.33-.14.49-.24Z"/>
      <path class="cls-2" d="m82.8,92.8c.14.22.14.64-.01,1.03-.12-.4-.09-.7.01-1.03Z"/>
      <path class="cls-2" d="m84.64,75.81c.2-.01.4-.04.59-.1.73-.26,1.49-.25,2.25-.34.83-.1,1.66-.05,2.48.02.52.04,1.03.14,1.54.21.11.01.22.04.34.04,1.1.04,2.2.05,3.3.25.19.04.4,0,.6.02.94.07,1.88.16,2.82.24.3.03.61.02.91.04.1.01.21.04.31.06,0,.02-.01.04-.01.06-.25,0-.51.02-.76,0-.66-.05-1.33-.12-2-.18-.35-.03-.7-.04-1.05-.07-.45-.04-.91-.09-1.36-.13-.22-.02-.43-.01-.65-.03-1.13-.13-2.28-.13-3.42-.3-1.02-.15-2.05-.25-3.09-.08-.32.05-.66.04-.98.09-.79.13-1.58.28-2.37.4-.31.05-.62.07-.93.1-.18.01-.35.03-.52.05-.04.01-.08.02-.12.02-.09.02-.16-.09-.04-.11.23,0,.46-.04.68-.07.5-.06.99-.15,1.48-.19Z"/>
      <path class="cls-2" d="m86.54,84.83c-.61-.1-1.24-.06-1.82.15-.76.29-1.57.39-2.35.57-.83.2-.78,0-.59-.13.11-.02.23-.05.34-.07.61-.12,1.21-.24,1.81-.38.4-.09.8-.2,1.2-.31.51-.14,1.03-.08,1.55-.08.03,0,.07.04.13.08-.04.18-.13.19-.27.17Z"/>
      <path class="cls-2" d="m81.61,86.95c.3.03.59-.03.86-.16.16-.07.3-.07.4.1-.38.27-1.14.38-1.59.18.15-.05.24-.13.33-.12Z"/>
      <path class="cls-2" d="m80.77,100.26c.44-.62,1.25-.85,1.71-1.51.01.08.05.19.01.23-.22.24-.44.48-.69.7-.22.19-.46.37-.7.55-.08.06-.18.08-.27.12l-.06-.09Z"/>
      <path class="cls-2" d="m84.22,73.04c.65-.03,1.3-.18,1.95-.27.08-.01.15,0,.23.05-.31.15-.64.25-.98.29-.68.07-1.37.13-2.05.19-.19.02-.37,0-.56.01-.58,0-1.16,0-1.75.02-.16-.01-.11-.15-.12-.16.14-.08.31-.05.46-.06.94-.01,1.88-.03,2.82-.07Z"/>
      <path class="cls-2" d="m80.82,96.54c.49-1,.66-2.06,1.03-3.06.1.26.05.53-.01.77-.18.64-.37,1.27-.57,1.9-.06.17-.11.42-.45.39Z"/>
      <path class="cls-2" d="m80.7,100.09q-.08-.33.6-1.07c.02.46-.42.64-.6,1.07Z"/>
      <path class="cls-2" d="m85.34,71.65c-.25.04-.52.04-.76.12-.61.21-1.24.16-1.86.23-.73.07-1.48.01-2.2.11-.09.01-.19.02-.28.03-.07,0-.12-.06-.1-.19.03-.12.24-.09.41-.09.73-.03,1.47-.04,2.19-.12.64-.07,1.29-.06,1.92-.21.76-.17,1.54-.22,2.3-.37.7-.13,1.39-.32,2.09-.46.66-.14,1.32-.27,1.99-.39.94-.17,1.89-.32,2.83-.49.44-.08.87-.16,1.31-.26,1.27-.28,2.53-.6,3.81-.84.99-.19,1.99-.29,2.98-.43.38-.05.76-.13,1.14-.19.52-.08,1.05-.17,1.57-.23,1.17-.14,2.35-.2,3.52-.19.83.01,1.66-.05,2.49-.08.19-.01.38-.04.58-.03-.24.2-.54.21-.81.25-.44.06-.89.09-1.33.1-.69.01-1.39-.04-2.09-.01-.69.03-1.39.11-2.08.17-.53.05-1.05.08-1.57.15-.45.06-.9.16-1.35.23-.36.06-.73.1-1.1.16-.66.1-1.32.22-1.98.34s-1.32.23-1.97.38c-.65.14-1.3.33-1.95.47s-1.31.22-1.96.39c-.73.2-1.49.22-2.24.37-.7.13-1.4.26-2.1.4-.51.11-1,.26-1.5.36-.63.12-1.26.21-1.9.32Z"/>
      <path class="cls-2" d="m80.64,87.51c-.07.02-.15.06-.22.06-.18,0-.35.01-.53.01-.1.01-.08-.1.02-.16.09-.01.19-.01.29-.02h.42s.01.08.02.11Z"/>
      <path class="cls-2" d="m79.42,71.11c-.23,0-.24-.14-.1-.17.42-.1.93-.07,1.46-.09,1.01-.04,2.13-.04,3.11-.02-.97.16-2.1.2-3.12.21-.53,0-.91.07-1.35.07Z"/>
      <path class="cls-2" d="m95.54,65.81c.64-.17,1.32-.18,1.99-.28.24-.03.48-.08.71-.14.47-.13.94-.26,1.4-.41,1.43-.46,2.86-.93,4.25-1.52.58-.24,1.23-.36,1.85-.52.32-.09.64-.17.96-.24.15-.03.31-.02.47-.03,0,.04.01.08.01.12-.49.13-.98.26-1.46.39-.6.16-1.21.28-1.77.51-1.02.42-2.07.75-3.11,1.1-.8.28-1.61.5-2.42.74-.44.14-.88.27-1.35.24-.1-.01-.2.01-.3.03l-1.92.39c-.07.01-.14,0-.21.01-.52.04-1.03.08-1.55.11-.77.06-1.54.1-2.31.15l-1.89.12c-.19.01-.38.03-.56.05-.4.03-.8.04-1.2.11-.79.14-1.57.08-2.36.02-.01,0-.03-.01-.04-.01-.85-.04-1.69-.08-2.54-.12-.33-.01-.66-.01-.99,0-.61.03-1.23.04-1.83.12-.47.07-.93.24-1.4.34-.19.04-.4.01-.69.01.28-.17.44-.39.74-.37.01,0,.03,0,.04-.01.64-.32,1.33-.34,2.02-.34.61,0,1.22,0,1.83-.01.25,0,.49-.05.73-.03,1.22.06,2.43.15,3.65.22.12,0,.25-.02.38-.03.65-.06,1.3-.12,1.96-.17.67-.06,1.34-.11,2.01-.15.21-.02.42.04.63.02.83-.07,1.66-.16,2.48-.25.12-.01.23-.02.35-.02.48-.02.95-.02,1.44-.15Z"/>
      <path class="cls-2" d="m77.8,69.97c.65-.13,1.31-.25,1.97-.34.75-.1,1.51-.1,2.27-.14.96-.05,1.92-.08,2.88-.13.49-.02.98-.07,1.46-.09,1.08-.04,2.16-.07,3.23-.11.15,0,.29.03.44.05v.13c-.13.02-.25.05-.38.05-.99.04-1.98.06-2.97.1-1.1.05-2.21.13-3.31.19-.81.04-1.62.03-2.43.09-.74.06-1.48.16-2.21.28-.24.04-.47.08-.71.12-.1.02-.19.04-.29.06-.17.06-.23-.05-.23-.11,0-.07.12-.12.28-.15Z"/>
      <path class="cls-2" d="m80.83,88.8c-.55.09-1.1.19-1.65.26-.7.1-1.39.14-2.09.13-.19,0-.21-.16-.03-.24,1.24.02,2.46-.11,3.68-.35.79-.16,1.58-.28,2.37-.42.06-.01.13.01.22.1-.1.05-.2.13-.31.15-.73.13-1.46.25-2.19.37Z"/>
      <path class="cls-2" d="m80.58,93.69c0-.08.03-.15.12-.23.02.07.06.13.06.2.02.78,0,1.55-.26,2.3-.19.61-.33,1.25-.55,1.85-.23.66-.63,1.22-1.21,1.62-.48.34-.98.65-1.47.96-.12.08-.24.18-.48,0,.32-.21.59-.42.89-.58,1.15-.59,1.91-1.48,2.27-2.72.32-1.11.66-2.22.63-3.4Z"/>
      <path class="cls-2" d="m78.71,100.6c-.6.27-1.22.51-1.88.57-.33.03-.66.05-.99.05-.09,0-.18-.07-.28-.11.01-.05.02-.09.03-.14h.38c1.39.04,2.62-.4,3.7-1.27.17-.14.31-.33.45-.51.45-.57.88-1.16,1.34-1.72.44-.55.63-1.19.76-1.85.04-.17.05-.34.09-.51.04-.15.11-.29.35-.3-.15.63-.28,1.22-.45,1.8-.16.58-.58,1.02-.93,1.49-.26.37-.59.7-.83,1.09-.41.69-1.04,1.09-1.74,1.41Z"/>
      <path class="cls-2" d="m83.14,67.95c.88,0,1.75.02,2.63.02.53.01,1.06-.01,1.59.01.84.02,1.69.06,2.53.1.14,0,.29-.02.43-.02.8-.02,1.6.07,2.4-.08.1-.02.21.01.32.02-1,.21-2.01.31-3.03.29-1.43-.03-2.87-.04-4.3-.06-.63-.01-1.26-.02-1.89-.04-.65-.01-1.29-.06-1.94-.04-.55,0-1.11.06-1.66.16-.96.17-1.91.37-2.85.59-.71.17-1.41.38-2.12.57-.14.04-.23-.1-.14-.18.12-.09.33-.1.54-.16.68-.2,1.36-.41,2.06-.56,1.24-.27,2.49-.57,3.77-.62.55-.02,1.11,0,1.66,0Z"/>
      <path class="cls-2" d="m74.43,84.69s-.07-.02-.08-.07c-.01-.1-.04-.2.04-.31.02.03.05.05.06.07.02.07.03.14.04.21,0,.04-.03.09-.06.1Z"/>
      <path class="cls-2" d="m74.25,83.94q-.12-.14-.04-.22.1.13.04.22Z"/>
      <path class="cls-2" d="m76.65,92.77c.19-.01.38.02.57.09-.39.27-.84.11-1.25.18-.43.08-.89.07-1.33.06s-.88-.07-1.37-.11c.12-.24.27-.22.43-.21.59.03,1.17.06,1.76.06.4,0,.79-.06,1.19-.07Z"/>
      <path class="cls-2" d="m73.62,83.8c.14.27.12.57.17.86.01.05.01.13-.1.15-.02-.11-.05-.22-.05-.32.02-.43-.17-.79-.37-1.15-.03-.06-.11-.12-.01-.2.03.02.06.03.07.05.1.2.19.41.29.61Z"/>
      <path class="cls-2" d="m73.71,82.88c-.13-.2-.34-.33-.51-.48-.05-.05-.13-.08-.11-.23.26.21.52.36.68.61.1.15.22.29.27.47-.1.02-.14-.03-.17-.09-.06-.09-.11-.19-.16-.28Z"/>
      <path class="cls-2" d="m73.05,84.8s.06-.06.07-.05c.03.01.05.04.08.08-.03.02-.06.05-.07.04-.03-.01-.05-.04-.08-.07Z"/>
      <path class="cls-2" d="m72.82,84.07s.02-.06.04-.11c.12.17.18.55.11.7-.08-.02-.08-.09-.09-.15-.03-.15-.04-.3-.06-.44Z"/>
      <path class="cls-2" d="m72.74,76.89c.09.05.2-.03.25.09-.19.05-.22.04-.25-.09Z"/>
      <path class="cls-2" d="m72.71,76.69c-.1-.06-.16-.14-.12-.29.04.03.07.04.09.06.03.03.04.08.07.11.09.08.15.08.24.01.02-.02.05-.04.09-.06.04.12-.05.15-.1.18-.09.07-.18.06-.27-.01Z"/>
      <path class="cls-2" d="m72.65,83.17c-.04-.11-.08-.2-.16-.28-.03-.02-.03-.07-.06-.13.15.06.23.15.26.25.04.11.14.21.06.38-.04-.09-.08-.15-.1-.22Z"/>
      <path class="cls-2" d="m72.64,77.27c-.07,0-.15,0-.16-.12.1,0,.18.02.26.04.01.08-.04.08-.1.08Z"/>
      <path class="cls-2" d="m72.06,77.33c.13-.03.14-.02.14.11-.07-.03-.14-.03-.14-.11Z"/>
      <path class="cls-2" d="m72.13,76.43c-.05.11-.1.22,0,.3.09.07.19.02.28-.04.07.07.01.11-.02.15-.05.06-.09.11-.18.1-.18-.04-.31-.27-.23-.44q.03-.06.15-.07Z"/>
      <path class="cls-2" d="m72.12,84.15c-.06-.14-.13-.28-.2-.41-.04-.09-.05-.17-.02-.27.03.02.07.04.08.06.04.22.18.4.26.61.06.17.08.34.08.51,0,.02-.02.05-.03.09-.03-.04-.06-.06-.06-.08-.02-.08-.02-.17-.04-.25-.02-.09-.04-.18-.07-.26Z"/>
      <path class="cls-2" d="m71.8,84.3s.02-.01.04-.01c.02.03.05.06.05.09.02.13.1.24.02.38-.1-.14-.13-.29-.11-.46Z"/>
      <path class="cls-2" d="m71.44,77.46s.03-.03.05-.04c.02.02.03.04.04.06,0,.01-.02.02-.04.04-.03-.03-.04-.04-.05-.06Z"/>
      <path class="cls-2" d="m71.36,77.3c-.04-.09-.15-.14-.1-.28q.16.2.1.28Z"/>
      <path class="cls-2" d="m71.11,84.43c-.05-.17-.1-.34-.14-.52-.01-.02,0-.05,0-.11.13.15.39,1.01.38,1.2,0,.02-.03.04-.06.08-.03-.06-.06-.1-.06-.14-.01-.18-.08-.34-.12-.51Z"/>
      <path class="cls-2" d="m70.71,76.13c.15.22.14.41-.04.65-.01-.04-.02-.06-.02-.09.01-.03.04-.06.05-.1.06-.14.05-.28-.04-.4-.04-.05-.07-.1-.13-.17h.11s.04.07.07.11Z"/>
      <path class="cls-2" d="m78.55,93.59c-.09.13-.16.29-.25.44-.17-.09-.17-.22-.07-.35.49-.67.87-1.45,1.65-1.92-.5-.2-.97-.14-1.43-.11-.6.03-1.2.1-1.8.16-.58.06-1.17.14-1.75.19-1.21.1-2.4.4-3.63.33-.47-.03-.92-.14-1.37-.26,0-.03-.01-.06-.01-.09.08-.02.17-.08.23-.06,1.14.29,2.28.2,3.41-.01.3-.06.6-.07.9-.1.79-.08,1.57-.16,2.35-.23.57-.05,1.14-.08,1.71-.12.29-.02.57-.05.86-.05.13,0,.27,0,.38.05.29.14.55.1.81-.06.34-.21.73-.25,1.12-.29.07-.01.15.05.22.16-.32.09-.66.14-.97.26-.76.27-1.45.66-1.87,1.4-.13.23-.33.43-.49.66Z"/>
      <path class="cls-2" d="m71.12,98.45c-.41.44-.94.73-1.48.98.03-.3.25-.41.43-.51.72-.41,1.28-.96,1.64-1.71.04-.09.14-.15.21-.23.03.02.06.05.08.07-.11.57-.49.99-.88,1.4Z"/>
      <path class="cls-2" d="m70.12,73.56c0,.09-.09.2-.17.22-.2.04-.36-.13-.3-.33.03-.09.08-.17.17-.22.12.04.13.14.12.23.02.01.02.02.03.02.05.02.14-.01.15.08Z"/>
      <path class="cls-2" d="m69.23,81.64c.03.15-.03.25-.2.32.01-.16.11-.23.2-.32Z"/>
      <path class="cls-2" d="m68.26,99.19c.34-.23.68-.47,1.03-.72-.04.41-.41.7-1.03.72Z"/>
      <path class="cls-2" d="m68.97,72.7c-.02.32.12.57.24.83.08-.36.31-.56.67-.66-.3-.18-.59-.21-.91-.17Zm1.83.59c.06.15.12.3.11.48-.01.27-.08.5-.37.61-.08.03-.15.1-.23.15-.11.06-.23.08-.36.04-.1-.03-.22-.03-.31-.07-.23-.1-.44-.23-.62-.4-.32-.29-.42-.66-.4-1.08.02-.25.12-.46.36-.57.1-.04.2-.05.27-.06.42.04.78.11,1.11.32.21.14.34.36.44.58Zm-1.16,1.11c.14.06.31.07.47.08.14.02.26-.04.36-.17-.05,0-.07-.01-.1,0-.38.05-.67-.15-.94-.36-.23-.16-.38-.42-.45-.7-.03-.13-.08-.26-.12-.39h-.04c-.01.12-.02.23-.04.35-.02.19.02.38.11.55.16.32.44.5.75.64Zm.71-1.08c-.04-.07-.09-.14-.14-.2-.09-.1-.19-.19-.34-.16-.15.04-.29.1-.4.21-.22.21-.22.48,0,.68t.01.01c.12.08.23.18.4.2.04-.01.11-.02.16-.05.2-.14.32-.33.34-.58,0-.04-.01-.08-.03-.11Zm-.32-.46c.28.16.45.42.6.7.07.12.1.26.16.4.07-.11.07-.23.04-.34-.09-.35-.26-.66-.57-.87-.03-.02-.07-.05-.11-.06-.2-.06-.4-.13-.6-.18-.17-.03-.35-.05-.52.06.05,0,.1.02.15.02.19-.04.36.02.53.09.11.04.22.11.32.18Zm-.08,1.31c.28.04.52.1.75-.05-.01-.21-.13-.53-.24-.64-.06.29-.23.51-.51.69Z"/>
      <path class="cls-2" d="m68.44,81.63c.11-.16.13-.33.13-.52,0-.09.01-.18.02-.27.01-.04.03-.08.09-.07.01.02.02.03.02.05-.02.19-.02.38-.04.58-.02.14-.09.26-.19.37-.02.02-.05.02-.08.03-.01-.02-.01-.03-.02-.05.03-.04.05-.08.07-.12Z"/>
      <path class="cls-2" d="m68.03,81.69c-.04-.11-.05-.18.01-.24.05-.06.07-.17.19-.11-.06.11-.12.21-.2.35Z"/>
      <path class="cls-2" d="m67.73,82.12c.08-.06.14-.12.24-.09-.05.13-.14.17-.24.09Z"/>
      <path class="cls-2" d="m67.8,76.82c.01-.12-.02-.24,0-.36.03-.21.13-.4.28-.55.11-.13.23-.25.37-.35.12-.09.27-.15.41-.22.02-.01.04.01.07.01v.04c-.07.04-.14.09-.21.12-.17.07-.31.17-.43.31-.11.12-.22.22-.3.37-.13.25-.13.51-.1.76.02.16.14.31.21.46.02.04.06.07.01.12-.02-.01-.06-.02-.07-.05-.15-.19-.26-.4-.24-.66Z"/>
      <path class="cls-2" d="m68.53,85.93s-.08.01-.1.04c-.16.13-.36.15-.53.24-.04.02-.1,0-.15,0,0-.02,0-.04-.01-.06.12-.04.23-.1.35-.13.22-.05.4-.19.6-.29.01-.01.03-.03.05-.03.01-.01.02-.01.04-.01.03.04.03.08-.01.11-.07.05-.14.13-.24.13Z"/>
      <path class="cls-2" d="m67.93,80.65c0,.17-.02.35-.07.52-.03.11-.11.21-.18.3-.05.07-.12.11-.18.16-.01.02-.05.02-.06.01-.01-.02-.02-.06-.01-.07.02-.03.05-.06.08-.08.2-.14.27-.35.3-.58.01-.12.03-.24.04-.38.1.02.09.08.08.12Z"/>
      <path class="cls-2" d="m67.44,86.18s-.04.06-.05.07c-.05.02-.37.03-.43.02.01-.02,0-.04.01-.05.14-.05.29-.07.47-.04Z"/>
      <path class="cls-2" d="m66.75,86.86c.38.04.74-.06,1.09-.17.12-.03.23-.06.35-.08.24-.05.44-.19.65-.32.02.03.05.05.04.07-.01.03-.03.07-.06.08-.24.14-.48.26-.75.31-.15.03-.29.07-.44.12-.35.1-.7.14-1.06.11-.05,0-.11-.01-.16-.03-.03-.01-.05-.05-.09-.1.17,0,.31-.01.43.01Z"/>
      <path class="cls-2" d="m69.96,94.48c.06.14.13.22.12.27-.18.83-.37,1.67-.83,2.39-.3.46-.68.89-1.06,1.3-.46.48-1.05.79-1.69.99-.07.03-.16,0-.33-.01.12-.1.15-.14.2-.17.39-.2.81-.37,1.18-.6.25-.15.48-.36.68-.59.29-.35.59-.7.82-1.1.37-.68.63-1.41.81-2.17.02-.07.05-.15.1-.31Z"/>
      <path class="cls-2" d="m67.64,84.3c.14-.01.28.02.42.03l.3.03c.11,0,.22.02.32.09.02.02.04.05.07.09-.04.01-.06.01-.08.01-.27-.09-.55-.09-.84-.11-.36-.03-.71.04-1.06.09-.12.02-.24.04-.37-.06.06-.02.09-.04.13-.04.07-.01.15,0,.22-.01.3-.04.59-.09.89-.12Z"/>
      <path class="cls-2" d="m67.57,85.62c-.24.03-.48.04-.72.07-.39.05-.76-.04-1.12-.16-.09-.03-.16-.09-.24-.14.01-.01.01-.03.02-.04.03,0,.08-.02.1,0,.25.16.55.17.83.25h.08c.31-.02.63-.05.94-.07.31-.01.56-.16.82-.29.2-.1.4-.2.6-.31.05.06.01.1-.04.14-.06.03-.12.07-.19.1-.23.11-.45.23-.69.33-.12.06-.26.1-.39.12Z"/>
      <path class="cls-2" d="m65.15,86.79s-.04-.08-.06-.13c.01,0,.03-.02.04-.03.16.08.33.16.49.25.01.01.01.04.02.06-.2.04-.34-.08-.49-.15Z"/>
      <path class="cls-2" d="m65.2,81.57c-.28-.09-.5-.35-.48-.61.06.11.09.19.14.25.05.07.14.11.18.18.05.07.17.06.16.18Z"/>
      <path class="cls-2" d="m64.46,82.04s.03-.05.03-.05l.12.06s.02.04.05.08c-.05,0-.08.02-.09.01-.04-.03-.08-.07-.11-.1Z"/>
      <path class="cls-2" d="m67.22,84.78c.26-.04.53-.08.79-.12.02,0,.03.01.05.02.01.07-.04.08-.08.09-.16.03-.32.07-.48.09-.15.03-.31.05-.46.07-.03,0-.05.01-.07.01-.16-.02-.32-.04-.48-.08-.23-.06-.46-.12-.68-.22-.35-.15-.69-.33-.93-.65-.11-.15-.24-.29-.36-.44-.04-.05-.08-.1-.12-.16-.02-.05-.04-.11.02-.19.15.3.38.51.57.76.12.15.27.27.44.36.18.08.35.2.55.26.31.09.62.19.95.23.09,0,.19-.02.29-.03Z"/>
      <path class="cls-2" d="m64.57,84.49l.32.32s.08.08.12.13l-.03.03c-.15-.01-.24-.14-.33-.23-.1-.1-.17-.22-.28-.35.05,0,.09-.01.11,0,.03.02.06.06.09.1Z"/>
      <path class="cls-2" d="m65.22,86.08c-.27-.11-.53-.25-.73-.47-.06-.06-.1-.13-.15-.2-.03-.04-.02-.08.05-.14.02.03.03.06.05.09.12.22.32.35.53.47.28.17.58.27.91.28.04,0,.08.03.12.04,0,.02,0,.03-.01.04-.27.07-.53-.01-.77-.11Z"/>
      <path class="cls-2" d="m64.06,83.97c.04-.05.08-.04.11,0,.03.06.05.13.08.19-.11,0-.12,0-.19-.19Z"/>
      <path class="cls-2" d="m72.88,78.12c-.02.06-.05.12-.07.18q.09-.06.07-.18Zm-3.34-1.61c-.19-.13-.4-.19-.63-.2-.06,0-.12,0-.18.02-.01.01-.01.02-.01.03.28.19.46.49.79.62.07-.05.14-.09.13-.19,0-.1-.01-.21-.1-.28Zm-.94-.06c-.09.2-.07.36.04.47.05.05.1.11.17.16.23.17.39.25.62.09-.27-.24-.55-.48-.83-.72Zm5.15-1c0-.18-.09-.35-.23-.41-.12.2,0,.41.23.41Zm-2.03-1.09c-.09.2-.09.22.07.33.05.04.1.07.15.11.02-.01.03-.02.04-.03-.04-.15-.14-.27-.26-.41Zm-4.53,5.98c-.25.3-.55.45-.95.36-.06-.02-.13-.03-.19-.04-.27-.04-.47-.16-.51-.46,0-.01-.01-.03-.02-.04h-.03c-.03.08-.05.16-.08.24-.05.17.02.31.12.44.11.13.27.17.43.23.25.08.5.13.77.06.15-.05.27-.12.35-.27.04-.1.09-.19.14-.28.04-.09.03-.15-.03-.24Zm3.6-1.51c.06.03.1.09.15.12.28.21.59.34.94.33.15-.01.3-.04.44-.04.19-.01.35-.06.5-.17.17-.13.2-.26.11-.48-.08.04-.14.08-.22.09-.2.05-.4.09-.6.14-.11.02-.22.05-.34.03-.16-.03-.32-.06-.48-.1-.17-.05-.35-.09-.49-.22-.04-.04-.1-.05-.18-.09.01.17.03.31.17.39Zm.3-.47v-.36c-.16-.03-.27,0-.32.17.05.15.17.19.32.19Zm.16-1.94c-.09-.05-.16-.13-.25-.18-.12-.08-.24-.15-.36-.22,0-.01-.01-.01-.01-.01-.1-.14-.14-.16-.32-.13.06.09.12.18.19.27.14.2.18.4.07.63-.01.01-.01.03-.01.05.11.12.24.24.35.36.06.06.12.12.15.19.08.2.15.39.14.61-.01.1,0,.2.01.31.01.07.04.12.12.13.11.01.23.04.34.06.13,0,.27.04.41.02.19-.01.38-.06.56-.09.1-.34.26-.63.51-.86.09-.09.19-.18.28-.28.13-.17.28-.34.33-.56.07-.3.08-.59.05-.9,0-.08-.02-.16-.03-.25-.28.06-.33-.17-.45-.34-.01.05-.02.07-.01.09.01.18.03.35.05.53v.27c0,.07-.04.11-.13.12-.03-.1-.08-.19-.09-.29-.03-.29-.21-.48-.37-.71.08.35.17.69.09,1.05-.09,0-.08-.05-.09-.11-.01-.19-.02-.38-.05-.57-.03-.24-.11-.47-.28-.65-.07-.07-.14-.16-.27-.2.02.08.04.13.06.18l.18.51c.08.26.07.52.02.79-.01.05-.05.09-.08.14-.01-.01-.03-.01-.04-.01.04-.26.1-.51.03-.76-.06-.25-.13-.49-.26-.75-.08.11-.15.07-.21.03-.08-.04-.15-.1-.22-.15-.11-.09-.14-.19-.09-.32.01-.03.03-.05.04-.09-.02-.01-.04-.02-.05-.02s-.03,0-.04.02c-.07.17-.17.33-.08.52.1.22.19.45.3.67.1.19.16.37.12.59-.05.3-.34.46-.61.31Zm-.45,3.38c.05.44-.07.86-.23,1.27-.07.19-.18.35-.33.48-.23.2-.48.39-.69.61-.25.25-.56.35-.89.41-.07.02-.14.04-.21.03-.23-.03-.47-.05-.69-.12-.17-.05-.35-.1-.52-.13-.17-.04-.32-.1-.45-.2-.24-.19-.53-.29-.81-.39-.18-.07-.35-.05-.47.11-.13.18-.27.36-.39.55-.03.04-.02.11-.01.17.01.13.11.22.18.32.14.21.32.38.52.52.1.07.21.11.32.17.16.1.34.16.52.21.52.15,1.03.26,1.57.18.34-.04.68-.06,1.02-.14.21-.05.42-.1.63-.17.44-.14.79-.46,1.21-.65,0-.01.02-.02.04-.03.18-.15.37-.3.55-.46.26-.25.5-.52.65-.85.05-.12.1-.23.17-.34.18-.32.32-.66.39-1.02.06-.32.07-.65.1-.98,0-.04-.01-.08-.02-.13-.03,0-.06,0-.08.01-.17.06-.33.12-.49.18-.06.02-.13.02-.19.03-.17.01-.33,0-.49.03-.17.04-.32,0-.47-.08-.17-.08-.35-.14-.54-.22.01.07.02.12.03.17.02.16.05.3.07.46Zm5.23,7.69c.07-.02.1-.05.09-.13-.09-.06-.19-.12-.31-.12-.06,0-.11,0-.17,0-.07-.02-.1-.1-.05-.15.04-.03.09-.05.14-.06.13-.02.26-.03.39-.05.03,0,.06-.03.09-.06-.11-.11-.22-.16-.36-.14-.06.01-.12.03-.19.04-.06.01-.1-.02-.11-.08-.01-.05.03-.07.08-.08.11-.02.21-.08.33-.08.05,0,.11-.04.15-.08.09-.09.08-.18-.04-.23-.22-.07-.44-.12-.67-.1-.2.01-.4.02-.59-.02-.22-.04-.37-.18-.39-.42-.01-.13-.04-.26-.07-.41-.2.02-.38.03-.59.04.01.22,0,.41-.03.61-.03.19-.04.39-.05.6,0,.16.01.32.03.48,0,.04.03.1.07.12.17.11.34.23.53.32.23.11.49.12.75.12.18,0,.36-.01.54-.03.14-.02.29-.06.43-.09Zm-6.01-16.64c.18-.01.35.05.52.13.29.13.54.32.75.55s.44.43.59.71c.11.22.24.44.36.66.11.18.12.37,0,.56-.03.05-.08.1-.13.12-.14.04-.23.13-.31.24-.07.11-.13.22-.2.33.02.02.04.04.06.05.32.12.57.34.78.6.03.04.08.08.12.1.16.08.28.2.37.34.07.11.15.21.24.34,0-.15.02-.26.03-.38,0-.03,0-.06.01-.08.04-.24.28-.33.46-.18.07.06.14.16.16.24.07.41.15.82.13,1.24-.01.32-.12.6-.37.82-.15.14-.27.31-.4.47-.02.03-.05.05-.07.07-.14.11-.16.14-.08.29.13.23.11.47.12.73.01.16-.07.31-.06.47.02.17.01.33.02.49.02.32-.06.62-.16.92-.1.28-.2.56-.3.86.11.03.22.08.34.11.34.08.63.23.88.47.06.06.13.1.2.15.18.14.27.34.38.52.18.3.3.63.39.96.07.23.12.46.16.7.04.21.07.43.1.65.01.04.01.08.01.13,0,.08-.03.1-.11.09-.14,0-.28,0-.44-.02-.01.07-.03.13-.03.19,0,.09.01.18.02.26.01.13.09.2.2.24.17.07.34.04.52.04.21-.01.43-.02.65.01.21.02.43.25.37.47-.02.06-.05.11-.08.18.05.07.15.14.12.26-.02.12-.11.16-.24.18.09.1.18.17.18.3.01.11-.02.2-.12.23-.1.04-.22.05-.33.07-.07.02-.15.03-.22.04-.42.02-.83,0-1.24-.09-.17-.04-.29-.15-.43-.21-.05-.02-.1-.06-.15-.09-.11-.06-.19-.15-.22-.28-.03-.16-.07-.32-.09-.49-.01-.05,0-.1.01-.16.02-.25.04-.49.02-.74,0-.04.02-.09.03-.13l.07-.21c-.65,0-1.28-.02-1.9.04-.07.21-.04.41.05.6.07.18.34.33.55.32.29-.02.57.01.84.1.18.07.22.14.16.33-.01.01-.01.03-.02.04.05.08.09.16.14.25-.03.02-.05.04-.07.06.02.07.03.14.06.21.03.1-.01.17-.08.23-.13.1-.27.15-.43.15-.53,0-1.06-.02-1.57-.16-.08-.01-.15-.04-.22-.07-.22-.1-.34-.27-.4-.51-.08-.34-.1-.7-.08-1.05.01-.11.06-.22.09-.33.01-.02.01-.04.01-.08-.07.02-.13.03-.2.05-.07-.02-.09-.07-.1-.14-.01-.2-.04-.39-.06-.59-.04-.32-.36-.52-.66-.39-.11.04-.17.14-.2.26-.05.19-.02.39-.02.59v.56c-.01.25-.03.49-.05.74-.02.19-.11.36-.27.48-.08.08-.18.15-.28.19-.18.07-.36.15-.54.18-.46.08-.92.15-1.38.22h-.12c-.07-.01-.14-.02-.2,0-.28.06-.54-.02-.8-.09-.19-.05-.38-.09-.57-.15-.25-.08-.5-.16-.73-.28-.16-.08-.28-.22-.41-.34-.29-.27-.3-.65-.37-1.01l-.03-.24c-.02-.17-.04-.34-.04-.51,0-.22-.03-.45-.02-.68,0-.26.02-.51.05-.77.01-.18.04-.37.08-.55.04-.25.09-.5.14-.76.02-.12.04-.25.06-.38,0-.02,0-.05.01-.07.1-.31.19-.62.29-.93.04-.12.1-.25.18-.35.19-.24.37-.5.67-.64.05-.02.11-.06.16-.09.12-.07.19-.15.2-.31.01-.11.05-.23.07-.35.06-.27.13-.54.19-.81.04-.18-.04-.33-.14-.47-.32-.46-.58-.93-.65-1.5-.03-.26-.06-.53-.07-.8,0-.35.08-.68.24-.99.25-.49.54-.95.86-1.39.11-.15.17-.32.21-.5.02-.09.06-.16.13-.22.01-.01.02-.02.03-.04.2-.31.5-.53.77-.77.32-.29.69-.47,1.1-.57l.75-.18c.06-.02.13-.02.2-.02.26-.01.53-.03.8-.04Zm.76,15.3c-.04.26.05.51.09.76.03.26.27.46.55.5.24.04.48.04.71.09.32.08.63.02.95.01.13-.01.19-.12.15-.27h-.43c-.11,0-.16-.04-.16-.1.01-.06.09-.09.18-.08.02,0,.03,0,.05,0,.08.01.16.01.24.01.06,0,.1-.02.1-.08.01-.06-.03-.1-.08-.1-.07-.01-.14,0-.21,0-.1.02-.14.01-.2-.11.02-.01.03-.04.05-.04.12-.02.23-.06.35-.04.03.01.09-.01.09-.04.01-.02-.01-.06-.03-.09,0-.02-.04-.03-.07-.04-.21-.08-.45-.14-.67-.09-.15.04-.29.02-.43-.01-.28-.07-.48-.19-.49-.52-.01-.16-.03-.32-.04-.47-.14-.04-.26,0-.38.02-.1.01-.17.07-.2.16-.04.17-.09.34-.12.51Zm.26-10.43c.02-.09.06-.18.04-.26-.04-.28.06-.53.11-.79.05-.28.19-.53.33-.76.06-.11.13-.2.2-.31-.02-.02-.04-.04-.06-.05-.18-.13-.34-.27-.44-.48-.04-.09-.11-.18-.18-.25-.25-.23-.51-.45-.83-.61-.35-.17-.72-.24-1.11-.2-.16.01-.33.05-.48.14-.26.16-.49.35-.7.57-.12.13-.24.26-.33.42-.19.32-.44.56-.82.62-.2.03-.39-.03-.46-.21-.03-.06-.06-.11-.1-.18-.12.14-.24.27-.34.41-.15.18-.29.37-.41.57-.11.18-.22.37-.28.57-.1.28-.13.58-.11.89.01.27.03.53.13.79.08.18.15.37.23.56.15.4.37.75.66,1.07.02.02.03.05.05.11-.09-.03-.14-.06-.2-.08-.01.03-.03.05-.03.08-.06.34-.11.68-.22,1-.01.04-.02.08-.02.12,0,.24-.03.49.06.73.11.27.23.37.51.34.15-.02.31-.04.47-.05.26-.03.36-.15.36-.41.01-.26.01-.53.11-.77.03-.06.04-.11.06-.17q-.35-.21-.39-.35c.16.05.29.09.42.15.11.05.21.07.33.06.23,0,.43-.09.62-.19.25-.12.37-.33.37-.62,0-.26.09-.48.31-.64.06-.04.1-.09.16-.14-.33-.15-.45-.27-.61-.55-.06-.08-.07-.17-.05-.26s.05-.17.07-.25c.03-.13.12-.17.23-.17.11-.01.22-.01.33.01.19.04.39.1.59.16v-.2c0-.34.17-.59.45-.76.05-.04.14-.04.2-.03.16.03.3.11.41.24.09.1.2.16.36.13Zm-.81.97c-.23-.19-.27-.42-.24-.69.01-.11.07-.18.19-.22.14-.04.3.01.38.04.07.04.13.07.17.1.16.11.32.22.49.33.06.03.13.06.19.08.19.06.31-.01.35-.2.05-.19,0-.37-.08-.54-.03-.05-.05-.1-.07-.14-.08-.19-.17-.38-.27-.59-.13.32.02.66-.14.95-.02.04-.04.09-.08.1-.15.07-.27.04-.39-.07-.03-.03-.2-.15-.2-.15-.09-.05-.17-.09-.24-.14-.12-.07-.16-.08-.24.04-.18.24-.3.49-.24.8.06.34,0,.64-.27.89-.07.06-.13.12-.22.15-.24.05-.38.25-.51.43-.04.05-.03.12-.04.19-.03.16.04.33-.07.48-.12.18-.26.35-.48.44-.04.01-.09.03-.13.06-.22.12-.45.13-.68.1-.12.17-.18.42-.14.6.06.02.12.02.18.04.26.11.51.23.76.35.4.19.76.45,1.11.73.26.21.56.35.9.43.1-.18.2-.35.29-.53.1-.18.13-.38.15-.58.04-.37-.07-.72-.13-1.07-.03-.16-.09-.31-.11-.46-.05-.33.02-.62.33-.81.1-.06.19-.12.3-.2-.09-.13-.16-.28-.27-.4-.17-.19-.36-.38-.55-.54Zm0,7.63c.18.15.28.34.31.58.02.14.05.29.08.46.13-.03.24-.06.36-.08.32-.05.65-.09.97-.13.18-.01.36,0,.54,0,.16.01.31.04.47.05.25.01.5.01.76.01.07,0,.14-.01.21-.02.26-.03.53-.07.8-.05.16,0,.19-.02.21-.17.01-.05,0-.1-.01-.15-.02-.13-.06-.26-.08-.38-.09-.54-.24-1.04-.48-1.53-.13-.27-.3-.48-.53-.66-.37-.29-.77-.53-1.25-.61,0,0-.02.03-.03.04-.21.32-.44.62-.72.89-.21.2-.4.42-.65.56-.39.23-.77.44-1.16.65-.09.05-.19.08-.29.11-.12.03-.24.06-.37.08-.12.03-.24.06-.37.07-.24.03-.48.06-.73.09-.19.01-.39.05-.58.03-.28-.03-.56-.09-.84-.16-.5-.12-.98-.31-1.41-.62-.07-.05-.13-.13-.21-.17-.1-.06-.15-.15-.2-.24s-.09-.19-.12-.28c-.02-.05-.04-.1-.02-.14.07-.16.13-.33.22-.47.12-.19.27-.35.47-.47.16-.08.31-.09.47-.02.24.11.48.22.71.34.19.09.37.18.56.27.05.02.11.03.16.04.23.04.45.09.67.12.14.02.28.05.41.03.25-.04.51-.1.72-.26.24-.17.47-.37.7-.56.06-.05.11-.1.12-.18-.3-.04-.55-.19-.78-.37-.28-.2-.55-.41-.84-.6-.24-.14-.49-.26-.75-.38-.14-.06-.29-.1-.47-.07.03.05.05.08.07.12.09.16.15.33.12.53-.02.18-.09.33-.25.42-.11.07-.23.12-.35.18s-.26.09-.39.08c-.28-.01-.54-.08-.79-.2-.29-.14-.42-.39-.46-.69-.01-.11.01-.23.1-.32.07-.07.13-.15.2-.24-.15.09-.28.16-.4.24-.26.16-.42.4-.57.65-.11.17-.15.38-.2.58-.09.29-.18.58-.23.88-.05.29-.11.57-.16.86-.03.25-.02.5-.07.75-.08.36-.01.72-.03,1.09-.03.38.06.75.12,1.12.02.12.05.25.11.35.09.15.19.29.3.41.1.1.19.21.33.24.1.03.2.08.3.11.13.05.26.1.39.14s.27.07.41.1c.27.08.53.16.82.11.27-.04.54-.01.81-.06.43-.07.85-.14,1.26-.28.21-.07.42-.17.51-.38.11-.21.13-.46.13-.7s-.02-.48-.02-.72c0-.19.03-.37.04-.56.01-.13.02-.26.11-.35.07-.07.16-.12.25-.18.19-.12.39-.04.51.06Zm-.2-12.35c.37.11.65.36.94.61.1.09.21.18.27.3.12.21.3.36.46.53.07.07.23.07.34.01s.17-.15.14-.27c-.04-.14-.08-.28-.15-.4-.21-.38-.46-.74-.76-1.07-.15-.16-.32-.31-.52-.41-.38-.2-.79-.24-1.25-.27-.13.01-.31.03-.48.05-.15.02-.3.04-.45.07-.18.05-.36.11-.53.16l-.15.06c-.22.09-.4.24-.58.38-.3.23-.58.48-.82.79-.23.29-.19.59-.12.9.05.23.25.28.44.15.1-.07.19-.16.27-.24.22-.19.43-.39.64-.59.03-.03.05-.07.07-.11.12-.2.3-.36.49-.49.22-.16.47-.22.73-.27.35-.05.69,0,1.02.11Zm.07,4.02c-.06.24.03.42.16.58.06.07.12.14.25.09-.04-.16-.08-.31-.13-.45-.04-.12-.13-.19-.28-.22Z"/>
      <path class="cls-2" d="m76.3,67.08s.02.07.02.1c-.15.05-.3.1-.46.14-.87.18-1.73.38-2.6.55-.93.18-1.82.5-2.72.8-.59.21-1.21.35-1.84.41-.34.04-.67.16-.99.28-.79.31-1.56.64-2.35.95-.62.25-1.25.48-1.95.75.09-.24.24-.29.38-.35.44-.17.88-.34,1.32-.52.79-.32,1.6-.63,2.38-.97.62-.28,1.28-.32,1.92-.48.53-.13,1.05-.28,1.56-.47.87-.31,1.75-.54,2.65-.72.69-.14,1.38-.28,2.07-.41.2-.04.41-.04.61-.06Z"/>
      <path class="cls-2" d="m78.49,71.98c-2.45-1.85-5.52-1.69-8.4-1.79-.39.03-.79.07-1.18.15-2.18.35-4.25,1.33-5.93,2.81-1.01.97-2.15,1.95-2.37,3.41-.03.12-.11.7-.12.83-.02,0-.08.8-.08.8-.12,1.3-.29,1.27-.06,2.57,0,.21.11,1.61.11,1.61.21,1.18.39,1.47,1.06,2.48.07.28,1.35,2.26,2.48,2.98,1.54.98,3.45,1.72,5.32,1.87,2.39.19,4.83-.46,7.08-1.5.05-.02.11-.05.16-.07,1.52-.67,2.86-1.4,3.98-2.67.88-1.24,1.24-2.67,1.52-4.16.01-.45-.04-1.03-.04-1.47,0-.01-.1-1.48-.17-1.81-.07-.24-.37-1.51-.37-1.52-.42-1.95-1.68-3.14-2.99-4.52Zm-.85-1.1c.85.5,1.81.98,2.34,1.86.18.25.37.48.52.76.5.91,1.08,1.82,1.45,2.79.46,1.18.47,2.49.6,3.76-.02,2.59-.77,5.41-2.96,6.92-3.55,2.2-7.92,3.84-12.09,2.91-2.88-.73-5.57-2.8-6.93-5.49-.69-1.64-.79-3.48-.69-5.24-.06-2.12.48-4.32,2.15-5.7,2.55-2.74,6.37-4.07,10.04-3.68,1.69.01,3.42.08,4.99.8.01,0,.03.02.05.02.24-.02.36.19.53.29Z"/>
      <path class="cls-2" d="m58.78,81.29c.17-.03.42-.11.49-.08.04.04.05.11,0,.16-2.71.6-3.05.62-3.66.47.58-.19,1.11-.15,1.61-.26.52-.11,1.04-.2,1.56-.29Z"/>
      <path class="cls-2" d="m58.37,79.25c.06-.05.1-.13.17-.15.2-.06.4-.09.6-.12.1.03.16.12.16.16,0,.08-.04.18-.16.19-.19.01-.38.02-.56.02-.07,0-.14-.07-.21-.1Z"/>
      <path class="cls-2" d="m60.03,85.8c.26.05.52.11.78.16.19.08.12.27-.12.26-.83-.15-1.27-.22-2.1-.37-.18-.04-.37-.01-.55-.01-.2,0-.31-.07-.28-.31.79-.07,1.53.12,2.27.27Z"/>
      <path class="cls-2" d="m59.14,84.11c-.33-.02-.65.01-.97,0-.08-.01-.21-.09-.22-.14-.02-.16.11-.17.23-.17.46-.01.92-.01,1.38-.02h.15c.2.01.3.22.08.3-.2.07-.41.05-.65.03Z"/>
      <path class="cls-2" d="m58.72,76.72c-.81.19-1.61.38-2.42.56-.06.02-.12.01-.27.02.25-.25.49-.36.74-.44.14-.05.28-.08.41-.12.42-.1.83-.21,1.24-.32.04-.01.1-.01.13-.02.48-.18.81-.22.89-.19.09.04.08.29-.04.32-.27.13-.43.14-.68.19Z"/>
      <path class="cls-2" d="m78.75,90.46c-.44-.07-.86.02-1.28.06-.55.04-1.09.12-1.63.16-1.07.07-2.15.12-3.22.18-.13,0-.26.03-.38.05-.93.16-1.86.1-2.8.07-.46-.02-.92-.01-1.39-.03-.81-.03-1.62-.18-2.42-.3-1.01-.17-1.99-.42-2.96-.74-.61-.21-1.19-.48-1.81-.64-.63-.16-1.15-.58-1.79-.69-.67-.11-1.31-.3-1.91-.6-.19-.09-.36-.21-.52-.39.07.01.14-.01.2.02.72.37,1.49.58,2.27.76.34.09.67.24,1,.37l1.77.66c.16.06.32.11.49.16,1.1.36,2.21.72,3.37.87.73.1,1.46.27,2.19.32.72.06,1.45.03,2.18.02.66-.01,1.32-.03,1.98-.06,1.04-.06,2.08-.13,3.13-.2.27-.01.54-.06.81-.08.82-.08,1.64-.2,2.47-.23.8-.03,1.61.06,2.41.05.98,0,1.94.14,2.9.31.58.1,1.15.21,1.7.4.24.08.52.16.62.52-.42-.15-.76-.31-1.13-.42-.69-.19-1.38-.35-2.1-.38-.19-.01-.37-.05-.55-.09-.73-.14-1.46-.07-2.19-.08-.47-.01-.95.02-1.41-.05Z"/>
      <path class="cls-2" d="m55.8,86.63c.23.02.45.06.68.08.33.01.65.06.96.19.99.39,1.97.77,2.97,1.11.48.16.99.22,1.49.33.13.03.28.04.41.09.46.21.95.3,1.45.38.17.12.13.27-.06.24-.51-.1-1.01-.2-1.49-.4-.23-.1-.52-.03-.77-.09-.58-.15-1.16-.31-1.72-.5-.83-.29-1.63-.61-2.46-.9-.22-.08-.47-.12-.71-.13-.6-.02-1.18-.24-1.78-.1-.19.04-.4-.03-.59-.08-.06-.01-.1-.11-.15-.18.06-.03.13-.09.2-.09.28-.01.56-.01.85,0,.24,0,.48.03.72.05Z"/>
      <path class="cls-2" d="m55.05,82.5c1.11-.09,2.23-.1,3.31-.43.31-.09.82-.25.95-.23.11.09.05.26-.05.28-.19.03-.3.05-.49.09-.95.19-1.89.45-2.87.44-.46-.01-.92.05-1.37.09-.57.04-1.14.1-1.71.15-.06,0-.11-.03-.19-.04.03-.07.04-.13.07-.16.02-.03.08-.04.12-.04.74-.05,1.48-.1,2.23-.15Z"/>
      <path class="cls-2" d="m53.62,77.77c-.35.14-.73.23-1.13.35-.03-.26.14-.33.28-.35.82-.17,1.56-.55,2.31-.91,1.1-.52,2.19-1.06,3.3-1.56.63-.29.89-.38,1.54-.64.17-.07.23.03.18.13-.31.23-.72.36-1.11.51-.55.22-1.11.45-1.63.74-.72.4-1.46.73-2.2,1.06-.52.22-1.02.46-1.54.67Z"/>
      <path class="cls-2" d="m54.33,86.1c-.98-.11-1.96-.25-2.91-.52-.18-.05-.36-.1-.53-.17-.07-.02-.11-.09-.17-.14l.06-.09c.27.08.54.16.81.23.88.23,1.76.38,2.66.45.73.06,1.46.17,2.19.24.42.04.86.01,1.28.09,1.04.18,2.08.41,3.12.62.26.06.58.02.8.17.09.11-.03.24-.19.17-.31-.14-.62-.13-.94-.19-.48-.1-.96-.19-1.43-.29-.53-.11-1.05-.24-1.59-.31s-1.08-.08-1.63-.13c-.51-.04-1.02-.08-1.53-.13Z"/>
      <path class="cls-2" d="m49.81,78.15c1.23-.35,2.44-.72,3.58-1.29.73-.38,1.51-.66,2.2-1.09,1.05-.67,2.14-1.23,3.25-1.79.46-.23.92-.45,1.38-.67.48-.22.89-.54,1.33-.61.15-.03.22.12.08.24-1.25.59-2.38,1.13-3.61,1.74-.7.35-1.35.81-2.04,1.16-.85.45-1.71.85-2.56,1.26-.4.19-.8.38-1.22.52-.81.29-1.64.52-2.46.77-.05.01-.13-.02-.18-.04,0-.05,0-.09.02-.1.07-.04.14-.09.23-.1Z"/>
      <path class="cls-2" d="m51.82,80.29c-1.14.13-2.21.48-3.27.88-.16.05-.34.06-.51.07-.04,0-.08-.06-.13-.09.03-.05.05-.11.09-.12.74-.25,1.48-.55,2.24-.73.69-.16,1.37-.38,2.09-.44.48-.04.95-.21,1.43-.3.49-.1.98-.18,1.48-.26.54-.08,1.08-.15,1.62-.22.14-.02.29-.02.44-.02-.24.26-.55.25-.83.29-.79.13-1.59.22-2.38.35-.44.08-.89.17-1.32.35-.3.13-.63.2-.95.24Z"/>
      <path class="cls-2" d="m48.67,82.98c.49-.01.96.03,1.42.24.21.09.47.1.71.11.86.06,1.71.09,2.56.15,1.01.06,2.01.04,3.01-.08.71-.08,1.43-.14,2.14-.24.33-.05.73-.21,1-.13.04.03.13.1.02.15-.17.09-.87.16-1.3.22-.88.12-1.76.22-2.64.33-.09.01-.17.02-.26.01-1.04-.02-2.08-.01-3.12-.1-.65-.05-1.3-.12-1.96-.14-.22,0-.44-.1-.66-.16-.59-.18-1.2-.06-1.8-.1-.12,0-.24-.01-.39-.02.05-.25.17-.3.37-.29.3.03.6.05.9.05Z"/>
      <path class="cls-2" d="m47.17,84.36c-.37-.1-.72-.24-1.08-.43.07-.01.15-.06.21-.04.86.3,1.75.37,2.65.4,1.24.04,2.47.09,3.7.14.75.03,1.49.07,2.23.12.75.05,1.49.13,2.23.17.39.03.78.02,1.16.03.64.01,1.27.08,1.89.18.1.03.09.23-.04.2-.11-.03-.36-.03-.51-.05-.57-.08-1.09-.13-1.71-.12-.53.01-1.06-.04-1.59-.07-.45-.02-.91-.06-1.36-.08-.79-.06-1.59-.12-2.38-.16-1-.05-1.99-.08-2.99-.12-.52-.02-1.05,0-1.57-.03-.28,0-.57-.07-.84-.14Z"/>
      <path class="cls-2" d="m47.86,82.22c-.64.2-1.29.13-1.94.14-.21,0-.41-.06-.62-.09,0-.03-.01-.06-.01-.09.08-.02.17-.08.25-.07,1.11.1,2.2-.07,3.29-.21.98-.13,1.97-.23,2.95-.38.69-.1,1.38-.23,2.07-.36.83-.16,1.67-.29,2.47-.52.81-.23,1.64-.33,2.46-.47.15-.02.31-.08.46-.01.06.09.01.16-.05.18-.16.06-.3.09-.47.12-.56.11-1.13.17-1.69.28-.92.18-1.84.4-2.76.59-.66.13-1.33.23-1.99.34-.79.12-1.58.24-2.38.34-.62.08-1.25.13-1.87.2-.06.01-.12,0-.17.01Z"/>
      <path class="cls-2" d="m45.88,80.74c1.05-.29,2.09-.63,3.13-.94,1.18-.35,2.37-.65,3.58-.9.73-.15,1.44-.4,2.16-.59.8-.21,1.61-.41,2.42-.58.62-.14,1.24-.25,1.86-.37.11-.03.21-.04.26-.01.07.08.04.13-.02.17-.11.01-.14.01-.24.03s-.2.03-.29.06c-1.18.25-2.36.5-3.52.79-1.01.24-1.99.55-2.99.81-.77.2-1.56.37-2.33.57-.7.19-1.4.41-2.1.61-.39.11-.78.2-1.16.31-.96.28-1.92.57-2.88.84-.27.08-.55.09-.82.13l-.05-.11s.1-.1.16-.12c.94-.23,1.89-.44,2.83-.7Z"/>
      <path class="cls-2" d="m42.68,83.97c.45-.01.88.07,1.31.2.63.19,1.28.32,1.91.48.25.07.5.16.74.24.64.21,1.28.42,1.91.65.48.17.95.38,1.44.56.31.11.63.17.94.28.7.24,1.4.48,2.1.73,1.02.35,2.03.71,3.04,1.07.74.26,1.48.52,2.22.79.49.19.96.41,1.44.62-.01.04-.02.08-.04.12-.23-.07-.48-.11-.71-.2-.68-.25-1.36-.53-2.04-.79-.84-.31-1.69-.61-2.54-.92-.9-.32-1.8-.65-2.7-.96-.43-.15-.88-.25-1.31-.39-.76-.26-1.51-.54-2.27-.8-1.15-.39-2.28-.85-3.49-1.05-.31-.06-.6-.2-.9-.28-.26-.06-.54-.09-.81-.12-.48-.04-.97-.07-1.45-.11-.14-.02-.28-.09-.42-.13.01-.04.02-.08.02-.12.2.02.41,0,.6.05.34.09.67.09,1.01.08Z"/>
      <path class="cls-2" d="m33.16,81.98c-.27.12-.53-.05-.88-.57.41.11.58.44.88.57Z"/>
      <path class="cls-2" d="m33.24,85.15c-.63.18-1.27.34-1.91.5-.06,0-.12-.01-.19-.02.31-.27.69-.28,1.04-.39.35-.12.7-.23,1.14-.37-.04.14-.04.27-.08.28Z"/>
      <path class="cls-2" d="m29.25,90.26c.25-1.42.96-2.52,2.19-3.28.32-.19.63-.4.95-.59.06-.05.14-.08.21-.11.03.03.06.06.09.1-.24.19-.46.39-.7.58-.39.29-.82.54-1.16.88-.54.52-.97,1.12-1.13,1.88-.05.26-.16.5-.25.75-.03,0-.07,0-.1.01-.04-.08-.11-.16-.1-.22Z"/>
      <path class="cls-2" d="m29.48,94.49c.45-.37.72-.86.98-1.38.29-.59.39-1.22.57-1.84.06-.19.12-.36.27-.57.15.23.08.4.04.55-.18.72-.33,1.46-.69,2.12-.2.37-.48.71-.75,1.04-.08.1-.26.12-.39.19,0-.04-.02-.07-.03-.11Z"/>
      <path class="cls-2" d="m29.55,92.86c-.36.8-.77,1.57-1.36,2.23-.07.07-.16.12-.25.18-.15-.18-.03-.28.04-.38.2-.26.44-.5.61-.78.43-.71.8-1.45.94-2.29.12-.76.55-1.37.99-1.97.18-.23.37-.45.56-.66.1-.11.21-.19.32-.29.02.02.05.04.07.06-.03.07-.05.15-.09.21-.35.5-.7.99-1.04,1.48-.3.43-.46.91-.54,1.44-.04.26-.13.52-.25.77Z"/>
      <path class="cls-2" d="m30.53,78.68c-1.18-.59-2.15-1.41-3.24-2.04.67.1,3.01,1.59,3.24,2.04Z"/>
      <path class="cls-2" d="m29.57,86.51c-.08.45-.52.42-.67.69-.15.29-.36.54-.54.82-.16.26-.31.53-.48.81-.24-.16-.17-.34-.07-.52.18-.31.36-.62.56-.92.26-.41.65-.67,1.2-.88Z"/>
      <path class="cls-2" d="m26.78,92.48c-.22-.51-.02-1.85.39-2.53.03.1.06.14.05.18-.17.68-.2,1.37-.26,2.07-.01.12,0,.27-.18.28Z"/>
      <path class="cls-2" d="m29.57,87.41c.25-.42.59-.77.99-1.06.21-.14.44-.18.69-.15,0,.03,0,.06.02.09-.07.04-.14.09-.21.11-.39.12-.67.36-.91.67-.64.81-1.1,1.71-1.56,2.62-.19.38-.33.8-.43,1.21-.24,1.02-.46,2.04-.69,3.06-.12.54-.37,1.02-.68,1.47-.05.08-.14.14-.21.21-.14-.18,0-.3.07-.41.38-.59.51-1.27.65-1.94.14-.63.27-1.26.43-1.88.12-.49.25-.98.45-1.44.25-.57.57-1.12.87-1.67.16-.3.35-.59.52-.89Z"/>
      <path class="cls-2" d="m32.87,84.54c-.45.06-.91.07-1.35.18-.59.15-1.17.35-1.7.68-.62.39-1.2.81-1.73,1.32-.07.07-.14.14-.19.23-.33.57-.67,1.13-.98,1.71-.08.15-.09.33-.14.5-.03.1-.07.2-.19.29-.02-.08-.08-.18-.07-.26.06-.25.1-.51.22-.73.31-.6.64-1.19,1.02-1.74.22-.32.55-.58.86-.83.36-.29.73-.57,1.13-.79.74-.4,1.52-.74,2.4-.73.32,0,.64-.05.97-.07.07,0,.14.03.22.05v.09c-.15.03-.31.08-.47.1Z"/>
      <path class="cls-2" d="m26.92,96.8c-.13.12-.27.16-.51.02.36-.2.59-.44.71-.77.02-.06.16-.07.29-.12-.02.43-.26.65-.49.87Z"/>
      <path class="cls-2" d="m26.64,78.38c-.08-.08-.22-.14-.16-.4.39.34.74.64,1.08.94.49.46.85,1.04,1.27,1.56.43.53.94.99,1.52,1.39,1.17.78,2.5,1.1,3.82,1.48.13.04.28.03.38.21-.13,0-.23.02-.31,0-.78-.2-1.56-.37-2.32-.62-.64-.21-1.22-.55-1.79-.91-.83-.54-1.44-1.27-1.98-2.06-.42-.62-.98-1.09-1.51-1.59Z"/>
      <path class="cls-2" d="m26.25,87.93c.07.29-.04.48-.26.74-.1-.45-.08-.51.26-.74Z"/>
      <path class="cls-2" d="m32.66,80.36c-.45-.83-1.05-1.54-1.72-2.18-.48-.46-.98-.89-1.48-1.32-.36-.32-.76-.56-1.21-.72-.88-.32-1.74-.67-2.61-.99-.21-.08-.44-.14-.65-.21,0-.04.01-.08.02-.12.1.01.21,0,.3.03,1.19.37,2.38.76,3.5,1.31.26.12.5.29.72.47.54.45,1.08.91,1.59,1.39.73.69,1.36,1.46,1.81,2.36.19.39.37.79.61,1.14.46.66,1.09,1.13,1.81,1.47.14.07.28.14.41.29-.08.01-.18.05-.24.02-.72-.33-1.42-.74-1.92-1.35-.39-.47-.65-1.05-.94-1.59Z"/>
      <path class="cls-2" d="m25.83,78.94c-.53-.5-1.07-1-1.59-1.52-.32-.32-.57-.71-.68-1.17-.03-.1-.03-.21.03-.34.06.08.14.15.17.23.2.79.78,1.28,1.34,1.8.57.54,1.2,1.02,1.68,1.66.3.4.57.83.68,1.33.07.28.16.52.4.69.04.03.04.09.09.19-.28-.05-.46-.13-.55-.35-.06-.15-.13-.29-.17-.44-.24-.85-.79-1.49-1.4-2.08Z"/>
      <path class="cls-2" d="m23.51,76.49c.18.63.4,1.25.62,1.87.07.18.2.34.31.51.6.9,1.14,1.83,1.91,2.6.09.1.16.23.29.41-.14-.03-.23-.01-.27-.06-.37-.43-.75-.85-1.09-1.31-.46-.64-.91-1.29-1.32-1.96-.17-.28-.25-.63-.36-.95-.11-.29-.2-.59-.31-.89-.06-.17-.14-.34-.18-.52-.13-.57-.25-1.14-.36-1.72-.03-.17-.04-.34-.04-.51,0-.14-.04-.28.19-.32.08-.02.13-.21.21-.35.27,1,.87,1.74,1.58,2.39.95.86,2.05,1.52,3.16,2.15.89.5,1.72,1.1,2.33,1.94.37.5.75.98,1.12,1.48.02.02.02.07.03.1-.03.03-.06.05-.09.08-.15-.17-.3-.32-.44-.49-.36-.44-.7-.9-1.09-1.32-.46-.51-.96-.97-1.57-1.31-.79-.43-1.55-.91-2.28-1.43-.67-.48-1.37-.96-1.89-1.61-.3-.38-.55-.8-.82-1.21-.03-.04-.06-.08-.15-.18,0,.22-.03.38,0,.52.16.7.32,1.4.51,2.09Z"/>
      <path class="cls-2" d="m70.72,96.86c-.22.37-.4.79-.81,1.03-.02-.09-.02-.15,0-.21.3-.48.59-.95.86-1.44.33-.56.63-1.14.68-1.83.01-.23-.03-.34-.23-.43-.41-.19-.82-.41-1.23-.6-.08-.04-.18-.07-.27-.09-.05.2-.13.38-.13.56-.05.87-.47,1.61-.75,2.41-.07.16-.17.33-.41.3.52-1.06.97-2.63.97-3.35-.13-.03-.27-.08-.4-.1-.24-.03-.32.04-.33.27-.01.16,0,.32-.01.47-.04.41-.03.82-.13,1.2-.15.57-.37,1.12-.58,1.67-.2.5-.51.94-.85,1.37-.43.51-.89.93-1.45,1.28-.13.09-.24.2-.44.35.18.11.29.2.4.22.9.16,1.79.23,2.7.18.26-.01.53.01.77-.04.64-.15,1.28-.29,1.91-.5.93-.3,1.71-.85,2.38-1.57.27-.29.52-.61.74-.95.19-.28.34-.6.46-.92.09-.27.11-.55.18-.87-.05-.01-.14-.05-.24-.1-.4,1.24-1.36,1.97-2.23,2.87-.05-.31.1-.47.24-.59.51-.45.91-.99,1.32-1.53.17-.21.28-.46.31-.78-.32-.09-.62-.18-.92-.27-.3.81-.52,1.07-.91,1.09.3-.34.55-.7.65-1.14-.38-.25-.77-.43-1.2-.55-.18.45-.16.92-.41,1.33-.25.39-.4.85-.64,1.26Zm20.61-19.66c.44.03.89.09,1.33.1,1.19,0,2.39-.02,3.59-.01.65,0,1.32.05,1.97.06.55.02,1.09.03,1.64.02.65-.03,1.3-.13,1.97-.14,1.07-.02,2.15-.04,3.22-.18.55-.07,1.12-.07,1.68-.09.37-.01.75.01,1.11-.04.85-.1,1.68-.24,2.51-.4.56-.1,1.13-.2,1.65-.46.91-.43,1.88-.74,2.87-.96.05-.64-.01-.75-.62-.75-.75,0-1.49.05-2.24.07-.02,0-.05.03-.07.03-.3.05-.59.1-.87.15.24-.09.5-.23.75-.23.87,0,1.73-.27,2.61-.11.09.01.18-.01.34-.03-.06-.29-.09-.55-.13-.78-.8.19-1.55.37-2.29.56-.26.07-.49.17-.75.22-.3.07-.61.09-.93.12-.74.07-1.47.19-2.21.23-.71.02-1.41,0-2.12-.03-.66-.02-1.34-.09-2-.14-.72-.05-1.44-.09-2.15-.15-1.14-.12-2.28-.27-3.42-.37-.91-.08-1.83-.12-2.75-.17-.3-.03-.6-.03-.9-.03-.42-.01-.84-.06-1.25-.02-.97.09-1.93.22-2.91.33-.5.05-1,.09-1.49.16-.45.05-.91.12-1.36.16-.26.03-.51.07-.82-.1.42-.04.75-.05,1.09-.09.61-.06,1.23-.14,1.84-.22.9-.09,1.79-.19,2.69-.28.6-.05,1.2-.11,1.79-.11.7-.02,1.41.01,2.1.05.66.04,1.32.1,1.98.16.59.05,1.19.13,1.79.2.57.06,1.14.11,1.72.16,1.03.09,2.07.19,3.12.26.74.04,1.5.04,2.24.06.32,0,.63.04.95.01.87-.06,1.74-.15,2.61-.25.31-.04.6-.17.91-.24.21-.07.43-.12.66-.18.59-.16,1.18-.31,1.82-.48-.1-.42-.19-.79-.28-1.2-.23.03-.41.05-.59.08-.21.03-.42.09-.63.12-.47.08-.93.16-1.41.22-.55.08-1.1.17-1.66.21-.79.04-1.6.04-2.39.07-.69.02-1.37.05-2.06.09-.62.04-1.22.12-1.83.16-.21.02-.41.01-.62,0-.43-.04-.87-.12-1.32-.16-.35-.02-.72-.02-1.08-.04-.81-.03-1.62-.07-2.41-.12-.13,0-.27.05-.33-.2.66.02,1.32,0,1.97.06,1.01.1,2.03.06,3.04.2.7.1,1.41-.01,2.1-.05,1.04-.05,2.06-.13,3.09-.18.68-.04,1.35-.03,2.02-.09,1.06-.11,2.12-.28,3.19-.43.28-.04.55-.12.85-.2-.06-.33-.11-.62-.19-.91-.02-.07-.16-.16-.25-.19-.39-.06-.77-.11-1.16-.16-.67-.11-1.34-.21-2.02-.27-.78-.08-1.55-.16-2.31-.16-.68-.01-1.35.08-2.01.15-.9.07-1.8.16-2.7.24-.8.06-1.6.14-2.4.2-.96.07-1.92.11-2.86.22-.71.09-1.41.29-2.1.46-.46.1-.9.3-1.37.36-1.18.17-2.33.54-3.55.51-.21,0-.44.03-.66.05-.74.08-1.49.17-2.24.11-.14-.02-.27-.07-.41-.11,0-.04.01-.07.01-.1h.23c.26,0,.51.03.77.01.73-.05,1.46-.15,2.19-.18,1.24-.02,2.44-.29,3.65-.55,1.28-.25,2.53-.66,3.85-.8.86-.09,1.71-.14,2.56-.21.89-.07,1.78-.14,2.66-.23.74-.06,1.48-.15,2.23-.23.2-.02.42-.04.64-.05.76-.02,1.53-.09,2.3-.06.61.01,1.23.11,1.84.2.69.1,1.38.22,2.08.32.28.04.56.08.9.12-.1-.66-.2-1.24-.42-1.81-1.57.33-3.13.32-4.7.32.15-.09.29-.14.43-.15.89-.07,1.8-.09,2.7-.17.51-.04,1.01-.13,1.53-.19-.06-.4-.12-.73-.2-1.07-.41.01-.81.1-1.22-.03.28-.46.76-.17,1.12-.35-.06-.26-.11-.52-.16-.81-.47-.03-.92-.09-1.35-.06-.71.07-1.4.21-2.09.3-.17.02-.35.01-.51.01v-.09c1.25-.29,2.52-.5,3.84-.4.04-.49-.18-.84-.39-1.21-.12-.22-.27-.32-.52-.22-.1.04-.23.01-.35.01-.98.04-1.97.15-2.94.38-.42.1-.84.25-1.28.3-1.14.16-2.21.51-3.28.87-.66.22-1.34.43-2.01.66-.58.2-1.19.38-1.76.64-.44.19-.87.35-1.33.47-.51.11-1.01.28-1.53.41-.9.2-1.81.45-2.72.59-.88.12-1.77.14-2.66.2-.07,0-.14-.02-.25-.05q.22-.18.35-.17c.11,0,.23.04.35.03.85-.1,1.74-.08,2.59-.29.63-.16,1.27-.27,1.9-.43.59-.14,1.19-.29,1.78-.46.37-.1.74-.2,1.1-.33.42-.15.83-.35,1.24-.5.56-.2,1.14-.41,1.7-.59,1.1-.36,2.2-.73,3.31-1.05.67-.19,1.35-.32,2.01-.46.64-.13,1.27-.27,1.91-.34.6-.07,1.2-.07,1.8-.11.06,0,.09-.02.16-.03-.23-.44-.25-.44-.63-.35-.37.09-.73.17-1.1.2-.88.08-1.77.12-2.65.18-.11,0-.24-.02-.36-.03.05-.12.13-.18.21-.2.29-.05.6-.07.89-.1.62-.04,1.25-.05,1.86-.11.37-.03.74-.12,1.23-.2-.41-.39-.71-.76-1.27-.6-.08.03-.17.02-.25.02-.85.1-1.67.26-2.47.56-.98.37-1.96.72-2.96,1.04-.81.26-1.64.49-2.46.74-.43.14-.87.3-1.3.41-.78.16-1.58.29-2.36.44-.47.09-.93.2-1.39.27-.49.09-.99.18-1.49.23-.68.08-1.37.13-2.05.18-.28.03-.55.02-.83.04-1.11.08-2.21.19-3.34.23-1,.04-2.01,0-3,0-.91.01-1.81.05-2.72.09-.46.01-.92.05-1.37.08-.28,0-.55-.01-.82,0-.79.08-1.57.14-2.35.26-.99.14-1.98.3-2.96.51-1.15.25-2.29.55-3.43.84-.16.04-.33.09-.5.13-.39.1-.35-.11-.2-.17.22-.06.45-.12.67-.19.48-.14.98-.28,1.48-.39,1.02-.25,2.05-.48,3.07-.68,1.51-.3,3.02-.49,4.57-.53.4-.01.81-.01,1.2-.02.83-.05,1.67-.1,2.5-.16,1.64-.09,3.27.09,4.91-.07,1.17-.11,2.36-.13,3.52-.21.4,0,.78-.05,1.17-.1.96-.15,1.92-.33,2.88-.47.97-.16,1.94-.34,2.9-.59.58-.17,1.13-.39,1.7-.57.69-.2,1.4-.34,2.08-.58,1.25-.44,2.48-.95,3.78-1.26.49-.11.99-.22,1.48-.32.07-.01.14-.02.21-.05-.64-.41-1.29-.72-2.04-.75-1.25-.06-2.46.15-3.65.47-.62.15-1.22.33-1.83.47-.83.2-1.69.35-2.52.55-.53.12-1.05.3-1.58.44-1.14.29-2.27.57-3.4.86-.59.15-1.17.3-1.75.43-.46.09-.94.17-1.4.23-.45.07-.91.13-1.36.17-.7.05-1.39.07-2.09.14-.68.06-1.36.18-2.05.15-1.17-.04-2.33-.07-3.5-.1-.8-.01-1.6.09-2.4.03-1.15-.08-2.29.07-3.44.07-.07.01-.14.04-.21.05l-2.25.39c-.51.09-1.05.15-1.56.27-.32.06-.6.25-.92.33-1.12.25-2.23.54-3.36.74-1.43.26-2.74.83-4,1.5-.96.51-1.84,1.14-2.77,1.73-.39.24-.79.51-1.19.75-.52.32-1.07.6-1.6.95-.82.52-1.62,1.07-2.43,1.62-.16.11-.33.23-.51.32-1.29.68-2.6,1.36-3.9,2.01-1.06.53-2.15,1.01-3.23,1.54-.62.29-1.26.61-1.88.93-.72.36-1.42.76-2.14,1.12-.35.17-.76.26-1.1.47-.9.54-1.89.88-2.89,1.2-.82.26-1.64.51-2.47.73-.22.05-.45.12-.68.17-.48.1-.98.16-1.49.06-.64-.13-1.21-.41-1.69-.79-.82-.65-1.46-1.46-1.88-2.42-.27-.61-.47-1.27-.89-1.8-.3-.43-.55-.91-.89-1.31-.69-.77-1.54-1.36-2.49-1.77-1.1-.47-2.22-.87-3.35-1.3-.17-.07-.36-.1-.52-.17-.23-.07-.46-.15-.68-.25-.35-.16-.71-.32-1.03-.53-.28-.19-.51-.45-.78-.69-.05.13-.09.23-.12.33-.18.62-.21,1.26-.2,1.88.03.8.09,1.58.4,2.32.06.17.09.36.13.54.09.37.14.77.27,1.12.19.5.39.99.65,1.45.4.72.83,1.41,1.48,1.93.13.11.23.23.34.35.62.69,1.37,1.21,2.25,1.53.33.13.72.12,1.09.18.48.11.98.21,1.48.17.09-.01.18-.01.26.01.13.05.25.13.22.28-.04.11-.12.26-.21.3-.54.18-1.09.36-1.64.5-.7.18-1.23.6-1.67,1.14-.27.32-.52.65-.77.97-.13.18-.28.34-.33.54-.23.83-.45,1.65-.47,2.53-.02.87.06,1.7.31,2.53.13.44.17.91.18,1.36.03.5-.02,1.01-.04,1.51-.01.78-.16,1.54-.47,2.25-.04.11-.05.21-.08.31.03.01.05.04.08.05.45-.24.88-.5,1.32-.75.37-.22.71-.46,1.09-.67.72-.41,1.33-.97,1.9-1.57.26-.26.44-.58.63-.87.49-.71.98-1.41,1.33-2.2.31-.71.56-1.43.67-2.18.08-.6.12-1.2.28-1.78.12-.56.39-1.07.57-1.62.25-.73.68-1.32,1.28-1.8.05-.03.13-.09.16-.14.21-.42.67-.51,1.05-.6.62-.14,1.3-.14,1.98-.2.06-.21.22-.27.4-.3.06,0,.11-.01.17-.01.11,0,.2,0,.3-.01.4-.07.78-.14,1.18-.19.37-.04.74-.07,1.11-.09.65-.06,1.31-.15,1.97-.15.78-.01,1.57.04,2.36.08.07,0,.15.08.23.13-1.21.05-2.38.03-3.56.06-1.18.05-2.36.14-3.51.45.08.08.17.12.26.14.51.13,1.05.19,1.53.39.52.19,1.04.19,1.55.28.82.15,1.65.24,2.46.41.64.13,1.25.33,1.88.52.49.14.96.31,1.42.48.24.08.46.25.7.3.47.1.89.3,1.32.45.45.18.89.41,1.33.6.17.08.35.09.52.17.2.09.39.22.61.29,1.09.4,2.18.78,3.26,1.21.43.15.83.35,1.24.55.54.24,1.03.58,1.6.73.5.11,1.01.23,1.51.34.32.06.64.13.96.18.78.13,1.56.2,2.32.4.59.14,1.22.02,1.75.37.03.02.09,0,.13.01.6.1,1.22.21,1.82.31.47.09.95.19,1.41.29.03,0,.07-.02.15-.05-.1-.05-.17-.09-.23-.1-.42-.14-.85-.26-1.28-.39-.13-.03-.28-.03-.28-.28.33.08.64.13.93.21.55.15,1.1.3,1.59.61.24.16.52.26.79.33.35.11.71.13,1.04.24,1,.33,1.97.67,2.96,1.02.23.08.42.31.69.08.03-.03.14,0,.2.02.46.07.91.14,1.36.22.18.04.36.05.5.2-.34.02-.67-.03-1-.02s-.64-.28-1-.1c1.52.64,3.03,1.22,4.67,1.39.17-.23.12-.45.04-.64-.12-.32-.03-.6.09-.88.04-.09.18-.34.26-.43l.02-.02c.05-.1.18-.36.39-.59.27-.29.67-.53.86-.69.26-.22.61-.36.93-.44.3-.06.65-.03.97,0,1.02.13,1.88.54,2.49,1.41.09.13.2.26.31.36.51.46.71,1.04.71,1.7,0,.13.02.25.05.41.41,0,.79-.01,1.16,0,1.13.08,2.25.19,3.39.14.26,0,.51-.01.78-.04.76-.06,1.51-.14,2.27-.19.6-.05,1.2-.07,1.8-.11.37-.03.74-.05,1.12-.1.74-.09,1.47-.22,2.2-.4,1.48-.36,2.99-.65,4.49-.97,1.05-.23,2.07-.57,3.06-.96.57-.23,1.12-.52,1.67-.8.17-.09.32-.24.43-.41.32-.51.33-1.11.29-1.69-.04-.52-.37-.96-.58-1.43-.21-.52-.61-.78-1.2-.65-.77.16-1.55.11-2.31.38-1.03.35-2.12.53-3.22.55-.46.02-.93.1-1.4.17-.45.06-.9.18-1.35.24-.61.09-1.23.14-1.84.21-.96.09-1.89.41-2.88.42-.59.01-1.18.17-1.78.22-.82.09-1.65.19-2.47.05-.95-.14-1.89-.34-2.83-.54-.65-.14-1.26-.44-1.81-.83-.41-.3-.72-.85-.47-1.31.31-.55.76-.91,1.4-.94.46-.03.92-.03,1.37,0,.78.03,1.55.1,2.33.15.42.04.86.05,1.28.1.55.08,1.1.18,1.65.25.33.05.68.06,1.02.08.68.06,1.36.15,2.05.16.64.02,1.29-.01,1.93-.08.85-.09,1.7-.18,2.52-.36.92-.18,1.85-.41,2.73-.71.97-.35,1.94-.71,2.94-.98,1.09-.29,2.2-.48,3.33-.6,1.57-.15,3.11-.43,4.54-1.2.41-.22.77-.44.96-.87.13-.28.27-.56.31-.87.08-.51.08-1.05.1-1.57,0-.11-.04-.22-.06-.39-.74.22-1.45.41-2.14.63-.75.23-1.53.31-2.33.34-.88.04-1.75.09-2.62.02h-.17c-1,.1-1.98.09-2.97.01-.33-.03-.66-.03-.98,0-.53.04-1.03.11-1.55.15-1.01.09-2.02.18-2.97.59-.27.12-.54.19-.81.3-.01-.03-.02-.07-.03-.09.16-.09.33-.21.51-.29.42-.15.86-.3,1.3-.4.48-.11.96-.17,1.44-.21.93-.08,1.86-.17,2.79-.19.82-.03,1.63.04,2.45.04.54,0,1.09-.05,1.63-.05.27,0,.55.05.82.05.46-.02.91-.07,1.37-.09.07,0,.15.01.21-.02.39-.1.76-.23,1.14-.32,1.04-.24,2.04-.57,3.01-.92.18-.52.12-1.03,0-1.52-.11-.47-.01-1-.24-1.47-.69.19-1.35.37-2.01.55-.12.04-.22.08-.27-.12.73-.33,1.5-.53,2.34-.73-.02-.23-.04-.47-.06-.73-.17.07-.28.12-.41.16-.6.19-1.2.37-1.79.57-.58.2-1.13.44-1.71.62-.39.11-.8.19-1.21.24-.81.12-1.63.22-2.43.3-.55.03-1.1-.04-1.64.03-1.14.17-2.29.26-3.43.25-.29,0-.59-.02-.87.01-1,.09-2,.17-3.01.14-.15-.01-.31-.05-.47-.05-1.74-.01-3.48-.01-5.22-.01-.21,0-.4-.02-.6-.03-.57-.05-1.12-.14-1.68-.14-1.5-.01-3.01-.11-4.52.08-.55.06-1.11.1-1.66.18-.27.04-.53.1-.78.18-.21.06-.51.15-.59.18-.12.02-.14-.08-.04-.13.26-.11.53-.19.79-.26.36-.1.72-.17,1.08-.23.49-.06.97-.08,1.46-.1.79-.04,1.57-.09,2.35-.12.44,0,.89.03,1.33.04.48.03.95.05,1.42.09Zm5.06,18.79c-.99.14-1.97.19-2.94.3-.52.07-1.03.04-1.55.03-.78,0-1.56.1-2.36.15-.66.06-1.33.11-2.01.13-.32.01-.65-.05-.98-.04-.42.02-.54.07-.59.48-.13.75-.67,1.24-1.02,1.85-.44.71-1.09,1.17-1.71,1.67-.41.33-.94.5-1.42.75-.48.26-1.01.28-1.52.41-.09.03-.18.03-.26.06-.57.29-1.19.29-1.8.31-.47.03-.95.1-1.42.07-.78-.06-1.56-.25-2.2-.75-.36-.27-.35-.69.02-.96.3-.23.59-.46.89-.67.15-.11.33-.17.48-.26.5-.28,1-.56,1.47-.86.86-.54,1.42-1.26,1.59-2.33-1.21-.14-2.35-.48-3.51-.92-.03.13-.07.22-.08.31-.16.56-.39,1.09-.72,1.55-.41.57-.9,1.08-1.51,1.46-.28.16-.55.35-.81.56-.55.42-1.15.75-1.8,1-.26.1-.55.14-.83.16-.45.04-.9.07-1.33.06-.72-.02-1.44-.07-2.15-.11-.2-.01-.4-.05-.61-.04-.39.02-.66-.2-.89-.49-.13-.16-.12-.32.04-.47.11-.1.24-.2.38-.26.47-.22.87-.53,1.24-.89.33-.33.56-.74.73-1.15.37-.91.58-1.87.55-2.85,0-.27.04-.54.08-.81.05-.34.01-.41-.32-.52-.54-.21-1.06-.44-1.61-.62-.54-.18-1.1-.29-1.68-.33-.49-.04-.95-.18-1.43-.26-.58-.1-1.16-.16-1.74-.25-.38-.07-.76-.13-1.13-.22-1.24-.28-2.47-.55-3.63-1.05-.38-.17-.8-.23-1.2-.37-1.01-.37-2.03-.74-3.04-1.17-.45-.19-.86-.51-1.29-.74-.4-.22-.82-.36-1.19-.6-.95-.64-2.08-.83-3.1-1.25-.86-.36-1.79-.57-2.71-.78-.8-.18-1.62-.29-2.42-.4-.27-.04-.58.05-.83-.04-.67-.22-1.37-.13-2.04-.25-.22-.04-.46-.03-.68-.03-.21,0-.43.05-.65.05-.7.01-1.28.26-1.77.81-.55.64-.88,1.33-.98,2.15-.03.2-.09.39-.15.59-.29.78-.38,1.62-.79,2.35-.56.99-1.12,1.97-1.63,2.97-.22.41-.52.74-.76,1.14-.19.32-.47.6-.74.86-.55.51-1.1,1.02-1.79,1.38-.45.23-.85.57-1.28.84-.69.44-1.44.77-2.2,1.04-.18.06-.39.02-.62.04.02-.14,0-.23.03-.31.25-.64.52-1.27.74-1.92.22-.6.27-1.22.24-1.86-.03-.81-.35-1.53-.52-2.3-.22-.96-.46-1.93-.44-2.93.02-.57.11-1.18.32-1.75.37-.96,1.07-1.64,1.83-2.27.25-.2.5-.39.75-.59.41-.32.87-.48,1.38-.56.07-.01.16-.04.24-.06.03-.02.04-.04.05-.08-.42-.1-.85-.17-1.26-.31-.64-.21-1.32-.36-1.9-.78-.27-.2-.6-.33-.86-.56-.43-.38-.87-.78-1.22-1.24-.32-.41-.54-.9-.81-1.36-.09-.15-.22-.29-.31-.45-.47-.89-.8-1.84-.94-2.84-.07-.42-.17-.84-.25-1.25-.09-.48-.02-.95.03-1.42.07-.74.19-1.5.3-2.24.04-.26.12-.5.17-.76.03-.12.07-.23.21-.23.14-.01.25.02.32.17.16.4.42.75.75,1.02.28.22.58.44.9.58,1.07.51,2.25.73,3.35,1.16.78.31,1.6.57,2.34.95.95.5,1.83,1.14,2.5,2.01.2.27.36.58.52.87.05.09.09.18.16.26.28.33.43.71.56,1.12.27.8.64,1.55,1.16,2.19.32.4.67.78,1.1,1.06.36.22.73.28,1.14.23.27-.02.54-.01.8-.04.29-.02.58-.02.85-.1.8-.22,1.59-.46,2.38-.71.3-.09.58-.26.86-.38.53-.23,1.06-.43,1.59-.66.45-.21.87-.44,1.3-.64.68-.32,1.36-.64,2.03-.97.44-.22.88-.49,1.33-.72.29-.15.61-.29.92-.45.8-.39,1.62-.79,2.43-1.19.52-.24,1.06-.45,1.57-.68.5-.23.98-.48,1.47-.71,1.18-.55,2.3-1.23,3.41-1.92.52-.34,1.02-.73,1.53-1.09.62-.45,1.22-.88,1.81-1.32.36-.27.69-.56,1.06-.8.45-.29.92-.52,1.4-.76.76-.41,1.53-.82,2.31-1.2.31-.16.63-.28.96-.37.68-.2,1.36-.37,2.04-.53.76-.19,1.53-.33,2.29-.52.66-.17,1.3-.4,1.97-.55.64-.16,1.28-.3,1.93-.4.92-.15,1.83-.32,2.76-.41.8-.08,1.59-.09,2.4-.08.54,0,1.07.09,1.62.13.49.03.98.03,1.46.03.28.01.58,0,.86.01.83.04,1.65.1,2.48.14.71.03,1.41-.03,2.1-.14.3-.04.6-.03.91-.03,1.05,0,2.09-.19,3.11-.37.82-.14,1.61-.41,2.4-.61.93-.23,1.83-.44,2.74-.68,1.01-.27,2.01-.56,3.02-.86.94-.28,1.87-.59,2.82-.85.93-.27,1.88-.5,2.85-.57,1.27-.09,2.51.08,3.68.63.39.18.76.43,1.13.67.85.49,1.36,1.26,1.73,2.16.16.38.26.78.33,1.19.09.51.27,1,.39,1.5.22.92.46,1.83.5,2.79.02.4.14.81.23,1.22.13.57.25,1.14.41,1.71.18.64.27,1.3.38,1.95.09.55.17,1.1.24,1.65.03.15.03.29.03.44-.03.74,0,1.47.06,2.21.07.63.09,1.27.03,1.88-.05.59-.09,1.21-.5,1.71-.09.11-.17.23-.28.32-.64.46-1.33.84-2.1,1.06-.63.17-1.27.37-1.91.5-.56.11-1.12.15-1.7.23-.27.04-.54.05-.8.1-.86.17-1.72.3-2.55.54-.7.22-1.45.36-2.13.68-.35.16-.75.25-1.13.37-.54.14-1.08.27-1.62.38-.85.18-1.7.39-2.57.5-.75.09-1.53.05-2.3.12-.89.07-1.76-.15-2.64-.13-.68.01-1.32-.16-1.98-.22-.48-.04-.95-.03-1.41-.05h-.13c-.71-.15-1.42-.35-2.14-.44-.69-.09-1.39-.23-2.09-.06-.52.13-.68.24-.95.79.13.12.22.25.34.32.59.39,1.18.77,1.9.91.46.09.89.3,1.36.39.61.11,1.22.24,1.88.15.39-.05.82.01,1.22,0,.7-.07,1.39-.02,2.07-.09.65-.08,1.29-.25,1.94-.36.74-.15,1.48-.3,2.23-.45.51-.09,1.02-.18,1.52-.27.03,0,.05-.02.09-.02.68-.07,1.37-.13,2.05-.21,1.23-.14,2.47-.23,3.71-.45.59-.1,1.16-.26,1.75-.38.23-.04.49-.05.72-.03.37.06.66.22.86.58.61,1.19,1.02,2.43,1.06,3.78.02.84-.31,1.07-.94,1.25-.66.22-1.33.43-1.97.72-.13.06-.28.06-.42.1-.66.19-1.33.41-2.01.57-.59.15-1.18.23-1.76.35-.08.01-.16.05-.25.08-.71.21-1.46.41-2.2.53-.6.09-1.18.29-1.76.44-.03,0-.07.02-.09.02-.67-.07-1.27.24-1.91.34Zm-11.07-1.58c-.28.62-.41,1.27-.7,1.88-.49.99-.73,1.46-1.11,1.69.04-.12.06-.23.09-.29.27-.51.61-.99.82-1.51.26-.63.43-1.28.62-1.92.06-.22.07-.47-.1-.65-.18-.18-.4-.35-.66-.57.04,1.03-.18,1.91-.5,2.78-.23.62-.42,1.24-.79,1.79-.18.27-.29.64-.72.71-.1-.14-.03-.23.08-.34.1-.07.22-.15.28-.25.26-.49.58-.95.73-1.46.23-.78.59-1.52.64-2.36.09-1.12.1-1.12-.88-1.56-.72-.32-1.44-.27-2.11.14-.27.17-.54.21-.82.45-.06.05-.55.69-.61.78-.09.14-.17.39-.12.6.04.22.02.5.25.66.3-.22.13-.55.2-.87q.23.34.16.6c-.11.47-.25.94-.28,1.46-.02.55-.26,1.06-.56,1.52-.46.69-1.13,1.2-1.77,1.69-.66.51-1.39.91-2.08,1.37-.16.1-.44.13-.38.39.07.25.34.24.54.27.3.07.6.08.9.16.69.19,1.39.15,2.08.06.68-.1,1.36-.22,2.03-.41.58-.18,1.17-.45,1.71-.75.55-.32,1.06-.73,1.56-1.13.19-.15.35-.36.49-.55.19-.28.36-.59.55-.87.37-.58.61-1.2.65-1.89,0-.07,0-.14.03-.21.16-.51-.09-.95-.22-1.41Z"/>
    </g>
  </g>
</svg>