<?xml version="1.0" encoding="UTF-8"?>
<svg xmlns="http://www.w3.org/2000/svg" viewBox="0 0 136.06 136.06">
  <defs>
    <style>
      .cls-1 {
        fill: #fff;
      }

      .cls-2 {
        fill: #0c3454;
      }

      .cls-3 {
        fill: #e0e1e3;
      }
    </style>
  </defs>
  <g id="Layer_3" data-name="Layer 3">
    <rect class="cls-3" x="0" width="136.06" height="136.06"/>
  </g>
  <g id="B_W" data-name="B&amp;amp;W">
    <path class="cls-2" d="m116.77,58.25c.16-.04.31-.12.47-.13.21-.01.42.02.62.05.05.01.09.09.13.14-.04.03-.1.1-.12.09-.34-.13-.69-.03-1.04-.04-.01,0-.02-.01-.04-.02,0-.03-.01-.05-.02-.09Z"/>
    <path class="cls-2" d="m115.19,66.14c.1-.03.2-.04.3-.03.25,0,.49.03.73.03.36,0,.73-.02,1.08-.04.15,0,.31-.12.42.16-.12.03-.23.11-.33.11-.65.02-1.31.02-1.98.03-.09,0-.18-.05-.26-.1-.02-.01,0-.15.03-.16Z"/>
    <path class="cls-2" d="m109.68,55.83c.02-.27.26-.27.41-.28.56,0,1.12.01,1.67.04.3.02.61.11.96.17-.17.34-.4.15-.56.15-.43,0-.86-.06-1.29-.09-.39-.01-.78,0-1.19,0Z"/>
    <path class="cls-2" d="m110.63,69.7c.05-.03.11-.1.16-.1.53-.02,1.06-.03,1.59-.03.56.01,1.12.06,1.67.04.61-.03,1.22-.11,1.82-.2.69-.11,1.36-.24,2.04-.38.35-.08.7-.18,1.04-.3.15-.05.17.02.24.18-.6.14-1.19.28-1.77.41-.24.05-.47.12-.72.16-.62.1-1.26.2-1.88.27-.55.06-1.11.09-1.65.11-.41,0-.82-.04-1.22-.04-.21,0-.44.04-.65.04-.18,0-.36-.03-.55-.05-.04-.01-.08-.06-.12-.11Z"/>
    <path class="cls-2" d="m110.51,63.79c.15-.02.31-.05.46-.06.65-.09,1.32-.16,1.96-.25.52-.08,1.03-.14,1.53-.25.7-.15,1.4-.33,2.09-.49.17-.03.34-.06.52-.09.06,0,.13.05.2.08v.09c-.18.05-.35.13-.54.17-.85.19-1.7.41-2.54.58-.69.13-1.38.2-2.08.3-.4.05-.78.11-1.18.14-.15,0-.29-.08-.44-.11,0-.03.01-.08.01-.11Z"/>
    <path class="cls-2" d="m110.19,61.05c-.17,0-.26-.04-.2-.26.5-.02,1.02-.06,1.52-.09,1.01-.03,2.01-.06,3.01-.1.15-.01.28-.08.43-.13.33-.13.7-.17,1.05-.23.47-.09.96-.15,1.44-.2.14-.02.29-.01.49-.01-.06.1-.1.16-.14.17-.38.08-.76.13-1.15.2-.23.04-.45.1-.68.17-.42.12-.83.27-1.28.27-.45.01-.91.05-1.37.08-.09,0-.19-.03-.29-.03-.42.03-.85.08-1.27.1-.53.02-1.05.03-1.57.05Z"/>
    <path class="cls-2" d="m107.59,65.87c.26.02.5.03.76.05.31.01.62.04.93.04.67.01,1.32.01,1.98,0,.56-.01,1.12-.03,1.66-.11.63-.08,1.25-.21,1.88-.33.6-.11,1.21-.23,1.82-.32.2-.04.43-.05.64-.06.53-.02,1.06-.03,1.59-.05.28-.01.56-.03.84-.04.08,0,.15.06.21.1,0,.03-.01.06-.02.1h-.32c-.74.03-1.48.05-2.22.1-.54.03-1.06.09-1.59.15-.41.05-.82.17-1.22.21-.77.08-1.5.4-2.3.38-.5-.01-1.01.09-1.51.09-.58-.01-1.16-.06-1.74-.09-.09-.01-.17.04-.26.03-.35-.02-.71-.06-1.07-.1-.02-.01-.05-.05-.08-.08,0-.02.01-.04.01-.06Z"/>
    <path class="cls-2" d="m107.06,53.9s.15-.19.26-.25c.59-.29,1.23-.38,1.88-.44.41-.04.82-.06,1.22-.11.32-.03.64-.11.97-.14.24-.02.48,0,.73.01.03,0,.06.09.1.13-.64.1-1.27.27-1.89.28-.67,0-1.3.14-1.96.18-.32.01-.63.21-.96.31-.12.03-.24.19-.34.02Z"/>
    <path class="cls-2" d="m103.93,56.09c.19-.03.39-.08.58-.11.54-.08,1.07-.16,1.61-.24.36-.05.74-.11,1.11-.15.31-.04.62-.08.93-.1.06,0,.14.08.21.11l-.03.06c-.26.02-.52.03-.76.08-.34.04-.68.1-1.01.15-.35.06-.71.13-1.06.18-.43.05-.86.1-1.28.14-.1.01-.18,0-.28-.01-.01-.03-.01-.08-.02-.12Z"/>
    <path class="cls-2" d="m104.94,63.92c-.58.05-1.15.24-1.73.1v-.1h.88c.28-.01.56-.23.85,0Z"/>
    <path class="cls-2" d="m104.06,58.85c-.05-.01-.12-.05-.2-.11.08-.03.11-.08.15-.08.71.08,1.42.08,2.14-.04.6-.1,1.21-.11,1.82-.16.24-.02.46-.06.69-.09.28-.03.57-.02.85-.05.3-.03.59-.1.89-.14.17-.02.33-.02.5-.04.31-.03.63-.09.94-.11.58-.03,1.15-.05,1.72-.04.58,0,1.15.05,1.72.09.16.01.31,0,.46,0v.11c-.41.02-.81.04-1.2.05-.29.01-.58.01-.87.01-.03,0-.06.02-.1.02-.6-.16-1.2,0-1.8.02-.42.01-.85.14-1.28.19-.18.03-.39.02-.58.03-.84.06-1.67.12-2.5.2-.49.04-.98.18-1.46.21s-.98,0-1.46-.02c-.14,0-.29-.03-.43-.06Z"/>
    <path class="cls-2" d="m103.98,72.14c.38-.05.75-.1,1.13-.14.62-.08,1.23-.16,1.86-.23.18-.02.38.01.56,0,.38-.01.75-.05,1.14-.06.3-.01.61.03.92.04.17,0,.35-.04.53-.04.28,0,.56.02.84.05.06,0,.12.08.18.11-.06.04-.12.12-.18.12-.43.03-.87.04-1.3.05-.19,0-.38-.05-.57-.04-.79.02-1.6.04-2.39.1-.65.04-1.31.13-1.96.19-.18.02-.36.04-.55.04-.08-.01-.14-.08-.21-.11.01-.03.01-.06.02-.09Z"/>
    <path class="cls-2" d="m102.84,68.01c.31-.06.62-.14.93-.19.4-.06.79-.12,1.19-.15.47-.03.93-.04,1.41-.04.17,0,.35.03.53.04.24.02.46.04.7.04.62.03,1.25.06,1.87.06.65,0,1.32-.03,1.98-.04.32-.01.63.03.96.02.49-.01.99-.05,1.49-.09.08,0,.16.01.25.01v.15c-.32.04-.63.1-.96.13-.34.03-.7.04-1.04.05-.1.01-.19,0-.3,0-.26.01-.53.03-.79.03-.13,0-.27-.03-.4-.03-.49-.02-.99-.04-1.48-.05-.21,0-.42.04-.63.04-.17,0-.35-.02-.53-.02-.24,0-.46.02-.7.01-.17,0-.35-.01-.53-.03-.26-.03-.52-.09-.78-.09-.41,0-.82.02-1.22.05-.24.02-.47.06-.71.11-.4.08-.79.15-1.19.21-.04.01-.11-.09-.16-.13.04-.04.09-.1.13-.11Z"/>
    <path class="cls-2" d="m103.51,70.37c.23-.47.63-.49.99-.61.59-.18,1.19-.25,1.79-.25.53,0,1.05.06,1.58.1.14.01.27.03.4.06.04.01.05.1.09.15-.06.02-.13.08-.18.08-.34-.02-.68-.1-1.01-.09-1,.05-2.01.06-2.98.39-.11.04-.21.12-.32.14-.1.03-.2.02-.34.03Z"/>
    <path class="cls-2" d="m100.73,73.07c-.06-.02-.12-.08-.23-.15.11-.04.17-.09.23-.08.46.1.92.19,1.38.3.57.14,1.14.31,1.71.41.53.09,1.06.13,1.6.15.53.02,1.05.03,1.57-.03.62-.08,1.23-.25,1.86-.38.35-.09.71-.18,1.06-.26.36-.1.73-.17,1.08-.26.65-.17,1.3-.34,1.95-.52.7-.18,1.38-.36,2.09-.53.3-.08.61-.08.92-.13.6-.09,1.19-.17,1.79-.26.16-.02.33-.02.5-.03.16-.01.32-.03.47-.04.09,0,.16.03.24.04.01.03.01.08.01.11-.11.03-.2.08-.3.09-.64.09-1.28.17-1.92.26-.4.05-.81.08-1.2.14-.48.09-.98.2-1.46.32-.41.1-.83.2-1.23.31-.33.09-.67.17-.99.26l-1.29.32c-.36.1-.72.2-1.07.29-.29.08-.59.13-.88.2-.11.02-.21.08-.33.1-.31.05-.62.1-.94.14-.21.02-.45,0-.67.05-.43.13-.87.05-1.3.03-.48-.01-.96-.11-1.44-.17-.34-.04-.7-.11-1.04-.16-.05-.01-.12-.03-.17-.05-.32-.08-.64-.16-.97-.24-.12-.02-.24-.03-.35-.06-.24-.05-.46-.11-.69-.18Z"/>
    <path class="cls-2" d="m100.52,58.89c0-.05.08-.16.12-.15.4.01.81.04,1.2.08.05,0,.11.05.17.09-.06.03-.13.09-.19.1-.19.01-.39,0-.58,0h0c-.19,0-.39.02-.58.01-.05,0-.14-.08-.14-.12Z"/>
    <path class="cls-2" d="m97.55,54.65c-.04-.06-.14-.14-.13-.2.01-.08.11-.18.17-.2.25-.05.5-.08.75-.13.33-.06.65-.15.99-.23.31-.08.63-.14.94-.23.25-.06.48-.17.74-.24.06-.02.14.04.21.06-.05.06-.1.17-.16.19-.42.14-.85.27-1.27.39-.29.08-.58.09-.87.16-.36.1-.73.23-1.09.33-.08.03-.16.05-.29.09Z"/>
    <path class="cls-2" d="m96.36,73.92c.02-.06.03-.15.06-.18.17-.1.34-.18.52-.26.35-.17.72-.32,1.06-.52.74-.42,1.51-.76,2.33-1.01.11-.02.21-.06.32-.09,1.01-.24,2.02-.48,3.04-.68.6-.12,1.21-.15,1.82-.2,1.2-.12,2.39-.3,3.61-.26.47.02.96-.06,1.43-.03.77.08,1.55.05,2.31.27.16.04.35.02.53.01.81-.04,1.61-.08,2.42-.15.35-.03.71-.12,1.05-.2.83-.18,1.64-.36,2.46-.57.18-.05.35-.17.53-.26.06-.02.12-.05.18-.09.02.03.03.06.05.09-.19.12-.36.28-.57.34-.38.13-.77.21-1.17.3-.81.18-1.62.36-2.44.54-.1.02-.21,0-.31,0-.71.05-1.41.12-2.1.14-.36.01-.73-.05-1.09-.09-.4-.04-.79-.12-1.19-.14-.54-.03-1.06-.05-1.6-.05-.6,0-1.19,0-1.79.05-.85.08-1.7.18-2.54.29-.77.09-1.53.17-2.31.29-.45.08-.9.18-1.34.3-.7.19-1.41.38-2.08.64-.61.24-1.19.58-1.78.88-.29.14-.59.27-.88.41-.12.05-.23.12-.34.17-.05.02-.11.03-.16.04Z"/>
    <path class="cls-2" d="m95.51,61.97c-.18.01-.28-.08-.25-.29.34-.03.7-.06,1.04-.1.42-.03.85-.09,1.27-.1.85-.01,1.67.12,2.51.21.46.06.86.28,1.29.38.05.01.09.13.12.17-.76-.11-1.5-.21-2.23-.33-.33-.04-.65-.13-.99-.13-.53,0-1.06.06-1.59.1-.28.02-.56.02-.85.04-.11.01-.21.03-.32.04Z"/>
    <path class="cls-2" d="m94.52,75.06c-.06,0-.13-.06-.19-.1.04-.04.09-.12.14-.13.34-.06.68-.11,1.02-.16.36-.04.74-.1,1.11-.13.21-.02.42,0,.62-.01.58-.06,1.15-.15,1.72-.19.33-.02.68.03,1.02.03.23,0,.46-.03.7-.03.36.01.73.04,1.11.06.24.01.48.01.72.04.42.04.84.12,1.26.15.27.02.56.17.85-.1.03.09.05.14.09.2-.17.02-.32.06-.47.06-.55-.01-1.11-.01-1.66-.05-.64-.04-1.3-.13-1.95-.1-.41.02-.82-.05-1.21-.03-.48.02-.97.12-1.45.17-.28.03-.56.05-.84.06-.69.02-1.36-.01-2.04.18-.16.05-.34.05-.52.05Z"/>
    <path class="cls-2" d="m93.01,58.36v-.08c.23-.08.45-.17.68-.2.62-.1,1.26-.15,1.87-.26.47-.09.93-.23,1.41-.33l1.29-.29c.41-.11.82-.2,1.22-.31.38-.11.75-.26,1.14-.34.59-.13,1.19-.21,1.78-.32.03-.01.06,0,.1.01.01.02.03.04.04.08-.08.05-.15.13-.25.15-.58.14-1.17.26-1.76.4-.62.15-1.26.3-1.88.48-.9.28-1.81.49-2.74.63-.6.1-1.19.24-1.78.33-.3.05-.6.08-.9.11-.08,0-.14-.03-.21-.05Z"/>
    <path class="cls-2" d="m91.53,60.58c-.14.04-.3-.02-.45-.03-.01-.03-.03-.08-.04-.11.05-.02.1-.06.15-.08.42-.08.85-.15,1.27-.21.45-.06.91-.19,1.35-.16.54.05,1.04-.24,1.59-.1.21.06.47-.1.71-.13.25-.03.5-.02.75-.04.35-.03.71-.1,1.07-.11.39-.02.78,0,1.18.02.06,0,.13.08.19.12-.01.03-.02.05-.03.09-.53.02-1.05.05-1.58.09-.28.01-.55.01-.82.04-.53.06-1.04.19-1.57.18-.41-.02-.77.13-1.18.12-.27-.01-.55.05-.83.09-.06.01-.13.01-.19,0-.55-.02-1.06.09-1.58.23Z"/>
    <path class="cls-2" d="m89.15,68.15c-.08-.01-.13-.08-.19-.11.02-.01.03-.03.05-.04.61.03,1.22.09,1.85.11,1.19.03,2.37.06,3.56.05.46,0,.92-.14,1.38-.2.31-.04.62-.08.93-.1.41-.02.82-.03,1.23-.04.3-.01.6-.04.9.01.33.04.65.16.98.27.7.21.97.75,1,1.44.02.25.06.52-.01.74-.16.48-.34.98-.86,1.21-.04.01-.14.01-.15-.01-.02-.04-.03-.13,0-.17.05-.09.14-.15.21-.23.43-.45.64-.98.47-1.61-.1-.34-.32-.6-.6-.81-.48-.38-1.03-.56-1.65-.52-.14.01-.29,0-.44,0-.03,0-.1.01-.12-.01-.25-.39-.6-.04-.9-.12-.13-.03-.29.04-.44.06-.45.05-.9.12-1.35.16-.34.04-.69.1-1.03.1-.72-.01-1.45-.06-2.17-.09-.49-.02-.98,0-1.47-.01-.4-.01-.79-.05-1.19-.1Z"/>
    <path class="cls-2" d="m88.53,63.98c.08-.05.14-.14.21-.15.63-.04,1.26-.09,1.88-.1.57,0,1.13.04,1.7.06.11,0,.23.01.33.02.26.02.5.03.76.06.24.02.47.06.71.09.46.05.93.11,1.41.15.33.03.67.08,1,.1.38.02.74.02,1.12.05.09,0,.16.08.25.11-.01.01-.02.03-.03.04h-1.27c-.18,0-.38,0-.56-.01-.54-.05-1.08-.12-1.62-.18-.13-.01-.26-.05-.39-.03-.56.06-1.08-.28-1.65-.14-.1.03-.21-.02-.33-.03-.71-.09-1.43-.05-2.14.04-.28.03-.58.01-.86.01-.11.01-.21.04-.31.03-.06-.01-.14-.09-.2-.13Z"/>
    <path class="cls-2" d="m86.84,57.83c-.09,0-.17-.06-.27-.1.01-.03.01-.05.01-.09.09-.02.18-.04.27-.06.4-.06.81-.12,1.2-.18.14-.03.27-.08.41-.11.58-.13,1.17-.26,1.76-.38.12-.03.26-.01.39-.01,0,.04.01.08.01.11-.14.05-.28.1-.43.14-.42.1-.83.19-1.25.28-.53.11-1.04.2-1.57.3-.17.03-.35.09-.54.1Z"/>
    <g>
      <path class="cls-2" d="m99.76,69.67c.17.42-.07,1.11-.45,1.36-.28.17-.55.34-.82.54-.26.2-.6.27-.92.38-.63.21-1.26.46-1.82.84-.32.2-.6.48-.91.7-.21.17-.41.37-.71.36-.02,0-.03.01-.04.02-.29.34-.73.27-1.09.37-.12.03-.24.04-.32.05-.54-.02-.97-.23-1.38-.51-.47-.34-.94-.69-1.46-.99-.34-.2-.76-.29-1.13-.47-.6-.25-1.2-.51-1.76-.83-.28-.16-.57-.4-.66-.78-.06-.21.03-.37.09-.53.11-.28.21-.56.36-.8.08-.14.28-.21.43-.3.06-.04.15-.06.21-.1.33-.32.77-.26,1.17-.32.56-.07,1.11.04,1.66.15.35.09.75-.02,1.13-.02.41.01.82-.06,1.24.12.26.11.6.01.91,0,.36,0,.72-.1,1.09,0,.22.06.47.01.7.02.65.04,1.29.09,1.93.09.38,0,.76-.08,1.13-.14.27-.04.47.06.71.13.38.08.57.33.71.66Zm-.85,1.29c.48-.25.71-.72.53-1.21-.1-.24-.44-.54-.64-.53-.61.03-1.23.08-1.85.1-.64.02-1.26.04-1.89.04-.33.01-.65-.03-.97-.04-.47-.02-.93-.03-1.41-.05-.03,0-.07-.02-.11-.03-.28-.03-.55-.09-.83-.1-.28-.02-.56.01-.83.04-.16.01-.31.1-.46.09-.42-.04-.84-.09-1.25-.15-.47-.07-.92-.06-1.35.12-.15.07-.33.1-.45.19-.19.15-.43.3-.51.5-.14.32.23,1.1.55,1.28.04.03.08.04.12.06.21.05.42.09.63.15.45.16.88.38,1.26.69.3.25.65.46.98.67.37.21.77.37,1.11.63.22.17.44.32.69.39.26.05.53.08.79.06.37-.04.75-.1,1.08-.3.24-.14.52-.23.69-.42.49-.56,1.15-.88,1.8-1.18.39-.18.8-.34,1.21-.47.19-.06.37-.26.54-.12.22-.16.38-.31.57-.41Z"/>
      <path class="cls-1" d="m99.44,69.75c.18.49-.05.96-.53,1.21-.19.1-.35.25-.57.41-.17-.14-.35.06-.54.12-.41.13-.82.29-1.21.47-.65.3-1.31.62-1.8,1.18-.17.19-.45.28-.69.42-.33.2-.71.26-1.08.3-.26.02-.53-.01-.79-.06-.25-.07-.47-.22-.69-.39-.34-.26-.74-.42-1.11-.63-.33-.21-.68-.42-.98-.67-.38-.31-.81-.53-1.26-.69-.21-.06-.42-.1-.63-.15-.04-.02-.08-.03-.12-.06-.32-.18-.69-.96-.55-1.28.08-.2.32-.35.51-.5.12-.09.3-.12.45-.19.43-.18.88-.19,1.35-.12.41.06.83.11,1.25.15.15.01.3-.08.46-.09.27-.03.55-.06.83-.04.28.01.55.07.83.1.04,0,.08.03.11.03.48.02.94.03,1.41.05.32.01.64.05.97.04.63,0,1.25-.02,1.89-.04.62-.02,1.24-.07,1.85-.1.2-.01.54.29.64.53Z"/>
    </g>
    <path class="cls-2" d="m86.41,60.81c.75-.06,1.49-.13,2.24-.2.05-.01.11-.05.17-.06s.13.01.19.02v.11c-.28.04-.57.1-.86.13-.53.05-1.05.11-1.58.15-.06,0-.13-.04-.19-.06,0-.02.01-.05.02-.08Z"/>
    <path class="cls-2" d="m86.47,66.34s-.05-.04-.09-.08c0-.01.01-.03.01-.05h.63c.27-.01.53-.03.79-.05.42-.03.85-.08,1.27-.09.31-.01.61.04.92.03.29,0,.58-.03.86-.04.14-.01.27.01.4,0,.77-.04,1.53.1,2.3.18.65.06,1.33.08,2-.02.55-.08,1.11-.06,1.66-.12.49-.04.98-.13,1.47-.2.1-.01.19,0,.29-.01.32,0,.63-.02.96-.02.4.01.81.04,1.2.05.18.01.36,0,.55,0,.01.02.01.04.02.08-.19.03-.38.11-.56.11-.31.01-.63-.03-.94-.04-.27,0-.54.01-.81,0-.68-.04-1.33.14-1.99.24-.08.01-.15.01-.23.01-.49.01-1,.02-1.49.05-.44.02-.87.08-1.3.09-.31,0-.62-.06-.93-.09-.83-.05-1.66-.13-2.5-.15-.73-.01-1.47.02-2.2.05-.52.02-1.02.1-1.53.13-.26.01-.52-.03-.76-.05Z"/>
    <path class="cls-2" d="m85.45,71.72c-.61-.61-.63-1.36-.34-2.13.09-.23.2-.54.52-.65.09-.03.15-.16.24-.25.18.18.34.05.5-.04.17-.12.34-.24.53-.32.06-.03.17.03.26.05-.04.06-.08.16-.14.21-.19.14-.4.27-.6.4-.11.08-.21.16-.33.23-.43.21-.52.68-.74,1.04-.06.09-.01.28.03.41.21.57.46,1.12,1.03,1.42.45.25.91.45,1.43.5.13.01.26.16.41.03.02-.01.15.12.23.18-.01.03-.02.05-.04.09-.1-.02-.18-.04-.28-.05-.29-.03-.59-.03-.86-.11-.39-.12-.77-.28-1.13-.46-.26-.14-.49-.33-.7-.55Z"/>
    <path class="cls-2" d="m84.27,62.05v-.09c.3-.02.6-.06.89-.06.47-.01.94,0,1.42.02.25.01.49.1.74.09.56-.01,1.12-.08,1.67-.08.36-.01.73.04,1.09.09.42.04.84.1,1.27.14.47.05.94.11,1.43.15.56.04,1.12.06,1.67.09.24.01.47.01.71.01.63.02,1.28-.04,1.89.09.44.09.83-.06,1.25.01.27.05.55.08.83.1.3.02.6.03.9.05s.6.09.9.09c.41,0,.82-.06,1.22-.08.36-.02.74.01,1.11-.02.57-.04,1.14-.12,1.71-.18.32-.04.63-.09.96-.1.52-.03,1.03-.04,1.55-.05.27-.01.54-.01.81.01.12,0,.31-.03.26.24-.35,0-.7-.01-1.04,0-.25.01-.49.08-.74.09-.32.01-.65-.01-.98.01-.46.03-.93.11-1.4.16-.25.02-.5.03-.75.05-.47.04-.94.08-1.43.12-.23.02-.46.09-.69.09-.29,0-.57-.05-.86-.05-.25-.01-.52-.02-.76.03-.29.06-.5-.12-.77-.15-.16-.02-.33-.03-.49-.05-.35-.04-.7-.1-1.05-.13-.29-.03-.58-.05-.87-.08-.49-.03-.99-.05-1.49-.09-.31-.02-.61-.04-.92-.05-.45-.02-.9-.02-1.35-.05-.35-.02-.72-.05-1.07-.1-.49-.04-.99-.09-1.48-.14-.34-.04-.68-.13-1.02-.14-.33-.01-.67.08-1,.08-.54,0-1.06-.04-1.6-.06-.24-.01-.48-.01-.73-.02-.34-.01-.69-.03-1.04-.03-.12-.01-.25.01-.38.02h-.34Z"/>
    <path class="cls-2" d="m82.34,76.23c-.05,0-.11-.08-.16-.12.01-.03.01-.05.02-.09.15-.01.31-.01.46-.03.26-.04.53.01.77-.17.15-.11.36-.14.55.1-.54.26-1.07.34-1.64.31Z"/>
    <path class="cls-2" d="m80.53,69.69c.05-.04.11-.11.17-.12.21-.02.44-.03.65-.05.29-.02.58-.05.87-.09.13,0,.25.01.38.01.27,0,.54-.02.79-.01.06,0,.12.08.17.12-.06.03-.12.08-.17.08-.48.03-.97.06-1.44.09-.23.01-.44,0-.67.01-.08,0-.16,0-.24.01-.17.01-.33.02-.49.04-.01-.03-.02-.05-.03-.09Z"/>
    <path class="cls-2" d="m80.92,63.09c-.05.01-.12-.01-.26-.02.1-.06.13-.11.17-.12.59-.12,1.19-.23,1.79-.33.28-.05.56-.08.83-.1.06-.01.13.05.19.09-.05.03-.11.09-.17.1-.52.09-1.04.16-1.56.24-.33.05-.67.11-1,.15Z"/>
    <path class="cls-2" d="m81.31,67c-.2.08-.46.01-.7.01v-.1c.05-.01.12-.03.17-.02.47.08.85-.18,1.25-.35.68-.3,1.33-.63,2.01-.9.46-.19.94-.33,1.43-.44.44-.1.9-.12,1.35-.16.7-.06,1.38-.13,2.08-.18.21-.02.43.03.64.03.3,0,.61-.03.91-.03.64.02,1.3.05,1.94.09.13,0,.25-.01.36,0,.69.06,1.37.16,2.06.18.63.02,1.28-.02,1.92-.03.24,0,.48.04.72.04.67-.01,1.33-.05,1.99-.04.58.01,1.16.08,1.74.09.46.01.92-.02,1.4-.03.4-.01.79,0,1.19-.01.69-.02,1.37-.06,2.05-.1.79-.03,1.58-.04,2.36-.11.65-.04,1.3-.16,1.94-.23.3-.02.59.01.88,0,.41-.01.82-.03,1.21-.05.27-.02.54-.05.79-.1.5-.08,1.01-.15,1.5-.25.59-.12,1.17-.24,1.74-.4.34-.1.67-.26.99-.4.65-.29,1.32-.54,2.02-.68.17-.03.32-.11.48-.15.06-.02.14-.02.21-.02,0,.02.01.05.02.08-.1.05-.18.13-.28.15-.75.14-1.48.38-2.18.69-.85.38-1.72.71-2.63.86-.74.13-1.48.19-2.22.31-.97.15-1.94.13-2.91.15-.41.01-.83.1-1.23.15-.26.03-.5.08-.76.09-.86.02-1.72.03-2.58.05-.45.01-.9.02-1.35.04-.77.03-1.56.09-2.34.1-.59,0-1.18-.03-1.77-.04-.32-.01-.63,0-.96,0-1.14,0-2.26.02-3.39-.01-.87-.02-1.73-.13-2.6-.18-.45-.03-.91-.01-1.36-.01-.25-.01-.5-.03-.75-.04h-.12c-1.2-.04-2.4.08-3.6.15-.92.05-1.81.24-2.69.5-.42.13-.79.36-1.2.55-.58.26-1.15.54-1.75.76Z"/>
    <path class="cls-2" d="m78.85,58.12c-.06,0-.14-.03-.2-.05,0-.02,0-.04.01-.06.23-.02.45-.05.68-.06,1.14-.05,2.28-.11,3.4-.15.54-.01,1.06,0,1.6,0,.15,0,.3-.03.46-.04.11-.01.23.01.34.01v.09c-.14.01-.29.03-.43.05-.41.04-.81.11-1.21.13-.33.01-.68-.04-1.02-.03-.36,0-.73.05-1.11.08-.14.01-.29.01-.43.01-.7.02-1.4.03-2.09.04Z"/>
    <path class="cls-2" d="m77.65,53.6c.18-.13.32-.23.46-.31.03-.03.08-.05.12-.06.82-.2,1.61-.46,2.46-.42.63.03,1.27-.02,1.9-.03.55-.01,1.09-.02,1.64,0,.46.01.92.06,1.38.1.45.03.91.06,1.36.1.26.01.52.04.77.04s.5-.03.76-.06c.41-.04.82-.18,1.22-.16.76.03,1.51-.17,2.28-.12.26.01.53-.05.78-.09.04-.01.09-.01.12,0,.59.15,1.16,0,1.74-.05.89-.08,1.78-.13,2.68-.19.27-.02.54,0,.79-.16.12-.08.29-.06.44-.09.33-.05.68-.11,1.01-.15.27-.02.52-.1.79-.06.27.03.55-.08.82-.15.54-.15,1.04-.4,1.61-.48.46-.06.9-.28,1.34-.43.6-.19,1.2-.36,1.78-.58.6-.23,1.17-.53,1.77-.75.45-.17.92-.28,1.38-.41.41-.12.83-.23,1.23-.32.29-.06.57-.12.86-.15.06-.01.14.06.26.13-.63.17-1.19.35-1.77.46-.83.14-1.61.41-2.37.73-.19.09-.39.18-.57.28-.02.01-.04.03-.06.03-.83.12-1.56.53-2.35.74-.63.17-1.27.35-1.9.54-.45.14-.89.33-1.35.45-.34.09-.71.09-1.06.13-.15.02-.29.02-.43.06-.33.1-.67.19-1.03.19-.32.01-.64.13-.97.19-.14.02-.28.02-.42.03-.43.04-.86.08-1.29.12-.39.03-.76.05-1.15.09-.34.03-.7.09-1.04.11-.26.01-.52,0-.76,0l-.61.03c-.34.03-.7.08-1.05.1-.41.02-.82.02-1.22.05-.48.04-.97.14-1.45.17-.53.03-1.06.02-1.59.02-.13,0-.26.01-.39,0-.31-.03-.62-.06-.93-.09-.1-.01-.2.03-.3.03-.3-.01-.6,0-.89-.06-.48-.11-.97-.08-1.46-.04-.4.03-.81-.03-1.2-.03-.27.01-.54.06-.82.09-.18.02-.38.02-.57.05-.34.04-.69.09-1.03.15-.32.06-.63.16-.96.25-.05.01-.11.03-.16.03-.13.01-.26.01-.39.01-.06,0-.14-.02-.24-.04Z"/>
    <path class="cls-2" d="m77.29,72.34c-.09-.02-.16-.12-.25-.17.1-.05.24-.17.29-.15.26.15.52.05.77.03.39-.02.77.04,1.17-.03.24-.04.52.08.77.08.34-.01.69-.06,1.03-.11.41-.04.83-.1,1.25-.14.16-.02.32-.06.49-.08.04-.01.11.05.16.1-.05.02-.1.06-.15.09l-.52.16c-.05.01-.11.03-.16.03-.44.02-.87.02-1.3.18-.2.08-.44.04-.67.06v-.05c-.32,0-.64,0-.97.01-.44.01-.89.03-1.33.04-.2,0-.41-.02-.6-.05Z"/>
    <path class="cls-2" d="m76.78,64.82c-.2.03-.41.05-.6.08-.01-.03-.01-.05-.02-.08.06-.03.13-.06.19-.08.49-.08.99-.16,1.48-.23.3-.04.61-.04.91-.06,1.28-.12,2.53-.3,3.78-.61.42-.11.88-.09,1.32-.13.26-.02.5-.06.76-.1.46-.06.92-.13,1.4-.19.2-.02.42-.03.6-.11.46-.19.93-.23,1.42-.27.61-.05,1.23-.11,1.85-.16.88-.06,1.74.05,2.62.14.69.06,1.36.24,2.07.21.58-.01,1.17.13,1.75.13s1.14.11,1.71.19c.28.03.57,0,.86.01.35.02.7.08,1.05.1.34.02.69.02,1.03.05.64.04,1.29.1,1.92.15.05,0,.11.04.16.08,0,.02,0,.04-.01.08-.49-.04-.98-.09-1.47-.13-.1-.01-.19-.03-.29-.03-.49-.01-.99-.03-1.48-.11-.41-.06-.84-.01-1.26-.04-.45-.03-.9-.11-1.35-.15-.24-.02-.48-.02-.73-.04-.34-.02-.7-.06-1.05-.1-.33-.02-.68-.02-1.01-.05-.49-.04-1-.12-1.49-.17-.32-.04-.63-.09-.96-.11-.52-.04-1.04-.11-1.57-.1-.6.01-1.21.09-1.81.14-.39.03-.77.03-1.15.11-.72.12-1.43.3-2.15.42-.57.09-1.14.1-1.71.16-.36.04-.72.12-1.08.18-.44.08-.88.17-1.33.25-.39.08-.77.15-1.17.21-.23.03-.46.05-.69.08-.36.03-.74.06-1.11.11-.46.05-.93.12-1.4.17Z"/>
    <path class="cls-2" d="m74.76,67.86c-.01-.05.02-.16.06-.18.13-.05.28-.08.41-.13.59-.26,1.22-.32,1.86-.32.64.01,1.27-.09,1.89-.18.08-.02.16.05.25.1-.06.04-.12.13-.18.14-.47.11-.94.2-1.42.3,0-.03-.01-.05-.01-.09-.62.05-1.25.1-1.87.18-.21.02-.41.15-.62.24-.06.02-.15.04-.23.04-.05-.01-.14-.05-.14-.1Z"/>
    <path class="cls-2" d="m67.12,62.37c.69-.11,1.38-.19,2.08-.29.03-.01.06-.01.1-.01.74-.01,1.47-.01,2.21-.05.33-.02.63.02.96.08.3.03.62-.03.92-.08.54-.06,1.07-.11,1.62-.1.56,0,1.12-.1,1.67-.14.48-.04.97-.06,1.45-.1s.96-.05,1.44-.11c.3-.03.6-.14.9-.18.28-.04.57-.02.85-.05.34-.03.68-.1,1.02-.15.28-.03.57-.06.85-.09.34-.03.68-.04,1.02-.05.08,0,.15.03.24.04,0,.04,0,.08.01.11-.17.04-.34.12-.53.14-.74.09-1.48.17-2.22.24-.36.03-.73.02-1.08.06-.31.03-.6.12-.9.16-.26.03-.53.02-.78.03-.3.01-.6.02-.89.05-.4.03-.79.09-1.19.14-.5.05-1.01.12-1.51.18-.06.01-.13.01-.19.01-.33,0-.68-.01-1.01,0-.4.02-.79.08-1.2.1-.27.01-.55,0-.83,0-.56,0-1.13-.05-1.67.01-.58.06-1.16-.01-1.74.16-.5.15-1.06.12-1.6.17-.14.01-.28.03-.43.04,0-.33.27-.3.45-.33Z"/>
    <path class="cls-2" d="m65.47,69.72c.79.03,1.58.1,2.37.09.52-.01,1.04-.15,1.57-.17.52-.03,1.04.01,1.57.02.03,0,.06.01.1.01.74-.01,1.48-.02,2.2-.2.62-.15,1.26-.27,1.88-.38.43-.08.86-.1,1.29-.15.47-.06.93-.16,1.41-.23.44-.06.87-.1,1.31-.17.28-.04.55-.13.83-.19.2-.05.41-.1.61-.14.45-.1.89-.18,1.33-.28.38-.1.75-.2,1.13-.31.33-.1.67-.21,1.01-.31.28-.08.57-.11.86-.17.34-.06.69-.16,1.03-.2.59-.08,1.19-.15,1.79-.17.46-.02.93.05,1.4.09.23.01.44-.01.67,0,.65.03,1.3.05,1.95.1.28.02.57.06.85.1.36.03.73.06,1.08.1.44.04.88.12,1.31.14.3.02.59-.03.89-.03.24,0,.46.05.7.03.43-.03.86-.09,1.28-.16.39-.06.77-.19,1.16-.26.21-.04.44.01.65-.01.79-.08,1.58-.18,2.37-.24.41-.03.82.03,1.23.03.23-.01.45-.08.68-.11.05-.01.11-.03.16-.03.84-.01,1.66-.03,2.49-.05.25,0,.48-.04.73-.04.99.03,1.96.06,2.95.1.39.02.76.09,1.15.1.27.01.55-.05.82-.04.31.03.61.12.92.17.64.09,1.29.23,1.94.26,1,.04,1.99-.08,2.95-.38.63-.19,1.28-.36,1.91-.54.04-.02.09-.05.13-.05.05-.01.11.01.16.02-.03.04-.05.1-.09.12-.39.12-.76.25-1.15.35-.56.15-1.11.31-1.66.42-.49.1-1.01.16-1.51.2-1,.08-1.98-.11-2.95-.32-.17-.04-.34-.06-.53-.06-.82-.02-1.63-.02-2.45-.05-.7-.03-1.38-.11-2.08-.14-.33-.01-.68.03-1.02.04-.77.02-1.56.02-2.33.05-.39.02-.76.14-1.14.13-.63-.01-1.26-.01-1.89.1-.23.04-.47,0-.71.02-.32.02-.63.06-.96.1-.15.01-.31-.01-.46,0-.14.01-.29.03-.43.05-.54.11-1.06.25-1.6.32-.42.05-.84,0-1.25.01-.2.01-.4.09-.59.09-.31,0-.61-.03-.92-.04-.3-.01-.61.01-.92,0-.29-.01-.57-.03-.85-.05-.16-.01-.31-.01-.47-.02-.78-.08-1.58-.15-2.37-.21-.39-.03-.77-.03-1.16-.05-.53-.02-1.04-.01-1.56.13-.34.1-.71.08-1.05.12-.43.06-.86.15-1.29.2-.3.05-.61.04-.9.13-.57.15-1.14.36-1.72.53-.35.1-.73.14-1.09.21-.63.15-1.27.33-1.91.46-.5.1-1.02.14-1.53.23-.54.08-1.08.17-1.62.26-.2.03-.41.03-.61.02-.52-.01-.97.23-1.46.33-.44.09-.89.15-1.34.2-.29.04-.59.1-.88.1-.4,0-.81-.04-1.2-.06-.06,0-.13-.02-.19-.02-.64,0-1.29-.01-1.92,0-.5,0-1.01.04-1.5.04-.58-.01-1.16-.05-1.73-.08-.01-.03-.02-.08-.02-.11.08-.02.15-.05.21-.05Z"/>
    <path class="cls-2" d="m68.71,71.66c-.72-.04-1.45,0-2.16-.19-.59-.15-1.18-.26-1.77-.39-.28-.06-.57-.13-.85-.2-.08-.02-.13-.12-.18-.18.08-.01.16-.05.24-.03.74.2,1.48.46,2.26.52.4.03.79.14,1.19.21.05.01.11.02.16.02.87.02,1.74.04,2.6.05.5,0,1.01.01,1.51,0,.44-.02.88-.06,1.32-.1.2-.01.41,0,.61,0,.43-.01.86-.02,1.29-.05.59-.05,1.17-.13,1.76-.18.28-.03.56-.04.84-.05.47-.03.94-.08,1.42-.1.46-.03.92-.03,1.38-.06.18-.01.35-.13.53-.13.63,0,1.27.03,1.9.03.4,0,.79-.03,1.18-.03.09-.01.17.02.26.04,0,.02,0,.04.01.08-.08.03-.15.11-.23.11-.32.02-.64.01-.98.01-.27,0-.54.02-.81.02-.42,0-.83-.02-1.25-.01-.16,0-.31.06-.47.09-.41.05-.82.11-1.23.14-.32.03-.65.03-.99.05-.42.04-.84.11-1.26.14-.48.03-.98.03-1.46.06-.24.01-.48.03-.72.05-.28.01-.55.04-.83.04-.41.01-.81-.03-1.2.08-.15.04-.32-.03-.47-.03h-2.3c-.44,0-.88.02-1.32,0Z"/>
    <path class="cls-2" d="m67.24,58.21c.59-.23,1.16-.48,1.75-.71.31-.11.64-.16.96-.26.23-.06.44-.17.67-.21.35-.06.65-.3,1.03-.24.13.02.27-.09.4-.12.24-.06.47-.14.72-.15.54-.04,1.05-.11,1.57-.28.36-.12.75-.17,1.13-.27.63-.16,1.26-.35,1.88-.5.7-.17,1.41-.32,2.1-.46.48-.11.97-.21,1.45-.29.49-.08.99-.12,1.48-.15.43-.03.86-.05,1.29-.04.39,0,.76.08,1.15.09.88.01,1.77,0,2.65,0,.58,0,1.16-.01,1.74,0,.43.02.85.08,1.27.1.32.01.64,0,.97,0h1.04c.41.01.81.05,1.21.04.36-.01.73-.09,1.09-.12.24-.01.47,0,.71,0,0,.02.01.04.01.06-.12.02-.23.04-.34.05-.44.05-.87.11-1.31.15-.16.01-.32,0-.47,0-.86,0-1.71.01-2.57,0-.75-.01-1.5-.04-2.25-.04-.47,0-.94.03-1.41.03-.27,0-.53-.08-.78-.09-.6-.01-1.21.01-1.81,0-.47-.01-.93-.04-1.41-.04-.77-.01-1.53.08-2.3.24-.42.09-.85.13-1.27.2-.18.03-.36.1-.55.14-.76.18-1.51.38-2.28.56-.46.12-.93.21-1.4.32-.12.03-.23.11-.34.14-.6.12-1.2.23-1.79.34-.42.09-.83.15-1.25.25-.46.11-.92.2-1.37.34-.65.2-1.3.44-1.94.65-.47.16-.94.29-1.42.47-.33.13-.64.31-.98.45-.12.06-.26.08-.39.13-.36.14-.72.31-1.09.44-.27.09-.56.12-.83.19-.17.04-.32.13-.48.18-.04.02-.1,0-.15-.01.02-.05.02-.14.05-.16.19-.1.4-.19.6-.26.32-.11.67-.17.99-.28.25-.09.47-.21.71-.31.53-.2,1.05-.39,1.57-.59Z"/>
    <path class="cls-2" d="m66.93,73.89c.5.14,1.04.17,1.52.36.74.3,1.53.21,2.3.36.55.12,1.12.17,1.67.25.19.03.4.04.6.05.68.05,1.35.12,2.04.14.34.01.7-.08,1.05-.09.44,0,.88.02,1.33.03.14,0,.28-.02.43-.04l1.58-.23c.17-.02.33-.04.5-.06.52-.04,1.03-.09,1.56-.15.21-.02.43-.1.64-.14.5-.1,1.01-.18,1.51-.29.38-.08.74-.18,1.11-.27.59-.14,1.19-.25,1.78-.42.54-.17,1.08-.05,1.63-.09.06,0,.13.08.19.12-.08.05-.14.16-.2.16-.3-.02-.59-.08-.89-.09-.16-.01-.33.01-.49.04-.4.11-.77.25-1.17.34-.21.06-.44.06-.67.11-.13.03-.26.11-.39.14-.64.13-1.29.25-1.93.39-.41.08-.81.18-1.21.25-.24.04-.48,0-.72.04-.55.12-1.12.09-1.65.31-.27.12-.59.09-.88.13-.3.04-.61.13-.91.14-.55.04-1.08.04-1.62.04-.3,0-.6-.02-.9-.04-.72-.05-1.44-.14-2.16-.18-.44-.03-.88.01-1.32-.01-.44-.03-.88-.11-1.32-.16-.06-.01-.12-.03-.17-.03-.42.05-.76-.16-1.13-.32-.29-.13-.62-.17-.93-.25-.3-.08-.6-.15-.9-.21-.74-.15-1.46-.36-2.22-.39-.42-.01-.84-.03-1.26-.05-.12,0-.24-.02-.35-.04-.05-.01-.09-.06-.14-.11.04-.04.08-.11.13-.13.08-.03.16-.03.24-.04t.01.02c.24-.02.47-.04.71-.08.06,0,.13-.01.19,0,.93.15,1.89.23,2.81.47Z"/>
    <path class="cls-2" d="m66.47,60.75c.64-.16,1.31-.28,1.95-.43.5-.13.99-.3,1.48-.42.35-.1.72-.15,1.07-.21.59-.11,1.17-.21,1.76-.3.33-.05.68-.06,1.01-.1.16-.01.32-.03.47-.04.43-.05.86-.11,1.29-.14.42-.03.85-.04,1.27-.05.24,0,.47.04.7.04.5,0,1.01-.03,1.51-.03.3,0,.61.03.91.03.24,0,.47-.03.7-.04.41-.02.82-.02,1.21-.05.3-.02.6-.06.9-.11l.29-.03c.47-.03.94-.11,1.42-.08.72.04,1.41-.18,2.11-.23.5-.03,1-.16,1.5-.26.32-.05.65-.11.98-.17.28-.06.56-.12.84-.19.46-.13.92-.28,1.4-.38.43-.1.86-.14,1.3-.21.57-.09,1.14-.18,1.72-.28.47-.08.94-.13,1.42-.21.29-.04.58-.14.88-.19.47-.11.97-.19,1.44-.29.17-.03.32-.11.48-.14.81-.16,1.6-.32,2.4-.49.41-.09.81-.21,1.22-.29.58-.12,1.16-.19,1.75-.29.4-.06.79-.13,1.2-.19.5-.06,1.02-.13,1.52-.19.61-.1,1.22-.2,1.84-.28.39-.04.77-.04,1.17-.06.24-.02.47-.06.71-.1.19-.02.39-.04.58-.04.38-.01.75,0,1.13-.01.97-.01,1.94-.02,2.91-.05.28,0,.56-.06.83-.1.09-.01.16.01.25.02v.08c-.19.04-.39.12-.58.15-.41.04-.82.08-1.22.1-.38.02-.75,0-1.13,0-.39.01-.77.04-1.16.05-.43,0-.86-.01-1.28,0-.52.02-1.03.05-1.53.1-.33.04-.65.13-.99.17-.41.05-.83.08-1.25.12-.2.02-.41.08-.61.11-.48.06-.98.12-1.46.19-.41.05-.81.15-1.21.21-.4.06-.81.12-1.2.17-.08.01-.14.03-.2.05-.1.01-.18.03-.28.04-.06.01-.14-.01-.19.02-.42.24-.9.2-1.35.31-.35.09-.71.17-1.06.25-.49.12-1,.23-1.49.34-.36.09-.72.17-1.08.25-.32.08-.65.14-.99.2-.15.02-.34-.02-.46.05-.26.16-.54.13-.81.17-.6.1-1.21.15-1.8.26-.59.1-1.16.25-1.74.36-.42.1-.83.17-1.23.26-.28.06-.55.15-.83.2-.4.08-.79.13-1.2.19-.16.02-.33.03-.49.05-.2.04-.4.1-.6.13-.27.05-.55.08-.79.16-.4.14-.82.1-1.22.14l-2.25.19c-.23.01-.45-.02-.68,0-1.32.13-2.63.17-3.95.15-.34-.01-.7-.02-1.05,0-.53.02-1.06.06-1.59.1-.57.03-1.13.04-1.69.1-.38.03-.74.12-1.12.17-.43.08-.86.14-1.29.21-.32.06-.63.15-.94.23-.28.08-.56.14-.83.21-.18.04-.35.11-.53.14-.78.18-1.57.34-2.34.55-.64.17-1.27.42-1.91.61-.39.11-.77.17-1.16.26-.32.09-.64.16-.97.25-.01-.04-.03-.1-.04-.14.15-.06.3-.14.45-.18.55-.18,1.11-.35,1.65-.52.34-.1.7-.15,1.04-.26.38-.11.74-.28,1.13-.38Z"/>
    <path class="cls-2" d="m67.87,55.85c-.56.09-1.11.33-1.64.55-.78.3-1.55.64-2.33.96-.49.2-1,.39-1.49.58-.06.02-.13.08-.19.09-.04.02-.11,0-.16-.01.02-.04.03-.12.06-.14.35-.16.7-.32,1.06-.47.61-.26,1.25-.49,1.87-.75.56-.21,1.13-.42,1.66-.68.65-.29,1.35-.34,2.03-.48.33-.06.65-.17.98-.28.75-.24,1.5-.52,2.26-.73.6-.16,1.21-.26,1.82-.4.46-.1.91-.21,1.37-.3.28-.06.56-.1.85-.13.18-.03.38-.04.56-.05.01.02.02.04.02.06-.04.03-.08.06-.12.08-.29.06-.58.13-.86.19-.39.09-.76.17-1.14.25-.63.14-1.28.25-1.91.4-.35.08-.7.2-1.05.31-.57.18-1.14.39-1.71.56-.64.19-1.29.31-1.95.41Z"/>
    <path class="cls-2" d="m61.03,70.36c.4-.14.78-.29,1.19-.4.33-.1.69-.17,1.03-.23.2-.03.41-.03.61-.02.05.01.11.09.16.13-.06.04-.12.1-.18.11-.38.05-.77.06-1.14.16-.54.14-1.05.32-1.58.48-.06.02-.12.03-.18.04l-.06-.06c.05-.08.09-.18.15-.21Z"/>
    <path class="cls-2" d="m66.47,64.98c.56-.01,1.11-.03,1.65-.04.71-.01,1.41.01,2.1,0,.94-.02,1.89-.06,2.83-.1.28-.01.56-.01.83,0,.08.01.14.08.2.11-.01.03-.02.05-.03.09h-.26c-1.07,0-2.16-.02-3.23.05-.35.02-.72.08-1.07.09-.6.02-1.2-.01-1.8.01-.71.02-1.43.04-2.14.1-.48.04-.97.16-1.46.23-.24.04-.49.03-.74.06-.32.04-.64.12-.97.14-.35.02-.72-.02-1.07.01-.71.04-1.41.12-2.1.18-.2.02-.4.04-.6.05-.08,0-.14-.03-.24-.04.15-.36.46-.24.68-.29.5-.11,1.02-.19,1.53-.24.46-.04.93,0,1.41-.01.24,0,.48-.03.72-.05.53-.06,1.05-.14,1.57-.19.55-.05,1.11-.1,1.65-.14.18-.02.36,0,.54-.01Z"/>
    <path class="cls-2" d="m68.71,66.99c-.52.02-1.03.1-1.55.13-.36.02-.72.01-1.08.01-.1.01-.2.04-.3.04-.24.01-.46,0-.69.01-.6.01-1.19.03-1.79.04-.41.01-.82,0-1.22,0-.5,0-1.01-.02-1.52.01-.44.02-.88.11-1.33.13-.39.03-.78,0-1.18.01-.43,0-.86.02-1.29.03-.09,0-.17,0-.25-.02-.02-.01-.03-.12-.01-.16.01-.04.08-.08.13-.1.63-.18,1.29-.19,1.93-.13.6.05,1.18-.01,1.77-.11.45-.06.91-.03,1.37-.05.36-.01.73-.04,1.08-.04.46-.01.91,0,1.37-.01.3,0,.61-.03.91-.04.67-.02,1.33-.03,1.99-.05.49-.01.98-.04,1.47-.04.64,0,1.29.04,1.94.04.52-.01,1.04-.05,1.56-.1.45-.03.91-.09,1.36-.15.25-.03.49-.1.73-.17.81-.26,1.63-.36,2.46-.46.88-.1,1.76-.26,2.64-.38.47-.06.94-.1,1.41-.15.67-.09,1.32-.16,1.98-.25.26-.03.54-.04.77-.13.43-.17.85-.39,1.27-.58.06-.03.14-.05.24-.1.02.33-.25.36-.39.45-.43.24-.88.44-1.33.62-.21.09-.45.08-.69.12-.36.06-.74.15-1.12.2-.46.08-.93.13-1.4.18-.65.08-1.31.18-1.96.18-.69,0-1.33.23-2,.31-.72.1-1.44.21-2.15.34-.26.04-.52.14-.77.19-.3.06-.6.12-.9.14-.65.03-1.32.04-1.99.05-.49,0-.99-.05-1.48-.04Z"/>
    <path class="cls-2" d="m67.46,72.84c-.54-.01-1.07.06-1.61.09-.59.01-1.18,0-1.76,0-.34-.01-.68-.04-1.02-.04-.35-.01-.72.01-1.07-.01-.52-.04-1.03-.13-1.55-.17-.25-.03-.5-.02-.75-.02-.27.01-.54.03-.81.05-.71.03-1.42.06-2.13.09-.26.01-.53-.01-.79-.05-.04,0-.11-.12-.12-.19,0-.03.09-.12.13-.13.14-.01.28,0,.42,0v-.05c.88,0,1.77.01,2.65,0,.52,0,1.04-.06,1.56-.04.52.03,1.03.13,1.55.17.19.02.39-.03.58-.03.54.01,1.07.04,1.62.05.61,0,1.23.01,1.85-.01.48-.01.97-.06,1.45-.09.21,0,.44.03.67.05.28.02.56.08.84.09.82.04,1.64.03,2.46.11.96.1,1.9.26,2.84.38.59.08,1.17.17,1.76.19.71.03,1.43.01,2.14.01.63,0,1.27-.01,1.9-.02.54-.01,1.07-.03,1.61-.09.3-.02.6-.1.88-.18.5-.14,1-.26,1.53-.26.25.01.49-.1.73.1.04.03.15-.04.23-.03.06.01.12.08.17.12-.05.02-.11.08-.16.08-.63.08-1.28.1-1.91.19-.69.12-1.35.3-2.04.43-.42.08-.84.12-1.27.15-.84.04-1.67.1-2.51.09-.63-.01-1.27-.11-1.9-.19-.58-.08-1.15-.21-1.72-.28-.96-.1-1.92-.17-2.88-.25-.65-.05-1.31-.1-1.96-.15-.54-.04-1.07-.12-1.6-.13Z"/>
    <path class="cls-2" d="m69.15,77.13c-.82-.02-1.59-.15-2.35-.47-.31-.13-.68-.14-1.01-.23-.29-.08-.55-.2-.84-.26-.63-.13-1.27-.21-1.9-.32-.43-.08-.86-.16-1.29-.24-.2-.03-.4-.05-.6-.05-.55.01-1.06-.18-1.59-.3-.25-.06-.5-.1-.75-.14-.77-.14-1.55-.28-2.33-.41-.13-.02-.28-.01-.42.01-.27.04-.4-.01-.43-.24-.01-.04.05-.14.09-.14.17.01.35.02.53.04.34.03.69.05,1.03.11.33.05.67.14,1,.2.75.16,1.51.34,2.28.46.71.12,1.43.16,2.14.26.3.04.59.15.88.2.4.06.81.1,1.2.18.38.09.73.2,1.09.31.74.21,1.48.44,2.23.64.14.04.31,0,.46.02.75.08,1.5.15,2.26.23.17.02.35.01.54.01.06.01.14.03.21.05v.08c-.06.04-.13.11-.2.11-.36.01-.73.01-1.08-.01-.39-.02-.76-.12-1.15-.12Z"/>
    <path class="cls-2" d="m65.57,62.15c1.01-.24,2.02-.49,3.03-.71.48-.1.99-.1,1.48-.15.78-.1,1.56-.2,2.34-.29.34-.04.69-.08,1.03-.1.76-.05,1.55-.05,2.31-.16.78-.12,1.58-.09,2.37-.14.77-.05,1.53-.14,2.3-.18.45-.03.89.01,1.34.01.28,0,.57-.01.86-.02.42-.02.84-.03,1.26-.04.58-.02,1.17-.02,1.75-.06.49-.03,1-.12,1.49-.18.19-.03.39-.1.58-.13.08-.01.16.01.24.02,0,.03,0,.06.01.11-.38.08-.73.17-1.11.24-.46.08-.93.12-1.4.18-.03,0-.06.01-.1.01-.81.01-1.62.1-2.44.03-.36-.02-.75.06-1.12.06-.41.01-.82-.03-1.22-.01-.28.01-.56.1-.85.11-.49.03-1,.02-1.49.05-.85.05-1.7.14-2.54.19-.4.03-.79.02-1.18.05-.52.04-1.03.13-1.55.18-.4.04-.78.08-1.17.11-.48.04-.96.1-1.44.15-.4.04-.78.1-1.18.14-.26.03-.52.05-.76.11-.27.05-.53.15-.79.21-.45.13-.91.25-1.37.36-.53.14-1.06.26-1.58.42-.77.24-1.55.46-2.35.56-.55.08-1.08.24-1.63.35-.4.08-.79.14-1.19.23-.23.05-.44.12-.65.21-.45.18-.92.21-1.41.24-.32.01-.65.11-.98.17-.41.09-.83.16-1.23.26-.36.09-.72.21-1.08.31-.12.03-.24.05-.34.08-.02-.02-.04-.03-.05-.04.04-.06.06-.15.12-.17.28-.13.55-.26.84-.34.5-.16,1.02-.3,1.53-.43.2-.05.42-.05.55-.25.02-.03.09-.02.14-.03.53-.04,1.05-.08,1.58-.15.4-.05.78-.16,1.18-.26.42-.09.84-.18,1.26-.27.39-.09.77-.17,1.16-.25.69-.15,1.36-.29,2.05-.44.47-.11.94-.24,1.43-.35Z"/>
    <path class="cls-2" d="m57.57,69.47c.26-.04.52-.11.77-.14.09-.01.18.01.27.06-1.76.39-3.5.87-5.31.92-.01-.04-.02-.08-.02-.11.13-.04.26-.09.39-.11.62-.1,1.25-.18,1.87-.28.68-.11,1.36-.24,2.04-.35Z"/>
    <path class="cls-2" d="m68.08,79.15c-.39-.03-.76-.1-1.14-.14-.43-.05-.85-.09-1.27-.13-.34-.04-.69-.1-1.02-.15-.6-.1-1.19-.2-1.78-.31-.36-.06-.72-.17-1.07-.2-.44-.05-.83-.24-1.22-.4-.06-.03-.15-.03-.24-.02-.77.03-1.49-.19-2.19-.49-.23-.09-.47-.15-.7-.24-.27-.1-.53-.2-.79-.31-.4-.14-.79-.28-1.2-.43-.17-.05-.34-.15-.53-.18-.36-.05-.73-.06-1.08-.11-.33-.04-.67-.12-1-.14-.34-.02-.7.02-1.04.02-.06,0-.15-.02-.19-.06-.08-.06-.18-.16-.17-.21.04-.13.16-.09.28-.06.26.03.53.01.79.02.32.01.65.02.98.04.15.01.3.05.45.05.56.01,1.09.1,1.61.35.47.23.98.4,1.47.57.45.16.91.29,1.35.45.25.1.47.24.76.15.28.29.69.21,1.03.28.41.09.78.24,1.17.36.46.16.97.18,1.45.28.6.11,1.19.26,1.79.36.36.06.73.08,1.09.13.29.03.57.08.85.12.41.05.83.12,1.23.16.6.05,1.2.1,1.79.15.05,0,.1.04.14.06v.1c-.1.01-.19.03-.29.03-.44-.03-.88-.06-1.32-.11Z"/>
    <path class="cls-2" d="m66.23,59.83c.65-.2,1.32-.4,1.98-.59.77-.23,1.53-.45,2.31-.65.52-.13,1.04-.2,1.56-.32.41-.1.81-.26,1.21-.35,1.09-.25,2.2-.47,3.3-.72.4-.09.79-.18,1.19-.26.44-.09.89-.15,1.33-.23.38-.06.75-.15,1.13-.2.49-.06,1-.11,1.49-.15.4-.03.78-.04,1.18-.06.1,0,.19.03.3.03.92-.03,1.86-.06,2.78-.1.52-.02,1.03-.05,1.53-.1.64-.06,1.29-.16,1.93-.18.62-.03,1.25.01,1.88.02.16,0,.33-.03.49-.02.09,0,.16.06.24.1-.01.03-.01.05-.02.08-.11.03-.21.08-.32.09-.67.01-1.32.01-1.99.02-.42.01-.84.02-1.26.04-.85.05-1.69.1-2.53.15-.52.03-1.03.11-1.55.13-.4.02-.79-.05-1.19-.03-.79.04-1.58.12-2.37.19-.43.04-.86.09-1.28.15s-.83.16-1.25.24c-.43.09-.87.16-1.3.25-.52.11-1.03.21-1.53.32-.44.1-.88.19-1.32.3-.68.16-1.35.34-2.03.52-.47.12-.96.2-1.43.32-.73.18-1.45.39-2.16.58-.72.19-1.45.35-2.15.62-.65.25-1.33.36-2.01.56-.91.27-1.85.52-2.78.71-.62.13-1.21.33-1.81.53-.99.32-1.96.67-2.9,1.11-.61.29-1.23.54-1.84.83-.63.31-1.25.69-1.89.99-.67.31-1.36.58-2.05.85-.45.17-.9.31-1.36.46-.1-.17-.01-.36.25-.39.44-.04.82-.23,1.21-.4.52-.24,1.04-.47,1.56-.7.15-.06.33-.08.47-.15.4-.2.77-.45,1.17-.65.28-.15.58-.27.87-.41.61-.27,1.21-.56,1.84-.82.55-.24,1.12-.43,1.67-.64.39-.14.77-.27,1.17-.39.52-.16,1.03-.3,1.56-.44.82-.2,1.64-.41,2.47-.6.59-.15,1.19-.28,1.78-.43.16-.03.3-.14.46-.18Z"/>
    <path class="cls-2" d="m67.81,68.19c-.11,0-.23,0-.34.01-.21.01-.43.04-.64.04-.7.01-1.36.14-2.04.28-.6.14-1.21.24-1.81.36-.26.04-.5.13-.76.2l-.84.23c-.69.18-1.37.36-2.05.57-.35.11-.69.3-1.04.4-.41.12-.83.16-1.23.26-.57.12-1.13.27-1.7.39-.36.08-.74.11-1.11.14-.55.05-1.08.11-1.63.14-.54.04-1.07.08-1.61.11-.31.02-.62.05-.94.06-.05.01-.13-.06-.19-.1.05-.05.1-.13.15-.15.06-.02.15-.01.23-.01.62.02,1.23-.04,1.85-.14.34-.04.69-.03,1.03-.05.68-.04,1.35-.08,2.02-.15.36-.05.72-.18,1.08-.27.27-.06.55-.09.82-.17.65-.19,1.3-.42,1.96-.61.43-.13.87-.24,1.3-.35.18-.05.36-.11.55-.15.43-.13.87-.25,1.3-.36.53-.14,1.05-.3,1.58-.42.62-.13,1.26-.25,1.88-.33.62-.08,1.25-.11,1.87-.15.4-.02.79-.03,1.19-.04.45-.01.91-.02,1.36,0,.79.05,1.59.13,2.37.19.28.02.55.03.82.05.08,0,.15.03.23.05,0,.02-.01.04-.01.08h-1.48c-.14-.01-.27-.03-.41-.04-.69-.04-1.38-.11-2.08-.14-.3-.01-.6.03-.89.05-.25.01-.5.02-.75.03Z"/>
    <path class="cls-2" d="m67.38,77.57c.38.06.76.09,1.14.14.53.08,1.04.17,1.56.27,1.08.19,2.19.32,3.3.27.41-.02.82-.04,1.22-.05.5-.01,1.01-.01,1.51,0,.63.01,1.27.06,1.9.04.75-.03,1.51-.11,2.26-.19.64-.08,1.29-.18,1.93-.29.68-.12,1.35-.26,2.03-.39.06-.01.14.03.2.04-.04.05-.06.14-.12.15-.26.08-.52.14-.77.19-.43.1-.87.19-1.3.27-.24.04-.48.04-.72.08-.68.1-1.35.24-2.03.29-.9.08-1.79.08-2.69.1-.47,0-.96-.04-1.43-.04-.43,0-.86.04-1.29.04-.63-.01-1.28-.06-1.92-.03-.47.01-.92-.08-1.4-.12-.26-.02-.52-.1-.77-.14-.41-.06-.81-.14-1.22-.19-.68-.09-1.35-.15-2.04-.25-.45-.08-.9-.18-1.35-.28-.25-.04-.5-.1-.76-.16-.35-.09-.7-.19-1.04-.28-.31-.08-.61-.14-.92-.2-.3-.05-.59-.1-.89-.15-.31-.06-.62-.13-.92-.19-.53-.11-1.04-.21-1.57-.34-.35-.09-.7-.2-1.05-.27-.53-.11-1.05-.17-1.58-.27-.26-.04-.52-.15-.77-.2-.34-.05-.7-.1-1.05-.13-.43-.04-.86-.08-1.29-.11-.26-.01-.5-.02-.75-.04-.45-.05-.9-.11-1.35-.17-.03,0-.06-.02-.1-.02-1.14-.05-2.22-.34-3.32-.63-.1-.03-.18-.09-.3-.13.01-.06.03-.13.03-.14.72.16,1.42.31,2.13.46.33.08.68.15,1.02.2.46.05.92.1,1.38.14.62.06,1.23.13,1.85.19h.19c.82-.04,1.6.12,2.39.3.46.11.94.15,1.42.25.39.09.76.21,1.14.31.42.1.84.17,1.26.27.49.1.98.2,1.46.31.54.11,1.07.19,1.61.32.45.11.9.25,1.35.38.11.03.23.04.34.05.7.12,1.4.25,2.09.35Z"/>
    <path class="cls-2" d="m55.16,67.09s.02.04.02.08c-.06.03-.13.1-.2.11-.82.14-1.64.26-2.47.4-.68.11-1.36.17-2.01.35-.49.15-.97.31-1.46.42-.67.14-1.34.25-2.01.4-.43.11-.84.29-1.25.43-.3.11-.58.21-.88.29-.11.02-.25-.04-.36-.06,0-.03.01-.06.01-.1.04-.04.09-.1.15-.12.53-.17,1.06-.33,1.59-.52.3-.1.6-.21.9-.29.42-.11.85-.18,1.28-.27.57-.12,1.15-.25,1.72-.35.76-.15,1.52-.29,2.3-.42.73-.13,1.46-.24,2.19-.34.16-.02.32,0,.48,0Z"/>
    <path class="cls-2" d="m58.07,71.69c-.45.08-.89.15-1.34.2-.42.06-.83.11-1.23.16-.27.03-.53.05-.78.09-.48.06-.97.14-1.45.17-.35.03-.7.02-1.05.02-.29.01-.58.01-.88,0-.68-.02-1.36-.05-2.05-.1-.31-.02-.62-.11-.94-.14-.33-.02-.67.01-1-.01-.14,0-.28-.04-.42-.08-.33-.09-.67-.18-1-.25-.16-.03-.34-.01-.52,0-.26.01-.5.02-.76.03-.15.01-.3.01-.46,0-.06,0-.13-.03-.19-.05.03-.08.05-.17.11-.23.06-.05.17-.08.26-.08.39,0,.78-.01,1.16.03.52.06,1.06.01,1.51.34.03.02.08.03.12.03h.9c.24.01.48.03.72.05.34.03.68.1,1.02.13.29.02.58.02.87.03.62.01,1.26.05,1.88.04.5-.01,1.02-.06,1.52-.12.45-.04.9-.1,1.35-.19.64-.14,1.31-.09,1.96-.26.72-.2,1.48-.29,2.23-.35.62-.05,1.26-.01,1.88-.01.09,0,.18.01.27-.01.27-.06.25.09.24.2-.74,0-1.46-.04-2.17.01-.59.04-1.17.21-1.75.31Z"/>
    <path class="cls-2" d="m67.62,75.39c.5.1,1.01.2,1.51.32.68.15,1.35.33,2.03.46.35.06.71.04,1.06.08.28.02.56.06.84.1.59.05,1.18.11,1.78.14.36.02.75-.03,1.12.01,1.01.12,2.03.1,3.05.09.73-.01,1.46-.06,2.19-.1.09,0,.17.03.27.04v.09c-.09.02-.16.06-.25.06-.63.02-1.28.03-1.91.05-.64.01-1.28.04-1.92.04-1.06,0-2.14,0-3.2-.05-.6-.03-1.19-.16-1.78-.23-.26-.03-.5-.04-.76-.05-.61,0-1.2-.16-1.8-.31-.38-.09-.76-.15-1.14-.24-.54-.12-1.07-.26-1.61-.38-.54-.13-1.08-.27-1.63-.34-.83-.11-1.63-.31-2.44-.5-.35-.08-.72-.09-1.07-.14-.43-.05-.85-.14-1.27-.2-.67-.11-1.32-.23-1.98-.32-.55-.09-1.08-.18-1.63-.24-.38-.03-.75-.01-1.13-.01-.32-.01-.64-.02-.97-.04-.3-.01-.59-.03-.89-.05-.24-.02-.48-.05-.72-.06-.27-.02-.54-.01-.81-.03-.45-.04-.9-.11-1.35-.14-.27-.02-.54,0-.81-.01-.54-.02-1.06-.06-1.59-.09-.2-.01-.4.04-.6.03-.38-.01-.75-.06-1.13-.09-.46-.02-.92-.03-1.38-.05-.52-.03-1.04-.02-1.55-.11-.56-.1-1.11-.29-1.65-.45-.02,0-.04-.04-.11-.12.17,0,.3-.03.4.01.56.24,1.15.3,1.73.36.54.06,1.07,0,1.6.06,1.18.16,2.37.13,3.55.15.69.01,1.36.04,2.05.1.72.04,1.44.14,2.16.18.63.04,1.26.02,1.88.05.57.03,1.13.1,1.67.14.32.03.64.06.96.11.44.05.87.11,1.3.17.89.13,1.74.41,2.64.42.33,0,.65.13.98.19.84.17,1.66.35,2.49.53.6.13,1.21.24,1.81.36Z"/>
    <path class="cls-2" d="m58.75,68.34c-.34.02-.7.01-1.04.06-.41.06-.81.19-1.2.29-.03.01-.06.04-.09.03-.62-.05-1.2.18-1.8.26-.39.05-.76.2-1.15.28-.52.12-1.04.2-1.56.3-.85.15-1.7.29-2.53.44-.73.12-1.46.25-2.2.35-.28.04-.56.02-.85.04-.09.01-.17.06-.27.09-.33.05-.65.11-.99.14-.26.03-.52.03-.77.06-.1.01-.19.09-.29.11-.1.01-.19-.04-.28-.04-.29,0-.57.02-.85.02-.33,0-.65-.03-.98-.04h-.31c-.01-.2.12-.24.25-.24.35.01.7.04,1.04.03.36,0,.73-.01,1.09-.04.52-.05,1.03-.13,1.53-.18.47-.05.94-.1,1.41-.16.5-.06,1.01-.14,1.51-.2.29-.04.57-.09.85-.13.67-.12,1.33-.25,2-.36.5-.1,1.01-.17,1.52-.28.35-.06.7-.18,1.05-.26.49-.12.99-.23,1.49-.32.61-.11,1.25-.14,1.85-.3.69-.19,1.38-.15,2.07-.24h.24c.01.3-.24.23-.36.28-.12.04-.26.01-.39.01Z"/>
    <path class="cls-2" d="m67.6,63.68c.41-.05.81-.11,1.21-.14.85-.08,1.7-.14,2.54-.2.24-.01.48-.03.73-.04.91-.06,1.84-.14,2.76-.19.59-.04,1.18-.05,1.76-.11.72-.06,1.44-.08,2.14-.28.39-.11.79-.14,1.19-.2.15-.02.29-.06.44-.09.03-.01.08.06.11.1-.03.03-.06.08-.1.09-.34.09-.69.18-1.04.26-.34.06-.69.12-1.03.18-.16.03-.32.09-.48.11s-.33.03-.5.03c-.34.02-.69.03-1.04.05-.85.06-1.69.13-2.53.19-.44.03-.87.06-1.3.1-.77.05-1.56.1-2.33.15-.54.03-1.06.06-1.6.12-.58.06-1.17.15-1.75.23-.49.06-.98.12-1.47.19-.47.06-.97.06-1.44.21-.33.11-.71.09-1.06.13-.59.06-1.18.13-1.76.2-.34.03-.69.09-1.02.13l-1.32.19c-.5.09-1.01.15-1.5.25-.74.16-1.47.35-2.2.53-.73.16-1.46.29-2.19.45-.32.08-.62.23-.94.31-.78.21-1.57.42-2.35.61-.6.14-1.22.24-1.84.4s-1.2.36-1.81.55c-.5.16-1.02.32-1.53.45-.34.1-.69.13-1.02.21-.28.08-.55.18-.82.27-.41.14-.82.29-1.23.41-.6.17-1.2.31-1.81.45-.16.04-.33.01-.5.01-.02-.01-.04-.03-.06-.04.08-.05.14-.15.23-.16.47-.11.94-.19,1.42-.3.5-.12,1-.27,1.49-.41.79-.24,1.59-.49,2.38-.73.49-.14.99-.28,1.47-.42.59-.17,1.17-.35,1.76-.52.49-.12.99-.2,1.48-.32.42-.09.83-.19,1.22-.3.81-.23,1.6-.47,2.4-.69.58-.15,1.17-.25,1.76-.38.3-.06.6-.14.91-.2.73-.16,1.47-.32,2.2-.47.48-.1.97-.2,1.45-.28.41-.08.83-.11,1.23-.16.71-.1,1.43-.19,2.14-.29.16-.02.32-.03.47-.05l1.55-.19c.18-.03.35-.08.54-.09.33-.04.67-.06,1.01-.11l1.61-.19Z"/>
    <path class="cls-2" d="m57.92,78.96c-.18.2-.38.06-.52.01-.43-.14-.84-.33-1.26-.48-.35-.14-.72-.24-1.07-.35l-.06-.03-2.06-.74c-.35-.14-.7-.29-1.05-.42-.38-.13-.75-.24-1.13-.36-.34-.12-.68-.29-1.03-.39-.46-.13-.87-.38-1.35-.46-.59-.11-1.16-.34-1.74-.54-.41-.14-.82-.27-1.22-.42-.34-.13-.68-.28-1.02-.41-.36-.14-.73-.29-1.11-.41-.4-.13-.81-.24-1.2-.34-.49-.14-.99-.29-1.49-.39-.63-.14-1.23-.43-1.91-.35-.49.05-.98-.05-1.45-.16-.15-.04-.3-.08-.45-.11.01-.03.01-.08.01-.12.06-.01.12-.05.17-.04.36.06.73.15,1.09.21.12.02.26-.03.38-.02.36.02.74.02,1.09.1.84.17,1.67.35,2.49.59.71.2,1.38.48,2.08.72.44.15.89.29,1.32.44.36.14.73.3,1.09.43.3.11.61.16.91.26.57.18,1.15.35,1.73.56.57.19,1.13.41,1.69.61.26.09.52.17.76.27.49.18.98.35,1.46.54.7.26,1.38.52,2.08.77.34.12.71.2,1.04.33.31.11.6.27.91.4.21.09.45.15.68.23.03.01.08.05.13.09Z"/>
    <path class="cls-2" d="m26.99,69.78c.4.09.62.43,1.01.6-.08.08-.13.13-.17.16-.33-.21-.64-.42-.84-.76Z"/>
    <path class="cls-2" d="m26.85,74.04c.4-.11.77-.25,1.21-.4.01.1.05.18.02.25-.01.04-.13.04-.19.05-.17.05-.33.11-.5.15-.56.16-1.12.31-1.69.47-.05-.17-.04-.25.12-.28.34-.08.69-.15,1.03-.25Z"/>
    <path class="cls-2" d="m25.85,80.91c-.19.86-.42,1.71-.84,2.48-.2.38-.5.7-.79,1.01-.09.11-.27.14-.42.2l-.03-.06c.02-.05.02-.13.06-.14.36-.16.55-.49.73-.82.33-.58.62-1.17.77-1.84.09-.44.24-.87.36-1.3.03-.09.12-.16.18-.24.03.01.06.03.1.04-.04.21-.08.44-.13.65Z"/>
    <path class="cls-2" d="m27.38,75.26c-.04.09-.08.18-.14.24-.7.54-1.41,1.05-2.09,1.59-.13.1-.21.25-.3.39-.25.4-.52.78-.71,1.2-.14.31-.18.68-.29,1.02-.03.1-.15.25-.2.23-.15-.03-.13-.16-.09-.3.1-.33.15-.69.26-1.01.06-.23.16-.44.29-.62.31-.44.56-.92,1-1.26.35-.28.71-.57,1.08-.83.32-.23.67-.42,1-.63.04-.02.09-.04.13-.05.02.01.04.03.06.04Z"/>
    <path class="cls-2" d="m25.9,78.5c-.47.64-.99,1.27-1.36,1.99-.21.42-.35.87-.41,1.35-.03.29-.16.58-.29.85-.26.53-.53,1.03-.82,1.53-.17.28-.4.53-.61.78-.1.13-.2.25-.32.38-.18-.17-.11-.29-.02-.41.33-.46.7-.9,1.02-1.37.11-.16.14-.36.21-.55.11-.25.25-.48.33-.73.1-.29.13-.59.23-.87.17-.48.31-.98.57-1.41.38-.59.85-1.13,1.29-1.67.06-.09.17-.14.27-.21.02.03.05.05.09.08-.05.09-.11.18-.17.27Z"/>
    <path class="cls-2" d="m23.79,75.5c.13.17.06.27-.09.34-.57.28-.92.73-1.17,1.3-.09.2-.24.4-.35.6-.03.06-.04.13-.08.19-.03.05-.09.1-.13.15-.05-.06-.15-.12-.15-.17.01-.15.03-.32.11-.45.16-.28.36-.53.52-.81.25-.46.59-.79,1.07-1.01.09-.04.16-.1.27-.15Z"/>
    <path class="cls-2" d="m24.69,66.26c.13.09.21.21.29.35-1.33-.62-2.44-1.59-3.74-2.26.02-.03.03-.06.05-.1.06.02.13.03.18.05.73.39,1.47.75,2.13,1.27.33.27.73.45,1.08.69Z"/>
    <path class="cls-2" d="m21.25,79.37c-.04.26-.1.52-.12.77-.05.43-.08.85-.12,1.28-.02.23-.05.45-.1.68-.01.05-.12.09-.18.13-.03-.05-.1-.12-.09-.17.02-.42.1-.85.08-1.27-.03-.47.23-.85.33-1.28.01-.05.06-.11.1-.15.03,0,.06.01.1.01Z"/>
    <path class="cls-2" d="m21.49,86.15c-.04.13-.05.27-.13.38-.16.21-.35.42-.55.61-.05.05-.16.09-.24.09-.06,0-.12-.08-.17-.12.04-.05.06-.13.12-.15.3-.11.46-.34.55-.61.08-.2.18-.26.42-.19Z"/>
    <path class="cls-2" d="m27.96,72.98c.06,0,.13.06.19.1,0,.03-.01.06-.02.11-.32.03-.64.06-.97.11-.44.05-.91.03-1.31.19-.57.23-1.2.33-1.71.76-.28.24-.64.36-.93.59-.32.24-.61.53-.92.79-.29.24-.42.56-.59.87-.23.43-.48.84-.71,1.27-.12.21-.18.45-.26.68-.03.11-.04.23-.06.34-.21,0-.25-.12-.23-.27.09-.48.26-.92.54-1.33.24-.36.46-.74.67-1.13.17-.31.35-.58.65-.79.34-.25.63-.58.98-.83.42-.29.85-.56,1.3-.77s.92-.35,1.41-.5c.2-.06.44-.06.65-.09.44-.04.88-.08,1.32-.1Z"/>
    <path class="cls-2" d="m25.66,75.09s.09.06.14.11c-.04.04-.09.11-.14.12-.27.06-.48.2-.7.36-.49.39-.79.92-1.11,1.44-.39.63-.76,1.28-1.09,1.95-.29.59-.48,1.22-.62,1.88-.1.49-.24.98-.34,1.46-.11.45-.21.91-.28,1.37-.08.5-.29.96-.54,1.38-.13.23-.3.43-.44.64-.03-.01-.06-.02-.1-.04.01-.08-.01-.16.03-.21.48-.72.69-1.52.85-2.35.17-.89.36-1.78.59-2.66.14-.55.33-1.07.57-1.58.29-.59.64-1.15.98-1.72.26-.43.52-.88.84-1.27.25-.29.58-.53.9-.76.12-.09.3-.11.46-.13Z"/>
    <path class="cls-2" d="m26.13,70.99c.84.3,1.7.57,2.54.85.28.09.56.14.84.21v.11c-.08.01-.15.04-.21.03-.54-.14-1.07-.3-1.61-.41-.82-.16-1.58-.46-2.3-.85-.46-.25-.9-.54-1.32-.85-.62-.46-1.12-1.05-1.56-1.7-.55-.81-1.22-1.49-1.96-2.11-.1-.09-.3-.16-.11-.36.36.31.74.59,1.08.92.58.55,1.02,1.21,1.51,1.84.42.52.94.93,1.44,1.38.23.19.47.34.73.49.3.16.6.32.92.44Z"/>
    <path class="cls-2" d="m19.98,77.88s-.08.01-.11.02c-.03-.11-.09-.23-.1-.33,0-.06.03-.15.06-.2.09-.11.11-.3.3-.26.02.01,0,.25-.02.38-.03.14-.1.27-.14.4Z"/>
    <path class="cls-2" d="m27.2,67.8c.33.53.63,1.07.93,1.62.12.19.19.4.32.58.33.46.76.83,1.25,1.13.38.23.77.43,1.23.68-.13.03-.21.09-.27.06-.4-.2-.81-.41-1.18-.64-.3-.19-.58-.43-.86-.67-.13-.12-.25-.26-.33-.41-.38-.65-.71-1.32-1.09-1.96-.2-.33-.47-.63-.73-.94-.34-.42-.65-.85-1.08-1.2-.53-.43-1.02-.92-1.53-1.36-.27-.23-.56-.45-.88-.6-.69-.33-1.38-.63-2.09-.91-.67-.25-1.35-.44-2.03-.67-.06-.01-.11-.08-.16-.12l.03-.1c.19.04.4.08.59.13.67.23,1.34.44,2,.69.62.23,1.25.47,1.82.77.39.2.72.52,1.05.81.55.44,1.07.89,1.6,1.35.24.23.44.48.64.74.27.33.55.67.77,1.03Z"/>
    <path class="cls-2" d="m21.97,70s.04.1.06.14c-.05.01-.12.03-.16.01-.24-.09-.39-.25-.47-.5-.13-.41-.27-.82-.48-1.18-.24-.41-.55-.77-.86-1.13-.32-.35-.7-.65-1.04-.99-.56-.55-1.17-1.05-1.59-1.73-.23-.35-.43-.84-.28-1.15.09.18.16.32.23.46.09.18.15.38.26.55.27.47.64.85,1.05,1.2.43.39.87.75,1.28,1.16.52.5,1.01,1.05,1.3,1.73.13.28.21.59.3.89.06.25.25.38.41.54Z"/>
    <path class="cls-2" d="m25.8,69.5s.06.08.12.14c-.05.03-.1.06-.17.12-.17-.23-.35-.45-.53-.68-.11-.13-.2-.26-.31-.39-.21-.26-.41-.54-.64-.78-.26-.27-.54-.52-.81-.76-.2-.18-.39-.39-.6-.55-.23-.17-.48-.3-.72-.45-.27-.16-.53-.32-.79-.49-.26-.16-.52-.32-.77-.47-.11-.08-.21-.13-.32-.2-.63-.46-1.3-.91-1.91-1.42-.39-.33-.74-.73-1.05-1.14-.29-.36-.5-.78-.75-1.18-.14-.23-.09-.48.11-.69.01.01.03.02.03.02-.01.48.2.86.49,1.23.31.41.55.89.97,1.23.46.38.9.79,1.4,1.13.65.46,1.35.87,2.04,1.3.56.35,1.13.69,1.66,1.06.29.21.55.48.81.74.68.67,1.2,1.46,1.76,2.22Z"/>
    <path class="cls-2" d="m17.34,65.92c-.18-.56-.33-1.12-.59-1.64-.08-.16-.11-.34-.14-.53-.09-.42-.18-.84-.25-1.26-.08-.43-.14-.86-.19-1.29-.02-.16.04-.24.23-.19.02.09.04.17.06.27.06.45.12.91.21,1.36.13.6.26,1.19.42,1.78.1.34.26.67.39,1,.11.32.17.67.32.97.14.3.36.57.55.86.24.36.45.75.72,1.11.4.5.82.99,1.22,1.48.1.11.16.24.26.38-.13.17-.21.03-.28-.04-.24-.25-.46-.49-.68-.75-.42-.54-.87-1.05-1.18-1.66-.23-.42-.55-.79-.79-1.2-.12-.19-.2-.42-.28-.63Z"/>
    <g>
      <path class="cls-1" d="m70.56,89.05c.41-.39.77-.81,1-1.34.05-.14.16-.25.06-.46-.09.09-.19.15-.23.24-.16.38-.38.72-.68,1-.29.26-.56.52-.86.75-.29.24-.61.44-.92.67.01.03.03.07.04.12.09-.02.2,0,.26-.04.13-.07.25-.18.37-.27.32-.22.67-.4.96-.67Zm-3.03-.62c-.16.18-.35.36-.55.5-.39.27-.79.52-1.19.75-.19.1-.4.16-.66.26q.21.14.53.03c.69-.23,1.31-.61,1.81-1.14.26-.26.44-.61.7-.87.5-.52.78-1.15.99-1.82.14-.45.25-.9.36-1.35.01-.09-.05-.19-.09-.28-.02,0-.05.01-.07.01-.02.07-.05.16-.06.23-.05.19-.08.38-.14.56-.1.3-.19.62-.32.92-.15.38-.31.76-.51,1.11-.24.39-.52.73-.8,1.09Zm.84.69c-.14.12-.27.25-.41.35-.12.08-.29.14-.41.21-.05.02-.07.09-.08.13-.01.02.05.05.06.05.31.03,1.06-.49,1.14-.76,0-.04,0-.11-.02-.12-.03-.02-.1-.03-.13-.01-.05.04-.09.1-.15.15Zm3.94-1.34c-.17.17-.35.33-.33.67.1-.07.16-.09.21-.14.37-.38.75-.75,1.1-1.15.33-.39.63-.79.91-1.21.12-.18.17-.39.25-.58.06-.16.15-.14.27-.09.12.07.14.11.08.25-.09.22-.12.48-.2.72-.16.38-.3.79-.53,1.13-.27.42-.61.79-.94,1.15-.32.38-.69.69-1.13.93-.24.11-.42.33-.65.43-.6.23-1.2.43-1.8.62-.37.12-.77.19-1.16.27-.09.02-.2-.01-.3-.01-.61.01-1.21.05-1.82.03-.57-.02-1.15-.09-1.72-.16-.15-.02-.28-.17-.42-.26.1-.13.18-.32.31-.39.62-.32,1.12-.76,1.57-1.28.53-.64,1-1.3,1.25-2.11.11-.41.3-.79.41-1.2.1-.37.15-.74.2-1.13.04-.35.04-.72.05-1.08,0-.24.08-.31.32-.28.19.02.38.06.58.11-.03.15-.04.28-.06.39-.07.35-.1.7-.19,1.03-.13.44-.31.88-.46,1.32-.08.24-.18.49-.29.72-.02.06-.07.11-.09.16-.02.06-.03.12-.05.19.07-.02.16-.01.19-.05.09-.1.2-.21.26-.34.24-.59.49-1.19.69-1.79.1-.25.09-.54.13-.81.03-.2.06-.42.11-.63.01-.04.17-.11.21-.09.4.2.78.41,1.16.6.17.09.36.15.52.25.06.03.14.14.14.21,0,.23,0,.48-.09.68-.21.56-.45,1.11-.71,1.63-.19.41-.44.79-.66,1.17-.07.11-.15.22-.23.33-.05.08-.08.19-.14.28.02.02.05.04.07.06.05-.03.14-.04.16-.1.3-.46.59-.92.87-1.38.17-.28.35-.55.48-.85.18-.46.48-.88.45-1.42-.01-.09.04-.2.1-.29.02-.04.13-.08.18-.06.34.15.68.33,1.02.47.26.1.19.28.14.43-.1.24-.25.45-.39.68-.03.05-.09.07-.14.11-.05.07-.1.13-.2.24.35.02.5-.16.61-.36.15-.27.26-.56.4-.83.02-.04.06-.08.08-.1.29.1.57.21.85.27.21.04.2.15.15.28-.1.4-.34.73-.6,1.05-.18.24-.35.47-.56.69-.19.21-.41.42-.62.62Z"/>
      <path class="cls-1" d="m81.79,88.94c.41-.56.86-1.1,1.23-1.68.23-.37.34-.8.4-1.24.04-.33.14-.65.22-.98.01-.06,0-.15,0-.22-.07.04-.15.06-.21.12-.05.05-.09.13-.11.2-.07.34-.11.69-.21,1.03-.09.36-.17.73-.35,1.05-.28.48-.63.92-.97,1.36-.33.44-.74.81-1.02,1.27-.34.57-.87.88-1.41,1.16-.6.3-1.21.58-1.89.67-.32.03-.63.12-.94.14-.27.01-.53-.04-.78-.07-.05.18-.03.27.14.27.17-.01.34-.01.51,0,.74.02,1.46-.12,2.15-.4.47-.2.93-.4,1.38-.64.46-.26.86-.6,1.16-1.05.23-.33.46-.66.7-.99Zm-1.16-.63c.14-.27.22-.57.29-.86.17-.63.33-1.28.49-1.91.18-.71.15-1.42.14-2.14,0-.04-.05-.09-.08-.14-.03.05-.09.09-.1.14-.02.3-.05.6-.04.9,0,.57-.13,1.11-.28,1.65-.19.61-.37,1.22-.56,1.83-.22.71-.58,1.32-1.15,1.83-.57.48-1.2.84-1.83,1.23-.14.09-.26.19-.39.29.02.04.04.09.06.13.14-.04.29-.06.42-.14.27-.14.52-.33.79-.48.56-.3,1.06-.7,1.5-1.15.31-.32.53-.76.74-1.18Zm3.18-5.79c.01.44-.17.81.08,1.14.07-.33.09-.68.1-1.01,0-.03-.1-.06-.18-.13Zm-1.91,3.72c-.04.1-.09.2-.14.3-.03.07-.09.14-.13.21.03.03.06.07.1.09.08-.07.22-.12.26-.22.14-.34.28-.69.39-1.05.14-.44.26-.89.36-1.33.07-.27.1-.54.13-.81,0-.03-.05-.08-.07-.12-.04.03-.1.05-.11.08-.08.32-.16.66-.26.99-.1.42-.23.85-.36,1.27-.05.19-.11.39-.17.59Zm.06,4.64c.08-.11.22-.19.32-.27.31-.24.63-.47.93-.7.11-.11.21-.25.3-.38.08-.13.07-.14-.05-.23-.3.26-.56.53-.87.78-.35.3-.77.51-1.04.94.19.04.31.04.41-.14Zm2.94-1.85c-.23.24-.51.46-.76.68-.06.06-.12.13-.16.21-.01.04.03.11.05.17.19-.13.34-.23.46-.35.35-.34.71-.66,1.02-1.03.28-.34.5-.73.73-1.11.03-.03-.01-.09-.01-.14-.04.02-.1.02-.13.06-.09.13-.16.29-.26.42-.3.37-.62.74-.94,1.09Zm-.14-.96c-.05.09-.05.22-.03.33.99-1.22,1.55-2.63,1.91-4.15.04.04.09.06.09.1.09.41.31.83.27,1.24-.09.81-.11,1.66-.62,2.36-.22.33-.43.66-.63.98-.15.24-.25.49-.42.7-.22.25-.5.46-.77.66-.46.37-.93.71-1.42,1.03-.2.14-.46.21-.68.3-.25.11-.49.25-.75.32-.69.19-1.39.36-2.09.51-.42.09-.84.12-1.27.15-.42.02-.85,0-1.29-.01-.11-.01-.21-.11-.32-.13-.45-.09-.91-.16-1.35-.26-.15-.03-.28-.14-.49-.25.19-.15.31-.27.44-.36.5-.31,1.01-.61,1.5-.92.74-.47,1.43-1,2.05-1.61.33-.33.71-.64.96-1.03.25-.4.4-.88.53-1.34.09-.32.06-.68.12-1.02.07-.36.19-.7.3-1.04.07-.22-.02-.43-.28-.58.1.37.16.72-.13,1.01-.27-.19-.23-.51-.33-.78-.06-.14.01-.33.07-.51.04-.46.22-.51.35-.75.01-.03.43-.35.46-.35.35.05.54-.24.8-.39.37-.24.78-.39,1.21-.49.11-.02.22.05.33.05.58-.02,1.06.26,1.56.5.28.13.47.36.43.71-.09.64-.16,1.29-.25,1.94-.02.13-.1.26-.15.4-.24.65-.44,1.33-.75,1.96-.19.41-.38.86-.82,1.12-.07.04-.07.2-.06.33.16-.18.44-.14.57-.43.1-.26.26-.55.46-.75.26-.26.27-.58.4-.87.23-.55.41-1.1.6-1.67.09-.31.15-.65.18-.97.05-.41.05-.83.09-1.3.32.35.78.49.88.97.04.18,0,.38-.04.57-.09.38-.2.77-.34,1.15-.18.5-.36.99-.6,1.47-.18.38-.45.73-.68,1.1Zm-3.25,2.64c.16-.42.69-.63.69-1.18-.07.01-.11,0-.12.02-.22.3-.43.6-.63.92-.05.05-.03.15-.04.22.04.01.07.02.1.02Z"/>
      <path class="cls-2" d="m86.29,78.79c.15.16.34.29.53.39.63.33,1.26.64,2,.62.4-.01.79.03,1.18.04.19.01.39.03.58.05.29.03.57.08.85.09.18.01.35-.04.52-.04.08,0,.16.06.22.09-.05.02-.11.03-.16.06-.31.08-.62.08-.96.02-.39-.08-.81-.01-1.22-.04-.51-.02-1-.11-1.49-.11-.43-.01-.79-.19-1.16-.33-.26-.08-.5-.22-.71-.38-.32-.26-.72-.43-.92-.81-.29-.53-.66-1.04-.63-1.69,0-.19-.03-.37-.04-.55-.04-.65.32-1.15.77-1.5.33-.26.79-.37,1.21-.44.69-.12,1.39-.19,2.09.01.54.16,1.09.2,1.63.32.11.02.3,0,.27.26-.34-.03-.7-.03-1.03-.09-.53-.1-1.05-.22-1.58-.31-.21-.03-.43.01-.65.03-.28.03-.57.08-.85.09-.26.02-.44.17-.66.26-.27.11-.43.29-.58.51-.16.23-.28.46-.3.76-.04.7.1,1.35.44,1.94.16.27.41.51.65.75Z"/>
      <path class="cls-2" d="m84.14,89.71c.25-.22.53-.44.76-.68.32-.35.64-.72.94-1.09.1-.13.17-.29.26-.42.03-.04.09-.04.13-.06,0,.05.04.11.01.14-.23.38-.45.77-.73,1.11-.31.37-.67.69-1.02,1.03-.12.12-.27.22-.46.35-.02-.06-.06-.13-.05-.17.04-.08.1-.15.16-.21Z"/>
      <path class="cls-2" d="m83.89,83.66c-.25-.33-.07-.7-.08-1.14.08.07.18.1.18.13-.01.33-.03.68-.1,1.01Z"/>
      <path class="cls-2" d="m81.76,86.54c.05-.1.1-.2.14-.3.06-.2.12-.4.17-.59.13-.42.26-.85.36-1.27.1-.33.18-.67.26-.99.01-.03.07-.05.11-.08.02.04.07.09.07.12-.03.27-.06.54-.13.81-.1.44-.22.89-.36,1.33-.11.36-.25.71-.39,1.05-.04.1-.18.15-.26.22-.04-.02-.07-.06-.1-.09.04-.07.1-.14.13-.21Z"/>
      <path class="cls-2" d="m82.28,90.61c-.1.08-.24.16-.32.27-.1.18-.22.18-.41.14.27-.43.69-.64,1.04-.94.31-.25.57-.52.87-.78.12.09.13.1.05.23-.09.13-.19.27-.3.38-.3.23-.62.46-.93.7Z"/>
      <path class="cls-2" d="m81.45,90.47c.2-.32.41-.62.63-.92,0-.02.05-.01.12-.02,0,.55-.53.76-.69,1.18-.03,0-.06-.01-.1-.02.01-.07-.01-.17.04-.22Z"/>
      <path class="cls-2" d="m80.92,87.45c-.07.29-.15.59-.29.86-.21.42-.43.86-.74,1.18-.44.45-.94.85-1.5,1.15-.27.15-.52.34-.79.48-.13.08-.28.1-.42.14-.02-.04-.04-.09-.06-.13.13-.1.25-.2.39-.29.63-.39,1.26-.75,1.83-1.23.57-.51.93-1.12,1.15-1.83.19-.61.37-1.22.56-1.83.15-.54.29-1.08.28-1.65-.01-.3.02-.6.04-.9.01-.05.07-.09.1-.14.03.05.08.1.08.14.01.72.04,1.43-.14,2.14-.16.63-.32,1.28-.49,1.91Z"/>
      <path class="cls-2" d="m83.02,87.26c-.37.58-.82,1.12-1.23,1.68-.24.33-.47.66-.7.99-.3.45-.7.79-1.16,1.05-.45.24-.91.44-1.38.64-.69.28-1.41.42-2.15.4-.17-.01-.34-.01-.51,0-.17,0-.19-.09-.14-.27.25.03.51.08.78.07.31-.02.62-.11.94-.14.68-.09,1.29-.37,1.89-.67.54-.28,1.07-.59,1.41-1.16.28-.46.69-.83,1.02-1.27.34-.44.69-.88.97-1.36.18-.32.26-.69.35-1.05.1-.34.14-.69.21-1.03.02-.07.06-.15.11-.2.06-.06.14-.08.21-.12,0,.07.01.16,0,.22-.08.33-.18.65-.22.98-.06.44-.17.87-.4,1.24Z"/>
      <path class="cls-2" d="m75.63,82.64c.43-.02.85-.09,1.28-.12.16-.01.33-.02.49.01.07.01.15.09.21.14-.01.03-.01.06-.02.09-1.47.06-2.94.23-4.42.01-.02-.14.13-.27.31-.25.31.03.62.08.92.1.41.02.82.03,1.23.02Z"/>
      <path class="cls-2" d="m78.75,83.96c-.13-.1-.16-.24-.04-.41s.27-.32.39-.49c.1-.15.18-.32.27-.47.33-.48.69-.9,1.25-1.21-.09-.03-.15-.06-.23-.08-.51-.09-1.03-.09-1.55-.01-.32.05-.66.03-.98.06-.55.06-1.09.13-1.64.18-.37.05-.73.07-1.1.11-.64.08-1.28.16-1.93.24-.48.06-.96.16-1.45.15-.71,0-1.41.02-2.09-.21-.05-.02-.12,0-.16-.04-.07-.02-.12-.06-.18-.11.08-.04.17-.14.23-.11.67.22,1.35.25,2.04.22.62-.03,1.25-.06,1.86-.22.35-.09.73-.08,1.09-.11.59-.07,1.18-.14,1.77-.18.53-.06,1.06-.08,1.59-.12.28-.02.55-.09.83-.1.51-.03,1.04-.03,1.56-.04.01,0,.03,0,.04.01.44.31.81.07,1.21-.13.2-.1.44-.12.66-.17.11-.02.24-.02.35-.05.2-.06.28.01.27.21-.55.05-1.06.18-1.56.44-.42.21-.83.42-1.16.76-.23.28-.44.59-.65.88-.09.12-.18.24-.27.37-.14.2-.27.41-.42.63Z"/>
      <path class="cls-2" d="m71.56,87.71c-.23.53-.59.95-1,1.34-.29.27-.64.45-.96.67-.12.09-.24.2-.37.27-.06.04-.17.02-.26.04-.01-.05-.03-.09-.04-.12.31-.23.63-.43.92-.67.3-.23.57-.49.86-.75.3-.28.52-.62.68-1,.04-.09.14-.15.23-.24.1.21-.01.32-.06.46Z"/>
      <path class="cls-2" d="m67.96,89.47c.14-.1.27-.23.41-.35.06-.05.1-.11.15-.15.03-.02.1-.01.13.01.02.01.03.08.02.12-.08.27-.83.79-1.14.76-.01,0-.07-.03-.06-.05.01-.04.03-.11.08-.13.12-.07.29-.13.41-.21Z"/>
      <path class="cls-2" d="m66.98,88.93c.2-.14.39-.32.55-.5.28-.36.56-.7.8-1.09.2-.35.36-.73.51-1.11.13-.3.22-.62.32-.92.06-.18.09-.37.14-.56.01-.07.04-.16.06-.23.02,0,.05-.01.07-.01.04.09.1.19.09.28-.11.45-.22.9-.36,1.35-.21.67-.49,1.3-.99,1.82-.26.26-.44.61-.7.87-.5.53-1.12.91-1.81,1.14q-.32.11-.53-.03c.26-.1.47-.16.66-.26.4-.23.8-.48,1.19-.75Z"/>
      <path class="cls-2" d="m83.93,80.18c-.43-.06-.85-.15-1.28-.2-.18-.02-.39.01-.58.01-.78-.02-1.57-.01-2.35-.05-.71-.06-1.41-.06-2.11.08-.28.07-.56.03-.84.07-.45.04-.92.1-1.38.16-.21.02-.44.02-.65.03-.48.02-.95.05-1.42.08-.24.02-.46,0-.7.02-.27.01-.54.03-.82.05-.4.03-.8.07-1.2.09-.48.02-.97.01-1.46.01-.48-.01-.97-.03-1.46-.06-.7-.04-1.42-.08-2.13-.15-.33-.03-.66-.13-.99-.19-.39-.07-.78-.11-1.17-.19-.43-.11-.85-.26-1.28-.38-.34-.09-.68-.16-1.03-.26-.28-.08-.53-.21-.8-.31-.56-.2-1.13-.37-1.69-.58-.22-.08-.44-.21-.66-.31s-.43-.18-.66-.25c-.61-.18-1.23-.31-1.83-.51-.39-.13-.73-.36-1.1-.54,0-.03,0-.06,0-.1.08-.01.17-.06.22-.03.43.31.93.43,1.41.58.56.17,1.13.28,1.68.45.3.1.57.29.86.39.67.2,1.28.57,1.99.7.38.07.74.28,1.12.39.63.21,1.28.4,1.93.55.48.12.99.17,1.48.26.25.04.5.11.74.14.36.03.7.03,1.04.06.29.02.57.07.86.08.23.02.47.01.69.01.58.02,1.16.06,1.74.04.78-.03,1.57-.13,2.34-.2l.51-.03c.6-.02,1.2-.02,1.79-.05.42-.02.82-.07,1.23-.13.29-.03.58-.09.87-.11.81-.06,1.61-.13,2.42-.14.56,0,1.14.06,1.72.07.45.01.92-.05,1.37-.03.51.03,1.03.12,1.54.18.41.06.84.07,1.23.17.5.15,1.06.08,1.53.4.17.12.42.13.62.23.11.04.21.14.29.22.04.03.01.11.01.17-.05,0-.11.01-.15-.02-.61-.45-1.35-.53-2.07-.67-.47-.09-.94-.13-1.41-.2Z"/>
      <path class="cls-2" d="m71.98,88.45c-.02-.34.16-.5.33-.67.21-.2.43-.41.62-.62.21-.22.38-.45.56-.69.26-.32.5-.65.6-1.05.05-.13.06-.24-.15-.28-.28-.06-.56-.17-.85-.27-.02.02-.06.06-.08.1-.14.27-.25.56-.4.83-.11.2-.26.38-.61.36.1-.11.15-.17.2-.24.05-.04.11-.06.14-.11.14-.23.29-.44.39-.68.05-.15.12-.33-.14-.43-.34-.14-.68-.32-1.02-.47-.05-.02-.16.02-.18.06-.06.09-.11.2-.1.29.03.54-.27.96-.45,1.42-.13.3-.31.57-.48.85-.28.46-.57.92-.87,1.38-.02.06-.11.07-.16.1-.02-.02-.05-.04-.07-.06.06-.09.09-.2.14-.28.08-.11.16-.22.23-.33.22-.38.47-.76.66-1.17.26-.52.5-1.07.71-1.63.09-.2.08-.45.09-.68,0-.07-.08-.18-.14-.21-.16-.1-.35-.16-.52-.25-.38-.19-.76-.4-1.16-.6-.04-.02-.2.05-.21.09-.05.21-.08.43-.11.63-.04.27-.03.56-.13.81-.2.6-.45,1.2-.69,1.79-.06.13-.17.24-.26.34-.03.04-.12.03-.19.05.02-.07.03-.13.05-.19.02-.05.07-.1.09-.16.11-.23.21-.48.29-.72.15-.44.33-.88.46-1.32.09-.33.12-.68.19-1.03.02-.11.03-.24.06-.39-.2-.05-.39-.09-.58-.11-.24-.03-.31.04-.32.28-.01.36-.01.73-.05,1.08-.05.39-.1.76-.2,1.13-.11.41-.3.79-.41,1.2-.25.81-.72,1.47-1.25,2.11-.45.52-.95.96-1.57,1.28-.13.07-.21.26-.31.39.14.09.27.24.42.26.57.07,1.15.14,1.72.16.61.02,1.21-.02,1.82-.03.1,0,.21.03.3.01.39-.08.79-.15,1.16-.27.6-.19,1.2-.39,1.8-.62.23-.1.41-.32.65-.43.44-.24.81-.55,1.13-.93.33-.36.67-.73.94-1.15.23-.34.37-.75.53-1.13.08-.24.11-.5.2-.72.06-.14.04-.18-.08-.25-.12-.05-.21-.07-.27.09-.08.19-.13.4-.25.58-.28.42-.58.82-.91,1.21-.35.4-.73.77-1.1,1.15-.05.05-.11.07-.21.14Zm12.75-.05c-.02-.11-.02-.24.03-.33.23-.37.5-.72.68-1.1.24-.48.42-.97.6-1.47.14-.38.25-.77.34-1.15.05-.19.08-.39.04-.57-.1-.48-.56-.62-.88-.97-.04.47-.04.89-.09,1.3-.03.32-.09.66-.18.97-.19.57-.37,1.12-.6,1.67-.13.29-.14.61-.4.87-.2.2-.36.49-.46.75-.13.29-.41.25-.57.43-.01-.13-.01-.29.06-.33.44-.26.63-.71.82-1.12.31-.63.51-1.31.75-1.96.05-.14.13-.27.15-.4.09-.65.16-1.3.25-1.94.04-.35-.15-.58-.43-.71-.5-.24-.98-.52-1.56-.5-.11,0-.22-.07-.33-.05-.43.1-.84.25-1.21.49-.26.15-.45.44-.8.39-.03,0-.45.32-.46.35-.13.24-.31.29-.35.75-.06.18-.13.37-.07.51.1.27.06.59.33.78.29-.29.23-.64.13-1.01.26.15.35.36.28.58-.11.34-.23.68-.3,1.04-.06.34-.03.7-.12,1.02-.13.46-.28.94-.53,1.34-.25.39-.63.7-.96,1.03-.62.61-1.31,1.14-2.05,1.61-.49.31-1,.61-1.5.92-.13.09-.25.21-.44.36.21.11.34.22.49.25.44.1.9.17,1.35.26.11.02.21.12.32.13.44.01.87.03,1.29.01.43-.03.85-.06,1.27-.15.7-.15,1.4-.32,2.09-.51.26-.07.5-.21.75-.32.22-.09.48-.16.68-.3.49-.32.96-.66,1.42-1.03.27-.2.55-.41.77-.66.17-.21.27-.46.42-.7.2-.32.41-.65.63-.98.51-.7.53-1.55.62-2.36.04-.41-.18-.83-.27-1.24,0-.04-.05-.06-.09-.1-.36,1.52-.92,2.93-1.91,4.15Zm35.03-27.52c-.03-.19-.1-.19-.26-.14-.45.16-.89.31-1.35.44-.4.12-.82.21-1.23.29-.36.09-.73.17-1.09.25-.21.03-.4.03-.6.05-.87.09-1.74.2-2.61.24-.61.03-1.25-.02-1.87-.04-.45-.01-.9-.03-1.35-.06-.72-.03-1.44-.12-2.16-.13-.91-.01-1.81-.15-2.72-.25-.85-.1-1.71-.21-2.57-.29-.75-.08-1.5-.15-2.26-.2-.76-.03-1.53-.06-2.29-.04-.75.01-1.51.09-2.25.14-.49.04-.97.1-1.46.15-.63.06-1.25.13-1.89.19-.21.02-.44.06-.66.08-.57.07-1.14.15-1.71.2-.16.02-.33-.06-.5-.09.01-.04.02-.06.02-.09h.21c.5-.02.99-.02,1.47-.06.55-.06,1.1-.17,1.64-.23.63-.07,1.25-.14,1.89-.19.99-.1,1.98-.17,2.98-.25.19-.01.4.04.6.04.42-.01.85-.05,1.28-.03.85.04,1.69.12,2.54.18.3.02.59.07.89.1.41.04.83.1,1.24.15.33.03.66.06,1.01.1.54.06,1.08.13,1.64.19.27.02.54.03.81.05.88.07,1.76.15,2.64.19.82.03,1.65.01,2.47,0,.56,0,1.12,0,1.68-.06.63-.04,1.25-.1,1.89-.19.29-.03.58-.11.87-.18.29-.08.57-.17.84-.25.67-.18,1.34-.35,1.99-.55.05-.01.12-.14.11-.19-.07-.35-.14-.7-.25-1.04-.01-.07-.14-.15-.21-.15-.22.02-.43.09-.66.13-.71.11-1.43.24-2.15.33-.67.1-1.35.15-2.03.2-.35.04-.69.05-1.04.05-.32.01-.64,0-.95.01-.44.02-.88.06-1.32.08-.17.01-.34-.01-.52.01-.43.05-.85.11-1.28.14-.57.05-1.14.08-1.71.1-.48.01-.96-.03-1.43-.12-.58-.12-1.17-.09-1.76-.12-.18-.01-.36,0-.54-.01-.08,0-.16-.03-.23-.03l-.9-.03c-.31-.02-.63-.07-.94-.08-.18,0-.36.05-.54.05-.09,0-.17-.09-.24-.13.01-.02.02-.05.03-.07.48,0,.98-.01,1.46.01.75.03,1.51.06,2.27.1.49.03.99.1,1.49.14.36.03.73.11,1.09.09.67-.04,1.32-.13,1.99-.18.45-.04.91-.04,1.36-.05.17-.01.35,0,.52-.01.51-.02,1.03-.05,1.53-.1.21-.01.41-.03.6-.04.29-.02.57-.04.85-.04.14-.01.29.05.43.03.3-.03.59-.09.89-.14.8-.11,1.59-.23,2.38-.33.48-.08.95-.14,1.49-.23-.09-.4-.16-.78-.28-1.16-.02-.07-.22-.11-.34-.14-.05-.02-.11-.01-.18-.02-.29-.05-.57-.12-.86-.16-.38-.05-.76-.11-1.15-.15-.36-.04-.73-.06-1.1-.1-.38-.04-.75-.1-1.13-.15-.29-.03-.58-.06-.87-.06-.51-.02-1.02-.04-1.53-.02-.63.02-1.25.08-1.87.14-.08,0-.16-.01-.25,0-.53.06-1.07.13-1.61.19-.24.02-.5.03-.75.05-.42.05-.84.1-1.25.14-.37.05-.72.08-1.08.11-.15.01-.29.03-.44.04-.44.01-.88.01-1.32.05-.57.03-1.15.09-1.72.15-.22.02-.46.06-.68.11-.16.04-.31.09-.48.12-.57.13-1.15.22-1.71.38-.5.14-.99.29-1.49.37-.43.07-.84.19-1.26.28-.15.04-.29.08-.44.1-.32.04-.66.1-.98.13-.28.03-.56.05-.83.06-.32.01-.63,0-.94.02-.22.02-.46.06-.69.08-.36.02-.73.04-1.08.05-.34.01-.69,0-1.03-.01-.1,0-.19-.07-.32-.13.07-.05.11-.09.14-.09.5.01,1.01.04,1.51.03.29,0,.57-.05.86-.09.39-.03.78-.07,1.17-.09.51-.05,1.03-.05,1.53-.12.57-.08,1.14-.22,1.71-.32.11-.02.22-.08.33-.1.54-.11,1.08-.2,1.61-.33.51-.12,1.01-.29,1.53-.4.67-.14,1.36-.24,2.04-.34.41-.06.81-.08,1.22-.1.24-.01.47,0,.71,0,.65-.04,1.31-.1,1.97-.15.36-.03.71-.1,1.07-.13.3-.03.6-.06.9-.08.27-.02.53-.02.79-.04.56-.05,1.13-.13,1.69-.18.43-.04.86-.09,1.3-.11.58-.02,1.16-.04,1.74-.04.29,0,.58.06.86.1.27.02.54.03.81.06.4.06.8.12,1.18.18.39.06.77.12,1.16.19.46.07.94.15,1.47.23-.05-.28-.09-.48-.14-.68-.09-.43-.19-.85-.3-1.28,0-.04-.09-.11-.15-.11-.12.01-.22.04-.34.08-.58.11-1.16.23-1.76.21-.42-.01-.85.02-1.28.04h-.07c-.6.04-1.19.06-1.78.09,0,0-.01-.03-.04-.11.23-.04.43-.11.64-.12.37-.03.75-.04,1.11-.05.17-.01.34,0,.52-.01.33-.02.65-.06.98-.09.22-.02.44-.02.67-.05.47-.05.94-.13,1.41-.19-.07-.39-.12-.74-.2-1.09-.02-.06-.14-.14-.2-.14-.35,0-.68.04-1.01.06-.07,0-.14-.05-.23-.08.21-.23.39-.36.68-.29.15.03.33,0,.49-.03.04-.01.09-.11.09-.16-.03-.24-.05-.46-.12-.69,0-.06-.12-.15-.19-.16-.25-.03-.5-.03-.75-.05-.15-.01-.31-.06-.46-.05-.41.06-.82.13-1.23.2-.4.05-.79.13-1.2.18-.24.03-.48.03-.73.04v-.08c1.45-.33,2.91-.61,4.42-.45,0-.11.01-.16,0-.21-.04-.5-.29-.93-.56-1.35-.07-.12-.17-.14-.3-.14-.52.04-1.06.08-1.59.13-.49.04-.98.11-1.47.17-.31.04-.62.12-.93.19-.31.08-.61.16-.92.24-.14.03-.29.08-.43.11-.57.1-1.14.2-1.71.33-.42.11-.81.27-1.23.4-.45.14-.93.27-1.38.42-.32.1-.62.24-.93.35-.47.16-.96.3-1.43.45-.21.08-.42.17-.63.25l-.51.18s-.09,0-.14.03c-.42.28-.9.42-1.39.51-.17.03-.36.05-.53.1-.45.14-.9.29-1.35.42-.4.12-.79.21-1.19.3-.37.09-.73.19-1.1.24-.52.09-1.06.14-1.59.2-.29.04-.59,0-.85.07-.34.08-.66.06-.98.03-.08,0-.16.02-.24.03-.08,0-.18,0-.27,0-.01,0-.02-.12-.01-.13.09-.04.18-.07.26-.08.29-.01.57.01.86,0,.46-.05.93-.09,1.41-.15.62-.08,1.25-.12,1.86-.26.98-.23,1.94-.52,2.91-.78.52-.14,1.03-.27,1.55-.42.32-.1.62-.24.93-.36.44-.17.89-.35,1.34-.51.3-.12.62-.2.93-.3.32-.12.63-.27.95-.38.45-.16.92-.28,1.37-.43.35-.11.7-.27,1.07-.35.74-.17,1.49-.3,2.23-.47.81-.18,1.6-.4,2.41-.55.59-.1,1.19-.12,1.79-.15.29-.02.58,0,.87,0-.07-.36-.32-.55-.6-.5-.53.11-1.05.21-1.57.29-.3.06-.59.08-.89.1-.29.02-.58.03-.87.05-.29.01-.59.04-.89.05-.19,0-.39-.02-.58-.02-.01-.04-.01-.08-.02-.11.08-.03.16-.1.23-.11.76-.06,1.52-.12,2.27-.2.69-.07,1.38-.15,2.07-.25.03,0,.1-.16.09-.17-.38-.29-.69-.67-1.29-.57-.82.13-1.63.21-2.42.45-.39.13-.79.27-1.18.4-.46.16-.92.3-1.37.47-.42.15-.83.35-1.26.49-.45.14-.91.2-1.36.33-.6.18-1.2.39-1.8.57-.63.2-1.24.41-1.87.56-.56.13-1.14.21-1.71.3-.46.09-.93.13-1.38.27-.51.16-1.03.2-1.55.27-.37.04-.75.06-1.13.12-.43.04-.85.13-1.29.17-.58.04-1.16.06-1.73.1-.79.05-1.56.1-2.34.15-.26.01-.53-.04-.79,0-.55.07-1.11.05-1.68.04-.76-.01-1.54-.02-2.3-.02-.63,0-1.27.04-1.9.07-.54.04-1.08.11-1.62.14-.47.02-.94-.01-1.42.01-.6.04-1.21.09-1.81.14-.49.05-1,.08-1.48.16-.67.1-1.33.25-1.99.38-.82.16-1.65.31-2.47.5-1.06.24-2.09.63-3.16.82-.02.01-.05.03-.07.04-.3.1-.6.21-.91.29-.65.19-1.33.34-1.98.55-.61.2-1.2.48-1.81.7-.45.15-.93.22-1.39.37-.68.21-1.35.43-2,.67-.6.21-1.2.44-1.79.69-.78.33-1.54.69-2.3,1.04-.19.08-.38.18-.57.26-.24.1-.48.18-.72.3-.61.31-1.21.65-1.82.97-.72.38-1.44.74-2.16,1.13-.28.15-.53.34-.8.48-.41.23-.83.44-1.26.64-.72.34-1.44.67-2.17.98-.58.25-1.16.49-1.76.69-.56.19-1.13.35-1.7.51-.05.02-.13-.06-.19-.08.04-.06.09-.17.15-.19.28-.1.57-.19.86-.25.98-.2,1.9-.57,2.8-.98.6-.27,1.2-.55,1.79-.86.64-.33,1.28-.64,1.9-1.03.77-.47,1.59-.85,2.4-1.27.82-.43,1.66-.87,2.5-1.28.75-.37,1.52-.71,2.28-1.05.41-.19.82-.39,1.24-.54.52-.19,1.07-.35,1.62-.53.63-.21,1.27-.44,1.91-.63.54-.17,1.08-.3,1.61-.47.64-.22,1.26-.49,1.9-.7.73-.22,1.47-.4,2.2-.6.74-.2,1.48-.44,2.23-.62.92-.24,1.83-.45,2.74-.64.92-.19,1.86-.35,2.79-.49.85-.12,1.7-.24,2.56-.28.84-.05,1.69-.02,2.54-.14.55-.08,1.12-.05,1.67-.07.75-.01,1.48-.05,2.22-.05.54,0,1.09.06,1.64.05.76-.01,1.51-.06,2.27-.1.81-.04,1.6-.1,2.41-.14.52-.03,1.05-.03,1.58-.05.28-.01.57-.05.85-.09.5-.06.98-.14,1.48-.2.34-.05.69-.07,1.04-.13.63-.11,1.25-.25,1.89-.36.45-.08.9-.11,1.35-.2.44-.1.89-.21,1.33-.34.47-.14.94-.3,1.42-.46.39-.13.78-.29,1.18-.4.39-.12.82-.17,1.22-.3.49-.15.98-.37,1.47-.54.58-.2,1.17-.39,1.76-.59.17-.05.33-.14.51-.18.29-.09.59-.14.88-.22.68-.16,1.36-.33,2.08-.51-.03-.03-.09-.1-.15-.13-.31-.15-.63-.31-.96-.43-.45-.15-.9-.31-1.39-.28-.43.02-.86,0-1.28.05-.67.09-1.33.2-1.97.33-.59.13-1.17.31-1.75.45-.48.12-.95.19-1.42.29-.39.08-.77.16-1.15.24-.51.12-1.02.24-1.52.37-.47.13-.92.29-1.39.41-.78.21-1.58.42-2.37.62-.29.07-.57.14-.86.21l-1.38.33c-.39.09-.77.22-1.15.3-.35.07-.7.1-1.04.16-.76.1-1.52.21-2.27.32-.1.02-.2,0-.3.01-.27.02-.54.06-.8.09-.42.03-.85.03-1.27.07-.53.04-1.05.15-1.59.17-.56.02-1.12-.04-1.67-.06-.38-.01-.76-.02-1.13-.02-.27-.01-.54,0-.81,0-.58-.02-1.15-.05-1.72-.05-.43,0-.86.03-1.3.05h-.35c-.36-.01-.74,0-1.11-.01-.43,0-.87-.06-1.31-.04-.55.03-1.1.09-1.65.14-.12.01-.24.01-.36.04-.47.09-.93.22-1.42.3-.79.11-1.6.19-2.39.3-.26.04-.51.13-.75.21-.25.1-.49.25-.73.31-.53.12-1.05.21-1.57.3-.51.1-1.02.2-1.52.3-.4.1-.79.22-1.18.34-.19.04-.36.09-.53.14-.49.14-1.01.23-1.48.43-.51.2-.98.52-1.49.72-.81.32-1.51.8-2.24,1.25-.28.16-.53.36-.8.53-.33.21-.68.42-1.01.64-.22.15-.4.33-.61.46-.65.39-1.3.73-1.95,1.12-.53.32-1.05.69-1.56,1.03-.71.46-1.4.94-2.12,1.37-.65.4-1.33.74-2,1.1-.62.31-1.25.59-1.87.89-.95.46-1.89.94-2.85,1.42-.23.1-.46.21-.69.31-.28.12-.57.24-.84.37-.69.33-1.38.64-2.04,1.01-.85.49-1.7.97-2.6,1.34-.3.12-.59.25-.88.38-.66.3-1.32.61-1.98.9-.37.16-.75.29-1.13.41-.41.13-.84.22-1.26.35-.43.12-.86.26-1.29.38-.4.1-.83.19-1.23.29-.02,0-.04.01-.06.01-.15.03-.32.01-.46.06-.26.11-.52.15-.8,0-.05-.02-.13-.01-.19-.02-.27-.06-.56-.09-.82-.2-.29-.13-.54-.33-.79-.51-.2-.14-.38-.28-.56-.43-.04-.03-.09-.06-.12-.1-.18-.16-.36-.32-.53-.51-.2-.23-.4-.48-.58-.75-.18-.28-.34-.57-.49-.87-.18-.37-.35-.75-.49-1.15-.15-.42-.43-.77-.65-1.17-.29-.54-.64-1.07-1.08-1.5-.47-.46-.99-.89-1.55-1.24-.66-.42-1.37-.77-2.09-1.1-.45-.21-.93-.35-1.41-.53-.4-.15-.82-.29-1.23-.41-.25-.09-.51-.14-.75-.24-.44-.17-.89-.33-1.32-.55-.34-.16-.64-.39-.95-.61-.21-.15-.43-.32-.64-.48,0,0-.01.03-.02.06-.1.53-.24,1.05-.28,1.59-.03.54-.07,1.08.03,1.62.06.3.09.61.14.92.11.63.38,1.2.47,1.83.11.62.36,1.22.6,1.8.18.42.42.81.66,1.2.3.51.62.99,1.05,1.4.4.4.76.83,1.19,1.18.43.36.92.66,1.39.97.4.28.88.45,1.35.46.37,0,.72.1,1.07.15.23.03.44.08.66.1.23.01.47-.05.71-.05.22.01.33.15.31.37,0,.18-.08.29-.29.32-.29.05-.57.19-.85.28-.36.11-.72.18-1.07.3-.43.14-.85.31-1.16.68-.33.38-.69.74-1.03,1.11-.18.21-.34.42-.5.64-.08.11-.21.23-.26.37-.12.45-.24.91-.34,1.37-.1.39-.19.77-.24,1.15-.03.44.02.89-.02,1.35-.04.56.16,1.09.27,1.63.09.47.29.93.31,1.41.02.92-.04,1.84-.08,2.76-.04.72-.24,1.41-.54,2.06-.03.08-.03.18-.04.26.02.02.04.03.06.05.18-.1.37-.29.57-.31.37-.03.53-.4.88-.45.1-.01.17-.14.27-.2.26-.18.51-.36.77-.52.07-.04.14-.07.21-.11.29-.18.58-.35.85-.53.46-.28.75-.75,1.19-1.04.05-.03.1-.09.14-.14.24-.33.48-.67.71-1.01.36-.53.72-1.06,1.07-1.61.32-.54.56-1.12.78-1.72.28-.73.4-1.5.53-2.26.07-.45.09-.93.2-1.38.12-.48.29-.95.46-1.41.15-.4.33-.79.54-1.16.16-.29.35-.57.57-.82.28-.32.6-.61.9-.91.03-.03.07-.08.12-.09.43-.04.75-.37,1.21-.36.58.02,1.17-.08,1.75-.13.06,0,.17-.04.18-.08.03-.18.12-.25.23-.28.12-.03.26-.01.38-.02.26-.04.54,0,.79-.07.42-.14.85-.17,1.28-.18.1,0,.2-.06.31-.07.3-.04.6-.08.9-.11.32-.02.65-.02.98-.03.45-.02.9-.07,1.35-.07.72.01,1.43.21,2.17.1.06-.01.16.11.24.16-.06.04-.12.11-.18.11-.19,0-.39-.03-.58-.04-.49-.02-1-.04-1.5-.05-.37-.02-.73,0-1.1,0-.18.01-.35.04-.53.05-.27,0-.54,0-.81,0-.5.04-1.02.1-1.52.15h-.08c-.47.09-.93.16-1.4.24-.1.02-.19.07-.28.11.08.06.17.11.27.16.01.02.03.02.04.02.7.18,1.4.29,2.07.56.03.02.06.03.1.03.17.01.33.01.5.03.3.03.61.07.91.12.19.02.38.03.55.05.39.06.76.12,1.13.18.45.09.89.16,1.33.27.27.07.52.19.79.27.34.1.68.17,1.02.27.06.01.11.05.17.07.2.07.4.13.61.2.31.1.65.17.92.33s.52.25.81.32c.19.05.42,0,.56.23.05.07.22.05.34.07.03.01.07-.01.1,0,.35.16.68.32,1.02.48.2.09.41.17.58.28.31.21.71.16,1.02.41.3.23.71.32,1.08.45.6.22,1.22.42,1.83.64.56.2,1.12.42,1.69.64.2.07.44.11.64.2.26.13.5.28.75.44.46.29.97.52,1.52.65.39.08.8.17,1.2.27.13.03.25.07.38.09.44.07.88.13,1.32.2.37.06.74.12,1.12.19.34.06.7.12,1.03.19.43.11.85.24,1.3.21.06-.01.13.01.18.02.24.08.45.2.69.26.37.08.76.13,1.15.2.34.05.7.06,1.03.16.34.1.66.19,1.02.13.03,0,.08.01.11.04.2.18.42.15.67.1-.45-.19-.91-.33-1.37-.48-.25-.08-.55-.05-.76-.35.11,0,.18-.02.24-.01.2.04.38.1.57.14.18.03.38.02.54.1.52.26,1.11.32,1.6.68.38.29.88.38,1.35.47.45.08.89.22,1.33.33.13.03.27.04.39.1.23.08.45.2.68.3.48.18.96.34,1.44.51.27.11.53.23.8.34,0-.12-.01-.24.19-.19.28.08.58.11.87.16.43.07.87.13,1.3.2.05.01.1.08.15.12-.01.04-.03.07-.04.1-.79-.12-1.57-.22-2.35-.34-.02.03-.03.06-.04.09.32.14.65.29.98.42.42.16.85.29,1.28.43.18.06.36.11.53.17.33.1.63.24.95.32.48.1.98.16,1.46.25.23.05.33.01.33-.23-.01-.24-.05-.49-.11-.71-.06-.35.1-1.03.32-1.42.23-.39.97-.87,1.4-1.19.34-.26.76-.41,1.15-.6.03-.02.07,0,.11,0,.23.01.48.03.72.03.15.01.29-.01.43.01.27.06.55.14.84.21.58.13,1.04.5,1.46.89.31.29.54.67.84.97.26.26.44.56.53.89.09.37.09.74.16,1.11.01.09.06.2.12.21.17.05.35.06.52.07.42.02.85.03,1.27.04.76.03,1.53.08,2.31.1.5.01,1.01.01,1.51,0,.27,0,.54-.02.79-.06.41-.04.82-.09,1.22-.12.39-.04.79-.04,1.18-.07.46-.03.92-.1,1.38-.14.69-.06,1.37-.15,2.06-.18.69-.04,1.36-.22,2.03-.39.55-.14,1.12-.24,1.68-.35.79-.16,1.59-.29,2.38-.46.65-.15,1.31-.35,1.95-.52.3-.07.6-.15.89-.24.34-.12.65-.26.97-.39.32-.12.65-.21.96-.34.49-.22.97-.47,1.46-.7.23-.12.44-.28.6-.52.23-.32.21-.68.28-1.04.04-.21.11-.44.08-.65-.04-.33-.14-.64-.26-.94-.16-.38-.37-.74-.54-1.1-.12-.26-.33-.46-.58-.5-.38-.04-.77,0-1.14.02-.15.02-.3.14-.43.1-.48-.13-.91.05-1.36.15-.51.1-.99.28-1.49.4-.4.1-.82.15-1.24.2-.57.08-1.13.17-1.7.18-.52,0-1.02.11-1.52.23-.33.08-.68.13-1.02.17-.3.03-.61.03-.91.08-.49.05-.98.14-1.46.21-.57.1-1.13.2-1.7.29-.22.04-.46.12-.7.15-.28.03-.55.01-.84.04-.2.02-.39.09-.58.11-.38.02-.76.01-1.13.06-.77.08-1.55.18-2.33.14-.2-.02-.41-.03-.6-.05-.3-.03-.58-.06-.87-.14-.58-.14-1.19-.17-1.77-.33-.66-.17-1.31-.39-1.91-.68-.42-.19-.84-.44-1.1-.89-.22-.38-.22-.74.02-1.09.14-.19.35-.36.52-.53.24-.24.53-.37.86-.38.31-.01.63,0,.95,0,.21-.01.4-.06.6-.05.63.04,1.25.09,1.87.14.58.06,1.17.11,1.75.16.1,0,.2-.01.29,0,.3.05.6.09.9.13.34.07.67.14,1,.18.23.04.46.02.69.03.26,0,.52-.01.76.06.44.13.86.16,1.3.09.06-.01.13,0,.19.01.21.02.41.07.61.07.94-.02,1.86-.06,2.78-.09.18-.01.36-.04.51-.1.06-.03.07-.09.16-.03.04.03.13.04.18.03.47-.09.95-.16,1.42-.25.22-.04.46-.11.69-.17.26-.06.52-.14.79-.21.24-.07.46-.14.7-.21.14-.04.27-.09.41-.14.21-.05.43-.07.64-.15.33-.13.66-.31,1-.42.73-.23,1.46-.43,2.19-.63.35-.11.72-.19,1.08-.28.2-.04.4-.06.59-.1.38-.07.77-.17,1.15-.21.61-.09,1.24-.13,1.86-.2,1.03-.12,2.04-.4,3.03-.7.58-.18,1.09-.51,1.64-.79.14-.06.3-.15.37-.27.24-.41.44-.83.66-1.26.02-.04,0-.12,0-.18.02-.4.04-.8.05-1.19.02-.27.06-.54.05-.8-.02-.07-.12-.18-.21-.2-.08-.03-.2.02-.3.04-.63.18-1.27.35-1.89.56-.69.22-1.38.36-2.1.4-.84.05-1.68.07-2.51.1-.15,0-.3-.03-.46-.02-.6,0-1.21.01-1.82.02h-1.99c-.18,0-.37-.01-.55,0-.53,0-1.05-.01-1.57,0-.17,0-.34.04-.53.06-.56.06-1.12.11-1.68.19-.38.04-.75.05-1.11.16-.63.19-1.23.44-1.84.67-.08.03-.13.07-.2.1-.01-.02-.02-.03-.04-.04.05-.05.1-.13.16-.16.23-.12.46-.24.7-.33.29-.11.6-.16.88-.28.45-.16.9-.26,1.37-.27.38-.01.75-.06,1.13-.1.62-.06,1.23-.16,1.86-.18.66-.03,1.33,0,1.98,0,.09,0,.18.03.27.03.56,0,1.13,0,1.7-.02.3,0,.59-.06.89-.05.47.01.94.07,1.41.08.28,0,.57-.05.86-.09.42-.06.86.1,1.27-.18.19-.14.5-.1.76-.17.76-.19,1.53-.38,2.29-.6.42-.12.82-.28,1.23-.42.06-.02.12-.09.13-.15.02-.34.08-.7.04-1.04-.06-.68-.19-1.36-.27-2.05-.03-.16-.11-.18-.23-.16-.29.05-.58.12-.86.2-.45.13-.9.28-1.35.42-.08.02-.16-.03-.31-.05.09-.08.13-.12.17-.13.31-.12.61-.25.92-.34.49-.14.96-.27,1.45-.39.19-.05.22-.17.19-.32-.04-.31-.09-.62-.13-.95-.05-.36-.12-.52-.35-.55-.23-.05-.48-.09-.72-.08-.46.02-.92.13-1.38.13-.71,0-1.39.13-2.06.3-.46.12-.96.16-1.43.25-.87.17-1.71.5-2.6.59-.33.02-.66.13-1,.18-.61.1-1.21.18-1.82.28-.67.1-1.33.2-2,.31-.27.03-.52.06-.79.1-.25.02-.51.04-.76.06,0-.02-.02-.04-.02-.06.12-.04.23-.08.35-.1.47-.05.95-.09,1.43-.15.72-.1,1.43-.23,2.15-.34.59-.1,1.17-.2,1.75-.28.39-.07.78-.1,1.16-.19.54-.11,1.07-.27,1.61-.4.86-.19,1.74-.36,2.61-.54.13-.02.27-.05.41-.08.28-.02.55-.02.83-.04.46-.04.92-.09,1.38-.11.35-.01.7.04,1.09.07-.05-.29-.1-.56-.12-.83Zm-1.26-9.13c.19.72.34,1.44.52,2.14.16.7.35,1.39.5,2.09.05.29.04.59.09.88.04.37.12.74.15,1.1.04.55.3,1.04.3,1.6,0,.25.18.5.24.75.06.22.15.42.1.68-.04.15.13.34.17.53.08.39.13.8.2,1.2.07.46.17.92.21,1.39.04.49.02.97.03,1.46,0,.15,0,.31,0,.46.02.42.06.84.09,1.26.03.45.06.91.1,1.36,0,.14-.05.29-.05.43-.01.39,0,.77-.07,1.16-.07.36-.13.7-.28,1.02-.17.37-.43.66-.81.85-.4.21-.78.48-1.2.67-.5.22-1.03.4-1.56.56-.42.13-.87.22-1.31.32-.47.09-.94.17-1.4.24-.23.03-.45.02-.68.05-.44.06-.88.12-1.32.2-.18.02-.36.04-.53.09-.37.09-.71.21-1.07.29-.32.06-.65.07-.96.16-.42.1-.83.25-1.25.38-.13.03-.27.06-.38.1-.41.15-.81.32-1.22.46-.28.1-.57.14-.86.22-.29.07-.58.18-.87.25-.33.1-.66.2-1.01.26-.54.11-1.1.17-1.65.27-.36.06-.72.17-1.08.22-.3.05-.61.05-.91.07-.47.03-.92.07-1.38.1-.21,0-.45-.05-.66-.04-.63.05-1.24-.11-1.86-.1-.38,0-.74-.11-1.13-.03-.15.04-.33-.08-.5-.09-.63-.07-1.25-.11-1.86-.16-.17-.01-.34-.05-.51-.07-.71-.08-1.42-.15-2.12-.25-.28-.04-.55-.14-.83-.21-.19-.05-.38-.1-.58-.12-.35-.04-.7-.1-1.05-.08-.55.02-1.12.02-1.58.39-.14.12-.22.3-.3.49-.08.22.13.31.27.43.54.4,1.14.72,1.75.98.27.12.58.14.88.22.44.12.88.29,1.34.35.66.1,1.3.27,1.98.11.13-.04.28.03.42.02.42-.01.83-.04,1.25-.06.36-.02.71,0,1.06-.05.44-.05.89.08,1.35-.06.53-.17,1.1-.25,1.67-.35.7-.15,1.41-.32,2.12-.43.5-.1,1.03-.14,1.53-.22.13-.01.25-.07.38-.08.65-.09,1.31-.16,1.97-.25.37-.05.73-.14,1.11-.18.25-.04.49-.02.74-.04.33-.02.66-.05,1-.08.19-.02.39-.05.59-.09.47-.07.94-.16,1.4-.23.15-.02.32-.02.45-.06.65-.14,1.29-.28,1.93-.43.38-.07,1.11.22,1.29.55.34.61.63,1.22.81,1.9.18.62.39,1.25.45,1.89.04.41.04.84-.05,1.22-.12.5-.57.72-1.02.83-.72.17-1.39.44-2.05.74-.34.14-.71.16-1.07.26-.24.07-.48.18-.73.25-.49.12-.98.22-1.48.34-.39.1-.78.29-1.18.32-.63.05-1.2.3-1.8.44-.47.12-.97.17-1.45.26-.02,0-.05,0-.08.01-.46.3-1.01.2-1.51.38-.08.03-.16.06-.25.08-.07.02-.17.08-.24.05-.34-.1-.59.07-.88.17-.25.07-.52.08-.78.14-.26.05-.52.11-.79.16-.31.04-.63.08-.96.1-.36.04-.74.05-1.1.08-.33.02-.66.07-.99.08-.4.04-.8.05-1.2.06-.59.02-1.18.02-1.77.05-.47.03-.94.1-1.41.13-.33.03-.66.02-1,.04-.37.01-.75.06-1.12.07-.24,0-.46-.04-.7-.04-.26,0-.52,0-.77.05-.1.02-.23.11-.26.2-.1.27-.14.55-.23.82-.02.1-.05.2-.1.29l-.99,1.32c-.07.1-.09.22-.16.31-.27.27-.54.54-.82.79-.27.26-.54.52-.85.72-.29.21-.63.35-.95.51-.12.06-.25.14-.37.19-.23.12-.47.23-.71.34-.04.03-.09.05-.15.06-.69.07-1.36.22-2,.49-.2.09-.43.08-.66.09-.41,0-.81-.01-1.22,0-.39.01-.76.06-1.15.1-.14.01-.29.02-.42-.02-.52-.15-1.05-.3-1.55-.49-.31-.13-.64-.27-.76-.64-.09-.33,0-.57.27-.77.26-.19.46-.46.74-.59.22-.1.37-.31.65-.35.29-.05.54-.32.8-.5.08-.05.13-.1.2-.14.45-.27.91-.52,1.34-.8.17-.12.31-.3.44-.46.4-.47.71-1.01.81-1.64.03-.13-.01-.16-.13-.18-.64-.13-1.27-.24-1.91-.39-.37-.09-.73-.25-1.09-.37-.28-.08-.57-.16-.86-.24-.17.79-.45,1.51-.93,2.12-.2.25-.41.47-.63.71-.2.23-.42.46-.65.66-.31.23-.67.43-.99.65-.29.2-.57.44-.87.62-.38.23-.79.41-1.2.61-.62.33-1.3.29-1.97.31-.24,0-.5.04-.75.03-.76-.02-1.53-.05-2.29-.1-.41-.02-.83-.04-1.21-.16-.23-.06-.44-.3-.6-.5-.13-.17-.07-.38.12-.5.25-.14.49-.28.74-.42.1-.05.2-.11.28-.18.15-.1.3-.18.43-.29s.21-.26.34-.37c.43-.41.69-.94.91-1.49.11-.31.24-.63.33-.95.07-.32.11-.65.14-.97.04-.34.03-.68.06-1.02.01-.17.06-.33.07-.49.01-.3.03-.6.01-.9,0-.07-.14-.14-.23-.17-.47-.2-.94-.4-1.43-.57-.76-.25-1.52-.49-2.34-.52-.29-.01-.58-.11-.85-.16-.29-.05-.58-.12-.86-.17-.44-.07-.87-.14-1.31-.18-.5-.05-.98-.15-1.47-.29-.67-.19-1.38-.25-2.05-.41-.62-.15-1.24-.31-1.83-.55-.54-.21-1.06-.4-1.62-.54-.35-.08-.68-.24-1.02-.37-.3-.11-.61-.22-.91-.33-.53-.22-1.06-.43-1.59-.66-.24-.1-.46-.22-.69-.34-.42-.23-.82-.47-1.24-.7-.36-.19-.72-.37-1.08-.54-.14-.07-.29-.13-.4-.23-.35-.28-.78-.35-1.17-.51-.18-.06-.37-.08-.55-.15-.44-.17-.87-.38-1.32-.52-.59-.2-1.19-.33-1.79-.5-.27-.07-.53-.2-.8-.28-.35-.08-.72-.14-1.08-.2-.42-.09-.83-.18-1.25-.25-.33-.05-.65-.17-1-.12-.19.04-.4-.06-.61-.07-.19,0-.38.09-.58-.09-.1-.08-.33-.05-.5-.05-.37-.02-.74-.03-1.11-.06-.22-.02-.44-.09-.66-.09-.53,0-1.05,0-1.58.05-.28.04-.56.17-.83.27-.62.25-.93.82-1.3,1.31-.36.47-.48,1.03-.6,1.61-.1.52-.29,1.01-.44,1.53-.03.09-.05.21-.07.32-.09.64-.36,1.22-.65,1.79-.23.49-.5.97-.78,1.45-.33.58-.68,1.15-1.01,1.74-.06.12-.11.24-.15.37-.02.06-.03.13-.07.15-.32.21-.43.53-.63.82-.15.24-.38.42-.59.62-.1.12-.2.24-.31.35-.19.2-.39.41-.6.59-.24.19-.49.35-.74.52-.39.27-.77.55-1.16.81-.24.15-.49.27-.74.42-.14.08-.27.2-.41.28-.48.23-.96.45-1.44.67-.19.1-.37.19-.57.25-.24.05-.5.09-.75.08-.19,0-.14-.17-.08-.29.31-.82.63-1.63.93-2.45.2-.61.26-1.22.15-1.85-.05-.32-.03-.65-.11-.98-.07-.35-.22-.69-.32-1.05-.12-.44-.2-.88-.3-1.32-.07-.31-.15-.62-.19-.93-.06-.36-.07-.72-.11-1.08-.07-.73.04-1.43.22-2.13.09-.42.27-.85.5-1.23.16-.29.45-.49.68-.75.54-.65,1.23-1.16,1.91-1.66.46-.34,1.01-.51,1.57-.57.04-.01.07,0,.1-.01.08-.04.14-.11.22-.16-.09-.02-.15-.07-.24-.08-.43-.09-.87-.15-1.3-.28-.89-.25-1.74-.58-2.52-1.11-.36-.25-.71-.5-1-.83-.31-.33-.67-.62-.98-.95-.1-.12-.11-.33-.2-.47-.17-.28-.38-.53-.57-.79-.02-.04-.02-.09-.04-.13-.07-.13-.13-.26-.21-.39-.16-.3-.32-.59-.48-.89-.03-.06-.06-.11-.1-.18-.3-.73-.52-1.48-.66-2.25-.08-.4-.1-.81-.16-1.21-.03-.21-.13-.42-.14-.64-.02-.35-.01-.72.02-1.07.05-.57.14-1.14.21-1.71.01-.07.03-.14.04-.21.1-.56.2-1.13.32-1.69.02-.1.12-.26.19-.26.12,0,.31.08.35.16.21.57.63,1,1.07,1.38.29.26.67.41,1.04.57.43.18.87.34,1.32.49.36.13.75.22,1.13.33.29.1.56.24.85.34.33.1.66.19.99.3.25.08.5.17.73.26.36.16.7.32,1.03.5.33.17.65.36.96.56.33.21.69.43,1,.68.24.21.45.47.66.7.08.08.15.16.22.26.09.14.18.28.28.43.2.31.4.63.6.95.13.21.26.42.37.64.08.13.16.25.21.41.22.8.59,1.54,1.04,2.24.17.26.29.57.61.7.02.01.05.02.05.04.12.46.58.6.89.87.17.14.39.26.61.28.24.03.49.12.77,0,.21-.09.49-.02.75-.03.14,0,.29-.03.43-.04.11-.02.21-.03.32-.05.31-.06.62-.12.93-.19.3-.08.61-.15.91-.25.62-.23,1.23-.47,1.85-.72.35-.13.69-.26,1.03-.41.34-.14.68-.28,1.01-.44.55-.24,1.09-.51,1.62-.78.73-.36,1.48-.69,2.21-1.06.57-.29,1.13-.64,1.7-.94.41-.2.84-.37,1.26-.57.18-.08.34-.19.52-.28.45-.2.92-.39,1.37-.61.5-.23,1-.48,1.5-.72.34-.16.71-.3,1.06-.46.44-.21.88-.44,1.31-.66.59-.3,1.19-.58,1.76-.91.42-.23.81-.51,1.22-.76.34-.21.73-.38,1.06-.62.66-.47,1.3-1,1.96-1.48.5-.37,1-.7,1.51-1.05.32-.23.62-.5.95-.72.35-.25.71-.47,1.08-.68.34-.2.69-.37,1.04-.55.34-.17.69-.32,1.04-.49.39-.2.78-.43,1.18-.63.25-.13.52-.24.79-.33.61-.21,1.23-.4,1.86-.59.29-.07.6-.1.91-.15.03-.01.07,0,.1-.02.59-.24,1.23-.22,1.83-.41.29-.09.61-.1.87-.32.09-.07.24-.05.37-.07.27-.07.53-.13.8-.19.5-.1.99-.2,1.47-.31.23-.05.43-.14.66-.19.24-.05.49-.1.74-.14.63-.11,1.28-.2,1.91-.29.65-.1,1.3-.17,1.95-.25.19-.02.39.03.57.03.13.01.26-.03.38-.03.52,0,1.04.03,1.55.05l2.13.09c.41.03.81.08,1.23.09.31.01.63-.04.95-.03.87.04,1.75.1,2.62.14.54.02,1.09.02,1.64-.09.33-.06.7-.03,1.05-.05.55-.03,1.09-.06,1.63-.11.45-.03.89-.09,1.33-.15.37-.04.74-.1,1.1-.19.47-.12.93-.29,1.41-.41.34-.1.69-.14,1.04-.22.34-.08.66-.19.99-.28.14-.03.28-.04.42-.08.33-.1.64-.23.96-.3.34-.09.71-.13,1.06-.22.43-.1.86-.25,1.29-.38.24-.07.48-.12.72-.2.47-.14.93-.29,1.4-.43.28-.07.56-.12.84-.2.17-.05.36-.11.54-.16.41-.13.83-.25,1.23-.38.33-.09.64-.2.96-.29.37-.09.75-.17,1.14-.24.46-.09.92-.16,1.38-.23.12-.02.25-.01.37-.02.25,0,.52-.02.78.01.5.04,1.02.09,1.51.19.49.11.96.28,1.43.44.16.06.32.15.48.24.24.12.49.26.71.39.13.07.24.19.38.25.48.2.71.65,1.03,1,.11.12.21.22.29.35.14.24.27.49.38.76.14.33.29.66.38,1.01Z"/>
    </g>
    <path class="cls-2" d="m94.7,71.6c-.2-.26-.42-.49-.41-.84.2.25.36.52.41.84Z"/>
    <path class="cls-2" d="m93.72,71.05c-.16-.18-.42-.3-.67-.46.55-.08,1.13.57,1,1.13-.11-.23-.18-.48-.33-.67Z"/>
    <path class="cls-2" d="m92.98,72.24c-.33-.08-.62-.45-.54-.78.03-.13.17-.28.3-.32.33-.1.75.27.75.69,0,.01.01.1-.02.17-.06.21-.26.31-.49.25Z"/>
    <path class="cls-3" d="m94.29,70.76c-.01.34.2.58.41.84-.04-.32-.2-.59-.41-.84Zm-.24.96c.13-.56-.45-1.2-1-1.13.25.16.5.28.67.46.15.18.23.44.33.67Zm-1.61-.26c-.09.33.2.71.54.78.24.06.43-.03.49-.25.03-.08.02-.16.02-.17,0-.42-.42-.78-.75-.69-.13.04-.27.19-.3.32Zm-1.46-.19c-.18-.26-.14-.5.13-.65.2-.11.4-.25.61-.29.25-.06.5-.15.77-.13s.55-.09.79-.02c.47.13,1,.05,1.44.38.19.15.46.2.56.45.04.11.08.24.04.34-.06.28-.23.5-.46.69-.21.17-.41.36-.61.55-.05.04-.13.05-.19.08-.03-.18-.06-.34-.1-.49h-.08v.63c-.21-.02-.45-.02-.68-.08-.27-.06-.55-.15-.81-.28-.55-.29-1.06-.63-1.43-1.17Z"/>
    <path class="cls-2" d="m91.11,70.61c-.27.15-.31.4-.13.65.36.54.88.88,1.43,1.17.26.13.54.21.81.28.23.05.46.05.68.08v-.63h.08c.03.15.06.31.1.49.06-.02.14-.03.19-.08.2-.18.4-.38.61-.55.24-.18.4-.41.46-.69.03-.11,0-.24-.04-.34-.1-.25-.36-.3-.56-.45-.44-.32-.97-.25-1.44-.38-.25-.06-.53.04-.79.02s-.53.06-.77.13c-.21.04-.41.18-.61.29Zm-.44.82c-.24-.38-.1-.79.2-1.13.18-.2.36-.24.6-.25.16-.01.31-.12.47-.14.26-.04.53-.05.78-.08.01-.01.01-.02.01-.04.65.11,1.31.18,1.95.32.29.06.55.23.71.49.02.04.06.08.1.11.29.27.25.36.13.76-.21.7-.79,1.03-1.31,1.42-.35.25-.79.29-1.26.25-.42-.04-.71-.23-1-.49-.23-.2-.53-.31-.75-.5-.25-.21-.47-.45-.64-.72Z"/>
  </g>
</svg>