<?xml version="1.0" encoding="UTF-8"?>
<svg id="Layer_1" data-name="Layer 1" xmlns="http://www.w3.org/2000/svg" viewBox="0 0 136.06 136.06">
  <defs>
    <style>
      .cls-1 {
        fill: #f2d06c;
      }

      .cls-2 {
        fill: #0c3454;
      }

      .cls-3 {
        fill: #a7483f;
      }

      .cls-3, .cls-4 {
        opacity: .8;
      }

      .cls-4 {
        fill: #324a8d;
      }
    </style>
  </defs>
  <path class="cls-2" d="m56.57,84.87c.24.31.47.59.69.87.17.22.17.34-.06.45-1.08.5-2.16.99-3.26,1.5-1.16-.97-1.98-2.2-2.95-3.29.17-.36.52-.33.74-.45.07-.36.1-.7.2-1.01.1-.32.27-.63.36-.83-.19-.51-.35-.92-.5-1.34-.19-.51,0-.93.38-1.25.27-.23.34-.48.35-.81.03-.98-.13-1.92-.4-2.86-.05-.16-.15-.31-.22-.46-.34-.74-.5-1.53-.72-2.31-.07-.25-.19-.48-.29-.72-.34-.79-.7-1.57-1.03-2.36-.19-.46-.33-.95-.52-1.41-.25-.59-.54-1.16-.81-1.74-.03-.07-.11-.13-.23-.26-.09.33-.19.58-.22.84-.05.44-.07.89-.06,1.33,0,.14.09.29.17.41.19.3.19.58,0,.87-.11.16-.23.31-.34.46-.23.3-.25.52-.06.84.07.12.14.23.22.35.26.38.12.84-.31.99-.23.07-.47.1-.73.15-.21.58.43.81.53,1.27-.18.32-.54.35-.82.49-.43.21-.9.35-1.34.54-.22.09-.39.07-.55-.12-.56-.63-1.14-1.25-1.54-2.02.18-.33.54-.3.86-.37.09-.22.13-.41-.07-.61-.28-.29-.3-.68-.03-1.01.13-.16.34-.27.53-.39.12-.08.24-.15.32-.19-.23-.43-.45-.8-.62-1.18-.15-.32-.1-.66.14-.92.26-.27.32-.61.38-.94.23-1.15.43-2.31.67-3.46.17-.83.39-1.65.57-2.47.23-1.01.44-2.02.67-3.03.16-.71.68-1.16,1.34-1.31,1.37-.32,2.72-.76,4.14-.9.29-.03.57-.13.85-.23.76-.25,1.55-.33,2.34-.37.83-.05,1.65-.16,2.47-.25,1.04-.12,2.09-.25,3.13-.39.29-.04.57-.12.86-.17.79-.11,1.57-.23,2.36-.32,1.18-.12,2.37-.23,3.55-.31.62-.04,1.24-.01,1.86-.04,1.65-.06,3.3-.14,4.96-.2.57-.02,1.15-.04,1.71.05,1.1.18,1.92.82,2.47,1.8.53.94,1.07,1.88,1.62,2.82.29.49.57.99.95,1.42.47.53.87,1.11,1.29,1.67.49.67.93,1.37,1.4,2.05.55.8,1.11,1.59,1.67,2.37.73,1.02,1.45,2.05,2.21,3.05.41.54.81,1.1,1.41,1.5.48.32.84.82,1.26,1.22.55.52,1.11,1.02,1.66,1.53.06.05.11.14.11.22,0,.62.03,1.24,0,1.86-.09,1.5-.23,2.99-.33,4.49-.02.28.03.55.28.79.6.58.59,2.26-.5,2.63-.14.05-.27.14-.4.21v1.22c.29.27.6.54.97.87-.06.11-.11.3-.24.41-.77.69-1.56,1.36-2.35,2.03-.12.1-.25.18-.38.27-.16.11-.31.09-.47-.03-.61-.42-1.24-.81-1.84-1.24-.42-.3-.83-.62-1.23-.95-.07-.06-.12-.16-.18-.26.22-.26.44-.5.64-.76.16-.2.22-.4.11-.67-.18-.41-.05-.76.28-1.07.36-.34.34-.35.08-.76-.15-.25-.34-.5-.41-.77-.1-.44.01-.87.33-1.21.24-.25.3-.52.25-.85-.06-.42-.08-.85-.11-1.24-.32-.03-.62-.08-.93-.07-.43,0-.86.05-1.29.09-1,.1-1.99.2-2.98.31-.99.11-1.99.23-2.98.35-.62.07-1.24.14-1.85.23-.37.06-.74.15-1.1.25-1.56.46-3.14.68-4.76.57-.66-.05-1.3.06-1.96.09-.5.02-1,.05-1.5.07-.29.01-.58.04-.88.05-.16,0-.31,0-.47,0-.34-.03-.68-.08-1.02-.1-1.32-.07-2.65-.14-3.98-.2-.84-.04-1.69-.07-2.53-.11-.58-.03-1.15-.08-1.72-.12-.2.34-.21.61.03.89.12.14.23.31.29.49.1.33.09.65-.18.92-.04.04-.07.07-.11.11-.53.58-.53.66-.05,1.31.2.27.21.46.04.76-.06.1-.13.2-.24.36Zm34.61-11.19c-.09-.17-.12-.29-.19-.37-.36-.39-.73-.77-1.09-1.17-.58-.64-1.17-1.27-1.71-1.94-.49-.62-.89-1.32-1.38-1.95-1.15-1.49-2.3-2.98-3.3-4.58-.33-.53-.64-1.08-1.06-1.53-.4-.44-.71-.93-1.05-1.4-.05-.07-.1-.14-.15-.21-.44-.62-.91-1.21-1.31-1.86-.55-.9-1.05-1.83-1.57-2.74-.63-1.1-1.57-1.67-2.84-1.65-.62,0-1.24.05-1.86.06-1.26.04-2.52.07-3.77.1-1.45.04-2.89.06-4.34.21-.79.08-1.58.14-2.37.24-1.11.14-2.22.31-3.33.44-1.65.2-3.31.38-4.97.58-.53.07-1.05.17-1.58.28-.45.1-.89.28-1.35.33-1.39.17-2.72.58-4.05.97-.55.16-.8.61-.65,1.11.15.48.32.95.51,1.41.39.94.8,1.87,1.21,2.8.41.91.72,1.87,1.22,2.74.37.64.74,1.29,1.04,1.97.74,1.67,1.43,3.36,2.17,5.03.33.76.73,1.49,1.1,2.22.23.44.5.86.72,1.31.3.6.54.76,1.21.7.07,0,.13-.03.2-.04.59-.04,1.17-.11,1.76-.12.77-.02,1.55,0,2.32,0,.24,0,.47-.08.71-.1.93-.09,1.86-.13,2.78-.26,1.2-.17,2.4-.31,3.61-.31.66,0,1.31-.03,1.97-.06.44-.02.89-.06,1.33-.08.5-.02,1-.02,1.49-.06,1.03-.08,2.06-.17,3.09-.28.69-.08,1.37-.18,2.05-.31,1.07-.2,2.12-.46,3.19-.64,1-.17,2.02-.24,3.02-.42.58-.1,1.15-.19,1.73-.12.1.01.21,0,.31-.02,1.13-.12,2.26-.27,3.41-.25.56,0,1.13-.02,1.77-.04Zm.26.69c-.24-.04-.41-.12-.57-.09-.85.13-1.68.05-2.53-.03-.57-.06-1.17.01-1.74.09-1.06.14-2.11.36-3.13.7-.85.28-1.73.49-2.6.68-.47.1-.96.11-1.44.14-.76.05-1.52.08-2.24.34-.06.02-.14,0-.21.01-.81.03-1.62.07-2.43.11-.19,0-.38.05-.57.03-1.19-.15-2.37.03-3.55.05-.87.01-1.75.17-2.62.3-.99.14-1.97.2-2.98.1-.78-.08-1.58.02-2.38.07-.68.04-1.36.17-2.05.17-1.19,0-2.37-.11-3.54.2-.52.14-1.07.05-1.48-.27-.44-.34-.77-.81-1.05-1.32-.43-.77-.67-1.62-1-2.43-.25-.64-.49-1.29-.78-1.92-.49-1.08-.99-2.16-1.52-3.22-.27-.54-.67-1.01-.92-1.55-.5-1.06-.96-2.14-1.39-3.23-.59-1.5-1.14-3.01-1.7-4.52-.15.22-.22.43-.26.64-.11.56-.22,1.11-.33,1.67-.3,1.49-.59,2.98-.89,4.47-.09.46-.17.92-.24,1.38-.06.41-.1.82-.15,1.23-.04.35.09.6.42.76.23.11.45.26.69.36.14.06.31.08.5.12.06-.32.13-.56.15-.82.09-1.14.15-2.27.24-3.41.05-.6.12-1.2.2-1.8.05-.42.25-.55.64-.38.13.06.27.17.33.3.15.31.27.63.39.95.15.37.28.74.44,1.1.3.68.63,1.34.93,2.02.21.47.36.97.56,1.44.31.74.67,1.47.97,2.22.46,1.15.88,2.32,1.34,3.47.5,1.26,1.08,2.49,1.72,3.69.17.32.4.43.69.47.23.03.48-.04.72-.03.86.02,1.72.07,2.59.08.46,0,.94,0,1.39-.08.9-.13,1.81-.28,2.7-.48.65-.14,1.3-.11,1.94-.16.29-.02.58-.08.87-.1,1.18-.08,2.37-.15,3.55-.24.76-.05,1.51-.11,2.26-.19.55-.06,1.09-.19,1.64-.23.67-.05,1.34-.05,2.01-.08.45-.02.89-.06,1.34-.1.55-.04,1.11-.16,1.65-.09,1.04.14,2.08.02,3.1-.08,1.47-.14,2.94-.38,4.41-.61,1.05-.16,2.1-.1,3.15.01.24.03.37.19.42.4.06.27.09.54.12.82.05.59.11,1.17.14,1.76.04.65.06,1.31.07,1.96,0,.27-.03.54-.05.84.17,0,.31.04.44.02.39-.07.77-.18,1.16-.25.28-.05.4-.2.44-.48.17-1.16.08-2.31.03-3.47-.03-.6-.09-1.2-.14-1.8,0-.09,0-.17.01-.26.03-.46.05-.93.08-1.46Zm-35.11,5.13c.5.03,1.01,0,1.49.1.8.15,1.6.19,2.4.22.6.02,1.2-.03,1.79.04,1.43.17,2.86.28,4.28.07,1.13-.17,2.27-.17,3.41-.18.78,0,1.56-.03,2.33-.11.65-.07,1.29-.26,1.93-.37.87-.14,1.71-.43,2.6-.4.39.01.79-.06,1.18-.11,1.25-.16,2.5-.33,3.74-.5.87-.11,1.75-.22,2.62-.32.27-.03.55,0,.82-.03.32-.02.68.01.96-.11.38-.17.73-.13,1.15-.09.05.46.12.9.15,1.35.04.67.04,1.34.08,2.01,0,.13.04.32.13.36.38.21.75.5,1.23.45.14-.46.09-4.32-.07-4.98-.18-.01-.36-.05-.55-.04-.41.01-.83.09-1.24.05-.39-.04-.75.02-1.13.06-.15.02-.31.05-.46.05-.76.04-1.52.04-2.28.11-.68.06-1.37.15-2.04.3-.84.19-1.69.2-2.52.17-.81-.03-1.62-.08-2.43.02-.51.07-1.03.11-1.55.12-.74.02-1.48-.01-2.22.01-1.07.03-2.14.08-3.2.15-1.38.1-2.75.3-4.12.34-1.17.04-2.3.25-3.44.43-.71.11-1.43.19-2.15.24-.58.04-1.17.05-1.75.02-.69-.04-1.38-.06-2.06.06-.35.06-.44.17-.44.52,0,.55,0,1.09,0,1.69.37-.02.72-.04,1.12-.06.08-.54.15-1.05.24-1.66Zm-1.81,1.65c.03-.22.07-.4.09-.59.03-.31.03-.62.08-.93.08-.53-.01-1-.26-1.49-.59-1.15-1.14-2.32-1.66-3.5-.36-.82-.63-1.67-.97-2.5-.5-1.23-1.01-2.45-1.52-3.67-.29-.68-.58-1.36-.88-2.04-.3-.67-.71-1.29-.91-2.02-.11-.41-.33-.78-.55-1.27-.12.2-.21.3-.23.4-.29,1.87-.52,3.75-.53,5.68h.39c.03-1.05-.06-2.12.45-3.08.48-.01.63.35.77.64.35.71.66,1.44.97,2.17.36.84.71,1.69,1.05,2.53.24.59.48,1.18.7,1.78.25.7.44,1.42.72,2.11.33.79.55,1.6.61,2.44.04.58.01,1.17.03,1.75,0,.17.01.39.11.49.44.43.89.86,1.54,1.1Zm31.5,4.85c.96.77,1.93,1.39,2.9,2.01.49-.41.94-.78,1.39-1.16.44-.37,1-.6,1.41-1.1-.21-.15-.39-.27-.57-.4-.55.61-1.24.78-1.99.73-.67-.05-1.33-.22-1.92-.55-.43-.24-.71-.1-.99.2-.07.07-.13.16-.23.28Zm-29.37-4.95c-.3.51-.69.66-1.21.51-.09-.03-.22-.04-.31,0-.45.16-.8-.09-1.15-.3-.48-.29-.93-.63-1.39-.95-.04-.19-.07-.36-.11-.57-.3.15-.43.35-.42.64.04.87.53,1.45,1.22,1.9.3.19.78.08.91.54,0,.02.06.02.1.03.52.03,1.05.21,1.56-.11.13-.08.29-.12.42-.19.6-.3.76-.86.38-1.5Zm-2.75,6.33c.68-.3,1.31-.58,1.94-.86.3-.13.59-.28.89-.42.16-.08.27-.21.19-.37-.13-.24-.29-.46-.48-.67-.07-.07-.24-.13-.33-.09-.3.11-.62.18-.81.5-.1.18-.32.36-.51.4-.53.1-1.07.11-1.57-.16-.38-.21-.63-.51-.66-.98-.04-.51-.24-.63-.72-.49-.14.04-.28.13-.44.21.75,1.08,1.57,2.04,2.51,2.94Zm33.05-6.38c-.34.32-.49.74-.32,1.02.31.53.68,1,1.26,1.26.36.16.72.23,1.1.23.85-.01,1.69-.09,2.48-.45.8-.36,1.04-1.32.46-1.96-.23.47.15,1-.2,1.48-.56.03-1.14.07-1.73.11-.26.02-.52,0-.77.05-.31.07-.59,0-.84-.15-.29-.18-.56-.42-.87-.55-.41-.17-.55-.44-.53-.84,0-.06-.02-.12-.04-.2Zm-.03,2.78c-.37.66-.3.97.3,1.31.3.17.63.3.96.38.6.14,1.21.3,1.84.1.62-.2.76-.4.66-1.14-.23.13-.44.29-.68.38-.25.09-.55.19-.8.14-.43-.09-.86-.25-1.25-.45-.36-.19-.67-.46-1.03-.72Zm-30.83-.8c-.24.07-.48.21-.73.21-.79.02-1.54-.16-2.17-.67-.25-.2-.45-.11-.49.21-.05.33.18.53.4.67.73.49,1.53.77,2.44.65.62-.08.82-.45.56-1.08Zm-11.47-14.59c-.5.91.43,1.87,1.09,2,.44.08.89.09,1.34.11.45.02.98-.48,1-.94,0-.07-.06-.14-.1-.22-.55.58-1.18.44-1.79.25-.64-.2-1.13-.61-1.54-1.2Zm7.6,14.7c-.21.19-.27.38-.06.59.17.17.36.32.53.48.47.44,1.07.61,1.68.74.76.17,1.47-.02,2.1-.47.29-.21.27-.28,0-.63-.24.48-.66.57-1.14.53-.34-.03-.69-.05-1.02-.13-.77-.18-1.47-.52-2.08-1.11Zm-7.18-8.16c.39-.14.73-.26,1.06-.39.35-.14.68-.3,1.08-.47-.15-.27-.26-.48-.4-.73-.44.47-.93.7-1.51.6-.61-.11-.86-.63-1.15-1.16-.19.12-.35.21-.56.34.35.46.66.87.98,1.27.15.19.32.36.49.55Zm-.44-4.06c-.64.5-.63.83.02,1.21.09.05.17.13.26.16.78.23,1.58.24,2.39.23.28,0,.49-.14.59-.45-.09-.15-.17-.31-.27-.48-1.26,1.06-2.46.53-3-.67Zm2.72-.14c-.47-.03-.94-.05-1.41-.08-.15-.01-.31-.03-.44-.09-.17-.08-.29-.08-.4.08-.11.15-.17.32-.04.48.35.44.79.73,1.37.69.62-.04.99-.47.92-1.07Zm-2.81,1.72c-.14.53.22,1.14.75,1.23.71.13,1.25-.23,1.34-.89-.7-.11-1.39-.23-2.09-.34Zm45.97,11.49s-.03-.08-.05-.13c-.53.03-1.06.11-1.59.06-.53-.05-1.04-.24-1.56-.37,0,.02-.01.08.02.11.54.53,1.19.91,1.94.95.5.03.94-.21,1.24-.63Zm-35.41,1.41c-.78-.22-1.48-.41-2.2-.62.05.59.43.74.87.85.48.12.92.09,1.33-.24Z"/>
  <path class="cls-1" d="m91.18,73.67c-.64.02-1.2.05-1.77.04-1.14-.01-2.27.13-3.41.25-.1.01-.21.03-.31.02-.59-.07-1.15.02-1.73.12-1,.17-2.02.25-3.02.42-1.07.18-2.12.44-3.19.64-.68.13-1.36.23-2.05.31-1.03.11-2.06.2-3.09.28-.5.04-.99.03-1.49.06-.44.02-.89.07-1.33.08-.66.03-1.31.06-1.97.06-1.21,0-2.41.14-3.61.31-.92.13-1.85.17-2.78.26-.24.02-.47.09-.71.1-.77.01-1.55-.01-2.32,0-.59.02-1.17.08-1.76.12-.07,0-.13.03-.2.04-.67.06-.92-.1-1.21-.7-.22-.45-.49-.87-.72-1.31-.38-.74-.77-1.47-1.1-2.22-.74-1.67-1.43-3.36-2.17-5.03-.3-.68-.67-1.33-1.04-1.97-.5-.87-.82-1.82-1.22-2.74-.41-.93-.82-1.86-1.21-2.8-.19-.46-.36-.93-.51-1.41-.15-.51.1-.95.65-1.11,1.33-.39,2.66-.8,4.05-.97.46-.06.9-.24,1.35-.33.52-.11,1.05-.22,1.58-.28,1.65-.2,3.31-.38,4.97-.58,1.11-.14,2.22-.31,3.33-.44.79-.1,1.58-.16,2.37-.24,1.44-.15,2.89-.17,4.34-.21,1.26-.03,2.52-.06,3.77-.1.62-.02,1.24-.05,1.86-.06,1.27-.02,2.22.55,2.84,1.65.52.91,1.02,1.85,1.57,2.74.4.64.87,1.24,1.31,1.86.05.07.1.14.15.21.34.48.65.97,1.05,1.4.42.45.73,1,1.06,1.53,1,1.6,2.16,3.09,3.3,4.58.48.63.88,1.32,1.38,1.95.54.67,1.13,1.3,1.71,1.94.36.39.73.77,1.09,1.17.07.08.1.2.19.37Zm-34.93,1.84c.66.02,1.35.06,2.03.05.55,0,1.1-.11,1.65-.1.65,0,1.29-.08,1.93-.19.88-.15,1.77-.31,2.66-.4,1.04-.11,2.09-.16,3.14-.23.46-.03.94-.04,1.39-.12,1.29-.25,2.6-.29,3.91-.35,1.23-.05,2.46-.04,3.69-.04.78,0,1.54-.16,2.3-.32.52-.11,1.05-.19,1.58-.3,1.25-.26,2.54-.25,3.77-.63.74-.23,1.5-.39,2.25-.58.38-.1.53-.35.36-.69-.18-.37-.37-.76-.64-1.06-.65-.72-1.06-1.6-1.62-2.38-.42-.59-.91-1.13-1.37-1.68-.11-.13-.31-.19-.39-.32-.55-.97-1.46-1.7-1.89-2.76-.15-.38-.5-.67-.49-1.12,0-.04-.04-.11-.07-.13-.44-.27-.55-.78-.8-1.18-.41-.66-.75-1.36-1.17-2.01-.38-.57-.81-1.11-1.11-1.74-.2-.41-.51-.77-.75-1.17-.16-.27-.38-.36-.69-.36-.69,0-1.37-.04-2.06-.06-.09,0-.17,0-.26,0-.77.05-1.54.12-2.32.16-.26.01-.52-.07-.77-.05-1.39.12-2.77.26-4.15.41-.74.08-1.47.18-2.21.28-.48.06-.95.1-1.44.05-.61-.06-1.24-.05-1.85.04-1.01.14-2.03.18-3.01.5-.1.03-.21.02-.31.03-.34.04-.69.07-1.03.13-1.19.21-2.37.47-3.57.63-1.12.14-2.19.46-3.29.71-.61.14-.79.4-.65.95.14.53.32,1.06.54,1.56.2.47.51.9.73,1.37.48,1.05.93,2.1,1.38,3.17.3.71.56,1.45.87,2.16.56,1.3,1.04,2.63,1.72,3.87.68,1.26,1.31,2.54,2.02,3.92Z"/>
  <path class="cls-3" d="m91.44,74.36c-.03.54-.06,1-.08,1.46,0,.09-.02.17-.01.26.04.6.11,1.2.14,1.8.05,1.16.14,2.31-.03,3.47-.04.28-.16.43-.44.48-.39.07-.77.18-1.16.25-.13.02-.27,0-.44-.02.02-.3.06-.57.05-.84-.01-.66-.04-1.31-.07-1.96-.03-.59-.09-1.17-.14-1.76-.03-.27-.06-.55-.12-.82-.05-.22-.19-.38-.42-.4-1.05-.11-2.09-.18-3.15-.01-1.47.23-2.93.47-4.41.61-1.02.1-2.06.22-3.1.08-.54-.07-1.1.05-1.65.09-.45.03-.89.07-1.34.1-.67.03-1.35.02-2.01.08-.55.04-1.09.17-1.64.23-.75.08-1.51.13-2.26.19-1.18.08-2.37.15-3.55.24-.29.02-.58.08-.87.1-.65.05-1.3.02-1.94.16-.89.19-1.8.34-2.7.48-.46.07-.93.08-1.39.08-.86-.01-1.72-.06-2.59-.08-.24,0-.48.06-.72.03-.29-.04-.52-.15-.69-.47-.64-1.2-1.22-2.43-1.72-3.69-.46-1.15-.88-2.32-1.34-3.47-.3-.75-.65-1.48-.97-2.22-.2-.48-.36-.97-.56-1.44-.3-.68-.62-1.35-.93-2.02-.16-.36-.3-.74-.44-1.1-.13-.32-.24-.65-.39-.95-.06-.13-.2-.24-.33-.3-.39-.17-.59-.04-.64.38-.08.6-.15,1.2-.2,1.8-.09,1.14-.15,2.27-.24,3.41-.02.25-.09.5-.15.82-.19-.04-.35-.06-.5-.12-.24-.1-.46-.25-.69-.36-.32-.16-.46-.4-.42-.76.05-.41.09-.82.15-1.23.07-.46.15-.92.24-1.38.29-1.49.59-2.98.89-4.47.11-.56.21-1.12.33-1.67.04-.21.11-.43.26-.64.56,1.51,1.11,3.02,1.7,4.52.43,1.09.89,2.17,1.39,3.23.25.54.65,1.01.92,1.55.53,1.06,1.03,2.14,1.52,3.22.28.63.52,1.28.78,1.92.32.82.57,1.66,1,2.43.28.5.61.97,1.05,1.32.41.32.96.41,1.48.27,1.17-.31,2.36-.2,3.54-.2.68,0,1.36-.13,2.05-.17.79-.05,1.59-.15,2.38-.07,1.01.1,1.99.04,2.98-.1.87-.13,1.74-.28,2.62-.3,1.18-.02,2.37-.2,3.55-.05.19.02.38-.02.57-.03.81-.04,1.62-.07,2.43-.11.07,0,.14.01.21-.01.73-.26,1.49-.29,2.24-.34.48-.03.97-.04,1.44-.14.87-.19,1.75-.4,2.6-.68,1.02-.34,2.07-.55,3.13-.7.58-.08,1.17-.15,1.74-.09.85.09,1.68.17,2.53.03.16-.02.33.05.57.09Z"/>
  <path class="cls-3" d="m56.33,79.5c-.09.61-.16,1.12-.24,1.66-.39.02-.75.04-1.12.06,0-.6,0-1.15,0-1.69,0-.35.1-.45.44-.52.68-.12,1.37-.1,2.06-.06.58.03,1.17.02,1.75-.02.72-.05,1.44-.13,2.15-.24,1.14-.18,2.27-.39,3.44-.43,1.38-.04,2.75-.24,4.12-.34,1.07-.08,2.13-.12,3.2-.15.74-.02,1.48,0,2.22-.01.52-.01,1.04-.05,1.55-.12.81-.11,1.62-.05,2.43-.02.84.03,1.69.02,2.52-.17.67-.15,1.36-.24,2.04-.3.76-.07,1.52-.08,2.28-.11.15,0,.31-.04.46-.05.37-.05.74-.11,1.13-.06.41.05.82-.04,1.24-.05.19,0,.37.03.55.04.16.65.21,4.52.07,4.98-.48.05-.85-.23-1.23-.45-.09-.05-.12-.24-.13-.36-.03-.67-.04-1.34-.08-2.01-.03-.44-.1-.88-.15-1.35-.42-.04-.77-.07-1.15.09-.28.12-.63.09-.96.11-.27.02-.55,0-.82.03-.87.1-1.75.21-2.62.32-1.25.16-2.5.33-3.74.5-.39.05-.79.12-1.18.11-.9-.03-1.74.26-2.6.4-.65.11-1.28.3-1.93.37-.77.08-1.55.11-2.33.11-1.14,0-2.28.01-3.41.18-1.43.21-2.86.1-4.28-.07-.59-.07-1.2-.02-1.79-.04-.8-.03-1.61-.07-2.4-.22-.48-.09-.99-.07-1.49-.1Z"/>
  <path class="cls-3" d="m54.52,81.14c-.65-.24-1.1-.67-1.54-1.1-.1-.1-.11-.32-.11-.49-.02-.58,0-1.17-.03-1.75-.06-.85-.28-1.65-.61-2.44-.28-.68-.47-1.41-.72-2.11-.22-.6-.46-1.19-.7-1.78-.35-.85-.69-1.69-1.05-2.53-.31-.73-.61-1.46-.97-2.17-.14-.29-.29-.65-.77-.64-.51.96-.42,2.03-.45,3.08h-.39c.02-1.92.25-3.8.53-5.68.02-.1.11-.2.23-.4.21.48.44.86.55,1.27.19.73.61,1.35.91,2.02.3.68.6,1.36.88,2.04.51,1.22,1.03,2.45,1.52,3.67.33.83.61,1.69.97,2.5.52,1.18,1.07,2.35,1.66,3.5.25.49.34.96.26,1.49-.05.31-.05.62-.08.93-.02.18-.05.36-.09.59Z"/>
  <path class="cls-4" d="m86.02,85.99c.1-.13.16-.21.23-.28.28-.3.56-.45.99-.2.59.33,1.25.51,1.92.55.74.05,1.44-.11,1.99-.73.18.13.36.25.57.4-.41.5-.97.73-1.41,1.1-.45.38-.9.75-1.39,1.16-.97-.61-1.94-1.24-2.9-2.01Z"/>
  <path class="cls-4" d="m56.65,81.04c.38.64.22,1.21-.38,1.5-.14.07-.3.1-.42.19-.5.32-1.03.14-1.56.11-.03,0-.09,0-.1-.03-.14-.46-.62-.35-.91-.54-.69-.45-1.18-1.03-1.22-1.9-.01-.29.12-.48.42-.64.04.21.08.38.11.57.46.31.91.65,1.39.95.34.21.69.46,1.15.3.09-.03.21-.03.31,0,.51.16.91,0,1.21-.51Z"/>
  <path class="cls-4" d="m53.9,87.37c-.94-.9-1.76-1.86-2.51-2.94.17-.08.3-.17.44-.21.48-.14.68-.02.72.49.04.47.28.77.66.98.49.27,1.04.27,1.57.16.19-.04.41-.22.51-.4.19-.33.52-.39.81-.5.09-.03.26.02.33.09.18.2.35.43.48.67.09.16-.03.29-.19.37-.3.14-.59.29-.89.42-.63.28-1.26.56-1.94.86Z"/>
  <path class="cls-4" d="m86.94,80.99c.02.08.04.14.04.2-.02.4.13.67.53.84.31.13.57.38.87.55.26.15.53.22.84.15.25-.05.51-.04.77-.05.58-.04,1.17-.07,1.73-.11.35-.48-.03-1.01.2-1.48.58.63.34,1.6-.46,1.96-.79.36-1.63.44-2.48.45-.39,0-.75-.07-1.1-.23-.58-.26-.96-.73-1.26-1.26-.16-.28-.02-.7.32-1.02Z"/>
  <path class="cls-4" d="m86.91,83.77c.36.26.67.54,1.03.72.39.2.82.37,1.25.45.25.05.54-.05.8-.14.24-.08.45-.25.68-.38.1.73-.04.94-.66,1.14-.63.2-1.24.04-1.84-.1-.33-.07-.66-.21-.96-.38-.6-.34-.67-.65-.3-1.31Z"/>
  <path class="cls-3" d="m56.08,82.97c.26.63.06,1-.56,1.08-.9.12-1.7-.16-2.44-.65-.22-.15-.45-.34-.4-.67.05-.32.24-.41.49-.21.64.51,1.38.69,2.17.67.24,0,.49-.14.73-.21Z"/>
  <path class="cls-4" d="m44.62,68.38c.41.58.91,1,1.54,1.2.61.19,1.24.33,1.79-.25.04.08.1.15.1.22-.02.46-.55.96-1,.94-.45-.02-.9-.03-1.34-.11-.66-.12-1.6-1.09-1.09-2Z"/>
  <path class="cls-4" d="m52.21,83.08c.61.6,1.31.93,2.08,1.11.33.08.68.1,1.02.13.47.04.9-.05,1.14-.53.27.35.29.42,0,.63-.63.45-1.34.64-2.1.47-.6-.13-1.2-.31-1.68-.74-.18-.16-.36-.31-.53-.48-.21-.21-.14-.4.06-.59Z"/>
  <path class="cls-4" d="m45.03,74.92c-.18-.2-.35-.36-.49-.55-.32-.4-.63-.81-.98-1.27.2-.12.37-.22.56-.34.29.53.54,1.05,1.15,1.16.58.1,1.07-.12,1.51-.6.14.25.25.47.4.73-.39.17-.73.33-1.08.47-.33.13-.67.25-1.06.39Z"/>
  <path class="cls-3" d="m44.59,70.86c.54,1.2,1.74,1.73,3,.67.09.16.18.32.27.48-.1.3-.31.44-.59.45-.8.02-1.61,0-2.39-.23-.1-.03-.17-.11-.26-.16-.65-.38-.67-.71-.02-1.21Z"/>
  <path class="cls-3" d="m47.32,70.73c.07.61-.29,1.03-.92,1.07-.59.04-1.03-.25-1.37-.69-.13-.16-.07-.32.04-.48.11-.16.24-.15.4-.08.13.06.29.08.44.09.47.03.95.06,1.41.08Z"/>
  <path class="cls-3" d="m44.51,72.44c.7.11,1.39.23,2.09.34-.1.66-.63,1.02-1.34.89-.52-.09-.88-.7-.75-1.23Z"/>
  <path class="cls-3" d="m90.48,83.94c-.3.42-.74.66-1.24.63-.76-.05-1.4-.42-1.94-.95-.03-.03-.01-.09-.02-.11.52.13,1.03.32,1.56.37.52.05,1.06-.04,1.59-.06.02.04.03.08.05.13Z"/>
  <path class="cls-3" d="m55.07,85.35c-.42.32-.85.36-1.33.24-.44-.11-.82-.26-.87-.85.73.2,1.42.4,2.2.62Z"/>
  <path class="cls-2" d="m56.25,75.52c-.71-1.38-1.34-2.67-2.02-3.92-.67-1.25-1.16-2.58-1.72-3.87-.31-.71-.56-1.44-.87-2.16-.45-1.06-.9-2.12-1.38-3.17-.21-.47-.52-.9-.73-1.37-.22-.5-.4-1.03-.54-1.56-.14-.55.04-.82.65-.95,1.09-.25,2.17-.57,3.29-.71,1.2-.15,2.38-.42,3.57-.63.34-.06.68-.09,1.03-.13.1-.01.21,0,.31-.03.98-.32,2-.36,3.01-.5.61-.08,1.24-.09,1.85-.04.49.05.96.01,1.44-.05.73-.1,1.47-.2,2.21-.28,1.38-.15,2.77-.29,4.15-.41.25-.02.52.06.77.05.77-.04,1.54-.1,2.32-.16.09,0,.17,0,.26,0,.69.02,1.37.06,2.06.06.31,0,.53.09.69.36.24.4.56.75.75,1.17.3.63.73,1.16,1.11,1.74.42.65.76,1.35,1.17,2.01.25.4.36.91.8,1.18.04.02.07.09.07.13,0,.45.34.74.49,1.12.43,1.06,1.34,1.79,1.89,2.76.08.14.28.2.39.32.47.55.95,1.09,1.37,1.68.56.78.97,1.66,1.62,2.38.27.3.46.69.64,1.06.17.34.03.59-.36.69-.75.2-1.51.36-2.25.58-1.23.37-2.52.37-3.77.63-.52.11-1.05.19-1.58.3-.76.17-1.52.32-2.3.32-1.23,0-2.46,0-3.69.04-1.31.05-2.62.1-3.91.35-.46.09-.93.09-1.39.12-1.05.08-2.09.12-3.14.23-.89.09-1.78.25-2.66.4-.64.11-1.28.19-1.93.19-.55,0-1.1.1-1.65.1-.69,0-1.37-.03-2.03-.05Zm-2.53-10.89c-.47.72-.93,1.43-1.36,2.09.14.65.38,1.11.98,1.4.77.37,1.5.83,2.28,1.26.64-1.07,1.25-2.09,1.74-3.24-1.17-.68-2.42-1-3.63-1.52Zm5.01-1.08c.59-1.08.98-2.18,1.48-3.29-1.21-.45-2.34-.88-3.5-1.31-.48,1.02-.94,1.98-1.41,2.99,1.14.53,2.24,1.05,3.43,1.61Zm-1.15,2.76c-.58,1.08-1.13,2.13-1.7,3.19,1.12.53,2.2,1.04,3.3,1.56.6-1.03,1.01-2.16,1.5-3.3-1.05-.49-2.04-.95-3.1-1.45Zm5.75,2.85c-.81-.43-1.58-.84-2.41-1.27-.52,1.16-1.01,2.27-1.5,3.39.88.55,1.8.92,2.71,1.37.22-.62.42-1.17.61-1.72.19-.55.38-1.11.6-1.77Zm-7.55.55c-.44.68-.85,1.33-1.28,2,.14.26.26.5.41.74.05.08.13.16.22.2.88.33,1.77.65,2.7.98.4-.73.81-1.48,1.24-2.28-1.02-.71-2.14-1.11-3.29-1.64Zm11.26-1.83c.11-.3.21-.53.29-.77.18-.59.33-1.2.54-1.79.19-.55.08-.5-.27-.74-.58-.4-1.18-.78-1.77-1.17-.15-.1-.31-.18-.49-.29-.12.36-.22.65-.32.94-.21.6-.43,1.2-.63,1.81-.14.42-.09.53.31.74.18.09.37.19.55.28.57.31,1.15.62,1.81.98Zm-5.28-2.81c.31-.98.61-1.89.9-2.81.05-.15.1-.31.09-.45,0-.12-.08-.28-.18-.33-.56-.31-1.13-.59-1.7-.87-.13-.07-.28-.1-.46-.15-.47,1.07-.93,2.09-1.39,3.14.88.47,1.76.94,2.74,1.47Zm-4.31.83c.39-.45,1-1.64,1.14-2.19-1.13-.52-2.26-1.05-3.4-1.58-.45.76-.9,1.52-1.38,2.32,1.24.49,2.42.96,3.64,1.45Zm13.48.88c-.88-.7-1.73-1.32-2.73-1.75-.31,1.02-.6,1.99-.89,2.94.92.57,1.8,1.12,2.71,1.69.31-.97.6-1.9.91-2.87Zm-2.92-2.18c.07-.07.11-.09.12-.12.26-.88.51-1.76.77-2.63.05-.17,0-.3-.16-.4-.76-.47-1.52-.96-2.28-1.42-.07-.05-.19-.02-.34-.03,0,1.03-.57,1.92-.64,2.92.86.57,1.7,1.13,2.54,1.69Zm-5.62,8.08c.76.4,1.41.74,2.06,1.08.19.1.32.07.43-.12.49-.86.77-1.8,1.1-2.73-.75-.65-1.6-1.08-2.47-1.51-.39,1.15-.76,2.23-1.11,3.29Zm7.53-2.77c-.88-.61-1.76-1.17-2.74-1.69-.3.92-.59,1.78-.87,2.64.94.68,1.84,1.33,2.79,2.02.27-.99.54-1.95.82-2.96Zm-.76-8.07c-.05.13-.1.22-.12.32-.2.71-.4,1.43-.6,2.14-.13.47-.09.55.33.78.48.26.96.54,1.43.83.25.16.47.36.76.59.38-1.07.62-2.08.9-3.07-.93-.55-1.8-1.07-2.69-1.59Zm4.44,6.54c.31-.79.59-1.51.86-2.23.12-.32.09-.57-.23-.8-.61-.45-1.18-.95-1.78-1.42-.1-.08-.23-.12-.4-.21-.3,1-.59,1.95-.89,2.93.81.58,1.58,1.12,2.43,1.73Zm-16.81-9.62c1.22.45,2.37.87,3.57,1.31.38-.95.73-1.86,1.12-2.83-.28-.07-.49-.19-.69-.17-.96.07-1.92.17-2.88.26-.28.03-.48.16-.6.42-.15.33-.32.64-.52,1.02Zm5.3,14.15c-.94-.47-1.85-.91-2.8-1.38-.41.75-.92,1.47-1.19,2.34.62.39,1.21.74,1.78,1.12.19.13.37.23.61.21.22-.01.45,0,.69,0,.3-.76.59-1.49.91-2.29Zm6.84-11.55c.27-.74.52-1.44.77-2.13.07-.2,0-.32-.16-.44-.81-.62-1.6-1.24-2.41-1.86-.06-.05-.14-.06-.25-.1-.26.96-.61,1.86-.67,2.8.93.59,1.81,1.15,2.72,1.73Zm-16.32-.6c.88.36,1.67.69,2.49,1.02.52-.83.86-1.73,1.26-2.6.08-.17.02-.3-.16-.38-.55-.24-1.09-.49-1.64-.72-.29-.12-.6-.03-.75.26-.4.78-.78,1.57-1.2,2.42Zm31.17,7.04c-.82-.21-1.41-.83-2.25-1-.35,1.06-.68,2.08-1.02,3.1.69.44,1.34.86,2,1.28.71-1.03.82-2.23,1.26-3.38Zm-22.1-2.52c-.94-.5-1.83-.97-2.75-1.47-.43.8-.82,1.54-1.24,2.33,1.06.49,2.06.95,3.08,1.43.31-.77.59-1.49.91-2.29Zm2.34,1.05c.39-1.16.74-2.25,1.12-3.39-.7-.4-1.36-.79-2.05-1.18-.38,1.19-.74,2.32-1.11,3.5.65.34,1.31.69,2.04,1.07Zm7.12.57c-.33,1.05-.62,1.97-.93,2.95.76.48,1.51.95,2.29,1.44.4-.9.8-1.75,1.02-2.66-.78-.57-1.53-1.12-2.37-1.73Zm-7.64,2.19c.85.52,1.7,1.04,2.58,1.58.38-.85.61-1.7.85-2.57-.84-.45-1.63-.88-2.42-1.29-.31-.16-.43-.11-.51.23-.17.67-.32,1.34-.5,2.06Zm1.52,4.96c.36.2.7.49,1.16.43.81-.11,1.63-.23,2.45-.35.13-.34.24-.66.38-1.02-.92-.69-1.82-1.37-2.84-1.96-.39,1-.76,1.94-1.14,2.91Zm21.35-2.25c-.18-.72-.7-1.25-1.13-1.81-.44-.58-.74-1.27-1.32-1.86-.1.26-.19.42-.24.6-.06.23-.06.48-.14.7-.25.67-.53,1.33-.8,2,.38.31.76.62,1.15.95.8-.19,1.62-.37,2.47-.57Zm-9.03-7.48c-.27.85-.52,1.61-.76,2.38-.03.09.04.25.11.32.59.57,1.28,1.02,2.03,1.53.33-.9.64-1.75.93-2.61.03-.09-.05-.29-.14-.34-.7-.43-1.41-.83-2.17-1.27Zm2.44,1.12c.19-.81.39-1.58.54-2.36.1-.49-.05-.73-.5-.93-.51-.22-1.01-.43-1.53-.64-.09-.03-.19-.02-.24-.02-.21.73-.41,1.43-.61,2.12-.1.37-.08.45.29.66.65.38,1.32.75,2.05,1.16Zm-6.69-6.9c-.15.75-.28,1.39-.42,2.03-.07.29.02.5.26.66.47.31.94.64,1.41.96.26.18.53.34.84.54.23-.85.43-1.63.64-2.41-.91-.59-1.77-1.15-2.74-1.78Zm-10.25,2.86c.07-.19.14-.33.18-.47.23-.79.46-1.58.7-2.42-.69-.38-1.34-.74-2.04-1.13-.39.98-.76,1.91-1.13,2.83.78.41,1.51.79,2.29,1.2Zm-7.87.55c-.78-.31-1.49-.59-2.21-.87-.21-.08-.34,0-.47.19-.47.65-.76,1.38-1.05,2.11.78.31,1.56.62,2.38.95.38-.78.98-1.45,1.35-2.38Zm14.36,11.03c.11.12.17.21.25.28.17.15.33.3.51.44.23.18,1.09.22,1.32.06.04-.03.08-.07.1-.11.31-.69.61-1.38.92-2.09-.79-.49-1.5-.99-2.33-1.43-.27,1-.52,1.92-.77,2.86Zm2.55-9.76c.16-.71.29-1.34.43-1.96.04-.19-.09-.28-.21-.38-.54-.45-1.08-.9-1.63-1.35-.14-.12-.3-.22-.5-.35-.3.69-.55,1.34-.7,2.03-.06.25,0,.4.2.52.78.48,1.55.96,2.41,1.48Zm-7.95-4.54c-.27.97-.53,1.9-.79,2.83.72.42,1.38.81,2.05,1.21.19-.58.38-1.11.53-1.66.09-.31.12-.64.16-.97.03-.18-.02-.32-.21-.42-.56-.3-1.11-.63-1.74-.99Zm11.23,4.33c-.88-.59-1.71-1.15-2.64-1.77-.12.67-.19,1.25-.33,1.81-.09.34.06.51.3.68.58.43,1.15.87,1.72,1.32.13.1.23.22.42.4.19-.88.37-1.67.54-2.44Zm2.21,8.13c.36-.66.7-1.27,1.03-1.87.26-.47.25-.49-.16-.81-.53-.41-1.07-.81-1.61-1.22-.05-.04-.12-.03-.2-.05-.16.5-.33.97-.47,1.45-.1.35-.15.71-.24,1.06-.05.18.01.3.15.4.48.33.96.67,1.5,1.05Zm-.88-13.17c-.54-.26-1.04-.48-1.52-.75-.49-.27-.95-.59-1.45-.9-.13.68-.25,1.3-.37,1.94.91.61,1.81,1.2,2.77,1.84.2-.76.38-1.43.57-2.13Zm-3.6.39c-.38-.29-.74-.56-1.1-.83-.36-.27-.71-.56-1.09-.86-.21.66-.39,1.23-.57,1.8-.08.25-.08.46.15.65.56.45,1.11.93,1.66,1.39.13.1.27.18.46.31.17-.85.32-1.62.49-2.46Zm1.68,14.4c.23-.67.46-1.3.65-1.94.24-.77.23-.78-.42-1.25-.34-.25-.7-.48-1.05-.72-.33.83-.63,1.6-.95,2.36-.08.18-.03.3.11.4.53.38,1.07.74,1.66,1.16Zm-10.65-6.25c-.69-.36-1.34-.7-2.03-1.07-.3.79-.58,1.51-.87,2.25.78.42,1.5.81,2.26,1.21.22-.81.42-1.59.64-2.4Zm-14.41-7.52c-.01.5.16.75.61.87.61.16,1.2.42,1.81.63.16.05.32.09.5.13.38-.82.75-1.6,1.16-2.48-.67.11-1.21.19-1.74.29-.61.11-1.18.38-1.82.34-.17-.01-.36.15-.51.22Zm25.91,10.74c.23-.73.46-1.4.66-2.07.22-.74.3-.64-.37-1.13-.18-.13-.35-.28-.53-.41-.12-.08-.25-.14-.36-.19-.29.72-.57,1.38-.84,2.05-.21.51-.2.54.26.88.07.05.12.12.19.17.32.23.65.47.98.7Zm.68-9.27c-.18.62-.36,1.17-.51,1.73-.19.69-.18.69.45,1.07.12.07.22.16.34.23.25.14.51.27.81.43.21-.81.4-1.56.59-2.31.06-.24.01-.39-.23-.5-.47-.2-.94-.42-1.46-.66Zm-10.16-.92c.04-.05.07-.08.07-.11.22-.85.44-1.7.65-2.55.03-.12,0-.26,0-.44-.6.05-1.13.09-1.65.16-.13.02-.32.13-.36.24-.21.52-.38,1.06-.58,1.61.66.38,1.26.73,1.87,1.08Zm15.38,7.12c-.48-.27-.89-.5-1.3-.73-.08.09-.12.12-.14.16-.3.79-.6,1.58-.88,2.37-.04.1.01.3.09.36.38.31.69.73,1.21.91.41-1.01.75-2.01,1.02-3.08Zm-11.47-7.95c.2-.74.4-1.43.56-2.13.08-.36-.09-.54-.45-.5-.89.09-1.78.19-2.67.29-.09.01-.17.06-.3.11.9.82,1.76,1.6,2.85,2.23Zm9.44,13.91c.33-.93.63-1.78.93-2.62-.47-.36-.9-.69-1.37-1.05-.44.82-.84,1.58-1.23,2.32.56.46,1.08.87,1.67,1.35Zm1.13-2.53c-.31.88-.59,1.64-.84,2.4-.1.31-.02.42.31.39.57-.05,1.13-.11,1.69-.2.14-.02.31-.17.39-.3.17-.31.3-.65.45-1-.66-.43-1.29-.83-2-1.29Zm-5.02-6.88c-.23.75-.36,1.49-.46,2.23-.01.11.07.28.17.35.39.3.81.58,1.28.92.26-.82.5-1.59.72-2.36.02-.08-.06-.25-.14-.29-.51-.29-1.03-.55-1.58-.85Zm.26,7.01c-.06.17-.1.26-.13.36-.2.61-.4,1.22-.6,1.82-.2.59-.19.55.32.91.38.27,1.08.04,1.27-.39.18-.41.37-.82.55-1.23.05-.12.1-.25.15-.39-.52-.36-1.02-.71-1.57-1.08Zm.52-10.03c.57.27,1.1.52,1.68.8.11-.63.21-1.23.31-1.82.03-.2-.04-.38-.2-.5-.36-.27-.73-.5-1.23-.58-.18.69-.36,1.36-.56,2.1Zm-14.67,14.89c.87-.12,1.61-.23,2.36-.33.46-.06.56-.16.68-.72-.61-.31-1.24-.62-1.86-.93-.2-.1-.35-.09-.45.15-.23.59-.46,1.17-.72,1.83Zm-11.74-15.01c.44,1.09.84,2.09,1.25,3.12.4-.77.78-1.49,1.18-2.25-.04-.05-.09-.17-.17-.19-.72-.25-1.44-.54-2.27-.68Zm4.52,11.26s.1,0,.14,0c.38-.57.75-1.13,1.17-1.77-.9-.47-1.73-.91-2.57-1.34-.03.03-.06.05-.09.08.45,1.01.89,2.02,1.34,3.02Zm.92,1.66c.38.74.71,1.41,1.07,2.07.18.33.65.34.85.03.18-.28.33-.57.48-.86.14-.28.11-.39-.2-.52-.47-.21-.95-.41-1.44-.59-.22-.08-.46-.09-.76-.14Zm18.11-16.94h-2.39c-.2.22-.08.37.07.5.35.3.71.6,1.07.89.26.21.54.41.88.67.13-.73.24-1.37.36-2.06Zm-21.07,10.4c.45-.68.83-1.27,1.26-1.91-.75-.38-1.43-.79-2.33-.8.36.91.7,1.76,1.07,2.71Zm24.24-8.83c.05-.22.09-.4.14-.58.14-.59-.24-1.1-.85-1.1-.6,0-1.21,0-1.81.01-.08,0-.15.06-.24.09.61.61,1.99,1.41,2.77,1.58Zm-4.69,16.07c.93-.11,1.75-.21,2.57-.3.14-.21.08-.36-.1-.49-.36-.27-.71-.55-1.06-.82-.17-.13-.35-.24-.59-.4-.28.69-.54,1.32-.82,2.01Zm9.59-7.25c.05-.85.33-1.57-.21-2.24-.09-.12-.13-.28-.2-.42-.09-.16-.18-.31-.3-.51-.41.71-.45,1.46-.6,2.17-.02.08.05.22.12.26.35.23.72.45,1.2.74Zm-2.19,6.5c-.59-.58-1.04-1.12-1.7-1.41-.4.56-.68,1.15-.77,1.68.24,0,.48.02.72,0,.54-.07,1.08-.16,1.75-.27Zm-14.8-16.23c-.51.07-.91.13-1.32.18-.4.06-.8.12-1.32.2.76.43,1.39.78,2.08,1.17.19-.52.35-.98.56-1.56Zm15.24,5.09s.07-.07.1-.11c-.32-.84-.79-1.59-1.3-2.31-.03,0-.07.02-.1.03-.1.55-.19,1.1-.3,1.71.54.23,1.07.46,1.6.68Zm-20.05,13.43s.04-.08.06-.12c-.54-.35-1.02-.81-1.66-1.08-.23.45-.44.87-.7,1.39.84-.07,1.57-.12,2.3-.18Zm23.66-7.93c-.16-.57-1.08-1.88-1.51-2.15-.06.46-.11.9-.16,1.27.58.31,1.1.58,1.66.87Zm-26.11-9.86c-.73.19-1.41.13-2.07.58.55.24,1.02.44,1.51.65.19-.42.35-.77.56-1.23Zm25.05,15.14c.45-.09.88.07,1.29-.24-.29-.29-.49-.62-.92-.69-.12.31-.23.59-.37.93Zm-13.24,1.48c.39-.04.67-.07,1.01-.1-.19-.34-.42-.51-.73-.7-.09.26-.18.49-.29.8Zm7.81-16.33c.25.12.44.2.72.33-.16-.42-.22-.75-.57-1.02-.05.25-.1.45-.15.69Zm-11.9,16.51c-.08.13-.14.24-.27.44.28-.08.44-.13.67-.2-.17-.1-.27-.16-.4-.24Z"/>
  <path class="cls-1" d="m53.72,64.63c1.21.52,2.46.84,3.63,1.52-.49,1.14-1.1,2.17-1.74,3.24-.78-.44-1.51-.89-2.28-1.26-.59-.28-.84-.75-.98-1.4.43-.66.89-1.37,1.36-2.09Z"/>
  <path class="cls-1" d="m58.73,63.54c-1.19-.56-2.29-1.07-3.43-1.61.48-1.01.93-1.97,1.41-2.99,1.15.43,2.29.86,3.5,1.31-.5,1.11-.89,2.2-1.48,3.29Z"/>
  <path class="cls-4" d="m57.58,66.3c1.06.5,2.05.96,3.1,1.45-.48,1.14-.89,2.27-1.5,3.3-1.11-.52-2.19-1.04-3.3-1.56.57-1.06,1.12-2.11,1.7-3.19Z"/>
  <path class="cls-1" d="m63.33,69.15c-.22.66-.4,1.21-.6,1.77-.19.55-.39,1.1-.61,1.72-.91-.45-1.83-.81-2.71-1.37.5-1.12.99-2.23,1.5-3.39.83.44,1.6.84,2.41,1.27Z"/>
  <path class="cls-1" d="m55.78,69.69c1.15.52,2.26.93,3.29,1.64-.43.79-.84,1.54-1.24,2.28-.93-.34-1.82-.66-2.7-.98-.09-.03-.17-.11-.22-.2-.14-.23-.27-.48-.41-.74.43-.66.84-1.31,1.28-2Z"/>
  <path class="cls-4" d="m67.03,67.87c-.66-.36-1.23-.67-1.81-.98-.18-.1-.36-.19-.55-.28-.4-.2-.46-.31-.31-.74.21-.6.42-1.21.63-1.81.1-.29.2-.59.32-.94.18.11.34.19.49.29.59.38,1.19.76,1.77,1.17.35.24.46.19.27.74-.21.59-.35,1.19-.54,1.79-.07.24-.18.48-.29.77Z"/>
  <path class="cls-4" d="m61.75,65.06c-.98-.52-1.86-.99-2.74-1.47.47-1.06.92-2.08,1.39-3.14.18.06.33.09.46.15.57.28,1.14.56,1.7.87.09.05.17.21.18.33,0,.15-.04.31-.09.45-.29.92-.58,1.83-.9,2.81Z"/>
  <path class="cls-4" d="m57.44,65.89c-1.22-.49-2.4-.95-3.64-1.45.48-.8.93-1.56,1.38-2.32,1.14.53,2.27,1.06,3.4,1.58-.13.55-.75,1.74-1.14,2.19Z"/>
  <path class="cls-1" d="m70.92,66.77c-.31.97-.6,1.91-.91,2.87-.92-.57-1.79-1.11-2.71-1.69.29-.95.58-1.91.89-2.94,1,.43,1.85,1.05,2.73,1.75Z"/>
  <path class="cls-1" d="m67.99,64.59c-.84-.56-1.68-1.11-2.54-1.69.07-1,.63-1.89.64-2.92.15,0,.27-.02.34.03.76.47,1.52.95,2.28,1.42.15.1.21.23.16.4-.25.88-.51,1.76-.77,2.63,0,.03-.05.05-.12.12Z"/>
  <path class="cls-4" d="m62.37,72.67c.36-1.05.72-2.14,1.11-3.29.87.43,1.72.86,2.47,1.51-.33.94-.6,1.88-1.1,2.73-.11.19-.24.22-.43.12-.65-.35-1.3-.69-2.06-1.08Z"/>
  <path class="cls-4" d="m69.9,69.9c-.28,1.01-.54,1.97-.82,2.96-.96-.69-1.86-1.34-2.79-2.02.28-.86.57-1.72.87-2.64.98.52,1.86,1.08,2.74,1.69Z"/>
  <path class="cls-4" d="m69.15,61.82c.89.53,1.76,1.04,2.69,1.59-.28.98-.52,2-.9,3.07-.29-.23-.51-.43-.76-.59-.47-.29-.94-.57-1.43-.83-.42-.23-.46-.31-.33-.78.2-.71.4-1.43.6-2.14.03-.1.07-.19.12-.32Z"/>
  <path class="cls-1" d="m73.58,68.36c-.85-.61-1.62-1.16-2.43-1.73.3-.98.58-1.92.89-2.93.17.09.3.13.4.21.59.47,1.17.97,1.78,1.42.32.23.35.48.23.8-.27.72-.56,1.44-.86,2.23Z"/>
  <path class="cls-4" d="m56.77,58.73c.19-.38.36-.69.52-1.02.12-.26.32-.39.6-.42.96-.09,1.92-.19,2.88-.26.2-.01.41.1.69.17-.39.98-.75,1.88-1.12,2.83-1.19-.44-2.34-.86-3.57-1.31Z"/>
  <path class="cls-4" d="m62.07,72.88c-.31.79-.61,1.53-.91,2.29-.25,0-.47-.01-.69,0-.24.02-.42-.08-.61-.21-.57-.38-1.16-.74-1.78-1.12.27-.86.77-1.59,1.19-2.34.95.47,1.85.92,2.8,1.38Z"/>
  <path class="cls-4" d="m68.92,61.33c-.91-.58-1.79-1.14-2.72-1.73.06-.95.41-1.84.67-2.8.1.04.19.05.25.1.8.62,1.6,1.24,2.41,1.86.16.12.23.24.16.44-.25.69-.5,1.39-.77,2.13Z"/>
  <path class="cls-4" d="m52.59,60.73c.42-.85.8-1.64,1.2-2.42.15-.29.45-.38.75-.26.55.23,1.1.48,1.64.72.18.08.23.21.16.38-.39.87-.74,1.77-1.26,2.6-.82-.34-1.61-.66-2.49-1.02Z"/>
  <path class="cls-4" d="m83.76,67.77c-.45,1.16-.56,2.35-1.26,3.38-.66-.43-1.31-.84-2-1.28.34-1.03.67-2.05,1.02-3.1.84.17,1.43.79,2.25,1Z"/>
  <path class="cls-1" d="m61.66,65.25c-.32.8-.6,1.52-.91,2.29-1.02-.47-2.02-.94-3.08-1.43.42-.79.81-1.53,1.24-2.33.92.49,1.81.96,2.75,1.47Z"/>
  <path class="cls-1" d="m64.01,66.3c-.73-.38-1.39-.73-2.04-1.07.38-1.18.73-2.31,1.11-3.5.69.4,1.35.78,2.05,1.18-.38,1.14-.74,2.22-1.12,3.39Z"/>
  <path class="cls-4" d="m71.13,66.87c.84.62,1.59,1.16,2.37,1.73-.22.91-.62,1.75-1.02,2.66-.78-.49-1.52-.96-2.29-1.44.31-.98.6-1.9.93-2.95Z"/>
  <path class="cls-1" d="m63.5,69.06c.17-.72.33-1.39.5-2.06.09-.33.21-.39.51-.23.79.42,1.58.84,2.42,1.29-.24.87-.48,1.72-.85,2.57-.89-.54-1.73-1.06-2.58-1.58Z"/>
  <path class="cls-1" d="m65.01,74.01c.38-.97.75-1.91,1.14-2.91,1.02.59,1.92,1.27,2.84,1.96-.13.36-.25.68-.38,1.02-.82.12-1.63.25-2.45.35-.46.06-.8-.22-1.16-.43Z"/>
  <path class="cls-1" d="m86.37,71.77c-.86.2-1.67.39-2.47.57-.39-.32-.77-.63-1.15-.95.27-.67.55-1.33.8-2,.08-.22.08-.47.14-.7.05-.17.13-.34.24-.6.58.6.87,1.28,1.32,1.86.43.56.94,1.09,1.13,1.81Z"/>
  <path class="cls-4" d="m77.34,64.29c.76.44,1.47.85,2.17,1.27.09.05.17.25.14.34-.29.86-.6,1.71-.93,2.61-.75-.5-1.43-.95-2.03-1.53-.07-.07-.14-.23-.11-.32.23-.77.48-1.54.76-2.38Z"/>
  <path class="cls-1" d="m79.78,65.4c-.73-.41-1.39-.78-2.05-1.16-.37-.21-.39-.3-.29-.66.2-.69.4-1.39.61-2.12.05,0,.16-.01.24.02.51.21,1.02.42,1.53.64.45.19.6.43.5.93-.16.78-.35,1.54-.54,2.36Z"/>
  <path class="cls-1" d="m73.09,58.51c.97.63,1.83,1.19,2.74,1.78-.21.78-.41,1.56-.64,2.41-.31-.2-.58-.36-.84-.54-.47-.32-.94-.64-1.41-.96-.25-.16-.33-.37-.26-.66.14-.64.26-1.27.42-2.03Z"/>
  <path class="cls-1" d="m62.84,61.36c-.78-.41-1.51-.79-2.29-1.2.37-.92.74-1.85,1.13-2.83.7.39,1.35.75,2.04,1.13-.24.84-.47,1.63-.7,2.42-.04.15-.11.29-.18.47Z"/>
  <path class="cls-1" d="m54.96,61.91c-.37.93-.97,1.6-1.35,2.38-.83-.33-1.6-.64-2.38-.95.3-.72.58-1.46,1.05-2.11.13-.18.26-.27.47-.19.72.28,1.43.56,2.21.87Z"/>
  <path class="cls-1" d="m69.32,72.95c.25-.94.5-1.87.77-2.86.83.44,1.54.94,2.33,1.43-.32.72-.62,1.41-.92,2.09-.02.04-.06.09-.1.11-.23.16-1.1.13-1.32-.06-.17-.14-.34-.29-.51-.44-.08-.07-.14-.15-.25-.28Z"/>
  <path class="cls-1" d="m71.87,63.19c-.86-.53-1.64-1.01-2.41-1.48-.2-.12-.25-.28-.2-.52.15-.69.4-1.34.7-2.03.19.14.35.24.5.35.55.45,1.08.9,1.63,1.35.12.1.26.18.21.38-.14.62-.27,1.24-.43,1.96Z"/>
  <path class="cls-4" d="m63.92,58.64c.63.36,1.18.69,1.74.99.19.1.24.24.21.42-.05.32-.08.66-.16.97-.15.55-.35,1.08-.53,1.66-.67-.39-1.33-.78-2.05-1.21.26-.93.52-1.86.79-2.83Z"/>
  <path class="cls-4" d="m75.15,62.97c-.17.78-.34,1.56-.54,2.44-.19-.18-.29-.31-.42-.4-.57-.44-1.14-.89-1.72-1.32-.24-.18-.39-.34-.3-.68.14-.56.21-1.14.33-1.81.92.62,1.76,1.18,2.64,1.77Z"/>
  <path class="cls-1" d="m77.36,71.11c-.54-.38-1.02-.71-1.5-1.05-.14-.1-.2-.22-.15-.4.09-.35.14-.71.24-1.06.14-.48.31-.95.47-1.45.08.02.15.02.2.05.54.4,1.07.81,1.61,1.22.41.32.42.34.16.81-.33.6-.66,1.21-1.03,1.87Z"/>
  <path class="cls-4" d="m76.48,57.94c-.19.7-.37,1.37-.57,2.13-.96-.64-1.85-1.23-2.77-1.84.12-.64.24-1.26.37-1.94.5.31.96.63,1.45.9.48.27.98.49,1.52.75Z"/>
  <path class="cls-4" d="m72.88,58.33c-.17.83-.32,1.61-.49,2.46-.18-.12-.33-.2-.46-.31-.56-.46-1.1-.93-1.66-1.39-.23-.19-.23-.4-.15-.65.19-.57.37-1.15.57-1.8.38.3.74.58,1.09.86.35.27.71.54,1.1.83Z"/>
  <path class="cls-1" d="m74.56,72.74c-.59-.41-1.13-.78-1.66-1.16-.14-.1-.18-.22-.11-.4.32-.76.62-1.53.95-2.36.36.25.71.47,1.05.72.65.47.65.48.42,1.25-.2.64-.43,1.27-.65,1.94Z"/>
  <path class="cls-4" d="m63.9,66.49c-.22.81-.42,1.59-.64,2.4-.76-.41-1.48-.79-2.26-1.21.29-.74.56-1.47.87-2.25.7.37,1.35.71,2.03,1.07Z"/>
  <path class="cls-1" d="m49.49,58.97c.15-.07.34-.23.51-.22.64.04,1.22-.23,1.82-.34.54-.1,1.08-.18,1.74-.29-.41.88-.78,1.66-1.16,2.48-.18-.05-.35-.08-.5-.13-.6-.21-1.19-.47-1.81-.63-.46-.12-.63-.36-.61-.87Z"/>
  <path class="cls-4" d="m75.4,69.7c-.33-.24-.66-.47-.98-.7-.07-.05-.12-.12-.19-.17-.46-.33-.47-.37-.26-.88.28-.66.55-1.33.84-2.05.1.05.24.11.36.19.18.13.35.27.53.41.67.49.59.39.37,1.13-.2.67-.42,1.33-.66,2.07Z"/>
  <path class="cls-4" d="m76.08,60.43c.53.24.99.46,1.46.66.24.1.29.26.23.5-.2.75-.38,1.5-.59,2.31-.3-.16-.56-.29-.81-.43-.12-.07-.23-.16-.34-.23-.63-.38-.64-.38-.45-1.07.15-.56.33-1.12.51-1.73Z"/>
  <path class="cls-1" d="m65.91,59.51c-.61-.35-1.21-.7-1.87-1.08.19-.55.36-1.09.58-1.61.05-.11.23-.23.36-.24.53-.07,1.06-.1,1.65-.16,0,.18.03.32,0,.44-.21.85-.43,1.7-.65,2.55,0,.03-.04.06-.07.11Z"/>
  <path class="cls-1" d="m81.29,66.63c-.28,1.07-.61,2.08-1.02,3.08-.52-.18-.83-.6-1.21-.91-.08-.07-.13-.26-.09-.36.28-.8.58-1.58.88-2.37.02-.04.07-.08.14-.16.4.23.82.46,1.3.73Z"/>
  <path class="cls-1" d="m69.82,58.68c-1.09-.62-1.95-1.41-2.85-2.23.13-.05.21-.1.3-.11.89-.1,1.78-.2,2.67-.29.36-.04.53.14.45.5-.16.7-.36,1.39-.56,2.13Z"/>
  <path class="cls-4" d="m79.26,72.59c-.59-.48-1.11-.9-1.67-1.35.39-.74.79-1.5,1.23-2.32.47.36.9.69,1.37,1.05-.3.84-.6,1.69-.93,2.62Z"/>
  <path class="cls-1" d="m80.39,70.07c.71.46,1.34.87,2,1.29-.15.35-.28.69-.45,1-.08.13-.24.28-.39.3-.56.09-1.13.15-1.69.2-.33.03-.41-.08-.31-.39.26-.76.53-1.52.84-2.4Z"/>
  <path class="cls-1" d="m75.37,63.19c.55.29,1.07.56,1.58.85.08.04.16.21.14.29-.22.77-.47,1.54-.72,2.36-.48-.34-.89-.62-1.28-.92-.09-.07-.18-.24-.17-.35.09-.75.23-1.49.46-2.23Z"/>
  <path class="cls-4" d="m75.63,70.2c.54.37,1.04.72,1.57,1.08-.05.14-.1.27-.15.39-.18.41-.37.82-.55,1.23-.19.43-.88.66-1.27.39-.52-.36-.52-.32-.32-.91.2-.61.4-1.22.6-1.82.03-.09.07-.19.13-.36Z"/>
  <path class="cls-1" d="m76.15,60.17c.2-.74.38-1.41.56-2.1.49.08.87.32,1.23.58.16.12.24.3.2.5-.1.59-.2,1.18-.31,1.82-.58-.28-1.11-.53-1.68-.8Z"/>
  <path class="cls-1" d="m61.48,75.06c.26-.66.5-1.24.72-1.83.09-.24.25-.25.45-.15.62.31,1.25.62,1.86.93-.11.55-.22.66-.68.72-.74.1-1.49.21-2.36.33Z"/>
  <path class="cls-4" d="m49.74,60.05c.83.14,1.54.43,2.27.68.08.03.13.15.17.19-.4.76-.78,1.48-1.18,2.25-.41-1.03-.81-2.03-1.25-3.12Z"/>
  <path class="cls-4" d="m54.27,71.31c-.45-1.01-.89-2.02-1.34-3.02.03-.03.06-.05.09-.08.83.44,1.67.87,2.57,1.34-.42.63-.8,1.2-1.17,1.77-.05,0-.1,0-.14,0Z"/>
  <path class="cls-4" d="m55.19,72.97c.3.05.54.06.76.14.49.17.96.38,1.44.59.3.13.34.24.2.52-.15.29-.3.58-.48.86-.2.32-.67.31-.85-.03-.36-.66-.69-1.34-1.07-2.07Z"/>
  <path class="cls-1" d="m73.3,56.03c-.12.69-.23,1.32-.36,2.06-.35-.26-.62-.45-.88-.67-.36-.29-.72-.59-1.07-.89-.15-.13-.27-.28-.07-.5h2.39Z"/>
  <path class="cls-4" d="m52.22,66.43c-.38-.95-.72-1.81-1.07-2.71.9.01,1.59.42,2.33.8-.43.65-.81,1.23-1.26,1.91Z"/>
  <path class="cls-1" d="m76.47,57.6c-.78-.18-2.15-.97-2.77-1.58.09-.03.16-.09.24-.09.6-.01,1.21-.02,1.81-.01.61,0,.99.51.85,1.1-.04.18-.08.36-.14.58Z"/>
  <path class="cls-4" d="m71.78,73.67c.28-.69.54-1.32.82-2.01.23.16.42.27.59.4.36.27.71.55,1.06.82.18.13.23.29.1.49-.82.1-1.64.19-2.57.3Z"/>
  <path class="cls-4" d="m81.37,66.42c-.48-.29-.84-.51-1.2-.74-.07-.05-.14-.18-.12-.26.15-.71.19-1.45.6-2.17.12.2.22.35.3.51.07.14.11.3.2.42.54.67.26,1.39.21,2.24Z"/>
  <path class="cls-1" d="m79.18,72.92c-.67.1-1.21.2-1.75.27-.23.03-.47,0-.72,0,.09-.54.37-1.13.77-1.68.66.3,1.11.83,1.7,1.41Z"/>
  <path class="cls-4" d="m64.38,56.7c-.2.57-.37,1.04-.56,1.56-.69-.39-1.32-.75-2.08-1.17.52-.08.92-.14,1.32-.2.4-.06.81-.11,1.32-.18Z"/>
  <path class="cls-4" d="m79.61,61.79c-.53-.22-1.06-.45-1.6-.68.11-.61.2-1.16.3-1.71.03,0,.07-.02.1-.03.51.72.98,1.47,1.3,2.31-.03.04-.07.07-.1.11Z"/>
  <path class="cls-1" d="m59.57,75.22c-.73.06-1.46.12-2.3.18.26-.52.47-.94.7-1.39.65.28,1.12.73,1.66,1.08-.02.04-.04.08-.06.12Z"/>
  <path class="cls-1" d="m83.23,67.3c-.57-.3-1.08-.57-1.66-.87.05-.38.1-.81.16-1.27.43.27,1.35,1.58,1.51,2.15Z"/>
  <path class="cls-1" d="m57.12,57.44c-.21.46-.37.81-.56,1.23-.49-.21-.96-.42-1.51-.65.66-.45,1.34-.39,2.07-.58Z"/>
  <path class="cls-4" d="m82.17,72.58c.14-.34.25-.62.37-.93.43.08.63.41.92.69-.4.31-.84.15-1.29.24Z"/>
  <path class="cls-4" d="m68.93,74.06c.11-.31.19-.54.29-.8.31.19.54.37.73.7-.35.03-.63.06-1.01.1Z"/>
  <path class="cls-4" d="m76.73,57.73c.05-.24.1-.44.15-.69.35.27.41.6.57,1.02-.28-.13-.47-.22-.72-.33Z"/>
  <path class="cls-4" d="m64.84,74.24c.14.08.23.14.4.24-.23.07-.39.11-.67.2.12-.2.19-.31.27-.44Z"/>
</svg>