<?xml version="1.0" encoding="UTF-8"?>
<svg xmlns="http://www.w3.org/2000/svg" viewBox="0 0 136.06 136.06">
  <defs>
    <style>
      .cls-1 {
        fill: #fff;
      }

      .cls-2 {
        fill: #0c3454;
      }

      .cls-3 {
        fill: #e0e1e3;
      }
    </style>
  </defs>
  <g id="Layer_3" data-name="Layer 3">
    <rect class="cls-3" x="0" width="136.06" height="136.06"/>
  </g>
  <g id="B_W" data-name="B&amp;amp;W">
    <g>
      <path class="cls-1" d="m67.16,68.2c.99.52,1.86,1.08,2.74,1.69-.28,1.02-.54,1.97-.81,2.97-.96-.7-1.86-1.35-2.8-2.02.29-.86.57-1.72.87-2.64Z"/>
      <path class="cls-1" d="m71.77,73.66c.29-.69.54-1.32.83-2.01.23.16.41.27.58.4.36.27.71.55,1.06.82.18.13.24.28.1.49-.82.1-1.64.19-2.57.3Z"/>
      <path class="cls-1" d="m75.22,73.29c-.52-.36-.52-.32-.32-.91.2-.61.4-1.21.6-1.82.03-.09.06-.19.12-.36.55.37,1.05.72,1.57,1.08-.05.15-.1.27-.15.4-.18.41-.37.81-.55,1.23-.19.42-.89.65-1.27.38Z"/>
      <path class="cls-1" d="m77.47,71.51c.66.29,1.11.83,1.7,1.41-.67.11-1.21.2-1.75.27-.23.03-.47,0-.72,0,.1-.54.37-1.12.77-1.68Z"/>
      <path class="cls-1" d="m57.58,74.21c-.15.29-.3.58-.48.85-.2.32-.67.31-.85-.02-.36-.66-.69-1.34-1.06-2.08.3.05.54.06.76.14.49.17.96.38,1.44.59.3.13.33.24.19.52Z"/>
      <path class="cls-1" d="m57.27,75.4c.26-.51.47-.94.7-1.39.64.28,1.12.73,1.66,1.09l-.06.12c-.73.06-1.47.11-2.3.18Z"/>
      <path class="cls-1" d="m61.48,75.06c.26-.66.5-1.25.72-1.83.1-.25.25-.26.45-.16.63.32,1.25.63,1.87.94-.12.55-.23.65-.68.71-.75.1-1.49.21-2.36.34Z"/>
      <path class="cls-1" d="m59.27,71.5c.96.47,1.86.91,2.8,1.38-.31.79-.6,1.53-.9,2.29-.25,0-.47-.01-.7,0s-.41-.08-.61-.21c-.56-.39-1.15-.74-1.77-1.12.27-.87.77-1.6,1.18-2.34Z"/>
      <path class="cls-1" d="m66.16,71.11c1.01.58,1.92,1.26,2.84,1.96-.14.36-.25.68-.38,1.02-.82.12-1.63.24-2.45.35-.46.06-.8-.23-1.16-.43.38-.97.75-1.91,1.15-2.9Z"/>
      <path class="cls-1" d="m64.83,74.24c.14.08.24.14.41.24-.23.07-.4.12-.67.2.12-.2.19-.31.26-.44Z"/>
      <path class="cls-1" d="m68.92,74.06c.12-.31.2-.54.29-.8.31.19.54.36.73.7-.35.03-.63.06-1.02.1Z"/>
      <path class="cls-1" d="m73.5,68.6c-.22.91-.62,1.76-1.02,2.66-.77-.49-1.52-.96-2.28-1.44.3-.98.6-1.9.93-2.95.84.62,1.59,1.16,2.37,1.73Z"/>
      <path class="cls-1" d="m72.42,71.51c-.32.72-.62,1.41-.93,2.1-.02.04-.06.08-.1.11-.23.16-1.09.13-1.32-.06-.17-.14-.34-.29-.51-.44-.07-.07-.13-.15-.24-.28.25-.94.5-1.86.76-2.86.84.44,1.55.94,2.34,1.43Z"/>
      <path class="cls-1" d="m79.85,66.07s.07-.08.14-.16c.41.22.82.45,1.3.72-.27,1.07-.61,2.08-1.02,3.08-.52-.18-.83-.59-1.21-.91-.08-.06-.12-.26-.09-.36.28-.8.58-1.58.88-2.37Z"/>
      <path class="cls-1" d="m74.2,65.01c-.57-.44-1.14-.89-1.72-1.32-.24-.18-.39-.34-.3-.68.14-.56.21-1.14.33-1.81.93.62,1.76,1.18,2.64,1.77-.17.78-.34,1.56-.54,2.44-.18-.18-.29-.3-.41-.4Z"/>
      <path class="cls-1" d="m63.06,56.88c.4-.06.8-.12,1.31-.19-.2.58-.37,1.04-.55,1.56-.69-.39-1.33-.74-2.08-1.17.51-.08.91-.14,1.32-.2Z"/>
      <path class="cls-1" d="m69.82,58.68c-1.09-.63-1.95-1.41-2.85-2.23.13-.04.21-.09.3-.1.89-.11,1.77-.21,2.66-.3.36-.03.53.14.45.5-.16.7-.36,1.39-.56,2.13Z"/>
      <path class="cls-1" d="m68.92,61.33c-.91-.58-1.8-1.14-2.72-1.73.06-.95.41-1.84.66-2.81.11.04.19.06.25.1.8.62,1.6,1.25,2.41,1.87.16.12.23.24.16.44-.25.69-.5,1.38-.76,2.13Z"/>
      <path class="cls-1" d="m66.63,56.85c-.21.85-.43,1.7-.65,2.55,0,.03-.03.05-.07.11-.61-.35-1.21-.71-1.87-1.09.19-.55.36-1.08.58-1.6.04-.12.23-.23.36-.25.53-.07,1.06-.1,1.65-.16,0,.18.03.32,0,.44Z"/>
      <path class="cls-1" d="m71.93,60.48c-.56-.46-1.11-.93-1.67-1.38-.23-.19-.23-.4-.15-.65.19-.58.37-1.15.58-1.81.38.31.73.59,1.09.86.35.27.71.54,1.09.83-.16.84-.32,1.61-.49,2.46-.18-.13-.33-.21-.45-.31Z"/>
      <path class="cls-1" d="m72.93,58.09c-.35-.26-.62-.46-.88-.67-.37-.29-.72-.59-1.07-.89-.16-.13-.27-.28-.07-.5h2.38c-.12.69-.23,1.32-.36,2.06Z"/>
      <path class="cls-1" d="m75.75,55.91c.61,0,.99.51.85,1.1-.04.18-.08.37-.13.59-.78-.18-2.16-.98-2.77-1.59.09-.03.16-.09.24-.09.61-.01,1.21-.02,1.81-.01Z"/>
      <path class="cls-1" d="m76.88,57.04c.35.27.41.6.57,1.02-.28-.13-.47-.21-.72-.33.05-.24.1-.44.15-.69Z"/>
      <path class="cls-1" d="m78.41,59.36c.52.73.98,1.48,1.3,2.31-.03.04-.06.08-.1.12-.53-.23-1.06-.45-1.6-.68.11-.61.2-1.17.3-1.72.04-.01.07-.02.1-.03Z"/>
      <path class="cls-1" d="m78.14,59.15c-.1.59-.2,1.19-.31,1.82-.58-.28-1.11-.53-1.68-.8.2-.74.38-1.41.56-2.1.49.08.87.32,1.23.58.16.13.23.3.2.5Z"/>
      <path class="cls-1" d="m74.96,57.19c.48.27.98.49,1.52.75-.19.7-.37,1.37-.57,2.13-.97-.63-1.86-1.23-2.77-1.83.12-.65.24-1.26.37-1.95.5.31.96.63,1.45.9Z"/>
      <path class="cls-1" d="m77.76,61.59c-.19.74-.38,1.49-.59,2.3-.3-.16-.56-.29-.81-.43-.12-.06-.23-.15-.34-.23-.63-.38-.64-.38-.45-1.07.15-.56.32-1.11.5-1.73.53.24.99.46,1.47.66.24.1.29.26.22.5Z"/>
      <path class="cls-1" d="m72.93,61.19c-.25-.16-.33-.36-.27-.66.15-.63.27-1.27.42-2.03.97.63,1.83,1.19,2.74,1.78-.21.78-.41,1.56-.64,2.41-.31-.19-.58-.36-.84-.54l-1.41-.96Z"/>
      <path class="cls-1" d="m76.94,64.04c.08.04.16.21.14.29-.22.77-.47,1.54-.72,2.36-.48-.34-.89-.62-1.29-.92-.09-.07-.18-.24-.16-.35.09-.75.23-1.49.45-2.23.56.29,1.08.56,1.58.85Z"/>
      <path class="cls-1" d="m81.72,65.14c.42.27,1.34,1.59,1.5,2.15-.56-.3-1.08-.57-1.66-.87.05-.38.1-.81.16-1.28Z"/>
      <path class="cls-1" d="m80.17,65.68c-.07-.05-.14-.19-.12-.27.15-.71.19-1.45.6-2.16.12.2.22.35.3.51.08.13.11.3.21.41.54.67.25,1.4.21,2.25-.48-.3-.85-.51-1.2-.74Z"/>
      <path class="cls-1" d="m79.82,62.12c.45.19.6.43.5.93-.15.77-.35,1.54-.54,2.35-.73-.41-1.4-.78-2.05-1.16-.37-.21-.39-.29-.29-.66.2-.7.4-1.39.61-2.12.05,0,.16-.02.24.02.51.21,1.02.42,1.53.64Z"/>
      <path class="cls-1" d="m81.51,66.76c.84.17,1.43.79,2.25,1.01-.45,1.15-.56,2.35-1.27,3.38-.66-.43-1.3-.84-2-1.29.34-1.02.67-2.04,1.02-3.1Z"/>
      <path class="cls-1" d="m85.24,69.96c.43.56.94,1.09,1.13,1.8-.86.2-1.68.39-2.48.58-.39-.32-.77-.64-1.15-.95.27-.67.55-1.33.8-2,.09-.22.09-.47.15-.7.04-.18.13-.34.23-.6.58.6.88,1.29,1.32,1.87Z"/>
      <path class="cls-1" d="m83.46,72.34c-.41.31-.84.15-1.29.24.13-.34.25-.62.37-.93.43.08.62.41.92.69Z"/>
      <path class="cls-1" d="m81.54,72.66c-.56.09-1.12.15-1.69.19-.33.03-.41-.08-.31-.39.26-.76.54-1.52.85-2.4.71.46,1.33.87,1.99,1.3-.15.35-.28.69-.45,1-.08.13-.24.27-.39.3Z"/>
      <path class="cls-1" d="m80.19,69.97c-.3.84-.6,1.7-.93,2.62-.59-.48-1.11-.9-1.67-1.35.39-.74.79-1.5,1.23-2.32.46.36.89.69,1.37,1.05Z"/>
      <path class="cls-1" d="m78.22,68.43c.42.31.42.34.16.8-.33.61-.66,1.21-1.02,1.88-.54-.38-1.02-.71-1.5-1.05-.15-.1-.2-.22-.16-.4.09-.35.14-.71.24-1.06.14-.48.31-.95.47-1.44.08.02.16.01.21.05.54.4,1.07.81,1.6,1.22Z"/>
      <path class="cls-1" d="m76.06,67.64c-.2.67-.43,1.33-.66,2.06-.34-.24-.66-.47-.99-.7-.07-.05-.12-.12-.19-.17-.46-.33-.47-.37-.26-.88.28-.66.55-1.33.84-2.04.11.05.24.11.36.19.18.13.35.27.53.41.67.49.59.39.37,1.13Z"/>
      <path class="cls-1" d="m74.45,66.12c-.28.72-.56,1.44-.87,2.24-.85-.61-1.62-1.16-2.43-1.74.3-.97.58-1.92.89-2.93.17.09.3.14.4.22.6.47,1.17.97,1.78,1.41.31.23.35.49.23.8Z"/>
      <path class="cls-1" d="m68.75,65.06c-.42-.23-.46-.32-.33-.78.2-.71.4-1.43.6-2.14.03-.1.07-.19.12-.32.89.53,1.76,1.04,2.69,1.59-.28.99-.52,2-.89,3.07-.29-.22-.51-.43-.76-.59-.47-.29-.95-.57-1.43-.83Z"/>
      <path class="cls-1" d="m66.43,60.01c.77.47,1.52.95,2.28,1.42.16.1.21.24.16.4-.25.88-.5,1.76-.76,2.64-.01.02-.05.04-.12.12-.84-.57-1.67-1.12-2.54-1.69.07-1,.63-1.89.64-2.92.15.01.27-.02.34.03Z"/>
      <path class="cls-1" d="m60.34,60.04c-1.2-.44-2.35-.86-3.57-1.31.19-.38.37-.69.52-1.02.12-.26.31-.39.6-.42.96-.09,1.92-.19,2.88-.26.2-.01.41.1.69.18-.39.97-.75,1.88-1.12,2.83Z"/>
      <path class="cls-1" d="m61.67,57.33c.7.39,1.36.75,2.05,1.13-.25.84-.47,1.63-.71,2.43-.04.14-.1.28-.17.47-.78-.41-1.51-.79-2.29-1.2.36-.92.73-1.84,1.12-2.83Z"/>
      <path class="cls-1" d="m63.12,61.47c.26-.93.53-1.86.8-2.83.63.36,1.18.69,1.74.99.19.1.24.24.21.42-.05.33-.08.66-.16.97-.16.55-.35,1.08-.54,1.66-.67-.39-1.33-.78-2.05-1.21Z"/>
      <path class="cls-1" d="m61.97,65.23c.37-1.18.73-2.3,1.11-3.5.69.4,1.35.78,2.05,1.18-.38,1.14-.74,2.23-1.12,3.39-.73-.38-1.39-.73-2.04-1.07Z"/>
      <path class="cls-1" d="m65,64.05c.1-.29.2-.59.32-.94.18.1.34.19.49.28.59.39,1.19.77,1.77,1.17.35.24.47.19.27.74-.2.59-.35,1.2-.53,1.79-.08.24-.18.48-.29.77-.66-.36-1.24-.67-1.81-.98-.18-.1-.36-.19-.55-.28-.4-.21-.45-.32-.31-.74.21-.61.42-1.21.64-1.81Z"/>
      <path class="cls-1" d="m64.43,73.75c-.65-.34-1.3-.69-2.06-1.08.36-1.06.72-2.14,1.11-3.29.87.43,1.72.86,2.48,1.51-.33.94-.61,1.88-1.1,2.74-.11.19-.24.22-.43.12Z"/>
      <path class="cls-1" d="m86.91,83.77c.36.25.67.53,1.03.72.39.2.82.36,1.25.45.25.05.54-.05.8-.14.23-.09.44-.25.67-.38.1.73-.03.94-.66,1.14-.63.19-1.23.03-1.83-.1-.34-.08-.66-.21-.96-.38-.61-.34-.67-.65-.3-1.31Z"/>
      <path class="cls-1" d="m90.48,83.93c-.3.42-.75.66-1.24.63-.76-.04-1.4-.42-1.94-.95-.03-.03-.02-.09-.02-.11.52.13,1.03.32,1.56.37.52.05,1.06-.04,1.59-.06.01.04.03.08.05.12Z"/>
      <path class="cls-1" d="m91.92,81.09c.58.63.34,1.6-.46,1.95-.79.36-1.63.44-2.48.45-.38,0-.75-.07-1.1-.23-.59-.26-.96-.73-1.26-1.25-.16-.28-.02-.71.32-1.02.02.08.04.14.04.2-.02.4.12.67.53.84.31.13.57.37.87.55.25.16.53.22.84.15.25-.05.51-.04.77-.05.59-.04,1.17-.08,1.73-.11.35-.48-.03-1.01.2-1.48Z"/>
      <path class="cls-1" d="m51.15,63.72c.9.01,1.58.41,2.33.79-.42.65-.81,1.24-1.26,1.92-.37-.95-.71-1.81-1.07-2.71Z"/>
      <path class="cls-1" d="m53.57,58.11c-.41.89-.77,1.67-1.16,2.49-.18-.05-.34-.08-.5-.14-.6-.21-1.19-.47-1.8-.63-.46-.12-.63-.36-.62-.86.15-.07.34-.24.52-.23.64.05,1.21-.23,1.82-.34.54-.1,1.08-.18,1.74-.29Z"/>
      <path class="cls-1" d="m50.99,63.17c-.41-1.03-.81-2.03-1.25-3.12.83.14,1.54.43,2.27.68.08.02.13.15.16.19-.39.76-.77,1.48-1.18,2.25Z"/>
      <path class="cls-1" d="m54.96,61.91c-.36.93-.96,1.6-1.35,2.38-.83-.33-1.6-.64-2.38-.96.29-.72.58-1.46,1.05-2.1.14-.19.27-.27.47-.19.72.28,1.43.56,2.21.87Z"/>
      <path class="cls-1" d="m54.54,58.04c.55.24,1.09.49,1.64.73.18.07.23.2.16.37-.4.88-.75,1.78-1.26,2.61-.82-.34-1.61-.67-2.49-1.03.42-.85.8-1.64,1.2-2.42.14-.28.45-.38.75-.26Z"/>
      <path class="cls-1" d="m56.71,58.95c1.16.43,2.29.85,3.5,1.3-.5,1.12-.89,2.21-1.48,3.29-1.19-.56-2.29-1.07-3.43-1.61.47-1.01.93-1.96,1.41-2.98Z"/>
      <path class="cls-1" d="m52.36,66.72c.43-.67.89-1.37,1.36-2.1,1.21.52,2.46.85,3.63,1.52-.49,1.14-1.1,2.17-1.74,3.24-.78-.44-1.51-.9-2.28-1.27-.59-.28-.84-.75-.97-1.39Z"/>
      <path class="cls-1" d="m57.58,66.3c1.06.49,2.05.96,3.1,1.45-.49,1.14-.9,2.27-1.5,3.3-1.11-.53-2.19-1.04-3.3-1.57.56-1.06,1.12-2.1,1.7-3.18Z"/>
      <path class="cls-1" d="m59.06,71.33c-.43.79-.84,1.54-1.24,2.28-.93-.34-1.82-.66-2.7-.99-.09-.03-.17-.11-.22-.19-.14-.24-.27-.48-.41-.74.43-.66.84-1.31,1.28-2,1.15.52,2.27.93,3.29,1.64Z"/>
      <path class="cls-1" d="m88.19,70.19c.54.68,1.13,1.3,1.71,1.94.36.4.73.78,1.09,1.17.07.08.1.19.19.37-.64.01-1.2.05-1.77.04-1.14-.01-2.27.13-3.4.25-.11.02-.21.04-.31.03-.59-.07-1.16,0-1.74.11-1,.18-2.02.25-3.02.42-1.07.18-2.13.44-3.19.64-.68.13-1.36.23-2.05.31-1.03.11-2.06.2-3.09.28-.5.04-.99.04-1.49.06-.45.02-.89.07-1.33.09-.66.03-1.31.06-1.97.06-1.21,0-2.41.14-3.61.31-.92.12-1.85.17-2.78.25-.24.03-.47.1-.71.1-.77.01-1.55-.01-2.32.01-.59.02-1.17.08-1.76.13-.06,0-.13.03-.2.03-.67.06-.91-.1-1.21-.69-.22-.45-.49-.87-.72-1.31-.38-.74-.77-1.47-1.1-2.23-.74-1.67-1.43-3.36-2.17-5.03-.31-.67-.67-1.32-1.04-1.96-.51-.88-.82-1.83-1.23-2.74-.41-.93-.82-1.86-1.21-2.8-.19-.46-.36-.94-.51-1.41-.15-.51.1-.96.65-1.12,1.33-.39,2.66-.8,4.05-.97.46-.06.9-.24,1.35-.34.53-.11,1.05-.21,1.58-.28,1.65-.2,3.31-.38,4.97-.58,1.11-.13,2.22-.31,3.33-.44.79-.1,1.58-.16,2.37-.24,1.44-.15,2.89-.17,4.33-.2,1.26-.04,2.52-.07,3.78-.11.62-.01,1.24-.05,1.86-.06,1.27-.02,2.22.55,2.84,1.65.52.91,1.02,1.85,1.57,2.74.4.64.87,1.24,1.31,1.86.05.07.11.13.16.21.34.47.65.96,1.05,1.4.42.45.73,1,1.06,1.53,1,1.6,2.16,3.08,3.3,4.58.49.63.89,1.32,1.38,1.94Zm-9.74-11.25c-.37-.57-.8-1.11-1.1-1.74-.2-.41-.51-.77-.75-1.17-.17-.26-.39-.35-.69-.35-.69-.01-1.38-.04-2.06-.06-.09-.01-.18,0-.26,0-.78.06-1.55.12-2.32.16-.26.01-.52-.08-.77-.05-1.39.12-2.77.26-4.16.41-.73.08-1.47.17-2.2.27-.48.07-.95.1-1.44.06-.61-.06-1.24-.05-1.85.03-1.01.14-2.03.18-3.01.5-.09.03-.2.02-.31.03-.34.04-.68.07-1.02.13-1.19.21-2.37.48-3.57.63-1.12.14-2.19.46-3.29.71-.6.14-.79.4-.64.95.14.54.32,1.06.54,1.57.2.47.51.9.72,1.37.48,1.05.93,2.11,1.38,3.17.3.71.56,1.45.86,2.16.56,1.29,1.05,2.62,1.72,3.87.68,1.26,1.31,2.54,2.02,3.92.66.02,1.34.06,2.03.05.55-.01,1.1-.11,1.65-.1.66,0,1.29-.09,1.93-.2.89-.15,1.77-.3,2.66-.4,1.04-.11,2.09-.15,3.14-.23.46-.04.94-.04,1.39-.13,1.29-.25,2.61-.29,3.91-.34,1.23-.05,2.46-.04,3.69-.05.78,0,1.54-.16,2.3-.32.52-.12,1.05-.2,1.58-.31,1.24-.26,2.54-.25,3.77-.62.74-.23,1.5-.39,2.25-.59.38-.1.53-.35.36-.69-.18-.37-.38-.76-.65-1.06-.65-.72-1.06-1.6-1.62-2.38-.42-.59-.9-1.13-1.37-1.68-.11-.13-.31-.19-.39-.32-.55-.98-1.46-1.7-1.89-2.76-.15-.38-.49-.67-.48-1.12,0-.04-.04-.11-.08-.13-.44-.27-.55-.78-.8-1.18-.41-.66-.75-1.36-1.18-2.01Z"/>
      <path class="cls-1" d="m52.86,84.73c.73.2,1.42.4,2.2.62-.41.32-.84.36-1.33.24-.44-.12-.82-.26-.87-.86Z"/>
      <path class="cls-1" d="m54.29,84.2c.33.08.68.09,1.02.12.47.05.9-.04,1.14-.52.27.35.29.41,0,.62-.62.46-1.33.64-2.1.47-.6-.13-1.2-.3-1.67-.74-.18-.16-.36-.31-.53-.48-.21-.21-.14-.4.06-.59.61.6,1.31.93,2.08,1.12Z"/>
      <path class="cls-1" d="m53.18,82.51c.64.51,1.38.69,2.17.67.25-.01.49-.14.73-.22.26.64.06,1.01-.56,1.09-.9.12-1.7-.16-2.43-.65-.23-.15-.45-.34-.4-.68.04-.32.24-.41.49-.21Z"/>
      <path class="cls-1" d="m52.6,80.3c.45.31.91.65,1.39.94.34.21.69.46,1.15.3.09-.03.21-.03.3,0,.52.16.91.01,1.21-.5.38.64.22,1.2-.38,1.5-.14.07-.29.1-.42.18-.5.32-1.03.15-1.56.11-.03,0-.09-.01-.09-.03-.14-.46-.62-.34-.92-.54-.69-.45-1.17-1.03-1.22-1.9-.01-.29.12-.48.42-.63.04.2.08.38.12.57Z"/>
      <path class="cls-1" d="m88.57,76.9c.16.65.21,4.52.07,4.97-.48.05-.85-.23-1.23-.44-.09-.05-.13-.24-.13-.37-.04-.67-.04-1.34-.08-2.01-.02-.44-.09-.88-.15-1.34-.42-.04-.77-.08-1.15.09-.28.12-.63.09-.95.11-.28.02-.55,0-.82.03-.88.1-1.75.2-2.62.32-1.25.16-2.5.33-3.75.49-.39.05-.79.13-1.18.11-.9-.02-1.74.26-2.61.41-.64.1-1.28.29-1.93.36-.77.09-1.55.11-2.33.11-1.14,0-2.27,0-3.41.18-1.43.21-2.85.1-4.28-.07-.59-.07-1.2-.02-1.8-.04-.8-.03-1.6-.07-2.4-.22-.49-.09-.99-.07-1.49-.1-.09.61-.16,1.12-.24,1.66-.39.02-.75.04-1.12.06v-1.69c0-.35.1-.46.45-.52.68-.12,1.37-.1,2.06-.06.58.03,1.17.02,1.75-.02.72-.05,1.44-.13,2.16-.24,1.14-.18,2.27-.39,3.44-.43,1.38-.04,2.75-.24,4.12-.34,1.07-.08,2.14-.12,3.2-.15.74-.03,1.48.01,2.22-.01.52-.02,1.04-.06,1.55-.12.81-.11,1.62-.05,2.43-.03.83.03,1.68.02,2.52-.17.67-.14,1.36-.23,2.04-.3.76-.06,1.52-.07,2.28-.11.16-.01.31-.03.46-.05.38-.05.74-.11,1.13-.07.4.05.82-.03,1.24-.04.18-.01.37.02.55.04Z"/>
      <path class="cls-1" d="m52.77,74.63c.52,1.18,1.07,2.35,1.65,3.51.25.48.35.95.26,1.48-.04.31-.04.62-.08.93-.01.19-.05.37-.08.59-.66-.24-1.1-.67-1.54-1.1-.11-.1-.11-.32-.12-.49-.02-.58.01-1.17-.03-1.75-.05-.85-.27-1.66-.6-2.45-.29-.68-.47-1.4-.72-2.1-.22-.6-.46-1.19-.71-1.78-.34-.85-.69-1.69-1.05-2.54-.31-.73-.61-1.46-.96-2.17-.15-.28-.3-.65-.77-.63-.52.96-.42,2.03-.46,3.08h-.39c.02-1.92.25-3.8.54-5.68.01-.1.11-.19.23-.4.21.49.44.86.54,1.27.2.73.61,1.34.91,2.01.31.68.6,1.36.89,2.04.51,1.23,1.02,2.45,1.52,3.68.33.83.61,1.68.97,2.5Z"/>
      <path class="cls-1" d="m46.6,72.78c-.1.66-.64,1.02-1.35.89-.52-.09-.88-.7-.74-1.23.7.12,1.39.23,2.09.34Z"/>
      <path class="cls-1" d="m47.26,72.46c-.8.02-1.6.01-2.38-.23-.1-.03-.18-.11-.27-.16-.65-.38-.66-.71-.02-1.21.54,1.2,1.74,1.73,3,.68.09.16.18.32.26.47-.1.31-.3.44-.59.45Z"/>
      <path class="cls-1" d="m46.4,71.8c-.59.04-1.03-.25-1.38-.69-.12-.16-.07-.32.04-.48.11-.15.24-.15.41-.08.13.06.29.08.43.09.48.04.95.06,1.42.09.06.6-.3,1.02-.92,1.07Z"/>
      <path class="cls-1" d="m46.16,69.58c.61.19,1.23.33,1.79-.25.04.08.1.15.1.22-.02.46-.55.96-1,.93-.45-.02-.9-.03-1.34-.11-.66-.12-1.6-1.08-1.1-1.99.41.58.91,1,1.55,1.2Z"/>
      <path class="cls-1" d="m78.06,76.96c-.54-.07-1.1.05-1.65.09-.45.03-.9.07-1.34.09-.68.04-1.35.03-2.02.08-.55.05-1.09.18-1.64.23-.75.08-1.51.14-2.26.19-1.19.08-2.37.15-3.56.24-.29.02-.58.07-.87.1-.65.05-1.3.02-1.94.16-.9.19-1.8.34-2.7.48-.46.07-.93.08-1.4.07-.86-.01-1.72-.06-2.58-.08-.24-.01-.49.06-.72.03-.29-.04-.52-.15-.69-.47-.64-1.2-1.22-2.43-1.72-3.69-.46-1.15-.88-2.32-1.34-3.47-.3-.75-.66-1.48-.97-2.22-.2-.48-.36-.97-.57-1.45-.29-.68-.62-1.34-.92-2.02-.16-.36-.3-.74-.45-1.1-.12-.32-.24-.65-.39-.96-.06-.12-.2-.24-.33-.3-.39-.16-.59-.04-.64.38-.08.6-.15,1.2-.2,1.81-.09,1.13-.15,2.27-.24,3.41-.02.25-.09.5-.15.82-.19-.05-.36-.06-.5-.13-.24-.1-.46-.25-.69-.36-.32-.15-.46-.4-.42-.75.05-.41.09-.83.15-1.24.07-.46.15-.92.24-1.38.29-1.49.59-2.97.89-4.46.11-.56.21-1.12.32-1.68.05-.21.11-.42.26-.64.57,1.51,1.11,3.02,1.7,4.52.43,1.09.9,2.17,1.4,3.23.25.54.65,1.02.92,1.55.53,1.06,1.03,2.14,1.52,3.23.28.63.52,1.28.77,1.92.33.81.57,1.66,1,2.43.28.51.61.98,1.05,1.32.42.32.96.41,1.48.27,1.17-.31,2.36-.2,3.55-.2.68,0,1.36-.13,2.04-.17.79-.05,1.6-.15,2.38-.07,1.01.11,1.99.05,2.98-.1.87-.12,1.74-.28,2.62-.3,1.18-.02,2.37-.2,3.55-.04.19.02.38-.03.57-.03.81-.04,1.62-.07,2.43-.11.07,0,.15.01.21-.01.73-.26,1.49-.29,2.24-.34.49-.03.98-.04,1.44-.14.88-.19,1.75-.4,2.6-.68,1.03-.33,2.07-.55,3.13-.69.58-.08,1.18-.15,1.75-.09.84.08,1.68.16,2.52.03.16-.02.33.05.57.09-.03.54-.06,1-.08,1.47-.01.08-.02.17-.01.26.04.6.11,1.2.14,1.8.05,1.15.14,2.31-.04,3.47-.04.28-.15.43-.44.48-.39.06-.77.17-1.16.25-.13.02-.27-.01-.44-.02.02-.3.06-.58.05-.84-.01-.66-.03-1.32-.07-1.97-.04-.59-.09-1.17-.14-1.76-.03-.27-.06-.55-.12-.81-.05-.22-.19-.38-.42-.41-1.05-.11-2.1-.17-3.15-.01-1.46.23-2.93.47-4.4.61-1.03.09-2.06.21-3.1.08Z"/>
      <path class="cls-1" d="m58.91,63.78c.92.5,1.81.97,2.75,1.47-.32.8-.6,1.52-.91,2.29-1.02-.48-2.02-.94-3.08-1.43.42-.79.81-1.53,1.24-2.33Z"/>
      <path class="cls-1" d="m63.9,66.48c-.22.82-.42,1.59-.64,2.4-.76-.4-1.48-.79-2.26-1.21.28-.74.56-1.47.87-2.25.69.36,1.34.7,2.03,1.06Z"/>
      <path class="cls-1" d="m63.99,66.99c.09-.33.21-.38.52-.22.79.42,1.58.84,2.42,1.29-.24.87-.48,1.72-.85,2.57-.89-.54-1.73-1.05-2.59-1.58.18-.72.33-1.39.5-2.06Z"/>
      <path class="cls-2" d="m52.01,60.73c-.73-.25-1.44-.54-2.27-.68.44,1.09.84,2.09,1.25,3.12.41-.77.79-1.49,1.18-2.25-.03-.04-.08-.17-.16-.19Zm1.6,3.56c.39-.78.99-1.45,1.35-2.38-.78-.31-1.49-.59-2.21-.87-.2-.08-.33,0-.47.19-.47.64-.76,1.38-1.05,2.1.78.32,1.55.63,2.38.96Zm.11.33c-.47.73-.93,1.43-1.36,2.1.13.64.38,1.11.97,1.39.77.37,1.5.83,2.28,1.27.64-1.07,1.25-2.1,1.74-3.24-1.17-.67-2.42-1-3.63-1.52Zm-1.31-4.02c.39-.82.75-1.6,1.16-2.49-.66.11-1.2.19-1.74.29-.61.11-1.18.39-1.82.34-.18-.01-.37.16-.52.23-.01.5.16.74.62.86.61.16,1.2.42,1.8.63.16.06.32.09.5.14Zm1.07,3.91c-.75-.38-1.43-.78-2.33-.79.36.9.7,1.76,1.07,2.71.45-.68.84-1.27,1.26-1.92Zm3.63-7.07c-.73.19-1.4.12-2.06.58.54.23,1.01.44,1.5.65.19-.42.35-.77.56-1.23Zm-4.18,10.84c.44,1.01.89,2.02,1.34,3.03h.14c.38-.56.75-1.13,1.17-1.76-.9-.47-1.73-.91-2.56-1.34-.03.02-.06.05-.09.07Zm9.18,4.35c.23-.62.43-1.17.62-1.72s.37-1.11.59-1.76c-.81-.43-1.58-.84-2.41-1.28-.52,1.17-1.01,2.28-1.5,3.4.88.55,1.8.91,2.7,1.36Zm-4.53,1.58c.14-.28.11-.39-.19-.52-.48-.21-.95-.42-1.44-.59-.22-.08-.46-.09-.76-.14.37.74.7,1.42,1.06,2.08.18.33.65.34.85.02.18-.27.33-.56.48-.85Zm-1.4-15.44c-.55-.24-1.09-.49-1.64-.73-.3-.12-.61-.02-.75.26-.4.78-.78,1.57-1.2,2.42.88.36,1.67.69,2.49,1.03.51-.83.86-1.73,1.26-2.61.07-.17.02-.3-.16-.37Zm1.26,7.11c.39-.45,1-1.63,1.14-2.19-1.13-.52-2.26-1.05-3.4-1.58-.45.76-.9,1.52-1.38,2.32,1.24.5,2.42.97,3.64,1.45Zm6.55,1.11c-.17.67-.32,1.34-.5,2.06.86.53,1.7,1.04,2.59,1.58.37-.85.61-1.7.85-2.57-.84-.45-1.63-.87-2.42-1.29-.31-.16-.43-.11-.52.22Zm-6.02,7.02c-.23.45-.44.88-.7,1.39.83-.07,1.57-.12,2.3-.18l.06-.12c-.54-.36-1.02-.81-1.66-1.09Zm5.87.71c.45-.06.56-.16.68-.71-.62-.31-1.24-.62-1.87-.94-.2-.1-.35-.09-.45.16-.22.58-.46,1.17-.72,1.83.87-.13,1.61-.24,2.36-.34Zm.99-.48c-.07.13-.14.24-.26.44.27-.08.44-.13.67-.2-.17-.1-.27-.16-.41-.24Zm-7.01-.63c.4-.74.81-1.49,1.24-2.28-1.02-.71-2.14-1.12-3.29-1.64-.44.69-.85,1.34-1.28,2,.14.26.27.5.41.74.05.08.13.16.22.19.88.33,1.77.65,2.7.99Zm4.55-.94c.76.39,1.41.74,2.06,1.08.19.1.32.07.43-.12.49-.86.77-1.8,1.1-2.74-.76-.65-1.61-1.08-2.48-1.51-.39,1.15-.75,2.23-1.11,3.29Zm-3.1-1.17c-.41.74-.91,1.47-1.18,2.34.62.38,1.21.73,1.77,1.12.2.13.38.22.61.21s.45,0,.7,0c.3-.76.59-1.5.9-2.29-.94-.47-1.84-.91-2.8-1.38Zm6.54-8.11c-.15-.09-.31-.18-.49-.28-.12.35-.22.65-.32.94-.22.6-.43,1.2-.64,1.81-.14.42-.09.53.31.74.19.09.37.18.55.28.57.31,1.15.62,1.81.98.11-.29.21-.53.29-.77.18-.59.33-1.2.53-1.79.2-.55.08-.5-.27-.74-.58-.4-1.18-.78-1.77-1.17Zm-5.13,4.36c-1.05-.49-2.04-.96-3.1-1.45-.58,1.08-1.14,2.12-1.7,3.18,1.11.53,2.19,1.04,3.3,1.57.6-1.03,1.01-2.16,1.5-3.3Zm-.13-7.59c.78.41,1.51.79,2.29,1.2.07-.19.13-.33.17-.47.24-.8.46-1.59.71-2.43-.69-.38-1.35-.74-2.05-1.13-.39.99-.76,1.91-1.12,2.83Zm2.71,8.72c.22-.81.42-1.58.64-2.4-.69-.36-1.34-.7-2.03-1.06-.31.78-.59,1.51-.87,2.25.78.42,1.5.81,2.26,1.21Zm2.91,5.56c.82-.11,1.63-.23,2.45-.35.13-.34.24-.66.38-1.02-.92-.7-1.83-1.38-2.84-1.96-.4.99-.77,1.93-1.15,2.9.36.2.7.49,1.16.43Zm-.19-15.04c.22-.85.44-1.7.65-2.55.03-.12,0-.26,0-.44-.59.06-1.12.09-1.65.16-.13.02-.32.13-.36.25-.22.52-.39,1.05-.58,1.6.66.38,1.26.74,1.87,1.09.04-.06.07-.08.07-.11Zm-2.9,2.33c-.38,1.2-.74,2.32-1.11,3.5.65.34,1.31.69,2.04,1.07.38-1.16.74-2.25,1.12-3.39-.7-.4-1.36-.78-2.05-1.18Zm-2.87-1.48c-1.21-.45-2.34-.87-3.5-1.3-.48,1.02-.94,1.97-1.41,2.98,1.14.54,2.24,1.05,3.43,1.61.59-1.08.98-2.17,1.48-3.29Zm1.45,5c-.94-.5-1.83-.97-2.75-1.47-.43.8-.82,1.54-1.24,2.33,1.06.49,2.06.95,3.08,1.43.31-.77.59-1.49.91-2.29Zm4-5.62c-.56-.3-1.11-.63-1.74-.99-.27.97-.54,1.9-.8,2.83.72.43,1.38.82,2.05,1.21.19-.58.38-1.11.54-1.66.08-.31.11-.64.16-.97.03-.18-.02-.32-.21-.42Zm-5.26.81c-.47,1.07-.92,2.09-1.39,3.15.88.47,1.76.94,2.74,1.46.31-.97.61-1.89.9-2.8.05-.15.1-.31.09-.46-.01-.11-.08-.27-.17-.32-.56-.31-1.14-.59-1.71-.87-.13-.07-.28-.1-.46-.16Zm8.02,3.84c-.13.46-.09.55.33.78.48.26.96.54,1.43.83.25.16.47.37.76.59.37-1.07.61-2.08.89-3.07-.93-.55-1.8-1.06-2.69-1.59-.05.13-.09.22-.12.32-.2.71-.4,1.43-.6,2.14Zm.79,8.98c-.09.26-.17.49-.29.8.39-.04.67-.07,1.02-.1-.19-.34-.42-.51-.73-.7Zm.8-3.62c.3-.97.6-1.9.91-2.87-.89-.7-1.73-1.32-2.73-1.75-.31,1.02-.61,1.98-.89,2.93.92.58,1.79,1.12,2.71,1.69Zm2.47-5.95c.58.43,1.15.88,1.72,1.32.12.1.23.22.41.4.2-.88.37-1.66.54-2.44-.88-.59-1.71-1.15-2.64-1.77-.12.67-.19,1.25-.33,1.81-.09.34.06.5.3.68Zm.18-3.16c-.06.3.02.5.27.66l1.41.96c.26.18.53.35.84.54.23-.85.43-1.63.64-2.41-.91-.59-1.77-1.15-2.74-1.78-.15.76-.27,1.4-.42,2.03Zm-1.75-4.5c-.2.22-.09.37.07.5.35.3.7.6,1.07.89.26.21.53.41.88.67.13-.74.24-1.37.36-2.06h-2.38Zm-1.01,13.86c-.88-.61-1.75-1.17-2.74-1.69-.3.92-.58,1.78-.87,2.64.94.67,1.84,1.32,2.8,2.02.27-1,.53-1.95.81-2.97Zm.17,3.77c.23.19,1.09.22,1.32.06.04-.03.08-.07.1-.11.31-.69.61-1.38.93-2.1-.79-.49-1.5-.99-2.34-1.43-.26,1-.51,1.92-.76,2.86.11.13.17.21.24.28.17.15.34.3.51.44Zm2.37-9.75c-.1-.08-.23-.13-.4-.22-.31,1.01-.59,1.96-.89,2.93.81.58,1.58,1.13,2.43,1.74.31-.8.59-1.52.87-2.24.12-.31.08-.57-.23-.8-.61-.44-1.18-.94-1.78-1.41Zm4.16-6.9c.14-.59-.24-1.1-.85-1.1-.6,0-1.2,0-1.81.01-.08,0-.15.06-.24.09.61.61,1.99,1.41,2.77,1.59.05-.22.09-.41.13-.59Zm-4.12,14.25c.4-.9.8-1.75,1.02-2.66-.78-.57-1.53-1.11-2.37-1.73-.33,1.05-.63,1.97-.93,2.95.76.48,1.51.95,2.28,1.44Zm2.42,1.12c-.2.59-.2.55.32.91.38.27,1.08.04,1.27-.38.18-.42.37-.82.55-1.23.05-.13.1-.25.15-.4-.52-.36-1.02-.71-1.57-1.08-.06.17-.09.27-.12.36-.2.61-.4,1.21-.6,1.82Zm.31-1.59c.23-.77.22-.78-.42-1.25-.34-.25-.7-.48-1.06-.72-.32.82-.62,1.6-.94,2.36-.08.18-.03.3.1.4.54.38,1.07.74,1.66,1.16.23-.67.46-1.31.66-1.95Zm3.96,2.13c-.59-.58-1.04-1.12-1.7-1.41-.4.56-.67,1.14-.77,1.68.25,0,.49.03.72,0,.54-.07,1.08-.16,1.75-.27Zm-1.72-14.86c-.16-.42-.22-.75-.57-1.02-.05.25-.1.45-.15.69.25.12.44.2.72.33Zm-10.48-1.61c.9.82,1.76,1.6,2.85,2.23.2-.74.4-1.43.56-2.13.08-.36-.09-.53-.45-.5-.89.09-1.77.19-2.66.3-.09.01-.17.06-.3.1Zm13.02,9.46c-.07.08-.12.11-.14.16-.3.79-.6,1.57-.88,2.37-.03.1.01.3.09.36.38.32.69.73,1.21.91.41-1,.75-2.01,1.02-3.08-.48-.27-.89-.5-1.3-.72Zm-4.59,3.79c.23-.73.46-1.39.66-2.06.22-.74.3-.64-.37-1.13-.18-.14-.35-.28-.53-.41-.12-.08-.25-.14-.36-.19-.29.71-.56,1.38-.84,2.04-.21.51-.2.55.26.88.07.05.12.12.19.17.33.23.65.46.99.7Zm-15.06-9.66c.37-.95.73-1.86,1.12-2.83-.28-.08-.49-.19-.69-.18-.96.07-1.92.17-2.88.26-.29.03-.48.16-.6.42-.15.33-.33.64-.52,1.02,1.22.45,2.37.87,3.57,1.31Zm12.84,12.01c-.17-.13-.35-.24-.58-.4-.29.69-.54,1.32-.83,2.01.93-.11,1.75-.2,2.57-.3.14-.21.08-.36-.1-.49-.35-.27-.7-.55-1.06-.82Zm4.65-11.08c.11-.63.21-1.23.31-1.82.03-.2-.04-.37-.2-.5-.36-.26-.74-.5-1.23-.58-.18.69-.36,1.36-.56,2.1.57.27,1.1.52,1.68.8Zm-7.87-1.83c-.3.69-.55,1.34-.7,2.04-.06.24,0,.4.2.52.77.48,1.55.96,2.41,1.48.15-.71.29-1.33.43-1.95.04-.2-.1-.28-.22-.38-.54-.45-1.08-.9-1.63-1.35-.14-.12-.3-.22-.49-.36Zm10.23,10.83c-.48-.36-.91-.69-1.37-1.05-.44.82-.84,1.58-1.23,2.32.56.45,1.08.87,1.67,1.35.33-.92.63-1.78.93-2.62Zm-15.82-13.28c-.51.07-.91.13-1.31.19-.41.06-.81.12-1.32.2.75.43,1.39.78,2.08,1.17.18-.52.35-.98.55-1.56Zm12.8,7.2c.21-.81.4-1.56.59-2.3.07-.24.02-.4-.22-.5-.48-.2-.94-.42-1.47-.66-.18.62-.35,1.17-.5,1.73-.19.69-.18.69.45,1.07.11.08.22.17.34.23.25.14.51.27.81.43Zm5,8.69c.45-.09.88.07,1.29-.24-.3-.28-.49-.61-.92-.69-.12.31-.24.59-.37.93Zm-11.91-13.48c.56.45,1.11.92,1.67,1.38.12.1.27.18.45.31.17-.85.33-1.62.49-2.46-.38-.29-.74-.56-1.09-.83-.36-.27-.71-.55-1.09-.86-.21.66-.39,1.23-.58,1.81-.08.25-.08.46.15.65Zm-4.06.5c.92.59,1.81,1.15,2.72,1.73.26-.75.51-1.44.76-2.13.07-.2,0-.32-.16-.44-.81-.62-1.61-1.25-2.41-1.87-.06-.04-.14-.06-.25-.1-.25.97-.6,1.86-.66,2.81Zm2.51,1.83c-.76-.47-1.51-.95-2.28-1.42-.07-.05-.19-.02-.34-.03,0,1.03-.57,1.92-.64,2.92.87.57,1.7,1.12,2.54,1.69.07-.08.11-.1.12-.12.26-.88.51-1.76.76-2.64.05-.16,0-.3-.16-.4Zm7.2-1.36c.2-.76.38-1.43.57-2.13-.54-.26-1.04-.48-1.52-.75-.49-.27-.95-.59-1.45-.9-.13.69-.25,1.3-.37,1.95.91.6,1.8,1.2,2.77,1.83Zm3.94,12.78c.57-.04,1.13-.1,1.69-.19.15-.03.31-.17.39-.3.17-.31.3-.65.45-1-.66-.43-1.28-.84-1.99-1.3-.31.88-.59,1.64-.85,2.4-.1.31-.02.42.31.39Zm-.14-11.18c-.32-.83-.78-1.58-1.3-2.31-.03.01-.06.02-.1.03-.1.55-.19,1.11-.3,1.72.54.23,1.07.45,1.6.68.04-.04.07-.08.1-.12Zm.11.45c-.51-.22-1.02-.43-1.53-.64-.08-.04-.19-.02-.24-.02-.21.73-.41,1.42-.61,2.12-.1.37-.08.45.29.66.65.38,1.32.75,2.05,1.16.19-.81.39-1.58.54-2.35.1-.5-.05-.74-.5-.93Zm-2.74,2.21c.02-.08-.06-.25-.14-.29-.5-.29-1.02-.56-1.58-.85-.22.74-.36,1.48-.45,2.23-.02.11.07.28.16.35.4.3.81.58,1.29.92.25-.82.5-1.59.72-2.36Zm5.66,7.06c.38.31.76.63,1.15.95.8-.19,1.62-.38,2.48-.58-.19-.71-.7-1.24-1.13-1.8-.44-.58-.74-1.27-1.32-1.87-.1.26-.19.42-.23.6-.06.23-.06.48-.15.7-.25.67-.53,1.33-.8,2Zm1.02-3.62c-.82-.22-1.41-.84-2.25-1.01-.35,1.06-.68,2.08-1.02,3.1.7.45,1.34.86,2,1.29.71-1.03.82-2.23,1.27-3.38Zm-4.11-1.87c.03-.09-.05-.29-.14-.34-.7-.43-1.41-.84-2.17-1.28-.27.85-.53,1.61-.76,2.39-.02.09.04.24.11.31.6.57,1.28,1.03,2.03,1.53.33-.9.64-1.75.93-2.61Zm-1.27,3.33c.26-.46.26-.49-.16-.8-.53-.41-1.06-.82-1.6-1.22-.05-.04-.13-.03-.21-.05-.16.49-.33.96-.47,1.44-.1.35-.15.71-.24,1.06-.04.18.01.3.16.4.48.34.96.67,1.5,1.05.36-.67.69-1.27,1.02-1.88Zm1.67-3.82c-.02.08.05.22.12.27.35.23.72.44,1.2.74.04-.85.33-1.58-.21-2.25-.1-.11-.13-.28-.21-.41-.08-.16-.18-.31-.3-.51-.41.71-.45,1.45-.6,2.16Zm3.17,1.88c-.16-.56-1.08-1.88-1.5-2.15-.06.47-.11.9-.16,1.28.58.3,1.1.57,1.66.87Zm-5.87-10.09c.3.63.73,1.17,1.1,1.74.43.65.77,1.35,1.18,2.01.25.4.36.91.8,1.18.04.02.08.09.08.13-.01.45.33.74.48,1.12.43,1.06,1.34,1.78,1.89,2.76.08.13.28.19.39.32.47.55.95,1.09,1.37,1.68.56.78.97,1.66,1.62,2.38.27.3.47.69.65,1.06.17.34.02.59-.36.69-.75.2-1.51.36-2.25.59-1.23.37-2.53.36-3.77.62-.53.11-1.06.19-1.58.31-.76.16-1.52.32-2.3.32-1.23.01-2.46,0-3.69.05-1.3.05-2.62.09-3.91.34-.45.09-.93.09-1.39.13-1.05.08-2.1.12-3.14.23-.89.1-1.77.25-2.66.4-.64.11-1.27.2-1.93.2-.55-.01-1.1.09-1.65.1-.69,0-1.37-.03-2.03-.05-.71-1.38-1.34-2.66-2.02-3.92-.67-1.25-1.16-2.58-1.72-3.87-.3-.71-.56-1.45-.86-2.16-.45-1.06-.9-2.12-1.38-3.17-.21-.47-.52-.9-.72-1.37-.22-.51-.4-1.03-.54-1.57-.15-.55.04-.81.64-.95,1.1-.25,2.17-.57,3.29-.71,1.2-.15,2.38-.42,3.57-.63.34-.06.68-.09,1.02-.13.11-.01.22,0,.31-.03.98-.32,2-.36,3.01-.5.61-.08,1.24-.09,1.85-.03.49.04.96.01,1.44-.06.73-.1,1.47-.19,2.2-.27,1.39-.15,2.77-.29,4.16-.41.25-.03.51.06.77.05.77-.04,1.54-.1,2.32-.16.08,0,.17-.01.26,0,.68.02,1.37.05,2.06.06.3,0,.52.09.69.35.24.4.55.76.75,1.17Z"/>
      <path class="cls-2" d="m45.02,71.11c.35.44.79.73,1.38.69.62-.05.98-.47.92-1.07-.47-.03-.94-.05-1.42-.09-.14-.01-.3-.03-.43-.09-.17-.07-.3-.07-.41.08-.11.16-.16.32-.04.48Zm.23,2.56c.71.13,1.25-.23,1.35-.89-.7-.11-1.39-.22-2.09-.34-.14.53.22,1.14.74,1.23Zm2.7-4.34c-.56.58-1.18.44-1.79.25-.64-.2-1.14-.62-1.55-1.2-.5.91.44,1.87,1.1,1.99.44.08.89.09,1.34.11.45.03.98-.47,1-.93,0-.07-.06-.14-.1-.22Zm-3.07,2.9c.78.24,1.58.25,2.38.23.29-.01.49-.14.59-.45-.08-.15-.17-.31-.26-.47-1.26,1.05-2.46.52-3-.68-.64.5-.63.83.02,1.21.09.05.17.13.27.16Zm-1.32.87c.35.45.66.87.97,1.27.15.19.32.36.5.55.39-.14.73-.25,1.06-.39.35-.14.68-.3,1.08-.47-.15-.27-.27-.49-.4-.74-.44.48-.93.7-1.51.6-.61-.11-.86-.63-1.15-1.16-.19.11-.35.21-.55.34Zm9.53,10.3c.73.49,1.53.77,2.43.65.62-.08.82-.45.56-1.09-.24.08-.48.21-.73.22-.79.02-1.53-.16-2.17-.67-.25-.2-.45-.11-.49.21-.05.34.17.53.4.68Zm-.88-.32c-.2.19-.27.38-.06.59.17.17.35.32.53.48.47.44,1.07.61,1.67.74.77.17,1.48-.01,2.1-.47.29-.21.27-.27,0-.62-.24.48-.67.57-1.14.52-.34-.03-.69-.04-1.02-.12-.77-.19-1.47-.52-2.08-1.12Zm1.78-1.84c-.48-.29-.94-.63-1.39-.94-.04-.19-.08-.37-.12-.57-.3.15-.43.34-.42.63.05.87.53,1.45,1.22,1.9.3.2.78.08.92.54,0,.02.06.03.09.03.53.04,1.06.21,1.56-.11.13-.08.28-.11.42-.18.6-.3.76-.86.38-1.5-.3.51-.69.66-1.21.5-.09-.03-.21-.03-.3,0-.46.16-.81-.09-1.15-.3Zm1.07,4.11c-.78-.22-1.47-.42-2.2-.62.05.6.43.74.87.86.49.12.92.08,1.33-.24Zm-.64-7.21c-.58-1.16-1.13-2.33-1.65-3.51-.36-.82-.64-1.67-.97-2.5-.5-1.23-1.01-2.45-1.52-3.68-.29-.68-.58-1.36-.89-2.04-.3-.67-.71-1.28-.91-2.01-.1-.41-.33-.78-.54-1.27-.12.21-.22.3-.23.4-.29,1.88-.52,3.76-.54,5.68h.39c.04-1.05-.06-2.12.46-3.08.47-.02.62.35.77.63.35.71.65,1.44.96,2.17.36.85.71,1.69,1.05,2.54.25.59.49,1.18.71,1.78.25.7.43,1.42.72,2.1.33.79.55,1.6.6,2.45.04.58,0,1.17.03,1.75.01.17.01.39.12.49.44.43.88.86,1.54,1.1.03-.22.07-.4.08-.59.04-.31.04-.62.08-.93.09-.53-.01-1-.26-1.48Zm36.01,5.67c-.53.02-1.07.11-1.59.06-.53-.05-1.04-.24-1.56-.37,0,.02-.01.08.02.11.54.53,1.18.91,1.94.95.49.03.94-.21,1.24-.63-.02-.04-.04-.08-.05-.12Zm-1.02-10.1c.57.01,1.13-.03,1.77-.04-.09-.18-.12-.29-.19-.37-.36-.39-.73-.77-1.09-1.17-.58-.64-1.17-1.26-1.71-1.94-.49-.62-.89-1.31-1.38-1.94-1.14-1.5-2.3-2.98-3.3-4.58-.33-.53-.64-1.08-1.06-1.53-.4-.44-.71-.93-1.05-1.4-.05-.08-.11-.14-.16-.21-.44-.62-.91-1.22-1.31-1.86-.55-.89-1.05-1.83-1.57-2.74-.62-1.1-1.57-1.67-2.84-1.65-.62.01-1.24.05-1.86.06-1.26.04-2.52.07-3.78.11-1.44.03-2.89.05-4.33.2-.79.08-1.58.14-2.37.24-1.11.13-2.22.31-3.33.44-1.66.2-3.32.38-4.97.58-.53.07-1.05.17-1.58.28-.45.1-.89.28-1.35.34-1.39.17-2.72.58-4.05.97-.55.16-.8.61-.65,1.12.15.47.32.95.51,1.41.39.94.8,1.87,1.21,2.8.41.91.72,1.86,1.23,2.74.37.64.73,1.29,1.04,1.96.74,1.67,1.43,3.36,2.17,5.03.33.76.72,1.49,1.1,2.23.23.44.5.86.72,1.31.3.59.54.75,1.21.69.07,0,.14-.03.2-.03.59-.05,1.17-.11,1.76-.13.77-.02,1.55,0,2.32-.01.24,0,.47-.07.71-.1.93-.08,1.86-.13,2.78-.25,1.2-.17,2.4-.31,3.61-.31.66,0,1.31-.03,1.97-.06.44-.02.88-.07,1.33-.09.5-.02.99-.02,1.49-.06,1.03-.08,2.06-.17,3.09-.28.69-.08,1.37-.18,2.05-.31,1.06-.2,2.12-.46,3.19-.64,1-.17,2.02-.24,3.02-.42.58-.1,1.15-.18,1.74-.11.1,0,.2-.01.31-.03,1.13-.12,2.26-.26,3.4-.25Zm-2.43,7.48c0-.06-.02-.12-.04-.2-.34.31-.48.74-.32,1.02.3.52.67.99,1.26,1.25.35.16.72.24,1.1.23.85-.01,1.69-.09,2.48-.45.8-.35,1.04-1.32.46-1.95-.23.47.15,1-.2,1.48-.56.03-1.14.07-1.73.11-.26.01-.52,0-.77.05-.31.07-.59.01-.84-.15-.3-.18-.56-.42-.87-.55-.41-.17-.55-.44-.53-.84Zm-30.26,4.89c.16-.08.28-.21.19-.37-.13-.24-.3-.46-.48-.66-.06-.08-.23-.13-.32-.1-.3.12-.62.18-.82.5-.1.18-.32.36-.51.4-.53.1-1.07.11-1.56-.16-.38-.21-.63-.52-.66-.98-.04-.51-.25-.63-.73-.49-.14.04-.27.13-.44.21.75,1.07,1.56,2.04,2.51,2.94.68-.31,1.31-.58,1.94-.87.29-.13.59-.28.88-.42Zm33.59.75c.44-.37.99-.6,1.4-1.1-.21-.15-.39-.27-.57-.4-.55.61-1.25.77-1.99.72-.67-.04-1.33-.22-1.92-.55-.43-.24-.71-.1-.98.21-.07.07-.13.15-.23.28.96.76,1.93,1.39,2.9,2,.49-.41.94-.78,1.39-1.16Zm-2.14-1.37c.6.13,1.2.29,1.83.1.63-.2.76-.41.66-1.14-.23.13-.44.29-.67.38-.26.09-.55.19-.8.14-.43-.09-.86-.25-1.25-.45-.36-.19-.67-.47-1.03-.72-.37.66-.31.97.3,1.31.3.17.62.3.96.38Zm-.89-4.4c0,.13.04.32.13.37.38.21.75.49,1.23.44.14-.45.09-4.32-.07-4.97-.18-.02-.37-.05-.55-.04-.42.01-.84.09-1.24.04-.39-.04-.75.02-1.13.07-.15.02-.3.04-.46.05-.76.04-1.52.05-2.28.11-.68.07-1.37.16-2.04.3-.84.19-1.69.2-2.52.17-.81-.02-1.62-.08-2.43.03-.51.06-1.03.1-1.55.12-.74.02-1.48-.02-2.22.01-1.06.03-2.13.07-3.2.15-1.37.1-2.74.3-4.12.34-1.17.04-2.3.25-3.44.43-.72.11-1.44.19-2.16.24-.58.04-1.17.05-1.75.02-.69-.04-1.38-.06-2.06.06-.35.06-.45.17-.45.52v1.69c.37-.02.73-.04,1.12-.06.08-.54.15-1.05.24-1.66.5.03,1,0,1.49.1.8.15,1.6.19,2.4.22.6.02,1.21-.03,1.8.04,1.43.17,2.85.28,4.28.07,1.14-.17,2.27-.17,3.41-.18.78,0,1.56-.02,2.33-.11.65-.07,1.29-.26,1.93-.36.87-.15,1.71-.43,2.61-.41.39.02.79-.06,1.18-.11,1.25-.16,2.5-.33,3.75-.49.87-.12,1.74-.22,2.62-.32.27-.03.54-.01.82-.03.32-.02.67.01.95-.11.38-.17.73-.13,1.15-.09.06.46.13.9.15,1.34.04.67.04,1.34.08,2.01Zm.53-11.9c.41.54.81,1.1,1.41,1.49.48.32.84.82,1.26,1.22.55.52,1.11,1.02,1.66,1.53.06.06.11.15.11.22.01.62.04,1.24,0,1.86-.1,1.5-.23,2.99-.33,4.49,0,.28.03.56.28.8.6.57.59,2.26-.5,2.63-.14.05-.27.14-.4.21v1.22c.3.27.6.54.97.87-.06.11-.12.3-.24.41-.77.69-1.56,1.36-2.35,2.03-.12.1-.25.18-.38.27-.16.12-.31.09-.47-.02-.61-.43-1.24-.82-1.84-1.24-.43-.3-.83-.63-1.23-.95-.08-.06-.12-.16-.19-.26.22-.26.44-.51.64-.76.16-.2.22-.4.11-.67-.18-.41-.05-.76.28-1.07.36-.34.34-.34.08-.76-.15-.24-.34-.5-.41-.77-.1-.44.02-.87.33-1.21.24-.25.3-.51.25-.85-.06-.42-.07-.85-.11-1.24-.32-.03-.62-.08-.92-.07-.43.01-.86.04-1.29.08-1,.1-1.99.2-2.99.31-.99.12-1.98.24-2.98.36-.61.07-1.23.14-1.85.23-.37.06-.74.15-1.1.26-1.56.46-3.14.68-4.76.56-.66-.04-1.31.07-1.96.09-.5.02-1,.05-1.5.08-.29.01-.58.03-.88.04-.15.01-.31.01-.46,0-.34-.03-.68-.08-1.03-.1-1.32-.07-2.65-.14-3.97-.2-.85-.04-1.69-.07-2.54-.11-.57-.03-1.15-.08-1.72-.12-.2.34-.21.61.04.89.12.14.23.31.28.48.1.33.09.66-.18.92-.04.04-.07.08-.11.12-.53.58-.53.66-.05,1.31.21.27.22.46.04.76-.06.1-.13.2-.24.36.24.31.47.59.69.87.17.22.17.34-.06.45-1.08.5-2.16.99-3.26,1.5-1.16-.97-1.99-2.2-2.95-3.29.18-.36.52-.33.74-.45.07-.36.11-.7.21-1.01.1-.33.27-.63.36-.83-.19-.51-.35-.92-.5-1.33-.19-.52,0-.94.38-1.26.28-.22.34-.48.35-.81.03-.97-.13-1.92-.4-2.86-.04-.16-.15-.3-.22-.46-.33-.74-.5-1.53-.72-2.31-.07-.25-.19-.48-.29-.72-.35-.79-.7-1.57-1.03-2.36-.19-.46-.32-.95-.52-1.41-.25-.59-.54-1.16-.81-1.74-.04-.07-.11-.12-.23-.26-.09.33-.2.58-.23.84-.05.44-.06.89-.06,1.33,0,.14.09.29.17.42.19.29.18.58-.01.87-.1.16-.22.31-.34.46-.23.3-.25.52-.06.84.08.11.15.23.23.35.25.38.12.84-.32.98-.23.08-.47.1-.73.15-.21.58.43.81.53,1.27-.18.32-.54.35-.82.49-.43.21-.9.35-1.35.53-.22.1-.39.07-.55-.11-.55-.64-1.14-1.25-1.54-2.03.19-.33.54-.3.86-.37.09-.22.12-.41-.07-.61-.28-.29-.3-.68-.03-1.01.13-.17.34-.27.52-.39.12-.08.25-.15.32-.2-.23-.43-.45-.79-.62-1.17-.15-.33-.1-.66.14-.92.26-.28.32-.61.39-.94.23-1.16.43-2.31.67-3.46.17-.83.38-1.65.57-2.47.22-1.01.44-2.02.67-3.03.16-.71.68-1.16,1.33-1.31,1.38-.32,2.73-.76,4.14-.9.29-.03.57-.14.85-.23.76-.24,1.55-.32,2.34-.37.83-.04,1.65-.15,2.48-.25,1.04-.12,2.08-.25,3.12-.39.29-.04.58-.13.87-.17.78-.11,1.57-.23,2.36-.31,1.18-.12,2.36-.23,3.55-.31.62-.05,1.24,0,1.86-.04,1.66-.06,3.31-.14,4.96-.2.57-.01,1.15-.04,1.71.06,1.1.18,1.91.81,2.46,1.79.53.94,1.07,1.89,1.62,2.82.29.48.58.99.95,1.41.47.53.87,1.11,1.29,1.68.49.66.93,1.37,1.4,2.05.55.8,1.1,1.59,1.66,2.37.73,1.03,1.45,2.06,2.21,3.06Zm2.04,12.93c.39-.08.77-.19,1.16-.25.29-.05.4-.2.44-.48.18-1.16.09-2.32.04-3.47-.03-.6-.1-1.2-.14-1.8-.01-.09,0-.18.01-.26.02-.47.05-.93.08-1.47-.24-.04-.41-.11-.57-.09-.84.13-1.68.05-2.52-.03-.57-.06-1.17,0-1.75.09-1.06.14-2.1.36-3.13.69-.85.28-1.72.49-2.6.68-.46.1-.95.11-1.44.14-.75.05-1.51.08-2.24.34-.06.02-.14.01-.21.01-.81.04-1.62.07-2.43.11-.19,0-.38.05-.57.03-1.18-.16-2.37.02-3.55.04-.88.02-1.75.18-2.62.3-.99.15-1.97.21-2.98.1-.78-.08-1.59.02-2.38.07-.68.04-1.36.17-2.04.17-1.19,0-2.38-.11-3.55.2-.52.14-1.06.05-1.48-.27-.44-.34-.77-.81-1.05-1.32-.43-.77-.67-1.62-1-2.43-.25-.64-.49-1.29-.77-1.92-.49-1.09-.99-2.17-1.52-3.23-.27-.53-.67-1.01-.92-1.55-.5-1.06-.97-2.14-1.4-3.23-.59-1.5-1.13-3.01-1.7-4.52-.15.22-.21.43-.26.64-.11.56-.21,1.12-.32,1.68-.3,1.49-.6,2.97-.89,4.46-.09.46-.17.92-.24,1.38-.06.41-.1.83-.15,1.24-.04.35.1.6.42.75.23.11.45.26.69.36.14.07.31.08.5.13.06-.32.13-.57.15-.82.09-1.14.15-2.28.24-3.41.05-.61.12-1.21.2-1.81.05-.42.25-.54.64-.38.13.06.27.18.33.3.15.31.27.64.39.96.15.36.29.74.45,1.1.3.68.63,1.34.92,2.02.21.48.37.97.57,1.45.31.74.67,1.47.97,2.22.46,1.15.88,2.32,1.34,3.47.5,1.26,1.08,2.49,1.72,3.69.17.32.4.43.69.47.23.03.48-.04.72-.03.86.02,1.72.07,2.58.08.47.01.94,0,1.4-.07.9-.14,1.8-.29,2.7-.48.64-.14,1.29-.11,1.94-.16.29-.03.58-.08.87-.1,1.19-.09,2.37-.16,3.56-.24.75-.05,1.51-.11,2.26-.19.55-.05,1.09-.18,1.64-.23.67-.05,1.34-.04,2.02-.08.44-.02.89-.06,1.34-.09.55-.04,1.11-.16,1.65-.09,1.04.13,2.07.01,3.1-.08,1.47-.14,2.94-.38,4.4-.61,1.05-.16,2.1-.1,3.15.01.23.03.37.19.42.41.06.26.09.54.12.81.05.59.1,1.17.14,1.76.04.65.06,1.31.07,1.97.01.26-.03.54-.05.84.17.01.31.04.44.02Z"/>
    </g>
  </g>
</svg>