<?xml version="1.0" encoding="UTF-8"?>
<svg xmlns="http://www.w3.org/2000/svg" viewBox="0 0 136.06 136.06">
  <defs>
    <style>
      .cls-1 {
        fill: #fff;
      }

      .cls-2 {
        fill: #0c3454;
      }

      .cls-3 {
        fill: #e0e1e3;
      }
    </style>
  </defs>
  <g id="Layer_3" data-name="Layer 3">
    <rect class="cls-3" x="0" width="136.06" height="136.06"/>
  </g>
  <g id="B_W" data-name="B&amp;amp;W">
    <g>
      <path class="cls-1" d="m51.33,77.24c.04.06.03.19,0,.27-.11.27-.24.54-.37.85-.31-.2-.56-.39-.76-.64-.05-.07-.07-.22-.03-.29.17-.27.36-.53.54-.79.32.13.46.38.62.6Z"/>
      <path class="cls-1" d="m49.32,78.17c.05.05.08.19.05.25-.14.33-.31.65-.49,1.02-.39-.32-.72-.59-1.08-.89.19-.38.37-.75.58-1.16.34.28.65.52.94.78Z"/>
      <path class="cls-1" d="m46.45,78.95c-.06.32-.18.62-.43.88-.38-.17-.72-.4-1.01-.7.1-.38.3-.65.6-.82.28.21.55.42.84.64Z"/>
      <path class="cls-1" d="m45.3,71.42c-.28.55-.46,1.09-.83,1.55-.58-.31-.91-.84-1.35-1.26.19-.56.54-1.01.91-1.46.43.4.84.78,1.27,1.17Z"/>
      <path class="cls-1" d="m48.74,70.79c-.32.42-.62.82-.95,1.26-.53-.21-.86-.74-1.41-1,.33-.53.64-1.03.96-1.54.58.33.99.8,1.4,1.28Z"/>
      <path class="cls-1" d="m50.57,70.07c.02.36.14.71.1,1.15-.4-.38-.74-.7-1.11-1.05.24-.42.47-.86.89-1.24.04.41.1.77.12,1.14Z"/>
      <path class="cls-1" d="m60.65,100.29c.03.15,0,.31,0,.53-.3-.11-.55-.17-.79-.28-.07-.03-.1-.17-.14-.26.23-.26.53-.13.77-.2.04,0,.14.13.15.21Z"/>
      <path class="cls-1" d="m60.67,101.77c.22.21.42.42.69.68-.32-.11-.56-.19-.84-.29.05-.15.1-.27.15-.39Z"/>
      <path class="cls-1" d="m60.65,100.93c-.01.39.06.77-.25,1.12-.18-.45-.35-.87-.54-1.36.3.09.54.16.79.24Z"/>
      <path class="cls-1" d="m61.51,102.66c-.19.28-.36.54-.56.84-.17-.43-.31-.79-.47-1.17.4-.03.68.17,1.03.33Z"/>
      <path class="cls-1" d="m63.81,105.51c.08.11.12.22.03.36-.16.25-.3.52-.44.79-.39-.15-.75-.29-1.11-.43-.08-.03-.14-.09-.22-.14h0c-.02-.13-.1-.28-.05-.37.13-.27.32-.52.48-.77.26.1.49.18.71.26h.01c.19.1.39.19.58.29h.01Z"/>
      <path class="cls-1" d="m65.27,106.32c-.13.34-.26.66-.38.98-.26.05-.48.06-.67-.12-.1-.08-.24-.12-.36-.18.1.1.19.2.32.35-.33.03-.63.05-1.01.08.12-.23.2-.4.29-.58.09.02.17.04.25.05l-.2-.2c.17-.31.33-.62.51-.92.02-.04.1-.04.15-.06h0c.1.07.19.16.29.21.26.14.52.26.81.39Z"/>
      <path class="cls-1" d="m67.4,104.23c-.11.36-.23.72-.34,1.09-.15-.04-.24-.07-.34-.11h-.03c-.16-.13-.31-.25-.47-.35-.34-.2-.35-.2-.21-.61.3.03.49-.12.58-.42.3.05.52.25.81.4Z"/>
      <path class="cls-1" d="m65.86,104.23c-.02.12-.04.21-.06.32-.25-.1-.47-.2-.7-.29.13.08.25.17.39.25q.33.18.22.52c-.13.38-.27.75-.41,1.16-.41-.09-.74-.36-1.13-.48-.01-.07-.05-.14-.03-.19.19-.44.4-.88.6-1.33.11.01.2.02.29.03.04-.03.07-.1.1-.1.24.03.47.07.73.11Z"/>
      <path class="cls-1" d="m68.7,105c-.11.42-.21.81-.32,1.2-.01.04-.09.07-.14.1h0c-.02.19-.03.36-.06.59-.56-.05-1.08.32-1.62-.06.16-.42.32-.82.49-1.27.23.14.46.25.67.37-.18-.17-.38-.34-.59-.52.12-.36.24-.73.38-1.15.42.26.8.5,1.19.74Z"/>
      <path class="cls-1" d="m69.15,103.66c-.13.4-.26.81-.4,1.25-.4-.25-.78-.49-1.19-.74.13-.42.26-.84.39-1.29.45.19.82.46,1.2.78Z"/>
      <path class="cls-1" d="m67.53,102.53c.1.1.2.18.33.3-.13.42-.26.85-.41,1.31-.26-.15-.48-.28-.73-.42.25-.43.11-.85-.03-1.27-.03-.11-.03-.23-.06-.41.34.18.61.33.87.48h.01s.01,0,.01,0h.01Z"/>
      <path class="cls-1" d="m67.29,99.15c-.11.43-.21.85-.33,1.32-.28-.16-.55-.32-.81-.47.02-.09.03-.15.05-.21.2-.64.32-.71,1.09-.64Z"/>
      <path class="cls-1" d="m67.37,98.3c.04.2.07.39.1.61-.15.04-.27.07-.4.09-.38.05-.76.11-1.15.14-.26.02-.52-.01-.79.01-.3,0-.6.04-.89.07-.05,0-.1-.02-.16-.03-.04-.15-.07-.29-.12-.49,1.14-.16,2.25-.35,3.41-.4Z"/>
      <path class="cls-1" d="m65,99.44c-.11.28-.19.51-.3.8-.27-.27-.48-.49-.72-.74.35-.13.66-.15,1.02-.06Z"/>
      <path class="cls-1" d="m65.99,100c-.1.36-.19.69-.29,1.04-.29-.14-.5-.3-.54-.63-.13-.04-.23-.06-.37-.1.09-.26.19-.51.3-.8.31.17.59.32.9.49Z"/>
      <path class="cls-1" d="m66.93,100.57c.03.45-.19.85-.3,1.32-.32-.23-.6-.43-.87-.64.11-.41.21-.76.32-1.16.29.16.56.32.85.48Z"/>
      <path class="cls-1" d="m67.9,102.3c.09.12.08.23-.01.36-.13-.05-.24-.09-.36-.13h-.01s-.01,0-.01,0h-.01c-.11-.12-.23-.21-.35-.3-.12-.1-.25-.19-.41-.3.11-.41.21-.82.32-1.24.38.1.4.14.47.44.1.4.11.82.37,1.17Z"/>
      <path class="cls-1" d="m68.03,102.63c.17.13.31.23.44.33-.17-.06-.41-.04-.44-.33Z"/>
      <path class="cls-1" d="m70.32,103.99c.15.08.06.2-.05.32-.34-.24-.67-.48-.99-.71.01-.02.02-.04.04-.06.33.15.67.28,1,.45Z"/>
      <path class="cls-1" d="m70.3,104.47c-.14.37-.29.74-.45,1.15-.35-.22-.67-.42-1.02-.63.14-.42.26-.81.41-1.3.38.28.7.52,1.06.78Z"/>
      <path class="cls-1" d="m72.02,105.67c.26.23.48.41.73.63-.37.15-.69.19-1.04.15,0-.28.19-.47.31-.78Z"/>
      <path class="cls-1" d="m71.9,105.62c-.11.28-.21.53-.33.76-.07.15-.35.22-.51.14-.19-.08-.24-.19-.17-.41.1-.29.21-.59.32-.94.24.15.45.29.69.45Z"/>
      <path class="cls-1" d="m72.29,104.39c.17.02.24.14.16.28-.14.29-.3.56-.47.88-.27-.18-.5-.34-.75-.52.05-.24.1-.47.15-.71.32.02.62.04.91.07Z"/>
      <path class="cls-1" d="m73.2,105.09c-.12.33-.24.7-.39,1.11-.25-.2-.47-.38-.73-.59.16-.3.32-.62.5-.92.02-.04.13-.04.19-.05.14.14.27.28.43.45Z"/>
      <path class="cls-1" d="m74.63,106.07s-.02.05-.02.08c-.16,0-.31.02-.52.04.07-.16.12-.28.18-.44.15.13.25.22.36.32Z"/>
      <path class="cls-1" d="m74.13,105.57c.06.22-.08.38-.17.56-.03.05-.09.09-.15.1-.28.04-.56.07-.92.11.1-.46.25-.83.42-1.21.29.15.55.3.82.44Z"/>
      <path class="cls-1" d="m73.55,104.09c-.11.33-.19.58-.29.87-.19-.12-.34-.22-.49-.33-.14-.28-.13-.31.15-.38.18-.05.36-.09.63-.16Z"/>
      <path class="cls-1" d="m71.34,100.97c.31-.05.71.14.83.41-.34-.03-.55-.24-.83-.41Z"/>
      <path class="cls-1" d="m71.3,100.82s-.03.05-.04.07q-.41-.04-.42-.38c.18.12.32.22.46.31Z"/>
      <path class="cls-1" d="m71.33,98.89c.22.01.36.24.32.47-.01.08-.04.16-.09.3-.27-.14-.51-.25-.73-.38-.14-.08-.13-.09-.13-.37.21,0,.42-.04.63-.02Z"/>
      <path class="cls-1" d="m71.59,99.77c-.09.33-.16.6-.25.92-.19-.11-.36-.19-.51-.3-.08-.07-.14-.2-.16-.3-.02-.23,0-.46,0-.75.32.15.6.28.92.43Z"/>
      <path class="cls-1" d="m72.32,100.12c-.04.32-.08.63-.13.99-.28-.13-.5-.24-.74-.36.08-.31.16-.6.25-.94l.62.31Z"/>
      <path class="cls-1" d="m72.97,101.2v.26c-.25-.1-.47-.19-.71-.29.05-.26.09-.5.14-.77.11.11.19.2.28.29h.01c.09.18.18.34.28.51Z"/>
      <path class="cls-1" d="m73.18,101.68c.13.09.13.22.03.58-.35-.3-.68-.56-.96-.9.34.05.65.15.93.32Z"/>
      <path class="cls-1" d="m73.44,102.12c.11.22.2.39.3.6-.33-.27-.39-.38-.3-.6Z"/>
      <path class="cls-1" d="m73.97,102.96c.2.26.41.52.53.84-.24-.07-.45-.13-.48-.43-.01-.13-.1-.24-.16-.36.03-.02.07-.04.11-.05Z"/>
      <path class="cls-1" d="m74.77,104.11c-.13.4-.25.79-.38,1.18-.05.12-.1.25-.26.27-.14-.1-.27-.21-.41-.31-.12-.08-.24-.16-.37-.25.1-.31.18-.62.31-.9.07-.14.22-.24.35-.38.26.13.5.26.76.39Z"/>
      <path class="cls-1" d="m75.94,105.83c-.39.09-.73.18-1.1.26-.18-.15-.33-.27-.48-.4.16-.47.32-.93.51-1.46.36.56.76,1.02,1.07,1.6Z"/>
      <path class="cls-2" d="m68.18,46.85c-.16.17-.16.18-.1.42.05-.18.08-.31.1-.42Zm-2.64,6.65c.15.81.33,1.18.65,1.3l-.65-1.3Zm17.4,11.4c0-.19.02-.3-.01-.43-.07-.31-.2-.62-.26-.93-.07-.39-.29-.6-.62-.73-.36-.15-.73-.22-1.14-.21v.44c1.06.21,1.62.91,2.03,1.86Zm-13.48-7.43c.03.16.13.26.27.29.02-.02.03-.04.05-.07-.11-.07-.21-.15-.32-.22Zm1.3,49c-.23-.19-.39-.32-.55-.46-.09-.08-.17-.18-.26-.27.25.16.5.32.77.5.18-.33.29-.68.37-1.04.01-.06-.02-.16-.06-.19-.2-.16-.42-.3-.66-.47-.15.43-.29.81-.42,1.2-.14.29-.28.59-.45.96.45-.11.81-.06,1.26-.23Zm18.35-52.56c.01.16,0,.33-.05.47-.07.17-.18.31-.39.34-.11.01-.21.03-.34.04,0,.13,0,.24,0,.34-.02.33-.04.65-.06.98,0,.13-.01.27,0,.4.07.78.15,1.56.21,2.35.04.66.06,1.32.09,1.98.03.54.09,1.06.11,1.6.03.67.02,1.35.03,2.02.02,1.09.03,2.18.05,3.27,0,.33.03.65.03.98v3.59c0,.42-.01.84,0,1.26.01.69.04,1.39.04,2.09,0,.58.02,1.16,0,1.74-.01.49-.08.99-.1,1.48-.03.52-.02,1.04-.05,1.55-.01.47-.06.94-.07,1.42-.03.73-.04,1.47-.07,2.21-.02.73-.05,1.47-.07,2.2-.01.35.01.7.01,1.05-.01.71,0,1.42-.01,2.13-.02.74-.07,1.47-.11,2.21,0,.11,0,.22-.01.33-.01.75-.01,1.5-.03,2.25,0,.21-.05.43-.06.64-.05.9-.07,1.79-.13,2.69-.06.93-.13,1.85-.21,2.78-.07.72-.15,1.44-.21,2.16-.02.19.03.38.05.57.02.09.05.18.06.28.01.51.01,1.02.03,1.52,0,.15.03.29.05.43.06.29-.03.57-.16.8-.19.32-.43.62-.77.81-.23.14-.41.16-.59-.03-.26-.29-.48-.61-.7-.92-.04-.05-.02-.14-.03-.21-.02-.13-.04-.25-.06-.36-.51.04-.98.11-1.44.11-.69-.01-1.37-.05-2.06.02-.33.04-.67-.05-1-.09-.07-.01-.14-.02-.2-.03-.1.32-.18.62-.29.91-.23.59-1.01.79-1.45.55-.17-.09-.31-.2-.42-.32-.09-.09-.16-.19-.21-.3-.07-.15-.11-.31-.1-.51,0-.54-.05-1.08-.07-1.63-.06-1.49-.23-2.96-.64-4.4-.25-.86-.59-1.69-1.06-2.45-.39-.62-.75-1.25-1.13-1.87-.07-.11-.16-.21-.23-.32-.09-.13-.17-.26-.24-.4-.32-.62-.65-1.22-1.11-1.81-.21.6-.19,1.19-.27,1.76-.08.58-.14,1.15-.22,1.72-.07.59-.04,1.18-.17,1.77-.47.1-.85-.16-1.26-.2-.4-.03-.8-.09-1.25-.15-.01.06-.03.15-.07.31.2,0,.35-.01.5,0,.63.01,1.08.3,1.38.84.31.55.62,1.1.97,1.62.72,1.06,1.47,2.09,2.22,3.14.33.46.65.93,1.02,1.36.33.37.71.69,1.07,1.03.13.12.24.25.38.34.06.04.11.09.14.14.14.17.17.38.15.62-.06.72-.1,1.43-.15,2.14-.02.22.01.41.16.6.23.3.2.93-.29,1.11-.05.02-.08.05-.14.08v.51c.12.13.25.27.41.44-.15.26-.45.4-.67.61s-.47.4-.71.61c-.51-.44-1.14-.63-1.55-1.15.06-.07.12-.14.17-.2.13-.14.22-.27.15-.48-.09-.25.12-.39.27-.58-.06-.1-.12-.2-.19-.3-.14-.22-.15-.45,0-.65s.18-.4.14-.64c-.02-.12-.02-.24-.02-.36-.67-.07-1.32.05-1.96.11-.58.07-1.16.11-1.73.19-.43.06-.86.14-1.28.23-.53.12-1.04.22-1.58.23-.79,0-1.57.07-2.36.08-.53.01-1.06-.04-1.59-.07-.88-.05-1.76-.1-2.62-.15-.13.14-.09.26-.01.38.21.37.21.4-.07.74-.14.16-.13.3,0,.45.12.13.13.26.05.42-.04.08-.02.19-.02.29-.29-.18-.36-.17-.65.12-.34.35-1.04.18-1.17-.29-.1-.35-.15-.36-.48-.17.02.07.04.13.06.2h-.02c-.08-.06-.17-.14-.29-.25.14-.08.24-.14.31-.18.08-.21.15-.39.21-.58.06-.17.08-.31-.03-.5-.18-.29-.21-.62.09-.89.06-.07.11-.19.11-.29.03-.46-.03-.92-.19-1.35-.24-.67-.47-1.34-.73-2.01-.23-.57-.48-1.13-.72-1.7-.04-.08-.1-.16-.16-.26-.16.18-.16.38-.15.57,0,.2-.06.42.09.62.09.13,0,.28-.11.39-.18.18-.2.36-.04.58.18.25.11.4-.19.5-.07.02-.14.04-.23.06,0,.1.01.19.01.28h-.01c-.05,0-.11-.03-.15-.01-.56.33-.7.3-1.05-.23-.01-.02-.04-.03-.07-.06-.06.04-.12.08-.2.13.09.13.17.23.23.34.07.11.12.22.17.33-.24-.2-.4-.45-.58-.76.14-.06.26-.11.4-.16,0-.06.02-.14-.01-.19-.08-.11-.15-.21-.1-.36.05-.16.15-.27.31-.32.04-.01.08-.05.13-.09-.07-.1-.14-.18-.2-.27-.12-.23-.17-.44.01-.68.08-.11.12-.26.15-.4.13-.64.25-1.28.38-1.92.1-.5.22-.99.33-1.49.07-.34.13-.69.39-.93-.26,0-.51-.01-.76,0-.1,0-.2.03-.28.06-.73.28-1.47.46-2.22.64-.15.04-.3.09-.48.14-.01.18-.04.35-.04.53.03.84.06,1.67.1,2.5.01.22.08.43.11.65.1.74.2,1.48.29,2.22.01.05.01.09.01.15v.22c.02.32-.06.45-.36.52-.22.05-.45.06-.68.08-.34.04-.69.11-1.03.11-.38.01-.76-.02-1.15-.23v-1.13c0-.63.01-1.26.01-1.89-.01-.58-.02-1.16-.05-1.74-.04-.63-.1-1.25-.15-1.88-.01-.08-.05-.16-.07-.24-.61-.08-1.19-.05-1.78.06-.45.08-.93.05-1.39.07-.06,0-.12,0-.18.01-.16.01-.31.05-.47.04-.49-.04-.98-.02-1.52.09-.02.15-.05.31-.05.47-.04.84-.08,1.67-.11,2.5,0,.05-.01.1,0,.14.21.49.1,1.01.14,1.51.01.14.01.27.02.4.07.52-.19.89-.72.95-.31.04-.63.03-.95.03-.42.01-.83-.02-1.24-.12-.18-.05-.26-.15-.27-.29-.01-.18-.01-.38.04-.54.26-.84.36-1.7.38-2.57.01-.39.07-.77.09-1.16.04-.58.06-1.16.09-1.74.04-.93-.1-1.85-.16-2.77-.04-.69-.11-1.37-.15-2.05-.02-.38,0-.76-.02-1.13-.01-.12-.11-.23-.12-.36-.04-.22-.06-.45-.06-.67-.02-.59-.18-1.14-.27-1.71-.06-.37-.08-.75-.13-1.12-.03-.3-.04-.6-.09-.89-.1-.68-.17-1.37-.24-2.05-.01-.11.03-.23.04-.35.01-.07.02-.15,0-.21-.23-.43-.24-.92-.32-1.39-.18-1.03-.31-2.08-.48-3.11-.05-.32-.17-.63-.1-.96-.23-.74-.26-1.52-.35-2.28-.03-.3-.04-.6-.05-.91-.01-.95-.04-1.91-.18-2.85-.15-.93-.23-1.88-.41-2.8-.12-.63-.37-1.22-.53-1.84-.17-.63-.33-1.26-.44-1.9-.06-.33.11-.61.4-.79.13-.09.25-.19.39-.26.12-.06.26-.11.4-.13.39-.05.61.17.79.49.22.37.24.79.35,1.18.01.04.02.09.04.15.3-.03.57-.07.85-.19.42-.17.85-.32,1.29-.45.67-.2,1.34-.4,2.02-.57.57-.15,1.15-.26,1.73-.38.51-.11,1.03-.22,1.55-.32.2-.05.4-.09.65-.14.02-.22.06-.47.04-.71-.02-.53.06-1.04.19-1.54.14-.49.33-.96.54-1.42.24-.51.53-1,.8-1.5.22-.39.42-.79.76-1.1.13-.12.25-.25.39-.38.39-.35.79-.7,1.19-1.05.05-.05.11-.1.13-.17.15-.45.49-.74.86-1,.25-.18.45-.47.81-.51.04-.01.1-.07.12-.12.22-.44.65-.57,1.06-.7.39-.12.7-.29.93-.63.21-.33.51-.54.91-.59.11-.02.22-.09.34-.12.1-.03.21-.05.39-.1.02-.02.11-.11.17-.21.04-.08.1-.18.08-.26-.04-.27.02-.52.08-.78.2-.88.39-1.77.58-2.65.07-.36-.04-.69-.22-.97-.3-.51-.42-1.08-.54-1.64-.05-.2-.08-.4-.13-.6-.08-.33-.09-.66-.06-1,.02-.21-.03-.43-.03-.65.01-.83.11-1.64.47-2.4.08-.17.08-.37.12-.56.03-.12.08-.23.12-.34-.11-.18-.24-.36-.34-.55-.3-.57-.22-1.16-.14-1.77.12-.93.54-1.75.84-2.61.17-.48.41-.93.61-1.39.17-.39.45-.69.79-.93.19-.14.37-.28.56-.39.29-.18.59-.33.93-.4.5-.11.99-.29,1.49-.44.04-.01.07-.02.11-.02.59-.02,1.18-.05,1.77-.07.35-.01.7,0,1.08,0,.05-.11.11-.22.13-.33.08-.42.27-.76.59-1.05.31-.28.56-.61.72-1.02.2-.54.61-.92,1.08-1.23.23-.16.45-.32.69-.47.15-.09.31-.16.48-.25.21.25.31.5.32.78,0,.39-.02.78-.04,1.16-.01.22-.01.44.15.64.57-.27,1.03-.69,1.46-1.14.2-.2.41-.4.64-.62.16.25.21.48.16.74-.12.63-.23,1.26-.35,1.89,0,.08,0,.15,0,.26,1.07-.44,2.06-.99,3.24-1.13-.01.14,0,.3-.04.45-.12.52-.39.96-.68,1.4-.07.1-.11.22-.19.38.52-.11.96-.11,1.42-.07.44.03.89-.15,1.38-.11-.1.31-.17.6-.27.87-.12.29-.25.57-.4.85-.13.26-.3.51-.46.78.2.1.45.01.55.24.01.01.1.01.14-.01.4-.17.82-.02,1.23-.08.4-.05.72.19,1.11.29-.12.3-.3.51-.52.68-.43.36-.86.73-1.42.92-.24.08-.45.28-.68.41-.28.16-.57.31-.88.48.02.22-.12.36-.32.47-.22.12-.43.28-.65.4-.15.09-.32.14-.49.2-.13-.16-.23-.29-.36-.46-.08.16-.14.3-.22.44-.07.14-.16.28-.22.42-.21.52-.42,1.05-.62,1.58-.21.55-.42,1.1-.58,1.67-.14.49-.21,1.01-.31,1.52-.03.18-.06.36-.1.53-.11.41-.33.51-.71.35-.2-.1-.42-.17-.61-.28-.24-.14-.47-.29-.71-.44-.22-.14-.44-.29-.66-.44-.11-.08-.22-.1-.33-.03-.17.09-.32.21-.49.32.23.27.29.55.26.84-.01.12-.05.24-.11.34-.11.2-.24.39-.38.59-.06.01-.14.04-.22.05-.22.03-.3.15-.33.38-.02.23-.13.46-.24.67-.04.08-.19.11-.3.18.06.25-.01.52-.17.75-.17.25-.22.47-.06.77.21.39.1.83.04,1.24-.04.26-.15.52-.17.78-.03.45-.02.91,0,1.37.01.34.06.68.28.96.23.28.47.56.68.85.15.21.3.43.41.67.12.25-.09.53-.36.54-.28.02-.56.1-.81-.1-.02-.01-.05-.02-.07-.02-.65-.01-1.13-.46-1.71-.63-.13-.04-.25-.12-.33-.22-.53-.63-1.18-1.14-1.63-1.84-.11-.18-.19-.39-.3-.58-.02-.05-.07-.09-.12-.16-.31.21-.46.49-.51.84-.04.27-.07.55-.12.87.13.03.26.08.39.07.54-.03.93.24,1.29.57.7.64,1.17,1.44,1.63,2.25.21.36.34.73.48,1.12.07.18.16.36.26.58.17-.16.37-.32.53-.5.35-.38.66-.79,1.01-1.16.47-.5.97-.98,1.47-1.45.86-.8,1.77-1.52,2.77-2.15.52-.33,1-.72,1.5-1.08.88-.64,1.78-1.24,2.87-1.49.61-.13,1.2-.35,1.82-.45.52-.09,1.06-.08,1.59-.09.6-.02,1.2,0,1.8-.01.18,0,.36-.04.54-.06,1.02-.16,2.04-.34,3.08-.3.19.01.39-.02.58-.02.44,0,.83.12,1.17.41.05.51.1,1.01.13,1.51Zm-.59,25.63c.06-1.18.14-2.36.11-3.54-.04-1.58,0-3.17-.01-4.75-.01-1.25-.05-2.51-.07-3.77-.01-1.04,0-2.08,0-3.11-.01-.63-.01-1.26-.03-1.89s-.07-1.25-.12-1.87c-.09-1.26-.19-2.51-.27-3.76-.02-.31.01-.62.01-.94.01-.38.09-.76-.02-1.18-.33.02-.64.05-.97.08.03.71.06,1.37.08,2.03.03.65.04,1.29.07,1.93.02.53.04,1.06.07,1.59.02.44.06.87.07,1.31.02.51.02,1.03.03,1.55.01.43.04.87.04,1.3.02.65.01,1.3.03,1.95.03.67.09,1.34.12,2.02.02.44.03.89.04,1.34.02.43.06.86.06,1.3-.01.95-.04,1.91-.07,2.86-.04.98-.11,1.96-.16,2.94-.07,1.2-.14,2.41-.21,3.62-.03.67-.06,1.35-.1,2.03-.04.78-.09,1.56-.13,2.35-.02.49-.01.99-.07,1.48-.1.91-.16,1.83-.16,2.74,0,.23.01.46,0,.69-.07.9-.14,1.81-.2,2.71-.04.53-.06,1.06-.09,1.59-.06,1-.12,2-.19,2.99-.04.63-.1,1.26-.14,1.88-.02.33-.07.65.16.94.35.47.58,1,.81,1.54.08.2.17.41.25.61.13-.81.21-1.61.29-2.41.07-.74.14-1.49.19-2.24.08-1.31.16-2.63.21-3.94.05-.97.06-1.94.08-2.91.01-.38,0-.77.01-1.16.02-.61.05-1.23.06-1.84.01-.6,0-1.2.01-1.8.01-1.11.03-2.22.07-3.33.04-.98.1-1.96.14-2.93Zm-.98-6.4c.12-.7.04-1.4.05-2.1.02-.73-.03-1.46-.06-2.19-.01-.35-.03-.7-.05-1.05-.03-.45-.08-.89-.1-1.33-.02-.67-.01-1.33-.02-2-.01-.51-.03-1.03-.05-1.54-.02-.69-.05-1.38-.08-2.07-.01-.33-.01-.67-.02-1.01-.03-.76-.07-1.52-.1-2.28-.04-.89-.07-1.78-.11-2.75-.38.04-.7.05-1.02.09-.34.04-.35.08-.31.42.04.35.09.7.1,1.05.02.85.03,1.71.03,2.56-.01,1.07-.02,2.13-.03,3.2,0,.35.02.7-.01,1.04-.08.71.05,1.4.08,2.09.02.51.07,1.01.07,1.52.02,1.08,0,2.15.14,3.23.07.47.08.96.08,1.44,0,.38-.05.75-.06,1.12-.01.27.03.53.03.8-.01.82-.02,1.64-.04,2.46-.01.79-.03,1.57-.04,2.35-.01.52.03,1.05-.05,1.56-.15,1.02-.11,2.04-.2,3.06-.02.24-.03.48-.04.73-.04.66-.07,1.32-.11,1.99-.06.94-.12,1.88-.19,2.82-.04.6-.09,1.2-.14,1.8-.09,1.04-.19,2.07-.29,3.1-.1,1-.21,2-.31,2.99-.03.28-.06.56-.08.83-.03.29.08.52.26.73.33.41.65.84.98,1.25.04.05.1.09.18.15.04-.5.09-.95.12-1.4.03-.63.04-1.26.07-1.89.03-.41.07-.82.11-1.22.05-.62.11-1.23.15-1.85.04-.59.06-1.18.09-1.77.05-.85.09-1.69.13-2.54.02-.43.03-.86.06-1.29.04-.75.11-1.49.16-2.24.06-.84.1-1.68.15-2.53.05-1.02.09-2.05.14-3.07.04-.75.07-1.5.11-2.25.06-.99.15-1.98.21-2.96.02-.35-.04-.71.01-1.05Zm-.72,33.23c.36-.28.44-.55.28-1.1-.26.02-.53.05-.83.07.13.43.14.84.55,1.03Zm.21-1.99c-.03-.66-.13-1.27-.27-1.87-.06-.29-.2-.57-.29-.86-.38-1.2-1.09-2.2-1.87-3.16-.41-.49-.82-.98-1.22-1.48-.22-.29-.4-.61-.61-.9-.42-.58-.86-1.14-1.27-1.72-.47-.64-.9-1.3-1.38-1.92-.63-.79-1.27-1.58-1.93-2.34-.67-.77-1.3-1.57-2.09-2.22-.21-.17-.41-.34-.59-.54-.3-.33-.59-.67-.87-1.02-.6-.74-1.21-1.47-1.66-2.32-.39-.73-.75-1.49-1.1-2.24-.2-.41-.35-.85-.52-1.29-.76-.02-1.48-.39-2.28-.29.02.34.11.61.32.83.28.29.54.6.85.83.63.47,1.04,1.11,1.5,1.71.38.52.58,1.14.8,1.74.21.58.42,1.18.61,1.77.14.45.24.91.38,1.36.16.51.38.99.43,1.54.06.54.12,1.08.11,1.63,0,.08.01.17.05.23.25.38.51.74.77,1.1.32.47.65.93.96,1.4.33.51.62,1.03.94,1.54.16.26.34.51.44.81.02.07.07.13.1.19.16.29.35.57.47.88.2.48.46.94.57,1.47.05.21.07.43.15.62.27.67.3,1.37.33,2.07.03.83.05,1.67.08,2.5,0,.03.02.07.04.11,2.68.35,5.35.14,8.05-.16Zm-1.15-32.04c.11-.78.05-1.57-.03-2.34-.11-1.04-.13-2.07-.13-3.1,0-.55-.04-1.09-.07-1.63-.03-.52-.11-1.04-.1-1.55.02-1.54.1-3.08.11-4.61.01-1.1-.05-2.2-.1-3.3-.01-.26-.07-.52-.11-.81-.49.05-.96.11-1.45.17,0,.12,0,.21,0,.29.11.94.22,1.89.33,2.83.05.42.1.84.13,1.27.06.97.11,1.95.18,2.93.05.91.15,1.83.18,2.74.05,1.45.08,2.9.07,4.35,0,1.1-.08,2.2-.12,3.3-.01.34.01.68-.01,1.02-.03.84-.09,1.69-.13,2.53-.03.77-.06,1.55-.09,2.32,0,.19,0,.39-.01.58-.03.37-.08.74-.11,1.11-.02.28-.02.56-.04.84-.06.73-.13,1.47-.18,2.2-.06.7-.1,1.4-.15,2.09-.07.77-.15,1.54-.22,2.31l-.21,1.98c-.05.45-.15.89-.17,1.33-.05,1.22-.16,2.44-.34,3.64-.04.24-.03.49.13.7.36.49.72.98,1.13,1.55.04-.18.06-.27.07-.35.08-.64.15-1.29.23-1.94.04-.33.1-.67.13-1,.08-.89.14-1.78.21-2.67.04-.43.12-.86.16-1.29.04-.45.05-.91.08-1.37.05-.91.11-1.81.16-2.72.02-.28,0-.58.02-.86.12-.99.14-1.98.18-2.97.03-.51.07-1.03.1-1.55.05-.83.1-1.66.14-2.49.03-.58.04-1.16.05-1.74,0-.28-.01-.57-.01-.86-.01-.32,0-.65,0-.97v-.84c-.01-.37-.06-.75-.01-1.12Zm-1.19-1.93c.01-1.15-.01-2.3-.02-3.45-.01-.68-.03-1.36-.05-2.05-.03-.7-.03-1.4-.11-2.1-.15-1.22-.18-2.45-.26-3.68-.03-.4-.07-.8-.12-1.19-.07-.65-.16-1.3-.24-1.94-.04-.26-.09-.52-.13-.79-.34.05-.65.1-.96.14-.15.02-.21.1-.2.24,0,.08-.01.15,0,.22.05.43.09.87.14,1.3.09.68.17,1.37.27,2.05.11.81.3,1.62.34,2.43.06,1.04.02,2.08.01,3.12,0,.44-.01.87-.04,1.31-.02.43-.07.86-.1,1.29-.05.91-.12,1.82-.07,2.74,0,.27-.05.55-.06.82,0,.2-.03.42.04.6.13.36.32.7.47,1.05.15.32.29.66.23,1.01-.05.31-.05.62-.08.93-.03.25-.13.49-.19.73-.02.08-.04.16-.03.24.04.67-.21,1.23-.69,1.64-.24.21-.26.4-.24.68.11.01.22.02.32.03.28.04.47.19.56.46.08.23-.06.41-.21.53-.14.12-.33.19-.51.25-.1.04-.21.03-.34.04-.05.82-.08,1.61-.15,2.41-.08.99-.18,1.98-.27,2.98-.07.78-.13,1.56-.22,2.34-.07.65-.11,1.3-.29,1.93-.09.34-.14.69-.2,1.03-.12.77-.22,1.53-.36,2.29-.02.16-.02.27.07.4.42.58.82,1.17,1.24,1.74.19.26.39.51.64.83.04-.26.07-.42.08-.58.09-.81.28-1.6.26-2.42-.01-.41.05-.82.1-1.23.11-1.05.24-2.11.35-3.16.07-.6.13-1.2.18-1.8.05-.57.08-1.14.12-1.7.03-.42.06-.85.09-1.27s.08-.84.11-1.26c.03-.57.05-1.13.09-1.7.06-.79.14-1.59.18-2.38.04-.55.02-1.09.04-1.63.03-.92.08-1.84.11-2.76.01-.26.02-.53.03-.79.02-.64.07-1.28.07-1.92Zm-1.16,3.58c.23-.43.16-.84-.03-1.26-.1-.23-.19-.47-.31-.69-.09-.14-.07-.36-.29-.43-.2.39.05.59.36.76-.12.13-.22.07-.31.02-.28-.19-.32-.49-.28-.88-.12.11-.2.15-.23.21-.15.32-.1.64,0,.96.08.25.21.5.2.75-.03.67-.05,1.01-.85,1.3-.59.22-1.19.19-1.79.08-.08-.02-.17-.08-.25-.13-.39-.25-.49-.66-.5-1.07-.02-.5.43-1.15,1.09-.97.25.07.49.04.75-.06.3-.12.49-.34.68-.57.18-.23.04-.51-.29-.61.03.54-.29.84-.73,1.05-.38-.12-.63-.39-.82-.73-.71.06-1.38.23-1.99.55-.47.25-.89.61-1.34.91-.15.09-.22.21-.23.38,0,0-.03.02-.09.06-.02-.05-.05-.12-.1-.21-.38.41-.86.51-1.32.67-.23.07-.44.18-.66.27-.29.13-.44.36-.51.66-.2.83,0,1.58.43,2.28.13.22.31.44.59.46.38.02.77,0,1.13-.13.29-.09.58-.13.89-.11.68.04,1.36.13,1.98.44.51.26,1.01.54,1.58.69.53.14,1.05.27,1.59.34.13.02.26-.03.38-.04.04-.71.3-.85.93-.58.03.01.08.01.19.01-.11-.11-.15-.2-.22-.21-.21-.04-.43-.08-.64-.06-.48.05-.96.12-1.43.21-.23.05-.43,0-.64-.05-.19-.07-.35-.28-.33-.46.02-.21.19-.27.35-.3.47-.11.96-.09,1.41-.29.03-.02.07-.01.11-.01.63-.05,1.26-.68,1.32-1.32,0-.04-.02-.08-.03-.17-.1.09-.15.15-.22.19-.2.13-.39.28-.6.38-.25.12-.54.17-.78.3-.34.17-.7.19-1.05.24-.21.04-.34-.09-.37-.34.39.23.76.13,1.12.02.28-.1.56-.23.84-.32.71-.2,1.06-.72,1.28-1.36.03-.07.01-.15.02-.22-.24.4-.55.69-.92.93-.38.24-.8.38-1.23.4-.41.02-.84.12-1.26-.1.04-.04.04-.06.05-.06h.14c.55.01,1.09.03,1.64-.15.55-.19,1-.47,1.29-.98.11-.21.19-.44.3-.65Zm-.32-11.24c.02-.65-.06-1.3-.15-1.95-.11-.79-.21-1.58-.31-2.37-.08-.63-.16-1.26-.24-1.9-.04-.35-.07-.71-.11-1.12-.69.19-1.36.3-1.96.56.15,2.18.3,4.32.45,6.48.11.01.22.02.32.03.38.05.74.14,1.08.31.2.1.34.26.42.47.09.22.17.43.24.65.08.27.14.53.14.79-.01.25-.08.49-.25.73-.06.08-.08.2-.1.31-.09.53-.13,1.07-.31,1.59-.14.41-.35.77-.71.97-.32.18-.6.43-.94.54-.04.43-.1.82-.09,1.22.01.39-.14.78-.01,1.18.22-.03.42-.08.63-.09.46-.02.72.26.67.71-.01.11-.06.24-.13.33-.27.35-.6.61-1.07.67-.12.01-.23.09-.35.14.18.11.1.29.11.44.01.37,0,.75,0,1.11.5.16.94.04,1.37-.15.24-.11.38-.27.47-.52.1-.29.12-.58-.01-.88-.1-.24-.18-.5-.21-.76-.02-.13,0-.24.01-.34.06-.29.26-.46.62-.53.03,0,.06-.02.13-.04,0-.28.01-.56,0-.85-.01-.31-.05-.62-.03-.93.02-.67.06-1.33.11-1.99.07-.93.17-1.86.15-2.79v-.07c0-.1,0-.19.02-.29.01-.55.03-1.11.04-1.66Zm-.03,15.83c-.47-.26-.65-.19-.7.28.29-.02.53-.03.7-.28Zm-.53-13.25c.07-.34.1-.67-.12-.97-.18-.24-.35-.49-.57-.7-.28-.26-.61-.46-1.03-.47v.57c.28.11.54.16.73.3.43.33.83.71.99,1.27Zm-.15.75c.11-.5-.03-.91-.29-1.3-.13-.19-.34-.34-.5-.51-.22-.24-.48-.32-.79-.26-.06.41-.01.74.38.93.09.05.14.14.22.2.4.33.55.78.54,1.28,0,.26-.07.52-.12.78-.04.25-.01.51-.21.71-.03.03-.02.09-.03.14l.07.05c.14-.16.32-.31.4-.49.14-.31.22-.64.32-.96.06-.19-.03-.4,0-.57Zm-.1,11.71v-.43c-.23,0-.44,0-.65.07-.27.1-.53.21-.84.17-.16-.02-.45-.01-.54.29.03.02.06.04.09.05.26.14.51.22.83.13.36-.11.75-.13,1.11-.28Zm-.67-10.36c.48-1.35.05-2.15-.79-2.54-.02.29-.04.56-.04.84,0,.11,0,.25.05.34.2.37.17.72-.02,1.07-.1.19-.15.4-.09.59.3-.1.6-.2.89-.3Zm-.53,1.07c.22-.24.4-.49.45-.84-.28-.04-.49.05-.64.25-.11.14-.03.36.19.59Zm-.39,3.72c.38-.15.54-.5.38-.89-.35.1-.7.21-1.08.32.19.41.5.65.7.57Zm1.42,7c-.71-.13-1.39-.26-2.1-.4.02.23.05.46.05.7-.02.8-.02,1.59-.07,2.39-.05.93-.12,1.85-.23,2.78-.1.89-.24,1.77-.37,2.65-.06.44-.13.88-.19,1.33-.06.55-.12,1.11-.19,1.71.56.47,1,1.13,1.57,1.67.94-4.27,1.27-8.57,1.53-12.83Zm-1.25-40.64c.06-.05.09-.13.14-.21-.05-.04-.09-.08-.13-.09-.29-.1-.56-.2-.88-.16-.27.04-.56-.04-.82.02-.5.12-.99.08-1.56.02.18-.25.32-.46.46-.66.13-.19.29-.37.38-.57.22-.46.4-.93.61-1.42-1.02-.03-1.93.23-2.86.63,0-.14-.03-.27,0-.36.15-.33.29-.67.5-.96.27-.4.47-.82.55-1.35-1.2.2-2.24.7-3.24,1.32-.1-.21-.07-.37-.03-.53.13-.67.26-1.33.4-1.99.04-.17.04-.31-.05-.46-1.02,1.06-1.43,1.39-2.24,1.76-.04-.09-.1-.18-.11-.28-.01-.24-.01-.48,0-.72.01-.34.04-.68.04-1.02,0-.23-.04-.45-.22-.61-1.1.54-1.99,1.27-2.36,2.54.19.11.4.28.64.38.7.29,1.4.56,2.02,1.01.15.11.32.21.47.33.41.34.83.69,1.24,1.04.29.25.59.5.86.77s.53.59.79.89c.37.43.74.85,1.11,1.27.17.19.35.38.49.58.18.26.33.53.53.84.16-.06.32-.1.46-.18.6-.31,1.21-.61,1.78-.97.38-.24.69-.57,1.02-.86Zm-.02,29.98c-.06-.16-.12-.31-.18-.46q-.01.47.18.46Zm-.22-3.34c.03-.57.03-.58-.54-.62-.43-.02-.85-.01-1.17.31v.99c.57-.18,1.12-.29,1.71-.06v-.62Zm-.02-2.45c.01-.15-.07-.21-.2-.18-.47.12-.96.19-1.4.46v.43c.54-.16,1.05-.3,1.55-.45.02-.1.05-.18.05-.26Zm-.04,1.08c-.01-.23.11-.42-.02-.62-.56.02-1.06.24-1.57.42-.02.34-.05.67-.07,1.02.38-.11.71-.26,1.07-.19.22.05.42-.02.62-.06v-.37c-.43-.11-.84-.06-1.24.01-.05-.19.07-.18.16-.18.35-.01.69-.02,1.05-.03Zm.01-1.45c0-.14.01-.29,0-.45-.05-.72-.11-1.44-.16-2.17-.07-1.03-.13-2.06-.21-3.09-.01-.22-.06-.44-.1-.69l-.95.38c-.14.05-.17.15-.15.29.04.38.09.77.13,1.15.08.84,0,1.68-.06,2.53-.05.8-.09,1.61-.02,2.45.52-.14,1.01-.26,1.52-.4Zm-.03,4.9c.01-.43,0-.86,0-1.32-.55-.27-1.08-.14-1.64.06-.02.16-.05.3-.06.44-.03.39-.04.79-.07,1.19-.01.14.06.22.18.27.31.14.61.29.92.43.16.07.28.18.28.36.01-.07.04-.14.03-.2-.09-.4.03-.73.28-1.03.04-.06.08-.13.08-.2Zm-.11,1.37c.09-.32.08-.61.02-.89-.15.27-.28.55-.02.89Zm-.03,1.47c.01-.37.02-.75.03-1.12,0-.19-.06-.31-.28-.28-.08.34-.34.51-.62.67-.31.17-.6.05-.89-.14-.09.86-.18,1.69-.27,2.52.49-.11.93-.2,1.38-.29.11-.03.23-.05.35-.08.17-.05.26-.14.26-.34-.01-.31.03-.62.04-.94Zm-.17,4.44v-.82c0-.26-.08-.52.07-.76-.12,0-.23,0-.35-.03-.22-.03-.36.08-.46.26-.34.61.03,1.29.74,1.35Zm-.37-5.6c.21-.21.2-.33-.06-.48-.33-.18-.68-.33-1.03-.5v.47c.42.05.64.33.84.71.11-.08.19-.13.25-.2Zm-.45,37.44c.46-.21.68-.5.47-.99-.13-.03-.27-.06-.42-.08-.14-.02-.28-.04-.41-.05-.15.51-.05.85.36,1.12Zm.43-26.16c.01-.5.01-1.01.01-1.48-.56-.27-1.11-.54-1.65-.8-.04.07-.06.09-.07.11-.16.98-.32,1.97-.49,2.95-.07.41-.18.8-.27,1.2-.11.49-.2.97-.31,1.45-.14.6-.28,1.2-.42,1.79-.05.2-.09.41-.16.6-.12.38-.27.75-.4,1.12.4.43.78.85,1.18,1.24.37.36.67.78,1,1.16.13.17.28.32.43.47.02.03.06.04.15.08.07-.52.14-1.01.2-1.5.06-.45.09-.91.16-1.36.05-.42.15-.83.2-1.25.09-.72.13-1.45.23-2.17.17-1.19.19-2.4.21-3.61Zm-.99-11.04c.21.1.41.21.62,0-.14-.31-.33-.55-.74-.62.04.24-.17.47.12.62Zm.04-8.73c-.02-.77.19-1.54.09-2.31-.07-.5-.1-1.01-.15-1.51-.01-.07-.04-.13-.06-.17-1.02.2-1.87.73-2.79,1.13.01.15.01.29.03.42.08.9.2,1.8.26,2.7.05.81.04,1.62.07,2.43.02.38-.02.76.12,1.14.71-.62,1.42-1.17,2.35-1.44.02-.14.05-.27.06-.4,0-.67.04-1.33.02-1.99Zm-.1,3.04v-.44s-.09-.02-.12-.02c-.07.02-.14.04-.2.07-.74.33-1.39.78-1.95,1.36-.07.07-.09.22-.09.33.01.7.04,1.4.05,2.1.01.37.01.74.01,1.1.55.26,1.07.5,1.59.74.08-.06.15-.12.22-.18.08-.05.17-.09.25-.14q.03-.53-.38-.81c-.08-.06-.15-.13-.23-.18-.15-.09-.2-.25-.19-.41.01-.34.06-.67.45-.82.11-.04.21-.12.32-.16.17-.05.21-.15.21-.32,0-.57.01-1.14.02-1.71.01-.1.02-.2.02-.32-.19.07-.34.13-.49.18-.01-.03-.02-.05-.04-.08.18-.1.36-.19.55-.29Zm-.18,4.21c.02-.53.05-1.03.08-1.55-.56.16-.79.37-.82.64-.06.53.33.68.74.91Zm-.1,1.17v-.26c-.1.06-.16.1-.23.14,0,.04,0,.07,0,.11.07,0,.15,0,.22,0Zm-.06.56c0-.11.03-.24-.02-.32-.04-.06-.18-.06-.28-.09-.02,0-.03-.04-.05-.05-.47-.36-1.01-.57-1.62-.81-.02.85-.04,1.63-.07,2.41-.02.79-.05,1.58-.08,2.4.63-.41,1.21-.79,1.85-1.21.08-.73.18-1.53.27-2.33Zm-.33,41.27c.3-.16.33-.49.1-.78v.35c0,.23-.02.26-.27.28-.27.02-.55.03-.83.05-.44.03-.95-.29-1.1-.74-.16.2-.15.37-.03.56.15.22.33.4.59.46.53.13,1.06.08,1.54-.18Zm-.12-.53c.22-1.1-.08-2.15.03-3.25-.16,0-.26,0-.37-.01-.34-.01-.67-.02-1.01-.03-.13-.01-.27-.03-.4,0-.57.11-1.14.22-1.7.35-.59.14-1.15.37-1.77.36-.22,0-.44.04-.66.06-.61.05-1.22.14-1.84.14-.77,0-1.54.03-2.31.13-.38.05-.77.08-1.15.1-.38,0-.75-.03-1.13-.01-.4.01-.81.1-1.22.09-.56-.01-1.11-.03-1.66.09-.29.06-.54-.03-.75-.26-.29-.34-.47-.73-.61-1.14-.31-.9-.67-1.77-1.13-2.6-.43-.76-.81-1.54-1.11-2.36-.18-.47-.36-.95-.54-1.42-.03-.08-.09-.15-.18-.3-.06.34-.1.59-.15.85-.15.71-.3,1.42-.44,2.13-.07.36-.12.72-.16,1.08-.01.09.02.24.08.29.17.13.35.26.62.28.02-.16.05-.29.06-.42.06-.7.11-1.4.18-2.1.01-.1.08-.26.16-.29.14-.05.25.06.31.2.05.13.1.27.16.4.07.18.15.36.22.54.43,1.01.85,2.02,1.28,3.04.3.7.57,1.41.89,2.1.27.6.29.59.98.61h.36c.68.03,1.35.01,2.02-.15.29-.07.6-.11.9-.14.6-.04,1.2-.06,1.81-.1.37-.02.75-.03,1.12-.08.71-.09,1.41-.21,2.13-.2.37,0,.75-.08,1.12-.07,1.06.05,2.1-.11,3.14-.28.46-.07.91-.11,1.37-.03.33.06.38.08.41.4.04.62.06,1.25.09,1.88.01.09.02.18.02.31.31-.07.57-.13.83-.19Zm.14,1.79c-.13-.17-.22-.21-.37-.1-.26.2-.56.27-.89.17-.22-.06-.44-.11-.65-.19-.31-.1-.3-.11-.57.22.42.29.83.57,1.24.86.43-.33.82-.64,1.24-.96Zm-.26-33.47c.02-.19.05-.38.08-.6-.6-.19-1.17-.22-1.75-.22-.03,0-.07.01-.1.02-.15.03-.23.1-.25.26-.04.34-.1.67-.15,1-.1.74-.19,1.49-.29,2.23-.03.21-.07.43-.12.64-.11.47-.23.93-.35,1.4-.17.65-.14,1.35-.42,1.98-.07.14-.03.27.06.4.38.52.78,1.01,1.32,1.42.04-.12.09-.23.13-.34.05-.15.06-.31.14-.44.19-.34.27-.7.33-1.07.04-.25.1-.5.16-.74.17-.68.36-1.35.51-2.03.15-.64.23-1.29.38-1.92.16-.66.24-1.32.32-1.99Zm.07,28.13c-.14-.16-.21-.25-.29-.34-.33-.35-.68-.69-.98-1.06-.43-.55-.82-1.12-1.22-1.68-.32-.45-.64-.91-.96-1.37-.14-.21-.28-.42-.43-.62-.26-.35-.55-.68-.79-1.04-.34-.53-.66-1.08-.96-1.63-.33-.58-.9-.88-1.78-.69.02.18.04.36.07.56.21,0,.39.01.57,0,.16-.01.28.04.36.18.23.39.45.76.67,1.15.2.14.29.35.35.57-.09-.09-.17-.18-.28-.29-.05.27-.09.51-.14.77.24.1.46.19.71.29v-.26s.01.01.01.02c.13.18.26.37.38.56.16.26.26.55.44.79.28.38.63.73.91,1.12.46.6.89,1.23,1.33,1.85.05.07.09.14.12.22.05.15.02.27-.15.31-.51.12-1.01.27-1.52.37-.66.13-1.33.23-2,.33-.32.05-.65.11-.97.1-1.45-.06-2.88.14-4.31.24-1.21.09-2.39.37-3.6.4-.31,0-.62-.03-.92-.04-.1-.24-.19-.44-.26-.64.1.15.18.29.28.43.11.17.27.18.38.02.1-.15.17-.31.28-.51-.36-.18-.68-.36-1.07-.38.05.17.08.29.12.41h-.01c-.16-.22-.32-.44-.35-.72h.01c.08.06.14.12.22.15.36.14.72.28,1.11.43.14-.27.28-.54.44-.79.09-.14.05-.25-.03-.36h0s-.01-.01-.01-.01h0c.11.01.22.03.28-.1.19-.43.38-.85.59-1.33-.48-.2-.93-.4-1.36-.58-.09.11-.16.18-.23.25.02-.09.04-.19.07-.32-.53-.2-.99-.54-1.55-.7-.15.22-.27.43-.41.62-.13.17-.19.35-.14.57-.05-.07-.1-.14-.13-.22-.24-.55-.46-1.11-.7-1.66-.21-.49-.45-.97-.64-1.47-.14-.36-.07-.45.32-.56.21-.05.42-.1.65-.16-.05-.22.12-.42-.04-.65-.45.12-.91.23-1.36.37-.4.12-.48.28-.31.68.46,1.12.88,2.25,1.45,3.32.35.64.61,1.32.9,1.99.31.73.64,1.45,1.05,2.14.2.33.25.38.62.35.38-.03.75-.04,1.13-.06.67-.05,1.35-.1,2.02-.15.38-.04.77-.11,1.15-.13,1.05-.06,2.1-.09,3.15-.16.67-.05,1.33-.15,1.98-.25.97-.15,1.93-.35,2.9-.47.76-.09,1.52-.08,2.28-.12.18-.01.35-.03.6-.04Zm-.6,5.24c.29-.05.35-.14.34-.51-.65.5-1.15.09-1.64-.28-.14.32-.12.42.12.56.36.22.76.3,1.18.23Zm.26-.78c-.5.04-.96.09-1.43-.19.44.57,1.05.66,1.43.19Zm-.84-69.77c.5-.18.57-.34.34-.81-.02-.05-.02-.1-.05-.14-.23-.44-.54-.81-.99-1.18.05.36-.16.47-.36.58-.19.1-.31.07-.42-.12-.15-.28.04-.62.37-.61.08,0,.16.02.3.04-.12-.17-.21-.28-.3-.39-.54-.71-1.12-1.39-1.78-1.99-.44-.4-.92-.75-1.35-1.15-.45-.41-.95-.75-1.5-1.01-.53-.26-1.06-.5-1.62-.76-.13.23-.3.15-.45,0-.33.35-.46.75-.51,1.23.11.06.23.14.36.19.47.18.95.35,1.43.52.06.02.13.07.18.12.34.34.81.44,1.23.65.26-.62.31-.65.88-.56.3.43-.19.67-.24,1,.28.3.54.6.82.89.57.58,1.15,1.15,1.73,1.73.12.11.24.23.35.36.39.43.77.86,1.15,1.29.06.07.34.15.43.11Zm-.54,68.71c.19.1.35.23.63.19-.08-.71.08-1.42-.09-2.18-.26.01-.49.02-.71.03-.67.04-1.33.08-1.99.12-.53.03-1.04.24-1.58.19-.19-.02-.39-.04-.58-.04-.7.01-1.4.09-2.1.09-.84-.01-1.69.08-2.54.15-.57.04-1.16.06-1.73.16-.94.16-1.89.27-2.85.21-.16-.01-.31.02-.47.04-.12.02-.18.1-.18.23v.75c.18-.03.33-.05.48-.07.05-.25.08-.47.12-.7.07,0,.12-.01.17,0,.72.09,1.44.16,2.17.14.07,0,.14.02.22.03.41.02.82.07,1.22.06.62-.01,1.24-.07,1.85-.11.64-.03,1.28-.02,1.91-.18.36-.1.74-.16,1.11-.21.64-.08,1.29-.15,1.94-.22.7-.06,1.39-.23,2.09-.2.11.01.22-.03.32-.07.15-.06.3-.07.49.02.03.52.07,1.04.1,1.57Zm.09-42.09c.02-1.1.03-2.16-.06-3.19-.51.06-1,.11-1.52.17-.02.94.13,1.86.16,2.8.49.07.93.14,1.42.22Zm-.05,1.86c.02-.56.01-1.13.01-1.71-.46-.08-.91-.16-1.38-.25-.06,1.05-.06,2.05-.18,3.04-.11.99-.34,1.98-.52,3.01.74-.01,1.36-.25,1.86-.76.05-.05.07-.13.07-.2.03-.42.06-.83.08-1.25.03-.63.05-1.25.06-1.88Zm-.2-5.29c.16-.02.21-.18.18-.35-.03-.14-.06-.28-.06-.42-.03-.62-.05-1.23-.05-1.84-.01-.84-.04-1.67-.15-2.49-.07-.54-.13-1.08-.2-1.71-.36.24-.64.41-.91.61-.13.09-.2.22-.16.41.04.2.02.41.02.61.02,1.07.05,2.13.05,3.2,0,.65-.05,1.3-.08,1.96.06.04.12.11.18.11.39-.02.79-.04,1.18-.09Zm-.13-25.22c-.12-.05-.21-.08-.34-.12-.06.15-.11.28-.18.45.27-.01.42-.08.52-.33Zm-.83,3c.19-.4.4-.79.61-1.19-.26-.29-.5-.55-.74-.8-.42-.42-.85-.83-1.25-1.26-.67-.71-1.35-1.42-2.15-1.99-.06-.04-.13-.06-.2-.07-.46-.12-.93-.05-1.39,0-.36.03-.71.09-1.04.27-.2.12-.44.18-.66.27-.41.15-.84.25-1.2.5-.18.14-.36.29-.57.38-.55.25-.81.7-.89,1.26-.06.39-.28.61-.67.62h-.41c-.03-.14-.08-.24-.07-.35,0-.37.02-.74.05-1.11.04-.47-.2-.7-.67-.64-.17.02-.35.03-.53.03-.43,0-.81.14-1.11.45-.35.37-.61.79-.62,1.31-.01.68.03,1.37-.01,2.05-.04.53-.15,1.06-.53,1.48-.05.05-.11.1-.13.17-.08.25-.15.51-.21.77-.17.77-.33,1.55-.5,2.33-.07.35-.11.69-.02,1.04.03.12.06.24.06.36,0,.74.31,1.39.58,2.04.36.84.39,1.65.03,2.48-.11.25-.24.48-.3.74-.15.67-.32,1.33-.32,2.02-.01.59.07,1.16.12,1.73.02.15.07.32.16.44.47.62,1.02,1.08,1.87,1.07.53,0,.94-.29,1.11-.71.11-.26.16-.55.18-.84.04-.55.05-1.1.08-1.65.02-.4.12-.75.45-1.02.13-.11.22-.26.32-.38-.08-.21-.19-.4-.22-.59-.11-.57-.3-1.12-.37-1.7-.12-.97-.09-1.92.19-2.86.14-.43.29-.87.48-1.29.27-.58.84-.88,1.36-1.19.16-.1.36-.16.55-.18.53-.03,1.06-.05,1.59-.04.76.01,1.44.24,2.02.75.16-.13.33-.27.5-.39.19-.13.39-.18.6-.02.12.09.26.22.4.23.2.02.32.14.47.23l1.08.57c.07.04.16.03.25.04.18-.23.21-.49.22-.75.01-.17.02-.34.06-.51.19-.93.45-1.85.79-2.74.18-.46.39-.91.6-1.36Zm.36,37.23c.09-.52.13-1.05.2-1.65-.59.14-1.16.27-1.74.41-.1.33-.2.65-.29.98-.27.99-.53,1.98-.81,2.97-.04.13-.05.24.03.37.42.77.83,1.54,1.26,2.32.04.08.13.14.26.27.08-.39.16-.71.22-1.02.1-.5.13-1.01.29-1.49.34-1.03.4-2.11.58-3.16Zm-.75,26.54c.37-.08.71-.17,1.1-.26-.31-.58-.71-1.04-1.07-1.6-.19.53-.35.99-.51,1.46.15.13.3.25.48.4Zm-.04-37.42c.01-.26,0-.52,0-.84-.38.07-.69.13-.95.18-.15.22-.27.38-.37.56-.06.1-.11.21-.12.32-.03.42-.08.84-.06,1.26.04.77-.04,1.52-.12,2.27-.04.37-.04.75-.07,1.12-.01.2.09.28.27.31.14.02.28.07.41.13.21.1.28.08.33-.17.08-.4.15-.8.23-1.2.1-.47.25-.94.29-1.41.09-.84.11-1.68.16-2.53Zm-.41,36.62c.13-.39.25-.78.38-1.18-.26-.13-.5-.26-.76-.39-.13.14-.28.24-.35.38-.13.28-.21.59-.31.9.13.09.25.17.37.25.14.1.27.21.41.31.16-.02.21-.15.26-.27Zm.25-40.63c.16-2,.11-3.95.02-5.97-.12.08-.19.11-.23.16-.52.58-1.03,1.15-1.53,1.73-.05.07-.08.19-.05.27.26.85.33,1.72.36,2.6.02.42.13.69.38,1.02.05.05.12.11.18.11.28.04.57.05.87.08Zm.18,2.85c-.05-.86-.1-1.64-.15-2.49-.37.44-.44.91-.37,1.37.05.38.04.83.52,1.12Zm-.21,38.64s.01-.05.02-.08c-.11-.1-.21-.19-.36-.32-.06.16-.11.28-.18.44.21-.02.36-.03.52-.04Zm-.66-38.58h.6c-.12-.22-.23-.42-.35-.64-.27.03-.54.07-.82.1v.59c.2-.06.36-.12.53-.17,0,.02.03.08.04.12Zm.27-1.74c.05-.3.16-.59.26-.9-.37-.04-.74-.09-1.15-.13.01.14.02.26.02.34.22.13.49-.08.66.21h-.65v.53c.23.13.54.01.74.32-.23-.05-.39-.1-.57-.14-.11-.02-.19.03-.19.15,0,.2.02.41.04.67.3-.04.57-.07.79-.1.01-.36,0-.66.05-.95Zm-.19,11.97c.06.09.07.29.29.1-.11-.12-.22-.24-.3-.32-.48.05-.9.12-1.33.13-.38.01-.76.02-1.13-.14-.24-.12-.52-.15-.79-.22.09.37.17.44.5.48.48.05.95.1,1.43.14.12.01.23-.05.39-.08.29.2.61.18.94-.09Zm-.07,28.33c.09-.18.23-.34.17-.56-.27-.14-.53-.29-.82-.44-.17.38-.32.75-.42,1.21.36-.04.64-.07.92-.11.06-.01.12-.05.15-.1Zm.54-2.33c-.12-.32-.33-.58-.53-.84-.04.01-.08.03-.11.05.06.12.15.23.16.36.03.3.24.36.48.43Zm-.69-12c.04-.23.02-.48-.03-.71-.06-.27-.19-.53-.26-.79-.16-.61-.35-1.21-.45-1.83-.07-.48-.18-.95-.34-1.41-.23-.68-.47-1.37-.73-2.04-.16-.41-.36-.79-.57-1.18-.09-.17-.21-.32-.35-.46-.1-.11-.21-.21-.32-.32-.29-.29-.6-.58-.89-.87-.54-.55-1.02-1.14-1.18-1.92,0-.03-.03-.06-.06-.1-.46-.06-.93-.11-1.4-.17-.71-.1-1.43-.21-2.15-.19-.6,0-1.17.12-1.71.4-.8.4-1.62.68-2.54.57-.55-.07-1.11-.07-1.66-.15-.76-.11-1.52-.27-2.28-.39-1.08-.16-2.03-.63-2.93-1.22-.13-.09-.23-.22-.37-.29-.41-.24-.73-.59-1.04-.95-.18-.23-.39-.44-.6-.68-.33.7-.66,1.36-.8,2.09-.07.36-.16.73-.19,1.1s-.01.74-.01,1.11c0,.08.01.15.01.22.04.48.08.96.11,1.44.06.91.18,1.79.76,2.53.23.29.48.56.72.84.19.22.36.46.59.63.43.33.88.63,1.35.91.37.22.77.39,1.21.46.28.05.57.11.84.19.46.13.92.28,1.37.44.15.05.26.16.39.25.18.13.4.22.51.38.23.35.48.7.52,1.14.02.3.06.6.12.9.1.44.08.89,0,1.33-.12.72-.2,1.44-.23,2.18,0,.16-.02.33-.04.5-.1.7-.33,1.38-.37,2.09-.01.22.01.28.23.35.32.1.64.14.97.07.28-.05.54-.19.82-.23.78-.12,1.55-.3,2.34-.28.33,0,.65,0,.96.1.24.08.47.09.72.02.61-.2,1.24-.38,1.85-.57,0-.71-.01-1.41,0-2.11.01-.55.05-1.09.05-1.63,0-.39.06-.78,0-1.18-.1-.62-.26-1.22-.35-1.84-.12-.81-.09-1.62-.17-2.42-.01-.06,0-.12,0-.18.06-.38.12-.76.25-1.13.09-.25.08-.54.1-.82.02-.14,0-.28.03-.43.04-.44.02-.88-.14-1.31-.06-.16-.07-.29.07-.46.28.15.42.38.47.68.02.1.01.21.03.32.12.75.1,1.49-.13,2.22-.21.65-.3,1.32-.23,2,.06.65.16,1.3.24,1.96.08.61.18,1.22.22,1.83.05.56.02,1.13.04,1.69.03.63.09,1.26.13,1.88.01.31.09.6.27.89.61.02,1.19-.05,1.77-.11.78-.08,1.58-.09,2.35.14.41.12.83.21,1.24.3.03-.5.06-.97.11-1.43.03-.33.1-.65.16-.97.09-.53.17-1.07.27-1.6.1-.59.25-1.18.34-1.78Zm-.16-14.38s.09-.11.13-.17c-.06-.04-.11-.12-.18-.13-.4-.02-.81-.02-1.22-.03-.21-.01-.38-.09-.5-.28.55.09,1.1.15,1.65.15-.05-.36-.1-.68-.15-1.02-.17-.02-.36-.05-.55-.04-.28,0-.57.08-.86.09-.48.02-.9-.15-1.27-.46-.01-.01,0-.04.01-.1.19.09.37.16.56.24.26.11.52.2.81.1.06-.02.14-.01.21-.02.34,0,.67-.03,1.04-.05.02-.17.03-.34.06-.55-.21.02-.36.03-.51.04-.43.02-.84-.03-1.25-.16-.05-.02-.09-.1-.18-.21.72.15,1.35.31,1.96.09.08-.22.14-.41.21-.6-.33,0-.65-.03-.97,0-.31.04-.62.04-.93-.01-.21-.04-.43-.15-.67-.03.03.05.04.09.07.1.71.24,1.44.35,2.2.24-.04.08-.1.16-.16.17-.26.02-.52.07-.78.04-.41-.05-.82-.14-1.23-.22-.06.08-.11.16-.17.24-.14-.15.13-.38-.16-.47-.19.45-.22.91-.23,1.38,0,.16.1.21.23.24.27.07.53.14.81.19.47.07.95.05,1.42-.06.11-.03.22-.04.3.14-.45.2-.9.16-1.34.14-.45-.03-.89-.15-1.34-.23.01.29.01.56.04.83.01.07.1.17.17.19.54.13,1.05.39,1.62.36.38-.02.77-.07,1.15-.13Zm.09,25.3c-.1-.21-.19-.38-.3-.6-.09.22-.03.33.3.6Zm-.4-22.5c.17-.63.33-1.26.52-1.96-.29.03-.51.04-.71.06,0,.32.04.6-.01.87-.05.26-.2.51-.3.77-.2.5-.36.6-.91.53.3.56.47,1.15.88,1.69.19-.7.36-1.33.53-1.96Zm-.08,24.74c.1-.29.18-.54.29-.87-.27.07-.45.11-.63.16-.28.07-.29.1-.15.38.15.11.3.21.49.33Zm-.05-2.7c.1-.36.1-.49-.03-.58-.28-.17-.59-.27-.93-.32.28.34.61.6.96.9Zm-.07-34.69c.01-.18.03-.35.04-.52-.28-.17-.64-.02-.87-.36.18.05.3.09.42.11.13.03.26.05.41.07.04-.38.02-.43-.16-.43-.36.02-.72.05-1.1.07.04.21.07.41.1.64h.53s.01.04.02.06c-.1.04-.19.09-.3.13.25.28.56.27.91.23Zm-.25,36.04c.28-.02.37-.21.25-.46-.23-.48-.65-.78-1.08-1.04-.29-.18-.67-.24-1.02-.32-.38-.08-.63-.33-.76-.65-.13-.28-.18-.6-.2-.91-.05-.67-.08-1.33.03-1.99.02-.12,0-.24,0-.37-.63-.05-1.22-.19-1.88-.12-.02.21-.05.37-.06.54-.01.12.01.25-.02.36-.14.5-.13,1-.04,1.51.02.1.02.21.03.32.02.19.02.38.05.57.04.23.09.45.15.67.11.45.31.84.77,1.03.46.18.89.4,1.35.59.52.21,1.02.31,1.57.27.29-.02.58.01.86,0Zm.26-37.92v-.28c-.12,0-.21,0-.33-.02.42-.24.44-.3.24-.61-.4.03-.76.12-.91.58.14.07.33-.06.38.14-.18.12-.45-.1-.55.17-.08.2-.16.41-.06.64h.85c-.03-.09-.05-.16-.08-.26.15-.03.3-.06.45-.1,0-.1.01-.18.01-.26Zm0,.52s-.08-.07-.13-.11c-.06.04-.1.08-.13.11.04.04.09.11.13.11.04,0,.09-.07.13-.11Zm-.01,3.49v-.81c-.47.2-.86.38-1.26.55-.17.07-.24.17-.25.37-.05.53-.09,1.06-.25,1.57-.08.24-.11.49-.17.78.44.03.74.24,1.06.45.33.22.37.63.67.9.02-.4.03-.77.06-1.14.07-.65.16-1.3.12-1.95-.02-.24.01-.48.02-.72Zm-.33,36.5c.15-.41.27-.78.39-1.11-.16-.17-.29-.31-.43-.45-.06.01-.17.01-.19.05-.18.3-.34.62-.5.92.26.21.48.39.73.59Zm-.24-26.36c.18-.33.38-.65.27-1.06-.02-.08.02-.17.02-.25s-.01-.16-.02-.26c-.69.08-1.36-.16-2.05.1.01.07.01.12.02.17.08.55.38.98.74,1.38.27.32.83.29,1.02-.08Zm-.27-15.11c.19-.1.38-.2.57-.29-.26.03-.52.1-.77.16-.02.01-.04.02-.07.02-.4.14-.48.26-.44.69,0,.05.01.11.02.22.08-.08.18-.13.19-.19.05-.31.25-.47.5-.61Zm.79-.87c-.14-.99-.07-1.96-.43-2.91-.48.64-.85,1.3-1.11,2.02-.07.17-.01.39-.01.64.57-.07,1.06-.01,1.55.25Zm-.66,4.88c.39.09.68-.16.69-.57q-.72-.09-1.44-.9c0,.25.01.45,0,.66-.02.43,0,.49.38.67.12.06.24.11.37.14Zm.05-32.29c.12-.27.08-.32-.25-.35-.31.46-.31.53.06.72.07-.14.14-.25.19-.37Zm-.03,68.22c.08-.14.01-.26-.16-.28-.29-.03-.59-.05-.91-.07-.05.24-.1.47-.15.71.25.18.48.34.75.52.17-.32.33-.59.47-.88Zm.3,1.63c-.25-.22-.47-.4-.73-.63-.12.31-.31.5-.31.78.35.04.67,0,1.04-.15Zm.13-42.17c-.2-.15-.4-.22-.73-.26-.5-.06-.65.08-.6.58,0,.03.03.06.04.07.43-.13.85-.26,1.29-.39Zm-.69,36.98c.05-.36.09-.67.13-.99l-.62-.31c-.09.34-.17.63-.25.94.24.12.46.23.74.36Zm.42-27.45c-.15-.3-.35-.54-.62-.74-.47.17-.75.51-.97,1.05.57-.11,1.07-.21,1.59-.31Zm-.94-4.37c.18-.1.32-.18.49-.28-.19-.11-.32-.19-.49-.28v.56Zm.26,30.5q0-.22-.17-.34-.03.23.17.34Zm-.36,6.59c.12-.23.22-.48.33-.76-.24-.16-.45-.3-.69-.45-.11.35-.22.65-.32.94-.07.22-.02.33.17.41.16.08.44.01.51-.14Zm.06-40.35c.02-.13.03-.26.05-.4-.03.01-.06.01-.08.01v.39h.03Zm.15,6.73c-.08-.05-.13-.08-.18-.11-.37-.22-.42-.2-.72.08-.5.45-.77,1.03-1.02,1.64-.11.27-.18.55-.15.85.01.09,0,.2-.04.28-.11.27-.1.55-.1.82,0,.21,0,.42,0,.62-.03.7.09,1.35.61,1.89.1-.02.21-.03.35-.05-.05-.21-.1-.39-.14-.56-.14-.03-.31.08-.33-.12-.02-.19.22-.04.26-.17-.04-.41-.08-.83-.12-1.21-.14-.04-.24-.08-.35-.11.01-.03.01-.07.01-.1l.33-.09v-.5s-.1-.05-.14-.08-.08-.07-.19-.15c.16-.05.25-.08.35-.11.04-.27.02-.53-.22-.81.34.08.42-.08.47-.29.02-.09.06-.18.09-.27.11-.33.37-.57.55-.85.13-.19.33-.32.5-.47.05-.04.1-.07.18-.13Zm-.13,26.6c.04-.23-.1-.46-.32-.47-.21-.02-.42.01-.63.02,0,.28-.01.29.13.37.22.13.46.24.73.38.05-.14.08-.22.09-.3Zm.52,2.02c-.12-.27-.52-.46-.83-.41.28.17.49.38.83.41Zm-.7-32.04c0-.22.01-.46,0-.7-.01-.08-.03-.17-.08-.23-.3-.37-.4-.82-.46-1.27-.05-.43,0-.87-.01-1.3,0-.25.06-.49.22-.68.27-.34.26-.73.21-1.18-.08.06-.17.08-.2.14-.06.13-.1.27-.13.41-.27,1.26-.56,2.52-.63,3.82-.03.39-.01.79-.01,1.18.52.05.72.02,1.09-.19Zm.06-1.33c-.06-.88-.11-1.76-.17-2.66-.35.4-.27,1.97.17,2.66Zm-.51,4.06c.15-.79.43-1.55.41-2.38-.38.05-.74.09-1.14.14.02.48.04.92.07,1.37.01.19.05.38.06.57s.13.28.3.3c.09.01.19,0,.3,0Zm.32,28.62c.09-.32.16-.59.25-.92-.32-.15-.6-.28-.92-.43,0,.29-.02.52,0,.75.02.1.08.23.16.3.15.11.32.19.51.3Zm0-63.89s.03-.04.04-.06c-.1-.06-.2-.14-.32-.18-.88-.27-1.66-.75-2.47-1.18-.2-.11-.4-.17-.62-.16-.8.02-1.59.03-2.39.05-.07,0-.15.01-.21.03-.49.15-.97.3-1.45.45l-.51.15c-.34.1-.61.35-.89.54-.28.2-.54.42-.69.73-.26.53-.49,1.07-.73,1.62-.11.26-.17.56-.3.81-.38.74-.51,1.54-.62,2.34-.06.44.11.83.3,1.21.12.24.37.2.57.22.09.01.23-.18.27-.3.1-.31.21-.62.23-.94.04-.58.09-1.16.02-1.73s.11-1.03.38-1.47c.28-.44.67-.77,1.22-.83.32-.03.65-.05.97-.05.41-.02.71.31.67.71l-.09.93c-.04.37.09.49.45.46.24-.02.34-.12.39-.43.09-.52.33-.96.74-1.28.24-.18.52-.31.78-.46.22-.12.43-.27.65-.37.31-.13.63-.22.95-.34.42-.16.83-.39,1.3-.41.45-.02.91-.04,1.36-.06Zm-.08,64.09s.03-.04.04-.07c-.14-.09-.28-.19-.46-.31q.01.34.42.38Zm-.13,4.07c.07-.27.11-.48.17-.73-.27-.05-.52-.09-.78-.14-.04.12-.07.22-.11.33.24.17.46.34.72.54Zm-.25-25.3c-.05.23.11.21.25.21-.08-.07-.16-.13-.25-.21Zm.06-7.33s-.07-.06-.1-.06c-.41-.02-.83-.09-1.22-.03-.55.1-1.08.28-1.6.46-.36.13-.73.28-1.04.5-.26.19-.43.51-.66.76-.3.33-.41.77-.59,1.16-.33.73-.27,1.51-.2,2.28.01.09.07.18.11.26.06.11.13.21.18.32.02.06,0,.14,0,.24-.08-.04-.13-.04-.14-.06-.22-.39-.43-.78-.41-1.25.01-.22,0-.44,0-.66-.01-.86.36-1.59.78-2.3.19-.32.46-.59.7-.87.04-.06.11-.1.17-.14.19-.1.39-.2.61-.31-.36-.1-.7-.18-1.03-.29-.2-.06-.4-.09-.6-.03-.59.18-1.18.34-1.77.53-.29.1-.57.25-.85.4-.35.2-.68.46-1.05.62-.39.16-.64.41-.8.8-.12-.02-.24-.04-.38-.07-.82.85-1.36,1.88-1.74,3.02-.06-.06-.1-.12-.09-.16.28-1.16.9-2.12,1.68-3.01-.26-.2-.51-.39-.75-.59-.46-.38-.95-.69-1.57-.76-.33-.04-.66-.09-1-.06-.38.03-.77.01-1.15.02-.21.01-.42.08-.64.08-.4,0-.76.1-1.09.32-.09.05-.2.07-.29.1l-.06-.06c.04-.06.05-.15.1-.18.21-.1.41-.21.63-.27.35-.09.73-.1,1.05-.23.47-.19.94-.21,1.42-.2.25,0,.5-.02.81-.04-.13-.18-.23-.31-.32-.43-.1-.13-.23-.25-.31-.4-.29-.58-.6-1.16-.84-1.76-.27-.7-.5-1.41-.73-2.13-.24-.77-.5-1.54-.37-2.37.05-.34-.01-.69.12-1.03.13-.35.16-.73.04-1.1-.08-.24-.14-.49-.15-.74-.03-.59-.12-1.17-.09-1.76.02-.34-.01-.7.05-1.04.08-.43.1-.89.31-1.29,0-.01-.01-.04-.03-.1-.57.28-1,.69-1.26,1.27-.09.21-.17.39-.39.5-.09.04-.15.15-.21.23-.35.57-.61,1.18-.73,1.85-.09.47-.14.95-.09,1.44.06.61.09,1.22.15,1.83.03.24.08.5.16.73.14.4.33.8.3,1.22-.05.71.29,1.31.51,1.94.18.49.45.96.69,1.43.07.13.19.25.31.34.19.13.11.22-.04.36-.2-.25-.37-.48-.5-.76-.15-.31-.27-.65-.45-.94-.27-.46-.4-.96-.57-1.45-.06-.15-.08-.32-.1-.49-.04-.48-.07-.96-.28-1.41-.15-.33-.22-.69-.21-1.06.01-.24-.03-.48-.04-.72-.04-.51-.09-1.03-.12-1.55-.01-.19.05-.38.07-.57.05-.66.22-1.28.55-1.86.02-.03.01-.07.01-.14-.37.23-.6.55-.79.88-.33.54-.6,1.12-.9,1.68-.19.35-.35.73-.59,1.04-.35.45-.53.95-.59,1.49-.07.64-.11,1.28-.15,1.92-.01.25-.02.51.02.76.13.77.32,1.54.41,2.31.08.83.31,1.63.33,2.47.02.57.09,1.14.31,1.7.25.64.38,1.34.78,1.93.37.56.72,1.14,1.3,1.53.16.1.33.19.47.32.34.32.76.48,1.18.67.74.31,1.48.57,2.27.74.31.07.61.11.92.13.22.01.44-.03.65.01.72.11,1.43.1,2.15-.05.53-.12,1.06-.26,1.61-.17.07.01.15-.02.21-.05.66-.23,1.34-.32,2.03-.32.12,0,.23,0,.35.01.25.01.5.03.74.04.67.03,1.35.05,2.02-.05.08-.01.17,0,.25.01.46.06.91.12,1.36.18.03,0,.06-.02.11-.04-.46-.41-.78-.87-.87-1.45-.12-.67-.27-1.33-.12-2.02.11-.45.17-.92.25-1.38.03-.18.02-.38.1-.53.25-.5.43-1.03.8-1.46.17-.18.34-.37.53-.58Zm-.26,7.33q.08-.13-.14-.65c-.08.01-.17.02-.32.04.17.22.31.41.46.61Zm-.41,24.65c.11-.12.2-.24.05-.32-.33-.17-.67-.3-1-.45-.02.02-.03.04-.04.06.32.23.65.47.99.71Zm-.42,1.31c.16-.41.31-.78.45-1.15-.36-.26-.68-.5-1.06-.78-.15.49-.27.88-.41,1.3.35.21.67.41,1.02.63Zm-.42.97c.14-.27.25-.56.38-.86-.37-.21-.65-.46-1.03-.61-.1.37-.2.71-.27,1.05-.02.1.01.22.02.34-.19.03-.22.14-.2.32.13-.01.23-.02.36-.03-.07-.12-.11-.2-.16-.29.09.05.17.11.26.17.19.13.54.09.64-.09Zm.12-58.3l.03-.09c-.07-.03-.15-.05-.22-.07l-.03.09c.07.03.15.05.22.07Zm-.07,1.13c.03-.21.05-.37.06-.47-.55-.31-1.06-.58-1.56-.87-.25-.14-.49-.2-.8-.02.91.21,1.65.66,2.3,1.36Zm-.18.35c.03-.08.03-.21-.02-.27-.21-.24-.41-.5-.72-.63-.12-.05-.23-.13-.34-.21-.39-.26-.83-.38-1.28-.44-.12-.01-.23.01-.35.02l-.05.1c.26.45.63.78,1.12.98.18.07.36.12.54.18.3.1.59.22.88.31.07.02.21-.01.22-.04Zm.63,7.56c-.24-.45-.57-.81-.96-1.22.15.61.58,1.14.96,1.22Zm-.72.15c-.11-.13-.21-.26-.32-.38-.03.02-.06.04-.08.07.1.12.21.25.32.37.02-.02.05-.04.08-.06Zm-.2-10.16s.03-.03.04-.05c-.06-.06-.11-.13-.19-.21-.01.06-.03.11-.02.13.05.05.11.09.17.13Zm-.26,57.59c.14-.44.27-.85.4-1.25-.38-.32-.75-.59-1.2-.78-.13.45-.26.87-.39,1.29.41.25.79.49,1.19.74Zm.13-54.3c.25-.28.17-.68-.2-.76-.41-.09-.75-.38-1.19-.38-.07,0-.14-.07-.21-.13-.19-.15-.38-.31-.63-.52-.05.59.08,1.01.57,1.26.41.2.81.43,1.22.63.21.1.29.08.44-.1Zm.02,1.63c-.03-.19-.06-.39-.1-.58-.04,0-.08.01-.12.01.05.19.1.39.15.58.02,0,.05,0,.07,0Zm-.03,16.36v-.52c.01-.7-.01-1.39-.03-2.08-.04-.77-.22-1.53-.28-2.3-.05-.7-.27-1.4-.42-2.09-.04-.16-.13-.3-.19-.45-.07.13-.06.25-.06.37.02.28.06.57.06.86-.01.78-.21,1.53-.41,2.28-.18.67-.4,1.34-.63,2-.08.24-.17.5-.41.66-.12.09-.17.2-.12.36.27.08.53.18.8.23.24.05.55.15.74.06.28-.14.51.04.75,0,.02,0,.05.05.08.1-.06.03-.1.08-.15.08-.62.1-1.23.04-1.83-.06-.62-.11-1.23-.26-1.82-.47-.48-.16-.95-.35-1.35-.68-.84-.68-1.69-1.34-2.53-2.01-.18-.15-.36-.32-.51-.51-.4-.5-.77-1.02-1.04-1.6-.11-.23-.22-.46-.37-.67-.51-.75-.79-1.58-.78-2.48.01-.63.12-1.28.27-1.89.13-.55.39-1.06.6-1.62-.3,0-.46.19-.62.39-.13.17-.22.41-.39.51-.27.17-.37.43-.44.67-.14.55-.17,1.13-.11,1.68.08.79.18,1.59.39,2.36.04.16.05.33.09.5.09.37.13.75.32,1.1.2.39.34.8.5,1.21.19.47.36.94.57,1.41.16.36.35.71.54,1.06.19.36.4.71.57,1.08.37.78.77,1.54,1.29,2.22.57.75,1.15,1.5,1.89,2.12.14.11.26.16.43.1.46-.14.91-.3,1.38-.42.22-.06.46-.1.68-.06.45.07.89.2,1.33.31.08.02.17.1.24.09.17-.02.32-.08.49-.13.04-.61.07-1.2.13-1.79.04-.4.11-.81.19-1.21.04-.26.16-.51.16-.77Zm-.32-13.83c.02-.52.05-1.05.07-1.57-.16.3-.19,1.21-.07,1.57Zm-.1-1.86c.08-.25.19-.49.1-.75-.14.23-.13.49-.1.75Zm-.07,53.29c.11-.39.21-.78.32-1.2-.39-.24-.77-.48-1.19-.74-.14.42-.26.79-.38,1.15.21.18.41.35.59.52-.21-.12-.44-.23-.67-.37-.17.45-.33.85-.49,1.27.54.38,1.06.01,1.62.06.03-.23.04-.4.06-.58h0s.13-.07.14-.11Zm.07-54.6c-.03-.07-.07-.14-.11-.21l-.06.03c.04.07.09.14.13.2.01,0,.03-.01.04-.02Zm-.11-4.18c.12-.19.17-.34.05-.51-.05.15-.22.29-.05.51Zm-.05,10.19s.09-.01.17-.02c-.66-.47-1.28-.9-1.91-1.34-.02.02-.03.04-.05.07.11.12.22.24.34.36.41.42.99.58,1.45.93Zm0-4.6c-.04-.4.09-.81-.01-1.23-.25.09-.2.25-.17.39l.18.84Zm.18,49.95c-.13-.1-.27-.2-.44-.33.03.29.27.27.44.33Zm-.26-51.69q.02-.2-.43-.33c.18.13.3.23.43.33Zm.74,5.62c-.49-.67-.52-1.53-.91-2.24.04.85.3,1.62.91,2.24Zm-.91-.06c-.11-.12-.22-.24-.32-.36-.02.01-.04.03-.05.04.1.12.21.25.31.37.02-.02.04-.04.06-.05Zm-.04-3.6v-.24s-.05,0-.08,0c.01.08.01.15.02.23h.06Zm-.11,49.43c.09-.13.1-.24.01-.36-.26-.35-.27-.77-.37-1.17-.07-.3-.09-.34-.47-.44-.11.42-.21.83-.32,1.24.16.11.29.2.41.3.12.09.24.18.35.29-.26-.15-.53-.3-.87-.48.03.18.03.3.06.41.14.42.28.84.03,1.27.25.14.47.27.73.42.15-.46.28-.89.41-1.31-.13-.12-.23-.2-.33-.3.12.04.23.08.36.13Zm.25-46.11c-.14-.56-.27-1.12-.42-1.73-.23.71.12,1.21.42,1.73Zm-.36-5.85s.03-.04.04-.07c-.13-.08-.27-.15-.4-.23-.02.02-.03.05-.04.08.13.07.27.15.4.22Zm-.53,14.35c.31-1.07.63-2.15.49-3.29-.05-.45-.1-.89-.21-1.33-.06-.24-.11-.48-.15-.72-.08-.44-.34-.79-.62-1.12.11.59.12,1.17.05,1.75-.11,1.03-.46,1.96-.99,2.84-.33.54-.75,1.01-1.13,1.51-.13.17-.24.37-.39.51-.34.3-.7.58-1.05.87.49.52,2.39,1.55,2.83,1.55.08-.14.14-.3.25-.39.23-.18.34-.42.43-.66.18-.5.34-1.01.49-1.52Zm.46-18.09s0-.17-.04-.21c-.08-.06-.19-.03-.23.08-.02.08-.02.16-.03.24.03.02.05.05.07.07.08-.06.18-.1.23-.18Zm-.12,9.79s.04-.03.06-.05c-.46-.59-.92-1.18-1.4-1.78-.04.04-.09.08-.15.12.39.68.92,1.22,1.49,1.71Zm0-4.87c-.02-.07-.03-.15-.04-.22-.03,0-.06,0-.09.01.02.07.03.15.05.22.03,0,.05-.01.08-.01Zm-.14,48.82c0-.46.03-.88-.09-1.29-.1.25-.17.51-.24.77-.08.33-.07.34.33.52Zm-.06-46.4c.05-.45.14-.9-.11-1.34l.11,1.34Zm.08,44.61c-.03-.22-.06-.41-.1-.61-1.16.05-2.27.24-3.41.4.05.2.08.34.12.49.06.01.11.03.16.03.29-.03.59-.06.89-.07.27-.02.53,0,.79-.01.39-.03.77-.09,1.15-.14.13-.02.25-.05.4-.09Zm-.41,6.41c.11-.37.23-.73.34-1.09-.29-.15-.51-.35-.81-.4-.09.3-.28.45-.58.42-.14.41-.13.41.21.61.16.1.31.22.47.34-.26-.12-.52-.26-.8-.4-.17.51-.34.98-.49,1.45.36.18.68.33,1.02.49.21-.27.29-.61.43-.91.13-.26.08-.44-.12-.6,0-.01-.01-.01-.01-.02.1.04.19.07.34.11Zm.32-49.8q.04-.45-.24-.53c.08.18.16.35.24.53Zm-.19-8.33c.04-.13.08-.26.14-.43q-.23.09-.22.42s.05.01.08.01Zm.12,50.92c-.02-.12-.03-.25-.06-.42-.25.03-.5.02-.72.08-.4.1-.76.37-1.21.31-.03,0-.06.03-.1.04-.35.08-.7.16-1.05.25-.06.02-.11.07-.16.11.01.02.01.04.02.06,1.08-.14,2.17-.28,3.28-.43Zm-.11-46.48c.05-.28-.03-.41-.28-.51.1.18.17.31.28.51Zm-.11.26s.04-.03.07-.04c-.15-.26-.26-.54-.45-.77-.03.01-.05.02-.07.04.15.26.3.51.45.77Zm.33,4.04c-.19-.47-.39-.99-.6-1.52-.04.73.22,1.35.6,1.52Zm-.46,44.54c.12-.47.22-.89.33-1.32-.77-.07-.89,0-1.09.64-.02.06-.03.12-.05.21.26.15.53.31.81.47Zm.13-47.91c-.03-.16-.07-.33-.1-.49-.03,0-.05.01-.07.01.03.17.07.33.1.5.02-.01.05-.01.07-.02Zm-.07,1.72c-.04-.22-.08-.45-.11-.68-.02.01-.03.02-.04.02.03.23.06.45.09.67.02,0,.04,0,.06-.01Zm-.39,47.61c.11-.47.33-.87.3-1.32-.29-.16-.56-.32-.85-.48-.11.4-.21.75-.32,1.16.27.21.55.41.87.64Zm.31-54.86c-.01-.11-.01-.2-.02-.3-.16.05-.33.03-.36.25.13.02.23.03.38.05Zm-.18,5.29c.1-.52-.15-.78-.53-.98.17.31.33.62.53.98Zm.02,2.91c-.05-.22-.11-.45-.16-.68-.1.01-.17.02-.24.02,0,.01-.01.03-.02.09.1.18.23.39.35.6.03-.01.05-.02.07-.03Zm-.13,5.03c.02-.36.08-.71.02-1.08-.1-.59-.34-1.13-.64-1.64-.23-.4-.59-.65-1.1-.79.1.12.15.18.21.24.29.27.47.61.53,1,.12.78-.03,1.54-.24,2.28-.01.03-.02.05-.03.07-.37.54-.58,1.17-1.01,1.67-.6.68-1.25,1.27-2.13,1.57-.45.16-.91.31-1.39.48.56.78,1.36,1.28,2.16,1.87.55-.37,1.03-.77,1.44-1.26.56-.67,1.07-1.35,1.49-2.11.39-.73.63-1.48.69-2.3Zm-.07-10.43c-.06-.08-.13-.15-.19-.23-.02.01-.04.03-.05.04.05.09.11.17.17.25.02-.02.05-.04.07-.06Zm0,52.23l-.09-.18s-.05.02-.07.03c.03.07.05.13.08.19.03-.01.06-.02.08-.04Zm-.14-51.92c.12.32.25.46.57.56q-.35-.46-.57-.56Zm-.01-.83c.05-.25.14-.49.05-.72-.04,0-.08.01-.12.01.02.24.05.47.07.71Zm-.2,3.82c.07-.09.16-.16,0-.27v.27Zm.03-.61c.03.07.09.12.18.23-.02-.62-.09-1.14-.68-1.5.18.46.33.87.5,1.27Zm-.31,51.09c.25.01.35-.1.33-.36-.01-.15-.03-.33-.11-.45-.26-.43-.53-.87-.85-1.25-.42-.49-.87-.95-1.51-1.15-.09-.03-.2-.14-.22-.22-.08-.28-.18-.54-.17-.84.01-.26-.02-.52-.03-.81-.12,0-.18-.01-.24,0-.48.1-.96.13-1.44.13-.41,0-.5.05-.5.48-.01.76-.1,1.53.17,2.29.07.21.14.37.32.48.07.04.12.09.18.13.47.31.93.65,1.43.9s1.08.48,1.67.57c.32.05.64.09.97.1Zm.15,3.51c.1-.02.18-.13.33-.25-.39-.2-.7-.35-1.05-.52-.12.32-.23.6-.37.93.41-.06.75-.09,1.09-.16Zm-.07-7.21c.08-.23.15-.43.24-.68-.39.05-.72.1-1.04.14v.09c.26.14.51.29.8.45Zm.52-48.67c-.17-.32-.32-.66-.6-.91,0,.43.28.68.6.91Zm-.5,4.25c.11-.19-.01-.27-.14-.35.04.11.09.23.14.35Zm-.48-.13c.11.15.23.29.34.44,0-.23-.06-.42-.28-.49l-.06.05Zm.25-1.8c0,.2.16.38.26.58,0-.55-.2-1.04-.39-1.62-.12.42.14.71.13,1.04Zm-.12,47.48c.1-.35.19-.68.29-1.04-.31-.17-.59-.32-.9-.49-.11.29-.21.54-.3.8.14.04.24.06.37.1.04.33.25.49.54.63Zm.1,3.51c.02-.11.04-.2.06-.32-.26-.04-.49-.08-.73-.11-.03,0-.06.07-.1.1-.09-.01-.18-.02-.29-.03-.2.45-.41.89-.6,1.33-.02.05.02.12.03.19h0s-.13.03-.15.07c-.18.3-.34.61-.51.92l.2.2c-.08-.01-.16-.03-.25-.05-.09.18-.17.35-.29.58.38-.03.68-.05,1.01-.08-.13-.15-.22-.25-.32-.35.12.06.26.1.36.18.19.18.41.17.67.12.12-.32.25-.64.38-.98-.29-.13-.55-.25-.81-.39-.1-.05-.19-.14-.29-.22.39.12.72.39,1.13.48.14-.41.28-.78.41-1.16q.11-.34-.22-.52c-.14-.08-.26-.17-.39-.25.23.09.45.19.7.29Zm-.08-54.33c.09-.15.18-.31-.09-.44.03.18.06.31.09.44Zm-.19,8.51c.07-.69-.11-1.3-.65-1.76-.12-.1-.25-.19-.37-.29-.02.02-.03.03-.05.04.05.08.08.17.14.24.27.4.28.84.19,1.29-.06.29-.11.59-.16.89-.01.06-.03.12-.05.17-.24.7-.75,1.14-1.39,1.45-.46.22-.95.26-1.45.2-.52-.06-.99-.2-1.33-.64-.05-.07-.13-.14-.2-.2-.37-.31-.62-.71-.8-1.15-.13-.29-.27-.57-.4-.86-.06.18-.07.35-.08.52-.02.45-.07.89-.05,1.33.02.4.08.8.26,1.16.17.33.36.66.54.98l.69,1.23c.3.51.38.57.91.39.82-.26,1.63-.51,2.27-1.14.37-.36.74-.7.99-1.14.24-.4.48-.81.7-1.23.08-.16.13-.34.16-.51.06-.33.1-.65.13-.97Zm-.03-6c0-.3.1-.6-.16-.87l.09.87h.07Zm-.25-3.53c.14-.12.29-.25.19-.54-.08.23-.14.39-.19.54Zm.12-.9c.11-.25.19-.42.29-.65-.3.14-.37.32-.29.65Zm-.13,3.22v-.2s-.02.01-.02.01v.19h.02Zm-.22,2.09l-.18-.3c-.02.15-.04.28.09.35.03-.02.06-.04.09-.05Zm-.17-5.47l.12-.42s-.05-.01-.08-.02c-.05.14-.09.27-.13.41l.09.03Zm.04,2.98v-.91c-.12.42-.11.64,0,.91Zm-.19,49.12c.11-.29.19-.52.3-.8-.36-.09-.67-.07-1.02.06.24.25.45.47.72.74Zm-.08-42.06c.15-.54,0-.99-.36-1.37-.14.53-.26,1.04-.41,1.55-.06.18-.16.38-.38.41-.39.06-.76.19-1.17.15-.88-.06-1.4-.63-1.88-1.27-.03-.03-.03-.09-.03-.14-.06-.44-.11-.88-.17-1.32-.01-.12-.03-.24-.04-.36-.23.18-.4.37-.53.58-.31.51-.32,1.1-.44,1.66-.02.07.03.14.06.21.13.28.28.56.41.85.25.57.73.94,1.18,1.34.31.28.74.28,1.13.32.7.07,1.28-.27,1.83-.66.23-.16.35-.4.48-.66.2-.41.19-.87.32-1.29Zm.07-4.53c-.01-.2-.02-.35-.15-.47-.03.17-.01.32.15.47Zm-.16-1.66c-.01-.62.14-1.23,0-1.85-.04.12-.05.24-.06.37-.03.39-.04.79-.08,1.18-.01.07-.11.12-.17.18.06.43.09.88.31,1.27-.03-.38-.07-.76-.11-1.15h.11Zm-.22-.64c.03-.29.05-.58.08-.9-.11.09-.18.15-.26.23.04.24.08.46.12.68.02,0,.04,0,.06-.01Zm-.77,21.52c-.2-.18-.36-.28-.47-.41-.48-.54-.96-1.09-1.43-1.64-.41-.5-.77-1.05-1.06-1.63-.24-.48-.49-.94-.72-1.42-.36-.7-.72-1.39-1.04-2.11-.27-.57-.51-1.17-.73-1.76-.17-.47-.45-.91-.5-1.43-.02-.21-.06-.43-.08-.64-.05-.42-.15-.84-.14-1.26,0-.42-.03-.86.1-1.28.07-.23.03-.5.06-.75.04-.4.09-.79.14-1.19-.37.05-.71.21-.95.5-.44.52-.68,1.13-.75,1.81-.02.23-.05.46-.06.68-.02.42-.09.84-.02,1.24.09.54.02,1.1.2,1.64.14.45.12.94.11,1.43-.01.67.08,1.35.13,2.02s.33,1.28.5,1.92c.08.29.16.59.27.86.15.35.34.67.49,1.01.33.71.66,1.4,1.25,1.93.19.18.38.31.64.38.25.07.5.18.72.33.24.17.44.39.67.59.17.13.35.25.54.4.7-.4,1.4-.8,2.13-1.22Zm-.67,37.58c.17-.18.17-.26.02-.49-.23.19-.64.28-.93.14-.36-.17-.73-.34-.98-.77-.04.12-.08.2-.09.29-.01.32.25.7.58.84.08.04.18.06.26.11.38.24.85.19,1.14-.12Zm-.23,1.05c.14-.06.29-.13.21-.33-.73.41-1.32.04-1.93-.34-.1.17,0,.26.09.33.09.09.2.18.31.24.42.23.86.3,1.32.1Zm-.2-.28c.23-.04.28-.18.2-.45-.47.14-.62.11-1.4-.25-.14.13-.1.26.02.36.34.28.74.42,1.18.34Zm-.41-1.93c.04-.25-.01-.47-.14-.69-.15-.27-.29-.54-.4-.81-.75-1.77-1.49-3.55-2.23-5.32-.05-.12-.07-.28-.26-.35-.16.83-.23,1.64-.26,2.46,0,.05.03.09.07.14.17-.44.02-.93.34-1.38.1.09.2.16.25.25.11.16.19.34.26.52.23.53.46,1.06.67,1.61.27.73.53,1.47.79,2.21.13.38.08.77.1,1.15.01.44.29.74.75.82.02-.2.02-.41.06-.61Zm-.78,2.24c.14.41.54.51.91.26-.29-.08-.58-.16-.91-.26Zm-.3-8.03c.2-.3.37-.56.56-.84-.35-.16-.63-.36-1.03-.33.16.38.3.74.47,1.17Zm.41-1.05c-.27-.26-.47-.47-.69-.68-.05.12-.1.24-.15.39.28.1.52.18.84.29Zm-.7-1.63c0-.22.02-.38,0-.53-.01-.08-.11-.21-.15-.21-.24.07-.54-.06-.77.2.04.09.07.23.14.26.24.11.49.17.79.28Zm-.26,1.23c.31-.35.24-.73.25-1.12-.25-.08-.49-.15-.79-.24.19.49.36.91.54,1.36Zm-.13-3.16c.13-.01.2-.06.15-.25-.27.02-.54.04-.82.06-.35.03-.68-.07-1.01-.18-.31-.1-.35-.12-.32-.44s.07-.65.13-.97c.16-.85.37-1.7.39-2.57.01-.3.08-.6.11-.9.04-.4.12-.8.1-1.19-.04-.58-.13-1.15-.24-1.72-.1-.49-.32-.93-.79-1.2-.17-.09-.31-.13-.5-.01-.17.12-.39.19-.59.26-.27.08-.54.14-.8.2-.07.02-.15.02-.22.04-.24.06-.5.09-.73.18-.58.24-1.17.23-1.77.21-.66,0-1.26-.3-1.89-.46-.48-.13-.95-.35-1.4-.59-1.01-.53-1.99-1.1-2.98-1.65-.04.03-.08.07-.11.1-.04-.15-.06-.28-.12-.39-.08-.14-.1-.25-.06-.33.04-.09.13-.13.29-.14.18-.02.37,0,.53.06.21.07.4.17.58.29.54.35,1.06.72,1.59,1.08.21.13.4.27.62.37.42.2.86.38,1.29.55.21.09.43.2.65.23.7.1,1.41.19,2.12.23.56.02,1.13-.01,1.65-.3l.66-.36s.02-.06.03-.09c-.64-.16-1.27-.32-1.9-.46-.48-.11-.92-.28-1.3-.61-.29-.26-.59-.5-.86-.76-.49-.47-.98-.94-1.44-1.43-.17-.18-.3-.42-.37-.66-.1-.34-.12-.7-.17-1.06-.05-.38-.09-.76-.14-1.19-.44.09-.84.18-1.18.41-.72.51-1.42,1.04-2.15,1.54-.69.47-1.38.92-2.08,1.37-.05.03-.11.07-.16.1-.09.06-.18.12-.28.19-.05-.07-.1-.11-.12-.16-.1-.3-.22-.59-.29-.89-.17-.76-.22-1.53-.2-2.31.02-.58.06-1.17.07-1.76.02-.44.03-.47.44-.57.87-.19,1.74-.38,2.6-.57.68-.15,1.36-.22,2.05-.16.36.04.72.04,1.08.05.19.01.28-.08.3-.27.03-.25.06-.51.13-.75.07-.26.02-.42-.18-.6-.32-.28-.67-.53-.87-.94.24-.35.49-.7.74-1.05.1-.14.23-.14.35-.03.2.18.4.37.61.56.17-.25.24-.48.05-.77-.13-.18-.19-.41-.3-.64-.12.04-.26.09-.39.14-.59.26-1.17.52-1.75.78-.21.09-.43.16-.64.24-.38.15-.75.34-1.14.45-.89.25-1.79.47-2.69.7-.21.06-.31.02-.37-.18-.12-.36-.23-.73-.31-1.11-.12-.57-.21-1.14-.31-1.71-.03-.16-.09-.32-.15-.53.46-.18.91-.36,1.35-.54.75-.3,1.49-.59,2.24-.84.3-.1.6-.19.9-.28.9-.27,1.82-.51,2.72-.76.06-.28-.02-.46-.22-.61-.1-.07-.17-.17-.26-.25-.23-.2-.47-.41-.71-.61-.11-.1-.21-.21-.3-.3.14-.17.26-.31.36-.45.26-.35.51-.71.78-1.04.19-.24.2-.23-.02-.56-.6.04-1.23.03-1.85.13-.44.08-.87.17-1.31.28-.45.09-.89.2-1.34.31-.71.16-1.39.39-2.03.75-.11.04-.22.11-.32.17-.24.15-.49.27-.74.38-.43.2-.61.14-.82-.27-.04-.08-.06-.16-.08-.24-.05-.18-.09-.36-.14-.53-.31.1-.59.19-.9.28.08.48.22.93.37,1.37.15.46.36.9.45,1.37.2,1.01.35,2.02.5,3.04.07.5.07,1.01.1,1.51.02.34.05.67.07,1.01.04.66.05,1.33.12,1.98.07.71.19,1.41.29,2.11.13.8.24,1.61.39,2.41.08.45.08.91.25,1.35.04.08.02.19.03.28.03.3.07.6.1.9s.06.59.08.89c.01.08.01.18.04.25.14.26.1.55.13.83.07.61.1,1.22.19,1.83.05.42.17.82.24,1.23.07.39.08.79.16,1.18.09.39.05.79.12,1.19.11.65.09,1.33.12,1.99.01.26-.02.52,0,.78.08.82.19,1.63.24,2.44.05.69.02,1.37.03,2.06,0,.17.05.34,0,.5-.1.46-.15.93-.2,1.4-.04.4-.11.81-.18,1.21-.06.41-.13.81-.2,1.21,0,.08-.02.16-.04.26.57.1,1.12.15,1.68.11.19-.01.31-.12.32-.33.02-.28.04-.57.06-.86.03-.68.06-1.37.08-2.05.02-.31.05-.62.05-.94,0-.35-.03-.7-.05-1.04,0-.1-.04-.19-.06-.29-.05-.33.1-.52.44-.55.49-.03.99-.08,1.48-.11.9-.07,1.81.05,2.71-.08.48-.08.99.04,1.48.08.17.02.28.1.3.3.09.86.26,1.71.26,2.58.01.56.07,1.11.1,1.67.01.22.05.45.04.68-.02.48-.05.97-.07,1.45-.01.1.01.21.02.3.26.1.49.13.74.09.3-.05.6-.1.9-.1.21-.01.4-.04.6-.17-.04-.42-.07-.85-.12-1.28-.04-.42-.11-.84-.16-1.26-.05-.55-.11-1.1-.14-1.65-.04-.64-.05-1.28-.08-1.92,0-.14-.02-.29-.01-.43,0-.16.06-.25.24-.3.85-.2,1.68-.45,2.52-.64.53-.12,1.07-.2,1.61-.27.37-.05.74-.05,1.12-.07Zm-1.47,6.36c.16,0,.32-.19.3-.43-.63.3-1.08,0-1.51-.44-.09.3,0,.49.18.66.3.28.68.24,1.03.21Zm.01.89c.22-.02.24-.15.08-.37-.46.35-.86.35-1.31-.3-.25.26-.25.36.04.51.37.2.78.19,1.19.16Zm-.4-.29c.24-.02.36-.16.38-.45-.3-.03-.57-.07-.84-.1-.05,0-.13.04-.15.07-.02.06-.02.16.01.2.15.19.35.31.6.28Zm-.52.82c.3.06.47-.05.59-.39-.3-.04-.59-.09-.9-.14-.02.29.1.49.31.53Zm-6.56-29.16c.03-.08.04-.21,0-.27-.16-.22-.3-.47-.62-.6-.18.26-.37.52-.54.79-.04.07-.02.22.03.29.2.25.45.44.76.64.13-.31.26-.58.37-.85Zm-.19-2.13c-.12-1.08-.24-2.11-.37-3.19-.57.16-1.12.29-1.63.48-.69.26-1.36.57-2.08.73-.26.06-.51.16-.77.22-.75.18-1.42.54-2.18.82.18.4.25.76.3,1.13.06.5.22.99.33,1.48.04.18.13.28.33.27.09,0,.19,0,.28-.02.31-.06.62-.11.92-.2.55-.16,1.11-.26,1.62-.52.33-.17.69-.31,1.05-.39.6-.13,1.15-.37,1.71-.6.18-.07.35-.15.49-.21Zm-.47-4.16c.04-.44-.08-.79-.1-1.15-.02-.37-.08-.73-.12-1.14-.42.38-.65.82-.89,1.24.37.35.71.67,1.11,1.05Zm-.09,10.81c0-.43,0-.87,0-1.32-.32-.04-.59-.07-.87-.09-.27-.02-.55-.02-.83-.01-.27,0-.56.06-.82.01-.27-.06-.48.1-.74.07-.27-.03-.55.03-.83.06-.27.03-.55.05-.82.1s-.53.13-.76.18v.77c0,.35,0,.7.03,1.04.05.61.13,1.22.2,1.83.04.26.08.53.12.83.4-.22.78-.38,1.04-.71.02-.03.05-.05.08-.07.42-.33.83-.67,1.24-1,.67-.52,1.39-.96,2.22-1.17.19-.05.37-.13.55-.21.13-.05.2-.15.2-.31Zm-9.19-13.56c.12-.22-.06-.48-.38-.48-.12.07-.3.16-.46.28-.04.03-.04.18-.01.25.06.17.22.27.4.25.19-.02.36-.12.45-.3Z"/>
      <path class="cls-1" d="m83.5,72.73c.19.42.26.83.03,1.26-.11.21-.19.44-.3.65-.29.51-.74.79-1.29.98-.55.18-1.09.16-1.64.15h-.14s0,.02-.05.06c.42.22.85.12,1.26.1.43-.02.85-.16,1.23-.4.37-.24.68-.53.92-.93-.01.07.01.15-.02.22-.22.64-.57,1.16-1.28,1.36-.28.09-.56.22-.84.32-.36.11-.73.21-1.12-.02.03.25.16.38.37.34.35-.05.71-.07,1.05-.24.24-.13.53-.18.78-.3.21-.1.4-.25.6-.38.07-.04.12-.1.22-.19.01.09.03.13.03.17-.06.64-.69,1.27-1.32,1.32-.04,0-.08-.01-.11.01-.45.2-.94.18-1.41.29-.16.03-.33.09-.35.3-.02.18.14.39.33.46.21.06.41.1.64.05.47-.09.95-.16,1.43-.21.21-.02.43.02.64.06.07.01.11.1.22.21-.11,0-.16,0-.19-.01-.63-.27-.89-.13-.93.58-.12.01-.25.06-.38.04-.54-.07-1.06-.2-1.59-.34-.57-.15-1.07-.43-1.58-.69-.62-.31-1.3-.4-1.98-.44-.31-.02-.6.02-.89.11-.36.12-.75.15-1.13.13-.28-.02-.46-.24-.59-.46-.43-.7-.63-1.45-.43-2.28.07-.3.22-.53.51-.66.22-.09.43-.2.66-.27.46-.16.94-.26,1.32-.67.05.09.08.16.1.21.06-.04.09-.05.09-.06.01-.17.08-.29.23-.38.45-.3.87-.66,1.34-.91.61-.32,1.28-.49,1.99-.55.19.34.44.61.82.73.44-.21.76-.51.73-1.05.33.1.47.38.29.61-.19.23-.38.45-.68.57-.26.1-.5.13-.75.06-.66-.18-1.11.47-1.09.97.01.41.11.82.5,1.07.08.05.17.11.25.13.6.11,1.2.14,1.79-.08.8-.29.82-.63.85-1.3.01-.25-.12-.5-.2-.75-.1-.32-.15-.64,0-.96.03-.06.11-.1.23-.21-.04.39,0,.69.28.88.09.05.19.11.31-.02-.31-.17-.56-.37-.36-.76.22.07.2.29.29.43.12.22.21.46.31.69Zm-2.82,2.46c.14.11.25.12.32-.12-.14.05-.23.09-.32.12Zm-.12.14s.02-.06.02-.1c-.07-.02-.14-.06-.21-.06-.3,0-.59-.04-.88-.15-.38-.14-.73-.32-.85-.75-.02-.07-.06-.13-.08-.19-.11.27-.01.49.16.66.52.49,1.16.61,1.84.59Zm-.69,1.39s-.03-.06-.04-.06c-.29-.02-.58-.03-.87-.05.12.24.61.3.91.11Zm-.49-1.04q.07.26.35.24c-.03-.22-.2-.18-.35-.24Zm-.86-1.85c.02-.06.04-.12.07-.18l-.09-.03c-.02.06-.05.12-.07.18l.09.03Zm-.25,1.44c-.14-.23-.26-.41-.4-.63-.1.3.01.49.4.63Z"/>
      <path class="cls-1" d="m82.93,64.47c.03.13.01.24.01.43-.41-.95-.97-1.65-2.03-1.86v-.44c.41-.01.78.06,1.14.21.33.13.55.34.62.73.06.31.19.62.26.93Z"/>
      <path class="cls-1" d="m82.48,78.86c.05-.47.23-.54.7-.28-.17.25-.41.26-.7.28Z"/>
      <path class="cls-1" d="m82.53,64.36c.22.3.19.63.12.97-.16-.56-.56-.94-.99-1.27-.19-.14-.45-.19-.73-.3v-.57c.42.01.75.21,1.03.47.22.21.39.46.57.7Z"/>
      <path class="cls-1" d="m82.21,64.78c.26.39.4.8.29,1.3-.04.17.05.38,0,.57-.1.32-.18.65-.32.96-.08.18-.26.33-.4.49l-.07-.05c.01-.05,0-.11.03-.14.2-.2.17-.46.21-.71.05-.26.12-.52.12-.78.01-.5-.14-.95-.54-1.28-.08-.06-.13-.15-.22-.2-.39-.19-.44-.52-.38-.93.31-.06.57.02.79.26.16.17.37.32.5.51Z"/>
      <path class="cls-1" d="m80.94,64.89c.84.39,1.27,1.19.79,2.54-.29.1-.59.2-.89.3-.06-.19-.01-.4.09-.59.19-.35.22-.7.02-1.07-.05-.09-.05-.23-.05-.34,0-.28.02-.55.04-.84Z"/>
      <path class="cls-1" d="m81.65,67.66c-.05.35-.23.6-.45.84-.22-.23-.3-.45-.19-.59.15-.2.36-.29.64-.25Z"/>
      <path class="cls-1" d="m81.19,71.33c.16.39,0,.74-.38.89-.2.08-.51-.16-.7-.57.38-.11.73-.22,1.08-.32Z"/>
      <path class="cls-2" d="m81,75.07c-.07.24-.18.23-.32.12.09-.03.18-.07.32-.12Z"/>
      <path class="cls-1" d="m80.78,68.1c.06.15.12.3.18.46q-.19,0-.18-.46Z"/>
      <path class="cls-1" d="m80.2,64.6c.57.04.57.05.54.62v.62c-.59-.23-1.14-.12-1.71.06v-.99c.32-.32.74-.33,1.17-.31Z"/>
      <path class="cls-1" d="m80.52,62.59c.13-.03.21.03.2.18,0,.08-.03.16-.05.26-.5.15-1.01.29-1.55.45v-.43c.44-.27.93-.34,1.4-.46Z"/>
      <path class="cls-1" d="m80.66,63.23c.13.2.01.39.02.62-.36.01-.7.02-1.05.03-.09,0-.21-.01-.16.18.4-.07.81-.12,1.24-.01v.37c-.2.04-.4.11-.62.06-.36-.07-.69.08-1.07.19.02-.35.05-.68.07-1.02.51-.18,1.01-.4,1.57-.42Z"/>
      <path class="cls-1" d="m80.57,67.78c.06.28.07.57-.02.89-.26-.34-.13-.62.02-.89Z"/>
      <path class="cls-2" d="m80.58,75.23s0,.07-.02.1c-.68.02-1.32-.1-1.84-.59-.17-.17-.27-.39-.16-.66.02.06.06.12.08.19.12.43.47.61.85.75.29.11.58.15.88.15.07,0,.14.04.21.06Z"/>
      <path class="cls-1" d="m79.92,68.5c.26.15.27.27.06.48-.06.07-.14.12-.25.2-.2-.38-.42-.66-.84-.71v-.47c.35.17.7.32,1.03.5Z"/>
      <path class="cls-2" d="m79.83,76.66s.02.04.04.06c-.3.19-.79.13-.91-.11.29.02.58.03.87.05Z"/>
      <path class="cls-2" d="m79.73,75.92q-.28.02-.35-.24c.15.06.32.02.35.24Z"/>
      <path class="cls-2" d="m79.61,38.89c.08.12.05.23-.08.3-.14.06-.27,0-.31-.14-.06-.18-.05-.34.21-.43.06.1.13.18.18.27Z"/>
      <path class="cls-1" d="m79.59,69.22c-.21.21-.41.1-.62,0-.29-.15-.08-.38-.12-.62.41.07.6.31.74.62Z"/>
      <path class="cls-1" d="m78.91,63.09v.44c-.19.1-.37.19-.55.29.02.03.03.05.04.08.15-.05.3-.11.49-.18,0,.12-.01.22-.02.32-.01.57-.02,1.14-.02,1.71,0,.17-.04.27-.21.32-.11.04-.21.12-.32.16-.39.15-.44.48-.45.82-.01.16.04.32.19.41.08.05.15.12.23.18q.41.28.38.81c-.08.05-.17.09-.25.14-.07.06-.14.12-.22.18-.52-.24-1.04-.48-1.59-.74,0-.36,0-.73-.01-1.1-.01-.7-.04-1.4-.05-2.1,0-.11.02-.26.09-.33.56-.58,1.21-1.03,1.95-1.36.06-.03.13-.05.2-.07.03,0,.07.01.12.02Z"/>
      <path class="cls-1" d="m78.63,68.65v.26c-.07,0-.15,0-.22,0,0-.04,0-.07,0-.11.07-.04.13-.08.23-.14Z"/>
      <path class="cls-2" d="m78.59,73.65c-.03.06-.05.12-.07.18l-.09-.03c.02-.06.05-.12.07-.18l.09.03Z"/>
      <path class="cls-1" d="m78.34,109.96c.23.29.2.62-.1.78-.48.26-1.01.31-1.54.18-.26-.06-.44-.24-.59-.46-.12-.19-.13-.36.03-.56.15.45.66.77,1.1.74.28-.02.56-.03.83-.05.25-.02.27-.05.27-.28v-.35Z"/>
      <path class="cls-1" d="m78.15,106.96c-.11,1.1.19,2.15-.03,3.25-.26.06-.52.12-.83.19,0-.13-.01-.22-.02-.31-.03-.63-.05-1.26-.09-1.88-.03-.32-.08-.34-.41-.4-.46-.08-.91-.04-1.37.03-1.04.17-2.08.33-3.14.28-.37-.01-.75.07-1.12.07-.72-.01-1.42.11-2.13.2-.37.05-.75.06-1.12.08-.61.04-1.21.06-1.81.1-.3.03-.61.07-.9.14-.67.16-1.34.18-2.02.15h-.36c-.69-.02-.71-.01-.98-.61-.32-.69-.59-1.4-.89-2.1-.43-1.02-.85-2.03-1.28-3.04-.07-.18-.15-.36-.22-.54-.06-.13-.11-.27-.16-.4-.06-.14-.17-.25-.31-.2-.08.03-.15.19-.16.29-.07.7-.12,1.4-.18,2.1-.01.13-.04.26-.06.42-.27-.02-.45-.15-.62-.28-.06-.05-.09-.2-.08-.29.04-.36.09-.72.16-1.08.14-.71.29-1.42.44-2.13.05-.26.09-.51.15-.85.09.15.15.22.18.3.18.47.36.95.54,1.42.3.82.68,1.6,1.11,2.36.46.83.82,1.7,1.13,2.6.14.41.32.8.61,1.14.21.23.46.32.75.26.55-.12,1.1-.1,1.66-.09.41.01.82-.08,1.22-.09.38-.02.75.02,1.13.01.38-.02.77-.05,1.15-.1.77-.1,1.54-.13,2.31-.13.62,0,1.23-.09,1.84-.14.22-.02.44-.06.66-.06.62.01,1.18-.22,1.77-.36.56-.13,1.13-.24,1.7-.35.13-.03.27-.01.4,0,.34.01.67.02,1.01.03.11.01.21.01.37.01Z"/>
      <path class="cls-2" d="m77.87,74.64c.14.22.26.4.4.63-.39-.14-.5-.33-.4-.63Z"/>
      <path class="cls-2" d="m77.95,36.22c.14.35.13.36-.21.55-.16-.06-.28-.16-.22-.34.06-.23.25-.23.43-.21Zm-.14.44c.05-.09.1-.14.09-.19,0-.03-.07-.09-.11-.09-.04.01-.08.07-.09.12-.01.02.04.06.11.16Z"/>
      <path class="cls-1" d="m61.3,104.49s-.01-.06-.03-.08h-.01s.02.05.04.08Zm.14.33s.02.06.04.1l.21.51s.02.03.03.04c-.01-.01-.01-.03-.02-.04l-.21-.51s-.03-.07-.05-.1Zm1.64-1.07h.01s-.01.01-.01.02h0c-.07.09-.14.17-.19.26-.15.24-.28.49-.42.73-.13-.03-.22-.06-.31-.09.07.07.14.13.25.23-.16.24-.32.49-.51.77-.05-.06-.08-.11-.13-.14.1.18.2.37.3.55.03.28.19.5.35.71h.01s.01.03.01.04c.07.2.16.4.26.64.3.01.61.04.92.04,1.21-.03,2.39-.31,3.6-.4,1.43-.1,2.86-.3,4.31-.24.32.01.65-.05.97-.1.67-.1,1.34-.2,2-.33.51-.1,1.01-.25,1.52-.37.17-.04.2-.16.15-.31-.03-.08-.07-.15-.12-.22-.44-.62-.87-1.25-1.33-1.85-.28-.39-.63-.74-.91-1.12-.18-.24-.28-.53-.44-.79-.12-.19-.25-.38-.38-.56t-.01-.02c-.03-.21-.11-.38-.28-.5h-.01c-.06-.23-.15-.44-.35-.58-.22-.39-.44-.76-.67-1.15-.08-.14-.2-.19-.36-.18-.18.01-.36,0-.57,0-.03-.2-.05-.38-.07-.56.88-.19,1.45.11,1.78.69.3.55.62,1.1.96,1.63.24.36.53.69.79,1.04.15.2.29.41.43.62.32.46.64.92.96,1.37.4.56.79,1.13,1.22,1.68.3.37.65.71.98,1.06.08.09.15.18.29.34-.25.01-.42.03-.6.04-.76.04-1.52.03-2.28.12-.97.12-1.93.32-2.9.47-.65.1-1.31.2-1.98.25-1.05.07-2.1.1-3.15.16-.38.02-.77.09-1.15.13-.67.05-1.35.1-2.02.15-.38.02-.75.03-1.13.06-.37.03-.42-.02-.62-.35-.41-.69-.74-1.41-1.05-2.14-.29-.67-.55-1.35-.9-1.99-.57-1.07-.99-2.2-1.45-3.32-.17-.4-.09-.56.31-.68.45-.14.91-.25,1.36-.37.16.23-.01.43.04.65-.23.06-.44.11-.65.16-.39.11-.46.2-.32.56.19.5.43.98.64,1.47.24.55.46,1.11.7,1.66.03.08.08.15.13.22-.05-.22.01-.4.14-.57.14-.19.26-.4.41-.62.56.16,1.02.5,1.55.7-.03.13-.05.23-.07.32h0Zm-1.71.58c.15.05.3.11.44.17-.23-.15-.46-.31-.7-.46-.01.15.03.27.16.36.04-.03.08-.08.1-.07Z"/>
      <path class="cls-1" d="m77.81,111.39c.01.37-.05.46-.34.51-.42.07-.82-.01-1.18-.23-.24-.14-.26-.24-.12-.56.49.37.99.78,1.64.28Z"/>
      <path class="cls-1" d="m76.3,110.93c.47.28.93.23,1.43.19-.38.47-.99.38-1.43-.19Z"/>
      <path class="cls-1" d="m76.98,110.25c-.28.04-.44-.09-.63-.19-.03-.53-.07-1.05-.1-1.57-.19-.09-.34-.08-.49-.02-.1.04-.21.08-.32.07-.7-.03-1.39.14-2.09.2-.65.07-1.3.14-1.94.22-.37.05-.75.11-1.11.21-.63.16-1.27.15-1.91.18-.61.04-1.23.1-1.85.11-.4.01-.81-.04-1.22-.06-.08-.01-.15-.03-.22-.03-.73.02-1.45-.05-2.17-.14-.05-.01-.1,0-.17,0-.04.23-.07.45-.12.7-.15.02-.3.04-.48.07v-.75c0-.13.06-.21.18-.23.16-.02.31-.05.47-.04.96.06,1.91-.05,2.85-.21.57-.1,1.16-.12,1.73-.16.85-.07,1.7-.16,2.54-.15.7,0,1.4-.08,2.1-.09.19,0,.39.02.58.04.54.05,1.05-.16,1.58-.19.66-.04,1.32-.08,1.99-.12.22-.01.45-.02.71-.03.17.76.01,1.47.09,2.18Z"/>
      <path class="cls-2" d="m76.5,40.36c.19.1.33.23.31.48-.19.07-.28-.04-.36-.17-.07-.11-.08-.22.05-.31Z"/>
      <path class="cls-1" d="m76.38,64.78c.09,1.03.08,2.09.06,3.19-.49-.08-.93-.15-1.42-.22-.03-.94-.18-1.86-.16-2.8.52-.06,1.01-.11,1.52-.17Z"/>
      <path class="cls-2" d="m76.17,34.8c-.21.18-.35.2-.49.1-.11-.08-.11-.23.03-.48.24,0,.33.19.46.38Z"/>
      <path class="cls-1" d="m75.84,41.13c-.21.4-.42.79-.61,1.19-.21.45-.42.9-.6,1.36-.34.89-.6,1.81-.79,2.74-.04.17-.05.34-.06.51-.01.26-.04.52-.22.75-.09-.01-.18,0-.25-.04l-1.08-.57c-.15-.09-.27-.21-.47-.23-.14-.01-.28-.14-.4-.23-.21-.16-.41-.11-.6.02-.17.12-.34.26-.5.39-.58-.51-1.26-.74-2.02-.75-.53-.01-1.06.01-1.59.04-.19.02-.39.08-.55.18-.52.31-1.09.61-1.36,1.19-.19.42-.34.86-.48,1.29-.28.94-.31,1.89-.19,2.86.07.58.26,1.13.37,1.7.03.19.14.38.22.59-.1.12-.19.27-.32.38-.33.27-.43.62-.45,1.02-.03.55-.04,1.1-.08,1.65-.02.29-.07.58-.18.84-.17.42-.58.71-1.11.71-.85.01-1.4-.45-1.87-1.07-.09-.12-.14-.29-.16-.44-.05-.57-.13-1.14-.12-1.73,0-.69.17-1.35.32-2.02.06-.26.19-.49.3-.74.36-.83.33-1.64-.03-2.48-.27-.65-.58-1.3-.58-2.04,0-.12-.03-.24-.06-.36-.09-.35-.05-.69.02-1.04.17-.78.33-1.56.5-2.33.06-.26.13-.52.21-.77.02-.07.08-.12.13-.17.38-.42.49-.95.53-1.48.04-.68,0-1.37.01-2.05.01-.52.27-.94.62-1.31.3-.31.68-.44,1.11-.45.18,0,.36-.01.53-.03.47-.06.71.17.67.64-.03.37-.05.74-.05,1.11-.01.11.04.21.07.35h.41c.39-.01.61-.23.67-.62.08-.56.34-1.01.89-1.26.21-.09.39-.24.57-.38.36-.25.79-.35,1.2-.5.22-.09.46-.15.66-.27.33-.18.68-.24,1.04-.27.46-.05.93-.12,1.39,0,.07.01.14.03.2.07.8.57,1.48,1.28,2.15,1.99.4.43.83.84,1.25,1.26.24.25.48.51.74.8Zm-2,.53c.09-.41.07-.83-.01-1.25-.06-.32-.2-.58-.41-.83-.28-.35-.64-.61-.98-.89-.2-.15-.4-.31-.67-.33-.07,0-.14-.04-.2-.08-.54-.31-1.13-.31-1.73-.29-.46.02-.87.2-1.3.29-.23.05-.4.19-.46.45-.06.25-.09.49-.02.74.06.21.1.43.15.64.15.64.35,1.25.79,1.77.29.34.65.58,1.03.83.45.29.91.41,1.43.42.13,0,.27.02.4.03-.46.39-.99.5-1.55.52-.01.03-.01.06-.02.09.11.02.22.09.32.08.51-.06.99-.2,1.42-.49.24-.17.49-.32.74-.45.54-.27.94-.64,1.07-1.25Zm-4.81,1.81c.23.22.26.21.51-.04-.17.01-.31.02-.51.04Zm-.29-5.77v-.07c-.46.04-.6.11-.61.33.21-.09.41-.17.61-.26Zm-.69,5.47q.06.26.46.06c-.2-.03-.33-.05-.46-.06Zm-.35-4.65c.05-.19.18-.36.27-.54-.39.11-.55.54-.43,1.16h.08c.02-.2.02-.42.08-.62Zm.14,1.49s-.08-.06-.1-.08c-.03.03-.06.06-.07.1,0,.02.05.06.06.06.04-.01.06-.05.11-.08Zm-.07-.14c-.05-.17-.1-.29-.14-.41-.03,0-.05,0-.08.01-.05.16-.04.31.22.4Zm-3.78-.3c.06-.19-.16-.57-.36-.59-.37-.03-.72.02-.97.35-.38.48-.38,1.02-.27,1.58.06.32.13.64.19.96.06.3,0,.56-.23.79-.19.18-.33.41-.31.71.01.2.09.34.29.41.2.08.4.17.63-.11-.18,0-.28.02-.38,0-.38-.08-.49-.35-.28-.67.07-.1.13-.2.22-.29.24-.25.29-.54.22-.87-.08-.42-.16-.85-.26-1.27-.08-.36.02-.67.17-.97.16-.31.45-.42.76-.49.2-.04.48.18.45.36-.05.29-.15.57-.32.82-.01-.16.01-.3.04-.45.05-.2-.03-.36-.16-.5-.14-.13-.28-.03-.4.02-.14.05-.12.16-.05.27.02-.01.05,0,.07-.01.08-.07.12-.2.26-.13.14.06.15.18.13.3s-.04.24-.07.36c-.02.09-.05.19-.06.28-.01.11,0,.23.14.26.15.03.21-.06.25-.19.09-.31.2-.62.3-.93Zm-.95,1.55c.07-.48-.03-.68-.33-.71.11.24.21.46.33.71Z"/>
      <path class="cls-2" d="m74.94,38.44c.15.11.25.21.15.37-.03.04-.16.07-.21.05-.13-.05-.11-.16.06-.42Z"/>
      <path class="cls-1" d="m74.67,65.02c.05.85.1,1.63.15,2.49-.48-.29-.47-.74-.52-1.12-.07-.46,0-.93.37-1.37Z"/>
      <path class="cls-2" d="m74.57,37.95c.03.21-.18.42-.38.36-.22-.06-.43-.15-.63-.23-.03-.27.13-.4.29-.5.23-.16.69.09.72.37Zm-.21.11c.04-.05,0-.18-.05-.24-.07-.08-.18-.11-.3-.17-.08.11-.16.21-.27.35.17.07.28.14.39.16.08.01.2-.04.23-.1Z"/>
      <path class="cls-2" d="m73.83,40.41c.08.42.1.84.01,1.25-.13.61-.53.98-1.07,1.25-.25.13-.5.28-.74.45-.43.29-.91.43-1.42.49-.1.01-.21-.06-.32-.08.01-.03.01-.06.02-.09.56-.02,1.09-.13,1.55-.52-.13,0-.27-.03-.4-.03-.52-.01-.98-.13-1.43-.42-.38-.25-.74-.49-1.03-.83-.44-.52-.64-1.13-.79-1.77-.05-.21-.09-.43-.15-.64-.07-.25-.04-.49.02-.74.06-.26.23-.4.46-.45.43-.09.84-.27,1.3-.29.6-.02,1.19-.02,1.73.29.06.04.13.08.2.08.27.02.47.18.67.33.34.28.7.54.98.89.21.25.35.51.41.83Zm-.22,1.48c.24-.75.23-1.46-.25-2.15-.35-.51-.87-.76-1.3-1.14-.03-.03-.09-.03-.13-.05-.2-.08-.4-.17-.61-.23-.16-.06-.34-.11-.52-.12-.21-.01-.42.05-.64.05-.46,0-.92.01-1.42.3.22,0,.36,0,.5-.01.46-.01.92-.01,1.35.18.39.18.78.36,1.15.6.63.42.99,1.03,1.34,1.67.03.05.02.11.03.17.07.37.13.73.21,1.18.13-.19.24-.31.29-.45Zm-.49.31c.01-.44-.31-.78-.38-1.19-.02-.1-.11-.2-.17-.29-.42.61-.91,1.06-1.71,1.11.71.58,1.46.57,2.26.37Zm-.55.55s0-.06,0-.09c-.08-.02-.17-.04-.26-.04-.73-.03-1.38-.25-1.95-.74-.46-.41-.85-.89-1.21-1.39-.24-.32-.5-.65-.55-1.08-.02-.17-.11-.32-.2-.57-.05.16-.09.22-.1.29-.1.76.14,1.46.47,2.12.31.63.86,1.05,1.48,1.38.76.42,1.53.47,2.31.12Zm-.24-2.04c.04-.07.03-.21-.02-.27-.31-.38-.61-.77-1.05-1.04-.25-.15-.49-.12-.73.05-.25.18-.4.43-.49.7-.08.24-.06.52-.09.78.26.32.46.74.99.71.17-.03.37-.02.52-.1.23-.13.43-.3.63-.48.11-.09.19-.22.24-.35Zm-2.55-.08c.08-.62.34-1.13.91-1.47-.57-.35-1.16-.37-1.76-.33.03.38.58,1.55.85,1.8Z"/>
      <path class="cls-1" d="m73.36,39.74c.48.69.49,1.4.25,2.15-.05.14-.16.26-.29.45-.08-.45-.14-.81-.21-1.18-.01-.06,0-.12-.03-.17-.35-.64-.71-1.25-1.34-1.67-.37-.24-.76-.42-1.15-.6-.43-.19-.89-.19-1.35-.18-.14.01-.28.01-.5.01.5-.29.96-.3,1.42-.3.22,0,.43-.06.64-.05.18.01.36.06.52.12.21.06.41.15.61.23.04.02.1.02.13.05.43.38.95.63,1.3,1.14Z"/>
      <path class="cls-2" d="m73.82,33.56c0,.07-.06.2-.12.23-.07.03-.2,0-.25-.05s-.07-.18-.04-.25c.05-.1.15-.17.27-.29.06.15.13.25.14.36Z"/>
      <path class="cls-2" d="m73.22,36.96c.17.31.16.35-.13.46-.15-.26-.15-.27.13-.46Z"/>
      <path class="cls-2" d="m73.02,66.1c.05.04.09.07.13.11-.04.04-.09.1-.13.11-.04,0-.09-.07-.13-.11.03-.03.07-.07.13-.11Z"/>
      <path class="cls-2" d="m72.97,101.2c-.1-.17-.19-.33-.28-.5.17.12.25.29.28.5Z"/>
      <path class="cls-1" d="m72.58,42.66s0,.06,0,.09c-.78.35-1.55.3-2.31-.12-.62-.33-1.17-.75-1.48-1.38-.33-.66-.57-1.36-.47-2.12.01-.07.05-.13.1-.29.09.25.18.4.2.57.05.43.31.76.55,1.08.36.5.75.98,1.21,1.39.57.49,1.22.71,1.95.74.09,0,.18.02.26.04Z"/>
      <path class="cls-1" d="m71.76,99.45q.17.12.17.34-.2-.11-.17-.34Z"/>
      <path class="cls-2" d="m71.81,76.77c-.15.12-.27.22-.35-.03q.17-.1.35.03Z"/>
      <path class="cls-2" d="m71.68,65.63c-.02.14-.03.27-.05.4h-.03v-.39s.05,0,.08-.01Z"/>
      <path class="cls-2" d="m71.45,35.37s.09.09.08.14c-.02.1-.04.22-.11.28-.11.11-.22.04-.35-.1.07-.1.13-.19.2-.26.04-.05.12-.07.18-.06Z"/>
      <path class="cls-2" d="m71.42,40.59c.14.04.12.26-.03.35-.06.03-.13.05-.2.07-.19.03-.39,0-.49-.16-.06-.08-.04-.26.01-.37.09-.18.24-.3.48-.21.1.08.03.27.23.32Z"/>
      <path class="cls-2" d="m71.38,36.74s-.03.04-.04.06c-.45.02-.91.04-1.36.06-.47.02-.88.25-1.3.41-.32.12-.64.21-.95.34-.22.1-.43.25-.65.37-.26.15-.54.28-.78.46-.41.32-.65.76-.74,1.28-.05.31-.15.41-.39.43-.36.03-.49-.09-.45-.46l.09-.93c.04-.4-.26-.73-.67-.71-.32,0-.65.02-.97.05-.55.06-.94.39-1.22.83-.27.44-.45.9-.38,1.47s.02,1.15-.02,1.73c-.02.32-.13.63-.23.94-.04.12-.18.31-.27.3-.2-.02-.45.02-.57-.22-.19-.38-.36-.77-.3-1.21.11-.8.24-1.6.62-2.34.13-.25.19-.55.3-.81.24-.55.47-1.09.73-1.62.15-.31.41-.53.69-.73.28-.19.55-.44.89-.54l.51-.15c.48-.15.96-.3,1.45-.45.06-.02.14-.03.21-.03.8-.02,1.59-.03,2.39-.05.22-.01.42.05.62.16.81.43,1.59.91,2.47,1.18.12.04.22.12.32.18Z"/>
      <path class="cls-2" d="m71.19,31.91c.12.13.21.23.35.37-.13.11-.23.2-.34.29-.27-.32-.27-.35-.01-.66Z"/>
      <path class="cls-2" d="m71.13,79.87c-.14,0-.3.02-.25-.21.09.08.17.14.25.21Z"/>
      <path class="cls-2" d="m71.22,76.58c-.11.12-.2.2-.34.1-.12-.07-.13-.16-.05-.27.13.05.25.11.39.17Z"/>
      <path class="cls-2" d="m71.12,73.13c-.21.11-.29.05-.34-.07.02-.03.04-.07.06-.1.08.05.17.1.28.17Z"/>
      <path class="cls-2" d="m70.81,34.52c.23.5.03.91-.48,1-.07.01-.17-.01-.23-.06-.2-.18-.11-.62.14-.72.19-.08.38-.15.57-.22Zm-.43.85c.17-.02.39-.29.38-.47,0-.06-.07-.12-.09-.16-.33,0-.53.23-.46.5.02.06.11.13.17.13Z"/>
      <path class="cls-2" d="m70.41,73.47c.18.07.18.16.11.28-.16-.03-.18-.12-.11-.28Z"/>
      <path class="cls-2" d="m70.55,74.21s-.09.07-.14.12c-.16-.07-.26-.15-.1-.32.09.07.16.13.24.2Z"/>
      <path class="cls-2" d="m70.49,83.33c.04.14,0,.26-.16.36-.48.32-1,.37-1.56.32-.33-.04-.63-.14-.9-.33-.09-.06-.17-.13-.25-.21s-.17-.14-.25-.21c-.33-.25-.35-.49-.08-.84.28.06.45.22.61.43.18.24.31.51.58.68.31.2.63.26.97.16s.68-.23,1.04-.36Z"/>
      <path class="cls-2" d="m70.21,77.35c-.01.05-.03.09-.04.14-.08-.02-.15-.04-.23-.06.01-.05.03-.1.04-.15.08.02.15.05.23.07Z"/>
      <path class="cls-2" d="m69.78,57.69s-.03.05-.05.07c-.14-.03-.24-.13-.27-.29.11.07.21.15.32.22Z"/>
      <path class="cls-2" d="m69.61,34.42c.04.17-.01.3-.26.38-.05-.11-.1-.21-.13-.31-.04-.11-.02-.22.12-.24s.25.02.27.17Z"/>
      <path class="cls-2" d="m69.58,48.2l-.03.09c-.07-.02-.15-.04-.22-.07l.03-.09c.07.02.15.04.22.07Z"/>
      <path class="cls-1" d="m69.54,48.95c-.01.1-.03.26-.06.47-.65-.7-1.39-1.15-2.3-1.36.31-.18.55-.12.8.02.5.29,1.01.56,1.56.87Z"/>
      <path class="cls-1" d="m69.28,49.5c.05.06.05.19.02.27-.01.03-.15.06-.22.04-.29-.09-.58-.21-.88-.31-.18-.06-.36-.11-.54-.18-.49-.2-.86-.53-1.12-.98l.05-.1c.12-.01.23-.03.35-.02.45.06.89.18,1.28.44.11.08.22.16.34.21.31.13.51.39.72.63Z"/>
      <path class="cls-2" d="m69.54,43.43c-.25.25-.28.26-.51.04.2-.02.34-.03.51-.04Z"/>
      <path class="cls-2" d="m68.89,57.1c.11.12.21.25.32.38-.03.02-.06.04-.08.06-.11-.12-.22-.25-.32-.37.02-.03.05-.05.08-.07Z"/>
      <path class="cls-2" d="m69.05,47.27s-.03.04-.04.05c-.06-.04-.12-.08-.17-.13-.01-.02.01-.07.02-.13.08.08.13.15.19.21Z"/>
      <path class="cls-1" d="m68.68,49.85c.37.08.45.48.2.76-.15.18-.23.2-.44.1-.41-.2-.81-.43-1.22-.63-.49-.25-.62-.67-.57-1.26.25.21.44.37.63.52.07.06.14.13.21.13.44,0,.78.29,1.19.38Z"/>
      <path class="cls-2" d="m68.8,51.66c.04.19.07.39.1.58-.02,0-.05,0-.07,0-.05-.19-.1-.39-.15-.58.04,0,.08-.01.12-.01Z"/>
      <path class="cls-2" d="m68.74,37.63v.07c-.2.09-.4.17-.61.26.01-.22.15-.29.61-.33Z"/>
      <path class="cls-2" d="m68.44,81.45c.16.08.16.09.12.36-.61-.49-1.3-.57-2-.6-.33-.01-.65,0-1.04,0,.08-.12.1-.19.15-.21.09-.03.19-.05.29-.04.45.04.9.12,1.36.13.42.02.77.19,1.12.36Z"/>
      <path class="cls-2" d="m68.34,51.39c.04.07.08.14.11.21-.01.01-.03.02-.04.02-.04-.06-.09-.13-.13-.2l.06-.03Z"/>
      <path class="cls-2" d="m68.51,43.23q-.4.2-.46-.06c.13.01.26.03.46.06Z"/>
      <path class="cls-2" d="m68.18,46.85c-.02.11-.05.24-.1.42-.06-.24-.06-.25.1-.42Z"/>
      <path class="cls-2" d="m67.72,56.47c.1.12.21.24.32.36-.02.01-.04.03-.06.05-.1-.12-.21-.25-.31-.37.01-.01.03-.03.05-.04Z"/>
      <path class="cls-2" d="m68,52.99v.24h-.06c-.01-.08-.01-.15-.02-.23.03,0,.05,0,.08,0Z"/>
      <path class="cls-2" d="m67.97,37.98c-.09.18-.22.35-.27.54-.06.2-.06.42-.08.62h-.08c-.12-.62.04-1.05.43-1.16Z"/>
      <path class="cls-2" d="m67.82,50.63s-.03.05-.04.07c-.13-.07-.27-.15-.4-.22.01-.03.02-.06.04-.08.13.08.27.15.4.23Z"/>
      <path class="cls-2" d="m67.74,39.93s.05.04.1.08c-.05.03-.07.07-.11.08-.01,0-.06-.04-.06-.06.01-.04.04-.07.07-.1Z"/>
      <path class="cls-2" d="m67.67,46.75s.07.17.04.21c-.05.08-.15.12-.23.18-.02-.02-.04-.05-.07-.07.01-.08.01-.16.03-.24.04-.11.15-.14.23-.08Z"/>
      <path class="cls-2" d="m67.63,39.46c.04.12.09.24.14.41-.26-.09-.27-.24-.22-.4.03-.01.05-.01.08-.01Z"/>
      <path class="cls-2" d="m67.55,51.66c.01.07.02.15.04.22-.03,0-.05.01-.08.01-.02-.07-.03-.15-.05-.22.03-.01.06-.01.09-.01Z"/>
      <path class="cls-2" d="m67.33,46.76c-.06.17-.1.3-.14.43-.03,0-.05-.01-.08-.01q-.01-.33.22-.42Z"/>
      <path class="cls-2" d="m67.16,51.85s-.05.03-.07.04c-.15-.26-.3-.51-.45-.77.02-.02.04-.03.07-.04.19.23.3.51.45.77Z"/>
      <path class="cls-2" d="m66.99,52.07c.03.16.07.33.1.49-.02,0-.05,0-.07.02-.03-.17-.07-.33-.1-.5.02,0,.04-.01.07-.01Z"/>
      <path class="cls-2" d="m66.91,53.6c.03.23.07.46.11.68-.02.01-.04.01-.06.01-.03-.22-.06-.44-.09-.67.01,0,.02-.01.04-.02Z"/>
      <path class="cls-2" d="m66.39,49.6c.06.08.13.15.19.23-.02.02-.05.04-.07.06-.06-.08-.12-.16-.17-.25.01-.01.03-.03.05-.04Z"/>
      <path class="cls-2" d="m66.49,101.88l.09.18s-.05.03-.08.04c-.03-.06-.05-.12-.08-.19.02,0,.05-.02.07-.03Z"/>
      <path class="cls-2" d="m66.41,85.82c.01.53-.06,1.07-.23,1.57-.08.27-.28.5-.44.74-.04.07-.13.1-.2.15-.03-.02-.06-.05-.09-.08.07-.14.15-.27.21-.41.22-.49.4-.98.38-1.53,0-.18-.04-.36-.07-.54-.05-.34-.11-.69-.16-1.03-.02-.23-.11-.42-.27-.58-.34-.32-.69-.6-1.1-.82-.4-.23-.78-.48-1.16-.72-.28-.17-.56-.33-.9-.36-.06,0-.12-.09-.17-.13.06-.06.13-.17.19-.17.45.02.9.01,1.3.27.37.24.77.43,1.14.68.46.31.9.64,1.28,1.06.05.05.09.14.1.22.07.56.17,1.12.19,1.68Z"/>
      <path class="cls-2" d="m66.23,52.86c.16.11.07.18,0,.27v-.27Z"/>
      <path class="cls-2" d="m65.91,55.14c.13.08.25.16.14.35-.05-.12-.1-.24-.14-.35Z"/>
      <path class="cls-2" d="m65.24,51.32v.2h-.02v-.19s.01-.01.02-.01Z"/>
      <path class="cls-2" d="m64.84,53.31l.18.3s-.06.03-.09.05c-.13-.07-.11-.2-.09-.35Z"/>
      <path class="cls-2" d="m64.97,47.72l-.12.42-.09-.03c.04-.14.08-.27.13-.41.03.01.05.02.08.02Z"/>
      <path class="cls-2" d="m64.88,85.42c.02.05.06.11.04.15-.17.56-.32,1.13-.54,1.68-.21.56-.35,1.15-.16,1.77.19.61.31,1.23.59,1.82.04.09.07.2-.06.23-.05.01-.16-.09-.18-.16-.11-.3-.2-.6-.28-.9-.1-.36-.18-.73-.28-1.09-.18-.64-.01-1.24.21-1.83.19-.49.41-.96.5-1.48.01-.06.05-.12.08-.19h.08Z"/>
      <path class="cls-2" d="m64.54,53.18c.13.12.14.27.15.47-.16-.15-.18-.3-.15-.47Z"/>
      <path class="cls-2" d="m63.63,38.98c.2.02.42.4.36.59-.1.31-.21.62-.3.93-.04.13-.1.22-.25.19-.14-.03-.15-.15-.14-.26.01-.09.04-.19.06-.28.03-.12.05-.24.07-.36s.01-.24-.13-.3c-.14-.07-.18.06-.26.13-.02.01-.05,0-.07.01-.07-.11-.09-.22.05-.27.12-.05.26-.15.4-.02.13.14.21.3.16.5-.03.15-.05.29-.04.45.17-.25.27-.53.32-.82.03-.18-.25-.4-.45-.36-.31.07-.6.18-.76.49-.15.3-.25.61-.17.97.1.42.18.85.26,1.27.07.33.02.62-.22.87-.09.09-.15.19-.22.29-.21.32-.1.59.28.67.1.02.2,0,.38,0-.23.28-.43.19-.63.11-.2-.07-.28-.21-.29-.41-.02-.3.12-.53.31-.71.22-.23.29-.49.23-.79-.06-.32-.13-.64-.19-.96-.11-.56-.11-1.1.27-1.58.25-.33.6-.38.97-.35Z"/>
      <path class="cls-2" d="m63.8,105.49h0c-.19-.09-.39-.18-.58-.28.24,0,.43.11.58.28Z"/>
      <path class="cls-2" d="m62.94,111.77c.1.1.19.18.32.31-.2.11-.35.19-.51.27-.26.12-.53.23-.79.35-.3.13-.35.12-.54-.2.2.14.41.18.63.02.09-.06.2-.08.3-.12.22-.11.45-.22.67-.33-.04-.13-.06-.21-.08-.3Z"/>
      <path class="cls-2" d="m62.91,105.01c.1.07.21.13.3.2-.22-.08-.45-.16-.71-.26-.16.25-.35.5-.48.77-.05.09.03.24.05.36h-.01c-.1-.18-.2-.37-.3-.55.05.03.08.08.13.14.19-.28.35-.53.51-.77-.11-.1-.18-.16-.25-.23.09.03.18.06.31.09.14-.24.27-.49.42-.73.05-.09.12-.17.19-.25-.11.23-.21.47-.33.71-.05.11-.11.21-.18.35.12.06.24.11.35.17Z"/>
      <path class="cls-2" d="m62.71,40.41c.3.03.4.23.33.71-.12-.25-.22-.47-.33-.71Z"/>
      <path class="cls-1" d="m62.89,109.96c.15.23.15.31-.02.49-.29.31-.76.36-1.14.12-.08-.05-.18-.07-.26-.11-.33-.14-.59-.52-.58-.84.01-.09.05-.17.09-.29.25.43.62.6.98.77.29.14.7.05.93-.14Z"/>
      <polygon class="cls-2" points="62.94 111.76 62.94 111.77 62.93 111.76 62.94 111.76"/>
      <path class="cls-1" d="m62.85,111.17c.08.2-.07.27-.21.33-.46.2-.9.13-1.32-.1-.11-.06-.22-.15-.31-.24-.09-.07-.19-.16-.09-.33.61.38,1.2.75,1.93.34Z"/>
      <path class="cls-1" d="m62.64,110.77c.08.27.03.41-.2.45-.44.08-.84-.06-1.18-.34-.12-.1-.16-.23-.02-.36.78.36.93.39,1.4.25Z"/>
      <path class="cls-1" d="m61.89,108.6c.13.22.18.44.14.69-.04.2-.04.41-.06.61-.46-.08-.74-.38-.75-.82-.02-.38.03-.77-.1-1.15-.26-.74-.52-1.48-.79-2.21-.21-.55-.44-1.08-.67-1.61-.07-.18-.15-.36-.26-.52-.05-.09-.15-.16-.25-.25-.32.45-.17.94-.34,1.38-.04-.05-.07-.09-.07-.14.03-.82.1-1.63.26-2.46.19.07.21.23.26.35.74,1.77,1.48,3.55,2.23,5.32.11.27.25.54.4.81Z"/>
      <path class="cls-1" d="m62.16,111.79c-.37.25-.77.15-.91-.26.33.1.62.18.91.26Z"/>
      <path class="cls-2" d="m61.81,104.5c-.14-.06-.29-.12-.44-.17-.02-.01-.06.04-.1.07-.13-.09-.17-.21-.16-.36.24.15.47.31.7.46Z"/>
      <path class="cls-2" d="m61.7,105.43s.01.03.02.04c-.01-.01-.02-.03-.03-.04h.01Z"/>
      <path class="cls-2" d="m61.49,104.92l.21.51h-.01l-.21-.51h.01Z"/>
      <path class="cls-2" d="m61.44,104.82s.04.06.05.1h-.01s-.03-.07-.04-.1Z"/>
      <path class="cls-2" d="m61.39,112.39s.01.06.01.09c-.31-.24-.55-.51-.73-.86h.02c.23.25.47.51.7.77Z"/>
      <path class="cls-2" d="m61.27,104.41s.03.05.03.08c-.02-.03-.03-.06-.04-.08h.01Z"/>
      <path class="cls-2" d="m60.21,81.52s.02.05.03.08c-.09.05-.18.13-.27.15-.38.08-.77.09-1.13.2-.54.16-1.12.04-1.63.31-.63,0-1.12.41-1.69.62-.18.06-.33.22-.51.33-.07.05-.15.08-.29.15.05-.27.14-.41.32-.49.54-.25,1.08-.54,1.65-.74.43-.15.91-.22,1.37-.27.66-.08,1.31-.17,1.95-.34.06-.02.13,0,.2,0Z"/>
      <path class="cls-1" d="m59.1,104.82c.02.24-.14.42-.3.43-.35.03-.73.07-1.03-.21-.18-.17-.27-.36-.18-.66.43.43.88.74,1.51.44Z"/>
      <path class="cls-1" d="m58.89,105.77c.16.22.14.35-.08.37-.41.03-.82.04-1.19-.16-.29-.15-.29-.25-.04-.51.45.65.85.65,1.31.3Z"/>
      <path class="cls-2" d="m58.65,106.6c.08.08.15.14.26.25-.33.25-.7.34-1.04.47-.15.05-.22-.1-.28-.21.18.09.33.1.52,0,.19-.11.39-.17.59-.25-.02-.11-.04-.18-.06-.26h.01Z"/>
      <path class="cls-1" d="m58.79,105.4c-.02.29-.14.43-.38.45-.25.03-.45-.09-.6-.28-.03-.04-.03-.14-.01-.2.02-.03.1-.07.15-.07.27.03.54.07.84.1Z"/>
      <path class="cls-1" d="m58.48,106.28c-.12.34-.29.45-.59.39-.21-.04-.33-.24-.31-.53.31.05.6.1.9.14Z"/>
      <polygon class="cls-2" points="57.58 107.1 57.58 107.11 57.57 107.1 57.58 107.1"/>
      <path class="cls-2" d="m49.06,70.75c-.12.16-.23.31-.33.45-.22.32-.45.63-.66.96-.07.12-.12.17-.19.17-.04,0-.09-.02-.15-.05-.15-.09-.3-.2-.45-.31-.28-.21-.56-.42-.83-.63-.09-.06-.17-.13-.3-.24.13-.24.24-.45.36-.66.22-.39.44-.77.66-1.16.04-.07.09-.11.14-.11.04,0,.08.02.12.06.33.29.66.59.99.9.21.19.41.4.64.62Zm-1.27,1.3c.33-.44.63-.84.95-1.26-.41-.48-.82-.95-1.4-1.28-.32.51-.63,1.01-.96,1.54.55.26.88.79,1.41,1Z"/>
      <path class="cls-2" d="m49.8,78.23c-.34.48-.49,1.05-.88,1.52-.47-.38-.93-.74-1.41-1.12.25-.51.5-1.02.78-1.59.53.42,1,.79,1.51,1.19Zm-.43.19c.03-.06,0-.2-.05-.25-.29-.26-.6-.5-.94-.78-.21.41-.39.78-.58,1.16.36.3.69.57,1.08.89.18-.37.35-.69.49-1.02Z"/>
      <path class="cls-2" d="m46.79,78.86c-.15.34-.29.66-.45.97-.04.09-.12.18-.21.22-.07.04-.2.05-.26.01-.34-.24-.65-.51-.99-.73-.17-.11-.16-.22-.08-.36.17-.3.34-.6.6-.85.18-.17.25-.18.41.01.26.31.59.52.98.73Zm-.77.97c.25-.26.37-.56.43-.88-.29-.22-.56-.43-.84-.64-.3.17-.5.44-.6.82.29.3.63.53,1.01.7Z"/>
      <path class="cls-2" d="m46.28,86.76s-.05.08-.09.14c-.06-.06-.12-.1-.12-.14-.01-.04.07-.1.11-.1.03,0,.1.06.1.1Z"/>
      <path class="cls-2" d="m45.58,86.44s.04.03.06.05c-.04.07-.08.15-.14.28-.06-.12-.09-.18-.12-.23.07-.03.13-.07.2-.1Z"/>
      <path class="cls-2" d="m45.47,71.29c.1.1.11.17.05.28-.22.41-.45.82-.67,1.23-.03.06-.06.11-.09.16-.07.12-.12.19-.18.22-.08.04-.16,0-.32-.13-.32-.25-.61-.54-.91-.82-.15-.15-.31-.3-.49-.48.22-.7.75-1.21,1.11-1.84.08.05.14.07.18.11.44.42.87.86,1.32,1.27Zm-1,1.68c.37-.46.55-1,.83-1.55-.43-.39-.84-.77-1.27-1.17-.37.45-.72.9-.91,1.46.44.42.77.95,1.35,1.26Z"/>
      <path class="cls-2" d="m45.49,86.2c-.05.14-.08.24-.12.33-.06-.04-.16-.08-.16-.13,0-.08.03-.11.08-.14.05-.02.13-.04.2-.06Z"/>
    </g>
    <path class="cls-2" d="m42.72,105.01c.08-.26.16-.53.22-.8.01-.06.03-.13.04-.2,0-.01.02-.1.02-.13,0-.05,0-.1,0-.15-3.3.22-6.14.45-9.41.67-6.58.63-12.81.07-19.39.31.03.17,0,1.57,0,1.74,6.56,0,12.97-.42,19.48-.8,3.11-.12,5.79-.21,8.91-.29.04-.12.08-.25.12-.37Z"/>
    <path class="cls-2" d="m121.84,102.58c-6.72-.21-13.27-.38-19.98-.4-4.51,0-8.57-.08-12.9-.08.16.64.22,1.26.37,1.91.06.28.09.56.11.83,10.79.08,21.57.36,32.41.98,0-1.11,0-2.13,0-3.24Z"/>
  </g>
</svg>