<?xml version="1.0" encoding="UTF-8"?>
<svg xmlns="http://www.w3.org/2000/svg" viewBox="0 0 136.06 136.06">
  <defs>
    <style>
      .cls-1 {
        fill: #fff;
      }

      .cls-2 {
        fill: #0c3454;
      }

      .cls-3 {
        fill: #e0e1e3;
      }
    </style>
  </defs>
  <g id="Layer_3" data-name="Layer 3">
    <rect class="cls-3" width="136.06" height="136.06"/>
  </g>
  <g id="B_W" data-name="B&amp;amp;W">
    <path class="cls-2" d="m37.7,88.8c.14.81-.02,2.9-.02,3.14-.06,2.55.45,4.7,1.71,6.49.02-.23,2.01,3.01,6.66,3.17,4.22.15,5.68.02,10.88-.22.06,0,6.87.72,10.71-.31,1.38-.37,3.35-1.04,3.37-1.84.71,0,2.4.51,5.15-.1,10.47-1.61,9.65-.81,15.41-.66,1.87.04,6.17-.2,6.64-1.06.05-1.73.12-3.05.11-4.37-.01-5.28-.3-10.57-.02-15.84.39-7.27.29-14.5-.64-21.7-.36-2.78-.93-5.58-1.83-8.22-1.79-5.24-4.95-9.73-8.49-13.94-.54-.64-1.47-1.03-2.3-1.32-.95-.34-1.97-.5-2.98-.62-3.36-.42-6.82-.48-9.83,1.08-3.85,2-7.05,4.83-7.74,9.56-.03.22-.41.38-.72.66-.41-.34-.84-.62-1.17-.98-2.87-3.15-6.29-5.11-10.53-6.18-5.42-1.36-12.61,2.59-14.18,7.7-1.5,4.89-2.59,9.8-2.4,14.94.1,2.94.36,5.87.33,8.81-.07,7.33.6,14.59,1.85,21.81Zm35.46-49.62c2.04-2.92,4.82-4.59,8.49-4.31.75.06,1.59.35,2.19.79,2.41,1.8,4.29,4.18,5.25,6.97,2.76,7.96,4.63,16.16,5.16,24.59.2,3.19.04,6.4-.03,9.6-.14,6.18-.33,12.36-.51,19.14-1.46.11-3,.54-4.42.28-4.39-.79-8.62.03-12.85.86-2.52.5-3.68-.1-3.99-2.61-.72-5.68-1.77-11.32-1.38-17.11.22-3.22-.06-6.48-.05-9.72,0-1.11.18-2.21.33-3.32.51-3.91.46-7.68-.98-11.5-1.89-5-.08-9.52,2.8-13.66Z"/>
    <path class="cls-1" d="m67.33,88.45c.26,3.08.36,4.76-.2,7.06-.71,1.43-7.95,1.56-8.7,1.65-2.2.28-4.4.68-6.61.76-1.59.05-3.21-.28-4.79-.57-.41-.08-.92-.55-1.07-.96-.68-1.8-1.64-3.61-1.78-5.46-.62-8.49-1.05-17-1.45-25.51-.17-3.62-.31-7.26-.07-10.87.28-4.21.17-8.54,2.42-12.4,2.32-3.97,5.86-4.74,9.77-2.32,5.41,3.35,9.01,8.17,11.28,13.94.83,2.1.98,4.57,1,6.87.04,6.1-.22,12.19-.23,18.29,0,3.03.26,6.06.43,9.54Z"/>
    <path class="cls-2" d="m46.54,71.48c.02-.58.03-1.16.05-1.79q.67.71-.05,1.79Z"/>
    <path class="cls-2" d="m46.34,65.3c-.02.56-.03,1.12-.05,1.75q-.75-.77.05-1.75Z"/>
    <path class="cls-2" d="m47.7,76.86c-.86-.61-.66-1.28-.4-2.08.92.58.93,1.21.4,2.08Z"/>
    <path class="cls-2" d="m47.86,79.31c.03.62.05,1.23.09,2.06q-.78-1.02-.5-2.05c.14,0,.28,0,.41-.01Z"/>
    <path class="cls-2" d="m45.39,57.67c.08-.38.15-.75.24-1.12,0-.01.33.01.34.05.05.39.07.78.1,1.17l-.68-.09Z"/>
    <path class="cls-2" d="m46.66,61.07c-.03.39-.07.78-.11,1.35-.93-.57-.74-.99.11-1.35Z"/>
    <path class="cls-2" d="m52.17,91.05c-.6.81-.33,1.35.26,1.95.45-.7.77-1.29-.26-1.95Z"/>
    <path class="cls-2" d="m63.25,60.9c.27-.62.62-1.25-.5-2.08.03.86.05,1.44.07,2.03.14.02.29.04.43.05Z"/>
    <path class="cls-2" d="m59.15,59.59c.07.71.14,1.42.25,2.46,1.09-1.17.43-1.83.25-2.53-.17.02-.33.05-.5.07Z"/>
    <path class="cls-2" d="m49.09,93.29c.57-.63.4-1.2.02-1.82q-.77.67-.02,1.82Z"/>
    <path class="cls-2" d="m49.15,57.87l-.13-1.3c-.15,0-.3.01-.45.02,0,.44-.01.87-.02,1.31.2,0,.4-.02.6-.03Z"/>
    <path class="cls-2" d="m51.56,56.44c.1.38.2.76.35,1.31.82-.73.56-1.11-.35-1.31Z"/>
    <path class="cls-2" d="m55.35,93.61c.6-1.55.6-2.04.08-3.78-1.09.84-1.15,2-.08,3.78Z"/>
    <path class="cls-2" d="m51.3,54.48c.95-1.3.41-2.01-.15-2.81-.98,1.02.04,1.75.15,2.81Z"/>
    <path class="cls-2" d="m63.43,56.24c-.06-.56-.11-1.13-.17-1.69-.13,0-.26-.02-.39-.03-.06.32-.18.64-.17.96.02.29.19.57.29.85l.44-.09Z"/>
    <path class="cls-2" d="m55.29,57.76c.61-.87.64-1.51-.72-1.92.31.83.51,1.38.72,1.92Z"/>
    <path class="cls-2" d="m58.67,55.82c.04.42.09.84.13,1.31q.51-.63-.13-1.31Z"/>
    <path class="cls-2" d="m48.26,85.37c-.43,1.22-.55,2.42.5,3.73.56-1.56-.05-2.63-.5-3.73Z"/>
    <path class="cls-2" d="m64.22,73.39c.11,1.06.22,2.12.33,3.27.88-1.32.84-2.07-.33-3.27Z"/>
    <path class="cls-2" d="m64.69,78.62c-.03.2-.1.4-.07.6.09.69.21,1.38.35,2.3.76-1.23.36-2.07.22-2.95-.16.02-.33.03-.49.05Z"/>
    <path class="cls-2" d="m50.03,72.47c.04-.83.09-1.65.14-2.73q-.84.93-.14,2.73Z"/>
    <path class="cls-2" d="m64.77,66.2c.02-.69.35-1.45-.79-1.94.1.68.21,1.36.31,2.04.16-.03.32-.07.48-.1Z"/>
    <path class="cls-2" d="m64.51,70.9c.57-1.18.72-1.97-.05-3.05-.48,1.08-.21,1.87.05,3.05Z"/>
    <path class="cls-2" d="m49.64,64.93c.07.73.15,1.47.22,2.2.6-.77.7-1.51-.22-2.2Z"/>
    <path class="cls-2" d="m57.94,93.04c.58-1.03.73-1.85-.26-2.6.08.8.16,1.6.26,2.6Z"/>
    <path class="cls-2" d="m54.82,87.59c-.02-1.09-.05-2.19-.07-3.28-.72,1.13-.48,2.25.07,3.28Z"/>
    <path class="cls-2" d="m58.49,71.76q.25-1.47-.43-2.41c-.5.9-.04,1.5.43,2.41Z"/>
    <path class="cls-2" d="m50.39,75.09c.19.95.33,1.63.52,2.55q.74-1.2-.52-2.55Z"/>
    <path class="cls-2" d="m61.98,70.75c-.06-.58-.12-1.15-.18-1.79q-.62.75.18,1.79Z"/>
    <path class="cls-2" d="m57.33,79.15c.23.51.46,1.02.76,1.7q.36-1.29-.76-1.7Z"/>
    <path class="cls-2" d="m61.72,64.57l.18,1.74q.69-.83-.18-1.74Z"/>
    <path class="cls-2" d="m62.17,85.67c-.07-.73-.13-1.29-.2-1.96q-.66,1.1.2,1.96Z"/>
    <path class="cls-2" d="m54.01,69.91c-1.38.57-.86,1.2-.31,1.84.09-.53.18-1.06.31-1.84Z"/>
    <path class="cls-2" d="m61.21,76.2c.81-.67.57-1.33.25-2.1-.87.64-.84,1.27-.25,2.1Z"/>
    <path class="cls-2" d="m51.97,86.77c-.17-.53-.35-1.07-.55-1.68q-.51.73.55,1.68Z"/>
    <path class="cls-2" d="m61.23,78.65c.02.62.04,1.23.06,2.06q.71-1.08.35-2.08c-.14,0-.28.01-.41.02Z"/>
    <path class="cls-2" d="m54.71,66.42c-.13-.41-.26-.83-.4-1.24-.09.02-.17.04-.26.07l.13,1.29c.18-.04.35-.07.53-.11Z"/>
    <path class="cls-2" d="m58.52,64.58c0,.45,0,.89,0,1.59.91-.62.79-1.12,0-1.59Z"/>
    <path class="cls-2" d="m57.9,84.13c.05.51.1,1.02.19,1.83.46-.79.78-1.28-.19-1.83Z"/>
    <path class="cls-2" d="m54.4,52.66v-1.16c-.12-.01-.26-.02-.39-.03-.03.42-.07.84-.1,1.27.16-.02.33-.05.49-.07Z"/>
    <path class="cls-2" d="m51.97,81.45c-.06-.34-.13-.67-.19-1.01-.17.05-.33.11-.5.16.12.32.25.64.37.96.11-.04.21-.08.32-.12Z"/>
    <path class="cls-2" d="m54.25,81.36c.12-.31.23-.62.35-.94-.12-.05-.24-.09-.36-.14-.12.31-.23.62-.35.94.12.05.24.09.36.14Z"/>
    <path class="cls-2" d="m48.2,51.76l.42,1.36c.11-.03.21-.07.32-.1-.15-.45-.3-.9-.44-1.35-.1.03-.2.06-.29.09Z"/>
    <path class="cls-2" d="m64.82,84.73c.15.2.26.35.37.49.13-.17.3-.33.37-.52.02-.06-.22-.3-.35-.31-.12,0-.24.2-.39.34Z"/>
    <path class="cls-2" d="m58.05,76.02c.13-.36.26-.71.39-1.07-.13-.04-.26-.09-.39-.13-.12.36-.23.72-.35,1.08.12.04.23.08.35.12Z"/>
    <path class="cls-2" d="m55.34,75.7c-.07-.3-.15-.59-.22-.89-.16.05-.46.14-.45.16.06.28.16.55.25.82.14-.03.29-.06.43-.09Z"/>
    <path class="cls-2" d="m56.51,61.61c-.06-.56-.11-1.13-.17-1.69-.13,0-.26-.02-.39-.03-.06.32-.18.64-.17.96.02.29.19.57.29.85l.44-.09Z"/>
    <path class="cls-2" d="m49.47,63.16c.61-.87.64-1.51-.72-1.92.31.83.51,1.38.72,1.92Z"/>
    <path class="cls-2" d="m52.12,60.5c.04.42.09.84.13,1.31q.51-.63-.13-1.31Z"/>
    <path class="cls-2" d="m58.08,50.9c0,.45,0,.89,0,1.59.91-.62.79-1.12,0-1.59Z"/>
    <path class="cls-2" d="m91.85,74.84c-.02.58-.05,1.16-.07,1.79q-.67-.71.07-1.79Z"/>
    <path class="cls-2" d="m91.98,81.03c.02-.56.04-1.12.07-1.75q.74.78-.07,1.75Z"/>
    <path class="cls-2" d="m90.74,69.46c.85.62.65,1.29.37,2.08-.91-.59-.92-1.22-.37-2.08Z"/>
    <path class="cls-2" d="m90.61,67c-.02-.62-.04-1.23-.06-2.06q.77,1.03.48,2.05c-.14,0-.28,0-.41,0Z"/>
    <path class="cls-2" d="m92.84,88.67c-.08.37-.16.75-.25,1.12,0,.01-.33-.02-.34-.05-.05-.39-.07-.78-.09-1.17l.68.1Z"/>
    <path class="cls-2" d="m91.61,85.26c.04-.39.07-.78.13-1.35.93.58.73,1-.13,1.35Z"/>
    <path class="cls-2" d="m86.43,55.21c.61-.8.35-1.34-.24-1.95-.45.7-.79,1.28.24,1.95Z"/>
    <path class="cls-2" d="m75.02,85.24c-.28.62-.64,1.24.47,2.09-.02-.86-.03-1.45-.04-2.03-.14-.02-.29-.04-.43-.06Z"/>
    <path class="cls-2" d="m79.1,86.59c-.06-.71-.13-1.42-.22-2.46-1.1,1.15-.45,1.82-.28,2.53.17-.02.33-.04.5-.07Z"/>
    <path class="cls-2" d="m89.54,53.01c-.58.63-.42,1.19-.04,1.82q.77-.66.04-1.82Z"/>
    <path class="cls-2" d="m89.08,88.42c.04.43.08.87.12,1.3.15,0,.3,0,.45-.01.01-.44.02-.87.03-1.31-.2,0-.4.01-.6.02Z"/>
    <path class="cls-2" d="m86.66,89.83c-.1-.38-.19-.76-.33-1.31-.83.72-.57,1.1.33,1.31Z"/>
    <path class="cls-2" d="m83.28,52.62c-.61,1.54-.62,2.03-.13,3.78,1.1-.83,1.17-1.99.13-3.78Z"/>
    <path class="cls-2" d="m77.76,53.35c-.96,1.29-.43,2,.12,2.81.99-1.01-.02-1.75-.12-2.81Z"/>
    <path class="cls-2" d="m74.78,89.89c.05.57.1,1.13.15,1.7.13,0,.26.02.39.03.06-.32.19-.64.18-.96-.01-.29-.18-.57-.28-.86l-.44.09Z"/>
    <path class="cls-2" d="m82.94,88.46c-.62.86-.66,1.5.7,1.93-.3-.83-.5-1.38-.7-1.93Z"/>
    <path class="cls-2" d="m79.54,90.36c-.04-.42-.08-.85-.12-1.31q-.51.62.12,1.31Z"/>
    <path class="cls-2" d="m90.28,60.93c.44-1.22.58-2.41-.46-3.74-.58,1.56.02,2.63.46,3.74Z"/>
    <path class="cls-2" d="m74.18,72.74c-.1-1.06-.19-2.12-.3-3.28-.89,1.31-.87,2.06.3,3.28Z"/>
    <path class="cls-2" d="m73.77,67.5c.03-.2.1-.4.08-.6-.08-.69-.19-1.38-.32-2.31-.78,1.22-.39,2.07-.25,2.95.16-.02.33-.03.49-.05Z"/>
    <path class="cls-2" d="m88.37,73.82c-.05.83-.11,1.65-.17,2.72q.86-.92.17-2.72Z"/>
    <path class="cls-2" d="m73.56,79.92c-.02.69-.36,1.44.77,1.95-.1-.68-.19-1.36-.29-2.05-.16.03-.32.06-.48.09Z"/>
    <path class="cls-2" d="m73.87,75.22c-.58,1.17-.74,1.96.02,3.05.49-1.07.23-1.87-.02-3.05Z"/>
    <path class="cls-2" d="m88.67,81.36c-.07-.74-.13-1.47-.2-2.21-.61.76-.72,1.5.2,2.21Z"/>
    <path class="cls-2" d="m80.68,53.16c-.59,1.02-.75,1.84.23,2.6-.07-.8-.14-1.6-.23-2.6Z"/>
    <path class="cls-2" d="m83.74,58.65c.01,1.09.02,2.19.04,3.28.74-1.12.5-2.25-.04-3.28Z"/>
    <path class="cls-2" d="m79.9,74.43q-.27,1.46.4,2.42c.51-.9.06-1.5-.4-2.42Z"/>
    <path class="cls-2" d="m88.04,71.19c-.18-.95-.31-1.64-.49-2.55q-.75,1.19.49,2.55Z"/>
    <path class="cls-2" d="m76.4,75.4c.05.58.1,1.16.16,1.79q.63-.75-.16-1.79Z"/>
    <path class="cls-2" d="m81.14,67.05c-.22-.51-.45-1.03-.75-1.71q-.38,1.29.75,1.71Z"/>
    <path class="cls-2" d="m76.58,81.58l-.16-1.74q-.7.82.16,1.74Z"/>
    <path class="cls-2" d="m76.38,60.48c.07.73.12,1.29.18,1.96q.67-1.09-.18-1.96Z"/>
    <path class="cls-2" d="m84.36,76.33c1.38-.55.87-1.19.33-1.84-.1.53-.19,1.06-.33,1.84Z"/>
    <path class="cls-2" d="m77.23,69.96c-.82.66-.58,1.32-.27,2.1.88-.63.85-1.26.27-2.1Z"/>
    <path class="cls-2" d="m86.59,59.49c.17.54.34,1.07.53,1.68q.52-.72-.53-1.68Z"/>
    <path class="cls-2" d="m77.24,67.5c-.01-.62-.02-1.23-.04-2.06q-.72,1.07-.38,2.08c.14,0,.28,0,.41-.01Z"/>
    <path class="cls-2" d="m83.62,79.81c.13.41.25.83.38,1.24.09-.02.17-.04.26-.06l-.12-1.29c-.18.04-.35.07-.53.11Z"/>
    <path class="cls-2" d="m79.79,81.61c0-.45,0-.89.01-1.59-.92.61-.8,1.11-.01,1.59Z"/>
    <path class="cls-2" d="m80.62,62.07c-.05-.51-.09-1.02-.16-1.83-.47.78-.8,1.28.16,1.83Z"/>
    <path class="cls-2" d="m76.86,49.83l-.02,1.16.4.04c.04-.42.08-.84.12-1.26-.16.02-.33.05-.49.07Z"/>
    <path class="cls-2" d="m86.53,64.81c.06.34.12.67.18,1.01.17-.05.33-.1.5-.15-.12-.32-.24-.64-.36-.97-.11.04-.22.08-.32.11Z"/>
    <path class="cls-2" d="m84.25,64.88c-.12.31-.24.62-.36.93.12.05.24.09.35.14.12-.31.24-.62.36-.93-.12-.05-.24-.09-.36-.14Z"/>
    <path class="cls-2" d="m74.73,55.79c-.14-.45-.27-.91-.41-1.36-.11.03-.21.06-.32.1.14.45.29.9.43,1.35.1-.03.2-.06.3-.09Z"/>
    <path class="cls-2" d="m73.71,61.39c-.15-.21-.25-.35-.36-.5-.13.17-.31.33-.38.52-.02.06.22.31.35.31.12,0,.24-.2.39-.34Z"/>
    <path class="cls-2" d="m80.39,70.17c-.14.35-.27.71-.41,1.06.13.05.26.09.39.14.12-.36.24-.72.36-1.08-.11-.04-.23-.08-.34-.12Z"/>
    <path class="cls-2" d="m83.09,70.52c.07.3.14.59.21.89.16-.05.46-.13.46-.15-.06-.28-.15-.55-.24-.82-.14.03-.29.05-.43.08Z"/>
    <path class="cls-2" d="m81.76,84.6c.05.57.1,1.13.15,1.7.13,0,.26.02.39.03.06-.32.19-.64.18-.96-.01-.29-.18-.57-.28-.86l-.44.09Z"/>
    <path class="cls-2" d="m88.82,83.13c-.62.86-.66,1.5.7,1.93-.3-.83-.5-1.38-.7-1.93Z"/>
    <path class="cls-2" d="m86.14,85.76c-.04-.42-.08-.85-.12-1.31q-.51.62.12,1.31Z"/>
    <path class="cls-2" d="m80.74,50.65c0-.45,0-.89.01-1.59-.92.61-.8,1.11-.01,1.59Z"/>
    <path class="cls-2" d="m83.1,48.92c-.62.86-.66,1.5.7,1.93-.3-.83-.5-1.38-.7-1.93Z"/>
    <path class="cls-2" d="m85.97,50.54c-.1-.38-.19-.76-.33-1.31-.83.72-.57,1.1.33,1.31Z"/>
  </g>
</svg>