<?xml version="1.0" encoding="UTF-8"?>
<svg id="Layer_1" data-name="Layer 1" xmlns="http://www.w3.org/2000/svg" viewBox="0 0 136.06 136.06">
  <defs>
    <style>
      .cls-1 {
        fill: #0c3454;
      }

      .cls-2 {
        fill: #636a42;
      }

      .cls-2, .cls-3, .cls-4 {
        opacity: .8;
      }

      .cls-3 {
        fill: #a7483f;
      }

      .cls-4 {
        fill: #324a8d;
      }
    </style>
  </defs>
  <path class="cls-1" d="m96.92,70.97c.03.05.06.12.1.15.77.47,1.53.95,2.31,1.41,1.01.6,1.76,1.42,2.27,2.47-.04.03-.07.06-.11.09-.35-.44-.68-.9-1.04-1.33-.37-.43-.8-.8-1.32-1.02l-.12.11c.23.32.46.64.7.96-.02.03-.04.05-.07.08-.42-.35-.82-.72-1.25-1.04-.44-.32-.91-.62-1.39-.88-.49-.27-1.02-.48-1.5-.78.98.09,1.71.78,2.76,1.13-.18-.19-.24-.29-.34-.35-.94-.57-1.87-1.17-2.91-1.54-.7-.25-1.41-.49-2.11-.73-.09-.03-.18-.1-.23-.26.18.03.36.05.53.11.75.26,1.49.53,2.24.78.24.08.5.08.8.13.07.29.31.5.69.52,0,0-.03-.02-.03-.02Z"/>
  <path class="cls-1" d="m97.55,74.74c-.8-.48-1.64-.9-2.39-1.45-1.09-.78-2.28-1.32-3.53-1.76-.26-.09-.52-.19-.78-.41.12,0,.26-.03.37,0,1.14.39,2.28.8,3.41,1.21.14.05.25.17.38.25.07.05.14.13.21.12.74-.06,1.15.44,1.6.9.2.21.44.37.63.58.11.12.35.25.1.55Z"/>
  <path class="cls-1" d="m92.47,68.49c.15-.19.2-.31.3-.36.3-.17.61-.34.94-.48.7-.29,1.3-.72,1.81-1.29.43-.47.9-.91,1.37-1.33.64-.57.82-1.39,1.21-2.09.15-.27.18-.63.61-.72-.22.48-.45.96-.65,1.45-.34.84-.91,1.48-1.58,2.08-.34.3-.81.55-.81,1.14,0,.12-.21.28-.35.36-.39.24-.79.49-1.21.67-.49.21-1.01.35-1.64.57Z"/>
  <path class="cls-1" d="m91.54,67.83c.4-.21.8-.45,1.22-.62.9-.36,1.56-1.05,2.26-1.67.49-.44.97-.88,1.43-1.34.26-.26.48-.56.76-.82-.38.62-.42,1.41-1.13,1.88-.71.46-1.38,1-1.98,1.59-.38.37-.9.31-1.29.61-.27.21-.61.34-.92.49-.08.04-.19.02-.29.03-.02-.05-.03-.11-.05-.16Z"/>
  <path class="cls-1" d="m95.87,62.93c.2-.22.27-.35.38-.4.86-.45,1.73-.88,2.61-1.33-.14.32-.96,1.2-1.27,1.28-.52.13-.95.59-1.71.45Z"/>
  <path class="cls-1" d="m91.45,67.22c.1-.13.2-.26.31-.38.41-.45.85-.89,1.24-1.36.62-.74,1.37-1.31,2.29-1.7-.06.09-.11.22-.19.26-1.01.54-1.75,1.36-2.45,2.24-.31.39-.7.7-1.06,1.05-.05-.04-.09-.09-.14-.13Z"/>
  <path class="cls-1" d="m93.69,73.16c-.12.08-.19.14-.22.13-1.35-.52-2.71-1.04-4.12-1.59.32-.27.56-.08.78,0,.74.28,1.46.6,2.19.9.44.18.87.36,1.37.56Z"/>
  <path class="cls-1" d="m92.68,70.95c-.54-.14-.98-.23-1.4-.38-.1-.03-.14-.23-.23-.37.61-.09,1.32.22,1.63.74Z"/>
  <path class="cls-1" d="m93.57,65.78c.39-.59.9-1.05,1.54-1.36-.44.53-.95.99-1.54,1.36Z"/>
  <path class="cls-1" d="m91.2,65.9c.29-.37.59-.74.88-1.11,0,.59-.42.87-.74,1.21-.05-.03-.09-.07-.14-.1Z"/>
  <path class="cls-1" d="m90.71,66.41c.11.44-.24.51-.45.67-.01-.31.17-.49.45-.67Z"/>
  <path class="cls-1" d="m89.33,66.79c-.16.16-.33.31-.54.52q.02-.45.54-.52Z"/>
  <path class="cls-1" d="m94.99,74.01c-.18-.07-.36-.15-.62-.26q.39-.1.62.26Z"/>
  <path class="cls-1" d="m91.16,68.73c.27-.31.46-.29.75-.08l-.75.08Z"/>
  <path class="cls-1" d="m88.47,72.11c.26.12.4.18.63.28-.3.1-.49.16-.63-.28Z"/>
  <path class="cls-1" d="m94.76,70.97c-.12-.09-.25-.17-.37-.26.03-.04.05-.09.08-.13.13.07.26.15.39.22-.03.06-.07.11-.1.17Z"/>
  <path class="cls-1" d="m95.87,74.25c.09.13.17.26.27.39-.08.03-.13.07-.15.06-.18-.07-.27-.19-.11-.45Z"/>
  <path class="cls-1" d="m90.55,67.68c.09-.12.18-.24.28-.36.05.04.1.07.15.11-.08.13-.17.25-.25.38-.06-.04-.12-.09-.18-.13Z"/>
  <path class="cls-1" d="m91.84,69.34c-.1.03-.2.06-.29.08-.01,0-.04-.06-.06-.1.1-.05.19-.1.29-.15l.07.16Z"/>
  <path class="cls-1" d="m101.09,76.07l-.2-.31s.05-.05.07-.07c.06.04.13.07.17.12.04.06.04.15.06.22-.03.01-.06.03-.09.04Z"/>
  <path class="cls-1" d="m95.92,63.74c.09-.05.19-.1.29-.13,0,0,.05.09.07.13-.11.04-.21.07-.32.11l-.04-.11Z"/>
  <path class="cls-1" d="m94.28,62.75c-.08.08-.14.16-.21.17-.05,0-.12-.09-.18-.14.06-.05.12-.12.19-.15.03-.01.1.06.19.11Z"/>
  <path class="cls-1" d="m57.06,56.64c-.08-.51.05-.68.3-.84.05.05.1.08.15.1-.13.2-.25.41-.46.73Z"/>
  <path class="cls-1" d="m67.75,56.54c-.03.05-.08.08-.1.13h-.03c-.03-.08-.08-.15-.08-.23,0-.05.08-.13.1-.18.03-.03.13,0,.13,0,0,.08,0,.18-.03.28Z"/>
  <path class="cls-1" d="m64.36,56.28c.28.33.25.38-.2.79-.05-.03-.08-.05-.13-.08.1-.23.2-.46.33-.71Z"/>
  <rect class="cls-1" x="67.62" y="56.66" width=".03" height=".03"/>
  <path class="cls-1" d="m67.37,56.76c.03-.18.13-.18.25-.1v.03c-.08.1-.13.15-.18.25-.03-.05-.1-.13-.08-.18Z"/>
  <path class="cls-1" d="m53.31,57.02c-.15.18-.33.35-.56.58.03-.58.05-.63.56-.58Z"/>
  <path class="cls-1" d="m67.32,57.14c.13.38,0,.53-.3.71-.08-.33,0-.53.3-.71Z"/>
  <path class="cls-1" d="m70.51,57.52l.15-.23c.05.05.1.08.15.15-.05.05-.1.13-.15.18-.03,0-.15-.1-.15-.1Z"/>
  <path class="cls-1" d="m60,57.62c.13-.81.73-1.39,1.19-2.05.03-.05.13-.03.3-.08-.48.79-.94,1.49-1.37,2.2-.05-.03-.08-.05-.13-.08Z"/>
  <path class="cls-1" d="m55.77,58.03c-.05-.58,0-.66.58-.76-.23.28-.38.48-.58.76Z"/>
  <path class="cls-1" d="m63.54,58.38c-.08-.03-.15-.08-.23-.1.1-.18.18-.35.3-.58.38.43-.03.48-.08.68Z"/>
  <path class="cls-1" d="m70.05,58.71c-.13-.1-.25-.18-.23-.2.03-.1.1-.18.15-.25.05.05.13.08.13.13.03.08-.03.18-.05.33Z"/>
  <path class="cls-1" d="m52.1,58.28c-.23.25-.43.48-.63.71-.08-.56.05-.68.63-.71Z"/>
  <path class="cls-2" d="m63.19,54.91c-.79,1.6-2.05,2.96-2.61,4.74-.43-.08-.79-.13-1.14-.2,0-.41.33-.71.25-1.09-.05,0-.1-.03-.13-.05-.23.38-.43.79-.66,1.19-.43.03-.84.08-1.32.13.03-.2,0-.38.08-.51.2-.46.43-.94.71-1.34.46-.71.76-1.47,1.06-2.25.18-.46.43-.73.91-.84.35-.08.71-.2,1.09-.25.61-.1,1.19-.03,1.75.48Zm-2,.66c-.46.66-1.06,1.24-1.19,2.05.05.03.08.05.13.08.43-.71.89-1.42,1.37-2.2-.18.05-.28.03-.3.08Z"/>
  <path class="cls-1" d="m72.82,59.09c.23.43-.08.53-.13.73-.08-.03-.13-.05-.2-.08.1-.2.18-.38.33-.66Z"/>
  <path class="cls-2" d="m63.54,58.38c.05-.2.46-.25.08-.68-.13.23-.2.41-.3.58.08.03.15.08.23.1Zm.61-1.32c.46-.41.48-.46.2-.79-.13.25-.23.48-.33.71.05.03.08.05.13.08Zm.41,1.77c-.28.58-.68.86-1.42.73.05-.23.1-.41.13-.56-.03-.03-.08-.05-.13-.08-.13.23-.25.46-.41.73-.46-.05-.96-.08-1.49-.13.1-.35.18-.66.3-.94.48-1.14,1.04-2.28,1.77-3.27.08-.1.18-.18.25-.2.81-.15,1.57-.1,2.28.35.28.15.25.43.18.63-.13.33-.33.61-.48.91-.33.61-.71,1.17-.99,1.8Z"/>
  <path class="cls-2" d="m67.01,57.85c.3-.18.43-.33.3-.71-.3.18-.38.38-.3.71Zm.76-1.6s-.1-.03-.13,0c-.03.05-.1.13-.1.18,0,.08.05.15.08.23-.13-.08-.23-.08-.25.1-.03.05.05.13.08.18.05-.1.1-.15.18-.25h.03v-.03c.03-.05.08-.08.1-.13.03-.1.03-.2.03-.28Zm1.06.1c.58.28.66.84.35,1.39-.48.84-.96,1.67-1.47,2.56-.33-.05-.71-.13-1.19-.2.1-.38.18-.71.25-1.04.05-.3.41-.53.13-.96-.48.56-.53,1.22-.76,1.9-.43-.08-.89-.15-1.37-.25.56-1.34,1.11-2.61,1.7-3.98.79,0,1.6.2,2.36.58Z"/>
  <path class="cls-2" d="m57.06,56.64c.2-.33.33-.53.46-.73-.05-.03-.1-.05-.15-.1-.25.15-.38.33-.3.84Zm-1.29,1.39c.2-.28.35-.48.58-.76-.58.1-.63.18-.58.76Zm3.22-2.08c-.68,1.22-1.47,2.41-2.23,3.65-.53.08-1.09.13-1.7.18.08-.3.1-.58.15-.86-.03,0-.08-.03-.13-.03-.1.18-.23.35-.3.53-.3.63-.58.79-1.42.73.23-.63.46-1.24.73-1.82.46-.99.96-1.98,1.6-2.89.41-.61.99-.99,1.47-1.49.13-.13.41-.15.61-.18.15-.03.3.03.46.03.56,0,1.06.35,1.06.91,0,.41-.1.89-.3,1.24Z"/>
  <path class="cls-2" d="m70.51,57.52s.13.1.15.1c.05-.05.1-.13.15-.18-.05-.08-.1-.1-.15-.15l-.15.23Zm-.46,1.19c.03-.15.08-.25.05-.33,0-.05-.08-.08-.13-.13-.05.08-.13.15-.15.25-.03.03.1.1.23.2Zm-.1-1.44c.38-.43.81-.35,1.22-.15.43.2.68.61.71,1.09.03.13,0,.28-.08.38-.56.79-1.01,1.62-1.34,2.58-.3-.1-.61-.2-.91-.28.05-.43.08-.81.1-1.22-.05,0-.1-.03-.15-.03-.13.35-.25.71-.38,1.14-.25-.1-.48-.18-.68-.28-.03-.08-.05-.13-.05-.15.13-.46.25-.94.41-1.37.25-.68.71-1.19,1.17-1.72Z"/>
  <path class="cls-2" d="m52.73,59.8c-.08.68-.58.94-1.17,1.09-.43.1-.86.2-1.42.33.23-.71.56-1.17.91-1.65.15-.18.28-.38.41-.58.2-.23.41-.46.63-.71-.58.03-.71.15-.63.71-.46.03-.71.35-.91.68-.28.46-.53.96-.81,1.44-.08.13-.2.28-.35.3-.25.08-.56.08-.94.1.15-.28.23-.58.41-.76.84-.89,1.34-2.03,2.33-2.76.35-.25.63-.66.91-1.04.53-.68,1.22-1.22,1.93-1.65.56-.33,1.11-.63,1.65-.99.2-.1.38-.18.66-.08-.41.48-.73.94-1.17,1.32-.58.51-.91,1.14-1.24,1.82-.3.68-.66,1.32-.99,2-.08.13-.18.25-.2.41Zm.03-2.2c.23-.23.41-.41.56-.58-.51-.05-.53,0-.56.58Z"/>
  <path class="cls-2" d="m72.69,59.83c.05-.2.35-.3.13-.73-.15.28-.23.46-.33.66.08.03.13.05.2.08Zm1.62-.23c-.28.76-.61,1.47-.91,2.2-.46-.13-.84-.2-1.24-.3.03-.3.05-.56.1-.89-.51.13-.25.58-.53.79-.2-.03-.43-.08-.73-.13.23-.61.46-1.14.68-1.67.1-.25.23-.48.35-.73.28-.66.94-.94,1.6-.63.53.23.94.66.68,1.37Z"/>
  <path class="cls-2" d="m74.59,59.78c.61,0,1.29,0,1.57.61.33.63.23,1.32-.23,1.95-.35-.08-.73-.13-1.14-.2.1-.38.18-.73.28-1.14-.43.13-.33.46-.46.66-.15.28-.3.43-.63.15.2-.66.41-1.32.61-2.03Z"/>
  <path class="cls-1" d="m54.35,61.91c.1.35-.18.76-.76.99.13-.18.18-.33.25-.41q.38-.43-.03-.84c-.05-.05-.08-.1-.13-.15.35,0,.61.15.66.41Z"/>
  <path class="cls-1" d="m57.31,63.45c.05-.13.08-.28.13-.41.38-.89-.08-1.52-1.04-1.44-.2.03-.38.05-.58.1.48-.58,1.27-.53,1.75,0s.41,1.24-.25,1.75Z"/>
  <path class="cls-1" d="m61.47,64.44c-.1-.05-.15-.2-.3-.38.41,0,.73-.05,1.01,0,.56.05.89-.25,1.11-.68.23-.41.2-.86-.13-1.24-.2-.23-.51-.41-.76-.61-.15-.1-.33-.18-.56-.33.61-.3,1.01.03,1.29.33.33.33.53.79.76,1.22.05.1.03.28-.03.38-.18.41-.35.81-.61,1.17-.25.38-1.29.46-1.8.15Z"/>
  <path class="cls-1" d="m72.51,63.07c.68.03,1.06.23,1.14.56.1.33-.1.58-.73.94.25-.3.43-.53.63-.84-.35-.23-.66-.43-1.04-.66Z"/>
  <path class="cls-1" d="m58.28,64.69c-.33-.25-.61-.48-.99-.79.79-.08,1.19.3,1.44.86,1.82-.28,1.65-.38,1.85-1.52.2-1.06-.76-1.24-1.55-1.57.48-.1,1.34.2,1.57.51.43.68.38,1.44,0,2.08-.35.66-1.06.84-1.87.76-.05.46-.08.89-.56.99-.15.03-.33-.1-.48-.13.2-.43.38-.79.58-1.19Z"/>
  <path class="cls-1" d="m74.79,65.33c.84-.25,1.11.05,1.14,1.19-.08.05-.18.1-.28.13-.08.05-.18.08-.3.13.05-.3.15-.58.08-.79-.1-.23-.38-.41-.63-.66Z"/>
  <path class="cls-1" d="m63.82,64.67c.51.33.58,1.19.13,1.82-.33.51-.66.58-1.04.28.96-.18,1.37-.84.91-2.1Z"/>
  <path class="cls-1" d="m67.83,63.37c-.43-.35-.91-.48-1.47-.53.61-.41,1.09-.08,1.55.28.68.56.89,1.29.61,2.13-.28.81-.46,1.17-2.03,1.37-.46,1.09-1.49,1.52-2.1.79.2-.03.35-.03.53-.05.51-.08.84-.33.96-.76.13-.51-.1-1.06-.48-1.34-.23-.15-.43-.33-.58-.53-.08-.13-.13-.35-.05-.46.05-.13.28-.28.41-.25.23.05.51.18.66.35.38.38.61.86.68,1.42,0,.15.05.33.08.51,1.32-.1,1.57-.46,1.77-1.49.1-.56-.1-1.01-.53-1.42Z"/>
  <path class="cls-1" d="m69.8,65.3c.46-.25.86-.05,1.27.56.35.53.13,1.32-.48,1.8-.56.43-1.17.38-1.7-.23.28.03.46.05.61.08.76.05,1.29-.48,1.19-1.24-.05-.48-.48-.68-.89-.96Z"/>
  <path class="cls-1" d="m73.6,66.31c.03-.41-.13-.68-.56-.89-.2-.08-.43-.08-.46-.41.61-.03,1.11.18,1.47.68.23.38.18.99-.13,1.37-.33.46-.73.71-1.32.43-.1-.25-.05-.35.23-.41.43-.05.71-.38.76-.79Z"/>
  <path class="cls-1" d="m61.37,66.77c-.1.43-.33.81-.53,1.19-.1.15-.28.23-.43.05.15-.48.43-.91.38-1.29-.08-.33-.51-.58-.81-.89.08-.08.13-.18.23-.2.61-.1,1.32.56,1.17,1.14Z"/>
  <path class="cls-1" d="m48.37,64.36c.46-.25.79-.13,1.62.35.53.33.84.81,1.09,1.32.38.03.48-.25.63-.46.35-.48.28-1.04.23-1.6,0-.13-.23-.28-.38-.38-.2-.15-.43-.25-.63-.41.89,0,1.22.3,1.29,1.14.08.89-.2,1.57-.94,2.05-.28.18-.33.43-.41.71-.2.68-.66,1.11-1.37,1.24-.25.05-.48.08-.73.13,0-.08-.03-.13-.05-.2.18-.05.33-.13.48-.15.94-.18,1.42-.66,1.57-1.6.1-.66-.33-1.34-1.14-1.7-.41-.18-.84-.3-1.27-.46Z"/>
  <path class="cls-1" d="m80.69,67.38c.03.38-.15.68-.61.99.28-.68.58-1.24-.1-1.7.51.18.71.35.71.71Z"/>
  <path class="cls-1" d="m43.18,68.26c.73.18.76.23.58.84-.35-.13-.48-.43-.58-.84Z"/>
  <path class="cls-1" d="m78.79,68.44c-.05.46-.38.63-.81.68.46-.3.76-.66.58-1.24-.18-.73-.2-.76-1.32-1.04.56-.25.73-.23,1.14.15s.48.91.41,1.44Z"/>
  <path class="cls-3" d="m43.18,68.26c.1.41.23.71.58.84.18-.61.15-.66-.58-.84Zm1.49,1.39c-.35.23-1.37.18-1.65-.08-.46-.48-.63-1.22-.38-1.75.13-.28.33-.41.61-.46.48-.08,1.42.35,1.65.79.08.13.08.28.1.38,0,.46.1.86-.33,1.11Z"/>
  <path class="cls-1" d="m63.11,69c-.2.41-.94.66-1.49.38.25-.08.43-.13.61-.15.76-.18.86-.43.43-1.06-.03-.08-.05-.15-.1-.28.56.33.76.73.56,1.11Z"/>
  <path class="cls-4" d="m42.39,68.95c.13.18.23.38.35.58-.05.05-.13.08-.2.13-.1-.23-.2-.43-.3-.66.05-.03.1-.03.15-.05Z"/>
  <path class="cls-1" d="m58.61,69.2c-.2.08-.33.28-.51.41-.15.13-.33.15-.53-.1.3-.23.53-.43.81-.61.43-.28.33-.68.3-1.06-.05-.38-.28-.53-.58-.63s-.63-.18-1.06-.3c.18-.13.28-.28.38-.28.71-.03,1.27.28,1.72.79.1.13.15.35.13.51-.1.48-.03,1.06-.66,1.29Z"/>
  <path class="cls-1" d="m67.04,69.53c.53-.08.79-.35.71-.81-.03-.15-.1-.28-.18-.53.73.35.81.51.53,1.04-.43.84-1.39,1.09-2.13.48.33-.25.71-.13,1.06-.18Z"/>
  <path class="cls-1" d="m52.3,69.56c.28-.18.41-.46.46-.76.08-.51-.08-.79-.56-.99-.2-.08-.38-.18-.56-.3.81-.1,1.22.18,1.52.99.46,0,.73-.28.94-.61.33-.51.05-1.14-.56-1.39-.15-.08-.3-.18-.43-.25-.03,0,0-.08,0-.2.84-.05,1.29.51,1.75,1.06.86-.2,1.19-.53,1.27-1.22.1-.76-.03-1.01-.71-1.39-.41-.2-.79-.38-1.24-.61.25-.25.48-.1.71-.03.23.1.46.28.68.38.56.28.81.68.84,1.32.03.71-.23,1.24-.84,1.6-.23.1-.48.15-.79.23-.05.56-.3,1.06-.84,1.42-.1.08-.23.18-.35.18-.46-.03-.68.28-.94.61-.13.15-.35.23-.56.35-.03-.05-.05-.1-.1-.13.1-.1.2-.18.3-.25Z"/>
  <path class="cls-1" d="m56.55,69.1c.05.38-.23.76-.76.94.1-.2.15-.33.23-.41.35-.38.35-.56-.05-.84-.13-.08-.28-.15-.41-.23v-.13c.56.03.94.28.99.66Z"/>
  <path class="cls-1" d="m74.74,70.16c.68-1.14.35-1.11-.13-1.42.43-.13.58-.03.73.41.13.46-.08.81-.61,1.01Z"/>
  <path class="cls-4" d="m45.08,69.68c.38-.94.38-1.85-.81-2.33-.33-.13-.68-.28-1.06-.33-.46-.1-.61.05-.76.51-.08.28-.15.58-.25.91-.51-.81-.13-1.7.81-1.87,1.17-.23,2.48.66,2.69,1.85.08.43.03.89-.03,1.32,0,.15-.1.33-.2.41-.61.35-1.8.51-2.43-.03-.05-.03-.08-.1-.1-.15.61.33,1.19.13,1.77.05.15-.03.3-.18.38-.33Z"/>
  <path class="cls-1" d="m45.46,70.14c.1-.08.2-.25.2-.41.05-.43.1-.89.03-1.32-.2-1.19-1.52-2.08-2.69-1.85-.94.18-1.32,1.06-.81,1.87.1-.33.18-.63.25-.91.15-.46.3-.61.76-.51.38.05.73.2,1.06.33,1.19.48,1.19,1.39.81,2.33-.08.15-.23.3-.38.33-.58.08-1.17.28-1.77-.05.03.05.05.13.1.15.63.53,1.82.38,2.43.03Zm-3.22-1.14c.1.23.2.43.3.66.08-.05.15-.08.2-.13-.13-.2-.23-.41-.35-.58-.05.03-.1.03-.15.05Zm.79.58c.28.25,1.29.3,1.65.08.43-.25.33-.66.33-1.11-.03-.1-.03-.25-.1-.38-.23-.43-1.17-.86-1.65-.79-.28.05-.48.18-.61.46-.25.53-.08,1.27.38,1.75Zm1.55,1.14c-.84.05-1.49-.08-1.98-.79-.35-.48-.66-.96-.84-1.55-.18-.66-.08-1.24.35-1.7.51-.53,1.47-.63,2.1-.33.79.38,1.32.99,1.65,1.8.23.58.15,1.17.03,1.75-.08.3-.25.56-.63.61-.25.05-.51.15-.68.2Z"/>
  <path class="cls-1" d="m77.02,68.54c.89.86.23,1.9-.61,2.2-.08.03-.18.03-.25.03-.05,0-.1-.03-.23-.08.25-.13.48-.18.66-.33.61-.48.81-1.04.28-1.67-.25-.28-.53-.53-.79-.79.03-.05.05-.1.1-.13l.84.76Z"/>
  <path class="cls-1" d="m82.47,70.32c.2-.48.23-.99-.05-1.44-.18-.33-.41-.61-.66-.99.86.56,1.27,1.39,1.11,2.18-.2.86-1.22,1.29-1.9.71.18.03.38.08.56.05.38-.03.76-.13.94-.51Z"/>
  <rect class="cls-2" x="96.93" y="70.97" width=".03" height=".03"/>
  <path class="cls-1" d="m68.08,71c.3-.13.41-.13.68-.1.3-.25.43-.56.1-.94.46-.05.51.23.53.48.03.35-.3.91-.58.94-.3.05-.61-.03-.73-.38Z"/>
  <path class="cls-1" d="m77.73,69.88c.61.33.84,1.06.53,1.77-.33.73-1.34,1.11-2.33.76.48-.08.86-.1,1.22-.2,1.17-.33,1.42-1.27.61-2.2-.03-.03-.03-.08-.03-.13Z"/>
  <path class="cls-1" d="m73.3,72.11c-.48.89-1.34.79-2.31.56.18-.15.25-.25.33-.28.25-.08.53-.13.79-.18.89-.2,1.24-1.32.68-2.03-.15-.2-.3-.43-.48-.68.53-.13.73.18.91.51.41.68.43,1.44.08,2.1Z"/>
  <path class="cls-1" d="m61.82,72.82c-.58-.08-.76-.46-.96-.73.35.13.61.35.96.73Z"/>
  <path class="cls-1" d="m41.53,70.62c-.1-.05-.23-.08-.28-.15s-.08-.23-.05-.3c.03-.05.15-.08.23-.1.05,0,.1,0,.13.03.58.15,1.77,1.27,1.67,2,.13.38-.03.71-.33.99-.48.48-1.06.84-1.77.89-.15,0-.28,0-.41-.03-.2-.05-.43-.1-.38-.35.05-.23.25-.18.43-.15.76.15,1.29-.28,1.77-.73.25-.23.25-.58.1-.91-.25-.51-.61-.91-1.11-1.17Z"/>
  <path class="cls-1" d="m75.27,73.71s.03,0,.03.03c-.03,0-.03-.03-.03-.03Z"/>
  <path class="cls-1" d="m74.26,74.01c-.1.3-.35.43-.68.35.73-.56.58-.43.25-1.44.35.23.58.73.43,1.09Z"/>
  <path class="cls-1" d="m59.29,74.39c-.53.13-1.7-.91-2.03-1.95.73.73,1.37,1.34,2.03,1.95Z"/>
  <path class="cls-1" d="m69.83,74.52c1.04-.25,1.32-.86.51-1.8.35.05.51.18.63.56.18.46.1.81-.23,1.11-.23.23-.48.35-.91.13Z"/>
  <path class="cls-1" d="m79.76,74.09c-.05.43-.38.68-.84.63.61-.63.76-.73.13-1.44.58.05.76.25.71.81Z"/>
  <path class="cls-1" d="m67.07,73.86c.71.25,1.49.3,1.87,1.22-.2-.08-.33-.08-.38-.15-.25-.38-.63-.53-1.04-.63-.2-.03-.43-.08-.46-.43Z"/>
  <path class="cls-1" d="m58.1,70.7c.96,2.13,2.69,3.44,4.71,4.48-.43.1-.41.1-.68-.05-1.14-.58-2.1-1.37-2.99-2.25-.51-.53-.84-1.11-1.09-1.77-.05-.1-.05-.2-.08-.3.05-.03.1-.05.13-.1Z"/>
  <path class="cls-1" d="m59.77,75.03c.51-.18.91,0,1.14.41-.03.05-.05.08-.08.13-.33-.18-.66-.33-1.06-.53Z"/>
  <path class="cls-1" d="m57.19,75.23c.51,0,.76.3,1.11.61-.48.1-.81-.1-1.11-.61Z"/>
  <path class="cls-2" d="m78.84,76.12c-.08.05-.18.1-.28.13.05-.08.1-.15.15-.2.05.05.08.08.13.08Z"/>
  <path class="cls-1" d="m76.13,75.46c-.08.51-.48.73-.94.91-.43.15-.73.08-1.17-.41.51.1.86.25,1.27.08.35-.18.53-.38.56-.73.03-.43,0-.89-.38-1.22-.08-.05-.1-.18-.18-.35.63.35.94.99.84,1.72Z"/>
  <path class="cls-1" d="m63.75,75.74c.3.18.61.33.91.48-.03.05-.03.1-.05.13-.35-.08-.71-.13-.96-.46.05-.05.08-.1.1-.15Z"/>
  <path class="cls-1" d="m78.84,76.12c.13.1.23.18.23.25,0,.05.03.13.03.2-.2.13-.41.23-.61.33-.03-.05-.03-.1-.03-.15,0-.13-.05-.23,0-.33.03-.05.05-.1.1-.15v-.03c.1-.03.2-.08.28-.13Z"/>
  <path class="cls-1" d="m50.22,76.32c.79-.08,1.22-.66,1.04-1.44-.1-.43-.28-.86-.43-1.37-.3.28-.53.58-.84.71-.28.15-.66.15-.99.18s-.68.13-1.01-.15c.15-.23.41-.18.61-.2.43,0,.76-.1.96-.53.03-.03.05-.08.08-.1.86-1.01.86-1.09.2-2.25-.05-.08-.1-.18-.15-.3.23-.23.41-.13.53.08.28.48.61.94.66,1.62.2-.1.35-.18.48-.28.66-.56.53-1.95-.23-2.36-.2-.1-.43-.1-.66-.1-.28,0-.58.05-.89.1,0-.05,0-.1-.03-.15.56-.41,1.17-.46,1.72-.1.56.33.89.96.71,1.7-.13.58-.25,1.09-.81,1.39-.13.08-.2.23-.3.3.23.61.43,1.11.58,1.67.23.76.03,1.32-.43,1.65-.53.41-1.39.41-1.93,0-.05-.03-.05-.1-.08-.25.18.05.28.1.41.13.25.03.51.08.79.08Z"/>
  <path class="cls-1" d="m71.65,75.86c.08.48-.2.86-.61,1.09-.35.2-.73.3-1.11-.1.18-.03.35-.05.53-.05.41-.03.79-.15.89-.56s.05-.81-.35-1.06c-.08-.03-.15-.13-.2-.2.03-.05.08-.08.1-.13.53.13.68.56.76,1.01Z"/>
  <path class="cls-2" d="m57.19,75.23c.3.51.63.71,1.11.61-.35-.3-.61-.61-1.11-.61Zm2.51,2.25c-.81-.25-1.57-.56-2.36-.86-.23-.1-.58-.13-.53-.53,0-.05-.18-.13-.25-.2-.71-.56-1.47-1.06-2.08-1.7-.48-.51-.79-1.17-1.14-1.77-.13-.2-.2-.43-.35-.73.2-.13.35-.23.51-.33.71,1.37,1.62,2.48,2.79,3.39.03-.03.08-.05.13-.08-.05-.1-.08-.23-.15-.33-.38-.46-.84-.89-1.19-1.37-.43-.56-.79-1.17-1.22-1.85.38-.03.61-.05.89-.08.68,1.67,1.93,2.91,3.39,3.9,1.24.86,2.46,1.8,3.95,2.23.08.03.13.1.3.2-.96.2-1.82.35-2.69.1Z"/>
  <path class="cls-1" d="m76.64,77.38c.13,0,.3.08.35.18-.2.08-.41.18-.61.23,0-.05.03-.1.03-.15.03-.1.15-.25.23-.25Z"/>
  <path class="cls-1" d="m57.34,76.62c.79.3,1.55.61,2.36.86.86.25,1.72.1,2.69-.1-.18-.1-.23-.18-.3-.2-1.49-.43-2.71-1.37-3.95-2.23-1.47-.99-2.71-2.23-3.39-3.9-.28.03-.51.05-.89.08.43.68.79,1.29,1.22,1.85.35.48.81.91,1.19,1.37.08.1.1.23.15.33-.05.03-.1.05-.13.08-1.17-.91-2.08-2.03-2.79-3.39-.15.1-.3.2-.51.33.15.3.23.53.35.73.35.61.66,1.27,1.14,1.77.61.63,1.37,1.14,2.08,1.7.08.08.25.15.25.2-.05.41.3.43.53.53Zm1.14.84c-.43-.13-.84-.38-1.27-.56-1.37-.53-2.36-1.52-3.29-2.61-.13-.18-.28-.33-.43-.51-.53-.53-.79-1.19-.81-1.95-.03-.33.1-.56.38-.71.08-.05.2-.1.3-.13.91-.43,1.87-.56,2.86-.56.13,0,.28,0,.41-.03,1.39-.25,2.81.03,4.2.15.99.1,1.95.28,2.94.3,1.17.05,2.18.56,3.19,1.01.43.18.86.38,1.24.63.51.35.91.84.89,1.55,0,.08-.05.18-.08.3-.08-.05-.13-.08-.15-.1-.05-.96-.63-1.55-1.49-1.9-.73-.33-1.47-.71-2.23-.96-.89-.3-1.82-.38-2.81-.35,1.29,1.01,2.53,2.08,4.15,2.56-.58.03-1.11-.1-1.57-.38-.86-.53-1.77-1.04-2.51-1.7-.58-.51-1.19-.63-1.85-.73-.79-.13-1.57-.2-2.36-.25-.38-.03-.76.08-1.11.1-.53.05-1.04.1-1.57.18-.15,0-.3.08-.51.13.33.99.94,1.72,1.6,2.38.81.86,1.8,1.47,2.79,2.13,1.01.66,2.08,1.22,3.24,1.6.43.13.81.2,1.22.05.25-.1.53-.1.79-.15.38-.08.81-.05,1.04-.48.03-.05.15-.05.23-.05.43.03.79-.2,1.27-.46-1.98-.56-3.9-1.04-5.02-2.89.28.25.61.48.89.76,1.11,1.06,2.53,1.44,4,1.75.2.05.46.05.63-.03.35-.2.56.03.86.23-.2.1-.35.2-.51.25-.51.2-1.01.41-1.52.58-.71.25-1.42.51-2.13.71-1.22.35-2.46.51-3.7.53-.73,0-1.47-.23-2.2-.41Z"/>
  <path class="cls-1" d="m46.37,77.59c.03-.08.25-.15.28-.13.13.13.3.3.28.41,0,.03,0,.08-.03.15-.2-.08-.38-.15-.56-.25,0-.08.03-.15.03-.18Z"/>
  <path class="cls-1" d="m54.45,78.24c.51-.15.79-.41.53-.99.38.43.43.66.23.89-.2.28-.48.23-.76.1Z"/>
  <path class="cls-1" d="m74.46,78.29c-.05-.3.18-.46.46-.35.18.08.3.15.35.28-.15.05-.28.1-.43.15-.13.05-.23.08-.35.13,0-.08-.03-.15-.03-.2Z"/>
  <path class="cls-2" d="m72.31,78.7c.13-.2.23-.51.38-.53.28-.05.28.15.3.35-.05,0-.08.03-.1.05-.2.13-.41.23-.61.33,0-.08,0-.15.03-.2Z"/>
  <path class="cls-1" d="m67.37,78.42c.61.18.73.1.86-.51.03-.08.03-.18.03-.23-.33-.25-.56-.43-.89-.71.53-.08.84.08,1.11.25.1.05.18.2.18.33,0,.53-.1,1.04-.58,1.44-.35-.15-.71-.3-1.09-.46.03-.05.03-.1.05-.15.1.03.23,0,.33.03Z"/>
  <path class="cls-1" d="m74.92,77.94c-.28-.1-.51.05-.46.35,0,.05.03.13.03.2-.48.15-.99.33-1.44.56-.03-.13-.05-.25-.05-.35v-.18c.2-.13.46-.18.68-.25,1.29-.51,2.58-.96,3.85-1.52.35-.15.71-.3,1.04-.48-.05.05-.08.1-.1.15-.05.1,0,.2,0,.33,0,.05,0,.1.03.15-.48.23-.99.46-1.49.66-.05-.1-.23-.18-.35-.18-.08,0-.2.15-.23.25,0,.05-.03.1-.03.15-.38.15-.73.3-1.11.43-.05-.13-.18-.2-.35-.28Z"/>
  <path class="cls-1" d="m72.28,78.9c.2-.1.41-.2.61-.33.03-.03.05-.05.1-.05v.18c0,.1.03.23.05.35-.18.05-.35.15-.53.25-.05.03-.13.08-.18.1,0-.15-.03-.33-.05-.48v-.03Z"/>
  <path class="cls-1" d="m49.03,78.95c.05-.1.28-.2.3-.18.13.1.3.25.28.38v.03c-.2-.05-.41-.15-.58-.23Z"/>
  <path class="cls-2" d="m51.77,79.31l.1-.1.13.13c-.08,0-.15,0-.23-.03Z"/>
  <path class="cls-1" d="m72.33,79.41c-.43.2-.86.33-1.34.41.03-.1.03-.2.05-.3l-.23-.08c.51-.13.99-.3,1.47-.53v.03c.03.15.05.33.05.48Z"/>
  <path class="cls-2" d="m70.41,79.54c.05-.13.18-.15.41-.1-.13.05-.25.08-.41.1Z"/>
  <path class="cls-1" d="m70.99,79.81c-.23.05-.46.1-.68.13,0-.18.03-.3.1-.41.15-.03.28-.05.41-.1l.23.08c-.03.1-.03.2-.05.3Z"/>
  <path class="cls-1" d="m74.59,59.78c-.2.71-.41,1.37-.61,2.03.33.28.48.13.63-.15.13-.2.03-.53.46-.66-.1.41-.18.76-.28,1.14.41.08.79.13,1.14.2.46-.63.56-1.32.23-1.95-.28-.61-.96-.61-1.57-.61Zm-8.11-4c-.58,1.37-1.14,2.63-1.7,3.98.48.1.94.18,1.37.25.23-.68.28-1.34.76-1.9.28.43-.08.66-.13.96-.08.33-.15.66-.25,1.04.48.08.86.15,1.19.2.51-.89.99-1.72,1.47-2.56.3-.56.23-1.11-.35-1.39-.76-.38-1.57-.58-2.36-.58Zm5.19,3.82c-.23.53-.46,1.06-.68,1.67.3.05.53.1.73.13.28-.2.03-.66.53-.79-.05.33-.08.58-.1.89.41.1.79.18,1.24.3.3-.73.63-1.44.91-2.2.25-.71-.15-1.14-.68-1.37-.66-.3-1.32-.03-1.6.63-.13.25-.25.48-.35.73Zm-.51-2.48c-.41-.2-.84-.28-1.22.15-.46.53-.91,1.04-1.17,1.72-.15.43-.28.91-.41,1.37,0,.03.03.08.05.15.2.1.43.18.68.28.13-.43.25-.79.38-1.14.05,0,.1.03.15.03-.03.41-.05.79-.1,1.22.3.08.61.18.91.28.33-.96.79-1.8,1.34-2.58.08-.1.1-.25.08-.38-.03-.48-.28-.89-.71-1.09Zm-17.25.28c.33-.68.66-1.32,1.24-1.82.43-.38.76-.84,1.17-1.32-.28-.1-.46-.03-.66.08-.53.35-1.09.66-1.65.99-.71.43-1.39.96-1.93,1.65-.28.38-.56.79-.91,1.04-.99.73-1.49,1.87-2.33,2.76-.18.18-.25.48-.41.76.38-.03.68-.03.94-.1.15-.03.28-.18.35-.3.28-.48.53-.99.81-1.44.2-.33.46-.66.91-.68-.13.2-.25.41-.41.58-.35.48-.68.94-.91,1.65.56-.13.99-.23,1.42-.33.58-.15,1.09-.41,1.17-1.09.03-.15.13-.28.2-.41.33-.68.68-1.32.99-2Zm1.77-1.95c-.63.91-1.14,1.9-1.6,2.89-.28.58-.51,1.19-.73,1.82.84.05,1.11-.1,1.42-.73.08-.18.2-.35.3-.53.05,0,.1.03.13.03-.05.28-.08.56-.15.86.61-.05,1.17-.1,1.7-.18.76-1.24,1.55-2.43,2.23-3.65.2-.35.3-.84.3-1.24,0-.56-.51-.91-1.06-.91-.15,0-.3-.05-.46-.03-.2.03-.48.05-.61.18-.48.51-1.06.89-1.47,1.49Zm4.89,4.2c.56-1.77,1.82-3.14,2.61-4.74-.56-.51-1.14-.58-1.75-.48-.38.05-.73.18-1.09.25-.48.1-.73.38-.91.84-.3.79-.61,1.55-1.06,2.25-.28.41-.51.89-.71,1.34-.08.13-.05.3-.08.51.48-.05.89-.1,1.32-.13.23-.41.43-.81.66-1.19.03.03.08.05.13.05.08.38-.25.68-.25,1.09.35.08.71.13,1.14.2Zm3.98-.81c.28-.63.66-1.19.99-1.8.15-.3.35-.58.48-.91.08-.2.1-.48-.18-.63-.71-.46-1.47-.51-2.28-.35-.08.03-.18.1-.25.2-.73.99-1.29,2.13-1.77,3.27-.13.28-.2.58-.3.94.53.05,1.04.08,1.49.13.15-.28.28-.51.41-.73.05.03.1.05.13.08-.03.15-.08.33-.13.56.73.13,1.14-.15,1.42-.73Zm34.42,15.88c.43.43.94.84,1.29,1.32.48.71,1.14.66,1.87.71-.13-1.09-.28-2.08-.91-2.86-.79-.99-1.67-1.87-2.86-2.36-.1-.05-.28-.13-.28-.18.05-.51-.41-.51-.63-.71-.2.13-.35.23-.51.3.03-.15.08-.33.13-.53-.56-.23-1.17-.51-1.77-.68s-1.27-.23-1.9-.33q.2-.51.61-.61c1.27-.3,2.15-1.17,2.91-2.15.05-.08.08-.18.15-.41l-.68.68c-.05-.03-.08-.08-.13-.1.15-.23.3-.46.48-.66.25-.3.48-.66.79-.86.38-.25.68-.46.66-.94,0-.05.1-.08.15-.13.25-.13.48-.25.25-.61-.03-.05.08-.18.13-.25.43-.48.46-.66.15-1.19.53-.53.51-1.14.41-1.8-.46-.1-.81.03-1.11.25-.86.58-1.72,1.22-2.56,1.82-.25.18-.41.48-.66.66-.68.41-1.27.94-1.8,1.55-.15.18-.35.35-.66.3.28-.73.86-1.17,1.42-1.57,1.27-.94,2.56-1.87,3.85-2.79.28-.2.66-.43,1.01-.46.66-.05.66-.58,1.01-1.04-.56.13-.94.2-1.32.28v.15c.2.03.38.05.71.1-.23.08-.35.18-.51.18-.51.03-.91.25-1.34.51-.56.35-1.14.73-1.75,1.06-.89.48-1.75,1.04-2.53,1.72-.84.73-1.6,1.52-2.41,2.25-.33.3-.58.68-.86,1.01-.05.08-.15.13-.2.18-.05-.2,0-.38.1-.51.2-.25.41-.53.63-.76.99-.94,1.95-1.9,3.01-2.76.71-.58,1.55-1.01,2.31-1.49.35-.23.68-.43,1.04-.63-.03-.05-.05-.1-.08-.13-.94.28-1.8.71-2.66,1.19-.79.41-1.37,1.09-2.08,1.62-1.17.91-1.93,2.2-3.14,3.04-.03,0-.03.03-.05.05-.76,1.27-2.91,1.49-4.26.89-1.42-.66-2.89-1.32-4.38-1.82-1.11-.35-2.1-.89-3.09-1.44-.38-.2-.73-.43-1.14-.53-.89-.25-1.8-.46-2.69-.71-.76-.18-1.55-.35-2.28-.63-1.29-.48-2.63-.79-3.98-.99-1.77-.28-3.57-.43-5.37-.68-2.28-.3-4.51.05-6.74.53-.99.2-1.98.51-2.99.58-1.6.13-3.01.73-4.46,1.39-.48.2-.94.48-1.37.84-.41.35-.99.56-1.52.63-.58.1-.99.43-1.42.79-.38.3-.76.66-1.17.96s-.81.61-1.27.84c-.51.28-1.09.46-1.65.66-1.62.66-3.09,1.49-4.05,3.04-.08.15-.35.28-.2.48.13.15.38.2.58.25.15.03.3-.03.46-.03.66-.03,1.34-.1,1.98-.03,1.24.13,2.46.25,3.65.68.2.08.38.23.71.41-.23.05-.35.13-.41.1-.38-.25-.79-.33-1.24-.35-.56-.03-1.09-.15-1.62-.25-.28-.05-.56-.25-.81-.25-.91.05-1.8.13-2.66.2-.13.63-.1.68.25,1.01.13.1.25.18.35.3.53.81,1.32,1.34,2.15,1.82,1.04.61,2.18.91,3.39.61.86-.2,1.72-.41,2.58-.56,1.39-.25,2.43-.99,3.01-2.31.15-.38.2-.81.33-1.19.33-.91.28-1.82.13-2.74-.05-.25-.1-.53-.13-.79.61.63.96,2.61.68,3.65-.63,2.23-2.2,3.5-4.41,4.15.2.15.3.28.48.38.81.41,1.65.76,2.41,1.24,1.34.81,2.79,1.47,4.31,1.8.3.08.61.13.91.18-.08.05-.15.1-.2.18-.03.05-.03.2-.03.38-.41-.1-.81-.23-1.22-.38-.23-.1-.48-.18-.71-.3v-.03c.03-.13-.15-.28-.28-.38-.03-.03-.25.08-.3.18-.73-.3-1.44-.61-2.13-.94.03-.08.03-.13.03-.15.03-.1-.15-.28-.28-.41-.03-.03-.25.05-.28.13,0,.03-.03.1-.03.18-.28-.1-.53-.23-.81-.35-.56-.28-1.01-.68-1.55-1.01s-1.06-.51-1.72-.43c-.89.1-1.77.13-2.63-.03-.71-.13-1.37-.51-2-.84-1.01-.51-1.8-1.34-2.61-2.1-.38-.35-.33-.79-.33-1.22-.68-.53-.73-1.01-.23-1.7.2-.28.35-.56.58-.81.79-.99,1.93-1.55,3.01-2.1.38-.18.84-.25,1.24-.41,1.04-.38,1.9-1.01,2.74-1.7,1.04-.84,2.15-1.55,3.34-2.13.66-.3,1.34-.56,2.03-.81.3-.1.53-.25.68-.61.3-.66.63-1.32,1.06-1.9.35-.51.81-.94,1.24-1.37.56-.56,1.17-1.04,1.65-1.62.86-1.06,2-1.7,3.14-2.36.08-.05.18-.08.23-.15.38-.33.81-.38,1.29-.2.56-.61,1.32-.41,2-.51.08,0,.2.13.28.23.23.3.46.61.71.91.51-.1,1.04-.2,1.55-.38.66-.2,1.22-.05,1.77.28.51.3,1.04.43,1.62.33.18,0,.35.03.51.1.79.38,1.62.58,2.46.79s1.72.3,2,1.29c1.09-.33,1.44-.71,2.63.99.53-.1,1.09-.25,1.62.05.53.33.81.73.81,1.39.2.05.38.13.56.18,1.24.23,1.75,1.22,1.24,2.36-.08.2-.18.41-.25.61.94.46,1.87.91,2.79,1.37.61.3,1.19.63,1.82.94.48.23.99.46,1.49.63,1.34.43,2.69.84,4.03,1.27.41.15.76.03,1.06-.15,1.01-.63,2-1.27,2.76-2.23.51-.58,1.11-1.06,1.7-1.57l.23-.23c.79-.91,1.85-1.42,2.91-1.93.46-.2.94-.35,1.39-.56.35-.15.68-.3,1.01-.48.76-.46,1.62-.66,2.51-.79.03,0,.05.05.18.1-.18.96-.1,1.9-.08,2.84,0,1.22-.3,2.38-1.14,3.37-.23.23-.43.51-.56.81-.38.96-1.11,1.57-1.85,2.2-.33.33-.66.63-1.01,1.01.38.15.63.3.94.41,1.57.63,3.01,1.49,4.26,2.61,1.19,1.09,1.87,2.48,2.03,4.13.03.35.05.73-.38.89-.18.08-.38.1-.56.08-1.04-.28-2.08-.56-3.12-.86-1.24-.38-2.48-.73-3.72-1.14-.84-.28-1.7-.56-2.53-.91-.71-.3-1.47-.25-2.2-.38-.2-.05-.43-.05-.63-.08-.61-.08-1.17-.18-1.77-.1-.46.08-.94,0-1.39-.03-1.24-.1-2.31.41-3.39.89-.33.15-.66.28-.96.43-.79.41-1.6.79-2.36,1.22-.18.1-.35.2-.56.28,0-.08-.03-.15-.03-.2,0-.08-.1-.15-.23-.25.61-.28,1.17-.58,1.77-.86.96-.46,1.98-.84,2.94-1.32.58-.28,1.17-.48,1.8-.56,1.09-.18,2.18-.2,3.24-.13,1.19.13,2.38.33,3.57.51-.66-.66-1.67-.58-2.33-1.19.56.1,1.09.25,1.62.46,1.19.48,2.36.99,3.52,1.49.61.25,1.22.53,1.82.76.46.18.94.3,1.47.48-.08-.3-.15-.48-.2-.68.68-.03.71.48.79.89.46.1.79.43,1.37.33-.71-.79-1.29-1.55-2-2.2-.68-.63-1.47-1.17-2.23-1.72.76.13,1.22.73,1.85,1.06.05-.13.08-.18.13-.35.38.38.76.71,1.11,1.06.15.18.08.41-.1.58"/>
  <path class="cls-2" d="m68.03,79.81h-.33c-.05-.1-.08-.23-.08-.35,0-.15.13-.3.2-.46.15.13.35.23.43.41.05.13.1.25.13.38-.1.03-.23.03-.35.03Z"/>
  <path class="cls-1" d="m70.31,79.94c-.35.05-.71.1-1.04.15-.25.05-.51.08-.76.08-.05-.13-.08-.25-.13-.38.71,0,1.37-.1,2.03-.25-.08.1-.1.23-.1.41Z"/>
  <path class="cls-2" d="m60.94,79.23c.1.25.15.51.18.79-.25.03-.48.03-.71.03-.03-.23-.03-.43-.05-.66-.03-.13.13-.25.2-.41.13.1.35.15.38.25Z"/>
  <path class="cls-1" d="m68.51,80.17c-.23.05-.46.05-.68.05-.08-.13-.13-.25-.13-.41h.33c.13,0,.25,0,.35-.03.05.13.08.25.13.38Z"/>
  <path class="cls-1" d="m52.22,80.02c-.23-.03-.46-.08-.68-.15,0-.18,0-.33.03-.38.05-.08.13-.13.2-.18.08.03.15.03.23.03.08.08.15.18.2.28.03.05.03.23.03.41Z"/>
  <path class="cls-2" d="m66.15,79.89c-.23,0-.46.03-.68.03v-.05c-.08-.25-.1-.56-.05-.81.03-.15.25-.33.41-.35.23-.03.28.13.25.41-.05.25.03.53.08.79Z"/>
  <path class="cls-1" d="m65.47,79.92c.23,0,.46-.03.68-.03h.03v.05c.03.1.08.2.1.3h-.68c-.03-.1-.08-.23-.13-.33Z"/>
  <path class="cls-2" d="m101.19,76.04c-.03-.08-.03-.18-.05-.23-.05-.05-.13-.08-.18-.13l-.08.08c.08.1.15.2.2.3.03,0,.08-.03.1-.03Zm-37.54-.15c.25.33.61.38.96.46.03-.03.03-.08.05-.13-.3-.15-.61-.3-.91-.48-.03.05-.05.1-.1.15Zm25.46-3.5c-.23-.1-.35-.15-.63-.28.15.43.33.38.63.28Zm-13.75-5.62c.13-.05.23-.08.3-.13.1-.03.2-.08.28-.13-.03-1.14-.3-1.44-1.14-1.19.25.25.53.43.63.66.08.2-.03.48-.08.79Zm15.98-.76c.33-.35.73-.63.73-1.22-.28.38-.58.73-.86,1.11.03.03.08.08.13.1Zm-2.56,1.29c.23-.2.38-.35.56-.51q-.53.08-.56.51Zm5.62,3.42c.13.08.25.18.35.25.05-.05.08-.1.1-.18-.13-.05-.25-.13-.38-.2-.03.03-.05.08-.08.13Zm-33.54,1.37c.2.28.38.66.96.73-.35-.38-.61-.61-.96-.73Zm29.84-5.67c-.28.18-.46.35-.43.68.2-.18.56-.23.43-.68Zm-.15,1.27c.08.05.13.1.18.13.1-.13.18-.25.25-.38-.05-.03-.1-.05-.15-.1-.08.13-.18.23-.28.35Zm-9.85-.3c0-.35-.2-.53-.71-.71.68.46.38,1.01.1,1.7.46-.3.63-.61.61-.99Zm-19.78,8.06c-.23-.41-.63-.58-1.14-.41.41.2.73.35,1.06.53.03-.05.05-.08.08-.13Zm35.31-11.83c-.1.05-.2.08-.3.13.03.05.03.08.05.13.1-.05.2-.08.3-.13-.03-.03-.05-.13-.05-.13Zm-32.27,2.89c.46-.63.38-1.49-.13-1.82.46,1.27.05,1.93-.91,2.1.38.3.71.23,1.04-.28Zm7.7,9.37c-.08-.46-.23-.89-.76-1.01-.03.05-.08.08-.1.13.05.08.13.18.2.2.41.25.46.66.35,1.06s-.48.53-.89.56c-.18,0-.35.03-.53.05.38.41.76.3,1.11.1.41-.23.68-.61.61-1.09Zm-11.25-7.85c.15.18.33.1.43-.05.2-.38.43-.76.53-1.19.15-.58-.56-1.24-1.17-1.14-.1.03-.15.13-.23.2.3.3.73.56.81.89.05.38-.23.81-.38,1.29Zm35.46,6.23c-.15.28-.08.41.1.46.05.03.08-.03.18-.05-.1-.13-.2-.25-.28-.41Zm-23.03-7.14c-.28.05-.33.15-.23.41.58.28.99.03,1.32-.43.3-.38.35-.99.13-1.37-.35-.51-.86-.71-1.47-.68.03.33.25.33.46.41.43.2.58.48.56.89-.05.41-.33.73-.76.79Zm-1.77-1.24c-.41-.61-.81-.81-1.27-.56.41.28.84.48.89.96.1.76-.43,1.29-1.19,1.24-.15-.03-.33-.05-.61-.08.53.61,1.14.66,1.7.23.61-.48.84-1.27.48-1.8Zm11.4,4.46c-.18.38-.56.48-.94.51-.18.03-.38-.03-.56-.05.68.58,1.7.15,1.9-.71.15-.79-.25-1.62-1.11-2.18.25.38.48.66.66.99.28.46.25.96.05,1.44Zm11.09-4.53c.61-.38,1.09-.81,1.52-1.34l.03-.03s-.03,0-.03.03c-.63.3-1.14.76-1.52,1.34Zm-34.53-4.1c.79.33,1.75.51,1.55,1.57-.2,1.14-.03,1.24-1.85,1.52-.25-.56-.66-.94-1.44-.86.38.3.66.53.99.79-.2.41-.38.76-.58,1.19.15.03.33.15.48.13.48-.1.51-.53.56-.99.81.08,1.52-.1,1.87-.76.38-.63.43-1.39,0-2.08-.23-.3-1.09-.61-1.57-.51Zm17.38,9.07c.84-.3,1.49-1.34.61-2.2l-.84-.76c-.05.03-.08.08-.1.13.25.25.53.51.79.79.53.63.33,1.19-.28,1.67-.18.15-.41.2-.66.33.13.05.18.08.23.08.08,0,.18,0,.25-.03Zm15.48-2.1c-.28-.2-.46-.23-.71.08.28-.03.46-.05.71-.08Zm.43,3.95c-.73-.3-1.47-.61-2.2-.89-.2-.1-.46-.28-.76,0,1.39.53,2.76,1.06,4.1,1.57.05.03.1-.05.23-.13-.51-.2-.94-.38-1.37-.56Zm-18.74,1.77c.33.08.58-.05.68-.35.15-.35-.08-.86-.43-1.09.33,1.01.48.89-.25,1.44Zm5.34.35c.46.05.79-.2.84-.63.05-.56-.13-.76-.71-.81.63.71.48.81-.13,1.44Zm18.29-11.35c-.28.25-.51.56-.76.81-.46.48-.94.91-1.44,1.34-.68.63-1.34,1.32-2.25,1.67-.41.18-.81.43-1.22.63.03.05.05.1.05.15.1,0,.2,0,.3-.03.3-.15.63-.28.91-.51.38-.3.91-.23,1.29-.61.61-.58,1.29-1.11,2-1.6.71-.46.73-1.24,1.11-1.87Zm-44.99.96c-.08-.84-.41-1.14-1.29-1.14.2.15.43.25.63.41.15.1.38.25.38.38.05.56.13,1.11-.23,1.6-.15.2-.25.48-.63.46-.25-.51-.56-.99-1.09-1.32-.84-.48-1.17-.61-1.62-.35.43.15.86.28,1.27.46.81.35,1.24,1.04,1.14,1.7-.15.94-.63,1.42-1.57,1.6-.15.03-.3.1-.48.15.03.08.05.13.05.2.25-.05.48-.08.73-.13.71-.13,1.17-.56,1.37-1.24.08-.28.13-.53.41-.71.73-.48,1.01-1.17.94-2.05Zm1.62-1.85c-.08.08-.13.23-.25.41.58-.23.86-.63.76-.99-.05-.25-.3-.41-.66-.41.05.05.08.1.13.15q.41.41.03.84Zm20.9,7.68c.53-.2.73-.56.61-1.01-.15-.43-.3-.53-.73-.41.48.3.81.28.13,1.42Zm20.42,3.12c.76.56,1.6.99,2.41,1.47.23-.3,0-.43-.1-.56-.2-.2-.46-.38-.63-.58-.46-.46-.86-.96-1.6-.91-.08.03-.15-.08-.23-.1-.13-.1-.23-.2-.38-.25-1.11-.43-2.25-.81-3.39-1.22-.13-.05-.25,0-.38,0,.25.2.51.3.79.41,1.24.43,2.43.99,3.52,1.75Zm2.94-10.33c-.38.71-.56,1.52-1.22,2.1-.46.41-.94.84-1.37,1.32-.51.58-1.11.99-1.8,1.29-.33.13-.63.3-.94.48-.1.05-.15.18-.3.35.63-.2,1.14-.35,1.65-.56.41-.18.81-.43,1.19-.68.15-.08.35-.23.35-.35,0-.58.48-.84.81-1.14.68-.61,1.24-1.24,1.6-2.08.18-.51.43-.96.63-1.47-.43.1-.46.46-.61.73Zm-6.56,6.48c.1-.03.2-.08.3-.1l-.08-.15c-.08.05-.18.1-.28.15.03.03.05.1.05.1Zm-34.22-5.98c.66-.51.73-1.22.25-1.75s-1.27-.58-1.75,0c.2-.05.38-.08.58-.1.96-.08,1.42.56,1.04,1.44-.05.13-.08.28-.13.41Zm-16.59,10.49c.13.03.25.03.41.03.71-.05,1.29-.41,1.77-.89.3-.28.46-.61.33-.99.1-.73-1.09-1.85-1.67-2-.03-.03-.08-.03-.13-.03-.08.03-.2.05-.23.1-.03.08,0,.23.05.3s.18.1.28.15c.51.25.86.66,1.11,1.17.15.33.15.68-.1.91-.48.46-1.01.89-1.77.73-.18-.03-.38-.08-.43.15-.05.25.18.3.38.35Zm51.93-7.65c.68-.89,1.44-1.7,2.46-2.23.08-.05.13-.15.15-.25-.91.38-1.65.94-2.25,1.67-.41.48-.84.91-1.24,1.37-.13.13-.2.25-.3.38l.13.13c.35-.35.76-.66,1.06-1.06Zm-31.18-1.85c.51.3,1.55.23,1.8-.15.25-.35.43-.76.61-1.17.05-.1.08-.28.03-.38-.23-.43-.43-.89-.76-1.22-.28-.3-.68-.63-1.29-.33.23.15.41.23.56.33.25.2.56.38.76.61.33.38.35.84.13,1.24-.23.43-.56.73-1.11.68-.28-.05-.61,0-1.01,0,.15.18.2.33.3.38Zm4.89-1.6c.56.05,1.04.18,1.47.53.43.41.63.86.53,1.42-.2,1.04-.46,1.39-1.77,1.49-.03-.18-.08-.35-.08-.51-.08-.56-.3-1.04-.68-1.42-.15-.18-.43-.3-.66-.35-.13-.03-.35.13-.41.25-.08.1-.03.33.05.46.15.2.35.38.58.53.38.28.61.84.48,1.34-.13.43-.46.68-.96.76-.18.03-.33.03-.53.05.61.73,1.65.3,2.1-.79,1.57-.2,1.75-.56,2.03-1.37.28-.84.08-1.57-.61-2.13-.46-.35-.94-.68-1.55-.28Zm7.3.79c-.08-.33-.46-.53-1.14-.56.38.23.68.43,1.04.66-.2.3-.38.53-.63.84.63-.35.84-.61.73-.94Zm-.43,6.38c-.18-.33-.38-.63-.91-.51.18.25.33.48.48.68.56.71.2,1.82-.68,2.03-.25.05-.53.1-.79.18-.08.03-.15.13-.33.28.96.23,1.82.33,2.31-.56.35-.66.33-1.42-.08-2.1Zm19.45.94c-.3-.53-1.01-.84-1.62-.73.08.13.13.33.23.35.43.15.86.23,1.39.38Zm-26.7-1.24c.73.61,1.7.35,2.13-.48.28-.53.2-.68-.53-1.04.08.25.15.38.18.53.08.46-.18.73-.71.81-.35.05-.73-.08-1.06.18Zm-9.42-.61c-.05-.38-.43-.63-.99-.66v.13c.13.08.28.15.41.23.41.28.41.46.05.84-.08.08-.13.2-.23.41.53-.18.81-.56.76-.94Zm41.04-6.61c.3-.1,1.14-.96,1.27-1.29-.89.46-1.75.89-2.61,1.34-.1.05-.18.18-.38.38.76.15,1.22-.3,1.72-.43Zm-3.52.43c.08,0,.13-.1.2-.18-.08-.05-.15-.1-.18-.1-.08.03-.1.08-.18.15.05.08.1.13.15.13Zm-16.08,6.21c.43-.05.76-.23.81-.68.08-.53,0-1.06-.41-1.44s-.58-.41-1.14-.15c1.11.28,1.14.3,1.32,1.04.18.58-.13.94-.58,1.24Zm-8.59,1.32c-.03-.25-.08-.53-.53-.48.33.38.2.68-.1.94-.28-.03-.38-.03-.68.1.13.35.43.43.73.38.28-.03.61-.58.58-.94Zm24.98,3.32c.25.1.43.18.61.23q-.23-.33-.61-.23Zm-31.56,1.42c-2.03-1.04-3.75-2.36-4.71-4.48-.03.05-.08.08-.13.1.03.1.03.2.08.3.25.66.58,1.24,1.09,1.77.89.89,1.85,1.67,2.99,2.25.28.15.25.15.68.05Zm7.93-.79c.33-.3.41-.66.23-1.11-.13-.38-.28-.51-.63-.56.81.94.53,1.55-.51,1.8.43.23.68.1.91-.13Zm-1.8.68c-.38-.91-1.17-.96-1.87-1.22.03.35.25.41.46.43.41.1.79.25,1.04.63.05.08.18.08.38.15Zm9.32-3.42c.3-.71.08-1.44-.53-1.77,0,.05,0,.1.03.13.81.94.56,1.87-.61,2.2-.35.1-.73.13-1.22.2.99.35,2-.03,2.33-.76Zm-20.69-2.15c.2.25.38.23.53.1.18-.13.3-.33.51-.41.63-.23.56-.81.66-1.29.03-.15-.03-.38-.13-.51-.46-.51-1.01-.81-1.72-.79-.1,0-.2.15-.38.28.43.13.76.2,1.06.3s.53.25.58.63c.03.38.13.79-.3,1.06-.28.18-.51.38-.81.61Zm-.3,2.94c.33,1.04,1.49,2.08,2.03,1.95-.66-.61-1.29-1.22-2.03-1.95Zm-15.5-4.05c.18.58.48,1.06.84,1.55.48.71,1.14.84,1.98.79.18-.05.43-.15.68-.2.38-.05.56-.3.63-.61.13-.58.2-1.17-.03-1.75-.33-.81-.86-1.42-1.65-1.8-.63-.3-1.6-.2-2.1.33-.43.46-.53,1.04-.35,1.7Zm20.9-.23c.43.63.33.89-.43,1.06-.18.03-.35.08-.61.15.56.28,1.29.03,1.49-.38.2-.38,0-.79-.56-1.11.05.13.08.2.1.28Zm30.24,1.55c.71.25,1.42.48,2.1.73,1.06.38,1.98.96,2.91,1.55.1.05.18.15.35.35-1.06-.35-1.8-1.06-2.76-1.14.48.3,1.01.51,1.49.76.48.28.94.58,1.39.89.43.33.84.71,1.24,1.04l.08-.08c-.23-.33-.46-.63-.71-.96.05-.03.1-.08.13-.1.53.23.96.58,1.32,1.01s.71.89,1.04,1.32c.05-.03.08-.05.1-.08-.51-1.04-1.24-1.87-2.25-2.48-.79-.46-1.55-.94-2.31-1.39-.05-.03-.08-.08-.08-.13v-.03h-.03v.03c-.38-.03-.61-.25-.68-.53-.3-.05-.56-.05-.79-.13-.76-.25-1.49-.53-2.25-.79-.18-.08-.35-.08-.53-.1.05.15.15.23.23.25Zm-42.91,4.51c.3-.13.53-.43.84-.71.15.51.33.94.43,1.37.18.79-.25,1.37-1.04,1.44-.28,0-.53-.05-.79-.08-.13-.03-.23-.08-.41-.13.03.15.03.23.08.25.53.41,1.39.41,1.93,0,.46-.33.66-.89.43-1.65-.15-.56-.35-1.06-.58-1.67.1-.08.18-.23.3-.3.56-.3.68-.81.81-1.39.18-.73-.15-1.37-.71-1.7-.56-.35-1.17-.3-1.72.1.03.05.03.1.03.15.3-.05.61-.1.89-.1.23,0,.46,0,.66.1.76.41.89,1.8.23,2.36-.13.1-.28.18-.48.28-.05-.68-.38-1.14-.66-1.62-.13-.2-.3-.3-.53-.08.05.13.1.23.15.3.66,1.17.66,1.24-.2,2.25-.03.03-.05.08-.08.1-.2.43-.53.53-.96.53-.2.03-.46-.03-.61.2.33.28.68.18,1.01.15s.71-.03.99-.18Zm4.99,3.04c.25.58-.03.84-.53.99.28.13.56.18.76-.1.2-.23.15-.46-.23-.89Zm2.23-.35c.43.18.84.43,1.27.56.73.18,1.47.41,2.2.41,1.24-.03,2.48-.18,3.7-.53.71-.2,1.42-.46,2.13-.71.51-.18,1.01-.38,1.52-.58.15-.05.3-.15.51-.25-.3-.2-.51-.43-.86-.23-.18.08-.43.08-.63.03-1.47-.3-2.89-.68-4-1.75-.28-.28-.61-.51-.89-.76,1.11,1.85,3.04,2.33,5.02,2.89-.48.25-.84.48-1.27.46-.08,0-.2,0-.23.05-.23.43-.66.41-1.04.48-.25.05-.53.05-.79.15-.41.15-.79.08-1.22-.05-1.17-.38-2.23-.94-3.24-1.6-.99-.66-1.98-1.27-2.79-2.13-.66-.66-1.27-1.39-1.6-2.38.2-.05.35-.13.51-.13.53-.08,1.04-.13,1.57-.18.35-.03.73-.13,1.11-.1.79.05,1.57.13,2.36.25.66.1,1.27.23,1.85.73.73.66,1.65,1.17,2.51,1.7.46.28.99.41,1.57.38-1.62-.48-2.86-1.55-4.15-2.56.99-.03,1.93.05,2.81.35.76.25,1.49.63,2.23.96.86.35,1.44.94,1.49,1.9.03.03.08.05.15.1.03-.13.08-.23.08-.3.03-.71-.38-1.19-.89-1.55-.38-.25-.81-.46-1.24-.63-1.01-.46-2.03-.96-3.19-1.01-.99-.03-1.95-.2-2.94-.3-1.39-.13-2.81-.41-4.2-.15-.13.03-.28.03-.41.03-.99,0-1.95.13-2.86.56-.1.03-.23.08-.3.13-.28.15-.41.38-.38.71.03.76.28,1.42.81,1.95.15.18.3.33.43.51.94,1.09,1.93,2.08,3.29,2.61Zm18.09-.86c-.41.18-.76.03-1.27-.08.43.48.73.56,1.17.41.46-.18.86-.41.94-.91.1-.73-.2-1.37-.84-1.72,0-.03-.03-.03-.03-.03,0,0,0,.03.03.03.08.18.1.3.18.35.38.33.41.79.38,1.22-.03.35-.2.56-.56.73Zm-21.71-7.07c.13,0,.25-.1.35-.18.53-.35.79-.86.84-1.42.3-.08.56-.13.79-.23.61-.35.86-.89.84-1.6-.03-.63-.28-1.04-.84-1.32-.23-.1-.46-.28-.68-.38-.23-.08-.46-.23-.71.03.46.23.84.41,1.24.61.68.38.81.63.71,1.39-.08.68-.41,1.01-1.27,1.22-.46-.56-.91-1.11-1.75-1.06,0,.13-.03.2,0,.2.13.08.28.18.43.25.61.25.89.89.56,1.39-.2.33-.48.61-.94.61-.3-.81-.71-1.09-1.52-.99.18.13.35.23.56.3.48.2.63.48.56.99-.05.3-.18.58-.46.76-.1.08-.2.15-.3.25.05.03.08.08.1.13.2-.13.43-.2.56-.35.25-.33.48-.63.94-.61Zm14.64,8.94c-.13.61-.25.68-.86.51-.1-.03-.23,0-.33-.03-.03.05-.03.1-.05.15.38.15.73.3,1.09.46.48-.41.58-.91.58-1.44,0-.13-.08-.28-.18-.33-.28-.18-.58-.33-1.11-.25.33.28.56.46.89.71,0,.05,0,.15-.03.23Zm-12.01,1.95c-1.42-.15-2.84-.28-4.23-.53l-.13-.13-.1.1c-.3-.05-.61-.1-.91-.18-1.52-.33-2.96-.99-4.31-1.8-.76-.48-1.6-.84-2.41-1.24-.18-.1-.28-.23-.48-.38,2.2-.66,3.77-1.93,4.41-4.15.28-1.04-.08-3.01-.68-3.65.03.25.08.53.13.79.15.91.2,1.82-.13,2.74-.13.38-.18.81-.33,1.19-.58,1.32-1.62,2.05-3.01,2.31-.86.15-1.72.35-2.58.56-1.22.3-2.36,0-3.39-.61-.84-.48-1.62-1.01-2.15-1.82-.1-.13-.23-.2-.35-.3-.35-.33-.38-.38-.25-1.01.86-.08,1.75-.15,2.66-.2.25,0,.53.2.81.25.53.1,1.06.23,1.62.25.46.03.86.1,1.24.35.05.03.18-.05.41-.1-.33-.18-.51-.33-.71-.41-1.19-.43-2.41-.56-3.65-.68-.63-.08-1.32,0-1.98.03-.15,0-.3.05-.46.03-.2-.05-.46-.1-.58-.25-.15-.2.13-.33.2-.48.96-1.55,2.43-2.38,4.05-3.04.56-.2,1.14-.38,1.65-.66.46-.23.86-.53,1.27-.84s.79-.66,1.17-.96c.43-.35.84-.68,1.42-.79.53-.08,1.11-.28,1.52-.63.43-.35.89-.63,1.37-.84,1.44-.66,2.86-1.27,4.46-1.39,1.01-.08,2-.38,2.99-.58,2.23-.48,4.46-.84,6.74-.53,1.8.25,3.6.41,5.37.68,1.34.2,2.69.51,3.98.99.73.28,1.52.46,2.28.63.89.25,1.8.46,2.69.71.41.1.76.33,1.14.53.99.56,1.98,1.09,3.09,1.44,1.49.51,2.96,1.17,4.38,1.82,1.34.61,3.5.38,4.26-.89.03-.03.03-.05.05-.05,1.22-.84,1.98-2.13,3.14-3.04.71-.53,1.29-1.22,2.08-1.62.86-.48,1.72-.91,2.66-1.19.03.03.05.08.08.13-.35.2-.68.41-1.04.63-.76.48-1.6.91-2.31,1.49-1.06.86-2.03,1.82-3.01,2.76-.23.23-.43.51-.63.76-.1.13-.15.3-.1.51.05-.05.15-.1.2-.18.28-.33.53-.71.86-1.01.81-.73,1.57-1.52,2.41-2.25.79-.68,1.65-1.24,2.53-1.72.61-.33,1.19-.71,1.75-1.06.43-.25.84-.48,1.34-.51.15,0,.28-.1.51-.18-.33-.05-.51-.08-.71-.1v-.15c.38-.08.76-.15,1.32-.28-.35.46-.35.99-1.01,1.04-.35.03-.73.25-1.01.46-1.29.91-2.58,1.85-3.85,2.79-.56.41-1.14.84-1.42,1.57.3.05.51-.13.66-.3.53-.61,1.11-1.14,1.8-1.55.25-.18.41-.48.66-.66.84-.61,1.7-1.24,2.56-1.82.3-.23.66-.35,1.11-.25.1.66.13,1.27-.41,1.8.3.53.28.71-.15,1.19-.05.08-.15.2-.13.25.23.35,0,.48-.25.61-.05.05-.15.08-.15.13.03.48-.28.68-.66.94-.3.2-.53.56-.79.86-.18.2-.33.43-.48.66.05.03.08.08.13.1l.68-.68c-.08.23-.1.33-.15.41-.76.99-1.65,1.85-2.91,2.15q-.41.1-.61.61c.63.1,1.29.15,1.9.33s1.22.46,1.77.68c-.05.2-.1.38-.13.53.15-.08.3-.18.51-.3.23.2.68.2.63.71,0,.05.18.13.28.18,1.19.48,2.08,1.37,2.86,2.36.63.79.79,1.77.91,2.86-.73-.05-1.39,0-1.87-.71-.35-.48-.86-.89-1.29-1.32.18-.18.25-.41.1-.58-.35-.35-.73-.68-1.11-1.06-.05.18-.08.23-.13.35-.63-.33-1.09-.94-1.85-1.06.76.56,1.55,1.09,2.23,1.72.71.66,1.29,1.42,2,2.2-.58.1-.91-.23-1.37-.33-.08-.41-.1-.91-.79-.89.05.2.13.38.2.68-.53-.18-1.01-.3-1.47-.48-.61-.23-1.22-.51-1.82-.76-1.17-.51-2.33-1.01-3.52-1.49-.53-.2-1.06-.35-1.62-.46.66.61,1.67.53,2.33,1.19-1.19-.18-2.38-.38-3.57-.51-1.06-.08-2.15-.05-3.24.13-.63.08-1.22.28-1.8.56-.96.48-1.98.86-2.94,1.32-.61.28-1.17.58-1.77.86-.05,0-.08-.03-.13-.08-.05.05-.1.13-.15.2v.03c-.33.18-.68.33-1.04.48-1.27.56-2.56,1.01-3.85,1.52-.23.08-.48.13-.68.25-.03-.2-.03-.41-.3-.35-.15.03-.25.33-.38.53-.03.05-.03.13-.03.2-.48.23-.96.41-1.47.53-.23-.05-.35-.03-.41.1-.66.15-1.32.25-2.03.25-.03-.13-.08-.25-.13-.38-.08-.18-.28-.28-.43-.41-.08.15-.2.3-.2.46,0,.13.03.25.08.35l-1.52.08h-.03c-.05-.25-.13-.53-.08-.79.03-.28-.03-.43-.25-.41-.15.03-.38.2-.41.35-.05.25-.03.56.05.81v.05c-.61.03-1.19.05-1.8.05-.86.03-1.72.05-2.56.05-.03-.28-.08-.53-.18-.79-.03-.1-.25-.15-.38-.25-.08.15-.23.28-.2.41.03.23.03.43.05.66-.56,0-1.11,0-1.67-.03l-.08-.3c-.03-.13-.18-.28-.3-.33-.05-.03-.25.13-.28.23-.03.13-.05.25-.05.38-.58-.03-1.19-.08-1.8-.13Z"/>
  <path class="cls-1" d="m67.83,80.22c-.51.03-1.04.03-1.55.03-.03-.1-.08-.2-.1-.3v-.05l1.52-.08c0,.15.05.28.13.41Z"/>
  <path class="cls-2" d="m58.73,80.02c-.23,0-.46,0-.71-.03,0-.13.03-.25.05-.38.03-.1.23-.25.28-.23.13.05.28.2.3.33l.08.3Z"/>
  <path class="cls-1" d="m61.11,80.02c.84,0,1.7-.03,2.56-.05.61,0,1.19-.03,1.8-.05.05.1.1.23.13.33-.38,0-.76,0-1.14.03-.58.03-1.19.05-1.77.08-.51,0-1.01.03-1.52.05v-.05c-.03-.1-.03-.23-.05-.33Z"/>
  <path class="cls-1" d="m60.4,80.04c.23,0,.46,0,.71-.03.03.1.03.23.05.33v.05h-.71c-.03-.13-.03-.23-.05-.35Z"/>
  <path class="cls-1" d="m58.02,79.99c.25.03.48.03.71.03.03.13.05.28.08.41-.25,0-.51-.03-.73-.03,0-.08-.03-.13-.03-.2s-.03-.13-.03-.2Z"/>
  <path class="cls-1" d="m54.27,80.02c.1.03.2.1.23.2-.18,0-.33,0-.51.03v-.05c.03-.08.2-.2.28-.18Z"/>
  <path class="cls-1" d="m56.55,80.02c.1.13.2.2.25.33-.2-.03-.38-.03-.56-.03,0-.1.2-.2.3-.3Z"/>
  <path class="cls-1" d="m56.22,79.86c.61.05,1.22.1,1.8.13,0,.08.03.13.03.2s.03.13.03.2c-.43-.03-.84-.03-1.24-.05h-.03c-.05-.13-.15-.2-.25-.33-.1.1-.3.2-.3.3-.51-.05-1.04-.08-1.55-.1h-.2c-.03-.1-.13-.18-.23-.2-.08-.03-.25.1-.28.18v.05c-.33,0-.68,0-.99-.05-.25-.05-.53-.1-.79-.18,0-.18,0-.35-.03-.41-.05-.1-.13-.2-.2-.28,1.39.25,2.81.38,4.23.53Z"/>
  <path class="cls-1" d="m58.73,80.02c.56.03,1.11.03,1.67.03.03.13.03.23.05.35-.51.03-1.01.03-1.52.03h-.13c-.03-.13-.05-.28-.08-.41Z"/>
</svg>