<?xml version="1.0" encoding="UTF-8"?>
<svg xmlns="http://www.w3.org/2000/svg" viewBox="0 0 136.06 136.06">
  <defs>
    <style>
      .cls-1 {
        fill: #fff;
      }

      .cls-2 {
        fill: #0c3454;
      }

      .cls-3 {
        fill: #e0e1e3;
      }
    </style>
  </defs>
  <g id="Layer_3" data-name="Layer 3">
    <rect class="cls-3" x="0" width="136.06" height="136.06"/>
  </g>
  <g id="B_W" data-name="B&amp;amp;W">
    <g>
      <path class="cls-1" d="m73.98,61.8c.2-.66.41-1.32.61-2.02.61,0,1.29,0,1.57.6.33.64.23,1.32-.23,1.95-.35-.07-.73-.12-1.14-.2.1-.38.18-.73.28-1.14-.43.13-.33.46-.46.66-.15.28-.3.43-.63.15Z"/>
      <path class="cls-1" d="m72.69,59.83c.05-.21.35-.31.13-.74-.16.28-.23.46-.33.66.07.03.12.05.2.08Zm.94-1.6c.53.23.93.66.68,1.37-.28.76-.61,1.47-.91,2.2-.46-.13-.84-.2-1.24-.3.02-.31.05-.56.1-.89-.51.13-.26.58-.53.79-.21-.03-.43-.08-.74-.13.23-.61.46-1.14.69-1.67.1-.26.22-.48.35-.74.28-.66.94-.93,1.6-.63Z"/>
      <path class="cls-1" d="m70.05,58.71c.03-.15.08-.25.05-.33,0-.05-.07-.07-.12-.12-.05.07-.13.15-.15.25-.03.02.1.1.22.2Zm.46-1.19s.13.1.15.1c.05-.05.1-.12.15-.18-.05-.07-.1-.1-.15-.15-.05.08-.1.15-.15.23Zm1.29,1.06c-.56.79-1.01,1.63-1.34,2.59-.3-.1-.61-.2-.91-.28.05-.43.07-.81.1-1.22-.05,0-.1-.02-.15-.02-.13.35-.26.71-.38,1.14-.26-.1-.48-.18-.69-.28-.02-.08-.05-.13-.05-.15.13-.46.26-.94.41-1.37.25-.68.71-1.19,1.16-1.72.38-.43.81-.36,1.22-.15.43.2.68.6.71,1.08.02.13,0,.28-.08.38Z"/>
      <path class="cls-1" d="m67.01,57.85c.31-.18.44-.33.31-.71-.31.18-.38.38-.31.71Zm.64-1.6c-.03.05-.1.13-.1.18,0,.08.05.15.07.23-.12-.08-.23-.08-.25.1-.03.05.05.13.08.18.05-.1.1-.15.17-.26h.03v-.02s.07-.08.1-.13c.02-.1.02-.2.02-.28,0,0-.1-.02-.12,0Zm1.19.11c.58.27.66.83.35,1.39-.48.83-.96,1.67-1.47,2.56-.33-.05-.71-.13-1.19-.21.1-.38.18-.7.26-1.03.05-.31.4-.54.12-.97-.48.56-.53,1.22-.76,1.9-.43-.07-.88-.15-1.36-.25.55-1.34,1.11-2.61,1.69-3.98.79,0,1.6.21,2.36.59Z"/>
      <path class="cls-1" d="m64.03,56.99s.07.05.12.07c.46-.4.48-.45.2-.78-.12.25-.22.48-.32.71Zm-.71,1.29c.07.03.15.08.22.1.05-.2.46-.25.08-.68-.13.23-.2.4-.3.58Zm2.71-2.15c-.13.33-.33.61-.48.91-.33.61-.71,1.16-.99,1.8-.28.58-.69.86-1.42.73.05-.23.1-.4.13-.55-.03-.03-.08-.06-.13-.08-.13.23-.25.46-.41.73-.45-.05-.96-.07-1.49-.12.1-.36.18-.66.3-.94.48-1.14,1.04-2.28,1.78-3.27.07-.1.17-.17.25-.2.81-.15,1.57-.1,2.28.35.28.16.25.43.18.64Z"/>
      <path class="cls-1" d="m61.49,55.49c-.17.05-.28.03-.3.08-.46.66-1.07,1.24-1.19,2.05.05.03.07.05.12.08.44-.71.89-1.42,1.37-2.21Zm1.7-.58c-.79,1.6-2.05,2.97-2.61,4.74-.43-.08-.78-.13-1.14-.2,0-.41.33-.71.25-1.09-.05,0-.1-.03-.12-.05-.23.38-.43.78-.66,1.19-.43.02-.84.07-1.32.12.03-.2,0-.38.08-.5.2-.46.43-.94.71-1.35.45-.71.76-1.47,1.06-2.25.18-.46.43-.73.91-.84.36-.07.71-.2,1.09-.25.61-.1,1.19-.02,1.75.48Z"/>
      <path class="cls-1" d="m56.35,57.27c-.58.1-.63.17-.58.76.2-.28.35-.48.58-.76Zm.71-.64c.2-.33.33-.53.46-.73-.06-.03-.11-.05-.16-.1-.25.15-.38.33-.3.83Zm1.92-.68c-.68,1.22-1.46,2.41-2.22,3.65-.54.07-1.09.12-1.7.18.07-.31.1-.59.15-.87-.02,0-.08-.02-.13-.02-.1.18-.22.35-.3.53-.3.63-.58.79-1.42.74.23-.64.46-1.25.74-1.83.45-.99.96-1.97,1.59-2.89.41-.6.99-.98,1.47-1.49.13-.13.41-.15.61-.18.15-.02.3.03.45.03.56,0,1.07.35,1.07.91,0,.4-.1.89-.31,1.24Z"/>
      <path class="cls-1" d="m52.75,57.6c.23-.23.41-.41.56-.59-.51-.05-.53,0-.56.59Zm3.57-3.35c-.4.48-.73.94-1.16,1.32-.58.51-.91,1.14-1.24,1.82-.31.69-.66,1.32-.99,2.01-.08.12-.18.25-.2.4-.08.68-.58.94-1.17,1.09-.43.1-.86.2-1.42.33.23-.71.56-1.17.92-1.65.15-.17.27-.38.4-.58.2-.23.41-.46.63-.71-.58.03-.7.15-.63.71-.45.03-.71.35-.91.68-.28.46-.53.97-.81,1.45-.08.12-.2.28-.36.3-.25.08-.55.08-.93.1.15-.28.23-.58.4-.76.84-.88,1.35-2.02,2.33-2.76.36-.25.64-.66.91-1.04.54-.68,1.22-1.21,1.93-1.64.56-.33,1.11-.64,1.65-.99.2-.1.38-.18.65-.08Z"/>
      <path class="cls-1" d="m43,66.56c1.17-.22,2.48.66,2.69,1.85.07.43.02.89-.03,1.32,0,.15-.1.33-.2.41-.61.35-1.8.5-2.43-.03-.05-.03-.08-.1-.1-.15.6.33,1.19.12,1.77.05.15-.03.3-.18.38-.33.38-.94.38-1.85-.81-2.33-.33-.13-.69-.28-1.07-.33-.45-.1-.6.05-.76.51-.07.27-.15.58-.25.91-.51-.81-.13-1.7.81-1.88Z"/>
      <path class="cls-1" d="m42.24,69s.1-.03.15-.06c.13.18.23.38.36.59-.05.05-.13.07-.2.12-.11-.22-.21-.43-.31-.65Z"/>
      <path class="cls-1" d="m43.76,69.1c.18-.61.15-.66-.58-.84.1.41.23.71.58.84Zm1.24-.56c0,.46.1.86-.33,1.11-.35.23-1.36.18-1.64-.07-.46-.48-.64-1.22-.38-1.75.12-.28.33-.41.6-.46.49-.07,1.42.36,1.65.79.08.13.08.28.1.38Z"/>
      <path class="cls-1" d="m58.3,75.83c-.35-.3-.61-.6-1.11-.6.3.5.63.71,1.11.6Zm-.18-.88c1.24.86,2.46,1.8,3.95,2.23.08.02.13.1.31.2-.96.2-1.82.35-2.69.1-.81-.25-1.57-.56-2.35-.86-.23-.1-.58-.13-.53-.53,0-.05-.18-.13-.26-.2-.71-.56-1.47-1.07-2.07-1.7-.49-.51-.79-1.17-1.14-1.77-.13-.21-.21-.44-.36-.74.2-.13.36-.23.51-.33.71,1.37,1.62,2.48,2.78,3.4.03-.03.08-.06.13-.08-.05-.1-.08-.23-.15-.33-.38-.46-.84-.89-1.19-1.37-.43-.55-.79-1.16-1.22-1.85.38-.02.61-.05.89-.07.68,1.67,1.92,2.91,3.39,3.9Z"/>
      <path class="cls-1" d="m45.86,68.16c-.33-.81-.86-1.42-1.64-1.8-.64-.3-1.6-.2-2.11.33-.43.46-.53,1.04-.35,1.7.18.58.48,1.06.84,1.54.48.71,1.14.84,1.97.79.18-.05.43-.15.69-.2.38-.06.55-.31.63-.61.13-.59.2-1.17-.03-1.75Zm5.42-1.77c.74-.48,1.02-1.17.94-2.06-.07-.83-.4-1.14-1.29-1.14.2.16.43.26.63.41.15.1.38.25.38.38.05.56.13,1.11-.23,1.6-.15.2-.25.48-.63.45-.25-.5-.56-.99-1.09-1.32-.83-.48-1.16-.6-1.62-.35.43.15.86.28,1.27.46.81.35,1.24,1.03,1.14,1.69-.15.94-.64,1.42-1.57,1.6-.15.02-.31.1-.48.15.02.08.05.13.05.2.25-.05.48-.07.73-.12.71-.13,1.17-.56,1.37-1.24.07-.28.13-.54.4-.71Zm-10.51,7.04c-.18-.03-.38-.08-.43.15-.05.25.18.3.38.35.13.03.25.03.41.03.71-.05,1.29-.41,1.77-.89.3-.28.46-.6.33-.98.1-.74-1.09-1.85-1.67-2.01-.03-.02-.08-.02-.13-.02-.08.02-.2.05-.23.1-.02.08,0,.23.05.3.05.08.18.11.28.16.51.25.86.66,1.12,1.16.15.33.15.69-.1.91-.49.46-1.02.89-1.78.74Zm10.41-.69c.56-.3.69-.81.81-1.39.18-.73-.15-1.37-.71-1.7-.55-.35-1.16-.3-1.72.11.03.05.03.1.03.15.3-.05.61-.1.88-.1.23,0,.46,0,.66.1.76.4.89,1.8.23,2.35-.13.1-.28.18-.48.28-.05-.68-.38-1.14-.66-1.62-.13-.2-.3-.3-.53-.08.05.13.1.23.15.31.66,1.16.66,1.24-.2,2.25-.03.03-.05.08-.08.1-.2.43-.53.54-.96.54-.2.02-.46-.03-.61.2.33.28.69.18,1.01.15.33-.02.71-.02.99-.18.31-.12.53-.43.84-.71.15.51.33.94.43,1.37.18.79-.25,1.37-1.04,1.45-.28,0-.53-.05-.78-.08-.13-.03-.23-.08-.41-.13.03.16.03.23.08.26.53.4,1.39.4,1.92,0,.46-.33.66-.89.43-1.65-.15-.56-.35-1.06-.58-1.67.1-.08.18-.23.3-.31Zm3.27,5.5c.28.13.56.18.76-.1.2-.23.15-.46-.23-.89.26.59-.02.84-.53.99Zm-.1-16.34c-.05-.25-.3-.4-.66-.4.05.05.08.1.13.15q.4.4.02.84c-.07.07-.12.22-.25.4.58-.23.86-.63.76-.99Zm2.96,1.55c.66-.51.74-1.22.26-1.75-.49-.53-1.27-.58-1.75,0,.2-.05.38-.08.58-.1.96-.08,1.42.56,1.04,1.44-.05.13-.08.28-.13.41Zm-1.74,3.7c.6-.36.86-.89.83-1.6-.02-.63-.28-1.04-.83-1.32-.23-.1-.46-.28-.69-.38-.23-.07-.45-.22-.71.03.46.23.84.4,1.24.61.69.38.81.63.71,1.39-.07.68-.4,1.01-1.26,1.22-.46-.56-.92-1.12-1.75-1.07,0,.13-.03.2,0,.2.12.08.28.18.43.26.61.25.89.88.56,1.39-.21.33-.49.61-.94.61-.31-.81-.71-1.09-1.52-.99.18.13.35.23.56.3.48.21.63.49.55.99-.05.31-.17.59-.45.76-.1.08-.21.15-.31.26.05.02.08.07.1.12.21-.12.44-.2.56-.35.26-.33.48-.64.94-.61.13,0,.25-.1.35-.18.54-.35.79-.86.84-1.42.3-.07.56-.12.79-.22Zm.4,1.64c.41.28.41.46.05.84-.07.07-.13.2-.23.4.53-.17.81-.55.76-.93s-.43-.64-.98-.66v.12c.12.08.27.16.4.23Zm1.29,3.65c.33,1.04,1.5,2.08,2.03,1.95-.66-.61-1.29-1.22-2.03-1.95Zm1.12-3.55c-.28.18-.51.38-.81.61.2.26.38.23.53.1.18-.12.3-.33.5-.4.64-.23.56-.81.66-1.29.03-.16-.02-.38-.12-.51-.46-.51-1.02-.81-1.73-.79-.1,0-.2.16-.38.28.43.13.76.21,1.07.31.3.1.53.25.58.63.03.38.13.79-.3,1.06Zm3.75,6.24c.27.15.25.15.68.05-2.03-1.04-3.75-2.36-4.71-4.49-.03.05-.08.08-.13.1.03.11.03.21.08.31.25.66.58,1.24,1.09,1.77.88.89,1.85,1.67,2.99,2.26Zm-1.3.43c.03-.05.05-.08.08-.13-.23-.41-.63-.58-1.14-.41.41.21.73.36,1.06.54Zm.99-2.74c-.35-.38-.61-.61-.96-.73.2.27.38.65.96.73Zm2.13-6.33c.46-.64.38-1.5-.13-1.83.46,1.27.05,1.93-.91,2.11.38.3.71.22,1.04-.28Zm-1.39,1.39c.05.13.07.2.1.28.43.63.33.89-.43,1.06-.18.03-.36.08-.61.16.56.27,1.29.02,1.49-.38.21-.38,0-.79-.55-1.12Zm2.1,8.33c-.31-.15-.61-.3-.91-.48-.03.05-.05.1-.1.16.25.32.6.38.96.45.02-.02.02-.07.05-.13Zm-3.83-8.25c.21-.38.43-.76.54-1.19.15-.59-.56-1.24-1.17-1.14-.1.02-.15.12-.23.2.31.3.74.56.81.89.05.38-.22.81-.38,1.29.16.17.33.1.43-.05Zm-.22-3.7c.38-.63.43-1.39,0-2.08-.23-.3-1.09-.61-1.57-.51.78.33,1.74.51,1.54,1.58-.2,1.14-.02,1.24-1.85,1.52-.25-.56-.66-.94-1.44-.87.38.31.66.54.99.79-.21.4-.38.76-.59,1.19.15.03.33.15.48.13.49-.1.51-.54.56-.99.81.07,1.52-.1,1.88-.76Zm2.55-2.13c.33.38.36.84.13,1.24-.23.43-.56.74-1.11.69-.28-.05-.61,0-1.02,0,.16.17.21.33.31.38.5.3,1.54.22,1.8-.16.25-.35.43-.76.6-1.16.05-.1.08-.28.03-.38-.23-.43-.43-.89-.76-1.22-.28-.3-.69-.63-1.29-.33.22.16.4.23.55.33.26.21.56.38.76.61Zm4.92,16.87c.48-.4.58-.91.58-1.44,0-.13-.08-.28-.18-.33-.28-.18-.58-.33-1.1-.26.33.28.55.46.88.71,0,.05,0,.16-.03.23-.13.61-.25.69-.86.51-.1-.03-.23,0-.33-.03-.03.05-.03.1-.05.15.38.16.73.31,1.09.46Zm-3.32-14.74c-.08.1-.03.33.05.45.15.21.36.38.58.54.38.28.61.83.48,1.34-.12.43-.45.68-.96.76-.18.02-.33.02-.53.05.61.73,1.65.3,2.1-.79,1.57-.2,1.75-.55,2.03-1.36.28-.84.07-1.57-.61-2.13-.45-.36-.94-.69-1.54-.28.55.05,1.03.18,1.46.53.44.41.64.86.54,1.42-.21,1.04-.46,1.39-1.78,1.5-.02-.18-.07-.36-.07-.51-.08-.56-.31-1.04-.69-1.42-.15-.18-.43-.3-.65-.35-.13-.03-.36.12-.41.25Zm4.18,10.81c-.38-.91-1.17-.96-1.87-1.21.02.35.25.4.45.43.41.1.79.25,1.04.63.05.08.18.08.38.15Zm-.08-5.11c.33.38.21.68-.1.94-.28-.03-.38-.03-.68.1.12.35.43.43.73.38.28-.03.61-.59.59-.94-.03-.25-.08-.53-.54-.48Zm.23,4.1c.03-.71-.38-1.19-.89-1.54-.38-.26-.81-.46-1.24-.64-1.01-.45-2.02-.96-3.19-1.01-.99-.03-1.95-.2-2.94-.3-1.39-.13-2.81-.41-4.2-.16-.13.03-.28.03-.41.03-.98,0-1.95.13-2.86.56-.1.02-.23.07-.3.12-.28.16-.41.38-.38.71.02.76.28,1.42.81,1.95.15.18.3.33.43.51.94,1.09,1.92,2.08,3.29,2.61.43.18.84.43,1.27.56.73.17,1.47.4,2.2.4,1.24-.02,2.48-.18,3.7-.53.71-.2,1.42-.46,2.13-.71.5-.18,1.01-.38,1.52-.58.15-.05.3-.15.5-.26-.3-.2-.5-.43-.86-.22-.17.07-.43.07-.63.02-1.47-.3-2.89-.68-4-1.75-.28-.28-.61-.5-.89-.76,1.12,1.85,3.04,2.33,5.02,2.89-.48.25-.84.48-1.27.46-.08,0-.2,0-.23.05-.23.43-.66.4-1.04.48-.25.05-.53.05-.78.15-.41.15-.79.08-1.22-.05-1.16-.38-2.23-.94-3.24-1.6-.99-.65-1.98-1.26-2.79-2.12-.65-.66-1.26-1.4-1.59-2.38.2-.05.35-.13.5-.13.54-.08,1.04-.13,1.57-.18.36-.02.74-.12,1.12-.1.78.05,1.57.13,2.36.25.65.11,1.26.23,1.84.74.74.66,1.65,1.16,2.51,1.7.46.27.98.4,1.56.38-1.62-.49-2.85-1.55-4.14-2.56.99-.03,1.92.05,2.81.35.76.26,1.49.64,2.23.96.86.36,1.44.94,1.49,1.9.03.03.08.05.16.11.02-.13.07-.23.07-.31Zm4.56-10.43c-.08-.33-.45-.54-1.14-.56.38.23.69.43,1.04.66-.2.3-.38.53-.63.83.63-.35.83-.61.73-.93Zm-6.61,5.9c-.35.05-.73-.08-1.06.17.73.61,1.69.36,2.12-.48.28-.53.21-.68-.53-1.04.08.26.15.38.18.54.07.45-.18.73-.71.81Zm11.88,5.19c.46.05.78-.2.84-.63.05-.56-.13-.76-.71-.81.63.71.48.81-.13,1.44Zm-8.18-.33c.33-.3.4-.66.23-1.11-.13-.38-.28-.51-.64-.56.81.94.53,1.54-.5,1.8.43.23.68.1.91-.13Zm.25-1.72c.96.23,1.83.33,2.31-.56.35-.66.33-1.42-.08-2.1-.18-.33-.38-.63-.91-.51.18.26.33.48.48.69.56.71.2,1.82-.68,2.02-.26.05-.54.1-.79.18-.08.03-.15.13-.33.28Zm3.8-7.35c.25.26.53.43.63.66.08.2-.02.48-.07.79.12-.05.23-.08.3-.13.1-.03.2-.08.28-.13-.02-1.14-.3-1.44-1.14-1.19Zm-3.44,10.92c-.11.41-.49.53-.89.56-.18,0-.36.02-.53.05.38.4.76.3,1.11.1.41-.23.69-.61.61-1.09-.08-.46-.23-.89-.76-1.01-.03.05-.08.07-.1.12.05.08.13.18.2.21.41.25.46.65.36,1.06Zm5.06-5.5c.84-.3,1.5-1.34.61-2.2-.28-.25-.56-.51-.84-.76-.05.02-.07.08-.1.13.26.25.53.5.79.78.53.63.33,1.19-.28,1.67-.18.16-.41.21-.66.33.13.05.18.08.23.08.07,0,.18,0,.25-.03Zm18.58,3.27q-.23-.37-.62-.26c.27.11.44.18.62.26Zm-20.25-3.85c.53-.2.73-.56.61-1.01-.15-.43-.31-.53-.74-.41.48.31.81.28.13,1.42Zm-4.15-2.51c.6-.48.83-1.26.48-1.8-.41-.6-.81-.81-1.27-.55.41.28.84.48.89.96.1.76-.43,1.29-1.19,1.24-.16-.02-.33-.05-.61-.08.53.61,1.14.66,1.7.23Zm21.32,1c-.29-.21-.48-.23-.75.08.3-.03.49-.05.75-.08Zm-.63,1.92c.42.14.86.23,1.4.37-.31-.52-1.02-.83-1.62-.74.08.14.12.33.22.37Zm-1.95-3.78q-.52.07-.55.52c.22-.21.38-.36.55-.52Zm2.22,2.63c.1-.03.19-.06.29-.09-.02-.05-.04-.11-.07-.16-.09.05-.19.1-.28.15.02.03.04.1.06.1Zm-11.57-2.75c.69.45.38,1.01.1,1.69.46-.3.64-.61.61-.99,0-.35-.2-.53-.71-.7Zm10.73-.26c-.28.18-.46.36-.45.67.2-.16.56-.22.45-.67Zm-17.14,7.96c.33.07.59-.06.69-.36.15-.35-.08-.86-.43-1.09.33,1.01.48.89-.26,1.45Zm15.78-2.67c1.41.54,2.76,1.07,4.12,1.58.03.02.09-.05.22-.13-.5-.2-.94-.38-1.37-.56-.73-.3-1.46-.61-2.2-.9-.21-.08-.45-.27-.77.01Zm-6.93-2.83c.27.45.25.96.05,1.44-.18.38-.56.48-.94.51-.18.02-.38-.03-.56-.05.69.58,1.7.15,1.9-.71.15-.79-.25-1.62-1.11-2.18.25.38.48.66.66.99Zm8.56-1.43c-.05-.04-.1-.08-.15-.11-.09.11-.18.23-.28.35.06.05.12.09.18.13.08-.12.17-.25.25-.37Zm3.88,3.36c-.13-.07-.26-.14-.39-.22-.02.05-.05.09-.08.13.12.09.25.17.37.26.03-.06.07-.11.1-.17Zm1.42-7.06c-.02-.05-.07-.14-.07-.14-.1.04-.19.09-.29.13.02.04.03.08.04.12.11-.04.22-.08.32-.11Zm-.41,10.51c-.16.26-.08.39.11.45.03.01.07-.02.15-.06-.09-.13-.18-.26-.26-.39Zm-17.89-5.13c.43-.05.76-.23.81-.68.08-.53,0-1.07-.4-1.45-.41-.38-.58-.4-1.14-.15,1.11.28,1.14.31,1.32,1.04.17.58-.13.94-.59,1.24Zm13.22-3.22s.09.07.13.1c.33-.34.75-.62.75-1.21-.3.37-.59.74-.88,1.11Zm2.7-3.12c.06.05.12.15.18.14s.12-.1.2-.17c-.09-.06-.15-.12-.18-.11-.08.02-.14.09-.2.14Zm-16.15,7.23c.82.94.56,1.87-.6,2.2-.36.1-.74.13-1.22.21.99.35,2-.03,2.33-.76.31-.71.08-1.45-.53-1.78,0,.05,0,.1.02.13Zm23.14,5.74c.07.11.13.21.2.32.03-.02.06-.03.09-.04-.02-.08-.02-.16-.06-.22-.03-.06-.11-.09-.16-.13l-.07.07Zm-12.42-3.64c.14.44.33.39.63.28-.22-.1-.36-.16-.63-.28Zm-13.27,4.26c.45-.18.86-.41.93-.92.1-.73-.2-1.36-.83-1.72.07.18.1.31.17.36.38.33.41.78.38,1.21-.02.36-.2.56-.55.74-.41.17-.76.02-1.27-.08.43.48.74.56,1.17.41Zm20.67-13.44c.76.13,1.2-.32,1.72-.45.31-.09,1.13-.96,1.27-1.28-.89.45-1.75.88-2.61,1.33-.11.05-.17.17-.38.4Zm-.76,1.48c-.65.31-1.16.78-1.54,1.37.59-.38,1.1-.83,1.54-1.37Zm-2.46,1.88c.69-.88,1.43-1.71,2.45-2.24.08-.05.13-.18.19-.27-.92.39-1.67.96-2.29,1.7-.4.47-.83.91-1.25,1.36-.1.12-.2.25-.3.38.04.04.09.08.14.13.35-.35.75-.67,1.06-1.06Zm5.41-2.62c.2-.49.43-.97.65-1.45-.44.1-.46.45-.61.72-.39.71-.57,1.53-1.21,2.09-.48.42-.95.86-1.37,1.33-.52.57-1.11,1-1.82,1.29-.32.14-.63.31-.93.48-.1.05-.15.17-.3.36.63-.22,1.15-.36,1.64-.57.42-.18.82-.42,1.21-.66.14-.09.35-.25.35-.37,0-.59.47-.84.81-1.14.67-.6,1.24-1.24,1.58-2.08Zm-24.13,3.4c.3-.38.35-.99.13-1.37-.36-.5-.86-.71-1.47-.68.02.33.25.33.45.4.43.21.59.49.56.89-.05.41-.33.73-.76.79-.28.05-.33.15-.23.4.59.28.99.03,1.32-.43Zm25.78,6.74l-.69-.96s.08-.07.12-.11c.52.23.94.59,1.31,1.02s.7.88,1.05,1.33l.1-.1c-.5-1.04-1.25-1.87-2.27-2.46-.77-.46-1.54-.94-2.3-1.41-.04-.03-.07-.08-.1-.14h.01l-.02-.02s.01.01.01.02c-.38-.03-.6-.24-.67-.52-.31-.05-.57-.05-.81-.13-.75-.25-1.49-.53-2.24-.78-.17-.06-.35-.07-.53-.11.05.17.14.23.23.26.7.25,1.41.49,2.11.74,1.04.38,1.97.97,2.91,1.54.09.06.16.16.34.35-1.05-.36-1.79-1.04-2.77-1.13.49.29,1.01.5,1.5.77.49.26.95.56,1.39.89.44.31.84.68,1.26,1.03.02-.03.04-.05.06-.08Zm-6.91-6.35c.39-.3.91-.24,1.3-.61.6-.59,1.28-1.13,1.98-1.59.71-.47.75-1.26,1.13-1.88-.28.26-.5.55-.76.81-.47.46-.95.91-1.44,1.35-.7.62-1.35,1.31-2.25,1.67-.42.17-.81.41-1.22.61.02.06.04.11.05.17.1-.01.21,0,.29-.04.32-.15.65-.28.92-.49Zm2.36,5.83c.76.54,1.6.97,2.39,1.45.25-.3.01-.43-.1-.55-.19-.21-.43-.38-.63-.58-.44-.46-.85-.97-1.6-.91-.06.01-.14-.07-.21-.12-.13-.08-.24-.2-.38-.25-1.13-.41-2.27-.81-3.41-1.21-.11-.04-.24,0-.37,0,.26.22.52.32.78.41,1.25.44,2.44.98,3.53,1.76Zm2.68.14c-.63-.33-1.09-.94-1.85-1.07.76.56,1.55,1.09,2.23,1.73.71.66,1.29,1.42,2,2.2-.58.1-.91-.23-1.37-.33-.07-.4-.1-.91-.78-.89.05.21.13.38.2.69-.53-.18-1.01-.31-1.47-.48-.6-.23-1.21-.51-1.82-.76-1.17-.51-2.33-1.02-3.52-1.5-.53-.2-1.07-.35-1.62-.45.66.6,1.67.53,2.33,1.19-1.19-.18-2.38-.38-3.57-.51-1.07-.08-2.16-.05-3.25.13-.63.07-1.21.28-1.79.55-.97.49-1.98.87-2.94,1.32-.61.28-1.17.58-1.78.86-.07.05-.17.1-.27.13v.03c-.33.17-.69.32-1.04.48-1.27.55-2.56,1.01-3.85,1.52-.23.07-.48.12-.69.25-.05,0-.07.02-.1.05-.2.13-.4.23-.61.33-.48.23-.96.4-1.47.53-.12.05-.25.08-.4.1-.66.15-1.32.26-2.03.26-.1.02-.23.02-.35.02h-.33c-.51.03-1.01.05-1.52.08h-.03c-.22,0-.45.02-.68.02-.61.03-1.19.05-1.8.05-.86.03-1.72.05-2.56.05-.25.03-.48.03-.71.03-.55,0-1.11,0-1.67-.03-.23,0-.45,0-.71-.02-.58-.03-1.19-.08-1.8-.13-1.41-.15-2.83-.28-4.23-.53-.07,0-.15,0-.22-.03-.31-.05-.61-.1-.92-.17-1.52-.33-2.96-.99-4.3-1.8-.76-.48-1.6-.84-2.41-1.24-.18-.1-.28-.23-.48-.38,2.2-.66,3.77-1.93,4.41-4.16.28-1.03-.08-3.01-.69-3.64.03.25.08.53.13.78.15.91.2,1.83-.13,2.74-.12.38-.17.81-.33,1.19-.58,1.31-1.62,2.05-3.01,2.3-.86.15-1.72.36-2.58.56-1.22.3-2.36,0-3.4-.61-.83-.48-1.62-1.01-2.15-1.82-.1-.13-.23-.2-.36-.31-.35-.32-.38-.38-.25-1.01.86-.07,1.75-.15,2.66-.2.25,0,.53.2.81.25.53.1,1.06.23,1.62.26.46.02.86.1,1.24.35.05.03.18-.05.41-.1-.33-.18-.51-.33-.71-.41-1.19-.43-2.41-.55-3.65-.68-.63-.08-1.32,0-1.97.02-.16,0-.31.06-.46.03-.2-.05-.46-.1-.58-.25-.15-.21.12-.33.2-.48.96-1.55,2.43-2.39,4.05-3.04.56-.21,1.14-.38,1.65-.66.46-.23.86-.53,1.27-.84.4-.3.78-.66,1.16-.96.43-.36.84-.69,1.42-.79.53-.07,1.11-.28,1.52-.63.43-.35.89-.63,1.37-.84,1.44-.65,2.86-1.26,4.46-1.39,1.01-.08,2-.38,2.98-.58,2.23-.48,4.46-.84,6.74-.53,1.8.25,3.6.4,5.37.68,1.34.2,2.69.51,3.98.99.73.28,1.52.45,2.28.63.89.25,1.8.46,2.68.71.41.1.76.33,1.14.53.99.56,1.98,1.09,3.09,1.45,1.5.5,2.97,1.16,4.39,1.82,1.34.61,3.49.38,4.25-.89.03-.02.03-.05.05-.05,1.22-.83,1.98-2.12,3.14-3.04.71-.53,1.3-1.21,2.08-1.62.86-.48,1.72-.91,2.66-1.19.03.03.05.08.08.13-.36.2-.69.4-1.04.63-.76.48-1.6.91-2.31,1.5-1.06.86-2.02,1.82-3.01,2.76-.23.23-.43.5-.63.76-.11.12-.16.3-.11.5.05-.05.16-.1.21-.17.28-.33.53-.71.86-1.02.81-.73,1.57-1.52,2.4-2.25.79-.69,1.65-1.24,2.54-1.72.61-.33,1.19-.71,1.74-1.07.44-.25.84-.48,1.35-.5.15,0,.28-.11.5-.18-.33-.05-.5-.08-.71-.1v-.15c.38-.08.76-.16,1.32-.28-.35.45-.35.98-1.01,1.04-.36.02-.74.25-1.01.45-1.3.91-2.59,1.85-3.85,2.79-.56.4-1.14.83-1.42,1.57.3.05.5-.13.66-.31.53-.6,1.11-1.14,1.79-1.54.26-.18.41-.48.66-.66.84-.61,1.7-1.24,2.56-1.82.3-.23.66-.36,1.12-.26.1.66.12,1.27-.41,1.8.3.53.28.71-.15,1.19-.05.08-.15.2-.13.26.23.35,0,.48-.25.6-.05.05-.15.08-.15.13.02.48-.28.68-.66.94-.31.2-.53.55-.79.86-.18.2-.33.43-.48.66.05.02.08.07.13.1.2-.2.38-.38.68-.69-.07.23-.1.33-.15.41-.76.99-1.65,1.85-2.91,2.15q-.41.1-.61.61c.63.1,1.29.15,1.9.33s1.21.46,1.77.68c-.05.21-.1.38-.13.54.16-.08.31-.18.51-.31.23.2.69.2.63.71,0,.05.18.13.28.18,1.19.48,2.08,1.37,2.87,2.35.63.79.78,1.78.91,2.87-.74-.05-1.4,0-1.88-.71-.35-.48-.86-.89-1.29-1.32.18-.18.25-.41.1-.58-.35-.36-.73-.69-1.11-1.07-.05.18-.08.23-.13.36Z"/>
      <path class="cls-2" d="m101.12,75.81c.04.06.04.14.06.22-.03.01-.06.02-.09.04-.07-.11-.13-.21-.2-.32l.07-.07c.05.04.13.07.16.13Z"/>
      <path class="cls-2" d="m96.92,70.96l.02.02h-.01s-.01-.01-.01-.02Z"/>
      <path class="cls-2" d="m97.59,62.48c-.52.13-.96.58-1.72.45.21-.23.27-.35.38-.4.86-.45,1.72-.88,2.61-1.33-.14.32-.96,1.19-1.27,1.28Z"/>
      <path class="cls-2" d="m95.96,63.85s-.02-.08-.04-.12c.1-.04.19-.09.29-.13,0,0,.05.09.07.14-.1.03-.21.07-.32.11Z"/>
      <path class="cls-2" d="m95.98,74.7c-.19-.06-.27-.19-.11-.45.08.13.17.26.26.39-.08.04-.12.07-.15.06Z"/>
      <path class="cls-2" d="m94.37,73.75q.39-.11.62.26c-.18-.08-.35-.15-.62-.26Z"/>
      <path class="cls-2" d="m94.47,70.58c.13.08.26.15.39.22-.03.06-.07.11-.1.17-.12-.09-.25-.17-.37-.26.03-.04.06-.08.08-.13Z"/>
      <path class="cls-2" d="m94.08,62.92c-.06.01-.12-.09-.18-.14.06-.05.12-.12.2-.14.03-.01.09.05.18.11-.08.07-.14.16-.2.17Z"/>
      <path class="cls-2" d="m93.57,65.78c.38-.59.89-1.06,1.54-1.37-.44.54-.95.99-1.54,1.37Z"/>
      <path class="cls-2" d="m99.02,72.85l.69.96s-.04.05-.06.08c-.42-.35-.82-.72-1.26-1.03-.44-.33-.9-.63-1.39-.89-.49-.27-1.01-.48-1.5-.77.98.09,1.72.77,2.77,1.13-.18-.19-.25-.29-.34-.35-.94-.57-1.87-1.16-2.91-1.54-.7-.25-1.41-.49-2.11-.74-.09-.03-.18-.09-.23-.26.18.04.36.05.53.11.75.25,1.49.53,2.24.78.24.08.5.08.81.13.07.28.29.49.67.52.03.06.06.11.1.14.76.47,1.53.95,2.3,1.41,1.02.59,1.77,1.42,2.27,2.46l-.1.1c-.35-.45-.68-.9-1.05-1.33s-.79-.79-1.31-1.02c-.04.04-.08.07-.12.11Z"/>
      <path class="cls-2" d="m98.71,62.22c-.22.48-.45.96-.65,1.45-.34.84-.91,1.48-1.58,2.08-.34.3-.81.55-.81,1.14,0,.12-.21.28-.35.37-.39.24-.79.48-1.21.66-.49.21-1.01.35-1.64.57.15-.19.2-.31.3-.36.3-.17.61-.34.93-.48.71-.29,1.3-.72,1.82-1.29.42-.47.89-.91,1.37-1.33.64-.56.82-1.38,1.21-2.09.15-.27.17-.62.61-.72Z"/>
      <path class="cls-2" d="m92.68,70.94c-.54-.14-.98-.23-1.4-.37-.1-.04-.14-.23-.22-.37.6-.09,1.31.22,1.62.74Z"/>
      <path class="cls-2" d="m97.21,63.38c-.38.62-.42,1.41-1.13,1.88-.7.46-1.38,1-1.98,1.59-.39.37-.91.31-1.3.61-.27.21-.6.34-.92.49-.08.04-.19.03-.29.04-.01-.06-.03-.11-.05-.17.41-.2.8-.44,1.22-.61.9-.36,1.55-1.05,2.25-1.67.49-.44.97-.89,1.44-1.35.26-.26.48-.55.76-.81Z"/>
      <path class="cls-2" d="m91.91,68.65c-.26.03-.45.05-.75.08.27-.31.46-.29.75-.08Z"/>
      <path class="cls-2" d="m97.55,74.74c-.79-.48-1.63-.91-2.39-1.45-1.09-.78-2.28-1.32-3.53-1.76-.26-.09-.52-.19-.78-.41.13,0,.26-.04.37,0,1.14.4,2.28.8,3.41,1.21.14.05.25.17.38.25.07.05.15.13.21.12.75-.06,1.16.45,1.6.91.2.2.44.37.63.58.11.12.35.25.1.55Z"/>
      <path class="cls-2" d="m95.1,64.05c-1.02.53-1.76,1.36-2.45,2.24-.31.39-.71.71-1.06,1.06-.05-.05-.1-.09-.14-.13.1-.13.2-.26.3-.38.42-.45.85-.89,1.25-1.36.62-.74,1.37-1.31,2.29-1.7-.06.09-.11.22-.19.27Z"/>
      <path class="cls-2" d="m91.84,69.33c-.1.03-.19.06-.29.09-.02,0-.04-.07-.06-.1.09-.05.19-.1.28-.15.03.05.05.11.07.16Z"/>
      <path class="cls-2" d="m92.08,64.79c0,.59-.42.87-.75,1.21-.04-.03-.09-.07-.13-.1.29-.37.58-.74.88-1.11Z"/>
      <path class="cls-2" d="m90.55,67.68c.1-.12.19-.24.28-.35.05.03.1.07.15.11-.08.12-.17.25-.25.37-.06-.04-.12-.08-.18-.13Z"/>
      <path class="cls-2" d="m90.26,67.08c-.01-.31.17-.49.45-.67.11.45-.25.51-.45.67Z"/>
      <path class="cls-2" d="m93.47,73.28c-1.36-.51-2.71-1.04-4.12-1.58.32-.28.56-.09.77-.01.74.29,1.47.6,2.2.9.43.18.87.36,1.37.56-.13.08-.19.15-.22.13Z"/>
      <path class="cls-2" d="m89.33,66.79c-.17.16-.33.31-.55.52q.03-.45.55-.52Z"/>
      <path class="cls-2" d="m89.1,72.39c-.3.11-.49.16-.63-.28.27.12.41.18.63.28Z"/>
      <path class="cls-2" d="m81.76,67.88c.86.56,1.26,1.39,1.11,2.18-.2.86-1.21,1.29-1.9.71.18.02.38.07.56.05.38-.03.76-.13.94-.51.2-.48.22-.99-.05-1.44-.18-.33-.41-.61-.66-.99Z"/>
      <path class="cls-2" d="m80.08,68.36c.28-.68.59-1.24-.1-1.69.51.17.71.35.71.7.03.38-.15.69-.61.99Z"/>
      <path class="cls-2" d="m79.05,73.28c.58.05.76.25.71.81-.06.43-.38.68-.84.63.61-.63.76-.73.13-1.44Z"/>
      <path class="cls-2" d="m78.46,76.42s.05-.1.11-.15v-.03c.1-.03.2-.08.27-.13.13.1.23.18.23.26,0,.05.03.12.03.2-.21.13-.41.23-.61.33-.03-.05-.03-.1-.03-.15,0-.13-.05-.23,0-.33Z"/>
      <path class="cls-2" d="m78.79,68.44c-.05.45-.38.63-.81.68.46-.3.76-.66.59-1.24-.18-.73-.21-.76-1.32-1.04.56-.25.73-.23,1.14.15.4.38.48.92.4,1.45Z"/>
      <path class="cls-2" d="m77.15,72.21c1.16-.33,1.42-1.26.6-2.2-.02-.03-.02-.08-.02-.13.61.33.84,1.07.53,1.78-.33.73-1.34,1.11-2.33.76.48-.08.86-.11,1.22-.21Z"/>
      <path class="cls-2" d="m76.41,77.63c.03-.1.15-.25.23-.25.13,0,.3.08.35.18-.2.07-.4.17-.6.23,0-.06.02-.11.02-.16Z"/>
      <path class="cls-2" d="m77.02,68.54c.89.86.23,1.9-.61,2.2-.07.03-.18.03-.25.03-.05,0-.1-.03-.23-.08.25-.12.48-.17.66-.33.61-.48.81-1.04.28-1.67-.26-.28-.53-.53-.79-.78.03-.05.05-.11.1-.13.28.25.56.51.84.76Z"/>
      <path class="cls-2" d="m75.42,65.98c-.1-.23-.38-.4-.63-.66.84-.25,1.12.05,1.14,1.19-.08.05-.18.1-.28.13-.07.05-.18.08-.3.13.05-.31.15-.59.07-.79Z"/>
      <path class="cls-2" d="m74.74,70.16c.68-1.14.35-1.11-.13-1.42.43-.12.59-.02.74.41.12.45-.08.81-.61,1.01Z"/>
      <path class="cls-2" d="m74.46,78.29c-.05-.3.18-.45.46-.35.17.07.3.15.35.28-.15.05-.28.1-.43.15-.13.05-.23.07-.35.12,0-.07-.03-.15-.03-.2Z"/>
      <path class="cls-2" d="m76.13,75.45c-.07.51-.48.74-.93.92-.43.15-.74.07-1.17-.41.51.1.86.25,1.27.08.35-.18.53-.38.55-.74.03-.43,0-.88-.38-1.21-.07-.05-.1-.18-.17-.36.63.36.93.99.83,1.72Z"/>
      <path class="cls-2" d="m74.26,74.01c-.1.3-.36.43-.69.36.74-.56.59-.44.26-1.45.35.23.58.74.43,1.09Z"/>
      <path class="cls-2" d="m72.99,78.52c.21-.13.46-.18.69-.25,1.29-.51,2.58-.97,3.85-1.52.35-.16.71-.31,1.04-.48-.06.05-.08.1-.11.15-.05.1,0,.2,0,.33,0,.05,0,.1.03.15-.48.23-.99.45-1.5.66-.05-.1-.22-.18-.35-.18-.08,0-.2.15-.23.25,0,.05-.02.1-.02.16-.38.15-.74.3-1.12.43-.05-.13-.18-.21-.35-.28-.28-.1-.51.05-.46.35,0,.05.03.13.03.2-.48.16-.99.33-1.45.56-.02-.13-.05-.25-.05-.35v-.18Z"/>
      <path class="cls-2" d="m72.84,67.1c.43-.06.71-.38.76-.79.03-.4-.13-.68-.56-.89-.2-.07-.43-.07-.45-.4.61-.03,1.11.18,1.47.68.22.38.17.99-.13,1.37-.33.46-.73.71-1.32.43-.1-.25-.05-.35.23-.4Z"/>
      <path class="cls-2" d="m72.51,63.07c.69.02,1.06.23,1.14.56.1.32-.1.58-.73.93.25-.3.43-.53.63-.83-.35-.23-.66-.43-1.04-.66Z"/>
      <path class="cls-2" d="m72.82,59.09c.22.43-.08.53-.13.74-.08-.03-.13-.05-.2-.08.1-.2.17-.38.33-.66Z"/>
      <path class="cls-2" d="m72.33,79.41c0-.16-.02-.33-.05-.49v-.02c.21-.1.41-.2.61-.33.03-.03.05-.05.1-.05v.18c0,.1.03.22.05.35-.17.05-.35.15-.53.25-.05.03-.13.08-.18.11Z"/>
      <path class="cls-2" d="m73.3,72.11c-.48.89-1.35.79-2.31.56.18-.15.25-.25.33-.28.25-.08.53-.13.79-.18.88-.2,1.24-1.31.68-2.02-.15-.21-.3-.43-.48-.69.53-.12.73.18.91.51.41.68.43,1.44.08,2.1Z"/>
      <path class="cls-2" d="m70.81,79.43c.51-.13.99-.3,1.47-.53v.02c.03.16.05.33.05.49-.43.2-.86.33-1.34.4.03-.1.03-.2.05-.3-.07-.03-.15-.05-.23-.08Z"/>
      <path class="cls-2" d="m71.65,75.86c.08.48-.2.86-.61,1.09-.35.2-.73.3-1.11-.1.17-.03.35-.05.53-.05.4-.03.78-.15.89-.56.1-.41.05-.81-.36-1.06-.07-.03-.15-.13-.2-.21.02-.05.07-.07.1-.12.53.12.68.55.76,1.01Z"/>
      <path class="cls-2" d="m70.81,79.43c.08.03.16.05.23.08-.02.1-.02.2-.05.3-.23.05-.45.1-.68.13,0-.18.02-.31.1-.41.15-.02.28-.05.4-.1Z"/>
      <path class="cls-2" d="m70.97,73.28c.17.45.1.81-.23,1.11-.23.23-.48.36-.91.13,1.03-.26,1.31-.86.5-1.8.36.05.51.18.64.56Z"/>
      <path class="cls-2" d="m70.66,57.62s-.15-.1-.15-.1c.05-.08.1-.15.15-.23.05.05.1.08.15.15-.05.06-.1.13-.15.18Z"/>
      <path class="cls-2" d="m71.07,65.85c.35.54.12,1.32-.48,1.8-.56.43-1.17.38-1.7-.23.28.03.45.06.61.08.76.05,1.29-.48,1.19-1.24-.05-.48-.48-.68-.89-.96.46-.26.86-.05,1.27.55Z"/>
      <path class="cls-2" d="m70.1,58.38c.03.08-.02.18-.05.33-.12-.1-.25-.18-.22-.2.02-.1.1-.18.15-.25.05.05.12.07.12.12Z"/>
      <path class="cls-2" d="m69.4,70.44c.02.35-.31.91-.59.94-.3.05-.61-.03-.73-.38.3-.13.4-.13.68-.1.31-.26.43-.56.1-.94.46-.05.51.23.54.48Z"/>
      <path class="cls-2" d="m70.41,79.53c-.08.1-.1.23-.1.41-.36.05-.71.1-1.04.15-.25.05-.51.08-.76.08-.05-.13-.08-.26-.13-.38.71,0,1.37-.11,2.03-.26Z"/>
      <path class="cls-2" d="m67.7,79.81h.33c.12,0,.25,0,.35-.02.05.12.08.25.13.38-.23.05-.46.05-.69.05-.07-.13-.12-.26-.12-.41Z"/>
      <path class="cls-2" d="m67.55,56.43s.07-.13.1-.18c.02-.02.12,0,.12,0,0,.08,0,.18-.02.28-.03.05-.08.08-.1.13h-.03c-.02-.08-.07-.15-.07-.23Z"/>
      <rect class="cls-2" x="67.62" y="56.66" width=".03" height=".02"/>
      <path class="cls-2" d="m67.07,73.86c.7.25,1.49.3,1.87,1.21-.2-.07-.33-.07-.38-.15-.25-.38-.63-.53-1.04-.63-.2-.03-.43-.08-.45-.43Z"/>
      <path class="cls-2" d="m67.62,56.68c-.07.11-.12.16-.17.26-.03-.05-.11-.13-.08-.18.02-.18.13-.18.25-.1v.02Z"/>
      <path class="cls-2" d="m68.66,77.56c0,.53-.1,1.04-.58,1.44-.36-.15-.71-.3-1.09-.46.02-.05.02-.1.05-.15.1.03.23,0,.33.03.61.18.73.1.86-.51.03-.07.03-.18.03-.23-.33-.25-.55-.43-.88-.71.52-.07.82.08,1.1.26.1.05.18.2.18.33Z"/>
      <path class="cls-2" d="m67.32,57.14c.13.38,0,.53-.31.71-.07-.33,0-.53.31-.71Z"/>
      <path class="cls-2" d="m67.04,69.53c.53-.08.78-.36.71-.81-.03-.16-.1-.28-.18-.54.74.36.81.51.53,1.04-.43.84-1.39,1.09-2.12.48.33-.25.71-.12,1.06-.17Z"/>
      <path class="cls-2" d="m66.28,80.24c-.03-.1-.08-.2-.1-.3v-.05c.51-.03,1.01-.05,1.52-.08,0,.15.05.28.12.41-.5.02-1.03.02-1.54.02Z"/>
      <path class="cls-2" d="m65.6,80.24c-.03-.1-.08-.23-.13-.33.23,0,.46-.02.68-.02h.03v.05c.02.1.07.2.1.3h-.68Z"/>
      <path class="cls-2" d="m68.51,65.25c-.28.81-.46,1.16-2.03,1.36-.45,1.09-1.49,1.52-2.1.79.2-.03.35-.03.53-.05.51-.08.84-.33.96-.76.13-.51-.1-1.06-.48-1.34-.22-.16-.43-.33-.58-.54-.08-.12-.13-.35-.05-.45.05-.13.28-.28.41-.25.22.05.5.17.65.35.38.38.61.86.69,1.42,0,.15.05.33.07.51,1.32-.11,1.57-.46,1.78-1.5.1-.56-.1-1.01-.54-1.42-.43-.35-.91-.48-1.46-.53.6-.41,1.09-.08,1.54.28.68.56.89,1.29.61,2.13Z"/>
      <path class="cls-2" d="m63.75,75.73c.3.18.6.33.91.48-.03.06-.03.11-.05.13-.36-.07-.71-.13-.96-.45.05-.06.07-.11.1-.16Z"/>
      <path class="cls-2" d="m64.15,57.06c-.05-.02-.07-.05-.12-.07.1-.23.2-.46.32-.71.28.33.26.38-.2.78Z"/>
      <path class="cls-2" d="m62.91,66.77c.96-.18,1.37-.84.91-2.11.51.33.59,1.19.13,1.83-.33.5-.66.58-1.04.28Z"/>
      <path class="cls-2" d="m63.62,57.7c.38.43-.03.48-.08.68-.07-.02-.15-.07-.22-.1.1-.18.17-.35.3-.58Z"/>
      <path class="cls-2" d="m62.66,68.16c-.03-.08-.05-.15-.1-.28.55.33.76.74.55,1.12-.2.4-.93.65-1.49.38.25-.08.43-.13.61-.16.76-.17.86-.43.43-1.06Z"/>
      <path class="cls-2" d="m63.29,63.37c.23-.4.2-.86-.13-1.24-.2-.23-.5-.4-.76-.61-.15-.1-.33-.17-.55-.33.6-.3,1.01.03,1.29.33.33.33.53.79.76,1.22.05.1.02.28-.03.38-.17.4-.35.81-.6,1.16-.26.38-1.3.46-1.8.16-.1-.05-.15-.21-.31-.38.41,0,.74-.05,1.02,0,.55.05.88-.26,1.11-.69Z"/>
      <path class="cls-2" d="m64.46,80.27c-.59.02-1.19.05-1.78.07-.5,0-1.01.03-1.52.05v-.05c-.02-.1-.02-.22-.05-.33.84,0,1.7-.02,2.56-.05.61,0,1.19-.02,1.8-.05.05.1.1.23.13.33-.38,0-.76,0-1.14.03Z"/>
      <path class="cls-2" d="m60.45,80.39c-.02-.12-.02-.22-.05-.35.23,0,.46,0,.71-.03.03.11.03.23.05.33v.05h-.71Z"/>
      <path class="cls-2" d="m60.86,72.09c.35.12.61.35.96.73-.58-.08-.76-.46-.96-.73Z"/>
      <path class="cls-2" d="m61.37,66.77c-.11.43-.33.81-.54,1.19-.1.15-.27.22-.43.05.16-.48.43-.91.38-1.29-.07-.33-.5-.59-.81-.89.08-.08.13-.18.23-.2.61-.1,1.32.55,1.17,1.14Z"/>
      <path class="cls-2" d="m60.91,75.43c-.03.05-.05.08-.08.13-.33-.18-.65-.33-1.06-.54.51-.17.91,0,1.14.41Z"/>
      <path class="cls-2" d="m60,57.62c.12-.81.73-1.39,1.19-2.05.02-.05.13-.03.3-.08-.48.79-.93,1.5-1.37,2.21-.05-.03-.07-.05-.12-.08Z"/>
      <path class="cls-2" d="m60.4,80.04c.03.13.03.23.05.35-.5.03-1.01.03-1.52.03h-.12c-.03-.13-.05-.28-.08-.41.56.03,1.12.03,1.67.03Z"/>
      <path class="cls-2" d="m62.81,75.18c-.43.1-.41.1-.68-.05-1.14-.59-2.11-1.37-2.99-2.26-.51-.53-.84-1.11-1.09-1.77-.05-.1-.05-.2-.08-.31.05-.02.1-.05.13-.1.96,2.13,2.68,3.45,4.71,4.49Z"/>
      <path class="cls-2" d="m58.05,80.19c0-.07-.03-.13-.03-.2.26.02.48.02.71.02.03.13.05.28.08.41-.26,0-.51-.03-.74-.03,0-.07-.02-.12-.02-.2Z"/>
      <path class="cls-2" d="m57.57,69.5c.3-.23.53-.43.81-.61.43-.27.33-.68.3-1.06-.05-.38-.28-.53-.58-.63-.31-.1-.64-.18-1.07-.31.18-.12.28-.28.38-.28.71-.02,1.27.28,1.73.79.1.13.15.35.12.51-.1.48-.02,1.06-.66,1.29-.2.07-.32.28-.5.4-.15.13-.33.16-.53-.1Z"/>
      <path class="cls-2" d="m57.19,75.23c.5,0,.76.3,1.11.6-.48.11-.81-.1-1.11-.6Z"/>
      <path class="cls-2" d="m59.29,74.39c-.53.13-1.7-.91-2.03-1.95.74.73,1.37,1.34,2.03,1.95Z"/>
      <path class="cls-2" d="m60.61,64.26c-.36.66-1.07.83-1.88.76-.05.45-.07.89-.56.99-.15.02-.33-.1-.48-.13.21-.43.38-.79.59-1.19-.33-.25-.61-.48-.99-.79.78-.07,1.19.31,1.44.87,1.83-.28,1.65-.38,1.85-1.52.2-1.07-.76-1.25-1.54-1.58.48-.1,1.34.21,1.57.51.43.69.38,1.45,0,2.08Z"/>
      <path class="cls-2" d="m57.52,55.9c-.13.2-.26.4-.46.73-.08-.5.05-.68.3-.83.05.05.1.07.16.1Z"/>
      <path class="cls-2" d="m56.25,80.32c0-.1.2-.2.3-.31.1.13.21.21.26.33-.21-.02-.38-.02-.56-.02Z"/>
      <path class="cls-2" d="m56.02,69.63c.36-.38.36-.56-.05-.84-.13-.07-.28-.15-.4-.23v-.12c.55.02.93.28.98.66s-.23.76-.76.93c.1-.2.16-.33.23-.4Z"/>
      <path class="cls-2" d="m56.35,57.27c-.23.28-.38.48-.58.76-.05-.59,0-.66.58-.76Z"/>
      <path class="cls-2" d="m57.44,63.04c.38-.88-.08-1.52-1.04-1.44-.2.02-.38.05-.58.1.48-.58,1.26-.53,1.75,0,.48.53.4,1.24-.26,1.75.05-.13.08-.28.13-.41Z"/>
      <path class="cls-2" d="m54.98,77.25c.38.43.43.66.23.89-.2.28-.48.23-.76.1.51-.15.79-.4.53-.99Z"/>
      <path class="cls-2" d="m53.99,80.19c.03-.07.21-.2.28-.18.1.03.21.11.23.21-.18,0-.33,0-.51.02v-.05Z"/>
      <path class="cls-2" d="m53.69,61.5c.36,0,.61.15.66.4.1.36-.18.76-.76.99.13-.18.18-.33.25-.4q.38-.44-.02-.84c-.05-.05-.08-.1-.13-.15Z"/>
      <path class="cls-2" d="m62.38,77.38c-.18-.1-.23-.18-.31-.2-1.49-.43-2.71-1.37-3.95-2.23-1.47-.99-2.71-2.23-3.39-3.9-.28.02-.51.05-.89.07.43.69.79,1.3,1.22,1.85.35.48.81.91,1.19,1.37.07.1.1.23.15.33-.05.02-.1.05-.13.08-1.16-.92-2.07-2.03-2.78-3.4-.15.1-.31.2-.51.33.15.3.23.53.36.74.35.6.65,1.26,1.14,1.77.6.63,1.36,1.14,2.07,1.7.08.07.26.15.26.2-.05.4.3.43.53.53.78.3,1.54.61,2.35.86.87.25,1.73.1,2.69-.1Zm5.82-4.86c.51.35.92.83.89,1.54,0,.08-.05.18-.07.31-.08-.06-.13-.08-.16-.11-.05-.96-.63-1.54-1.49-1.9-.74-.32-1.47-.7-2.23-.96-.89-.3-1.82-.38-2.81-.35,1.29,1.01,2.52,2.07,4.14,2.56-.58.02-1.1-.11-1.56-.38-.86-.54-1.77-1.04-2.51-1.7-.58-.51-1.19-.63-1.84-.74-.79-.12-1.58-.2-2.36-.25-.38-.02-.76.08-1.12.1-.53.05-1.03.1-1.57.18-.15,0-.3.08-.5.13.33.98.94,1.72,1.59,2.38.81.86,1.8,1.47,2.79,2.12,1.01.66,2.08,1.22,3.24,1.6.43.13.81.2,1.22.05.25-.1.53-.1.78-.15.38-.08.81-.05,1.04-.48.03-.05.15-.05.23-.05.43.02.79-.21,1.27-.46-1.98-.56-3.9-1.04-5.02-2.89.28.26.61.48.89.76,1.11,1.07,2.53,1.45,4,1.75.2.05.46.05.63-.02.36-.21.56.02.86.22-.2.11-.35.21-.5.26-.51.2-1.02.4-1.52.58-.71.25-1.42.51-2.13.71-1.22.35-2.46.51-3.7.53-.73,0-1.47-.23-2.2-.4-.43-.13-.84-.38-1.27-.56-1.37-.53-2.35-1.52-3.29-2.61-.13-.18-.28-.33-.43-.51-.53-.53-.79-1.19-.81-1.95-.03-.33.1-.55.38-.71.07-.05.2-.1.3-.12.91-.43,1.88-.56,2.86-.56.13,0,.28,0,.41-.03,1.39-.25,2.81.03,4.2.16.99.1,1.95.27,2.94.3,1.17.05,2.18.56,3.19,1.01.43.18.86.38,1.24.64Z"/>
      <path class="cls-2" d="m53.31,57.01c-.15.18-.33.36-.56.59.03-.59.05-.64.56-.59Z"/>
      <path class="cls-2" d="m55.57,64.23c.55.28.81.69.83,1.32.03.71-.23,1.24-.83,1.6-.23.1-.49.15-.79.22-.05.56-.3,1.07-.84,1.42-.1.08-.22.18-.35.18-.46-.03-.68.28-.94.61-.12.15-.35.23-.56.35-.02-.05-.05-.1-.1-.12.1-.11.21-.18.31-.26.28-.17.4-.45.45-.76.08-.5-.07-.78-.55-.99-.21-.07-.38-.17-.56-.3.81-.1,1.21.18,1.52.99.45,0,.73-.28.94-.61.33-.51.05-1.14-.56-1.39-.15-.08-.31-.18-.43-.26-.03,0,0-.07,0-.2.83-.05,1.29.51,1.75,1.07.86-.21,1.19-.54,1.26-1.22.1-.76-.02-1.01-.71-1.39-.4-.21-.78-.38-1.24-.61.26-.25.48-.1.71-.03.23.1.46.28.69.38Z"/>
      <path class="cls-2" d="m58.05,80.19c0,.08.02.13.02.2-.43-.02-.83-.02-1.24-.05h-.02c-.05-.12-.16-.2-.26-.33-.1.11-.3.21-.3.31-.51-.05-1.04-.08-1.55-.1h-.2c-.02-.1-.13-.18-.23-.21-.07-.02-.25.11-.28.18v.05c-.32,0-.68,0-.98-.05-.26-.05-.54-.1-.79-.18,0-.17,0-.35-.02-.4-.05-.1-.13-.2-.21-.28,1.4.25,2.82.38,4.23.53.61.05,1.22.1,1.8.13,0,.07.03.13.03.2Z"/>
      <path class="cls-2" d="m52.22,80.01c-.23-.02-.45-.07-.68-.15,0-.18,0-.33.02-.38.05-.07.13-.12.21-.18.07.03.15.03.22.03.08.08.16.18.21.28.02.05.02.23.02.4Z"/>
      <path class="cls-2" d="m51.46,58.99c-.07-.56.05-.68.63-.71-.22.25-.43.48-.63.71Z"/>
      <path class="cls-2" d="m50.78,66.51c.1-.66-.33-1.34-1.14-1.69-.41-.18-.84-.31-1.27-.46.46-.25.79-.13,1.62.35.53.33.84.82,1.09,1.32.38.03.48-.25.63-.45.36-.49.28-1.04.23-1.6,0-.13-.23-.28-.38-.38-.2-.15-.43-.25-.63-.41.89,0,1.22.31,1.29,1.14.08.89-.2,1.58-.94,2.06-.27.17-.33.43-.4.71-.2.68-.66,1.11-1.37,1.24-.25.05-.48.07-.73.12,0-.07-.03-.12-.05-.2.17-.05.33-.13.48-.15.93-.18,1.42-.66,1.57-1.6Z"/>
      <path class="cls-2" d="m49.33,78.77c.13.1.31.26.28.38v.03c-.2-.05-.4-.15-.58-.23.05-.1.28-.2.3-.18Z"/>
      <path class="cls-2" d="m51.99,71.35c-.12.58-.25,1.09-.81,1.39-.12.08-.2.23-.3.31.23.61.43,1.11.58,1.67.23.76.03,1.32-.43,1.65-.53.4-1.39.4-1.92,0-.05-.03-.05-.1-.08-.26.18.05.28.1.41.13.25.03.5.08.78.08.79-.08,1.22-.66,1.04-1.45-.1-.43-.28-.86-.43-1.37-.31.28-.53.59-.84.71-.28.16-.66.16-.99.18-.32.03-.68.13-1.01-.15.15-.23.41-.18.61-.2.43,0,.76-.11.96-.54.03-.02.05-.07.08-.1.86-1.01.86-1.09.2-2.25-.05-.08-.1-.18-.15-.31.23-.22.4-.12.53.08.28.48.61.94.66,1.62.2-.1.35-.18.48-.28.66-.55.53-1.95-.23-2.35-.2-.1-.43-.1-.66-.1-.27,0-.58.05-.88.1,0-.05,0-.1-.03-.15.56-.41,1.17-.46,1.72-.11.56.33.89.97.71,1.7Z"/>
      <path class="cls-2" d="m46.37,77.58c.03-.07.25-.15.28-.12.13.12.3.3.28.4,0,.03,0,.08-.03.15-.2-.07-.38-.15-.56-.25,0-.08.03-.15.03-.18Z"/>
      <path class="cls-2" d="m43.76,69.1c-.35-.13-.48-.43-.58-.84.73.18.76.23.58.84Z"/>
      <path class="cls-2" d="m42.75,69.53c-.13-.21-.23-.41-.36-.59-.05.03-.1.03-.15.06.1.22.2.43.31.65.07-.05.15-.07.2-.12Zm1.92.12c.43-.25.33-.65.33-1.11-.02-.1-.02-.25-.1-.38-.23-.43-1.16-.86-1.65-.79-.27.05-.48.18-.6.46-.26.53-.08,1.27.38,1.75.28.25,1.29.3,1.64.07Zm1.19-1.49c.23.58.16,1.16.03,1.75-.08.3-.25.55-.63.61-.26.05-.51.15-.69.2-.83.05-1.49-.08-1.97-.79-.36-.48-.66-.96-.84-1.54-.18-.66-.08-1.24.35-1.7.51-.53,1.47-.63,2.11-.33.78.38,1.31.99,1.64,1.8Zm-.17.25c-.21-1.19-1.52-2.07-2.69-1.85-.94.18-1.32,1.07-.81,1.88.1-.33.18-.64.25-.91.16-.46.31-.61.76-.51.38.05.74.2,1.07.33,1.19.48,1.19,1.39.81,2.33-.08.15-.23.3-.38.33-.58.07-1.17.28-1.77-.05.02.05.05.12.1.15.63.53,1.82.38,2.43.03.1-.08.2-.26.2-.41.05-.43.1-.89.03-1.32Z"/>
      <path class="cls-2" d="m40.34,73.58c.05-.23.25-.18.43-.15.76.15,1.29-.28,1.78-.74.25-.22.25-.58.1-.91-.26-.5-.61-.91-1.12-1.16-.1-.05-.23-.08-.28-.16-.05-.07-.07-.22-.05-.3.03-.05.15-.08.23-.1.05,0,.1,0,.13.02.58.16,1.77,1.27,1.67,2.01.13.38-.03.7-.33.98-.48.48-1.06.84-1.77.89-.16,0-.28,0-.41-.03-.2-.05-.43-.1-.38-.35Z"/>
      <path class="cls-2" d="m55.16,55.57c.43-.38.76-.84,1.16-1.32-.27-.1-.45-.02-.65.08-.54.35-1.09.66-1.65.99-.71.43-1.39.96-1.93,1.64-.27.38-.55.79-.91,1.04-.98.74-1.49,1.88-2.33,2.76-.17.18-.25.48-.4.76.38-.02.68-.02.93-.1.16-.02.28-.18.36-.3.28-.48.53-.99.81-1.45.2-.33.46-.65.91-.68-.13.2-.25.41-.4.58-.36.48-.69.94-.92,1.65.56-.13.99-.23,1.42-.33.59-.15,1.09-.41,1.17-1.09.02-.15.12-.28.2-.4.33-.69.68-1.32.99-2.01.33-.68.66-1.31,1.24-1.82Zm1.6,4.03c.76-1.24,1.54-2.43,2.22-3.65.21-.35.31-.84.31-1.24,0-.56-.51-.91-1.07-.91-.15,0-.3-.05-.45-.03-.2.03-.48.05-.61.18-.48.51-1.06.89-1.47,1.49-.63.92-1.14,1.9-1.59,2.89-.28.58-.51,1.19-.74,1.83.84.05,1.12-.11,1.42-.74.08-.18.2-.35.3-.53.05,0,.11.02.13.02-.05.28-.08.56-.15.87.61-.06,1.16-.11,1.7-.18Zm6.43-4.69c-.56-.5-1.14-.58-1.75-.48-.38.05-.73.18-1.09.25-.48.11-.73.38-.91.84-.3.78-.61,1.54-1.06,2.25-.28.41-.51.89-.71,1.35-.08.12-.05.3-.08.5.48-.05.89-.1,1.32-.12.23-.41.43-.81.66-1.19.02.02.07.05.12.05.08.38-.25.68-.25,1.09.36.07.71.12,1.14.2.56-1.77,1.82-3.14,2.61-4.74Zm.08,4.11c-.03.15-.08.32-.13.55.73.13,1.14-.15,1.42-.73.28-.64.66-1.19.99-1.8.15-.3.35-.58.48-.91.07-.21.1-.48-.18-.64-.71-.45-1.47-.5-2.28-.35-.08.03-.18.1-.25.2-.74.99-1.3,2.13-1.78,3.27-.12.28-.2.58-.3.94.53.05,1.04.07,1.49.12.16-.27.28-.5.41-.73.05.02.1.05.13.08Zm5.92-1.27c.31-.56.23-1.12-.35-1.39-.76-.38-1.57-.59-2.36-.59-.58,1.37-1.14,2.64-1.69,3.98.48.1.93.18,1.36.25.23-.68.28-1.34.76-1.9.28.43-.07.66-.12.97-.08.33-.16.65-.26,1.03.48.08.86.16,1.19.21.51-.89.99-1.73,1.47-2.56Zm1.27,3.42c.33-.96.78-1.8,1.34-2.59.08-.1.1-.25.08-.38-.03-.48-.28-.88-.71-1.08-.41-.21-.84-.28-1.22.15-.45.53-.91,1.04-1.16,1.72-.15.43-.28.91-.41,1.37,0,.02.03.07.05.15.21.1.43.18.69.28.12-.43.25-.79.38-1.14.05,0,.1.02.15.02-.03.41-.05.79-.1,1.22.3.08.61.18.91.28Zm3.85-1.57c.25-.71-.15-1.14-.68-1.37-.66-.3-1.32-.03-1.6.63-.13.26-.25.48-.35.74-.23.53-.46,1.06-.69,1.67.31.05.53.1.74.13.27-.21.02-.66.53-.79-.05.33-.08.58-.1.89.4.1.78.17,1.24.3.3-.73.63-1.44.91-2.2Zm.28.18c-.2.7-.41,1.36-.61,2.02.33.28.48.13.63-.15.13-.2.03-.53.46-.66-.1.41-.18.76-.28,1.14.41.08.79.13,1.14.2.46-.63.56-1.31.23-1.95-.28-.6-.96-.6-1.57-.6Zm21.4,12.58c.76.13,1.22.74,1.85,1.07.05-.13.08-.18.13-.36.38.38.76.71,1.11,1.07.15.17.08.4-.1.58.43.43.94.84,1.29,1.32.48.71,1.14.66,1.88.71-.13-1.09-.28-2.08-.91-2.87-.79-.98-1.68-1.87-2.87-2.35-.1-.05-.28-.13-.28-.18.06-.51-.4-.51-.63-.71-.2.13-.35.23-.51.31.03-.16.08-.33.13-.54-.56-.22-1.16-.5-1.77-.68s-1.27-.23-1.9-.33q.2-.51.61-.61c1.26-.3,2.15-1.16,2.91-2.15.05-.08.08-.18.15-.41-.3.31-.48.49-.68.69-.05-.03-.08-.08-.13-.1.15-.23.3-.46.48-.66.26-.31.48-.66.79-.86.38-.26.68-.46.66-.94,0-.05.1-.08.15-.13.25-.12.48-.25.25-.6-.02-.06.08-.18.13-.26.43-.48.45-.66.15-1.19.53-.53.51-1.14.41-1.8-.46-.1-.82.03-1.12.26-.86.58-1.72,1.21-2.56,1.82-.25.18-.4.48-.66.66-.68.4-1.26.94-1.79,1.54-.16.18-.36.36-.66.31.28-.74.86-1.17,1.42-1.57,1.26-.94,2.55-1.88,3.85-2.79.27-.2.65-.43,1.01-.45.66-.06.66-.59,1.01-1.04-.56.12-.94.2-1.32.28v.15c.21.02.38.05.71.1-.22.07-.35.18-.5.18-.51.02-.91.25-1.35.5-.55.36-1.13.74-1.74,1.07-.89.48-1.75,1.03-2.54,1.72-.83.73-1.59,1.52-2.4,2.25-.33.31-.58.69-.86,1.02-.05.07-.16.12-.21.17-.05-.2,0-.38.11-.5.2-.26.4-.53.63-.76.99-.94,1.95-1.9,3.01-2.76.71-.59,1.55-1.02,2.31-1.5.35-.23.68-.43,1.04-.63-.03-.05-.05-.1-.08-.13-.94.28-1.8.71-2.66,1.19-.78.41-1.37,1.09-2.08,1.62-1.16.92-1.92,2.21-3.14,3.04-.02,0-.02.03-.05.05-.76,1.27-2.91,1.5-4.25.89-1.42-.66-2.89-1.32-4.39-1.82-1.11-.36-2.1-.89-3.09-1.45-.38-.2-.73-.43-1.14-.53-.88-.25-1.79-.46-2.68-.71-.76-.18-1.55-.35-2.28-.63-1.29-.48-2.64-.79-3.98-.99-1.77-.28-3.57-.43-5.37-.68-2.28-.31-4.51.05-6.74.53-.98.2-1.97.5-2.98.58-1.6.13-3.02.74-4.46,1.39-.48.21-.94.49-1.37.84-.41.35-.99.56-1.52.63-.58.1-.99.43-1.42.79-.38.3-.76.66-1.16.96-.41.31-.81.61-1.27.84-.51.28-1.09.45-1.65.66-1.62.65-3.09,1.49-4.05,3.04-.08.15-.35.27-.2.48.12.15.38.2.58.25.15.03.3-.03.46-.03.65-.02,1.34-.1,1.97-.02,1.24.13,2.46.25,3.65.68.2.08.38.23.71.41-.23.05-.36.13-.41.1-.38-.25-.78-.33-1.24-.35-.56-.03-1.09-.16-1.62-.26-.28-.05-.56-.25-.81-.25-.91.05-1.8.13-2.66.2-.13.63-.1.69.25,1.01.13.11.26.18.36.31.53.81,1.32,1.34,2.15,1.82,1.04.61,2.18.91,3.4.61.86-.2,1.72-.41,2.58-.56,1.39-.25,2.43-.99,3.01-2.3.16-.38.21-.81.33-1.19.33-.91.28-1.83.13-2.74-.05-.25-.1-.53-.13-.78.61.63.97,2.61.69,3.64-.64,2.23-2.21,3.5-4.41,4.16.2.15.3.28.48.38.81.4,1.65.76,2.41,1.24,1.34.81,2.78,1.47,4.3,1.8.31.07.61.12.92.17-.08.06-.16.11-.21.18-.02.05-.02.2-.02.38-.41-.1-.81-.23-1.22-.38-.23-.1-.48-.18-.71-.3v-.03c.03-.12-.15-.28-.28-.38-.02-.02-.25.08-.3.18-.73-.3-1.44-.61-2.13-.94.03-.07.03-.12.03-.15.02-.1-.15-.28-.28-.4-.03-.03-.25.05-.28.12,0,.03-.03.1-.03.18-.27-.1-.53-.23-.81-.35-.55-.28-1.01-.69-1.54-1.02s-1.06-.5-1.72-.43c-.89.1-1.78.13-2.64-.02-.71-.13-1.37-.51-2-.84-1.01-.51-1.8-1.34-2.61-2.1-.38-.36-.33-.79-.33-1.22-.68-.53-.73-1.01-.23-1.7.21-.27.36-.55.59-.81.78-.98,1.92-1.54,3.01-2.1.38-.18.84-.25,1.24-.4,1.04-.38,1.9-1.02,2.74-1.7,1.04-.84,2.15-1.55,3.34-2.13.66-.3,1.34-.56,2.03-.81.3-.1.53-.25.68-.61.31-.66.64-1.31,1.07-1.9.35-.5.81-.93,1.24-1.36.55-.56,1.16-1.04,1.64-1.63.87-1.06,2.01-1.69,3.15-2.35.07-.05.17-.08.22-.15.38-.33.81-.38,1.29-.21.56-.6,1.32-.4,2.01-.5.07,0,.2.12.27.23.23.3.46.6.71.91.51-.1,1.04-.21,1.55-.38.66-.21,1.21-.05,1.77.28.51.3,1.04.43,1.62.33.18,0,.36.02.51.1.79.38,1.62.58,2.46.78.83.2,1.72.31,2,1.29,1.09-.33,1.44-.71,2.63.99.53-.1,1.09-.25,1.62.05.54.33.81.74.81,1.4.21.05.38.12.56.17,1.24.23,1.75,1.22,1.24,2.36-.07.2-.17.4-.25.61.94.45,1.87.91,2.79,1.36.6.31,1.19.64,1.82.94.48.23.99.46,1.49.63,1.35.44,2.69.84,4.03,1.27.41.15.76.03,1.07-.15,1.01-.63,2-1.27,2.76-2.23.5-.58,1.11-1.06,1.69-1.57.08-.08.16-.15.23-.23.79-.91,1.85-1.42,2.91-1.92.46-.21.94-.36,1.4-.56.35-.15.68-.3,1.01-.48.76-.46,1.62-.66,2.51-.79.02,0,.05.05.18.1-.18.97-.11,1.9-.08,2.84,0,1.22-.3,2.38-1.14,3.37-.23.23-.43.51-.56.81-.38.96-1.11,1.57-1.85,2.2-.33.33-.65.64-1.01,1.02.38.15.63.3.94.4,1.57.64,3.01,1.5,4.25,2.61,1.19,1.09,1.88,2.48,2.03,4.13.02.36.05.74-.38.89-.18.07-.38.1-.56.07-1.04-.28-2.07-.55-3.11-.86-1.24-.38-2.49-.73-3.73-1.14-.83-.28-1.69-.56-2.53-.91-.71-.3-1.47-.25-2.2-.38-.21-.05-.43-.05-.64-.08-.6-.07-1.16-.17-1.77-.1-.46.08-.94,0-1.39-.02-1.24-.1-2.31.4-3.4.88-.33.16-.66.28-.96.43-.79.41-1.6.79-2.36,1.22-.17.1-.35.2-.55.28,0-.08-.03-.15-.03-.2,0-.08-.1-.16-.23-.26.61-.28,1.17-.58,1.78-.86.96-.45,1.97-.83,2.94-1.32.58-.27,1.16-.48,1.79-.55,1.09-.18,2.18-.21,3.25-.13,1.19.13,2.38.33,3.57.51-.66-.66-1.67-.59-2.33-1.19.55.1,1.09.25,1.62.45,1.19.48,2.35.99,3.52,1.5.61.25,1.22.53,1.82.76.46.17.94.3,1.47.48-.07-.31-.15-.48-.2-.69.68-.02.71.49.78.89.46.1.79.43,1.37.33-.71-.78-1.29-1.54-2-2.2-.68-.64-1.47-1.17-2.23-1.73Z"/>
    </g>
  </g>
</svg>