<?xml version="1.0" encoding="UTF-8"?>
<svg id="Layer_1" data-name="Layer 1" xmlns="http://www.w3.org/2000/svg" viewBox="0 0 136.06 136.06">
  <defs>
    <style>
      .cls-1 {
        fill: #fff;
      }

      .cls-2 {
        fill: #f2d06c;
      }

      .cls-3 {
        fill: #0c3454;
      }

      .cls-4 {
        fill: #f1f2f2;
      }
    </style>
  </defs>
  <path class="cls-4" d="m87.09,23.91c.2.77.01,1.55-.05,2.31-.12,1.37-.27,2.74-.47,4.11-.16,1.21-.42,2.41-.64,3.62-.22,1.24-.44,2.47-.66,3.7-.15.87-.29,1.74-.44,2.61-.13.72-.29,1.44-.41,2.16-.09.48-.14.99-.22,1.47-.03.16-.38,1.63-.48,2.08-.38,1.56-1.81,7.44-1.83,7.5-.26,1.4-.61,2.86-.86,3.93-.15.71-.21,1.45-.34,2.16-.39,2.16-.78,4.33-1.14,6.51-.35,2.07-.69,4.16-1.27,6.2-.47,1.61-.93,3.24-1.32,4.87-.33,1.38-.53,2.8-.8,4.19-.18.89-.31,1.8-.6,2.64-.45,1.31-.56,2.67-.81,3.99-.13.64-.23,1.27-.34,1.91-.01.09-.01.18-.02.26-.16.68-.32,1.35-.48,2.03-.23.98-.47,1.96-.67,2.95-.05.26-.07.53-.07.8-.01.04-.18.63-.19.68-.13.77-.25,1.04-.38,1.81-.07.36-.02.67-.13,1.03-.08.24-.15.49-.2.75-.05.33-.02.67-.11.98-.38,1.35-.61,2.73-.89,4.09-.18.9-.33,1.79-.55,2.68-.02.08-.04.14-.08.22-.25.66-.52,1.32-.78,1.97-.24.58-.47,1.16-.72,1.73-.35.79-.81.98-1.47.59-.22-.12-.43-.27-.65-.42-.31-.19-.34-.46-.29-.79.24-1.32.63-2.59,1.08-3.85.11-.31.19-.63.27-.93.39-1.4.8-2.82,1.2-4.22.1-.33.14-.68.22-1.01.13-.53.27-1.04.39-1.57.09-.37.14-.76.22-1.14.25-1.32.59-2.6,1.03-3.87.29-.83.44-1.71.66-2.57.25-.93.48-1.87.77-2.8.15-.49.43-.94.58-1.44.2-.6.41-1.23.49-1.85.13-.97.35-1.9.6-2.84.27-1.04.43-2.11.61-3.17.14-.84.24-1.69.47-2.52.22-.8.3-1.65.53-2.46.39-1.44.88-2.85,1.28-4.28.33-1.12.64-2.24.75-3.41.14-1.5.34-3,.6-4.48.24-1.36.63-2.69.89-4.05.25-1.26.45-2.55.66-3.82.1-.68.55-2.24.55-2.24.42-1.61,2.1-8.7,2.1-8.8.04-.23.04-.45.11-.65.5-1.46.64-2.98.94-4.49.31-1.49.58-3.01.83-4.51.18-1.02.27-2.05.45-3.07.15-1,.38-1.99.54-2.98.1-.64.1-1.28.15-1.92.01-.2.05-.38.1-.57.14-.55.3-1.09.46-1.62.04-.16.11-.34.22-.46.09-.09.29-.15.41-.11.09.02.15.22.19.35Z"/>
  <path class="cls-1" d="m61,95.84c-.4-.14-.8-.28-1.2-.41-.86-.27-1.73-.52-2.58-.82-1.34-.47-2.68-.97-4.01-1.46-.22-.08-.45-.16-.65-.29-.37-.25-.4-.67-.11-1.01.38-.43.8-.71,1.41-.49.3.11.65.14.92.3.61.37,1.28.51,1.94.7,1.37.39,2.74.77,4.11,1.15.85.24,1.71.47,2.55.75.92.31,1.8.7,2.72,1.03,1.01.37,2.04.7,3.06,1.05.26.09.53.18.86.29-.12.45-.23.87-.36,1.38-.3-.06-.59-.1-.87-.16-1.01-.22-2.03-.41-3.03-.67-.94-.25-1.85-.58-2.78-.86-.66-.19-1.33-.34-1.99-.51,0,0,.02.02.02.02Z"/>
  <path class="cls-1" d="m56.27,79.41c.5-.25,1.03-.21,1.52-.1,1.6.34,3.18.75,4.77,1.11.4.09.81.13,1.22.14.76.02,1.48.15,2.17.52.39.21.86.28,1.29.4,1.21.33,2.41.64,3.62.96.87.23,1.74.48,2.68.74.01.56-.26,1.09-.43,1.7-.54-.12-1.02-.23-1.5-.33-.38-.08-.76-.17-1.14-.24-1.83-.31-3.6-.84-5.35-1.47-1.54-.55-3.05-1.18-4.69-1.42-.59-.09-1.2-.19-1.77-.38-.6-.21-1.18-.5-1.74-.81-.29-.16-.58-.38-.66-.81Z"/>
  <path class="cls-1" d="m60.83,66.61c1.26-.48,2.5-.38,3.74-.14.73.14,1.43.45,2.16.63.48.12.98.17,1.47.21,1.17.11,2.36.14,3.51.43,1.44.36,2.89.68,4.33,1.03.23.05.44.17.72.28-.12.46-.23.89-.36,1.41-.44-.05-.85-.1-1.27-.16-1.22-.17-2.43-.34-3.65-.53-1.09-.17-2.17-.37-3.26-.56-.64-.11-1.27-.22-1.91-.34-1.06-.2-2.13-.37-3.17-.64-.66-.17-1.28-.51-1.91-.79-.32-.15-.51-.4-.41-.82Z"/>
  <path class="cls-2" d="m74.53,24.6c-.48.05-.71.32-.91.94-.13.41-.08.55.37.92-.3-.79.04-1.33.54-1.86Zm-.57,2.07c.02.33.24.38.53.4-.02-.38-.34-.32-.53-.4Z"/>
  <path class="cls-1" d="m78.68,59.29c-.13.67-.25,1.23-.38,1.89-.82-.14-1.63-.23-2.41-.44-1.79-.49-3.62-.81-5.42-1.24-1.36-.33-2.68-.8-4.03-1.2-.43-.13-.87-.23-1.31-.35-.14-.04-.29-.08-.43-.14-.52-.25-.56-.36-.36-1,.91-.08,1.83-.09,2.74.16,1.21.33,2.43.59,3.64.92,1.17.33,2.36.51,3.57.58.64.04,1.27.23,1.91.34.57.11,1.15.21,1.72.32.23.04.45.09.75.15Z"/>
  <path class="cls-1" d="m70.06,40.42c.04-.52.34-.86.79-.91.44-.05.9-.1,1.34-.04.98.13,1.95.34,2.93.49.7.11,1.41.2,2.11.28,1.01.11,2.02.18,3.02.32.8.11,1.6.29,2.45.45-.07.47-.14.91-.22,1.4-.16.01-.31.05-.44.02-.87-.14-1.74-.3-2.61-.45-.08-.01-.17-.03-.26-.03-1.06,0-2.09-.23-3.13-.41-1.23-.21-2.47-.36-3.7-.58-.76-.14-1.5-.36-2.28-.56Z"/>
  <path class="cls-2" d="m84.01,33.96c-.1.48-.19.89-.28,1.29-1.82-.04-3.51-.45-5.23-.76-.98-.18-1.96-.3-2.94-.47-.72-.12-1.44-.25-2.15-.43-.37-.09-.71-.28-1.04-.41.02-.77.14-.91.81-.88.32.01.64.08.96.13.21.03.42.1.64.12.77.09,1.54.17,2.31.27.98.12,1.97.25,2.95.4,1.13.17,2.26.37,3.39.56.17.03.33.1.58.18Z"/>
  <path class="cls-2" d="m85.22,27.17c-.05.33-.1.66-.16,1.08-.76-.14-1.43-.25-2.1-.38-1.77-.34-3.55-.65-5.31-1.06-.86-.2-1.71-.39-2.57-.57-.11-.02-.23-.04-.3-.1-.12-.1-.29-.23-.29-.36,0-.22.2-.31.41-.32.17,0,.35-.04.52-.02.85.08,1.72.13,2.56.27.54.09,1.06.36,1.6.47,1.44.29,2.88.53,4.32.78.4.07.8.12,1.33.2Z"/>
  <path class="cls-3" d="m71.5,32.14c.22-.16.44-.32.78-.56-.22.46-.45.77-.51,1.11-.06.34.05.71.08,1.07h.01c-.29-.02-.42-.2-.42-.46,0-.25.04-.5.07-.75v-.42Z"/>
  <path class="cls-3" d="m52.17,93.36c-.52-.08-.53-.42-.59-.68-.16-.8-.02-1.34.45-1.75-.41.8-.53,1.58.13,2.43Z"/>
  <path class="cls-3" d="m60.25,66.75c.26.58.48,1.09.69,1.57-.48-.08-.83-.78-.69-1.57Z"/>
  <path class="cls-3" d="m56.63,83.17c-.17.43-.35.87-.52,1.3h.01c.17-.42.35-.86.52-1.29,0,0-.01-.01-.01-.01Z"/>
  <path class="cls-3" d="m56.11,84.47c-.1.24-.19.47-.29.71-.04-.3.08-.52.3-.69,0,0-.01-.01-.01-.01Z"/>
  <path class="cls-3" d="m57.11,81.14c-.18-.02-.36-.04-.58-.07.23-.34.41-.06.59-.08,0,.05,0,.1,0,.15Z"/>
  <path class="cls-3" d="m74.53,24.6c-.5.52-.84,1.07-.54,1.86-.44-.36-.49-.51-.37-.92.19-.62.43-.89.91-.94Z"/>
  <path class="cls-3" d="m73.95,26.67c.19.09.51.02.53.4-.29-.02-.51-.07-.53-.4Z"/>
  <path class="cls-3" d="m71.86,33.76q.29.04.42.35c-.13-.05-.23-.05-.29-.11-.06-.06-.08-.17-.12-.26,0,0-.01.01-.01.01Z"/>
  <g>
    <path class="cls-3" d="m73.85,50.2c.5.1,1.01.16,1.5.29.7.15,1.39.35,2.11.49.76.14,1.52.23,2.28.34.18.02.34.04.52.05.09-.36.16-.72.23-1.05-.2-.05-.37-.1-.54-.14-.78-.21-1.56-.41-2.33-.63-.69-.2-1.37-.44-2.06-.64-.65-.16-1.29-.29-1.94-.42-1.03-.23-2.06-.44-3.1-.66-.49-.11-1.01-.18-1.47-.42-.13-.07-.71-.18-.74-.18-.45-.12-.75.11-.99.44-.21.26-.15.57.13.74.15.09.33.13.49.19.02.01.19.05.26.05h.01s1.84.58,2.78.82c.65.19,1.31.33,1.95.48.3.08.6.16.9.23Zm.02.01c-.78-.13-1.56-.23-2.33-.41-.71-.16-1.4-.43-2.12-.64-.41-.12-.81-.21-1.25-.33-.04.19-.21.69-.37,1.23-.2.64-.39,1.26-.39,1.29-.01.09-.01.18-.04.25-.38,1-.74,2.02-1.23,2.98-.16.32-.44,1.16-.49,1.62.63.1,1.22.15,1.8.29,1.13.26,2.25.59,3.39.86.97.22,1.93.44,2.92.57,1.03.12,2.05.22,3.06.52.6.19,1.25.27,1.96.42.05-.45.11-.83.18-1.29-.02,0,.07-.52.12-.77h.01c.07-.23.12-.36.14-.52.02-.11.03-.23.05-.35.18-.78.37-1.94.55-2.72.09-.38.24-1,.38-1.63-.11-.02-.21-.05-.31-.07-.78-.13-1.56-.22-2.34-.37-1.11-.24-2.22-.53-3.32-.79-.13-.03-.25-.09-.37-.14Zm13.72-26.19s-.25,2.01-.35,2.79c-.18,1.42-.34,2.83-.57,4.23-.35,2.17-.76,4.34-1.13,6.52-.32,1.89-.63,3.79-.93,5.68-.08.42-.09.68-.19,1.17-.04.25-.08.49-.1.76-.24,1.62-2.06,8.68-2.15,8.95-.26.84-.26,1.15-.46,1.95.02.02-.3,1.08-.27,1.1-.04.3-.13.57-.25,1.15-.02.11-.05.29-.1.39-.08.35-.15.71-.23,1.08-.11.57-.23,1.14-.33,1.71-.29,1.7-.56,3.41-.86,5.11-.18,1.02-.38,2.03-.57,3.05-.46,2.51-1.25,4.94-1.93,7.39-.22.77-.35,1.56-.48,2.34-.36,2.07-.81,4.11-1.34,6.14-.24.89-.3,1.82-.47,2.73-.12.59-.14,1.21-.29,1.79-.02.37-.18.72-.24,1.09-.33,1.68-.42,2.41-.77,4.08-.01.03-.27,1.22-.3,1.24-.05.43-.13.63-.2,1.05-.18,1.1-.39,2.18-.57,3.28-.05.32-.23,1.62-.29,1.62-.21.92-.38,1.84-.63,2.74-.27,1-.33,1.97-.68,2.95-.25.74-.45,1.44-.7,2.11-.26.71-.55,1.4-.8,2.12-.18.49-.31.61-.83.65-.78.05-1.44-.23-2.04-.69-.32-.23-.34-.6-.25-.94.22-.99.47-1.96.74-2.95.22-.81.45-1.62.68-2.42.07-.23.16-.45.23-.68.48-1.67,1-3.34,1.24-5.13l.18-.56c.1-.46.18-.86.27-1.29-.25-.08-.45-.14-.66-.19-1.03-.24-2.07-.43-3.08-.71-1.48-.42-2.94-.9-4.4-1.36-.16-.05-.33-.14-.49-.23.65.15,1.32.31,1.96.5.93.26,1.84.6,2.79.86,1,.25,2.02.45,3.03.66.29.07.57.11.88.16.13-.5.24-.93.35-1.38l-.86-.29c-1.02-.35-2.04-.68-3.06-1.05-.91-.33-1.8-.71-2.71-1.03-.84-.29-1.7-.52-2.55-.76-1.37-.38-2.74-.76-4.11-1.15-.66-.19-1.34-.33-1.94-.69-.26-.16-.61-.19-.92-.31-.6-.22-1.03.07-1.42.49-.29.34-.25.77.11,1.01.2.13.43.21.65.3,1.34.49,2.68.99,4.02,1.46.86.3,1.72.55,2.58.82.39.12.79.26,1.18.39-1.02-.24-2.06-.44-3.05-.75-.94-.29-1.85-.7-2.79-1.04-.55-.21-1.12-.37-1.73-.58-.07.25-.11.41-.15.57-.09.24-.16.48-.26.72-.16.42-.35.82-.5,1.24-.12.36-.19.75-.32,1.11-.16.5-.37.99-.6,1.61,0,.11-.67,1.99-.92,2.84-.04.12-.05.26-.12.37-.61,1.05-.83,2.26-1.17,3.41-.24.84-.41,1.72-.65,2.57-.12.43-.31.84-.49,1.24-.21.43-.66.46-1.02.39-.44-.08-.89-.25-1.25-.5-.44-.3-.69-.74-.47-1.34.34-.92.64-1.87.94-2.81.33-1.02.64-2.05.97-3.08.19-.59,1.36-3.96,1.63-4.86.41-1.33.8-2.64,1.18-3.97.36-1.22.69-2.45,1.09-3.65.41-1.29.93-2.55,1.31-3.85.47-1.62,1.21-3.14,1.79-4.72.52-1.42,1.04-2.83,1.4-4.3.26-1.05.75-2.06,1.13-3.09.47-1.29.94-2.6,1.42-3.89.08-.2.16-.39.23-.59.32-.82.63-1.66.94-2.48.35-.94.69-1.9,1.08-2.83.18-.41.45-.78.63-1.18.2-.46.32-.94.47-1.42.42-1.22.83-2.45,1.26-3.68.08-.24.22-.46.32-.7.18-.46.33-.93.5-1.42-.09-.02.18-.61.27-.86.07-.15.1-.33.15-.49.15-.47.29-.95.48-1.4.16-.36.35-.71.54-1.06.37-.9,1.73-4.88,1.8-5.09.2-.69.94-2.78.88-2.94.26-.87.49-1.73.77-2.59.12-.38.36-.74.48-1.13.16-.48.26-1,.39-1.49.42-1.45.84-2.9,1.23-4.34.22-.81.35-1.65.56-2.47.49-2.03,1.01-4.06,1.52-6.09.09-.32.21-.64.33-.95.1-.47.35-.92.41-1.04.21-.46.46-.92.75-1.35.24-.39,1.04-.61,1.38-.43.18.1.29.37.31.67,0,.05.01.11,0,.16-.01.12-.02.23-.03.35h0s-.26,1.25-.3,1.25c-.07.34-.14.69-.23,1.1.57.05,1.08.09,1.58.16.68.09,1.36.2,2.04.32,1.59.29,3.18.6,4.77.89.42.08.84.11,1.32.18.15-.71.29-1.39.43-2.1.1-.54.21-.89.31-1.23.05-.18.35-.65.36-.69.01-.01.35-.23.53-.22.33.02.68.35.76.78.04.32.03.64.05.97Zm-.56,2.19c.07-.77.25-1.55.05-2.31-.03-.13-.1-.33-.19-.35-.12-.04-.32.02-.41.11-.11.12-.18.3-.22.46-.16.54-.32,1.08-.46,1.62-.04.19-.09.37-.1.57-.05.64-.05,1.28-.15,1.92-.15,1-.38,1.99-.54,2.98-.18,1.02-.27,2.05-.45,3.07-.25,1.5-.53,3.02-.83,4.51-.31,1.5-.44,3.03-.94,4.49-.07.2-.07.42-.11.65,0,.09-1.45,6.22-1.99,8.38-.01.1-.02.2-.04.29,0,.07-.01.12-.02.18h-.05c-.05.19-.45,1.56-.54,2.19-.21,1.27-.41,2.56-.66,3.82-.26,1.36-.65,2.69-.89,4.05-.26,1.48-.46,2.97-.6,4.48-.11,1.17-.42,2.29-.75,3.41-.41,1.43-.89,2.84-1.28,4.28-.23.81-.31,1.66-.53,2.46-.23.83-.33,1.68-.47,2.52-.19,1.06-.34,2.13-.61,3.17-.25.94-.47,1.88-.6,2.84-.09.63-.3,1.25-.49,1.85-.15.49-.43.94-.58,1.44-.29.93-.52,1.87-.77,2.8-.22.86-.37,1.73-.66,2.57-.44,1.27-.78,2.56-1.03,3.87-.08.38-.13.77-.22,1.14-.12.53-.26,1.04-.39,1.57-.08.33-.12.68-.22,1.01-.39,1.4-.8,2.82-1.2,4.22-.09.31-.16.63-.27.93-.45,1.26-.83,2.53-1.08,3.85-.05.33-.02.6.29.79.22.14.43.3.65.42.66.38,1.12.2,1.47-.59.25-.57.48-1.15.72-1.73.26-.66.53-1.32.78-1.97.03-.08.05-.14.08-.22.22-.89.37-1.78.55-2.68.27-1.36.5-2.74.89-4.09.09-.31.05-.65.11-.98.04-.25.12-.5.2-.75.11-.36.07-.67.13-1.03.13-.77.25-1.04.38-1.81.01-.05.18-.64.19-.68,0-.27.01-.54.07-.8.2-.99.44-1.97.67-2.95.16-.68.32-1.35.48-2.03.01-.09.01-.18.02-.26.11-.64.21-1.27.34-1.91.25-1.33.36-2.69.81-3.99.3-.84.43-1.76.6-2.64.27-1.39.47-2.81.8-4.19.38-1.63.84-3.26,1.32-4.87.58-2.04.92-4.13,1.27-6.2.36-2.17.75-4.34,1.14-6.51.13-.71.19-1.45.34-2.16.24-1.06.59-2.52.86-3.93.02-.07,1.45-5.95,1.83-7.5.1-.45.45-1.92.48-2.08.08-.48.13-.99.22-1.47.12-.72.27-1.44.41-2.16.15-.87.29-1.74.44-2.61.22-1.23.44-2.46.66-3.7.22-1.21.47-2.41.64-3.62.2-1.37.35-2.74.47-4.11Zm-1.97,2.03c.07-.43.11-.75.16-1.08-.53-.09-.93-.13-1.34-.21-1.44-.25-2.89-.49-4.31-.78-.55-.11-1.06-.38-1.6-.47-.84-.14-1.71-.2-2.57-.27-.16-.02-.34.01-.52.02-.21,0-.42.09-.41.32,0,.12.18.25.29.35.08.07.21.09.31.11.86.19,1.72.37,2.58.57,1.76.41,3.53.71,5.3,1.05.68.13,1.35.24,2.11.38Zm-.31,1.9c.09-.53.18-1.05.26-1.62-3.38-.6-6.66-1.36-10.01-2-.46,1.81-.89,3.54-1.35,5.38.43.02.78.01,1.11.05,1.32.21,2.63.44,3.95.65,1.67.27,3.32.54,4.98.8.44.07.46.03.54-.39.16-.95.34-1.91.52-2.86Zm-1.02,5.1c.09-.39.18-.81.29-1.28-.26-.09-.42-.15-.59-.18-1.13-.2-2.25-.39-3.39-.57-.98-.14-1.95-.26-2.94-.39-.77-.1-1.55-.18-2.31-.26-.21-.03-.42-.1-.64-.13-.32-.04-.64-.11-.95-.12-.68-.03-.8.11-.81.88.33.13.67.32,1.04.42.7.16,1.43.3,2.15.42.98.18,1.96.3,2.93.47,1.72.31,3.42.72,5.23.76Zm-1,5.44c.33-1.71.65-3.34.99-5.07-3.71-.58-7.34-1.24-11.04-1.84-.15,1.87-1.14,3.51-1.45,5.27,1.95.32,3.84.65,5.73.92,1.89.26,3.8.48,5.77.72Zm-.25,1.72c.08-.49.15-.93.22-1.4-.84-.16-1.65-.34-2.45-.45-1-.14-2.01-.21-3.02-.33-.7-.08-1.42-.16-2.12-.27-.98-.16-1.94-.37-2.93-.49-.44-.07-.9-.01-1.34.04-.45.05-.75.39-.79.91.78.2,1.52.42,2.28.56,1.23.22,2.47.36,3.7.57,1.04.19,2.07.42,3.14.41.09,0,.16.02.25.04.88.14,1.74.3,2.61.44.13.02.27-.01.44-.02Zm-.36,1.54c.11-.39.21-.76.33-1.2-4.05-.61-8-1.21-11.98-1.82-.24.75-.54,1.51-.68,2.36.09,0-.61,2.26-1.12,3.87.25.05.49.1.74.14.35.04.7.07,1.04.12.89.15,1.77.36,2.66.48,1.13.15,2.25.3,3.35.65.53.16,1.05.36,1.59.5.8.21,1.59.38,2.39.58.05.01.12.02.19.02.41-2.3,1.5-5.55,1.5-5.72Zm-3.82,17.22c.13-.66.25-1.22.38-1.89-.31-.07-.53-.11-.76-.15-.57-.11-1.14-.21-1.72-.32-.64-.12-1.26-.31-1.91-.34-1.21-.08-2.39-.26-3.57-.59-1.21-.33-2.42-.59-3.63-.92-.92-.25-1.83-.23-2.74-.15-.2.64-.16.76.36,1.01.13.05.27.1.42.13.44.12.88.22,1.32.35,1.34.39,2.67.87,4.03,1.2,1.8.44,3.63.76,5.42,1.24.78.22,1.59.3,2.4.44Zm-1.39,7.55c.45-2.45.9-4.88,1.34-7.26-4.82-1.06-9.56-2.06-14.19-3.7.09.24.18.46.3.8-.66-.67-.83-1.58-.53-2.23.19-.35.44-.43.82-.26.07-.11.13-.22.2-.34.21.15-.01.6.48.46-.09-.83.5-1.45.78-2.18.32-.84.69-1.67,1.03-2.5.02-.04.02-.09.03-.13.01-.12,0-.23-.02-.33.01-.01.02-.03.02-.04.05-.08.09-.16.14-.24.14-.44.36-1.14.58-1.82,0-.05.02-.11.02-.18-.13-.03-.24-.05-.35-.1-.37-.13-.55-.43-.52-.82,0-.04.01-.08.02-.12.09-.26.37-.53.67-.61.16-.08.64,0,.64,0,.03.01.07.01.1.02.08-.04,1.01-3.93,1.04-3.99.16-.49.3-.99.45-1.47q-.64-.39-.47-.84c.12.18.25.35.46.65.12-.35.19-.54.26-.77-.42-.13-.64-.35-.54-.78.01-.07.03-.13.05-.19.18-.46.57-.57,1.14-.53.47-1.91,1.44-3.66,1.54-5.67-.34-.24-.52-.55-.34-.99.19-.47.74-.82,1.36-.81.43-1.72.86-3.46,1.28-5.2-.12-.11-.22-.19-.31-.27-.34-.34-.35-.67-.01-1.02.13-.13.29-.27.46-.33.24-.08.34-.22.38-.45.16-.72.35-1.43.49-2.15.05-.31-.03-.56-.44-.6-.37.36-.82.69-1.01,1.22-.27.72-.55,1.45-.78,2.19-.35,1.15-.65,2.31-.99,3.48-.34,1.18-.68,2.36-1.03,3.53.01.14.01.27.02.42-.05.09-.13.18-.16.27-.25.98-.52,1.95-.74,2.95-.29,1.35-1.04,2.55-1.26,3.92-.02.11-.08.2-.11.31-.34.93-.68,1.87-1.01,2.8-.08.25-.11.53-.18.87-.03.07-.05.14-.09.21-.01.03-.03.08-.04.11-.01.01-2.11,6.78-2.12,6.8s-.02.03-.04.05c-.13.21-.24.45-.35.68-.44.84-.9,1.67-1.13,2.61-.18.72-.44,1.43-.7,2.12-.07.15-.12.3-.18.45-.37,1.03-.8,2.05-1.16,3.09-.58,1.62-1.12,3.26-1.67,4.89-.48,1.44-.95,2.86-1.44,4.3-.07.2-.11.41-.18.61-.32.95-.61,1.92-.95,2.86-.29.79-.63,1.56-.92,2.34-.2.5-.39,1.01-.54,1.52-.25.89-.46,1.78-.68,2.68-.03.16-.05.35,0,.5.01.02.01.04.02.07.14.42.32.81.48,1.24-.5-.19-.52-.72-.76-1.2-.07.14-.11.24-.14.33-.44,1.13-.89,2.25-1.31,3.38-.6,1.65-1.21,3.28-1.77,4.94-.44,1.31-.84,2.62-1.23,3.95-.18.59-.45,1.12-.68,1.68-.31.77-.49,1.59-.71,2.39-.26.94-.43,1.91-.77,2.83-.29.79-.5,1.6-.76,2.4-.19.59-.39,1.17-.57,1.77-.24.8-.47,1.61-.71,2.41-.21.67-.42,1.35-.66,2.02-.18.47.01.84.34,1.09.49.38.74.41,1.04-.14.1-.18.19-.35.24-.53.34-1.08.68-2.14,1.01-3.21.29-.9.5-1.83.84-2.71.69-1.85,1.45-3.69,2.18-5.53.24-.61.45-1.25.76-1.83.25-.48.38-.95.42-1.48-.18-.07-.32-.11-.45-.18-.49-.22-.7-.61-.63-1.15.07-.41.6-.91,1.11-.94.36-.02.58-.18.69-.48.37-1.05.72-2.12,1.09-3.17.22-.63.46-1.25.69-1.87l.1.03c-.6,1.84-1.21,3.69-1.83,5.57.49.12.93.25,1.37.35.45.1.92.15,1.38.26,1.16.29,2.33.64,3.51.88,1.49.31,2.98.61,4.42,1.17.7.27,1.38.57,2.1.82,1.04.35,2.1.67,3.15,1,.13.04.29.05.47.1.08-.21.14-.38.2-.56.36-1.34.72-2.67,1.09-4,.34-1.21.7-2.4,1-3.62.19-.79.29-1.6.43-2.46-.83-.21-1.65-.43-2.46-.6-.55-.13-1.1-.2-1.65-.32-1.76-.37-3.42-1.05-5.12-1.62-1.04-.34-2.08-.7-3.16-.92-.95-.19-1.9-.34-2.9-.7-.27.57-.54,1.13-.81,1.69-.08.15-.18.3-.26.45.29-.76.56-1.5.86-2.27-.5-.43-1.28-.56-1.51-1.29.15-.6.56-.79,1.13-.76.38.02.77.03,1.2.05.24-.53.46-1.04.53-1.63.11-.84.14-1.7.5-2.52.37-.86.65-1.77.94-2.67.34-1.04.65-2.1,1.02-3.14.11-.32.14-.71.49-.9-.22-.12-.46-.22-.67-.35-.27-.16-.59-.32-.6-.7,0-.42.29-.67.61-.86.14-.08.32-.16.48-.15.48.02.7-.24.82-.65.08-.25.16-.49.25-.74.24-.71.42-1.46.75-2.14.47-.98.72-2.03,1.09-3.05.07-.19.19-.41-.07-.57-.02-.01,0-.09,0-.13.14-.09.29-.18.47-.3-.02.49-.25.92-.03,1.36.01.02-.02.08-.04.12l-1.55,4.18c-.03.11-.07.22-.13.3-.39.38-.41.92-.64,1.42.24.05.44.14.61.13.69-.05,1.34.12,1.97.31.45.13.89.32,1.35.38,1.26.21,2.53.32,3.77.56,1.09.21,2.13.57,3.2.83,1.1.27,2.21.53,3.41.8Zm-.5,1.73c.13-.53.24-.95.36-1.42-.29-.11-.5-.22-.72-.27-1.45-.35-2.9-.67-4.33-1.03-1.16-.29-2.34-.31-3.51-.43-.49-.04-1-.09-1.47-.21-.72-.19-1.43-.49-2.16-.64-1.23-.23-2.48-.33-3.73.14-.1.42.09.68.41.82.64.29,1.25.61,1.91.79,1.04.27,2.12.44,3.17.65.64.12,1.27.23,1.91.34,1.09.19,2.17.38,3.26.56,1.22.19,2.42.36,3.64.54.42.05.83.1,1.27.15Zm-2.87,12.34c1.13-4.02,1.51-8.13,2.79-12.1-1.52-.23-2.97-.46-4.42-.68-.95-.15-1.92-.3-2.87-.47-1.45-.25-2.89-.55-4.33-.81-.82-.15-1.67-.23-2.42-.65-.12-.07-.27-.08-.41-.12-.03.14-.04.29-.1.42-.68,1.87-1.42,3.71-1.89,5.65-.04.16-.13.32-.18.48-.16.52-.35,1.02-.46,1.55-.18.89-.15,1.81-.54,2.66-.01.02.03.08.05.13.13.04.27.11.42.13,1.31.16,2.55.63,3.87.7,1.37.09,2.74.29,4.08.67.79.23,1.59.41,2.36.7.92.35,1.81.81,2.72,1.21.44.2.9.37,1.33.54Zm-.42,2.07c.18-.6.45-1.14.43-1.69-.94-.26-1.81-.52-2.68-.75-1.21-.33-2.41-.65-3.62-.97-.44-.12-.9-.2-1.29-.39-.69-.36-1.4-.49-2.17-.52-.41-.01-.82-.05-1.22-.14-1.59-.36-3.17-.77-4.77-1.11-.48-.11-1.02-.14-1.51.1.08.44.36.66.66.81.56.31,1.14.6,1.74.81.56.2,1.16.3,1.76.38,1.63.24,3.16.88,4.7,1.43,1.74.61,3.52,1.15,5.35,1.46.37.07.76.15,1.13.24.48.1.97.21,1.5.33Z"/>
    <path class="cls-1" d="m85.22,27.17c-.05.33-.1.65-.16,1.08-.76-.14-1.43-.25-2.11-.38-1.77-.34-3.54-.65-5.3-1.05-.86-.2-1.72-.38-2.58-.57-.1-.02-.23-.04-.31-.11-.11-.1-.29-.23-.29-.35-.01-.23.2-.32.41-.32.18-.01.35-.04.52-.02.86.08,1.72.13,2.57.27.54.09,1.05.36,1.6.47,1.43.29,2.87.53,4.31.78.41.08.81.12,1.34.21Z"/>
    <path class="cls-1" d="m84.02,33.97c-.11.47-.2.89-.29,1.28-1.81-.03-3.51-.45-5.23-.76-.97-.18-1.95-.3-2.93-.47-.72-.12-1.45-.25-2.15-.42-.37-.1-.71-.29-1.04-.42.01-.77.13-.91.81-.88.32.01.64.08.95.12.22.03.43.1.64.13.77.09,1.55.16,2.31.26.99.13,1.96.25,2.94.39,1.14.18,2.26.37,3.39.57.18.02.33.09.59.18Z"/>
    <path class="cls-4" d="m80.48,50.32c-.07.33-.14.69-.23,1.05-.18-.01-.34-.03-.52-.05-.76-.11-1.52-.2-2.28-.34-.71-.14-1.4-.34-2.11-.49-.49-.12-1-.19-1.5-.29-.3-.07-.6-.15-.9-.23-.65-.15-1.31-.3-1.95-.48-.93-.24-2.78-.81-2.78-.82h-.01c-.08,0-.24-.04-.26-.05-.16-.05-.34-.1-.49-.19-.29-.16-.34-.47-.13-.74.24-.33.54-.56.99-.44.02,0,.6.11.74.18.46.24.98.31,1.47.42,1.04.22,2.07.43,3.1.66.65.13,1.29.25,1.94.42.69.2,1.37.44,2.06.64.77.22,1.55.42,2.33.63.16.04.34.09.54.14Z"/>
  </g>
</svg>