<?xml version="1.0" encoding="UTF-8"?>
<svg xmlns="http://www.w3.org/2000/svg" viewBox="0 0 136.06 136.06">
  <defs>
    <style>
      .cls-1 {
        fill: #fff;
      }

      .cls-2 {
        fill: #0c3454;
      }

      .cls-3 {
        fill: #e0e1e3;
      }
    </style>
  </defs>
  <g id="Layer_3" data-name="Layer 3">
    <rect class="cls-3" x="0" y="0" width="136.06" height="136.06"/>
  </g>
  <g id="B_W" data-name="B&amp;amp;W">
    <path class="cls-2" d="m71.5,32.14c.22-.16.44-.32.78-.56-.22.46-.45.77-.51,1.11-.06.34.05.71.08,1.07h.01c-.29-.02-.42-.2-.42-.46,0-.25.04-.5.07-.75v-.42Z"/>
    <path class="cls-2" d="m52.17,93.36c-.52-.08-.53-.42-.59-.68-.16-.8-.02-1.34.45-1.75-.41.8-.53,1.58.13,2.43Z"/>
    <path class="cls-2" d="m60.25,66.75c.26.58.48,1.09.69,1.57-.48-.08-.83-.78-.69-1.57Z"/>
    <path class="cls-2" d="m57.11,81.14c-.18-.02-.36-.04-.58-.07.23-.34.41-.06.59-.08,0,.05,0,.1,0,.15Z"/>
    <path class="cls-2" d="m74.53,24.6c-.5.52-.84,1.07-.54,1.86-.44-.36-.49-.51-.37-.92.19-.62.43-.89.91-.94Z"/>
    <path class="cls-2" d="m73.95,26.67c.19.09.51.02.53.4-.29-.02-.51-.07-.53-.4Z"/>
    <path class="cls-2" d="m71.86,33.76q.29.04.42.35c-.13-.05-.23-.05-.29-.11-.06-.06-.08-.17-.12-.26,0,0-.01.01-.01.01Z"/>
    <g>
      <path class="cls-1" d="m57.53,80.82c-.28.72-1.49,3.76-1.88,4.75l-.03.09s-.02.06-.03.08c-.21.56-.43,1.13-.63,1.7-.36,1.05-.71,2.12-1.08,3.17-.11.31-.33.46-.7.48-.5.03-1.04.54-1.1.95-.08.53.13.93.62,1.15.13.06.28.11.45.17-.03.53-.16,1-.42,1.48-.3.59-.51,1.22-.75,1.84-.74,1.84-1.49,3.67-2.19,5.53-.34.87-.56,1.81-.84,2.71-.33,1.07-.67,2.13-1.01,3.21-.05.18-.14.35-.24.53-.31.55-.55.52-1.04.14-.33-.24-.52-.62-.34-1.09.24-.67.45-1.35.65-2.02.25-.8.48-1.61.72-2.41.17-.59.38-1.17.57-1.77.25-.8.47-1.61.76-2.4.34-.92.5-1.89.76-2.83.22-.8.41-1.62.72-2.39.23-.56.5-1.09.68-1.68.38-1.33.79-2.64,1.23-3.95.55-1.66,1.16-3.29,1.76-4.94.42-1.13.87-2.24,1.31-3.37.03-.09.07-.19.14-.33.24.47.25,1.01.76,1.19-.17-.43-.34-.82-.49-1.24l.12-.04c.24.73,1.01.86,1.52,1.29Z"/>
      <path class="cls-1" d="m64.5,58.76c.25.16.13.38.06.57-.36,1.02-.61,2.07-1.08,3.05-.33.68-.51,1.43-.75,2.14-.09.24-.18.48-.25.73-.12.41-.34.67-.83.65-.16-.01-.34.08-.48.16-.33.18-.61.43-.61.85.01.39.33.54.6.7.21.14.45.23.67.35-.35.19-.38.59-.49.9-.38,1.05-.68,2.1-1.02,3.14-.3.9-.57,1.81-.95,2.67-.36.82-.39,1.68-.5,2.52-.07.59-.29,1.11-.53,1.64-.43-.03-.81-.04-1.2-.06-.57-.03-.97.15-1.13.76l-.12.04s-.01-.04-.02-.06c-.05-.16-.03-.34,0-.51.22-.9.43-1.79.68-2.68.15-.51.34-1.02.54-1.52.3-.78.64-1.55.92-2.34.34-.94.64-1.91.96-2.86.06-.21.11-.42.17-.62.48-1.43.96-2.86,1.44-4.3.55-1.63,1.09-3.27,1.67-4.89.36-1.04.79-2.06,1.16-3.09.05-.16.11-.3.18-.45l.24.09c-.31.64-.14,1.55.52,2.22l.15.07s-.03.12,0,.13Z"/>
      <path class="cls-1" d="m75.3,21.71c.41.04.5.3.44.6-.14.73-.33,1.43-.49,2.15-.05.23-.15.38-.39.45-.17.06-.33.2-.46.33-.34.35-.33.68.01,1.02.09.09.19.17.31.28-.43,1.74-.86,3.48-1.28,5.2-.63-.01-1.18.34-1.36.81-.18.44,0,.75.34.99-.1,2-1.07,3.76-1.54,5.67-.57-.04-.96.07-1.14.53-.02.05-.04.12-.06.18-.09.43.13.65.54.78-.07.23-.14.42-.26.77-.21-.3-.34-.47-.46-.65q-.17.45.47.85c-.15.48-.29.97-.45,1.47-.03.06-.97,3.95-1.04,3.99-.03-.01-.07-.01-.1-.02,0,0-.47-.08-.64,0-.29.09-.58.35-.67.61-.01.05-.02.08-.02.12-.03.4.14.69.52.83.11.04.22.06.35.1,0,.06-.02.12-.02.17-.22.68-.44,1.38-.58,1.82-.06.08-.09.17-.15.24,0,.01,0,.04-.02.05.02.1.03.21.02.33,0,.04,0,.08-.03.13-.34.83-.71,1.65-1.03,2.5-.28.73-.87,1.35-.78,2.18-.49.15-.27-.3-.48-.46-.07.12-.13.23-.2.34-.38-.16-.64-.09-.82.27l-.24-.09c.26-.69.52-1.4.7-2.12.23-.94.69-1.77,1.13-2.61.11-.23.22-.47.35-.68.02-.02.03-.03.04-.06.01-.02,2.11-6.79,2.12-6.8.01-.03.03-.08.04-.11.04-.06.06-.14.09-.21.07-.34.1-.61.18-.86.33-.94.67-1.87,1.01-2.8.03-.11.08-.2.11-.31.22-1.37.97-2.57,1.26-3.91.22-1,.48-1.98.73-2.96.04-.09.11-.18.17-.27-.01-.14-.01-.27-.02-.42.35-1.17.69-2.34,1.03-3.53.34-1.16.63-2.33.98-3.48.23-.74.51-1.47.78-2.19.19-.53.64-.86,1.01-1.22Z"/>
      <path class="cls-1" d="m85.22,27.17c-.05.33-.1.65-.16,1.08-.76-.14-1.43-.25-2.11-.38-1.77-.35-3.54-.65-5.3-1.06-.86-.2-1.72-.38-2.58-.57-.1-.02-.23-.04-.31-.11-.11-.1-.28-.23-.28-.35-.01-.23.2-.32.41-.32.17,0,.35-.04.51-.02.86.08,1.72.13,2.57.27.54.09,1.05.37,1.6.48,1.43.28,2.87.52,4.31.78.41.07.81.12,1.34.2Z"/>
      <path class="cls-2" d="m87.59,24.03s-.25,2-.35,2.78c-.18,1.42-.34,2.83-.57,4.24-.35,2.17-.76,4.34-1.13,6.51-.32,1.89-.63,3.79-.93,5.69-.08.41-.09.68-.19,1.17-.04.25-.08.49-.1.76-.24,1.62-2.06,8.68-2.15,8.95-.26.84-.26,1.15-.46,1.95.02.02-.3,1.08-.27,1.1-.05.3-.14.57-.26,1.15-.02.11-.05.29-.1.4-.07.35-.15.71-.23,1.07-.11.57-.23,1.14-.33,1.71-.28,1.7-.56,3.42-.85,5.12-.18,1.02-.39,2.03-.57,3.05-.46,2.51-1.25,4.93-1.93,7.39-.22.77-.35,1.56-.49,2.34-.36,2.07-.81,4.11-1.33,6.14-.25.89-.3,1.82-.48,2.73-.12.6-.14,1.21-.28,1.79-.02.37-.18.73-.24,1.09-.33,1.68-.42,2.41-.77,4.08-.01.03-.27,1.22-.3,1.24-.05.43-.13.62-.19,1.05-.18,1.1-.4,2.19-.57,3.28-.06.32-.23,1.63-.29,1.63-.21.92-.38,1.84-.63,2.74-.27,1-.32,1.97-.68,2.95-.25.74-.45,1.44-.7,2.11-.26.71-.55,1.4-.8,2.11-.17.5-.31.62-.83.65-.78.06-1.44-.23-2.04-.69-.32-.23-.34-.6-.26-.94.22-.99.48-1.97.74-2.95.22-.82.45-1.63.68-2.43.07-.23.16-.45.23-.68.48-1.67,1-3.33,1.24-5.13l.18-.56c.09-.46.17-.86.27-1.3-.25-.08-.45-.14-.66-.18-1.03-.25-2.07-.43-3.08-.72-1.48-.41-2.94-.9-4.4-1.36-.16-.05-.33-.14-.49-.23.64.15,1.31.31,1.96.51.93.26,1.84.6,2.79.85.99.25,2.02.45,3.02.66.29.07.57.11.88.16.13-.5.24-.93.35-1.38-.33-.11-.59-.2-.85-.28-1.02-.35-2.04-.68-3.06-1.06-.91-.33-1.8-.71-2.71-1.03-.85-.28-1.7-.51-2.55-.75-1.37-.39-2.74-.76-4.11-1.16-.66-.18-1.34-.33-1.94-.69-.27-.16-.62-.18-.93-.3-.6-.22-1.03.06-1.41.49-.29.34-.25.77.11,1.01.2.13.43.21.65.29,1.33.5,2.67.99,4.01,1.46.86.3,1.72.55,2.58.83.39.12.79.26,1.18.39-1.02-.24-2.06-.44-3.05-.74-.94-.29-1.85-.71-2.78-1.05-.55-.21-1.12-.37-1.74-.58-.06.25-.11.41-.15.57-.09.24-.16.48-.26.73-.17.41-.35.82-.51,1.24-.12.36-.18.74-.32,1.1-.16.51-.37.99-.6,1.62,0,.11-.67,1.98-.92,2.84-.04.12-.06.26-.12.37-.62,1.05-.84,2.26-1.18,3.41-.24.85-.4,1.73-.64,2.57-.12.43-.31.85-.5,1.24-.2.43-.65.46-1.02.4-.44-.08-.89-.26-1.25-.51-.44-.3-.69-.73-.47-1.34.34-.92.64-1.86.94-2.81.33-1.02.64-2.05.97-3.08.19-.59,1.36-3.96,1.63-4.86.41-1.33.81-2.64,1.19-3.97.36-1.22.69-2.45,1.09-3.65.4-1.3.93-2.55,1.3-3.86.47-1.62,1.21-3.13,1.79-4.71.51-1.42,1.04-2.83,1.4-4.3.27-1.06.75-2.07,1.13-3.1.48-1.29.95-2.6,1.42-3.89.08-.2.16-.4.23-.59.32-.83.62-1.66.94-2.48.35-.95.69-1.9,1.08-2.83.17-.41.45-.78.62-1.19.2-.46.32-.94.48-1.41.41-1.22.83-2.45,1.26-3.68.07-.24.22-.46.31-.7.18-.46.33-.94.51-1.42-.09-.02.18-.61.27-.85.07-.16.1-.33.16-.5.15-.47.28-.95.48-1.4.16-.36.35-.71.54-1.07.37-.9,1.73-4.88,1.8-5.09.19-.69.94-2.77.87-2.94.27-.86.5-1.73.77-2.59.12-.38.36-.73.49-1.13.16-.48.26-.99.39-1.49.42-1.45.85-2.89,1.23-4.34.22-.81.35-1.65.56-2.47.49-2.03,1.01-4.06,1.52-6.09.09-.32.21-.64.33-.95.1-.48.35-.93.41-1.05.21-.46.46-.92.74-1.35.25-.39,1.05-.61,1.39-.42.17.09.28.37.3.67,0,.05.02.1,0,.16,0,.12-.02.23-.03.35h0s-.26,1.25-.29,1.25c-.07.34-.15.69-.24,1.1.58.05,1.08.09,1.58.16.68.09,1.37.2,2.05.32,1.59.29,3.18.6,4.77.89.41.08.84.11,1.31.18.16-.72.29-1.4.43-2.1.1-.54.21-.89.31-1.23.05-.17.35-.65.36-.69.01,0,.35-.23.53-.22.33.02.68.35.76.78.04.32.03.64.05.97Zm-.56,2.19c.07-.77.25-1.55.06-2.32-.04-.13-.1-.32-.19-.35-.12-.04-.32.03-.41.11-.11.12-.17.3-.22.46-.16.54-.31,1.08-.46,1.63-.04.18-.09.37-.1.57-.05.63-.05,1.28-.15,1.92-.15,1-.38,1.98-.54,2.98-.17,1.02-.27,2.05-.45,3.07-.25,1.51-.52,3.02-.83,4.51-.31,1.51-.44,3.03-.94,4.49-.07.2-.07.42-.11.65,0,.09-1.45,6.22-1.99,8.38-.01.1-.02.2-.04.28,0,.07-.01.13-.03.18h-.05c-.06.19-.45,1.56-.54,2.19-.21,1.28-.4,2.56-.66,3.82-.26,1.36-.64,2.69-.89,4.05-.26,1.48-.46,2.97-.6,4.48-.11,1.17-.42,2.29-.74,3.41-.41,1.43-.89,2.84-1.29,4.28-.23.81-.31,1.65-.52,2.46-.24.83-.33,1.67-.48,2.52-.18,1.06-.34,2.13-.61,3.17-.25.94-.47,1.88-.6,2.84-.09.63-.3,1.25-.5,1.86-.15.49-.43.94-.58,1.43-.28.94-.52,1.87-.77,2.8-.22.86-.37,1.73-.66,2.57-.43,1.27-.77,2.55-1.03,3.87-.07.38-.13.77-.22,1.14-.12.53-.26,1.04-.39,1.57-.08.33-.12.68-.22,1.01-.4,1.4-.8,2.82-1.2,4.22-.08.31-.16.63-.27.94-.45,1.26-.83,2.53-1.08,3.85-.05.33-.02.6.29.79.22.14.43.29.65.41.65.39,1.12.2,1.47-.59.25-.57.48-1.15.72-1.73.26-.66.53-1.32.78-1.98.03-.07.05-.14.08-.22.22-.89.37-1.77.54-2.67.28-1.36.51-2.75.89-4.1.09-.3.06-.64.11-.97.05-.25.12-.51.2-.75.11-.36.07-.67.13-1.03.13-.77.25-1.04.39-1.81.01-.05.17-.64.18-.68,0-.27,0-.54.07-.8.2-.99.44-1.98.67-2.95.16-.68.32-1.35.48-2.03.01-.09.01-.18.02-.27.11-.63.21-1.27.34-1.9.26-1.33.36-2.69.81-4,.3-.84.43-1.75.61-2.64.27-1.39.47-2.81.8-4.19.38-1.64.84-3.26,1.32-4.87.58-2.04.92-4.13,1.27-6.2.36-2.17.74-4.35,1.14-6.51.13-.71.19-1.45.34-2.16.24-1.06.59-2.52.85-3.93.03-.06,1.45-5.94,1.84-7.5.1-.45.45-1.92.48-2.09.08-.48.13-.98.22-1.47.12-.72.27-1.43.41-2.16.15-.86.28-1.74.43-2.61.22-1.23.44-2.46.66-3.7.22-1.2.47-2.41.64-3.62.2-1.37.35-2.74.47-4.11Zm-1.97,2.03c.06-.43.11-.75.16-1.08-.53-.08-.93-.13-1.34-.2-1.44-.26-2.88-.5-4.31-.78-.55-.11-1.06-.39-1.6-.48-.85-.14-1.71-.19-2.57-.27-.16-.02-.34.01-.51.02-.21,0-.42.09-.41.32,0,.12.17.25.28.35.08.07.21.09.31.11.86.19,1.72.37,2.58.57,1.76.41,3.53.71,5.3,1.06.68.13,1.35.24,2.11.38Zm-.31,1.9c.09-.53.17-1.06.26-1.63-3.38-.6-6.66-1.36-10-1.99-.46,1.81-.89,3.54-1.35,5.37.42.02.78.01,1.1.06,1.32.21,2.64.44,3.95.64,1.67.28,3.33.54,4.99.81.43.06.46.03.53-.4.17-.95.34-1.91.52-2.86Zm-1.02,5.1c.09-.4.17-.81.28-1.28-.26-.09-.41-.16-.59-.18-1.13-.2-2.25-.4-3.39-.57-.98-.14-1.95-.26-2.94-.4-.77-.09-1.55-.17-2.31-.26-.21-.03-.42-.1-.64-.13-.32-.04-.64-.11-.96-.12-.68-.03-.8.11-.81.88.33.13.67.31,1.05.41.7.17,1.42.3,2.15.42.97.18,1.96.3,2.92.47,1.73.31,3.43.73,5.24.76Zm-1,5.44c.33-1.71.65-3.33.99-5.07-3.71-.58-7.34-1.24-11.04-1.84-.15,1.86-1.14,3.51-1.45,5.26,1.95.32,3.84.65,5.73.93,1.89.26,3.79.48,5.77.72Zm-.25,1.72c.07-.49.15-.93.22-1.4-.85-.17-1.65-.34-2.45-.45-1-.14-2.01-.21-3.02-.33-.7-.08-1.41-.17-2.11-.27-.98-.17-1.95-.38-2.93-.5-.44-.06-.9,0-1.34.05-.45.05-.75.39-.79.91.78.19,1.52.41,2.28.56,1.23.21,2.47.36,3.7.57,1.04.18,2.07.41,3.14.4.08,0,.16.02.25.05.88.14,1.74.29,2.61.43.13.03.27-.01.44-.02Zm-.36,1.54c.11-.4.2-.76.32-1.2-4.04-.61-7.99-1.2-11.98-1.82-.24.75-.53,1.52-.68,2.36.09,0-.61,2.26-1.12,3.87.26.06.5.1.74.15.35.04.7.06,1.04.12.89.15,1.77.36,2.66.48,1.13.15,2.25.3,3.34.65.53.16,1.06.36,1.59.5.8.21,1.59.39,2.4.58.05.01.12.02.18.02.41-2.3,1.51-5.55,1.51-5.71Zm-1.87,7.43c.09-.37.16-.73.23-1.06-.2-.05-.37-.1-.54-.14-.78-.21-1.55-.41-2.32-.63-.69-.19-1.37-.43-2.07-.63-.64-.17-1.29-.29-1.94-.42-1.03-.23-2.06-.44-3.1-.66-.5-.11-1.01-.17-1.47-.41-.13-.07-.72-.18-.74-.18-.45-.12-.74.11-.98.44-.21.26-.16.57.13.73.15.09.33.14.49.19.02,0,.19.06.26.06h.01s1.85.58,2.78.82c.65.19,1.31.33,1.95.48.3.08.61.17.9.23.51.1,1.01.17,1.51.29.7.15,1.39.35,2.1.49.76.14,1.53.23,2.28.34.18.02.34.05.52.06Zm-.04.2c-.11-.02-.21-.05-.31-.06-.78-.13-1.56-.22-2.34-.37-1.11-.25-2.21-.53-3.32-.79-.13-.04-.25-.09-.38-.15-.77-.13-1.55-.23-2.32-.4-.71-.17-1.41-.43-2.12-.64-.4-.12-.81-.21-1.25-.33-.04.19-.21.69-.37,1.23-.2.64-.4,1.26-.4,1.3-.01.08-.01.17-.04.25-.38,1-.74,2.02-1.23,2.98-.16.32-.44,1.16-.49,1.63.62.09,1.21.15,1.8.28,1.13.26,2.24.59,3.39.86.96.22,1.93.44,2.91.57,1.04.12,2.06.22,3.07.51.6.19,1.25.28,1.96.42.05-.45.11-.83.17-1.3-.02,0,.07-.51.13-.76h.01c.06-.23.12-.37.14-.52.02-.11.03-.23.05-.35.18-.78.38-1.94.55-2.72.09-.38.24-1,.39-1.64Zm-1.91,9.59c.13-.65.25-1.21.38-1.88-.31-.07-.53-.11-.76-.16-.57-.11-1.14-.21-1.72-.32-.63-.12-1.26-.3-1.91-.34-1.2-.07-2.39-.26-3.56-.59-1.21-.33-2.43-.59-3.63-.92-.93-.25-1.84-.23-2.75-.15-.19.63-.16.75.37,1.01.13.05.27.1.41.13.44.12.88.22,1.32.35,1.34.39,2.66.87,4.02,1.19,1.8.44,3.64.76,5.42,1.24.78.22,1.6.3,2.41.44Zm-1.4,7.55c.45-2.45.9-4.88,1.34-7.26-4.81-1.07-9.55-2.06-14.18-3.7.08.24.17.46.29.8-.66-.67-.83-1.58-.52-2.22.18-.36.44-.43.82-.27.07-.11.13-.22.2-.34.21.16-.01.61.48.46-.09-.83.5-1.45.78-2.18.32-.85.69-1.67,1.03-2.5.02-.05.02-.09.03-.13.01-.12,0-.23-.02-.33.01-.01.02-.04.02-.05.06-.07.09-.16.15-.24.14-.44.36-1.14.58-1.82,0-.05.02-.11.02-.17-.13-.04-.24-.06-.35-.1-.38-.14-.55-.43-.52-.83,0-.04.01-.07.02-.12.09-.26.38-.52.67-.61.17-.08.64,0,.64,0,.03,0,.07,0,.1.02.07-.04,1.01-3.93,1.04-3.99.16-.5.3-.99.45-1.47q-.64-.4-.47-.85c.12.18.25.35.46.65.12-.35.19-.54.26-.77-.41-.13-.63-.35-.54-.78.02-.06.04-.13.06-.18.18-.46.57-.57,1.14-.53.47-1.91,1.44-3.67,1.54-5.67-.34-.24-.52-.55-.34-.99.18-.47.73-.82,1.36-.81.42-1.72.85-3.46,1.28-5.2-.12-.11-.22-.19-.31-.28-.34-.34-.35-.67-.01-1.02.13-.13.29-.27.46-.33.24-.07.34-.22.39-.45.16-.72.35-1.42.49-2.15.06-.3-.03-.56-.44-.6-.37.36-.82.69-1.01,1.22-.27.72-.55,1.45-.78,2.19-.35,1.15-.64,2.32-.98,3.48-.34,1.19-.68,2.36-1.03,3.53.01.15.01.28.02.42-.06.09-.13.18-.17.27-.25.98-.51,1.96-.73,2.96-.29,1.34-1.04,2.54-1.26,3.91-.03.11-.08.2-.11.31-.34.93-.68,1.86-1.01,2.8-.08.25-.11.52-.18.86-.03.07-.05.15-.09.21-.01.03-.03.08-.04.11-.01.01-2.11,6.78-2.12,6.8-.01.03-.02.04-.04.06-.13.21-.24.45-.35.68-.44.84-.9,1.67-1.13,2.61-.18.72-.44,1.43-.7,2.12-.07.15-.13.29-.18.45-.37,1.03-.8,2.05-1.16,3.09-.58,1.62-1.12,3.26-1.67,4.89-.48,1.44-.96,2.87-1.44,4.3-.06.2-.11.41-.17.62-.32.95-.62,1.92-.96,2.86-.28.79-.62,1.56-.92,2.34-.2.5-.39,1.01-.54,1.52-.25.89-.46,1.78-.68,2.68-.03.17-.05.35,0,.51.01.02.01.04.02.06.15.42.32.81.49,1.24-.51-.18-.52-.72-.76-1.19-.07.14-.11.24-.14.33-.44,1.13-.89,2.24-1.31,3.37-.6,1.65-1.21,3.28-1.76,4.94-.44,1.31-.85,2.62-1.23,3.95-.18.59-.45,1.12-.68,1.68-.31.77-.5,1.59-.72,2.39-.26.94-.42,1.91-.76,2.83-.29.79-.51,1.6-.76,2.4-.19.6-.4,1.18-.57,1.77-.24.8-.47,1.61-.72,2.41-.2.67-.41,1.35-.65,2.02-.18.47.01.85.34,1.09.49.38.73.41,1.04-.14.1-.18.19-.35.24-.53.34-1.08.68-2.14,1.01-3.21.28-.9.5-1.84.84-2.71.7-1.86,1.45-3.69,2.19-5.53.24-.62.45-1.25.75-1.84.26-.48.39-.95.42-1.48-.17-.06-.32-.11-.45-.17-.49-.22-.7-.62-.62-1.15.06-.41.6-.92,1.1-.95.37-.02.59-.17.7-.48.37-1.05.72-2.12,1.08-3.17.2-.57.42-1.14.63-1.7.01-.02.02-.05.03-.08l.03-.09c.39-.99,1.6-4.03,1.88-4.75-.51-.43-1.28-.56-1.52-1.29.16-.61.56-.79,1.13-.76.39.02.77.03,1.2.06.24-.53.46-1.05.53-1.64.11-.84.14-1.7.5-2.52.38-.86.65-1.77.95-2.67.34-1.04.64-2.09,1.02-3.14.11-.31.14-.71.49-.9-.22-.12-.46-.21-.67-.35-.27-.16-.59-.31-.6-.7,0-.42.28-.67.61-.85.14-.08.32-.17.48-.16.49.02.71-.24.83-.65.07-.25.16-.49.25-.73.24-.71.42-1.46.75-2.14.47-.98.72-2.03,1.08-3.05.07-.19.19-.41-.06-.57-.03-.01,0-.09,0-.13.14-.09.28-.18.47-.3-.02.5-.25.92-.04,1.36.02.02-.02.08-.04.12-.52,1.4-1.03,2.79-1.55,4.18-.03.11-.06.22-.13.3-.39.38-.4.92-.63,1.41.24.06.43.15.61.14.69-.06,1.34.12,1.97.3.45.13.89.32,1.35.39,1.27.21,2.54.32,3.78.56,1.08.21,2.13.57,3.2.83,1.1.27,2.21.53,3.41.8Zm-.5,1.74c.13-.53.24-.96.36-1.42-.28-.11-.5-.22-.72-.27-1.45-.36-2.9-.67-4.34-1.04-1.16-.28-2.33-.3-3.51-.42-.49-.05-1-.09-1.47-.21-.72-.19-1.42-.5-2.16-.64-1.23-.23-2.48-.33-3.73.14-.1.42.09.68.41.83.63.28,1.25.61,1.91.79,1.04.27,2.11.44,3.17.64.63.12,1.27.23,1.91.34,1.08.19,2.17.39,3.25.56,1.22.19,2.43.37,3.65.54.41.06.83.1,1.27.16Zm-2.88,12.34c1.13-4.02,1.52-8.13,2.79-12.1-1.52-.23-2.97-.46-4.42-.68-.95-.16-1.92-.3-2.87-.48-1.45-.25-2.89-.54-4.34-.81-.82-.15-1.67-.23-2.42-.64-.12-.07-.28-.08-.41-.13-.03.15-.04.29-.1.42-.68,1.87-1.41,3.71-1.88,5.65-.05.17-.14.32-.18.48-.16.52-.35,1.02-.46,1.55-.18.89-.15,1.81-.54,2.66-.01.02.03.07.06.13.13.04.27.11.41.13,1.31.16,2.55.62,3.88.7,1.37.09,2.74.29,4.08.67.79.23,1.59.41,2.36.7.92.35,1.81.82,2.72,1.21.44.2.9.37,1.32.54Zm-.41,2.07c.17-.6.45-1.14.43-1.69-.95-.26-1.81-.51-2.68-.74-1.21-.33-2.41-.65-3.62-.97-.44-.12-.9-.2-1.3-.39-.69-.37-1.4-.5-2.17-.52-.4-.01-.82-.06-1.22-.14-1.59-.37-3.17-.77-4.77-1.11-.48-.11-1.02-.14-1.51.1.07.44.36.66.66.81.56.31,1.14.6,1.74.81.56.2,1.16.3,1.76.39,1.63.24,3.16.87,4.69,1.42,1.75.62,3.52,1.15,5.35,1.46.38.07.76.15,1.13.24.49.1.97.21,1.51.33Zm-.51,2.71c.19-.79.29-1.6.43-2.46-.83-.2-1.64-.42-2.46-.6-.54-.13-1.09-.2-1.64-.32-1.76-.37-3.43-1.05-5.13-1.62-1.04-.34-2.08-.7-3.16-.92-.95-.19-1.89-.34-2.89-.71-.14.28-.59,1.38-1.04,2.47-.46,1.09-.91,2.18-1.05,2.46-.57,1.75-1.15,3.51-1.74,5.3.49.12.93.25,1.37.35.45.1.92.15,1.38.26,1.17.29,2.33.64,3.51.88,1.5.31,2.99.62,4.43,1.18.7.27,1.38.57,2.09.82,1.04.35,2.1.67,3.15,1,.13.04.28.05.47.1.08-.21.14-.39.2-.56.36-1.34.72-2.67,1.08-4.01.35-1.21.71-2.4,1-3.62Z"/>
      <path class="cls-1" d="m87.09,23.9c.19.77.01,1.55-.06,2.32-.12,1.37-.27,2.74-.47,4.11-.17,1.21-.42,2.42-.64,3.62-.22,1.24-.44,2.47-.66,3.7-.15.87-.28,1.75-.43,2.61-.14.73-.29,1.44-.41,2.16-.09.49-.14.99-.22,1.47-.03.17-.38,1.64-.48,2.09-.39,1.56-1.81,7.44-1.84,7.5-.26,1.41-.61,2.87-.85,3.93-.15.71-.21,1.45-.34,2.16-.4,2.16-.78,4.34-1.14,6.51-.35,2.07-.69,4.16-1.27,6.2-.48,1.61-.94,3.23-1.32,4.87-.33,1.38-.53,2.8-.8,4.19-.18.89-.31,1.8-.61,2.64-.45,1.31-.55,2.67-.81,4-.13.63-.23,1.27-.34,1.9-.01.09-.01.18-.02.27-.16.68-.32,1.35-.48,2.03-.23.97-.47,1.96-.67,2.95-.06.26-.07.53-.07.8-.01.04-.17.63-.18.68-.14.77-.26,1.04-.39,1.81-.06.36-.02.67-.13,1.03-.08.24-.15.5-.2.75-.05.33-.02.67-.11.97-.38,1.35-.61,2.74-.89,4.1-.17.9-.32,1.78-.54,2.67-.03.08-.05.15-.08.22-.25.66-.52,1.32-.78,1.98-.24.58-.47,1.16-.72,1.73-.35.79-.82.98-1.47.59-.22-.12-.43-.27-.65-.41-.31-.19-.34-.46-.29-.79.25-1.32.63-2.59,1.08-3.85.11-.31.19-.63.27-.94.4-1.4.8-2.82,1.2-4.22.1-.33.14-.68.22-1.01.13-.53.27-1.04.39-1.57.09-.37.15-.76.22-1.14.26-1.32.6-2.6,1.03-3.87.29-.84.44-1.71.66-2.57.25-.93.49-1.86.77-2.8.15-.49.43-.94.58-1.43.2-.61.41-1.23.5-1.86.13-.96.35-1.9.6-2.84.27-1.04.43-2.11.61-3.17.15-.85.24-1.69.48-2.52.21-.81.29-1.65.52-2.46.4-1.44.88-2.85,1.29-4.28.32-1.12.63-2.24.74-3.41.14-1.51.34-3,.6-4.48.25-1.36.63-2.69.89-4.05.26-1.26.45-2.54.66-3.82.09-.63.48-2,.54-2.19h.05c.02-.05.03-.11.03-.18.02-.08.03-.18.04-.28.54-2.16,1.99-8.29,1.99-8.38.04-.23.04-.45.11-.65.5-1.46.63-2.98.94-4.49.31-1.49.58-3,.83-4.51.18-1.02.28-2.05.45-3.07.16-1,.39-1.98.54-2.98.1-.64.1-1.29.15-1.92.01-.2.06-.39.1-.57.15-.55.3-1.09.46-1.63.05-.16.11-.34.22-.46.09-.08.29-.15.41-.11.09.03.15.22.19.35Z"/>
      <path class="cls-1" d="m84.01,33.97c-.11.47-.19.88-.28,1.28-1.81-.03-3.51-.45-5.24-.76-.96-.17-1.95-.29-2.92-.47-.73-.12-1.45-.25-2.15-.42-.38-.1-.72-.28-1.05-.41.01-.77.13-.91.81-.88.32.01.64.08.96.12.22.03.43.1.64.13.76.09,1.54.17,2.31.26.99.14,1.96.26,2.94.4,1.14.17,2.26.37,3.39.57.18.02.33.09.59.18Z"/>
      <path class="cls-1" d="m82.7,41.01c-.07.47-.15.91-.22,1.4-.17,0-.31.05-.44.02-.87-.14-1.73-.29-2.61-.43-.09-.03-.17-.05-.25-.05-1.07,0-2.1-.22-3.14-.4-1.23-.21-2.47-.36-3.7-.57-.76-.15-1.5-.37-2.28-.56.04-.52.34-.86.79-.91.44-.06.9-.11,1.34-.05.98.12,1.95.33,2.93.5.7.1,1.41.19,2.11.27,1.01.12,2.02.19,3.02.33.8.11,1.6.28,2.45.45Z"/>
      <path class="cls-1" d="m80.48,50.32c-.07.33-.14.69-.23,1.06-.18-.01-.34-.04-.52-.06-.75-.11-1.52-.2-2.28-.34-.71-.14-1.4-.34-2.1-.49-.5-.12-1-.19-1.51-.29-.29-.06-.6-.15-.9-.23-.64-.15-1.3-.29-1.95-.48-.93-.24-2.78-.81-2.78-.82h-.01c-.07,0-.24-.05-.26-.06-.16-.05-.34-.1-.49-.19-.29-.16-.34-.47-.13-.73.24-.33.53-.56.98-.44.02,0,.61.11.74.18.46.24.97.3,1.47.41,1.04.22,2.07.43,3.1.66.65.13,1.3.25,1.94.42.7.2,1.38.44,2.07.63.77.22,1.54.42,2.32.63.17.04.34.09.54.14Z"/>
      <path class="cls-1" d="m78.68,59.29c-.13.67-.25,1.23-.38,1.88-.81-.14-1.63-.22-2.41-.44-1.78-.48-3.62-.8-5.42-1.24-1.36-.32-2.68-.8-4.02-1.19-.44-.13-.88-.23-1.32-.35-.14-.03-.28-.08-.41-.13-.53-.26-.56-.38-.37-1.01.91-.08,1.82-.1,2.75.15,1.2.33,2.42.59,3.63.92,1.17.33,2.36.52,3.56.59.65.04,1.28.22,1.91.34.58.11,1.15.21,1.72.32.23.05.45.09.76.16Z"/>
      <path class="cls-1" d="m76.76,69.04c-.12.46-.23.89-.36,1.42-.44-.06-.86-.1-1.27-.16-1.22-.17-2.43-.35-3.65-.54-1.08-.17-2.17-.37-3.25-.56-.64-.11-1.28-.22-1.91-.34-1.06-.2-2.13-.37-3.17-.64-.66-.18-1.28-.51-1.91-.79-.32-.15-.51-.41-.41-.83,1.25-.47,2.5-.37,3.73-.14.74.14,1.44.45,2.16.64.47.12.98.16,1.47.21,1.18.12,2.35.14,3.51.42,1.44.37,2.89.68,4.34,1.04.22.05.44.16.72.27Z"/>
      <path class="cls-1" d="m73.54,83.18c.02.55-.26,1.09-.43,1.69-.54-.12-1.02-.23-1.51-.33-.37-.09-.75-.17-1.13-.24-1.83-.31-3.6-.84-5.35-1.46-1.53-.55-3.06-1.18-4.69-1.42-.6-.09-1.2-.19-1.76-.39-.6-.21-1.18-.5-1.74-.81-.3-.15-.59-.37-.66-.81.49-.24,1.03-.21,1.51-.1,1.6.34,3.18.74,4.77,1.11.4.08.82.13,1.22.14.77.02,1.48.15,2.17.52.4.19.86.27,1.3.39,1.21.32,2.41.64,3.62.97.87.23,1.73.48,2.68.74Z"/>
      <path class="cls-1" d="m70,96.63c-.11.45-.22.88-.35,1.38-.31-.05-.59-.09-.88-.16-1-.21-2.03-.41-3.02-.66-.95-.25-1.86-.59-2.79-.85-.65-.2-1.32-.36-1.96-.51h-.03c-.39-.13-.79-.27-1.18-.39-.86-.28-1.72-.53-2.58-.83-1.34-.47-2.68-.96-4.01-1.46-.22-.08-.45-.16-.65-.29-.36-.24-.4-.67-.11-1.01.38-.43.81-.71,1.41-.49.31.12.66.14.93.3.6.36,1.28.51,1.94.69,1.37.4,2.74.77,4.11,1.16.85.24,1.7.47,2.55.75.91.32,1.8.7,2.71,1.03,1.02.38,2.04.71,3.06,1.06.26.08.52.17.85.28Z"/>
    </g>
  </g>
</svg>