<?xml version="1.0" encoding="UTF-8"?>
<svg xmlns="http://www.w3.org/2000/svg" viewBox="0 0 136.06 136.06">
  <defs>
    <style>
      .cls-1 {
        fill: #fff;
      }

      .cls-2 {
        fill: #f2d06c;
      }

      .cls-3 {
        fill: #0c3454;
      }

      .cls-4 {
        fill: #b3c3de;
      }

      .cls-5 {
        fill: #a7483f;
        opacity: .8;
      }

      .cls-6 {
        fill: #d9c6b8;
      }
    </style>
  </defs>
  <g id="poni_01">
    <rect class="cls-4" x="14.17" y="12.76" width="107.72" height="110.55" fill="none" stroke="#0c3454" stroke-width="0.25"/>
  </g>
  <g id="Layer_1" data-name="Layer 1">
    <path class="cls-3" d="m121.85,112.39c-2.53-.03-5.06-.1-7.57-.3-4.93-.39-9.86-1.28-14.31-3.31-4.46-1.99-8.21-5.26-12.23-8.28-12.06-9.65-29.74-11.38-43.46-4.09-6.74,3.54-12.24,8.5-19.14,11.39-3.62,1.5-7.38,2.76-11.22,3.56.06,1.02.13,2.03.22,3.05,6.71-1.32,13.18-4.03,18.9-7.62,4.27-2.74,8.2-5.78,12.46-8.1,12.8-6.99,29.57-5.66,41.22,3.2,4.01,2.86,7.95,6.15,12.7,8.13,7.16,2.93,14.81,3.16,22.41,2.96,0-.2.02-.4.02-.6Z"/>
    <path class="cls-3" d="m80.84,13.14c.04.07.09.14.14.21-.26.1-.27.09-.3-.21.05,0,.11,0,.16,0Z"/>
    <path class="cls-3" d="m74.29,88.66c-.15,1.11-.47,2.14-.77,3.17-.04.14-.1.27-.14.41-.14.5-.29,1-.42,1.5-.16.6-.32,1.21-.46,1.82-.05.21-.04.44.16.58.37.28.78.46,1.26.43.32-.02.41-.1.51-.4.15-.44.33-.87.5-1.3.19-.51.47-1,.36-1.58-.03.1-.07.2-.11.3-.16.41-.32.82-.48,1.22-.14.36-.29.72-.45,1.07-.22.49-.5.6-.91.37-.14-.08-.27-.17-.4-.26-.19-.12-.21-.28-.17-.49.15-.81.39-1.6.67-2.38.07-.19.11-.38.16-.57.25-.87.5-1.74.74-2.61.06-.2.09-.42.14-.62.08-.32.17-.64.24-.97.05-.23.09-.47.13-.7.15-.81.36-1.61.63-2.39.18-.51.27-1.05.41-1.58.15-.58.3-1.16.47-1.73.09-.3.26-.58.36-.89.12-.38.25-.76.3-1.15.08-.59.21-1.17.37-1.75.17-.64.27-1.3.38-1.96.09-.52.15-1.04.29-1.56.14-.5.19-1.02.32-1.52.25-.89.54-1.76.8-2.64.2-.69.39-1.38.46-2.11.09-.92.21-1.85.37-2.76.15-.84.38-1.66.55-2.5.16-.78.28-1.57.4-2.36.07-.42.12-.84.35-1.27.16.04.33.06.48.13.38.16.41.27.3.68-.17.65-.29,1.32-.44,1.98-.1.44-.21.88-.29,1.32-.24,1.34-.48,2.67-.7,4.01-.22,1.29-.42,2.57-.79,3.83-.29,1-.57,2-.81,3.01-.2.85-.33,1.72-.5,2.59-.11.55-.19,1.11-.37,1.64-.28.8-.34,1.64-.51,2.46-.08.39-.14.79-.2,1.18-.02.11-.02.23-.03.34.11-.44.23-.88.32-1.33.11-.56.15-1.14.29-1.69.33-1.25.61-2.51.83-3.79.08-.49.17-.97.3-1.45.42-1.51.91-3.01,1.19-4.56.12-.63.25-1.26.35-1.89.18-1.05.35-2.1.53-3.15.06-.35.13-.71.21-1.06.07-.36.15-.73.23-1.09.03-.13.08-.26.25-.27.24,0,.47,0,.71-.01.16,0,.34.02.47-.05.79-.37,1.56-.78,1.81-1.73.04-.14.12-.27.17-.4.24-.56.48-1.1.56-1.73.12-.95-.08-1.8-.47-2.63-.25-.53-.61-.97-1.16-1.23-.15-.07-.29-.17-.43-.25.06-.3.11-.56.15-.83.19-1.17.38-2.34.58-3.51.23-1.34.48-2.68.7-4.02.14-.87.24-1.74.35-2.61.06-.48.11-.97.17-1.48.29.03.56.04.82.08,1.18.19,2.36.15,3.53-.08.56-.11,1.13-.21,1.68-.34.51-.12,1.11-.48,1.13-1.04,0-.36-.09-.68-.31-.96-.39-.5-.69-.55-1.24-.2-.05.03-.11.07-.18.11-.21-.41-.49-.66-.96-.58-.4.07-.76.21-1,.59-.23-.3-.35-.66-.81-.6-.35.05-.67.15-.94.43-.23-.47-.63-.48-1.04-.44-.41.04-.78.16-.97.61-.11-.12-.17-.21-.25-.28-.47-.41-1.06-.42-1.53-.01-.12.1-.22.23-.31.36-.57.78-.3,1.63.61,1.94.2.07.4.12.62.19-.1.5-.2.99-.31,1.51-.29-.04-.56-.06-.82-.11-.98-.18-1.96-.37-2.95-.55-.42-.08-.84-.14-1.26-.2-.31-.04-.62-.06-.98-.1.05-.25.1-.47.15-.67.68.07,1.3,0,1.84-.38.26-.18.6-.31.68-.64.08-.32.11-.66.07-.98-.06-.55-.67-.84-1.14-.71-.11.03-.22.08-.35.12-.08-.11-.15-.23-.24-.32-.33-.33-.88-.34-1.33-.03-.2.14-.39.31-.6.48-.05-.06-.08-.1-.11-.15-.27-.38-.88-.48-1.26-.22-.23.16-.48.3-.68.5-.5.48-.56,1.47.26,1.89.44.22.87.41,1.41.42-.11.3-.23.57-.3.85-.32,1.25-.64,2.5-.95,3.76-.12.5-.21,1.02-.34,1.52-.24.9-.51,1.79-.76,2.68-.09.31-.14.62-.24.93-.08.24-.22.46-.3.7-.18.56-.33,1.12-.5,1.68-.03.1-.11.22-.2.27-.35.18-.66.4-.9.74-.12-.13-.21-.24-.31-.34-.25-.24-.48-.52-.77-.7-.76-.47-1.58-.33-2.35-.06-.46.16-.92.38-1.26.8-.32.39-.61.76-.71,1.27-.12.59-.21,1.19-.15,1.79.06.6.25,1.17.71,1.61.4.39.85.67,1.35.91.67.32,1.32.69,2.08.93-.11.3-.2.59-.31.87-.06.15-.14.29-.2.44-.26.76-.52,1.51-.77,2.27-.1.29-.17.59-.29.87-.11.25-.28.48-.38.74-.24.58-.45,1.16-.67,1.74-.19.51-.38,1.02-.58,1.53-.05.12-.1.24-.15.37-.29.8-.58,1.6-.87,2.4-.23.64-.53,1.26-.69,1.91-.23.91-.55,1.78-.87,2.65-.36.97-.81,1.91-1.1,2.91-.23.8-.55,1.58-.81,2.38-.24.75-.44,1.5-.67,2.25-.24.82-.49,1.63-.74,2.45-.17.56-.89,2.64-1.01,3-.2.63-.39,1.27-.59,1.91-.19.58-.38,1.16-.59,1.73-.14.37.02.64.3.82.22.15.5.26.77.31.22.04.5.02.63-.24.12-.25.23-.5.31-.77.15-.52.25-1.06.4-1.58.21-.71.34-1.45.72-2.11.04-.07.05-.15.07-.23.16-.54.6-1.76.57-1.75.15-.38.27-.68.38-.99.08-.22.12-.46.2-.69.09-.26.21-.51.31-.77.06-.15.11-.3.16-.45.03-.1.06-.2.1-.35.38.12.73.23,1.07.36.57.21,1.13.47,1.72.65.62.19,1.26.31,1.9.47-.25-.08-.49-.17-.74-.25-.53-.17-1.07-.32-1.59-.5-.83-.29-1.65-.6-2.48-.9-.14-.05-.28-.1-.4-.18-.23-.15-.25-.41-.07-.62.23-.27.5-.44.87-.3.19.07.4.08.57.18.37.23.79.31,1.2.43.84.24,1.69.47,2.54.71.53.15,1.05.29,1.57.47.57.19,1.11.43,1.68.64.63.23,1.26.43,1.89.65.16.06.33.11.53.18-.07.28-.14.54-.22.85-.19-.03-.36-.06-.54-.1-.62-.13-1.25-.25-1.87-.41-.58-.15-1.14-.36-1.72-.53-.41-.12-.82-.21-1.23-.32.11.05.21.12.32.15.9.28,1.8.58,2.71.84.63.18,1.27.29,1.91.44.13.03.25.07.4.12-.06.27-.11.52-.16.8l-.11.35Zm5.42-45.96c.34.06.65.22.99.29.89.18,1.78.33,2.67.48.25.04.5.08.82.12-.03.2-.06.41-.1.66-.47-.08-.88-.15-1.3-.23-1.09-.21-2.19-.4-3.28-.65-.53-.12-1.06-.24-1.59-.35-.06-.01-.14-.02-.19-.06-.07-.06-.18-.14-.18-.22,0-.14.12-.19.25-.2.11,0,.21-.02.32-.01.53.05,1.06.08,1.58.17Zm2.51,10.32c-.54-.09-1.07-.18-1.61-.27-.05,0-.11-.02-.16-.02-.66,0-1.29-.14-1.93-.25-.76-.13-1.53-.22-2.28-.36-.47-.08-.93-.22-1.41-.34.02-.32.21-.53.49-.56.27-.03.56-.06.83-.03.61.08,1.21.21,1.81.3.43.07.87.12,1.3.17.62.07,1.24.11,1.86.2.5.07.99.18,1.51.28-.05.29-.09.56-.14.87-.1,0-.19.03-.27.02Zm.25.2c-.07.27-.13.5-.2.74-.61-.07-1.1.23-1.6.46-.08.04-.17.09-.26.11-.64.11-1.22.36-1.75.81-.1-.15-.18-.29-.27-.41-.27-.33-.51-.69-.82-.99-.34-.34-.8-.5-1.27-.5-.48,0-.96.06-1.43.09-.05,0-.1,0-.21,0,.09-.52.27-1,.42-1.45,2.46.37,4.9.74,7.4,1.12Zm-3.39-1.73c-1.17-.17-2.33-.37-3.53-.57.19-1.08.8-2.1.89-3.25,2.29.37,4.52.78,6.81,1.14-.21,1.07-.41,2.07-.61,3.13-1.22-.15-2.39-.28-3.56-.45Zm.95-3.37c-.6-.11-1.21-.19-1.81-.29-.44-.08-.89-.16-1.33-.26-.23-.06-.44-.17-.64-.25,0-.48.09-.56.5-.54.2,0,.4.05.59.08.13.02.26.06.39.08.48.06.95.11,1.43.17.61.08,1.21.15,1.82.25.7.11,1.4.23,2.09.35.1.02.2.06.36.11-.06.3-.12.55-.17.8-1.12-.03-2.17-.28-3.23-.47Zm3.21-.67c-1.02-.16-2.05-.33-3.07-.49-.81-.13-1.62-.27-2.44-.4-.21-.03-.42-.03-.69-.04.28-1.13.55-2.2.84-3.32,2.06.4,4.09.86,6.18,1.24-.06.35-.11.68-.17,1-.1.59-.22,1.18-.32,1.77-.05.27-.06.29-.33.25Zm-6.58-6.06c-.58-.05-1.09-.26-1.47-.7-.32-.37-.31-.92.04-1.27.23-.23.51-.43.8-.59.36-.21.82-.02,1.05.37.05.08.09.17.17.32.22-.44.53-.71.92-.87.49-.21.96.03,1.04.51.01.09.03.18.04.27.03.03.06.06.1.08.02-.06.03-.13.06-.19.17-.31.46-.34.76-.29.33.05.5.3.56.6.11.51,0,.92-.46,1.26-.58.43-1.2.59-1.94.46.03-.14.04-.26.07-.37.02-.06.06-.12.08-.18.08-.29,0-.64-.17-.74-.21-.12-.7.02-.86.26-.17.27-.33.55-.46.84-.07.16-.16.24-.33.22Zm-2.96,11.86c.2-.58.41-1.16.62-1.73.02-.06.06-.12.07-.19.14-.85.6-1.59.78-2.42.13-.61.3-1.22.45-1.82.02-.06.06-.11.1-.17,0-.09,0-.17,0-.26.21-.73.43-1.45.64-2.18.21-.72.39-1.44.61-2.15.14-.46.31-.9.48-1.35.12-.33.4-.53.62-.75.25.03.31.19.27.38-.09.44-.21.88-.3,1.32-.03.15-.09.23-.24.28-.11.03-.2.12-.28.21-.21.22-.2.41,0,.63.05.06.12.1.19.17-.27,1.08-.53,2.15-.79,3.21-.39,0-.72.21-.84.5-.11.27,0,.46.21.61-.07,1.24-.66,2.32-.95,3.5-.39-.03-.65.07-.74.44-.06.27.08.4.34.48-.05.15-.09.26-.16.47-.13-.18-.21-.29-.29-.4q-.1.28.29.52c-.09.3-.17.6-.28.9-.02.06-.09.13-.16.15-.22.07-.45.12-.74.2.05-.23.06-.4.12-.55Zm3,25.97c-.33-.07-.63-.14-.92-.2-.23-.05-.47-.11-.7-.15-1.13-.19-2.22-.52-3.3-.9-.95-.34-1.89-.73-2.89-.88-.37-.06-.74-.12-1.09-.23-.37-.13-.73-.31-1.07-.5-.18-.1-.36-.23-.41-.5.31-.15.64-.13.94-.06.99.21,1.96.46,2.95.69.24.06.5.08.75.08.47.01.91.1,1.34.32.24.13.53.17.8.24.74.2,1.49.39,2.23.6.54.14,1.07.3,1.66.46,0,.34-.16.67-.27,1.05Zm.26-1.28c-.27-.11-.55-.21-.82-.33-.56-.25-1.11-.53-1.68-.75-.47-.18-.97-.29-1.46-.43-.82-.24-1.67-.36-2.52-.41-.82-.05-1.59-.33-2.39-.44-.09-.01-.18-.05-.26-.08-.02-.04-.04-.07-.03-.08.24-.52.22-1.09.33-1.64.06-.32.18-.64.28-.95.03-.1.08-.2.11-.3.29-1.19.75-2.33,1.17-3.48.03-.08.04-.17.06-.26.09.02.18.03.26.07.47.25.99.3,1.5.4.89.16,1.78.34,2.67.5.59.11,1.18.19,1.78.29.89.14,1.79.28,2.73.42-.79,2.45-1.02,4.99-1.72,7.47Zm1.77-7.62c-.27-.03-.53-.06-.78-.1-.75-.11-1.5-.21-2.25-.33-.67-.11-1.34-.23-2.01-.34-.39-.07-.79-.14-1.18-.21-.65-.13-1.31-.23-1.96-.4-.41-.11-.79-.31-1.18-.49-.2-.09-.31-.25-.26-.51.77-.29,1.55-.23,2.31-.09.45.09.88.28,1.33.39.29.07.6.1.91.13.72.07,1.45.09,2.17.26.89.22,1.78.42,2.67.63.14.03.27.1.45.17-.07.29-.14.55-.22.87Zm.31-1.07c-.74-.17-1.42-.33-2.11-.5-.66-.17-1.31-.39-1.97-.52-.77-.15-1.56-.22-2.33-.34-.28-.05-.56-.16-.83-.24-.4-.12-.8-.22-1.22-.19-.11,0-.23-.05-.38-.08.14-.31.14-.64.39-.88.04-.04.06-.12.08-.18.32-.86.64-1.72.96-2.59,0-.02.03-.06.02-.07-.14-.27,0-.53.02-.83-.12.07-.2.13-.29.18,0,.03-.02.07,0,.08.16.1.09.24.04.36-.22.63-.38,1.27-.67,1.88-.2.42-.31.88-.46,1.32-.05.15-.1.3-.15.46-.08.25-.21.42-.51.4-.1,0-.21.05-.3.1-.2.12-.38.27-.37.53,0,.24.2.33.37.43.13.08.28.14.42.22-.22.12-.24.36-.31.56-.22.64-.41,1.29-.63,1.93-.18.55-.35,1.11-.58,1.65-.22.5-.24,1.03-.31,1.56-.04.36-.18.68-.33,1-.26-.01-.5-.02-.74-.03-.35-.02-.6.1-.7.47.14.46.62.54.93.8-.18.47-.35.94-.53,1.4.06-.09.12-.18.17-.28.17-.34.33-.69.5-1.04.61.22,1.2.32,1.79.44.66.13,1.31.36,1.95.57,1.05.35,2.07.77,3.16,1,.34.07.68.11,1.02.19.5.11,1,.25,1.52.37-.09.53-.15,1.03-.26,1.52-.18.75-.41,1.49-.61,2.24-.23.82-.45,1.65-.67,2.47-.03.11-.08.22-.12.35-.12-.02-.21-.03-.29-.06-.65-.2-1.3-.4-1.94-.62-.44-.15-.86-.34-1.3-.51-.88-.35-1.81-.53-2.73-.72-.73-.15-1.44-.37-2.17-.54-.28-.07-.57-.1-.85-.16-.27-.06-.54-.14-.84-.22.38-1.16.76-2.3,1.13-3.44-.02,0-.04-.02-.07-.02-.14.38-.29.76-.42,1.15-.23.65-.44,1.31-.67,1.96-.07.19-.2.28-.43.3-.31.02-.64.33-.68.58-.05.33.08.58.38.71.08.04.17.06.28.1-.02.33-.1.62-.26.91-.19.36-.32.75-.47,1.13-.45,1.14-.92,2.27-1.35,3.41-.21.55-.34,1.12-.52,1.68-.2.66-.41,1.32-.63,1.98-.04.11-.09.22-.15.33-.19.34-.34.33-.64.09-.2-.15-.32-.38-.21-.67.15-.41.28-.83.41-1.25.15-.49.29-.99.44-1.48.11-.37.24-.73.35-1.1.16-.49.29-.99.47-1.48.21-.57.31-1.17.47-1.75.14-.5.26-1,.45-1.48.14-.34.31-.67.42-1.03.24-.82.49-1.63.76-2.44.35-1.02.71-2.03,1.09-3.04.26-.7.54-1.39.81-2.09.02-.06.05-.11.09-.2.15.29.16.62.47.73-.11-.27-.22-.53-.31-.8-.03-.09-.02-.21,0-.31.13-.55.26-1.11.42-1.65.09-.32.21-.63.33-.94.19-.48.4-.96.57-1.44.21-.59.39-1.18.59-1.77.04-.13.07-.26.11-.38.29-.88.59-1.77.89-2.65.34-1.01.67-2.02,1.02-3.02.23-.64.49-1.27.72-1.91.19-.52.41-1.05.54-1.59.14-.58.42-1.09.69-1.61.07-.14.14-.29.22-.42.14-.22.34-.29.55-.2.24.1.35.29.32.54,0,.03,0,.05-.02.08-.21.52-.44,1.03-.64,1.55-.17.45-.53.83-.48,1.35-.31.08-.17-.19-.3-.28-.04.07-.08.14-.13.21-.23-.1-.39-.05-.5.17-.2.4-.08.96.32,1.37-.08-.21-.13-.35-.18-.5,2.85,1.01,5.78,1.63,8.75,2.28-.27,1.48-.55,2.97-.83,4.49Zm.87-4.66c-.5-.09-1.01-.14-1.49-.27-1.11-.3-2.23-.5-3.35-.77-.84-.2-1.66-.49-2.48-.74-.27-.08-.54-.14-.81-.21-.09-.02-.18-.05-.26-.09-.32-.15-.35-.22-.22-.62.56-.05,1.13-.06,1.69.1.74.2,1.5.36,2.24.57.72.2,1.45.31,2.2.36.4.03.78.14,1.18.21.35.07.71.13,1.06.2.14.03.28.06.46.1-.08.41-.15.76-.23,1.17Zm.29-1.42c-.44-.09-.84-.14-1.21-.26-.62-.18-1.25-.24-1.89-.32-.61-.08-1.21-.21-1.8-.35-.7-.16-1.39-.36-2.09-.53-.36-.08-.72-.12-1.11-.18.04-.32.07-.36.32-.33.18.03.36.09.55.12.75.16,1.51.33,2.27.48.29.06.58.07.87.11.63.09,1.26.2,1.9.27.29.04.59,0,.88.03.46.04.92.1,1.44.15-.04.28-.07.52-.11.8Zm4.25-7.98c.35.17.57.43.69.77.17.49.38.98.45,1.49.05.35-.05.74-.14,1.1-.09.39-.24.76-.35,1.15-.19.68-.61,1.22-1.09,1.7-.41.41-.92.68-1.54.66-.21,0-.39-.05-.58-.26.12-.49.24-1.03.4-1.54.06-.19.05-.34-.07-.48-.24-.31-.57-.43-.96-.38-.29.04-.53.38-.59.78-.07.47-.14.95-.21,1.42-.01.09-.05.18-.09.31-.41,0-.82,0-1.23,0-.2,0-.4.02-.6.03-.15,0-.29.01-.44,0-.37-.03-.74-.07-1.1-.12-.49-.06-.97-.14-1.46-.21s-.97-.14-1.46-.22c-.1-.02-.2-.06-.31-.08-.29-.08-.58-.16-.88-.24-.12-.03-.23-.06-.34-.1-.27-.1-.3-.15-.17-.41.31-.59.52-1.22.76-1.84.15-.38-.09-.88-.63-.86-.26.01-.42.14-.53.36-.17.33-.36.66-.51,1-.12.28-.21.57-.3.86-.03.1-.05.21-.09.31-.09.21-.17.26-.37.17-.59-.27-1.18-.55-1.77-.82-.08-.04-.16-.09-.25-.12-.31-.1-.57-.28-.76-.55-.08-.11-.17-.21-.26-.31-.67-.72-.69-1.6-.54-2.47.07-.39.34-.75.55-1.1.18-.29.39-.58.63-.82.42-.42.98-.59,1.53-.73.3-.08.63-.03.93.1.51.23.94.55,1.29.99.08.1.12.23.19.39.07-.09.13-.15.17-.22.26-.4.61-.68,1.08-.85.93-.33,1.9-.42,2.87-.4.45,0,.87.18,1.16.55.38.47.75.96,1.14,1.46.44-.66,1.21-.78,1.9-1.03.08-.03.18-.03.27-.04.28-.02.55-.04.8-.19.22-.13.45-.14.7-.08.21.05.42.08.63.12.08.02.16.03.23.07.41.24.8.51,1.23.72Zm.85-12.17c-.07.85-.17,1.7-.29,2.54-.11.75-.26,1.49-.39,2.24-.14.76-.27,1.52-.41,2.28-.09.54-.18,1.08-.27,1.61-.08.45-.17.89-.25,1.33-.05.3-.08.61-.13.91-.02.1-.07.19-.11.31-.29-.1-.55-.19-.82-.28.02-.14.03-.28.07-.4.31-.9.39-1.84.58-2.77.19-.93.36-1.86.52-2.79.11-.63.17-1.26.27-1.89.1-.62.24-1.23.33-1.84.06-.39.06-.79.09-1.19.01-.12.03-.24.06-.35.09-.34.18-.67.28-1,.03-.1.07-.21.14-.28.06-.06.18-.09.25-.07.06.02.1.14.12.22.12.48,0,.96-.04,1.43Zm6.99-1.94c-.4.35-.91.35-1.39.45-.66.15-1.33.26-2,.37-.3.05-.61.07-.91.06-.77-.02-1.54-.1-2.29-.26-.02,0-.04-.03-.06-.04-.01-.2,0-.4-.03-.59-.04-.26-.26-.47-.46-.48-.23-.01-.45.17-.54.45-.03.1-.06.21-.09.31-.01.04-.04.07-.08.12-.34-.05-.69-.09-.97-.35-.38-.35-.49-.76-.24-1.21.13-.23.3-.45.5-.61.41-.33.85-.28,1.26.12.15.14.25.33.4.54.03-.09.08-.17.1-.26.05-.34.25-.53.57-.57.25-.04.51-.07.75-.02.14.03.26.21.36.34.07.1.1.23.18.44.08-.19.11-.3.16-.4.22-.47.95-.55,1.23-.14.03.04.03.1.04.15h0c.09.11.18.24.29.4.08-.13.15-.23.21-.34.2-.31.78-.56,1.12-.45.14.04.27.17.36.29.09.12.11.29.19.5.09-.09.17-.16.25-.24.41-.44.88-.4,1.18.11.12.2.2.44.23.68.04.26-.1.48-.31.66Z"/>
    <path class="cls-3" d="m59.68,114.49c-.13.68.2,1.09.68,1.45.34.25.67.52,1.01.78.23.17.4.39.52.65.12.25.08.3-.16.43-.32.17-.64.14-.91-.06-.4-.29-.88-.36-1.32-.56-.07-.03-.16-.05-.22-.09-.42-.27-.84-.23-1.26-.03-.37.18-.73.39-1.09.57-.47.24-.94.53-1.44.69-.64.21-1.31.35-2,.21-.06-.01-.12-.05-.17-.07-.1-.3-.04-.52.21-.71.44-.34.71-.82,1.01-1.27.15-.23.28-.48.43-.71.07-.11.17-.21.27-.29.16-.12.33-.23.53-.36-.34.01-.58.18-.85.29-.11.04-.23.1-.34.08-.18-.02-.31-.14-.35-.34-.04-.2.03-.35.2-.44.2-.1.41-.2.63-.24.63-.1,1.17-.38,1.73-.75-.09-.04-.15-.08-.22-.08-.46-.06-.93-.12-1.39-.17-.61-.07-1.19.12-1.78.22-.31.05-.62.15-.94.17-.24.02-.43.13-.62.24-.28.15-.56.3-.85.43-.58.27-1.17.52-1.75.78-.78.34-1.56.7-2.35.99-.37.14-.78.14-1.17.22-.21.04-.33-.05-.43-.21-.14-.24-.28-.48-.43-.75-.15.02-.31.04-.46.07-.45.07-.9.19-1.34.18-.68,0-1.36-.07-1.97-.41-.45-.25-.92-.45-1.36-.74-.77-.52-1.2-1.23-1.47-2.08-.22-.71-.42-1.43-.61-2.15-.11-.41-.17-.82-.25-1.26.16-.04.31-.1.46-.12.15-.02.31,0,.48,0,.03-.17.07-.28.06-.4-.07-.67-.16-1.35-.24-2.02-.07-.57-.37-.98-.84-1.29-.27-.17-.54-.35-.8-.53-.27-.19-.35-.42-.23-.6.11-.17.38-.17.65,0,.24.15.47.31.7.46.05.03.11.05.19.08-.15-.34-.28-.63-.4-.93-.04-.1-.08-.21-.07-.31.06-.33-.11-.62-.16-.94-.01-.07-.1-.14-.17-.19-.41-.26-.75-.6-1.06-.96-.05-.06-.12-.17-.1-.21.15-.21-.06-.31-.12-.46-.05-.14-.12-.27-.17-.4-.15-.39-.28-.78-.44-1.16-.06-.14-.15-.3-.26-.39-.38-.32-.48-.77-.54-1.21-.05-.39.03-.79.03-1.19,0-.24-.05-.47-.08-.71-.04-.26-.1-.52-.12-.79-.03-.53.17-.95.65-1.23.45-.26.67-.72.86-1.18.2-.49.55-.76,1.01-1.01.56-.31,1.14-.21,1.71-.29.14-.02.33.1.46.21.34.27.61.6.59,1.07-.01.25.09.41.29.53.94.57,1.81,1.27,2.84,1.7.37.15.4.37.16.69-.24.31-.48.64-.74.98.13.16.22.32.35.42.36.27.72.55,1.11.78.45.27.79.63,1.1,1.04.16.2.32.32.57.4.37.11.77.12,1.08.36.18.13.35.29.47.48.3.47.47.99.5,1.54.03.45.21.8.5,1.14.56.66,1.27,1.09,2.01,1.48.06.03.12.05.19.06.04,0,.08,0,.04,0,.17-.18.29-.31.42-.45.49-.51,1.16-.75,1.72-1.16.18-.13.45-.15.68-.21.17-.05.35-.06.5-.12.58-.23,1.16-.24,1.77-.13.53.1,1.08.15,1.61.25.8.15,1.6.3,2.37.52.86.25,1.61.7,2.16,1.44.24.33.48.67.7,1.01.09.14.17.2.35.18.38-.05.77-.07,1.15-.1.29-.02.56-.11.83-.22.39-.15.84-.19,1.25-.17.59.03,1.16,0,1.74-.06.86-.08,1.72-.15,2.59-.17.32,0,.37-.07.56.48.46-.03.93-.04,1.41-.09.3-.03.6-.11.9-.17.4-.07.61-.29.52-.67-.09-.42.06-.79.15-1.17.11-.42.41-.43.71-.34.12.04.24.11.38.18.19-.32.46-.47.84-.39.13.18.27.36.42.57.19-.35.12-.81.55-.99.42.17.59.53.67.93.1.52.19,1.05.24,1.58.03.33,0,.66-.03.99-.02.34-.05.69-.1,1.03-.09.67-.51,1-1.15,1.16-.66.16-1.32.14-1.99.17-.84.04-1.67.05-2.51.09-.38.02-.77.06-1.2.1,0,.96.21,1.88.26,2.87.74-.07,1.42-.13,2.1-.2.28-.03.56-.08.82-.16.48-.14.52-.21.52-.7,0-.41.06-.79.34-1.12.23-.27.45-.35.77-.22.08.03.14.11.19.18.06.11.1.23.16.37.37-.84.84-.77,1.26-.17.06-.13.12-.24.16-.36.08-.24.28-.33.5-.33.23,0,.31.21.36.37.09.35.16.7.19,1.06.07.72.1,1.44-.02,2.15-.07.39-.17.78-.29,1.16-.12.37-.39.57-.77.67-.5.13-.99.12-1.5.13-.93.02-1.86.06-2.79.1-.31.01-.61.04-.92.08-.31.05-.62.12-.96.19v.82c-.7.14-1.36.29-2.04.3-1.2.02-2.39-.09-3.59-.23-.79-.09-1.59-.16-2.38-.26-.42-.05-.84-.15-1.26-.22-.34-.05-.69-.09-1.03-.12-.18-.02-.37-.03-.58-.05Zm-24.57-20.31c.4-.17.63-.51.84-.86-.36.21-.65.49-.83.87-.06.2-.34.31-.25.57.08-.19.34-.32.24-.58Zm2.14-2.42h1.72c-.07-.1-.11-.17-.12-.17-.31.1-.62-.02-.93-.01-.24,0-.47.02-.66.19-.17,0-.37-.1-.53.15.21-.06.36-.11.52-.16Zm-1.53,2.73c.25-.23.48-.5.76-.69.27-.18.59-.28.88-.42-.01-.03-.03-.05-.04-.08-.72.13-1.24.54-1.63,1.15-.17.17-.37.32-.26.66.15-.22.3-.39.3-.63Zm1.75-.73c-.07.02-.16.01-.22.05-.32.22-.75.29-.9.72-.24.11-.37.32-.42.57-.13.19-.33.36-.27.69.12-.25.21-.45.31-.65.17-.13.33-.27.5-.4-.2.28-.42.55-.58.85-.22.43-.27.89-.1,1.36.34.93.86,1.75,1.66,2.35.45.34.69.81.89,1.3.2.5,0,.9-.54,1.08.3.13.56.26.84.35.41.13.82.24,1.24.32.34.07.49-.04.6-.38.06-.19.1-.39.15-.58.06-.3.1-.61.19-.89.05-.16.13-.37.36-.39.19-.02.48.18.57.38.02.05.03.1.05.15.12.39.27.77.19,1.2-.05.26.02.54-.03.79-.08.37-.23.73-.34,1.1-.02.06-.02.13-.03.18.17.1.31.18.46.26.86.46,1.75.61,2.7.29.27-.09.6-.17.86-.09.57.17,1.05.51,1.43.98.3.37.61.74.95,1.08.12.13.31.23.48.26.26.05.56.12.79-.11.16-.16.31-.34.4-.54.15-.35.27-.72.38-1.09.11-.37.03-.54-.3-.72-.63-.34-1.29-.63-1.82-1.14-.02-.02-.05-.03-.07-.04-.76-.42-1.05-1.09-1-1.94,0-.14-.01-.3-.07-.43-.14-.32-.3-.63-.47-.93-.06-.11-.18-.2-.29-.26-.45-.22-.95-.2-1.44-.2.11-.36-.05-.62-.35-.87-.18.78-.73,1.31-1.03,1.99.13-.05.23-.12.32-.2.36-.31.72-.62,1.07-.93-.09.13-.16.27-.27.38-.22.23-.46.44-.7.65-.23.2-.45.4-.77.4.02-.16.07-.3.05-.43-.12-.6.03-1.13.36-1.63.14-.21.25-.43.39-.68-.65-.39-1.35-.67-1.88-1.2.01-.07.01-.11.03-.14.19-.44.45-.85.76-1.21.27-.31.23-.47-.14-.62-.2-.08-.39-.17-.57-.27-.29-.16-.58-.33-.87-.48-.56-.27-1.15-.5-1.57-.99-.21.14-.4.29-.61.39-.22.11-.47.19-.71.26-.28.07-.53.17-.75.35-.28.24-.58.46-.87.7.11-.27.3-.46.54-.62.17-.11.33-.26.49-.39.43-.14.86-.26,1.27-.41.13-.05.23-.17.34-.25-.02-.02-.03-.04-.05-.06-.09.04-.21.05-.28.12-.22.22-.49.28-.78.36-.18.05-.33.17-.5.26Zm19.35,18.31c.06-.4.11-.79.18-1.2-.19-.03-.37-.06-.56-.08-.37-.03-.74-.04-1.11-.09-.83-.11-1.6-.39-2.14-1.05-.69-.85-1.44-1.64-2.01-2.57-.05-.09-.13-.16-.22-.27-.9.92-1.87,1.55-3.19.97-.02.04-.05.06-.05.09-.08.9-.14,1.8-.24,2.69-.03.27-.12.57-.28.77-.36.45-.88.67-1.42.83-.35.1-.72.17-1.11.26.12.71.23,1.39.36,2.07.03.18.14.34.23.51.11.21.25.41.37.62.2.32.41.49.85.4.35-.08.7-.11,1-.34.04-.03.1-.03.15-.05.68-.31,1.38-.58,2.02-.95.7-.4,1.42-.73,2.15-1.04.28-.12.58-.17.88-.24.15-.03.31-.01.47-.04.56-.09,1.12-.21,1.69-.29.18-.03.37,0,.56.03.53.09,1.05.2,1.57.29.31.05.46-.04.53-.34.05-.22.06-.44.1-.7-.26-.08-.49-.15-.76-.23Zm5.14-4.78c0-.22.02-.38,0-.53-.08-.58-.19-1.17-.54-1.65-.31-.43-.66-.84-1.04-1.21-.48-.46-1.03-.84-1.72-.95-.47-.07-.96-.11-1.42-.25-.93-.28-1.87-.42-2.85-.39-.76.02-1.46.17-2.12.56-.34.2-.72.34-1.06.55-.25.15-.53.29-.69.59.13.06.25.1.34.17.19.15.43.21.56.47.24.46.28.93.21,1.42-.04.25.03.43.24.58.48.38.95.78,1.42,1.17.13.11.24.26.38.35.47.32.95.65,1.43.95.6.37,1.25.59,1.97.51.34-.04.47-.12.48-.46.01-.34-.01-.68-.02-1.01-.37-.14-.35-.15-.46-.39-.2-.47-.4-.93-.62-1.38-.12-.24-.31-.42-.6-.49-.51-.12-1.01-.26-1.51-.4-.06-.02-.1-.07-.16-.11.04-.04.05-.06.06-.06.62.16,1.23.32,1.84.5.1.03.2.1.25.18.13.17.23.35.33.54.2.38.38.76.58,1.17.29-.27.65-.24,1-.3,1.04-.18,2.09-.25,3.15-.18.18.01.36.03.57.05Zm-18.01,4.91c.01-.21,0-.37.23-.39.54-.04,1.08-.08,1.62-.17.37-.06.77-.1,1.02-.47.32-.47.56-.96.53-1.55-.02-.35.01-.69.01-1.04,0-.41,0-.81,0-1.22,0-.38-.08-.77.19-1.16-.36-.38-.73-.77-1.09-1.15-.46-.49-1.03-.56-1.62-.35-.3.11-.6.12-.9.12-.13,0-.27-.04-.4-.03-.63.03-1.17-.17-1.69-.52-.12-.08-.25-.14-.39-.21-.14.39-.24.73-.39,1.06-.45.96-.43,1.96-.34,2.98.02.25.1.43.29.47.05.4.08.76.15,1.11.11.55.23,1.11.53,1.59.13.21.31.41.51.53.52.3,1.11.33,1.74.4Zm25.87-1.73c-.18.01-.4.02-.62.05-.8.1-1.61.21-2.41.32-.48.06-.95.16-1.43.19-.93.05-1.86.08-2.78.08-.55,0-1.11-.08-1.7-.12-.04.36-.08.74-.14,1.12-.1.6-.19.68-.67.55-.02,0-.05.02-.1.04-.08.45-.16.91-.25,1.39.38,0,.72-.03,1.06,0,.46.05.92.15,1.38.22.17.03.34.02.5.05.35.05.7.14,1.06.18,1.07.1,2.15.16,3.22.26,1,.1,2,.07,2.98-.16.11-.03.23-.04.35-.06-.02-.2-.04-.35-.04-.51,0-.6,0-1.2,0-1.8,0-.13-.03-.26-.06-.39-.11-.45-.22-.89-.35-1.39Zm-7.85-4.88c.27.74.34,1.45.36,2.18-.32.02-.61.04-.87.06-.12.68-.23,1.3-.35,1.96.2.04.37.09.54.09.47,0,.94.03,1.4-.03,1-.11,2-.13,3-.13.46,0,.93.08,1.35-.22.05-.03.13-.02.2-.02.41-.01.82-.01,1.23-.03.31-.02.63-.05.93-.08.05-1.4.09-2.79.14-4.21-.17-.01-.31-.03-.45-.03-.75.02-1.49.06-2.24.08-.76.01-1.52,0-2.28,0-.08,0-.16.01-.24.02-.61.08-1.21.17-1.82.25-.27.04-.55.06-.89.1Zm-24.18,3.84c.01.17,0,.31.04.43.23.93.44,1.87.72,2.79.17.54.47,1.02.91,1.43.42.39.91.64,1.36.97.2.14.45.23.69.3.36.1.72.19,1.09.23.73.07,1.46.06,2.19-.26-.04-.15-.06-.29-.11-.42-.11-.34-.23-.67-.28-1.04-.06-.42-.23-.82-.34-1.23-.05-.18-.14-.22-.32-.2-.41.04-.82.06-1.2-.18-.12-.08-.28-.1-.42-.12-.48-.06-.74-.38-.85-.8-.16-.63-.25-1.28-.38-1.92-.04-.2-.1-.4-.15-.6-1.01.24-1.92.63-2.95.63Zm32.68,1.85c.02.62.05,1.17.06,1.71,0,.21-.03.42-.05.64-.01.18.08.28.26.27.25-.02.5-.04.76-.06.24-.03.47-.08.71-.09.76-.02,1.52,0,2.28-.04.64-.03,1.28-.09,1.91-.16.28-.03.56-.14.7-.41.17-.33.34-.67.42-1.03.12-.47.11-.97.11-1.46,0-.41-.03-.82-.06-1.23-.02-.22-.09-.44-.15-.66-.03-.12-.11-.25-.25-.21-.11.03-.26.1-.31.2-.08.19-.13.4-.14.61-.01.25.05.5.05.76,0,.11.08.26-.13.36-.03-.19-.05-.36-.09-.53-.07-.3-.16-.59-.25-.88-.05-.17-.17-.27-.35-.28-.17,0-.24.13-.32.26-.19.3-.22.62-.23.96,0,.13.02.28-.22.32-.01-.13-.03-.25-.04-.37-.03-.29-.03-.59-.11-.86-.07-.26-.19-.28-.43-.18-.31.13-.49.36-.47.71.01.39.06.79-.03,1.19-.32.02-.63.03-.93.07-.69.11-1.38.27-2.09.26-.2,0-.41.09-.62.14Zm5.38-6.98s-.09.01-.14.02c-.07-.28-.15-.56-.21-.84-.08-.35-.27-.59-.66-.69-.14.25-.28.48-.28.77,0,.27,0,.53-.01.8,0,.12-.04.21-.22.18.01-.58-.19-1.11-.41-1.63-.34.03-.46.11-.49.37-.03.23-.02.48-.03.71,0,.22-.03.45-.02.67,0,.23-.14.36-.31.42-.42.13-.84.26-1.27.31-.37.04-.74-.03-1.12-.04-.31-.01-.42.07-.44.38-.04.71-.07,1.43-.1,2.16.1.02.18.05.26.04.74-.04,1.49-.09,2.23-.13.57-.03,1.14-.06,1.71-.08.36-.01.72.01,1.08-.03.59-.07,1.03-.35,1.19-.96.12-.46.36-.88.29-1.39-.04-.28-.01-.58,0-.87.04-.54-.11-1.05-.24-1.57-.05-.2-.12-.51-.4-.48-.27.03-.35.32-.39.54-.05.27-.03.56-.03.84,0,.16,0,.33,0,.49Zm-35.31,4.2c-.01-.64-.02-1.21-.03-1.78-.01-.74.1-1.46.41-2.14.23-.51.48-1.01.71-1.52.15-.33.19-.69.15-1.05-.03-.2-.09-.37-.3-.48-.15-.08-.28-.21-.4-.33-.18-.2-.18-.27-.02-.49.1-.13.21-.26.33-.41-.28-.04-.44.04-.49.29-.12.52-.23,1.03-.31,1.56-.03.21-.12.32-.31.35-.17.02-.35.03-.52,0-.93-.21-1.82-.51-2.65-.99-.1-.06-.22-.07-.35-.11v.51c.08.07.15.13.22.19.74.57,1.46,1.17,2.44,1.29.06,0,.11.11.22.22-.88-.03-1.49-.5-2.15-.9-.03.31.15.48.3.66.28.36.66.57,1.06.77.13.07.22.13.2.33-.67-.02-.94-.65-1.46-.92.04.69.53,1.08.88,1.57-.19-.02-.36-.06-.52-.12-.16-.07-.3-.17-.45-.26-.22-.13-.43-.27-.64-.4-.12-.07-.25-.12-.4-.02.16.13.36.2.43.35.15.27.36.46.61.62.55.35.79.87.86,1.5.08.67.19,1.34.29,2.01,0,.03.05.06.09.12.58-.22,1.26-.08,1.81-.4Zm13.31,9.86c.46.07.8,0,1.14-.13.56-.22,1.12-.44,1.6-.8.05-.04.12-.06.18-.08.31-.14.63-.29.95-.42.27-.11.54-.29.82-.3.42,0,.85.06,1.25.2.31.11.57.38.87.56.2.12.43.21.65.27.07.02.21-.06.25-.14.05-.08.05-.22,0-.29-.09-.15-.21-.11-.34-.01-.15.12-.31.08-.44-.02-.13-.1-.16-.24-.11-.4.02-.08.05-.17.07-.25-.32-.23-.64-.43-.92-.67-.35-.3-.59-.65-.58-1.16,0-.42.09-.82.16-1.22.05-.27.1-.55.14-.83-.57-.08-1.1-.16-1.61-.23-.03.03-.05.04-.05.05-.02.1-.04.21-.06.31-.11.6-.3,1.14-1.01,1.27-.11.02-.23.08-.32.15-.29.21-.64.25-.98.31-.12.02-.24.03-.35.04-.14.55-.23.6-.76.38-.01.06-.05.13-.03.18.08.21.24.27.5.13.56-.29,1.16-.44,1.79-.48.12,0,.2,0,.23.14-1.47.61-1.63.7-1.72,1.03,1.24-.44,1.34-.46,1.69-.26-.52,0-.99.15-1.42.43-.42.27-.83.55-1.09,1.01.33-.08.62-.22.93-.33.33-.12.66-.22.99-.33.3-.1.6-.21.9-.32.01.11,0,.17-.04.19-.55.2-1.1.4-1.65.59-.47.16-.91.35-1.32.62.06.32.17.64-.3.81Zm6.52-6.02c.26-.65.92-4.09.86-4.56-.38-.06-.78-.1-1.18-.07-.69.06-1.37.15-2.06.23-.33.04-.39.12-.38.44,0,.23.06.45.05.67-.01.6-.13,1.18-.34,1.74-.12.33-.28.67-.15,1.04.75.35,2.24.64,3.18.5Zm-12.65-5.79c-.22.5-.16.71.22.93.27.16.58.23.88.18.62-.11,1.23-.27,1.64-.82.05-.07.14-.12.21-.19.22-.2.38-.19.56.02.32.38.64.75.96,1.12.31.37.63.72.9,1.11.38.54.86.96,1.47,1.18.84.3,1.72.33,2.63.34.05-.22.1-.42.17-.68-.2.01-.35.04-.48.02-.35-.03-.72-.03-1.05-.14-.41-.14-.81-.35-1.18-.58-.41-.25-.81-.52-1.17-.83-.55-.46-1-1.04-1.65-1.39-.07-.04-.11-.12-.18-.16-.28-.17-.35-.45-.28-.73.17-.64-.13-1.03-.72-1.38.21.33.31.63.2.93-.17.46-.36.92-.9,1.09-.29.09-.57.26-.87.29-.46.05-.97.17-1.36-.32Zm13.25,3.96c.18.03.35.05.51.07.29.03.58.08.87.08.48,0,.96-.08,1.43-.07,1.03.02,2.03-.13,3.04-.27.93-.13,1.87-.24,2.8-.35.11-.01.24,0,.3-.16-.06-.03-.12-.08-.17-.08-.33,0-.66-.02-.99,0-.61.03-1.22.07-1.82.1-.15,0-.29.04-.44.05-1.11.03-2.21.04-3.32.09-.64.03-1.27.05-1.91.01-.21-.01-.3.06-.31.26,0,.08,0,.16,0,.29Zm-17.07-12.4c-.46.13-.54.54-.74.85-.23.37-.31.77-.16,1.25.26-.37.53-.68.72-1.04.16-.3.36-.63.18-1.07Zm5.71,8.39c.63-.14.99-.51,1.1-1.07.07-.36-.06-.63-.4-.84-.09.68-.25,1.32-.7,1.91Zm-11.48-5.24c.16-.31.04-.52-.06-.74-.31.04-.36-.25-.5-.41-.27-.31-.51-.64-.76-.97-.15-.19-.31-.36-.55-.44.25.36.53.7.8,1.04.37.47.86.85,1.07,1.52Zm-.08-8.62c-1.16.06-1.88.81-2.57,1.63.71-.77,1.57-1.31,2.57-1.63Zm-1.54,8.18s.06-.04.08-.06c-.22-.28-.43-.56-.65-.84-.21-.27-.28-.64-.59-.84.3.64.51,1.35,1.16,1.74Zm5.04.6c.11-.26.07-.52-.13-.86-.42.29-.43.34-.08.68.07.06.14.12.21.19Zm-3.86-.52s.05-.04.07-.06c-.21-.45-.81-1.1-1.13-1.16.38.43.72.83,1.06,1.22Zm-.19.51c-.12-.35-.92-1.41-1.22-1.58.39.56.75,1.07,1.12,1.58.01.01.05.01.07.01.01,0,.02-.01.03-.02Zm-1.41-3.35c-.22-.58-.42-1.06-.61-1.56,0,.7.12,1.02.61,1.56Zm-1.27-3.82c-.39.3-.67.67-.38,1.18.12-.37.25-.77.38-1.18Zm2.34,5.04c.14.42.44.69.77.95-.19-.37-.35-.76-.77-.95Zm16.76,18.33c-.15.14-.29.26-.43.39.18.2.34.19.49.05.14-.14.07-.28-.06-.44Zm-16.02-25.62l-.03-.08c-.37,0-.66.21-.96.39.01.03.02.05.03.08.32-.13.63-.26.95-.39Zm-3.15,3.6c.21-.31.47-.5.34-.89-.21.25-.32.5-.34.89Zm26.56,21.31c-.14-.12-.25-.3-.44-.15-.05.04-.05.2,0,.28.07.12.22.08.44-.13Zm-24.21-24.24c.33-.12.71-.09,1-.34-.35.05-.73.04-1,.34Zm-.57-.63c-.56.25-.61.3-.65.65.24-.24.44-.45.65-.65Zm.13.36l-.07-.09c-.27.19-.55.36-.7.68l.78-.59Zm-1.48,5.27c-.09-.38-.17-.75-.26-1.13-.03.4.01.79.26,1.13Zm-.35.54s.05-.01.08-.02c-.1-.34-.19-.69-.29-1.03-.02,0-.05.01-.07.02.07.35.1.71.28,1.03Zm1.77-4.27s-.04-.05-.06-.07c-.26.19-.52.38-.63.72.23-.22.46-.44.69-.65Zm2.27-1.34c-.24.11-.47.21-.65.41.25-.08.51-.14.65-.41Zm-2.78.5c.4-.08.41-.09.53-.35-.18.12-.35.24-.53.35Zm.4,8.58q.03-.3-.29-.4c.12.16.2.28.29.4Z"/>
    <path class="cls-3" d="m37.8,101.4l.1-.1c-.12-.12-.24-.24-.36-.36l-.07.06c.11.13.21.26.32.4Z"/>
    <path class="cls-3" d="m55.03,114.72c-.21-.04-.31,0-.36.16.17.1.25.02.36-.16Z"/>
    <path class="cls-3" d="m37.95,93.02s-.02-.07-.04-.1c-.17.06-.35.12-.52.18.01.03.02.07.03.1.17-.06.35-.12.52-.18Z"/>
    <path class="cls-3" d="m38.12,92.07c.2.1.33.05.41-.14-.14.05-.27.09-.41.14Z"/>
    <path class="cls-3" d="m34.5,94.24l.09.08c.09-.11.17-.22.26-.34-.03-.02-.05-.04-.08-.06-.09.11-.18.21-.27.32Z"/>
    <path class="cls-3" d="m35.26,96.68s.02,0,.02,0v-.42s-.02,0-.02,0v.42Z"/>
    <path class="cls-3" d="m34.76,95.83h-.07v.49c.06-.06.06-.12.07-.18,0-.1,0-.2,0-.3Z"/>
    <path class="cls-3" d="m38.13,93.23q.26.02.4-.15c-.17.06-.29.11-.4.15Z"/>
    <path class="cls-3" d="m37.12,91.5s.02.06.03.09l.41-.11s-.02-.06-.02-.08c-.14.04-.27.07-.41.11Z"/>
    <path class="cls-3" d="m35.85,100.34q.03.26.24.4c-.1-.16-.16-.26-.24-.4Z"/>
    <path class="cls-3" d="m35.06,96.06s.05.02.08.03c.02-.09.04-.19.05-.28-.03,0-.05-.01-.08-.02-.02.09-.03.18-.05.27Z"/>
    <path class="cls-3" d="m35.62,93.38s-.03-.04-.04-.05c-.06.05-.12.11-.18.16.01.01.02.03.04.04.06-.05.13-.1.19-.15Z"/>
    <path class="cls-3" d="m38.58,92.36c.14.09.25.1.3-.12-.13.05-.21.08-.3.12Z"/>
    <path class="cls-3" d="m36.44,98.59s.04-.03.05-.05l-.17-.19s-.03.02-.04.04c.05.07.1.13.16.2Z"/>
    <path class="cls-3" d="m34.63,96.6h-.08v.21s.04,0,.06,0c0-.07.02-.14.02-.21Z"/>
    <path class="cls-3" d="m39.27,92.18s-.06-.02-.09-.03c-.03.1-.06.19-.09.29.03,0,.07.02.1.03l.08-.29Z"/>
    <path class="cls-3" d="m38.64,91.49s0-.05,0-.08c-.1,0-.2.01-.3.02.05.06.1.08.15.08.05,0,.1,0,.15-.02Z"/>
    <path class="cls-1" d="m95.7,65.13s.02.02.03.03c.16.17.32.34.51.53.16-.32.29-.6.43-.87.3-.59.66-.76,1.38-.73.87.03,1.43.52,1.74,1.31.03.08.07.15.15.31.1-.25.18-.41.23-.59.1-.34.31-.58.6-.77.5-.33,1.05-.44,1.63-.49.81-.06,1.45.26,1.96.88.43.51.41,1.36,0,1.77-.36.35-.7.73-1.06,1.09-.17.17-.36.31-.54.46h.02c-.29.14-.57.3-.85.46-.03.01-.03.07-.04.1h.01c-.31.13-.62.27-.94.4-.57.24-1.18.26-1.79.29-.49.02-.98.01-1.47.02,0,0,.02,0,.02,0-.23-.15-.48-.19-.74-.17h.02c-.34-.12-.68-.26-1.02-.39-.55-.21-1.13-.35-1.63-.63-.61-.35-1.26-.68-1.71-1.28-.21-.28-.34-.55-.26-.87.07-.29.18-.59.31-.86.35-.69,1.02-.95,1.75-.68.32.12.63.26.95.39h-.02c.11.08.22.18.33.28Z"/>
    <path class="cls-3" d="m93.07,29.89c-.7.16-1.3.15-1.91.01-.37-.08-.77-.09-1.15-.14-.42-.05-.84-.1-1.26-.15-.06,0-.12,0-.2,0,.36.61.73,1.17,1.03,1.78.28.59.75,1.07,1.04,1.65-.03.03-.06.06-.09.09-.73-.34-1.48-.64-2.17-1.03-.7-.4-1.34-.9-2.02-1.37-.87,1.09-1.73,2.19-2.64,3.34-.39-1.41-.4-2.79-.29-4.23-.17.13-.3.24-.44.33-.48.32-.94.68-1.38,1.05-.19.16-.42.26-.63.39-.64.41-1.27.83-1.9,1.24-.23.15-.46.3-.73.48,0-.11-.01-.18,0-.24.13-.53.46-.96.75-1.41.37-.57.74-1.14,1.09-1.72.12-.19.17-.41.26-.63-.48-.29-1-.36-1.51-.45-.43-.07-.87-.13-1.3-.2-.54-.09-1.07-.18-1.64-.28-.04-.1.04-.17.16-.22.79-.27,1.61-.46,2.43-.62.41-.08.82-.2,1.29-.32-.44-.53-.86-1.03-1.27-1.53-.27-.33-.53-.66-.79-.99-.03-.04-.02-.14,0-.18.03-.04.12-.07.17-.06.15.03.3.1.46.14.27.08.54.14.81.22.23.07.45.15.66.25.5.23.99.46,1.48.71.17.09.32.22.49.32.1.06.2.12.36.22-.03-.13-.04-.2-.07-.27-.37-.81-.56-1.66-.66-2.54-.02-.2-.1-.38-.15-.58-.1-.37-.19-.74-.29-1.11.03-.02.07-.03.1-.05.19.21.38.41.57.62.21.22.41.45.63.67.21.2.45.38.65.59.2.21.38.44.58.67.22-.59.44-1.16.66-1.74.21-.57.42-1.13.68-1.7.39.54.46,1.17.65,1.76.19.59.37,1.19.55,1.8,1.36-.19,2.52-.93,3.8-1.36.09.27-.04.49-.14.68-.28.51-.56,1.02-1.01,1.43-.22.2-.37.49-.54.74-.19.29-.37.58-.58.92.16.1.33.21.5.29.9.43,1.81.84,2.7,1.29.71.36,1.38.79,2.06,1.2.06.04.09.13.15.23Zm-14.61-4.93c.05.07.07.1.1.13.62.56,1.08,1.25,1.54,1.93.16.24.11.37-.15.42-.44.09-.89.17-1.33.26-.56.12-1.12.26-1.67.39-.08.02-.15.07-.22.1.38.05.74.02,1.09.06,1.13.12,2.26.27,3.41.41-.01.04-.02.12-.06.18-.37.59-.73,1.18-1.11,1.76-.42.65-.85,1.29-1.28,1.94-.03.05-.02.11-.06.28,1.67-1.12,3.25-2.18,4.88-3.27.03.07.1.16.11.26.04.51.07,1.01.08,1.52.01.59,0,1.17,0,1.76,0,.1.02.2.04.37.5-.51.86-1.03,1.24-1.54.39-.52.77-1.05,1.18-1.6.09.02.21.02.31.07.23.13.46.27.68.42.22.15.42.33.65.47.65.41,1.31.82,1.96,1.23.07.05.14.1.22.15.01-.01.03-.03.04-.04-.02-.04-.05-.08-.07-.11-.18-.3-.37-.61-.55-.91-.42-.71-.72-1.49-1.36-2.06-.11-.1-.09-.21.01-.35.26.02.53.05.81.08.73.09,1.46.18,2.18.27.19.03.38.1.57.12.28.02.56.17.88.02-1.62-1.16-3.48-1.8-5.2-2.73.33-.48.62-.92.93-1.35.31-.42.64-.82.97-1.22.16-.2.26-.43.32-.67-.46.21-.9.43-1.35.62-.49.21-.99.4-1.49.58-.25.09-.52.14-.8.2-.14-.67-.22-1.29-.42-1.88-.21-.59-.26-1.23-.61-1.78-.39,1.1-.81,2.18-.99,3.31-.23.07-.35.03-.44-.18-.06-.14-.16-.28-.27-.39-.4-.41-.81-.81-1.21-1.22-.17-.17-.34-.35-.5-.53-.02.02-.05.03-.07.05.05.13.1.27.14.41.08.28.15.56.22.84.02.09.03.18.05.28.16.75.37,1.47.79,2.12.1.15.15.34.2.52.03.11,0,.24,0,.39.1.03.25.08.45.15-.03-.21-.05-.35-.08-.49-.05-.18-.13-.35-.18-.53-.13-.47-.25-.95-.38-1.43-.03-.12-.06-.2.1-.3.61.34,1.14.85,1.75,1.26.23-.62.24-1.26.61-1.88.2.74.04,1.43.28,2.1.84-.28,1.64-.55,2.5-.84,0,.48-.38.65-.52.97-.15.32-.35.62-.51.91.29.35.61.56.96.73.42.21.81.46,1.15.79.08.08.21.14.11.32h-1.86c.17.27.3.5.44.72.17.26.34.51.51.77.07.12.18.24.03.41-.79-.56-1.47-1.26-2.35-1.72-.39.65-.96,1.15-1.23,1.85-.05.12-.09.27-.3.19,0-.95.32-1.88.38-2.93-.58.38-1.08.71-1.58,1.02-.6.37-1.2.73-1.81,1.09-.05.03-.14-.04-.21-.06.32-.52.62-.99.91-1.46.05-.08.08-.17.11-.26.12-.32.1-.39-.17-.62-.35-.3-.71-.59-1.07-.89-.05-.05-.1-.11-.18-.21.59-.13,1.08.16,1.61.14-.67-.54-3.12-1.96-3.81-1.89Zm6.51,2.63c-.13.94-.24,1.77-.35,2.59.02,0,.04,0,.06.01.34-.53.68-1.06,1.05-1.64.66.48,1.27.93,1.96,1.44-.27-.45-.49-.82-.71-1.2-.04-.07-.05-.16-.08-.25.08,0,.17-.04.25-.01.5.16,1.02.03,1.53.07-.05-.09-.1-.14-.17-.18-.56-.36-1.12-.72-1.69-1.07-.23-.14-.28-.25-.16-.48.03-.06.08-.11.11-.17.2-.37.39-.74.63-1.2-.79.28-1.48.53-2.22.75-.05-.6-.1-1.13-.15-1.66-.24.51-.27,1.06-.51,1.61-.52-.41-.99-.77-1.48-1.16,0,.11,0,.19.02.26.17.63.34,1.26.5,1.89.04.15.05.29-.12.4-.55-.31-1.17-.27-1.76-.39-.01.02-.03.05-.04.07.32.26.64.53.98.8-.3.5-.68.94-.87,1.5.16-.05.3-.12.43-.21.4-.26.79-.55,1.21-.77.44-.22.86-.47,1.21-.81.07-.07.19-.1.37-.19Z"/>
    <path class="cls-3" d="m58.02,52.14c-.35.33-.79.46-1.23.61-.21.07-.44.13-.64.22-.58.28-1.18.32-1.8.24-.21-.03-.43-.08-.64-.04-.67.12-1.33-.08-1.99-.07-.26,0-.53-.03-.79-.03-.73.02-1.4-.31-2.1-.42-.09-.01-.16-.08-.24-.13-.54-.32-1.08-.64-1.62-.95-.14-.08-.29-.13-.44-.19-.55-.22-1.05-.53-1.44-.98-.31-.35-.6-.71-.88-1.09-.31-.41-.35-.9-.37-1.41-.03-.88.46-1.51.97-2.13.68-.83,1.61-1.09,2.64-1.02.18.01.36.09.52.18.37.21.7.48.96.83.11.15.23.29.37.46.09-.13.16-.23.21-.33.48-.87,1.65-1.26,2.62-.86.5.2.89.58,1.15,1.07.16.29.3.59.45.88.33-.29.63-.6.98-.85.78-.56,1.65-.8,2.61-.67.62.08,1.25.13,1.81.46.78.46,1.24,1.11,1.24,2.04,0,.98-.35,1.86-.82,2.68-.25.43-.58.82-.9,1.21-.15.18-.38.29-.64.27.17-.11.36-.18.49-.33.32-.36.66-.71.89-1.12.29-.52.53-1.08.72-1.64.19-.54.2-1.11.04-1.66-.22-.76-.76-1.23-1.47-1.52-.33-.14-.69-.18-1.04-.24-1.51-.27-2.72.24-3.68,1.41-.07.09-.1.21-.15.32-.02.05-.06.09-.09.15-.03-.04-.04-.05-.05-.06,0-.04-.01-.08-.02-.12-.23-.81-.59-1.52-1.33-2.01-1.02-.68-2.51-.06-2.83,1-.04.12-.08.24-.15.43-.12-.25-.17-.45-.29-.59-.31-.35-.63-.69-.98-1-.15-.14-.37-.25-.57-.27-.8-.1-1.54.11-2.19.58-.49.35-.76.89-1.08,1.38-.36.56-.3,1.2-.14,1.78.14.51.48.95.84,1.35.36.4.76.72,1.3.87.4.11.8.28,1.12.59.16.15.38.25.58.35.44.21.88.43,1.33.61.55.23,1.08.52,1.7.56.23.01.45.02.68.02.69,0,1.37.15,2.06.06.16-.02.32-.02.48,0,.68.11,1.34.09,1.97-.24.17-.09.38-.12.57-.19.21-.08.42-.17.63-.25.22-.08.44-.16.66-.24Z"/>
    <path class="cls-3" d="m96.87,52.46c.19-.4.43-.68.78-.85.15-.07.32-.14.49-.16.24-.03.44.06.56.29.09.16.21.3.35.49.28-.52.72-.72,1.25-.8.41-.06.7.05.91.4.05.08.1.15.17.27.33-.5.77-.82,1.35-.83.61-.01.9.49,1.24.94.23-.33.48-.6.87-.68.39-.08.72-.04.94.37.07-.06.14-.11.17-.17.4-.69,1.11-.74,1.58-.1.05.06.09.13.16.22.08-.08.14-.16.22-.22.18-.15.35-.34.56-.44.43-.22.73-.1.97.31.07.12.13.25.2.41.28-.35.52-.71,1.04-.65.49.06.72.4.96.79.07-.05.15-.1.21-.16.31-.33.67-.44,1.12-.34.55.12,1.15.66,1.28,1.2.08.35-.15.85-.51,1.05-.2.11-.41.21-.63.25-.43.08-.87.12-1.31.17-.17.02-.34.04-.51.08-.59.13-1.19.1-1.79.1-.39,0-.77.05-1.16.05-.29,0-.58-.06-.87-.04-.84.06-1.67.15-2.51.21-.49.04-.98.06-1.47.07-.74.01-1.49.02-2.23.01-.4,0-.8-.06-1.19-.03-.49.04-.95-.04-1.43-.11-.39-.06-.8-.08-1.19-.07-.84,0-1.6-.24-2.28-.71-.23-.15-.41-.44-.5-.7-.12-.33.07-.64.27-.92.04-.05.1-.09.15-.14.54-.61,1.03-.38,1.47.05.09.09.17.2.31.35Zm.03.26c-.14-.17-.22-.29-.32-.4-.1-.11-.2-.21-.32-.3-.28-.21-.58-.24-.82-.08-.32.22-.55.51-.63.89-.02.09-.03.21.01.27.21.25.4.54.66.72.56.37,1.21.54,1.89.58.39.02.79-.03,1.16.06.79.21,1.59.08,2.38.15.85.07,1.72,0,2.58-.02.44,0,.88,0,1.32-.03.64-.05,1.27-.16,1.9-.21.5-.04,1-.02,1.5-.03.49,0,.98-.02,1.47-.03.37,0,.73.03,1.1-.01.7-.08,1.4-.18,2.1-.3.26-.04.52-.14.75-.26.45-.22.6-.71.37-1.16-.1-.19-.23-.36-.38-.51-.53-.52-1.27-.48-1.76.08-.07.08-.16.15-.27.25-.08-.18-.12-.32-.19-.44-.18-.32-.43-.54-.84-.5-.31.03-.51.19-.66.45-.08.14-.17.28-.3.5-.07-.26-.11-.42-.17-.58-.22-.64-.77-.75-1.23-.26-.05.05-.09.1-.13.16-.13.2-.25.39-.42.65-.05-.17-.07-.28-.11-.39-.11-.35-.37-.6-.67-.61-.36-.01-.65.12-.8.47-.07.16-.12.32-.19.48-.03.06-.09.1-.19.19-.02-.2-.03-.33-.05-.46-.04-.26-.24-.45-.5-.42-.4.05-.79.15-.97.59-.05.12-.08.28-.27.32-.04-.12-.06-.22-.11-.31-.23-.43-.53-.83-1.05-.81-.48.02-.93.23-1.16.72-.05.1-.12.19-.18.28-.04-.02-.06-.02-.07-.03-.04-.08-.08-.16-.12-.25-.27-.6-.54-.73-1.18-.53-.11.03-.22.09-.33.14-.27.13-.45.32-.46.65,0,.05-.05.1-.1.2-.21-.29-.39-.53-.55-.79-.1-.16-.21-.22-.39-.21-.47.02-.8.27-1.04.65-.08.13-.15.27-.26.48Z"/>
    <path class="cls-3" d="m109.69,21.47c.16-.28.29-.51.42-.74.29-.5.97-.65,1.36-.58.33.06.5.34.68.59.1.14.17.3.27.47.14-.16.26-.31.38-.44.24-.25.52-.41.88-.42.76-.02,1.03.39.93,1.1-.11.74-.39,1.41-1.14,1.78-.24.12-.46.26-.72.32-.5.12-.97.38-1.5.39-.48,0-.96.02-1.44.04-.4.02-.79-.04-1.17-.2-.22-.09-.43-.2-.65-.31-.46-.23-.94-.43-1.37-.69-.27-.16-.45-.46-.54-.77-.15-.49.21-1.42.64-1.71.82-.56,2.13-.23,2.69.66.1.16.18.32.28.51Zm2.75.29s-.09-.01-.09-.03c-.02-.04-.05-.1-.05-.14-.02-.44-.3-.76-.56-1.07-.09-.1-.25-.18-.38-.19-.4-.01-.79.08-1.04.41-.17.23-.27.51-.4.78-.05.1-.08.21-.15.39-.18-.3-.35-.52-.46-.76-.26-.58-.74-.82-1.32-.9-.8-.11-1.36.16-1.64.93-.16.43-.21.87.14,1.2.32.3.66.63,1.12.74.1.02.2.07.29.13.67.43,1.4.61,2.18.61.61,0,1.23,0,1.82-.19.57-.2,1.16-.32,1.68-.68.59-.41.81-.99.86-1.63.06-.77-.41-.88-.96-.77-.03,0-.05.02-.07.03-.54.19-.8.62-.96,1.17Z"/>
    <path class="cls-3" d="m115.04,35.64c.09-.16.16-.27.21-.39.34-.82,1.31-1.16,2.13-.54.13.1.21.27.3.41.05.09.08.2.12.31.13-.17.25-.33.36-.49.33-.49,1.31-.82,2.03-.61.55.16.81.78.82,1.25,0,.41-.05.81-.3,1.14-.16.21-.34.44-.56.55-1.05.52-2.16.71-3.34.53-.38-.06-.77-.05-1.16-.07-.12,0-.23-.02-.35-.04-.18-.03-.37-.12-.55-.11-.75.02-1.34-.37-1.93-.76-.22-.14-.45-.26-.52-.56-.08-.36-.11-.71.05-1.06.31-.68.87-.89,1.59-.58.46.19.77.56,1.09,1.02Zm2.79.15s-.07-.01-.1-.02c-.06-.16-.11-.33-.18-.48-.08-.16-.17-.34-.3-.46-.65-.57-1.59-.2-1.85.48-.09.23-.18.45-.29.73-.07-.11-.11-.17-.14-.22-.26-.39-.52-.78-.95-1.01-.47-.24-1.05-.3-1.4.28-.29.48-.2,1.03.25,1.36.77.57,1.6,1.03,2.57,1.09.88.05,1.75.22,2.64.12.63-.07,1.22-.2,1.8-.45.48-.21.8-.54.89-1.05.05-.31.07-.64.02-.95-.05-.32-.24-.59-.58-.71-.66-.24-1.82.05-2.17.9-.05.13-.13.25-.19.37Z"/>
    <path class="cls-3" d="m46.18,65.52c-.09.13-.21.19-.36.21-.15.02-.3.06-.45.08-.24.03-.49.06-.73.07-.26.01-.53,0-.79-.01-.52-.04-1.04-.08-1.55-.14-.16-.02-.31-.1-.46-.17-.37-.19-.74-.39-1.1-.6-.43-.25-.62-.76-.5-1.25.07-.29.2-.54.34-.8.13-.24.32-.4.57-.49.51-.19,1.02-.15,1.52.05.25.11.43.3.56.54.03.06.05.14.09.27.13-.17.2-.28.28-.38.23-.32.58-.43.94-.41.34.02.57.27.72.57.05.1.09.22.15.36.17-.16.31-.31.47-.44.11-.08.25-.13.37-.2h0c-.34.26-.64.54-.92.89-.02-.07-.04-.13-.06-.19-.04-.13-.07-.27-.12-.39-.32-.72-1.17-.59-1.46-.17-.11.16-.21.33-.34.54-.05-.1-.09-.17-.12-.25-.2-.47-.55-.73-1.06-.79-.28-.03-.53-.01-.81.06-.21.06-.4.14-.54.3-.22.26-.37.56-.46.9-.06.24-.01.42.13.61.29.39.64.7,1.03.97.38.25.79.45,1.27.45.47,0,.94.04,1.42.07.46.03.91.04,1.35-.11.03,0,.05,0,.08-.02.15-.04.29-.09.44-.13.03,0,.07,0,.1,0h0Z"/>
    <path class="cls-3" d="m92.09,44.88c.12-.47.5-.58.83-.74.43-.2.66-.1.96.34.2-.11.4-.24.61-.32.37-.13.69-.01.81.27.22.49.17.8-.22,1.03-.25.15-.54.23-.8.35-.79.35-1.63.36-2.47.34-.53-.01-.98-.27-1.36-.63-.12-.12-.24-.25-.15-.46.02-.06.01-.13.01-.2-.01-.3.13-.52.41-.62.28-.1.58-.11.84.09.18.15.34.33.55.54Zm.06.45c-.03-.06-.05-.1-.07-.13-.13-.34-.39-.57-.67-.77-.21-.15-.44-.16-.68-.04-.24.12-.29.32-.27.57.03.39.38.8.78.92.67.2,1.35.17,2.01.05.57-.1,1.11-.32,1.66-.52.3-.11.44-.48.33-.77-.12-.32-.37-.42-.75-.33-.24.06-.39.2-.49.43-.03.07-.09.13-.18.26-.03-.14-.04-.2-.05-.26-.1-.5-.43-.65-.88-.44-.4.19-.7.44-.66.93,0,.02-.03.04-.08.09Z"/>
    <path class="cls-3" d="m76.39,88.75c.1-.62.23-1.23.33-1.85.07-.45.12-.91.18-1.36-.06.18-.12.35-.15.54-.07.43-.11.87-.19,1.3-.04.21-.13.4-.19.6-.04.14-.09.28-.11.42-.03.18-.01.38-.06.55-.22.76-.28,1.54-.43,2.31-.1.52-.26,1.03-.39,1.54-.03.14-.04.28-.06.43.31-.64.38-1.35.56-2.02.14-.51.24-1.02.36-1.54.03.02.13-.73.16-.91Z"/>
    <path class="cls-3" d="m102.75,68.06c.18-.15.37-.29.54-.46.36-.36.7-.73,1.06-1.09.42-.41.43-1.26,0-1.77-.51-.62-1.15-.94-1.96-.88-.58.04-1.14.16-1.63.49-.29.19-.5.43-.6.77-.05.17-.13.34-.23.59-.08-.16-.12-.23-.15-.31-.32-.79-.88-1.28-1.74-1.31-.72-.03-1.08.14-1.38.73-.14.27-.27.55-.43.87-.19-.2-.35-.36-.51-.53.14.08.29.15.48.25.09-.17.19-.35.29-.53.47-.93,1.49-1.2,2.4-.67.44.26.79.58.98,1.12.07-.11.11-.15.13-.21.15-.52.54-.83.99-1.05.57-.27,1.19-.39,1.83-.34.8.06,1.66.69,1.93,1.53.13.4.1.83-.17,1.18-.5.63-1.06,1.2-1.75,1.62-.02.01-.05,0-.08,0Z"/>
    <path class="cls-3" d="m95.38,64.85c-.32-.13-.63-.27-.95-.39-.73-.26-1.4,0-1.75.68-.14.27-.24.56-.31.86-.08.33.05.59.26.87.45.6,1.09.93,1.71,1.28.5.28,1.08.42,1.63.63.34.13.68.27,1.02.4-.23-.05-.47-.08-.69-.16-.58-.2-1.17-.38-1.72-.64-.68-.32-1.36-.67-1.9-1.22-.14-.14-.25-.31-.34-.49-.13-.25-.18-.52-.07-.8.12-.29.22-.6.37-.88.34-.61.88-.86,1.55-.7.37.09.72.27,1.07.42.05.02.08.09.12.14Z"/>
    <path class="cls-3" d="m46.23,62.78c.19-.21.45-.22.7-.26.14-.02.3-.02.43.02.3.08.51.37.51.7,0,.34-.05.66-.2.98-.12.25-.26.48-.43.69-.14.18-.3.31-.52.39-.09.03-.17.1-.27.14-.09.03-.19.05-.28.07,0,0,0,0,0,0,.16-.09.3-.2.47-.26.23-.09.4-.24.56-.42.23-.26.35-.57.47-.89.1-.27.1-.54.08-.8-.01-.2-.13-.37-.32-.48-.21-.11-.42-.09-.63-.05-.19.04-.38.11-.57.17h0Z"/>
    <path class="cls-3" d="m97.69,69.34c.49,0,.98,0,1.47-.02.61-.03,1.22-.06,1.79-.29.32-.13.62-.28.94-.42-.19.31-.54.35-.83.49-.45.22-.95.27-1.43.3-.58.04-1.17.01-1.75,0-.06,0-.11-.05-.17-.07Z"/>
    <path class="cls-3" d="m77.46,82.74c-.02.21-.02.42-.06.63-.13.68-.28,1.35-.43,2.03,0,.03-.05.05-.08.08,0,0,.01,0,.01,0,0-.17,0-.34.03-.51.08-.4.18-.8.28-1.19.08-.34.17-.69.25-1.03h-.01Z"/>
    <path class="cls-3" d="m81.79,13.34c-.43.17-.67.5-.82.93-.03,0-.06,0-.08,0-.05-.11-.09-.22-.14-.33.36-.21.61-.55,1.04-.6Z"/>
    <path class="cls-3" d="m97.72,22.02c-.04.25.12.49.04.82-.25-.45-.26-.62-.04-.82Z"/>
    <path class="cls-3" d="m93.26,24.94c-.3-.21-.39-.5-.44-.81.04-.01.08-.03.11-.04.11.28.22.57.32.85Z"/>
    <path class="cls-3" d="m93.86,23.91c.07.26.13.51.2.77-.24-.21-.36-.45-.31-.75l.11-.03Z"/>
    <path class="cls-3" d="m92.06,24.53c.21.24.13.56.27.82-.22-.15-.31-.44-.27-.82Z"/>
    <path class="cls-3" d="m77.67,31.48c-.47-.24-.55-.4-.43-.71.13.22.26.43.43.71Z"/>
    <path class="cls-3" d="m96.66,22.49c.18.13.19.14.22.71-.19-.11-.24-.28-.22-.71Z"/>
    <path class="cls-3" d="m95.66,22.99c.08.32.14.56.22.86-.29-.23-.37-.53-.22-.86Z"/>
    <path class="cls-3" d="m74.42,32.72c-.49-.33-.52-.39-.24-.63.03.12.05.24.11.34.04.08.23.09.13.28Z"/>
    <path class="cls-3" d="m94.85,24.34c-.18-.21-.31-.44-.26-.79.23.26.21.54.26.79Z"/>
    <path class="cls-3" d="m89.98,25.65c.05.26.08.47.12.69-.29-.14-.33-.31-.12-.69Z"/>
    <path class="cls-3" d="m80.86,34.3c.17.12.32.22.47.33-.01.02-.03.05-.04.07-.19-.03-.39-.06-.51-.25-.01-.02.05-.1.08-.15Z"/>
    <path class="cls-3" d="m88.49,19.13c-.34.14-.52.05-.56-.3.19.1.35.18.56.3Z"/>
    <path class="cls-3" d="m101.87,68.63s.02-.09.04-.1c.28-.16.57-.32.85-.47-.23.31-.57.43-.9.57Z"/>
    <path class="cls-3" d="m91.41,25.01c.07.25.12.48.18.71-.3-.33-.33-.45-.18-.71Z"/>
    <path class="cls-3" d="m90.68,25.38c.07.24.13.43.21.71-.31-.26-.35-.4-.21-.71Z"/>
    <path class="cls-3" d="m89.07,26.15c.08.26.14.47.2.68-.25,0-.37-.33-.2-.68Z"/>
    <path class="cls-3" d="m86.73,31.67c-.22.12-.38.21-.54.29-.02-.26.12-.34.54-.29Z"/>
    <path class="cls-3" d="m90.4,30.8c.21-.09.33-.35.6-.3-.18.15-.3.4-.6.3Z"/>
    <path class="cls-3" d="m87.53,20.46c.17.04.33.09.52.13-.21.22-.33.2-.52-.13Z"/>
    <path class="cls-3" d="m98.75,21.68c.03.09.06.19.09.28.04.09.08.18.13.29-.29-.07-.33-.16-.22-.57Z"/>
    <path class="cls-3" d="m81.81,18.22c.09-.29.35-.12.53-.28-.09.27-.2.31-.53.28Z"/>
    <path class="cls-3" d="m70,23.31c.02.13.04.25.06.4h-.33c.07-.17.13-.3.19-.43.03.01.05.02.08.03Z"/>
    <path class="cls-3" d="m79.3,29.63c.06.17.12.35.17.52,0,.01-.03.04-.06.08-.15-.18-.29-.35-.22-.58.04,0,.07-.01.11-.02Z"/>
    <path class="cls-3" d="m76.77,31.12c.11.22.2.4.32.64-.44-.23-.46-.28-.32-.64Z"/>
    <path class="cls-3" d="m76.11,31.93q-.34-.16-.16-.43c.06.16.11.3.16.43Z"/>
    <path class="cls-3" d="m87.29,33.62h-.57c.18-.27.23-.27.57,0Z"/>
    <path class="cls-3" d="m88.6,17.96c-.21.14-.39.11-.55-.12.23-.1.37.08.55.12Z"/>
    <path class="cls-3" d="m76.48,20.81c.07-.17.14-.34.23-.54.1.25.09.27-.15.57-.03-.01-.05-.02-.08-.03Z"/>
    <path class="cls-3" d="m78.18,22.16c.09-.15.17-.31.26-.46.08.23.02.4-.15.52-.04-.02-.07-.04-.11-.06Z"/>
    <path class="cls-3" d="m71.66,24.5c-.11-.22,0-.4.07-.58.03,0,.06,0,.09.01-.02.19-.04.39-.06.58-.03,0-.07,0-.1,0Z"/>
    <path class="cls-3" d="m88.22,19.85c-.4.15-.44.14-.64-.18.23.06.4.11.64.18Z"/>
    <path class="cls-3" d="m87.07,32.77c-.16.03-.32.07-.54.11.05-.1.07-.2.1-.2.14-.02.29,0,.43,0,0,.03,0,.06,0,.09Z"/>
    <path class="cls-3" d="m73.53,32.47c.09.17.16.3.22.44-.32.03-.37-.06-.22-.44Z"/>
    <path class="cls-3" d="m81.02,35.4c-.48-.07-.54-.13-.4-.38.13.12.26.25.4.38Z"/>
    <path class="cls-3" d="m88.91,16.82c-.19.12-.33.13-.45,0-.03-.03,0-.13,0-.25.17.09.29.16.46.24Z"/>
    <path class="cls-3" d="m82.02,32.33c.12.13.23.26.39.43-.53-.17-.56-.2-.39-.43Z"/>
    <path class="cls-3" d="m75.54,25.65c-.03.19-.06.37-.1.64-.15-.36-.15-.38.1-.64Z"/>
    <path class="cls-3" d="m89.57,25.81c.03.24.05.42.08.63-.26-.19-.27-.31-.08-.63Z"/>
    <path class="cls-3" d="m75.11,31.81c.06.19.11.33.16.48-.33-.15-.36-.24-.16-.48Z"/>
    <path class="cls-3" d="m91.42,31.1c-.16.09-.32.19-.52.3.14-.33.17-.35.52-.3Z"/>
    <path class="cls-3" d="m76.44,25.7c-.02.26-.03.46-.05.65-.19-.26-.18-.3.05-.65Z"/>
    <path class="cls-3" d="m81.71,33.96c-.21,0-.38-.07-.48-.32.26,0,.36.18.48.32Z"/>
    <path class="cls-3" d="m70.97,23.52c-.02.16.15.36-.1.49-.16-.22-.04-.36.1-.49Z"/>
    <path class="cls-3" d="m88.52,15.78c.21.05.34.08.49.11-.23.22-.32.21-.49-.11Z"/>
    <path class="cls-3" d="m87.62,21.85c-.21.09-.35.09-.46-.05-.03-.04,0-.11,0-.17.04,0,.09,0,.12.02.1.05.19.11.34.2Z"/>
    <path class="cls-3" d="m73.63,24.53c-.05.28-.08.49-.12.72-.16-.34-.15-.44.12-.72Z"/>
    <path class="cls-3" d="m81.56,15.46c-.13.29-.16.31-.47.26.07-.22.24-.23.47-.26Z"/>
    <path class="cls-3" d="m99.71,21.26c.03.18.06.35.08.53-.03,0-.06.01-.09.02-.13-.15-.15-.33-.11-.53.04,0,.08-.01.12-.02Z"/>
    <path class="cls-3" d="m77.17,26.88c-.17-.23.01-.37.09-.53.08.18.06.35-.09.53Z"/>
    <path class="cls-3" d="m75.61,19.85c-.12-.26,0-.38.13-.55.08.23,0,.36-.13.55Z"/>
    <path class="cls-3" d="m74.38,25.81c-.09-.19-.01-.36.08-.52.03,0,.06,0,.09.01-.02.17-.03.34-.05.51-.04,0-.07,0-.11-.01Z"/>
    <path class="cls-3" d="m74.59,18.45c-.1.2-.15.32-.23.46-.14-.27-.13-.3.23-.46Z"/>
    <path class="cls-3" d="m79.38,23.52c.08-.14.16-.29.25-.43.08.23-.02.36-.14.49-.04-.02-.07-.04-.11-.06Z"/>
    <path class="cls-3" d="m82.11,19.82c.07-.18.23-.19.38-.23-.03.26-.08.29-.38.23Z"/>
    <path class="cls-3" d="m80.06,36.85c-.11-.04-.22-.08-.34-.12.05-.1.08-.16.13-.25.1.13.17.22.24.32,0,.02-.02.04-.03.06Z"/>
    <path class="cls-3" d="m87.29,35.53c.09-.32.24-.21.37-.19,0,.04.01.08.02.11-.13.03-.26.05-.39.08Z"/>
    <path class="cls-3" d="m93.14,33.17s-.02.07-.03.07c-.11.04-.22.08-.33.12-.03-.24,0-.25.36-.19Z"/>
    <path class="cls-3" d="m80.92,14.83c.09-.08.19-.15.28-.23.14.23.13.24-.28.23Z"/>
    <path class="cls-3" d="m87.38,21.09c.12.05.22.09.41.18-.13.06-.21.12-.27.11-.11-.02-.25-.06-.14-.28Z"/>
    <path class="cls-3" d="m73.28,17.94c-.05-.2,0-.33.21-.38.05.22-.08.3-.21.38Z"/>
    <path class="cls-3" d="m78.72,30.07c.07.15.13.28.22.46-.37-.16-.38-.18-.22-.46Z"/>
    <path class="cls-3" d="m81.72,16.36c-.08.21-.22.19-.36.22q.04-.23.36-.22Z"/>
    <path class="cls-3" d="m87.45,34.43c-.19.02-.33.04-.47.05.14-.28.15-.28.47-.05Z"/>
    <path class="cls-3" d="m79.04,23.18q-.02-.24.17-.45.01.29-.17.45Z"/>
    <path class="cls-3" d="m77.05,21.37c.05-.14.1-.28.19-.51.13.3-.03.4-.07.55-.04-.01-.08-.03-.11-.04Z"/>
    <path class="cls-3" d="m87.2,22.26c.07.08.14.17.23.28-.13.09-.24.1-.32-.02-.03-.05,0-.15,0-.22.03-.01.06-.03.1-.04Z"/>
    <path class="cls-3" d="m77.97,26.74c.06.26-.02.37-.22.45-.04-.22.11-.29.22-.45Z"/>
    <path class="cls-3" d="m72.73,16.93c-.01.17-.02.29-.03.42-.22-.13-.22-.16.03-.42Z"/>
    <path class="cls-3" d="m82.03,19.06q.14-.21.37-.26-.08.2-.37.26Z"/>
    <path class="cls-3" d="m72.63,24.96l.09-.44c.08.17.14.33.02.46-.04,0-.07-.01-.11-.02Z"/>
    <path class="cls-3" d="m82.01,33.31c-.16,0-.34.02-.38-.24.2-.02.28.14.38.24Z"/>
    <path class="cls-3" d="m80.54,36.09c-.14-.08-.39-.04-.32-.37.14.11.27.21.39.31l-.07.07Z"/>
    <path class="cls-3" d="m82.17,31.85c.13.06.27.11.43.18q-.32.08-.43-.18Z"/>
    <path class="cls-3" d="m75.02,18.94c.05.16-.02.27-.22.32l.11-.35s.07.02.11.03Z"/>
    <path class="cls-3" d="m95.72,36.82q.06-.32.38-.28c-.14.1-.25.18-.38.28Z"/>
    <path class="cls-3" d="m72.88,32.84c0,.13.01.23.02.36q-.28-.15-.02-.36Z"/>
    <path class="cls-3" d="m81.57,17.48c.1-.23.22-.27.41-.22-.05.22-.2.21-.41.22Z"/>
    <path class="cls-3" d="m73.79,18.14c.04-.13.09-.26.13-.39.15.18.09.31,0,.43-.04-.01-.09-.03-.13-.04Z"/>
    <path class="cls-3" d="m71.99,33.04v.46q-.21-.18,0-.46Z"/>
    <path class="cls-3" d="m78.29,30.87c-.37-.21-.38-.24-.17-.41.05.13.1.25.17.41Z"/>
    <path class="cls-3" d="m77.9,21.36c-.06.12-.12.24-.2.4q-.07-.26.13-.45s.05.03.07.05Z"/>
    <path class="cls-3" d="m83.02,22.45c.11-.05.21-.1.34-.15q-.06.23-.34.15Z"/>
    <path class="cls-3" d="m80.6,24.17c-.05.21-.07.33-.29.35.02-.17.06-.28.29-.35Z"/>
    <path class="cls-3" d="m82.87,21.48c.1-.02.21-.04.35-.07q-.13.23-.35.07Z"/>
    <path class="cls-3" d="m94.39,34.99c.04-.06.06-.15.11-.18.05-.03.13,0,.22.08-.09.05-.18.1-.28.15-.02-.02-.04-.04-.06-.06Z"/>
    <path class="cls-3" d="m87.11,23.02c.1.05.21.1.33.17-.24.23-.3.06-.39-.05.02-.04.04-.08.06-.12Z"/>
    <path class="cls-3" d="m79.81,24c.03-.21.12-.31.28-.4.02.22-.06.33-.28.4Z"/>
    <path class="cls-3" d="m96.97,69.18c.26-.02.52.02.74.17-.26.01-.51-.03-.74-.17Z"/>
    <path class="cls-3" d="m88.79,15.12c.16-.12.27-.07.38,0q-.1.18-.38,0Z"/>
    <path class="cls-3" d="m89.96,30.65q.09-.2.39-.21c-.14.12-.24.2-.33.28-.02-.02-.04-.04-.06-.07Z"/>
    <path class="cls-3" d="m83.07,20.59c-.13.12-.21.2-.35.33q.06-.31.35-.33Z"/>
    <path class="cls-3" d="m80.36,23.96c-.05.09-.1.18-.16.3q-.12-.18.16-.3Z"/>
    <path class="cls-3" d="m93.9,34.08c.04.2-.09.24-.23.34-.07-.25.13-.26.23-.34Z"/>
    <path class="cls-3" d="m95.47,36.06c-.11.05-.22.1-.36.16q.1-.26.36-.16Z"/>
    <path class="cls-3" d="m78.86,22.42c-.05.12-.11.25-.19.44-.14-.27.04-.35.07-.47.04.01.08.02.11.03Z"/>
    <path class="cls-3" d="m87.99,37.53c.23-.19.33-.08.42.09-.12-.02-.23-.05-.42-.09Z"/>
    <path class="cls-3" d="m76.26,19.76c.03.13.06.26-.18.4.03-.19.05-.31.07-.42.03,0,.07.01.1.02Z"/>
    <path class="cls-3" d="m83,31.83q-.31-.09-.28-.41c.09.14.16.24.28.41Z"/>
    <path class="cls-3" d="m78.66,27.2c.05-.13.09-.23.14-.35q.09.24-.14.35Z"/>
    <path class="cls-3" d="m87.98,36.52c-.09.06-.17.11-.29.19q.06-.25.29-.19Z"/>
    <path class="cls-3" d="m80.63,24.81q.06-.23.23-.32c.07.2-.09.22-.23.32Z"/>
    <path class="cls-3" d="m79.55,37.23v.37q-.19-.16,0-.37Z"/>
    <path class="cls-3" d="m92.51,32.35c-.1.06-.19.11-.35.21.05-.26.18-.27.29-.31l.06.1Z"/>
    <path class="cls-3" d="m96.82,37.16c-.04.08-.09.15-.16.28-.07-.2,0-.27.16-.28Z"/>
    <path class="cls-3" d="m91.86,31.7c-.13.11-.2.18-.33.3,0-.25.09-.31.33-.3Z"/>
    <path class="cls-3" d="m88.72,38.58c-.27.01-.27-.08-.22-.29.09.13.14.19.22.29Z"/>
    <path class="cls-3" d="m81.39,16.76h.4v.05h-.4s0-.04,0-.05Z"/>
    <path class="cls-3" d="m95.7,65.13c-.11-.1-.22-.2-.33-.29.18.02.29.12.33.29Z"/>
    <path class="cls-3" d="m89.71,14.58c-.06.04-.1.09-.11.08-.05-.03-.09-.07-.14-.1.03-.03.06-.08.08-.07.05.01.1.05.17.09Z"/>
    <path class="cls-1" d="m81.91,61.79c.12-.49.24-1.03.4-1.54.06-.19.05-.34-.07-.48-.24-.31-.57-.43-.96-.38-.29.04-.53.38-.59.78-.07.47-.14.95-.21,1.42-.01.09-.05.18-.09.31-.41,0-.82,0-1.23,0-.2,0-.4.02-.6.03-.15,0-.29.01-.44,0-.37-.03-.74-.07-1.1-.12-.49-.06-.97-.14-1.46-.21-.49-.07-.97-.14-1.46-.22-.1-.02-.2-.06-.31-.08-.29-.08-.58-.16-.88-.24-.12-.03-.23-.06-.34-.1-.27-.1-.3-.15-.17-.41.31-.59.52-1.22.76-1.84.15-.38-.09-.88-.63-.86-.26.01-.42.14-.53.36-.17.33-.36.66-.51,1-.12.28-.21.57-.3.86-.03.1-.05.21-.09.31-.09.21-.17.26-.37.17-.59-.27-1.18-.55-1.77-.82-.08-.04-.16-.09-.25-.12-.31-.1-.57-.28-.76-.55-.08-.11-.17-.21-.26-.31-.67-.72-.69-1.6-.54-2.47.07-.39.34-.75.55-1.1.18-.29.39-.58.63-.82.42-.42.98-.59,1.53-.73.3-.08.63-.03.93.1.51.23.94.55,1.29.99.08.1.12.23.19.39.07-.09.13-.15.17-.22.26-.4.61-.68,1.08-.85.93-.33,1.9-.42,2.87-.4.45,0,.87.18,1.16.55.38.47.75.96,1.14,1.46.44-.66,1.21-.78,1.9-1.03.08-.03.18-.03.27-.04.28-.02.55-.04.8-.19.22-.13.45-.14.7-.08.21.05.42.08.63.12.08.02.16.03.23.07.41.24.8.51,1.23.72.35.17.57.43.69.77.17.49.38.98.45,1.49.05.35-.05.74-.14,1.1-.09.39-.24.76-.35,1.15-.19.68-.61,1.22-1.09,1.7-.41.41-.92.68-1.54.66-.21,0-.39-.05-.58-.26Zm-8.63-2.54c.47-.29.66-.55.39-1.25-.23-.6-.77-.57-1.27-.6-.24-.02-.36.09-.46.38.25-.26.54-.24.81-.23.37.01.67.17.81.54.13.33.15.65-.16.91-.07.06-.09.16-.14.24Zm9.48.52c0-.87-.27-1.08-.85-1.03.1.05.15.09.21.1.3.06.46.23.51.53.02.14.09.27.13.4Zm-8.47-1.63c.06-.48-.12-.71-.62-.82.17.14.31.23.4.34.09.12.13.27.22.48Zm-1.99-1.08c-.25-.2-.27-.2-.58-.03.22.01.38.02.58.03Zm.4-.86s0,.06,0,.1c.14.02.28.12.45,0-.15-.03-.29-.06-.44-.1Zm-1.46,2s-.07,0-.11-.01c-.02.11-.13.22.05.39.02-.16.04-.26.06-.37Z"/>
    <path class="cls-1" d="m77.47,82.75c-.08.34-.17.69-.25,1.03-.1.4-.2.79-.28,1.19-.03.16-.02.34-.03.51-.06.2-.14.39-.17.6-.07.43-.11.87-.19,1.3-.04.21-.13.4-.19.6-.04.14-.09.28-.11.42-.03.18-.01.38-.06.55-.22.76-.28,1.54-.43,2.31-.1.52-.26,1.03-.39,1.54-.04.15-.04.31-.06.47-.04.11-.07.22-.12.32-.16.41-.32.82-.48,1.22-.14.36-.29.72-.45,1.07-.22.49-.5.6-.91.37-.14-.08-.27-.17-.4-.26-.19-.12-.21-.28-.17-.49.15-.81.39-1.6.67-2.38.07-.19.11-.38.16-.57.25-.87.5-1.74.74-2.61.06-.2.09-.42.14-.62.08-.32.17-.64.24-.97.05-.23.09-.47.13-.7.15-.81.36-1.61.63-2.39.18-.51.27-1.05.41-1.58.15-.58.3-1.16.47-1.73.09-.3.26-.58.36-.89.12-.38.25-.76.3-1.15.08-.59.21-1.17.37-1.75.17-.64.27-1.3.38-1.96.09-.52.15-1.04.29-1.56.14-.5.19-1.02.32-1.52.25-.89.54-1.76.8-2.64.2-.69.39-1.38.46-2.11.09-.92.21-1.85.37-2.76.15-.84.38-1.66.55-2.5.16-.78.28-1.57.4-2.36.07-.42.12-.84.35-1.27.16.04.33.06.48.13.38.16.41.27.3.68-.17.65-.29,1.32-.44,1.98-.1.44-.21.88-.29,1.32-.24,1.34-.48,2.67-.7,4.01-.22,1.29-.42,2.57-.79,3.83-.29,1-.57,2-.81,3.01-.2.85-.33,1.72-.5,2.59-.11.55-.19,1.11-.37,1.64-.28.8-.34,1.64-.51,2.46-.08.39-.14.79-.2,1.18-.02.14-.03.29-.04.43Z"/>
    <path class="cls-1" d="m88.78,39.47c.09.12.18.25.29.41.08-.13.15-.23.21-.34.2-.31.78-.56,1.12-.45.14.04.27.17.36.29.09.12.11.29.19.5.09-.09.17-.16.25-.24.41-.44.88-.4,1.18.11.12.2.2.44.23.68.04.26-.1.48-.31.66-.4.35-.91.35-1.39.45-.66.15-1.33.26-2,.37-.3.05-.61.07-.91.06-.77-.02-1.54-.1-2.29-.26-.02,0-.04-.03-.06-.04-.01-.2,0-.4-.03-.59-.04-.26-.26-.47-.46-.48-.23-.01-.45.17-.54.45-.03.1-.06.21-.09.31-.01.04-.04.07-.08.12-.34-.05-.69-.09-.97-.35-.38-.35-.49-.76-.24-1.21.13-.23.3-.45.5-.61.41-.33.85-.28,1.26.12.15.14.25.33.4.54.03-.09.08-.17.1-.26.05-.34.25-.53.57-.57.25-.04.51-.07.75-.02.14.03.26.21.36.34.07.1.1.23.18.44.08-.19.11-.3.16-.4.22-.47.95-.55,1.23-.14.03.04.03.1.04.15-.1-.05-.21-.17-.32.04.1.03.19.06.27.07,0,0,.03-.08.04-.12Zm-2.97,1.22c-.08-.3-.17-.41-.38-.5-.49-.19-1.15.21-1.23.76,0,.06.03.13.05.24.42-.92.92-1.08,1.56-.5Zm4.57-.08c.23-.33.22-.63-.04-.9.01.3.03.59.04.9Zm-3.62-.1c.15-.24.11-.32-.21-.43.08.16.14.29.21.43Zm1.55-.58c.02.2.04.4.08.7.13-.41.13-.44-.08-.7Zm.58.46q.16.18.3.01c-.11,0-.2,0-.3-.01Zm-2.05.85s.08-.01.13-.02c-.02-.09-.04-.18-.05-.28-.03,0-.07.01-.1.02,0,.09.02.19.02.28Zm-.91-.07c0-.08-.02-.16-.03-.27-.19.12-.11.2.03.27Z"/>
    <path class="cls-1" d="m69.24,85.99c-.25-.08-.49-.17-.74-.25-.53-.17-1.07-.32-1.59-.5-.83-.29-1.65-.6-2.48-.9-.14-.05-.28-.1-.4-.18-.23-.15-.25-.41-.07-.62.23-.27.5-.44.87-.3.19.07.4.08.57.18.37.23.79.31,1.2.43.84.24,1.69.47,2.54.71.53.15,1.06.29,1.57.47.57.19,1.11.43,1.68.64.63.23,1.26.43,1.89.65.16.06.33.11.53.18-.07.28-.14.54-.22.85-.19-.03-.36-.06-.54-.1-.62-.13-1.25-.25-1.87-.41-.58-.15-1.14-.36-1.72-.53-.41-.12-.82-.21-1.23-.32,0,0,.01.01.01.01Z"/>
    <path class="cls-1" d="m66.32,75.85c.31-.15.64-.13.94-.06.99.21,1.96.46,2.95.69.24.06.5.08.75.08.47.01.91.1,1.34.32.24.13.53.17.8.24.74.2,1.49.39,2.23.6.54.14,1.07.3,1.66.46,0,.34-.16.67-.27,1.05-.33-.07-.63-.14-.92-.2-.23-.05-.47-.11-.7-.15-1.13-.19-2.22-.52-3.3-.9-.95-.34-1.89-.73-2.89-.88-.37-.06-.74-.12-1.09-.23-.37-.13-.73-.31-1.07-.5-.18-.1-.36-.23-.41-.5Z"/>
    <path class="cls-1" d="m69.13,67.94c.77-.29,1.55-.23,2.31-.09.45.09.88.28,1.33.39.29.07.6.1.91.13.72.07,1.45.09,2.17.26.89.22,1.78.42,2.67.63.14.03.27.1.45.17-.07.29-.14.55-.22.87-.27-.03-.53-.06-.78-.1-.75-.11-1.5-.21-2.25-.33-.67-.11-1.34-.23-2.01-.34-.39-.07-.79-.14-1.18-.21-.65-.13-1.31-.23-1.96-.4-.41-.11-.79-.31-1.18-.49-.2-.09-.31-.25-.26-.51Z"/>
    <path class="cls-1" d="m77.25,39.52c.22-.44.53-.71.92-.87.49-.21.96.03,1.04.51.01.09.03.18.04.27.03.03.06.06.1.08.02-.06.03-.13.06-.19.17-.31.46-.34.76-.29.33.05.5.3.56.6.11.51,0,.92-.46,1.26-.58.43-1.2.59-1.94.46.03-.14.04-.26.07-.37.02-.06.06-.12.08-.18.08-.29,0-.64-.17-.74-.21-.12-.7.02-.86.26-.17.27-.33.55-.46.84-.07.16-.16.24-.33.22-.58-.05-1.09-.26-1.47-.7-.32-.37-.31-.92.04-1.27.23-.23.51-.43.8-.59.36-.21.82-.02,1.05.37.05.08.09.17.17.32Zm.92.04c.17.14.35.28.52.42.22.18.12.46.19.72.27-.54-.06-1.11-.71-1.13Zm-1.57,1.08s.04.04.07.06c.1-.12.2-.23.3-.35.09-.11.28-.14.31-.37-.37.12-.58.33-.67.66Zm1.44-1.43c.21.11.37.15.58,0-.2-.07-.34-.18-.58,0Zm-.57.57q.31.1.35-.14c-.12.05-.24.09-.35.14Zm-.77.13q-.19-.17-.27.01c.1,0,.18,0,.27-.01Zm2.19.96q-.19.15-.11.34c.05-.14.08-.24.11-.34Z"/>
    <path class="cls-1" d="m83.45,54.24c-.29-.1-.55-.19-.82-.28.02-.14.03-.28.07-.4.31-.9.39-1.84.58-2.77.19-.93.36-1.86.52-2.79.11-.63.17-1.26.27-1.89.1-.62.24-1.23.33-1.84.06-.39.06-.79.09-1.19.01-.12.03-.24.06-.35.09-.34.18-.67.28-1,.03-.1.07-.21.14-.28.06-.06.18-.09.25-.07.06.02.1.14.12.22.12.48,0,.96-.04,1.43-.07.85-.17,1.7-.29,2.54-.11.75-.26,1.49-.39,2.24-.14.76-.27,1.52-.41,2.28-.09.54-.18,1.08-.27,1.61-.08.45-.17.89-.25,1.33-.05.3-.08.61-.13.91-.02.1-.07.19-.11.31Z"/>
    <path class="cls-2" d="m77.59,42.02c-.3.03-.44.2-.56.58-.08.25-.05.34.23.57-.19-.49.02-.82.33-1.15Zm-.35,1.28c.01.2.15.24.33.25-.01-.24-.21-.2-.33-.25Z"/>
    <path class="cls-1" d="m80.15,63.43c-.08.41-.15.76-.23,1.17-.5-.09-1.01-.14-1.49-.27-1.11-.3-2.23-.5-3.35-.77-.84-.2-1.66-.49-2.48-.74-.27-.08-.54-.14-.81-.21-.09-.02-.18-.05-.26-.09-.32-.15-.35-.22-.22-.62.56-.05,1.13-.06,1.69.1.74.2,1.5.36,2.24.57.72.2,1.45.31,2.2.36.4.03.78.14,1.18.21.35.07.71.13,1.06.2.14.03.28.06.46.1Z"/>
    <path class="cls-1" d="m74.83,51.78c.02-.32.21-.53.49-.56.27-.03.56-.06.83-.03.61.08,1.21.21,1.81.3.43.07.87.12,1.3.17.62.07,1.24.11,1.86.2.5.07.99.18,1.51.28-.05.29-.09.56-.14.87-.1,0-.19.03-.27.02-.54-.09-1.07-.18-1.61-.27-.05,0-.11-.02-.16-.02-.66,0-1.29-.14-1.93-.25-.76-.13-1.53-.22-2.28-.36-.47-.08-.93-.22-1.41-.34Z"/>
    <path class="cls-1" d="m83.44,47.8c-.06.3-.12.55-.17.8-1.12-.03-2.17-.28-3.23-.47-.6-.11-1.21-.19-1.81-.29-.44-.08-.89-.16-1.33-.26-.23-.06-.44-.17-.64-.25,0-.48.09-.56.5-.54.2,0,.4.05.59.08.13.02.26.06.39.08.48.06.95.11,1.43.17.61.08,1.21.15,1.82.25.7.11,1.4.23,2.09.35.1.02.2.06.36.11Z"/>
    <path class="cls-1" d="m84.19,43.61c-.03.2-.06.41-.1.66-.47-.08-.88-.15-1.3-.23-1.09-.21-2.19-.4-3.28-.65-.53-.12-1.06-.24-1.59-.35-.06-.01-.14-.02-.19-.06-.07-.06-.18-.14-.18-.22,0-.14.12-.19.25-.2.11,0,.21-.02.32-.01.53.05,1.06.08,1.58.17.34.06.65.22.99.29.89.18,1.78.33,2.67.48.25.04.5.08.82.12Z"/>
    <path class="cls-3" d="m75.72,46.67c.14-.1.27-.19.48-.35-.13.28-.28.47-.31.69-.04.21.03.44.05.66h0c-.18-.01-.26-.12-.26-.28,0-.15.03-.31.04-.46v-.26Z"/>
    <path class="cls-6" d="m44.55,99.29c.49,0,.98-.02,1.44.2.11.06.23.15.29.26.17.3.33.61.47.93.06.13.08.28.07.43-.04.85.24,1.51,1,1.94.02.01.05.02.07.04.52.51,1.18.8,1.82,1.14.33.18.41.35.3.72-.11.37-.23.74-.38,1.09-.09.2-.24.38-.4.54-.22.23-.52.16-.79.11-.17-.03-.36-.14-.48-.26-.33-.34-.65-.71-.95-1.08-.38-.47-.86-.81-1.43-.98-.26-.07-.59,0-.86.09-.95.32-1.84.17-2.7-.29-.15-.08-.3-.17-.46-.26,0-.06,0-.12.03-.18.12-.37.26-.73.34-1.1.06-.26-.02-.54.03-.79.08-.43-.07-.81-.19-1.2-.02-.05-.03-.1-.05-.15-.09-.2-.38-.4-.57-.38-.23.02-.3.23-.36.39-.1.29-.13.6-.19.89-.04.2-.08.39-.15.58-.11.34-.26.44-.6.38-.42-.08-.83-.19-1.24-.32-.28-.09-.54-.22-.84-.35.53-.18.74-.58.54-1.08-.2-.49-.44-.97-.89-1.3-.8-.61-1.31-1.42-1.66-2.35-.17-.46-.12-.93.1-1.36.16-.3.38-.57.58-.85,0,0-.03.02-.03.02.29-.23.58-.46.87-.7.22-.19.47-.28.75-.35.24-.06.48-.15.71-.26.21-.1.4-.25.61-.39.42.48,1.01.71,1.57.99.3.15.58.32.87.48.19.1.38.19.57.27.37.15.41.3.14.62-.32.36-.58.77-.76,1.21-.02.04-.02.08-.03.14.52.53,1.22.81,1.88,1.2-.14.25-.26.47-.39.68-.32.5-.48,1.03-.36,1.63.03.13-.03.27-.05.43.32,0,.55-.2.77-.4.24-.21.48-.42.7-.65.11-.11.18-.25.27-.38h-.01Zm-4.38-3.26s.01-.05.02-.07c-.16-.1-.33-.2-.5-.31.09-.2.16-.36.25-.55.23.14.42.26.62.39.02-.02.03-.05.05-.07-.13-.1-.24-.22-.38-.29-.33-.15-.39-.41-.34-.73.02-.13.08-.25.11-.38.02-.07.02-.14.03-.21-.09.03-.14.07-.16.13-.11.25-.17.5-.13.78.1.76-.42,1.46-1.15,1.58-.17.03-.35,0-.52.04-.3.06-.59.14-.89.22-.04.01-.07.1-.12.18.29-.1.52-.17.76-.25.1.27.18.49.29.78.13-.31-.04-.52-.02-.77.18-.02.35-.04.57-.06v.6c.21.05.31,0,.22-.18-.08-.16-.11-.29-.04-.46.12-.05.24-.1.35-.15.16.09.18.35.43.32q-.29-.45.01-.72c.19.06.37.12.56.18Zm3.92,5.04c0-.06-.01-.11-.02-.17-.42.33-.86.29-1.28.11-.47-.2-.49-.72-.69-1.12-.03.05-.06.07-.05.09.08.42.25.81.51,1.14.16.2.39.28.64.22.3-.07.6-.18.9-.27Z"/>
    <path class="cls-1" d="m56.84,112.07c.27.08.5.15.76.23-.03.26-.04.49-.1.7-.08.3-.23.39-.53.34-.52-.09-1.05-.2-1.57-.29-.18-.03-.38-.05-.56-.03-.56.08-1.12.2-1.69.29-.15.03-.32,0-.47.04-.3.07-.6.12-.88.24-.73.31-1.46.64-2.15,1.04-.64.37-1.34.64-2.02.95-.05.02-.11.02-.15.05-.29.23-.64.27-1,.34-.43.1-.65-.08-.85-.4-.13-.2-.26-.41-.37-.62-.09-.16-.19-.33-.23-.51-.13-.68-.24-1.36-.36-2.07.39-.09.76-.16,1.11-.26.54-.16,1.06-.38,1.42-.83.16-.2.25-.5.28-.77.1-.89.16-1.79.24-2.69,0-.02.02-.04.05-.09,1.31.58,2.29-.05,3.19-.97.09.11.17.19.22.27.58.93,1.33,1.73,2.01,2.57.54.66,1.31.95,2.14,1.05.37.05.74.06,1.11.09.18.02.37.05.56.08-.06.41-.12.8-.18,1.2Z"/>
    <path class="cls-1" d="m61.97,107.29c-.21-.02-.39-.03-.57-.05-1.06-.07-2.11,0-3.15.18-.35.06-.71.03-1,.3-.2-.41-.38-.79-.58-1.17-.1-.19-.21-.37-.33-.54-.06-.08-.16-.15-.25-.18-.61-.17-1.23-.33-1.84-.5,0,0-.02.02-.06.06.06.04.11.09.16.11.5.14,1,.28,1.51.4.29.07.48.24.6.49.22.45.43.92.62,1.38.1.24.09.25.46.39,0,.32.04.67.02,1.01-.01.33-.14.42-.48.46-.73.08-1.37-.14-1.97-.51-.49-.3-.96-.62-1.43-.95-.14-.1-.25-.24-.38-.35-.47-.39-.94-.79-1.42-1.17-.2-.16-.27-.33-.24-.58.07-.49.04-.96-.21-1.42-.14-.26-.37-.32-.56-.47-.09-.07-.21-.11-.34-.17.15-.31.44-.44.69-.59.34-.2.72-.34,1.06-.55.66-.39,1.36-.53,2.12-.56.98-.03,1.92.11,2.85.39.46.14.94.18,1.42.25.69.11,1.24.49,1.72.95.38.37.74.78,1.04,1.21.34.48.46,1.07.54,1.65.02.16,0,.32,0,.53Z"/>
    <path class="cls-1" d="m69.84,110.47c.13.5.24.95.35,1.39.03.13.06.26.06.39,0,.6,0,1.2,0,1.8,0,.16.03.31.04.51-.12.02-.23.04-.35.06-.98.23-1.98.26-2.98.16-1.07-.1-2.15-.17-3.22-.26-.36-.03-.71-.12-1.06-.18-.17-.03-.34-.02-.5-.05-.46-.07-.92-.17-1.38-.22-.34-.04-.68,0-1.06,0,.09-.49.17-.95.25-1.39.05-.02.08-.04.1-.04.48.13.57.05.67-.55.06-.38.1-.76.14-1.12.59.04,1.15.12,1.7.12.93,0,1.86-.03,2.78-.08.48-.03.95-.13,1.43-.19.8-.11,1.61-.21,2.41-.32.22-.03.44-.03.62-.05Z"/>
    <path class="cls-1" d="m61.99,105.59c.34-.04.62-.06.89-.1.61-.08,1.21-.16,1.82-.25.08-.01.16-.02.24-.02.76,0,1.52,0,2.28,0,.75-.01,1.49-.05,2.24-.08.14,0,.28.02.45.03-.05,1.42-.09,2.81-.14,4.21-.3.03-.61.06-.93.08-.41.02-.82.02-1.23.03-.07,0-.15-.01-.2.02-.42.29-.89.22-1.35.22-1,0-2,.01-3,.13-.46.05-.93.03-1.4.03-.17,0-.33-.06-.54-.09.12-.66.23-1.28.35-1.96.27-.02.55-.04.87-.06-.03-.73-.09-1.44-.36-2.18Z"/>
    <path class="cls-1" d="m37.81,109.43c1.03,0,1.94-.39,2.95-.63.05.21.11.4.15.6.13.64.22,1.29.38,1.92.1.42.37.73.85.8.14.02.3.04.42.12.38.24.79.23,1.2.18.18-.02.27.02.32.2.11.41.29.81.34,1.23.05.37.17.69.28,1.04.04.13.07.27.11.42-.73.32-1.46.32-2.19.26-.37-.03-.73-.13-1.09-.23-.24-.07-.49-.15-.69-.3-.45-.33-.95-.58-1.36-.97-.44-.41-.74-.89-.91-1.43-.28-.92-.49-1.86-.72-2.79-.03-.12-.02-.26-.04-.43Z"/>
    <path class="cls-6" d="m70.49,111.29c.22-.05.42-.14.62-.14.71,0,1.4-.16,2.09-.26.3-.05.61-.05.93-.07.1-.4.05-.79.03-1.19-.01-.35.16-.58.47-.71.24-.1.36-.08.43.18.07.28.08.57.11.86.01.12.03.24.04.37.24-.04.21-.19.22-.32,0-.34.04-.66.23-.96.08-.13.15-.26.32-.26.18,0,.3.12.35.28.09.29.18.58.25.88.04.16.06.33.09.53.21-.1.14-.25.13-.36,0-.25-.06-.5-.05-.76,0-.21.06-.42.14-.61.04-.1.19-.17.31-.2.14-.04.22.09.25.21.06.22.13.44.15.66.04.41.06.82.06,1.23,0,.49,0,.99-.11,1.46-.09.36-.26.7-.42,1.03-.14.27-.42.38-.7.41-.63.07-1.27.14-1.91.16-.76.03-1.52.02-2.28.04-.24,0-.47.06-.71.09-.25.03-.5.05-.76.06-.19.01-.27-.09-.26-.27.01-.21.05-.42.05-.64-.01-.55-.04-1.09-.06-1.71Z"/>
    <path class="cls-6" d="m75.87,104.3c0-.16,0-.33,0-.49,0-.28-.02-.57.03-.84.04-.22.12-.52.39-.54.29-.03.35.28.4.48.13.51.28,1.02.24,1.57-.02.29-.05.59,0,.87.07.5-.17.93-.29,1.39-.16.61-.6.89-1.19.96-.36.04-.72.02-1.08.03-.57.02-1.14.05-1.71.08-.74.04-1.49.09-2.23.13-.08,0-.15-.02-.26-.04.03-.73.06-1.44.1-2.16.02-.31.12-.39.44-.38.37.01.75.08,1.12.04.43-.05.85-.18,1.27-.31.17-.05.32-.19.31-.42,0-.22.01-.45.02-.67,0-.24,0-.48.03-.71.03-.26.15-.33.49-.37.22.52.42,1.05.41,1.63.18.03.21-.06.22-.18,0-.27.01-.53.01-.8,0-.29.14-.53.28-.77.4.1.59.34.66.69.06.28.14.56.21.84.05,0,.09-.01.14-.02Z"/>
    <path class="cls-6" d="m40.56,108.51c-.56.32-1.23.18-1.81.4-.05-.06-.09-.09-.09-.12-.1-.67-.21-1.34-.29-2.01-.07-.63-.31-1.15-.86-1.5-.25-.16-.46-.34-.61-.62-.08-.14-.27-.22-.43-.35.15-.1.28-.06.4.02.22.13.43.27.64.4.15.09.29.19.45.26.16.07.33.1.52.12-.34-.48-.84-.88-.88-1.57.51.28.78.91,1.46.92.02-.2-.07-.26-.2-.33-.39-.2-.78-.42-1.06-.77-.14-.18-.32-.35-.3-.66.67.4,1.28.87,2.15.9-.11-.11-.16-.22-.22-.22-.98-.12-1.7-.73-2.44-1.29-.07-.06-.14-.12-.22-.19v-.51c.13.04.26.05.35.11.83.48,1.72.78,2.65.99.16.04.35.03.52,0,.18-.03.27-.14.31-.35.08-.52.19-1.04.31-1.56.06-.25.21-.33.49-.29-.12.15-.23.28-.33.41-.16.22-.16.29.02.49.12.13.25.26.4.33.21.11.28.27.3.48.05.36,0,.72-.15,1.05-.23.51-.48,1.01-.71,1.52-.31.68-.42,1.4-.41,2.14.01.57.02,1.14.03,1.78Zm-.24-5.41c.21-.1.48-.14.55-.42-.19.13-.45.16-.55.42Z"/>
    <path class="cls-6" d="m53.87,118.37c.47-.18.36-.49.3-.81.41-.26.86-.46,1.32-.62.55-.19,1.1-.39,1.65-.59.04-.01.05-.08.04-.19-.3.11-.6.22-.9.32-.33.11-.66.21-.99.33-.3.11-.6.25-.93.33.26-.46.67-.74,1.09-1.01.42-.27.9-.43,1.42-.43-.35-.2-.45-.18-1.69.26.1-.33.26-.42,1.72-1.03-.03-.13-.12-.15-.23-.14-.63.04-1.23.18-1.79.48-.26.14-.41.08-.5-.13-.02-.05.02-.11.03-.18.53.22.62.17.76-.38.11-.01.23-.02.35-.04.34-.06.68-.1.98-.31.1-.07.21-.13.32-.15.71-.13.9-.67,1.01-1.27.02-.1.04-.21.06-.31,0-.01.02-.02.05-.05.51.07,1.05.15,1.61.23-.05.28-.1.55-.14.83-.07.4-.15.8-.16,1.22,0,.51.23.86.58,1.16.28.24.6.44.92.67-.02.08-.04.16-.07.25-.04.16-.02.3.11.4.13.1.29.14.44.02.12-.1.25-.14.34.01.04.08.04.22,0,.29-.04.07-.18.16-.25.14-.23-.07-.45-.16-.65-.27-.3-.17-.55-.45-.87-.56-.39-.14-.83-.2-1.25-.2-.27,0-.55.18-.82.3-.32.13-.63.28-.95.42-.06.03-.13.05-.18.08-.49.36-1.05.58-1.6.8-.34.13-.69.2-1.14.13Zm4.83-2.25s0-.06-.01-.09c-.14.01-.27.02-.41.03,0,.02,0,.04,0,.06h.42Z"/>
    <path class="cls-2" d="m60.4,112.35c-.94.14-2.44-.15-3.18-.5-.13-.37.03-.71.15-1.04.21-.57.32-1.14.34-1.74,0-.22-.05-.45-.05-.67-.01-.32.05-.4.38-.44.68-.08,1.37-.17,2.06-.23.4-.03.79,0,1.18.07.06.47-.6,3.92-.86,4.56Z"/>
    <path class="cls-2" d="m47.75,106.56c.39.49.89.37,1.36.32.3-.03.58-.2.87-.29.54-.17.73-.63.9-1.09.11-.3.02-.6-.2-.93.59.36.89.74.72,1.38-.07.28,0,.56.28.73.07.04.11.12.18.16.65.35,1.1.92,1.65,1.39.36.31.76.58,1.17.83.38.23.77.44,1.18.58.33.11.7.11,1.05.14.14.01.28-.01.48-.02-.07.26-.11.46-.17.68-.91-.01-1.79-.03-2.63-.34-.61-.22-1.09-.64-1.47-1.18-.28-.39-.6-.75-.9-1.11-.32-.38-.64-.75-.96-1.12-.18-.22-.35-.23-.56-.02-.07.06-.15.11-.21.19-.41.55-1.02.71-1.64.82-.3.05-.61-.02-.88-.18-.38-.22-.44-.43-.22-.93Z"/>
    <path class="cls-2" d="m61,110.52c0-.13,0-.21,0-.29.01-.2.1-.27.31-.26.64.04,1.27.01,1.91-.01,1.11-.04,2.21-.06,3.32-.09.15,0,.29-.04.44-.05.61-.04,1.22-.08,1.82-.1.33-.01.66,0,.99,0,.06,0,.11.05.17.08-.06.17-.19.15-.3.16-.93.12-1.87.22-2.8.35-1.01.14-2.01.29-3.04.27-.48-.01-.95.06-1.43.07-.29,0-.58-.05-.87-.08-.17-.02-.33-.04-.51-.07Z"/>
    <path class="cls-5" d="m43.93,98.12c.18.44-.01.76-.18,1.07-.19.35-.46.66-.72,1.04-.14-.48-.07-.89.16-1.25.19-.31.28-.72.74-.85Z"/>
    <path class="cls-5" d="m44.57,99.27c-.36.31-.71.62-1.07.93-.09.08-.19.16-.32.2.3-.68.85-1.21,1.03-1.99.31.26.46.51.35.87,0,0,.01-.01.01-.01Z"/>
    <path class="cls-2" d="m49.64,106.51c.44-.59.6-1.23.7-1.91.34.2.47.48.4.84-.1.56-.46.93-1.1,1.07Z"/>
    <path class="cls-5" d="m38.16,101.27c-.21-.67-.7-1.05-1.07-1.52-.27-.34-.55-.68-.8-1.04.23.08.4.25.55.44.25.33.49.66.76.97.14.16.19.45.5.41.1.21.22.42.06.74Z"/>
    <path class="cls-5" d="m38.08,92.65c-1,.31-1.86.85-2.57,1.63.69-.81,1.41-1.57,2.57-1.63Z"/>
    <path class="cls-5" d="m36.54,100.83c-.65-.4-.86-1.1-1.16-1.74.31.2.38.57.59.84.22.28.44.56.65.84-.03.02-.06.04-.08.06Z"/>
    <path class="cls-5" d="m36.45,94.75s.03-.02.03-.02c-.17.13-.33.27-.5.4-.01-.01-.02-.02-.03-.03.06-.25.18-.46.42-.57.15-.43.59-.5.9-.72.06-.04.14-.04.22-.05h0c-.16.12-.31.27-.49.38-.24.16-.44.35-.54.62Z"/>
    <path class="cls-6" d="m41.58,101.44c-.07-.06-.15-.12-.21-.19-.35-.34-.34-.39.08-.68.2.34.24.6.13.86Z"/>
    <path class="cls-5" d="m37.72,100.92c-.34-.39-.69-.79-1.06-1.22.32.06.92.71,1.13,1.16-.02.02-.05.04-.07.06Z"/>
    <path class="cls-5" d="m35.7,94.45c.39-.61.91-1.02,1.63-1.15.01.03.03.05.04.08-.3.14-.62.24-.88.42-.28.19-.51.46-.76.69-.01-.01-.02-.02-.03-.03Z"/>
    <path class="cls-5" d="m37.53,101.43s-.02.02-.03.02c-.03,0-.06,0-.07-.01-.36-.51-.72-1.02-1.12-1.58.31.17,1.11,1.23,1.22,1.58Z"/>
    <path class="cls-5" d="m36.12,98.09c-.49-.54-.61-.87-.61-1.56.19.5.39.99.61,1.56Z"/>
    <path class="cls-5" d="m37.27,91.76c.19-.17.42-.19.66-.19.31,0,.62.11.93.01.01,0,.05.07.12.17h-1.72,0Z"/>
    <path class="cls-5" d="m34.84,94.27c-.13.4-.26.81-.38,1.18-.29-.51,0-.88.38-1.18Z"/>
    <path class="cls-5" d="m37.18,99.31c.41.2.57.59.77.95-.32-.26-.63-.54-.77-.95Z"/>
    <path class="cls-5" d="m37.49,93.75c.17-.09.32-.22.5-.26.28-.08.56-.14.78-.36.07-.07.18-.08.28-.12.02.02.03.04.05.06-.11.09-.21.21-.34.25-.42.15-.85.28-1.27.41,0,0,0,0,0,0Z"/>
    <path class="cls-5" d="m35.12,94.19c.19-.38.48-.66.84-.87-.22.35-.44.69-.84.86h0Z"/>
    <path class="cls-6" d="m53.95,117.64c.13.16.2.31.06.44-.14.14-.31.14-.49-.05.14-.13.27-.25.43-.39Z"/>
    <path class="cls-5" d="m37.93,92.02c-.32.13-.63.26-.95.39-.01-.03-.02-.05-.03-.08.3-.18.58-.39.96-.39l.03.08Z"/>
    <path class="cls-5" d="m34.78,95.61c.02-.39.13-.64.34-.89.13.39-.13.58-.34.89Z"/>
    <path class="cls-6" d="m61.34,116.92c-.22.21-.37.25-.44.13-.04-.07-.04-.24,0-.28.19-.15.29.03.44.15Z"/>
    <path class="cls-5" d="m37.13,92.68c.27-.3.65-.29,1-.34-.29.24-.67.22-1,.34Z"/>
    <path class="cls-5" d="m36.56,92.04c-.2.21-.41.41-.65.65.04-.35.08-.4.65-.65Z"/>
    <path class="cls-5" d="m36.69,92.4l-.78.59c.16-.32.44-.49.7-.68l.07.09Z"/>
    <path class="cls-5" d="m35.21,97.67c-.24-.34-.29-.73-.26-1.13.09.38.17.75.26,1.13Z"/>
    <path class="cls-5" d="m34.86,98.21c-.18-.32-.21-.68-.28-1.03.02,0,.05-.01.07-.02.1.34.19.69.29,1.03-.03,0-.05.01-.08.02Z"/>
    <path class="cls-5" d="m36.63,93.94c-.23.22-.46.44-.69.65.11-.34.37-.53.63-.72.02.02.04.05.06.07Z"/>
    <path class="cls-5" d="m35.73,94.49c0,.24-.14.41-.3.63-.11-.33.09-.49.26-.66.01.01.02.02.03.03Z"/>
    <path class="cls-5" d="m38.9,92.61c-.14.27-.4.33-.65.41.18-.2.42-.3.65-.41Z"/>
    <path class="cls-5" d="m36.12,93.11c.18-.12.35-.24.53-.35-.12.27-.13.27-.53.35Z"/>
    <path class="cls-5" d="m35.98,95.13c-.09.2-.19.4-.31.65-.05-.33.14-.5.27-.69.01.01.02.02.03.03Z"/>
    <path class="cls-5" d="m37.8,101.4c-.11-.13-.21-.26-.32-.4l.07-.06c.12.12.24.24.36.36l-.1.1Z"/>
    <path class="cls-6" d="m36.52,101.69c-.09-.12-.17-.23-.29-.4q.32.1.29.4Z"/>
    <path class="cls-6" d="m55.03,114.72c-.11.18-.19.26-.36.16.05-.16.15-.2.36-.16Z"/>
    <path class="cls-5" d="m37.95,93.02c-.17.06-.35.12-.52.18-.01-.03-.02-.07-.03-.1.17-.06.35-.12.52-.18.01.03.02.07.04.1Z"/>
    <path class="cls-5" d="m38.12,92.07c.14-.05.27-.09.41-.14-.08.19-.21.24-.41.14Z"/>
    <path class="cls-5" d="m35.11,94.18c.1.27-.16.39-.24.58-.09-.26.19-.37.25-.57,0,0,0,0,0,0Z"/>
    <path class="cls-5" d="m34.5,94.24c.09-.11.18-.21.27-.32.03.02.05.04.08.06-.09.11-.17.22-.26.34l-.09-.08Z"/>
    <path class="cls-5" d="m35.26,96.68v-.42s.02,0,.02,0v.42s-.02,0-.02,0Z"/>
    <path class="cls-5" d="m34.76,95.83c0,.1,0,.2,0,.3,0,.06,0,.12-.07.18v-.49h.07Z"/>
    <path class="cls-5" d="m38.13,93.23c.12-.04.24-.09.4-.15q-.15.17-.4.15Z"/>
    <path class="cls-5" d="m37.12,91.5c.14-.04.27-.07.41-.11,0,.03.02.06.02.08l-.41.11s-.02-.06-.03-.09Z"/>
    <path class="cls-5" d="m37.26,91.76c-.16.05-.32.1-.52.16.16-.25.36-.16.53-.15,0,0,0,0,0,0Z"/>
    <path class="cls-5" d="m35.85,100.34c.08.14.15.24.24.4q-.22-.14-.24-.4Z"/>
    <path class="cls-5" d="m35.06,96.06c.02-.09.03-.18.05-.27.03,0,.05.01.08.02-.02.09-.04.19-.05.28-.03,0-.05-.02-.08-.03Z"/>
    <path class="cls-5" d="m35.62,93.38c-.06.05-.13.1-.19.15-.01-.01-.02-.03-.04-.04.06-.05.12-.11.18-.16.01.02.03.04.04.05Z"/>
    <path class="cls-5" d="m38.58,92.36c.09-.03.17-.07.3-.12-.05.22-.16.21-.3.12Z"/>
    <path class="cls-5" d="m36.44,98.59c-.05-.07-.1-.13-.16-.2.01-.01.03-.02.04-.04l.17.19s-.04.03-.05.05Z"/>
    <path class="cls-5" d="m34.63,96.6c0,.07-.02.14-.02.21-.02,0-.04,0-.06,0v-.21h.08Z"/>
    <path class="cls-5" d="m39.27,92.18l-.08.29s-.07-.02-.1-.03c.03-.1.06-.19.09-.29.03,0,.06.02.09.03Z"/>
    <path class="cls-5" d="m38.64,91.49s-.1.02-.15.02c-.05,0-.1-.02-.15-.08.1,0,.2-.01.3-.02,0,.03,0,.05,0,.08Z"/>
    <path class="cls-2" d="m78.46,24.95c.7-.07,3.15,1.35,3.81,1.89-.52.02-1.02-.27-1.61-.14.09.1.13.17.18.21.36.3.72.59,1.07.89.27.23.28.29.17.62-.03.09-.06.18-.11.26-.29.48-.59.95-.91,1.46.07.02.17.08.21.06.61-.36,1.21-.72,1.81-1.09.51-.32,1-.65,1.58-1.02-.06,1.05-.37,1.98-.38,2.93.21.08.26-.06.3-.19.27-.7.83-1.19,1.23-1.85.88.46,1.56,1.17,2.35,1.72.15-.17.04-.29-.03-.41-.16-.26-.34-.51-.51-.77-.14-.22-.27-.45-.44-.72h1.86c.1-.18-.03-.25-.11-.32-.34-.33-.73-.58-1.15-.79-.35-.17-.67-.38-.96-.73.17-.29.37-.59.51-.91.14-.32.53-.49.52-.97-.85.29-1.66.56-2.5.84-.24-.67-.08-1.37-.28-2.1-.37.62-.38,1.26-.61,1.88-.62-.41-1.14-.92-1.75-1.26-.16.09-.13.18-.1.3.13.47.25.95.38,1.43.05.18.13.35.18.53.04.14.05.28.08.49-.2-.07-.35-.11-.45-.15,0-.15.02-.28,0-.39-.05-.18-.1-.36-.2-.52-.42-.65-.63-1.38-.79-2.12-.02-.09-.03-.18-.05-.28-.07-.28-.14-.56-.22-.84-.04-.14-.09-.27-.14-.41.02-.02.05-.03.07-.05.17.18.33.36.5.53.4.41.81.81,1.21,1.22.11.11.21.25.27.39.09.2.22.25.44.18.18-1.13.6-2.21.99-3.31.35.55.4,1.19.61,1.78.2.58.28,1.21.42,1.88.27-.07.54-.11.8-.2.5-.18,1-.37,1.49-.58.45-.19.89-.41,1.35-.62-.06.24-.16.46-.32.67-.32.41-.66.81-.97,1.22-.31.43-.6.87-.93,1.35,1.72.93,3.58,1.57,5.2,2.73-.32.14-.6,0-.88-.02-.19-.01-.37-.09-.57-.12-.73-.1-1.45-.19-2.18-.27-.27-.03-.55-.05-.81-.08-.1.14-.13.25-.01.35.64.56.94,1.35,1.36,2.06.18.31.37.61.55.91.02.04.05.08.07.11-.01.01-.03.03-.04.04-.07-.05-.14-.1-.22-.15-.65-.41-1.31-.81-1.96-1.23-.22-.14-.43-.32-.65-.47-.22-.15-.44-.3-.68-.42-.1-.05-.23-.05-.31-.07-.41.56-.8,1.08-1.18,1.6-.38.51-.74,1.03-1.24,1.54-.02-.17-.04-.27-.04-.37,0-.59,0-1.17,0-1.76-.01-.51-.04-1.01-.08-1.52,0-.1-.08-.19-.11-.26-1.63,1.09-3.21,2.15-4.88,3.27.03-.16.03-.23.06-.28.42-.65.86-1.29,1.28-1.94.38-.58.74-1.17,1.11-1.76.04-.06.05-.14.06-.18-1.15-.14-2.28-.29-3.41-.41-.36-.04-.72,0-1.09-.06.07-.04.14-.09.22-.1.56-.13,1.11-.27,1.67-.39.44-.1.89-.17,1.33-.26.26-.05.32-.19.15-.42-.47-.68-.92-1.37-1.54-1.93-.03-.03-.05-.06-.1-.13Z"/>
    <path class="cls-2" d="m84.97,27.59c-.18.09-.29.12-.37.19-.36.35-.77.59-1.21.81-.43.22-.81.51-1.21.77-.13.08-.27.16-.43.21.19-.56.56-1,.87-1.5-.34-.28-.66-.54-.98-.8.01-.02.03-.05.04-.07.59.12,1.22.08,1.76.39.17-.1.16-.25.12-.4-.17-.63-.34-1.26-.5-1.89-.02-.07-.01-.15-.02-.26.5.39.96.76,1.48,1.16.24-.55.27-1.1.51-1.61.05.53.1,1.07.15,1.66.75-.21,1.43-.47,2.22-.75-.24.46-.44.83-.63,1.2-.03.06-.08.11-.11.17-.11.23-.07.34.16.48.56.35,1.13.71,1.69,1.07.06.04.12.09.17.18-.51-.04-1.02.09-1.53-.07-.07-.02-.16,0-.25.01.03.08.04.17.08.25.22.37.44.74.71,1.2-.69-.5-1.3-.95-1.96-1.44-.37.58-.71,1.11-1.05,1.64-.02,0-.04,0-.06-.01.11-.82.22-1.65.35-2.59Z"/>
    <path class="cls-1" d="m58.02,52.14c-.22.08-.44.16-.66.24-.21.08-.42.17-.63.25-.19.07-.39.1-.57.19-.63.33-1.29.36-1.97.24-.16-.03-.32-.03-.48,0-.69.09-1.37-.07-2.06-.06-.23,0-.45,0-.68-.02-.61-.04-1.15-.33-1.7-.56-.45-.19-.89-.4-1.33-.61-.2-.1-.42-.19-.58-.35-.32-.31-.72-.48-1.12-.59-.55-.15-.94-.47-1.3-.87-.36-.4-.7-.84-.84-1.35-.16-.59-.22-1.22.14-1.78.32-.49.59-1.03,1.08-1.38.65-.47,1.39-.67,2.19-.58.2.02.42.14.57.27.35.31.67.65.98,1,.12.14.17.34.29.59.07-.19.11-.31.15-.43.32-1.06,1.8-1.68,2.83-1,.74.49,1.11,1.2,1.33,2.01.01.04.01.08.02.12,0,.01.01.02.05.06.04-.06.07-.1.09-.15.05-.1.08-.23.15-.32.96-1.17,2.17-1.68,3.68-1.41.35.06.71.11,1.04.24.71.29,1.25.77,1.47,1.52.16.55.14,1.12-.04,1.66-.2.56-.43,1.12-.72,1.64-.23.41-.57.76-.89,1.12-.13.14-.32.22-.49.33,0,0,.02-.01.02-.01Zm1.45-3.37c-.24,1.08-.89,1.76-1.95,2.07.9.07,2-1.02,1.95-2.07Zm-14.1-.44c-.07-.27-.19-.51-.19-.75,0-.24.13-.47.2-.72-.5.24-.46,1.11-.02,1.46Zm7.58-.77c.07.28.14.56.22.84.08-.32.08-.62-.22-.84Zm5.15,2.12c.32-.1.38-.38.48-.64-.03-.02-.06-.03-.08-.05-.13.23-.26.46-.39.69Zm-12.22-2.26c-.24.24-.15.41,0,.57,0-.16,0-.33,0-.57Zm6.46.47c-.07.14-.15.25-.01.41.1-.15.16-.26.01-.41Zm5.36.98c-.19.05-.22.14-.11.32.05-.15.08-.24.11-.32Z"/>
    <path class="cls-1" d="m96.9,52.71c.11-.2.18-.34.26-.48.24-.38.57-.63,1.04-.65.18,0,.3.06.39.21.16.26.35.5.55.79.05-.09.09-.14.1-.2,0-.32.2-.51.46-.65.11-.05.22-.11.33-.14.64-.19.91-.07,1.18.53.04.08.08.16.12.25,0,0,.02,0,.07.03.06-.09.13-.18.18-.28.23-.5.68-.71,1.16-.72.52-.02.82.39,1.05.81.05.09.07.2.11.31.19-.04.22-.19.27-.32.18-.44.57-.54.97-.59.26-.03.46.16.5.42.02.13.03.26.05.46.1-.1.16-.13.19-.19.07-.16.13-.32.19-.48.15-.36.44-.49.8-.47.3.01.56.26.67.61.03.11.06.22.11.39.16-.26.29-.45.42-.65.04-.06.08-.11.13-.16.46-.49,1.01-.38,1.23.26.06.16.09.32.17.58.13-.22.21-.36.3-.5.15-.26.35-.42.66-.45.41-.04.65.18.84.5.07.12.11.26.19.44.11-.1.2-.17.27-.25.49-.55,1.23-.59,1.76-.08.15.15.28.32.38.51.23.44.07.93-.37,1.16-.24.12-.49.22-.75.26-.7.12-1.39.22-2.1.3-.36.04-.73,0-1.1.01-.49,0-.98.02-1.47.03-.5,0-1,0-1.5.03-.64.05-1.27.16-1.9.21-.44.04-.88.02-1.32.03-.86.01-1.73.09-2.58.02-.79-.07-1.59.06-2.38-.15-.37-.1-.77-.04-1.16-.06-.68-.04-1.32-.2-1.89-.58-.26-.18-.45-.46-.66-.72-.05-.06-.03-.18-.01-.27.08-.39.31-.68.63-.89.23-.16.54-.13.82.08.12.09.22.19.32.3.1.11.18.22.32.4Z"/>
    <path class="cls-1" d="m112.44,21.76c.17-.55.42-.98.96-1.17.03,0,.05-.03.07-.03.56-.11,1.02,0,.96.77-.05.64-.27,1.21-.86,1.63-.52.37-1.11.49-1.68.68-.59.2-1.21.19-1.82.19-.78,0-1.52-.18-2.18-.61-.09-.06-.19-.1-.29-.13-.46-.11-.8-.43-1.12-.74-.35-.33-.3-.77-.14-1.2.28-.77.85-1.04,1.64-.93.58.08,1.06.33,1.32.9.11.25.28.47.46.76.07-.18.1-.28.15-.39.13-.26.23-.55.4-.78.25-.33.64-.43,1.04-.41.13,0,.29.09.38.19.27.31.54.63.56,1.07,0,.05.03.1.05.14,0,.02.05.02.09.03Zm-5.05-.31c-.23.08-.31.35-.21.66.07.22.15.26.38.21-.3-.36-.27-.3-.17-.87Zm.48.75v-.61c-.26.3-.26.31,0,.61Zm5.34.11c.11-.18.22-.35.09-.63-.15.23-.15.42-.09.63Zm-4.97-.31s.02.06.03.09c.07-.01.15-.02.22-.03-.01-.04-.03-.09-.04-.13-.07.02-.14.05-.21.07Zm2.54.13s.09-.01.14-.02c-.01-.07-.03-.14-.04-.21-.03,0-.1.01-.1.02,0,.07,0,.14,0,.21Zm.64-.2c-.04.1-.08.16-.06.2.02.06.08.1.12.16.03-.03.09-.07.08-.1,0-.05-.05-.1-.14-.25Z"/>
    <path class="cls-1" d="m117.83,35.79c.07-.12.14-.24.19-.37.36-.85,1.51-1.14,2.17-.9.34.12.53.39.58.71.05.31.04.64-.02.95-.09.51-.41.84-.89,1.05-.58.25-1.17.37-1.8.45-.9.1-1.77-.07-2.64-.12-.96-.05-1.8-.51-2.57-1.09-.45-.34-.55-.88-.25-1.36.35-.58.93-.52,1.4-.28.43.22.69.62.95,1.01.03.05.07.11.14.22.11-.28.21-.5.29-.73.25-.67,1.2-1.05,1.85-.48.13.12.22.3.3.46.08.15.12.32.18.48.03,0,.07.01.1.02Zm1.49,1.01c.12.01.16.03.2.02.38-.06.89-1,.7-1.41-.02-.04-.09-.06-.2-.13.11.67-.09,1.16-.7,1.52Zm.12-.94c-.14.22-.29.44-.43.66.34-.13.41-.24.43-.66Zm-2.81.71c.3-.18.3-.21.15-.59-.05.22-.1.38-.15.59Zm-2.64-.45q-.24.22-.02.38c0-.14.01-.26.02-.38Zm2.08.61c.08-.2.13-.34.18-.47-.2.08-.31.18-.18.47Zm2.4-.37c.29.02.31-.15.28-.35-.09.12-.19.23-.28.35Z"/>
    <path class="cls-1" d="m46.24,62.79c.19-.06.38-.12.57-.17.21-.05.43-.07.63.05.2.11.31.27.32.48.02.27.02.54-.08.8-.12.32-.25.63-.47.89-.16.18-.33.33-.56.42-.17.06-.31.17-.47.26-.03,0-.07,0-.1,0-.15.04-.29.09-.44.13-.03,0-.05,0-.08.02-.44.14-.9.13-1.35.11-.47-.03-.94-.06-1.42-.07-.48,0-.89-.2-1.27-.45-.4-.26-.75-.58-1.03-.97-.14-.19-.19-.38-.13-.61.09-.34.23-.64.46-.9.14-.16.32-.24.54-.3.27-.07.53-.1.81-.06.51.06.86.33,1.06.79.03.08.08.15.12.25.13-.21.23-.38.34-.54.29-.42,1.14-.55,1.46.17.06.12.08.26.12.39.02.06.04.11.06.19.28-.35.58-.63.92-.88Zm-5.12,1.43c-.07-.13-.14-.25-.2-.38-.09-.2-.11-.4.09-.56.02-.02.02-.07.04-.13-.41.23-.38.65.07,1.07Zm2.61.34q-.1-.5.16-.9c-.38.08-.42.52-.16.9Zm-2.36-.58s.04-.02.06-.02c-.02-.1-.04-.19-.07-.29-.02-.09.07-.21-.04-.31-.1.23-.08.43.04.61Zm5.74-.12c-.02.18-.04.36-.07.59.18-.35.19-.44.07-.59Zm-3.04.48s.05,0,.07,0c0-.11,0-.21.01-.32-.06.1-.15.2-.08.31Zm-2.25-.54q-.07.17.08.24c-.03-.09-.06-.16-.08-.24Zm4.62.33s.04.03.06.05c.04-.07.14-.11.07-.27-.05.09-.09.16-.13.23Z"/>
    <path class="cls-1" d="m92.15,45.33c.05-.06.08-.08.08-.09-.03-.49.26-.74.66-.93.46-.22.78-.07.88.44.01.06.02.12.05.26.09-.13.15-.19.18-.26.09-.23.24-.36.49-.43.38-.1.62,0,.75.33.11.29-.03.66-.33.77-.54.2-1.09.42-1.66.52-.66.11-1.34.14-2.01-.05-.4-.12-.75-.52-.78-.92-.02-.25.03-.45.27-.57.24-.12.48-.11.68.04.28.2.54.44.67.77.01.04.03.07.07.13Z"/>
    <path class="cls-3" d="m63.79,84.45c-.32-.05-.33-.26-.36-.42-.1-.49-.01-.83.28-1.08-.26.49-.33.97.08,1.5Z"/>
    <path class="cls-3" d="m68.78,68.04c.16.36.3.67.43.97-.3-.05-.51-.48-.43-.97Z"/>
    <path class="cls-3" d="m66.54,78.16c-.11.27-.21.54-.32.8h0c.11-.26.21-.53.32-.8,0,0,0,0,0,0Z"/>
    <path class="cls-3" d="m66.22,78.97c-.06.15-.12.29-.18.44-.02-.18.05-.32.18-.43,0,0,0,0,0,0Z"/>
    <path class="cls-3" d="m66.84,76.92c-.11-.01-.22-.03-.36-.04.14-.21.25-.04.36-.05,0,.03,0,.06,0,.09Z"/>
    <path class="cls-3" d="m73.28,59.25c.05-.08.07-.19.14-.24.3-.27.29-.58.16-.91-.14-.37-.44-.53-.81-.54-.27,0-.56-.03-.81.23.1-.3.21-.4.46-.38.5.03,1.04,0,1.27.6.27.7.08.96-.39,1.25Z"/>
    <path class="cls-3" d="m82.76,59.77c-.04-.13-.11-.26-.13-.4-.05-.3-.22-.47-.51-.53-.05-.01-.1-.05-.21-.1.58-.06.86.16.85,1.03Z"/>
    <path class="cls-3" d="m74.28,58.15c-.09-.21-.13-.36-.22-.48-.09-.12-.23-.2-.4-.34.5.1.68.34.62.82Z"/>
    <path class="cls-3" d="m72.29,57.07c-.2,0-.36-.02-.58-.03.31-.17.33-.17.58.03Z"/>
    <path class="cls-3" d="m72.69,56.2c.15.03.29.06.44.1-.17.12-.3.02-.45,0,0-.03,0-.06,0-.1Z"/>
    <path class="cls-3" d="m71.23,58.21c-.02.11-.03.22-.06.37-.19-.17-.07-.27-.05-.39.04,0,.07,0,.11.01Z"/>
    <path class="cls-3" d="m85.81,40.69c-.64-.58-1.14-.42-1.56.5-.03-.11-.06-.18-.05-.24.08-.55.73-.95,1.23-.76.21.08.31.2.38.5Z"/>
    <path class="cls-3" d="m90.38,40.61c-.01-.31-.03-.61-.04-.9.26.27.27.57.04.9Z"/>
    <path class="cls-3" d="m86.75,40.51c-.07-.14-.14-.28-.21-.43.32.11.36.19.21.43Z"/>
    <path class="cls-3" d="m88.3,39.92c.21.26.21.29.08.7-.03-.29-.05-.5-.08-.7Z"/>
    <path class="cls-3" d="m88.88,40.38c.09,0,.18,0,.3.01q-.14.16-.3-.01Z"/>
    <path class="cls-3" d="m86.83,41.23c0-.09-.02-.19-.02-.28.03,0,.07-.01.1-.02.02.09.04.18.05.28-.04,0-.08.01-.13.02Z"/>
    <path class="cls-3" d="m88.78,39.47s-.03.12-.04.12c-.08-.02-.17-.04-.27-.07.11-.21.22-.09.32-.04,0,0,0,0,0,0Z"/>
    <path class="cls-3" d="m85.91,41.16c-.15-.07-.22-.15-.03-.27.01.11.02.19.03.27Z"/>
    <path class="cls-3" d="m78.17,39.56c.64.02.98.6.71,1.13-.07-.26.04-.54-.19-.72-.17-.14-.35-.28-.52-.42Z"/>
    <path class="cls-3" d="m76.61,40.64c.09-.33.3-.54.67-.66-.03.23-.22.26-.31.37-.1.12-.2.23-.3.35-.02-.02-.04-.04-.07-.06Z"/>
    <path class="cls-3" d="m78.05,39.21c.24-.17.38-.07.58,0-.21.14-.37.11-.58,0Z"/>
    <path class="cls-3" d="m77.48,39.78c.11-.04.23-.09.35-.14q-.04.23-.35.14Z"/>
    <path class="cls-3" d="m76.72,39.91c-.09,0-.17,0-.27.01q.08-.18.27-.01Z"/>
    <path class="cls-3" d="m78.9,40.87c-.03.1-.06.2-.11.34q-.08-.19.11-.34Z"/>
    <path class="cls-3" d="m77.59,42.02c-.31.32-.52.66-.33,1.15-.27-.22-.3-.31-.23-.57.12-.38.26-.55.56-.58Z"/>
    <path class="cls-3" d="m77.23,43.29c.12.05.31.01.33.25-.18-.01-.32-.04-.33-.25Z"/>
    <path class="cls-3" d="m75.94,47.67q.18.02.26.22c-.08-.03-.14-.03-.18-.07-.04-.04-.05-.1-.07-.16,0,0,0,0,0,0Z"/>
    <path class="cls-3" d="m40.18,96.03c-.18-.06-.37-.12-.56-.18q-.3.27-.01.72c-.26.03-.27-.23-.43-.32-.11.05-.23.1-.35.15-.07.17-.04.3.04.46.09.18-.01.24-.22.18v-.6c-.21.02-.39.04-.57.06-.02.25.15.46.02.77-.11-.29-.19-.52-.29-.78-.24.08-.47.16-.76.25.05-.09.08-.17.12-.18.29-.08.59-.16.89-.22.17-.03.35-.01.52-.04.73-.12,1.26-.82,1.15-1.58-.04-.28.02-.53.13-.78.02-.05.07-.1.16-.13,0,.07,0,.14-.03.21-.03.13-.09.25-.11.38-.05.32.02.57.34.73.14.07.25.19.38.29-.02.02-.03.05-.05.07-.2-.12-.39-.24-.62-.39-.08.19-.16.35-.25.55.18.11.34.21.5.31,0,.02-.01.05-.02.07Z"/>
    <path class="cls-3" d="m44.1,101.07c-.3.09-.59.2-.9.27-.25.06-.48-.02-.64-.22-.27-.34-.43-.72-.51-1.14,0-.02.02-.04.05-.09.2.4.22.92.69,1.12.42.19.86.22,1.28-.11,0,.06.01.11.02.17Z"/>
    <path class="cls-3" d="m40.32,103.1c.1-.26.36-.29.55-.42-.08.28-.34.32-.55.42Z"/>
    <path class="cls-3" d="m58.7,116.12h-.42s0-.04,0-.06c.14-.01.27-.02.41-.03,0,.03,0,.06.01.09Z"/>
    <path class="cls-3" d="m59.47,48.77c.05,1.04-1.05,2.14-1.95,2.07,1.05-.31,1.7-.99,1.95-2.07Z"/>
    <path class="cls-3" d="m45.37,48.33c-.44-.35-.48-1.22.02-1.46-.08.25-.2.48-.2.72,0,.24.11.47.19.75Z"/>
    <path class="cls-3" d="m52.95,47.57c.29.22.3.52.22.84-.07-.28-.14-.56-.22-.84Z"/>
    <path class="cls-3" d="m58.1,49.69c.13-.23.26-.46.39-.69.03.02.06.03.08.05-.1.26-.16.54-.48.64Z"/>
    <path class="cls-3" d="m45.88,47.42c0,.24,0,.4,0,.57-.15-.16-.24-.32,0-.57Z"/>
    <path class="cls-3" d="m52.34,47.9c.14.15.09.27-.01.41-.13-.16-.05-.28.01-.41Z"/>
    <path class="cls-3" d="m57.71,48.88c-.03.09-.06.17-.11.32-.11-.19-.08-.27.11-.32Z"/>
    <path class="cls-3" d="m107.39,21.45c-.1.57-.13.51.17.87-.23.06-.31,0-.38-.21-.1-.31-.01-.58.21-.66Z"/>
    <path class="cls-3" d="m107.87,22.2c-.26-.31-.26-.32,0-.61v.61Z"/>
    <path class="cls-3" d="m113.21,22.31c-.07-.21-.06-.4.09-.63.13.28.02.45-.09.63Z"/>
    <path class="cls-3" d="m108.25,22c.07-.02.14-.05.21-.07.01.04.03.09.04.13-.07.01-.15.02-.22.03,0-.03-.02-.06-.03-.09Z"/>
    <path class="cls-3" d="m110.79,22.13c0-.07-.01-.14,0-.21,0-.01.06-.02.1-.02.01.07.03.14.04.21-.05,0-.09.01-.14.02Z"/>
    <path class="cls-3" d="m111.43,21.93c.09.15.14.2.14.25,0,.03-.05.07-.08.1-.04-.05-.1-.1-.12-.16-.01-.04.03-.09.06-.2Z"/>
    <path class="cls-3" d="m119.32,36.8c.61-.36.82-.85.7-1.52.11.07.18.09.2.13.19.41-.32,1.35-.7,1.41-.04,0-.08,0-.2-.02Z"/>
    <path class="cls-3" d="m119.44,35.85c-.02.43-.09.53-.43.66.14-.22.29-.44.43-.66Z"/>
    <path class="cls-3" d="m116.63,36.57c.05-.21.09-.37.15-.59.16.38.15.4-.15.59Z"/>
    <path class="cls-3" d="m113.99,36.12c0,.12-.01.24-.02.38q-.22-.16.02-.38Z"/>
    <path class="cls-3" d="m116.07,36.72c-.13-.28-.02-.39.18-.47-.05.13-.1.26-.18.47Z"/>
    <path class="cls-3" d="m118.47,36.36c.09-.12.19-.23.28-.35.02.2.01.37-.28.35Z"/>
    <path class="cls-3" d="m41.12,64.22c-.45-.41-.48-.83-.07-1.07-.02.06-.02.11-.04.13-.21.16-.18.36-.09.56.06.13.13.25.2.38Z"/>
    <path class="cls-3" d="m43.72,64.57c-.26-.37-.23-.81.16-.9q-.26.39-.16.9Z"/>
    <path class="cls-3" d="m41.37,63.98c-.13-.19-.14-.38-.04-.61.11.1.02.21.04.31.02.1.04.19.07.29-.02,0-.04.02-.06.02Z"/>
    <path class="cls-3" d="m47.11,63.86c.12.15.11.24-.07.59.03-.22.05-.4.07-.59Z"/>
    <path class="cls-3" d="m44.07,64.34c-.07-.11.02-.21.08-.31,0,.11,0,.21-.01.32-.02,0-.05,0-.07,0Z"/>
    <path class="cls-3" d="m41.82,63.8c.03.08.05.15.08.24q-.15-.07-.08-.24Z"/>
    <path class="cls-3" d="m46.44,64.13c.04-.07.07-.13.13-.23.07.16-.03.2-.07.27-.02-.02-.04-.03-.06-.05Z"/>
    <path class="cls-3" d="m27.4,52.8c.36-.45.82-.57,1.33-.63.38-.05.61.11.8.4.11.17.21.34.29.48.35-.22.66-.43.99-.62.26-.15.55-.18.85-.18.3,0,.51.13.65.39.41.77.4,1.95-.32,2.73-.25.27-.53.48-.87.61-.16.06-.31.15-.46.24-.62.38-1.3.63-2.01.74-.54.09-1.12.06-1.67.02-.57-.04-1.14-.12-1.7-.23-.77-.14-1.47-.44-2-1.06-.27-.32-.57-.63-.84-.96-.22-.26-.36-.55-.31-.91.03-.21,0-.43.02-.64.08-.59.51-.91,1.11-.9.57,0,1,.22,1.34.66.07.09.16.17.26.29.06-.68.48-1,1.06-1.11.61-.11,1.1.11,1.47.68Zm2.48.75c-.08-.15-.11-.2-.14-.25-.15-.25-.29-.51-.45-.75-.07-.1-.21-.2-.32-.21-.49-.06-1.28.13-1.46.74-.01.04-.07.07-.13.13-.22-.64-.63-.98-1.29-.93-.22.02-.44.11-.63.22-.39.23-.37.67-.46,1.05-.21.03-.24-.13-.31-.23-.26-.37-.56-.68-1.01-.81-.64-.18-1.19.03-1.33.65-.13.58-.07,1.18.35,1.66.33.37.66.73,1,1.08.1.1.24.16.37.23.09.05.19.09.29.13.32.12.64.27.97.34.52.11,1.05.16,1.57.23.66.09,1.31.11,1.98-.05.95-.22,1.77-.71,2.63-1.14.04-.02.07-.04.1-.07.79-.75.96-1.52.7-2.58-.09-.36-.36-.57-.69-.57-.2,0-.4.04-.59.1-.5.16-.91.44-1.15,1.04Z"/>
    <path class="cls-3" d="m68.52,28.95c.3-.39.63-.67,1.08-.76.12-.02.23-.04.35-.05.58-.07.84.11.9.69.09.83-.2,1.32-.94,1.6-.11.04-.23.03-.35.05-.69.1-1.35.02-1.99-.27-.28-.12-.56-.25-.82-.41-.53-.32-.58-1.46.06-1.76.32-.15.78-.11,1.19.29.18.18.32.39.51.62Zm-.03.48c-.05-.39-.37-.57-.59-.82-.24-.28-.56-.34-.91-.32-.22.01-.32.11-.31.33,0,.37.13.72.39.98.44.46,1.02.68,1.64.7.44.02.89-.11,1.33-.18.07-.01.14-.07.21-.12.45-.35.58-.86.36-1.39-.1-.25-.22-.33-.49-.32-.72.03-1.29.33-1.63,1.14Z"/>
    <path class="cls-1" d="m29.89,53.55c.24-.6.65-.88,1.15-1.04.19-.06.39-.09.59-.1.33,0,.6.21.69.57.27,1.06.09,1.83-.7,2.58-.03.03-.06.05-.1.07-.85.43-1.67.92-2.63,1.14-.67.16-1.32.14-1.98.05-.53-.07-1.06-.13-1.57-.23-.33-.07-.65-.22-.97-.34-.1-.04-.2-.08-.29-.13-.13-.07-.27-.13-.37-.23-.34-.35-.68-.71-1-1.08-.43-.48-.49-1.08-.35-1.66.14-.61.69-.83,1.33-.65.44.13.75.44,1.01.81.07.1.11.26.31.23.09-.37.07-.82.46-1.05.19-.11.42-.2.63-.22.66-.05,1.07.29,1.29.93.06-.06.12-.09.13-.13.18-.61.97-.79,1.46-.74.12.01.25.11.32.21.17.24.31.5.45.75.03.05.06.11.14.25Z"/>
    <path class="cls-1" d="m68.49,29.43c.34-.82.91-1.11,1.63-1.14.27-.01.39.07.49.32.22.54.09,1.05-.36,1.39-.06.05-.13.1-.21.12-.44.07-.89.2-1.33.18-.62-.03-1.2-.25-1.64-.7-.26-.26-.38-.61-.39-.98,0-.22.09-.32.31-.33.34-.02.67.04.91.32.21.26.53.43.59.82Z"/>
  </g>
</svg>