<?xml version="1.0" encoding="UTF-8"?>
<svg xmlns="http://www.w3.org/2000/svg" viewBox="0 0 136.06 136.06">
  <defs>
    <style>
      .cls-1 {
        fill: #fff;
      }

      .cls-2 {
        fill: #0c3454;
      }

      .cls-3 {
        fill: #e0e1e3;
      }
    </style>
  </defs>
  <g id="Layer_3" data-name="Layer 3">
    <rect class="cls-3" x="0" y="0" width="136.06" height="136.06"/>
  </g>
  <g id="B_W" data-name="B&amp;amp;W">
    <path class="cls-2" d="m121.85,112.39c-2.53-.03-5.06-.1-7.57-.3-4.93-.39-9.86-1.28-14.31-3.31-4.46-1.99-8.21-5.26-12.23-8.28-12.06-9.65-29.74-11.38-43.46-4.09-6.74,3.54-12.24,8.5-19.14,11.39-3.62,1.5-7.38,2.76-11.22,3.56.06,1.02.13,2.03.22,3.05,6.71-1.32,13.18-4.03,18.9-7.62,4.27-2.74,8.2-5.78,12.46-8.1,12.8-6.99,29.57-5.66,41.22,3.2,4.01,2.86,7.95,6.15,12.7,8.13,7.16,2.93,14.81,3.16,22.41,2.96,0-.2.02-.4.02-.6Z"/>
    <path class="cls-2" d="m77.47,82.75s-.01.04-.01.06v-.07h.01Z"/>
    <path class="cls-2" d="m77.22,83.78c.08-.32.16-.65.24-.97-.02.19-.02.37-.06.56-.13.67-.28,1.35-.42,2.02-.01.03-.04.05-.07.07.01-.16,0-.33.03-.49.08-.4.18-.79.28-1.19Z"/>
    <path class="cls-2" d="m76.91,85.46v.02h0s0-.01,0-.02Z"/>
    <path class="cls-2" d="m76.39,88.75c-.03.18-.13.93-.16.91-.12.52-.22,1.04-.36,1.54-.18.68-.25,1.39-.56,2.03.01-.15.02-.29.05-.43.13-.51.29-1.02.39-1.54.15-.77.22-1.55.44-2.31.05-.17.03-.37.06-.55.02-.14.07-.28.11-.42.06-.2.15-.4.19-.6.08-.43.12-.87.19-1.3.03-.19.09-.36.15-.54-.06.45-.1.91-.18,1.36-.1.62-.22,1.23-.32,1.85Z"/>
    <g>
      <path class="cls-1" d="m107.56,22.32c-.3-.36-.27-.3-.17-.87-.23.09-.31.35-.21.66.07.22.15.26.38.21Zm.31-.12v-.62c-.26.3-.26.31,0,.62Zm.38-.2s.01.06.02.1c.08-.01.15-.02.22-.03-.01-.05-.02-.09-.04-.14-.07.03-.13.05-.2.07Zm3.32.18c-.01-.05-.05-.1-.14-.25-.04.1-.08.16-.07.19.02.06.08.11.12.16.03-.03.09-.07.09-.1Zm-.65-.07c-.01-.07-.02-.14-.04-.21-.03,0-.1.01-.1.02,0,.07,0,.14.01.21.04-.01.09-.01.13-.02Zm2.38-.43c-.15.23-.16.42-.09.63.11-.18.22-.36.09-.63Zm1.14-.36c-.05.64-.26,1.21-.86,1.63-.52.36-1.11.49-1.68.68-.59.2-1.21.19-1.82.19-.78,0-1.51-.18-2.18-.6-.09-.06-.19-.11-.29-.13-.46-.11-.8-.44-1.12-.74-.35-.32-.31-.77-.15-1.19.29-.77.85-1.05,1.64-.93.59.08,1.06.32,1.32.9.11.25.28.47.46.77.07-.18.1-.29.15-.39.13-.26.23-.55.4-.78.25-.32.64-.42,1.04-.41.13,0,.29.09.38.19.27.31.54.63.56,1.07.01.05.03.1.06.15,0,.01.04.01.09.03.17-.55.42-.98.96-1.17.03-.01.05-.03.08-.04.55-.11,1.02,0,.96.77Z"/>
      <path class="cls-1" d="m113.97,36.5c.01-.14.01-.26.02-.38q-.24.22-.02.38Zm2.1.22c.08-.19.13-.32.17-.45-.19.06-.3.17-.17.45Zm.56-.16c.29-.18.3-.2.14-.58-.05.21-.09.38-.14.58Zm1.84-.2c.3.02.31-.15.28-.35-.09.12-.18.23-.28.35Zm2.31-1.13c.05.31.03.64-.02.95-.09.5-.41.83-.89,1.04-.58.25-1.17.38-1.8.45-.9.1-1.77-.07-2.64-.12-.97-.05-1.8-.51-2.57-1.08-.45-.34-.55-.89-.25-1.37.35-.58.93-.52,1.4-.28.43.22.69.61.95,1,.03.06.07.11.14.22.11-.28.21-.5.29-.73.26-.67,1.2-1.04,1.85-.47.13.11.22.29.31.45.07.15.12.32.18.48.03.01.07.01.1.02.07-.12.14-.24.2-.37.35-.85,1.5-1.14,2.17-.9.33.12.52.39.58.71Zm-1.34.62c-.15.22-.29.45-.43.67.34-.13.41-.24.43-.67Zm.58-.57c.12.67-.09,1.15-.7,1.52.12.01.16.02.2.02.38-.06.89-1,.7-1.41-.02-.05-.09-.07-.2-.13Z"/>
      <path class="cls-1" d="m92.68,65.15c.34-.69,1.02-.95,1.75-.69.31.12.62.25.93.38t.02.01c.1.1.21.19.32.28l.03.03c.16.17.32.34.5.54.16-.33.3-.6.43-.87.3-.6.66-.77,1.38-.74.87.04,1.43.53,1.74,1.32.03.07.07.15.15.31.1-.25.18-.42.24-.59.1-.34.31-.58.6-.77.49-.33,1.05-.44,1.63-.49.81-.05,1.45.26,1.96.88.42.51.41,1.36-.01,1.77-.36.35-.7.73-1.06,1.09-.16.15-.35.29-.52.44h-.01c-.29.16-.57.31-.85.47-.02.02-.03.06-.03.09h-.01c-.31.14-.61.29-.93.42-.57.23-1.18.26-1.78.29-.49.02-.97,0-1.46.02-.22-.14-.46-.18-.71-.16-.35-.13-.68-.26-1.03-.39-.54-.21-1.13-.35-1.63-.64-.61-.35-1.25-.67-1.7-1.27-.22-.29-.34-.55-.27-.87.07-.3.18-.59.32-.86Z"/>
      <path class="cls-1" d="m94.81,52.83c.07-.39.3-.68.62-.9.24-.16.54-.13.82.08.12.09.22.2.32.31.1.1.18.22.32.39.12-.2.19-.34.27-.47.24-.38.56-.64,1.04-.65.18-.01.29.06.39.21.16.26.35.5.55.79.05-.09.1-.14.1-.2,0-.32.2-.51.46-.64.11-.05.22-.11.33-.14.64-.19.91-.07,1.18.53.04.08.08.17.12.25.01.01.02.01.07.02.06-.09.13-.18.17-.28.23-.5.68-.71,1.16-.72.52-.02.82.38,1.06.81.05.09.07.2.11.31.19-.03.22-.19.27-.32.18-.44.57-.54.97-.58.26-.04.45.15.5.41.02.13.03.26.05.46.1-.1.16-.13.19-.19.07-.16.12-.32.19-.48.15-.36.44-.49.8-.48.3.01.56.26.67.61.03.11.06.22.11.39.16-.26.29-.45.42-.65.03-.05.08-.11.12-.15.47-.5,1.01-.39,1.24.25.05.16.09.33.16.58.13-.22.22-.36.3-.5.14-.26.35-.42.66-.45.41-.04.65.18.83.5.07.12.12.26.19.44.11-.1.2-.17.27-.25.5-.56,1.23-.6,1.77-.08.15.15.28.32.38.51.23.44.07.93-.38,1.16-.23.12-.49.21-.75.26-.69.12-1.39.22-2.09.3-.37.04-.73.01-1.1.01l-1.47.03c-.5.01-1-.01-1.5.03-.63.05-1.27.16-1.9.21-.44.03-.88.02-1.32.03-.86.01-1.73.09-2.58.02-.79-.07-1.59.06-2.38-.15-.37-.1-.77-.04-1.16-.06-.67-.04-1.32-.2-1.88-.58-.27-.17-.46-.46-.66-.72-.05-.05-.03-.18-.01-.26Z"/>
      <path class="cls-1" d="m93.82,45c.09-.13.15-.19.18-.26.1-.23.25-.37.49-.43.38-.09.62,0,.75.33.1.29-.03.65-.33.77-.55.2-1.1.42-1.66.52-.66.11-1.34.14-2.01-.06-.4-.11-.75-.52-.78-.91-.01-.25.03-.45.27-.57s.48-.11.69.03c.28.21.53.44.67.78.01.03.03.07.06.13.05-.06.08-.08.08-.09-.04-.5.26-.75.66-.94.46-.21.78-.06.88.44.01.06.03.12.05.26Z"/>
      <path class="cls-1" d="m87.39,26.94c1.72.93,3.58,1.57,5.2,2.73-.32.14-.6,0-.88-.02-.19-.02-.37-.09-.56-.12-.73-.1-1.46-.19-2.18-.27-.28-.04-.55-.06-.81-.08-.1.14-.12.24,0,.34.64.57.94,1.35,1.36,2.06.18.31.37.61.55.91.02.04.05.08.07.12-.02,0-.03.02-.05.04l-.21-.15c-.66-.41-1.32-.81-1.97-1.22-.22-.15-.42-.32-.64-.47s-.45-.3-.68-.42c-.1-.06-.23-.06-.31-.08-.41.56-.8,1.08-1.18,1.61-.38.51-.74,1.03-1.24,1.54-.03-.18-.05-.27-.05-.37,0-.59.01-1.18,0-1.76-.01-.51-.05-1.02-.08-1.52-.01-.1-.08-.19-.12-.26-1.62,1.09-3.21,2.15-4.87,3.27.03-.16.02-.23.05-.28.43-.64.86-1.28,1.28-1.93.38-.59.74-1.18,1.11-1.76.04-.07.05-.15.06-.19-1.15-.14-2.28-.29-3.41-.41-.36-.04-.72,0-1.09-.06.07-.03.14-.08.22-.1.55-.14,1.11-.27,1.67-.39.44-.1.89-.18,1.33-.27.26-.05.31-.18.15-.42-.47-.68-.92-1.37-1.54-1.93-.03-.03-.05-.06-.11-.13.7-.07,3.15,1.35,3.82,1.9-.52.02-1.02-.27-1.61-.14.09.1.13.16.18.21.36.3.72.59,1.07.89.27.23.29.29.17.62-.03.09-.06.18-.11.25-.29.48-.59.95-.91,1.47.07.02.17.08.22.05.6-.35,1.21-.71,1.8-1.09.51-.31,1-.64,1.59-1.02-.06,1.05-.37,1.98-.38,2.93.21.08.26-.07.31-.19.26-.7.83-1.19,1.22-1.84.88.46,1.56,1.16,2.36,1.72.15-.17.04-.29-.03-.41-.16-.26-.34-.51-.51-.77-.14-.22-.27-.44-.44-.72h1.86c.1-.18-.03-.24-.11-.32-.33-.33-.72-.58-1.15-.79-.35-.17-.67-.38-.96-.73.17-.29.37-.59.51-.91.14-.31.53-.49.53-.97-.86.29-1.67.56-2.5.85-.24-.68-.08-1.37-.28-2.11-.36.62-.38,1.26-.6,1.88-.62-.41-1.14-.92-1.75-1.26-.16.1-.14.19-.1.3.13.48.25.95.38,1.43.05.18.13.35.18.53.04.13.05.28.08.48-.2-.06-.35-.11-.45-.14,0-.16.03-.28,0-.4-.05-.17-.1-.36-.2-.51-.42-.65-.63-1.38-.79-2.13-.02-.09-.03-.18-.06-.27l-.21-.84c-.04-.14-.09-.27-.14-.41.03-.01.05-.03.07-.04.17.17.33.35.51.53.4.4.81.8,1.2,1.22.11.11.22.25.28.39.08.2.21.25.44.18.18-1.13.6-2.21.99-3.31.35.55.41,1.19.61,1.78.2.58.28,1.21.42,1.88.28-.07.55-.12.8-.21.5-.18,1-.37,1.49-.58.45-.19.89-.41,1.35-.62-.06.23-.16.46-.32.66-.32.41-.65.81-.96,1.23-.32.42-.61.87-.93,1.34Z"/>
      <path class="cls-1" d="m88.51,28.43c.06.04.11.09.16.18-.51-.05-1.02.09-1.52-.07-.08-.03-.17,0-.25.01.02.08.03.17.08.24.21.38.43.75.7,1.2-.68-.5-1.3-.95-1.95-1.44-.37.58-.71,1.11-1.05,1.64-.02,0-.04,0-.06-.01.11-.82.22-1.65.35-2.59-.18.08-.29.11-.37.18-.35.35-.77.59-1.21.82-.43.21-.81.51-1.21.76-.13.09-.27.16-.43.21.19-.56.56-1,.86-1.5-.33-.27-.65-.54-.98-.8.02-.03.03-.05.04-.07.59.12,1.22.07,1.76.39.17-.11.16-.25.12-.4-.16-.63-.33-1.25-.5-1.88-.02-.07-.01-.15-.02-.26.5.39.96.75,1.48,1.16.25-.55.28-1.1.51-1.61.05.53.1,1.07.15,1.67.75-.22,1.44-.47,2.23-.75-.24.46-.44.83-.64,1.2-.03.05-.07.11-.1.17-.12.23-.07.33.16.48.57.35,1.13.71,1.69,1.07Z"/>
      <path class="cls-1" d="m70.61,28.61c.22.54.09,1.05-.36,1.39-.06.05-.13.11-.21.12-.44.07-.89.19-1.33.18-.62-.03-1.2-.25-1.64-.71-.26-.26-.38-.6-.39-.98,0-.21.1-.31.32-.32.34-.02.67.03.9.32.22.25.54.43.59.82.34-.82.91-1.11,1.63-1.14.27,0,.39.07.49.32Z"/>
      <path class="cls-1" d="m27.51,53.08c.18-.61.97-.8,1.46-.74.11.01.25.11.32.21.17.24.31.5.45.75.04.05.06.11.14.25.25-.6.65-.88,1.15-1.04.19-.06.39-.09.59-.1.32,0,.6.21.69.57.26,1.06.09,1.83-.7,2.58-.03.03-.07.05-.1.07-.85.43-1.68.92-2.63,1.14-.66.16-1.31.14-1.98.05-.52-.07-1.05-.12-1.57-.23-.33-.07-.65-.23-.97-.35-.1-.04-.2-.08-.29-.13-.13-.07-.28-.12-.37-.23-.35-.35-.68-.71-1.01-1.08-.43-.48-.49-1.08-.35-1.66.14-.62.69-.83,1.33-.65.45.13.75.44,1.01.81.07.1.11.26.31.23.09-.37.07-.82.46-1.04.19-.11.42-.2.63-.22.66-.05,1.08.29,1.29.93.07-.06.12-.08.14-.12Z"/>
      <path class="cls-1" d="m41.32,63.37c-.1.23-.08.43.04.61.03-.01.05-.01.07-.02-.03-.1-.05-.19-.07-.29-.02-.09.08-.2-.04-.3Zm-.21.85c-.06-.12-.14-.24-.2-.37-.08-.21-.11-.41.1-.57.02-.02.02-.07.04-.12-.41.23-.39.65.06,1.06Zm3.02.12c.01-.1.01-.21.02-.31-.07.1-.15.19-.09.31h.07Zm-2.31-.54q-.07.18.08.24c-.03-.08-.06-.16-.08-.24Zm1.9.77q-.1-.51.16-.9c-.38.08-.42.52-.16.9Zm3.32-.12c.18-.35.19-.44.07-.59-.03.18-.05.37-.07.59Zm-.54-.27c.04-.07.14-.11.07-.27-.06.09-.1.16-.13.22.02.02.04.03.06.05Zm-.86,1.48s-.05,0-.08,0c-.44.15-.9.14-1.35.11-.48-.03-.95-.06-1.42-.07-.48,0-.89-.21-1.27-.46-.4-.26-.75-.58-1.04-.96-.14-.19-.19-.38-.13-.61.09-.34.23-.64.46-.9.13-.16.32-.24.54-.3.27-.07.52-.09.8-.06.52.06.86.33,1.06.8.04.07.08.15.13.24.13-.21.23-.38.34-.54.29-.42,1.14-.54,1.46.17.06.12.08.26.12.39.02.06.04.11.06.19.28-.35.58-.63.92-.88.19-.06.38-.12.57-.17.21-.04.43-.06.63.05s.32.27.33.48c.02.27.02.53-.09.8-.12.32-.24.63-.47.89-.16.18-.33.33-.56.42-.17.06-.31.17-.47.26-.03,0-.07,0-.1.01-.15.04-.29.08-.44.13Z"/>
      <path class="cls-1" d="m45.88,47.42c-.24.25-.16.41,0,.57v-.57Zm-.51.91c-.07-.27-.19-.51-.19-.74.01-.24.13-.47.21-.72-.5.24-.46,1.11-.02,1.46Zm6.95-.02c.11-.15.16-.26.02-.41-.07.14-.15.25-.02.41Zm.63-.74l.21.84c.08-.32.08-.62-.21-.84Zm4.64,1.63c.06-.15.08-.24.11-.33-.19.06-.22.14-.11.33Zm.9-.21c-.13.24-.26.47-.39.7.32-.1.38-.39.47-.64-.03-.02-.05-.04-.08-.06Zm1.66-1.58c.16.55.14,1.12-.04,1.66-.2.56-.43,1.12-.73,1.64-.23.41-.57.76-.89,1.12-.13.13-.31.21-.47.31h-.01s-.01.01-.01.01c-.21.07-.43.15-.64.24-.22.08-.42.17-.63.24-.19.07-.4.1-.57.2-.63.32-1.29.35-1.98.24-.15-.03-.32-.03-.47-.01-.69.09-1.38-.07-2.06-.06-.23,0-.45,0-.68-.02-.61-.04-1.15-.33-1.7-.56-.45-.19-.89-.4-1.33-.61-.21-.1-.42-.2-.58-.35-.33-.3-.72-.48-1.13-.59-.54-.15-.94-.46-1.3-.87-.36-.4-.7-.84-.84-1.35-.16-.59-.22-1.22.14-1.78.32-.49.59-1.03,1.08-1.38.65-.47,1.39-.67,2.19-.58.2.03.42.14.57.28.35.3.67.64.98.99.12.14.17.34.29.59.07-.2.11-.31.15-.43.31-1.07,1.8-1.68,2.82-1.01.74.49,1.11,1.2,1.34,2.01,0,.04,0,.08.02.12,0,.01.01.02.05.06.03-.06.06-.1.09-.15.05-.11.08-.23.15-.32.96-1.16,2.16-1.67,3.68-1.41.35.07.71.11,1.04.25.71.29,1.25.77,1.47,1.52Zm-2.63,3.43c.9.07,2-1.03,1.95-2.07-.24,1.08-.9,1.76-1.95,2.07Z"/>
      <path class="cls-2" d="m119.32,36.8c.61-.37.82-.85.7-1.52.11.06.18.08.2.13.19.41-.32,1.35-.7,1.41-.04,0-.08-.01-.2-.02Z"/>
      <path class="cls-2" d="m119.01,36.52c.14-.22.28-.45.43-.67-.02.43-.09.54-.43.67Z"/>
      <path class="cls-2" d="m118.75,36.01c.03.2.02.37-.28.35.1-.12.19-.23.28-.35Z"/>
      <path class="cls-2" d="m116.77,35.98c.16.38.15.4-.14.58.05-.2.09-.37.14-.58Z"/>
      <path class="cls-2" d="m116.24,36.27c-.04.13-.09.26-.17.45-.13-.28-.02-.39.17-.45Z"/>
      <path class="cls-2" d="m113.97,36.5q-.22-.16.02-.38c-.01.12-.01.24-.02.38Z"/>
      <path class="cls-2" d="m113.21,22.31c-.07-.21-.06-.4.09-.63.13.27.02.45-.09.63Z"/>
      <path class="cls-2" d="m120.71,36.72c-.16.21-.34.44-.57.55-1.05.52-2.16.71-3.33.53-.38-.05-.77-.04-1.16-.07-.12,0-.23-.02-.35-.04-.18-.03-.36-.11-.54-.11-.76.02-1.34-.37-1.93-.76-.22-.14-.46-.26-.52-.56-.08-.36-.11-.71.05-1.06.31-.67.87-.88,1.59-.58.46.19.78.56,1.09,1.02.09-.16.16-.27.21-.39.34-.83,1.3-1.16,2.12-.54.13.1.22.27.3.42.06.09.08.19.12.31.13-.18.25-.33.36-.49.33-.5,1.31-.83,2.04-.62.55.16.81.78.81,1.25,0,.41-.05.81-.29,1.14Zm-.84.5c.48-.21.8-.54.89-1.04.05-.31.07-.64.02-.95-.06-.32-.25-.59-.58-.71-.67-.24-1.82.05-2.17.9-.06.13-.13.25-.2.37-.03,0-.07,0-.1-.02-.06-.16-.11-.33-.18-.48-.09-.16-.18-.34-.31-.45-.65-.57-1.59-.2-1.85.47-.08.23-.18.45-.29.73-.07-.11-.11-.16-.14-.22-.26-.39-.52-.78-.95-1-.47-.24-1.05-.3-1.4.28-.3.48-.2,1.03.25,1.37.77.57,1.6,1.03,2.57,1.08.87.05,1.74.22,2.64.12.63-.07,1.22-.2,1.8-.45Z"/>
      <path class="cls-2" d="m111.43,21.93c.09.15.13.2.14.25,0,.03-.06.07-.09.1-.04-.05-.1-.1-.12-.16-.01-.03.03-.09.07-.19Z"/>
      <path class="cls-2" d="m110.88,21.9c.02.07.03.14.04.21-.04,0-.09,0-.13.02-.01-.07-.01-.14-.01-.21,0,0,.07-.02.1-.02Z"/>
      <path class="cls-2" d="m108.27,22.1s-.02-.07-.02-.1c.07-.02.13-.04.2-.07.02.05.03.09.04.14-.07,0-.14.02-.22.03Z"/>
      <path class="cls-2" d="m107.87,21.58v.62c-.26-.31-.26-.32,0-.62Z"/>
      <path class="cls-2" d="m107.18,22.11c-.1-.31-.02-.57.21-.66-.1.57-.13.51.17.87-.23.05-.31,0-.38-.21Z"/>
      <path class="cls-2" d="m114.61,21.45c-.1.74-.39,1.41-1.14,1.78-.24.12-.46.25-.72.32-.51.11-.98.37-1.51.38-.48.01-.96.02-1.43.04-.41.02-.8-.04-1.17-.2-.22-.09-.43-.2-.65-.3-.46-.23-.93-.43-1.37-.7-.28-.16-.45-.46-.54-.77-.16-.49.21-1.42.64-1.71.82-.56,2.13-.23,2.69.66.1.16.18.33.28.52.16-.28.29-.52.42-.75.29-.5.97-.65,1.36-.57.32.06.5.33.68.58.1.14.17.3.27.47.14-.16.26-.3.38-.44.24-.25.53-.41.88-.41.76-.02,1.04.39.93,1.1Zm-1.03,1.5c.6-.42.81-.99.86-1.63.06-.77-.41-.88-.96-.77-.03.01-.05.03-.08.04-.54.19-.79.62-.96,1.17-.05-.02-.09-.02-.09-.03-.03-.05-.05-.1-.06-.15-.02-.44-.29-.76-.56-1.07-.09-.1-.25-.18-.38-.19-.4-.01-.79.09-1.04.41-.17.23-.27.52-.4.78-.05.1-.08.21-.15.39-.18-.3-.35-.52-.46-.77-.26-.58-.73-.82-1.32-.9-.79-.12-1.35.16-1.64.93-.16.42-.2.87.15,1.19.32.3.66.63,1.12.74.1.02.2.07.29.13.67.42,1.4.61,2.18.6.61,0,1.23,0,1.82-.19.57-.19,1.16-.32,1.68-.68Z"/>
      <path class="cls-2" d="m101.91,68.52c.28-.16.56-.31.85-.46-.23.3-.56.42-.88.55,0-.03.01-.07.03-.09Z"/>
      <path class="cls-2" d="m99.7,21.8c-.13-.15-.15-.33-.11-.52.04-.01.08-.02.12-.02.02.17.05.35.08.53-.03,0-.06.01-.09.01Z"/>
      <path class="cls-2" d="m98.84,21.95c.04.1.08.19.13.29-.29-.07-.33-.15-.22-.57.03.1.05.19.09.28Z"/>
      <path class="cls-2" d="m97.72,22.02c-.04.25.12.49.04.82-.26-.45-.26-.62-.04-.82Z"/>
      <path class="cls-2" d="m101.05,69.1c-.45.23-.95.27-1.43.3-.59.04-1.17.01-1.76.01-.05,0-.1-.04-.15-.06,0,0-.01,0-.01-.01.49-.01.97,0,1.46-.02.6-.03,1.21-.06,1.78-.29.32-.13.62-.28.93-.41-.19.3-.53.34-.82.48Z"/>
      <path class="cls-2" d="m96.99,69.18c.25-.02.49.02.71.16,0,.01.01.01.01.01-.26.01-.52-.03-.74-.17h.02Z"/>
      <path class="cls-2" d="m96.66,22.49c.18.13.18.15.22.71-.19-.1-.25-.27-.22-.71Z"/>
      <path class="cls-2" d="m96.82,37.16c-.04.07-.08.15-.16.28-.07-.2,0-.27.16-.28Z"/>
      <path class="cls-2" d="m104.35,66.52c.42-.41.43-1.26.01-1.77-.51-.62-1.15-.93-1.96-.88-.58.05-1.14.16-1.63.49-.29.19-.5.43-.6.77-.06.17-.14.34-.24.59-.08-.16-.12-.24-.15-.31-.31-.79-.87-1.28-1.74-1.32-.72-.03-1.08.14-1.38.74-.13.27-.27.54-.43.87-.18-.2-.34-.37-.5-.54.14.08.29.16.48.26.09-.17.19-.35.29-.54.46-.92,1.49-1.19,2.4-.67.44.26.78.58.98,1.12.07-.11.11-.16.13-.21.15-.52.54-.83.99-1.05.56-.27,1.18-.39,1.83-.34.8.06,1.66.69,1.92,1.53.13.4.1.83-.17,1.18-.5.63-1.06,1.19-1.75,1.61-.02.02-.04.01-.07.01h.01c.17-.16.36-.3.52-.45.36-.36.7-.74,1.06-1.09Z"/>
      <path class="cls-2" d="m95.72,36.82q.06-.31.38-.27c-.14.1-.25.18-.38.27Z"/>
      <path class="cls-2" d="m95.66,22.99c.08.31.15.56.22.85-.28-.23-.36-.53-.22-.85Z"/>
      <path class="cls-2" d="m95.38,64.85c.17.02.27.12.32.28-.11-.09-.22-.18-.32-.28Z"/>
      <path class="cls-2" d="m95.36,64.84h.02s-.01.01-.02,0Z"/>
      <path class="cls-2" d="m95.11,36.22q.1-.26.36-.16c-.11.04-.21.09-.36.16Z"/>
      <path class="cls-2" d="m95.17,53.81c-.23-.16-.41-.44-.51-.7-.12-.34.08-.65.28-.92.03-.05.1-.09.14-.14.55-.61,1.03-.38,1.48.05.09.09.17.2.31.36.19-.4.43-.69.78-.85.15-.07.32-.14.49-.16.24-.03.43.06.56.29.09.16.22.3.35.49.28-.52.72-.72,1.26-.8.4-.06.7.05.91.4.04.08.09.15.17.27.33-.5.76-.82,1.34-.83.62-.01.9.49,1.24.94.23-.33.48-.6.87-.68.39-.07.72-.03.94.38.07-.07.14-.11.17-.17.41-.69,1.11-.74,1.58-.11.05.07.1.13.17.23.08-.08.14-.16.22-.22.18-.15.34-.34.55-.44.43-.22.73-.11.97.31.07.12.13.25.21.41.27-.36.52-.7,1.03-.64.49.06.73.4.96.79.07-.05.14-.1.2-.16.31-.33.67-.43,1.12-.34.55.12,1.16.67,1.28,1.2.08.35-.15.85-.51,1.05-.2.1-.41.21-.63.25-.43.08-.87.11-1.31.17-.17.02-.34.04-.51.08-.59.14-1.19.1-1.79.1-.39,0-.77.04-1.16.05-.29,0-.58-.06-.87-.04-.84.06-1.67.15-2.51.22-.48.03-.97.06-1.46.07-.75.01-1.49.01-2.23.01-.4,0-.8-.06-1.19-.03-.49.04-.95-.04-1.43-.11-.39-.06-.79-.08-1.19-.07-.84,0-1.6-.25-2.28-.71Zm.26-1.88c-.32.22-.55.51-.62.9-.02.08-.04.21.01.26.2.26.39.55.66.72.56.38,1.21.54,1.88.58.39.02.79-.04,1.16.06.79.21,1.59.08,2.38.15.85.07,1.72-.01,2.58-.02.44,0,.88,0,1.32-.03.63-.05,1.27-.16,1.9-.21.5-.04,1-.02,1.5-.03l1.47-.03c.37,0,.73.03,1.1-.01.7-.08,1.4-.18,2.09-.3.26-.05.52-.14.75-.26.45-.23.61-.72.38-1.16-.1-.19-.23-.36-.38-.51-.54-.52-1.27-.48-1.77.08-.07.08-.16.15-.27.25-.07-.18-.12-.32-.19-.44-.18-.32-.42-.54-.83-.5-.31.03-.52.19-.66.45-.08.14-.17.28-.3.5-.07-.25-.11-.42-.16-.58-.23-.64-.77-.75-1.24-.25-.04.04-.09.1-.12.15-.13.2-.26.39-.42.65-.05-.17-.08-.28-.11-.39-.11-.35-.37-.6-.67-.61-.36-.01-.65.12-.8.48-.07.16-.12.32-.19.48-.03.06-.09.09-.19.19-.02-.2-.03-.33-.05-.46-.05-.26-.24-.45-.5-.41-.4.04-.79.14-.97.58-.05.13-.08.29-.27.32-.04-.11-.06-.22-.11-.31-.24-.43-.54-.83-1.06-.81-.48,0-.93.22-1.16.72-.04.1-.11.19-.17.28-.05-.01-.06-.01-.07-.02-.04-.08-.08-.17-.12-.25-.27-.6-.54-.72-1.18-.53-.11.03-.22.09-.33.14-.26.13-.45.32-.46.64,0,.06-.05.11-.1.2-.2-.29-.39-.53-.55-.79-.1-.15-.21-.22-.39-.21-.48.01-.8.27-1.04.65-.08.13-.15.27-.27.47-.14-.17-.22-.29-.32-.39-.1-.11-.2-.22-.32-.31-.28-.21-.58-.24-.82-.08Z"/>
      <path class="cls-2" d="m94.59,23.55c.23.25.21.53.26.79-.18-.21-.31-.44-.26-.79Z"/>
      <path class="cls-2" d="m94.72,34.9l-.27.15-.06-.06c.03-.06.06-.15.11-.18.05-.02.14.01.22.09Z"/>
      <path class="cls-2" d="m93.89,34.08c.05.2-.09.24-.22.34-.07-.25.13-.26.22-.34Z"/>
      <path class="cls-2" d="m94.06,24.68c-.25-.2-.37-.45-.31-.74.04-.01.07-.02.11-.03.06.26.13.51.2.77Z"/>
      <path class="cls-2" d="m93.13,33.17c-.02.05-.02.07-.03.07l-.33.12c-.02-.24,0-.25.36-.19Z"/>
      <path class="cls-2" d="m92.93,24.09c.11.28.22.57.33.85-.31-.2-.39-.5-.44-.81.04-.01.08-.03.11-.04Z"/>
      <path class="cls-2" d="m94.33,68.15c.5.29,1.09.43,1.63.64.35.13.68.26,1.03.39h-.02c-.23-.05-.46-.08-.68-.16-.57-.19-1.16-.38-1.72-.63-.68-.32-1.36-.67-1.89-1.23-.14-.14-.25-.31-.34-.49-.14-.25-.19-.52-.07-.8.12-.29.21-.6.37-.88.33-.6.87-.86,1.54-.7.37.09.72.27,1.08.42.05.02.08.08.12.13h-.02c-.31-.13-.62-.26-.93-.38-.73-.26-1.41,0-1.75.69-.14.27-.25.56-.32.86-.07.32.05.58.27.87.45.6,1.09.92,1.7,1.27Z"/>
      <path class="cls-2" d="m92.5,32.35c-.09.05-.19.11-.35.2.05-.26.18-.27.29-.3.02.03.04.06.06.1Z"/>
      <path class="cls-2" d="m92.06,24.53c.21.24.13.56.27.82-.22-.15-.32-.44-.27-.82Z"/>
      <path class="cls-2" d="m91.53,31.99c0-.24.09-.3.33-.29-.13.11-.21.18-.33.29Z"/>
      <path class="cls-2" d="m91.4,25.01c.07.26.13.48.19.71-.3-.33-.33-.46-.19-.71Z"/>
      <path class="cls-2" d="m91.41,31.1c-.16.09-.32.18-.52.3.14-.33.17-.35.52-.3Z"/>
      <path class="cls-2" d="m90.89,26.09c-.31-.27-.35-.4-.21-.71.07.24.12.43.21.71Z"/>
      <path class="cls-2" d="m90.4,30.8c.21-.09.33-.35.6-.3-.18.15-.3.4-.6.3Z"/>
      <path class="cls-2" d="m94,44.74c-.03.07-.09.13-.18.26-.02-.14-.04-.2-.05-.26-.1-.5-.42-.65-.88-.44-.4.19-.7.44-.66.94,0,0-.03.03-.08.09-.03-.06-.05-.1-.06-.13-.14-.34-.39-.57-.67-.78-.21-.14-.45-.15-.69-.03s-.28.32-.27.57c.03.39.38.8.78.91.67.2,1.35.17,2.01.06.56-.1,1.11-.32,1.66-.52.3-.12.43-.48.33-.77-.13-.33-.37-.42-.75-.33-.24.06-.39.2-.49.43Zm-.13-.26c.2-.11.4-.24.61-.32.37-.13.69-.01.81.27.23.49.18.8-.22,1.03-.25.15-.53.23-.8.35-.79.35-1.63.36-2.47.34-.53-.01-.99-.27-1.37-.63-.12-.12-.24-.26-.15-.46.03-.06.01-.13.01-.2-.01-.3.13-.52.41-.61.28-.1.59-.12.84.08.18.15.34.34.55.55.12-.47.5-.59.83-.74.42-.2.66-.1.95.34Z"/>
      <path class="cls-2" d="m90.38,40.61c-.02-.31-.03-.61-.05-.91.27.28.28.57.05.91Z"/>
      <path class="cls-2" d="m90.02,30.72s-.04-.04-.06-.07q.08-.2.39-.21c-.14.12-.24.2-.33.28Z"/>
      <path class="cls-2" d="m90.1,26.34c-.29-.14-.33-.31-.12-.69.04.27.08.47.12.69Z"/>
      <path class="cls-2" d="m89.71,14.58c-.06.04-.1.08-.11.08-.05-.03-.1-.07-.14-.11.02-.02.06-.07.07-.07.06.02.1.05.18.1Z"/>
      <path class="cls-2" d="m89.65,26.44c-.26-.19-.28-.31-.09-.63.04.24.06.43.09.63Z"/>
      <path class="cls-2" d="m89.17,15.12q-.1.18-.38,0c.16-.12.27-.08.38,0Z"/>
      <path class="cls-2" d="m89.27,26.83c-.25,0-.37-.33-.2-.68.07.26.14.47.2.68Z"/>
      <path class="cls-2" d="m89.18,40.4q-.14.16-.3-.02c.09.01.18.01.3.02Z"/>
      <path class="cls-2" d="m89.01,15.89c-.23.22-.32.21-.5-.11.21.05.35.08.5.11Z"/>
      <path class="cls-2" d="m88.91,16.82c-.19.12-.33.13-.45,0-.04-.03-.01-.13-.01-.24.17.09.29.16.46.24Z"/>
      <path class="cls-2" d="m88.71,38.58c-.27.02-.26-.08-.21-.29.09.13.14.19.21.29Z"/>
      <path class="cls-2" d="m88.78,39.49s-.04.1-.04.1c-.09-.01-.17-.04-.27-.07.11-.21.21-.09.31-.04h0Z"/>
      <path class="cls-2" d="m88.6,17.96c-.21.14-.39.11-.55-.12.24-.1.38.09.55.12Z"/>
      <path class="cls-2" d="m88.3,39.92c.21.26.21.29.08.7-.03-.29-.06-.49-.08-.7Z"/>
      <path class="cls-2" d="m88.49,19.13c-.34.15-.52.05-.56-.29.18.1.35.18.56.29Z"/>
      <path class="cls-2" d="m87.99,37.53c.23-.2.33-.08.42.09-.12-.03-.24-.05-.42-.09Z"/>
      <path class="cls-2" d="m87.53,20.46c.17.04.33.08.52.13-.21.22-.33.2-.52-.13Z"/>
      <path class="cls-2" d="m88.22,19.85c-.4.14-.44.13-.64-.18.22.06.39.11.64.18Z"/>
      <path class="cls-2" d="m87.69,36.71q.06-.25.29-.19c-.08.06-.17.11-.29.19Z"/>
      <path class="cls-2" d="m87.66,35.34s.01.08.02.11c-.13.03-.26.05-.39.08.1-.32.24-.22.37-.19Z"/>
      <path class="cls-2" d="m87.79,21.27c-.14.05-.21.12-.27.1-.11-.02-.25-.06-.14-.28.11.05.22.1.41.18Z"/>
      <path class="cls-2" d="m87.45,34.43c-.19.03-.33.04-.47.06q.14-.28.47-.06Z"/>
      <path class="cls-2" d="m87.2,22.26c.07.08.14.17.23.28-.13.09-.24.09-.32-.02-.03-.05,0-.15,0-.22.03-.01.06-.03.09-.04Z"/>
      <path class="cls-2" d="m87.29,33.61h-.57c.18-.26.23-.27.57,0Z"/>
      <path class="cls-2" d="m87.28,21.64c.1.05.19.12.34.21-.21.09-.36.09-.47-.05-.02-.04,0-.12,0-.18.04.01.08.01.12.02Z"/>
      <path class="cls-2" d="m87.44,23.19c-.24.23-.31.06-.39-.05.02-.04.04-.08.05-.12.11.05.21.1.34.17Z"/>
      <path class="cls-2" d="m87.07,32.68v.09c-.16.03-.31.06-.54.11.05-.1.07-.2.11-.2.14-.02.29,0,.43,0Z"/>
      <path class="cls-2" d="m86.95,41.21s-.08.01-.13.02c0-.09-.01-.19-.02-.28.03-.01.07-.01.1-.02.02.1.03.19.05.28Z"/>
      <path class="cls-2" d="m86.54,40.07c.32.11.36.19.21.43-.07-.14-.14-.27-.21-.43Z"/>
      <path class="cls-2" d="m86.73,31.67c-.22.12-.38.21-.54.3-.02-.26.12-.35.54-.3Z"/>
      <path class="cls-2" d="m85.88,40.89c.01.11.02.19.03.27-.15-.07-.22-.15-.03-.27Z"/>
      <path class="cls-2" d="m85.43,40.19c.21.08.3.2.38.5-.64-.59-1.14-.42-1.56.49-.02-.11-.06-.17-.05-.23.08-.55.73-.95,1.23-.76Z"/>
      <path class="cls-1" d="m85.81,40.69c-.08-.3-.17-.42-.38-.5-.5-.19-1.15.21-1.23.76-.01.06.03.12.05.23.42-.91.92-1.08,1.56-.49Zm.07.2c-.19.12-.12.2.03.27,0-.08-.02-.16-.03-.27Zm.94.34s.09-.01.13-.02c-.02-.09-.03-.18-.05-.28-.03.01-.07.01-.1.02.01.09.02.19.02.28Zm-.07-.73c.15-.24.11-.32-.21-.43.07.16.14.29.21.43Zm1.63.12c.13-.41.13-.44-.08-.7.02.21.05.41.08.7Zm1.95-.92c.02.3.03.6.05.91.23-.34.22-.63-.05-.91Zm-1.45.68q.16.18.3.02c-.12-.01-.21-.01-.3-.02Zm-1.37-.91c.22-.46.95-.55,1.23-.14.03.04.03.09.04.14h0c-.1-.04-.2-.16-.31.05.1.03.18.06.27.07,0,0,.02-.06.04-.1.08.12.17.23.29.39.08-.13.15-.23.21-.34.2-.31.78-.56,1.12-.45.14.05.28.17.36.29.09.12.12.29.19.49.09-.09.18-.16.25-.24.41-.43.88-.4,1.18.12.11.2.19.44.23.67.03.26-.1.48-.31.66-.41.35-.92.35-1.39.45-.66.14-1.33.26-2,.37-.3.05-.61.07-.91.06-.77-.03-1.54-.1-2.29-.26-.03,0-.05-.03-.06-.04-.01-.2-.01-.4-.04-.59-.04-.26-.26-.47-.46-.48-.23-.02-.46.17-.54.45l-.09.3s-.05.07-.08.12c-.35-.04-.69-.09-.98-.35-.37-.35-.49-.76-.24-1.21.13-.23.31-.45.51-.61.41-.33.85-.28,1.25.12.15.14.26.33.41.54.03-.09.08-.17.1-.26.04-.34.24-.53.57-.58.25-.04.51-.07.75-.02.14.03.26.2.36.34.07.09.1.23.18.44.08-.19.11-.3.16-.4Z"/>
      <path class="cls-1" d="m85.34,41.59c.12.48,0,.95-.04,1.43-.07.85-.16,1.69-.29,2.54-.1.74-.26,1.49-.39,2.23-.13.76-.27,1.52-.41,2.28-.09.54-.17,1.08-.27,1.62-.08.44-.17.88-.25,1.33-.05.3-.08.61-.13.91-.02.1-.07.19-.12.3-.29-.09-.55-.18-.82-.28.03-.14.03-.27.07-.4.31-.89.39-1.84.58-2.76.19-.93.36-1.86.52-2.79.11-.63.17-1.26.27-1.89.1-.62.24-1.23.34-1.85.06-.39.06-.79.09-1.18,0-.12.03-.24.06-.36.09-.33.18-.66.28-1,.03-.1.07-.21.14-.28.06-.05.18-.09.25-.07.06.02.1.14.12.22Z"/>
      <path class="cls-2" d="m83.35,22.3q-.06.23-.33.15c.1-.05.21-.09.33-.15Z"/>
      <path class="cls-2" d="m83.22,21.41q-.14.23-.35.07c.1-.02.21-.04.35-.07Z"/>
      <path class="cls-2" d="m83.07,20.59c-.13.12-.21.2-.35.33q.06-.31.35-.33Z"/>
      <path class="cls-2" d="m82.71,31.42c.1.13.16.23.29.41q-.32-.09-.29-.41Z"/>
      <path class="cls-2" d="m82.6,32.03q-.32.07-.43-.18c.13.05.27.11.43.18Z"/>
      <path class="cls-2" d="m82.49,19.59c-.03.26-.08.29-.38.23.07-.18.23-.19.38-.23Z"/>
      <path class="cls-2" d="m82.02,32.33c.12.13.24.25.39.42-.53-.17-.56-.2-.39-.42Z"/>
      <path class="cls-2" d="m82.02,19.05q.15-.2.37-.26-.08.21-.37.26Z"/>
      <path class="cls-2" d="m82.34,17.94c-.09.27-.2.31-.53.28.09-.29.35-.12.53-.28Z"/>
      <path class="cls-2" d="m81.9,58.74c.59-.05.86.16.86,1.03-.05-.13-.11-.26-.13-.4-.05-.3-.22-.47-.52-.53-.05-.01-.1-.05-.21-.1Z"/>
      <path class="cls-2" d="m81.57,17.48c.1-.23.22-.26.4-.22-.05.23-.2.21-.4.22Z"/>
      <path class="cls-2" d="m81.63,33.07c.2-.02.27.14.38.24-.16,0-.34.02-.38-.24Z"/>
      <path class="cls-2" d="m81.79,16.76v.05h-.4v-.05h.4Z"/>
      <path class="cls-2" d="m80.75,13.94c.35-.21.6-.55,1.04-.6-.43.17-.67.51-.82.93-.03,0-.06,0-.08-.01-.05-.1-.1-.21-.14-.32Z"/>
      <path class="cls-2" d="m81.36,16.57q.04-.22.36-.21c-.08.2-.22.19-.36.21Z"/>
      <path class="cls-2" d="m81.56,15.46c-.13.29-.16.31-.47.25.07-.21.24-.23.47-.25Z"/>
      <path class="cls-2" d="m81.71,33.96c-.21,0-.38-.08-.48-.32.26.01.36.18.48.32Z"/>
      <path class="cls-2" d="m81.34,34.63s-.03.05-.05.07c-.19-.03-.39-.06-.51-.25-.01-.02.05-.1.08-.15.18.12.33.22.48.33Z"/>
      <path class="cls-2" d="m81.19,14.6c.14.23.13.24-.28.23.1-.08.19-.16.28-.23Z"/>
      <path class="cls-2" d="m80.84,13.14c.04.07.09.14.13.21-.25.09-.27.08-.29-.21h.16Z"/>
      <path class="cls-2" d="m80.62,35.02c.12.12.25.24.4.38-.48-.07-.54-.13-.4-.38Z"/>
      <path class="cls-2" d="m80.85,24.49c.07.2-.08.21-.22.32q.06-.23.22-.32Z"/>
      <path class="cls-2" d="m80.61,36.02l-.07.07c-.15-.07-.4-.04-.32-.37.14.11.26.21.39.3Z"/>
      <path class="cls-2" d="m80.6,24.17c-.05.21-.07.33-.29.35.02-.17.06-.28.29-.35Z"/>
      <path class="cls-2" d="m80.36,23.96c-.05.09-.1.18-.16.29q-.11-.18.16-.29Z"/>
      <path class="cls-2" d="m80.09,36.79l-.03.06c-.11-.04-.22-.08-.34-.13.05-.09.08-.16.13-.25.09.13.17.22.24.32Z"/>
      <path class="cls-2" d="m80.09,23.6c.02.22-.07.32-.28.4.02-.21.12-.31.28-.4Z"/>
      <path class="cls-2" d="m79.55,37.23v.38q-.19-.16,0-.38Z"/>
      <path class="cls-2" d="m79.38,23.52c.08-.15.17-.29.25-.43.08.22-.02.36-.14.48-.04-.01-.07-.03-.11-.05Z"/>
      <path class="cls-2" d="m79.3,29.63c.06.17.12.35.17.52.01.01-.02.04-.05.08-.15-.18-.3-.35-.22-.58.03-.01.07-.01.1-.02Z"/>
      <path class="cls-2" d="m79.2,22.72q.01.3-.16.46-.02-.25.16-.46Z"/>
      <path class="cls-2" d="m78.67,22.86c-.14-.26.04-.34.07-.47l.12.03c-.05.13-.11.25-.19.44Z"/>
      <path class="cls-2" d="m78.79,41.21q-.08-.2.11-.34c-.03.1-.06.2-.11.34Z"/>
      <path class="cls-2" d="m78.72,30.07c.07.15.13.28.21.46-.37-.16-.37-.18-.21-.46Z"/>
      <path class="cls-2" d="m78.8,26.85q.09.23-.14.35c.05-.13.09-.23.14-.35Z"/>
      <path class="cls-2" d="m78.44,21.71c.08.23.02.4-.15.51-.03-.02-.07-.04-.11-.06.09-.15.17-.3.26-.45Z"/>
      <path class="cls-2" d="m78.63,39.21c-.22.15-.37.11-.58,0,.23-.17.37-.07.58,0Z"/>
      <path class="cls-2" d="m78.88,40.69c-.07-.26.04-.54-.19-.71-.17-.15-.33-.27-.51-.42.63.03.97.59.7,1.13Z"/>
      <path class="cls-2" d="m78.12,30.47c.05.12.1.24.17.4-.37-.21-.38-.24-.17-.4Z"/>
      <path class="cls-2" d="m77.7,21.76q-.07-.26.13-.45s.05.03.07.05l-.2.4Z"/>
      <path class="cls-1" d="m78.13,42.54c.53.04,1.06.08,1.58.16.33.06.65.23.99.3.88.17,1.77.32,2.66.48.25.04.5.08.82.12-.03.21-.06.41-.1.67-.46-.08-.88-.15-1.29-.23-1.1-.22-2.2-.4-3.28-.66-.53-.12-1.06-.24-1.59-.35-.06-.02-.14-.02-.18-.06-.08-.07-.18-.15-.18-.23-.01-.13.12-.19.25-.19.11-.01.21-.02.32-.01Z"/>
      <path class="cls-2" d="m77.83,39.64q-.04.23-.34.14c.11-.05.22-.09.34-.14Z"/>
      <path class="cls-2" d="m77.97,26.74c.05.26-.03.37-.23.44-.04-.21.11-.28.23-.44Z"/>
      <path class="cls-2" d="m77.24,30.77c.13.21.25.42.43.71-.47-.25-.55-.4-.43-.71Z"/>
      <path class="cls-2" d="m77.26,26.35c.08.18.06.34-.09.53-.18-.24.01-.38.09-.53Z"/>
      <path class="cls-2" d="m77.23,43.29c.12.06.31.02.33.25-.18,0-.32-.04-.33-.25Z"/>
      <path class="cls-2" d="m77.58,42.02c-.31.32-.51.65-.33,1.14-.27-.22-.3-.31-.23-.56.12-.39.27-.55.56-.58Z"/>
      <path class="cls-2" d="m77.23,20.87c.14.29-.03.4-.07.54-.04-.01-.07-.02-.11-.04.05-.14.1-.28.18-.5Z"/>
      <path class="cls-1" d="m77.74,46.93c.48.06.95.11,1.43.17.6.07,1.21.15,1.82.24.69.11,1.39.23,2.09.35.1.02.2.06.36.11-.07.29-.12.55-.17.79-1.13-.02-2.17-.27-3.23-.46-.6-.11-1.21-.19-1.81-.29-.45-.08-.89-.16-1.33-.27-.23-.05-.44-.17-.65-.25.01-.48.09-.56.51-.55.19.01.39.05.59.08.13.02.26.06.39.08Z"/>
      <path class="cls-2" d="m76.77,31.12c.11.22.2.4.32.63-.44-.23-.46-.28-.32-.63Z"/>
      <path class="cls-2" d="m76.71,20.27c.1.25.09.27-.15.57-.03-.01-.05-.02-.08-.03.07-.17.14-.34.23-.54Z"/>
      <path class="cls-2" d="m88.67,28.61c-.05-.09-.1-.14-.16-.18-.56-.36-1.12-.72-1.69-1.07-.23-.15-.28-.25-.16-.48.03-.06.07-.12.1-.17.2-.37.4-.74.64-1.2-.79.28-1.48.53-2.23.75-.05-.6-.1-1.14-.15-1.67-.23.51-.26,1.06-.51,1.61-.52-.41-.98-.77-1.48-1.16.01.11,0,.19.02.26.17.63.34,1.25.5,1.88.04.15.05.29-.12.4-.54-.32-1.17-.27-1.76-.39-.01.02-.02.04-.04.07.33.26.65.53.98.8-.3.5-.67.94-.86,1.5.16-.05.3-.12.43-.21.4-.25.78-.55,1.21-.76.44-.23.86-.47,1.21-.82.08-.07.19-.1.37-.18-.13.94-.24,1.77-.35,2.59.02.01.04.01.06.01.34-.53.68-1.06,1.05-1.64.65.49,1.27.94,1.95,1.44-.27-.45-.49-.82-.7-1.2-.05-.07-.06-.16-.08-.24.08-.01.17-.04.25-.01.5.16,1.01.02,1.52.07Zm-.13,1c.36.61.74,1.17,1.03,1.77.28.59.75,1.08,1.04,1.66l-.09.09c-.73-.35-1.48-.64-2.17-1.04-.7-.4-1.35-.9-2.03-1.37-.86,1.09-1.73,2.19-2.64,3.34-.39-1.41-.4-2.79-.29-4.23-.17.12-.3.23-.43.33-.49.32-.94.67-1.39,1.05-.18.15-.42.25-.63.39-.63.41-1.26.82-1.9,1.24-.23.15-.46.3-.73.48,0-.11-.01-.18,0-.25.13-.53.46-.96.75-1.4.36-.57.74-1.14,1.09-1.72.12-.19.18-.41.26-.63-.47-.3-.99-.36-1.5-.45-.43-.07-.87-.12-1.3-.19-.54-.09-1.07-.18-1.64-.28-.04-.1.04-.17.16-.22.8-.27,1.61-.46,2.44-.61.41-.08.81-.21,1.28-.33-.44-.53-.86-1.02-1.27-1.52-.27-.33-.54-.66-.8-1-.03-.04-.02-.14.01-.18s.12-.07.17-.06c.16.04.3.1.46.14.26.08.54.14.8.23.23.07.45.15.67.25.49.23.99.46,1.47.71.18.08.33.21.49.32.1.06.2.12.37.22-.04-.14-.05-.21-.08-.27-.36-.81-.56-1.66-.66-2.54-.02-.19-.1-.38-.15-.57-.09-.37-.19-.74-.29-1.11.04-.02.07-.04.1-.06.19.21.38.41.57.62.21.22.42.45.64.67.2.2.44.38.65.58.2.21.38.45.57.67.23-.58.45-1.16.66-1.73.22-.57.43-1.14.69-1.7.39.54.46,1.17.65,1.76.2.6.37,1.19.56,1.8,1.36-.19,2.51-.92,3.79-1.36.1.27-.03.49-.13.68-.28.52-.57,1.02-1.02,1.43-.22.2-.37.49-.54.74-.19.29-.37.58-.58.92.17.09.33.2.5.29.9.43,1.82.83,2.7,1.29.71.37,1.38.79,2.07,1.2.06.04.09.13.15.23-.7.16-1.3.14-1.91.01-.37-.09-.77-.1-1.15-.14l-1.26-.15c-.06-.01-.13,0-.21,0Zm-.22-4.01c.31-.42.64-.82.96-1.23.16-.2.26-.43.32-.66-.46.21-.9.43-1.35.62-.49.21-.99.4-1.49.58-.25.09-.52.14-.8.21-.14-.67-.22-1.3-.42-1.88-.2-.59-.26-1.23-.61-1.78-.39,1.1-.81,2.18-.99,3.31-.23.07-.36.02-.44-.18-.06-.14-.17-.28-.28-.39-.39-.42-.8-.82-1.2-1.22-.18-.18-.34-.36-.51-.53-.02,0-.04.03-.07.04.05.14.1.27.14.41l.21.84c.03.09.04.18.06.27.16.75.37,1.48.79,2.13.1.15.15.34.2.51.03.12,0,.24,0,.4.1.03.25.08.45.14-.03-.2-.04-.35-.08-.48-.05-.18-.13-.35-.18-.53-.13-.48-.25-.95-.38-1.43-.04-.11-.06-.2.1-.3.61.34,1.13.85,1.75,1.26.22-.62.24-1.26.6-1.88.2.74.04,1.43.28,2.11.83-.29,1.64-.56,2.5-.85,0,.48-.39.66-.53.97-.14.32-.34.62-.51.91.29.35.61.56.96.73.43.21.82.46,1.15.79.08.08.21.14.11.32h-1.86c.17.28.3.5.44.72.17.26.35.51.51.77.07.12.18.24.03.41-.8-.56-1.48-1.26-2.36-1.72-.39.65-.96,1.14-1.22,1.84-.05.12-.1.27-.31.19.01-.95.32-1.88.38-2.93-.59.38-1.08.71-1.59,1.02-.59.38-1.2.74-1.8,1.09-.05.03-.15-.03-.22-.05.32-.52.62-.99.91-1.47.05-.07.08-.16.11-.25.12-.33.1-.39-.17-.62-.35-.3-.71-.59-1.07-.89-.05-.05-.09-.11-.18-.21.59-.13,1.09.16,1.61.14-.67-.55-3.12-1.97-3.82-1.9.06.07.08.1.11.13.62.56,1.07,1.25,1.54,1.93.16.24.11.37-.15.42-.44.09-.89.17-1.33.27-.56.12-1.12.25-1.67.39-.08.02-.15.07-.22.1.37.06.73.02,1.09.06,1.13.12,2.26.27,3.41.41-.01.04-.02.12-.06.19-.37.58-.73,1.17-1.11,1.76-.42.65-.85,1.29-1.28,1.93-.03.05-.02.12-.05.28,1.66-1.12,3.25-2.18,4.87-3.27.04.07.11.16.12.26.03.5.07,1.01.08,1.52.01.58,0,1.17,0,1.76,0,.1.02.19.05.37.5-.51.86-1.03,1.24-1.54.38-.53.77-1.05,1.18-1.61.08.02.21.02.31.08.23.12.46.27.68.42s.42.32.64.47c.65.41,1.31.81,1.97,1.22l.21.15s.03-.03.05-.04c-.02-.04-.05-.08-.07-.12-.18-.3-.37-.6-.55-.91-.42-.71-.72-1.49-1.36-2.06-.11-.1-.09-.2,0-.34.26.02.53.04.81.08.72.08,1.45.17,2.18.27.19.03.37.1.56.12.28.01.56.16.88.02-1.62-1.16-3.48-1.8-5.2-2.73.32-.47.61-.92.93-1.34Z"/>
      <path class="cls-2" d="m77.27,39.98c-.02.23-.21.25-.3.37-.1.12-.2.23-.3.34-.02-.01-.04-.03-.07-.05.09-.33.3-.54.67-.66Z"/>
      <path class="cls-2" d="m76.45,39.92q.08-.18.27,0c-.09,0-.18,0-.27,0Z"/>
      <path class="cls-1" d="m76.45,39.92c.09,0,.18,0,.27,0q-.19-.17-.27,0Zm.52.43c.09-.12.28-.14.3-.37-.37.12-.58.33-.67.66.03.02.05.04.07.05.1-.11.2-.22.3-.34Zm.52-.57q.3.09.34-.14c-.12.05-.23.09-.34.14Zm1.14-.57c-.21-.07-.35-.17-.58,0,.21.11.36.15.58,0Zm.27,1.66q-.19.14-.11.34c.05-.14.08-.24.11-.34Zm-.73-2.22c.48-.21.96.03,1.04.51.02.09.03.19.04.28.04.02.07.05.1.08.02-.07.03-.13.06-.19.17-.32.47-.34.76-.29.33.05.5.3.57.6.1.51-.01.93-.46,1.26-.59.43-1.2.59-1.95.46.03-.15.04-.26.07-.37.02-.07.06-.12.08-.19.08-.28,0-.64-.17-.73-.21-.12-.7.02-.86.26-.17.27-.33.55-.46.84-.07.16-.16.24-.33.22-.57-.05-1.08-.26-1.47-.7-.32-.37-.31-.92.04-1.27.24-.23.51-.43.8-.59.36-.2.82-.02,1.05.38.05.08.1.17.17.31.22-.43.53-.7.92-.87Zm.52,1.33c.23.17.12.45.19.71.27-.54-.07-1.1-.7-1.13.18.15.34.27.51.42Z"/>
      <path class="cls-2" d="m76.44,25.7c-.02.26-.04.45-.05.65-.19-.26-.18-.3.05-.65Z"/>
      <path class="cls-2" d="m76.26,19.76c.02.13.06.26-.18.4.03-.19.05-.3.07-.42.04,0,.07,0,.11.02Z"/>
      <path class="cls-2" d="m75.95,47.67q.16.02.25.22c-.09-.03-.15-.04-.18-.07-.04-.04-.05-.1-.07-.15Z"/>
      <path class="cls-2" d="m75.94,31.49c.06.17.11.3.16.44q-.34-.16-.16-.44Z"/>
      <path class="cls-1" d="m77.25,43.16c-.18-.49.02-.82.33-1.14-.29.03-.44.19-.56.58-.07.25-.04.34.23.56Zm.31.38c-.02-.23-.21-.19-.33-.25.01.21.15.24.33.25Zm.77-2.93c-.09.44-.2.88-.3,1.32-.03.15-.09.23-.24.28-.1.03-.2.12-.28.21-.21.21-.2.41.01.62.05.06.11.11.19.17-.27,1.08-.54,2.15-.8,3.21-.38,0-.72.21-.84.51-.1.27,0,.46.22.6-.01.13-.02.25-.04.37h-.05q-.09-.21-.25-.23h-.01c-.03-.23-.09-.45-.06-.66.04-.21.18-.41.32-.69-.21.15-.35.25-.48.35.21-.73.42-1.45.63-2.18.21-.72.4-1.44.61-2.15.14-.46.31-.9.48-1.35.12-.33.39-.53.62-.76.25.03.31.19.27.38Z"/>
      <path class="cls-2" d="m76.2,46.32c-.14.28-.28.48-.32.69-.03.21.03.43.06.65-.18,0-.25-.11-.25-.27-.01-.16.02-.31.04-.46-.01-.09-.01-.18-.01-.26.13-.1.27-.2.48-.35Z"/>
      <path class="cls-2" d="m75.61,19.85c-.12-.27,0-.39.13-.56.08.23,0,.36-.13.56Z"/>
      <path class="cls-1" d="m77.95,51.49c.44.07.87.13,1.31.18.62.07,1.24.11,1.86.2.5.06.99.18,1.51.28-.04.29-.09.56-.13.86-.11.01-.19.03-.28.02-.53-.09-1.07-.19-1.61-.28-.05,0-.1-.02-.16-.02-.65.01-1.29-.14-1.93-.25-.76-.13-1.52-.22-2.28-.36-.47-.08-.93-.22-1.41-.34.02-.32.2-.53.49-.56.27-.04.55-.07.82-.03.61.08,1.21.21,1.81.3Z"/>
      <path class="cls-2" d="m75.53,25.64c-.03.19-.06.38-.1.65-.15-.36-.15-.39.1-.65Z"/>
      <path class="cls-2" d="m75.11,31.81c.06.19.11.33.16.48-.33-.15-.37-.24-.16-.48Z"/>
      <path class="cls-2" d="m75.02,18.94c.05.16-.02.27-.22.32.04-.11.07-.23.11-.35.04,0,.07.02.11.03Z"/>
      <path class="cls-2" d="m74.38,25.81c-.09-.19-.01-.36.07-.52.03.01.06.01.09.02-.02.17-.04.34-.05.51-.04,0-.07-.01-.11-.01Z"/>
      <path class="cls-2" d="m74.36,18.91c-.14-.27-.13-.3.23-.46l-.23.46Z"/>
      <path class="cls-2" d="m74.18,32.09c.03.12.05.24.1.35.04.08.24.09.13.28-.49-.33-.51-.39-.23-.63Z"/>
      <path class="cls-1" d="m79.09,74.45c-.2.85-.33,1.72-.5,2.58-.11.55-.19,1.12-.37,1.64-.28.8-.34,1.64-.5,2.46-.08.4-.14.79-.21,1.18-.02.12-.02.23-.03.34l-.02.09v.07c-.08.32-.16.65-.24.97-.1.4-.2.79-.28,1.19-.04.16-.02.33-.03.49,0,.01,0,.01,0,.01h0s-.02.07-.02.07c-.06.18-.12.35-.15.54-.07.43-.11.87-.19,1.3-.04.2-.13.4-.19.6-.04.14-.09.28-.11.42-.03.18,0,.38-.06.55-.22.76-.29,1.54-.44,2.31-.1.52-.26,1.03-.39,1.54-.03.14-.04.28-.05.43l-.02.06c-.03.1-.06.2-.1.3-.16.41-.32.82-.49,1.22-.14.36-.28.72-.44,1.07-.22.49-.5.6-.91.37-.14-.08-.26-.18-.4-.26-.19-.12-.21-.28-.17-.48.15-.82.38-1.61.66-2.39.07-.18.11-.38.17-.57.24-.87.5-1.74.74-2.61.06-.2.08-.42.13-.62.08-.32.17-.64.25-.97.05-.23.09-.47.13-.7.15-.81.36-1.61.64-2.39.17-.52.27-1.06.41-1.59.15-.57.3-1.15.47-1.72.09-.31.26-.59.36-.89.12-.37.25-.76.3-1.15.09-.59.22-1.17.37-1.75.17-.64.27-1.3.38-1.96.1-.51.15-1.04.29-1.55.14-.5.19-1.02.33-1.52.25-.89.54-1.76.79-2.64.2-.69.4-1.38.47-2.11.08-.92.2-1.85.37-2.76.14-.84.38-1.66.55-2.49.15-.79.27-1.58.4-2.36.06-.43.12-.84.35-1.27.16.04.33.06.48.13.38.15.4.27.3.67-.17.66-.29,1.32-.44,1.98-.1.44-.21.88-.29,1.32-.25,1.34-.48,2.68-.71,4.01-.21,1.29-.42,2.58-.78,3.83-.29,1-.58,2-.81,3.01Z"/>
      <path class="cls-2" d="m73.79,18.14c.04-.13.09-.26.13-.39.15.17.09.3,0,.42-.04,0-.09-.02-.13-.03Z"/>
      <path class="cls-2" d="m74.06,57.67c-.09-.12-.23-.2-.4-.34.5.1.68.34.62.82-.09-.21-.13-.36-.22-.48Z"/>
      <path class="cls-1" d="m76.25,47.9c-.15,1.1-.65,2.08-.92,3.13-.39-.02-.65.07-.73.45-.06.26.07.4.33.48-.05.14-.09.26-.16.47-.13-.19-.21-.29-.29-.4q-.1.28.29.52c-.09.3-.17.61-.28.91-.02.06-.09.13-.16.15-.22.07-.45.12-.74.2.05-.23.06-.4.12-.56.2-.58.41-1.15.61-1.73.03-.06.06-.12.07-.19.14-.84.61-1.58.79-2.42.13-.61.29-1.21.45-1.82.02-.06.06-.11.1-.16-.02.15-.05.3-.04.46,0,.16.07.27.25.27h0s.01,0,.01,0c.02.05.03.11.07.15.03.03.09.04.18.07h.05Z"/>
      <path class="cls-2" d="m73.76,32.91c-.32.03-.37-.06-.23-.44.09.17.16.3.23.44Z"/>
      <path class="cls-2" d="m73.52,25.24c-.16-.33-.15-.43.11-.71-.04.28-.08.48-.11.71Z"/>
      <path class="cls-2" d="m73.49,17.56c.06.22-.08.3-.21.38-.04-.2,0-.33.21-.38Z"/>
      <path class="cls-2" d="m73.12,56.3c-.17.12-.3.02-.44,0,0-.03,0-.06.01-.1.14.03.29.07.43.1Z"/>
      <path class="cls-2" d="m72.87,32.84c.01.13.02.23.03.36q-.28-.15-.03-.36Z"/>
      <path class="cls-2" d="m72.72,24.52c.07.17.13.33.01.46-.03-.01-.07-.01-.1-.02.03-.15.06-.29.09-.44Z"/>
      <path class="cls-2" d="m72.73,16.93c-.01.17-.02.28-.04.42-.22-.13-.21-.17.04-.42Z"/>
      <path class="cls-2" d="m72.29,57.06c-.2,0-.36-.01-.58-.02.15-.08.23-.13.31-.13.07,0,.14.05.27.15Z"/>
      <path class="cls-2" d="m72.41,57.4c.49.03,1.04,0,1.26.6.27.7.08.96-.39,1.25.05-.08.07-.19.14-.25.3-.26.28-.57.15-.91-.14-.36-.44-.53-.81-.54h-.17c-.22-.01-.44.02-.64.23.09-.27.19-.38.39-.38h.07Z"/>
      <path class="cls-1" d="m82.76,59.77c0-.87-.27-1.08-.86-1.03.11.05.16.09.21.1.3.06.47.23.52.53.02.14.08.27.13.4Zm-8.7-2.1c.09.12.13.27.22.48.06-.48-.12-.72-.62-.82.17.14.31.22.4.34Zm5.1,4.22c-.2.01-.4.03-.6.03-.14.01-.29.01-.44,0-.37-.03-.73-.07-1.1-.12-.49-.06-.98-.14-1.46-.21-.49-.07-.98-.14-1.46-.22-.11,0-.21-.05-.31-.08-.29-.08-.58-.16-.88-.24-.11-.03-.23-.06-.34-.1-.27-.11-.3-.16-.17-.42.31-.59.53-1.22.76-1.84.15-.37-.08-.85-.57-.85v-.29h.17c.37.01.67.18.81.54.13.34.15.65-.15.91-.07.06-.09.17-.14.25.47-.29.66-.55.39-1.25-.22-.6-.77-.57-1.26-.6h-.07l-.05-.34c-.13-.1-.2-.15-.27-.15l.66-.61c.14.02.27.12.44,0-.14-.03-.29-.07-.43-.1l-.41-1.13c.07-.09.12-.15.17-.22.26-.4.61-.68,1.07-.85.94-.33,1.9-.42,2.88-.39.45,0,.86.18,1.16.55.38.47.75.95,1.14,1.45.44-.65,1.2-.77,1.89-1.03.09-.03.18-.03.27-.03.28-.02.56-.04.81-.19.21-.13.45-.14.7-.08.2.05.41.08.62.12.08.02.16.03.23.07.41.24.8.51,1.23.72.36.17.57.43.69.77.18.49.38.98.46,1.49.05.35-.06.74-.14,1.1-.09.38-.24.76-.35,1.14-.19.68-.61,1.22-1.09,1.7-.41.41-.92.68-1.54.66-.21-.01-.39-.05-.57-.26.12-.49.23-1.03.39-1.54.06-.2.05-.34-.06-.49-.24-.31-.58-.43-.96-.38-.29.04-.53.38-.59.78-.07.47-.14.95-.21,1.42-.01.09-.05.18-.09.31h-1.23Z"/>
      <path class="cls-2" d="m71.99,33.04v.47q-.21-.18,0-.47Z"/>
      <path class="cls-2" d="m71.82,23.94l-.06.57s-.07,0-.1-.01c-.12-.21,0-.39.07-.58.03.01.06.01.09.02Z"/>
      <path class="cls-1" d="m78.62,63.14c.36.06.71.12,1.06.19.14.03.28.06.47.1-.08.41-.15.76-.23,1.16-.51-.09-1.01-.14-1.49-.27-1.11-.3-2.23-.5-3.35-.76-.83-.2-1.65-.5-2.48-.74-.27-.08-.54-.14-.81-.22-.09-.02-.18-.04-.26-.08-.32-.16-.35-.23-.23-.62.57-.05,1.13-.06,1.7.09.74.21,1.5.36,2.24.57.72.2,1.46.32,2.2.36.4.03.79.14,1.18.22Z"/>
      <path class="cls-2" d="m71.23,58.21c-.02.1-.04.21-.06.37-.19-.17-.07-.28-.05-.39.03.01.07.01.11.02Z"/>
      <path class="cls-1" d="m72.73,58.01c.24.1.35.28.32.54-.01.02-.01.05-.02.07-.22.52-.44,1.03-.64,1.55-.17.46-.53.84-.48,1.35-.31.08-.17-.19-.3-.28-.04.07-.08.13-.12.2-.24-.1-.4-.05-.51.17l-.15-.05c.16-.43.32-.87.44-1.32.14-.58.42-1.09.69-1.61.07-.14.14-.29.22-.42.15-.22.35-.29.55-.2Z"/>
      <path class="cls-2" d="m70.97,23.52c-.02.16.14.36-.1.49-.16-.22-.04-.36.1-.49Z"/>
      <path class="cls-1" d="m71.17,58.58c.02-.16.04-.27.06-.37-.04,0-.08,0-.11-.02-.02.11-.14.22.05.39Zm.83-.39c-.17.33-.35.66-.5,1-.12.28-.21.57-.3.86-.04.11-.05.21-.09.31-.09.21-.18.26-.38.17-.59-.27-1.18-.55-1.77-.82-.08-.04-.16-.1-.25-.13-.31-.1-.57-.28-.76-.55-.08-.11-.17-.21-.26-.3-.66-.72-.69-1.6-.53-2.48.07-.39.33-.75.55-1.1.18-.29.38-.58.63-.82.41-.42.98-.59,1.53-.73.3-.08.63-.04.93.1.51.22.94.55,1.29.99.07.1.11.23.19.38l.41,1.13s-.01.07-.01.1l-.66.61c-.08,0-.16.05-.31.13.22.01.38.02.58.02l.05.34c-.2,0-.3.11-.39.38.2-.21.42-.24.64-.23v.29h-.05c-.27.01-.42.14-.54.35Z"/>
      <path class="cls-2" d="m69.73,23.71c.07-.17.13-.3.19-.43.02,0,.05.02.07.03.02.13.04.25.06.4h-.32Z"/>
      <path class="cls-1" d="m78.96,69.45c-.07.28-.14.55-.22.87-.27-.03-.52-.06-.78-.1-.75-.11-1.5-.21-2.25-.33-.67-.1-1.34-.22-2.01-.34-.39-.07-.79-.14-1.18-.21-.65-.13-1.31-.23-1.96-.4-.4-.11-.79-.31-1.17-.49-.2-.09-.32-.25-.26-.51.78-.29,1.55-.23,2.31-.08.45.08.88.28,1.33.39.29.07.6.1.9.13.73.07,1.46.09,2.17.26.89.22,1.79.42,2.68.63.14.04.27.11.44.18Z"/>
      <path class="cls-1" d="m71.39,63.1c.16.1.09.24.05.36-.23.62-.38,1.27-.68,1.88-.2.41-.31.87-.46,1.31-.05.16-.1.31-.15.46-.08.25-.21.42-.51.4-.1-.01-.21.05-.3.1-.2.11-.38.27-.37.52,0,.06.01.11.03.15l-.1.05c-.04-.09-.08-.18-.13-.28h0s-.2-.08-.2-.08c.14-.4.27-.81.41-1.21.34-1.01.67-2.02,1.02-3.02.23-.64.49-1.27.73-1.91.03-.09.07-.18.1-.27l.15.05c-.19.39-.08.95.33,1.37l.09.04s-.02.07-.01.08Z"/>
      <path class="cls-2" d="m68.9,68.33c.11.24.21.46.3.68-.3-.05-.51-.47-.43-.96.05.1.09.19.13.28Z"/>
      <path class="cls-1" d="m75.32,77.71c.54.15,1.07.3,1.66.46.01.35-.16.67-.27,1.05-.33-.08-.63-.14-.92-.21-.24-.05-.47-.1-.71-.14-1.13-.19-2.22-.52-3.3-.91-.95-.34-1.89-.73-2.89-.88-.37-.05-.74-.11-1.09-.23-.38-.13-.73-.31-1.08-.5-.18-.1-.36-.24-.4-.5.3-.16.63-.13.93-.07.99.21,1.96.47,2.95.69.24.06.5.08.75.08.47.02.91.1,1.34.32.24.13.53.17.8.25.74.2,1.49.39,2.23.59Z"/>
      <path class="cls-2" d="m70.85,28.83c.09.83-.2,1.32-.93,1.6-.11.04-.24.04-.35.05-.69.11-1.36.02-1.99-.26-.28-.13-.56-.25-.82-.41-.53-.32-.58-1.46.06-1.77.32-.15.78-.11,1.19.29.18.18.32.39.51.62.3-.39.63-.67,1.08-.76.12-.02.24-.04.35-.05.58-.07.84.11.9.69Zm-.6,1.17c.45-.34.58-.85.36-1.39-.1-.25-.22-.33-.49-.32-.72.03-1.29.32-1.63,1.14-.05-.39-.37-.57-.59-.82-.23-.29-.56-.34-.9-.32-.22.01-.32.11-.32.32.01.38.13.72.39.98.44.46,1.02.68,1.64.71.44.01.89-.11,1.33-.18.08,0,.15-.07.21-.12Z"/>
      <path class="cls-1" d="m69.44,69.34c-.22.64-.41,1.29-.63,1.93-.18.56-.35,1.12-.58,1.65-.22.51-.24,1.04-.31,1.56-.04.36-.17.68-.33,1-.26-.01-.5-.02-.73-.03-.35-.02-.6.1-.7.47l-.08.02s0-.02,0-.03c-.03-.1-.02-.22,0-.31.14-.56.27-1.11.42-1.66.09-.32.21-.63.33-.94.19-.48.4-.95.57-1.44.21-.58.4-1.18.59-1.77.04-.12.07-.25.11-.38l.48-1.44.2.07h0c-.08.5.13.92.43.97-.09-.22-.19-.44-.3-.68l.1-.05c.07.14.21.21.33.29.14.08.28.14.42.21-.22.12-.24.36-.31.56Z"/>
      <path class="cls-1" d="m74.8,86.48c-.07.27-.14.54-.23.85-.18-.03-.36-.06-.53-.1-.63-.13-1.26-.25-1.87-.41-.58-.15-1.15-.36-1.72-.53-.4-.12-.81-.21-1.21-.31h-.03c-.23-.08-.48-.17-.72-.24-.53-.17-1.06-.33-1.59-.51-.83-.29-1.65-.6-2.48-.9-.13-.05-.28-.1-.4-.18-.22-.15-.25-.42-.06-.62.23-.27.49-.44.87-.31.19.07.4.09.57.19.37.22.79.31,1.2.43.84.24,1.69.47,2.53.71.53.15,1.06.29,1.57.46.57.2,1.12.44,1.68.64.62.23,1.26.43,1.89.65.16.06.32.11.53.18Z"/>
      <path class="cls-1" d="m65.9,79.72c-.13.36-.26.71-.39,1.08-.23.65-.44,1.31-.67,1.96-.07.19-.2.28-.43.3-.31.02-.64.33-.68.58-.05.33.08.58.38.71.09.04.18.07.28.11-.02.32-.1.62-.25.91-.19.36-.32.75-.47,1.13-.45,1.14-.92,2.27-1.35,3.41-.21.55-.34,1.12-.52,1.68-.2.66-.41,1.32-.62,1.98-.04.11-.09.22-.15.33-.19.33-.34.32-.65.09-.2-.16-.31-.38-.21-.68.16-.41.28-.82.41-1.24.15-.5.29-.99.44-1.49.11-.36.24-.73.35-1.09.16-.5.29-1,.47-1.48.21-.57.31-1.17.47-1.75.14-.5.26-1,.45-1.48.14-.34.31-.67.41-1.03.24-.82.49-1.63.77-2.44.34-1.02.71-2.03,1.08-3.04.26-.7.54-1.4.81-2.09.02-.06.05-.12.09-.21.14.29.15.63.46.74-.1-.26-.21-.5-.3-.76h0s.08-.03.08-.03c.14.45.62.53.93.8-.17.45-.95,2.38-1.16,2.93-.01.02-.01.04-.02.06h0Z"/>
      <path class="cls-2" d="m85.3,43.02c.04-.48.16-.95.04-1.43-.02-.08-.06-.2-.12-.22-.07-.02-.19.02-.25.07-.07.07-.11.18-.14.28-.1.34-.19.67-.28,1-.03.12-.05.24-.06.36-.03.39-.03.79-.09,1.18-.1.62-.24,1.23-.34,1.85-.1.63-.16,1.26-.27,1.89-.16.93-.33,1.86-.52,2.79-.19.92-.27,1.87-.58,2.76-.04.13-.04.26-.07.4.27.1.53.19.82.28.05-.11.1-.2.12-.3.05-.3.08-.61.13-.91.08-.45.17-.89.25-1.33.1-.54.18-1.08.27-1.62.14-.76.28-1.52.41-2.28.13-.74.29-1.49.39-2.23.13-.85.22-1.69.29-2.54Zm-8.9,37.87c.12-.49.17-.99.26-1.52-.51-.13-1.01-.26-1.51-.37-.34-.08-.68-.12-1.02-.19-1.09-.23-2.11-.66-3.16-1-.64-.22-1.29-.44-1.95-.57-.59-.12-1.18-.22-1.79-.44-.17.35-.33.7-.5,1.04-.04.07-.56,1.48-.75,1.88h0c-.36,1.13-.74,2.25-1.11,3.39.3.08.57.16.84.22.28.06.57.09.85.16.73.18,1.44.39,2.17.54.93.19,1.85.38,2.73.73.43.16.86.35,1.3.5.64.22,1.29.42,1.94.62.08.03.17.04.29.06.05-.13.09-.23.12-.35.23-.82.45-1.64.67-2.47.21-.74.44-1.48.62-2.23Zm.31-1.67c.11-.38.28-.7.27-1.05-.59-.16-1.12-.31-1.66-.46-.74-.2-1.49-.39-2.23-.59-.27-.08-.56-.12-.8-.25-.43-.22-.87-.3-1.34-.32-.25,0-.51-.02-.75-.08-.99-.22-1.96-.48-2.95-.69-.3-.06-.63-.09-.93.07.04.26.22.4.4.5.35.19.7.37,1.08.5.35.12.72.18,1.09.23,1,.15,1.94.54,2.89.88,1.08.39,2.17.72,3.3.91.24.04.47.09.71.14.29.07.59.13.92.21Zm1.52-31.38c.6.1,1.21.18,1.81.29,1.06.19,2.1.44,3.23.46.05-.24.1-.5.17-.79-.16-.05-.26-.09-.36-.11-.7-.12-1.4-.24-2.09-.35-.61-.09-1.22-.17-1.82-.24-.48-.06-.95-.11-1.43-.17-.13-.02-.26-.06-.39-.08-.2-.03-.4-.07-.59-.08-.42-.01-.5.07-.51.55.21.08.42.2.65.25.44.11.88.19,1.33.27Zm-.2-5.91c.1-.44.21-.88.3-1.32.04-.19-.02-.35-.27-.38-.23.23-.5.43-.62.76-.17.45-.34.89-.48,1.35-.21.71-.4,1.43-.61,2.15-.21.73-.42,1.45-.63,2.18,0,.08,0,.17.01.26-.04.05-.08.1-.1.16-.16.61-.32,1.21-.45,1.82-.18.84-.65,1.58-.79,2.42-.01.07-.04.13-.07.19-.2.58-.41,1.15-.61,1.73-.06.16-.07.33-.12.56.29-.08.52-.13.74-.2.07-.02.14-.09.16-.15.11-.3.19-.61.28-.91q-.39-.24-.29-.52c.08.11.16.21.29.4.07-.21.11-.33.16-.47-.26-.08-.39-.22-.33-.48.08-.38.34-.47.73-.45.27-1.05.77-2.03.92-3.13.02-.12.03-.24.04-.37-.21-.14-.32-.33-.22-.6.12-.3.46-.51.84-.51.26-1.06.53-2.13.8-3.21-.08-.06-.14-.11-.19-.17-.21-.21-.22-.41-.01-.62.08-.09.18-.18.28-.21.15-.05.21-.13.24-.28Zm5.23,6.89c-2.29-.36-4.53-.76-6.82-1.14-.09,1.15-.7,2.17-.89,3.25,1.21.2,2.37.4,3.54.57,1.16.17,2.34.3,3.56.45.2-1.06.4-2.06.61-3.13Zm-6.29,29.12c.7-2.48.93-5.02,1.72-7.47-.94-.15-1.84-.28-2.73-.42-.59-.1-1.19-.18-1.78-.29-.89-.16-1.78-.34-2.67-.5-.51-.1-1.03-.15-1.49-.4-.08-.04-.17-.05-.26-.07-.02.08-.03.17-.06.25-.42,1.15-.87,2.29-1.16,3.49-.03.1-.08.19-.11.3-.1.31-.22.63-.28.95-.11.55-.1,1.12-.34,1.64,0,.01.02.04.04.08.08.03.16.07.25.08.81.11,1.57.39,2.39.44.85.05,1.7.17,2.52.41.49.14.99.25,1.46.43.57.22,1.12.5,1.68.75.27.12.55.22.82.33Zm1.9-15.72c-.29-.02-.59.01-.88-.03-.63-.07-1.26-.18-1.89-.27-.29-.04-.59-.05-.88-.11-.75-.15-1.51-.32-2.26-.48-.18-.04-.36-.1-.55-.12-.24-.04-.28,0-.31.33.39.06.75.09,1.11.17.7.17,1.39.37,2.09.53.6.14,1.2.27,1.8.35.64.08,1.27.14,1.89.32.38.12.77.17,1.21.26.04-.28.07-.52.11-.8-.52-.06-.98-.11-1.44-.15Zm.84-19.52c-.52-.08-1.05-.12-1.58-.16-.11,0-.21,0-.32.01-.13,0-.26.06-.25.19,0,.08.1.16.18.23.04.04.12.04.18.06.53.11,1.06.23,1.59.35,1.08.26,2.18.44,3.28.66.41.08.83.15,1.29.23.04-.26.07-.46.1-.67-.32-.04-.57-.08-.82-.12-.89-.16-1.78-.31-2.66-.48-.34-.07-.66-.24-.99-.3Zm-.03,20.63c-.35-.07-.7-.13-1.06-.19-.39-.08-.78-.19-1.18-.22-.74-.04-1.48-.16-2.2-.36-.74-.21-1.5-.36-2.24-.57-.57-.15-1.13-.14-1.7-.09-.12.39-.09.46.23.62.08.04.17.06.26.08.27.08.54.14.81.22.83.24,1.65.54,2.48.74,1.12.26,2.24.46,3.35.76.48.13.98.18,1.49.27.08-.4.15-.75.23-1.16-.19-.04-.33-.07-.47-.1Zm.91-8.75c-.69.26-1.45.38-1.89,1.03-.39-.5-.76-.98-1.14-1.45-.3-.37-.71-.54-1.16-.55-.98-.03-1.94.06-2.88.39-.46.17-.81.45-1.07.85-.05.07-.1.13-.17.22-.08-.15-.12-.28-.19-.38-.35-.44-.78-.77-1.29-.99-.3-.14-.63-.18-.93-.1-.55.14-1.12.31-1.53.73-.25.24-.45.53-.63.82-.22.35-.48.71-.55,1.1-.16.88-.13,1.76.53,2.48.09.09.18.19.26.3.19.27.45.45.76.55.09.03.17.09.25.13.59.27,1.18.55,1.77.82.2.09.29.04.38-.17.04-.1.05-.2.09-.31.09-.29.18-.58.3-.86.15-.34.33-.67.5-1,.12-.21.27-.34.54-.35h.05c.49,0,.72.48.57.85-.23.62-.45,1.25-.76,1.84-.13.26-.1.31.17.42.11.04.23.07.34.1.3.08.59.16.88.24.1.03.2.07.31.08.48.08.97.15,1.46.22.48.07.97.15,1.46.21.37.05.73.09,1.1.12.15.01.3.01.44,0,.2,0,.4-.02.6-.03h1.23c.04-.13.08-.22.09-.31.07-.47.14-.95.21-1.42.06-.4.3-.74.59-.78.38-.05.72.07.96.38.11.15.12.29.06.49-.16.51-.27,1.05-.39,1.54.18.21.36.25.57.26.62.02,1.13-.25,1.54-.66.48-.48.9-1.02,1.09-1.7.11-.38.26-.76.35-1.14.08-.36.19-.75.14-1.1-.08-.51-.28-1-.46-1.49-.12-.34-.33-.6-.69-.77-.43-.21-.82-.48-1.23-.72-.07-.04-.15-.05-.23-.07-.21-.04-.42-.07-.62-.12-.25-.06-.49-.05-.7.08-.25.15-.53.17-.81.19-.09,0-.18,0-.27.03Zm-1.63,14.87c-.17-.07-.3-.14-.44-.18-.89-.21-1.79-.41-2.68-.63-.71-.17-1.44-.19-2.17-.26-.3-.03-.61-.06-.9-.13-.45-.11-.88-.31-1.33-.39-.76-.15-1.53-.21-2.31.08-.06.26.06.42.26.51.38.18.77.38,1.17.49.65.17,1.31.27,1.96.4.39.07.79.14,1.18.21.67.12,1.34.24,2.01.34.75.12,1.5.22,2.25.33.26.04.51.07.78.1.08-.32.15-.59.22-.87Zm.3-17.78c-.44-.05-.87-.11-1.31-.18-.6-.09-1.2-.22-1.81-.3-.27-.04-.55-.01-.82.03-.29.03-.47.24-.49.56.48.12.94.26,1.41.34.76.14,1.52.23,2.28.36.64.11,1.28.26,1.93.25.06,0,.11.01.16.02.54.09,1.08.19,1.61.28.09,0,.17-.01.28-.02.04-.3.09-.57.13-.86-.52-.1-1.01-.22-1.51-.28-.62-.09-1.24-.13-1.86-.2Zm.62,13.09c-2.97-.65-5.9-1.26-8.75-2.28.05.15.1.29.18.5-.41-.42-.52-.98-.33-1.37.11-.22.27-.27.51-.17.04-.07.08-.13.12-.2.13.09-.01.36.3.28-.05-.51.31-.89.48-1.35.2-.52.42-1.03.64-1.55.01-.02.01-.05.02-.07.03-.26-.08-.44-.32-.54-.2-.09-.4-.02-.55.2-.08.13-.15.28-.22.42-.27.52-.55,1.03-.69,1.61-.12.45-.28.89-.44,1.32-.03.09-.07.18-.1.27-.24.64-.5,1.27-.73,1.91-.35,1-.68,2.01-1.02,3.02-.14.4-.27.81-.41,1.21l-.48,1.44c-.04.13-.07.26-.11.38-.19.59-.38,1.19-.59,1.77-.17.49-.38.96-.57,1.44-.12.31-.24.62-.33.94-.15.55-.28,1.1-.42,1.66-.02.09-.03.21,0,.31,0,0,0,.02,0,.03h0c.09.27.2.51.3.77-.31-.11-.32-.45-.46-.74-.04.09-.07.15-.09.21-.27.69-.55,1.39-.81,2.09-.37,1.01-.74,2.02-1.08,3.04-.28.81-.53,1.62-.77,2.44-.1.36-.27.69-.41,1.03-.19.48-.31.98-.45,1.48-.16.58-.26,1.18-.47,1.75-.18.48-.31.98-.47,1.48-.11.36-.24.73-.35,1.09-.15.5-.29.99-.44,1.49-.13.42-.25.83-.41,1.24-.1.3.01.52.21.68.31.23.46.24.65-.09.06-.11.11-.22.15-.33.21-.66.42-1.32.62-1.98.18-.56.31-1.13.52-1.68.43-1.14.9-2.27,1.35-3.41.15-.38.28-.77.47-1.13.15-.29.23-.59.25-.91-.1-.04-.19-.07-.28-.11-.3-.13-.43-.38-.38-.71.04-.25.37-.56.68-.58.23-.02.36-.11.43-.3.23-.65.44-1.31.67-1.96.13-.37.26-.72.39-1.08h0s.01-.05.02-.07c.21-.55.99-2.48,1.16-2.93-.31-.27-.79-.35-.93-.8.1-.37.35-.49.7-.47.23,0,.47.02.73.03.16-.32.29-.64.33-1,.07-.52.09-1.05.31-1.56.23-.53.4-1.09.58-1.65.22-.64.41-1.29.63-1.93.07-.2.09-.44.31-.56-.14-.07-.28-.13-.42-.21-.12-.08-.26-.15-.33-.29-.02-.04-.03-.09-.03-.15-.01-.25.17-.41.37-.52.09-.05.2-.11.3-.1.3.02.43-.15.51-.4.05-.15.1-.3.15-.46.15-.44.26-.9.46-1.31.3-.61.45-1.26.68-1.88.04-.12.11-.26-.05-.36-.01-.01.01-.05.01-.08.08-.05.17-.1.29-.18-.02.3-.16.57-.02.83,0,.02-.02.05-.03.08-.32.86-.64,1.72-.95,2.58-.03.07-.04.14-.09.18-.24.24-.25.57-.39.88.15.03.27.08.38.08.42-.03.82.07,1.22.19.28.08.55.19.83.24.78.12,1.56.19,2.33.34.67.13,1.32.35,1.97.52.69.17,1.37.32,2.11.49.28-1.51.56-3.01.83-4.49Zm-1.55-23.4c.75.13,1.36-.03,1.95-.46.45-.33.56-.75.46-1.26-.07-.3-.24-.55-.57-.6-.29-.05-.59-.03-.76.29-.03.06-.04.12-.06.19-.03-.03-.06-.06-.1-.08,0-.09-.02-.19-.04-.28-.08-.48-.56-.72-1.04-.51-.39.17-.7.44-.92.87-.07-.14-.12-.23-.17-.31-.23-.4-.69-.58-1.05-.38-.29.16-.56.36-.8.59-.35.35-.36.9-.04,1.27.39.44.9.65,1.47.7.17.02.26-.06.33-.22.13-.29.29-.57.46-.84.16-.24.65-.38.86-.26.17.09.25.45.17.73-.02.07-.06.12-.08.19-.03.11-.04.22-.07.37Zm5.73,3.08c-2.09-.37-4.12-.84-6.18-1.24-.28,1.13-.55,2.19-.83,3.32.26.02.48.01.68.04.82.13,1.63.27,2.44.4,1.03.17,2.05.33,3.07.49.27.05.29.02.34-.24.1-.59.21-1.18.31-1.77.06-.32.11-.64.17-1Zm-1.59,8.78c-2.5-.37-4.93-.75-7.39-1.12-.15.46-.33.93-.42,1.45.11,0,.16.01.21,0,.48-.03.96-.09,1.44-.09s.93.16,1.27.5c.3.3.55.65.81.98.1.12.17.26.28.41.52-.45,1.1-.7,1.74-.81.09-.02.18-.07.26-.11.5-.23.99-.53,1.6-.46.07-.25.13-.48.2-.75Zm5.79-14.33c.46-.06.58.3.81.6.24-.38.6-.52,1-.59.48-.08.76.17.97.58.07-.04.12-.08.17-.11.55-.34.84-.3,1.24.21.22.27.31.6.31.96-.02.56-.62.91-1.13,1.03-.56.13-1.12.23-1.68.34-1.18.23-2.35.27-3.53.08-.26-.05-.53-.06-.82-.09-.06.51-.1,1-.17,1.49-.11.87-.21,1.74-.35,2.61-.21,1.34-.47,2.68-.7,4.02-.19,1.17-.38,2.34-.58,3.5-.04.27-.09.53-.15.83.14.08.28.18.43.25.55.26.92.7,1.16,1.23.39.83.59,1.68.47,2.63-.08.63-.32,1.17-.56,1.74-.06.13-.14.26-.17.4-.25.95-1.03,1.35-1.82,1.73-.13.06-.31.04-.47.05-.24,0-.47,0-.71.01-.17,0-.22.13-.25.26-.09.36-.16.73-.24,1.09-.07.35-.14.71-.2,1.06-.18,1.05-.35,2.1-.53,3.15-.11.63-.24,1.26-.35,1.89-.29,1.55-.77,3.05-1.19,4.56-.14.47-.22.96-.3,1.45-.22,1.27-.5,2.53-.83,3.78-.14.56-.18,1.13-.29,1.69-.09.45-.21.89-.32,1.33.01-.11.01-.22.03-.34.07-.39.13-.78.21-1.18.16-.82.22-1.66.5-2.46.18-.52.26-1.09.37-1.64.17-.86.3-1.73.5-2.58.23-1.01.52-2.01.81-3.01.36-1.25.57-2.54.78-3.83.23-1.33.46-2.67.71-4.01.08-.44.19-.88.29-1.32.15-.66.27-1.32.44-1.98.1-.4.08-.52-.3-.67-.15-.07-.32-.09-.48-.13-.23.43-.29.84-.35,1.27-.13.78-.25,1.57-.4,2.36-.17.83-.41,1.65-.55,2.49-.17.91-.29,1.84-.37,2.76-.07.73-.27,1.42-.47,2.11-.25.88-.54,1.75-.79,2.64-.14.5-.19,1.02-.33,1.52-.14.51-.19,1.04-.29,1.55-.11.66-.21,1.32-.38,1.96-.15.58-.28,1.16-.37,1.75-.05.39-.18.78-.3,1.15-.1.3-.27.58-.36.89-.17.57-.32,1.15-.47,1.72-.14.53-.24,1.07-.41,1.59-.28.78-.49,1.58-.64,2.39-.04.23-.08.47-.13.7-.08.33-.17.65-.25.97-.05.2-.07.42-.13.62-.24.87-.5,1.74-.74,2.61-.06.19-.1.39-.17.57-.28.78-.51,1.57-.66,2.39-.04.2-.02.36.17.48.14.08.26.18.4.26.41.23.69.12.91-.37.16-.35.3-.71.44-1.07.17-.4.33-.81.49-1.22.04-.1.07-.2.1-.3.11.58-.17,1.07-.36,1.59-.16.43-.34.86-.49,1.3-.11.3-.2.38-.52.4-.48.03-.89-.15-1.26-.43-.19-.14-.21-.37-.16-.58.14-.61.3-1.21.46-1.82.13-.5.27-1,.42-1.5.04-.14.1-.28.14-.42.3-1.03.62-2.06.77-3.17l.11-.34c.06-.29.1-.53.16-.8-.15-.05-.28-.09-.4-.12-.64-.15-1.28-.26-1.91-.44-.91-.25-1.81-.55-2.71-.83-.1-.04-.2-.09-.3-.15.4.1.81.19,1.21.31.57.17,1.14.38,1.72.53.61.16,1.24.28,1.87.41.17.04.35.07.53.1.09-.31.16-.58.23-.85-.21-.07-.37-.12-.53-.18-.63-.22-1.27-.42-1.89-.65-.56-.2-1.11-.44-1.68-.64-.51-.17-1.04-.31-1.57-.46-.84-.24-1.69-.47-2.53-.71-.41-.12-.83-.21-1.2-.43-.17-.1-.38-.12-.57-.19-.38-.13-.64.04-.87.31-.19.2-.16.47.06.62.12.08.27.13.4.18.83.3,1.65.61,2.48.9.53.18,1.06.34,1.59.51.24.07.49.16.72.24-.62-.15-1.26-.27-1.87-.46-.59-.18-1.15-.43-1.72-.64-.34-.13-.69-.24-1.07-.36-.04.15-.07.25-.1.35-.05.15-.1.3-.16.45-.1.25-.22.5-.31.76-.08.23-.12.47-.19.69-.11.31-.23.61-.38.99.03-.01-.41,1.21-.57,1.76-.02.07-.03.16-.07.22-.38.66-.52,1.4-.72,2.11-.15.53-.26,1.06-.41,1.59-.07.26-.18.52-.3.76-.13.27-.41.28-.63.24-.27-.04-.55-.15-.77-.31-.27-.18-.43-.45-.3-.82.21-.57.4-1.15.59-1.73.2-.64.39-1.27.59-1.91.12-.36.84-2.44,1.01-3,.25-.82.5-1.63.74-2.45.22-.75.42-1.51.66-2.25.26-.8.58-1.58.81-2.38.29-1,.75-1.94,1.1-2.91.32-.87.65-1.75.87-2.66.17-.65.46-1.27.7-1.91l.87-2.4.15-.36c.19-.51.38-1.03.57-1.54.22-.58.44-1.16.67-1.74.11-.26.28-.48.39-.74.12-.28.19-.58.29-.86.26-.76.51-1.52.77-2.28.06-.15.14-.28.2-.43.11-.29.21-.57.31-.87-.76-.24-1.41-.61-2.08-.93-.5-.24-.95-.53-1.35-.91-.45-.45-.64-1.02-.7-1.62-.06-.59.02-1.19.14-1.78.11-.51.4-.88.72-1.27.34-.42.8-.64,1.26-.8.78-.27,1.6-.41,2.36.06.28.18.51.46.76.7.11.1.2.21.32.34.24-.35.55-.57.9-.75.09-.04.16-.16.19-.27.18-.56.33-1.12.5-1.68.08-.24.23-.46.31-.7.1-.3.15-.62.24-.92.25-.9.52-1.79.76-2.68.13-.51.21-1.02.34-1.53.31-1.25.62-2.5.94-3.75.08-.28.2-.55.31-.86-.54,0-.97-.2-1.41-.42-.82-.41-.77-1.4-.26-1.89.2-.19.44-.33.68-.49.37-.26.98-.16,1.25.22.03.04.07.09.12.15.21-.17.4-.34.6-.48.45-.31,1-.29,1.33.04.09.09.15.2.24.31.12-.04.23-.09.34-.12.48-.13,1.09.16,1.15.71.03.32.01.67-.07.98-.09.33-.43.46-.69.64-.53.39-1.15.45-1.83.38-.05.21-.1.42-.15.68.35.03.67.05.98.09.42.06.84.13,1.26.2.98.18,1.96.37,2.94.55.26.05.53.07.82.11.1-.51.2-1,.31-1.51-.22-.06-.42-.12-.62-.18-.92-.31-1.18-1.16-.61-1.94.09-.13.19-.26.31-.37.46-.4,1.05-.39,1.53.02.08.07.14.16.25.28.19-.46.56-.58.97-.62.4-.03.8-.03,1.04.44.27-.28.58-.38.93-.43Zm.48.44c-.28-.41-1.01-.32-1.23.14-.05.1-.08.21-.16.4-.08-.21-.11-.35-.18-.44-.1-.14-.22-.31-.36-.34-.24-.05-.5-.02-.75.02-.33.05-.53.24-.57.58-.02.09-.07.17-.1.26-.15-.21-.26-.4-.41-.54-.4-.4-.84-.45-1.25-.12-.2.16-.38.38-.51.61-.25.45-.13.86.24,1.21.29.26.63.31.98.35.03-.05.06-.08.08-.12l.09-.3c.08-.28.31-.47.54-.45.2.01.42.22.46.48.03.19.03.39.04.59,0,0,.03.04.06.04.75.16,1.52.23,2.29.26.3.01.61,0,.91-.06.67-.11,1.34-.23,2-.37.47-.1.98-.1,1.39-.45.21-.18.34-.4.31-.66-.04-.23-.12-.47-.23-.67-.3-.52-.77-.55-1.18-.12-.07.08-.16.15-.25.24-.07-.2-.1-.37-.19-.49-.08-.12-.22-.24-.36-.29-.34-.11-.92.14-1.12.45-.06.11-.13.21-.21.34-.12-.16-.21-.27-.29-.39h0v-.02c-.01-.05-.01-.1-.04-.14Z"/>
      <path class="cls-2" d="m58.1,49.69c.13-.23.26-.46.39-.7.03.02.05.04.08.06-.09.25-.15.54-.47.64Z"/>
      <path class="cls-2" d="m59.47,48.77c.05,1.04-1.05,2.14-1.95,2.07,1.05-.31,1.71-.99,1.95-2.07Z"/>
      <path class="cls-2" d="m57.7,48.87c-.03.09-.05.18-.11.33-.11-.19-.08-.27.11-.33Z"/>
      <path class="cls-2" d="m52.95,47.57c.29.22.29.52.21.84l-.21-.84Z"/>
      <path class="cls-2" d="m52.34,47.9c.14.15.09.26-.02.41-.13-.16-.05-.27.02-.41Z"/>
      <path class="cls-2" d="m47.11,63.86c.12.15.11.24-.07.59.02-.22.04-.41.07-.59Z"/>
      <path class="cls-2" d="m46.57,63.91c.07.16-.03.2-.07.27-.02-.02-.04-.03-.06-.05.03-.06.07-.13.13-.22Z"/>
      <path class="cls-2" d="m46.23,62.78c.19-.21.45-.22.7-.26.14-.02.29-.02.43.02.3.07.51.37.51.7s-.05.67-.2.99c-.11.25-.26.47-.43.69-.13.18-.3.31-.51.39-.1.03-.18.1-.27.14-.09.03-.19.04-.28.07.16-.09.3-.2.47-.26.23-.09.4-.24.56-.42.23-.26.35-.57.47-.89.11-.27.11-.53.09-.8-.01-.21-.13-.37-.33-.48s-.42-.09-.63-.05c-.19.05-.38.11-.57.17h-.01Z"/>
      <path class="cls-2" d="m45.88,47.42v.57c-.16-.16-.24-.32,0-.57Z"/>
      <path class="cls-2" d="m45.18,47.59c0,.23.12.47.19.74-.44-.35-.48-1.22.02-1.46-.08.25-.2.48-.21.72Z"/>
      <path class="cls-2" d="m44.06,64.34c-.06-.12.02-.21.09-.31-.01.1-.01.21-.02.31h-.07Z"/>
      <path class="cls-2" d="m59.54,50.67c-.25.43-.58.82-.9,1.21-.15.18-.37.29-.63.27h0s.01-.01.01-.01c.16-.1.34-.18.47-.31.32-.36.66-.71.89-1.12.3-.52.53-1.08.73-1.64.18-.54.2-1.11.04-1.66-.22-.75-.76-1.23-1.47-1.52-.33-.14-.69-.18-1.04-.25-1.52-.26-2.72.25-3.68,1.41-.07.09-.1.21-.15.32-.03.05-.06.09-.09.15-.04-.04-.05-.05-.05-.06-.01-.04-.01-.08-.02-.12-.23-.81-.6-1.52-1.34-2.01-1.02-.67-2.51-.06-2.82,1.01-.04.12-.08.23-.15.43-.12-.25-.17-.45-.29-.59-.31-.35-.63-.69-.98-.99-.15-.14-.37-.25-.57-.28-.8-.09-1.54.11-2.19.58-.49.35-.76.89-1.08,1.38-.36.56-.3,1.19-.14,1.78.14.51.48.95.84,1.35.36.41.76.72,1.3.87.41.11.8.29,1.13.59.16.15.37.25.58.35.44.21.88.42,1.33.61.55.23,1.09.52,1.7.56.23.01.45.02.68.02.68,0,1.37.15,2.06.06.15-.02.32-.02.47.01.69.11,1.35.08,1.98-.24.17-.1.38-.13.57-.2.21-.07.41-.16.63-.24.21-.09.43-.17.64-.24-.35.33-.79.45-1.22.6-.21.07-.43.13-.63.23-.58.27-1.18.32-1.8.24-.21-.03-.43-.08-.64-.05-.67.12-1.32-.08-1.99-.07-.26.01-.53-.03-.79-.02-.73.02-1.4-.31-2.1-.42-.09-.01-.17-.08-.25-.13-.54-.31-1.08-.63-1.62-.94-.14-.08-.29-.13-.44-.19-.55-.22-1.05-.53-1.44-.98-.3-.35-.6-.71-.88-1.08-.31-.42-.35-.91-.37-1.41-.03-.88.46-1.51.97-2.13.68-.83,1.61-1.09,2.65-1.02.17,0,.36.09.52.18.37.22.7.48.96.83.1.15.23.29.36.46.09-.13.16-.23.22-.33.47-.87,1.65-1.26,2.62-.86.5.2.89.58,1.15,1.06.16.3.3.59.45.89.33-.29.63-.61.98-.86.78-.55,1.65-.79,2.61-.67.62.08,1.25.14,1.81.47.78.46,1.23,1.11,1.24,2.04,0,.98-.35,1.86-.83,2.68Z"/>
      <path class="cls-2" d="m43.88,63.67q-.26.39-.16.9c-.26-.38-.22-.82.16-.9Z"/>
      <path class="cls-2" d="m41.9,64.04q-.15-.06-.08-.24c.02.08.05.16.08.24Z"/>
      <path class="cls-2" d="m41.32,63.37c.12.1.02.21.04.3.02.1.04.19.07.29-.02.01-.04.01-.07.02-.12-.18-.14-.38-.04-.61Z"/>
      <path class="cls-2" d="m40.91,63.85c.06.13.14.25.2.37-.45-.41-.47-.83-.06-1.06-.02.05-.02.1-.04.12-.21.16-.18.36-.1.57Z"/>
      <path class="cls-2" d="m45.56,65.67s.05,0,.08,0c.15-.05.29-.09.44-.13.03-.01.07-.01.1-.01-.09.13-.21.18-.37.2-.15.02-.3.06-.45.08-.24.03-.49.07-.73.08-.26.01-.53,0-.79-.02-.52-.03-1.04-.07-1.56-.14-.15-.02-.31-.1-.45-.17-.37-.19-.74-.39-1.1-.6-.44-.25-.62-.76-.51-1.25.07-.29.2-.54.35-.79.13-.24.32-.4.56-.49.52-.19,1.03-.16,1.52.05.25.11.44.3.56.54.03.07.05.14.09.27.13-.17.2-.28.28-.39.23-.32.58-.43.94-.41.34.02.56.28.72.58.05.1.09.21.15.35.17-.16.31-.31.47-.43.11-.09.25-.14.37-.2h.01c-.34.26-.64.54-.92.89-.02-.08-.04-.13-.06-.19-.04-.13-.06-.27-.12-.39-.32-.71-1.17-.59-1.46-.17-.11.16-.21.33-.34.54-.05-.09-.09-.17-.13-.24-.2-.47-.54-.74-1.06-.8-.28-.03-.53,0-.8.06-.22.06-.41.14-.54.3-.23.26-.37.56-.46.9-.06.23-.01.42.13.61.29.38.64.7,1.04.96.38.25.79.45,1.27.46.47.01.94.04,1.42.07.45.03.91.04,1.35-.11Z"/>
      <path class="cls-2" d="m29.82,53.05c.35-.22.66-.43.99-.62.26-.15.55-.18.85-.18.3.01.52.13.65.39.41.77.4,1.95-.32,2.73-.25.27-.53.47-.87.61-.16.06-.31.15-.45.24-.63.38-1.31.63-2.02.74-.54.09-1.11.06-1.67.03-.57-.04-1.14-.13-1.7-.23-.77-.15-1.47-.44-2-1.06-.27-.33-.57-.63-.84-.96-.21-.26-.36-.55-.3-.91.03-.21-.01-.43.02-.64.07-.59.51-.91,1.1-.9.57,0,1,.22,1.34.65.07.1.16.18.27.29.05-.68.47-1,1.06-1.11.6-.11,1.1.12,1.47.68.36-.45.82-.56,1.33-.63.38-.05.61.11.8.4.11.16.2.34.29.48Zm-.85-.71c-.49-.06-1.28.13-1.46.74-.02.04-.07.06-.14.12-.21-.64-.63-.98-1.29-.93-.21.02-.44.11-.63.22-.39.22-.37.67-.46,1.04-.2.03-.24-.13-.31-.23-.26-.37-.56-.68-1.01-.81-.64-.18-1.19.03-1.33.65-.14.58-.08,1.18.35,1.66.33.37.66.73,1.01,1.08.09.11.24.16.37.23.09.05.19.09.29.13.32.12.64.28.97.35.52.11,1.05.16,1.57.23.67.09,1.32.11,1.98-.05.95-.22,1.78-.71,2.63-1.14.03-.02.07-.04.1-.07.79-.75.96-1.52.7-2.58-.09-.36-.37-.57-.69-.57-.2,0-.4.04-.59.1-.5.16-.9.44-1.15,1.04-.08-.14-.1-.2-.14-.25-.14-.25-.28-.51-.45-.75-.07-.1-.21-.2-.32-.21Z"/>
    </g>
    <g>
      <path class="cls-1" d="m76.69,102.9c.13.51.28,1.03.24,1.57-.02.29-.05.58-.01.87.07.5-.17.93-.29,1.38-.16.62-.6.9-1.19.97-.35.04-.72.02-1.08.03-.57.02-1.14.05-1.71.08-.74.04-1.49.09-2.23.13-.08.01-.15-.02-.26-.04.03-.73.06-1.44.1-2.15.02-.31.13-.39.44-.38.37,0,.75.08,1.12.04.43-.05.85-.19,1.27-.32.17-.05.31-.18.31-.41-.01-.23,0-.45.02-.68s0-.47.03-.71c.03-.26.15-.33.49-.37.22.52.42,1.05.41,1.63.18.03.21-.06.21-.18.01-.26.02-.53.02-.8,0-.29.14-.52.28-.77.39.1.58.34.66.69.06.28.14.56.21.84.05,0,.09-.01.14-.02v-.49c0-.28-.02-.57.03-.84.04-.22.12-.51.39-.54.28-.03.34.28.4.47Z"/>
      <path class="cls-1" d="m77.6,109.42c.03.41.06.82.06,1.23,0,.5,0,.99-.12,1.46-.08.36-.25.7-.42,1.03-.14.27-.42.38-.7.41-.63.07-1.27.14-1.91.16-.76.04-1.52.02-2.28.04-.24.01-.47.06-.71.09-.25.03-.5.05-.75.06-.19.02-.28-.09-.27-.27.02-.21.05-.42.05-.63-.01-.55-.04-1.09-.06-1.71.22-.06.42-.14.62-.14.71,0,1.4-.16,2.09-.26.3-.05.61-.05.93-.08.1-.39.05-.79.04-1.19-.01-.35.16-.58.47-.71.24-.1.36-.08.43.18.07.28.07.57.11.86.01.12.02.25.04.37.24-.04.21-.19.21-.32.01-.33.04-.66.24-.95.08-.13.14-.27.32-.26s.29.12.35.29c.09.29.17.58.25.87.04.17.05.34.08.53.22-.1.14-.25.14-.36-.01-.25-.07-.51-.06-.76.01-.2.06-.42.14-.61.05-.09.2-.17.31-.2.14-.04.22.09.25.21.06.22.13.44.15.66Z"/>
      <path class="cls-2" d="m35.92,92.68c.24-.24.44-.43.64-.64-.55.25-.61.3-.64.64Zm-.33,1.51c.7-.73,1.53-1.24,2.49-1.54-1.12.06-1.83.75-2.49,1.54Zm.86.56c-.19.28-.41.53-.56.83-.22.43-.27.89-.1,1.36.34.93.85,1.74,1.65,2.35.45.34.69.81.89,1.3.2.5,0,.9-.53,1.08.29.13.56.26.83.35.41.12.82.23,1.24.31.34.07.49-.03.6-.37.07-.19.11-.39.15-.59.06-.29.1-.6.19-.89.05-.16.13-.37.36-.39.18-.02.47.18.57.38.02.05.03.1.05.15.12.39.27.77.19,1.2-.05.26.02.54-.03.79-.08.38-.23.74-.35,1.11-.02.06-.02.12-.02.18.16.1.31.18.46.26.86.46,1.74.61,2.69.29.27-.09.6-.16.86-.09.57.17,1.05.51,1.43.98.3.37.61.73.95,1.08.12.12.31.23.48.26.26.05.56.12.79-.11.15-.16.31-.34.39-.54.16-.35.28-.72.39-1.09.1-.37.03-.54-.31-.72-.63-.34-1.29-.63-1.81-1.14-.02-.02-.05-.03-.07-.04-.77-.43-1.05-1.1-1.01-1.94,0-.14-.01-.3-.07-.43-.14-.31-.3-.62-.47-.92-.06-.11-.18-.21-.29-.26-.46-.23-.94-.2-1.43-.2,0,0,.01,0,.01-.02h-.01c.09-.35-.06-.6-.36-.86-.18.79-.73,1.32-1.03,2,.13-.05.23-.13.32-.21.35-.3.71-.61,1.06-.91-.08.12-.15.26-.25.36-.23.23-.46.44-.7.65-.23.2-.46.4-.78.41.02-.16.08-.31.05-.44-.12-.6.03-1.13.36-1.63.13-.21.25-.43.39-.68-.65-.39-1.35-.67-1.88-1.2.02-.07.02-.11.03-.14.19-.45.45-.85.77-1.22.27-.31.23-.46-.14-.61-.2-.08-.39-.17-.58-.27-.29-.16-.57-.34-.87-.48-.56-.28-1.15-.51-1.57-.99-.21.14-.4.29-.61.39-.22.11-.46.2-.71.26-.27.07-.53.17-.75.35-.28.24-.57.47-.86.7Zm-1.32-.58s-.01.01-.02.01c.01.01.01.02,0,.03-.06.19-.33.3-.24.55.08-.18.32-.31.24-.55t.01-.02s.01-.01.01-.02Zm.01,0c.38-.17.61-.5.81-.84-.34.2-.62.47-.81.84Zm2.36-.42h-.02s-.01,0-.02,0c-.07.02-.14.02-.19.06-.32.22-.76.29-.91.72-.24.11-.37.31-.42.57-.14.19-.33.35-.28.68.12-.25.22-.45.31-.65.16-.13.33-.26.48-.39.01-.01.02-.01.02-.02.1-.25.29-.44.52-.59.16-.11.31-.25.47-.38h.02s.01,0,.02,0Zm.76-.73c.24-.08.5-.14.64-.4-.23.1-.45.2-.64.4Zm-.74.72c.41-.13.82-.25,1.23-.4.13-.05.23-.17.34-.25-.02-.03-.04-.05-.05-.07-.1.04-.21.06-.28.12-.22.22-.49.28-.78.36-.16.05-.31.15-.46.24Zm10.23,12.84c-.22.49-.16.7.22.92.27.16.58.23.88.18.62-.11,1.23-.27,1.64-.82.05-.07.14-.13.2-.19.22-.2.38-.19.57.02.31.38.64.75.96,1.13.3.36.63.72.9,1.11.38.54.86.96,1.47,1.18.84.3,1.72.33,2.63.34.06-.22.11-.42.17-.69-.2.02-.34.04-.48.03-.35-.03-.72-.03-1.05-.14-.42-.14-.81-.36-1.19-.58-.41-.25-.81-.52-1.17-.83-.55-.47-1.01-1.04-1.65-1.39-.07-.04-.12-.11-.18-.16-.29-.17-.35-.44-.28-.73.17-.64-.13-1.03-.72-1.38.21.33.31.63.2.93-.17.46-.36.92-.9,1.09-.29.09-.57.26-.87.29-.46.05-.95.17-1.35-.31Zm2.18-2.48c.17-.18.3-.32.42-.45.49-.52,1.16-.75,1.72-1.16.18-.13.45-.15.68-.21.17-.05.35-.06.5-.12.58-.24,1.16-.25,1.77-.13.53.1,1.08.15,1.61.25.8.15,1.6.3,2.38.52.86.25,1.61.7,2.16,1.44.24.33.48.66.7,1.01.09.14.17.2.35.18.38-.06.76-.07,1.15-.1.29-.03.55-.11.83-.22.39-.15.84-.19,1.26-.17.58.03,1.16-.01,1.74-.06.86-.07,1.72-.15,2.59-.17.31-.01.36-.07.55.48.46-.03.93-.05,1.41-.09.3-.03.6-.12.9-.17.4-.07.61-.29.52-.67-.09-.42.06-.79.16-1.18.1-.42.4-.43.71-.34.12.04.23.11.37.18.2-.31.46-.47.84-.38.13.18.27.36.42.57.19-.35.12-.81.55-.99.42.17.59.53.67.93.1.53.19,1.05.24,1.58.03.33-.01.67-.03,1-.02.34-.05.69-.1,1.03-.09.67-.51,1-1.15,1.16-.65.16-1.32.13-1.98.17-.84.04-1.68.05-2.51.08-.39.02-.77.06-1.21.1,0,.96.21,1.88.26,2.87.74-.07,1.43-.13,2.11-.2.27-.03.55-.09.82-.17.48-.13.52-.21.52-.7,0-.4.06-.79.34-1.11.23-.27.45-.35.78-.22.07.03.14.11.18.18.07.11.11.24.17.37.37-.83.84-.77,1.26-.17.05-.13.12-.24.16-.36.08-.24.28-.33.5-.33s.31.21.36.38c.09.34.15.7.19,1.05.07.72.1,1.44-.02,2.15-.07.4-.17.78-.29,1.16-.12.37-.39.57-.78.68-.49.13-.99.12-1.49.13-.93.01-1.87.06-2.8.1-.3.02-.61.04-.91.09-.31.04-.62.12-.96.19v.81c-.69.15-1.35.29-2.03.3-1.2.03-2.4-.09-3.59-.22-.79-.09-1.59-.17-2.38-.27-.43-.05-.84-.15-1.26-.21-.35-.06-.69-.09-1.03-.13-.19-.02-.37-.03-.58-.04-.13.68.2,1.09.68,1.45.34.25.67.52,1.01.77.23.17.4.39.52.65.12.25.08.3-.16.42-.32.18-.64.14-.91-.05-.4-.29-.88-.37-1.32-.56-.07-.03-.15-.04-.22-.09-.41-.27-.84-.22-1.26-.02-.37.18-.72.39-1.09.57-.48.24-.94.53-1.44.69-.64.21-1.31.35-2,.21-.06-.01-.12-.04-.17-.06-.1-.31-.04-.52.21-.71.44-.34.71-.82,1.01-1.28.15-.23.28-.47.43-.7.07-.11.16-.21.27-.29.15-.13.32-.23.53-.37-.35.01-.59.19-.85.29-.1.05-.23.1-.33.09-.19-.02-.32-.14-.35-.34-.04-.2.03-.35.2-.44.2-.09.41-.2.63-.23.63-.11,1.18-.38,1.74-.75-.1-.04-.16-.08-.22-.08-.46-.06-.93-.12-1.39-.17-.61-.06-1.19.12-1.78.22-.32.05-.63.14-.94.17-.24.02-.43.14-.62.25-.28.15-.56.3-.85.43-.58.27-1.17.52-1.75.78-.79.34-1.56.69-2.36.99-.37.14-.78.14-1.17.22-.21.04-.33-.05-.43-.22-.14-.23-.27-.48-.43-.75-.15.02-.31.05-.46.07-.45.06-.9.19-1.35.18-.67,0-1.35-.07-1.97-.4-.45-.25-.92-.46-1.35-.75-.77-.51-1.21-1.23-1.47-2.08-.23-.71-.42-1.43-.61-2.15-.11-.4-.17-.82-.26-1.26.16-.04.31-.1.47-.12.15-.02.31-.01.48-.01.03-.16.08-.28.06-.39-.07-.68-.15-1.35-.23-2.02-.07-.57-.37-.99-.84-1.29-.27-.18-.54-.35-.8-.53-.26-.19-.35-.43-.23-.6.11-.17.38-.18.65-.01.23.15.47.31.7.46.05.04.11.05.2.09-.15-.34-.29-.63-.41-.93-.04-.1-.08-.22-.06-.31.06-.34-.11-.63-.16-.94-.01-.07-.1-.14-.17-.19-.42-.25-.75-.6-1.07-.96-.05-.06-.11-.17-.09-.21.14-.21-.06-.31-.12-.46-.06-.13-.12-.26-.17-.4-.15-.39-.28-.78-.44-1.16-.06-.14-.15-.29-.26-.39-.39-.32-.48-.77-.54-1.21-.05-.39.03-.8.03-1.19,0-.24-.05-.48-.08-.71-.04-.27-.1-.53-.12-.79-.03-.54.17-.95.65-1.24.45-.26.67-.72.86-1.17.2-.49.55-.76,1.01-1.02.55-.3,1.14-.2,1.71-.28.14-.02.33.1.46.2.34.28.61.6.59,1.08-.02.24.09.41.28.53.94.57,1.81,1.26,2.84,1.69.37.16.41.37.16.69-.24.32-.48.64-.73.98.13.16.22.32.35.42.35.27.71.55,1.1.78.45.26.79.63,1.1,1.03.15.21.32.33.57.4.36.11.77.12,1.08.36.18.14.35.3.47.48.29.47.46.99.5,1.54.02.45.2.81.49,1.15.56.65,1.27,1.09,2.01,1.48.06.03.13.05.19.06.01,0,.03.01.04.01Zm27.73,6.56c0-.41-.03-.82-.06-1.23-.02-.22-.09-.44-.15-.66-.03-.12-.11-.25-.25-.21-.11.03-.26.11-.31.2-.08.19-.13.41-.14.61,0,.25.05.51.06.76,0,.11.08.26-.14.36-.03-.19-.04-.36-.08-.53-.08-.29-.16-.58-.25-.87-.06-.17-.17-.28-.35-.29s-.24.13-.32.26c-.2.29-.23.62-.24.95,0,.13.03.28-.21.32-.02-.12-.03-.25-.04-.37-.04-.29-.04-.58-.11-.86-.07-.26-.19-.28-.43-.18-.31.13-.48.36-.47.71.01.4.06.8-.04,1.19-.32.03-.63.03-.93.08-.69.1-1.38.26-2.09.26-.2,0-.4.08-.62.14.02.62.05,1.16.06,1.71,0,.21-.03.42-.05.63,0,.18.08.29.27.27.25-.01.5-.03.75-.06.24-.03.47-.08.71-.09.76-.02,1.52,0,2.28-.04.64-.02,1.28-.09,1.91-.16.28-.03.56-.14.7-.41.17-.33.34-.67.42-1.03.12-.47.12-.96.12-1.46Zm-.73-6.18c.04-.54-.11-1.06-.24-1.57-.06-.19-.12-.5-.4-.47-.27.03-.35.32-.39.54-.05.27-.03.56-.03.84v.49s-.09.02-.14.02c-.07-.28-.15-.56-.21-.84-.08-.35-.27-.59-.66-.69-.14.25-.28.48-.28.77,0,.27,0,.54-.02.8,0,.12-.03.21-.21.18.01-.58-.19-1.11-.41-1.63-.34.04-.46.11-.49.37-.03.24-.02.48-.03.71s-.03.45-.02.68c0,.23-.14.36-.31.41-.42.13-.84.27-1.27.32-.37.04-.75-.03-1.12-.04-.31-.01-.42.07-.44.38-.04.71-.07,1.42-.1,2.15.11.02.18.05.26.04.74-.04,1.49-.09,2.23-.13.57-.03,1.14-.06,1.71-.08.36-.01.73.01,1.08-.03.59-.07,1.03-.35,1.19-.97.12-.45.36-.88.29-1.38-.04-.29-.01-.58.01-.87Zm-6.99,10.16c.11-.02.22-.04.34-.06-.01-.2-.04-.35-.04-.51,0-.6,0-1.2,0-1.8,0-.13-.02-.27-.05-.4-.11-.44-.23-.89-.35-1.39-.19.01-.41.02-.63.05-.8.1-1.6.2-2.41.31-.47.07-.95.17-1.42.19-.93.05-1.86.08-2.79.08-.55,0-1.1-.07-1.7-.12-.04.36-.08.74-.14,1.12-.09.6-.18.68-.67.55-.02-.01-.04.01-.1.03-.08.45-.16.91-.25,1.4.38,0,.72-.03,1.06.01.46.05.92.15,1.38.22.17.02.34.02.51.05.35.05.7.14,1.06.17,1.07.1,2.15.16,3.22.27,1,.09,1.99.06,2.98-.17Zm.02-4.82c-.06-.03-.11-.08-.17-.08-.33-.01-.66-.02-.99-.01-.61.03-1.22.07-1.82.11-.15.01-.29.04-.44.04-1.11.03-2.21.05-3.32.09-.63.03-1.27.05-1.91.01-.21-.01-.3.07-.31.26v.29c.18.03.35.05.51.07.29.03.59.08.88.08.47,0,.95-.08,1.43-.07,1.02.02,2.03-.13,3.04-.27.93-.14,1.86-.24,2.8-.36.11-.01.24.01.3-.16Zm-.19-.43c.05-1.4.09-2.79.14-4.21-.17,0-.31-.03-.45-.03-.75.02-1.5.06-2.24.08-.76.01-1.52,0-2.28,0-.08,0-.16.01-.24.02-.61.09-1.21.17-1.82.25-.27.04-.55.06-.89.1.27.74.34,1.45.36,2.18-.32.02-.6.04-.87.06-.12.68-.23,1.3-.35,1.96.21.04.37.09.54.09.47.01.94.03,1.4-.02,1-.12,2-.13,3-.13.46,0,.93.08,1.35-.22.05-.03.13-.02.2-.02.41-.01.82-.01,1.23-.03.31-.02.63-.05.92-.08Zm-7.8-2.09c0-.22.02-.38,0-.53-.08-.59-.19-1.17-.54-1.66-.3-.43-.66-.84-1.04-1.21-.49-.46-1.03-.84-1.72-.95-.48-.07-.96-.11-1.42-.25-.93-.28-1.87-.42-2.85-.39-.76.03-1.47.17-2.12.56-.35.2-.72.34-1.06.55-.26.15-.54.29-.69.59.13.06.24.1.34.17.19.15.42.21.56.47.24.47.28.93.21,1.42-.04.26.03.43.23.59.48.38.95.77,1.42,1.17.13.11.24.25.38.35.47.32.95.65,1.43.95.6.37,1.25.59,1.98.51.33-.04.46-.13.48-.46.01-.34-.02-.68-.02-1.01-.37-.14-.36-.14-.46-.39-.2-.46-.4-.93-.62-1.38-.12-.24-.32-.42-.61-.48-.5-.12-1-.26-1.51-.4-.05-.02-.1-.07-.16-.11.04-.04.05-.06.06-.06.62.17,1.23.33,1.85.5.09.03.19.1.25.18.13.17.23.35.33.54.2.38.38.76.58,1.17.29-.27.66-.25,1-.31,1.05-.18,2.09-.25,3.15-.18.18.02.37.03.57.05Zm-.39,10.24c.04-.08.05-.22,0-.3-.08-.15-.21-.11-.33-.01-.15.12-.31.09-.44-.01s-.16-.25-.11-.4c.02-.09.04-.17.06-.25-.32-.23-.64-.43-.92-.67-.35-.3-.58-.65-.58-1.16.01-.42.09-.82.16-1.22.05-.28.1-.55.15-.83-.57-.08-1.11-.16-1.62-.23-.03.03-.05.04-.05.05-.02.11-.04.21-.06.31-.11.6-.3,1.14-1.01,1.27-.11.02-.23.09-.32.16-.29.21-.64.24-.98.31-.11.02-.23.03-.35.04-.14.55-.22.6-.75.38-.02.06-.05.13-.03.18.08.21.24.26.49.13.57-.29,1.16-.44,1.79-.48.12-.01.21.01.24.14-1.47.61-1.63.7-1.73,1.03,1.25-.44,1.34-.46,1.69-.27-.52,0-.99.16-1.41.43s-.83.55-1.09,1.01c.32-.08.62-.22.92-.33.33-.12.66-.21.99-.33.3-.1.6-.21.9-.31.01.1-.01.17-.04.18-.55.2-1.1.4-1.65.59-.47.16-.91.35-1.33.62.06.32.17.63-.3.81.46.07.81.01,1.14-.13.56-.22,1.12-.44,1.61-.8.05-.04.11-.06.17-.08.32-.15.63-.29.95-.43.27-.11.54-.29.82-.29.41-.01.85.06,1.25.19.31.11.56.39.86.56.2.12.43.21.66.27.06.02.2-.06.25-.13Zm-1.19-5.18c.26-.65.92-4.09.87-4.56-.39-.06-.79-.11-1.18-.07-.69.06-1.37.15-2.06.23-.32.04-.39.12-.38.44.01.23.06.45.06.68-.02.59-.13,1.17-.34,1.74-.12.33-.28.67-.15,1.04.75.35,2.24.64,3.18.5Zm.95,4.57c-.15-.12-.26-.3-.44-.15-.05.04-.05.2-.01.28.07.12.22.08.45-.13Zm-3.85-3.92c.06-.22.07-.44.1-.7-.26-.08-.49-.15-.76-.23.06-.4.12-.79.18-1.21-.19-.02-.37-.06-.56-.08-.37-.03-.74-.04-1.11-.09-.83-.1-1.61-.39-2.14-1.05-.69-.85-1.44-1.64-2.01-2.58-.06-.08-.13-.16-.22-.27-.9.92-1.88,1.55-3.19.97-.03.04-.05.07-.05.09-.08.9-.14,1.79-.24,2.69-.03.26-.11.56-.28.77-.36.44-.88.67-1.42.83-.35.1-.71.17-1.11.26.12.71.23,1.39.36,2.06.03.18.13.35.22.51.12.21.25.41.38.62.19.31.41.49.84.39.36-.07.71-.11,1-.34.04-.03.1-.03.15-.05.68-.31,1.38-.59,2.02-.95.69-.4,1.42-.73,2.15-1.04.28-.12.58-.18.88-.24.15-.03.31-.02.47-.04.56-.09,1.12-.21,1.69-.29.18-.03.37-.01.55.03.53.08,1.05.19,1.57.28.31.05.46-.04.53-.34Zm-3.49,5.08c.14-.13.08-.28-.06-.44-.15.14-.28.26-.42.39.18.2.34.19.48.05Zm-3.27-12.64c.07-.36-.06-.64-.4-.84-.09.68-.25,1.32-.69,1.91.63-.14.99-.51,1.09-1.07Zm-3.17.76c-.37-.38-.73-.76-1.09-1.15-.46-.49-1.03-.56-1.62-.35-.31.11-.6.12-.9.12-.13,0-.27-.03-.4-.03-.63.04-1.17-.17-1.69-.51-.11-.08-.24-.14-.39-.22-.14.39-.24.74-.39,1.06-.45.96-.43,1.96-.34,2.98.02.25.1.42.29.47.06.4.09.76.16,1.11.11.55.23,1.1.52,1.59.13.2.31.41.52.53.51.3,1.11.33,1.74.4.01-.21-.01-.37.23-.38.54-.04,1.08-.08,1.61-.17.38-.06.77-.1,1.02-.47.32-.48.56-.96.53-1.56-.01-.34.01-.69.01-1.04v-1.22c-.01-.38-.08-.77.19-1.16Zm-2.75,9.11c-.04-.15-.06-.29-.11-.42-.11-.34-.23-.67-.28-1.03-.05-.42-.23-.82-.34-1.23-.05-.18-.14-.22-.32-.2-.41.05-.83.06-1.2-.18-.12-.08-.28-.1-.42-.12-.48-.07-.75-.38-.85-.8-.16-.63-.25-1.28-.38-1.92-.04-.2-.1-.4-.15-.61-1.01.25-1.93.63-2.95.63.01.18,0,.31.04.43.23.93.43,1.87.71,2.79.17.54.47,1.02.91,1.43.42.39.91.64,1.36.97.2.14.45.23.69.29.36.1.73.2,1.1.23.73.07,1.46.06,2.19-.26Zm-1.06-16.12c.17-.3.36-.63.18-1.07-.46.13-.54.55-.74.85-.23.37-.31.77-.16,1.25.26-.37.53-.68.72-1.03Zm-2.11,3.87c.15-.33.2-.69.15-1.05-.02-.21-.09-.38-.3-.48-.15-.08-.28-.21-.4-.33-.18-.2-.18-.27-.02-.49.1-.13.2-.26.32-.41-.28-.04-.43.04-.49.29-.12.51-.23,1.03-.31,1.55-.03.21-.12.33-.31.35-.17.03-.35.04-.52,0-.92-.21-1.81-.51-2.64-.99-.1-.05-.22-.06-.35-.1v.5c.08.07.14.14.22.19.74.57,1.46,1.17,2.44,1.29.06.01.11.11.22.23-.88-.03-1.49-.5-2.16-.9-.02.31.16.48.3.66.28.36.66.57,1.06.78.12.06.22.12.19.32-.67-.02-.94-.64-1.45-.92.03.69.53,1.08.88,1.56-.2-.02-.37-.05-.52-.12-.16-.07-.31-.16-.45-.25-.22-.14-.43-.28-.65-.41-.12-.07-.25-.11-.4,0,.17.12.36.2.44.34.15.27.36.46.61.62.55.35.79.87.86,1.5.08.67.19,1.34.29,2.01,0,.03.05.06.09.12.59-.22,1.26-.09,1.82-.41-.01-.64-.03-1.21-.04-1.78-.01-.74.1-1.46.41-2.14.24-.51.48-1.01.71-1.52Zm-.06-1.62c.11-.27.07-.53-.13-.87-.42.29-.43.35-.09.68.07.07.14.12.22.19Zm-4.32-9.68h1.72c-.08-.11-.11-.18-.13-.18-.31.1-.62,0-.93,0-.23,0-.47.02-.66.19-.17,0-.36-.09-.52.15.2-.06.36-.11.52-.15Zm.9,9.51c.16-.31.04-.52-.06-.74-.3.04-.36-.25-.5-.41-.27-.3-.51-.64-.76-.97-.15-.19-.31-.35-.55-.44.25.37.53.7.8,1.04.37.47.86.85,1.07,1.52Zm-.23-9.26s-.02-.05-.03-.07c-.37,0-.66.21-.96.39.01.02.02.05.04.07.31-.13.63-.26.95-.39Zm-.21,8.91s.04-.04.07-.06c-.21-.45-.82-1.1-1.14-1.16.38.43.73.83,1.07,1.22Zm-.23.53s.03-.01.04-.02c-.12-.35-.92-1.41-1.23-1.58.4.56.76,1.08,1.12,1.59.01.01.05.01.07.01Zm-.12-8.07s-.03-.06-.04-.08c-.72.13-1.25.54-1.63,1.15-.17.17-.37.33-.26.66.15-.21.29-.38.29-.63.25-.23.48-.5.76-.69.26-.18.59-.28.88-.41Zm.58,6.88c-.19-.37-.35-.76-.77-.95.14.41.45.69.77.95Zm-.82-7.59c.33-.12.71-.09,1-.33-.36.05-.73.04-1,.33Zm-.44-.27s-.05-.06-.07-.09c-.27.19-.55.36-.71.68.26-.2.52-.39.78-.59Zm-.04.35c-.18.12-.35.24-.53.36.4-.08.41-.09.53-.36Zm-.02,1.19s-.04-.04-.06-.07c-.26.2-.52.39-.63.73l.69-.66Zm-.01,6.83c-.22-.28-.43-.56-.65-.84-.22-.27-.28-.64-.59-.84.3.64.5,1.35,1.16,1.74.02-.02.05-.04.08-.06Zm-.11.92q.03-.3-.29-.4c.12.16.21.28.29.4Zm-.39-3.61c-.23-.57-.42-1.06-.61-1.56,0,.7.12,1.02.61,1.56Zm-.91-.41c-.09-.38-.17-.75-.26-1.13-.03.4.01.79.26,1.13Zm-.43-2.06c.21-.31.47-.5.34-.89-.21.25-.32.5-.34.89Zm.16,2.58c-.1-.34-.2-.69-.29-1.03-.03,0-.05,0-.08.02.08.35.1.71.28,1.03.03,0,.06,0,.09-.02Zm-.48-2.75c.12-.37.25-.77.38-1.17-.39.3-.67.66-.38,1.17Z"/>
      <path class="cls-1" d="m61.58,117.23c.05.08.04.22,0,.3-.05.07-.19.15-.25.13-.23-.06-.46-.15-.66-.27-.3-.17-.55-.45-.86-.56-.4-.13-.84-.2-1.25-.19-.28,0-.55.18-.82.29-.32.14-.63.28-.95.43-.06.02-.12.04-.17.08-.49.36-1.05.58-1.61.8-.33.14-.68.2-1.14.13.47-.18.36-.49.3-.81.42-.27.86-.46,1.33-.62.55-.19,1.1-.39,1.65-.59.03-.01.05-.08.04-.18-.3.1-.6.21-.9.31-.33.12-.66.21-.99.33-.3.11-.6.25-.92.33.26-.46.67-.74,1.09-1.01s.89-.43,1.41-.43c-.35-.19-.44-.17-1.69.27.1-.33.26-.42,1.73-1.03-.03-.13-.12-.15-.24-.14-.63.04-1.22.19-1.79.48-.25.13-.41.08-.49-.13-.02-.05,0-.12.03-.18.53.22.61.17.75-.38.12-.01.24-.02.35-.04.34-.07.69-.1.98-.31.09-.07.21-.14.32-.16.71-.13.9-.67,1.01-1.27.02-.1.04-.2.06-.31,0,0,.02-.02.05-.05.51.07,1.05.15,1.62.23-.05.28-.1.55-.15.83-.07.4-.15.8-.16,1.22,0,.51.23.86.58,1.16.28.24.6.44.92.67-.02.08-.04.16-.06.25-.05.15-.02.3.11.4s.29.13.44.01c.12-.1.25-.14.33.01Z"/>
      <path class="cls-1" d="m49.71,104.22c.34.18.41.35.31.72-.11.37-.23.74-.39,1.09-.08.2-.24.38-.39.54-.23.23-.53.16-.79.11-.17-.03-.36-.14-.48-.26-.34-.35-.65-.71-.95-1.08-.38-.47-.86-.81-1.43-.98-.26-.07-.59,0-.86.09-.95.32-1.83.17-2.69-.29-.15-.08-.3-.16-.46-.26,0-.06,0-.12.02-.18.12-.37.27-.73.35-1.11.05-.25-.02-.53.03-.79.08-.43-.07-.81-.19-1.2-.02-.05-.03-.1-.05-.15-.1-.2-.39-.4-.57-.38-.23.02-.31.23-.36.39-.09.29-.13.6-.19.89-.04.2-.08.4-.15.59-.11.34-.26.44-.6.37-.42-.08-.83-.19-1.24-.31-.27-.09-.54-.22-.83-.35.53-.18.73-.58.53-1.08-.2-.49-.44-.96-.89-1.3-.8-.61-1.31-1.42-1.65-2.35-.17-.47-.12-.93.1-1.36.15-.3.37-.55.56-.83.29-.23.58-.46.86-.7.22-.18.48-.28.75-.35.25-.06.49-.15.71-.26.21-.1.4-.25.61-.39.42.48,1.01.71,1.57.99.3.14.58.32.87.48.19.1.38.19.58.27.37.15.41.3.14.61-.32.37-.58.77-.77,1.22-.01.03-.01.07-.03.14.53.53,1.23.81,1.88,1.2-.14.25-.26.47-.39.68-.33.5-.48,1.03-.36,1.63.03.13-.03.28-.05.44.32,0,.55-.21.78-.41.24-.21.47-.42.7-.65.1-.1.17-.24.25-.36h.01c.49,0,.97-.03,1.43.2.11.05.23.15.29.26.17.3.33.61.47.92.06.13.08.29.07.43-.04.84.24,1.51,1.01,1.94.02.01.05.02.07.04.52.51,1.18.8,1.81,1.14Z"/>
      <path class="cls-1" d="m44.2,98.41c.3.26.45.51.36.86,0,0-.01.01-.01.02-.35.3-.71.61-1.06.91-.09.08-.19.16-.32.21.3-.68.85-1.21,1.03-2Z"/>
      <path class="cls-2" d="m44.57,99.27s-.01.01-.01.02h-.01s.01-.02.01-.02h.01Z"/>
      <path class="cls-1" d="m43.93,98.12c.18.44-.01.77-.18,1.07-.19.35-.46.66-.72,1.03-.15-.48-.07-.88.16-1.25.2-.3.28-.72.74-.85Z"/>
      <path class="cls-1" d="m41.79,102.01c.05.36,0,.72-.15,1.05-.23.51-.47,1.01-.71,1.52-.31.68-.42,1.4-.41,2.14.01.57.03,1.14.04,1.78-.56.32-1.23.19-1.82.41-.04-.06-.08-.09-.09-.12-.1-.67-.21-1.34-.29-2.01-.07-.63-.31-1.15-.86-1.5-.25-.16-.46-.35-.61-.62-.08-.14-.27-.22-.44-.34.15-.1.28-.06.4,0,.22.13.43.27.65.41.14.09.29.18.45.25.15.07.32.1.52.12-.35-.48-.85-.87-.88-1.56.51.28.78.9,1.45.92.03-.2-.07-.26-.19-.32-.4-.21-.78-.42-1.06-.78-.14-.18-.32-.35-.3-.66.67.4,1.28.87,2.16.9-.11-.12-.16-.22-.22-.23-.98-.12-1.7-.72-2.44-1.29-.08-.05-.14-.12-.22-.19v-.5c.13.04.25.05.35.1.83.48,1.72.78,2.64.99.17.04.35.03.52,0,.19-.02.28-.14.31-.35.08-.52.19-1.04.31-1.55.06-.25.21-.33.49-.29-.12.15-.22.28-.32.41-.16.22-.16.29.02.49.12.12.25.25.4.33.21.1.28.27.3.48Z"/>
      <path class="cls-1" d="m41.45,100.57c.2.34.24.6.13.87-.08-.07-.15-.12-.22-.19-.34-.33-.33-.39.09-.68Z"/>
      <path class="cls-1" d="m38.1,100.53c.1.22.22.43.06.74-.21-.67-.7-1.05-1.07-1.52-.27-.34-.55-.67-.8-1.04.24.09.4.25.55.44.25.33.49.67.76.97.14.16.2.45.5.41Z"/>
      <path class="cls-1" d="m37.79,100.86s-.05.04-.07.06c-.34-.39-.69-.79-1.07-1.22.32.06.93.71,1.14,1.16Z"/>
      <path class="cls-1" d="m37.53,101.43s-.02.02-.04.02-.06,0-.07-.01c-.36-.51-.72-1.03-1.12-1.59.31.17,1.11,1.23,1.23,1.58Z"/>
      <path class="cls-2" d="m37.5,93.74s0,0-.02,0h-.02s.01,0,.02,0h.02Z"/>
      <path class="cls-1" d="m36.22,101.29q.32.1.29.4c-.08-.12-.17-.24-.29-.4Z"/>
      <path class="cls-2" d="m35.13,94.17s-.01.01-.01.02,0,.01-.01.02c.01,0,.01-.02,0-.03.01,0,.01-.01.02-.01Z"/>
    </g>
    <path class="cls-2" d="m37.8,101.4l.1-.1c-.12-.12-.24-.24-.36-.36l-.07.06c.11.13.21.26.32.4Z"/>
    <path class="cls-2" d="m55.03,114.72c-.21-.04-.31,0-.36.16.17.1.25.02.36-.16Z"/>
    <path class="cls-2" d="m37.95,93.02s-.02-.07-.04-.1c-.17.06-.35.12-.52.18.01.03.02.07.03.1.17-.06.35-.12.52-.18Z"/>
    <path class="cls-2" d="m38.12,92.07c.2.1.33.05.41-.14-.14.05-.27.09-.41.14Z"/>
    <path class="cls-2" d="m34.5,94.24l.09.08c.09-.11.17-.22.26-.34-.03-.02-.05-.04-.08-.06-.09.11-.18.21-.27.32Z"/>
    <path class="cls-2" d="m35.26,96.68s.02,0,.02,0v-.42s-.02,0-.02,0v.42Z"/>
    <path class="cls-2" d="m34.76,95.83h-.07v.49c.06-.06.06-.12.07-.18,0-.1,0-.2,0-.3Z"/>
    <path class="cls-2" d="m38.13,93.23q.26.02.4-.15c-.17.06-.29.11-.4.15Z"/>
    <path class="cls-2" d="m37.12,91.5s.02.06.03.09l.41-.11s-.02-.06-.02-.08c-.14.04-.27.07-.41.11Z"/>
    <path class="cls-2" d="m35.85,100.34q.03.26.24.4c-.1-.16-.16-.26-.24-.4Z"/>
    <path class="cls-2" d="m35.06,96.06s.05.02.08.03c.02-.09.04-.19.05-.28-.03,0-.05-.01-.08-.02-.02.09-.03.18-.05.27Z"/>
    <path class="cls-2" d="m35.62,93.38s-.03-.04-.04-.05c-.06.05-.12.11-.18.16.01.01.02.03.04.04.06-.05.13-.1.19-.15Z"/>
    <path class="cls-2" d="m38.58,92.36c.14.09.25.1.3-.12-.13.05-.21.08-.3.12Z"/>
    <path class="cls-2" d="m36.44,98.59s.04-.03.05-.05l-.17-.19s-.03.02-.04.04c.05.07.1.13.16.2Z"/>
    <path class="cls-2" d="m34.63,96.6h-.08v.21s.04,0,.06,0c0-.07.02-.14.02-.21Z"/>
    <path class="cls-2" d="m39.27,92.18s-.06-.02-.09-.03c-.03.1-.06.19-.09.29.03,0,.07.02.1.03l.08-.29Z"/>
    <path class="cls-2" d="m38.64,91.49s0-.05,0-.08c-.1,0-.2.01-.3.02.05.06.1.08.15.08.05,0,.1,0,.15-.02Z"/>
    <path class="cls-2" d="m63.79,84.45c-.32-.05-.33-.26-.36-.42-.1-.49-.01-.83.28-1.08-.26.49-.33.97.08,1.5Z"/>
    <path class="cls-2" d="m66.84,76.92c-.11-.01-.22-.03-.36-.04.14-.21.25-.04.36-.05,0,.03,0,.06,0,.09Z"/>
    <path class="cls-2" d="m40.18,96.03c-.18-.06-.37-.12-.56-.18q-.3.27-.01.72c-.26.03-.27-.23-.43-.32-.11.05-.23.1-.35.15-.07.17-.04.3.04.46.09.18-.01.24-.22.18v-.6c-.21.02-.39.04-.57.06-.02.25.15.46.02.77-.11-.29-.19-.52-.29-.78-.24.08-.47.16-.76.25.05-.09.08-.17.12-.18.29-.08.59-.16.89-.22.17-.03.35-.01.52-.04.73-.12,1.26-.82,1.15-1.58-.04-.28.02-.53.13-.78.02-.05.07-.1.16-.13,0,.07,0,.14-.03.21-.03.13-.09.25-.11.38-.05.32.02.57.34.73.14.07.25.19.38.29-.02.02-.03.05-.05.07-.2-.12-.39-.24-.62-.39-.08.19-.16.35-.25.55.18.11.34.21.5.31,0,.02-.01.05-.02.07Z"/>
    <path class="cls-2" d="m44.1,101.07c-.3.09-.59.2-.9.27-.25.06-.48-.02-.64-.22-.27-.34-.43-.72-.51-1.14,0-.02.02-.04.05-.09.2.4.22.92.69,1.12.42.19.86.22,1.28-.11,0,.06.01.11.02.17Z"/>
    <path class="cls-2" d="m40.32,103.1c.1-.26.36-.29.55-.42-.08.28-.34.32-.55.42Z"/>
    <path class="cls-2" d="m58.7,116.12h-.42s0-.04,0-.06c.14-.01.27-.02.41-.03,0,.03,0,.06.01.09Z"/>
  </g>
</svg>