<?xml version="1.0" encoding="UTF-8"?>
<svg id="Layer_1" data-name="Layer 1" xmlns="http://www.w3.org/2000/svg" viewBox="0 0 136.06 136.06">
  <defs>
    <style>
      .cls-1 {
        fill: #019547;
      }

      .cls-2 {
        fill: #29aae1;
      }

      .cls-3 {
        fill: #2f3690;
      }

      .cls-4 {
        fill: #fcee23;
      }

      .cls-5 {
        fill: #f15b2b;
      }

      .cls-6 {
        fill: #67308f;
      }
    </style>
  </defs>
  <path class="cls-4" d="m121.39,37.07c-8.21-8.06-17.09-16.2-26.1-23.81h-33.34c20.17,14.49,42.84,35.44,59.45,53.32v-29.51Z"/>
  <path class="cls-1" d="m121.39,64.63c-12.65-14.32-27.2-28.19-42.56-39.4-6.11-4.46-11.54-8.42-16.45-11.96H26.47c9.34,6.09,21.43,14.83,40.24,28.56,20.77,15.16,40.24,35.99,54.68,55.37v-32.56Z"/>
  <path class="cls-5" d="m121.39,13.26h-27.49c8.76,7.12,18.22,15.67,27.49,24.87V13.26Z"/>
  <path class="cls-6" d="m48.21,74.86c-11.58-10.01-22.79-18.76-33.54-26.45v25.6c6.55,5.04,13.26,10.48,20.1,16.39,10.27,8.88,21.12,20.18,31.63,32.37h26.7c-14.72-18.23-30.55-35.52-44.89-47.92"/>
  <path class="cls-3" d="m56.19,57.16c-14.53-11.99-28.43-21.97-41.52-30.34v24.68c9.14,6.3,18.64,13.43,28.44,21.51,15.57,12.85,32.56,31.38,47.32,49.77h26.02c-18.01-23.9-40.63-49.42-60.26-65.62"/>
  <path class="cls-2" d="m70.9,43.56c-14.5-11.97-28.38-21.94-41.45-30.3h-14.78v15c13.51,8.41,27.97,18.62,43.15,31.15,19.44,16.04,41.09,40.93,57.85,63.37h5.72v-26.15c-16.02-19.94-34.27-39.68-50.49-53.07"/>
</svg>