<?xml version="1.0" encoding="UTF-8"?>
<svg xmlns="http://www.w3.org/2000/svg" viewBox="0 0 136.06 136.06">
  <defs>
    <style>
      .cls-1 {
        fill: #e0e1e3;
      }

      .cls-2 {
        fill: #fff;
        stroke: #0c3454;
        stroke-miterlimit: 10;
      }
    </style>
  </defs>
  <g id="Layer_3" data-name="Layer 3">
    <rect class="cls-1" width="136.06" height="136.06"/>
  </g>
  <g id="B_W" data-name="B&amp;amp;W">
    <path class="cls-2" d="m61.94,13.26H29.45c13.07,8.36,26.95,18.33,41.45,30.3,8.9,7.35,18.42,16.62,27.85,26.78,4.84,5.1,9.46,10.31,13.77,15.53,3.02,3.55,5.99,7.15,8.88,10.75v.56s0,0,0,0v-30.6c-16.61-17.88-39.28-38.83-59.44-53.32Z"/>
    <path class="cls-2" d="m95.28,13.26s0,0,0,0h-33.34s0,0,0,0c20.17,14.49,42.84,35.44,59.44,53.32v-28.46c-9.27-9.19-18.73-17.75-27.49-24.87h1.38Z"/>
    <path class="cls-2" d="m95.28,13.26h-1.38c8.76,7.12,18.22,15.67,27.49,24.87V13.26h-26.1Z"/>
    <path class="cls-2" d="m43.11,73.01c-9.8-8.09-19.3-15.21-28.44-21.51v22.52c6.55,5.04,13.26,10.48,20.1,16.39,10.27,8.88,21.12,20.18,31.63,32.37h26.7s0,0,0,0h-2.67c-14.76-18.4-31.75-36.92-47.32-49.77Z"/>
    <path class="cls-2" d="m57.82,59.41c-15.18-12.53-29.64-22.74-43.15-31.15v-1.45s0,0,0,0v24.68s0,0,0,0c9.14,6.3,18.64,13.43,28.44,21.51,15.57,12.85,32.56,31.38,47.32,49.77h25.24c-16.76-22.43-38.41-47.33-57.85-63.37Z"/>
    <path class="cls-2" d="m112.51,85.88c-4.51-5.32-9.13-10.53-13.77-15.53-9.42-10.16-18.94-19.43-27.85-26.78-14.5-11.97-28.38-21.94-41.45-30.3,0,0,0,0,0,0h-14.78v15c13.51,8.41,27.97,18.62,43.15,31.15,19.44,16.04,41.09,40.93,57.85,63.37,0,0,0,0,0,0h5.72v-26.15c-2.89-3.6-5.86-7.2-8.88-10.75Z"/>
  </g>
</svg>