<?xml version="1.0" encoding="UTF-8"?>
<svg xmlns="http://www.w3.org/2000/svg" viewBox="0 0 136.06 136.06">
  <defs>
    <style>
      .cls-1 {
        fill: #fff;
      }

      .cls-2 {
        fill: #019547;
      }

      .cls-3 {
        fill: #29aae1;
      }

      .cls-4 {
        fill: #2f3690;
      }

      .cls-5 {
        fill: #f2d06c;
      }

      .cls-6 {
        fill: #fcee23;
      }

      .cls-7 {
        fill: #0c3454;
      }

      .cls-8 {
        fill: #636a42;
      }

      .cls-8, .cls-9, .cls-10 {
        opacity: .8;
      }

      .cls-11 {
        fill: #f15b2b;
      }

      .cls-9 {
        fill: #a7483f;
      }

      .cls-12 {
        fill: #67308f;
      }

      .cls-10 {
        fill: #324a8d;
      }

      .cls-13 {
        fill: #b0c4e2;
      }

      .cls-14 {
        fill: #d9c6b8;
      }
    </style>
  </defs>
  <g id="poni_01">
    <rect class="cls-13" x="14.17" y="12.76" width="107.72" height="110.55" fill="none" stroke="#0c3454" stroke-width="0.25"/>
  </g>
  <g id="Layer_1" data-name="Layer 1">
    <path class="cls-7" d="m19.02,105.59c.06.04.14.08.21.13,0,.01-.01.03-.02.04-.07-.04-.15-.07-.22-.11,0,0-.02-.02-.01-.03,0-.01.02-.02.05-.04Z"/>
    <g>
      <path class="cls-4" d="m121.39,69.81c-9.09-12.51-21.28-26.56-31.73-35.18-11.37-9.38-21.95-16.24-31.36-21.37h-23.68c12.46,4.87,29.38,13.15,48.68,29.08,14.15,11.67,30.7,32.98,38.1,45.51v-18.05Z"/>
      <path class="cls-12" d="m121.39,85.17c-9.81-14.56-23.77-31.68-35.62-41.92-17.11-14.79-32.55-23.96-45.16-29.98H13.89l-.03.08c12.79,4.41,36.61,12.61,65.37,37.47,16.12,13.93,35.17,40.13,42.16,53.62v-19.26Z"/>
      <path class="cls-6" d="m121.39,24.85c-4-3.92-8.32-7.89-12.71-11.59h-16.23c9.82,7.05,20.85,17.25,28.93,25.95v-14.36Z"/>
      <path class="cls-2" d="m121.39,38.26c-6.16-6.97-13.24-13.72-20.72-19.18-2.97-2.17-5.62-4.1-8.01-5.82h-17.47c4.55,2.96,10.43,7.22,19.58,13.9,10.11,7.38,19.59,17.52,26.61,26.95v-15.85Z"/>
      <path class="cls-3" d="m121.39,53.84c-7.8-9.7-16.68-19.31-24.58-25.83-7.06-5.83-13.81-10.68-20.17-14.75h-20.11c9.93,5.05,21.43,12.15,33.92,22.46,10.58,8.73,22.5,22.85,30.94,34.65v-16.54Z"/>
      <path class="cls-11" d="m121.39,13.26h-13.38c4.26,3.46,8.87,7.63,13.38,12.1v-12.1Z"/>
    </g>
    <g>
      <path class="cls-10" d="m121.37,114.93v8.14H14.65v-10.61c1.11-.06,2.27-.11,3.31-.15,6.04.09,11.01-4.15,16.56-5.58,1.25-.27,2.7-.43,3.94-.32,2.23.39,3.89,1.88,6,3.14,8.19,5.51,12.06-3.74,19.02-4.67,5.54-.57,8,1.9,11.67,5.67,3.15,3.09,8.35,3.82,12.1,1.39,3.69-1.96,6.73-5.44,10.9-5.81,3.14.12,6.48.57,9.32,1.87,2.37,1.15,5.01,3.16,7.59,4.36,3,1.44,4.7,2.11,6.31,2.57Z"/>
      <path class="cls-7" d="m44.46,109.55c-2.11-1.26-3.77-2.75-6-3.14-1.24-.11-2.69.05-3.94.32-5.55,1.43-10.52,5.67-16.56,5.58-1.04.04-2.2.09-3.31.15v10.61h106.72v-8.14c-1.61-.46-3.31-1.13-6.31-2.57-2.58-1.2-5.22-3.21-7.59-4.36-2.84-1.3-6.18-1.75-9.32-1.87-4.17.37-7.21,3.85-10.9,5.81-3.75,2.43-8.95,1.7-12.1-1.39-3.67-3.77-6.13-6.24-11.67-5.67-6.96.93-10.83,10.18-19.02,4.67Zm-10.41-4.89c1.57-.34,3.06-.51,4.7-.37,2.62.37,4.86,2.23,6.84,3.41,6.51,4.8,11.21-4.86,17.71-5.08,3.13-.3,6.47.2,9.07,2.14,3.14,2.26,4.94,5.77,8.89,6.16,1.78.28,3.23-.27,4.79-1.13,3.4-1.91,6.26-4.88,10.32-5.93,1.05-.27,2.2-.29,3.27-.18,3.04.24,6.05.7,8.9,2,1.92.85,3.55,2.12,5.09,2.99,3.33,1.67,5.09,2.41,8.74,2.95v12.45H13.65v-13.62c1.35-.08,2.88-.15,4.2-.21,6,0,10.5-4.21,16.2-5.58Z"/>
    </g>
    <g>
      <path class="cls-1" d="m86.3,110.27c-1.22.56-2.49.89-3.81.99-.17.01-.33.03-.5.04-1.43.14-2.66-.42-3.86-1.08-.06-.03-.11-.1-.16-.16-.02-.02-.02-.07-.04-.17,2.8.05,5.58.2,8.36.37Z"/>
      <g>
        <path class="cls-7" d="m27.81,67.39l3.56.17c.04.35.08.66.12,1,.71.1,1.42.22,2.14.29,1.91.19,3.83.14,5.74.06,1.26-.06,2.53-.11,3.79-.11,1.11,0,2.22.1,3.33.11,1.04.01,2.08-.04,3.12-.05.98-.01,1.97-.02,2.95,0,1.04.02,2.09.14,3.13.07,1.33-.09,2.65.07,3.97.08,1.38.02,2.76.06,4.13.05,1.38-.01,2.75-.08,4.13-.13.2,0,.4-.08.61-.1.52-.05,1.04-.09,1.55-.13.43-.03.85-.05,1.28-.07.13,0,.26-.05.39-.03.87.17,1.75.07,2.61.17,1.22.14,2.41-.02,3.62-.03,1.26-.01,2.52-.15,3.79-.19.78-.02,1.57.03,2.35.06,1.25.05,2.49.14,3.74.18,1,.03,2.01.05,3.02.03.82-.01,1.63-.1,2.45-.13.76-.04,1.53-.08,2.29-.07,1.1.02,2.19.13,3.29.15,1.32.02,2.64-.03,3.96-.05.56,0,1.11-.02,1.72-.02.01-.25.04-.49.03-.72-.06-1.17.12-1.14,1.04-1.12.65.02,1.3-.04,1.95-.06.14,0,.29.01.51.02-.04.71-.06,1.41-.11,2.11-.07,1.02-.18,2.03-.25,3.05-.05.72-.04,1.45-.09,2.18-.03.5-.13,1-.17,1.5-.05.59-.07,1.19-.09,1.79-.06,1.54-.24,3.08-.46,4.6-.18,1.29-.34,2.59-.67,3.85-.31,1.17-.61,2.34-.88,3.51-.18.8-.28,1.62-.46,2.42-.31,1.38-.66,2.75-1,4.12-.3,1.21-.54,2.44-.94,3.62-.39,1.14-.95,2.22-1.43,3.33-.04.1-.12.19-.16.29-.21.58-.35.67-.96.67-.43,0-.85.05-1.28.07-.66.03-1.26.28-1.89.44-1.14.28-2.21.73-3.24,1.27-.61.32-1.19.69-1.76,1.08-.94.63-1.86,1.29-2.78,1.95-.42.3-.8.65-1.19.99-.37.32-.75.59-1.23.74-.51.15-1,.4-1.5.6-1.01.42-2.08.57-3.16.62-.32.02-.63.03-.95.04-.45,0-.87-.04-1.29-.26-.34-.19-.74-.26-1.11-.38-.82-.26-1.58-.61-2.05-1.4-.02-.03-.05-.07-.08-.07-.4-.03-.53-.39-.74-.64-.59-.7-1.33-1.23-2.01-1.84-.2-.19-.35-.45-.57-.6-1.04-.72-2.05-1.48-3.15-2.08-.98-.54-2.05-.96-3.12-1.32-.47-.16-1.03-.12-1.54-.07-.77.09-1.54.24-2.3.41-.85.2-1.69.46-2.54.68-.32.09-.65.16-.97.24-.8.19-1.5.59-2.15,1.05-.74.53-1.43,1.14-2.08,1.78-1.22,1.19-2.65,1.95-4.33,2.21-1.92.3-3.64-.22-5.25-1.26-.2-.13-.42-.24-.65-.31-.73-.21-1.39-.55-1.97-1.03-.85-.7-1.81-1.16-2.83-1.52-1.03-.36-2.08-.54-3.17-.61-1-.06-1.92.21-2.81.6-.51.22-1,.39-1.55.36-.17,0-.24-.05-.33-.21-.47-.93-.99-1.84-1.46-2.77-1.14-2.27-2.17-4.57-2.79-7.05-.22-.91-.4-1.81-.51-2.74-.07-.55-.18-1.1-.23-1.66-.09-.94-.18-1.89-.24-2.84-.11-1.65-.16-3.31-.3-4.96-.1-1.14-.07-2.27-.06-3.41.01-1-.09-2.01-.14-3.01,0-.11-.02-.22-.02-.33.07-1.34.12-2.69.21-4.03.05-.72.21-1.44.27-2.16.06-.74.06-1.49.11-2.24.02-.29.07-.57.1-.8Zm2.47,7.61c.19.03.37.07.55.08.88.01,1.75.02,2.63.01,1.12,0,2.23-.03,3.35-.05.61-.01,1.23-.02,1.84-.06.55-.04,1.11-.17,1.66-.17,1.43,0,2.87.03,4.3.09,1.64.08,3.28.22,4.92.31,2.11.12,4.22.21,6.33.32.41.02.82.09,1.23.09,1.99.03,3.99.02,5.98.09,2.39.08,4.77.16,7.16.13,2.16-.03,4.32.04,6.48.03,1.88-.01,3.76-.09,5.64-.11,1.56-.02,3.13-.02,4.69,0,2.03.04,4.06.13,6.1.18,1.2.02,2.41-.02,3.61-.02,1.17,0,2.34.02,3.52.03.34,0,.67.01,1.01,0,1.09-.06,2.18-.14,3.31-.21-.01.02.03-.01.03-.05.06-1.06.12-2.12.18-3.18.02-.29-.21-.33-.41-.34-.85-.06-1.7-.12-2.55-.15-.89-.04-1.79-.02-2.68-.07-1.66-.1-3.32-.11-4.98.03-1.41.12-2.82.23-4.23.24-1.34.01-2.68.07-4.02.09-1.9.03-3.79-.09-5.69.02-.84.05-1.68-.06-2.52-.03-1.75.06-3.49.16-5.24.24-.59.03-1.19.04-1.79.02-.92-.03-1.84-.14-2.76-.14-1.04,0-2.08.1-3.12.12-2.01.05-4.02.09-6.03.12-.31,0-.63-.05-.94-.05-1.56,0-3.12.07-4.68,0-1.46-.06-2.92-.02-4.38.02-1.64.05-3.29.03-4.93-.04-.31-.01-.63-.06-.94-.06-.93,0-1.86.02-2.79,0-.98-.02-1.97-.1-2.95-.11-.97-.01-1.94.06-2.9.02-1.17-.04-2.33-.15-3.49-.23-.07,0-.14.02-.26.05-.06.89-.45,1.73-.23,2.73Zm18.74,6.37c-1.92.08-3.79.16-5.68.24,0,.12.02.26-.03.37-.05.1-.16.23-.26.24-.6.08-1.21.13-1.83.19-.05-.33-.09-.58-.13-.83-.37-.11-4.95-.1-5.99,0-.03.13-.06.27-.09.4-.57.29-1.15.09-1.71.1-.08,0-.2-.07-.23-.14-.13-.38-.4-.3-.69-.27-.28.03-.56-.03-.84-.02-.5,0-.99.03-1.56.06.05.9.09,1.72.14,2.58.38.02.71-.02,1,.06.77.22,1.55.15,2.33.13,1.04-.02,2.08-.08,3.12-.1.56-.01,1.12.03,1.68.03,1.23,0,2.46,0,3.68.02,1.27.01,2.53.05,3.8.07,1.06.01,2.12,0,3.19.01,1.38.03,2.75.1,4.13.12,1.62.02,3.24-.03,4.85,0,1.25.02,2.5.12,3.75.2.78.05,1.55.15,2.33.17.65.02,1.3-.07,1.95-.07,1.31,0,2.61.06,3.92.07.97,0,1.94.04,2.9-.06,1.57-.16,3.14-.43,4.71-.62,1.18-.15,2.37-.3,3.55-.36,1.41-.08,2.83-.07,4.24-.11,1.32-.04,2.64-.1,3.96-.14.69-.02,1.38-.05,2.07-.03.89.02,1.79.1,2.68.11,1.47.02,2.94,0,4.42.02,1.25.01,2.49.15,3.74.04.51-.05,1.02-.09,1.53-.13.15-.78.29-1.48.24-2.22-.16-.02-.27-.04-.38-.04-1.36.01-2.72.03-4.08.04-.65,0-1.3.04-1.96.03-.82-.02-1.64-.08-2.45-.11-.43-.02-.86.03-1.28,0-.87-.06-1.73-.19-2.6-.23-1.38-.06-2.76-.06-4.14-.09-.05,0-.12,0-.16.02-.49.22-1.01.22-1.53.24-.29.01-.63.19-.84-.2-.02-.04-.17-.02-.26-.02-.93,0-1.86-.03-2.79.02-.7.03-1.45-.21-2.08.32-.06.05-.18.03-.27.04-.48.03-.96.05-1.47.08-.05-.14-.11-.29-.18-.49-1.5.06-3.01.11-4.51.17-.06.27-.1.47-.15.71-.66-.06-1.3.11-1.94-.04-.03-.29-.05-.54-.08-.83-1.69.14-3.32-.21-4.98.06,0,.19-.03.37-.03.55,0,.23-.12.35-.34.35-.68,0-1.37,0-2.07,0-.05-.34-.1-.63-.14-.9-1.57.02-3.09.05-4.62.07-.01.1-.02.17-.02.25,0,.47-.18.56-.61.63-.2.03-.41.01-.61.03-.9.09-.91.08-1.17-.78,0-.03-.05-.05-.05-.06-1.58,0-3.13,0-4.67.01-.03.21-.06.39-.1.62-.74.03-1.46.06-2.19.09-.04-.25-.06-.43-.1-.7Zm-18.8,7.44c.02.78.03,1.5.07,2.23.02.33.08.67.14,1,.05.27.2.38.48.32.22-.05.44-.1.66-.12.72-.07,1.45-.12,2.17-.18.96-.08,1.93-.15,2.89-.24,1.46-.13,2.93-.24,4.39-.42,1.29-.16,2.58-.37,3.89-.3,1,.05,2.01.01,3.02,0,1.13-.02,2.27-.08,3.4-.11,1.25-.04,2.5-.06,3.74-.1,1.1-.03,2.19-.1,3.29-.11,1.02-.02,2.05.18,3.06-.07.03,0,.08,0,.11,0,.63.25,1.29.13,1.94.12,1.49-.01,2.98-.09,4.46-.14,1.13-.04,2.27-.07,3.4-.11,1.19-.04,2.38-.12,3.57-.12.97,0,1.93.08,2.9.14.78.05,1.56.16,2.34.17.65.01,1.31-.04,1.97,0,1.15.07,2.3.05,3.46.06.65,0,1.3,0,1.96.02.5.02.99.12,1.48.13,1.7.04,3.39.05,5.09.08.28,0,.55.04.82.04.63,0,1.27-.02,1.9-.02.22,0,.44.04.66.04,1.21-.01,2.42-.04,3.63-.05.47,0,.52-.02.67-.49.17-.53.33-1.07.48-1.61.1-.37.17-.75.25-1.12-.06-.03-.1-.05-.13-.06-1.85-.07-3.69-.15-5.54-.19-1.04-.02-2.09-.03-3.13.02-1.65.08-3.31.24-4.96.32-1.19.06-2.38.06-3.57.09-.83.02-1.66.04-2.49.06-.32,0-.64,0-.95,0-.33,0-.67.04-1,.04-.37,0-.75-.04-1.12-.02-1.34.06-2.68.16-4.01.2-1.39.04-2.79.03-4.18.01-.88-.01-1.75-.08-2.63-.12-2.35-.13-4.69-.26-7.05-.19-.57.02-1.15.04-1.73.04-1.2-.02-2.4-.05-3.6-.08-.24,0-.48.01-.72.04-1.07.12-2.14.27-3.21.38-.48.05-.97.07-1.45.1-.82.05-1.64.06-2.45.15-1.3.14-2.58.24-3.89.12-.88-.08-1.78.05-2.68.03-1.69-.04-3.38-.09-5.08-.02-1.3.05-2.61.03-3.91.04-.9,0-1.81,0-2.81,0Zm1.1-19.5q-.3.43-.33,1.22c-.02.58.06.67.65.7.06,0,.11,0,.17,0,.78.06,1.56.12,2.34.2.55.06,1.1.2,1.66.22,1.8.08,3.6.15,5.41.18,2.05.04,4.1.02,6.14.06,1.47.03,2.94.15,4.41.22,1.13.05,2.26.11,3.39.12,1.25.01,2.49-.02,3.74-.04,1.49-.03,2.98-.06,4.47-.1.73-.02,1.45-.07,2.18-.09.61-.02,1.23-.06,1.84-.06,1.73,0,3.46.04,5.18.04.81,0,1.62-.05,2.44-.1.46-.03.92-.12,1.38-.14.87-.02,1.75,0,2.62,0,.81,0,1.63,0,2.44.01.37,0,.74.05,1.11.03.59-.03,1.19-.11,1.78-.12,1.25-.02,2.49-.05,3.74-.01,1.39.04,2.79-.24,4.17.03.09.02.18-.03.27-.04,1.3-.18,2.6-.17,3.9-.14,2.63.08,5.26.21,7.88.32.19,0,.41-.03.41-.28,0-.81-.02-1.63-.03-2.48-.81,0-1.56.02-2.3.01-1.55,0-3.09,0-4.64-.03-.79-.01-1.59-.1-2.38-.1-.8,0-1.6.06-2.4.09-.99.03-1.97.07-2.96.09-1.32.02-2.65.02-3.97.05-.89.02-1.79.02-2.68.09-.57.04-1.11-.17-1.66-.19-1.06-.04-2.12-.02-3.18,0-1.23.02-2.46.08-3.68.08-.59,0-1.18-.13-1.77-.14-.76-.01-1.52.08-2.28.05-1.07-.04-2.11.15-3.17.23-.22.02-.43.13-.64.14-.4.02-.81-.02-1.21,0-.89.03-1.78.16-2.67,0-.29-.05-.59-.06-.88-.07-.43-.01-.86,0-1.28,0-1.1,0-2.2-.02-3.3-.03-.04,0-.07,0-.11.01-.91.13-1.82-.02-2.73-.07-.57-.03-1.14-.13-1.72-.13-1.53,0-3.05.04-4.58.06-.56,0-1.12-.03-1.68-.02-.97,0-1.94.07-2.9.01-1.55-.09-3.1-.1-4.63.1-1.44.19-2.87.01-4.29-.03-1.23-.03-2.45-.1-3.66.01Zm-.61,23.61c-.12.41.11.71.18,1.05.07.4.33.5.67.51.11,0,.22.01.34.01.84,0,1.68-.01,2.51.02,2.16.08,4.31.2,6.47.09.78-.04,1.56.02,2.34,0,.91-.04,1.82-.15,2.73-.19,1.41-.08,2.83-.11,4.24-.19,1.13-.06,2.26-.17,3.39-.26.28-.02.57,0,.83-.1.61-.22,1.25-.14,1.87-.23.69-.11,1.41,0,2.12.02,1.36.03,2.72.05,4.07.08.5,0,1.01-.03,1.51.01,1.33.11,2.66.26,3.99.36.67.05,1.34.01,2.01.04.72.03,1.44.1,2.17.12.74.02,1.49,0,2.23-.01.8,0,1.6,0,2.4-.02,1.21-.04,2.43.18,3.63-.13.07-.02.15,0,.22,0,.39,0,.78.04,1.16,0,1.35-.15,2.69-.08,4.04-.07.71,0,1.43.02,2.14.03.38,0,.76-.02,1.15,0,.35,0,.7.05,1.06.04,1.04,0,2.09-.04,3.13-.04.63,0,1.27.04,1.9.06,1.36.04,2.72.07,4.07.13.33.01.67.07,1,.12.3.04.45-.11.52-.39.08-.31.19-.61.27-.91.12-.48.21-.96.33-1.49-1.22,0-2.35,0-3.49,0-.89,0-1.79-.03-2.68.04-1.53.1-3.05.11-4.58.05-1.71-.08-3.42-.22-5.13-.31-1.26-.07-2.52-.11-3.79-.18-1.08-.05-2.15-.12-3.23-.17-1.88-.08-3.76-.28-5.65-.18-1.02.05-2.04.12-3.07.16-1.19.04-2.39.06-3.58.09-.52.01-1.04.02-1.56.04-1.92.08-3.83.19-5.75.24-1.36.04-2.72,0-4.08.01-1.68.02-3.35.07-5.03.11-.97.02-1.93.05-2.9.08-.6.02-1.19.02-1.79.05-.78.04-1.56.11-2.34.17-1.24.09-2.49.17-3.73.29-1.02.1-2.03.28-3.05.38-1.53.16-3.07.28-4.61.42-.22.02-.44.05-.65.07Zm1.34,5.18c.24.01.37.03.49.02.93-.03,1.86-.07,2.79-.1.8-.03,1.6-.07,2.4-.07,1.51,0,3.01.08,4.52.06,1,0,2.01-.12,3.01-.18,1.1-.07,2.2-.07,3.29-.2,2.43-.28,4.87-.23,7.31-.26,1.15-.01,2.3.04,3.45.04,1.43,0,2.86-.04,4.29-.04,1.23,0,2.46.05,3.68.07,1.05.02,2.11.04,3.16.08,1,.04,2,.12,3,.16,1.94.06,3.87.11,5.81.16,1.02.02,2.05.03,3.07.04.78.01,1.56.06,2.34.06.82,0,1.64-.03,2.46-.05.69-.02,1.37-.05,2.06-.09.67-.04,1.33-.12,2-.15.74-.03,1.49-.02,2.24-.03,1.38,0,2.76,0,4.14,0,.78,0,1.56.04,2.38.06.19-.86.37-1.69.57-2.59-.26-.01-.46-.03-.66-.03-1.53-.02-3.06-.02-4.58-.05-1.21-.02-2.41-.07-3.62-.06-1.6,0-3.19.02-4.79-.03-1.21-.04-2.42.05-3.63.11-1.15.06-2.3.16-3.46.24-.46.03-.92,0-1.38.03-1.22.06-2.45.15-3.67.06-1.06-.07-2.11-.19-3.17-.22-1.15-.04-2.31.01-3.47,0-1.39-.02-2.79-.06-4.18-.09-.34,0-.67-.02-1.01.02-1.41.14-2.82.12-4.24.08-.45-.01-.89-.05-1.34-.04-1.26.03-2.53.06-3.79.1-1.51.05-3.02.06-4.52.17-1.38.1-2.74-.02-4.11-.14-1.26-.1-2.54-.23-3.79-.04-1.06.17-2.11.07-3.16.03-.89-.04-1.77-.02-2.66-.03-.71,0-1.41,0-2.12,0-.62,0-1.25-.02-1.95-.04.29,1.01.57,1.96.85,2.93Zm67.72.63c-.24-.01-.44-.03-.64-.03-.65,0-1.3.01-1.96,0-2.09-.02-4.17-.05-6.26-.08-1.47-.02-2.94-.07-4.41-.1-.17,0-.34,0-.5-.01-1.5-.06-3.01-.1-4.51-.18-2.35-.12-4.68-.37-7.04-.28-1.01.04-2.03-.03-3.05-.07-.72-.03-1.44-.13-2.16-.15-1.88-.05-3.76-.08-5.64-.1-.89-.01-1.79,0-2.68,0-1.19,0-2.38.03-3.57.03-1.45,0-2.91-.04-4.36-.05-.5,0-1,.01-1.5.05-1.11.08-2.23.18-3.34.25-1.86.12-3.71.23-5.57.31-1.36.06-2.72.08-4.08.08-1.62,0-3.24-.06-4.86-.07-.45,0-.91.04-1.35.07.08.73.34,1.3.68,1.87.24.39.51.53.95.54,1.81.04,3.62.12,5.43.15,1.24.02,2.49-.01,3.73-.04.86-.02,1.71-.08,2.57-.1,2.12-.03,4.24-.03,6.36-.06.82-.01,1.63-.09,2.45-.11.57-.01,1.14.07,1.71.03.82-.05,1.63-.23,2.44-.26,1.13-.05,2.26-.03,3.39,0,1.26.03,2.53.11,3.79-.08.46-.07.92-.11,1.39-.15,1.51-.14,3.01-.03,4.52,0,.3,0,.6.01.9-.01.8-.07,1.59.02,2.39.1.89.09,1.79.17,2.67.11.82-.06,1.63-.09,2.45-.04.76.05,1.52.18,2.28.21,1.04.03,2.08-.04,3.12,0,1.14.03,2.28.11,3.42.21,1.19.1,2.38.19,3.55.38,1.68.27,3.36.32,5.05.33.26,0,.51-.04.77-.01.53.05.93-.17,1.06-.68.17-.65.28-1.3.44-2.02Zm3.46-14.05c-.43-.02-.8-.04-1.17-.06-1.23-.05-2.46-.08-3.69-.14-1.01-.06-2.01-.18-3.01-.23-.86-.04-1.71-.01-2.57-.03-.69-.01-1.38-.07-2.06-.07-1.86.01-3.72.04-5.59.08-1.06.02-2.12.07-3.18.14-.72.05-1.44.16-2.16.22-1.04.09-2.08.13-3.12.24-1.33.14-2.66.37-3.99.5-1.11.11-2.23.16-3.35.21-1.06.04-2.12.04-3.17.07-1.02.02-2.05.08-3.07.07-1.52-.01-3.05-.04-4.57-.12-1.71-.08-3.42-.22-5.12-.35-.69-.05-1.37-.14-2.06-.16-.76-.02-1.53.06-2.29.04-2.87-.09-5.74-.21-8.61-.29-.83-.02-1.67.07-2.5.09-.87.02-1.73.13-2.61.03-.56-.06-1.12-.06-1.68-.06-.84,0-1.68.06-2.51.07-.31,0-.62-.03-.97-.04,0,.11-.01.19-.01.28,0,.83.01,1.67.03,2.5,0,.36.07.4.44.43.11,0,.22.01.34,0,.74-.03,1.49-.1,2.23-.1.91,0,1.81.03,2.72.06.39.01.77.09,1.16.08,1.21-.01,2.42-.05,3.63-.08.5-.01,1-.01,1.5-.05.95-.07,1.89-.16,2.84-.23.87-.06,1.76-.05,2.62-.18,1.49-.23,2.98-.29,4.48-.31,1.52-.03,3.05-.11,4.57-.18.59-.03,1.19-.09,1.78-.11,1.38-.05,2.75-.1,4.13-.14.67-.02,1.34-.02,2.01-.01,1.94.02,3.87.04,5.81.07.26,0,.52.02.78.02,1.47-.02,2.94-.09,4.41-.06,1.94.04,3.87.17,5.81.23,1.32.04,2.64.01,3.96,0,.09,0,.19-.02.28-.03,1.04-.08,2.08-.16,3.12-.25,1.02-.09,2.04-.16,3.06-.31.63-.09,1.26-.15,1.88-.24.65-.1,1.33-.07,1.99-.09.78-.01,1.55-.02,2.33,0,.68.02,1.36.07,2.05.1.8.04,1.59.06,2.39.09.23,0,.48,0,.55-.27.12-.48.22-.97.18-1.45Zm-73.16-7.19c.25.04.41.08.58.09.72.04,1.44.09,2.17.11,1.23.03,2.46.06,3.69.07,1.76.02,3.53.03,5.29.04,1.16,0,2.31.03,3.47.02.89,0,1.79-.06,2.68-.1.3-.01.6-.02.89-.03.72-.03,1.45-.1,2.17-.1,1.51,0,3.02.05,4.53.09,1.31.03,2.63.05,3.94.11,1.13.06,2.27.2,3.4.25,1.19.05,2.38.05,3.56.07.32,0,.63.02.95.01,1.45-.03,2.9-.07,4.35-.11,1.1-.03,2.19-.07,3.29-.11.93-.03,1.86-.1,2.79-.11,1.12,0,2.24.03,3.36.05.61.01,1.23.06,1.84.04.97-.03,1.93-.02,2.9.14.42.07.85.06,1.28.07.39.01.78,0,1.17.02.52.03,1.04.11,1.56.13.69.02,1.38-.02,2.06.02,1.85.1,3.69-.09,5.53-.12,1.08-.02,2.16-.09,3.23-.09,1.02,0,2.05.07,3.07.11.53.02.67-.09.71-.61.03-.37.04-.74.06-1.14-.48.04-.9.11-1.33.11-1.3,0-2.6-.04-3.91-.06-1.1-.02-2.2-.05-3.3-.07-1.34-.02-2.69-.04-4.03-.07-2.11-.06-4.22-.14-6.32-.19-1.29-.03-2.57-.03-3.86-.02-1.4,0-2.79.05-4.19.07-1.19.02-2.39.02-3.58.06-1.1.04-2.19.14-3.29.18-.57.02-1.15-.01-1.72-.03-.78-.03-1.55-.05-2.32-.1-.56-.03-1.11-.13-1.67-.15-1.65-.06-3.31-.11-4.96-.14-1.45-.03-2.91-.05-4.36-.07-1.49-.02-2.98-.02-4.47-.04-.61,0-1.23-.03-1.84-.05-1.35-.04-2.7-.07-4.06-.12-.96-.03-1.93-.11-2.89-.13-.97-.02-1.94.01-2.91,0-1.11-.02-2.22-.06-3.34-.09-2.04-.06-4.09-.12-6.21.07,0,.62.02,1.25.03,1.94Zm3.58,23.64s-.06.08-.08.12c.26.36.53.7.77,1.07.23.37.54.55.97.55.8-.01,1.6,0,2.4-.04,1.49-.07,2.97-.12,4.46-.07,1.56.06,3.13.11,4.69.06,1.38-.05,2.75-.05,4.12.04.2.01.41-.02.62,0,.6.02,1.21.03,1.81.08.5.04.99.16,1.5.18.7.04,1.41.01,2.11.04,1.12.05,2.24.11,3.35.18.72.04,1.45.19,2.14-.06.95-.33,1.94-.3,2.91-.5.2-.04.41-.07.61-.07.46-.01.94-.08,1.39,0,.73.13,1.44.37,2.08.75.12.07.28.11.42.11,1.13-.01,2.27-.07,3.4-.06,2.07.03,4.14.09,6.21.14.15,0,.3,0,.45,0,.67,0,1.34,0,2.01.03.88.03,1.75.09,2.63.14.76.04,1.53.05,2.29.13,1.29.14,2.57.33,3.88.31,1.62-.03,3.24.04,4.87.07.16,0,.35,0,.49-.06.53-.23,1.08-.41,1.66-.47.36-.04.58-.23.7-.56.06-.16.12-.31.18-.47-.08-.05-.14-.11-.21-.12-.73-.14-1.46-.29-2.2-.39-1.01-.14-2.03-.24-3.05-.34-1.56-.16-3.11-.33-4.67-.45-1.61-.12-3.23-.2-4.85-.28-2.05-.1-4.09-.19-6.14-.26-.82-.03-1.64.03-2.46.05-1.62.04-3.24.09-4.86.13-.56.01-1.13.06-1.67-.01-.57-.08-1.13-.05-1.69-.02-.61.03-1.22.03-1.83.08-.9.06-1.8.17-2.7.23-.84.05-1.68.06-2.52.1-1.6.08-3.19.09-4.79,0-.72-.04-1.45.02-2.18.04-.5.02-1,.07-1.5.09-.48.02-.96.02-1.45.04-.83.03-1.66.12-2.49.08-1.35-.06-2.7-.23-4.05-.31-1.3-.07-2.6-.06-3.9-.1-1.66-.05-3.32.06-4.97-.17-.27-.04-.56-.03-.83-.04Zm65.21,2.36c.43-.05.8-.16,1.15-.11.73.11,1.08-.18,1.32-.85.25-.72.66-1.38.94-2.09.45-1.14.81-2.32,1.04-3.53.26-1.35.64-2.68.94-4.03.32-1.4.6-2.81.9-4.21.43-2,1.05-3.96,1.33-6,.13-.92.29-1.84.38-2.77.16-1.75.28-3.5.4-5.25.06-.88.07-1.75.11-2.63.07-1.49.15-2.98-.18-4.47-.45-.26-.96-.18-1.46-.2-.45-.01-.55.09-.61.54-.02.17-.03.34-.03.5,0,.59.02,1.17.02,1.76,0,.5-.02,1.01-.03,1.51-.02.99-.02,1.98-.05,2.96-.05,1.4-.16,2.8-.17,4.2,0,.78,0,1.56-.12,2.34-.07.47-.13.97-.08,1.44.1.88.01,1.76-.11,2.62-.22,1.53-.6,3.03-1.12,4.49-.37,1.03-.69,2.08-1.22,3.04-.27.48-.47,1.01-.62,1.54-.23.76-.32,1.57-.59,2.32-.28.75-.36,1.54-.62,2.29-.41,1.14-.74,2.3-1.11,3.45-.11.35-.24.7-.4,1.12Zm-63.67,1.19c-.36-.45-.69-.88-1.03-1.3-.3-.38-.68-.71-.9-1.13-.71-1.35-1.39-2.72-2.04-4.11-.49-1.05-.79-2.16-.94-3.32-.14-1.13-.45-2.23-.35-3.38,0-.04,0-.07,0-.11-.03-.82-.06-1.64-.11-2.46-.01-.22-.09-.43-.09-.65,0-1.06.08-2.12.04-3.17-.03-.93-.13-1.86-.28-2.77-.13-.78-.19-1.55-.12-2.34.08-.89.16-1.78.24-2.67.12-1.32.16-2.65.37-3.96.2-1.31.36-2.62.49-3.94.03-.28.03-.56.09-.83.1-.54.01-.66-.55-.65-.41,0-.82.02-1.23.05-.59.04-.71.16-.74.75-.04.69-.02,1.39-.12,2.07-.17,1.18-.31,2.37-.34,3.56-.01.58-.01,1.16-.01,1.73,0,.69,0,1.38,0,2.07,0,.56.04,1.12.03,1.67-.04,1.49,0,2.98.11,4.47.08,1.13.13,2.27.22,3.4.09,1.24.15,2.49.31,3.73.18,1.4.35,2.81.76,4.17.33,1.11.54,2.26,1.01,3.31.82,1.86,1.79,3.65,2.7,5.46.16.31.34.61.51.89.72-.2,1.38-.37,1.97-.54Zm59.38.23c-.61-.03-1.09-.05-1.57-.08-1.36-.08-2.72-.17-4.08-.23-.89-.04-1.79-.02-2.68-.07-1.22-.08-2.43-.29-3.66-.26-.46.01-.93-.12-1.39-.13-1.43-.03-2.86-.01-4.3-.03-1.27-.02-2.53-.21-3.8-.08-.24.02-.48-.02-.73-.04-.59-.04-1.17-.07-1.76-.11-.02,0-.03.06-.06.1.07.05.14.12.22.16,1.26.66,2.38,1.53,3.53,2.36.12.08.26.15.4.17.96.09,1.93.19,2.9.24.92.05,1.85.04,2.77.09.74.04,1.48.15,2.23.17,1.19.03,2.38.01,3.57.02,1.35.01,2.7.04,4.05.04.27,0,.57-.04.8-.17,1.16-.68,2.29-1.39,3.56-2.16Zm-43.18-24c1.44-.06,2.83-.12,4.22-.18.46-.02.5-.06.49-.53-.01-.5-.05-1-.08-1.5-.02-.32.03-.41.31-.39.72.06,1.43.16,2.21.25,0,.71,0,1.38,0,2.11,1.5,0,2.93-.01,4.36-.02.05,0,.1-.03.17-.05-.03-.36-.07-.7-.09-1.05-.02-.37-.03-.73-.04-1.14-6.66-.41-13.34-.81-19.94.07.13.81.26,1.64.39,2.47.93.19,1.83-.04,2.73-.07.92-.03,1.86.09,2.83-.13-.03-.59-.05-1.17-.1-1.74-.03-.27-.01-.51.14-.74.85-.04,1.68-.07,2.53.2l-.12,2.44Zm-16.36,22.42c.27.33.53.64.79.95.13.15.28.2.49.19.7-.06,1.41-.12,2.12-.12,1.32.02,2.59.25,3.75.95.15.09.35.11.53.13.2.01.41-.02.61-.03,1.13-.08,2.27-.08,3.39-.35.34-.08.7-.13,1.05-.14.65-.02,1.3,0,1.96,0,.78.02,1.56.05,2.34.07,1.45.04,2.91.05,4.36.14.71.05,1.37.06,1.97-.37.07-.05.17-.06.26-.1.64-.31,1.27-.62,1.87-.91-1.8-.09-3.6-.18-5.41-.27-.19,0-.37-.03-.56-.05-.78-.06-1.56-.15-2.34-.18-1.04-.04-2.09-.03-3.13-.02-.74,0-1.49.04-2.23.06-.6.01-1.19.03-1.79.03-.33,0-.66-.1-.98-.08-1.23.07-2.45-.05-3.68.06-.94.08-1.89-.08-2.84-.1-.8-.02-1.6.02-2.39.03-.01,0-.03.02-.12.1Zm49.51-22.52c-.03-.92-.05-1.74-.07-2.58-.18,0-.29-.02-.4-.02-.78,0-1.56-.01-2.34-.02-.93,0-1.86,0-2.79-.01-.65,0-1.31-.07-1.96-.05-1.3.04-2.6.11-3.9.19-1.15.06-2.3.17-3.45.21-.96.03-1.93,0-2.9,0-.66,0-1.32-.02-1.97-.03.09.1.18.15.28.16.65.1.6.29.56.8-.03.38-.01.77-.02,1.22.33-.03.58-.08.83-.08.85,0,1.7.03,2.55,0,.53-.02,1.08.11,1.61-.12.15-.6-.09-1.18-.08-1.84l2.18.11c.04.63.08,1.27.12,1.95,1.56.03,3.03.07,4.58.03-.04-.53-.08-.99-.12-1.45-.01-.17-.04-.34-.02-.5.03-.2.16-.33.39-.32.41.02.82.01,1.23.06.41.05.45.15.47.55.02.45.06.89.11,1.34.06.44.12.48.58.51.07,0,.15,0,.22,0,1.04-.01,2.08-.02,3.12-.04.37,0,.74-.03,1.19-.05Zm-9.45,26.3c.09.15.11.22.16.26.59.62,1.2,1.22,1.78,1.85.27.29.58.37.95.37,1.06.02,2.13.06,3.19.1.85.03,1.69.08,2.54.11.95.03,1.9.04,2.85.07.43.02.85.03,1.23-.23.79-.53,1.52-1.14,2.2-1.81.05-.05.09-.13.16-.23-.89,0-1.73,0-2.56-.01-.82,0-1.64,0-2.46-.01-.84-.02-1.67-.07-2.51-.11-.84-.04-1.67-.11-2.51-.14-.82-.03-1.64-.01-2.46-.05-.82-.04-1.64-.12-2.55-.18Zm-31.95-1.29s-.02.08-.04.12c.49.36.97.74,1.47,1.08.69.47,1.53.47,2.31.56,1.37.17,2.75.22,4.12.29.85.05,1.71.06,2.56.05.52,0,1.04-.09,1.45-.46.59-.54,1.18-1.08,1.76-1.63.02-.02,0-.07,0-.14-4.54-.05-9.09-.24-13.63.12Zm-2.18-24.98c-.07-.79-.13-1.54-.19-2.34-1.76,0-3.53.03-5.3-.02-1.76-.04-3.53-.16-5.34-.25-.14.97-.13,1.87-.06,2.82.98.05,1.93-.07,2.91-.11-.03-.27-.06-.48-.07-.68-.02-.22-.03-.45-.03-.67,0-.71.03-.75.74-.81.43-.03.89-.14,1.31.13,0,.66.01,1.31.02,1.96,1.2.34,2.35-.03,3.5.08.72.07,1.45,0,2.18,0,.09,0,.17-.06.33-.11Zm50.3-2.27c-1.59-.04-3.08-.09-4.61-.13-.07.83-.15,1.6.19,2.35.13.01.24.04.35.04,1.21.01,2.42.01,3.63.03.3,0,.4-.16.41-.41.01-.59.02-1.19.03-1.87Zm6.71-.1c-1.59.06-3.11.11-4.6.16-.19.58-.15,1.54.07,2.13.72-.07,1.46-.15,2.19-.21.75-.07,1.51,0,2.24-.13.03-.67.06-1.28.1-1.95Zm-11.68,31.81c-2.79-.17-5.57-.32-8.36-.37.02.1.02.15.04.17.05.06.09.12.16.16,1.21.65,2.44,1.21,3.86,1.08.17-.02.33-.03.5-.04,1.32-.1,2.59-.43,3.81-.99Zm14.52-29.35c1.12.08,2.15-.09,3.23-.24.1-.62.2-1.2.31-1.81-1.2-.02-2.37-.05-3.59-.07.02.71.04,1.38.06,2.11Zm-44.37-2.25c-.01.23-.03.4-.03.56.01.57.02,1.15.04,1.72.04.86-.03.9.95.95.02,0,.04,0,.06,0q.68-.04.74-.74c.01-.19.04-.37.04-.56,0-.57,0-1.14.01-1.74-.63-.07-1.19-.13-1.82-.19Zm-6.83,3.06c.47-.02.92-.03,1.4-.05.05-.92.1-1.77.13-2.63.01-.36-.04-.42-.41-.44-.46-.03-.91,0-1.46,0,.3,1.05-.04,2.07.34,3.13Zm48.74-.55c.6-.03,1.14-.03,1.67-.08.33-.03.41-.19.39-.54-.01-.24,0-.48-.03-.72-.04-.4-.1-.79-.15-1.22-.67.04-1.26.08-1.93.12.02.84.04,1.61.06,2.45Zm-34.67.6c.58,0,1.13.11,1.69,0-.06-.89-.12-1.73-.18-2.59-.52-.07-1.04-.14-1.58-.21-.09.96-.19,1.85.07,2.81Zm-22.05.28c.45-.09.84-.16,1.3-.25.15-.98.07-1.92-.26-2.85-.52.03-.97.06-1.47.09.15.99.11,1.98.44,3.02Zm4.88,25.76c.05.12.05.17.08.18.84.35,1.68.7,2.53,1.05.05.02.11.01.17.02,1.03.13,2.05.01,3.04-.24.4-.1.77-.29,1.16-.45-2.33-.2-4.65-.07-6.97-.56Zm24.44-28.79c.05.92.09,1.76.26,2.61.44-.04.84.16,1.3-.08-.04-.82-.08-1.64-.13-2.45l-1.44-.07Zm-37.76.21c-.08.84.16,1.65.2,2.52.44-.02.82-.03,1.22-.05-.01-.57-.05-1.07-.03-1.57.04-1.16-.08-1.26-1.22-.98-.04,0-.07.03-.17.08Zm51.69-.66c0,.75.02,1.48.03,2.22.48.05.89.1,1.24-.08,0-.73,0-1.43-.01-2.15-.4-.15-.81-.09-1.25.01Zm6.64,2.29c.39,0,.7,0,1.01-.01.37,0,.43-.03.43-.41,0-.53-.06-1.06-.09-1.57l-1.25-.06-.1,2.05Zm-12.3.37c-.11-.83-.2-1.54-.3-2.31-.32.04-.65-.19-.91.09l-.11,2.26c.44-.01.84-.02,1.32-.04Z"/>
        <path class="cls-1" d="m30.28,75c-.22-1,.17-1.84.23-2.73.12-.02.19-.05.26-.05,1.16.08,2.33.19,3.49.23.97.03,1.93-.04,2.9-.02.98.01,1.97.09,2.95.11.93.02,1.86-.01,2.79,0,.31,0,.63.05.94.06,1.64.06,3.29.09,4.93.04,1.46-.05,2.92-.08,4.38-.02,1.56.07,3.12,0,4.68,0,.31,0,.63.06.94.05,2.01-.03,4.02-.07,6.03-.12,1.04-.03,2.08-.12,3.12-.12.92,0,1.84.11,2.76.14.59.02,1.19,0,1.79-.02,1.75-.08,3.49-.18,5.24-.24.84-.03,1.68.08,2.52.03,1.9-.11,3.79,0,5.69-.02,1.34-.02,2.68-.08,4.02-.09,1.42-.01,2.82-.13,4.23-.24,1.65-.14,3.32-.12,4.98-.03.89.05,1.79.03,2.68.07.85.03,1.7.09,2.55.15.21.01.43.06.41.34-.06,1.06-.12,2.12-.18,3.18,0,.03-.04.06-.03.05-1.13.07-2.22.15-3.31.21-.33.02-.67.01-1.01,0-1.17-.01-2.34-.03-3.52-.03-1.2,0-2.41.04-3.61.02-2.03-.04-4.06-.14-6.1-.18-1.56-.03-3.13-.02-4.69,0-1.88.02-3.76.1-5.64.11-2.16.01-4.32-.06-6.48-.03-2.39.03-4.77-.05-7.16-.13-1.99-.07-3.98-.05-5.98-.09-.41,0-.82-.07-1.23-.09-2.11-.11-4.22-.2-6.33-.32-1.64-.09-3.28-.23-4.92-.31-1.43-.07-2.86-.09-4.3-.09-.55,0-1.1.13-1.66.17-.61.04-1.23.05-1.84.06-1.12.02-2.23.04-3.35.05-.88,0-1.75,0-2.63-.01-.18,0-.36-.05-.55-.08Z"/>
        <path class="cls-1" d="m49.02,81.37c.04.27.07.45.1.7.73-.03,1.44-.06,2.19-.09.04-.23.07-.41.1-.62,1.54,0,3.1,0,4.67-.01,0,0,.04.03.05.06.26.86.27.87,1.17.78.2-.02.41,0,.61-.03.43-.06.62-.15.61-.63,0-.07.01-.14.02-.25,1.53-.02,3.05-.05,4.62-.07.04.27.09.56.14.9.7,0,1.39,0,2.07,0,.22,0,.34-.12.34-.35,0-.18.02-.37.03-.55,1.66-.27,3.29.07,4.98-.06.03.29.05.54.08.83.63.15,1.28-.02,1.94.04.05-.24.09-.44.15-.71,1.5-.06,3.01-.11,4.51-.17.07.2.13.35.18.49.51-.03.99-.05,1.47-.08.09,0,.21.01.27-.04.63-.53,1.38-.28,2.08-.32.93-.05,1.86-.02,2.79-.02.09,0,.24-.02.26.02.21.39.55.21.84.2.52-.02,1.04-.02,1.53-.24.05-.02.11-.02.16-.02,1.38.03,2.76.03,4.14.09.87.04,1.73.16,2.6.23.43.03.86-.02,1.28,0,.82.03,1.64.09,2.45.11.65.01,1.3-.02,1.96-.03,1.36-.02,2.72-.03,4.08-.04.11,0,.22.02.38.04.06.73-.08,1.44-.24,2.22-.5.04-1.02.08-1.53.13-1.25.11-2.49-.03-3.74-.04-1.47-.01-2.94,0-4.42-.02-.89-.01-1.79-.09-2.68-.11-.69-.02-1.38,0-2.07.03-1.32.04-2.64.1-3.96.14-1.41.04-2.83.03-4.24.11-1.19.07-2.37.22-3.55.36-1.57.19-3.13.46-4.71.62-.96.1-1.93.07-2.9.06-1.31,0-2.61-.06-3.92-.07-.65,0-1.3.09-1.95.07-.78-.02-1.55-.13-2.33-.17-1.25-.08-2.5-.18-3.75-.2-1.62-.03-3.24.02-4.85,0-1.38-.02-2.75-.09-4.13-.12-1.06-.02-2.12,0-3.19-.01-1.27-.01-2.53-.05-3.8-.07-1.23-.01-2.46,0-3.68-.02-.56,0-1.12-.04-1.68-.03-1.04.02-2.08.08-3.12.1-.78.01-1.56.09-2.33-.13-.29-.08-.62-.04-1-.06-.05-.86-.09-1.68-.14-2.58.57-.02,1.06-.05,1.56-.06.28,0,.56.05.84.02.29-.03.56-.11.69.27.02.07.15.14.23.14.57-.02,1.15.18,1.71-.1.03-.14.06-.27.09-.4,1.04-.11,5.62-.12,5.99,0,.04.25.08.5.13.83.62-.06,1.23-.11,1.83-.19.1-.01.21-.14.26-.24.05-.1.02-.24.03-.37,1.89-.08,3.77-.16,5.68-.24Z"/>
        <path class="cls-1" d="m30.23,88.81c1,0,1.91,0,2.81,0,1.3,0,2.61.02,3.91-.04,1.69-.07,3.39-.01,5.08.02.89.02,1.79-.11,2.68-.03,1.31.12,2.6.02,3.89-.12.81-.09,1.63-.1,2.45-.15.48-.03.97-.04,1.45-.1,1.07-.12,2.14-.26,3.21-.38.24-.03.48-.04.72-.04,1.2.02,2.4.06,3.6.08.57,0,1.15-.02,1.73-.04,2.35-.07,4.7.06,7.05.19.88.05,1.75.11,2.63.12,1.39.02,2.79.02,4.18-.01,1.34-.04,2.68-.14,4.01-.2.37-.02.74.03,1.12.02.33,0,.67-.04,1-.04.32,0,.64,0,.95,0,.83-.02,1.66-.04,2.49-.06,1.19-.03,2.38-.03,3.57-.09,1.65-.09,3.31-.24,4.96-.32,1.04-.05,2.08-.05,3.13-.02,1.85.04,3.69.12,5.54.19.03,0,.07.03.13.06-.08.37-.15.75-.25,1.12-.15.54-.31,1.07-.48,1.61-.14.46-.19.48-.67.49-1.21.01-2.42.04-3.63.05-.22,0-.44-.04-.66-.04-.63,0-1.27.02-1.9.02-.27,0-.55-.04-.82-.04-1.7-.03-3.39-.04-5.09-.08-.5-.01-.99-.11-1.48-.13-.65-.03-1.3-.01-1.96-.02-1.15-.01-2.31.01-3.46-.06-.66-.04-1.31,0-1.97,0-.78-.01-1.56-.12-2.34-.17-.96-.06-1.93-.14-2.9-.14-1.19,0-2.38.08-3.57.12-1.13.04-2.27.07-3.4.11-1.49.05-2.98.13-4.46.14-.64,0-1.31.13-1.94-.12-.03-.01-.08-.02-.11,0-1.02.24-2.04.05-3.06.07-1.1.02-2.19.08-3.29.11-1.25.04-2.5.06-3.74.1-1.13.03-2.27.09-3.4.11-1.01.02-2.02.06-3.02,0-1.32-.07-2.6.14-3.89.3-1.46.18-2.93.29-4.39.42-.96.09-1.93.16-2.89.24-.72.06-1.45.11-2.17.18-.22.02-.44.07-.66.12-.28.07-.44-.05-.48-.32-.06-.33-.12-.66-.14-1-.04-.72-.04-1.45-.07-2.23Z"/>
        <path class="cls-1" d="m31.33,69.31c1.21-.11,2.44-.05,3.66-.01,1.43.04,2.85.21,4.29.03,1.53-.2,3.08-.19,4.63-.1.96.05,1.94-.01,2.9-.01.56,0,1.12.03,1.68.02,1.53-.02,3.05-.06,4.58-.06.57,0,1.14.1,1.72.13.91.05,1.82.2,2.73.07.04,0,.07-.01.11-.01,1.1.01,2.2.02,3.3.03.43,0,.86,0,1.28,0,.29,0,.59.02.88.07.89.16,1.78.03,2.67,0,.4-.02.81.02,1.21,0,.22-.01.43-.13.64-.14,1.06-.08,2.1-.27,3.17-.23.76.03,1.52-.07,2.28-.05.59,0,1.18.14,1.77.14,1.23,0,2.46-.06,3.68-.08,1.06-.02,2.12-.03,3.18,0,.55.02,1.08.23,1.66.19.89-.06,1.79-.07,2.68-.09,1.32-.02,2.65-.02,3.97-.05.99-.02,1.97-.06,2.96-.09.8-.03,1.6-.09,2.4-.09.79,0,1.59.09,2.38.1,1.55.02,3.09.02,4.64.03.74,0,1.49,0,2.3-.01.01.85.03,1.66.03,2.48,0,.25-.21.28-.41.28-2.63-.11-5.26-.25-7.88-.32-1.3-.04-2.61-.05-3.9.14-.09.01-.19.06-.27.04-1.39-.27-2.78.01-4.17-.03-1.25-.04-2.49-.01-3.74.01-.59.01-1.19.1-1.78.12-.37.02-.74-.03-1.11-.03-.81,0-1.63-.01-2.44-.01-.87,0-1.75-.02-2.62,0-.46.01-.92.11-1.38.14-.81.05-1.62.1-2.44.1-1.73,0-3.46-.03-5.18-.04-.61,0-1.23.03-1.84.06-.73.03-1.45.07-2.18.09-1.49.04-2.98.08-4.47.1-1.25.02-2.49.05-3.74.04-1.13-.01-2.26-.07-3.39-.12-1.47-.07-2.94-.18-4.41-.22-2.05-.05-4.1-.02-6.14-.06-1.8-.04-3.61-.1-5.41-.18-.56-.03-1.1-.17-1.66-.22-.78-.08-1.56-.13-2.34-.2-.06,0-.11,0-.17,0-.59-.04-.67-.12-.65-.7q.03-.79.33-1.22Z"/>
        <path class="cls-1" d="m30.72,92.91c.22-.02.44-.05.65-.07,1.54-.14,3.07-.26,4.61-.42,1.02-.1,2.03-.28,3.05-.38,1.24-.12,2.49-.19,3.73-.29.78-.06,1.56-.12,2.34-.17.59-.03,1.19-.04,1.79-.05.97-.03,1.93-.06,2.9-.08,1.68-.04,3.35-.09,5.03-.11,1.36-.02,2.72.02,4.08-.01,1.92-.05,3.83-.16,5.75-.24.52-.02,1.04-.03,1.56-.04,1.19-.03,2.39-.05,3.58-.09,1.02-.04,2.04-.1,3.07-.16,1.89-.1,3.77.1,5.65.18,1.08.04,2.16.12,3.23.17,1.26.06,2.52.1,3.79.18,1.71.1,3.42.24,5.13.31,1.53.07,3.05.06,4.58-.05.89-.06,1.79-.03,2.68-.04,1.13,0,2.27,0,3.49,0-.12.53-.21,1.01-.33,1.49-.07.31-.19.61-.27.91-.07.28-.22.42-.52.39-.33-.04-.66-.1-1-.12-1.36-.05-2.72-.08-4.07-.13-.63-.02-1.27-.06-1.9-.06-1.04,0-2.09.03-3.13.04-.35,0-.7-.04-1.06-.04-.38,0-.76.01-1.15,0-.71,0-1.43-.02-2.14-.03-1.35,0-2.7-.07-4.04.07-.38.04-.78,0-1.16,0-.07,0-.15-.02-.22,0-1.2.31-2.42.09-3.63.13-.8.02-1.6.01-2.4.02-.74,0-1.49.03-2.23.01-.72-.02-1.44-.09-2.17-.12-.67-.03-1.34.01-2.01-.04-1.33-.1-2.66-.26-3.99-.36-.5-.04-1.01,0-1.51-.01-1.36-.02-2.72-.05-4.07-.08-.71-.01-1.43-.12-2.12-.02-.62.1-1.26,0-1.87.23-.25.09-.55.08-.83.1-1.13.09-2.26.19-3.39.26-1.41.08-2.83.12-4.24.19-.91.05-1.82.16-2.73.19-.78.03-1.56-.03-2.34,0-2.16.1-4.32-.01-6.47-.09-.84-.03-1.68-.02-2.51-.02-.11,0-.22,0-.34-.01-.34-.01-.6-.11-.67-.51-.06-.34-.29-.65-.18-1.05Z"/>
        <path class="cls-1" d="m32.07,98.09c-.28-.97-.55-1.92-.85-2.93.7.01,1.32.03,1.95.04.71,0,1.41,0,2.12,0,.89,0,1.78,0,2.66.03,1.06.04,2.1.14,3.16-.03,1.26-.2,2.53-.07,3.79.04,1.37.11,2.73.23,4.11.14,1.5-.11,3.02-.12,4.52-.17,1.26-.04,2.53-.08,3.79-.1.45,0,.89.03,1.34.04,1.41.04,2.83.06,4.24-.08.33-.03.67-.02,1.01-.02,1.39.03,2.79.07,4.18.09,1.15.01,2.31-.04,3.47,0,1.06.03,2.11.14,3.17.22,1.23.09,2.45,0,3.67-.06.46-.02.92,0,1.38-.03,1.15-.07,2.3-.18,3.46-.24,1.21-.06,2.42-.15,3.63-.11,1.6.05,3.19.04,4.79.03,1.21,0,2.41.05,3.62.06,1.53.02,3.06.03,4.58.05.2,0,.4.02.66.03-.2.9-.38,1.73-.57,2.59-.82-.02-1.6-.05-2.38-.06-1.38,0-2.76,0-4.14,0-.75,0-1.49,0-2.24.03-.67.03-1.33.11-2,.15-.69.04-1.37.07-2.06.09-.82.03-1.64.05-2.46.05-.78,0-1.56-.04-2.34-.06-1.02-.02-2.05-.02-3.07-.04-1.94-.05-3.88-.09-5.81-.16-1-.03-2-.12-3-.16-1.05-.04-2.11-.06-3.16-.08-1.23-.03-2.46-.07-3.68-.07-1.43,0-2.86.04-4.29.04-1.15,0-2.3-.06-3.45-.04-2.44.03-4.88-.02-7.31.26-1.09.12-2.19.13-3.29.2-1,.06-2.01.17-3.01.18-1.51.01-3.01-.06-4.52-.06-.8,0-1.6.04-2.4.07-.93.03-1.86.07-2.79.1-.13,0-.26-.01-.49-.02Z"/>
        <path class="cls-1" d="m99.79,98.72c-.15.71-.27,1.37-.44,2.02-.13.51-.53.73-1.06.68-.25-.02-.51.01-.77.01-1.69,0-3.37-.06-5.05-.33-1.17-.19-2.36-.28-3.55-.38-1.14-.1-2.28-.18-3.42-.21-1.04-.03-2.08.04-3.12,0-.76-.02-1.52-.16-2.28-.21-.82-.05-1.63-.02-2.45.04-.88.06-1.78-.02-2.67-.11-.8-.08-1.59-.17-2.39-.1-.3.02-.6.02-.9.01-1.51-.02-3.01-.13-4.52,0-.46.04-.93.08-1.39.15-1.26.19-2.52.11-3.79.08-1.13-.03-2.26-.05-3.39,0-.82.03-1.63.21-2.44.26-.57.04-1.14-.04-1.71-.03-.82.02-1.63.1-2.45.11-2.12.03-4.24.03-6.36.06-.86.01-1.71.08-2.57.1-1.24.03-2.49.06-3.73.04-1.81-.03-3.62-.11-5.43-.15-.44,0-.71-.15-.95-.54-.34-.56-.61-1.14-.68-1.87.44-.02.89-.07,1.35-.07,1.62.02,3.24.07,4.86.07,1.36,0,2.72-.02,4.08-.08,1.86-.08,3.72-.2,5.57-.31,1.11-.07,2.23-.18,3.34-.25.5-.03,1-.05,1.5-.05,1.45.01,2.91.05,4.36.05,1.19,0,2.38-.02,3.57-.03.89,0,1.79,0,2.68,0,1.88.03,3.76.05,5.64.1.72.02,1.44.12,2.16.15,1.01.04,2.03.11,3.05.07,2.36-.09,4.69.16,7.04.28,1.5.08,3.01.12,4.51.18.17,0,.34,0,.5.01,1.47.03,2.94.08,4.41.1,2.09.04,4.17.06,6.26.08.65,0,1.3,0,1.96,0,.2,0,.4.02.64.03Z"/>
        <path class="cls-1" d="m103.24,84.68c.04.48-.06.97-.18,1.45-.07.28-.33.28-.55.27-.8-.02-1.59-.05-2.39-.09-.68-.03-1.36-.09-2.05-.1-.78-.02-1.55,0-2.33,0-.67.01-1.34-.02-1.99.09-.63.1-1.26.15-1.88.24-1.01.15-2.04.22-3.06.31-1.04.09-2.08.17-3.12.25-.09,0-.19.03-.28.03-1.32,0-2.64.03-3.96,0-1.94-.05-3.87-.19-5.81-.23-1.47-.03-2.94.04-4.41.06-.26,0-.52-.02-.78-.02-1.94-.02-3.87-.05-5.81-.07-.67,0-1.34,0-2.01.01-1.38.04-2.75.08-4.13.14-.59.02-1.19.09-1.78.11-1.52.07-3.05.15-4.57.18-1.5.03-2.99.09-4.48.31-.86.13-1.75.12-2.62.18-.95.07-1.89.17-2.84.23-.5.04-1,.04-1.5.05-1.21.03-2.42.07-3.63.08-.39,0-.77-.07-1.16-.08-.91-.03-1.81-.07-2.72-.06-.74,0-1.49.07-2.23.1-.11,0-.22,0-.34,0-.37-.03-.43-.08-.44-.43-.02-.83-.02-1.67-.03-2.5,0-.09,0-.18.01-.28.35.02.66.05.97.04.84-.02,1.68-.06,2.51-.07.56,0,1.12,0,1.68.06.87.1,1.74-.01,2.61-.03.84-.02,1.67-.11,2.5-.09,2.87.08,5.74.2,8.61.29.76.02,1.53-.06,2.29-.04.69.02,1.37.11,2.06.16,1.71.12,3.41.26,5.12.35,1.52.08,3.05.1,4.57.12,1.02,0,2.05-.05,3.07-.07,1.06-.02,2.12-.02,3.17-.07,1.12-.05,2.23-.09,3.35-.21,1.33-.13,2.66-.36,3.99-.5,1.04-.11,2.08-.15,3.12-.24.72-.06,1.44-.17,2.16-.22,1.06-.07,2.12-.11,3.18-.14,1.86-.04,3.72-.07,5.59-.08.69,0,1.38.06,2.06.07.86.02,1.72-.01,2.57.03,1.01.05,2.01.18,3.01.23,1.23.07,2.46.1,3.69.14.37.01.74.04,1.17.06Z"/>
        <path class="cls-1" d="m30.09,77.49c0-.69-.02-1.32-.03-1.94,2.12-.19,4.16-.13,6.21-.07,1.11.03,2.22.07,3.34.09.97.01,1.94-.02,2.91,0,.96.02,1.93.1,2.89.13,1.35.05,2.7.08,4.06.12.61.02,1.23.04,1.84.05,1.49.02,2.98.02,4.47.04,1.45.02,2.91.04,4.36.07,1.65.04,3.31.08,4.96.14.56.02,1.11.12,1.67.15.77.05,1.55.07,2.32.1.57.02,1.15.06,1.72.03,1.1-.04,2.19-.14,3.29-.18,1.19-.04,2.38-.04,3.58-.06,1.4-.02,2.79-.06,4.19-.07,1.29,0,2.57,0,3.86.02,2.11.05,4.22.13,6.32.19,1.34.04,2.69.05,4.03.07,1.1.02,2.2.05,3.3.07,1.3.02,2.6.06,3.91.06.42,0,.85-.07,1.33-.11-.02.39-.03.77-.06,1.14-.04.52-.18.63-.71.61-1.02-.04-2.05-.11-3.07-.11-1.08,0-2.16.08-3.23.09-1.84.03-3.68.22-5.53.12-.69-.04-1.38,0-2.06-.02-.52-.02-1.04-.1-1.56-.13-.39-.02-.78,0-1.17-.02-.43-.01-.86,0-1.28-.07-.96-.16-1.93-.17-2.9-.14-.61.02-1.23-.03-1.84-.04-1.12-.02-2.24-.05-3.36-.05-.93,0-1.86.07-2.79.11-1.1.04-2.19.08-3.29.11-1.45.04-2.9.08-4.35.11-.32,0-.63,0-.95-.01-1.19-.02-2.38-.01-3.56-.07-1.13-.05-2.27-.2-3.4-.25-1.31-.06-2.63-.08-3.94-.11-1.51-.03-3.02-.08-4.53-.09-.72,0-1.45.07-2.17.1-.3.01-.59.02-.89.03-.89.03-1.79.09-2.68.1-1.16.01-2.31,0-3.47-.02-1.76-.01-3.53-.02-5.29-.04-1.23-.01-2.46-.04-3.69-.07-.72-.02-1.45-.07-2.17-.11-.16,0-.33-.05-.58-.09Z"/>
        <path class="cls-1" d="m33.67,101.12c.28.01.56,0,.83.04,1.65.23,3.31.12,4.97.17,1.3.04,2.6.03,3.9.1,1.35.07,2.7.24,4.05.31.83.04,1.66-.05,2.49-.08.48-.02.96-.02,1.45-.04.5-.02,1-.07,1.5-.09.73-.03,1.45-.08,2.18-.04,1.6.09,3.19.08,4.79,0,.84-.04,1.68-.05,2.52-.1.9-.06,1.8-.16,2.7-.23.61-.04,1.22-.05,1.83-.08.57-.02,1.12-.06,1.69.02.55.08,1.11.03,1.67.01,1.62-.04,3.24-.08,4.86-.13.82-.02,1.64-.08,2.46-.05,2.05.06,4.1.16,6.14.26,1.62.08,3.23.16,4.85.28,1.56.12,3.12.29,4.67.45,1.02.1,2.04.2,3.05.34.74.1,1.47.26,2.2.39.07.01.13.07.21.12-.06.16-.12.32-.18.47-.12.33-.34.53-.7.56-.58.06-1.12.24-1.66.47-.15.06-.33.06-.49.06-1.62-.02-3.24-.1-4.87-.07-1.31.02-2.59-.17-3.88-.31-.76-.08-1.52-.09-2.29-.13-.88-.05-1.75-.11-2.63-.14-.67-.03-1.34-.02-2.01-.03-.15,0-.3,0-.45,0-2.07-.05-4.14-.12-6.21-.14-1.13-.01-2.27.04-3.4.06-.14,0-.3-.04-.42-.11-.65-.38-1.36-.62-2.08-.75-.45-.08-.92-.02-1.39,0-.2,0-.41.03-.61.07-.96.2-1.96.16-2.91.5-.7.25-1.43.1-2.14.06-1.12-.06-2.23-.13-3.35-.18-.7-.03-1.41,0-2.11-.04-.5-.03-.99-.14-1.5-.18-.6-.05-1.2-.06-1.81-.08-.2,0-.41.02-.62,0-1.37-.09-2.74-.08-4.12-.04-1.56.05-3.13,0-4.69-.06-1.49-.05-2.98,0-4.46.07-.8.04-1.6.02-2.4.04-.43,0-.74-.18-.97-.55-.24-.37-.51-.72-.77-1.07.03-.04.06-.08.08-.12Z"/>
        <path class="cls-1" d="m98.88,103.49c.15-.43.28-.77.4-1.12.37-1.15.7-2.32,1.11-3.45.27-.75.35-1.54.62-2.29.27-.74.36-1.55.59-2.32.16-.53.36-1.06.62-1.54.53-.97.86-2.01,1.22-3.04.52-1.46.9-2.96,1.12-4.49.13-.86.21-1.73.11-2.62-.05-.47,0-.96.08-1.44.12-.78.11-1.55.12-2.34,0-1.4.12-2.8.17-4.2.03-.99.04-1.97.05-2.96,0-.5.03-1.01.03-1.51,0-.59-.02-1.17-.02-1.76,0-.17,0-.34.03-.5.06-.45.16-.55.61-.54.5.01,1.01-.06,1.46.2.32,1.49.24,2.98.18,4.47-.04.88-.05,1.76-.11,2.63-.12,1.75-.24,3.5-.4,5.25-.08.93-.25,1.85-.38,2.77-.29,2.03-.9,4-1.33,6-.3,1.4-.59,2.81-.9,4.21-.3,1.34-.68,2.67-.94,4.03-.23,1.22-.59,2.39-1.04,3.53-.28.71-.69,1.37-.94,2.09-.24.67-.59.96-1.32.85-.35-.05-.72.06-1.15.11Z"/>
        <path class="cls-1" d="m35.21,104.68c-.59.16-1.25.34-1.97.54-.16-.29-.35-.58-.51-.89-.91-1.82-1.88-3.61-2.7-5.46-.46-1.05-.67-2.21-1.01-3.31-.41-1.36-.58-2.77-.76-4.17-.16-1.23-.22-2.48-.31-3.73-.08-1.13-.14-2.27-.22-3.4-.11-1.49-.16-2.98-.11-4.47.02-.56-.02-1.12-.03-1.67,0-.69,0-1.38,0-2.07,0-.58,0-1.16.01-1.73.03-1.2.17-2.38.34-3.56.1-.68.08-1.38.12-2.07.03-.59.16-.71.74-.75.41-.02.82-.04,1.23-.05.56,0,.65.12.55.65-.05.27-.06.55-.09.83-.13,1.32-.28,2.63-.49,3.94-.2,1.31-.25,2.64-.37,3.96-.08.89-.16,1.78-.24,2.67-.07.78-.02,1.56.12,2.34.16.91.25,1.85.28,2.77.04,1.06-.03,2.12-.04,3.17,0,.22.08.43.09.65.04.82.07,1.64.11,2.46,0,.04,0,.08,0,.11-.1,1.15.2,2.26.35,3.38.15,1.16.46,2.27.94,3.32.64,1.39,1.32,2.76,2.04,4.11.22.42.6.76.9,1.13.34.42.67.84,1.03,1.3Z"/>
        <path class="cls-1" d="m94.58,104.91c-1.26.77-2.4,1.49-3.56,2.16-.22.13-.53.17-.8.17-1.35,0-2.7-.03-4.05-.04-1.19-.01-2.38,0-3.57-.02-.74-.02-1.48-.13-2.23-.17-.92-.05-1.85-.04-2.77-.09-.97-.05-1.93-.15-2.9-.24-.14-.01-.29-.08-.4-.17-1.15-.83-2.27-1.7-3.53-2.36-.08-.04-.15-.11-.22-.16.03-.05.05-.11.06-.1.59.03,1.17.07,1.76.11.24.02.49.06.73.04,1.27-.13,2.54.06,3.8.08,1.43.02,2.86,0,4.3.03.46,0,.93.14,1.39.13,1.23-.03,2.44.18,3.66.26.89.06,1.79.03,2.68.07,1.36.06,2.72.15,4.08.23.48.03.96.05,1.57.08Z"/>
        <path class="cls-1" d="m51.4,80.9l.12-2.44c-.85-.27-1.68-.25-2.53-.2-.15.23-.16.47-.14.74.06.57.07,1.15.1,1.74-.97.21-1.9.09-2.83.13-.9.03-1.8.26-2.73.07-.13-.83-.26-1.66-.39-2.47,6.6-.88,13.28-.48,19.94-.07.01.4.02.77.04,1.14.02.35.06.7.09,1.05-.07.02-.12.05-.17.05-1.43,0-2.86.01-4.36.02,0-.73,0-1.4,0-2.11-.78-.09-1.5-.18-2.21-.25-.27-.02-.33.07-.31.39.03.5.07,1,.08,1.5.01.47-.03.51-.49.53-1.39.06-2.78.12-4.22.18Z"/>
        <path class="cls-1" d="m35.04,103.32c.1-.08.11-.1.12-.1.8-.01,1.6-.04,2.39-.03.95.02,1.91.19,2.84.1,1.23-.11,2.46,0,3.68-.06.33-.02.66.07.98.08.6,0,1.19-.01,1.79-.03.74-.02,1.49-.06,2.23-.06,1.04,0,2.09-.01,3.13.02.78.03,1.56.12,2.34.18.19.02.37.04.56.05,1.81.09,3.61.18,5.41.27-.6.3-1.24.61-1.87.91-.08.04-.18.05-.26.1-.6.43-1.27.42-1.97.37-1.45-.09-2.9-.1-4.36-.14-.78-.02-1.56-.06-2.34-.07-.65-.01-1.31-.03-1.96,0-.35.01-.71.06-1.05.14-1.11.27-2.25.27-3.39.35-.2.01-.41.05-.61.03-.18-.01-.38-.04-.53-.13-1.15-.71-2.43-.94-3.75-.95-.71,0-1.41.06-2.12.12-.21.02-.37-.03-.49-.19-.26-.31-.52-.63-.79-.95Z"/>
        <path class="cls-1" d="m84.55,80.8c-.45.02-.82.05-1.19.05-1.04.02-2.08.03-3.12.04-.07,0-.15,0-.22,0-.46-.03-.52-.07-.58-.51-.06-.44-.09-.89-.11-1.34-.02-.4-.07-.5-.47-.55-.41-.05-.82-.05-1.23-.06-.23,0-.36.12-.39.32-.02.16,0,.33.02.5.04.46.07.92.12,1.45-1.54.04-3.02,0-4.58-.03-.04-.68-.08-1.32-.12-1.95l-2.18-.11c0,.66.23,1.24.08,1.84-.53.23-1.08.1-1.61.12-.85.03-1.7,0-2.55,0-.25,0-.5.05-.83.08,0-.45-.01-.84.02-1.22.04-.51.09-.7-.56-.8-.1-.02-.2-.07-.28-.16.66.01,1.32.02,1.97.03.97,0,1.93.04,2.9,0,1.15-.04,2.3-.14,3.45-.21,1.3-.07,2.6-.14,3.9-.19.65-.02,1.3.04,1.96.05.93.01,1.86,0,2.79.01.78,0,1.56,0,2.34.02.11,0,.22.01.4.02.02.84.05,1.67.07,2.58Z"/>
        <path class="cls-1" d="m75.1,107.1c.9.07,1.73.15,2.55.18.82.04,1.64.02,2.46.05.84.03,1.67.1,2.51.14.84.04,1.67.09,2.51.11.82.02,1.64,0,2.46.01.83,0,1.67,0,2.56.01-.07.1-.11.18-.16.23-.68.67-1.41,1.27-2.2,1.81-.38.26-.8.24-1.23.23-.95-.03-1.9-.04-2.85-.07-.85-.03-1.69-.08-2.54-.11-1.06-.04-2.13-.08-3.19-.1-.37,0-.68-.09-.95-.37-.58-.63-1.18-1.23-1.78-1.85-.05-.05-.07-.12-.16-.26Z"/>
        <path class="cls-1" d="m43.15,105.81c4.54-.36,9.09-.17,13.63-.12,0,.08.02.13,0,.14-.58.55-1.17,1.09-1.76,1.63-.41.37-.92.46-1.45.46-.85,0-1.71,0-2.56-.05-1.38-.07-2.76-.12-4.12-.29-.78-.1-1.61-.09-2.31-.56-.5-.34-.98-.72-1.47-1.08.01-.04.02-.08.04-.12Z"/>
        <path class="cls-1" d="m40.97,80.83c-.16.06-.24.11-.33.11-.73.01-1.46.08-2.18,0-1.14-.12-2.3.26-3.5-.08,0-.65-.01-1.3-.02-1.96-.42-.27-.87-.16-1.31-.13-.72.05-.74.1-.74.81,0,.22.01.45.03.67.01.2.04.41.07.68-.99.04-1.93.16-2.91.11-.07-.95-.08-1.85.06-2.82,1.81.09,3.57.21,5.34.25,1.77.04,3.53.02,5.3.02.07.81.13,1.55.19,2.34Z"/>
        <path class="cls-1" d="m91.27,78.56c0,.69-.01,1.28-.03,1.87,0,.25-.1.42-.41.41-1.21-.02-2.42-.02-3.63-.03-.11,0-.22-.02-.35-.04-.34-.75-.26-1.52-.19-2.35,1.53.04,3.02.08,4.61.13Z"/>
        <path class="cls-1" d="m97.98,78.46c-.03.67-.06,1.28-.1,1.95-.73.14-1.49.06-2.24.13-.74.07-1.47.14-2.19.21-.22-.6-.25-1.56-.07-2.13,1.49-.05,3.01-.11,4.6-.16Z"/>
        <path class="cls-1" d="m100.82,80.92c-.02-.74-.04-1.4-.06-2.11,1.22.02,2.39.05,3.59.07-.1.61-.2,1.19-.31,1.81-1.07.14-2.11.32-3.23.24Z"/>
        <path class="cls-5" d="m56.45,78.67c.63.07,1.2.13,1.82.19,0,.6,0,1.17-.01,1.74,0,.19-.03.37-.04.56q-.06.7-.74.74s-.04,0-.06,0c-.98-.04-.91-.09-.95-.95-.03-.57-.03-1.15-.04-1.72,0-.16.01-.33.03-.56Z"/>
        <path class="cls-5" d="m49.62,81.72c-.38-1.06-.04-2.08-.34-3.13.54,0,1-.02,1.46,0,.37.02.43.09.41.44-.03.86-.08,1.71-.13,2.63-.48.02-.93.03-1.4.05Z"/>
        <path class="cls-5" d="m98.36,81.17c-.02-.84-.04-1.61-.06-2.45.66-.04,1.26-.08,1.93-.12.05.43.11.83.15,1.22.02.24.02.48.03.72.02.36-.07.51-.39.54-.53.05-1.06.05-1.67.08Z"/>
        <path class="cls-5" d="m63.68,81.77c-.26-.96-.16-1.85-.07-2.81.54.07,1.06.14,1.58.21.06.86.12,1.7.18,2.59-.56.12-1.11,0-1.69,0Z"/>
        <path class="cls-5" d="m41.63,82.05c-.33-1.04-.29-2.03-.44-3.02.5-.03.96-.06,1.47-.09.33.93.41,1.88.26,2.85-.46.09-.85.16-1.3.25Z"/>
        <path class="cls-1" d="m46.52,107.82c2.32.48,4.64.36,6.97.56-.39.15-.76.34-1.16.45-1,.26-2.01.38-3.04.24-.06,0-.12,0-.17-.02-.84-.35-1.68-.7-2.53-1.05-.02,0-.03-.06-.08-.18Z"/>
        <path class="cls-5" d="m70.96,79.02l1.44.07c.04.82.08,1.64.13,2.45-.46.24-.85.04-1.3.08-.17-.84-.22-1.68-.26-2.61Z"/>
        <path class="cls-5" d="m33.2,79.23c.11-.05.14-.07.17-.08,1.14-.28,1.26-.18,1.22.98-.02.5.02,1,.03,1.57-.4.02-.78.03-1.22.05-.04-.87-.29-1.68-.2-2.52Z"/>
        <path class="cls-5" d="m84.89,78.57c.45-.1.86-.16,1.25-.01,0,.72,0,1.42.01,2.15-.36.19-.76.14-1.24.08,0-.74-.02-1.47-.03-2.22Z"/>
        <path class="cls-5" d="m91.53,80.87l.1-2.05,1.25.06c.03.51.09,1.04.09,1.57,0,.38-.06.41-.43.41-.31,0-.62,0-1.01.01Z"/>
        <path class="cls-5" d="m79.23,81.23c-.49.01-.88.02-1.32.04l.11-2.26c.26-.27.59-.05.91-.09.1.77.19,1.48.3,2.31Z"/>
      </g>
    </g>
    <g>
      <g>
        <path class="cls-7" d="m70.14,67.79c0-.2-.04-.4-.02-.58.02-.32.06-.63.11-.95.03-.26.18-.42.43-.45.4-.04.82-.06,1.23-.06.26,0,.34.07.35.33.01.6.01,1.19.02,1.78,0,.02-.02.05-.08.13-.65-.11-1.33.06-2.03-.19Z"/>
        <path class="cls-7" d="m70.06,69.71c-.33-.45-.33-1.1-.04-1.6.66.06,1.3.09,1.93.16.08,0,.2.09.23.17.17.44.28.96-.2,1.41-.2-.05-.3-.2-.36-.37-.06-.14-.11-.29-.16-.43-.26.04-.21.23-.21.37,0,.26-.07.47-.35.53-.18-.15-.16-.31-.15-.49,0-.15,0-.3.01-.5-.21.1-.21.23-.24.34-.05.26-.2.4-.46.41Z"/>
        <path class="cls-7" d="m67.73,48.5c-.11-.16-.23-.32-.34-.47.02-.02.05-.04.07-.05.12.15.23.3.35.46-.03.01-.06.04-.08.06Z"/>
        <path class="cls-7" d="m67.12,55.07c.16-.63.34-1.21.43-1.8.09-.57.1-1.17.15-1.76.02-.01.06-.02.08-.04.07.08.17.15.2.24.14.3.24.63.1.96-.11.29-.24.58-.34.88-.1.34-.18.68-.25,1.03-.05.26-.03.26-.38.48Z"/>
        <path class="cls-7" d="m68.04,49.02c-.48.06-.92-.47-1.02-1.25.09.04.21.08.21.12.09.44.38.74.76.95.02.02.05.07.06.1,0,.02-.01.05-.01.07Z"/>
        <path class="cls-7" d="m68.06,49.56c-.82-.22-1.41-.9-1.49-1.77.07-.02.14-.05.22-.08.02.05.05.07.06.1.1.42.24.82.57,1.11.15.14.34.24.53.34.12.07.2.11.1.29Z"/>
        <path class="cls-7" d="m67.53,49.58c-.53,0-1.05-.67-1.06-1.31.36.46.49,1.06,1.06,1.31Z"/>
        <path class="cls-7" d="m64.39,54.24c.06-.24.12-.47.19-.73.33.11.45.32.35.58-.08.22-.22.26-.55.15Z"/>
        <path class="cls-7" d="m64.01,56.37c-.33.02-.48-.07-.59-.3.33.02.66.04.99.06-.04.26-.25.23-.4.24Z"/>
        <path class="cls-7" d="m63.26,55.85c.09-.14.13-.25.2-.29.37-.16.72-.05,1.05.12.06.02.06.14.1.23-.25,0-.46.02-.67.01-.2-.02-.4-.05-.69-.08Z"/>
        <path class="cls-7" d="m63.06,53.92c-.06-.19,0-.28.35-.5.03.28.05.51.06.76-.21.02-.35-.05-.41-.26Z"/>
        <path class="cls-14" d="m62.38,59.57l-.08-1.47c-.02-.19-.03-.38-.04-.61.23,0,.28.12.33.27.13.37.32.69.59.98.22.22.4.26.82.3.41.01.73-.1.97-.35.19-.2.34-.43.38-.72.02-.15.05-.29.1-.43.02-.06.1-.1.22-.19.02.41.03.74.05,1.07.02.21.03.41.04.62.03.49-.46,1.02-.96,1.04-.14,0-.3,0-.42.06-.53.25-1.05.07-1.55-.02-.27-.05-.44-.25-.46-.54Z"/>
        <path class="cls-7" d="m61.74,47.64c.11-.2.26-.3.45-.28.5.04.97-.08,1.43-.2.03-.01.08,0,.16,0-.65.4-1.28.61-2.05.47Z"/>
        <path class="cls-7" d="m61.21,48.01c.08-.06.15-.14.21-.14.17-.02.34,0,.51,0,.29,0,.61.03.9-.04.51-.13,1.02-.31,1.43-.65.21-.18.38-.16.71-.03-.28.18-.47.36-.69.45-.35.14-.71.21-1.06.33-.29.09-.58.19-.87.26-.38.09-.76.08-1.15-.17Z"/>
        <path class="cls-7" d="m62.51,60.76c-.57-.33-.81-.79-.46-1.6.04.22.07.36.09.5.09.31.26.54.59.63.76.21,1.53.32,2.29,0,.37-.15.67-.37.82-.74.02-.06.06-.12.11-.2.18.43.12.77-.19,1.08-.85.86-1.84.88-2.9.5-.12-.04-.25-.1-.37-.16Z"/>
        <path class="cls-7" d="m61.03,48.42c-.13-.07-.08-.14,0-.23.66.37,1.34.24,2.02.01.24-.09.49-.13.73-.2.8-.25.91-.38,1.5-.89.13.14.06.27-.03.37-.33.39-.71.74-1.21.87-.62.17-1.24.31-1.87.4-.22.04-.47-.05-.69-.11-.16-.04-.31-.15-.46-.22Z"/>
        <path class="cls-7" d="m60.75,48.7s.03-.08.04-.12c.19.08.39.13.58.22.35.18.72.23,1.11.13.48-.1.95-.18,1.43-.32.72-.2,1.29-.64,1.69-1.29.33.12.34.17.22.46-.2.46-.56.75-1,.92-.66.24-1.3.57-2.01.65-.79.1-1.48-.15-2.07-.66Z"/>
        <path class="cls-7" d="m60.73,50.97c.03-.33.06-.64.1-.97,0-.04.03-.07.06-.13.18.07.36.12.54.2.93.36,1.83.29,2.72-.18.23-.12.49-.22.73-.31.5-.19.98-.38,1.31-.85.18.25.33.48.51.69.13.16.3.31.48.42.28.16.3.4.3.67-.02.49-.04.98-.06,1.47-.01.39,0,.77-.08,1.15-.11.62-.26,1.24-.45,1.86-.23.74-.67,1.38-1.17,1.97-.03.04-.08.06-.13.1-.09-.49-.18-.94-.28-1.44.55-.16.85-.66,1.15-1.15.07-.12.06-.27.11-.41-.09-.02-.13-.04-.16-.03-.37.17-.74.34-1.11.53-.28.15-.52.12-.81-.03.47-.1.59-.2.62-.52.04-.39-.21-.57-.58-.7.02-.54.03-1.09.1-1.63.04-.39.35-.64.79-.65.4,0,.83-.08,1.19.3.04-.3-.17-.39-.3-.41-.47-.06-.96-.13-1.41.08-.27.13-.4.41-.43.69-.05.56-.07,1.14-.07,1.71,0,.43-.15.76-.56.96-.19-.14-.23-.33-.23-.56-.01-.54-.04-1.09-.06-1.62,0-.09,0-.19-.02-.28-.08-.66-.44-1.02-1.1-1.18-.53-.14-.96.06-1.41.29l-.28-.03Z"/>
        <path class="cls-7" d="m60.69,54.2c0-.33,0-.65-.03-.99-.05-.75,0-1.5.07-2.23l.28.03s0,.07.01.1c0,.02.02.05.06.08.43-.29.9-.39,1.42-.27.51.14.84.5.88,1.01.02.44.04.9.06,1.33-.53.18-.69.68-.19,1.14-.35.22-.68.26-1.05.07-.24-.12-.48-.25-.76-.33.1.71.49,1.17,1.14,1.47-.26.51-.2,1.04-.14,1.67-.18-.14-.32-.21-.43-.31-.83-.74-1.37-1.62-1.34-2.78Z"/>
        <rect class="cls-7" x="60.49" y="49.32" width=".01" height=".01" transform="translate(-1.08 1.36) rotate(-1.27)"/>
        <path class="cls-7" d="m60.47,54.51c-.34-.21-.44-.5-.43-.83.02-.32-.03-.61-.15-.88-.16-.39-.12-.82-.07-1.21.02-.12.12-.24.22-.31.12-.08.27-.11.39-.16.01,1.13.03,2.24.04,3.4Z"/>
        <path class="cls-7" d="m70.11,67.21c-.02.19.02.39.02.58.7.25,1.38.07,2.03.19.06-.08.08-.11.08-.13,0-.58,0-1.18-.02-1.78,0-.26-.09-.34-.35-.33-.41,0-.83.02-1.23.06-.26.03-.4.2-.43.45-.05.32-.09.63-.11.95Zm-.09.9c-.29.5-.29,1.15.04,1.6.26,0,.41-.15.46-.41.03-.12.03-.25.24-.34,0,.2,0,.35-.01.5,0,.18-.03.34.15.49.28-.06.34-.28.35-.53,0-.14-.04-.33.21-.37.05.14.1.29.16.43.06.16.16.31.36.37.48-.44.38-.97.2-1.41-.03-.08-.14-.16-.23-.17-.63-.07-1.28-.1-1.93-.16Zm-2.63-20.08c.11.15.23.31.34.47.02-.02.05-.05.08-.06-.12-.16-.23-.31-.35-.46-.02.01-.05.02-.07.05Zm.15,5.24c-.09.59-.27,1.16-.43,1.8.35-.22.32-.22.38-.48.06-.35.15-.69.25-1.03.1-.31.23-.59.34-.88.13-.33.03-.66-.1-.96-.04-.09-.13-.16-.2-.24-.02.01-.06.02-.08.04-.05.59-.06,1.18-.15,1.76Zm-.53-5.5c.1.78.54,1.31,1.02,1.25,0-.02.01-.05.01-.07-.01-.03-.04-.08-.06-.1-.38-.21-.67-.51-.76-.95,0-.05-.12-.08-.21-.12Zm-.54.5c0,.64.53,1.31,1.06,1.31-.57-.24-.7-.85-1.06-1.31Zm.09-.48c.08.86.67,1.55,1.49,1.77.1-.18.02-.22-.1-.29-.19-.1-.38-.2-.53-.34-.33-.28-.47-.69-.57-1.11-.01-.03-.04-.06-.06-.1-.08.03-.15.05-.22.08Zm-1.99,5.72c-.08.26-.13.49-.19.73.33.11.47.07.55-.15.1-.26-.02-.47-.35-.58Zm-.16,2.61c-.34-.02-.67-.04-.99-.06.11.23.26.32.59.3.15-.02.36.02.4-.24Zm-.96-.56c-.07.04-.11.14-.2.29.29.03.49.06.69.08.21,0,.42,0,.67-.01-.04-.09-.04-.21-.1-.23-.33-.17-.68-.28-1.05-.12Zm-.05-2.14c-.35.22-.41.31-.35.5.06.21.2.28.41.26-.02-.25-.03-.48-.06-.76Zm-1.11,4.68l.08,1.47c.02.29.19.49.46.54.5.09,1.02.27,1.55.02.12-.06.28-.05.42-.06.5-.02.99-.55.96-1.04,0-.21-.02-.41-.04-.62-.02-.34-.03-.67-.05-1.07-.11.1-.2.13-.22.19-.04.14-.08.28-.1.43-.04.29-.19.52-.38.72-.24.25-.56.36-.97.35-.42-.04-.61-.08-.82-.3-.28-.29-.47-.61-.59-.98-.05-.15-.1-.28-.33-.27,0,.22.02.42.04.61Zm-.11-10.74c-.19-.02-.34.08-.45.28.76.15,1.4-.07,2.05-.47-.08,0-.13-.02-.16,0-.46.12-.93.23-1.43.2Zm-.14,11.8c-.36.81-.11,1.28.46,1.6.12.06.25.11.37.16,1.06.39,2.05.36,2.9-.5.31-.31.37-.65.19-1.08-.06.08-.09.14-.11.2-.16.38-.45.59-.82.74-.76.32-1.53.21-2.29,0-.33-.09-.5-.32-.59-.63-.03-.14-.05-.28-.09-.5Zm-.42.13c-.16.62-.11,1.23.16,1.82.2.43.48.73.96.82.18.03.34.11.49.16.05,1.16.09,2.27.13,3.37,0,.15.06.29.09.43.28,0,.5-.02.74-.03.02-.07.04-.12.04-.16.04-.9.17-1.8.01-2.7-.04-.26-.08-.59.04-.77s.45-.23.71-.27c.47-.08.81-.31,1.1-.66.44-.57.7-1.2.53-1.93-.08-.34-.22-.4-.58-.33.05.12.11.22.15.32.11.36.13.73-.11,1.03-.57.69-1.31,1.05-2.2.97-.53-.05-1.04-.18-1.52-.45-.51-.28-.74-.73-.67-1.31.03-.25.07-.47.23-.67.02-.04,0-.11.02-.15-.04-.01-.06-.02-.08-.02-.09.17-.2.33-.25.51Zm-.43-11.27c.39.25.77.26,1.15.17.29-.08.58-.18.87-.26.35-.11.71-.19,1.06-.33.22-.09.41-.27.69-.45-.33-.13-.51-.15-.71.03-.41.34-.92.52-1.43.65-.29.08-.61.04-.9.04-.18,0-.34-.02-.51,0-.06,0-.13.08-.21.14Zm-.17.17c-.09.1-.14.17,0,.23.15.08.3.18.46.22.22.07.47.15.69.11.63-.1,1.26-.24,1.87-.4.5-.13.88-.48,1.21-.87.09-.11.16-.24.03-.37-.58.5-.7.63-1.5.89-.24.08-.49.12-.73.2-.68.23-1.36.36-2.02-.01Zm-.25.4s-.03.08-.04.12c.6.5,1.28.75,2.07.66.71-.09,1.35-.42,2.01-.65.44-.17.8-.46,1-.92.12-.29.11-.34-.22-.46-.39.65-.97,1.09-1.69,1.29-.48.14-.95.22-1.43.32-.4.1-.76.05-1.11-.13-.19-.09-.39-.14-.58-.22Zm-.13,4.62c.03.34.04.67.03.99-.03,1.16.5,2.03,1.34,2.78.11.09.25.17.43.31-.06-.63-.12-1.17.14-1.67-.65-.3-1.05-.76-1.14-1.47.27.09.52.21.76.33.37.19.7.15,1.05-.07-.5-.46-.35-.96.19-1.14-.02-.43-.04-.89-.06-1.33-.03-.51-.37-.87-.88-1.01-.52-.13-.99-.02-1.42.27-.04-.03-.06-.06-.06-.08-.01-.03-.01-.07-.01-.1.45-.23.88-.43,1.41-.29.66.16,1.02.52,1.1,1.18.01.09.02.19.02.28.02.54.05,1.09.06,1.62,0,.22.04.42.23.56.42-.2.57-.53.56-.96,0-.57.02-1.15.07-1.71.03-.28.16-.55.43-.69.45-.21.94-.14,1.41-.08.13.02.34.11.3.41-.36-.38-.79-.3-1.19-.3-.44,0-.75.26-.79.65-.07.54-.08,1.09-.1,1.63.37.13.61.31.58.7-.03.32-.15.41-.62.52.28.15.53.18.81.03.37-.18.74-.36,1.11-.53.03-.01.07.01.16.03-.04.14-.04.29-.11.41-.3.49-.61.98-1.15,1.15.09.5.18.95.28,1.44.05-.04.09-.06.13-.1.5-.58.94-1.22,1.17-1.97.19-.61.33-1.23.45-1.86.07-.38.06-.76.08-1.15.02-.49.04-.98.06-1.47,0-.27-.01-.51-.3-.67-.18-.11-.34-.26-.48-.42-.18-.21-.33-.44-.51-.69-.33.46-.82.66-1.31.85-.24.09-.5.19-.73.31-.89.46-1.79.54-2.72.18-.18-.08-.37-.13-.54-.2-.02.06-.06.09-.06.13-.04.33-.07.64-.1.97-.08.74-.12,1.49-.07,2.23Zm-.23-2.1c-.13.05-.28.08-.39.16-.09.07-.19.19-.22.31-.05.4-.09.82.07,1.21.12.28.16.57.15.88-.02.33.08.62.43.83-.01-1.16-.03-2.27-.04-3.4Zm-5.81,16.73c.61.23,1.21.16,1.83.2.03-.57.07-1.1.09-1.63,0-.26-.08-.35-.36-.39-.48-.06-.96,0-1.45.08-.03.59-.07,1.14-.11,1.73Zm.37-4.93c-.17.93-.22,1.87-.3,2.81-.01.05.03.09.04.14.63,0,1.26-.16,1.93.1.04-.25.08-.43.1-.62.06-.62.27-1.2.53-1.74.06-.11.15-.19.24-.25.29-.21.69-.02.85.34.11.24.19.53.19.8.02.53-.01,1.06-.03,1.59-.04.8-.09,1.59-.13,2.4,0,.15.02.33.02.46.07.03.09.03.09.03,1.18-.17,2.34-.24,3.53-.1.29.04.6.06.9.05.79-.02,1.59-.06,2.38-.09.97-.03,1.93-.07,2.9-.11.04,0,.07-.02.14-.05,0-.12,0-.25,0-.37-.04-1.13-.2-2.25-.13-3.39.02-.47.06-.95.16-1.42.06-.32.22-.62.39-.9.23-.36.59-.34.81.02.12.2.21.43.29.65.06.16.08.34.13.5.15.5.28.99.27,1.53,0,.13.03.27.04.37.63-.06,1.22-.11,1.85-.16-.02-.55-.01-1.1-.07-1.65-.08-.78-.19-1.56-.32-2.33-.09-.55-.35-1.03-.73-1.43-.49-.5-1.04-.88-1.77-.86-.06,0-.11-.02-.16-.03-.61-.16-1.24-.23-1.89-.24-.14,0-.28,0-.43.02,0,.09,0,.15.02.2.17.62.06,1.21-.22,1.77-.3.61-.74,1.1-1.47,1.21-.23.04-.45.15-.68.24.04.65.12,1.27.11,1.89,0,.61-.1,1.23-.16,1.84-.25-.02-.46-.05-.67-.03-.47.02-.49.01-.54-.43-.01-.09-.03-.19-.03-.28-.06-1.03-.1-2.05-.16-3.11-.18-.05-.34-.1-.49-.16-.28-.11-.57-.26-.71-.55-.39-.81-.7-1.63-.34-2.55.01-.04,0-.09,0-.15-1.4.11-2.78.2-4.09.7-.66.25-1.18.62-1.57,1.22-.43.65-.68,1.38-.82,2.13Zm-.67,2.88c.05-.38.16-.75.22-1.13.05-.36.11-.74.13-1.11.05-.9.37-1.73.76-2.53.4-.8,1.02-1.37,1.93-1.68.73-.25,1.48-.42,2.22-.58.16-.03.31-.05.48-.06.5-.03,1-.06,1.51-.08.25-.02.36-.1.4-.36.04-.28.06-.57.06-.87.01-.06-.06-.14-.11-.2-.34-.38-.66-.76-1-1.13-.23-.28-.29-.62-.34-.96-.02-.21-.09-.37-.27-.51-.29-.23-.42-.55-.39-.91.03-.28-.02-.55-.11-.82-.15-.41-.18-.83-.14-1.26.03-.29.16-.47.44-.55.13-.03.24-.08.38-.13.08-.54.32-1.07.02-1.6.23.17.41.38.64.49.72.36,1.47.47,2.24.18.72-.27,1.44-.55,2.13-.88.4-.2.7-.55.76-1.09-.09.06-.15.1-.18.13-.25.26-.53.43-.86.56-.35.12-.68.27-1.02.43-.59.27-1.18.52-1.86.43-.42-.05-.83-.1-1.2-.32-.19-.12-.37-.26-.56-.38-.22.12-.13.28-.08.45h-.01c-.21-.11-.23-.28-.14-.49.17-.37.39-.69.72-.93.38-.27.75-.54,1.14-.8.18-.12.4-.2.61-.26.62-.15,1.24-.13,1.86-.03.42.07.84.11,1.2.38.17.14.31.29.49.43.16-.09.4-.1.61-.04s.46.14.6.29c.37.39.64.84.69,1.4.05.48-.01.58-.44.78-.05.02-.09.04-.16.06,0,.25-.02.5,0,.75,0,.14.02.29.18.37.47.26.52.71.49,1.18,0,.25-.07.5-.17.73-.21.48-.36.97-.43,1.48-.02.22-.12.39-.32.47-.31.14-.48.38-.64.67-.23.39-.49.76-.71,1.15-.08.13-.16.28-.15.44,0,.42.04.84.06,1.27.28.12.58.12.86.1.75-.05,1.46.04,2.18.21.43.1.88.18,1.32.27.13.03.26.1.35.18.64.57,1.15,1.23,1.32,2.07.12.59.21,1.18.26,1.77.09,1.24.12,2.46.19,3.7.02.28.04.58.02.86,0,.14-.08.28-.14.49.28.89.2,1.29-.35,1.7-.26,0-.32-.25-.48-.39-.16.17-.17.45-.46.52-.27.06-.3.08-.57-.3-.08.03-.16.05-.26.09-.24.09-.41.03-.5-.21-.16-.51-.24-1.02-.01-1.54.13-.28.2-.57.19-.88,0-.47.05-.94.11-1.39.08-.61.02-1.19-.12-1.77-.1-.37-.22-.74-.33-1.1-.06-.17-.14-.38-.35-.4s-.32.17-.39.34c-.11.26-.23.52-.25.79-.07.71-.12,1.44-.1,2.15,0,.88.07,1.75.1,2.62.01.13,0,.37,0,.53-.14,0-1.14.17-2.37.13-.81.02-1.19.03-2,.09-1.08-.02-2.22-.14-3.03-.13-.92.02-2.57.03-2.64.04-.34,0-.4-.06-.38-.39.08-1.35.15-2.68.25-4.03.03-.35-.1-.65-.2-.97-.06-.17-.21-.31-.39-.27-.13.01-.28.12-.32.24-.22.48-.49.95-.5,1.5,0,.08,0,.16-.03.23-.27.84-.23,1.71-.27,2.57,0,.09.03.17.06.26.11.35.21.7.14,1.06-.03.18-.07.41-.29.47-.26.08-.5.07-.69-.16-.02-.03-.05-.06-.07-.09-.13.08-.25.22-.39.24-.12.01-.26-.09-.39-.14-.35.19-.68.09-.81-.33-.14-.39-.2-.79.07-1.18.1-.13.11-.36.08-.53-.1-.62-.16-1.25-.08-1.87Zm.58,2.44c-.23-.04-.35.07-.44.24-.19.38-.06.83.36,1.1.08-.25.15-.47.23-.71.05,0,.08,0,.12,0,.03.17.03.34.07.51.01.06.09.16.12.16.08,0,.2-.04.23-.1.04-.12.05-.26.07-.39s.08-.19.24-.15c.05.16.08.35.14.51.1.29.36.32.55.09.14-.18.14-.38.09-.57-.05-.21-.15-.41-.24-.6-.16-.03-.32-.07-.46-.06-.37.06-.74,0-1.1-.06Z"/>
      </g>
      <path class="cls-8" d="m56.65,65.95c-.67-.25-1.29-.09-1.93-.1-.02-.05-.05-.09-.04-.14.09-.94.14-1.88.31-2.81.14-.75.38-1.48.82-2.14.39-.59.91-.96,1.57-1.21,1.31-.5,2.68-.58,4.08-.7,0,.07.01.12,0,.16-.37.91-.06,1.74.34,2.55.14.29.42.43.71.55.16.06.32.11.5.17.05,1.04.1,2.07.16,3.1,0,.09.02.18.03.28.05.45.08.46.54.43.21-.01.42.02.67.04.06-.62.15-1.23.16-1.84,0-.62-.07-1.24-.12-1.89.24-.09.46-.21.69-.24.74-.12,1.17-.6,1.47-1.21.28-.56.38-1.15.22-1.77-.01-.05-.01-.1-.02-.2.16,0,.3-.03.44-.03.64.01,1.27.08,1.89.24.05.01.1.03.16.03.74-.01,1.29.36,1.77.86.38.4.65.89.74,1.43.13.77.24,1.55.32,2.33.06.55.05,1.1.07,1.65-.63.06-1.22.11-1.86.16-.01-.1-.05-.24-.04-.38.02-.53-.12-1.02-.27-1.52-.05-.16-.07-.34-.13-.5-.08-.22-.17-.45-.29-.65-.22-.35-.58-.37-.8-.02-.17.28-.33.59-.39.9-.1.46-.13.94-.16,1.42-.07,1.13.1,2.25.13,3.38,0,.13,0,.26,0,.38-.07.03-.11.05-.14.05-.96.04-1.93.07-2.89.11-.8.03-1.59.07-2.39.09-.3,0-.61-.01-.91-.05-1.18-.14-2.35-.07-3.52.1-.01,0-.02,0-.1-.03,0-.14-.04-.3-.03-.47.04-.8.1-1.59.14-2.39.03-.53.05-1.06.03-1.59-.01-.27-.09-.55-.2-.8-.15-.36-.56-.54-.85-.34-.09.07-.19.15-.24.25-.27.55-.48,1.12-.53,1.74-.02.19-.07.39-.11.63Z"/>
      <path class="cls-14" d="m63.44,53.26c-.53.17-.68.69-.18,1.14-.35.22-.68.26-1.05.07-.24-.13-.49-.24-.76-.33.1.7.49,1.16,1.14,1.47-.25.51-.2,1.05-.13,1.67-.19-.13-.32-.21-.44-.31-.84-.73-1.36-1.61-1.34-2.77,0-.33,0-.66-.03-.99-.08-1.08.04-2.14.16-3.21,0-.04.03-.07.06-.12.18.06.36.12.54.19.93.37,1.84.29,2.72-.18.23-.12.49-.21.73-.31.5-.19.99-.38,1.31-.84.18.25.32.48.5.69.14.16.3.31.48.41.28.16.31.4.29.68-.02.49-.04.98-.06,1.48-.02.38,0,.77-.08,1.14-.12.62-.27,1.25-.45,1.85-.23.75-.67,1.38-1.17,1.97-.03.04-.08.06-.13.09-.09-.48-.18-.94-.28-1.43.55-.17.86-.66,1.16-1.15.07-.11.07-.27.1-.41-.08-.01-.13-.04-.16-.03-.37.17-.75.34-1.11.53-.28.14-.53.11-.81-.04.46-.1.59-.2.62-.51.04-.39-.21-.58-.58-.7.03-.54.04-1.09.1-1.62.04-.39.35-.65.79-.65.4,0,.83-.08,1.19.3.04-.3-.17-.39-.3-.41-.47-.06-.95-.13-1.4.08-.27.13-.41.4-.43.68-.05.57-.08,1.14-.07,1.71,0,.44-.15.77-.57.96-.19-.13-.23-.33-.23-.55-.02-.54-.04-1.09-.06-1.63,0-.09-.01-.18-.02-.28-.08-.66-.44-1.02-1.09-1.18-.53-.14-.96.06-1.41.29,0,.03,0,.07,0,.1,0,.02.03.04.06.08.44-.29.91-.39,1.43-.26.51.13.83.49.87,1,.03.45.05.9.07,1.33Zm-1.44-2.01c-.44-.02-.93.37-1.01.81,0,.05-.01.12.01.15.13.16.24.36.41.47.22.14.48.21.73.28.51.14,1.01-.37.88-.88-.09-.36-.66-.82-1.03-.84Zm3.78,1.87c.24.01.37-.05.75-.23.59-.28.5-.86.16-1.17-.2-.18-.46-.31-.7-.44-.18-.09-.36-.07-.5.11-.13.16-.29.31-.39.49-.28.48.13,1.21.69,1.24Z"/>
      <path class="cls-8" d="m64.21,65.86c-.23,0-.45.02-.73.03-.03-.14-.09-.28-.1-.43-.05-1.11-.08-2.22-.13-3.37-.16-.06-.33-.14-.5-.17-.48-.09-.76-.39-.96-.81-.27-.59-.32-1.2-.16-1.82.05-.18.16-.34.24-.51.03,0,.05.02.08.03,0,.05,0,.12-.02.15-.16.2-.2.43-.23.67-.07.58.17,1.02.68,1.31.47.27.99.4,1.52.45.89.07,1.63-.29,2.19-.98.25-.3.23-.67.11-1.03-.04-.11-.1-.21-.15-.32.35-.08.49-.01.57.32.17.73-.08,1.36-.53,1.92-.28.35-.63.58-1.09.66-.25.04-.58.1-.71.27-.13.18-.08.51-.04.77.15.9.03,1.8-.01,2.7,0,.05-.03.1-.04.17Zm-.23-1.34c.07-.38.07-.39-.21-.57-.28.4-.24.5.21.57Zm.03-1.22c.12-.44.03-.56-.41-.57-.17.41-.13.47.41.57Zm-.24,1.81c-.14.13-.23.28-.12.4.12.14.25.04.37-.06-.04-.08-.07-.16-.11-.22-.03-.04-.07-.07-.14-.12Z"/>
      <path class="cls-8" d="m72.16,67.98c-.64-.11-1.33.06-2.02-.2-.01-.2-.04-.39-.03-.58.02-.32.06-.63.11-.95.04-.25.18-.42.43-.45.41-.04.82-.07,1.23-.07.26,0,.34.08.35.33.02.59.02,1.19.02,1.78,0,.02-.03.04-.09.13Zm-1.13-.78c.02-.15-.14-.4-.24-.35-.12.05-.27.17-.27.27,0,.11.11.25.22.33.09.06.28-.11.29-.25Z"/>
      <path class="cls-8" d="m54.62,67.84l.1-1.74c.49-.09.97-.14,1.46-.08.27.04.36.13.35.39-.02.53-.06,1.05-.09,1.62-.62-.04-1.21.03-1.82-.2Zm1.06-.24c.33.07.51,0,.51-.15,0-.15-.1-.25-.24-.27-.15-.02-.24.12-.26.42Z"/>
      <path class="cls-14" d="m71.98,69.84c-.2-.05-.29-.2-.36-.36-.06-.14-.11-.29-.16-.44-.26.05-.21.23-.21.38,0,.26-.08.46-.35.53-.18-.14-.16-.31-.15-.49,0-.15,0-.3.01-.5-.21.1-.21.23-.24.35-.05.25-.2.4-.46.41-.33-.46-.33-1.11-.03-1.6.66.05,1.29.09,1.93.15.08,0,.2.09.23.17.17.44.28.97-.21,1.41Z"/>
      <path class="cls-9" d="m60.51,49.32c-.05-.16-.14-.33.08-.45.18.13.36.26.55.38.37.23.78.28,1.2.33.68.08,1.27-.16,1.86-.44.33-.16.67-.3,1.02-.43.33-.12.62-.3.86-.55.04-.04.1-.08.18-.14-.05.54-.35.89-.76,1.09-.69.34-1.41.61-2.13.88-.76.29-1.52.17-2.23-.18-.24-.12-.44-.34-.66-.51,0,0,.01.01.01.01Z"/>
      <path class="cls-8" d="m62.06,59.16c.04.22.06.36.09.5.08.31.25.54.58.63.77.21,1.52.31,2.29,0,.37-.15.67-.37.83-.75.02-.06.06-.11.1-.2.19.43.13.76-.18,1.08-.85.87-1.84.89-2.9.5-.12-.05-.25-.1-.36-.16-.57-.32-.82-.78-.46-1.6Z"/>
      <path class="cls-14" d="m55.05,68.86c-.08.23-.16.47-.24.71-.42-.28-.55-.72-.35-1.11.09-.17.2-.28.44-.24.36.07.73.11,1.1.06.14-.02.29.03.46.05.08.2.17.4.23.61.05.19.05.39-.09.57-.19.23-.44.2-.55-.09-.06-.17-.1-.35-.14-.51-.17-.04-.23.01-.25.14-.02.13-.02.27-.08.38-.03.06-.15.11-.22.11-.04,0-.11-.1-.13-.17-.03-.16-.04-.34-.06-.5-.04,0-.08-.01-.12-.02Z"/>
      <path class="cls-9" d="m60.79,48.58c.19.07.39.14.58.22.36.18.73.22,1.12.13.47-.11.96-.19,1.43-.32.73-.2,1.3-.64,1.7-1.29.32.12.34.17.21.46-.2.46-.55.75-1,.92-.66.24-1.29.57-2,.65-.79.1-1.48-.15-2.07-.65.01-.04.03-.08.04-.12Z"/>
      <path class="cls-14" d="m60.47,54.5c-.35-.21-.45-.51-.43-.83.02-.31-.02-.61-.15-.89-.17-.4-.13-.81-.07-1.22.01-.11.12-.24.22-.31.11-.08.26-.11.39-.16.01,1.13.03,2.24.04,3.39Z"/>
      <path class="cls-9" d="m61.04,48.18c.66.38,1.34.25,2.02.02.24-.08.49-.12.73-.2.8-.26.92-.38,1.5-.89.13.14.07.27-.02.38-.33.39-.71.73-1.21.87-.61.16-1.24.3-1.87.41-.22.04-.47-.05-.69-.12-.16-.05-.31-.15-.46-.23-.13-.07-.09-.14,0-.24Z"/>
      <path class="cls-14" d="m67.12,55.07c.15-.64.33-1.21.42-1.79.09-.58.1-1.17.15-1.76.03-.01.05-.03.08-.04.07.08.17.14.21.24.13.31.23.62.1.96-.11.29-.25.58-.34.88-.1.34-.19.68-.25,1.03-.05.26-.03.27-.37.48Z"/>
      <path class="cls-9" d="m64.98,47.14c-.28.19-.47.36-.69.45-.34.14-.7.22-1.06.32-.29.09-.58.19-.87.27-.38.1-.76.07-1.15-.17.09-.07.15-.15.21-.15.17-.01.34.01.51,0,.3,0,.62.03.9-.04.51-.13,1.02-.31,1.43-.66.21-.17.39-.16.71-.03Z"/>
      <path class="cls-9" d="m68.06,49.56c-.82-.21-1.41-.91-1.49-1.76.07-.03.14-.05.22-.08.02.05.05.08.06.11.11.42.25.82.58,1.11.16.14.34.24.53.34.12.06.21.12.1.29Z"/>
      <path class="cls-9" d="m63.79,47.17c-.65.41-1.29.62-2.05.47.11-.2.26-.29.45-.28.5.04.96-.08,1.44-.2.03,0,.07,0,.16,0Z"/>
      <path class="cls-9" d="m64.61,55.91c-.25,0-.46.02-.66,0-.2-.01-.41-.04-.7-.08.1-.14.13-.24.2-.28.37-.16.72-.05,1.06.11.05.03.06.14.1.23Z"/>
      <path class="cls-9" d="m68.04,49.02c-.48.05-.92-.47-1.03-1.26.09.05.21.08.22.12.09.45.37.74.75.96.03.02.05.06.06.1,0,.02,0,.05,0,.08Z"/>
      <path class="cls-14" d="m64.58,53.52c.33.11.45.31.36.57-.08.22-.21.26-.55.15.06-.23.12-.47.19-.73Z"/>
      <path class="cls-9" d="m66.48,48.27c.36.46.49,1.06,1.05,1.31-.52,0-1.06-.67-1.05-1.31Z"/>
      <path class="cls-14" d="m63.41,53.43c.02.28.04.51.06.76-.21.01-.35-.06-.41-.26-.06-.19,0-.28.36-.5Z"/>
      <path class="cls-9" d="m64.41,56.12c-.04.26-.24.23-.4.24-.33.02-.48-.07-.6-.3l1,.06Z"/>
      <path class="cls-9" d="m67.47,47.97l.34.46s-.05.04-.08.06l-.33-.47s.04-.03.07-.05Z"/>
      <path class="cls-7" d="m62,51.25c.37.02.93.48,1.03.84.14.51-.37,1.02-.88.88-.25-.07-.51-.15-.73-.28-.17-.1-.28-.3-.41-.47-.03-.03-.02-.1-.01-.15.07-.44.57-.83,1.01-.81Zm-.53,1.26c.2.19.44.27.7.3.34.04.42,0,.62-.35-.44.12-.87.24-1.32.04Zm1.38-.3c-.14-.14-.24-.24-.37-.37-.06.23-.1.4-.16.62.19-.09.33-.16.53-.25Zm-1.34-.39c-.34.26-.34.3-.05.43.01-.13.03-.25.05-.43Zm.14.25c.12-.14.21-.24.34-.38-.27.03-.31.16-.34.38Zm.14-.63c.12.03.24.11.35.07,0-.03,0-.07,0-.1-.11.01-.23.02-.34.04Zm.35.66q.1-.11-.02-.27c0,.11.01.18.02.27Z"/>
      <path class="cls-7" d="m65.78,53.12c-.56-.03-.97-.75-.69-1.24.1-.18.26-.33.39-.49.14-.17.33-.2.5-.11.25.12.5.26.7.44.34.31.44.89-.16,1.17-.38.18-.51.24-.75.23Zm.29-.72s.06-.05.1-.08c.14-.14.13-.28,0-.4-.13-.11-.29-.04-.4.03-.13.09-.17.25-.09.39.1.17.24.18.4.06Zm-.75.24c.21.36.7.4,1.06.06l-1.06-.06Zm1.09-.72c-.06.24-.1.44-.15.64.21-.02.43-.05.48-.27.04-.21-.18-.25-.33-.37Zm-.88-.08c-.21.11-.4.17-.37.4.03.17.15.23.33.22l.04-.62Zm.66-.18c-.22-.29-.38-.3-.71-.04l.71.04Z"/>
      <path class="cls-7" d="m63.98,64.52c-.45-.08-.49-.18-.21-.57.28.18.29.2.21.57Z"/>
      <path class="cls-7" d="m64.02,63.3c-.53-.1-.58-.16-.41-.57.44,0,.53.13.41.57Zm-.32-.43q-.03.24.22.27c.06-.2-.07-.24-.22-.27Z"/>
      <path class="cls-7" d="m63.78,65.11c.06.05.11.08.14.12.04.06.07.14.11.22-.12.11-.25.2-.37.06-.11-.12-.02-.27.12-.4Z"/>
      <path class="cls-7" d="m71.03,67.2c-.02.14-.21.31-.29.25-.1-.08-.23-.22-.22-.33,0-.1.16-.22.27-.27.1-.04.25.21.24.35Z"/>
      <path class="cls-7" d="m55.69,67.6c.02-.3.11-.45.26-.42.15.02.24.12.24.27,0,.16-.17.22-.51.15Z"/>
      <path class="cls-14" d="m61.47,52.51c.45.2.88.07,1.32-.04-.2.35-.28.39-.62.35-.26-.03-.5-.11-.7-.3Z"/>
      <path class="cls-14" d="m62.85,52.21c-.2.1-.34.16-.53.25.06-.23.1-.39.16-.62.13.13.24.23.37.37Z"/>
      <path class="cls-14" d="m61.51,51.82c-.02.18-.03.3-.05.43-.29-.13-.29-.17.05-.43Z"/>
      <path class="cls-14" d="m61.65,52.07c.03-.22.07-.35.34-.38-.13.14-.21.24-.34.38Z"/>
      <path class="cls-14" d="m61.79,51.44c.11-.01.23-.02.34-.04,0,.03,0,.07,0,.1-.11.04-.23-.03-.35-.07Z"/>
      <path class="cls-14" d="m62.14,52.1c0-.08-.01-.16-.02-.27q.12.16.02.27Z"/>
      <path class="cls-14" d="m65.33,52.64l1.06.06c-.36.34-.85.3-1.06-.06Z"/>
      <path class="cls-14" d="m66.42,51.92c.15.12.38.16.33.37-.05.23-.27.25-.48.27.05-.21.09-.4.15-.64Z"/>
      <path class="cls-14" d="m65.54,51.84l-.04.62c-.17,0-.3-.05-.33-.22-.04-.24.15-.3.37-.4Z"/>
      <path class="cls-14" d="m66.08,52.4c-.16.12-.3.1-.4-.06-.08-.14-.05-.3.09-.39.11-.08.27-.15.4-.03.14.12.15.27,0,.4-.03-.08-.03-.19-.09-.24-.05-.05-.18-.08-.23-.05-.1.07-.14.2-.03.3.06.05.16.05.25.08Z"/>
      <path class="cls-14" d="m66.2,51.66l-.71-.04c.33-.26.49-.24.71.04Z"/>
      <path class="cls-7" d="m66.08,52.4c-.08-.02-.19-.02-.25-.08-.11-.1-.07-.23.03-.3.05-.03.18,0,.23.05.05.06.06.16.09.24-.03.03-.06.05-.1.08Z"/>
      <path class="cls-8" d="m63.69,62.86c.15.03.28.07.22.27q-.25-.03-.22-.27Z"/>
    </g>
    <path class="cls-7" d="m115.31,26.48c-.21.25-.29.54-.28.86.29-.23.58-.46.94-.73.09.66-.35,1.08-.44,1.65.39-.36.69-.78,1.18-.98.14.03.11.17.09.27-.2.71-.39,1.43-.97,1.95-.18.16-.33.37-.5.56-.48.54-1.07.91-1.8,1.01-.55.08-1.1.18-1.65.28-.32.06-.62.15-.75.51.18.03.35.06.51.09.34.07.45.35.23.62-.08.1-.19.19-.32.31.27.03.51.08.74.08.18,0,.24.04.28.21.07.32.02.46-.26.64-.08.05-.17.09-.31.17.28.05.52-.05.72.14-.1.46-.55.39-.88.57.22.12.42.22.6.33.13.08.3.15.3.33,0,.21-.17.32-.34.38-.14.05-.28.09-.43.11-.74.11-1.47.05-2.16-.27-.37-.17-.73-.36-1.08-.57-.26-.16-.45-.4-.55-.71-.2-.62-.54-1.2-.69-1.85-.07-.3-.18-.59-.23-.89-.06-.34-.3-.43-.57-.49-.48-.1-.97-.14-1.43-.28-.45-.14-.82-.42-1.04-.86-.02-.04-.04-.08-.07-.14-.11.02-.23.04-.39.07.55.37,1.01.77,1.11,1.47-.07-.03-.11-.04-.11-.06-.17-.61-.63-.98-1.13-1.31-.21-.14-.41-.31-.7-.28-.13.01-.26-.08-.45-.14.14-.15.24-.25.36-.38-.1-.12-.19-.24-.29-.36-.02-.03-.05-.05-.08-.06-.09-.03-.63.15-.67.25-.16.36-.44.4-.8.41-.45,0-.72-.22-.99-.5.06-.48.45-.63.81-.76.22-.08.41.09.58.22.14.11.24.27.35.4.21-.06.37-.11.54-.16-.26-.54-.52-1.05-.77-1.57-.15.01-.31.02-.46.04-.26.03-.51.08-.62.38-.06.17-.23.23-.41.27-.46.11-.89-.05-1.28-.25-.28-.15-.43-.48-.46-.8-.03-.41.35-.61.84-.45-.26.09-.59.02-.65.37.33.31,1.31.53,1.87.42.05-.18-.1-.23-.2-.31-.09-.07-.2-.12-.27-.21.37-.03.56.19.71.49.28-.04.54-.08.85-.13-.02-.1-.03-.21-.06-.31-.09-.32-.17-.64-.29-.94-.06-.15-.19-.27-.28-.38-.06,0-.09,0-.11.01-.42.34-.65.34-1.04-.01-.14-.13-.29-.25-.41-.4-.15-.19-.11-.32.1-.44.09-.05.19-.07.29-.09.37-.07.69,0,.93.31.13.16.26.32.41.51.01-.07.03-.11.02-.14-.01-.37-.02-.75-.04-1.12,0-.11-.04-.22-.07-.33-.04-.12-.09-.23-.14-.35-.17-.46-.05-.97.3-1.29.18-.17.5-.08.58.18.08.26.14.54.02.8-.1.22-.2.44-.33.63-.12.18-.21.35-.21.56,0,.29,0,.58,0,.87.02,0,.04,0,.07.01.03-.09.07-.18.1-.27.16-.52.47-.92.9-1.24.19-.14.37-.14.53-.02.13.1.19.34.09.53-.24.45-.55.83-1.1.93-.36.06-.53.31-.45.66.11.44.26.86.39,1.29.18-.01.24-.07.23-.21-.07-.69.41-1.06.87-1.4.31-.23.7-.13,1.05-.04.06.01.11.12.13.19.05.19.05.38-.03.57-.19.4-.47.72-.84.96-.26.16-.54.14-.83.09-.07-.01-.13-.04-.2-.05-.23-.04-.31.07-.24.29.24.73.7,1.32,1.2,1.83.42-.07.8-.12,1.22-.19.08-.11.19-.28.31-.43.14-.17.3-.28.53-.35.52-.16,1.02-.14,1.52.07.26.11.53.18.79.27.25-.22.31-.5.33-.78.02-.27.02-.55-.03-.82-.08-.46-.16-.93-.34-1.35-.26-.64-.13-1.22.14-1.8.25-.54.59-1.02,1.14-1.27.6-.27,1.21-.57,1.91-.53.03,0,.08-.01.1,0,.1.05.24.09.27.18.03.07-.04.22-.11.29-.31.32-.64.61-.95.92-.03.03-.05.09-.11.2.58-.29,1.15-.32,1.76-.37-.08.56-.51.88-.78,1.32.34-.02.66-.04,1.03-.06.03.55-.45.8-.67,1.24.55-.17,1.06-.25,1.6-.03-.05.34-.28.58-.52.8-.16.14-.34.26-.53.38-.36.23-.53.57-.57.99-.04.47.23,1.05.65,1.22.24.1.53.09.8.11.19.02.31-.13.44-.24.53-.42.94-.94,1.26-1.54.18-.35.39-.69.76-.9.05-.03.1-.04.18-.08.04.1.07.19.11.27.05-.01.11-.03.16-.04h0Zm.47.5c-.29.18-.48.36-.62.58-.14.23-.26.48-.41.71-.09.15-.14.34-.37.4-.03-.29.17-.47.24-.7.07-.23.17-.45.22-.67.06-.24.08-.48.13-.77-.09.04-.13.05-.16.08-.22.16-.35.38-.47.61-.34.64-.77,1.2-1.32,1.68-.25.22-.51.34-.83.31-.22-.02-.45-.05-.67-.12-.24-.08-.5-.17-.56-.48-.04-.23-.13-.46-.15-.7-.05-.56.1-1.03.6-1.36.2-.13.4-.27.58-.42.15-.13.26-.29.42-.47-.68-.2-1.25.02-1.86.26.09-.33.31-.48.44-.7.14-.21.39-.34.45-.64-.4,0-.77-.01-1.1.2-.09.06-.22.06-.33.09-.02-.03-.03-.05-.05-.08.23-.23.47-.44.68-.69.21-.25.43-.5.56-.83-.39.03-.77.06-1.12.17-.34.11-.66.3-1,.46,0-.05,0-.08,0-.09.31-.52.72-.95,1.19-1.34.11-.09.2-.2.29-.3-.01-.02-.02-.05-.03-.07-.12,0-.24-.04-.36-.02-.67.11-1.27.39-1.83.78-.37.26-.6.62-.75,1.03-.16.42-.27.86-.09,1.33.19.5.31,1.02.45,1.53.16.57.06,1.11-.25,1.6-.21.35-.64.47-.98.23-.43-.3-.88-.35-1.38-.32-.39.03-.63.24-.79.56-.07.15-.14.33-.13.49,0,.27.01.55.23.76.32.29.65.55,1.1.6.3.03.6.09.91.13.55.07.72.21.87.74.24.8.45,1.62.78,2.39.21.5.54.87,1.02,1.13.84.47,1.75.61,2.69.51.1-.01.21-.05.37-.09-.36-.43-.8-.62-1.25-.83.07-.11.16-.12.29-.11.39.03.75-.05,1.08-.31-.33-.11-.69-.02-1.03-.2.31-.28.8-.2,1.02-.63-.57-.24-1.16-.31-1.73-.35-.07-.19.02-.25.14-.27.08-.02.16,0,.24-.01.26-.06.54-.08.66-.4-.26-.19-.55-.22-.86-.22,0-.09-.03-.17-.01-.25.07-.33.43-.64.77-.68.14-.01.27-.03.4-.05.49-.09.98-.19,1.47-.27.49-.08.91-.28,1.26-.62.38-.37.73-.78,1.1-1.16.29-.3.41-.67.52-1.06.04-.13.08-.27.12-.4-.63.36-1.07.9-1.61,1.36.27-.65.59-1.26.8-2.02Zm-13.64-.23c.79.18,1.65-.5,1.65-1.26-.1-.06-.21-.12-.34-.2-.51.42-1.15.7-1.31,1.46Zm-1.79.49c-.61-.11-1.2-.21-1.83-.32.09.13.15.29.26.34.38.18.79.35,1.23.28.17-.03.31-.11.35-.3Zm.41,1.01c-.17.12-.33.24-.5.37.41.36.84.27,1.3.2-.15-.39-.48-.44-.8-.57Zm3.5.9c-.5-.03-.98-.09-1.38.34.06.02.1.05.14.04.24-.06.46.02.69.07.42.09.51.02.55-.45Zm-3.25-5.81c.08-.48.15-.93.22-1.38-.44.18-.64.86-.22,1.38Zm.98,3.2c.19-.26.35-.51.54-.72.19-.2.44-.35.66-.53-.11-.04-.19-.04-.25,0-.18.11-.35.25-.53.36-.32.2-.46.49-.42.89Zm-.63-4.55c-.1.46-.24.88-.17,1.35.42-.43.49-.94.17-1.35Zm.25,2.69c.56-.15.89-.43,1.01-.94-.37.25-.74.5-1.01.94Zm-1.04.35c-.35-.13-.66-.36-1.11-.23.12.08.19.13.26.18.07.05.14.12.21.17.24.15.37.12.64-.12Zm1.97-1.52c-.12-.11-.23-.05-.33.02-.39.25-.61.63-.81,1.09.4-.39.76-.74,1.15-1.11Zm-2.04,1.28c-.31-.37-.7-.46-1.08-.26.35.08.68.16,1.08.26Zm.91,4.29c-.2,0-.38.02-.55,0-.17-.02-.33-.07-.54-.12.31.29.78.34,1.09.12Z"/>
    <path class="cls-7" d="m61.46,33.84c.07-.08.15-.16.22-.25.37-.47.83-.59,1.39-.38.84.32,1.32,1.03.97,2.02-.1.27-.37.5-.61.67-.84.59-1.76.96-2.81.95-.61,0-1.23.07-1.85.1-.6.03-1.2.04-1.8.04-1.49,0-2.99-.03-4.48-.02-1,0-2.01.11-3,.07-.75-.03-1.51-.05-2.22-.42-.47-.24-1-.36-1.51-.53-.58-.19-1.05-.51-1.34-1.06-.27-.52-.12-1.03.12-1.49.2-.37.72-.43,1.22-.2.22.1.42.23.66.35.08-.16.15-.3.22-.44.25-.49.63-.71,1.19-.66.66.06,1.04.2,1.6.63.3-.54.77-.85,1.39-.89.69-.03,1.04.42,1.32.98.15-.18.27-.33.4-.48.46-.52,1.1-.58,1.63-.14.25.21.49.41.78.66.41-.68,1.04-1.1,1.88-1.05.82.05,1.45.44,1.84,1.17.06-.03.07-.04.08-.05.22-.22.29-.61.69-.62.56-.01,1.11.03,1.56.39.19.15.3.41.46.63Zm-14.92.47c-.24-.58-.72-.76-1.25-.85-.34-.06-.44.03-.53.37-.02.09-.04.21-.1.27-.29.28-.21.58-.05.88.23.44.59.74,1.05.91.76.28,1.53.54,2.29.8.18.06.38.13.57.14.73.02,1.45.02,2.18,0,.68-.01,1.36-.07,2.04-.07.83,0,1.66.02,2.48.04.26,0,.52.04.78.03,1.13-.02,2.27-.03,3.4-.07.63-.02,1.27-.03,1.89-.15.69-.14,1.37-.39,1.94-.84.16-.13.35-.26.46-.43.4-.6.29-1.28-.3-1.72-.61-.45-1.27-.33-1.67.29-.09.14-.17.3-.31.53-.09-.22-.17-.36-.21-.51-.14-.45-.46-.7-.9-.8-.21-.05-.42-.06-.63-.09-.2-.03-.36.04-.47.2-.13.18-.24.38-.37.57-.06.09-.12.17-.22.29-.05-.11-.08-.17-.09-.22-.22-1.1-1.66-1.71-2.69-1.07-.29.18-.49.5-.73.77-.09.1-.16.21-.31.41-.11-.68-.55-.95-.97-1.22-.35-.22-.75-.16-1.03.13-.21.22-.37.49-.56.73-.05.07-.1.13-.17.22-.22-.64-.42-1.28-1.2-1.28-.84,0-1.34.47-1.44,1.35-.22-.35-.26-.75-.7-.9-.39-.14-.74-.29-1.17-.19-.82.18-.93.81-1.03,1.49Z"/>
    <path class="cls-7" d="m27.43,45.89c.61-1.4,2.36-2.15,3.29-.57.2-.28.39-.55.6-.81.4-.47.96-.72,1.54-.69.81.04,1.59.47,1.82,1.43.03.14.05.29.08.48.1-.05.2-.08.28-.14.39-.26.76-.56,1.17-.78.46-.24.97-.15,1.42.04,1.3.56,1.66,1.78,1.35,2.9-.23.84-.78,1.49-1.64,1.81-.94.34-1.92.44-2.92.41-.97-.03-1.94-.06-2.92-.09-.41-.01-.81,0-1.22-.04-1.31-.13-2.61-.25-3.91-.43-.75-.1-1.5-.28-2.24-.43-.52-.1-.91-.37-1.22-.81-.43-.61-.76-1.24-.76-2.01,0-.34.1-.62.31-.89.39-.49.89-.84,1.45-1,.45-.13.96-.07,1.44-.05.21,0,.41.1.61.14.41.1.75.31.96.68.15.27.3.53.49.86Zm-.07.34c-.12-.27-.22-.47-.31-.68-.31-.7-.84-1.09-1.61-1.15-.19-.02-.39-.04-.58-.06-.88-.08-1.6.24-2.16.89-.2.23-.37.57-.39.87-.06.96.65,2.53,2.03,2.8.64.13,1.27.27,1.91.35,1.24.17,2.48.3,3.73.45.13.02.26.02.39.02,1.18.04,2.37.07,3.55.11,1.01.03,2-.04,2.99-.27,1.25-.29,2.05-1.54,1.99-2.6-.06-1.01-.63-1.81-1.73-2.05-.22-.05-.48-.1-.67-.01-.64.28-1.29.56-1.66,1.21-.04.07-.12.13-.23.26-.03-.36-.05-.65-.08-.93-.09-1.01-1.27-1.56-2.01-1.4-.82.17-1.33.7-1.62,1.46-.04.11-.08.22-.15.39-.13-.24-.21-.42-.3-.59-.33-.61-.91-.85-1.56-.61-.47.17-.86.45-1.12.89-.12.2-.25.4-.41.65Z"/>
    <path class="cls-7" d="m93.54,49.68c.16-.2.27-.36.4-.51.26-.29.5-.3.8-.05.11.09.21.2.32.3.09.09.17.19.25.27.22-.21.42-.45.67-.62.7-.46,1.61-.02,1.71.81.02.16.05.33.03.49-.07.56-.28,1.02-.84,1.28-.85.39-1.74.66-2.67.65-.72,0-1.45-.13-2.06-.6-.03-.02-.06-.03-.08-.05-.25-.15-.57-.21-.67-.53-.14-.45-.27-.92-.13-1.39.13-.44.52-.64.94-.74.61-.15,1.04.11,1.34.69Zm.08.74c-.15-.3-.23-.51-.34-.7-.22-.35-.54-.58-.97-.55-.37.03-.87.46-.89.8-.03.47.05.95.45,1.26.65.51,1.42.76,2.25.83.21.02.43.03.63-.01.41-.09.82-.2,1.22-.33.29-.09.58-.2.85-.34.56-.29.79-.82.66-1.43-.11-.53-.46-.8-1-.79-.47.01-.88.39-.94.88-.02.12-.06.24-.09.36-.29-.57-.61-1.03-1.17-1.24-.45.29-.51.74-.66,1.25Z"/>
    <path class="cls-7" d="m115.32,26.48c.03-.1.05-.21.09-.35.19.29.19.35,0,.63-.03-.09-.06-.19-.09-.29,0,0,0,0,0,0Z"/>
    <path class="cls-1" d="m115.77,26.98c-.21.76-.53,1.37-.8,2.02.54-.46.98-1,1.61-1.36-.04.13-.08.27-.12.4-.11.38-.23.76-.52,1.06-.37.38-.72.79-1.1,1.16-.35.34-.78.54-1.26.62-.49.08-.98.18-1.47.27-.13.02-.27.04-.4.05-.34.04-.71.35-.77.68-.01.07,0,.15.01.25.31,0,.6.03.86.22-.12.32-.41.34-.66.4-.08.02-.16,0-.24.01-.12.03-.22.09-.14.27.58.03,1.16.11,1.73.35-.22.43-.71.35-1.02.63.34.18.7.09,1.03.2-.32.26-.68.35-1.08.31-.13-.01-.22,0-.29.11.45.21.89.4,1.25.83-.16.04-.26.08-.37.09-.95.09-1.85-.04-2.69-.51-.48-.27-.81-.63-1.02-1.13-.33-.78-.54-1.59-.78-2.39-.16-.53-.32-.67-.87-.74-.3-.04-.6-.09-.91-.13-.45-.05-.78-.31-1.1-.6-.22-.2-.23-.49-.23-.76,0-.16.06-.34.13-.49.16-.32.39-.53.79-.56.5-.04.96.02,1.38.32.33.23.76.11.98-.23.31-.5.4-1.03.25-1.6-.14-.51-.26-1.04-.45-1.53-.18-.47-.07-.9.09-1.33.15-.4.38-.77.75-1.03.56-.39,1.16-.67,1.83-.78.12-.02.24.01.36.02.01.02.02.05.03.07-.1.1-.19.21-.29.3-.47.38-.87.82-1.19,1.34,0,.02,0,.04,0,.09.34-.16.66-.35,1-.46.35-.11.73-.14,1.12-.17-.12.33-.35.58-.56.83-.2.25-.45.46-.68.69.02.03.03.05.05.08.11-.03.24-.03.33-.09.34-.21.71-.21,1.1-.2-.05.3-.31.43-.45.64-.14.21-.36.37-.44.7.61-.24,1.18-.45,1.86-.26-.16.18-.27.34-.42.47-.18.16-.38.29-.58.42-.5.32-.65.8-.6,1.36.02.23.11.46.15.7.06.31.32.4.56.48.21.07.44.1.67.12.32.03.58-.09.83-.31.54-.48.97-1.05,1.32-1.68.12-.23.26-.45.47-.61.03-.02.07-.04.16-.08-.05.29-.07.53-.13.77-.06.23-.16.45-.22.67-.07.23-.27.41-.24.7.23-.06.28-.25.37-.4.14-.23.27-.47.41-.71.14-.23.32-.4.62-.58Zm-9.87,2.65c.25.02.52-.05.7-.17.16-.1.22-.25.22-.44,0-.19-.16-.23-.3-.28-.41-.15-.8-.04-1.19.07-.08.02-.15.1-.21.17-.11.14-.07.24.05.4.19.24.46.21.72.24Zm3.2-6.6c.17.08.26.01.25-.13,0-.13.05-.2.12-.29.03-.04.03-.11.05-.21-.17.08-.39.04-.25.3.01.03-.03.09-.05.13-.03.06-.07.13-.11.19Zm.29,5.15c-.16.08-.41-.07-.52.2.23.02.41.02.52-.2Zm.23,5.79c.12.09.25.17.41.29-.06-.35-.12-.4-.41-.29Zm.29-9.83c-.22.09-.35.17-.3.42.19-.07.29-.18.3-.42Zm-.06,2.64c.38.15.45.12.43-.12-.14.04-.29.08-.43.12Zm2.31,4c.26.05.35,0,.45-.23-.18.03-.35.04-.45.23Zm-2.79-.64q.34-.02.48-.15c-.29-.09-.3-.09-.48.15Zm-.32-4.22c-.12.06-.26.09-.29.26,0,.02.06.08.09.08.16-.02.21-.15.24-.29,0,0-.01-.02-.04-.05Zm-.45,4.22s-.01-.07-.02-.11c-.18-.03-.36-.05-.52.18.21-.03.37-.05.54-.08Zm.03-6.09c-.14.04-.25.08-.23.24,0,.03.06.08.09.08.14-.03.2-.13.14-.32Zm.27,7.27h-.43c.14.14.28.18.43,0Zm1.29-6.01c.33.07.37.03.35-.25-.11.08-.2.14-.35.25Zm-.34,7.76c-.26-.19-.29-.19-.48.04.16-.01.3-.02.48-.04Zm1.4.73c-.19-.25-.21-.25-.39-.02.15,0,.27.02.39.02Zm-.76-2.45c-.24-.17-.28-.15-.37.14.12-.05.22-.08.37-.14Zm-.59.72c.15.11.28.1.46-.07-.19-.03-.32-.11-.46.07Zm-.96,1.48c-.08-.16-.17-.2-.31-.14-.02,0-.04.06-.03.09.06.15.18.11.29.08.01,0,.02-.01.05-.03Zm1.71,1.33c-.12.13-.05.21.02.26.08.06.18.08.27-.06-.11-.07-.2-.14-.29-.2Zm-1.89-2.61c-.1-.19-.22-.26-.39-.27.08.13.17.25.39.27Zm2.47-1.93c.15.03.28.01.42-.13-.21-.08-.33,0-.42.13Zm1.52-.61c.18-.02.33,0,.37-.24-.18,0-.29.05-.37.24Zm-2.81-.79s.03.06.04.09c.1-.04.21-.08.36-.14-.22-.14-.32-.09-.4.05Zm4.63.17s-.04-.04-.07-.07c-.07.08-.15.17-.25.29.25.02.28-.11.32-.22Zm-7.24,1.26c-.1-.14-.16-.22-.22-.3-.1.24,0,.28.22.3Zm.55-1.2c-.17-.04-.3-.07-.37.12.16.07.25.01.37-.12Zm.55-3.55c.18.05.27.03.32-.12-.15-.1-.23-.04-.32.12Zm5.96,4.26c-.16-.07-.24-.02-.25.15.08-.05.17-.1.25-.15Zm-3.3-3.85s-.05-.04-.07-.06c-.05.06-.09.11-.17.22.11,0,.16,0,.19-.02.03-.04.04-.09.06-.14Zm2.68,2.78c.19-.09.22-.16.11-.29-.03.08-.06.15-.11.29Zm-2.21,4.61s.01.06.02.09c.06-.02.12-.03.18-.05,0,0,0-.06-.01-.06-.06,0-.12,0-.18.01Z"/>
    <path class="cls-1" d="m102.13,26.75c.17-.76.81-1.04,1.31-1.46.13.08.24.14.34.2,0,.77-.86,1.44-1.65,1.26Z"/>
    <path class="cls-1" d="m100.34,27.25c-.04.19-.18.28-.35.3-.44.07-.84-.1-1.23-.28-.11-.05-.17-.21-.26-.34.64.11,1.23.22,1.83.32Z"/>
    <path class="cls-1" d="m100.76,28.26c.33.13.66.18.8.57-.46.07-.89.16-1.3-.2.18-.13.34-.25.5-.37Z"/>
    <path class="cls-1" d="m104.26,29.15c-.05.48-.13.54-.55.45-.23-.05-.45-.13-.69-.07-.03,0-.08-.02-.14-.04.4-.43.88-.37,1.38-.34Z"/>
    <path class="cls-1" d="m101.01,23.34c-.42-.52-.22-1.2.22-1.38-.07.45-.15.9-.22,1.38Z"/>
    <path class="cls-1" d="m101.99,26.54c-.04-.41.1-.69.42-.89.18-.11.35-.25.53-.36.06-.04.15-.03.25,0-.22.17-.46.33-.66.53-.2.21-.35.46-.54.72Z"/>
    <path class="cls-1" d="m101.36,22c.32.4.25.92-.17,1.35-.07-.47.08-.89.17-1.35Z"/>
    <path class="cls-1" d="m101.61,24.69c.27-.44.64-.69,1.01-.94-.12.5-.46.79-1.01.94Z"/>
    <path class="cls-1" d="m100.57,25.04c-.27.24-.4.27-.64.12-.08-.05-.14-.11-.21-.17-.07-.05-.14-.1-.26-.18.45-.13.76.1,1.11.23Z"/>
    <path class="cls-1" d="m102.54,23.52c-.38.37-.74.72-1.15,1.11.2-.46.42-.83.81-1.09.1-.07.21-.13.33-.02Z"/>
    <path class="cls-1" d="m100.5,24.8c-.4-.1-.73-.17-1.08-.26.38-.2.77-.12,1.08.26Z"/>
    <path class="cls-1" d="m101.41,29.08c-.31.22-.78.17-1.09-.12.2.05.37.1.54.12.17.02.35,0,.55,0Z"/>
    <path class="cls-1" d="m46.54,34.31c.09-.68.21-1.31,1.03-1.49.43-.09.78.06,1.17.19.44.16.48.55.7.9.1-.89.6-1.35,1.44-1.35.77,0,.97.64,1.2,1.28.07-.09.12-.16.17-.22.18-.25.35-.51.56-.73.27-.29.68-.35,1.03-.13.42.27.86.54.97,1.22.15-.2.22-.31.31-.41.24-.26.44-.58.73-.77,1.02-.64,2.46-.03,2.69,1.07.01.06.05.11.09.22.09-.12.16-.2.22-.29.12-.19.23-.39.37-.57.11-.15.27-.22.47-.2.21.03.42.04.63.09.44.1.76.36.9.8.05.15.12.29.21.51.13-.23.21-.38.31-.53.4-.62,1.06-.74,1.67-.29.59.44.7,1.12.3,1.72-.11.17-.29.3-.46.43-.57.45-1.24.7-1.94.84-.62.12-1.26.13-1.89.15-1.13.04-2.27.05-3.4.07-.26,0-.52-.03-.78-.03-.83-.02-1.66-.04-2.48-.04-.68,0-1.36.06-2.04.07-.73.01-1.45.01-2.18,0-.19,0-.38-.08-.57-.14-.77-.26-1.53-.52-2.29-.8-.46-.17-.82-.47-1.05-.91-.16-.3-.24-.6.05-.88.06-.06.08-.18.1-.27.09-.34.19-.43.53-.37.53.09,1.01.27,1.25.85Z"/>
    <path class="cls-1" d="m27.37,46.23c.16-.25.29-.45.41-.65.26-.44.65-.72,1.12-.89.65-.24,1.23,0,1.56.61.09.17.18.34.3.59.06-.17.1-.28.15-.39.29-.76.8-1.29,1.62-1.46.74-.15,1.91.39,2.01,1.4.03.28.05.57.08.93.11-.12.19-.18.23-.26.37-.65,1.02-.93,1.66-1.21.19-.08.45-.03.67.01,1.1.23,1.68,1.04,1.73,2.05.06,1.06-.75,2.32-1.99,2.6-.99.23-1.98.3-2.99.27-1.18-.04-2.37-.07-3.55-.11-.13,0-.26,0-.39-.02-1.24-.14-2.49-.28-3.73-.45-.64-.09-1.28-.23-1.91-.35-1.38-.27-2.1-1.85-2.03-2.8.02-.3.19-.63.39-.87.56-.65,1.28-.98,2.16-.89.19.02.39.05.58.06.77.06,1.3.45,1.61,1.15.09.2.18.41.31.68Z"/>
    <path class="cls-1" d="m93.62,50.41c.14-.51.21-.96.66-1.25.55.21.87.67,1.17,1.24.03-.12.08-.24.09-.36.06-.48.47-.86.94-.88.54-.01.89.26,1,.79.13.61-.1,1.13-.66,1.43-.27.14-.56.25-.85.34-.4.13-.81.24-1.22.33-.2.04-.42.03-.63.01-.82-.07-1.59-.31-2.25-.83-.4-.31-.48-.79-.45-1.26.02-.34.51-.77.89-.8.43-.03.75.2.97.55.12.19.2.4.34.7Z"/>
    <path class="cls-7" d="m105.9,29.63c-.27-.03-.53,0-.72-.24-.12-.16-.16-.26-.05-.4.05-.07.13-.14.21-.17.39-.12.78-.23,1.19-.07.14.05.29.09.3.28,0,.18-.06.33-.22.44-.18.12-.45.18-.7.17Zm.25-.23c.12-.06.2-.1.28-.14,0-.02,0-.05,0-.07-.1-.01-.2-.03-.33-.05.02.1.03.16.05.26Z"/>
    <path class="cls-7" d="m109.1,23.03c.04-.07.08-.13.11-.19.02-.04.07-.1.05-.13-.14-.27.09-.23.25-.3-.02.1-.01.17-.05.21-.08.09-.13.16-.12.29,0,.14-.08.2-.25.13Z"/>
    <path class="cls-7" d="m109.39,28.18c-.11.22-.3.22-.52.2.12-.27.37-.11.52-.2Z"/>
    <path class="cls-7" d="m109.62,33.97c.29-.11.35-.06.41.29-.16-.11-.29-.2-.41-.29Z"/>
    <path class="cls-7" d="m109.91,24.15c-.02.24-.12.34-.3.42-.05-.24.09-.33.3-.42Z"/>
    <path class="cls-7" d="m109.85,26.79c.14-.04.28-.08.43-.12.02.25-.05.28-.43.12Z"/>
    <path class="cls-7" d="m112.16,30.79c.1-.19.27-.2.45-.23-.09.24-.18.28-.45.23Z"/>
    <path class="cls-7" d="m109.38,30.15c.18-.23.19-.24.48-.15q-.13.12-.48.15Z"/>
    <path class="cls-7" d="m109.05,25.93s.04.04.04.05c-.03.14-.08.27-.24.29-.03,0-.09-.05-.09-.08.03-.17.17-.2.29-.26Z"/>
    <path class="cls-7" d="m108.6,30.15c-.16.02-.33.05-.54.08.16-.23.34-.21.52-.18,0,.04.01.07.02.11Z"/>
    <path class="cls-7" d="m108.64,24.06c.05.19,0,.28-.14.32-.02,0-.08-.05-.09-.08-.02-.16.09-.2.23-.24Z"/>
    <path class="cls-7" d="m108.91,31.33c-.15.18-.29.14-.43,0h.43Z"/>
    <path class="cls-7" d="m110.19,25.32c.15-.11.24-.17.35-.25.02.28-.02.32-.35.25Z"/>
    <path class="cls-7" d="m109.86,33.08c-.19.02-.32.03-.48.04.19-.23.22-.23.48-.04Z"/>
    <path class="cls-7" d="m111.26,33.81c-.12,0-.24-.01-.39-.02.18-.23.2-.23.39.02Z"/>
    <path class="cls-7" d="m110.49,31.35c-.15.06-.25.09-.37.14.09-.29.13-.31.37-.14Z"/>
    <path class="cls-7" d="m109.9,32.07c.14-.19.27-.1.46-.07-.18.17-.3.18-.46.07Z"/>
    <path class="cls-7" d="m108.94,33.55s-.04.03-.05.03c-.11.02-.23.06-.29-.08,0-.02,0-.08.03-.09.14-.06.23-.02.31.14Z"/>
    <path class="cls-7" d="m110.66,34.89c.09.06.19.13.29.2-.09.14-.19.11-.27.06-.07-.05-.14-.13-.02-.26Z"/>
    <path class="cls-7" d="m108.76,32.28c-.22-.01-.31-.13-.39-.27.17,0,.29.08.39.27Z"/>
    <path class="cls-7" d="m111.24,30.35c.09-.13.2-.21.42-.13-.14.15-.27.17-.42.13Z"/>
    <path class="cls-7" d="m112.76,29.74c.08-.19.19-.23.37-.24-.04.23-.19.22-.37.24Z"/>
    <path class="cls-7" d="m109.95,28.95c.07-.14.18-.19.4-.05-.15.06-.26.1-.36.14-.01-.03-.03-.06-.04-.09Z"/>
    <path class="cls-7" d="m114.57,29.12c-.04.11-.07.24-.32.22.11-.12.18-.2.25-.29.02.02.04.04.07.07Z"/>
    <path class="cls-7" d="m107.33,30.38c-.22-.02-.32-.06-.22-.3.06.08.12.16.22.3Z"/>
    <path class="cls-7" d="m107.89,29.18c-.11.13-.21.19-.37.12.07-.19.19-.16.37-.12Z"/>
    <path class="cls-7" d="m108.43,25.64c.09-.16.17-.22.32-.12-.04.16-.14.17-.32.12Z"/>
    <path class="cls-7" d="m114.39,29.9c-.08.05-.17.1-.25.15.01-.17.1-.22.25-.15Z"/>
    <path class="cls-7" d="m111.08,26.04s-.03.11-.06.14c-.02.02-.08,0-.19.02.08-.1.13-.16.17-.22.02.02.05.04.07.06Z"/>
    <path class="cls-7" d="m113.76,28.82c.05-.14.08-.21.11-.29.12.13.09.2-.11.29Z"/>
    <path class="cls-7" d="m111.55,33.44c.06,0,.12-.01.18-.01,0,0,.01.06.01.06-.06.02-.12.03-.18.05,0-.03-.01-.06-.02-.09Z"/>
    <path class="cls-1" d="m106.15,29.4c-.02-.1-.03-.15-.05-.26.13.02.23.03.33.05,0,.02,0,.05,0,.07-.08.04-.16.08-.28.14Z"/>
  </g>
</svg>