<svg width="182" height="182" fill="none" xmlns="http://www.w3.org/2000/svg"><g clip-path="url(#Group 9__a)"><path fill="#E0E1E3" d="M0 0h181.417v181.417H0z"/><mask id="Group 9__b" style="mask-type:luminance" maskUnits="userSpaceOnUse" x="0" y="0" width="182" height="182"><path d="M0 0h181.417v181.417H0V0Z" fill="black" fill-opacity=".8"/></mask><g mask="url(#Group 9__b)"><mask id="Group 9__c" style="mask-type:luminance" maskUnits="userSpaceOnUse" x="50" y="60" width="82" height="69"><path d="M50.541 60.73h80.818v67.739H50.541v-67.74Z" fill="white"/></mask><g mask="url(#Group 9__c)"><path d="M90.948 90.984c-.079-.088-.157-.182-.24-.276-.823.464-1.635.933-2.453 1.412.948.307 1.76 1.052 2.51.4-.057-.359-.15-.598-.11-.812.043-.24.188-.479.293-.724Zm9.588-.635c-.01-.563.469-1.136-.052-1.682-.229-.24-.427-.495-.64-.735-.35.35-.933.656-.985 1.026-.151 1.11-.083 2.24-.068 3.35.01.13.318.4.453.374 1.24-.213 1.495-.604 1.292-1.911-.026-.146 0-.292 0-.422Zm6.682 2.745c-.109-.068-.297-.146-.297-.214.026-.614-.078-.719-.651-.65-.734.077-1.161.598-1.708.983-.745.521-.318 1.162-.307 1.709.015.24.614.531 1 .666.255.079.588-.093.948-.177-.386-1.198-.146-1.718 1.015-2.317Zm3.625-9.172c.146-.068.198-.563.146-.828-.13-.589-.344-1.136-.531-1.693.318-.786-.146-1.161-.682-1.172-.558-.016-.829.464-.829 1.063-.01.666-.01 1.375-.208 2-.203.63.198.974.531 1 .521.057 1.079-.157 1.573-.37Zm-33.015-14.87c-.292 1.349.083 2.536.682 3.708.172.344.146.813.333 1.162.255.427.589.838.948 1.172 1.24 1.146 2.6 2.255 4.677 1.375-.24-.365-.53-.656-.65-1-.376-1.084-1.641-1.058-2.266-1.948-.563-.802-1.417-1.266-1.844-2.36-.37-.921 0-1.64-.078-2.427-.052-.656-.438-1.468-1.172-1.505-.51-.031-.787.13-.734.677.041.386.187.787.104 1.146Zm8.333-3.156c.76-.031 1.297.385 1.828.864.146.146.443.334.589.292.838-.292 1.65-.667 2.479-.974.36-.12.786-.094 1.146-.24 1.015-.427 1.99-.942 2.99-1.385.822-.349 1.666-.625 2.505-.932 1.598-.573 3.187-1.203 4.812-1.693 1.854-.562 3.786-.588 5.693-.24 2.135.37 4.229.88 6.375 1.157 1.317.187 2.703-.094 4.036.094 1.511.213 3.031.588 4.443 1.135 1.64.614 3.265 1.453 4.385 2.839 1.016 1.255 1.719 2.775 2.693 4.083.693.932.589 2.052 1.016 3.026.198.437.161 1 .161 1.505.01 1.667.104 3.333-.016 4.984-.197 2.485-.557 4.948-.838 7.417-.016.068-.016.12-.042.172-.719 1.188-.719 2.563-1.01 3.865-.537 2.323-1.125 4.656-1.844 6.937-.453 1.438-1.036 2.813-.932 4.396.041.536-.412 1.12-.683 1.656a438.608 438.608 0 0 1-3.239 6.557c-.24.485-.583.922-.891 1.36-.76 1.151-1.505 2.281-2.599 3.203-1.271 1.068-2.333 2.375-3.562 3.479-.891.813-1.854 1.589-2.891 2.198-1.239.724-2.604 1.245-3.896 1.87-1.359.651-2.677 1.401-4.067 1.958-.839.349-1.797.417-2.703.625-.417.094-.818.229-1.23.333-.01-.036-.026-.088-.041-.145-.396.119-.797.255-1.214.333-1.291.24-2.61.443-3.906.682-.823.162-1.635.344-2.464.532-.161.041-.307.119-.468.145-1.078.177-2.162.391-3.24.485-.427.036-.854-.255-1.292-.282-.812-.067-1.63-.015-2.442-.052-1.01-.067-2.026-.161-3.026-.255a52.214 52.214 0 0 1-2.547-.255c-.292-.036-.584-.172-.88-.25-.37-.094-.76-.161-1.146-.24-1.172-.239-2.375-.401-3.521-.724-1.557-.437-3.068-1.01-4.6-1.505-1.76-.557-3.197-1.666-4.676-2.719-1.058-.734-.974-1.505-1.912-2.375-1.703-1.598-2.718-3.041-4.317-4.76-.438-.463-1.427-1.823-1.589-2.437-.531-2.053-3.599-4.87-3.745-7.068-.104-1.547-1.896-4.651-2.161-6.198-.865-4.708-1.547-6.854-.865-11.52.12-.777.401-5.933.719-6.631.625-1.37 1.615-5.635 2.161-6.77.829-1.147 2-4.11 2.454-5.48 3.812-4.23 3.4-5.589 8.786-7.35.828-.265 6.48-.905 7.344-.864 3.323.146 6.922 1.584 9.083 3.172.974.709 4.401 2 4.797 1.99Zm1.177 1.265c-.068-.041-.453.48-.614.771-.23.417-.24.828.291 1.026.615.24 1.401.297 1.828.724.735.755 1.47.73 2.375.422 0-1.453-1.015-1.849-2.656-.943-.026-.442.083-.895-.104-1.177-.255-.37-.693-.635-1.12-.823Zm-.068 10.25c.308.563.547 1.136 1.428.922.265-.067.614.188.916.308.547.197 1.11.4 1.521.546.349-.572.573-.974.828-1.416-1.411-1.49-2.614-1.61-4.693-.36Zm5.891-6.479c-.36-.453-2.276-.265-2.719.172-.146.151-.333.365-.343.563-.058.744.718 1.468 1.744 1.453.188-.042.6-.12.974-.255.292-.105.771-.318.771-.438-.036-.505-.13-1.11-.427-1.495Zm3.245 6.615c-.547-.813-2.255-1.016-2.938-.334-.172.172-.25.48-.291.745-.016.094.255.297.411.308.64.067 1.297.093 1.938.135.01.052.026.104.052.162.307-.162.64-.297.916-.51.068-.053 0-.37-.088-.506Zm-.964-7.531c.87-.615 1.667-1.188 2.469-1.75-.135-.12-.281-.266-.505-.464.479-.135.864-.23 1.224-.365.719-.25.24-.916.443-1.302.302-.562 0-.843-.35-1.03-.4-.21-.973-.464-1.213.187-.172.427-.135.937-.188 1.4-.692.162-1.411.334-1.974.47-.171.718-.307 1.307-.437 1.89-.083-.01-.146-.026-.213-.036.25.333.494.666.744 1Zm9.453 47.635c-.171.042-.317.031-.385.094-.771.87-1.786.989-2.854.963a6.02 6.02 0 0 0-1.104.078c-1.188.188-2.375.386-3.547.615-.48.094-.948.281-1.427.385-.974.214-1.948.521-2.933.599-1.015.084-2.057-.067-3.067-.13-.657-.041-1.308-.12-1.964-.187-.208-.016-.422-.11-.625-.094-1.463.094-2.838-.052-3.854-1.307-.667-.828-1.01-.802-1.64 0 .213.333.374.718.64.948.75.651 1.469 1.557 2.349 1.76 1.797.411 3.693.385 5.547.609 1.265.151 2.505.203 3.786 0 1.188-.182 2.386-.213 3.453-.932.282-.198.771-.094 1.172-.13.256-.026.506-.042.75-.11a59.64 59.64 0 0 0 2.625-.796c.282-.094.495-.349.771-.443.87-.318 1.75-.599 2.656-.891-.145-.442-.229-.708-.349-1.031Zm-6.067-41.318c.734.042 1.521-.958 1.604-2.093-.136-.188-.375-.573-.667-.907-.083-.078-.4-.078-.495 0-.494.521-.99 1.042-1.411 1.615-.11.13 0 .505.13.677.23.281.547.693.839.708Zm2.656 30.136c.026.078.068.146.104.224a37.5 37.5 0 0 1-.797-.162c.026.058.052.11.078.162-.854.468-1.708.932-2.796 1.536.333.24.703.677 1.145.797.427.12.959-.042 1.396-.187 1.365-.438 2.547-1.172 3.75-1.933.547-.333 1.011-.677 1.427-1.213.292-.375.959-.464 1.464-.677.161.078.307-.042.281-.162-.052-.375-.042-.922-.266-1.094-.349-.239-.88-.229-1.349-.333-.078 1-.932.505-1.411.734-.12.053-.307.131-.333.224-.146.776-.839.802-1.36 1.094-.479.281-.896.656-1.333.99Zm10.922-37.683c-.375-.479-1.162-.453-1.547-.052-.547.584-.255.948.266 1.344.317.24.692.63.718.99.052.666.401.734.839.677.932 0 1.333-.344 1.042-.907a13.113 13.113 0 0 0-1.318-2.052Zm-4.589 46.469c.839.37 1.521.917 2.214.052.239-.291.583-.505.948-.812-.282-.63-.068-1.136.692-1.495.292-.135.49-.505.693-.802.13-.172.224-.386.307-.599.094-.24.266-.557.188-.734-.188-.386-.578-.599-.974-.24-.641.573-1.271 1.146-1.854 1.776-.615.667-1.188 1.385-1.761 2.094-.171.224-.291.489-.453.76Zm6.224-18.802c-1.276-.427-4.052 2.401-4.276 4.599.771-.12 1.49-.24 2.24-.359-.12-.282-.214-.464-.281-.625.348-.146.89-.297.89-.386-.078-1.213 1.427-1.12 1.563-2.177-.042-.265-.078-.65-.136-1.052Zm1.922-27.495c.547.443 1.136.844 1.776 1.11.318.13.797-.016 1.146-.162.104-.052.062-.531.026-.812-.016-.068-.375-.052-.427-.162-.682-1.187-1.776-1.531-3.026-.854.156.297.25.693.505.88Zm.172 17.724c.391.636 1.135.396 1.844.052-.229-.682-.469-1.349-.657-1.906.24-.39.537-.64.547-.906.026-.734-1.078-1.563-1.744-1.297-.24.11-.401.588-.469.922-.068.36-.026.745.026 1.104.109.698.109 1.469.453 2.031Zm-.906 21.651c.093.188.495.401.666.334.417-.136 1.026-.375 1.084-.667.172-.984.984-1.188 1.479-1.521-.052-.25-.162-.479-.12-.667.052-.197.292-.359.344-.557.094-.323.109-.666.146-1-.276.011-.573-.026-.839.037-.401.109-.786.281-1.12.401-.427.869-.744 1.812-1.317 2.573-.297.375-.511.666-.323 1.067Zm2-17.333c-1.266-.77-1.334-.76-1.917.547-.203.437-.375.906-.588 1.349-.188.385-.469.797.067 1.078.308.161.787.307 1.037.172.401-.24 1-.745.963-1.068-.094-.76.12-1.37.438-2.078Zm5.989 6.349c.266-.88.453-1.76.703-2.63.136-.427.454-.813.485-1.224.078-.964-.188-2 .104-2.87.427-1.276-.042-2.932 1.531-3.719-1.333-1.198-.651-2.557-.453-3.614.162-.823.068-1.6.188-2.386.052-.385.229-.745.333-1.135.094-.344.203-.703.24-1.052.057-.505.026-1.01.109-1.505.036-.308.266-.48-.083-.855-.396-.427-.547-1.104-.745-1.692-.292-.907-.865-1.438-1.761-1.438.24 1.078.599 2.12.693 3.182.094.964.375 1.922-.078 2.922-.292.651-.375 1.438-.359 2.162.01.786-.094 1.557-.094 2.291.01 1.948-.417 3.802-.813 5.641-.39 1.802-.692 3.573-.869 5.401-.094.88-.49 1.719-.745 2.583-.042-.01-.068-.036-.11-.052v1.547c.469-.078.912-.146 1.136-.187.255-.558.469-.959.588-1.37Z" fill="#A53839"/></g></g><path d="M123.219 89.427c.396-1.839.823-3.693.813-5.64 0-.735.104-1.506.094-2.292-.016-.724.067-1.51.359-2.162.453-1 .172-1.958.078-2.921-.094-1.063-.453-2.105-.693-3.183.896 0 1.469.531 1.761 1.438.198.588.349 1.265.745 1.692.349.375.119.547.083.855-.083.494-.052 1-.109 1.505-.037.349-.146.708-.24 1.052-.104.39-.281.75-.333 1.135-.12.787-.026 1.563-.188 2.386-.198 1.057-.88 2.416.453 3.614-1.573.787-1.104 2.443-1.531 3.719-.292.87-.026 1.906-.104 2.87-.031.411-.349.797-.484 1.224-.25.87-.438 1.75-.704 2.63-.119.411-.333.813-.588 1.37-.224.041-.667.11-1.136.187V97.36c.042.016.068.042.11.053.255-.865.651-1.704.745-2.584.177-1.828.479-3.599.869-5.4Zm-5.479-19.36c-.64-.265-1.229-.666-1.776-1.109-.255-.187-.349-.583-.505-.88 1.25-.677 2.344-.333 3.026.854.052.11.411.094.427.162.037.281.078.76-.026.812-.349.146-.828.292-1.146.162Zm-2.057 14.584c-.052-.36-.094-.745-.026-1.104.068-.334.229-.813.469-.922.666-.266 1.77.563 1.744 1.297-.01.266-.307.516-.546.906.187.557.427 1.224.656 1.906-.709.344-1.453.584-1.844-.052-.344-.562-.344-1.333-.453-2.031Zm2.307 19.641c.266-.063.563-.026.839-.037-.037.334-.052.677-.146 1-.052.198-.292.36-.344.557-.041.188.068.417.12.667-.495.333-1.307.537-1.479 1.521-.057.292-.667.531-1.084.667-.171.067-.572-.146-.666-.334-.188-.401.026-.692.323-1.067.573-.761.89-1.704 1.317-2.573.334-.12.719-.292 1.12-.401Zm-1.198-11.214c.037.323-.562.828-.963 1.068-.25.135-.729-.01-1.037-.172-.536-.281-.255-.693-.067-1.078.213-.443.385-.912.588-1.35.583-1.306.651-1.317 1.917-.546-.318.708-.531 1.318-.438 2.078Zm-4.948-22.01c-.026-.36-.401-.75-.718-.99-.521-.396-.813-.76-.266-1.344.385-.4 1.172-.427 1.547.053.505.64.943 1.333 1.318 2.051.291.563-.11.907-1.042.907-.438.057-.787-.01-.839-.677Zm-2.078 29.984c.224-2.198 3-5.026 4.276-4.599.058.401.094.787.136 1.052-.136 1.058-1.641.964-1.563 2.177 0 .089-.541.24-.89.386.067.161.161.343.281.625-.75.119-1.469.239-2.24.359Zm2.599 11.146c-.203.297-.401.667-.692.802-.761.359-.974.865-.693 1.495-.365.307-.709.521-.948.812-.693.865-1.375.318-2.214-.052.162-.271.282-.536.453-.76.573-.709 1.146-1.427 1.761-2.094.583-.63 1.213-1.203 1.854-1.776.396-.359.787-.146.974.24.078.177-.094.494-.187.734a2.545 2.545 0 0 1-.308.599Zm-1.906-30.797c.187.557.401 1.104.531 1.693.052.265 0 .76-.146.828-.494.213-1.052.427-1.573.37-.333-.026-.734-.37-.531-1 .198-.625.198-1.334.209-2 0-.6.27-1.079.828-1.063.536.01 1 .386.682 1.172Zm-5.896 11.813c.547-.386.974-.907 1.708-.985.573-.067.678.037.652.651 0 .068.187.146.296.214-1.161.599-1.401 1.12-1.015 2.318-.36.083-.693.255-.948.176-.386-.135-.985-.426-1-.666-.011-.547-.438-1.188.307-1.709Zm-4.026-2.865c0 .13-.026.276 0 .422.203 1.307-.052 1.698-1.292 1.911-.135.026-.442-.245-.453-.375-.015-1.11-.083-2.24.068-3.349.052-.37.635-.677.984-1.026.214.24.412.495.641.735.521.546.042 1.12.052 1.682ZM97.86 74.948c.422-.573.917-1.094 1.412-1.615.093-.078.41-.078.494 0 .292.334.532.72.667.907-.083 1.135-.87 2.135-1.604 2.093-.292-.015-.61-.427-.839-.708-.13-.172-.24-.547-.13-.677Zm6.505 31.958c-1.203.761-2.385 1.495-3.75 1.933-.437.145-.968.307-1.396.187-.442-.12-.812-.557-1.145-.797 1.088-.604 1.942-1.068 2.796-1.536a4.138 4.138 0 0 1-.078-.162c.266.058.532.11.797.162-.036-.078-.078-.146-.104-.224.438-.334.854-.709 1.333-.99.521-.292 1.214-.318 1.36-1.094.026-.093.213-.171.333-.224.479-.229 1.333.266 1.412-.734.468.104 1 .094 1.348.333.224.172.214.719.266 1.094.026.12-.12.24-.281.162-.505.213-1.172.302-1.464.677-.416.536-.88.88-1.427 1.213Zm-6.453-38.64c-.802.562-1.599 1.135-2.469 1.75-.25-.334-.494-.667-.744-1 .067.01.13.026.213.036.13-.583.266-1.172.438-1.89.562-.136 1.28-.308 1.974-.47.052-.463.015-.973.187-1.4.24-.651.813-.396 1.214-.188.349.188.65.469.349 1.031-.204.386.276 1.052-.443 1.302-.36.136-.745.23-1.224.365.224.198.37.344.505.464Zm-4.443 8.947c.683-.682 2.391-.479 2.938.334.088.135.156.453.088.505-.276.214-.609.349-.916.51a.72.72 0 0 1-.052-.161c-.64-.042-1.297-.068-1.938-.135-.156-.01-.427-.214-.411-.308.041-.265.12-.573.291-.745Zm-1.625-4.093c-1.026.015-1.802-.709-1.744-1.453.01-.198.198-.412.343-.563.443-.437 2.36-.625 2.72-.172.296.386.39.99.426 1.495 0 .12-.479.333-.77.438-.376.135-.787.213-.975.255ZM90.71 90.708c.083.094.161.188.24.276-.105.245-.25.485-.292.724-.042.214.052.454.11.813-.75.65-1.563-.094-2.511-.401.818-.48 1.63-.948 2.453-1.412Zm-1.094-12.067c-.302-.12-.65-.375-.916-.308-.88.214-1.12-.359-1.427-.921 2.078-1.25 3.28-1.13 4.692.359-.255.442-.479.844-.828 1.416-.411-.145-.974-.349-1.52-.546Z" fill="#1A3151"/><mask id="Group 9__d" style="mask-type:luminance" maskUnits="userSpaceOnUse" x="0" y="0" width="182" height="182"><path d="M0 0h181.417v181.417H0V0Z" fill="black" fill-opacity=".8"/></mask><g mask="url(#Group 9__d)"><mask id="Group 9__e" style="mask-type:luminance" maskUnits="userSpaceOnUse" x="86" y="49" width="4" height="15"><path d="M86.447 49.182h2.6v14.11h-2.6v-14.11Z" fill="white"/></mask><g mask="url(#Group 9__e)"><path d="M86.578 54.307c-.323-1.411.052-2.828-.015-4.24-.01-.202.255-.478.067-.775.188-.037.376-.13.563-.105.463.068.932.188 1.573.334-.214.172-.36.281-.495.385-.24.188-.656.35-.693.563-.041.265.162.65.386.849.682.656 1.172 1.229.786 2.349-.198.562-.255.948-.828 1.307-.453.281-.385 1.052.11 1.375.677.437.677.932.505 1.599-.078.266 0 .625.135.88.25.464.693.865.026 1.333-.015 0-.026.053-.015.068.572.719.057 1.48.026 2.198 0 .292-.172.573-.266.865-.188-.094-.505-.146-.52-.266-.131-.828-.157-1.677-.308-2.505-.172-1.016-.453-2-.667-3-.052-.292-.062-.589-.104-.88-.052-.323-.146-.641-.188-.959-.041-.453.027-.937-.078-1.375Z" fill="#A53839"/></g></g><path d="M87.015 68.958c-.531-.198-.521-.609-.292-1.026.162-.291.547-.812.615-.77.427.187.864.453 1.12.822.187.282.078.735.104 1.178 1.64-.907 2.656-.51 2.656.942-.906.308-1.64.334-2.375-.422-.427-.427-1.214-.484-1.828-.724Zm-3.88 49.709c1.015 1.255 2.39 1.401 3.854 1.307.203-.016.416.078.625.094.656.067 1.307.146 1.963.187 1.01.063 2.052.214 3.068.13.984-.078 1.958-.385 2.932-.599.48-.104.948-.291 1.427-.385 1.172-.229 2.36-.427 3.547-.615.36-.067.729-.078 1.104-.078 1.068.026 2.084-.093 2.855-.963.067-.063.213-.052.385-.094.12.323.203.589.349 1.031-.906.292-1.787.573-2.656.891-.276.094-.49.349-.771.443-.87.291-1.745.547-2.625.797-.245.067-.495.083-.75.109-.401.036-.89-.068-1.172.13-1.068.719-2.266.75-3.453.932-1.281.204-2.521.151-3.787 0-1.854-.224-3.75-.198-5.546-.609-.88-.203-1.6-1.109-2.35-1.76-.265-.23-.427-.615-.64-.948.63-.802.974-.828 1.64 0ZM78.508 72.76c-.599-1.171-.974-2.359-.682-3.708.084-.36-.062-.76-.104-1.146-.052-.547.224-.708.734-.677.735.037 1.12.85 1.172 1.505.078.787-.291 1.506.078 2.428.428 1.093 1.282 1.557 1.844 2.359.625.89 1.89.864 2.266 1.948.12.344.411.635.65 1-2.077.88-3.437-.23-4.676-1.375a5.438 5.438 0 0 1-.948-1.172c-.188-.35-.162-.818-.334-1.162Z" fill="#1A3151"/><path d="M54.553 113.531c-.177-.88-1.63-1.797-2-2.651-.537-1.229-1.188-2.041-1.589-3.317-.4-1.271-3.213-3.881-3.453-11.094-.068-1.948-1.266-7.537-.865-9.51 1.334-6.61.584-12.522 3.891-16.574 2.068-2.744 3.745-6.13 6.042-8.64 1.333-1.505 6.317-3.427 9.797-4.182 5.333-1.152 9.724.89 12.974 1.729 3.895 1.015 7 4.854 7 4.854.026-.078-.12-2.266-.276-3.292-.094-.505-.376-1-.495-1.505-.162-.604-.24-1.214-.36-1.828-.12-.682-.307-1.375-.39-2.052-.13-1.177-.412-2.375-.24-3.495.23-1.411.214-2.719.484-3.333.438-1.146 1.027-1.657 1.891-1.839 1.24-.11 3.255-.495 3.776 1.302.25 1.188-.15 4.057-.135 4.948.01.48-.078 1.042.135 1.427.438.813.12 1.563.063 2.36a25.403 25.403 0 0 0-.037 3.39c.026.292-.026.839-.12 1.37.094.656.37 1.427.516 1.693.401 0 .922.161 1.177-.026 1.146-.891 2.531-.959 3.854-1.334.933-.25 1.797-.797 2.73-.958 1.88-.333 3.442-1.411 5.203-1.974 1.692-.547 3.463-.958 5.239-1.135 2.651-.266 5.333-.334 8-.36 1.761-.026 3.401.589 4.958 1.375 1.334.693 2.625 1.438 4.136 1.828a5.065 5.065 0 0 1 3.37 2.73c.135.27.416.442.604.682.609.776 1.239 1.531 1.812 2.349-.057 1.015.532 1.922.985 2.823 3.057 6.099 1.083 18.838 1.073 18.875-1.349 4.463-1.646 8.567-3.349 12.896-.901 4.635-2.318 8.63-5.084 12.531-3.13 4.76-3.823 7.125-8.932 9.797-.213.052-5.083 4.093-8.682 4.958-2.427.589-6.808 2.594-9.24 2.906-1.411.438-2.823.61-4.318.396-.838-.13-1.734.12-2.598.214-.204.015-.401.067-.589.067-.839.026-1.708-.224-2.495.323-.172.104-.531-.083-.812-.109-1.72-.13-3.464-.172-5.172-.427-1.334-.198-2.64-.667-3.959-.974-2.333-.557-4.708-.974-7-1.667-1.244-.37-2.348-1.182-3.494-1.823-1.334-.776-2.693-1.51-3.948-2.39-.76-.532-1.307-1.344-2-1.985-.495-.453-1.026-1.078-1.6-1.172-1.228-.203-1.614-1.203-2.306-1.895-.735-.745-1.454-1.532-2.016-2.402-.797-1.239-1.839-2.317-2.156-3.88Zm-2.87-14.182c.266 1.547 2.057 4.651 2.161 6.198.146 2.198 3.214 5.016 3.745 7.068.162.614 1.151 1.974 1.589 2.437 1.599 1.719 2.614 3.162 4.317 4.761.938.869.855 1.64 1.912 2.375 1.479 1.052 2.916 2.161 4.677 2.718 1.531.495 3.042 1.068 4.599 1.505 1.146.323 2.349.485 3.52.724.386.079.777.146 1.147.24.296.078.588.214.88.25.843.109 1.692.188 2.547.255 1 .094 2.015.188 3.026.255.812.037 1.63-.015 2.442.053.438.026.865.317 1.292.281 1.078-.094 2.161-.308 3.24-.485.161-.026.307-.104.468-.145.828-.188 1.641-.37 2.464-.532 1.297-.239 2.614-.442 3.906-.682.417-.078.818-.214 1.214-.333l.041.146c.412-.105.813-.24 1.23-.334.906-.208 1.864-.276 2.703-.625 1.39-.557 2.708-1.307 4.067-1.958 1.292-.625 2.657-1.146 3.896-1.87 1.037-.609 2-1.385 2.891-2.198 1.229-1.104 2.291-2.411 3.562-3.479 1.094-.922 1.839-2.052 2.599-3.203.308-.438.651-.875.891-1.36a438.608 438.608 0 0 0 3.239-6.557c.271-.536.724-1.12.683-1.656-.104-1.583.479-2.958.932-4.396.719-2.281 1.307-4.615 1.844-6.937.291-1.302.291-2.677 1.01-3.865.026-.052.026-.104.042-.172.281-2.469.641-4.932.838-7.416.12-1.652.026-3.318.016-4.985 0-.505.037-1.068-.161-1.505-.427-.974-.323-2.094-1.016-3.026-.974-1.308-1.677-2.828-2.693-4.084-1.12-1.385-2.745-2.224-4.385-2.838a20.241 20.241 0 0 0-4.443-1.135c-1.333-.188-2.719.093-4.036-.094-2.146-.276-4.24-.787-6.375-1.156-1.907-.35-3.839-.323-5.693.24-1.625.489-3.214 1.119-4.813 1.692-.838.307-1.682.583-2.505.932-1 .443-1.974.959-2.99 1.385-.359.146-.786.12-1.145.24-.828.307-1.64.682-2.48.974-.145.042-.442-.146-.588-.292-.531-.479-1.068-.895-1.828-.864-.396.01-3.823-1.281-4.797-1.99-2.161-1.588-5.76-3.026-9.083-3.172-.865-.041-6.516.6-7.344.865-5.385 1.76-4.974 3.12-8.786 7.349-.453 1.37-1.625 4.333-2.453 5.48-.547 1.135-1.537 5.4-2.162 6.77-.318.698-.599 5.854-.719 6.63-.682 4.667 0 6.813.865 11.521Zm34.88-49.281c.068 1.411-.307 2.828.016 4.24.104.437.036.921.078 1.374.041.318.135.636.187.959.042.291.052.588.105.88.213 1 .494 1.984.666 3 .151.828.177 1.677.307 2.505.016.12.334.172.521.266.094-.292.266-.573.266-.865.031-.719.547-1.48-.026-2.198-.01-.015 0-.068.015-.068.667-.468.224-.87-.026-1.333-.135-.255-.213-.614-.135-.88.172-.667.172-1.162-.505-1.599-.495-.323-.563-1.094-.11-1.375.573-.36.63-.745.829-1.307.385-1.12-.105-1.693-.787-2.35-.224-.197-.427-.583-.385-.848.036-.214.453-.375.692-.563.136-.104.282-.213.495-.385-.64-.146-1.11-.266-1.573-.334-.187-.026-.375.068-.562.105.187.297-.078.573-.068.776Z" fill="#1A3151"/></g><defs><clipPath id="Group 9__a"><path fill="white" d="M0 0h181.417v181.417H0z"/></clipPath></defs></svg>