<?xml version="1.0" encoding="UTF-8"?>
<svg xmlns="http://www.w3.org/2000/svg" viewBox="0 0 136.06 136.06">
  <defs>
    <style>
      .cls-1 {
        fill: #fff;
      }

      .cls-2 {
        fill: #0c3454;
      }

      .cls-3 {
        fill: #e0e1e3;
      }
    </style>
  </defs>
  <g id="Layer_3" data-name="Layer 3">
    <rect class="cls-3" x="0" width="136.06" height="136.06"/>
  </g>
  <g id="B_W" data-name="B&amp;amp;W">
    <g>
      <path class="cls-1" d="m98.48,56.57c.01,1.25.08,2.5-.01,3.74-.15,1.86-.42,3.71-.63,5.56,0,.05,0,.09-.03.13-.54.89-.54,1.92-.76,2.9-.4,1.74-.84,3.49-1.38,5.2-.34,1.08-.78,2.11-.7,3.3.03.4-.31.84-.51,1.24-.8,1.65-1.61,3.29-2.43,4.92-.18.36-.44.69-.67,1.02-.57.86-1.13,1.71-1.95,2.4-.95.8-1.75,1.78-2.67,2.61-.67.61-1.39,1.19-2.17,1.65-.93.54-1.95.93-2.92,1.4-1.02.49-2.01,1.05-3.05,1.47-.63.26-1.35.31-2.03.47-.31.07-.61.17-.92.25-.01-.03-.02-.07-.03-.11-.3.09-.6.19-.91.25-.97.18-1.96.33-2.93.51-.62.12-1.23.26-1.85.4-.12.03-.23.09-.35.11-.81.13-1.62.29-2.43.36-.32.03-.64-.19-.97-.21-.61-.05-1.22-.01-1.83-.04-.76-.05-1.52-.12-2.27-.19-.64-.05-1.28-.11-1.91-.19-.22-.03-.44-.13-.66-.19-.28-.07-.57-.12-.86-.18-.88-.18-1.78-.3-2.64-.54-1.17-.33-2.3-.76-3.45-1.13-1.32-.42-2.4-1.25-3.51-2.04-.79-.55-.73-1.13-1.43-1.78-1.28-1.2-2.04-2.28-3.24-3.57-.33-.35-1.07-1.37-1.19-1.83-.4-1.54-2.7-3.65-2.81-5.3-.08-1.16-1.42-3.49-1.62-4.65-.65-3.53-1.16-5.14-.65-8.64.09-.58.3-4.45.54-4.97.47-1.03,1.21-4.23,1.62-5.08.62-.86,1.5-3.08,1.84-4.11,2.86-3.17,2.55-4.19,6.59-5.51.62-.2,4.86-.68,5.51-.65,2.49.11,5.19,1.19,6.81,2.38.73.53,3.3,1.5,3.6,1.49.57-.02.97.29,1.37.65.11.11.33.25.44.22.63-.22,1.24-.5,1.86-.73.27-.09.59-.07.86-.18.76-.32,1.49-.71,2.24-1.04.62-.26,1.25-.47,1.88-.7,1.2-.43,2.39-.9,3.61-1.27,1.39-.42,2.84-.44,4.27-.18,1.6.28,3.17.66,4.78.87.99.14,2.03-.07,3.03.07,1.13.16,2.27.44,3.33.85,1.23.46,2.45,1.09,3.29,2.13.76.94,1.29,2.08,2.02,3.06.52.7.44,1.54.76,2.27.15.33.12.75.12,1.13Z"/>
      <path class="cls-2" d="m98.47,60.31c.09-1.24.02-2.49.01-3.74,0-.38.03-.8-.12-1.13-.32-.73-.24-1.57-.76-2.27-.73-.98-1.26-2.12-2.02-3.06-.84-1.04-2.06-1.67-3.29-2.13-1.06-.41-2.2-.69-3.33-.85-1-.14-2.04.07-3.03-.07-1.61-.21-3.18-.59-4.78-.87-1.43-.26-2.88-.24-4.27.18-1.22.37-2.41.84-3.61,1.27-.63.23-1.26.44-1.88.7-.75.33-1.48.72-2.24,1.04-.27.11-.59.09-.86.18-.62.23-1.23.51-1.86.73-.11.03-.33-.11-.44-.22-.4-.36-.8-.67-1.37-.65-.3.01-2.87-.96-3.6-1.49-1.62-1.19-4.32-2.27-6.81-2.38-.65-.03-4.89.45-5.51.65-4.04,1.32-3.73,2.34-6.59,5.51-.34,1.03-1.22,3.25-1.84,4.11-.41.85-1.15,4.05-1.62,5.08-.24.52-.45,4.39-.54,4.97-.51,3.5,0,5.11.65,8.64.2,1.16,1.54,3.49,1.62,4.65.11,1.65,2.41,3.76,2.81,5.3.12.46.86,1.48,1.19,1.83,1.2,1.29,1.96,2.37,3.24,3.57.7.65.64,1.23,1.43,1.78,1.11.79,2.19,1.62,3.51,2.04,1.15.37,2.28.8,3.45,1.13.86.24,1.76.36,2.64.54.29.06.58.11.86.18.22.06.44.16.66.19.63.08,1.27.14,1.91.19.75.07,1.51.14,2.27.19.61.03,1.22-.01,1.83.04.33.02.65.24.97.21.81-.07,1.62-.23,2.43-.36.12-.02.23-.08.35-.11.62-.14,1.23-.28,1.85-.4.97-.18,1.96-.33,2.93-.51.31-.06.61-.16.91-.25.01.04.02.08.03.11.31-.08.61-.18.92-.25.68-.16,1.4-.21,2.03-.47,1.04-.42,2.03-.98,3.05-1.47.97-.47,1.99-.86,2.92-1.4.78-.46,1.5-1.04,2.17-1.65.92-.83,1.72-1.81,2.67-2.61.82-.69,1.38-1.54,1.95-2.4.23-.33.49-.66.67-1.02.82-1.63,1.63-3.27,2.43-4.92.2-.4.54-.84.51-1.24-.08-1.19.36-2.22.7-3.3.54-1.71.98-3.46,1.38-5.2.22-.98.22-2.01.76-2.9.02-.04.02-.08.03-.13.21-1.85.48-3.7.63-5.56Zm-60.25,20.36c-.3-.95-2.41-2.91-2.59-8.32-.05-1.46-.95-5.65-.65-7.13,1-4.96.44-9.39,2.92-12.43,1.55-2.06,2.81-4.6,4.53-6.48,1-1.13,4.74-2.57,7.35-3.14,4-.86,7.29.67,9.73,1.3,2.92.76,5.25,3.64,5.25,3.64.02-.06-.09-1.7-.21-2.47-.07-.38-.28-.75-.37-1.13-.12-.45-.18-.91-.27-1.37-.09-.51-.23-1.03-.29-1.54-.1-.88-.31-1.78-.18-2.62.17-1.06.16-2.04.36-2.5.33-.86.77-1.24,1.42-1.38.93-.08,2.44-.37,2.83.98.19.89-.11,3.04-.1,3.71.01.36-.06.78.1,1.07.33.61.09,1.17.05,1.77-.07.84-.07,1.7-.03,2.54.02.22-.02.63-.09,1.03.07.49.28,1.07.39,1.27.3,0,.69.12.88-.02.86-.67,1.9-.72,2.89-1,.7-.19,1.35-.6,2.05-.72,1.41-.25,2.58-1.06,3.9-1.48,1.27-.41,2.6-.72,3.93-.85,1.99-.2,4-.25,6-.27,1.32-.02,2.55.44,3.72,1.03,1,.52,1.97,1.08,3.1,1.37,1.08.27,2,.97,2.53,2.05.1.2.31.33.45.51.46.58.93,1.15,1.36,1.76-.04.76.4,1.44.74,2.12,2.29,4.57.81,14.13.8,14.15-1.01,3.35-1.23,6.43-2.51,9.68-.68,3.47-1.74,6.47-3.81,9.39-2.35,3.57-2.87,5.35-6.7,7.35-.16.04-3.81,3.07-6.51,3.72-1.82.44-5.11,1.95-6.93,2.18-1.06.33-2.12.46-3.24.3-.63-.1-1.3.09-1.95.16-.15,0-.3.05-.44.05-.63.02-1.28-.17-1.87.24-.13.08-.4-.06-.61-.08-1.29-.1-2.6-.13-3.88-.32-1-.15-1.98-.5-2.97-.73-1.75-.42-3.53-.73-5.25-1.25-.93-.28-1.76-.89-2.62-1.37-1-.58-2.02-1.13-2.96-1.79-.57-.4-.98-1.01-1.5-1.49-.37-.34-.77-.81-1.2-.88-.92-.15-1.21-.9-1.73-1.42-.55-.56-1.09-1.15-1.51-1.8-.6-.93-1.38-1.74-1.62-2.91-.13-.66-1.22-1.35-1.5-1.99-.4-.92-.89-1.53-1.19-2.49Zm27.8-38.41c-.37-.24-.42-.82-.08-1.03.43-.27.47-.56.62-.98.29-.84-.08-1.27-.59-1.76-.17-.15-.32-.44-.29-.64.03-.16.34-.28.52-.42.1-.08.21-.16.37-.29-.48-.11-.83-.2-1.18-.25-.14-.02-.28.05-.42.08.14.22-.06.43-.05.58.05,1.06-.23,2.12.01,3.18.08.33.03.69.06,1.03.03.24.1.48.14.72.03.22.04.44.08.66.16.75.37,1.49.5,2.25.11.62.13,1.26.23,1.88.01.09.25.13.39.2.07-.22.2-.43.2-.65.02-.54.41-1.11-.02-1.65-.01-.01,0-.05.01-.05.5-.35.17-.65-.02-1-.1-.19-.16-.46-.1-.66.13-.5.13-.87-.38-1.2Z"/>
    </g>
    <path class="cls-2" d="m92.41,67.07c.3-1.38.62-2.77.61-4.23,0-.55.08-1.13.07-1.72,0-.54.05-1.13.27-1.62.34-.75.13-1.47.06-2.19-.07-.8-.34-1.58-.52-2.39.67,0,1.1.4,1.32,1.08.15.44.26.95.56,1.27.26.28.09.41.06.64-.06.37-.04.75-.08,1.13-.03.26-.11.53-.18.79-.08.29-.21.56-.25.85-.09.59-.02,1.17-.14,1.79-.15.79-.66,1.81.34,2.71-1.18.59-.83,1.83-1.15,2.79-.22.65-.02,1.43-.08,2.15-.02.31-.26.6-.36.92-.19.65-.33,1.31-.53,1.97-.09.31-.25.61-.44,1.03-.17.03-.5.08-.85.14v-1.16s.05.03.08.04c.19-.65.49-1.28.56-1.94.13-1.37.36-2.7.65-4.05Z"/>
    <path class="cls-2" d="m88.3,52.55c-.48-.2-.92-.5-1.33-.83-.19-.14-.26-.44-.38-.66.94-.51,1.76-.25,2.27.64.04.08.31.07.32.12.03.21.06.57-.02.61-.26.11-.62.22-.86.12Z"/>
    <path class="cls-2" d="m86.76,63.49c-.04-.27-.07-.56-.02-.83.05-.25.17-.61.35-.69.5-.2,1.33.42,1.31.97-.01.2-.23.39-.41.68.14.42.32.92.49,1.43-.53.26-1.09.44-1.38-.04-.26-.42-.26-1-.34-1.52Z"/>
    <path class="cls-2" d="m88.49,78.22c.2-.05.42-.02.63-.03-.03.25-.04.51-.11.75-.04.15-.22.27-.26.42-.03.14.05.31.09.5-.37.25-.98.4-1.11,1.14-.04.22-.5.4-.81.5-.13.05-.43-.11-.5-.25-.14-.3.02-.52.24-.8.43-.57.67-1.28.99-1.93.25-.09.54-.22.84-.3Z"/>
    <path class="cls-2" d="m87.59,69.81c.03.24-.42.62-.72.8-.19.1-.55-.01-.78-.13-.4-.21-.19-.52-.05-.81.16-.33.29-.68.44-1.01.44-.98.49-.99,1.44-.41-.24.53-.4.99-.33,1.56Z"/>
    <path class="cls-2" d="m83.88,53.3c-.02-.27-.3-.56-.54-.74-.39-.3-.61-.57-.2-1.01.29-.3.88-.32,1.16.04.38.48.71,1,.99,1.54.22.42-.08.68-.78.68-.33.04-.59-.01-.63-.51Z"/>
    <path class="cls-2" d="m82.32,75.79c.17-1.65,2.25-3.77,3.21-3.45.04.3.07.59.1.79-.1.79-1.23.72-1.17,1.63,0,.07-.41.18-.67.29.05.12.12.26.21.47-.56.09-1.1.18-1.68.27Z"/>
    <path class="cls-2" d="m84.27,84.15c-.15.22-.3.5-.52.6-.57.27-.73.65-.52,1.12-.27.23-.53.39-.71.61-.52.65-1.03.24-1.66-.04.12-.2.21-.4.34-.57.43-.53.86-1.07,1.32-1.57.44-.47.91-.9,1.39-1.33.3-.27.59-.11.73.18.06.13-.07.37-.14.55-.06.16-.13.32-.23.45Z"/>
    <path class="cls-2" d="m82.84,61.05c.14.42.3.83.4,1.27.04.2,0,.57-.11.62-.37.16-.79.32-1.18.28-.25-.02-.55-.28-.4-.75s.15-1,.16-1.5c0-.45.2-.81.62-.8.4.01.75.29.51.88Z"/>
    <path class="cls-2" d="m78.42,69.91c.41-.29.73-.68,1.28-.74.43-.05.51.03.49.49,0,.05.14.11.22.16-.87.45-1.05.84-.76,1.74-.27.06-.52.19-.71.13-.29-.1-.74-.32-.75-.5-.01-.41-.33-.89.23-1.28Z"/>
    <path class="cls-2" d="m75.4,67.76c0,.1-.02.21,0,.32.15.98-.04,1.27-.97,1.43-.1.02-.33-.18-.34-.28,0-.83-.06-1.68.05-2.51.04-.28.48-.51.74-.77.16.18.31.37.48.55.39.41.03.84.04,1.26Z"/>
    <path class="cls-2" d="m73.39,56.21c.32-.43.69-.82,1.06-1.21.07-.06.31-.06.37,0,.22.25.4.54.5.68-.06.85-.65,1.6-1.2,1.57-.22-.01-.46-.32-.63-.53-.1-.13-.18-.41-.1-.51Z"/>
    <path class="cls-2" d="m78.27,80.18c-.9.57-1.79,1.12-2.81,1.45-.33.11-.73.23-1.05.14-.33-.09-.61-.42-.86-.6.82-.45,1.46-.8,2.1-1.15l-.06-.12.6.12c-.03-.06-.06-.11-.08-.17.33-.25.64-.53,1-.74.39-.22.91-.24,1.02-.82.02-.07.16-.13.25-.17.36-.17,1,.2,1.06-.55.35.08.75.07,1.01.25.17.13.16.54.2.82.02.09-.09.18-.21.12-.38.16-.88.23-1.1.51-.31.4-.66.66-1.07.91Z"/>
    <path class="cls-2" d="m73.43,51.2c-.6.42-1.2.85-1.85,1.31-.19-.25-.37-.5-.56-.75.05.01.1.02.16.03.1-.44.2-.88.33-1.42.42-.1.96-.23,1.48-.35.04-.35,0-.73.14-1.05.18-.49.61-.3.91-.14.26.14.49.35.26.77-.15.29.21.79-.33.98-.27.1-.56.17-.92.27.17.15.28.26.38.35Z"/>
    <path class="cls-2" d="m70.1,57.91c.51-.51,1.79-.36,2.2.25.07.1.12.34.07.38-.21.16-.46.26-.69.38-.02-.04-.03-.08-.04-.12-.48-.03-.97-.05-1.45-.1-.12,0-.32-.16-.31-.23.03-.2.09-.43.22-.56Z"/>
    <path class="cls-2" d="m68.88,54.84c-.77.01-1.35-.53-1.31-1.09.01-.15.15-.31.26-.42.33-.33,1.77-.47,2.04-.13.22.29.29.74.32,1.12,0,.09-.36.25-.58.33-.28.1-.59.16-.73.19Z"/>
    <path class="cls-2" d="m68.03,68.03l.18.21c-.08.18-.19.36-.22.54-.03.16.04.34.08.61-.56.49-1.17-.07-1.88-.3.61-.36,1.22-.71,1.84-1.06Z"/>
    <path class="cls-2" d="m67.21,58.98c-.23-.09-.49-.28-.69-.23-.66.16-.84-.27-1.07-.69,1.56-.94,2.46-.85,3.52.27-.19.33-.36.63-.62,1.06-.31-.11-.73-.26-1.14-.41Z"/>
    <path class="cls-2" d="m65.26,51.72c-.4-.15-.39-.46-.22-.77.12-.22.41-.61.46-.58.32.14.65.34.84.62.14.21.06.55.08.88,1.23-.68,1.99-.38,1.99.71-.68.23-1.23.25-1.78-.32-.32-.32-.91-.36-1.37-.54Z"/>
    <path class="cls-2" d="m62.35,89c.76.94,1.79,1.05,2.89.98.15-.01.31.06.47.07.49.05.98.11,1.47.14.76.05,1.54.16,2.3.1.74-.06,1.47-.29,2.2-.45.36-.08.71-.22,1.07-.29.88-.17,1.77-.32,2.66-.46.27-.05.55-.06.83-.06.8.02,1.56-.07,2.14-.72.05-.05.16-.04.29-.07.09.24.15.44.26.77-.68.22-1.34.43-1.99.67-.21.07-.37.26-.58.33-.65.22-1.31.41-1.97.6-.18.05-.37.06-.56.08-.3.03-.67-.05-.88.1-.8.54-1.7.56-2.59.7-.96.15-1.89.11-2.84,0-1.39-.17-2.81-.15-4.16-.46-.66-.15-1.2-.83-1.76-1.32-.2-.17-.32-.46-.48-.71.47-.6.73-.62,1.23,0Z"/>
    <path class="cls-2" d="m58.88,54.57c-.45-.88-.73-1.77-.51-2.78.06-.27-.05-.57-.08-.86-.04-.41.17-.53.55-.51.55.03.84.64.88,1.13.06.59-.22,1.13.06,1.82.32.82.96,1.17,1.38,1.77.47.67,1.42.65,1.7,1.46.09.26.31.48.49.75-1.56.66-2.58-.17-3.51-1.03-.27-.25-.52-.56-.71-.88-.14-.26-.12-.61-.25-.87Z"/>
  </g>
</svg>